<?xml version="1.0" encoding="UTF-8"?>
<svg width="24px" height="24px" viewBox="0 0 24 24" version="1.1" xmlns="http://www.w3.org/2000/svg" xmlns:xlink="http://www.w3.org/1999/xlink">
    <!-- Generator: Sketch 59.1 (86144) - https://sketch.com -->
    <title>ic_fluent_add_24_light</title>
    <desc>Created with Sketch.</desc>
    <g id="ðŸ”-Product-Icons" stroke="none" stroke-width="1" fill="none" fill-rule="evenodd">
        <g id="ic_fluent_add_24_light" fill="#212121" fill-rule="nonzero">
            <path d="M11.9101244,3.00828583 L12,3 C12.2454599,3 12.4496084,3.18192874 12.4919443,3.42184221 L12.5,3.51428571 L12.499401,11.5 L20.4791878,11.5 C20.7345708,11.5 20.9469722,11.6768752 20.9910197,11.9101244 L20.999401,12 C20.999401,12.2454599 20.8153754,12.4496084 20.5726968,12.4919443 L20.4791878,12.5 L12.499401,12.5 L12.5,20.4857143 C12.5,20.7381873 12.3231248,20.9481686 12.0898756,20.9917142 L12,21 C11.7545401,21 11.5503916,20.8180713 11.5080557,20.5781578 L11.5,20.4857143 L11.499401,12.5 L3.5196142,12.5 C3.26423126,12.5 3.05182978,12.3231248 3.00778233,12.0898756 L2.999401,12 C2.999401,11.7545401 3.18342659,11.5503916 3.42610522,11.5080557 L3.5196142,11.5 L11.499401,11.5 L11.5,3.51428571 C11.5,3.26181269 11.6768752,3.05183139 11.9101244,3.00828583 L12,3 L11.9101244,3.00828583 Z" id="ðŸŽ¨-Color"></path>
        </g>
    </g>
</svg>