<svg width="12" height="12" viewBox="0 0 12 12" fill="none" xmlns="http://www.w3.org/2000/svg">
<path d="M5.89823 2.00685L6 2C6.3797 2 6.69349 2.28215 6.74315 2.64823L6.75 2.75V5.249L9.25 5.25C9.6297 5.25 9.94349 5.53215 9.99315 5.89823L10 6C10 6.3797 9.71785 6.69349 9.35177 6.74315L9.25 6.75L6.75 6.749V9.25C6.75 9.6297 6.46785 9.94349 6.10177 9.99315L6 10C5.6203 10 5.30651 9.71785 5.25685 9.35177L5.25 9.25V6.749L2.75 6.75C2.3703 6.75 2.05651 6.46785 2.00685 6.10177L2 6C2 5.6203 2.28215 5.30651 2.64823 5.25685L2.75 5.25L5.25 5.249V2.75C5.25 2.3703 5.53215 2.05651 5.89823 2.00685L6 2L5.89823 2.00685Z" fill="#212121"/>
</svg>
