<svg width="16" height="16" viewBox="0 0 16 16" fill="none" xmlns="http://www.w3.org/2000/svg">
<path d="M9.32773 6.40283L8.43298 5.51561C7.94779 5.02856 7.9478 4.23967 8.43299 3.75262C8.9191 3.26465 9.70794 3.26451 10.1942 3.7522L13.2886 6.84333C14.2376 7.796 14.2376 9.33979 13.2886 10.2925C12.7891 10.7938 12.1262 11.0314 11.4723 11.0058C11.2083 11.594 10.6189 12.0039 9.93246 12.0039H4.68888C3.75416 12.0039 2.99969 11.2438 2.99969 10.3102V9.24345C2.99969 8.9455 3.04721 8.65826 3.13511 8.38911C2.47169 8.14032 1.99951 7.5003 1.99951 6.75C1.99951 5.7835 2.78301 5 3.74951 5C4.63494 5 5.36678 5.65757 5.48333 6.51101C5.56438 6.50372 5.64646 6.5 5.72942 6.5H8.89192C9.01077 6.5 9.12657 6.50873 9.23875 6.52418C9.2669 6.4833 9.29658 6.4429 9.32773 6.40283ZM9.48618 4.45837C9.39076 4.36259 9.23686 4.36259 9.14145 4.45837C9.04524 4.55495 9.04498 4.71215 9.14065 4.80905L10.737 6.39193L10.2721 6.83811C10.1 7.01968 10.0082 7.15813 9.95439 7.28417L9.78197 7.68804L9.35922 7.56919C9.20261 7.52517 9.04653 7.5 8.89192 7.5H5.72942C4.77742 7.5 3.99969 8.2801 3.99969 9.24345V10.3102C3.99969 10.6951 4.31006 11.0039 4.68888 11.0039H7.00487L7.00485 11V10.5594C7.00485 10.3091 6.74956 10 6.31567 10H5.49664C5.2205 10 4.99664 9.77614 4.99664 9.5C4.99664 9.22386 5.2205 9 5.49664 9H6.31567C7.19531 9 8.00485 9.65595 8.00485 10.5594V11L8.00484 11.0039H9.93246C10.2834 11.0039 10.5752 10.739 10.6155 10.3951L10.6811 9.83424L11.23 9.9674C11.6998 10.0814 12.2141 9.95413 12.5801 9.58671C13.1403 9.02437 13.1404 8.11193 12.5805 7.54944L9.48704 4.45923L9.48618 4.45837ZM3.63046 7.4906C3.86822 7.20329 4.16328 6.96528 4.49821 6.79464C4.49907 6.77987 4.49951 6.76499 4.49951 6.75C4.49951 6.33579 4.16373 6 3.74951 6C3.3353 6 2.99951 6.33579 2.99951 6.75C2.99951 7.1237 3.27282 7.43356 3.63046 7.4906Z" fill="#212121"/>
</svg>
