<svg width="16" height="16" viewBox="0 0 16 16" fill="none" xmlns="http://www.w3.org/2000/svg">
<path d="M0.999512 7.99846C0.999512 4.13332 4.13283 1 7.99797 1C11.8631 1 14.9964 4.13332 14.9964 7.99846C14.9964 11.8636 11.8631 14.9969 7.99797 14.9969C4.13283 14.9969 0.999512 11.8636 0.999512 7.99846ZM7.99797 2L7.94859 2.0002C8.03989 2.17906 8.13987 2.39504 8.22996 2.6344C8.47304 3.28021 8.69358 4.22596 8.30098 5.06198C7.93927 5.83221 7.31604 6.03169 6.85055 6.15196L6.78328 6.1693C6.33064 6.28588 6.14303 6.3342 6.00793 6.5393C5.88155 6.73117 5.90435 6.97198 6.04781 7.43947C6.05802 7.47274 6.06903 7.50782 6.08048 7.54431C6.13745 7.72585 6.20544 7.94249 6.2409 8.14629C6.28497 8.39961 6.29674 8.71813 6.13674 9.02515C5.97649 9.33265 5.76469 9.54133 5.51495 9.67739C5.27988 9.80546 5.03589 9.85431 4.85085 9.88713L4.78225 9.89922C4.42404 9.96218 4.24235 9.99411 4.06762 10.1813C3.93079 10.3279 3.8456 10.5826 3.79619 10.9532C3.77603 11.1044 3.7639 11.2544 3.75143 11.4086L3.74474 11.4907C3.73069 11.6611 3.7134 11.8551 3.67562 12.0211L3.65053 12.1314C4.74332 13.2806 6.28699 13.9969 7.99797 13.9969C9.11317 13.9969 10.1573 13.6926 11.0518 13.1624C10.9724 13.0844 10.8822 12.9879 10.7936 12.8764C10.5566 12.578 10.2499 12.0688 10.3563 11.47C10.4073 11.1829 10.5614 10.9414 10.7122 10.7544C10.8658 10.5641 11.0515 10.3878 11.2149 10.2374C11.2535 10.2019 11.2906 10.168 11.3262 10.1355C11.4515 10.0211 11.5588 9.92316 11.6504 9.8271C11.707 9.76789 11.7473 9.71974 11.7746 9.6809C11.7977 9.64803 11.8049 9.63106 11.806 9.62847C11.8567 9.46063 11.7951 9.33756 11.7221 9.28115C11.6673 9.23876 11.5269 9.17578 11.2764 9.33446C11.179 9.39613 11.0923 9.45096 11.0225 9.4915C10.9702 9.52192 10.8641 9.58352 10.7482 9.60887C10.685 9.62268 10.5463 9.64284 10.3951 9.57176C10.2242 9.49147 10.1458 9.34816 10.1142 9.24967C10.0865 9.16316 10.0854 9.08603 10.0857 9.0499C10.086 9.00758 10.0897 8.96724 10.0928 8.9379C10.0954 8.91359 10.0985 8.8877 10.1019 8.86011C10.1275 8.64954 10.1652 8.33976 10.0449 7.87792C9.94813 7.50654 9.80724 7.22406 9.66337 6.9356C9.59706 6.80265 9.53011 6.66841 9.46657 6.52364C9.37901 6.32415 9.28273 6.06433 9.29966 5.78776C9.31923 5.46814 9.48127 5.20747 9.74249 5.01154C10.0595 4.77374 10.4583 4.22945 10.8033 3.67825C10.9683 3.4146 11.1096 3.1683 11.2097 2.98774C11.2176 2.97342 11.2253 2.95951 11.2327 2.94606C10.2994 2.34725 9.18923 2 7.99797 2Z" fill="#212121"/>
</svg>
