<svg width="24" height="24" viewBox="0 0 24 24" fill="none" xmlns="http://www.w3.org/2000/svg">
<path d="M4.75 4C3.23122 4 2 5.23122 2 6.75V17.25C2 18.7688 3.23122 20 4.75 20H13.7529C13.4554 19.5432 13.2353 19.0389 13.1123 18.5H4.75C4.05964 18.5 3.5 17.9404 3.5 17.25V6.75C3.5 6.05964 4.05964 5.5 4.75 5.5H19.25C19.9404 5.5 20.5 6.05964 20.5 6.75V11.624C21.4451 12.2917 22 13.4037 22 14.5V6.75C22 5.23122 20.7688 4 19.25 4H4.75Z" fill="#212121"/>
<path d="M16.5214 20C15.9042 19.6494 15.4296 19.1314 15.1846 18.5C15.0649 18.1916 15 17.8561 15 17.5C15 17.2239 14.7761 17 14.5 17C14.2239 17 14 17.2239 14 17.5C14 17.8435 14.0516 18.1789 14.1485 18.5C14.3152 19.0524 14.6159 19.5627 15.0184 20C15.7443 20.7887 16.8012 21.34 18 21.4725V22.5C18 22.7761 18.2239 23 18.5 23C18.7761 23 19 22.7761 19 22.5V21.4725C21.25 21.2238 23 19.5 23 17.5C23 17.2239 22.7761 17 22.5 17C22.2239 17 22 17.2239 22 17.5C22 19.25 20.433 20.5 18.5 20.5C17.7657 20.5 17.0843 20.3196 16.5214 20Z" fill="#212121"/>
<path d="M18.5 19.5C17.6381 19.5 16.9414 19.088 16.5045 18.5C16.181 18.0646 16 17.5327 16 17V14.5C16 13.2461 17 12 18.5 12C19.3648 12 20.0634 12.417 20.5 13.0088C20.8207 13.4435 21 13.9725 21 14.5V17C21 18.2457 20 19.5 18.5 19.5Z" fill="#212121"/>
<path d="M6.75 8C6.33579 8 6 8.33579 6 8.75C6 9.16421 6.33579 9.5 6.75 9.5H11.25C11.6642 9.5 12 9.16421 12 8.75C12 8.33579 11.6642 8 11.25 8H6.75Z" fill="#212121"/>
<path d="M6 11.75C6 11.3358 6.33579 11 6.75 11H13.25C13.6642 11 14 11.3358 14 11.75C14 12.1642 13.6642 12.5 13.25 12.5H6.75C6.33579 12.5 6 12.1642 6 11.75Z" fill="#212121"/>
<path d="M6 14.75C6 14.3358 6.33579 14 6.75 14H12.25C12.6642 14 13 14.3358 13 14.75C13 15.1642 12.6642 15.5 12.25 15.5H6.75C6.33579 15.5 6 15.1642 6 14.75Z" fill="#212121"/>
</svg>
