<svg width="48" height="48" viewBox="0 0 48 48" fill="none" xmlns="http://www.w3.org/2000/svg">
<path d="M18.5 18.2593C19.8733 17.3245 21.1003 17.0037 22.1651 17.0645C22.9438 17.109 23.5495 17.356 23.9685 17.6038C24.1767 17.727 24.3393 17.8506 24.4563 17.9504C24.515 18.0005 24.5628 18.0451 24.5998 18.0814C24.6183 18.0996 24.6341 18.1158 24.6473 18.1296L24.6652 18.1485L24.6726 18.1566L24.676 18.1603L24.6776 18.1621C24.6793 18.164 24.6791 18.1638 24.6791 18.1638C24.9348 18.4479 25.0465 18.8334 24.9822 19.2102C24.9182 19.5855 24.6866 19.911 24.3534 20.0947L24.3519 20.0956L24.3405 20.1021C24.3265 20.1102 24.3018 20.1246 24.2671 20.1458C24.1978 20.1881 24.0886 20.257 23.9457 20.3546C23.66 20.5499 23.2402 20.8594 22.7353 21.2992C21.726 22.1786 20.3775 23.5781 19.0804 25.6274C19.0213 25.7207 18.9602 25.8129 18.8971 25.9039L18.786 26.1321C17.6569 27.7837 15.8629 29 13.8188 29H13.3437L13.3188 29H12L11.9887 29H10.7771C8.68755 29 6.79692 27.7608 5.96315 25.8448L4.60214 22.7171C4.20497 21.8044 4 20.8197 4 19.8243V7.25C4 6.55964 4.55964 6 5.25 6C5.94036 6 6.5 6.55964 6.5 7.25V16.25C6.5 16.6642 6.83579 17 7.25 17C7.66421 17 8 16.6642 8 16.25V5.75C8 5.05964 8.55964 4.5 9.25 4.5C9.94036 4.5 10.5 5.05964 10.5 5.75V15.25C10.5 15.6642 10.8358 16 11.25 16C11.6642 16 12 15.6642 12 15.25V4.25C12 3.55964 12.5596 3 13.25 3C13.9404 3 14.5 3.55964 14.5 4.25V15.25C14.5 15.6642 14.8358 16 15.25 16C15.6642 16 16 15.6642 16 15.25V5.75C16 5.05964 16.5596 4.5 17.25 4.5C17.9404 4.5 18.5 5.05964 18.5 5.75V18.2593ZM29.9998 44.87C22.0121 44.87 15.4827 38.6266 15.0254 30.7536C17.1236 30.3861 19.0867 29.0842 20.4298 27.12C20.4898 27.04 20.5398 26.96 20.5798 26.87L20.6298 26.77C20.6548 26.735 20.6773 26.7 20.6998 26.665C20.7223 26.63 20.7448 26.595 20.7698 26.56C21.9798 24.66 23.2198 23.39 24.0498 22.67C24.4998 22.29 24.8598 22.02 25.0798 21.87L25.162 21.8178C25.2312 21.774 25.2859 21.7393 25.3298 21.71C25.3377 21.7061 25.344 21.7006 25.35 21.6953C25.3592 21.6873 25.3677 21.68 25.3798 21.68C26.2198 21.2 26.7898 20.38 26.9598 19.41C27.1298 18.45 26.8498 17.48 26.2098 16.74C26.1798 16.71 26.1198 16.64 26.1198 16.64L26.0798 16.59L26.0098 16.52C25.9498 16.46 25.8798 16.39 25.7698 16.3C25.5298 16.09 25.2698 15.91 24.9998 15.75L24.9714 15.7336C26.5433 15.1744 28.236 14.87 29.9998 14.87C38.2841 14.87 44.9998 21.5857 44.9998 29.87C44.9998 38.1543 38.2841 44.87 29.9998 44.87ZM29.9998 36.37C27.7084 36.37 25.7038 35.2147 24.5474 33.4381C24.1708 32.8595 23.3965 32.6958 22.8179 33.0724C22.2393 33.449 22.0756 34.2233 22.4522 34.8019C24.0604 37.2726 26.8455 38.87 29.9998 38.87C33.1541 38.87 35.9392 37.2726 37.5474 34.8019C37.924 34.2233 37.7603 33.449 37.1817 33.0724C36.6031 32.6958 35.8288 32.8595 35.4522 33.4381C34.2958 35.2147 32.2912 36.37 29.9998 36.37ZM35.9998 26.87C35.9998 27.9746 35.1044 28.87 33.9998 28.87C32.8952 28.87 31.9998 27.9746 31.9998 26.87C31.9998 25.7654 32.8952 24.87 33.9998 24.87C35.1044 24.87 35.9998 25.7654 35.9998 26.87ZM25.9998 28.87C27.1044 28.87 27.9998 27.9746 27.9998 26.87C27.9998 25.7654 27.1044 24.87 25.9998 24.87C24.8952 24.87 23.9998 25.7654 23.9998 26.87C23.9998 27.9746 24.8952 28.87 25.9998 28.87Z" fill="#212121"/>
</svg>
