<svg width="12" height="12" viewBox="0 0 12 12" fill="none" xmlns="http://www.w3.org/2000/svg">
<path d="M8.96604 6.45291C9.00362 6.2047 9.20351 6 9.45455 6C9.75579 6 10.0039 6.24556 9.96331 6.54406C9.69789 8.49584 8.0246 10 6 10C3.79086 10 2 8.20914 2 6C2 3.79086 3.79086 2 6 2C7.19469 2 8.26706 2.52375 9 3.35418V2.5C9 2.22386 9.22386 2 9.5 2C9.77614 2 10 2.22386 10 2.5V4.5C10 4.77614 9.77614 5 9.5 5H7.5C7.22386 5 7 4.77614 7 4.5C7 4.22386 7.22386 4 7.5 4H8.23611C7.68679 3.38625 6.8885 3 6 3C4.34315 3 3 4.34315 3 6C3 7.65685 4.34315 9 6 9C7.5029 9 8.74768 7.89487 8.96604 6.45291Z" fill="#212121"/>
</svg>
