<svg width="28" height="28" viewBox="0 0 28 28" fill="none" xmlns="http://www.w3.org/2000/svg">
<path d="M4.5 14C4.5 8.75329 8.75329 4.5 14 4.5C16.7318 4.5 19.1945 5.65254 20.9283 7.5H18.25C17.8358 7.5 17.5 7.83579 17.5 8.25C17.5 8.66421 17.8358 9 18.25 9H22.25C22.6642 9 23 8.66421 23 8.25V4.25C23 3.83579 22.6642 3.5 22.25 3.5C21.8358 3.5 21.5 3.83579 21.5 4.25V5.95329C19.5357 4.12178 16.8988 3 14 3C7.92487 3 3 7.92487 3 14C3 20.0751 7.92487 25 14 25C20.0751 25 25 20.0751 25 14C25 13.5467 24.9725 13.0994 24.9191 12.6599C24.8691 12.2487 24.4953 11.9559 24.0841 12.0059C23.6729 12.0559 23.3801 12.4297 23.4301 12.8409C23.4762 13.2205 23.5 13.6073 23.5 14C23.5 19.2467 19.2467 23.5 14 23.5C8.75329 23.5 4.5 19.2467 4.5 14Z" fill="#212121"/>
</svg>
