<svg width="28" height="28" viewBox="0 0 28 28" fill="none" xmlns="http://www.w3.org/2000/svg">
<path d="M19.6575 7C18.1113 5.74851 16.1431 5 14 5C9.02944 5 5 9.02944 5 14C5 18.9706 9.02944 23 14 23C18.9706 23 23 18.9706 23 14C23 13.6955 22.9849 13.3949 22.9555 13.0988C22.901 12.5492 23.3022 12.0595 23.8518 12.0049C24.4014 11.9503 24.8912 12.3516 24.9457 12.9012C24.9816 13.2629 25 13.6295 25 14C25 20.0751 20.0751 25 14 25C7.92487 25 3 20.0751 3 14C3 7.92487 7.92487 3 14 3C16.6595 3 19.0987 3.94442 21 5.51448V4C21 3.44772 21.4477 3 22 3C22.5523 3 23 3.44772 23 4V7.98746C23.0001 8.00129 23 8.01511 22.9996 8.02892C22.9843 8.56783 22.5426 9 22 9H18C17.4477 9 17 8.55228 17 8C17 7.44772 17.4477 7 18 7H19.6575Z" fill="#212121"/>
</svg>
