<svg width="16" height="16" viewBox="0 0 16 16" fill="none" xmlns="http://www.w3.org/2000/svg">
<path d="M3 8C3 5.23858 5.23858 3 8 3C9.63582 3 11.0882 3.78555 12.0004 5H10C9.72386 5 9.5 5.22386 9.5 5.5C9.5 5.77614 9.72386 6 10 6H13C13.2761 6 13.5 5.77614 13.5 5.5V2.5C13.5 2.22386 13.2761 2 13 2C12.7239 2 12.5 2.22386 12.5 2.5V4.03126C11.4006 2.78563 9.79204 2 8 2C4.68629 2 2 4.68629 2 8C2 11.3137 4.68629 14 8 14C11.3137 14 14 11.3137 14 8C14 7.72386 13.7761 7.5 13.5 7.5C13.2239 7.5 13 7.72386 13 8C13 10.7614 10.7614 13 8 13C5.23858 13 3 10.7614 3 8Z" fill="#212121"/>
</svg>
