<svg width="24" height="24" viewBox="0 0 24 24" fill="none" xmlns="http://www.w3.org/2000/svg">
<path d="M7 15.5C7 16.3284 6.32843 17 5.5 17C4.67157 17 4 16.3284 4 15.5C4 14.6716 4.67157 14 5.5 14C6.32843 14 7 14.6716 7 15.5ZM7 8.5C7 9.32843 6.32843 10 5.5 10C4.67157 10 4 9.32843 4 8.5C4 7.67157 4.67157 7 5.5 7C6.32843 7 7 7.67157 7 8.5ZM14 15.5C14 16.3284 13.3284 17 12.5 17C11.6716 17 11 16.3284 11 15.5C11 14.6716 11.6716 14 12.5 14C13.3284 14 14 14.6716 14 15.5ZM14 8.5C14 9.32843 13.3284 10 12.5 10C11.6716 10 11 9.32843 11 8.5C11 7.67157 11.6716 7 12.5 7C13.3284 7 14 7.67157 14 8.5ZM21 15.5C21 16.3284 20.3284 17 19.5 17C18.6716 17 18 16.3284 18 15.5C18 14.6716 18.6716 14 19.5 14C20.3284 14 21 14.6716 21 15.5ZM21 8.5C21 9.32843 20.3284 10 19.5 10C18.6716 10 18 9.32843 18 8.5C18 7.67157 18.6716 7 19.5 7C20.3284 7 21 7.67157 21 8.5Z" fill="#212121"/>
</svg>
