<svg width="20" height="20" viewBox="0 0 20 20" fill="none" xmlns="http://www.w3.org/2000/svg">
<path d="M4.5 3C3.11929 3 2 4.11929 2 5.5V12.5C2 13.8807 3.11929 15 4.5 15H13.5C14.8807 15 16 13.8807 16 12.5V5.5C16 4.11929 14.8807 3 13.5 3H4.5ZM7 6.75577C7 6.15383 7.67339 5.79715 8.17135 6.13531L11.7817 8.58711C12.0736 8.78535 12.0739 9.21545 11.7822 9.41404L8.17209 11.872C7.6742 12.211 7 11.8544 7 11.252V6.75577ZM6.50018 17.0002C5.68227 17.0002 4.9561 16.6074 4.5 16.0002H14.0002C15.657 16.0002 17.0002 14.657 17.0002 13.0002V5.5C17.6074 5.9561 18.0002 6.68227 18.0002 7.50018V13.0002C18.0002 15.2093 16.2093 17.0002 14.0002 17.0002H6.50018Z" fill="#212121"/>
</svg>
