<svg width="17" height="16" viewBox="0 0 17 16" fill="none" xmlns="http://www.w3.org/2000/svg">
<g clip-path="url(#clip0_116090_1204)">
<path d="M9.84647 6.23969C9.57693 5.8989 9.41602 5.46824 9.41602 5C9.41602 3.89543 10.3114 3 11.416 3C12.5206 3 13.416 3.89543 13.416 5C13.416 5.36847 13.3164 5.71368 13.1426 6.01013C13.0679 6.00342 12.9924 6 12.916 6H10.916C10.5333 6 10.1707 6.08599 9.84647 6.23969ZM6.41602 13.0006C3.83936 12.9868 2.41602 12.0829 2.41602 10.2746V9.5C2.41602 8.67157 3.08759 8 3.91602 8H8.46602C8.4632 8.01392 8.46049 8.02788 8.4579 8.04188C7.29598 8.25706 6.41602 9.27577 6.41602 10.5V13.0006ZM8.91642 4.5004C8.91642 3.11947 7.79695 2 6.41602 2C5.03508 2 3.91561 3.11947 3.91561 4.5004C3.91561 5.88134 5.03508 7.00081 6.41602 7.00081C7.79695 7.00081 8.91642 5.88134 8.91642 4.5004ZM9.41602 8.5V9H8.91602C8.08759 9 7.41602 9.67157 7.41602 10.5V12H9.41602V11.5C9.41602 11.2239 9.63987 11 9.91602 11C10.1922 11 10.416 11.2239 10.416 11.5V12H13.416V11.5C13.416 11.2239 13.6399 11 13.916 11C14.1922 11 14.416 11.2239 14.416 11.5V12H16.416V10.5C16.416 9.67157 15.7444 9 14.916 9H14.416V8.5C14.416 7.67157 13.7444 7 12.916 7H10.916C10.0876 7 9.41602 7.67157 9.41602 8.5ZM10.916 8H12.916C13.1922 8 13.416 8.22386 13.416 8.5V9H10.416V8.5C10.416 8.22386 10.6399 8 10.916 8ZM16.416 13H14.416V13.5C14.416 13.7761 14.1922 14 13.916 14C13.6399 14 13.416 13.7761 13.416 13.5V13H10.416V13.5C10.416 13.7761 10.1922 14 9.91602 14C9.63987 14 9.41602 13.7761 9.41602 13.5V13H7.41602V14.5C7.41602 15.3284 8.08759 16 8.91602 16H14.916C15.7444 16 16.416 15.3284 16.416 14.5V13Z" fill="#212121"/>
</g>
<defs>
<clipPath id="clip0_116090_1204">
<rect width="16" height="16" fill="white" transform="translate(0.416016)"/>
</clipPath>
</defs>
</svg>
