<svg width="20" height="20" viewBox="0 0 20 20" fill="none" xmlns="http://www.w3.org/2000/svg">
<path d="M13.5399 4.12014C13.7495 4.29985 13.7738 4.6155 13.5941 4.82516L9.15873 9.99975L13.244 14.7659C13.0567 15.0596 12.9032 15.4035 12.8193 15.807L8.5002 10.768L4.16553 15.8252C3.98581 16.0348 3.67016 16.0591 3.4605 15.8794C3.25084 15.6997 3.22656 15.384 3.40627 15.1744L7.84166 9.99975L3.40629 4.82516C3.22658 4.6155 3.25086 4.29985 3.46053 4.12014C3.67019 3.94043 3.98584 3.96471 4.16555 4.17437L8.5002 9.23145L12.8348 4.17437C13.0146 3.96471 13.3302 3.94043 13.5399 4.12014Z" fill="#212121"/>
<path d="M15.5852 12C15.1201 12 14.75 12.4209 14.75 12.8636C14.75 13.1398 14.5261 13.3636 14.25 13.3636C13.9739 13.3636 13.75 13.1398 13.75 12.8636C13.75 11.9427 14.4966 11 15.5852 11C16.2201 11 16.8324 11.297 17.1752 11.824C17.533 12.3741 17.5448 13.091 17.129 13.7987C16.9171 14.1594 16.6264 14.4318 16.3437 14.6552C16.2019 14.7671 16.0559 14.8714 15.9186 14.9685L15.8591 15.0105C15.7412 15.0937 15.631 15.1714 15.5242 15.2518C15.2017 15.4945 14.9687 15.718 14.8469 16H16.943C17.2191 16 17.443 16.2239 17.443 16.5C17.443 16.7761 17.2191 17 16.943 17H14.3013C14.2927 17 14.2841 16.9998 14.2756 16.9994C14.2671 16.9998 14.2586 17 14.25 17C13.9739 17 13.75 16.7761 13.75 16.5C13.75 15.463 14.3567 14.8789 14.9229 14.4528C15.043 14.3624 15.1673 14.2747 15.2844 14.1921L15.3414 14.1519C15.4779 14.0554 15.6048 13.9644 15.7239 13.8704C15.9626 13.6818 16.1448 13.4997 16.2668 13.2922C16.5186 12.8635 16.4595 12.5577 16.3369 12.3692C16.1992 12.1576 15.9214 12 15.5852 12Z" fill="#212121"/>
</svg>
