<svg width="24" height="24" viewBox="0 0 24 24" fill="none" xmlns="http://www.w3.org/2000/svg">
<path d="M17.5 4.5C19.0432 4.5 20.2928 5.13175 21.1982 6.16797L21.375 6.38086L21.4346 6.46387C21.7066 6.89147 21.6155 7.46448 21.209 7.78516C20.8025 8.10577 20.2246 8.06048 19.8721 7.69629L19.8047 7.61914L19.6973 7.48926C19.149 6.85823 18.4337 6.5 17.5 6.5C16.3809 6.5 15.5567 7.0174 14.9678 7.94141C14.4958 8.68194 14.1788 9.68974 14.0566 10.876C14.9533 10.0237 16.1652 9.5 17.5 9.5C20.2614 9.5 22.5 11.7386 22.5 14.5C22.5 17.2614 20.2614 19.5 17.5 19.5C17.4059 19.5 17.3125 19.4963 17.2197 19.4912C17.144 19.4875 17.0692 19.4813 16.9951 19.4746C16.9919 19.4743 16.9886 19.474 16.9854 19.4736C15.5249 19.34 14.3789 18.6387 13.5645 17.582C13.4265 17.4062 13.3002 17.221 13.1865 17.0273C12.3561 15.6488 12 13.8591 12 12C12 10.0858 12.3958 8.25399 13.2803 6.86621C14.1907 5.43775 15.6165 4.5 17.5 4.5ZM10 5C10.5523 5 11 5.44772 11 6V18C11 18.5523 10.5523 19 10 19C9.44772 19 9 18.5523 9 18V13H3V18C3 18.5523 2.55228 19 2 19C1.44772 19 1 18.5523 1 18V6C1 5.44772 1.44772 5 2 5C2.55228 5 3 5.44772 3 6V11H9V6C9 5.44772 9.44772 5 10 5ZM17.5 11.5C15.8431 11.5 14.5 12.8431 14.5 14.5C14.5 15.1088 14.6825 15.6744 14.9941 16.1475C15.005 16.1638 15.0154 16.1802 15.0264 16.1963C15.5387 16.9419 16.3785 17.4443 17.3389 17.4951C17.3918 17.4974 17.4455 17.5 17.5 17.5C19.1569 17.5 20.5 16.1569 20.5 14.5C20.5 12.8431 19.1569 11.5 17.5 11.5Z" fill="#212121"/>
</svg>
