<svg width="32" height="32" viewBox="0 0 32 32" fill="none" xmlns="http://www.w3.org/2000/svg">
<path d="M17.2929 22.7071C17.6834 23.0976 18.3166 23.0976 18.7071 22.7071C19.0976 22.3166 19.0976 21.6834 18.7071 21.2929L13.4142 16L18.7071 10.7071C19.0976 10.3166 19.0976 9.68342 18.7071 9.29289C18.3166 8.90237 17.6834 8.90237 17.2929 9.29289L11.4144 15.1714C11.4045 15.1824 11.3951 15.1931 11.3858 15.2036C11.3617 15.231 11.3386 15.2572 11.3125 15.2833C11.1148 15.481 11.0172 15.7409 11.0197 16C11.0168 16.2596 11.1172 16.4844 11.3125 16.7183C11.354 16.768 11.3631 16.7772 11.4132 16.8274L11.4145 16.8287L17.2929 22.7071ZM16 30C23.732 30 30 23.732 30 16C30 8.26801 23.732 2 16 2C8.26801 2 2 8.26801 2 16C2 23.732 8.26801 30 16 30ZM28 16C28 22.6274 22.6274 28 16 28C9.37258 28 4 22.6274 4 16C4 9.37258 9.37258 4 16 4C22.6274 4 28 9.37258 28 16Z" fill="#212121"/>
</svg>
