<svg width="16" height="16" viewBox="0 0 16 16" fill="none" xmlns="http://www.w3.org/2000/svg">
<path d="M2 8C2 4.68629 4.68629 2 8 2C11.3137 2 14 4.68629 14 8C14 11.3137 11.3137 14 8 14C4.68629 14 2 11.3137 2 8ZM8 1C4.13401 1 1 4.13401 1 8C1 11.866 4.13401 15 8 15C11.866 15 15 11.866 15 8C15 4.13401 11.866 1 8 1ZM6 5C5.72386 5 5.5 5.22386 5.5 5.5C5.5 5.77614 5.72386 6 6 6H9.00532C8.8602 6.21606 8.69857 6.47161 8.53086 6.76322C7.95705 7.7609 7.3057 9.19159 7.00733 10.9147C6.96022 11.1868 7.1426 11.4456 7.41469 11.4927C7.68678 11.5398 7.94555 11.3574 7.99267 11.0853C8.26573 9.50841 8.86438 8.1891 9.39771 7.26178C9.66386 6.79902 9.91218 6.43661 10.0924 6.19167C10.1825 6.06928 10.2554 5.97646 10.3048 5.91535C10.3295 5.8848 10.3483 5.8622 10.3605 5.84781L10.3735 5.83243L10.376 5.8296C10.505 5.68203 10.5364 5.47219 10.4554 5.2936C10.3744 5.11483 10.1963 5 10 5H6Z" fill="#212121"/>
</svg>
