<svg width="48" height="48" viewBox="0 0 48 48" fill="none" xmlns="http://www.w3.org/2000/svg">
<path d="M39.1269 40.8947C38.0909 41.5926 36.8429 42 35.4998 42H12.5C8.91013 42 6 39.0899 6 35.5V12.5001C6 11.157 6.40736 9.90904 7.10527 8.87304L4.36612 6.13388C3.87796 5.64573 3.87796 4.85427 4.36612 4.36612C4.85427 3.87796 5.64573 3.87796 6.13388 4.36612L43.6339 41.8661C44.122 42.3543 44.122 43.1457 43.6339 43.6339C43.1457 44.122 42.3543 44.122 41.8661 43.6339L39.1269 40.8947ZM36.9284 38.6961L9.30382 11.0716C9.10856 11.5078 8.99998 11.9913 8.99998 12.5001V35.5C8.99998 37.433 10.567 39 12.5 39H35.4998C36.0087 39 36.4921 38.8914 36.9284 38.6961ZM41.9065 36.6032L38.9998 33.6965V27.5C38.9998 26.6716 39.6713 26 40.4998 26C41.3282 26 41.9998 26.6716 41.9998 27.5V35.5C41.9998 35.8761 41.9678 36.2447 41.9065 36.6032ZM11.3967 6.09337L14.3034 9.0001H20.4999C21.3283 9.0001 21.9999 8.32853 21.9999 7.50011C21.9999 6.67168 21.3283 6.00011 20.4999 6.00011H12.5C12.1239 6.00011 11.7553 6.03205 11.3967 6.09337ZM41.4505 6.33966C41.786 6.61475 42 7.03243 42 7.50011V19.5001C42 20.3285 41.3284 21.0001 40.5 21.0001C39.6716 21.0001 39 20.3285 39 19.5001V11.1211L29.5605 20.5606C28.9747 21.1464 28.025 21.1464 27.4392 20.5606C26.8534 19.9748 26.8534 19.0251 27.4392 18.4393L36.8784 9.0001H28.5001C27.6717 9.0001 27.0001 8.32853 27.0001 7.50011C27.0001 6.67168 27.6717 6.00011 28.5001 6.00011H40.4813C40.5467 5.99931 40.6121 6.00276 40.6771 6.01046C40.8099 6.02608 40.9373 6.05903 41.0571 6.10698C41.1967 6.16274 41.3296 6.2403 41.4505 6.33966Z" fill="#212121"/>
</svg>
