<svg width="24" height="24" viewBox="0 0 24 24" fill="none" xmlns="http://www.w3.org/2000/svg">
<path d="M14 13.9999H4.25278C3.01076 13.9999 2.00391 15.0068 2.00391 16.2488V16.8265C2.00391 17.7193 2.32242 18.5828 2.90219 19.2617C4.46849 21.0959 6.8545 22.0011 10.0004 22.0011C10.7149 22.0011 11.3903 21.9544 12.0258 21.8607C12.0088 21.7429 12 21.6225 12 21.5V20.3471C11.3859 20.4496 10.7197 20.5011 10.0004 20.5011C7.26206 20.5011 5.29618 19.7553 4.04287 18.2876C3.69502 17.8802 3.50391 17.3622 3.50391 16.8265V16.2488C3.50391 15.8352 3.83919 15.4999 4.25278 15.4999H12.208C12.5294 14.7645 13.1944 14.2135 14 14.05V13.9999ZM10.0004 2.00464C12.7618 2.00464 15.0004 4.24321 15.0004 7.00464C15.0004 9.76606 12.7618 12.0046 10.0004 12.0046C7.23894 12.0046 5.00036 9.76606 5.00036 7.00464C5.00036 4.24321 7.23894 2.00464 10.0004 2.00464ZM10.0004 3.50464C8.06737 3.50464 6.50036 5.07164 6.50036 7.00464C6.50036 8.93764 8.06737 10.5046 10.0004 10.5046C11.9334 10.5046 13.5004 8.93764 13.5004 7.00464C13.5004 5.07164 11.9334 3.50464 10.0004 3.50464ZM15 15H14.5C13.6716 15 13 15.6716 13 16.5V21.5C13 22.3284 13.6716 23 14.5 23H20.5C21.3284 23 22 22.3284 22 21.5V16.5C22 15.6716 21.3284 15 20.5 15H20V14C20 12.6193 18.8807 11.5 17.5 11.5C16.1193 11.5 15 12.6193 15 14V15ZM16.5 14C16.5 13.4477 16.9477 13 17.5 13C18.0523 13 18.5 13.4477 18.5 14V15H16.5V14ZM18.5 19C18.5 19.5523 18.0523 20 17.5 20C16.9477 20 16.5 19.5523 16.5 19C16.5 18.4477 16.9477 18 17.5 18C18.0523 18 18.5 18.4477 18.5 19Z" fill="#212121"/>
</svg>
