<svg width="20" height="20" viewBox="0 0 20 20" fill="none" xmlns="http://www.w3.org/2000/svg">
<path d="M2 6.75C2 5.23122 3.23122 4 4.75 4H15.25C16.7688 4 18 5.23122 18 6.75V10.3411C17.744 9.95605 17.4014 9.63354 17 9.40135V6.75C17 5.7835 16.2165 5 15.25 5H4.75C3.7835 5 3 5.7835 3 6.75V13.25C3 14.2165 3.7835 15 4.75 15H11.4998C11.2815 15.2907 11.125 15.6306 11.05 16H4.75C3.23122 16 2 14.7688 2 13.25V6.75ZM15.5 14C16.6046 14 17.5 13.1046 17.5 12C17.5 10.8954 16.6046 10 15.5 10C14.3954 10 13.5 10.8954 13.5 12C13.5 13.1046 14.3954 14 15.5 14ZM15.5 19C18 19 19 17.7452 19 16.5C19 15.6716 18.3284 15 17.5 15H13.5C12.6716 15 12 15.6716 12 16.5C12 17.7499 13 19 15.5 19ZM5 6C4.44772 6 4 6.44772 4 7V10C4 10.5523 4.44772 11 5 11H9C9.55228 11 10 10.5523 10 10V7C10 6.44772 9.55228 6 9 6H5Z" fill="#212121"/>
</svg>
