<svg width="24" height="24" viewBox="0 0 24 24" fill="none" xmlns="http://www.w3.org/2000/svg">
<path d="M12.8197 5.57958L11.999 6.40208L11.1757 5.57883C9.07663 3.47977 5.67337 3.47977 3.5743 5.57883C1.47523 7.6779 1.47523 11.0812 3.5743 13.1802L11.4697 21.0756C11.7626 21.3685 12.2374 21.3685 12.5303 21.0756L20.4318 13.1788C22.5262 11.0727 22.5298 7.67903 20.4303 5.57958C18.3274 3.47669 14.9226 3.47669 12.8197 5.57958ZM19.3682 12.121L12 19.4846L4.63496 12.1196C3.12168 10.6063 3.12168 8.15278 4.63496 6.63949C6.14824 5.12621 8.60176 5.12621 10.115 6.63949L11.4725 7.99694C11.7703 8.2948 12.255 8.289 12.5457 7.98409L13.8803 6.64024C15.3974 5.12314 17.8526 5.12313 19.3697 6.64024C20.8833 8.15388 20.8807 10.6001 19.3682 12.121Z" fill="#212121"/>
</svg>
