<svg width="20" height="20" viewBox="0 0 20 20" fill="none" xmlns="http://www.w3.org/2000/svg">
<path d="M17.4328 2.56658C16.6745 1.81076 15.4476 1.81101 14.6896 2.56715L12.6469 4.60475C12.6449 4.60669 12.643 4.60864 12.6411 4.6106C10.4554 3.53926 7.75347 3.87741 5.89369 5.62506C5.28282 5.49721 4.62153 5.67042 4.1473 6.14468C3.40025 6.89176 3.40026 8.10298 4.14733 8.85004L11.151 15.8537C11.8981 16.6007 13.1093 16.6007 13.8564 15.8537C14.3311 15.3789 14.5042 14.7168 14.3756 14.1054C16.1229 12.2452 16.4606 9.543 15.3886 7.35739C15.3907 7.35534 15.3928 7.35327 15.3949 7.35117L17.4334 5.31778C18.1945 4.55854 18.1942 3.3255 17.4328 2.56658ZM14.8569 6.47545C14.674 6.22417 14.4693 5.98389 14.2426 5.75722C14.0158 5.53036 13.7753 5.32546 13.5237 5.14253L15.3958 3.27513C15.7636 2.90823 16.3589 2.90811 16.7269 3.27486C17.0963 3.6431 17.0965 4.2414 16.7271 4.60979L14.8569 6.47545ZM6.83582 6.12795C8.79982 4.51901 11.7023 4.63114 13.5355 6.46433C15.3687 8.29752 15.4809 11.2 13.8719 13.164L13.8564 13.1483L6.85272 6.14464L6.83582 6.12795ZM6.12186 6.82883L13.1722 13.8792C13.5056 14.2372 13.498 14.7978 13.1493 15.1466C12.7927 15.5031 12.2147 15.5031 11.8581 15.1466L4.85444 8.14293C4.49789 7.78639 4.49788 7.20832 4.85442 6.85177C5.20315 6.50302 5.76383 6.49537 6.12186 6.82883ZM6.85355 13.1465C7.04882 13.3417 7.04882 13.6583 6.85355 13.8536L4.85355 15.8536C4.65829 16.0488 4.34171 16.0488 4.14645 15.8536C3.95118 15.6583 3.95118 15.3417 4.14645 15.1465L6.14645 13.1465C6.34171 12.9512 6.65829 12.9512 6.85355 13.1465ZM4.85355 11.8536C5.04882 11.6583 5.04882 11.3417 4.85355 11.1465C4.65829 10.9512 4.34171 10.9512 4.14645 11.1465L2.14645 13.1465C1.95118 13.3417 1.95118 13.6583 2.14645 13.8536C2.34171 14.0488 2.65829 14.0488 2.85355 13.8536L4.85355 11.8536ZM8.85355 15.1465C9.04882 15.3417 9.04882 15.6583 8.85355 15.8536L6.85355 17.8536C6.65829 18.0488 6.34171 18.0488 6.14645 17.8536C5.95118 17.6583 5.95118 17.3417 6.14645 17.1465L8.14645 15.1465C8.34171 14.9512 8.65829 14.9512 8.85355 15.1465Z" fill="#212121"/>
</svg>
