<svg width="20" height="20" viewBox="0 0 20 20" fill="none" xmlns="http://www.w3.org/2000/svg">
<path d="M9.28033 3.21967C8.98744 2.92678 8.51256 2.92678 8.21967 3.21967L4.21967 7.21967C3.92678 7.51256 3.92678 7.98744 4.21967 8.28033L8.21967 12.2803C8.51256 12.5732 8.98744 12.5732 9.28033 12.2803C9.57322 11.9874 9.57322 11.5126 9.28033 11.2197L6.56066 8.5H13C13.8284 8.5 14.5 9.17157 14.5 10V16.25C14.5 16.6642 14.8358 17 15.25 17C15.6642 17 16 16.6642 16 16.25V10C16 8.34315 14.6569 7 13 7H6.56066L9.28033 4.28033C9.57322 3.98744 9.57322 3.51256 9.28033 3.21967Z" fill="#212121"/>
</svg>
