<svg width="28" height="28" viewBox="0 0 28 28" fill="none" xmlns="http://www.w3.org/2000/svg">
<path d="M2.84921 3.00657C2.43863 2.95183 2.06141 3.24029 2.00667 3.65087C1.95192 4.06145 2.24038 4.43867 2.65096 4.49342L10.5001 5.53997V9.24999C10.5001 9.89432 10.6876 10.4948 11.011 11H8.75009C6.67902 11 5.00009 12.6789 5.00009 14.75V18.5H23.0001V14.75C23.0001 12.6789 21.3212 11 19.2501 11H13.7501C12.7836 11 12.0001 10.2165 12.0001 9.24999V5.73997L25.151 7.49342C25.5615 7.54816 25.9388 7.2597 25.9935 6.84912C26.0483 6.43854 25.7598 6.06132 25.3492 6.00657L12.0001 4.22669V3.75C12.0001 3.33578 11.6643 3 11.2501 3C10.8359 3 10.5001 3.33578 10.5001 3.75V4.02669L2.84921 3.00657ZM5.00009 20V22.25C5.00009 23.7688 6.2313 25 7.75009 25H20.2501C21.7689 25 23.0001 23.7688 23.0001 22.25V20H5.00009Z" fill="#212121"/>
</svg>
