<svg width="28" height="28" viewBox="0 0 28 28" fill="none" xmlns="http://www.w3.org/2000/svg">
<path d="M11.4909 4.40235C11.1153 4.14129 10.6675 4 10.2069 4H4.25L4.09595 4.00519C2.92516 4.08436 2 5.05914 2 6.25V21.75L2.00519 21.904C2.08436 23.0748 3.05914 24 4.25 24H13V22.5H4.25L4.14823 22.4932C3.78215 22.4435 3.5 22.1297 3.5 21.75V10.499L10.2069 10.5L10.4034 10.4914C10.8591 10.4515 11.2935 10.2733 11.6473 9.9785L14.021 8H23.75L23.8518 8.00685C24.2178 8.05651 24.5 8.3703 24.5 8.75V15C25.0368 15 25.5454 15.1208 26 15.3368V8.75L25.9948 8.59595L25.9785 8.43788C25.8266 7.34297 24.8867 6.5 23.75 6.5H14.022L11.6473 4.5215L11.4909 4.40235ZM4.25 5.5H10.2069L10.3113 5.5073C10.4489 5.52664 10.5792 5.58398 10.6871 5.67383L12.578 7.249L10.6871 8.82617L10.6022 8.88738C10.4841 8.96063 10.3473 9 10.2069 9L3.5 8.999V6.25L3.50685 6.14823C3.55651 5.78215 3.8703 5.5 4.25 5.5Z" fill="#212121"/>
<path d="M14 18.5C14 17.1193 15.1193 16 16.5 16H24.5C25.8807 16 27 17.1193 27 18.5V18.691L20.5 21.941L14 18.691V18.5ZM20.7236 22.9472L27 19.809V24.5C27 25.8807 25.8807 27 24.5 27H16.5C15.1193 27 14 25.8807 14 24.5V19.809L20.2764 22.9472C20.4172 23.0176 20.5828 23.0176 20.7236 22.9472Z" fill="#212121"/>
</svg>
