<svg width="20" height="20" viewBox="0 0 20 20" fill="none" xmlns="http://www.w3.org/2000/svg">
<path d="M2 5.5C2 4.11929 3.11929 3 4.5 3H6.98223C7.44636 3 7.89148 3.18437 8.21967 3.51256L9.5 4.79289L7.43934 6.85355C7.34557 6.94732 7.21839 7 7.08579 7H2V5.5ZM2 8V14.5C2 15.8807 3.11929 17 4.5 17H9.05001C9.01722 16.8384 9 16.6712 9 16.5V12.5C9 11.1193 10.1193 10 11.5 10H17.5C17.6712 10 17.8384 10.0172 18 10.05V7.5C18 6.11929 16.8807 5 15.5 5H10.7071L8.14645 7.56066C7.86514 7.84196 7.48361 8 7.08579 8H2ZM10.0127 12.3036L14.5098 14.9269L19 12.509V12.5C19 11.6716 18.3284 11 17.5 11H11.5C10.7381 11 10.109 11.568 10.0127 12.3036ZM19 13.6448L14.7371 15.9402C14.5837 16.0228 14.3985 16.0196 14.2481 15.9319L10 13.4539V16.5C10 17.3284 10.6716 18 11.5 18H17.5C18.3284 18 19 17.3284 19 16.5V13.6448Z" fill="#212121"/>
</svg>
