<svg width="20" height="20" viewBox="0 0 20 20" fill="none" xmlns="http://www.w3.org/2000/svg">
<path d="M2.85355 2.14645C2.65829 1.95118 2.34171 1.95118 2.14645 2.14645C1.95118 2.34171 1.95118 2.65829 2.14645 2.85355L6.896 7.60309L4.01834 8.75415C3.35177 9.02078 3.17498 9.88209 3.68262 10.3897L6.29289 13L3 16.2929V17H3.70711L7 13.7071L9.61027 16.3174C10.1179 16.825 10.9792 16.6482 11.2459 15.9817L12.3969 13.104L17.1464 17.8536C17.3417 18.0488 17.6583 18.0488 17.8536 17.8536C18.0488 17.6583 18.0488 17.3417 17.8536 17.1464L2.85355 2.14645ZM16.8622 9.87793L13.6202 11.4989L8.5011 6.37977L10.1221 3.13783C10.7326 1.91683 12.3599 1.65275 13.3251 2.61804L17.382 6.67487C18.3472 7.64015 18.0832 9.26743 16.8622 9.87793Z" fill="#212121"/>
</svg>
