<svg width="25" height="24" viewBox="0 0 25 24" fill="none" xmlns="http://www.w3.org/2000/svg">
<path d="M14.166 2C15.4087 2 16.416 3.00736 16.416 4.25V10.8368C15.2335 11.3985 14.416 12.6038 14.416 14V14.05C13.2749 14.2816 12.416 15.2905 12.416 16.5V18.75C12.416 18.3358 12.0802 18 11.666 18H9.16602C8.7518 18 8.41602 18.3358 8.41602 18.75C8.41602 19.1642 8.7518 19.5 9.16602 19.5H11.666C12.0802 19.5 12.416 19.1642 12.416 18.75V21.5C12.416 21.6712 12.4332 21.8384 12.466 22H6.66602C5.42337 22 4.41602 20.9926 4.41602 19.75V4.25C4.41602 3.00736 5.42337 2 6.66602 2H14.166ZM15.416 14V15H14.916C14.0876 15 13.416 15.6716 13.416 16.5V21.5C13.416 21.6753 13.4461 21.8436 13.5014 22C13.7073 22.5826 14.2629 23 14.916 23H20.916C21.7444 23 22.416 22.3284 22.416 21.5V16.5C22.416 15.6716 21.7444 15 20.916 15H20.416V14C20.416 12.6193 19.2967 11.5 17.916 11.5C17.3532 11.5 16.8338 11.686 16.416 11.9998C15.8088 12.4559 15.416 13.1821 15.416 14ZM16.916 14C16.916 13.4477 17.3637 13 17.916 13C18.4683 13 18.916 13.4477 18.916 14V15H16.916V14ZM18.916 19C18.916 19.5523 18.4683 20 17.916 20C17.3637 20 16.916 19.5523 16.916 19C16.916 18.4477 17.3637 18 17.916 18C18.4683 18 18.916 18.4477 18.916 19Z" fill="#212121"/>
</svg>
