<svg width="20" height="20" viewBox="0 0 20 20" fill="none" xmlns="http://www.w3.org/2000/svg">
<path d="M4 4C4 2.89543 4.89543 2 6 2H10.5858C10.9836 2 11.3651 2.15804 11.6464 2.43934L15.5607 6.35355C15.842 6.63486 16 7.01639 16 7.41421V16C16 17.1046 15.1046 18 14 18H8.50018C8.71854 17.7093 8.875 17.3694 8.94999 17H14C14.5523 17 15 16.5523 15 16V8H11.5C10.6716 8 10 7.32843 10 6.5V3H6C5.44772 3 5 3.44772 5 4V11.4998C4.91852 11.561 4.84089 11.6271 4.76756 11.6976C4.58902 11.4161 4.31932 11.1982 4 11.0854V4ZM11.5 7H14.7929L11 3.20711V6.5C11 6.77614 11.2239 7 11.5 7ZM3.5 12C3.22386 12 3 12.2239 3 12.5V16.5C3 16.7761 2.77614 17 2.5 17C2.22386 17 2 16.7761 2 16.5V16C2 15.7239 1.77614 15.5 1.5 15.5C1.22386 15.5 1 15.7239 1 16V16.5C1 17.3284 1.67157 18 2.5 18C3.32843 18 4 17.3284 4 16.5V12.5C4 12.2239 3.77614 12 3.5 12ZM5 13.5C5 12.6716 5.67157 12 6.5 12C7.32843 12 8 12.6716 8 13.5C8 13.7761 7.77614 14 7.5 14C7.22386 14 7 13.7761 7 13.5C7 13.2239 6.77614 13 6.5 13C6.22386 13 6 13.2239 6 13.5V13.882C6 14.0714 6.107 14.2445 6.27639 14.3292L7.17082 14.7764C7.679 15.0305 8 15.5499 8 16.118V16.5C8 17.3284 7.32843 18 6.5 18C5.67157 18 5 17.3284 5 16.5C5 16.2239 5.22386 16 5.5 16C5.77614 16 6 16.2239 6 16.5C6 16.7761 6.22386 17 6.5 17C6.77614 17 7 16.7761 7 16.5V16.118C7 15.9286 6.893 15.7555 6.72361 15.6708L5.82918 15.2236C5.321 14.9695 5 14.4501 5 13.882V13.5Z" fill="#212121"/>
</svg>
