<svg width="20" height="20" viewBox="0 0 20 20" fill="none" xmlns="http://www.w3.org/2000/svg">
<path d="M11 2C12.1046 2 13 2.89543 13 4V7H16C17.1046 7 18 7.89543 18 9V11C18 12.1046 17.1046 13 16 13H13V16C13 17.1046 12.1046 18 11 18H9C7.89543 18 7 17.1046 7 16V13H4C2.89543 13 2 12.1046 2 11V9C2 7.89543 2.89543 7 4 7H7V4C7 2.89543 7.89543 2 9 2H11ZM8 16C8 16.5523 8.44772 17 9 17H11C11.5523 17 12 16.5523 12 16V13H8V16ZM4 8C3.44772 8 3 8.44772 3 9V11C3 11.5523 3.44772 12 4 12H7V8H4ZM8 12H12V8H8V12ZM13 12H16C16.5523 12 17 11.5523 17 11V9C17 8.44772 16.5523 8 16 8H13V12ZM9 3C8.44772 3 8 3.44772 8 4V7H12V4C12 3.44772 11.5523 3 11 3H9Z" fill="#212121"/>
</svg>
