<?xml version="1.0" encoding="UTF-8"?>
<svg width="24px" height="24px" viewBox="0 0 24 24" version="1.1" xmlns="http://www.w3.org/2000/svg" xmlns:xlink="http://www.w3.org/1999/xlink">
    <!-- Generator: Sketch 59.1 (86144) - https://sketch.com -->
    <title>ic_swipe_right_24_filled</title>
    <desc>Created with Sketch.</desc>
    <g id="ðŸ”-Product-Icons" stroke="none" stroke-width="1" fill="none" fill-rule="evenodd">
        <g id="ic_swipe_right_24_filled" fill="#212121">
            <path d="M15.2929663,6.29282017 C15.6835309,5.90233622 16.3166959,5.90240164 16.7071798,6.29296628 L16.7071798,6.29296628 L21.7037925,11.2906115 C22.0940593,11.680959 22.0942428,12.313695 21.7042025,12.7042687 L21.7042025,12.7042687 L16.7075898,17.7077144 C16.3173324,18.0985054 15.6841676,18.0989381 15.2933765,17.7086807 C14.9025855,17.3184234 14.9021529,16.6852585 15.2924102,16.2944675 L15.2924102,16.2944675 L19.5829551,11.9980552 L15.2928202,7.70703372 C14.9023362,7.31646908 14.9024016,6.68330411 15.2929663,6.29282017 Z M13.5,10.5 C14.3284271,10.5 15,11.1715729 15,12 C15,12.8284271 14.3284271,13.5 13.5,13.5 C12.6715729,13.5 12,12.8284271 12,12 C12,11.1715729 12.6715729,10.5 13.5,10.5 Z M8.5,10.5 C9.32842712,10.5 10,11.1715729 10,12 C10,12.8284271 9.32842712,13.5 8.5,13.5 C7.67157288,13.5 7,12.8284271 7,12 C7,11.1715729 7.67157288,10.5 8.5,10.5 Z M3.5,10.5 C4.32842712,10.5 5,11.1715729 5,12 C5,12.8284271 4.32842712,13.5 3.5,13.5 C2.67157288,13.5 2,12.8284271 2,12 C2,11.1715729 2.67157288,10.5 3.5,10.5 Z" id="ðŸŽ¨-Color"></path>
        </g>
    </g>
</svg>