<svg width="16" height="16" viewBox="0 0 16 16" fill="none" xmlns="http://www.w3.org/2000/svg">
<path d="M8.80802 2.1013C8.47789 1.43238 7.52403 1.43238 7.1939 2.1013L5.67281 5.18334L2.27156 5.67757C1.79144 5.74734 1.49891 6.15547 1.5 6.57557C1.50059 6.80139 1.58602 7.03067 1.77277 7.21271L4.23394 9.61174L3.65294 12.9992C3.65294 12.9992 3.65294 12.9992 3.65294 12.9992C3.61063 13.2459 3.66938 13.473 3.79108 13.6526C4.03211 14.0085 4.52005 14.1787 4.95879 13.948L8.00096 12.3487L11.0431 13.948C11.7034 14.2951 12.4751 13.7345 12.349 12.9993L11.768 9.61175L14.2291 7.21271C14.7633 6.69202 14.4685 5.78485 13.7304 5.67758L10.3291 5.18335L8.80802 2.1013ZM6 12.2708V6.13616C6.2364 6.06461 6.43523 5.89808 6.54628 5.67306L8.00096 2.72556L9.45564 5.67306C9.58673 5.93869 9.84014 6.1228 10.1333 6.1654L13.386 6.63805L11.0323 8.93236C10.8202 9.13912 10.7234 9.43702 10.7735 9.72898L11.3291 12.9686L8.41977 11.4391C8.15758 11.3012 7.84434 11.3012 7.58215 11.4391L6 12.2708Z" fill="#212121"/>
</svg>
