<svg width="20" height="20" viewBox="0 0 20 20" fill="none" xmlns="http://www.w3.org/2000/svg">
<path d="M12.9203 2.87317C14.1027 1.69077 16.0271 1.71505 17.1794 2.92689C18.2913 4.09631 18.2681 5.93899 17.1271 7.08003L16.4581 7.74902L12.2512 3.54217L12.9203 2.87317ZM11.5441 4.24927L3.54545 12.2475C3.21763 12.5754 2.99008 12.9899 2.88953 13.4424L2.01191 17.3923C1.97483 17.5592 2.02559 17.7335 2.14649 17.8544C2.26739 17.9753 2.44166 18.026 2.60855 17.9889L6.53494 17.1157C7.00237 17.0118 7.43048 16.7767 7.76907 16.4381L10 14.2072V13C10 12.0681 10.6374 11.285 11.5 11.063V11C11.5 9.34315 12.8431 8 14.5 8C14.8311 8 15.1497 8.05365 15.4476 8.15272L11.5441 4.24927ZM12.5 11V12H12C11.4477 12 11 12.4477 11 13V17C11 17.5523 11.4477 18 12 18H17C17.5523 18 18 17.5523 18 17V13C18 12.4477 17.5523 12 17 12H16.5V11C16.5 9.89543 15.6046 9 14.5 9C13.3954 9 12.5 9.89543 12.5 11ZM13.5 12V11C13.5 10.4477 13.9477 10 14.5 10C15.0523 10 15.5 10.4477 15.5 11V12H13.5ZM14.5 14.25C14.9142 14.25 15.25 14.5858 15.25 15C15.25 15.4142 14.9142 15.75 14.5 15.75C14.0858 15.75 13.75 15.4142 13.75 15C13.75 14.5858 14.0858 14.25 14.5 14.25Z" fill="#212121"/>
</svg>
