<svg width="48" height="48" viewBox="0 0 48 48" fill="none" xmlns="http://www.w3.org/2000/svg">
<path d="M22.2245 5.52551C22.3765 4.71115 21.8396 3.92775 21.0252 3.77574C20.2109 3.62372 19.4275 4.16066 19.2755 4.97502L17.4041 15.0003H7.25C6.42157 15.0003 5.75 15.6718 5.75 16.5003C5.75 17.3287 6.42157 18.0003 7.25 18.0003H16.8441L14.6041 30.0003H5.25C4.42157 30.0003 3.75 30.6718 3.75 31.5003C3.75 32.3287 4.42157 33.0003 5.25 33.0003H14.0441L12.2755 42.475C12.1235 43.2894 12.6604 44.0728 13.4748 44.2248C14.2891 44.3768 15.0725 43.8399 15.2245 43.0255L17.0959 33.0003H28.0441L26.2755 42.475C26.1235 43.2894 26.6604 44.0728 27.4748 44.2248C28.2891 44.3768 29.0725 43.8399 29.2245 43.0255L31.0959 33.0003H40.75C41.5784 33.0003 42.25 32.3287 42.25 31.5003C42.25 30.6718 41.5784 30.0003 40.75 30.0003H31.6559L33.8959 18.0003H42.75C43.5784 18.0003 44.25 17.3287 44.25 16.5003C44.25 15.6718 43.5784 15.0003 42.75 15.0003H34.4559L36.2245 5.52551C36.3765 4.71115 35.8396 3.92775 35.0252 3.77574C34.2109 3.62372 33.4275 4.16066 33.2755 4.97502L31.4041 15.0003H20.4559L22.2245 5.52551ZM28.6041 30.0003H17.6559L19.8959 18.0003H30.8441L28.6041 30.0003Z" fill="#212121"/>
</svg>
