<svg width="24" height="24" viewBox="0 0 24 24" fill="none" xmlns="http://www.w3.org/2000/svg">
<path d="M13.75 2C14.9081 2 15.862 2.87501 15.9863 4H17.75C18.9926 4 20 5.00736 20 6.25V7.17676C19.3767 7.3681 18.7212 7.697 18.0918 8.07812C16.6953 8.92396 15.0589 10.2439 13.4922 11.8105C13.0923 12.2105 12.2736 13.0012 11.835 13.9658C11.8272 13.983 11.8192 14.0011 11.8115 14.0186C10.8754 14.1147 9.96295 14.5206 9.24414 15.2393C8.76373 15.7197 8.5081 16.2145 8.34082 16.6074C8.20155 16.9346 8.11968 17.3368 7.82031 17.5615C7.69206 17.6577 7.47579 17.7861 7.11133 17.9326L6.69531 18.085C6.19505 18.252 5.80288 18.6335 5.61719 19.1162L5.5498 19.3291C5.24781 20.567 6.3814 21.4442 7.31152 22H6.25C5.00736 22 4 20.9926 4 19.75V6.25C4 5.00736 5.00736 4 6.25 4H8.01367C8.13803 2.87501 9.09186 2 10.25 2H13.75ZM20.4229 8.09375C20.9014 7.96539 21.6174 7.88071 22.1152 8.37793C22.6129 8.87567 22.5277 9.59159 22.3994 10.0703C22.254 10.6123 21.9532 11.2356 21.5596 11.8857C20.7658 13.1966 19.5018 14.7707 17.9756 16.2969C17.5466 16.7259 16.8829 17.4011 16.1133 17.751C15.9186 17.8394 15.7073 17.9104 15.4834 17.9531C15.5661 18.8775 15.2567 19.8306 14.5508 20.5391L14.3457 20.7354C13.2942 21.6798 11.9072 22.0538 10.5732 21.9795C9.15331 21.9002 7.72423 21.3106 6.71094 20.2666C6.5316 20.0816 6.46048 19.8177 6.52148 19.5674C6.58268 19.317 6.76723 19.1148 7.01172 19.0332C8.39111 18.5734 8.74905 18.1197 8.93262 17.7783C9.06391 17.5339 9.10546 17.3649 9.26074 17C9.39965 16.6737 9.59368 16.3038 9.95117 15.9463C10.6599 15.2379 11.6143 14.926 12.54 15.0088C12.5828 14.7856 12.655 14.575 12.7432 14.3809C13.0931 13.6112 13.7682 12.9476 14.1973 12.5186C15.7232 10.9926 17.2968 9.72843 18.6074 8.93457C19.2574 8.54096 19.881 8.23928 20.4229 8.09375ZM13.4863 17.0078C12.8029 16.3245 11.6951 16.3245 11.0117 17.0078C10.8403 17.1793 10.7391 17.3587 10.6416 17.5879C10.5606 17.7784 10.422 18.1736 10.2529 18.4883C9.96165 19.03 9.51881 19.5097 8.72949 19.9336C9.31237 20.2533 9.98015 20.4446 10.6563 20.4824C11.736 20.5426 12.7688 20.2112 13.4824 19.4863L13.4863 19.4824C14.1696 18.7991 14.1695 17.6912 13.4863 17.0078ZM10.25 3.5C9.83579 3.5 9.5 3.83579 9.5 4.25C9.5 4.66421 9.83579 5 10.25 5H13.75C14.1642 5 14.5 4.66421 14.5 4.25C14.5 3.83579 14.1642 3.5 13.75 3.5H10.25Z" fill="#212121"/>
</svg>
