<svg width="20" height="20" viewBox="0 0 20 20" fill="none" xmlns="http://www.w3.org/2000/svg">
<path d="M3 6C3 4.34315 4.34315 3 6 3H14C15.6569 3 17 4.34315 17 6V9.40135C16.6963 9.22567 16.359 9.1017 16 9.04148V7H4V14C4 15.1046 4.89543 16 6 16H11.05C11.0172 16.1616 11 16.3288 11 16.5C11 16.6669 11.0126 16.8341 11.0381 17H6C4.34315 17 3 15.6569 3 14V6ZM6 4C4.89543 4 4 4.89543 4 6L16 6C16 4.89543 15.1046 4 14 4H6ZM15.5 14C16.6046 14 17.5 13.1046 17.5 12C17.5 10.8954 16.6046 10 15.5 10C14.3954 10 13.5 10.8954 13.5 12C13.5 13.1046 14.3954 14 15.5 14ZM15.5 19C18 19 19 17.7452 19 16.5C19 15.6716 18.3284 15 17.5 15H13.5C12.6716 15 12 15.6716 12 16.5C12 17.7499 13 19 15.5 19ZM6 12H9V9H6V12ZM5 8.5C5 8.22386 5.22386 8 5.5 8H9.5C9.77614 8 10 8.22386 10 8.5V12.5C10 12.7761 9.77614 13 9.5 13H5.5C5.22386 13 5 12.7761 5 12.5V8.5Z" fill="#212121"/>
</svg>
