<svg width="24" height="24" viewBox="0 0 24 24" fill="none" xmlns="http://www.w3.org/2000/svg">
<path d="M13.2741 2.97586C13.5889 4.06611 12.9344 5.19955 11.8326 5.47208L11.2482 5.61661C11.2033 5.90431 11.18 6.19949 11.18 6.5003C11.18 6.81498 11.2055 7.12349 11.2546 7.42373L11.7942 7.55364C12.9069 7.82155 13.5684 8.96656 13.2445 10.0641L13.0582 10.6954C13.4974 11.081 13.998 11.3942 14.5427 11.6169L15.0361 11.0982C15.8248 10.269 17.1474 10.2692 17.9359 11.0987L18.4347 11.6235C18.9784 11.4032 19.4785 11.093 19.9179 10.7106L19.7198 10.0247C19.405 8.93441 20.0595 7.80098 21.1613 7.52845L21.7452 7.38404C21.7901 7.09632 21.8135 6.80113 21.8135 6.5003C21.8135 6.18555 21.7879 5.87698 21.7388 5.57668L21.1997 5.44689C20.087 5.17898 19.4255 4.03397 19.7494 2.93644L19.9356 2.30555C19.4964 1.91982 18.9958 1.6066 18.4511 1.38377L17.9578 1.90232C17.1691 2.73156 15.8465 2.73134 15.058 1.90183L14.5591 1.37695C14.0154 1.59716 13.5153 1.9073 13.076 2.28969L13.2741 2.97586ZM16.4967 8.0003C15.6959 8.0003 15.0467 7.32873 15.0467 6.5003C15.0467 5.67187 15.6959 5.0003 16.4967 5.0003C17.2975 5.0003 17.9467 5.67187 17.9467 6.5003C17.9467 7.32873 17.2975 8.0003 16.4967 8.0003ZM16.4967 13.0005C18.8143 13.0005 20.8488 11.7881 22 9.96303V20.249C22 21.2155 21.2163 21.999 20.2496 21.999H13.0002C12.9134 21.999 12.8281 21.9927 12.7447 21.9805L12.7447 11.8095C13.8047 12.5597 15.0992 13.0005 16.4967 13.0005ZM16.2422 17.5002H14.7418L14.64 17.5071C14.2739 17.5568 13.9916 17.8706 13.9916 18.2502C13.9916 18.6299 14.2739 18.9437 14.64 18.9934L14.7418 19.0002H16.2422L16.344 18.9934C16.7101 18.9437 16.9924 18.6299 16.9924 18.2502C16.9924 17.8706 16.7101 17.5568 16.344 17.5071L16.2422 17.5002ZM9.9951 6.50049C9.9951 6.33258 10.0015 6.16617 10.014 6.00146H3.75042C2.78369 6.00146 2 6.78497 2 7.75146V20.2466C2 21.2131 2.78369 21.9966 3.75042 21.9966H10.9998C11.083 21.9966 11.1649 21.9908 11.2451 21.9795L11.2453 10.3335C10.4592 9.25886 9.9951 7.93386 9.9951 6.50049ZM9.24465 17.5002L9.34644 17.5071C9.71261 17.5568 9.99483 17.8706 9.99483 18.2502C9.99483 18.6299 9.71261 18.9437 9.34644 18.9934L9.24465 19.0002H7.74259L7.64079 18.9934C7.27463 18.9437 6.99241 18.6299 6.99241 18.2502C6.99241 17.8706 7.27463 17.5568 7.64079 17.5071L7.74259 17.5002H9.24465Z" fill="#212121"/>
</svg>
