<svg width="48" height="48" viewBox="0 0 48 48" fill="none" xmlns="http://www.w3.org/2000/svg">
<path d="M43 36C44.6569 36 46 37.3412 46 38.998V39.5C46 43 42.85 46 37 46C31.15 46 28 43 28 39.5V38.998C28 37.3412 29.3431 36 31 36H43ZM35.75 6C39.2018 6 42 8.79822 42 12.25V24.1016C40.7295 22.8048 38.9588 22 37 22C33.3022 22 30.276 24.8674 30.0195 28.5H26.25C25.5596 28.5 25 29.0596 25 29.75C25 30.4404 25.5596 31 26.25 31H30.292C30.6349 32.152 31.2643 33.1805 32.1006 34H31C28.2406 34 26 36.2346 26 38.998V39.5C26 40.3669 26.146 41.2067 26.4229 42H12.25C8.79822 42 6 39.2018 6 35.75V12.25C6 8.79822 8.79822 6 12.25 6H35.75ZM21.6338 26.6162C21.1456 26.1281 20.3544 26.1281 19.8662 26.6162L16.5 29.9824L15.1338 28.6162L15.0391 28.5303C14.5481 28.1298 13.8239 28.1585 13.3662 28.6162C12.8781 29.1044 12.8781 29.8956 13.3662 30.3838L15.6162 32.6338C16.1044 33.1219 16.8956 33.1219 17.3838 32.6338L21.6338 28.3838C22.1219 27.8956 22.1219 27.1044 21.6338 26.6162ZM21.6338 15.6162C21.1456 15.1281 20.3544 15.1281 19.8662 15.6162L16.5 18.9824L15.1338 17.6162L15.0391 17.5303C14.5481 17.1298 13.8239 17.1585 13.3662 17.6162C12.8781 18.1044 12.8781 18.8956 13.3662 19.3838L15.6162 21.6338C16.1044 22.1219 16.8956 22.1219 17.3838 21.6338L21.6338 17.3838C22.1219 16.8956 22.1219 16.1044 21.6338 15.6162ZM26.25 17C25.5596 17 25 17.5596 25 18.25C25 18.9404 25.5596 19.5 26.25 19.5H33.75C34.4404 19.5 35 18.9404 35 18.25C35 17.5596 34.4404 17 33.75 17H26.25ZM37 24C39.7614 24 42 26.2386 42 29C42 31.7614 39.7614 34 37 34C34.2386 34 32 31.7614 32 29C32 26.2386 34.2386 24 37 24Z" fill="#212121"/>
</svg>
