<svg width="20" height="20" viewBox="0 0 20 20" fill="none" xmlns="http://www.w3.org/2000/svg">
<path d="M11.0025 2.38811C10.4323 1.87584 9.56767 1.87584 8.9975 2.38811L3.4975 7.32965C3.18086 7.61414 3 8.01977 3 8.44544V15.4996C3 16.328 3.67157 16.9996 4.5 16.9996H9.5C9.53289 16.9996 9.56553 16.9985 9.59789 16.9964C9.21559 16.2472 9 15.3988 9 14.5C9 11.4624 11.4624 9 14.5 9C15.4002 9 16.2499 9.21628 17 9.59971V8.44544C17 8.01977 16.8191 7.61414 16.5025 7.32965L11.0025 2.38811ZM19 14.5C19 16.9853 16.9853 19 14.5 19C12.0147 19 10 16.9853 10 14.5C10 12.0147 12.0147 10 14.5 10C16.9853 10 19 12.0147 19 14.5ZM15 12.5C15 12.2239 14.7761 12 14.5 12C14.2239 12 14 12.2239 14 12.5V14H12.5C12.2239 14 12 14.2239 12 14.5C12 14.7761 12.2239 15 12.5 15H14V16.5C14 16.7761 14.2239 17 14.5 17C14.7761 17 15 16.7761 15 16.5V15H16.5C16.7761 15 17 14.7761 17 14.5C17 14.2239 16.7761 14 16.5 14H15V12.5Z" fill="#212121"/>
</svg>
