<svg width="20" height="20" viewBox="0 0 20 20" fill="none" xmlns="http://www.w3.org/2000/svg">
<path d="M19 5.5C19 7.98528 16.9853 10 14.5 10C12.0147 10 10 7.98528 10 5.5C10 3.01472 12.0147 1 14.5 1C16.9853 1 19 3.01472 19 5.5ZM15 3.5C15 3.22386 14.7761 3 14.5 3C14.2239 3 14 3.22386 14 3.5V5H12.5C12.2239 5 12 5.22386 12 5.5C12 5.77614 12.2239 6 12.5 6H14V7.5C14 7.77614 14.2239 8 14.5 8C14.7761 8 15 7.77614 15 7.5V6H16.5C16.7761 6 17 5.77614 17 5.5C17 5.22386 16.7761 5 16.5 5H15V3.5ZM14.5 11C15.4002 11 16.2499 10.7837 17 10.4003V16.4996C17 17.328 16.3284 17.9996 15.5 17.9996H13.5C12.6716 17.9996 12 17.328 12 16.4996V12.4996C12 12.2234 11.7761 11.9996 11.5 11.9996H8.5C8.22386 11.9996 8 12.2234 8 12.4996V16.4996C8 17.328 7.32843 17.9996 6.5 17.9996H4.5C3.67157 17.9996 3 17.328 3 16.4996V9.44545C3 9.01978 3.18086 8.61415 3.4975 8.32966L8.9975 3.38812C9.16616 3.23659 9.3606 3.12988 9.56555 3.06799C9.20346 3.80126 9 4.62688 9 5.50001C9 8.53758 11.4624 11 14.5 11Z" fill="#212121"/>
</svg>
