<svg width="24" height="24" viewBox="0 0 24 24" fill="none" xmlns="http://www.w3.org/2000/svg">
<path d="M3 5.75C3 4.23122 4.23122 3 5.75 3H15.7145C16.5764 3 17.4031 3.34241 18.0126 3.9519L20.0481 5.98744C20.6576 6.59693 21 7.42358 21 8.28553V12.0218C20.5368 11.7253 20.0335 11.4858 19.5 11.3135V8.28553C19.5 7.8214 19.3156 7.37629 18.9874 7.0481L16.9519 5.01256C16.6918 4.75246 16.3582 4.58269 16 4.52344V7.25C16 8.49264 14.9926 9.5 13.75 9.5H9.25C8.00736 9.5 7 8.49264 7 7.25V4.5H5.75C5.05964 4.5 4.5 5.05964 4.5 5.75V18.25C4.5 18.9404 5.05964 19.5 5.75 19.5H6V14.25C6 13.0074 7.00736 12 8.25 12H14.0343C13.3987 12.4013 12.8376 12.9098 12.3762 13.5H8.25C7.83579 13.5 7.5 13.8358 7.5 14.25V19.5H11.3135C11.4858 20.0335 11.7253 20.5368 12.0218 21H5.75C4.23122 21 3 19.7688 3 18.25V5.75ZM8.5 4.5V7.25C8.5 7.66421 8.83579 8 9.25 8H13.75C14.1642 8 14.5 7.66421 14.5 7.25V4.5H8.5ZM23 17.5C23 20.5376 20.5376 23 17.5 23C14.4624 23 12 20.5376 12 17.5C12 14.4624 14.4624 12 17.5 12C20.5376 12 23 14.4624 23 17.5ZM14.5 17C14.2239 17 14 17.2239 14 17.5C14 17.7761 14.2239 18 14.5 18H19.2929L17.6464 19.6464C17.4512 19.8417 17.4512 20.1583 17.6464 20.3536C17.8417 20.5488 18.1583 20.5488 18.3536 20.3536L20.8536 17.8536C21.0488 17.6583 21.0488 17.3417 20.8536 17.1464L18.3536 14.6464C18.1583 14.4512 17.8417 14.4512 17.6464 14.6464C17.4512 14.8417 17.4512 15.1583 17.6464 15.3536L19.2929 17H14.5Z" fill="#212121"/>
</svg>
