<svg width="20" height="20" viewBox="0 0 20 20" fill="none" xmlns="http://www.w3.org/2000/svg">
<path d="M6 3C4.34315 3 3 4.34315 3 6V12C3 12.6479 3.20539 13.2479 3.55462 13.7383L7.58576 9.70712C8.36681 8.92608 9.63314 8.92608 10.4142 9.70712L14.4454 13.7383C14.7946 13.2479 15 12.6479 15 12V6C15 4.34315 13.6569 3 12 3H6ZM12.5 6.5C12.5 7.05228 12.0523 7.5 11.5 7.5C10.9477 7.5 10.5 7.05228 10.5 6.5C10.5 5.94772 10.9477 5.5 11.5 5.5C12.0523 5.5 12.5 5.94772 12.5 6.5Z" fill="#212121"/>
<path d="M13.7382 14.4454L9.70708 10.4142C9.31656 10.0237 8.68339 10.0237 8.29287 10.4142L4.26173 14.4454C4.75214 14.7946 5.35208 15 6 15H12C12.6479 15 13.2478 14.7946 13.7382 14.4454Z" fill="#212121"/>
<path d="M5.76392 16C6.31324 16.6138 7.11152 17 8.00002 17H12.5C14.9853 17 17 14.9853 17 12.5V8.00002C17 7.11152 16.6138 6.31324 16 5.76392V12.5C16 12.6208 15.9939 12.7402 15.982 12.8579C15.8027 14.6228 14.3122 16 12.5 16H5.76392Z" fill="#212121"/>
</svg>
