<svg width="16" height="16" viewBox="0 0 16 16" fill="none" xmlns="http://www.w3.org/2000/svg">
<path d="M4.5 1C3.11929 1 2 2.11929 2 3.5V11.5C2 12.8807 3.11929 14 4.5 14H10.5C11.8807 14 13 12.8807 13 11.5V3.5C13 2.11929 11.8807 1 10.5 1H4.5ZM5 8C5 7.44772 5.44772 7 6 7C6.55228 7 7 7.44772 7 8C7 8.55228 6.55228 9 6 9C5.44772 9 5 8.55228 5 8ZM8 8C8 7.44772 8.44771 7 9 7C9.55228 7 10 7.44772 10 8C10 8.55228 9.55228 9 9 9C8.44771 9 8 8.55228 8 8ZM5 11.0312C5 10.479 5.44772 10.0312 6 10.0312C6.55228 10.0312 7 10.479 7 11.0312C7 11.5835 6.55228 12.0312 6 12.0312C5.44772 12.0312 5 11.5835 5 11.0312ZM9 10.0312C9.55228 10.0312 10 10.479 10 11.0312C10 11.5835 9.55228 12.0312 9 12.0312C8.44771 12.0312 8 11.5835 8 11.0312C8 10.479 8.44771 10.0312 9 10.0312ZM5 3H10C10.5523 3 11 3.44772 11 4V5C11 5.55228 10.5523 6 10 6H5C4.44772 6 4 5.55228 4 5V4C4 3.44772 4.44772 3 5 3ZM6.49994 16.0001C5.68203 16.0001 4.95586 15.6073 4.49976 15.0001H10.4999C12.4329 15.0001 13.9999 13.4331 13.9999 11.5001V3.50006C14.6072 3.95616 14.9999 4.68215 14.9999 5.50006V11.5001C14.9999 13.9853 12.9852 16.0001 10.4999 16.0001H6.49994Z" fill="#212121"/>
</svg>
