<svg width="20" height="20" viewBox="0 0 20 20" fill="none" xmlns="http://www.w3.org/2000/svg">
<path d="M2 5.5C2 4.11929 3.11929 3 4.5 3H6.98223C7.44636 3 7.89148 3.18437 8.21967 3.51256L9.5 4.79289L7.43934 6.85355C7.34557 6.94732 7.21839 7 7.08579 7H2V5.5ZM2 8V14.5C2 15.8807 3.11929 17 4.5 17H11.0854C11.1512 16.8137 11.2528 16.6443 11.3819 16.5C11.1444 16.2346 11 15.8842 11 15.5C11 15.1158 11.1444 14.7654 11.3819 14.5C11.1444 14.2346 11 13.8842 11 13.5C11 12.6716 11.6716 12 12.5 12H18V7.5C18 6.11929 16.8807 5 15.5 5H10.7071L8.14645 7.56066C7.86514 7.84196 7.48361 8 7.08579 8H2ZM12.5 13C12.2239 13 12 13.2239 12 13.5C12 13.7761 12.2239 14 12.5 14H18.5C18.7761 14 19 13.7761 19 13.5C19 13.2239 18.7761 13 18.5 13H12.5ZM12.5 15C12.2239 15 12 15.2239 12 15.5C12 15.7761 12.2239 16 12.5 16H18.5C18.7761 16 19 15.7761 19 15.5C19 15.2239 18.7761 15 18.5 15H12.5ZM12 17.5C12 17.2239 12.2239 17 12.5 17H18.5C18.7761 17 19 17.2239 19 17.5C19 17.7761 18.7761 18 18.5 18H12.5C12.2239 18 12 17.7761 12 17.5Z" fill="#212121"/>
</svg>
