<svg width="20" height="20" viewBox="0 0 20 20" fill="none" xmlns="http://www.w3.org/2000/svg">
<path d="M10.565 4.5H15.5C16.7703 4.5 17.8192 5.44737 17.9789 6.67409L17.9947 6.83562L18 7V12H12.5C11.6716 12 11 12.6716 11 13.5C11 13.8842 11.1444 14.2346 11.3819 14.5C11.1444 14.7654 11 15.1158 11 15.5C11 15.8842 11.1444 16.2346 11.3819 16.5C11.2528 16.6443 11.1512 16.8137 11.0854 17H4.5C3.17452 17 2.08996 15.9685 2.00532 14.6644L2 14.5V7.5H7.07069L7.22385 7.49217C7.52777 7.46098 7.81509 7.33763 8.04702 7.13877L8.15819 7.03312L10.565 4.5ZM7.16667 3C7.43713 3 7.70151 3.0731 7.93238 3.21016L8.06667 3.3L9.385 4.289L7.43319 6.34437L7.3724 6.39872C7.3077 6.44767 7.23201 6.48017 7.15196 6.49335L7.07069 6.5H2V5.5C2 4.17452 3.03154 3.08996 4.33562 3.00532L4.5 3H7.16667ZM12.5 13C12.2239 13 12 13.2239 12 13.5C12 13.7761 12.2239 14 12.5 14H18.5C18.7761 14 19 13.7761 19 13.5C19 13.2239 18.7761 13 18.5 13H12.5ZM12.5 15C12.2239 15 12 15.2239 12 15.5C12 15.7761 12.2239 16 12.5 16H18.5C18.7761 16 19 15.7761 19 15.5C19 15.2239 18.7761 15 18.5 15H12.5ZM12 17.5C12 17.2239 12.2239 17 12.5 17H18.5C18.7761 17 19 17.2239 19 17.5C19 17.7761 18.7761 18 18.5 18H12.5C12.2239 18 12 17.7761 12 17.5Z" fill="#212121"/>
</svg>
