<svg width="16" height="16" viewBox="0 0 16 16" fill="none" xmlns="http://www.w3.org/2000/svg">
<path d="M6.85499 3.85197C8.04044 2.66653 9.96243 2.66653 11.1479 3.85198C12.3333 5.03743 12.3333 6.95943 11.1479 8.14488L6.14645 13.1463C5.95118 13.3415 5.95118 13.6581 6.14645 13.8534C6.34171 14.0487 6.65829 14.0487 6.85355 13.8534L11.855 8.85198C13.431 7.27601 13.431 4.72085 11.855 3.14487C10.279 1.5689 7.72386 1.5689 6.14789 3.14486L4 5.29274V2.49985C4 2.2237 3.77614 1.99985 3.5 1.99985C3.22386 1.99985 3 2.2237 3 2.49985V6.49985C3 6.56764 3.01349 6.63228 3.03794 6.69124C3.06123 6.74753 3.09524 6.80043 3.13998 6.84681C3.14425 6.85124 3.1486 6.8556 3.15303 6.85987C3.19942 6.9046 3.25232 6.93862 3.30861 6.96191C3.36756 6.98635 3.4322 6.99985 3.5 6.99985H7.5C7.77614 6.99985 8 6.77599 8 6.49985C8 6.2237 7.77614 5.99985 7.5 5.99985H4.70711L6.85499 3.85197Z" fill="#212121"/>
</svg>
