<svg width="24" height="24" viewBox="0 0 24 24" fill="none" xmlns="http://www.w3.org/2000/svg">
<path d="M5.47146 3.41925C5.38955 4.80533 5.8618 6.22082 6.88864 7.30168C5.01112 7.8413 3.51795 9.43905 3.22815 11.5176C2.89974 13.8731 3.38387 16.2702 4.60072 18.3136L4.95173 18.9031C4.96474 18.9249 4.97885 18.9461 4.994 18.9665L6.40996 20.8732C7.68641 22.5921 10.2013 22.752 11.6853 21.2087C11.857 21.0301 12.1429 21.0301 12.3147 21.2087C13.7986 22.752 16.3135 22.5921 17.59 20.8732L19.0059 18.9665C19.0211 18.9461 19.0352 18.9249 19.0482 18.9031L19.3992 18.3136C20.6161 16.2702 21.1002 13.8731 20.7718 11.5176C20.3631 8.58626 17.5611 6.61122 14.6629 7.21168L12.7608 7.60578L12.7577 7.60642C12.7881 6.82657 12.9097 5.98554 13.149 5.26776C13.4383 4.3998 13.8411 3.87802 14.2884 3.69165C14.6708 3.53233 14.8516 3.09323 14.6923 2.71088C14.533 2.32852 14.0939 2.14772 13.7115 2.30703C12.6588 2.74565 12.0616 3.78637 11.726 4.79342C11.7103 4.84045 11.6951 4.88777 11.6803 4.93536C11.4405 4.47093 11.1259 4.03506 10.7366 3.64578C9.64409 2.55322 8.18457 2.04949 6.75636 2.13413C6.06327 2.1752 5.51241 2.72616 5.47146 3.41925ZM8.39688 11.2345C8.05015 11.3038 7.73237 11.5478 7.53295 12.0132C7.32974 12.4874 7.25804 13.1895 7.47731 14.0672C7.57771 14.4691 7.33331 14.8763 6.93145 14.9767C6.52959 15.077 6.12243 14.8327 6.02204 14.4308C5.74168 13.3085 5.79499 12.2606 6.15421 11.4224C6.51724 10.5752 7.19934 9.94424 8.10274 9.76358C8.50891 9.68235 8.90402 9.94577 8.98525 10.3519C9.06647 10.7581 8.80305 11.1532 8.39688 11.2345Z" fill="#212121"/>
</svg>
