<svg width="20" height="20" viewBox="0 0 20 20" fill="none" xmlns="http://www.w3.org/2000/svg">
<path d="M14.5 3C15.8807 3 17 4.11929 17 5.5V14.5C17 15.8807 15.8807 17 14.5 17H5.5C4.11929 17 3 15.8807 3 14.5V5.5C3 4.11929 4.11929 3 5.5 3H14.5ZM12.7181 9H7.28194C6.83618 9 6.67454 9.04641 6.51158 9.13357C6.34861 9.22072 6.22072 9.34861 6.13357 9.51158C6.05731 9.65417 6.01224 9.79575 6.00216 10.1275L6 10.2819V12.7181C6 13.1638 6.04641 13.3255 6.13357 13.4884C6.22072 13.6514 6.34861 13.7793 6.51158 13.8664C6.65417 13.9427 6.79575 13.9878 7.12754 13.9978L7.28194 14H12.7181C13.1638 14 13.3255 13.9536 13.4884 13.8664C13.6514 13.7793 13.7793 13.6514 13.8664 13.4884C13.9427 13.3458 13.9878 13.2042 13.9978 12.8725L14 12.7181V10.2819C14 9.83618 13.9536 9.67454 13.8664 9.51158C13.7793 9.34861 13.6514 9.22072 13.4884 9.13357C13.3458 9.05731 13.2042 9.01224 12.8725 9.00216L12.7181 9ZM12.9122 10.0018L12.9926 10.0074L12.9982 10.0878V12.9122L12.9926 12.9926L12.9122 12.9982H7.0878L7.0074 12.9926L7.00175 12.9122V10.0878L7.0074 10.0074L7.0878 10.0018H12.9122ZM13.5 6H6.5L6.41012 6.00806C6.17688 6.05039 6 6.25454 6 6.5C6 6.74546 6.17688 6.94961 6.41012 6.99194L6.5 7H13.5L13.5899 6.99194C13.8231 6.94961 14 6.74546 14 6.5C14 6.25454 13.8231 6.05039 13.5899 6.00806L13.5 6Z" fill="#212121"/>
</svg>
