<svg width="20" height="20" viewBox="0 0 20 20" fill="none" xmlns="http://www.w3.org/2000/svg">
<path d="M8.50053 2C8.22439 2 8.00053 2.22386 8.00053 2.5C8.00053 2.77614 8.22439 3 8.50053 3H10.2943L7.14647 6.14766C6.9512 6.34291 6.95119 6.6595 7.14645 6.85476C7.34171 7.05003 7.65829 7.05004 7.85356 6.85478L11.0015 3.70705V5.5C11.0015 5.77614 11.2253 6 11.5015 6C11.7776 6 12.0015 5.77614 12.0015 5.5V2.5C12.0015 2.22386 11.7776 2 11.5015 2H8.50053ZM2.72363 7.05279C2.53113 6.95654 2.29863 6.99426 2.14645 7.14646C1.99427 7.29865 1.95655 7.53115 2.05282 7.72364L6.05282 15.722C6.17633 15.969 6.47668 16.0691 6.72366 15.9456C6.97064 15.8221 7.07072 15.5217 6.94721 15.2747L5.77544 12.9317L7.93193 10.7752L10.2758 11.9472C10.5228 12.0707 10.8231 11.9706 10.9466 11.7236C11.0701 11.4766 10.97 11.1763 10.723 11.0528L2.72363 7.05279ZM6.98915 10.3038L5.30397 11.9889L3.61826 8.61819L6.98915 10.3038ZM14.5 8C14.2239 8 14 8.22386 14 8.5C14 8.77614 14.2239 9 14.5 9H16.2938L8.14648 17.1464C7.95121 17.3417 7.95119 17.6583 8.14644 17.8535C8.34169 18.0488 8.65828 18.0488 8.85355 17.8536L17.001 9.70702V11.5C17.001 11.7761 17.2248 12 17.501 12C17.7771 12 18.001 11.7761 18.001 11.5V8.5C18.001 8.22386 17.7771 8 17.501 8H14.5Z" fill="#212121"/>
</svg>
