<svg width="48" height="48" viewBox="0 0 48 48" fill="none" xmlns="http://www.w3.org/2000/svg">
<path d="M32.0126 7.01314L25.5127 13.513C24.8293 14.1964 24.8293 15.3044 25.5127 15.9878L32.0126 22.4877C32.3471 22.8222 32.7834 22.993 33.2219 23H33.2781C33.7166 22.993 34.1529 22.8222 34.4874 22.4877L40.9873 15.9878C41.6707 15.3044 41.6707 14.1964 40.9873 13.513L34.4874 7.01314C33.804 6.32973 32.696 6.32973 32.0126 7.01314ZM28.9894 23L25 19.0106V23H28.9894ZM25 10.4902L30.2448 5.24538C31.9045 3.58565 34.5955 3.58565 36.2552 5.24538L42.755 11.7452C44.4148 13.4049 44.4148 16.0959 42.755 17.7556L37.5106 23H37.75C40.0972 23 42 24.9028 42 27.25V37.75C42 40.0972 40.0972 42 37.75 42H10.25C7.90279 42 6 40.0972 6 37.75V10.25C6 7.90279 7.90279 6 10.25 6H20.75C23.0972 6 25 7.90279 25 10.25V10.4902ZM33.2062 25.5H25V39.5H37.75C38.7165 39.5 39.5 38.7165 39.5 37.75V27.25C39.5 26.2835 38.7165 25.5 37.75 25.5H33.2938C33.2646 25.5003 33.2354 25.5003 33.2062 25.5ZM8.5 10.25V23H22.5V10.25C22.5 9.28351 21.7165 8.5 20.75 8.5H10.25C9.2835 8.5 8.5 9.28351 8.5 10.25ZM8.5 25.5V37.75C8.5 38.7165 9.2835 39.5 10.25 39.5H22.5V25.5H8.5Z" fill="#212121"/>
</svg>
