<svg width="20" height="20" viewBox="0 0 20 20" fill="none" xmlns="http://www.w3.org/2000/svg">
<path d="M4.5 16.9999C3.7203 16.9999 3.07955 16.4051 3.00687 15.6444L3 15.4999V4.49994C3 3.72024 3.59489 3.07949 4.35554 3.00681L4.5 2.99994H9C9.7797 2.99994 10.4204 3.59483 10.4931 4.35548L10.5 4.49994V4.75437L12.6886 2.48512C13.2276 1.92593 14.0959 1.87562 14.6956 2.347L14.8118 2.44824L17.5694 5.17289C18.1219 5.71878 18.1614 6.58763 17.68 7.18407L17.5767 7.29955L15.266 9.49937L15.5 9.49994C16.2797 9.49994 16.9204 10.0948 16.9931 10.8555L17 10.9999V15.4999C17 16.2796 16.4051 16.9204 15.6445 16.9931L15.5 16.9999H4.5ZM9.5 10.4999H4V15.4999C4 15.7147 4.13542 15.8979 4.32553 15.9687L4.41012 15.9919L4.5 15.9999H9.5V10.4999ZM15.5 10.4999H10.5V15.9999H15.5C15.7455 15.9999 15.9496 15.8231 15.9919 15.5898L16 15.4999V10.9999C16 10.7545 15.8231 10.5503 15.5899 10.508L15.5 10.4999ZM10.5 7.70937V9.49937H12.29L10.5 7.70937ZM9 3.99994H4.5C4.25454 3.99994 4.05039 4.17681 4.00806 4.41006L4 4.49994V9.49994H9.5V4.49994C9.5 4.28516 9.36458 4.10201 9.17447 4.03122L9.08988 4.008L9 3.99994Z" fill="#212121"/>
</svg>
