<?xml version="1.0" encoding="UTF-8"?>
<svg width="24px" height="24px" viewBox="0 0 24 24" version="1.1" xmlns="http://www.w3.org/2000/svg" xmlns:xlink="http://www.w3.org/1999/xlink">
    <!-- Generator: Sketch 61.2 (89653) - https://sketch.com -->
    <title>ic_fluent_apps_24_light</title>
    <desc>Created with Sketch.</desc>
    <g id="ðŸ”-Product-Icons" stroke="none" stroke-width="1" fill="none" fill-rule="evenodd">
        <g id="ic_fluent_apps_24_light" fill="#212121" fill-rule="nonzero">
            <path d="M15.315864,2.33388348 C16.1527018,1.49704571 17.4847246,1.45719629 18.3687229,2.21433522 L18.4978445,2.33388348 L21.679825,5.51586399 C22.5166628,6.35270176 22.5565122,7.6847246 21.7993733,8.56872286 L21.679825,8.69784451 L18.8730158,11.5033058 C19.9533419,11.5615151 20.8311175,12.3818058 20.9782804,13.4361156 L20.9948092,13.5959512 L21,13.75 L21,18.75 C21,19.940864 20.0748384,20.9156449 18.9040488,20.9948092 L18.75,21 L5.25,21 C4.05913601,21 3.08435508,20.0748384 3.00519081,18.9040488 L3,18.75 L3,5.25 C3,4.05913601 3.92516159,3.08435508 5.09595119,3.00519081 L5.25,3 L10.25,3 C11.440864,3 12.4156449,3.92516159 12.4948092,5.09595119 L12.496,5.15187373 L15.315864,2.33388348 Z M4,18.75 C4,19.3972087 4.49187466,19.9295339 5.12219476,19.9935464 L5.25,20 L11.5,19.9998737 L11.5,12.5 L4,12.4998737 L4,18.75 Z M12.5,19.9998737 L18.75,20 C19.3972087,20 19.9295339,19.5081253 19.9935464,18.8778052 L20,18.75 L20,13.75 C20,13.1027913 19.5081253,12.5704661 18.8778052,12.5064536 L18.75,12.5 L17.3203478,12.5007297 C17.0472157,12.5515364 16.7664928,12.5515364 16.4933607,12.5007297 L12.5,12.4998737 L12.5,19.9998737 Z M10.25,4 L5.25,4 C4.60279131,4 4.0704661,4.49187466 4.00645361,5.12219476 L4,5.25 L4,11.4998737 L11.5,11.4998737 L11.4988568,7.43545434 C11.4669284,7.21798456 11.4668795,6.99673616 11.4987101,6.77925481 L11.5,5.25 C11.5,4.60279131 11.0081253,4.0704661 10.3778052,4.00645361 L10.25,4 Z M17.7907377,3.04099026 C17.3351261,2.58537858 16.6153056,2.55500447 16.1244661,2.94986792 L16.0229708,3.04099026 L12.8409903,6.22297077 C12.3853786,6.67858245 12.3550045,7.39840287 12.7498679,7.88924238 L12.8409903,7.99073773 L16.0229708,11.1727182 C16.4785824,11.6283299 17.1984029,11.658704 17.6892424,11.2638406 L17.7907377,11.1727182 L20.9727182,7.99073773 C21.4283299,7.53512605 21.458704,6.81530563 21.0638406,6.32446612 L20.9727182,6.22297077 L17.7907377,3.04099026 Z M12.5,9.06387373 L12.5,11.5 L14.936,11.4998737 L12.5,9.06387373 Z" id="ðŸŽ¨-Color"></path>
        </g>
    </g>
</svg>