<svg width="28" height="28" viewBox="0 0 28 28" fill="none" xmlns="http://www.w3.org/2000/svg">
<path d="M14.248 2C14.6623 2 14.9981 2.33579 14.9981 2.75V3H22.7499C24.5451 3 26.0004 4.45507 26.0004 6.25V16H25.6748C25.5113 15.1947 25.0897 14.4831 24.5001 13.9553V6.25C24.5001 5.2835 23.7165 4.5 22.7499 4.5H5.25051C4.28386 4.5 3.50023 5.2835 3.50023 6.25V18.7501C3.50023 19.7166 4.28386 20.5001 5.25051 20.5001H16.4981C16.1843 20.9179 15.9983 21.4372 15.9983 22L10.5878 22.0001L7.31102 25.744C7.0382 26.0557 6.5643 26.0873 6.25254 25.8145C5.94077 25.5417 5.9092 25.0679 6.18202 24.7562L8.59427 22.0001H5.25051C3.45531 22.0001 2 20.545 2 18.7501V6.25C2 4.45508 3.4553 3 5.25051 3H13.4979V2.75C13.4979 2.33579 13.8337 2 14.248 2ZM16.9984 22C16.9984 21.1761 17.6627 20.5074 18.485 20.5001L18.4987 20.5H25.4998C26.3283 20.5 27 21.1716 27 22V22.5C27 24.4714 25.1402 26.5 21.9992 26.5C18.8582 26.5 16.9984 24.4714 16.9984 22.5V22ZM24.5001 15.6039C24.5585 15.731 24.6075 15.8633 24.6461 16C24.7136 16.2384 24.7496 16.49 24.7496 16.75C24.7496 18.2688 23.5182 19.5 21.9992 19.5C20.4802 19.5 19.2488 18.2688 19.2488 16.75C19.2488 15.2312 20.4802 14 21.9992 14C23.1091 14 24.0655 14.6573 24.5001 15.6039ZM6.74684 7.5C6.33256 7.5 5.99672 7.83579 5.99672 8.25C5.99672 8.66421 6.33256 9 6.74684 9H12.2477C12.662 9 12.9978 8.66421 12.9978 8.25C12.9978 7.83579 12.662 7.5 12.2477 7.5H6.74684ZM5.99672 12.25C5.99672 11.8358 6.33256 11.5 6.74684 11.5H17.2485C17.6628 11.5 17.9986 11.8358 17.9986 12.25C17.9986 12.6642 17.6628 13 17.2485 13H6.74684C6.33256 13 5.99672 12.6642 5.99672 12.25ZM6.74684 15.5C6.33256 15.5 5.99672 15.8358 5.99672 16.25C5.99672 16.6642 6.33256 17 6.74684 17H15.2482C15.6624 17 15.9983 16.6642 15.9983 16.25C15.9983 15.8358 15.6624 15.5 15.2482 15.5H6.74684Z" fill="#212121"/>
</svg>
