<svg width="29" height="28" viewBox="0 0 29 28" fill="none" xmlns="http://www.w3.org/2000/svg">
<path d="M17.3595 17.5269C17.1465 16.6509 16.3568 16.001 15.416 16.001L4.41602 16L4.26682 16.0055C3.23241 16.0819 2.41602 16.9462 2.41602 18V20.5L2.42112 20.7485C2.58707 24.7515 6.76728 26 9.91602 26C11.2653 26 12.8039 25.7707 14.1348 25.1937L12.9793 24.0382C11.9865 24.3638 10.973 24.462 10.3509 24.4898L9.91602 24.5L9.57453 24.4946C8.10036 24.4479 6.70737 24.1007 5.71102 23.525C4.50302 22.829 3.91602 21.839 3.91602 20.5V18L3.92602 17.899C3.9513 17.7743 4.01882 17.69 4.06202 17.646C4.10602 17.6028 4.19098 17.5353 4.31536 17.51L4.41602 17.5L15.416 17.501L15.5056 17.5091C15.7382 17.5516 15.916 17.7566 15.916 18.001V18.5251L16.4286 18.0126C16.692 17.7491 17.0185 17.5873 17.3595 17.5269ZM23.1927 17.5002C23.1747 17.4999 23.1567 17.4999 23.1387 17.5002L18.365 17.501C18.281 16.9996 18.0715 16.5434 17.7705 16.1605L17.636 16.001L24.416 16L24.5652 16.0055C25.5479 16.0781 26.3338 16.8617 26.41 17.8434L26.416 18V20L26.416 20.0251L24.916 18.5251V18C24.916 17.7547 24.7382 17.5504 24.5056 17.5081L24.416 17.5L23.1927 17.5002ZM18.3909 24.5H18.416V24.5251L18.3909 24.5ZM15.416 8.5C15.416 5.463 12.954 3 9.91602 3C6.87802 3 4.41602 5.463 4.41602 8.5C4.41602 11.537 6.87802 14 9.91602 14C12.954 14 15.416 11.537 15.416 8.5ZM5.91602 8.5C5.91602 6.294 7.71002 4.5 9.91602 4.5C12.122 4.5 13.916 6.294 13.916 8.5C13.916 10.706 12.122 12.5 9.91602 12.5C7.71002 12.5 5.91602 10.706 5.91602 8.5ZM25.416 9.5C25.416 7.015 23.401 5 20.916 5C18.431 5 16.416 7.015 16.416 9.5C16.416 11.985 18.431 14 20.916 14C23.401 14 25.416 11.985 25.416 9.5ZM17.916 9.5C17.916 7.846 19.262 6.5 20.916 6.5C22.57 6.5 23.916 7.846 23.916 9.5C23.916 11.154 22.57 12.5 20.916 12.5C19.262 12.5 17.916 11.154 17.916 9.5ZM18.1963 19.7803C18.4892 19.4874 18.4892 19.0126 18.1963 18.7197C17.9035 18.4268 17.4286 18.4268 17.1357 18.7197L13.6357 22.2197C13.3428 22.5126 13.3428 22.9874 13.6357 23.2803L17.1357 26.7803C17.4286 27.0732 17.9035 27.0732 18.1963 26.7803C18.4892 26.4874 18.4892 26.0126 18.1963 25.7197L15.9767 23.5H24.8554L22.6357 25.7197C22.3428 26.0126 22.3428 26.4874 22.6357 26.7803C22.9286 27.0732 23.4035 27.0732 23.6963 26.7803L27.1963 23.2803C27.4892 22.9874 27.4892 22.5126 27.1963 22.2197L23.6963 18.7197C23.4035 18.4268 22.9286 18.4268 22.6357 18.7197C22.3428 19.0126 22.3428 19.4874 22.6357 19.7803L24.8554 22H15.9767L18.1963 19.7803Z" fill="#212121"/>
</svg>
