<?xml version="1.0" encoding="UTF-8"?>
<svg width="24px" height="24px" viewBox="0 0 24 24" version="1.1" xmlns="http://www.w3.org/2000/svg" xmlns:xlink="http://www.w3.org/1999/xlink">
    <!-- Generator: Sketch 58 (84663) - https://sketch.com -->
    <title>ic_arrow_left_24_outlined</title>
    <desc>Created with Sketch.</desc>
    <g id="ðŸ”-Product-Icons" stroke="none" stroke-width="1" fill="none" fill-rule="evenodd">
        <g id="ic_arrow_left_24_outlined" fill="#212121">
            <path d="M11.4696699,4.71966991 C11.7625631,4.4267767 12.2374369,4.4267767 12.5303301,4.71966991 C12.8232233,5.01256313 12.8232233,5.48743687 12.5303301,5.78033009 L12.5303301,5.78033009 L7.31,11 L19.25,11 C19.6296958,11 19.943491,11.2821539 19.9931534,11.6482294 L20,11.75 C20,12.1642136 19.6642136,12.5 19.25,12.5 L19.25,12.5 L7.31,12.5 L12.5303301,17.7196699 C12.7965966,17.9859365 12.8208027,18.4026002 12.6029482,18.6962117 L12.5303301,18.7803301 C12.2374369,19.0732233 11.7625631,19.0732233 11.4696699,18.7803301 L11.4696699,18.7803301 L4.96966991,12.2803301 C4.6767767,11.9874369 4.6767767,11.5125631 4.96966991,11.2196699 L4.96966991,11.2196699 Z" id="ðŸŽ¨-Color"></path>
        </g>
    </g>
</svg>