<?xml version="1.0" encoding="UTF-8"?>
<svg width="24px" height="24px" viewBox="0 0 24 24" version="1.1" xmlns="http://www.w3.org/2000/svg" xmlns:xlink="http://www.w3.org/1999/xlink">
    <!-- Generator: Sketch 58 (84663) - https://sketch.com -->
    <title>ic_arrow_left_24_filled</title>
    <desc>Created with Sketch.</desc>
    <g id="ðŸ”-Product-Icons" stroke="none" stroke-width="1" fill="none" fill-rule="evenodd">
        <g id="ic_arrow_left_24_filled" fill="#212121">
            <path d="M11.2928932,4.79289322 C11.6834175,4.40236893 12.3165825,4.40236893 12.7071068,4.79289322 C13.0976311,5.18341751 13.0976311,5.81658249 12.7071068,6.20710678 L12.7071068,6.20710678 L7.914,11 L19,11 C19.5128358,11 19.9355072,11.3860402 19.9932723,11.8833789 L20,12 C20,12.5522847 19.5522847,13 19,13 L19,13 L7.914,13 L12.7071068,17.7928932 C13.0675907,18.1533772 13.0953203,18.7206082 12.7902954,19.1128994 L12.7071068,19.2071068 C12.3165825,19.5976311 11.6834175,19.5976311 11.2928932,19.2071068 L11.2928932,19.2071068 L4.79289322,12.7071068 C4.40236893,12.3165825 4.40236893,11.6834175 4.79289322,11.2928932 L4.79289322,11.2928932 Z" id="ðŸŽ¨-Color"></path>
        </g>
    </g>
</svg>