<?xml version="1.0" encoding="UTF-8"?>
<svg width="28px" height="28px" viewBox="0 0 28 28" version="1.1" xmlns="http://www.w3.org/2000/svg" xmlns:xlink="http://www.w3.org/1999/xlink">
    <!-- Generator: Sketch 59.1 (86144) - https://sketch.com -->
    <title>ic_fluent_arrow_left_28_filled</title>
    <desc>Created with Sketch.</desc>
    <g id="ðŸ”-Product-Icons" stroke="none" stroke-width="1" fill="none" fill-rule="evenodd">
        <g id="ic_fluent_arrow_left_28_filled" fill="#212121" fill-rule="nonzero">
            <path d="M2.4700973,14.8505372 L2.4085159,14.7288112 L2.4085159,14.7288112 L2.32993552,14.5240465 L2.32993552,14.5240465 L2.29129666,14.3796079 L2.29129666,14.3796079 L2.26462152,14.2265426 L2.26462152,14.2265426 L2.25357816,14.1121978 L2.25023771,13.97086 L2.25023771,13.97086 L2.2567436,13.8453564 L2.2567436,13.8453564 L2.26880736,13.7433763 L2.26880736,13.7433763 C2.28109372,13.6590663 2.2993895,13.5771333 2.32319231,13.4975784 C2.34895517,13.4116852 2.38148963,13.3270203 2.42081394,13.2447908 L2.47060341,13.148545 L2.47060341,13.148545 L2.54676325,13.0244532 L2.54676325,13.0244532 L2.6296573,12.9114694 L2.6296573,12.9114694 L2.70990371,12.8175502 L2.70990371,12.8175502 L11.2478445,4.27728176 C11.931262,3.59386425 13.0393007,3.59386425 13.7227182,4.27728176 C14.3659347,4.92049824 14.403771,5.93984976 13.836227,6.62731743 L13.7227182,6.75215549 L8.224,12.2497186 L24,12.25 C24.9181734,12.25 25.6711923,12.9571103 25.7441988,13.8564728 L25.75,14 C25.75,14.9181734 25.0428897,15.6711923 24.1435272,15.7441988 L24,15.75 L8.224,15.7497186 L13.7227182,21.2478445 C14.3659347,21.891061 14.403771,22.9104125 13.836227,23.5978802 L13.7227182,23.7227182 C13.0795018,24.3659347 12.0601502,24.403771 11.3726826,23.836227 L11.2478445,23.7227182 L2.76256313,15.2374369 L2.63546711,15.0959339 L2.63546711,15.0959339 L2.54866861,14.9783741 L2.54866861,14.9783741 L2.4700973,14.8505372 L2.4700973,14.8505372 Z" id="ðŸŽ¨-Color"></path>
        </g>
    </g>
</svg>