<svg width="28" height="28" viewBox="0 0 28 28" fill="none" xmlns="http://www.w3.org/2000/svg">
<path d="M17.5259 4.46585C17.4187 4.86595 17.6561 5.2772 18.0562 5.38441C18.4563 5.49162 18.8675 5.25418 18.9748 4.85408L19.6218 2.43927C19.729 2.03917 19.4916 1.62791 19.0915 1.52071C18.6914 1.4135 18.2801 1.65094 18.1729 2.05104L17.5259 4.46585ZM24.7806 3.21966C25.0735 3.51256 25.0735 3.98743 24.7806 4.28032L22.2806 6.78032C21.9877 7.07322 21.5129 7.07322 21.22 6.78032C20.9271 6.48743 20.9271 6.01256 21.22 5.71966L23.72 3.21966C24.0129 2.92677 24.4877 2.92677 24.7806 3.21966ZM10.1813 23.7042C11.0133 25.0802 12.5237 26 14.249 26C16.8724 26 18.999 23.8734 18.999 21.25C18.999 20.6199 18.8763 20.0184 18.6535 19.4681L22.4801 17.5548C24.159 16.7154 24.5221 14.4778 23.1948 13.1506L14.8502 4.80593C13.5229 3.47866 11.2854 3.84176 10.446 5.52064L3.29138 19.8298C2.76202 20.8886 2.96952 22.1672 3.80651 23.0042L4.99655 24.1943C5.83354 25.0312 7.11221 25.2388 8.17093 24.7094L10.1813 23.7042ZM11.5295 23.0301L17.3053 20.1422C17.4307 20.4879 17.499 20.861 17.499 21.25C17.499 23.0449 16.044 24.5 14.249 24.5C13.1113 24.5 12.1101 23.9154 11.5295 23.0301ZM11.7876 6.19145C12.1692 5.42833 13.1862 5.26328 13.7895 5.86659L22.1342 14.2112C22.7375 14.8145 22.5724 15.8316 21.8093 16.2132L7.50011 23.3678C7.01888 23.6084 6.43766 23.514 6.05721 23.1336L4.86717 21.9436C4.48672 21.5631 4.3924 20.9819 4.63302 20.5007L11.7876 6.19145ZM22.5003 9.75201C22.5003 9.33779 22.8361 9.00201 23.2503 9.00201H25.7503C26.1645 9.00201 26.5003 9.33779 26.5003 9.75201C26.5003 10.1662 26.1645 10.502 25.7503 10.502H23.2503C22.8361 10.502 22.5003 10.1662 22.5003 9.75201Z" fill="#212121"/>
</svg>
