<svg width="28" height="28" viewBox="0 0 28 28" fill="none" xmlns="http://www.w3.org/2000/svg">
<path d="M17.5259 4.466C17.4187 4.8661 17.6561 5.27736 18.0562 5.38456C18.4563 5.49177 18.8675 5.25433 18.9748 4.85423L19.6218 2.43942C19.729 2.03932 19.4916 1.62807 19.0915 1.52086C18.6914 1.41365 18.2801 1.65109 18.1729 2.05119L17.5259 4.466ZM24.7806 3.21981C25.0735 3.51271 25.0735 3.98758 24.7806 4.28047L22.2806 6.78047C21.9877 7.07337 21.5129 7.07337 21.22 6.78047C20.9271 6.48758 20.9271 6.01271 21.22 5.71981L23.72 3.21981C24.0129 2.92692 24.4877 2.92692 24.7806 3.21981ZM10.1813 23.7043C11.0133 25.0803 12.5237 26.0002 14.249 26.0002C16.8724 26.0002 18.999 23.8735 18.999 21.2502C18.999 20.62 18.8763 20.0185 18.6535 19.4683L22.4801 17.555C24.159 16.7155 24.5221 14.478 23.1948 13.1507L14.8502 4.80608C13.5229 3.47881 11.2854 3.84192 10.446 5.52079L3.29138 19.83C2.76202 20.8887 2.96952 22.1674 3.80651 23.0044L4.99655 24.1944C5.83354 25.0314 7.11221 25.2389 8.17093 24.7095L10.1813 23.7043ZM11.5295 23.0303L17.3053 20.1424C17.4307 20.4881 17.499 20.8611 17.499 21.2502C17.499 23.0451 16.044 24.5002 14.249 24.5002C13.1113 24.5002 12.1101 23.9155 11.5295 23.0303ZM11.7876 6.19161C12.1692 5.42848 13.1862 5.26344 13.7895 5.86674L22.1342 14.2114C22.7375 14.8147 22.5724 15.8318 21.8093 16.2133L7.50011 23.3679C7.01888 23.6085 6.43766 23.5142 6.05721 23.1338L4.86717 21.9437C4.48672 21.5633 4.3924 20.982 4.63302 20.5008L11.7876 6.19161ZM22.5003 9.75216C22.5003 9.33795 22.8361 9.00216 23.2503 9.00216H25.7503C26.1645 9.00216 26.5003 9.33795 26.5003 9.75216C26.5003 10.1664 26.1645 10.5022 25.7503 10.5022H23.2503C22.8361 10.5022 22.5003 10.1664 22.5003 9.75216Z" fill="#212121"/>
</svg>
