<svg width="24" height="24" viewBox="0 0 24 24" fill="none" xmlns="http://www.w3.org/2000/svg">
<path d="M12 2C6.47715 2 2 6.47715 2 12C2 17.5228 6.47715 22 12 22C17.5228 22 22 17.5228 22 12C22 6.47715 17.5228 2 12 2ZM11 8.75V15.25C11 15.6642 10.6642 16 10.25 16C9.83579 16 9.5 15.6642 9.5 15.25V8.75C9.5 8.33579 9.83579 8 10.25 8C10.6642 8 11 8.33579 11 8.75ZM17 8.75V15.25C17 15.6642 16.6642 16 16.25 16C15.8358 16 15.5 15.6642 15.5 15.25V8.75C15.5 8.33579 15.8358 8 16.25 8C16.6642 8 17 8.33579 17 8.75ZM14 10.25V13.75C14 14.1642 13.6642 14.5 13.25 14.5C12.8358 14.5 12.5 14.1642 12.5 13.75V10.25C12.5 9.83579 12.8358 9.5 13.25 9.5C13.6642 9.5 14 9.83579 14 10.25ZM8 10.75V13.25C8 13.6642 7.66421 14 7.25 14C6.83579 14 6.5 13.6642 6.5 13.25V10.75C6.5 10.3358 6.83579 10 7.25 10C7.66421 10 8 10.3358 8 10.75Z" fill="#212121"/>
</svg>
