<svg width="16" height="16" viewBox="0 0 16 16" fill="none" xmlns="http://www.w3.org/2000/svg">
<path d="M4.5 2C3.11929 2 2 3.11929 2 4.5V10.5C2 11.8807 3.11929 13 4.5 13H5V12H4.5C3.67157 12 3 11.3284 3 10.5V4.5C3 3.67157 3.67157 3 4.5 3H10.5C11.3284 3 12 3.67157 12 4.5V7H13V4.5C13 3.11929 11.8807 2 10.5 2H4.5ZM7.5 8C6.67157 8 6 8.67157 6 9.5V13.5C6 14.3284 6.67157 15 7.5 15H13.5C14.3284 15 15 14.3284 15 13.5V9.5C15 8.67157 14.3284 8 13.5 8H7.5ZM7 9.5C7 9.22386 7.22386 9 7.5 9H13.5C13.7761 9 14 9.22386 14 9.5V9.98358L10.5 11.928L7 9.98358V9.5ZM7 11.1275L10.2572 12.9371C10.4082 13.021 10.5918 13.021 10.7428 12.9371L14 11.1275V13.5C14 13.7761 13.7761 14 13.5 14H7.5C7.22386 14 7 13.7761 7 13.5V11.1275ZM5 5C4.72386 5 4.5 5.22386 4.5 5.5C4.5 5.77614 4.72386 6 5 6H10C10.2761 6 10.5 5.77614 10.5 5.5C10.5 5.22386 10.2761 5 10 5H5Z" fill="#212121"/>
</svg>
