<svg width="20" height="20" viewBox="0 0 20 20" fill="none" xmlns="http://www.w3.org/2000/svg">
<path d="M10.5004 2.50009C10.5004 2.2239 10.2765 2 10.0004 2C9.72424 2 9.50037 2.2239 9.50037 2.50009V3H4.75C3.23122 3 2 4.23122 2 5.75V12.2518C2 13.7709 3.23128 15.0023 4.75013 15.0023H6.56601L5.08418 17.2253C4.931 17.4552 4.99309 17.7656 5.22286 17.9188C5.45264 18.072 5.76309 18.01 5.91627 17.7801L7.76792 15.0023H10.0119L10.0121 15H11.4998C11.9133 14.4496 12.5486 14.0754 13.273 14.0102C12.7926 13.4782 12.5 12.7733 12.5 12C12.5 10.3431 13.8431 9 15.5 9C16.544 9 17.4634 9.53327 18.0008 10.3423V5.75067C18.0008 4.49406 17.1582 3.43427 16.0073 3.10558C15.7667 3.03682 15.5126 3 15.25 3H10.5004V2.50009ZM5 6.50082C5 6.22463 5.22387 6.00073 5.50002 6.00073H8.50017C8.77633 6.00073 9.0002 6.22463 9.0002 6.50082C9.0002 6.77701 8.77633 7.00091 8.50017 7.00091H5.50002C5.22387 7.00091 5 6.77701 5 6.50082ZM5.50002 11.0016H9.50022C9.77638 11.0016 10.0002 11.2255 10.0002 11.5017C10.0002 11.7779 9.77638 12.0018 9.50022 12.0018H5.50002C5.22387 12.0018 5 11.7779 5 11.5017C5 11.2255 5.22387 11.0016 5.50002 11.0016ZM5.50002 8.50118H10.5003C10.7764 8.50118 11.0003 8.72507 11.0003 9.00127C11.0003 9.27746 10.7764 9.50135 10.5003 9.50135H5.50002C5.22387 9.50135 5 9.27746 5 9.00127C5 8.72507 5.22387 8.50118 5.50002 8.50118ZM17.5 12C17.5 13.1046 16.6046 14 15.5 14C14.3954 14 13.5 13.1046 13.5 12C13.5 10.8954 14.3954 10 15.5 10C16.6046 10 17.5 10.8954 17.5 12ZM19 16.5C19 17.7452 18 19 15.5 19C13 19 12 17.7499 12 16.5C12 15.6716 12.6716 15 13.5 15H17.5C18.3284 15 19 15.6716 19 16.5Z" fill="#212121"/>
</svg>
