<svg width="16" height="16" viewBox="0 0 16 16" fill="none" xmlns="http://www.w3.org/2000/svg">
<path d="M6 2C7.38094 2 8.50041 3.11947 8.50041 4.5004C8.50041 5.88134 7.38094 7.00081 6 7.00081C4.61906 7.00081 3.49959 5.88134 3.49959 4.5004C3.49959 3.11947 4.61906 2 6 2ZM9.53491 6.36145C9.203 6.00443 9 5.52592 9 5C9 3.89543 9.89543 3 11 3C12.1046 3 13 3.89543 13 5C13 5.41572 12.8732 5.80182 12.6561 6.12171C12.2833 6.04197 11.8966 6 11.5 6C10.8076 6 10.1452 6.12793 9.53491 6.36145ZM6.20699 12.9998C6.15849 13.0005 6.10955 13.0008 6.06019 13.0008C3.44552 13.0008 2 12.0969 2 10.2746V9.5C2 8.67157 2.67157 8 3.5 8H7.25716C6.47182 8.95094 6 10.1704 6 11.5C6 12.02 6.07215 12.5231 6.20699 12.9998ZM11.5 16C13.9853 16 16 13.9853 16 11.5C16 9.01472 13.9853 7 11.5 7C9.01472 7 7 9.01472 7 11.5C7 13.9853 9.01472 16 11.5 16ZM13.8536 10.3536L10.8536 13.3536C10.6583 13.5488 10.3417 13.5488 10.1464 13.3536L9.14645 12.3536C8.95118 12.1583 8.95118 11.8417 9.14645 11.6464C9.34171 11.4512 9.65829 11.4512 9.85355 11.6464L10.5 12.2929L13.1464 9.64645C13.3417 9.45118 13.6583 9.45118 13.8536 9.64645C14.0488 9.84171 14.0488 10.1583 13.8536 10.3536Z" fill="#212121"/>
</svg>
