<svg width="20" height="20" viewBox="0 0 20 20" fill="none" xmlns="http://www.w3.org/2000/svg">
<path d="M17 5.75C17 5.33579 16.6642 5 16.25 5H11.75C11.3358 5 11 5.33579 11 5.75C11 6.16421 11.3358 6.5 11.75 6.5H16.25C16.6642 6.5 17 6.16421 17 5.75Z" fill="#212121"/>
<path d="M9 5.75C9 5.33579 8.66421 5 8.25 5H3.75C3.33579 5 3 5.33579 3 5.75C3 6.16421 3.33579 6.5 3.75 6.5H8.25C8.66421 6.5 9 6.16421 9 5.75Z" fill="#212121"/>
<path d="M17 8.75C17 8.33579 16.6642 8 16.25 8H11.75C11.3358 8 11 8.33579 11 8.75C11 9.16421 11.3358 9.5 11.75 9.5H16.25C16.6642 9.5 17 9.16421 17 8.75Z" fill="#212121"/>
<path d="M9 8.75C9 8.33579 8.66421 8 8.25 8H3.75C3.33579 8 3 8.33579 3 8.75C3 9.16421 3.33579 9.5 3.75 9.5H8.25C8.66421 9.5 9 9.16421 9 8.75Z" fill="#212121"/>
<path d="M17 11.75C17 11.3358 16.6642 11 16.25 11H11.75C11.3358 11 11 11.3358 11 11.75C11 12.1642 11.3358 12.5 11.75 12.5H16.25C16.6642 12.5 17 12.1642 17 11.75Z" fill="#212121"/>
<path d="M9 11.75C9 11.3358 8.66421 11 8.25 11H3.75C3.33579 11 3 11.3358 3 11.75C3 12.1642 3.33579 12.5 3.75 12.5H8.25C8.66421 12.5 9 12.1642 9 11.75Z" fill="#212121"/>
<path d="M17 14.75C17 14.3358 16.6642 14 16.25 14H11.75C11.3358 14 11 14.3358 11 14.75C11 15.1642 11.3358 15.5 11.75 15.5H16.25C16.6642 15.5 17 15.1642 17 14.75Z" fill="#212121"/>
<path d="M9 14.75C9 14.3358 8.66421 14 8.25 14H3.75C3.33579 14 3 14.3358 3 14.75C3 15.1642 3.33579 15.5 3.75 15.5H8.25C8.66421 15.5 9 15.1642 9 14.75Z" fill="#212121"/>
</svg>
