<svg width="16" height="16" viewBox="0 0 16 16" fill="none" xmlns="http://www.w3.org/2000/svg">
<path d="M6.99952 5C6.99952 2.79086 8.79038 1 10.9995 1C11.5083 1 11.996 1.09524 12.445 1.26931C12.6026 1.3304 12.7187 1.46698 12.7535 1.63235C12.7884 1.79773 12.7374 1.96953 12.6178 2.08904L10.7068 4.00012L11.9997 5.29302L13.9106 3.38207C14.0301 3.26254 14.2019 3.2115 14.3673 3.24637C14.5327 3.28125 14.6693 3.39732 14.7304 3.55493C14.9043 4.0038 14.9995 4.49138 14.9995 5C14.9995 7.20914 13.2087 9 10.9995 9C10.6194 9 10.251 8.94684 9.90178 8.84736L4.8953 13.9192C4.18135 14.6425 3.03655 14.7101 2.24252 14.0757C1.3284 13.3455 1.24051 11.9872 2.05291 11.1453L7.10375 5.91061C7.03552 5.61771 6.99952 5.31279 6.99952 5ZM10.9995 2C9.34267 2 7.99952 3.34315 7.99952 5C7.99952 5.31548 8.04805 5.61868 8.13768 5.90305C8.19276 6.07781 8.14785 6.26869 8.02062 6.40054L2.77254 11.8396C2.36923 12.2576 2.41286 12.9319 2.86667 13.2944C3.26086 13.6093 3.82918 13.5758 4.18361 13.2167L9.40781 7.9243C9.54665 7.78364 9.75532 7.73797 9.94023 7.80777C10.269 7.93186 10.6257 8 10.9995 8C12.6564 8 13.9995 6.65685 13.9995 5C13.9995 4.9056 13.9952 4.81228 13.9867 4.72023L12.3533 6.35368C12.2595 6.44745 12.1324 6.50013 11.9997 6.50013C11.8671 6.50013 11.74 6.44745 11.6462 6.35368L9.64619 4.35368C9.45093 4.15842 9.45092 3.84185 9.64618 3.64658L11.2798 2.01289C11.1876 2.00436 11.0941 2 10.9995 2Z" fill="#212121"/>
</svg>
