<svg width="28" height="28" viewBox="0 0 28 28" fill="none" xmlns="http://www.w3.org/2000/svg">
<path d="M4.98635 8.51256C4.73011 8.25632 4.40776 8.09203 4.06641 8.02904C4.40255 6.30291 5.9227 5 7.74717 5H15.2472C17.3182 5 18.9972 6.67893 18.9972 8.75V17.25C18.9972 19.3211 17.3182 21 15.2472 21H9.33005C9.453 20.7408 9.51168 20.4525 9.49659 20.1598C9.47106 19.665 9.23699 19.2042 8.85245 18.8918L6.52408 17L8.85245 15.1082C9.23699 14.7958 9.47106 14.335 9.49659 13.8402C9.52211 13.3453 9.3367 12.8629 8.98635 12.5126L4.98635 8.51256ZM24.2488 19.6829L19.9972 16.7472V9.24859L24.2488 6.31295C25.4096 5.51142 26.9931 6.34235 26.9931 7.75302V18.2428C26.9931 19.6535 25.4096 20.4844 24.2488 19.6829ZM3.46301 9.05711C3.74326 8.94103 4.06585 9.00519 4.28035 9.21969L8.28035 13.2197C8.42934 13.3687 8.50879 13.5735 8.49925 13.784C8.48972 13.9944 8.39208 14.1912 8.23023 14.3261L5.02198 17.0004L8.23015 19.6739C8.39203 19.8088 8.4897 20.0055 8.49925 20.216C8.5088 20.4265 8.42935 20.6313 8.28035 20.7803L4.28035 24.7804C4.06586 24.9949 3.74327 25.0591 3.46301 24.943C3.18275 24.8269 3.00002 24.5534 3.00002 24.2501V18.6858L2.23024 19.3275C1.91206 19.5927 1.43913 19.5498 1.17392 19.2316C0.908702 18.9134 0.951631 18.4405 1.2698 18.1753L2.67909 17.0006L1.26988 15.8262C0.951674 15.5611 0.908679 15.0881 1.17385 14.7699C1.43902 14.4517 1.91195 14.4087 2.23015 14.6739L3.00002 15.3154V9.75002C3.00002 9.44668 3.18275 9.1732 3.46301 9.05711ZM4.50002 22.4394L6.63896 20.3004L4.50002 18.518V22.4394ZM6.63904 13.6997L4.50002 11.5607V15.4827L6.63904 13.6997Z" fill="#212121"/>
</svg>
