<svg width="28" height="28" viewBox="0 0 28 28" fill="none" xmlns="http://www.w3.org/2000/svg">
<path d="M6.74863 5C4.88288 5 3.33537 6.36255 3.04688 8.14686C3.0575 8.14221 3.06818 8.13766 3.07893 8.13321C3.56824 7.93053 4.11286 7.96334 4.56574 8.20238C4.81029 7.2244 5.69486 6.5 6.74863 6.5H15.2486C16.4913 6.5 17.4986 7.50736 17.4986 8.75V17.25C17.4986 18.4926 16.4913 19.5 15.2486 19.5H9.32977C9.42688 19.7047 9.48437 19.9286 9.4963 20.1598C9.5114 20.4525 9.45271 20.7408 9.32977 21H15.2486C17.3197 21 18.9986 19.3211 18.9986 17.25V16.7473L23.2502 19.6829C24.411 20.4844 25.9945 19.6535 25.9945 18.2428V7.75302C25.9945 6.34235 24.411 5.51142 23.2502 6.31295L18.9986 9.24856V8.75C18.9986 6.67893 17.3197 5 15.2486 5H6.74863ZM18.9986 11.0714L24.1025 7.54729C24.2683 7.43279 24.4945 7.55149 24.4945 7.75302V18.2428C24.4945 18.4443 24.2683 18.563 24.1025 18.4485L18.9986 14.9244V11.0714ZM3.46301 9.05711C3.74326 8.94103 4.06585 9.00519 4.28035 9.21969L8.28035 13.2197C8.42934 13.3687 8.50879 13.5735 8.49925 13.784C8.48972 13.9944 8.39208 14.1912 8.23023 14.3261L5.02198 17.0004L8.23015 19.6739C8.39203 19.8088 8.4897 20.0055 8.49925 20.216C8.5088 20.4265 8.42935 20.6313 8.28035 20.7803L4.28035 24.7804C4.06586 24.9949 3.74327 25.0591 3.46301 24.943C3.18275 24.8269 3.00002 24.5534 3.00002 24.2501V18.6858L2.23024 19.3275C1.91206 19.5927 1.43913 19.5498 1.17392 19.2316C0.908702 18.9134 0.951631 18.4405 1.2698 18.1753L2.67909 17.0006L1.26988 15.8262C0.951674 15.5611 0.908679 15.0881 1.17385 14.7699C1.43902 14.4517 1.91195 14.4087 2.23015 14.6739L3.00002 15.3154V9.75002C3.00002 9.44668 3.18275 9.1732 3.46301 9.05711ZM4.50002 22.4394L6.63896 20.3004L4.50002 18.518V22.4394ZM6.63904 13.6997L4.50002 11.5607V15.4827L6.63904 13.6997Z" fill="#212121"/>
</svg>
