<?xml version="1.0" encoding="UTF-8"?>
<svg width="20px" height="20px" viewBox="0 0 20 20" version="1.1" xmlns="http://www.w3.org/2000/svg" xmlns:xlink="http://www.w3.org/1999/xlink">
    <!-- Generator: Sketch 64 (93537) - https://sketch.com -->
    <title>ic_fluent_navigation_20_filled</title>
    <desc>Created with Sketch.</desc>
    <g id="ðŸ”-System-Icons" stroke="none" stroke-width="1" fill="none" fill-rule="evenodd">
        <g id="ic_fluent_navigation_20_filled" fill="#212121" fill-rule="nonzero">
            <path d="M17.25,14.5 C17.6642,14.5 18,14.8358 18,15.25 C18,15.6296833 17.7178347,15.9434889 17.3517677,15.9931531 L17.25,16 L2.75,16 C2.33579,16 2,15.6642 2,15.25 C2,14.8703167 2.28215688,14.5565111 2.64823019,14.5068469 L2.75,14.5 L17.25,14.5 Z M17.25,9.5 C17.6642,9.5 18,9.83579 18,10.25 C18,10.6642 17.6642,11 17.25,11 L2.75,11 C2.33579,11 2,10.6642 2,10.25 C2,9.83579 2.33579,9.5 2.75,9.5 L17.25,9.5 Z M17.25,4.5 C17.6642,4.5 18,4.83579 18,5.25 C18,5.66421 17.6642,6 17.25,6 L2.75,6 C2.33579,6 2,5.66421 2,5.25 C2,4.83579 2.33579,4.5 2.75,4.5 L17.25,4.5 Z" id="ðŸŽ¨-Color"></path>
        </g>
    </g>
</svg>