<svg width="20" height="20" viewBox="0 0 20 20" fill="none" xmlns="http://www.w3.org/2000/svg">
<path d="M11.4228 2.37867C12.116 2.11206 12.8835 2.11206 13.5767 2.37867L17.038 3.70994C17.6173 3.93274 17.9995 4.4893 17.9995 5.10996V12.8899C17.9995 12.9643 17.994 13.0378 17.9833 13.1099C17.9043 12.1899 17.5485 11.3489 16.9995 10.6707V5.10996C16.9995 4.90307 16.8721 4.71755 16.679 4.64328L13.2177 3.31202C12.7556 3.13427 12.2439 3.13427 11.7818 3.31202L8.32051 4.64328C8.12741 4.71755 8 4.90307 8 5.10995V6.21029C7.668 6.16844 7.332 6.16842 7 6.21022V5.10995C7 4.4893 7.38224 3.93274 7.96153 3.70994L11.4228 2.37867ZM12.5995 9.09012C12.447 8.92554 12.2565 8.79399 12.038 8.70994L8.57669 7.37867C7.88348 7.11206 7.11602 7.11206 6.42281 7.37867L2.96153 8.70994C2.38224 8.93274 2 9.4893 2 10.11V14.8899C2 15.5106 2.38224 16.0671 2.96153 16.2899L6.42281 17.6212C7.11602 17.8878 7.88348 17.8878 8.57669 17.6212L10.5214 16.8732C10.2538 16.6368 10.0146 16.369 9.8095 16.0756L8.21771 16.6878C7.75557 16.8656 7.24393 16.8656 6.78179 16.6878L3.32051 15.3566C3.12741 15.2823 3 15.0968 3 14.8899V10.11C3 9.90307 3.12741 9.71755 3.32051 9.64328L6.78179 8.31202C7.24393 8.13427 7.75557 8.13427 8.21771 8.31202L11.3815 9.52886C11.7586 9.32725 12.1679 9.17779 12.5995 9.09012ZM10.6974 9.97906C10.615 9.96684 10.5283 9.97508 10.445 10.0071L7.49966 11.14L4.5543 10.0071C4.29657 9.90801 4.00727 10.0366 3.90814 10.2943C3.80901 10.5521 3.93759 10.8414 4.19532 10.9405L6.99966 12.0191V14.5088C6.99966 14.785 7.22351 15.0088 7.49966 15.0088C7.7758 15.0088 7.99966 14.785 7.99966 14.5088V12.0191L9.49639 11.4434C9.78953 10.8739 10.2006 10.375 10.6974 9.97906ZM15.445 5.00696C15.7028 4.90783 15.9921 5.03641 16.0912 5.29414C16.1903 5.55188 16.0617 5.84118 15.804 5.94031L13.0381 7.0041C12.6915 7.13741 12.3078 7.13741 11.9612 7.0041L9.19533 5.94031C8.9376 5.84118 8.80902 5.55188 8.90815 5.29414C9.00728 5.03641 9.29658 4.90783 9.55431 5.00696L12.3202 6.07075C12.4357 6.11519 12.5636 6.11519 12.6792 6.07075L15.445 5.00696ZM16.3032 15.5961C16.7408 15.0118 17 14.2862 17 13.5C17 11.567 15.433 10 13.5 10C11.567 10 10 11.567 10 13.5C10 15.433 11.567 17 13.5 17C14.2862 17 15.0118 16.7408 15.5961 16.3032L18.1464 18.8536C18.3417 19.0489 18.6583 19.0489 18.8535 18.8536C19.0488 18.6584 19.0488 18.3418 18.8536 18.1465L16.3032 15.5961ZM16 13.5C16 14.8807 14.8807 16 13.5 16C12.1193 16 11 14.8807 11 13.5C11 12.1193 12.1193 11 13.5 11C14.8807 11 16 12.1193 16 13.5Z" fill="#212121"/>
</svg>
