<svg width="28" height="28" viewBox="0 0 28 28" fill="none" xmlns="http://www.w3.org/2000/svg">
<path d="M14 9.5C14 11.9853 11.9853 14 9.5 14C7.01472 14 5 11.9853 5 9.5C5 7.01472 7.01472 5 9.5 5C11.9853 5 14 7.01472 14 9.5ZM15.0104 16.0149L12.5126 18.5128C11.8291 19.1962 11.8291 20.3042 12.5126 20.9876L14.4046 22.8797C13.3032 23.534 11.7345 24 9.5 24C2 24 2 18.75 2 18.75V18.25C2 17.0074 3.00736 16 4.25 16H14.75C14.8381 16 14.925 16.0051 15.0104 16.0149ZM20 14C21.933 14 23.5 12.433 23.5 10.5C23.5 8.567 21.933 7 20 7C18.067 7 16.5 8.567 16.5 10.5C16.5 12.433 18.067 14 20 14ZM17.783 16.7779C18.0759 16.485 18.0759 16.0101 17.783 15.7172C17.4901 15.4243 17.0152 15.4243 16.7223 15.7172L13.2197 19.2199C12.9268 19.5128 12.9268 19.9876 13.2197 20.2805L16.7222 23.7831C17.0151 24.0759 17.49 24.0759 17.7829 23.7831C18.0758 23.4902 18.0758 23.0153 17.7829 22.7224L15.5607 20.5002H24.4393L22.2171 22.7224C21.9242 23.0153 21.9242 23.4902 22.2171 23.7831C22.51 24.0759 22.9849 24.0759 23.2778 23.7831L26.7803 20.2805C27.0732 19.9876 27.0732 19.5128 26.7803 19.2199L23.2778 15.7172C22.9849 15.4243 22.51 15.4243 22.2171 15.7172C21.9242 16.0101 21.9242 16.485 22.2171 16.7779L24.4394 19.0002H15.5607L17.783 16.7779Z" fill="#212121"/>
</svg>
