<svg width="16" height="16" viewBox="0 0 16 16" fill="none" xmlns="http://www.w3.org/2000/svg">
<path d="M11.5 8C12.3284 8 13 8.67157 13 9.5V10C13 11.5107 11.908 13.055 9.98445 13.6943C10.0302 13.363 9.96789 13.0148 9.77545 12.7099C11.2187 12.1918 12 11.0619 12 10V9.5C12 9.22386 11.7761 9 11.5 9H8.37313C8.28181 8.64523 8.14304 8.30951 7.96398 8H11.5ZM6.36302 6.45992C6.51034 6.53765 6.65223 6.62431 6.78795 6.71918C7.1536 6.899 7.56501 7 8 7C9.51878 7 10.75 5.76878 10.75 4.25C10.75 2.73122 9.51878 1.5 8 1.5C6.48122 1.5 5.25 2.73122 5.25 4.25C5.25 5.15553 5.68767 5.95884 6.36302 6.45992ZM8 2.5C8.9665 2.5 9.75 3.2835 9.75 4.25C9.75 5.2165 8.9665 6 8 6C7.0335 6 6.25 5.2165 6.25 4.25C6.25 3.2835 7.0335 2.5 8 2.5ZM1.49741 10C1.49741 8.34326 2.84067 7 4.49741 7C6.15415 7 7.49741 8.34326 7.49741 10V12L8.81723 13.1187C9.1727 13.4197 8.95981 14 8.49399 14H0.500828C0.0354958 14 -0.177395 13.4197 0.177586 13.1187L1.49741 12.0002V10ZM4.49741 16C3.84458 16 3.28891 15.5825 3.08286 15H5.91196C5.70639 15.5825 5.15073 16 4.49741 16Z" fill="#212121"/>
</svg>
