<svg width="48" height="48" viewBox="0 0 48 48" fill="none" xmlns="http://www.w3.org/2000/svg">
<path d="M41.6339 8.13388C42.122 7.64573 42.122 6.85427 41.6339 6.36612C41.1457 5.87796 40.3543 5.87796 39.8661 6.36612L29.5002 16.7321V7.25012C29.5002 6.55977 28.9405 6.00012 28.2502 6.00012C27.5598 6.00012 27.0002 6.55977 27.0002 7.25012V19.7501C27.0002 20.4405 27.5598 21.0001 28.2502 21.0001H40.75C41.4404 21.0001 42 20.4405 42 19.7501C42 19.0598 41.4404 18.5001 40.75 18.5001H31.2676L41.6339 8.13388ZM8.5 12.2501C8.5 10.1791 10.1789 8.50012 12.25 8.50012H20.1346C20.825 8.50012 21.3846 7.94048 21.3846 7.25012C21.3846 6.55977 20.825 6.00012 20.1346 6.00012H12.25C8.79822 6.00012 6 8.79834 6 12.2501V35.7501C6 39.2019 8.79822 42.0001 12.25 42.0001H35.75C39.2018 42.0001 42 39.2019 42 35.7501V27.8655C42 27.1752 41.4404 26.6155 40.75 26.6155C40.0596 26.6155 39.5 27.1752 39.5 27.8655V35.7501C39.5 37.8212 37.8211 39.5001 35.75 39.5001H24V29.25C24 26.3505 21.6495 24 18.75 24H8.5V12.2501ZM8.5 26.5H18.75C20.2688 26.5 21.5 27.7312 21.5 29.25V39.5001H12.25C10.1789 39.5001 8.5 37.8212 8.5 35.7501V26.5Z" fill="#212121"/>
</svg>
