<svg width="32" height="32" viewBox="0 0 32 32" fill="none" xmlns="http://www.w3.org/2000/svg">
<path d="M26.8018 17.0527C27.0303 16.9752 27.279 16.9837 27.502 17.0762C27.6334 17.1576 30.5 18.9366 30.5 23.4678C30.4999 28.0001 27.6319 29.779 27.502 29.8594C27.3477 29.9514 27.1715 29.9999 26.9922 30C26.775 29.9956 26.5652 29.9202 26.3945 29.7852C26.2238 29.65 26.1013 29.4623 26.0459 29.251C25.9906 29.0398 26.0055 28.8163 26.0879 28.6143C26.1703 28.4121 26.316 28.2423 26.5029 28.1309L26.5039 28.1299C26.5853 28.0755 28.5009 26.7946 28.501 23.4678C28.501 20.1212 26.5829 18.8442 26.5029 18.7939C26.3136 18.6439 26.1846 18.4305 26.1396 18.1924C26.0948 17.9541 26.1371 17.7074 26.2588 17.498C26.3805 17.2887 26.5732 17.1303 26.8018 17.0527ZM21.0918 17.957C21.2388 17.926 21.3923 17.9397 21.5312 17.9971C21.67 18.0544 21.7883 18.1525 21.8711 18.2783C21.9539 18.4044 21.998 18.553 21.9961 18.7041V28.2412C21.996 28.3914 21.9508 28.5386 21.8672 28.6631C21.7836 28.7874 21.6647 28.8833 21.5264 28.9395C21.3878 28.9956 21.2359 29.0089 21.0898 28.9775C20.9438 28.9462 20.8097 28.8718 20.7061 28.7637L17.998 25.9805H16.749C16.4179 25.9804 16.1004 25.8477 15.8662 25.6123C15.6319 25.3767 15.5 25.0568 15.5 24.7236V22.2109C15.5001 21.8779 15.632 21.5587 15.8662 21.3232C16.1004 21.0877 16.4178 20.9551 16.749 20.9551H17.998L20.7061 18.1709C20.8102 18.0622 20.9449 17.9881 21.0918 17.957ZM12.75 4C14.1392 4 15.352 4.75544 16 5.87793C16.648 4.75544 17.8608 4 19.25 4H28C29.1046 4 30 4.89543 30 6V17.376C29.6422 16.9301 29.2918 16.5847 29 16.332V6C29 5.44772 28.5523 5 28 5H19.25C17.7312 5 16.5 6.23122 16.5 7.75V19.0137C16.1445 19.0141 15.8062 19.088 15.5 19.2217V7.75C15.5 6.23122 14.2688 5 12.75 5H4C3.44772 5 3 5.44772 3 6V26C3 26.5523 3.44772 27 4 27H12.75C13.429 27 14.0486 26.7516 14.5283 26.3438C14.6113 26.4581 14.7009 26.5685 14.8018 26.6699C14.9408 26.8097 15.0948 26.9315 15.2578 27.0371C14.5934 27.6353 13.7145 28 12.75 28H4C2.89543 28 2 27.1046 2 26V6C2 4.89543 2.89543 4 4 4H12.75ZM24.4307 19.459C24.6927 19.4289 24.956 19.5047 25.1631 19.6689C25.6871 20.1496 26.1039 20.7366 26.3848 21.3916C26.6656 22.0466 26.8041 22.7546 26.792 23.4678C26.8041 24.1808 26.6655 24.8881 26.3848 25.543C26.1039 26.198 25.6872 26.7859 25.1631 27.2666C24.9873 27.4083 24.7692 27.486 24.5439 27.4873C24.3939 27.4866 24.2462 27.4518 24.1113 27.3857C23.9764 27.3196 23.8577 27.2239 23.7646 27.1055C23.6013 26.8972 23.5267 26.6327 23.5566 26.3691C23.5866 26.1056 23.7189 25.8641 23.9248 25.6982C24.2134 25.406 24.4394 25.0573 24.5889 24.6738C24.7384 24.2902 24.8083 23.8796 24.7939 23.4678C24.8084 23.056 24.7383 22.6454 24.5889 22.2617C24.4394 21.878 24.2136 21.5287 23.9248 21.2363C23.719 21.0706 23.5867 20.8298 23.5566 20.5664C23.5267 20.3028 23.6012 20.0374 23.7646 19.8291C23.9294 19.6223 24.1689 19.4892 24.4307 19.459Z" fill="#212121"/>
</svg>
