<svg width="20" height="20" viewBox="0 0 20 20" fill="none" xmlns="http://www.w3.org/2000/svg">
<path d="M14.6353 5.48045C15.1767 4.85347 15.1074 3.90625 14.4804 3.36478C13.8535 2.82331 12.9063 2.89263 12.3648 3.5196L9 7.41573V4.5C9 3.67157 8.32843 3 7.5 3C6.67157 3 6 3.67157 6 4.5V15.5C6 16.3284 6.67157 17 7.5 17C8.32843 17 9 16.3284 9 15.5V12.5842L12.3647 16.4804C12.7802 16.9616 13.4347 17.1143 14 16.9147V17.5C14 18.3284 14.6716 19 15.5 19C16.3284 19 17 18.3284 17 17.5V15C17 14.1716 16.3284 13.5 15.5 13.5C15.0017 13.5 14.5602 13.743 14.2874 14.1169L10.7321 9.99993L14.6353 5.48045Z" fill="#212121"/>
</svg>
