<svg width="28" height="28" viewBox="0 0 28 28" fill="none" xmlns="http://www.w3.org/2000/svg">
<path d="M9.75 4C10.7165 4 11.5 4.7835 11.5 5.75V11.9756L18.4746 4.55176C19.1364 3.8474 20.2438 3.8129 20.9482 4.47461C21.6526 5.13636 21.6871 6.24384 21.0254 6.94824L14.4004 14L20.5156 20.5088C20.832 20.1941 21.2685 20 21.75 20C22.7165 20 23.5 20.7835 23.5 21.75V25.25C23.5 26.2165 22.7165 27 21.75 27C20.7835 27 20 26.2165 20 25.25V23.9805C19.4544 24.0588 18.8807 23.8805 18.4746 23.4482L11.5 16.0234V22.25C11.5 23.2165 10.7165 24 9.75 24C8.7835 24 8 23.2165 8 22.25V5.75C8 4.7835 8.7835 4 9.75 4Z" fill="#212121"/>
</svg>
