<svg width="16" height="16" viewBox="0 0 16 16" fill="none" xmlns="http://www.w3.org/2000/svg">
<path d="M11.5809 2.27395C12.1199 2.7052 12.2074 3.49181 11.7761 4.0309L8.60078 8.00018L11.3106 11.3873C11.5249 11.0069 11.9326 10.75 12.4004 10.75C13.0907 10.75 13.6504 11.3096 13.6504 12V14.75C13.6504 15.4404 13.0907 16 12.4004 16C11.71 16 11.1504 15.4404 11.1504 14.75V13.9503C10.6788 14.0878 10.1499 13.9383 9.82393 13.5309L6.5 9.37617V12.75C6.5 13.4404 5.94036 14 5.25 14C4.55964 14 4 13.4404 4 12.75V3.25C4 2.55964 4.55964 2 5.25 2C5.94036 2 6.5 2.55964 6.5 3.25V6.62421L9.8239 2.46919C10.2552 1.93011 11.0418 1.84269 11.5809 2.27395Z" fill="#212121"/>
</svg>
