<svg width="20" height="20" viewBox="0 0 20 20" fill="none" xmlns="http://www.w3.org/2000/svg">
<path d="M2.85355 2.14645C2.65829 1.95118 2.34171 1.95118 2.14645 2.14645C1.95118 2.34171 1.95118 2.65829 2.14645 2.85355L4 4.70711V17.5C4 17.7761 4.22386 18 4.5 18C4.77614 18 5 17.7761 5 17.5V13H12.2929L17.1464 17.8536C17.3417 18.0488 17.6583 18.0488 17.8536 17.8536C18.0488 17.6583 18.0488 17.3417 17.8536 17.1464L2.85355 2.14645ZM16.5 13H15.1213L5.12134 3H16.5C16.8993 3 17.1375 3.44507 16.916 3.77735L14.1009 8L16.916 12.2226C17.1375 12.5549 16.8993 13 16.5 13Z" fill="#212121"/>
</svg>
