<svg width="16" height="16" viewBox="0 0 16 16" fill="none" xmlns="http://www.w3.org/2000/svg">
<path d="M3.50098 2C2.67255 2 2.00098 2.67157 2.00098 3.5V10.4971C2.00098 11.3256 2.67255 11.9971 3.50098 11.9971H6.00012V13H4.49573C4.21959 13 3.99573 13.2239 3.99573 13.5C3.99573 13.7761 4.21959 14 4.49573 14H11.5001C11.7763 14 12.0001 13.7761 12.0001 13.5C12.0001 13.2239 11.7763 13 11.5001 13H10.0001V11.9971H12.501C13.3294 11.9971 14.001 11.3256 14.001 10.4971V3.5C14.001 2.67157 13.3294 2 12.501 2H3.50098ZM9.00012 11.9971V13H7.00012V11.9971H9.00012Z" fill="#212121"/>
</svg>
