<svg width="16" height="16" viewBox="0 0 16 16" fill="none" xmlns="http://www.w3.org/2000/svg">
<path d="M8 1C11.866 1 15 4.13401 15 8C15 11.866 11.866 15 8 15C4.13401 15 1 11.866 1 8C1 4.13401 4.13401 1 8 1ZM8 10C7.58579 10 7.25 10.3358 7.25 10.75C7.25 11.1642 7.58579 11.5 8 11.5C8.41421 11.5 8.75 11.1642 8.75 10.75C8.75 10.3358 8.41421 10 8 10ZM8 4.5C7.72386 4.5 7.5 4.72386 7.5 5V8.5L7.50781 8.58984C7.55015 8.82309 7.75454 9 8 9C8.27614 9 8.5 8.77614 8.5 8.5V5L8.49219 4.91016C8.44985 4.67691 8.24546 4.5 8 4.5Z" fill="#212121"/>
</svg>
