<svg width="20" height="20" viewBox="0 0 20 20" fill="none" xmlns="http://www.w3.org/2000/svg">
<path d="M8.06921 5.47061C9.70157 5.53748 11.3151 6.19323 12.5614 7.43938C15.1953 10.0734 15.1953 14.3445 12.5614 16.9785L11.7704 17.7696C10.7941 18.7458 9.21055 18.7457 8.23425 17.7696L2.23125 11.7666C1.25669 10.791 1.25532 9.20969 2.2293 8.23334L3.02228 7.43938C3.50534 6.95637 4.04407 6.56261 4.61702 6.25675C4.533 6.67435 4.48426 7.09823 4.46956 7.52239C4.21025 7.70667 3.96179 7.91397 3.72932 8.14642L2.93732 8.94038C2.35341 9.52609 2.35404 10.4743 2.93829 11.0595L8.94129 17.0625C9.52703 17.6481 10.4766 17.6481 11.0624 17.0625L11.8544 16.2715L12.0575 16.0567C14.0947 13.8015 14.0276 10.3198 11.8544 8.14642C10.697 6.98926 9.16773 6.42997 7.65123 6.46672C7.75078 6.12322 7.89053 5.78885 8.06921 5.47061ZM8.23425 2.22839C9.21055 1.25465 10.792 1.25601 11.7675 2.23035L17.7705 8.23334C18.7465 9.20957 18.7464 10.7932 17.7705 11.7695L16.9785 12.5615C16.4957 13.0442 15.9573 13.4384 15.3847 13.7441C15.4688 13.326 15.5175 12.9022 15.5322 12.4775C15.791 12.2935 16.0394 12.0865 16.2714 11.8545L17.0634 11.0615C17.6488 10.4757 17.6489 9.52605 17.0634 8.94038L11.0604 2.93738C10.4752 2.35333 9.52695 2.35263 8.94129 2.93641L8.14636 3.72938C5.90363 5.97286 5.9035 9.61108 8.14636 11.8545C9.30374 13.0118 10.8329 13.5699 12.3495 13.5332C12.25 13.877 12.1104 14.2118 11.9316 14.5303C10.2991 14.4634 8.68566 13.8078 7.43932 12.5615C4.80584 9.92749 4.80578 5.65633 7.43932 3.02235L8.23425 2.22839Z" fill="#212121"/>
</svg>
