<svg width="28" height="28" viewBox="0 0 28 28" fill="none" xmlns="http://www.w3.org/2000/svg">
<path d="M10.8721 7.5396C13.3264 7.53857 15.7808 8.47466 17.6534 10.3472C21.3964 14.0904 21.3965 20.1588 17.6534 23.902L16.6514 24.9029C15.1868 26.3656 12.8135 26.3654 11.3496 24.902L3.09767 16.651C1.63399 15.1869 1.6344 12.8127 3.09767 11.3482L4.09864 10.3472C4.91268 9.53319 5.83708 8.89607 6.82326 8.43609C6.67911 9.04681 6.58909 9.66806 6.55471 10.2916C6.06004 10.6051 5.59062 10.9764 5.15919 11.4078L4.15822 12.4078C3.28042 13.2864 3.2802 14.712 4.15822 15.5904L12.4102 23.8414C13.2884 24.7192 14.7121 24.7197 15.5909 23.8424L16.5928 22.8404C19.7498 19.6831 19.7499 14.5651 16.5928 11.4078C14.8607 9.67569 12.5386 8.89567 10.2735 9.06402C10.4119 8.53945 10.6114 8.02732 10.8721 7.5396ZM11.3487 3.09721C12.8131 1.63365 15.1872 1.63447 16.6514 3.09818L24.9024 11.3492C26.3661 12.8132 26.3675 15.1874 24.9044 16.6519L23.9014 17.6558C23.0867 18.4705 22.161 19.107 21.1739 19.567C21.3182 18.9559 21.408 18.3345 21.4424 17.7105C21.9378 17.3968 22.4089 17.0272 22.8409 16.5953L23.8428 15.5914C24.7206 14.7127 24.7198 13.2891 23.8419 12.4107L15.5909 4.15873C14.7123 3.28068 13.2878 3.28065 12.4092 4.15873L11.4073 5.16069C8.25014 8.3181 8.24998 13.438 11.4073 16.5953C13.1383 18.326 15.4591 19.1052 17.7227 18.9381C17.5842 19.4623 17.3856 19.9741 17.1251 20.4615C14.6719 20.4618 12.2185 19.5273 10.3467 17.6558C6.60364 13.9127 6.6038 7.84334 10.3467 4.10014L11.3487 3.09721Z" fill="#212121"/>
</svg>
