<svg width="16" height="16" viewBox="0 0 16 16" fill="none" xmlns="http://www.w3.org/2000/svg">
<path d="M10.5 9H11.7402C11.569 9.25575 11.3728 9.4931 11.1543 9.70801C11.0577 9.80304 10.999 9.90166 10.9736 9.99414L10.1826 12.8945C10.0046 13.5471 9.41173 13.9999 8.73535 14H7.2627C6.58632 13.9999 5.9934 13.5471 5.81543 12.8945L5.02441 9.99414C4.9991 9.90166 4.94037 9.80304 4.84375 9.70801C4.62528 9.4931 4.42901 9.25575 4.25781 9H5.5C5.5157 9 5.5313 8.99853 5.54688 8.99805C5.7389 9.18756 5.90791 9.43316 5.98926 9.73145L6.33594 11H9.66211L10.0088 9.73145C10.0903 9.43265 10.2587 9.18574 10.4512 8.99609C10.4674 8.99663 10.4837 9 10.5 9ZM6.78027 12.6318C6.83966 12.8492 7.03735 12.9999 7.2627 13H8.73535C8.9607 12.9999 9.15839 12.8492 9.21777 12.6318L9.38965 12H6.6084L6.78027 12.6318ZM6.50586 4.5C6.712 4.50241 6.89526 4.63124 6.96777 4.82422L8.06445 7.75098L9.05273 5.77637C9.13242 5.617 9.29093 5.51211 9.46875 5.50098C9.64664 5.4899 9.81715 5.57436 9.91602 5.72266L10.7676 7H12.25C12.5261 7 12.75 7.22386 12.75 7.5C12.75 7.77614 12.5261 8 12.25 8H10.5C10.3328 8 10.1767 7.91644 10.084 7.77734L9.56152 6.99414L8.44727 9.22363C8.35833 9.4015 8.17223 9.50945 7.97363 9.49902C7.77523 9.48854 7.60211 9.36176 7.53223 9.17578L6.48438 6.38281L5.96387 7.68555C5.88794 7.87538 5.70445 8 5.5 8H3.75C3.47386 8 3.25 7.77614 3.25 7.5C3.25 7.22386 3.47386 7 3.75 7H5.16211L6.03613 4.81445L6.06934 4.74609C6.15918 4.5936 6.32509 4.49804 6.50586 4.5ZM7.99902 2C10.3153 2 12.2219 3.75007 12.4707 6H11.4629C11.2202 4.3039 9.76223 3 7.99902 3C6.30199 3 4.88657 4.20768 4.56641 5.81055C4.54724 5.87335 4.53226 5.93664 4.52148 6H3.52734C3.77611 3.75007 5.68278 2 7.99902 2Z" fill="#212121"/>
</svg>
