<svg width="32" height="32" viewBox="0 0 32 32" fill="none" xmlns="http://www.w3.org/2000/svg">
<path d="M8.88388 3.11612C9.37204 3.60427 9.37204 4.39573 8.88388 4.88388L6.01777 7.75H17.5C23.4371 7.75 28.25 12.5629 28.25 18.5C28.25 24.4371 23.4371 29.25 17.5 29.25C11.5629 29.25 6.75 24.4371 6.75 18.5C6.75 17.8096 7.30964 17.25 8 17.25C8.69036 17.25 9.25 17.8096 9.25 18.5C9.25 23.0563 12.9437 26.75 17.5 26.75C22.0563 26.75 25.75 23.0563 25.75 18.5C25.75 13.9437 22.0563 10.25 17.5 10.25H6.01777L8.88388 13.1161C9.37204 13.6043 9.37204 14.3957 8.88388 14.8839C8.39573 15.372 7.60427 15.372 7.11612 14.8839L2.11612 9.88388C1.62796 9.39573 1.62796 8.60427 2.11612 8.11612L7.11612 3.11612C7.60427 2.62796 8.39573 2.62796 8.88388 3.11612Z" fill="#212121"/>
</svg>
