<svg width="16" height="16" viewBox="0 0 16 16" fill="none" xmlns="http://www.w3.org/2000/svg">
<path d="M7.3835 2.49724C7.65963 2.01894 8.27121 1.85507 8.7495 2.13122L11.0004 3.43084C11.4787 3.70699 11.6425 4.3186 11.3664 4.79689L10.0945 7H11C11.2761 7 11.5 7.22386 11.5 7.5C11.5 7.77614 11.2761 8 11 8H5C4.72386 8 4.5 7.77614 4.5 7.5C4.5 7.22386 4.72386 7 5 7H5.67471C5.3435 6.68939 5.2567 6.18116 5.49351 5.77097L7.3835 2.49724ZM7.62214 7H8.93983L10.5004 4.29687L8.24951 2.99726L6.35952 6.27099L7.62214 7ZM4.51462 5H4.78396L4.6274 5.27118C4.49005 5.50908 4.40714 5.76348 4.37479 6.01995C4.26831 6.05097 4.17377 6.11696 4.10775 6.20938L2.11445 9H13.8855L11.8922 6.20938C11.8592 6.16311 11.819 6.12346 11.7737 6.09151L12.2323 5.29714C12.2464 5.27272 12.26 5.24812 12.2729 5.22337C12.4405 5.32674 12.5883 5.46346 12.706 5.62814L14.7206 8.44861C14.9023 8.70301 15 9.00783 15 9.32047V12.5C15 13.3284 14.3284 14 13.5 14H2.5C1.67157 14 1 13.3284 1 12.5V9.32047C1 9.00783 1.09768 8.70301 1.2794 8.44861L3.29402 5.62814C3.57558 5.23395 4.03019 5 4.51462 5ZM14 10H2V12.5C2 12.7761 2.22386 13 2.5 13H13.5C13.7761 13 14 12.7761 14 12.5V10Z" fill="#212121"/>
</svg>
