<svg width="48" height="48" viewBox="0 0 48 48" fill="none" xmlns="http://www.w3.org/2000/svg">
<path d="M6.5 24C6.5 33.665 14.335 41.5 24 41.5C33.665 41.5 41.5 33.665 41.5 24C41.5 14.335 33.665 6.5 24 6.5C14.335 6.5 6.5 14.335 6.5 24ZM24 44C12.9543 44 4 35.0457 4 24C4 12.9543 12.9543 4 24 4C35.0457 4 44 12.9543 44 24C44 35.0457 35.0457 44 24 44ZM15.3839 27.6339C14.8957 28.122 14.1043 28.122 13.6161 27.6339C13.128 27.1457 13.128 26.3543 13.6161 25.8661L23.1161 16.3661C23.6043 15.878 24.3957 15.878 24.8839 16.3661L34.3839 25.8661C34.872 26.3543 34.872 27.1457 34.3839 27.6339C33.8957 28.122 33.1043 28.122 32.6161 27.6339L24 19.0178L15.3839 27.6339Z" fill="#212121"/>
</svg>
