<svg width="24" height="24" viewBox="0 0 24 24" fill="none" xmlns="http://www.w3.org/2000/svg">
<path d="M2.21973 2.21973C2.51262 1.92684 2.98738 1.92684 3.28027 2.21973L21.7803 20.7197C22.073 21.0126 22.0729 21.4874 21.7803 21.7803C21.4874 22.0731 21.0126 22.073 20.7197 21.7803L17.9395 19H2.75C2.33581 19 2.00003 18.6642 2 18.25C2 17.8358 2.33579 17.5 2.75 17.5H16.4395L14.9395 16H6.25C5.00738 16 4.00003 14.9926 4 13.75V6.25C4 5.9029 4.08042 5.57491 4.2207 5.28125L2.21973 3.28028C1.92685 2.98739 1.92687 2.51262 2.21973 2.21973ZM17.75 4C18.9926 4 20 5.00736 20 6.25V13.75C20 14.5815 19.5478 15.3059 18.877 15.6953L7.18164 4H17.75Z" fill="#212121"/>
</svg>
