<svg width="24" height="24" viewBox="0 0 24 24" fill="none" xmlns="http://www.w3.org/2000/svg">
<path d="M15.75 13.5H11.75C11.7036 13.5 11.6583 13.4958 11.6142 13.4877C12.4823 14.5927 13 15.9859 13 17.5C13 19.2316 12.3229 20.805 11.2191 21.9699C11.4768 21.9899 11.7372 22 12 22C17.522 22 22 17.522 22 12C22 6.478 17.522 2 12 2C6.478 2 2 6.478 2 12C2 12.2628 2.01014 12.5232 2.03006 12.7809C3.19503 11.6771 4.76844 11 6.5 11C8.24775 11 9.8344 11.6898 11.0025 12.812C11.0009 12.7916 11 12.7709 11 12.75V6.75C11 6.336 11.336 6 11.75 6C12.164 6 12.5 6.336 12.5 6.75V12H15.75C16.164 12 16.5 12.336 16.5 12.75C16.5 13.164 16.164 13.5 15.75 13.5ZM12 17.5C12 20.5376 9.53757 23 6.5 23C3.46243 23 1 20.5376 1 17.5C1 14.4624 3.46243 12 6.5 12C9.53757 12 12 14.4624 12 17.5ZM4.5 14.5C4.22386 14.5 4 14.7239 4 15V20C4 20.2761 4.22386 20.5 4.5 20.5C4.77614 20.5 5 20.2761 5 20V15C5 14.7239 4.77614 14.5 4.5 14.5ZM8.5 14.5C8.22386 14.5 8 14.7239 8 15V20C8 20.2761 8.22386 20.5 8.5 20.5C8.77614 20.5 9 20.2761 9 20V15C9 14.7239 8.77614 14.5 8.5 14.5Z" fill="#212121"/>
</svg>
