<svg width="24" height="24" viewBox="0 0 24 24" fill="none" xmlns="http://www.w3.org/2000/svg">
<path d="M12 7.75C12 6.7835 12.7835 6 13.75 6H15.25C16.2165 6 17 6.7835 17 7.75V16.25C17 17.2165 16.2165 18 15.25 18H13.75C12.7835 18 12 17.2165 12 16.25V12.1198C11.9757 12.6708 11.6956 13.2117 11.1607 13.5368L4.65892 17.4886C3.4927 18.1974 2 17.3578 2 15.9931V8.00437C2 6.63217 3.50737 5.79381 4.67313 6.51765L11.1749 10.5547C11.7012 10.8815 11.9759 11.4174 12 11.9627V7.75ZM18 7.75C18 6.7835 18.7835 6 19.75 6H21.25C22.2165 6 23 6.7835 23 7.75V16.25C23 17.2165 22.2165 18 21.25 18H19.75C18.7835 18 18 17.2165 18 16.25V7.75Z" fill="#212121"/>
</svg>
