<svg width="20" height="20" viewBox="0 0 20 20" fill="none" xmlns="http://www.w3.org/2000/svg">
<path d="M10 6.5C10 5.67157 10.6716 5 11.5 5H12.5C13.3284 5 14 5.67157 14 6.5V13.5C14 14.3284 13.3284 15 12.5 15H11.5C10.6716 15 10 14.3284 10 13.5V6.5ZM11.5 6C11.2239 6 11 6.22386 11 6.5V13.5C11 13.7761 11.2239 14 11.5 14H12.5C12.7761 14 13 13.7761 13 13.5V6.5C13 6.22386 12.7761 6 12.5 6H11.5ZM15 6.5C15 5.67157 15.6716 5 16.5 5H17.5C18.3284 5 19 5.67157 19 6.5V13.5C19 14.3284 18.3284 15 17.5 15H16.5C15.6716 15 15 14.3284 15 13.5V6.5ZM16.5 6C16.2239 6 16 6.22386 16 6.5V13.5C16 13.7761 16.2239 14 16.5 14H17.5C17.7761 14 18 13.7761 18 13.5V6.5C18 6.22386 17.7761 6 17.5 6H16.5ZM3 6.50203C3 6.3042 3.21889 6.18475 3.38527 6.29179L8.88147 9.8279C9.03533 9.92689 9.03423 10.1522 8.87943 10.2497L3.38323 13.7111C3.21675 13.8159 3 13.6963 3 13.4995V6.50203ZM3.92633 5.45081C3.09446 4.9156 2 5.51287 2 6.50203V13.4995C2 14.4832 3.08373 15.0815 3.91613 14.5572L9.41233 11.0959C10.1864 10.6084 10.1918 9.48187 9.42253 8.98692L3.92633 5.45081Z" fill="#212121"/>
</svg>
