<svg width="24" height="24" viewBox="0 0 24 24" fill="none" xmlns="http://www.w3.org/2000/svg">
<path d="M7.42505 2.83052C7.60245 2.33254 8.07392 2 8.60256 2H15.0562C15.9094 2 16.5118 2.83587 16.242 3.64528L14.7905 8H18.7492C19.8534 8 20.4153 9.32682 19.647 10.1198L18.9752 10.8132C18.2426 9.64338 16.4113 9.73199 15.8682 11.1073L13.927 16.0235L8.586 21.536C7.53226 22.6236 5.71405 21.6422 6.04495 20.1645L7.31418 14.4964L5.74573 14.4904C4.53898 14.4858 3.69895 13.2899 4.10392 12.1532L7.42505 2.83052ZM18.1935 11.4745L21.9432 20.9704C22.0953 21.3557 21.9063 21.7913 21.521 21.9434C21.1679 22.0829 20.7724 21.9357 20.5917 21.6134L20.548 21.5213L19.55 18.996H15.44L14.4439 21.5213C14.3044 21.8745 13.9267 22.0627 13.568 21.9744L13.4708 21.9434C13.1177 21.804 12.9294 21.4263 13.0177 21.0676L13.0487 20.9704L16.7984 11.4745C16.8865 11.2512 17.0551 11.1067 17.2474 11.041C17.4245 10.9806 17.6216 10.9869 17.7944 11.0601C17.9344 11.1194 18.0584 11.2225 18.143 11.3695L18.1935 11.4745ZM16.032 17.496H18.958L17.495 13.791L16.032 17.496Z" fill="#212121"/>
</svg>
