<?xml version="1.0" encoding="UTF-8"?>
<svg width="12px" height="12px" viewBox="0 0 12 12" version="1.1" xmlns="http://www.w3.org/2000/svg" xmlns:xlink="http://www.w3.org/1999/xlink">
    <!-- Generator: Sketch 64 (93537) - https://sketch.com -->
    <title>ic_fluent_star_half_12_regular</title>
    <desc>Created with Sketch.</desc>
    <g id="ðŸ”-System-Icons" stroke="none" stroke-width="1" fill="none" fill-rule="evenodd">
        <g id="ic_fluent_star_half_12_regular" fill="#212121" fill-rule="nonzero">
            <path d="M6,1 C6.17832,1 6.35664,1.09292 6.44834,1.27872 L6.44834,1.27872 L7.80147,4.02045 L10.8272,4.46011 C11.2373,4.5197 11.401,5.02369 11.1043,5.31296 L11.1043,5.31296 L8.91485,7.4471 L9.4317,10.4606 C9.50175,10.869 9.07304,11.1805 8.70623,10.9877 L8.70623,10.9877 L5.99997,9.56489 L3.29371,10.9877 C2.9269,11.1805 2.49818,10.869 2.56824,10.4606 L2.56824,10.4606 L3.08509,7.4471 L0.895681,5.31296 C0.598923,5.02369 0.762678,4.5197 1.17279,4.46011 L1.17279,4.46011 L4.19847,4.02045 L5.5516,1.27872 C5.64331,1.0929 5.82166,1 6,1 Z M6,2.62984 L6,8.5 C6.07991,8.5 6.15982,8.51915 6.23264,8.55743 L6.23264,8.55743 L8.27483,9.63108 L7.88481,7.35707 C7.85699,7.19487 7.91076,7.02937 8.0286,6.9145 L8.0286,6.9145 L9.68077,5.30403 L7.39753,4.97226 C7.23468,4.9486 7.0939,4.84631 7.02106,4.69874 L7.02106,4.69874 L6,2.62984 Z" id="ðŸŽ¨-Color"></path>
        </g>
    </g>
</svg>