<svg width="16" height="16" viewBox="0 0 16 16" fill="none" xmlns="http://www.w3.org/2000/svg">
<path d="M10.839 9.53095C10.973 9.51095 11.11 9.49995 11.25 9.49995C12.767 9.49995 14.001 10.7329 14.001 12.2499C14.001 13.7669 12.768 14.9999 11.251 14.9999C9.73398 14.9999 8.50098 13.7669 8.50098 12.2499C8.50098 11.4179 8.87298 10.6709 9.45998 10.1659L8.00098 7.97695L6.54198 10.1659C7.12898 10.6699 7.50098 11.4169 7.50098 12.2499C7.50098 13.7669 6.26798 14.9999 4.75098 14.9999C3.23398 14.9999 2.00098 13.7669 2.00098 12.2499C2.00098 10.7329 3.23398 9.49995 4.75098 9.49995C4.88998 9.49995 5.02798 9.51095 5.16198 9.53095L7.09898 6.62495L4.12598 2.16595C3.89598 1.82095 3.98898 1.35595 4.33398 1.12595C4.67998 0.894949 5.14498 0.988949 5.37398 1.33395L10.839 9.53095ZM3.49998 12.2499C3.49998 12.9389 4.06098 13.4999 4.74998 13.4999V13.4989C5.43898 13.4989 5.99998 12.9379 5.99998 12.2489C5.99998 11.7329 5.68698 11.2899 5.23998 11.0989C5.21998 11.0919 5.19998 11.0849 5.18098 11.0759C5.04598 11.0269 4.90098 10.9999 4.74998 10.9999C4.06098 10.9999 3.49998 11.5609 3.49998 12.2499ZM9.99998 12.2499C9.99998 12.9389 10.561 13.4999 11.25 13.4999V13.5009C11.939 13.5009 12.5 12.9399 12.5 12.2509C12.5 11.5619 11.939 11.0009 11.25 11.0009C11.098 11.0009 10.953 11.0279 10.819 11.0769C10.8145 11.0787 10.8101 11.0805 10.8057 11.0823C10.7904 11.0885 10.7755 11.0945 10.76 11.0999C10.314 11.2909 9.99998 11.7339 9.99998 12.2499ZM11.666 1.12595C12.011 1.35595 12.103 1.82095 11.874 2.16595L9.80198 5.27295L8.90098 3.92095L10.626 1.33395C10.855 0.988949 11.32 0.894949 11.666 1.12595Z" fill="#212121"/>
</svg>
