<svg width="24" height="24" viewBox="0 0 24 24" fill="none" xmlns="http://www.w3.org/2000/svg">
<path d="M7.44057 4C6.57779 4 5.791 4.49336 5.41521 5.26999L2.72912 10.8212C3.19396 10.6147 3.70858 10.5 4.25 10.5H19.4127C19.8212 10.1693 20.3387 9.98799 20.8732 9.99928L18.5848 5.26999C18.209 4.49336 17.4222 4 16.5594 4H7.44057ZM4.25 12H18.5091L18.2624 12.6249C17.9474 13.4225 18.1242 14.3311 18.7153 14.9528L19.3097 15.578C19.1916 16.2474 18.8818 16.7849 18.3623 17.2221L17.5244 17.0189C16.6918 16.8169 15.8183 17.1175 15.2863 17.7891L14.4863 18.7989C14.4347 18.864 14.3873 18.9311 14.344 19H4.25C3.00736 19 2 17.9926 2 16.75V14.25C2 13.0074 3.00736 12 4.25 12ZM19.1924 12.9949L19.6679 11.7903C19.9104 11.1758 20.5886 10.8568 21.2161 11.0622L21.6472 11.2032C22.3714 11.4402 22.9726 12.0093 22.997 12.7719C23.0962 15.8829 20.5215 20.3545 17.7841 21.827C17.1109 22.1892 16.3158 21.9496 15.7485 21.4358L15.4118 21.1308C14.9231 20.6881 14.8611 19.9417 15.2702 19.4251L16.0701 18.4149C16.3603 18.0484 16.8368 17.8844 17.2909 17.9946L18.5822 18.308C19.6853 17.578 20.2765 16.5517 20.3557 15.2292L19.4395 14.2652C19.117 13.926 19.0206 13.4301 19.1924 12.9949Z" fill="#212121"/>
</svg>
