<svg width="20" height="20" viewBox="0 0 20 20" fill="none" xmlns="http://www.w3.org/2000/svg">
<path d="M4.5 3C3.11929 3 2 4.11929 2 5.5V14.5C2 15.8807 3.11929 17 4.5 17H12.5016C11.8268 17 11.289 16.5673 11.0867 16H4.5C3.67157 16 3 15.3284 3 14.5V8H7.08579C7.48361 8 7.86514 7.84196 8.14645 7.56066L9.70711 6H15.5C16.3284 6 17 6.67157 17 7.5V9H18V7.5C18 6.11929 16.8807 5 15.5 5H9.70711L8.21967 3.51256C7.89148 3.18437 7.44636 3 6.98223 3H4.5ZM3 5.5C3 4.67157 3.67157 4 4.5 4H6.98223C7.18115 4 7.37191 4.07902 7.51256 4.21967L8.79289 5.5L7.43934 6.85355C7.34557 6.94732 7.21839 7 7.08579 7H3V5.5ZM12.502 16H14.252L13.6622 18.3592C13.5414 18.8424 14.1243 19.1859 14.4884 18.846L19.361 14.2983C19.8586 13.8338 19.5299 13 18.8492 13H17.752L18.5326 10.6581C18.6405 10.3343 18.3996 10 18.0583 10H14.5853C14.3835 10 14.2014 10.1214 14.1238 10.3077L12.0404 15.3077C11.9032 15.637 12.1452 16 12.502 16Z" fill="#212121"/>
</svg>
