<svg width="16" height="16" viewBox="0 0 16 16" fill="none" xmlns="http://www.w3.org/2000/svg">
<path d="M2 4.5V6H5.58579C5.71839 6 5.84557 5.94732 5.93934 5.85355L7.29289 4.5L5.93934 3.14645C5.84557 3.05268 5.71839 3 5.58579 3H3.5C2.67157 3 2 3.67157 2 4.5ZM1 4.5C1 3.11929 2.11929 2 3.5 2H5.58579C5.98361 2 6.36514 2.15804 6.64645 2.43934L8.20711 4H12.5C13.8227 4 14.9054 5.02715 14.9941 6.3273C14.7409 6.12411 14.418 6 14.0578 6H13.9146C13.7087 5.4174 13.1531 5 12.5 5H8.20711L6.64645 6.56066C6.36514 6.84197 5.98361 7 5.58579 7H2V11.5C2 12.3284 2.67157 13 3.5 13H7.08668C7.289 13.5673 7.82685 14 8.50156 14H3.5C2.11929 14 1 12.8807 1 11.5V4.5ZM8.50198 13H10.252L9.66218 15.3592C9.54138 15.8424 10.1243 16.1859 10.4884 15.846L15.361 11.2983C15.8586 10.8338 15.5299 10 14.8492 10H13.752L14.5326 7.65811C14.6405 7.33435 14.3996 7 14.0583 7H10.5853C10.3835 7 10.2014 7.12137 10.1238 7.30769L8.04045 12.3077C7.90322 12.637 8.1452 13 8.50198 13Z" fill="#242424"/>
</svg>
