<svg width="28" height="28" viewBox="0 0 28 28" fill="none" xmlns="http://www.w3.org/2000/svg">
<path d="M3 5.75C3 4.23122 4.23122 3 5.75 3H9.25C9.66421 3 10 3.33579 10 3.75C10 4.16421 9.66421 4.5 9.25 4.5H5.75C5.05964 4.5 4.5 5.05964 4.5 5.75V9.25C4.5 9.66421 4.16421 10 3.75 10C3.33579 10 3 9.66421 3 9.25V5.75ZM18 3.75C18 3.33579 18.3358 3 18.75 3H22.25C23.7688 3 25 4.23122 25 5.75V9.25C25 9.66421 24.6642 10 24.25 10C23.8358 10 23.5 9.66421 23.5 9.25V5.75C23.5 5.05964 22.9404 4.5 22.25 4.5H18.75C18.3358 4.5 18 4.16421 18 3.75ZM3.75 18C4.16421 18 4.5 18.3358 4.5 18.75V22.25C4.5 22.9404 5.05964 23.5 5.75 23.5H9.25C9.66421 23.5 10 23.8358 10 24.25C10 24.6642 9.66421 25 9.25 25H5.75C4.23122 25 3 23.7688 3 22.25V18.75C3 18.3358 3.33579 18 3.75 18ZM24.25 18C24.6642 18 25 18.3358 25 18.75V22.25C25 23.7688 23.7688 25 22.25 25H18.75C18.3358 25 18 24.6642 18 24.25C18 23.8358 18.3358 23.5 18.75 23.5H22.25C22.9404 23.5 23.5 22.9404 23.5 22.25V18.75C23.5 18.3358 23.8358 18 24.25 18Z" fill="#212121"/>
</svg>
