<svg width="12" height="12" viewBox="0 0 12 12" fill="none" xmlns="http://www.w3.org/2000/svg">
<path d="M5.5 4.93699C4.63739 4.71497 4 3.93192 4 3C4 1.89543 4.89543 1 6 1C7.10457 1 8 1.89543 8 3C8 3.93192 7.36261 4.71497 6.5 4.93699V6H8.5C9.05228 6 9.5 6.44772 9.5 7V8.06301C10.3626 8.28503 11 9.06808 11 10C11 11.1046 10.1046 12 9 12C7.89543 12 7 11.1046 7 10C7 9.06808 7.63739 8.28503 8.5 8.06301V7H3.5V8.06301C4.36261 8.28503 5 9.06808 5 10C5 11.1046 4.10457 12 3 12C1.89543 12 1 11.1046 1 10C1 9.06808 1.63739 8.28503 2.5 8.06301V7C2.5 6.44772 2.94772 6 3.5 6H5.5V4.93699Z" fill="#212121"/>
</svg>
