<svg width="32" height="32" viewBox="0 0 32 32" fill="none" xmlns="http://www.w3.org/2000/svg">
<path d="M2 16C2 19.3137 4.68629 22 8 22H24C27.3137 22 30 19.3137 30 16C30 12.6863 27.3137 10 24 10C23.9794 10 23.9587 10.0001 23.9381 10.0003C23.4462 6.05385 20.0797 3 16 3C11.9203 3 8.55381 6.05385 8.06185 10.0003C8.04126 10.0001 8.02064 10 8 10C4.68629 10 2 12.6863 2 16Z" fill="url(#paint0_linear_378174_10286)"/>
<path d="M14 16C14 19.3137 11.3137 22 8 22C4.68629 22 2 19.3137 2 16C2 12.6863 4.68629 10 8 10C11.3137 10 14 12.6863 14 16Z" fill="url(#paint1_linear_378174_10286)" fill-opacity="0.3"/>
<path d="M16 19C20.4183 19 24 15.4183 24 11C24 6.58172 20.4183 3 16 3C11.9202 3 8.55379 6.05385 8.06183 10.0003C11.347 10.0335 14 12.7069 14 16C14 16.9217 13.7922 17.7948 13.4208 18.5751C14.23 18.8506 15.0976 19 16 19Z" fill="url(#paint2_linear_378174_10286)" fill-opacity="0.3"/>
<path d="M16 19C20.4183 19 24 15.4183 24 11C24 6.58172 20.4183 3 16 3C11.9202 3 8.55379 6.05385 8.06183 10.0003C11.347 10.0335 14 12.7069 14 16C14 16.9217 13.7922 17.7948 13.4208 18.5751C14.23 18.8506 15.0976 19 16 19Z" fill="url(#paint3_radial_378174_10286)"/>
<path d="M2 16C2 19.3137 4.68629 22 8 22H24C27.3137 22 30 19.3137 30 16C30 12.6863 27.3137 10 24 10C23.9794 10 23.9587 10.0001 23.9381 10.0003C23.4462 6.05385 20.0797 3 16 3C11.9203 3 8.55381 6.05385 8.06185 10.0003C8.04126 10.0001 8.02064 10 8 10C4.68629 10 2 12.6863 2 16Z" fill="url(#paint4_radial_378174_10286)" fill-opacity="0.5"/>
<path d="M2 16C2 19.3137 4.68629 22 8 22H24C27.3137 22 30 19.3137 30 16C30 12.6863 27.3137 10 24 10C23.9794 10 23.9587 10.0001 23.9381 10.0003C23.4462 6.05385 20.0797 3 16 3C11.9203 3 8.55381 6.05385 8.06185 10.0003C8.04126 10.0001 8.02064 10 8 10C4.68629 10 2 12.6863 2 16Z" fill="url(#paint5_radial_378174_10286)" fill-opacity="0.5"/>
<path d="M22.5 15C26.6421 15 30 18.3579 30 22.5C30 26.6421 26.6421 30 22.5 30C18.3579 30 15 26.6421 15 22.5C15 18.3579 18.3579 15 22.5 15Z" fill="url(#paint6_linear_378174_10286)"/>
<path fill-rule="evenodd" clip-rule="evenodd" d="M18.7197 18.7197C19.0126 18.4268 19.4874 18.4268 19.7803 18.7197L22.5 21.4393L25.2197 18.7197C25.5126 18.4268 25.9874 18.4268 26.2803 18.7197C26.5732 19.0126 26.5732 19.4874 26.2803 19.7803L23.5607 22.5L26.2803 25.2197C26.5732 25.5126 26.5732 25.9874 26.2803 26.2803C25.9874 26.5732 25.5126 26.5732 25.2197 26.2803L22.5 23.5607L19.7803 26.2803C19.4874 26.5732 19.0126 26.5732 18.7197 26.2803C18.4268 25.9874 18.4268 25.5126 18.7197 25.2197L21.4393 22.5L18.7197 19.7803C18.4268 19.4874 18.4268 19.0126 18.7197 18.7197Z" fill="url(#paint7_linear_378174_10286)"/>
<defs>
<linearGradient id="paint0_linear_378174_10286" x1="3" y1="6.5625" x2="15.0151" y2="24.9589" gradientUnits="userSpaceOnUse">
<stop stop-color="#0FAFFF"/>
<stop offset="1" stop-color="#367AF2"/>
</linearGradient>
<linearGradient id="paint1_linear_378174_10286" x1="2" y1="12.0556" x2="10.0896" y2="19.2154" gradientUnits="userSpaceOnUse">
<stop stop-color="white"/>
<stop offset="1" stop-color="#FCFCFC" stop-opacity="0"/>
</linearGradient>
<linearGradient id="paint2_linear_378174_10286" x1="10.8247" y1="3.9" x2="12.9424" y2="14.9307" gradientUnits="userSpaceOnUse">
<stop stop-color="white"/>
<stop offset="1" stop-color="#FCFCFC" stop-opacity="0"/>
</linearGradient>
<radialGradient id="paint3_radial_378174_10286" cx="0" cy="0" r="1" gradientUnits="userSpaceOnUse" gradientTransform="translate(8.68578 16.1) rotate(-22.9281) scale(9.7542 8.72021)">
<stop offset="0.412409" stop-color="#2C87F5"/>
<stop offset="1" stop-color="#2C87F5" stop-opacity="0"/>
</radialGradient>
<radialGradient id="paint4_radial_378174_10286" cx="0" cy="0" r="1" gradientUnits="userSpaceOnUse" gradientTransform="translate(14.8333 1.8125) rotate(62.8585) scale(23.6561 173.962)">
<stop offset="0.5" stop-color="#DD3CE2" stop-opacity="0"/>
<stop offset="1" stop-color="#DD3CE2"/>
</radialGradient>
<radialGradient id="paint5_radial_378174_10286" cx="0" cy="0" r="1" gradientUnits="userSpaceOnUse" gradientTransform="translate(22.5 24.5) rotate(90) scale(11 11.1447)">
<stop offset="0.288462" stop-color="#0D1F69"/>
<stop offset="1" stop-color="#0D1F69" stop-opacity="0"/>
</radialGradient>
<linearGradient id="paint6_linear_378174_10286" x1="17.3437" y1="15.9375" x2="28.75" y2="32.5" gradientUnits="userSpaceOnUse">
<stop stop-color="#F83F54"/>
<stop offset="1" stop-color="#CA2134"/>
</linearGradient>
<linearGradient id="paint7_linear_378174_10286" x1="19.454" y1="22.8046" x2="23.0428" y2="26.5364" gradientUnits="userSpaceOnUse">
<stop stop-color="#FDFDFD"/>
<stop offset="1" stop-color="#FECBE6"/>
</linearGradient>
</defs>
</svg>
