<svg width="20" height="20" viewBox="0 0 20 20" fill="none" xmlns="http://www.w3.org/2000/svg">
<path d="M10 2C5.58172 2 2 5.58172 2 10C2 14.4183 5.58172 18 10 18C14.4183 18 18 14.4183 18 10C18 5.58172 14.4183 2 10 2ZM3 10C3 8.39683 3.53893 6.91954 4.44551 5.73941L7.26908 13H3.67363C3.24169 12.0907 3 11.0736 3 10ZM8.74926 16.8886L12.5449 12.4029C12.6328 12.3097 12.7157 12.2118 12.7931 12.1095L13.6305 11.1198L15.4055 14.4478C14.1216 16.0063 12.1769 17 10 17C9.57308 17 9.15509 16.9618 8.74926 16.8886ZM7.67852 16.6059C6.28132 16.1149 5.08692 15.1931 4.25469 14H9.88348L7.67852 16.6059ZM11.8006 11.7343C11.3459 12.2063 10.7072 12.5 10 12.5C8.61929 12.5 7.5 11.3807 7.5 10C7.5 8.61929 8.61929 7.5 10 7.5C11.3807 7.5 12.5 8.61929 12.5 10C12.5 10.5569 12.3179 11.0713 12.01 11.4869L11.8006 11.7343ZM11.6041 3.18467C13.5071 3.63084 15.111 4.85343 16.0635 6.5H9.05389L11.6041 3.18467ZM17 10C17 11.2862 16.6531 12.4914 16.0478 13.5271L12.8333 7.5H16.5404C16.8373 8.2764 17 9.1192 17 10ZM10.4725 3.01569L6.47846 8.20795L5.19556 4.90907C6.44921 3.72554 8.13987 3 10 3C10.1588 3 10.3163 3.00529 10.4725 3.01569Z" fill="#212121"/>
</svg>
