<svg width="20" height="20" viewBox="0 0 20 20" fill="none" xmlns="http://www.w3.org/2000/svg">
<path d="M4.9785 7.12303C5.40652 7.12305 5.78453 7.33449 6.0156 7.65819L6.02146 7.65916L6.65232 8.63573C7.47433 9.90922 7.82501 11.4306 7.6445 12.9355L7.45993 14.4736C7.45484 14.5162 7.45343 14.5574 7.45603 14.5967C7.45461 14.629 7.45214 14.6617 7.45212 14.6943C7.45218 15.92 8.37378 16.9281 9.56149 17.0693C6.56953 19.6085 1.84052 16.5474 3.25975 12.6143L3.71385 11.3564C4.01867 10.5113 4.02874 9.58905 3.74608 8.73827L3.75292 8.7412C3.72222 8.63165 3.7041 8.51582 3.70409 8.39647C3.70443 7.69309 4.2751 7.12326 4.9785 7.12303ZM15.4277 6.25584C19.073 7.56909 18.8384 13.172 14.7236 13.9326L13.7675 14.1094C12.9022 14.2693 11.7437 14.71 11.1543 15.3633L10.8984 15.6465C10.6761 15.8576 10.3767 15.9883 10.0459 15.9883C9.36011 15.9881 8.80374 15.4319 8.80368 14.7461C8.80377 14.5615 8.8447 14.3861 8.91696 14.2285L9.44625 13.2773C10.1407 12.0275 11.2284 11.0411 12.54 10.4717L13.9824 9.84569C14.9848 9.49068 15.703 8.53748 15.7031 7.41307C15.703 6.99668 15.6026 6.60412 15.4277 6.25584ZM3.14159 7.00877C2.0902 3.06888 7.14255 0.18796 9.99215 3.34665L11.1543 4.63474C11.7315 5.27461 12.8548 5.70897 13.7138 5.87693C14.2822 6.06251 14.6931 6.5962 14.6933 7.22655C14.6932 7.99175 14.0878 8.61319 13.33 8.64354L13.3281 8.65038L12.1318 8.70409C10.7031 8.76727 9.29325 8.35819 8.12106 7.53905L6.90427 6.68846C6.45043 6.26039 5.84033 5.99609 5.16697 5.99607C4.3382 5.99629 3.60363 6.39402 3.14159 7.00877Z" fill="#212121"/>
</svg>
