<svg width="48" height="48" viewBox="0 0 48 48" fill="none" xmlns="http://www.w3.org/2000/svg">
<path d="M10.8491 16.6572C11.9078 16.6573 12.8473 17.1649 13.4399 17.9491L15.2329 20.7265C17.2561 23.8612 18.1197 27.605 17.6753 31.3094L17.1831 35.4158C17.1703 35.5228 17.1677 35.6257 17.1743 35.7244C17.1694 35.8235 17.1645 35.923 17.1645 36.0233C17.1648 39.0567 19.393 41.5701 22.3023 42.0144C14.5754 47.828 3.06004 39.9671 6.68891 30.0643L7.60591 27.5624C8.40699 25.3763 8.4453 22.9855 7.7231 20.7792C7.64529 20.5007 7.602 20.2075 7.602 19.9042C7.60206 18.111 9.05581 16.6572 10.8491 16.6572ZM37.5269 14.3925C46.7657 17.8477 46.1152 32.2225 35.5757 34.1405L34.396 34.3543C32.2 34.7539 28.1942 35.8633 26.6822 37.5135L25.6421 38.6482C25.0809 39.2102 24.3076 39.5602 23.4507 39.5603C21.7372 39.5601 20.3483 38.1713 20.3481 36.4578C20.3482 35.9683 20.4635 35.5062 20.6655 35.0945L22.2749 32.1991C23.9843 29.122 26.6604 26.6937 29.8892 25.2919L34.0982 23.4647C36.5001 22.4438 38.1861 20.0654 38.1861 17.2909C38.186 16.2525 37.9483 15.2699 37.5269 14.3925ZM6.36079 16.8905C3.69411 6.8177 16.4953 -0.633396 23.8472 7.39158L26.6822 10.4863C27.9121 11.8286 30.7926 12.812 33.0064 13.3476C34.5616 13.7951 35.7006 15.2257 35.7007 16.9247C35.7007 18.8271 34.2737 20.3946 32.4322 20.62L28.8482 20.7792C25.3315 20.9347 21.8615 19.9264 18.9761 17.9101L15.1089 15.2079C15.0946 15.1979 15.0793 15.189 15.0649 15.1796C14.0665 14.5108 12.8659 14.1202 11.5737 14.1201C9.40414 14.1201 7.4905 15.2189 6.36079 16.8905Z" fill="#212121"/>
</svg>
