<svg width="32" height="32" viewBox="0 0 32 32" fill="none" xmlns="http://www.w3.org/2000/svg">
<path d="M3 16C3 8.8203 8.8203 3 16 3C23.1797 3 29 8.8203 29 16C29 23.1797 23.1797 29 16 29C8.8203 29 3 23.1797 3 16ZM16 2C8.26801 2 2 8.26801 2 16C2 23.732 8.26801 30 16 30C23.732 30 30 23.732 30 16C30 8.26801 23.732 2 16 2ZM22.8536 12.3536C23.0488 12.1583 23.0488 11.8417 22.8536 11.6464C22.6583 11.4512 22.3417 11.4512 22.1464 11.6464L14.5 19.2929L10.8536 15.6464C10.6583 15.4512 10.3417 15.4512 10.1464 15.6464C9.95118 15.8417 9.95118 16.1583 10.1464 16.3536L14.1464 20.3536C14.3417 20.5488 14.6583 20.5488 14.8536 20.3536L22.8536 12.3536Z" fill="#212121"/>
</svg>
