<svg width="28" height="28" viewBox="0 0 28 28" fill="none" xmlns="http://www.w3.org/2000/svg">
<path d="M25 9.5V16.2684C24.9251 16.3122 24.8516 16.3616 24.7798 16.4168L23.8682 17.118C23.4916 15.8916 22.3499 15 21 15H16C14.3431 15 13 16.3431 13 18V25H6.25C4.45507 25 3 23.5449 3 21.75V9.5H25ZM21.75 3C23.5449 3 25 4.45507 25 6.25V8H3V6.25C3 4.45507 4.45507 3 6.25 3H21.75ZM16 16C14.8954 16 14 16.8954 14 18V25C14 26.1046 14.8954 27 16 27H21C22.1046 27 23 26.1046 23 25V23.9555L25.3895 25.7936C26.0471 26.2994 26.9992 25.8306 26.9992 25.0009V18.0021C26.9992 17.1724 26.0471 16.7036 25.3895 17.2094L23 19.0475V18C23 16.8954 22.1046 16 21 16H16Z" fill="#212121"/>
</svg>
