<svg width="28" height="28" viewBox="0 0 28 28" fill="none" xmlns="http://www.w3.org/2000/svg">
<path d="M1.25 5C1.25 2.92893 2.92893 1.25 5 1.25H15C17.0711 1.25 18.75 2.92893 18.75 5H1.25ZM1.25 6.5V15C1.25 17.0711 2.92893 18.75 5 18.75H7V16.25C7 13.9028 8.90279 12 11.25 12H18.75V6.5H1.25ZM11.75 13C9.67893 13 8 14.6789 8 16.75V23.25C8 25.3211 9.67893 27 11.75 27H18.25C20.3173 27 21.9939 25.3272 22 23.2613L25.2506 25.5226C26.411 26.3298 28 25.4995 28 24.086V15.9137C28 14.5002 26.4109 13.6699 25.2506 14.4771L22 16.7384C21.9937 14.6727 20.3172 13 18.25 13H11.75Z" fill="#212121"/>
</svg>
