<svg width="16" height="16" viewBox="0 0 16 16" fill="none" xmlns="http://www.w3.org/2000/svg">
<path d="M7 2H8V4.5H7V2Z" fill="#70777D"/>
<path d="M7 1.5C7 1.22386 7.22386 1 7.5 1H9.5C9.77614 1 10 1.22386 10 1.5V2.5C10 2.77614 9.77614 3 9.5 3H7.5C7.22386 3 7 2.77614 7 2.5V1.5Z" fill="#F83F54"/>
<path d="M4 8C4 5.79086 5.79086 4 8 4C10.2091 4 12 5.79086 12 8V9.5H4V8Z" fill="url(#paint0_linear_72095_10247)"/>
<path d="M4 8C4 5.79086 5.79086 4 8 4C10.2091 4 12 5.79086 12 8V9.5H4V8Z" fill="url(#paint1_radial_72095_10247)"/>
<path d="M1 10.5C1 9.67157 1.67157 9 2.5 9H13.5C14.3284 9 15 9.67157 15 10.5V14.5C15 14.7761 14.7761 15 14.5 15H1.5C1.22386 15 1 14.7761 1 14.5V10.5Z" fill="url(#paint2_linear_72095_10247)"/>
<path d="M1 10.5C1 9.67157 1.67157 9 2.5 9H13.5C14.3284 9 15 9.67157 15 10.5V14.5C15 14.7761 14.7761 15 14.5 15H1.5C1.22386 15 1 14.7761 1 14.5V10.5Z" fill="url(#paint3_radial_72095_10247)" fill-opacity="0.6"/>
<path d="M6.5 12C6.5 11.4477 6.94772 11 7.5 11H8.5C9.05228 11 9.5 11.4477 9.5 12V15H6.5V12Z" fill="#55595E"/>
<path d="M4.5 11C4.77614 11 5 11.2239 5 11.5V12.5C5 12.7761 4.77614 13 4.5 13C4.22386 13 4 12.7761 4 12.5V11.5C4 11.2239 4.22386 11 4.5 11ZM12 11.5C12 11.2239 11.7761 11 11.5 11C11.2239 11 11 11.2239 11 11.5V12.5C11 12.7761 11.2239 13 11.5 13C11.7761 13 12 12.7761 12 12.5V11.5Z" fill="#63686E"/>
<path d="M9.5 6C9.77614 6 10 6.22386 10 6.5V7.5C10 7.77614 9.77614 8 9.5 8C9.22386 8 9 7.77614 9 7.5V6.5C9 6.22386 9.22386 6 9.5 6ZM6.5 6C6.77614 6 7 6.22386 7 6.5V7.5C7 7.77614 6.77614 8 6.5 8C6.22386 8 6 7.77614 6 7.5V6.5C6 6.22386 6.22386 6 6.5 6Z" fill="#CA6407"/>
<defs>
<linearGradient id="paint0_linear_72095_10247" x1="8" y1="4" x2="8" y2="9.5" gradientUnits="userSpaceOnUse">
<stop stop-color="#FFC205"/>
<stop offset="0.735" stop-color="#FFA43D"/>
<stop offset="1" stop-color="#E67505"/>
</linearGradient>
<radialGradient id="paint1_radial_72095_10247" cx="0" cy="0" r="1" gradientUnits="userSpaceOnUse" gradientTransform="translate(10.8 4.84615) rotate(90) scale(2.96154 4.26938)">
<stop stop-color="#FFD638"/>
<stop offset="1" stop-color="#FFD638" stop-opacity="0"/>
</radialGradient>
<linearGradient id="paint2_linear_72095_10247" x1="6.46875" y1="9" x2="12.6753" y2="15.6635" gradientUnits="userSpaceOnUse">
<stop stop-color="#AAB3BD"/>
<stop offset="1" stop-color="#889096"/>
</linearGradient>
<radialGradient id="paint3_radial_72095_10247" cx="0" cy="0" r="1" gradientUnits="userSpaceOnUse" gradientTransform="translate(14.125 9) rotate(97.2719) scale(3.45637 7.92075)">
<stop stop-color="#FFB357"/>
<stop offset="1" stop-color="#FFB357" stop-opacity="0"/>
</radialGradient>
</defs>
</svg>
