<svg width="32" height="32" viewBox="0 0 32 32" fill="none" xmlns="http://www.w3.org/2000/svg">
<path d="M7 4H18.75C19.4404 4 20 4.55964 20 5.25V14C20 14.5523 20.4477 15 21 15H24.75C25.4404 15 26 15.5596 26 16.25V28H23V24.5C23 23.6716 22.3284 23 21.5 23H10.5C9.67157 23 9 23.6716 9 24.5V28H6V5C6 4.44772 6.44772 4 7 4ZM21 28H17V25H21V28ZM15 28H11V25H15V28ZM27 30C27.5523 30 28 29.5523 28 29V16.25C28 14.4551 26.5449 13 24.75 13H22V5.25C22 3.45507 20.5449 2 18.75 2H7C5.34315 2 4 3.34315 4 5V29C4 29.5523 4.44772 30 5 30H27ZM10.5 10C11.3284 10 12 9.32843 12 8.5C12 7.67157 11.3284 7 10.5 7C9.67157 7 9 7.67157 9 8.5C9 9.32843 9.67157 10 10.5 10ZM10.5 15C11.3284 15 12 14.3284 12 13.5C12 12.6716 11.3284 12 10.5 12C9.67157 12 9 12.6716 9 13.5C9 14.3284 9.67157 15 10.5 15ZM12 18.5C12 19.3284 11.3284 20 10.5 20C9.67157 20 9 19.3284 9 18.5C9 17.6716 9.67157 17 10.5 17C11.3284 17 12 17.6716 12 18.5ZM15.5 10C16.3284 10 17 9.32843 17 8.5C17 7.67157 16.3284 7 15.5 7C14.6716 7 14 7.67157 14 8.5C14 9.32843 14.6716 10 15.5 10ZM17 13.5C17 14.3284 16.3284 15 15.5 15C14.6716 15 14 14.3284 14 13.5C14 12.6716 14.6716 12 15.5 12C16.3284 12 17 12.6716 17 13.5ZM15.5 20C16.3284 20 17 19.3284 17 18.5C17 17.6716 16.3284 17 15.5 17C14.6716 17 14 17.6716 14 18.5C14 19.3284 14.6716 20 15.5 20ZM22 18.5C22 19.3284 21.3284 20 20.5 20C19.6716 20 19 19.3284 19 18.5C19 17.6716 19.6716 17 20.5 17C21.3284 17 22 17.6716 22 18.5Z" fill="#212121"/>
</svg>
