<svg width="24" height="24" viewBox="0 0 24 24" fill="none" xmlns="http://www.w3.org/2000/svg">
<path d="M6.25 3C4.45507 3 3 4.45507 3 6.25V17.75C3 19.5449 4.45507 21 6.25 21H12.0218C11.375 19.9897 11 18.7886 11 17.5C11 13.9101 13.9101 11 17.5 11C18.7886 11 19.9897 11.375 21 12.0218V6.25C21 4.45507 19.5449 3 17.75 3H6.25ZM8 7.5C7.72386 7.5 7.5 7.72386 7.5 8V10.25C7.5 10.6642 7.16421 11 6.75 11C6.33579 11 6 10.6642 6 10.25V8C6 6.89543 6.89543 6 8 6H10.25C10.6642 6 11 6.33579 11 6.75C11 7.16421 10.6642 7.5 10.25 7.5H8ZM7.5 16C7.5 16.2761 7.72386 16.5 8 16.5H10.25C10.6642 16.5 11 16.8358 11 17.25C11 17.6642 10.6642 18 10.25 18H8C6.89543 18 6 17.1046 6 16V13.75C6 13.3358 6.33579 13 6.75 13C7.16421 13 7.5 13.3358 7.5 13.75V16ZM16 7.5H13.75C13.3358 7.5 13 7.16421 13 6.75C13 6.33579 13.3358 6 13.75 6H16C17.1046 6 18 6.89543 18 8V10.25C18 10.6642 17.6642 11 17.25 11C16.8358 11 16.5 10.6642 16.5 10.25V8C16.5 7.72386 16.2761 7.5 16 7.5ZM17.5 13.5C19.7091 13.5 21.5 15.2909 21.5 17.5C21.5 19.7091 19.7091 21.5 17.5 21.5C15.2909 21.5 13.5 19.7091 13.5 17.5C13.5 15.2909 15.2909 13.5 17.5 13.5ZM17.5 23C20.5376 23 23 20.5376 23 17.5C23 14.4624 20.5376 12 17.5 12C14.4624 12 12 14.4624 12 17.5C12 20.5376 14.4624 23 17.5 23ZM20 17.5C20 18.8807 18.8807 20 17.5 20C16.1193 20 15 18.8807 15 17.5C15 16.1193 16.1193 15 17.5 15C18.8807 15 20 16.1193 20 17.5Z" fill="#212121"/>
</svg>
