<svg width="28" height="28" viewBox="0 0 28 28" fill="none" xmlns="http://www.w3.org/2000/svg">
<path d="M10.0233 3.00037C10.3667 3.01105 10.6589 3.25366 10.7326 3.5892L14.6378 21.3798L18.7862 8.51975C18.8881 8.20393 19.1854 7.9926 19.5172 8.0002C19.8489 8.0078 20.1363 8.23251 20.2236 8.55267L21.5728 13.5H25.25C25.6642 13.5 26 13.8358 26 14.25C26 14.6642 25.6642 15 25.25 15H21C20.6618 15 20.3654 14.7736 20.2764 14.4473L19.4398 11.3797L15.2138 24.4803C15.1098 24.8027 14.8025 25.0154 14.464 24.9991C14.1256 24.9829 13.8401 24.7418 13.7674 24.4108L9.90466 6.81372L7.72114 14.456C7.62915 14.778 7.33486 15 7 15H2.75C2.33579 15 2 14.6642 2 14.25C2 13.8358 2.33579 13.5 2.75 13.5H6.43427L9.27886 3.54396C9.37323 3.21365 9.67996 2.98968 10.0233 3.00037Z" fill="#212121"/>
</svg>
