<svg width="29" height="28" viewBox="0 0 29 28" fill="none" xmlns="http://www.w3.org/2000/svg">
<path d="M10.4511 3.00062C10.9054 3.01656 11.2918 3.33696 11.3916 3.78049L15.1032 20.2763L18.9673 8.68378C19.1 8.28567 19.4672 8.01276 19.8866 8.00044C20.3061 7.98811 20.6886 8.23899 20.8445 8.62862L22.5931 13.0001H25.416C25.9683 13.0001 26.416 13.4478 26.416 14.0001C26.416 14.5524 25.9683 15.0001 25.416 15.0001H21.916C21.5071 15.0001 21.1394 14.7512 20.9875 14.3715L20.0014 11.9061L15.8647 24.3162C15.7227 24.7422 15.3142 25.0213 14.8658 24.9987C14.4174 24.9762 14.039 24.6576 13.9404 24.2195L10.2777 7.94104L8.37384 14.2875C8.24695 14.7105 7.85763 15.0001 7.41602 15.0001H3.41602C2.86373 15.0001 2.41602 14.5524 2.41602 14.0001C2.41602 13.4478 2.86373 13.0001 3.41602 13.0001H6.67198L9.45819 3.71266C9.58882 3.27721 9.99674 2.98468 10.4511 3.00062Z" fill="#212121"/>
</svg>
