<svg width="25" height="24" viewBox="0 0 25 24" fill="none" xmlns="http://www.w3.org/2000/svg">
<path d="M8.87839 6.80905L12.162 20.426C12.3396 21.1626 13.373 21.2011 13.6051 20.4798L16.8617 10.3575L17.4478 12.4532C17.5384 12.7772 17.8337 13.0012 18.1701 13.0012H21.6637C22.0779 13.0012 22.4137 12.6654 22.4137 12.2512C22.4137 11.837 22.0779 11.5012 21.6637 11.5012H18.7391L17.6342 7.55053C17.4339 6.83439 16.4257 6.81496 16.1979 7.52284L12.9946 17.4797L9.64133 3.57419C9.4588 2.81728 8.38641 2.80542 8.18719 3.5581L6.08484 11.5012H3.16602C2.7518 11.5012 2.41602 11.837 2.41602 12.2512C2.41602 12.6654 2.7518 13.0012 3.16602 13.0012H6.66216C7.00247 13.0012 7.30012 12.7721 7.38719 12.4431L8.87839 6.80905Z" fill="#212121"/>
</svg>
