<svg width="20" height="20" viewBox="0 0 20 20" fill="none" xmlns="http://www.w3.org/2000/svg">
<path d="M8.50024 5C8.2241 5 8.00024 5.22386 8.00024 5.5C8.00024 5.77614 8.2241 6 8.50024 6H11.5002C11.7764 6 12.0002 5.77614 12.0002 5.5C12.0002 5.22386 11.7764 5 11.5002 5H8.50024ZM3.00024 6C3.00024 4.34315 4.34339 3 6.00024 3H14.0002C15.6571 3 17.0002 4.34315 17.0002 6V14C17.0002 15.5492 15.8259 16.8242 14.3188 16.9833L16.7034 18.0431C16.9558 18.1552 17.0694 18.4507 16.9573 18.7031C16.8451 18.9554 16.5496 19.0691 16.2973 18.9569L11.8942 17H8.10624L3.70319 18.9569C3.45085 19.0691 3.15537 18.9554 3.04322 18.7031C2.93107 18.4507 3.04471 18.1552 3.29706 18.0431L5.68164 16.9833C4.17457 16.8242 3.00024 15.5492 3.00024 14V6ZM4.00024 6V11H16.0002V6C16.0002 4.89543 15.1048 4 14.0002 4H6.00024C4.89567 4 4.00024 4.89543 4.00024 6ZM8.00024 14C8.00024 13.4477 7.55253 13 7.00024 13C6.44796 13 6.00024 13.4477 6.00024 14C6.00024 14.5523 6.44796 15 7.00024 15C7.55253 15 8.00024 14.5523 8.00024 14ZM13.0002 15C13.5525 15 14.0002 14.5523 14.0002 14C14.0002 13.4477 13.5525 13 13.0002 13C12.448 13 12.0002 13.4477 12.0002 14C12.0002 14.5523 12.448 15 13.0002 15Z" fill="#212121"/>
</svg>
