<svg width="16" height="16" viewBox="0 0 16 16" fill="none" xmlns="http://www.w3.org/2000/svg">
<path d="M7.14234 7.01953C7.40772 7.09548 7.56096 7.37225 7.48512 7.6377L5.48512 14.6377C5.46251 14.7166 5.42243 14.7857 5.36988 14.8418C5.28004 14.9376 5.15441 14.9956 5.02125 15C5.01069 15.0003 4.99966 15.0003 4.98902 15C4.94886 14.9987 4.90734 14.992 4.86695 14.9805C4.83397 14.971 4.8025 14.9586 4.7732 14.9434C4.67224 14.8907 4.59483 14.806 4.54957 14.7061C4.50243 14.6019 4.49032 14.4808 4.52418 14.3623L6.52418 7.3623C6.60023 7.09707 6.87698 6.94371 7.14234 7.01953ZM9.5857 1C9.98341 1.00004 10.365 1.15826 10.6463 1.43945L13.5603 4.35352C13.8416 4.63478 13.9997 5.01629 13.9998 5.41406V13C13.9998 14.1046 13.1043 15 11.9998 15H6.41578C6.42609 14.9709 6.43845 14.9421 6.44703 14.9121L6.70777 14H11.9998C12.5521 14 12.9998 13.5523 12.9998 13V6H10.4998C9.67146 5.99986 8.99977 5.32834 8.99977 4.5V2H5.99977C5.4476 2.00014 4.99977 2.4478 4.99977 3V8.40234C4.66467 8.07938 4.31372 7.87111 3.99977 7.73828V3C3.99977 1.89552 4.89531 1.00014 5.99977 1H9.5857ZM9.99977 4.5C9.99977 4.77606 10.2237 4.99986 10.4998 5H12.7927L9.99977 2.20703V4.5ZM2.62086 8.66992C2.80059 8.46068 3.11543 8.43676 3.32496 8.61621C3.53462 8.79592 3.55936 9.11163 3.37965 9.32129L2.15895 10.7461L3.37965 12.1699C3.55936 12.3796 3.53462 12.6953 3.32496 12.875C3.11543 13.0545 2.80059 13.0305 2.62086 12.8213L1.12086 11.0713C0.960364 10.884 0.960364 10.6072 1.12086 10.4199L2.62086 8.66992ZM8.67457 8.61621C8.88417 8.43656 9.19991 8.46044 9.37965 8.66992L10.8796 10.4199C11.0401 10.6072 11.0401 10.884 10.8796 11.0713L9.37965 12.8213C9.19992 13.0308 8.88419 13.0547 8.67457 12.875C8.46507 12.6953 8.4412 12.3795 8.62086 12.1699L9.84156 10.7461L8.62086 9.32129C8.44118 9.11167 8.46502 8.79594 8.67457 8.61621Z" fill="#212121"/>
</svg>
