<svg width="20" height="20" viewBox="0 0 20 20" fill="none" xmlns="http://www.w3.org/2000/svg">
<path d="M12.0415 7.5H12C11.1716 7.5 10.5 8.17157 10.5 9V11.0001C10.5 12.3808 9.38071 13.5001 8 13.5001H7.9585C7.72042 14.9189 6.48646 16 5 16C3.34315 16 2 14.6569 2 13C2 11.3431 3.34315 10 5 10C6.48654 10 7.72055 11.0812 7.95854 12.5001H8C8.82843 12.5001 9.5 11.8285 9.5 11.0001V9C9.5 7.61929 10.6193 6.5 12 6.5H12.0415C12.2795 5.08114 13.5135 4 15 4C16.6569 4 18 5.34315 18 7C18 8.65685 16.6569 10 15 10C13.5135 10 12.2795 8.91886 12.0415 7.5Z" fill="#212121"/>
</svg>
