<svg width="20" height="20" viewBox="0 0 20 20" fill="none" xmlns="http://www.w3.org/2000/svg">
<path d="M10 18C14.4183 18 18 14.4183 18 10C18 5.58167 14.4183 2 10 2C5.58173 2 2 5.58167 2 10C2 14.4183 5.58173 18 10 18ZM11.8185 5.34094C10.0251 4.64221 7.91132 5.0177 6.46448 6.46448C4.51184 8.41711 4.51184 11.583 6.46448 13.5355C6.65973 13.7308 6.65973 14.0474 6.46448 14.2427C6.2692 14.438 5.95264 14.438 5.75735 14.2427C3.41422 11.8995 3.41422 8.10059 5.75735 5.75745C7.49478 4.02002 10.0318 3.57153 12.1815 4.40918C12.4388 4.5094 12.5661 4.79932 12.4659 5.05664C12.3656 5.31384 12.0758 5.44116 11.8185 5.34094ZM15.5909 7.81848C16.4285 9.96826 15.98 12.5052 14.2426 14.2427C14.0474 14.438 13.7308 14.438 13.5355 14.2427C13.3403 14.0474 13.3403 13.7308 13.5355 13.5355C14.9824 12.0887 15.3578 9.97498 14.6591 8.18164C14.5588 7.92432 14.6862 7.6344 14.9435 7.53418C15.2007 7.43396 15.4906 7.56128 15.5909 7.81848ZM14.0852 5.81921C14.267 5.97449 14.3134 6.23669 14.196 6.44495L14.0852 6.64111C14.0146 6.76599 13.9132 6.94495 13.7905 7.16101C13.6763 7.36206 13.5435 7.59521 13.3997 7.84692L13.1693 8.24939L12.8716 8.76721C12.7316 9.01013 12.5894 9.25549 12.4504 9.49414C12.2497 9.8385 12.0553 10.1687 11.8828 10.4567C11.7369 10.7002 11.6052 10.9158 11.4977 11.0852C11.4616 11.1421 11.4258 11.1978 11.3913 11.2496C11.3657 11.2882 11.3409 11.3246 11.3173 11.3579C11.2846 11.4039 11.2544 11.444 11.2277 11.4752C10.6897 12.1052 9.74289 12.1798 9.11292 11.6418C8.48291 11.1039 8.40833 10.157 8.94629 9.52698C9.01831 9.44275 9.14935 9.32263 9.28925 9.19922C9.4397 9.06653 9.63205 8.90271 9.84967 8.72046C10.2854 8.35571 10.831 7.91028 11.3635 7.47937C11.8964 7.04822 12.4179 6.63037 12.8061 6.32031L13.0805 6.10144L13.4498 5.80762C13.6371 5.65906 13.9034 5.66394 14.0852 5.81921Z" fill="#212121"/>
</svg>
