<svg width="20" height="20" viewBox="0 0 20 20" fill="none" xmlns="http://www.w3.org/2000/svg">
<path d="M10 3C9.17157 3 8.5 3.67157 8.5 4.5C8.5 5.32843 9.17157 6 10 6C10.8284 6 11.5 5.32843 11.5 4.5C11.5 3.67157 10.8284 3 10 3ZM7.5 4.5C7.5 3.11929 8.61929 2 10 2C11.3807 2 12.5 3.11929 12.5 4.5C12.5 5.88071 11.3807 7 10 7C8.61929 7 7.5 5.88071 7.5 4.5ZM15.5 4C14.9477 4 14.5 4.44772 14.5 5C14.5 5.55228 14.9477 6 15.5 6C16.0523 6 16.5 5.55228 16.5 5C16.5 4.44772 16.0523 4 15.5 4ZM13.5 5C13.5 3.89543 14.3954 3 15.5 3C16.6046 3 17.5 3.89543 17.5 5C17.5 6.10457 16.6046 7 15.5 7C14.3954 7 13.5 6.10457 13.5 5ZM3.5 5C3.5 4.44772 3.94772 4 4.5 4C5.05228 4 5.5 4.44772 5.5 5C5.5 5.55228 5.05228 6 4.5 6C3.94772 6 3.5 5.55228 3.5 5ZM4.5 3C3.39543 3 2.5 3.89543 2.5 5C2.5 6.10457 3.39543 7 4.5 7C5.60457 7 6.5 6.10457 6.5 5C6.5 3.89543 5.60457 3 4.5 3ZM5.09952 14.9976C5.06655 14.9992 5.03337 15 5 15C3.89543 15 3 14.1046 3 13V9.25C3 9.11193 3.11193 9 3.25 9H5.01373C5.05433 8.63279 5.18329 8.29221 5.37889 8H3.25C2.55964 8 2 8.55964 2 9.25V13C2 14.6569 3.34315 16 5 16C5.13712 16 5.27209 15.9908 5.40434 15.973C5.27099 15.6628 5.16813 15.3364 5.09952 14.9976ZM14.5957 15.973C14.7279 15.9908 14.8629 16 15 16C16.6569 16 18 14.6569 18 13V9.25C18 8.55964 17.4404 8 16.75 8H14.6211C14.8167 8.29221 14.9457 8.63279 14.9863 9H16.75C16.8881 9 17 9.11193 17 9.25V13C17 14.1046 16.1046 15 15 15C14.9666 15 14.9334 14.9992 14.9005 14.9976C14.8319 15.3364 14.729 15.6628 14.5957 15.973ZM7.25 8C6.55964 8 6 8.55964 6 9.25V14C6 16.2091 7.79086 18 10 18C12.2091 18 14 16.2091 14 14V9.25C14 8.55964 13.4404 8 12.75 8H7.25ZM7 9.25C7 9.11193 7.11193 9 7.25 9H12.75C12.8881 9 13 9.11193 13 9.25V14C13 15.6569 11.6569 17 10 17C8.34315 17 7 15.6569 7 14V9.25Z" fill="#212121"/>
</svg>
