<svg width="48" height="48" viewBox="0 0 48 48" fill="none" xmlns="http://www.w3.org/2000/svg">
<path d="M14 5.5C14 4.67157 13.3284 4 12.5 4C11.6716 4 11 4.67157 11 5.5V11H5.5C4.67157 11 4 11.6716 4 12.5C4 13.3284 4.67157 14 5.5 14H11V30.25C11 33.9779 14.0221 37 17.75 37H34V42.5C34 43.3284 34.6716 44 35.5 44C36.3284 44 37 43.3284 37 42.5V37H42.5C43.3284 37 44 36.3284 44 35.5C44 34.6716 43.3284 34 42.5 34H17.75C15.6789 34 14 32.3211 14 30.25V5.5ZM34 17.75V32H37V17.75C37 14.0221 33.9779 11 30.25 11H16V14H30.25C32.3211 14 34 15.6789 34 17.75Z" fill="#212121"/>
</svg>
