<svg width="28" height="28" viewBox="0 0 28 28" fill="none" xmlns="http://www.w3.org/2000/svg">
<path d="M13.7803 8.96967C14.0732 9.26256 14.0732 9.73744 13.7803 10.0303L10.5607 13.25H19.25C19.6642 13.25 20 13.5858 20 14C20 14.4142 19.6642 14.75 19.25 14.75H10.5607L13.7803 17.9697C14.0732 18.2626 14.0732 18.7374 13.7803 19.0303C13.4874 19.3232 13.0126 19.3232 12.7197 19.0303L8.21967 14.5303C7.92678 14.2374 7.92678 13.7626 8.21967 13.4697L12.7197 8.96967C13.0126 8.67678 13.4874 8.67678 13.7803 8.96967ZM14 2C20.6274 2 26 7.37258 26 14C26 20.6274 20.6274 26 14 26C7.37258 26 2 20.6274 2 14C2 7.37258 7.37258 2 14 2ZM24.5 14C24.5 8.20101 19.799 3.5 14 3.5C8.20101 3.5 3.5 8.20101 3.5 14C3.5 19.799 8.20101 24.5 14 24.5C19.799 24.5 24.5 19.799 24.5 14Z" fill="#212121"/>
</svg>
