<svg width="32" height="32" viewBox="0 0 32 32" fill="none" xmlns="http://www.w3.org/2000/svg">
<path d="M18.1049 2.77671C16.8912 1.74513 15.1088 1.74512 13.8952 2.77671L4.14515 11.0642C3.41868 11.6817 3 12.587 3 13.5405V26.5C3 27.8807 4.11929 29 5.5 29H15.4217C15.1672 28.5695 15 28.0667 15 27.5V18.25H15.011C15.0822 17.4418 15.4918 16.7758 15.9825 16.2786C16.5165 15.7375 17.2148 15.319 17.9594 15C19.4538 14.3595 21.4137 14 23.5 14C25.5674 14 27.5108 14.353 29 14.9827V13.5405C29 12.587 28.5813 11.6817 27.8549 11.0642L18.1049 2.77671ZM29 22.0173C27.5108 22.647 25.5674 23 23.5 23C21.4137 23 19.4538 22.6405 17.9594 22C17.4365 21.7759 16.9364 21.5028 16.5 21.1727V27.5C16.5 28.0464 16.8409 28.5587 17.4365 29C18.6468 29.8967 20.909 30.5 23.5 30.5C27.366 30.5 30.5 29.1569 30.5 27.5V21.1727C30.0636 21.5028 29.5635 21.7759 29.0406 22C29.0271 22.0058 29.0136 22.0116 29 22.0173ZM17.1347 19.75C17.1056 19.7228 17.0774 19.6954 17.0501 19.6677C16.6959 19.3088 16.5 18.9142 16.5 18.5C16.5 18.4158 16.5081 18.3324 16.524 18.25C16.8204 16.7101 19.8304 15.5 23.5 15.5C25.731 15.5 27.7182 15.9473 29 16.644C29.9394 17.1547 30.5 17.7993 30.5 18.5C30.5 18.9461 30.2728 19.3695 29.8653 19.75C29.6327 19.9672 29.3414 20.1704 29 20.356C27.7182 21.0527 25.731 21.5 23.5 21.5C20.6749 21.5 18.2407 20.7828 17.1347 19.75Z" fill="#212121"/>
</svg>
