<svg width="28" height="28" viewBox="0 0 28 28" fill="none" xmlns="http://www.w3.org/2000/svg">
<path d="M5 5.75C5 5.33579 4.66421 5 4.25 5C3.83579 5 3.5 5.33579 3.5 5.75V7H2.75C2.33579 7 2 7.33579 2 7.75V10.25C2 11.2165 2.7835 12 3.75 12H4.75V20.25C4.75 20.6642 5.08579 21 5.5 21C5.91421 21 6.25 20.6642 6.25 20.25V12H7.25C8.2165 12 9 11.2165 9 10.25V7.75C9 7.33579 8.66421 7 8.25 7H7.5V5.75C7.5 5.33579 7.16421 5 6.75 5C6.33579 5 6 5.33579 6 5.75V7H5V5.75Z" fill="#212121"/>
<path d="M24 16V17.25C24 19.3211 22.3211 21 20.25 21H8.25C7.69772 21 7.25 20.5523 7.25 20V14C7.25 13.4477 7.69772 13 8.25 13H8.5C9.32843 13 10 12.3284 10 11.5V8C10 7.44772 10.4477 7 11 7H20.25C22.3211 7 24 8.67893 24 10.75V12H24.75C25.4404 12 26 12.5596 26 13.25V14.75C26 15.4404 25.4404 16 24.75 16H24Z" fill="#242424"/>
</svg>
