<svg width="28" height="28" viewBox="0 0 28 28" fill="none" xmlns="http://www.w3.org/2000/svg">
<path d="M9.13477 9.04785L9.13379 9.04883C8.6899 9.94488 9.34146 10.9978 10.3428 10.999H11.4961V13.5479C11.4968 15.0857 13.5704 15.5697 14.2539 14.1953L17.3564 7.95605C17.5142 7.63871 17.5321 7.30282 17.4482 7H20.25C22.3211 7 24 8.67893 24 10.75V12H25C25.5523 12 26 12.4477 26 13V15C26 15.5523 25.5523 16 25 16H24V17.25C24 19.321 22.321 21 20.25 21H5.75C3.67896 21 2.00004 19.321 2 17.25V10.75C2 8.67893 3.67893 7 5.75 7H10.1533L9.13477 9.04785ZM13.1367 3.25293C13.3507 2.82304 13.9977 2.97499 13.998 3.45508V7.00488H16.1504C16.4102 7.00488 16.5796 7.27807 16.4639 7.51074L13.3604 13.75C13.1464 14.18 12.4992 14.028 12.499 13.5479V9.99902H10.3467C10.087 9.99901 9.91789 9.72574 10.0332 9.49316L13.1367 3.25293Z" fill="#212121"/>
</svg>
