<svg width="24" height="24" viewBox="0 0 24 24" fill="none" xmlns="http://www.w3.org/2000/svg">
<path d="M10.75 6H17C18.5977 6 19.9037 7.24892 19.9949 8.82373L20 9V10L21.0006 10.0178C21.1827 10.0178 21.3535 10.0665 21.5006 10.1516C21.7663 10.3053 21.9548 10.5778 21.9933 10.8963L22.0006 11.0178V13.0178C22.0006 13.3879 21.7995 13.7111 21.5006 13.884C21.3903 13.9479 21.2667 13.9912 21.1349 14.0089L21.0006 14.0178L20 14V15C20 16.5977 18.7511 17.9037 17.1763 17.9949L17 18H7.99757C7.58336 18 7.24757 17.6642 7.24757 17.25C7.24757 16.8703 7.52973 16.5565 7.8958 16.5068L7.99757 16.5H17C17.7797 16.5 18.4204 15.9051 18.4931 15.1445L18.5 15V9C18.5 8.2203 17.9051 7.57955 17.1445 7.50687L17 7.5H10.75C10.3358 7.5 10 7.16421 10 6.75C10 6.3703 10.2822 6.05651 10.6482 6.00685L10.75 6H17H10.75ZM6.251 10.998L6.25178 17.25C6.25178 17.6642 5.91599 18 5.50178 18C5.12208 18 4.80829 17.7178 4.75862 17.3518L4.75178 17.25L4.75178 10.998L3.75 10.9988C2.7835 10.9988 2 10.2153 2 9.24884V6.75C2 6.33579 2.33579 6 2.75 6H3.501L3.50108 4.75C3.50108 4.3703 3.78324 4.05651 4.14931 4.00685L4.25108 4C4.63078 4 4.94457 4.28215 4.99423 4.64823L5.00108 4.75L5.001 6H5.996L5.9969 4.75C5.9969 4.3703 6.27906 4.05651 6.64513 4.00685L6.7469 4C7.1266 4 7.44039 4.28215 7.49005 4.64823L7.4969 4.75L7.496 6H8.25355C8.66777 6 9.00355 6.33579 9.00355 6.75V9.24884C9.00355 10.2153 8.22005 10.9988 7.25355 10.9988L6.251 10.998L6.25178 17.25L6.251 10.998ZM7.50355 7.5H3.5V9.24884C3.5 9.38692 3.61193 9.49884 3.75 9.49884H7.25355C7.39163 9.49884 7.50355 9.38692 7.50355 9.24884V7.5Z" fill="#212121"/>
</svg>
