<svg width="20" height="20" viewBox="0 0 20 20" fill="none" xmlns="http://www.w3.org/2000/svg">
<path d="M10 1.99915V4.49915C10 4.77529 10.2239 4.99915 10.5 4.99915C10.7761 4.99915 11 4.77529 11 4.49915V1.99915H12V5.50137C12 5.77751 12.2239 6.00137 12.5 6.00137C12.7761 6.00137 13 5.77751 13 5.50137V1.99915H14.5C14.7761 1.99915 15 2.223 15 2.49915V9H5V2.49915C5 2.223 5.22386 1.99915 5.5 1.99915H10ZM9 14.5C9 12.6398 9.92345 10.9954 11.3369 10H5V11.0035C5 12.1081 5.89543 13.0035 7 13.0035H8V16C8 17.0703 8.84074 17.9442 9.89784 17.9974C9.9316 17.9997 9.96566 18.0009 10 18.0009C10.0343 18.0009 10.0684 17.9997 10.1022 17.9974C10.1502 17.995 10.1978 17.9909 10.2449 17.9852C9.46693 17.0364 9 15.8227 9 14.5ZM14.5 19C16.9853 19 19 16.9853 19 14.5C19 12.0147 16.9853 10 14.5 10C12.0147 10 10 12.0147 10 14.5C10 16.9853 12.0147 19 14.5 19ZM12 14.5C12 14.2239 12.2239 14 12.5 14H16.5C16.7761 14 17 14.2239 17 14.5C17 14.7761 16.7761 15 16.5 15H12.5C12.2239 15 12 14.7761 12 14.5Z" fill="#212121"/>
</svg>
