<svg width="25" height="24" viewBox="0 0 25 24" fill="none" xmlns="http://www.w3.org/2000/svg">
<path d="M18.3867 20.5H13.3737C13.3118 21.0917 13.0326 21.6188 12.6174 22H18.3867C19.4907 22 20.3867 21.104 20.3867 20V9.828C20.3867 9.298 20.1757 8.789 19.8007 8.414L13.9717 2.586C13.9568 2.57105 13.9398 2.55808 13.923 2.5452C13.9106 2.53567 13.8982 2.5262 13.8867 2.516C13.8157 2.452 13.7457 2.389 13.6677 2.336C13.6424 2.31894 13.6148 2.30548 13.5872 2.29207C13.5712 2.28426 13.5552 2.27647 13.5397 2.268C13.523 2.25859 13.5064 2.24897 13.4897 2.23933C13.4355 2.20797 13.3811 2.17648 13.3237 2.152C13.1267 2.07 12.9147 2.029 12.6997 2.014C12.68 2.01274 12.6605 2.01008 12.6409 2.00741C12.6138 2.00371 12.5866 2 12.5587 2H6.38672C5.28272 2 4.38672 2.896 4.38672 4V11H5.88672V4C5.88672 3.725 6.11072 3.5 6.38672 3.5H12.3867V8C12.3867 9.104 13.2827 10 14.3867 10H18.8867V20C18.8867 20.275 18.6627 20.5 18.3867 20.5ZM17.7647 8.5H14.3867C14.1107 8.5 13.8867 8.275 13.8867 8V4.621L17.7647 8.5ZM13.3867 17.5V19H15.6367C16.6032 19 17.3867 18.2165 17.3867 17.25V13.25C17.3867 12.2835 16.6032 11.5 15.6367 11.5H9.56734C10.0323 11.8397 10.3804 12.3297 10.5402 12.8986C11.0767 13.0271 11.5541 13.3396 11.8867 13.783V13H15.6367C15.7748 13 15.8867 13.1119 15.8867 13.25V14.5H12.288L13.038 16H15.8867V17.25C15.8867 17.3881 15.7748 17.5 15.6367 17.5H13.3867ZM2.99089 12C2.10493 12 1.38672 12.7182 1.38672 13.6042V20.0208C1.38672 20.6714 1.77401 21.2316 2.33062 21.4833C2.48061 22.3449 3.23216 23 4.13672 23C4.99098 23 5.70877 22.4157 5.91229 21.625H6.94448C7.148 22.4157 7.86579 23 8.72005 23C9.57431 23 10.2921 22.4157 10.4956 21.625H11.0117C11.7711 21.625 12.3867 21.0094 12.3867 20.25V17.2581C12.3867 17.0446 12.337 16.8341 12.2416 16.6431L11.2167 14.5934C10.9838 14.1276 10.5077 13.8333 9.98685 13.8333H9.63687V13.6042C9.63687 12.7182 8.91866 12 8.0327 12H2.99089ZM9.63687 16.5833V14.75H9.98685C10.1605 14.75 10.3192 14.8481 10.3968 15.0034L11.1868 16.5833H9.63687ZM3.22005 21.1667C3.22005 20.6604 3.63046 20.25 4.13672 20.25C4.64298 20.25 5.05339 20.6604 5.05339 21.1667C5.05339 21.6729 4.64298 22.0833 4.13672 22.0833C3.63046 22.0833 3.22005 21.6729 3.22005 21.1667ZM8.72005 22.0833C8.21379 22.0833 7.80339 21.6729 7.80339 21.1667C7.80339 20.6604 8.21379 20.25 8.72005 20.25C9.22631 20.25 9.63672 20.6604 9.63672 21.1667C9.63672 21.6729 9.22631 22.0833 8.72005 22.0833Z" fill="#212121"/>
</svg>
