<svg width="20" height="20" viewBox="0 0 20 20" fill="none" xmlns="http://www.w3.org/2000/svg">
<path d="M5.49707 3C4.11636 3 2.99707 4.11929 2.99707 5.5V14.5C2.99707 15.8807 4.11636 17 5.49707 17H9.25716C8.47182 16.0491 8 14.8296 8 13.5C8 10.4624 10.4624 8 13.5 8C14.0903 8 14.659 8.09301 15.192 8.26517C15.4491 7.80847 15.9385 7.5 16.5 7.5C16.6742 7.5 16.8415 7.5297 16.9971 7.58432V7H9.49707C8.66864 7 7.99707 6.32843 7.99707 5.5V3H5.49707Z" fill="#212121"/>
<path d="M16.9971 8.94556C16.999 8.96344 17 8.9816 17 9V11C17 11.2761 16.7761 11.5 16.5 11.5H14.5C14.2239 11.5 14 11.2761 14 11C14 10.7239 14.2239 10.5 14.5 10.5H15.304C14.7773 10.1825 14.1604 10 13.5 10C11.567 10 10 11.567 10 13.5C10 15.433 11.567 17 13.5 17C15.433 17 17 15.433 17 13.5C17 13.2239 17.2239 13 17.5 13C17.7761 13 18 13.2239 18 13.5C18 15.9853 15.9853 18 13.5 18C11.0147 18 9 15.9853 9 13.5C9 11.0147 11.0147 9 13.5 9C14.4246 9 15.2849 9.27929 16 9.75784V9C16 8.87202 16.0481 8.75527 16.1272 8.66683C16.2187 8.56445 16.3518 8.5 16.5 8.5C16.7577 8.5 16.9699 8.69503 16.9971 8.94556Z" fill="#212121"/>
<path d="M8.99707 3V5.5C8.99707 5.77614 9.22093 6 9.49707 6H16.9971V5.5C16.9971 4.11929 15.8778 3 14.4971 3H8.99707Z" fill="#212121"/>
</svg>
