<svg width="32" height="32" viewBox="0 0 32 32" fill="none" xmlns="http://www.w3.org/2000/svg">
<path d="M25.75 27.5C26.4404 27.5 27 28.0596 27 28.75C26.9999 29.4403 26.4403 30 25.75 30H5.75C5.05968 30 4.50006 29.4403 4.5 28.75C4.5 28.0596 5.05964 27.5 5.75 27.5H25.75ZM14.8662 2.3662C15.3544 1.87805 16.1456 1.87806 16.6338 2.3662L24.1338 9.8662C24.6219 10.3544 24.6219 11.1456 24.1338 11.6338C23.6457 12.1218 22.8543 12.1218 22.3662 11.6338L17 6.26757V23.75C16.9999 24.4403 16.4403 25 15.75 25C15.0597 25 14.5001 24.4403 14.5 23.75V6.26757L9.13379 11.6338C8.64565 12.1219 7.85435 12.1219 7.36621 11.6338C6.87809 11.1456 6.87811 10.3544 7.36621 9.8662L14.8662 2.3662Z" fill="#212121"/>
</svg>
