<svg width="16" height="16" viewBox="0 0 16 16" fill="none" xmlns="http://www.w3.org/2000/svg">
<path d="M10 0.5C10 0.223858 10.2239 0 10.5 0H14.5C14.7761 0 15 0.223858 15 0.5V5.5C15 5.77614 14.7761 6 14.5 6H13V14.5C13 14.7761 12.7761 15 12.5 15C12.2239 15 12 14.7761 12 14.5V6H10.5C10.2239 6 10 5.77614 10 5.5V0.5ZM5.3188 2H9V3H5.3188C4.81602 3 4.39142 3.3733 4.32703 3.87194L4.05225 6H9.08535C9.29127 6.5826 9.84689 7 10.5 7H11V8.29408C10.9215 8.26617 10.837 8.25098 10.749 8.25098C10.3353 8.25098 10 8.58631 10 8.99996C10 9.4136 10.3353 9.74893 10.749 9.74893C10.837 9.74893 10.9215 9.73374 11 9.70583V12H3.5C2.67157 12 2 11.3284 2 10.5V7.5C2 6.83409 2.43393 6.26953 3.03444 6.07365L3.04395 6H2.50005C2.22391 6 2.00005 5.77614 2.00005 5.5C2.00005 5.22386 2.22391 5 2.50005 5H3.17308L3.33527 3.74388C3.46404 2.74661 4.31324 2 5.3188 2ZM5.25105 9.74893C5.6647 9.74893 6.00003 9.4136 6.00003 8.99996C6.00003 8.58631 5.6647 8.25098 5.25105 8.25098C4.8374 8.25098 4.50208 8.58631 4.50208 8.99996C4.50208 9.4136 4.8374 9.74893 5.25105 9.74893ZM5 13H3.5V13.25C3.5 13.6642 3.83579 14 4.25 14C4.66421 14 5 13.6642 5 13.25V13Z" fill="#212121"/>
</svg>
