<svg width="28" height="28" viewBox="0 0 28 28" fill="none" xmlns="http://www.w3.org/2000/svg">
<path d="M22.4697 4.46967C22.7626 4.17678 23.2374 4.17678 23.5303 4.46967C23.8232 4.76256 23.8232 5.23744 23.5303 5.53033L15.0607 14L23.5303 22.4697C23.8232 22.7626 23.8232 23.2374 23.5303 23.5303C23.2374 23.8232 22.7626 23.8232 22.4697 23.5303L14 15.0607L5.53033 23.5303C5.23744 23.8232 4.76256 23.8232 4.46967 23.5303C4.17678 23.2374 4.17678 22.7626 4.46967 22.4697L12.9393 14L4.46967 5.53033C4.17678 5.23744 4.17678 4.76256 4.46967 4.46967C4.76256 4.17678 5.23744 4.17678 5.53033 4.46967L14 12.9393L22.4697 4.46967Z" fill="#212121"/>
</svg>
