<svg width="20" height="20" viewBox="0 0 20 20" fill="none" xmlns="http://www.w3.org/2000/svg">
<path d="M3 12C4.10457 12 5 12.8954 5 14C5 14.2761 4.77614 14.5 4.5 14.5C4.22386 14.5 4 14.2761 4 14C4 13.4477 3.55228 13 3 13C2.44772 13 2 13.4477 2 14V16C2 16.5523 2.44772 17 3 17C3.55228 17 4 16.5523 4 16C4 15.7239 4.22386 15.5 4.5 15.5C4.77614 15.5 5 15.7239 5 16C5 17.1046 4.10457 18 3 18C1.89543 18 1 17.1046 1 16V14C1 12.8954 1.89543 12 3 12ZM7.5 12C8.32843 12 9 12.6716 9 13.5C9 13.7761 8.77614 14 8.5 14C8.25829 14 8.05629 13.8286 8.00977 13.6006L7.99023 13.3994C7.94371 13.1714 7.74171 13 7.5 13C7.22386 13 7 13.2239 7 13.5V13.8818C7 14.0712 7.10701 14.2444 7.27637 14.3291L8.1709 14.7764C8.67904 15.0305 9 15.55 9 16.1182V16.5C9 17.3284 8.32843 18 7.5 18C6.67157 18 6 17.3284 6 16.5C6 16.2239 6.22386 16 6.5 16C6.74171 16 6.94371 16.1714 6.99023 16.3994L7.00977 16.6006C7.05629 16.8286 7.25829 17 7.5 17C7.77614 17 8 16.7761 8 16.5V16.1182C8 15.9288 7.89299 15.7556 7.72363 15.6709L6.8291 15.2236C6.32096 14.9695 6 14.45 6 13.8818V13.5C6 12.6716 6.67157 12 7.5 12ZM13.0283 12.335C13.1195 12.0744 13.4045 11.9372 13.665 12.0283C13.9256 12.1195 14.0628 12.4044 13.9717 12.665L12.2217 17.665C12.1515 17.8656 11.9625 18 11.75 18C11.5376 17.9999 11.3485 17.8655 11.2783 17.665L9.52832 12.665C9.43725 12.4045 9.57441 12.1195 9.83496 12.0283C10.0956 11.9371 10.3804 12.0744 10.4717 12.335L11.75 15.9863L13.0283 12.335ZM10.5859 2C10.9837 2.00004 11.3652 2.15818 11.6465 2.43945L15.5605 6.35352C15.8418 6.63478 16 7.01629 16 7.41406V16C16 16.9154 15.3842 17.6844 14.5449 17.9219C14.5165 17.93 14.4879 17.9374 14.459 17.9443C14.4292 17.9513 14.3994 17.9582 14.3691 17.9639C14.3225 17.9727 14.2753 17.9798 14.2275 17.9854C14.2119 17.9871 14.1964 17.9888 14.1807 17.9902C14.1211 17.9957 14.061 18 14 18H13.1641L13.166 17.9961L13.5146 17H14C14.5523 17 15 16.5523 15 16V8H11.5C10.6716 8 10 7.32843 10 6.5V3H6C5.44772 3 5 3.44772 5 4V11.7637C4.71149 11.5055 4.37255 11.3026 4 11.1709V4C4 2.89543 4.89543 2 6 2H10.5859ZM11 6.5C11 6.77614 11.2239 7 11.5 7H14.793L11 3.20703V6.5Z" fill="#212121"/>
</svg>
