<svg width="16" height="16" viewBox="0 0 16 16" fill="none" xmlns="http://www.w3.org/2000/svg">
<path d="M15.0303 1.96967C15.3232 2.26256 15.3232 2.73744 15.0303 3.03033L13.0303 5.03033C12.7374 5.32322 12.2626 5.32322 11.9697 5.03033L10.9697 4.03033C10.6768 3.73744 10.6768 3.26256 10.9697 2.96967C11.2626 2.67678 11.7374 2.67678 12.0303 2.96967L12.5 3.43934L13.9697 1.96967C14.2626 1.67678 14.7374 1.67678 15.0303 1.96967ZM15.0303 10.9697C15.3232 11.2626 15.3232 11.7374 15.0303 12.0303L13.0303 14.0303C12.7374 14.3232 12.2626 14.3232 11.9697 14.0303L10.9697 13.0303C10.6768 12.7374 10.6768 12.2626 10.9697 11.9697C11.2626 11.6768 11.7374 11.6768 12.0303 11.9697L12.5 12.4393L13.9697 10.9697C14.2626 10.6768 14.7374 10.6768 15.0303 10.9697ZM1 3.75C1 3.33579 1.33579 3 1.75 3H9.25C9.66421 3 10 3.33579 10 3.75C10 4.16421 9.66421 4.5 9.25 4.5H1.75C1.33579 4.5 1 4.16421 1 3.75ZM1 8C1 7.58579 1.33579 7.25 1.75 7.25H9.25C9.66421 7.25 10 7.58579 10 8C10 8.41421 9.66421 8.75 9.25 8.75H1.75C1.33579 8.75 1 8.41421 1 8ZM1 12.25C1 11.8358 1.33579 11.5 1.75 11.5H9.25C9.66421 11.5 10 11.8358 10 12.25C10 12.6642 9.66421 13 9.25 13H1.75C1.33579 13 1 12.6642 1 12.25Z" fill="#212121"/>
</svg>
