<svg width="24" height="24" viewBox="0 0 24 24" fill="none" xmlns="http://www.w3.org/2000/svg">
<path d="M17.353 6.15612C17.3777 6.18073 17.3996 6.20766 17.4184 6.23639L19 7.81802V6.51019C19 5.97873 18.7885 5.46913 18.4121 5.09389L16.6995 3.38629C15.8091 2.49852 14.603 2 13.3457 2H7C5.89543 2 5 2.89543 5 4V4.12734C5.56692 3.73191 6.25638 3.5 7 3.5H13.3457C14.206 3.5 15.0312 3.84109 15.6404 4.44852L17.353 6.15612ZM2.75 15C3.16421 15 3.5 15.3358 3.5 15.75V17.5C3.5 19.1569 4.84315 20.5 6.5 20.5H17.5C19.1569 20.5 20.5 19.1569 20.5 17.5V15.75C20.5 15.3358 20.8358 15 21.25 15C21.6642 15 22 15.3358 22 15.75V17.5C22 19.9853 19.9853 22 17.5 22H6.5C4.01472 22 2 19.9853 2 17.5V15.75C2 15.3358 2.33579 15 2.75 15ZM12.5001 5L12.5 9.74996C12.5 10.7165 13.2835 11.5 14.25 11.5H19V17C19 18.1046 18.1046 19 17 19H7C5.89543 19 5 18.1046 5 17V7C5 5.89543 5.89543 5 7 5H12.5001ZM8 8.75C8 9.16421 8.33579 9.5 8.75 9.5H10.25C10.6642 9.5 11 9.16421 11 8.75C11 8.33579 10.6642 8 10.25 8H8.75C8.33579 8 8 8.33579 8 8.75ZM8.75 11C8.33579 11 8 11.3358 8 11.75C8 12.1642 8.33579 12.5 8.75 12.5H10.25C10.6642 12.5 11 12.1642 11 11.75C11 11.3358 10.6642 11 10.25 11H8.75ZM8 14.75C8 15.1642 8.33579 15.5 8.75 15.5H10.25C10.6642 15.5 11 15.1642 11 14.75C11 14.3358 10.6642 14 10.25 14H8.75C8.33579 14 8 14.3358 8 14.75ZM14.0001 5.00161L14 9.75C14 9.88807 14.1119 10 14.25 10H18.9995L14.0001 5.00161Z" fill="#212121"/>
</svg>
