<svg width="20" height="20" viewBox="0 0 20 20" fill="none" xmlns="http://www.w3.org/2000/svg">
<path d="M11.933 9.97598C12.7471 8.96101 14.3713 8.94207 15.2094 9.95937L17.7797 13.0863C18.0251 13.4379 18.0637 13.8815 17.9037 14.265L17.8158 14.4379C17.4771 14.9914 16.9486 15.8681 16.2524 16.6029C15.5603 17.3332 14.6306 18.0003 13.478 18.0004C12.6238 18.0004 11.9208 17.6448 11.3207 17.2563C11.0244 17.0644 10.7295 16.8467 10.4614 16.6586C10.254 16.5131 10.0552 16.3793 9.85786 16.2631L9.6606 16.1527C9.41941 16.0262 9.31694 15.9705 9.19673 15.977C9.13376 15.9804 8.96488 16.0117 8.70064 16.3324L8.14401 17.1273C7.38399 18.2069 5.7617 18.2918 4.87449 17.3412L2.28174 14.1986C1.94053 13.7843 1.91279 13.2131 2.18506 12.768L2.47412 12.2992C2.79825 11.7848 3.22627 11.1541 3.74852 10.6029C4.44065 9.87257 5.37009 9.2055 6.52292 9.20547C7.37677 9.20559 8.07928 9.56121 8.67916 9.94961C8.97535 10.1414 9.27147 10.3582 9.5395 10.5463C9.81585 10.7402 10.0768 10.914 10.3403 11.0521L10.6176 11.1908C10.688 11.2198 10.7442 11.2322 10.8041 11.2289C10.8669 11.2254 11.032 11.1929 11.2914 10.8812L11.8559 10.0785L11.933 9.97598ZM14.4369 10.5951C13.987 10.0494 13.0748 10.0844 12.6742 10.6518L12.6752 10.6527L9.60982 15.0365C9.84796 15.1069 10.0324 15.2197 10.1245 15.268L10.3637 15.4008C10.5986 15.5389 10.8229 15.691 11.0356 15.8402C11.3277 16.0452 11.5891 16.2379 11.8647 16.4164C12.4089 16.7688 12.9129 17.0004 13.478 17.0004C14.226 17.0003 14.9099 16.5654 15.5268 15.9145C16.1391 15.2681 16.6163 14.4825 16.9633 13.9154C17.0065 13.8117 17.0027 13.7367 16.9477 13.643L14.4369 10.5951ZM6.52292 10.2055C5.77483 10.2055 5.09102 10.6394 4.47411 11.2904C4.01463 11.7753 3.63199 12.339 3.32275 12.8295L3.03759 13.2895C2.98153 13.3812 2.99074 13.4869 3.05322 13.5629L5.65281 16.7064C6.09398 17.1205 6.84287 17.0917 7.24557 16.6527L10.3989 12.1703C10.2521 12.1278 10.1246 12.0695 10.0268 12.0189L9.87544 11.9379C9.55275 11.7686 9.24878 11.5645 8.96529 11.3656C8.6734 11.1608 8.41155 10.9678 8.13619 10.7895C7.5921 10.4372 7.08784 10.2056 6.52292 10.2055ZM13.5004 3C14.8809 3.00024 16.0003 4.12011 16.0004 5.50098L15.9877 5.75684C15.8595 7.01746 14.7945 8.00075 13.5004 8.00098L13.2446 7.98828C12.0682 7.86866 11.1328 6.93346 11.0131 5.75684L11.0004 5.50098C11.0005 4.11996 12.1198 3 13.5004 3ZM6.50046 3C7.88091 3.00024 9.00036 4.11951 9.00044 5.5C9.00044 6.88056 7.88096 7.99976 6.50046 8C5.11976 8 4.00048 6.88071 4.00048 5.5C4.00056 4.11936 5.11981 3 6.50046 3ZM13.5004 4C12.6723 4 12.0005 4.67198 12.0004 5.50098C12.0006 6.32991 12.6724 7.00097 13.5004 7.00098C14.3283 7.00073 15.0003 6.32976 15.0004 5.50098C15.0003 4.67213 14.3283 4.00024 13.5004 4ZM6.50046 4C5.67209 4 5.00055 4.67164 5.00047 5.5C5.00047 6.32843 5.67204 7 6.50046 7C7.32867 6.99976 8.00045 6.32828 8.00045 5.5C8.00037 4.67179 7.32862 4.00024 6.50046 4Z" fill="#212121"/>
</svg>
