<svg width="24" height="24" viewBox="0 0 24 24" fill="none" xmlns="http://www.w3.org/2000/svg">
<path d="M2 6.25C2 4.45507 3.45507 3 5.25 3H18.75C20.5449 3 22 4.45507 22 6.25V12H20.5V6.25C20.5 5.2835 19.7165 4.5 18.75 4.5H5.25C4.2835 4.5 3.5 5.2835 3.5 6.25V15.75C3.5 16.7165 4.2835 17.5 5.25 17.5H11V19H5.25C3.45507 19 2 17.5449 2 15.75V6.25ZM14 13C12.8954 13 12 13.8954 12 15V20C12 21.1046 12.8954 22 14 22H21C22.1046 22 23 21.1046 23 20V15C23 13.8954 22.1046 13 21 13H14Z" fill="#212121"/>
</svg>
