<svg width="16" height="16" viewBox="0 0 16 16" fill="none" xmlns="http://www.w3.org/2000/svg">
<path d="M13.7982 2.217L13.7829 2.21318L13.0175 1.9646C12.8586 1.91182 12.7096 1.83423 12.5758 1.73516C12.5137 1.68915 12.4549 1.63851 12.3999 1.58356C12.2265 1.41029 12.0959 1.199 12.0186 0.966464L11.7698 0.201608C11.749 0.142657 11.7104 0.0916085 11.6593 0.0554996C11.6124 0.0223432 11.5572 0.00328255 11.5 0.000387192C11.4949 0.000129223 11.4898 0 11.4847 0C11.4221 0 11.3611 0.0193911 11.31 0.0554996C11.259 0.0916085 11.2204 0.142657 11.1996 0.201608L10.9508 0.966464C10.875 1.19736 10.7467 1.40761 10.5761 1.58076C10.5515 1.60573 10.5261 1.62983 10.5 1.65302C10.3449 1.79072 10.1639 1.89672 9.9672 1.9646L9.37255 2.15772L9.37102 2.15736L9.19938 2.213C9.14032 2.23385 9.08926 2.27267 9.05338 2.324C9.01697 2.37491 8.9974 2.43592 8.9974 2.4985C8.9974 2.56108 9.01697 2.6221 9.05338 2.673C9.08941 2.72396 9.14045 2.76242 9.19938 2.783L9.96638 3.032L10.0494 3.06151C10.0519 3.0625 10.0543 3.06349 10.0568 3.06448C10.1201 3.08991 10.1815 3.11937 10.2408 3.15264C10.3665 3.22344 10.4821 3.31131 10.5844 3.414C10.7382 3.56722 10.858 3.75078 10.9364 3.95262L10.9372 3.95323C10.9476 3.9797 10.9572 4.00647 10.9661 4.03354L11.2149 4.79839C11.2357 4.85734 11.2743 4.90839 11.3254 4.9445C11.3764 4.98061 11.4374 5 11.5 5L11.5037 4.99998C11.5649 4.99924 11.6246 4.97991 11.6746 4.9445C11.7086 4.92049 11.737 4.88988 11.7584 4.85473C11.7692 4.83702 11.7782 4.81815 11.7851 4.79839L12.0339 4.03354C12.1113 3.80101 12.2418 3.58971 12.4152 3.41644C12.5886 3.24317 12.8001 3.1127 13.0328 3.0354L13.7982 2.78682C13.8572 2.76602 13.9083 2.72745 13.9445 2.67642C13.9806 2.6254 14 2.56442 14 2.50191C14 2.4394 13.9806 2.37843 13.9445 2.3274C13.9083 2.27637 13.8572 2.2378 13.7982 2.217ZM15.214 5.57168L15.8263 5.77054L15.8386 5.7736C15.8858 5.79024 15.9267 5.8211 15.9556 5.86192C15.9845 5.90274 16 5.95152 16 6.00153C16 6.05154 15.9845 6.10032 15.9556 6.14114C15.9267 6.18196 15.8858 6.21282 15.8386 6.22946L15.2262 6.42832C15.0401 6.49016 14.8709 6.59453 14.7322 6.73315C14.5935 6.87177 14.489 7.0408 14.4271 7.22683L14.2281 7.83871C14.2115 7.88587 14.1806 7.92671 14.1397 7.9556C14.0989 7.98449 14.05 8 14 8C13.9978 8 13.9955 7.99997 13.9933 7.99991C13.9446 7.99909 13.8973 7.98382 13.8574 7.956C13.8165 7.92722 13.7857 7.88628 13.7694 7.839L13.5694 7.227C13.5074 7.04064 13.4028 6.87129 13.264 6.73241C13.1251 6.59354 12.9557 6.48897 12.7694 6.427L12.7449 6.41901L12.7437 6.41551L12.1614 6.2264C12.1142 6.20976 12.0733 6.1789 12.0444 6.13808C12.0155 6.09726 12 6.04848 12 5.99847C12 5.94846 12.0155 5.89968 12.0444 5.85886C12.0733 5.81804 12.1142 5.78718 12.1614 5.77054L12.7738 5.57168C12.9577 5.50823 13.1244 5.40313 13.2609 5.26461C13.3974 5.12609 13.5 4.95789 13.5606 4.77317L13.7597 4.16129C13.7763 4.11413 13.8072 4.07329 13.848 4.0444C13.8889 4.01551 13.9377 4 13.9878 4C14.0378 4 14.0866 4.01551 14.1275 4.0444C14.1683 4.07329 14.1992 4.11413 14.2159 4.16129L14.4149 4.77317C14.4768 4.9592 14.5812 5.12823 14.7199 5.26685C14.8587 5.40547 15.0278 5.50984 15.214 5.57168ZM8.05924 2.89323C8.07087 2.92978 8.08409 2.96572 8.09884 3.00096C8.06597 3.00032 8.03302 3 8 3C5.23858 3 3 5.23858 3 8C3 10.7614 5.23858 13 8 13C10.6079 13 12.7495 11.0034 12.9795 8.45533C13.0627 8.5777 13.1674 8.68514 13.2894 8.772C13.446 8.88303 13.6263 8.95619 13.8161 8.98572C13.8498 8.99097 13.8836 8.99481 13.9175 8.99726C13.4426 11.8363 10.974 14 8 14C4.68629 14 2 11.3137 2 8C2 4.68629 4.68629 2 8 2C8.03251 2 8.06495 2.00026 8.09733 2.00077C8.05781 2.09601 8.02963 2.19594 8.01361 2.2985C7.98252 2.4976 7.99814 2.7012 8.05924 2.89323ZM6.25 7.75C6.66421 7.75 7 7.41421 7 7C7 6.58579 6.66421 6.25 6.25 6.25C5.83579 6.25 5.5 6.58579 5.5 7C5.5 7.41421 5.83579 7.75 6.25 7.75ZM6.13646 9.66654C5.95229 9.46078 5.6362 9.44327 5.43043 9.62743C5.22467 9.8116 5.20716 10.1277 5.39132 10.3335C6.03148 11.0487 6.96337 11.5 8 11.5C9.03663 11.5 9.96851 11.0487 10.6087 10.3335C10.7928 10.1277 10.7753 9.8116 10.5696 9.62743C10.3638 9.44327 10.0477 9.46078 9.86353 9.66654C9.40505 10.1788 8.74037 10.5 8 10.5C7.25963 10.5 6.59494 10.1788 6.13646 9.66654ZM10.5 7C10.5 7.41421 10.1642 7.75 9.75 7.75C9.33579 7.75 9 7.41421 9 7C9 6.58579 9.33579 6.25 9.75 6.25C10.1642 6.25 10.5 6.58579 10.5 7Z" fill="#212121"/>
</svg>
