<svg width="20" height="20" viewBox="0 0 20 20" fill="none" xmlns="http://www.w3.org/2000/svg">
<path d="M19 5.5C19 7.98528 16.9853 10 14.5 10C12.0147 10 10 7.98528 10 5.5C10 3.01472 12.0147 1 14.5 1C16.9853 1 19 3.01472 19 5.5ZM14.5 3C14.2239 3 14 3.22386 14 3.5V5.5C14 5.77614 14.2239 6 14.5 6C14.7761 6 15 5.77614 15 5.5V3.5C15 3.22386 14.7761 3 14.5 3ZM14.5 8.125C14.8452 8.125 15.125 7.84518 15.125 7.5C15.125 7.15482 14.8452 6.875 14.5 6.875C14.1548 6.875 13.875 7.15482 13.875 7.5C13.875 7.84518 14.1548 8.125 14.5 8.125ZM17 10.4003V12.2764C17 13.1288 16.2962 13.8423 15.4 13.8423H10.4809L6.20502 16.9988L6.20346 16.9997L6.2 17L6.19908 13.8423H4.6C3.70383 13.8423 3 13.1288 3 12.2764V5.56582C3 4.71348 3.70383 4 4.6 4H9.20703C9.30564 3.65136 9.43777 3.31679 9.59971 3H4.6C3.16406 3 2 4.14876 2 5.56582V12.2764C2 13.6935 3.16406 14.8423 4.6 14.8423H5.19937L5.2 17.0133C5.2 17.2262 5.26989 17.4335 5.39921 17.6042C5.73 18.0406 6.35668 18.1298 6.79895 17.8034L10.81 14.8423H15.4C16.8359 14.8423 18 13.6935 18 12.2764V9.74284C17.6929 9.99647 17.3578 10.2174 17 10.4003Z" fill="#212121"/>
</svg>
