<svg width="20" height="20" viewBox="0 0 20 20" fill="none" xmlns="http://www.w3.org/2000/svg">
<path d="M2 6C2 4.34315 3.34315 3 5 3H15C16.6569 3 18 4.34315 18 6V10.2572C17.6929 10.0035 17.3578 9.78261 17 9.59971V6C17 4.89543 16.1046 4 15 4H9V15H9.02242C9.05337 15.3434 9.11588 15.6777 9.20703 16H5C3.34315 16 2 14.6569 2 13V6ZM6.58988 6.99194C6.82312 6.94961 7 6.74546 7 6.5C7 6.22386 6.77614 6 6.5 6H4.5L4.41012 6.00806C4.17688 6.05039 4 6.25454 4 6.5C4 6.77614 4.22386 7 4.5 7H6.5L6.58988 6.99194ZM6.58988 9.99194C6.82312 9.94961 7 9.74546 7 9.5C7 9.22386 6.77614 9 6.5 9H4.5L4.41012 9.00806C4.17688 9.05039 4 9.25454 4 9.5C4 9.77614 4.22386 10 4.5 10H6.5L6.58988 9.99194ZM7 12.5C7 12.2239 6.77614 12 6.5 12H4.5L4.41012 12.0081C4.17688 12.0504 4 12.2545 4 12.5C4 12.7761 4.22386 13 4.5 13H6.5L6.58988 12.9919C6.82312 12.9496 7 12.7455 7 12.5ZM19 14.5C19 16.9853 16.9853 19 14.5 19C12.0147 19 10 16.9853 10 14.5C10 12.0147 12.0147 10 14.5 10C16.9853 10 19 12.0147 19 14.5ZM15.2071 14.5L16.3536 13.3536C16.5488 13.1583 16.5488 12.8417 16.3536 12.6464C16.1583 12.4512 15.8417 12.4512 15.6464 12.6464L14.5 13.7929L13.3536 12.6464C13.1583 12.4512 12.8417 12.4512 12.6464 12.6464C12.4512 12.8417 12.4512 13.1583 12.6464 13.3536L13.7929 14.5L12.6464 15.6464C12.4512 15.8417 12.4512 16.1583 12.6464 16.3536C12.8417 16.5488 13.1583 16.5488 13.3536 16.3536L14.5 15.2071L15.6464 16.3536C15.8417 16.5488 16.1583 16.5488 16.3536 16.3536C16.5488 16.1583 16.5488 15.8417 16.3536 15.6464L15.2071 14.5Z" fill="#212121"/>
</svg>
