<svg width="16" height="16" viewBox="0 0 16 16" fill="none" xmlns="http://www.w3.org/2000/svg">
<path d="M8.76248 13.9975C9.36639 13.9528 9.87727 13.534 10.0159 12.9559L10.74 9.93009C10.7468 9.90157 10.7621 9.8756 10.784 9.85536C11.9201 8.80654 12.5009 7.63212 12.5009 6.34975C12.5009 3.9465 10.4857 1.99829 7.99973 1.99829C5.51379 1.99829 3.49854 3.9465 3.49854 6.34975C3.49854 7.63211 4.07976 8.80654 5.21645 9.85538C5.23838 9.87562 5.2537 9.90162 5.26052 9.93019L5.98279 12.9549L6.011 13.0553C6.19211 13.6144 6.72962 14.0015 7.34389 14.0015H8.65499L8.76248 13.9975Z" fill="url(#paint0_radial_71639_14240)"/>
<path d="M8.76248 13.9975C9.36639 13.9528 9.87727 13.534 10.0159 12.9559L10.74 9.93009C10.7468 9.90157 10.7621 9.8756 10.784 9.85536C11.9201 8.80654 12.5009 7.63212 12.5009 6.34975C12.5009 3.9465 10.4857 1.99829 7.99973 1.99829C5.51379 1.99829 3.49854 3.9465 3.49854 6.34975C3.49854 7.63211 4.07976 8.80654 5.21645 9.85538C5.23838 9.87562 5.2537 9.90162 5.26052 9.93019L5.98279 12.9549L6.011 13.0553C6.19211 13.6144 6.72962 14.0015 7.34389 14.0015H8.65499L8.76248 13.9975Z" fill="url(#paint1_linear_71639_14240)"/>
<path d="M8.76248 13.9975C9.36639 13.9528 9.87727 13.534 10.0159 12.9559L10.74 9.93009C10.7468 9.90157 10.7621 9.8756 10.784 9.85536C11.9201 8.80654 12.5009 7.63212 12.5009 6.34975C12.5009 3.9465 10.4857 1.99829 7.99973 1.99829C5.51379 1.99829 3.49854 3.9465 3.49854 6.34975C3.49854 7.63211 4.07976 8.80654 5.21645 9.85538C5.23838 9.87562 5.2537 9.90162 5.26052 9.93019L5.98279 12.9549L6.011 13.0553C6.19211 13.6144 6.72962 14.0015 7.34389 14.0015H8.65499L8.76248 13.9975Z" fill="url(#paint2_radial_71639_14240)" fill-opacity="0.2"/>
<path d="M8.76248 13.9975C9.36639 13.9528 9.87727 13.534 10.0159 12.9559L10.74 9.93009C10.7468 9.90157 10.7621 9.8756 10.784 9.85536C11.9201 8.80654 12.5009 7.63212 12.5009 6.34975C12.5009 3.9465 10.4857 1.99829 7.99973 1.99829C5.51379 1.99829 3.49854 3.9465 3.49854 6.34975C3.49854 7.63211 4.07976 8.80654 5.21645 9.85538C5.23838 9.87562 5.2537 9.90162 5.26052 9.93019L5.98279 12.9549L6.011 13.0553C6.19211 13.6144 6.72962 14.0015 7.34389 14.0015H8.65499L8.76248 13.9975Z" fill="url(#paint3_radial_71639_14240)" fill-opacity="0.2"/>
<path d="M8.76248 13.9975C9.36639 13.9528 9.87727 13.534 10.0159 12.9559L10.74 9.93009C10.7468 9.90157 10.7621 9.8756 10.784 9.85536C11.9201 8.80654 12.5009 7.63212 12.5009 6.34975C12.5009 3.9465 10.4857 1.99829 7.99973 1.99829C5.51379 1.99829 3.49854 3.9465 3.49854 6.34975C3.49854 7.63211 4.07976 8.80654 5.21645 9.85538C5.23838 9.87562 5.2537 9.90162 5.26052 9.93019L5.98279 12.9549L6.011 13.0553C6.19211 13.6144 6.72962 14.0015 7.34389 14.0015H8.65499L8.76248 13.9975Z" fill="url(#paint4_radial_71639_14240)" fill-opacity="0.2"/>
<path d="M8.76248 13.9975C9.36639 13.9528 9.87727 13.534 10.0159 12.9559L10.74 9.93009C10.7468 9.90157 10.7621 9.8756 10.784 9.85536C11.9201 8.80654 12.5009 7.63212 12.5009 6.34975C12.5009 3.9465 10.4857 1.99829 7.99973 1.99829C5.51379 1.99829 3.49854 3.9465 3.49854 6.34975C3.49854 7.63211 4.07976 8.80654 5.21645 9.85538C5.23838 9.87562 5.2537 9.90162 5.26052 9.93019L5.98279 12.9549L6.011 13.0553C6.19211 13.6144 6.72962 14.0015 7.34389 14.0015H8.65499L8.76248 13.9975Z" fill="url(#paint5_radial_71639_14240)" fill-opacity="0.2"/>
<rect x="7.4873" y="6.99829" width="1.02302" height="4.70752" rx="0.511511" fill="url(#paint6_linear_71639_14240)"/>
<rect x="7.50244" y="4.00464" width="0.992283" height="1.98834" rx="0.496141" fill="url(#paint7_linear_71639_14240)"/>
<path d="M5.4131 6.01877C5.20931 5.81498 5.20931 5.48457 5.4131 5.28077C5.61689 5.07698 5.9473 5.07698 6.1511 5.28077L6.83742 5.9671C7.04121 6.17089 7.04121 6.5013 6.83742 6.7051C6.63363 6.90889 6.30322 6.90889 6.09942 6.7051L5.4131 6.01877Z" fill="url(#paint8_linear_71639_14240)"/>
<path d="M10.584 6.01876C10.7878 5.81497 10.7878 5.48456 10.584 5.28077C10.3802 5.07698 10.0498 5.07698 9.84599 5.28077L9.15968 5.96708C8.95589 6.17087 8.95589 6.50128 9.15968 6.70507C9.36347 6.90886 9.69387 6.90886 9.89766 6.70507L10.584 6.01876Z" fill="url(#paint9_linear_71639_14240)"/>
<path d="M5.7549 12H10.2448L10.4841 11H5.51611L5.7549 12Z" fill="url(#paint10_linear_71639_14240)"/>
<defs>
<radialGradient id="paint0_radial_71639_14240" cx="0" cy="0" r="1" gradientUnits="userSpaceOnUse" gradientTransform="translate(4.99848 3.17671) rotate(73.9841) scale(10.7276 16.3293)">
<stop stop-color="#FFE06B"/>
<stop offset="0.376456" stop-color="#FFA43D"/>
<stop offset="1" stop-color="#E67505"/>
</radialGradient>
<linearGradient id="paint1_linear_71639_14240" x1="7.99973" y1="1.99829" x2="7.99973" y2="14.0015" gradientUnits="userSpaceOnUse">
<stop offset="0.765622" stop-color="#D34719" stop-opacity="0"/>
<stop offset="0.791013" stop-color="#D34719"/>
<stop offset="1" stop-color="#D34719" stop-opacity="0"/>
</linearGradient>
<radialGradient id="paint2_radial_71639_14240" cx="0" cy="0" r="1" gradientUnits="userSpaceOnUse" gradientTransform="translate(6.44046 6.8275) rotate(54.8658) scale(1.16104 0.928275)">
<stop offset="0.165145" stop-color="#741C06"/>
<stop offset="0.854115" stop-color="#741C06" stop-opacity="0"/>
</radialGradient>
<radialGradient id="paint3_radial_71639_14240" cx="0" cy="0" r="1" gradientUnits="userSpaceOnUse" gradientTransform="translate(7.99973 5.96005) rotate(90) scale(1.27773 0.958295)">
<stop offset="0.165145" stop-color="#741C06"/>
<stop offset="0.854115" stop-color="#741C06" stop-opacity="0"/>
</radialGradient>
<radialGradient id="paint4_radial_71639_14240" cx="0" cy="0" r="1" gradientUnits="userSpaceOnUse" gradientTransform="translate(9.75786 6.89783) rotate(130.752) scale(1.15414 0.865602)">
<stop offset="0.165145" stop-color="#741C06"/>
<stop offset="0.854115" stop-color="#741C06" stop-opacity="0"/>
</radialGradient>
<radialGradient id="paint5_radial_71639_14240" cx="0" cy="0" r="1" gradientUnits="userSpaceOnUse" gradientTransform="translate(7.99973 9.28917) rotate(-180) scale(1.14899 3.30922)">
<stop offset="0.165145" stop-color="#741C06"/>
<stop offset="0.777027" stop-color="#741C06" stop-opacity="0"/>
</radialGradient>
<linearGradient id="paint6_linear_71639_14240" x1="7.99882" y1="6.99829" x2="7.99882" y2="11.7083" gradientUnits="userSpaceOnUse">
<stop stop-color="#FFF2BE"/>
<stop offset="0.43735" stop-color="#FFD638"/>
</linearGradient>
<linearGradient id="paint7_linear_71639_14240" x1="7.50244" y1="4.99881" x2="8.49472" y2="4.99881" gradientUnits="userSpaceOnUse">
<stop stop-color="#FFF2BE"/>
<stop offset="1" stop-color="#FFD638"/>
</linearGradient>
<linearGradient id="paint8_linear_71639_14240" x1="5.77587" y1="6.35248" x2="6.47787" y2="5.65047" gradientUnits="userSpaceOnUse">
<stop stop-color="#FFF2BE"/>
<stop offset="1" stop-color="#FFD638"/>
</linearGradient>
<linearGradient id="paint9_linear_71639_14240" x1="9.49242" y1="5.67685" x2="10.1891" y2="6.37357" gradientUnits="userSpaceOnUse">
<stop stop-color="#FFF2BE"/>
<stop offset="1" stop-color="#FFD638"/>
</linearGradient>
<linearGradient id="paint10_linear_71639_14240" x1="7.607" y1="11.2987" x2="8.17299" y2="12.7984" gradientUnits="userSpaceOnUse">
<stop stop-color="#FFC7A3"/>
<stop offset="1" stop-color="#FF9C70"/>
</linearGradient>
</defs>
</svg>
