<svg width="24" height="24" viewBox="0 0 24 24" fill="none" xmlns="http://www.w3.org/2000/svg">
<path d="M6.25 8C5.83579 8 5.5 7.66421 5.5 7.25C5.5 6.83579 5.83579 6.5 6.25 6.5H15.25C15.6642 6.5 16 6.83579 16 7.25C16 7.66421 15.6642 8 15.25 8H6.25ZM21.2803 14.7803C21.0141 15.0466 20.5974 15.0708 20.3038 14.8529L20.2197 14.7803L18.2197 12.7803C17.9534 12.5141 17.9292 12.0974 18.1471 11.8038L18.2197 11.7197L20.2197 9.71967C20.5126 9.42678 20.9874 9.42678 21.2803 9.71967C21.5466 9.98594 21.5708 10.4026 21.3529 10.6962L21.2803 10.7803L19.8107 12.25L21.2803 13.7197C21.5732 14.0126 21.5732 14.4874 21.2803 14.7803ZM3.25 13C2.83579 13 2.5 12.6642 2.5 12.25C2.5 11.8358 2.83579 11.5 3.25 11.5H15.25C15.6642 11.5 16 11.8358 16 12.25C16 12.6642 15.6642 13 15.25 13H3.25ZM6.25 18C5.83579 18 5.5 17.6642 5.5 17.25C5.5 16.8358 5.83579 16.5 6.25 16.5H15.25C15.6642 16.5 16 16.8358 16 17.25C16 17.6642 15.6642 18 15.25 18H6.25Z" fill="#212121"/>
</svg>
