<svg xmlns="http://www.w3.org/2000/svg" width="24" height="24" fill="none" viewBox="0 0 24 24"><path fill="#212121" d="M13.784 11.795a3.724 3.724 0 1 0-1.024 1.024l2.476 2.475.067.058.007.006a.724.724 0 0 0 .943-1.093zm-3.095-4.348a2.276 2.276 0 1 1 0 4.553 2.276 2.276 0 0 1 0-4.553"/><path fill="#212121" d="M17.5 2A2.5 2.5 0 0 1 20 4.5v15a2.5 2.5 0 0 1-2.5 2.5H4.25a.75.75 0 0 1 0-1.5H17.5a1 1 0 0 0 1-1H4.25a.75.75 0 0 1-.75-.75V4.5A2.5 2.5 0 0 1 6 2zM5 18h13.5V4.5a1 1 0 0 0-1-1H6a1 1 0 0 0-1 1z"/></svg>