<svg width="25" height="24" viewBox="0 0 25 24" fill="none" xmlns="http://www.w3.org/2000/svg">
<path d="M22.1963 3.28033C22.4892 2.98744 22.4892 2.51256 22.1963 2.21967C21.9035 1.92678 21.4286 1.92678 21.1357 2.21967L19.1237 4.23161C17.4643 3.05263 15.1484 3.20693 13.6608 4.6945L12.5928 5.76252C11.9093 6.44594 11.9093 7.55398 12.5928 8.2374L16.1786 11.8232C16.862 12.5066 17.97 12.5066 18.6534 11.8232L19.7214 10.7552C21.209 9.26761 21.3633 6.9517 20.1844 5.29228L22.1963 3.28033ZM18.6105 5.75516L18.6333 5.77798L18.6357 5.78033L18.638 5.78267L18.6608 5.80542C19.7347 6.87936 19.7347 8.62056 18.6608 9.6945L17.5928 10.7625C17.4951 10.8602 17.3368 10.8602 17.2392 10.7625L13.6534 7.17674C13.5558 7.07911 13.5558 6.92082 13.6534 6.82318L14.7214 5.75516C15.7954 4.68122 17.5366 4.68122 18.6105 5.75516ZM11.1963 11.2803C11.4892 10.9874 11.4892 10.5126 11.1963 10.2197C10.9035 9.92678 10.4286 9.92678 10.1357 10.2197L8.41603 11.9393L7.94637 11.4697C7.65347 11.1768 7.1786 11.1768 6.88571 11.4697L5.11058 13.2448C3.62302 14.7324 3.46871 17.0483 4.64765 18.7077L2.63569 20.7197C2.34279 21.0126 2.34279 21.4874 2.63569 21.7803C2.92858 22.0732 3.40345 22.0732 3.69635 21.7803L5.70831 19.7684C7.36773 20.9473 9.68367 20.793 11.1712 19.3055L12.9464 17.5303C13.2393 17.2374 13.2393 16.7626 12.9464 16.4697L12.4767 16L14.1963 14.2803C14.4892 13.9874 14.4892 13.5126 14.1963 13.2197C13.9035 12.9268 13.4286 12.9268 13.1357 13.2197L11.416 14.9393L9.47669 13L11.1963 11.2803ZM7.88233 13.527L7.88569 13.5303L7.88906 13.5337L10.8824 16.527L10.8857 16.5303L10.889 16.5336L11.3554 17L10.1106 18.2448C9.03664 19.3187 7.29544 19.3187 6.22149 18.2448L6.17124 18.1945C5.0973 17.1206 5.0973 15.3794 6.17124 14.3055L7.41604 13.0607L7.88233 13.527Z" fill="#212121"/>
</svg>
