<svg width="25" height="24" viewBox="0 0 25 24" fill="none" xmlns="http://www.w3.org/2000/svg">
<path d="M11.4164 17.5003C11.4164 16.2113 11.7915 15.01 12.4386 13.9996L4.6688 14.0002C3.42678 14.0002 2.41992 15.007 2.41992 16.2491V17.169C2.41992 17.7411 2.59833 18.2989 2.93029 18.7648C4.47245 20.9292 6.99541 22.0013 10.4164 22.0013C11.3477 22.0013 12.2126 21.9219 13.0081 21.7618C12.0166 20.6207 11.4164 19.1306 11.4164 17.5003ZM15.4164 7.00488C15.4164 4.24346 13.1778 2.00488 10.4164 2.00488C7.65496 2.00488 5.41638 4.24346 5.41638 7.00488C5.41638 9.76631 7.65496 12.0049 10.4164 12.0049C13.1778 12.0049 15.4164 9.76631 15.4164 7.00488ZM23.4164 17.5002C23.4164 14.4627 20.9539 12.0002 17.9164 12.0002C14.8788 12.0002 12.4164 14.4627 12.4164 17.5002C12.4164 20.5378 14.8788 23.0002 17.9164 23.0002C20.9539 23.0002 23.4164 20.5378 23.4164 17.5002ZM17.8265 14.0083L17.9164 14.0002L18.0063 14.0083C18.2104 14.0453 18.3713 14.2063 18.4083 14.4104L18.4164 14.5002L18.4154 17.0002H20.9203L21.0102 17.0083C21.2143 17.0453 21.3752 17.2063 21.4122 17.4104L21.4203 17.5002L21.4122 17.5901C21.3752 17.7942 21.2143 17.9551 21.0102 17.9922L20.9203 18.0002H18.4154L18.4164 20.5002L18.4083 20.5901C18.3713 20.7942 18.2104 20.9551 18.0063 20.9922L17.9164 21.0002L17.8265 20.9922C17.6224 20.9551 17.4615 20.7942 17.4244 20.5901L17.4164 20.5002L17.4154 18.0002H14.9203L14.8304 17.9922C14.6263 17.9551 14.4654 17.7942 14.4283 17.5901L14.4203 17.5002L14.4283 17.4104C14.4654 17.2063 14.6263 17.0453 14.8304 17.0083L14.9203 17.0002H17.4154L17.4164 14.5002L17.4244 14.4104C17.4615 14.2063 17.6224 14.0453 17.8265 14.0083Z" fill="#212121"/>
</svg>
