<svg width="48" height="48" viewBox="0 0 48 48" fill="none" xmlns="http://www.w3.org/2000/svg">
<path d="M22 4C16.4772 4 12 8.47715 12 14C12 19.5228 16.4772 24 22 24C27.5228 24 32 19.5228 32 14C32 8.47715 27.5228 4 22 4ZM14.5 14C14.5 9.85786 17.8579 6.5 22 6.5C26.1421 6.5 29.5 9.85786 29.5 14C29.5 18.1421 26.1421 21.5 22 21.5C17.8579 21.5 14.5 18.1421 14.5 14ZM10.2499 28C7.90326 28 6.00002 29.9013 6 32.2489L6 33C6 36.7555 7.94167 39.5669 10.9202 41.3802C13.8491 43.1633 17.7861 44 22 44C23.1715 44 24.3216 43.9353 25.4346 43.8036C24.7757 43.0881 24.1961 42.2985 23.7096 41.4487C23.1517 41.4828 22.5813 41.5 22 41.5C18.0677 41.5 14.6297 40.7117 12.2202 39.2448C9.86023 37.8081 8.5 35.7444 8.5 33L8.5 32.2489C8.50001 31.283 9.28295 30.5 10.2499 30.5H22.7999C23.1255 29.6177 23.544 28.7804 24.0437 28H10.2499ZM46 35C46 41.0751 41.0751 46 35 46C28.9249 46 24 41.0751 24 35C24 28.9249 28.9249 24 35 24C41.0751 24 46 28.9249 46 35ZM36 28C36 27.4477 35.5523 27 35 27C34.4477 27 34 27.4477 34 28V34H28C27.4477 34 27 34.4477 27 35C27 35.5523 27.4477 36 28 36H34V42C34 42.5523 34.4477 43 35 43C35.5523 43 36 42.5523 36 42V36H42C42.5523 36 43 35.5523 43 35C43 34.4477 42.5523 34 42 34H36V28Z" fill="#212121"/>
</svg>
