<svg width="28" height="28" viewBox="0 0 28 28" fill="none" xmlns="http://www.w3.org/2000/svg">
<path d="M17 3H6.75C4.67893 3 3 4.67893 3 6.75V21.25C3 23.3211 4.67893 25 6.75 25H17V23H15.5001C14.3989 23 13.6731 21.853 14.1445 20.8578L17 14.8304V3ZM25 13H18.8164C18.7086 13 18.6027 13.0115 18.5 13.0337V9.5H25V13ZM18.5 8V3H21.25C23.3211 3 25 4.67893 25 6.75V8H18.5ZM6.5 8.75C6.5 8.05964 7.05964 7.5 7.75 7.5H12.75C13.4404 7.5 14 8.05964 14 8.75V12.25C14 12.9404 13.4404 13.5 12.75 13.5H7.75C7.05964 13.5 6.5 12.9404 6.5 12.25V8.75ZM8 9V12H12.5V9H8ZM7.25 17C6.83579 17 6.5 16.6642 6.5 16.25C6.5 15.8358 6.83579 15.5 7.25 15.5H13.25C13.6642 15.5 14 15.8358 14 16.25C14 16.6642 13.6642 17 13.25 17H7.25ZM6.5 19.75C6.5 19.3358 6.83579 19 7.25 19H13.25C13.6642 19 14 19.3358 14 19.75C14 20.1642 13.6642 20.5 13.25 20.5H7.25C6.83579 20.5 6.5 20.1642 6.5 19.75ZM18.8173 14H25.146C25.5284 14 25.7693 14.4118 25.5818 14.7451L23.7509 18H25.2657C25.9072 18 26.2526 18.7531 25.8341 19.2393L19.4185 26.6917C18.8964 27.2982 17.9197 26.7438 18.1728 25.9846L19.5009 22H15.5011C15.134 22 14.8921 21.6177 15.0492 21.2859L18.3655 14.2859C18.4482 14.1113 18.6241 14 18.8173 14Z" fill="#212121"/>
</svg>
