<svg width="16" height="16" viewBox="0 0 16 16" fill="none" xmlns="http://www.w3.org/2000/svg">
<path d="M9.26754 4.66041C9.56827 4.95903 10.0558 4.95903 10.3566 4.66041C10.6573 4.36178 10.6573 3.87761 10.3566 3.57898C10.0558 3.28036 9.56827 3.28036 9.26754 3.57898C8.96681 3.87761 8.96681 4.36178 9.26754 4.66041ZM1.53595 6.32965C0.749733 7.11102 0.749735 8.37788 1.53596 9.15926L4.84578 12.4487C5.4282 13.0275 6.27869 13.1775 7.00009 12.8988V11.7224L6.98115 11.7413C6.58804 12.132 5.95068 12.132 5.55757 11.7413L2.24775 8.45185C1.85463 8.06116 1.85463 7.42773 2.24774 7.03705L7.00715 2.30698C7.1949 2.12039 7.44922 2.01508 7.71473 2.01397L10.9788 2.00043C11.5393 1.9981 11.9937 2.4511 11.9896 3.00806L11.9749 5.03736C12.335 5.09461 12.6737 5.21593 12.979 5.38925L12.9962 3.01528C13.0043 1.90136 12.0955 0.995366 10.9746 1.00002L7.71053 1.01357C7.1795 1.01577 6.67086 1.2264 6.29536 1.59958L1.53595 6.32965ZM9.5 8V9H9C8.44772 9 8 9.44772 8 10V14C8 14.5523 8.44771 15 9 15H14C14.5523 15 15 14.5523 15 14V10C15 9.44772 14.5523 9 14 9H13.5V8C13.5 6.89543 12.6046 6 11.5 6C10.3954 6 9.5 6.89543 9.5 8ZM10.5 9V8C10.5 7.44772 10.9477 7 11.5 7C12.0523 7 12.5 7.44772 12.5 8V9H10.5ZM11.5 11.25C11.9142 11.25 12.25 11.5858 12.25 12C12.25 12.4142 11.9142 12.75 11.5 12.75C11.0858 12.75 10.75 12.4142 10.75 12C10.75 11.5858 11.0858 11.25 11.5 11.25Z" fill="#212121"/>
</svg>
