<svg width="32" height="32" viewBox="0 0 32 32" fill="none" xmlns="http://www.w3.org/2000/svg">
<path d="M17.9339 3C17.072 3 16.2453 3.34241 15.6358 3.9519L3.95581 15.6319C2.6866 16.9011 2.68661 18.9589 3.95581 20.2281L11.7738 28.0461C12.6702 28.9425 13.96 29.2058 15.0875 28.836C15.0302 28.5664 15 28.2867 15 28V26.5877L14.9558 26.6319C14.4677 27.1201 13.6762 27.1201 13.188 26.6319L5.37002 18.8139C4.88187 18.3257 4.88187 17.5343 5.37002 17.0461L17.05 5.36612C17.2844 5.1317 17.6024 5 17.9339 5H25.7519C26.4423 5 27.0019 5.55964 27.0019 6.25V14.068C27.0019 14.3995 26.8702 14.7175 26.6358 14.9519L26.3234 15.2643C26.8285 15.714 27.2418 16.2646 27.5317 16.8844L28.05 16.3661C28.6595 15.7566 29.0019 14.93 29.0019 14.068V6.25C29.0019 4.45507 27.5469 3 25.7519 3H17.9339ZM23.0019 11C24.1065 11 25.0019 10.1046 25.0019 9C25.0019 7.89543 24.1065 7 23.0019 7C21.8974 7 21.0019 7.89543 21.0019 9C21.0019 10.1046 21.8974 11 23.0019 11ZM19.5 19.5H19C17.6193 19.5 16.5 20.6193 16.5 22V28C16.5 29.3807 17.6193 30.5 19 30.5H27C28.3807 30.5 29.5 29.3807 29.5 28V22C29.5 20.6193 28.3807 19.5 27 19.5H26.5V19C26.5 17.067 24.933 15.5 23 15.5C21.067 15.5 19.5 17.067 19.5 19V19.5ZM21.5 19C21.5 18.1716 22.1716 17.5 23 17.5C23.8284 17.5 24.5 18.1716 24.5 19V19.5H21.5V19ZM25 25C25 26.1046 24.1046 27 23 27C21.8954 27 21 26.1046 21 25C21 23.8954 21.8954 23 23 23C24.1046 23 25 23.8954 25 25Z" fill="#212121"/>
</svg>
