<svg width="20" height="20" viewBox="0 0 20 20" fill="none" xmlns="http://www.w3.org/2000/svg">
<path d="M8.30599 5.74586C8.20774 5.47305 8.24924 5.18687 8.42418 4.96709C8.5954 4.75199 8.97946 4.5 9.75078 4.5C10.5466 4.5 11.0311 4.70983 11.2996 4.88171C11.4373 4.9698 11.5268 5.05347 11.5767 5.10671C11.6017 5.13338 11.6167 5.15241 11.6228 5.16044L11.6246 5.16272C11.8478 5.5018 12.3022 5.60233 12.6483 5.386C12.9995 5.16646 13.1063 4.70375 12.8868 4.3525C12.6483 3.97091 12.8862 4.35165 12.8862 4.35165L12.8857 4.35078L12.8846 4.34896L12.8821 4.34504L12.8763 4.33608C12.872 4.32962 12.8671 4.3222 12.8613 4.31387C12.8499 4.29723 12.8354 4.27696 12.8177 4.25362C12.7823 4.20697 12.7339 4.14787 12.671 4.08079C12.5451 3.94653 12.3612 3.7802 12.1082 3.6183C11.5955 3.29018 10.83 3 9.75079 3C8.6471 3 7.77588 3.373 7.25059 4.03291C6.72904 4.68813 6.63283 5.52695 6.89474 6.25414C7.34926 7.51613 8.51579 8.0283 9.38407 8.40952C9.45221 8.43944 9.51859 8.46858 9.58257 8.49719C10.5599 8.93415 11.293 9.3298 11.6499 10.2669C11.8622 10.8244 11.7636 11.3647 11.4552 11.7711C11.1459 12.179 10.585 12.5 9.79202 12.5C8.70479 12.5 8.11839 12.1787 7.81543 11.925C7.65784 11.793 7.56093 11.6659 7.50652 11.5807C7.47928 11.5381 7.46286 11.5062 7.4551 11.49L7.45065 11.4804C7.30454 11.1006 6.8808 10.9058 6.49623 11.0445C6.1066 11.1851 5.90475 11.6149 6.04534 12.0046C6.05313 12.0254 6.04568 12.0056 6.04568 12.0056L6.04607 12.0067L6.04689 12.0089L6.04872 12.0138L6.05313 12.0254C6.05641 12.0339 6.06038 12.0438 6.06509 12.0551C6.07452 12.0778 6.08693 12.106 6.10275 12.1389C6.13435 12.2048 6.17975 12.2901 6.24231 12.388C6.36751 12.5841 6.56216 12.832 6.85239 13.075C7.44505 13.5713 8.37927 14 9.79205 14C11.0074 14 12.0302 13.4952 12.6503 12.6776C13.2715 11.8587 13.4481 10.774 13.0517 9.73309C12.4565 8.1702 11.1746 7.56585 10.1948 7.12781C9.11691 6.64591 8.53612 6.38479 8.30599 5.74586ZM5.80078 15.55C5.38657 15.55 5.05078 15.8858 5.05078 16.3C5.05078 16.7142 5.38657 17.05 5.80078 17.05H14.3008C14.715 17.05 15.0508 16.7142 15.0508 16.3C15.0508 15.8858 14.715 15.55 14.3008 15.55H5.80078Z" fill="#212121"/>
</svg>
