<svg width="24" height="24" viewBox="0 0 24 24" fill="none" xmlns="http://www.w3.org/2000/svg">
<path d="M21 19C21 21.5 16.9706 23 12 23C7.02944 23 3 21.5 3 19C3 16.5938 7.02944 15 12 15C16.9706 15 21 16.5 21 19Z" fill="url(#paint0_radial_72095_9246)"/>
<path d="M12 2C7.85786 2 4.5 5.35786 4.5 9.5C4.5 11.4319 5.56439 13.3007 6.76779 14.8164C7.98797 16.3533 9.44602 17.6449 10.4234 18.4378C11.3487 19.1885 12.6513 19.1885 13.5766 18.4378C14.554 17.6449 16.012 16.3533 17.2322 14.8164C18.4356 13.3007 19.5 11.4319 19.5 9.5C19.5 5.35786 16.1421 2 12 2Z" fill="url(#paint1_linear_72095_9246)"/>
<path d="M14.5 9.5C14.5 10.8807 13.3807 12 12 12C10.6193 12 9.5 10.8807 9.5 9.5C9.5 8.11929 10.6193 7 12 7C13.3807 7 14.5 8.11929 14.5 9.5Z" fill="url(#paint2_linear_72095_9246)"/>
<defs>
<radialGradient id="paint0_radial_72095_9246" cx="0" cy="0" r="1" gradientUnits="userSpaceOnUse" gradientTransform="translate(11.3571 17.6667) rotate(-10.6779) scale(14.3921 6.38107)">
<stop stop-color="#7B7BFF"/>
<stop offset="0.501667" stop-color="#A3A3FF"/>
<stop offset="1" stop-color="#CEB0FF"/>
</radialGradient>
<linearGradient id="paint1_linear_72095_9246" x1="1.21875" y1="-2.85737" x2="13.2024" y2="16.5487" gradientUnits="userSpaceOnUse">
<stop stop-color="#F97DBD"/>
<stop offset="1" stop-color="#D7257D"/>
</linearGradient>
<linearGradient id="paint2_linear_72095_9246" x1="9.79029" y1="9.72097" x2="12.3938" y2="12.4282" gradientUnits="userSpaceOnUse">
<stop stop-color="#FDFDFD"/>
<stop offset="1" stop-color="#FECBE6"/>
</linearGradient>
</defs>
</svg>
