<?xml version="1.0" encoding="UTF-8"?>
<svg width="20px" height="20px" viewBox="0 0 20 20" version="1.1" xmlns="http://www.w3.org/2000/svg" xmlns:xlink="http://www.w3.org/1999/xlink">
    <!-- Generator: Sketch 59.1 (86144) - https://sketch.com -->
    <title>ic_fluent_classification_20_regular</title>
    <desc>Created with Sketch.</desc>
    <g id="ðŸ”-Product-Icons" stroke="none" stroke-width="1" fill="none" fill-rule="evenodd">
        <g id="ic_fluent_classification_20_regular" fill="#212121" fill-rule="nonzero">
            <path d="M2.21989901,11.2553191 L4.21899766,9.25794649 C4.48523742,8.9919366 4.90164427,8.96777566 5.19516273,9.18544851 L5.27925856,9.25800536 L10.7801599,14.755378 C11.0465723,15.0216195 11.0708546,15.4383893 10.8529629,15.7320703 L10.7803301,15.8162083 L8.78033009,17.8162083 C8.51406352,18.0824748 8.09739984,18.1066809 7.80378835,17.8888264 L7.71966991,17.8162083 L2.21966991,12.3162083 C1.95332203,12.0498604 1.92919337,11.6330433 2.14722483,11.3394325 L2.21989901,11.2553191 L4.21899766,9.25794649 L2.21989901,11.2553191 Z M4.74903978,10.8487668 L3.81088927,11.7861073 L8.25,16.225218 L9.18916965,15.2860483 L4.74903978,10.8487668 Z M18.2797091,1.75420493 C18.4615134,1.935826 18.6151322,2.14361645 18.7354678,2.37068112 C19.3753363,3.57806703 18.9592699,5.06395824 17.8122339,5.77060053 L17.6650708,5.85479572 L16.497,6.473 L17.012979,6.98819699 C18.2352922,8.21051015 18.2804079,10.1641229 17.148403,11.4398629 L17.0125631,11.5839752 L15.7803301,12.8162083 C15.5140635,13.0824748 15.0973998,13.1066809 14.8037883,12.8888264 L14.7196699,12.8162083 L14.25,12.3467961 L12.7803301,13.8162083 C12.5140635,14.0824748 12.0973998,14.1066809 11.8037883,13.8888264 L11.7196699,13.8162083 L6.21966991,8.31620825 C5.95332203,8.04986037 5.92919337,7.63304329 6.14722483,7.33943247 L6.21989901,7.25531908 L7.689,5.78579606 L7.21966991,5.31620825 C6.95334915,5.04988749 6.92919467,4.63312158 7.1471671,4.33951052 L7.21982259,4.25539545 L8.45114855,3.02477863 C9.6740236,1.80492192 11.6259175,1.75979215 12.9031837,2.88980095 L13.0474868,3.02540171 L13.561,3.539 L14.1789061,2.37215165 C14.2689561,2.20200594 14.3776836,2.04266109 14.5029494,1.89701538 L14.6336487,1.75604339 C15.6399728,0.748703938 17.2723697,0.747880832 18.2797091,1.75420493 Z M8.74903978,6.84876676 L7.81088927,7.78610726 L12.25,12.225218 L13.1891696,11.2860483 L8.74903978,6.84876676 Z M9.63592137,3.97293845 L9.51100034,4.08624632 L8.81081285,4.78603084 L15.25,11.225218 L15.9521289,10.5230892 C16.6298504,9.84594479 16.6356929,8.7510634 15.9695783,8.06635568 L11.9875792,4.08681369 C11.3434701,3.44422691 10.323822,3.40640188 9.63592137,3.97293845 Z M15.6948436,2.81616861 C15.6442693,2.86679392 15.598924,2.92226492 15.559436,2.98173037 L15.5046755,3.07381797 L14.6719674,4.64718535 L15.3884656,5.36368364 L16.9626698,4.52941546 C17.4883761,4.25081113 17.6886919,3.59878849 17.4100876,3.07308213 C17.3597882,2.97817083 17.2955767,2.89131601 17.2195839,2.81539979 C16.7983262,2.39456668 16.1156767,2.39491089 15.6948436,2.81616861 Z" id="ðŸŽ¨-Color"></path>
        </g>
    </g>
</svg>