<svg width="16" height="16" viewBox="0 0 16 16" fill="none" xmlns="http://www.w3.org/2000/svg">
<path d="M2.5 2C2.22386 2 2 2.22386 2 2.5C2 2.77614 2.22386 3 2.5 3H13.5C13.7761 3 14 2.77614 14 2.5C14 2.22386 13.7761 2 13.5 2H2.5ZM11.5 14C12.8807 14 14 12.8807 14 11.5V6.5C14 6.22386 13.7761 6 13.5 6H2.5C2.22386 6 2 6.22386 2 6.5V11.5C2 12.8807 3.11929 14 4.5 14H11.5ZM3 7H5L5 10H3L3 7ZM6 7L10 7V10L6 10L6 7ZM11 7H13V10H11V7ZM10 13H6L6 11H10V13ZM5 13H4.5C3.67157 13 3 12.3284 3 11.5V11H5V13ZM11 13V11H13V11.5C13 12.3284 12.3284 13 11.5 13H11Z" fill="#212121"/>
</svg>
