<svg width="48" height="48" viewBox="0 0 48 48" fill="none" xmlns="http://www.w3.org/2000/svg">
<path d="M13.0448 16C13.5501 10.3935 18.262 6 24 6C29.738 6 34.4499 10.3935 34.9552 16H35.25C39.5302 16 43 19.4698 43 23.75C43 24.0487 42.9831 24.3434 42.9502 24.6333C42.1752 23.7126 41.2746 22.9009 40.275 22.2246C39.6215 20.0691 37.619 18.5 35.25 18.5H33.75C33.0596 18.5 32.5 17.9404 32.5 17.25V17C32.5 12.3056 28.6944 8.5 24 8.5C19.3056 8.5 15.5 12.3056 15.5 17V17.25C15.5 17.9404 14.9404 18.5 14.25 18.5H12.75C9.8505 18.5 7.5 20.8505 7.5 23.75C7.5 26.6495 9.8505 29 12.75 29H20.627C20.3679 29.8021 20.1846 30.6382 20.0856 31.5H12.75C8.46979 31.5 5 28.0302 5 23.75C5 19.4698 8.46979 16 12.75 16H13.0448ZM22 33C22 39.0751 26.9249 44 33 44C39.0751 44 44 39.0751 44 33C44 26.9249 39.0751 22 33 22C26.9249 22 22 26.9249 22 33ZM30.6472 25.9072C31.6238 25.5587 32.6658 25.4315 33.6976 25.5349C34.7294 25.6382 35.7254 25.9695 36.6136 26.5049C37.1217 26.8111 37.5873 27.1798 38 27.6011V27C38 26.4477 38.4477 26 39 26C39.5523 26 40 26.4477 40 27V30C40 30.5523 39.5523 31 39 31H36C35.4477 31 35 30.5523 35 30C35 29.4477 35.4477 29 36 29H36.5707C36.276 28.6994 35.9437 28.4363 35.5811 28.2178C34.9467 27.8354 34.2353 27.5987 33.4983 27.5249C32.7612 27.4511 32.017 27.5419 31.3194 27.7909C30.6218 28.0399 29.9882 28.4407 29.4644 28.9645C29.0739 29.355 28.4407 29.355 28.0502 28.9645C27.6597 28.5739 27.6597 27.9408 28.0502 27.5503C28.7835 26.817 29.6705 26.2558 30.6472 25.9072ZM35.353 40.0928C34.3763 40.4413 33.3344 40.5685 32.3025 40.4651C31.2707 40.3618 30.2747 40.0305 29.3866 39.4951C28.8784 39.1889 28.4129 38.8202 28.0001 38.3989V39C28.0001 39.5523 27.5524 40 27.0001 40C26.4478 40 26.0001 39.5523 26.0001 39V36C26.0001 35.4477 26.4478 35 27.0001 35H30.0001C30.5524 35 31.0001 35.4477 31.0001 36C31.0001 36.5523 30.5524 37 30.0001 37H29.4295C29.7241 37.3006 30.0564 37.5637 30.419 37.7822C31.0534 38.1646 31.7648 38.4013 32.5019 38.4751C33.2389 38.5489 33.9831 38.4581 34.6807 38.2091C35.3784 37.9601 36.0119 37.5593 36.5357 37.0355C36.9262 36.645 37.5594 36.645 37.9499 37.0355C38.3405 37.4261 38.3405 38.0592 37.9499 38.4497C37.2167 39.183 36.3296 39.7442 35.353 40.0928Z" fill="#212121"/>
</svg>
