<svg width="24" height="24" viewBox="0 0 24 24" fill="none" xmlns="http://www.w3.org/2000/svg">
<path d="M3 6.25C3 4.45507 4.45507 3 6.25 3H17.75C19.5449 3 21 4.45507 21 6.25V17.75C21 19.5449 19.5449 21 17.75 21H6.25C4.45507 21 3 19.5449 3 17.75V6.25ZM13.4905 9.49994L8.22232 14.7171C7.928 15.0086 7.92569 15.4834 8.21715 15.7777C8.50862 16.0721 8.98349 16.0744 9.2778 15.7829L14.5 10.6113V15.2499C14.5 15.6642 14.8358 15.9999 15.25 15.9999C15.6642 15.9999 16 15.6642 16 15.2499V8.74994C16 8.33573 15.6642 7.99994 15.25 7.99994H8.75C8.33579 7.99994 8 8.33573 8 8.74994C8 9.16415 8.33579 9.49994 8.75 9.49994H13.4905Z" fill="#212121"/>
</svg>
