<svg width="28" height="28" viewBox="0 0 28 28" fill="none" xmlns="http://www.w3.org/2000/svg">
<path d="M10.4571 5.54289C10.8476 5.93342 10.8476 6.56658 10.4571 6.95711L5.41421 12L10.4571 17.0429C10.8476 17.4334 10.8476 18.0666 10.4571 18.4571C10.0666 18.8476 9.43342 18.8476 9.04289 18.4571L3.29289 12.7071C2.90237 12.3166 2.90237 11.6834 3.29289 11.2929L9.04289 5.54289C9.43342 5.15237 10.0666 5.15237 10.4571 5.54289ZM15.4571 5.54289C15.8476 5.93342 15.8476 6.56658 15.4571 6.95711L11.4142 11H14.25C20.3251 11 25.25 15.9249 25.25 22C25.25 22.5523 24.8023 23 24.25 23C23.6977 23 23.25 22.5523 23.25 22C23.25 17.0294 19.2206 13 14.25 13H11.4142L15.4571 17.0429C15.8476 17.4334 15.8476 18.0666 15.4571 18.4571C15.0666 18.8476 14.4334 18.8476 14.0429 18.4571L8.29289 12.7071C7.90237 12.3166 7.90237 11.6834 8.29289 11.2929L14.0429 5.54289C14.4334 5.15237 15.0666 5.15237 15.4571 5.54289Z" fill="#212121"/>
</svg>
