<svg width="16" height="16" viewBox="0 0 16 16" fill="none" xmlns="http://www.w3.org/2000/svg">
<path d="M11.7385 1.44761C12.524 0.807586 13.6822 0.853256 14.4143 1.58531C15.1461 2.31738 15.192 3.47568 14.5519 4.26107L14.4143 4.41341L11.4416 7.38605C11.1604 7.66728 11.0023 8.04888 11.0022 8.44659V8.51593L10.9934 8.68878C10.9536 9.08943 10.7765 9.46615 10.4895 9.75322L5.75515 14.4876C5.07187 15.1706 3.964 15.1708 3.28056 14.4876L1.513 12.72C0.829582 12.0366 0.829881 10.9288 1.513 10.2454L6.24734 5.51106C6.5754 5.18307 7.02041 4.99837 7.48463 4.99837H7.55201C7.94962 4.99821 8.33139 4.84008 8.61255 4.55892L11.5862 1.58531L11.7385 1.44761ZM8.89575 5.60286C8.49711 5.85748 8.03237 5.99825 7.55201 5.99836H7.48463C7.28593 5.99836 7.09511 6.0774 6.95436 6.21809L2.22003 10.9524C1.92721 11.2454 1.92727 11.7202 2.22003 12.013L3.98759 13.7805C4.28037 14.0731 4.75522 14.0733 5.04813 13.7805L9.78246 9.0462C9.92312 8.90549 10.0022 8.71461 10.0022 8.51593V8.44659C10.0022 7.96653 10.1415 7.50135 10.3957 7.10285L8.89575 5.60286ZM13.7072 2.29233C13.3413 1.92636 12.7622 1.90379 12.3694 2.22398L12.2932 2.29233L9.64574 4.9388L11.0598 6.35285L13.7072 3.70639L13.7756 3.63022C14.0957 3.2375 14.073 2.65835 13.7072 2.29233Z" fill="#212121"/>
</svg>
