<svg width="16" height="16" viewBox="0 0 16 16" fill="none" xmlns="http://www.w3.org/2000/svg">
<path d="M11.3342 2.06447L11.4106 2.21703L11.9871 3.75001C12.0324 3.87074 12.1276 3.96599 12.2483 4.01128L13.7284 4.56656C14.3779 4.81023 14.7269 5.50427 14.5539 6.16092L14.5122 6.29161L13.8237 7.81443C13.7703 7.93182 13.7703 8.06654 13.8237 8.18393L14.4776 9.62313C14.7646 10.2547 14.5206 10.9923 13.9339 11.3342L13.7813 11.4106L12.2483 11.9871C12.1276 12.0324 12.0324 12.1276 11.9871 12.2483L11.4318 13.7284C11.1881 14.3779 10.4941 14.7269 9.83744 14.5539L9.70675 14.5122L8.18393 13.8237C8.06654 13.7703 7.93182 13.7703 7.81443 13.8237L6.37523 14.4776C5.74366 14.7646 5.0061 14.5206 4.66416 13.9339L4.58774 13.7813L4.01128 12.2483C3.96599 12.1276 3.87074 12.0324 3.75001 11.9871L2.26994 11.4318C1.62044 11.1881 1.27141 10.4941 1.44449 9.83744L1.48613 9.70675L2.1747 8.18393C2.22803 8.06654 2.22803 7.93182 2.1747 7.81443L1.52076 6.37523C1.2338 5.74366 1.47776 5.0061 2.06447 4.66416L2.21703 4.58774L3.75001 4.01128C3.87074 3.96599 3.96599 3.87074 4.01128 3.75001L4.56656 2.26994C4.81023 1.62044 5.50427 1.27141 6.16092 1.44449L6.29161 1.48613L7.81443 2.1747C7.93182 2.22803 8.06654 2.22803 8.18393 2.1747L9.62313 1.52076C10.2547 1.2338 10.9923 1.47776 11.3342 2.06447ZM10.1631 5.70509L6.97743 9.34584L5.81498 8.18338C5.64057 8.00898 5.35779 8.00898 5.18339 8.18338C5.00898 8.35779 5.00898 8.64057 5.18339 8.81498L6.68338 10.315C6.86606 10.4977 7.16516 10.4877 7.33528 10.2933L10.8353 6.29327C10.9977 6.10765 10.9789 5.8255 10.7933 5.66308C10.6076 5.50066 10.3255 5.51947 10.1631 5.70509Z" fill="#212121"/>
</svg>
