<svg width="20" height="20" viewBox="0 0 20 20" fill="none" xmlns="http://www.w3.org/2000/svg">
<path d="M10 2C10.3961 2 10.7854 2.02937 11.166 2.08496L10.9512 2.1543C10.6709 2.25446 10.4299 2.43441 10.2598 2.6748C10.1875 2.77699 10.1305 2.88683 10.0879 3.00195C10.0586 3.00159 10.0293 3 10 3C6.13401 3 3 6.13401 3 10C3 13.866 6.13401 17 10 17C13.2517 17 15.9838 14.7824 16.7705 11.7773C16.9865 11.9209 17.2389 11.9981 17.502 11.999C17.5868 11.9988 17.67 11.9905 17.752 11.9785C16.8712 15.4397 13.7353 18 10 18C5.58172 18 2 14.4183 2 10C2 5.58172 5.58172 2 10 2ZM10 5C10.8861 5 11.7177 5.23145 12.4395 5.63574C12.4594 5.65395 12.481 5.67188 12.502 5.69238C12.6121 5.8138 12.7029 5.95804 12.793 6.21191L13.1533 7.41504C13.192 7.53344 13.2439 7.64755 13.3115 7.75781C12.5921 6.69738 11.378 6 10 6C7.79086 6 6 7.79086 6 10C6.00005 12.2091 7.79089 14 10 14C12.2091 14 14 12.2091 14 10C14 9.62776 13.9477 9.26771 13.8525 8.92578C13.8979 9.04229 13.9622 9.1536 14.0469 9.25586C14.2293 9.47611 14.4803 9.63615 14.7881 9.73633L14.9932 9.7959C14.9959 9.8636 15 9.93163 15 10C15 12.7614 12.7614 15 10 15C7.23861 15 5.00005 12.7614 5 10C5 7.23858 7.23858 5 10 5ZM17.4971 12H17.5068L17.502 11.999L17.4971 12ZM10 8.5C10.8284 8.5 11.5 9.17157 11.5 10C11.5 10.8284 10.8284 11.5 10 11.5C9.17159 11.5 8.50003 10.8284 8.5 10C8.5 9.17157 9.17157 8.5 10 8.5ZM17.4844 6C17.5469 6 17.6081 6.01957 17.6592 6.05566C17.7101 6.09167 17.7487 6.14242 17.7695 6.20117L18.0186 6.9668C18.0959 7.19922 18.2271 7.41078 18.4004 7.58398C18.5737 7.75703 18.7851 7.88761 19.0176 7.96484L19.7832 8.21289L19.7979 8.2168C19.8568 8.23756 19.9082 8.27623 19.9443 8.32715C19.9805 8.37818 20 8.43944 20 8.50195C20 8.56445 19.9805 8.62574 19.9443 8.67676C19.9082 8.72765 19.8567 8.76635 19.7979 8.78711L19.0332 9.03516C18.8005 9.11244 18.5884 9.24281 18.415 9.41602C18.2417 9.58919 18.1116 9.80083 18.0342 10.0332L17.7852 10.7988C17.7643 10.8576 17.7257 10.9083 17.6748 10.9443C17.6237 10.9804 17.5626 11 17.5 11C17.4374 11 17.3763 10.9804 17.3252 10.9443C17.2743 10.9083 17.2357 10.8576 17.2148 10.7988L16.9658 10.0332C16.889 9.80017 16.7592 9.58791 16.5859 9.41406C16.4125 9.2401 16.1999 9.10893 15.9668 9.03125L15.2021 8.7832C15.1432 8.76244 15.0918 8.72377 15.0557 8.67285C15.0195 8.62182 15 8.56056 15 8.49805C15 8.43555 15.0195 8.37426 15.0557 8.32324C15.0918 8.27236 15.1433 8.23365 15.2021 8.21289L15.9668 7.96484C16.1966 7.88555 16.4056 7.75415 16.5762 7.58105C16.7468 7.40795 16.8753 7.19762 16.9512 6.9668L17.1992 6.20117C17.22 6.14249 17.2588 6.0917 17.3096 6.05566C17.3606 6.01962 17.4219 6.00007 17.4844 6ZM14.4785 0C14.5661 0 14.6512 0.0276075 14.7227 0.078125C14.7942 0.128677 14.8488 0.199695 14.8779 0.282227L15.2256 1.35352C15.3339 1.67888 15.5171 1.97432 15.7598 2.2168C16.0024 2.45924 16.2984 2.64176 16.624 2.75L17.6963 3.09863L17.7178 3.10352C17.8003 3.13264 17.8713 3.18738 17.9219 3.25879C17.9724 3.33021 18 3.41546 18 3.50293C17.9999 3.59036 17.9724 3.6757 17.9219 3.74707C17.8713 3.81832 17.8002 3.87226 17.7178 3.90137L16.6455 4.25C16.3199 4.35824 16.0239 4.54075 15.7812 4.7832C15.5386 5.02568 15.3554 5.32112 15.2471 5.64648L14.8994 6.71777C14.8703 6.80031 14.8156 6.87132 14.7441 6.92188C14.6727 6.97241 14.5876 7 14.5 7C14.4124 7 14.3273 6.97241 14.2559 6.92188C14.249 6.91702 14.2419 6.91246 14.2354 6.90723C14.1741 6.85803 14.1269 6.79217 14.1006 6.71777L13.7529 5.64648C13.7342 5.5898 13.7126 5.53427 13.6895 5.47949C13.5795 5.21896 13.4202 4.98141 13.2197 4.78027C13.1817 4.74208 13.1422 4.7051 13.1016 4.66992C12.8833 4.48092 12.6295 4.33582 12.3545 4.24414L11.2822 3.89648C11.1997 3.86736 11.1287 3.81261 11.0781 3.74121C11.0276 3.66979 11 3.58454 11 3.49707C11.0001 3.40964 11.0276 3.3243 11.0781 3.25293C11.1287 3.18168 11.1998 3.12774 11.2822 3.09863L12.3545 2.75C12.6761 2.63894 12.9683 2.45518 13.207 2.21289C13.4457 1.97062 13.6253 1.6765 13.7314 1.35352L14.0791 0.282227C14.1082 0.199695 14.1629 0.128677 14.2344 0.078125C14.3059 0.027586 14.391 1.0639e-05 14.4785 0Z" fill="#212121"/>
</svg>
