<?xml version="1.0" encoding="UTF-8"?>
<svg width="24px" height="24px" viewBox="0 0 24 24" version="1.1" xmlns="http://www.w3.org/2000/svg" xmlns:xlink="http://www.w3.org/1999/xlink">
    <!-- Generator: Sketch 59.1 (86144) - https://sketch.com -->
    <title>ic_music_24_filled</title>
    <desc>Created with Sketch.</desc>
    <g id="ðŸ”-Product-Icons" stroke="none" stroke-width="1" fill="none" fill-rule="evenodd">
        <g id="ic_music_24_filled" fill="#212121" fill-rule="nonzero">
            <path d="M11.5,2.75 C11.5,2.22634895 12.0230228,1.86388952 12.5133347,2.04775015 L18.8913911,4.43943933 C20.1598961,4.91511241 21.0002742,6.1277638 21.0002742,7.48252202 L21.0002742,10.7513533 C21.0002742,11.2750044 20.4772513,11.6374638 19.9869395,11.4536032 L13,8.83332147 L13,17.5 C13,17.5545945 12.9941667,17.6078265 12.9830895,17.6591069 C12.9940859,17.7709636 13,17.884807 13,18 C13,20.2596863 10.7242052,22 8,22 C5.27579485,22 3,20.2596863 3,18 C3,15.7403137 5.27579485,14 8,14 C9.3521238,14 10.5937815,14.428727 11.5015337,15.1368931 L11.5,2.75 Z" id="ðŸŽ¨-Color"></path>
        </g>
    </g>
</svg>