<svg width="24" height="24" viewBox="0 0 24 24" fill="none" xmlns="http://www.w3.org/2000/svg">
<path d="M11.2496 13.7491C11.5158 14.0154 11.5401 14.432 11.3222 14.7257L11.2496 14.8098L9.27872 16.7806C9.01242 17.0469 8.59569 17.0711 8.30208 16.8532L8.21796 16.7805L6.24873 14.8098C5.9559 14.5168 5.95599 14.042 6.24894 13.7491C6.51525 13.4829 6.93192 13.4588 7.22549 13.6767L7.3096 13.7493L7.99951 14.4405L7.99922 7.74878C7.99922 7.36908 8.28137 7.05529 8.64745 7.00563L8.74922 6.99878C9.12891 6.99878 9.44271 7.28093 9.49237 7.64701L9.49922 7.74878L9.49951 14.4385L10.1889 13.7491C10.4552 13.4829 10.8719 13.4586 11.1655 13.6765L11.2496 13.7491ZM1.99902 11.9993C1.99902 17.5221 6.47617 21.9993 11.999 21.9993C17.5219 21.9993 21.999 17.5221 21.999 11.9993C21.999 6.47642 17.5219 1.99927 11.999 1.99927C6.47618 1.99927 1.99902 6.47642 1.99902 11.9993ZM17.6654 13.6765L17.7495 13.7491C18.0158 14.0154 18.04 14.432 17.8221 14.7257L17.7495 14.8098L15.7787 16.7806C15.5124 17.0469 15.0957 17.071 14.8021 16.8531L14.718 16.7805L12.7488 14.8098C12.456 14.5168 12.456 14.042 12.749 13.7491C13.0153 13.4829 13.432 13.4588 13.7256 13.6767L13.8097 13.7493L14.4995 14.4404L14.4992 7.74872C14.4992 7.36902 14.7814 7.05523 15.1474 7.00557L15.2492 6.99872C15.6289 6.99872 15.9427 7.28087 15.9924 7.64695L15.9992 7.74872L15.9995 14.4384L16.6889 13.7491C16.9551 13.4829 17.3718 13.4586 17.6654 13.6765Z" fill="#212121"/>
</svg>
