<svg width="24" height="24" viewBox="0 0 24 24" fill="none" xmlns="http://www.w3.org/2000/svg">
<path d="M20.2451 4.00341C21.2116 4.00341 21.9951 4.78692 21.9951 5.75341V18.2485C21.9951 19.215 21.2116 19.9985 20.2451 19.9985H12.9976C12.9108 19.9985 12.8255 19.9922 12.7421 19.98L12.742 4.02194C12.8254 4.00974 12.9108 4.00341 12.9976 4.00341H20.2451ZM10.9976 4.00098C11.0809 4.00098 11.1629 4.0068 11.2431 4.01807L11.2428 19.9791C11.1627 19.9903 11.0808 19.9961 10.9976 19.9961H3.75C2.7835 19.9961 2 19.2126 2 18.2461V5.75098C2 4.78448 2.7835 4.00098 3.75 4.00098H10.9976ZM19.7499 6.49976H15.2483C14.8341 6.49976 14.4983 6.83554 14.4983 7.24976C14.4983 7.62945 14.7805 7.94325 15.1465 7.99291L15.2483 7.99976H19.7499C20.1641 7.99976 20.4999 7.66397 20.4999 7.24976C20.4999 6.87006 20.2178 6.55627 19.8517 6.5066L19.7499 6.49976Z" fill="#212121"/>
</svg>
