<svg width="24" height="24" viewBox="0 0 24 24" fill="none" xmlns="http://www.w3.org/2000/svg">
<path d="M19.75 4C20.9926 4 22 5.00736 22 6.25V17.75C22 18.9926 20.9926 20 19.75 20H4.25C3.00736 20 2 18.9926 2 17.75V6.25C2 5.00736 3.00736 4 4.25 4H19.75ZM18 12V16.25C18 16.6642 17.6642 17 17.25 17C16.8358 17 16.5 16.6642 16.5 16.25V12H14.5V16.25C14.5 16.6642 14.1642 17 13.75 17C13.3358 17 13 16.6642 13 16.25V12H11V16.25C11 16.6642 10.6642 17 10.25 17C9.83579 17 9.5 16.6642 9.5 16.25V12H7.5V16.25C7.5 16.6642 7.16421 17 6.75 17C6.33579 17 6 16.6642 6 16.25V12H3.5V17.75C3.5 18.1642 3.83579 18.5 4.25 18.5H19.75C20.1642 18.5 20.5 18.1642 20.5 17.75V12H18ZM5.5 7C4.94772 7 4.5 7.44772 4.5 8C4.5 8.55228 4.94772 9 5.5 9C6.05228 9 6.5 8.55228 6.5 8C6.5 7.44772 6.05228 7 5.5 7ZM9.5 7C8.94772 7 8.5 7.44772 8.5 8C8.5 8.55228 8.94772 9 9.5 9C10.0523 9 10.5 8.55228 10.5 8C10.5 7.44772 10.0523 7 9.5 7ZM14.75 7C14.3358 7 14 7.33579 14 7.75C14 8.16421 14.3358 8.5 14.75 8.5H17.25C17.6642 8.5 18 8.16421 18 7.75C18 7.33579 17.6642 7 17.25 7H14.75Z" fill="#212121"/>
</svg>
