<svg width="24" height="24" viewBox="0 0 24 24" fill="none" xmlns="http://www.w3.org/2000/svg">
<path d="M22.0011 12.0006C22.0011 6.47687 17.5233 1.99902 11.9996 1.99902C6.47589 1.99902 1.99805 6.47687 1.99805 12.0006C1.99805 17.5243 6.47589 22.0021 11.9996 22.0021C17.5233 22.0021 22.0011 17.5243 22.0011 12.0006ZM7.75076 10.0005C7.75076 9.31054 8.31008 8.75121 9.00005 8.75121C9.69001 8.75121 10.2493 9.31054 10.2493 10.0005C10.2493 10.6905 9.69001 11.2498 9.00005 11.2498C8.31008 11.2498 7.75076 10.6905 7.75076 10.0005ZM13.7508 10.0005C13.7508 9.31054 14.3101 8.75121 15 8.75121C15.69 8.75121 16.2493 9.31054 16.2493 10.0005C16.2493 10.6905 15.69 11.2498 15 11.2498C14.3101 11.2498 13.7508 10.6905 13.7508 10.0005ZM10.1354 15.1069C10.6185 15.3968 11.2901 15.5625 11.9995 15.5625C12.709 15.5625 13.3805 15.3968 13.8637 15.107C14.2189 14.8939 14.6796 15.0091 14.8927 15.3643C15.1057 15.7195 14.9905 16.1802 14.6353 16.3933C13.8685 16.8533 12.9151 17.0625 11.9995 17.0625C11.0839 17.0625 10.1305 16.8532 9.36364 16.3931C9.00845 16.18 8.89328 15.7193 9.10639 15.3641C9.3195 15.0089 9.7802 14.8938 10.1354 15.1069Z" fill="#212121"/>
</svg>
