<svg width="16" height="16" viewBox="0 0 16 16" fill="none" xmlns="http://www.w3.org/2000/svg">
<path d="M15 5.5C15 7.98528 12.9853 10 10.5 10C8.01472 10 6 7.98528 6 5.5C6 3.01472 8.01472 1 10.5 1C12.9853 1 15 3.01472 15 5.5ZM12.8536 3.64645C12.6583 3.45118 12.3417 3.45118 12.1464 3.64645L9.5 6.29289L8.85355 5.64645C8.65829 5.45118 8.34171 5.45118 8.14645 5.64645C7.95118 5.84171 7.95118 6.15829 8.14645 6.35355L9.14645 7.35355C9.34171 7.54882 9.65829 7.54882 9.85355 7.35355L12.8536 4.35355C13.0488 4.15829 13.0488 3.84171 12.8536 3.64645ZM10.5 11C11.4002 11 12.2499 10.7837 13 10.4003V13C13 14.1046 12.1046 15 11 15H3C1.89543 15 1 14.1046 1 13V8.33706L6.76305 11.4402C6.91104 11.5199 7.08916 11.5199 7.23715 11.4402L8.64816 10.6805C9.22681 10.8873 9.85025 11 10.5 11ZM3 5H5.02242C5.00758 5.16468 5 5.33146 5 5.5C5 7.44965 6.01444 9.16236 7.54428 10.1391L7.0001 10.4321L1 7.2013V7C1 5.89543 1.89543 5 3 5Z" fill="#212121"/>
</svg>
