<svg width="16" height="16" viewBox="0 0 16 16" fill="none" xmlns="http://www.w3.org/2000/svg">
<path d="M6.5 2C5.11929 2 4 3.11929 4 4.5V8C4 8.82731 4.40186 9.56076 5.02102 10.0158C5.22184 7.71351 6.8411 5.81765 9 5.20703V4.5C9 3.11929 7.88071 2 6.5 2ZM3 8C3 9.41265 3.83691 10.6298 5.04197 11.1828C5.0917 11.5844 5.18474 11.9727 5.31628 12.3427C3.40526 11.823 2 10.0756 2 8C2 7.72386 2.22386 7.5 2.5 7.5C2.77614 7.5 3 7.72386 3 8ZM15 10.5C15 12.9853 12.9853 15 10.5 15C8.01472 15 6 12.9853 6 10.5C6 8.01472 8.01472 6 10.5 6C12.9853 6 15 8.01472 15 10.5ZM9.44404 8.50024C9.23849 8.49388 9.05001 8.61402 8.969 8.80304L8.38459 10.1667H8C7.72386 10.1667 7.5 10.3905 7.5 10.6667C7.5 10.9428 7.72386 11.1667 8 11.1667H8.71429C8.9143 11.1667 9.09507 11.0475 9.17386 10.8636L9.38624 10.3681L10.0291 12.1682C10.099 12.3638 10.2826 12.4959 10.4902 12.4999C10.6979 12.504 10.8865 12.3792 10.964 12.1864L11.6362 10.5131L11.845 10.9028C11.932 11.0653 12.1014 11.1667 12.2857 11.1667H13C13.2761 11.1667 13.5 10.9428 13.5 10.6667C13.5 10.3905 13.2761 10.1667 13 10.1667H12.5851L12.0122 9.09722C11.9205 8.92603 11.7379 8.82343 11.544 8.83409C11.3501 8.84474 11.1799 8.96672 11.1075 9.14692L10.5275 10.5904L9.89944 8.83183C9.83028 8.63817 9.64958 8.5066 9.44404 8.50024Z" fill="#212121"/>
</svg>
