<svg width="24" height="24" viewBox="0 0 24 24" fill="none" xmlns="http://www.w3.org/2000/svg">
<path d="M6.25 3H6.5V6.5H3V6.25C3 4.45507 4.45507 3 6.25 3ZM3 16V8H6.5V16H3ZM16 6.5H8V3H16V6.5ZM17.5 6.5V3H17.75C19.5449 3 21 4.45507 21 6.25V6.5H17.5ZM17.5 8H21V16H17.5V8ZM17.5 17.5H21V17.75C21 19.5449 19.5449 21 17.75 21H17.5V17.5ZM16 17.5V21H8V17.5H16ZM6.5 17.5V21H6.25C4.45507 21 3 19.5449 3 17.75V17.5H6.5ZM8 15.068L10.409 12.659C11.2877 11.7803 12.7123 11.7803 13.591 12.659L16 15.068V8H8V15.068ZM14 9C14.5523 9 15 9.44772 15 10C15 10.5523 14.5523 11 14 11C13.4477 11 13 10.5523 13 10C13 9.44772 13.4477 9 14 9ZM14.8107 16L12.5303 13.7197C12.2374 13.4268 11.7626 13.4268 11.4697 13.7197L9.18934 16H14.8107Z" fill="#212121"/>
</svg>
