<svg width="20" height="20" viewBox="0 0 20 20" fill="none" xmlns="http://www.w3.org/2000/svg">
<path d="M5.5 7.95852C6.91886 7.72048 8 6.4865 8 5C8 3.34315 6.65685 2 5 2C3.34315 2 2 3.34315 2 5C2 6.4865 3.08114 7.72048 4.5 7.95852V12.0415C3.08114 12.2795 2 13.5135 2 15C2 16.6569 3.34315 18 5 18C6.65685 18 8 16.6569 8 15C8 13.5135 6.91886 12.2795 5.5 12.0415V11H11C12.3807 11 13.5 9.88071 13.5 8.5V7.95852C14.9189 7.72048 16 6.4865 16 5C16 3.34315 14.6569 2 13 2C11.3431 2 10 3.34315 10 5C10 6.4865 11.0811 7.72048 12.5 7.95852V8.5C12.5 9.32843 11.8284 10 11 10H5.5V7.95852ZM12.5 13C11.1193 13 10 14.1193 10 15.5C10 16.8807 11.1193 18 12.5 18H13C13.2761 18 13.5 17.7761 13.5 17.5C13.5 17.2239 13.2761 17 13 17H12.5C11.6716 17 11 16.3284 11 15.5C11 14.6716 11.6716 14 12.5 14H13C13.2761 14 13.5 13.7761 13.5 13.5C13.5 13.2239 13.2761 13 13 13H12.5ZM16 13C15.7239 13 15.5 13.2239 15.5 13.5C15.5 13.7761 15.7239 14 16 14H16.5C17.3284 14 18 14.6716 18 15.5C18 16.3284 17.3284 17 16.5 17H16C15.7239 17 15.5 17.2239 15.5 17.5C15.5 17.7761 15.7239 18 16 18H16.5C17.8807 18 19 16.8807 19 15.5C19 14.1193 17.8807 13 16.5 13H16ZM12 15.5C12 15.2239 12.2239 15 12.5 15H16.5C16.7761 15 17 15.2239 17 15.5C17 15.7761 16.7761 16 16.5 16H12.5C12.2239 16 12 15.7761 12 15.5Z" fill="#212121"/>
</svg>
