<svg width="20" height="20" viewBox="0 0 20 20" fill="none" xmlns="http://www.w3.org/2000/svg">
<path d="M14 4C15.6569 4 17 5.34315 17 7C17 8.65685 15.6569 10 14 10H6C4.89543 10 4 10.8954 4 12C4 13.1046 4.89543 14 6 14H16.2929L15.6464 13.3536C15.4512 13.1583 15.4512 12.8417 15.6464 12.6464C15.8417 12.4512 16.1583 12.4512 16.3536 12.6464L17.8536 14.1464C18.0488 14.3417 18.0488 14.6583 17.8536 14.8536L16.3536 16.3536C16.1583 16.5488 15.8417 16.5488 15.6464 16.3536C15.4512 16.1583 15.4512 15.8417 15.6464 15.6464L16.2929 15H6C4.34315 15 3 13.6569 3 12C3 10.3431 4.34315 9 6 9H14C15.1046 9 16 8.10457 16 7C16 5.89543 15.1046 5 14 5H3.5C3.22386 5 3 4.77614 3 4.5C3 4.22386 3.22386 4 3.5 4H14Z" fill="#212121"/>
</svg>
