<svg width="32" height="32" viewBox="0 0 32 32" fill="none" xmlns="http://www.w3.org/2000/svg">
<path d="M3 7C3 6.44772 3.44772 6 4 6H23.5C26.5376 6 29 8.46243 29 11.5C29 14.5376 26.5376 17 23.5 17H8.5C6.567 17 5 18.567 5 20.5C5 22.433 6.567 24 8.5 24H26.5858L25.2929 22.7071C24.9024 22.3166 24.9024 21.6834 25.2929 21.2929C25.6834 20.9024 26.3166 20.9024 26.7071 21.2929L29.7071 24.2929C30.0976 24.6834 30.0976 25.3166 29.7071 25.7071L26.7071 28.7071C26.3166 29.0976 25.6834 29.0976 25.2929 28.7071C24.9024 28.3166 24.9024 27.6834 25.2929 27.2929L26.5858 26H8.5C5.46243 26 3 23.5376 3 20.5C3 17.4624 5.46243 15 8.5 15H23.5C25.433 15 27 13.433 27 11.5C27 9.567 25.433 8 23.5 8H4C3.44772 8 3 7.55228 3 7Z" fill="#212121"/>
</svg>
