<svg width="24" height="24" viewBox="0 0 24 24" fill="none" xmlns="http://www.w3.org/2000/svg">
<path d="M9.5 21H11.5657C11.2048 20.3303 11 19.5641 11 18.75C11 17.7251 11.3246 16.7761 11.8766 16H9.5L9.5 21ZM21 9.5V14.3328C20.4584 14.118 19.868 14 19.25 14H16L16 9.5H21ZM14.5 9.5L14.5 14.1662C14.1955 14.249 13.9032 14.3614 13.6264 14.5H9.5V9.5H14.5ZM21 8V6.25C21 4.45507 19.5449 3 17.75 3H16V8H21ZM14.5 3H9.5L9.5 8H14.5V3ZM8 3H6.25C4.45507 3 3 4.45507 3 6.25V8H8L8 3ZM3 9.5V14.5H8V9.5H3ZM3 16V17.75C3 19.5449 4.45507 21 6.25 21H8L8 16H3ZM19.25 15C21.3211 15 23 16.6789 23 18.75C23 20.7543 21.4276 22.3913 19.4523 22.4948L19.2534 22.5V22.5046C18.8392 22.5065 18.5019 22.1722 18.5 21.758C18.4983 21.3783 18.779 21.0633 19.1448 21.0119L19.2466 21.0046L19.25 21C20.4926 21 21.5 19.9926 21.5 18.75C21.5 17.5591 20.5748 16.5844 19.404 16.5052L19.25 16.5C18.8358 16.5 18.5 16.1642 18.5 15.75C18.5 15.3703 18.7822 15.0565 19.1482 15.0068L19.25 15ZM15.75 15C16.1642 15 16.5 15.3358 16.5 15.75C16.5 16.1297 16.2178 16.4435 15.8518 16.4932L15.75 16.5C14.5074 16.5 13.5 17.5074 13.5 18.75C13.5 19.9409 14.4252 20.9156 15.596 20.9948L15.75 21C16.1642 21 16.5 21.3358 16.5 21.75C16.5 22.1297 16.2178 22.4435 15.8518 22.4932L15.75 22.5C13.6789 22.5 12 20.8211 12 18.75C12 16.7457 13.5724 15.1087 15.5508 15.0052L15.75 15ZM19.25 18C19.6642 18 20 18.3358 20 18.75C20 19.1297 19.7178 19.4435 19.3518 19.4932L19.25 19.5H15.75C15.3358 19.5 15 19.1642 15 18.75C15 18.3703 15.2822 18.0565 15.6482 18.0068L15.75 18H19.25Z" fill="#212121"/>
</svg>
