<svg width="24" height="24" viewBox="0 0 24 24" fill="none" xmlns="http://www.w3.org/2000/svg">
<path d="M11.3279 2.41861L8.64726 7.86691L2.64286 8.7355C2.02775 8.82449 1.7821 9.58134 2.22749 10.0153L6.57516 14.2511L5.54489 20.2362C5.43934 20.8494 6.08246 21.3171 6.63234 21.0272L10.393 19.0441L10.5097 18.5768C10.6716 17.9288 11.0063 17.3371 11.478 16.8648L11.6638 16.6788C11.6594 16.681 11.6551 16.6832 11.6508 16.6855L7.2798 18.9904L8.11879 14.1165C8.16073 13.8728 8.08001 13.6241 7.903 13.4517L4.36256 10.0023L9.25213 9.29499C9.49659 9.25962 9.70793 9.10591 9.81707 8.88409L12 4.44738L14.1829 8.88409C14.2921 9.10591 14.5034 9.25962 14.7479 9.29499L19.6264 10.0007C20.217 9.98844 20.8104 10.1349 21.3371 10.4399L21.7728 10.015C22.2178 9.58091 21.972 8.82446 21.3571 8.7355L15.3527 7.86691L12.6721 2.41861C12.3975 1.86046 11.6025 1.86046 11.3279 2.41861Z" fill="#212121"/>
<path d="M12.1864 17.5719L18.0824 11.6695C18.9741 10.7768 20.4197 10.7768 21.3114 11.6695C22.203 12.5621 22.203 14.0093 21.3114 14.9019L15.4153 20.8043C15.0716 21.1485 14.6409 21.3926 14.1692 21.5106L12.3405 21.9683C11.5452 22.1674 10.8248 21.4462 11.0237 20.6501L11.4808 18.8194C11.5988 18.3472 11.8426 17.916 12.1864 17.5719Z" fill="#212121"/>
</svg>
