<svg width="32" height="32" viewBox="0 0 32 32" fill="none" xmlns="http://www.w3.org/2000/svg">
<path d="M2 16C2 8.26801 8.26801 2 16 2C23.732 2 30 8.26801 30 16C30 23.732 23.732 30 16 30C8.26801 30 2 23.732 2 16ZM13.4975 9C12.9838 9 12.5536 9.38929 12.5025 9.9005L12.0025 14.9005C11.9742 15.1839 12.068 15.4659 12.2604 15.6758C12.4529 15.8857 12.7257 16.0036 13.0105 15.9999L13.1385 15.9984C13.2208 15.9975 13.3393 15.9963 13.4833 15.9951C13.7714 15.9927 14.1607 15.9903 14.5667 15.9903C14.9736 15.9903 15.3929 15.9928 15.7423 15.9999C16.1174 16.0075 16.3451 16.0198 16.4132 16.0294C18.0539 16.26 19.1971 17.777 18.9665 19.4177C18.7359 21.0584 17.2189 22.2016 15.5781 21.971C14.6277 21.8374 13.8444 21.2733 13.397 20.4995C13.1205 20.0214 12.5088 19.8578 12.0307 20.1343C11.5526 20.4107 11.3891 21.0224 11.6655 21.5005C12.4076 22.7841 13.7144 23.7287 15.2998 23.9515C18.0343 24.3358 20.5627 22.4306 20.947 19.6961C21.3313 16.9615 19.4261 14.4332 16.6915 14.0488C16.482 14.0194 16.1266 14.0073 15.7831 14.0003C15.4139 13.9928 14.9792 13.9903 14.5668 13.9903C14.408 13.9903 14.252 13.9907 14.1034 13.9912L14.4025 11L18.9961 11C19.5484 11 19.9961 10.5523 19.9961 10C19.9961 9.44773 19.5484 9.00001 18.9961 9.00001L13.4975 9Z" fill="#242424"/>
</svg>
