<svg width="20" height="20" viewBox="0 0 20 20" fill="none" xmlns="http://www.w3.org/2000/svg">
<path d="M9.75 3C9.98488 3 10.202 3.10829 10.3393 3.27775L13.2807 6.22346C13.5731 6.51635 13.5731 6.99122 13.2807 7.28411C12.9882 7.57701 12.514 7.57701 12.2216 7.28412L10.5 5.56639V16.25C10.5 16.6642 10.1636 17 9.75 17C9.3364 17 9 16.6642 9 16.25V5.55589L7.27843 7.28863C6.98597 7.58152 6.5118 7.58152 6.21934 7.28863C5.92689 6.99574 5.92689 6.52086 6.21934 6.22797L9.2232 3.21966C9.37038 3.07226 9.55709 2.99904 9.75 3Z" fill="#212121"/>
</svg>
