<svg width="28" height="28" viewBox="0 0 28 28" fill="none" xmlns="http://www.w3.org/2000/svg">
<path d="M3 6.75C3 4.67893 4.67893 3 6.75 3H10.25C10.6642 3 11 3.33579 11 3.75C11 4.16421 10.6642 4.5 10.25 4.5H6.75C5.50736 4.5 4.5 5.50736 4.5 6.75V10.25C4.5 10.6642 4.16421 11 3.75 11C3.33579 11 3 10.6642 3 10.25V6.75ZM25 6.75C25 4.67893 23.3211 3 21.25 3H17.75C17.3358 3 17 3.33579 17 3.75C17 4.16421 17.3358 4.5 17.75 4.5H21.25C22.4926 4.5 23.5 5.50736 23.5 6.75V10.25C23.5 10.6642 23.8358 11 24.25 11C24.6642 11 25 10.6642 25 10.25V6.75ZM6.75 25C4.67893 25 3 23.3211 3 21.25V17.75C3 17.3358 3.33579 17 3.75 17C4.16421 17 4.5 17.3358 4.5 17.75V21.25C4.5 22.4926 5.50736 23.5 6.75 23.5H10.25C10.6642 23.5 11 23.8358 11 24.25C11 24.6642 10.6642 25 10.25 25H6.75ZM25 21.25C25 23.3211 23.3211 25 21.25 25H17.75C17.3358 25 17 24.6642 17 24.25C17 23.8358 17.3358 23.5 17.75 23.5H21.25C22.4926 23.5 23.5 22.4926 23.5 21.25V17.75C23.5 17.3358 23.8358 17 24.25 17C24.6642 17 25 17.3358 25 17.75V21.25ZM15.7357 6.32168C14.4571 5.9698 13.5647 6.9317 13.2792 7.63546C13.0488 8.20356 12.8477 8.60006 12.5924 9.10289L12.5915 9.10462C12.4333 9.41602 12.2553 9.76647 12.0439 10.212C11.5947 11.1585 11.1554 11.7459 10.8566 12.0796C10.7067 12.247 10.5905 12.3525 10.5235 12.4087C10.5026 12.4263 10.4864 12.4391 10.4754 12.4476L8.61655 13.5335C7.45749 14.2106 6.95189 15.6196 7.4284 16.8754L7.95404 18.2607C8.25535 19.0548 8.90763 19.6641 9.71919 19.9165L15.1332 21.6004C16.876 22.1425 18.7381 21.1653 19.257 19.4151L20.6361 14.7647C21.1616 12.9923 19.8178 11.2356 17.9772 11.2356H17.5456C17.6661 10.6927 17.7703 10.0578 17.7593 9.49102C17.7492 8.97088 17.6979 8.31739 17.4225 7.72569C17.1093 7.05294 16.5475 6.54509 15.7357 6.32168ZM9.37318 14.8287L11.2337 13.7418C11.2562 13.7298 11.2784 13.7164 11.3001 13.7018L11.302 13.7005L11.3106 13.6947L11.3228 13.6861L11.3392 13.6744L11.3454 13.67C11.3797 13.6449 11.428 13.608 11.4881 13.5575C11.6083 13.4565 11.7758 13.3017 11.9741 13.0802C12.3709 12.6371 12.8895 11.9288 13.3991 10.8551C13.6015 10.4286 13.7717 10.0934 13.9298 9.78214L13.9331 9.77564C14.1879 9.27396 14.4139 8.82893 14.6693 8.19921C14.7242 8.06386 14.8341 7.91917 14.9655 7.83183C15.0801 7.75561 15.1962 7.72896 15.3377 7.76791C15.7193 7.87293 15.9327 8.0796 16.0626 8.3587C16.2002 8.65422 16.2503 9.04505 16.2596 9.52014C16.2681 9.95931 16.1729 10.5278 16.0442 11.072C15.9857 11.3191 15.921 11.5584 15.8576 11.7743C15.791 12.001 15.8352 12.2459 15.9768 12.4351C16.1184 12.6242 16.3409 12.7356 16.5772 12.7356H17.9772C18.8353 12.7356 19.4327 13.5467 19.198 14.3383L17.8189 18.9887C17.5411 19.9258 16.5343 20.4653 15.5787 20.1681L10.1647 18.4842C9.78951 18.3675 9.49267 18.0875 9.35647 17.7285L8.83083 16.3433C8.61668 15.7789 8.84097 15.1396 9.37318 14.8287Z" fill="#212121"/>
</svg>
