<svg width="32" height="32" viewBox="0 0 32 32" fill="none" xmlns="http://www.w3.org/2000/svg">
<path d="M16 2C16.6904 2 17.25 2.55964 17.25 3.25V28.75C17.25 29.4404 16.6904 30 16 30C15.3096 30 14.75 29.4404 14.75 28.75V3.25C14.75 2.55964 15.3096 2 16 2ZM10.25 7C10.9404 7 11.5 7.55964 11.5 8.25V23.75C11.5 24.4404 10.9404 25 10.25 25C9.55964 25 9 24.4404 9 23.75V8.25C9 7.55964 9.55964 7 10.25 7ZM21.75 7C22.4404 7 23 7.55964 23 8.25V23.75C23 24.4404 22.4404 25 21.75 25C21.0596 25 20.5 24.4404 20.5 23.75V8.25C20.5 7.55964 21.0596 7 21.75 7ZM4.25 12C4.94036 12 5.5 12.5596 5.5 13.25V18.75C5.5 19.4404 4.94036 20 4.25 20C3.55964 20 3 19.4404 3 18.75V13.25C3 12.5596 3.55964 12 4.25 12ZM27.75 12C28.4404 12 29 12.5596 29 13.25V18.75C29 19.4404 28.4404 20 27.75 20C27.0596 20 26.5 19.4404 26.5 18.75V13.25C26.5 12.5596 27.0596 12 27.75 12Z" fill="#212121"/>
</svg>
