<svg width="20" height="20" viewBox="0 0 20 20" fill="none" xmlns="http://www.w3.org/2000/svg">
<path d="M10 18C10.2249 18 10.4476 17.9907 10.6677 17.9725C9.94001 17.8508 9.34538 17.3362 9.10943 16.6541C8.7167 16.3494 8.3259 15.8369 7.97822 15.0919C7.76073 14.6258 7.57172 14.0902 7.41936 13.5H9V12.5H7.20617C7.07345 11.7253 7 10.8833 7 10C7 9.11669 7.07345 8.27472 7.20617 7.5H12.7938C12.9266 8.27472 13 9.11669 13 10H14C14 9.12934 13.9328 8.28832 13.8074 7.5H16.5404C16.8373 8.2764 17 9.1192 17 10H18C18 5.58172 14.4183 2 10 2C5.58172 2 2 5.58172 2 10C2 14.4183 5.58172 18 10 18ZM10 3C10.6568 3 11.4068 3.59025 12.0218 4.90814C12.2393 5.37419 12.4283 5.90978 12.5806 6.5H7.41936C7.57172 5.90978 7.76073 5.37419 7.97822 4.90814C8.59323 3.59025 9.34315 3 10 3ZM7.07203 4.48526C6.79564 5.07753 6.56498 5.75696 6.38931 6.5H3.93648C4.77295 5.05399 6.11182 3.93497 7.71442 3.38163C7.47297 3.71222 7.25828 4.08617 7.07203 4.48526ZM6.19265 7.5C6.06723 8.28832 6 9.12934 6 10C6 10.8707 6.06723 11.7117 6.19265 12.5H3.45963C3.16268 11.7236 3 10.8808 3 10C3 9.1192 3.16268 8.2764 3.45963 7.5H6.19265ZM6.38931 13.5C6.56498 14.243 6.79564 14.9225 7.07203 15.5147C7.25828 15.9138 7.47297 16.2878 7.71442 16.6184C6.11182 16.065 4.77295 14.946 3.93648 13.5H6.38931ZM12.2856 3.38163C13.8882 3.93497 15.2271 5.05399 16.0635 6.5H13.6107C13.435 5.75696 13.2044 5.07753 12.928 4.48526C12.7417 4.08617 12.527 3.71222 12.2856 3.38163ZM10 12C10 11.4477 10.4477 11 11 11H18C18.5523 11 19 11.4477 19 12V16C19 16.5523 18.5523 17 18 17H16V18H16.5C16.7761 18 17 18.2239 17 18.5C17 18.7761 16.7761 19 16.5 19H12.5C12.2239 19 12 18.7761 12 18.5C12 18.2239 12.2239 18 12.5 18H13V17H11C10.4477 17 10 16.5523 10 16V12Z" fill="#212121"/>
</svg>
