<svg width="20" height="20" viewBox="0 0 20 20" fill="none" xmlns="http://www.w3.org/2000/svg">
<path d="M10.8984 2.89899C10.5316 2.15574 9.47178 2.15574 9.10496 2.89899L8.00195 5.13393V5.13268L7.17389 6.81052L2.8573 7.43776C2.03708 7.55694 1.70956 8.56491 2.30308 9.14345L5.4266 12.1881L4.68924 16.4873C4.5751 17.1527 5.1229 17.6895 5.72651 17.6572C5.8641 17.6499 6.00459 17.613 6.14082 17.5414L10.0017 15.5116L13.8626 17.5414C14.5962 17.9271 15.4536 17.3042 15.3135 16.4872L14.5762 12.1881L17.6997 9.14342C18.2932 8.56488 17.9657 7.55691 17.1455 7.43772L12.8289 6.81048L10.8984 2.89899ZM8.00195 15.4332V7.37208C8.02758 7.33432 8.05076 7.29458 8.07126 7.25305L10.0017 3.34155L11.9321 7.25305C12.0778 7.54819 12.3594 7.75276 12.6851 7.80009L17.0017 8.42733L13.8782 11.472C13.6425 11.7017 13.5349 12.0327 13.5906 12.3571L14.3279 16.6563L10.467 14.6265C10.1757 14.4733 9.82768 14.4733 9.53636 14.6265L8.00195 15.4332Z" fill="#212121"/>
</svg>
