<svg width="24" height="24" viewBox="0 0 24 24" fill="none" xmlns="http://www.w3.org/2000/svg">
<path d="M11.6174 2.07615C11.991 1.92137 12.4211 2.00692 12.7071 2.29292L17.7071 7.29292C17.9083 7.49405 18.0142 7.77132 17.9985 8.05533C17.9828 8.33934 17.8468 8.60321 17.6247 8.7809L13.6008 12L17.6247 15.2192C17.8468 15.3969 17.9828 15.6607 17.9985 15.9447C18.0142 16.2287 17.9083 16.506 17.7071 16.7071L12.7071 21.7071C12.4211 21.9931 11.991 22.0787 11.6174 21.9239C11.2437 21.7691 11 21.4045 11 21V14.0807L7.62473 16.7809C7.19347 17.1259 6.56418 17.056 6.21917 16.6247C5.87416 16.1935 5.94408 15.5642 6.37534 15.2192L10.3993 12L6.37534 8.7809C5.94408 8.43589 5.87416 7.8066 6.21917 7.37533C6.56418 6.94407 7.19347 6.87415 7.62473 7.21916L11 9.9194V3.00003C11 2.59557 11.2437 2.23093 11.6174 2.07615ZM13 14.0807V18.5858L15.5029 16.083L13 14.0807ZM13 9.91941L15.5029 7.91711L13 5.41424V9.91941ZM20 12C20 12.5523 19.5523 13 19 13C18.4477 13 18 12.5523 18 12C18 11.4477 18.4477 11 19 11C19.5523 11 20 11.4477 20 12ZM5 13C5.55228 13 6 12.5523 6 12C6 11.4477 5.55228 11 5 11C4.44772 11 4 11.4477 4 12C4 12.5523 4.44772 13 5 13Z" fill="#212121"/>
</svg>
