<svg width="28" height="28" viewBox="0 0 28 28" fill="none" xmlns="http://www.w3.org/2000/svg">
<path d="M6.56282 6.56233C9.74079 3.38435 14.7551 3.16197 18.1901 5.89519L5.89567 18.1896C3.16246 14.7546 3.38484 9.7403 6.56282 6.56233ZM7.30989 19.6038L19.6043 7.3094C22.3375 10.7444 22.1152 15.7587 18.9372 18.9367C15.7592 22.1147 10.7449 22.3371 7.30989 19.6038ZM20.3514 5.14811C16.1533 0.949978 9.34674 0.949978 5.1486 5.14811C0.950466 9.34625 0.950466 16.1528 5.1486 20.3509C9.34674 24.549 16.1533 24.549 20.3514 20.3509C24.5495 16.1528 24.5495 9.34625 20.3514 5.14811ZM23.792 8.7207C24.2507 9.97737 24.5009 11.3343 24.5009 12.7497C24.5009 19.2391 19.2403 24.4997 12.7509 24.4997C11.3358 24.4997 9.97912 24.2496 8.72266 23.791C10.5326 25.1766 12.7958 25.9998 15.2512 25.9998C21.1883 25.9998 26.0012 21.1869 26.0012 15.2498C26.0012 12.7941 25.1778 10.5307 23.792 8.7207Z" fill="#212121"/>
</svg>
