<svg width="16" height="16" viewBox="0 0 16 16" fill="none" xmlns="http://www.w3.org/2000/svg">
<path d="M7 12C9.76142 12 12 9.76142 12 7C12 4.23858 9.76142 2 7 2C4.23858 2 2 4.23858 2 7C2 9.76142 4.23858 12 7 12ZM7 11C6.07565 11 5.22453 10.6865 4.54719 10.1599L10.1599 4.54719C10.6865 5.22453 11 6.07565 11 7C11 9.20914 9.20914 11 7 11ZM9.45283 3.84008L3.84008 9.45283C3.31354 8.77549 3 7.92436 3 7C3 4.79086 4.79086 3 7 3C7.92436 3 8.77549 3.31354 9.45283 3.84008ZM12.9999 7C12.9999 7.37662 12.9652 7.74514 12.8989 8.10252C12.965 8.39103 12.9999 8.69144 12.9999 9C12.9999 11.2091 11.2091 13 8.99994 13C8.69137 13 8.39097 12.9651 8.10246 12.8989C7.74508 12.9653 7.37656 13 6.99994 13C6.61046 13 6.22964 12.9629 5.86084 12.892C6.71899 13.585 7.81101 14 8.99994 14C11.7614 14 13.9999 11.7614 13.9999 9C13.9999 7.81107 13.585 6.71905 12.892 5.8609C12.9628 6.2297 12.9999 6.61052 12.9999 7Z" fill="#212121"/>
</svg>
