<svg width="32" height="32" viewBox="0 0 32 32" fill="none" xmlns="http://www.w3.org/2000/svg">
<path d="M12.25 3C10.4551 3 9 4.45507 9 6.25V8H4.75C3.23122 8 2 9.23122 2 10.75V25.25C2 26.7688 3.23122 28 4.75 28H27.25C28.7688 28 30 26.7688 30 25.25V10.75C30 9.23122 28.7688 8 27.25 8H23V6.25C23 4.45507 21.5449 3 19.75 3H12.25ZM4.75 9H27.25C28.2165 9 29 9.7835 29 10.75V16H23V14.5C23 14.2239 22.7761 14 22.5 14C22.2239 14 22 14.2239 22 14.5V16H10V14.5C10 14.2239 9.77614 14 9.5 14C9.22386 14 9 14.2239 9 14.5V16H3V10.75C3 9.7835 3.7835 9 4.75 9ZM3 17H9V18.5C9 18.7761 9.22386 19 9.5 19C9.77614 19 10 18.7761 10 18.5V17H22V18.5C22 18.7761 22.2239 19 22.5 19C22.7761 19 23 18.7761 23 18.5V17H29V25.25C29 26.2165 28.2165 27 27.25 27H4.75C3.7835 27 3 26.2165 3 25.25V17ZM10 8V6.25C10 5.00736 11.0074 4 12.25 4H19.75C20.9926 4 22 5.00736 22 6.25V8H10Z" fill="#212121"/>
</svg>
