<svg width="20" height="20" viewBox="0 0 20 20" fill="none" xmlns="http://www.w3.org/2000/svg">
<path d="M2.14648 2.14651C2.34175 1.95125 2.65825 1.95125 2.85352 2.14651L17.8535 17.1465C18.0485 17.3418 18.0487 17.6584 17.8535 17.8536C17.6583 18.0487 17.3418 18.0486 17.1465 17.8536L14.293 15H3.5C2.67159 15 2.00002 14.3284 2 13.5V5.50003C2 4.73718 2.56963 4.10863 3.30664 4.0137L2.14648 2.85354C1.95123 2.65828 1.95124 2.34177 2.14648 2.14651ZM16.5 4.00003C17.3284 4.00003 18 4.6716 18 5.50003V13.5C18 14.1437 17.5938 14.6905 17.0244 14.9034L6.12109 4.00003H16.5ZM5.5 12C5.22386 12 5 12.2239 5 12.5C5.00002 12.7762 5.22387 13 5.5 13H12.293L11.293 12H5.5ZM6.99805 9.00003C6.58264 9.00003 6.24531 9.33663 6.24512 9.75199C6.24514 10.1675 6.58254 10.5049 6.99805 10.5049C7.41335 10.5047 7.74998 10.1673 7.75 9.75199C7.74981 9.33677 7.41325 9.00027 6.99805 9.00003ZM13.0068 9.00003C12.5916 9.00019 12.2551 9.33672 12.2549 9.75199C12.2549 10.1674 12.5915 10.5048 13.0068 10.5049C13.4223 10.5049 13.7597 10.1675 13.7598 9.75199C13.7596 9.33663 13.4222 9.00003 13.0068 9.00003ZM5.50195 6.50003C5.08674 6.50025 4.75019 6.83676 4.75 7.25198C4.75002 7.66735 5.08663 8.00469 5.50195 8.00491C5.91746 8.00491 6.25486 7.66749 6.25488 7.25198C6.25469 6.83662 5.91736 6.50003 5.50195 6.50003ZM11.502 6.50003C11.0867 6.50025 10.7502 6.83676 10.75 7.25198C10.75 7.66735 11.0866 8.00469 11.502 8.00491C11.9175 8.00491 12.2549 7.66749 12.2549 7.25198C12.2547 6.83662 11.9174 6.50003 11.502 6.50003ZM14.502 6.50003C14.0867 6.50025 13.7502 6.83676 13.75 7.25198C13.75 7.66735 14.0866 8.00469 14.502 8.00491C14.9175 8.00491 15.2549 7.66749 15.2549 7.25198C15.2547 6.83662 14.9174 6.50003 14.502 6.50003Z" fill="#212121"/>
</svg>
