<svg width="20" height="20" viewBox="0 0 20 20" fill="none" xmlns="http://www.w3.org/2000/svg">
<path d="M15 3C15 2.72386 14.7761 2.5 14.5 2.5C14.2239 2.5 14 2.72386 14 3V5H12C11.7239 5 11.5 5.22386 11.5 5.5C11.5 5.77614 11.7239 6 12 6H14V8C14 8.27614 14.2239 8.5 14.5 8.5C14.7761 8.5 15 8.27614 15 8V6H17C17.2761 6 17.5 5.77614 17.5 5.5C17.5 5.22386 17.2761 5 17 5L15 5V3ZM4.5 17C3.67157 17 3 16.3284 3 15.5V4.5C3 3.67157 3.67157 3 4.5 3H9C9.82843 3 10.5 3.67157 10.5 4.5V9.5H15.5C16.3284 9.5 17 10.1716 17 11V15.5C17 16.3284 16.3284 17 15.5 17H4.5ZM10.5 10.5V16H15.5C15.7761 16 16 15.7761 16 15.5V11C16 10.7239 15.7761 10.5 15.5 10.5H10.5ZM9.5 16V10.5H4V15.5C4 15.7589 4.19675 15.9718 4.44888 15.9974C4.46569 15.9991 4.48274 16 4.5 16H9.5ZM9.5 4.5C9.5 4.22386 9.27614 4 9 4H4.5C4.22386 4 4 4.22386 4 4.5V9.5H9.5V4.5Z" fill="#212121"/>
</svg>
