<svg width="20" height="20" viewBox="0 0 20 20" fill="none" xmlns="http://www.w3.org/2000/svg">
<path d="M5.77946 1.87647C5.91734 1.9694 6 2.1248 6 2.29108V5.50006C6 6.05234 6.44772 6.50006 7 6.50006C7.55228 6.50006 8 6.05234 8 5.50006V2.29108C8 2.1248 8.08266 1.9694 8.22054 1.87647C8.35842 1.78353 8.53348 1.76522 8.68761 1.82761C10.3358 2.4948 11.5 4.11101 11.5 6.00032C11.5 7.7679 10.481 9.29643 9 10.0324V16C9 17.1046 8.10457 18 7 18C5.89543 18 5 17.1046 5 16V10.0324C3.51897 9.29643 2.5 7.7679 2.5 6.00032C2.5 4.11101 3.66416 2.4948 5.31239 1.82761C5.46652 1.76522 5.64158 1.78353 5.77946 1.87647ZM5 3.12753C4.09283 3.76031 3.5 4.81148 3.5 6.00032C3.5 7.46839 4.40401 8.72651 5.68761 9.24609C5.87643 9.32252 6 9.50586 6 9.70956V16C6 16.5523 6.44772 17 7 17C7.55228 17 8 16.5523 8 16V9.70956C8 9.50586 8.12357 9.32252 8.31239 9.24609C9.59599 8.72651 10.5 7.46839 10.5 6.00032C10.5 4.81148 9.90717 3.76031 9 3.12753V5.50006C9 6.60463 8.10457 7.50006 7 7.50006C5.89543 7.50006 5 6.60463 5 5.50006V3.12753ZM14.0257 2.34188C14.0937 2.13771 14.2848 1.99999 14.5 1.99999H15.5C15.7152 1.99999 15.9063 2.13771 15.9743 2.34188L16.9743 5.34188C17.0617 5.60385 16.9201 5.88701 16.6581 5.97433L15.5 6.36037V9.99999H17.5C17.7761 9.99999 18 10.2238 18 10.5C18 10.7761 17.7761 11 17.5 11H17V16C17 17.1046 16.1046 18 15 18C13.8954 18 13 17.1046 13 16V11H12.5C12.2239 11 12 10.7761 12 10.5C12 10.2238 12.2239 9.99999 12.5 9.99999H14.5V6.36037L13.3419 5.97433C13.0799 5.88701 12.9383 5.60385 13.0257 5.34188L14.0257 2.34188ZM14.8604 2.99999L14.1325 5.18376L15 5.47294L15.8675 5.18376L15.1396 2.99999H14.8604ZM14 16C14 16.5523 14.4477 17 15 17C15.5523 17 16 16.5523 16 16V11H14V16Z" fill="#212121"/>
</svg>
