<?xml version="1.0" encoding="UTF-8"?>
<svg width="24px" height="24px" viewBox="0 0 24 24" version="1.1" xmlns="http://www.w3.org/2000/svg" xmlns:xlink="http://www.w3.org/1999/xlink">
    <!-- Generator: Sketch 59.1 (86144) - https://sketch.com -->
    <title>ic_upload_24_filled</title>
    <desc>Created with Sketch.</desc>
    <g id="ðŸ”-Product-Icons" stroke="none" stroke-width="1" fill="none" fill-rule="evenodd">
        <g id="ic_upload_24_filled" fill="#212121">
            <path d="M18.7476728,20.5 C19.1618864,20.5 19.4976728,20.8357864 19.4976728,21.25 C19.4976728,21.6642136 19.1618864,22 18.7476728,22 L18.7476728,22 L5.25,22 C4.83578644,22 4.5,21.6642136 4.5,21.25 C4.5,20.8357864 4.83578644,20.5 5.25,20.5 L5.25,20.5 Z M11.2906115,2.29282017 C11.680959,1.9025534 12.313695,1.90236991 12.7042687,2.29241022 L12.7042687,2.29241022 L17.7077144,7.2890229 C18.0985054,7.67928026 18.0989381,8.31244509 17.7086807,8.70323613 C17.3184234,9.09402718 16.6852585,9.09445982 16.2944675,8.70420246 L16.2944675,8.70420246 L12.999,5.413 L12.9988364,18.0000802 C12.9987953,18.5129161 12.6127211,18.9355182 12.1153778,18.9932734 L11.9987562,19 C11.4464714,19 10.9987921,18.5522045 10.9988364,17.9999198 L10.9988364,17.9999198 L11,5.411 L7.70703372,8.70379252 C7.34651252,9.06423923 6.7792786,9.09191016 6.38701891,8.78684474 L6.29282017,8.7036464 C5.90233622,8.31308176 5.90240164,7.67991679 6.29296628,7.28943285 L6.29296628,7.28943285 Z" id="ðŸŽ¨-Color"></path>
        </g>
    </g>
</svg>