<?xml version="1.0" encoding="UTF-8"?>
<svg width="24px" height="24px" viewBox="0 0 24 24" version="1.1" xmlns="http://www.w3.org/2000/svg" xmlns:xlink="http://www.w3.org/1999/xlink">
    <!-- Generator: Sketch 58 (84663) - https://sketch.com -->
    <title>ic_upload_24_filled</title>
    <desc>Created with Sketch.</desc>
    <g id="ðŸ”-Product-Icons" stroke="none" stroke-width="1" fill="none" fill-rule="evenodd">
        <g id="ic_upload_24_filled" fill="#212121">
            <path d="M5.25,20.5 L18.7476728,20.5 C19.1618864,20.5 19.4976728,20.8357864 19.4976728,21.25 C19.4976728,21.6296958 19.2155189,21.943491 18.8494434,21.9931534 L18.7476728,22 L5.25,22 C4.83578644,22 4.5,21.6642136 4.5,21.25 C4.5,20.8703042 4.78215388,20.556509 5.14822944,20.5068466 L5.25,20.5 L18.7476728,20.5 Z M12.6100581,2.2093279 L12.7042687,2.29241022 L17.7077144,7.2890229 C18.0985054,7.67928026 18.0989381,8.31244509 17.7086807,8.70323613 C17.3484432,9.06396633 16.7812312,9.09208344 16.3887317,8.78732668 L16.2944675,8.70420246 L12.999,5.413 L12.9988364,18.0000802 C12.9987953,18.5129161 12.6127211,18.9355182 12.1153778,18.9932734 L11.9987562,19 C11.4464714,19 10.9987921,18.5522045 10.9988364,17.9999198 L10.9988364,17.9999198 L11,5.411 L7.70703372,8.70379252 C7.31646908,9.09427646 6.68330411,9.09421104 6.29282017,8.7036464 C5.93237345,8.3431252 5.90470252,7.77589128 6.20976794,7.38363159 L6.29296628,7.28943285 L11.2906115,2.29282017 C11.6509322,1.93257392 12.2177853,1.90470633 12.6100581,2.2093279 Z" id="ðŸŽ¨-Color"></path>
        </g>
    </g>
</svg>