<svg width="32" height="32" viewBox="0 0 32 32" fill="none" xmlns="http://www.w3.org/2000/svg">
<path d="M11.399 7.00824C10.4385 8.18213 10 9.70007 10 11C10 11.5523 9.55228 12 9 12C5.37634 12 4 14.5283 4 16C4 16.8548 4.21608 17.8355 4.87758 18.5915C5.51523 19.3202 6.70748 20 9 20H13.8518C13.667 20.6402 13.5515 21.3097 13.5137 22H9C6.29252 22 4.48477 21.1798 3.37242 19.9085C2.28392 18.6645 2 17.1452 2 16C2 13.6444 3.93089 10.4699 8.05688 10.0472C8.22868 8.59142 8.79636 7.03082 9.85104 5.74176C11.1661 4.13445 13.2003 3 16 3C17.7001 3 19.6821 3.5615 21.2582 4.85104C22.6793 6.01369 23.7307 7.73841 23.9553 10.0573C25.333 10.2223 26.6687 10.7404 27.7362 11.5647C29.0629 12.5892 30 14.114 30 16C30 16.4631 29.9593 16.912 29.8762 17.342C29.3374 16.5729 28.6814 15.892 27.9341 15.3251C27.7606 14.4565 27.2525 13.7182 26.5138 13.1477C25.5771 12.4243 24.2961 12 23 12C22.4477 12 22 11.5523 22 11C22 8.7997 21.1344 7.33388 19.9918 6.39896C18.8179 5.4385 17.2999 5 16 5C13.7997 5 12.3339 5.86555 11.399 7.00824ZM22.5 15C26.6421 15 30 18.3579 30 22.5C30 26.6421 26.6421 30 22.5 30C18.3579 30 15 26.6421 15 22.5C15 18.3579 18.3579 15 22.5 15ZM19.7803 26.2803L22.5 23.5607L25.2197 26.2803C25.5126 26.5732 25.9874 26.5732 26.2803 26.2803C26.5732 25.9874 26.5732 25.5126 26.2803 25.2197L23.5607 22.5L26.2803 19.7803C26.5732 19.4874 26.5732 19.0126 26.2803 18.7197C25.9874 18.4268 25.5126 18.4268 25.2197 18.7197L22.5 21.4393L19.7803 18.7197C19.4874 18.4268 19.0126 18.4268 18.7197 18.7197C18.4268 19.0126 18.4268 19.4874 18.7197 19.7803L21.4393 22.5L18.7197 25.2197C18.4268 25.5126 18.4268 25.9874 18.7197 26.2803C19.0126 26.5732 19.4874 26.5732 19.7803 26.2803Z" fill="#212121"/>
</svg>
