<svg width="16" height="16" viewBox="0 0 16 16" fill="none" xmlns="http://www.w3.org/2000/svg">
<path d="M8 2C8.27614 2 8.5 2.22386 8.5 2.5V3.5C8.5 3.77614 8.27614 4 8 4C7.72386 4 7.5 3.77614 7.5 3.5V2.5C7.5 2.22386 7.72386 2 8 2ZM8 11C9.65685 11 11 9.65685 11 8C11 6.34315 9.65685 5 8 5C6.34315 5 5 6.34315 5 8C5 9.65685 6.34315 11 8 11ZM8 10C6.89543 10 6 9.10457 6 8C6 6.89543 6.89543 6 8 6C9.10457 6 10 6.89543 10 8C10 9.10457 9.10457 10 8 10ZM13.5 8.5C13.7761 8.5 14 8.27614 14 8C14 7.72386 13.7761 7.5 13.5 7.5H12.5C12.2239 7.5 12 7.72386 12 8C12 8.27614 12.2239 8.5 12.5 8.5H13.5ZM8 12C8.27614 12 8.5 12.2239 8.5 12.5V13.5C8.5 13.7761 8.27614 14 8 14C7.72386 14 7.5 13.7761 7.5 13.5V12.5C7.5 12.2239 7.72386 12 8 12ZM3.5 8.5C3.77614 8.5 4 8.27614 4 8C4 7.72386 3.77614 7.5 3.5 7.5H2.5C2.22386 7.5 2 7.72386 2 8C2 8.27614 2.22386 8.5 2.5 8.5H3.5ZM3.64645 3.64651C3.84171 3.45125 4.15829 3.45125 4.35355 3.64651L4.85355 4.14651C5.04882 4.34177 5.04882 4.65835 4.85355 4.85361C4.65829 5.04888 4.34171 5.04888 4.14645 4.85361L3.64645 4.35361C3.45118 4.15835 3.45118 3.84177 3.64645 3.64651ZM4.35355 12.3536C4.15829 12.5489 3.84171 12.5489 3.64645 12.3536C3.45118 12.1584 3.45118 11.8418 3.64645 11.6465L4.14645 11.1465C4.34171 10.9512 4.65829 10.9512 4.85355 11.1465C5.04882 11.3418 5.04882 11.6584 4.85355 11.8536L4.35355 12.3536ZM12.3536 3.64651C12.1583 3.45125 11.8417 3.45125 11.6464 3.64651L11.1464 4.14651C10.9512 4.34177 10.9512 4.65835 11.1464 4.85361C11.3417 5.04888 11.6583 5.04888 11.8536 4.85361L12.3536 4.35361C12.5488 4.15835 12.5488 3.84177 12.3536 3.64651ZM11.1464 11.8536L11.6464 12.3536C11.8417 12.5489 12.1583 12.5489 12.3536 12.3536C12.5488 12.1584 12.5488 11.8418 12.3536 11.6465L11.8536 11.1465C11.6583 10.9512 11.3417 10.9512 11.1464 11.1465C10.9512 11.3418 10.9512 11.6584 11.1464 11.8536Z" fill="#212121"/>
</svg>
