<svg width="20" height="20" viewBox="0 0 20 20" fill="none" xmlns="http://www.w3.org/2000/svg">
<path d="M19 5.5C19 7.98528 16.9853 10 14.5 10C12.0147 10 10 7.98528 10 5.5C10 3.01472 12.0147 1 14.5 1C16.9853 1 19 3.01472 19 5.5ZM15 3.5C15 3.22386 14.7761 3 14.5 3C14.2239 3 14 3.22386 14 3.5V5H12.5C12.2239 5 12 5.22386 12 5.5C12 5.77614 12.2239 6 12.5 6H14V7.5C14 7.77614 14.2239 8 14.5 8C14.7761 8 15 7.77614 15 7.5V6H16.5C16.7761 6 17 5.77614 17 5.5C17 5.22386 16.7761 5 16.5 5H15V3.5ZM16 11.5C16 11.261 15.9441 11.035 15.8446 10.8344C16.2494 10.7327 16.6364 10.5861 17 10.4003V15C17 16.1046 16.1046 17 15 17H5C3.89543 17 3 16.1046 3 15V6C3 4.34315 4.34315 3 6 3H9.59971C9.43777 3.31679 9.30564 3.65136 9.20703 4H6C4.89543 4 4 4.89543 4 6V9.49982C4.41783 9.18597 4.9372 9 5.5 9C6.39355 9 7.17761 9.46879 7.61966 10.1738C8.16807 9.46007 9.03031 9 10 9C10.0899 9 10.1789 9.00396 10.2669 9.01171C11.0008 9.89549 12.0063 10.5457 13.1554 10.8344C13.0559 11.035 13 11.261 13 11.5V16H15C15.5523 16 16 15.5523 16 15V11.5ZM12 12C12 10.8954 11.1046 10 10 10C8.89543 10 8 10.8954 8 12V16H12V12ZM4 15C4 15.5523 4.44772 16 5 16H7V11.5C7 10.6716 6.32843 10 5.5 10C4.67157 10 4 10.6716 4 11.5V15Z" fill="#212121"/>
</svg>
