<svg width="32" height="32" viewBox="0 0 32 32" fill="none" xmlns="http://www.w3.org/2000/svg">
<path d="M25.998 2C26.158 2 26.338 2.02 26.498 2.04C26.678 2.06 26.838 2.1 26.998 2.14C25.398 2.56 24.198 3.92 24.038 5.6C24.0198 5.78474 24.0094 5.85391 24.0042 5.88908C24.0019 5.90417 24.0006 5.91299 24 5.922V27C24 28.656 22.654 30 21 30C19.346 30 18 28.654 18 27V24C18 22.896 17.104 22 16 22H6V7C6 4.238 8.238 2 11 2H25.998ZM16 24V27C16 28.13 16.392 29.162 17.026 30H16.556C14.0458 30 13.4896 29.998 11.8281 30H11.1C8.448 30.004 6.96 30.012 6.1 30H6C3.79 30 2 28.21 2 26V25C2 24.448 2.448 24 3 24H16ZM28 4C27.64 4 27.3 4.1 27 4.28C26.4 4.62 26 5.26 26 6V10H28C29.1 10 30 9.1 30 8V6C30 4.9 29.1 4 28 4Z" fill="#212121"/>
</svg>
