<svg width="48" height="48" viewBox="0 0 48 48" fill="none" xmlns="http://www.w3.org/2000/svg">
<path d="M12 18.5C12 11.8726 17.3726 6.5 24 6.5C30.6274 6.5 36 11.8726 36 18.5C36 22.0044 34.4995 25.1565 32.102 27.3521C31.3872 28.0067 30.7683 28.8708 30.4984 29.9236L29.3249 34.5H18.6751L17.5016 29.9236C17.2317 28.8708 16.6128 28.0067 15.898 27.3521C13.5005 25.1565 12 22.0044 12 18.5ZM19.3161 37H28.6839L27.9637 39.8088C27.7085 40.8041 26.8116 41.5 25.7842 41.5H22.2158C21.1884 41.5 20.2915 40.8041 20.0363 39.8088L19.3161 37ZM24 4C15.9919 4 9.5 10.4919 9.5 18.5C9.5 22.7345 11.3167 26.5465 14.2095 29.1957C14.6581 29.6066 14.9581 30.0693 15.08 30.5446L17.6146 40.4298C18.1534 42.5308 20.0468 44 22.2158 44H25.7842C27.9532 44 29.8466 42.5308 30.3854 40.4298L32.92 30.5446C33.0419 30.0693 33.3419 29.6066 33.7905 29.1957C36.6833 26.5465 38.5 22.7345 38.5 18.5C38.5 10.4919 32.0081 4 24 4Z" fill="#212121"/>
</svg>
