<svg width="20" height="20" viewBox="0 0 20 20" fill="none" xmlns="http://www.w3.org/2000/svg">
<path d="M12.6875 16.6062C12.5028 17.3769 11.8218 17.935 11.0168 17.9946L10.8736 17.9999H9.12597C8.30719 17.9999 7.59072 17.484 7.34931 16.7387L7.31171 16.6049L6.80908 14.5H13.1916L12.6875 16.6062Z" fill="url(#paint0_radial_72095_9059)"/>
<path d="M12.6875 16.6062C12.5028 17.3769 11.8218 17.935 11.0168 17.9946L10.8736 17.9999H9.12597C8.30719 17.9999 7.59072 17.484 7.34931 16.7387L7.31171 16.6049L6.80908 14.5H13.1916L12.6875 16.6062Z" fill="url(#paint1_linear_72095_9059)"/>
<path d="M6.80921 14.5H13.1917L13.6529 12.5731C13.662 12.535 13.6823 12.5004 13.7116 12.4734C15.2258 11.0754 16.0001 9.51 16.0001 7.80069C16.0001 4.59733 13.3139 2.00049 10.0003 2.00049C6.68668 2.00049 4.00049 4.59732 4.00049 7.80069C4.00049 9.50999 4.77522 11.0754 6.29035 12.4735C6.31959 12.5004 6.34001 12.5351 6.3491 12.5732L6.80921 14.5Z" fill="url(#paint2_radial_72095_9059)"/>
<path d="M6.92873 15H13.0721L13.3115 14H6.68994L6.92873 15Z" fill="url(#paint3_linear_72095_9059)"/>
<defs>
<radialGradient id="paint0_radial_72095_9059" cx="0" cy="0" r="1" gradientUnits="userSpaceOnUse" gradientTransform="translate(5.99969 3.57124) rotate(73.9841) scale(14.2991 21.7659)">
<stop stop-color="#FFE06B"/>
<stop offset="0.376456" stop-color="#FFA43D"/>
<stop offset="1" stop-color="#E67505"/>
</radialGradient>
<linearGradient id="paint1_linear_72095_9059" x1="9.99988" y1="14.5" x2="10.0002" y2="17.9999" gradientUnits="userSpaceOnUse">
<stop stop-color="#D34719"/>
<stop offset="1" stop-color="#D34719" stop-opacity="0"/>
</linearGradient>
<radialGradient id="paint2_radial_72095_9059" cx="0" cy="0" r="1" gradientUnits="userSpaceOnUse" gradientTransform="translate(5.99981 3.57124) rotate(73.9841) scale(14.2991 21.7659)">
<stop stop-color="#FFE06B"/>
<stop offset="0.376456" stop-color="#FFA43D"/>
<stop offset="1" stop-color="#E67505"/>
</radialGradient>
<linearGradient id="paint3_linear_72095_9059" x1="9.47695" y1="14.3972" x2="10.2314" y2="16.3962" gradientUnits="userSpaceOnUse">
<stop stop-color="#FFC7A3"/>
<stop offset="1" stop-color="#FF9C70"/>
</linearGradient>
</defs>
</svg>
