<?xml version="1.0" encoding="UTF-8"?>
<svg width="20px" height="20px" viewBox="0 0 20 20" version="1.1" xmlns="http://www.w3.org/2000/svg" xmlns:xlink="http://www.w3.org/1999/xlink">
    <!-- Generator: Sketch 64 (93537) - https://sketch.com -->
    <title>ic_fluent_lightbulb_20_regular</title>
    <desc>Created with Sketch.</desc>
    <g id="ðŸ”-System-Icons" stroke="none" stroke-width="1" fill="none" fill-rule="evenodd">
        <g id="ic_fluent_lightbulb_20_regular" fill="#212121" fill-rule="nonzero">
            <path d="M10,2 C13.3137,2 16,4.59693 16,7.80041 C16,9.47737 15.2546,11.0164 13.7961,12.3942 C13.7324,12.4544 13.6831,12.5269 13.6512,12.6065 L13.6251,12.6883 L12.6891,16.6051 C12.5048,17.3763 11.8236,17.935 11.0181,17.9947 L10.8748,18 L9.12546,18 C8.30655,18 7.59,17.4839 7.34866,16.7385 L7.31108,16.6047 L6.37626,12.6886 C6.34955,12.5766 6.29016,12.4745 6.20516,12.3942 C4.8153,11.0819 4.07265,9.62354 4.00507,8.03903 L4,7.80041 L4.00321,7.60894 C4.1077,4.49409 6.75257,2 10,2 Z M12.045,15 L7.955,15 L8.27386,16.3344 L8.30004,16.4305 C8.39695,16.7298 8.67583,16.9517 9.0116,16.993 L9.12546,17 L10.8379,17.0007 L10.9442,16.9974 C11.2865,16.9721 11.5726,16.7609 11.6854,16.4718 L11.7165,16.3727 L12.045,15 Z M10,3 C7.36782,3 5.21188,4.95301 5.0151,7.41357 L5.00307,7.62569 L4.99977,7.77916 L5.00416,7.99642 C5.05977,9.30026 5.67758,10.5208 6.89167,11.6671 C7.07995,11.8449 7.22191,12.0647 7.30572,12.3078 L7.34894,12.4564 L7.716,14 L12.285,14 L12.6722,12.3851 L12.7231,12.2343 C12.8091,12.0198 12.9409,11.8265 13.1094,11.6673 C14.3825,10.4646 15,9.18054 15,7.80041 C15,5.15693 12.7689,3 10,3 Z" id="ðŸŽ¨-Color"></path>
        </g>
    </g>
</svg>