<svg width="32" height="32" viewBox="0 0 32 32" fill="none" xmlns="http://www.w3.org/2000/svg">
<path d="M7 12C7 7.02944 11.0294 3 16 3C20.9706 3 25 7.02944 25 12C25 14.6156 23.8849 16.97 22.1026 18.6151C21.499 19.1722 20.9902 19.8953 20.8098 20.7612L20.1351 24H11.8649L11.1902 20.7612C11.0098 19.8953 10.501 19.1722 9.8974 18.6151C8.11513 16.97 7 14.6156 7 12ZM12.0732 25H19.9268L19.508 27.0099C19.2665 28.1692 18.2448 29 17.0606 29H14.9394C13.7552 29 12.7335 28.1692 12.492 27.0099L12.0732 25ZM16 2C10.4772 2 6 6.47715 6 12C6 14.9062 7.24039 17.5235 9.21915 19.3499C9.71927 19.8115 10.0852 20.3607 10.2112 20.9652L11.513 27.2138C11.8511 28.8369 13.2815 30 14.9394 30H17.0606C18.7185 30 20.1489 28.8369 20.487 27.2138L21.7888 20.9652C21.9148 20.3607 22.2807 19.8115 22.7809 19.3499C24.7596 17.5235 26 14.9062 26 12C26 6.47715 21.5228 2 16 2Z" fill="#212121"/>
</svg>
