<svg width="32" height="32" viewBox="0 0 32 32" fill="none" xmlns="http://www.w3.org/2000/svg">
<path d="M16 2C10.4772 2 6 6.47715 6 12C6 14.9771 7.30225 17.6514 9.36493 19.4818C9.7078 19.7861 9.92612 20.1271 10.0049 20.4685L10.8199 24H21.1801L21.9951 20.4685C22.0739 20.1271 22.2922 19.7861 22.6351 19.4818C24.6978 17.6514 26 14.9771 26 12C26 6.47715 21.5228 2 16 2ZM20.7186 26H11.2814L11.5784 27.287C11.9449 28.8751 13.359 30 14.9888 30H17.0112C18.641 30 20.0551 28.8751 20.4216 27.287L20.7186 26Z" fill="#212121"/>
</svg>
