<svg width="16" height="16" viewBox="0 0 16 16" fill="none" xmlns="http://www.w3.org/2000/svg">
<path d="M8.99951 1H6C4.89543 1 4 1.89543 4 3V5.20508C4.47683 5.07021 4.97999 4.99805 5.5 4.99805C8.53757 4.99805 11 7.46048 11 10.498C11 12.357 10.0778 14.0005 8.66586 14.9961H12C13.1046 14.9961 14 14.1007 14 12.9961V6.00094H10.4995C9.67108 6.00094 8.99951 5.32936 8.99951 4.50094V1ZM13.9967 5.00094H10.4995C10.2234 5.00094 9.99951 4.77708 9.99951 4.50094V1H10.0084L13.9967 5.00094ZM10 10.5C10 12.9853 7.98528 15 5.5 15C3.01472 15 1 12.9853 1 10.5C1 8.01472 3.01472 6 5.5 6C7.98528 6 10 8.01472 10 10.5ZM5.14605 12.8532L5.14857 12.8557C5.19602 12.9026 5.25051 12.938 5.30861 12.9621C5.36669 12.9861 5.4303 12.9996 5.497 13L5.5 13L5.503 13C5.5697 12.9996 5.63331 12.9861 5.69139 12.9621C5.75036 12.9377 5.80561 12.9015 5.85355 12.8536L7.85355 10.8536C8.04882 10.6583 8.04882 10.3417 7.85355 10.1464C7.65829 9.95118 7.34171 9.95118 7.14645 10.1464L6 11.2929V8.5C6 8.22386 5.77614 8 5.5 8C5.22386 8 5 8.22386 5 8.5L5 11.2929L3.85355 10.1464C3.65829 9.95118 3.34171 9.95118 3.14645 10.1464C2.95118 10.3417 2.95118 10.6583 3.14645 10.8536L5.14605 12.8532Z" fill="#212121"/>
</svg>
