<svg width="48" height="48" viewBox="0 0 48 48" fill="none" xmlns="http://www.w3.org/2000/svg">
<path d="M17 16.5H12.25C10.1789 16.5 8.5 18.1789 8.5 20.25V35.75C8.5 37.8211 10.1789 39.5 12.25 39.5H22.75C24.737 39.5 26.3625 37.9545 26.4912 36H28.9941C28.8629 39.3359 26.118 42 22.75 42H12.25C8.79822 42 6 39.2018 6 35.75V20.25C6 16.7982 8.79822 14 12.25 14H17V16.5ZM35.75 6C39.2018 6 42 8.79822 42 12.25V27.75C42 31.2018 39.2018 34 35.75 34H25.25C21.7982 34 19 31.2018 19 27.75V12.25C19 8.79822 21.7982 6 25.25 6H35.75ZM25.25 8.5C23.1789 8.5 21.5 10.1789 21.5 12.25V27.75C21.5 29.8211 23.1789 31.5 25.25 31.5H35.75C37.8211 31.5 39.5 29.8211 39.5 27.75V12.25C39.5 10.1789 37.8211 8.5 35.75 8.5H25.25Z" fill="#212121"/>
</svg>
