<svg width="16" height="16" viewBox="0 0 16 16" fill="none" xmlns="http://www.w3.org/2000/svg">
<path d="M14 8C14 11.3137 11.3137 14 8 14C4.68629 14 2 11.3137 2 8H5.87716L5.0302 10.3291C4.93583 10.5886 5.06971 10.8755 5.32923 10.9699C5.58874 11.0643 5.87563 10.9304 5.97 10.6709L7.97 5.17088C8.06437 4.91136 7.9305 4.62448 7.67098 4.53011C7.41146 4.43574 7.12458 4.56962 7.03021 4.82913L6.2408 7H2.08296C2.55904 4.16229 5.027 2 8 2C10.973 2 13.441 4.16229 13.917 7H10.3049L10.97 5.17088C11.0644 4.91136 10.9305 4.62448 10.671 4.53011C10.4115 4.43574 10.1246 4.56962 10.0302 4.82914L8.03021 10.3291C7.93584 10.5887 8.06972 10.8755 8.32924 10.9699C8.58875 11.0643 8.87564 10.9304 8.97001 10.6709L9.94123 8H14Z" fill="#212121"/>
</svg>
