<svg width="20" height="20" viewBox="0 0 20 20" fill="none" xmlns="http://www.w3.org/2000/svg">
<path d="M4.14708 14.3544C3.95147 14.1594 3.9509 13.8429 4.14582 13.6472L9.6108 8.16276C9.82574 7.94705 10.1751 7.94705 10.39 8.16276L15.855 13.6472C16.0499 13.8429 16.0493 14.1594 15.8537 14.3544C15.6581 14.5493 15.3415 14.5487 15.1466 14.3531L10.0004 9.18851L4.85418 14.3531C4.65927 14.5487 4.34269 14.5493 4.14708 14.3544ZM4.14708 10.3534C3.95147 10.1585 3.9509 9.84188 4.14582 9.64627L9.6108 4.16178C9.82574 3.94607 10.1751 3.94607 10.39 4.16178L15.855 9.64627C16.0499 9.84188 16.0493 10.1585 15.8537 10.3534C15.6581 10.5483 15.3415 10.5477 15.1466 10.3521L10.0004 5.18753L4.85418 10.3521C4.65927 10.5477 4.34269 10.5483 4.14708 10.3534Z" fill="#212121"/>
</svg>
