<svg width="24" height="24" viewBox="0 0 24 24" fill="none" xmlns="http://www.w3.org/2000/svg">
<path d="M20 6.41421V10C20 10.5523 19.5523 11 19 11C18.4477 11 18 10.5523 18 10V6.41421L17.7071 6.70711C17.3166 7.09763 16.6834 7.09763 16.2929 6.70711C15.9024 6.31658 15.9024 5.68342 16.2929 5.29289L18.2929 3.29289C18.3888 3.19702 18.4993 3.12468 18.6172 3.07588C18.7351 3.02699 18.8644 3 19 3C19.1356 3 19.2649 3.02699 19.3828 3.07588C19.5007 3.12468 19.6112 3.19702 19.7071 3.29289L21.7071 5.29289C22.0976 5.68342 22.0976 6.31658 21.7071 6.70711C21.3166 7.09763 20.6834 7.09763 20.2929 6.70711L20 6.41421Z" fill="#212121"/>
<path d="M2 6C2 5.44772 2.44772 5 3 5H11C11.5523 5 12 5.44772 12 6C12 6.55228 11.5523 7 11 7H3C2.44772 7 2 6.55228 2 6Z" fill="#212121"/>
<path d="M2 12C2 11.4477 2.44772 11 3 11H14C14.5523 11 15 11.4477 15 12C15 12.5523 14.5523 13 14 13H3C2.44772 13 2 12.5523 2 12Z" fill="#212121"/>
<path d="M3 17C2.44772 17 2 17.4477 2 18C2 18.5523 2.44772 19 3 19H11C11.5523 19 12 18.5523 12 18C12 17.4477 11.5523 17 11 17H3Z" fill="#212121"/>
<path d="M20 14V17.5858L20.2929 17.2929C20.6834 16.9024 21.3166 16.9024 21.7071 17.2929C22.0976 17.6834 22.0976 18.3166 21.7071 18.7071L19.7071 20.7071C19.3166 21.0976 18.6834 21.0976 18.2929 20.7071L16.2929 18.7071C15.9024 18.3166 15.9024 17.6834 16.2929 17.2929C16.6834 16.9024 17.3166 16.9024 17.7071 17.2929L18 17.5858V14C18 13.4477 18.4477 13 19 13C19.5523 13 20 13.4477 20 14Z" fill="#212121"/>
</svg>
