<svg width="16" height="16" viewBox="0 0 16 16" fill="none" xmlns="http://www.w3.org/2000/svg">
<path d="M11.5 6H2V11.5C2 12.8807 3.11929 14 4.5 14H6.59971C6.21628 13.2499 6 12.4002 6 11.5C6 8.46243 8.46243 6 11.5 6ZM14 4.5C14 3.11929 12.8807 2 11.5 2H4.5C3.11929 2 2 3.11929 2 4.5V5H14V4.5ZM16 11.5C16 13.9853 13.9853 16 11.5 16C9.01472 16 7 13.9853 7 11.5C7 9.01472 9.01472 7 11.5 7C13.9853 7 16 9.01472 16 11.5ZM11.976 8.86053C11.8262 8.37982 11.1738 8.37982 11.024 8.86053L10.5465 10.3923H9.00149C8.51662 10.3923 8.31501 11.0391 8.70728 11.3362L9.95725 12.2829L9.4798 13.8146C9.32997 14.2953 9.85775 14.6951 10.25 14.398L11.5 13.4513L12.75 14.398C13.1422 14.6951 13.67 14.2953 13.5202 13.8146L13.0428 12.2829L14.2927 11.3362C14.685 11.0391 14.4834 10.3923 13.9985 10.3923H12.4535L11.976 8.86053Z" fill="#212121"/>
</svg>
