<svg width="20" height="20" viewBox="0 0 20 20" fill="none" xmlns="http://www.w3.org/2000/svg">
<path d="M3 4C2.17157 4 1.5 4.67157 1.5 5.5V7.5C1.5 8.32843 2.17157 9 3 9H5C5.82843 9 6.5 8.32843 6.5 7.5V5.5C6.5 4.67157 5.82843 4 5 4H3ZM2.5 5.5C2.5 5.22386 2.72386 5 3 5H5C5.27614 5 5.5 5.22386 5.5 5.5V7.5C5.5 7.77614 5.27614 8 5 8H3C2.72386 8 2.5 7.77614 2.5 7.5V5.5ZM3 10C2.17157 10 1.5 10.6716 1.5 11.5V13.5C1.5 14.3284 2.17157 15 3 15H5C5.82843 15 6.5 14.3284 6.5 13.5V11.5C6.5 10.6716 5.82843 10 5 10H3ZM2.5 11.5C2.5 11.2239 2.72386 11 3 11H5C5.27614 11 5.5 11.2239 5.5 11.5V13.5C5.5 13.7761 5.27614 14 5 14H3C2.72386 14 2.5 13.7761 2.5 13.5V11.5ZM7.5 5.5C7.5 4.67157 8.17157 4 9 4H11C11.8284 4 12.5 4.67157 12.5 5.5V7.5C12.5 8.32843 11.8284 9 11 9H9C8.17157 9 7.5 8.32843 7.5 7.5V5.5ZM9 5C8.72386 5 8.5 5.22386 8.5 5.5V7.5C8.5 7.77614 8.72386 8 9 8H11C11.2761 8 11.5 7.77614 11.5 7.5V5.5C11.5 5.22386 11.2761 5 11 5H9ZM9 10C8.17157 10 7.5 10.6716 7.5 11.5V13.5C7.5 14.3284 8.17157 15 9 15H11C11.8284 15 12.5 14.3284 12.5 13.5V11.5C12.5 10.6716 11.8284 10 11 10H9ZM8.5 11.5C8.5 11.2239 8.72386 11 9 11H11C11.2761 11 11.5 11.2239 11.5 11.5V13.5C11.5 13.7761 11.2761 14 11 14H9C8.72386 14 8.5 13.7761 8.5 13.5V11.5ZM13.5 5.5C13.5 4.67157 14.1716 4 15 4H17C17.8284 4 18.5 4.67157 18.5 5.5V7.5C18.5 8.32843 17.8284 9 17 9H15C14.1716 9 13.5 8.32843 13.5 7.5V5.5ZM15 5C14.7239 5 14.5 5.22386 14.5 5.5V7.5C14.5 7.77614 14.7239 8 15 8H17C17.2761 8 17.5 7.77614 17.5 7.5V5.5C17.5 5.22386 17.2761 5 17 5H15ZM15 10C14.1716 10 13.5 10.6716 13.5 11.5V13.5C13.5 14.3284 14.1716 15 15 15H17C17.8284 15 18.5 14.3284 18.5 13.5V11.5C18.5 10.6716 17.8284 10 17 10H15ZM14.5 11.5C14.5 11.2239 14.7239 11 15 11H17C17.2761 11 17.5 11.2239 17.5 11.5V13.5C17.5 13.7761 17.2761 14 17 14H15C14.7239 14 14.5 13.7761 14.5 13.5V11.5Z" fill="#212121"/>
</svg>
