<svg width="20" height="20" viewBox="0 0 20 20" fill="none" xmlns="http://www.w3.org/2000/svg">
<path fill-rule="evenodd" clip-rule="evenodd" d="M6.5 4.25C6.5 3.48456 7.01725 3 7.5 3C7.98275 3 8.5 3.48456 8.5 4.25C8.5 5.01544 7.98275 5.5 7.5 5.5C7.01725 5.5 6.5 5.01544 6.5 4.25ZM7.5 2C6.3259 2 5.5 3.08245 5.5 4.25C5.5 5.41755 6.3259 6.5 7.5 6.5C8.6741 6.5 9.5 5.41755 9.5 4.25C9.5 3.08245 8.6741 2 7.5 2ZM3 5.5C2.51725 5.5 2 5.98456 2 6.75C2 7.51544 2.51725 8 3 8C3.48275 8 4 7.51544 4 6.75C4 5.98456 3.48275 5.5 3 5.5ZM1 6.75C1 5.58245 1.8259 4.5 3 4.5C4.1741 4.5 5 5.58245 5 6.75C5 7.91755 4.1741 9 3 9C1.8259 9 1 7.91755 1 6.75ZM17 5.5C16.5172 5.5 16 5.98456 16 6.75C16 7.51544 16.5172 8 17 8C17.4828 8 18 7.51544 18 6.75C18 5.98456 17.4828 5.5 17 5.5ZM15 6.75C15 5.58245 15.8259 4.5 17 4.5C18.1741 4.5 19 5.58245 19 6.75C19 7.91755 18.1741 9 17 9C15.8259 9 15 7.91755 15 6.75ZM12.5 3C12.0172 3 11.5 3.48456 11.5 4.25C11.5 5.01544 12.0172 5.5 12.5 5.5C12.9828 5.5 13.5 5.01544 13.5 4.25C13.5 3.48456 12.9828 3 12.5 3ZM10.5 4.25C10.5 3.08245 11.3259 2 12.5 2C13.6741 2 14.5 3.08245 14.5 4.25C14.5 5.41755 13.6741 6.5 12.5 6.5C11.3259 6.5 10.5 5.41755 10.5 4.25ZM5 14C5 11.2386 7.23858 9 10 9C12.7614 9 15 11.2386 15 14C15 14.6064 14.7026 15.09 14.2104 15.4397C13.708 15.7965 13.0145 16 12.3052 16H7.69479C6.98546 16 6.29199 15.7965 5.78964 15.4397C5.29742 15.09 5 14.6064 5 14ZM10 8C6.68629 8 4 10.6863 4 14C4 14.9864 4.50358 15.7528 5.21055 16.2549C5.90741 16.7499 6.81133 17 7.69479 17H12.3052C13.1887 17 14.0926 16.7499 14.7894 16.2549C15.4964 15.7528 16 14.9864 16 14C16 10.6863 13.3137 8 10 8Z" fill="#212121"/>
</svg>
