<svg width="32" height="32" viewBox="0 0 32 32" fill="none" xmlns="http://www.w3.org/2000/svg">
<path d="M2 7.25C2 6.55964 2.55964 6 3.25 6H28.75C29.4404 6 30 6.55964 30 7.25C30 7.94036 29.4404 8.5 28.75 8.5H3.25C2.55964 8.5 2 7.94036 2 7.25ZM2 13.25C2 12.5596 2.55964 12 3.25 12H28.75C29.4404 12 30 12.5596 30 13.25C30 13.3548 29.9871 13.4565 29.9628 13.5538C29.814 13.5187 29.6573 13.5 29.494 13.5H21.1167C20.3214 13.5 19.5837 13.8775 19.1172 14.5H3.25C2.55964 14.5 2 13.9404 2 13.25ZM17.3348 18H3.25C2.55964 18 2 18.5596 2 19.25C2 19.9404 2.55964 20.5 3.25 20.5H16.0948L17.3348 18ZM14.5096 24C14.3678 25.2727 15.3555 26.4934 16.7478 26.4934L3.25 26.5C2.55964 26.5 2 25.9404 2 25.25C2 24.5596 2.55964 24 3.25 24H14.5096ZM21.1201 15H29.5017C29.8914 15 30.1313 15.4261 29.9292 15.7593L26.7498 21H29.2403C29.9152 21 30.2467 21.8219 29.7606 22.2901L21.0135 30.7168C20.2557 31.4468 19.0294 30.6617 19.3753 29.6679L20.9998 25H16.749C16.1925 25 15.8298 24.4153 16.0771 23.9167L20.2242 15.5557C20.393 15.2153 20.7401 15 21.1201 15Z" fill="#212121"/>
</svg>
