<svg width="16" height="16" viewBox="0 0 16 16" fill="none" xmlns="http://www.w3.org/2000/svg">
<path d="M1 3.5C1 3.22386 1.22386 3 1.5 3H14.5C14.7761 3 15 3.22386 15 3.5C15 3.77614 14.7761 4 14.5 4H1.5C1.22386 4 1 3.77614 1 3.5ZM1 6.5C1 6.22386 1.22386 6 1.5 6H8.16823L7.75156 7H1.5C1.22386 7 1 6.77614 1 6.5ZM6.50156 10H1.5C1.22386 10 1 9.77614 1 9.5C1 9.22386 1.22386 9 1.5 9H6.91823L6.50156 10ZM6.08668 12C6.289 12.5673 6.82685 13 7.50156 13H1.5C1.22386 13 1 12.7761 1 12.5C1 12.2239 1.22386 12 1.5 12H6.08668ZM7.50247 12H9.25247L8.66267 14.3592C8.54186 14.8424 9.12476 15.1859 9.4889 14.846L14.3614 10.2983C14.8591 9.83383 14.5304 9 13.8497 9H12.7525L13.5331 6.65811C13.641 6.33435 13.4 6 13.0588 6H9.58581C9.38396 6 9.2019 6.12137 9.12427 6.30769L7.04093 11.3077C6.90371 11.637 7.14568 12 7.50247 12Z" fill="#212121"/>
</svg>
