<svg width="48" height="48" viewBox="0 0 48 48" fill="none" xmlns="http://www.w3.org/2000/svg">
<path d="M12.25 6C8.79822 6 6 8.79822 6 12.25V35.75C6 39.2018 8.79822 42 12.25 42H22.0226C22.1021 41.1242 22.3909 40.2638 22.8889 39.5H12.25C10.1789 39.5 8.5 37.8211 8.5 35.75V16.5H39.5V22.112C39.7722 22.153 40.0411 22.2051 40.3061 22.2677C41.1707 22.4719 41.7319 23.0182 42 23.6751V12.25C42 8.79822 39.2018 6 35.75 6H12.25ZM29.9749 44.9749C28.608 46.3417 26.392 46.3417 25.0251 44.9749C24.2142 44.1639 23.8844 43.0541 24.0357 42C24.1264 41.3677 24.3903 40.7555 24.8273 40.24C24.8897 40.1663 24.9556 40.0946 25.0251 40.0251L30.4367 34.6136C30.1537 33.7946 30 32.9152 30 32C30 27.5817 33.5817 24 38 24C38.5127 24 39.0141 24.0482 39.5 24.1404C39.6164 24.1625 39.7318 24.1871 39.8463 24.2141C40.2049 24.2988 40.3091 24.7386 40.0502 25L40.0484 25.0018L36.5251 28.5251C35.1583 29.892 35.1583 32.108 36.5251 33.4749C37.892 34.8417 40.108 34.8417 41.4749 33.4749L44.9982 29.9516C45.2593 29.6904 45.701 29.7943 45.7859 30.1537C45.9259 30.7464 46 31.3645 46 32C46 36.4183 42.4183 40 38 40C37.0848 40 36.2054 39.8463 35.3864 39.5633L29.9749 44.9749Z" fill="#212121"/>
</svg>
