<svg width="32" height="32" viewBox="0 0 32 32" fill="none" xmlns="http://www.w3.org/2000/svg">
<path d="M5 5C5 3.34315 6.34315 2 8 2H18.1716C18.9672 2 19.7303 2.31607 20.2929 2.87868L26.1213 8.70711C26.6839 9.26972 27 10.0328 27 10.8284V27C27 28.6569 25.6569 30 24 30H18.2866C18.4248 29.609 18.5 29.1883 18.5 28.75V28H24C24.5523 28 25 27.5523 25 27V12H20C18.3431 12 17 10.6569 17 9V4H8C7.44772 4 7 4.44772 7 5V14.5354C6.22122 14.6468 5.52514 15.0146 5 15.5505V5ZM20 10H24.5858L19 4.41421V9C19 9.55228 19.4477 10 20 10ZM5.5 18V19.5H4.25C3.09186 19.5 2.13809 20.375 2.01373 21.5H2V28.75C2 29.9926 3.00736 31 4.25 31H14.75C15.9926 31 17 29.9926 17 28.75V21.5H16.9863C16.8619 20.375 15.9081 19.5 14.75 19.5H13.5V18C13.5 16.8954 12.6046 16 11.5 16H7.5C6.39543 16 5.5 16.8954 5.5 18ZM7.5 17.5H11.5C11.7761 17.5 12 17.7239 12 18V19.5H7V18C7 17.7239 7.22386 17.5 7.5 17.5Z" fill="#212121"/>
</svg>
