<svg width="28" height="28" viewBox="0 0 28 28" fill="none" xmlns="http://www.w3.org/2000/svg">
<path d="M12.9871 3.9519C13.5966 3.34241 14.4232 3 15.2852 3H22.2496C23.7684 3 24.9996 4.23122 24.9996 5.75V12.2597C23.8036 11.7533 22.3685 11.9875 21.3937 12.9624L13.4912 20.8648C13.0189 21.3371 12.6839 21.9288 12.5219 22.5768L12.0642 24.4075C11.9982 24.6716 11.9849 24.9314 12.016 25.1785C11.3519 25.0791 10.7128 24.7738 10.2015 24.2626L3.73706 17.7981C2.46785 16.5289 2.46786 14.4711 3.73706 13.2019L12.9871 3.9519ZM19.5 10C20.3284 10 21 9.32843 21 8.5C21 7.67157 20.3284 7 19.5 7C18.6716 7 18 7.67157 18 8.5C18 9.32843 18.6716 10 19.5 10ZM22.0999 13.6695L14.1974 21.5719C13.8533 21.916 13.6092 22.3472 13.4911 22.8194L13.0334 24.6501C12.8344 25.4462 13.5556 26.1674 14.3517 25.9683L16.1824 25.5106C16.6545 25.3926 17.0857 25.1485 17.4299 24.8043L25.3323 16.9019C26.2249 16.0093 26.2249 14.5621 25.3323 13.6695C24.4397 12.7768 22.9925 12.7768 22.0999 13.6695Z" fill="#212121"/>
</svg>
