<?xml version="1.0" encoding="UTF-8"?>
<svg width="28px" height="28px" viewBox="0 0 28 28" version="1.1" xmlns="http://www.w3.org/2000/svg" xmlns:xlink="http://www.w3.org/1999/xlink">
    <!-- Generator: Sketch 59.1 (86144) - https://sketch.com -->
    <title>ic_clock_28_regular</title>
    <desc>Created with Sketch.</desc>
    <g id="ðŸ”-Product-Icons" stroke="none" stroke-width="1" fill="none" fill-rule="evenodd">
        <g id="ic_clock_28_regular" fill="#212121">
            <path d="M14,2 C20.627,2 26,7.373 26,14 C26,20.627 20.627,26 14,26 C7.373,26 2,20.627 2,14 C2,7.373 7.373,2 14,2 Z M14,3.667 C8.302,3.667 3.667,8.302 3.667,14 C3.667,19.698 8.302,24.333 14,24.333 C19.698,24.333 24.333,19.698 24.333,14 C24.333,8.302 19.698,3.667 14,3.667 Z M13.25,7 C13.664,7 14,7.336 14,7.75 L14,7.75 L14,14 L18.25,14 C18.664,14 19,14.336 19,14.75 C19,15.164 18.664,15.5 18.25,15.5 L18.25,15.5 L13.25,15.5 C12.836,15.5 12.5,15.164 12.5,14.75 L12.5,14.75 L12.5,7.75 C12.5,7.336 12.836,7 13.25,7 Z" id="ðŸŽ¨-Color"></path>
        </g>
    </g>
</svg>