<svg width="20" height="20" viewBox="0 0 20 20" fill="none" xmlns="http://www.w3.org/2000/svg">
<path d="M9.60989 8.00477H10.5915L10.3919 9.00477H9.40958L9.60989 8.00477Z" fill="#212121"/>
<path d="M6 2C4.89543 2 4 2.89543 4 4V16C4 17.1046 4.89543 18 6 18H15.5036C15.7797 18 16.0036 17.7762 16.0036 17.5C16.0036 17.2239 15.7797 17 15.5036 17H6C5.44815 17 5.0007 16.553 5 16.0013H15.5036C15.7797 16.0013 16.0036 15.7775 16.0036 15.5013V4C16.0036 2.89543 15.1081 2 14.0036 2H6ZM11.5989 5.51123C11.8697 5.56527 12.0455 5.82861 11.9914 6.09941L11.8107 7.00477H12.7518C13.0279 7.00477 13.2518 7.22863 13.2518 7.50477C13.2518 7.78091 13.0279 8.00477 12.7518 8.00477H11.6112L11.4116 9.00477H12.5013C12.7775 9.00477 13.0013 9.22863 13.0013 9.50477C13.0013 9.78091 12.7775 10.0048 12.5013 10.0048H11.2121L10.9939 11.0978C10.9399 11.3686 10.6765 11.5443 10.4057 11.4903C10.1349 11.4363 9.95922 11.1729 10.0133 10.9021L10.1923 10.0048H9.20927L8.99025 11.0982C8.93601 11.369 8.67255 11.5445 8.40178 11.4903C8.13102 11.436 7.95549 11.1726 8.00973 10.9018L8.18941 10.0048H7.25183C6.97569 10.0048 6.75183 9.78091 6.75183 9.50477C6.75183 9.22863 6.97569 9.00477 7.25183 9.00477H8.38972L8.59003 8.00477H7.49963C7.22349 8.00477 6.99963 7.78091 6.99963 7.50477C6.99963 7.22863 7.22349 7.00477 7.49963 7.00477H8.79033L9.01095 5.9034C9.06518 5.63264 9.32865 5.45711 9.59941 5.51134C9.87018 5.56558 10.0457 5.82905 9.99147 6.09981L9.8102 7.00477H10.791L11.0107 5.90371C11.0648 5.63291 11.3281 5.45719 11.5989 5.51123Z" fill="#212121"/>
</svg>
