<svg width="16" height="16" viewBox="0 0 16 16" fill="none" xmlns="http://www.w3.org/2000/svg">
<path d="M4.5 2C4.34262 2 4.19443 2.0741 4.1 2.2L1.1 6.2C0.96234 6.38355 0.967264 6.63723 1.11194 6.8153L7.61194 14.8153C7.70689 14.9322 7.84944 15 8 15C8.15056 15 8.29311 14.9322 8.38806 14.8153L14.8881 6.8153C15.0327 6.63723 15.0377 6.38355 14.9 6.2L11.9 2.2C11.8056 2.0741 11.6574 2 11.5 2H4.5ZM2.5 6L4.75 3H5.81988L4.88238 6H2.5ZM5.93007 6L6.86757 3H9.1324L10.0699 6H5.93007ZM10.0341 7L7.99999 12.5476L5.96589 7H10.0341ZM9.16622 12.2718L11.0992 7H13.4495L9.16622 12.2718ZM11.1176 6L10.1801 3H11.25L13.5 6H11.1176ZM2.55049 7H4.90078L6.83374 12.2717L2.55049 7Z" fill="#212121"/>
</svg>
