<?xml version="1.0" encoding="UTF-8"?>
<svg width="24px" height="24px" viewBox="0 0 24 24" version="1.1" xmlns="http://www.w3.org/2000/svg" xmlns:xlink="http://www.w3.org/1999/xlink">
    <!-- Generator: Sketch 59.1 (86144) - https://sketch.com -->
    <title>ic_headset_24_filled</title>
    <desc>Created with Sketch.</desc>
    <g id="ðŸ”-Product-Icons" stroke="none" stroke-width="1" fill="none" fill-rule="evenodd">
        <g id="ic_headset_24_filled" fill="#212121">
            <path d="M12.0012461,2.00104065 C15.8679276,2.00104065 19.0024922,5.1356053 19.0024922,9.00228676 L19.0024922,9.00228676 L19.0024681,10.128806 C19.8752162,10.4383019 20.5002742,11.2711559 20.5002742,12.25 L20.5002742,12.25 L20.5002742,14.2513533 C20.5002742,15.493994 19.4929149,16.5013533 18.2502742,16.5013533 L18.2502742,16.5013533 L16.75,16.5013533 C16.3357864,16.5013533 16,16.1655669 16,15.7513533 L16,15.7513533 L16,10.75 C16,10.3357864 16.3357864,10 16.75,10 L16.75,10 L17.502,9.99904065 L17.5024922,9.00228676 C17.5024922,6.03813619 15.1581812,3.6215288 12.2225034,3.50540884 L12.0012461,3.50104065 C8.96305095,3.50104065 6.50010713,5.96398446 6.50010713,9.00216678 L6.50010713,9.00216678 L6.5,9.99904065 L7.25027417,10 C7.66448773,10 8.00027417,10.3357864 8.00027417,10.75 L8.00027417,15.7513533 C8.00027417,16.1655669 7.66448773,16.5013533 7.25027417,16.5013533 L6.5,16.5010406 L6.50005877,17.7498785 C6.5001203,18.1296525 6.78232334,18.4435517 7.14835614,18.493343 L7.2501127,18.5002254 L9.55142774,18.5004173 C9.78351347,17.3599065 10.7915862,16.5021448 12,16.5021448 C13.3800776,16.5021448 14.4988515,17.6209187 14.4988515,19.0009963 C14.4988515,20.3820175 13.3800776,21.5007914 12,21.5007914 C10.9752438,21.5007914 10.0945596,20.8839459 9.70899839,20.0013058 L7.24973636,20.0002254 C6.00731122,19.9997887 5.00026009,18.9925467 5.00005877,17.7499706 L5.00005877,17.7499706 L5.00076538,16.3735944 C4.12647132,16.0649333 3.5,15.2313034 3.5,14.2513533 L3.5,12.25 C3.5,11.2700499 4.12647132,10.43642 5.00076538,10.1277589 L5.00010713,9.00217963 C5.00010713,5.13555734 8.13462382,2.00104065 12.0012461,2.00104065 Z" id="ðŸŽ¨-Color"></path>
        </g>
    </g>
</svg>