<svg width="20" height="20" viewBox="0 0 20 20" fill="none" xmlns="http://www.w3.org/2000/svg">
<path d="M15 2.5C15 2.22386 14.7761 2 14.5 2C14.2239 2 14 2.22386 14 2.5V16.2929L11.8536 14.1464C11.6583 13.9512 11.3417 13.9512 11.1464 14.1464C10.9512 14.3417 10.9512 14.6583 11.1464 14.8536L14.1464 17.8536C14.3417 18.0488 14.6583 18.0488 14.8536 17.8536L17.8536 14.8536C18.0488 14.6583 18.0488 14.3417 17.8536 14.1464C17.6583 13.9512 17.3417 13.9512 17.1464 14.1464L15 16.2929V2.5ZM2 15.5C2 13.4975 3.86595 12 6 12C8.13405 12 10 13.4975 10 15.5C10 17.5025 8.13405 19 6 19C3.86595 19 2 17.5025 2 15.5ZM6 13C4.26806 13 3 14.1888 3 15.5C3 16.8112 4.26806 18 6 18C7.73194 18 9 16.8112 9 15.5C9 14.1888 7.73194 13 6 13ZM4.5 12C4.77614 12 5 11.7761 5 11.5C5 11.2239 4.77614 11 4.5 11C4.22386 11 4 11.2239 4 11.5C4 11.7761 4.22386 12 4.5 12ZM8 11.5C8 11.7761 7.77614 12 7.5 12C7.22386 12 7 11.7761 7 11.5C7 11.2239 7.22386 11 7.5 11C7.77614 11 8 11.2239 8 11.5ZM6.00013 2C6.20198 2 6.38403 2.12137 6.46167 2.30769L8.96167 8.30769C9.06788 8.56259 8.94734 8.85533 8.69244 8.96154C8.43754 9.06775 8.1448 8.94721 8.03859 8.69231L7.54111 7.49834C7.52759 7.49944 7.51393 7.5 7.50013 7.5H4.50013C4.48633 7.5 4.47267 7.49944 4.45915 7.49834L3.96167 8.69231C3.85546 8.94721 3.56272 9.06775 3.30782 8.96154C3.05292 8.85533 2.93238 8.56259 3.03859 8.30769L5.53859 2.30769C5.61623 2.12137 5.79828 2 6.00013 2ZM6.00013 3.8L4.87513 6.5H7.12513L6.00013 3.8Z" fill="#212121"/>
</svg>
