<svg width="16" height="16" viewBox="0 0 16 16" fill="none" xmlns="http://www.w3.org/2000/svg">
<path d="M5.69948 4.00412C5.21925 4.59106 5 5.35003 5 6C5 6.27614 4.77614 6.5 4.5 6.5C2.68817 6.5 2 7.76416 2 8.5C2 8.92738 2.10804 9.41775 2.43879 9.79575C2.75761 10.1601 3.35374 10.5 4.5 10.5H5C5 10.8415 5.03112 11.1757 5.09069 11.5H4.5C3.14626 11.5 2.24239 11.0899 1.68621 10.4543C1.14196 9.83225 1 9.07262 1 8.5C1 7.3222 1.96544 5.73497 4.02844 5.5236C4.11434 4.79571 4.39818 4.01541 4.92552 3.37088C5.58306 2.56722 6.60015 2 8 2C8.85003 2 9.84106 2.28075 10.6291 2.92552C11.2682 3.44844 11.7578 4.19876 11.9315 5.18814C11.588 5.0958 11.2313 5.0359 10.8647 5.0119C10.6937 4.43747 10.3753 4.00993 9.99588 3.69948C9.40894 3.21925 8.64997 3 8 3C6.89985 3 6.16694 3.43278 5.69948 4.00412ZM15 10.5C15 12.9853 12.9853 15 10.5 15C8.01472 15 6 12.9853 6 10.5C6 8.01472 8.01472 6 10.5 6C12.9853 6 15 8.01472 15 10.5ZM12.8536 8.64645C12.6583 8.45118 12.3417 8.45118 12.1464 8.64645L9.5 11.2929L8.85355 10.6464C8.65829 10.4512 8.34171 10.4512 8.14645 10.6464C7.95118 10.8417 7.95118 11.1583 8.14645 11.3536L9.14645 12.3536C9.34171 12.5488 9.65829 12.5488 9.85355 12.3536L12.8536 9.35355C13.0488 9.15829 13.0488 8.84171 12.8536 8.64645Z" fill="#212121"/>
</svg>
