<svg width="16" height="16" viewBox="0 0 16 16" fill="none" xmlns="http://www.w3.org/2000/svg">
<path d="M2.58722 7.31428C1.80426 8.0934 1.80426 9.3566 2.58722 10.1357L5.76221 13.2952C5.27793 12.4761 5 11.5205 5 10.5C5 7.46243 7.46243 5 10.5 5C11.8221 5 13.0352 5.46646 13.9837 6.24378L13.9999 4.00947C14.008 2.89877 13.1029 1.99538 11.9867 2.00002L8.73617 2.01353C8.20735 2.01572 7.70082 2.22574 7.32688 2.59785L2.58722 7.31428ZM10.5 15C12.9853 15 15 12.9853 15 10.5C15 8.01472 12.9853 6 10.5 6C8.01472 6 6 8.01472 6 10.5C6 12.9853 8.01472 15 10.5 15ZM9.87542 13.0049C9.87542 12.66 10.155 12.3804 10.4999 12.3804C10.8448 12.3804 11.1244 12.66 11.1244 13.0049C11.1244 13.3498 10.8448 13.6294 10.4999 13.6294C10.155 13.6294 9.87542 13.3498 9.87542 13.0049ZM8.64659 9.45774C8.63568 8.32084 9.45202 7.50345 10.5 7.50345C11.531 7.50345 12.3534 8.34924 12.3534 9.45294C12.3534 10.0387 12.1391 10.3607 11.6257 10.7715L11.3487 10.9858C11.103 11.1804 11.0202 11.2863 11.0034 11.4341L10.9919 11.5902C10.9495 11.8234 10.7454 12.0003 10.4999 12.0003C10.2238 12.0003 9.99992 11.7764 9.99993 11.5003C9.99995 10.9294 10.2099 10.6161 10.7157 10.2118L10.9937 9.9968C11.2822 9.7679 11.3534 9.65474 11.3534 9.45294C11.3534 8.89534 10.9723 8.50345 10.5 8.50345C10.0062 8.50345 9.64099 8.86913 9.64655 9.44814C9.6492 9.72427 9.4275 9.95026 9.15137 9.95292C8.87524 9.95557 8.64924 9.73387 8.64659 9.45774Z" fill="#212121"/>
</svg>
