<svg width="16" height="16" viewBox="0 0 16 16" fill="none" xmlns="http://www.w3.org/2000/svg">
<path d="M9.61523 10.0137C9.8407 10.0671 9.99998 10.2683 10 10.5V14.5C10 14.7761 9.77614 15 9.5 15C9.22386 15 9 14.7761 9 14.5V12.6182L8.05957 14.5L7.94727 14.7236C7.86257 14.893 7.68939 15 7.5 15C7.31061 15 7.13743 14.893 7.05273 14.7236L6 12.6182V14.5C6 14.7761 5.77614 15 5.5 15C5.22386 15 5 14.7761 5 14.5V10.5C5.00002 10.2683 5.1593 10.0671 5.38477 10.0137C5.61044 9.9604 5.84355 10.069 5.94727 10.2764L7.5 13.3818L9.05273 10.2764C9.15645 10.069 9.38956 9.9604 9.61523 10.0137ZM13 10C13.2761 10 13.5 10.2239 13.5 10.5V13.293L14.1465 12.6465C14.3417 12.4512 14.6583 12.4512 14.8535 12.6465C15.0488 12.8417 15.0488 13.1583 14.8535 13.3535L13.3535 14.8535C13.1583 15.0488 12.8417 15.0488 12.6465 14.8535L11.1465 13.3535C10.9512 13.1583 10.9512 12.8417 11.1465 12.6465C11.3417 12.4512 11.6583 12.4512 11.8535 12.6465L12.5 13.293V10.5C12.5 10.2239 12.7239 10 13 10ZM9.5 1C10.1531 1 10.7091 1.4174 10.915 2H11.5C12.3284 2 13 2.67157 13 3.5V9C12.6154 9 12.2655 9.14578 12 9.38379V3.5C12 3.22386 11.7761 3 11.5 3H10.915C10.7091 3.5826 10.1531 4 9.5 4H6.5C5.84689 4 5.29088 3.5826 5.08496 3H4.5C4.22386 3 4 3.22386 4 3.5V14.5C4 14.6512 4.02286 14.797 4.06445 14.9346C3.44861 14.7478 3 14.1768 3 13.5V3.5C3 2.67157 3.67157 2 4.5 2H5.08496C5.29088 1.4174 5.84689 1 6.5 1H9.5ZM6.5 2C6.22386 2 6 2.22386 6 2.5C6 2.77614 6.22386 3 6.5 3H9.5C9.77614 3 10 2.77614 10 2.5C10 2.22386 9.77614 2 9.5 2H6.5Z" fill="black" fill-opacity="0.858824"/>
</svg>
