<svg width="16" height="16" viewBox="0 0 16 16" fill="none" xmlns="http://www.w3.org/2000/svg">
<path d="M9.61523 10.0137C9.84071 10.0671 10 10.2683 10 10.5V14.5C10 14.7761 9.77614 15 9.5 15C9.22386 15 9 14.7761 9 14.5V12.6182L7.94727 14.7236C7.86257 14.893 7.68939 15 7.5 15C7.31061 15 7.13743 14.893 7.05273 14.7236L6 12.6182V14.5C6 14.7761 5.77614 15 5.5 15C5.22386 15 5 14.7761 5 14.5V10.5C5 10.2683 5.15929 10.0671 5.38477 10.0137C5.61045 9.96039 5.84356 10.069 5.94727 10.2764L7.5 13.3818L9.05273 10.2764C9.15644 10.069 9.38955 9.96039 9.61523 10.0137ZM13 10C13.2761 10 13.5 10.2239 13.5 10.5V13.293L14.1465 12.6465C14.3417 12.4512 14.6583 12.4512 14.8535 12.6465C15.0488 12.8417 15.0488 13.1583 14.8535 13.3535L13.3535 14.8535C13.1583 15.0488 12.8417 15.0488 12.6465 14.8535L11.1465 13.3535C10.9512 13.1583 10.9512 12.8417 11.1465 12.6465C11.3417 12.4512 11.6583 12.4512 11.8535 12.6465L12.5 13.293V10.5C12.5 10.2239 12.7239 10 13 10ZM9.5 1C10.1531 1 10.7091 1.4174 10.915 2H11.5C12.3284 2 13 2.67157 13 3.5V9C12.1716 9 11.5 9.67157 11.5 10.5V11.5C11.3306 11.5 11.1616 11.5298 11 11.5869V10.5C11 9.80436 10.5217 9.1999 9.84473 9.04004C9.16767 8.88021 8.46931 9.20688 8.1582 9.8291L7.5 11.1455L6.8418 9.8291C6.53069 9.20688 5.83233 8.88021 5.15527 9.04004C4.47826 9.1999 4 9.80436 4 10.5V14.5C4 14.6512 4.02286 14.797 4.06445 14.9346C3.44861 14.7478 3 14.1768 3 13.5V3.5C3 2.67157 3.67157 2 4.5 2H5.08496C5.29088 1.4174 5.84689 1 6.5 1H9.5ZM6.5 2C6.22386 2 6 2.22386 6 2.5C6 2.77614 6.22386 3 6.5 3H9.5C9.77614 3 10 2.77614 10 2.5C10 2.22386 9.77614 2 9.5 2H6.5Z" fill="black" fill-opacity="0.858824"/>
</svg>
