<svg width="24" height="24" viewBox="0 0 24 24" fill="none" xmlns="http://www.w3.org/2000/svg">
<path d="M12.8102 4.41072L12.8777 4.51944L12.9308 4.63453L18.4308 18.6391C18.6327 19.1532 18.3796 19.7335 17.8656 19.9354C17.3882 20.1229 16.8537 19.9181 16.6181 19.4763L16.5692 19.3702L15.245 15.9991H8.75402L7.43082 19.3702C7.24335 19.8475 6.72952 20.0998 6.24548 19.9718L6.13447 19.9354C5.65713 19.748 5.40483 19.2341 5.53286 18.7501L5.56923 18.6391L11.0692 4.63453C11.369 3.87128 12.3728 3.79668 12.8102 4.41072ZM12 7.73408L9.53902 13.9991H14.46L12 7.73408ZM17.6835 3.0705C17.8845 2.9765 18.1175 2.9765 18.3186 3.0705L18.4161 3.12534L20.6671 4.62114L20.7549 4.68925C21.0265 4.93403 21.0851 5.34726 20.8767 5.66089C20.6683 5.97451 20.2646 6.08057 19.9338 5.92502L19.837 5.87046L18.001 4.6508L16.1651 5.87046L16.0683 5.92502C15.7374 6.08057 15.3338 5.97451 15.1254 5.66089C14.917 5.34726 14.9756 4.93403 15.2471 4.68925L15.3349 4.62114L17.5859 3.12534L17.6835 3.0705Z" fill="#212121"/>
</svg>
