<svg width="20" height="20" viewBox="0 0 20 20" fill="none" xmlns="http://www.w3.org/2000/svg">
<path d="M2 5C2 3.89543 2.89543 3 4 3H12C13.1046 3 14 3.89543 14 5V11C14 12.1046 13.1046 13 12 13H4C2.89543 13 2 12.1046 2 11V5ZM15 10.6639V5.33159L17.2548 4.06267C17.4096 3.97555 17.599 3.97711 17.7524 4.06678C17.9057 4.15645 18 4.32076 18 4.49841V11.5C18 11.6777 17.9056 11.8421 17.7522 11.9318C17.5987 12.0214 17.4092 12.0228 17.2543 11.9355L15 10.6639ZM7 13.75H10V14.25C10 16.3211 8.32107 18 6.25 18H3.5C3.22386 18 3 17.7761 3 17.5V15.75C3 15.4739 3.22386 15.25 3.5 15.25H6.25C6.66421 15.25 7 14.9142 7 14.5V13.75Z" fill="#212121"/>
</svg>
