<?xml version="1.0" encoding="UTF-8"?>
<svg width="24px" height="24px" viewBox="0 0 24 24" version="1.1" xmlns="http://www.w3.org/2000/svg" xmlns:xlink="http://www.w3.org/1999/xlink">
    <!-- Generator: Sketch 59.1 (86144) - https://sketch.com -->
    <title>ic_fluent_mail_add_24_filled</title>
    <desc>Created with Sketch.</desc>
    <g id="ðŸ”-Product-Icons" stroke="none" stroke-width="1" fill="none" fill-rule="evenodd">
        <g id="ic_fluent_mail_add_24_filled" fill="#212121" fill-rule="nonzero">
            <path d="M17.5,12 C20.5375661,12 23,14.4624339 23,17.5 C23,20.5375661 20.5375661,23 17.5,23 C14.4624339,23 12,20.5375661 12,17.5 C12,14.4624339 14.4624339,12 17.5,12 Z M17.5,13.9992349 L17.4101244,14.0072906 C17.2060313,14.0443345 17.0450996,14.2052662 17.0080557,14.4093593 L17,14.4992349 L16.9996498,16.9992349 L14.4976498,17 L14.4077742,17.0080557 C14.2036811,17.0450996 14.0427494,17.2060313 14.0057055,17.4101244 L13.9976498,17.5 L14.0057055,17.5898756 C14.0427494,17.7939687 14.2036811,17.9549004 14.4077742,17.9919443 L14.4976498,18 L17.0006498,17.9992349 L17.0011076,20.5034847 L17.0091633,20.5933603 C17.0462073,20.7974534 17.207139,20.9583851 17.411232,20.995429 L17.5011076,21.0034847 L17.5909833,20.995429 C17.7950763,20.9583851 17.956008,20.7974534 17.993052,20.5933603 L18.0011076,20.5034847 L18.0006498,17.9992349 L20.5045655,18 L20.5944411,17.9919443 C20.7985342,17.9549004 20.9594659,17.7939687 20.9965098,17.5898756 L21.0045655,17.5 L20.9965098,17.4101244 C20.9594659,17.2060313 20.7985342,17.0450996 20.5944411,17.0080557 L20.5045655,17 L17.9996498,16.9992349 L18,14.4992349 L17.9919443,14.4093593 C17.9549004,14.2052662 17.7939687,14.0443345 17.5898756,14.0072906 L17.5,13.9992349 Z M22,6.608 L22.0008195,12.8103588 C20.8328473,11.6891263 19.2469007,11 17.5,11 C13.9101491,11 11,13.9101491 11,17.5 C11,17.6683488 11.0064,17.8352028 11.0189701,18.000332 L5.25,18 C3.51696854,18 2.10075407,16.6435452 2.00514479,14.9344239 L2,14.75 L2,6.608 L11.6519948,11.6643737 C11.8699527,11.7785421 12.1300473,11.7785421 12.3480052,11.6643737 L22,6.608 Z M18.75,2 C20.4347405,2 21.8200743,3.28191279 21.9838083,4.92354535 L12,10.1533379 L2.01619171,4.92354535 C2.17386146,3.342714 3.46431785,2.09544995 5.06408558,2.00522851 L5.25,2 L18.75,2 Z" id="ðŸŽ¨-Color"></path>
        </g>
    </g>
</svg>