<svg width="48" height="48" viewBox="0 0 48 48" fill="none" xmlns="http://www.w3.org/2000/svg">
<path d="M6 12.25C6 8.79822 8.79822 6 12.25 6H35.75C39.2018 6 42 8.79822 42 12.25V24.0436C41.2196 23.544 40.3823 23.1255 39.5 22.7999V16.5H8.5V35.75C8.5 37.8211 10.1789 39.5 12.25 39.5H22.7999C23.1255 40.3823 23.544 41.2196 24.0436 42H12.25C8.79822 42 6 39.2018 6 35.75V12.25ZM12.25 8.5C10.1789 8.5 8.5 10.1789 8.5 12.25V14H39.5V12.25C39.5 10.1789 37.8211 8.5 35.75 8.5H12.25ZM35 26.5C39.6944 26.5 43.5 30.3056 43.5 35C43.5 39.6944 39.6944 43.5 35 43.5C30.3056 43.5 26.5 39.6944 26.5 35C26.5 30.3056 30.3056 26.5 35 26.5ZM35 46C41.0751 46 46 41.0751 46 35C46 28.9249 41.0751 24 35 24C28.9249 24 24 28.9249 24 35C24 41.0751 28.9249 46 35 46ZM41 35C41 38.3137 38.3137 41 35 41C31.6863 41 29 38.3137 29 35C29 31.6863 31.6863 29 35 29C38.3137 29 41 31.6863 41 35Z" fill="#212121"/>
</svg>
