<svg width="20" height="20" viewBox="0 0 20 20" fill="none" xmlns="http://www.w3.org/2000/svg">
<path d="M16.5 2C16.7761 2 17 2.22386 17 2.5V3H17.5C17.7761 3 18 3.22386 18 3.5C18 3.77614 17.7761 4 17.5 4H17V4.5C17 4.77614 16.7761 5 16.5 5C16.2239 5 16 4.77614 16 4.5V4H15.5C15.2239 4 15 3.77614 15 3.5C15 3.22386 15.2239 3 15.5 3H16V2.5C16 2.22386 16.2239 2 16.5 2ZM3.5 15C3.77614 15 4 15.2239 4 15.5V16H4.5C4.77614 16 5 16.2239 5 16.5C5 16.7761 4.77614 17 4.5 17H4V17.5C4 17.7761 3.77614 18 3.5 18C3.22386 18 3 17.7761 3 17.5V17H2.5C2.22386 17 2 16.7761 2 16.5C2 16.2239 2.22386 16 2.5 16H3V15.5C3 15.2239 3.22386 15 3.5 15ZM7.50108 2.00006C6.85057 2 6.37524 2.51332 6.262 3.05828C6.1483 3.60551 5.86244 4.43162 5.14741 5.14683C4.43291 5.86152 3.60718 6.14729 3.0597 6.26097C2.514 6.37428 2.00003 6.85076 2.00119 7.50223C2.00235 8.15181 2.51521 8.62585 3.0595 8.73878C3.60652 8.85228 4.43271 9.13787 5.14739 9.85281C5.86196 10.5676 6.14796 11.3944 6.26183 11.9421C6.37513 12.4871 6.85049 13 7.50076 13C8.15149 13 8.6269 12.4864 8.74009 11.9413C8.85368 11.3941 9.13927 10.5685 9.85363 9.8538C10.5682 9.1388 11.3944 8.85286 11.9418 8.73909C12.4868 8.62582 13 8.15051 13 7.50007C13 6.84953 12.4866 6.37418 11.9415 6.26103C11.394 6.14737 10.5679 5.86162 9.85365 5.14691C9.1392 4.43197 8.85344 3.60555 8.73974 3.05811C8.62656 2.51318 8.15135 2.00012 7.50108 2.00006ZM7 15V13.9427C7.15744 13.9806 7.3244 14.0012 7.50017 14.0012C7.67582 14.0012 7.84266 13.9806 8 13.9428V15C8 16.1046 8.89543 17 10 17H15C16.1046 17 17 16.1046 17 15V10C17 8.89543 16.1046 8 15 8H13.9417C13.9795 7.84279 14 7.6761 14 7.50062C14 7.32468 13.9794 7.15757 13.9414 7H15C16.6569 7 18 8.34315 18 10V15C18 16.6569 16.6569 18 15 18H10C8.34315 18 7 16.6569 7 15ZM10 13.5C10 13.2239 10.2239 13 10.5 13H13.5C13.7761 13 14 13.2239 14 13.5C14 13.7761 13.7761 14 13.5 14H10.5C10.2239 14 10 13.7761 10 13.5ZM10.5 11C10.2239 11 10 11.2239 10 11.5C10 11.7761 10.2239 12 10.5 12H15C15.2761 12 15.5 11.7761 15.5 11.5C15.5 11.2239 15.2761 11 15 11H10.5Z" fill="#212121"/>
</svg>
