<svg width="28" height="28" viewBox="0 0 28 28" fill="none" xmlns="http://www.w3.org/2000/svg">
<path d="M25 9.5V21.75C25 23.5449 23.5449 25 21.75 25H6.25C4.45507 25 3 23.5449 3 21.75V9.5H25ZM8.74125 17.5014C8.0509 17.5014 7.49125 18.0611 7.49125 18.7514C7.49125 19.4418 8.0509 20.0014 8.74125 20.0014C9.43161 20.0014 9.99125 19.4418 9.99125 18.7514C9.99125 18.0611 9.43161 17.5014 8.74125 17.5014ZM13.9957 17.5014C13.3054 17.5014 12.7457 18.0611 12.7457 18.7514C12.7457 19.4418 13.3054 20.0014 13.9957 20.0014C14.6861 20.0014 15.2457 19.4418 15.2457 18.7514C15.2457 18.0611 14.6861 17.5014 13.9957 17.5014ZM8.74125 12.5014C8.0509 12.5014 7.49125 13.0611 7.49125 13.7514C7.49125 14.4418 8.0509 15.0014 8.74125 15.0014C9.43161 15.0014 9.99125 14.4418 9.99125 13.7514C9.99125 13.0611 9.43161 12.5014 8.74125 12.5014ZM13.9957 12.5014C13.3054 12.5014 12.7457 13.0611 12.7457 13.7514C12.7457 14.4418 13.3054 15.0014 13.9957 15.0014C14.6861 15.0014 15.2457 14.4418 15.2457 13.7514C15.2457 13.0611 14.6861 12.5014 13.9957 12.5014ZM19.2502 12.5014C18.5599 12.5014 18.0002 13.0611 18.0002 13.7514C18.0002 14.4418 18.5599 15.0014 19.2502 15.0014C19.9406 15.0014 20.5002 14.4418 20.5002 13.7514C20.5002 13.0611 19.9406 12.5014 19.2502 12.5014ZM21.75 3C23.5449 3 25 4.45507 25 6.25V8H3V6.25C3 4.45507 4.45507 3 6.25 3H21.75Z" fill="#212121"/>
</svg>
