<svg width="24" height="24" viewBox="0 0 24 24" fill="none" xmlns="http://www.w3.org/2000/svg">
<path d="M12 7C12 9.20914 10.2091 11 8 11C5.79086 11 4 9.20914 4 7C4 4.79086 5.79086 3 8 3C10.2091 3 12 4.79086 12 7ZM20 8C20 9.65685 18.6569 11 17 11C15.3431 11 14 9.65685 14 8C14 6.34315 15.3431 5 17 5C18.6569 5 20 6.34315 20 8ZM2 15.25C2 14.0074 3.00736 13 4.25 13H11.75C12.0663 13 12.3674 13.0653 12.6405 13.1831C11.6199 14.3311 11 15.8431 11 17.5C11 18.1564 11.0973 18.7901 11.2783 19.3875C10.4578 19.7585 9.38985 20 8 20C2 20 2 15.5 2 15.5V15.25ZM17.5011 23.0024C20.5393 23.0024 23.0023 20.5395 23.0023 17.5012C23.0023 14.463 20.5393 12 17.5011 12C14.4629 12 12 14.463 12 17.5012C12 18.4692 12.25 19.3787 12.6889 20.1688L12.0231 22.3553C11.9066 22.7381 12.2644 23.0959 12.6471 22.9795L14.8343 22.3139C15.6242 22.7526 16.5335 23.0024 17.5011 23.0024ZM15.5009 17.0011C15.2247 17.0011 15.0008 16.7772 15.0008 16.501C15.0008 16.2248 15.2247 16.0009 15.5009 16.0009H19.5015C19.7777 16.0009 20.0016 16.2248 20.0016 16.501C20.0016 16.7772 19.7777 17.0011 19.5015 17.0011H15.5009ZM17.5011 19.0015H15.5009C15.2247 19.0015 15.0008 18.7776 15.0008 18.5014C15.0008 18.2252 15.2247 18.0013 15.5009 18.0013H17.5011C17.7773 18.0013 18.0012 18.2252 18.0012 18.5014C18.0012 18.7776 17.7773 19.0015 17.5011 19.0015Z" fill="#212121"/>
</svg>
