<svg width="16" height="16" viewBox="0 0 16 16" fill="none" xmlns="http://www.w3.org/2000/svg">
<path d="M11.5 5.50207C11.5 6.0555 11.0514 6.50414 10.4979 6.50414C9.94449 6.50414 9.49585 6.0555 9.49585 5.50207C9.49585 4.94864 9.94449 4.5 10.4979 4.5C11.0514 4.5 11.5 4.94864 11.5 5.50207Z" fill="#212121"/>
<path d="M2 4.5C2 3.11929 3.11929 2 4.5 2H11.5C12.8807 2 14 3.11929 14 4.5V11.5C14 12.8807 12.8807 14 11.5 14H4.5C3.11929 14 2 12.8807 2 11.5V4.5ZM4.5 3C3.67157 3 3 3.67157 3 4.5V11.5C3 11.7316 3.05248 11.9509 3.1462 12.1467L6.79796 8.49499C7.46185 7.8311 8.53823 7.8311 9.20212 8.49499L12.8538 12.1467C12.9475 11.9509 13 11.7316 13 11.5V4.5C13 3.67157 12.3284 3 11.5 3H4.5ZM12.1467 12.8538L8.49501 9.2021C8.22164 8.92873 7.77843 8.92873 7.50506 9.2021L3.85333 12.8538C4.04914 12.9475 4.26844 13 4.5 13H11.5C11.7316 13 11.9509 12.9475 12.1467 12.8538Z" fill="#212121"/>
</svg>
