<?xml version="1.0" encoding="UTF-8"?>
<svg width="24px" height="24px" viewBox="0 0 24 24" version="1.1" xmlns="http://www.w3.org/2000/svg" xmlns:xlink="http://www.w3.org/1999/xlink">
    <!-- Generator: Sketch 63.1 (92452) - https://sketch.com -->
    <title>ic_fluent_folder_add_24_filled</title>
    <desc>Created with Sketch.</desc>
    <g id="ðŸ”-Product-Icons" stroke="none" stroke-width="1" fill="none" fill-rule="evenodd">
        <g id="ic_fluent_folder_add_24_filled" fill="#212121" fill-rule="nonzero">
            <path d="M17.5,11 C20.5375661,11 23,13.4624339 23,16.5 C23,19.5375661 20.5375661,22 17.5,22 C14.4624339,22 12,19.5375661 12,16.5 C12,13.4624339 14.4624339,11 17.5,11 Z M17.5,12.9992349 L17.4101244,13.0072906 C17.2060313,13.0443345 17.0450996,13.2052662 17.0080557,13.4093593 L17,13.4992349 L16.9996498,15.9992349 L14.4976498,16 L14.4077742,16.0080557 C14.2036811,16.0450996 14.0427494,16.2060313 14.0057055,16.4101244 L13.9976498,16.5 L14.0057055,16.5898756 C14.0427494,16.7939687 14.2036811,16.9549004 14.4077742,16.9919443 L14.4976498,17 L17.0006498,16.9992349 L17.0011076,19.5034847 L17.0091633,19.5933603 C17.0462073,19.7974534 17.207139,19.9583851 17.411232,19.995429 L17.5011076,20.0034847 L17.5909833,19.995429 C17.7950763,19.9583851 17.956008,19.7974534 17.993052,19.5933603 L18.0011076,19.5034847 L18.0006498,16.9992349 L20.5045655,17 L20.5944411,16.9919443 C20.7985342,16.9549004 20.9594659,16.7939687 20.9965098,16.5898756 L21.0045655,16.5 L20.9965098,16.4101244 C20.9594659,16.2060313 20.7985342,16.0450996 20.5944411,16.0080557 L20.5045655,16 L17.9996498,15.9992349 L18,13.4992349 L17.9919443,13.4093593 C17.9549004,13.2052662 17.7939687,13.0443345 17.5898756,13.0072906 L17.5,12.9992349 Z M19.75,6.5 C20.8867338,6.5 21.826582,7.34296748 21.9785265,8.43788437 L21.9948092,8.59595119 L22,8.75 L22.0008195,11.8103588 C20.8328473,10.6891263 19.2469007,10 17.5,10 C13.9101491,10 11,12.9101491 11,16.5 C11,17.7891565 11.3752958,18.9906579 12.0225923,20.0012092 L4.25,20 C3.05913601,20 2.08435508,19.0748384 2.00519081,17.9040488 L2,17.75 L2,10.499 L8.2069251,10.5 L8.40335497,10.4914126 C8.79396018,10.4571882 9.16895973,10.3214197 9.49094085,10.0976522 L9.64734,9.97849788 L13.821,6.5 L19.75,6.5 Z M8.2069251,4 C8.66748759,4 9.11529621,4.14128575 9.49094085,4.40234784 L9.64734,4.52150212 L11.75,6.273 L8.6870634,8.82616596 L8.60221452,8.8873763 C8.51362501,8.94231824 8.41452303,8.9781981 8.31129371,8.99270416 L8.2069251,9 L2,8.999 L2,6.25 C2,5.05913601 2.92516159,4.08435508 4.09595119,4.00519081 L4.25,4 L8.2069251,4 Z" id="ðŸŽ¨-Color"></path>
        </g>
    </g>
</svg>