<?xml version="1.0" encoding="UTF-8"?>
<svg width="28px" height="28px" viewBox="0 0 28 28" version="1.1" xmlns="http://www.w3.org/2000/svg" xmlns:xlink="http://www.w3.org/1999/xlink">
    <!-- Generator: Sketch 63.1 (92452) - https://sketch.com -->
    <title>ic_fluent_folder_add_28_regular</title>
    <desc>Created with Sketch.</desc>
    <g id="ðŸ”-Product-Icons" stroke="none" stroke-width="1" fill="none" fill-rule="evenodd">
        <g id="ic_fluent_folder_add_28_regular" fill="#212121" fill-rule="nonzero">
            <path d="M21.5,15 C24.5375661,15 27,17.4624339 27,20.5 C27,23.5375661 24.5375661,26 21.5,26 C18.4624339,26 16,23.5375661 16,20.5 C16,17.4624339 18.4624339,15 21.5,15 Z M21.5,16.9992349 L21.4101244,17.0072906 C21.2060313,17.0443345 21.0450996,17.2052662 21.0080557,17.4093593 L21,17.4992349 L20.9996498,19.9992349 L18.4976498,20 L18.4077742,20.0080557 C18.2036811,20.0450996 18.0427494,20.2060313 18.0057055,20.4101244 L17.9976498,20.5 L18.0057055,20.5898756 C18.0427494,20.7939687 18.2036811,20.9549004 18.4077742,20.9919443 L18.4976498,21 L21.0006498,20.9992349 L21.0011076,23.5034847 L21.0091633,23.5933603 C21.0462073,23.7974534 21.207139,23.9583851 21.411232,23.995429 L21.5011076,24.0034847 L21.5909833,23.995429 C21.7950763,23.9583851 21.956008,23.7974534 21.993052,23.5933603 L22.0011076,23.5034847 L22.0006498,20.9992349 L24.5045655,21 L24.5944411,20.9919443 C24.7985342,20.9549004 24.9594659,20.7939687 24.9965098,20.5898756 L25.0045655,20.5 L24.9965098,20.4101244 C24.9594659,20.2060313 24.7985342,20.0450996 24.5944411,20.0080557 L24.5045655,20 L21.9996498,19.9992349 L22,17.4992349 L21.9919443,17.4093593 C21.9549004,17.2052662 21.7939687,17.0443345 21.5898756,17.0072906 L21.5,16.9992349 Z M10.2069251,4 C10.6674876,4 11.1152962,4.14128575 11.4909408,4.40234784 L11.64734,4.52150212 L14.022,6.5 L23.75,6.5 C24.8867338,6.5 25.826582,7.34296748 25.9785265,8.43788437 L25.9948092,8.59595119 L26,8.75 L26.0008195,15.8103588 C25.5566422,15.3839565 25.0520148,15.0200482 24.5010736,14.7327703 L24.5,8.75 C24.5,8.37030423 24.2178461,8.05650904 23.8517706,8.00684662 L23.75,8 L14.021,8 L11.64734,9.97849788 C11.2935261,10.2733428 10.859061,10.4514842 10.403355,10.4914126 L10.2069251,10.5 L3.5,10.499 L3.5,21.75 C3.5,22.1296958 3.78215388,22.443491 4.14822944,22.4931534 L4.25,22.5 L15.3136354,22.5004209 C15.4861106,23.0341997 15.7257502,23.5377831 16.0225923,24.0012092 L4.25,24 C3.05913601,24 2.08435508,23.0748384 2.00519081,21.9040488 L2,21.75 L2,6.25 C2,5.05913601 2.92516159,4.08435508 4.09595119,4.00519081 L4.25,4 L10.2069251,4 Z M10.2069251,5.5 L4.25,5.5 C3.87030423,5.5 3.55650904,5.78215388 3.50684662,6.14822944 L3.5,6.25 L3.5,8.999 L10.2069251,9 C10.347287,9 10.4840952,8.96063221 10.6022145,8.8873763 L10.6870634,8.82616596 L12.578,7.249 L10.6870634,5.67383404 C10.5792344,5.58397654 10.4489328,5.52663725 10.3112937,5.50729584 L10.2069251,5.5 Z" id="ðŸŽ¨-Color"></path>
        </g>
    </g>
</svg>