<?xml version="1.0" encoding="UTF-8"?>
<svg width="20px" height="20px" viewBox="0 0 20 20" version="1.1" xmlns="http://www.w3.org/2000/svg" xmlns:xlink="http://www.w3.org/1999/xlink">
    <!-- Generator: Sketch 63.1 (92452) - https://sketch.com -->
    <title>ic_fluent_folder_add_20_regular</title>
    <desc>Created with Sketch.</desc>
    <g id="ðŸ”-Product-Icons" stroke="none" stroke-width="1" fill="none" fill-rule="evenodd">
        <g id="ic_fluent_folder_add_20_regular" fill="#212121" fill-rule="nonzero">
            <path d="M13.5,8 C16.5375661,8 19,10.4624339 19,13.5 C19,16.5375661 16.5375661,19 13.5,19 C10.4624339,19 8,16.5375661 8,13.5 C8,10.4624339 10.4624339,8 13.5,8 Z M13.5,9.9992349 L13.4101244,10.0072906 C13.2060313,10.0443345 13.0450996,10.2052662 13.0080557,10.4093593 L13,10.4992349 L12.9996498,12.9992349 L10.4976498,13 L10.4077742,13.0080557 C10.2036811,13.0450996 10.0427494,13.2060313 10.0057055,13.4101244 L9.99764979,13.5 L10.0057055,13.5898756 C10.0427494,13.7939687 10.2036811,13.9549004 10.4077742,13.9919443 L10.4976498,14 L13.0006498,13.9992349 L13.0011076,16.5034847 L13.0091633,16.5933603 C13.0462073,16.7974534 13.207139,16.9583851 13.411232,16.995429 L13.5011076,17.0034847 L13.5909833,16.995429 C13.7950763,16.9583851 13.956008,16.7974534 13.993052,16.5933603 L14.0011076,16.5034847 L14.0006498,13.9992349 L16.5045655,14 L16.5944411,13.9919443 C16.7985342,13.9549004 16.9594659,13.7939687 16.9965098,13.5898756 L17.0045655,13.5 L16.9965098,13.4101244 C16.9594659,13.2060313 16.7985342,13.0450996 16.5944411,13.0080557 L16.5045655,13 L13.9996498,12.9992349 L14,10.4992349 L13.9919443,10.4093593 C13.9549004,10.2052662 13.7939687,10.0443345 13.5898756,10.0072906 L13.5,9.9992349 Z M7.16666667,2 C7.43712943,2 7.70151241,2.07310195 7.93238431,2.21016209 L8.06666667,2.3 L9.667,3.5 L15.5,3.5 C16.7702549,3.5 17.8192408,4.44736547 17.9789489,5.67408771 L17.9946823,5.83562431 L18,6 L18.0008195,8.81035876 C17.6947732,8.51655978 17.3600284,8.25242958 17.0012092,8.02259229 L17,6 C17,5.22030388 16.4051119,4.57955132 15.64446,4.50686658 L15.5,4.5 L9.617,4.5 L8.15763277,6.03448938 C7.90990829,6.29459691 7.57837775,6.45592283 7.22435468,6.49219013 L7.07143218,6.5 L3,6.499 L3,13.5 C3,14.2796961 3.59488808,14.9204487 4.35553999,14.9931334 L4.5,15 L7.17413008,15.000839 C7.25559356,15.3455001 7.36449582,15.6795569 7.49840358,16.000576 L4.5,16 C3.1745166,16 2.08996133,14.9684641 2.00531768,13.6643757 L2,13.5 L2,4.5 C2,3.1745166 3.03153594,2.08996133 4.33562431,2.00531768 L4.5,2 L7.16666667,2 Z M7.16666667,3 L4.5,3 C3.72030388,3 3.07955132,3.59488808 3.00686658,4.35553999 L3,4.5 L3,5.499 L7.07143218,5.5 C7.18090211,5.5 7.28654535,5.46410776 7.37274193,5.39901751 L7.43349904,5.34482979 L8.694,4.021 L7.46666667,3.1 C7.4017556,3.0513167 7.32631526,3.01940835 7.24701143,3.00649688 L7.16666667,3 Z" id="ðŸŽ¨-Color"></path>
        </g>
    </g>
</svg>