<svg width="20" height="20" viewBox="0 0 20 20" fill="none" xmlns="http://www.w3.org/2000/svg">
<path d="M4.5 3C3.11929 3 2 4.11929 2 5.5V14.5C2 15.8807 3.11929 17 4.5 17H9.59971C9.43777 16.6832 9.30564 16.3486 9.20703 16H4.5C3.67157 16 3 15.3284 3 14.5V8H7.08579C7.48361 8 7.86514 7.84196 8.14645 7.56066L9.70711 6H15.5C16.3284 6 17 6.67157 17 7.5V9.59971C17.3578 9.78261 17.6929 10.0035 18 10.2572V7.5C18 6.11929 16.8807 5 15.5 5H9.70711L8.21967 3.51256C7.89148 3.18437 7.44636 3 6.98223 3H4.5ZM3 5.5C3 4.67157 3.67157 4 4.5 4H6.98223C7.18115 4 7.37191 4.07902 7.51256 4.21967L8.79289 5.5L7.43934 6.85355C7.34557 6.94732 7.21839 7 7.08579 7H3V5.5ZM19 14.5C19 16.9853 16.9853 19 14.5 19C12.0147 19 10 16.9853 10 14.5C10 12.0147 12.0147 10 14.5 10C16.9853 10 19 12.0147 19 14.5ZM15 12.5C15 12.2239 14.7761 12 14.5 12C14.2239 12 14 12.2239 14 12.5V14H12.5C12.2239 14 12 14.2239 12 14.5C12 14.7761 12.2239 15 12.5 15H14V16.5C14 16.7761 14.2239 17 14.5 17C14.7761 17 15 16.7761 15 16.5V15H16.5C16.7761 15 17 14.7761 17 14.5C17 14.2239 16.7761 14 16.5 14H15V12.5Z" fill="#212121"/>
</svg>
