<svg width="20" height="20" viewBox="0 0 20 20" fill="none" xmlns="http://www.w3.org/2000/svg">
<path d="M16 3C16.5523 3 17 3.44772 17 4V9.25C17 9.66421 16.6642 10 16.25 10C15.8358 10 15.5 9.66421 15.5 9.25V5.559L5.559 15.5H9.25C9.66421 15.5 10 15.8358 10 16.25C10 16.6642 9.66421 17 9.25 17H4C3.44772 17 3 16.5523 3 16V10.75C3 10.3358 3.33579 10 3.75 10C4.16421 10 4.5 10.3358 4.5 10.75V14.439L14.439 4.5H10.75C10.3358 4.5 10 4.16421 10 3.75C10 3.33579 10.3358 3 10.75 3H16Z" fill="#212121"/>
</svg>
