<svg width="28" height="28" viewBox="0 0 28 28" fill="none" xmlns="http://www.w3.org/2000/svg">
<path d="M23.25 4C23.6297 4 23.9435 4.28236 23.9932 4.64844L24 4.75V12.75C24 13.1642 23.6642 13.5 23.25 13.5C22.8703 13.5 22.5565 13.2176 22.5068 12.8516L22.5 12.75V6.55957L6.55957 22.5H12.75C13.1297 22.5 13.4435 22.7824 13.4932 23.1484L13.5 23.25C13.5 23.6297 13.2176 23.9435 12.8516 23.9932L12.75 24H4.75C4.3703 24 4.0565 23.7176 4.00684 23.3516L4 23.25V15.25C4 14.8358 4.33579 14.5 4.75 14.5C5.1297 14.5 5.4435 14.7824 5.49316 15.1484L5.5 15.25V21.4385L21.4385 5.5H15.25C14.8703 5.5 14.5565 5.21764 14.5068 4.85156L14.5 4.75C14.5 4.3703 14.7824 4.0565 15.1484 4.00684L15.25 4H23.25Z" fill="#212121"/>
</svg>
