<svg width="20" height="20" viewBox="0 0 20 20" fill="none" xmlns="http://www.w3.org/2000/svg">
<path d="M15.75 3.5C16.1642 3.5 16.5 3.83579 16.5 4.25V10.25C16.5 10.6642 16.1642 11 15.75 11C15.3358 11 15 10.6642 15 10.25V6.06055L6.06055 15H10.25C10.6642 15 11 15.3358 11 15.75C11 16.1642 10.6642 16.5 10.25 16.5H4.25C3.83579 16.5 3.5 16.1642 3.5 15.75V9.75C3.5 9.33579 3.83579 9 4.25 9C4.66421 9 5 9.33579 5 9.75V13.9395L13.9395 5H9.75C9.33579 5 9 4.66421 9 4.25C9 3.83579 9.33579 3.5 9.75 3.5H15.75Z" fill="#212121"/>
</svg>
