<?xml version="1.0" encoding="UTF-8"?>
<svg width="24px" height="24px" viewBox="0 0 24 24" version="1.1" xmlns="http://www.w3.org/2000/svg" xmlns:xlink="http://www.w3.org/1999/xlink">
    <!-- Generator: Sketch 64 (93537) - https://sketch.com -->
    <title>ic_fluent_arrow_maximize_24_regular</title>
    <desc>Created with Sketch.</desc>
    <g id="ðŸ”-System-Icons" stroke="none" stroke-width="1" fill="none" fill-rule="evenodd">
        <g id="ic_fluent_arrow_maximize_24_regular" fill="#212121" fill-rule="nonzero">
            <path d="M12.748109,3.00129623 L20.3018618,3.00180934 L20.4020922,3.01572723 L20.4020922,3.01572723 L20.5009384,3.04332427 L20.5009384,3.04332427 L20.562038,3.06925661 L20.562038,3.06925661 C20.6410724,3.1041481 20.7149598,3.15467904 20.7799038,3.21960789 L20.8206178,3.2636488 L20.8206178,3.2636488 L20.8811543,3.34512786 L20.8811543,3.34512786 L20.9183431,3.41015101 L20.9183431,3.41015101 L20.9570257,3.50046614 L20.9570257,3.50046614 L20.9762122,3.56459327 L20.9762122,3.56459327 L20.9897917,3.6285349 L20.9897917,3.6285349 L20.9991061,3.72173042 L20.9991061,3.72173042 L20.9996358,11.2551867 C20.9996358,11.6694002 20.6638494,12.0051867 20.2496358,12.0051867 C19.86994,12.0051867 19.5561448,11.7230328 19.5064824,11.3569572 L19.4996358,11.2551867 L19.499109,5.55929623 L5.559109,19.5042962 L11.2496358,19.5051867 C11.6293316,19.5051867 11.9431268,19.7873406 11.9927892,20.1534161 L11.9996358,20.2551867 C11.9996358,20.6348824 11.7174819,20.9486776 11.3514064,20.9983401 L11.2496358,21.0051867 L3.71377826,21.0044149 L3.71377826,21.0044149 L3.68479427,21.0015557 C3.61873208,20.9969438 3.55601894,20.9831072 3.49674051,20.9620251 L3.40660837,20.9231054 L3.40660837,20.9231054 L3.38941968,20.912609 C3.18521908,20.8022226 3.03877229,20.5991703 3.00535123,20.3598222 L2.998109,20.2551867 L2.998109,12.7512962 C2.998109,12.3370827 3.33389544,12.0012962 3.748109,12.0012962 C4.12780477,12.0012962 4.44159996,12.2834501 4.49126239,12.6495257 L4.498109,12.7512962 L4.498109,18.4432962 L18.438109,4.50029623 L12.748109,4.50129623 C12.3684132,4.50129623 12.054618,4.21914235 12.0049556,3.85306678 L11.998109,3.75129623 C11.998109,3.37160046 12.2802629,3.05780527 12.6463384,3.00814284 L12.748109,3.00129623 Z" id="ðŸŽ¨-Color"></path>
        </g>
    </g>
</svg>