<svg width="48" height="48" viewBox="0 0 48 48" fill="none" xmlns="http://www.w3.org/2000/svg">
<path d="M4 10.25C4 7.90279 5.90279 6 8.25 6H28.75C31.0972 6 33 7.90279 33 10.25V12H36.3102C37.9827 12 39.4996 12.9808 40.1859 14.5059L43.6257 22.1499C43.8724 22.6982 44 23.2926 44 23.8939V34.75C44 37.0972 42.0972 39 39.75 39H35.917C35.441 41.8377 32.973 44 30 44C27.027 44 24.559 41.8377 24.083 39H19.917C19.441 41.8377 16.973 44 14 44C11.0259 44 8.55715 41.8361 8.08242 38.9968C5.81288 38.9088 4 37.0411 4 34.75V10.25ZM26.6449 39C27.0752 40.4457 28.4145 41.5 30 41.5C31.5855 41.5 32.9248 40.4457 33.3551 39C33.4494 38.6831 33.5 38.3475 33.5 38C33.5 36.067 31.933 34.5 30 34.5C28.067 34.5 26.5 36.067 26.5 38C26.5 38.3475 26.5506 38.6831 26.6449 39ZM14 41.5C15.5855 41.5 16.9248 40.4457 17.3551 39C17.4494 38.6831 17.5 38.3475 17.5 38C17.5 36.067 15.933 34.5 14 34.5C12.067 34.5 10.5 36.067 10.5 38C10.5 38.3475 10.5506 38.6831 10.6449 39C11.0752 40.4457 12.4145 41.5 14 41.5ZM41.5 31H38.25C37.5596 31 37 31.5596 37 32.25C37 32.9404 37.5596 33.5 38.25 33.5H41.5V31ZM33 22H40.8168L37.9061 15.5319C37.6235 14.9039 36.9989 14.5 36.3102 14.5H33V22Z" fill="#212121"/>
</svg>
