<svg width="20" height="20" viewBox="0 0 20 20" fill="none" xmlns="http://www.w3.org/2000/svg">
<path d="M2 4.5C2 3.67157 2.67157 3 3.5 3H16.5C17.3284 3 18 3.67157 18 4.5C18 5.15311 17.5826 5.70873 17 5.91465V12H16V6H4V16H5V12.5C5 12.2239 5.22386 12 5.5 12H9.5C9.70269 12 9.8772 12.1206 9.95571 12.294C9.38242 12.6456 9 13.2782 9 14V13H6V16H9V17H3.5C3.22386 17 3 16.7761 3 16.5V5.91465C2.4174 5.70873 2 5.15311 2 4.5ZM3.5 4C3.22386 4 3 4.22386 3 4.5C3 4.77614 3.22386 5 3.5 5H16.5C16.7761 5 17 4.77614 17 4.5C17 4.22386 16.7761 4 16.5 4H3.5ZM5.5 7C5.22386 7 5 7.22386 5 7.5V10.5C5 10.7761 5.22386 11 5.5 11H14.5C14.7761 11 15 10.7761 15 10.5V7.5C15 7.22386 14.7761 7 14.5 7H5.5ZM6 10V8H14V10H6ZM19 14.5V17.5C19 18.3284 18.3284 19 17.5 19H11.5C10.6716 19 10 18.3284 10 17.5V14.5C10 13.6716 10.6716 13 11.5 13H17.5C18.3284 13 19 13.6716 19 14.5ZM17.5 18C17.5 17.7239 17.7239 17.5 18 17.5V16.5C17.1716 16.5 16.5 17.1716 16.5 18H17.5ZM18 14.5C17.7239 14.5 17.5 14.2761 17.5 14H16.5C16.5 14.8284 17.1716 15.5 18 15.5V14.5ZM11.5 14C11.5 14.2761 11.2761 14.5 11 14.5L11 15.5C11.8285 15.5 12.5 14.8284 12.5 14H11.5ZM11 17.5C11.2761 17.5 11.5 17.7239 11.5 18H12.5C12.5 17.1716 11.8284 16.5 11 16.5V17.5ZM14.5 14.5C13.6716 14.5 13 15.1716 13 16C13 16.8284 13.6716 17.5 14.5 17.5C15.3285 17.5 16 16.8284 16 16C16 15.1716 15.3285 14.5 14.5 14.5Z" fill="#212121"/>
</svg>
