<svg width="16" height="16" viewBox="0 0 16 16" fill="none" xmlns="http://www.w3.org/2000/svg">
<path d="M2 3C2 1.89543 2.89543 1 4 1H10C11.1046 1 12 1.89543 12 3V9.49982C11.8107 9.64202 11.6422 9.81046 11.5 9.99976C11.0439 9.39267 10.3178 9 9.5 9C8.80248 9 8.17168 9.28566 7.71821 9.74637C7.64486 9.63919 7.56407 9.54802 7.48472 9.47372C7.24528 9.24956 6.97741 9.13018 6.75576 9.0703C6.44549 8.98647 5.56109 8.87889 4.97234 9.65737C4.85004 9.81907 4.66034 10.0065 4.37864 10.1348C3.62463 10.4779 3.29158 11.3674 3.63475 12.1214C3.88609 12.6736 4.43044 13 5 13.0004V14.5C5 14.6753 5.03008 14.8436 5.08535 15H4C2.89543 15 2 14.1046 2 13V3ZM9.5 10C8.67157 10 8 10.6716 8 11.5V13.5C8 14.3284 8.67157 15 9.5 15C10.3284 15 11 14.3284 11 13.5V11.5C11 10.6716 10.3284 10 9.5 10ZM9 11.5C9 11.2239 9.22386 11 9.5 11C9.77614 11 10 11.2239 10 11.5V13.5C10 13.7761 9.77614 14 9.5 14C9.22386 14 9 13.7761 9 13.5V11.5ZM12 11.5C12 10.6716 12.6716 10 13.5 10C14.3284 10 15 10.6716 15 11.5V13.5C15 14.3284 14.3284 15 13.5 15C12.6716 15 12 14.3284 12 13.5V11.5ZM13.5 11C13.2239 11 13 11.2239 13 11.5V13.5C13 13.7761 13.2239 14 13.5 14C13.7761 14 14 13.7761 14 13.5V11.5C14 11.2239 13.7761 11 13.5 11ZM7 10.6543C7 10.451 6.90129 10.2974 6.80127 10.2037C6.70494 10.1135 6.59307 10.0622 6.49493 10.0357C6.34299 9.99463 5.99298 9.96564 5.76992 10.2606C5.57277 10.5213 5.2601 10.8323 4.79288 11.0449C4.54154 11.1593 4.43053 11.4558 4.54492 11.7071C4.65931 11.9585 4.95579 12.0695 5.20712 11.9551C5.51905 11.8131 5.78139 11.6398 6 11.4582V14.5C6 14.7761 6.22386 15 6.5 15C6.77614 15 7 14.7761 7 14.5V10.6543Z" fill="#212121"/>
</svg>
