<svg width="24" height="24" viewBox="0 0 24 24" fill="none" xmlns="http://www.w3.org/2000/svg">
<path d="M18.0002 20.5C18.2762 20.5 18.5002 20.275 18.5002 20V10H14.0002C12.8962 10 12.0002 9.104 12.0002 8V3.5H6.00024C5.72424 3.5 5.50024 3.725 5.50024 4V11.3107C5.00752 11.2012 4.49985 11.176 4.00024 11.235V4C4.00024 2.896 4.89624 2 6.00024 2H12.1722C12.2001 2 12.2273 2.00371 12.2544 2.00741C12.274 2.01008 12.2935 2.01274 12.3132 2.014C12.5282 2.029 12.7402 2.07 12.9372 2.152C12.9946 2.17648 13.049 2.20797 13.1032 2.23933C13.1198 2.2489 13.1367 2.25866 13.1532 2.268C13.1687 2.27647 13.1847 2.28426 13.2008 2.29207C13.2283 2.30547 13.256 2.31894 13.2812 2.336C13.3592 2.389 13.4292 2.452 13.5002 2.516C13.5117 2.52619 13.5241 2.53565 13.5365 2.54516C13.5533 2.55804 13.5703 2.57105 13.5852 2.586L19.4142 8.414C19.7892 8.789 20.0002 9.298 20.0002 9.828V20C20.0002 21.104 19.1042 22 18.0002 22H9.48954L10.9895 20.5H18.0002ZM17.3782 8.5L13.5002 4.621V8C13.5002 8.275 13.7242 8.5 14.0002 8.5H17.3782ZM6.48422 22.5303C6.63065 22.6768 6.82261 22.75 7.01461 22.75C7.2066 22.75 7.39857 22.6768 7.54499 22.5303L11.9533 18.122C13.3071 16.7682 13.3071 14.5732 11.9533 13.2194C10.5994 11.8655 8.40444 11.8655 7.0506 13.2194L7.01461 13.2554L6.97861 13.2194C5.62477 11.8655 3.42977 11.8655 2.07593 13.2194C0.722088 14.5732 0.722087 16.7682 2.07593 18.122L6.48422 22.5303ZM3.13659 14.28C3.90464 13.512 5.1499 13.512 5.91795 14.28L6.48428 14.8463C6.77717 15.1392 7.25204 15.1392 7.54494 14.8463L8.11126 14.28C8.87931 13.512 10.1246 13.512 10.8926 14.28C11.6607 15.0481 11.6607 16.2933 10.8926 17.0614L7.01461 20.9394L3.13659 17.0614C2.36853 16.2933 2.36853 15.0481 3.13659 14.28Z" fill="#212121"/>
</svg>
