<svg width="21" height="20" viewBox="0 0 21 20" fill="none" xmlns="http://www.w3.org/2000/svg">
<path d="M4.41602 4.80435C4.41602 3.79354 5.25649 3 6.26084 3H16.5712C17.5755 3 18.416 3.79354 18.416 4.80435V12.1957C18.416 13.2065 17.5755 14 16.5712 14H10.416V12H12.916C13.1922 12 13.416 11.7761 13.416 11.5C13.416 11.2239 13.1922 11 12.916 11H10.416V8C10.416 6.89543 9.52059 6 8.41602 6H4.41602V4.80435ZM3.91602 7C3.08759 7 2.41602 7.67157 2.41602 8.5V16.5C2.41602 17.3284 3.08759 18 3.91602 18H7.91602C8.74444 18 9.41602 17.3284 9.41602 16.5V8.5C9.41602 7.67157 8.74444 7 7.91602 7H3.91602ZM4.91602 15.5C4.91602 15.2239 5.13987 15 5.41602 15H6.41602C6.69216 15 6.91602 15.2239 6.91602 15.5C6.91602 15.7761 6.69216 16 6.41602 16H5.41602C5.13987 16 4.91602 15.7761 4.91602 15.5Z" fill="#212121"/>
</svg>
