<svg width="24" height="24" viewBox="0 0 24 24" fill="none" xmlns="http://www.w3.org/2000/svg">
<path d="M18.75 3.50098C20.5449 3.50098 22 4.95605 22 6.75098V17.2536C22 19.0485 20.5449 20.5036 18.75 20.5036H5.25C3.45507 20.5036 2 19.0485 2 17.2536V6.75098C2 4.95605 3.45507 3.50098 5.25 3.50098H18.75ZM8.37846 8.99359C8.06466 8.99359 7.80488 9.22485 7.76024 9.52623L7.75346 9.61859L7.75285 11.3866H6.27185V9.63582L6.26508 9.54346C6.22044 9.24208 5.96065 9.01082 5.64685 9.01082C5.33306 9.01082 5.07327 9.24208 5.02863 9.54346L5.02185 9.63582V14.3877L5.02863 14.4801C5.07327 14.7814 5.33306 15.0127 5.64685 15.0127C5.96065 15.0127 6.22044 14.7814 6.26508 14.4801L6.27185 14.3877V12.6366H7.75285L7.75346 14.3705L7.76024 14.4628C7.80488 14.7642 8.06466 14.9955 8.37846 14.9955C8.69226 14.9955 8.95204 14.7642 8.99669 14.4628L9.00346 14.3705V9.61859L8.99669 9.52623C8.95204 9.22485 8.69226 8.99359 8.37846 8.99359ZM17.2012 9.01611H15.6286L15.5362 9.02289C15.2681 9.06264 15.0555 9.27262 15.0119 9.53937L15.0036 9.64184L15.0092 14.3765L15.0168 14.4849L15.0399 14.5876C15.222 15.1697 16.1534 15.1366 16.2509 14.4894L16.2592 14.3758L16.2585 12.6244L17.0006 12.6241L17.8009 14.6094L17.8463 14.7004C18.0023 14.9577 18.326 15.0716 18.6142 14.9555C18.9023 14.8394 19.0566 14.5328 18.9906 14.2393L18.9602 14.1422L18.2215 12.3089C18.695 11.9836 19.0055 11.4383 19.0055 10.8205C19.0055 9.87378 18.2765 9.09736 17.3492 9.02209L17.2012 9.01611ZM11.3754 9.00644H10.6246L10.5322 9.01322C10.2643 9.0529 10.0518 9.26257 10.0079 9.52907L9.99959 9.63144V14.3731L10.0064 14.4654C10.0461 14.7333 10.2557 14.9458 10.5222 14.9897L10.6246 14.9981H11.3754L11.5414 14.9929C12.8589 14.9107 13.913 13.8566 13.9952 12.5391L14.0004 12.3731V11.6314L13.9952 11.4654C13.913 10.1479 12.8589 9.09383 11.5414 9.01161L11.3754 9.00644ZM11.3754 10.2564C12.0901 10.2564 12.6775 10.8018 12.7441 11.499L12.7504 11.6314V12.3731L12.7441 12.5055C12.6816 13.1592 12.1615 13.6793 11.5078 13.7418L11.3754 13.7481L11.249 13.7474V10.2564H11.3754ZM16.2545 10.2654L17.2012 10.2661L17.2911 10.2734C17.5545 10.3163 17.7555 10.5449 17.7555 10.8205C17.7555 11.096 17.5545 11.3246 17.2911 11.3676L17.2012 11.3749L16.2555 11.3744L16.2545 10.2654Z" fill="#212121"/>
</svg>
