<svg width="20" height="20" viewBox="0 0 20 20" fill="none" xmlns="http://www.w3.org/2000/svg">
<path d="M8.16234 2.21224C8.75312 2.07332 9.36848 2 10 2C10.6315 2 11.2469 2.07332 11.8377 2.21224C12.2409 2.30706 12.4909 2.71079 12.3961 3.11401C12.3013 3.51722 11.8975 3.76723 11.4943 3.67242C11.0152 3.55977 10.5151 3.5 10 3.5C9.48492 3.5 8.98475 3.55977 8.5057 3.67242C8.10248 3.76723 7.69875 3.51722 7.60393 3.11401C7.50912 2.71079 7.75912 2.30706 8.16234 2.21224Z" fill="#212121"/>
<path d="M6.82518 3.4372C7.0433 3.78933 6.93466 4.25161 6.58253 4.46973C5.72543 5.00064 5.00064 5.72543 4.46973 6.58253C4.25161 6.93466 3.78933 7.0433 3.4372 6.82518C3.08507 6.60706 2.97643 6.14478 3.19455 5.79265C3.84754 4.73845 4.73845 3.84754 5.79265 3.19455C6.14478 2.97643 6.60706 3.08507 6.82518 3.4372Z" fill="#212121"/>
<path d="M13.1748 3.4372C13.3929 3.08507 13.8552 2.97643 14.2074 3.19455C15.2615 3.84754 16.1525 4.73845 16.8055 5.79265C17.0236 6.14478 16.9149 6.60706 16.5628 6.82518C16.2107 7.0433 15.7484 6.93466 15.5303 6.58253C14.9994 5.72543 14.2746 5.00064 13.4175 4.46973C13.0653 4.25161 12.9567 3.78933 13.1748 3.4372Z" fill="#212121"/>
<path d="M3.11401 7.60393C3.51722 7.69875 3.76723 8.10248 3.67242 8.5057C3.55977 8.98475 3.5 9.48492 3.5 10C3.5 10.5151 3.55977 11.0152 3.67242 11.4943C3.76723 11.8975 3.51722 12.3013 3.11401 12.3961C2.71079 12.4909 2.30706 12.2409 2.21224 11.8377C2.07332 11.2469 2 10.6315 2 10C2 9.36848 2.07332 8.75312 2.21224 8.16234C2.30706 7.75912 2.71079 7.50911 3.11401 7.60393Z" fill="#212121"/>
<path d="M16.886 7.60393C17.2892 7.50912 17.6929 7.75912 17.7878 8.16234C17.9267 8.75312 18 9.36848 18 10C18 10.6315 17.9267 11.2469 17.7878 11.8377C17.6929 12.2409 17.2892 12.4909 16.886 12.3961C16.4828 12.3013 16.2328 11.8975 16.3276 11.4943C16.4402 11.0152 16.5 10.5151 16.5 10C16.5 9.48492 16.4402 8.98475 16.3276 8.5057C16.2328 8.10248 16.4828 7.69875 16.886 7.60393Z" fill="#212121"/>
<path d="M3.4372 13.1748C3.78933 12.9567 4.25161 13.0653 4.46973 13.4175C5.00064 14.2746 5.72543 14.9994 6.58253 15.5303C6.93466 15.7484 7.0433 16.2107 6.82518 16.5628C6.60706 16.9149 6.14478 17.0236 5.79265 16.8055C4.73845 16.1525 3.84754 15.2615 3.19455 14.2074C2.97643 13.8552 3.08507 13.3929 3.4372 13.1748Z" fill="#212121"/>
<path d="M17.1103 14.4359C17.351 14.0989 17.2729 13.6304 16.9359 13.3897C16.5989 13.149 16.1305 13.2273 15.8897 13.5641L15.887 13.5677L15.8703 13.5902C15.8546 13.6113 15.8297 13.6441 15.796 13.687C15.7285 13.7729 15.6262 13.8987 15.4919 14.0511C15.2465 14.3296 14.8983 14.6928 14.4652 15.0625C13.4479 14.3337 12.1252 13.75 10.5 13.75C9.7475 13.75 9.11198 13.9938 8.65949 14.427C8.2119 14.8556 7.98756 15.429 7.98755 16C7.98754 16.571 8.21187 17.1444 8.65946 17.573C9.11193 18.0062 9.74744 18.25 10.5 18.25C12.0318 18.25 13.368 17.6657 14.4147 16.976C14.4331 16.9941 14.4514 17.0122 14.4695 17.0303C14.9266 17.4874 15.2711 17.9465 15.5007 18.291C15.6151 18.4626 15.6999 18.604 15.7548 18.7002C15.7822 18.7482 15.8021 18.7848 15.8145 18.808L15.8274 18.8325L15.8287 18.8351C15.6774 18.5687 15.8295 18.8367 15.8295 18.8367C16.0152 19.2062 16.465 19.3558 16.8351 19.1708C17.2055 18.9857 17.3557 18.5354 17.1707 18.1649C17.3596 18.5427 17.1709 18.1653 17.17 18.1634L17.1691 18.1618L17.167 18.1575L17.1604 18.1446C17.1549 18.1341 17.1475 18.1199 17.1381 18.1022C17.1192 18.0668 17.0923 18.0174 17.0572 17.9561C16.9871 17.8335 16.8844 17.6624 16.7488 17.459C16.4923 17.0742 16.114 16.5673 15.6121 16.0526C16.0305 15.6805 16.3696 15.324 16.6174 15.0426C16.7722 14.8669 16.8925 14.7193 16.9754 14.6138C17.0169 14.5609 17.0491 14.5186 17.0717 14.4884L17.0983 14.4524L17.1061 14.4416L17.1087 14.4381L17.1103 14.4359ZM10.5 15.25C11.5274 15.25 12.4102 15.5537 13.1501 15.9926C12.3657 16.4363 11.4675 16.75 10.5 16.75C10.0775 16.75 9.83184 16.6188 9.69684 16.4895C9.55695 16.3556 9.48755 16.179 9.48755 16C9.48755 15.821 9.55696 15.6444 9.69686 15.5105C9.83187 15.3812 10.0776 15.25 10.5 15.25Z" fill="#212121"/>
</svg>
