<svg width="24" height="24" viewBox="0 0 24 24" fill="none" xmlns="http://www.w3.org/2000/svg">
<path d="M2 6.75C2 5.23122 3.23122 4 4.75 4H19.25C20.7688 4 22 5.23122 22 6.75V17.25C22 18.7688 20.7688 20 19.25 20H4.75C3.23122 20 2 18.7688 2 17.25V6.75ZM6.25 8C5.55964 8 5 8.55964 5 9.25V14.75C5 15.4404 5.55964 16 6.25 16H11.75C12.4404 16 13 15.4404 13 14.75V9.25C13 8.55964 12.4404 8 11.75 8H6.25ZM14 8.75C14 9.16421 14.3358 9.5 14.75 9.5H18.25C18.6642 9.5 19 9.16421 19 8.75C19 8.33579 18.6642 8 18.25 8H14.75C14.3358 8 14 8.33579 14 8.75ZM14.75 11C14.3358 11 14 11.3358 14 11.75C14 12.1642 14.3358 12.5 14.75 12.5H18.25C18.6642 12.5 19 12.1642 19 11.75C19 11.3358 18.6642 11 18.25 11H14.75ZM14 14.75C14 15.1642 14.3358 15.5 14.75 15.5H18.25C18.6642 15.5 19 15.1642 19 14.75C19 14.3358 18.6642 14 18.25 14H14.75C14.3358 14 14 14.3358 14 14.75Z" fill="#212121"/>
</svg>
