<svg width="32" height="32" viewBox="0 0 32 32" fill="none" xmlns="http://www.w3.org/2000/svg">
<path d="M4.75 23C5.44036 23 6 23.5596 6 24.25V27.75C6 28.4404 5.44036 29 4.75 29C4.05964 29 3.5 28.4404 3.5 27.75V24.25C3.5 23.5596 4.05964 23 4.75 23ZM11.75 17C12.4404 17 13 17.5596 13 18.25V27.75C13 28.4404 12.4404 29 11.75 29C11.0596 29 10.5 28.4404 10.5 27.75V18.25C10.5 17.5596 11.0596 17 11.75 17ZM18.75 20C19.4404 20 20 20.5596 20 21.25V27.75C20 28.4404 19.4404 29 18.75 29C18.0596 29 17.5 28.4404 17.5 27.75V21.25C17.5 20.5596 18.0596 20 18.75 20ZM25.75 14C26.4404 14 27 14.5596 27 15.25V27.75C27 28.4404 26.4404 29 25.75 29C25.0596 29 24.5 28.4404 24.5 27.75V15.25C24.5 14.5596 25.0596 14 25.75 14ZM27.75 3C28.4404 3 29 3.55964 29 4.25V9.75C29 10.4404 28.4404 11 27.75 11C27.0596 11 26.5 10.4404 26.5 9.75V7.26758L18.6338 15.1338C18.1456 15.6219 17.3544 15.6219 16.8662 15.1338L12.75 11.0176L5.63379 18.1338C5.14563 18.6219 4.35437 18.6219 3.86621 18.1338C3.37806 17.6456 3.37806 16.8544 3.86621 16.3662L11.8662 8.36621L11.9609 8.28027C12.4519 7.87979 13.1761 7.90855 13.6338 8.36621L17.75 12.4824L24.7324 5.5H22.25C21.5596 5.5 21 4.94036 21 4.25C21 3.55964 21.5596 3 22.25 3H27.75Z" fill="#212121"/>
</svg>
