<svg width="20" height="20" viewBox="0 0 20 20" fill="none" xmlns="http://www.w3.org/2000/svg">
<path d="M11.5 1C10.6716 1 10 1.67157 10 2.5V7.5C10 8.32843 10.6716 9 11.5 9H17.5C18.3284 9 19 8.32843 19 7.5V2.5C19 1.67157 18.3284 1 17.5 1H11.5ZM12.5 6H16.5C16.7761 6 17 6.22386 17 6.5C17 6.77614 16.7761 7 16.5 7H12.5C12.2239 7 12 6.77614 12 6.5C12 6.22386 12.2239 6 12.5 6ZM12 3.5C12 3.22386 12.2239 3 12.5 3H16.5C16.7761 3 17 3.22386 17 3.5C17 3.77614 16.7761 4 16.5 4H12.5C12.2239 4 12 3.77614 12 3.5ZM4.6 3H9V4H4.6C3.70383 4 3 4.71348 3 5.56582V12.2764C3 13.1288 3.70383 13.8423 4.6 13.8423H6.19908L6.2 17L6.20346 16.9997L6.20502 16.9988L10.4809 13.8423H15.4C16.2962 13.8423 17 13.1288 17 12.2764V10H17.5C17.6712 10 17.8384 9.98278 18 9.94999V12.2764C18 13.6935 16.8359 14.8423 15.4 14.8423H10.81L6.79895 17.8034C6.35668 18.1298 5.73 18.0406 5.39921 17.6042C5.26989 17.4335 5.2 17.2262 5.2 17.0133L5.19937 14.8423H4.6C3.16406 14.8423 2 13.6935 2 12.2764V5.56582C2 4.14876 3.16406 3 4.6 3Z" fill="#212121"/>
</svg>
