<svg width="24" height="24" viewBox="0 0 24 24" fill="none" xmlns="http://www.w3.org/2000/svg">
<path d="M12 2V8C12 9.10457 12.8954 10 14 10H20V20C20 21.1046 19.1046 22 18 22H11.1904C12.3112 20.8321 13 19.2465 13 17.5C13 13.9101 10.0899 11 6.5 11C5.6141 11 4.76959 11.1772 4 11.4982V4C4 2.89543 4.89543 2 6 2H12ZM13.5 2.5V8C13.5 8.27614 13.7239 8.5 14 8.5H19.5L13.5 2.5ZM12 17.5C12 20.5376 9.53757 23 6.5 23C3.46243 23 1 20.5376 1 17.5C1 14.4624 3.46243 12 6.5 12C9.53757 12 12 14.4624 12 17.5ZM6.5 14C6.22386 14 6 14.2239 6 14.5V18.5C6 18.7761 6.22386 19 6.5 19C6.77614 19 7 18.7761 7 18.5V14.5C7 14.2239 6.77614 14 6.5 14ZM6.5 21.125C6.84518 21.125 7.125 20.8452 7.125 20.5C7.125 20.1548 6.84518 19.875 6.5 19.875C6.15482 19.875 5.875 20.1548 5.875 20.5C5.875 20.8452 6.15482 21.125 6.5 21.125Z" fill="#212121"/>
</svg>
