<svg width="16" height="16" viewBox="0 0 16 16" fill="none" xmlns="http://www.w3.org/2000/svg">
<path d="M4.5002 2.25C4.81442 2.25 5.09533 2.44587 5.20396 2.74072L8.70396 12.2407C8.84716 12.6294 8.64816 13.0606 8.25948 13.2038C7.87081 13.347 7.43964 13.148 7.29645 12.7593L6.37198 10.25H2.62843L1.70396 12.7593C1.56077 13.148 1.1296 13.347 0.740925 13.2038C0.35225 13.0606 0.153251 12.6294 0.296447 12.2407L3.79645 2.74072C3.90507 2.44587 4.18598 2.25 4.5002 2.25ZM4.5002 5.16948L3.18106 8.75H5.81934L4.5002 5.16948ZM9.75 2.25C9.33579 2.25 9 2.58579 9 3V12.5C9 12.9142 9.33579 13.25 9.75 13.25H12.25C14.0449 13.25 15.5 11.7949 15.5 10C15.5 8.77412 14.8213 7.70676 13.8191 7.1532C14.2446 6.63537 14.5 5.97251 14.5 5.25C14.5 3.59315 13.1569 2.25 11.5 2.25H9.75ZM13 5.25C13 6.07843 12.3284 6.75 11.5 6.75H10.5V3.75H11.5C12.3284 3.75 13 4.42157 13 5.25ZM12.25 11.75H10.5V8.25H12.25C13.2165 8.25 14 9.0335 14 10C14 10.9665 13.2165 11.75 12.25 11.75Z" fill="#212121"/>
</svg>
