<svg width="32" height="32" viewBox="0 0 32 32" fill="none" xmlns="http://www.w3.org/2000/svg">
<path d="M2 7.5C2 5.01472 4.01472 3 6.5 3H25.5C27.9853 3 30 5.01472 30 7.5V19.5C30 21.9853 27.9853 24 25.5 24H17.8685L11.2977 29.6029C9.99932 30.71 8 29.7873 8 28.081V24H6.5C4.01472 24 2 21.9853 2 19.5V7.5ZM6.5 5C5.11929 5 4 6.11929 4 7.5V19.5C4 20.8807 5.11929 22 6.5 22H9C9.55228 22 10 22.4477 10 23V28.081L16.8512 22.2391C17.0321 22.0848 17.2622 22 17.5 22H25.5C26.8807 22 28 20.8807 28 19.5V7.5C28 6.11929 26.8807 5 25.5 5H6.5Z" fill="#212121"/>
</svg>
