<svg width="32" height="32" viewBox="0 0 32 32" fill="none" xmlns="http://www.w3.org/2000/svg">
<path d="M23.9921 13.6406C23.1737 13.3987 22.288 13.4626 21.5052 13.8323L16.5052 16.1941C15.2809 16.7723 14.5 18.0048 14.5 19.3588V25H9C6.29252 25 4.48477 24.1798 3.37242 22.9085C2.28392 21.6645 2 20.1452 2 19C2 16.6445 3.93065 13.4703 8.05614 13.0473C8.52714 9.0781 11.9041 6 16 6C20.2978 6 23.8041 9.38911 23.9921 13.6406ZM30 25.6415V19.3588C30 18.5851 29.5538 17.8808 28.8542 17.5504L23.8542 15.1887C23.3134 14.9332 22.6866 14.9332 22.1458 15.1887L17.1458 17.5504C16.4462 17.8808 16 18.5851 16 19.3588V25.6415C16 26.4152 16.4462 27.1194 17.1458 27.4499L22.1458 29.8116C22.6866 30.067 23.3134 30.067 23.8542 29.8116L28.8542 27.4499C29.5538 27.1194 30 26.4152 30 25.6415ZM18.0718 19.4297C18.2488 19.0552 18.6958 18.895 19.0703 19.0719L23 20.9281L26.9297 19.0719C27.3042 18.895 27.7513 19.0552 27.9282 19.4297C28.1051 19.8043 27.9449 20.2513 27.5704 20.4282L23.75 22.2327V26.2501C23.75 26.6643 23.4142 27.0001 23 27.0001C22.5858 27.0001 22.25 26.6643 22.25 26.2501V22.2327L18.4297 20.4282C18.0551 20.2513 17.8949 19.8043 18.0718 19.4297Z" fill="#212121"/>
</svg>
