<svg width="32" height="32" viewBox="0 0 32 32" fill="none" xmlns="http://www.w3.org/2000/svg">
<path d="M21.9897 13.646C21.8065 10.4971 19.1949 8 16 8C12.9815 8 10.4837 10.2289 10.0625 13.1306C10.0206 13.4268 10 13.7185 10 14C10 14.5523 9.55228 15 9 15C5.37634 15 4 17.5283 4 19C4 19.8548 4.21608 20.8355 4.87758 21.5915C5.51523 22.3202 6.70748 23 9 23H14.5V25H9C6.29252 25 4.48477 24.1798 3.37242 22.9085C2.28392 21.6645 2 20.1452 2 19C2 16.6445 3.93065 13.4703 8.05614 13.0473C8.52714 9.0781 11.9041 6 16 6C20.2978 6 23.8041 9.3891 23.9921 13.6406C23.3387 13.4474 22.6423 13.4493 21.9897 13.646ZM30 19.3588V25.6415C30 26.4152 29.5538 27.1194 28.8542 27.4499L23.8542 29.8116C23.3134 30.067 22.6866 30.067 22.1458 29.8116L17.1458 27.4499C16.4462 27.1194 16 26.4152 16 25.6415V19.3588C16 18.5851 16.4462 17.8808 17.1458 17.5504L22.1458 15.1887C22.6866 14.9332 23.3134 14.9332 23.8542 15.1887L28.8542 17.5504C29.5538 17.8808 30 18.5851 30 19.3588ZM19.0703 19.0719C18.6958 18.895 18.2488 19.0552 18.0718 19.4297C17.8949 19.8042 18.0551 20.2513 18.4297 20.4282L22.25 22.2327V26.25C22.25 26.6642 22.5858 27 23 27C23.4142 27 23.75 26.6642 23.75 26.25V22.2327L27.5704 20.4282C27.9449 20.2513 28.1051 19.8042 27.9282 19.4297C27.7513 19.0552 27.3042 18.895 26.9297 19.0719L23 20.928L19.0703 19.0719Z" fill="#212121"/>
</svg>
