<svg width="32" height="32" viewBox="0 0 32 32" fill="none" xmlns="http://www.w3.org/2000/svg">
<path d="M20.1874 21.6015L28.2932 29.7071C28.6837 30.0976 29.3169 30.0976 29.7074 29.7071C30.0979 29.3166 30.0979 28.6834 29.7074 28.2929L3.7071 2.29319C3.31657 1.90267 2.6834 1.90268 2.29288 2.29321C1.90237 2.68374 1.90237 3.3169 2.2929 3.70742L10.3989 11.8132L6.71919 13.0398C5.30872 13.5099 4.88613 15.3001 5.93743 16.3514L10.0862 20.5001L4.0003 26.5859V28.0001H5.41452L11.5004 21.9143L15.6492 26.0631C16.7005 27.1144 18.4906 26.6918 18.9608 25.2814L20.1874 21.6015ZM27.7248 16.256L22.4356 18.9006L13.0999 9.56513L15.7446 4.27577C16.9656 1.83378 20.2201 1.30563 22.1507 3.2362L28.7644 9.84985C30.6949 11.7804 30.1668 15.035 27.7248 16.256Z" fill="#212121"/>
</svg>
