<svg width="21" height="20" viewBox="0 0 21 20" fill="none" xmlns="http://www.w3.org/2000/svg">
<path d="M3.26957 2.14645C3.07431 1.95118 2.75772 1.95118 2.56246 2.14645C2.3672 2.34171 2.3672 2.65829 2.56246 2.85355L7.31202 7.60309L4.43436 8.75415C3.76779 9.02078 3.591 9.88209 4.09864 10.3897L6.70891 13L3.41602 16.2929V17H4.12313L7.41602 13.7071L10.0263 16.3174C10.5339 16.825 11.3952 16.6482 11.6619 15.9817L12.8129 13.104L17.5625 17.8536C17.7577 18.0488 18.0743 18.0488 18.2696 17.8536C18.4648 17.6583 18.4648 17.3417 18.2696 17.1464L3.26957 2.14645ZM12.0436 12.3347L10.7334 15.6103L4.80575 9.68263L8.08132 8.3724L12.0436 12.3347ZM13.3725 10.7127C13.3454 10.7263 13.3186 10.7403 13.2921 10.7548L14.0363 11.4989L17.2782 9.87793C18.4992 9.26743 18.7633 7.64015 17.798 6.67486L13.7412 2.61804C12.7759 1.65275 11.1486 1.91683 10.5381 3.13783L8.91712 6.37977L9.66125 7.1239C9.67572 7.09739 9.68974 7.07059 9.70329 7.04349L11.4325 3.58504C11.7378 2.97454 12.5514 2.8425 13.034 3.32514L17.0909 7.38197C17.5735 7.86461 17.4415 8.67826 16.831 8.98351L13.3725 10.7127Z" fill="#212121"/>
</svg>
