<svg width="20" height="20" viewBox="0 0 20 20" fill="none" xmlns="http://www.w3.org/2000/svg">
<path d="M2.85355 2.14645C2.65829 1.95118 2.34171 1.95118 2.14645 2.14645C1.95118 2.34171 1.95118 2.65829 2.14645 2.85355L6.896 7.60309L4.01834 8.75415C3.35177 9.02078 3.17498 9.88209 3.68262 10.3897L6.29289 13L3 16.2929V17H3.70711L7 13.7071L9.61027 16.3174C10.1179 16.825 10.9792 16.6482 11.2459 15.9817L12.3969 13.104L17.1464 17.8536C17.3417 18.0488 17.6583 18.0488 17.8536 17.8536C18.0488 17.6583 18.0488 17.3417 17.8536 17.1464L2.85355 2.14645ZM11.6276 12.3347L10.3174 15.6103L4.38973 9.68263L7.66531 8.3724L11.6276 12.3347ZM12.9565 10.7127C12.9294 10.7263 12.9026 10.7403 12.8761 10.7548L13.6202 11.4989L16.8622 9.87793C18.0832 9.26743 18.3473 7.64015 17.382 6.67486L13.3251 2.61804C12.3599 1.65275 10.7326 1.91683 10.1221 3.13783L8.5011 6.37977L9.24523 7.1239C9.25971 7.09739 9.27373 7.07059 9.28728 7.04349L11.0165 3.58504C11.3218 2.97454 12.1354 2.8425 12.618 3.32514L16.6749 7.38197C17.1575 7.86461 17.0255 8.67826 16.415 8.98351L12.9565 10.7127Z" fill="#212121"/>
</svg>
