<?xml version="1.0" encoding="UTF-8"?>
<svg width="20px" height="20px" viewBox="0 0 20 20" version="1.1" xmlns="http://www.w3.org/2000/svg" xmlns:xlink="http://www.w3.org/1999/xlink">
    <!-- Generator: Sketch 64 (93537) - https://sketch.com -->
    <title>ic_fluent_content_settings_20_regular</title>
    <desc>Created with Sketch.</desc>
    <g id="ðŸ”-System-Icons" stroke="none" stroke-width="1" fill="none" fill-rule="evenodd">
        <g id="ic_fluent_content_settings_20_regular" fill="#212121" fill-rule="nonzero">
            <path d="M14.5,9.84616 C14.6654667,9.84616 14.8288444,9.85540444 14.9896593,9.87342222 L15.2289,9.90697 L15.2992,10.1981 C15.5558348,11.2621348 16.614775,11.9131684 17.6667658,11.6839562 L17.8101,11.6472 L18.009,11.5885 C18.2542,11.90442 18.460296,12.254132 18.6198128,12.6298536 L18.7306,12.9164 L18.5827,13.0588 C17.80579,13.80626 17.7669445,15.024825 18.4661635,15.8193955 L18.5827,15.9412 L18.7306,16.0836 C18.59484,16.47184 18.410632,16.836016 18.1854512,17.1683456 L18.009,17.4115 L17.8101,17.3528 C16.760413,17.0426 15.6669008,17.6338843 15.3390807,18.6594082 L15.2992,18.8019 L15.2289,19.093 C14.9917,19.1331 14.7482,19.1539 14.5,19.1539 C14.3345333,19.1539 14.1712,19.1446556 14.0103852,19.1266407 L13.7711,19.0931 L13.7009,18.8019 C13.4442652,17.7378652 12.385325,17.0868316 11.3332467,17.3160438 L11.1899,17.3528 L10.991,17.4116 C10.74588,17.0956 10.539736,16.745872 10.3801968,16.3701472 L10.2694,16.0836 L10.4174,15.9412 C11.194215,15.19374 11.2330557,13.975175 10.5339223,13.1806045 L10.4174,13.0588 L10.2694,12.9164 C10.40516,12.52816 10.589432,12.163984 10.8145872,11.8316544 L10.991,11.5885 L11.1899,11.6472 C12.2396826,11.9574 13.3331076,11.3661157 13.6610074,10.3405918 L13.7009,10.1981 L13.7711,9.90696 C14.0084,9.86696 14.2518,9.84616 14.5,9.84616 Z M14.5,3 C15.825472,3 16.9100378,4.03153766 16.9946823,5.33562452 L17,5.5 L17,9.59971 C16.7624,9.478255 16.5147875,9.37356813 16.2587656,9.28721453 L16,9.20703 L16,7 L4,7 L4,14.5 C4,15.2796706 4.59488554,15.9204457 5.35553954,15.9931332 L5.5,16 L9.20703,16 C9.2809875,16.26145 9.3738,16.515025 9.48390234,16.7591219 L9.59971,17 L5.5,17 C4.1745184,17 3.08996147,15.9684531 3.00531769,14.6643744 L3,14.5 L3,5.5 C3,4.1745184 4.03153766,3.08996147 5.33562452,3.00531769 L5.5,3 L14.5,3 Z M14.5,13.2308 C13.8226,13.2308 13.2734,13.799 13.2734,14.5 C13.2734,15.201 13.8226,15.7692 14.5,15.7692 C15.1775,15.7692 15.7267,15.201 15.7267,14.5 C15.7267,13.799 15.1775,13.2308 14.5,13.2308 Z M8.5,8 C8.77614,8 9,8.22386 9,8.5 L9,14.5 C9,14.7761 8.77614,15 8.5,15 L5.5,15 C5.22386,15 5,14.7761 5,14.5 L5,8.5 C5,8.22386 5.22386,8 5.5,8 L8.5,8 Z M8,9 L6,9 L6,14 L8,14 L8,9 Z M14.4999,7.99997 C14.7761,7.99997 14.9999,8.22383 14.9999,8.49997 C14.9999,8.74542778 14.8230704,8.9495779 14.5897908,8.99191425 L14.4999,8.99997 L10.4976,8.99997 C10.2214,8.99997 9.99756,8.77611 9.99756,8.49997 C9.99756,8.25451222 10.1744212,8.0503621 10.4077078,8.00802575 L10.4976,7.99997 L14.4999,7.99997 Z" id="ðŸŽ¨-Color"></path>
        </g>
    </g>
</svg>