<svg width="16" height="16" viewBox="0 0 16 16" fill="none" xmlns="http://www.w3.org/2000/svg">
<path d="M1 3.5C1 3.22386 1.22386 3 1.5 3H14.5C14.7761 3 15 3.22386 15 3.5C15 3.77614 14.7761 4 14.5 4H1.5C1.22386 4 1 3.77614 1 3.5ZM4.14645 6.14645C4.34171 5.95118 4.65829 5.95118 4.85355 6.14645L6.85355 8.14645C7.04882 8.34171 7.04882 8.65829 6.85355 8.85355C6.65829 9.04882 6.34171 9.04882 6.14645 8.85355L5 7.70711V12.5C5 12.7761 4.77614 13 4.5 13C4.22386 13 4 12.7761 4 12.5V7.70711L2.85355 8.85355C2.65829 9.04882 2.34171 9.04882 2.14645 8.85355C1.95118 8.65829 1.95118 8.34171 2.14645 8.14645L4.14645 6.14645ZM14.5 6H8.5C8.22386 6 8 6.22386 8 6.5C8 6.77614 8.22386 7 8.5 7H14.5C14.7761 7 15 6.77614 15 6.5C15 6.22386 14.7761 6 14.5 6Z" fill="#212121"/>
</svg>
