<svg width="32" height="32" viewBox="0 0 32 32" fill="none" xmlns="http://www.w3.org/2000/svg">
<path d="M9 1.5C13.1421 1.5 16.5 4.85786 16.5 9C16.5 13.1421 13.1421 16.5 9 16.5C4.85786 16.5 1.5 13.1421 1.5 9C1.5 4.85786 4.85786 1.5 9 1.5ZM8.28033 12.5303L13.5303 7.28033C13.8232 6.98744 13.8232 6.51256 13.5303 6.21967C13.2374 5.92678 12.7626 5.92678 12.4697 6.21967L7.75 10.9393L5.78033 8.96967C5.48744 8.67678 5.01256 8.67678 4.71967 8.96967C4.42678 9.26256 4.42678 9.73744 4.71967 10.0303L7.21967 12.5303C7.51256 12.8232 7.98744 12.8232 8.28033 12.5303ZM2 14.6573C2.57023 15.362 3.24472 15.9789 4 16.4845V22.75C4 23.4404 4.55964 24 5.25 24H6.12602C6.57006 22.2748 8.13616 21 10 21C11.8638 21 13.4299 22.2748 13.874 24H16.126C16.5701 22.2748 18.1362 21 20 21V6.25C20 5.55964 19.4404 5 18.75 5H17.0645C16.7026 4.27189 16.2451 3.59974 15.7083 3H18.75C20.5449 3 22 4.45507 22 6.25V7H24.5164C25.8165 7 26.9914 7.77479 27.5036 8.96976L29.7372 14.1816C29.9106 14.5861 30 15.0217 30 15.4618V22.75C30 24.5449 28.5449 26 26.75 26H23.874C23.4299 27.7252 21.8638 29 20 29C18.1362 29 16.5701 27.7252 16.126 26H13.874C13.4299 27.7252 11.8638 29 10 29C8.13616 29 6.57006 27.7252 6.12602 26H5.25C3.45507 26 2 24.5449 2 22.75V14.6573ZM23.874 24H26.75C27.4404 24 28 23.4404 28 22.75V22H26C25.4477 22 25 21.5523 25 21C25 20.4477 25.4477 20 26 20H28V16H22V21.5351C22.9168 22.0654 23.6035 22.9492 23.874 24ZM18.2676 24C18.0974 24.2942 18 24.6357 18 25C18 25.3643 18.0974 25.7058 18.2676 26C18.6134 26.5978 19.2597 27 20 27C20.7403 27 21.3866 26.5978 21.7324 26C21.9026 25.7058 22 25.3643 22 25C22 23.8954 21.1046 23 20 23C19.2597 23 18.6134 23.4022 18.2676 24ZM10 27C10.7403 27 11.3866 26.5978 11.7324 26C11.9026 25.7058 12 25.3643 12 25C12 24.6357 11.9026 24.2942 11.7324 24C11.3866 23.4022 10.7403 23 10 23C9.25972 23 8.61337 23.4022 8.26756 24C8.09739 24.2942 8 24.6357 8 25C8 25.3643 8.09739 25.7058 8.26756 26C8.61337 26.5978 9.25972 27 10 27ZM22 14H27.4835L25.6653 9.7576C25.4683 9.298 25.0164 9 24.5164 9H22V14Z" fill="#212121"/>
</svg>
