<svg width="28" height="28" viewBox="0 0 28 28" fill="none" xmlns="http://www.w3.org/2000/svg">
<path d="M13.668 2.96956C13.6093 2.73517 13.667 2.48681 13.8232 2.30241C13.9794 2.118 14.2148 2.02014 14.4557 2.03953C20.6274 2.53631 25.4805 7.70125 25.4805 14.0004C25.4805 20.6279 20.1079 26.0004 13.4805 26.0004C9.04884 26.0004 5.17924 23.5977 3.10176 20.0276C2.98291 19.8233 2.96727 19.575 3.05957 19.3574C3.15187 19.1399 3.3413 18.9786 3.57078 18.9221C5.16953 18.5286 7.12023 17.8985 8.89027 16.9178C10.664 15.9351 12.2013 14.6311 13.0595 12.915C14.7731 9.4882 14.3203 5.57036 13.668 2.96956Z" fill="#212121"/>
</svg>
