<svg width="28" height="28" viewBox="0 0 28 28" fill="none" xmlns="http://www.w3.org/2000/svg">
<path d="M11.075 25H7.72405C7.32185 24.9863 7 24.656 7 24.2504C7 23.8707 7.28215 23.5569 7.64823 23.5073L7.75 23.5004L8.24459 23.5003L8.25 23.5L9.5 23.5V21.002L4.25 21.0018C3.00736 21.0018 2 19.9944 2 18.7518V5.24951C2 4.00687 3.00736 2.99951 4.25 2.99951H23.7488C24.9915 2.99951 25.9988 4.00687 25.9988 5.24951V14.4319C25.4767 14.1561 24.8816 14 24.25 14H14.75C12.6789 14 11 15.6789 11 17.75V24.25C11 24.5068 11.0258 24.7577 11.075 25ZM14.75 15C13.2312 15 12 16.2312 12 17.75V24.25C12 25.7688 13.2312 27 14.75 27H24.25C25.7688 27 27 25.7688 27 24.25V17.75C27 16.2312 25.7688 15 24.25 15H14.75ZM15.5 24.25C15.5 23.8358 15.8358 23.5 16.25 23.5H22.75C23.1642 23.5 23.5 23.8358 23.5 24.25C23.5 24.6642 23.1642 25 22.75 25H16.25C15.8358 25 15.5 24.6642 15.5 24.25ZM15.5 19C14.9477 19 14.5 18.5523 14.5 18C14.5 17.4477 14.9477 17 15.5 17C16.0523 17 16.5 17.4477 16.5 18C16.5 18.5523 16.0523 19 15.5 19ZM18.5 21C18.5 21.5523 18.0523 22 17.5 22C16.9477 22 16.5 21.5523 16.5 21C16.5 20.4477 16.9477 20 17.5 20C18.0523 20 18.5 20.4477 18.5 21ZM19.5 19C18.9477 19 18.5 18.5523 18.5 18C18.5 17.4477 18.9477 17 19.5 17C20.0523 17 20.5 17.4477 20.5 18C20.5 18.5523 20.0523 19 19.5 19ZM22.5 21C22.5 21.5523 22.0523 22 21.5 22C20.9477 22 20.5 21.5523 20.5 21C20.5 20.4477 20.9477 20 21.5 20C22.0523 20 22.5 20.4477 22.5 21ZM23.5 19C22.9477 19 22.5 18.5523 22.5 18C22.5 17.4477 22.9477 17 23.5 17C24.0523 17 24.5 17.4477 24.5 18C24.5 18.5523 24.0523 19 23.5 19Z" fill="#212121"/>
</svg>
