<svg width="16" height="16" viewBox="0 0 16 16" fill="none" xmlns="http://www.w3.org/2000/svg">
<path d="M13.6152 10C13.5163 10.1575 13.4012 10.3058 13.2676 10.4395L10.4395 13.2676C10.306 13.4011 10.1574 13.5154 10 13.6143V11.5C10 10.6716 10.6716 10 11.5 10H13.6152ZM14 4.5C14 3.11929 12.8807 2 11.5 2H4.5C3.11929 2 2 3.11929 2 4.5V11.5C2 12.8807 3.11929 14 4.5 14H8.67188C8.78238 14 8.89165 13.989 9 13.9746V11.5C9 11.4719 9.00213 11.4438 9.00391 11.416C8.69855 11.4672 8.36396 11.5 8 11.5C6.91264 11.5 6.18862 11.2267 5.72266 10.916C5.49224 10.7624 5.33192 10.6041 5.22559 10.4766C5.17259 10.413 5.13245 10.357 5.10449 10.3135C5.08788 10.2876 5.07409 10.245 5.05273 10.2236C4.92938 9.97673 5.02955 9.67626 5.27637 9.55273C5.52087 9.43049 5.85055 9.55266 5.94434 9.77148C5.96188 9.78026 5.98046 9.82067 5.99316 9.83594C6.04302 9.89577 6.13315 9.98783 6.27734 10.084C6.56132 10.2733 7.08764 10.5 8 10.5C8.50282 10.5 8.93264 10.4287 9.29102 10.3301L9.30953 10.297C9.73463 9.52414 10.5556 9 11.5 9H13.9756C13.99 8.89169 14 8.78234 14 8.67188V4.5ZM5.25 5.75C5.25 5.33579 5.58579 5 6 5C6.41421 5 6.75 5.33579 6.75 5.75C6.75 6.16421 6.41421 6.5 6 6.5C5.58579 6.5 5.25 6.16421 5.25 5.75ZM9.25 5.75C9.25 5.33579 9.58579 5 10 5C10.4142 5 10.75 5.33579 10.75 5.75C10.75 6.16421 10.4142 6.5 10 6.5C9.58579 6.5 9.25 6.16421 9.25 5.75ZM9.00391 11.416C9.00391 11.416 9 11.4411 9 11.5Z" fill="#212121"/>
</svg>
