<svg width="32" height="32" viewBox="0 0 32 32" fill="none" xmlns="http://www.w3.org/2000/svg">
<path d="M6 4.5C6 4.22386 6.22386 4 6.5 4H25.5C25.7761 4 26 4.22386 26 4.5C26 4.77614 25.7761 5 25.5 5H6.5C6.22386 5 6 4.77614 6 4.5ZM6 27.5C6 27.2239 6.22386 27 6.5 27H25.5C25.7761 27 26 27.2239 26 27.5C26 27.7761 25.7761 28 25.5 28H6.5C6.22386 28 6 27.7761 6 27.5ZM16.8536 7.14645C16.6583 6.95118 16.3417 6.95118 16.1464 7.14645L12.1464 11.1464C11.9512 11.3417 11.9512 11.6583 12.1464 11.8536C12.3417 12.0488 12.6583 12.0488 12.8536 11.8536L16 8.70711V23.2929L12.3536 19.6464C12.1583 19.4512 11.8417 19.4512 11.6464 19.6464C11.4512 19.8417 11.4512 20.1583 11.6464 20.3536L16.1464 24.8536C16.3417 25.0488 16.6583 25.0488 16.8536 24.8536L21.3536 20.3536C21.5488 20.1583 21.5488 19.8417 21.3536 19.6464C21.1583 19.4512 20.8417 19.4512 20.6464 19.6464L17 23.2929V8.70711L20.1464 11.8536C20.3417 12.0488 20.6583 12.0488 20.8536 11.8536C21.0488 11.6583 21.0488 11.3417 20.8536 11.1464L16.8536 7.14645Z" fill="#212121"/>
</svg>
