<svg width="48" height="48" viewBox="0 0 48 48" fill="none" xmlns="http://www.w3.org/2000/svg">
<path d="M38.75 24C38.0596 24 37.5 23.4403 37.5 22.75V12.2678L20.4717 29.2961C21.4329 30.6163 22 32.2419 22 34C22 38.4183 18.4183 42 14 42C9.58172 42 6 38.4183 6 34C6 29.5817 9.58172 26 14 26C15.7581 26 17.3837 26.5671 18.7039 27.5283L35.7327 10.4996H25.25C24.5596 10.4996 24 9.93993 24 9.24957C24 8.55922 24.5596 7.99957 25.25 7.99957H38.75C39.4404 7.99957 40 8.55922 40 9.24957V22.75C40 23.4403 39.4404 24 38.75 24Z" fill="#212121"/>
</svg>
