<svg width="25" height="24" viewBox="0 0 25 24" fill="none" xmlns="http://www.w3.org/2000/svg">
<path d="M6.41602 11H7.66602C9.73708 11 11.416 9.32107 11.416 7.25V6H15.166C16.9609 6 18.416 7.45507 18.416 9.25V13H17.166C15.0949 13 13.416 14.6789 13.416 16.75V18H9.66602C7.87109 18 6.41602 16.5449 6.41602 14.75V11ZM1.41602 3.75C1.41602 2.23122 2.64723 1 4.16602 1H7.66602C9.1848 1 10.416 2.23122 10.416 3.75V7.25C10.416 8.76878 9.1848 10 7.66602 10H4.16602C2.64723 10 1.41602 8.76878 1.41602 7.25V3.75ZM4.16602 2.5C3.47566 2.5 2.91602 3.05964 2.91602 3.75V7.25C2.91602 7.94036 3.47566 8.5 4.16602 8.5H7.66602C8.35637 8.5 8.91602 7.94036 8.91602 7.25V3.75C8.91602 3.05964 8.35637 2.5 7.66602 2.5H4.16602ZM14.416 16.75C14.416 15.2312 15.6472 14 17.166 14H20.666C22.1848 14 23.416 15.2312 23.416 16.75V20.25C23.416 21.7688 22.1848 23 20.666 23H17.166C15.6472 23 14.416 21.7688 14.416 20.25V16.75ZM17.166 15.5C16.4757 15.5 15.916 16.0596 15.916 16.75V20.25C15.916 20.9404 16.4757 21.5 17.166 21.5H20.666C21.3564 21.5 21.916 20.9404 21.916 20.25V16.75C21.916 16.0596 21.3564 15.5 20.666 15.5H17.166Z" fill="#212121"/>
</svg>
