<svg width="48" height="48" viewBox="0 0 48 48" fill="none" xmlns="http://www.w3.org/2000/svg">
<path d="M21.4989 40.0088C22.3273 40.0088 22.9989 40.6804 22.9989 41.5088C22.9989 42.3372 22.3273 43.0088 21.4989 43.0088C20.6705 43.0088 19.9989 42.3372 19.9989 41.5088C19.9989 40.6804 20.6705 40.0088 21.4989 40.0088ZM30.4989 40.0088C31.3273 40.0088 31.9989 40.6804 31.9989 41.5088C31.9989 42.3372 31.3273 43.0088 30.4989 43.0088C29.6705 43.0088 28.9989 42.3372 28.9989 41.5088C28.9989 40.6804 29.6705 40.0088 30.4989 40.0088ZM16.9989 38.0088C17.8273 38.0088 18.4989 38.6804 18.4989 39.5088C18.4989 40.3372 17.8273 41.0088 16.9989 41.0088C16.1705 41.0088 15.4989 40.3372 15.4989 39.5088C15.4989 38.6804 16.1705 38.0088 16.9989 38.0088ZM25.9989 38.0088C26.8273 38.0088 27.4989 38.6804 27.4989 39.5088C27.4989 40.3372 26.8273 41.0088 25.9989 41.0088C25.1705 41.0088 24.4989 40.3372 24.4989 39.5088C24.4989 38.6804 25.1705 38.0088 25.9989 38.0088ZM34.9989 38.0088C35.8273 38.0088 36.4989 38.6804 36.4989 39.5088C36.4989 40.3372 35.8273 41.0088 34.9989 41.0088C34.1705 41.0088 33.4989 40.3372 33.4989 39.5088C33.4989 38.6804 34.1705 38.0088 34.9989 38.0088ZM25.9989 12.0096C32.336 12.0096 35.9309 16.2042 36.4537 21.2699L36.6136 21.2699C40.6918 21.2699 43.9978 24.5673 43.9978 28.6349C43.9978 32.7026 40.6918 36 36.6136 36H15.3842C11.306 36 8 32.7026 8 28.6349C8 24.5673 11.306 21.2699 15.3842 21.2699L15.5441 21.2699C16.07 16.1709 19.6618 12.0096 25.9989 12.0096ZM25.9989 14.5048C21.7378 14.5048 18.0239 17.9528 18.0239 22.7154C18.0239 23.47 17.3677 24.0622 16.6164 24.0621L15.1958 24.0621C12.6018 24.0621 10.4989 26.1759 10.4989 28.7835C10.4989 31.391 12.6018 33.5048 15.1958 33.5048H36.8019C39.396 33.5048 41.4989 31.391 41.4989 28.7835C41.4989 26.1759 39.396 24.0621 36.802 24.0621L35.3814 24.0621C34.6301 24.0622 33.9739 23.47 33.9739 22.7154C33.9739 17.8917 30.2599 14.5048 25.9989 14.5048ZM13.1779 4.00223C14.768 4.08754 16.3119 4.54577 17.7041 5.34955C19.8143 6.56786 21.3217 8.4292 22.1219 10.5432C21.3476 10.763 20.617 11.05 19.9332 11.3981C19.2928 9.65696 17.8729 8.24245 15.9415 7.13642C15.4923 6.87915 15.0024 6.68316 14.5161 6.54573C14.8802 9.58672 14.7628 11.6544 13.4586 14.1237L13.1911 14.603C11.8961 16.7998 9.98382 18.0999 7.06603 19.4424C7.38785 19.7608 7.87837 20.1354 8.27761 20.417C8.73053 20.7365 9.20063 21.0098 9.68135 21.2346C8.99031 21.7711 8.37618 22.4022 7.85857 23.109L7.54971 22.9374C6.23467 22.1781 5.11833 21.1471 4.26545 19.9087C3.70647 19.0968 4.0681 17.9756 4.99616 17.6435C8.281 16.4678 10.0508 15.1447 11.0631 13.2124C12.1685 11.1022 12.3728 8.86426 11.6388 5.8575C11.4002 4.8795 12.1727 3.9483 13.1779 4.00223Z" fill="#212121"/>
</svg>
