<?xml version="1.0" encoding="UTF-8"?>
<svg width="24px" height="24px" viewBox="0 0 24 24" version="1.1" xmlns="http://www.w3.org/2000/svg" xmlns:xlink="http://www.w3.org/1999/xlink">
    <!-- Generator: Sketch 59.1 (86144) - https://sketch.com -->
    <title>ic_fluent_mail_unsubscribe_24_regular</title>
    <desc>Created with Sketch.</desc>
    <g id="ðŸ”-Product-Icons" stroke="none" stroke-width="1" fill="none" fill-rule="evenodd">
        <g id="ic_fluent_mail_unsubscribe_24_regular" fill="#212121" fill-rule="nonzero">
            <path d="M3.46966991,20.4696699 L20.9696699,2.96966991 C21.2625631,2.6767767 21.7374369,2.6767767 22.0303301,2.96966991 C22.2965966,3.23593648 22.3208027,3.65260016 22.1029482,3.94621165 L22.0303301,4.03033009 L21.0784734,4.98268367 C21.6087095,5.52713158 21.949616,6.25687498 21.9948552,7.06557609 L22,7.25 L22,16.75 C22,18.4830315 20.6435452,19.8992459 18.9344239,19.9948552 L18.75,20 L6.06,20 L4.53033009,21.5303301 C4.26406352,21.7965966 3.84739984,21.8208027 3.55378835,21.6029482 L3.46966991,21.5303301 C3.20340335,21.2640635 3.1791973,20.8473998 3.39705176,20.5537883 L3.46966991,20.4696699 L20.9696699,2.96966991 L3.46966991,20.4696699 Z M17.939,4 L16.439,5.5 L5.25,5.5 C4.3318266,5.5 3.57880766,6.20711027 3.5058012,7.10647279 L3.5,7.25 L3.5,7.679 L10.55,11.389 L9.439,12.5 L3.5,9.374 L3.5,16.75 C3.5,17.2181775 3.68384798,17.6434151 3.98328727,17.9574559 L2.92217518,19.0179821 C2.39156855,18.4734634 2.05040246,17.7434547 2.00514479,16.9344239 L2,16.75 L2,7.25 C2,5.51696854 3.35645477,4.10075407 5.06557609,4.00514479 L5.25,4 L17.939,4 Z M20.5,9.373 L12.45,13.61 L7.56,18.5 L18.75,18.5 C19.6681734,18.5 20.4211923,17.7928897 20.4941988,16.8935272 L20.5,16.75 L20.5,9.373 Z M20.0176814,6.04356078 L16.028,10.032 L20.5,7.678 L20.5,7.25 C20.5,6.78232752 20.3165485,6.35750245 20.0176814,6.04356078 Z" id="ðŸŽ¨-Color"></path>
        </g>
    </g>
</svg>