<?xml version="1.0" encoding="UTF-8"?>
<svg width="24px" height="24px" viewBox="0 0 24 24" version="1.1" xmlns="http://www.w3.org/2000/svg" xmlns:xlink="http://www.w3.org/1999/xlink">
    <!-- Generator: Sketch 59.1 (86144) - https://sketch.com -->
    <title>ic_mail_unsubscribe_24_regular</title>
    <desc>Created with Sketch.</desc>
    <g id="ðŸ”-Product-Icons" stroke="none" stroke-width="1" fill="none" fill-rule="evenodd">
        <g id="ic_mail_unsubscribe_24_regular" fill="#212121">
            <path d="M17.5,12 C20.5375661,12 23,14.4624339 23,17.5 C23,20.5375661 20.5375661,23 17.5,23 C14.4624339,23 12,20.5375661 12,17.5 C12,14.4624339 14.4624339,12 17.5,12 Z M14.7156945,14.5885912 L14.6464466,14.6464466 L14.5885912,14.7156945 C14.4704696,14.8862041 14.4704696,15.1137959 14.5885912,15.2843055 L14.6464466,15.3535534 L16.793,17.5 L14.6464466,19.6464466 L14.5885912,19.7156945 C14.4704696,19.8862041 14.4704696,20.1137959 14.5885912,20.2843055 L14.6464466,20.3535534 L14.7156945,20.4114088 C14.8862041,20.5295304 15.1137959,20.5295304 15.2843055,20.4114088 L15.3535534,20.3535534 L17.5,18.207 L19.6464466,20.3535534 L19.7156945,20.4114088 C19.8862041,20.5295304 20.1137959,20.5295304 20.2843055,20.4114088 L20.3535534,20.3535534 L20.4114088,20.2843055 C20.5295304,20.1137959 20.5295304,19.8862041 20.4114088,19.7156945 L20.3535534,19.6464466 L18.207,17.5 L20.3535534,15.3535534 L20.4114088,15.2843055 C20.5295304,15.1137959 20.5295304,14.8862041 20.4114088,14.7156945 L20.3535534,14.6464466 L20.2843055,14.5885912 C20.1137959,14.4704696 19.8862041,14.4704696 19.7156945,14.5885912 L19.6464466,14.6464466 L17.5,16.793 L15.3535534,14.6464466 L15.2843055,14.5885912 C15.1137959,14.4704696 14.8862041,14.4704696 14.7156945,14.5885912 Z M18.75,2 C20.4830315,2 21.8992459,3.35645477 21.9948552,5.06557609 L22,5.25 L22.0008195,12.8103588 C21.5566422,12.3839565 21.0520148,12.0200482 20.5010736,11.7327703 L20.5,7.373 L12.3493098,11.6636887 C12.1618909,11.7623302 11.9431348,11.7764218 11.7467624,11.7059636 L11.6506902,11.6636887 L3.5,7.374 L3.5,14.75 C3.5,15.6681734 4.20711027,16.4211923 5.10647279,16.4941988 L5.25,16.5 L11.0764338,16.5000929 C11.0261098,16.8260333 11,17.1599675 11,17.5 C11,17.6683488 11.0064,17.8352028 11.0189701,18.000332 L5.25,18 C3.51696854,18 2.10075407,16.6435452 2.00514479,14.9344239 L2,14.75 L2,5.25 C2,3.51696854 3.35645477,2.10075407 5.06557609,2.00514479 L5.25,2 L18.75,2 Z M18.75,3.5 L5.25,3.5 C4.3318266,3.5 3.57880766,4.20711027 3.5058012,5.10647279 L3.5,5.25 L3.5,5.679 L12,10.1524641 L20.5,5.678 L20.5,5.25 C20.5,4.3318266 19.7928897,3.57880766 18.8935272,3.5058012 L18.75,3.5 Z" id="ðŸŽ¨-Color"></path>
        </g>
    </g>
</svg>