<svg width="24" height="24" viewBox="0 0 24 24" fill="none" xmlns="http://www.w3.org/2000/svg">
<path d="M13.2723 2.00399C13.0696 1.99796 12.8731 2.07426 12.7276 2.2155C12.5821 2.35674 12.5 2.55088 12.5 2.75366V10.7499C12.5 11.1642 12.8358 11.4999 13.25 11.4999H21.2463C21.4491 11.4999 21.6432 11.4178 21.7844 11.2723C21.9257 11.1268 22.002 10.9303 21.996 10.7276C21.8545 5.97326 18.0267 2.1455 13.2723 2.00399ZM14 9.99995V3.566C17.3421 4.01119 19.9888 6.65788 20.434 9.99995H14ZM11 4.78369C11 4.57307 10.9114 4.37216 10.756 4.23007C10.6005 4.08799 10.3925 4.01782 10.1827 4.03672C6.53587 4.36535 3.51655 6.86827 2.43132 10.2393C2.75535 10.0858 3.11764 10 3.49999 10C3.70452 10 3.90332 10.0246 4.09359 10.0709C5.04566 7.82896 7.05741 6.14563 9.5 5.64997V13.7501C9.5 14.1643 9.83579 14.5001 10.25 14.5001H18.3501C17.8597 16.9169 16.2065 18.9119 14 19.876V20.5C14 20.8824 13.9141 21.2447 13.7607 21.5688C17.1317 20.4836 19.6347 17.4642 19.9633 13.8174C19.9822 13.6076 19.9121 13.3996 19.77 13.2441C19.6279 13.0886 19.427 13.0001 19.2164 13.0001H11V4.78369ZM8.47403 21.6408C8.21195 21.8647 7.87177 22 7.5 22C6.67157 22 6 21.3284 6 20.5V20.4845C6 20.4845 6 20.4845 6 20.4845L5.99999 18.5903C5.99998 18.5903 5.99999 18.5903 5.99999 18.5903L6 15.5C6 14.6716 6.67157 14 7.5 14C8.32843 14 9 14.6716 9 15.5V20.5C9 20.5113 8.99986 20.5226 8.99961 20.5338C8.98982 20.9768 8.78796 21.3724 8.47403 21.6408ZM11.8394 21.9614C11.7303 21.9867 11.6167 22 11.5 22C11.4514 22 11.4032 21.9977 11.3558 21.9932C10.6426 21.9251 10.075 21.3577 10.0069 20.6445C10.0023 20.5969 9.99999 20.5487 9.99999 20.5V20.434C9.99998 20.434 9.99999 20.434 9.99999 20.434L10 18.5C10 17.6716 10.6716 17 11.5 17C12.3284 17 13 17.6716 13 18.5V20.5C13 20.535 12.9988 20.5698 12.9964 20.6042C12.9508 21.2693 12.4716 21.8152 11.8394 21.9614ZM3.73116 11.0177L3.49999 11Z" fill="#212121"/>
</svg>
