<svg width="20" height="20" viewBox="0 0 20 20" fill="none" xmlns="http://www.w3.org/2000/svg">
<path d="M10.9999 16.6665C11.3681 16.6665 11.6666 16.965 11.6666 17.3332C11.6666 17.7014 11.3681 17.9998 10.9999 17.9998C10.6317 17.9998 10.3332 17.7014 10.3332 17.3332C10.3332 16.965 10.6317 16.6665 10.9999 16.6665ZM8.66655 15.9998C9.03474 15.9998 9.33322 16.2983 9.33322 16.6665C9.33322 17.0347 9.03474 17.3332 8.66655 17.3332C8.29836 17.3332 7.99988 17.0347 7.99988 16.6665C7.99988 16.2983 8.29836 15.9998 8.66655 15.9998ZM13.3332 15.9998C13.7014 15.9998 13.9999 16.2983 13.9999 16.6665C13.9999 17.0347 13.7014 17.3332 13.3332 17.3332C12.965 17.3332 12.6666 17.0347 12.6666 16.6665C12.6666 16.2983 12.965 15.9998 13.3332 15.9998ZM10.9999 5.99983C13.4644 5.99983 14.8626 7.57343 15.0659 9.47382L15.1281 9.47382C16.7141 9.47382 17.9999 10.7109 17.9999 12.2368C17.9999 13.7628 16.7141 14.9998 15.1281 14.9998H6.87168C5.28563 14.9998 3.99988 13.7628 3.99988 12.2368C3.99988 10.7109 5.28563 9.47382 6.8717 9.47382L6.93388 9.47382C7.1384 7.56094 8.53532 5.99983 10.9999 5.99983ZM3.80311 8.70064C3.88302 8.93273 3.78225 9.18334 3.57549 9.29931L3.49313 9.33619L2.69173 9.61213C2.43063 9.70204 2.14609 9.56325 2.05619 9.30216C1.97627 9.07007 2.07705 8.81946 2.2838 8.70349L2.36616 8.66661L3.16757 8.39067C3.42866 8.30076 3.71321 8.43954 3.80311 8.70064ZM8.91916 4.50006C9.25129 4.66205 9.54379 4.8727 9.79229 5.11924C8.03029 5.48378 6.76274 6.65312 6.24936 8.27599L6.18405 8.50007L6.13777 8.687L5.97249 8.71723C5.52056 8.8103 5.09827 8.98355 4.72195 9.22129C4.12388 8.29047 4.01224 7.07823 4.53311 6.0103C5.32724 4.38208 7.29095 3.70593 8.91916 4.50006ZM2.9157 4.6696L3.00001 4.70176L3.76181 5.07331C4.01001 5.19436 4.11308 5.4937 3.99203 5.74189C3.88442 5.96251 3.63596 6.06846 3.40775 6.00426L3.32344 5.97211L2.56164 5.60055C2.31345 5.4795 2.21038 5.18016 2.33143 4.93197C2.43903 4.71135 2.6875 4.6054 2.9157 4.6696ZM9.98906 2.29523C10.2097 2.40284 10.3156 2.6513 10.2514 2.87951L10.2193 2.96382L9.84771 3.72562C9.72666 3.97381 9.42732 4.07688 9.17913 3.95583C8.95851 3.84823 8.85256 3.59976 8.91676 3.37156L8.94892 3.28725L9.32047 2.52545C9.44153 2.27725 9.74086 2.17418 9.98906 2.29523ZM6.19919 2.26281L6.23607 2.34516L6.51201 3.14657C6.60192 3.40767 6.46313 3.69221 6.20204 3.78211C5.96995 3.86203 5.71934 3.76125 5.60337 3.55449L5.56649 3.47214L5.29055 2.67073C5.20064 2.40963 5.33942 2.12509 5.60052 2.03519C5.83261 1.95528 6.08322 2.05605 6.19919 2.26281Z" fill="#212121"/>
</svg>
