<svg width="48" height="48" viewBox="0 0 48 48" fill="none" xmlns="http://www.w3.org/2000/svg">
<path d="M26 40.0314C27.1046 40.0314 28 40.9268 28 42.0314C28 43.1359 27.1046 44.0314 26 44.0314C24.8955 44.0314 24 43.1359 24 42.0314C24 40.9268 24.8955 40.0314 26 40.0314ZM19 38.0314C20.1046 38.0314 21 38.9268 21 40.0314C21 41.1359 20.1046 42.0314 19 42.0314C17.8955 42.0314 17 41.1359 17 40.0314C17 38.9268 17.8955 38.0314 19 38.0314ZM33 38.0314C34.1046 38.0314 35 38.9268 35 40.0314C35 41.1359 34.1046 42.0314 33 42.0314C31.8955 42.0314 31 41.1359 31 40.0314C31 38.9268 31.8955 38.0314 33 38.0314ZM25.9989 12.0097C32.336 12.0097 35.9309 16.2043 36.4537 21.2699L36.6137 21.2699C40.6918 21.2699 43.9978 24.5674 43.9978 28.635C43.9978 32.7026 40.6918 36 36.6137 36H15.3842C11.3061 36 8.00005 32.7026 8.00005 28.635C8.00005 24.5674 11.306 21.2699 15.3843 21.2699L15.5441 21.2699C16.07 16.171 19.6619 12.0097 25.9989 12.0097ZM25.9989 14.5049C21.7379 14.5049 18.0239 17.9528 18.0239 22.7154C18.0239 23.4701 17.3678 24.0622 16.6165 24.0622L15.1959 24.0621C12.6018 24.0621 10.4989 26.176 10.4989 28.7835C10.4989 31.391 12.6018 33.5049 15.1959 33.5049H36.802C39.3961 33.5049 41.499 31.391 41.499 28.7835C41.499 26.176 39.3961 24.0621 36.802 24.0621L35.3814 24.0622C34.6301 24.0622 33.974 23.4701 33.974 22.7154C33.974 17.8917 30.26 14.5049 25.9989 14.5049ZM8.7085 20.3034C8.95489 20.8983 8.70547 21.5748 8.15051 21.8736L8.0355 21.9282L5.72402 22.89C5.08951 23.1528 4.36208 22.8515 4.09926 22.217C3.85286 21.6221 4.10229 20.9456 4.65725 20.6468L4.77226 20.5922L7.08374 19.6304C7.71824 19.3676 8.44567 19.6689 8.7085 20.3034ZM21.7084 10.6621L21.6474 10.6817C20.7227 10.9836 19.8633 11.3837 19.0765 11.8718C17.7683 11.3184 16.247 11.2694 14.8304 11.8561C12.0241 13.0186 10.6914 16.2359 11.8539 19.0422C11.9674 19.3163 12.1005 19.5762 12.2509 19.8212C11.4921 20.0923 10.7786 20.4596 10.1247 20.9082C9.94802 20.6053 9.79 20.287 9.65215 19.9542C7.98606 15.9319 9.89615 11.3205 13.9185 9.65443C16.6029 8.54248 19.5498 9.02344 21.7084 10.6621ZM5.58029 10.842L5.70728 10.8877L8.02609 11.8766C8.65588 12.1427 8.95797 12.872 8.70081 13.5055C8.46079 14.0968 7.81845 14.3956 7.22182 14.2165L7.09483 14.1707L4.77602 13.1819C4.14623 12.9158 3.84414 12.1865 4.1013 11.553C4.34132 10.9617 4.98366 10.6628 5.58029 10.842ZM12.9487 4.66832L13.0035 4.78393L13.964 7.08985C14.2282 7.72766 13.9253 8.45887 13.2875 8.72306C12.6895 8.97073 12.0095 8.72001 11.7091 8.16217L11.6543 8.04656L10.6938 5.74064C10.4296 5.10283 10.7325 4.37162 11.3703 4.10744C11.9683 3.85976 12.6483 4.11048 12.9487 4.66832ZM21.997 4.10823C22.5987 4.35747 22.9055 5.01794 22.7266 5.62907L22.6808 5.7591L21.6895 8.03479C21.4224 8.6795 20.6833 8.98565 20.0386 8.71861C19.4369 8.46936 19.1301 7.80889 19.3089 7.19777L19.3548 7.06773L20.3461 4.79204C20.6132 4.14734 21.3523 3.84118 21.997 4.10823Z" fill="#212121"/>
</svg>
