<?xml version="1.0" encoding="UTF-8"?>
<svg width="48px" height="48px" viewBox="0 0 48 48" version="1.1" xmlns="http://www.w3.org/2000/svg" xmlns:xlink="http://www.w3.org/1999/xlink">
    <!-- Generator: Sketch 64 (93537) - https://sketch.com -->
    <title>ic_fluent_weather_hail_day_48_filled</title>
    <desc>Created with Sketch.</desc>
    <g id="ðŸ”-System-Icons" stroke="none" stroke-width="1" fill="none" fill-rule="evenodd">
        <g id="ic_fluent_weather_hail_day_48_filled" fill="#212121" fill-rule="nonzero">
            <path d="M26,40 C27.1045695,40 28,40.8954305 28,42 C28,43.1045695 27.1045695,44 26,44 C24.8954305,44 24,43.1045695 24,42 C24,40.8954305 24.8954305,40 26,40 Z M19,38 C20.1045695,38 21,38.8954305 21,40 C21,41.1045695 20.1045695,42 19,42 C17.8954305,42 17,41.1045695 17,40 C17,38.8954305 17.8954305,38 19,38 Z M33,38 C34.1045695,38 35,38.8954305 35,40 C35,41.1045695 34.1045695,42 33,42 C31.8954305,42 31,41.1045695 31,40 C31,38.8954305 31.8954305,38 33,38 Z M25.9988918,12.0096412 C32.335954,12.0096412 35.9308615,16.204222 36.4536905,21.2698939 L36.6136229,21.2698888 C40.6917823,21.2698888 43.9977837,24.5673365 43.9977837,28.6349444 C43.9977837,32.7025523 40.6917823,36 36.6136229,36 L15.3841608,36 C11.3060014,36 8,32.7025523 8,28.6349444 C8,24.5673365 11.3060014,21.2698888 15.3842058,21.2698888 L15.5440932,21.2698939 C16.0699636,16.1709267 19.6618297,12.0096412 25.9988918,12.0096412 Z M7.56789508,20.1905229 C8.02271781,20.9782989 7.79543725,21.9727097 7.06930216,22.4898612 L6.92735062,22.5810673 L5.62831251,23.3310673 C4.79130042,23.8143165 3.72101721,23.527535 3.23776806,22.6905229 C2.78294532,21.9027468 3.01022589,20.9083361 3.73636097,20.3911845 L3.87831251,20.2999784 L5.17735062,19.5499784 C6.01436271,19.0667292 7.08464592,19.3535108 7.56789508,20.1905229 Z M21.7083287,10.6620508 C17.9069364,11.8817584 15.1995187,14.7532957 14.0878578,18.5839775 L13.993924,18.9244503 L13.8785257,19.4001055 L13.4663574,19.4770233 C12.249111,19.7328127 11.118108,20.2266115 10.1246453,20.90811 C9.94796683,20.6053032 9.7899557,20.2869652 9.65210654,19.9541678 C7.98600939,15.9318535 9.89610082,11.3204849 13.9184152,9.65438772 C16.6028947,8.5424399 19.5497498,9.02339234 21.7083287,10.6620508 Z M5.50398211,9.97894695 L5.63651363,10.0343465 L6.99597531,10.6682739 C7.87192026,11.0767337 8.25089182,12.1179495 7.84243198,12.9938945 C7.45439514,13.8260422 6.49529603,14.2096714 5.64934292,13.8957507 L5.5168114,13.8403511 L4.15734972,13.2064237 C3.28140477,12.7979639 2.90243321,11.7567481 3.31089305,10.8808032 C3.69892989,10.0486555 4.658029,9.66502625 5.50398211,9.97894695 Z M24.6146625,4.21691821 C25.3667861,4.74356083 25.5780413,5.75470558 25.1219915,6.53329501 L25.0444198,6.65419305 L24.1840551,7.88292112 C23.6296945,8.67463018 22.5384893,8.86703909 21.7467803,8.31267843 C20.9946567,7.7860358 20.7834014,6.77489106 21.2394512,5.99630163 L21.317023,5.87540359 L22.1773876,4.64667552 C22.7317483,3.85496645 23.8229534,3.66255755 24.6146625,4.21691821 Z M14.3227762,3.79757764 L14.387947,3.95321039 L14.9009772,5.36274932 C15.2315391,6.27096065 14.7632617,7.27518477 13.8550504,7.60574666 C13.0002632,7.91686373 12.0604267,7.52035846 11.6772238,6.71545257 L11.612053,6.55981982 L11.0990228,5.15028089 C10.7684609,4.24206956 11.2367383,3.23784545 12.1449496,2.90728356 C12.9997368,2.59616648 13.9395733,2.99267175 14.3227762,3.79757764 Z" id="ðŸŽ¨-Color"></path>
        </g>
    </g>
</svg>