<svg width="20" height="20" viewBox="0 0 20 20" fill="none" xmlns="http://www.w3.org/2000/svg">
<path d="M15.8092 1.54776L10.9798 6.37719C10.6982 6.65876 10.4984 7.01157 10.4018 7.39789L10.0274 8.89579C9.86451 9.5472 10.4546 10.1372 11.106 9.9744L12.6039 9.59992C12.9902 9.50334 13.343 9.30358 13.6246 9.02201L18.454 4.19258C19.1843 3.46223 19.1843 2.27811 18.454 1.54776C17.7237 0.817413 16.5395 0.817413 15.8092 1.54776ZM12.9427 3L13.7834 2.15926C13.5428 2.05673 13.278 2 13 2H7C5.89543 2 5 2.89543 5 4V16C5 17.1046 5.89543 18 7 18H13C14.1046 18 15 17.1046 15 16V9.06073L14.3316 9.72911C14.2275 9.83326 14.1166 9.92971 14 10.018V16C14 16.5523 13.5523 17 13 17H7C6.44772 17 6 16.5523 6 16V4C6 3.44772 6.44772 3 7 3H12.9427ZM9 14C8.72386 14 8.5 14.2239 8.5 14.5C8.5 14.7761 8.72386 15 9 15H11C11.2761 15 11.5 14.7761 11.5 14.5C11.5 14.2239 11.2761 14 11 14H9Z" fill="#212121"/>
</svg>
