<svg width="24" height="24" viewBox="0 0 24 24" fill="none" xmlns="http://www.w3.org/2000/svg">
<path d="M17.7543 13.9999C18.9624 13.9999 19.948 14.9525 20.0009 16.1475L20.0001 16.25L12.0037 16.2499V17.249L19.9789 17.2502C19.9181 17.7818 19.7443 18.2935 19.4702 18.7512L12.0037 18.749V19.7499L18.6422 19.751C17.0813 21.2569 14.8525 22.0011 12.0001 22.0011C8.85426 22.0011 6.46825 21.0959 4.90194 19.2617C4.32218 18.5827 4.00366 17.7193 4.00366 16.8265V16.2488C4.00366 15.0068 5.01052 13.9999 6.25254 13.9999H17.7543ZM12.0001 2C13.6359 2 15.0881 2.78547 16.0003 3.99981L12.0031 4L12.0027 4.999L16.5843 5.00046C16.7883 5.46754 16.923 5.97182 16.9755 6.5003L12.0027 6.499V7.499L16.9755 7.5007C16.9228 8.02919 16.788 8.53347 16.5838 9.00053L12.0027 8.999L12.0031 10L15.9996 10.0012C15.0873 11.215 13.6354 12 12.0001 12C9.2387 12 7.00012 9.76142 7.00012 7C7.00012 4.23858 9.2387 2 12.0001 2Z" fill="#212121"/>
</svg>
