<svg width="20" height="20" viewBox="0 0 20 20" fill="none" xmlns="http://www.w3.org/2000/svg">
<path d="M5.35355 0.646447C5.15829 0.451184 4.84171 0.451184 4.64645 0.646447C4.45118 0.841709 4.45118 1.15829 4.64645 1.35355L5.64645 2.35355C5.74021 2.44732 5.86739 2.5 6 2.5C6.13261 2.5 6.25979 2.44732 6.35355 2.35355L7.35355 1.35355C7.54882 1.15829 7.54882 0.841709 7.35355 0.646447C7.15829 0.451184 6.84171 0.451184 6.64645 0.646447L6 1.29289L5.35355 0.646447ZM4 3C3.72386 3 3.5 3.22386 3.5 3.5C3.5 3.77614 3.72386 4 4 4H6.95969L3.60957 8.18765C3.4895 8.33774 3.46609 8.54336 3.54935 8.71659C3.63261 8.88983 3.8078 9 4 9H8C8.27614 9 8.5 8.77614 8.5 8.5C8.5 8.22386 8.27614 8 8 8H5.04031L8.39043 3.81235C8.5105 3.66226 8.53391 3.45664 8.45065 3.28341C8.36739 3.11017 8.1922 3 8 3H4ZM6.46167 11.3077C6.38403 11.1214 6.20198 11 6.00013 11C5.79828 11 5.61623 11.1214 5.53859 11.3077L3.03859 17.3077C2.93238 17.5626 3.05292 17.8553 3.30782 17.9615C3.56272 18.0677 3.85546 17.9472 3.96167 17.6923L4.45915 16.4983C4.47267 16.4994 4.48633 16.5 4.50013 16.5H7.50013C7.51393 16.5 7.52759 16.4994 7.54111 16.4983L8.03859 17.6923C8.1448 17.9472 8.43754 18.0677 8.69244 17.9615C8.94734 17.8553 9.06788 17.5626 8.96167 17.3077L6.46167 11.3077ZM7.12513 15.5H4.87513L6.00013 12.8L7.12513 15.5ZM14.5 2C14.7761 2 15 2.22386 15 2.5V16.2929L17.1464 14.1464C17.3417 13.9512 17.6583 13.9512 17.8536 14.1464C18.0488 14.3417 18.0488 14.6583 17.8536 14.8536L14.8536 17.8536C14.6583 18.0488 14.3417 18.0488 14.1464 17.8536L11.1464 14.8536C10.9512 14.6583 10.9512 14.3417 11.1464 14.1464C11.3417 13.9512 11.6583 13.9512 11.8536 14.1464L14 16.2929V2.5C14 2.22386 14.2239 2 14.5 2Z" fill="#212121"/>
</svg>
