<svg width="24" height="24" viewBox="0 0 24 24" fill="none" xmlns="http://www.w3.org/2000/svg">
<path d="M8.75 4C9.7165 4 10.5 4.7835 10.5 5.75L10.5 9.4153L14.9621 4.56516C15.6165 3.85388 16.7236 3.80776 17.4349 4.46213C18.1461 5.1165 18.1923 6.22358 17.5379 6.93486L12.8779 12L17.5379 17.0652C18.1922 17.7764 18.1461 18.8835 17.4348 19.5379C16.7236 20.1923 15.6165 20.1461 14.9621 19.4349L10.5 14.5847L10.5 18.25C10.5 19.2165 9.7165 20 8.75 20C7.7835 20 7 19.2165 7 18.25V5.75C7 4.7835 7.7835 4 8.75 4Z" fill="#212121"/>
</svg>
