<svg width="20" height="20" viewBox="0 0 20 20" fill="none" xmlns="http://www.w3.org/2000/svg">
<path d="M6.6925 2.46154C6.57605 2.18205 6.30297 2 6.0002 2C5.69742 2 5.42434 2.18205 5.30789 2.46154L2.80789 8.46154C2.64858 8.84389 2.82938 9.28299 3.21173 9.44231C3.59409 9.60162 4.03319 9.42081 4.1925 9.03846L4.6252 8H7.3752L7.80789 9.03846C7.9672 9.42081 8.40631 9.60162 8.78866 9.44231C9.17101 9.28299 9.35182 8.84389 9.1925 8.46154L6.6925 2.46154ZM6.7502 6.5H5.2502L6.0002 4.7L6.7502 6.5ZM5.53033 10.2197C5.23744 9.92678 4.76256 9.92678 4.46967 10.2197C4.17678 10.5126 4.17678 10.9874 4.46967 11.2803L5.46967 12.2803C5.76256 12.5732 6.23744 12.5732 6.53033 12.2803L7.53033 11.2803C7.82322 10.9874 7.82322 10.5126 7.53033 10.2197C7.23744 9.92678 6.76256 9.92678 6.46967 10.2197L6 10.6893L5.53033 10.2197ZM4.25 13C3.83579 13 3.5 13.3358 3.5 13.75C3.5 14.1642 3.83579 14.5 4.25 14.5H6.21652L3.65799 17.7895C3.48212 18.0157 3.45041 18.3222 3.57626 18.5795C3.70212 18.8368 3.96355 19 4.25 19H7.75C8.16421 19 8.5 18.6642 8.5 18.25C8.5 17.8358 8.16421 17.5 7.75 17.5H5.78348L8.34201 14.2105C8.51788 13.9843 8.54959 13.6778 8.42374 13.4205C8.29788 13.1632 8.03645 13 7.75 13H4.25ZM14.25 2C14.6642 2 15 2.33579 15 2.75V15.3219L16.4471 13.7432C16.727 13.4379 17.2015 13.4172 17.5068 13.6971C17.8121 13.977 17.8328 14.4515 17.5529 14.7568L14.8029 17.7568C14.6608 17.9118 14.4602 18 14.25 18C14.0398 18 13.8392 17.9118 13.6971 17.7568L10.9471 14.7568C10.6672 14.4515 10.6879 13.977 10.9932 13.6971C11.2985 13.4172 11.773 13.4379 12.0529 13.7432L13.5 15.3219V2.75C13.5 2.33579 13.8358 2 14.25 2Z" fill="#212121"/>
</svg>
