<svg width="28" height="28" viewBox="0 0 28 28" fill="none" xmlns="http://www.w3.org/2000/svg">
<path d="M6.75 3C4.67893 3 3 4.67893 3 6.75V21.25C3 23.3211 4.67893 25 6.75 25H21.25C23.3211 25 25 23.3211 25 21.25V6.75C25 4.67893 23.3211 3 21.25 3H6.75ZM8.75 13H15.25C15.6642 13 16 13.3358 16 13.75C16 14.1642 15.6642 14.5 15.25 14.5H8.75C8.33579 14.5 8 14.1642 8 13.75C8 13.3358 8.33579 13 8.75 13ZM8 8.75C8 8.33579 8.33579 8 8.75 8H19.25C19.6642 8 20 8.33579 20 8.75C20 9.16421 19.6642 9.5 19.25 9.5H8.75C8.33579 9.5 8 9.16421 8 8.75ZM8.75 18H19.25C19.6642 18 20 18.3358 20 18.75C20 19.1642 19.6642 19.5 19.25 19.5H8.75C8.33579 19.5 8 19.1642 8 18.75C8 18.3358 8.33579 18 8.75 18Z" fill="#212121"/>
</svg>
