<svg width="48" height="48" viewBox="0 0 48 48" fill="none" xmlns="http://www.w3.org/2000/svg">
<path d="M6.99805 5.5C6.99805 4.67157 7.66962 4 8.49805 4C9.32647 4 9.99804 4.67157 9.99804 5.5V16.9849L17.8993 8.9227C23.4712 2.62347 32.8494 2.76198 37.8287 8.2524C42.8297 13.7666 41.2054 21.5619 37.8574 25.4751L37.8485 25.4855L35.5903 28.0291L33.0533 30.5661L28.8061 34.7265L20.5643 43.0551L20.5588 43.0606L20.0625 43.5569C19.4768 44.1427 18.527 44.1427 17.9412 43.5569C17.3554 42.9711 17.3554 42.0213 17.9412 41.4355L18.4319 40.9449L18.4375 40.9393L26.6901 32.5997L30.943 28.4337L33.406 25.9708L35.5864 23.5148C38.2212 20.425 39.3281 14.3713 35.6065 10.2678C31.8676 6.14511 24.5559 5.89718 20.1244 10.9352L20.0977 10.9655L12.2237 19H23.498C24.3265 19 24.998 19.6716 24.998 20.5C24.998 21.3284 24.3265 22 23.498 22H8.49805C7.66962 22 6.99805 21.3284 6.99805 20.5V5.5Z" fill="#212121"/>
</svg>
