<svg width="20" height="20" viewBox="0 0 20 20" fill="none" xmlns="http://www.w3.org/2000/svg">
<path d="M4.5 3C3.67157 3 3 3.67157 3 4.5V6.5C3 6.77614 2.77614 7 2.5 7C2.22386 7 2 6.77614 2 6.5V4.5C2 3.11929 3.11929 2 4.5 2H6.5C6.77614 2 7 2.22386 7 2.5C7 2.77614 6.77614 3 6.5 3H4.5ZM4.5 17C3.67157 17 3 16.3284 3 15.5V13.5C3 13.2239 2.77614 13 2.5 13C2.22386 13 2 13.2239 2 13.5V15.5C2 16.8807 3.11929 18 4.5 18H6.5C6.77614 18 7 17.7761 7 17.5C7 17.2239 6.77614 17 6.5 17H4.5ZM17 4.5C17 3.67157 16.3284 3 15.5 3H13.5C13.2239 3 13 2.77614 13 2.5C13 2.22386 13.2239 2 13.5 2H15.5C16.8807 2 18 3.11929 18 4.5V6.5C18 6.77614 17.7761 7 17.5 7C17.2239 7 17 6.77614 17 6.5V4.5ZM6 6.5C6 6.22386 6.22386 6 6.5 6H13.5C13.7761 6 14 6.22386 14 6.5V7.5C14 7.77614 13.7761 8 13.5 8C13.2239 8 13 7.77614 13 7.5V7H10.5V13H10.5997C10.4378 13.3168 10.3056 13.6514 10.207 14H9C8.72386 14 8.5 13.7761 8.5 13.5C8.5 13.2239 8.72386 13 9 13H9.5V7H7V7.5C7 7.77614 6.77614 8 6.5 8C6.22386 8 6 7.77614 6 7.5V6.5ZM20 15.5C20 17.9853 17.9853 20 15.5 20C13.0147 20 11 17.9853 11 15.5C11 13.0147 13.0147 11 15.5 11C17.9853 11 20 13.0147 20 15.5ZM14.5 16.2929L13.8536 15.6464C13.6583 15.4512 13.3417 15.4512 13.1464 15.6464C12.9512 15.8417 12.9512 16.1583 13.1464 16.3536L14.1464 17.3536C14.3417 17.5488 14.6583 17.5488 14.8536 17.3536L17.8536 14.3536C18.0488 14.1583 18.0488 13.8417 17.8536 13.6464C17.6583 13.4512 17.3417 13.4512 17.1464 13.6464L14.5 16.2929Z" fill="#212121"/>
</svg>
