<svg width="20" height="20" viewBox="0 0 20 20" fill="none" xmlns="http://www.w3.org/2000/svg">
<path d="M3.5 5.49738C3.5 4.94384 3.94873 4.49512 4.50226 4.49512C4.84959 4.49512 5.15611 4.67116 5.33705 4.94238C5.56693 5.28694 6.03262 5.37991 6.37718 5.15003C6.72175 4.92015 6.81472 4.45447 6.58484 4.1099C6.13751 3.4394 5.37193 2.99512 4.50226 2.99512C3.1203 2.99512 2 4.11542 2 5.49738C2 6.87934 3.1203 7.99964 4.50226 7.99964C4.51809 7.99964 4.53381 7.99915 4.54939 7.99818C4.56499 7.99915 4.58072 7.99964 4.59656 7.99964H15.2738C15.688 7.99964 16.0238 7.66386 16.0238 7.24964C16.0238 6.83543 15.688 6.49964 15.2738 6.49964H4.59656C4.58073 6.49964 4.56501 6.50013 4.54942 6.5011C4.53383 6.50013 4.5181 6.49964 4.50226 6.49964C3.94873 6.49964 3.5 6.05091 3.5 5.49738ZM9.74768 3.99964C9.33347 3.99964 8.99768 4.33543 8.99768 4.74964C8.99768 5.16386 9.33347 5.49964 9.74768 5.49964H17.2483C17.6625 5.49964 17.9983 5.16386 17.9983 4.74964C17.9983 4.33543 17.6625 3.99964 17.2483 3.99964H9.74768ZM5.75 8.99964C5.33579 8.99964 5 9.33543 5 9.74964C5 10.1639 5.33579 10.4996 5.75 10.4996H17.25C17.6642 10.4996 18 10.1639 18 9.74964C18 9.33543 17.6642 8.99964 17.25 8.99964H5.75ZM2 12.2507C2 11.8365 2.33579 11.5007 2.75 11.5007H15.25C15.6642 11.5007 16 11.8365 16 12.2507C16 12.6649 15.6642 13.0007 15.25 13.0007H2.75C2.33579 13.0007 2 12.6649 2 12.2507ZM5.75 13.9996C5.33579 13.9996 5 14.3354 5 14.7496C5 15.1639 5.33579 15.4996 5.75 15.4996H17.2483C17.6625 15.4996 17.9983 15.1639 17.9983 14.7496C17.9983 14.3354 17.6625 13.9996 17.2483 13.9996H5.75Z" fill="#212121"/>
</svg>
