<svg width="24" height="24" viewBox="0 0 24 24" fill="none" xmlns="http://www.w3.org/2000/svg">
<path d="M12 7C12 9.20914 10.2091 11 8 11C5.79086 11 4 9.20914 4 7C4 4.79086 5.79086 3 8 3C10.2091 3 12 4.79086 12 7ZM20 8C20 9.65685 18.6569 11 17 11C15.3431 11 14 9.65685 14 8C14 6.34315 15.3431 5 17 5C18.6569 5 20 6.34315 20 8ZM2 15.25C2 14.0074 3.00736 13 4.25 13H11.75C12.0663 13 12.3674 13.0653 12.6405 13.1831C11.6199 14.3311 11 15.8431 11 17.5C11 18.1564 11.0973 18.7901 11.2783 19.3875C10.4578 19.7585 9.38985 20 8 20C2 20 2 15.5 2 15.5V15.25ZM17.5 12C20.5376 12 23 14.4624 23 17.5C23 20.5376 20.5376 23 17.5 23C14.4624 23 12 20.5376 12 17.5C12 14.4624 14.4624 12 17.5 12ZM20.4966 18C20.7725 18 20.9961 17.7762 20.9961 17.5C20.9961 17.2239 20.7725 17 20.4966 17H14.4956C14.2197 17 13.9961 17.2239 13.9961 17.5C13.9961 17.7762 14.2197 18 14.4956 18H20.4966Z" fill="#212121"/>
</svg>
