<svg width="16" height="16" viewBox="0 0 16 16" fill="none" xmlns="http://www.w3.org/2000/svg">
<path d="M8 13C5.23858 13 3 10.7614 3 8C3 5.23858 5.23858 3 8 3C10.7614 3 13 5.23858 13 8C13 10.7614 10.7614 13 8 13ZM2 8C2 11.3137 4.68629 14 8 14C11.3137 14 14 11.3137 14 8C14 4.68629 11.3137 2 8 2C4.68629 2 2 4.68629 2 8ZM8.64645 5.14645L6.14645 7.64645C5.95118 7.84171 5.95118 8.15829 6.14645 8.35355L8.64645 10.8536C8.84171 11.0488 9.15829 11.0488 9.35355 10.8536C9.54882 10.6583 9.54882 10.3417 9.35355 10.1464L7.20711 8L9.35355 5.85355C9.54882 5.65829 9.54882 5.34171 9.35355 5.14645C9.15829 4.95118 8.84171 4.95118 8.64645 5.14645Z" fill="#212121"/>
</svg>
