<svg width="16" height="16" viewBox="0 0 16 16" fill="none" xmlns="http://www.w3.org/2000/svg">
<path d="M8.75 10.75C8.75 10.3358 8.41421 10 8 10C7.58579 10 7.25 10.3358 7.25 10.75C7.25 11.1642 7.58579 11.5 8 11.5C8.41421 11.5 8.75 11.1642 8.75 10.75ZM8.49194 4.91012C8.44961 4.67688 8.24546 4.5 8 4.5C7.72386 4.5 7.5 4.72386 7.5 5V8.5L7.50806 8.58988C7.55039 8.82312 7.75454 9 8 9C8.27614 9 8.5 8.77614 8.5 8.5V5L8.49194 4.91012ZM8.00001 2C4.68631 2 2.00001 4.68629 2.00001 8C2.00001 9.03957 2.2648 10.0186 2.73086 10.872L2.01925 13.3626C1.9683 13.541 2.02025 13.7329 2.15422 13.8612C2.2882 13.9894 2.48217 14.033 2.65813 13.9743L4.99618 13.195C5.87989 13.707 6.90639 14 8.00001 14C11.3137 14 14 11.3137 14 8C14 4.68629 11.3137 2 8.00001 2ZM3.00001 8C3.00001 5.23858 5.23859 3 8.00001 3C10.7614 3 13 5.23858 13 8C13 10.7614 10.7614 13 8.00001 13C7.01533 13 6.09854 12.7159 5.32536 12.2253C5.19843 12.1448 5.04199 12.1256 4.89938 12.1732L3.24119 12.7259L3.75014 10.9446C3.78797 10.8122 3.76952 10.67 3.69913 10.5517C3.25513 9.80506 3.00001 8.93308 3.00001 8Z" fill="#212121"/>
</svg>
