<svg width="24" height="24" viewBox="0 0 24 24" fill="none" xmlns="http://www.w3.org/2000/svg">
<path d="M15.5 3.75C15.5 3.33579 15.1642 3 14.75 3H6.25C4.45508 3 3 4.45507 3 6.25V17.75C3 19.5449 4.45508 21 6.25 21H14.75C15.1642 21 15.5 20.6642 15.5 20.25V3.75ZM14 10V14H10V10H14ZM4.5 14V10H8.5V14H4.5ZM14 8.5H10V4.5H14V8.5ZM8.5 8.5H4.5V6.25C4.5 5.2835 5.2835 4.5 6.25 4.5H8.5V8.5ZM8.5 19.5H6.25C5.2835 19.5 4.5 18.7165 4.5 17.75V15.5H8.5V19.5ZM10 15.5H14V19.5H10V15.5Z" fill="#212121"/>
<path d="M19.5 3.75C19.5 3.33579 19.8358 3 20.25 3C20.6642 3 21 3.33579 21 3.75V20.25C21 20.6642 20.6642 21 20.25 21C19.8358 21 19.5 20.6642 19.5 20.25V3.75Z" fill="#212121"/>
</svg>
