<svg width="48" height="48" viewBox="0 0 48 48" fill="none" xmlns="http://www.w3.org/2000/svg">
<path d="M26.4947 6C25.3676 6 24.2866 6.44774 23.4896 7.24472L7.24877 23.4848C5.58898 25.1445 5.58895 27.8355 7.2487 29.4953L18.5061 40.7526C18.6631 40.9097 18.8295 41.0519 19.0033 41.1793C18.9876 40.7954 19.0278 40.3985 19.1319 39.9968L19.5754 38.2864L9.01647 27.7275C8.33304 27.0441 8.33305 25.936 9.0165 25.2526L25.2573 9.01253C25.5855 8.68436 26.0306 8.5 26.4947 8.5H37.7521C38.7186 8.5 39.5021 9.2835 39.5021 10.25V19.0212C40.3698 19.0908 41.2254 19.349 42.0021 19.7961V10.25C42.0021 7.90279 40.0994 6 37.7521 6H26.4947ZM33.5 17C34.8807 17 36 15.8807 36 14.5C36 13.1193 34.8807 12 33.5 12C32.1193 12 31 13.1193 31 14.5C31 15.8807 32.1193 17 33.5 17ZM41.834 22.1679C40.2708 20.6048 37.7334 20.6146 36.1823 22.1899L22.6706 35.9127C22.3009 36.2881 22.0367 36.7543 21.9045 37.2643L21.066 40.4987C20.6833 41.9747 22.0273 43.3187 23.5033 42.936L26.7376 42.0974C27.2476 41.9652 27.7138 41.701 28.0892 41.3313L41.8121 27.8196C43.3874 26.2686 43.3972 23.7311 41.834 22.1679Z" fill="#212121"/>
</svg>
