<svg width="20" height="20" viewBox="0 0 20 20" fill="none" xmlns="http://www.w3.org/2000/svg">
<path d="M10 6.5V2H5.5C4.67157 2 4 2.67157 4 3.5V11H9.5C10.3284 11 11 11.6716 11 12.5C11 13.3284 10.3284 14 9.5 14H4V16.5C4 17.3284 4.67157 18 5.5 18H14.5C15.3284 18 16 17.3284 16 16.5V8H11.5C10.6716 8 10 7.32843 10 6.5ZM6 9.5C6 9.22386 6.22386 9 6.5 9H13.5C13.7761 9 14 9.22386 14 9.5C14 9.77614 13.7761 10 13.5 10H6.5C6.22386 10 6 9.77614 6 9.5ZM6 15.5C6 15.2239 6.22386 15 6.5 15H13.5C13.7761 15 14 15.2239 14 15.5C14 15.7761 13.7761 16 13.5 16H6.5C6.22386 16 6 15.7761 6 15.5ZM11 6.5V2.25L15.75 7H11.5C11.2239 7 11 6.77614 11 6.5ZM2.5 12C2.22386 12 2 12.2239 2 12.5C2 12.7761 2.22386 13 2.5 13H9.5C9.77614 13 10 12.7761 10 12.5C10 12.2239 9.77614 12 9.5 12H2.5Z" fill="#212121"/>
</svg>
