<svg width="16" height="16" viewBox="0 0 16 16" fill="none" xmlns="http://www.w3.org/2000/svg">
<path d="M8.58594 1C8.98371 1.00004 9.36522 1.15818 9.64648 1.43945L12.5605 4.35352C12.8418 4.63478 13 5.01629 13 5.41406V13C13 14.1046 12.1046 15 11 15H5C3.89543 15 3 14.1046 3 13V12H4V13C4 13.5523 4.44772 14 5 14H11C11.5523 14 12 13.5523 12 13V6H9.5C8.67157 6 8 5.32843 8 4.5V2H5C4.44772 2 4 2.44772 4 3V9H3V3C3 1.89543 3.89543 1 5 1H8.58594ZM10.5 12C10.7761 12 11 12.2239 11 12.5C11 12.7761 10.7761 13 10.5 13H5.5C5.22386 13 5 12.7761 5 12.5C5 12.2239 5.22386 12 5.5 12H10.5ZM6.5 10C6.77614 10 7 10.2239 7 10.5C7 10.7761 6.77614 11 6.5 11H1.5C1.22386 11 1 10.7761 1 10.5C1 10.2239 1.22386 10 1.5 10H6.5ZM10.5 8C10.7761 8 11 8.22386 11 8.5C11 8.77614 10.7761 9 10.5 9H5.5C5.22386 9 5 8.77614 5 8.5C5 8.22386 5.22386 8 5.5 8H10.5ZM9 4.5C9 4.77614 9.22386 5 9.5 5H11.793L9 2.20703V4.5Z" fill="#212121"/>
</svg>
