<svg width="16" height="16" viewBox="0 0 16 16" fill="none" xmlns="http://www.w3.org/2000/svg">
<path d="M4.5 2C3.11929 2 2 3.11929 2 4.5V11.5C2 12.8807 3.11929 14 4.5 14H11.5C12.8807 14 14 12.8807 14 11.5V4.5C14 3.11929 12.8807 2 11.5 2H4.5ZM13 8H10.5L10.4101 8.00806C10.1769 8.05039 10 8.25454 10 8.5C10 8.55217 9.99216 8.66189 9.96774 8.80843C9.92659 9.05536 9.85276 9.30145 9.74029 9.52639C9.43156 10.1439 8.89734 10.5 8 10.5C7.10266 10.5 6.56844 10.1439 6.25971 9.52639C6.14724 9.30145 6.07341 9.05536 6.03226 8.80843C6.00784 8.66189 6 8.55217 6 8.5C6 8.22386 5.77614 8 5.5 8H3V4.5C3 3.67157 3.67157 3 4.5 3H11.5C12.3284 3 13 3.67157 13 4.5V8ZM3 9H5.044L5.0794 9.17401C5.1363 9.42568 5.22762 9.69828 5.36529 9.97361C5.83781 10.9186 6.70984 11.5 8 11.5C9.29016 11.5 10.1622 10.9186 10.6347 9.97361L10.7295 9.76791C10.8159 9.56329 10.8779 9.36276 10.9206 9.17401L10.955 9H13V11.5C13 12.3284 12.3284 13 11.5 13H4.5C3.67157 13 3 12.3284 3 11.5V9Z" fill="#212121"/>
</svg>
