<svg width="20" height="20" viewBox="0 0 20 20" fill="none" xmlns="http://www.w3.org/2000/svg">
<path d="M17.4355 7.57715C17.8253 7.47265 18.3561 7.41896 18.7178 7.78027C19.0793 8.14202 19.0254 8.67358 18.9209 9.06348C18.8049 9.49542 18.5636 9.99977 18.2412 10.5322C17.5917 11.6047 16.5534 12.8977 15.2979 14.1533C14.9398 14.5114 14.4068 15.0517 13.7949 15.3301C13.5416 15.4452 13.2566 15.5225 12.9521 15.5205C13.1061 16.3072 12.8804 17.1536 12.2734 17.7646L12.1182 17.916C10.4814 19.4327 7.77241 19.4506 6.10547 17.3105C6.00413 17.1804 5.97333 17.0077 6.02344 16.8506C6.07399 16.6934 6.20011 16.5704 6.3584 16.5234C7.43303 16.2052 7.7441 15.8704 7.91211 15.5967C8.02129 15.4186 8.07205 15.2711 8.19727 15.0107C8.3128 14.7706 8.46627 14.5016 8.73242 14.2354C9.34261 13.6253 10.1898 13.3963 10.9775 13.5488C10.9751 13.2436 11.0537 12.9579 11.1689 12.7041C11.4473 12.0922 11.9876 11.5593 12.3457 11.2012C13.6014 9.94553 14.8944 8.90733 15.9668 8.25781C16.4994 7.93532 17.0035 7.69314 17.4355 7.57715ZM11.5 2C12.1531 2 12.7091 2.4174 12.915 3H14.5C15.3284 3 16 3.67157 16 4.5V7.09375C15.8149 7.19072 15.6295 7.29357 15.4482 7.40332C14.2902 8.10476 12.9344 9.19747 11.6377 10.4941C11.3083 10.8235 10.6249 11.4838 10.2578 12.291C10.2247 12.364 10.1941 12.4414 10.165 12.5205C9.4545 12.5886 8.7597 12.873 8.18945 13.375L8.02539 13.5293C7.6503 13.9044 7.43827 14.2822 7.2959 14.5781C7.19342 14.7912 7.12095 15.0765 6.91504 15.2158C6.79448 15.2973 6.55144 15.4241 6.07422 15.5654C5.59927 15.7062 5.22313 16.0733 5.07129 16.5449V16.5469C4.92031 17.0194 5.01286 17.5359 5.31641 17.9258L5.37109 17.9932C4.60307 17.9277 4 17.285 4 16.5V4.5C4 3.67157 4.67157 3 5.5 3H7.08496C7.29088 2.4174 7.84689 2 8.5 2H11.5ZM11.5605 14.9424C10.9748 14.3567 10.0252 14.3568 9.43945 14.9424C9.28271 15.0992 9.18776 15.2591 9.09863 15.4443C9.01941 15.6091 8.90797 15.8853 8.76465 16.1191C8.50439 16.5434 8.1113 16.9055 7.38672 17.2158C8.70456 18.3673 10.4829 18.1728 11.5547 17.0693L11.5605 17.0635C12.1461 16.4777 12.1461 15.5281 11.5605 14.9424ZM8.5 3C8.22386 3 8 3.22386 8 3.5C8 3.77614 8.22386 4 8.5 4H11.5C11.7761 4 12 3.77614 12 3.5C12 3.22386 11.7761 3 11.5 3H8.5Z" fill="#212121"/>
</svg>
