<svg width="16" height="16" viewBox="0 0 16 16" fill="none" xmlns="http://www.w3.org/2000/svg">
<path d="M1 3.5C1 2.67157 1.67157 2 2.5 2H13.5C14.3284 2 15 2.67157 15 3.5V6.5C15 7.32843 14.3284 8 13.5 8H2.5C1.67157 8 1 7.32843 1 6.5V3.5ZM2.5 3C2.22386 3 2 3.22386 2 3.5V6.5C2 6.77614 2.22386 7 2.5 7H13.5C13.7761 7 14 6.77614 14 6.5V3.5C14 3.22386 13.7761 3 13.5 3H2.5ZM1 11.4998C1 10.6713 1.67157 9.99976 2.5 9.99976H5.5C6.32843 9.99976 7 10.6713 7 11.4998V12.4998C7 13.3282 6.32843 13.9998 5.5 13.9998H2.5C1.67157 13.9998 1 13.3282 1 12.4998V11.4998ZM2.5 10.9998C2.22386 10.9998 2 11.2236 2 11.4998V12.4998C2 12.7759 2.22386 12.9998 2.5 12.9998H5.5C5.77614 12.9998 6 12.7759 6 12.4998V11.4998C6 11.2236 5.77614 10.9998 5.5 10.9998H2.5ZM10.5 9.99976C9.67157 9.99976 9 10.6713 9 11.4998V12.4998C9 13.3282 9.67157 13.9998 10.5 13.9998H13.5C14.3284 13.9998 15 13.3282 15 12.4998V11.4998C15 10.6713 14.3284 9.99976 13.5 9.99976H10.5ZM10 11.4998C10 11.2236 10.2239 10.9998 10.5 10.9998H13.5C13.7761 10.9998 14 11.2236 14 11.4998V12.4998C14 12.7759 13.7761 12.9998 13.5 12.9998H10.5C10.2239 12.9998 10 12.7759 10 12.4998V11.4998Z" fill="#212121"/>
</svg>
