<?xml version="1.0" encoding="UTF-8"?>
<svg width="24px" height="24px" viewBox="0 0 24 24" version="1.1" xmlns="http://www.w3.org/2000/svg" xmlns:xlink="http://www.w3.org/1999/xlink">
    <!-- Generator: Sketch 59.1 (86144) - https://sketch.com -->
    <title>ic_brand_translate_24_mono</title>
    <desc>Created with Sketch.</desc>
    <g id="ðŸ”-Product-Icons" stroke="none" stroke-width="1" fill="none" fill-rule="evenodd">
        <g id="ic_brand_translate_24_mono" fill="#212121">
            <path d="M22,2 L22,22 L2,22 L2,2 L22,2 Z M9.27285911,12.527969 C8.52480496,12.2396794 7.80082544,12.238146 7.02595414,12.4171495 C6.77496285,12.4751311 6.54635531,12.5580096 6.34013151,12.6657848 C6.39715153,12.9109744 6.4633935,13.1475218 6.53885743,13.375427 C7.11519359,13.1850605 8.63550768,12.8796042 9.08265888,13.4905168 C9.39719827,13.9202508 9.39448424,14.334071 9.40414271,14.8108883 C8.85116572,14.7675746 8.33175489,14.6856512 7.81383456,14.6948149 C6.69172352,14.7147306 5.64640325,15.3141581 5.56955287,16.7089326 C5.50993271,17.7920195 6.04329466,18.5552937 7.16773088,18.6091762 C7.93569816,18.645892 8.63550768,18.4389087 9.2018992,18.0418156 C9.26630658,17.99666 9.42010899,17.8545098 9.5,17.8279962 C9.50151038,17.8831005 9.50151038,18.1071018 9.5,18.5 C9.73293597,18.5154561 10.1174979,18.4874213 10.3709432,18.4874213 C10.3615232,18.3698817 10.3550843,18.3012762 10.350732,18.2326097 C10.3098326,17.5948169 10.2458005,16.9574518 10.2345919,16.3191704 C10.2205812,15.5161869 10.2809764,14.7111262 10.2506297,13.9093035 C10.2258874,13.2547106 9.92033405,12.7775268 9.27285911,12.527969 Z M17.3996712,13.9181556 L12.838729,13.9181556 L14.3910293,15.5361698 C13.6974083,16.5783867 12.7263152,17.0524548 11.5538847,17.2692677 C11.6592931,17.3347576 11.7201057,17.3826531 11.7883112,17.4135042 C13.1095535,18.0106712 14.6247701,17.879435 15.9091672,17.1559923 C16.8359229,18.0714326 17.3317628,18.5549333 17.3966869,18.6064943 L17.3966869,18.6064943 L17.3969779,16.8668527 C17.3974291,16.1105705 17.3983268,15.1276715 17.3996712,13.9181556 L17.3996712,13.9181556 Z M8.44586787,15.3431153 C8.87398832,15.3538002 9.11246896,15.3843458 9.38075968,15.4759827 L9.38075968,15.4759827 L9.38075968,17.2170836 C9.23170928,17.4003573 8.94769491,17.5607549 8.81436816,17.6141767 C8.37144999,17.7916469 7.98595796,17.8439471 7.51460097,17.804421 C7.0178458,17.7626346 6.6159463,17.5157648 6.5426135,17.1036432 C6.44310745,16.5441084 6.45789325,16.1936889 6.91297394,15.8110133 C7.3549978,15.439273 7.88943751,15.3292281 8.44586787,15.3431153 Z M13.9548899,4.63602307 C13.8313569,4.61482441 13.5541709,4.57119303 13.5600256,4.72045119 C13.5658803,4.86970935 13.971512,5.21265124 13.9817786,5.33930564 C13.9920452,5.46596004 13.8022504,6.15932139 13.7926515,6.15956575 C13.3866979,6.16982908 12.868539,6.19011138 12.6118862,5.91026455 C12.5131007,5.80255176 12.3425577,5.70396874 12.157044,5.76951029 C12.0040467,5.82356383 11.9849206,5.97257763 12.0070993,6.0489417 C12.1077381,6.3955735 12.6217294,6.7024245 12.9877794,6.73993271 C13.2858802,6.77047834 13.5265787,6.76945201 13.756474,6.76945201 C13.7503053,7.60028498 13.7524278,8.17081217 13.7628414,8.48103358 C13.1261458,8.91311984 12.705311,9.23254974 12.5003369,9.43932328 C12.0061454,9.93782795 11.7431012,10.5525282 11.8421899,11.2880059 C11.9291161,11.933435 12.3759096,12.3089019 12.9906531,12.1634436 C13.3758589,12.0723565 13.971512,11.8105072 14.5930641,11.260637 C14.7588081,11.3687685 15.2992411,11.7491593 15.5216362,11.5050509 C15.7440313,11.2609424 15.2757149,10.9168765 15.206794,10.8443 C15.0891038,10.7203459 15.1100305,10.6157577 15.1929622,10.4691997 C15.5261196,9.88082981 15.8538516,9.28830569 16.1540988,8.68191386 C16.2508027,8.48672729 16.3467315,8.43754882 16.5412721,8.47658614 C17.0867369,8.58606167 17.4912001,8.86830329 17.6953991,9.41458132 C17.9148013,10.0015461 17.876704,10.5510009 17.4650268,11.0428466 C17.0070844,11.58998 16.4118367,11.9312968 15.7753319,12.2051689 C15.6287855,12.2682762 15.41147,12.2984553 15.5091875,12.5055546 C15.5581953,12.6095931 15.8062747,12.709294 15.9207454,12.6717229 C16.7845819,12.3880762 17.567812,11.957505 18.1200735,11.1875107 C18.4610412,10.7120375 18.6345359,10.1733958 18.5390244,9.58074955 C18.4010037,8.72333373 17.795084,8.14131731 16.8686464,7.94448128 C16.6579487,7.89970138 16.5351789,7.90066662 16.3825632,7.60035422 C16.3251512,7.48738074 16.1616705,7.35018551 16.0226363,7.31456931 C15.6990181,7.23160738 15.3629989,7.19257006 15.0297222,7.16031388 C14.9546604,7.15310511 14.8340011,7.17443818 14.7902876,7.29318737 C14.7465741,7.41193656 14.8736366,7.49387215 14.9467905,7.55368049 C15.0863613,7.6675546 15.249184,7.75155508 15.4650089,7.88748313 C15.0985834,7.98193022 14.8205746,8.05365135 14.4845554,8.14033985 C14.5454276,7.67225863 14.5871617,7.25922063 14.6622831,6.85271939 C14.6773074,6.77134584 14.8097834,6.68093077 14.9045794,6.65246225 C15.2556826,6.54714092 16.4574461,6.04863625 16.6085236,5.82052149 C16.8086089,5.51811976 16.5963611,5.20294995 16.2428136,5.25567171 C16.0283002,5.28762244 14.885966,5.9370103 14.8658144,5.91520072 C14.9124374,5.75410307 14.9704001,5.52752781 15.0310934,5.37217274 C15.1371577,5.10043882 15.0349687,4.93744734 14.7863527,4.85833416 C14.5126961,4.77121803 14.2363567,4.68434626 13.9548899,4.63602307 Z M13.7708425,9.13973175 C13.905584,9.6146552 14.0339462,10.0581166 14.1542597,10.5038385 C14.1676146,10.5535057 14.153902,10.6362232 14.1203955,10.6698234 C13.8321916,10.9587851 13.5640798,11.2810415 13.2358112,11.5127606 C12.8652719,11.7743534 12.5068355,11.5347535 12.550537,11.0679551 C12.5752794,10.8038576 12.6675118,10.5331623 12.785202,10.2942954 C13.0139049,9.82994079 13.3455123,9.44586005 13.7708425,9.13973175 Z M5.80355007,6.40393079 L5.80355007,10.9246839 L10.3644923,10.9246839 C9.64889936,10.1993311 9.11750885,9.66623047 8.77032078,9.32538198 C9.44778466,8.32666208 10.3883523,7.81490061 11.5769994,7.59393352 C10.1935136,6.91514855 8.90147321,6.78422387 7.59215488,7.50357344 C7.40812732,7.60469984 7.26901361,7.68615485 7.17481376,7.74793848 L7.17481376,7.74793848 L5.80355007,6.40393079 Z M15.3674704,8.49766262 L15.4214266,8.57378233 C15.2033957,8.97075333 14.7493166,9.85888583 14.716764,9.8555869 C14.6678159,9.55514009 14.4287352,9.12044989 14.52778,8.85278611 C14.5975237,8.66430736 15.1166483,8.57005576 15.3674704,8.49766262 L15.3674704,8.49766262 Z" id="ðŸŽ¨-Color"></path>
        </g>
    </g>
</svg>