<svg width="20" height="20" viewBox="0 0 20 20" fill="none" xmlns="http://www.w3.org/2000/svg">
<path d="M12.4745 8.01431C12.9873 8.01431 13.41 8.40035 13.4678 8.89769L13.4745 9.01431V13.3817C13.4745 15.306 11.9145 16.866 9.9902 16.866C8.13003 16.866 6.61032 15.4083 6.51107 13.5728L6.50591 13.3817V9.01431C6.50591 8.50148 6.89195 8.0788 7.38929 8.02104L7.50591 8.01431H12.4745ZM12.4745 9.01431H7.50591V13.3817C7.50591 14.7537 8.61817 15.866 9.9902 15.866C11.3074 15.866 12.3851 14.8409 12.4692 13.545L12.4745 13.3817V9.01431ZM5.77382 8.01372C5.63184 8.25897 5.54045 8.53718 5.51393 8.83406L5.50591 9.01431H3.0166V12.7534C3.0166 13.7786 3.84768 14.6097 4.87287 14.6097C5.14409 14.6097 5.40172 14.5515 5.63397 14.447C5.71323 14.7756 5.8298 15.0907 5.97826 15.3871C5.63862 15.5307 5.26497 15.6097 4.87287 15.6097C3.35174 15.6097 2.10833 14.4206 2.02145 12.9212L2.0166 12.7534V9.01431C2.0166 8.50148 2.40264 8.0788 2.89998 8.02104L3.0166 8.01431L5.77382 8.01372ZM14.2066 8.01372L16.9909 8.01431C17.5038 8.01431 17.9264 8.40035 17.9842 8.89769L17.9909 9.01431V12.7542C17.9909 14.3312 16.7125 15.6097 15.1354 15.6097C14.7345 15.6097 14.3529 15.5271 14.0067 15.3779C14.1549 15.0803 14.2707 14.7648 14.3501 14.4351C14.5884 14.5473 14.8547 14.6097 15.1354 14.6097C16.1114 14.6097 16.9114 13.8562 16.9854 12.8992L16.9909 12.7542V9.01431H14.4745L14.469 8.86505C14.4462 8.55654 14.3535 8.26749 14.2066 8.01372ZM9.98833 2.98926C11.2185 2.98926 12.2157 3.98648 12.2157 5.21662C12.2157 6.44676 11.2185 7.44398 9.98833 7.44398C8.75819 7.44398 7.76097 6.44676 7.76097 5.21662C7.76097 3.98648 8.75819 2.98926 9.98833 2.98926ZM14.9755 3.61739C16.0322 3.61739 16.8888 4.474 16.8888 5.53069C16.8888 6.58737 16.0322 7.44398 14.9755 7.44398C13.9188 7.44398 13.0622 6.58737 13.0622 5.53069C13.0622 4.474 13.9188 3.61739 14.9755 3.61739ZM5.01693 3.61739C6.07361 3.61739 6.93022 4.474 6.93022 5.53069C6.93022 6.58737 6.07361 7.44398 5.01693 7.44398C3.96024 7.44398 3.10363 6.58737 3.10363 5.53069C3.10363 4.474 3.96024 3.61739 5.01693 3.61739ZM9.98833 3.98926C9.31048 3.98926 8.76097 4.53877 8.76097 5.21662C8.76097 5.89447 9.31048 6.44398 9.98833 6.44398C10.6662 6.44398 11.2157 5.89447 11.2157 5.21662C11.2157 4.53877 10.6662 3.98926 9.98833 3.98926ZM14.9755 4.61739C14.4711 4.61739 14.0622 5.02629 14.0622 5.53069C14.0622 6.03509 14.4711 6.44398 14.9755 6.44398C15.4799 6.44398 15.8888 6.03509 15.8888 5.53069C15.8888 5.02629 15.4799 4.61739 14.9755 4.61739ZM5.01693 4.61739C4.51253 4.61739 4.10363 5.02629 4.10363 5.53069C4.10363 6.03509 4.51253 6.44398 5.01693 6.44398C5.52133 6.44398 5.93022 6.03509 5.93022 5.53069C5.93022 5.02629 5.52133 4.61739 5.01693 4.61739Z" fill="#212121"/>
</svg>
