<svg width="32" height="32" viewBox="0 0 32 32" fill="none" xmlns="http://www.w3.org/2000/svg">
<path d="M18.9961 7.75C18.9961 7.05964 19.5557 6.5 20.2461 6.5H27.2461C27.9364 6.5 28.4961 7.05964 28.4961 7.75V14.75C28.4961 15.4404 27.9364 16 27.2461 16C26.5557 16 25.9961 15.4404 25.9961 14.75V10.7717L19.3839 17.3839C18.8957 17.872 18.1043 17.872 17.6161 17.3839L14.5 14.2678L9.13388 19.6339C8.64573 20.122 7.85427 20.122 7.36612 19.6339C6.87796 19.1457 6.87796 18.3543 7.36612 17.8661L13.6161 11.6161C14.1043 11.128 14.8957 11.128 15.3839 11.6161L18.5 14.7322L24.2322 9H20.2461C19.5557 9 18.9961 8.44036 18.9961 7.75Z" fill="url(#paint0_linear_72095_9632)"/>
<path d="M4 3C4.55228 3 5 3.44772 5 4V24.5C5 25.8807 6.11929 27 7.5 27H28C28.5523 27 29 27.4477 29 28C29 28.5523 28.5523 29 28 29H7.5C5.01472 29 3 26.9853 3 24.5V4C3 3.44772 3.44772 3 4 3Z" fill="url(#paint1_linear_72095_9632)"/>
<defs>
<linearGradient id="paint0_linear_72095_9632" x1="5.34645" y1="19.25" x2="34.3893" y2="7.68876" gradientUnits="userSpaceOnUse">
<stop stop-color="#0FAFFF"/>
<stop offset="0.445478" stop-color="#9C6CFE"/>
<stop offset="0.956907" stop-color="#E656EB"/>
</linearGradient>
<linearGradient id="paint1_linear_72095_9632" x1="26.5625" y1="4.625" x2="3.80949" y2="38.5051" gradientUnits="userSpaceOnUse">
<stop stop-color="#70777D"/>
<stop offset="1" stop-color="#B9C0C7"/>
</linearGradient>
</defs>
</svg>
