<svg width="28" height="28" viewBox="0 0 28 28" fill="none" xmlns="http://www.w3.org/2000/svg">
<path d="M14 2C17.0376 2 19.5 4.46243 19.5 7.5V10.0088C21.4545 10.1375 23 11.763 23 13.75V22.25C22.9998 24.3209 21.321 26 19.25 26H8.75C6.67904 26 5.00018 24.3209 5 22.25V13.75C5 11.763 6.54551 10.1375 8.5 10.0088V7.5C8.5 4.46243 10.9624 2 14 2ZM14 16.5C13.1716 16.5 12.5 17.1716 12.5 18C12.5 18.8284 13.1716 19.5 14 19.5C14.8284 19.5 15.5 18.8284 15.5 18C15.5 17.1716 14.8284 16.5 14 16.5ZM14 3.5C11.7909 3.5 10 5.29086 10 7.5V10H18V7.5C18 5.29086 16.2091 3.5 14 3.5Z" fill="#212121"/>
</svg>
