<svg width="28" height="28" viewBox="0 0 28 28" fill="none" xmlns="http://www.w3.org/2000/svg">
<path d="M13.5 18C14.3284 18 15 17.3284 15 16.5C15 15.6716 14.3284 15 13.5 15C12.6716 15 12 15.6716 12 16.5C12 17.3284 12.6716 18 13.5 18ZM9 6.5C9 4.01472 11.0147 2 13.5 2C15.9853 2 18 4.01472 18 6.5V8H19.25C21.3211 8 23 9.67893 23 11.75V21.25C23 23.3211 21.3211 25 19.25 25H7.75C5.67893 25 4 23.3211 4 21.25V11.75C4 9.67893 5.67893 8 7.75 8H9V6.5ZM13.5 3.5C11.8431 3.5 10.5 4.84315 10.5 6.5V8H16.5V6.5C16.5 4.84315 15.1569 3.5 13.5 3.5ZM7.75 9.5C6.50736 9.5 5.5 10.5074 5.5 11.75V21.25C5.5 22.4926 6.50736 23.5 7.75 23.5H19.25C20.4926 23.5 21.5 22.4926 21.5 21.25V11.75C21.5 10.5074 20.4926 9.5 19.25 9.5H7.75Z" fill="#242424"/>
</svg>
