<svg width="24" height="24" viewBox="0 0 24 24" fill="none" xmlns="http://www.w3.org/2000/svg">
<path d="M9.5 5.75C9.5 6.16421 9.16421 6.5 8.75 6.5C8.33579 6.5 8 6.16421 8 5.75C8 5.33579 8.33579 5 8.75 5C9.16421 5 9.5 5.33579 9.5 5.75ZM5.75 2C5.33579 2 5 2.33579 5 2.75V21.25C5 21.6642 5.33579 22 5.75 22H18.25C18.6642 22 19 21.6642 19 21.25V2.75C19 2.33579 18.6642 2 18.25 2H5.75ZM9.5 20.5V11.75C9.5 11.3358 9.16421 11 8.75 11C8.33579 11 8 11.3358 8 11.75V20.5H6.5V3.5H17.5V20.5H9.5Z" fill="#212121"/>
</svg>
