<svg width="32" height="32" viewBox="0 0 32 32" fill="none" xmlns="http://www.w3.org/2000/svg">
<path d="M2.51465 11.874L15.5264 18.8809C15.8221 19.0399 16.1779 19.0399 16.4736 18.8809L19.4561 17.2744C20.5437 17.7409 21.7415 18 23 18C25.8281 18 28.3501 16.6943 30 14.6543V22.5C30 24.9853 27.9853 27 25.5 27H6.5C4.01472 27 2 24.9853 2 22.5V11.5889L2.51465 11.874ZM14.9375 5C14.3384 6.20516 14 7.56284 14 9C14 11.8761 15.3504 14.4354 17.4502 16.083L16 16.8643L3.47949 10.123L2.00391 9.30273C2.10715 6.90897 4.08081 5 6.5 5H14.9375ZM25.3027 1.85938C26.3348 2.19194 27.2691 2.74243 28.0518 3.45605L27.5566 5.18066C27.3192 6.00658 27.8158 6.86447 28.6523 7.07324L30.3496 7.49609C30.4484 7.9818 30.5 8.48511 30.5 9C30.5 9.57924 30.4339 10.143 30.3096 10.6846L28.7744 11.0361C27.911 11.2335 27.3973 12.1193 27.6572 12.9629L28.124 14.4766C27.348 15.2029 26.4171 15.7666 25.3867 16.1123L24.1504 14.8398C23.5506 14.2224 22.5573 14.2229 21.958 14.8408L20.6973 16.1396C19.6652 15.807 18.7309 15.2567 17.9482 14.543L18.4434 12.8193C18.6809 11.9934 18.1843 11.1355 17.3477 10.9268L15.6504 10.5029C15.5516 10.0174 15.5 9.51472 15.5 9C15.5 8.42058 15.5661 7.85614 15.6904 7.31445L17.2256 6.96387C18.0892 6.76652 18.603 5.87984 18.3428 5.03613L17.876 3.52344C18.652 2.79712 19.5829 2.23338 20.6133 1.8877L21.8496 3.16016C22.4494 3.77741 23.4427 3.77697 24.042 3.15918L25.3027 1.85938ZM23 7C21.8954 7 21 7.89543 21 9C21.0001 10.1045 21.8955 11 23 11C24.1045 11 24.9999 10.1045 25 9C25 7.89543 24.1046 7 23 7Z" fill="#212121"/>
</svg>
