<svg width="20" height="20" viewBox="0 0 20 20" fill="none" xmlns="http://www.w3.org/2000/svg">
<path d="M19 5.5C19 3.01472 16.9853 1 14.5 1C12.0147 1 10 3.01472 10 5.5C10 7.98528 12.0147 10 14.5 10C16.9853 10 19 7.98528 19 5.5ZM14.4999 7.38036C14.8448 7.38036 15.1244 7.65996 15.1244 8.00487C15.1244 8.34977 14.8448 8.62938 14.4999 8.62938C14.155 8.62938 13.8754 8.34977 13.8754 8.00487C13.8754 7.65996 14.155 7.38036 14.4999 7.38036ZM14.5 2.50345C15.531 2.50345 16.3534 3.34924 16.3534 4.45294C16.3534 5.0387 16.139 5.36068 15.6257 5.7715L15.3487 5.98581C15.103 6.1804 15.0202 6.28629 15.0034 6.43405L14.9919 6.5902C14.9495 6.82345 14.7454 7.0003 14.4999 7.0003C14.2238 7.0003 13.9999 6.77642 13.9999 6.50028C14 5.92938 14.2099 5.61614 14.7157 5.21183L14.9937 4.9968C15.2822 4.7679 15.3534 4.65474 15.3534 4.45294C15.3534 3.89534 14.9723 3.50345 14.5 3.50345C14.0062 3.50345 13.641 3.86913 13.6465 4.44814C13.6492 4.72427 13.4275 4.95026 13.1514 4.95292C12.8752 4.95557 12.6492 4.73387 12.6466 4.45774C12.6357 3.32084 13.452 2.50345 14.5 2.50345Z" fill="#ACACAC"/>
<path d="M9.02242 5H7.51133C7.50397 4.99984 7.49662 4.99984 7.48929 5H6.5C6.22386 5 6 4.77614 6 4.5V2.5C6 2.22386 5.77614 2 5.5 2C5.22386 2 5 2.22386 5 2.5V4.5C5 5.32843 5.67157 6 6.5 6H6.70836L6.58942 6.24999H7.69683L7.81578 6H9.02242C9.00758 5.83532 9 5.66854 9 5.5C9 5.33146 9.00758 5.16468 9.02242 5Z" fill="#6E6E6E"/>
<path d="M14.8537 10.9888C14.7368 10.9962 14.6188 11 14.4999 11C14.2517 11 14.0072 10.9835 13.7676 10.9517L10.4999 16.5122L10.4999 10.8662C10.7988 10.6933 10.9999 10.3701 10.9999 10C10.9999 9.44772 10.5522 9 9.99994 9C9.44765 9 8.99994 9.44772 8.99994 10C8.99994 10.3701 9.20104 10.6933 9.49994 10.8662L9.49994 16.5123L6.20848 10.9113C5.95638 10.4823 5.93342 9.95619 6.14721 9.50687L7.81572 6H6.70831L5.24421 9.07723C4.8879 9.82611 4.92615 10.7029 5.34633 11.4179L8.81876 17.3269C9.34835 18.2281 10.6515 18.2281 11.1811 17.3269L14.6535 11.418C14.7345 11.2802 14.8012 11.1365 14.8537 10.9888Z" fill="#212121"/>
</svg>
