<svg width="24" height="24" viewBox="0 0 24 24" fill="none" xmlns="http://www.w3.org/2000/svg">
<path d="M9.00051 8.75122C9.69047 8.75122 10.2498 9.31055 10.2498 10.0005C10.2498 10.6905 9.69047 11.2498 9.00051 11.2498C8.31055 11.2498 7.75122 10.6905 7.75122 10.0005C7.75122 9.31055 8.31055 8.75122 9.00051 8.75122ZM15.0005 8.75122C15.6905 8.75122 16.2498 9.31055 16.2498 10.0005C16.2498 10.6905 15.6905 11.2498 15.0005 11.2498C14.3105 11.2498 13.7512 10.6905 13.7512 10.0005C13.7512 9.31055 14.3105 8.75122 15.0005 8.75122ZM8.25 15C7.83579 15 7.5 15.3358 7.5 15.75C7.5 16.1642 7.83579 16.5 8.25 16.5H15.75C16.1642 16.5 16.5 16.1642 16.5 15.75C16.5 15.3358 16.1642 15 15.75 15H8.25ZM2 12C2 6.47715 6.47715 2 12 2C17.5228 2 22 6.47715 22 12C22 17.5228 17.5228 22 12 22C6.47715 22 2 17.5228 2 12ZM12 3.5C7.30558 3.5 3.5 7.30558 3.5 12C3.5 16.6944 7.30558 20.5 12 20.5C16.6944 20.5 20.5 16.6944 20.5 12C20.5 7.30558 16.6944 3.5 12 3.5Z" fill="#212121"/>
</svg>
