<svg width="28" height="28" viewBox="0 0 28 28" fill="none" xmlns="http://www.w3.org/2000/svg">
<path d="M6 13C7.65685 13 9 14.3431 9 16V22C9 23.6569 7.65685 25 6 25C4.34315 25 3 23.6569 3 22V16C3 14.3431 4.34315 13 6 13ZM14 3C15.6569 3 17 4.34315 17 6V22C17 23.6569 15.6569 25 14 25C12.3431 25 11 23.6569 11 22V6C11 4.34315 12.3431 3 14 3ZM22 8C23.6569 8 25 9.34315 25 11V22C25 23.6569 23.6569 25 22 25C20.3431 25 19 23.6569 19 22V11C19 9.34315 20.3431 8 22 8ZM6 14.5C5.17157 14.5 4.5 15.1716 4.5 16V22C4.5 22.8284 5.17157 23.5 6 23.5C6.82843 23.5 7.5 22.8284 7.5 22V16C7.5 15.1716 6.82843 14.5 6 14.5ZM14 4.5C13.1716 4.5 12.5 5.17157 12.5 6V22C12.5 22.8284 13.1716 23.5 14 23.5C14.8284 23.5 15.5 22.8284 15.5 22V6C15.5 5.17157 14.8284 4.5 14 4.5ZM22 9.5C21.1716 9.5 20.5 10.1716 20.5 11V22C20.5 22.8284 21.1716 23.5 22 23.5C22.8284 23.5 23.5 22.8284 23.5 22V11C23.5 10.1716 22.8284 9.5 22 9.5Z" fill="#212121"/>
</svg>
