<svg width="24" height="24" viewBox="0 0 24 24" fill="none" xmlns="http://www.w3.org/2000/svg">
<path d="M12.4968 3.00195L20.0525 3.00341L20.1734 3.01731L20.2611 3.03685L20.365 3.07133L20.4541 3.11166L20.5179 3.14728L20.5805 3.1888L20.6445 3.2387L20.7076 3.29703L20.802 3.40667L20.8736 3.51791L20.9271 3.63064L20.9624 3.73598L20.9781 3.80116L20.9873 3.85351L20.9983 4.00195V11.5058C20.9983 12.0581 20.5506 12.5058 19.9983 12.5058C19.4854 12.5058 19.0628 12.1198 19.005 11.6225L18.9983 11.5058L18.998 6.41595L4.70611 20.7076C4.34562 21.0681 3.77839 21.0958 3.38611 20.7908L3.2919 20.7076C2.93142 20.3471 2.90371 19.7798 3.20874 19.3876L3.29193 19.2934L17.583 5.00195H12.4968C11.9839 5.00195 11.5612 4.61591 11.5035 4.11857L11.4968 4.00195C11.4968 3.44967 11.9445 3.00195 12.4968 3.00195Z" fill="#212121"/>
</svg>
