<svg width="32" height="32" viewBox="0 0 32 32" fill="none" xmlns="http://www.w3.org/2000/svg">
<path d="M16 30C15.4477 30 15 29.5523 15 29V27H11.5C9.567 27 8 25.433 8 23.5V20.5C8 18.567 9.567 17 11.5 17H15V15H8.5C6.567 15 5 13.433 5 11.5V8.5C5 6.567 6.567 5 8.5 5H15V3C15 2.44772 15.4477 2 16 2C16.5523 2 17 2.44772 17 3V5H23.5C25.433 5 27 6.567 27 8.5V11.5C27 13.433 25.433 15 23.5 15H17V17H20.5C22.433 17 24 18.567 24 20.5V23.5C24 25.433 22.433 27 20.5 27H17V29C17 29.5523 16.5523 30 16 30ZM20.5 25C21.3284 25 22 24.3284 22 23.5V20.5C22 19.6716 21.3284 19 20.5 19H11.5C10.6716 19 10 19.6716 10 20.5V23.5C10 24.3284 10.6716 25 11.5 25H20.5ZM25 11.5V8.5C25 7.67157 24.3284 7 23.5 7L8.5 7C7.67157 7 7 7.67157 7 8.5V11.5C7 12.3284 7.67157 13 8.5 13L23.5 13C24.3284 13 25 12.3284 25 11.5Z" fill="#212121"/>
</svg>
