<svg width="20" height="20" viewBox="0 0 20 20" fill="none" xmlns="http://www.w3.org/2000/svg">
<path d="M5.5 3C4.11929 3 3 4.11929 3 5.5V14.5C3 15.8807 4.11929 17 5.5 17H14.5C15.8807 17 17 15.8807 17 14.5V5.5C17 4.11929 15.8807 3 14.5 3H5.5ZM4 5.5C4 4.67157 4.67157 4 5.5 4H14.5C15.3284 4 16 4.67157 16 5.5V14.5C16 15.3284 15.3284 16 14.5 16H5.5C4.67157 16 4 15.3284 4 14.5V5.5ZM6 9.5C6 9.22386 6.22386 9 6.5 9C6.77614 9 7 9.22386 7 9.5C7 9.77614 6.77614 10 6.5 10C6.22386 10 6 9.77614 6 9.5ZM6.5 8C5.67157 8 5 8.67157 5 9.5C5 10.3284 5.67157 11 6.5 11C7.32843 11 8 10.3284 8 9.5C8 8.67157 7.32843 8 6.5 8ZM9 9.5C9 9.22386 9.22386 9 9.5 9H14.5C14.7761 9 15 9.22386 15 9.5C15 9.77614 14.7761 10 14.5 10H9.5C9.22386 10 9 9.77614 9 9.5ZM6 13.5C6 13.2239 6.22386 13 6.5 13C6.77614 13 7 13.2239 7 13.5C7 13.7761 6.77614 14 6.5 14C6.22386 14 6 13.7761 6 13.5ZM6.5 12C5.67157 12 5 12.6716 5 13.5C5 14.3284 5.67157 15 6.5 15C7.32843 15 8 14.3284 8 13.5C8 12.6716 7.32843 12 6.5 12ZM5 5.5C5 5.22386 5.22386 5 5.5 5H14.5C14.7761 5 15 5.22386 15 5.5C15 5.77614 14.7761 6 14.5 6H5.5C5.22386 6 5 5.77614 5 5.5ZM9.5 13C9.22386 13 9 13.2239 9 13.5C9 13.7761 9.22386 14 9.5 14H14.5C14.7761 14 15 13.7761 15 13.5C15 13.2239 14.7761 13 14.5 13H9.5Z" fill="#212121"/>
</svg>
