<svg width="32" height="32" viewBox="0 0 32 32" fill="none" xmlns="http://www.w3.org/2000/svg">
<path d="M24.5 3C26.9853 3 29 5.01472 29 7.5V24.5C29 26.9853 26.9853 29 24.5 29H7.5C5.01472 29 3 26.9853 3 24.5V7.5C3 5.01472 5.01472 3 7.5 3H24.5ZM10 19C8.34315 19 7 20.3431 7 22C7 23.6569 8.34315 25 10 25C11.6569 25 13 23.6569 13 22C13 20.3431 11.6569 19 10 19ZM10 21C10.5523 21 11 21.4477 11 22C11 22.5523 10.5523 23 10 23C9.44772 23 9 22.5523 9 22C9 21.4477 9.44772 21 10 21ZM16 21C15.4477 21 15 21.4477 15 22C15 22.5523 15.4477 23 16 23H24C24.5523 23 25 22.5523 25 22C25 21.4477 24.5523 21 24 21H16ZM10 11C8.34315 11 7 12.3431 7 14C7 15.6569 8.34315 17 10 17C11.6569 17 13 15.6569 13 14C13 12.3431 11.6569 11 10 11ZM10 13C10.5523 13 11 13.4477 11 14C11 14.5523 10.5523 15 10 15C9.44772 15 9 14.5523 9 14C9 13.4477 9.44772 13 10 13ZM16 13C15.4477 13 15 13.4477 15 14C15 14.5523 15.4477 15 16 15H24C24.5523 15 25 14.5523 25 14C25 13.4477 24.5523 13 24 13H16ZM8 7C7.44772 7 7 7.44772 7 8C7 8.55228 7.44772 9 8 9H24C24.5523 9 25 8.55228 25 8C25 7.44772 24.5523 7 24 7H8Z" fill="#212121"/>
</svg>
