<?xml version="1.0" encoding="UTF-8"?>
<svg width="24px" height="24px" viewBox="0 0 24 24" version="1.1" xmlns="http://www.w3.org/2000/svg" xmlns:xlink="http://www.w3.org/1999/xlink">
    <!-- Generator: Sketch 58 (84663) - https://sketch.com -->
    <title>ic_microsoft_wunderlist_24_filled</title>
    <desc>Created with Sketch.</desc>
    <g id="ðŸ”-Product-Icons" stroke="none" stroke-width="1" fill="none" fill-rule="evenodd">
        <g id="ic_microsoft_wunderlist_24_filled" fill="#212121">
            <path d="M19,16.5 C19,17.948 17.949,19 16.5,19 L7.5,19 C6.051,19 5,17.948 5,16.5 L5,7.5 C5,6.225 5.816,5.259 7,5.046 L7,17.75 C7,17.918 7.162,18.038 7.322,17.99 L12,16.5 L16.678,17.99 C16.838,18.038 17,17.918 17,17.75 L17,5.046 C18.184,5.259 19,6.225 19,7.5 L19,16.5 Z M14.009,13.82 L12,12.361 L9.991,13.82 L10.759,11.459 L8.75,10 L11.233,10 L12,7.639 L12.767,10 L15.25,10 L13.241,11.459 L14.009,13.82 Z M7.5,3 C4.935,3 3,4.935 3,7.5 L3,16.5 C3,19.065 4.935,21 7.5,21 L16.5,21 C19.065,21 21,19.065 21,16.5 L21,7.5 C21,4.935 19.065,3 16.5,3 L7.5,3 Z" id="ðŸŽ¨-Color"></path>
        </g>
    </g>
</svg>