<svg width="24" height="24" viewBox="0 0 24 24" fill="none" xmlns="http://www.w3.org/2000/svg">
<path d="M21.2502 13C21.6298 13 21.9436 13.2822 21.9933 13.6482L22.0002 13.75V18.75C22.0002 20.483 20.6437 21.8992 18.9346 21.9949L18.7502 22L14.0823 22.0002C14.6186 21.6147 15.0556 21.0997 15.3475 20.5011L18.7502 20.5C19.6683 20.5 20.4213 19.7929 20.4944 18.8935L20.5002 18.75V13.75C20.5002 13.3358 20.8359 13 21.2502 13ZM11.7502 9C13.5451 9 15.0002 10.4551 15.0002 12.25V18.75C15.0002 20.5449 13.5451 22 11.7502 22H5.25015C3.45523 22 2.00015 20.5449 2.00015 18.75V12.25C2.00015 10.4551 3.45523 9 5.25015 9H11.7502ZM11.7502 10.5H5.25015C4.28365 10.5 3.50015 11.2835 3.50015 12.25V18.75C3.50015 19.7165 4.28365 20.5 5.25015 20.5H11.7502C12.7166 20.5 13.5002 19.7165 13.5002 18.75V12.25C13.5002 11.2835 12.7166 10.5 11.7502 10.5ZM6.0612 13.1028C6.17874 12.8874 6.43178 12.7928 6.65682 12.8674L6.73958 12.9033L10.6954 15.0611C10.7797 15.107 10.849 15.1763 10.8949 15.2606C11.0125 15.4761 10.955 15.74 10.7705 15.8888L10.6954 15.9389L6.73958 18.0967C6.66613 18.1367 6.58381 18.1577 6.50015 18.1577C6.25469 18.1577 6.05054 17.9809 6.00821 17.7476L6.00015 17.6577V13.3423C6.00015 13.2586 6.02114 13.1763 6.0612 13.1028ZM18.7502 2C20.4832 2 21.8994 3.35645 21.995 5.06558L22.0002 5.25V10.25C22.0002 10.6642 21.6644 11 21.2502 11C20.8705 11 20.5567 10.7178 20.507 10.3518L20.5002 10.25V5.25C20.5002 4.33183 19.793 3.57881 18.8937 3.5058L18.7502 3.5H13.7502C13.3359 3.5 13.0002 3.16421 13.0002 2.75C13.0002 2.3703 13.2823 2.05651 13.6484 2.00685L13.7502 2H18.7502ZM10.2502 2C10.6644 2 11.0002 2.33579 11.0002 2.75C11.0002 3.1297 10.718 3.44349 10.3519 3.49315L10.2502 3.5H5.25015C4.33198 3.5 3.57896 4.20711 3.50595 5.10647L3.50015 5.25L3.50011 8.65214C2.90102 8.94409 2.38571 9.38126 2 9.91785L2.00015 5.25C2.00015 3.51697 3.35661 2.10075 5.06573 2.00514L5.25015 2H10.2502Z" fill="#212121"/>
</svg>
