<svg width="16" height="16" viewBox="0 0 16 16" fill="none" xmlns="http://www.w3.org/2000/svg">
<path d="M1.73223 9.76875C0.755921 8.79243 0.755924 7.20952 1.73223 6.23321L6.23317 1.73228C7.20948 0.755967 8.79239 0.75597 9.7687 1.73228L14.2696 6.23322C15.2459 7.20953 15.2459 8.79244 14.2696 9.76875L9.7687 14.2697C8.79239 15.246 7.20948 15.246 6.23317 14.2697L1.73223 9.76875ZM2.43934 6.94032C1.85355 7.52611 1.85355 8.47585 2.43934 9.06164L6.94027 13.5626C7.52606 14.1484 8.47581 14.1484 9.06159 13.5626L13.5625 9.06164C14.1483 8.47585 14.1483 7.52611 13.5625 6.94032L9.06159 2.43939C8.47581 1.8536 7.52606 1.8536 6.94028 2.43938L2.43934 6.94032Z" fill="#212121"/>
</svg>
