<svg width="24" height="24" viewBox="0 0 24 24" fill="none" xmlns="http://www.w3.org/2000/svg">
<path d="M13.0017 8.01232C16.1702 8.01232 17.9677 10.1096 18.2291 12.6424L18.3091 12.6424C20.3481 12.6424 22.0011 14.2912 22.0011 16.325C22.0011 18.3588 20.3481 20.0075 18.3091 20.0075H7.69432C5.65524 20.0075 4.00224 18.3588 4.00224 16.325C4.00224 14.2912 5.65524 12.6424 7.69435 12.6424L7.77429 12.6424C8.03723 10.093 9.83316 8.01232 13.0017 8.01232ZM6.58896 4.00454C7.38399 4.04719 8.15596 4.2763 8.85205 4.67819C9.90661 5.28705 10.6601 6.21709 11.0604 7.27342C9.07598 7.83599 7.65597 9.27499 7.06632 11.2199L6.99696 11.4656L6.93926 11.7035L6.73318 11.7419C5.5896 11.9822 4.59826 12.6427 3.9293 13.5564C3.87766 13.5303 3.82611 13.5017 3.77485 13.4721C3.11733 13.0925 2.55916 12.577 2.13272 11.9578C1.85323 11.5518 2.03405 10.9912 2.49808 10.8252C4.1405 10.2373 5.02542 9.57579 5.53153 8.60961C6.08427 7.55453 6.18638 6.43555 5.81941 4.93217C5.7001 4.44317 6.08635 3.97757 6.58896 4.00454Z" fill="#212121"/>
</svg>
