<svg width="48" height="48" viewBox="0 0 48 48" fill="none" xmlns="http://www.w3.org/2000/svg">
<path d="M6 12.25C6 8.79822 8.79822 6 12.25 6H35.75C39.2018 6 42 8.79822 42 12.25V35.75C42 39.2018 39.2018 42 35.75 42H12.25C8.79822 42 6 39.2018 6 35.75V12.25ZM12.25 8.5C10.1789 8.5 8.5 10.1789 8.5 12.25V35.75C8.5 36.3457 8.6389 36.909 8.88608 37.4092L21.3669 25.0926C22.8269 23.6518 25.1735 23.6514 26.634 25.0916L39.1176 37.4018C39.3625 36.9034 39.5 36.3428 39.5 35.75V12.25C39.5 10.1789 37.8211 8.5 35.75 8.5H12.25ZM37.3312 39.1513L24.8786 26.8717C24.3918 26.3916 23.6096 26.3917 23.1229 26.872L10.6763 39.1548C11.1549 39.3764 11.688 39.5 12.25 39.5H35.75C36.315 39.5 36.8507 39.3751 37.3312 39.1513ZM30.5 19.5C29.3954 19.5 28.5 18.6046 28.5 17.5C28.5 16.3954 29.3954 15.5 30.5 15.5C31.6046 15.5 32.5 16.3954 32.5 17.5C32.5 18.6046 31.6046 19.5 30.5 19.5ZM30.5 22C32.9853 22 35 19.9853 35 17.5C35 15.0147 32.9853 13 30.5 13C28.0147 13 26 15.0147 26 17.5C26 19.9853 28.0147 22 30.5 22Z" fill="#212121"/>
</svg>
