<svg width="16" height="16" viewBox="0 0 16 16" fill="none" xmlns="http://www.w3.org/2000/svg">
<path d="M8 2C6.34579 2 5 3.34579 5 5C5 5.41421 5.33579 5.75 5.75 5.75C6.16421 5.75 6.5 5.41421 6.5 5C6.5 4.17421 7.17421 3.5 8 3.5C8.82579 3.5 9.5 4.17421 9.5 5C9.5 5.65334 9.37848 6.01813 9.24641 6.25047C9.10909 6.49205 8.92484 6.65927 8.64486 6.89258L8.59378 6.93502C8.33479 7.14984 7.98239 7.44214 7.71433 7.87401C7.41484 8.35652 7.25 8.95383 7.25 9.75V10.25C7.25 10.6642 7.58579 11 8 11C8.41421 11 8.75 10.6642 8.75 10.25V9.75C8.75 9.17117 8.86641 8.86223 8.98879 8.66505C9.12453 8.44637 9.30479 8.29521 9.60514 8.04492C9.88766 7.80948 10.2659 7.49233 10.5505 6.99172C10.8403 6.48187 11 5.84666 11 5C11 3.34579 9.65421 2 8 2ZM8 14.25C8.55228 14.25 9 13.8023 9 13.25C9 12.6977 8.55228 12.25 8 12.25C7.44772 12.25 7 12.6977 7 13.25C7 13.8023 7.44772 14.25 8 14.25Z" fill="#212121"/>
</svg>
