<svg width="16" height="16" viewBox="0 0 16 16" fill="none" xmlns="http://www.w3.org/2000/svg">
<path d="M2 4.5C2 3.11929 3.11929 2 4.5 2H11.5C12.8807 2 14 3.11929 14 4.5V11.5C14 12.8807 12.8807 14 11.5 14H4.5C3.11929 14 2 12.8807 2 11.5V4.5ZM3 11V11.5C3 12.3284 3.67157 13 4.5 13H4.63962L5.30629 11H3ZM5.63962 10L6.30629 8H5.26759L3.93426 10H5.63962ZM6.36038 11L5.69371 13H10.3063L9.63962 11H6.36038ZM9.30629 10L8.63962 8H7.36038L6.69371 10H9.30629ZM10.6937 11L11.3604 13H11.5C12.3284 13 13 12.3284 13 11.5V11H10.6937ZM12.0657 10L10.7324 8H9.69371L10.3604 10H12.0657ZM13 4.5C13 3.67157 12.3284 3 11.5 3H4.5C3.67157 3 3 3.67157 3 4.5V7H13V4.5ZM3 9.59861L4.06574 8H3V9.59861ZM13 9.59861V8H11.9343L13 9.59861Z" fill="#212121"/>
</svg>
