<svg width="24" height="24" viewBox="0 0 24 24" fill="none" xmlns="http://www.w3.org/2000/svg">
<path d="M2.21973 2.21973C2.51262 1.92684 2.98738 1.92684 3.28027 2.21973L21.7803 20.7197C22.073 21.0126 22.0729 21.4874 21.7803 21.7803C21.4874 22.0731 21.0126 22.073 20.7197 21.7803L18.5186 19.5791C16.7678 21.0863 14.4914 22 12 22C6.47715 22 2 17.5228 2 12C2 9.50855 2.91182 7.23042 4.41895 5.47949L2.21973 3.28027C1.92684 2.98738 1.92684 2.51262 2.21973 2.21973ZM12 2C17.5228 2 22 6.47715 22 12C22 13.9464 21.4415 15.7614 20.4795 17.2979L6.70117 3.51953C8.23767 2.55746 10.0535 2 12 2Z" fill="#212121"/>
</svg>
