<svg width="48" height="48" viewBox="0 0 48 48" fill="none" xmlns="http://www.w3.org/2000/svg">
<path d="M24 11.5C18.7533 11.5 14.5 15.7533 14.5 21C14.5 21.0741 14.5008 21.1479 14.5025 21.2215C14.5102 21.5579 14.3819 21.8831 14.1468 22.1237C13.9116 22.3644 13.5893 22.5 13.2528 22.5H11.5C8.18629 22.5 5.5 25.1863 5.5 28.5C5.5 31.8137 8.18629 34.5 11.5 34.5H36.5C39.8137 34.5 42.5 31.8137 42.5 28.5C42.5 25.1863 39.8137 22.5 36.5 22.5H34.7472C34.4107 22.5 34.0884 22.3644 33.8532 22.1237C33.6181 21.8831 33.4898 21.5579 33.4975 21.2215C33.4992 21.1479 33.5 21.074 33.5 21C33.5 15.7533 29.2467 11.5 24 11.5ZM12.0411 20C12.5492 13.8405 17.7093 9 24 9C30.2907 9 35.4508 13.8405 35.9589 20H36.5C41.1944 20 45 23.8056 45 28.5C45 33.1944 41.1944 37 36.5 37H11.5C6.80558 37 3 33.1944 3 28.5C3 23.8056 6.80558 20 11.5 20H12.0411Z" fill="#212121"/>
</svg>
