<svg width="16" height="16" viewBox="0 0 16 16" fill="none" xmlns="http://www.w3.org/2000/svg">
<path d="M8.00162 2C5.87796 2 4.01157 3.10293 2.94453 4.76959C2.79564 5.00216 2.48641 5.06999 2.25384 4.92109C2.02128 4.7722 1.95345 4.46297 2.10235 4.23041C3.34544 2.28876 5.52287 1 8.00162 1C9.95984 1 11.73 1.80432 13 3.09944V2C13 1.72386 13.2239 1.5 13.5 1.5C13.7761 1.5 14 1.72386 14 2V4.5C14 4.77614 13.7761 5 13.5 5H11C10.7239 5 10.5 4.77614 10.5 4.5C10.5 4.22386 10.7239 4 11 4H12.4739C11.3748 2.7719 9.77823 2 8.00162 2ZM3.52935 12H5C5.27614 12 5.5 11.7761 5.5 11.5C5.5 11.2239 5.27614 11 5 11H2.5C2.22386 11 2 11.2239 2 11.5V14C2 14.2761 2.22386 14.5 2.5 14.5C2.77614 14.5 3 14.2761 3 14V12.8973C4.27023 14.1943 6.04174 15 8.00162 15C10.4804 15 12.6578 13.7112 13.9009 11.7696C14.0498 11.537 13.982 11.2278 13.7494 11.0789C13.5168 10.93 13.2076 10.9978 13.0587 11.2304C11.9917 12.8971 10.1253 14 8.00162 14C6.22501 14 4.62846 13.2281 3.52935 12ZM5.5 3.5C5.77614 3.5 6 3.72386 6 4V9C6 9.55228 6.44772 10 7 10H12C12.2761 10 12.5 10.2239 12.5 10.5C12.5 10.7761 12.2761 11 12 11H11V12C11 12.2761 10.7761 12.5 10.5 12.5C10.2239 12.5 10 12.2761 10 12V11H7C5.89543 11 5 10.1046 5 9V6H4C3.72386 6 3.5 5.77614 3.5 5.5C3.5 5.22386 3.72386 5 4 5H5V4C5 3.72386 5.22386 3.5 5.5 3.5ZM10 7V9H11V7C11 5.89543 10.1046 5 9 5H7V6H9C9.55228 6 10 6.44772 10 7Z" fill="#212121"/>
</svg>
