<svg width="16" height="16" viewBox="0 0 16 16" fill="none" xmlns="http://www.w3.org/2000/svg">
<path d="M13.8539 2.14645C14.0491 2.34171 14.0491 2.65829 13.8539 2.85355L10.7074 6H12.5026C12.7788 6 13.0026 6.22386 13.0026 6.5C13.0026 6.77614 12.7788 7 12.5026 7H9.50032C9.22417 7 9.00032 6.77614 9.00032 6.5V3.5C9.00032 3.22386 9.22417 3 9.50032 3C9.77646 3 10.0003 3.22386 10.0003 3.5V5.29289L13.1468 2.14645C13.342 1.95118 13.6586 1.95118 13.8539 2.14645ZM4.37432 2.11972C5.22535 1.79978 6.17963 2.18481 6.57033 3.00577L7.13685 4.19619C7.39941 4.7479 7.30109 5.40373 6.88829 5.85419L5.57181 7.29079C5.58755 7.35216 5.60738 7.42401 5.63193 7.50412C5.71754 7.78343 5.85799 8.15477 6.0766 8.52907C6.29324 8.89998 6.55273 9.20346 6.76044 9.41534C6.82111 9.47723 6.87675 9.53068 6.92479 9.57508L8.80245 9.0861C9.32846 8.94911 9.88743 9.10741 10.2635 9.49987L11.0389 10.309C11.7111 11.0106 11.6832 12.1254 10.9766 12.7924L10.6806 13.0719C9.55463 14.1347 7.80091 14.3617 6.54598 13.3186C5.60617 12.5374 4.47771 11.439 3.62827 10.1058C2.68742 8.6291 2.24817 6.87524 2.04007 5.55515C1.80275 4.04963 2.76081 2.72631 4.11117 2.21865L4.37432 2.11972ZM4.37432 2.11972L4.55027 2.58774Z" fill="#212121"/>
</svg>
