<svg width="20" height="20" viewBox="0 0 20 20" fill="none" xmlns="http://www.w3.org/2000/svg">
<path d="M14.4578 11.6849C14.3831 11.8771 14.198 12.0037 13.9918 12.0037C13.7856 12.0037 13.6005 11.8771 13.5258 11.6849L10.0176 2.66378C9.9175 2.40641 10.045 2.11664 10.3024 2.01655C10.5597 1.91647 10.8495 2.04397 10.9496 2.30133L13.9918 10.1242L17.034 2.30133C17.1341 2.04397 17.4239 1.91647 17.6812 2.01655C17.9386 2.11664 18.0661 2.40641 17.966 2.66378L14.4578 11.6849ZM6.00396 1.98252C6.21016 1.98252 6.39522 2.10911 6.46996 2.30129L8.78721 8.25995C8.80633 8.29547 8.82128 8.33357 8.83141 8.3736L9.97817 11.3224C10.0783 11.5798 9.95076 11.8696 9.69339 11.9697C9.43603 12.0697 9.14625 11.9422 9.04617 11.6849L8.00073 8.9966H4.00718L2.96174 11.6849C2.86166 11.9422 2.57188 12.0697 2.31452 11.9697C2.05715 11.8696 1.92965 11.5798 2.02974 11.3224L3.19492 8.32625C3.19755 8.319 3.20034 8.31182 3.20329 8.30472L5.53795 2.30129C5.61269 2.10911 5.79775 1.98252 6.00396 1.98252ZM4.39607 7.9966H7.61184L6.00396 3.86203L4.39607 7.9966ZM14.7886 13.176C14.9683 12.9664 15.284 12.9422 15.4936 13.122L17.8236 15.1203C17.9343 15.2152 17.9981 15.3538 17.9981 15.4996C17.9982 15.6454 17.9346 15.784 17.824 15.8791L15.4939 17.8808C15.2845 18.0607 14.9688 18.0368 14.7888 17.8273C14.6089 17.6179 14.6328 17.3022 14.8423 17.1223L16.1469 16.0015H3.84542L5.15191 17.122C5.36152 17.3017 5.38571 17.6174 5.20595 17.827C5.02618 18.0366 4.71052 18.0608 4.50091 17.8811L2.17087 15.8828C2.06017 15.7878 1.99643 15.6493 1.99637 15.5034C1.99631 15.3576 2.05993 15.219 2.17055 15.124L4.50059 13.1223C4.71005 12.9423 5.02572 12.9662 5.20567 13.1757C5.38562 13.3852 5.36169 13.7008 5.15223 13.8808L3.84768 15.0015H16.149L14.8426 13.8811C14.633 13.7013 14.6088 13.3856 14.7886 13.176Z" fill="#212121"/>
</svg>
