<svg width="24" height="24" viewBox="0 0 24 24" fill="none" xmlns="http://www.w3.org/2000/svg">
<path d="M7 2C7.55228 2 8 2.44772 8 3V6H16V3C16 2.44772 16.4477 2 17 2C17.5523 2 18 2.44772 18 3V6C18 6.96661 17.3143 7.77306 16.4028 7.95943L17.5165 10.3106C17.8739 11.0653 17.8691 11.9415 17.5034 12.6923L13.3932 21.129C13.2508 21.4213 13.0238 21.655 12.75 21.8064V12.2993C13.1984 12.04 13.5 11.5552 13.5 11C13.5 10.1716 12.8284 9.5 12 9.5C11.1716 9.5 10.5 10.1716 10.5 11C10.5 11.5552 10.8016 12.04 11.25 12.2993V21.8064C10.9762 21.655 10.7492 21.4213 10.6068 21.129L6.44935 12.5954C6.12117 11.9217 6.08209 11.1434 6.34113 10.4403L7.2882 7.86963C6.53507 7.58273 6 6.85385 6 6V3C6 2.44772 6.44772 2 7 2Z" fill="#212121"/>
</svg>
