<svg width="20" height="20" viewBox="0 0 20 20" fill="none" xmlns="http://www.w3.org/2000/svg">
<path d="M9.40751 1.29053C9.70777 0.90446 10.2913 0.904459 10.5915 1.29053L11.6547 2.65743C11.7921 2.83415 12.0303 2.89797 12.2377 2.81365L13.8418 2.16143C14.2949 1.97722 14.8002 2.26897 14.8672 2.75345L15.1045 4.46879C15.1351 4.69055 15.3095 4.8649 15.5312 4.89557L17.2466 5.13281C17.7311 5.19982 18.0228 5.70514 17.8386 6.15822L17.1864 7.76236C17.1021 7.96975 17.1659 8.20792 17.3426 8.34536L18.7095 9.40848C19.0956 9.70875 19.0956 10.2923 18.7095 10.5925L17.3426 11.6556C17.1659 11.7931 17.1021 12.0313 17.1864 12.2386L17.8386 13.8428C18.0228 14.2959 17.7311 14.8012 17.2466 14.8682L15.5312 15.1054C15.3095 15.1361 15.1351 15.3105 15.1045 15.5322L14.8672 17.2476C14.8002 17.732 14.2949 18.0238 13.8418 17.8396L12.2377 17.1874C12.0303 17.103 11.7921 17.1669 11.6547 17.3436L10.5915 18.7105C10.2913 19.0965 9.70778 19.0965 9.40751 18.7105L8.34439 17.3436C8.20694 17.1669 7.96878 17.103 7.76139 17.1874L6.15724 17.8396C5.70417 18.0238 5.19884 17.732 5.13183 17.2476L4.8946 15.5322C4.86393 15.3105 4.68958 15.1361 4.46781 15.1054L2.75248 14.8682C2.268 14.8012 1.97625 14.2959 2.16046 13.8428L2.81267 12.2386C2.89699 12.0313 2.83317 11.7931 2.65646 11.6556L1.28955 10.5925C0.903483 10.2923 0.903482 9.70875 1.28955 9.40848L2.65646 8.34536C2.83318 8.20792 2.89699 7.96975 2.81267 7.76236L2.16046 6.15822C1.97625 5.70515 2.268 5.19982 2.75248 5.13281L4.46781 4.89557C4.68958 4.8649 4.86393 4.69055 4.8946 4.46879L5.13183 2.75345C5.19884 2.26897 5.70417 1.97722 6.15724 2.16143L7.76139 2.81365C7.96878 2.89797 8.20694 2.83415 8.34439 2.65743L9.40751 1.29053ZM6.5 9.5C6.22386 9.5 6 9.72386 6 10C6 10.2761 6.22386 10.5 6.5 10.5H9.5V13.5C9.5 13.7761 9.72386 14 10 14C10.2761 14 10.5 13.7761 10.5 13.5V10.5H13.5C13.7761 10.5 14 10.2761 14 10C14 9.72386 13.7761 9.5 13.5 9.5H10.5V6.5C10.5 6.22386 10.2761 6 10 6C9.72386 6 9.5 6.22386 9.5 6.5V9.5H6.5Z" fill="#212121"/>
</svg>
