<svg width="24" height="24" viewBox="0 0 24 24" fill="none" xmlns="http://www.w3.org/2000/svg">
<path d="M12 2.00555C9.79086 2.00555 8 3.79642 8 6.00555V7.00555H4.73596C3.76946 7.00555 2.98596 7.78906 2.98596 8.75555V18.2556C2.98596 20.3266 4.66489 22.0056 6.73596 22.0056H17.236C19.307 22.0056 20.986 20.3266 20.986 18.2556V8.75555C20.986 7.78906 20.2025 7.00555 19.236 7.00555H16V6.00555C16 3.79642 14.2091 2.00555 12 2.00555ZM14.5 7.00555H9.5V6.00555C9.5 4.62484 10.6193 3.50555 12 3.50555C13.3807 3.50555 14.5 4.62484 14.5 6.00555V7.00555ZM11.5 10.5V14H8V10.5H11.5ZM12.5 10.5028H16.0026V14.0054H12.5V10.5028ZM11.5 15V18.5H8V15H11.5ZM12.5 15H16.0026V18.5026H12.5V15Z" fill="#212121"/>
</svg>
