<svg width="16" height="16" viewBox="0 0 16 16" fill="none" xmlns="http://www.w3.org/2000/svg">
<path d="M10.8359 6.25195C11.2147 5.91545 11.7853 5.91545 12.1641 6.25195L15.6641 9.36328C15.8775 9.55299 15.9999 9.82481 16 10.1104V14.501C15.9998 14.777 15.776 15.001 15.5 15.001H13.5C13.224 15.001 13.0002 14.777 13 14.501V11.501C13 11.2248 12.7761 11.001 12.5 11.001H10.5C10.2239 11.001 10 11.2248 10 11.501V14.501C9.99981 14.777 9.77602 15.001 9.5 15.001H7.5C7.22398 15.001 7.00019 14.777 7 14.501V10.1104C7.00008 9.82481 7.12252 9.55299 7.33594 9.36328L10.8359 6.25195ZM6.6709 8.61621C6.54283 8.73011 6.43333 8.86015 6.33984 9H3.5C3.22386 9 3 9.22386 3 9.5V10C3 11.2386 4.06339 12.5683 6 12.9131V13.9258C3.46885 13.5474 2 11.752 2 10V9.5C2 8.67157 2.67157 8 3.5 8H7.36426L6.6709 8.61621ZM7 1.5C8.51878 1.5 9.75 2.73122 9.75 4.25C9.75 5.76878 8.51878 7 7 7C5.48122 7 4.25 5.76878 4.25 4.25C4.25 2.73122 5.48122 1.5 7 1.5ZM7 2.5C6.0335 2.5 5.25 3.2835 5.25 4.25C5.25 5.2165 6.0335 6 7 6C7.9665 6 8.75 5.2165 8.75 4.25C8.75 3.2835 7.9665 2.5 7 2.5Z" fill="#212121"/>
</svg>
