<?xml version="1.0" encoding="UTF-8"?>
<svg width="24px" height="24px" viewBox="0 0 24 24" version="1.1" xmlns="http://www.w3.org/2000/svg" xmlns:xlink="http://www.w3.org/1999/xlink">
    <!-- Generator: Sketch 59.1 (86144) - https://sketch.com -->
    <title>ic_unpin_24_filled</title>
    <desc>Created with Sketch.</desc>
    <g id="ðŸ”-Product-Icons" stroke="none" stroke-width="1" fill="none" fill-rule="evenodd">
        <g id="ic_unpin_24_filled" fill="#212121" fill-rule="nonzero">
            <path d="M20.8037883,2.14705176 L20.7196699,2.21966991 L2.21966991,20.7196699 C1.95340335,20.9859365 1.9291973,21.4026002 2.14705176,21.6962117 L2.21966991,21.7803301 C2.48593648,22.0465966 2.90260016,22.0708027 3.19621165,21.8529482 L3.28033009,21.7803301 L8.904,16.157 L10.0497967,19.0281023 C10.2361837,19.4949263 10.8114516,19.6418329 11.1970227,19.3498001 L11.2765307,19.2804598 L14.514,16.044 L19.4653821,21.0033919 L20.5303066,21.0000349 L20.5282663,19.9449584 L15.575,14.984 L18.7802004,11.7804598 C19.1357511,11.4250829 19.0438906,10.8384375 18.6234268,10.5992801 L18.5283411,10.5535617 L15.656,9.405 L21.7803301,3.28033009 C22.0465966,3.01406352 22.0708027,2.59739984 21.8529482,2.30378835 L21.7803301,2.21966991 C21.5140635,1.95340335 21.0973998,1.9291973 20.8037883,2.14705176 Z M7.39134407,2.64217561 L7.26617856,2.76585982 L2.50114608,7.85141444 C2.38115462,7.97947718 2.27655779,8.12113853 2.18948857,8.27350967 C1.59977146,9.3055146 1.9170878,10.6078905 2.89001154,11.2587418 L3.02672303,11.3433693 L7.129,13.686 L13.216,7.599 L10.8933622,3.24544412 C10.7773488,3.02791898 10.6263749,2.8309387 10.446476,2.66237809 C9.62831906,1.89578635 8.38922768,1.85857225 7.53076024,2.52465439 L7.39134407,2.64217561 Z" id="ðŸŽ¨-Color"></path>
        </g>
    </g>
</svg>