<svg width="20" height="20" viewBox="0 0 20 20" fill="none" xmlns="http://www.w3.org/2000/svg">
<path d="M10 2C14.4183 2 18 5.58172 18 10C18 14.4183 14.4183 18 10 18C5.58172 18 2 14.4183 2 10C2 5.58172 5.58172 2 10 2ZM10 3C6.13401 3 3 6.13401 3 10C3 13.866 6.13401 17 10 17C13.866 17 17 13.866 17 10C17 6.13401 13.866 3 10 3ZM10 5.5C10.2045 5.5 10.3879 5.62462 10.4639 5.81445L13.4639 13.3145C13.5664 13.5708 13.4419 13.8613 13.1855 13.9639C12.9292 14.0664 12.6387 13.9419 12.5361 13.6855L11.6611 11.498C11.655 11.4983 11.6488 11.5 11.6426 11.5H8.5C8.44658 11.5 8.39592 11.4891 8.34766 11.4736L7.46387 13.6855C7.36131 13.9419 7.07084 14.0664 6.81445 13.9639C6.55806 13.8613 6.43358 13.5708 6.53613 13.3145L9.53613 5.81445L9.56934 5.74609C9.65822 5.59524 9.8212 5.5 10 5.5ZM8.73828 10.5H11.2617L10 7.34473L8.73828 10.5Z" fill="#212121"/>
</svg>
