<svg width="20" height="20" viewBox="0 0 20 20" fill="none" xmlns="http://www.w3.org/2000/svg">
<path d="M6 3C4.34315 3 3 4.34315 3 6V14C3 15.6569 4.34315 17 6 17H14C15.6569 17 17 15.6569 17 14V6C17 4.34315 15.6569 3 14 3H6ZM16 7.76389C15.4692 7.28885 14.7684 7 14 7H10C8.34315 7 7 8.34315 7 10V14C7 14.7684 7.28885 15.4692 7.76389 16H6C4.89543 16 4 15.1046 4 14V6C4 4.89543 4.89543 4 6 4H14C15.1046 4 16 4.89543 16 6V7.76389ZM10 16C8.89543 16 8 15.1046 8 14V10C8 8.89543 8.89543 8 10 8H14C15.1046 8 16 8.89543 16 10V14C16 15.1046 15.1046 16 14 16H10Z" fill="#212121"/>
</svg>
