<svg width="20" height="20" viewBox="0 0 20 20" fill="none" xmlns="http://www.w3.org/2000/svg">
<path d="M9 3C10.1046 3 11 3.89543 11 5V6H7V5C7 3.89543 7.89543 3 9 3ZM6 5V6H5.5C4.67157 6 4 6.67157 4 7.5V13.5C4 14.3284 4.67157 15 5.5 15H12.5C13.3284 15 14 14.3284 14 13.5V7.5C14 6.67157 13.3284 6 12.5 6H12V5C12 3.34315 10.6569 2 9 2C7.34315 2 6 3.34315 6 5ZM5 7.5C5 7.22386 5.22386 7 5.5 7H12.5C12.7761 7 13 7.22386 13 7.5V13.5C13 13.7761 12.7761 14 12.5 14H5.5C5.22386 14 5 13.7761 5 13.5V7.5ZM7.50058 17C6.84748 17 6.29186 16.5826 6.08594 16H12.5006C13.8813 16 15.0006 14.8807 15.0006 13.5V8.08533C15.5832 8.29125 16.0006 8.84686 16.0006 9.49997V13.5C16.0006 15.433 14.4336 17 12.5006 17H7.50058ZM9 11.5C9.55228 11.5 10 11.0523 10 10.5C10 9.94772 9.55228 9.5 9 9.5C8.44772 9.5 8 9.94772 8 10.5C8 11.0523 8.44772 11.5 9 11.5Z" fill="#212121"/>
</svg>
