<svg width="32" height="32" viewBox="0 0 32 32" fill="none" xmlns="http://www.w3.org/2000/svg">
<path d="M20 10C20 12.2091 18.2091 14 16 14C13.7909 14 12 12.2091 12 10C12 7.79086 13.7909 6 16 6C18.2091 6 20 7.79086 20 10ZM10 24C9.44772 24 9 24.4477 9 25C9 25.5523 9.44772 26 10 26H22C22.5523 26 23 25.5523 23 25C23 24.4477 22.5523 24 22 24H10ZM5 5.5C5 3.567 6.567 2 8.5 2H23.5C25.433 2 27 3.567 27 5.5V26.5C27 28.433 25.433 30 23.5 30H8.5C6.567 30 5 28.433 5 26.5V5.5ZM8.5 4C7.67157 4 7 4.67157 7 5.5V20H10V17C10 15.8954 10.8954 15 12 15H20C21.1046 15 22 15.8954 22 17V20H25V5.5C25 4.67157 24.3284 4 23.5 4H8.5ZM7 26.5C7 27.3284 7.67157 28 8.5 28H23.5C24.3284 28 25 27.3284 25 26.5V22H7V26.5Z" fill="#212121"/>
</svg>
