<svg width="28" height="28" viewBox="0 0 28 28" fill="none" xmlns="http://www.w3.org/2000/svg">
<path d="M16.4082 4.17156C15.3626 2.27623 12.6385 2.27612 11.5926 4.17137L2.35009 20.9208C1.33871 22.7536 2.66449 24.9994 4.75784 24.9994H23.2412C25.3345 24.9994 26.6602 22.7538 25.6491 20.921L16.4082 4.17156ZM15 20C15 20.5523 14.5523 21 14 21C13.4477 21 13 20.5523 13 20C13 19.4477 13.4477 19 14 19C14.5523 19 15 19.4477 15 20ZM13.25 16.75V10.25C13.25 9.83579 13.5858 9.5 14 9.5C14.4142 9.5 14.75 9.83579 14.75 10.25V16.75C14.75 17.1642 14.4142 17.5 14 17.5C13.5858 17.5 13.25 17.1642 13.25 16.75Z" fill="#212121"/>
</svg>
