<svg width="48" height="48" viewBox="0 0 48 48" fill="none" xmlns="http://www.w3.org/2000/svg">
<path d="M24 4C35.0457 4 44 12.9543 44 24C44 35.0457 35.0457 44 24 44C12.9543 44 4 35.0457 4 24C4 12.9543 12.9543 4 24 4Z" fill="url(#paint0_linear_378174_10123)"/>
<path d="M32.6339 17.6161C33.122 18.1043 33.122 18.8957 32.6339 19.3839L21.6339 30.3839C21.1457 30.872 20.3543 30.872 19.8661 30.3839L15.3661 25.8839C14.878 25.3957 14.878 24.6043 15.3661 24.1161C15.8543 23.628 16.6457 23.628 17.1339 24.1161L20.75 27.7322L30.8661 17.6161C31.3543 17.128 32.1457 17.128 32.6339 17.6161Z" fill="url(#paint1_linear_378174_10123)"/>
<defs>
<linearGradient id="paint0_linear_378174_10123" x1="5.42857" y1="11.5" x2="33.0334" y2="40.1803" gradientUnits="userSpaceOnUse">
<stop stop-color="#52D17C"/>
<stop offset="1" stop-color="#22918B"/>
</linearGradient>
<linearGradient id="paint1_linear_378174_10123" x1="18.375" y1="18.6271" x2="21.586" y2="33.7408" gradientUnits="userSpaceOnUse">
<stop stop-color="white"/>
<stop offset="1" stop-color="#E3FFD9"/>
</linearGradient>
</defs>
</svg>
