<svg width="24" height="24" viewBox="0 0 24 24" fill="none" xmlns="http://www.w3.org/2000/svg">
<path d="M5.95858 3.41559C5.81874 3.0215 5.44846 2.75603 5.03033 2.7501C4.61221 2.74417 4.23454 2.99904 4.08359 3.38901L1.56746 9.88901C1.36809 10.404 1.62399 10.9832 2.13903 11.1826C2.65407 11.3819 3.23322 11.126 3.43259 10.611L3.65039 10.0483L6.18996 10.0483L6.38018 10.5844C6.56487 11.1049 7.13653 11.3771 7.65702 11.1924C8.1775 11.0077 8.44972 10.4361 8.26503 9.91559L5.95858 3.41559ZM5.48028 8.04834L4.42459 8.04834L4.97538 6.62545L5.48028 8.04834Z" fill="#212121"/>
<path d="M9 3.75C9 3.19772 9.44771 2.75 10 2.75L10.0137 2.75009H12.1625L12.1855 2.75005C12.4044 2.74949 13.0423 2.74786 13.6372 3.08017C13.9682 3.26504 14.2812 3.54865 14.5036 3.96053C14.7224 4.36567 14.825 4.84171 14.825 5.3751C14.825 5.903 14.7095 6.34804 14.5136 6.71264C14.6466 6.84003 14.7701 6.98988 14.877 7.1655C15.1292 7.57958 15.25 8.07237 15.25 8.62508C15.25 9.16071 15.1211 9.63681 14.8702 10.0369C14.6218 10.4333 14.2885 10.6999 13.9618 10.8755C13.3374 11.2112 12.6734 11.2501 12.375 11.2501H10C9.44772 11.2501 9 10.8023 9 10.25V3.75ZM12.1687 6.00007C12.3002 5.99921 12.497 5.97097 12.6311 5.88967C12.6848 5.85712 12.7216 5.82047 12.7496 5.76996C12.7782 5.71858 12.825 5.6036 12.825 5.3751C12.825 5.09599 12.7718 4.96265 12.7438 4.91076C12.7194 4.8656 12.6947 4.84452 12.662 4.82627C12.5521 4.76488 12.3846 4.75009 12.1625 4.75009H11V6.00007H12.1687ZM12.1733 8.00007C12.1696 8.00009 12.166 8.00009 12.1625 8.00009H11L11 9.25007H12.375C12.5454 9.25007 12.8189 9.21926 13.0147 9.11396C13.0983 9.06904 13.1458 9.02223 13.1757 8.97462C13.2032 8.93077 13.25 8.83231 13.25 8.62508C13.25 8.36529 13.195 8.2487 13.1689 8.20574C13.1439 8.16477 13.1094 8.13146 13.0445 8.09933C12.8701 8.01298 12.6257 8.00007 12.375 8.00007H12.1733Z" fill="#212121"/>
<path d="M20.6377 3.04724C21.3269 3.38515 21.8463 4.01583 22.1906 4.97096C22.378 5.49051 22.1086 6.06353 21.5891 6.25084C21.0695 6.43815 20.4965 6.16882 20.3092 5.64927C20.0911 5.0444 19.8635 4.89508 19.7572 4.84299C19.5982 4.76503 19.4074 4.75011 19 4.75011C18.6834 4.75011 18.4977 4.84711 18.3636 4.96627C18.2089 5.10379 18.0736 5.31861 17.9676 5.60125C17.8632 5.87975 17.8066 6.1725 17.7774 6.40542C17.7632 6.51928 17.7563 6.61266 17.753 6.67473C17.7513 6.70561 17.7506 6.72832 17.7502 6.74144L17.75 6.75339C17.75 7.28331 17.7605 7.90785 17.9622 8.42177C18.0561 8.66112 18.1791 8.8403 18.3349 8.96855C18.485 9.09219 18.7185 9.21269 19.1104 9.25623C19.229 9.26941 19.4857 9.26928 19.7364 9.17624C19.9578 9.09406 20.1828 8.94028 20.339 8.59537C20.5668 8.09227 21.1594 7.86911 21.6625 8.09694C22.1656 8.32477 22.3887 8.91731 22.1609 9.42041C21.3223 11.2723 19.4803 11.3096 18.8895 11.244C18.1564 11.1625 17.5462 10.9099 17.0635 10.5125C16.5865 10.1196 16.2877 9.62973 16.1003 9.15221C15.7951 8.37427 15.7351 7.51969 15.7509 6.6914C15.7516 6.66058 15.7531 6.61883 15.7558 6.56769C15.7613 6.46569 15.772 6.32469 15.7929 6.15731C15.8341 5.82772 15.9181 5.37048 16.095 4.89897C16.2702 4.43162 16.5568 3.89644 17.0349 3.47145C17.5337 3.02812 18.1917 2.75011 19 2.75011C19.0147 2.75011 19.0299 2.75009 19.0457 2.75006C19.4034 2.74944 20.0282 2.74835 20.6377 3.04724Z" fill="#212121"/>
<path d="M17.8874 14.9284C17.7885 15.0156 17.7337 15.129 17.7116 15.2064C17.5599 15.7374 17.0065 16.045 16.4754 15.8934C15.9444 15.7417 15.6368 15.1883 15.7884 14.6572C15.8901 14.3013 16.1162 13.8238 16.5644 13.4285C17.0316 13.0164 17.6774 12.75 18.5 12.75C20.2072 12.75 21.25 14.0133 21.25 15.2273C21.25 15.6508 21.1712 16.3396 20.7069 16.9454C20.7504 16.9958 20.7923 17.049 20.8324 17.1053C21.1065 17.49 21.25 17.9554 21.25 18.4773C21.25 19.3781 20.9426 20.1246 20.3482 20.6264C19.784 21.1026 19.0889 21.25 18.5 21.25C17.9618 21.25 17.3843 21.1612 16.8713 20.8364C16.3392 20.4995 16 19.9881 15.8001 19.3808C15.6275 18.8561 15.9128 18.2909 16.4374 18.1183C16.962 17.9457 17.5273 18.231 17.6999 18.7556C17.7917 19.0346 17.89 19.1142 17.9412 19.1466C18.0115 19.1911 18.1632 19.25 18.5 19.25C18.7861 19.25 18.966 19.1758 19.0581 19.0981C19.1199 19.0459 19.25 18.906 19.25 18.4773C19.25 18.3344 19.2156 18.2827 19.2035 18.2658C19.1846 18.2392 19.1402 18.194 19.0365 18.1454C18.8036 18.0362 18.4699 18 18.2083 18C17.656 18 17.2083 17.5523 17.2083 17C17.2083 16.4477 17.656 16 18.2083 16C18.8757 16 19.062 15.8013 19.1145 15.7351C19.2019 15.6252 19.25 15.4458 19.25 15.2273C19.25 15.1412 19.1261 14.75 18.5 14.75C18.1347 14.75 17.9674 14.8578 17.8874 14.9284Z" fill="#212121"/>
<path d="M10.75 15.5227C10.75 15.1146 11.0994 14.75 11.4858 14.75C11.8183 14.75 12.0624 14.9061 12.1696 15.0708C12.2467 15.1893 12.34 15.443 12.07 15.9025C11.943 16.1188 11.7441 16.3239 11.4491 16.5569C11.3023 16.6728 11.144 16.7864 10.9668 16.9116L10.8937 16.9633C10.7416 17.0705 10.5751 17.188 10.4144 17.3089C9.65191 17.8827 8.75 18.7329 8.75 20.25C8.75 20.8023 9.19772 21.25 9.75 21.25C9.75269 21.25 9.75537 21.25 9.75806 21.25C9.76074 21.25 9.76343 21.25 9.76611 21.25H13.2003C13.7526 21.25 14.2003 20.8023 14.2003 20.25C14.2003 19.6977 13.7526 19.25 13.2003 19.25H11.2062C11.3197 19.1403 11.456 19.0281 11.617 18.907C11.7511 18.806 11.8895 18.7084 12.0429 18.6001L12.1211 18.5449C12.2999 18.4185 12.4964 18.2782 12.6887 18.1264C13.0717 17.8239 13.4875 17.4381 13.7945 16.9156C14.3923 15.8979 14.3937 14.8221 13.8461 13.9803C13.3287 13.1848 12.4157 12.75 11.4858 12.75C9.85233 12.75 8.75 14.1581 8.75 15.5227C8.75 16.075 9.19772 16.5227 9.75 16.5227C10.3023 16.5227 10.75 16.075 10.75 15.5227Z" fill="#212121"/>
<path d="M5.02344 16.7916C4.95141 16.8451 4.87847 16.8965 4.80481 16.9457C4.34528 17.252 3.72441 17.1278 3.41806 16.6683C3.1117 16.2088 3.23588 15.5879 3.69541 15.2816C4.4191 14.7991 4.93623 14.0378 5.04593 13.5363C5.15545 13.0356 5.62234 12.7053 6.12016 12.7546C6.62706 12.8033 7.02344 13.2303 7.02344 13.75V20.25C7.02344 20.8023 6.57572 21.25 6.02344 21.25C5.47115 21.25 5.02344 20.8023 5.02344 20.25V16.7916Z" fill="#212121"/>
</svg>
