<svg width="24" height="24" viewBox="0 0 24 24" fill="none" xmlns="http://www.w3.org/2000/svg">
<path d="M3 2.25C2.44772 2.25 2 2.69772 2 3.25V9C2 9.55228 2.44772 10 3 10H8.25C8.80228 10 9.25 9.55228 9.25 9C9.25 8.44772 8.80228 8 8.25 8H4.86322C5.84764 6.82148 7.07149 5.88667 8.54543 5.43056C10.5599 4.80719 12.6883 4.86076 14.6512 5.5909C16.6322 6.3278 18.4615 7.82215 19.373 9.48443C19.6385 9.96869 20.2463 10.146 20.7306 9.88048C21.2149 9.61495 21.3922 9.00712 21.1267 8.52286C19.9517 6.38003 17.7122 4.59567 15.3485 3.71639C12.9665 2.83033 10.3848 2.76779 7.9542 3.51995C6.37802 4.00769 5.0679 4.8994 4 5.97875V3.25C4 2.69772 3.55228 2.25 3 2.25ZM9.75015 12C9.75015 11.5806 9.48843 11.2057 9.0947 11.0612C8.70097 10.9167 8.2589 11.0333 7.98758 11.3531C7.91356 11.4403 7.84033 11.5288 7.76611 11.6185C7.25079 12.2412 6.68817 12.921 5.48566 13.6425C5.01208 13.9266 4.85851 14.5409 5.14266 15.0145C5.42681 15.4881 6.04107 15.6416 6.51465 15.3575C6.9978 15.0676 7.40387 14.7762 7.75015 14.4929V19.9998C7.75015 20.5521 8.19795 20.9998 8.75028 20.9998C9.30252 20.9997 9.75015 20.552 9.75015 19.9998V12ZM16.25 11C14.8639 11 13.8505 11.6354 13.2417 12.6611C12.678 13.6107 12.5 14.8223 12.5 16C12.5 17.1777 12.678 18.3893 13.2417 19.3389C13.8505 20.3646 14.8639 21 16.25 21C17.6361 21 18.6495 20.3646 19.2583 19.3389C19.822 18.3893 20 17.1777 20 16C20 14.8223 19.822 13.6107 19.2583 12.6611C18.6495 11.6354 17.6361 11 16.25 11ZM14.5 16C14.5 14.9686 14.6658 14.1802 14.9615 13.682C15.212 13.26 15.5736 13 16.25 13C16.9264 13 17.288 13.26 17.5385 13.682C17.8342 14.1802 18 14.9686 18 16C18 17.0314 17.8342 17.8198 17.5385 18.318C17.288 18.74 16.9264 19 16.25 19C15.5736 19 15.212 18.74 14.9615 18.318C14.6658 17.8198 14.5 17.0314 14.5 16Z" fill="#212121"/>
</svg>
