<svg width="16" height="16" viewBox="0 0 16 16" fill="none" xmlns="http://www.w3.org/2000/svg">
<path d="M3.11856 4.21041C3.44414 4.02988 4.12523 3.90894 4.70423 4.04841C4.97825 4.11442 5.17348 4.22582 5.2959 4.35928C5.34992 4.41818 5.4009 4.49312 5.43898 4.59277C5.36346 4.58323 5.28529 4.57429 5.20511 4.56627C4.86661 4.53243 4.47736 4.51356 4.09271 4.54103C3.71614 4.56792 3.29383 4.64236 2.92017 4.82914C2.31585 5.13122 1.8675 5.53348 1.63088 6.07434C1.39871 6.60504 1.42155 7.15449 1.52007 7.64709C1.64253 8.25938 2.08438 9.04192 3.01961 9.37018C3.70326 9.61014 4.53683 9.56666 5.52735 9.1829C5.60903 9.50867 5.90377 9.74991 6.25486 9.74991C6.66908 9.74991 7.00486 9.4133 7.00486 8.99909V8.03327C7.00589 8.01071 7.00589 7.98805 7.00486 7.96538V5.53434C7.00596 5.51094 7.00595 5.48765 7.00486 5.46454V4.99984C7.00486 4.33103 6.79043 3.76959 6.40133 3.34537C6.02374 2.9337 5.53148 2.70478 5.0555 2.59013C4.1345 2.36828 3.06559 2.52462 2.39117 2.89857C2.02892 3.09944 1.89808 3.55593 2.09895 3.91818C2.29981 4.28044 2.75631 4.41127 3.11856 4.21041ZM5.50486 6.11707V7.5524C4.43009 8.09248 3.81762 8.06056 3.5164 7.95483C3.19329 7.84142 3.03515 7.57396 2.99094 7.35291C2.92279 7.01217 2.94563 6.81155 3.00513 6.67555C3.06018 6.54971 3.19517 6.36864 3.59084 6.17086C3.71718 6.10771 3.91987 6.05719 4.19955 6.03722C4.47114 6.01782 4.76939 6.03019 5.0559 6.05883C5.21659 6.0749 5.36893 6.0956 5.50486 6.11707ZM11.4874 6.15365C11.5723 5.74823 11.3125 5.35074 10.9071 5.26583C10.5017 5.18092 10.1042 5.44075 10.0193 5.84616C9.96971 6.08281 9.925 6.31215 9.88507 6.53526C9.53034 6.52468 9.18314 6.49441 8.83803 6.45726C8.42619 6.41293 8.0564 6.71085 8.01207 7.12269C7.96774 7.53452 8.26566 7.90432 8.6775 7.94865C8.99844 7.98319 9.33259 8.01352 9.68127 8.02882C9.65604 8.31488 9.64036 8.59335 9.63404 8.86737C9.40436 8.95794 9.1874 9.06377 8.98592 9.18336C7.94967 9.79843 7.16143 10.9172 7.58605 12.2307C7.80516 12.9084 8.30292 13.3327 8.88271 13.5296C9.39298 13.703 9.95618 13.7009 10.4794 13.5959C10.664 13.774 10.9353 13.8527 11.2004 13.7795C11.5138 13.6929 11.7255 13.4199 11.7488 13.1134C12.4383 12.7157 13.0394 12.1077 13.2757 11.3128C13.3676 11.004 13.4423 10.727 13.5031 10.4794C13.8586 10.7471 14.0355 11.0947 14.0579 11.4019C14.0907 11.8498 13.8089 12.5776 12.4823 13.0806C12.095 13.2274 11.9 13.6604 12.0468 14.0477C12.1937 14.4351 12.6267 14.63 13.014 14.4832C14.7224 13.8355 15.6513 12.626 15.554 11.2927C15.4774 10.2441 14.7757 9.36614 13.7601 8.90218L13.7606 8.88318C13.762 8.82599 13.7615 8.77975 13.7602 8.74357C13.7596 8.72548 13.7587 8.70989 13.7578 8.6967L13.7565 8.67868L13.7558 8.67099L13.7554 8.66747L13.7553 8.6658L13.7551 8.66417C13.7132 8.25209 13.3451 7.95204 12.933 7.994C12.6199 8.02588 12.3715 8.24597 12.2886 8.53059C11.9001 8.48975 11.5179 8.4871 11.149 8.51874C11.1592 8.34243 11.1736 8.16327 11.1923 7.98016C11.8388 7.90442 12.53 7.74722 13.2719 7.45965C13.6581 7.30995 13.8498 6.8755 13.7001 6.48929C13.5504 6.10307 13.116 5.91134 12.7297 6.06104C12.2752 6.23724 11.8446 6.35469 11.4313 6.42909C11.4492 6.33856 11.4679 6.24678 11.4874 6.15365ZM9.01332 11.7693C8.8915 11.3925 9.03742 10.9135 9.70875 10.4992C9.77002 11.0351 9.86701 11.5787 9.99829 12.1549C9.74352 12.1847 9.5259 12.1639 9.36519 12.1093C9.17587 12.045 9.06871 11.9406 9.01332 11.7693ZM11.838 10.8853C11.7717 11.1083 11.6155 11.332 11.3964 11.5292C11.2866 11.0061 11.2103 10.5133 11.1685 10.0239C11.4545 9.99196 11.7578 9.98742 12.0718 10.0163C12.0134 10.263 11.9373 10.5514 11.838 10.8853Z" fill="#212121"/>
</svg>
