<svg width="48" height="48" viewBox="0 0 48 48" fill="none" xmlns="http://www.w3.org/2000/svg">
<path d="M6.5 13.25C6.5 10.6266 8.62665 8.5 11.25 8.5H36.75C39.3734 8.5 41.5 10.6266 41.5 13.25V28.75C41.5 31.3734 39.3734 33.5 36.75 33.5H25.6033L14.5 41.3376V33.5H11.25C8.62665 33.5 6.5 31.3734 6.5 28.75V13.25ZM11.25 6C7.24594 6 4 9.24594 4 13.25V28.75C4 32.7541 7.24594 36 11.25 36H12V41.8201C12 43.6444 14.0571 44.7103 15.5475 43.6583L26.3967 36H36.75C40.7541 36 44 32.7541 44 28.75V13.25C44 9.24593 40.7541 6 36.75 6H11.25ZM22.25 23.5H35.75C36.4404 23.5 37 22.9404 37 22.25C37 21.5596 36.4404 21 35.75 21H22.25C21.5596 21 21 21.5596 21 22.25C21 22.9404 21.5596 23.5 22.25 23.5ZM16.75 21H12.25C11.5596 21 11 21.5596 11 22.25C11 22.9404 11.5596 23.5 12.25 23.5H16.75C17.4404 23.5 18 22.9404 18 22.25C18 21.5596 17.4404 21 16.75 21ZM12.25 26.5C11.5596 26.5 11 27.0596 11 27.75C11 28.4404 11.5596 29 12.25 29H26.75C27.4404 29 28 28.4404 28 27.75C28 27.0596 27.4404 26.5 26.75 26.5H12.25ZM32.25 29C31.5596 29 31 28.4404 31 27.75C31 27.0596 31.5596 26.5 32.25 26.5H35.75C36.4404 26.5 37 27.0596 37 27.75C37 28.4404 36.4404 29 35.75 29H32.25Z" fill="#212121"/>
</svg>
