<svg width="32" height="32" viewBox="0 0 32 32" fill="none" xmlns="http://www.w3.org/2000/svg">
<path d="M2 7.25C2 5.45508 3.45507 4 5.25 4H26.75C28.5449 4 30 5.45508 30 7.25V24.75C30 26.5449 28.5449 28 26.75 28H5.25C3.45507 28 2 26.5449 2 24.75V7.25ZM5.25 6C4.55964 6 4 6.55964 4 7.25V24.75C4 25.4404 4.55964 26 5.25 26H8V22.5C8 21.1193 9.11929 20 10.5 20H21.5C22.8807 20 24 21.1193 24 22.5V26H26.75C27.4404 26 28 25.4404 28 24.75V7.25C28 6.55964 27.4404 6 26.75 6H5.25ZM22 26V22.5C22 22.2239 21.7761 22 21.5 22H10.5C10.2239 22 10 22.2239 10 22.5V26H22ZM16 16C14.3431 16 13 14.6569 13 13C13 11.3431 14.3431 10 16 10C17.6569 10 19 11.3431 19 13C19 14.6569 17.6569 16 16 16ZM16 18C18.7614 18 21 15.7614 21 13C21 10.2386 18.7614 8 16 8C13.2386 8 11 10.2386 11 13C11 15.7614 13.2386 18 16 18Z" fill="#212121"/>
</svg>
