<svg width="20" height="20" viewBox="0 0 20 20" fill="none" xmlns="http://www.w3.org/2000/svg">
<path d="M2 4.75C2 4.33579 2.33579 4 2.75 4H13.25C13.6642 4 14 4.33579 14 4.75C14 5.16421 13.6642 5.5 13.25 5.5H2.75C2.33579 5.5 2 5.16421 2 4.75ZM2 14.75C2 14.3358 2.33579 14 2.75 14H12.25C12.6642 14 13 14.3358 13 14.75C13 15.1642 12.6642 15.5 12.25 15.5H2.75C2.33579 15.5 2 15.1642 2 14.75ZM2.75 9C2.33579 9 2 9.33579 2 9.75C2 10.1642 2.33579 10.5 2.75 10.5H17.25C17.6642 10.5 18 10.1642 18 9.75C18 9.33579 17.6642 9 17.25 9H2.75Z" fill="#212121"/>
</svg>
