<svg width="24" height="24" viewBox="0 0 24 24" fill="none" xmlns="http://www.w3.org/2000/svg">
<path d="M5.75 2C5.33579 2 5 2.33579 5 2.75V18.25C5 18.6642 5.33579 19 5.75 19C6.16421 19 6.5 18.6642 6.5 18.25V2.75C6.5 2.33579 6.16421 2 5.75 2ZM18.75 2C18.3358 2 18 2.33579 18 2.75V13.25C18 13.6642 18.3358 14 18.75 14C19.1642 14 19.5 13.6642 19.5 13.25V2.75C19.5 2.33579 19.1642 2 18.75 2ZM11.5 2.75C11.5 2.33579 11.8358 2 12.25 2C12.6642 2 13 2.33579 13 2.75V21.25C13 21.6642 12.6642 22 12.25 22C11.8358 22 11.5 21.6642 11.5 21.25V2.75Z" fill="#212121"/>
</svg>
