<svg width="20" height="20" viewBox="0 0 20 20" fill="none" xmlns="http://www.w3.org/2000/svg">
<path d="M4.5 14C4.22386 14 4 13.7761 4 13.5V2.5C4 2.22386 4.22386 2 4.5 2C4.77614 2 5 2.22386 5 2.5V13.5C5 13.7761 4.77614 14 4.5 14ZM9.5 18C9.22386 18 9 17.7761 9 17.5V2.5C9 2.22386 9.22386 2 9.5 2C9.77614 2 10 2.22386 10 2.5V17.5C10 17.7761 9.77614 18 9.5 18ZM14 10.5C14 10.7761 14.2239 11 14.5 11C14.7761 11 15 10.7761 15 10.5V2.5C15 2.22386 14.7761 2 14.5 2C14.2239 2 14 2.22386 14 2.5V10.5Z" fill="#212121"/>
</svg>
