<?xml version="1.0" encoding="UTF-8"?>
<svg width="24px" height="24px" viewBox="0 0 24 24" version="1.1" xmlns="http://www.w3.org/2000/svg" xmlns:xlink="http://www.w3.org/1999/xlink">
    <!-- Generator: Sketch 64 (93537) - https://sketch.com -->
    <title>ic_fluent_book_formula_lookup_24_regular</title>
    <desc>Created with Sketch.</desc>
    <g id="ðŸ”-System-Icons" stroke="none" stroke-width="1" fill="none" fill-rule="evenodd">
        <g id="ic_fluent_book_formula_lookup_24_regular" fill="#212121" fill-rule="nonzero">
            <path d="M18,2 C19.3807,2 20.5,3.11929 20.5,4.5 L20.5,4.5 L20.5,18.75 C20.5,19.1642 20.1642,19.5 19.75,19.5 L19.75,19.5 L5.5,19.5 C5.5,20.0523 5.94772,20.5 6.5,20.5 L6.5,20.5 L19.75,20.5 C20.1642,20.5 20.5,20.8358 20.5,21.25 C20.5,21.6642 20.1642,22 19.75,22 L19.75,22 L6.5,22 C5.11929,22 4,20.8807 4,19.5 L4,19.5 L4,4.5 C4,3.11929 5.11929,2 6.5,2 L6.5,2 Z M18,3.5 L6.5,3.5 C5.94772,3.5 5.5,3.94772 5.5,4.5 L5.5,4.5 L5.5,18 L19,18 L19,4.5 C19,3.94772 18.5523,3.5 18,3.5 L18,3.5 Z M11.7237,6 C13.7802,6 15.4474,7.66715 15.4474,9.72368 C15.4474,10.49 15.2156,11.2028 14.8185,11.795 L14.8185,11.795 L17.288,14.2646 C17.5707,14.5472 17.5707,15.0054 17.288,15.288 C17.031,15.5451 16.629,15.5682 16.3455,15.3579 L16.3455,15.3579 L16.3381,15.3524 L16.2711,15.2945 L13.795,12.8185 C13.2028,13.2156 12.49,13.4474 11.7237,13.4474 C9.66715,13.4474 8,11.7802 8,9.72368 C8,7.66715 9.66715,6 11.7237,6 Z M11.7237,7.44737 C10.4665,7.44737 9.44737,8.46651 9.44737,9.72368 C9.44737,10.9809 10.4665,12 11.7237,12 C12.9809,12 14,10.9809 14,9.72368 C14,8.46651 12.9809,7.44737 11.7237,7.44737 Z" id="ðŸŽ¨-Color"></path>
        </g>
    </g>
</svg>