<svg width="48" height="48" viewBox="0 0 48 48" fill="none" xmlns="http://www.w3.org/2000/svg">
<path d="M16 21.1786C16 22.7368 17.2632 24 18.8214 24H29.1786C30.7368 24 32 22.7368 32 21.1786C32 18.3185 29.6815 16 26.8214 16H21.1786C18.3185 16 16 18.3185 16 21.1786ZM21.1786 18.5H26.8214C28.3008 18.5 29.5 19.6992 29.5 21.1786C29.5 21.3561 29.3561 21.5 29.1786 21.5H18.8214C18.6439 21.5 18.5 21.3561 18.5 21.1786C18.5 19.6992 19.6992 18.5 21.1786 18.5Z" fill="#212121"/>
<path d="M24 4C19.8817 4 16.4902 7.11186 16.0487 11.1125C11.2394 13.872 8 19.0577 8 25V38.75C8 41.6495 10.3505 44 13.25 44H34.75C37.6495 44 40 41.6495 40 38.75V25C40 19.0577 36.7606 13.872 31.9513 11.1125C31.5098 7.11186 28.1183 4 24 4ZM37.5 28H10.5V25C10.5 17.5442 16.5442 11.5 24 11.5C31.4558 11.5 37.5 17.5442 37.5 25V28ZM16 30.5V33.75C16 34.4404 16.5596 35 17.25 35C17.9404 35 18.5 34.4404 18.5 33.75V30.5H37.5V38.75C37.5 40.2688 36.2688 41.5 34.75 41.5H13.25C11.7312 41.5 10.5 40.2688 10.5 38.75V30.5H16ZM24 9C22.2362 9 20.539 9.28541 18.9522 9.81256C19.798 7.86336 21.7398 6.5 24 6.5C26.2602 6.5 28.202 7.86336 29.0478 9.81256C27.461 9.28541 25.7638 9 24 9Z" fill="#212121"/>
</svg>
