<svg width="16" height="16" viewBox="0 0 16 16" fill="none" xmlns="http://www.w3.org/2000/svg">
<path d="M4 4.5C4 3.67157 4.67157 3 5.5 3C6.32843 3 7 3.67157 7 4.5C7 5.32843 6.32843 6 5.5 6C4.67157 6 4 5.32843 4 4.5ZM5.5 2C4.11929 2 3 3.11929 3 4.5C3 5.88071 4.11929 7 5.5 7C6.88071 7 8 5.88071 8 4.5C8 3.11929 6.88071 2 5.5 2ZM10.5 5C10.5 4.44772 10.9477 4 11.5 4C12.0523 4 12.5 4.44772 12.5 5C12.5 5.55228 12.0523 6 11.5 6C10.9477 6 10.5 5.55228 10.5 5ZM10.5 6H11.5H12.5C12.7341 6 12.9607 6.03218 13.1756 6.09236C13.3808 5.77833 13.5 5.40309 13.5 5C13.5 3.89543 12.6046 3 11.5 3C10.3954 3 9.5 3.89543 9.5 5C9.5 5.40309 9.61925 5.77833 9.82439 6.09236C10.0393 6.03218 10.2659 6 10.5 6ZM8 8C8.01668 8 8.0333 8.00027 8.04984 8.00081C8.04708 8.01446 8.04442 8.02815 8.04188 8.04188C7.41412 8.15814 6.86866 8.50895 6.49982 9H3C2.72386 9 2.5 9.22386 2.5 9.5V9.58971L2.50027 9.59656C2.50071 9.60562 2.50175 9.62229 2.50416 9.64547C2.50899 9.69201 2.51921 9.76366 2.54061 9.85193C2.58359 10.0292 2.66982 10.2662 2.84187 10.5028C3.16787 10.951 3.87788 11.5 5.5 11.5C5.67734 11.5 5.84377 11.4934 6 11.4812V12.4836C5.84032 12.4944 5.67375 12.5 5.5 12.5C3.62212 12.5 2.58213 11.8458 2.03313 11.091C1.76768 10.726 1.63516 10.3614 1.56876 10.0875C1.53547 9.95021 1.51835 9.83386 1.50951 9.74881C1.50509 9.7062 1.50271 9.67118 1.50144 9.64499C1.50081 9.63188 1.50045 9.62096 1.50024 9.61238L1.50005 9.60127L1.50001 9.59705L1.5 9.59529L1.5 9.59375V9.5C1.5 8.67157 2.17157 8 3 8H8ZM9 9V8.5C9 7.67157 9.67157 7 10.5 7H12.5C13.3284 7 14 7.67157 14 8.5V9H14.5C15.3284 9 16 9.67157 16 10.5V12H14V11.5C14 11.2239 13.7761 11 13.5 11C13.2239 11 13 11.2239 13 11.5V12H10V11.5C10 11.2239 9.77614 11 9.5 11C9.22386 11 9 11.2239 9 11.5V12H7V10.5C7 9.67157 7.67157 9 8.5 9H9ZM10 8.5V9H13V8.5C13 8.22386 12.7761 8 12.5 8H10.5C10.2239 8 10 8.22386 10 8.5ZM14 13H16V14.5C16 15.3284 15.3284 16 14.5 16H8.5C7.67157 16 7 15.3284 7 14.5V13H9V13.5C9 13.7761 9.22386 14 9.5 14C9.77614 14 10 13.7761 10 13.5V13H13V13.5C13 13.7761 13.2239 14 13.5 14C13.7761 14 14 13.7761 14 13.5V13Z" fill="#212121"/>
</svg>
