<svg width="24" height="24" viewBox="0 0 24 24" fill="none" xmlns="http://www.w3.org/2000/svg">
<path d="M8.99994 16.9997C10.1045 16.9997 10.9999 17.8951 10.9999 18.9997C10.9999 20.1042 10.1045 20.9997 8.99994 20.9997C7.89537 20.9997 6.99994 20.1042 6.99994 18.9997C6.99994 17.8951 7.89537 16.9997 8.99994 16.9997ZM18.9979 9.99966C20.6557 9.99966 21.9999 11.3426 21.9999 12.9997C21.9999 14.6567 20.6557 15.9997 18.9979 15.9997L18.9672 15.9995L18.8654 16.0063L17.6996 16.0067C17.8905 16.3797 17.9981 16.8019 17.9981 17.2492C17.9981 18.7788 16.8454 20.0052 15.3231 20.0052C13.8181 20.0052 12.9075 19.1235 12.6627 17.9023C12.5813 17.4962 12.8446 17.101 13.2507 17.0196C13.6569 16.9382 14.0521 17.2014 14.1335 17.6075C14.2468 18.1729 14.5901 18.5052 15.3231 18.5052C15.9955 18.5052 16.4981 17.9705 16.4981 17.2492C16.4981 16.5611 15.9302 15.9997 15.2254 15.9997L2.73657 16.0063C2.32236 16.0063 1.98657 15.6706 1.98657 15.2563C1.98657 14.8766 2.26873 14.5628 2.6348 14.5132L2.73657 14.5063L15.1236 14.5065L15.2254 14.4997C15.2895 14.4997 15.3532 14.5018 15.4163 14.5061L18.888 14.5077L18.9424 14.5017L19.1426 14.4928C19.9044 14.4201 20.4999 13.7792 20.4999 12.9997C20.4999 12.1714 19.8276 11.4997 18.9979 11.4997C18.2492 11.4997 17.6238 12.0485 17.5132 12.7701L17.4856 13.0085C17.414 13.371 17.0838 13.6337 16.7048 13.6108C16.2913 13.5859 15.9764 13.2305 16.0013 12.817C16.0966 11.2379 17.4082 9.99966 18.9979 9.99966ZM8.99994 18.4997C8.7238 18.4997 8.49994 18.7235 8.49994 18.9997C8.49994 19.2758 8.7238 19.4997 8.99994 19.4997C9.27608 19.4997 9.49994 19.2758 9.49994 18.9997C9.49994 18.7235 9.27608 18.4997 8.99994 18.4997ZM12.0003 3.99902C14.2096 3.99902 16.0006 5.79003 16.0006 7.99934C16.0006 10.2013 14.2215 11.9877 12.0223 11.9997H2.75555C2.34134 11.9997 2.00555 11.6639 2.00555 11.2497C2.00555 10.87 2.28771 10.5562 2.65378 10.5065L2.75555 10.4997H12.0003L12.1647 10.4943C13.4689 10.4097 14.5006 9.32499 14.5006 7.99934C14.5006 6.61845 13.3811 5.49902 12.0003 5.49902C10.6194 5.49902 9.49994 6.61845 9.49994 7.99934C9.49994 8.41355 9.16415 8.74934 8.74994 8.74934C8.33573 8.74934 7.99994 8.41355 7.99994 7.99934C7.99994 5.79003 9.79094 3.99902 12.0003 3.99902ZM4.00555 4.99966C5.11012 4.99966 6.00555 5.89509 6.00555 6.99966C6.00555 8.10423 5.11012 8.99966 4.00555 8.99966C2.90098 8.99966 2.00555 8.10423 2.00555 6.99966C2.00555 5.89509 2.90098 4.99966 4.00555 4.99966ZM19.9999 3.99966C21.1045 3.99966 21.9999 4.89509 21.9999 5.99966C21.9999 7.10423 21.1045 7.99966 19.9999 7.99966C18.8954 7.99966 17.9999 7.10423 17.9999 5.99966C17.9999 4.89509 18.8954 3.99966 19.9999 3.99966ZM4.00555 6.49966C3.72941 6.49966 3.50555 6.72351 3.50555 6.99966C3.50555 7.2758 3.72941 7.49966 4.00555 7.49966C4.28169 7.49966 4.50555 7.2758 4.50555 6.99966C4.50555 6.72351 4.28169 6.49966 4.00555 6.49966ZM19.9999 5.49966C19.7238 5.49966 19.4999 5.72351 19.4999 5.99966C19.4999 6.2758 19.7238 6.49966 19.9999 6.49966C20.2761 6.49966 20.4999 6.2758 20.4999 5.99966C20.4999 5.72351 20.2761 5.49966 19.9999 5.49966Z" fill="#212121"/>
</svg>
