<svg width="16" height="16" viewBox="0 0 16 16" fill="none" xmlns="http://www.w3.org/2000/svg">
<path d="M14 4C14 2.34315 12.6569 1 11 1C9.34315 1 8 2.34315 8 4V6.5C8 6.77614 8.22386 7 8.5 7H11C12.6569 7 14 5.65685 14 4ZM11 2C12.1046 2 13 2.89543 13 4C13 5.10457 12.1046 6 11 6H9V4C9 2.89543 9.89543 2 11 2ZM4 1.0199C2.34315 1.0199 1 2.36304 1 4.0199C1 5.67675 2.34315 7.0199 4 7.0199H6.5C6.77614 7.0199 7 6.79604 7 6.5199V4.0199C7 2.36304 5.65685 1.0199 4 1.0199ZM2 4.0199C2 2.91533 2.89543 2.0199 4 2.0199C5.10457 2.0199 6 2.91533 6 4.0199V6.0199H4C2.89543 6.0199 2 5.12447 2 4.0199ZM4 14C2.34315 14 1 12.6569 1 11C1 9.34315 2.34315 8 4 8H6.5C6.77614 8 7 8.22386 7 8.5V11C7 12.6569 5.65685 14 4 14ZM2 11C2 12.1046 2.89543 13 4 13C5.10457 13 6 12.1046 6 11V9H4C2.89543 9 2 9.89543 2 11ZM11 14C12.6569 14 14 12.6569 14 11C14 9.34315 12.6569 8 11 8H8.5C8.22386 8 8 8.22386 8 8.5V11C8 12.6569 9.34315 14 11 14ZM13 11C13 12.1046 12.1046 13 11 13C9.89543 13 9 12.1046 9 11V9H11C12.1046 9 13 9.89543 13 11Z" fill="#212121"/>
</svg>
