<svg width="16" height="16" viewBox="0 0 16 16" fill="none" xmlns="http://www.w3.org/2000/svg">
<path d="M10 1C8.89543 1 8 1.89543 8 3V6C8 7.10457 8.89543 8 10 8C11.1046 8 12 7.10457 12 6V3C12 1.89543 11.1046 1 10 1ZM10 7C9.44772 7 9 6.55228 9 6V3C9 2.44772 9.44771 2 10 2C10.5523 2 11 2.44772 11 3V6C11 6.55228 10.5523 7 10 7Z" fill="#212121"/>
<path d="M1.5 10C1.22386 10 1 10.2239 1 10.5V14.5C1 14.7761 1.22386 15 1.5 15C1.77614 15 2 14.7761 2 14.5V13H3.5C3.77614 13 4 12.7761 4 12.5C4 12.2239 3.77614 12 3.5 12H2V11H4.5C4.77614 11 5 10.7761 5 10.5C5 10.2239 4.77614 10 4.5 10H1.5Z" fill="#212121"/>
<path d="M6.5 10C6.22386 10 6 10.2239 6 10.5V14.5C6 14.7761 6.22386 15 6.5 15C6.77614 15 7 14.7761 7 14.5V13.5H8.25C9.2165 13.5 10 12.7165 10 11.75C10 10.7835 9.2165 10 8.25 10H6.5ZM8.25 12.5H7V11H8.25C8.66421 11 9 11.3358 9 11.75C9 12.1642 8.66421 12.5 8.25 12.5Z" fill="#212121"/>
<path d="M11 11.5C11 10.6716 11.6716 10 12.5 10H14.5C14.7761 10 15 10.2239 15 10.5C15 10.7761 14.7761 11 14.5 11H12.5C12.2239 11 12 11.2239 12 11.5C12 11.7761 12.2239 12 12.5 12H13.5C14.3284 12 15 12.6716 15 13.5C15 14.3284 14.3284 15 13.5 15H11.5C11.2239 15 11 14.7761 11 14.5C11 14.2239 11.2239 14 11.5 14H13.5C13.7761 14 14 13.7761 14 13.5C14 13.2239 13.7761 13 13.5 13H12.5C11.6716 13 11 12.3284 11 11.5Z" fill="#212121"/>
<path d="M4.99993 4C5.55221 4 5.99993 3.55228 5.99993 3C5.99993 2.44772 5.55221 2 4.99993 2C4.58581 2 4.23048 2.25172 4.07862 2.6105C3.9925 2.81394 3.82084 3 3.59993 3C3.26855 3 2.99092 2.72541 3.08874 2.40881C3.34086 1.59284 4.10116 1 4.99993 1C6.1045 1 6.99993 1.89543 6.99993 3C6.99993 3.59735 6.73805 4.13353 6.32284 4.5C6.73805 4.86647 6.99993 5.40265 6.99993 6C6.99993 7.10457 6.1045 8 4.99993 8C4.10116 8 3.34086 7.40716 3.08874 6.59119C2.99092 6.27459 3.26855 6 3.59993 6C3.82084 6 3.9925 6.18606 4.07862 6.3895C4.23048 6.74828 4.58581 7 4.99993 7C5.55221 7 5.99993 6.55228 5.99993 6C5.99993 5.44772 5.55221 5 4.99993 5C4.72378 5 4.49993 4.77614 4.49993 4.5C4.49993 4.22386 4.72378 4 4.99993 4Z" fill="#212121"/>
</svg>
