<svg width="20" height="21" viewBox="0 0 20 21" fill="none" xmlns="http://www.w3.org/2000/svg">
<path d="M5.5 3.5C4.11929 3.5 3 4.61929 3 6V6.5H17V6C17 4.61929 15.8807 3.5 14.5 3.5H5.5ZM17 7.5H3V15C3 16.3807 4.11929 17.5 5.5 17.5H9V14C9 12.7758 9.87996 11.7571 11.0419 11.5419C11.2571 10.38 12.2758 9.5 13.5 9.5H15.5C16.0628 9.5 16.5822 9.68597 17 9.99982V7.5ZM8 10.5C8 11.0523 7.55228 11.5 7 11.5C6.44772 11.5 6 11.0523 6 10.5C6 9.94771 6.44772 9.5 7 9.5C7.55228 9.5 8 9.94771 8 10.5ZM7 14.5C6.44772 14.5 6 14.0523 6 13.5C6 12.9477 6.44772 12.5 7 12.5C7.55228 12.5 8 12.9477 8 13.5C8 14.0523 7.55228 14.5 7 14.5ZM11 10.5C11 11.0523 10.5523 11.5 10 11.5C9.44771 11.5 9 11.0523 9 10.5C9 9.94771 9.44771 9.5 10 9.5C10.5523 9.5 11 9.94771 11 10.5ZM12 12.5V12C12 11.1716 12.6716 10.5 13.5 10.5H15.5C16.3284 10.5 17 11.1716 17 12V12.5H17.5C18.3284 12.5 19 13.1716 19 14V15.5H17V15C17 14.7239 16.7761 14.5 16.5 14.5C16.2239 14.5 16 14.7239 16 15V15.5H13V15C13 14.7239 12.7761 14.5 12.5 14.5C12.2239 14.5 12 14.7239 12 15V15.5H10V14C10 13.1716 10.6716 12.5 11.5 12.5H12ZM13 12V12.5H16V12C16 11.7239 15.7761 11.5 15.5 11.5H13.5C13.2239 11.5 13 11.7239 13 12ZM17 16.5H19V18C19 18.8284 18.3284 19.5 17.5 19.5H11.5C10.6716 19.5 10 18.8284 10 18V16.5H12V17C12 17.2761 12.2239 17.5 12.5 17.5C12.7761 17.5 13 17.2761 13 17V16.5H16V17C16 17.2761 16.2239 17.5 16.5 17.5C16.7761 17.5 17 17.2761 17 17V16.5Z" fill="#212121"/>
</svg>
