<svg width="16" height="16" viewBox="0 0 16 16" fill="none" xmlns="http://www.w3.org/2000/svg">
<path d="M4.75 3.5C4.05964 3.5 3.5 4.05964 3.5 4.75V7.25H7.25V3.5H4.75ZM8.75 3.5V7.25H12.5V4.75C12.5 4.05964 11.9404 3.5 11.25 3.5H8.75ZM12.5 8.75H8.75V12.5H11.25C11.9404 12.5 12.5 11.9404 12.5 11.25V8.75ZM7.25 12.5V8.75H3.5V11.25C3.5 11.9404 4.05964 12.5 4.75 12.5H7.25ZM2 4.75C2 3.23122 3.23122 2 4.75 2H11.25C12.7688 2 14 3.23122 14 4.75V11.25C14 12.7688 12.7688 14 11.25 14H4.75C3.23122 14 2 12.7688 2 11.25V4.75Z" fill="#212121"/>
</svg>
