<svg width="24" height="24" viewBox="0 0 24 24" fill="none" xmlns="http://www.w3.org/2000/svg">
<path d="M8.25541 6.99986C9.22191 6.99986 10.0054 7.78336 10.0054 8.74986V18.25C10.0054 19.2165 9.22191 20 8.25541 20H3.75098C2.78448 20 2.00098 19.2165 2.00098 18.25V8.74986C2.00098 7.78336 2.78448 6.99986 3.75098 6.99986H8.25541ZM8.25541 8.49986H3.75098C3.61291 8.49986 3.50098 8.61179 3.50098 8.74986V18.25C3.50098 18.3881 3.61291 18.5 3.75098 18.5H8.25541C8.39348 18.5 8.50541 18.3881 8.50541 18.25V8.74986C8.50541 8.61179 8.39348 8.49986 8.25541 8.49986ZM6.25319 16C6.66741 16 7.00319 16.3358 7.00319 16.75C7.00319 17.1297 6.72104 17.4435 6.35497 17.4932L6.25319 17.5H5.75319C5.33898 17.5 5.00319 17.1642 5.00319 16.75C5.00319 16.3703 5.28535 16.0565 5.65142 16.0068L5.75319 16H6.25319ZM19.7504 4C20.9412 4 21.916 4.92516 21.9952 6.09595L22.0004 6.25V14.75C22.0004 15.9409 21.0752 16.9156 19.9044 16.9948L19.7504 17H11V15.5H19.7504C20.13 15.5 20.4438 15.2178 20.4935 14.8518L20.5004 14.75V6.25C20.5004 5.8703 20.2182 5.55651 19.8521 5.50685L19.7504 5.5H8.25035C7.92393 5.5 7.64622 5.70853 7.54316 5.99964L6.01404 6.00044C6.13228 4.92882 7.0031 4.08392 8.08634 4.00589L8.25035 4H19.7504ZM15.2504 13C15.6646 13 16.0004 13.3358 16.0004 13.75C16.0004 14.1642 15.6646 14.5 15.2504 14.5H12.7504C12.3361 14.5 12.0004 14.1642 12.0004 13.75C12.0004 13.3358 12.3361 13 12.7504 13H15.2504Z" fill="#212121"/>
</svg>
