<svg width="24" height="24" viewBox="0 0 24 24" fill="none" xmlns="http://www.w3.org/2000/svg">
<path d="M2 4.75C2 4.33579 2.33579 4 2.75 4H21.25C21.6642 4 22 4.33579 22 4.75C22 5.16421 21.6642 5.5 21.25 5.5H2.75C2.33579 5.5 2 5.16421 2 4.75ZM12 8.75C12 8.33579 12.3358 8 12.75 8H21.25C21.6642 8 22 8.33579 22 8.75C22 9.16421 21.6642 9.5 21.25 9.5H12.75C12.3358 9.5 12 9.16421 12 8.75ZM7.28033 8.21967C7.13968 8.07902 6.94891 8 6.75 8C6.55109 8 6.36032 8.07902 6.21967 8.21967L3.21967 11.2197C2.92678 11.5126 2.92678 11.9874 3.21967 12.2803C3.51256 12.5732 3.98744 12.5732 4.28033 12.2803L6 10.5607V19.25C6 19.6642 6.33579 20 6.75 20C7.16421 20 7.5 19.6642 7.5 19.25V10.5607L9.21967 12.2803C9.51256 12.5732 9.98744 12.5732 10.2803 12.2803C10.5732 11.9874 10.5732 11.5126 10.2803 11.2197L7.28033 8.21967Z" fill="#212121"/>
</svg>
