<svg width="20" height="20" viewBox="0 0 20 20" fill="none" xmlns="http://www.w3.org/2000/svg">
<path d="M10 5.5C10 7.98528 12.0147 10 14.5 10C16.9853 10 19 7.98528 19 5.5C19 3.01472 16.9853 1 14.5 1C12.0147 1 10 3.01472 10 5.5ZM11 5.5C11 3.567 12.567 2 14.5 2C15.2862 2 16.0118 2.2592 16.5961 2.69681L11.6968 7.59609C11.2592 7.0118 11 6.28617 11 5.5ZM14.5 9C13.7138 9 12.9882 8.7408 12.4039 8.30319L17.3032 3.40391C17.7408 3.9882 18 4.71383 18 5.5C18 7.433 16.433 9 14.5 9ZM14.5 11C15.8297 11 17.0491 10.5282 18.0001 9.74277V14.5C18.0001 15.8807 16.8808 17 15.5001 17H4.50008C3.11937 17 2 15.8807 2 14.5V7.373L9.74657 11.931C9.90304 12.023 10.0971 12.023 10.2536 11.931L12.4838 10.6187C13.1081 10.8648 13.7883 11 14.5 11ZM4.50008 4H9.20703C9.07217 4.47683 9 4.97999 9 5.5C9 7.4057 9.96922 9.08503 11.4416 10.0719L10.0001 10.9199L2.01526 6.22293C2.15312 4.9726 3.21302 4 4.50008 4Z" fill="#212121"/>
</svg>
