<svg width="20" height="20" viewBox="0 0 20 20" fill="none" xmlns="http://www.w3.org/2000/svg">
<path d="M14.7519 2.93191C14.9905 2.79277 15.071 2.48661 14.9319 2.24808C14.7927 2.00956 14.4866 1.92899 14.2481 2.06813L2.24806 9.06813C2.09446 9.15774 2 9.32219 2 9.50002V15.5C2 16.8807 3.11929 18 4.5 18H15.5C16.8807 18 18 16.8807 18 15.5V9.50002C18 9.22388 17.7761 9.00002 17.5 9.00002H17V6.50002C17 5.67159 16.3284 5.00002 15.5 5.00002H13.5C12.6716 5.00002 12 5.67159 12 6.50002V7.00002H9.5C8.67157 7.00002 8 7.67159 8 8.50002V9.00002H4.34946L14.7519 2.93191ZM12 8.00002V9.00002H9V8.50002C9 8.22388 9.22386 8.00002 9.5 8.00002H12ZM13 9.00002V6.50002C13 6.22388 13.2239 6.00002 13.5 6.00002H15.5C15.7761 6.00002 16 6.22388 16 6.50002V9.00002H13Z" fill="#212121"/>
</svg>
