<svg width="32" height="32" viewBox="0 0 32 32" fill="none" xmlns="http://www.w3.org/2000/svg">
<path d="M2.24902 6C2.7388 4.82552 3.89797 4 5.24994 4H26.7499C28.1019 4 29.2611 4.82552 29.7509 6H2.24902ZM30 9.5H21.4782C21.8659 10.1055 22.1559 10.7796 22.3261 11.5H30V9.5ZM2 9.5H10.5218C10.1341 10.1055 9.8441 10.7796 9.67393 11.5H2V9.5ZM2 15H9.8135C10.05 15.732 10.4128 16.4072 10.8762 17H2V15ZM2 20.5H7.03513C6.69479 21.0883 6.5 21.7714 6.5 22.5H2V20.5ZM24.9649 20.5C25.3052 21.0883 25.5 21.7714 25.5 22.5H30V20.5H24.9649ZM2.24902 26H6.5V28H5.24994C3.89797 28 2.7388 27.1745 2.24902 26ZM25.5 26V28H26.7499C28.1019 28 29.2611 27.1745 29.7509 26H25.5ZM22.1865 15C21.95 15.732 21.5872 16.4072 21.1238 17H30V15H22.1865ZM16 18C18.7614 18 21 15.7614 21 13C21 10.2386 18.7614 8 16 8C13.2386 8 11 10.2386 11 13C11 15.7614 13.2386 18 16 18ZM8 28V22.5C8 21.1193 9.11929 20 10.5 20H21.5C22.8807 20 24 21.1193 24 22.5V28H8Z" fill="#212121"/>
</svg>
