<svg width="20" height="20" viewBox="0 0 20 20" fill="none" xmlns="http://www.w3.org/2000/svg">
<path d="M10 13C10.5523 13 11 12.5523 11 12C11 11.4477 10.5523 11 10 11C9.44771 11 9 11.4477 9 12C9 12.5523 9.44771 13 10 13ZM6 6H7V5C7 3.34315 8.34315 2 10 2C11.6569 2 13 3.34315 13 5V6H14C15.6569 6 17 7.34315 17 9V9.12601C16.6804 9.04375 16.3453 9 16 9C16 7.89543 15.1046 7 14 7H6C4.89543 7 4 7.89543 4 9V15C4 16.1046 4.89543 17 6 17H13V18H6C4.34315 18 3 16.6569 3 15V9C3 7.34315 4.34315 6 6 6ZM10 3C8.89543 3 8 3.89543 8 5V6H12V5C12 3.89543 11.1046 3 10 3ZM16.8717 15.8706C18.1034 15.4972 19 14.353 19 12.9994C19 11.3426 17.6569 9.99951 16 9.99951C14.3431 9.99951 13 11.3426 13 12.9994C13 14.5683 14.2045 15.8559 15.7393 15.988C15.7392 15.9882 15.7394 15.9879 15.7393 15.988L15.7543 15.9898C15.8353 15.9963 15.9173 15.9997 16 15.9997C16.0827 15.9997 16.1647 15.9963 16.2457 15.9898C16.4616 15.9723 16.6712 15.9314 16.8717 15.8706C16.8718 15.8704 16.8717 15.8708 16.8717 15.8706ZM14 18.7494C14 18.9433 14.2112 19.0634 14.3778 18.9642L16 17.9991L17.6222 18.9642C17.7888 19.0634 18 18.9433 18 18.7494V16.464C17.4117 16.8044 16.7286 16.9991 16 16.9991C15.2714 16.9991 14.5883 16.8044 14 16.464V18.7494Z" fill="#212121"/>
</svg>
