<svg width="24" height="24" viewBox="0 0 24 24" fill="none" xmlns="http://www.w3.org/2000/svg">
<path d="M16 6V7H16.75C18.5449 7 20 8.45507 20 10.25V11.0304C19.8358 11.0122 19.669 11.0029 19.5 11.0029C17.0144 11.0029 15 13.0185 15 15.5041C15 16.576 15.3746 17.5604 16 18.3335V21H7.25C5.45507 21 4 19.5449 4 17.75V10.25C4 8.45507 5.45507 7 7.25 7H8V6C8 3.79086 9.79086 2 12 2C14.2091 2 16 3.79086 16 6ZM9.5 6V7H14.5V6C14.5 4.61929 13.3807 3.5 12 3.5C10.6193 3.5 9.5 4.61929 9.5 6ZM12 15.5C12.8284 15.5 13.5 14.8284 13.5 14C13.5 13.1716 12.8284 12.5 12 12.5C11.1716 12.5 10.5 13.1716 10.5 14C10.5 14.8284 11.1716 15.5 12 15.5ZM19.5 12.0029C19.6698 12.0029 19.8367 12.015 20 12.0384C21.6961 12.2811 23 13.7403 23 15.5041C23 17.3529 21.5676 18.867 19.7524 18.9964C19.6691 19.0023 19.5849 19.0053 19.5 19.0053C17.567 19.0053 16 17.4378 16 15.5041C16 13.5705 17.567 12.0029 19.5 12.0029ZM18 19.7495C18.3508 19.8735 18.7215 19.9553 19.1061 19.9886C19.2359 19.9999 19.3673 20.0056 19.5 20.0056C20.4251 20.0056 21.285 19.7264 22 19.2476V22.7534C22 22.9549 21.774 23.0736 21.6082 22.9593L19.5 21.5062L17.3919 22.9593C17.226 23.0736 17 22.9549 17 22.7534V19.2476C17.3085 19.4542 17.644 19.6236 18 19.7495Z" fill="#212121"/>
</svg>
