<svg width="24" height="24" viewBox="0 0 24 24" fill="none" xmlns="http://www.w3.org/2000/svg">
<path d="M7.77209 2.43899L8.84868 2.09498C9.8575 1.77263 10.9353 2.29358 11.3674 3.31232L12.2271 5.33967C12.6018 6.22312 12.3939 7.26203 11.7131 7.90815L9.81881 9.70616C9.93569 10.7816 10.2972 11.8406 10.9033 12.8832C11.5095 13.9257 12.2665 14.7905 13.1744 15.4776L15.4496 14.7189C16.312 14.4313 17.2512 14.7618 17.7802 15.539L19.0125 17.3495C19.6275 18.2529 19.5169 19.4993 18.7538 20.2653L17.9361 21.0862C17.1222 21.9033 15.9597 22.1997 14.8843 21.8643C12.3454 21.0723 10.0111 18.7211 7.88132 14.8107C5.74845 10.8945 4.9957 7.57189 5.62307 4.84289C5.88707 3.69457 6.70458 2.78009 7.77209 2.43899Z" fill="#212121"/>
</svg>
