<svg width="12" height="12" viewBox="0 0 12 12" fill="none" xmlns="http://www.w3.org/2000/svg">
<path d="M5.56098 2.55111C5.40403 2.12963 4.95062 1.90729 4.5279 2.03735C3.5554 2.33656 2.87534 3.17245 3.02096 4.13826C3.14812 4.98159 3.44253 6.05588 4.09211 7.17928C4.73984 8.29946 5.5154 9.09121 6.17481 9.62425C6.92871 10.2337 7.98734 10.066 8.73337 9.36628C9.05791 9.06188 9.09151 8.55443 8.80894 8.20912L8.27482 7.55641C8.0542 7.2868 7.69442 7.18009 7.36549 7.28425L6.13337 7.67439L5.91816 7.45187C5.87783 7.41017 5.83144 7.36065 5.78103 7.30411C5.61219 7.11472 5.39641 6.84449 5.21211 6.52334C5.02782 6.20223 4.90314 5.87922 4.82458 5.63759C4.80113 5.56545 4.78171 5.50033 4.76599 5.44439L4.68311 5.14944L5.63216 4.27367C5.88803 4.03756 5.97671 3.66748 5.85425 3.33863L5.56098 2.55111ZM4.23383 1.08157C5.16682 0.79451 6.15772 1.28804 6.49811 2.20213L6.79138 2.98965C7.05501 3.6976 6.86548 4.4963 6.31033 5.00858L5.82088 5.46024C5.88377 5.63381 5.96903 5.83323 6.07943 6.02559C6.189 6.21652 6.31691 6.38931 6.4341 6.53023L7.06362 6.3309C7.78444 6.10265 8.5699 6.33795 9.04874 6.92312L9.58285 7.57583C10.1982 8.32775 10.1262 9.4309 9.41749 10.0957C8.42263 11.0288 6.79984 11.4154 5.54616 10.4019C4.80875 9.80585 3.94576 8.92388 3.22642 7.67986C2.50338 6.42942 2.17447 5.23131 2.03214 4.28736C1.79189 2.69394 2.93531 1.48109 4.23383 1.08157Z" fill="#212121"/>
</svg>
