<svg width="48" height="48" viewBox="0 0 48 48" fill="none" xmlns="http://www.w3.org/2000/svg">
<path d="M35 24C41.0751 24 46 28.9249 46 35C46 41.0751 41.0751 46 35 46C28.9249 46 24 41.0751 24 35C24 28.9249 28.9249 24 35 24ZM37.75 6C40.0972 6 42 7.90279 42 10.25V13.75C42 15.2706 41.2006 16.6034 40 17.3545V22.9961C39.2037 22.664 38.3672 22.4092 37.5 22.2402V18H10.5V35.75C10.5 37.8211 12.1789 39.5 14.25 39.5H22.8008C23.1263 40.3823 23.5443 41.2197 24.0439 42H14.25C10.7982 42 8 39.2018 8 35.75V17.3545C6.79936 16.6034 6 15.2706 6 13.75V10.25C6 7.90279 7.90279 6 10.25 6H37.75ZM31.707 30.293C31.3165 29.9024 30.6835 29.9024 30.293 30.293L27.293 33.293C26.9024 33.6835 26.9024 34.3165 27.293 34.707L30.293 37.707C30.6835 38.0976 31.3165 38.0976 31.707 37.707C32.0976 37.3165 32.0976 36.6835 31.707 36.293L30.4141 35H36C38.2091 35 40 36.7909 40 39C40 39.5523 40.4477 40 41 40C41.5523 40 42 39.5523 42 39C42 35.6863 39.3137 33 36 33H30.4141L31.707 31.707C32.0976 31.3165 32.0976 30.6835 31.707 30.293ZM27.75 22C28.4404 22 29 22.5596 29 23.25C29 23.3275 28.991 23.403 28.9775 23.4766C28.4033 23.7773 27.8547 24.12 27.335 24.5H20.25C19.5596 24.5 19 23.9404 19 23.25C19 22.5596 19.5596 22 20.25 22H27.75ZM10.25 8.5C9.2835 8.5 8.5 9.2835 8.5 10.25V13.75C8.5 14.7165 9.2835 15.5 10.25 15.5H37.75C38.7165 15.5 39.5 14.7165 39.5 13.75V10.25C39.5 9.2835 38.7165 8.5 37.75 8.5H10.25Z" fill="#212121"/>
</svg>
