<svg width="48" height="48" viewBox="0 0 48 48" fill="none" xmlns="http://www.w3.org/2000/svg">
<path d="M35 24C41.0751 24 46 28.9249 46 35C46 41.0751 41.0751 46 35 46C28.9249 46 24 41.0751 24 35C24 28.9249 28.9249 24 35 24ZM8 17.3984C8.3232 17.4641 8.65742 17.5 9 17.5H39C39.3425 17.5 39.6769 17.465 40 17.3994V22.9961C38.4608 22.3542 36.7718 22 35 22C32.8266 22 30.778 22.5336 28.9775 23.4766C28.991 23.403 29 23.3275 29 23.25C29 22.5596 28.4404 22 27.75 22H20.25C19.5596 22 19 22.5596 19 23.25C19 23.9404 19.5596 24.5 20.25 24.5H27.335C24.101 26.8648 22 30.6868 22 35C22 37.5773 22.7502 39.9794 24.0439 42H14.25C10.7982 42 8 39.2018 8 35.75V17.3984ZM31.707 30.293C31.3165 29.9024 30.6835 29.9024 30.293 30.293L27.293 33.293C26.9024 33.6835 26.9024 34.3165 27.293 34.707L30.293 37.707C30.6835 38.0976 31.3165 38.0976 31.707 37.707C32.0976 37.3165 32.0976 36.6835 31.707 36.293L30.4141 35H36C38.2091 35 40 36.7909 40 39C40 39.5523 40.4477 40 41 40C41.5523 40 42 39.5523 42 39C42 35.6863 39.3137 33 36 33H30.4141L31.707 31.707C32.0976 31.3165 32.0976 30.6835 31.707 30.293ZM39 6C40.6569 6 42 7.34315 42 9V12.5C42 14.1569 40.6569 15.5 39 15.5H9C7.34315 15.5 6 14.1569 6 12.5V9C6 7.34315 7.34315 6 9 6H39Z" fill="#212121"/>
</svg>
