<svg width="20" height="20" viewBox="0 0 20 20" fill="none" xmlns="http://www.w3.org/2000/svg">
<path d="M5 3.5C5 2.67157 5.67157 2 6.5 2H13.5C14.3284 2 15 2.67157 15 3.5V16.5C15 17.3284 14.3284 18 13.5 18H6.5C5.67157 18 5 17.3284 5 16.5V3.5ZM10.5 6.5C10.5 6.22386 10.2761 6 10 6C9.72386 6 9.5 6.22386 9.5 6.5V12.2929L8.35355 11.1464C8.15829 10.9512 7.84171 10.9512 7.64645 11.1464C7.45118 11.3417 7.45118 11.6583 7.64645 11.8536L9.64645 13.8536C9.84171 14.0488 10.1583 14.0488 10.3536 13.8536L12.3536 11.8536C12.5488 11.6583 12.5488 11.3417 12.3536 11.1464C12.1583 10.9512 11.8417 10.9512 11.6464 11.1464L10.5 12.2929V6.5Z" fill="#212121"/>
</svg>
