<svg width="20" height="20" viewBox="0 0 20 20" fill="none" xmlns="http://www.w3.org/2000/svg">
<path d="M2 6.75C2 5.23122 3.23122 4 4.75 4H15.25C16.7688 4 18 5.23122 18 6.75V13.25C18 14.7688 16.7688 16 15.25 16H4.75C3.23122 16 2 14.7688 2 13.25V6.75ZM4.75 5C3.7835 5 3 5.7835 3 6.75V13.25C3 14.2165 3.7835 15 4.75 15H15.25C16.2165 15 17 14.2165 17 13.25V6.75C17 5.7835 16.2165 5 15.25 5H4.75ZM11 6.5C11 6.22386 11.2239 6 11.5 6H13.5C13.7761 6 14 6.22386 14 6.5V8.5C14 8.77614 13.7761 9 13.5 9C13.2239 9 13 8.77614 13 8.5V7.70711L11.3536 9.35355C11.1583 9.54882 10.8417 9.54882 10.6464 9.35355C10.4512 9.15829 10.4512 8.84171 10.6464 8.64645L12.2929 7H11.5C11.2239 7 11 6.77614 11 6.5ZM8.64645 10.6464C8.84171 10.4512 9.15829 10.4512 9.35355 10.6464C9.54882 10.8417 9.54882 11.1583 9.35355 11.3536L7.70711 13H8.5C8.77614 13 9 13.2239 9 13.5C9 13.7761 8.77614 14 8.5 14H6.5C6.36739 14 6.24021 13.9473 6.14645 13.8536C6.05268 13.7598 6 13.6326 6 13.5L6 11.5C6 11.2239 6.22386 11 6.5 11C6.77614 11 7 11.2239 7 11.5V12.2929L8.64645 10.6464Z" fill="#212121"/>
</svg>
