<svg width="16" height="16" viewBox="0 0 16 16" fill="none" xmlns="http://www.w3.org/2000/svg">
<path d="M8.80802 2.10167C8.47789 1.43274 7.52403 1.43275 7.1939 2.10167L5.67281 5.18372L2.27156 5.67795C1.53336 5.78522 1.23861 6.69239 1.77277 7.21307L4.23394 9.61212L3.65294 12.9996C3.52684 13.7348 4.29853 14.2955 4.95879 13.9484L5.86971 13.4695C5.69017 13.1901 5.53522 12.8934 5.40793 12.5825L4.6728 12.969L5.22843 9.72935C5.27851 9.43739 5.18171 9.13949 4.9696 8.93273L2.61588 6.63842L5.86864 6.16577C6.16178 6.12317 6.41519 5.93906 6.54628 5.67343L8.00096 2.72593L9.1996 5.15463C9.53584 5.07312 9.88416 5.02251 10.2414 5.00597L8.80802 2.10167ZM5 10.5C5 10.4657 5.00031 10.4315 5.00094 10.3974V10.6026C5.00031 10.5685 5 10.5343 5 10.5Z" fill="#212121"/>
<path d="M15 10.5C15 12.9853 12.9853 15 10.5 15C8.01472 15 6 12.9853 6 10.5C6 8.01472 8.01472 6 10.5 6C12.9853 6 15 8.01472 15 10.5ZM11 8.5C11 8.22386 10.7761 8 10.5 8C10.2239 8 10 8.22386 10 8.5V10H8.5C8.22386 10 8 10.2239 8 10.5C8 10.7761 8.22386 11 8.5 11H10V12.5C10 12.7761 10.2239 13 10.5 13C10.7761 13 11 12.7761 11 12.5V11H12.5C12.7761 11 13 10.7761 13 10.5C13 10.2239 12.7761 10 12.5 10H11V8.5Z" fill="#212121"/>
</svg>
