<svg width="20" height="20" viewBox="0 0 20 20" fill="none" xmlns="http://www.w3.org/2000/svg">
<path d="M9.10237 2.89899C9.46919 2.15574 10.529 2.15574 10.8958 2.89899L12.8263 6.81048L17.1429 7.43772C17.9631 7.55691 18.2906 8.56488 17.6971 9.14342L17.1483 9.67839C16.3627 9.24599 15.4601 9 14.5 9C11.4624 9 9 11.4624 9 14.5C9 14.9972 9.06598 15.4791 9.18967 15.9372L6.13823 17.5414C5.4046 17.9271 4.54717 17.3041 4.68728 16.4872L5.42464 12.1881L2.30113 9.14342C1.70761 8.56488 2.03512 7.55691 2.85534 7.43772L7.17194 6.81048L9.10237 2.89899Z" fill="#212121"/>
<path d="M19 14.5C19 16.9853 16.9853 19 14.5 19C12.0147 19 10 16.9853 10 14.5C10 12.0147 12.0147 10 14.5 10C16.9853 10 19 12.0147 19 14.5ZM15 12.5C15 12.2239 14.7761 12 14.5 12C14.2239 12 14 12.2239 14 12.5V14H12.5C12.2239 14 12 14.2239 12 14.5C12 14.7761 12.2239 15 12.5 15H14V16.5C14 16.7761 14.2239 17 14.5 17C14.7761 17 15 16.7761 15 16.5V15H16.5C16.7761 15 17 14.7761 17 14.5C17 14.2239 16.7761 14 16.5 14H15V12.5Z" fill="#212121"/>
</svg>
