<svg width="20" height="20" viewBox="0 0 20 20" fill="none" xmlns="http://www.w3.org/2000/svg">
<path d="M9.10238 2.89899C9.46919 2.15574 10.529 2.15574 10.8958 2.89899L12.8263 6.81048L17.1429 7.43772C17.9631 7.55691 18.2906 8.56488 17.6971 9.14342L17.1483 9.67839C16.8338 9.50531 16.5006 9.36209 16.1525 9.25257L16.9991 8.42733L12.6825 7.80009C12.3568 7.75276 12.0752 7.54819 11.9296 7.25305L9.99911 3.34155L8.06867 7.25305C7.92301 7.54819 7.64144 7.75276 7.31573 7.80009L2.99914 8.42733L6.12266 11.472C6.35834 11.7017 6.46589 12.0327 6.41025 12.3571L5.67289 16.6563L9.0143 14.8996C9.03988 15.2559 9.09941 15.6029 9.18967 15.9372L6.13823 17.5414C5.4046 17.9271 4.54717 17.3041 4.68728 16.4872L5.42464 12.1881L2.30113 9.14341C1.70761 8.56488 2.03512 7.55691 2.85534 7.43772L7.17194 6.81048L9.10238 2.89899Z" fill="#212121"/>
<path d="M19 14.5C19 16.9853 16.9853 19 14.5 19C12.0147 19 10 16.9853 10 14.5C10 12.0147 12.0147 10 14.5 10C16.9853 10 19 12.0147 19 14.5ZM15 12.5C15 12.2239 14.7761 12 14.5 12C14.2239 12 14 12.2239 14 12.5V14H12.5C12.2239 14 12 14.2239 12 14.5C12 14.7761 12.2239 15 12.5 15H14V16.5C14 16.7761 14.2239 17 14.5 17C14.7761 17 15 16.7761 15 16.5V15H16.5C16.7761 15 17 14.7761 17 14.5C17 14.2239 16.7761 14 16.5 14H15V12.5Z" fill="#212121"/>
</svg>
