<svg width="16" height="16" viewBox="0 0 16 16" fill="none" xmlns="http://www.w3.org/2000/svg">
<path d="M2 3.5C2 2.67157 2.67157 2 3.5 2H4.5C4.77614 2 5 1.77614 5 1.5C5 1.22386 4.77614 1 4.5 1H3.5C2.11929 1 1 2.11929 1 3.5V4.5C1 4.77614 1.22386 5 1.5 5C1.77614 5 2 4.77614 2 4.5V3.5ZM3.16124 13.9616C3.27011 13.9867 3.3835 14 3.5 14H4.5C4.77614 14 5 14.2239 5 14.5C5 14.7761 4.77614 15 4.5 15H3.5C2.11929 15 1 13.8807 1 12.5V11.5C1 11.2239 1.22386 11 1.5 11C1.77614 11 2 11.2239 2 11.5V12.5C2 13.2062 2.488 13.7984 3.14517 13.9578C3.15052 13.9591 3.15588 13.9604 3.16124 13.9616ZM12.5 2C13.3284 2 14 2.67157 14 3.5V4.5C14 4.77614 14.2239 5 14.5 5C14.7761 5 15 4.77614 15 4.5V3.5C15 2.11929 13.8807 1 12.5 1H11.5C11.2239 1 11 1.22386 11 1.5C11 1.77614 11.2239 2 11.5 2H12.5ZM12.8388 13.9616C12.7299 13.9867 12.6165 14 12.5 14H11.5C11.2239 14 11 14.2239 11 14.5C11 14.7761 11.2239 15 11.5 15H12.5C13.8807 15 15 13.8807 15 12.5V11.5C15 11.2239 14.7761 11 14.5 11C14.2239 11 14 11.2239 14 11.5V12.5C14 13.2062 13.512 13.7984 12.8548 13.9578C12.8495 13.9591 12.8441 13.9604 12.8388 13.9616ZM3.5 13C3.22386 13 3 12.7761 3 12.5C3 11.6716 3.67157 11 4.5 11H11.5C12.3284 11 13 11.6716 13 12.5C13 12.7761 12.7761 13 12.5 13H11.5C10.8469 13 10.2913 13.4174 10.0854 14H5.91465C5.70873 13.4174 5.15311 13 4.5 13H3.5ZM10.75 6.75C10.75 5.23122 9.51878 4 8 4C6.48122 4 5.25 5.23122 5.25 6.75C5.25 8.26878 6.48122 9.5 8 9.5C9.51878 9.5 10.75 8.26878 10.75 6.75Z" fill="#212121"/>
</svg>
