<svg width="16" height="16" viewBox="0 0 16 16" fill="none" xmlns="http://www.w3.org/2000/svg">
<path d="M4.5 2C3.11929 2 2 3.11929 2 4.5V5.5C2 5.77614 2.22386 6 2.5 6C2.77614 6 3 5.77614 3 5.5V4.5C3 3.67157 3.67157 3 4.5 3H5.5C5.77614 3 6 2.77614 6 2.5C6 2.22386 5.77614 2 5.5 2H4.5ZM10.5 2C10.2239 2 10 2.22386 10 2.5C10 2.77614 10.2239 3 10.5 3H11.5C12.3284 3 13 3.67157 13 4.5V5.5C13 5.77614 13.2239 6 13.5 6C13.7761 6 14 5.77614 14 5.5V4.5C14 3.11929 12.8807 2 11.5 2H10.5ZM3 10.5C3 10.2239 2.77614 10 2.5 10C2.22386 10 2 10.2239 2 10.5V11.5C2 12.8807 3.11929 14 4.5 14H5.5C5.77614 14 6 13.7761 6 13.5C6 13.2239 5.77614 13 5.5 13H4.5C4.44175 13 4.38428 12.9967 4.32776 12.9902C3.58045 12.9048 3 12.2702 3 11.5V10.5ZM14 10.5C14 10.2239 13.7761 10 13.5 10C13.2239 10 13 10.2239 13 10.5V11.5C13 12.2671 12.4241 12.8997 11.6811 12.9892C11.6217 12.9963 11.5613 13 11.5 13H10.5C10.2239 13 10 13.2239 10 13.5C10 13.7761 10.2239 14 10.5 14H11.5C12.8807 14 14 12.8807 14 11.5V10.5ZM9.08535 13C9.29127 12.4174 9.84689 12 10.5 12H11.5C11.7761 12 12 11.7761 12 11.5C12 10.6716 11.3284 10 10.5 10L5.49998 10C4.67156 10 4 10.6716 4 11.5C4 11.7761 4.22386 12 4.5 12H5.5C6.15311 12 6.70873 12.4174 6.91465 13H9.08535ZM8 9C9.24264 9 10.25 7.99264 10.25 6.75C10.25 5.50736 9.24264 4.5 8 4.5C6.75736 4.5 5.75 5.50736 5.75 6.75C5.75 7.99264 6.75736 9 8 9Z" fill="#212121"/>
</svg>
