<svg width="28" height="28" viewBox="0 0 28 28" fill="none" xmlns="http://www.w3.org/2000/svg">
<path d="M5.75 3.5C4.50736 3.5 3.5 4.50736 3.5 5.75V8.75C3.5 9.16421 3.16421 9.5 2.75 9.5C2.33579 9.5 2 9.16421 2 8.75V5.75C2 3.67893 3.67893 2 5.75 2H8.75C9.16421 2 9.5 2.33579 9.5 2.75C9.5 3.16421 9.16421 3.5 8.75 3.5H5.75ZM5.75 24.5C5.64321 24.5 5.53816 24.4926 5.43533 24.4782L5.41739 24.4756C4.33246 24.3148 3.5 23.3796 3.5 22.25V19.25C3.5 18.8358 3.16421 18.5 2.75 18.5C2.33579 18.5 2 18.8358 2 19.25V22.25C2 24.3211 3.67893 26 5.75 26H8.75C9.16421 26 9.5 25.6642 9.5 25.25C9.5 25.1623 9.48496 25.0782 9.45732 25C9.35437 24.7087 9.07656 24.5 8.75 24.5H5.75ZM24.5 5.75C24.5 4.50736 23.4926 3.5 22.25 3.5H19.25C18.8358 3.5 18.5 3.16421 18.5 2.75C18.5 2.33579 18.8358 2 19.25 2H22.25C24.3211 2 26 3.67893 26 5.75V8.75C26 9.16421 25.6642 9.5 25.25 9.5C24.8358 9.5 24.5 9.16421 24.5 8.75V5.75ZM22.25 24.5C22.3471 24.5 22.4427 24.4939 22.5366 24.4819L22.546 24.4807C23.6488 24.3358 24.5 23.3923 24.5 22.25V19.25C24.5 18.8358 24.8358 18.5 25.25 18.5C25.6642 18.5 26 18.8358 26 19.25V22.25C26 24.3211 24.3211 26 22.25 26H19.25C18.8358 26 18.5 25.6642 18.5 25.25C18.5 25.1623 18.515 25.0782 18.5427 25C18.6456 24.7087 18.9234 24.5 19.25 24.5H22.25ZM10.4823 25H17.5177C17.639 24.1519 18.3684 23.5 19.25 23.5H22.25C22.512 23.5 22.7552 23.4194 22.9561 23.2816C22.9849 23.0975 23 22.9078 23 22.7124V22.25C23 20.7312 21.7688 19.5 20.25 19.5H7.75C6.23122 19.5 5 20.7312 5 22.25V22.7124C5 22.907 5.0136 23.0958 5.03969 23.2787C5.2414 23.4183 5.48616 23.5 5.75 23.5H8.75C9.63162 23.5 10.361 24.1519 10.4823 25ZM14 17C17.0376 17 19.5 14.5376 19.5 11.5C19.5 8.46243 17.0376 6 14 6C10.9624 6 8.5 8.46243 8.5 11.5C8.5 14.5376 10.9624 17 14 17Z" fill="#212121"/>
</svg>
