<svg width="28" height="28" viewBox="0 0 28 28" fill="none" xmlns="http://www.w3.org/2000/svg">
<path d="M5.75 3.5C4.50736 3.5 3.5 4.50736 3.5 5.75V8.75C3.5 9.16421 3.16421 9.5 2.75 9.5C2.33579 9.5 2 9.16421 2 8.75V5.75C2 3.67893 3.67893 2 5.75 2H8.75C9.16421 2 9.5 2.33579 9.5 2.75C9.5 3.16421 9.16421 3.5 8.75 3.5H5.75ZM5.75 24.5C5.64321 24.5 5.53816 24.4926 5.43533 24.4782L5.41739 24.4756C4.33246 24.3148 3.5 23.3796 3.5 22.25V19.25C3.5 18.8358 3.16421 18.5 2.75 18.5C2.33579 18.5 2 18.8358 2 19.25V22.25C2 24.3211 3.67893 26 5.75 26H8.75C9.16421 26 9.5 25.6642 9.5 25.25C9.5 24.8358 9.16421 24.5 8.75 24.5H5.75ZM24.5 5.75C24.5 4.50736 23.4926 3.5 22.25 3.5H19.25C18.8358 3.5 18.5 3.16421 18.5 2.75C18.5 2.33579 18.8358 2 19.25 2H22.25C24.3211 2 26 3.67893 26 5.75V8.75C26 9.16421 25.6642 9.5 25.25 9.5C24.8358 9.5 24.5 9.16421 24.5 8.75V5.75ZM22.25 24.5C22.3471 24.5 22.4427 24.4939 22.5366 24.4819L22.546 24.4807C23.6488 24.3358 24.5 23.3923 24.5 22.25V19.25C24.5 18.8358 24.8358 18.5 25.25 18.5C25.6642 18.5 26 18.8358 26 19.25V22.25C26 24.3211 24.3211 26 22.25 26H19.25C18.8358 26 18.5 25.6642 18.5 25.25C18.5 24.8358 18.8358 24.5 19.25 24.5H22.25ZM6.5 22.7124C6.5 22.9851 6.54517 23.2479 6.63314 23.5H5.75C5.48616 23.5 5.2414 23.4183 5.03969 23.2787C5.0136 23.0958 5 22.907 5 22.7124V22.25C5 20.7312 6.23122 19.5 7.75 19.5H20.25C21.7688 19.5 23 20.7312 23 22.25V22.7124C23 22.9078 22.9849 23.0975 22.9561 23.2816C22.7552 23.4194 22.512 23.5 22.25 23.5H21.3475C21.4484 23.244 21.5 22.9807 21.5 22.7124V22.25C21.5 21.5596 20.9404 21 20.25 21H7.75C7.05964 21 6.5 21.5596 6.5 22.25V22.7124ZM18 11.5C18 9.29086 16.2091 7.5 14 7.5C11.7909 7.5 10 9.29086 10 11.5C10 13.7091 11.7909 15.5 14 15.5C16.2091 15.5 18 13.7091 18 11.5ZM19.5 11.5C19.5 14.5376 17.0376 17 14 17C10.9624 17 8.5 14.5376 8.5 11.5C8.5 8.46243 10.9624 6 14 6C17.0376 6 19.5 8.46243 19.5 11.5Z" fill="#212121"/>
</svg>
