<svg width="32" height="32" viewBox="0 0 32 32" fill="none" xmlns="http://www.w3.org/2000/svg">
<path d="M23.75 2C25.5449 2 27 3.45507 27 5.25V26.75C27 28.5449 25.5449 30 23.75 30H8.25C6.51108 30 5.09082 28.6343 5.00391 26.917L5 26.75V5.25C5 3.45507 6.45508 2 8.25 2H23.75ZM8.25 4C7.55964 4 7 4.55964 7 5.25V26.75L7.00684 26.8779C7.07092 27.5082 7.60285 28 8.25 28H23.75C24.4404 28 25 27.4404 25 26.75V5.25C25 4.55964 24.4404 4 23.75 4H8.25ZM10.5 13.75C11.4665 13.75 12.25 14.5335 12.25 15.5C12.25 16.4665 11.4665 17.25 10.5 17.25C9.5335 17.25 8.75 16.4665 8.75 15.5C8.75 14.5335 9.5335 13.75 10.5 13.75Z" fill="#212121"/>
</svg>
