<svg width="24" height="24" viewBox="0 0 24 24" fill="none" xmlns="http://www.w3.org/2000/svg">
<path d="M13.3781 3.02632C14.7798 3.10152 16.1492 3.50415 17.391 4.2211C21.6975 6.70746 23.173 12.2142 20.6866 16.5206C18.2003 20.8271 12.6936 22.3027 8.38707 19.8163C7.2143 19.1392 6.22702 18.2232 5.47506 17.1313C5.22365 16.7662 5.38627 16.262 5.80362 16.1126C9.19524 14.8987 11.0118 13.492 12.0659 11.4799C13.1756 9.36157 13.4623 7.04122 12.686 3.86063C12.5787 3.42083 12.9261 3.00206 13.3781 3.02632ZM14.3892 4.66393L14.454 5.05336C14.8713 7.75847 14.5191 10.0293 13.3946 12.1759C12.2527 14.3557 10.3943 15.8799 7.3787 17.1156C7.88685 17.6646 8.47755 18.1365 9.13707 18.5173C12.7261 20.5894 17.3154 19.3597 19.3876 15.7706C21.4597 12.1816 20.23 7.59228 16.641 5.52014C16.1356 5.22839 15.6042 4.99842 15.0555 4.83237L14.7242 4.74043L14.3892 4.66393ZM10.9937 3.65326L11 3.75197V9.00005C11 10.1046 10.1046 11 9 11C7.89543 11 7 10.1046 7 9.00005C7 7.89548 7.89543 7.00005 9 7.00005C9.17302 7.00005 9.3409 7.02202 9.50102 7.06332L9.5 4.76408L6 5.82889V10C6 11.1046 5.10457 12 4 12C2.89543 12 2 11.1046 2 10C2 8.89548 2.89543 8.00005 4 8.00005C4.17302 8.00005 4.3409 8.02202 4.50102 8.06332L4.5 5.27312C4.5 4.97967 4.67056 4.7169 4.93029 4.59464L5.03171 4.5556L10.0317 3.03444C10.4493 2.9074 10.8704 3.16124 10.9752 3.55902L10.9937 3.65326Z" fill="#212121"/>
</svg>
