<svg width="24" height="24" viewBox="0 0 24 24" fill="none" xmlns="http://www.w3.org/2000/svg">
<path d="M15.8697 2.66878L20.8382 7.6373C21.7169 8.51598 21.7169 9.9406 20.8382 10.8193L12.1564 19.4998L18.2543 19.5C18.634 19.5 18.9478 19.7821 18.9975 20.1482L19.0043 20.25C19.0043 20.6297 18.7222 20.9435 18.3561 20.9931L18.2543 21L9.84431 21.0012C9.2281 21.0348 8.6007 20.8163 8.12998 20.3456L3.16145 15.377C2.28277 14.4984 2.28277 13.0737 3.16145 12.1951L12.6877 2.66878C13.5664 1.7901 14.991 1.7901 15.8697 2.66878ZM11.6975 17.7583L5.74277 11.8035L4.23645 13.2701C3.94355 13.5629 3.94355 14.0378 4.23645 14.3307L9.18221 19.2763C9.47968 19.5646 9.9545 19.5571 10.2427 19.2596L11.6975 17.7583Z" fill="#212121"/>
</svg>
