<svg width="20" height="20" viewBox="0 0 20 20" fill="none" xmlns="http://www.w3.org/2000/svg">
<path d="M11.1968 2.43913C11.7826 1.85334 12.7323 1.85334 13.3181 2.43913L17.5607 6.68177C18.1465 7.26755 18.1465 8.2173 17.5607 8.80309L9.36383 17H14.4999C14.776 17 14.9999 17.2239 14.9999 17.5C14.9999 17.7761 14.776 18 14.4999 18H7.8195C7.40971 18.0215 6.99279 17.8757 6.67978 17.5627L2.43714 13.3201C1.85136 12.7343 1.85136 11.7846 2.43714 11.1988L11.1968 2.43913ZM12.611 3.14623C12.4157 2.95097 12.0992 2.95097 11.9039 3.14623L5.53822 9.51191L10.488 14.4617L16.8536 8.09598C17.0489 7.90072 17.0489 7.58414 16.8536 7.38887L12.611 3.14623ZM9.78086 15.1688L4.83111 10.219L3.14425 11.9059C2.94899 12.1011 2.94899 12.4177 3.14425 12.613L7.38689 16.8556C7.58215 17.0509 7.89873 17.0509 8.094 16.8556L9.78086 15.1688Z" fill="#212121"/>
</svg>
