<svg width="24" height="24" viewBox="0 0 24 24" fill="none" xmlns="http://www.w3.org/2000/svg">
<path d="M16.5006 20.5002C16.5006 19.6721 17.1719 19.0007 18 19.0007C18.8281 19.0007 19.4994 19.6721 19.4994 20.5002C19.4994 21.3283 18.8281 21.9996 18 21.9996C17.1719 21.9996 16.5006 21.3283 16.5006 20.5002ZM17 16.4992V2.99609C17 2.44381 17.4477 1.99609 18 1.99609C18.5128 1.99609 18.9355 2.38213 18.9933 2.87947L19 2.99609V16.4992C19 17.0515 18.5523 17.4992 18 17.4992C17.4872 17.4992 17.0645 17.1132 17.0067 16.6159L17 16.4992ZM10.5006 20.5002C10.5006 19.6721 11.1719 19.0007 12 19.0007C12.8281 19.0007 13.4994 19.6721 13.4994 20.5002C13.4994 21.3283 12.8281 21.9996 12 21.9996C11.1719 21.9996 10.5006 21.3283 10.5006 20.5002ZM11 16.4992V2.99609C11 2.44381 11.4477 1.99609 12 1.99609C12.5128 1.99609 12.9355 2.38213 12.9933 2.87947L13 2.99609V16.4992C13 17.0515 12.5523 17.4992 12 17.4992C11.4872 17.4992 11.0645 17.1132 11.0067 16.6159L11 16.4992ZM4.50781 20.5002C4.50781 19.6721 5.17912 19.0007 6.00723 19.0007C6.83533 19.0007 7.50664 19.6721 7.50664 20.5002C7.50664 21.3283 6.83533 21.9996 6.00723 21.9996C5.17912 21.9996 4.50781 21.3283 4.50781 20.5002ZM5.00082 16.4992L5.00082 2.99609C5.00082 2.44381 5.44854 1.99609 6.00082 1.99609C6.51366 1.99609 6.93633 2.38213 6.9941 2.87947L7.00082 2.99609L7.00082 16.4992C7.00082 17.0515 6.55311 17.4992 6.00082 17.4992C5.48799 17.4992 5.06532 17.1132 5.00755 16.6159L5.00082 16.4992Z" fill="#212121"/>
</svg>
