<svg width="24" height="24" viewBox="0 0 24 24" fill="none" xmlns="http://www.w3.org/2000/svg">
<path d="M8.49982 15.7503C8.49982 15.6122 8.61175 15.5003 8.74982 15.5003H15.2498C15.3879 15.5003 15.4998 15.6122 15.4998 15.7503V17.2503C15.4998 17.3884 15.3879 17.5003 15.2498 17.5003H8.74982C8.61175 17.5003 8.49982 17.3884 8.49982 17.2503V15.7503Z" fill="#212121"/>
<path d="M19.9893 4.09205C19.9101 2.92126 18.9354 1.99609 17.7445 1.99609H6.24463L6.09058 2.00128C4.91979 2.08045 3.99463 3.05523 3.99463 4.24609V19.7442L3.99982 19.8982C4.07898 21.069 5.05376 21.9942 6.24463 21.9942H17.7445L17.8986 21.989C19.0693 21.9098 19.9945 20.935 19.9945 19.7442V4.24609L19.9893 4.09205ZM8.74982 14.0003H15.2498C16.2163 14.0003 16.9998 14.7838 16.9998 15.7503V17.2503C16.9998 18.2168 16.2163 19.0003 15.2498 19.0003H8.74982C7.78332 19.0003 6.99982 18.2168 6.99982 17.2503V15.7503C6.99982 14.7838 7.78332 14.0003 8.74982 14.0003Z" fill="#212121"/>
</svg>
