<svg width="20" height="20" viewBox="0 0 20 20" fill="none" xmlns="http://www.w3.org/2000/svg">
<path d="M2 6C2 4.34315 3.34315 3 5 3H13C14.6569 3 16 4.34315 16 6V9.2085C15.8595 9.16866 15.717 9.13433 15.573 9.10568C14.7163 8.93528 13.8345 8.97193 13 9.2085V6.5C13 6.22386 12.7761 6 12.5 6C12.2239 6 12 6.22386 12 6.5V9.60102C11.165 10.0271 10.4504 10.6609 9.92692 11.4444C9.76382 11.6885 9.62125 11.9441 9.5 12.2087V10.5C9.5 10.2239 9.27614 10 9 10C8.72386 10 8.5 10.2239 8.5 10.5V13.5C8.5 13.7761 8.72386 14 9 14C9.00765 14 9.01525 13.9998 9.02282 13.9995C9.00766 14.1654 9 14.3324 9 14.5C9 15.3773 9.20958 16.2329 9.60101 17H5C3.34315 17 2 15.6569 2 14V6ZM5.5 8C5.22386 8 5 8.22386 5 8.5V13.5C5 13.7761 5.22386 14 5.5 14C5.77614 14 6 13.7761 6 13.5V8.5C6 8.22386 5.77614 8 5.5 8ZM12.0657 11.4421C12.369 12.5232 11.723 13.6421 10.6351 13.92L10.174 14.0378C10.159 14.1898 10.1514 14.3439 10.1514 14.5C10.1514 14.6876 10.1625 14.8726 10.184 15.0542L10.5336 15.1369C11.653 15.4016 12.319 16.5537 11.9897 17.6558L11.8633 18.0786C12.1205 18.2819 12.4002 18.4561 12.698 18.5965L13.023 18.2524C13.8128 17.4161 15.1436 17.4168 15.9325 18.2539L16.2698 18.6119C16.5623 18.477 16.8376 18.3096 17.0917 18.1143L16.9356 17.5576C16.6323 16.4765 17.2783 15.3576 18.3662 15.0797L18.8268 14.962C18.8417 14.8101 18.8494 14.656 18.8494 14.5C18.8494 14.3122 18.8383 14.1271 18.8167 13.9454L18.4677 13.8628C17.3483 13.5982 16.6823 12.446 17.0116 11.3439L17.1378 10.9216C16.8806 10.7183 16.6008 10.544 16.303 10.4035L15.9783 10.7473C15.1885 11.5836 13.8577 11.5829 13.0688 10.7458L12.7314 10.3878C12.439 10.5227 12.1636 10.69 11.9095 10.8853L12.0657 11.4421ZM14.5004 15.5C13.9481 15.5 13.5004 15.0523 13.5004 14.5C13.5004 13.9477 13.9481 13.5 14.5004 13.5C15.0527 13.5 15.5004 13.9477 15.5004 14.5C15.5004 15.0523 15.0527 15.5 14.5004 15.5Z" fill="#212121"/>
</svg>
