<svg width="20" height="20" viewBox="0 0 20 20" fill="none" xmlns="http://www.w3.org/2000/svg">
<path d="M13.7481 3.06588C13.5933 2.97745 13.4032 2.97808 13.249 3.06754C13.0949 3.15701 13 3.32176 13 3.5V6.20539C13 6.2519 12.9935 6.29749 12.9813 6.34106C12.2486 5.51825 11.1813 5 9.99288 5C8.75451 5 7.64758 5.56275 6.91386 6.44648L4.75822 5.21468C3.97478 4.767 3 5.33269 3 6.23501C3 6.53164 3.11217 6.81729 3.31401 7.03466L6.34476 10.2985L5.80759 10.6055C5.3049 10.2254 4.67878 10 4 10C2.34315 10 1 11.3431 1 13C1 14.6569 2.34315 16 4 16C5.30624 16 6.41749 15.1652 6.82931 14L9.20328 14C9.81239 14 10.411 13.841 10.9398 13.5388L13.0781 12.317C13.027 12.5364 13 12.765 13 13C13 14.6569 14.3431 16 16 16C17.6569 16 19 14.6569 19 13C19 11.6549 18.1148 10.5166 16.8951 10.1358L17.2519 9.93192C17.7145 9.66758 18 9.17564 18 8.64286C18 6.69664 16.9572 4.89965 15.2674 3.93405L13.7481 3.06588ZM7.79993 6.9528C8.34748 6.36651 9.12738 6 9.99288 6C10.8609 6 11.6429 6.36869 12.1907 6.95801L9.99987 8.20991L7.79993 6.9528ZM4 11C4.29013 11 4.56582 11.0618 4.81466 11.1729L3.57074 11.8837C3.21781 12.0854 3 12.4607 3 12.8672C3 13.4928 3.50713 13.9999 4.13271 13.9999L5.73247 13.9999C5.38667 14.5978 4.74031 15 4 15C2.89543 15 2 14.1046 2 13C2 11.8954 2.89543 11 4 11ZM7.23633 9.78908L4.04681 6.35421C4.01672 6.32181 4 6.27923 4 6.23501C4 6.10051 4.1453 6.01619 4.26208 6.08292L8.99209 8.78579L7.23633 9.78908ZM14 6.20539V4.36159L14.7712 4.8023C16.1494 5.58985 17 7.0555 17 8.64286C17 8.81679 16.9068 8.97738 16.7558 9.06367L10.4437 12.6706C10.0659 12.8865 9.63837 13 9.20329 13L4.13272 12.9999C4.05942 12.9999 4 12.9405 4 12.8672C4 12.8196 4.02552 12.7756 4.06688 12.7519L13.2442 7.50776C13.7116 7.24069 14 6.74368 14 6.20539ZM16 11C17.1046 11 18 11.8954 18 13C18 14.1046 17.1046 15 16 15C14.8954 15 14 14.1046 14 13C14 11.8954 14.8954 11 16 11Z" fill="#212121"/>
</svg>
