<svg width="16" height="16" viewBox="0 0 16 16" fill="none" xmlns="http://www.w3.org/2000/svg">
<path d="M1 4C1 2.89543 1.89543 2 3 2H5C6.10457 2 7 2.89543 7 4V12C7 13.1046 6.10457 14 5 14H3C1.89543 14 1 13.1046 1 12V4ZM4 5C3.72386 5 3.5 5.22386 3.5 5.5V10.5C3.5 10.7761 3.72386 11 4 11C4.27614 11 4.5 10.7761 4.5 10.5L4.5 5.5C4.5 5.22386 4.27614 5 4 5Z" fill="#212121"/>
<path d="M9 4C9 2.89543 9.89543 2 11 2H13C14.1046 2 15 2.89543 15 4V12C15 13.1046 14.1046 14 13 14H11C9.89543 14 9 13.1046 9 12V4ZM11 5.5C11 5.77614 11.2239 6 11.5 6H12V7.5H11.5C11.2239 7.5 11 7.72386 11 8V10.5C11 10.7761 11.2239 11 11.5 11H12.5C12.7761 11 13 10.7761 13 10.5C13 10.2239 12.7761 10 12.5 10H12V8.5H12.5C12.7761 8.5 13 8.27614 13 8V5.5C13 5.22386 12.7761 5 12.5 5H11.5C11.2239 5 11 5.22386 11 5.5Z" fill="#212121"/>
</svg>
