<svg width="28" height="28" viewBox="0 0 28 28" fill="none" xmlns="http://www.w3.org/2000/svg">
<path d="M14 2C20.6274 2 26 7.37258 26 14C26 20.6274 20.6274 26 14 26C7.37258 26 2 20.6274 2 14C2 7.37258 7.37258 2 14 2ZM21.9359 7.12432L7.12432 21.9359C8.96644 23.5333 11.3703 24.5 14 24.5C19.799 24.5 24.5 19.799 24.5 14C24.5 11.3703 23.5333 8.96644 21.9359 7.12432ZM14 3.5C8.20101 3.5 3.5 8.20101 3.5 14C3.5 16.6297 4.46669 19.0336 6.0641 20.8757L20.8757 6.0641C19.0336 4.46669 16.6297 3.5 14 3.5Z" fill="#212121"/>
</svg>
