<svg width="20" height="20" viewBox="0 0 20 20" fill="none" xmlns="http://www.w3.org/2000/svg">
<path d="M9 2C6.79086 2 5 3.79086 5 6C5 8.20914 6.79086 10 9 10C11.2091 10 13 8.20914 13 6C13 3.79086 11.2091 2 9 2ZM6 6C6 4.34315 7.34315 3 9 3C10.6569 3 12 4.34315 12 6C12 7.65685 10.6569 9 9 9C7.34315 9 6 7.65685 6 6ZM4.00873 11C2.90315 11 2 11.8869 2 13C2 14.6912 2.83281 15.9663 4.13499 16.7966C5.41697 17.614 7.14526 18 9 18C9.41085 18 9.8155 17.9811 10.2105 17.9427C9.97298 17.6472 9.7654 17.3266 9.59233 16.9855C9.39798 16.9951 9.20041 17 9 17C7.26489 17 5.74318 16.636 4.67262 15.9534C3.62226 15.2837 3 14.3088 3 13C3 12.4467 3.44786 12 4.00873 12L9.59971 12C9.7826 11.6422 10.0035 11.3071 10.2572 11L4.00873 11ZM10 14.5C10 16.9853 12.0147 19 14.5 19C16.9853 19 19 16.9853 19 14.5C19 12.0147 16.9853 10 14.5 10C12.0147 10 10 12.0147 10 14.5ZM16.5 11.5C16.7761 11.5 17 11.7239 17 12V13.5C17 13.7761 16.7761 14 16.5 14H15C14.7239 14 14.5 13.7761 14.5 13.5C14.5 13.2239 14.7239 13 15 13H15.4682C15.4179 12.9722 15.3663 12.9464 15.3135 12.923C15.0682 12.8137 14.8034 12.755 14.535 12.7503C14.2665 12.7456 13.9998 12.795 13.7508 12.8956C13.5018 12.9962 13.2756 13.1459 13.0857 13.3358C12.8905 13.531 12.5739 13.531 12.3786 13.3358C12.1834 13.1405 12.1834 12.8239 12.3786 12.6287C12.6635 12.3439 13.0027 12.1193 13.3762 11.9684C13.7497 11.8175 14.1497 11.7434 14.5524 11.7505C14.9552 11.7575 15.3524 11.8456 15.7203 12.0094C15.8162 12.0521 15.9095 12.0997 16 12.1519V12C16 11.7239 16.2239 11.5 16.5 11.5ZM15.6238 17.0316C15.2503 17.1825 14.8503 17.2566 14.4476 17.2495C14.0448 17.2425 13.6476 17.1544 13.2797 16.9906C13.1838 16.9479 13.0905 16.9003 13 16.8481V17C13 17.2761 12.7761 17.5 12.5 17.5C12.2239 17.5 12 17.2761 12 17V15.5C12 15.2239 12.2239 15 12.5 15H14C14.2761 15 14.5 15.2239 14.5 15.5C14.5 15.7761 14.2761 16 14 16H13.5318C13.5821 16.0278 13.6337 16.0536 13.6865 16.077C13.9318 16.1863 14.1966 16.245 14.465 16.2497C14.7335 16.2544 15.0002 16.205 15.2492 16.1044C15.4982 16.0038 15.7244 15.8541 15.9143 15.6642C16.1095 15.469 16.4261 15.469 16.6214 15.6642C16.8166 15.8595 16.8166 16.1761 16.6214 16.3713C16.3365 16.6561 15.9973 16.8807 15.6238 17.0316Z" fill="#212121"/>
</svg>
