<svg width="24" height="24" viewBox="0 0 24 24" fill="none" xmlns="http://www.w3.org/2000/svg">
<path d="M16.0883 6.41228C16.016 6.31886 15.9377 6.2298 15.8539 6.14569C15.5417 5.83255 15.1606 5.59666 14.741 5.45683L13.3632 5.00939C13.257 4.97196 13.165 4.90253 13.1 4.81068C13.0349 4.71883 13 4.60908 13 4.49656C13 4.38404 13.0349 4.27429 13.1 4.18244C13.165 4.09058 13.257 4.02116 13.3632 3.98372L14.741 3.53628C15.1547 3.39352 15.5299 3.15705 15.837 2.84537C16.1357 2.54224 16.3623 2.17595 16.5 1.77372L16.5114 1.73963L16.9592 0.362894C16.9967 0.256782 17.0662 0.164895 17.1581 0.0998993C17.25 0.0349035 17.3598 0 17.4724 0C17.5851 0 17.6949 0.0349035 17.7868 0.0998993C17.8787 0.164895 17.9482 0.256782 17.9857 0.362894L18.4335 1.73963C18.5727 2.15819 18.8077 2.53853 19.1198 2.85041C19.432 3.1623 19.8126 3.39715 20.2315 3.53628L21.6093 3.98372L21.6368 3.99061C21.743 4.02804 21.835 4.09747 21.9 4.18932C21.9651 4.28117 22 4.39092 22 4.50344C22 4.61596 21.9651 4.72571 21.9 4.81756C21.835 4.90942 21.743 4.97884 21.6368 5.01628L20.259 5.46372C19.8402 5.60285 19.4595 5.8377 19.1474 6.14959C18.8353 6.46147 18.6003 6.84181 18.461 7.26037L18.0132 8.63711C18.0092 8.64855 18.0048 8.65983 18 8.67093C17.9605 8.76273 17.8964 8.84212 17.8144 8.9001C17.7224 8.9651 17.6126 9 17.5 9C17.3874 9 17.2776 8.9651 17.1856 8.9001C17.0937 8.8351 17.0242 8.74322 16.9868 8.63711L16.539 7.26037C16.4378 6.95331 16.2851 6.66664 16.0883 6.41228ZM23.7829 10.2132L23.0175 9.9646C22.7848 9.8873 22.5733 9.75683 22.3999 9.58356C22.2265 9.41029 22.0959 9.199 22.0186 8.96646L21.7698 8.20161C21.749 8.14266 21.7104 8.09161 21.6593 8.0555C21.6083 8.01939 21.5473 8 21.4847 8C21.4221 8 21.3611 8.01939 21.31 8.0555C21.259 8.09161 21.2204 8.14266 21.1996 8.20161L20.9508 8.96646C20.875 9.19736 20.7467 9.40761 20.5761 9.58076C20.4055 9.75392 20.1971 9.88529 19.9672 9.9646L19.2018 10.2132C19.1428 10.234 19.0917 10.2725 19.0555 10.3236C19.0194 10.3746 19 10.4356 19 10.4981C19 10.5606 19.0194 10.6216 19.0555 10.6726C19.0917 10.7236 19.1428 10.7622 19.2018 10.783L19.9672 11.0316C20.2003 11.1093 20.412 11.2403 20.5855 11.4143C20.7589 11.5882 20.8893 11.8003 20.9661 12.0335L21.2149 12.7984C21.2357 12.8573 21.2743 12.9084 21.3254 12.9445C21.3764 12.9806 21.4374 13 21.5 13C21.5626 13 21.6236 12.9806 21.6746 12.9445C21.7257 12.9084 21.7643 12.8573 21.7851 12.7984L22.0339 12.0335C22.1113 11.801 22.2418 11.5897 22.4152 11.4164C22.5886 11.2432 22.8001 11.1127 23.0328 11.0354L23.7982 10.7868C23.8572 10.766 23.9083 10.7275 23.9445 10.6764C23.9806 10.6254 24 10.5644 24 10.5019C24 10.4394 23.9806 10.3784 23.9445 10.3274C23.9083 10.2764 23.8572 10.2378 23.7982 10.217L23.7829 10.2132ZM6.25 2H15.2078C14.9931 2.25522 14.7082 2.45227 14.39 2.55903L13.05 2.99903C12.4247 3.22211 12.0018 3.80273 12 4.46903C12.0011 4.83576 12.1397 5.20487 12.369 5.5H7.74689C7.33439 5.5 7 5.83579 7 6.25C7 6.66421 7.33439 7 7.74689 7H13.7531C14.0851 7 14.3664 6.78254 14.4637 6.48175C14.9569 6.66659 15.4216 7.0466 15.59 7.54903L16 8.99903C16.2128 9.62184 16.8014 10.047 17.46 10.049C17.4664 10.0491 17.4729 10.0491 17.4793 10.0491C17.4862 10.0491 17.4931 10.0491 17.5 10.049V17.25C17.5 18.4926 16.4926 19.5 15.25 19.5H6.25C5.00736 19.5 4 18.4926 4 17.25V4.25C4 3.00736 5.00736 2 6.25 2ZM20.0009 12.4652L19.98 12.399C19.8642 12.0456 19.4335 11.9365 19.0739 11.8454C18.9866 11.8233 18.9034 11.8023 18.83 11.779C18.7115 11.7366 18.6007 11.6763 18.5005 11.6021L18.5009 17.25C18.5009 19.0449 17.0458 20.5 15.2509 20.5H6.62891C6.93778 21.3739 7.77121 22 8.75088 22H15.2509C17.8742 22 20.0009 19.8734 20.0009 17.25V12.4652ZM13.7531 14.5H7.74689C7.33439 14.5 7 14.8358 7 15.25C7 15.6642 7.33439 16 7.74689 16H13.7531C14.1656 16 14.5 15.6642 14.5 15.25C14.5 14.8358 14.1656 14.5 13.7531 14.5ZM7.74689 10C7.33439 10 7 10.3358 7 10.75C7 11.1642 7.33439 11.5 7.74689 11.5H13.7531C14.1656 11.5 14.5 11.1642 14.5 10.75C14.5 10.3358 14.1656 10 13.7531 10H7.74689Z" fill="#212121"/>
</svg>
