<svg width="24" height="24" viewBox="0 0 24 24" fill="none" xmlns="http://www.w3.org/2000/svg">
<path d="M9.5 19H19C20.6569 19 22 17.6569 22 16V11.5H10.5607L12.2803 13.2197C12.5732 13.5126 12.5732 13.9874 12.2803 14.2803C11.9874 14.5732 11.5126 14.5732 11.2197 14.2803L9.5 12.5607L9.5 19ZM8 10V9C8 9.00028 8 8.99972 8 9C7.99955 8.4481 7.55201 8 7 8C6.44772 8 6 8.44772 6 9C6 9.55228 6.44772 10 7 10H8ZM9.5 9V10H10.5C11.0523 10 11.5 9.55228 11.5 9C11.5 8.44772 11.0523 8 10.5 8C9.94772 8 9.5 8.44772 9.5 9ZM9.5 6.70802V4H19C20.6569 4 22 5.34315 22 7V10H12.792C12.9258 9.69377 13 9.35555 13 9C13 7.61929 11.8807 6.5 10.5 6.5C10.1444 6.5 9.80623 6.57422 9.5 6.70802ZM8 4V6.70802C7.69377 6.57422 7.35555 6.5 7 6.5C5.61929 6.5 4.5 7.61929 4.5 9C4.5 9.35555 4.57422 9.69377 4.70802 10H2V7C2 5.34315 3.34315 4 5 4H8ZM8 12.5607L8 19H5C3.34315 19 2 17.6569 2 16V11.5H6.93934L5.21967 13.2197C4.92678 13.5126 4.92678 13.9874 5.21967 14.2803C5.51256 14.5732 5.98744 14.5732 6.28033 14.2803L8 12.5607Z" fill="#212121"/>
</svg>
