<svg width="24" height="24" viewBox="0 0 24 24" fill="none" xmlns="http://www.w3.org/2000/svg">
<path d="M13.209 3.10255C12.7138 2.09913 11.283 2.09912 10.7878 3.10251L8.42988 7.88019L3.15735 8.64633C2.05005 8.80723 1.60791 10.168 2.40916 10.949L6.2244 14.668L5.32374 19.9192C5.13459 21.022 6.29213 21.863 7.28252 21.3423L12.3474 18.6795C12.7141 18.4868 12.855 18.0333 12.6623 17.6667C12.4695 17.3001 12.016 17.1591 11.6494 17.3518L6.85353 19.8732L7.71614 14.8438C7.79125 14.4059 7.64606 13.959 7.32788 13.6489L3.67382 10.087L8.72361 9.35326C9.16332 9.28937 9.54344 9.0132 9.74008 8.61476L11.9984 4.03892L14.487 9.08187C14.6134 9.33788 14.8741 9.49996 15.1596 9.49996H21.2496C21.6638 9.49996 21.9996 9.16418 21.9996 8.74996C21.9996 8.33575 21.6638 7.99996 21.2496 7.99996H15.6258L13.209 3.10255Z" fill="#212121"/>
<path d="M14.5 12.75C14.5 12.3358 14.8358 12 15.25 12H21.25C21.6642 12 22 12.3358 22 12.75C22 13.1642 21.6642 13.5 21.25 13.5H15.25C14.8358 13.5 14.5 13.1642 14.5 12.75Z" fill="#212121"/>
<path d="M14.5 16.75C14.5 16.3358 14.8358 16 15.25 16H21.25C21.6642 16 22 16.3358 22 16.75C22 17.1642 21.6642 17.5 21.25 17.5H15.25C14.8358 17.5 14.5 17.1642 14.5 16.75Z" fill="#212121"/>
</svg>
