<svg width="16" height="16" viewBox="0 0 16 16" fill="none" xmlns="http://www.w3.org/2000/svg">
<path d="M9.9293 4.13788C10.2876 3.95404 10.7124 3.95404 11.0707 4.13788L13.3207 5.29251C13.7377 5.50652 14 5.93587 14 6.40462V9.59372C14 10.0625 13.7377 10.4918 13.3207 10.7058L11.0707 11.8605C10.7124 12.0443 10.2876 12.0443 9.9293 11.8605L7.6793 10.7058C7.26226 10.4918 7 10.0625 7 9.59372V6.40462C7 5.93587 7.26226 5.50652 7.6793 5.29251L9.9293 4.13788ZM8.55279 6.77542C8.42929 7.02241 8.5294 7.32274 8.77639 7.44624L10 8.05804V9.49902C10 9.77517 10.2239 9.99902 10.5 9.99902C10.7761 9.99902 11 9.77517 11 9.49902V8.05804L12.2236 7.44624C12.4706 7.32274 12.5707 7.02241 12.4472 6.77542C12.3237 6.52843 12.0234 6.42832 11.7764 6.55181L10.5 7.19001L9.22361 6.55181C8.97662 6.42832 8.67628 6.52843 8.55279 6.77542ZM1.5 7.49902C1.22386 7.49902 1 7.72288 1 7.99902C1 8.27517 1.22386 8.49902 1.5 8.49902H4.5C4.77614 8.49902 5 8.27517 5 7.99902C5 7.72288 4.77614 7.49902 4.5 7.49902H1.5ZM2 5.49902C2 5.22288 2.22386 4.99902 2.5 4.99902H5.5C5.77614 4.99902 6 5.22288 6 5.49902C6 5.77517 5.77614 5.99902 5.5 5.99902H2.5C2.22386 5.99902 2 5.77517 2 5.49902ZM2.5 9.99902C2.22386 9.99902 2 10.2229 2 10.499C2 10.7752 2.22386 10.999 2.5 10.999H5.5C5.77614 10.999 6 10.7752 6 10.499C6 10.2229 5.77614 9.99902 5.5 9.99902H2.5Z" fill="#212121"/>
</svg>
