<svg width="20" height="20" viewBox="0 0 20 20" fill="none" xmlns="http://www.w3.org/2000/svg">
<path d="M12.5352 13.5961C12.0708 13.9643 11.5549 14.2704 11 14.5018L11 14.5C11 13.9624 10.9229 13.4427 10.779 12.9516C12.3945 12.1228 13.5 10.4405 13.5 8.5C13.5 5.73858 11.2614 3.5 8.5 3.5C5.73858 3.5 3.5 5.73858 3.5 8.5C3.5 8.7889 3.5245 9.07208 3.57154 9.34758C3.07603 9.53312 2.61442 9.78811 2.19857 10.1007C2.0689 9.58862 2 9.05236 2 8.5C2 4.91015 4.91015 2 8.5 2C12.0899 2 15 4.91015 15 8.5C15 10.0247 14.475 11.4268 13.596 12.5353L17.0302 15.9697C17.3231 16.2626 17.3231 16.7374 17.0302 17.0303C16.764 17.2966 16.3473 17.3208 16.0537 17.1029L15.9696 17.0303L12.5352 13.5961ZM3.0667 11.442C3.36999 12.5231 2.72399 13.642 1.63604 13.9199L1.175 14.0377C1.16002 14.1896 1.15234 14.3438 1.15234 14.4999C1.15234 14.6875 1.16344 14.8725 1.185 15.0541L1.53456 15.1368C2.654 15.4014 3.31998 16.5536 2.99064 17.6557L2.8643 18.0785C3.12149 18.2817 3.40122 18.4559 3.69895 18.5964L4.02395 18.2523C4.81377 17.416 6.14453 17.4167 6.93346 18.2538L7.27082 18.6118C7.56324 18.4769 7.83862 18.3095 8.09269 18.1142L7.93653 17.5575C7.63324 16.4764 8.27924 15.3575 9.36719 15.0795L9.82773 14.9619C9.8427 14.81 9.85038 14.6559 9.85038 14.4999C9.85038 14.3121 9.83926 14.127 9.81767 13.9452L9.46867 13.8627C8.34924 13.598 7.68325 12.4459 8.01259 11.3438L8.13877 10.9215C7.88155 10.7182 7.60176 10.5439 7.30397 10.4034L6.97928 10.7472C6.18947 11.5835 4.8587 11.5828 4.06977 10.7457L3.73241 10.3877C3.43998 10.5226 3.1646 10.6899 2.91051 10.8852L3.0667 11.442ZM5.50136 15.4999C4.94908 15.4999 4.50136 15.0521 4.50136 14.4999C4.50136 13.9476 4.94908 13.4999 5.50136 13.4999C6.05365 13.4999 6.50136 13.9476 6.50136 14.4999C6.50136 15.0521 6.05365 15.4999 5.50136 15.4999Z" fill="#212121"/>
</svg>
