<svg width="28" height="28" viewBox="0 0 28 28" fill="none" xmlns="http://www.w3.org/2000/svg">
<path d="M19.75 25.0004H8.25C7.83579 25.0004 7.5 24.6647 7.5 24.2504C7.5 23.8707 7.78215 23.5569 8.14823 23.5073L8.25 23.5004L10 23.5V21.002L4.25 21.0023C3.00736 21.0023 2 19.9949 2 18.7523V14.5005H3.5V18.7523C3.5 19.1665 3.83579 19.5023 4.25 19.5023L17.2488 19.5004L17.277 19.502L23.7488 19.5023C24.163 19.5023 24.4988 19.1665 24.4988 18.7523V14.5005H25.9988V18.7523C25.9988 19.9949 24.9915 21.0023 23.7488 21.0023L17.998 21.002V23.5L19.75 23.5004C20.1297 23.5004 20.4435 23.7826 20.4932 24.1487L20.5 24.2504C20.5 24.6301 20.2178 24.9439 19.8518 24.9936L19.75 25.0004ZM16.498 21.002H11.5V23.5004H16.4988L16.498 21.002ZM2 5.25V11.0005H3.5V5.25C3.5 4.83579 3.83579 4.5 4.25 4.5H23.7488C24.163 4.5 24.4988 4.83579 24.4988 5.25V11.0005H25.9988V5.25C25.9988 4.00736 24.9915 3 23.7488 3H4.25C3.00736 3 2 4.00736 2 5.25ZM11.1964 6.47188C11.0839 6.19084 10.8136 6.00493 10.5109 6.00051C10.2083 5.99609 9.93264 6.17404 9.81207 6.45168L7.40238 12.0004H2.75C2.33579 12.0004 2 12.3362 2 12.7504C2 13.1646 2.33579 13.5004 2.75 13.5004H7.89434C8.19305 13.5004 8.46328 13.3232 8.58227 13.0492L10.4716 8.69876L13.8036 17.029C13.9147 17.3066 14.1801 17.4917 14.479 17.5001C14.7779 17.5085 15.0532 17.3386 15.1796 17.0676L18.0233 10.9741L19.0792 13.0858C19.2062 13.3399 19.4659 13.5004 19.75 13.5004H25.25C25.6642 13.5004 26 13.1646 26 12.7504C26 12.3362 25.6642 12.0004 25.25 12.0004H20.2135L18.6708 8.91502C18.5421 8.65766 18.2776 8.49661 17.9899 8.5005C17.7022 8.50438 17.442 8.67253 17.3204 8.93326L14.553 14.8634L11.1964 6.47188Z" fill="#212121"/>
</svg>
