<svg width="24" height="24" viewBox="0 0 24 24" fill="none" xmlns="http://www.w3.org/2000/svg">
<path d="M18 20.5C18.276 20.5 18.5 20.275 18.5 20V10H14C12.896 10 12 9.104 12 8V3.5H6C5.724 3.5 5.5 3.725 5.5 4V14.6273C5.0625 14.3222 4.55203 14.1144 4 14.0354V4C4 2.896 4.896 2 6 2H12.172C12.6865 2 13.2194 2.22035 13.585 2.586L19.414 8.414C19.789 8.789 20 9.298 20 9.828V20C20 21.104 19.104 22 18 22H16.2636C16.6282 21.5865 16.8786 21.0701 16.9659 20.5H18ZM17.378 8.5L13.5 4.621V8C13.5 8.275 13.724 8.5 14 8.5H17.378ZM12.0522 20.5C12.2553 21.36 13.0279 22 13.95 22H14.05C14.9721 22 15.7447 21.36 15.9478 20.5C15.9819 20.3555 16 20.2049 16 20.05V19.8162C16 19.2015 15.6775 18.6318 15.1504 18.3156L13.6214 17.3982C13.5461 17.353 13.5 17.2716 13.5 17.1838V16.95C13.5 16.7015 13.7015 16.5 13.95 16.5H14.05C14.2985 16.5 14.5 16.7015 14.5 16.95V17C14.5 17.4142 14.8358 17.75 15.25 17.75C15.6642 17.75 16 17.4142 16 17V16.95C16 15.873 15.127 15 14.05 15H13.95C12.873 15 12 15.873 12 16.95V17.1838C12 17.7985 12.3225 18.3682 12.8496 18.6844L14.3786 19.6018C14.4539 19.647 14.5 19.7284 14.5 19.8162V20.05C14.5 20.2985 14.2985 20.5 14.05 20.5H13.95C13.7015 20.5 13.5 20.2985 13.5 20.05V20C13.5 19.5858 13.1642 19.25 12.75 19.25C12.3358 19.25 12 19.5858 12 20V20.05C12 20.2049 12.0181 20.3555 12.0522 20.5ZM7.24666 21C7.1601 20.8451 7.09405 20.6772 7.05218 20.5C7.01806 20.3555 7 20.2049 7 20.05V20C7 19.5858 7.33579 19.25 7.75 19.25C8.16421 19.25 8.5 19.5858 8.5 20V20.05C8.5 20.2985 8.70147 20.5 8.95 20.5H9.05C9.29853 20.5 9.5 20.2985 9.5 20.05V19.8162C9.5 19.7284 9.45393 19.647 9.37862 19.6018L7.84963 18.6844C7.32252 18.3682 7 17.7985 7 17.1838V16.95C7 15.873 7.87304 15 8.95 15H9.05C10.127 15 11 15.873 11 16.95V17C11 17.4142 10.6642 17.75 10.25 17.75C9.83579 17.75 9.5 17.4142 9.5 17V16.95C9.5 16.7015 9.29853 16.5 9.05 16.5H8.95C8.70147 16.5 8.5 16.7015 8.5 16.95V17.1838C8.5 17.2716 8.54607 17.353 8.62138 17.3982L10.1504 18.3156C10.6775 18.6318 11 19.2015 11 19.8162V20.05C11 20.2049 10.9819 20.3555 10.9478 20.5C10.906 20.6772 10.8399 20.8451 10.7533 21C10.4199 21.5966 9.78205 22 9.05 22H8.95C8.21795 22 7.58012 21.5966 7.24666 21ZM5.80831 20.4618C5.9318 20.1657 6 19.8408 6 19.5C6 19.1734 5.7913 18.8956 5.5 18.7927C5.42181 18.765 5.33766 18.75 5.25 18.75C4.97225 18.75 4.72976 18.901 4.60013 19.1254C4.53645 19.2356 4.5 19.3635 4.5 19.5C4.5 19.8575 4.31237 20.1712 4.03022 20.348C3.87651 20.4443 3.69476 20.5 3.5 20.5C2.94772 20.5 2.5 20.0523 2.5 19.5V17.5C2.5 16.9477 2.94772 16.5 3.5 16.5C3.68214 16.5 3.85291 16.5487 4 16.6338C4.2989 16.8067 4.5 17.1299 4.5 17.5C4.5 17.6365 4.53644 17.7644 4.60013 17.8746C4.72976 18.099 4.97225 18.25 5.25 18.25C5.33766 18.25 5.42181 18.235 5.5 18.2073C5.7913 18.1044 6 17.8266 6 17.5C6 16.9371 5.81396 16.4176 5.5 15.9998C5.13939 15.5198 4.61002 15.1738 4 15.05C3.83844 15.0172 3.67123 15 3.5 15C2.11929 15 1 16.1193 1 17.5V19.5C1 20.8807 2.11929 22 3.5 22C3.98733 22 4.44208 21.8606 4.82655 21.6194C5.2625 21.346 5.60808 20.9418 5.80831 20.4618Z" fill="#212121"/>
</svg>
