<svg width="24" height="24" viewBox="0 0 24 24" fill="none" xmlns="http://www.w3.org/2000/svg">
<path d="M18.4932 5.00684C19.3994 5.58357 20.001 6.59625 20.001 7.75V16.25C20.001 19.4256 17.4266 22 14.251 22H9.75098C8.59723 22 7.58455 21.3984 7.00781 20.4922C7.08831 20.4967 7.16935 20.5 7.25098 20.5H14.251C16.5982 20.5 18.501 18.5972 18.501 16.25V5.25C18.501 5.16837 18.4977 5.08733 18.4932 5.00684ZM14.25 2C16.0449 2 17.5 3.45507 17.5 5.25V16.25C17.5 18.0449 16.0449 19.5 14.25 19.5H7.25C5.45507 19.5 4 18.0449 4 16.25V5.25C4 3.45507 5.45507 2 7.25 2H14.25ZM9.9043 7.68848C9.07147 7.17716 8.00009 7.77665 8 8.75391V12.7461C8.00014 13.7233 9.07148 14.3229 9.9043 13.8115L13.1553 11.8154C13.9497 11.3276 13.9496 10.1725 13.1553 9.68457L9.9043 7.68848Z" fill="#212121"/>
</svg>
