<svg width="48" height="48" viewBox="0 0 48 48" fill="none" xmlns="http://www.w3.org/2000/svg">
<path d="M25.081 6.41893C26.2076 5.40756 28 6.20715 28 7.7212V40.2797C28 41.7938 26.2077 42.5934 25.081 41.582L16.875 34.2157C16.0034 33.4333 14.8734 33.0005 13.702 33.0005H9C6.10051 33.0005 3.75 30.65 3.75 27.7505V20.2505C3.75 17.351 6.10051 15.0005 9 15.0005H13.702C14.8734 15.0005 16.0034 14.5677 16.875 13.7852L25.081 6.41893ZM25.5 9.40232L18.5451 15.6456C17.2146 16.8399 15.4898 17.5005 13.702 17.5005H9C7.48122 17.5005 6.25 18.7317 6.25 20.2505V27.7505C6.25 29.2692 7.48122 30.5005 9 30.5005H13.702C15.4898 30.5005 17.2146 31.1611 18.5451 32.3553L25.5 38.5986V9.40232ZM32.3341 14.3999C32.8038 13.894 33.5947 13.8647 34.1006 14.3345L34.1023 14.336L34.1043 14.3379L34.1092 14.3425L34.1229 14.3555C34.1336 14.3657 34.1477 14.3792 34.1647 14.396C34.1988 14.4294 34.2451 14.4758 34.3018 14.5348C34.4152 14.6529 34.5707 14.8219 34.7541 15.0402C35.1202 15.4761 35.6009 16.1121 36.0798 16.9331C37.0374 18.5747 38.0001 20.9781 38.0001 24.0005C38.0001 27.0228 37.0374 29.4262 36.0798 31.0678C35.6009 31.8888 35.1202 32.5248 34.7541 32.9607C34.5707 33.179 34.4152 33.3481 34.3018 33.4661C34.2451 33.5252 34.1988 33.5715 34.1647 33.605L34.1452 33.624L34.1229 33.6455L34.1092 33.6584L34.1043 33.663L34.1015 33.6656L34.1006 33.6665C33.5947 34.1362 32.8038 34.1069 32.3341 33.601C31.8653 33.0962 31.8935 32.3076 32.3962 31.8375L32.3979 31.836L32.414 31.8203C32.4312 31.8034 32.4601 31.7746 32.4991 31.734C32.5771 31.6529 32.695 31.5251 32.8398 31.3527C33.1299 31.0074 33.5242 30.4872 33.9203 29.8081C34.7127 28.4498 35.5001 26.4781 35.5001 24.0005C35.5001 21.5228 34.7127 19.5512 33.9203 18.1928C33.5242 17.5138 33.1299 16.9935 32.8398 16.6482C32.695 16.4759 32.5771 16.3481 32.4991 16.2669C32.4601 16.2263 32.4312 16.1975 32.414 16.1806L32.3973 16.1644L32.3981 16.1652C31.8929 15.6954 31.8645 14.9055 32.3341 14.3999ZM34.1006 14.3345L34.1647 14.396C34.0695 14.3069 34.097 14.3313 34.1006 14.3345Z" fill="#212121"/>
</svg>
