<svg width="32" height="32" viewBox="0 0 32 32" fill="none" xmlns="http://www.w3.org/2000/svg">
<path d="M8 12C8 7.58172 11.5817 4 16 4C20.4183 4 24 7.58172 24 12C24 12.895 23.853 13.7556 23.5819 14.5591C24.2494 14.758 24.8537 15.0754 25.377 15.4824C25.7798 14.3979 26 13.2247 26 12C26 6.47715 21.5228 2 16 2C10.4772 2 6 6.47715 6 12C6 13.7917 6.47122 15.4734 7.29648 16.9278C7.79567 16.4738 8.37355 16.1164 8.99747 15.8714C8.36188 14.7243 8 13.4044 8 12ZM22.4995 12C22.4995 12.7891 22.3589 13.5454 22.1014 14.2452L20.5033 13.936V11.999C20.5033 9.51428 18.4886 7.5 16.0033 7.5C15.9323 7.5 15.8617 7.50165 15.7915 7.5049C13.403 7.61367 11.4999 9.58459 11.4999 12C11.4999 12.0594 11.501 12.1186 11.5033 12.1775V15.5128C11.1762 15.4828 10.8501 15.4828 10.5288 15.511C9.8776 14.4984 9.49986 13.2933 9.49986 12C9.49986 8.41025 12.4099 5.50017 15.9997 5.50017C19.5895 5.50017 22.4995 8.41025 22.4995 12ZM16.0023 9C14.3454 9 13.0023 10.3431 13.0023 12V17.4951L12.5533 17.3064C10.3222 16.3688 7.77606 17.6117 7.14293 19.9475L7.05279 20.2801C6.84144 21.0598 7.28534 21.8419 8.01589 22.0968C12.7552 23.7505 14.2434 26.0211 14.817 27.6003C15.1161 28.424 15.933 29.0791 16.9304 28.9978L21.6899 28.6103C22.9463 28.508 24.0048 27.6311 24.339 26.4157L25.8585 20.8902C26.4766 18.6429 25.05 16.3453 22.7617 15.9024L19.0023 15.175V12C19.0023 10.3431 17.6591 9 16.0023 9Z" fill="#212121"/>
</svg>
