<svg width="24" height="24" viewBox="0 0 24 24" fill="none" xmlns="http://www.w3.org/2000/svg">
<path d="M20.25 4.5L3.75 4.5C3.33579 4.5 3 4.16421 3 3.75C3 3.33579 3.33579 3 3.75 3H20.25C20.6642 3 21 3.33579 21 3.75C21 4.16421 20.6642 4.5 20.25 4.5Z" fill="#212121"/>
<path d="M8 8H5.25C4.00736 8 3 8.89543 3 10V14C3 15.1046 4.00736 16 5.25 16H8L8 8Z" fill="#212121"/>
<path d="M9.5 16H14.5L14.5 8H9.5L9.5 16Z" fill="#212121"/>
<path d="M18.75 16H16L16 8H18.75C19.9926 8 21 8.89543 21 10V14C21 15.1046 19.9926 16 18.75 16Z" fill="#212121"/>
<path d="M3.75 21L20.25 21C20.6642 21 21 20.6642 21 20.25C21 19.8358 20.6642 19.5 20.25 19.5L3.75 19.5C3.33579 19.5 3 19.8358 3 20.25C3 20.6642 3.33579 21 3.75 21Z" fill="#212121"/>
</svg>
