<svg width="16" height="16" viewBox="0 0 16 16" fill="none" xmlns="http://www.w3.org/2000/svg">
<path d="M8 2C4.68629 2 2 4.68629 2 8C2 11.3137 4.68629 14 8 14C11.3137 14 14 11.3137 14 8C14 4.68629 11.3137 2 8 2ZM0 8C0 3.58172 3.58172 0 8 0C12.4183 0 16 3.58172 16 8C16 12.4183 12.4183 16 8 16C3.58172 16 0 12.4183 0 8Z" fill="#212121"/>
<path d="M5.24902 7C4.69674 7 4.24902 7.44772 4.24902 8C4.24902 8.55229 4.69674 9 5.24902 9H10.7499C11.3022 9 11.7499 8.55229 11.7499 8C11.7499 7.44772 11.3022 7 10.7499 7H5.24902Z" fill="#212121"/>
</svg>
