<svg width="28" height="28" viewBox="0 0 28 28" fill="none" xmlns="http://www.w3.org/2000/svg">
<path d="M20.5 14C24.0899 14 27 16.9101 27 20.5C27 24.0899 24.0899 27 20.5 27C16.9101 27 14 24.0899 14 20.5C14 16.9101 16.9101 14 20.5 14ZM6 13C7.65685 13 9 14.3431 9 16V22C9 23.6569 7.65685 25 6 25C4.34315 25 3 23.6569 3 22V16C3 14.3431 4.34315 13 6 13ZM14 8C15.6569 8 17 9.34315 17 11V13.8662C16.4572 14.1532 15.9536 14.5041 15.5 14.9102V11C15.5 10.1716 14.8284 9.5 14 9.5C13.1716 9.5 12.5 10.1716 12.5 11V22C12.5 22.6899 12.9663 23.2693 13.6006 23.4443C13.8322 23.9864 14.1259 24.4954 14.4727 24.9629C14.3187 24.9873 14.1608 25 14 25C12.3431 25 11 23.6569 11 22V11C11 9.34315 12.3431 8 14 8ZM20.5 16C20.2239 16 20 16.2239 20 16.5V20H16.5C16.2239 20 16 20.2239 16 20.5C16 20.7761 16.2239 21 16.5 21H20V24.5C20 24.7761 20.2239 25 20.5 25C20.7761 25 21 24.7761 21 24.5V21H24.5C24.7761 21 25 20.7761 25 20.5C25 20.2239 24.7761 20 24.5 20H21V16.5C21 16.2239 20.7761 16 20.5 16ZM6 14.5C5.17157 14.5 4.5 15.1716 4.5 16V22C4.5 22.8284 5.17157 23.5 6 23.5C6.82843 23.5 7.5 22.8284 7.5 22V16C7.5 15.1716 6.82843 14.5 6 14.5ZM22 3C23.6569 3 25 4.34315 25 6V14.5C24.5385 14.1533 24.0353 13.8599 23.5 13.626V6C23.5 5.17157 22.8284 4.5 22 4.5C21.1716 4.5 20.5 5.17157 20.5 6V13C19.9863 13 19.4846 13.051 19 13.1494V6C19 4.34315 20.3431 3 22 3Z" fill="#212121"/>
</svg>
