<svg width="20" height="20" viewBox="0 0 20 20" fill="none" xmlns="http://www.w3.org/2000/svg">
<path d="M3 5.5C3 4.11929 4.11929 3 5.5 3H14.5C15.8807 3 17 4.11929 17 5.5V16.25C17 16.6642 16.6642 17 16.25 17C15.8358 17 15.5 16.6642 15.5 16.25V13.5C15.5 12.9477 15.0523 12.5 14.5 12.5H5.5C4.94772 12.5 4.5 12.9477 4.5 13.5V16.25C4.5 16.6642 4.16421 17 3.75 17C3.33579 17 3 16.6642 3 16.25V5.5ZM4.5 11.208C4.80623 11.0742 5.14445 11 5.5 11H14.5C14.8556 11 15.1938 11.0742 15.5 11.208V9.5C15.5 8.94772 15.0523 8.5 14.5 8.5H5.5C4.94772 8.5 4.5 8.94772 4.5 9.5V11.208ZM15.5 5.5C15.5 4.94772 15.0523 4.5 14.5 4.5H5.5C4.94772 4.5 4.5 4.94772 4.5 5.5V7.20802C4.80623 7.07422 5.14445 7 5.5 7H14.5C14.8556 7 15.1938 7.07422 15.5 7.20802V5.5Z" fill="#212121"/>
</svg>
