<svg width="28" height="28" viewBox="0 0 28 28" fill="none" xmlns="http://www.w3.org/2000/svg">
<path d="M2.75 9H14.075C14.4225 10.7117 15.9358 12 17.75 12C19.5642 12 21.0775 10.7117 21.425 9H25.25C25.6642 9 26 8.66421 26 8.25C26 7.83579 25.6642 7.5 25.25 7.5H21.425C21.0775 5.78832 19.5642 4.5 17.75 4.5C15.9358 4.5 14.4225 5.78832 14.075 7.5H2.75C2.33579 7.5 2 7.83579 2 8.25C2 8.66421 2.33579 9 2.75 9ZM10.25 23.5C8.43578 23.5 6.92247 22.2117 6.57501 20.5H2.75C2.33579 20.5 2 20.1642 2 19.75C2 19.3358 2.33579 19 2.75 19H6.57501C6.92247 17.2883 8.43578 16 10.25 16C12.0642 16 13.5775 17.2883 13.925 19H25.25C25.6642 19 26 19.3358 26 19.75C26 20.1642 25.6642 20.5 25.25 20.5H13.925C13.5775 22.2117 12.0642 23.5 10.25 23.5Z" fill="#212121"/>
</svg>
