<svg width="48" height="48" viewBox="0 0 48 48" fill="none" xmlns="http://www.w3.org/2000/svg">
<path d="M17.75 29.5C20.7737 29.5 23.2959 31.6472 23.875 34.5H42.75C43.4404 34.5 44 35.0596 44 35.75C44 36.4404 43.4404 37 42.75 37H23.875C23.2959 39.8528 20.7737 42 17.75 42C14.7263 42 12.2041 39.8528 11.625 37H5.25C4.55964 37 4 36.4404 4 35.75C4 35.0596 4.55964 34.5 5.25 34.5H11.625C12.2041 31.6472 14.7263 29.5 17.75 29.5ZM30.25 6C33.2737 6 35.7959 8.1472 36.375 11H42.75C43.4404 11 44 11.5596 44 12.25C44 12.9404 43.4404 13.5 42.75 13.5H36.375C35.7959 16.3528 33.2737 18.5 30.25 18.5C27.2263 18.5 24.7041 16.3528 24.125 13.5H5.25C4.55964 13.5 4 12.9404 4 12.25C4 11.5596 4.55964 11 5.25 11H24.125C24.7041 8.1472 27.2263 6 30.25 6Z" fill="#212121"/>
</svg>
