<svg width="32" height="32" viewBox="0 0 32 32" fill="none" xmlns="http://www.w3.org/2000/svg">
<path d="M2.5 10H16.0275C16.2762 12.25 18.1837 14 20.5 14C22.8163 14 24.7238 12.25 24.9725 10H29.5C29.7761 10 30 9.77614 30 9.5C30 9.22386 29.7761 9 29.5 9H24.9725C24.7238 6.75002 22.8163 5 20.5 5C18.1837 5 16.2762 6.75002 16.0275 9H2.5C2.22386 9 2 9.22386 2 9.5C2 9.77614 2.22386 10 2.5 10ZM20.5 6C22.433 6 24 7.567 24 9.5C24 11.433 22.433 13 20.5 13C18.567 13 17 11.433 17 9.5C17 7.567 18.567 6 20.5 6ZM15.9725 23C15.7238 25.25 13.8163 27 11.5 27C9.18372 27 7.27619 25.25 7.02746 23H2.5C2.22386 23 2 22.7761 2 22.5C2 22.2239 2.22386 22 2.5 22H7.02746C7.27619 19.75 9.18372 18 11.5 18C13.8163 18 15.7238 19.75 15.9725 22H29.5C29.7761 22 30 22.2239 30 22.5C30 22.7761 29.7761 23 29.5 23H15.9725ZM8 22.5C8 24.433 9.567 26 11.5 26C13.433 26 15 24.433 15 22.5C15 20.567 13.433 19 11.5 19C9.567 19 8 20.567 8 22.5Z" fill="#212121"/>
</svg>
