<svg width="48" height="48" viewBox="0 0 48 48" fill="none" xmlns="http://www.w3.org/2000/svg">
<path d="M5.25 15.5H25.125C25.7041 18.3528 28.2263 20.5 31.25 20.5C34.2737 20.5 36.7959 18.3528 37.375 15.5H42.75C43.4404 15.5 44 14.9404 44 14.25C44 13.5596 43.4404 13 42.75 13H37.375C36.7959 10.1472 34.2737 8 31.25 8C28.2263 8 25.7041 10.1472 25.125 13H5.25C4.55964 13 4 13.5596 4 14.25C4 14.9404 4.55964 15.5 5.25 15.5ZM5.25 34.5H10.875C11.4541 37.3528 13.9763 39.5 17 39.5C20.0237 39.5 22.5459 37.3528 23.125 34.5H42.75C43.4404 34.5 44 33.9404 44 33.25C44 32.5596 43.4404 32 42.75 32H23.125C22.5459 29.1472 20.0237 27 17 27C13.9763 27 11.4541 29.1472 10.875 32H5.25C4.55964 32 4 32.5596 4 33.25C4 33.9404 4.55964 34.5 5.25 34.5Z" fill="#212121"/>
</svg>
