<svg width="24" height="24" viewBox="0 0 24 24" fill="none" xmlns="http://www.w3.org/2000/svg">
<path d="M8.75 13.5C10.2862 13.5 11.5735 14.5658 11.9126 15.9983L21.25 16C21.6642 16 22 16.3358 22 16.75C22 17.1297 21.7178 17.4435 21.3518 17.4932L21.25 17.5L11.9129 17.5007C11.5741 18.9337 10.2866 20 8.75 20C7.21345 20 5.92594 18.9337 5.58712 17.5007L2.75 17.5C2.33579 17.5 2 17.1642 2 16.75C2 16.3703 2.28215 16.0565 2.64823 16.0068L2.75 16L5.58712 15.9993C5.92594 14.5663 7.21345 13.5 8.75 13.5ZM8.75 15C7.98586 15 7.33611 15.4898 7.09753 16.1725L7.07696 16.2352L7.03847 16.3834C7.01326 16.5016 7 16.6242 7 16.75C7 16.9048 7.02011 17.055 7.05785 17.1979L7.09766 17.3279L7.12335 17.3966C7.38055 18.0431 8.01191 18.5 8.75 18.5C9.51376 18.5 10.1632 18.0107 10.4021 17.3285L10.4422 17.1978L10.4251 17.2581C10.4738 17.0973 10.5 16.9267 10.5 16.75C10.5 16.6452 10.4908 16.5425 10.4731 16.4428L10.4431 16.3057L10.4231 16.2353L10.3763 16.1024C10.1188 15.4565 9.48771 15 8.75 15ZM15.25 4C16.7866 4 18.0741 5.06632 18.4129 6.49934L21.25 6.5C21.6642 6.5 22 6.83579 22 7.25C22 7.6297 21.7178 7.94349 21.3518 7.99315L21.25 8L18.4129 8.00066C18.0741 9.43368 16.7866 10.5 15.25 10.5C13.7134 10.5 12.4259 9.43368 12.0871 8.00066L2.75 8C2.33579 8 2 7.66421 2 7.25C2 6.8703 2.28215 6.55651 2.64823 6.50685L2.75 6.5L12.0874 6.49833C12.4265 5.06582 13.7138 4 15.25 4ZM15.25 5.5C14.4859 5.5 13.8361 5.98976 13.5975 6.6725L13.577 6.73515L13.5385 6.88337C13.5133 7.0016 13.5 7.12425 13.5 7.25C13.5 7.40483 13.5201 7.55497 13.5579 7.69794L13.5977 7.82787L13.6234 7.89664C13.8805 8.54307 14.5119 9 15.25 9C16.0138 9 16.6632 8.51073 16.9021 7.82852L16.9422 7.69781L16.9251 7.75808C16.9738 7.59729 17 7.4267 17 7.25C17 7.14518 16.9908 7.04251 16.9731 6.94275L16.9431 6.80565L16.9231 6.73529L16.8763 6.60236C16.6188 5.95647 15.9877 5.5 15.25 5.5Z" fill="#212121"/>
</svg>
