<svg width="48" height="48" viewBox="0 0 48 48" fill="none" xmlns="http://www.w3.org/2000/svg">
<path d="M24 4V15.25C24 17.3211 25.6789 19 27.75 19H40V40C40 41.6569 38.6569 43 37 43H19V36.3317C20.2534 34.722 21 32.6982 21 30.5C21 25.2533 16.7467 21 11.5 21C10.264 21 9.08312 21.236 8 21.6655V7C8 5.34315 9.34315 4 11 4H24ZM15 39.3347C15.7131 39.0519 16.3838 38.6853 17 38.2471V44.9579C17 45.8078 16.0357 46.2989 15.3483 45.7989L11.5 43.0002L7.6517 45.7989C6.96429 46.2989 6 45.8078 6 44.9579V38.2471C6.61619 38.6853 7.28691 39.0519 8 39.3347C9.08312 39.7641 10.264 40.0002 11.5 40.0002C12.736 40.0002 13.9169 39.7641 15 39.3347ZM11.5 38C10.2359 38 9.04486 37.6873 8 37.135C5.6211 35.8775 4 33.378 4 30.5C4 27.622 5.6211 25.1225 8 23.865C9.04486 23.3127 10.2359 23 11.5 23C15.6421 23 19 26.3579 19 30.5C19 34.6421 15.6421 38 11.5 38ZM26.5 4.46429V15.25C26.5 15.9404 27.0596 16.5 27.75 16.5H39.4615L26.5 4.46429Z" fill="#212121"/>
</svg>
