<svg width="24" height="24" viewBox="0 0 24 24" fill="none" xmlns="http://www.w3.org/2000/svg">
<path d="M6.00781 5C6.13547 3.32189 7.53753 2 9.24834 2H17.25C19.8733 2 22 4.12665 22 6.75V14.75C22 16.4608 20.6781 17.8629 19 17.9905C18.9994 17.9906 18.9989 17.9905 18.9983 17.9905V9.25C18.9983 6.90279 17.0956 5 14.7483 5H6.00781ZM5.25003 6C3.45509 6 2 7.45507 2 9.25V16.5H9.25C10.4926 16.5 11.5 17.5074 11.5 18.75V22H14.7501C16.5451 22 18.0002 20.5449 18.0002 18.75V9.25C18.0002 7.45507 16.5451 6 14.7501 6H5.25003ZM2 18.75V18H9.25C9.66421 18 10 18.3358 10 18.75V22H5.25003C3.45509 22 2 20.5449 2 18.75Z" fill="#212121"/>
</svg>
