<svg width="20" height="20" viewBox="0 0 20 20" fill="none" xmlns="http://www.w3.org/2000/svg">
<path d="M4 4.99992C4 3.99292 4.875 3.24492 5.9 2.77692C7.19833 2.2375 8.59433 1.97294 10 1.99992C11.4057 1.97294 12.8017 2.2375 14.1 2.77692C15.125 3.24492 16 3.99292 16 4.99992V9.20703C15.6777 9.11588 15.3434 9.05337 15 9.02242V6.69992C14.7194 6.90626 14.4177 7.08224 14.1 7.22492C12.8015 7.76366 11.4055 8.02754 10 7.99992C8.59433 8.0269 7.19833 7.76234 5.9 7.22292C5.58236 7.08088 5.28068 6.90556 5 6.69992V14.9999C5 15.3739 5.356 15.8749 6.318 16.3129C7.36157 16.7412 8.47394 16.9735 9.59942 16.9994C9.78269 17.358 10.0042 17.6939 10.2585 18.0016C10.1724 18.0021 10.0862 18.0016 10 17.9999C8.59433 18.0269 7.19833 17.7623 5.9 17.2229C4.875 16.7549 4 16.0069 4 14.9999V4.99992ZM5 4.99992C5 5.37392 5.356 5.87492 6.318 6.31292C7.48524 6.79198 8.73854 7.02583 10 6.99992C11.2615 7.02583 12.5148 6.79198 13.682 6.31292C14.644 5.87492 15 5.37392 15 4.99992C15 4.62592 14.644 4.12492 13.682 3.68692C12.5148 3.20786 11.2615 2.97402 10 2.99992C8.73854 2.97402 7.48524 3.20786 6.318 3.68692C5.356 4.12492 5 4.62592 5 4.99992ZM19 14.5C19 16.9853 16.9853 19 14.5 19C12.0147 19 10 16.9853 10 14.5C10 12.0147 12.0147 10 14.5 10C16.9853 10 19 12.0147 19 14.5ZM14.146 16.8532L14.1486 16.8557C14.196 16.9026 14.2505 16.938 14.3086 16.9621C14.3667 16.9861 14.4303 16.9996 14.497 17L14.5 17L14.503 17C14.5697 16.9996 14.6333 16.9861 14.6914 16.9621C14.7504 16.9377 14.8056 16.9015 14.8536 16.8536L16.8536 14.8536C17.0488 14.6583 17.0488 14.3417 16.8536 14.1464C16.6583 13.9512 16.3417 13.9512 16.1464 14.1464L15 15.2929V12.5C15 12.2239 14.7761 12 14.5 12C14.2239 12 14 12.2239 14 12.5V15.2929L12.8536 14.1464C12.6583 13.9512 12.3417 13.9512 12.1464 14.1464C11.9512 14.3417 11.9512 14.6583 12.1464 14.8536L14.146 16.8532Z" fill="#212121"/>
</svg>
