<svg width="16" height="16" viewBox="0 0 16 16" fill="none" xmlns="http://www.w3.org/2000/svg">
<path d="M2 3.5C2 2.67157 2.67157 2 3.5 2H11C12.1046 2 13 2.89543 13 4V4.26756C13.5978 4.61337 14 5.25972 14 6V12C14 13.1046 13.1046 14 12 14H4.5C3.11929 14 2 12.8807 2 11.5V3.5ZM3 3.5C3 3.77614 3.22386 4 3.5 4H12C12 3.44772 11.5523 3 11 3H3.5C3.22386 3 3 3.22386 3 3.5ZM10.5 8C10.2239 8 10 8.22386 10 8.5C10 8.77614 10.2239 9 10.5 9H11.5C11.7761 9 12 8.77614 12 8.5C12 8.22386 11.7761 8 11.5 8H10.5Z" fill="#212121"/>
</svg>
