<svg width="16" height="16" viewBox="0 0 16 16" fill="none" xmlns="http://www.w3.org/2000/svg">
<path d="M6.5 1C5.84689 1 5.29127 1.4174 5.08535 2H4.5C3.67157 2 3 2.67157 3 3.5V13.5C3 14.3284 3.67157 15 4.5 15H11.5C12.3284 15 13 14.3284 13 13.5V3.5C13 2.67157 12.3284 2 11.5 2H10.9146C10.7087 1.4174 10.1531 1 9.5 1H6.5ZM6 2.5C6 2.22386 6.22386 2 6.5 2H9.5C9.77614 2 10 2.22386 10 2.5C10 2.77614 9.77614 3 9.5 3H6.5C6.22386 3 6 2.77614 6 2.5ZM4.5 3H5.08535C5.29127 3.5826 5.84689 4 6.5 4H9.5C10.1531 4 10.7087 3.5826 10.9146 3H11.5C11.7761 3 12 3.22386 12 3.5V13.5C12 13.7761 11.7761 14 11.5 14H4.5C4.22386 14 4 13.7761 4 13.5V3.5C4 3.22386 4.22386 3 4.5 3ZM5.5 6C5.22386 6 5 6.22386 5 6.5C5 6.77614 5.22386 7 5.5 7H10.5C10.7761 7 11 6.77614 11 6.5C11 6.22386 10.7761 6 10.5 6H5.5ZM8 9C8 8.72386 8.22386 8.5 8.5 8.5H10.5C10.7761 8.5 11 8.72386 11 9C11 9.27614 10.7761 9.5 10.5 9.5H8.5C8.22386 9.5 8 9.27614 8 9ZM6.5 11C6.22386 11 6 11.2239 6 11.5C6 11.7761 6.22386 12 6.5 12H10.5C10.7761 12 11 11.7761 11 11.5C11 11.2239 10.7761 11 10.5 11H6.5Z" fill="#212121"/>
</svg>
