<svg width="20" height="20" viewBox="0 0 20 20" fill="none" xmlns="http://www.w3.org/2000/svg">
<path d="M4.5 2C4.77614 2 5 1.77614 5 1.5C5 1.22386 4.77614 1 4.5 1C4.22386 1 4 1.22386 4 1.5C4 1.77614 4.22386 2 4.5 2ZM4.5 2.5C4.77614 2.5 5 2.72386 5 3V5.5C5 5.77614 4.77614 6 4.5 6C4.22386 6 4 5.77614 4 5.5V3C4 2.72386 4.22386 2.5 4.5 2.5ZM4.5 8.5C4.77614 8.5 5 8.72386 5 9V11.5C5 11.7761 4.77614 12 4.5 12C4.22386 12 4 11.7761 4 11.5V9C4 8.72386 4.22386 8.5 4.5 8.5ZM5 15C5 14.7239 4.77614 14.5 4.5 14.5C4.22386 14.5 4 14.7239 4 15V17.5C4 17.7761 4.22386 18 4.5 18C4.77614 18 5 17.7761 5 17.5V15ZM8 4.5C8 4.22386 8.22386 4 8.5 4H16.5C16.7761 4 17 4.22386 17 4.5C17 4.77614 16.7761 5 16.5 5H8.5C8.22386 5 8 4.77614 8 4.5ZM8 9.5C8 9.22386 8.22386 9 8.5 9H16.5C16.7761 9 17 9.22386 17 9.5C17 9.77614 16.7761 10 16.5 10H8.5C8.22386 10 8 9.77614 8 9.5ZM8 14.5C8 14.2239 8.22386 14 8.5 14H16.5C16.7761 14 17 14.2239 17 14.5C17 14.7761 16.7761 15 16.5 15H8.5C8.22386 15 8 14.7761 8 14.5ZM5 7.5C5 7.77614 4.77614 8 4.5 8C4.22386 8 4 7.77614 4 7.5C4 7.22386 4.22386 7 4.5 7C4.77614 7 5 7.22386 5 7.5ZM4.5 14C4.77614 14 5 13.7761 5 13.5C5 13.2239 4.77614 13 4.5 13C4.22386 13 4 13.2239 4 13.5C4 13.7761 4.22386 14 4.5 14Z" fill="#212121"/>
</svg>
