<?xml version="1.0" encoding="UTF-8"?>
<svg width="24px" height="24px" viewBox="0 0 24 24" version="1.1" xmlns="http://www.w3.org/2000/svg" xmlns:xlink="http://www.w3.org/1999/xlink">
    <!-- Generator: Sketch 59.1 (86144) - https://sketch.com -->
    <title>ic_heart_24_regular</title>
    <desc>Created with Sketch.</desc>
    <g id="ðŸ”-Product-Icons" stroke="none" stroke-width="1" fill="none" fill-rule="evenodd">
        <g id="ic_heart_24_regular" fill="#212121">
            <path d="M12.8198687,5.57958759 L11.9991485,6.40209417 L11.1758977,5.57884333 C9.07682963,3.47977526 5.67356786,3.47977526 3.5744998,5.57884333 C1.47543173,7.6779114 1.47543173,11.0811732 3.5744998,13.1802412 L11.4698687,21.0756101 C11.7627619,21.3685033 12.2376356,21.3685033 12.5305288,21.0756101 L20.4319958,13.1787767 C22.5263889,11.0727481 22.5299763,7.6790351 20.4305288,5.57958759 C18.3276384,3.4766972 14.9227559,3.47670037 12.8198687,5.57958759 Z M19.3684016,12.1210587 L12.0001987,19.4846198 L4.63515997,12.1195811 C3.12187834,10.6062994 3.12187834,8.15278513 4.63515997,6.6395035 C6.1484416,5.12622187 8.60195589,5.12622187 10.1152375,6.6395035 L11.4726817,7.99694767 C11.7705471,8.2948131 12.2552416,8.28900906 12.545889,7.98409641 L13.8805288,6.64024776 C15.3976301,5.12314654 17.8527652,5.12314425 19.3698687,6.64024776 C20.8835151,8.15389424 20.8809293,10.6001281 19.3684016,12.1210587 Z" id="ðŸŽ¨-Color"></path>
        </g>
    </g>
</svg>