<svg width="20" height="20" viewBox="0 0 20 20" fill="none" xmlns="http://www.w3.org/2000/svg">
<path d="M14.0702 11.7459C14.8591 12.5827 16.1896 12.583 16.9793 11.7468L17.3036 11.4031C17.6013 11.5436 17.8813 11.7184 18.1385 11.9216L18.0125 12.3435C17.6832 13.4457 18.3492 14.5984 19.4686 14.8631L19.8172 14.9451C19.8388 15.1268 19.8504 15.312 19.8504 15.4998C19.8504 15.6557 19.8429 15.8099 19.828 15.9617L19.367 16.0798C18.2793 16.3579 17.6332 17.4764 17.9364 18.5574L18.0926 19.114C17.8385 19.3094 17.5628 19.4771 17.2703 19.6121L16.9334 19.2537C16.1445 18.4167 14.814 18.4164 14.0243 19.2527L13.6991 19.5965C13.4013 19.456 13.1213 19.2821 12.8641 19.0789L12.9911 18.656C13.3204 17.554 12.6542 16.4013 11.535 16.1365L11.1854 16.0545C11.1638 15.8728 11.1522 15.6874 11.1522 15.4998C11.1522 15.3438 11.1597 15.1897 11.1746 15.0379L11.6356 14.9197C12.7235 14.6418 13.3695 13.5233 13.0662 12.4422L12.911 11.8855C13.165 11.6903 13.4399 11.5223 13.7323 11.3875L14.0702 11.7459ZM5.05062 4.05153C7.78424 1.31698 12.2164 1.31696 14.95 4.05153C16.617 5.71955 17.2648 8.01931 16.8983 10.1804C16.5818 10.0975 16.2538 10.0426 15.9178 10.0173C16.2337 8.16276 15.6765 6.18823 14.2459 4.75661C11.9016 2.41124 8.10018 2.41147 5.7557 4.75661C3.47154 7.04196 3.41278 10.7109 5.57992 13.0672L5.7557 13.2507L6.32699 13.8172L9.30746 16.7224L9.40023 16.8025C9.63432 16.9792 9.9282 17.0354 10.203 16.9783C10.2938 17.3046 10.4129 17.6189 10.5594 17.9177C9.94742 18.0963 9.26711 17.9777 8.74789 17.5574L8.61508 17.4392L6.57211 15.4539L5.05062 13.9558C2.31703 11.221 2.31719 6.78641 5.05062 4.05153ZM15.5018 14.4998C14.9495 14.4998 14.5018 14.9475 14.5018 15.4998C14.5018 16.0521 14.9495 16.4998 15.5018 16.4998C16.0539 16.4995 16.5018 16.0519 16.5018 15.4998C16.5017 14.9477 16.0539 14.5 15.5018 14.4998ZM10.0008 6.25075C11.5192 6.25119 12.7508 7.48224 12.7508 9.00075C12.7504 10.5189 11.519 11.7503 10.0008 11.7507C8.48228 11.7507 7.25121 10.5192 7.25082 9.00075C7.25082 7.48197 8.48204 6.25075 10.0008 6.25075ZM10.0008 7.25075C9.03432 7.25075 8.25082 8.03425 8.25082 9.00075C8.25121 9.96691 9.03456 10.7507 10.0008 10.7507C10.9667 10.7503 11.7504 9.96664 11.7508 9.00075C11.7508 8.03452 10.9669 7.25119 10.0008 7.25075Z" fill="#212121"/>
</svg>
