<svg width="20" height="20" viewBox="0 0 20 20" fill="none" xmlns="http://www.w3.org/2000/svg">
<path d="M13 9C13 10.6569 11.6569 12 10 12C8.34315 12 7 10.6569 7 9C7 7.34315 8.34315 6 10 6C11.6569 6 13 7.34315 13 9ZM12 9C12 7.89543 11.1046 7 10 7C8.89543 7 8 7.89543 8 9C8 10.1046 8.89543 11 10 11C11.1046 11 12 10.1046 12 9ZM8.74691 17.5567C9.26627 17.9776 9.94729 18.0988 10.5597 17.9202C10.4133 17.6218 10.293 17.3082 10.2021 16.9824C9.92757 17.0389 9.6339 16.9788 9.40012 16.802L9.30713 16.7224L6.3263 13.817L5.75499 13.2499L5.57927 13.0667C3.41208 10.7104 3.47065 7.04153 5.75499 4.75619C8.09944 2.41072 11.9006 2.41072 14.245 4.75619C15.6756 6.18745 16.2333 8.16136 15.9179 10.0156C16.255 10.041 16.5836 10.0967 16.901 10.18C17.2673 8.01899 16.6169 5.71906 14.9497 4.05115C12.2161 1.31628 7.78392 1.31628 5.05025 4.05115C2.31658 6.78601 2.31658 11.2201 5.05025 13.955L6.57128 15.4538L8.61408 17.4389L8.74691 17.5567ZM13.0657 12.4421C13.369 13.5232 12.723 14.6421 11.6351 14.92L11.174 15.0378C11.159 15.1898 11.1514 15.3439 11.1514 15.5C11.1514 15.6876 11.1625 15.8726 11.184 16.0542L11.5336 16.1369C12.653 16.4016 13.319 17.5537 12.9897 18.6558L12.8633 19.0786C13.1205 19.2819 13.4002 19.4561 13.698 19.5965L14.023 19.2524C14.8128 18.4161 16.1436 18.4168 16.9325 19.2539L17.2698 19.6119C17.5623 19.477 17.8376 19.3096 18.0917 19.1143L17.9356 18.5576C17.6323 17.4765 18.2783 16.3576 19.3662 16.0797L19.8268 15.962C19.8417 15.8101 19.8494 15.656 19.8494 15.5C19.8494 15.3122 19.8383 15.1271 19.8167 14.9454L19.4677 14.8628C18.3483 14.5982 17.6823 13.446 18.0116 12.3439L18.1378 11.9216C17.8806 11.7183 17.6008 11.544 17.303 11.4035L16.9783 11.7473C16.1885 12.5836 14.8577 12.5829 14.0688 11.7458L13.7314 11.3878C13.439 11.5227 13.1636 11.69 12.9095 11.8853L13.0657 12.4421ZM15.5004 16.5C14.9481 16.5 14.5004 16.0523 14.5004 15.5C14.5004 14.9477 14.9481 14.5 15.5004 14.5C16.0527 14.5 16.5004 14.9477 16.5004 15.5C16.5004 16.0523 16.0527 16.5 15.5004 16.5Z" fill="#212121"/>
</svg>
