<svg width="28" height="28" viewBox="0 0 28 28" fill="none" xmlns="http://www.w3.org/2000/svg">
<path d="M14 2.25C19.3848 2.25 23.75 6.61522 23.75 12C23.75 12.7416 23.6562 13.4952 23.469 14.2611C22.8415 14.0909 22.1814 14 21.5 14C17.3579 14 14 17.3579 14 21.5C14 22.9721 14.4241 24.3451 15.1568 25.5036L15.1402 25.5179C14.4844 26.0811 13.5156 26.0811 12.8572 25.5156L12.4794 25.1881C7.01712 20.4089 4.25 16.0278 4.25 12C4.25 6.61522 8.61522 2.25 14 2.25ZM14 8.25C11.9289 8.25 10.25 9.92893 10.25 12C10.25 14.0711 11.9289 15.75 14 15.75C16.0711 15.75 17.75 14.0711 17.75 12C17.75 9.92893 16.0711 8.25 14 8.25ZM17.7962 17.6985C18.111 18.7887 17.4566 19.9221 16.355 20.1947L15.3315 20.4479C15.2779 20.7904 15.25 21.142 15.25 21.5003C15.25 21.8751 15.2805 22.2426 15.3391 22.6001L16.3147 22.835C17.4272 23.1029 18.0885 24.2479 17.7646 25.3455L17.4408 26.4429C17.9588 26.9035 18.5501 27.2776 19.194 27.5435L20.0368 26.6573C20.8253 25.8281 22.1476 25.8283 22.9359 26.6578L23.7856 27.5519C24.4282 27.2892 25.0189 26.9189 25.5372 26.4624L25.2023 25.3027C24.8876 24.2124 25.5419 23.079 26.6435 22.8065L27.6685 22.5529C27.7221 22.2103 27.75 21.8587 27.75 21.5003C27.75 21.1258 27.7195 20.7586 27.6611 20.4014L26.6839 20.1661C25.5713 19.8982 24.91 18.7532 25.2339 17.6557L25.5582 16.5567C25.0402 16.0964 24.449 15.7225 23.8053 15.4567L22.9617 16.3438C22.1732 17.1731 20.8509 17.1729 20.0626 16.3433L19.213 15.4492C18.5703 15.7121 17.9797 16.0826 17.4615 16.5393L17.7962 17.6985ZM21.5 23.0003C20.6716 23.0003 20 22.3287 20 21.5003C20 20.6718 20.6716 20.0003 21.5 20.0003C22.3284 20.0003 23 20.6718 23 21.5003C23 22.3287 22.3284 23.0003 21.5 23.0003Z" fill="#212121"/>
</svg>
