<svg width="20" height="20" viewBox="0 0 20 20" fill="none" xmlns="http://www.w3.org/2000/svg">
<path d="M14.5 11C15.8297 11 17.0491 10.5282 18.0001 9.74277V14.5C18.0001 15.8807 16.8808 17 15.5001 17H4.50008C3.11937 17 2 15.8807 2 14.5V7.373L9.74657 11.931C9.90304 12.023 10.0971 12.023 10.2536 11.931L12.4838 10.6187C13.1081 10.8648 13.7883 11 14.5 11ZM4.50008 4H9.20703C9.07217 4.47683 9 4.97999 9 5.5C9 7.4057 9.96922 9.08503 11.4416 10.0719L10.0001 10.9199L2.01526 6.22293C2.15312 4.9726 3.21302 4 4.50008 4ZM14.5 10C16.9853 10 19 7.98528 19 5.5C19 3.01472 16.9853 1 14.5 1C12.0147 1 10 3.01472 10 5.5C10 7.98528 12.0147 10 14.5 10ZM13.3536 3.64642C13.5488 3.84168 13.5488 4.15826 13.3536 4.35352L12.2071 5.49997L13.3536 6.64642C13.5488 6.84168 13.5488 7.15826 13.3536 7.35352C13.1583 7.54879 12.8417 7.54879 12.6464 7.35352L11.1464 5.85352C10.9512 5.65826 10.9512 5.34168 11.1464 5.14642L12.6464 3.64642C12.8417 3.45115 13.1583 3.45115 13.3536 3.64642ZM15.8536 4.35352L15.2071 4.99997H17C17.5523 4.99997 18 5.44769 18 5.99997V6.49997C18 6.77611 17.7761 6.99997 17.5 6.99997C17.2239 6.99997 17 6.77611 17 6.49997V5.99997H15.2071L15.8536 6.64642C16.0488 6.84168 16.0488 7.15826 15.8536 7.35352C15.6583 7.54879 15.3417 7.54879 15.1464 7.35352L13.6464 5.85352C13.4512 5.65826 13.4512 5.34168 13.6464 5.14642L15.1464 3.64642C15.3417 3.45115 15.6583 3.45115 15.8536 3.64642C16.0488 3.84168 16.0488 4.15826 15.8536 4.35352Z" fill="#212121"/>
</svg>
