<svg width="32" height="32" viewBox="0 0 32 32" fill="none" xmlns="http://www.w3.org/2000/svg">
<path d="M8.38769 3.16218C8.83104 2.46363 9.61138 2 10.5 2C11.3886 2 12.169 2.46363 12.6123 3.16218C12.8882 3.05738 13.1874 3 13.5 3C14.8807 3 16 4.11929 16 5.5V10.4071C16.8907 10.1088 17.6904 10.1023 18.3955 10.3779C19.4481 10.7893 19.9647 11.7083 20.2068 12.3177C20.6564 13.4492 19.8597 14.3956 19.1042 14.7185C17.9903 15.1947 15.8213 16.3375 14.1072 18.5299C13.055 19.8755 11.4495 21 9.52786 21H8.26476C6.50845 21 4.88091 20.0785 3.9773 18.5725L2.85504 16.7021C2.29555 15.7696 2 14.7025 2 13.6151V6.5C2 5.11929 3.11929 4 4.5 4C4.81262 4 5.11183 4.05738 5.38769 4.16218C5.83104 3.46363 6.61138 3 7.5 3C7.81262 3 8.11183 3.05738 8.38769 3.16218ZM14 5.5C14 5.22386 13.7761 5 13.5 5C13.2239 5 13 5.22386 13 5.5V10C13 10.5523 12.5523 11 12 11C11.4477 11 11 10.5523 11 10V4.5C11 4.22386 10.7761 4 10.5 4C10.2239 4 10 4.22386 10 4.5V10C10 10.5523 9.55228 11 9 11C8.44772 11 8 10.5523 8 10V5.5C8 5.22386 7.77614 5 7.5 5C7.22386 5 7 5.22386 7 5.5V11C7 11.5523 6.55228 12 6 12C5.44772 12 5 11.5523 5 11V6.5C5 6.22386 4.77614 6 4.5 6C4.22386 6 4 6.22386 4 6.5V13.6151C4 14.3401 4.19703 15.0514 4.57003 15.6731L5.69228 17.5435C6.23445 18.4471 7.21097 19 8.26476 19H9.52786C10.6364 19 11.7173 18.3395 12.5316 17.298C14.5105 14.7669 16.9839 13.4549 18.2784 12.8965C18.1226 12.5716 17.9171 12.3382 17.6675 12.2407C17.4139 12.1415 16.7902 12.0604 15.53 12.848C15.2217 13.0407 14.8332 13.0509 14.5152 12.8746C14.1973 12.6984 14 12.3635 14 12V5.5ZM11.168 22.2881C12.0044 26.68 15.8645 30 20.4999 30C25.7467 30 29.9999 25.7467 29.9999 20.5C29.9999 15.505 26.145 11.4104 21.2478 11.029C21.4038 11.3019 21.5183 11.5562 21.6008 11.7638C21.7909 12.2423 21.862 12.6968 21.8442 13.1201C25.3449 13.7536 27.9999 16.8167 27.9999 20.5C27.9999 24.6421 24.6421 28 20.4999 28C16.6857 28 13.5365 25.1527 13.0618 21.4677C12.4881 21.8217 11.8547 22.1077 11.168 22.2881ZM16.3709 22.5512C16.8002 22.2038 17.4299 22.2702 17.7773 22.6996C18.4206 23.4945 19.4009 24 20.5 24C21.599 24 22.5793 23.4946 23.2226 22.6996C23.57 22.2703 24.1997 22.2039 24.629 22.5513C25.0583 22.8987 25.1247 23.5284 24.7773 23.9577C23.7706 25.2018 22.2282 26 20.5 26C18.7718 26 17.2293 25.2017 16.2226 23.9576C15.8752 23.5283 15.9416 22.8986 16.3709 22.5512ZM17.9999 20.25C18.6903 20.25 19.2499 19.6903 19.2499 19C19.2499 18.3096 18.6903 17.75 17.9999 17.75C17.3096 17.75 16.7499 18.3096 16.7499 19C16.7499 19.6903 17.3096 20.25 17.9999 20.25ZM24.2499 19C24.2499 19.6903 23.6903 20.25 22.9999 20.25C22.3096 20.25 21.7499 19.6903 21.7499 19C21.7499 18.3096 22.3096 17.75 22.9999 17.75C23.6903 17.75 24.2499 18.3096 24.2499 19Z" fill="#212121"/>
</svg>
