<svg width="16" height="16" viewBox="0 0 16 16" fill="none" xmlns="http://www.w3.org/2000/svg">
<path d="M6.35178 6.15041C6.54705 6.34568 6.54705 6.66226 6.35178 6.85752L5.71065 7.49866L7.24999 7.5C7.52613 7.50024 7.74979 7.72429 7.74955 8.00044C7.74931 8.27658 7.52526 8.50024 7.24912 8.5L5.70002 8.49865L6.35178 9.15041C6.54705 9.34568 6.54705 9.66226 6.35178 9.85752C6.15652 10.0528 5.83994 10.0528 5.64468 9.85752L4.14468 8.35752C3.94941 8.16226 3.94941 7.84568 4.14468 7.65041L5.64468 6.15041C5.83994 5.95515 6.15652 5.95515 6.35178 6.15041Z" fill="#212121"/>
<path d="M10.3005 8.5L9.65005 9.15047C9.45479 9.34574 9.45479 9.66232 9.65005 9.85758C9.84531 10.0528 10.1619 10.0528 10.3572 9.85758L11.8572 8.35758C12.0524 8.16232 12.0524 7.84574 11.8572 7.65047L10.3572 6.15047C10.1619 5.95521 9.84531 5.95521 9.65005 6.15047C9.45479 6.34574 9.45479 6.66232 9.65005 6.85758L10.2925 7.5L8.75132 7.5C8.47517 7.5 8.25132 7.72386 8.25132 8C8.25132 8.27614 8.47518 8.5 8.75132 8.5L10.3005 8.5Z" fill="#212121"/>
<path d="M2 4.99756C2 3.89299 2.89543 2.99756 4 2.99756H12C13.1046 2.99756 14 3.89299 14 4.99756V10.9976C14 12.1021 13.1046 12.9976 12 12.9976H4C2.89543 12.9976 2 12.1021 2 10.9976V4.99756ZM4 3.99756C3.44772 3.99756 3 4.44527 3 4.99756V10.9976C3 11.5498 3.44772 11.9976 4 11.9976H12C12.5523 11.9976 13 11.5498 13 10.9976V4.99756C13 4.44527 12.5523 3.99756 12 3.99756H4Z" fill="#212121"/>
</svg>
