<svg width="16" height="16" viewBox="0 0 16 16" fill="none" xmlns="http://www.w3.org/2000/svg">
<path d="M9.65 1.44L12.56 4.35C12.8399 4.63202 12.9979 5.01266 13 5.41V13C12.9984 13.5299 12.7872 14.0377 12.4125 14.4125C12.0377 14.7872 11.5299 14.9984 11 15H8.54C8.75613 14.704 8.89996 14.3615 8.96 14H11C11.2652 14 11.5196 13.8946 11.7071 13.7071C11.8946 13.5196 12 13.2652 12 13V6H9.5C9.10217 6 8.72064 5.84196 8.43934 5.56066C8.15804 5.27936 8 4.89782 8 4.5V2H5C4.73478 2 4.48043 2.10536 4.29289 2.29289C4.10536 2.48043 4 2.73478 4 3V9.09C3.67746 8.97001 3.32254 8.97001 3 9.09V3C3.00158 2.47005 3.2128 1.96227 3.58753 1.58753C3.96227 1.2128 4.47005 1.00158 5 1H8.59C8.98734 1.00208 9.36798 1.16009 9.65 1.44ZM9.14645 4.85355C9.24021 4.94732 9.36739 5 9.5 5H11.79L9 2.21V4.5C9 4.63261 9.05268 4.75979 9.14645 4.85355ZM2.5 15C2.10218 15 1.72064 14.842 1.43934 14.5607C1.15804 14.2794 1 13.8978 1 13.5V13C1 12.8674 1.05268 12.7402 1.14645 12.6464C1.24021 12.5527 1.36739 12.5 1.5 12.5C1.63261 12.5 1.75979 12.5527 1.85355 12.6464C1.94732 12.7402 2 12.8674 2 13V13.5C2 13.6326 2.05268 13.7598 2.14645 13.8536C2.24021 13.9473 2.36739 14 2.5 14C2.63261 14 2.75979 13.9473 2.85355 13.8536C2.94732 13.7598 3 13.6326 3 13.5V10.5C3 10.3674 3.05268 10.2402 3.14645 10.1464C3.24021 10.0527 3.36739 10 3.5 10C3.63261 10 3.75979 10.0527 3.85355 10.1464C3.94732 10.2402 4 10.3674 4 10.5V13.5C4 13.8978 3.84196 14.2794 3.56066 14.5607C3.27936 14.842 2.89782 15 2.5 15ZM6.57302 15H6.42702C6.04864 14.9997 5.68583 14.8493 5.41827 14.5817C5.15072 14.3142 5.00029 13.9514 5.00002 13.573C4.99874 13.4365 5.04988 13.3047 5.14291 13.2048C5.23594 13.1049 5.36377 13.0444 5.50002 13.036C5.56369 13.0321 5.62749 13.0411 5.68755 13.0626C5.74762 13.084 5.8027 13.1175 5.84945 13.1609C5.8962 13.2042 5.93366 13.2567 5.95954 13.315C5.98542 13.3733 5.9992 13.4362 6.00002 13.5C5.99296 13.5613 5.9986 13.6234 6.0166 13.6824C6.0346 13.7414 6.06457 13.7961 6.10464 13.843C6.1447 13.8899 6.19401 13.9281 6.24948 13.9551C6.30494 13.9821 6.36538 13.9974 6.42702 14H6.57302C6.68627 14 6.79488 13.955 6.87496 13.8749C6.95504 13.7949 7.00002 13.6862 7.00002 13.573C7.00053 13.4938 6.97876 13.4161 6.93721 13.3488C6.89565 13.2814 6.83598 13.2271 6.76502 13.192L5.78902 12.7C5.50334 12.5553 5.27463 12.3187 5.13969 12.0283C5.00475 11.7379 4.97142 11.4105 5.04506 11.0988C5.11871 10.7872 5.29504 10.5093 5.5457 10.31C5.79637 10.1107 6.10679 10.0015 6.42702 10H6.57302C6.95141 10.0003 7.31422 10.1507 7.58177 10.4183C7.84933 10.6858 7.99976 11.0486 8.00002 11.427C8.00131 11.5635 7.95016 11.6953 7.85713 11.7952C7.7641 11.8951 7.63628 11.9556 7.50002 11.964C7.43636 11.9679 7.37256 11.9589 7.3125 11.9374C7.25243 11.916 7.19735 11.8825 7.1506 11.8391C7.10384 11.7958 7.06639 11.7433 7.04051 11.685C7.01462 11.6267 7.00085 11.5638 7.00002 11.5V11.427C7.00002 11.3138 6.95504 11.2051 6.87496 11.1251C6.79488 11.045 6.68627 11 6.57302 11H6.42702C6.31378 11 6.20517 11.045 6.12509 11.1251C6.04501 11.2051 6.00002 11.3138 6.00002 11.427C5.99952 11.5062 6.02129 11.5839 6.06284 11.6512C6.1044 11.7186 6.16406 11.7729 6.23502 11.808L7.21102 12.297C7.49834 12.4409 7.7287 12.6775 7.86481 12.9685C8.00092 13.2596 8.03481 13.5881 7.96099 13.9008C7.88718 14.2135 7.70998 14.4922 7.45809 14.6917C7.20619 14.8912 6.89434 14.9998 6.57302 15Z" fill="#212121"/>
</svg>
