<svg width="16" height="16" viewBox="0 0 16 16" fill="none" xmlns="http://www.w3.org/2000/svg">
<path d="M4.76512 2.45521C3.40963 2.86956 2.52302 4.00016 2.71358 5.25583C2.89789 6.47025 3.32481 8.01875 4.26776 9.63893C5.20852 11.2553 6.33466 12.3974 7.29155 13.1659C8.28413 13.9631 9.71011 13.7651 10.7472 12.7986C11.1263 12.4453 11.1651 11.8582 10.8356 11.4583L10.0442 10.4973C9.78505 10.1827 9.36079 10.0569 8.9719 10.1792L7.29891 10.7055C7.13138 10.7582 6.94847 10.7192 6.81706 10.6027L6.77693 10.5661C6.75349 10.5443 6.72052 10.5132 6.67981 10.4733C6.59848 10.3937 6.48575 10.2789 6.35605 10.1343C6.09803 9.84677 5.76599 9.4341 5.48099 8.9407C5.19599 8.44731 5.00445 7.95356 4.88432 7.58645C4.82393 7.40191 4.7808 7.24692 4.75247 7.1367C4.73829 7.08154 4.72778 7.03742 4.72064 7.00625L4.70915 6.95404C4.67394 6.78206 4.73141 6.60338 4.86084 6.48472L6.15336 5.29974C6.4538 5.02429 6.55687 4.59411 6.41384 4.21251L5.97927 3.05311C5.79613 2.56451 5.26431 2.30262 4.76512 2.45521ZM6.82932 6.03631L5.75663 7.01976C5.77746 7.09341 5.80336 7.17974 5.83477 7.27574C5.94098 7.60032 6.10703 8.02548 6.34702 8.44095C6.58701 8.85642 6.87237 9.21273 7.1005 9.46696C7.16796 9.54215 7.22982 9.60774 7.28322 9.66259L8.67167 9.2258C9.44945 8.98112 10.298 9.23287 10.8162 9.86208L11.6077 10.823C12.2729 11.6307 12.1947 12.8163 11.4292 13.5297C10.1393 14.7317 8.15263 15.1396 6.66518 13.945C5.63026 13.1139 4.41625 11.8818 3.40338 10.1415C2.38638 8.39411 1.92456 6.72137 1.72489 5.40573C1.43899 3.52186 2.79003 2.01375 4.47266 1.49941C5.47711 1.19236 6.54721 1.71932 6.91571 2.70246L7.35028 3.86186C7.63634 4.62506 7.43021 5.48541 6.82932 6.03631ZM12.2929 2.99988L9.5 2.99988C9.22386 2.99988 9 2.77602 9 2.49988C9 2.22374 9.22386 1.99988 9.5 1.99988L13.4995 1.99988C13.7756 1.99988 14 2.22374 14 2.49988V6.49988C14 6.77602 13.7761 6.99988 13.5 6.99988C13.2239 6.99988 13 6.77602 13 6.49988V3.70698L10.8536 5.85343C10.6583 6.04869 10.3417 6.04869 10.1464 5.85343C9.95118 5.65817 9.95118 5.34159 10.1464 5.14632L12.2929 2.99988ZM10 6.49988C10 6.77602 9.77614 6.99988 9.5 6.99988C9.22386 6.99988 9 6.77602 9 6.49988C9 6.22374 9.22386 5.99988 9.5 5.99988C9.77614 5.99988 10 6.22374 10 6.49988ZM8.5 7.99988C8.77614 7.99988 9 7.77602 9 7.49988C9 7.22374 8.77614 6.99988 8.5 6.99988C8.22386 6.99988 8 7.22374 8 7.49988C8 7.77602 8.22386 7.99988 8.5 7.99988Z" fill="#212121"/>
</svg>
