<svg width="32" height="32" viewBox="0 0 32 32" fill="none" xmlns="http://www.w3.org/2000/svg">
<path d="M16 6C13.2003 6 11.1661 7.13445 9.85104 8.74176C8.79636 10.0308 8.22868 11.5914 8.05688 13.0472C3.93089 13.4699 2 16.6444 2 19C2 20.1452 2.28392 21.6645 3.37242 22.9085C4.48477 24.1798 6.29252 25 9 25H18.1208L20.2821 21.4396C20.4246 21.205 20.4999 20.9358 20.4999 20.6613V17.4501C19.3586 17.2186 18.4995 16.2096 18.4995 15C18.4995 13.6193 19.6188 12.5 20.9995 12.5H23.8838C23.5561 10.4599 22.563 8.91857 21.2582 7.85104C19.6821 6.5615 17.7001 6 16 6ZM19.9996 15C19.9996 14.4477 20.4473 14 20.9996 14H28.9996C29.5519 14 29.9996 14.4477 29.9996 15C29.9996 15.5523 29.5519 16 28.9996 16H28V20.664C28 21.213 28.1507 21.7515 28.4355 22.2208L28.9086 23H21.0898L21.5645 22.218C21.8494 21.7487 22 21.2103 22 20.6613V16H20.9996C20.4473 16 19.9996 15.5523 19.9996 15ZM20.1792 24.5L19.2935 25.959C18.4844 27.2919 19.4439 28.9969 21.0031 28.9969H28.9952C30.5544 28.9969 31.5139 27.2919 30.7048 25.959L29.8191 24.5H20.1792Z" fill="#212121"/>
</svg>
