<svg width="20" height="20" viewBox="0 0 20 20" fill="none" xmlns="http://www.w3.org/2000/svg">
<path d="M14.6169 8C14.2994 5.78905 12.7166 4 10 4C7.18335 4 5.58687 5.90802 5.35314 8.24599L5.10199 8.25098C3.3731 8.34717 2 9.82009 2 11.623C2 13.4881 3.46942 15 5.28205 15H11.7829L12.3007 14H5.28205C4.02819 14 3 12.9421 3 11.623C3 10.3039 4.02819 9.24599 5.28207 9.24599L5.3531 9.24599C5.86688 9.24601 6.29707 8.85669 6.34818 8.34547C6.55108 6.31588 7.88606 5 10 5C11.9859 5 13.291 6.17522 13.605 8H14.6169ZM16.9956 12.4046C16.9956 12.7246 17.0724 13.04 17.2196 13.3242L17.5695 14H13.4268L13.7739 13.3296C13.9211 13.0454 13.9979 12.73 13.9979 12.41V10H13.5C13.2239 10 13 9.77614 13 9.5C13 9.22386 13.2239 9 13.5 9H17.5C17.7761 9 18 9.22386 18 9.5C18 9.77614 17.7761 10 17.5 10H16.9956V12.4046ZM12.9089 15L12.1114 16.5401C11.7667 17.2057 12.2498 17.9999 12.9994 17.9999H17.9969C18.7465 17.9999 19.2296 17.2057 18.8849 16.5401L18.0874 15H12.9089Z" fill="#212121"/>
</svg>
