<svg width="16" height="16" viewBox="0 0 16 16" fill="none" xmlns="http://www.w3.org/2000/svg">
<path d="M5 6C5 4.34315 6.34315 3 8 3C9.30622 3 10.4175 3.83481 10.8293 5H11.874C11.4299 3.27477 9.86384 2 8 2C5.95767 2 4.27283 3.53062 4.03004 5.50733C2.33769 5.62043 1 7.029 1 8.75C1 10.5449 2.45507 12 4.25 12H8.7829L9.30074 11H4.25C3.00736 11 2 9.99264 2 8.75C2 7.50736 3.00736 6.5 4.25 6.5H4.5C4.77614 6.5 5 6.27614 5 6ZM13.9956 9.40455C13.9956 9.72462 14.0724 10.04 14.2196 10.3242L14.5695 11H10.4268L10.7739 10.3296C10.9211 10.0454 10.9979 9.73002 10.9979 9.40995V7H10.5C10.2239 7 10 6.77614 10 6.5C10 6.22386 10.2239 6 10.5 6H14.5C14.7761 6 15 6.22386 15 6.5C15 6.77614 14.7761 7 14.5 7H13.9956V9.40455ZM9.90891 12L9.11139 13.5401C8.76669 14.2057 9.2498 14.9999 9.99939 14.9999H14.9969C15.7465 14.9999 16.2296 14.2057 15.8849 13.5401L15.0874 12H9.90891Z" fill="#212121"/>
</svg>
