<svg width="48" height="48" viewBox="0 0 48 48" fill="none" xmlns="http://www.w3.org/2000/svg">
<path d="M37.5 43C38.3284 43 39 42.3287 39 41.5003C39 40.3088 39 38.795 39 38.5V37.25C39 34.9028 37.0972 33 34.75 33H13.25C10.9028 33 9 34.9028 9 37.25V38.5C9 38.795 9 40.3088 9 41.5003C9 42.3287 9.67157 43 10.5 43H37.5Z" fill="url(#paint0_linear_378174_9541)"/>
<path d="M37.5 43C38.3284 43 39 42.3287 39 41.5003C39 40.3088 39 38.795 39 38.5V37.25C39 34.9028 37.0972 33 34.75 33H13.25C10.9028 33 9 34.9028 9 37.25V38.5C9 38.795 9 40.3088 9 41.5003C9 42.3287 9.67157 43 10.5 43H37.5Z" fill="url(#paint1_linear_378174_9541)"/>
<path d="M24 29C29.2467 29 33.5 24.7467 33.5 19.5C33.5 14.2533 29.2467 10 24 10C18.7533 10 14.5 14.2533 14.5 19.5C14.5 24.7467 18.7533 29 24 29Z" fill="url(#paint2_linear_378174_9541)"/>
<path d="M10.25 6.5C8.17893 6.5 6.5 8.17893 6.5 10.25V15.75C6.5 16.4404 5.94036 17 5.25 17C4.55964 17 4 16.4404 4 15.75V10.25C4 6.79822 6.79822 4 10.25 4H15.75C16.4404 4 17 4.55964 17 5.25C17 5.94036 16.4404 6.5 15.75 6.5H10.25ZM10.25 41.5C10.0558 41.5 9.86512 41.4852 9.67891 41.4568L9.6393 41.4505C7.8587 41.1589 6.5 39.6131 6.5 37.75V32.25C6.5 31.5596 5.94036 31 5.25 31C4.55964 31 4 31.5596 4 32.25V37.75C4 41.2018 6.79822 44 10.25 44H15.75C16.3547 44 16.8592 43.5706 16.975 43C16.9914 42.9192 17 42.8356 17 42.75C17 42.0596 16.4404 41.5 15.75 41.5H10.25ZM41.5 10.25C41.5 8.17893 39.8211 6.5 37.75 6.5H32.25C31.5596 6.5 31 5.94036 31 5.25C31 4.55964 31.5596 4 32.25 4H37.75C41.2018 4 44 6.79822 44 10.25V15.75C44 16.4404 43.4404 17 42.75 17C42.0596 17 41.5 16.4404 41.5 15.75V10.25ZM37.75 41.5C37.928 41.5 38.1031 41.4876 38.2744 41.4636L38.306 41.4591C40.1134 41.1904 41.5 39.6321 41.5 37.75V32.25C41.5 31.5596 42.0596 31 42.75 31C43.4404 31 44 31.5596 44 32.25V37.75C44 41.2018 41.2018 44 37.75 44H32.25C31.6453 44 31.1408 43.5706 31.025 43C31.0086 42.9192 31 42.8356 31 42.75C31 42.0596 31.5596 41.5 32.25 41.5H37.75Z" fill="url(#paint3_linear_378174_9541)"/>
<defs>
<linearGradient id="paint0_linear_378174_9541" x1="16.1342" y1="34.3958" x2="18.6221" y2="45.7464" gradientUnits="userSpaceOnUse">
<stop offset="0.125321" stop-color="#9C6CFE"/>
<stop offset="1" stop-color="#7A41DC"/>
</linearGradient>
<linearGradient id="paint1_linear_378174_9541" x1="24.0002" y1="31.75" x2="27.4424" y2="50.1263" gradientUnits="userSpaceOnUse">
<stop stop-color="#885EDB" stop-opacity="0"/>
<stop offset="1" stop-color="#E362F8"/>
</linearGradient>
<linearGradient id="paint2_linear_378174_9541" x1="19.0183" y1="12.5258" x2="28.7014" y2="27.9875" gradientUnits="userSpaceOnUse">
<stop offset="0.125321" stop-color="#9C6CFE"/>
<stop offset="1" stop-color="#7A41DC"/>
</linearGradient>
<linearGradient id="paint3_linear_378174_9541" x1="2.42064" y1="0.650793" x2="33.7857" y2="51.3175" gradientUnits="userSpaceOnUse">
<stop offset="0.0152387" stop-color="#3DCBFF"/>
<stop offset="1" stop-color="#0094F0"/>
</linearGradient>
</defs>
</svg>
