<svg width="16" height="16" viewBox="0 0 16 16" fill="none" xmlns="http://www.w3.org/2000/svg">
<path d="M10.5 11C11.4002 11 12.2499 10.7837 13 10.4003V13C13 14.1046 12.1046 15 11 15H3C1.89543 15 1 14.1046 1 13V8.33706L6.76305 11.4402C6.91104 11.5199 7.08916 11.5199 7.23715 11.4402L8.64816 10.6805C9.22681 10.8873 9.85025 11 10.5 11ZM3 5H5.02242C5.00758 5.16468 5 5.33146 5 5.5C5 7.44965 6.01444 9.16236 7.54428 10.1391L7.0001 10.4321L1 7.2013V7C1 5.89543 1.89543 5 3 5ZM10.5 10C12.9853 10 15 7.98528 15 5.5C15 3.01472 12.9853 1 10.5 1C8.01472 1 6 3.01472 6 5.5C6 7.98528 8.01472 10 10.5 10ZM10 3.5C10 3.22386 10.2239 3 10.5 3C10.7761 3 11 3.22386 11 3.5V5.5C11 5.77614 10.7761 6 10.5 6C10.2239 6 10 5.77614 10 5.5V3.5ZM11.125 7.5C11.125 7.84518 10.8452 8.125 10.5 8.125C10.1548 8.125 9.875 7.84518 9.875 7.5C9.875 7.15482 10.1548 6.875 10.5 6.875C10.8452 6.875 11.125 7.15482 11.125 7.5Z" fill="#212121"/>
</svg>
