<svg width="48" height="48" viewBox="0 0 48 48" fill="none" xmlns="http://www.w3.org/2000/svg">
<path d="M6 12.25C6 8.79822 8.79822 6 12.25 6H35.75C39.2018 6 42 8.79822 42 12.25V35.75C42 39.2018 39.2018 42 35.75 42H12.25C8.79822 42 6 39.2018 6 35.75V12.25ZM8.5 35.75C8.5 37.8211 10.1789 39.5 12.25 39.5H35.75C37.8211 39.5 39.5 37.8211 39.5 35.75V18.5H8.5V35.75ZM8.5 12.25V16H39.5V12.25C39.5 10.1789 37.8211 8.5 35.75 8.5H12.25C10.1789 8.5 8.5 10.1789 8.5 12.25ZM16 14.25C17.1046 14.25 18 13.3546 18 12.25C18 11.1454 17.1046 10.25 16 10.25C14.8954 10.25 14 11.1454 14 12.25C14 13.3546 14.8954 14.25 16 14.25ZM24 14.25C25.1046 14.25 26 13.3546 26 12.25C26 11.1454 25.1046 10.25 24 10.25C22.8954 10.25 22 11.1454 22 12.25C22 13.3546 22.8954 14.25 24 14.25ZM34 12.25C34 13.3546 33.1046 14.25 32 14.25C30.8954 14.25 30 13.3546 30 12.25C30 11.1454 30.8954 10.25 32 10.25C33.1046 10.25 34 11.1454 34 12.25ZM13.5 34.5V23.5H34.5V34.5H13.5ZM12.75 21C11.7835 21 11 21.7835 11 22.75V35.25C11 36.2165 11.7835 37 12.75 37H35.25C36.2165 37 37 36.2165 37 35.25V22.75C37 21.7835 36.2165 21 35.25 21H12.75Z" fill="#212121"/>
</svg>
