<svg width="20" height="20" viewBox="0 0 20 20" fill="none" xmlns="http://www.w3.org/2000/svg">
<path d="M4.5 2C3.11929 2 2 3.11929 2 4.5V8H8V2H4.5ZM2 12.5V9H8V15H4.5C3.11929 15 2 13.8807 2 12.5ZM9 15V9H15V12.5C15 13.8807 13.8807 15 12.5 15H9ZM15 4.5V8H9V2H12.5C13.8807 2 15 3.11929 15 4.5ZM7.49881 18C6.28935 18 5.28048 17.1411 5.04883 16H12.4996C14.4326 16 15.9996 14.433 15.9996 12.5V5.05017C17.1403 5.2821 17.9988 6.2908 17.9988 7.50001V13.25C17.9988 15.8734 15.8722 18 13.2488 18H7.49881Z" fill="#212121"/>
</svg>
