<svg width="32" height="32" viewBox="0 0 32 32" fill="none" xmlns="http://www.w3.org/2000/svg">
<path d="M3 7.5C3 5.01472 5.01472 3 7.5 3H24.5C26.9853 3 29 5.01472 29 7.5V9H3V7.5ZM3 11H29V15.9995C28.0878 14.7853 26.6356 14 25 14C22.2386 14 20 16.2386 20 19C20 20.3627 20.5452 21.5981 21.4293 22.5H21.4174C19.2377 22.5 17.5 24.2902 17.5 26.4375C17.5 27.3242 17.7313 28.2074 18.2103 29H7.5C5.01472 29 3 26.9853 3 24.5V11ZM28.5 19C28.5 20.933 26.933 22.5 25 22.5C23.067 22.5 21.5 20.933 21.5 19C21.5 17.067 23.067 15.5 25 15.5C26.933 15.5 28.5 17.067 28.5 19ZM31 26.4375C31 28.461 29.2857 30.5 25 30.5C20.7143 30.5 19 28.4686 19 26.4375C19 25.1024 20.0823 24 21.4174 24H28.5826C29.9177 24 31 25.1024 31 26.4375Z" fill="#212121"/>
</svg>
