<svg width="16" height="16" viewBox="0 0 16 16" fill="none" xmlns="http://www.w3.org/2000/svg">
<path d="M7.40759 14C7.14667 13.513 7 12.9598 7 12.3755C7 11.0829 8.07217 10.0881 9.3283 10.0881H9.346C8.82234 9.54806 8.5 8.81168 8.5 8C8.5 7.23165 8.78885 6.53076 9.26389 6H2V11.5C2 12.8807 3.11929 14 4.5 14H7.40759ZM14 5V4.5C14 3.11929 12.8807 2 11.5 2H4.5C3.11929 2 2 3.11929 2 4.5V5H14ZM11.5 10C12.6046 10 13.5 9.10457 13.5 8C13.5 6.89543 12.6046 6 11.5 6C10.3954 6 9.5 6.89543 9.5 8C9.5 9.10457 10.3954 10 11.5 10ZM9.3283 11.0881C8.5947 11.0881 8 11.6645 8 12.3755C8 13.525 8.80726 14.5271 9.95798 14.8059L10.0406 14.8259C10.9988 15.0581 12.0012 15.0581 12.9594 14.8259L13.042 14.8059C14.1927 14.5271 15 13.525 15 12.3755C15 11.6645 14.4053 11.0881 13.6717 11.0881H9.3283Z" fill="#212121"/>
</svg>
