<svg width="20" height="20" viewBox="0 0 20 20" fill="none" xmlns="http://www.w3.org/2000/svg">
<path d="M3.25 5.875C3.25 4.26216 4.50581 3 6 3C7.49419 3 8.75 4.26216 8.75 5.875C8.75 6.89056 8.25209 7.76707 7.51029 8.277C7.22058 8.47614 7 8.78269 7 9.13424C7 9.61239 7.38761 10 7.86576 10H9.5C9.91421 10 10.25 9.66421 10.25 9.25C10.25 8.83579 9.91421 8.5 9.5 8.5H9.39977C9.93487 7.76558 10.25 6.85447 10.25 5.875C10.25 3.48378 8.3718 1.5 6 1.5C3.6282 1.5 1.75 3.48378 1.75 5.875C1.75 6.85447 2.06513 7.76558 2.60023 8.5H2.5C2.08579 8.5 1.75 8.83579 1.75 9.25C1.75 9.66421 2.08579 10 2.5 10H4.13424C4.61239 10 5 9.61239 5 9.13424C5 8.78269 4.77942 8.47614 4.48971 8.277C3.74791 7.76707 3.25 6.89056 3.25 5.875ZM15 2.75C15 2.33579 14.6642 2 14.25 2C13.8358 2 13.5 2.33579 13.5 2.75V15.3219L12.0529 13.7432C11.773 13.4379 11.2985 13.4172 10.9932 13.6971C10.6879 13.977 10.6672 14.4515 10.9471 14.7568L13.6971 17.7568C13.8392 17.9118 14.0398 18 14.25 18C14.4602 18 14.6608 17.9118 14.8029 17.7568L17.5529 14.7568C17.8328 14.4515 17.8121 13.977 17.5068 13.6971C17.2015 13.4172 16.727 13.4379 16.4471 13.7432L15 15.3219V2.75ZM6.6925 10.9615C6.57605 10.6821 6.30297 10.5 6.0002 10.5C5.69742 10.5 5.42434 10.6821 5.30789 10.9615L2.80789 16.9615C2.64858 17.3439 2.82938 17.783 3.21173 17.9423C3.59409 18.1016 4.03319 17.9208 4.1925 17.5385L4.6252 16.5H7.3752L7.80789 17.5385C7.9672 17.9208 8.40631 18.1016 8.78866 17.9423C9.17101 17.783 9.35182 17.3439 9.1925 16.9615L6.6925 10.9615ZM6.7502 15H5.2502L6.0002 13.2L6.7502 15Z" fill="#212121"/>
</svg>
