<svg width="16" height="16" viewBox="0 0 16 16" fill="none" xmlns="http://www.w3.org/2000/svg">
<path d="M6.12456 6C6.04415 6.62474 6 7.29718 6 8C6 8.70282 6.04415 9.37526 6.12456 10H6.20703C6.71599 8.20053 8.11786 6.77597 9.90374 6.23522C9.89488 6.1561 9.88544 6.07768 9.87544 6H6.12456ZM5 8C5 8.69337 5.0406 9.36521 5.11686 10H2.34141C2.12031 9.37444 2 8.70127 2 8C2 7.29873 2.12031 6.62556 2.34141 6H5.11686C5.0406 6.63479 5 7.30663 5 8ZM5.27206 11H2.80269C3.55119 12.2939 4.76902 13.2824 6.22341 13.7326C6.05249 13.4476 5.89989 13.125 5.76556 12.7757C5.56493 12.254 5.39817 11.6551 5.27206 11ZM9.708 5C9.59779 4.47343 9.46003 3.99654 9.30109 3.5833C9.08782 3.02877 8.84611 2.61433 8.60319 2.34719C8.3604 2.08019 8.15584 2 8 2C7.84416 2 7.6396 2.08019 7.39681 2.34719C7.15389 2.61433 6.91218 3.02877 6.69891 3.5833C6.53997 3.99654 6.40221 4.47343 6.292 5H9.708ZM10.7279 5C10.6018 4.34494 10.4351 3.74596 10.2344 3.22432C10.1001 2.87505 9.94751 2.55238 9.77658 2.26738C11.231 2.7176 12.4488 3.70607 13.1973 5H10.7279ZM5.27206 5H2.80269C3.55119 3.70607 4.76902 2.7176 6.22341 2.26738C6.05249 2.55238 5.89989 2.87505 5.76556 3.22432C5.56493 3.74596 5.39817 4.34494 5.27206 5ZM7 11.5C7 13.9853 9.01472 16 11.5 16C13.9853 16 16 13.9853 16 11.5C16 9.01472 13.9853 7 11.5 7C9.01472 7 7 9.01472 7 11.5ZM13.5 8.5C13.7761 8.5 14 8.72386 14 9V10.5C14 10.7761 13.7761 11 13.5 11H12C11.7239 11 11.5 10.7761 11.5 10.5C11.5 10.2239 11.7239 10 12 10H12.4682C12.4179 9.97215 12.3663 9.94644 12.3135 9.92296C12.0682 9.81372 11.8034 9.755 11.535 9.75031C11.2665 9.74561 10.9998 9.79503 10.7508 9.89562C10.5018 9.99621 10.2756 10.1459 10.0857 10.3358C9.89048 10.531 9.5739 10.531 9.37864 10.3358C9.18338 10.1405 9.18338 9.82394 9.37864 9.62868C9.66346 9.34386 10.0027 9.11931 10.3762 8.96842C10.7497 8.81754 11.1497 8.74341 11.5524 8.75046C11.9552 8.75751 12.3524 8.84558 12.7203 9.00944C12.8162 9.05211 12.9095 9.0997 13 9.15195V9C13 8.72386 13.2239 8.5 13.5 8.5ZM12.6238 14.0316C12.2503 14.1825 11.8503 14.2566 11.4476 14.2495C11.0448 14.2425 10.6476 14.1544 10.2797 13.9906C10.1838 13.9479 10.0905 13.9003 10 13.8481V14C10 14.2761 9.77614 14.5 9.5 14.5C9.22386 14.5 9 14.2761 9 14V12.5C9 12.2239 9.22386 12 9.5 12H11C11.2761 12 11.5 12.2239 11.5 12.5C11.5 12.7761 11.2761 13 11 13H10.5318C10.5821 13.0278 10.6337 13.0536 10.6865 13.077C10.9318 13.1863 11.1966 13.245 11.465 13.2497C11.7335 13.2544 12.0002 13.205 12.2492 13.1044C12.4982 13.0038 12.7244 12.8541 12.9143 12.6642C13.1095 12.469 13.4261 12.469 13.6214 12.6642C13.8166 12.8595 13.8166 13.1761 13.6214 13.3713C13.3365 13.6561 12.9973 13.8807 12.6238 14.0316Z" fill="#212121"/>
</svg>
