<svg width="24" height="24" viewBox="0 0 24 24" fill="none" xmlns="http://www.w3.org/2000/svg">
<path d="M20 3.00001C20.5523 3.00001 21 3.44773 21 4.00001L21 8.99997C21 9.55226 20.5523 9.99998 20 9.99998C19.4477 9.99998 19 9.55226 19 8.99998L19 6.41421L13.2071 12.2071C13.0196 12.3946 12.7652 12.5 12.5 12.5C12.2348 12.5 11.9804 12.3946 11.7929 12.2071L10 10.4142L4.70711 15.7071C4.31659 16.0976 3.68342 16.0976 3.29289 15.7071C2.90237 15.3166 2.90237 14.6834 3.29289 14.2929L9.29289 8.29287C9.48043 8.10533 9.73478 7.99998 10 7.99998C10.2652 7.99998 10.5196 8.10534 10.7071 8.29287L12.5 10.0858L17.5858 5.00001L15 5C14.4477 5 14 4.55228 14 4C14 3.44771 14.4477 3 15 3L20 3.00001ZM23 17.5C23 20.5376 20.5376 23 17.5 23C14.4624 23 12 20.5376 12 17.5C12 14.4624 14.4624 12 17.5 12C20.5376 12 23 14.4624 23 17.5ZM20.8536 15.1464C20.6583 14.9512 20.3417 14.9512 20.1464 15.1464L16.5 18.7929L14.8536 17.1464C14.6583 16.9512 14.3417 16.9512 14.1464 17.1464C13.9512 17.3417 13.9512 17.6583 14.1464 17.8536L16.1464 19.8536C16.3417 20.0488 16.6583 20.0488 16.8536 19.8536L20.8536 15.8536C21.0488 15.6583 21.0488 15.3417 20.8536 15.1464Z" fill="#212121"/>
</svg>
