<svg width="28" height="28" viewBox="0 0 28 28" fill="none" xmlns="http://www.w3.org/2000/svg">
<path d="M13 2C10.5147 2 8.5 4.01472 8.5 6.5V14.5C8.5 16.9853 10.5147 19 13 19C13.0504 19 13.1006 18.9992 13.1505 18.9975C13.6418 16.5817 15.2943 14.5878 17.5 13.6241V6.5C17.5 4.01472 15.4853 2 13 2ZM13 20.9999L13.0164 20.9999C13.0815 21.9889 13.3383 22.9256 13.75 23.7731V25.2499C13.75 25.6641 13.4142 25.9999 13 25.9999C12.5858 25.9999 12.25 25.6641 12.25 25.2499V22.4652C8.1834 22.0871 5 18.6653 5 14.4999V13.7509C5 13.3367 5.33579 13.0005 5.75 13.0005C6.16421 13.0005 6.5 13.3363 6.5 13.7505V14.4995C6.5 18.0893 9.41015 20.9999 13 20.9999ZM27 20.5C27 16.9101 24.0899 14 20.5 14C16.9101 14 14 16.9101 14 20.5C14 24.0899 16.9101 27 20.5 27C24.0899 27 27 24.0899 27 20.5ZM19.0086 17.5001C19.2262 17.5038 19.4164 17.6479 19.4789 17.8563L20.5527 21.4355L21.5318 18.8244C21.6018 18.6379 21.7757 18.5107 21.9746 18.5006C22.1735 18.4905 22.3595 18.5995 22.448 18.7779L23.3102 20.5169H24.5C24.7761 20.5169 25 20.7407 25 21.0169C25 21.293 24.7761 21.5169 24.5 21.5169H23C22.81 21.5169 22.6364 21.4092 22.552 21.239L22.0637 20.2541L20.9682 23.1756C20.8928 23.3765 20.6976 23.5069 20.4832 23.4997C20.2687 23.4925 20.0828 23.3492 20.0211 23.1437L18.9717 19.6458L18.4545 21.1769C18.3859 21.3801 18.1953 21.5169 17.9808 21.5169H16.5C16.2239 21.5169 16 21.293 16 21.0169C16 20.7407 16.2239 20.5169 16.5 20.5169H17.622L18.5263 17.84C18.596 17.6338 18.791 17.4963 19.0086 17.5001Z" fill="#212121"/>
</svg>
