<?xml version="1.0" encoding="UTF-8"?>
<svg width="48px" height="48px" viewBox="0 0 48 48" version="1.1" xmlns="http://www.w3.org/2000/svg" xmlns:xlink="http://www.w3.org/1999/xlink">
    <!-- Generator: Sketch 59.1 (86144) - https://sketch.com -->
    <title>ic_print_48_regular</title>
    <desc>Created with Sketch.</desc>
    <g id="ðŸ”-Product-Icons" stroke="none" stroke-width="1" fill="none" fill-rule="evenodd">
        <g id="ic_print_48_regular" fill="#212121">
            <path d="M31.75,8 C33.5449254,8 35,9.45507456 35,11.25 L35,11.25 L35,13.999 L36.75,14 C39.6494949,14 42,16.3505051 42,19.25 L42,32.75 C42,34.5449254 40.5449254,36 38.75,36 L35,35.999 L35,37.75 C35,39.5449254 33.5449254,41 31.75,41 L16.25,41 C14.4550746,41 13,39.5449254 13,37.75 L13,35.999 L9.25,36 C7.45507456,36 6,34.5449254 6,32.75 L6,19.25 C6,16.3505051 8.35050506,14 11.25,14 L13,13.999 L13,11.25 C13,9.51696854 14.3564548,8.10075407 16.0655761,8.00514479 L16.25,8 Z M31.75,28.5 L16.25,28.5 C15.8357864,28.5 15.5,28.8357864 15.5,29.25 L15.5,37.75 C15.5,38.1642136 15.8357864,38.5 16.25,38.5 L31.75,38.5 C32.1642136,38.5 32.5,38.1642136 32.5,37.75 L32.5,29.25 C32.5,28.8357864 32.1642136,28.5 31.75,28.5 Z M36.75,16.5 L11.25,16.5 C9.73121694,16.5 8.5,17.7312169 8.5,19.25 L8.5,32.75 C8.5,33.1642136 8.83578644,33.5 9.25,33.5 L13,33.499 L13,29.25 C13,27.4550746 14.4550746,26 16.25,26 L31.75,26 C33.5449254,26 35,27.4550746 35,29.25 L35,33.499 L38.75,33.5 C39.1642136,33.5 39.5,33.1642136 39.5,32.75 L39.5,19.25 C39.5,17.7312169 38.2687831,16.5 36.75,16.5 Z M31.75,10.5 L16.25,10.5 C15.8357864,10.5 15.5,10.8357864 15.5,11.25 L15.5,11.25 L15.5,13.999 L32.5,13.999 L32.5,11.25 C32.5,10.8703042 32.2178461,10.556509 31.8517706,10.5068466 L31.75,10.5 Z" id="ðŸŽ¨-Color"></path>
        </g>
    </g>
</svg>