<svg width="24" height="24" viewBox="0 0 24 24" fill="none" xmlns="http://www.w3.org/2000/svg">
<path d="M8.24965 4C8.66386 4 8.99965 4.33579 8.99965 4.75V7.52317L10.8739 10.3383C10.9559 10.4614 10.9996 10.6061 10.9996 10.754V15.25C10.9996 15.6642 10.6639 16 10.2496 16H8.99595L8.99689 19.2536C8.99689 19.6678 8.66111 20.0036 8.24689 20.0036C7.8672 20.0036 7.5534 19.7214 7.50374 19.3553L7.49689 19.2536L7.49595 16L5.50095 15.999L5.50165 19.2566C5.50165 19.6708 5.16586 20.0066 4.75165 20.0066C4.37195 20.0066 4.05816 19.7244 4.00849 19.3584L4.00165 19.2566L4.00095 15.999L2.75195 16C2.33774 16 2.00195 15.6642 2.00195 15.25V10.754C2.00195 10.6061 2.04569 10.4614 2.12766 10.3383L4.00195 7.52317V4.75C4.00195 4.33579 4.33774 4 4.75195 4H8.24965ZM15.2542 4.00139H19.7496C20.1293 4.00139 20.4431 4.28355 20.4928 4.64962L20.4996 4.75139L20.499 8H21.2496C21.6639 8 21.9996 8.33579 21.9996 8.75V13.246C21.9996 13.3939 21.9559 13.5386 21.8739 13.6617L19.9996 16.4768V19.25C19.9996 19.6642 19.6639 20 19.2496 20H15.752C15.3377 20 15.002 19.6642 15.002 19.25V16.4768L13.1277 13.6617C13.0457 13.5386 13.002 13.3939 13.002 13.246V8.75C13.002 8.33579 13.3377 8 13.752 8H14.504L14.5042 4.75139C14.5042 4.3717 14.7864 4.0579 15.1525 4.00824L15.2542 4.00139H19.7496H15.2542ZM18.9996 5.50139H16.0042L16.004 8H18.999L18.9996 5.50139Z" fill="#212121"/>
</svg>
