<svg width="24" height="24" viewBox="0 0 24 24" fill="none" xmlns="http://www.w3.org/2000/svg">
<path d="M20.2973 9.5H21.25C21.5184 9.5 21.7727 9.43958 22 9.33159V16.75C22 18.483 20.6435 19.8992 18.9344 19.9949L18.75 20H5.25C3.51697 20 2.10075 18.6435 2.00514 16.9344L2 16.75V8.608L11.652 13.6644C11.87 13.7785 12.13 13.7785 12.348 13.6644L20.2973 9.5ZM12.5253 4H5.25L5.06409 4.00523C3.46432 4.09545 2.17386 5.34271 2.01619 6.92355L12 12.1533L17.0653 9.5H13.75C12.7835 9.5 12 8.7165 12 7.75C12 7.2603 12.2011 6.81759 12.5253 6.49996C12.2011 6.18249 12 5.74 12 5.25C12 4.76033 12.2011 4.31763 12.5253 4ZM21.25 2C21.6401 2 21.9607 2.29785 21.9966 2.67855C21.9989 2.70207 22 2.7259 22 2.75C22 2.80731 21.9936 2.86311 21.9814 2.91674C21.9056 3.2507 21.6069 3.5 21.25 3.5H13.75C13.6501 3.5 13.5548 3.48047 13.4677 3.44503C13.1934 3.3335 13 3.06433 13 2.75C13 2.42345 13.2087 2.14564 13.5 2.04268C13.5782 2.01504 13.6623 2 13.75 2H21.25ZM21.25 4.5C21.3201 4.5 21.3879 4.50961 21.4522 4.52757C21.7682 4.61583 22 4.90584 22 5.25C22 5.66421 21.6642 6 21.25 6H13.75C13.7131 6 13.6769 5.99734 13.6414 5.99219C13.2787 5.93958 13 5.62733 13 5.25C13 4.83579 13.3358 4.5 13.75 4.5H21.25ZM13 7.75C13 7.33579 13.3358 7 13.75 7H21.25C21.6642 7 22 7.33579 22 7.75C22 8.16421 21.6642 8.5 21.25 8.5H13.75C13.3358 8.5 13 8.16421 13 7.75Z" fill="#212121"/>
</svg>
