<?xml version="1.0" encoding="UTF-8"?>
<svg width="24px" height="24px" viewBox="0 0 24 24" version="1.1" xmlns="http://www.w3.org/2000/svg" xmlns:xlink="http://www.w3.org/1999/xlink">
    <!-- Generator: Sketch 59.1 (86144) - https://sketch.com -->
    <title>ic_fluent_wi_fi_3_24_regular</title>
    <desc>Created with Sketch.</desc>
    <g id="ðŸ”-Product-Icons" stroke="none" stroke-width="1" fill="none" fill-rule="evenodd">
        <g id="ic_fluent_wi_fi_3_24_regular" fill="#212121" fill-rule="nonzero">
            <path d="M10.9392089,16.4392503 C11.5250676,15.8533916 12.4749324,15.8533916 13.0607911,16.4392503 C13.6466499,17.0251091 13.6466499,17.9749738 13.0607911,18.5608326 C12.4749324,19.1466913 11.5250676,19.1466913 10.9392089,18.5608326 C10.3533501,17.9749738 10.3533501,17.0251091 10.9392089,16.4392503 Z M8.44215389,13.8195827 C10.4306797,11.8310569 13.6547172,11.8310569 15.643243,13.8195827 C16.0908493,14.267189 16.4590627,14.8168835 16.7153476,15.4017386 C16.8815958,15.7811255 16.7088127,16.2234502 16.3294259,16.3896984 C15.950039,16.5559466 15.5077143,16.3831635 15.3414661,16.0037766 C15.1583861,15.5859786 14.8947614,15.1924214 14.5825829,14.8802429 C13.1798434,13.4775035 10.9055535,13.4775035 9.50281406,14.8802429 C9.19229665,15.1907603 8.94019393,15.5689393 8.75561265,15.9907819 C8.58956907,16.3702584 8.14733768,16.5432799 7.76786119,16.3772364 C7.38838471,16.2111928 7.21536315,15.7689614 7.38140673,15.3894849 C7.6388573,14.8011066 7.99524145,14.2664952 8.44215389,13.8195827 Z" id="ðŸŽ¨-Color"></path>
        </g>
    </g>
</svg>