<svg width="32" height="32" viewBox="0 0 32 32" fill="none" xmlns="http://www.w3.org/2000/svg">
<path d="M6 3C6 2.44772 6.44772 2 7 2H25C25.5523 2 26 2.44772 26 3V18.75C26 20.5449 24.5449 22 22.75 22H20V26C20 28.2091 18.2091 30 16 30C13.7909 30 12 28.2091 12 26V22H9.25C7.45507 22 6 20.5449 6 18.75V3ZM8 4V14H24V4H22V9C22 9.55229 21.5523 10 21 10C20.4477 10 20 9.55229 20 9V4H18V7C18 7.55228 17.5523 8 17 8C16.4477 8 16 7.55228 16 7V4H8ZM24 18.75V16H8V18.75C8 19.4404 8.55964 20 9.25 20H13C13.5523 20 14 20.4477 14 21V26C14 27.1046 14.8954 28 16 28C17.1046 28 18 27.1046 18 26V21C18 20.4477 18.4477 20 19 20H22.75C23.4404 20 24 19.4404 24 18.75Z" fill="#212121"/>
</svg>
