<svg width="20" height="20" viewBox="0 0 20 20" fill="none" xmlns="http://www.w3.org/2000/svg">
<path d="M10 4.5V2.5H11V4.5C11 4.77614 10.7761 5 10.5 5C10.2239 5 10 4.77614 10 4.5ZM12 5.5V2.5H13V5.5C13 5.77614 12.7761 6 12.5 6C12.2239 6 12 5.77614 12 5.5Z" fill="#D6D6D6"/>
<path d="M5 2.5C5 2.22386 5.22386 2 5.5 2H14.5C14.7761 2 15 2.22386 15 2.5V9.5H14V3H6V9.5H5V2.5Z" fill="#707070"/>
<path d="M5 9H15V11C15 12.1046 14.1046 13 13 13H12V16C12 17.1046 11.1046 18 10 18C8.89543 18 8 17.1046 8 16V13H7C5.89543 13 5 12.1046 5 11V9ZM6 10V11C6 11.5523 6.44772 12 7 12H8.5C8.77614 12 9 12.2239 9 12.5V16C9 16.5523 9.44772 17 10 17C10.5523 17 11 16.5523 11 16V12.5C11 12.2239 11.2239 12 11.5 12H13C13.5523 12 14 11.5523 14 11V10H6Z" fill="#242424"/>
</svg>
