<svg width="16" height="16" viewBox="0 0 16 16" fill="none" xmlns="http://www.w3.org/2000/svg">
<path d="M8 1.00195V3.50202C8 3.77816 8.22386 4.00202 8.5 4.00202C8.77614 4.00202 9 3.77816 9 3.50202V1.00195H10V4.49593C10 4.77208 10.2239 4.99593 10.5 4.99593C10.7761 4.99593 11 4.77208 11 4.49593V1.00195H12.5V6.99994H3.5V1.00195H8Z" fill="#212121"/>
<path d="M3.5 7.99994V8.49994C3.5 9.60451 4.39543 10.4999 5.5 10.4999H6.5V13.499C6.5 14.3274 7.17157 14.999 8 14.999C8.82843 14.999 9.5 14.3274 9.5 13.499V10.4999H10.5C11.6046 10.4999 12.5 9.60451 12.5 8.49994V7.99994H3.5Z" fill="#212121"/>
</svg>
