<svg width="20" height="20" viewBox="0 0 20 20" fill="none" xmlns="http://www.w3.org/2000/svg">
<path d="M10 4.49902V1.99902H5.5C5.22386 1.99902 5 2.22288 5 2.49902V8.99988H15V2.49902C15 2.22288 14.7761 1.99902 14.5 1.99902H13V5.50125C13 5.77739 12.7761 6.00125 12.5 6.00125C12.2239 6.00125 12 5.77739 12 5.50125V1.99902H11V4.49902C11 4.77517 10.7761 4.99902 10.5 4.99902C10.2239 4.99902 10 4.77517 10 4.49902Z" fill="#212121"/>
<path d="M15 9.99988H5V11.0034C5 12.108 5.89543 13.0034 7 13.0034H8.5V16.5007C8.5 17.3292 9.17157 18.0007 10 18.0007C10.8284 18.0007 11.5 17.3292 11.5 16.5007V13.0034H13C14.1046 13.0034 15 12.108 15 11.0034V9.99988Z" fill="#212121"/>
</svg>
