<svg width="24" height="24" viewBox="0 0 24 24" fill="none" xmlns="http://www.w3.org/2000/svg">
<path d="M2 7.25C2 5.45507 3.45507 4 5.25 4H18.75C20.5449 4 22 5.45507 22 7.25V14.5C22 13.3106 21.4067 12.2598 20.5 11.6273V7.25C20.5 6.2835 19.7165 5.5 18.75 5.5H5.25C4.2835 5.5 3.5 6.2835 3.5 7.25V16.75C3.5 17.7165 4.2835 18.5 5.25 18.5H13.3084C13.1113 18.8809 13 19.3134 13 19.772V19.875C13 19.9167 13.0007 19.9583 13.002 20H5.25C3.45507 20 2 18.5449 2 16.75V7.25ZM18.5 17C19.8807 17 21 15.8807 21 14.5C21 13.1193 19.8807 12 18.5 12C17.1193 12 16 13.1193 16 14.5C16 15.8807 17.1193 17 18.5 17ZM18.5 23C21.7143 23 23 21.4315 23 19.875V19.772C23 18.793 22.2063 18 21.2273 18H15.7727C14.7937 18 14 18.7929 14 19.772V19.875C14 21.4374 15.2857 23 18.5 23ZM7.75 8C7.33579 8 7 8.33579 7 8.75V15.25C7 15.6642 7.33579 16 7.75 16C8.16421 16 8.5 15.6642 8.5 15.25V13.5H9.75C11.2688 13.5 12.5 12.2688 12.5 10.75C12.5 9.23122 11.2688 8 9.75 8H7.75ZM9.75 12H8.5V9.5H9.75C10.4404 9.5 11 10.0596 11 10.75C11 11.4404 10.4404 12 9.75 12Z" fill="#212121"/>
</svg>
