<svg width="16" height="16" viewBox="0 0 16 16" fill="none" xmlns="http://www.w3.org/2000/svg">
<path d="M1 5.5C1 4.11929 2.11929 3 3.5 3H12.5C13.8807 3 15 4.11929 15 5.5V7.75C15 7.88807 14.8881 8 14.75 8C14.6119 8 14.5011 7.88786 14.4898 7.75025C14.447 7.23201 14.2726 6.7511 14 6.3411V5.5C14 4.67157 13.3284 4 12.5 4H3.5C2.67157 4 2 4.67157 2 5.5V10.5C2 11.3284 2.67157 12 3.5 12H7.05001C7.01722 12.1616 7 12.3288 7 12.5C7 12.6669 7.01256 12.8341 7.0381 13H3.5C2.11929 13 1 11.8807 1 10.5V5.5ZM11.5 10C12.6046 10 13.5 9.10457 13.5 8C13.5 6.89543 12.6046 6 11.5 6C10.3954 6 9.5 6.89543 9.5 8C9.5 9.10457 10.3954 10 11.5 10ZM11.5 15C14 15 15 13.7452 15 12.5C15 11.6716 14.3284 11 13.5 11H9.5C8.67157 11 8 11.6716 8 12.5C8 13.7499 9 15 11.5 15ZM3.5 5C3.22386 5 3 5.22386 3 5.5V10.5C3 10.7761 3.22386 11 3.5 11C3.77614 11 4 10.7761 4 10.5V9H5C6.10457 9 7 8.10457 7 7C7 5.89543 6.10457 5 5 5H3.5ZM5 8H4V6H5C5.55228 6 6 6.44772 6 7C6 7.55228 5.55228 8 5 8Z" fill="#212121"/>
</svg>
