<svg width="48" height="48" viewBox="0 0 48 48" fill="none" xmlns="http://www.w3.org/2000/svg">
<path d="M14.25 4C10.7982 4 8 6.79822 8 10.25V37.75C8 41.2018 10.7982 44 14.25 44H38.75C39.4404 44 40 43.4404 40 42.75C40 42.0596 39.4404 41.5 38.75 41.5H14.25C12.4358 41.5 10.9225 40.2117 10.575 38.5H37.75C38.9926 38.5 40 37.4926 40 36.25V10.25C40 6.79822 37.2018 4 33.75 4H14.25ZM37.5 36H10.5V10.25C10.5 8.17893 12.1789 6.5 14.25 6.5H33.75C35.8211 6.5 37.5 8.17893 37.5 10.25V36ZM16.25 10C15.0074 10 14 11.0074 14 12.25V16.75C14 17.9926 15.0074 19 16.25 19H31.75C32.9926 19 34 17.9926 34 16.75V12.25C34 11.0074 32.9926 10 31.75 10H16.25ZM16.5 16.5V12.5H31.5V16.5H16.5Z" fill="#212121"/>
</svg>
