<?xml version="1.0" encoding="UTF-8"?>
<svg width="24px" height="24px" viewBox="0 0 24 24" version="1.1" xmlns="http://www.w3.org/2000/svg" xmlns:xlink="http://www.w3.org/1999/xlink">
    <!-- Generator: Sketch 59.1 (86144) - https://sketch.com -->
    <title>ic_fluent_download_24_light</title>
    <desc>Created with Sketch.</desc>
    <g id="ðŸ”-Product-Icons" stroke="none" stroke-width="1" fill="none" fill-rule="evenodd">
        <g id="ic_fluent_download_24_light" fill="#212121" fill-rule="nonzero">
            <path d="M18.5,21 C18.7761424,21 19,21.2238576 19,21.5 C19,21.7454599 18.8231248,21.9496084 18.5898756,21.9919443 L18.5,22 L5,22 C4.72385763,22 4.5,21.7761424 4.5,21.5 C4.5,21.2545401 4.67687516,21.0503916 4.91012437,21.0080557 L5,21 L18.5,21 Z M11.5,2 C11.7454599,2 11.9496084,2.17687516 11.9919443,2.41012437 L12,2.5 L12,17.293 L16.6464466,12.6464466 C16.820013,12.4728803 17.0894374,12.4535951 17.2843055,12.5885912 L17.3535534,12.6464466 C17.5271197,12.820013 17.5464049,13.0894374 17.4114088,13.2843055 L17.3535534,13.3535534 L11.8535534,18.8535534 L11.8116622,18.891039 L11.8116622,18.891039 L11.7497651,18.9332526 L11.7497651,18.9332526 L11.6905951,18.9623894 L11.6905951,18.9623894 L11.6281391,18.9833892 L11.6281391,18.9833892 L11.5720792,18.994843 L11.5720792,18.994843 L11.5,19 L11.5,19 L11.4465724,18.997179 L11.4465724,18.997179 L11.3718542,18.9833917 L11.3718542,18.9833917 L11.3089634,18.9622078 L11.3089634,18.9622078 L11.2156945,18.9114088 L11.2156945,18.9114088 L11.1587136,18.8654113 L11.1587136,18.8654113 L5.64644661,13.3535534 C5.45118446,13.1582912 5.45118446,12.8417088 5.64644661,12.6464466 C5.82001296,12.4728803 6.08943736,12.4535951 6.2843055,12.5885912 L6.35355339,12.6464466 L11,17.293 L11,2.5 C11,2.22385763 11.2238576,2 11.5,2 Z" id="ðŸŽ¨-Color"></path>
        </g>
    </g>
</svg>