<svg width="16" height="16" viewBox="0 0 16 16" fill="none" xmlns="http://www.w3.org/2000/svg">
<path d="M6 1H8.99951V4.50142C8.99951 5.32997 9.67108 6.00163 10.4995 6.00163H14V12.9978C14 14.1025 13.1046 14.998 12 14.998H8.66586C10.0778 14.0023 11 12.3586 11 10.4994C11 7.46138 8.53757 4.9986 5.5 4.9986C4.97999 4.9986 4.47683 5.07078 4 5.20567V3.00028C4 1.89555 4.89543 1 6 1ZM10.4995 5.0015H13.9967L10.0084 1H9.99951V4.50142C9.99951 4.77761 10.2234 5.0015 10.4995 5.0015ZM10 10.4994C10 12.985 7.98528 15 5.5 15C3.01472 15 1 12.985 1 10.4994C1 8.01374 3.01472 5.99874 5.5 5.99874C7.98528 5.99874 10 8.01374 10 10.4994ZM5.49993 12.38C5.15502 12.38 4.87542 12.6596 4.87542 13.0046C4.87542 13.3495 5.15502 13.6292 5.49993 13.6292C5.84484 13.6292 6.12444 13.3495 6.12444 13.0046C6.12444 12.6596 5.84484 12.38 5.49993 12.38ZM5.49997 7.5024C4.45202 7.5024 3.63568 8.31991 3.64659 9.45696C3.64924 9.73313 3.87524 9.95486 4.15137 9.95221C4.4275 9.94956 4.6492 9.72353 4.64655 9.44736C4.64099 8.86827 5.0062 8.50254 5.49997 8.50254C5.97235 8.50254 6.35337 8.89448 6.35337 9.45216C6.35337 9.65399 6.28218 9.76717 5.99369 9.9961L5.7157 10.2112C5.20993 10.6155 4.99995 10.9288 4.99993 11.4998C4.99992 11.776 5.22376 11.9999 5.49991 11.9999C5.74537 11.9999 5.94952 11.823 5.99187 11.5897L6.0034 11.4336C6.02024 11.2858 6.10295 11.1799 6.34869 10.9852L6.62574 10.7709C7.13905 10.36 7.35337 10.038 7.35337 9.45216C7.35337 8.34831 6.53102 7.5024 5.49997 7.5024Z" fill="#212121"/>
</svg>
