<svg width="16" height="16" viewBox="0 0 16 16" fill="none" xmlns="http://www.w3.org/2000/svg">
<path d="M14.0088 2H11.0001V3.97568H13.5088C13.7849 3.97568 14.0088 3.75182 14.0088 3.47568V2ZM10.0001 3.97568V2H2.00879V3.47568C2.00879 3.75182 2.23265 3.97568 2.50879 3.97568H10.0001ZM7.51988 13.104C7.47835 12.7359 7.52691 12.3483 7.58078 12H8.41934C8.47321 12.3483 8.52177 12.7359 8.48024 13.104C8.44991 13.3729 8.38316 13.6283 8.28099 13.8014C8.1905 13.9547 8.10581 13.9987 8.00006 14C7.89431 13.9987 7.80962 13.9547 7.71914 13.8014C7.61696 13.6283 7.55021 13.3729 7.51988 13.104ZM9.90064 4.97568H11.0209L8.6229 9.72534C8.53786 9.89378 8.36524 10 8.17656 10V10C7.80402 10 7.56232 9.60722 7.73022 9.27466L9.90064 4.97568Z" fill="#212121"/>
</svg>
