<svg width="16" height="16" viewBox="0 0 16 16" fill="none" xmlns="http://www.w3.org/2000/svg">
<path d="M2.95703 12.7031C2.84483 12.9554 2.54917 13.0692 2.29688 12.957C2.04482 12.8448 1.93098 12.5491 2.04297 12.2969L3.06348 10H4.1582L2.95703 12.7031ZM13.957 12.2969C14.0692 12.5492 13.9555 12.8449 13.7031 12.957C13.4509 13.0689 13.1551 12.9554 13.043 12.7031L11.8418 10H12.9365L13.957 12.2969ZM5.04688 8H10.9531L9.61914 5H10.7139L12.0479 8H14.5C14.7761 8 15 8.22386 15 8.5C15 8.77614 14.7761 9 14.5 9H1.5C1.22386 9 1 8.77614 1 8.5C1 8.22386 1.22386 8 1.5 8H3.95215L5.28613 5H6.38086L5.04688 8ZM12.5 3C12.7761 3 13 3.22386 13 3.5C13 3.77614 12.7761 4 12.5 4H3.5C3.22386 4 3 3.77614 3 3.5C3 3.22386 3.22386 3 3.5 3H12.5Z" fill="#212121"/>
</svg>
