<svg width="24" height="24" viewBox="0 0 24 24" fill="none" xmlns="http://www.w3.org/2000/svg">
<path d="M3 3.74805C3 3.33383 3.33579 2.99805 3.75 2.99805H20.2541C20.8722 2.99805 21.225 3.70369 20.8541 4.19811L16.6898 9.74927L17.629 11.0013C17.5861 11.0004 17.5431 11 17.5 11C14.2501 11 11.5573 13.385 11.0764 16.5002L4.5 16.5V21.2499C4.5 21.6296 4.21785 21.9434 3.85177 21.993L3.75 21.9999C3.3703 21.9999 3.05651 21.7177 3.00685 21.3517L3 21.2499V3.74805ZM17.5 12C20.5376 12 23 14.4624 23 17.5C23 20.5376 20.5376 23 17.5 23C14.4624 23 12 20.5376 12 17.5C12 14.4624 14.4624 12 17.5 12ZM19.5 17.5001H17.5L17.5 14.9999C17.5 14.7238 17.2761 14.4999 17 14.4999C16.7239 14.4999 16.5 14.7238 16.5 14.9999L16.5 17.9985L16.5 18.0001C16.5 18.2762 16.7239 18.5001 17 18.5001H19.5C19.7761 18.5001 20 18.2762 20 18.0001C20 17.7239 19.7761 17.5001 19.5 17.5001Z" fill="#212121"/>
</svg>
