<svg width="32" height="32" viewBox="0 0 32 32" fill="none" xmlns="http://www.w3.org/2000/svg">
<path d="M18.7782 3.62776C17.5321 1.83996 14.9728 1.61324 13.4319 3.15416L9.30742 7.27864C7.69734 8.88873 8.02905 11.5832 9.98156 12.7547L12.9367 14.5278L2.9901 24.2942C1.66281 25.5974 1.65314 27.733 2.96858 29.0482C4.27542 30.3548 6.39399 30.3546 7.70067 29.0479L17.5519 19.1961L19.296 22.1028C20.4451 24.018 23.0696 24.3815 24.696 22.8508L28.7819 19.0052C30.3592 17.5208 30.2231 14.9746 28.4967 13.6667L22.8565 9.39382C22.7729 9.33053 22.6998 9.2545 22.6399 9.16852L18.7782 3.62776ZM14.8461 4.56838C15.5065 3.90798 16.6034 4.00514 17.1374 4.77135L17.8263 5.75978L11.9704 11.6157L11.0106 11.0398C10.1738 10.5377 10.0316 9.38289 10.7216 8.69286L14.8461 4.56838ZM13.7382 12.6763L18.988 7.42653L20.9991 10.3121C21.1789 10.5701 21.3981 10.7981 21.6487 10.988L24.18 12.9056L19.1363 17.9493L17.6152 15.4141C17.3618 14.9919 17.0084 14.6385 16.5862 14.3851L13.7382 12.6763ZM20.1969 19.7171L25.7893 14.1248L27.2889 15.2609C28.0288 15.8214 28.0872 16.9126 27.4112 17.5488L23.3253 21.3944C22.6283 22.0504 21.5035 21.8946 21.011 21.0738L20.1969 19.7171ZM16.4913 17.4283L6.28642 27.6337C5.76073 28.1594 4.90841 28.1595 4.38266 27.6338C3.85345 27.1047 3.85734 26.2456 4.39132 25.7213L14.7086 15.591L15.5572 16.1001C15.6979 16.1846 15.8157 16.3024 15.9002 16.4431L16.4913 17.4283Z" fill="#212121"/>
<path d="M19 25.9999C18.4477 25.9999 18 26.4476 18 26.9999C18 27.5522 18.4477 27.9999 19 27.9999H17C16.4477 27.9999 16 28.4476 16 28.9999C16 29.5522 16.4477 29.9999 17 29.9999H28.3333C28.8856 29.9999 29.3333 29.5522 29.3333 28.9999C29.3333 28.4476 28.8856 27.9999 28.3333 27.9999H26C26.5523 27.9999 27 27.5522 27 26.9999C27 26.4476 26.5523 25.9999 26 25.9999H19Z" fill="#212121"/>
</svg>
