<svg width="20" height="20" viewBox="0 0 20 20" fill="none" xmlns="http://www.w3.org/2000/svg">
<path d="M12.3293 6.62372C12.5371 6.80556 12.5581 7.12144 12.3763 7.32926L8.87629 11.3293C8.78516 11.4334 8.65495 11.4951 8.51664 11.4997C8.37833 11.5043 8.2443 11.4514 8.14645 11.3536L6.14645 9.35356C5.95118 9.1583 5.95118 8.84172 6.14645 8.64645C6.34171 8.45119 6.65829 8.45119 6.85355 8.64645L8.47565 10.2685L11.6237 6.67075C11.8056 6.46294 12.1214 6.44188 12.3293 6.62372ZM3 6C3 4.34315 4.34315 3 6 3H12C13.6569 3 15 4.34315 15 6V12C15 13.6569 13.6569 15 12 15H6C4.34315 15 3 13.6569 3 12V6ZM6 4C4.89543 4 4 4.89543 4 6V12C4 13.1046 4.89543 14 6 14H12C13.1046 14 14 13.1046 14 12V6C14 4.89543 13.1046 4 12 4H6ZM5.75391 16.0002C6.30322 16.6137 7.10139 16.9998 7.98973 16.9998H12.4897C14.975 16.9998 16.9897 14.9851 16.9897 12.4998V7.99985C16.9897 7.11558 16.6072 6.32067 15.9985 5.77161V11.0002C15.9985 11.1003 15.9955 11.1998 15.9897 11.2985V12.4998C15.9897 14.4328 14.4227 15.9998 12.4897 15.9998H11.0548C11.0361 16.0001 11.0173 16.0002 10.9985 16.0002H5.75391Z" fill="#212121"/>
</svg>
