<svg width="24" height="24" viewBox="0 0 24 24" fill="none" xmlns="http://www.w3.org/2000/svg">
<path d="M11.9994 2.00244C9.85908 2.00244 8.12402 3.7375 8.12402 5.87781C8.12402 8.79655 9.33145 12.4294 9.93678 14.0764C10.2596 14.9547 11.096 15.5 12.0016 15.5C12.9047 15.5 13.7399 14.9575 14.0636 14.0814C14.6696 12.4417 15.8748 8.82749 15.8748 5.87781C15.8748 3.7375 14.1397 2.00244 11.9994 2.00244ZM9.62402 5.87781C9.62402 4.56593 10.6875 3.50244 11.9994 3.50244C13.3113 3.50244 14.3748 4.56593 14.3748 5.87781C14.3748 8.53202 13.263 11.9207 12.6566 13.5615C12.5611 13.8199 12.308 14 12.0016 14C11.6944 14 11.4402 13.8189 11.3447 13.559C10.7377 11.9074 9.62402 8.50105 9.62402 5.87781Z" fill="#212121"/>
<path d="M12.0001 17.0015C10.6188 17.0015 9.49902 18.1213 9.49902 19.5026C9.49902 20.8839 10.6188 22.0037 12.0001 22.0037C13.3815 22.0037 14.5013 20.8839 14.5013 19.5026C14.5013 18.1213 13.3815 17.0015 12.0001 17.0015ZM10.999 19.5026C10.999 18.9497 11.4472 18.5015 12.0001 18.5015C12.553 18.5015 13.0013 18.9497 13.0013 19.5026C13.0013 20.0555 12.553 20.5037 12.0001 20.5037C11.4472 20.5037 10.999 20.0555 10.999 19.5026Z" fill="#212121"/>
</svg>
