<svg width="20" height="20" viewBox="0 0 20 20" fill="none" xmlns="http://www.w3.org/2000/svg">
<path d="M7 11.5C7 13.433 8.567 15 10.5 15H11.9502C11.7186 16.1411 10.7095 17 9.5 17H5.5C4.11929 17 3 15.8807 3 14.5V8.5C3 7.11929 4.11929 6 5.5 6H7V11.5ZM8.5 11.5C8.77614 11.5 8.99169 11.7303 9.08203 11.9912C9.28543 12.5784 9.84358 13 10.5 13H11.25C11.5261 13 11.75 13.2239 11.75 13.5C11.75 13.7761 11.5261 14 11.25 14H10.5C9.28951 14 8.28034 13.1396 8.0498 11.9971C7.99523 11.7264 8.22386 11.5 8.5 11.5ZM16.5 11.5C16.7761 11.5 17.0048 11.7264 16.9502 11.9971C16.7197 13.1396 15.7105 14 14.5 14H13.75C13.4739 14 13.25 13.7761 13.25 13.5C13.25 13.2239 13.4739 13 13.75 13H14.5C15.1564 13 15.7146 12.5784 15.918 11.9912C16.0083 11.7303 16.2239 11.5 16.5 11.5ZM8.5 7C8.77614 7 9 7.22386 9 7.5V9.5C9 9.77614 8.77614 10 8.5 10C8.22386 10 8 9.77614 8 9.5V7.5C8 7.22386 8.22386 7 8.5 7ZM16.5 7C16.7761 7 17 7.22386 17 7.5V9.5C17 9.77614 16.7761 10 16.5 10C16.2239 10 16 9.77614 16 9.5V7.5C16 7.22386 16.2239 7 16.5 7ZM11.25 3C11.5261 3 11.75 3.22386 11.75 3.5C11.75 3.77614 11.5261 4 11.25 4H10.5C9.84358 4 9.28543 4.42157 9.08203 5.00879C8.99169 5.26973 8.77614 5.5 8.5 5.5C8.22386 5.5 7.99523 5.27362 8.0498 5.00293C8.28034 3.86039 9.28951 3 10.5 3H11.25ZM14.5 3C15.7105 3 16.7197 3.86039 16.9502 5.00293C17.0048 5.27362 16.7761 5.5 16.5 5.5C16.2239 5.5 16.0083 5.26973 15.918 5.00879C15.7146 4.42157 15.1564 4 14.5 4H13.75C13.4739 4 13.25 3.77614 13.25 3.5C13.25 3.22386 13.4739 3 13.75 3H14.5Z" fill="#212121"/>
</svg>
