<svg width="21" height="20" viewBox="0 0 21 20" fill="none" xmlns="http://www.w3.org/2000/svg">
<path d="M9.41602 2C7.20688 2 5.41602 3.79086 5.41602 6C5.41602 8.20914 7.20688 10 9.41602 10C11.6252 10 13.416 8.20914 13.416 6C13.416 3.79086 11.6252 2 9.41602 2ZM6.41602 6C6.41602 4.34315 7.75916 3 9.41602 3C11.0729 3 12.416 4.34315 12.416 6C12.416 7.65685 11.0729 9 9.41602 9C7.75916 9 6.41602 7.65685 6.41602 6ZM4.42474 11C3.31917 11 2.41602 11.8869 2.41602 13C2.41602 14.6912 3.24883 15.9663 4.55101 16.7966C5.83298 17.614 7.56127 18 9.41602 18C9.70303 18 9.98702 17.9908 10.2668 17.9721L9.2941 16.9994C7.60966 16.9827 6.13405 16.62 5.08863 15.9534C4.03828 15.2837 3.41602 14.3088 3.41602 13C3.41602 12.4467 3.86388 12 4.42474 12L14.4161 12C14.6714 12 14.9045 12.0958 15.0812 12.2534C15.4033 12.0372 15.7906 11.9594 16.1597 12.0198C15.8168 11.4111 15.1644 11 14.4161 11L4.42474 11ZM12.2696 17.8536C12.0743 18.0488 11.7577 18.0488 11.5625 17.8536L9.56246 15.8536C9.3672 15.6583 9.3672 15.3417 9.56246 15.1464L11.5625 13.1464C11.7577 12.9512 12.0743 12.9512 12.2696 13.1464C12.4648 13.3417 12.4648 13.6583 12.2696 13.8536L11.1231 15H16.7089L15.5625 13.8536C15.3672 13.6583 15.3672 13.3417 15.5625 13.1464C15.7577 12.9512 16.0743 12.9512 16.2696 13.1464L18.2696 15.1464C18.4648 15.3417 18.4648 15.6583 18.2696 15.8536L16.2696 17.8536C16.0743 18.0488 15.7577 18.0488 15.5625 17.8536C15.3672 17.6583 15.3672 17.3417 15.5625 17.1464L16.7089 16H11.1231L12.2696 17.1464C12.4648 17.3417 12.4648 17.6583 12.2696 17.8536Z" fill="#212121"/>
</svg>
