<svg width="28" height="28" viewBox="0 0 28 28" fill="none" xmlns="http://www.w3.org/2000/svg">
<path d="M9.30893 3.24991L9.31086 3.25207L9.31433 3.25597L9.32581 3.269C9.33546 3.27998 9.34904 3.29556 9.36634 3.31565C9.40093 3.35582 9.45038 3.41406 9.51283 3.48968C9.63773 3.64089 9.81478 3.86178 10.0292 4.14698C10.4578 4.71706 11.0369 5.54585 11.6475 6.59023C12.4683 7.99432 13.3521 9.7986 14 11.8959C14.6479 9.7986 15.5317 7.99432 16.3525 6.59023C16.9631 5.54585 17.5422 4.71706 17.9708 4.14698C18.1852 3.86178 18.3623 3.64089 18.4872 3.48968C18.5496 3.41406 18.5991 3.35582 18.6337 3.31565C18.651 3.29556 18.6645 3.27998 18.6742 3.269L18.6857 3.25597L18.6891 3.25207L18.6903 3.25077L18.6911 3.24991C18.8984 3.01818 19.2272 2.93842 19.5177 3.0494C19.8081 3.16037 20 3.43906 20 3.75V13.1142C20.516 11.9698 21.0807 11.0538 21.6172 10.3333C22.1982 9.55315 22.7429 9.00663 23.1511 8.65004C23.3551 8.47181 23.5248 8.34112 23.6478 8.25246C23.7093 8.20813 23.7591 8.17429 23.7957 8.15026C23.814 8.13825 23.829 8.12868 23.8404 8.12148L23.855 8.11244L23.8602 8.10923L23.8624 8.10795L23.8633 8.10739C24.095 7.96837 24.3844 7.96422 24.6195 8.09735C24.8547 8.23048 25 8.4798 25 8.75V21.25C25 23.3211 23.3211 25 21.25 25H6.75C4.67893 25 3 23.3211 3 21.25V8.75C3 8.4798 3.14534 8.23048 3.38048 8.09735C3.61561 7.96422 3.90417 7.96786 4.13587 8.10688L4.13765 8.10795L4.13976 8.10923L4.14502 8.11244L4.15958 8.12148C4.17105 8.12868 4.18602 8.13825 4.2043 8.15026C4.24087 8.17429 4.29068 8.20813 4.35218 8.25246C4.47516 8.34112 4.64492 8.47181 4.84893 8.65004C5.25706 9.00663 5.80182 9.55315 6.38278 10.3333C6.91932 11.0538 7.48396 11.9698 8 13.1142V3.75C8 3.43906 8.19186 3.16037 8.48232 3.0494C8.77278 2.93842 9.1016 3.01818 9.30893 3.24991ZM4.5 10.4055V21.25C4.5 22.4926 5.50736 23.5 6.75 23.5H21.25C22.4926 23.5 23.5 22.4926 23.5 21.25V10.4055C23.2889 10.6353 23.0591 10.9084 22.8203 11.2292C21.7973 12.603 20.5942 14.8681 19.9891 18.3774C19.9229 18.7612 19.5741 19.0305 19.1861 18.9973C18.798 18.9641 18.5 18.6394 18.5 18.25V5.99012C18.2347 6.38364 17.9452 6.83799 17.6475 7.34727C16.4912 9.32508 15.2236 12.1082 14.7419 15.3599C14.6874 15.7277 14.3718 16 14 16C13.6282 16 13.3126 15.7277 13.2581 15.3599C12.7764 12.1082 11.5088 9.32508 10.3525 7.34727C10.0548 6.83799 9.76534 6.38364 9.5 5.99012V18.25C9.5 18.6394 9.20196 18.9641 8.81395 18.9973C8.42594 19.0305 8.07707 18.7612 8.0109 18.3774C7.40584 14.8681 6.20274 12.603 5.17972 11.2292C4.94085 10.9084 4.71108 10.6353 4.5 10.4055Z" fill="#212121"/>
</svg>
