<svg width="28" height="28" viewBox="0 0 28 28" fill="none" xmlns="http://www.w3.org/2000/svg">
<path d="M11 2C10.4477 2 10 2.44772 10 3V4H9.82398C8.11381 4 6.62028 5.15704 6.19294 6.81296L5.62854 9H4.25C3.83579 9 3.5 9.33579 3.5 9.75C3.5 10.1642 3.83579 10.5 4.25 10.5H5.24145L4.95313 11.6172C3.82292 11.9589 3 13.0083 3 14.25V23.25C3 24.7688 4.23122 26 5.75 26H6.75C8.26878 26 9.5 24.7688 9.5 23.25V22.25H18.5V23.25C18.5 24.7688 19.7312 26 21.25 26H22.25C23.7688 26 25 24.7688 25 23.25V14.25C25 13.0082 24.177 11.9587 23.0466 11.6172L22.7583 10.5H23.75C24.1642 10.5 24.5 10.1642 24.5 9.75C24.5 9.33579 24.1642 9 23.75 9H22.3712L21.8068 6.81296C21.3795 5.15704 19.886 4 18.1758 4H18V3C18 2.44772 17.5523 2 17 2H11ZM18.1758 5.5C19.2019 5.5 20.098 6.19422 20.3544 7.18777L21.4673 11.5H6.53253L7.64536 7.18777C7.90176 6.19422 8.79788 5.5 9.82398 5.5H18.1758ZM20 22.25H23.5V23.25C23.5 23.9404 22.9404 24.5 22.25 24.5H21.25C20.5596 24.5 20 23.9404 20 23.25V22.25ZM8 23.25C8 23.9404 7.44036 24.5 6.75 24.5H5.75C5.05964 24.5 4.5 23.9404 4.5 23.25V22.25H8V23.25ZM7 16.25C7 15.5596 7.55964 15 8.25 15C8.94036 15 9.5 15.5596 9.5 16.25C9.5 16.9404 8.94036 17.5 8.25 17.5C7.55964 17.5 7 16.9404 7 16.25ZM19.75 17.5C19.0596 17.5 18.5 16.9404 18.5 16.25C18.5 15.5596 19.0596 15 19.75 15C20.4404 15 21 15.5596 21 16.25C21 16.9404 20.4404 17.5 19.75 17.5ZM16.25 17.5C16.6642 17.5 17 17.8358 17 18.25C17 18.6642 16.6642 19 16.25 19H11.75C11.3358 19 11 18.6642 11 18.25C11 17.8358 11.3358 17.5 11.75 17.5H16.25Z" fill="#212121"/>
</svg>
