<svg width="24" height="24" viewBox="0 0 24 24" fill="none" xmlns="http://www.w3.org/2000/svg">
<path d="M11 11.9999L19.2552 6.29627C20.416 5.49427 22 6.32514 22 7.73605V16.2637C22 17.6746 20.416 18.5055 19.2552 17.7035L11 11.9999Z" fill="url(#paint0_radial_378174_9724)"/>
<path d="M11 11.9999L19.2552 6.29627C20.416 5.49427 22 6.32514 22 7.73605V16.2637C22 17.6746 20.416 18.5055 19.2552 17.7035L11 11.9999Z" fill="url(#paint1_linear_378174_9724)" fill-opacity="0.75"/>
<path d="M2 8.25C2 6.45507 3.45507 5 5.25 5H11.75C13.5449 5 15 6.45507 15 8.25V15.75C15 17.5449 13.5449 19 11.75 19H5.25C3.45507 19 2 17.5449 2 15.75V8.25Z" fill="url(#paint2_radial_378174_9724)"/>
<path opacity="0.5" d="M4 15C4 13.8954 4.89543 13 6 13H11C12.1046 13 13 13.8954 13 15C13 16.1046 12.1046 17 11 17H6C4.89543 17 4 16.1046 4 15Z" fill="url(#paint3_linear_378174_9724)"/>
<path d="M6 14C5.44772 14 5 14.4477 5 15C5 15.5523 5.44772 16 6 16H8C8.55228 16 9 15.5523 9 15C9 14.4477 8.55228 14 8 14H6Z" fill="#BABAFF"/>
<path d="M11 16C11.5523 16 12 15.5523 12 15C12 14.4477 11.5523 14 11 14C10.4477 14 10 14.4477 10 15C10 15.5523 10.4477 16 11 16Z" fill="#BABAFF"/>
<defs>
<radialGradient id="paint0_radial_378174_9724" cx="0" cy="0" r="1" gradientUnits="userSpaceOnUse" gradientTransform="translate(17 2.99989) rotate(74.876) scale(19.1638 32.1755)">
<stop offset="0.0810009" stop-color="#F08AF4"/>
<stop offset="0.393858" stop-color="#9C6CFE"/>
<stop offset="1" stop-color="#4E44DB"/>
</radialGradient>
<linearGradient id="paint1_linear_378174_9724" x1="14.0556" y1="11.9999" x2="21.9931" y2="11.7666" gradientUnits="userSpaceOnUse">
<stop stop-color="#312A9A"/>
<stop offset="1" stop-color="#312A9A" stop-opacity="0"/>
</linearGradient>
<radialGradient id="paint2_radial_378174_9724" cx="0" cy="0" r="1" gradientUnits="userSpaceOnUse" gradientTransform="translate(-0.363284 5.58325) rotate(44.73) scale(21.0535 44.2355)">
<stop stop-color="#F08AF4"/>
<stop offset="0.341244" stop-color="#9C6CFE"/>
<stop offset="1" stop-color="#4E44DB"/>
</radialGradient>
<linearGradient id="paint3_linear_378174_9724" x1="3.7955" y1="13" x2="5.15398" y2="18.3441" gradientUnits="userSpaceOnUse">
<stop stop-color="#3B148A"/>
<stop offset="1" stop-color="#4B20A0"/>
</linearGradient>
</defs>
</svg>
