<?xml version="1.0" encoding="UTF-8"?>
<svg width="24px" height="24px" viewBox="0 0 24 24" version="1.1" xmlns="http://www.w3.org/2000/svg" xmlns:xlink="http://www.w3.org/1999/xlink">
    <!-- Generator: Sketch 59.1 (86144) - https://sketch.com -->
    <title>ic_fluent_settings_24_light</title>
    <desc>Created with Sketch.</desc>
    <g id="ðŸ”-Product-Icons" stroke="none" stroke-width="1" fill="none" fill-rule="evenodd">
        <g id="ic_fluent_settings_24_light" fill="#212121" fill-rule="nonzero">
            <path d="M12.011,2.5 L11.5770867,2.5139976 C10.9972491,2.54438915 10.4276534,2.62197989 9.86538224,2.74702961 C9.68655901,2.78680009 9.54635055,2.92022492 9.4950293,3.09129641 L9.47700868,3.17971008 L9.3069196,4.70550889 C9.24921925,5.22085976 8.95037514,5.67863216 8.50218548,5.93860228 C8.10158446,6.17264136 7.62452524,6.2239013 7.18866384,6.08547717 L7.02737676,6.02466319 L5.62700155,5.40949831 C5.43279715,5.3241871 5.20589915,5.37069775 5.06092178,5.5255361 C4.07458093,6.57896523 3.33999862,7.84237461 2.91244779,9.22070021 C2.85834995,9.39509921 2.90405828,9.58246231 3.02627038,9.71194944 L3.09364387,9.77154205 L4.3360426,10.6858356 C4.75466946,10.9934129 5.00177873,11.4813901 5.00177873,12.0005063 C5.00177873,12.4675915 4.80170685,12.9096054 4.45696238,13.217231 L4.33676531,13.3146455 L3.09343366,14.2306258 C2.92211067,14.356842 2.84944438,14.577665 2.91233678,14.7809545 C3.33915442,16.1605736 4.07336116,17.4254018 5.0596928,18.4802345 C5.18383737,18.6130009 5.36819375,18.6662652 5.54065114,18.625184 L5.6255544,18.5967125 L7.0324736,17.98031 C7.50634542,17.7734185 8.0510936,17.8039172 8.49957988,18.0624386 C8.9034032,18.2952148 9.18616752,18.6880319 9.28142826,19.1398624 L9.30614611,19.2925197 L9.47496806,20.8169432 C9.49821031,21.0268111 9.65078357,21.199456 9.85620064,21.2483286 C11.2666045,21.5838904 12.7360616,21.5838904 14.1464656,21.2483286 C14.3225373,21.2064378 14.459785,21.0736123 14.5100419,20.9043553 L14.5276981,20.8169432 L14.6967718,19.2902782 C14.7538362,18.7747344 15.0526811,18.317095 15.5017475,18.0575706 C15.9009172,17.8268825 16.3764587,17.7771879 16.8109844,17.9150582 L16.9717797,17.9755645 L18.3781122,18.5917103 C18.5722979,18.6767874 18.7990272,18.6301524 18.9438714,18.4753418 C19.9296551,17.4217285 20.6638296,16.1583998 21.0912274,14.7802847 C21.1452881,14.6059698 21.099643,14.4187001 20.9775453,14.2892213 L20.910233,14.2296254 L19.6679391,13.3144087 C19.2490569,13.0066431 19.0018879,12.5186962 19.0018879,11.9995059 C19.0018879,11.5324247 19.2019568,11.0904098 19.5466671,10.7828087 L19.6668516,10.6854033 L20.9083317,9.77031342 C21.0796978,9.64400006 21.1522902,9.42303029 21.0892179,9.21969977 C20.661667,7.84137406 19.9270848,6.57796472 18.940744,5.52453568 C18.8164776,5.39181706 18.6320248,5.33868618 18.4595622,5.37993816 L18.3746642,5.40849789 L16.9746431,6.02350616 C16.76772,6.11505538 16.5455329,6.16198214 16.3206654,6.16163065 C15.5367172,6.16080875 14.8714809,5.60554633 14.720124,4.85040018 L14.6978631,4.70655445 L14.5276584,3.17971009 C14.503992,2.96740874 14.348066,2.79359147 14.1395717,2.74709349 C13.5803411,2.62237504 13.011949,2.54444383 12.4402865,2.51398348 L12.011,2.5 Z M12.0156291,3.49996547 C12.3786112,3.50426978 12.7459056,3.53092754 13.1483026,3.59854681 L13.4571632,3.65723229 L13.5949644,3.83905001 L13.7039332,4.81656697 C13.8504536,6.14987718 14.9771748,7.16022276 16.3193599,7.16162976 C16.6107494,7.16208526 16.8997993,7.11356617 17.1747053,7.01850814 L17.3780484,6.93852662 L18.3537623,6.53756829 L18.5680142,6.61463889 C19.0836237,7.24044305 19.507153,7.93604217 19.8283596,8.73363881 L19.959725,9.08180457 L19.8713304,9.2923828 L19.074138,9.87999031 C18.400217,10.3751382 18.0018879,11.162462 18.0018879,11.9995059 C18.0018879,12.7723539 18.3414355,13.5025872 18.924533,14.0003955 L19.919058,14.7731553 L19.9585732,14.9981149 C19.6696419,15.7556974 19.2745848,16.4677969 18.7405449,17.1414218 L18.5030657,17.427783 L18.2772007,17.4557336 L17.3728812,17.0595309 C16.6061493,16.7239989 15.7258183,16.7730902 15.0013776,17.1917588 C14.3327042,17.5781985 13.8704945,18.2369492 13.7309436,18.9900856 L13.7028451,19.1802332 L13.5605686,20.2360834 L13.3873174,20.3830041 C12.584606,20.5194993 11.7667235,20.5365612 10.9133481,20.409102 L10.5453835,20.3455552 L10.408777,20.1640604 L10.2999005,19.1809405 C10.2052479,18.3492503 9.72286024,17.6133342 8.99898244,17.1960686 C8.33109957,16.8110802 7.53112494,16.7397643 6.81021863,16.9938097 L6.6317615,17.0641062 L5.6474031,17.4677451 L5.43326202,17.3905308 C4.91739353,16.7636332 4.49382498,16.0668666 4.17285253,15.2681127 L4.04160432,14.9194519 L4.13006658,14.7089973 L4.92937913,14.120132 C5.60342533,13.6248918 6.00177873,12.8375804 6.00177873,12.0005063 C6.00177873,11.227666 5.66223695,10.4974305 5.07921756,9.99967871 L4.92844586,9.88019406 L4.08481161,9.22766671 L4.0452491,9.00261358 C4.33425079,8.24515436 4.72941066,7.53321078 5.26360676,6.85979619 L5.50115622,6.57352849 L5.72714454,6.54572225 L6.62535161,6.9402918 C7.39487267,7.27799966 8.27925262,7.22699857 9.00528736,6.80282798 C9.67117861,6.41658255 10.1323414,5.75837162 10.2724623,5.00638461 L10.3007368,4.8165373 L10.4433402,3.76705169 L10.6181204,3.62028696 C10.9636064,3.56427659 11.3116326,3.5276857 11.6618077,3.51057723 L12.0156291,3.49996547 Z M12,8.5 C10.0670034,8.5 8.5,10.0670034 8.5,12 C8.5,13.9329966 10.0670034,15.5 12,15.5 C13.9329966,15.5 15.5,13.9329966 15.5,12 C15.5,10.0670034 13.9329966,8.5 12,8.5 Z M12,9.5 C13.3807119,9.5 14.5,10.6192881 14.5,12 C14.5,13.3807119 13.3807119,14.5 12,14.5 C10.6192881,14.5 9.5,13.3807119 9.5,12 C9.5,10.6192881 10.6192881,9.5 12,9.5 Z" id="ðŸŽ¨-Color"></path>
        </g>
    </g>
</svg>