<svg width="16" height="16" viewBox="0 0 16 16" fill="none" xmlns="http://www.w3.org/2000/svg">
<path d="M10.624 10.1709C10.8059 9.96314 11.1213 9.9422 11.3291 10.124C11.5369 10.3059 11.5578 10.6213 11.376 10.8291L7.87598 14.8291C7.78485 14.9332 7.65488 14.9954 7.5166 15C7.37831 15.0046 7.24433 14.9514 7.14648 14.8535L5.14648 12.8535L5.08203 12.7754C4.95387 12.5813 4.97562 12.3173 5.14648 12.1465C5.31735 11.9756 5.58131 11.9539 5.77539 12.082L5.85352 12.1465L7.47559 13.7686L10.624 10.1709ZM7 4C7.20221 4 7.38451 4.12179 7.46191 4.30859C7.5393 4.49543 7.49651 4.71052 7.35352 4.85352L6.20703 6H8.5C8.77614 6 9 6.22386 9 6.5C9 6.77614 8.77614 7 8.5 7H6V8.57324C5.99984 9.36722 5.34632 9.9999 4.56445 10C4.1019 10 3.66633 9.77209 3.4043 9.39453L3.30273 9.22363L3.2666 9.12891C3.20645 8.90429 3.31028 8.66078 3.52637 8.55273C3.7423 8.44477 3.99891 8.50785 4.14258 8.69043L4.19727 8.77637L4.22559 8.82422C4.30009 8.93139 4.4274 9 4.56445 9C4.8062 8.99989 4.99984 8.80286 5 8.57324V7H1.5C1.22386 7 1 6.77614 1 6.5C1 6.22386 1.22386 6 1.5 6H5C5 5.86739 5.05272 5.74025 5.14648 5.64648L5.79297 5H3.5C3.22386 5 3 4.77614 3 4.5C3 4.22386 3.22386 4 3.5 4H7ZM12 2C12.2019 2 12.3843 2.12129 12.4619 2.30762L14.9619 8.30762L14.9912 8.4043C15.0359 8.63262 14.9155 8.86895 14.6924 8.96191C14.4694 9.0548 14.2176 8.97359 14.0869 8.78125L14.0381 8.69238L13.333 7H10.667L9.96191 8.69238C9.85571 8.94726 9.5625 9.06807 9.30762 8.96191C9.05274 8.85572 8.93193 8.5625 9.03809 8.30762L11.5381 2.30762L11.5723 2.24121C11.6619 2.09305 11.8233 2 12 2ZM11.083 6H12.917L12 3.7998L11.083 6ZM5 1C5.27614 1 5.5 1.22386 5.5 1.5V2H8.5L8.60059 2.00977C8.82855 2.05629 9 2.25829 9 2.5V3.5C9 3.77614 8.77614 4 8.5 4C8.22386 4 8 3.77614 8 3.5V3H2V3.5C2 3.77614 1.77614 4 1.5 4C1.22386 4 1 3.77614 1 3.5V2.5L1.00977 2.39941C1.05629 2.17145 1.25829 2 1.5 2H4.5V1.5C4.5 1.22386 4.72386 1 5 1Z" fill="#212121"/>
</svg>
