<svg width="12" height="12" viewBox="0 0 12 12" fill="none" xmlns="http://www.w3.org/2000/svg">
<path d="M4.93279 1.64995C4.74724 1.94421 4.64422 2.29099 4.62996 2.53384C4.60508 2.9575 4.66971 3.37618 4.93282 3.69192C5.20759 4.02166 5.60515 4.13 5.99796 4.13C6.40118 4.13 6.79505 4.00694 7.06606 3.67962C7.32742 3.36397 7.39801 2.94902 7.36879 2.52849C7.35271 2.29707 7.2488 1.95284 7.06487 1.65902C6.8831 1.36867 6.53759 1 5.99795 1C5.46352 1 5.11762 1.35686 4.93279 1.64995ZM3.5 5C2.67157 5 2 5.67157 2 6.5V6.50587L3.86651 7.96176C3.95372 8.02979 4.07527 8.03242 4.16534 7.96823L5.27463 7.17783C5.70874 6.8685 6.29126 6.8685 6.72537 7.17783L7.83466 7.96823C7.92474 8.03242 8.04628 8.02979 8.13349 7.96176L10 6.50589V6.5C10 5.67157 9.32843 5 8.5 5H3.5ZM8.74852 8.75026L10 7.77411V10H10.5C10.7761 10 11 10.2239 11 10.5C11 10.7761 10.7761 11 10.5 11H1.5C1.22386 11 1 10.7761 1 10.5C1 10.2239 1.22386 10 1.5 10H2V7.77411L3.25148 8.75026C3.68754 9.09039 4.29526 9.10356 4.74564 8.78264L5.85493 7.99223C5.94175 7.93036 6.05825 7.93036 6.14508 7.99223L7.25436 8.78264C7.70474 9.10356 8.31247 9.09039 8.74852 8.75026Z" fill="#212121"/>
</svg>
