<svg width="16" height="16" viewBox="0 0 16 16" fill="none" xmlns="http://www.w3.org/2000/svg">
<path d="M10.5 6C12.9853 6 15 8.01472 15 10.5C15 12.9853 12.9853 15 10.5 15C8.01472 15 6 12.9853 6 10.5C6 8.01472 8.01472 6 10.5 6ZM5.59961 8C5.43768 8.31678 5.30563 8.65137 5.20703 9H3.5C3.22386 9 3 9.22386 3 9.5V10C3 11.1281 3.88167 12.3332 5.50195 12.7998C5.69386 13.2162 5.93661 13.6046 6.22168 13.957C3.55462 13.6533 2 11.8026 2 10V9.5C2 8.67157 2.67157 8 3.5 8H5.59961ZM10.5 12.3799C10.1551 12.3799 9.875 12.66 9.875 13.0049C9.87501 13.3498 10.1551 13.6289 10.5 13.6289C10.8449 13.6289 11.124 13.3498 11.124 13.0049C11.124 12.66 10.8449 12.3799 10.5 12.3799ZM10.5 7.50391C9.45205 7.50391 8.63557 8.32111 8.64648 9.45801C8.64928 9.73401 8.87533 9.95577 9.15137 9.95312C9.42746 9.95047 9.64908 9.72433 9.64648 9.44824C9.64093 8.86923 10.0062 8.50391 10.5 8.50391C10.9724 8.50392 11.3535 8.89553 11.3535 9.45312C11.3535 9.65477 11.2824 9.76832 10.9941 9.99707L10.7158 10.2119C10.2101 10.6162 10.0001 10.9293 10 11.5C9.99999 11.7761 10.2239 12 10.5 12C10.7454 12 10.9498 11.8231 10.9922 11.5898L11.0029 11.4336C11.0199 11.286 11.1031 11.1798 11.3486 10.9854L11.626 10.7715C12.1391 10.3608 12.3535 10.0387 12.3535 9.45312C12.3535 8.34944 11.531 7.50392 10.5 7.50391ZM7 1.5C8.51878 1.5 9.75 2.73122 9.75 4.25C9.75 4.53525 9.70659 4.81063 9.62598 5.06934C9.1403 5.14689 8.67566 5.28748 8.24121 5.4834C8.55561 5.16702 8.75 4.73126 8.75 4.25C8.75 3.2835 7.9665 2.5 7 2.5C6.0335 2.5 5.25 3.2835 5.25 4.25C5.25 5.2165 6.0335 6 7 6C7.13934 6 7.27534 5.9839 7.40527 5.95312C7.00494 6.22616 6.64211 6.55052 6.32715 6.91699C5.13368 6.6168 4.25 5.53662 4.25 4.25C4.25 2.73122 5.48122 1.5 7 1.5Z" fill="#212121"/>
</svg>
