<svg width="12" height="12" viewBox="0 0 12 12" fill="none" xmlns="http://www.w3.org/2000/svg">
<path d="M6.25 1.5C5.83579 1.5 5.5 1.83579 5.5 2.25C5.5 2.66421 5.83579 3 6.25 3H8.57257L5.96972 5.90907L5.03033 4.96968C4.73744 4.67678 4.26256 4.67678 3.96967 4.96968L1.21967 7.71968C0.926777 8.01257 0.926777 8.48744 1.21967 8.78034C1.51256 9.07323 1.98744 9.07323 2.28033 8.78034L4.5 6.56067L5.46967 7.53034C5.61543 7.6761 5.81475 7.75544 6.02081 7.74972C6.22686 7.744 6.42148 7.65372 6.55893 7.5001L9.5 4.21303V6.25C9.5 6.66421 9.83579 7 10.25 7C10.6642 7 11 6.66421 11 6.25V2.25C11 1.83579 10.6642 1.5 10.25 1.5H6.25Z" fill="#212121"/>
</svg>
