<svg width="48" height="48" viewBox="0 0 48 48" fill="none" xmlns="http://www.w3.org/2000/svg">
<path d="M16.5349 5.45151C33.8228 -1.46711 50.881 16.8873 41.592 33.6076C37.3728 41.2022 26.8899 47.318 14.6837 41.5336L6.19941 43.9576C4.88298 44.3338 3.66644 43.1222 4.03585 41.8046C4.54223 39.9986 5.74209 35.7407 6.44361 33.4333C1.1823 24.045 4.73002 10.1758 16.5349 5.45151ZM39.4066 32.3935C47.4924 17.839 32.6837 1.68154 17.4637 7.77254C6.9872 11.9652 3.93843 24.4657 8.86934 32.6319L9.16025 33.1136L8.99238 33.6508C8.46025 35.3537 7.45551 38.8846 6.80729 41.1839L14.921 38.8657L15.3545 39.0806C26.3608 44.5367 35.6764 39.1079 39.4066 32.3935Z" fill="#212121"/>
</svg>
