<svg width="24" height="24" viewBox="0 0 24 24" fill="none" xmlns="http://www.w3.org/2000/svg">
<path d="m9,9v6h-2.25c-.66,0-1,.79-.54,1.27l5.25,5.5c.3.31.79.31,1.09,0l5.25-5.5.07-.08c.35-.48.01-1.19-.61-1.19h-2.25s0-6,0-6h2.25c.66,0,1-.79.54-1.27l-5.25-5.5c-.3-.31-.79-.31-1.08,0l-5.25,5.5c-.46.48-.12,1.27.54,1.27h2.25Zm3,11.16l-3.5-3.67h1.25c.41,0,.75-.34.75-.75v-7.6c-.06-.37-.37-.65-.75-.65h-1.25s3.5-3.66,3.5-3.66l3.5,3.66h-1.25c-.41,0-.75.34-.75.75v7.6c.06.37.37.65.75.65h1.25s-3.5,3.67-3.5,3.67Z" fill="#212121"/>
</svg>