<svg width="20" height="20" viewBox="0 0 20 20" fill="none" xmlns="http://www.w3.org/2000/svg">
<path d="M17 9C17 4.58172 13.4183 1 9 1C4.58172 1 1 4.58172 1 9C1 13.4183 4.58172 17 9 17C9.59109 17 10.1672 16.9359 10.7218 16.8143C10.6499 16.6749 10.5834 16.5322 10.5223 16.3863C10.4522 16.2189 10.3894 16.0477 10.3337 15.8731C9.90195 15.9564 9.45607 16 9 16C5.13401 16 2 12.866 2 9C2 5.13401 5.13401 2 9 2C12.6635 2 15.6697 4.8143 15.9746 8.39889C15.9851 8.40921 15.9955 8.41973 16.0057 8.43045C16.2053 8.63866 16.4046 8.81655 16.6033 8.96686C16.7345 9.06608 16.8656 9.15347 16.9968 9.22981C16.9989 9.15347 17 9.07686 17 9ZM9.04883 4.99999C9.46304 4.99999 9.79883 5.33578 9.79883 5.74999C9.79883 6.16421 9.46304 6.49999 9.04883 6.49999C8.63461 6.49999 8.29883 6.16421 8.29883 5.74999C8.29883 5.33578 8.63461 4.99999 9.04883 4.99999ZM9.00011 7.49999C9.24557 7.49999 9.44972 7.67687 9.49206 7.91012L9.50011 7.99999V12.5021C9.50011 12.7783 9.27626 13.0021 9.00011 13.0021C8.75465 13.0021 8.55051 12.8253 8.50817 12.592L8.50011 12.5021V7.99999C8.50011 7.72385 8.72397 7.49999 9.00011 7.49999ZM17 10.3471C16.6556 10.2024 16.3225 10.0083 16 9.76439C15.7552 9.57919 15.5165 9.36524 15.2837 9.12231C15.1276 8.95936 14.8741 8.95921 14.7178 9.12198C13.7233 10.1575 12.6234 10.6667 11.4 10.6667C11.1791 10.6667 11 10.8532 11 11.0833V13.5844L11.0044 13.8497C11.0309 14.6466 11.1783 15.364 11.4447 16C11.5953 16.3595 11.7839 16.693 12.0102 17C12.2847 17.3724 12.6146 17.706 12.9995 18C13.5231 18.4 14.1482 18.7268 14.8735 18.9786C14.9556 19.0071 15.0444 19.0071 15.1265 18.9786C17.687 18.0896 19 16.2663 19 13.5844V11.0833L18.9919 10.9994C18.9546 10.8095 18.7933 10.6667 18.6 10.6667C18.3966 10.6667 18.1966 10.6526 18 10.6245C17.6565 10.5753 17.3233 10.4829 17 10.3471Z" fill="#212121"/>
</svg>
