<svg width="24" height="24" viewBox="0 0 24 24" fill="none" xmlns="http://www.w3.org/2000/svg">
<path d="M17.75 2.00098C18.9409 2.00098 19.9156 2.92614 19.9948 4.09693L20 4.25098V19.749C20 20.9399 19.0748 21.9147 17.904 21.9939L17.75 21.999H6.25012C5.05926 21.999 4.08448 21.0739 4.00531 19.9031L4.00012 19.749V4.25098C4.00012 3.06011 4.92528 2.08533 6.09607 2.00617L6.25012 2.00098H17.75ZM12.2482 12.9973H7.75006L7.64829 13.0042C7.28221 13.0538 7.00006 13.3676 7.00006 13.7473C7.00006 14.127 7.28221 14.4408 7.64829 14.4905L7.75006 14.4973H12.2482L12.35 14.4905C12.716 14.4408 12.9982 14.127 12.9982 13.7473C12.9982 13.3676 12.716 13.0538 12.35 13.0042L12.2482 12.9973ZM16.2501 9.99866H7.75006L7.64829 10.0055C7.28221 10.0552 7.00006 10.369 7.00006 10.7487C7.00006 11.1284 7.28221 11.4421 7.64829 11.4918L7.75006 11.4987H16.2501L16.3518 11.4918C16.7179 11.4421 17.0001 11.1284 17.0001 10.7487C17.0001 10.369 16.7179 10.0552 16.3518 10.0055L16.2501 9.99866ZM16.2501 7.00001H7.75006L7.64829 7.00686C7.28221 7.05652 7.00006 7.37031 7.00006 7.75001C7.00006 8.12971 7.28221 8.4435 7.64829 8.49316L7.75006 8.50001H16.2501L16.3518 8.49316C16.7179 8.4435 17.0001 8.12971 17.0001 7.75001C17.0001 7.37031 16.7179 7.05652 16.3518 7.00686L16.2501 7.00001Z" fill="#212121"/>
</svg>
