<svg width="28" height="28" viewBox="0 0 28 28" fill="none" xmlns="http://www.w3.org/2000/svg">
<path d="M13.5 18C13.6754 18 13.8437 17.9699 14.0001 17.9146L14 17.1695C13.9999 16.5228 14.3516 16.0396 14.803 15.7564C14.5446 15.3045 14.0579 15 13.5 15C12.6716 15 12 15.6716 12 16.5C12 17.3284 12.6716 18 13.5 18ZM7.75 23.5H14.6357C14.8954 24.0617 15.2193 24.5603 15.5782 25H7.75C5.67893 25 4 23.3211 4 21.25V11.75C4 9.67893 5.67893 8 7.75 8H9V6.5C9 4.01472 11.0147 2 13.5 2C15.9853 2 18 4.01472 18 6.5V8H19.25C21.3211 8 23 9.67893 23 11.75V14.489C22.5141 14.1628 22.103 13.8094 21.7925 13.51C21.702 13.4228 21.6039 13.3468 21.5 13.282V11.75C21.5 10.5074 20.4926 9.5 19.25 9.5H7.75C6.50736 9.5 5.5 10.5074 5.5 11.75V21.25C5.5 22.4926 6.50736 23.5 7.75 23.5ZM13.5 3.5C11.8431 3.5 10.5 4.84315 10.5 6.5V8H16.5V6.5C16.5 4.84315 15.1569 3.5 13.5 3.5ZM21.0984 14.2299C21.8962 14.9992 23.4291 16.2224 25.3143 16.4733C25.6903 16.5234 26 16.8103 26 17.1693V20.5239C26 25.0338 21.6251 26.6706 20.6793 26.9717C20.5609 27.0094 20.4399 27.0094 20.3215 26.9717C19.3756 26.6706 15.0004 25.0338 15.0004 20.5239L15 17.1694C15 16.8103 15.3097 16.5234 15.6857 16.4733C17.5705 16.2223 19.1036 14.9991 19.9015 14.2298C20.2194 13.9234 20.7805 13.9234 21.0984 14.2299Z" fill="#212121"/>
</svg>
