<svg width="16" height="16" viewBox="0 0 16 16" fill="none" xmlns="http://www.w3.org/2000/svg">
<path d="M12.3088 13.0159L14.1464 14.8536C14.3417 15.0488 14.6583 15.0488 14.8536 14.8536C15.0488 14.6583 15.0488 14.3417 14.8536 14.1464L1.85355 1.14645C1.65829 0.951184 1.34171 0.951184 1.14645 1.14645C0.951184 1.34171 0.951184 1.65829 1.14645 1.85355L2.4142 3.12131C2.15244 3.51652 2 3.99046 2 4.5V9.5C2 10.8807 3.11929 12 4.5 12H9.5C10.0095 12 10.4835 11.8476 10.8787 11.5858L11.5961 12.3032C11.0118 12.7408 10.2861 13 9.49994 13H4.99976C5.45586 13.6072 6.18203 14 6.99994 14H9.49994C10.5625 14 11.539 13.6318 12.3088 13.0159ZM10.1467 10.8538C9.9509 10.9475 9.73158 11 9.5 11H4.5C4.26844 11 4.04914 10.9475 3.85333 10.8538L6.49799 8.20917C6.77434 7.93283 7.22182 7.93191 7.49931 8.20642L7.50208 8.20918L10.1467 10.8538ZM6.40175 7.10886C6.17895 7.19189 5.97 7.32296 5.79089 7.50207L3.14621 10.1467C3.05248 9.95092 3 9.73159 3 9.5V4.5C3 4.26843 3.05248 4.04911 3.14619 3.85329L6.40175 7.10886ZM11 4.5V8.87866L11.9752 9.85382C11.9915 9.73823 12 9.62011 12 9.5V4.5C12 3.11929 10.8807 2 9.5 2H4.5C4.37989 2 4.26177 2.00847 4.14618 2.02484L5.12134 3H9.5C10.3284 3 11 3.67157 11 4.5ZM12.7974 10.6761L13.5614 11.4401C13.8425 10.8526 13.9999 10.1947 13.9999 9.5V6C13.9999 5.18209 13.6072 4.45592 12.9999 3.99982V9.5C12.9999 9.9126 12.9285 10.3085 12.7974 10.6761ZM10 5C10 5.55228 9.55229 6 9 6C8.44772 6 8 5.55228 8 5C8 4.44772 8.44772 4 9 4C9.55229 4 10 4.44772 10 5Z" fill="#212121"/>
</svg>
