<svg width="16" height="16" viewBox="0 0 16 16" fill="none" xmlns="http://www.w3.org/2000/svg">
<path d="M12.3088 13.0159L14.1464 14.8536C14.3417 15.0489 14.6583 15.0489 14.8536 14.8536C15.0488 14.6584 15.0488 14.3418 14.8536 14.1465L1.85355 1.14651C1.65829 0.951246 1.34171 0.951246 1.14645 1.14651C0.951184 1.34177 0.951184 1.65835 1.14645 1.85361L2.41417 3.12134C2.15243 3.51654 2 3.99046 2 4.49999V9.49999C2 10.0094 2.15237 10.4833 2.41402 10.8784L5.79079 7.50194C5.96989 7.32285 6.17883 7.1918 6.40161 7.10878L7.50028 8.20745C7.22288 7.93184 6.77459 7.93238 6.49787 8.20908L3.12104 11.5856C3.51631 11.8475 3.99034 12 4.5 12H9.5C10.0095 12 10.4834 11.8476 10.8787 11.5858L11.596 12.3032C11.0117 12.7408 10.2861 13 9.49994 13H4.99976C5.45586 13.6072 6.18203 14 6.99994 14H9.49994C10.5624 14 11.5389 13.6318 12.3088 13.0159ZM11.9752 9.8538L4.14618 2.02483C4.26177 2.00845 4.37989 1.99999 4.5 1.99999H9.5C10.8807 1.99999 12 3.11927 12 4.49999V9.49999C12 9.62009 11.9915 9.73822 11.9752 9.8538ZM9 5.99999C9.55229 5.99999 10 5.55227 10 4.99999C10 4.4477 9.55229 3.99999 9 3.99999C8.44772 3.99999 8 4.4477 8 4.99999C8 5.55227 8.44772 5.99999 9 5.99999ZM12.7974 10.6761L13.5614 11.4401C13.8425 10.8526 13.9999 10.1947 13.9999 9.49999V5.99999C13.9999 5.18208 13.6072 4.45591 12.9999 3.9998V9.49999C12.9999 9.91259 12.9285 10.3085 12.7974 10.6761Z" fill="#212121"/>
</svg>
