<svg width="20" height="20" viewBox="0 0 20 20" fill="none" xmlns="http://www.w3.org/2000/svg">
<path d="M2.99707 5.5C2.99707 4.11929 4.11636 3 5.49707 3H14.4971C15.8778 3 16.9971 4.11929 16.9971 5.5V14.5C16.9971 15.8807 15.8778 17 14.4971 17H10.7428C10.9965 16.6929 11.2174 16.3578 11.4003 16H14.4971C15.3255 16 15.9971 15.3284 15.9971 14.5V7H9.49707C8.66864 7 7.99707 6.32843 7.99707 5.5V4H5.49707C4.66864 4 3.99707 4.67157 3.99707 5.5V8.60121C3.63925 8.78439 3.30414 9.00563 2.99707 9.25958V5.5ZM15.9971 6V5.5C15.9971 4.67157 15.3255 4 14.4971 4H8.99707V5.5C8.99707 5.77614 9.22093 6 9.49707 6H15.9971ZM9.5 8.5C9.77614 8.5 10 8.72386 10 9V11C10 11.2761 9.77614 11.5 9.5 11.5H7.5C7.22386 11.5 7 11.2761 7 11C7 10.7239 7.22386 10.5 7.5 10.5H8.30396C7.77725 10.1825 7.16037 10 6.5 10C4.567 10 3 11.567 3 13.5C3 15.433 4.567 17 6.5 17C8.433 17 10 15.433 10 13.5C10 13.2239 10.2239 13 10.5 13C10.7761 13 11 13.2239 11 13.5C11 15.9853 8.98528 18 6.5 18C4.01472 18 2 15.9853 2 13.5C2 11.0147 4.01472 9 6.5 9C7.42455 9 8.2849 9.27929 9 9.75784V9C9 8.72386 9.22386 8.5 9.5 8.5Z" fill="#212121"/>
</svg>
