<svg width="24" height="24" viewBox="0 0 24 24" fill="none" xmlns="http://www.w3.org/2000/svg">
<path d="M8.55031 1.44254C8.27033 1.15936 7.88867 1 7.49045 1C6.6673 1 6 1.6673 6 2.49044V5.5H4.62403C4.41104 5.5 4.2081 5.59055 4.06585 5.74906C3.92359 5.90758 3.85544 6.11909 3.8784 6.33084L5.35953 19.9925C5.48335 21.1346 6.44765 22 7.59642 22H16.4037C17.5527 22 18.5171 21.1343 18.6407 19.9919L20.1181 6.33064C20.141 6.11893 20.0728 5.90746 19.9306 5.74899C19.7883 5.59052 19.5854 5.5 19.3725 5.5H18V2.75C18 1.7835 17.2165 1 16.25 1H12.75C11.7835 1 11 1.7835 11 2.75V3.92018L8.55031 1.44254ZM16.5 2.75V5.5H12.5V2.75C12.5 2.61193 12.6119 2.5 12.75 2.5H16.25C16.3881 2.5 16.5 2.61193 16.5 2.75ZM10.4526 5.5H7.5V2.5137L10.4526 5.5ZM11.7926 10.4094L11.1238 11.4092C10.8935 11.7535 10.4277 11.8459 10.0834 11.6155C9.73912 11.3852 9.64674 10.9194 9.87706 10.5751L10.5459 9.57537C11.2389 8.53945 12.7619 8.53945 13.455 9.57537L14.1238 10.5751C14.3541 10.9194 14.2617 11.3852 13.9175 11.6155C13.5732 11.8459 13.1074 11.7535 12.8771 11.4092L12.2082 10.4094C12.1092 10.2614 11.8916 10.2614 11.7926 10.4094ZM9.89355 13.628L9.52942 14.2349C9.32946 14.5682 9.56952 14.9922 9.95817 14.9922H10.7504C11.1646 14.9922 11.5004 15.328 11.5004 15.7422C11.5004 16.1564 11.1646 16.4922 10.7504 16.4922H9.95817C8.40358 16.4922 7.44335 14.7962 8.24318 13.4632L8.60731 12.8563C8.82042 12.5011 9.28112 12.3859 9.6363 12.5991C9.99149 12.8122 10.1067 13.2729 9.89355 13.628ZM14.3673 12.5988C14.7227 12.3859 15.1833 12.5014 15.3962 12.8567L15.7602 13.4644C16.5588 14.7974 15.5984 16.4922 14.0445 16.4922H13.2504C12.8362 16.4922 12.5004 16.1564 12.5004 15.7422C12.5004 15.328 12.8362 14.9922 13.2504 14.9922H14.0445C14.433 14.9922 14.673 14.5685 14.4734 14.2352L14.1094 13.6276C13.8965 13.2723 14.012 12.8117 14.3673 12.5988Z" fill="#212121"/>
</svg>
