<svg width="20" height="20" viewBox="0 0 20 20" fill="none" xmlns="http://www.w3.org/2000/svg">
<path d="M6 2.20711V4H8.29289L6.35355 2.06066C6.31471 2.02182 6.26203 2 6.20711 2C6.09272 2 6 2.09272 6 2.20711ZM5 4V2.20711C5 1.54044 5.54044 1 6.20711 1C6.52725 1 6.83428 1.12718 7.06066 1.35355L9 3.29289V2.5C9 1.67157 9.67157 1 10.5 1H13.5C14.3284 1 15 1.67157 15 2.5V4H15.999C16.1416 4 16.2774 4.06088 16.3723 4.16732C16.4672 4.27376 16.5121 4.41565 16.4957 4.55729L15.1494 16.2292C15.033 17.2384 14.1785 18 13.1626 18H6.83636C5.82052 18 4.96603 17.2385 4.84955 16.2293L3.50232 4.55733C3.48597 4.41568 3.53088 4.27379 3.62575 4.16733C3.72062 4.06088 3.85643 4 3.99903 4H5ZM14 4V2.5C14 2.22386 13.7761 2 13.5 2H10.5C10.2239 2 10 2.22386 10 2.5V4H14ZM11.299 7.75C10.7216 6.75 9.27823 6.75 8.70088 7.75L8.24929 8.53218C8.10532 8.78152 8.20117 9.10063 8.45869 9.22939C8.69527 9.34768 8.98306 9.26125 9.11531 9.03218L9.5669 8.25C9.75935 7.91667 10.2405 7.91667 10.4329 8.25L10.8845 9.03218C11.0168 9.26125 11.3046 9.34768 11.5411 9.22939C11.7987 9.10063 11.8945 8.78152 11.7505 8.53218L11.299 7.75ZM12.165 11.25C12.3574 11.5833 12.1169 12 11.732 12H10.9999C10.7238 12 10.4999 12.2239 10.4999 12.5C10.4999 12.7761 10.7238 13 10.9999 13H11.732C12.8867 13 13.6084 11.75 13.031 10.75L12.9235 10.5637C12.7912 10.3347 12.5034 10.2482 12.2668 10.3665C12.0093 10.4953 11.9135 10.8144 12.0574 11.0637L12.165 11.25ZM8.99991 12H8.26786C7.88296 12 7.6424 11.5833 7.83485 11.25L7.94238 11.0637C8.08635 10.8144 7.9905 10.4953 7.73298 10.3665C7.4964 10.2482 7.20861 10.3347 7.07636 10.5637L6.96882 10.75C6.39147 11.75 7.11316 13 8.26786 13H8.99991C9.27606 13 9.49991 12.7761 9.49991 12.5C9.49991 12.2239 9.27606 12 8.99991 12Z" fill="#212121"/>
</svg>
