<svg width="24" height="24" viewBox="0 0 24 24" fill="none" xmlns="http://www.w3.org/2000/svg">
<path d="M14.2978 2.98511L21.0154 9.70262C22.2846 10.9718 22.2846 13.0296 21.0154 14.2988L14.2978 21.0163C13.0286 22.2855 10.9708 22.2855 9.70164 21.0163L2.98413 14.2988C1.71493 13.0296 1.71493 10.9718 2.98413 9.70262L9.70164 2.98511C10.9708 1.7159 13.0286 1.7159 14.2978 2.98511ZM13.5907 7.22105L13.5066 7.14843C13.2456 6.95478 12.8874 6.95239 12.624 7.14126L12.5301 7.22105L12.4575 7.30517C12.2638 7.56615 12.2614 7.92437 12.4503 8.18776L12.5301 8.28171L13.2487 9.00038L11.7497 9.00072L11.5822 9.00574C10.1991 9.08885 9.09156 10.1943 9.00517 11.5765L8.99974 11.7507V15.0007L9.00659 15.1025C9.05625 15.4686 9.37005 15.7507 9.74974 15.7507C10.1294 15.7507 10.4432 15.4686 10.4929 15.1025L10.4997 15.0007V11.7507L10.5062 11.6229C10.5659 11.0346 11.0336 10.5669 11.6219 10.5072L11.7497 10.5007L13.2497 10.5004L12.5301 11.221L12.4575 11.3052C12.2396 11.5988 12.2638 12.0154 12.5301 12.2817C12.7963 12.548 13.213 12.5722 13.5066 12.3543L13.5907 12.2817L15.5907 10.2817L15.6633 10.1976C15.857 9.9366 15.8594 9.57839 15.6705 9.315L15.5907 9.22105L13.5907 7.22105L13.5066 7.14843L13.5907 7.22105Z" fill="#212121"/>
</svg>
