<svg width="20" height="20" viewBox="0 0 20 20" fill="none" xmlns="http://www.w3.org/2000/svg">
<path d="M14 3H6C4.343 3 3 4.343 3 6V14C3 15.657 4.343 17 6 17H14C15.657 17 17 15.657 17 14V6C17 4.343 15.657 3 14 3ZM4 14V6C4 4.895 4.895 4 6 4H8V8.227C8 8.391 8.08 8.544 8.214 8.637C8.348 8.731 8.522 8.751 8.673 8.696L12 7.467V12.528L8.676 11.281C8.521 11.223 8.35 11.245 8.215 11.338C8.08 11.432 8 11.585 8 11.749V15.999H6C4.895 15.999 4 15.104 4 13.999V14ZM16 14C16 15.105 15.105 16 14 16H9V12.472L12.324 13.719C12.479 13.777 12.649 13.755 12.785 13.662C12.92 13.568 13 13.415 13 13.251V6.751C13 6.587 12.92 6.434 12.786 6.341C12.651 6.246 12.476 6.225 12.327 6.282L9 7.511V4.002H14C15.105 4.002 16 4.897 16 6.002V14.002V14Z" fill="#212121"/>
</svg>
