<svg width="24" height="24" viewBox="0 0 24 24" fill="none" xmlns="http://www.w3.org/2000/svg">
<path d="M6.25 3C4.45507 3 3 4.45507 3 6.25V17.75C3 19.5449 4.45507 21 6.25 21H11.0443C11.1356 20.5185 11.3675 20.0584 11.7402 19.6857L11.9259 19.5H6.25C5.2835 19.5 4.5 18.7165 4.5 17.75V8.5H19.5V11.0322C19.6717 11.0516 19.8426 11.0798 20.0118 11.1167C20.4824 11.2194 20.8258 11.5286 21 11.9084V6.25C21 4.45507 19.5449 3 17.75 3H6.25ZM20.1305 12.5103C20.1309 12.3199 20.0145 12.1408 19.7988 12.0938C19.6998 12.0722 19.6001 12.0543 19.5 12.0402C18.276 11.8672 16.9883 12.2515 16.0469 13.1928C14.8381 14.4015 14.548 16.1809 15.1764 17.6635L12.4474 20.3928C12.271 20.5692 12.1467 20.778 12.0747 21C11.903 21.5288 12.0273 22.1326 12.4474 22.5527C13.0438 23.1491 14.0109 23.1491 14.6074 22.5527L17.3367 19.8231C18.8194 20.451 20.5985 20.1608 21.807 18.9523C22.8255 17.934 23.1918 16.5106 22.9061 15.2009C22.8292 14.8481 22.3989 14.7608 22.1436 15.0161L20.2393 16.9202C20.2114 16.9481 20.1827 16.9747 20.1532 17C19.96 17.1659 19.7351 17.2756 19.5 17.3291C19.0051 17.4418 18.4649 17.3056 18.0795 16.9202C17.483 16.3237 17.483 15.3566 18.0795 14.7602L19.9836 12.8563C20.0828 12.7571 20.1303 12.6314 20.1305 12.5103ZM17.7203 21C17.6814 20.9905 17.6426 20.9805 17.6038 20.9701L17.574 21H17.7203Z" fill="#212121"/>
</svg>
