<svg width="16" height="16" viewBox="0 0 16 16" fill="none" xmlns="http://www.w3.org/2000/svg">
<path d="M14.4004 13L14.1611 14.1963C14.0676 14.6635 13.6571 14.9998 13.1807 15H12.8193C12.3429 14.9998 11.9324 14.6635 11.8389 14.1963L11.5996 13H14.4004ZM6 2C6.8178 2 7.54389 2.39291 8 3C8.45611 2.39291 9.1822 2 10 2H13.5C14.3284 2 15 2.67157 15 3.5V5.53613C14.6904 5.35697 14.3549 5.21733 14 5.12598V3.5C14 3.22386 13.7761 3 13.5 3H10C9.17157 3 8.5 3.67157 8.5 4.5V11.5C8.5 12.3284 9.17157 13 10 13H10.5801L10.7803 14H10C9.1822 14 8.45611 13.6071 8 13C7.54389 13.6071 6.8178 14 6 14H2.5C1.67157 14 1 13.3284 1 12.5V3.5C1 2.67157 1.67157 2 2.5 2H6ZM2.5 3C2.22386 3 2 3.22386 2 3.5V12.5C2 12.7761 2.22386 13 2.5 13H6C6.82843 13 7.5 12.3284 7.5 11.5V4.5C7.5 3.67157 6.82843 3 6 3H2.5ZM13 6C14.6569 6 16 7.34315 16 9C16 10.0229 15.4877 10.9263 14.7061 11.4678L14.5996 12H11.4004L11.2939 11.4678C10.5123 10.9263 10 10.0229 10 9C10 7.34315 11.3431 6 13 6Z" fill="#212121"/>
</svg>
