<svg width="16" height="16" viewBox="0 0 16 16" fill="none" xmlns="http://www.w3.org/2000/svg">
<path d="M14.4004 13L14.1611 14.1963C14.0676 14.6635 13.6571 14.9998 13.1807 15H12.8193C12.3429 14.9998 11.9324 14.6635 11.8389 14.1963L11.5996 13H14.4004ZM6 2C6.78795 2 7.49862 2.33129 8 2.8623C8.50138 2.33129 9.21204 2 10 2H13.25C14.2165 2 15 2.7835 15 3.75V5.53613C14.5483 5.27476 14.0411 5.09873 13.5 5.03125V3.75C13.5 3.61193 13.3881 3.5 13.25 3.5H10C9.30964 3.5 8.75 4.05964 8.75 4.75V11.25C8.75 11.9404 9.30964 12.5 10 12.5H10.4795L10.7803 14H10C9.21204 14 8.50138 13.6687 8 13.1377C7.49862 13.6687 6.78796 14 6 14H2.75C1.7835 14 1 13.2165 1 12.25V3.75C1 2.7835 1.7835 2 2.75 2H6ZM2.75 3.5C2.61193 3.5 2.5 3.61193 2.5 3.75V12.25C2.5 12.3881 2.61193 12.5 2.75 12.5H6C6.69036 12.5 7.25 11.9404 7.25 11.25V4.75C7.25 4.05964 6.69036 3.5 6 3.5H2.75ZM13 6C14.6569 6 16 7.34315 16 9C16 10.0229 15.4877 10.9263 14.7061 11.4678L14.5996 12H11.4004L11.2939 11.4678C10.5123 10.9263 10 10.0229 10 9C10 7.34315 11.3431 6 13 6Z" fill="#212121"/>
</svg>
