<svg width="48" height="48" viewBox="0 0 48 48" fill="none" xmlns="http://www.w3.org/2000/svg">
<path d="M40.4023 41.9902C40.1686 43.1588 39.1419 44 37.9502 44H36.0498C34.8581 44 33.8314 43.1588 33.5977 41.9902L33.1992 40H40.7998L40.4023 41.9902ZM20 8C21.6023 8 23.037 8.71798 24 9.84961C24.963 8.71798 26.3977 8 28 8H41.25C42.7688 8 44 9.23122 44 10.75V22.8604C43.2676 22.1422 42.4248 21.5373 41.5 21.0703V10.75C41.5 10.6119 41.3881 10.5 41.25 10.5H28C26.4812 10.5 25.25 11.7312 25.25 13.25V34.75C25.25 36.2688 26.4812 37.5 28 37.5H30.3906C30.4975 37.5942 30.605 37.6877 30.7158 37.7773L31.1602 40H28C26.3977 40 24.963 39.282 24 38.1504C23.037 39.282 21.6023 40 20 40H6.75C5.23122 40 4 38.7688 4 37.25V10.75C4 9.23122 5.23122 8 6.75 8H20ZM37 22C41.4183 22 45 25.5817 45 30C45 32.7613 43.6005 35.1951 41.4727 36.6328L41.1992 38H32.7998L32.5264 36.6328C30.3989 35.1951 29 32.761 29 30C29 25.5817 32.5817 22 37 22ZM6.75 10.5C6.61193 10.5 6.5 10.6119 6.5 10.75V37.25C6.5 37.3881 6.61193 37.5 6.75 37.5H20C21.5188 37.5 22.75 36.2688 22.75 34.75V13.25C22.75 11.7312 21.5188 10.5 20 10.5H6.75Z" fill="#212121"/>
</svg>
