<svg width="20" height="20" viewBox="0 0 20 20" fill="none" xmlns="http://www.w3.org/2000/svg">
<path d="M13.2452 2.81742C14.332 1.73062 16.0941 1.73062 17.1809 2.81742C18.2224 3.85895 18.2658 5.52063 17.3111 6.61383L17.1809 6.7531L14.9183 9.0157C14.7802 9.00532 14.6407 9.00003 14.5 9.00003C14.1274 9.00003 13.7635 9.03708 13.4117 9.10769L14.906 7.61332L12.385 5.09232L4.34649 13.1304C4.2542 13.2226 4.18117 13.3318 4.13111 13.4514L4.08884 13.5743L3.2122 16.785L6.42397 15.9095C6.50791 15.8866 6.58815 15.8529 6.66278 15.8096L6.77028 15.7375L6.86796 15.6518L9.10759 13.4121C9.03702 13.7637 9 14.1276 9 14.5C9 14.6408 9.00529 14.7802 9.01567 14.9183L7.57506 16.3589C7.36997 16.564 7.12323 16.7215 6.85236 16.8214L6.68708 16.8742L2.63211 17.9801C2.28552 18.0747 1.96546 17.7861 2.00301 17.4456L2.01817 17.3662L3.12407 13.3112C3.20039 13.0314 3.33646 12.7722 3.52212 12.5512L3.63939 12.4232L13.2452 2.81742ZM16.4738 3.52453C15.8162 2.86693 14.7727 2.8304 14.0722 3.41493L13.9523 3.52453L13.092 4.38532L15.613 6.90632L16.4738 6.04599C17.1314 5.38839 17.1679 4.34491 16.5834 3.64444L16.4738 3.52453ZM12.0652 11.4421C12.3685 12.5233 11.7225 13.6422 10.6346 13.9201L10.1735 14.0379C10.1586 14.1898 10.1509 14.344 10.1509 14.5C10.1509 14.6877 10.162 14.8726 10.1835 15.0543L10.5331 15.1369C11.6525 15.4016 12.3185 16.5537 11.9892 17.6559L11.8628 18.0787C12.12 18.2819 12.3998 18.4561 12.6975 18.5966L13.0225 18.2524C13.8123 17.4162 15.1431 17.4169 15.932 18.254L16.2694 18.6119C16.5618 18.477 16.8372 18.3097 17.0912 18.1143L16.9351 17.5577C16.6318 16.4765 17.2778 15.3576 18.3657 15.0797L18.8263 14.9621C18.8412 14.8101 18.8489 14.656 18.8489 14.5C18.8489 14.3122 18.8378 14.1271 18.8162 13.9454L18.4672 13.8629C17.3478 13.5982 16.6818 12.4461 17.0111 11.3439L17.1373 10.9216C16.8801 10.7183 16.6003 10.5441 16.3025 10.4036L15.9778 10.7473C15.188 11.5836 13.8572 11.5829 13.0683 10.7458L12.7309 10.3878C12.4385 10.5227 12.1631 10.69 11.909 10.8853L12.0652 11.4421ZM14.4999 15.5C13.9476 15.5 13.4999 15.0523 13.4999 14.5C13.4999 13.9477 13.9476 13.5 14.4999 13.5C15.0522 13.5 15.4999 13.9477 15.4999 14.5C15.4999 15.0523 15.0522 15.5 14.4999 15.5Z" fill="#212121"/>
</svg>
