<svg width="24" height="24" viewBox="0 0 24 24" fill="none" xmlns="http://www.w3.org/2000/svg">
<path d="M13.9391 4.99988L19.0001 10.0609L18.3869 10.675C17.5171 10.2431 16.5369 10.0003 15.5 10.0003C11.9101 10.0003 8.99997 12.9105 8.99997 16.5003C8.99997 17.5371 9.24273 18.5172 9.6745 19.3869L9.06198 19.999C8.7851 20.2758 8.44076 20.4757 8.063 20.5787L2.94731 21.9739C2.38744 22.1266 1.87371 21.6128 2.0264 21.053L3.42159 15.9373C3.52462 15.5595 3.72444 15.2152 4.00132 14.9383L13.9391 4.99988ZM15.5 11.0003C15.793 11.0003 16.0806 11.0248 16.3608 11.0721L16.5341 11.7881C16.7931 12.8619 17.8735 13.5224 18.9473 13.2634L19.045 13.2372L19.6461 13.0583C20.0087 13.5253 20.2991 14.0549 20.4998 14.6288L20.0526 15.0591C19.2985 15.7847 19.2369 16.9592 19.8837 17.7576L20.0251 17.9145L20.4998 18.3718C20.2992 18.9453 20.0091 19.4745 19.6469 19.9413L19.045 19.7634C17.9857 19.4504 16.8733 20.0554 16.5603 21.1147L16.5341 21.2125L16.3608 21.9286C16.0806 21.9758 15.793 22.0003 15.5 22.0003C15.2066 22.0003 14.9187 21.9757 14.6383 21.9284L14.4659 21.2125C14.2069 20.1387 13.1265 19.4782 12.0527 19.7372L11.9549 19.7634L11.353 19.9413C10.9908 19.4745 10.7007 18.9453 10.5001 18.3718L10.9474 17.9415C11.7433 17.1756 11.7677 15.9095 11.0019 15.1136L10.9474 15.0591L10.5001 14.6288C10.7007 14.0553 10.9908 13.5261 11.353 13.0593L11.9549 13.2372C13.0142 13.5502 14.1267 12.9452 14.4396 11.8859L14.4659 11.7881L14.6383 11.0722C14.9187 11.0249 15.2066 11.0003 15.5 11.0003ZM15.5 15.0003C14.6993 15.0003 14.0503 15.6719 14.0503 16.5003C14.0503 17.3287 14.6993 18.0003 15.5 18.0003C16.3006 18.0003 16.9496 17.3287 16.9496 16.5003C16.9496 15.6719 16.3006 15.0003 15.5 15.0003ZM21.0303 2.96997C22.4278 4.36743 22.4278 6.63317 21.0303 8.03063L20.0601 8.99988L14.9991 3.93988L15.9696 2.96997C17.3671 1.57251 19.6328 1.57251 21.0303 2.96997Z" fill="#212121"/>
</svg>
