<svg width="20" height="20" viewBox="0 0 20 20" fill="none" xmlns="http://www.w3.org/2000/svg">
<path d="M16.2454 5C14.7793 3.17107 12.5264 2 10 2C7.47362 2 5.22075 3.17107 3.75463 5H5.10102C6.36355 3.76281 8.0927 3 10 3C11.9073 3 13.6364 3.76281 14.899 5H16.2454ZM17.9381 11H16.9291C16.4439 14.3923 13.5265 17 10 17C6.13401 17 3 13.866 3 10H2C2 14.4183 5.58172 18 10 18C14.0796 18 17.446 14.9463 17.9381 11ZM3 6H18V8H17V10H16V11H12V10H11V8H10V10H9V11H5V10H4V8H2V7H3V6ZM1 9V8H2V9H1ZM1 9V11H0V9H1ZM5 8V9H6V8H5ZM6 9V10H7V9H6ZM12 8V9H13V8H12ZM13 9V10H14V9H13ZM6.88868 12.5141C6.71498 12.2994 6.40014 12.2662 6.18548 12.4399C5.97081 12.6136 5.93761 12.9285 6.11132 13.1431C7.02715 14.2749 8.42909 14.9999 10 14.9999C11.5709 14.9999 12.9729 14.2749 13.8887 13.1431C14.0624 12.9285 14.0292 12.6136 13.8145 12.4399C13.5999 12.2662 13.285 12.2994 13.1113 12.5141C12.3772 13.4213 11.2564 13.9999 10 13.9999C8.74365 13.9999 7.62281 13.4213 6.88868 12.5141Z" fill="#212121"/>
</svg>
