<svg width="20" height="20" viewBox="0 0 20 20" fill="none" xmlns="http://www.w3.org/2000/svg">
<path d="M10 2C12.5264 2 14.7793 3.17107 16.2454 5H3.75463C5.22075 3.17107 7.47362 2 10 2ZM17 11H17.9381C17.446 14.9463 14.0796 18 10 18C5.58172 18 2 14.4183 2 10H3V11H4V12H10V11H11V12H17V11ZM6.18548 13.4399C5.97081 13.6136 5.93761 13.9285 6.11132 14.1431C7.02715 15.2749 8.42909 15.9999 10 15.9999C11.5709 15.9999 12.9729 15.2749 13.8887 14.1431C14.0624 13.9285 14.0292 13.6136 13.8145 13.4399C13.5999 13.2662 13.285 13.2994 13.1113 13.5141C12.3772 14.4213 11.2564 14.9999 10 14.9999C8.74365 14.9999 7.62281 14.4213 6.88868 13.5141C6.71498 13.2994 6.40014 13.2662 6.18548 13.4399ZM18 6H3V7H2V8H1V9H0V11H1V9H2V8H4V10H5V11H9V10H10V8H11V10H12V11H16V10H17V8H18V6ZM6 8V9H7V10H6V9H5V8H6ZM13 8V9H14V10H13V9H12V8H13Z" fill="#212121"/>
</svg>
