<svg width="24" height="24" viewBox="0 0 24 24" fill="none" xmlns="http://www.w3.org/2000/svg">
<path d="M10.5495 2.53189C11.3874 1.82531 12.6126 1.82531 13.4505 2.5319L20.2005 8.224C20.7074 8.65152 21 9.2809 21 9.94406V12.0218C20.5368 11.7253 20.0335 11.4858 19.5 11.3135V9.94406C19.5 9.72301 19.4025 9.51321 19.2335 9.37071L12.4835 3.6786C12.2042 3.44307 11.7958 3.44307 11.5165 3.6786L4.76651 9.37071C4.59752 9.51321 4.5 9.72301 4.5 9.94406V19.7468C4.5 19.8849 4.61193 19.9968 4.75 19.9968H11.4968C11.722 20.5377 12.0182 21.0415 12.3737 21.4968H4.75C3.7835 21.4968 3 20.7133 3 19.7468V9.94406C3 9.2809 3.29255 8.65152 3.79952 8.224L10.5495 2.53189ZM23 17.5C23 14.4624 20.5376 12 17.5 12C14.4624 12 12 14.4624 12 17.5C12 20.5376 14.4624 23 17.5 23C20.5376 23 23 20.5376 23 17.5ZM18.0006 18L18.0011 20.5035C18.0011 20.7797 17.7773 21.0035 17.5011 21.0035C17.225 21.0035 17.0011 20.7797 17.0011 20.5035L17.0006 18H14.4956C14.2197 18 13.9961 17.7762 13.9961 17.5C13.9961 17.2239 14.2197 17 14.4956 17H17.0005L17 14.4993C17 14.2231 17.2239 13.9993 17.5 13.9993C17.7761 13.9993 18 14.2231 18 14.4993L18.0005 17H20.4966C20.7725 17 20.9961 17.2239 20.9961 17.5C20.9961 17.7762 20.7725 18 20.4966 18H18.0006Z" fill="#212121"/>
</svg>
