<svg width="16" height="16" viewBox="0 0 16 16" fill="none" xmlns="http://www.w3.org/2000/svg">
<path d="M4.5 2C3.11929 2 2 3.11929 2 4.5V11.5C2 12.8807 3.11929 14 4.5 14H11.5C12.8807 14 14 12.8807 14 11.5V4.5C14 3.11929 12.8807 2 11.5 2H4.5ZM6 8C6 6.89543 6.89543 6 8 6C9.10457 6 10 6.89543 10 8C10 9.10457 9.10457 10 8 10C6.89543 10 6 9.10457 6 8ZM5.04148 7.5C5.25224 6.24375 6.24375 5.25224 7.5 5.04148V4.5C7.5 4.22386 7.72386 4 8 4C8.27614 4 8.5 4.22386 8.5 4.5V5.04148C9.75625 5.25224 10.7478 6.24375 10.9585 7.5H11.5C11.7761 7.5 12 7.72386 12 8C12 8.27614 11.7761 8.5 11.5 8.5H10.9585C10.7478 9.75625 9.75625 10.7478 8.5 10.9585V11.5C8.5 11.7761 8.27614 12 8 12C7.72386 12 7.5 11.7761 7.5 11.5V10.9585C6.24375 10.7478 5.25224 9.75625 5.04148 8.5H4.5C4.22386 8.5 4 8.27614 4 8C4 7.72386 4.22386 7.5 4.5 7.5H5.04148ZM9 8C9 7.44772 8.55228 7 8 7C7.44772 7 7 7.44772 7 8C7 8.55228 7.44772 9 8 9C8.55228 9 9 8.55228 9 8Z" fill="#212121"/>
</svg>
