<svg width="48" height="48" viewBox="0 0 48 48" fill="none" xmlns="http://www.w3.org/2000/svg">
<path d="M20 8C21.576 8 22.9972 8.66289 24 9.72506C25.0028 8.66289 26.424 8 28 8H41C42.6569 8 44 9.34315 44 11V29C44 26.6213 42.8135 24.5196 41 23.2547V11H28C26.6193 11 25.5 12.1193 25.5 13.5V34.5C25.5 35.0927 25.7063 35.6373 26.051 36.0658C26.1837 37.447 26.5718 38.7534 27.1675 39.9374C25.9271 39.7491 24.8227 39.1464 24 38.2749C22.9972 39.3371 21.576 40 20 40H7C5.34315 40 4 38.6569 4 37V11C4 9.34315 5.34315 8 7 8H20ZM22.5 34.5V13.5C22.5 12.1193 21.3807 11 20 11H7V37H20C21.3807 37 22.5 35.8807 22.5 34.5ZM32.416 37C32.1484 36.3875 32 35.7111 32 35V29C32 26.2386 34.2386 24 37 24C38.6356 24 40.0878 24.7853 41 25.9995C41.6279 26.8353 42 27.8742 42 29V35C42 37.7614 39.7614 40 37 40C34.9497 40 33.1876 38.7659 32.416 37ZM28.223 37C28.0771 36.3568 28 35.6874 28 35C28 34.4477 28.4477 34 29 34C29.5523 34 30 34.4477 30 35C30 35.695 30.1013 36.3663 30.2899 37C30.5772 37.9655 31.0673 38.8437 31.7107 39.5852C31.8352 39.7287 31.9654 39.8671 32.101 40C33.3636 41.2372 35.0927 42 37 42C39.0129 42 40.8274 41.1504 42.1043 39.7902C42.1673 39.7231 42.229 39.6548 42.2893 39.5852C43.355 38.357 44 36.7538 44 35C44 34.4477 44.4477 34 45 34C45.5523 34 46 34.4477 46 35C46 39.6326 42.5 43.4476 38 43.9451V45C38 45.5523 37.5523 46 37 46C36.4477 46 36 45.5523 36 45V43.9451C33.2972 43.6463 30.9552 42.1507 29.5155 40C28.9139 39.1012 28.4699 38.0881 28.223 37Z" fill="#212121"/>
</svg>
