<svg width="16" height="16" viewBox="0 0 16 16" fill="none" xmlns="http://www.w3.org/2000/svg">
<path d="M2.75 2C1.7835 2 1 2.7835 1 3.75V12.25C1 13.2165 1.7835 14 2.75 14H6.59971C6.43777 13.6832 6.30564 13.3486 6.20703 13H2.75C2.33579 13 2 12.6642 2 12.25V3.75C2 3.33579 2.33579 3 2.75 3H11.25C11.6642 3 12 3.33579 12 3.75V6.02242C12.3434 6.05337 12.6777 6.11588 13 6.20703V3.75C13 2.7835 12.2165 2 11.25 2H2.75ZM6.5 9.20551C6.75187 8.65757 7.09115 8.15813 7.5 7.72506V7.5C7.5 7.22386 7.27614 7 7 7C6.72386 7 6.5 7.22386 6.5 7.5V9.20551ZM9 6.59971C9.31679 6.43777 9.65136 6.30564 10 6.20703V5.5C10 5.22386 9.77614 5 9.5 5C9.22386 5 9 5.22386 9 5.5V6.59971ZM5 6.5C5 6.22386 4.77614 6 4.5 6C4.22386 6 4 6.22386 4 6.5V10.5C4 10.7761 4.22386 11 4.5 11C4.77614 11 5 10.7761 5 10.5V6.5ZM9.06525 8.44209C9.36854 9.52325 8.72254 10.6421 7.63459 10.9201L7.17353 11.0378C7.15855 11.1898 7.15088 11.344 7.15088 11.5C7.15088 11.6876 7.16198 11.8726 7.18354 12.0542L7.53311 12.1369C8.65254 12.4016 9.31853 13.5537 8.98919 14.6558L8.86285 15.0786C9.12004 15.2819 9.39978 15.4561 9.69751 15.5965L10.0225 15.2524C10.8123 14.4161 12.1431 14.4168 12.932 15.254L13.2694 15.6119C13.5618 15.477 13.8372 15.3096 14.0912 15.1143L13.9351 14.5577C13.6318 13.4765 14.2778 12.3576 15.3657 12.0797L15.8263 11.962C15.8412 11.8101 15.8489 11.656 15.8489 11.5C15.8489 11.3122 15.8378 11.1271 15.8162 10.9454L15.4672 10.8629C14.3478 10.5982 13.6818 9.44605 14.0111 8.3439L14.1373 7.92161C13.8801 7.71832 13.6003 7.54405 13.3025 7.40353L12.9778 7.74732C12.188 8.58361 10.8573 8.58291 10.0683 7.74579L9.73094 7.38782C9.43852 7.5227 9.16313 7.69 8.90905 7.8853L9.06525 8.44209ZM11.4999 12.5C10.9476 12.5 10.4999 12.0523 10.4999 11.5C10.4999 10.9477 10.9476 10.5 11.4999 10.5C12.0522 10.5 12.4999 10.9477 12.4999 11.5C12.4999 12.0523 12.0522 12.5 11.4999 12.5Z" fill="#212121"/>
</svg>
