<svg width="28" height="28" viewBox="0 0 28 28" fill="none" xmlns="http://www.w3.org/2000/svg">
<path d="M24.25 25C24.6642 25 25 24.6642 25 24.25C25 23.8358 24.6642 23.5 24.25 23.5L3.75 23.5C3.33579 23.5 3 23.8358 3 24.25C3 24.6642 3.33579 25 3.75 25H24.25ZM6.75 3C4.67893 3 3 4.67893 3 6.75L3 17.5C3 18.0523 3.44772 18.5 4 18.5L24 18.5C24.5523 18.5 25 18.0523 25 17.5V6.75C25 4.67893 23.3211 3 21.25 3L6.75 3ZM18.5 17L18.5 11H23.5V17H18.5ZM17 11L17 17H11L11 11H17ZM18.5 9.5V4.5L21.25 4.5C22.4926 4.5 23.5 5.50736 23.5 6.75V9.5H18.5ZM17 4.5V9.5L11 9.5V4.5L17 4.5ZM6.75 4.5L9.5 4.5V9.5L4.5 9.5L4.5 6.75C4.5 5.50736 5.50736 4.5 6.75 4.5ZM4.5 11H9.5L9.5 17H4.5L4.5 11Z" fill="#212121"/>
</svg>
