<svg width="20" height="20" viewBox="0 0 20 20" fill="none" xmlns="http://www.w3.org/2000/svg">
<path d="M17 14.5C17 15.8807 15.8807 17 14.5 17H5.5C4.11929 17 3 15.8807 3 14.5L3 5.5C3 4.11929 4.11929 3 5.5 3L14.5 3C15.8807 3 17 4.11929 17 5.5V14.5ZM6.70588 14L13.2941 14C13.684 14 14 13.6642 14 13.25C14 12.8358 13.684 12.5 13.2941 12.5H6.70588C6.31604 12.5 6 12.8358 6 13.25C6 13.6642 6.31604 14 6.70588 14ZM6.70588 11H13.2941C13.684 11 14 10.6642 14 10.25C14 9.83579 13.684 9.5 13.2941 9.5H6.70588C6.31604 9.5 6 9.83579 6 10.25C6 10.6642 6.31603 11 6.70588 11Z" fill="#212121"/>
</svg>
