<svg width="32" height="32" viewBox="0 0 32 32" fill="none" xmlns="http://www.w3.org/2000/svg">
<path d="M20.1985 19.0004C20.2068 19.0002 20.215 19 20.2234 19H23.7977C26.6708 19 29 16.6572 29 13.75C29 10.8428 26.6708 8.25936 23.7977 8.25936L23.4418 8.27153L23.3579 8.28001C22.281 5.16795 19.356 3 15.9943 3C12.6331 3 9.7081 5.16744 8.63203 8.27712C8.48967 8.26531 8.34634 8.25936 8.20233 8.25936C5.32916 8.25936 3 10.8428 3 13.75C3 16.6572 5.32916 19 8.20233 19H13.7069L13.7061 11.8819C13.7061 10.6106 14.7246 9.57982 15.9811 9.57982C17.1338 9.57982 18.0845 10.4462 18.2353 11.571L18.2412 11.6151L18.256 11.8376L18.255 19H20.1495C20.1657 19.0012 20.1821 19.0008 20.1985 19.0004ZM16.9903 11.8539C16.9241 11.3717 16.5058 11 15.9996 11C15.4474 11 14.9998 11.4423 14.9998 11.988L15.0015 24.746L11.488 21.273L11.3628 21.1679C11.0116 20.9191 10.5341 20.9223 10.1862 21.1774L10.0741 21.273L9.96772 21.3968C9.71595 21.7438 9.71913 22.2157 9.97728 22.5595L10.0741 22.6703L15.3064 27.8408L15.4316 27.9459C15.7827 28.1947 16.2602 28.1916 16.6082 27.9365L16.7203 27.8408L21.9526 22.6703L22.0494 22.5595C22.3398 22.1727 22.3075 21.6238 21.9526 21.273C21.5976 20.9223 21.0422 20.8904 20.6508 21.1774L20.5387 21.273L16.9975 24.7765L16.9994 11.988L16.9903 11.8539Z" fill="#212121"/>
</svg>
