<svg width="32" height="32" viewBox="0 0 32 32" fill="none" xmlns="http://www.w3.org/2000/svg">
<path d="M22.7633 9.12179C22.7413 9.03937 22.7177 8.9576 22.6927 8.8765L22.8738 9.40927L23.0663 9.40205C22.9915 9.41342 22.9171 9.42675 22.8432 9.44202C22.8426 9.44214 22.8421 9.44223 22.8417 9.44229L22.8301 9.40017L22.7702 9.14873L22.7669 9.13521L22.7633 9.12179ZM9.12848 9.38375L9.30611 8.86231C9.27973 8.94725 9.25492 9.03293 9.23173 9.11934L9.22894 9.12975L9.22637 9.14022L9.16595 9.38643L9.15402 9.43505L9.11581 9.4298C9.00878 9.40905 8.90211 9.39233 8.79542 9.37961L9.12848 9.38375ZM4.06491 13.0067C4.08236 12.9074 4.10321 12.8092 4.12736 12.7121C4.10321 12.8094 4.08236 12.9076 4.06491 13.0067ZM21.2499 21.9843C21.2498 21.9842 21.2498 21.9842 21.2498 21.9842L21.2499 21.9843ZM21.2496 21.9841C21.2493 21.9837 21.2488 21.983 21.2483 21.9821L21.2615 21.9709L21.2622 21.9717L21.2496 21.9841Z" fill="#212121" stroke="#212121" stroke-width="2"/>
</svg>
