<svg width="16" height="16" viewBox="0 0 16 16" fill="none" xmlns="http://www.w3.org/2000/svg">
<path d="M5.69948 4.00412C5.21925 4.59106 5 5.35003 5 6C5 6.27614 4.77614 6.5 4.5 6.5C2.68817 6.5 2 7.76416 2 8.5C2 8.92738 2.10804 9.41775 2.43879 9.79575C2.75761 10.1601 3.35374 10.5 4.5 10.5H5C5 10.8415 5.03112 11.1757 5.09069 11.5H4.5C3.14626 11.5 2.24239 11.0899 1.68621 10.4543C1.14196 9.83225 1 9.07262 1 8.5C1 7.3222 1.96544 5.73497 4.02844 5.5236C4.11434 4.79571 4.39818 4.01541 4.92552 3.37088C5.58306 2.56722 6.60015 2 8 2C8.85003 2 9.84106 2.28075 10.6291 2.92552C11.2682 3.44844 11.7578 4.19876 11.9315 5.18814C11.588 5.0958 11.2313 5.0359 10.8647 5.0119C10.6937 4.43747 10.3753 4.00993 9.99588 3.69948C9.40894 3.21925 8.64997 3 8 3C6.89985 3 6.16694 3.43278 5.69948 4.00412ZM15 10.5C15 8.01472 12.9853 6 10.5 6C8.01472 6 6 8.01472 6 10.5C6 12.9853 8.01472 15 10.5 15C12.9853 15 15 12.9853 15 10.5ZM10.854 12.8532L10.8514 12.8557C10.804 12.9026 10.7495 12.938 10.6914 12.9621C10.6333 12.9861 10.5697 12.9996 10.503 13L10.5 13L10.497 13C10.4303 12.9996 10.3667 12.9861 10.3086 12.9621C10.2496 12.9377 10.1944 12.9015 10.1464 12.8536L8.14645 10.8536C7.95118 10.6583 7.95118 10.3417 8.14645 10.1464C8.34171 9.95119 8.65829 9.95119 8.85355 10.1464L10 11.2929V8.5C10 8.22386 10.2239 8 10.5 8C10.7761 8 11 8.22386 11 8.5V11.2929L12.1464 10.1464C12.3417 9.95118 12.6583 9.95118 12.8536 10.1464C13.0488 10.3417 13.0488 10.6583 12.8536 10.8536L10.854 12.8532Z" fill="#212121"/>
</svg>
