<svg width="28" height="28" viewBox="0 0 28 28" fill="none" xmlns="http://www.w3.org/2000/svg">
<path d="M14 4C10.5784 4 7.77426 6.64378 7.51894 10H7.25C4.62665 10 2.5 12.1266 2.5 14.75C2.5 17.3734 4.62665 19.5 7.25 19.5H13C13 15.3579 16.3579 12 20.5 12C22.3784 12 24.0955 12.6905 25.4113 13.8316C24.9835 11.6477 23.0592 10 20.75 10H20.4811C20.2257 6.64378 17.4216 4 14 4ZM27 19.5C27 15.9101 24.0899 13 20.5 13C16.9101 13 14 15.9101 14 19.5C14 23.0899 16.9101 26 20.5 26C24.0899 26 27 23.0899 27 19.5ZM20 15.5C20 15.2239 20.2239 15 20.5 15C20.7761 15 21 15.2239 21 15.5V22.2929L23.1464 20.1464C23.3417 19.9512 23.6583 19.9512 23.8536 20.1464C24.0488 20.3417 24.0488 20.6583 23.8536 20.8536L20.8536 23.8536C20.8056 23.9015 20.7504 23.9377 20.6914 23.9621C20.6333 23.9861 20.5697 23.9996 20.503 24L20.5 24L20.497 24C20.37 23.9992 20.2433 23.9504 20.1464 23.8536L17.1464 20.8536C16.9512 20.6583 16.9512 20.3417 17.1464 20.1464C17.3417 19.9512 17.6583 19.9512 17.8536 20.1464L20 22.2929V15.5Z" fill="#212121"/>
</svg>
