<svg width="32" height="32" viewBox="0 0 32 32" fill="none" xmlns="http://www.w3.org/2000/svg">
<path d="M12.7068 18H8.20233C5.88908 18 4 16.1125 4 13.75C4 11.3285 5.94583 9.25936 8.20233 9.25936C8.31881 9.25936 8.43456 9.26417 8.54938 9.27369L9.32314 9.33787L9.57705 8.60413C10.5178 5.88542 13.0717 4 15.9943 4C18.9171 4 21.4712 5.8857 22.4128 8.60701L22.6715 9.35447L23.4584 9.27494L23.5092 9.26981L23.8137 9.2594C26.0634 9.26918 28 11.3342 28 13.75C28 16.1125 26.1109 18 23.7977 18H20.2234C20.2116 18 20.2004 18.0001 20.1915 18.0003L20.1873 18H20.1495H19.2552L19.256 11.8377L19.256 11.8045L19.2538 11.7713L19.239 11.5488L19.2368 11.5154L19.2324 11.4822L19.2264 11.4381L18.2353 11.571L19.2264 11.4381C19.0113 9.83341 17.6513 8.57982 15.9811 8.57982C14.1612 8.57982 12.7061 10.0695 12.7061 11.8819V11.882L12.7068 18ZM20.225 18.0029L20.2234 18.0027L20.225 18.0029ZM21.2499 21.9843C21.2498 21.9842 21.2498 21.9842 21.2498 21.9842L21.2499 21.9843ZM21.2496 21.9841C21.2493 21.9837 21.2488 21.983 21.2483 21.9821L21.2615 21.9709L21.2622 21.9717L21.2496 21.9841Z" fill="#212121" stroke="#212121" stroke-width="2"/>
</svg>
