<svg width="20" height="20" viewBox="0 0 20 20" fill="none" xmlns="http://www.w3.org/2000/svg">
<path d="M5.93722 5.34234C6.52888 3.67039 8.14028 2.5 9.99649 2.5C11.8528 2.5 13.4644 3.67058 14.0566 5.34407C14.1333 5.56095 14.3481 5.69748 14.5771 5.67485L14.6125 5.67135L14.8066 5.66486C16.2998 5.66913 17.5 6.86679 17.5 8.33243C17.5 9.80069 16.2956 11 14.7986 11H12C11.7239 11 11.5 11.2239 11.5 11.5C11.5 11.7761 11.7239 12 12 12H14.7986C16.8378 12 18.5 10.363 18.5 8.33243C18.5 6.32335 16.8727 4.69951 14.8631 4.66541C14.0404 2.78056 12.1487 1.5 9.99649 1.5C7.84405 1.5 5.95183 2.78093 5.12988 4.66553C3.12347 4.70329 1.5 6.32568 1.5 8.33243C1.5 10.363 3.16221 12 5.20143 12H8C8.27614 12 8.5 11.7761 8.5 11.5C8.5 11.2239 8.27614 11 8 11H5.20143C3.70445 11 2.5 9.80069 2.5 8.33243C2.5 6.86417 3.70445 5.66485 5.20143 5.66485C5.2766 5.66485 5.35131 5.66789 5.42545 5.6739C5.65149 5.69223 5.86156 5.55613 5.93722 5.34234ZM9.64645 17.8536C9.84171 18.0488 10.1583 18.0488 10.3536 17.8536L13.8536 14.3536C14.0488 14.1583 14.0488 13.8417 13.8536 13.6464C13.6583 13.4512 13.3417 13.4512 13.1464 13.6464L10.5 16.2929L10.5 7.5C10.5 7.22386 10.2761 7 10 7C9.72386 7 9.5 7.22386 9.5 7.5L9.5 16.2929L6.85355 13.6464C6.65829 13.4512 6.34171 13.4512 6.14645 13.6464C5.95118 13.8417 5.95118 14.1583 6.14645 14.3536L9.64645 17.8536Z" fill="#212121"/>
</svg>
