<svg width="48" height="48" viewBox="0 0 48 48" fill="none" xmlns="http://www.w3.org/2000/svg">
<path d="M24.0028 7.00952C30.3399 7.00952 33.9348 11.2041 34.4576 16.2698L34.6175 16.2698C38.6957 16.2698 42.0017 19.5672 42.0017 23.6348C42.0017 27.7024 38.6957 30.9999 34.6175 30.9999H27.5001L27.5007 23.3861C27.5007 21.7022 26.2215 20.3193 24.5806 20.1527L24.5301 20.1475L24.3011 20.136H24.2507C22.5667 20.136 21.184 21.4151 21.0174 23.0561L21.0122 23.1066L21.0007 23.3354L21.0001 30.9999H13.3881C9.30991 30.9999 6.00391 27.7024 6.00391 23.6348C6.00391 19.5672 9.30991 16.2698 13.3881 16.2698L13.548 16.2698C14.0739 11.1708 17.6657 7.00952 24.0028 7.00952Z" fill="#212121"/>
<path d="M25.1775 40.6338L30.8343 34.977C31.3225 34.4888 31.3225 33.6974 30.8343 33.2092C30.3462 32.7211 29.5547 32.7211 29.0665 33.2092L25.4997 36.7759L25.5007 23.386C25.5007 22.7388 25.0088 22.2065 24.3785 22.1424L24.2507 22.136C23.6035 22.136 23.0711 22.6279 23.0071 23.2582L23.0007 23.386L22.9997 36.6899L19.5206 33.2092C19.0324 32.7211 18.241 32.7211 17.7528 33.2092C17.2647 33.6974 17.2647 34.4888 17.7528 34.977L23.4097 40.6338C23.8978 41.122 24.6893 41.122 25.1775 40.6338Z" fill="#212121"/>
</svg>
