<svg width="28" height="28" viewBox="0 0 28 28" fill="none" xmlns="http://www.w3.org/2000/svg">
<path d="M5.75 4C3.67893 4 2 5.67893 2 7.75V19.2501C2 21.3211 3.67894 23.0001 5.75 23.0001H13.4229C13.2534 22.5206 13.1313 22.0187 13.0622 21.5001H10.4961L10.4961 5.5H22.2466C23.4893 5.5 24.4966 6.50736 24.4966 7.75V14.1549C25.0496 14.5043 25.5538 14.924 25.9966 15.4015V7.75C25.9966 5.67893 24.3177 4 22.2466 4H5.75ZM3.5 7.75C3.5 6.50736 4.50736 5.5 5.75 5.5H8.99609L8.99609 21.5001H5.75C4.50736 21.5001 3.5 20.4927 3.5 19.2501V7.75ZM26.9961 20.5C26.9961 24.0899 24.0859 27 20.4961 27C16.9062 27 13.9961 24.0899 13.9961 20.5C13.9961 16.9101 16.9062 14 20.4961 14C24.0859 14 26.9961 16.9101 26.9961 20.5ZM20.9961 16.5C20.9961 16.2239 20.7722 16 20.4961 16C20.22 16 19.9961 16.2239 19.9961 16.5V20H16.4961C16.22 20 15.9961 20.2239 15.9961 20.5C15.9961 20.7761 16.22 21 16.4961 21H19.9961V24.5C19.9961 24.7761 20.22 25 20.4961 25C20.7722 25 20.9961 24.7761 20.9961 24.5V21H24.4961C24.7722 21 24.9961 20.7761 24.9961 20.5C24.9961 20.2239 24.7722 20 24.4961 20H20.9961V16.5Z" fill="#212121"/>
</svg>
