<svg width="12" height="12" viewBox="0 0 12 12" fill="none" xmlns="http://www.w3.org/2000/svg">
<path d="M5.3707 1.22239C5.73763 0.92528 6.26237 0.925279 6.6293 1.22239L10.4439 4.31124C10.7957 4.59604 11 5.02442 11 5.47699V9.99999C11 10.5523 10.5523 11 10 11H8C7.44772 11 7 10.5523 7 9.99999V6.99999H5V9.99999C5 10.5523 4.55228 11 4 11H2C1.44772 11 1 10.5523 1 9.99999V5.47699C1 5.02442 1.20433 4.59604 1.55606 4.31124L5.3707 1.22239ZM9.81465 5.0884L6 1.99956L2.18535 5.0884C2.06811 5.18334 2 5.32613 2 5.47699V9.99999H4V6.99999C4 6.44771 4.44772 5.99999 5 5.99999H7C7.55228 5.99999 8 6.44771 8 6.99999V9.99999H10V5.47699C10 5.32613 9.93189 5.18334 9.81465 5.0884Z" fill="#212121"/>
</svg>
