<svg width="28" height="28" viewBox="0 0 28 28" fill="none" xmlns="http://www.w3.org/2000/svg">
<path d="M4.50678 6.00782C3.60124 6.58285 3 7.59621 3 8.75V19.25C3 22.1495 5.35051 24.5 8.25 24.5H18.75C19.9038 24.5 20.9172 23.8988 21.4939 22.9925L21.3717 22.9982L21.25 23H8.25C6.17893 23 4.5 21.3211 4.5 19.25V6.25C4.5 6.16872 4.50228 6.08798 4.50678 6.00782ZM8.75 3C6.95507 3 5.5 4.45507 5.5 6.25V18.75C5.5 20.5449 6.95507 22 8.75 22H21.25C23.0449 22 24.5 20.5449 24.5 18.75V6.25C24.5 4.45507 23.0449 3 21.25 3H8.75ZM8.16845 20.4011L14.4754 14.2231C14.7405 13.9635 15.1501 13.9399 15.4414 14.1523L15.525 14.2231L21.8315 20.4011C21.6496 20.4651 21.4539 20.5 21.25 20.5H8.75C8.54613 20.5 8.3504 20.4651 8.16845 20.4011L14.4754 14.2231L8.16845 20.4011ZM8.75 4.5H21.25C22.2165 4.5 23 5.2835 23 6.25V18.75C23 18.958 22.9637 19.1576 22.8971 19.3427L16.5746 13.1515C15.7415 12.3355 14.4327 12.2967 13.5543 13.0349L13.4259 13.1515L7.10326 19.3437C7.03643 19.1583 7 18.9584 7 18.75V6.25C7 5.2835 7.7835 4.5 8.75 4.5ZM11.4996 7.75116C10.8096 7.75116 10.2503 8.31048 10.2503 9.00045C10.2503 9.69041 10.8096 10.2497 11.4996 10.2497C12.1895 10.2497 12.7488 9.69041 12.7488 9.00045C12.7488 8.31048 12.1895 7.75116 11.4996 7.75116Z" fill="#212121"/>
</svg>
