<svg width="24" height="24" viewBox="0 0 24 24" fill="none" xmlns="http://www.w3.org/2000/svg">
<path d="M16.2803 18.7803C15.9874 19.0732 15.5126 19.0732 15.2197 18.7803C14.9268 18.4874 14.9268 18.0126 15.2197 17.7197L17.7197 15.2197C17.8603 15.079 18.0511 15 18.25 15C18.4489 15 18.6397 15.079 18.7803 15.2197L21.2803 17.7197C21.5732 18.0126 21.5732 18.4874 21.2803 18.7803C20.9874 19.0732 20.5125 19.0732 20.2197 18.7803L19.0498 17.6105V22.25C19.0498 22.6642 18.714 23 18.2998 23C17.8856 23 17.5498 22.6642 17.5498 22.25V17.5108L16.2803 18.7803Z" fill="#212121"/>
<path d="M12 2C10.6193 2 9.5 3.11929 9.5 4.5V7.5H7.11173C5.93802 7.5 5.03485 8.49324 5.07218 9.63137C5.11456 10.9233 5.11662 12.9871 4.85477 15.1143C4.59044 17.2617 4.06766 19.3785 3.12032 20.8426C2.97106 21.0732 2.95988 21.3671 3.09118 21.6084C3.22249 21.8498 3.47525 22 3.75 22H16.5498V20.5H11.1294L11.4821 18.9127C11.572 18.5083 11.317 18.1077 10.9127 18.0179C10.5083 17.928 10.1077 18.183 10.0179 18.5873L9.59282 20.5H8.28088C8.30666 20.4334 8.33312 20.3635 8.36001 20.2905C8.5899 19.6665 8.85756 18.8004 8.99247 17.8561C9.05105 17.446 8.76612 17.0661 8.35607 17.0075C7.94602 16.949 7.56612 17.2339 7.50754 17.6439C7.39245 18.4496 7.1601 19.2085 6.95249 19.772C6.84935 20.0519 6.75391 20.2794 6.68508 20.4352L6.65613 20.5H5.00972C5.73187 18.9257 6.12717 17.0553 6.34353 15.2976C6.44041 14.5105 6.50274 13.734 6.54092 13H17.5V14.1689C17.7322 14.0587 17.9881 14 18.25 14C18.5119 14 18.7678 14.0587 19 14.1689V9.75C19 8.50736 17.9926 7.5 16.75 7.5H14.5V4.5C14.5 3.11929 13.3807 2 12 2ZM17.5 11.5H6.58962C6.59963 10.7635 6.58866 10.1092 6.57137 9.58219C6.56068 9.25616 6.82048 9 7.11173 9H10.25C10.6642 9 11 8.66421 11 8.25V4.5C11 3.94772 11.4477 3.5 12 3.5C12.5523 3.5 13 3.94772 13 4.5V8.25C13 8.66421 13.3358 9 13.75 9H16.75C17.1642 9 17.5 9.33579 17.5 9.75V11.5Z" fill="#212121"/>
<path d="M19 15.4394L18.7803 15.2197C18.6515 15.0908 18.4805 15.0137 18.2998 15.0017C18.2833 15.0006 18.2667 15 18.25 15C18.0511 15 17.8603 15.079 17.7197 15.2197L17.5 15.4393V17.5607L17.5498 17.5108V22H18.25C18.6642 22 19 21.6642 19 21.25V15.4394Z" fill="#212121"/>
</svg>
