<?xml version="1.0" encoding="UTF-8"?>
<svg width="16px" height="16px" viewBox="0 0 16 16" version="1.1" xmlns="http://www.w3.org/2000/svg" xmlns:xlink="http://www.w3.org/1999/xlink">
    <!-- Generator: Sketch 59.1 (86144) - https://sketch.com -->
    <title>ic_sync_circle_16_regular</title>
    <desc>Created with Sketch.</desc>
    <g id="ðŸ”-Product-Icons" stroke="none" stroke-width="1" fill="none" fill-rule="evenodd">
        <g id="ic_sync_circle_16_regular" fill="#212121" fill-rule="nonzero">
            <path d="M8,2 C11.3137085,2 14,4.6862915 14,8 C14,11.3137085 11.3137085,14 8,14 C4.6862915,14 2,11.3137085 2,8 C2,4.6862915 4.6862915,2 8,2 Z M8,3 C5.23857625,3 3,5.23857625 3,8 C3,10.7614237 5.23857625,13 8,13 C10.7614237,13 13,10.7614237 13,8 C13,5.23857625 10.7614237,3 8,3 Z M9.00080393,8 L10.5,8 C10.7454599,8 10.9496084,8.17687516 10.9919443,8.41012437 L11,8.5 L11,10.0012887 C11,10.2774311 10.7761424,10.5012887 10.5,10.5012887 C10.2545401,10.5012887 10.0503916,10.3244135 10.0080557,10.0911643 L10,10.0012887 L9.99998701,9.76401585 C9.50630125,10.3231384 8.78612364,10.6664151 8,10.6664151 C7.26610342,10.6664151 6.57855046,10.3677888 6.07946228,9.84968033 C5.88788478,9.65080179 5.89380345,9.33427463 6.09268199,9.14269713 C6.29156053,8.95111963 6.60808769,8.9570383 6.79966518,9.15591684 C7.11214992,9.4803104 7.5406348,9.66641514 8,9.66641514 C8.53782085,9.66641514 9.02636104,9.40926953 9.33380784,8.99971558 L9.00080393,9 C8.72466155,9 8.50080393,8.77614237 8.50080393,8.5 C8.50080393,8.25454011 8.67767909,8.05039163 8.9109283,8.00805567 L9.00080393,8 L10.5,8 L9.00080393,8 Z M8,5.33358486 C8.73699255,5.33358486 9.42718011,5.63474569 9.92666103,6.15669737 C10.1175814,6.35620687 10.1106185,6.67271277 9.91110897,6.8636331 C9.71159947,7.05455343 9.39509356,7.04759053 9.20417323,6.84808104 C8.89143578,6.52127408 8.46129761,6.33358486 8,6.33358486 C7.46137834,6.33358486 6.97345504,6.59144382 6.66654267,6.99980577 L6.99589887,7 C7.27204125,7 7.49589887,7.22385763 7.49589887,7.5 C7.49589887,7.74545989 7.31902371,7.94960837 7.08577451,7.99194433 L6.99589887,8 L5.5,8 C5.25454011,8 5.05039163,7.82312484 5.00805567,7.58987563 L5,7.5 L5,6.00302831 C5,5.72688594 5.22385763,5.50302831 5.5,5.50302831 C5.74545989,5.50302831 5.94960837,5.67990348 5.99194433,5.91315268 L6,6.00302831 L5.99936207,6.23674719 C6.49229129,5.67819897 7.21213518,5.33358486 8,5.33358486 Z" id="ðŸŽ¨-Color"></path>
        </g>
    </g>
</svg>