<?xml version="1.0" encoding="UTF-8"?>
<svg width="20px" height="20px" viewBox="0 0 20 20" version="1.1" xmlns="http://www.w3.org/2000/svg" xmlns:xlink="http://www.w3.org/1999/xlink">
    <!-- Generator: Sketch 64 (93537) - https://sketch.com -->
    <title>ic_fluent_text_strikethrough_20_filled</title>
    <desc>Created with Sketch.</desc>
    <g id="ðŸ”-System-Icons" stroke="none" stroke-width="1" fill="none" fill-rule="evenodd">
        <g id="ic_fluent_text_strikethrough_20_filled" fill="#212121" fill-rule="nonzero">
            <path d="M16.5,10 C16.9142,10 17.25,10.3358 17.25,10.75 C17.25,11.1642 16.9142,11.5 16.5,11.5 L14.8382,11.5 C15.2457,12.0231 15.5,12.6775 15.5,13.5 C15.5,14.8585 14.6255,15.8755 13.5884,16.5137 C12.5464,17.155 11.2207,17.5 10.0001,17.5 C8.85764,17.5 7.86749,17.371 7.00841,17.0015 C6.1309,16.6241 5.44521,16.0198 4.87602,15.166 C4.64625,14.8214 4.73938,14.3557 5.08403,14.126 C5.42868,13.8962 5.89433,13.9893 6.12409,14.334 C6.5549,14.9802 7.02546,15.3759 7.60108,15.6235 C8.19512,15.879 8.95497,16 10.0001,16 C10.9669,16 12.0162,15.72 12.8023,15.2363 C13.5933,14.7495 14,14.1415 14,13.5 C14,12.7193 13.6239,12.2147 12.8898,11.7897 C12.7093,11.6852 12.5134,11.5894 12.3038,11.5 L3.5,11.5 C3.08579,11.5 2.75,11.1642 2.75,10.75 C2.75,10.3358 3.08579,10 3.5,10 L16.5,10 Z M10.0001,2.5 C12.7826,2.5 14.4888,3.98502 15.1001,4.8 C15.3486,5.13137 15.2814,5.60147 14.9501,5.85 C14.6187,6.09853 14.1486,6.03137 13.9001,5.7 C13.5113,5.18165 12.2175,4 10.0001,4 C8.91836,4 7.88138,4.38143 7.12345,4.9228 C6.33129,5.48862 5.99999,6.10486 5.99999,6.5 C5.99999,7.28069 6.37608,7.78532 7.11015,8.21031 C7.29064,8.3148 7.48662,8.41057 7.69621,8.5 L5.16181,8.5 C4.75426,7.97689 4.49999,7.32249 4.49999,6.5 C4.49999,5.39514 5.29373,4.38638 6.2516,3.7022 C7.2437,2.99357 8.58175,2.5 10.0001,2.5 Z" id="ðŸŽ¨-Color"></path>
        </g>
    </g>
</svg>