<svg width="32" height="32" viewBox="0 0 32 32" fill="none" xmlns="http://www.w3.org/2000/svg">
<path d="M2 8.5C2 6.01472 4.01472 4 6.5 4H25.5C27.9853 4 30 6.01472 30 8.5V18H29.9753C29.8334 16.5703 29.0892 15.3177 28 14.4996V8.5C28 7.11929 26.8807 6 25.5 6H6.5C5.11929 6 4 7.11929 4 8.5V23.5C4 24.8807 5.11929 26 6.5 26H17.5004C17.5088 26.6833 17.6548 27.3632 17.9459 28H6.5C4.01472 28 2 25.9853 2 23.5V8.5ZM21 15C21.1283 15 21.251 15.0242 21.3637 15.0682C20.8508 15.6115 20.4583 16.2696 20.2289 17H9C8.44772 17 8 16.5523 8 16C8 15.4477 8.44772 15 9 15H21ZM8 11C8 10.4477 8.44772 10 9 10H16C16.5523 10 17 10.4477 17 11C17 11.5523 16.5523 12 16 12H9C8.44772 12 8 11.5523 8 11ZM9 20C8.44772 20 8 20.4477 8 21C8 21.5523 8.44771 22 9 22H18C18.5523 22 19 21.5523 19 21C19 20.4477 18.5523 20 18 20H9ZM28.5 18.5C28.5 20.433 26.933 22 25 22C23.067 22 21.5 20.433 21.5 18.5C21.5 16.567 23.067 15 25 15C26.933 15 28.5 16.567 28.5 18.5ZM31 25.9375C31 27.961 29.2857 30 25 30C20.7143 30 19 27.9686 19 25.9375C19 24.6024 20.0823 23.5 21.4174 23.5H28.5826C29.9177 23.5 31 24.6024 31 25.9375Z" fill="#212121"/>
</svg>
