<svg width="24" height="24" viewBox="0 0 24 24" fill="none" xmlns="http://www.w3.org/2000/svg">
<path d="M3 6.25C3 4.45507 4.45507 3 6.25 3H17.75C19.5449 3 21 4.45507 21 6.25V12.0218C19.9897 11.375 18.7886 11 17.5 11C13.9101 11 11 13.9101 11 17.5C11 18.7886 11.375 19.9897 12.0218 21H6.25C4.45507 21 3 19.5449 3 17.75V6.25ZM12.5 9.25C12.5 9.66421 12.8358 10 13.25 10H16.75C17.1642 10 17.5 9.66421 17.5 9.25C17.5 8.83579 17.1642 8.5 16.75 8.5H13.25C12.8358 8.5 12.5 8.83579 12.5 9.25ZM10.7803 8.78033C11.0732 8.48744 11.0732 8.01256 10.7803 7.71967C10.4874 7.42678 10.0126 7.42678 9.71967 7.71967L8.25 9.18934L7.78033 8.71967C7.48744 8.42678 7.01256 8.42678 6.71967 8.71967C6.42678 9.01256 6.42678 9.48744 6.71967 9.78033L7.71967 10.7803C8.01256 11.0732 8.48744 11.0732 8.78033 10.7803L10.7803 8.78033ZM10.7803 13.2197C10.4874 12.9268 10.0126 12.9268 9.71967 13.2197L8.25 14.6893L7.78033 14.2197C7.48744 13.9268 7.01256 13.9268 6.71967 14.2197C6.42678 14.5126 6.42678 14.9874 6.71967 15.2803L7.71967 16.2803C8.01256 16.5732 8.48744 16.5732 8.78033 16.2803L10.7803 14.2803C11.0732 13.9874 11.0732 13.5126 10.7803 13.2197ZM23 17.5C23 14.4624 20.5376 12 17.5 12C14.4624 12 12 14.4624 12 17.5C12 20.5376 14.4624 23 17.5 23C20.5376 23 23 20.5376 23 17.5ZM18.0006 18L18.0011 20.5035C18.0011 20.7797 17.7773 21.0035 17.5011 21.0035C17.225 21.0035 17.0011 20.7797 17.0011 20.5035L17.0006 18H14.4956C14.2197 18 13.9961 17.7762 13.9961 17.5C13.9961 17.2239 14.2197 17 14.4956 17H17.0005L17 14.4993C17 14.2231 17.2239 13.9993 17.5 13.9993C17.7761 13.9993 18 14.2231 18 14.4993L18.0005 17H20.4966C20.7725 17 20.9961 17.2239 20.9961 17.5C20.9961 17.7762 20.7725 18 20.4966 18H18.0006Z" fill="#212121"/>
</svg>
