<svg width="20" height="20" viewBox="0 0 20 20" fill="none" xmlns="http://www.w3.org/2000/svg">
<path d="M9 10.2572C9.57767 10.7342 10.0563 11.327 10.4003 12H13V10.5C13 10.2239 12.7761 10 12.5 10H9V10.2572ZM13 13H10.793C10.9278 13.4768 11 13.98 11 14.5C11 14.6685 10.9924 14.8353 10.9776 15H12.5C12.7761 15 13 14.7761 13 14.5V13ZM5.5 9C5.95655 9 6.4001 9.05563 6.82425 9.16047C7.02733 9.05783 7.25691 9 7.5 9H12.5C13.3284 9 14 9.67157 14 10.5V14.5C14 15.3284 13.3284 16 12.5 16H10.793C10.583 16.7424 10.221 17.421 9.74284 18H14.5C15.3284 18 16 17.3284 16 16.5V8H11.5C10.6716 8 10 7.32843 10 6.5V2H5.5C4.67157 2 4 2.67157 4 3.5V9.20703C4.47683 9.07217 4.97999 9 5.5 9ZM11 6.5V2.25L15.75 7H11.5C11.2239 7 11 6.77614 11 6.5ZM10 14.5C10 16.9853 7.98528 19 5.5 19C3.01472 19 1 16.9853 1 14.5C1 12.0147 3.01472 10 5.5 10C7.98528 10 10 12.0147 10 14.5ZM7.85355 12.6464C7.65829 12.4512 7.34171 12.4512 7.14645 12.6464L4.5 15.2929L3.85355 14.6464C3.65829 14.4512 3.34171 14.4512 3.14645 14.6464C2.95118 14.8417 2.95118 15.1583 3.14645 15.3536L4.14645 16.3536C4.34171 16.5488 4.65829 16.5488 4.85355 16.3536L7.85355 13.3536C8.04882 13.1583 8.04882 12.8417 7.85355 12.6464Z" fill="#212121"/>
</svg>
