<svg width="48" height="48" viewBox="0 0 48 48" fill="none" xmlns="http://www.w3.org/2000/svg">
<path d="M4 14.25C4 13.5596 4.55964 13 5.25 13H20.75C21.4404 13 22 13.5596 22 14.25C22 14.9404 21.4404 15.5 20.75 15.5H8.29516L25.0006 31.994L41.8724 15.3599C42.364 14.8752 43.1554 14.8808 43.6401 15.3724C44.1248 15.864 44.1192 16.6554 43.6276 17.1401L25.8776 34.6401C25.3907 35.1202 24.6083 35.1199 24.1218 34.6395L6.5 17.2408V29.817C6.5 30.5074 5.94036 31.067 5.25 31.067C4.55964 31.067 4 30.5074 4 29.817V14.25Z" fill="#212121"/>
</svg>
