<svg width="24" height="24" viewBox="0 0 24 24" fill="none" xmlns="http://www.w3.org/2000/svg">
<path d="M13.4089 2.51301C12.5053 2.14671 11.4947 2.14671 10.5911 2.51301L8.40058 3.40106L17.9928 7.13136L21.3671 5.82763C21.2312 5.7149 21.0769 5.62165 20.9075 5.55298L13.4089 2.51301ZM22 7.19118L12.7498 10.7651V13.0641C13.9361 11.7946 15.6254 11.001 17.5 11.001C19.2465 11.001 20.8321 11.6898 22 12.8105V7.19118ZM11.2498 10.7651V15.7103C11.0871 16.2791 11 16.8799 11 17.501C11 18.1221 11.0871 18.7228 11.2498 19.2917V21.6882C11.0261 21.6425 10.8056 21.5762 10.5911 21.4892L3.09252 18.4493C2.43211 18.1815 2 17.5401 2 16.8275V7.19134L11.2498 10.7651ZM2.63273 5.82774L11.9998 9.44684L15.9168 7.93346L6.37434 4.22251L3.09252 5.55298C2.92308 5.62167 2.76867 5.71496 2.63273 5.82774ZM23 17.501C23 14.4634 20.5376 12.001 17.5 12.001C14.4624 12.001 12 14.4634 12 17.501C12 20.5385 14.4624 23.001 17.5 23.001C20.5376 23.001 23 20.5385 23 17.501ZM17.5424 14.0028L17.6281 14.0176L17.691 14.0388L17.7585 14.0729L17.806 14.105L20.3536 16.6474L20.4114 16.7167C20.5464 16.9115 20.5271 17.181 20.3536 17.3545C20.18 17.5281 19.9106 17.5474 19.7157 17.4124L19.6464 17.3545L17.999 15.707L18 21.001L17.9919 21.0909C17.9549 21.2949 17.794 21.4559 17.5899 21.4929L17.5 21.501L17.4101 21.4929C17.206 21.4559 17.0451 21.2949 17.0081 21.0909L17 21.001L16.999 15.709L15.3536 17.3545L15.2843 17.4124C15.1138 17.5305 14.8862 17.5305 14.7157 17.4124L14.6464 17.3545L14.5886 17.2853C14.4705 17.1148 14.4705 16.8872 14.5886 16.7167L14.6464 16.6474L17.1589 14.1354L17.2153 14.0898L17.2886 14.0477L17.3719 14.0176L17.432 14.006L17.488 14.001L17.5424 14.0028Z" fill="#212121"/>
</svg>
