<svg width="24" height="24" viewBox="0 0 24 24" fill="none" xmlns="http://www.w3.org/2000/svg">
<path d="M2.75 2C2.33579 2 2 2.33579 2 2.75C2 3.16421 2.33579 3.5 2.75 3.5H11.25C11.6642 3.5 12 3.16421 12 2.75C12 2.33579 11.6642 2 11.25 2H2.75ZM2.75 6C2.33579 6 2 6.33579 2 6.75C2 7.16421 2.33579 7.5 2.75 7.5H9.25C9.66421 7.5 10 7.16421 10 6.75C10 6.33579 9.66421 6 9.25 6H2.75ZM13 6.25C13 5.00736 14.0074 4 15.25 4H18.75C19.9926 4 21 5.00736 21 6.25V9.5H13V6.25ZM13 11V15H21V11H13ZM21 16.5H13V19.75C13 20.9926 14.0074 22 15.25 22H18.75C19.9926 22 21 20.9926 21 19.75V16.5ZM3.75 10C4.16421 10 4.5 10.3358 4.5 10.75V13.75C4.5 14.4404 5.05964 15 5.75 15H8.43934L7.21967 13.7803C6.92678 13.4874 6.92678 13.0126 7.21967 12.7197C7.51256 12.4268 7.98744 12.4268 8.28033 12.7197L10.7803 15.2197C11.0732 15.5126 11.0732 15.9874 10.7803 16.2803L8.28033 18.7803C7.98744 19.0732 7.51256 19.0732 7.21967 18.7803C6.92678 18.4874 6.92678 18.0126 7.21967 17.7197L8.43934 16.5H5.75C4.23122 16.5 3 15.2688 3 13.75V10.75C3 10.3358 3.33579 10 3.75 10Z" fill="#212121"/>
</svg>
