<svg width="48" height="48" viewBox="0 0 48 48" fill="none" xmlns="http://www.w3.org/2000/svg">
<path d="M5.25 5C4.55964 5 4 5.55964 4 6.25C4 6.94036 4.55964 7.5 5.25 7.5H22.75C23.4404 7.5 24 6.94036 24 6.25C24 5.55964 23.4404 5 22.75 5H5.25ZM5.25 12.5C4.55964 12.5 4 13.0596 4 13.75C4 14.4404 4.55964 15 5.25 15H17.75C18.4404 15 19 14.4404 19 13.75C19 13.0596 18.4404 12.5 17.75 12.5H5.25ZM31.25 8C28.9028 8 27 9.90279 27 12.25V38.75C27 41.0972 28.9028 43 31.25 43H37.75C40.0972 43 42 41.0972 42 38.75V12.25C42 9.90279 40.0972 8 37.75 8H31.25ZM29.5 12.25C29.5 11.2835 30.2835 10.5 31.25 10.5H37.75C38.7165 10.5 39.5 11.2835 39.5 12.25V19H29.5V12.25ZM29.5 21.5H39.5V29.5H29.5V21.5ZM29.5 32H39.5V38.75C39.5 39.7165 38.7165 40.5 37.75 40.5H31.25C30.2835 40.5 29.5 39.7165 29.5 38.75V32ZM8.5 21.25C8.5 20.5596 7.94036 20 7.25 20C6.55964 20 6 20.5596 6 21.25V25.75C6 29.2018 8.79822 32 12.25 32H17.7322L14.3661 35.3661C13.878 35.8543 13.878 36.6457 14.3661 37.1339C14.8543 37.622 15.6457 37.622 16.1339 37.1339L21.6339 31.6339C22.122 31.1457 22.122 30.3543 21.6339 29.8661L16.1339 24.3661C15.6457 23.878 14.8543 23.878 14.3661 24.3661C13.878 24.8543 13.878 25.6457 14.3661 26.1339L17.7322 29.5H12.25C10.1789 29.5 8.5 27.8211 8.5 25.75V21.25Z" fill="#212121"/>
</svg>
