<svg width="48" height="48" viewBox="0 0 48 48" fill="none" xmlns="http://www.w3.org/2000/svg">
<path d="M7.2001 7.22848C7.68826 6.74033 8.47971 6.74033 8.96787 7.22848L23.9996 22.2602L39.0313 7.22848C39.5194 6.74033 40.3109 6.74033 40.799 7.22848C41.2872 7.71664 41.2872 8.50809 40.799 8.99625L25.7673 24.0279L40.7431 39.0038C41.2313 39.4919 41.2313 40.2834 40.7431 40.7715C40.255 41.2597 39.4635 41.2597 38.9754 40.7715L23.9996 25.7957L9.02376 40.7715C8.5356 41.2597 7.74415 41.2597 7.25599 40.7715C6.76784 40.2834 6.76784 39.4919 7.25599 39.0038L22.2318 24.0279L7.2001 8.99625C6.71195 8.50809 6.71195 7.71664 7.2001 7.22848Z" fill="#212121"/>
</svg>
