<svg width="12" height="12" viewBox="0 0 12 12" fill="none" xmlns="http://www.w3.org/2000/svg">
<path d="M10.8536 1.85355C11.0488 1.65829 11.0488 1.34171 10.8536 1.14645C10.6583 0.951184 10.3417 0.951184 10.1464 1.14645L5.29289 6L5.00008 7L5.99992 6.70718L10.8536 1.85355ZM6.5 2C6.77614 2 7 2.22386 7 2.5C7 2.77614 6.77614 3 6.5 3H4C3.44772 3 3 3.44772 3 4V8C3 8.55229 3.44772 9 4 9H8C8.55228 9 9 8.55229 9 8V5.5C9 5.22386 9.22386 5 9.5 5C9.77614 5 10 5.22386 10 5.5V8C10 9.10457 9.10457 10 8 10H4C2.89543 10 2 9.10457 2 8V4C2 2.89543 2.89543 2 4 2H6.5Z" fill="#212121"/>
</svg>
