<?xml version="1.0" encoding="UTF-8"?>
<svg width="16px" height="16px" viewBox="0 0 16 16" version="1.1" xmlns="http://www.w3.org/2000/svg" xmlns:xlink="http://www.w3.org/1999/xlink">
    <!-- Generator: Sketch 64 (93537) - https://sketch.com -->
    <title>ic_fluent_fit_width_16_regular</title>
    <desc>Created with Sketch.</desc>
    <g id="ðŸ”-System-Icons" stroke="none" stroke-width="1" fill="none" fill-rule="evenodd">
        <g id="ic_fluent_fit_width_16_regular" fill="#212121" fill-rule="nonzero">
            <path d="M12,2.99756 C13.1046,2.99756 14,3.89299 14,4.99756 L14,10.9976 C14,12.1021 13.1046,12.9976 12,12.9976 L4,12.9976 C2.89543,12.9976 2,12.1021 2,10.9976 L2,4.99756 C2,3.89299 2.89543,2.99756 4,2.99756 L12,2.99756 Z M12,3.99756 L4,3.99756 C3.44772,3.99756 3,4.44527 3,4.99756 L3,10.9976 C3,11.5498 3.44772,11.9976 4,11.9976 L12,11.9976 C12.5523,11.9976 13,11.5498 13,10.9976 L13,4.99756 C13,4.44527 12.5523,3.99756 12,3.99756 Z M6.35178,6.15041 C6.54705,6.34568 6.54705,6.66226 6.35178,6.85752 L5.71065,7.49866 L7.24999,7.5 C7.52613,7.50024 7.74979,7.72429 7.74955039,8.00044 C7.74931,8.27658 7.52526,8.50024 7.24912,8.5 L5.70002,8.49865 L6.35178,9.15041 C6.54705,9.34568 6.54705,9.66226 6.35178,9.85752 C6.15652,10.0528 5.83994,10.0528 5.64468,9.85752 L4.14468,8.35752 C3.94941,8.16226 3.94941,7.84568 4.14468,7.65041 L5.64468,6.15041 C5.83994,5.95515 6.15652,5.95515 6.35178,6.15041 Z M9.65005,6.15047 C9.82361444,5.97690556 10.0930446,5.95762062 10.2879406,6.09261519 L10.3572,6.15047 L11.8572,7.65047 C12.0307111,7.82404333 12.0499901,8.09346654 11.915037,8.28833283 L11.8572,8.35758 L10.3572,9.85758 C10.1619,10.0528 9.84531,10.0528 9.65005,9.85758 C9.47648556,9.68401556 9.45720062,9.41459333 9.59219519,9.21972014 L9.65005,9.15047 L10.3005,8.5 L8.75132,8.5 C8.47518,8.5 8.25132,8.27614 8.25132,8 C8.25132,7.75454222 8.42818914,7.5503921 8.66144236,7.50805575 L8.75132,7.5 L10.2925,7.5 L9.65005,6.85758 C9.45479,6.66232 9.45479,6.34574 9.65005,6.15047 Z" id="ðŸŽ¨-Color"></path>
        </g>
    </g>
</svg>