<svg width="32" height="32" viewBox="0 0 32 32" fill="none" xmlns="http://www.w3.org/2000/svg">
<path d="M13.0002 10C13.0002 9.57355 12.7298 9.19401 12.3267 9.05479C11.9237 8.91562 11.4766 9.04753 11.2133 9.38287L11.2062 9.39176C11.1988 9.40094 11.1864 9.41616 11.1692 9.43692C11.1347 9.47844 11.0809 9.54201 11.0088 9.6236C10.8644 9.78697 10.6473 10.0216 10.3655 10.2956C9.79951 10.846 8.98517 11.5428 7.98566 12.1425C7.51208 12.4267 7.35851 13.0409 7.64266 13.5145C7.92681 13.9881 8.54108 14.1416 9.01467 13.8575C9.78259 13.3967 10.4503 12.8915 11.0002 12.4218V22C11.0002 22.5523 11.4479 23 12.0002 23C12.5525 23 13.0002 22.5523 13.0002 22V10ZM17.7072 16.2929C17.3167 15.9024 16.6836 15.9024 16.293 16.2929C15.9025 16.6834 15.9025 17.3166 16.293 17.7071L18.0859 19.5L16.293 21.2929C15.9025 21.6834 15.9025 22.3166 16.293 22.7071C16.6836 23.0976 17.3167 23.0976 17.7072 22.7071L19.5001 20.9142L21.2929 22.7071C21.6834 23.0976 22.3166 23.0976 22.7071 22.7071C23.0976 22.3166 23.0976 21.6834 22.7071 21.2929L20.9143 19.5L22.7071 17.7071C23.0976 17.3166 23.0976 16.6834 22.7071 16.2929C22.3166 15.9024 21.6834 15.9024 21.2929 16.2929L19.5001 18.0858L17.7072 16.2929Z" fill="#212121"/>
</svg>
