<svg width="20" height="20" viewBox="0 0 20 20" fill="none" xmlns="http://www.w3.org/2000/svg">
<path d="M6.7793 7.45454C6.50315 7.45454 6.2793 7.6784 6.2793 7.95454V12.0455C6.2793 12.3216 6.50315 12.5455 6.7793 12.5455H11.1248C11.4009 12.5455 11.6248 12.3216 11.6248 12.0455V7.95454C11.6248 7.6784 11.4009 7.45454 11.1248 7.45454H6.7793ZM7.2793 8.45454H10.6248V11.5455H7.2793V8.45454ZM5.45208 2.5C3.81885 2.5 2.45033 3.60596 1.84468 4.97758C1.25421 6.31483 1.36012 7.97167 2.66118 9.20471L2.66118 15.0909C2.66118 15.1173 2.66068 15.1476 2.66013 15.1813C2.65523 15.481 2.6459 16.0524 2.93925 16.5413C3.30375 17.1488 4.02231 17.5 5.19754 17.5L15.3792 17.5C15.7899 17.5 16.1572 17.4847 16.471 17.4267C16.7881 17.3681 17.089 17.2592 17.3348 17.0433C17.8284 16.6098 17.9172 15.909 17.9172 15.0909C17.9172 14.2133 17.8813 13.1704 17.8467 12.1637L17.8465 12.1578C17.808 11.0374 17.7715 9.96941 17.7838 9.19103C18.2962 8.63997 19.061 7.50992 19.061 6.18182C19.061 3.95867 17.1431 2.5 15.3792 2.5H5.45208ZM12.8337 3.5C13.4553 3.5 14.217 3.8015 14.828 4.31962C15.434 4.83345 15.8189 5.496 15.8236 6.1695C15.7831 6.92383 15.6179 7.40502 15.4194 7.74937C15.2612 8.02367 15.0719 8.23062 14.857 8.4383C14.8061 8.48701 14.7537 8.53583 14.6997 8.58621C14.6195 8.66094 14.5356 8.73916 14.4471 8.82579C14.4277 8.84463 14.4084 8.86365 14.3893 8.88281L14.2488 9.0233L14.243 9.2219C14.214 10.2243 14.2238 11.6613 14.2333 13.0644L14.2334 13.0733C14.2381 13.7709 14.2428 14.4612 14.2428 15.0909C14.2428 15.4986 14.2242 15.7837 14.1822 15.9889C14.1413 16.1886 14.0866 16.2697 14.0448 16.3108C14.0024 16.3523 13.9195 16.4054 13.7194 16.4442C13.5913 16.469 13.4333 16.4846 13.2355 16.4928C13.1167 16.4977 12.9834 16.5 12.8337 16.5C12.8337 16.5 12.8338 16.5 12.8337 16.5L5.19754 16.5C4.20913 16.5 3.90951 16.2148 3.79674 16.0268C3.65878 15.7969 3.65977 15.5194 3.66095 15.1861L3.66118 15.0909L3.66118 8.98182C3.66118 8.83513 3.59676 8.69585 3.485 8.60085C2.40626 7.68392 2.29375 6.43623 2.75947 5.38151C3.23564 4.30313 4.2853 3.5 5.45208 3.5H12.8337Z" fill="#212121"/>
</svg>
