<svg width="20" height="20" viewBox="0 0 20 20" fill="none" xmlns="http://www.w3.org/2000/svg">
<path d="M6.77881 7.45454C6.50267 7.45454 6.27881 7.6784 6.27881 7.95454V12.0455C6.27881 12.3216 6.50267 12.5455 6.77881 12.5455H11.1243C11.4004 12.5455 11.6243 12.3216 11.6243 12.0455V7.95454C11.6243 7.6784 11.4004 7.45454 11.1243 7.45454H6.77881ZM7.27881 8.45454H10.6243V11.5455H7.27881V8.45454ZM5.45159 2.5C3.81836 2.5 2.44984 3.60596 1.84419 4.97758C1.25372 6.31483 1.35964 7.97167 2.66069 9.20471L2.66069 15.0909C2.66069 15.1173 2.66019 15.1476 2.65964 15.1813C2.65475 15.481 2.64541 16.0524 2.93876 16.5413C3.30326 17.1488 4.02182 17.5 5.19705 17.5L15.3787 17.5C15.7894 17.5 16.1567 17.4847 16.4705 17.4267C16.7876 17.3681 17.0885 17.2592 17.3343 17.0433C17.8279 16.6098 17.9167 15.909 17.9167 15.0909C17.9167 14.2133 17.8808 13.1704 17.8462 12.1637L17.846 12.1578C17.8075 11.0374 17.771 9.96941 17.7833 9.19103C18.2957 8.63997 19.0605 7.50992 19.0605 6.18182C19.0605 3.95867 17.1426 2.5 15.3787 2.5H5.45159ZM12.8333 3.5C13.4548 3.5 14.2165 3.8015 14.8275 4.31962C15.4335 4.83345 15.8184 5.496 15.8231 6.1695C15.7826 6.92383 15.6175 7.40502 15.4189 7.74937C15.2607 8.02367 15.0715 8.23062 14.8565 8.4383C14.8056 8.48701 14.7532 8.53583 14.6992 8.58621C14.619 8.66094 14.5351 8.73916 14.4466 8.82579C14.4272 8.84463 14.4079 8.86365 14.3888 8.88281L14.2483 9.0233L14.2425 9.2219C14.2135 10.2243 14.2233 11.6613 14.2328 13.0644L14.2329 13.0733C14.2376 13.7709 14.2423 14.4612 14.2423 15.0909C14.2423 15.4986 14.2237 15.7837 14.1817 15.9889C14.1408 16.1886 14.0861 16.2697 14.0443 16.3108C14.0019 16.3523 13.919 16.4054 13.719 16.4442C13.5908 16.469 13.4328 16.4846 13.235 16.4928C13.1162 16.4977 12.983 16.5 12.8333 16.5C12.8332 16.5 12.8333 16.5 12.8333 16.5L5.19705 16.5C4.20864 16.5 3.90902 16.2148 3.79625 16.0268C3.6583 15.7969 3.65928 15.5194 3.66046 15.1861L3.66069 15.0909L3.66069 8.98182C3.66069 8.83513 3.59628 8.69585 3.48451 8.60085C2.40578 7.68392 2.29326 6.43623 2.75898 5.38151C3.23515 4.30313 4.28481 3.5 5.45159 3.5H12.8333Z" fill="#212121"/>
</svg>
