<svg width="20" height="20" viewBox="0 0 20 20" fill="none" xmlns="http://www.w3.org/2000/svg">
<path d="M2.85355 2.14645C2.65829 1.95118 2.34171 1.95118 2.14645 2.14645C1.95118 2.34171 1.95118 2.65829 2.14645 2.85355L9.49739 10.2045L9.496 14.287L5.85046 10.6461L5.78117 10.5883C5.58621 10.4534 5.3168 10.4729 5.14336 10.6466C4.94823 10.842 4.94846 11.1586 5.14386 11.3537L9.60051 15.8056C9.69192 15.9237 9.83511 15.9999 9.99608 15.9999L10.1021 15.9901C10.1957 15.9714 10.285 15.9257 10.3574 15.8531L12.7495 13.4566L17.1464 17.8536C17.3417 18.0488 17.6583 18.0488 17.8536 17.8536C18.0488 17.6583 18.0488 17.3417 17.8536 17.1464L2.85355 2.14645ZM12.0413 12.7484L10.496 14.295L10.497 11.2042L12.0413 12.7484ZM14.1623 12.0412L13.4548 11.3338L14.1414 10.6466C14.3148 10.4729 14.5842 10.4534 14.7792 10.5882L14.8485 10.646C15.0222 10.8194 15.0418 11.0888 14.907 11.2838L14.8492 11.3531L14.1623 12.0412ZM9.49835 7.37725L10.498 8.37691L10.5 2.50112L10.492 2.41124C10.4497 2.17798 10.2456 2.00098 10.0001 2.00098C9.724 2.00098 9.50008 2.22469 9.5 2.50083L9.49835 7.37725ZM15.5 16.9988C15.7761 16.9988 16 17.2226 16 17.4988C16 17.7442 15.8231 17.9484 15.5899 17.9907L15.5 17.9988H4.5C4.22386 17.9988 4 17.7749 4 17.4988C4 17.2533 4.17688 17.0492 4.41012 17.0068L4.5 16.9988H15.5Z" fill="#242424"/>
</svg>
