<svg width="32" height="32" viewBox="0 0 32 32" fill="none" xmlns="http://www.w3.org/2000/svg">
<path d="M25 18.0001C25.5523 18.0001 26 18.4478 26 19.0001V25.5861L27.293 24.2931C27.6835 23.9025 28.3166 23.9025 28.7071 24.2931C29.0975 24.6836 29.0976 25.3167 28.7071 25.7071L25.7071 28.7072C25.3166 29.0975 24.6835 29.0975 24.293 28.7072L21.293 25.7071C20.9025 25.3167 20.9026 24.6836 21.293 24.2931C21.6835 23.9025 22.3165 23.9025 22.7071 24.2931L24 25.5861V19.0001C24 18.4478 24.4478 18.0001 25 18.0001ZM14 24.0001C14.5523 24.0001 15 24.4478 15 25.0001C14.9999 25.5523 14.5522 26.0001 14 26.0001H4C3.44779 26.0001 3.00013 25.5523 3 25.0001C3 24.4478 3.44772 24.0001 4 24.0001H14ZM19 15.0001C19.5523 15.0001 20 15.4478 20 16.0001C19.9999 16.5522 19.5522 17.0001 19 17.0001H4C3.44779 17.0001 3.00013 16.5522 3 16.0001C3 15.4478 3.44772 15.0001 4 15.0001H19ZM24.3692 3.22462C24.762 2.90427 25.341 2.92686 25.7071 3.29298L28.7071 6.29299C29.0975 6.68353 29.0976 7.31658 28.7071 7.70706C28.3166 8.09743 27.6835 8.09743 27.293 7.70706L26 6.41409V13.0001C25.9999 13.5522 25.5523 14.0001 25 14.0001C24.4478 14.0001 24.0002 13.5522 24 13.0001V6.41409L22.7071 7.70706C22.3166 8.09743 21.6835 8.09743 21.293 7.70706C20.9025 7.31658 20.9026 6.68353 21.293 6.29299L24.293 3.29298L24.3692 3.22462ZM14 6.00002C14.5523 6.00002 15 6.44774 15 7.00003C14.9999 7.55221 14.5522 8.00003 14 8.00003H4C3.44779 8.00003 3.00013 7.55221 3 7.00003C3 6.44774 3.44772 6.00002 4 6.00002H14Z" fill="#212121"/>
</svg>
