<svg width="20" height="20" viewBox="0 0 20 20" fill="none" xmlns="http://www.w3.org/2000/svg">
<path d="M15 7C15 7.55229 15.4477 8 16 8C16.5523 8 17 7.55229 17 7C17 6.44772 16.5523 6 16 6C15.4477 6 15 6.44772 15 7ZM9 7C9 7.55228 9.44772 8 10 8C10.5523 8 11 7.55228 11 7C11 6.44772 10.5523 6 10 6C9.44772 6 9 6.44772 9 7ZM4 8C3.44772 8 3 7.55228 3 7C3 6.44772 3.44772 6 4 6C4.55229 6 5 6.44772 5 7C5 7.55228 4.55229 8 4 8ZM15 13C15 13.5523 15.4477 14 16 14C16.5523 14 17 13.5523 17 13C17 12.4477 16.5523 12 16 12C15.4477 12 15 12.4477 15 13ZM10 14C9.44772 14 9 13.5523 9 13C9 12.4477 9.44772 12 10 12C10.5523 12 11 12.4477 11 13C11 13.5523 10.5523 14 10 14ZM3 13C3 13.5523 3.44772 14 4 14C4.55229 14 5 13.5523 5 13C5 12.4477 4.55229 12 4 12C3.44772 12 3 12.4477 3 13Z" fill="#212121"/>
</svg>
