<svg width="24" height="24" viewBox="0 0 24 24" fill="none" xmlns="http://www.w3.org/2000/svg">
<path d="M17.25 2C17.6642 2 18 2.33579 18 2.75V19.4393L20.2197 17.2197C20.5126 16.9268 20.9874 16.9268 21.2803 17.2197C21.5732 17.5126 21.5732 17.9874 21.2803 18.2803L17.7803 21.7803C17.4874 22.0732 17.0126 22.0732 16.7197 21.7803L13.2197 18.2803C12.9268 17.9874 12.9268 17.5126 13.2197 17.2197C13.5126 16.9268 13.9874 16.9268 14.2803 17.2197L16.5 19.4393V2.75C16.5 2.33579 16.8358 2 17.25 2ZM7.07179 2.00002C7.38266 2.00214 7.65999 2.19582 7.76903 2.48694L10.9526 10.9868C11.0978 11.3747 10.9012 11.807 10.5133 11.9522C10.1254 12.0975 9.69313 11.9008 9.54785 11.5129L8.79389 9.49991H5.23807L4.4489 11.5225C4.29834 11.9084 3.86347 12.0991 3.47759 11.9486C3.09171 11.798 2.90094 11.3632 3.0515 10.9773L6.36797 2.47738C6.48097 2.18777 6.76092 1.9979 7.07179 2.00002ZM7.05234 4.85005L5.82333 7.99993H8.23209L7.05234 4.85005ZM5.75 13C4.23122 13 3 14.2312 3 15.75C3 16.7384 3.52149 17.6051 4.30435 18.0898C3.6232 18.7466 3 19.7656 3 21.25C3 21.6642 3.33579 22 3.75 22C4.16421 22 4.5 21.6642 4.5 21.25C4.5 20.1386 4.99354 19.4601 5.48801 19.0408C5.74175 18.8256 5.99782 18.6784 6.19008 18.5857C6.26924 18.5475 6.33602 18.5194 6.38523 18.5H9.5V21.25C9.5 21.6642 9.83579 22 10.25 22C10.6642 22 11 21.6642 11 21.25V13.75C11 13.3358 10.6642 13 10.25 13H5.75ZM6.27329 17C6.2619 16.9997 6.25047 16.9997 6.23902 17H5.75C5.05964 17 4.5 16.4404 4.5 15.75C4.5 15.0596 5.05964 14.5 5.75 14.5H9.5V17H6.27329Z" fill="#212121"/>
</svg>
