<svg width="20" height="20" viewBox="0 0 20 20" fill="none" xmlns="http://www.w3.org/2000/svg">
<path d="M8.5 9C9.32843 9 10 8.32843 10 7.5V3.5C10 2.67157 9.32843 2 8.5 2H2.5C1.67157 2 1 2.67157 1 3.5V7.5C1 8.15311 1.4174 8.70873 2 8.91465L2.01891 8.92119C2.16992 8.97229 2.33173 9 2.5 9H8.5ZM15.25 6H11V5H15.25C16.7688 5 18 6.23122 18 7.75V14.25C18 15.7688 16.7688 17 15.25 17H4.75C3.23122 17 2 15.7688 2 14.25V9.94999C2.16155 9.98278 2.32877 10 2.5 10H3V14.25C3 15.2165 3.7835 16 4.75 16H15.25C16.2165 16 17 15.2165 17 14.25V7.75C17 6.7835 16.2165 6 15.25 6ZM14 12.2929L11.3536 9.64645C11.1583 9.45118 10.8417 9.45118 10.6464 9.64645C10.4512 9.84171 10.4512 10.1583 10.6464 10.3536L13.2929 13H11.5C11.2239 13 11 13.2239 11 13.5C11 13.7761 11.2239 14 11.5 14H14.4995C14.4993 14 14.4997 14 14.4995 14C14.5075 14 14.516 13.9998 14.524 13.9994C14.5811 13.9967 14.6378 13.9842 14.6914 13.9621C14.7504 13.9377 14.8056 13.9015 14.8536 13.8536C14.9015 13.8056 14.9377 13.7504 14.9621 13.6914C14.9861 13.6333 14.9996 13.5697 15 13.503C15 13.502 15 13.501 15 13.5V10.5C15 10.2239 14.7761 10 14.5 10C14.2239 10 14 10.2239 14 10.5V12.2929Z" fill="#212121"/>
</svg>
