<svg width="24" height="24" viewBox="0 0 24 24" fill="none" xmlns="http://www.w3.org/2000/svg">
<path d="M3.49942 15.5004C4.32752 15.5004 4.99883 16.1717 4.99883 16.9998C4.99883 17.8279 4.32752 18.4992 3.49942 18.4992C2.67131 18.4992 2 17.8279 2 16.9998C2 16.1717 2.67131 15.5004 3.49942 15.5004ZM7.50034 15.9998H21.0035C21.5558 15.9998 22.0035 16.4475 22.0035 16.9998C22.0035 17.5126 21.6174 17.9353 21.1201 17.993L21.0035 17.9998H7.50034C6.94805 17.9998 6.50034 17.5521 6.50034 16.9998C6.50034 16.4869 6.88638 16.0643 7.38372 16.0065L7.50034 15.9998H21.0035H7.50034ZM3.49942 10.5004C4.32752 10.5004 4.99883 11.1717 4.99883 11.9998C4.99883 12.8279 4.32752 13.4992 3.49942 13.4992C2.67131 13.4992 2 12.8279 2 11.9998C2 11.1717 2.67131 10.5004 3.49942 10.5004ZM7.50034 10.9998H21.0035C21.5558 10.9998 22.0035 11.4475 22.0035 11.9998C22.0035 12.5126 21.6174 12.9353 21.1201 12.9931L21.0035 12.9998H7.50034C6.94805 12.9998 6.50034 12.5521 6.50034 11.9998C6.50034 11.487 6.88638 11.0643 7.38372 11.0065L7.50034 10.9998H21.0035H7.50034ZM3.49942 5.50684C4.32752 5.50684 4.99883 6.17815 4.99883 7.00625C4.99883 7.83435 4.32752 8.50567 3.49942 8.50567C2.67131 8.50567 2 7.83435 2 7.00625C2 6.17815 2.67131 5.50684 3.49942 5.50684ZM7.50034 5.99985H21.0035C21.5558 5.99985 22.0035 6.44756 22.0035 6.99985C22.0035 7.51268 21.6174 7.93535 21.1201 7.99312L21.0035 7.99985H7.50034C6.94805 7.99985 6.50034 7.55213 6.50034 6.99985C6.50034 6.48701 6.88638 6.06434 7.38372 6.00657L7.50034 5.99985H21.0035H7.50034Z" fill="#212121"/>
</svg>
