<svg width="24" height="24" viewBox="0 0 24 24" fill="none" xmlns="http://www.w3.org/2000/svg">
<path d="M10.6779 2.60312C11.3757 1.79889 12.6239 1.79889 13.3216 2.60312L21.567 12.1069C22.5501 13.24 21.7452 15.0037 20.2452 15.0037H17.0004V20.2507C17.0004 21.2172 16.2169 22.0007 15.2504 22.0007H8.75038C7.78388 22.0007 7.00038 21.2172 7.00038 20.2507V15.0037H3.75437C2.25432 15.0037 1.44949 13.24 2.43252 12.1069L10.6779 2.60312ZM12.1886 3.58611C12.0889 3.47122 11.9106 3.47122 11.8109 3.58611L3.56554 13.0899C3.4251 13.2518 3.54008 13.5037 3.75437 13.5037H7.75038C8.16459 13.5037 8.50038 13.8395 8.50038 14.2537V20.2507C8.50038 20.3888 8.61231 20.5007 8.75038 20.5007H15.2504C15.3885 20.5007 15.5004 20.3888 15.5004 20.2507V14.2537C15.5004 13.8395 15.8362 13.5037 16.2504 13.5037H20.2452C20.4595 13.5037 20.5745 13.2518 20.434 13.0899L12.1886 3.58611Z" fill="#212121"/>
</svg>
