<svg width="28" height="28" viewBox="0 0 28 28" fill="none" xmlns="http://www.w3.org/2000/svg">
<path d="M14 26C20.6274 26 26 20.6274 26 14C26 7.37258 20.6274 2 14 2C7.37258 2 2 7.37258 2 14C2 20.6274 7.37258 26 14 26ZM19.0303 13.7803C18.7374 14.0732 18.2626 14.0732 17.9697 13.7803L14.75 10.5607V19.25C14.75 19.6642 14.4142 20 14 20C13.5858 20 13.25 19.6642 13.25 19.25V10.5607L10.0303 13.7803C9.73744 14.0732 9.26256 14.0732 8.96967 13.7803C8.67678 13.4874 8.67678 13.0126 8.96967 12.7197L13.4697 8.21967C13.7626 7.92678 14.2374 7.92678 14.5303 8.21967L19.0303 12.7197C19.3232 13.0126 19.3232 13.4874 19.0303 13.7803Z" fill="#212121"/>
</svg>
