<svg width="20" height="20" viewBox="0 0 20 20" fill="none" xmlns="http://www.w3.org/2000/svg">
<path d="M11.1438 2.52993C10.5447 1.82336 9.45471 1.82336 8.85561 2.52993L2.23919 10.3333C1.6883 10.9831 2.15009 11.98 3.00192 11.98H6.00057V14.9967C6.00057 15.549 6.44828 15.9967 7.00057 15.9967H13.0006C13.5529 15.9967 14.0006 15.549 14.0006 14.9967V11.98H16.9975C17.8493 11.98 18.3111 10.9831 17.7602 10.3333L11.1438 2.52993ZM6.5 17C6.22386 17 6 17.2239 6 17.5C6 17.7761 6.22386 18 6.5 18H13.5C13.7761 18 14 17.7761 14 17.5C14 17.2239 13.7761 17 13.5 17H6.5Z" fill="#212121"/>
</svg>
