<svg width="20" height="20" viewBox="0 0 20 20" fill="none" xmlns="http://www.w3.org/2000/svg">
<path d="M11.5 2C12.1531 2 12.7091 2.4174 12.915 3H14.5C15.3284 3 16 3.67157 16 4.5V7.02441C14.9895 6.37713 13.7891 6 12.5 6C8.91015 6 6 8.91015 6 12.5C6 13.4793 6.22159 14.4088 6.61133 15.2441L6.06348 17.0693C5.97035 17.38 5.98438 17.7049 6.08887 18H5.5C4.67157 18 4 17.3284 4 16.5V4.5C4 3.67157 4.67157 3 5.5 3H7.08496C7.29088 2.4174 7.84689 2 8.5 2H11.5ZM8.5 3C8.22386 3 8 3.22386 8 3.5C8 3.77614 8.22386 4 8.5 4H11.5C11.7761 4 12 3.77614 12 3.5C12 3.22386 11.7761 3 11.5 3H8.5ZM12.5 7C15.5376 7 18 9.46243 18 12.5C18 15.5376 15.5376 18 12.5 18C11.5384 18 10.6349 17.7499 9.84766 17.3154L7.64355 17.9785C7.46742 18.0314 7.27656 17.9835 7.14648 17.8535C7.01643 17.7235 6.96864 17.5326 7.02148 17.3564L7.68262 15.1504C7.24894 14.3636 7 13.4606 7 12.5C7 9.46243 9.46243 7 12.5 7Z" fill="#212121"/>
</svg>
