<svg width="24" height="24" viewBox="0 0 24 24" fill="none" xmlns="http://www.w3.org/2000/svg">
<path d="M6 21C6.55228 21 7 20.5523 7 20C7 19.4477 6.55228 19 6 19C5.44772 19 5 18.5523 5 18V6C5 5.44772 5.44772 5 6 5C6.55228 5 7 4.55228 7 4C7 3.44772 6.55228 3 6 3C4.34315 3 3 4.34315 3 6V18C3 19.6569 4.34315 21 6 21Z" fill="#212121"/>
<path d="M13 5C13.5523 5 14 4.55228 14 4C14 3.44772 13.5523 3 13 3H11C10.4477 3 10 3.44772 10 4C10 4.55228 10.4477 5 11 5L13 5Z" fill="#212121"/>
<path d="M19 11C19 10.4477 19.4477 10 20 10C20.5523 10 21 10.4477 21 11V13C21 13.5523 20.5523 14 20 14C19.4477 14 19 13.5523 19 13V11Z" fill="#212121"/>
<path d="M14 20C14 20.5523 13.5523 21 13 21H11C10.4477 21 10 20.5523 10 20C10 19.4477 10.4477 19 11 19H13C13.5523 19 14 19.4477 14 20Z" fill="#212121"/>
<path d="M18 3C17.4477 3 17 3.44772 17 4C17 4.55228 17.4477 5 18 5C18.5523 5 19 5.44772 19 6C19 6.55228 19.4477 7 20 7C20.5523 7 21 6.55228 21 6C21 4.34315 19.6569 3 18 3Z" fill="#212121"/>
<path d="M17 20C17 20.5523 17.4477 21 18 21C19.6569 21 21 19.6569 21 18C21 17.4477 20.5523 17 20 17C19.4477 17 19 17.4477 19 18C19 18.5523 18.5523 19 18 19C17.4477 19 17 19.4477 17 20Z" fill="#212121"/>
</svg>
