<svg width="32" height="32" viewBox="0 0 32 32" fill="none" xmlns="http://www.w3.org/2000/svg">
<path d="M26.3289 27.7429L28.2932 29.7071C28.6837 30.0976 29.3169 30.0976 29.7074 29.7071C30.0979 29.3166 30.0979 28.6834 29.7074 28.2929L3.7071 2.29319C3.31657 1.90267 2.6834 1.90268 2.29288 2.29321C1.90237 2.68374 1.90237 3.3169 2.2929 3.70742L11.9979 13.4122V13.4381C11.9979 14.2517 11.7498 15.046 11.2867 15.715L5.57661 23.9628C4.10271 26.0918 5.62647 29 8.21585 29H23.78C24.8633 29 25.7601 28.4909 26.3289 27.7429ZM24.88 26.294C24.6946 26.6975 24.2927 27 23.78 27H8.21585C7.23979 27 6.66541 25.9038 7.221 25.1013L10.7707 19.974C10.8438 19.991 10.92 20 10.9984 20H18.5859L24.88 26.294ZM16.5858 18H12.1373L12.9311 16.8534C13.2919 16.3322 13.5657 15.7602 13.7456 15.1598L16.5858 18ZM17.9979 13.4381C17.9979 13.819 18.0342 14.197 18.1051 14.5673L23.9857 20.4478L20.7091 15.715C20.246 15.046 19.9979 14.2517 19.9979 13.4381V5H20.9984C21.5506 5 21.9984 4.55229 21.9984 4C21.9984 3.44772 21.5506 3 20.9984 3H10.9984C10.4461 3 9.99835 3.44772 9.99835 4C9.99835 4.55229 10.4461 5 10.9984 5H11.9979V8.46026L13.9979 10.4602V5H17.9979V13.4381Z" fill="#212121"/>
</svg>
