<svg width="24" height="24" viewBox="0 0 24 24" fill="none" xmlns="http://www.w3.org/2000/svg">
<path d="M12 6C14.8884 6 17.7796 6.35991 20.6723 7.07921C21.4037 7.26107 21.9306 7.88811 21.9937 8.62811L22 8.77752V11.8731C22 14.0814 20.264 15.8843 18.0823 15.9915L17.8765 15.9966H15.4074C14.6828 15.9966 13.9903 15.7107 13.4777 15.2059L13.3425 15.0628L12.6871 14.3177C12.6611 14.2882 12.6333 14.2604 12.6038 14.2345C12.2563 13.9295 11.7425 13.9357 11.4031 14.2308L11.3151 14.3185L10.6639 15.0605C10.1853 15.6059 9.5125 15.938 8.79396 15.9895L8.59698 15.9966H6.12637C3.9165 15.9966 2.11236 14.2594 2.00505 12.0761L2 11.8702V8.77749C2 7.97366 2.54761 7.2732 3.3277 7.07921C6.22037 6.35991 9.11156 6 12 6ZM16.7517 9L16.6499 9.00658C16.2837 9.05526 16.0007 9.36831 15.9997 9.748C15.9987 10.1277 16.28 10.4422 16.6459 10.4929L16.7477 10.5L18.2477 10.504L18.3495 10.4974C18.7157 10.4487 18.9987 10.1357 18.9997 9.756C19.0007 9.37631 18.7194 9.06176 18.3534 9.01112L18.2517 9.004L16.7517 9ZM7.25033 9H5.74708L5.64531 9.00685C5.27923 9.05651 4.99708 9.3703 4.99708 9.75C4.99708 10.1297 5.27923 10.4435 5.64531 10.4932L5.74708 10.5H7.25033L7.3521 10.4932C7.71817 10.4435 8.00033 10.1297 8.00033 9.75C8.00033 9.3703 7.71817 9.05651 7.3521 9.00685L7.25033 9ZM12 8.5C11.5858 8.5 11.25 8.83579 11.25 9.25C11.25 9.66421 11.5858 10 12 10C12.4142 10 12.75 9.66421 12.75 9.25C12.75 8.83579 12.4142 8.5 12 8.5Z" fill="#212121"/>
</svg>
