<svg width="16" height="16" viewBox="0 0 16 16" fill="none" xmlns="http://www.w3.org/2000/svg">
<path d="M2 1.5C2 1.22386 2.22386 1 2.5 1H5.5C5.77614 1 6 1.22386 6 1.5V6H9.35418C8.52375 6.73294 8 7.80531 8 9V14C8 14.3643 8.09739 14.7058 8.26756 15H2C1.44772 15 1 14.5523 1 14V9C1 7.34315 2.34315 6 4 6V9.5C4 9.77614 4.22386 10 4.5 10C4.77614 10 5 9.77614 5 9.5V4H2.5C2.22386 4 2 3.77614 2 3.5V1.5ZM12 6C10.3431 6 9 7.34315 9 9V14C9 14.5523 9.44772 15 10 15H14C14.5523 15 15 14.5523 15 14V9C15 7.34315 13.6569 6 12 6ZM11.5 9H12.5C12.7761 9 13 9.22386 13 9.5C13 9.77614 12.7761 10 12.5 10H11.5C11.2239 10 11 9.77614 11 9.5C11 9.22386 11.2239 9 11.5 9Z" fill="#212121"/>
</svg>
