<svg width="24" height="24" viewBox="0 0 24 24" fill="none" xmlns="http://www.w3.org/2000/svg">
<path d="M7.94083 2.66035C7.75325 2.1409 7.18008 1.87186 6.66063 2.05944C6.14117 2.24702 5.87214 2.82019 6.05972 3.33964L8.3107 9.57312C8.45169 9.96356 8.213 10.3881 7.80614 10.4706C7.48182 10.5363 7.15727 10.359 7.03733 10.0506L4.93227 4.63755C4.7321 4.12282 4.15255 3.86782 3.63782 4.06799C3.12309 4.26816 2.86809 4.84771 3.06826 5.36244L6.22691 13.4847C4.52529 13.3011 3.30986 13.7342 2.57774 14.153C2.14995 14.3977 1.94983 14.848 2.01213 15.2891C2.07089 15.7052 2.35063 16.0558 2.73896 16.2258C4.07452 16.8106 7.12544 18.3139 9.73695 20.8052C10.7627 21.7837 12.2588 22.2767 13.6999 21.8454L16.4985 21.0079C17.3299 20.7591 18.0226 20.1218 18.2738 19.2452C18.5738 18.1983 19 16.4252 19 14.75C19 13.6 18.5966 12.1648 18.2292 11.08C17.5024 8.93425 16.6879 6.81434 15.9451 4.67236C15.7641 4.15056 15.1944 3.87424 14.6726 4.0552C14.1508 4.23615 13.8745 4.80584 14.0555 5.32764L15.0488 8.19194C15.1879 8.59307 14.9415 9.02484 14.5254 9.10915C14.1836 9.17839 13.8429 8.98604 13.7256 8.65764L11.942 3.66366C11.7563 3.14355 11.184 2.8725 10.6639 3.05826C10.1438 3.24401 9.87278 3.81622 10.0585 4.33633L11.6766 8.86695C11.8206 9.27007 11.5738 9.70717 11.1543 9.79218C10.8127 9.86138 10.472 9.66984 10.3537 9.34205L7.94083 2.66035ZM18.6339 2.32234C18.8701 1.98207 19.3375 1.89769 19.6777 2.13389C20.486 2.69491 21.1561 3.67754 21.5758 4.76063C21.9997 5.85476 22.2051 7.14478 21.9888 8.37941C21.9174 8.78741 21.5287 9.06023 21.1207 8.98876C20.7127 8.91729 20.4398 8.5286 20.5113 8.1206C20.6712 7.20786 20.5236 6.19702 20.1771 5.30257C19.8262 4.39708 19.3083 3.7034 18.8224 3.36612C18.4821 3.12993 18.3978 2.66261 18.6339 2.32234ZM18.2987 4.23867C18.0163 3.93565 17.5417 3.91893 17.2387 4.20133C16.9356 4.48374 16.9189 4.95831 17.2013 5.26134C17.6189 5.70944 18 6.251 18 7.25C18 7.66422 18.3358 8 18.75 8C19.1642 8 19.5 7.66422 19.5 7.25C19.5 5.749 18.8773 4.85959 18.2987 4.23867Z" fill="#212121"/>
</svg>
