<svg width="24" height="24" viewBox="0 0 24 24" fill="none" xmlns="http://www.w3.org/2000/svg">
<path d="M17 2C18.6569 2 20 3.34315 20 5V13.518C19.6972 13.5617 19.4053 13.6848 19.1568 13.8835L16.6568 15.8835C15.9021 16.4873 15.7798 17.5885 16.3835 18.3432C16.9008 18.9898 17.7832 19.1723 18.5001 18.8316V19.5986C18.0588 19.8539 17.5465 20 17 20H5C3.34315 20 2 18.6569 2 17V5C2 3.34315 3.34315 2 5 2H17ZM15.4697 6.96967L9 13.4393L6.53033 10.9697C6.23744 10.6768 5.76256 10.6768 5.46967 10.9697C5.17678 11.2626 5.17678 11.7374 5.46967 12.0303L8.46967 15.0303C8.76256 15.3232 9.23744 15.3232 9.53033 15.0303L16.5303 8.03033C16.8232 7.73744 16.8232 7.26256 16.5303 6.96967C16.2374 6.67678 15.7626 6.67678 15.4697 6.96967Z" fill="#212121"/>
<path d="M21 15.25C21 14.9617 20.8348 14.6989 20.5749 14.574C20.3151 14.4491 20.0066 14.4843 19.7815 14.6644L17.2815 16.6644C16.9581 16.9231 16.9056 17.3951 17.1644 17.7185C17.4231 18.042 17.8951 18.0944 18.2185 17.8357L19.5 16.8105V21.25C19.5 21.6642 19.8358 22 20.25 22C20.6642 22 21 21.6642 21 21.25V15.25Z" fill="#212121"/>
</svg>
