<svg width="28" height="28" viewBox="0 0 28 28" fill="none" xmlns="http://www.w3.org/2000/svg">
<path d="M21.0689 9.00001C23.24 9.00043 25.0004 10.7605 25.0005 12.9317C25.0005 13.9742 24.5862 14.9746 23.8492 15.7119L16.0865 23.4746C15.6312 23.9299 15.0658 24.2609 14.4459 24.4346L8.95269 25.9727C8.69192 26.0456 8.41181 25.9717 8.22027 25.7803C8.02872 25.5888 7.95491 25.3088 8.02788 25.0479L9.56597 19.5547C9.73962 18.9346 10.0706 18.3694 10.5259 17.9141L18.2886 10.1514C19.026 9.41434 20.0263 9.00001 21.0689 9.00001ZM13.2515 3C13.6654 3.00043 14.0015 3.33605 14.0015 3.75V7.50001H15.7515C16.1654 7.50043 16.5015 7.83606 16.5015 8.25001C16.5015 8.66396 16.1654 8.99958 15.7515 9.00001H14.0015V13.0254L12.5015 14.5254V3.75C12.5015 3.33579 12.8373 3 13.2515 3ZM9.75152 4C10.1527 4.00042 10.4831 4.31687 10.5005 4.71778V4.72168C10.5062 4.74937 10.5023 4.78164 10.5025 4.80957C10.5029 4.86164 10.5026 4.93445 10.4996 5.02539C10.4935 5.20728 10.4767 5.46351 10.4361 5.77344C10.3551 6.39161 10.177 7.23622 9.78374 8.14259C8.98664 9.97937 7.32194 12.0293 3.95366 12.9727C3.55492 13.0842 3.14061 12.8509 3.02886 12.4522C2.9173 12.0533 3.15055 11.639 3.54937 11.5274C6.42994 10.7205 7.76651 9.02035 8.40679 7.54493C8.73201 6.79541 8.88234 6.09261 8.94976 5.57813C8.95322 5.55167 8.95453 5.52539 8.95757 5.5H3.75152C3.3373 5.5 3.00152 5.16422 3.00152 4.75C3.00152 4.33579 3.3373 4 3.75152 4H9.75152Z" fill="#212121"/>
</svg>
