<svg width="24" height="24" viewBox="0 0 24 24" fill="none" xmlns="http://www.w3.org/2000/svg">
<path d="M3.75 5C3.33579 5 3 5.33579 3 5.75V11C3 16.0012 5.95756 19.6757 11.7251 21.9478C11.9018 22.0174 12.0982 22.0174 12.2749 21.9478C12.4188 21.8911 12.561 21.8335 12.7014 21.7751C11.0651 20.5947 10 18.6717 10 16.5C10 12.9101 12.9101 10 16.5 10C18.2341 10 19.8095 10.679 20.975 11.7857C20.9917 11.5275 21 11.2656 21 11V5.75C21 5.33579 20.6642 5 20.25 5C17.5866 5 14.992 4.05652 12.45 2.15C12.1833 1.95 11.8167 1.95 11.55 2.15C9.00797 4.05652 6.41341 5 3.75 5ZM16.5 22C19.5376 22 22 19.5376 22 16.5C22 13.4624 19.5376 11 16.5 11C13.4624 11 11 13.4624 11 16.5C11 19.5376 13.4624 22 16.5 22ZM13.1911 18.7482C12.755 18.1075 12.5 17.3335 12.5 16.5C12.5 14.2909 14.2909 12.5 16.5 12.5C17.3335 12.5 18.1075 12.755 18.7482 13.1911L13.1911 18.7482ZM14.2518 19.8089L19.8089 14.2518C20.245 14.8925 20.5 15.6665 20.5 16.5C20.5 18.7091 18.7091 20.5 16.5 20.5C15.6665 20.5 14.8925 20.245 14.2518 19.8089Z" fill="#212121"/>
</svg>
