<?xml version="1.0" encoding="UTF-8"?>
<svg width="24px" height="24px" viewBox="0 0 24 24" version="1.1" xmlns="http://www.w3.org/2000/svg" xmlns:xlink="http://www.w3.org/1999/xlink">
    <!-- Generator: Sketch 59.1 (86144) - https://sketch.com -->
    <title>ic_document_search_24_regular</title>
    <desc>Created with Sketch.</desc>
    <g id="ðŸ”-Product-Icons" stroke="none" stroke-width="1" fill="none" fill-rule="evenodd">
        <g id="ic_document_search_24_regular" fill="#212121">
            <path d="M4.99902288,18.6193632 C5.4747131,18.8832447 5.98013165,19.0775102 6.49985691,19.2011028 L6.5,19.75 C6.5,20.1642136 6.83578644,20.5 7.25,20.5 L12.1839161,20.499 L13.6839161,21.999 L7.25,22 C6.00735931,22 5,20.9926407 5,19.75 L4.99902288,18.6193632 Z M13.1289096,2 C13.7254427,2 14.2975605,2.23689125 14.7194834,2.6585934 L17.531355,5.46899352 L20.3390003,8.28086677 C20.7602248,8.70272584 20.996813,9.2745088 20.996813,9.8706591 L20.996813,19.75 C20.996813,20.9926407 19.9894537,22 18.746813,22 L17.0250294,21.9994874 C17.2434656,21.5382729 17.250477,20.9946479 17.0280963,20.4991049 L18.746813,20.5 C19.1610266,20.5 19.496813,20.1642136 19.496813,19.75 L19.496,10.003 L15.25,10.0038905 C14.059136,10.0038905 13.0843551,9.07872894 13.0051908,7.90793935 L13,7.75389054 L13,3.5 L7.25,3.5 C6.83578644,3.5 6.5,3.83578644 6.5,4.25 L6.49966809,7.67117089 C5.98079157,7.79427721 5.47529352,7.98818008 4.9985614,8.2528795 L5,4.25 C5,3.00735931 6.00735931,2 7.25,2 L13.1289096,2 Z M4.44272106,9.94613857 C6.36634915,8.02251048 9.48516649,8.02251048 11.4087946,9.94613857 C13.1311812,11.6685252 13.3113697,14.3491109 11.94936,16.2719826 L11.8080184,16.4616805 L16.0253699,20.6800252 L16.1002367,20.7667483 C16.3248369,21.0694513 16.2998813,21.4990168 16.0253699,21.7735281 C15.7508586,22.0480395 15.3212931,22.0729951 15.0185901,21.8483949 L14.931867,21.7735281 L10.6754475,17.5171346 C8.75993647,18.8086092 6.13747729,18.6069683 4.44272106,16.9122121 C2.51909298,14.988584 2.51909298,11.8697666 4.44272106,9.94613857 Z M10.3152916,11.0396415 C8.99558854,9.71993844 6.85592709,9.71993844 5.53622402,11.0396415 C4.21652094,12.3593446 4.21652094,14.499006 5.53622402,15.8187091 C6.85592709,17.1384122 8.99558854,17.1384122 10.3152916,15.8187091 C11.6349947,14.499006 11.6349947,12.3593446 10.3152916,11.0396415 Z M14.5,4.56 L14.5,7.75389054 C14.5,8.1335863 14.7821539,8.4473815 15.1482294,8.49704392 L15.25,8.50389054 L18.441,8.503 L14.5,4.56 Z" id="ðŸŽ¨Color"></path>
        </g>
    </g>
</svg>