<svg width="20" height="20" viewBox="0 0 20 20" fill="none" xmlns="http://www.w3.org/2000/svg">
<path d="M6.5 7C7.88071 7 9 5.88071 9 4.5C9 3.11929 7.88071 2 6.5 2C5.11929 2 4 3.11929 4 4.5C4 5.88071 5.11929 7 6.5 7ZM6.5 6C5.67157 6 5 5.32843 5 4.5C5 3.67157 5.67157 3 6.5 3C7.32843 3 8 3.67157 8 4.5C8 5.32843 7.32843 6 6.5 6ZM6.5 17.6181C6.23462 17.8556 5.88418 18 5.5 18C4.67157 18 4 17.3284 4 16.5V13.4465C3.84361 13.5018 3.67532 13.5319 3.5 13.5319C2.67157 13.5319 2 12.8603 2 12.0319V10.5C2 9.11929 3.11929 8 4.5 8H8.5C9.31791 8 10.0441 8.39278 10.5002 9H15.5C16.8807 9 18 10.1193 18 11.5V12.5C18 13.3284 17.3284 14 16.5 14C16.3247 14 16.1564 13.9699 16 13.9146V16.5C16 17.3284 15.3284 18 14.5 18C14.1158 18 13.7654 17.8556 13.5 17.6181C13.2346 17.8556 12.8842 18 12.5 18C11.6716 18 11 17.3284 11 16.5V12.0353C10.9982 12.8621 10.3273 13.5319 9.5 13.5319C9.32468 13.5319 9.15639 13.5018 9 13.4465V16.5C9 17.3284 8.32843 18 7.5 18C7.11582 18 6.76538 17.8556 6.5 17.6181ZM3 10.5V12.0319C3 12.308 3.22386 12.5319 3.5 12.5319C3.77614 12.5319 4 12.308 4 12.0319V10.5C4 10.2239 4.22386 10 4.5 10C4.77614 10 5 10.2239 5 10.5V16.5C5 16.7761 5.22386 17 5.5 17C5.77614 17 6 16.7761 6 16.5V13.5C6 13.2239 6.22386 13 6.5 13C6.77614 13 7 13.2239 7 13.5V16.5C7 16.7761 7.22386 17 7.5 17C7.77614 17 8 16.7761 8 16.5V10.5C8 10.2239 8.22386 10 8.5 10C8.77614 10 9 10.2239 9 10.5V12.0319C9 12.308 9.22386 12.5319 9.5 12.5319C9.77614 12.5319 10 12.308 10 12.0319V10.5C10 9.67157 9.32843 9 8.5 9H4.5C3.67157 9 3 9.67157 3 10.5ZM10.95 10C10.9828 10.1616 11 10.3288 11 10.5V11H12V16.5C12 16.7761 12.2239 17 12.5 17C12.7761 17 13 16.7761 13 16.5L13 14.5C13 14.2239 13.2239 14 13.5 14C13.7761 14 14 14.2239 14 14.5V16.5C14 16.7761 14.2239 17 14.5 17C14.7761 17 15 16.7761 15 16.5V11.5C15 11.2239 15.2239 11 15.5 11C15.7761 11 16 11.2239 16 11.5V12.5C16 12.7761 16.2239 13 16.5 13C16.7761 13 17 12.7761 17 12.5V11.5C17 10.6716 16.3284 10 15.5 10H10.95ZM16 6C16 7.10457 15.1046 8 14 8C12.8954 8 12 7.10457 12 6C12 4.89543 12.8954 4 14 4C15.1046 4 16 4.89543 16 6ZM15 6C15 5.44772 14.5523 5 14 5C13.4477 5 13 5.44772 13 6C13 6.55228 13.4477 7 14 7C14.5523 7 15 6.55228 15 6Z" fill="#212121"/>
</svg>
