<svg width="28" height="28" viewBox="0 0 28 28" fill="none" xmlns="http://www.w3.org/2000/svg">
<path d="M20.25 4H18.45C18.22 2.86 17.21 2 16 2H12C10.79 2 9.78 2.86 9.55 4H7.75C6.23 4 5 5.23 5 6.75V23.25C5 24.77 6.23 26 7.75 26H9.67C9.56 25.77 9.5 25.52 9.5 25.25V22.26C8.75 22.48 7.91 22.18 7.49 21.47C7 20.64 7.28 19.57 8.11 19.08C8.51 18.84 8.94 18.41 9.33 17.85C9.83 17.13 10.74 16.83 11.59 17.1C12.22 17.29 12.7 17.78 12.9 18.38C14.22 17.1 15.92 16.68 17.49 17.24C18.28 17.53 18.94 18.03 19.38 18.66C19.41 18.61 19.46 18.56 19.5 18.52C20.5 17.52 21.76 16.99 23 17.01V6.75C23 5.23 21.77 4 20.25 4ZM12 5.5C11.45 5.5 11 5.05 11 4.5C11 3.95 11.45 3.5 12 3.5H16C16.55 3.5 17 3.95 17 4.5C17 5.05 16.55 5.5 16 5.5H12ZM14.0001 26.0004H18.2201C18.6301 26.0004 18.9701 25.6604 18.9701 25.2504C18.9701 24.8404 18.6301 24.5004 18.2201 24.5004H15.0801C15.4401 24.0404 16.1401 23.4104 17.5101 22.6804C18.5001 22.1604 19.0301 21.3304 18.9601 20.4104C18.9001 19.4504 18.1601 18.5504 17.1301 18.1804C15.8801 17.7304 14.5001 18.1304 13.4401 19.2404C13.1601 19.5404 13.1701 20.0104 13.4701 20.3004C13.7701 20.5804 14.2401 20.5704 14.5301 20.2704C15.1801 19.5904 15.9501 19.3404 16.6301 19.5904C17.1001 19.7604 17.4501 20.1504 17.4801 20.5204C17.5101 20.9204 17.1401 21.1904 16.8301 21.3604C13.2101 23.2704 13.2101 25.0104 13.2501 25.3404C13.3001 25.7104 13.6201 26.0004 14.0001 26.0004ZM22.9099 25.9998C22.0599 25.9998 21.0899 25.6698 20.2099 24.7698C19.9199 24.4698 19.9199 23.9998 20.2099 23.7098C20.5099 23.4198 20.9799 23.4298 21.2699 23.7098C22.1299 24.5898 23.0599 24.5998 23.6499 24.3298C24.0199 24.1498 24.2699 23.8498 24.2399 23.6098C24.2099 23.3498 23.7899 22.9598 22.7099 22.7298C22.3599 22.6598 22.1099 22.3498 22.1099 21.9998C22.1099 21.6498 22.3599 21.3398 22.7099 21.2698C23.7799 21.0498 24.1999 20.6598 24.2399 20.3898C24.2699 20.1498 24.0199 19.8498 23.6599 19.6698C23.0799 19.3898 22.1499 19.3998 21.2799 20.2798C20.9899 20.5698 20.5099 20.5798 20.2199 20.2798C19.9199 19.9898 19.9199 19.5198 20.2199 19.2198C21.6399 17.7698 23.2699 17.7998 24.3199 18.3098C25.2899 18.7798 25.8499 19.6698 25.7399 20.5698C25.6899 20.9498 25.4999 21.5198 24.8399 21.9998C25.4999 22.4898 25.6899 23.0498 25.7399 23.4298C25.8499 24.3298 25.2899 25.2198 24.3099 25.6898C23.9099 25.8798 23.4299 25.9998 22.9099 25.9998ZM11.245 25.9999L11.25 25.9999H11.24L11.245 25.9999ZM10.5 25.2499C10.5 25.6583 10.8373 25.9972 11.245 25.9999C11.6528 25.9972 11.99 25.6583 11.99 25.2499V18.9899C11.99 18.5599 11.7 18.1799 11.28 18.0499C10.85 17.9099 10.39 18.0599 10.14 18.4199C9.81004 18.8999 9.28004 19.5399 8.61004 19.9399C8.26005 20.1499 8.14005 20.6099 8.35004 20.9699C8.56004 21.3199 9.02005 21.4399 9.38004 21.2299C9.80005 20.9799 10.18 20.6599 10.5 20.3399V25.2499Z" fill="#212121"/>
</svg>
