<svg width="24" height="24" viewBox="0 0 24 24" fill="none" xmlns="http://www.w3.org/2000/svg">
<path d="M5.75 3C4.23122 3 3 4.23122 3 5.75V18.25C3 19.7688 4.23122 21 5.75 21H18.25C19.7688 21 21 19.7688 21 18.25V5.75C21 4.23122 19.7688 3 18.25 3H5.75ZM4.5 5.75C4.5 5.05964 5.05964 4.5 5.75 4.5H18.25C18.9404 4.5 19.5 5.05964 19.5 5.75V18.25C19.5 18.9404 18.9404 19.5 18.25 19.5H5.75C5.05964 19.5 4.5 18.9404 4.5 18.25V5.75ZM16.75 9C17.1642 9 17.5 9.33579 17.5 9.75C17.5 10.1642 17.1642 10.5 16.75 10.5H7.25C6.83579 10.5 6.5 10.1642 6.5 9.75C6.5 9.33579 6.83579 9 7.25 9H16.75ZM16.75 13C17.1642 13 17.5 13.3358 17.5 13.75C17.5 14.1642 17.1642 14.5 16.75 14.5H10.25C9.83579 14.5 9.5 14.1642 9.5 13.75C9.5 13.3358 9.83579 13 10.25 13H16.75Z" fill="#212121"/>
</svg>
