<?xml version="1.0" encoding="UTF-8"?>
<svg width="24px" height="24px" viewBox="0 0 24 24" version="1.1" xmlns="http://www.w3.org/2000/svg" xmlns:xlink="http://www.w3.org/1999/xlink">
    <!-- Generator: Sketch 59.1 (86144) - https://sketch.com -->
    <title>ic_emoji_24_regular</title>
    <desc>Created with Sketch.</desc>
    <g id="ðŸ”-Product-Icons" stroke="none" stroke-width="1" fill="none" fill-rule="evenodd">
        <g id="ic_emoji_24_regular" fill="#212121">
            <path d="M12.0000002,1.99896738 C17.523704,1.99896738 22.0015507,6.47681407 22.0015507,12.0005179 C22.0015507,17.5242217 17.523704,22.0020684 12.0000002,22.0020684 C6.47629639,22.0020684 1.99844971,17.5242217 1.99844971,12.0005179 C1.99844971,6.47681407 6.47629639,1.99896738 12.0000002,1.99896738 Z M12.0000002,3.49896738 C7.30472352,3.49896738 3.49844971,7.30524119 3.49844971,12.0005179 C3.49844971,16.6957946 7.30472352,20.5020684 12.0000002,20.5020684 C16.6952769,20.5020684 20.5015507,16.6957946 20.5015507,12.0005179 C20.5015507,7.30524119 16.6952769,3.49896738 12.0000002,3.49896738 Z M8.46174078,14.7838355 C9.31087697,15.8615555 10.6018926,16.5020843 11.9999849,16.5020843 C13.396209,16.5020843 14.6856803,15.8632816 15.5349376,14.7880078 C15.7916692,14.4629512 16.2633016,14.4075628 16.5883582,14.6642944 C16.9134148,14.9210259 16.9688032,15.3926584 16.7120717,15.717715 C15.5813083,17.1494133 13.8601276,18.0020843 11.9999849,18.0020843 C10.1373487,18.0020843 8.41411759,17.1471146 7.28351576,15.7121597 C7.02716611,15.3868018 7.08310832,14.9152347 7.40846617,14.6588851 C7.73382403,14.4025354 8.20539113,14.4584777 8.46174078,14.7838355 Z M9.00044779,8.75115873 C9.69041108,8.75115873 10.2497368,9.3104845 10.2497368,10.0004478 C10.2497368,10.6904111 9.69041108,11.2497368 9.00044779,11.2497368 C8.3104845,11.2497368 7.75115873,10.6904111 7.75115873,10.0004478 C7.75115873,9.3104845 8.3104845,8.75115873 9.00044779,8.75115873 Z M15.0004478,8.75115873 C15.6904111,8.75115873 16.2497368,9.3104845 16.2497368,10.0004478 C16.2497368,10.6904111 15.6904111,11.2497368 15.0004478,11.2497368 C14.3104845,11.2497368 13.7511587,10.6904111 13.7511587,10.0004478 C13.7511587,9.3104845 14.3104845,8.75115873 15.0004478,8.75115873 Z" id="ðŸŽ¨-Color"></path>
        </g>
    </g>
</svg>