<svg width="20" height="20" viewBox="0 0 20 20" fill="none" xmlns="http://www.w3.org/2000/svg">
<path d="M5 3C3.89543 3 3 3.89543 3 5V15C3 16.1046 3.89543 17 5 17H15C16.1046 17 17 16.1046 17 15V5C17 3.89543 16.1046 3 15 3H5ZM10.5 5C10.7761 5 11 5.22386 11 5.5V14.5C11 14.7761 10.7761 15 10.5 15C10.2239 15 10 14.7761 10 14.5V5.5C10 5.22386 10.2239 5 10.5 5ZM13.5 5C13.7761 5 14 5.22386 14 5.5V14.5C14 14.7761 13.7761 15 13.5 15C13.2239 15 13 14.7761 13 14.5V5.5C13 5.22386 13.2239 5 13.5 5Z" fill="#212121"/>
</svg>
