<svg width="20" height="20" viewBox="0 0 20 20" fill="none" xmlns="http://www.w3.org/2000/svg">
<path d="M3 5.5V14.5C3 15.8807 4.11929 17 5.5 17H10.0854C9.89933 16.4723 10.0173 15.8614 10.4393 15.4393L11.4393 14.4393C12.0251 13.8536 12.9749 13.8536 13.5607 14.4393C13.7244 14.6031 13.8424 14.7953 13.9146 15H14.5C14.7761 15 15 14.7761 15 14.5V13.9146C14.7953 13.8424 14.6031 13.7244 14.4393 13.5607C13.8536 12.9749 13.8536 12.0251 14.4393 11.4393L15.4393 10.4393C15.8614 10.0173 16.4723 9.89933 17 10.0854V5.5C17 4.11929 15.8807 3 14.5 3H5.5C4.11929 3 3 4.11929 3 5.5ZM6 5H7C7.55228 5 8 5.44772 8 6V7C8 7.55228 7.55228 8 7 8H6C5.44772 8 5 7.55228 5 7V6C5 5.44772 5.44772 5 6 5ZM9 6C9 5.44772 9.44772 5 10 5H14C14.5523 5 15 5.44772 15 6V7C15 7.55228 14.5523 8 14 8H10C9.44772 8 9 7.55228 9 7V6ZM7 9C7.55228 9 8 9.44772 8 10V14C8 14.5523 7.55228 15 7 15H6C5.44772 15 5 14.5523 5 14V10C5 9.44772 5.44772 9 6 9H7ZM16.8536 11.1464C16.6583 10.9512 16.3417 10.9512 16.1464 11.1464L15.1464 12.1464C14.9512 12.3417 14.9512 12.6583 15.1464 12.8536C15.3417 13.0488 15.6583 13.0488 15.8536 12.8536L16 12.7071V14.5C16 15.3284 15.3284 16 14.5 16H12.7071L12.8536 15.8536C13.0488 15.6583 13.0488 15.3417 12.8536 15.1464C12.6583 14.9512 12.3417 14.9512 12.1464 15.1464L11.1464 16.1464C10.9512 16.3417 10.9512 16.6583 11.1464 16.8536L12.1464 17.8536C12.3417 18.0488 12.6583 18.0488 12.8536 17.8536C13.0488 17.6583 13.0488 17.3417 12.8536 17.1464L12.7071 17H14.5C15.8807 17 17 15.8807 17 14.5V12.7071L17.1464 12.8536C17.3417 13.0488 17.6583 13.0488 17.8536 12.8536C18.0488 12.6583 18.0488 12.3417 17.8536 12.1464L16.8536 11.1464Z" fill="#212121"/>
</svg>
