<svg width="20" height="20" viewBox="0 0 20 20" fill="none" xmlns="http://www.w3.org/2000/svg">
<path d="M4.5 3C3.67157 3 3 3.67157 3 4.5V15.5C3 16.3284 3.67157 17 4.5 17H9C9.82843 17 10.5 16.3284 10.5 15.5V10.5H15.5C16.3284 10.5 17 9.82843 17 9V4.5C17 3.67157 16.3284 3 15.5 3H4.5ZM15.5 9.5H10.5V4H15.5C15.7761 4 16 4.22386 16 4.5V9C16 9.27614 15.7761 9.5 15.5 9.5ZM9.5 9.5H4V4.5C4 4.22386 4.22386 4 4.5 4H9.5V9.5ZM9.5 10.5V15.5C9.5 15.7761 9.27614 16 9 16H4.5C4.22386 16 4 15.7761 4 15.5V10.5H9.5ZM13.8536 13.1464C13.6583 12.9512 13.3417 12.9512 13.1464 13.1464C12.9512 13.3417 12.9512 13.6583 13.1464 13.8536L14.7929 15.5L13.1464 17.1464C12.9512 17.3417 12.9512 17.6583 13.1464 17.8536C13.3417 18.0488 13.6583 18.0488 13.8536 17.8536L15.5 16.2071L17.1464 17.8536C17.3417 18.0488 17.6583 18.0488 17.8536 17.8536C18.0488 17.6583 18.0488 17.3417 17.8536 17.1464L16.2071 15.5L17.8536 13.8536C18.0488 13.6583 18.0488 13.3417 17.8536 13.1464C17.6583 12.9512 17.3417 12.9512 17.1464 13.1464L15.5 14.7929L13.8536 13.1464Z" fill="#212121"/>
</svg>
