<svg width="20" height="20" viewBox="0 0 20 20" fill="none" xmlns="http://www.w3.org/2000/svg">
<path d="M3 3.75C3 3.33579 3.33579 3 3.75 3H13.75C14.1642 3 14.5 3.33579 14.5 3.75V5.25C14.5 5.66421 14.1642 6 13.75 6C13.3358 6 13 5.66421 13 5.25V4.5H9.5V12.2055C9.179 12.9039 9 13.681 9 14.5C9 15.4002 9.21628 16.2499 9.59971 17H6.75C6.33579 17 6 16.6642 6 16.25C6 15.8358 6.33579 15.5 6.75 15.5H8V4.5H4.5V5.25C4.5 5.66421 4.16421 6 3.75 6C3.33579 6 3 5.66421 3 5.25V3.75ZM19 14.5C19 16.9853 16.9853 19 14.5 19C12.0147 19 10 16.9853 10 14.5C10 12.0147 12.0147 10 14.5 10C16.9853 10 19 12.0147 19 14.5ZM15 12.5C15 12.2239 14.7761 12 14.5 12C14.2239 12 14 12.2239 14 12.5V14H12.5C12.2239 14 12 14.2239 12 14.5C12 14.7761 12.2239 15 12.5 15H14V16.5C14 16.7761 14.2239 17 14.5 17C14.7761 17 15 16.7761 15 16.5V15H16.5C16.7761 15 17 14.7761 17 14.5C17 14.2239 16.7761 14 16.5 14H15V12.5Z" fill="#212121"/>
</svg>
