<svg width="28" height="28" viewBox="0 0 28 28" fill="none" xmlns="http://www.w3.org/2000/svg">
<path d="M14.395 3.83838C15.1932 3.09482 16.5 3.65704 16.5 4.74407V14.1468C14.3968 15.4744 13 17.8179 13 20.4875C13 21.3688 13.1522 22.2146 13.4318 23L9.45832 19.3017C9.134 18.9998 8.70619 18.8318 8.26174 18.8318H5.25C3.45507 18.8318 2 17.3865 2 15.6037V12.1351C2 10.3523 3.45508 8.90696 5.25 8.90696H8.26119C8.70587 8.90696 9.13388 8.73881 9.45826 8.43667L14.395 3.83838ZM16.7962 16.6982C17.111 17.7885 16.4566 18.9219 15.355 19.1944L14.3315 19.4477C14.2779 19.7902 14.25 20.1417 14.25 20.5C14.25 20.8749 14.2805 21.2423 14.3391 21.5998L15.3147 21.8348C16.4272 22.1027 17.0885 23.2477 16.7646 24.3452L16.4408 25.4427C16.9588 25.9033 17.5501 26.2773 18.194 26.5433L19.0368 25.6571C19.8253 24.8278 21.1476 24.828 21.9359 25.6576L22.7856 26.5517C23.4282 26.2889 24.0189 25.9187 24.5372 25.4622L24.2023 24.3024C23.8876 23.2122 24.5419 22.0788 25.6435 21.8062L26.6685 21.5526C26.7221 21.21 26.75 20.8584 26.75 20.5C26.75 20.1255 26.7195 19.7584 26.6611 19.4012L25.6839 19.1659C24.5713 18.898 23.91 17.7529 24.2339 16.6554L24.5582 15.5564C24.0402 15.0961 23.449 14.7223 22.8053 14.4565L21.9617 15.3436C21.1732 16.1728 19.8509 16.1726 19.0626 15.3431L18.213 14.449C17.5703 14.7119 16.9797 15.0823 16.4615 15.539L16.7962 16.6982ZM20.5 22C19.6716 22 19 21.3285 19 20.5C19 19.6716 19.6716 19 20.5 19C21.3284 19 22 19.6716 22 20.5C22 21.3285 21.3284 22 20.5 22Z" fill="#212121"/>
</svg>
