<svg width="20" height="20" viewBox="0 0 20 20" fill="none" xmlns="http://www.w3.org/2000/svg">
<path d="M12 3.00613C12 2.13311 10.9597 1.67928 10.3198 2.27313L6.4476 5.86651C6.35513 5.95232 6.23364 6.00001 6.10749 6.00001H3.5C2.67157 6.00001 2 6.67158 2 7.50001V12.5C2 13.3284 2.67157 14 3.5 14H6.10749C6.23364 14 6.35513 14.0477 6.4476 14.1335L9.66004 17.1147C9.23904 16.337 9 15.4464 9 14.5C9 12.3627 10.2192 10.5101 12 9.59971V3.00613ZM12.0652 11.4421L11.909 10.8853C12.1631 10.69 12.4385 10.5227 12.7309 10.3878L13.0683 10.7458C13.8572 11.5829 15.188 11.5836 15.9778 10.7473L16.3025 10.4035C16.6003 10.544 16.8801 10.7183 17.1373 10.9216L17.0111 11.3439C16.6818 12.446 17.3478 13.5982 18.4672 13.8628L18.8162 13.9454C18.8378 14.1271 18.8489 14.3122 18.8489 14.5C18.8489 14.656 18.8412 14.8101 18.8263 14.962L18.3657 15.0797C17.2778 15.3576 16.6318 16.4765 16.9351 17.5576L17.0912 18.1143C16.8372 18.3096 16.5618 18.477 16.2694 18.6119L15.932 18.2539C15.1431 17.4168 13.8123 17.4161 13.0225 18.2524L12.6975 18.5965C12.3998 18.4561 12.12 18.2819 11.8628 18.0786L11.9892 17.6558C12.3185 16.5537 11.6525 15.4016 10.5331 15.1369L10.1835 15.0542C10.162 14.8726 10.1509 14.6876 10.1509 14.5C10.1509 14.3439 10.1586 14.1898 10.1735 14.0378L10.6346 13.92C11.7225 13.6421 12.3685 12.5232 12.0652 11.4421ZM14.4999 15.5C15.0522 15.5 15.4999 15.0523 15.4999 14.5C15.4999 13.9477 15.0522 13.5 14.4999 13.5C13.9476 13.5 13.4999 13.9477 13.4999 14.5C13.4999 15.0523 13.9476 15.5 14.4999 15.5Z" fill="#212121"/>
</svg>
