<svg width="48" height="48" viewBox="0 0 48 48" fill="none" xmlns="http://www.w3.org/2000/svg">
<path d="M21.151 4.69004C22.9399 3.77389 25.0601 3.77389 26.849 4.69004L40.599 11.732C41.7167 12.3045 42.6125 13.1861 43.2036 14.2418L24.0024 24.3494L4.83418 14.1754C5.42534 13.1492 6.30681 12.2924 7.401 11.732L21.151 4.69004ZM4.0404 16.5844C4.01366 16.8186 4 17.0557 4 17.2949V33.7498C4 37.2015 6.79822 39.9998 10.25 39.9998H23V32C23 29.2386 25.2386 27 28 27H28.0224C28.0994 26.1463 28.3714 25.3489 28.7935 24.6526L24.5822 26.8694C24.2164 27.062 23.7791 27.0612 23.4139 26.8674L4.0404 16.5844ZM44 17.2949V27H43.9776C43.725 24.1968 41.369 22 38.5 22H33.8325L43.9682 16.6645C43.9893 16.8726 44 17.0829 44 17.2949ZM30 27.5V29H28C26.3431 29 25 30.3431 25 32V43C25 44.6569 26.3431 46 28 46H44C45.6569 46 47 44.6569 47 43V32C47 30.3431 45.6569 29 44 29H42V27.5C42 25.567 40.433 24 38.5 24H33.5C31.567 24 30 25.567 30 27.5ZM33.5 26H38.5C39.3284 26 40 26.6716 40 27.5V29H32V27.5C32 26.6716 32.6716 26 33.5 26Z" fill="#212121"/>
</svg>
