<svg width="17" height="16" viewBox="0 0 17 16" fill="none" xmlns="http://www.w3.org/2000/svg">
<path d="M6.74305 6.91706C7.57195 5.95255 8.7295 5.27865 10.042 5.06907C10.1226 4.81036 10.166 4.53525 10.166 4.25C10.166 2.73122 8.9348 1.5 7.41602 1.5C5.89723 1.5 4.66602 2.73122 4.66602 4.25C4.66602 5.53662 5.54959 6.61687 6.74305 6.91706ZM5.41602 10.5C5.41602 9.59978 5.63229 8.75007 6.01573 8H3.91602C3.08759 8 2.41602 8.67157 2.41602 9.5V10C2.41602 11.8026 3.97069 13.653 6.63777 13.9567C5.87368 13.0122 5.41602 11.8095 5.41602 10.5ZM15.416 10.5C15.416 12.9853 13.4013 15 10.916 15C8.43073 15 6.41602 12.9853 6.41602 10.5C6.41602 8.01472 8.43073 6 10.916 6C13.4013 6 15.416 8.01472 15.416 10.5ZM13.2692 10.854L13.2717 10.8514C13.3186 10.804 13.354 10.7495 13.3781 10.6914C13.4022 10.6333 13.4156 10.5697 13.416 10.503L13.416 10.5L13.416 10.497C13.4156 10.4303 13.4022 10.3667 13.3781 10.3086C13.3537 10.2496 13.3175 10.1944 13.2696 10.1464L11.2696 8.14645C11.0743 7.95118 10.7577 7.95118 10.5625 8.14645C10.3672 8.34171 10.3672 8.65829 10.5625 8.85355L11.7089 10H8.91602C8.63987 10 8.41602 10.2239 8.41602 10.5C8.41602 10.7761 8.63987 11 8.91602 11H11.7089L10.5625 12.1464C10.3672 12.3417 10.3672 12.6583 10.5625 12.8536C10.7577 13.0488 11.0743 13.0488 11.2696 12.8536L13.2692 10.854Z" fill="#212121"/>
</svg>
