<svg width="20" height="20" viewBox="0 0 20 20" fill="none" xmlns="http://www.w3.org/2000/svg">
<path d="M14.2837 3.24146L13.1903 4.33487C10.7126 2.93781 7.51349 3.29412 5.40381 5.40381C3.87946 6.92815 3.2705 9.02124 3.57693 11H2.06237C1.76593 8.63361 2.52619 6.1601 4.34315 4.34315C7.04228 1.64401 11.1903 1.27678 14.2837 3.24146ZM10 17V16.5C11.6635 16.5 13.327 15.8654 14.5962 14.5962C14.8891 14.3033 15.364 14.3033 15.6569 14.5962C15.9497 14.8891 15.9497 15.364 15.6569 15.6569C14.0515 17.2622 11.9336 18.0427 9.82993 17.9982C9.94007 17.6859 10 17.35 10 17ZM10 14.5V15.1C11.3052 15.1 12.6104 14.6021 13.6062 13.6062C13.8991 13.3134 13.8991 12.8385 13.6062 12.5456C13.3134 12.2527 12.8385 12.2527 12.5456 12.5456C11.7637 13.3274 10.7117 13.6745 9.69001 13.5867C9.88442 13.8396 10 14.1563 10 14.5ZM6.5 11C6.51376 11 6.52747 11.0002 6.54115 11.0006C6.18986 9.78208 6.49428 8.41455 7.45442 7.45442C8.41116 6.49767 9.77245 6.19202 10.9877 6.53746L12.1509 5.37423C10.2638 4.49697 7.95069 4.83682 6.39376 6.39375C5.14226 7.64525 4.67716 9.38534 4.99845 11H6.5ZM15.7803 4.21967C16.0732 4.51256 16.0732 4.98744 15.7803 5.28033L11.4492 9.61147C11.4823 9.73539 11.5 9.86563 11.5 10C11.5 10.8284 10.8284 11.5 10 11.5C9.17157 11.5 8.5 10.8284 8.5 10C8.5 9.17157 9.17157 8.5 10 8.5C10.1344 8.5 10.2646 8.51767 10.3885 8.55081L14.7197 4.21967C15.0126 3.92678 15.4874 3.92678 15.7803 4.21967ZM17.25 13.25C17.25 13.6642 16.9142 14 16.5 14C16.0858 14 15.75 13.6642 15.75 13.25C15.75 12.8358 16.0858 12.5 16.5 12.5C16.9142 12.5 17.25 12.8358 17.25 13.25ZM16.5 7.5C16.9142 7.5 17.25 7.16421 17.25 6.75C17.25 6.33579 16.9142 6 16.5 6C16.0858 6 15.75 6.33579 15.75 6.75C15.75 7.16421 16.0858 7.5 16.5 7.5ZM18 11.25C18 11.6642 17.6642 12 17.25 12C16.8358 12 16.5 11.6642 16.5 11.25C16.5 10.8358 16.8358 10.5 17.25 10.5C17.6642 10.5 18 10.8358 18 11.25ZM17.25 9.5C17.6642 9.5 18 9.16421 18 8.75C18 8.33579 17.6642 8 17.25 8C16.8358 8 16.5 8.33579 16.5 8.75C16.5 9.16421 16.8358 9.5 17.25 9.5ZM15 11.25C15 11.6642 14.6642 12 14.25 12C13.8358 12 13.5 11.6642 13.5 11.25C13.5 10.8358 13.8358 10.5 14.25 10.5C14.6642 10.5 15 10.8358 15 11.25ZM14.25 9.5C14.6642 9.5 15 9.16421 15 8.75C15 8.33579 14.6642 8 14.25 8C13.8358 8 13.5 8.33579 13.5 8.75C13.5 9.16421 13.8358 9.5 14.25 9.5ZM1.5 12C1.22386 12 1 12.2239 1 12.5V16.5C1 16.7761 1.22386 17 1.5 17H6.5C6.77614 17 7 16.7761 7 16.5V12.5C7 12.2239 6.77614 12 6.5 12H1.5ZM8.5 14C8.77614 14 9 14.2239 9 14.5V17C9 18.1046 8.10457 19 7 19H3.5C3.22386 19 3 18.7761 3 18.5C3 18.2239 3.22386 18 3.5 18H7C7.55228 18 8 17.5523 8 17V14.5C8 14.2239 8.22386 14 8.5 14Z" fill="#212121"/>
</svg>
