<svg width="20" height="20" viewBox="0 0 20 20" fill="none" xmlns="http://www.w3.org/2000/svg">
<path d="M2.75303 2.93322C2.78993 2.52066 3.15428 2.21613 3.56683 2.25303L6.61029 2.52523C8.76683 2.72998 10.8337 2.97656 12.5316 3.2565C14.1916 3.53018 15.605 3.85101 16.3756 4.24029C16.5735 4.34023 16.788 4.47286 16.9543 4.65464C17.1299 4.84652 17.306 5.16092 17.2331 5.55574C17.1674 5.91138 16.9299 6.14584 16.7469 6.28368C16.5526 6.43004 16.3116 6.54956 16.0517 6.65261C15.0324 7.05689 13.1004 7.44217 10.0684 7.82182C8.62561 8.00248 7.57899 8.17906 6.85417 8.34423C7.05931 8.38882 7.28467 8.43271 7.52834 8.47556C8.52025 8.64997 9.76933 8.7992 11.0964 8.91287C12.1069 8.99942 13.1888 9.13657 14.1117 9.31123C14.5726 9.39846 15.0045 9.49704 15.373 9.60668C15.7254 9.71156 16.0797 9.84346 16.3441 10.0189C16.4737 10.1048 16.6479 10.2438 16.7636 10.4559C16.7883 10.5013 16.8095 10.5486 16.8268 10.5973C16.6462 10.5343 16.4521 10.5 16.25 10.5C15.2835 10.5 14.5 11.2835 14.5 12.25V12.4078C13.7421 12.5621 12.757 12.7098 11.514 12.8518C9.38974 13.0946 8.10503 13.4029 7.39658 13.7107C7.10119 13.8391 6.95495 13.9469 6.88948 14.0101C6.91528 14.0475 6.96216 14.1051 7.04519 14.1812C7.19523 14.3188 7.41362 14.4715 7.69495 14.6306C8.25472 14.9473 8.97661 15.241 9.67389 15.4695L12.3107 16.2832C12.7065 16.4053 12.9283 16.8251 12.8062 17.2209C12.6841 17.6167 12.2642 17.8386 11.8685 17.7165L9.21334 16.8972C8.45887 16.6503 7.63391 16.3194 6.95641 15.9362C6.6183 15.7449 6.29489 15.5283 6.03156 15.2869C5.7775 15.0539 5.51878 14.743 5.41262 14.3523C5.2927 13.911 5.39562 13.4722 5.68562 13.1085C5.94716 12.7805 6.34159 12.5337 6.79887 12.335C7.71914 11.9352 9.18639 11.6081 11.3437 11.3615C12.7102 11.2054 13.6981 11.0483 14.385 10.8995C14.2132 10.8603 14.0284 10.8221 13.8328 10.785C12.9714 10.622 11.9416 10.4907 10.9684 10.4074C9.61595 10.2915 8.31942 10.1376 7.26858 9.95287C6.74384 9.8606 6.26875 9.75863 5.87325 9.64638C5.49721 9.53965 5.1234 9.40505 4.85169 9.22049C4.7188 9.13023 4.52999 8.97513 4.42149 8.73029C4.28957 8.43259 4.32492 8.11437 4.48072 7.85747C4.6104 7.64363 4.80161 7.50491 4.95266 7.41544C5.115 7.3193 5.30561 7.23698 5.51193 7.16366C6.31881 6.8769 7.73425 6.6024 9.88205 6.33346C12.5771 5.99601 14.2586 5.66827 15.1774 5.37245C14.5386 5.16287 13.5539 4.94527 12.2876 4.7365C10.6369 4.46435 8.60805 4.22167 6.47055 4.0187L3.43321 3.74704C3.02066 3.71014 2.71613 3.34578 2.75303 2.93322ZM17 12.25C17 11.8358 16.6642 11.5 16.25 11.5C15.8358 11.5 15.5 11.8358 15.5 12.25V16.4393L14.7803 15.7197C14.4874 15.4268 14.0126 15.4268 13.7197 15.7197C13.4268 16.0126 13.4268 16.4874 13.7197 16.7803L15.7197 18.7803C16.0126 19.0732 16.4874 19.0732 16.7803 18.7803L18.7803 16.7803C19.0732 16.4874 19.0732 16.0126 18.7803 15.7197C18.4874 15.4268 18.0126 15.4268 17.7197 15.7197L17 16.4393V12.25Z" fill="#212121"/>
</svg>
