<?xml version="1.0" encoding="UTF-8"?>
<svg width="24px" height="24px" viewBox="0 0 24 24" version="1.1" xmlns="http://www.w3.org/2000/svg" xmlns:xlink="http://www.w3.org/1999/xlink">
    <!-- Generator: Sketch 59.1 (86144) - https://sketch.com -->
    <title>ic_error_24_regular</title>
    <desc>Created with Sketch.</desc>
    <g id="ðŸ”-Product-Icons" stroke="none" stroke-width="1" fill="none" fill-rule="evenodd">
        <g id="ic_error_24_regular" fill="#212121" fill-rule="nonzero">
            <path d="M12.0007042,2.00070416 C17.5235517,2.00070416 22.0007042,6.47785666 22.0007042,12.0007042 C22.0007042,17.5235517 17.5235517,22.0007042 12.0007042,22.0007042 C6.47785666,22.0007042 2.00070416,17.5235517 2.00070416,12.0007042 C2.00070416,6.47785666 6.47785666,2.00070416 12.0007042,2.00070416 Z M12.0007042,3.50070416 C7.30628378,3.50070416 3.50070416,7.30628378 3.50070416,12.0007042 C3.50070416,16.6951245 7.30628378,20.5007042 12.0007042,20.5007042 C16.6951245,20.5007042 20.5007042,16.6951245 20.5007042,12.0007042 C20.5007042,7.30628378 16.6951245,3.50070416 12.0007042,3.50070416 Z M12.0014083,15 C12.4853367,15 12.8776381,15.3923014 12.8776381,15.8762298 C12.8776381,16.3601581 12.4853367,16.7524596 12.0014083,16.7524596 C11.51748,16.7524596 11.1251785,16.3601581 11.1251785,15.8762298 C11.1251785,15.3923014 11.51748,15 12.0014083,15 Z M12.0015139,6.99917737 C12.3812097,6.99917737 12.6949651,7.28141999 12.744576,7.64751033 L12.7514083,7.74928297 L12.7507042,12.7501056 C12.7506458,13.1643192 12.4148121,13.5 12.0005986,13.5 C11.6209028,13.5 11.3071473,13.2177574 11.2575364,12.851667 L11.2507042,12.7498944 L11.2514083,7.74907175 C11.2514666,7.3348582 11.5873004,6.99917737 12.0015139,6.99917737 Z" id="ðŸŽ¨-Color"></path>
        </g>
    </g>
</svg>