<svg width="20" height="20" viewBox="0 0 20 20" fill="none" xmlns="http://www.w3.org/2000/svg">
<path d="M8.49279 5.90114C8.13479 5.9711 7.7439 6.20337 7.43474 6.74712C7.29826 6.98718 6.99301 7.07114 6.75296 6.93465C6.5129 6.79817 6.42894 6.49292 6.56543 6.25287C7.00628 5.47749 7.63328 5.0502 8.30099 4.9197C8.9539 4.7921 9.60295 4.95667 10.0932 5.28126C10.5768 5.6015 10.9679 6.12423 10.9804 6.75187C10.9934 7.40602 10.5946 7.99672 9.86123 8.43036C9.36263 8.7252 9.16869 8.92513 9.08626 9.05795C9.01687 9.16975 9.00009 9.27172 9.00009 9.5C9.00009 9.77614 8.77623 10 8.50009 10C8.22394 10 8.00009 9.77614 8.00009 9.5C8.00009 9.22827 8.01399 8.88929 8.2366 8.53061C8.44617 8.19295 8.80555 7.89287 9.35222 7.5696C9.88718 7.25326 9.98416 6.95168 9.98059 6.77173C9.97649 6.56527 9.83866 6.31208 9.54108 6.11505C9.25005 5.92235 8.86559 5.82828 8.49279 5.90114ZM8.75 12.5C9.16421 12.5 9.5 12.1642 9.5 11.75C9.5 11.3358 9.16421 11 8.75 11C8.33579 11 8 11.3358 8 11.75C8 12.1642 8.33579 12.5 8.75 12.5ZM8.50019 2C4.91034 2 2.00019 4.91015 2.00019 8.5C2.00019 9.651 2.29978 10.7334 2.82544 11.6719L2.0297 13.7542C1.73642 14.5216 2.4424 15.2957 3.23352 15.0741L5.7209 14.3774C6.5641 14.7768 7.50671 15 8.50019 15C12.09 15 15.0002 12.0899 15.0002 8.5C15.0002 4.91015 12.09 2 8.50019 2ZM3.00019 8.5C3.00019 5.46243 5.46263 3 8.50019 3C11.5378 3 14.0002 5.46243 14.0002 8.5C14.0002 11.5376 11.5378 14 8.50019 14C7.59806 14 6.74803 13.7832 5.99798 13.3993L5.82377 13.3101L2.96381 14.1111L3.93292 11.5753L3.80463 11.3655C3.29438 10.5313 3.00019 9.55079 3.00019 8.5ZM11.4628 18C9.49315 18 7.72814 17.1239 6.53613 15.7402C7.09918 15.8926 7.68851 15.981 8.29584 15.9973C9.19123 16.629 10.2837 17 11.4628 17C12.3649 17 13.2149 16.7832 13.965 16.3993L14.1392 16.3101L16.9992 17.1111L16.0301 14.5752L16.1583 14.3655C16.6686 13.5313 16.9628 12.5508 16.9628 11.5C16.9628 10.3455 16.6071 9.27414 15.9993 8.38943C15.9905 7.78165 15.9095 7.19137 15.7643 6.6268C17.1125 7.81779 17.9628 9.5596 17.9628 11.5C17.9628 12.651 17.6632 13.7333 17.1375 14.6719L17.9333 16.7542C18.2266 17.5216 17.5206 18.2957 16.7295 18.0741L14.2421 17.3774C13.3989 17.7768 12.4563 18 11.4628 18Z" fill="#212121"/>
</svg>
