<svg width="16" height="16" viewBox="0 0 16 16" fill="none" xmlns="http://www.w3.org/2000/svg">
<path d="M6.99992 8.88033C7.34483 8.88033 7.62443 9.15993 7.62443 9.50484C7.62443 9.84974 7.34483 10.1293 6.99992 10.1293C6.65501 10.1293 6.37541 9.84974 6.37541 9.50484C6.37541 9.15993 6.65501 8.88033 6.99992 8.88033ZM6.99997 4.00342C8.03101 4.00342 8.85337 4.84921 8.85337 5.95291C8.85337 6.53867 8.63904 6.86065 8.12574 7.27147L7.84869 7.48578C7.60294 7.68037 7.52024 7.78626 7.50339 7.93402L7.49186 8.09017C7.44952 8.32342 7.24536 8.50027 6.9999 8.50027C6.72376 8.50027 6.49991 8.27639 6.49992 8.00025C6.49995 7.42935 6.70993 7.11611 7.21569 6.7118L7.49368 6.49677C7.78217 6.26787 7.85337 6.15471 7.85337 5.95291C7.85337 5.39531 7.47234 5.00342 6.99997 5.00342C6.50619 5.00342 6.14098 5.3691 6.14654 5.94811C6.14919 6.22424 5.92749 6.45023 5.65136 6.45288C5.37523 6.45554 5.14924 6.23384 5.14659 5.95771C5.13567 4.82081 5.95202 4.00342 6.99997 4.00342ZM2.00001 7C2.00001 4.23858 4.23858 2 7.00001 2C9.76143 2 12 4.23858 12 7C12 9.76142 9.76143 12 7.00001 12C6.24557 12 5.529 11.8326 4.88649 11.5325L2.59809 11.9903C2.43416 12.0231 2.26468 11.9718 2.14646 11.8536C2.02825 11.7354 1.97693 11.5659 2.00972 11.402L2.46742 9.11337C2.1674 8.4709 2.00001 7.75438 2.00001 7ZM7.00001 3C4.79087 3 3.00001 4.79086 3.00001 7C3.00001 7.65571 3.1574 8.27321 3.43602 8.81814C3.48734 8.91851 3.50324 9.03328 3.48113 9.14382L3.13739 10.8626L4.85602 10.5188C4.96657 10.4967 5.08135 10.5126 5.18173 10.5639C5.7267 10.8426 6.34424 11 7.00001 11C9.20915 11 11 9.20914 11 7C11 4.79086 9.20915 3 7.00001 3ZM5.86036 12.8918C6.71858 13.585 7.81077 14.0001 8.99992 14.0001C9.75436 14.0001 10.4709 13.8327 11.1134 13.5326L13.4018 13.9904C13.5658 14.0232 13.7352 13.9719 13.8535 13.8537C13.9717 13.7355 14.023 13.566 13.9902 13.4021L13.5325 11.1135C13.8325 10.471 13.9999 9.7545 13.9999 9.00012C13.9999 7.81121 13.585 6.71923 12.892 5.86108C12.9629 6.22987 13 6.61066 13 7.00012C13 7.37677 12.9653 7.74532 12.8989 8.10274C12.965 8.39122 12.9999 8.69159 12.9999 9.00012C12.9999 9.65583 12.8425 10.2733 12.5639 10.8183C12.5126 10.9186 12.4967 11.0334 12.5188 11.1439L12.8625 12.8627L11.1439 12.5189C11.0334 12.4968 10.9186 12.5127 10.8182 12.564C10.2732 12.8427 9.65568 13.0001 8.99992 13.0001C8.69136 13.0001 8.39096 12.9652 8.10246 12.899C7.74508 12.9654 7.37657 13.0001 6.99996 13.0001C6.61076 13.0001 6.2297 12.9629 5.86036 12.8918Z" fill="#212121"/>
</svg>
