<svg width="16" height="16" viewBox="0 0 16 16" fill="none" xmlns="http://www.w3.org/2000/svg">
<path d="M9 4C11.7614 4 14 6.23858 14 9C14 9.75438 13.8326 10.4709 13.5326 11.1134L13.9903 13.402C14.0231 13.5659 13.9718 13.7354 13.8535 13.8536C13.7353 13.9718 13.5659 14.0231 13.4019 13.9903L11.1135 13.5325C10.471 13.8326 9.75444 14 9 14C6.23858 14 4 11.7614 4 9C4 6.23858 6.23858 4 9 4Z" fill="url(#paint0_radial_378174_9972)"/>
<path d="M7.00001 2C4.23858 2 2.00001 4.23858 2.00001 7C2.00001 7.75438 2.1674 8.4709 2.46742 9.11337L2.00972 11.402C1.97693 11.5659 2.02825 11.7354 2.14646 11.8536C2.26468 11.9718 2.43416 12.0231 2.59809 11.9903L4.88649 11.5325C5.529 11.8326 6.24557 12 7.00001 12C9.76143 12 12 9.76142 12 7C12 4.23858 9.76143 2 7.00001 2Z" fill="url(#paint1_linear_378174_9972)"/>
<path d="M6.37884 9.50142C6.37884 9.15651 6.65844 8.87691 7.00335 8.87691C7.34825 8.87691 7.62786 9.15651 7.62786 9.50142C7.62786 9.84633 7.34825 10.1259 7.00335 10.1259C6.65844 10.1259 6.37884 9.84633 6.37884 9.50142Z" fill="url(#paint2_linear_378174_9972)"/>
<path d="M5.15001 5.95429C5.1391 4.81739 5.95544 4 7.00339 4C8.03443 4 8.85679 4.84579 8.85679 5.94949C8.85679 6.53525 8.64247 6.85723 8.12916 7.26805L7.85211 7.48236C7.60637 7.67695 7.52366 7.78285 7.50682 7.93061L7.49529 8.08675C7.45294 8.32 7.24878 8.49685 7.00332 8.49685C6.72718 8.49685 6.50333 8.27298 6.50335 7.99683C6.50337 7.42593 6.71335 7.1127 7.21911 6.70838L7.4971 6.49335C7.78559 6.26445 7.85679 6.15129 7.85679 5.94949C7.85679 5.39189 7.47576 5 7.00339 5C6.50962 5 6.14441 5.36568 6.14996 5.94469C6.15261 6.22082 5.93092 6.44682 5.65479 6.44947C5.37866 6.45212 5.15266 6.23042 5.15001 5.95429Z" fill="url(#paint3_linear_378174_9972)"/>
<defs>
<radialGradient id="paint0_radial_378174_9972" cx="0" cy="0" r="1" gradientUnits="userSpaceOnUse" gradientTransform="translate(6.6844 6.6692) rotate(49.2378) scale(7.04808 7.0541)">
<stop offset="0.63" stop-color="#3D35B1"/>
<stop offset="0.85" stop-color="#6553C9"/>
<stop offset="1" stop-color="#7660D3"/>
</radialGradient>
<linearGradient id="paint1_linear_378174_9972" x1="2" y1="2" x2="12" y2="12" gradientUnits="userSpaceOnUse">
<stop stop-color="#0FAFFF"/>
<stop offset="1" stop-color="#2764E7"/>
</linearGradient>
<linearGradient id="paint2_linear_378174_9972" x1="5.47415" y1="4.10756" x2="7.09154" y2="10.4166" gradientUnits="userSpaceOnUse">
<stop stop-color="#FDFDFD"/>
<stop offset="1" stop-color="#CCEAFF"/>
</linearGradient>
<linearGradient id="paint3_linear_378174_9972" x1="5.47415" y1="4.10756" x2="7.09154" y2="10.4166" gradientUnits="userSpaceOnUse">
<stop stop-color="#FDFDFD"/>
<stop offset="1" stop-color="#CCEAFF"/>
</linearGradient>
</defs>
</svg>
