<svg width="32" height="32" viewBox="0 0 32 32" fill="none" xmlns="http://www.w3.org/2000/svg">
<path d="M12.5001 3C6.70106 3 2.00005 7.70101 2.00005 13.5C2.00005 14.7989 2.23632 16.044 2.66849 17.1938C2.79635 17.534 2.94135 17.8658 3.10245 18.1881L2.0527 22.1058C1.75384 23.2212 2.77447 24.2418 3.88982 23.943L7.80465 22.894C9.2185 23.6019 10.8141 24 12.5001 24C18.299 24 23.0001 19.299 23.0001 13.5C23.0001 7.70101 18.299 3 12.5001 3ZM14.4549 25.3417C13.8187 25.446 13.1657 25.5002 12.5 25.5002C12.2132 25.5002 11.9287 25.4901 11.647 25.4703C13.5704 27.6358 16.3758 29.0002 19.5 29.0002C21.186 29.0002 22.7815 28.6021 24.1954 27.8941L28.1102 28.9431C29.2255 29.242 30.2462 28.2214 29.9473 27.106L28.8976 23.1883C29.0587 22.8659 29.2037 22.5341 29.3315 22.194C29.7637 21.0442 30 19.799 30 18.5002C30 14.1361 27.3376 10.3939 23.5485 8.80908C23.9114 9.6628 24.1783 10.5672 24.3355 11.5087C26.5498 13.0431 28 15.6023 28 18.5002C28 19.984 27.6206 21.3763 26.9543 22.5883C26.83 22.8144 26.7979 23.0797 26.8647 23.3289L27.7913 26.7871L24.3355 25.8611C24.086 25.7943 23.8204 25.8266 23.5942 25.9511C22.3808 26.6195 20.9863 27.0002 19.5 27.0002C17.611 27.0002 15.866 26.384 14.4549 25.3417ZM11.5 15C11.5 13.3447 12.3842 12.3378 13.1009 11.5217L13.12 11.5C13.68 10.86 14 10.48 14 10C13.99 9.71 13.82 9 12.5 9C11.07 9 11 9.83 11 10C11 10.55 10.55 11 10 11C9.45 11 9 10.55 9 10C9 8.79 9.93 7 12.5 7C15.07 7 16 8.79 16 10C16 11.21 15.27 12.09 14.62 12.83L14.6019 12.8505C14.0096 13.5217 13.5 14.0992 13.5 15C13.5 15.55 13.05 16 12.5 16C11.95 16 11.5 15.55 11.5 15ZM13.75 18.75C13.75 19.4404 13.1904 20 12.5 20C11.8096 20 11.25 19.4404 11.25 18.75C11.25 18.0596 11.8096 17.5 12.5 17.5C13.1904 17.5 13.75 18.0596 13.75 18.75Z" fill="#212121"/>
</svg>
