<svg width="28" height="28" viewBox="0 0 28 28" fill="none" xmlns="http://www.w3.org/2000/svg">
<path d="M3 6.75C3 4.67893 4.67893 3 6.75 3H21.25C23.3211 3 25 4.67893 25 6.75V21.25C25 23.3211 23.3211 25 21.25 25H6.75C4.67893 25 3 23.3211 3 21.25V6.75ZM6.75 4.5C5.50736 4.5 4.5 5.50736 4.5 6.75V21.25C4.5 22.4926 5.50736 23.5 6.75 23.5H21.25C22.4926 23.5 23.5 22.4926 23.5 21.25V6.75C23.5 5.50736 22.4926 4.5 21.25 4.5H6.75ZM12.0303 9.21967C12.3232 9.51256 12.3232 9.98744 12.0303 10.2803L8.31066 14L12.0303 17.7197C12.3232 18.0126 12.3232 18.4874 12.0303 18.7803C11.7374 19.0732 11.2626 19.0732 10.9697 18.7803L6.71967 14.5303C6.42678 14.2374 6.42678 13.7626 6.71967 13.4697L10.9697 9.21967C11.2626 8.92678 11.7374 8.92678 12.0303 9.21967ZM17.0303 9.21967C16.7374 8.92678 16.2626 8.92678 15.9697 9.21967C15.6768 9.51256 15.6768 9.98744 15.9697 10.2803L19.6893 14L15.9697 17.7197C15.6768 18.0126 15.6768 18.4874 15.9697 18.7803C16.2626 19.0732 16.7374 19.0732 17.0303 18.7803L21.2803 14.5303C21.5732 14.2374 21.5732 13.7626 21.2803 13.4697L17.0303 9.21967Z" fill="#212121"/>
</svg>
