<svg width="20" height="20" viewBox="0 0 20 20" fill="none" xmlns="http://www.w3.org/2000/svg">
<path d="M13.69 5.4C13.8891 4.95982 13.9947 4.48309 14 4H6C6.00608 4.48409 6.11516 4.96134 6.32 5.4C6.52759 5.85025 6.83544 6.24705 7.22 6.56L9.04 8.08C9.32073 8.31449 9.54611 8.60817 9.7 8.94C9.85933 9.27057 9.9414 9.63304 9.94 10C9.9414 10.367 9.85933 10.7294 9.7 11.06C9.54611 11.3918 9.32073 11.6855 9.04 11.92L7.22 13.44C6.83544 13.753 6.52759 14.1497 6.32 14.6C6.11516 15.0387 6.00608 15.5159 6 16H14C13.9947 15.5169 13.8891 15.0402 13.69 14.6C13.476 14.1509 13.1652 13.7548 12.78 13.44L11 11.91C10.7234 11.678 10.5014 11.3878 10.35 11.06C10.1733 10.7336 10.0741 10.3709 10.06 10C10.0741 9.6291 10.1733 9.26642 10.35 8.94C10.5014 8.61223 10.7234 8.32198 11 8.09L12.78 6.56C13.1652 6.24524 13.476 5.84909 13.69 5.4Z" fill="#212121"/>
</svg>
