<svg width="20" height="20" viewBox="0 0 20 20" fill="none" xmlns="http://www.w3.org/2000/svg">
<path d="M3.5 4C2.67157 4 2 4.67157 2 5.5V13.5C2 14.3284 2.67157 15 3.5 15H16.5C17.3284 15 18 14.3284 18 13.5V5.5C18 4.67157 17.3284 4 16.5 4H3.5ZM5.5 12H8.5C8.77614 12 9 12.2239 9 12.5C9 12.7761 8.77614 13 8.5 13H5.5C5.22386 13 5 12.7761 5 12.5C5 12.2239 5.22386 12 5.5 12ZM5.5 7.25C5.5 7.66421 5.16421 8 4.75 8C4.33579 8 4 7.66421 4 7.25C4 6.83579 4.33579 6.5 4.75 6.5C5.16421 6.5 5.5 6.83579 5.5 7.25ZM7.75 8C7.33579 8 7 7.66421 7 7.25C7 6.83579 7.33579 6.5 7.75 6.5C8.16421 6.5 8.5 6.83579 8.5 7.25C8.5 7.66421 8.16421 8 7.75 8ZM6 9.75C6 10.1642 5.66421 10.5 5.25 10.5C4.83579 10.5 4.5 10.1642 4.5 9.75C4.5 9.33579 4.83579 9 5.25 9C5.66421 9 6 9.33579 6 9.75ZM8.25 10.5C7.83579 10.5 7.5 10.1642 7.5 9.75C7.5 9.33579 7.83579 9 8.25 9C8.66421 9 9 9.33579 9 9.75C9 10.1642 8.66421 10.5 8.25 10.5Z" fill="#212121"/>
</svg>
