<svg width="20" height="20" viewBox="0 0 20 20" fill="none" xmlns="http://www.w3.org/2000/svg">
<path d="M3.00026 5.5V12.1041L4.50091 9.50488C5.03681 8.57668 6.02719 8.00488 7.09898 8.00488L15.0003 8.00488V7.5C15.0003 6.67157 14.3287 6 13.5003 6H9.50026C9.36765 6 9.24047 5.94732 9.1467 5.85355L7.4396 4.14645C7.34583 4.05268 7.21865 4 7.08604 4H4.50026C3.67183 4 3.00026 4.67157 3.00026 5.5ZM4.28361 15.9845C4.35498 15.9947 4.42844 16 4.50373 16H13.9012C14.6157 16 15.276 15.6188 15.6332 15L17.7955 11.2549C18.3728 10.2549 17.6511 9.00488 16.4964 9.00488L7.09898 9.00488C6.38445 9.00488 5.7242 9.38608 5.36694 10.0049L3.20469 13.75C2.78223 14.4817 3.0553 15.3473 3.68462 15.7591C3.86197 15.8742 4.06517 15.9529 4.28361 15.9845ZM2.00026 14.4607V5.5C2.00026 4.11929 3.11955 3 4.50026 3H7.08604C7.48387 3 7.8654 3.15804 8.1467 3.43934L9.70736 5H13.5003C14.881 5 16.0003 6.11929 16.0003 7.5V8.00488H16.4964C18.4209 8.00488 19.6237 10.0882 18.6615 11.7549L16.4992 15.5C15.9633 16.4282 14.973 17 13.9012 17H4.50026C4.4378 17 4.37588 16.9977 4.31457 16.9932C3.75344 16.9527 3.26124 16.7329 2.87665 16.4011C2.36561 15.9642 2.03283 15.3249 2.00252 14.6073C2.00031 14.5586 1.99955 14.5097 2.00026 14.4607Z" fill="#212121"/>
</svg>
