<svg width="20" height="20" viewBox="0 0 20 20" fill="none" xmlns="http://www.w3.org/2000/svg">
<path d="M15.5 12C16.3284 12 17 12.6716 17 13.5V16.5C17 17.3284 16.3284 18 15.5 18H4.5C3.67157 18 3 17.3284 3 16.5V13.5C3 12.6716 3.67157 12 4.5 12H15.5ZM4.5 13C4.22386 13 4 13.2239 4 13.5V16.5C4 16.7761 4.22386 17 4.5 17H15.5C15.7761 17 16 16.7761 16 16.5V13.5C16 13.2239 15.7761 13 15.5 13H4.5ZM12.5 2C12.7761 2 13 2.22386 13 2.5V5H14.5C14.7761 5 15 5.22386 15 5.5C15 5.77614 14.7761 6 14.5 6H13V9.5C13 9.77614 12.7761 10 12.5 10C12.2239 10 12 9.77614 12 9.5V2.5C12 2.22386 12.2239 2 12.5 2ZM9.5 3C9.76744 3 9.988 3.21042 10 3.47754C10.1015 5.77666 9.14404 7.17541 8.13281 7.98438C7.63605 8.38177 7.13509 8.63115 6.75879 8.78125C6.57 8.85655 6.41036 8.90761 6.2959 8.94043C6.2387 8.95683 6.19245 8.9685 6.15918 8.97656C6.14265 8.98057 6.12909 8.98314 6.11914 8.98535C6.11415 8.98646 6.10968 8.98759 6.10645 8.98828C6.10493 8.9886 6.10365 8.98903 6.10254 8.98926H6.10059L6.09961 8.99023C5.82904 9.04521 5.5648 8.87018 5.50977 8.59961C5.45485 8.32932 5.62932 8.06517 5.89941 8.00977C5.90001 8.00964 5.90118 8.01002 5.90234 8.00977C5.90634 8.00888 5.91366 8.00735 5.92383 8.00488C5.94446 7.99988 5.9774 7.99088 6.02051 7.97852C6.10694 7.95372 6.23395 7.91288 6.3877 7.85156C6.69694 7.72822 7.10618 7.52441 7.50781 7.20312C8.22689 6.62787 8.95022 5.65626 9.00195 4H6C5.72386 4 5.5 3.77614 5.5 3.5C5.5 3.22386 5.72386 3 6 3H9.5Z" fill="#212121"/>
</svg>
