<svg width="20" height="20" viewBox="0 0 20 20" fill="none" xmlns="http://www.w3.org/2000/svg">
<path d="M16.3704 15.002L15.1908 16.1411C14.9921 16.333 14.9866 16.6495 15.1785 16.8481C15.3703 17.0468 15.6868 17.0523 15.8855 16.8605L17.771 15.0395C18.0763 14.7446 18.0763 14.2554 17.771 13.9605L15.8855 12.1395C15.6868 11.9477 15.3703 11.9532 15.1785 12.1519C14.9866 12.3505 14.9921 12.667 15.1908 12.8589L16.3744 14.002H12.5C12.2239 14.002 12 14.2258 12 14.502C12 14.7781 12.2239 15.002 12.5 15.002H16.3704ZM15 2.99921C16.1046 2.99921 17 3.89464 17 4.99921V9.49921C17 9.77535 16.7761 9.99921 16.5 9.99921C16.2239 9.99921 16 9.77535 16 9.49921V4.99921C16 4.44692 15.5523 3.99921 15 3.99921H5C4.44772 3.99921 4 4.44692 4 4.99921V9.49921C4 9.77535 3.77614 9.99921 3.5 9.99921C3.22386 9.99921 3 9.77535 3 9.49921V4.99921C3 3.89464 3.89543 2.99921 5 2.99921H15ZM4.80922 16.1411L3.62964 15.002H7.49999C7.77613 15.002 7.99999 14.7781 7.99999 14.502C7.99999 14.2258 7.77613 14.002 7.49999 14.002H3.62559L4.80922 12.8589C5.00785 12.667 5.01337 12.3505 4.82154 12.1519C4.62971 11.9532 4.31317 11.9477 4.11454 12.1395L2.22899 13.9605C1.92367 14.2554 1.92367 14.7446 2.22899 15.0395L4.11454 16.8605C4.31317 17.0523 4.62971 17.0468 4.82154 16.8481C5.01337 16.6495 5.00785 16.333 4.80922 16.1411Z" fill="#212121"/>
</svg>
