<svg width="48" height="48" viewBox="0 0 48 48" fill="none" xmlns="http://www.w3.org/2000/svg">
<path d="M6.5 12.25V16H16.7145C17.046 16 17.3639 15.8683 17.5983 15.6339L20.9822 12.25L17.5983 8.86612C17.3639 8.6317 17.046 8.5 16.7145 8.5H10.25C8.17893 8.5 6.5 10.1789 6.5 12.25ZM4 12.25C4 8.79822 6.79822 6 10.25 6H16.7145C17.709 6 18.6629 6.39509 19.3661 7.09835L23.2678 11H37.75C41.2018 11 44 13.7982 44 17.25V34.75C44 38.2018 41.2018 41 37.75 41H10.25C6.79822 41 4 38.2018 4 34.75V12.25ZM6.5 18.5V34.75C6.5 36.8211 8.17893 38.5 10.25 38.5H37.75C39.8211 38.5 41.5 36.8211 41.5 34.75V17.25C41.5 15.1789 39.8211 13.5 37.75 13.5H23.2678L19.3661 17.4017C18.6629 18.1049 17.709 18.5 16.7145 18.5H6.5Z" fill="#212121"/>
</svg>
