<?xml version="1.0" encoding="UTF-8"?>
<svg width="28px" height="28px" viewBox="0 0 28 28" version="1.1" xmlns="http://www.w3.org/2000/svg" xmlns:xlink="http://www.w3.org/1999/xlink">
    <!-- Generator: Sketch 59.1 (86144) - https://sketch.com -->
    <title>ic_fluent_folder_28_regular</title>
    <desc>Created with Sketch.</desc>
    <g id="ðŸ”-Product-Icons" stroke="none" stroke-width="1" fill="none" fill-rule="evenodd">
        <g id="ic_fluent_folder_28_regular" fill="#212121" fill-rule="nonzero">
            <path d="M4.24707866,4.0084426 L10.2047331,4.00069794 C10.6662668,4.00010714 11.1151486,4.14140674 11.4915867,4.40299521 L11.6483076,4.5224062 L14.0215959,6.50069794 L23.75,6.50069794 C24.940864,6.50069794 25.9156449,7.42586255 25.9948092,8.59665224 L26,8.75070106 L26.0003295,21.7554384 C26.0000678,22.9464233 25.0745162,23.9210413 23.9038632,23.999518 L23.7498352,24.0046161 L4.24953669,24.0003295 C3.05908127,23.9995941 2.0848054,23.0746867 2.00524735,21.904032 L2,21.75 L2,6.2584407 C2,5.06866988 2.92352721,4.09436903 4.09317571,4.01382415 L4.24707866,4.0084426 L10.2047331,4.00069794 L4.24707866,4.0084426 Z M14.071,8.00069794 L11.6374719,9.99286862 C11.2857161,10.2807057 10.8562974,10.4542903 10.4064521,10.493189 L10.2125775,10.5015542 L3.499,10.5006979 L3.49999994,21.7497015 C3.49999994,22.129552 3.78240135,22.4435311 4.14841822,22.4934201 L4.25016476,22.5003296 L23.7504632,22.5046151 C24.123138,22.5048447 24.4324192,22.2329513 24.4905223,21.8765475 L24.4999999,21.7773921 L24.4999999,8.75070106 C24.4999999,8.37100529 24.2178461,8.05721272 23.8517706,8.00755073 L23.75,8.00069794 L14.071,8.00069794 L11.6374719,9.99286862 L14.071,8.00069794 Z M10.2066806,5.50070418 L4.24902622,5.50844133 C3.86967932,5.50893387 3.5564116,5.79099628 3.50683467,6.15676029 L3.49999994,6.2584407 L3.499,9.00070418 L10.2125775,9.00155418 C10.3510959,9.00155418 10.4862009,8.96321203 10.6033113,8.89173322 L10.6875423,8.83199233 L12.599,7.26769794 L10.6878721,5.67460569 C10.5798281,5.58454372 10.4492183,5.52713904 10.311275,5.50789556 L10.2066806,5.50070418 Z" id="ðŸŽ¨-Color"></path>
        </g>
    </g>
</svg>