<svg width="24" height="24" viewBox="0 0 24 24" fill="none" xmlns="http://www.w3.org/2000/svg">
<path d="M2 2C2 1.44772 2.44772 1 3 1H10C10.5523 1 11 1.44772 11 2V9C11 9.55228 10.5523 10 10 10C9.44772 10 9 9.55228 9 9V3H3C2.44772 3 2 2.55228 2 2ZM2 13C2 12.4477 2.44772 12 3 12H6V11C6 10.4477 6.44772 10 7 10C7.55228 10 8 10.4477 8 11V12H11C11.5523 12 12 12.4477 12 13C12 13.5523 11.5523 14 11 14H3C2.44772 14 2 13.5523 2 13ZM12 19C12 21.2091 9.76142 23 7 23C4.23858 23 2 21.2091 2 19C2 16.7909 4.23858 15 7 15C9.76142 15 12 16.7909 12 19ZM10 19C10 18.2888 9.09638 17 7 17C4.90362 17 4 18.2888 4 19C4 19.7112 4.90362 21 7 21C9.09638 21 10 19.7112 10 19ZM17.5 2C18.0523 2 18.5 2.44772 18.5 3V18.5858L20.2929 16.7929C20.6834 16.4024 21.3166 16.4024 21.7071 16.7929C22.0976 17.1834 22.0976 17.8166 21.7071 18.2071L18.2071 21.7071C17.8166 22.0976 17.1834 22.0976 16.7929 21.7071L13.2929 18.2071C12.9024 17.8166 12.9024 17.1834 13.2929 16.7929C13.6834 16.4024 14.3166 16.4024 14.7071 16.7929L16.5 18.5858V3C16.5 2.44772 16.9477 2 17.5 2Z" fill="#212121"/>
</svg>
