<svg width="24" height="24" viewBox="0 0 24 24" fill="none" xmlns="http://www.w3.org/2000/svg">
<path d="M2 12C2 6.47715 6.47715 2 12 2C17.5228 2 22 6.47715 22 12C22 17.5228 17.5228 22 12 22C6.47715 22 2 17.5228 2 12ZM6.5 7.25V9.75C6.5 10.1642 6.83579 10.5 7.25 10.5H7.75V13.1893L5.96967 14.9697C5.67678 15.2626 5.67678 15.7374 5.96967 16.0303L7.96967 18.0303C8.26256 18.3232 8.73744 18.3232 9.03033 18.0303L10.8107 16.25H13.5V16.75C13.5 17.1642 13.8358 17.5 14.25 17.5H16.75C17.1642 17.5 17.5 17.1642 17.5 16.75V14.25C17.5 13.8358 17.1642 13.5 16.75 13.5H14.25C13.8358 13.5 13.5 13.8358 13.5 14.25V14.75H10.8107L9.25 13.1893V10.5H9.75C10.1642 10.5 10.5 10.1642 10.5 9.75V7.25C10.5 6.83579 10.1642 6.5 9.75 6.5H7.25C6.83579 6.5 6.5 6.83579 6.5 7.25Z" fill="#212121"/>
</svg>
