<svg width="48" height="48" viewBox="0 0 48 48" fill="none" xmlns="http://www.w3.org/2000/svg">
<path d="M23.8661 32.6339C23.378 32.1457 23.378 31.3543 23.8661 30.8661L29.4822 25.25H15.25C14.5596 25.25 14 24.6904 14 24C14 23.3096 14.5596 22.75 15.25 22.75H29.4822L23.8661 17.1339C23.378 16.6457 23.378 15.8543 23.8661 15.3661C24.3543 14.878 25.1457 14.878 25.6339 15.3661L33.3839 23.1161C33.872 23.6043 33.872 24.3957 33.3839 24.8839L25.6339 32.6339C25.1457 33.122 24.3543 33.122 23.8661 32.6339ZM24 44C12.9543 44 4 35.0457 4 24C4 12.9543 12.9543 4 24 4C35.0457 4 44 12.9543 44 24C44 35.0457 35.0457 44 24 44ZM6.5 24C6.5 33.665 14.335 41.5 24 41.5C33.665 41.5 41.5 33.665 41.5 24C41.5 14.335 33.665 6.5 24 6.5C14.335 6.5 6.5 14.335 6.5 24Z" fill="#212121"/>
</svg>
