<?xml version="1.0" encoding="UTF-8"?>
<svg width="24px" height="24px" viewBox="0 0 24 24" version="1.1" xmlns="http://www.w3.org/2000/svg" xmlns:xlink="http://www.w3.org/1999/xlink">
    <!-- Generator: Sketch 59.1 (86144) - https://sketch.com -->
    <title>ic_fluent_sticker_add_24_light</title>
    <desc>Created with Sketch.</desc>
    <g id="ðŸ”-Product-Icons" stroke="none" stroke-width="1" fill="none" fill-rule="evenodd">
        <g id="ic_fluent_sticker_add_24_light" fill="#212121" fill-rule="nonzero">
            <path d="M17.5,12 C20.5375661,12 23,14.4624339 23,17.5 C23,20.5375661 20.5375661,23 17.5,23 C14.4624339,23 12,20.5375661 12,17.5 C12,14.4624339 14.4624339,12 17.5,12 Z M17.5,13.9992349 L17.4101244,14.0072906 C17.2060313,14.0443345 17.0450996,14.2052662 17.0080557,14.4093593 L17,14.4992349 L16.9996498,16.9992349 L14.4976498,17 L14.4077742,17.0080557 C14.2036811,17.0450996 14.0427494,17.2060313 14.0057055,17.4101244 L13.9976498,17.5 L14.0057055,17.5898756 C14.0427494,17.7939687 14.2036811,17.9549004 14.4077742,17.9919443 L14.4976498,18 L17.0006498,17.9992349 L17.0011076,20.5034847 L17.0091633,20.5933603 C17.0462073,20.7974534 17.207139,20.9583851 17.411232,20.995429 L17.5011076,21.0034847 L17.5909833,20.995429 C17.7950763,20.9583851 17.956008,20.7974534 17.993052,20.5933603 L18.0011076,20.5034847 L18.0006498,17.9992349 L20.5045655,18 L20.5944411,17.9919443 C20.7985342,17.9549004 20.9594659,17.7939687 20.9965098,17.5898756 L21.0045655,17.5 L20.9965098,17.4101244 C20.9594659,17.2060313 20.7985342,17.0450996 20.5944411,17.0080557 L20.5045655,17 L17.9996498,16.9992349 L18,14.4992349 L17.9919443,14.4093593 C17.9496084,14.1761101 17.7454599,13.9992349 17.5,13.9992349 Z M17.75,3 C19.4830315,3 20.8992459,4.35645477 20.9948552,6.06557609 L21,6.25 L21.0012092,12.0225923 C20.6852762,11.8202252 20.3506797,11.6444435 20.000576,11.4984036 L20,6.25 C20,5.05913601 19.0748384,4.08435508 17.9040488,4.00519081 L17.75,4 L6.25,4 C5.05913601,4 4.08435508,4.92516159 4.00519081,6.09595119 L4,6.25 L4,17.75 C4,18.940864 4.92516159,19.9156449 6.09595119,19.9948092 L6.25,20 L11.4984036,20.000576 C11.6444435,20.3506797 11.8202252,20.6852762 12.0225923,21.0012092 L6.25,21 C4.51696854,21 3.10075407,19.6435452 3.00514479,17.9344239 L3,17.75 L3,6.25 C3,4.51696854 4.35645477,3.10075407 6.06557609,3.00514479 L6.25,3 L17.75,3 Z M9.0273501,14.3339749 C9.77499319,14.8324036 10.5680047,15.1263331 11.4126963,15.2184409 C11.2945544,15.5306607 11.2003993,15.8559085 11.1319552,16.1905205 C10.1914078,16.0621801 9.30308167,15.7196463 8.4726499,15.1660251 C8.24288556,15.0128489 8.18079862,14.7024142 8.33397485,14.4726499 C8.48715108,14.2428856 8.79758575,14.1807986 9.0273501,14.3339749 Z M9,8 C9.55228475,8 10,8.44771525 10,9 C10,9.55228475 9.55228475,10 9,10 C8.44771525,10 8,9.55228475 8,9 C8,8.44771525 8.44771525,8 9,8 Z M15,8 C15.5522847,8 16,8.44771525 16,9 C16,9.55228475 15.5522847,10 15,10 C14.4477153,10 14,9.55228475 14,9 C14,8.44771525 14.4477153,8 15,8 Z" id="ðŸŽ¨-Color"></path>
        </g>
    </g>
</svg>