<svg width="32" height="32" viewBox="0 0 32 32" fill="none" xmlns="http://www.w3.org/2000/svg">
<path d="M16 22C19.0889 22 21.9442 23.0041 24.2598 24.6992C24.8938 24.0962 25.4635 23.4257 25.9541 22.6973C26.2385 22.2753 26.7769 22.0876 27.2471 22.2822C27.8026 22.5125 28.0382 23.1761 27.708 23.6787C27.1548 24.5203 26.5106 25.2962 25.7939 25.998C26.845 27.0274 27.7353 28.2207 28.4219 29.5381C28.6771 30.0278 28.4876 30.6314 27.998 30.8867C27.5083 31.142 26.9037 30.9517 26.6484 30.4619C26.0313 29.2779 25.2199 28.2116 24.2598 27.2998C21.9441 28.9951 19.0891 30 16 30C14.9997 30 13.8119 29.7049 12.8457 29.0957C11.8664 28.4782 11 27.4506 11 26C11 24.5494 11.8664 23.5218 12.8457 22.9043C13.8119 22.2951 14.9997 22 16 22ZM16 24C15.3436 24 14.5316 24.2051 13.9121 24.5957C13.3056 24.9782 13 25.4506 13 26C13 26.5494 13.3056 27.0218 13.9121 27.4043C14.5316 27.7949 15.3436 28 16 28C18.4527 28 20.7301 27.2623 22.6299 26C20.7301 24.7377 18.4527 24 16 24ZM4.75391 22.2832C5.22399 22.0886 5.76155 22.2764 6.0459 22.6982C6.73532 23.7213 7.57758 24.6325 8.54102 25.3984C8.91645 25.6969 9.07115 26.2044 8.8877 26.6475C8.64486 27.2336 7.92804 27.4582 7.42676 27.0693C6.20486 26.1213 5.14439 24.9745 4.29297 23.6787C3.96306 23.1762 4.19839 22.5132 4.75391 22.2832ZM2.29102 13.1504C2.4129 12.5619 3.04832 12.2593 3.60352 12.4893C4.07336 12.684 4.32004 13.1971 4.22266 13.6963C4.07697 14.4417 4.00001 15.212 4 16C4 16.7881 4.07768 17.5582 4.22363 18.3037C4.32141 18.8034 4.07393 19.3169 3.60352 19.5117C3.04816 19.7416 2.41298 19.4391 2.29102 18.8506C2.10044 17.9303 2 16.9767 2 16C2.00001 15.0235 2.10047 14.0705 2.29102 13.1504ZM28.3955 12.4902C28.9511 12.2599 29.587 12.5624 29.709 13.1514C29.8994 14.0711 30 15.0238 30 16C30 16.9766 29.8989 17.9295 29.708 18.8496C29.5859 19.438 28.9507 19.7407 28.3955 19.5107C27.9257 19.316 27.6788 18.8029 27.7764 18.3037C27.9224 17.5583 28 16.788 28 16C28 15.2124 27.9222 14.4431 27.7764 13.6982C27.6786 13.1989 27.9256 12.6853 28.3955 12.4902ZM22.2852 4.75488C22.5153 4.19884 23.1789 3.96329 23.6816 4.29395C25.2833 5.34726 26.6555 6.72097 27.708 8.32324C28.0379 8.82581 27.8026 9.48874 27.2471 9.71875C26.777 9.91326 26.2395 9.72553 25.9551 9.30371C25.0899 8.01994 23.9836 6.91249 22.7002 6.04688C22.2784 5.76231 22.0907 5.22504 22.2852 4.75488ZM8.32129 4.29199C8.82375 3.96188 9.48745 4.19662 9.71777 4.75195C9.91275 5.22227 9.72392 5.76033 9.30176 6.04492C8.01774 6.91051 6.9105 8.01773 6.04492 9.30176C5.76033 9.72393 5.22228 9.91276 4.75195 9.71777C4.19661 9.48745 3.96187 8.82375 4.29199 8.32129C5.34519 6.71875 6.71875 5.3452 8.32129 4.29199ZM16 2C16.9775 2 17.9315 2.10101 18.8525 2.29199C19.4409 2.41401 19.7436 3.04936 19.5137 3.60449C19.3188 4.07442 18.805 4.32138 18.3057 4.22363C17.5595 4.07758 16.7888 4 16 4C15.2119 4.00002 14.4418 4.07699 13.6963 4.22266C13.197 4.32024 12.6831 4.07347 12.4883 3.60352C12.2583 3.04834 12.561 2.41288 13.1494 2.29102C14.0698 2.10042 15.0232 2.00002 16 2Z" fill="#212121"/>
</svg>
