<svg width="24" height="24" viewBox="0 0 24 24" fill="none" xmlns="http://www.w3.org/2000/svg">
<path d="M7.5 8C9.15685 8 10.5 6.65685 10.5 5C10.5 3.34315 9.15685 2 7.5 2C5.84315 2 4.5 3.34315 4.5 5C4.5 6.65685 5.84315 8 7.5 8ZM7.5 7C6.39543 7 5.5 6.10457 5.5 5C5.5 3.89543 6.39543 3 7.5 3C8.60457 3 9.5 3.89543 9.5 5C9.5 6.10457 8.60457 7 7.5 7ZM18.9194 7.16127C18.9194 8.58652 17.764 9.74192 16.3387 9.74192C14.9135 9.74192 13.7581 8.58652 13.7581 7.16127C13.7581 5.73602 14.9135 4.58063 16.3387 4.58063C17.764 4.58063 18.9194 5.73602 18.9194 7.16127ZM17.9194 7.16127C17.9194 6.28831 17.2117 5.58063 16.3387 5.58063C15.4657 5.58063 14.7581 6.28831 14.7581 7.16127C14.7581 8.03424 15.4657 8.74192 16.3387 8.74192C17.2117 8.74192 17.9194 8.03424 17.9194 7.16127ZM6.25 21.9919C6.73967 21.9919 7.18238 21.7908 7.5 21.4667C7.81763 21.7908 8.26033 21.9919 8.75 21.9919C9.7165 21.9919 10.5 21.2084 10.5 20.2419V15.6791C10.7273 15.7871 10.9816 15.8476 11.25 15.8476C12.078 15.8476 12.7717 15.2725 12.9535 14.5H13.5V20.2419C13.5 21.2084 14.2835 21.9919 15.25 21.9919C15.7499 21.9919 16.2009 21.7823 16.5198 21.4462C16.8359 21.7587 17.2704 21.9516 17.75 21.9516C18.7165 21.9516 19.5 21.1681 19.5 20.2016V16.8316C19.7273 16.9396 19.9816 17 20.25 17C21.2165 17 22 16.2165 22 15.25V13.5C22 12.1193 20.8807 11 19.5 11H12.95C12.7184 9.85888 11.7095 9 10.5 9H4.5C3.11929 9 2 10.1193 2 11.5V14.25C2 15.2165 2.7835 16 3.75 16C4.0184 16 4.27269 15.9396 4.5 15.8316V20.2419C4.5 21.2084 5.2835 21.9919 6.25 21.9919ZM4.5 10H10.5C11.3284 10 12 10.6716 12 11.5V14.0976C12 14.5118 11.6642 14.8476 11.25 14.8476C10.8358 14.8476 10.5 14.5118 10.5 14.0976V12.0806C10.5 11.8045 10.2761 11.5806 10 11.5806C9.72386 11.5806 9.5 11.8045 9.5 12.0806V20.2419C9.5 20.6561 9.16421 20.9919 8.75 20.9919C8.33579 20.9919 8 20.6561 8 20.2419V16.5C8 16.2239 7.77614 16 7.5 16C7.22386 16 7 16.2239 7 16.5V20.2419C7 20.6561 6.66421 20.9919 6.25 20.9919C5.83579 20.9919 5.5 20.6561 5.5 20.2419V12C5.5 11.7239 5.27614 11.5 5 11.5C4.72386 11.5 4.5 11.7239 4.5 12V14.25C4.5 14.6642 4.16421 15 3.75 15C3.33579 15 3 14.6642 3 14.25V11.5C3 10.6716 3.67157 10 4.5 10ZM13 13.5V12H19.5C20.3284 12 21 12.6716 21 13.5V15.25C21 15.6642 20.6642 16 20.25 16C19.8358 16 19.5 15.6642 19.5 15.25V14C19.5 13.7239 19.2761 13.5 19 13.5C18.7239 13.5 18.5 13.7239 18.5 14V20.2016C18.5 20.6158 18.1642 20.9516 17.75 20.9516C17.3358 20.9516 17 20.6158 17 20.2016V17.5C17 17.2239 16.7761 17 16.5 17C16.2239 17 16 17.2239 16 17.5V20.2419C16 20.6561 15.6642 20.9919 15.25 20.9919C14.8358 20.9919 14.5 20.6561 14.5 20.2419V13.5H13Z" fill="#212121"/>
</svg>
