<svg width="32" height="32" viewBox="0 0 32 32" fill="none" xmlns="http://www.w3.org/2000/svg">
<path d="M18 20C18 21.1046 17.1046 22 16 22C14.8954 22 14 21.1046 14 20C14 18.8954 14.8954 18 16 18C17.1046 18 18 18.8954 18 20ZM10 10V8C10 4.68629 12.6863 2 16 2C19.3137 2 22 4.68629 22 8V10H23.5C25.433 10 27 11.567 27 13.5V26.5C27 28.433 25.433 30 23.5 30H8.5C6.567 30 5 28.433 5 26.5V13.5C5 11.567 6.567 10 8.5 10H10ZM12 8V10H20V8C20 5.79086 18.2091 4 16 4C13.7909 4 12 5.79086 12 8ZM8.5 12C7.67157 12 7 12.6716 7 13.5V26.5C7 27.3284 7.67157 28 8.5 28H23.5C24.3284 28 25 27.3284 25 26.5V13.5C25 12.6716 24.3284 12 23.5 12H8.5Z" fill="#212121"/>
</svg>
