<svg width="20" height="20" viewBox="0 0 20 20" fill="none" xmlns="http://www.w3.org/2000/svg">
<path d="M9.99917 11.499C10.8275 11.499 11.499 10.8275 11.499 9.99911C11.499 9.17077 10.8275 8.49927 9.99917 8.49927C9.17083 8.49927 8.49933 9.17077 8.49933 9.99911C8.49933 10.8275 9.17083 11.499 9.99917 11.499ZM4.99969 9.99908C4.99969 7.23794 7.23803 4.9996 9.99917 4.9996C12.7413 4.9996 14.9678 7.20724 14.9983 9.94215L13.8472 11.0932C13.9459 10.7455 13.9988 10.3785 13.9988 9.99908C13.9988 7.79017 12.2081 5.99949 9.99917 5.99949C7.79026 5.99949 5.99959 7.79017 5.99959 9.99908C5.99959 12.208 7.79026 13.9987 9.99917 13.9987C10.3785 13.9987 10.7456 13.9458 11.0933 13.8472L10.2717 14.6688C10.1681 14.7724 10.0721 14.8826 9.98428 14.9985C7.22999 14.9905 4.99969 12.7553 4.99969 9.99908ZM9.99917 2.9999C13.5277 2.9999 16.4464 5.61094 16.9286 9.00631C17.2716 8.98232 17.6182 9.01971 17.9504 9.11848C17.512 5.11504 14.1194 2 9.99917 2C5.58135 2 2 5.58135 2 9.99917C2 14.081 5.05737 17.4488 9.00702 17.9374C9.01611 17.8431 9.03241 17.7477 9.05643 17.6516L9.23016 16.9567C5.72638 16.5738 2.9999 13.6049 2.9999 9.99917C2.9999 6.13358 6.13358 2.9999 9.99917 2.9999ZM10.9788 15.3758L15.8077 10.5469C16.538 9.8166 17.722 9.8166 18.4523 10.5469C19.1826 11.2771 19.1826 12.4611 18.4523 13.1914L13.6234 18.0203C13.3418 18.3019 12.9891 18.5016 12.6028 18.5982L11.105 18.9726C10.4537 19.1355 9.8637 18.5455 10.0265 17.8941L10.401 16.3964C10.4975 16.0101 10.6973 15.6573 10.9788 15.3758Z" fill="#212121"/>
</svg>
