<svg width="20" height="20" viewBox="0 0 20 20" fill="none" xmlns="http://www.w3.org/2000/svg">
<path d="M2.00092 10C2.00092 5.58224 5.58221 2.00095 9.99997 2.00095C13.9359 2.00095 17.2078 4.84362 17.8748 8.58787C17.3768 8.20578 16.7822 8.00911 16.1848 7.99785C15.3406 5.38823 12.8907 3.50095 9.99997 3.50095C6.41064 3.50095 3.50092 6.41067 3.50092 10C3.50092 12.9502 5.4667 15.4413 8.15989 16.2349L8.05597 16.6506C7.95652 17.0484 7.98924 17.4354 8.11921 17.7767C4.60894 16.9308 2.00092 13.77 2.00092 10Z" fill="#212121"/>
<path d="M10.003 5.00299C12.1898 5.00299 14.0488 6.40689 14.7277 8.36258C14.5031 8.48849 14.2918 8.64696 14.1008 8.83798L13.4635 9.47532C13.209 7.79269 11.7566 6.50299 10.003 6.50299C8.06999 6.50299 6.50299 8.06999 6.50299 10.003C6.50299 11.7566 7.79269 13.209 9.47532 13.4635L9.27139 13.6674C8.95233 13.9865 8.70547 14.3684 8.54547 14.7872C6.49501 14.1633 5.00299 12.2574 5.00299 10.003C5.00299 7.24157 7.24157 5.00299 10.003 5.00299Z" fill="#212121"/>
<path d="M11.503 10.003C11.503 10.8314 10.8314 11.503 10.003 11.503C9.17456 11.503 8.50299 10.8314 8.50299 10.003C8.50299 9.17459 9.17456 8.50302 10.003 8.50302C10.8314 8.50302 11.503 9.17459 11.503 10.003Z" fill="#212121"/>
<path d="M14.8079 9.54509L9.9785 14.3745C9.69693 14.6561 9.49717 15.0089 9.40059 15.3952L9.02611 16.8931C8.86326 17.5445 9.45331 18.1346 10.1047 17.9717L11.6026 17.5972C11.9889 17.5007 12.3417 17.3009 12.6233 17.0193L17.4528 12.1899C18.1831 11.4596 18.1831 10.2754 17.4528 9.54509C16.7224 8.81474 15.5383 8.81474 14.8079 9.54509ZM15.515 10.2522C15.8549 9.91237 16.4058 9.91237 16.7456 10.2522C17.0855 10.592 17.0855 11.143 16.7456 11.4828L11.9162 16.3122C11.7628 16.4656 11.5706 16.5745 11.3601 16.6271L10.0409 16.9569L10.3707 15.6378C10.4234 15.4273 10.5322 15.235 10.6856 15.0816L15.515 10.2522Z" fill="#212121"/>
</svg>
