<svg width="24" height="24" viewBox="0 0 24 24" fill="none" xmlns="http://www.w3.org/2000/svg">
<path d="M1.9978 12.0001C1.9978 6.47614 6.4759 1.99805 11.9999 1.99805C17.0685 1.99805 21.2565 5.76821 21.9126 10.6572C21.4252 10.2176 20.8379 9.94986 20.2288 9.85381C19.2777 6.19736 15.954 3.49805 11.9999 3.49805C7.30432 3.49805 3.4978 7.30457 3.4978 12.0001C3.4978 16.0241 6.29333 19.3952 10.0482 20.2772C9.91853 20.8605 10.0445 21.4198 10.3352 21.8643C5.60355 21.0717 1.9978 16.957 1.9978 12.0001Z" fill="#212121"/>
<path d="M11.9999 6.00015C14.7714 6.00015 17.1041 7.87933 17.7932 10.4331C17.6523 10.5348 17.5177 10.6491 17.3909 10.7759L16.4885 11.6783C16.3235 9.34321 14.3769 7.50015 11.9999 7.50015C9.5146 7.50015 7.49988 9.51487 7.49988 12.0002C7.49988 14.3772 9.34294 16.3238 11.678 16.4888L11.4885 16.6783C11.1491 17.0177 10.8806 17.4188 10.6962 17.8581C8.00934 17.2628 5.99988 14.8662 5.99988 12.0002C5.99988 8.68644 8.68617 6.00015 11.9999 6.00015Z" fill="#212121"/>
<path d="M13.9999 12.0002C13.9999 13.1047 13.1044 14.0002 11.9999 14.0002C10.8953 14.0002 9.99988 13.1047 9.99988 12.0002C9.99988 10.8956 10.8953 10.0002 11.9999 10.0002C13.1044 10.0002 13.9999 10.8956 13.9999 12.0002Z" fill="#212121"/>
<path d="M12.1956 17.5807L18.0981 11.6783C18.9907 10.7856 20.4379 10.7856 21.3305 11.6783C22.2231 12.5709 22.2231 14.0181 21.3305 14.9107L15.4281 20.8131C15.0839 21.1573 14.6527 21.4014 14.1806 21.5194L12.3499 21.9771C11.5538 22.1762 10.8326 21.455 11.0316 20.6589L11.4893 18.8282C11.6074 18.356 11.8515 17.9248 12.1956 17.5807ZM19.1587 12.7389L13.2563 18.6413C13.1044 18.7932 12.9966 18.9836 12.9445 19.192L12.6538 20.355L13.8168 20.0642C14.0252 20.0121 14.2155 19.9044 14.3674 19.7525L20.2698 13.85C20.5767 13.5432 20.5767 13.0458 20.2698 12.7389C19.963 12.4321 19.4655 12.4321 19.1587 12.7389Z" fill="#212121"/>
</svg>
