<svg width="24" height="24" viewBox="0 0 24 24" fill="none" xmlns="http://www.w3.org/2000/svg">
<path d="M17.499 4.5C19.9132 4.5 21.999 6.33429 21.999 8.75C21.999 10.0795 21.3661 11.2316 20.3955 12C21.3661 12.7684 21.999 13.9205 21.999 15.25C21.999 17.6657 19.9132 19.5 17.499 19.5C15.7514 19.4999 13.8147 18.528 13.0879 16.9102C12.8617 16.4065 13.0863 15.8143 13.5898 15.5879C14.0935 15.3617 14.6857 15.5863 14.9121 16.0898C15.2402 16.8205 16.3351 17.4999 17.499 17.5C18.9508 17.5 19.999 16.4241 19.999 15.25C19.999 14.0759 18.9508 13 17.499 13H16.999C16.4469 12.9998 15.999 12.5522 15.999 12C15.999 11.4478 16.4469 11.0002 16.999 11H17.499C18.9508 11 19.999 9.92414 19.999 8.75C19.999 7.57586 18.9508 6.5 17.499 6.5C16.3351 6.50012 15.2402 7.17949 14.9121 7.91016C14.6857 8.41366 14.0935 8.6383 13.5898 8.41211C13.0863 8.1857 12.8617 7.59351 13.0879 7.08984C13.8147 5.47198 15.7514 4.50012 17.499 4.5ZM11 5C11.5523 5 12 5.44772 12 6V18C12 18.5523 11.5523 19 11 19C10.4477 19 10 18.5523 10 18V13H4V18C4 18.5523 3.55228 19 3 19C2.44772 19 2 18.5523 2 18V6C2 5.44772 2.44772 5 3 5C3.55228 5 4 5.44772 4 6V11H10V6C10 5.44772 10.4477 5 11 5Z" fill="#212121"/>
</svg>
