<svg width="24" height="24" viewBox="0 0 24 24" fill="none" xmlns="http://www.w3.org/2000/svg">
<path d="M5.2498 3C4.00727 3 3 4.00727 3 5.2498V18.7486C3 19.9911 4.00727 20.9984 5.2498 20.9984H11.1644L11.5202 19.5754C11.5266 19.5497 11.5333 19.5241 11.5402 19.4985H5.2498C4.83563 19.4985 4.49987 19.1628 4.49987 18.7486V5.2498C4.49987 4.83563 4.83563 4.49987 5.2498 4.49987H18.7486C19.1628 4.49987 19.4985 4.83563 19.4985 5.2498V11.2317C19.9774 11.0412 20.492 10.9678 20.9984 11.0115V5.2498C20.9984 4.00727 19.9911 3 18.7486 3H5.2498ZM15.3539 14.9989H11.2493C10.835 14.9989 10.4993 15.3347 10.4993 15.7489C10.4993 16.163 10.835 16.4988 11.2493 16.4988H13.8541L15.3539 14.9989ZM8.74949 8.24954C8.74949 8.80177 8.30181 9.24945 7.74958 9.24945C7.19735 9.24945 6.74967 8.80177 6.74967 8.24954C6.74967 7.69731 7.19735 7.24963 7.74958 7.24963C8.30181 7.24963 8.74949 7.69731 8.74949 8.24954ZM11.2493 7.4996C10.8351 7.4996 10.4993 7.83536 10.4993 8.24954C10.4993 8.66371 10.8351 8.99947 11.2493 8.99947H16.7488C17.163 8.99947 17.4987 8.66371 17.4987 8.24954C17.4987 7.83536 17.163 7.4996 16.7488 7.4996H11.2493ZM11.2493 11.2493C10.835 11.2493 10.4993 11.585 10.4993 11.9992C10.4993 12.4134 10.835 12.7491 11.2493 12.7491H16.7486C17.1629 12.7491 17.4985 12.4134 17.4985 11.9992C17.4985 11.585 17.1629 11.2493 16.7486 11.2493H11.2493ZM7.74958 12.9991C8.30181 12.9991 8.74949 12.5515 8.74949 11.9992C8.74949 11.447 8.30181 10.9993 7.74958 10.9993C7.19735 10.9993 6.74967 11.447 6.74967 11.9992C6.74967 12.5515 7.19735 12.9991 7.74958 12.9991ZM8.74949 15.7489C8.74949 16.3011 8.30181 16.7488 7.74958 16.7488C7.19735 16.7488 6.74967 16.3011 6.74967 15.7489C6.74967 15.1966 7.19735 14.749 7.74958 14.749C8.30181 14.749 8.74949 15.1966 8.74949 15.7489ZM19.0984 12.6686L13.1965 18.5705C12.8524 18.9146 12.6083 19.3458 12.4903 19.8179L12.0327 21.6484C11.8336 22.4445 12.5547 23.1656 13.3508 22.9666L15.1813 22.5089C15.6534 22.3909 16.0846 22.1468 16.4287 21.8027L22.3306 15.9008C23.2231 15.0082 23.2231 13.5611 22.3306 12.6686C21.4381 11.7761 19.991 11.7761 19.0984 12.6686Z" fill="#212121"/>
</svg>
