<svg width="24" height="24" viewBox="0 0 24 24" fill="none" xmlns="http://www.w3.org/2000/svg">
<path d="M3 5.25C3 4.00736 4.00736 3 5.25 3H18.75C19.9926 3 21 4.00736 21 5.25V11.0122C20.0672 10.9318 19.1066 11.2485 18.3927 11.9624L15.355 15H11.2501C10.8358 15 10.5001 15.3358 10.5001 15.75C10.5001 16.1642 10.8358 16.5 11.2501 16.5H13.855L12.4903 17.8648C12.018 18.3371 11.6829 18.9288 11.5209 19.5768L11.1651 21H5.25C4.00736 21 3 19.9926 3 18.75V5.25ZM7.75 9.25C8.30228 9.25 8.75 8.80228 8.75 8.25C8.75 7.69772 8.30228 7.25 7.75 7.25C7.19772 7.25 6.75 7.69772 6.75 8.25C6.75 8.80228 7.19772 9.25 7.75 9.25ZM11.25 7.5C10.8358 7.5 10.5 7.83579 10.5 8.25C10.5 8.66421 10.8358 9 11.25 9H16.75C17.1642 9 17.5 8.66421 17.5 8.25C17.5 7.83579 17.1642 7.5 16.75 7.5H11.25ZM11.2501 11.25C10.8358 11.25 10.5001 11.5858 10.5001 12C10.5001 12.4142 10.8358 12.75 11.2501 12.75H16.7499C17.1642 12.75 17.4999 12.4142 17.4999 12C17.4999 11.5858 17.1642 11.25 16.7499 11.25H11.2501ZM6.75 12C6.75 12.5523 7.19772 13 7.75 13C8.30228 13 8.75 12.5523 8.75 12C8.75 11.4477 8.30228 11 7.75 11C7.19772 11 6.75 11.4477 6.75 12ZM7.75 16.75C8.30228 16.75 8.75 16.3023 8.75 15.75C8.75 15.1977 8.30228 14.75 7.75 14.75C7.19772 14.75 6.75 15.1977 6.75 15.75C6.75 16.3023 7.19772 16.75 7.75 16.75ZM19.0999 12.6695L13.1974 18.5719C12.8533 18.916 12.6092 19.3472 12.4911 19.8194L12.0334 21.6501C11.8344 22.4462 12.5556 23.1674 13.3517 22.9683L15.1824 22.5106C15.6545 22.3926 16.0857 22.1485 16.4299 21.8043L22.3323 15.9019C23.2249 15.0093 23.2249 13.5621 22.3323 12.6695C21.4397 11.7768 19.9925 11.7768 19.0999 12.6695Z" fill="#212121"/>
</svg>
