<svg width="20" height="20" viewBox="0 0 20 20" fill="none" xmlns="http://www.w3.org/2000/svg">
<path d="M7.5 4C7.5 2.61929 8.61929 1.5 10 1.5C11.3807 1.5 12.5 2.61929 12.5 4H17C17.2761 4 17.5 4.22386 17.5 4.5C17.5 4.77614 17.2761 5 17 5H16.446L15.5227 13H14.5156L15.438 5H4.561L5.84347 16.1146C5.90169 16.6192 6.32894 17 6.83688 17H12.0854C12.1512 17.1863 12.2528 17.3557 12.3819 17.5C12.2528 17.6443 12.1512 17.8137 12.0854 18H6.83688C5.821 18 4.9665 17.2384 4.85006 16.2292L3.553 5H3C2.75454 5 2.55039 4.82312 2.50806 4.58988L2.5 4.5C2.5 4.22386 2.72386 4 3 4H7.5ZM11.5 4C11.5 3.17157 10.8284 2.5 10 2.5C9.17157 2.5 8.5 3.17157 8.5 4H11.5ZM13.5 16C13.2239 16 13 16.2239 13 16.5C13 16.7279 13.1524 16.9201 13.3609 16.9804C13.405 16.9932 13.4517 17 13.5 17H18.5C18.7761 17 19 16.7761 19 16.5C19 16.2239 18.7761 16 18.5 16H13.5ZM13.5 14C13.2239 14 13 14.2239 13 14.5C13 14.7761 13.2239 15 13.5 15H18.5C18.7761 15 19 14.7761 19 14.5C19 14.2239 18.7761 14 18.5 14H13.5ZM8.5 7.5C8.74546 7.5 8.94961 7.65477 8.99194 7.85886L9 7.9375V14.0625C9 14.3041 8.77614 14.5 8.5 14.5C8.25454 14.5 8.05039 14.3452 8.00806 14.1411L8 14.0625V7.9375C8 7.69588 8.22386 7.5 8.5 7.5ZM11.5 7.5C11.7455 7.5 11.9496 7.65477 11.9919 7.85886L12 7.9375V14.0625C12 14.3041 11.7761 14.5 11.5 14.5C11.2545 14.5 11.0504 14.3452 11.0081 14.1411L11 14.0625V7.9375C11 7.69588 11.2239 7.5 11.5 7.5ZM13 18.5C13 18.2239 13.2239 18 13.5 18H18.5C18.7761 18 19 18.2239 19 18.5C19 18.7761 18.7761 19 18.5 19H13.5C13.2239 19 13 18.7761 13 18.5Z" fill="#212121"/>
</svg>
