<svg width="16" height="16" viewBox="0 0 16 16" fill="none" xmlns="http://www.w3.org/2000/svg">
<path d="M3 2.71429C3 1.76751 3.76702 1 4.71319 1H10.2868C11.233 1 12 1.76751 12 2.71429V11.2857C12 12.2325 11.233 13 10.2868 13H4.71319C3.76702 13 3 12.2325 3 11.2857V2.71429ZM9.08988 10.499C9.32312 10.4567 9.5 10.2525 9.5 10.0071C9.5 9.73094 9.27614 9.50708 9 9.50708H6L5.91012 9.51514C5.67688 9.55747 5.5 9.76162 5.5 10.0071C5.5 10.2832 5.72386 10.5071 6 10.5071H9L9.08988 10.499ZM9 7.5L9.08988 7.49194C9.32312 7.44961 9.5 7.24546 9.5 7C9.5 6.72386 9.27614 6.5 9 6.5H6L5.91012 6.50806C5.67688 6.55039 5.5 6.75454 5.5 7C5.5 7.27614 5.72386 7.5 6 7.5H9ZM9.08988 4.48486C9.32312 4.44253 9.5 4.23838 9.5 3.99292C9.5 3.71678 9.27614 3.49292 9 3.49292H6L5.91012 3.50098C5.67688 3.54331 5.5 3.74746 5.5 3.99292C5.5 4.26906 5.72386 4.49292 6 4.49292H9L9.08988 4.48486ZM14 11.2105V4.74956C14 4.05146 13.5912 3.44883 13 3.16797V11C13 12.6569 11.6569 14 10 14L5 14C5 14.5523 5.44772 15 6 15H10.2105C12.3034 15 14 13.3034 14 11.2105Z" fill="#212121"/>
</svg>
