<svg width="20" height="20" viewBox="0 0 20 20" fill="none" xmlns="http://www.w3.org/2000/svg">
<path d="M3.55217 2.44282C4.40607 1.96516 5.49527 1.85286 6.53655 2.11665C7.04307 2.24499 7.47574 2.57358 7.73576 3.0268L8.6342 4.59321C9.29894 5.75288 8.93347 7.23015 7.8051 7.94673L7.01506 8.44868C6.6884 8.65615 6.56822 8.97254 6.64299 9.22407C6.91043 10.1213 7.50372 11.1182 8.15569 11.8002C8.34975 12.0032 8.70574 12.0523 9.05412 11.8491L9.49065 11.5942C10.6981 10.8899 12.249 11.3121 12.9321 12.5317L13.7358 13.9672C13.9987 14.4369 14.0426 14.9986 13.8559 15.5034C13.4849 16.5063 12.77 17.3142 11.891 17.7192C10.998 18.1307 9.95224 18.1149 9.00627 17.4838C7.50898 16.485 5.7036 14.8049 4.06877 12.0024C2.41283 9.16363 1.99547 6.74607 2.04241 4.94477C2.07251 3.79086 2.683 2.92912 3.55217 2.44282ZM17.1469 4.14692C17.3422 3.95167 17.6587 3.95166 17.8539 4.14692C18.0488 4.34221 18.049 4.65883 17.8539 4.85395L14.8539 7.85395C14.6588 8.04907 14.3422 8.04879 14.1469 7.85395L11.1469 4.85395C10.9516 4.65869 10.9516 4.34218 11.1469 4.14692C11.3422 3.95167 11.6587 3.95166 11.8539 4.14692L14.5004 6.79341L17.1469 4.14692Z" fill="#212121"/>
</svg>
