<svg width="48" height="48" viewBox="0 0 48 48" fill="none" xmlns="http://www.w3.org/2000/svg">
<path d="M14.1621 3.75C16.393 3.75001 18.3801 5.15998 19.1172 7.26562L20.6885 11.7549C21.4595 13.9576 20.6842 16.4052 18.7851 17.7617L16.0185 19.7373C15.2059 20.3177 14.9965 21.0809 15.2265 21.6406C16.2336 24.0906 18.527 27.399 20.3857 29.3154C20.8395 29.7833 21.6105 29.9448 22.456 29.6347L25.414 28.5498C27.5028 27.7839 29.8481 28.4179 31.2666 30.1318L33.6806 33.0498C35.0872 34.7494 35.2597 37.1545 34.1094 39.0371C31.4725 43.3519 25.9589 45.4882 21.4658 42.414C17.68 39.8236 13.0591 35.6816 9.41795 29.375C5.74841 23.0192 4.67443 16.9908 4.53904 12.4853C4.37829 7.1301 9.07826 3.74999 14.0097 3.75H14.1621ZM41.6162 10.3662C42.1043 9.87807 42.8956 9.8781 43.3838 10.3662C43.8719 10.8544 43.8719 11.6456 43.3838 12.1338L35.8838 19.6338C35.3956 20.1219 34.6043 20.1219 34.1162 19.6338L26.6162 12.1338C26.1281 11.6456 26.1281 10.8543 26.6162 10.3662C27.1043 9.87807 27.8956 9.8781 28.3838 10.3662L35 16.9824L41.6162 10.3662Z" fill="#212121"/>
</svg>
