<svg width="24" height="24" viewBox="0 0 24 24" fill="none" xmlns="http://www.w3.org/2000/svg">
<path d="M9.75006 18.1513C10.1643 18.1513 10.5001 18.4871 10.5001 18.9013C10.5001 19.3155 10.1643 19.6513 9.75006 19.6513C9.33584 19.6513 9.00006 19.3155 9.00006 18.9013C9.00006 18.4871 9.33584 18.1513 9.75006 18.1513ZM14.2501 18.1513C14.6643 18.1513 15.0001 18.4871 15.0001 18.9013C15.0001 19.3155 14.6643 19.6513 14.2501 19.6513C13.8358 19.6513 13.5001 19.3155 13.5001 18.9013C13.5001 18.4871 13.8358 18.1513 14.2501 18.1513ZM7.50006 17.1513C7.91427 17.1513 8.25006 17.4871 8.25006 17.9013C8.25006 18.3155 7.91427 18.6513 7.50006 18.6513C7.08584 18.6513 6.75006 18.3155 6.75006 17.9013C6.75006 17.4871 7.08584 17.1513 7.50006 17.1513ZM12.0001 17.1513C12.4143 17.1513 12.7501 17.4871 12.7501 17.9013C12.7501 18.3155 12.4143 18.6513 12.0001 18.6513C11.5858 18.6513 11.2501 18.3155 11.2501 17.9013C11.2501 17.4871 11.5858 17.1513 12.0001 17.1513ZM16.5001 17.1513C16.9143 17.1513 17.2501 17.4871 17.2501 17.9013C17.2501 18.3155 16.9143 18.6513 16.5001 18.6513C16.0858 18.6513 15.7501 18.3155 15.7501 17.9013C15.7501 17.4871 16.0858 17.1513 16.5001 17.1513ZM12.0001 4.00073C15.1686 4.00073 16.966 6.09802 17.2275 8.63086L17.3074 8.63086C19.3465 8.63086 20.9995 10.2796 20.9995 12.3134C20.9995 14.3472 19.3465 15.9959 17.3074 15.9959H6.69269C4.65361 15.9959 3.00061 14.3472 3.00061 12.3134C3.00061 10.2796 4.65361 8.63086 6.69271 8.63086L6.77266 8.63086C7.03559 6.08138 8.83152 4.00073 12.0001 4.00073ZM12.0001 5.49832C9.92873 5.49832 8.12335 7.13156 8.12335 9.38754C8.12335 9.745 7.8044 10.0255 7.43918 10.0255L6.74863 10.0255C5.48764 10.0255 4.4654 11.0267 4.4654 12.2619C4.4654 13.497 5.48764 14.4983 6.74863 14.4983H17.2515C18.5125 14.4983 19.5347 13.497 19.5347 12.2619C19.5347 11.0267 18.5125 10.0255 17.2515 10.0255L16.5609 10.0255C16.1957 10.0255 15.8768 9.745 15.8768 9.38754C15.8768 7.10262 14.0714 5.49832 12.0001 5.49832Z" fill="#212121"/>
</svg>
