<svg width="20" height="20" viewBox="0 0 20 20" fill="none" xmlns="http://www.w3.org/2000/svg">
<path d="M9.53425 2.0434C9.23536 2.14979 9.03574 2.43272 9.03574 2.74998V8.63205L7.22128 7.16652C6.89904 6.90626 6.42684 6.95649 6.16657 7.27873C5.9063 7.60096 5.95654 8.07317 6.27877 8.33344L8.34211 9.99998L6.27877 11.6665C5.95654 11.9268 5.9063 12.399 6.16657 12.7212C6.42684 13.0435 6.89904 13.0937 7.22128 12.8334L9.03574 11.3679V17.25C9.03574 17.5672 9.23536 17.8502 9.53425 17.9566C9.83314 18.0629 10.1666 17.9698 10.3671 17.7238L13.8314 13.4738C13.9574 13.3192 14.0167 13.1207 13.996 12.9223C13.9753 12.7239 13.8765 12.5419 13.7213 12.4165L10.7294 9.99998L13.7213 7.58344C13.8765 7.45809 13.9753 7.27607 13.996 7.07765C14.0167 6.87922 13.9574 6.68075 13.8314 6.52612L10.3671 2.27612C10.1666 2.03021 9.83314 1.93702 9.53425 2.0434ZM10.5357 11.7718L12.1927 13.1101L10.5357 15.1428V11.7718ZM10.5357 8.2282V4.85713L12.1927 6.88989L10.5357 8.2282ZM17.2546 6.32255C17.6287 6.14482 18.0761 6.30404 18.2539 6.67818C18.7326 7.68587 19 8.81274 19 10C19 11.1873 18.7326 12.3141 18.2539 13.3218C18.0761 13.696 17.6287 13.8552 17.2546 13.6774C16.8805 13.4997 16.7212 13.0523 16.899 12.6782C17.2842 11.8674 17.5 10.9599 17.5 10C17.5 9.04006 17.2842 8.13264 16.899 7.32182C16.7212 6.94768 16.8805 6.50029 17.2546 6.32255ZM16.2081 8.27024C16.0717 7.87914 15.6441 7.67269 15.253 7.80913C14.8619 7.94556 14.6554 8.37321 14.7919 8.76431C14.9265 9.15026 15 9.56576 15 10C15 10.4343 14.9265 10.8498 14.7919 11.2357C14.6554 11.6268 14.8619 12.0545 15.253 12.1909C15.6441 12.3273 16.0717 12.1209 16.2081 11.7298C16.3974 11.1872 16.5 10.6048 16.5 10C16.5 9.39526 16.3974 8.81285 16.2081 8.27024Z" fill="#212121"/>
</svg>
