<svg width="32" height="32" viewBox="0 0 32 32" fill="none" xmlns="http://www.w3.org/2000/svg">
<path d="M9.99931 11C12.2085 11 13.9993 9.20914 13.9993 7C13.9993 4.79086 12.2085 3 9.99931 3C7.79017 3 5.99931 4.79086 5.99931 7C5.99931 9.20914 7.79017 11 9.99931 11ZM9.99931 10C8.34246 10 6.99931 8.65685 6.99931 7C6.99931 5.34315 8.34246 4 9.99931 4C11.6562 4 12.9993 5.34315 12.9993 7C12.9993 8.65685 11.6562 10 9.99931 10ZM21.9993 11C24.2085 11 25.9993 9.20914 25.9993 7C25.9993 4.79086 24.2085 3 21.9993 3C19.7902 3 17.9993 4.79086 17.9993 7C17.9993 9.20914 19.7902 11 21.9993 11ZM21.9993 10C20.3425 10 18.9993 8.65685 18.9993 7C18.9993 5.34315 20.3425 4 21.9993 4C23.6562 4 24.9993 5.34315 24.9993 7C24.9993 8.65685 23.6562 10 21.9993 10ZM19.9993 15C19.9993 17.2091 18.2085 19 15.9993 19C13.7902 19 11.9993 17.2091 11.9993 15C11.9993 12.7909 13.7902 11 15.9993 11C18.2085 11 19.9993 12.7909 19.9993 15ZM18.9993 15C18.9993 13.3431 17.6562 12 15.9993 12C14.3425 12 12.9993 13.3431 12.9993 15C12.9993 16.6569 14.3425 18 15.9993 18C17.6562 18 18.9993 16.6569 18.9993 15ZM8.24606 23.5051C8.07978 22.1749 9.11697 21 10.4575 21H21.5411C22.8817 21 23.9188 22.1749 23.7526 23.5051C23.2888 27.2156 20.1346 30 16.3952 30H15.6034C11.864 30 8.70987 27.2156 8.24606 23.5051ZM10.4575 22C9.71847 22 9.14667 22.6477 9.23833 23.381C9.63959 26.5911 12.3684 29 15.6034 29H16.3952C19.6303 29 22.359 26.5911 22.7603 23.381C22.852 22.6477 22.2802 22 21.5411 22H10.4575ZM24.8824 21.5717C24.7267 21.2589 24.5281 20.9701 24.2939 20.7137C26.6455 19.9853 28.4408 17.9371 28.7603 15.381C28.852 14.6477 28.2802 14 27.5411 14H21.4086C21.3451 13.6543 21.2493 13.3199 21.1244 13H27.5411C28.8817 13 29.9188 14.1749 29.7526 15.5051C29.3966 18.3528 27.456 20.655 24.8824 21.5717ZM4.45749 13H10.8743C10.7493 13.3199 10.6535 13.6543 10.59 14H4.45749C3.71846 14 3.14667 14.6477 3.23833 15.381C3.55784 17.9371 5.35316 19.9853 7.70472 20.7137C7.47052 20.9701 7.27193 21.2589 7.11625 21.5717C4.54263 20.655 2.60201 18.3528 2.24605 15.5051C2.07978 14.1749 3.11696 13 4.45749 13Z" fill="#212121"/>
</svg>
