<svg width="20" height="20" viewBox="0 0 20 20" fill="none" xmlns="http://www.w3.org/2000/svg">
<path d="M5 3.75C5 3.33579 5.33579 3 5.75 3C6.16421 3 6.5 3.33579 6.5 3.75V14.4393L7.21967 13.7197C7.51256 13.4268 7.98744 13.4268 8.28033 13.7197C8.57322 14.0126 8.57322 14.4874 8.28033 14.7803L6.28033 16.7803C5.98744 17.0732 5.51256 17.0732 5.21967 16.7803L3.21967 14.7803C2.92678 14.4874 2.92678 14.0126 3.21967 13.7197C3.51256 13.4268 3.98744 13.4268 4.28033 13.7197L5 14.4393V3.75ZM13 12.75C13 12.3358 13.3358 12 13.75 12C14.1642 12 14.5 12.3358 14.5 12.75V14.4393L15.2197 13.7197C15.5126 13.4268 15.9874 13.4268 16.2803 13.7197C16.5732 14.0126 16.5732 14.4874 16.2803 14.7803L14.2803 16.7803C14.2084 16.8522 14.1255 16.9065 14.0371 16.9431C13.9487 16.9798 13.8517 17 13.75 17C13.6483 17 13.5513 16.9798 13.4629 16.9431C13.3745 16.9065 13.2916 16.8522 13.2197 16.7803L11.2197 14.7803C10.9268 14.4874 10.9268 14.0126 11.2197 13.7197C11.5126 13.4268 11.9874 13.4268 12.2803 13.7197L13 14.4393V12.75ZM15.75 3C16.1642 3 16.5 3.33579 16.5 3.75V6.5H17.25C17.6642 6.5 18 6.83579 18 7.25C18 7.66421 17.6642 8 17.25 8H16.5V11.25C16.5 11.6642 16.1642 12 15.75 12C15.3358 12 15 11.6642 15 11.25V3.75C15 3.33579 15.3358 3 15.75 3ZM9.75 4C9.33579 4 9 4.33579 9 4.75C9 5.16421 9.33579 5.5 9.75 5.5H12.536C12.5474 6.38415 12.4343 7.30449 12.1051 8.03598C11.9023 8.48659 11.628 8.84289 11.2699 9.08868C10.9159 9.33165 10.4319 9.5 9.75 9.5C9.33579 9.5 9 9.83579 9 10.25C9 10.6642 9.33579 11 9.75 11C10.6931 11 11.4825 10.7621 12.1188 10.3254C12.7509 9.89149 13.1836 9.29466 13.473 8.65152C14.0414 7.38838 14.0955 5.86432 13.9974 4.68772C13.965 4.299 13.6401 4 13.25 4H9.75Z" fill="#212121"/>
</svg>
