<svg width="16" height="16" viewBox="0 0 16 16" fill="none" xmlns="http://www.w3.org/2000/svg">
<path d="M7.17539 3H7.20669L5.5567 4.49998H2V4C2 2.89543 2.89543 2 4 2H5.75C5.86354 2 5.97369 2.03864 6.06235 2.10957L7.17539 3ZM6.08633 5.36995L8.6933 3H12C13.1046 3 14 3.89543 14 5V6.25716C13.0491 5.47182 11.8296 5 10.5 5C7.46243 5 5 7.46243 5 10.5C5 11.02 5.07217 11.5232 5.20703 12H4C2.89543 12 2 11.1046 2 10V5.49998H5.75C5.87438 5.49998 5.9943 5.45362 6.08633 5.36995ZM11.3573 13.9753C11.6924 13.2381 11.9352 12.1991 11.9888 11H9.01097C9.06451 12.1991 9.30739 13.2381 9.64248 13.9753C10.0644 14.9034 10.4428 15 10.4999 15C10.557 15 10.9354 14.9034 11.3573 13.9753ZM8.88691 14.7023C7.34726 14.111 6.21503 12.6978 6.02734 11H8.01007C8.07077 12.4819 8.39865 13.7943 8.88691 14.7023ZM6.02734 10H8.01007C8.07077 8.5181 8.39865 7.2057 8.88691 6.29771C7.34726 6.88905 6.21503 8.30218 6.02734 10ZM10.4999 6C10.4428 6 10.0644 6.09656 9.64248 7.02472C9.30739 7.7619 9.06451 8.80088 9.01097 10H11.9888C11.9352 8.80088 11.6924 7.7619 11.3573 7.02472C10.9354 6.09656 10.557 6 10.4999 6ZM12.1128 6.29771C13.6525 6.88905 14.7847 8.30218 14.9724 10H12.9897C12.929 8.5181 12.6011 7.2057 12.1128 6.29771ZM14.9724 11C14.7847 12.6978 13.6525 14.111 12.1128 14.7023C12.6011 13.7943 12.929 12.4819 12.9897 11H14.9724Z" fill="#212121"/>
</svg>
