<svg width="16" height="16" viewBox="0 0 16 16" fill="none" xmlns="http://www.w3.org/2000/svg">
<path d="M11.2048 2.24369C11.0971 1.9473 10.8154 1.75 10.5 1.75C10.1846 1.75 9.90293 1.9473 9.79515 2.24369L6.125 12.3366V9.87354L6.12197 9.73423L6.12188 9.73142C6.09376 9.09902 5.87567 8.57534 5.48379 8.20159C5.09262 7.82851 4.54035 7.61625 3.86437 7.58264L3.67099 7.57598L3.669 7.57593C2.90187 7.56181 2.27469 7.69999 1.80625 8.02848C1.52364 8.22666 1.45519 8.61643 1.65337 8.89904C1.85155 9.18166 2.24132 9.25011 2.52393 9.05192C2.75305 8.89126 3.16878 8.7996 3.80229 8.8311C4.19728 8.85074 4.45812 8.94768 4.62168 9.10648C4.75704 9.23789 4.84034 9.42595 4.86578 9.68865C4.26815 9.55038 3.67584 9.51553 3.09141 9.58642C2.41081 9.66897 1.85586 9.93278 1.47028 10.3341C1.08405 10.7361 0.875 11.2687 0.875 11.8735C0.875 13.2492 1.87504 14.1652 3.16667 14.1652C3.70927 14.1652 4.28278 13.9962 4.88937 13.6739C4.95066 13.9549 5.20067 14.1652 5.5 14.1652L5.57624 14.1604L5.58465 14.1595C5.71899 14.1413 5.83977 14.0804 5.93289 13.991C6.01382 14.0847 6.11911 14.1595 6.24369 14.2048C6.63297 14.3464 7.06329 14.1456 7.20484 13.7563L8.38896 10.5H12.611L13.7952 13.7563C13.9367 14.1456 14.367 14.3464 14.7563 14.2048C15.1456 14.0633 15.3464 13.633 15.2048 13.2437L11.2048 2.24369ZM10.5 4.69463L12.0656 9H8.93441L10.5 4.69463ZM2.39304 11.2014C2.57163 11.0255 2.84929 10.8992 3.24192 10.8516C3.73383 10.7919 4.23964 10.8322 4.76299 10.976L4.87433 11.0092V12.2433L4.76454 12.3182C4.11813 12.7451 3.58432 12.9394 3.16667 12.9394C2.84714 12.9394 2.58895 12.8393 2.41124 12.6658C2.23402 12.4929 2.125 12.2355 2.125 11.8978C2.125 11.6091 2.21637 11.3754 2.39304 11.2014Z" fill="#212121"/>
</svg>
