<svg width="28" height="28" viewBox="0 0 28 28" fill="none" xmlns="http://www.w3.org/2000/svg">
<path d="M13.3703 8.62284C12.8822 8.13468 12.8822 7.34322 13.3703 6.85507L14.1145 6.11087C16.2624 3.96299 19.7448 3.96299 21.8927 6.11087C24.0406 8.25876 24.0406 11.7412 21.8927 13.889L21.1485 14.6332C20.6603 15.1214 19.8689 15.1214 19.3807 14.6332L13.3703 8.62284ZM12.3097 5.79441C11.2357 6.86835 11.2357 8.60956 12.3097 9.6835L18.3201 15.6939C19.394 16.7678 21.1352 16.7678 22.2092 15.6939L22.9534 14.9497C25.508 12.3951 25.6753 8.35719 23.4553 5.60827L25.7807 3.28C26.0734 2.98692 26.0731 2.51204 25.78 2.21934C25.4869 1.92663 25.012 1.92693 24.7193 2.22L22.3946 4.54768C19.6457 2.3283 15.6083 2.49581 13.0539 5.05021L12.3097 5.79441ZM14.6336 19.3766C15.1217 19.8647 15.1217 20.6562 14.6336 21.1443L13.8894 21.8885C11.7415 24.0364 8.25909 24.0364 6.11121 21.8885C3.96333 19.7406 3.96333 16.2582 6.11121 14.1103L6.85541 13.3661C7.34356 12.878 8.13502 12.878 8.62317 13.3661L14.6336 19.3766ZM15.6942 22.205C16.7682 21.131 16.7682 19.3898 15.6942 18.3159L9.68383 12.3055C8.60989 11.2315 6.86869 11.2315 5.79475 12.3055L5.05055 13.0497C2.49593 15.6043 2.32861 19.6422 4.54858 22.3911L2.22324 24.7194C1.93053 25.0125 1.93083 25.4873 2.22391 25.7801C2.51699 26.0728 2.99186 26.0725 3.28457 25.7794L5.60931 23.4517C8.35822 25.6711 12.3956 25.5036 14.95 22.9492L15.6942 22.205Z" fill="#212121"/>
</svg>
