<svg width="24" height="24" viewBox="0 0 24 24" fill="none" xmlns="http://www.w3.org/2000/svg">
<path d="M2 8.25C2 6.45507 3.45507 5 5.25 5H18.75C20.5449 5 22 6.45507 22 8.25V9.5H2V8.25ZM15.75 11H2V15.75C2 17.5449 3.45507 19 5.25 19H11V16.25C11 15.0405 11.8589 14.0316 13 13.8V13.75C13 12.2312 14.2312 11 15.75 11ZM13.5 14.75H14V13.75C14 12.7835 14.7835 12 15.75 12H19.25C20.2165 12 21 12.7835 21 13.75V14.75H21.5C22.3284 14.75 23 15.4216 23 16.25V18H20V17.5C20 17.2239 19.7761 17 19.5 17C19.2239 17 19 17.2239 19 17.5V18H16V17.5C16 17.2239 15.7761 17 15.5 17C15.2239 17 15 17.2239 15 17.5V18H12V16.25C12 15.4216 12.6716 14.75 13.5 14.75ZM15.75 13.5C15.6119 13.5 15.5 13.6119 15.5 13.75V14.75H19.5V13.75C19.5 13.6119 19.3881 13.5 19.25 13.5H15.75ZM19 19.5V19H16V19.5C16 19.7761 15.7761 20 15.5 20C15.2239 20 15 19.7761 15 19.5V19H12V21.5C12 22.3284 12.6716 23 13.5 23H21.5C22.3284 23 23 22.3284 23 21.5V19H20V19.5C20 19.7761 19.7761 20 19.5 20C19.2239 20 19 19.7761 19 19.5Z" fill="#212121"/>
</svg>
