<?xml version="1.0" encoding="UTF-8"?>
<svg width="20px" height="20px" viewBox="0 0 20 20" version="1.1" xmlns="http://www.w3.org/2000/svg" xmlns:xlink="http://www.w3.org/1999/xlink">
    <!-- Generator: Sketch 59.1 (86144) - https://sketch.com -->
    <title>ic_add_20_regular</title>
    <desc>Created with Sketch.</desc>
    <g id="ðŸ”-Product-Icons" stroke="none" stroke-width="1" fill="none" fill-rule="evenodd">
        <g id="ic_add_20_regular" fill="#212121" fill-rule="nonzero">
            <path d="M9.91012437,3.00805567 L10,3 C10.2454599,3 10.4496084,3.17687516 10.4919443,3.41012437 L10.5,3.5 L10.5,9.5 L16.5,9.5 C16.7454599,9.5 16.9496084,9.67687516 16.9919443,9.91012437 L17,10 C17,10.2454599 16.8231248,10.4496084 16.5898756,10.4919443 L16.5,10.5 L10.5,10.5 L10.5,16.5 C10.5,16.7454599 10.3231248,16.9496084 10.0898756,16.9919443 L10,17 C9.75454011,17 9.55039163,16.8231248 9.50805567,16.5898756 L9.5,16.5 L9.5,10.5 L3.5,10.5 C3.25454011,10.5 3.05039163,10.3231248 3.00805567,10.0898756 L3,10 C3,9.75454011 3.17687516,9.55039163 3.41012437,9.50805567 L3.5,9.5 L9.5,9.5 L9.5,3.5 C9.5,3.25454011 9.67687516,3.05039163 9.91012437,3.00805567 L10,3 L9.91012437,3.00805567 Z" id="ðŸŽ¨-Color"></path>
        </g>
    </g>
</svg>