<svg width="48" height="48" viewBox="0 0 48 48" fill="none" xmlns="http://www.w3.org/2000/svg">
<path d="M8.3976 4.70964C7.79384 5.13294 7.76049 5.99297 8.28189 6.51437C8.7398 6.97228 9.46662 7.00258 10.003 6.6397C11.3734 5.71251 12.9377 5.05009 14.6223 4.72586C15.2586 4.60338 15.7519 4.06786 15.7519 3.41981C15.7519 2.68289 15.1208 2.09839 14.3949 2.22544C12.1934 2.61076 10.157 3.47611 8.3976 4.70964ZM9.47463 26.983C8.93845 26.5782 8.17715 26.5889 7.70212 27.064C7.1997 27.5664 7.21166 28.3899 7.77156 28.8273C9.56893 30.2316 11.6946 31.235 14.0143 31.7033C14.0048 31.4702 14 31.2358 14 31.0004C14 30.3792 14.0333 29.7659 14.0982 29.162C12.3957 28.7575 10.828 28.0047 9.47463 26.983ZM31.7016 14.0146C31.4689 14.0051 31.235 14.0003 31 14.0003C30.3784 14.0003 29.7646 14.0337 29.1602 14.0987C28.7556 12.3966 28.0029 10.8292 26.9815 9.47614C26.5767 8.93996 26.5874 8.17867 27.0624 7.70363C27.5649 7.20122 28.3884 7.21317 28.8258 7.77307C30.2298 9.57013 31.2332 11.6954 31.7016 14.0146ZM25.1104 6.12014C25.6512 5.57931 25.5945 4.68213 24.9462 4.27633C23.3448 3.274 21.5407 2.56558 19.6094 2.22663C18.8833 2.09921 18.2519 2.68381 18.2519 3.42097C18.2519 4.0688 18.7448 4.60423 19.3809 4.72697C20.8415 5.0088 22.2116 5.54488 23.4431 6.28733C23.977 6.60918 24.6696 6.56094 25.1104 6.12014ZM6.28582 23.4446C6.60766 23.9785 6.55942 24.6711 6.11863 25.1119C5.5778 25.6527 4.68062 25.596 4.27482 24.9477C3.27191 23.3454 2.56325 21.5402 2.22453 19.6076C2.09729 18.8816 2.68185 18.2503 3.41889 18.2503C4.06683 18.2503 4.60231 18.7435 4.72492 19.3797C5.00661 20.8413 5.5429 22.2123 6.28582 23.4446ZM6.63911 10.0031C7.00209 9.46676 6.97184 8.73985 6.51389 8.2819C5.99254 7.76055 5.1326 7.79384 4.70926 8.39749C3.47575 10.1564 2.61024 12.1921 2.22451 14.3931C2.09728 15.119 2.68182 15.7503 3.41886 15.7503C4.0668 15.7503 4.60228 15.2573 4.72488 14.621C5.04941 12.9369 5.71195 11.3732 6.63911 10.0031ZM31 18.5C24.0964 18.5 18.5 24.0964 18.5 31C18.5 37.9036 24.0964 43.5 31 43.5C37.9036 43.5 43.5 37.9036 43.5 31C43.5 24.0964 37.9036 18.5 31 18.5ZM16 31C16 22.7157 22.7157 16 31 16C39.2843 16 46 22.7157 46 31C46 39.2843 39.2843 46 31 46C22.7157 46 16 39.2843 16 31ZM38.3839 28.1339C38.872 27.6457 38.872 26.8543 38.3839 26.3661C37.8957 25.878 37.1043 25.878 36.6161 26.3661L29 33.9822L25.3839 30.3661C24.8957 29.878 24.1043 29.878 23.6161 30.3661C23.128 30.8543 23.128 31.6457 23.6161 32.1339L28.1161 36.6339C28.6043 37.122 29.3957 37.122 29.8839 36.6339L38.3839 28.1339Z" fill="#212121"/>
</svg>
