<svg width="20" height="20" viewBox="0 0 20 20" fill="none" xmlns="http://www.w3.org/2000/svg">
<path d="M8.5129 9.12963C8.90633 8.7924 9.41895 8.5 10 8.5C10.581 8.5 11.0937 8.7924 11.4871 9.12963C11.6799 9.29486 11.8323 9.46109 11.9362 9.58572C11.9879 9.6477 12.0267 9.69848 12.0518 9.73247L12.0842 9.77761C12.1769 9.91656 12.3329 10 12.5 10C12.6672 10 12.8233 9.91645 12.916 9.77735L12.9482 9.73247C12.9733 9.69848 13.0121 9.6477 13.0638 9.58572C13.1677 9.46109 13.3201 9.29486 13.5129 9.12963C13.9063 8.7924 14.419 8.5 15 8.5C15.581 8.5 16.0937 8.7924 16.4871 9.12963C16.6799 9.29486 16.8323 9.46109 16.9362 9.58572C16.9879 9.6477 17.0267 9.69848 17.0518 9.73247L17.0843 9.77777C17.2065 9.9608 17.4342 10.0423 17.6449 9.97855C17.8558 9.9147 18 9.72033 18 9.5C18 5.72386 14.7761 2 10 2C5.22386 2 2 5.72386 2 9.5C2 9.72033 2.14423 9.9147 2.35511 9.97855C2.56582 10.0423 2.79345 9.9608 2.91574 9.77777L2.94819 9.73247C2.97327 9.69848 3.01215 9.6477 3.0638 9.58572C3.16765 9.46109 3.32012 9.29486 3.5129 9.12963C3.90633 8.7924 4.41895 8.5 5 8.5C5.58105 8.5 6.09367 8.7924 6.4871 9.12963C6.67988 9.29486 6.83235 9.46109 6.9362 9.58572C6.98785 9.6477 7.02673 9.69848 7.05182 9.73247L7.08398 9.77735C7.17671 9.91645 7.33282 10 7.5 10C7.66707 10 7.82309 9.91656 7.91585 9.77761L7.94819 9.73247C7.97328 9.69848 8.01215 9.6477 8.0638 9.58572C8.16765 9.46109 8.32012 9.29486 8.5129 9.12963ZM3.164 8.13353C3.81729 5.41209 6.3757 3 10 3C13.6243 3 16.1827 5.41209 16.836 8.13353C16.3694 7.80014 15.7442 7.5 15 7.5C14.081 7.5 13.3437 7.9576 12.8621 8.37037C12.7239 8.48881 12.6028 8.60693 12.5 8.71553C12.3972 8.60693 12.2761 8.48881 12.1379 8.37037C11.6563 7.9576 10.919 7.5 10 7.5C9.08105 7.5 8.34368 7.9576 7.8621 8.37037C7.72392 8.48881 7.60279 8.60693 7.5 8.71553C7.39722 8.60693 7.27608 8.48881 7.1379 8.37037C6.65633 7.9576 5.91895 7.5 5 7.5C4.25576 7.5 3.63062 7.80014 3.164 8.13353ZM10 9.5C9.8485 9.5 9.67963 9.54939 9.5 9.64992V15.75C9.5 16.4404 8.94036 17 8.25 17C7.55964 17 7 16.4404 7 15.75V15.5C7 15.2239 6.77614 15 6.5 15C6.22386 15 6 15.2239 6 15.5V15.75C6 16.9926 7.00736 18 8.25 18C9.49264 18 10.5 16.9926 10.5 15.75V9.64992C10.3204 9.54939 10.1515 9.5 10 9.5Z" fill="#212121"/>
</svg>
