<svg width="28" height="28" viewBox="0 0 28 28" fill="none" xmlns="http://www.w3.org/2000/svg">
<path d="M5.75 2C3.67893 2 2 3.67893 2 5.75V17.75C2 19.8211 3.67893 21.5 5.75 21.5H11.5C12.0523 21.5 12.5 21.0523 12.5 20.5V12.5H20.5C21.0523 12.5 21.5 12.0523 21.5 11.5V5.75C21.5 3.67893 19.8211 2 17.75 2H5.75ZM11 12.5V20H5.75C4.50736 20 3.5 18.9926 3.5 17.75V12.5H11ZM11 11H3.5V5.75C3.5 4.50736 4.50736 3.5 5.75 3.5H11V11ZM12.5 11V3.5H17.75C18.9926 3.5 20 4.50736 20 5.75V11H12.5ZM14 16.75C14 15.2312 15.2312 14 16.75 14H23.25C24.7688 14 26 15.2312 26 16.75V23.25C26 24.7688 24.7688 26 23.25 26H16.75C15.2312 26 14 24.7688 14 23.25V16.75Z" fill="#212121"/>
</svg>
