<svg width="24" height="24" viewBox="0 0 24 24" fill="none" xmlns="http://www.w3.org/2000/svg">
<path d="M17.5 12.0001C20.5376 12.0001 23 14.4625 23 17.5001C23 20.5376 20.5376 23.0001 17.5 23.0001C14.4625 23.0001 12 20.5376 12 17.5001C12 14.4625 14.4625 12.0001 17.5 12.0001ZM12 1.99902C17.5237 1.99902 22.0016 6.47687 22.0016 12.0006C22.0016 12.2638 21.9914 12.5247 21.9714 12.7828C21.5336 12.3672 21.0377 12.0122 20.4973 11.7308C20.3552 7.16063 16.6052 3.49902 12 3.49902C7.30475 3.49902 3.49847 7.3053 3.49847 12.0006C3.49847 16.6061 7.16062 20.3563 11.7318 20.498C12.0125 21.0382 12.3674 21.5338 12.7825 21.9717C12.5248 21.9919 12.2636 22.0021 12 22.0021C6.47632 22.0021 1.99847 17.5243 1.99847 12.0006C1.99847 6.47687 6.47632 1.99902 12 1.99902ZM17.5 13.9993L17.4101 14.0073C17.2061 14.0444 17.0451 14.2053 17.0081 14.4094L17 14.4993L16.9997 16.9993L14.4977 17.0001L14.4078 17.0081C14.2037 17.0452 14.0428 17.2061 14.0057 17.4102L13.9977 17.5001L14.0057 17.5899C14.0428 17.794 14.2037 17.955 14.4078 17.992L14.4977 18.0001L17.0007 17.9993L17.0011 20.5035L17.0092 20.5934C17.0462 20.7975 17.2072 20.9584 17.4113 20.9955L17.5011 21.0035L17.591 20.9955C17.7951 20.9584 17.956 20.7975 17.9931 20.5934L18.0011 20.5035L18.0007 17.9993L20.5046 18.0001L20.5945 17.992C20.7986 17.955 20.9595 17.794 20.9965 17.5899L21.0046 17.5001L20.9965 17.4102C20.9595 17.2061 20.7986 17.0452 20.5945 17.0081L20.5046 17.0001L17.9997 16.9993L18 14.4993L17.992 14.4094C17.9549 14.2053 17.794 14.0444 17.5899 14.0073L17.5 13.9993ZM8.46176 14.7839C9.12312 15.6233 10.0525 16.1975 11.0918 16.4104C11.0312 16.7639 11 17.1283 11 17.5001C11 17.6409 11.0045 17.7808 11.0133 17.9194C9.53815 17.6767 8.21131 16.8897 7.28354 15.7122C7.02719 15.3869 7.08313 14.9153 7.40849 14.6589C7.73385 14.4026 8.20542 14.4585 8.46176 14.7839ZM9.00047 8.75121C9.69044 8.75121 10.2498 9.31054 10.2498 10.0005C10.2498 10.6905 9.69044 11.2498 9.00047 11.2498C8.31051 11.2498 7.75118 10.6905 7.75118 10.0005C7.75118 9.31054 8.31051 8.75121 9.00047 8.75121ZM15.0005 8.75121C15.6904 8.75121 16.2498 9.31054 16.2498 10.0005C16.2498 10.6905 15.6904 11.2498 15.0005 11.2498C14.3105 11.2498 13.7512 10.6905 13.7512 10.0005C13.7512 9.31054 14.3105 8.75121 15.0005 8.75121Z" fill="#212121"/>
</svg>
