<svg width="20" height="20" viewBox="0 0 20 20" fill="none" xmlns="http://www.w3.org/2000/svg">
<path d="M5.5 7C5.22386 7 5 7.22386 5 7.5C5 7.77614 5.22386 8 5.5 8H9.5C9.77614 8 10 7.77614 10 7.5C10 7.22386 9.77614 7 9.5 7H5.5ZM5.5 9.5C5.22386 9.5 5 9.72386 5 10C5 10.2761 5.22386 10.5 5.5 10.5H12.5C12.7761 10.5 13 10.2761 13 10C13 9.72386 12.7761 9.5 12.5 9.5H5.5ZM5 12.5C5 12.2239 5.22386 12 5.5 12H10.5C10.7761 12 11 12.2239 11 12.5C11 12.7761 10.7761 13 10.5 13H5.5C5.22386 13 5 12.7761 5 12.5ZM4.5 4C3.11929 4 2 5.11929 2 6.5V13.5C2 14.8807 3.11929 16 4.5 16H11.0665C10.9841 15.6744 10.978 15.3317 11.0498 15H4.5C3.67157 15 3 14.3284 3 13.5V6.5C3 5.67157 3.67157 5 4.5 5H15.5C16.3284 5 17 5.67157 17 6.5V7.00227C17.3341 6.98831 17.6753 7.04614 17.9995 7.18459L18 6.5C18 5.11929 16.8807 4 15.5 4H4.5ZM15.5835 9.58148L15.8673 8.83123C16.1246 8.15102 16.9292 7.81477 17.607 8.10421L17.9953 8.27001C18.468 8.47188 18.8595 8.83827 18.942 9.33088C19.3986 12.0554 17.0336 15.9314 14.3117 16.9196C13.8196 17.0982 13.2885 16.9606 12.8674 16.6742L12.5215 16.4389C11.9177 16.0282 11.8231 15.2007 12.317 14.6498L12.8618 14.0421C13.1187 13.7555 13.5197 13.6303 13.8955 13.7193L15.1206 14.0095C16.0924 13.4023 16.6133 12.5487 16.683 11.4487L15.805 10.59C15.5355 10.3265 15.4496 9.93527 15.5835 9.58148Z" fill="#212121"/>
</svg>
