<svg width="20" height="20" viewBox="0 0 20 20" fill="none" xmlns="http://www.w3.org/2000/svg">
<path d="M15 6C15 6.55228 14.5523 7 14 7C13.4477 7 13 6.55228 13 6C13 5.44772 13.4477 5 14 5C14.5523 5 15 5.44772 15 6ZM9.7037 2.58399C10.0818 2.20681 10.5951 1.99654 11.1292 2.00004L16.0196 2.0321C17.1179 2.0393 18.0049 2.93081 18.0065 4.02911L18.0138 8.97917C18.0146 9.51063 17.8038 10.0205 17.428 10.3963L17.2761 10.5482C16.9491 10.381 16.6053 10.2506 16.251 10.1591L16.7209 9.68923C16.9088 9.50133 17.0142 9.24637 17.0138 8.98065L17.0065 4.03058C17.0057 3.48143 16.5622 3.03568 16.013 3.03208L11.1227 3.00002C10.8556 2.99827 10.599 3.1034 10.4099 3.29199L3.72836 9.95653C3.33699 10.3469 3.33659 10.9808 3.72746 11.3716L8.67586 16.32C9.06638 16.7106 9.69955 16.7106 10.0901 16.32L10.1591 16.251C10.2481 16.5954 10.3738 16.9299 10.5343 17.2487C9.75376 17.7995 8.66722 17.7256 7.96875 17.0271L3.02036 12.0788C2.2386 11.297 2.23941 10.0293 3.02216 9.24852L9.7037 2.58399ZM12.8536 9.85355C13.0488 9.65829 13.0488 9.34171 12.8536 9.14645C12.6583 8.95118 12.3417 8.95118 12.1464 9.14645L10.1464 11.1464C9.95118 11.3417 9.95118 11.6583 10.1464 11.8536L12.1464 13.8536C12.3417 14.0488 12.6583 14.0488 12.8536 13.8536C13.0488 13.6583 13.0488 13.3417 12.8536 13.1464L11.7071 12H14.9999C15.5932 12 16.1732 12.1759 16.6665 12.5056C17.1598 12.8352 17.5443 13.3037 17.7714 13.8519C17.9984 14.4 18.0578 15.0032 17.9421 15.5851C17.8263 16.167 17.5406 16.7015 17.1211 17.1211C16.7015 17.5406 16.167 17.8263 15.5851 17.9421C15.0032 18.0578 14.4 17.9984 13.8519 17.7714C13.3037 17.5443 12.8352 17.1598 12.5056 16.6665C12.1759 16.1732 12 15.5932 12 14.9999C12 14.7237 11.7761 14.4999 11.5 14.4999C11.2239 14.4999 11 14.7237 11 14.9999C11 15.791 11.2346 16.5643 11.6741 17.2221C12.1136 17.8798 12.7383 18.3925 13.4692 18.6952C14.2001 18.998 15.0043 19.0772 15.7802 18.9229C16.5561 18.7685 17.2688 18.3876 17.8282 17.8282C18.3876 17.2688 18.7685 16.5561 18.9229 15.7802C19.0772 15.0043 18.998 14.2001 18.6952 13.4692C18.3925 12.7383 17.8798 12.1136 17.2221 11.6741C16.5643 11.2346 15.791 11 14.9999 11H11.7071L12.8536 9.85355Z" fill="#212121"/>
</svg>
