<svg width="24" height="24" viewBox="0 0 24 24" fill="none" xmlns="http://www.w3.org/2000/svg">
<path d="M10.25 3.5H13.75C14.1642 3.5 14.5 3.83579 14.5 4.25V6H9.5V4.25C9.5 3.83579 9.83579 3.5 10.25 3.5ZM8 4.25V6H6.25C4.45507 6 3 7.45507 3 9.25V10.5997C3.46553 10.3617 3.96945 10.1881 4.5 10.0907V9.25C4.5 8.2835 5.2835 7.5 6.25 7.5H17.75C18.7165 7.5 19.5 8.2835 19.5 9.25V10.75C19.5 11.7165 18.7165 12.5 17.75 12.5H14V12C14 11.4477 13.5523 11 13 11H11C10.4477 11 10 11.4477 10 12V12.3369C10.5398 13.1035 10.8887 14.0141 10.9776 14.9998L11 15H13C13.5523 15 14 14.5523 14 14H17.75C18.3943 14 18.9949 13.8125 19.5 13.4891V16.75C19.5 17.7165 18.7165 18.5 17.75 18.5H10.9749L12.4749 20H17.75C19.5449 20 21 18.5449 21 16.75V9.25C21 7.45507 19.5449 6 17.75 6H16V4.25C16 3.00736 14.9926 2 13.75 2H10.25C9.00736 2 8 3.00736 8 4.25ZM5.5 20C6.47187 20 7.37179 19.6919 8.1074 19.1681L10.7197 21.7803C11.0126 22.0732 11.4874 22.0732 11.7803 21.7803C12.0732 21.4874 12.0732 21.0126 11.7803 20.7197L9.16806 18.1074C9.69191 17.3718 10 16.4719 10 15.5C10 13.0147 7.98528 11 5.5 11C3.01472 11 1 13.0147 1 15.5C1 17.9853 3.01472 20 5.5 20ZM5.5 18.5C3.84315 18.5 2.5 17.1569 2.5 15.5C2.5 13.8431 3.84315 12.5 5.5 12.5C7.15685 12.5 8.5 13.8431 8.5 15.5C8.5 17.1569 7.15685 18.5 5.5 18.5Z" fill="#212121"/>
</svg>
