<svg width="28" height="28" viewBox="0 0 28 28" fill="none" xmlns="http://www.w3.org/2000/svg">
<path d="M12.134 3.73399C13.1876 2.76067 14.8124 2.76067 15.866 3.73399L23.7946 11.0582C24.563 11.768 25 12.7666 25 13.8127V22.2495C25 23.7683 23.7688 24.9995 22.25 24.9995H15.7939C16.1466 24.5766 16.5486 24.0624 16.9316 23.4995H22.25C22.9404 23.4995 23.5 22.9399 23.5 22.2495V13.8127C23.5 13.185 23.2378 12.5859 22.7767 12.16L20.1065 9.6933C18.1008 9.41196 16.4801 10.0962 14.7479 10.8276C14.4535 10.9519 14.1558 11.0776 13.8525 11.2001C12.8005 11.6251 11.6709 12.006 10.4478 12.0054C9.2591 12.0049 8.04345 11.6456 6.75348 10.7464L5.22325 12.16C4.76219 12.5859 4.5 13.185 4.5 13.8127V22.2495C4.5 22.9399 5.05964 23.4995 5.75 23.4995H11.0684C11.4514 24.0624 11.8534 24.5766 12.2061 24.9995H5.75C4.23122 24.9995 3 23.7683 3 22.2495V13.8127C3 12.7666 3.43698 11.768 4.20542 11.0582L12.134 3.73399ZM14.8482 4.83581C14.3693 4.39339 13.6307 4.39339 13.1518 4.83581L7.88705 9.69924C8.83676 10.2997 9.67219 10.5051 10.4485 10.5054C11.3694 10.5059 12.2757 10.2193 13.2907 9.8093C13.5561 9.70206 13.8292 9.58555 14.1103 9.46557C15.3764 8.92528 16.807 8.31476 18.4525 8.16539L14.8482 4.83581ZM17.5 19.4703C17.5 21.2499 15.696 23.5406 14.6783 24.6912C14.3141 25.1029 13.6859 25.1029 13.3217 24.6912C12.304 23.5406 10.5 21.2499 10.5 19.4703C10.5 17.5537 12.067 16 14 16C15.933 16 17.5 17.5537 17.5 19.4703ZM15.75 19.4703C15.75 18.512 14.9665 17.7351 14 17.7351C13.0335 17.7351 12.25 18.512 12.25 19.4703C12.25 20.4286 13.0335 21.2054 14 21.2054C14.9665 21.2054 15.75 20.4286 15.75 19.4703Z" fill="#212121"/>
</svg>
