<svg width="24" height="24" viewBox="0 0 24 24" fill="none" xmlns="http://www.w3.org/2000/svg">
<path d="M10.75 20.0032C11.1642 20.0032 11.5 20.339 11.5 20.7532C11.5 21.1674 11.1642 21.5032 10.75 21.5032C10.3357 21.5032 9.99996 21.1674 9.99996 20.7532C9.99996 20.339 10.3357 20.0032 10.75 20.0032ZM15.25 20.0032C15.6642 20.0032 16 20.339 16 20.7532C16 21.1674 15.6642 21.5032 15.25 21.5032C14.8357 21.5032 14.5 21.1674 14.5 20.7532C14.5 20.339 14.8357 20.0032 15.25 20.0032ZM8.49996 19.0032C8.91417 19.0032 9.24996 19.339 9.24996 19.7532C9.24996 20.1674 8.91417 20.5032 8.49996 20.5032C8.08574 20.5032 7.74996 20.1674 7.74996 19.7532C7.74996 19.339 8.08574 19.0032 8.49996 19.0032ZM13 19.0032C13.4142 19.0032 13.75 19.339 13.75 19.7532C13.75 20.1674 13.4142 20.5032 13 20.5032C12.5857 20.5032 12.25 20.1674 12.25 19.7532C12.25 19.339 12.5857 19.0032 13 19.0032ZM17.5 19.0032C17.9142 19.0032 18.25 19.339 18.25 19.7532C18.25 20.1674 17.9142 20.5032 17.5 20.5032C17.0857 20.5032 16.75 20.1674 16.75 19.7532C16.75 19.339 17.0857 19.0032 17.5 19.0032ZM13.0011 6.01745C16.1696 6.01745 17.9671 8.11474 18.2285 10.6476L18.3084 10.6476C20.3475 10.6476 22.0005 12.2963 22.0005 14.3301C22.0005 16.3639 20.3475 18.0126 18.3084 18.0126H7.69371C5.65463 18.0126 4.00163 16.3639 4.00163 14.3301C4.00163 12.2963 5.65463 10.6476 7.69374 10.6476L7.77368 10.6476C8.03661 8.09809 9.83255 6.01745 13.0011 6.01745ZM13.0011 7.51504C10.9298 7.51504 9.12437 9.14828 9.12437 11.4043C9.12437 11.7617 8.80542 12.0422 8.44021 12.0422L7.74965 12.0422C6.48866 12.0422 5.46642 13.0435 5.46642 14.2786C5.46642 15.5138 6.48866 16.515 7.74965 16.515H18.2525C19.5135 16.515 20.5357 15.5138 20.5357 14.2786C20.5357 13.0435 19.5135 12.0422 18.2525 12.0422L17.562 12.0422C17.1967 12.0422 16.8778 11.7617 16.8778 11.4043C16.8778 9.11934 15.0724 7.51504 13.0011 7.51504ZM6.58835 2.00966C7.38338 2.05231 8.15535 2.28143 8.85144 2.68332C9.906 3.29217 10.6595 4.22222 11.0597 5.27855C10.5592 5.41942 10.0966 5.61626 9.67381 5.86254C9.39821 5.09746 8.86036 4.42222 8.10071 3.98363C7.90265 3.86928 7.69616 3.77478 7.48345 3.70077C7.64397 5.05239 7.43592 6.21398 6.86097 7.31151L6.74302 7.52454C6.1721 8.50095 5.31109 9.23229 4.02477 9.82897C4.1803 9.95804 4.34744 10.0744 4.52499 10.1769C4.7098 10.2836 4.90017 10.3719 5.094 10.4425C4.64372 10.7441 4.2492 11.1238 3.92869 11.5616L3.77424 11.4772C3.11672 11.0976 2.55855 10.5821 2.13211 9.96289C1.85262 9.55697 2.03344 8.99636 2.49747 8.8303C4.13989 8.24246 5.02481 7.58092 5.53092 6.61474C6.08366 5.55966 6.18577 4.44067 5.8188 2.9373C5.69949 2.4483 6.08574 1.98269 6.58835 2.00966Z" fill="#212121"/>
</svg>
