<svg width="28" height="28" viewBox="0 0 28 28" fill="none" xmlns="http://www.w3.org/2000/svg">
<path d="M21.7803 5.71967C21.4874 5.42678 21.0126 5.42678 20.7197 5.71967C20.4268 6.01256 20.4268 6.48744 20.7197 6.78033L22.4393 8.5H22.25C17.5696 8.5 14.938 11.0644 12.5216 13.419L12.4766 13.4628C10.0303 15.8464 7.79058 18 3.75 18C3.33579 18 3 18.3358 3 18.75C3 19.1642 3.33579 19.5 3.75 19.5C8.43035 19.5 11.062 16.9356 13.4784 14.581L13.5234 14.5372C15.9697 12.1536 18.2094 10 22.25 10H22.4393L20.7197 11.7197C20.4268 12.0126 20.4268 12.4874 20.7197 12.7803C21.0126 13.0732 21.4874 13.0732 21.7803 12.7803L24.7803 9.78033C25.0732 9.48744 25.0732 9.01256 24.7803 8.71967L21.7803 5.71967ZM3.75 8.5C7.66877 8.5 10.1513 10.2978 12.2738 12.2649C12.1385 12.3959 12.0049 12.5261 11.8729 12.6548L11.7787 12.7466C11.5814 12.9388 11.3873 13.1276 11.1951 13.3122C9.18747 11.4632 7.08047 10 3.75 10C3.33579 10 3 9.66421 3 9.25C3 8.83579 3.33579 8.5 3.75 8.5ZM22.25 19.5C18.3312 19.5 15.8487 17.7022 13.7262 15.7351C13.8615 15.6041 13.9951 15.4739 14.1271 15.3452L14.2213 15.2534C14.4186 15.0612 14.6127 14.8724 14.8049 14.6878C16.8125 16.5368 18.9195 18 22.25 18H22.4393L20.7197 16.2803C20.4268 15.9874 20.4268 15.5126 20.7197 15.2197C21.0126 14.9268 21.4874 14.9268 21.7803 15.2197L24.7803 18.2197C25.0732 18.5126 25.0732 18.9874 24.7803 19.2803L21.7803 22.2803C21.4874 22.5732 21.0126 22.5732 20.7197 22.2803C20.4268 21.9874 20.4268 21.5126 20.7197 21.2197L22.4393 19.5H22.25Z" fill="#212121"/>
</svg>
