<svg width="20" height="20" viewBox="0 0 20 20" fill="none" xmlns="http://www.w3.org/2000/svg">
<path d="M15.8536 4.1462C15.6583 3.95094 15.3417 3.95094 15.1464 4.1462C14.9512 4.34146 14.9512 4.65805 15.1464 4.85331L16.2952 6.00202C12.9727 6.07442 11.0127 7.90392 9.19076 9.60448L9.15884 9.63427C7.27692 11.3907 5.53295 12.9998 2.5 12.9998C2.22386 12.9998 2 13.2237 2 13.4998C2 13.7759 2.22386 13.9998 2.5 13.9998C5.94732 13.9998 7.95019 12.1303 9.80924 10.3951L9.84116 10.3653C11.6793 8.64974 13.3858 7.07477 16.2903 7.00239L15.1464 8.14628C14.9512 8.34155 14.9512 8.65813 15.1464 8.85339C15.3417 9.04865 15.6583 9.04865 15.8536 8.85339L17.8536 6.85335C18.0489 6.65809 18.0489 6.34151 17.8536 6.14624L15.8536 4.1462ZM2.5 5.99976C5.31073 5.99976 7.16122 7.24253 8.75645 8.64204L8.47652 8.90325C8.32169 9.04776 8.16962 9.18932 8.01948 9.32745C6.51689 8.02258 4.91812 6.99976 2.5 6.99976C2.22386 6.99976 2 6.7759 2 6.49976C2 6.22361 2.22386 5.99976 2.5 5.99976ZM16.2952 13.9975C13.5988 13.9388 11.7998 12.7227 10.2436 11.3576L10.5235 11.0964C10.6783 10.9519 10.8304 10.8103 10.9806 10.6721C12.4393 11.9389 13.9887 12.9398 16.2903 12.9972L15.1464 11.8533C14.9512 11.658 14.9512 11.3414 15.1464 11.1462C15.3417 10.9509 15.6583 10.9509 15.8536 11.1462L17.8536 13.1462C18.0489 13.3415 18.0489 13.658 17.8536 13.8533L15.8536 15.8534C15.6583 16.0486 15.3417 16.0486 15.1464 15.8534C14.9512 15.6581 14.9512 15.3415 15.1464 15.1462L16.2952 13.9975Z" fill="#212121"/>
</svg>
