<svg width="32" height="32" viewBox="0 0 32 32" fill="none" xmlns="http://www.w3.org/2000/svg">
<path d="M25.1339 5.61612C24.6457 5.12796 23.8543 5.12796 23.3661 5.61611C22.8779 6.10427 22.8779 6.89572 23.3661 7.38388L24.7683 8.78614C19.8275 9.15459 16.8365 12.2763 14.1921 15.0365L14.0975 15.1352C11.1856 18.1737 8.65302 20.75 4.25 20.75C3.55964 20.75 3 21.3097 3 22C3 22.6904 3.55964 23.25 4.25 23.25C9.78492 23.25 12.9928 19.9019 15.8079 16.9636L15.9025 16.8649C18.5699 14.0816 20.9189 11.686 24.679 11.3033L23.3661 12.6162C22.8779 13.1043 22.8779 13.8958 23.3661 14.384C23.8542 14.8721 24.6457 14.8721 25.1339 14.384L28.6339 10.8839C29.122 10.3958 29.122 9.60432 28.6339 9.11617L25.1339 5.61612ZM4.25 8.75C8.60558 8.75 11.5201 10.8233 13.9362 13.1387C13.6811 13.4009 13.4335 13.6596 13.1923 13.9116L13.0145 14.0972C12.7359 14.3879 12.4647 14.6697 12.1988 14.9415C9.97528 12.8137 7.68027 11.25 4.25 11.25C3.55964 11.25 3 10.6904 3 10C3 9.30964 3.55964 8.75 4.25 8.75ZM24.7683 23.2139C20.9482 22.929 18.2937 20.9982 16.0637 18.8612C16.3188 18.599 16.5664 18.3403 16.8077 18.0883L16.9855 17.9027C17.2641 17.6119 17.5353 17.3302 17.8011 17.0584C19.785 18.9569 21.8258 20.4063 24.679 20.6967L23.3661 19.3839C22.878 18.8957 22.878 18.1042 23.3661 17.6161C23.8543 17.1279 24.6457 17.1279 25.1339 17.6161L28.6339 21.1161C29.122 21.6042 29.122 22.3957 28.6339 22.8839L25.1339 26.3839C24.6457 26.872 23.8543 26.872 23.3661 26.3839C22.878 25.8957 22.878 25.1043 23.3661 24.6161L24.7683 23.2139Z" fill="#212121"/>
</svg>
