<svg width="16" height="16" viewBox="0 0 16 16" fill="none" xmlns="http://www.w3.org/2000/svg">
<path d="M12 8C13.6569 8 15 9.34315 15 11C15 12.6569 13.6569 14 12 14C10.5136 13.9999 9.2801 12.9188 9.04204 11.5H6.95805C6.71996 12.9188 5.4865 14 4.00004 14C2.34326 13.9999 1.00004 12.6568 1.00004 11C1.00004 9.3432 2.34326 8.00009 4.00004 8C5.4865 8 6.71996 9.0812 6.95805 10.5H9.04204C9.2801 9.08124 10.5137 8.00008 12 8ZM4.00004 9C2.89555 9.00009 2.00004 9.89549 2.00004 11C2.00004 12.1045 2.89555 12.9999 4.00004 13C5.10461 13 6.00004 12.1046 6.00004 11C6.00004 9.89543 5.10461 9 4.00004 9ZM12 9C10.8956 9.00009 10 9.89549 10 11C10 12.1045 10.8956 12.9999 12 13C13.1046 13 14 12.1046 14 11C14 9.89543 13.1046 9 12 9ZM8.00004 5.5C9.79151 5.5 11.4353 5.62667 12.6299 5.75293C13.2274 5.81608 13.714 5.8792 14.0518 5.92676C14.3462 5.9682 14.5293 5.99767 14.5733 6.00488C14.5762 6.00536 14.5801 6.00684 14.5801 6.00684H14.5831C14.8553 6.05279 15.039 6.31081 14.9932 6.58301C14.9472 6.8552 14.6892 7.03898 14.417 6.99316H14.4151C14.2508 6.9562 14.0786 6.94043 13.9122 6.91699C13.5842 6.87082 13.1092 6.80887 12.5245 6.74707C11.3537 6.62334 9.74682 6.5 8.00004 6.5C6.25324 6.50001 4.64635 6.62334 3.47563 6.74707C2.89087 6.80888 2.41584 6.87083 2.08793 6.91699C1.92406 6.94006 1.7966 6.95934 1.71098 6.97266C1.63855 6.98392 1.585 6.99316 1.585 6.99316H1.58305C1.31091 7.03888 1.05282 6.85516 1.00687 6.58301C0.961081 6.31087 1.14492 6.05287 1.41703 6.00684H1.41996C1.41996 6.00684 1.47994 5.99647 1.55766 5.98438C1.64774 5.97036 1.77961 5.95051 1.94828 5.92676C2.28609 5.8792 2.77267 5.81609 3.37016 5.75293C4.56476 5.62667 6.20856 5.50001 8.00004 5.5ZM10.8829 2C11.4508 2.0001 11.9706 2.32113 12.2247 2.8291L12.9483 4.27734C13.1138 4.60947 12.8722 4.99995 12.501 5C12.3118 5 12.1384 4.89288 12.0538 4.72363L11.3301 3.27637C11.2454 3.10718 11.0721 3.0001 10.8829 3H5.11918C4.93002 3.00016 4.75658 3.10719 4.67191 3.27637L3.9473 4.72363C3.8627 4.89275 3.69009 4.99984 3.50102 5C3.12968 5 2.888 4.60954 3.05375 4.27734L3.77738 2.8291C4.03144 2.32114 4.55124 2.00016 5.11918 2H10.8829ZM14.5801 6.00684L14.5733 6.00488L14.5831 6.00684" fill="#212121"/>
</svg>
