<svg width="24" height="24" viewBox="0 0 24 24" fill="none" xmlns="http://www.w3.org/2000/svg">
<path d="M6.2373 3.00083C7.2038 3.00083 7.9873 3.78433 7.9873 4.75083V19.2508C7.9873 20.2173 7.2038 21.0008 6.2373 21.0008H3.7373C2.77081 21.0008 1.9873 20.2173 1.9873 19.2508V4.75083C1.9873 3.83266 2.69441 3.07964 3.59378 3.00663L3.7373 3.00083H6.2373ZM20.2634 3.00083C21.2299 3.00083 22.0134 3.78433 22.0134 4.75083V19.2508C22.0134 20.2173 21.2299 21.0008 20.2634 21.0008H17.7634C16.7969 21.0008 16.0134 20.2173 16.0134 19.2508V4.75083C16.0134 3.78433 16.7969 3.00083 17.7634 3.00083H20.2634ZM13.2373 3C14.2038 3 14.9873 3.7835 14.9873 4.75V19.25C14.9873 20.2165 14.2038 21 13.2373 21H10.7373C9.77081 21 8.9873 20.2165 8.9873 19.25V4.75C8.9873 3.7835 9.77081 3 10.7373 3H13.2373ZM6.2373 4.50083H3.7373L3.67998 4.50743C3.56954 4.53334 3.4873 4.63248 3.4873 4.75083V19.2508C3.4873 19.3889 3.59923 19.5008 3.7373 19.5008H6.2373C6.37538 19.5008 6.4873 19.3889 6.4873 19.2508V4.75083C6.4873 4.61276 6.37538 4.50083 6.2373 4.50083ZM20.2634 4.50083H17.7634C17.6253 4.50083 17.5134 4.61276 17.5134 4.75083V19.2508C17.5134 19.3889 17.6253 19.5008 17.7634 19.5008H20.2634C20.4014 19.5008 20.5134 19.3889 20.5134 19.2508V4.75083C20.5134 4.61276 20.4014 4.50083 20.2634 4.50083ZM13.2373 4.5H10.7373C10.5992 4.5 10.4873 4.61193 10.4873 4.75V19.25C10.4873 19.3881 10.5992 19.5 10.7373 19.5H13.2373C13.3754 19.5 13.4873 19.3881 13.4873 19.25V4.75C13.4873 4.61193 13.3754 4.5 13.2373 4.5Z" fill="#212121"/>
</svg>
