<svg width="16" height="16" viewBox="0 0 16 16" fill="none" xmlns="http://www.w3.org/2000/svg">
<path d="M11.5 8C12.3284 8 13 8.67157 13 9.5V10C13 11.5107 11.908 13.055 9.98445 13.6943C10.0492 13.2249 9.89719 12.7215 9.46524 12.3555L8.49917 11.5367V10C8.49917 9.27144 8.30435 8.58836 7.96398 8H11.5ZM6.36302 6.45992C6.51034 6.53765 6.65223 6.62431 6.78795 6.71918C7.1536 6.899 7.56501 7 8 7C9.51878 7 10.75 5.76878 10.75 4.25C10.75 2.73122 9.51878 1.5 8 1.5C6.48122 1.5 5.25 2.73122 5.25 4.25C5.25 5.15553 5.68767 5.95884 6.36302 6.45992ZM1.49741 10C1.49741 8.34326 2.84067 7 4.49741 7C6.15415 7 7.49741 8.34326 7.49741 10V12L8.81723 13.1187C9.1727 13.4197 8.95981 14 8.49399 14H0.500828C0.0354958 14 -0.177395 13.4197 0.177586 13.1187L1.49741 12.0002V10ZM4.49741 16C3.84458 16 3.28891 15.5825 3.08286 15H5.91196C5.70639 15.5825 5.15073 16 4.49741 16Z" fill="#212121"/>
</svg>
