<svg width="16" height="16" viewBox="0 0 16 16" fill="none" xmlns="http://www.w3.org/2000/svg">
<path d="M8 2C5.51472 2 3.5 4.01472 3.5 6.5C3.5 7.75601 4.01523 8.89258 4.8446 9.70834C4.94136 9.80352 5.00044 9.9019 5.02569 9.9945L5.16496 10.5052C5.93879 9.87666 6.92541 9.5 8 9.5C9.07459 9.5 10.0612 9.87666 10.835 10.5052L10.9743 9.9945C10.9996 9.9019 11.0586 9.80352 11.1554 9.70834C11.9848 8.89258 12.5 7.75601 12.5 6.5C12.5 4.01472 10.4853 2 8 2ZM5.57265 12L5.46107 11.5909C6.09883 10.919 7.00049 10.5 8 10.5C8.99951 10.5 9.90117 10.919 10.5389 11.5909L10.4274 12H5.57265ZM5.84955 13C6.05977 13.5955 6.62439 14 7.2638 14H8.7362C9.37561 14 9.94023 13.5955 10.1505 13H5.84955ZM7 6.5C7 5.94772 7.44772 5.5 8 5.5C8.55228 5.5 9 5.94772 9 6.5C9 7.05228 8.55228 7.5 8 7.5C7.44772 7.5 7 7.05228 7 6.5ZM8 4.5C9.10457 4.5 10 5.39543 10 6.5C10 7.60457 9.10457 8.5 8 8.5C6.89543 8.5 6 7.60457 6 6.5C6 5.39543 6.89543 4.5 8 4.5Z" fill="#212121"/>
</svg>
