<svg width="25" height="24" viewBox="0 0 25 24" fill="none" xmlns="http://www.w3.org/2000/svg">
<path d="M16.1685 3C17.4111 3 18.4185 4.00736 18.4185 5.25L18.418 6.003L19.1685 6.00358C20.9629 6.00533 22.4171 7.45877 22.4199 9.25244L22.4231 15.2497C22.425 16.4918 21.4181 17.5002 20.1751 17.5009L18.416 17.5V18.75C18.416 19.9926 17.4087 21 16.166 21H8.66602C7.42337 21 6.41602 19.9926 6.41602 18.75L6.41692 17.5L4.66602 17.5001C3.42337 17.5001 2.41602 16.4927 2.41602 15.2501V9.25358C2.41602 7.45865 3.87109 6.00358 5.66602 6.00358L6.41502 6.003L6.41602 5.25C6.41602 4.00736 7.42337 3 8.66602 3H16.1685ZM16.166 13.5H8.66602C8.2518 13.5 7.91602 13.8358 7.91602 14.25V18.75C7.91602 19.1642 8.2518 19.5 8.66602 19.5H16.166C16.5802 19.5 16.916 19.1642 16.916 18.75V14.25C16.916 13.8358 16.5802 13.5 16.166 13.5ZM19.1678 7.50358H5.66602C4.69952 7.50358 3.91602 8.28708 3.91602 9.25358V15.2501C3.91602 15.6643 4.2518 16.0001 4.66602 16.0001L6.41602 16V14.25C6.41602 13.0074 7.42337 12 8.66602 12H16.166C17.4087 12 18.416 13.0074 18.416 14.25L18.4169 16.0001L20.1987 16.0005C20.6016 15.9874 20.9237 15.6567 20.9231 15.2512L20.9199 9.25398C20.9184 8.28801 20.1345 7.50452 19.1678 7.50358ZM16.1685 4.5H8.66602C8.2518 4.5 7.91602 4.83579 7.91602 5.25L7.91502 6.003H16.918L16.9185 5.25C16.9185 4.83579 16.5827 4.5 16.1685 4.5Z" fill="#212121"/>
</svg>
