<svg width="48" height="48" viewBox="0 0 48 48" fill="none" xmlns="http://www.w3.org/2000/svg">
<path d="M32.2061 6.02562C34.9033 3.32804 39.2767 3.32791 41.9741 6.02532C44.6713 8.7225 44.6714 13.0954 41.9744 15.7928L35.5233 22.2447C34.707 22.0842 33.8633 22 33 22C32.7344 22 32.4706 22.008 32.209 22.0237L40.2066 14.0251C41.9274 12.3041 41.9273 9.514 40.2064 7.79309C38.4853 6.07203 35.6949 6.07211 33.9739 7.79328L9.80542 31.9647C9.36075 32.4094 9.04386 32.9656 8.88796 33.5749L6.9838 41.0167L14.4268 39.1144C15.0366 38.9585 15.5933 38.6414 16.0383 38.1963L20.0236 34.2106C20.0079 34.4717 20 34.7349 20 35C20 35.8639 20.0843 36.7081 20.245 37.5248L17.8062 39.9639C17.0439 40.7263 16.0904 41.2695 15.0458 41.5365L5.55956 43.9611C5.13183 44.0704 4.67816 43.946 4.36603 43.6338C4.05389 43.3216 3.9296 42.8679 4.03904 42.4402L6.46599 32.9551C6.73303 31.9115 7.27584 30.9589 8.03755 30.1971L32.2061 6.02562ZM33 46C39.0751 46 44 41.0751 44 35C44 28.9249 39.0751 24 33 24C26.9249 24 22 28.9249 22 35C22 41.0751 26.9249 46 33 46ZM33 43.5C31.1037 43.5 29.3524 42.879 27.9384 41.8293L39.8293 29.9384C40.879 31.3524 41.5 33.1037 41.5 35C41.5 39.6944 37.6944 43.5 33 43.5ZM38.0616 28.1707L26.1707 40.0616C25.121 38.6476 24.5 36.8963 24.5 35C24.5 30.3056 28.3056 26.5 33 26.5C34.8963 26.5 36.6476 27.121 38.0616 28.1707Z" fill="#212121"/>
</svg>
