<svg width="16" height="16" viewBox="0 0 16 16" fill="none" xmlns="http://www.w3.org/2000/svg">
<path d="M9.48854 3.52105C9.47121 3.53115 9.45931 3.54011 9.44548 3.55163C9.41246 3.57914 9.37381 3.61689 9.28033 3.71037C8.98744 4.00326 8.51256 4.00326 8.21967 3.71037C7.92678 3.41747 7.92678 2.9426 8.21967 2.64971L8.24021 2.62914C8.40133 2.46777 8.56308 2.30577 8.84527 2.16467C8.86387 2.15537 8.88284 2.14685 8.90214 2.13913C9.59504 1.86197 10.2922 2.00702 10.8207 2.39599C11.0592 2.5597 11.2074 2.75611 11.3101 2.91735C11.3533 2.98531 11.3937 3.05575 11.4246 3.10968L11.4367 3.1308C11.462 3.17491 11.483 3.21084 11.5031 3.24308L12.5307 2.21552C12.8236 1.92263 13.2985 1.92263 13.5914 2.21552C13.8843 2.50841 13.8843 2.98329 13.5914 3.27618L12.2365 4.63107C12.2687 4.685 12.299 4.73384 12.3286 4.7782C12.3942 4.87663 12.4679 4.99942 12.5282 5.09968C12.5529 5.14081 12.5753 5.17818 12.594 5.20849C12.6322 5.27061 12.664 5.3198 12.6918 5.35884C12.7053 5.37786 12.7162 5.39205 12.7245 5.4023C12.7319 5.41133 12.7358 5.41544 12.7362 5.41593C12.7777 5.45736 12.8107 5.47636 12.832 5.48573C12.8538 5.49532 12.8732 5.49917 12.8909 5.50006C12.9098 5.501 12.9282 5.49857 12.9441 5.49415C12.9549 5.49111 12.9611 5.48814 12.9623 5.48753C12.9874 5.47098 13.0134 5.45595 13.0403 5.44252C13.0722 5.42656 13.0863 5.41652 13.1044 5.4014C13.1355 5.3755 13.1722 5.33969 13.2631 5.24879C13.556 4.9559 14.0309 4.9559 14.3238 5.24879C14.6167 5.54168 14.6167 6.01656 14.3238 6.30945L14.3035 6.32971C14.1546 6.47895 14.0029 6.6308 13.749 6.76469C13.2466 7.07311 12.3693 7.17028 11.6756 6.47656C11.5225 6.32348 11.3984 6.12779 11.3165 5.99464C11.2777 5.93164 11.2453 5.87746 11.2159 5.82841C11.1923 5.789 11.1707 5.75288 11.1493 5.7182L10.087 6.78057C9.79408 7.07347 9.3192 7.07347 9.02631 6.78057C8.73342 6.48768 8.73342 6.01281 9.02631 5.71991L10.3996 4.34667C10.3519 4.26117 10.3024 4.16993 10.2526 4.07199C10.2064 3.99999 10.1672 3.9323 10.136 3.87799L10.1231 3.85548C10.0899 3.79768 10.0679 3.75931 10.0446 3.72267C9.99901 3.65108 9.97984 3.63798 9.97058 3.6318C9.95903 3.6241 9.9477 3.61609 9.9366 3.60776C9.78752 3.49595 9.6398 3.4702 9.48854 3.52105ZM6.2838 4.9426C6.77275 4.94707 7.20193 5.18668 7.49568 5.49675C7.7904 5.80785 8.0019 6.24344 8.01063 6.73456C8.06155 7.46842 7.79846 8.07208 7.35193 8.52422C6.92397 8.95755 6.35413 9.22777 5.80407 9.40147C4.91106 9.68347 3.90123 9.76296 3.15037 9.75922C3.04846 10.1616 3.03805 10.4585 3.07248 10.6737C3.11193 10.9204 3.21382 11.0893 3.36817 11.2254C3.3826 11.2381 3.39652 11.2513 3.40993 11.2651C3.54865 11.4078 3.71935 11.463 4.13096 11.5485C5.06897 11.6568 6.0327 11.1093 6.65194 10.26C6.89598 9.92534 7.36513 9.85185 7.69982 10.0959C8.03451 10.3399 8.108 10.8091 7.86397 11.1438C7.02702 12.2916 5.56637 13.2456 3.91358 13.0331C3.89498 13.0307 3.87647 13.0276 3.8581 13.0238L3.81242 13.0145C3.43465 12.9374 2.83939 12.8161 2.35514 12.3318C1.95265 11.9689 1.68443 11.493 1.5913 10.9106C1.5 10.3397 1.58244 9.7051 1.80521 9.01331C1.81275 8.97972 1.82269 8.94626 1.83512 8.91311L1.92934 8.66203C1.99375 8.47192 2.31372 7.58394 2.95486 6.72909C3.60883 5.85712 4.69808 4.89437 6.2838 4.9426ZM3.7595 8.2419C4.27947 8.20962 4.85217 8.12906 5.35237 7.9711C5.78302 7.8351 6.09582 7.66142 6.28468 7.47019C6.44925 7.30355 6.53616 7.11168 6.5133 6.82596C6.51171 6.80607 6.51091 6.78612 6.51091 6.76616C6.51091 6.69207 6.47736 6.6029 6.40675 6.52836C6.37306 6.4928 6.33853 6.46913 6.31045 6.45572C6.28456 6.44335 6.27066 6.44258 6.26983 6.44254C6.2615 6.44254 6.25322 6.4424 6.24489 6.44212C5.35902 6.41259 4.67621 6.93394 4.15486 7.62909C4.00022 7.83526 3.86872 8.04568 3.7595 8.2419Z" fill="#212121"/>
</svg>
