<svg width="28" height="28" viewBox="0 0 28 28" fill="none" xmlns="http://www.w3.org/2000/svg">
<path d="M4 15H12C12.5128 15 12.9355 15.386 12.9933 15.8834L13 16V24C13 24.5523 12.5523 25 12 25C11.4872 25 11.0645 24.614 11.0067 24.1166L11 24V18.413L3.70711 25.7071C3.31658 26.0976 2.68342 26.0976 2.29289 25.7071C1.93241 25.3466 1.90468 24.7794 2.2097 24.3871L2.29289 24.2929L9.585 17H4C3.48716 17 3.06449 16.614 3.00673 16.1166L3 16C3 15.4872 3.38604 15.0645 3.88338 15.0067L4 15H12H4ZM25.7071 2.29289C26.0676 2.65338 26.0953 3.22061 25.7903 3.6129L25.7071 3.70711L18.413 11H24C24.5128 11 24.9355 11.386 24.9933 11.8834L25 12C25 12.5128 24.614 12.9355 24.1166 12.9933L24 13H16C15.4872 13 15.0645 12.614 15.0067 12.1166L15 12V4C15 3.44772 15.4477 3 16 3C16.5128 3 16.9355 3.38604 16.9933 3.88338L17 4V9.585L24.2929 2.29289C24.6834 1.90237 25.3166 1.90237 25.7071 2.29289Z" fill="#212121"/>
</svg>
