<svg width="24" height="24" viewBox="0 0 24 24" fill="none" xmlns="http://www.w3.org/2000/svg">
<path d="M3.28034 2.21968C2.98745 1.92678 2.51257 1.92677 2.21968 2.21966C1.92678 2.51255 1.92677 2.98743 2.21966 3.28032L20.7194 21.7805C21.0123 22.0734 21.4872 22.0734 21.7801 21.7805C22.073 21.4876 22.073 21.0127 21.7801 20.7198L3.28034 2.21968ZM19.0604 15L20.4694 13.591C21.3481 12.7123 21.3481 11.2877 20.4694 10.409L13.5908 3.53033C12.7121 2.65165 11.2875 2.65165 10.4088 3.53033L8.99973 4.93938L19.0604 15ZM12.9997 16.0607L7.93907 11L3.0301 15.909C2.15142 16.7877 2.15142 18.2123 3.0301 19.091L4.90878 20.9697C5.78746 21.8484 7.21208 21.8483 8.09076 20.9697L12.9997 16.0607ZM9.53006 15.5304L8.03006 17.0304C7.73717 17.3233 7.2623 17.3233 6.9694 17.0304C6.67651 16.7375 6.67651 16.2626 6.9694 15.9697L8.4694 14.4697C8.7623 14.1768 9.23717 14.1768 9.53006 14.4697C9.82296 14.7626 9.82296 15.2375 9.53006 15.5304Z" fill="#212121"/>
</svg>
