<svg width="28" height="28" viewBox="0 0 28 28" fill="none" xmlns="http://www.w3.org/2000/svg">
<path d="M21.1928 4.13144L22.6914 2.61378C23.0812 2.21904 23.7178 2.21703 24.1101 2.6093L25.2973 3.79654C25.6861 4.18532 25.6881 4.81504 25.3018 5.20627L23.7943 6.73292L21.1928 4.13144ZM20.1389 5.19881L15.9455 9.44556L15.7536 9.25366C14.2078 7.70794 11.602 8.13083 10.6243 10.0861L10.1137 11.1074C9.92902 11.4767 9.51997 11.6768 9.11503 11.5958L9.02631 11.578C6.91024 11.1548 4.73918 11.9843 3.44439 13.7107C1.2881 16.5857 1.57401 20.6088 4.11522 23.1501L4.84918 23.884C7.3904 26.4252 11.4135 26.7111 14.2886 24.5549C16.0149 23.2601 16.8444 21.089 16.4212 18.9729L16.4035 18.8842C16.3225 18.4793 16.5225 18.0702 16.8919 17.8855L17.9132 17.3749C19.8684 16.3973 20.2913 13.7914 18.7456 12.2457L18.5469 12.047L22.7403 7.80029L20.1389 5.19881ZM10.5858 17.4135C9.80474 16.6324 9.80474 15.3661 10.5858 14.585C11.3668 13.804 12.6332 13.804 13.4142 14.585C14.1953 15.3661 14.1953 16.6324 13.4142 17.4135C12.6332 18.1945 11.3668 18.1945 10.5858 17.4135Z" fill="#212121"/>
</svg>
