<svg width="20" height="20" viewBox="0 0 20 20" fill="none" xmlns="http://www.w3.org/2000/svg">
<path d="M3.02344 10.4102C3.3349 10.5676 3.6629 10.6966 4.00488 10.793C4.00288 10.8618 4 10.9307 4 11C4.00016 14.8659 7.13411 18 11 18C11.8017 18 12.571 17.863 13.2881 17.6143C13.4827 17.5468 13.7009 17.5898 13.8467 17.7354C14.0995 17.9881 14.0231 18.4148 13.6865 18.5352C12.8469 18.8354 11.9428 19 11 19C6.58182 19 3.00016 15.4181 3 11C3.00001 10.8016 3.00923 10.605 3.02344 10.4102ZM11 3C15.4181 3.00016 18.9999 6.58193 19 11C19 13.4998 17.6223 14.9961 16 14.9961C14.9289 14.996 13.9643 14.3436 13.4326 13.1807C12.8198 14.2605 11.7603 15 10.5 15C8.49747 15 7 13.1341 7 11C7 10.9297 7.00069 10.8597 7.00391 10.79C7.37108 10.6859 7.72214 10.5443 8.05371 10.3701C8.01823 10.5716 8 10.7822 8 11C8 12.7319 9.18882 14 10.5 14C11.8112 14 13 12.7319 13 11C13 9.26806 11.8112 8 10.5 8C10.4647 8 10.4296 8.00404 10.3945 8.00586C10.5559 7.6913 10.6882 7.35976 10.7871 7.01367C11.6677 7.09349 12.4359 7.53673 13 8.19824V7.5C13 7.22386 13.2239 7 13.5 7C13.7761 7 14 7.22386 14 7.5V11L14.0127 11.3896C14.1391 13.2623 15.177 13.996 16 13.9961C16.8779 13.9961 18 13.1615 18 11C17.9999 7.13422 14.8658 4.00016 11 4C10.9307 4 10.8618 4.00288 10.793 4.00488C10.6966 3.6629 10.5676 3.3349 10.4102 3.02344C10.605 3.00924 10.8016 3 11 3ZM5.5 1C7.98528 1 10 3.01472 10 5.5C10 7.98528 7.98528 10 5.5 10C3.01472 10 1 7.98528 1 5.5C1 3.01472 3.01472 1 5.5 1ZM5.5 3C5.22386 3 5 3.22386 5 3.5V6.29297L3.85352 5.14648C3.65825 4.95122 3.34175 4.95122 3.14648 5.14648C2.95122 5.34175 2.95122 5.65825 3.14648 5.85352L5.14844 7.85547C5.19586 7.90234 5.25052 7.93787 5.30859 7.96191C5.36668 7.986 5.43037 7.99961 5.49707 8H5.50293C5.56963 7.99961 5.63332 7.986 5.69141 7.96191C5.75035 7.93751 5.80559 7.90144 5.85352 7.85352L7.85352 5.85352C8.04878 5.65825 8.04878 5.34175 7.85352 5.14648C7.65825 4.95122 7.34175 4.95122 7.14648 5.14648L6 6.29297V3.5C6 3.22386 5.77614 3 5.5 3Z" fill="#212121"/>
</svg>
