<svg width="16" height="16" viewBox="0 0 16 16" fill="none" xmlns="http://www.w3.org/2000/svg">
<path d="M4 2C2.89543 2 2 2.89543 2 4V9C2 9.04652 2.00159 9.09268 2.00471 9.13841C2.00623 9.16053 2.0081 9.18256 2.01033 9.20449C2.04695 9.56512 2.17939 9.89743 2.38178 10.1756C2.62877 10.515 2.97994 10.7737 3.38831 10.9047C3.39395 10.9065 3.3996 10.9083 3.40526 10.9101C3.59314 10.9685 3.79289 11 4 11H5V12C5 13.1046 5.89543 14 7 14H12C13.1046 14 14 13.1046 14 12V7C14 5.89543 13.1046 5 12 5H11V4C11 3.78664 10.9666 3.58108 10.9047 3.38828C10.7737 2.97992 10.5149 2.62875 10.1755 2.38176C10.1567 2.36804 10.1376 2.35464 10.1182 2.34157C9.83486 2.15014 9.4998 2.02941 9.13837 2.00471C9.09265 2.00159 9.04651 2 9 2H4ZM5.14309 3L3 5.1431V4C3 3.44772 3.44772 3 4 3H5.14309ZM3 6.55732L6.5573 3H8.14309L3 8.14312V6.55732ZM9.45038 3.10692C9.77643 3.27167 10 3.60973 10 4V4.293L9.293 5H7.55731L9.45038 3.10692ZM5 7.55732V9.29302L4.29303 10H4C3.60974 10 3.27169 9.77644 3.10693 9.4504L5 7.55732ZM6 7C6 6.44772 6.44772 6 7 6H12C12.5523 6 13 6.44772 13 7V12C13 12.5523 12.5523 13 12 13H7C6.44772 13 6 12.5523 6 12V7Z" fill="#212121"/>
</svg>
