<svg width="12" height="12" viewBox="0 0 12 12" fill="none" xmlns="http://www.w3.org/2000/svg">
<path d="M0.998047 3.24805C0.998047 2.00541 2.00541 0.998047 3.24805 0.998047H5.75163C6.96528 0.998047 7.9545 1.95895 8 3.16147V5.83821C7.96434 6.78077 7.34888 7.57489 6.5 7.87418C6.5 6.33214 6.50164 4.79009 6.50164 3.24805C6.50164 2.83383 6.16585 2.49805 5.75163 2.49805H3.24805C2.83383 2.49805 2.49805 2.83383 2.49805 3.24805V5.75164C2.49805 6.07892 2.70768 6.35724 3 6.45965V7.98812C1.87407 7.86465 0.998047 6.91044 0.998047 5.75164V3.24805Z" fill="#212121"/>
<path d="M4 8.74957C4 9.99221 5.00736 10.9996 6.25 10.9996H8.74957C9.99221 10.9996 10.9996 9.99221 10.9996 8.74957V6.25C10.9996 5.09201 10.1248 4.13834 9 4.01378V5.54283C9.29107 5.64591 9.49957 5.92361 9.49957 6.25V8.74957C9.49957 9.16378 9.16378 9.49957 8.74957 9.49957H6.25C5.83579 9.49957 5.5 9.16378 5.5 8.74957V4.12803C4.62611 4.43691 4 5.27033 4 6.25V8.74957Z" fill="#212121"/>
</svg>
