<svg width="16" height="16" viewBox="0 0 16 16" fill="none" xmlns="http://www.w3.org/2000/svg">
<path d="M8.5 7.49998H10.2912L9.64472 6.85353C9.44946 6.65827 9.44946 6.34169 9.64472 6.14642C9.83999 5.95116 10.1566 5.95116 10.3518 6.14642L11.8518 7.64642C12.0471 7.84169 12.0471 8.15827 11.8518 8.35353L10.3518 9.85353C10.1566 10.0488 9.83998 10.0488 9.64472 9.85353C9.44946 9.65827 9.44946 9.34169 9.64472 9.14642L10.2912 8.49998L8.5 8.49998C8.22386 8.49998 8 8.27612 8 7.99998C8 7.72384 8.22386 7.49998 8.5 7.49998Z" fill="#212121"/>
<path d="M2 4.99884C2 3.89427 2.89543 2.99884 4 2.99884H12C13.1046 2.99884 14 3.89427 14 4.99884L14 11.0011C14 12.1057 13.1046 13.0011 12 13.0011L4 13.0011C2.89543 13.0011 2 12.1057 2 11.0011V4.99884ZM12 3.99884L6.99943 3.99884L6.99943 12.0011L12 12.0011C12.5523 12.0011 13 11.5534 13 11.0011L13 4.99884C13 4.44656 12.5523 3.99884 12 3.99884Z" fill="#212121"/>
</svg>
