<?xml version="1.0" encoding="UTF-8"?>
<svg width="24px" height="24px" viewBox="0 0 24 24" version="1.1" xmlns="http://www.w3.org/2000/svg" xmlns:xlink="http://www.w3.org/1999/xlink">
    <!-- Generator: Sketch 59.1 (86144) - https://sketch.com -->
    <title>ic_fluent_person_delete_24_regular</title>
    <desc>Created with Sketch.</desc>
    <g id="ðŸ”-Product-Icons" stroke="none" stroke-width="1" fill="none" fill-rule="evenodd">
        <g id="ic_fluent_person_delete_24_regular" fill="#212121" fill-rule="nonzero">
            <path d="M17.5,12 C20.5375661,12 23,14.4624339 23,17.5 C23,20.5375661 20.5375661,23 17.5,23 C14.4624339,23 12,20.5375661 12,17.5 C12,14.4624339 14.4624339,12 17.5,12 Z M12.0222607,13.9993086 C11.7255613,14.4626083 11.4860296,14.9660345 11.3136172,15.4996352 L4.25354153,15.499921 C3.83932796,15.499921 3.50354153,15.8357075 3.50354153,16.249921 L3.50354153,17.1572408 C3.50354153,17.8128951 3.78953221,18.4359296 4.28670709,18.8633654 C5.5447918,19.9450082 7.44080155,20.5010712 10,20.5010712 C10.598839,20.5010712 11.1614445,20.4706245 11.6881394,20.4101192 C11.9370538,20.9102887 12.2508544,21.3740111 12.6170965,21.7904935 C11.8149076,21.9312924 10.9419626,22.0010712 10,22.0010712 C7.11050247,22.0010712 4.87168436,21.3444691 3.30881727,20.0007885 C2.48019625,19.2883988 2.00354153,18.2500002 2.00354153,17.1572408 L2.00354153,16.249921 C2.00354153,15.0072804 3.01090084,13.999921 4.25354153,13.999921 L12.0222607,13.9993086 Z M15.0930472,14.9662824 L15.0237993,15.0241379 L14.9659438,15.0933858 C14.8478223,15.2638954 14.8478223,15.4914871 14.9659438,15.6619968 L15.0237993,15.7312446 L16.7933527,17.5006913 L15.0263884,19.2674911 L14.968533,19.3367389 C14.8504114,19.5072486 14.8504114,19.7348403 14.968533,19.9053499 L15.0263884,19.9745978 L15.0956363,20.0324533 C15.2661459,20.1505748 15.4937377,20.1505748 15.6642473,20.0324533 L15.7334952,19.9745978 L17.5003527,18.2076913 L19.2693951,19.9768405 L19.338643,20.0346959 C19.5091526,20.1528175 19.7367444,20.1528175 19.907254,20.0346959 L19.9765019,19.9768405 L20.0343574,19.9075926 C20.1524789,19.737083 20.1524789,19.5094912 20.0343574,19.3389816 L19.9765019,19.2697337 L18.2073527,17.5006913 L19.9792686,15.7312918 L20.0371241,15.6620439 C20.1552456,15.4915343 20.1552456,15.2639425 20.0371241,15.0934329 L19.9792686,15.024185 L19.9100208,14.9663296 C19.7395111,14.848208 19.5119194,14.848208 19.3414098,14.9663296 L19.2721619,15.024185 L17.5003527,16.7936913 L15.7309061,15.0241379 L15.6616582,14.9662824 C15.5155071,14.8650354 15.3274181,14.8505715 15.1692847,14.9228908 L15.0930472,14.9662824 L15.0930472,14.9662824 Z M10,2.0046246 C12.7614237,2.0046246 15,4.24320085 15,7.0046246 C15,9.76604835 12.7614237,12.0046246 10,12.0046246 C7.23857625,12.0046246 5,9.76604835 5,7.0046246 C5,4.24320085 7.23857625,2.0046246 10,2.0046246 Z M10,3.5046246 C8.06700338,3.5046246 6.5,5.07162798 6.5,7.0046246 C6.5,8.93762123 8.06700338,10.5046246 10,10.5046246 C11.9329966,10.5046246 13.5,8.93762123 13.5,7.0046246 C13.5,5.07162798 11.9329966,3.5046246 10,3.5046246 Z" id="ðŸŽ¨-Color"></path>
        </g>
    </g>
</svg>