<svg width="28" height="28" viewBox="0 0 28 28" fill="none" xmlns="http://www.w3.org/2000/svg">
<path d="M10.2803 6.28033C10.5732 5.98744 10.5732 5.51256 10.2803 5.21967C9.98744 4.92678 9.51256 4.92678 9.21967 5.21967L3.21967 11.2197C2.92678 11.5126 2.92678 11.9874 3.21967 12.2803L9.21967 18.2803C9.51256 18.5732 9.98744 18.5732 10.2803 18.2803C10.5732 17.9874 10.5732 17.5126 10.2803 17.2197L5.56066 12.5H14.75C19.5825 12.5 23.5 16.4175 23.5 21.25C23.5 21.6642 23.8358 22 24.25 22C24.6642 22 25 21.6642 25 21.25C25 15.5891 20.4109 11 14.75 11H5.56066L10.2803 6.28033Z" fill="#212121"/>
</svg>
