<svg width="32" height="32" viewBox="0 0 32 32" fill="none" xmlns="http://www.w3.org/2000/svg">
<path d="M11.7071 6.70711C12.0976 6.31658 12.0976 5.68342 11.7071 5.29289C11.3166 4.90237 10.6834 4.90237 10.2929 5.29289L3.29289 12.2929C2.90237 12.6834 2.90237 13.3166 3.29289 13.7071L10.2929 20.7071C10.6834 21.0976 11.3166 21.0976 11.7071 20.7071C12.0976 20.3166 12.0976 19.6834 11.7071 19.2929L6.41421 14H16C22.0751 14 27 18.9249 27 25C27 25.5523 27.4477 26 28 26C28.5523 26 29 25.5523 29 25C29 17.8203 23.1797 12 16 12H6.41421L11.7071 6.70711Z" fill="#212121"/>
</svg>
