<svg width="20" height="20" viewBox="0 0 20 20" fill="none" xmlns="http://www.w3.org/2000/svg">
<path d="M7.35355 3.64645C7.54882 3.84171 7.54882 4.15829 7.35355 4.35355L3.70711 8H10.5C14.6421 8 18 11.3579 18 15.5C18 15.7761 17.7761 16 17.5 16C17.2239 16 17 15.7761 17 15.5C17 11.9101 14.0899 9 10.5 9H3.70711L7.35355 12.6464C7.54882 12.8417 7.54882 13.1583 7.35355 13.3536C7.15829 13.5488 6.84171 13.5488 6.64645 13.3536L2.14645 8.85355C1.95118 8.65829 1.95118 8.34171 2.14645 8.14645L6.64645 3.64645C6.84171 3.45118 7.15829 3.45118 7.35355 3.64645Z" fill="#212121"/>
</svg>
