<svg width="32" height="32" viewBox="0 0 32 32" fill="none" xmlns="http://www.w3.org/2000/svg">
<path d="M12.1339 6.36612C12.622 6.85427 12.622 7.64573 12.1339 8.13388L7.26777 13H16.75C23.5155 13 29 18.4845 29 25.25V25.75C29 26.4404 28.4404 27 27.75 27C27.0596 27 26.5 26.4404 26.5 25.75V25.25C26.5 19.8652 22.1348 15.5 16.75 15.5H7.26777L12.1339 20.3661C12.622 20.8543 12.622 21.6457 12.1339 22.1339C11.6457 22.622 10.8543 22.622 10.3661 22.1339L3.36612 15.1339C2.87796 14.6457 2.87796 13.8543 3.36612 13.3661L10.3661 6.36612C10.8543 5.87796 11.6457 5.87796 12.1339 6.36612Z" fill="#212121"/>
</svg>
