<svg width="24" height="24" viewBox="0 0 24 24" fill="none" xmlns="http://www.w3.org/2000/svg">
<path d="M11 3C11 2.44772 10.5523 2 10 2H5.25C3.45507 2 2 3.45507 2 5.25V10C2 10.5523 2.44772 11 3 11C3.55228 11 4 10.5523 4 10V5.25C4 4.55964 4.55964 4 5.25 4H10C10.5523 4 11 3.55228 11 3ZM14 2C13.4477 2 13 2.44772 13 3C13 3.55228 13.4477 4 14 4H18.75C19.4404 4 20 4.55964 20 5.25V10C20 10.5523 20.4477 11 21 11C21.5523 11 22 10.5523 22 10V5.25C22 3.45507 20.5449 2 18.75 2H14ZM14 22C13.4477 22 13 21.5523 13 21C13 20.4477 13.4477 20 14 20H18.75C19.4404 20 20 19.4404 20 18.75V14C20 13.4477 20.4477 13 21 13C21.5523 13 22 13.4477 22 14V18.75C22 20.5449 20.5449 22 18.75 22H14ZM10 22C10.5523 22 11 21.5523 11 21C11 20.4477 10.5523 20 10 20H5.25C4.55964 20 4 19.4404 4 18.75V14C4 13.4477 3.55228 13 3 13C2.44772 13 2 13.4477 2 14V18.75C2 20.5449 3.45507 22 5.25 22H10Z" fill="#212121"/>
</svg>
