<svg width="16" height="16" viewBox="0 0 16 16" fill="none" xmlns="http://www.w3.org/2000/svg">
<path d="M4 2C2.89543 2 2 2.89543 2 4V8C2 9.10457 2.89543 10 4 10H5V9H4C3.44772 9 3 8.55228 3 8V4C3 3.44772 3.44772 3 4 3H8C8.55228 3 9 3.44772 9 4V8C9 8.55228 8.55228 9 8 9V10C9.10457 10 10 9.10457 10 8V4C10 2.89543 9.10457 2 8 2H4Z" fill="#212121"/>
<path d="M11 6V7H12C12.5523 7 13 7.44772 13 8V12C13 12.5523 12.5523 13 12 13H8C7.44772 13 7 12.5523 7 12V8C7 7.44772 7.44772 7 8 7V6C6.89543 6 6 6.89543 6 8V12C6 13.1046 6.89543 14 8 14H12C13.1046 14 14 13.1046 14 12V8C14 6.89543 13.1046 6 12 6H11Z" fill="#212121"/>
</svg>
