<svg width="24" height="24" viewBox="0 0 24 24" fill="none" xmlns="http://www.w3.org/2000/svg">
<path d="M12 2.00098C6.47715 2.00098 2 6.47813 2 12.001C2 17.5238 6.47715 22.001 12 22.001C17.5228 22.001 22 17.5238 22 12.001C22 6.47813 17.5228 2.00098 12 2.00098ZM12.2801 16.5317C12.0138 16.7979 11.5972 16.8221 11.3036 16.6043L11.2195 16.5317L7.21863 12.5309C6.95233 12.2645 6.92816 11.8478 7.14609 11.5542L7.21873 11.4701L11.2203 7.47009C11.5132 7.17725 11.9881 7.17734 12.2809 7.47029C12.5471 7.73661 12.5713 8.15328 12.3534 8.44685L12.2807 8.53095L9.55878 11.2516L16.2505 11.2513C16.6302 11.2513 16.944 11.5335 16.9936 11.8996L17.0005 12.0013C17.0005 12.381 16.7183 12.6948 16.3523 12.7445L16.2505 12.7513L9.56078 12.7516L12.2801 15.471C12.5464 15.7373 12.5706 16.1539 12.3527 16.4476L12.2801 16.5317Z" fill="#212121"/>
</svg>
