<svg width="16" height="16" viewBox="0 0 16 16" fill="none" xmlns="http://www.w3.org/2000/svg">
<path d="M2 5C2 3.89543 2.89543 3 4 3H12C13.1046 3 14 3.89543 14 5V5.20141L12.4306 6.04647C12.2919 6.01604 12.1478 6 12 6C11.1476 6 10.4198 6.53319 10.1319 7.28424L8.0001 8.43212L2 5.2013V5ZM10 8.49101L8.23715 9.44024C8.08916 9.51992 7.91104 9.51992 7.76305 9.44024L2 6.33706V11C2 12.1046 2.89543 13 4 13H7V12C7 10.8954 7.89543 10 9 10C9.36429 10 9.70583 10.0974 10 10.2676V8.49101ZM12 7C11.4477 7 11 7.44772 11 8V15C11 15.5523 11.4477 16 12 16C12.5523 16 13 15.5523 13 15V8C13 7.44772 12.5523 7 12 7ZM15 9C14.4477 9 14 9.44772 14 10V15C14 15.5523 14.4477 16 15 16C15.5523 16 16 15.5523 16 15V10C16 9.44772 15.5523 9 15 9ZM8 12C8 11.4477 8.44771 11 9 11C9.55228 11 10 11.4477 10 12V15C10 15.5523 9.55228 16 9 16C8.44771 16 8 15.5523 8 15V12Z" fill="#212121"/>
</svg>
