<svg width="20" height="20" viewBox="0 0 20 20" fill="none" xmlns="http://www.w3.org/2000/svg">
<path d="M5.28033 10.6088L10.5836 5.30546C11.6576 4.23151 13.3988 4.23151 14.4727 5.30546C15.4846 6.31734 15.5431 7.92161 14.6481 9.00196C15.2102 9.01682 15.7514 9.11602 16.2593 9.28738C17.141 7.67431 16.899 5.61046 15.5334 4.2448C13.8737 2.58507 11.1827 2.58507 9.52297 4.2448L4.21967 9.5481C3.92678 9.84099 3.92678 10.3159 4.21967 10.6088C4.51256 10.9017 4.98744 10.9017 5.28033 10.6088ZM8.10876 15.5585L9.00242 14.6648C9.02074 15.2872 9.14246 15.8837 9.351 16.4376L9.16942 16.6192C8.09548 17.6931 6.35427 17.6931 5.28033 16.6192C4.20639 15.5452 4.20639 13.804 5.28033 12.7301L10.9372 7.07322C11.2301 6.78033 11.705 6.78033 11.9978 7.07322C12.2907 7.36612 12.2907 7.84099 11.9978 8.13388L6.34099 13.7907C5.85283 14.2789 5.85283 15.0703 6.34099 15.5585C6.82915 16.0467 7.6206 16.0467 8.10876 15.5585ZM19 14.5C19 16.9853 16.9853 19 14.5 19C12.0147 19 10 16.9853 10 14.5C10 12.0147 12.0147 10 14.5 10C16.9853 10 19 12.0147 19 14.5ZM16.8532 14.854L16.8557 14.8514C16.9026 14.804 16.938 14.7495 16.9621 14.6914C16.9861 14.6333 16.9996 14.5697 17 14.503L17 14.5L17 14.497C16.9996 14.4303 16.9861 14.3667 16.9621 14.3086C16.9377 14.2496 16.9015 14.1944 16.8536 14.1464L14.8536 12.1464C14.6583 11.9512 14.3417 11.9512 14.1464 12.1464C13.9512 12.3417 13.9512 12.6583 14.1464 12.8536L15.2929 14H12.5C12.2239 14 12 14.2239 12 14.5C12 14.7761 12.2239 15 12.5 15H15.2929L14.1464 16.1464C13.9512 16.3417 13.9512 16.6583 14.1464 16.8536C14.3417 17.0488 14.6583 17.0488 14.8536 16.8536L16.8532 14.854Z" fill="#212121"/>
</svg>
