<svg width="24" height="24" viewBox="0 0 24 24" fill="none" xmlns="http://www.w3.org/2000/svg">
<path d="M15.9999 2C19.3136 2 21.9999 4.68629 21.9999 8C21.9999 9.41133 21.5093 10.7466 20.6383 11.8064C20.0055 11.4569 19.3083 11.2098 18.569 11.0875L18.7994 10.8571L18.958 10.6927C19.6231 9.96299 19.9999 9.0125 19.9999 8C19.9999 5.79086 18.2091 4 15.9999 4C14.9383 4 13.9453 4.4146 13.2048 5.13858L13.0501 5.29842L13.0316 5.31139L3.70629 14.6403C3.31585 15.0309 2.68269 15.031 2.29207 14.6406C1.90146 14.2501 1.90132 13.617 2.29176 13.2264L11.6007 3.91324L11.6473 3.87021C12.7712 2.68577 14.3316 2 15.9999 2Z" fill="#212121"/>
<path d="M11.0872 18.5679C11.2112 19.3176 11.4634 20.024 11.8205 20.6638L11.479 21.0053L11.4259 21.0548L11.3702 21.0997C10.7009 21.6759 9.84594 22 8.9429 22C6.88779 22 5.22179 20.334 5.22179 18.2789C5.22179 17.3775 5.54481 16.5248 6.11735 15.8574L6.26564 15.6945L6.28072 15.6826L13.5717 8.37879C13.9619 7.98793 14.5951 7.98737 14.986 8.37755C15.3768 8.76774 15.3774 9.4009 14.9872 9.79177L7.69618 17.0956L7.68524 17.1039C7.38894 17.4208 7.22179 17.8354 7.22179 18.2789C7.22179 19.2294 7.99236 20 8.9429 20C9.32185 20 9.67979 19.8781 9.97412 19.6571L10.0962 19.5564L10.097 19.558L11.0872 18.5679Z" fill="#212121"/>
<path d="M22.9999 17.5C22.9999 20.5376 20.5375 23 17.4999 23C14.4624 23 11.9999 20.5376 11.9999 17.5C11.9999 14.4624 14.4624 12 17.4999 12C20.5375 12 22.9999 14.4624 22.9999 17.5ZM14.4999 17C14.2238 17 13.9999 17.2239 13.9999 17.5C13.9999 17.7761 14.2238 18 14.4999 18L19.2928 18L17.6464 19.6464C17.4511 19.8417 17.4511 20.1583 17.6464 20.3536C17.8416 20.5488 18.1582 20.5488 18.3535 20.3536L20.8535 17.8536C21.0488 17.6583 21.0488 17.3417 20.8535 17.1464L18.3535 14.6464C18.1582 14.4512 17.8416 14.4512 17.6464 14.6464C17.4511 14.8417 17.4511 15.1583 17.6464 15.3536L19.2928 17L14.4999 17Z" fill="#212121"/>
</svg>
