<svg width="20" height="20" viewBox="0 0 20 20" fill="none" xmlns="http://www.w3.org/2000/svg">
<path d="M3 5.68182C3 4.20069 4.20069 3 5.68182 3H14.3182C15.7993 3 17 4.20069 17 5.68182V11.0858C16.8588 11.1357 16.7238 11.2073 16.6002 11.3L14.6001 12.8C13.9374 13.297 13.803 14.2372 14.3001 14.9C14.7033 15.4377 15.3983 15.6276 16.0002 15.4146V16.4071C15.5401 16.778 14.9551 17 14.3182 17H5.68182C4.20069 17 3 15.7993 3 14.3182V5.68182ZM13.8536 7.85355C14.0488 7.65829 14.0488 7.34171 13.8536 7.14645C13.6583 6.95118 13.3417 6.95118 13.1464 7.14645L8.5 11.7929L6.85355 10.1464C6.65829 9.95118 6.34171 9.95118 6.14645 10.1464C5.95118 10.3417 5.95118 10.6583 6.14645 10.8536L8.14645 12.8536C8.34171 13.0488 8.65829 13.0488 8.85355 12.8536L13.8536 7.85355ZM18.0001 12.5C18.0001 12.3106 17.8931 12.1375 17.7237 12.0528C17.5543 11.9681 17.3516 11.9864 17.2001 12.1L15.2 13.6C14.9791 13.7657 14.9343 14.0791 15.1 14.3C15.2657 14.5209 15.5791 14.5657 15.8 14.4L17.0001 13.5V17.5C17.0001 17.7761 17.2239 18 17.5001 18C17.7762 18 18.0001 17.7761 18.0001 17.5V12.5Z" fill="#212121"/>
</svg>
