<svg width="20" height="20" viewBox="0 0 20 20" fill="none" xmlns="http://www.w3.org/2000/svg">
<path d="M8.5 12C8.22386 12 8 12.2239 8 12.5C8 12.7761 8.22386 13 8.5 13H11.5C11.7761 13 12 12.7761 12 12.5C12 12.2239 11.7761 12 11.5 12H8.5ZM4 4C2.89543 4 2 4.89543 2 6V14C2 15.1046 2.89543 16 4 16H16C17.1046 16 18 15.1046 18 14V6C18 4.89543 17.1046 4 16 4H4ZM3 6C3 5.44772 3.44772 5 4 5H16C16.5523 5 17 5.44772 17 6V14C17 14.5523 16.5523 15 16 15H4C3.44772 15 3 14.5523 3 14V6Z" fill="#212121"/>
</svg>
