<svg width="28" height="28" viewBox="0 0 28 28" fill="none" xmlns="http://www.w3.org/2000/svg">
<path d="M8.5 8.49984C10.5711 8.49984 12.25 6.82094 12.25 4.74992C12.25 2.6789 10.5711 1 8.5 1C6.42893 1 4.75 2.6789 4.75 4.74992C4.75 6.82094 6.42893 8.49984 8.5 8.49984ZM2 11.9821C2 10.8874 2.88743 10 3.98213 10H9.58274C9.36802 10.5415 9.25 11.132 9.25 11.7499C9.25 13.6101 10.3192 15.2204 11.8766 16H9.48213C8.23706 16 7.1702 16.763 6.72365 17.847C4.71865 17.4756 3.51729 16.4748 2.83001 15.3579C1.99995 14.0091 1.99999 12.6175 2 12.377V11.9821ZM17.75 11.7499C17.75 12.5019 17.5287 13.2021 17.1476 13.7891C16.3572 14.1847 15.6464 14.7159 15.0457 15.3521C14.7138 15.4483 14.3629 15.4998 14 15.4998C11.9289 15.4998 10.25 13.8209 10.25 11.7499C10.25 9.67889 11.9289 8 14 8C16.0711 8 17.75 9.67889 17.75 11.7499ZM9.48213 17H13.865C13.3127 18.0449 13 19.2359 13 20.5C13 22.1836 13.5548 23.7377 14.4915 24.9894C14.3317 24.9964 14.1679 25 14 25C10.8943 25 9.20014 23.7719 8.33001 22.3579C7.49995 21.0091 7.49999 19.6175 7.5 19.377V18.9821C7.5 17.8874 8.38743 17 9.48213 17ZM26 12.377C26 12.5877 26 13.6825 25.4414 14.8578C24.1217 13.7011 22.3927 13 20.5 13C19.8081 13 19.138 13.0937 18.5019 13.2691C18.6628 12.7921 18.75 12.2812 18.75 11.7499C18.75 11.132 18.632 10.5415 18.4173 10H24.0179C25.1126 10 26 10.8874 26 11.9821V12.377ZM23.25 4.74992C23.25 6.82094 21.5711 8.49984 19.5 8.49984C17.4289 8.49984 15.75 6.82094 15.75 4.74992C15.75 2.6789 17.4289 1 19.5 1C21.5711 1 23.25 2.6789 23.25 4.74992ZM27 20.5C27 24.0899 24.0899 27 20.5 27C16.9101 27 14 24.0899 14 20.5C14 16.9101 16.9101 14 20.5 14C24.0899 14 27 16.9101 27 20.5ZM21 16.5C21 16.2239 20.7761 16 20.5 16C20.2239 16 20 16.2239 20 16.5V20H16.5C16.2239 20 16 20.2239 16 20.5C16 20.7761 16.2239 21 16.5 21H20V24.5C20 24.7761 20.2239 25 20.5 25C20.7761 25 21 24.7761 21 24.5V21H24.5C24.7761 21 25 20.7761 25 20.5C25 20.2239 24.7761 20 24.5 20H21V16.5Z" fill="#212121"/>
</svg>
