<svg width="28" height="28" viewBox="0 0 28 28" fill="none" xmlns="http://www.w3.org/2000/svg">
<path d="M18.081 13.3987C18.3499 12.8218 18.5 12.1784 18.5 11.5C18.5 10.974 18.4098 10.4691 18.2439 9.99991L24.25 10C25.2165 10 26 10.7835 26 11.75V13.752L25.9921 13.8604C25.9295 14.2889 25.8019 14.6725 25.612 15.012C24.2724 13.7637 22.4754 13 20.5 13C19.6536 13 18.84 13.1402 18.081 13.3987ZM13.4249 22.9946C10.6135 22.8646 8.90445 21.8536 8.51446 19.8966L8.5 19.75V17.75C8.5 16.7835 9.2835 16 10.25 16H14.4995C13.5579 17.2535 13 18.8116 13 20.5C13 21.3746 13.1497 22.2142 13.4249 22.9946ZM9.75609 9.99991L3.75 10C2.7835 10 2 10.7835 2 11.75V13.75L2.01446 13.8966C2.4333 15.9983 4.37361 17.009 7.56679 17.009L7.60087 17.0094C7.9242 15.8504 8.98779 15 10.25 15L11.1722 15.0007L10.9961 14.8507C10.0777 14.0268 9.5 12.8309 9.5 11.5C9.5 10.974 9.59024 10.4691 9.75609 9.99991ZM17.5 11.5C17.5 9.567 15.933 8 14 8C12.067 8 10.5 9.567 10.5 11.5C10.5 13.433 12.067 15 14 15C15.933 15 17.5 13.433 17.5 11.5ZM24 5.5C24 3.567 22.433 2 20.5 2C18.567 2 17 3.567 17 5.5C17 7.433 18.567 9 20.5 9C22.433 9 24 7.433 24 5.5ZM11 5.5C11 3.567 9.433 2 7.5 2C5.567 2 4 3.567 4 5.5C4 7.433 5.567 9 7.5 9C9.433 9 11 7.433 11 5.5ZM20.5 27C24.0899 27 27 24.0899 27 20.5C27 16.9101 24.0899 14 20.5 14C16.9101 14 14 16.9101 14 20.5C14 24.0899 16.9101 27 20.5 27ZM20.5 16C20.7761 16 21 16.2239 21 16.5V20H24.5C24.7761 20 25 20.2239 25 20.5C25 20.7761 24.7761 21 24.5 21H21V24.5C21 24.7761 20.7761 25 20.5 25C20.2239 25 20 24.7761 20 24.5V21H16.5C16.2239 21 16 20.7761 16 20.5C16 20.2239 16.2239 20 16.5 20H20V16.5C20 16.2239 20.2239 16 20.5 16Z" fill="#212121"/>
</svg>
