<svg width="20" height="20" viewBox="0 0 20 20" fill="none" xmlns="http://www.w3.org/2000/svg">
<path d="M18 5C18 3.89543 17.1046 3 16 3H4C2.89543 3 2 3.89543 2 5V8.14584C2.29987 7.87745 2.63595 7.64868 3 7.46776V5C3 4.44772 3.44772 4 4 4H16C16.5523 4 17 4.44772 17 5V13C17 13.5523 16.5523 14 16 14H8.74223C8.66639 14.1133 8.58554 14.223 8.5 14.3287V15H16C17.1046 15 18 14.1046 18 13V5ZM1.5 11.5C1.5 12.4538 1.8815 13.3184 2.50023 13.9497L2.5 18C2.5 18.412 2.97038 18.6472 3.3 18.4L4.7 17.35C4.87778 17.2167 5.12222 17.2167 5.3 17.35L6.7 18.4C7.02962 18.6472 7.5 18.412 7.5 18V13.9495C8.11859 13.3182 8.5 12.4537 8.5 11.5C8.5 9.567 6.933 8 5 8C3.067 8 1.5 9.567 1.5 11.5ZM5 15C5.53715 15 6.04515 14.8794 6.5 14.6632V16.75L5.25725 16.0043C5.09891 15.9093 4.90109 15.9093 4.74275 16.0043L3.5 16.75V14.6632C3.95463 14.8792 4.4632 15 5 15ZM5 14C3.61929 14 2.5 12.8807 2.5 11.5C2.5 10.1193 3.61929 9 5 9C6.38071 9 7.5 10.1193 7.5 11.5C7.5 12.8807 6.38071 14 5 14ZM15 6.5C15 6.22386 14.7761 6 14.5 6H5.5C5.22386 6 5 6.22386 5 6.5C5 6.77614 5.22386 7 5.5 7H14.5C14.7761 7 15 6.77614 15 6.5ZM14.5 11C14.7761 11 15 11.2239 15 11.5C15 11.7761 14.7761 12 14.5 12H10.5C10.2239 12 10 11.7761 10 11.5C10 11.2239 10.2239 11 10.5 11H14.5Z" fill="#212121"/>
</svg>
