<svg width="24" height="24" viewBox="0 0 24 24" fill="none" xmlns="http://www.w3.org/2000/svg">
<path d="M14.7541 15C15.9961 15 17.0029 16.0069 17.0029 17.2489V18.1673C17.0029 18.7407 16.8237 19.2997 16.4903 19.7662C14.9445 21.9295 12.4202 23.0011 8.99988 23.0011C5.57891 23.0011 3.05595 21.929 1.51379 19.7646C1.18182 19.2987 1.00342 18.7409 1.00342 18.1688V17.2489C1.00342 16.0069 2.01027 15 3.25229 15H14.7541ZM19.0538 1.40364C19.4135 1.19813 19.8716 1.32306 20.0771 1.6827C21.1678 3.59117 21.7499 5.75412 21.7499 8.00008C21.7499 10.2536 21.1638 12.4235 20.0662 14.3365C19.8601 14.6958 19.4017 14.82 19.0424 14.6138C18.6832 14.4077 18.559 13.9493 18.7652 13.5901C19.7332 11.9027 20.2499 9.98993 20.2499 8.00008C20.2499 6.01691 19.7367 4.11023 18.7748 2.42693C18.5693 2.0673 18.6942 1.60916 19.0538 1.40364ZM8.99988 3.0047C11.7613 3.0047 13.9999 5.24328 13.9999 8.0047C13.9999 10.7661 11.7613 13.0047 8.99988 13.0047C6.23845 13.0047 3.99988 10.7661 3.99988 8.0047C3.99988 5.24328 6.23845 3.0047 8.99988 3.0047ZM15.5884 3.39951C15.9485 3.19476 16.4063 3.32068 16.6111 3.68076C17.3537 4.98671 17.7499 6.46544 17.7499 8.00008C17.7499 9.53822 17.3518 11.0202 16.606 12.3282C16.4009 12.6881 15.9428 12.8135 15.583 12.6083C15.2232 12.4031 15.0978 11.9451 15.303 11.5853C15.9205 10.5021 16.2499 9.27594 16.2499 8.00008C16.2499 6.72712 15.922 5.50362 15.3071 4.4222C15.1024 4.06212 15.2283 3.60425 15.5884 3.39951Z" fill="#212121"/>
</svg>
