<?xml version="1.0" encoding="UTF-8"?>
<svg width="24px" height="24px" viewBox="0 0 24 24" version="1.1" xmlns="http://www.w3.org/2000/svg" xmlns:xlink="http://www.w3.org/1999/xlink">
    <!-- Generator: Sketch 59.1 (86144) - https://sketch.com -->
    <title>ic_shifts_pending_24_regular</title>
    <desc>Created with Sketch.</desc>
    <g id="ðŸ”-Product-Icons" stroke="none" stroke-width="1" fill="none" fill-rule="evenodd">
        <g id="ic_shifts_pending_24_regular" fill="#212121">
            <path d="M6.5,12 C9.53756612,12 12,14.4624339 12,17.5 C12,20.5375661 9.53756612,23 6.5,23 C3.46243388,23 1,20.5375661 1,17.5 C1,14.4624339 3.46243388,12 6.5,12 Z M17.75,3 C19.5449254,3 21,4.45507456 21,6.25 L21,17.75 C21,19.5449254 19.5449254,21 17.75,21 L11.9774077,21.0012092 C12.2742498,20.5377831 12.5138894,20.0341997 12.6863646,19.5004209 L17.75,19.5 C18.7164983,19.5 19.5,18.7164983 19.5,17.75 L19.5,6.25 C19.5,5.28350169 18.7164983,4.5 17.75,4.5 L6.25,4.5 C5.28350169,4.5 4.5,5.28350169 4.5,6.25 L4.49957906,11.3136354 C3.96580034,11.4861106 3.46221691,11.7257502 2.99879075,12.0225923 L3,6.25 C3,4.45507456 4.45507456,3 6.25,3 L17.75,3 Z M6.5,17.5 L3.5,17.5 C3.25454011,17.5 3.05039163,17.6768752 3.00805567,17.9101244 L3,18 L3,18.4959046 C3,19.4903671 3.75658207,19.9935852 5,19.9935852 C6.18120738,19.9935852 6.92312074,19.5398532 6.99435906,18.6422942 L7,18.4968875 L7,18 C7,17.7238576 6.77614237,17.5 6.5,17.5 Z M9.52012224,17.4861631 L7.9091402,17.4846863 C7.95322679,17.605209 7.98229213,17.7329685 7.99406939,17.8656979 L8,18 L8,18.4968875 L7.99278617,18.7088676 C7.97362373,18.9853255 7.91658306,19.2370411 7.82523727,19.4638622 C7.95879832,19.4777061 8.10072734,19.4845107 8.25029164,19.4845107 C9.27626263,19.4845107 9.94293361,19.1646461 10.0138416,18.4487547 L10.0201222,18.3182944 L10.0201222,17.9861631 C10.0201222,17.7407032 9.84324708,17.5365547 9.60999787,17.4942187 L9.52012224,17.4861631 L7.9091402,17.4846863 Z M5,14.5 C4.4467725,14.5 3.99829299,14.9484795 3.99829299,15.501707 C3.99829299,16.0549345 4.4467725,16.503414 5,16.503414 C5.5532275,16.503414 6.00170701,16.0549345 6.00170701,15.501707 C6.00170701,14.9484795 5.5532275,14.5 5,14.5 Z M8.13031287,14.7573556 C7.64811242,14.7573556 7.25721172,15.1482563 7.25721172,15.6304568 C7.25721172,16.1126572 7.64811242,16.5035579 8.13031287,16.5035579 C8.61251332,16.5035579 9.00341401,16.1126572 9.00341401,15.6304568 C9.00341401,15.1482563 8.61251332,14.7573556 8.13031287,14.7573556 Z M11.75,6 C12.1296958,6 12.443491,6.28215388 12.4931534,6.64822944 L12.5,6.75 L12.5,12 L16.2482627,12 C16.6624763,12 16.9982627,12.3357864 16.9982627,12.75 C16.9982627,13.1296958 16.7161089,13.443491 16.3500333,13.4931534 L16.2482627,13.5 L11.75,13.5 C11.7026715,13.5 11.6563669,13.4956161 11.6114701,13.4872322 C11.4258956,13.2481707 11.222649,13.0236707 11.0048315,12.8142135 L11,12.75 L11,6.75 C11,6.33578644 11.3357864,6 11.75,6 Z" id="ðŸŽ¨-Color"></path>
        </g>
    </g>
</svg>