<svg width="28" height="28" viewBox="0 0 28 28" fill="none" xmlns="http://www.w3.org/2000/svg">
<path d="M17.2499 2C16.8357 2 16.4999 2.33579 16.4999 2.75V13.25C16.4999 13.6642 16.8357 14 17.2499 14C17.6641 14 17.9999 13.6642 17.9999 13.25V10H20.9999C23.2091 10 24.9999 8.20914 24.9999 6C24.9999 3.79086 23.2091 2 20.9999 2H17.2499ZM20.9999 8.5H17.9999V3.5H20.9999C22.3806 3.5 23.4999 4.61929 23.4999 6C23.4999 7.38072 22.3806 8.5 20.9999 8.5ZM8.05881 2.08066C6.64368 1.88768 5.21094 2.16352 4.09127 2.8827C2.95617 3.61178 2.15663 4.79304 2.0697 6.32442C1.91902 8.97899 2.4083 12.6451 4.85048 16.875C7.25716 21.0435 10.199 23.6389 12.5927 25.2054C15.3991 27.042 18.7066 25.5294 20.1561 22.8036C20.5901 21.9873 20.5853 21.0071 20.1425 20.1953L18.8784 17.8776C17.9989 16.2652 16.081 15.5271 14.3474 16.1338L12.6877 16.7147C12.2925 16.853 11.9536 16.7729 11.7654 16.5865C10.7116 15.5428 9.73916 13.7876 9.38273 12.3047C9.3176 12.0337 9.42621 11.6939 9.74239 11.4229L11.006 10.3398C12.1383 9.36923 12.4648 7.75264 11.7979 6.41877L10.3931 3.6092C9.98679 2.79652 9.20527 2.23699 8.30499 2.11423L8.05881 2.08066ZM3.56729 6.40943C3.62457 5.40031 4.13389 4.63809 4.90192 4.14478C5.68537 3.64156 6.75002 3.41607 7.85614 3.5669L8.10232 3.60047C8.51154 3.65627 8.86678 3.9106 9.05147 4.28001L10.4562 7.08957C10.8153 7.80781 10.6395 8.67829 10.0298 9.20088L8.76621 10.284C8.13199 10.8276 7.69686 11.7091 7.92427 12.6552C8.34303 14.3975 9.44932 16.4038 10.7099 17.6523C11.4092 18.3449 12.3995 18.4048 13.1832 18.1305L14.8429 17.5496C15.8831 17.1855 17.0338 17.6284 17.5615 18.5959L18.8256 20.9135C19.0268 21.2823 19.0291 21.7281 18.8317 22.0993C17.666 24.2914 15.2684 25.1638 13.4141 23.9503C11.1871 22.4929 8.42212 20.0613 6.14952 16.125C3.86102 12.1612 3.43229 8.78778 3.56729 6.40943Z" fill="#212121"/>
</svg>
