<svg width="24" height="24" viewBox="0 0 24 24" fill="none" xmlns="http://www.w3.org/2000/svg">
<path d="M22 11.998C22 6.4752 17.5228 1.99805 12 1.99805C6.47715 1.99805 2 6.4752 2 11.998C2 13.6408 2.3972 15.2274 3.1449 16.6483L2.02855 20.9367C1.99198 21.0771 1.99199 21.2246 2.02858 21.3651C2.1469 21.8194 2.6111 22.0917 3.06538 21.9734L7.35578 20.8563C8.77516 21.602 10.3596 21.998 12 21.998C17.5228 21.998 22 17.5209 22 11.998ZM12 6.49951C12.4142 6.49951 12.75 6.8353 12.75 7.24951V13.4995C12.75 13.9137 12.4142 14.2495 12 14.2495C11.5858 14.2495 11.25 13.9137 11.25 13.4995V7.24951C11.25 6.8353 11.5858 6.49951 12 6.49951ZM13 16.4974C13 17.0497 12.5523 17.4974 12 17.4974C11.4477 17.4974 11 17.0497 11 16.4974C11 15.9451 11.4477 15.4974 12 15.4974C12.5523 15.4974 13 15.9451 13 16.4974Z" fill="#212121"/>
</svg>
