<svg width="32" height="32" viewBox="0 0 32 32" fill="none" xmlns="http://www.w3.org/2000/svg">
<path d="M3.5 3C3.22386 3 3 3.22386 3 3.5C3 3.77614 3.22386 4 3.5 4H28.5C28.7761 4 29 3.77614 29 3.5C29 3.22386 28.7761 3 28.5 3H3.5ZM15.6464 6.14645C15.8417 5.95118 16.1583 5.95118 16.3536 6.14645L19.3536 9.14645C19.5488 9.34171 19.5488 9.65829 19.3536 9.85355C19.1583 10.0488 18.8417 10.0488 18.6464 9.85355L16.5 7.70711V14.5C16.5 14.7761 16.2761 15 16 15C15.7239 15 15.5 14.7761 15.5 14.5V7.70711L13.3536 9.85355C13.1583 10.0488 12.8417 10.0488 12.6464 9.85355C12.4512 9.65829 12.4512 9.34171 12.6464 9.14645L15.6464 6.14645ZM3.5 11C3.22386 11 3 11.2239 3 11.5V24.5C3 26.9853 5.01472 29 7.5 29H24.5C26.9853 29 29 26.9853 29 24.5V11.5C29 11.2239 28.7761 11 28.5 11H20.5C20.2239 11 20 11.2239 20 11.5V20L12 20V11.5C12 11.2239 11.7761 11 11.5 11H3.5ZM11 20H4V12H11V20ZM4 21H11V28H7.5C5.567 28 4 26.433 4 24.5V21ZM21 28V21H28V24.5C28 26.433 26.433 28 24.5 28H21ZM28 20H21V12H28V20ZM12 28V21L20 21V28H12Z" fill="#212121"/>
</svg>
