<svg width="20" height="20" viewBox="0 0 20 20" fill="none" xmlns="http://www.w3.org/2000/svg">
<path d="M2 4.5C2 3.11929 3.11929 2 4.5 2H11.5C12.8807 2 14 3.11929 14 4.5V7H13V4.5C13 3.67157 12.3284 3 11.5 3H4.5C3.67157 3 3 3.67157 3 4.5V10.5C3 11.3284 3.67157 12 4.5 12H7V13H4.5C3.11929 13 2 11.8807 2 10.5V4.5ZM16 11C16 11.5523 15.5523 12 15 12C14.4477 12 14 11.5523 14 11C14 10.4477 14.4477 10 15 10C15.5523 10 16 10.4477 16 11ZM8 10.5C8 9.11929 9.11929 8 10.5 8H15.5C16.8807 8 18 9.11929 18 10.5V15.5C18 16.8807 16.8807 18 15.5 18H10.5C9.11929 18 8 16.8807 8 15.5V10.5ZM10.5 9C9.67157 9 9 9.67157 9 10.5V15.5C9 15.7316 9.05248 15.9509 9.1462 16.1467L11.7909 13.5021C12.4587 12.8343 13.5414 12.8343 14.2092 13.5021L16.8538 16.1467C16.9475 15.9509 17 15.7316 17 15.5V10.5C17 9.67157 16.3284 9 15.5 9H10.5ZM12.498 14.2092L9.85333 16.8538C10.0491 16.9475 10.2684 17 10.5 17H15.5C15.7316 17 15.9509 16.9475 16.1467 16.8538L13.5021 14.2092C13.2248 13.9319 12.7753 13.9319 12.498 14.2092ZM4.5 4C4.77614 4 5 4.22386 5 4.5V5C5 5.27614 4.77614 5.5 4.5 5.5C4.22386 5.5 4 5.27614 4 5V4.5C4 4.22386 4.22386 4 4.5 4ZM12 4.5C12 4.22386 11.7761 4 11.5 4C11.2239 4 11 4.22386 11 4.5V5C11 5.27614 11.2239 5.5 11.5 5.5C11.7761 5.5 12 5.27614 12 5V4.5ZM4.5 6.75C4.77614 6.75 5 6.97386 5 7.25V7.75C5 8.02614 4.77614 8.25 4.5 8.25C4.22386 8.25 4 8.02614 4 7.75V7.25C4 6.97386 4.22386 6.75 4.5 6.75ZM5 10C5 9.72386 4.77614 9.5 4.5 9.5C4.22386 9.5 4 9.72386 4 10V10.5C4 10.7761 4.22386 11 4.5 11C4.77614 11 5 10.7761 5 10.5V10Z" fill="#212121"/>
</svg>
