<svg width="16" height="16" viewBox="0 0 16 16" fill="none" xmlns="http://www.w3.org/2000/svg">
<path d="M7.49998 2C7.77612 2 7.99998 2.22386 7.99998 2.5V6.5C7.99998 6.72888 8.15376 6.92184 8.36364 6.98119C8.56285 6.84267 8.77166 6.71699 8.98886 6.60534C8.99614 6.57138 8.99997 6.53614 8.99997 6.5V3.5C8.99997 3.22386 9.22383 3 9.49997 3C9.77611 3 9.99997 3.22386 9.99997 3.5V6.207C10.3223 6.11585 10.6566 6.05334 11 6.02241V5.5C11 5.22386 11.2239 5 11.5 5C11.7768 5 12 5.22349 12 5.49895V6.02244C12.3434 6.05339 12.6777 6.11591 13 6.20708V5.49895C13 4.66985 12.3277 4 11.5 4C11.3247 4 11.1564 4.03008 11 4.08537V3.5C11 2.67157 10.3284 2 9.49997 2C9.30485 2 9.11843 2.03726 8.94743 2.10504C8.77408 1.46823 8.19171 1 7.49998 1C6.80825 1 6.22588 1.46823 6.05253 2.10503C5.88154 2.03725 5.69514 2 5.50003 2C4.6716 2 4.00003 2.67157 4.00003 3.5V7.44781C3.72347 7.27651 3.42375 7.14793 3.10591 7.10197C2.74659 7.05002 2.37788 7.10577 2.02214 7.30122C1.67442 7.49227 1.36393 7.80278 1.08402 8.22265C0.93436 8.44713 0.989795 8.74985 1.20925 8.90675L1.21322 8.90962L1.23045 8.92225C1.24626 8.93394 1.27056 8.95209 1.30244 8.97651C1.36622 9.02537 1.4602 9.09919 1.57716 9.19629C1.81132 9.39067 2.13621 9.67723 2.49448 10.0423C3.21498 10.7766 4.0509 11.8089 4.56758 13.0302C4.8738 13.7541 5.44084 14.4304 6.18659 14.7706L6.48253 13.7987C6.06223 13.5676 5.70556 13.1536 5.48855 12.6406C4.90473 11.2605 3.97664 10.125 3.20825 9.34197C2.82207 8.94841 2.47131 8.63889 2.21591 8.42687L2.20246 8.41572C2.31146 8.30343 2.4127 8.22764 2.50368 8.17765C2.66224 8.09053 2.81069 8.06969 2.96282 8.09168C3.30284 8.14084 3.70362 8.41069 4.14648 8.85355C4.28948 8.99655 4.50453 9.03933 4.69137 8.96194C4.87821 8.88455 5.00003 8.70223 5.00003 8.5V3.5C5.00003 3.22386 5.22389 3 5.50003 3C5.77398 3 5.99648 3.22033 5.99998 3.49345V6.5C5.99998 6.77614 6.22384 7 6.49998 7C6.77612 7 6.99998 6.77614 6.99998 6.5L7.00002 3.5L6.99998 3.48866V2.5C6.99998 2.22386 7.22384 2 7.49998 2ZM16 11.5C16 13.9853 13.9853 16 11.5 16C10.7085 16 9.96465 15.7956 9.31846 15.4368L7.52936 15.9812C7.21625 16.0765 6.92358 15.7838 7.01892 15.4707L7.56353 13.6821C7.20449 13.0358 7 12.2918 7 11.5C7 9.01472 9.01472 7 11.5 7C13.9853 7 16 9.01472 16 11.5ZM9.5 10C9.22386 10 9 10.2239 9 10.5C9 10.7761 9.22386 11 9.5 11H13.5C13.7761 11 14 10.7761 14 10.5C14 10.2239 13.7761 10 13.5 10H9.5ZM9 12.5C9 12.7761 9.22386 13 9.5 13H11.5C11.7761 13 12 12.7761 12 12.5C12 12.2239 11.7761 12 11.5 12H9.5C9.22386 12 9 12.2239 9 12.5Z" fill="#212121"/>
</svg>
