<svg width="16" height="16" viewBox="0 0 16 16" fill="none" xmlns="http://www.w3.org/2000/svg">
<path d="M3 4.99853C3 4.44544 3.44837 3.99707 4.00146 3.99707C4.34875 3.99707 4.65506 4.17343 4.83544 4.4438C4.98869 4.67351 5.29915 4.73549 5.52886 4.58223C5.75857 4.42898 5.82055 4.11852 5.6673 3.88881C5.30933 3.35225 4.69698 2.99707 4.00146 2.99707C2.89609 2.99707 2 3.89316 2 4.99853C2 6.10391 2.89609 7 4.00146 7C4.01412 7 4.02668 6.99953 4.0391 6.9986C4.05156 6.99953 4.06415 7 4.07684 7L11.5026 7C11.7787 7 12.0026 6.77614 12.0026 6.5C12.0026 6.22386 11.7787 6 11.5026 6L4.07684 6C4.06418 6 4.05163 6.00048 4.03921 6.0014C4.02675 6.00047 4.01416 6 4.00146 6C3.44837 6 3 5.55163 3 4.99853ZM7.49872 4C7.22258 4 6.99872 4.22386 6.99872 4.5C6.99872 4.77614 7.22258 5 7.49872 5H13.4987C13.7749 5 13.9987 4.77614 13.9987 4.5C13.9987 4.22386 13.7749 4 13.4987 4H7.49872ZM4.49475 8.00195C4.21861 8.00195 3.99475 8.22581 3.99475 8.50195C3.99475 8.7781 4.21861 9.00195 4.49475 9.00195H13.4947C13.7709 9.00195 13.9947 8.7781 13.9947 8.50195C13.9947 8.22581 13.7709 8.00195 13.4947 8.00195H4.49475ZM2 10.5C2 10.2239 2.22386 10 2.5 10H11.4975C11.7737 10 11.9975 10.2239 11.9975 10.5C11.9975 10.7761 11.7737 11 11.4975 11H2.5C2.22386 11 2 10.7761 2 10.5ZM4.49475 12C4.21861 12 3.99475 12.2239 3.99475 12.5C3.99475 12.7761 4.21861 13 4.49475 13H13.4947C13.7709 13 13.9947 12.7761 13.9947 12.5C13.9947 12.2239 13.7709 12 13.4947 12H4.49475Z" fill="#212121"/>
</svg>
