<svg width="12" height="12" viewBox="0 0 12 12" fill="none" xmlns="http://www.w3.org/2000/svg">
<path d="M4.08535 3H3.5C3.22386 3 3 3.22386 3 3.5V9.5C3 9.77614 3.22386 10 3.5 10H8.5C8.77614 10 9 9.77614 9 9.5V3.5C9 3.22386 8.77614 3 8.5 3H7.91465C7.70873 3.5826 7.15311 4 6.5 4H5.5C4.84689 4 4.29127 3.5826 4.08535 3ZM7.91465 2H8.5C9.32843 2 10 2.67157 10 3.5V9.5C10 10.3284 9.32843 11 8.5 11H3.5C2.67157 11 2 10.3284 2 9.5V3.5C2 2.67157 2.67157 2 3.5 2H4.08535C4.29127 1.4174 4.84689 1 5.5 1H6.5C7.15311 1 7.70873 1.4174 7.91465 2ZM5 2.5C5 2.77614 5.22386 3 5.5 3H6.5C6.77614 3 7 2.77614 7 2.5C7 2.22386 6.77614 2 6.5 2H5.5C5.22386 2 5 2.22386 5 2.5ZM7 5.5C7 6.05228 6.55228 6.5 6 6.5C5.44772 6.5 5 6.05228 5 5.5C5 4.94772 5.44772 4.5 6 4.5C6.55228 4.5 7 4.94772 7 5.5ZM4.5 7C4.22386 7 4 7.22386 4 7.5L4 7.50152L4.00001 7.50313C4.00029 7.53422 4.00246 7.56533 4.00578 7.59624C4.01083 7.64343 4.02035 7.70547 4.03837 7.77752C4.07425 7.92106 4.1455 8.11067 4.2875 8.3C4.58881 8.70175 5.128 9 6 9C6.872 9 7.41119 8.70175 7.7125 8.3C7.8545 8.11067 7.92575 7.92106 7.96163 7.77752C7.97965 7.70547 7.98917 7.64343 7.99422 7.59624C7.99754 7.56533 7.99971 7.53422 7.99999 7.50313L8 7.50152C8 7.49939 8 7.5 8 7.5C8 7.22386 7.77614 7 7.5 7H4.5Z" fill="#212121"/>
</svg>
