<svg width="12" height="12" viewBox="0 0 12 12" fill="none" xmlns="http://www.w3.org/2000/svg">
<path d="M3.5 1C2.67157 1 2 1.67157 2 2.5V9.5C2 10.3284 2.67157 11 3.5 11H8.5C9.32843 11 10 10.3284 10 9.5V2.5C10 1.67157 9.32843 1 8.5 1H3.5ZM3 2.5C3 2.22386 3.22386 2 3.5 2H8.5C8.77614 2 9 2.22386 9 2.5V9.5C9 9.77614 8.77614 10 8.5 10H3.5C3.22386 10 3 9.77614 3 9.5V2.5ZM6 6.5C6.55228 6.5 7 6.05228 7 5.5C7 4.94772 6.55228 4.5 6 4.5C5.44772 4.5 5 4.94772 5 5.5C5 6.05228 5.44772 6.5 6 6.5ZM4.5 7C4.22386 7 4 7.22386 4 7.5C4 8.5 5 9 6 9C7 9 8 8.5 8 7.5C8 7.22386 7.77614 7 7.5 7H4.5ZM5.5 2.5C5.22386 2.5 5 2.72386 5 3C5 3.27614 5.22386 3.5 5.5 3.5H6.5C6.77614 3.5 7 3.27614 7 3C7 2.72386 6.77614 2.5 6.5 2.5H5.5Z" fill="#212121"/>
</svg>
