<svg width="24" height="24" viewBox="0 0 24 24" fill="none" xmlns="http://www.w3.org/2000/svg">
<path d="M18.5858 6.41421C18.9477 6.77614 19.4477 7 20 7C20.1675 7 20.3301 6.97942 20.4856 6.94064C21.3555 6.72367 22 5.9371 22 5C22 3.89543 21.1046 3 20 3C19.2406 3 18.5801 3.42323 18.2414 4.04668C18.0874 4.33007 18 4.65482 18 5C18 5.36428 18.0974 5.70583 18.2676 6C18.3498 6.14225 18.4491 6.27341 18.5627 6.39073L18.5858 6.41421ZM2 19C2 20.1046 2.89543 21 4 21C4.74029 21 5.38663 20.5978 5.73244 20C5.9026 19.7058 6 19.3643 6 19C6 18.6548 5.91256 18.3301 5.75861 18.0467C5.67155 17.8864 5.56321 17.7394 5.43739 17.6093C5.07378 17.2336 4.56417 17 4 17C3.84467 17 3.69348 17.0177 3.54833 17.0512C3.53702 17.0538 3.52574 17.0565 3.51451 17.0593C2.64454 17.2763 2 18.0629 2 19ZM6.58579 6.41421C6.94772 6.77614 7.44772 7 8 7C8.16747 7 8.33013 6.97942 8.48559 6.94064C9.01734 6.80802 9.46486 6.46256 9.73244 6C9.74136 5.98457 9.75009 5.96901 9.75861 5.95332C9.91256 5.66993 10 5.34518 10 5C10 4.63571 9.90261 4.29417 9.73244 4C9.38663 3.4022 8.74028 3 8 3C6.89543 3 6 3.89543 6 5C6 5.54043 6.21435 6.0308 6.56268 6.39073L6.58579 6.41421ZM6.26142 7.44515L3.81558 16.0056C3.87658 16.0019 3.93807 16 4 16C4.64809 16 5.24818 16.2055 5.73866 16.5549L8.18451 7.99442C8.12348 7.99812 8.06196 8 8 8C7.35195 8 6.75188 7.79452 6.26142 7.44515ZM17.1707 6H10.8293C10.9398 5.68722 11 5.35064 11 5C11 4.64936 10.9398 4.31278 10.8293 4H17.1707C17.0602 4.31278 17 4.64936 17 5C17 5.35064 17.0602 5.68722 17.1707 6ZM11.5209 19.5768C11.6678 18.9893 11.957 18.448 12.3617 18H6.82929C6.93985 18.3128 7 18.6494 7 19C7 19.3506 6.93985 19.6872 6.82929 20H11.4151L11.5209 19.5768ZM20.1845 7.99442L19.2236 11.3575C18.9242 11.5102 18.6432 11.7118 18.3927 11.9624L16.402 13.953L18.2614 7.44515C18.7519 7.79452 19.3519 8 20 8C20.062 8 20.1235 7.99812 20.1845 7.99442ZM19.0999 12.6695L13.1974 18.5719C12.8533 18.916 12.6092 19.3472 12.4911 19.8194L12.0334 21.6501C11.8344 22.4462 12.5556 23.1674 13.3517 22.9683L15.1824 22.5106C15.6545 22.3926 16.0857 22.1485 16.4299 21.8043L22.3323 15.9019C23.2249 15.0093 23.2249 13.5621 22.3323 12.6695C21.4397 11.7768 19.9925 11.7768 19.0999 12.6695Z" fill="#212121"/>
</svg>
