<svg width="24" height="24" viewBox="0 0 24 24" fill="none" xmlns="http://www.w3.org/2000/svg">
<path d="M10.0498 3.07227C9.42471 3.29536 9.00188 3.87586 9 4.54199C9.00027 4.63003 9.00895 4.71841 9.02441 4.80566C6.40052 5.6418 4.5 8.09895 4.5 11C4.5 14.5899 7.41015 17.5 11 17.5C13.877 17.5 16.3151 15.6302 17.1709 13.04C17.3821 13.591 17.6939 14.0771 18.3691 14.1172C18.0635 14.8389 17.6552 15.5066 17.1621 16.1016L21.7803 20.7197C22.0731 21.0126 22.0731 21.4874 21.7803 21.7803C21.4874 22.0732 21.0126 22.0732 20.7197 21.7803L16.1016 17.1621C14.7168 18.3098 12.9391 19 11 19C6.58172 19 3 15.4183 3 11C3 6.87875 6.11634 3.48549 10.1211 3.04785L10.0498 3.07227ZM18.4844 8.07324C18.5469 8.07324 18.6081 8.09281 18.6592 8.12891C18.7101 8.16492 18.7487 8.21566 18.7695 8.27441L19.0186 9.04004C19.0959 9.27246 19.2271 9.48403 19.4004 9.65723C19.5737 9.83027 19.7851 9.96085 20.0176 10.0381L20.7832 10.2861L20.7979 10.29C20.8568 10.3108 20.9082 10.3495 20.9443 10.4004C20.9805 10.4514 21 10.5127 21 10.5752C21 10.6377 20.9805 10.699 20.9443 10.75C20.9082 10.8009 20.8567 10.8396 20.7979 10.8604L20.0332 11.1084C19.8005 11.1857 19.5884 11.316 19.415 11.4893C19.2417 11.6624 19.1116 11.8741 19.0342 12.1064L18.7852 12.8721C18.7643 12.9308 18.7257 12.9816 18.6748 13.0176C18.6237 13.0537 18.5626 13.0732 18.5 13.0732C18.4374 13.0732 18.3763 13.0537 18.3252 13.0176C18.2743 12.9816 18.2357 12.9308 18.2148 12.8721L17.9658 12.1064C17.889 11.8734 17.7592 11.6611 17.5859 11.4873C17.4125 11.3133 17.1999 11.1822 16.9668 11.1045L16.2021 10.8564C16.1432 10.8357 16.0918 10.797 16.0557 10.7461C16.0195 10.6951 16 10.6338 16 10.5713C16 10.5088 16.0195 10.4475 16.0557 10.3965C16.0918 10.3456 16.1433 10.3069 16.2021 10.2861L16.9668 10.0381C17.1966 9.95879 17.4056 9.82739 17.5762 9.6543C17.7468 9.48119 17.8753 9.27086 17.9512 9.04004L18.1992 8.27441C18.22 8.21573 18.2588 8.16494 18.3096 8.12891C18.3606 8.09286 18.4219 8.07331 18.4844 8.07324ZM14.4727 0.0732422C14.5852 0.0732859 14.6952 0.107897 14.7871 0.172852C14.879 0.237845 14.9479 0.330436 14.9854 0.436523L15.4336 1.8125C15.5728 2.23106 15.808 2.61194 16.1201 2.92383C16.4322 3.23559 16.8127 3.47027 17.2314 3.60938L18.6094 4.05664L18.6367 4.06348C18.7429 4.10091 18.8353 4.17084 18.9004 4.2627C18.9653 4.35449 19 4.46473 19 4.57715C18.9999 4.68939 18.9652 4.79896 18.9004 4.89062C18.8353 4.98248 18.7429 5.05241 18.6367 5.08984L17.2588 5.53711C16.8401 5.67624 16.4595 5.91089 16.1475 6.22266C15.8353 6.53454 15.6002 6.91543 15.4609 7.33398L15.0137 8.70996C15.0096 8.7214 15.0048 8.73305 15 8.74414C14.9605 8.83594 14.8965 8.91565 14.8145 8.97363C14.7225 9.03859 14.6126 9.07324 14.5 9.07324C14.3874 9.07324 14.2775 9.03859 14.1855 8.97363C14.0936 8.90864 14.0238 8.81607 13.9863 8.70996L13.5391 7.33398C13.4379 7.02693 13.2848 6.73971 13.0879 6.48535C13.0157 6.39204 12.9373 6.30277 12.8535 6.21875C12.5415 5.90582 12.1606 5.67007 11.7412 5.53027L10.3633 5.08301C10.2571 5.04557 10.1647 4.97564 10.0996 4.88379C10.0347 4.79199 10 4.68175 10 4.56934C10.0001 4.4571 10.0348 4.34752 10.0996 4.25586C10.1647 4.16401 10.2571 4.09407 10.3633 4.05664L11.7412 3.60938C12.1548 3.46663 12.5299 3.23045 12.8369 2.91895C13.1356 2.61581 13.3623 2.2489 13.5 1.84668L13.5117 1.8125L13.959 0.436523C13.9964 0.330411 14.0663 0.237847 14.1582 0.172852C14.2501 0.107955 14.3601 0.0732422 14.4727 0.0732422Z" fill="#212121"/>
</svg>
