<svg width="48" height="48" viewBox="0 0 48 48" fill="none" xmlns="http://www.w3.org/2000/svg">
<path d="M13 11.75C13 10.0931 14.3431 8.75 16 8.75C17.6569 8.75 19 10.0931 19 11.75V12C19 12.8284 19.6716 13.5 20.5 13.5C21.3284 13.5 22 12.8284 22 12V11.75C22 8.43629 19.3137 5.75 16 5.75C12.6863 5.75 10 8.43629 10 11.75V20.25C10 20.3343 10.007 20.4171 10.0203 20.4976C10.2733 23.5785 12.8539 26 16 26C19.3137 26 22 23.3137 22 20C22 16.6863 19.3137 14 16 14C14.9071 14 13.8825 14.2922 13 14.8027V11.75ZM13 20C13 18.3431 14.3431 17 16 17C17.6569 17 19 18.3431 19 20C19 21.6569 17.6569 23 16 23C14.3431 23 13 21.6569 13 20Z" fill="#212121"/>
<path d="M30 6C26.6863 6 24 8.68629 24 12V20C24 23.3137 26.6863 26 30 26C33.3137 26 36 23.3137 36 20V12C36 8.68629 33.3137 6 30 6ZM33 20C33 21.6569 31.6569 23 30 23C28.3431 23 27 21.6569 27 20V12C27 10.3431 28.3431 9 30 9C31.6569 9 33 10.3431 33 12V20Z" fill="#212121"/>
<path d="M34.6556 32.75C33.8793 32.75 33.25 33.3793 33.25 34.1556C33.25 34.9318 33.8793 35.5611 34.6556 35.5611H35.9056C38.3049 35.5611 40.25 37.5062 40.25 39.9056C40.25 42.3049 38.3049 44.25 35.9056 44.25H34.25C32.0409 44.25 30.25 42.4591 30.25 40.25C30.25 39.4216 30.9216 38.75 31.75 38.75C32.5784 38.75 33.25 39.4216 33.25 40.25C33.25 40.8023 33.6977 41.25 34.25 41.25H35.9056C36.6481 41.25 37.25 40.6481 37.25 39.9056C37.25 39.163 36.6481 38.5611 35.9056 38.5611H34.6556C32.2224 38.5611 30.25 36.5887 30.25 34.1556C30.25 31.7224 32.2224 29.75 34.6556 29.75H36.25C38.4591 29.75 40.25 31.5409 40.25 33.75C40.25 34.5784 39.5784 35.25 38.75 35.25C37.9216 35.25 37.25 34.5784 37.25 33.75C37.25 33.1977 36.8023 32.75 36.25 32.75H34.6556Z" fill="#212121"/>
<path d="M8 31.5C8 30.6716 8.67157 30 9.5 30H15.25C16.0784 30 16.75 30.6716 16.75 31.5C16.75 32.3284 16.0784 33 15.25 33H11V36H14.5C15.3284 36 16 36.6716 16 37.5C16 38.3284 15.3284 39 14.5 39H11V42.5C11 43.3284 10.3284 44 9.5 44C8.67157 44 8 43.3284 8 42.5V31.5Z" fill="#212121"/>
<path d="M19 31.5C19 30.6716 19.6716 30 20.5 30H24C26.4853 30 28.5 32.0147 28.5 34.5C28.5 36.9853 26.4853 39 24 39H22V42.7896C22 43.6181 21.3284 44.2896 20.5 44.2896C19.6716 44.2896 19 43.6181 19 42.7896V31.5ZM22 36H24C24.8284 36 25.5 35.3284 25.5 34.5C25.5 33.6716 24.8284 33 24 33H22V36Z" fill="#212121"/>
</svg>
