<svg width="16" height="16" viewBox="0 0 16 16" fill="none" xmlns="http://www.w3.org/2000/svg">
<path d="M4.5 2.75C4.5 2.47386 4.72386 2.25 5 2.25C5.27614 2.25 5.5 2.47386 5.5 2.75V3C5.5 3.41421 5.83579 3.75 6.25 3.75C6.66421 3.75 7 3.41421 7 3V2.75C7 1.64543 6.10457 0.75 5 0.75C3.89543 0.75 3 1.64543 3 2.75V6C3 7.10457 3.89543 8 5 8C6.10457 8 7 7.10457 7 6C7 4.89543 6.10457 4 5 4C4.82735 4 4.65981 4.02188 4.5 4.06301V2.75ZM4.5 6C4.5 5.72386 4.72386 5.5 5 5.5C5.27614 5.5 5.5 5.72386 5.5 6C5.5 6.27614 5.27614 6.5 5 6.5C4.72386 6.5 4.5 6.27614 4.5 6ZM10 1C8.89543 1 8 1.89543 8 3V6C8 7.10457 8.89543 8 10 8C11.1046 8 12 7.10457 12 6V3C12 1.89543 11.1046 1 10 1ZM10.5 6C10.5 6.27614 10.2761 6.5 10 6.5C9.72386 6.5 9.5 6.27614 9.5 6V3C9.5 2.72386 9.72386 2.5 10 2.5C10.2761 2.5 10.5 2.72386 10.5 3V6ZM1.5 10C1.22386 10 1 10.2239 1 10.5V14.5C1 14.7761 1.22386 15 1.5 15C1.77614 15 2 14.7761 2 14.5V13H3.5C3.77614 13 4 12.7761 4 12.5C4 12.2239 3.77614 12 3.5 12H2V11H4.5C4.77614 11 5 10.7761 5 10.5C5 10.2239 4.77614 10 4.5 10H1.5ZM6.5 10C6.22386 10 6 10.2239 6 10.5V14.5C6 14.7761 6.22386 15 6.5 15C6.77614 15 7 14.7761 7 14.5V13.5H8.25C9.2165 13.5 10 12.7165 10 11.75C10 10.7835 9.2165 10 8.25 10H6.5ZM8.25 12.5H7V11H8.25C8.66421 11 9 11.3358 9 11.75C9 12.1642 8.66421 12.5 8.25 12.5ZM11 11.5C11 10.6716 11.6716 10 12.5 10H14.5C14.7761 10 15 10.2239 15 10.5C15 10.7761 14.7761 11 14.5 11H12.5C12.2239 11 12 11.2239 12 11.5C12 11.7761 12.2239 12 12.5 12H13.5C14.3284 12 15 12.6716 15 13.5C15 14.3284 14.3284 15 13.5 15H11.5C11.2239 15 11 14.7761 11 14.5C11 14.2239 11.2239 14 11.5 14H13.5C13.7761 14 14 13.7761 14 13.5C14 13.2239 13.7761 13 13.5 13H12.5C11.6716 13 11 12.3284 11 11.5Z" fill="#212121"/>
</svg>
