<svg width="28" height="28" viewBox="0 0 28 28" fill="none" xmlns="http://www.w3.org/2000/svg">
<path d="M13 21.25C13 22.7688 11.7688 24 10.25 24H4.75C3.23122 24 2 22.7688 2 21.25V13H13V21.25ZM23.5 23.25C23.5 23.6642 23.1642 24 22.75 24C22.3358 24 22 23.6642 22 23.25V14.8496C22.5221 14.7436 23.0235 14.5813 23.5 14.373V23.25ZM26.002 20.75C26.002 21.1642 25.6662 21.5 25.252 21.5C24.8377 21.5 24.502 21.1642 24.502 20.75V13.8408C25.0549 13.4911 25.5593 13.0725 26.002 12.5947V20.75ZM5.75 15.5C5.33579 15.5 5 15.8358 5 16.25C5 16.6642 5.33579 17 5.75 17H9.25C9.66421 17 10 16.6642 10 16.25C10 15.8358 9.66421 15.5 9.25 15.5H5.75ZM20.5 1C24.0899 1 27 3.91015 27 7.5C27 11.0899 24.0899 14 20.5 14C16.9101 14 14 11.0899 14 7.5C14 3.91015 16.9101 1 20.5 1ZM13.0684 6.5C13.0247 6.82723 13 7.16084 13 7.5C13 8.97109 13.4254 10.342 14.1572 11.5H2V9.25C2 7.73122 3.23122 6.5 4.75 6.5H13.0684ZM24.3535 4.64648C24.1583 4.45122 23.8417 4.45122 23.6465 4.64648L19 9.29297L17.3535 7.64648C17.1583 7.45122 16.8417 7.45122 16.6465 7.64648C16.4512 7.84175 16.4512 8.15825 16.6465 8.35352L18.6465 10.3535C18.8417 10.5488 19.1583 10.5488 19.3535 10.3535L24.3535 5.35352C24.5488 5.15825 24.5488 4.84175 24.3535 4.64648ZM13.8662 4C13.6165 4.47237 13.4165 4.97462 13.2715 5.5H4.80469C5.26008 4.61022 6.18375 4 7.25195 4H13.8662Z" fill="#212121"/>
</svg>
