<svg width="48" height="48" viewBox="0 0 48 48" fill="none" xmlns="http://www.w3.org/2000/svg">
<path d="M12.25 6.5C11.2835 6.5 10.5 7.2835 10.5 8.25V41.5H22.9038L25.4038 44H9.25C8.55964 44 8 43.4404 8 42.75V8.25C8 5.90279 9.90279 4 12.25 4H27.75C30.0972 4 32 5.90279 32 8.25V19H35.75C38.0972 19 40 20.9028 40 23.25V30.5873C39.1577 30.3884 38.2515 30.5295 37.5 31.0106V23.25C37.5 22.2835 36.7165 21.5 35.75 21.5H30.75C30.0596 21.5 29.5 20.9404 29.5 20.25V8.25C29.5 7.2835 28.7165 6.5 27.75 6.5H12.25ZM18 14C18 15.1046 17.1046 16 16 16C14.8954 16 14 15.1046 14 14C14 12.8954 14.8954 12 16 12C17.1046 12 18 12.8954 18 14ZM16 23C17.1046 23 18 22.1046 18 21C18 19.8954 17.1046 19 16 19C14.8954 19 14 19.8954 14 21C14 22.1046 14.8954 23 16 23ZM18 28C18 29.1046 17.1046 30 16 30C14.8954 30 14 29.1046 14 28C14 26.8954 14.8954 26 16 26C17.1046 26 18 26.8954 18 28ZM24 16C25.1046 16 26 15.1046 26 14C26 12.8954 25.1046 12 24 12C22.8954 12 22 12.8954 22 14C22 15.1046 22.8954 16 24 16ZM26 21C26 22.1046 25.1046 23 24 23C22.8954 23 22 22.1046 22 21C22 19.8954 22.8954 19 24 19C25.1046 19 26 19.8954 26 21ZM24 30C25.1046 30 26 29.1046 26 28C26 26.8954 25.1046 26 24 26C22.8954 26 22 26.8954 22 28C22 29.1046 22.8954 30 24 30ZM29.6339 34.6339C30.122 34.1457 30.122 33.3543 29.6339 32.8661C29.1457 32.378 28.3543 32.378 27.8661 32.8661L23.3661 37.3661C23.1317 37.6005 23 37.9185 23 38.25C23 38.5815 23.1317 38.8995 23.3661 39.1339L27.8661 43.6339C28.3543 44.122 29.1457 44.122 29.6339 43.6339C30.122 43.1457 30.122 42.3543 29.6339 41.8661L27.2678 39.5H40.7322L38.3661 41.8661C37.878 42.3543 37.878 43.1457 38.3661 43.6339C38.8543 44.122 39.6457 44.122 40.1339 43.6339L44.6339 39.1339C44.8683 38.8995 45 38.5815 45 38.25C45 37.9185 44.8683 37.6005 44.6339 37.3661L40.1339 32.8661C39.6457 32.378 38.8543 32.378 38.3661 32.8661C37.878 33.3543 37.878 34.1457 38.3661 34.6339L40.7322 37H27.2678L29.6339 34.6339Z" fill="#212121"/>
</svg>
