<svg width="20" height="20" viewBox="0 0 20 20" fill="none" xmlns="http://www.w3.org/2000/svg">
<path d="M7.5 5.75C7.5 6.16421 7.16421 6.5 6.75 6.5C6.33579 6.5 6 6.16421 6 5.75C6 5.33579 6.33579 5 6.75 5C7.16421 5 7.5 5.33579 7.5 5.75ZM6.75 9.5C7.16421 9.5 7.5 9.16421 7.5 8.75C7.5 8.33579 7.16421 8 6.75 8C6.33579 8 6 8.33579 6 8.75C6 9.16421 6.33579 9.5 6.75 9.5ZM7.5 11.75C7.5 12.1642 7.16421 12.5 6.75 12.5C6.33579 12.5 6 12.1642 6 11.75C6 11.3358 6.33579 11 6.75 11C7.16421 11 7.5 11.3358 7.5 11.75ZM9.75 6.5C10.1642 6.5 10.5 6.16421 10.5 5.75C10.5 5.33579 10.1642 5 9.75 5C9.33579 5 9 5.33579 9 5.75C9 6.16421 9.33579 6.5 9.75 6.5ZM10.5 8.75C10.5 9.16421 10.1642 9.5 9.75 9.5C9.33579 9.5 9 9.16421 9 8.75C9 8.33579 9.33579 8 9.75 8C10.1642 8 10.5 8.33579 10.5 8.75ZM9.75 12.5C10.1642 12.5 10.5 12.1642 10.5 11.75C10.5 11.3358 10.1642 11 9.75 11C9.33579 11 9 11.3358 9 11.75C9 12.1642 9.33579 12.5 9.75 12.5ZM9.87868 17L10.8787 18H4.5C4.22386 18 4 17.7761 4 17.5V3.5C4 2.67157 4.67157 2 5.5 2H11.5C12.3284 2 13 2.67157 13 3.5V8H14.5C15.3284 8 16 8.67157 16 9.5V12.0854C15.7953 12.1576 15.6031 12.2756 15.4393 12.4393C15.1466 12.7321 15.0001 13.1157 15 13.4994V9.5C15 9.22386 14.7761 9 14.5 9H12.5C12.2239 9 12 8.77614 12 8.5V3.5C12 3.22386 11.7761 3 11.5 3H5.5C5.22386 3 5 3.22386 5 3.5V17H9.87868ZM12.8536 13.8536C13.0488 13.6583 13.0488 13.3417 12.8536 13.1464C12.6583 12.9512 12.3417 12.9512 12.1464 13.1464L10.1464 15.1464C9.95119 15.3417 9.95119 15.6583 10.1464 15.8536L12.1464 17.8536C12.3417 18.0488 12.6583 18.0488 12.8536 17.8536C13.0488 17.6583 13.0488 17.3417 12.8536 17.1464L11.7071 16H17.2929L16.1464 17.1464C15.9512 17.3417 15.9512 17.6583 16.1464 17.8536C16.3417 18.0488 16.6583 18.0488 16.8536 17.8536L18.8536 15.8536C19.0488 15.6583 19.0488 15.3417 18.8536 15.1464L16.8536 13.1464C16.6583 12.9512 16.3417 12.9512 16.1464 13.1464C15.9512 13.3417 15.9512 13.6583 16.1464 13.8536L17.2929 15H11.7071L12.8536 13.8536Z" fill="#212121"/>
</svg>
