<svg width="32" height="32" viewBox="0 0 32 32" fill="none" xmlns="http://www.w3.org/2000/svg">
<path d="M4 5C4 3.34315 5.34315 2 7 2H18.75C20.5449 2 22 3.45507 22 5.25V13H24.75C26.5449 13 28 14.4551 28 16.25V20.9996C27.0206 20.2633 25.6236 20.3409 24.7322 21.2322C24.1162 21.8482 23.8889 22.7057 24.0502 23.5H21.9498C22.1111 22.7057 21.8838 21.8482 21.2678 21.2322C20.2915 20.2559 18.7085 20.2559 17.7322 21.2322L14.7322 24.2322C13.7559 25.2085 13.7559 26.7915 14.7322 27.7678L16.9645 30H5C4.44772 30 4 29.5523 4 29V5ZM12 8.5C12 7.67157 11.3284 7 10.5 7C9.67157 7 9 7.67157 9 8.5C9 9.32843 9.67157 10 10.5 10C11.3284 10 12 9.32843 12 8.5ZM12 13.5C12 12.6716 11.3284 12 10.5 12C9.67157 12 9 12.6716 9 13.5C9 14.3284 9.67157 15 10.5 15C11.3284 15 12 14.3284 12 13.5ZM10.5 20C11.3284 20 12 19.3284 12 18.5C12 17.6716 11.3284 17 10.5 17C9.67157 17 9 17.6716 9 18.5C9 19.3284 9.67157 20 10.5 20ZM17 8.5C17 7.67157 16.3284 7 15.5 7C14.6716 7 14 7.67157 14 8.5C14 9.32843 14.6716 10 15.5 10C16.3284 10 17 9.32843 17 8.5ZM15.5 15C16.3284 15 17 14.3284 17 13.5C17 12.6716 16.3284 12 15.5 12C14.6716 12 14 12.6716 14 13.5C14 14.3284 14.6716 15 15.5 15ZM17 18.5C17 17.6716 16.3284 17 15.5 17C14.6716 17 14 17.6716 14 18.5C14 19.3284 14.6716 20 15.5 20C16.3284 20 17 19.3284 17 18.5ZM20.2071 23.7071C20.5976 23.3166 20.5976 22.6834 20.2071 22.2929C19.8166 21.9024 19.1834 21.9024 18.7929 22.2929L15.7929 25.2929C15.4024 25.6834 15.4024 26.3166 15.7929 26.7071L18.7929 29.7071C19.1834 30.0976 19.8166 30.0976 20.2071 29.7071C20.5976 29.3166 20.5976 28.6834 20.2071 28.2929L18.9142 27H27.0858L25.7929 28.2929C25.4024 28.6834 25.4024 29.3166 25.7929 29.7071C26.1834 30.0976 26.8166 30.0976 27.2071 29.7071L30.2071 26.7071C30.5976 26.3166 30.5976 25.6834 30.2071 25.2929L27.2071 22.2929C26.8166 21.9024 26.1834 21.9024 25.7929 22.2929C25.4024 22.6834 25.4024 23.3166 25.7929 23.7071L27.0858 25H18.9142L20.2071 23.7071Z" fill="#212121"/>
</svg>
