<svg width="28" height="28" viewBox="0 0 28 28" fill="none" xmlns="http://www.w3.org/2000/svg">
<path d="M16.5 4.81425C16.5 3.71986 15.1932 3.15384 14.395 3.90244L9.45826 8.53182C9.13388 8.836 8.70587 9.00529 8.26119 9.00529H5.25C3.45508 9.00529 2 10.4604 2 12.2553V15.7473C2 17.5422 3.45507 18.9973 5.25 18.9973H8.26174C8.70619 18.9973 9.134 19.1664 9.45832 19.4703L14.3953 24.0964C15.1937 24.8446 16.5 24.2785 16.5 23.1843V4.81425ZM10.4843 9.62599L15 5.39141V22.6074L10.484 18.3757C9.88165 17.8114 9.08715 17.4973 8.26174 17.4973H5.25C4.2835 17.4973 3.5 16.7138 3.5 15.7473V12.2553C3.5 11.2888 4.2835 10.5053 5.25 10.5053H8.26119C9.08703 10.5053 9.8819 10.1909 10.4843 9.62599Z" fill="#212121"/>
</svg>
