<svg width="48" height="48" viewBox="0 0 48 48" fill="none" xmlns="http://www.w3.org/2000/svg">
<path d="M25.081 6.41845C26.2076 5.40707 28 6.20666 28 7.72071V40.2792C28 41.7933 26.2077 42.5929 25.081 41.5815L16.875 34.2152C16.0034 33.4328 14.8734 33 13.702 33H9C6.10051 33 3.75 30.6495 3.75 27.75V20.25C3.75 17.3505 6.10051 15 9 15H13.702C14.8734 15 16.0034 14.5672 16.875 13.7847L25.081 6.41845ZM25.5 9.40183L18.5451 15.6451C17.2146 16.8394 15.4898 17.5 13.702 17.5H9C7.48122 17.5 6.25 18.7312 6.25 20.25V27.75C6.25 29.2688 7.48122 30.5 9 30.5H13.702C15.4898 30.5 17.2146 31.1606 18.5451 32.3549L25.5 38.5981V9.40183Z" fill="#212121"/>
</svg>
