<svg width="24" height="24" viewBox="0 0 24 24" fill="none" xmlns="http://www.w3.org/2000/svg">
<path d="M11.75 15C12.9926 15 14 16.0074 14 17.25C14 18.4409 13.0748 19.4156 11.904 19.4948L11.75 19.5H11V21.25C11 21.6297 10.7178 21.9435 10.3518 21.9932L10.25 22C9.8703 22 9.55651 21.7178 9.50685 21.3518L9.5 21.25V15.75C9.5 15.3703 9.78215 15.0565 10.1482 15.0068L10.25 15H11.75ZM18 15C19.1046 15 20 15.8954 20 17C20 17.4142 19.6642 17.75 19.25 17.75C18.8703 17.75 18.5565 17.4678 18.5068 17.1018L18.5 17C18.5 16.7545 18.3231 16.5504 18.0899 16.5081L18 16.5H17.375C17.0298 16.5 16.75 16.7798 16.75 17.125C16.75 17.4388 16.9813 17.6986 17.2826 17.7432L17.375 17.75H17.875C19.0486 17.75 20 18.7014 20 19.875C20 20.9976 19.1295 21.9169 18.0268 21.9947L17.875 22H17.25C16.1454 22 15.25 21.1046 15.25 20C15.25 19.5858 15.5858 19.25 16 19.25C16.3797 19.25 16.6935 19.5322 16.7432 19.8982L16.75 20C16.75 20.2455 16.9269 20.4496 17.1601 20.4919L17.25 20.5H17.875C18.2202 20.5 18.5 20.2202 18.5 19.875C18.5 19.5612 18.2687 19.3014 17.9674 19.2568L17.875 19.25H17.375C16.2014 19.25 15.25 18.2986 15.25 17.125C15.25 16.0024 16.1205 15.0831 17.2232 15.0053L17.375 15H18ZM7.75 15C8.16421 15 8.5 15.3358 8.5 15.75C8.5 16.1297 8.21785 16.4435 7.85177 16.4932L7.75 16.5L5.5 16.4991V18.0021L7.25 18.0028C7.66421 18.0028 8 18.3386 8 18.7528C8 19.1325 7.71785 19.4463 7.35177 19.496L7.25 19.5028L5.5 19.5021V21.2312C5.5 21.6109 5.21785 21.9247 4.85177 21.9744L4.75 21.9812C4.3703 21.9812 4.05651 21.6991 4.00685 21.333L4 21.2312V15.75C4 15.3703 4.28215 15.0565 4.64823 15.0068L4.75 15H7.75ZM11.75 16.5H11V18H11.75C12.1642 18 12.5 17.6642 12.5 17.25C12.5 16.8703 12.2178 16.5565 11.8518 16.5068L11.75 16.5ZM5 3C6.65685 3 8 4.34315 8 6L7.9982 6.10488L8 6.15469V10C8 11.5977 6.75108 12.9037 5.17627 12.9949L5 13H4.75139C3.23184 13 2 11.7682 2 10.2486C2 9.69633 2.44772 9.24861 3 9.24861C3.51284 9.24861 3.93551 9.63465 3.99327 10.132L4 10.2486C4 10.629 4.28268 10.9434 4.64943 10.9931L4.75139 11H5C5.51284 11 5.93551 10.614 5.99327 10.1166L6 10L5.99991 8.82933C5.68716 8.93986 5.3506 9 5 9C3.34315 9 2 7.65685 2 6C2 4.34315 3.34315 3 5 3ZM12.2512 3C13.7708 3 15.0026 4.23184 15.0026 5.75139C15.0026 6.30367 14.5549 6.75139 14.0026 6.75139C13.4898 6.75139 13.0671 6.36535 13.0093 5.86801L13.0026 5.75139C13.0026 5.37099 12.7199 5.05661 12.3532 5.00686L12.2512 5H12.0026C11.4898 5 11.0671 5.38604 11.0093 5.88338L11.0026 6L11.0027 7.17067C11.3154 7.06014 11.652 7 12.0026 7C13.6594 7 15.0026 8.34315 15.0026 10C15.0026 11.6569 13.6594 13 12.0026 13C10.3457 13 9.00259 11.6569 9.00259 10L9.00441 9.89453L9.00259 9.84531V6C9.00259 4.40232 10.2515 3.09634 11.8263 3.00509L12.0026 3H12.2512ZM19 3C20.5977 3 21.9037 4.24892 21.9949 5.82373L22 6V10C22 11.6569 20.6569 13 19 13C17.4023 13 16.0963 11.7511 16.0051 10.1763L16 10V6C16 4.34315 17.3431 3 19 3ZM12.0026 9C11.4503 9 11.0026 9.44772 11.0026 10C11.0026 10.5523 11.4503 11 12.0026 11C12.5549 11 13.0026 10.5523 13.0026 10C13.0026 9.44772 12.5549 9 12.0026 9ZM19 5C18.4872 5 18.0645 5.38604 18.0067 5.88338L18 6V10C18 10.5523 18.4477 11 19 11C19.5128 11 19.9355 10.614 19.9933 10.1166L20 10V6C20 5.44772 19.5523 5 19 5ZM5 5C4.44772 5 4 5.44772 4 6C4 6.55228 4.44772 7 5 7C5.55228 7 6 6.55228 6 6C6 5.44772 5.55228 5 5 5Z" fill="#212121"/>
</svg>
