<svg width="16" height="16" viewBox="0 0 16 16" fill="none" xmlns="http://www.w3.org/2000/svg">
<path d="M8.99942 14C12.8654 14 15.9994 10.866 15.9994 7C15.9994 3.13401 12.8654 0 8.99942 0C5.47295 0 2.55554 2.60771 2.07031 6H5.99942C6.76778 6 7.46867 6.28885 7.99942 6.76389V3.5C7.99942 3.22386 8.22328 3 8.49942 3C8.77557 3 8.99942 3.22386 8.99942 3.5V7H11.4994C11.7756 7 11.9994 7.22386 11.9994 7.5C11.9994 7.77614 11.7756 8 11.4994 8H8.82872C8.93927 8.31278 8.99942 8.64936 8.99942 9V14ZM0 9C0 7.89543 0.895431 7 2 7H6C7.10457 7 8 7.89543 8 9V14C8 15.1046 7.10457 16 6 16H2C0.895431 16 0 15.1046 0 14V9ZM5.5 9H2.5C2.22386 9 2 9.22386 2 9.5C2 9.77614 2.22386 10 2.5 10H5.5C5.77614 10 6 9.77614 6 9.5C6 9.22386 5.77614 9 5.5 9ZM5.5 11H2.5C2.22386 11 2 11.2239 2 11.5C2 11.7761 2.22386 12 2.5 12H5.5C5.77614 12 6 11.7761 6 11.5C6 11.2239 5.77614 11 5.5 11ZM5.5 13H2.5C2.22386 13 2 13.2239 2 13.5C2 13.7761 2.22386 14 2.5 14H5.5C5.77614 14 6 13.7761 6 13.5C6 13.2239 5.77614 13 5.5 13Z" fill="#212121"/>
</svg>
