<svg width="28" height="28" viewBox="0 0 28 28" fill="none" xmlns="http://www.w3.org/2000/svg">
<path d="M2.21973 2.21973C2.51262 1.92684 2.98738 1.92684 3.28027 2.21973L25.7803 24.7197C26.0728 25.0126 26.0729 25.4875 25.7803 25.7803C25.4875 26.0731 25.0126 26.0728 24.7197 25.7803L21.9355 22.9961C19.8201 24.8637 17.0438 26 14 26C7.37258 26 2 20.6274 2 14C2 10.9562 3.13444 8.17809 5.00195 6.0625L2.21973 3.28027C1.92684 2.98738 1.92684 2.51262 2.21973 2.21973ZM10.1426 14C8.95933 14.0002 8.00015 14.9593 8 16.1426C8 19.3569 10.6863 21.5 14 21.5C15.8548 21.5 17.5101 20.8261 18.6104 19.6709L12.9395 14H10.1426ZM14 2C20.6274 2 26 7.37258 26 14C26 16.5013 25.233 18.8227 23.9238 20.7451L19.9619 16.7832C19.9861 16.5748 20 16.3612 20 16.1426C19.9998 14.9593 19.0407 14.0002 17.8574 14H17.1787L15.374 12.1953C16.482 11.6775 17.25 10.5537 17.25 9.25C17.25 7.45507 15.7949 6 14 6C12.6964 6 11.5716 6.76724 11.0537 7.875L7.25391 4.0752C9.17638 2.76591 11.4986 2 14 2Z" fill="#212121"/>
</svg>
