<svg width="16" height="16" viewBox="0 0 16 16" fill="none" xmlns="http://www.w3.org/2000/svg">
<path d="M6.75079 2C6.33658 2 6.00079 2.33579 6.00079 2.75V10.25C6.00079 10.6642 6.33658 11 6.75079 11C7.16501 11 7.50079 10.6642 7.50079 10.25V7.5H9.25079C10.7696 7.5 12.0008 6.26878 12.0008 4.75C12.0008 3.23122 10.7696 2 9.25079 2H6.75079ZM9.25079 6H7.50079V3.5H9.25079C9.94115 3.5 10.5008 4.05964 10.5008 4.75C10.5008 5.44036 9.94115 6 9.25079 6ZM4.80078 12.55C4.38657 12.55 4.05078 12.8858 4.05078 13.3C4.05078 13.7142 4.38657 14.05 4.80078 14.05H11.3008C11.715 14.05 12.0508 13.7142 12.0508 13.3C12.0508 12.8858 11.715 12.55 11.3008 12.55H4.80078Z" fill="#212121"/>
</svg>
