<svg width="16" height="16" viewBox="0 0 16 16" fill="none" xmlns="http://www.w3.org/2000/svg">
<path d="M6.25032 2.50004C6.25034 2.08582 5.91457 1.75002 5.50036 1.75C5.08614 1.74998 4.75034 2.08575 4.75032 2.49996L4.75018 5.17499C4.75007 7.43451 7.10004 8.92673 9.14498 7.96567L9.75 7.68133V10.5C9.75 10.9142 10.0858 11.25 10.5 11.25C10.9142 11.25 11.25 10.9142 11.25 10.5V2.5C11.25 2.08579 10.9142 1.75 10.5 1.75C10.0858 1.75 9.75 2.08579 9.75 2.5V6.02393L8.50697 6.60812C7.45686 7.10163 6.25012 6.33536 6.25018 5.17507L6.25032 2.50004Z" fill="#212121"/>
<path d="M4.04999 13.3C4.04999 12.8858 4.38577 12.55 4.79999 12.55H11.3C11.7142 12.55 12.05 12.8858 12.05 13.3C12.05 13.7142 11.7142 14.05 11.3 14.05H4.79999C4.38577 14.05 4.04999 13.7142 4.04999 13.3Z" fill="#212121"/>
</svg>
