<svg width="16" height="16" viewBox="0 0 16 16" fill="none" xmlns="http://www.w3.org/2000/svg">
<path d="M11.3352 2.06447L11.4116 2.21703L11.9881 3.75001C12.0333 3.87074 12.1286 3.96599 12.2493 4.01128L13.7294 4.56656C14.3789 4.81023 14.7279 5.50427 14.5549 6.16092L14.5132 6.29161L13.8246 7.81443C13.7713 7.93182 13.7713 8.06654 13.8246 8.18393L14.4786 9.62313C14.7655 10.2547 14.5216 10.9923 13.9349 11.3342L13.7823 11.4106L12.2493 11.9871C12.1286 12.0324 12.0333 12.1276 11.9881 12.2483L11.4328 13.7284C11.1891 14.3779 10.4951 14.7269 9.83842 14.5539L9.70773 14.5122L8.1849 13.8237C8.06751 13.7703 7.9328 13.7703 7.81541 13.8237L6.3762 14.4776C5.74463 14.7646 5.00708 14.5206 4.66513 13.9339L4.58871 13.7813L4.01226 12.2483C3.96697 12.1276 3.87171 12.0324 3.75099 11.9871L2.27092 11.4318C1.62141 11.1881 1.27239 10.4941 1.44546 9.83744L1.48711 9.70675L2.17567 8.18393C2.22901 8.06654 2.22901 7.93182 2.17567 7.81443L1.52174 6.37523C1.23477 5.74366 1.47874 5.0061 2.06544 4.66416L2.21801 4.58774L3.75099 4.01128C3.87171 3.96599 3.96697 3.87074 4.01226 3.75001L4.56753 2.26994C4.81121 1.62044 5.50524 1.27141 6.1619 1.44449L6.29259 1.48613L7.81541 2.1747C7.9328 2.22803 8.06751 2.22803 8.1849 2.1747L9.62411 1.52076C10.2557 1.2338 10.9932 1.47776 11.3352 2.06447ZM5.40382 2.58369L4.84855 4.06376C4.71267 4.42593 4.4269 4.7117 4.06474 4.84757L2.58466 5.40284L2.48668 5.45415C2.31265 5.57476 2.24424 5.80613 2.33494 6.00573L2.98887 7.44494C3.14888 7.79711 3.14888 8.20125 2.98887 8.55342L2.32893 10.0065L2.30193 10.0982C2.26416 10.3065 2.37939 10.5185 2.58466 10.5955L4.06474 11.1508C4.4269 11.2867 4.71267 11.5724 4.84855 11.9346L5.40382 13.4147L5.45513 13.5127C5.57574 13.6867 5.8071 13.7551 6.00671 13.6644L7.44592 13.0105C7.79809 12.8505 8.20223 12.8505 8.55439 13.0105L10.0074 13.6704L10.0992 13.6974C10.3075 13.7352 10.5195 13.6199 10.5965 13.4147L11.1518 11.9346C11.2876 11.5724 11.5734 11.2867 11.9356 11.1508L13.4157 10.5955L13.5136 10.5442C13.6877 10.4236 13.7561 10.1922 13.6654 9.99263L13.0114 8.55342C12.8514 8.20125 12.8514 7.79711 13.0114 7.44494L13.6714 5.9919L13.6984 5.90017C13.7362 5.69183 13.6209 5.47986 13.4157 5.40284L11.9356 4.84757C11.5734 4.7117 11.2876 4.42593 11.1518 4.06376L10.5965 2.58369L10.5452 2.4857C10.4246 2.31167 10.1932 2.24327 9.9936 2.33396L8.55439 2.98789C8.20223 3.14791 7.79809 3.14791 7.44592 2.98789L6.00671 2.33396L5.97884 2.32242C5.7479 2.23578 5.49046 2.35275 5.40382 2.58369ZM6.9784 9.34584L10.1641 5.70509C10.3265 5.51947 10.6086 5.50066 10.7942 5.66308C10.9567 5.8052 10.9914 6.03898 10.8887 6.21956L10.8363 6.29327L7.33626 10.2933C7.1874 10.4634 6.9398 10.4923 6.75784 10.3745L6.68436 10.315L5.18436 8.81498C5.00995 8.64057 5.00995 8.35779 5.18436 8.18338C5.33697 8.03078 5.57254 8.0117 5.74589 8.12616L5.81595 8.18338L6.9784 9.34584L10.1641 5.70509L6.9784 9.34584Z" fill="#212121"/>
</svg>
