<svg width="48" height="48" viewBox="0 0 48 48" fill="none" xmlns="http://www.w3.org/2000/svg">
<path d="M14.0219 7.81546C14.2396 5.67237 16.0495 4 18.25 4H29.75C32.0972 4 34 5.90279 34 8.25V39.75C34 42.0972 32.0972 44 29.75 44H18.25C15.9028 44 14 42.0972 14 39.75V8.25C14 8.1033 14.0074 7.95833 14.0219 7.81546ZM16.5 10.25V12.75H20.75C21.4404 12.75 22 12.1904 22 11.5C22 10.8096 21.4404 10.25 20.75 10.25H16.5ZM16.5 16.5V19H24.75C25.4404 19 26 18.4404 26 17.75C26 17.0596 25.4404 16.5 24.75 16.5H16.5ZM16.5 22.75V25.25H20.75C21.4404 25.25 22 24.6904 22 24C22 23.3096 21.4404 22.75 20.75 22.75H16.5ZM16.5 29V31.5H24.75C25.4404 31.5 26 30.9404 26 30.25C26 29.5596 25.4404 29 24.75 29H16.5ZM16.5 35.25V37.75H20.75C21.4404 37.75 22 37.1904 22 36.5C22 35.8096 21.4404 35.25 20.75 35.25H16.5Z" fill="#212121"/>
</svg>
