<svg width="28" height="28" viewBox="0 0 28 28" fill="none" xmlns="http://www.w3.org/2000/svg">
<path d="M9.00074 2.62797C9.47611 2.23566 10.0855 2 10.75 2H17.25C18.7688 2 20 3.23122 20 4.75V23.2497C20 24.7684 18.7688 26 17.25 26H10.75C9.23122 26 8 24.7688 8 23.25V4.75C8 4.75 8 4.75 8 4.75C8 4.34653 8.08689 3.96334 8.24298 3.61815C8.4174 3.23243 8.67821 2.89414 9.00074 2.62797ZM9.5 5.75V7.25H12.25C12.6642 7.25 13 6.91421 13 6.5C13 6.08579 12.6642 5.75 12.25 5.75H9.5ZM9.5 9.5V11H14.25C14.6642 11 15 10.6642 15 10.25C15 9.83579 14.6642 9.5 14.25 9.5H9.5ZM9.5 13.25V14.75H12.25C12.6642 14.75 13 14.4142 13 14C13 13.5858 12.6642 13.25 12.25 13.25H9.5ZM9.5 17V18.5H14.25C14.6642 18.5 15 18.1642 15 17.75C15 17.3358 14.6642 17 14.25 17H9.5ZM9.5 20.75V22.25H12.25C12.6642 22.25 13 21.9142 13 21.5C13 21.0858 12.6642 20.75 12.25 20.75H9.5Z" fill="#212121"/>
</svg>
