<svg width="32" height="32" viewBox="0 0 32 32" fill="none" xmlns="http://www.w3.org/2000/svg">
<path d="M9 5.5C9 3.567 10.567 2 12.5 2H19.5C21.433 2 23 3.567 23 5.5V26.5C23 28.433 21.433 30 19.5 30H12.5C12.2584 30 12.0225 29.9755 11.7946 29.9289C10.1997 29.6025 9 28.1914 9 26.5V5.5ZM11 6V8H14C14.5523 8 15 7.55228 15 7C15 6.44772 14.5523 6 14 6H11ZM11 10.5V12.5H16C16.5523 12.5 17 12.0523 17 11.5C17 10.9477 16.5523 10.5 16 10.5H11ZM11 15V17H14C14.5523 17 15 16.5523 15 16C15 15.4477 14.5523 15 14 15H11ZM11 19.5V21.5H16C16.5523 21.5 17 21.0523 17 20.5C17 19.9477 16.5523 19.5 16 19.5H11ZM11 24V26H14C14.5523 26 15 25.5523 15 25C15 24.4477 14.5523 24 14 24H11Z" fill="#212121"/>
</svg>
