<svg width="20" height="20" viewBox="0 0 20 20" fill="none" xmlns="http://www.w3.org/2000/svg">
<path d="M3.13076 9.16289C2.94455 9.36683 2.95895 9.68308 3.16293 9.86926C3.3669 10.0554 3.68322 10.041 3.86943 9.83711L9.50123 3.66925V17.5C9.50123 17.7761 9.72513 18 10.0013 18C10.2775 18 10.5014 17.7761 10.5014 17.5V3.67214L16.1306 9.83711C16.3168 10.041 16.6331 10.0554 16.8371 9.86926C17.0411 9.68308 17.0555 9.36683 16.8692 9.16289L10.554 2.24654C10.4262 2.10659 10.2586 2.02676 10.0855 2.00705C10.0581 2.00241 10.03 2 10.0013 2C9.97444 2 9.94806 2.00212 9.92234 2.0062C9.7464 2.02437 9.5757 2.10449 9.446 2.24654L3.13076 9.16289Z" fill="#212121"/>
</svg>
