<svg width="16" height="16" viewBox="0 0 16 16" fill="none" xmlns="http://www.w3.org/2000/svg">
<path d="M7.5 13.5C7.5 13.7761 7.72386 14 8 14C8.27614 14 8.5 13.7761 8.5 13.5V3.80298L12.1284 7.83448C12.3131 8.03974 12.6292 8.05638 12.8345 7.87165C13.0397 7.68692 13.0564 7.37077 12.8716 7.16552L8.37165 2.16552C8.27683 2.06016 8.14174 2 8 2C7.85826 2 7.72317 2.06016 7.62835 2.16552L3.12836 7.16552C2.94363 7.37077 2.96027 7.68692 3.16552 7.87165C3.37078 8.05638 3.68692 8.03974 3.87165 7.83448L7.5 3.80298V13.5Z" fill="#212121"/>
</svg>
