<svg width="32" height="32" viewBox="0 0 32 32" fill="none" xmlns="http://www.w3.org/2000/svg">
<path d="M17 29C16.3096 29 15.75 28.4404 15.75 27.75V7.2132L8.12233 14.6453C7.62788 15.1271 6.83649 15.1168 6.35472 14.6223C5.87294 14.1279 5.88322 13.3365 6.37767 12.8547L16.1247 3.35765C16.3672 3.11956 16.6834 3.00002 17 3C17.3166 3.00002 17.6329 3.1196 17.8755 3.35776L27.6223 12.8547C28.1168 13.3365 28.1271 14.1279 27.6453 14.6223C27.1635 15.1168 26.3721 15.1271 25.8777 14.6453L18.25 7.2132V27.75C18.25 28.4404 17.6904 29 17 29Z" fill="#212121"/>
</svg>
