<svg width="20" height="20" viewBox="0 0 20 20" fill="none" xmlns="http://www.w3.org/2000/svg">
<path d="M5.35328 4.52317C3.7357 4.88178 2.7151 6.48379 3.07371 8.10137L3.1621 8.50009H16.1776L15.4795 5.35108C15.1209 3.7335 13.5188 2.7129 11.9013 3.07151L5.35328 4.52317ZM4.52536 14.6494L3.82718 11.5001H16.8427L16.9311 11.8991C17.2897 13.5167 16.2691 15.1187 14.6516 15.4773L8.10357 16.929C6.48599 17.2876 4.88397 16.267 4.52536 14.6494ZM1 10C1 9.72386 1.22386 9.5 1.5 9.5H3.5C3.77614 9.5 4 9.72386 4 10C4 10.2761 3.77614 10.5 3.5 10.5H1.5C1.22386 10.5 1 10.2761 1 10ZM6 10C6 9.72386 6.22386 9.5 6.5 9.5H8.5C8.77614 9.5 9 9.72386 9 10C9 10.2761 8.77614 10.5 8.5 10.5H6.5C6.22386 10.5 6 10.2761 6 10ZM11.5 9.5C11.2239 9.5 11 9.72386 11 10C11 10.2761 11.2239 10.5 11.5 10.5H13.5C13.7761 10.5 14 10.2761 14 10C14 9.72386 13.7761 9.5 13.5 9.5H11.5ZM16 10C16 9.72386 16.2239 9.5 16.5 9.5H18.5C18.7761 9.5 19 9.72386 19 10C19 10.2761 18.7761 10.5 18.5 10.5H16.5C16.2239 10.5 16 10.2761 16 10Z" fill="#212121"/>
</svg>
