<svg width="24" height="24" viewBox="0 0 24 24" fill="none" xmlns="http://www.w3.org/2000/svg">
<path d="M8.25541 6.99986C9.22191 6.99986 10.0054 7.78336 10.0054 8.74986V18.25C10.0054 19.2165 9.22191 20 8.25541 20H3.75098C2.78448 20 2.00098 19.2165 2.00098 18.25V8.74986C2.00098 7.78336 2.78448 6.99986 3.75098 6.99986H8.25541ZM6.25319 16.4952H5.75319L5.65142 16.502C5.28535 16.5517 5.00319 16.8655 5.00319 17.2452C5.00319 17.6249 5.28535 17.9387 5.65142 17.9883L5.75319 17.9952H6.25319L6.35497 17.9883C6.72104 17.9387 7.00319 17.6249 7.00319 17.2452C7.00319 16.8655 6.72104 16.5517 6.35497 16.502L6.25319 16.4952ZM19.7504 4C20.9412 4 21.916 4.92516 21.9952 6.09595L22.0004 6.25V14.75C22.0004 15.9409 21.0752 16.9156 19.9044 16.9948L19.7504 17H11L11.0004 8.5C11.0004 7.17452 9.96881 6.08996 8.66473 6.00532L8.50035 6L6.01404 6.00044C6.13228 4.92882 7.0031 4.08392 8.08634 4.00589L8.25035 4H19.7504ZM15.2504 13.5H12.7504C12.3361 13.5 12.0004 13.8358 12.0004 14.25C12.0004 14.6297 12.2825 14.9435 12.6486 14.9932L12.7504 15H15.2504C15.6646 15 16.0004 14.6642 16.0004 14.25C16.0004 13.8703 15.7182 13.5565 15.3521 13.5068L15.2504 13.5Z" fill="#212121"/>
</svg>
