<svg width="24" height="24" viewBox="0 0 24 24" fill="none" xmlns="http://www.w3.org/2000/svg">
<path fill-rule="evenodd" clip-rule="evenodd" d="M4.5 4C4.22386 4 4 4.22386 4 4.5V8C4 8.55228 3.55228 9 3 9C2.44772 9 2 8.55228 2 8V4.5C2 3.11929 3.11929 2 4.5 2H8C8.55228 2 9 2.44772 9 3C9 3.55228 8.55228 4 8 4H4.5ZM15 3C15 2.44772 15.4477 2 16 2H19.5C20.8807 2 22 3.11929 22 4.5V8C22 8.55228 21.5523 9 21 9C20.4477 9 20 8.55228 20 8V4.5C20 4.22386 19.7761 4 19.5 4H16C15.4477 4 15 3.55228 15 3ZM3 15C3.55228 15 4 15.4477 4 16V19.5C4 19.7761 4.22386 20 4.5 20H8C8.55228 20 9 20.4477 9 21C9 21.5523 8.55228 22 8 22H4.5C3.11929 22 2 20.8807 2 19.5V16C2 15.4477 2.44772 15 3 15ZM21 15C21.5523 15 22 15.4477 22 16V19.5C22 20.8807 20.8807 22 19.5 22H16C15.4477 22 15 21.5523 15 21C15 20.4477 15.4477 20 16 20H19.5C19.7761 20 20 19.7761 20 19.5V16C20 15.4477 20.4477 15 21 15Z" fill="url(#paint0_linear_378174_9580)"/>
<path d="M12 15C13.6569 15 15 13.6569 15 12C15 10.3431 13.6569 9 12 9C10.3431 9 9 10.3431 9 12C9 13.6569 10.3431 15 12 15ZM7.5 8.75C8.19036 8.75 8.75 8.19036 8.75 7.5C8.75 6.80964 8.19036 6.25 7.5 6.25C6.80964 6.25 6.25 6.80964 6.25 7.5C6.25 8.19036 6.80964 8.75 7.5 8.75Z" fill="url(#paint1_radial_378174_9580)"/>
<defs>
<linearGradient id="paint0_linear_378174_9580" x1="1.21032" y1="0.325396" x2="16.8929" y2="25.6587" gradientUnits="userSpaceOnUse">
<stop offset="0.0152387" stop-color="#3DCBFF"/>
<stop offset="1" stop-color="#0094F0"/>
</linearGradient>
<radialGradient id="paint1_radial_378174_9580" cx="0" cy="0" r="1" gradientUnits="userSpaceOnUse" gradientTransform="translate(8.98438 8.4375) rotate(48.0128) scale(7.35745 6.30132)">
<stop stop-color="#0FAFFF"/>
<stop offset="1" stop-color="#2052CB"/>
</radialGradient>
</defs>
</svg>
