<svg width="24" height="24" viewBox="0 0 24 24" fill="none" xmlns="http://www.w3.org/2000/svg">
<path d="M3 6.5C3 4.567 4.567 3 6.5 3H9C9.55228 3 10 3.44772 10 4C10 4.55228 9.55228 5 9 5H6.5C5.67157 5 5 5.67157 5 6.5V9C5 9.55229 4.55228 10 4 10C3.44772 10 3 9.55229 3 9V6.5Z" fill="#212121"/>
<path d="M21 17.5C21 19.433 19.433 21 17.5 21H15C14.4477 21 14 20.5523 14 20C14 19.4477 14.4477 19 15 19L17.5 19C18.3284 19 19 18.3284 19 17.5V15C19 14.4477 19.4477 14 20 14C20.5523 14 21 14.4477 21 15V17.5Z" fill="#212121"/>
<path d="M21 6.5C21 4.567 19.433 3 17.5 3H15C14.4477 3 14 3.44772 14 4C14 4.55228 14.4477 5 15 5H17.5C18.3284 5 19 5.67157 19 6.5V9C19 9.55228 19.4477 10 20 10C20.5523 10 21 9.55229 21 9V6.5Z" fill="#212121"/>
<path d="M6.5 21C4.567 21 3 19.433 3 17.5V15C3 14.4477 3.44772 14 4 14C4.55229 14 5 14.4477 5 15L5 17.5C5 18.3284 5.67157 19 6.5 19H9C9.55229 19 10 19.4477 10 20C10 20.5523 9.55228 21 9 21H6.5Z" fill="#212121"/>
<path d="M12 15C13.6569 15 15 13.6569 15 12C15 10.3431 13.6569 9 12 9C10.3431 9 9 10.3431 9 12C9 13.6569 10.3431 15 12 15Z" fill="#212121"/>
<path d="M7.5 8.75C8.19036 8.75 8.75 8.19036 8.75 7.5C8.75 6.80964 8.19036 6.25 7.5 6.25C6.80964 6.25 6.25 6.80964 6.25 7.5C6.25 8.19036 6.80964 8.75 7.5 8.75Z" fill="#212121"/>
</svg>
