<svg width="32" height="32" viewBox="0 0 32 32" fill="none" xmlns="http://www.w3.org/2000/svg">
<path d="M3 6.25C3 4.45507 4.45507 3 6.25 3H25.75C27.5449 3 29 4.45507 29 6.25V10.75C29 12.5449 27.5449 14 25.75 14H9V20.5C9 21.8807 10.1193 23 11.5 23H16V21.25C16 19.4551 17.4551 18 19.25 18H25.75C27.5449 18 29 19.4551 29 21.25V25.75C29 27.5449 27.5449 29 25.75 29H19.25C17.4551 29 16 27.5449 16 25.75V25H11.5C9.01472 25 7 22.9853 7 20.5V14H6.25C4.45507 14 3 12.5449 3 10.75V6.25Z" fill="#212121"/>
</svg>
