<svg width="28" height="28" viewBox="0 0 28 28" fill="none" xmlns="http://www.w3.org/2000/svg">
<path d="M13 3V12.25C13 12.6642 12.6642 13 12.25 13C11.8358 13 11.5 12.6642 11.5 12.25V4.5C11.5 3.94772 11.0523 3.5 10.5 3.5C9.94772 3.5 9.5 3.94772 9.5 4.5V12.75C9.5 13.1642 9.16421 13.5 8.75 13.5C8.33579 13.5 8 13.1642 8 12.75V6.99738C8 6.44509 7.55228 5.99738 7 5.99738C6.44772 5.99738 6 6.44509 6 6.99738V17.25C6 19.7689 6.98233 22.5449 7.6438 24.1393C8.13056 25.3125 9.28272 25.9972 10.4988 25.9972H14.0944C15.3307 25.9972 16.4599 25.2959 17.0078 24.1877L17.7035 22.7807C17.9959 22.1891 18.3399 21.6245 18.7313 21.0932L21.5208 17.3076L24.1527 15.6327C24.369 15.4951 24.5 15.2564 24.5 15C24.5 14.5128 24.286 14.111 23.9511 13.8307C23.6405 13.5707 23.2524 13.4341 22.8853 13.3642C22.152 13.2246 21.263 13.3054 20.4683 13.5249C19.746 13.7074 19.0454 14.0488 18.5 14.3614V4.5C18.5 3.94772 18.0523 3.5 17.5 3.5C16.9477 3.5 16.5 3.94772 16.5 4.5V12.25C16.5 12.6642 16.1642 13 15.75 13C15.3358 13 15 12.6642 15 12.25V3C15 2.44772 14.5523 2 14 2C13.4477 2 13 2.44772 13 3Z" fill="#212121"/>
</svg>
