<svg width="48" height="48" viewBox="0 0 48 48" fill="none" xmlns="http://www.w3.org/2000/svg">
<path d="M6 12C6 8.68629 8.68629 6 12 6H36C39.3137 6 42 8.68629 42 12V36C42 39.3137 39.3137 42 36 42H12C8.68629 42 6 39.3137 6 36V12ZM34 15.25C34 14.5596 33.4404 14 32.75 14C32.0596 14 31.5 14.5596 31.5 15.25V32.75C31.5 33.4404 32.0596 34 32.75 34C33.4404 34 34 33.4404 34 32.75V15.25ZM24 24C23.3096 24 22.75 24.5596 22.75 25.25V32.75C22.75 33.4404 23.3096 34 24 34C24.6904 34 25.25 33.4404 25.25 32.75V25.25C25.25 24.5596 24.6904 24 24 24ZM16.5 20.25C16.5 19.5596 15.9404 19 15.25 19C14.5596 19 14 19.5596 14 20.25V32.75C14 33.4404 14.5596 34 15.25 34C15.9404 34 16.5 33.4404 16.5 32.75V20.25Z" fill="#212121"/>
</svg>
