<?xml version="1.0" encoding="UTF-8"?>
<svg width="48px" height="48px" viewBox="0 0 48 48" version="1.1" xmlns="http://www.w3.org/2000/svg" xmlns:xlink="http://www.w3.org/1999/xlink">
    <!-- Generator: Sketch 59.1 (86144) - https://sketch.com -->
    <title>ic_weather_moon_48_regular</title>
    <desc>Created with Sketch.</desc>
    <g id="ðŸ”-Product-Icons" stroke="none" stroke-width="1" fill="none" fill-rule="evenodd">
        <g id="ic_weather_moon_48_regular" fill="#212121">
            <path d="M9.66862399,33.0089622 C14.6391867,41.6182294 25.647814,44.5679822 34.2570813,39.5974194 C36.6016136,38.243803 38.5753268,36.4126078 40.0785961,34.229664 C40.5811964,33.4998226 40.256086,32.4918794 39.421758,32.193262 C32.6414364,29.766492 29.0099482,26.9542522 26.9026684,22.9317305 C24.6842213,18.6970048 24.110919,14.0582926 25.662851,7.69987534 C25.8774494,6.82064469 25.1829812,5.98348115 24.27924,6.03196802 C21.4771404,6.18230425 18.739608,6.98721743 16.2570813,8.42050489 C7.64781404,13.3910676 4.69806124,24.3996949 9.66862399,33.0089622 Z M24.6881449,24.0918536 C26.9913881,28.4884439 30.80035,31.5226926 37.1145781,33.998575 C35.9639388,35.3646621 34.5800621,36.524195 33.0070813,37.4323559 C25.5935456,41.7125627 16.1138943,39.1724978 11.8336875,31.7589622 C7.55348069,24.3454265 10.0935456,14.8657752 17.5070813,10.5855684 C19.0445047,9.69793654 20.6992772,9.08707059 22.4136896,8.76727896 L22.882692,8.68729053 C21.6894389,14.6550319 22.2911719,19.5163454 24.6881449,24.0918536 Z" id="ðŸŽ¨-Color"></path>
        </g>
    </g>
</svg>