<svg width="20" height="20" viewBox="0 0 20 20" fill="none" xmlns="http://www.w3.org/2000/svg">
<path d="M14.5 1C14.7761 1 15 1.22249 15 1.49695C15 1.95977 15.0728 2.71603 15.4724 3.34309C15.8472 3.93128 16.5548 4.47864 18 4.47864C18.2761 4.47864 18.5 4.70113 18.5 4.97559C18.5 5.25005 18.2761 5.47254 18 5.47254C17.6313 5.47254 16.8605 5.69568 16.1792 6.21479C15.5166 6.71969 15 7.45626 15 8.45423C15 8.72869 14.7761 8.95118 14.5 8.95118C14.2239 8.95118 14 8.72869 14 8.45423C14 7.95398 13.8449 7.19255 13.3942 6.57045C12.9619 5.9737 12.237 5.47254 11 5.47254C10.7239 5.47254 10.5 5.25005 10.5 4.97559C10.5 4.70113 10.7239 4.47864 11 4.47864C11.5117 4.47864 12.2548 4.46995 12.8731 4.11151C13.4369 3.78463 14 3.10052 14 1.49695C14 1.22249 14.2239 1 14.5 1ZM14.5407 3.73083C14.2519 4.29806 13.8457 4.69826 13.3769 4.97002C13.3225 5.00157 13.2676 5.03114 13.2124 5.05886C13.6205 5.31307 13.9485 5.63454 14.2058 5.98971C14.3355 6.16884 14.4463 6.35502 14.5403 6.54349C14.8205 6.09213 15.1846 5.7203 15.5708 5.42602C15.7275 5.30658 15.8902 5.19815 16.0551 5.10088C15.4081 4.81114 14.9462 4.37486 14.6276 3.87488C14.5972 3.82719 14.5683 3.77914 14.5407 3.73083ZM7.28497 10.5305C6.20052 9.71384 5.5 8.41992 5.5 6.96339C5.5 4.49327 7.51472 2.49085 10 2.49085C10.9004 2.49085 11.739 2.75366 12.4424 3.20631C12.5523 3.12912 12.6623 3.01651 12.7568 2.83198C12.8179 2.71291 12.8787 2.5512 12.9243 2.33282C12.0772 1.80326 11.0746 1.49695 10 1.49695C6.96243 1.49695 4.5 3.94436 4.5 6.96339C4.5 8.62884 5.24936 10.1203 6.43125 11.123L5.2132 15.5619C5.04297 16.1823 5.28959 16.9067 5.95272 17.2015C7.59046 17.9294 10.6038 18.5535 13.9223 17.2107C14.6336 16.9229 14.9439 16.1466 14.7372 15.4619L13.4789 11.2931C13.4713 11.2678 13.4618 11.2435 13.4506 11.2204C13.9026 10.8581 14.2956 10.4261 14.6133 9.94089C14.5759 9.94367 14.5381 9.94508 14.5 9.94508C14.1624 9.94508 13.8508 9.83423 13.6002 9.64714C12.7792 10.7333 11.4721 11.4359 10 11.4359C8.99373 11.4359 8.0646 11.1077 7.31511 10.553C7.30538 10.5451 7.29533 10.5376 7.28497 10.5305ZM12.5848 11.7898L13.7794 15.7475C13.8521 15.9885 13.7346 16.2136 13.5453 16.2902C10.5316 17.5096 7.80638 16.9366 6.36095 16.2942C6.21842 16.2308 6.11599 16.0493 6.17797 15.8234L7.30178 11.7279C8.09894 12.1748 9.01951 12.4298 10 12.4298C10.9343 12.4298 11.8142 12.1983 12.5848 11.7898Z" fill="#212121"/>
</svg>
