<svg width="20" height="20" viewBox="0 0 20 20" fill="none" xmlns="http://www.w3.org/2000/svg">
<path d="M10 2V6.5C10 7.32843 10.6716 8 11.5 8H16V16.5C16 17.3284 15.3284 18 14.5 18H10.95C10.9828 17.8384 11 17.6712 11 17.5V13.5C11 12.2758 10.12 11.2571 8.95812 11.0419C8.74294 9.87996 7.72423 9 6.5 9H4.5C4.32877 9 4.16156 9.01722 4 9.05001V3.5C4 2.67157 4.67157 2 5.5 2H10ZM11 2.25V6.5C11 6.77614 11.2239 7 11.5 7H15.75L11 2.25ZM3 11.5V12H2.5C1.67157 12 1 12.6716 1 13.5V17.5C1 18.3284 1.67157 19 2.5 19H8.5C9.32843 19 10 18.3284 10 17.5V13.5C10 12.6716 9.32843 12 8.5 12H8V11.5C8 10.6716 7.32843 10 6.5 10H4.5C3.67157 10 3 10.6716 3 11.5ZM4.5 11H6.5C6.77614 11 7 11.2239 7 11.5V12H4V11.5C4 11.2239 4.22386 11 4.5 11Z" fill="#212121"/>
</svg>
