<svg width="24" height="24" viewBox="0 0 24 24" fill="none" xmlns="http://www.w3.org/2000/svg">
<path d="M18.5 20C18.5 20.275 18.276 20.5 18 20.5H13V21.5C13 21.6712 12.9828 21.8384 12.95 22H18C19.104 22 20 21.104 20 20V9.828C20 9.298 19.789 8.789 19.414 8.414L13.585 2.586C13.57 2.57105 13.5531 2.55808 13.5363 2.5452C13.5238 2.53567 13.5115 2.5262 13.5 2.516C13.429 2.452 13.359 2.389 13.281 2.336C13.2557 2.31894 13.2281 2.30548 13.2005 2.29207C13.1845 2.28426 13.1685 2.27647 13.153 2.268C13.1363 2.25859 13.1197 2.24897 13.103 2.23933C13.0488 2.20797 12.9944 2.17648 12.937 2.152C12.74 2.07 12.528 2.029 12.313 2.014C12.2933 2.01274 12.2738 2.01008 12.2542 2.00741C12.2271 2.00371 12.1999 2 12.172 2H6C4.896 2 4 2.896 4 4V11.1035C4.23842 11.0361 4.48999 11 4.75 11H5.5V4C5.5 3.725 5.724 3.5 6 3.5H12V8C12 9.104 12.896 10 14 10H18.5V20ZM13.5 4.621L17.378 8.5H14C13.724 8.5 13.5 8.275 13.5 8V4.621ZM3 15.0001H2.5C1.67157 15.0001 1 15.6716 1 16.5001V21.5C1 22.3284 1.67157 23 2.5 23H10.5C11.3284 23 12 22.3284 12 21.5V16.5001C12 15.6716 11.3284 15.0001 10.5 15.0001H10V13.75C10 12.7835 9.21653 12 8.25003 12H4.75C3.7835 12 3 12.7835 3 13.75V15.0001ZM4.5 13.75C4.5 13.6119 4.61193 13.5 4.75 13.5H8.25003C8.3881 13.5 8.50002 13.6119 8.50002 13.75V15.0001H4.5V13.75Z" fill="#212121"/>
</svg>
