<svg width="28" height="28" viewBox="0 0 28 28" fill="none" xmlns="http://www.w3.org/2000/svg">
<path d="M24.25 4.5C24.6642 4.5 25 4.16421 25 3.75C25 3.33579 24.6642 3 24.25 3L3.75 3C3.33579 3 3 3.33579 3 3.75C3 4.16421 3.33579 4.5 3.75 4.5L24.25 4.5ZM3 17L3 12C3 11.4477 3.44772 11 4 11H9.5L9.5 17H3ZM3 21.25L3 18.5H9.5V25H6.75C4.67893 25 3 23.3211 3 21.25ZM17 25H11V18.5L17 18.5V25ZM21.25 25H18.5V18.5H25V21.25C25 23.3211 23.3211 25 21.25 25ZM24 11C24.5523 11 25 11.4477 25 12V17H18.5V11H24ZM11 17L17 17V11H15.75V12C15.75 12.9665 14.9665 13.75 14 13.75C13.0335 13.75 12.25 12.9665 12.25 12L12.25 11H11L11 17ZM15.7517 9.31056L14.75 8.42014L14.75 12C14.75 12.4142 14.4142 12.75 14 12.75C13.5858 12.75 13.25 12.4142 13.25 12L13.25 8.42013L12.2483 9.31056C11.9387 9.58575 11.4646 9.55786 11.1894 9.24827C10.9142 8.93869 10.9421 8.46463 11.2517 8.18944L13.5017 6.18944C13.7859 5.93685 14.2141 5.93685 14.4983 6.18944L16.7483 8.18944C17.0579 8.46463 17.0857 8.93869 16.8105 9.24827C16.5354 9.55786 16.0613 9.58575 15.7517 9.31056Z" fill="#212121"/>
</svg>
