<svg width="16" height="16" viewBox="0 0 16 16" fill="none" xmlns="http://www.w3.org/2000/svg">
<path d="M2.5 2C2.22386 2 2 2.22386 2 2.5C2 2.77614 2.22386 3 2.5 3H13.5C13.7761 3 14 2.77614 14 2.5C14 2.22386 13.7761 2 13.5 2L2.5 2ZM11.5 14C12.8807 14 14 12.8807 14 11.5V6.5C14 6.22386 13.7761 6 13.5 6H11C11 6.38388 10.8536 6.76777 10.5607 7.06066C10.3969 7.22441 10.2047 7.34238 10 7.41458L10 10H6L6 7.41458C5.79527 7.34238 5.60309 7.22441 5.43934 7.06066C5.14645 6.76777 5 6.38388 5 6H2.5C2.22386 6 2 6.22386 2 6.5L2 11.5C2 12.8807 3.11929 14 4.5 14H11.5ZM3 10L3 7H5L5 10H3ZM11 7H13V10H11V7ZM10 13H6L6 11H10L10 13ZM5 13H4.5C3.67157 13 3 12.3284 3 11.5V11L5 11V13ZM11 13L11 11H13V11.5C13 12.3284 12.3284 13 11.5 13H11ZM9.85355 6.35355C9.65829 6.54882 9.34171 6.54882 9.14645 6.35355L8.5 5.70711L8.5 7.49965C8.5 7.77579 8.27614 8 8 8C7.72386 8 7.5 7.77614 7.5 7.5L7.5 5.70711L6.85355 6.35355C6.65829 6.54882 6.34171 6.54882 6.14645 6.35355C5.95118 6.15829 5.95118 5.84171 6.14645 5.64645L7.64645 4.14645C7.84171 3.95118 8.15829 3.95118 8.35355 4.14645L9.85355 5.64645C10.0488 5.84171 10.0488 6.15829 9.85355 6.35355Z" fill="#212121"/>
</svg>
