<svg width="16" height="16" viewBox="0 0 16 16" fill="none" xmlns="http://www.w3.org/2000/svg">
<path d="M9.49999 3H10.5C12.433 3 14 4.567 14 6.5C14 6.75083 13.9736 6.99549 13.9235 7.23137C13.6769 6.89403 13.3615 6.61011 12.998 6.40022C12.9478 5.12046 11.9356 4.08783 10.6644 4.00532L10.5 4H9.49999C9.22386 4 8.99999 3.77614 8.99999 3.5C8.99999 3.25454 9.17687 3.05039 9.41012 3.00806L9.49999 3ZM9.26235 7.00173C9.65815 6.55882 10.1835 6.23414 10.7789 6.08723C10.6993 6.03364 10.6034 6.00234 10.5002 6.0023L5.50023 6L5.41035 6.00801C5.17708 6.05024 5.00011 6.25431 5 6.49977C4.99987 6.77591 5.22363 6.99987 5.49977 7L9.26235 7.00173ZM5.5 3H6.5C6.77614 3 7 3.22386 7 3.5C7 3.74546 6.82312 3.94961 6.58988 3.99194L6.5 4H5.5C4.11929 4 3 5.11929 3 6.5C3 7.82548 4.03154 8.91004 5.33562 8.99468L5.5 9H6.5C6.77614 9 7 9.22386 7 9.5C7 9.74546 6.82312 9.94961 6.58988 9.99194L6.5 10H5.5C3.567 10 2 8.433 2 6.5C2 4.63144 3.46428 3.10487 5.30796 3.00518L5.5 3ZM13.5 9C13.5 10.1046 12.6046 11 11.5 11C10.3954 11 9.5 10.1046 9.5 9C9.5 7.89543 10.3954 7 11.5 7C12.6046 7 13.5 7.89543 13.5 9ZM15 13.5C15 14.7452 14 16 11.5 16C9 16 8 14.7499 8 13.5C8 12.6716 8.67157 12 9.5 12H13.5C14.3284 12 15 12.6716 15 13.5Z" fill="#212121"/>
</svg>
