<svg width="20" height="20" viewBox="0 0 20 20" fill="none" xmlns="http://www.w3.org/2000/svg">
<path d="M5.5 7C5.22386 7 5 7.22386 5 7.5C5 7.77614 5.22386 8 5.5 8H9.5C9.77614 8 10 7.77614 10 7.5C10 7.22386 9.77614 7 9.5 7H5.5ZM5.5 9.5C5.22386 9.5 5 9.72386 5 10C5 10.2761 5.22386 10.5 5.5 10.5H10.7251C11.1581 10.0912 11.6576 9.75187 12.2055 9.5H5.5ZM5.5 12H9.59971C9.43777 12.3168 9.30564 12.6514 9.20703 13H5.5C5.22386 13 5 12.7761 5 12.5C5 12.2239 5.22386 12 5.5 12ZM4.5 15H9.02242C9.05337 15.3434 9.11588 15.6777 9.20703 16H4.5C3.11929 16 2 14.8807 2 13.5V6.5C2 5.11929 3.11929 4 4.5 4H15.5C16.8807 4 18 5.11929 18 6.5V10.2572C17.6929 10.0035 17.3578 9.78261 17 9.59971V6.5C17 5.67157 16.3284 5 15.5 5H4.5C3.67157 5 3 5.67157 3 6.5V13.5C3 14.3284 3.67157 15 4.5 15ZM19 14.5C19 16.9853 16.9853 19 14.5 19C12.0147 19 10 16.9853 10 14.5C10 12.0147 12.0147 10 14.5 10C16.9853 10 19 12.0147 19 14.5ZM16.8532 14.854L16.8557 14.8514C16.9026 14.804 16.938 14.7495 16.9621 14.6914C16.9861 14.6333 16.9996 14.5697 17 14.503L17 14.5L17 14.497C16.9996 14.4303 16.9861 14.3667 16.9621 14.3086C16.9377 14.2496 16.9015 14.1944 16.8536 14.1464L14.8536 12.1464C14.6583 11.9512 14.3417 11.9512 14.1464 12.1464C13.9512 12.3417 13.9512 12.6583 14.1464 12.8536L15.2929 14H12.5C12.2239 14 12 14.2239 12 14.5C12 14.7761 12.2239 15 12.5 15H15.2929L14.1464 16.1464C13.9512 16.3417 13.9512 16.6583 14.1464 16.8536C14.3417 17.0488 14.6583 17.0488 14.8536 16.8536L16.8532 14.854Z" fill="#212121"/>
</svg>
