<svg width="24" height="24" viewBox="0 0 24 24" fill="none" xmlns="http://www.w3.org/2000/svg">
<path d="M17.5 11.9991C20.5375 11.9991 23 14.4615 23 17.4991C23 20.5366 20.5375 22.9991 17.5 22.9991C14.4624 22.9991 12 20.5366 12 17.4991C12 14.4615 14.4624 11.9991 17.5 11.9991ZM12 1.99805C17.5237 1.99805 22.0015 6.47589 22.0015 11.9996C22.0015 12.2628 21.9913 12.5237 21.9714 12.7818C21.5335 12.3662 21.0376 12.0112 20.4972 11.7299C20.3551 7.15965 16.6051 3.49805 12 3.49805C7.30469 3.49805 3.49841 7.30432 3.49841 11.9996C3.49841 16.6051 7.16056 20.3553 11.7317 20.497C12.0124 21.0372 12.3673 21.5329 12.7825 21.9707C12.5247 21.991 12.2635 22.0011 12 22.0011C6.47626 22.0011 1.99841 17.5233 1.99841 11.9996C1.99841 6.47589 6.47626 1.99805 12 1.99805ZM17.5 13.9983L17.4101 14.0064C17.206 14.0434 17.0451 14.2043 17.008 14.4084L17 14.4983L16.9996 16.9983L14.4976 16.9991L14.4077 17.0071C14.2036 17.0442 14.0427 17.2051 14.0057 17.4092L13.9976 17.4991L14.0057 17.589C14.0427 17.793 14.2036 17.954 14.4077 17.991L14.4976 17.9991L17.0006 17.9983L17.0011 20.5026L17.0091 20.5924C17.0462 20.7965 17.2071 20.9575 17.4112 20.9945L17.5011 21.0026L17.5909 20.9945C17.795 20.9575 17.956 20.7965 17.993 20.5924L18.0011 20.5026L18.0006 17.9983L20.5045 17.9991L20.5944 17.991C20.7985 17.954 20.9594 17.793 20.9965 17.589L21.0045 17.4991L20.9965 17.4092C20.9594 17.2051 20.7985 17.0442 20.5944 17.0071L20.5045 16.9991L17.9996 16.9983L18 14.4983L17.9919 14.4084C17.9549 14.2043 17.7939 14.0434 17.5898 14.0064L17.5 13.9983ZM8.4617 14.7829C9.12306 15.6223 10.0525 16.1965 11.0917 16.4094C11.0312 16.7629 11 17.1273 11 17.4991C11 17.64 11.0044 17.7798 11.0133 17.9184C9.53808 17.6757 8.21125 16.8888 7.28348 15.7112C7.02713 15.3859 7.08307 14.9143 7.40843 14.658C7.73379 14.4016 8.20535 14.4576 8.4617 14.7829ZM9.00041 8.75024C9.69037 8.75024 10.2497 9.30956 10.2497 9.99953C10.2497 10.6895 9.69037 11.2488 9.00041 11.2488C8.31045 11.2488 7.75112 10.6895 7.75112 9.99953C7.75112 9.30956 8.31045 8.75024 9.00041 8.75024ZM15.0004 8.75024C15.6904 8.75024 16.2497 9.30956 16.2497 9.99953C16.2497 10.6895 15.6904 11.2488 15.0004 11.2488C14.3104 11.2488 13.7511 10.6895 13.7511 9.99953C13.7511 9.30956 14.3104 8.75024 15.0004 8.75024Z" fill="#212121"/>
</svg>
