<?xml version="1.0" encoding="UTF-8"?>
<svg width="24px" height="24px" viewBox="0 0 24 24" version="1.1" xmlns="http://www.w3.org/2000/svg" xmlns:xlink="http://www.w3.org/1999/xlink">
    <!-- Generator: Sketch 59.1 (86144) - https://sketch.com -->
    <title>ic_fluent_erase_24_regular</title>
    <desc>Created with Sketch.</desc>
    <g id="ðŸ”-Product-Icons" stroke="none" stroke-width="1" fill="none" fill-rule="evenodd">
        <g id="ic_fluent_erase_24_regular" fill="#212121" fill-rule="nonzero">
            <path d="M15.8698693,2.66881311 L20.838395,7.63733874 C21.7170746,8.5160184 21.7170746,9.9406396 20.838395,10.8193193 L12.1565953,19.4998034 L18.25448,19.5 C18.6341758,19.5 18.947971,19.7821539 18.9976334,20.1482294 L19.00448,20.25 C19.00448,20.6296958 18.7223262,20.943491 18.3562506,20.9931534 L18.25448,21 L9.84446231,21.0012505 C9.22825282,21.0348734 8.60085192,20.8163243 8.13013068,20.345603 L3.16160505,15.3770774 C2.28292539,14.4983977 2.28292539,13.0737765 3.16160505,12.1950969 L12.6878888,2.66881311 C13.5665685,1.79013346 14.9911897,1.79013346 15.8698693,2.66881311 Z M5.70859531,11.7678034 L4.22226522,13.255757 C3.929372,13.5486503 3.929372,14.023524 4.22226522,14.3164172 L9.19079085,19.2849428 C9.33723746,19.4313895 9.5291792,19.5046128 9.72112094,19.5046128 L9.75,19.5 L9.78849588,19.5015989 C9.95740385,19.4864544 10.1221581,19.4142357 10.251451,19.2849428 L11.7375953,17.7978034 L5.70859531,11.7678034 Z M13.748549,3.72947329 L6.76959531,10.7068034 L12.7985953,16.7368034 L19.7777348,9.75865909 C20.070628,9.46576587 20.070628,8.99089214 19.7777348,8.69799892 L14.8092091,3.72947329 C14.5163159,3.43658007 14.0414422,3.43658007 13.748549,3.72947329 Z" id="ðŸŽ¨-Color"></path>
        </g>
    </g>
</svg>