<svg width="20" height="20" viewBox="0 0 20 20" fill="none" xmlns="http://www.w3.org/2000/svg">
<path d="M2 5.5C2 4.11929 3.11929 3 4.5 3H6.98223C7.44636 3 7.89148 3.18437 8.21967 3.51256L9.5 4.79289L7.43934 6.85355C7.34557 6.94732 7.21839 7 7.08579 7H2V5.5ZM2 8V14.5C2 15.8807 3.11929 17 4.5 17H9.59971C9.21628 16.2499 9 15.4002 9 14.5C9 11.4624 11.4624 9 14.5 9C15.8296 9 17.0491 9.47182 18 10.2572V7.5C18 6.11929 16.8807 5 15.5 5H10.7071L8.14645 7.56066C7.86514 7.84196 7.48361 8 7.08579 8H2ZM13.5499 11.1502C13.2592 11.8769 13.0568 12.8717 13.0102 14H15.9896C15.9429 12.8717 15.7405 11.8769 15.4499 11.1502C15.2828 10.7326 15.0965 10.4283 14.9151 10.2365C14.7347 10.0457 14.5942 10 14.4999 10C14.4055 10 14.265 10.0457 14.0847 10.2365C13.9033 10.4283 13.7169 10.7326 13.5499 11.1502ZM12.8294 10.3202C12.7547 10.4654 12.6854 10.6189 12.6214 10.7788C12.2766 11.6409 12.0565 12.7664 12.0094 14H10.0273C10.2127 12.3234 11.3191 10.9244 12.8294 10.3202ZM16.1703 10.3202C16.2451 10.4654 16.3144 10.6189 16.3783 10.7788C16.7232 11.6409 16.9433 12.7664 16.9904 14H18.9724C18.7871 12.3234 17.6806 10.9244 16.1703 10.3202ZM18.9724 15H16.9904C16.9433 16.2336 16.7232 17.3591 16.3783 18.2212C16.3144 18.3811 16.2451 18.5346 16.1703 18.6798C17.6806 18.0756 18.7871 16.6766 18.9724 15ZM14.4999 19C14.5942 19 14.7347 18.9543 14.9151 18.7635C15.0965 18.5717 15.2828 18.2674 15.4499 17.8498C15.7405 17.1231 15.9429 16.1283 15.9896 15H13.0102C13.0568 16.1283 13.2592 17.1231 13.5499 17.8498C13.7169 18.2674 13.9033 18.5717 14.0847 18.7635C14.265 18.9543 14.4055 19 14.4999 19ZM12.8294 18.6798C11.3191 18.0756 10.2127 16.6766 10.0273 15H12.0094C12.0565 16.2336 12.2766 17.3591 12.6214 18.2212C12.6854 18.3811 12.7547 18.5346 12.8294 18.6798Z" fill="#242424"/>
</svg>
