<svg width="12" height="12" viewBox="0 0 12 12" fill="none" xmlns="http://www.w3.org/2000/svg">
<path d="M6.1875 3.5C6.41762 3.5 6.60417 3.68655 6.60417 3.91667V5.58333H8.27083C8.50095 5.58333 8.6875 5.76988 8.6875 6C8.6875 6.23012 8.50095 6.41667 8.27083 6.41667H6.60417V8.08333C6.60417 8.31345 6.41762 8.5 6.1875 8.5C5.95738 8.5 5.77083 8.31345 5.77083 8.08333V6.41667H4.10417C3.87405 6.41667 3.6875 6.23012 3.6875 6C3.6875 5.76988 3.87405 5.58333 4.10417 5.58333H5.77083V3.91667C5.77083 3.68655 5.95738 3.5 6.1875 3.5ZM1.1875 6C1.1875 3.23858 3.42608 1 6.1875 1C8.94892 1 11.1875 3.23858 11.1875 6C11.1875 8.76142 8.94892 11 6.1875 11C3.42608 11 1.1875 8.76142 1.1875 6ZM6.1875 1.83333C3.88631 1.83333 2.02083 3.69881 2.02083 6C2.02083 8.30119 3.88631 10.1667 6.1875 10.1667C8.48869 10.1667 10.3542 8.30119 10.3542 6C10.3542 3.69881 8.48869 1.83333 6.1875 1.83333Z" fill="#212121"/>
</svg>
