<?xml version="1.0" encoding="UTF-8"?>
<svg width="24px" height="24px" viewBox="0 0 24 24" version="1.1" xmlns="http://www.w3.org/2000/svg" xmlns:xlink="http://www.w3.org/1999/xlink">
    <!-- Generator: Sketch 59.1 (86144) - https://sketch.com -->
    <title>ic_setting_mic_24_filled</title>
    <desc>Created with Sketch.</desc>
    <g id="ðŸ”-Product-Icons" stroke="none" stroke-width="1" fill="none" fill-rule="evenodd">
        <g id="ic_setting_mic_24_filled" fill="#212121">
            <path d="M17.5,12 C17.7930736,12 18.0806075,12.024542 18.3607867,12.0717481 L18.5341163,12.7877987 C18.7930873,13.8615807 19.8734971,14.5221156 20.9472791,14.2631446 L21.0450624,14.2369258 L21.6461665,14.0580331 C22.0087308,14.5250263 22.2991223,15.0545692 22.4998264,15.6285394 L22.0525916,16.0588054 C21.2985339,16.7843546 21.2369524,17.9588704 21.8837443,18.7572658 L22.0250857,18.9142136 L22.4998264,19.3714606 C22.2992653,19.9450217 22.0091447,20.4742188 21.6469416,20.9409683 L21.0450624,20.7630742 C19.9857606,20.4500989 18.8733103,21.0551161 18.5603351,22.1144179 L18.5341163,22.2122013 L18.3607867,22.9282519 C18.0806075,22.975458 17.7930736,23 17.5,23 C17.2066096,23 16.918771,22.9754049 16.6383049,22.9280988 L16.4658837,22.2122013 C16.2069127,21.1384193 15.1265029,20.4778844 14.0527209,20.7368554 L13.9549376,20.7630742 L13.3530584,20.9409683 C12.9908553,20.4742188 12.7007347,19.9450217 12.5001736,19.3714606 L12.9474084,18.9411946 C13.7014661,18.2156454 13.7630476,17.0411296 13.1162557,16.2427342 L12.9749143,16.0857864 L12.5001736,15.6285394 C12.7007347,15.0549783 12.9908553,14.5257812 13.3530584,14.0590317 L13.9549376,14.2369258 C15.0142394,14.5499011 16.1266897,13.9448839 16.4396649,12.8855821 L16.4658837,12.7877987 L16.6383049,12.0719012 C16.918771,12.0245951 17.2066096,12 17.5,12 Z M2.75,12 C3.12969577,12 3.44349096,12.2821539 3.49315338,12.6482294 L3.5,12.75 L3.5,13.25 C3.5,16.0770076 5.73444888,18.3821316 8.53359538,18.495621 L8.75,18.5 L9.25,18.5 C9.87709671,18.5 10.4785138,18.3900525 11.036026,18.1883827 C11.0896055,18.6984217 11.2026076,19.1920821 11.3678927,19.6610858 C10.8539386,19.8308075 10.3119847,19.9405319 9.75098097,19.9816901 L9.75,21.25 C9.75,21.6642136 9.41421356,22 9,22 C8.62030423,22 8.30650904,21.7178461 8.25684662,21.3517706 L8.25,21.25 L8.25002153,19.9817636 C4.83343781,19.7316124 2.12316478,16.9383886 2.00408192,13.4869716 L2,13.25 L2,12.75 C2,12.3357864 2.33578644,12 2.75,12 Z M17.5,16 C16.6993682,16 16.0503279,16.6715729 16.0503279,17.5 C16.0503279,18.3284271 16.6993682,19 17.5,19 C18.3006318,19 18.9496721,18.3284271 18.9496721,17.5 C18.9496721,16.6715729 18.3006318,16 17.5,16 Z M9,2 C11.209139,2 13,3.790861 13,6 L13.000184,12.8093956 C12.0162319,13.75357 11.328748,15.0043422 11.0913087,16.4081359 C10.4842165,16.7839309 9.76734108,17 9,17 C6.790861,17 5,15.209139 5,13 L5,6 C5,3.790861 6.790861,2 9,2 Z" id="ðŸŽ¨Color"></path>
        </g>
    </g>
</svg>