<svg width="20" height="20" viewBox="0 0 20 20" fill="none" xmlns="http://www.w3.org/2000/svg">
<path d="M7.37014 3.55566C8.5095 1.48158 11.4895 1.48168 12.629 3.55566L18.1251 13.5605C19.2225 15.5596 17.7757 18.0045 15.4952 18.0049H4.50391C2.22289 18.0048 0.776929 15.5598 1.87498 13.5605L7.37014 3.55566ZM9.99907 12.75C9.58485 12.75 9.24906 13.0858 9.24906 13.5C9.24928 13.914 9.58499 14.25 9.99907 14.25C10.413 14.2498 10.7488 13.9139 10.7491 13.5C10.7491 13.0859 10.4131 12.7502 9.99907 12.75ZM9.99907 6.5C9.72292 6.5 9.49906 6.72386 9.49906 7V11C9.49929 11.276 9.72306 11.5 9.99907 11.5C10.2749 11.4998 10.4988 11.2758 10.4991 11V7C10.4991 6.72398 10.275 6.5002 9.99907 6.5Z" fill="#212121"/>
</svg>
