<svg width="48" height="48" viewBox="0 0 48 48" fill="none" xmlns="http://www.w3.org/2000/svg">
<path d="M24 44C35.0457 44 44 35.0457 44 24C44 12.9543 35.0457 4 24 4C12.9543 4 4 12.9543 4 24C4 35.0457 12.9543 44 24 44ZM20.0012 17.5035C19.5865 18.0517 18.8057 18.1631 18.2548 17.7507C17.7021 17.3371 17.5894 16.5537 18.0031 16.001L18.0037 16.0002L18.0043 15.9993L18.0058 15.9974L18.0092 15.9929L18.0182 15.9811C18.0252 15.972 18.034 15.9606 18.0448 15.947C18.0663 15.9197 18.0955 15.8836 18.1321 15.8399C18.2053 15.7525 18.3089 15.6341 18.4418 15.4952C18.7065 15.2185 19.0934 14.8541 19.5941 14.4895C20.5906 13.7639 22.0923 13 23.999 13C27.4509 13 30.2484 15.7984 30.249 19.2498C30.2493 21.2189 29.4331 22.6124 28.29 23.6794C27.3996 24.5106 26.2581 25.1821 25.2266 25.7888C25.0271 25.9062 24.8317 26.0212 24.643 26.1344C23.407 26.876 22.3297 27.607 21.5436 28.6027C20.9662 29.3341 20.515 30.2498 20.335 31.5H29C29.6904 31.5 30.25 32.0596 30.25 32.75C30.25 33.4404 29.6904 34 29 34H19C18.3096 34 17.75 33.4404 17.75 32.75C17.75 30.2958 18.461 28.4727 19.5814 27.0536C20.6703 25.6743 22.0929 24.749 23.3567 23.9906C23.5889 23.8514 23.8133 23.7188 24.0299 23.5908C25.0595 22.9825 25.9132 22.4781 26.5841 21.8519C27.3157 21.1689 27.7492 20.4061 27.749 19.2502C27.7486 17.1788 26.0698 15.5 23.999 15.5C22.7816 15.5 21.7858 15.9861 21.0657 16.5105C20.7081 16.7709 20.4319 17.0315 20.2482 17.2235C20.1569 17.319 20.0899 17.396 20.0485 17.4453C20.0279 17.4699 20.0138 17.4875 20.0064 17.4969L20.0012 17.5035ZM20.0003 17.5046L20.0012 17.5035Z" fill="#212121"/>
</svg>
