<svg width="24" height="24" viewBox="0 0 24 24" fill="none" xmlns="http://www.w3.org/2000/svg">
<path d="M9.9993 5.9999C9.9993 5.44767 9.55162 5 8.99938 5H6.99956L6.78269 5.00462C4.12212 5.11817 2 7.31101 2 9.99948C2 12.7606 4.23838 14.999 6.99956 14.999H8.99938L9.11599 14.9922C9.61329 14.9345 9.9993 14.5118 9.9993 13.9991C9.9993 13.4468 9.55162 12.9992 8.99938 12.9992H6.99956L6.8233 12.9941C5.24863 12.9028 3.99982 11.597 3.99982 9.99948C3.99982 8.3428 5.34285 6.99979 6.99956 6.99979H8.99938L9.11599 6.99307C9.61329 6.93531 9.9993 6.51268 9.9993 5.9999ZM21.9982 9.99948C21.9982 7.23834 19.7599 5 16.9987 5H14.9989L14.8822 5.00673C14.3849 5.06449 13.9989 5.48711 13.9989 5.9999C13.9989 6.55212 14.4466 6.99979 14.9989 6.99979H16.9987L17.1749 7.00488C18.7496 7.09612 19.9984 8.40197 19.9984 9.99948L19.9984 10.0117C20.6942 10.0717 21.3745 10.3527 21.9254 10.8546C21.9733 10.5768 21.9982 10.291 21.9982 9.99948ZM17.7694 10.6366C17.6697 10.71 17.5731 10.7898 17.4804 10.8759C17.3698 10.9368 17.2464 10.9774 17.1153 10.9927L16.9987 10.9994H6.99956C6.44732 10.9994 5.99965 10.5517 5.99965 9.99948C5.99965 9.4867 6.38565 9.06407 6.88295 9.00631L6.99956 8.99959H16.9987C17.5509 8.99959 17.9986 9.44725 17.9986 9.99948C17.9986 10.2416 17.9126 10.4636 17.7694 10.6366ZM18.0984 11.6688L12.1965 17.5706C11.8524 17.9147 11.6083 18.3458 11.4903 18.8179L11.0327 20.6484C10.8336 21.4445 11.5547 22.1656 12.3508 21.9666L14.1813 21.5089C14.6534 21.3909 15.0846 21.1468 15.4287 20.8027L21.3306 14.9009C22.2231 14.0084 22.2231 12.5613 21.3306 11.6688C20.4381 10.7762 18.991 10.7762 18.0984 11.6688Z" fill="#212121"/>
</svg>
