<svg width="20" height="20" viewBox="0 0 20 20" fill="none" xmlns="http://www.w3.org/2000/svg">
<path d="M8.5 4.5C8.5 4.22386 8.27614 4 8 4H6L5.78053 4.00592C3.67346 4.11986 2 5.8645 2 8C2 10.2091 3.79086 12 6 12H8L8.08988 11.9919C8.32312 11.9496 8.5 11.7455 8.5 11.5C8.5 11.2239 8.27614 11 8 11H6L5.80275 10.9936C4.23784 10.892 3 9.59058 3 8C3 6.34315 4.34315 5 6 5H8L8.08988 4.99194C8.32312 4.94961 8.5 4.74546 8.5 4.5ZM18 8C18 5.79086 16.2091 4 14 4H12L11.9101 4.00806C11.6769 4.05039 11.5 4.25454 11.5 4.5C11.5 4.77614 11.7239 5 12 5H14L14.1973 5.00638C15.7622 5.10795 17 6.40942 17 8C17 8.04456 16.999 8.0889 16.9971 8.13299C17.3364 8.23996 17.6597 8.41147 17.9479 8.6475C17.9822 8.43674 18 8.22045 18 8ZM14 7.5H6L5.91012 7.50806C5.67688 7.55039 5.5 7.75454 5.5 8C5.5 8.27614 5.72386 8.5 6 8.5H14L14.0899 8.49194C14.3231 8.44961 14.5 8.24546 14.5 8C14.5 7.72386 14.2761 7.5 14 7.5Z" fill="#212121"/>
<path d="M9.97975 14.3772L14.8092 9.54776C15.5395 8.81741 16.7237 8.81741 17.454 9.54776C18.1843 10.2781 18.1843 11.4622 17.454 12.1926L12.6246 17.022C12.343 17.3036 11.9902 17.5033 11.6039 17.5999L10.106 17.9744C9.45456 18.1372 8.86451 17.5472 9.02737 16.8958L9.40184 15.3979C9.49842 15.0116 9.69818 14.6588 9.97975 14.3772ZM16.7469 10.2549C16.4071 9.91504 15.8561 9.91504 15.5163 10.2549L10.6869 15.0843C10.5334 15.2377 10.4246 15.4299 10.372 15.6404L10.0422 16.9596L11.3613 16.6298C11.5718 16.5772 11.7641 16.4683 11.9175 16.3149L16.7469 11.4855C17.0867 11.1457 17.0867 10.5947 16.7469 10.2549Z" fill="#212121"/>
</svg>
