<svg width="24" height="24" viewBox="0 0 24 24" fill="none" xmlns="http://www.w3.org/2000/svg">
<path d="M9.51477 11.7242C9.5141 10.5938 9.60735 9.32164 9.901 8.1373C10.1959 6.94803 10.6792 5.90222 11.418 5.16336C12.2382 4.34321 13.3915 3.88379 14.6672 3.66456C15.9387 3.44606 17.2673 3.47761 18.3596 3.5844C19.4669 3.69265 20.3133 4.53906 20.4216 5.64638C20.5284 6.7387 20.5599 8.06728 20.3414 9.33875C20.1222 10.6145 19.6628 11.7678 18.8426 12.588C18.103 13.3277 17.0561 13.8115 15.866 14.1067C14.6809 14.4008 13.4082 14.4943 12.2779 14.4939C11.2776 14.4935 10.458 15.3054 10.4533 16.308C10.4453 18.003 10.2339 19.9682 9.51719 21.4769C9.49171 21.4555 9.45942 21.4149 9.44137 21.3408C9.24247 20.5244 8.97818 19.5477 8.66997 18.6779C8.51592 18.2431 8.34657 17.8227 8.16341 17.4568C7.98547 17.1013 7.77121 16.7493 7.51152 16.4897C7.2518 16.23 6.89964 16.0157 6.54394 15.8376C6.17781 15.6544 5.75711 15.4849 5.32206 15.3306C4.45163 15.0221 3.47417 14.7573 2.65746 14.5581C2.58366 14.5401 2.54312 14.508 2.52167 14.4826C4.03232 13.7656 6.00138 13.5558 7.69893 13.5493C8.70241 13.5455 9.51537 12.7254 9.51477 11.7242ZM10.3574 4.1027C9.35577 5.10429 8.7769 6.43801 8.44508 7.77632C8.11203 9.11955 8.01405 10.523 8.01477 11.7251C8.01488 11.9021 7.86784 12.0487 7.69325 12.0493C5.92192 12.0561 3.67688 12.2685 1.86105 13.1358C1.17859 13.4618 0.89395 14.1337 1.03531 14.7706C1.16763 15.3668 1.65025 15.8564 2.30197 16.0154C3.09682 16.2093 4.01898 16.4602 4.82087 16.7444C5.22197 16.8866 5.58059 17.0328 5.87253 17.179C6.17489 17.3303 6.35954 17.459 6.45095 17.5504C6.54226 17.6417 6.67088 17.8262 6.82207 18.1282C6.96805 18.4199 7.1141 18.7781 7.25611 19.1789C7.54 19.98 7.79044 20.9014 7.98401 21.6959C8.14285 22.3478 8.63248 22.8305 9.22867 22.963C9.86557 23.1045 10.5377 22.8201 10.8639 22.1377C11.7306 20.3245 11.9449 18.084 11.9533 16.3151C11.9541 16.1406 12.1006 15.9938 12.2774 15.9939C13.4793 15.9943 14.8833 15.896 16.2272 15.5626C17.5663 15.2304 18.901 14.651 19.9033 13.6486C21.0225 12.5294 21.5711 11.0399 21.8198 9.5928C22.0692 8.14147 22.0286 6.66728 21.9145 5.50043C21.7365 3.68008 20.3259 2.26948 18.5056 2.09151C17.3387 1.97744 15.8645 1.93683 14.4132 2.18623C12.9661 2.4349 11.4766 2.98345 10.3574 4.1027ZM16.0019 4.99995C16.5542 4.99995 17.0019 5.44766 17.0019 5.99995C17.0019 6.55223 16.5542 6.99995 16.0019 6.99995C15.4496 6.99995 15.0019 6.55223 15.0019 5.99995C15.0019 5.44766 15.4496 4.99995 16.0019 4.99995Z" fill="#212121"/>
</svg>
