<svg width="16" height="16" viewBox="0 0 16 16" fill="none" xmlns="http://www.w3.org/2000/svg">
<path d="M12.2742 12.9814L14.1464 14.8536C14.3417 15.0488 14.6583 15.0488 14.8536 14.8536C15.0488 14.6583 15.0488 14.3417 14.8536 14.1464L1.85355 1.14645C1.65829 0.951184 1.34171 0.951184 1.14645 1.14645C0.951184 1.34171 0.951184 1.65829 1.14645 1.85355L2.73979 3.4469C2.28842 3.8136 2 4.37312 2 5V5.2013L7.40409 8.1112L8.55954 9.26664L8.23715 9.44024C8.08916 9.51992 7.91104 9.51992 7.76305 9.44024L2 6.33706V11C2 12.1046 2.89543 13 4 13H12C12.093 13 12.1846 12.9936 12.2742 12.9814ZM10.398 8.27669L13.8594 11.7381C13.9501 11.5097 14 11.2607 14 11V6.33716L10.398 8.27669ZM5.12134 3L9.65978 7.53845L14 5.20141V5C14 3.89543 13.1046 3 12 3H5.12134Z" fill="#242424"/>
</svg>
