<svg width="28" height="28" viewBox="0 0 28 28" fill="none" xmlns="http://www.w3.org/2000/svg">
<path d="M17.7197 11.5303C17.4268 11.2374 17.4268 10.7626 17.7197 10.4697C18.0126 10.1768 18.4874 10.1768 18.7803 10.4697L21.7803 13.4697C22.0732 13.7626 22.0732 14.2374 21.7803 14.5303L18.7803 17.5303C18.4874 17.8232 18.0126 17.8232 17.7197 17.5303C17.4268 17.2374 17.4268 16.7626 17.7197 16.4697L19.4393 14.75H13.75C13.3358 14.75 13 14.4142 13 14C13 13.5858 13.3358 13.25 13.75 13.25H19.4393L17.7197 11.5303ZM22.2505 4C24.3216 4 26.0005 5.67893 26.0005 7.75V20.2501C26.0005 22.3211 24.3216 24.0001 22.2505 24.0001H5.75391C3.68284 24.0001 2.00391 22.3211 2.00391 20.2501V7.75C2.00391 5.67893 3.68284 4 5.75391 4H22.2505ZM24.5005 7.75C24.5005 6.50736 23.4932 5.5 22.2505 5.5H11.0047V22.5001H22.2505C23.4932 22.5001 24.5005 21.4927 24.5005 20.2501V7.75Z" fill="#212121"/>
</svg>
