<svg width="24" height="24" viewBox="0 0 24 24" fill="none" xmlns="http://www.w3.org/2000/svg">
<path d="M16.25 2.25C16.25 1.83579 15.9142 1.5 15.5 1.5C15.0858 1.5 14.75 1.83579 14.75 2.25V4.07392C13.8969 4.23171 13.081 4.64053 12.4212 5.30038L11.6411 6.08045L10.2803 4.71967C9.98744 4.42678 9.51256 4.42678 9.21967 4.71967C8.92678 5.01256 8.92678 5.48744 9.21967 5.78033L10.5805 7.14111L7.14111 10.5805L5.78033 9.21967C5.48744 8.92678 5.01256 8.92678 4.71967 9.21967C4.42678 9.51256 4.42678 9.98744 4.71967 10.2803L6.08045 11.6411L5.30251 12.4191C4.6421 13.0795 4.23315 13.8961 4.07565 14.75H2.25C1.83579 14.75 1.5 15.0858 1.5 15.5C1.5 15.9142 1.83579 16.25 2.25 16.25H4.05535C4.15892 16.9117 4.41237 17.5545 4.81569 18.1236L3.21967 19.7197C2.92678 20.0126 2.92678 20.4874 3.21967 20.7803C3.51256 21.0732 3.98744 21.0732 4.28033 20.7803L5.87591 19.1847C6.44505 19.5888 7.08802 19.8428 7.75 19.9468V21.75C7.75 22.1642 8.08579 22.5 8.5 22.5C8.91421 22.5 9.25 22.1642 9.25 21.75V19.9274C10.1048 19.7703 10.9225 19.3612 11.5835 18.7001L12.3615 17.9221L13.7197 19.2803C14.0126 19.5732 14.4874 19.5732 14.7803 19.2803C15.0732 18.9874 15.0732 18.5126 14.7803 18.2197L13.4221 16.8615L16.8615 13.4221L18.2197 14.7803C18.5126 15.0732 18.9874 15.0732 19.2803 14.7803C19.5732 14.4874 19.5732 14.0126 19.2803 13.7197L17.9221 12.3615L18.7022 11.5814C19.3627 10.9209 19.7717 10.1041 19.9291 9.25H21.75C22.1642 9.25 22.5 8.91421 22.5 8.5C22.5 8.08579 22.1642 7.75 21.75 7.75H19.9493C19.8455 7.08727 19.5914 6.44354 19.1869 5.87379L20.7803 4.28033C21.0732 3.98744 21.0732 3.51256 20.7803 3.21967C20.4874 2.92678 20.0126 2.92678 19.7197 3.21967L18.1258 4.81357C17.556 4.40981 16.9125 4.15625 16.25 4.05289V2.25ZM8.49833 16.5005C7.94605 16.5005 7.49833 16.0527 7.49833 15.5005C7.49833 14.9482 7.94605 14.5005 8.49833 14.5005C9.05062 14.5005 9.49833 14.9482 9.49833 15.5005C9.49833 16.0527 9.05062 16.5005 8.49833 16.5005ZM16.4983 8.50046C16.4983 9.05274 16.0506 9.50046 15.4983 9.50046C14.946 9.50046 14.4983 9.05274 14.4983 8.50046C14.4983 7.94817 14.946 7.50046 15.4983 7.50046C16.0506 7.50046 16.4983 7.94817 16.4983 8.50046Z" fill="#212121"/>
</svg>
