<?xml version="1.0" encoding="UTF-8"?>
<svg width="24px" height="24px" viewBox="0 0 24 24" version="1.1" xmlns="http://www.w3.org/2000/svg" xmlns:xlink="http://www.w3.org/1999/xlink">
    <!-- Generator: Sketch 61.2 (89653) - https://sketch.com -->
    <title>ic_fluent_duo_add_24_filled</title>
    <desc>Created with Sketch.</desc>
    <g id="ðŸ”-Product-Icons" stroke="none" stroke-width="1" fill="none" fill-rule="evenodd">
        <g id="ic_fluent_duo_add_24_filled" fill="#212121" fill-rule="nonzero">
            <path d="M21.9959613,9.9720736 L21.9951452,20.2487808 C21.9951452,21.2152792 21.2116435,21.9987808 20.2451452,21.9987808 L12.9975726,21.9987808 C12.9108011,21.9987808 12.8255047,21.9924656 12.7421178,21.9802696 L12.7425274,11.8045468 C13.8034596,12.5574211 15.1000449,13 16.5,13 C18.8130614,13 20.843934,11.7918058 21.9959613,9.9720736 Z M10.018829,6.00152419 C10.0063522,6.16604752 10,6.33228195 10,6.5 C10,7.92880524 10.461008,9.24993629 11.2423929,10.3227619 L11.2428483,21.979294 C11.1627125,21.9905296 11.0808214,21.9963425 10.9975726,21.9963425 L3.75,21.9963425 C2.78350169,21.9963425 2,21.2128408 2,20.2463425 L2,7.75121916 C2,6.78472085 2.78350169,6.00121916 3.75,6.00121916 L10.018829,6.00152419 Z M9.24289154,17.5 L7.74119612,17.5 L7.63942557,17.5068466 C7.27335001,17.556509 6.99119612,17.8703042 6.99119612,18.25 C6.99119612,18.6296958 7.27335001,18.943491 7.63942557,18.9931534 L7.74119612,19 L9.24289154,19 L9.34466209,18.9931534 C9.71073766,18.943491 9.99289154,18.6296958 9.99289154,18.25 C9.99289154,17.8703042 9.71073766,17.556509 9.34466209,17.5068466 L9.24289154,17.5 Z M16.2387278,17.5 L14.7387278,17.5 L14.6369572,17.5068466 C14.2708816,17.556509 13.9887278,17.8703042 13.9887278,18.25 C13.9887278,18.6296958 14.2708816,18.943491 14.6369572,18.9931534 L14.7387278,19 L16.2387278,19 L16.3404983,18.9931534 C16.7065739,18.943491 16.9887278,18.6296958 16.9887278,18.25 C16.9887278,17.8703042 16.7065739,17.556509 16.3404983,17.5068466 L16.2387278,17.5 Z M16.5,1 C19.5375661,1 22,3.46243388 22,6.5 C22,9.53756612 19.5375661,12 16.5,12 C13.4624339,12 11,9.53756612 11,6.5 C11,3.46243388 13.4624339,1 16.5,1 Z M16.5,2.9992349 L16.4101244,3.00729057 C16.2060313,3.04433453 16.0450996,3.20526621 16.0080557,3.40935926 L16,3.4992349 L15.9996498,5.9992349 L13.4976498,6 L13.4077742,6.00805567 C13.2036811,6.04509963 13.0427494,6.20603131 13.0057055,6.41012437 L12.9976498,6.5 L13.0057055,6.58987563 C13.0427494,6.79396869 13.2036811,6.95490037 13.4077742,6.99194433 L13.4976498,7 L16.0006498,6.9992349 L16.0011076,9.5034847 L16.0091633,9.59336034 C16.0462073,9.79745339 16.207139,9.95838507 16.411232,9.99542903 L16.5011076,10.0034847 L16.5909833,9.99542903 C16.7950763,9.95838507 16.956008,9.79745339 16.993052,9.59336034 L17.0011076,9.5034847 L17.0006498,6.9992349 L19.5045655,7 L19.5944411,6.99194433 C19.7985342,6.95490037 19.9594659,6.79396869 19.9965098,6.58987563 L20.0045655,6.5 L19.9965098,6.41012437 C19.9594659,6.20603131 19.7985342,6.04509963 19.5944411,6.00805567 L19.5045655,6 L16.9996498,5.9992349 L17,3.4992349 L16.9919443,3.40935926 C16.9496084,3.17611006 16.7454599,2.9992349 16.5,2.9992349 Z" id="ðŸŽ¨-Color"></path>
        </g>
    </g>
</svg>