<svg width="48" height="48" viewBox="0 0 48 48" fill="none" xmlns="http://www.w3.org/2000/svg">
<path d="M31.6832 22.3994C32.2132 21.8669 33.0725 21.8669 33.6025 22.3994C34.0972 22.8964 34.1301 23.6817 33.7014 24.2171L33.6025 24.3279L21.3883 36.6006C20.8386 37.1528 19.9508 37.1242 19.4351 36.5655L19.3429 36.4545L15.2715 31C14.8218 30.3975 14.9433 29.5428 15.5429 29.0909C16.1051 28.6673 16.8879 28.7481 17.3541 29.2563L17.4429 29.3636L20.5755 33.5603L31.6832 22.3994ZM23.9989 8C30.336 8 33.9309 12.1963 34.4537 17.264L34.6136 17.264C38.6918 17.264 41.9978 20.5627 41.9978 24.632C41.9978 28.7012 38.6918 32 34.6136 32L28.788 31.999L31.273 29.503L34.8019 29.5038C37.396 29.5038 39.4989 27.3891 39.4989 24.7806C39.4989 22.172 37.396 20.0573 34.802 20.0573L33.3814 20.0573C32.6301 20.0574 31.9739 19.465 31.9739 18.7101C31.9739 13.8844 28.2599 10.4962 23.9989 10.4962C19.7378 10.4962 16.0239 13.9455 16.0239 18.7101C16.0239 19.465 15.3677 20.0574 14.6164 20.0573L13.1958 20.0573C10.6018 20.0573 8.49886 22.172 8.49886 24.7806C8.49886 27.3467 10.5339 29.4348 13.0695 29.5021C12.8971 30.3383 13.0424 31.2378 13.5334 32.0012L13.3842 32C9.306 32 6 28.7012 6 24.632C6 20.5627 9.306 17.264 13.3842 17.264L13.5441 17.264C14.07 12.163 17.6618 8 23.9989 8Z" fill="#212121"/>
</svg>
