<svg width="16" height="16" viewBox="0 0 16 16" fill="none" xmlns="http://www.w3.org/2000/svg">
<path d="M2 4C2 2.89543 2.89543 2 4 2H12C13.1046 2 14 2.89543 14 4V10C14 11.1046 13.1046 12 12 12H10V12.5C10 12.7761 10.2239 13 10.5 13H11C11.2761 13 11.5 13.2239 11.5 13.5C11.5 13.7761 11.2761 14 11 14H5C4.72386 14 4.5 13.7761 4.5 13.5C4.5 13.2239 4.72386 13 5 13H5.5C5.77614 13 6 12.7761 6 12.5V12H4C2.89543 12 2 11.1046 2 10V4ZM3 10C3 10.5523 3.44772 11 4 11H12C12.5523 11 13 10.5523 13 10H3ZM13 9V4C13 3.44772 12.5523 3 12 3H4C3.44772 3 3 3.44772 3 4V9H13ZM9 12.5V12H7V12.5C7 12.6753 6.96992 12.8436 6.91465 13H9.09C9.03472 12.8436 9 12.6753 9 12.5Z" fill="#212121"/>
</svg>
