<?xml version="1.0" encoding="UTF-8"?>
<svg width="24px" height="24px" viewBox="0 0 24 24" version="1.1" xmlns="http://www.w3.org/2000/svg" xmlns:xlink="http://www.w3.org/1999/xlink">
    <!-- Generator: Sketch 58 (84663) - https://sketch.com -->
    <title>ic_mic_on_24_outlined</title>
    <desc>Created with Sketch.</desc>
    <g id="ðŸ”-Product-Icons" stroke="none" stroke-width="1" fill="none" fill-rule="evenodd">
        <g id="ic_mic_on_24_outlined" fill="#212121">
            <path d="M18.25,12 C18.6296958,12 18.943491,12.2821539 18.9931534,12.6482294 L19,12.75 L19,13.25 C19,16.8094149 16.2449515,19.7253538 12.750981,19.9816901 L12.75,21.25 C12.75,21.6642136 12.4142136,22 12,22 C11.5857864,22 11.25,21.6642136 11.25,21.25 L11.25,21.25 L11.2500215,19.9817636 C7.83343781,19.7316124 5.12316478,16.9383886 5.00408192,13.4869716 L5,13.25 L5,12.75 C5,12.3357864 5.33578644,12 5.75,12 C6.12969577,12 6.44349096,12.2821539 6.49315338,12.6482294 L6.5,12.75 L6.5,13.25 C6.5,16.0770076 8.73444888,18.3821316 11.5335954,18.495621 L11.75,18.5 L12.25,18.5 C15.0770076,18.5 17.3821316,16.2655511 17.495621,13.4664046 L17.5,13.25 L17.5,12.75 C17.5,12.3357864 17.8357864,12 18.25,12 Z M12,2 C14.209139,2 16,3.790861 16,6 L16,13 C16,15.209139 14.209139,17 12,17 C9.790861,17 8,15.209139 8,13 L8,6 C8,3.790861 9.790861,2 12,2 Z M12,3.5 C10.6192881,3.5 9.5,4.61928813 9.5,6 L9.5,13 C9.5,14.3807119 10.6192881,15.5 12,15.5 C13.3807119,15.5 14.5,14.3807119 14.5,13 L14.5,6 C14.5,4.61928813 13.3807119,3.5 12,3.5 Z" id="ðŸŽ¨-Color"></path>
        </g>
    </g>
</svg>