<svg width="24" height="24" viewBox="0 0 24 24" fill="none" xmlns="http://www.w3.org/2000/svg">
<path d="M2.74683 15C3.12652 15 3.44032 15.2822 3.48998 15.6482L3.49683 15.75V19.2523L3.50328 19.3801C3.56302 19.9684 4.03072 20.4361 4.61902 20.4959L4.74683 20.5023H8.24683L8.3486 20.5092C8.71467 20.5588 8.99683 20.8726 8.99683 21.2523C8.99683 21.632 8.71467 21.9458 8.3486 21.9955L8.24683 22.0023H4.74683L4.5793 21.9973C3.19616 21.9142 2.08864 20.8088 2.00225 19.4265L1.99683 19.2523V15.75L2.00367 15.6482C2.05334 15.2822 2.36713 15 2.74683 15ZM21.2468 15C21.6265 15 21.9403 15.2822 21.99 15.6482L21.9968 15.75V19.2523C21.9968 20.7149 20.8551 21.9107 19.4143 21.9973L19.2468 22.0023H15.7468C15.3326 22.0023 14.9968 21.6665 14.9968 21.2523C14.9968 20.8726 15.279 20.5588 15.6451 20.5092L15.7468 20.5023H19.2468C19.894 20.5023 20.4264 20.0105 20.4904 19.3801L20.4968 19.2523V15.75C20.4968 15.3358 20.8326 15 21.2468 15ZM12.2549 15.5C12.6691 15.5 13.0049 15.8358 13.0049 16.25C13.0049 16.6297 12.7227 16.9435 12.3566 16.9932L12.2549 17H7.74988C7.33567 17 6.99988 16.6642 6.99988 16.25C6.99988 15.8703 7.28204 15.5565 7.64811 15.5068L7.74988 15.5H12.2549ZM16.2499 11.25C16.6641 11.25 16.9999 11.5858 16.9999 12C16.9999 12.3797 16.7177 12.6935 16.3517 12.7432L16.2499 12.75H7.74988C7.33567 12.75 6.99988 12.4142 6.99988 12C6.99988 11.6203 7.28204 11.3065 7.64811 11.2568L7.74988 11.25H16.2499ZM8.24683 2C8.66104 2 8.99683 2.33579 8.99683 2.75C8.99683 3.1297 8.71467 3.44349 8.3486 3.49315L8.24683 3.5H4.74683C4.09962 3.5 3.56729 3.99187 3.50328 4.62219L3.49683 4.75V8.25234C3.49683 8.66655 3.16104 9.00234 2.74683 9.00234C2.36713 9.00234 2.05334 8.72018 2.00367 8.35411L1.99683 8.25234V4.75C1.99683 3.28747 3.13853 2.0916 4.5793 2.00502L4.74683 2H8.24683ZM19.2468 2L19.4143 2.00502C20.7975 2.08813 21.905 3.19357 21.9914 4.57583L21.9968 4.75V8.25234L21.99 8.35411C21.9403 8.72018 21.6265 9.00234 21.2468 9.00234C20.8671 9.00234 20.5533 8.72018 20.5037 8.35411L20.4968 8.25234V4.75L20.4904 4.62219C20.4306 4.0339 19.9629 3.5662 19.3746 3.50645L19.2468 3.5H15.7468L15.6451 3.49315C15.279 3.44349 14.9968 3.1297 14.9968 2.75C14.9968 2.3703 15.279 2.05651 15.6451 2.00685L15.7468 2H19.2468ZM16.2499 7C16.6641 7 16.9999 7.33579 16.9999 7.75C16.9999 8.1297 16.7177 8.44349 16.3517 8.49315L16.2499 8.5H7.74988C7.33567 8.5 6.99988 8.16421 6.99988 7.75C6.99988 7.3703 7.28204 7.05651 7.64811 7.00685L7.74988 7H16.2499Z" fill="#212121"/>
</svg>
