<svg width="20" height="20" viewBox="0 0 20 20" fill="none" xmlns="http://www.w3.org/2000/svg">
<path d="M4 4C4 2.89543 4.89543 2 6 2H16C17.1046 2 18 2.89543 18 4V11C18 12.1046 17.1046 13 16 13H14V15H15C15.2761 15 15.5 15.2239 15.5 15.5C15.5 15.7761 15.2761 16 15 16H13V10C13 8.34315 11.6569 7 10 7H4V4ZM10 18H7.5V8H10C11.1046 8 12 8.89543 12 10V16C12 17.1046 11.1046 18 10 18ZM4 8H6.5V18H4C2.89543 18 2 17.1046 2 16V10C2 8.89543 2.89543 8 4 8ZM9.5 15C9.22386 15 9 15.2239 9 15.5C9 15.7761 9.22386 16 9.5 16H10C10.2761 16 10.5 15.7761 10.5 15.5C10.5 15.2239 10.2761 15 10 15H9.5ZM3.5 15.5C3.5 15.7761 3.72386 16 4 16H4.5C4.77614 16 5 15.7761 5 15.5C5 15.2239 4.77614 15 4.5 15H4C3.72386 15 3.5 15.2239 3.5 15.5Z" fill="#212121"/>
</svg>
