<svg width="20" height="20" viewBox="0 0 20 20" fill="none" xmlns="http://www.w3.org/2000/svg">
<path d="M17 5.91465C17.5826 5.70873 18 5.15311 18 4.5C18 3.67157 17.3284 3 16.5 3H3.5C2.67157 3 2 3.67157 2 4.5C2 5.15311 2.4174 5.70873 3 5.91465V16.5C3 16.7761 3.22386 17 3.5 17H5V12.5C5 12.2239 5.22386 12 5.5 12H9.49982C9.86866 11.5089 10.4141 11.1581 11.0419 11.0419C11.0445 11.0279 11.0472 11.0139 11.05 11H5.5C5.22386 11 5 10.7761 5 10.5V7.5C5 7.22386 5.22386 7 5.5 7H14.5C14.7761 7 15 7.22386 15 7.5V9H15.5C16.0628 9 16.5822 9.18597 17 9.49982V5.91465ZM3.5 4H16.5C16.7761 4 17 4.22386 17 4.5C17 4.77614 16.7761 5 16.5 5H3.5C3.22386 5 3 4.77614 3 4.5C3 4.22386 3.22386 4 3.5 4ZM9 13V17H6V13H9ZM13.5 9H14V8H6V10H11.4998C11.9559 9.39278 12.6821 9 13.5 9ZM12 12V11.5C12 10.6716 12.6716 10 13.5 10H15.5C16.3284 10 17 10.6716 17 11.5V12H17.5C18.3284 12 19 12.6716 19 13.5V15H17V14.5C17 14.2239 16.7761 14 16.5 14C16.2239 14 16 14.2239 16 14.5V15H13V14.5C13 14.2239 12.7761 14 12.5 14C12.2239 14 12 14.2239 12 14.5V15H10V13.5C10 12.6716 10.6716 12 11.5 12H12ZM13 11.5V12H16V11.5C16 11.2239 15.7761 11 15.5 11H13.5C13.2239 11 13 11.2239 13 11.5ZM17 16.5V16H19V17.5C19 18.3284 18.3284 19 17.5 19H11.5C10.6716 19 10 18.3284 10 17.5V16H12V16.5C12 16.7761 12.2239 17 12.5 17C12.7761 17 13 16.7761 13 16.5V16H16V16.5C16 16.7761 16.2239 17 16.5 17C16.7761 17 17 16.7761 17 16.5Z" fill="#212121"/>
</svg>
