<svg width="16" height="16" viewBox="0 0 16 16" fill="none" xmlns="http://www.w3.org/2000/svg">
<path d="M10.75 1.99999C11.4404 1.99999 12 2.55963 12 3.24999V12.75C12 13.3155 11.6204 13.8105 11.0742 13.9572C10.5281 14.1039 9.95154 13.8657 9.66822 13.3763L6.5 7.90391L6.5 12.75C6.5 13.4403 5.94036 14 5.25 14C4.55964 14 4 13.4403 4 12.75L4 3.24999C4 2.68451 4.37963 2.18946 4.92575 2.04278C5.47188 1.89609 6.04846 2.13431 6.33178 2.6237L9.5 8.09607V3.24999C9.5 2.55963 10.0596 1.99999 10.75 1.99999Z" fill="#212121"/>
</svg>
