<svg width="20" height="20" viewBox="0 0 20 20" fill="none" xmlns="http://www.w3.org/2000/svg">
<path d="M10 1C10.2761 1 10.5 1.22386 10.5 1.5V3.01953C13.9674 3.26431 16.7357 6.03262 16.9805 9.5H17.5C17.7761 9.5 18 9.72386 18 10C18 10.2761 17.7761 10.5 17.5 10.5H16.9805C16.7357 13.9674 13.9674 16.7357 10.5 16.9805V18H12.5C12.7761 18 13 18.2239 13 18.5C13 18.7761 12.7761 19 12.5 19H7.5C7.22386 19 7 18.7761 7 18.5C7 18.2239 7.22386 18 7.5 18H9.5V16.9805C6.03262 16.7357 3.26431 13.9674 3.01953 10.5H2.5C2.22386 10.5 2 10.2761 2 10C2 9.72386 2.22386 9.5 2.5 9.5H3.01953C3.26431 6.03262 6.03262 3.26431 9.5 3.01953V1.5C9.5 1.22386 9.72386 1 10 1ZM8.01074 10.5C8.06302 12.1231 8.36405 13.5434 8.79785 14.5557C9.03754 15.1149 9.29769 15.5039 9.53516 15.7383C9.76816 15.9681 9.92398 16 10 16C10.076 16 10.2318 15.9681 10.4648 15.7383C10.7023 15.5039 10.9625 15.1149 11.2021 14.5557C11.636 13.5434 11.937 12.1231 11.9893 10.5H8.01074ZM4.02246 10.5C4.22859 12.9978 5.96328 15.0602 8.29004 15.751C7.56573 14.5759 7.07459 12.6753 7.00879 10.5H4.02246ZM12.9912 10.5C12.9254 12.6756 12.4334 14.5759 11.709 15.751C14.0362 15.0605 15.7714 12.9981 15.9775 10.5H12.9912ZM8.29004 4.24805C5.96315 4.93875 4.2286 7.00212 4.02246 9.5H7.00879C7.0746 7.32423 7.56549 5.42306 8.29004 4.24805ZM10 4C9.92398 4 9.76816 4.03186 9.53516 4.26172C9.29769 4.49608 9.03754 4.88507 8.79785 5.44434C8.36405 6.4566 8.06302 7.87694 8.01074 9.5H11.9893C11.937 7.87694 11.636 6.4566 11.2021 5.44434C10.9625 4.88507 10.7023 4.49608 10.4648 4.26172C10.2318 4.03186 10.076 4 10 4ZM11.709 4.24805C12.4337 5.42303 12.9254 7.32396 12.9912 9.5H15.9775C15.7714 7.00179 14.0363 4.93848 11.709 4.24805Z" fill="#212121"/>
</svg>
