<svg width="20" height="20" viewBox="0 0 20 20" fill="none" xmlns="http://www.w3.org/2000/svg">
<path d="M12.3871 12C12.0931 12 11.8548 11.7675 11.8548 11.4808C11.8548 11.194 12.0931 10.9615 12.3871 10.9615H12.7419C14.5057 10.9615 15.9355 9.87669 15.9355 8.53846C15.9355 7.24079 14.591 6.18137 12.9013 6.11835L12.7419 6.11538H7.81748L9.03765 7.30592C9.24551 7.5087 9.24551 7.83746 9.03765 8.04023C8.84869 8.22457 8.55299 8.24132 8.34462 8.0905L8.28493 8.04023L6.15589 5.9633C5.94803 5.76053 5.94803 5.43177 6.15589 5.229L8.28493 3.15208L8.34462 3.1018C8.55299 2.95098 8.84869 2.96774 9.03765 3.15208C9.24551 3.35485 9.24551 3.68361 9.03765 3.88638L7.81819 5.07692H12.7419C15.0936 5.07692 17 6.62671 17 8.53846C17 10.4502 15.0936 12 12.7419 12H12.3871ZM3.39686 9C3.17768 9 3 9.16842 3 9.37619V16.2476C3 16.6631 3.35536 17 3.79372 17H16.6031C16.7447 17 16.8756 16.9285 16.9465 16.8123C17.0563 16.6325 16.9916 16.4023 16.8019 16.2982L3.5957 9.05062C3.53527 9.01746 3.46668 9 3.39686 9Z" fill="#212121"/>
</svg>
