<svg width="24" height="24" viewBox="0 0 24 24" fill="none" xmlns="http://www.w3.org/2000/svg">
<path d="M6.25 3C4.45507 3 3 4.45508 3 6.25V17.75C3 19.5449 4.45508 21 6.25 21H16.257C16.3623 19.1372 17.6309 18.1493 18.3577 17.6211C17.831 17.7306 17.2611 17.5967 16.8303 17.2096C16.1114 16.5636 16.0523 15.4572 16.6983 14.7383C17.5525 13.7877 18.9215 13.3186 20.1747 13.5647C20.452 13.6192 20.7316 13.7108 21 13.845V6.25C21 4.45507 19.5449 3 17.75 3H6.25ZM19.0604 18.3469C18.3606 18.8532 17.3649 19.5833 17.2592 21C17.2531 21.0811 17.25 21.1644 17.25 21.2501C17.25 21.6643 17.5858 22.0001 18 22.0001H21C21.4142 22.0001 21.75 21.6643 21.75 21.2501C21.75 20.8358 21.4142 20.5001 21 20.5001H18.9428C19.1384 20.1686 19.478 19.8962 19.9396 19.5623C19.9677 19.542 19.9966 19.5212 20.0263 19.5C20.0409 19.4895 20.0557 19.479 20.0707 19.4683C20.2893 19.3124 20.5433 19.1312 20.7866 18.9108C21.2914 18.4536 21.75 17.8278 21.75 16.9096C21.75 16.276 21.5822 15.7258 21.2455 15.3011C21.1694 15.2052 21.0872 15.1187 21 15.0413C20.7012 14.7761 20.3448 14.6172 19.982 14.546C19.0807 14.369 18.0654 14.713 17.4421 15.4067C17.1653 15.7148 17.1906 16.189 17.4987 16.4658C17.8068 16.7427 18.281 16.7173 18.5579 16.4092C18.8346 16.1013 19.3193 15.9445 19.693 16.0179C19.8618 16.051 19.9851 16.1258 20.0701 16.233C20.1553 16.3405 20.25 16.5415 20.25 16.9096C20.25 17.4603 19.8979 17.741 19.0604 18.3469ZM17.28 9.28064L10.5263 16.0266C10.2333 16.3192 9.75868 16.319 9.46591 16.0262L6.72014 13.2803C6.42726 12.9874 6.42727 12.5125 6.72018 12.2196C7.01308 11.9268 7.48795 11.9268 7.78084 12.2197L9.99658 14.4356L16.22 8.21936C16.513 7.92664 16.9879 7.92691 17.2806 8.21998C17.5734 8.51304 17.5731 8.98791 17.28 9.28064Z" fill="#212121"/>
</svg>
