<svg width="32" height="32" viewBox="0 0 32 32" fill="none" xmlns="http://www.w3.org/2000/svg">
<path d="M28 16C28 22.6274 22.6274 28 16 28C9.37258 28 4 22.6274 4 16C4 9.37258 9.37258 4 16 4C22.6274 4 28 9.37258 28 16ZM16 30C23.732 30 30 23.732 30 16C30 8.26801 23.732 2 16 2C8.26801 2 2 8.26801 2 16C2 23.732 8.26801 30 16 30ZM12.5 16C12.5 14.1333 12.7768 12.584 13.3587 11.5356C13.8978 10.5643 14.7005 10 16 10C17.2995 10 18.1022 10.5643 18.6413 11.5356C19.2232 12.584 19.5 14.1333 19.5 16C19.5 17.8667 19.2232 19.416 18.6413 20.4644C18.1022 21.4357 17.2995 22 16 22C14.7005 22 13.8978 21.4357 13.3587 20.4644C12.7768 19.416 12.5 17.8667 12.5 16ZM16 8C13.9245 8 12.4772 9.00271 11.61 10.5649C10.7857 12.05 10.5 14.0007 10.5 16C10.5 17.9993 10.7857 19.95 11.61 21.4351C12.4772 22.9973 13.9245 24 16 24C18.0755 24 19.5228 22.9973 20.39 21.4351C21.2143 19.95 21.5 17.9993 21.5 16C21.5 14.0007 21.2143 12.05 20.39 10.5649C19.5228 9.00271 18.0755 8 16 8Z" fill="#212121"/>
</svg>
