<svg width="20" height="20" viewBox="0 0 20 20" fill="none" xmlns="http://www.w3.org/2000/svg">
<path d="M5.12201 8.77615C5.98418 5.32708 8.18095 2.5011 11.5144 2.75182C13.1995 2.87857 14.1589 3.81518 14.6681 4.70545C14.9166 5.13994 15.0588 5.56139 15.1394 5.87191C15.18 6.02837 15.2058 6.16001 15.2218 6.2556C15.2298 6.30349 15.2354 6.3426 15.2392 6.37157C15.2411 6.38606 15.2425 6.39804 15.2435 6.40734L15.2448 6.41927L15.2453 6.42369L15.2455 6.4255C15.2455 6.4255 15.1707 5.99974 15.2456 6.42706C15.2858 6.83932 14.9841 7.20607 14.5718 7.24621C14.1608 7.28623 13.795 6.98647 13.7531 6.5761L13.7517 6.5651C13.7501 6.55307 13.7472 6.532 13.7424 6.50315C13.7327 6.44525 13.7156 6.35716 13.6875 6.24863C13.6305 6.0292 13.5317 5.7397 13.3661 5.45022C13.0471 4.89254 12.4859 4.32914 11.4018 4.2476C9.19677 4.08174 7.38154 5.92232 6.57724 9.13992C6.19248 10.6791 6.11834 12.3438 6.50973 13.6132C6.70271 14.239 6.99939 14.7397 7.39837 15.0956C7.79032 15.4452 8.32222 15.6925 9.05962 15.7522C10.5501 15.8727 11.4547 15.2563 12.0111 14.6155C12.2973 14.2858 12.4934 13.9449 12.6175 13.6853C12.6791 13.5564 12.7217 13.4504 12.7479 13.3796C12.761 13.3444 12.7699 13.3181 12.775 13.3026C12.775 13.3026 13.0345 12.583 13.7091 12.7797C14.1543 12.9095 14.3349 13.3127 14.219 13.7104L14.2128 13.7308C14.2097 13.741 14.2054 13.7544 14.2001 13.7706C14.1895 13.803 14.1743 13.8471 14.1543 13.9012C14.1143 14.009 14.0543 14.1575 13.9708 14.3323C13.8046 14.6799 13.5397 15.1428 13.1437 15.5989C12.3356 16.5297 10.9902 17.4132 8.9387 17.2473C7.90514 17.1637 7.05681 16.8009 6.39987 16.2149C5.74994 15.6352 5.32904 14.8747 5.07633 14.0551C4.57635 12.4337 4.69841 10.4708 5.12201 8.77615ZM13.7531 6.5761L13.7528 6.5731Z" fill="#212121"/>
</svg>
