<svg width="24" height="24" viewBox="0 0 24 24" fill="none" xmlns="http://www.w3.org/2000/svg">
<path d="M1 8.57314V4.42725C1 3.85909 1.321 3.33969 1.82918 3.08561L5.32918 1.33561C5.75147 1.12446 6.24853 1.12446 6.67082 1.33561L10.1708 3.0856C10.679 3.33969 11 3.85909 11 4.42725V8.57314C11 9.1413 10.679 9.6607 10.1708 9.91478L6.67082 11.6648C6.24853 11.8759 5.75147 11.8759 5.32918 11.6648L1.82918 9.91478C1.321 9.6607 1 9.1413 1 8.57314ZM2.55279 4.52659C2.42929 4.77358 2.5294 5.07391 2.77639 5.19741L5.5 6.55921V9.50019C5.5 9.77634 5.72386 10.0002 6 10.0002C6.27614 10.0002 6.5 9.77634 6.5 9.50019V6.55921L9.22361 5.19741C9.4706 5.07391 9.57071 4.77358 9.44721 4.52659C9.32372 4.2796 9.02338 4.17949 8.77639 4.30298L6 5.69118L3.22361 4.30298C2.97662 4.17949 2.67628 4.2796 2.55279 4.52659ZM3.5 11.868V17.25C3.5 17.6379 3.7945 17.957 4.17212 17.996C4.58509 16.8329 5.69527 16 7 16C8.30622 16 9.41746 16.8348 9.82929 18H12.1707C12.5825 16.8348 13.6938 16 15 16V5.25C15 4.83579 14.6642 4.5 14.25 4.5H12V4.42705C12 3.90691 11.8386 3.41128 11.5527 3H14.25C15.4926 3 16.5 4.00736 16.5 5.25V6H18.0508C18.9203 6 19.7119 6.501 20.0842 7.28681L21.7834 10.8741C21.926 11.1752 22 11.5042 22 11.8373V17.25C22 18.4926 20.9926 19.5 19.75 19.5H17.9585C17.7205 20.9189 16.4865 22 15 22C13.5135 22 12.2795 20.9189 12.0415 19.5H9.95852C9.72048 20.9189 8.4865 22 7 22C5.51012 22 4.27391 20.9139 4.03987 19.4903C2.89576 19.3844 2 18.4218 2 17.25V11.118L3.5 11.868ZM16.5 16.4013C17.1136 16.7563 17.5897 17.3222 17.8293 18H19.75C20.1642 18 20.5 17.6642 20.5 17.25V17.0001H19.25C18.8358 17.0001 18.5 16.6643 18.5 16.2501C18.5 15.8358 18.8358 15.5001 19.25 15.5001H20.5V12.5L16.5 12.5V16.4013ZM18.0508 7.5H16.5V11L20.1833 11L18.7286 7.92894C18.6045 7.667 18.3406 7.5 18.0508 7.5ZM5.5 19C5.5 19.8284 6.17157 20.5 7 20.5C7.82843 20.5 8.5 19.8284 8.5 19C8.5 18.1716 7.82843 17.5 7 17.5C6.17157 17.5 5.5 18.1716 5.5 19ZM15 20.5C15.8284 20.5 16.5 19.8284 16.5 19C16.5 18.1716 15.8284 17.5 15 17.5C14.1716 17.5 13.5 18.1716 13.5 19C13.5 19.8284 14.1716 20.5 15 20.5Z" fill="#212121"/>
</svg>
