<?xml version="1.0" encoding="UTF-8"?>
<svg width="24px" height="24px" viewBox="0 0 24 24" version="1.1" xmlns="http://www.w3.org/2000/svg" xmlns:xlink="http://www.w3.org/1999/xlink">
    <!-- Generator: Sketch 59.1 (86144) - https://sketch.com -->
    <title>ic_fluent_immersive_reader_24_regular</title>
    <desc>Created with Sketch.</desc>
    <g id="ðŸ”-Product-Icons" stroke="none" stroke-width="1" fill="none" fill-rule="evenodd">
        <g id="ic_fluent_immersive_reader_24_regular" fill="#212121" fill-rule="nonzero">
            <path d="M10.9739985,13.5 L13.7703145,11.173457 C14.2317728,10.7895224 14.9184367,11.078118 14.9933085,11.6468141 L15,11.75 L15,20.25 C15,20.8502011 14.3391455,21.1934995 13.8540766,20.8874943 L13.7704712,20.8266734 L10.9741138,18.5013816 L9.25,18.5013816 C8.87030423,18.5013816 8.55650904,18.2192277 8.50684662,17.8531522 L8.5,17.7513816 L8.5,14.25 C8.5,13.8703042 8.78215388,13.556509 9.14822944,13.5068466 L9.25,13.5 L10.9739985,13.5 L13.7703145,11.173457 L10.9739985,13.5 Z M19.2196699,11.4696699 C19.5125631,11.1767767 19.9874369,11.1767767 20.2803301,11.4696699 C21.4279503,12.6172901 22,14.142756 22,16 C22,17.857244 21.4279503,19.3827099 20.2803301,20.5303301 C19.9874369,20.8232233 19.5125631,20.8232233 19.2196699,20.5303301 C18.9267767,20.2374369 18.9267767,19.7625631 19.2196699,19.4696699 C20.0720497,18.6172901 20.5,17.4760894 20.5,16 C20.5,14.5239106 20.0720497,13.3827099 19.2196699,12.5303301 C18.9267767,12.2374369 18.9267767,11.7625631 19.2196699,11.4696699 Z M9.75,3 C10.5379979,3 11.248586,3.33143108 11.749969,3.86249814 C12.2096269,3.37568667 12.8450231,3.05662487 13.5546895,3.00682854 L13.75,3 L19.75,3 C20.6681734,3 21.4211923,3.70711027 21.4941988,4.60647279 L21.5,4.75 L21.5,8.75293922 C21.5,9.16715279 21.1642136,9.50293922 20.75,9.50293922 C20.3703042,9.50293922 20.056509,9.22078534 20.0068466,8.85470978 L20,8.75293922 L20,4.75 C20,4.63165327 19.9177666,4.53251318 19.8073227,4.50660268 L19.75,4.5 L13.75,4.5 C13.1027913,4.5 12.5704661,4.99187466 12.5064536,5.62219476 L12.5,5.75 L12.5,9.74739866 C12.5,10.1616122 12.1642136,10.4973987 11.75,10.4973987 C11.3703042,10.4973987 11.056509,10.2152448 11.0068466,9.84916922 L11,9.74739866 L11,5.75 C11,5.10279131 10.5081253,4.5704661 9.87780524,4.50645361 L9.75,4.5 L3.75,4.5 C3.63165327,4.5 3.53251318,4.58223341 3.50660268,4.69267729 L3.5,4.75 L3.5,17.75 C3.5,17.8683467 3.58223341,17.9674868 3.69267729,17.9933973 L3.75,18 L6.24865991,18 C6.66287347,18 6.99865991,18.3357864 6.99865991,18.75 C6.99865991,19.1296958 6.71650603,19.443491 6.35043047,19.4931534 L6.24865991,19.5 L3.75,19.5 C2.8318266,19.5 2.07880766,18.7928897 2.0058012,17.8935272 L2,17.75 L2,4.75 C2,3.8318266 2.70711027,3.07880766 3.60647279,3.0058012 L3.75,3 L9.75,3 Z M16.7847688,12.9559985 C17.0852125,12.6708557 17.5599242,12.6832595 17.8450671,12.9837032 C18.6131965,13.7930509 19,14.8120979 19,16 C19,17.1958296 18.5900346,18.2207432 17.7802916,19.0303686 C17.4873771,19.3232405 17.0125034,19.3232061 16.7196314,19.0302916 C16.4267595,18.7373771 16.4267939,18.2625034 16.7197084,17.9696314 C17.2432988,17.4461171 17.5,16.804364 17.5,16 C17.5,15.1877085 17.2541806,14.5400888 16.757064,14.0162968 C16.4719212,13.715853 16.484325,13.2411413 16.7847688,12.9559985 Z M13.5,13.3496449 L11.7248882,14.826543 C11.6171132,14.9162122 11.4869395,14.9734232 11.349453,14.9927208 L11.2452028,15 L10,15 L10,17.0013816 L11.2452028,17.0013816 C11.3853467,17.0013816 11.5219537,17.0406274 11.6399548,17.1136723 L11.7247315,17.1747082 L13.5,18.6509205 L13.5,13.3496449 Z" id="ðŸŽ¨-Color"></path>
        </g>
    </g>
</svg>