<?xml version="1.0" encoding="UTF-8"?>
<svg width="24px" height="24px" viewBox="0 0 24 24" version="1.1" xmlns="http://www.w3.org/2000/svg" xmlns:xlink="http://www.w3.org/1999/xlink">
    <!-- Generator: Sketch 59.1 (86144) - https://sketch.com -->
    <title>ic_immersive_reader_24_filled</title>
    <desc>Created with Sketch.</desc>
    <g id="ðŸ”-Product-Icons" stroke="none" stroke-width="1" fill="none" fill-rule="evenodd">
        <g id="ic_immersive_reader_24_filled" fill="#212121">
            <path d="M13.7703145,12.173457 C14.2589174,11.766938 15,12.1143976 15,12.75 L15,12.75 L15,21.25 C15,21.885507 14.2591112,22.2329986 13.7704712,21.8266734 L13.7704712,21.8266734 L10.9741138,19.5013816 L9.25,19.5013816 C8.83578644,19.5013816 8.5,19.1655952 8.5,18.7513816 L8.5,18.7513816 L8.5,15.25 C8.5,14.8357864 8.83578644,14.5 9.25,14.5 L9.25,14.5 L10.9739985,14.5 Z M19.2196699,12.4696699 C19.5125631,12.1767767 19.9874369,12.1767767 20.2803301,12.4696699 C21.4279503,13.6172901 22,15.142756 22,17 C22,18.857244 21.4279503,20.3827099 20.2803301,21.5303301 C19.9874369,21.8232233 19.5125631,21.8232233 19.2196699,21.5303301 C18.9267767,21.2374369 18.9267767,20.7625631 19.2196699,20.4696699 C20.0720497,19.6172901 20.5,18.4760894 20.5,17 C20.5,15.5239106 20.0720497,14.3827099 19.2196699,13.5303301 C18.9267767,13.2374369 18.9267767,12.7625631 19.2196699,12.4696699 Z M9.75,4 C10.5379979,4 11.248586,4.33143108 11.749969,4.86249814 C12.2096269,4.37568667 12.8450231,4.05662487 13.5546895,4.00682854 L13.75,4 L19.75,4 C20.6681734,4 21.4211923,4.70711027 21.4941988,5.60647279 L21.5,5.75 L21.5,9.75293922 C21.5,10.1671528 21.1642136,10.5029392 20.75,10.5029392 C20.3703042,10.5029392 20.056509,10.2207853 20.0068466,9.85470978 L20,9.75293922 L20,5.75 C20,5.63165327 19.9177666,5.53251318 19.8073227,5.50660268 L19.75,5.5 L13.75,5.5 C13.1027913,5.5 12.5704661,5.99187466 12.5064536,6.62219476 L12.5,6.75 L12.5,10.7473987 C12.5,11.1616122 12.1642136,11.4973987 11.75,11.4973987 C11.3703042,11.4973987 11.056509,11.2152448 11.0068466,10.8491692 L11,10.7473987 L11,6.75 C11,6.10279131 10.5081253,5.5704661 9.87780524,5.50645361 L9.75,5.5 L3.75,5.5 C3.63165327,5.5 3.53251318,5.58223341 3.50660268,5.69267729 L3.5,5.75 L3.5,18.75 C3.5,18.8683467 3.58223341,18.9674868 3.69267729,18.9933973 L3.75,19 L6.24865991,19 C6.66287347,19 6.99865991,19.3357864 6.99865991,19.75 C6.99865991,20.1296958 6.71650603,20.443491 6.35043047,20.4931534 L6.24865991,20.5 L3.75,20.5 C2.8318266,20.5 2.07880766,19.7928897 2.0058012,18.8935272 L2,18.75 L2,5.75 C2,4.8318266 2.70711027,4.07880766 3.60647279,4.0058012 L3.75,4 L9.75,4 Z M16.7847688,13.9559985 C17.0852125,13.6708557 17.5599242,13.6832595 17.8450671,13.9837032 C18.6131965,14.7930509 19,15.8120979 19,17 C19,18.1958296 18.5900346,19.2207432 17.7802916,20.0303686 C17.4873771,20.3232405 17.0125034,20.3232061 16.7196314,20.0302916 C16.4267595,19.7373771 16.4267939,19.2625034 16.7197084,18.9696314 C17.2432988,18.4461171 17.5,17.804364 17.5,17 C17.5,16.1877085 17.2541806,15.5400888 16.757064,15.0162968 C16.4719212,14.715853 16.484325,14.2411413 16.7847688,13.9559985 Z" id="ðŸŽ¨-Color"></path>
        </g>
    </g>
</svg>