<svg width="20" height="20" viewBox="0 0 20 20" fill="none" xmlns="http://www.w3.org/2000/svg">
<path d="M4 4.99992C4 3.99292 4.875 3.24492 5.9 2.77692C7.19833 2.2375 8.59433 1.97294 10 1.99992C11.4057 1.97294 12.8017 2.2375 14.1 2.77692C15.125 3.24492 16 3.99292 16 4.99992V8.06142C15.6726 7.97915 15.3272 7.97953 15 8.06254V6.69992C14.7194 6.90626 14.4177 7.08224 14.1 7.22492C12.8015 7.76366 11.4055 8.02754 10 7.99992C8.59433 8.0269 7.19833 7.76234 5.9 7.22292C5.58236 7.08088 5.28068 6.90556 5 6.69992V14.9999C5 15.3739 5.356 15.8749 6.318 16.3129C7.48524 16.792 8.73854 17.0258 10 16.9999L10.0039 17C10.0043 17.3563 10.1018 17.7013 10.2758 18.0015C10.1839 18.0022 10.092 18.0017 10 17.9999C8.59433 18.0269 7.19833 17.7623 5.9 17.2229C4.875 16.7549 4 16.0069 4 14.9999V4.99992ZM5 4.99992C5 5.37392 5.356 5.87492 6.318 6.31292C7.48524 6.79198 8.73854 7.02583 10 6.99992C11.2615 7.02583 12.5148 6.79198 13.682 6.31292C14.644 5.87492 15 5.37392 15 4.99992C15 4.62592 14.644 4.12492 13.682 3.68692C12.5148 3.20786 11.2615 2.97402 10 2.99992C8.73854 2.97402 7.48524 3.20786 6.318 3.68692C5.356 4.12492 5 4.62592 5 4.99992ZM14.6029 9.55356L11.1068 16.552C10.7744 17.2174 11.2583 18 12.0022 18H18.9978C19.7419 18 20.2258 17.2171 19.893 16.5517L16.3935 9.55322C16.0246 8.81544 14.9716 8.81564 14.6029 9.55356ZM15.9983 11.4951V14.4974C15.9983 14.7738 15.7743 14.9978 15.4979 14.9978C15.2215 14.9978 14.9975 14.7738 14.9975 14.4974V11.4951C14.9975 11.2187 15.2215 10.9947 15.4979 10.9947C15.7743 10.9947 15.9983 11.2187 15.9983 11.4951ZM15.4979 16.9993C15.2215 16.9993 14.9975 16.7753 14.9975 16.499C14.9975 16.2226 15.2215 15.9986 15.4979 15.9986C15.7743 15.9986 15.9983 16.2226 15.9983 16.499C15.9983 16.7753 15.7743 16.9993 15.4979 16.9993Z" fill="#212121"/>
</svg>
