<svg width="20" height="20" viewBox="0 0 20 20" fill="none" xmlns="http://www.w3.org/2000/svg">
<path d="M6.75 2.5C4.95507 2.5 3.5 3.95507 3.5 5.75C3.5 7.54493 4.95507 9 6.75 9C8.54493 9 10 7.54493 10 5.75C10 3.95507 8.54493 2.5 6.75 2.5ZM1.5 12C1.5 10.8954 2.39543 10 3.5 10H10C11.1046 10 12 10.8954 12 12V12.0625L12 12.064L12 12.0658L12 12.0705L11.9997 12.0835C11.9995 12.0938 11.9991 12.1074 11.9983 12.1241C11.9968 12.1574 11.9939 12.2031 11.9883 12.2593C11.9772 12.3716 11.9555 12.5272 11.913 12.7118C11.8282 13.08 11.6586 13.5719 11.3176 14.0655C10.6166 15.0801 9.26315 16 6.75 16C4.23685 16 2.8834 15.0801 2.18238 14.0655C1.8414 13.5719 1.67175 13.08 1.58697 12.7118C1.54446 12.5272 1.52278 12.3716 1.5117 12.2593C1.50614 12.2031 1.50322 12.1574 1.50169 12.1241C1.50092 12.1074 1.5005 12.0938 1.50027 12.0835L1.50005 12.0705L1.50001 12.0658L1.5 12.064L1.5 12.0625V12ZM14.5 4C13.1193 4 12 5.11929 12 6.5C12 7.88071 13.1193 9 14.5 9C15.8807 9 17 7.88071 17 6.5C17 5.11929 15.8807 4 14.5 4ZM15.5835 11.5815L15.8673 10.8312C16.1246 10.151 16.9292 9.81477 17.607 10.1042L17.9953 10.27C18.468 10.4719 18.8595 10.8383 18.942 11.3309C19.3986 14.0554 17.0336 17.9314 14.3117 18.9196C13.8196 19.0982 13.2885 18.9606 12.8674 18.6742L12.5215 18.4389C11.9177 18.0282 11.8231 17.2007 12.317 16.6498L12.8618 16.0421C13.1187 15.7555 13.5197 15.6303 13.8955 15.7193L15.1206 16.0095C16.0924 15.4023 16.6133 14.5487 16.683 13.4487L15.805 12.59C15.5355 12.3265 15.4496 11.9353 15.5835 11.5815Z" fill="#212121"/>
</svg>
