<svg width="20" height="20" viewBox="0 0 20 20" fill="none" xmlns="http://www.w3.org/2000/svg">
<path d="M9 15.5C9 16.0368 9.12085 16.5454 9.33682 17H8V13H10.0505C9.40223 13.6353 9 14.5207 9 15.5ZM13 8L13 12H16.5C16.6698 12 16.8367 12.0121 17 12.0354V8H13ZM12 12L12 8H8V12H12ZM7 12V8H3V12H7ZM3 13H7V17H5.5C4.11929 17 3 15.8807 3 14.5V13ZM13 7H17V5.5C17 4.11929 15.8807 3 14.5 3H13V7ZM12 3V7H8V3H12ZM7 3V7H3V5.5C3 4.11929 4.11929 3 5.5 3H7ZM10 15.5C10 14.1193 11.1193 13 12.5 13H13C13.2761 13 13.5 13.2239 13.5 13.5C13.5 13.7761 13.2761 14 13 14H12.5C11.6716 14 11 14.6716 11 15.5C11 16.3284 11.6716 17 12.5 17H13C13.2761 17 13.5 17.2239 13.5 17.5C13.5 17.7761 13.2761 18 13 18H12.5C11.1193 18 10 16.8807 10 15.5ZM15.5 13.5C15.5 13.2239 15.7239 13 16 13H16.5C17.8807 13 19 14.1193 19 15.5C19 16.8807 17.8807 18 16.5 18H16C15.7239 18 15.5 17.7761 15.5 17.5C15.5 17.2239 15.7239 17 16 17H16.5C17.3284 17 18 16.3284 18 15.5C18 14.6716 17.3284 14 16.5 14H16C15.7239 14 15.5 13.7761 15.5 13.5ZM12.5 15C12.2239 15 12 15.2239 12 15.5C12 15.7761 12.2239 16 12.5 16H16.5C16.7761 16 17 15.7761 17 15.5C17 15.2239 16.7761 15 16.5 15H12.5Z" fill="#212121"/>
</svg>
