<svg width="32" height="32" viewBox="0 0 32 32" fill="none" xmlns="http://www.w3.org/2000/svg">
<path d="M13.9984 15.9972C17.8636 15.9972 20.997 12.8638 20.997 8.99858C20.997 5.13337 17.8636 2 13.9984 2C10.1332 2 6.99986 5.13337 6.99986 8.99858C6.99986 12.8638 10.1332 15.9972 13.9984 15.9972ZM13.9984 13.9972C11.2378 13.9972 8.99986 11.7592 8.99986 8.99858C8.99986 6.23794 11.2378 4 13.9984 4C16.7591 4 18.997 6.23794 18.997 8.99858C18.997 11.7592 16.7591 13.9972 13.9984 13.9972ZM5.5 19.9965C4.67156 19.9965 3.99998 20.6681 4 21.4966L4.00001 21.996C4.00001 23.4681 4.93953 24.9439 6.75802 26.1011C8.56465 27.2508 11.1216 27.9946 13.9977 27.9946C15.3868 27.9946 16.7014 27.8211 17.893 27.5122L19.4991 29.1182C17.8424 29.682 15.9686 29.9946 13.9977 29.9946C10.7999 29.9946 7.858 29.1717 5.68426 27.7884C3.52239 26.4127 2.00003 24.3891 2.00001 21.996L2 21.4966C1.99994 19.5636 3.56696 17.9965 5.5 17.9965H15.033C15.0097 18.1599 14.9976 18.3269 14.9976 18.4967V19.9965H5.5ZM30.2972 26.1921L26.1922 30.2972C25.2551 31.2343 23.7358 31.2343 22.7987 30.2972L17.0827 24.5812C16.7077 24.2062 16.4971 23.6976 16.4971 23.1673V18.4967C16.4971 17.3923 17.3923 16.4971 18.4967 16.4971H23.1673C23.6976 16.4971 24.2062 16.7077 24.5812 17.0827L30.2972 22.7987C31.2343 23.7358 31.2343 25.2551 30.2972 26.1921ZM19.9966 20.9965C20.5489 20.9965 20.9966 20.5488 20.9966 19.9965C20.9966 19.4443 20.5489 18.9965 19.9966 18.9965C19.4443 18.9965 18.9966 19.4443 18.9966 19.9965C18.9966 20.5488 19.4443 20.9965 19.9966 20.9965Z" fill="#212121"/>
</svg>
