<svg width="28" height="28" viewBox="0 0 28 28" fill="none" xmlns="http://www.w3.org/2000/svg">
<path d="M25.7803 3.28031C26.0732 2.98742 26.0732 2.51255 25.7803 2.21965C25.4874 1.92675 25.0125 1.92674 24.7196 2.21963L16.4631 10.4758C13.8138 8.35393 9.93625 8.5201 7.47932 10.9743L6.78556 11.6546L2.3589 14.36C2.16275 14.4799 2.03241 14.6831 2.00526 14.9114C1.9781 15.1396 2.05713 15.3678 2.21968 15.5303L12.4697 25.7803C12.6322 25.9429 12.8603 26.0219 13.0886 25.9947C13.3169 25.9676 13.5201 25.8372 13.64 25.6411L16.3455 21.2139L17.0254 20.5202C19.4795 18.0632 19.6456 14.1857 17.5238 11.5365L25.7803 3.28031ZM3.95388 15.1432L7.13687 13.1979L14.8022 20.8628L12.8568 24.0461L3.95388 15.1432ZM15.9619 19.4623L15.7447 19.6839L8.31552 12.2552L8.53211 12.0429L8.53731 12.0377C10.5876 9.98742 13.9117 9.98742 15.9619 12.0377C18.0122 14.0879 18.0122 17.412 15.9619 19.4623Z" fill="#212121"/>
</svg>
