<svg width="20" height="20" viewBox="0 0 20 20" fill="none" xmlns="http://www.w3.org/2000/svg">
<path d="M14.8777 0.282251L15.226 1.35305C15.3343 1.67859 15.5171 1.97441 15.7599 2.21699C16.0026 2.45957 16.2987 2.64223 16.6245 2.75044L17.6961 3.09845L17.7175 3.10381C17.8001 3.13292 17.8716 3.18692 17.9222 3.25836C17.9728 3.3298 18 3.41516 18 3.50268C18 3.5902 17.9728 3.67556 17.9222 3.747C17.8716 3.81844 17.8001 3.87244 17.7175 3.90155L16.6459 4.24956C16.3201 4.35778 16.0241 4.54044 15.7813 4.78302C15.5385 5.0256 15.3558 5.32141 15.2475 5.64696L14.8992 6.71775C14.87 6.80029 14.816 6.87175 14.7445 6.92231C14.673 6.97286 14.5876 7.00001 14.5 7.00001C14.4124 7.00001 14.327 6.97286 14.2555 6.92231C14.2484 6.91732 14.2416 6.91213 14.2349 6.90675C14.1736 6.85755 14.1271 6.79215 14.1008 6.71775L13.7525 5.64696C13.7338 5.59014 13.7128 5.53422 13.6897 5.47932C13.5796 5.21872 13.4202 4.98116 13.2197 4.77999C13.1815 4.74173 13.1421 4.70496 13.1014 4.66973C12.883 4.48064 12.6292 4.33588 12.3541 4.24421L11.2825 3.8962C11.1999 3.86708 11.1284 3.81308 11.0778 3.74164C11.0272 3.6702 11 3.58484 11 3.49733C11 3.40981 11.0272 3.32445 11.0778 3.25301C11.1284 3.18157 11.1999 3.12757 11.2825 3.09845L12.3541 2.75044C12.6759 2.63941 12.9677 2.45549 13.2066 2.21307C13.4454 1.97065 13.625 1.67631 13.7311 1.35305L14.0794 0.282251C14.1085 0.19972 14.1626 0.128252 14.2341 0.0776997C14.3056 0.0271473 14.391 0 14.4786 0C14.5662 0 14.6516 0.0271473 14.7231 0.0776997C14.7946 0.128252 14.8486 0.19972 14.8777 0.282251ZM19.7829 8.21319L19.0175 7.96461C18.7848 7.88731 18.5733 7.75684 18.3999 7.58357C18.2265 7.4103 18.0959 7.199 18.0186 6.96647L17.7698 6.20161C17.749 6.14266 17.7104 6.09161 17.6593 6.05551C17.6083 6.0194 17.5473 6.00001 17.4847 6.00001C17.4221 6.00001 17.3611 6.0194 17.31 6.05551C17.259 6.09161 17.2204 6.14266 17.1996 6.20161L16.9508 6.96647C16.875 7.19737 16.7467 7.40762 16.5761 7.58077C16.4055 7.75392 16.1971 7.8853 15.9672 7.96461L15.2018 8.21319C15.1428 8.23398 15.0917 8.27255 15.0555 8.32358C15.0194 8.37461 15 8.43558 15 8.4981C15 8.56061 15.0194 8.62158 15.0555 8.67261C15.0917 8.72364 15.1428 8.76221 15.2018 8.78301L15.9672 9.03158C16.2003 9.10926 16.412 9.24032 16.5855 9.41428C16.7589 9.58824 16.8893 9.80031 16.9661 10.0335L17.2149 10.7984C17.2357 10.8574 17.2743 10.9084 17.3254 10.9445C17.3764 10.9806 17.4374 11 17.5 11C17.5626 11 17.6236 10.9806 17.6746 10.9445C17.7257 10.9084 17.7643 10.8574 17.7851 10.7984L18.0339 10.0335C18.1113 9.80101 18.2418 9.58972 18.4152 9.41645C18.5886 9.24317 18.8001 9.11271 19.0328 9.03541L19.7982 8.78683C19.8572 8.76603 19.9083 8.72746 19.9445 8.67643C19.9806 8.62541 20 8.56443 20 8.50192C20 8.43941 19.9806 8.37844 19.9445 8.32741C19.9083 8.27638 19.8572 8.23781 19.7982 8.21701L19.7829 8.21319ZM6 3H10.1046C10.041 3.15833 10.0052 3.32751 10 3.50002C10.002 3.67222 10.0353 3.84151 10.0972 4H6C4.89543 4 4 4.89543 4 6V14C4 15.1046 4.89543 16 6 16H14C15.1046 16 16 15.1046 16 14V10.2975C16.0075 10.3147 16.0142 10.3322 16.02 10.35L16.26 11.11C16.3526 11.3719 16.5237 11.5989 16.75 11.76C16.8283 11.816 16.9122 11.8627 17 11.8996V14C17 15.6569 15.6569 17 14 17H6C4.34315 17 3 15.6569 3 14V6C3 4.34315 4.34315 3 6 3ZM5.5 5H11.4888L12.1 5.20002C12.2494 5.24446 12.3864 5.32322 12.5 5.43002L12.56 5.49002C12.6721 5.59731 12.7606 5.72671 12.82 5.87002V5.96002L12.8327 6H5.5C5.22386 6 5 5.77614 5 5.5C5 5.22386 5.22386 5 5.5 5ZM9.5 9H14.099C14.1361 9.08793 14.1833 9.17186 14.24 9.25002C14.3954 9.47119 14.6155 9.63885 14.87 9.73002L14.9331 9.74999C14.8467 9.89945 14.6851 10 14.5 10H9.5C9.22386 10 9 9.77614 9 9.5C9 9.22386 9.22386 9 9.5 9ZM6.5 11C7.32843 11 8 10.3284 8 9.5C8 8.67157 7.32843 8 6.5 8C5.67157 8 5 8.67157 5 9.5C5 10.3284 5.67157 11 6.5 11ZM6.5 10C6.22386 10 6 9.77614 6 9.5C6 9.22386 6.22386 9 6.5 9C6.77614 9 7 9.22386 7 9.5C7 9.77614 6.77614 10 6.5 10ZM8 13.5C8 14.3284 7.32843 15 6.5 15C5.67157 15 5 14.3284 5 13.5C5 12.6716 5.67157 12 6.5 12C7.32843 12 8 12.6716 8 13.5ZM7 13.5C7 13.2239 6.77614 13 6.5 13C6.22386 13 6 13.2239 6 13.5C6 13.7761 6.22386 14 6.5 14C6.77614 14 7 13.7761 7 13.5ZM9.5 13C9.22386 13 9 13.2239 9 13.5C9 13.7761 9.22386 14 9.5 14H14.5C14.7761 14 15 13.7761 15 13.5C15 13.2239 14.7761 13 14.5 13H9.5Z" fill="#212121"/>
</svg>
