<svg width="28" height="28" viewBox="0 0 28 28" fill="none" xmlns="http://www.w3.org/2000/svg">
<path d="M15.2196 11.7197C14.9267 12.0126 14.9267 12.4874 15.2196 12.7803C15.5125 13.0732 15.9874 13.0732 16.2803 12.7803L24.4999 4.56066V10.75C24.4999 11.1642 24.8357 11.5 25.2499 11.5C25.6641 11.5 25.9999 11.1642 25.9999 10.75V2.75C25.9999 2.33579 25.6641 2 25.2499 2H17.2499C16.8357 2 16.4999 2.33579 16.4999 2.75C16.4999 3.16421 16.8357 3.5 17.2499 3.5H23.4393L15.2196 11.7197Z" fill="#212121"/>
<path d="M4.09127 2.8827C5.21094 2.16352 6.64368 1.88768 8.05881 2.08066L8.30499 2.11423C9.20527 2.23699 9.98679 2.79652 10.3931 3.6092L11.6838 6.19068C12.4168 7.65668 11.9435 9.43908 10.5797 10.3483L8.87181 11.4868C8.47496 11.7514 8.36361 12.1185 8.45156 12.3861C8.98221 14.0005 10.3923 16.1883 11.6209 17.4415C11.852 17.6772 12.2682 17.7465 12.6966 17.5109L14.0006 16.7937C15.8198 15.7931 18.1058 16.4612 19.0999 18.2839L20.1425 20.1953C20.5853 21.0071 20.5901 21.9873 20.1561 22.8036C18.7066 25.5294 15.3991 27.042 12.5927 25.2054C10.199 23.6389 7.25716 21.0435 4.85048 16.875C2.4083 12.6451 1.91902 8.97899 2.0697 6.32442C2.15663 4.79304 2.95617 3.61178 4.09127 2.8827Z" fill="#212121"/>
</svg>
