<svg width="20" height="20" viewBox="0 0 20 20" fill="none" xmlns="http://www.w3.org/2000/svg">
<path d="M4.25 3C4.00558 3 3.79699 3.17671 3.7568 3.4178L3.5068 4.9178C3.46141 5.19019 3.64542 5.4478 3.9178 5.4932C4.19019 5.53859 4.4478 5.35458 4.4932 5.0822L4.67356 4H8.2424L6.50748 13.9138C6.50242 13.9428 6.49995 13.9716 6.49992 14H5.5C5.22386 14 5 14.2239 5 14.5C5 14.7761 5.22386 15 5.5 15H8.5C8.77614 15 9 14.7761 9 14.5C9 14.2239 8.77614 14 8.5 14H7.5076L9.24252 4.08619C9.24758 4.05723 9.25005 4.02842 9.25008 4H12.6598L12.5068 4.9178C12.4614 5.19019 12.6454 5.4478 12.9178 5.4932C13.1902 5.53859 13.4478 5.35458 13.4932 5.0822L13.7432 3.5822C13.7674 3.43722 13.7265 3.28896 13.6315 3.17681C13.5365 3.06467 13.397 3 13.25 3H4.25ZM9.59971 17C9.43777 16.6832 9.30564 16.3486 9.20703 16H2.5C2.22386 16 2 16.2239 2 16.5C2 16.7761 2.22386 17 2.5 17H9.59971ZM19 14.5C19 16.9853 16.9853 19 14.5 19C12.0147 19 10 16.9853 10 14.5C10 12.0147 12.0147 10 14.5 10C16.9853 10 19 12.0147 19 14.5ZM16.3536 13.3536C16.5488 13.1583 16.5488 12.8417 16.3536 12.6464C16.1583 12.4512 15.8417 12.4512 15.6464 12.6464L14.5 13.7929L13.3536 12.6464C13.1583 12.4512 12.8417 12.4512 12.6464 12.6464C12.4512 12.8417 12.4512 13.1583 12.6464 13.3536L13.7929 14.5L12.6464 15.6464C12.4512 15.8417 12.4512 16.1583 12.6464 16.3536C12.8417 16.5488 13.1583 16.5488 13.3536 16.3536L14.5 15.2071L15.6464 16.3536C15.8417 16.5488 16.1583 16.5488 16.3536 16.3536C16.5488 16.1583 16.5488 15.8417 16.3536 15.6464L15.2071 14.5L16.3536 13.3536Z" fill="#212121"/>
</svg>
