<svg width="16" height="16" viewBox="0 0 16 16" fill="none" xmlns="http://www.w3.org/2000/svg">
<path d="M2.75 3C2.33579 3 2 3.33579 2 3.75C2 4.16421 2.33579 4.5 2.75 4.5H13.25C13.6642 4.5 14 4.16421 14 3.75C14 3.33579 13.6642 3 13.25 3H2.75ZM2.75 7C2.33579 7 2 7.33579 2 7.75C2 8.16421 2.33579 8.5 2.75 8.5H12.25C12.9404 8.5 13.5 9.05964 13.5 9.75C13.5 10.4404 12.9404 11 12.25 11H10.5607L10.7803 10.7803C11.0732 10.4874 11.0732 10.0126 10.7803 9.71967C10.4874 9.42678 10.0126 9.42678 9.71967 9.71967L8.21967 11.2197C7.92678 11.5126 7.92678 11.9874 8.21967 12.2803L9.71967 13.7803C10.0126 14.0732 10.4874 14.0732 10.7803 13.7803C11.0732 13.4874 11.0732 13.0126 10.7803 12.7197L10.5607 12.5H12.25C13.7688 12.5 15 11.2688 15 9.75C15 8.23122 13.7688 7 12.25 7H2.75ZM2 11.75C2 11.3358 2.33579 11 2.75 11H5.75C6.16421 11 6.5 11.3358 6.5 11.75C6.5 12.1642 6.16421 12.5 5.75 12.5H2.75C2.33579 12.5 2 12.1642 2 11.75Z" fill="#212121"/>
</svg>
