<svg width="32" height="32" viewBox="0 0 32 32" fill="none" xmlns="http://www.w3.org/2000/svg">
<path d="M8.5 16C4.35786 16 1 12.6421 1 8.5C1 4.35786 4.35786 1 8.5 1C12.6421 1 16 4.35786 16 8.5C16 12.6421 12.6421 16 8.5 16ZM9.5 3.75C9.5 3.33579 9.16421 3 8.75 3C8.33579 3 8 3.33579 8 3.75V7.5H4.25C3.83579 7.5 3.5 7.83579 3.5 8.25C3.5 8.66421 3.83579 9 4.25 9H8V12.75C8 13.1642 8.33579 13.5 8.75 13.5C9.16421 13.5 9.5 13.1642 9.5 12.75V9H13.25C13.6642 9 14 8.66421 14 8.25C14 7.83579 13.6642 7.5 13.25 7.5H9.5V3.75ZM17.5 8.5C17.5 13.4706 13.4706 17.5 8.5 17.5C6.42877 17.5 4.52095 16.8003 3 15.6245V24.5C3 25.349 3.23512 26.1431 3.64381 26.8207L14.2323 16.2322C15.2086 15.2559 16.7915 15.2559 17.7678 16.2322L28.3563 26.8206C28.7649 26.143 29 25.349 29 24.5V7.5C29 5.01472 26.9853 3 24.5 3H15.6245C16.8003 4.52095 17.5 6.42877 17.5 8.5ZM24.5 11C24.5 12.6569 23.1569 14 21.5 14C19.8431 14 18.5 12.6569 18.5 11C18.5 9.34315 19.8431 8 21.5 8C23.1569 8 24.5 9.34315 24.5 11ZM26.9696 28.2624L16.3536 17.6464C16.1584 17.4512 15.8418 17.4512 15.6465 17.6464L5.0305 28.2625C5.73945 28.7287 6.58804 29 7.5 29H24.5C25.412 29 26.2606 28.7287 26.9696 28.2624Z" fill="#212121"/>
</svg>
