<svg width="28" height="28" viewBox="0 0 28 28" fill="none" xmlns="http://www.w3.org/2000/svg">
<path d="M4 16L15 16.001C16.0538 16.001 16.9181 16.8165 16.9945 17.8517L17 18.001V20.5C16.999 24.7 12.713 26 9.5 26C6.35126 26 2.17105 24.7515 2.0051 20.7485L2 20.5V18C2 16.9462 2.8164 16.0819 3.85081 16.0055L4 16ZM17.22 16.001L24 16C25.0538 16 25.9181 16.8164 25.9945 17.8508L26 18V20C25.999 23.759 22.57 25 20 25C18.942 25 17.741 24.785 16.691 24.275C17.4433 23.3809 17.9316 22.2428 17.9934 20.8113L18 20.5V18.001C18 17.2992 17.7512 16.6602 17.3461 16.1501L17.22 16.001L24 16L17.22 16.001ZM9.5 3C12.537 3 15 5.463 15 8.5C15 11.537 12.537 14 9.5 14C6.463 14 4 11.537 4 8.5C4 5.463 6.463 3 9.5 3ZM20.5 5C22.985 5 25 7.015 25 9.5C25 11.985 22.985 14 20.5 14C18.015 14 16 11.985 16 9.5C16 7.015 18.015 5 20.5 5Z" fill="#212121"/>
</svg>
