<svg width="16" height="16" viewBox="0 0 16 16" fill="none" xmlns="http://www.w3.org/2000/svg">
<path d="M7.5 9C8.60457 9 9.5 9.89543 9.5 11C9.5 11.9652 8.90834 12.7303 8.08887 13.2295C7.27028 13.7281 6.17505 14 5 14C3.82495 14 2.72972 13.7281 1.91113 13.2295C1.09166 12.7303 0.5 11.9652 0.5 11C0.5 9.89543 1.39543 9 2.5 9H7.5ZM2.5 10C1.94772 10 1.5 10.4477 1.5 11C1.5 11.5075 1.80358 11.9924 2.43164 12.375C3.06077 12.7582 3.96592 13 5 13C6.03408 13 6.93923 12.7582 7.56836 12.375C8.19642 11.9924 8.5 11.5075 8.5 11C8.5 10.4477 8.05228 10 7.5 10H2.5ZM14.1523 9.00781C14.9087 9.08461 15.499 9.72334 15.499 10.5C15.499 11.2715 15.0297 11.9086 14.3975 12.3301C13.7617 12.7539 12.9124 13 11.999 13C11.3 13 10.639 12.8544 10.082 12.5967C10.2422 12.3096 10.3626 11.9955 10.4316 11.6543C10.855 11.8647 11.3958 12 11.999 12C12.7425 12 13.3928 11.798 13.8428 11.498C14.2963 11.1957 14.499 10.8331 14.499 10.5C14.499 10.2583 14.3276 10.0563 14.0996 10.0098L13.999 10H10.3252C10.1964 9.63609 9.99985 9.30552 9.75 9.02148C9.83104 9.00794 9.91413 9 9.99902 9H13.999L14.1523 9.00781ZM12.2314 3.50879C13.3671 3.6239 14.2539 4.58302 14.2539 5.74902L14.2422 5.97852C14.1269 7.11389 13.1677 8.00085 12.002 8.00098L11.7715 7.98926C10.7117 7.88165 9.86935 7.03827 9.76172 5.97852L9.75 5.74902C9.75 4.50544 10.7584 3.49707 12.002 3.49707L12.2314 3.50879ZM5 2.5C6.51878 2.5 7.75 3.73122 7.75 5.25C7.75 6.76878 6.51878 8 5 8C3.48122 8 2.25 6.76878 2.25 5.25C2.25 3.73122 3.48122 2.5 5 2.5ZM12.002 4.49707C11.3107 4.49707 10.75 5.05772 10.75 5.74902C10.7504 6.43999 11.3109 7.00098 12.002 7.00098C12.6929 7.00084 13.2535 6.43991 13.2539 5.74902C13.2539 5.05781 12.6931 4.4972 12.002 4.49707ZM5 3.5C4.0335 3.5 3.25 4.2835 3.25 5.25C3.25 6.2165 4.0335 7 5 7C5.9665 7 6.75 6.2165 6.75 5.25C6.75 4.2835 5.9665 3.5 5 3.5Z" fill="#212121"/>
</svg>
