<svg width="16" height="16" viewBox="0 0 16 16" fill="none" xmlns="http://www.w3.org/2000/svg">
<path d="M14 11.5V5.5L8 4.5L2 5.5V11.5C2 12.8807 3.11929 14 4.5 14H11.5C12.8807 14 14 12.8807 14 11.5Z" fill="url(#paint0_linear_378174_9813)"/>
<path d="M14 11.5V5.5L8 4.5L2 5.5V11.5C2 12.8807 3.11929 14 4.5 14H11.5C12.8807 14 14 12.8807 14 11.5Z" fill="url(#paint1_linear_378174_9813)"/>
<path d="M14 11.5V5.5L8 4.5L2 5.5V11.5C2 12.8807 3.11929 14 4.5 14H11.5C12.8807 14 14 12.8807 14 11.5Z" fill="url(#paint2_radial_378174_9813)" fill-opacity="0.3"/>
<path d="M14 4.5C14 3.11929 12.8807 2 11.5 2H4.5C3.11929 2 2 3.11929 2 4.5V6H14V4.5Z" fill="url(#paint3_linear_378174_9813)"/>
<path d="M16 11.5C16 13.9853 13.9853 16 11.5 16C9.01472 16 7 13.9853 7 11.5C7 9.01472 9.01472 7 11.5 7C13.9853 7 16 9.01472 16 11.5Z" fill="url(#paint4_linear_378174_9813)"/>
<path fill-rule="evenodd" clip-rule="evenodd" d="M9.64645 9.64645C9.84171 9.45118 10.1583 9.45118 10.3536 9.64645L11.5 10.7929L12.6464 9.64645C12.8417 9.45118 13.1583 9.45118 13.3536 9.64645C13.5488 9.84171 13.5488 10.1583 13.3536 10.3536L12.2071 11.5L13.3536 12.6464C13.5488 12.8417 13.5488 13.1583 13.3536 13.3536C13.1583 13.5488 12.8417 13.5488 12.6464 13.3536L11.5 12.2071L10.3536 13.3536C10.1583 13.5488 9.84171 13.5488 9.64645 13.3536C9.45118 13.1583 9.45118 12.8417 9.64645 12.6464L10.7929 11.5L9.64645 10.3536C9.45118 10.1583 9.45118 9.84171 9.64645 9.64645Z" fill="url(#paint5_linear_378174_9813)"/>
<defs>
<linearGradient id="paint0_linear_378174_9813" x1="6.28571" y1="4.5" x2="9.32709" y2="13.9867" gradientUnits="userSpaceOnUse">
<stop stop-color="#B3E0FF"/>
<stop offset="1" stop-color="#8CD0FF"/>
</linearGradient>
<linearGradient id="paint1_linear_378174_9813" x1="9.28571" y1="8.38636" x2="11.0248" y2="16.1535" gradientUnits="userSpaceOnUse">
<stop stop-color="#DCF8FF" stop-opacity="0"/>
<stop offset="1" stop-color="#FF6CE8" stop-opacity="0.7"/>
</linearGradient>
<radialGradient id="paint2_radial_378174_9813" cx="0" cy="0" r="1" gradientUnits="userSpaceOnUse" gradientTransform="translate(11.8571 12.7045) rotate(88.7957) scale(6.79696 6.61452)">
<stop offset="0.497076" stop-color="#4A43CB"/>
<stop offset="1" stop-color="#4A43CB" stop-opacity="0"/>
</radialGradient>
<linearGradient id="paint3_linear_378174_9813" x1="2.48214" y1="2" x2="4.02593" y2="8.72509" gradientUnits="userSpaceOnUse">
<stop stop-color="#0094F0"/>
<stop offset="1" stop-color="#2764E7"/>
</linearGradient>
<linearGradient id="paint4_linear_378174_9813" x1="8.40625" y1="7.5625" x2="14.3125" y2="16.2812" gradientUnits="userSpaceOnUse">
<stop stop-color="#F83F54"/>
<stop offset="1" stop-color="#CA2134"/>
</linearGradient>
<linearGradient id="paint5_linear_378174_9813" x1="9.977" y1="11.6523" x2="11.7714" y2="13.5182" gradientUnits="userSpaceOnUse">
<stop stop-color="#FDFDFD"/>
<stop offset="1" stop-color="#FECBE6"/>
</linearGradient>
</defs>
</svg>
