<svg width="24" height="24" viewBox="0 0 24 24" fill="none" xmlns="http://www.w3.org/2000/svg">
<path d="M21 7.5V17.75C21 19.5449 19.5449 21 17.75 21H6.25C4.45507 21 3 19.5449 3 17.75V7.5L12 6.5L21 7.5Z" fill="url(#paint0_linear_378174_9823)"/>
<path d="M21 7.5V17.75C21 19.5449 19.5449 21 17.75 21H6.25C4.45507 21 3 19.5449 3 17.75V7.5L12 6.5L21 7.5Z" fill="url(#paint1_linear_378174_9823)"/>
<path d="M21 7.5V17.75C21 19.5449 19.5449 21 17.75 21H6.25C4.45507 21 3 19.5449 3 17.75V7.5L12 6.5L21 7.5Z" fill="url(#paint2_radial_378174_9823)" fill-opacity="0.3"/>
<path d="M17.75 3C19.5449 3 21 4.45507 21 6.25V8H3V6.25C3 4.45507 4.45507 3 6.25 3H17.75Z" fill="url(#paint3_linear_378174_9823)"/>
<path d="M17.5 12C20.5376 12 23 14.4624 23 17.5C23 20.5376 20.5376 23 17.5 23C14.4624 23 12 20.5376 12 17.5C12 14.4624 14.4624 12 17.5 12Z" fill="url(#paint4_linear_378174_9823)"/>
<path d="M15.0239 15.0244C14.8286 15.2196 14.8286 15.5362 15.0239 15.7315L16.7931 17.5012L15.0265 19.2677C14.8312 19.463 14.8312 19.7796 15.0265 19.9748C15.2217 20.1701 15.5383 20.1701 15.7336 19.9748L17.5001 18.2082L19.2695 19.9771C19.4647 20.1723 19.7813 20.1723 19.9766 19.9771C20.1719 19.7818 20.1719 19.4652 19.9766 19.27L18.2081 17.5012L19.9794 15.7315C20.1746 15.5363 20.1746 15.2197 19.9794 15.0244C19.7841 14.8292 19.4675 14.8292 19.2723 15.0244L17.5011 16.7942L15.731 15.0244C15.5357 14.8291 15.2192 14.8291 15.0239 15.0244Z" fill="url(#paint5_linear_378174_9823)"/>
<defs>
<linearGradient id="paint0_linear_378174_9823" x1="9.42857" y1="6.5" x2="14.1366" y2="20.9321" gradientUnits="userSpaceOnUse">
<stop stop-color="#B3E0FF"/>
<stop offset="1" stop-color="#8CD0FF"/>
</linearGradient>
<linearGradient id="paint1_linear_378174_9823" x1="13.9286" y1="12.4318" x2="16.625" y2="24.267" gradientUnits="userSpaceOnUse">
<stop stop-color="#DCF8FF" stop-opacity="0"/>
<stop offset="1" stop-color="#FF6CE8" stop-opacity="0.7"/>
</linearGradient>
<radialGradient id="paint2_radial_378174_9823" cx="0" cy="0" r="1" gradientUnits="userSpaceOnUse" gradientTransform="translate(17.7857 19.0227) rotate(90) scale(8.56818 8.35714)">
<stop offset="0.535" stop-color="#4A43CB"/>
<stop offset="1" stop-color="#4A43CB" stop-opacity="0"/>
</radialGradient>
<linearGradient id="paint3_linear_378174_9823" x1="3.72321" y1="3" x2="5.35631" y2="11.5369" gradientUnits="userSpaceOnUse">
<stop stop-color="#0094F0"/>
<stop offset="1" stop-color="#2764E7"/>
</linearGradient>
<linearGradient id="paint4_linear_378174_9823" x1="13.7187" y1="12.6875" x2="20.9375" y2="23.3437" gradientUnits="userSpaceOnUse">
<stop stop-color="#F83F54"/>
<stop offset="1" stop-color="#CA2134"/>
</linearGradient>
<linearGradient id="paint5_linear_378174_9823" x1="15.5033" y1="17.7005" x2="17.8565" y2="20.1487" gradientUnits="userSpaceOnUse">
<stop stop-color="#FDFDFD"/>
<stop offset="1" stop-color="#FECBE6"/>
</linearGradient>
</defs>
</svg>
