<svg width="16" height="16" viewBox="0 0 16 16" fill="none" xmlns="http://www.w3.org/2000/svg">
<path d="M1.16797 4C1.44883 3.40876 2.05146 3 2.74956 3H13.2496C13.9477 3 14.5503 3.40876 14.8312 4H1.16797ZM5.17071 6H1V7H5C5 6.64936 5.06015 6.31278 5.17071 6ZM6 7C6 6.63571 6.09739 6.29417 6.26756 6C6.61337 5.4022 7.25972 5 8 5C8.74028 5 9.38663 5.4022 9.73244 6C9.90261 6.29417 10 6.63571 10 7C10 8.10457 9.10457 9 8 9C6.89543 9 6 8.10457 6 7ZM5.76389 9H1V10H4.26756C4.57786 9.46358 5.13014 9.08466 5.77515 9.0125L5.76389 9ZM4 12H1.16797C1.44883 12.5912 2.05146 13 2.74956 13H4V12ZM5 11C5 10.4477 5.44772 10 6 10H10C10.5523 10 11 10.4477 11 11V13H5V11ZM12 12V13H13.2496C13.9477 13 14.5503 12.5912 14.8312 12H12ZM11.7324 10C11.4221 9.46358 10.8699 9.08466 10.2249 9.0125L10.2361 9H15V10H11.7324ZM11 7H15V6H10.8293C10.9398 6.31278 11 6.64936 11 7Z" fill="#212121"/>
</svg>
