<?xml version="1.0" encoding="UTF-8"?>
<svg width="24px" height="24px" viewBox="0 0 24 24" version="1.1" xmlns="http://www.w3.org/2000/svg" xmlns:xlink="http://www.w3.org/1999/xlink">
    <!-- Generator: Sketch 59.1 (86144) - https://sketch.com -->
    <title>ic_fluent_calendar_empty_24_regular</title>
    <desc>Created with Sketch.</desc>
    <g id="ðŸ”-Product-Icons" stroke="none" stroke-width="1" fill="none" fill-rule="evenodd">
        <g id="ic_fluent_calendar_empty_24_regular" fill="#212121" fill-rule="nonzero">
            <path d="M17.75,3 C19.5449254,3 21,4.45507456 21,6.25 L21,17.75 C21,19.5449254 19.5449254,21 17.75,21 L6.25,21 C4.45507456,21 3,19.5449254 3,17.75 L3,6.25 C3,4.45507456 4.45507456,3 6.25,3 L17.75,3 Z M19.5,8.5 L4.5,8.5 L4.5,17.75 C4.5,18.7164983 5.28350169,19.5 6.25,19.5 L17.75,19.5 C18.7164983,19.5 19.5,18.7164983 19.5,17.75 L19.5,8.5 Z M17.75,4.5 L6.25,4.5 C5.28350169,4.5 4.5,5.28350169 4.5,6.25 L4.5,7 L19.5,7 L19.5,6.25 C19.5,5.28350169 18.7164983,4.5 17.75,4.5 Z" id="ðŸŽ¨-Color"></path>
        </g>
    </g>
</svg>