<svg width="20" height="20" viewBox="0 0 20 20" fill="none" xmlns="http://www.w3.org/2000/svg">
<path d="M11.299 7.75C10.7216 6.75 9.27823 6.75 8.70088 7.75L8.24929 8.53218C8.10532 8.78152 8.20117 9.10063 8.45869 9.22939C8.69528 9.34768 8.98306 9.26125 9.11531 9.03218L9.5669 8.25C9.75935 7.91667 10.2405 7.91667 10.4329 8.25L10.8845 9.03218C11.0168 9.26125 11.3046 9.34768 11.5411 9.22939C11.7987 9.10063 11.8945 8.78152 11.7505 8.53218L11.299 7.75ZM12.165 11.25L12.0574 11.0637C11.9135 10.8144 12.0093 10.4953 12.2668 10.3665C12.5034 10.2482 12.7912 10.3347 12.9235 10.5637L13.031 10.75C13.6084 11.75 12.8867 13 11.732 13H10.9999C10.7238 13 10.4999 12.7761 10.4999 12.5C10.4999 12.2239 10.7238 12 10.9999 12H11.732C12.1169 12 12.3574 11.5833 12.165 11.25ZM8.99991 12C9.27606 12 9.49991 12.2239 9.49991 12.5C9.49991 12.7761 9.27606 13 8.99991 13H8.26786C7.11316 13 6.39147 11.75 6.96882 10.75L7.07636 10.5637C7.20861 10.3347 7.4964 10.2482 7.73298 10.3665C7.9905 10.4953 8.08635 10.8144 7.94238 11.0637L7.83485 11.25C7.6424 11.5833 7.88296 12 8.26786 12H8.99991ZM15.9142 2.58579C16.2893 2.96086 16.5 3.46957 16.5 4V4.56L15.17 16.23C15.1133 16.7196 14.8778 17.1711 14.5087 17.4978C14.1396 17.8244 13.6629 18.0033 13.17 18H6.85C6.35711 18.0033 5.88037 17.8244 5.51127 17.4978C5.14216 17.1711 4.90667 16.7196 4.85 16.23L3.5 4.56V4C3.5 3.46957 3.71071 2.96086 4.08579 2.58579C4.46086 2.21071 4.96957 2 5.5 2H14.5C15.0304 2 15.5391 2.21071 15.9142 2.58579ZM14.5 3H5.5C5.23478 3 4.98043 3.10536 4.79289 3.29289C4.60536 3.48043 4.5 3.73478 4.5 4H15.5C15.5 3.73478 15.3946 3.48043 15.2071 3.29289C15.0196 3.10536 14.7652 3 14.5 3ZM13.8309 16.747C14.0156 16.5827 14.1328 16.3557 14.16 16.11L15.44 5H4.56L5.84 16.11C5.86719 16.3557 5.98443 16.5827 6.16911 16.747C6.35378 16.9114 6.59279 17.0015 6.84 17H13.16C13.4072 17.0015 13.6462 16.9114 13.8309 16.747Z" fill="#212121"/>
</svg>
