<svg width="16" height="16" viewBox="0 0 16 16" fill="none" xmlns="http://www.w3.org/2000/svg">
<path d="M4.85355 5.85355C4.65829 6.04882 4.34171 6.04882 4.14645 5.85355C3.95118 5.65829 3.95118 5.34171 4.14645 5.14645L7.14645 2.14645C7.34171 1.95118 7.65829 1.95118 7.85355 2.14645L10.8536 5.14645C11.0488 5.34171 11.0488 5.65829 10.8536 5.85355C10.6583 6.04882 10.3417 6.04882 10.1464 5.85355L8 3.70711V12.2929L10.1464 10.1464C10.3417 9.95118 10.6583 9.95118 10.8536 10.1464C11.0488 10.3417 11.0488 10.6583 10.8536 10.8536L7.85355 13.8536C7.65829 14.0488 7.34171 14.0488 7.14645 13.8536L4.14645 10.8536C3.95118 10.6583 3.95118 10.3417 4.14645 10.1464C4.34171 9.95118 4.65829 9.95118 4.85355 10.1464L7 12.2929V3.70711L4.85355 5.85355Z" fill="#212121"/>
</svg>
