<svg width="48" height="48" viewBox="0 0 48 48" fill="none" xmlns="http://www.w3.org/2000/svg">
<path d="M37.75 20.2501C38.6682 20.2501 39.4212 20.9572 39.4942 21.8565L39.5 22.0001V36.2501C39.5 39.3518 37.044 41.88 33.9706 41.9959L33.75 42.0001H14.25C11.1482 42.0001 8.62006 39.544 8.50415 36.4706L8.5 36.2501V22.0001C8.5 21.0336 9.2835 20.2501 10.25 20.2501C11.1682 20.2501 11.9212 20.9572 11.9942 21.8565L12 22.0001V36.2501C12 37.4409 12.9252 38.4157 14.096 38.4949L14.25 38.5001H33.75C34.9409 38.5001 35.9156 37.5749 35.9948 36.4041L36 36.2501V22.0001C36 21.0336 36.7835 20.2501 37.75 20.2501ZM23.4989 6.26794L23.6478 6.25304L23.8225 6.25146L23.977 6.26447L24.1549 6.29674L24.2239 6.31499C24.4192 6.36891 24.6069 6.45786 24.7774 6.58133L24.8969 6.67635L24.9898 6.76263L32.768 14.5408C33.4514 15.2242 33.4514 16.3323 32.768 17.0157C32.1248 17.6589 31.1054 17.6967 30.418 17.1292L30.2931 17.0157L25.5 12.2221V31.5001C25.5 32.4182 24.7929 33.1713 23.8935 33.2443L23.75 33.2501C22.8318 33.2501 22.0788 32.543 22.0058 31.6436L22 31.5001V12.2261L17.2117 17.0157C16.5684 17.6589 15.5491 17.6967 14.8616 17.1292L14.7368 17.0157C14.0936 16.3725 14.0557 15.3531 14.6233 14.6656L14.7368 14.5408L22.4888 6.78685C22.5447 6.72878 22.6045 6.67456 22.6679 6.62462L22.7812 6.54386C22.819 6.5173 22.8584 6.49319 22.8989 6.47063L22.9177 6.46145C23.0947 6.36428 23.2909 6.29783 23.4989 6.26794Z" fill="#212121"/>
</svg>
