<svg width="32" height="32" viewBox="0 0 32 32" fill="none" xmlns="http://www.w3.org/2000/svg">
<path d="M24.5 3C26.9853 3 29 5.01472 29 7.5V24.5C29 26.9853 26.9853 29 24.5 29H7.5C5.01472 29 3 26.9853 3 24.5V7.5C3 5.01472 5.01472 3 7.5 3H24.5ZM21.707 10.293C21.3165 9.90244 20.6835 9.90244 20.293 10.293L16 14.5859L11.707 10.293C11.3165 9.90244 10.6835 9.90244 10.293 10.293C9.90244 10.6835 9.90244 11.3165 10.293 11.707L14.5859 16L10.293 20.293C9.90244 20.6835 9.90244 21.3165 10.293 21.707C10.6835 22.0976 11.3165 22.0976 11.707 21.707L16 17.4141L20.293 21.707C20.6835 22.0976 21.3165 22.0976 21.707 21.707C22.0976 21.3165 22.0976 20.6835 21.707 20.293L17.4141 16L21.707 11.707C22.0976 11.3165 22.0976 10.6835 21.707 10.293Z" fill="#212121"/>
</svg>
