<svg width="32" height="32" viewBox="0 0 32 32" fill="none" xmlns="http://www.w3.org/2000/svg">
<path d="M7.25 3C5.45507 3 4 4.45507 4 6.25V24.75C4 26.5449 5.45507 28 7.25 28H10.75C12.5449 28 14 26.5449 14 24.75V6.25C14 4.45507 12.5449 3 10.75 3H7.25ZM6 6.25C6 5.55964 6.55964 5 7.25 5H10.75C11.4404 5 12 5.55964 12 6.25V24.75C12 25.4404 11.4404 26 10.75 26H7.25C6.55964 26 6 25.4404 6 24.75V6.25ZM21.25 3C19.4551 3 18 4.45507 18 6.25V24.75C18 26.5449 19.4551 28 21.25 28H24.75C26.5449 28 28 26.5449 28 24.75V6.25C28 4.45507 26.5449 3 24.75 3H21.25ZM20 6.25C20 5.55964 20.5596 5 21.25 5H24.75C25.4404 5 26 5.55964 26 6.25V24.75C26 25.4404 25.4404 26 24.75 26H21.25C20.5596 26 20 25.4404 20 24.75V6.25Z" fill="#212121"/>
</svg>
