<svg width="16" height="16" viewBox="0 0 16 16" fill="none" xmlns="http://www.w3.org/2000/svg">
<path d="M12.7992 2H6.99922C6.58501 2 6.24922 2.33579 6.24922 2.75C6.24922 3.16421 6.58501 3.5 6.99922 3.5H9.01093L5.58243 12.4998L3.19922 12.5C2.78501 12.5 2.44922 12.8358 2.44922 13.25C2.44922 13.6642 2.78501 14 3.19922 14H6.08175C6.09333 14.0003 6.10488 14.0003 6.1164 14H8.99922C9.41343 14 9.74922 13.6642 9.74922 13.25C9.74922 12.8358 9.41343 12.5 8.99922 12.5L7.18759 12.4998L10.6161 3.5H12.7992C13.2134 3.5 13.5492 3.16421 13.5492 2.75C13.5492 2.33579 13.2134 2 12.7992 2Z" fill="#212121"/>
</svg>
