<svg width="16" height="16" viewBox="0 0 16 16" fill="none" xmlns="http://www.w3.org/2000/svg">
<path d="M13 1.75C13 1.33579 12.6642 1 12.25 1C11.8358 1 11.5 1.33579 11.5 1.75V12.4393L10.7803 11.7197C10.4874 11.4268 10.0126 11.4268 9.71967 11.7197C9.42678 12.0126 9.42678 12.4874 9.71967 12.7803L11.7197 14.7803C12.0126 15.0732 12.4874 15.0732 12.7803 14.7803L14.7803 12.7803C15.0732 12.4874 15.0732 12.0126 14.7803 11.7197C14.4874 11.4268 14.0126 11.4268 13.7197 11.7197L13 12.4393V1.75ZM2.75 2.5C2.33579 2.5 2 2.83579 2 3.25C2 3.66421 2.33579 4 2.75 4H9.25C9.66421 4 10 3.66421 10 3.25C10 2.83579 9.66421 2.5 9.25 2.5H2.75ZM4.75 5.5C4.33579 5.5 4 5.83579 4 6.25C4 6.66421 4.33579 7 4.75 7H9.25C9.66421 7 10 6.66421 10 6.25C10 5.83579 9.66421 5.5 9.25 5.5H4.75ZM6 9.25C6 8.83579 6.33579 8.5 6.75 8.5H9.25C9.66421 8.5 10 8.83579 10 9.25C10 9.66421 9.66421 10 9.25 10H6.75C6.33579 10 6 9.66421 6 9.25Z" fill="#212121"/>
</svg>
