<svg width="24" height="24" viewBox="0 0 24 24" fill="none" xmlns="http://www.w3.org/2000/svg">
<path d="M8.4064 3.5316L8.14685 4.87197C7.94451 5.91693 6.86398 6.54078 5.85785 6.19354L4.56441 5.74714C4.3293 6.0671 4.12811 6.41323 3.966 6.78022L5.00052 7.67816C5.80436 8.37588 5.80435 9.62363 5.00052 10.3214L3.96585 11.2194C4.12792 11.5864 4.32906 11.9325 4.56412 12.2525L5.85785 11.806C6.86398 11.4587 7.94451 12.0826 8.14685 13.1275L8.40649 14.4684C8.79883 14.5104 9.20971 14.5101 9.60186 14.4675L9.86133 13.1275C10.0637 12.0826 11.1442 11.4587 12.1503 11.806L13.4377 12.2503C13.6731 11.9295 13.8745 11.5824 14.0366 11.2144L13.0077 10.3214C12.2038 9.62363 12.2038 8.37588 13.0077 7.67816L14.0364 6.78524C13.8743 6.41723 13.6729 6.07015 13.4374 5.74935L12.1503 6.19354C11.1442 6.54078 10.0637 5.91693 9.86133 4.87198L9.60196 3.53249C9.20974 3.48987 8.7988 3.48956 8.4064 3.5316ZM7.62366 2.13542C8.0693 2.04651 8.52964 2 9.00009 2C9.47383 2 9.93731 2.04716 10.3859 2.13729C10.6841 2.19721 10.9166 2.43136 10.9744 2.73001L11.334 4.58682C11.3629 4.73609 11.5172 4.82522 11.661 4.77561L13.4455 4.15971C13.7329 4.06053 14.0518 4.14465 14.2528 4.3727C14.8613 5.06285 15.3363 5.87455 15.6365 6.76741C15.7334 7.05553 15.6468 7.37364 15.4173 7.57289L13.9909 8.81096C13.8761 8.91063 13.8761 9.08888 13.9909 9.18855L15.4174 10.4267C15.647 10.626 15.7336 10.9441 15.6367 11.2322C15.3365 12.125 14.8615 12.9367 14.2532 13.6269C14.0521 13.855 13.7333 13.9391 13.4459 13.8399L11.661 13.2239C11.5172 13.1743 11.3629 13.2634 11.334 13.4127L10.9743 15.27C10.9165 15.5687 10.684 15.8028 10.3857 15.8627C9.93723 15.9528 9.47379 16 9.00009 16C8.52968 16 8.06938 15.9535 7.62377 15.8646C7.32507 15.805 7.09208 15.5707 7.03417 15.2717L6.67421 13.4127C6.6453 13.2634 6.49094 13.1743 6.34721 13.2239L4.55618 13.842C4.26889 13.9412 3.95016 13.8572 3.74909 13.6293C3.1411 12.9401 2.6662 12.1297 2.36553 11.2382C2.26832 10.9499 2.35485 10.6315 2.58458 10.4321L4.01727 9.18856C4.1321 9.08888 4.1321 8.91063 4.01727 8.81096L2.58471 7.56752C2.35496 7.3681 2.26844 7.04965 2.36568 6.76139C2.66642 5.86988 3.14139 5.05944 3.74946 4.37033C3.95053 4.14246 4.26924 4.05845 4.55651 4.1576L6.34721 4.77561C6.49094 4.82522 6.6453 4.73609 6.67421 4.58681L7.03408 2.72835C7.09198 2.42932 7.32497 2.19501 7.62366 2.13542ZM13.9406 14.6339C13.749 14.5678 13.5344 14.6223 13.4119 14.7838C13.1879 15.0793 12.9995 15.4034 12.8532 15.7495C12.7743 15.9362 12.8344 16.1495 12.9875 16.2824L13.9946 17.1565C14.2034 17.3378 14.2034 17.6618 13.9946 17.8431L12.9874 18.7173C12.8343 18.8502 12.7742 19.0635 12.8531 19.2502C12.9994 19.5963 13.1877 19.9203 13.4117 20.2158C13.5341 20.3773 13.7488 20.4319 13.9403 20.3658L15.2 19.931C15.4614 19.8408 15.742 20.0028 15.7946 20.2742L16.048 21.583C16.0866 21.7822 16.2415 21.941 16.4429 21.9658C16.6254 21.9884 16.8114 22 17 22C17.1887 22 17.3746 21.9884 17.5571 21.9658C17.7585 21.941 17.9135 21.7822 17.952 21.583L18.2054 20.2742C18.258 20.0028 18.5387 19.8408 18.8 19.931L20.0597 20.3658C20.2513 20.4319 20.4659 20.3773 20.5883 20.2158C20.8123 19.9203 21.0006 19.5963 21.1469 19.2502C21.2258 19.0635 21.1657 18.8502 21.0126 18.7174L20.0054 17.8431C19.7966 17.6618 19.7966 17.3378 20.0054 17.1565L21.0125 16.2824C21.1656 16.1495 21.2257 15.9362 21.1468 15.7495C21.0005 15.4033 20.8121 15.0793 20.5881 14.7838C20.4656 14.6223 20.251 14.5678 20.0595 14.6339L18.8 15.0686C18.5387 15.1588 18.258 14.9968 18.2054 14.7254L17.9521 13.417C17.9135 13.2178 17.7586 13.059 17.5572 13.0342C17.3747 13.0116 17.1887 13 17 13C16.8113 13 16.6254 13.0116 16.4428 13.0342C16.2414 13.059 16.0865 13.2178 16.0479 13.417L15.7946 14.7254C15.742 14.9968 15.4614 15.1588 15.2 15.0686L13.9406 14.6339ZM16.9998 18.7506C16.3091 18.7506 15.7492 18.1907 15.7492 17.5C15.7492 16.8094 16.3091 16.2495 16.9998 16.2495C17.6905 16.2495 18.2504 16.8094 18.2504 17.5C18.2504 18.1907 17.6905 18.7506 16.9998 18.7506ZM8.00003 8.99993C8.00003 8.44771 8.44772 8 9.00003 8C9.55234 8 10 8.44771 10 8.99993C10 9.55215 9.55234 9.99986 9.00003 9.99986C8.44772 9.99986 8.00003 9.55215 8.00003 8.99993ZM9.00003 6.5C7.61935 6.5 6.50003 7.61923 6.50003 8.99993C6.50003 10.3806 7.61935 11.4999 9.00003 11.4999C10.3807 11.4999 11.5 10.3806 11.5 8.99993C11.5 7.61923 10.3807 6.5 9.00003 6.5Z" fill="#212121"/>
</svg>
