<svg width="20" height="20" viewBox="0 0 20 20" fill="none" xmlns="http://www.w3.org/2000/svg">
<path d="M14.9999 11C15.147 11 15.2925 11.0078 15.4354 11.0234C15.6346 11.0454 15.7899 11.2005 15.8319 11.3965L16.0536 12.4316C16.1155 12.7213 16.4144 12.8937 16.6962 12.8027L17.702 12.4766C17.8925 12.415 18.1039 12.4716 18.2225 12.6328C18.3948 12.8672 18.5426 13.1211 18.661 13.3906C18.7415 13.5739 18.6845 13.7857 18.536 13.9199L17.7509 14.6289C17.5309 14.8275 17.5309 15.1725 17.7509 15.3711L18.536 16.0791C18.6846 16.2133 18.7415 16.4251 18.661 16.6084C18.5426 16.8779 18.3949 17.1318 18.2225 17.3662C18.104 17.5275 17.8925 17.5839 17.702 17.5225L16.6962 17.1973C16.4144 17.1063 16.1155 17.2787 16.0536 17.5684L15.8319 18.6025C15.7899 18.7985 15.6346 18.9533 15.4354 18.9756C15.2925 18.9915 15.147 19 14.9999 19C14.8522 19 14.706 18.9915 14.5624 18.9756C14.3631 18.9534 14.2079 18.7986 14.1659 18.6025L13.9452 17.5684C13.8833 17.2787 13.5845 17.1063 13.3026 17.1973L12.2968 17.5225C12.1063 17.584 11.8949 17.5275 11.7763 17.3662C11.6039 17.1318 11.4563 16.8779 11.3378 16.6084C11.2572 16.425 11.3141 16.2133 11.4628 16.0791L12.2479 15.3711C12.4678 15.1726 12.4678 14.8274 12.2479 14.6289L11.4628 13.9199C11.3141 13.7856 11.2572 13.574 11.3378 13.3906C11.4563 13.1211 11.604 12.8672 11.7763 12.6328C11.8949 12.4716 12.1063 12.4149 12.2968 12.4766L13.3026 12.8027C13.5845 12.8937 13.8833 12.7213 13.9452 12.4316L14.1659 11.3965C14.2079 11.2004 14.3631 11.0452 14.5624 11.0234C14.706 11.0078 14.8522 11 14.9999 11ZM14.9999 14C14.4477 14.0001 13.9999 14.4478 13.9999 15C13.9999 15.5522 14.4477 15.9999 14.9999 16C15.5521 15.9999 15.9999 15.5522 15.9999 15C15.9999 14.4478 15.5521 14.0001 14.9999 14ZM7.49892 1C7.80194 1 8.09995 1.02211 8.39052 1.0625L8.67861 1.1084L8.75185 1.12793C8.91565 1.1844 9.04097 1.32318 9.07802 1.49609L9.47255 3.33984C9.53448 3.629 9.83331 3.80153 10.1151 3.71094L11.9071 3.12988L11.9804 3.1123C12.1509 3.08423 12.3265 3.14642 12.4413 3.28027C12.9519 3.87786 13.3564 4.56993 13.6249 5.32617C13.6923 5.51647 13.638 5.72889 13.4882 5.86426L12.0888 7.12891C11.8693 7.3274 11.8693 7.6726 12.0888 7.87109L13.4882 9.13477C13.6381 9.27012 13.6923 9.48248 13.6249 9.67285C13.3565 10.4293 12.9518 11.1212 12.4413 11.7188C12.31 11.8718 12.099 11.9313 11.9071 11.8691L10.1151 11.2891C9.83331 11.1985 9.53447 11.371 9.47255 11.6602L9.07802 13.5029C9.03563 13.7007 8.87751 13.8541 8.67861 13.8906C8.2983 13.9604 7.90375 14 7.49892 14C7.09372 14 6.69822 13.9606 6.31728 13.8906C6.11877 13.8537 5.96103 13.7005 5.91885 13.5029L5.52529 11.6602C5.46325 11.3709 5.16467 11.198 4.88271 11.2891L3.08975 11.8691C2.8979 11.9309 2.68664 11.8719 2.55557 11.7188C2.04539 11.1213 1.64027 10.4293 1.37197 9.67285C1.30474 9.48267 1.35909 9.27008 1.50869 9.13477L2.90908 7.87109C3.10153 7.69741 3.12558 7.4117 2.98135 7.20996L2.90908 7.12891L1.50869 5.86426C1.35915 5.72893 1.30476 5.51631 1.37197 5.32617C1.64032 4.57 2.04526 3.87774 2.55557 3.28027L2.6083 3.22754C2.73904 3.11431 2.92179 3.0757 3.08975 3.12988L4.88271 3.71094C5.16467 3.80198 5.46326 3.62913 5.52529 3.33984L5.91885 1.49609L5.94033 1.42383C6.00143 1.26201 6.14376 1.14066 6.31728 1.1084C6.69905 1.03826 7.09463 1.00004 7.49892 1ZM7.49892 2C7.27139 2.00003 7.0462 2.01548 6.82509 2.04297L6.50381 3.54883C6.31777 4.4183 5.4197 4.93578 4.57412 4.66211L3.11025 4.1875C2.84006 4.54494 2.61168 4.93592 2.43447 5.35352L3.579 6.38672L3.69521 6.50293C4.23673 7.10967 4.19779 8.05481 3.579 8.61328L2.43447 9.64453C2.61158 10.0622 2.84004 10.453 3.11025 10.8105L4.57412 10.3379C5.4197 10.0642 6.31777 10.5817 6.50381 11.4512L6.82509 12.9551C7.04662 12.9829 7.27166 13 7.49892 13C7.72579 13 7.95049 12.9829 8.17177 12.9551L8.49404 11.4512C8.67996 10.5818 9.57828 10.0647 10.4237 10.3379L11.8856 10.8105C12.156 10.4529 12.3842 10.0623 12.5614 9.64453L11.4188 8.61328C10.7594 8.01768 10.7594 6.98232 11.4188 6.38672L12.5614 5.35352C12.3841 4.93576 12.156 4.54496 11.8856 4.1875L10.4237 4.66211C9.57828 4.93533 8.67996 4.41817 8.49404 3.54883L8.17177 2.04297C7.95091 2.01552 7.72606 2 7.49892 2ZM7.4999 5.25C8.74254 5.25 9.7499 6.25736 9.7499 7.5C9.7499 8.74264 8.74254 9.75 7.4999 9.75C6.25758 9.74962 5.2499 8.74241 5.2499 7.5C5.2499 6.25759 6.25758 5.25038 7.4999 5.25ZM7.4999 6.25C6.80986 6.25038 6.2499 6.80988 6.2499 7.5C6.2499 8.19012 6.80986 8.74962 7.4999 8.75C8.19026 8.75 8.7499 8.19036 8.7499 7.5C8.7499 6.80964 8.19026 6.25 7.4999 6.25Z" fill="#212121"/>
</svg>
