<svg width="16" height="16" viewBox="0 0 16 16" fill="none" xmlns="http://www.w3.org/2000/svg">
<path d="M2.94588 3.93611C4.21207 2.66992 6.26943 2.6761 7.54112 3.94779L7.99452 4.40119L8.44178 3.95306C9.71024 2.68461 11.7686 2.69079 13.0425 3.96476C14.3144 5.23668 14.3184 7.28827 13.0552 8.55858L8.37216 13.2389C8.1769 13.4341 7.86031 13.4341 7.66505 13.2389L2.95756 8.53136C1.68587 7.25966 1.67969 5.20231 2.94588 3.93611ZM8.01861 12.1782L12.3461 7.85345C13.2205 6.97415 13.2178 5.5542 12.3354 4.67187C11.451 3.78747 10.0259 3.78319 9.14889 4.66017L8.89878 4.91202C8.88509 4.93006 8.87002 4.94738 8.85355 4.96384L7.70711 6.11029L9.35355 7.75674C9.54882 7.952 9.54882 8.26858 9.35355 8.46384L7.85355 9.96385C7.65829 10.1591 7.34171 10.1591 7.14645 9.96385C6.95118 9.76859 6.95118 9.45201 7.14645 9.25674L8.29289 8.11029L6.64645 6.46384C6.45118 6.26858 6.45118 5.952 6.64645 5.75674L7.29115 5.11203L6.83402 4.6549C5.9519 3.77278 4.5277 3.76851 3.65299 4.64322C2.77827 5.51794 2.78255 6.94213 3.66467 7.82425L8.01861 12.1782Z" fill="#212121"/>
</svg>
