<svg width="20" height="20" viewBox="0 0 20 20" fill="none" xmlns="http://www.w3.org/2000/svg">
<path d="M8.94564 0.0549927C6.74682 0.285834 4.60989 1.24382 2.92475 2.92896C1.23961 4.6141 0.281623 6.75103 0.0507812 8.94985L8.94564 0.0549927ZM0.187287 11.9529L11.9487 0.191497C12.7562 0.35151 13.5479 0.611816 14.3036 0.972415L0.968203 14.3078C0.607604 13.5521 0.347298 12.7604 0.187287 11.9529ZM2.17825 16.2373C2.40881 16.5255 2.65765 16.804 2.92475 17.0711C3.19237 17.3387 3.47139 17.588 3.76024 17.8189L17.8147 3.76445C17.5838 3.4756 17.3345 3.19658 17.0669 2.92896C16.7998 2.66186 16.5213 2.41302 16.2331 2.18246L2.17825 16.2373ZM19.0244 5.69432L5.69011 19.0286C6.44697 19.3896 7.23982 19.6499 8.04861 19.8097L19.8055 8.05282C19.6457 7.24404 19.3853 6.45118 19.0244 5.69432ZM19.9401 11.0578L11.0536 19.9443C13.2497 19.712 15.3837 18.7543 17.0669 17.0711C18.7501 15.3879 19.7078 13.2539 19.9401 11.0578Z" fill="#212121"/>
</svg>
