<?xml version="1.0" encoding="UTF-8"?>
<svg width="24px" height="24px" viewBox="0 0 24 24" version="1.1" xmlns="http://www.w3.org/2000/svg" xmlns:xlink="http://www.w3.org/1999/xlink">
    <!-- Generator: Sketch 59.1 (86144) - https://sketch.com -->
    <title>ic_fluent_bluetooth_disabled_24_filled</title>
    <desc>Created with Sketch.</desc>
    <g id="ðŸ”-Product-Icons" stroke="none" stroke-width="1" fill="none" fill-rule="evenodd">
        <g id="ic_fluent_bluetooth_disabled_24_filled" fill="#212121" fill-rule="nonzero">
            <path d="M5.70710678,4.29289322 L9.005,7.58998695 L9.00518015,7.58398695 L11.0051802,9.58498695 L11.005,9.58998695 L11.569,10.1539869 L11.5721802,10.1519869 L12.9921802,11.5719869 L12.989,11.5739869 L19.7071068,18.2928932 C20.0976311,18.6834175 20.0976311,19.3165825 19.7071068,19.7071068 C19.3165825,20.0976311 18.6834175,20.0976311 18.2928932,19.7071068 L14.83,16.2449869 L10.7404873,20.678114 C10.1488415,21.3193544 9.09779432,20.9449025 9.01123422,20.1112902 L9.00553049,20 L9.00553049,14.8947629 L8.36532009,15.4281734 C7.94101118,15.781699 7.31045167,15.7243178 6.95692602,15.3000089 C6.63059464,14.9083391 6.65438507,14.3409292 6.99370654,13.9778955 L7.08509045,13.8916148 L9.00553049,12.2915428 L9.005,10.4199869 L4.29289322,5.70710678 C3.90236893,5.31658249 3.90236893,4.68341751 4.29289322,4.29289322 C4.68341751,3.90236893 5.31658249,3.90236893 5.70710678,4.29289322 Z M11.446,12.8609869 L11.0055305,13.2284032 L11.0055305,17.4414967 L13.414,14.8289869 L11.446,12.8609869 Z M10.6606665,3.24382091 L10.7403339,3.3217199 L15.3111206,8.27340543 C15.6715217,8.66383994 15.6600247,9.26064253 15.3045564,9.6371766 L15.216432,9.71996479 L14.1491802,10.6079869 L12.7291802,9.18798695 L13.1278913,8.85687474 L11.0055305,6.5576505 L11.0051802,7.46298695 L9.00518015,5.46198695 L9.00553049,4 C9.00553049,3.16554826 9.94442126,2.7289195 10.5764936,3.1771659 L10.6606665,3.24382091 Z" id="ðŸŽ¨-Color"></path>
        </g>
    </g>
</svg>