<svg width="20" height="20" viewBox="0 0 20 20" fill="none" xmlns="http://www.w3.org/2000/svg">
<path d="M4.5 3C3.11929 3 2 4.11929 2 5.5V7H7.08579C7.21839 7 7.34557 6.94732 7.43934 6.85355L9.5 4.79289L8.21967 3.51256C7.89148 3.18437 7.44636 3 6.98223 3H4.5ZM2 14.5V8H7.08579C7.48361 8 7.86514 7.84196 8.14645 7.56066L10.7071 5H12V8.5C12 8.77614 12.2239 9 12.5 9H13V11H12.5C12.2239 11 12 11.2239 12 11.5C12 11.7761 12.2239 12 12.5 12H13V13H12.5C12.2239 13 12 13.2239 12 13.5C12 13.7761 12.2239 14 12.5 14H13V17H4.5C3.11929 17 2 15.8807 2 14.5ZM14 17H15.5C16.8807 17 18 15.8807 18 14.5V7.5C18 6.11929 16.8807 5 15.5 5H15V8.5C15 8.77614 14.7761 9 14.5 9H14V12H14.5C14.7761 12 15 12.2239 15 12.5C15 12.7761 14.7761 13 14.5 13H14V17ZM14 5H13V8H14V5Z" fill="#242424"/>
</svg>
