<svg width="24" height="24" viewBox="0 0 24 24" fill="none" xmlns="http://www.w3.org/2000/svg">
<path d="M17.5 22.5C17.5 22.7761 17.2761 23 17 23H15C14.7239 23 14.5 22.7761 14.5 22.5V18C14.5 17.1716 15.1716 16.5 16 16.5C16.8284 16.5 17.5 17.1716 17.5 18V22.5ZM18.75 5.5C20.5449 5.5 22 6.95507 22 8.75V17.75C22 19.4608 20.6781 20.8616 19 20.9893V18C19 16.3431 17.6569 15 16 15V14H13.75C13.3358 14 13 14.3358 13 14.75C13 15.1642 13.3358 15.5 13.75 15.5H14.3428C13.5338 16.0374 13 16.956 13 18V21H5.25C3.45507 21 2 19.5449 2 17.75V9.5H8.12891C8.72556 9.49994 9.29782 9.26272 9.71973 8.84082L13.0605 5.5H18.75ZM16 14H18.25C18.6642 14 19 13.6642 19 13.25C19 12.8358 18.6642 12.5 18.25 12.5H16V14ZM13.75 11C13.3358 11 13 11.3358 13 11.75C13 12.1642 13.3358 12.5 13.75 12.5H16V11H13.75ZM16 11H18.25C18.6642 11 19 10.6642 19 10.25C19 9.83579 18.6642 9.5 18.25 9.5H16V11ZM13.75 8C13.3358 8 13 8.33579 13 8.75C13 9.16421 13.3358 9.5 13.75 9.5H16V8H13.75ZM8.12891 3C8.72556 3.00006 9.29782 3.23728 9.71973 3.65918L11.25 5.18945L8.65918 7.78027C8.51858 7.92087 8.32774 7.99994 8.12891 8H2V6.25C2 4.45507 3.45507 3 5.25 3H8.12891Z" fill="#212121"/>
</svg>
