<svg width="28" height="28" viewBox="0 0 28 28" fill="none" xmlns="http://www.w3.org/2000/svg">
<path d="M5.85624 8.19528C5.56044 8.60952 5.02089 8.79178 4.55303 8.59128C4.00133 8.35483 3.77345 7.6899 4.1142 7.19577C4.92818 6.01539 5.94811 4.98798 7.12208 4.16542C7.61364 3.82101 8.28024 4.04388 8.52082 4.59377C8.72484 5.06011 8.54663 5.60104 8.13459 5.89991C7.2568 6.53664 6.48655 7.31256 5.85624 8.19528ZM3.56679 10.8885C4.03489 11.0891 4.27499 11.6059 4.17911 12.106C4.06155 12.7193 4 13.3525 4 14C4 14.6476 4.06155 15.2808 4.17912 15.894C4.27501 16.3942 4.03491 16.911 3.56681 17.1116C3.01525 17.3479 2.37668 17.0547 2.25392 16.4673C2.08749 15.671 2 14.8457 2 14C2 13.1543 2.08748 12.329 2.2539 11.5327C2.37665 10.9454 3.01523 10.6521 3.56679 10.8885ZM4.55308 19.4088C5.02093 19.2083 5.56049 19.3905 5.85629 19.8048C6.50137 20.7082 7.29303 21.4997 8.19653 22.1447C8.64581 22.4654 8.81551 23.072 8.54164 23.5512C8.2674 24.0312 7.65304 24.201 7.19792 23.8873C5.99203 23.0561 4.94571 22.01 4.11425 20.8043C3.7735 20.3102 4.00138 19.6452 4.55308 19.4088ZM18.5973 25.0878C18.7308 25.0332 18.8658 24.9759 19.0023 24.9159C19.0396 24.8995 19.0754 24.8811 19.1097 24.8609C19.7363 24.5656 20.3333 24.2176 20.8949 23.8227C20.9395 23.8905 20.9828 23.9584 21.0249 24.0264C21.3915 24.6188 21.6471 25.1862 21.8104 25.6054C21.8917 25.814 21.9492 25.9834 21.9855 26.0974C22.0036 26.1543 22.0164 26.1973 22.0242 26.2242L22.0321 26.2522L22.0329 26.2551L22.0333 26.2566C22.1747 26.7894 22.7208 27.1075 23.2542 26.9672C23.7884 26.8267 24.1075 26.2798 23.967 25.7457L23.9666 25.7441L23.966 25.742L23.9646 25.7366L23.9602 25.7206C23.9567 25.7077 23.9518 25.6904 23.9455 25.6688C23.9331 25.6256 23.9151 25.5655 23.8913 25.4906C23.8436 25.341 23.7722 25.1314 23.6739 24.8792C23.478 24.3764 23.1712 23.6939 22.7255 22.9738C22.6359 22.829 22.5399 22.6816 22.4373 22.5329C22.9721 22.0041 23.4574 21.4254 23.8857 20.8043C24.2265 20.3102 23.9986 19.6452 23.4469 19.4088C22.9791 19.2083 22.4395 19.3906 22.1437 19.8048C21.838 20.233 21.4993 20.636 21.1313 21.0103C20.3171 20.2541 19.2856 19.6041 17.9967 19.2812C15.8713 18.7332 14.1078 18.9584 12.8367 19.6871C11.5771 20.4092 10.824 21.6311 10.8567 22.9005C10.8908 24.2249 11.7749 25.3528 13.2611 25.7811C14.5189 26.1437 16.1674 26.0084 18.1707 25.2554C18.3142 25.2022 18.4565 25.1463 18.5973 25.0878ZM16.2018 23.778C15.1178 24.0392 14.3338 24.0089 13.815 23.8594C13.0778 23.6469 12.8654 23.2122 12.856 22.849C12.8452 22.4309 13.1018 21.8405 13.8314 21.4222C14.5489 21.0109 15.7528 20.7675 17.5005 21.2187L17.508 21.2206C18.317 21.4227 19.001 21.8143 19.5756 22.3026C18.6203 22.9454 17.5481 23.4276 16.3975 23.7108C16.3296 23.7275 16.2642 23.7501 16.2018 23.778ZM24.4332 17.1115C23.9651 16.9109 23.725 16.3942 23.8209 15.894C23.9384 15.2807 24 14.6476 24 14C24 13.3525 23.9385 12.7193 23.8209 12.1061C23.725 11.6059 23.9651 11.0892 24.4332 10.8885C24.9848 10.6522 25.6234 10.9454 25.7461 11.5328C25.9125 12.329 26 13.1543 26 14C26 14.8457 25.9125 15.671 25.7461 16.4673C25.6233 17.0547 24.9848 17.3479 24.4332 17.1115ZM23.447 8.59129C22.9791 8.7918 22.4396 8.60954 22.1438 8.1953C21.5135 7.31259 20.7432 6.53667 19.8654 5.89994C19.4534 5.60106 19.2752 5.06014 19.4792 4.5938C19.7198 4.04391 20.3864 3.82103 20.878 4.16545C22.0519 4.98801 23.0718 6.01542 23.8858 7.19579C24.2266 7.68992 23.9987 8.35485 23.447 8.59129ZM17.1895 3.59031C16.9853 4.05689 16.4668 4.2931 15.9673 4.19346C15.3312 4.06656 14.6734 4 14 4C13.3266 4 12.6688 4.06656 12.0327 4.19345C11.5333 4.29309 11.0147 4.05688 10.8106 3.5903C10.5701 3.04054 10.8585 2.39977 11.4449 2.2726C12.2683 2.09405 13.1232 2 14 2C14.8769 2 15.7318 2.09405 16.5551 2.27261C17.1416 2.39979 17.43 3.04055 17.1895 3.59031Z" fill="#212121"/>
</svg>
