<svg width="16" height="16" viewBox="0 0 16 16" fill="none" xmlns="http://www.w3.org/2000/svg">
<path d="M11.5 2C12.8807 2 14 3.11929 14 4.5V6.59971C13.6832 6.43777 13.3486 6.30564 13 6.20703V6H3V11.5C3 12.3284 3.67157 13 4.5 13H6.20703C6.30564 13.3486 6.43777 13.6832 6.59971 14H4.5C3.11929 14 2 12.8807 2 11.5V4.5C2 3.11929 3.11929 2 4.5 2H11.5ZM11.5 3H4.5C3.67157 3 3 3.67157 3 4.5V5H13V4.5C13 3.67157 12.3284 3 11.5 3ZM11.5 7C13.9853 7 16 9.01472 16 11.5C16 13.9853 13.9853 16 11.5 16C9.01472 16 7 13.9853 7 11.5C7 9.01472 9.01472 7 11.5 7ZM13.8532 11.854L13.8557 11.8514C13.9026 11.804 13.938 11.7495 13.9621 11.6914C13.9861 11.6333 13.9996 11.5697 14 11.503L14 11.5L14 11.497C13.9996 11.4303 13.9861 11.3667 13.9621 11.3086C13.9377 11.2496 13.9015 11.1944 13.8536 11.1464L11.8536 9.14645C11.6583 8.95118 11.3417 8.95118 11.1464 9.14645C10.9512 9.34171 10.9512 9.65829 11.1464 9.85355L12.2929 11H9.5C9.22386 11 9 11.2239 9 11.5C9 11.7761 9.22386 12 9.5 12H12.2929L11.1464 13.1464C10.9512 13.3417 10.9512 13.6583 11.1464 13.8536C11.3417 14.0488 11.6583 14.0488 11.8536 13.8536L13.8532 11.854Z" fill="#212121"/>
</svg>
