<svg width="48" height="48" viewBox="0 0 48 48" fill="none" xmlns="http://www.w3.org/2000/svg">
<path d="M44 24C44 35.0457 35.0457 44 24 44C12.9543 44 4 35.0457 4 24C4 12.9543 12.9543 4 24 4C35.0457 4 44 12.9543 44 24ZM24.1339 32.6339C24.622 32.1457 24.622 31.3543 24.1339 30.8661L18.5178 25.25H32.75C33.4404 25.25 34 24.6904 34 24C34 23.3096 33.4404 22.75 32.75 22.75H18.5178L24.1339 17.1339C24.622 16.6457 24.622 15.8543 24.1339 15.3661C23.6457 14.878 22.8543 14.878 22.3661 15.3661L14.6161 23.1161C14.128 23.6043 14.128 24.3957 14.6161 24.8839L22.3661 32.6339C22.8543 33.122 23.6457 33.122 24.1339 32.6339Z" fill="#212121"/>
</svg>
