<svg width="16" height="16" viewBox="0 0 16 16" fill="none" xmlns="http://www.w3.org/2000/svg">
<path d="M11.69 7.99984L9.43414 10.2556C9.14124 10.5485 9.14124 11.0233 9.43414 11.3162C9.7004 11.5825 10.1171 11.6067 10.4107 11.3889L10.4948 11.3162L14.0303 7.78071L14.0989 7.70191L14.1394 7.64254L14.1885 7.54827L14.2213 7.45647L14.2372 7.38866L14.2461 7.32678L14.2498 7.23316L14.2461 7.17398L14.2305 7.08003L14.2001 6.98075L14.1536 6.88221L14.1188 6.82651C14.0932 6.78912 14.0637 6.7534 14.0303 6.72005L14.0989 6.79884C14.0779 6.771 14.055 6.74467 14.0303 6.72005L10.4948 3.18451C10.2019 2.89162 9.72703 2.89162 9.43414 3.18451C9.16787 3.45078 9.14366 3.86744 9.36152 4.16106L9.43414 4.24517L11.69 6.49984L8 6.50038C4.34852 6.50038 1.86748 8.57702 1.75406 11.5374L1.75 11.7504C1.75 12.1646 2.08579 12.5004 2.5 12.5004C2.91421 12.5004 3.25 12.1646 3.25 11.7504C3.25 9.62152 4.94201 8.09249 7.74238 8.00439L8 8.00038L11.69 7.99984Z" fill="#212121"/>
</svg>
