<svg width="20" height="20" viewBox="0 0 20 20" fill="none" xmlns="http://www.w3.org/2000/svg">
<path d="M2.14648 2.14648C2.34175 1.95122 2.65825 1.95122 2.85352 2.14648L17.8535 17.1465C18.0486 17.3418 18.0487 17.6583 17.8535 17.8535C17.6583 18.0487 17.3418 18.0486 17.1465 17.8535L16.085 16.792C15.7485 16.9243 15.3836 17 15 17H5C3.34315 17 2 15.6569 2 14V10.6436C2.73297 11.4747 3.8047 12 5 12H9V12.5C9 12.7761 9.22386 13 9.5 13H10.5C10.7761 13 11 12.7761 11 12.5V12H11.293L9.3252 10.0322C9.1354 10.1032 9 10.2855 9 10.5V11H5C3.34315 11 2 9.65685 2 8C2 6.56234 3.01132 5.36109 4.36133 5.06836L2.14648 2.85352C1.95122 2.65825 1.95122 2.34175 2.14648 2.14648ZM18 14C18 14.5402 17.8544 15.0455 17.6045 15.4834L14.1211 12H15C16.1953 12 17.267 11.4747 18 10.6436V14ZM11.25 2C12.2165 2 13 2.7835 13 3.75V5H15C16.6569 5 18 6.34315 18 8C18 9.65685 16.6569 11 15 11H13.1211L7 4.87891V3.75C7 2.7835 7.7835 2 8.75 2H11.25ZM8.75 3C8.33579 3 8 3.33579 8 3.75V5H12V3.75C12 3.33579 11.6642 3 11.25 3H8.75Z" fill="#212121"/>
</svg>
