<svg width="16" height="16" viewBox="0 0 16 16" fill="none" xmlns="http://www.w3.org/2000/svg">
<path d="M5.49978 13H9.49978C10.3268 13 10.9998 12.327 10.9998 11.5V2.5C10.9998 2.102 10.8418 1.721 10.5608 1.439C10.2798 1.158 9.89778 1 9.49978 1H5.49978C5.10178 1 4.72078 1.158 4.43878 1.439C4.15678 1.72 3.99978 2.102 3.99978 2.5V11.5C3.99978 12.327 4.67278 13 5.49978 13ZM6.14578 4.146C6.23978 4.052 6.36678 4 6.49978 4H8.49978C8.63278 4 8.75978 4.053 8.85378 4.146C8.94778 4.24 8.99978 4.367 8.99978 4.5C8.99978 4.633 8.94678 4.76 8.85378 4.854C8.76078 4.948 8.63278 5 8.49978 5H6.49978C6.36678 5 6.23978 4.947 6.14578 4.854C6.05178 4.761 5.99978 4.633 5.99978 4.5C5.99978 4.367 6.05278 4.24 6.14578 4.146ZM6.14578 8.146C6.23978 8.052 6.36678 8 6.49978 8H8.49978C8.63278 8 8.75978 8.053 8.85378 8.146C8.94778 8.24 8.99978 8.367 8.99978 8.5C8.99978 8.633 8.94678 8.76 8.85378 8.854C8.76078 8.948 8.63278 9 8.49978 9H6.49978C6.36678 9 6.23978 8.947 6.14578 8.854C6.05178 8.761 5.99978 8.633 5.99978 8.5C5.99978 8.367 6.05278 8.24 6.14578 8.146ZM6.14578 10.146C6.23978 10.052 6.36678 10 6.49978 10H8.49978C8.63278 10 8.75978 10.053 8.85378 10.146C8.94778 10.24 8.99978 10.367 8.99978 10.5C8.99978 10.633 8.94678 10.76 8.85378 10.854C8.75978 10.948 8.63278 11 8.49978 11H6.49978C6.36678 11 6.23978 10.947 6.14578 10.854C6.05178 10.76 5.99978 10.633 5.99978 10.5C5.99978 10.367 6.05278 10.24 6.14578 10.146ZM13.9678 14.324L12.4678 10.324C12.4318 10.229 12.3678 10.147 12.2848 10.089C12.2008 10.031 12.1018 10 11.9998 10V11.5C11.9998 12.878 10.8788 14 9.49978 14H5.49978C4.12078 14 2.99978 12.878 2.99978 11.5V10C2.89778 10 2.79878 10.031 2.71478 10.089C2.63078 10.147 2.56678 10.229 2.53178 10.324L1.03178 14.324C1.00378 14.4 0.993782 14.481 1.00378 14.561C1.01378 14.641 1.04278 14.718 1.08878 14.784C1.13478 14.85 1.19578 14.905 1.26778 14.942C1.33978 14.98 1.41878 14.999 1.49978 14.999H13.4998C13.5808 14.999 13.6608 14.979 13.7318 14.942C13.8038 14.905 13.8648 14.85 13.9108 14.784C13.9568 14.717 13.9858 14.641 13.9958 14.561C14.0058 14.481 13.9958 14.399 13.9678 14.324Z" fill="#212121"/>
</svg>
