<svg width="28" height="28" viewBox="0 0 28 28" fill="none" xmlns="http://www.w3.org/2000/svg">
<path d="M14 1.5C14.4142 1.5 14.75 1.83579 14.75 2.25V3H19.25C20.7688 3 22 4.23122 22 5.75V11.25C22 12.7688 20.7688 14 19.25 14H8.75C7.23122 14 6 12.7688 6 11.25V5.75C6 4.23122 7.23122 3 8.75 3H13.25V2.25C13.25 1.83579 13.5858 1.5 14 1.5ZM6.75 16C5.23122 16 4 17.2312 4 18.75V19.5C4 21.4771 4.96125 23.1416 6.71714 24.2794C8.44385 25.3983 10.9164 26 14 26C17.0836 26 19.5562 25.3983 21.2829 24.2794C23.0388 23.1416 24 21.4771 24 19.5V18.75C24 17.2312 22.7688 16 21.25 16H6.75ZM11 10C11.8284 10 12.5 9.32843 12.5 8.5C12.5 7.67157 11.8284 7 11 7C10.1716 7 9.5 7.67157 9.5 8.5C9.5 9.32843 10.1716 10 11 10ZM18.5 8.5C18.5 7.67157 17.8284 7 17 7C16.1716 7 15.5 7.67157 15.5 8.5C15.5 9.32843 16.1716 10 17 10C17.8284 10 18.5 9.32843 18.5 8.5Z" fill="#212121"/>
</svg>
