<svg width="12" height="12" viewBox="0 0 12 12" fill="none" xmlns="http://www.w3.org/2000/svg">
<path d="M8.5 6C9.32843 6 10 6.67157 10 7.5C10 8.61608 9.54126 9.5107 8.78809 10.1152C8.13945 10.6358 7.2974 10.9227 6.3916 10.9863C6.26225 10.9954 6.13159 11 6 11C5.86841 11 5.73775 10.9954 5.6084 10.9863C4.7026 10.9227 3.86055 10.6358 3.21191 10.1152C2.45874 9.5107 2 8.61608 2 7.5C2 6.72336 2.59028 6.0846 3.34668 6.00781L3.5 6H8.5ZM6 0C6.27614 0 6.5 0.223858 6.5 0.5V1H7.5C8.32843 1 9 1.67157 9 2.5V3.5C9 4.32843 8.32843 5 7.5 5H4.5C3.67157 5 3 4.32843 3 3.5V2.5C3 1.67157 3.67157 1 4.5 1H5.5V0.5C5.5 0.223858 5.72386 0 6 0Z" fill="#212121"/>
</svg>
