<svg width="25" height="24" viewBox="0 0 25 24" fill="none" xmlns="http://www.w3.org/2000/svg">
<path d="M20.4155 16.2461C20.4155 15.0041 19.4087 13.9972 18.1666 13.9972H6.66489C5.42287 13.9972 4.41602 15.0041 4.41602 16.2461V16.8238C4.41602 17.7166 4.73453 18.5801 5.3143 19.259C6.8806 21.0932 9.26661 21.9984 12.4125 21.9984C15.5579 21.9984 17.945 21.0935 19.5144 19.26C20.0959 18.5807 20.4155 17.7158 20.4155 16.8215V16.2461ZM6.66489 15.4972H18.1666C18.5802 15.4972 18.9155 15.8325 18.9155 16.2461V16.8215C18.9155 17.3581 18.7238 17.877 18.3749 18.2846C17.1184 19.7526 15.1508 20.4984 12.4125 20.4984C9.67417 20.4984 7.70829 19.7526 6.45498 18.2849C6.10713 17.8776 5.91602 17.3595 5.91602 16.8238V16.2461C5.91602 15.8325 6.2513 15.4972 6.66489 15.4972ZM17.4125 7.00195C17.4125 4.24053 15.1739 2.00195 12.4125 2.00195C10.762 2.00195 9.29826 2.80167 8.38768 4.03476C8.31691 4.01263 8.24163 4.00071 8.16357 4.00071L5.66577 4.00071C5.25156 4.0007 4.91577 4.33649 4.91577 4.75071L4.91577 10.2495C4.91577 11.7683 6.14702 12.9995 7.66582 12.9995L7.91578 12.9995V12.9952C7.91922 12.9952 7.92266 12.9952 7.9261 12.9952C8.47701 12.9952 8.92361 12.5486 8.92361 11.9977C8.92361 11.4468 8.47701 11.0002 7.9261 11.0002C7.60673 11.0002 7.32241 11.1503 7.13983 11.3838C6.71226 11.1852 6.41577 10.752 6.41577 10.2495V9.99902H7.16357C7.54425 9.99902 7.89653 9.87748 8.18373 9.67108C9.06972 11.0718 10.6325 12.002 12.4125 12.002C15.1739 12.002 17.4125 9.76338 17.4125 7.00195ZM7.41357 6.896C7.41284 6.93123 7.41247 6.96655 7.41247 7.00195C7.41247 7.03736 7.41284 7.07268 7.41357 7.10791V8.24902C7.41357 8.38709 7.30165 8.49902 7.16357 8.49902H6.41577L6.41577 5.50071H7.41357L7.41357 6.896ZM8.91357 7.09058V6.91333C8.9606 5.02128 10.5091 3.50195 12.4125 3.50195C14.3455 3.50195 15.9125 5.06896 15.9125 7.00195C15.9125 8.93495 14.3455 10.502 12.4125 10.502C10.5091 10.502 8.9606 8.98262 8.91357 7.09058Z" fill="#212121"/>
</svg>
