<svg width="16" height="16" viewBox="0 0 16 16" fill="none" xmlns="http://www.w3.org/2000/svg">
<path d="M4 2C2.89543 2 2 2.89543 2 4V6.99963C2.30773 6.76849 2.643 6.57202 3 6.41604V4C3 3.44772 3.44772 3 4 3H7V3.75C7 4.44036 7.55964 5 8.25 5H13V12C13 12.5523 12.5523 13 12 13H9.58396C9.42797 13.357 9.23151 13.6923 9.00036 14H12C13.1046 14 14 13.1046 14 12V4C14 2.89543 13.1046 2 12 2H4ZM13 4H8.25C8.11193 4 8 3.88807 8 3.75V3H12C12.5523 3 13 3.44772 13 4ZM7.75 6.75C8.02614 6.75 8.25 6.97386 8.25 7.25V9C8.25 9.27614 8.02614 9.5 7.75 9.5H6C5.72386 9.5 5.5 9.27614 5.5 9C5.5 8.72386 5.72386 8.5 6 8.5H6.65901C6.18388 8.18395 5.61393 8 5 8C3.34315 8 2 9.34315 2 11C2 12.6569 3.34315 14 5 14C6.65685 14 8 12.6569 8 11C8 10.7239 8.22386 10.5 8.5 10.5C8.77614 10.5 9 10.7239 9 11C9 13.2091 7.20914 15 5 15C2.79086 15 1 13.2091 1 11C1 8.79086 2.79086 7 5 7C5.83377 7 6.60891 7.25559 7.25 7.6924V7.25C7.25 6.97386 7.47386 6.75 7.75 6.75Z" fill="#212121"/>
</svg>
