<svg width="20" height="20" viewBox="0 0 20 20" fill="none" xmlns="http://www.w3.org/2000/svg">
<path d="M5.75 3.5C6.16421 3.5 6.5 3.16421 6.5 2.75C6.5 2.33579 6.16421 2 5.75 2C5.33579 2 5 2.33579 5 2.75C5 3.16421 5.33579 3.5 5.75 3.5ZM8.09043 6.15154C8.48 4.3503 10.0823 3.00098 12 3.00098C14.2091 3.00098 16 4.79184 16 7.00098C16 8.19586 15.4759 9.26801 14.6463 10.0005C15.4759 10.733 16 11.8051 16 13C16 15.2091 14.2091 17 12 17C10.0826 17 8.48055 15.6511 8.09063 13.8503C7.7436 13.9485 7.37766 14.001 7 14.001C4.79086 14.001 3 12.2101 3 10.001C3 7.79184 4.79086 6.00098 7 6.00098C7.37759 6.00098 7.74346 6.05343 8.09043 6.15154ZM5.75 18C6.16421 18 6.5 17.6642 6.5 17.25C6.5 16.8358 6.16421 16.5 5.75 16.5C5.33579 16.5 5 16.8358 5 17.25C5 17.6642 5.33579 18 5.75 18ZM19 10C19 10.4142 18.6642 10.75 18.25 10.75C17.8358 10.75 17.5 10.4142 17.5 10C17.5 9.58579 17.8358 9.25 18.25 9.25C18.6642 9.25 19 9.58579 19 10Z" fill="#212121"/>
</svg>
