<svg width="32" height="32" viewBox="0 0 32 32" fill="none" xmlns="http://www.w3.org/2000/svg">
<path d="M10.5 3C8.80474 3 7.3558 4.05461 6.77344 5.54355C7.01161 5.5148 7.25408 5.5 7.50001 5.5H20.5C23.8137 5.5 26.5 8.18629 26.5 11.5V18.0044C27.2817 18.0351 28.0231 18.223 28.6938 18.5375C28.8911 18.0642 29 17.5448 29 17V9.5C29 5.91015 26.0899 3 22.5 3H10.5ZM25 11.5V18H19.7273C16.5642 18 14 20.5744 14 23.75C14 24.6438 14.2031 25.49 14.5656 26.2446L10.4574 29.6507C9.47971 30.4613 8 29.7659 8 28.496V26H7C4.79086 26 3 24.2091 3 22V11.5C3 9.01472 5.01472 7 7.5 7H20.5C22.9853 7 25 9.01472 25 11.5ZM15.5 23.75C15.5 21.4028 17.4028 19.5 19.75 19.5H20.75C21.1642 19.5 21.5 19.8358 21.5 20.25C21.5 20.6642 21.1642 21 20.75 21H19.75C18.2312 21 17 22.2312 17 23.75C17 25.2688 18.2312 26.5 19.75 26.5H20.75C21.1642 26.5 21.5 26.8358 21.5 27.25C21.5 27.6642 21.1642 28 20.75 28H19.75C17.4028 28 15.5 26.0972 15.5 23.75ZM30.5 23.75C30.5 21.4028 28.5972 19.5 26.25 19.5H24.75C24.3358 19.5 24 19.8358 24 20.25C24 20.6642 24.3358 21 24.75 21H26.25C27.7688 21 29 22.2312 29 23.75C29 25.2688 27.7688 26.5 26.25 26.5H24.75C24.3358 26.5 24 26.8358 24 27.25C24 27.6642 24.3358 28 24.75 28H26.25C28.5972 28 30.5 26.0972 30.5 23.75ZM19.5 23.75C19.5 23.3358 19.8358 23 20.25 23H25.75C26.1642 23 26.5 23.3358 26.5 23.75C26.5 24.1642 26.1642 24.5 25.75 24.5H20.25C19.8358 24.5 19.5 24.1642 19.5 23.75Z" fill="#212121"/>
</svg>
