<svg width="12" height="12" viewBox="0 0 12 12" fill="none" xmlns="http://www.w3.org/2000/svg">
<path d="M6.15332 7.00781C6.90972 7.08461 7.5 7.72334 7.5 8.5C7.5 9.27148 7.03072 9.90856 6.39844 10.3301C5.76267 10.7539 4.91333 11 4 11C3.08667 11 2.23733 10.7539 1.60156 10.3301C0.969276 9.90856 0.5 9.27148 0.5 8.5C0.5 7.67157 1.17157 7 2 7H6L6.15332 7.00781ZM9.99805 7C10.8265 7 11.498 7.67157 11.498 8.5C11.498 9.19538 11.0665 9.71123 10.5146 10.0283C9.96692 10.343 9.25012 10.5 8.49805 10.5C8.24556 10.5 7.99728 10.4807 7.75781 10.4453C7.99177 10.169 8.18795 9.85163 8.31934 9.49512C8.37799 9.49752 8.43755 9.5 8.49805 9.5C9.1265 9.5 9.65952 9.36718 10.0166 9.16211C10.3695 8.95932 10.498 8.7251 10.498 8.5C10.498 8.22386 10.2742 8 9.99805 8H8.44824C8.37308 7.62971 8.21328 7.29115 7.99414 7H9.99805ZM2 8C1.72386 8 1.5 8.22386 1.5 8.5C1.5 8.8331 1.70275 9.19571 2.15625 9.49805C2.60625 9.79802 3.25656 10 4 10C4.74344 10 5.39375 9.79802 5.84375 9.49805C6.29725 9.19571 6.5 8.8331 6.5 8.5C6.5 8.25829 6.32855 8.05629 6.10059 8.00977L6 8H2ZM4.23145 1.50879C5.36709 1.6239 6.25391 2.58302 6.25391 3.74902L6.24219 3.97852C6.1269 5.11389 5.16772 6.00085 4.00195 6.00098L3.77148 5.98926C2.71173 5.88165 1.86935 5.03827 1.76172 3.97852L1.75 3.74902C1.75 2.50544 2.75837 1.49609 4.00195 1.49609L4.23145 1.50879ZM8.75 2.49707C9.7165 2.49707 10.5 3.28057 10.5 4.24707C10.4997 5.21334 9.71634 5.99707 8.75 5.99707C7.78366 5.99707 7.00026 5.21334 7 4.24707C7 3.28057 7.7835 2.49707 8.75 2.49707ZM4.00195 2.49707C3.31065 2.49707 2.75 3.05772 2.75 3.74902C2.7504 4.43999 3.3109 5.00098 4.00195 5.00098C4.6929 5.00084 5.25351 4.43991 5.25391 3.74902C5.25391 3.05781 4.69314 2.4972 4.00195 2.49707ZM8.75 3.49707C8.33579 3.49707 8 3.83286 8 4.24707C8.00026 4.66106 8.33595 4.99707 8.75 4.99707C9.16405 4.99707 9.49974 4.66106 9.5 4.24707C9.5 3.83286 9.16421 3.49707 8.75 3.49707Z" fill="#212121"/>
</svg>
