<svg width="24" height="24" viewBox="0 0 24 24" fill="none" xmlns="http://www.w3.org/2000/svg">
<path d="M6 2C4.89543 2 4 2.89543 4 4V11.4982C4.47417 11.3004 4.97679 11.1572 5.5 11.0764V4C5.5 3.72386 5.72386 3.5 6 3.5H12V8C12 9.10457 12.8954 10 14 10H18.5V20C18.5 20.2761 18.2761 20.5 18 20.5H12.2678C11.9806 21.051 11.6168 21.5557 11.1904 22H18C19.1046 22 20 21.1046 20 20V9.82777C20 9.29733 19.7893 8.78863 19.4142 8.41355L13.5864 2.58579C13.2114 2.21071 12.7027 2 12.1722 2H6ZM17.3793 8.5H14C13.7239 8.5 13.5 8.27614 13.5 8V4.62066L17.3793 8.5ZM11.1904 13C10.5771 12.3609 9.83437 11.8468 9.00439 11.5H15.25C15.6642 11.5 16 11.8358 16 12.25C16 12.6642 15.6642 13 15.25 13H11.1904ZM12.1304 14.25C12.4002 14.7165 12.6138 15.2196 12.7617 15.75H15.25C15.6642 15.75 16 15.4142 16 15C16 14.5858 15.6642 14.25 15.25 14.25H12.1304ZM13 17.5C13 17.8401 12.9739 18.174 12.9235 18.5H15.25C15.6642 18.5 16 18.1642 16 17.75C16 17.3358 15.6642 17 15.25 17H12.9811C12.9936 17.165 13 17.3318 13 17.5ZM6.5 12C9.53757 12 12 14.4624 12 17.5C12 20.5376 9.53757 23 6.5 23C3.46243 23 1 20.5376 1 17.5C1 14.4624 3.46243 12 6.5 12ZM7 14.5C7 14.2239 6.77614 14 6.5 14C6.22386 14 6 14.2239 6 14.5V17.5C6 17.7761 6.22386 18 6.5 18H9C9.27614 18 9.5 17.7761 9.5 17.5C9.5 17.2239 9.27614 17 9 17H7V14.5Z" fill="#212121"/>
</svg>
