<svg width="24" height="24" viewBox="0 0 24 24" fill="none" xmlns="http://www.w3.org/2000/svg">
<path d="M13.75 2H10.25C9.09205 2 8.13841 2.87472 8.01379 3.99944L6.25 4C5.00736 4 4 5.00736 4 6.25V19.75C4 20.9926 5.00736 22 6.25 22H17.75C18.9926 22 20 20.9926 20 19.75V6.25C20 5.00736 18.9926 4 17.75 4L15.9862 3.99944C15.8616 2.87472 14.9079 2 13.75 2ZM10.25 3.5H13.75C14.1642 3.5 14.5 3.83579 14.5 4.25C14.5 4.66421 14.1642 5 13.75 5H10.25C9.83579 5 9.5 4.66421 9.5 4.25C9.5 3.83579 9.83579 3.5 10.25 3.5ZM8.25 12.5C7.55964 12.5 7 11.9404 7 11.25C7 10.5596 7.55964 10 8.25 10C8.94036 10 9.5 10.5596 9.5 11.25C9.5 11.9404 8.94036 12.5 8.25 12.5ZM8.25 16.5C7.55964 16.5 7 15.9404 7 15.25C7 14.5596 7.55964 14 8.25 14C8.94036 14 9.5 14.5596 9.5 15.25C9.5 15.9404 8.94036 16.5 8.25 16.5ZM17.5 11.25C17.5 11.9404 16.9404 12.5 16.25 12.5C15.5596 12.5 15 11.9404 15 11.25C15 10.5596 15.5596 10 16.25 10C16.9404 10 17.5 10.5596 17.5 11.25ZM12.25 12.5C11.5596 12.5 11 11.9404 11 11.25C11 10.5596 11.5596 10 12.25 10C12.9404 10 13.5 10.5596 13.5 11.25C13.5 11.9404 12.9404 12.5 12.25 12.5ZM13.5 15.25C13.5 15.9404 12.9404 16.5 12.25 16.5C11.5596 16.5 11 15.9404 11 15.25C11 14.5596 11.5596 14 12.25 14C12.9404 14 13.5 14.5596 13.5 15.25Z" fill="#212121"/>
</svg>
