<svg width="20" height="20" viewBox="0 0 20 20" fill="none" xmlns="http://www.w3.org/2000/svg">
<path d="M11 10C11.1035 10 11.2052 10.0079 11.3045 10.023C10.9143 10.302 10.5621 10.6308 10.2572 11H4C3.44772 11 3 11.4477 3 12V13.5C3 14.9071 4.57862 16 7.5 16C8.11725 16 8.67455 15.9512 9.16969 15.861C9.25335 16.1896 9.36661 16.5065 9.50646 16.8085C8.90367 16.9334 8.23233 17 7.5 17C4.08805 17 2 15.5544 2 13.5V12C2 10.8954 2.89543 10 4 10H11ZM17 6.5C17 7.88071 15.8807 9 14.5 9C13.1193 9 12 7.88071 12 6.5C12 5.11929 13.1193 4 14.5 4C15.8807 4 17 5.11929 17 6.5ZM14.5 5C13.6716 5 13 5.67157 13 6.5C13 7.32843 13.6716 8 14.5 8C15.3284 8 16 7.32843 16 6.5C16 5.67157 15.3284 5 14.5 5ZM7.5 2C9.433 2 11 3.567 11 5.5C11 7.433 9.433 9 7.5 9C5.567 9 4 7.433 4 5.5C4 3.567 5.567 2 7.5 2ZM7.5 3C6.11929 3 5 4.11929 5 5.5C5 6.88071 6.11929 8 7.5 8C8.88071 8 10 6.88071 10 5.5C10 4.11929 8.88071 3 7.5 3ZM12.0657 11.442C12.369 12.5231 11.723 13.642 10.6351 13.9199L10.174 14.0377C10.159 14.1896 10.1514 14.3438 10.1514 14.4999C10.1514 14.6875 10.1625 14.8725 10.184 15.0541L10.5336 15.1368C11.653 15.4014 12.319 16.5536 11.9897 17.6557L11.8633 18.0785C12.1205 18.2817 12.4002 18.4559 12.698 18.5964L13.023 18.2523C13.8128 17.416 15.1436 17.4167 15.9325 18.2538L16.2698 18.6118C16.5623 18.4769 16.8376 18.3095 17.0917 18.1142L16.9356 17.5575C16.6323 16.4764 17.2783 15.3575 18.3662 15.0795L18.8268 14.9619C18.8417 14.81 18.8494 14.6559 18.8494 14.4999C18.8494 14.3121 18.8383 14.127 18.8167 13.9452L18.4677 13.8627C17.3483 13.598 16.6823 12.4459 17.0116 11.3438L17.1378 10.9215C16.8806 10.7182 16.6008 10.5439 16.303 10.4034L15.9783 10.7472C15.1885 11.5835 13.8577 11.5828 13.0688 10.7457L12.7314 10.3877C12.439 10.5226 12.1636 10.6899 11.9095 10.8852L12.0657 11.442ZM14.5004 15.4999C13.9481 15.4999 13.5004 15.0521 13.5004 14.4999C13.5004 13.9476 13.9481 13.4999 14.5004 13.4999C15.0527 13.4999 15.5004 13.9476 15.5004 14.4999C15.5004 15.0521 15.0527 15.4999 14.5004 15.4999Z" fill="#212121"/>
</svg>
