<svg width="21" height="20" viewBox="0 0 21 20" fill="none" xmlns="http://www.w3.org/2000/svg">
<path d="M11.416 10C11.5195 10 11.6212 10.0079 11.7205 10.023C10.3253 11.0206 9.41602 12.6541 9.41602 14.5C9.41602 15.3244 9.59741 16.1065 9.92248 16.8085C9.31968 16.9334 8.64834 17 7.91602 17C4.50406 17 2.41602 15.5544 2.41602 13.5V12C2.41602 10.8954 3.31145 10 4.41602 10H11.416ZM17.416 6.5C17.416 7.88071 16.2967 9 14.916 9C13.5353 9 12.416 7.88071 12.416 6.5C12.416 5.11929 13.5353 4 14.916 4C16.2967 4 17.416 5.11929 17.416 6.5ZM7.91602 2C9.84901 2 11.416 3.567 11.416 5.5C11.416 7.433 9.84901 9 7.91602 9C5.98302 9 4.41602 7.433 4.41602 5.5C4.41602 3.567 5.98302 2 7.91602 2ZM12.4817 11.442C12.785 12.5231 12.139 13.642 11.0511 13.9199L10.59 14.0377C10.5751 14.1896 10.5674 14.3438 10.5674 14.4999C10.5674 14.6875 10.5785 14.8725 10.6 15.0541L10.9496 15.1368C12.069 15.4014 12.735 16.5536 12.4057 17.6557L12.2793 18.0785C12.5365 18.2817 12.8163 18.4559 13.114 18.5964L13.439 18.2523C14.2288 17.416 15.5596 17.4167 16.3485 18.2538L16.6859 18.6118C16.9783 18.4769 17.2537 18.3095 17.5077 18.1142L17.3516 17.5575C17.0483 16.4764 17.6943 15.3575 18.7822 15.0795L19.2428 14.9619C19.2577 14.81 19.2654 14.6559 19.2654 14.4999C19.2654 14.3121 19.2543 14.127 19.2327 13.9452L18.8837 13.8627C17.7643 13.598 17.0983 12.4459 17.4276 11.3438L17.5538 10.9215C17.2966 10.7182 17.0168 10.5439 16.719 10.4034L16.3943 10.7472C15.6045 11.5835 14.2737 11.5828 13.4848 10.7457L13.1475 10.3877C12.855 10.5226 12.5796 10.6899 12.3255 10.8852L12.4817 11.442ZM14.9164 15.4999C14.3641 15.4999 13.9164 15.0521 13.9164 14.4999C13.9164 13.9476 14.3641 13.4999 14.9164 13.4999C15.4687 13.4999 15.9164 13.9476 15.9164 14.4999C15.9164 15.0521 15.4687 15.4999 14.9164 15.4999Z" fill="#212121"/>
</svg>
