<svg width="16" height="16" viewBox="0 0 16 16" fill="none" xmlns="http://www.w3.org/2000/svg">
<path d="M6.23261 2.69708C7.20892 1.72077 8.79183 1.72077 9.76814 2.69708L13.3037 6.23261C14.28 7.20892 14.28 8.79183 13.3037 9.76814L9.76814 13.3037C8.79183 14.28 7.20892 14.28 6.23261 13.3037L2.69708 9.76814C1.72077 8.79183 1.72077 7.20892 2.69708 6.23261L6.23261 2.69708ZM9.06104 3.40418C8.47525 2.8184 7.5255 2.8184 6.93972 3.40418L3.40418 6.93972C2.8184 7.5255 2.8184 8.47525 3.40418 9.06104L6.93972 12.5966C7.5255 13.1824 8.47525 13.1824 9.06104 12.5966L12.5966 9.06104C13.1824 8.47525 13.1824 7.5255 12.5966 6.93972L9.06104 3.40418ZM8.14682 4.64682C8.34209 4.45156 8.65867 4.45156 8.85393 4.64682L10.3539 6.14682C10.5492 6.34209 10.5492 6.65867 10.3539 6.85393L8.85393 8.35393C8.65867 8.54919 8.34209 8.54919 8.14682 8.35393C7.95156 8.15867 7.95156 7.84209 8.14682 7.64682L8.79327 7.00038H7.50038C7.22424 7.00038 7.00038 7.22424 7.00038 7.50038V10.0004C7.00038 10.2765 6.77652 10.5004 6.50038 10.5004C6.22424 10.5004 6.00038 10.2765 6.00038 10.0004V7.50038C6.00038 6.67195 6.67195 6.00038 7.50038 6.00038H8.79327L8.14682 5.35393C7.95156 5.15867 7.95156 4.84209 8.14682 4.64682Z" fill="#212121"/>
</svg>
