<svg width="48" height="48" viewBox="0 0 48 48" fill="none" xmlns="http://www.w3.org/2000/svg">
<path d="M26.4947 6C25.3676 6 24.2866 6.44774 23.4896 7.24472L7.24877 23.4848C5.58898 25.1445 5.58895 27.8355 7.2487 29.4953L18.5061 40.7526C20.1658 42.4123 22.8567 42.4123 24.5164 40.7527L40.7573 24.5126C41.5543 23.7156 42.0021 22.6345 42.0021 21.5073V10.25C42.0021 7.90279 40.0994 6 37.7521 6H26.4947ZM25.2573 9.01253C25.5855 8.68436 26.0306 8.5 26.4947 8.5H37.7521C38.7186 8.5 39.5021 9.2835 39.5021 10.25V21.5073C39.5021 21.9715 39.3178 22.4166 38.9896 22.7448L22.7487 38.9849C22.0652 39.6683 20.9572 39.6683 20.2738 38.9848L9.01647 27.7275C8.33304 27.0441 8.33305 25.936 9.0165 25.2526L25.2573 9.01253ZM33.5 17C34.8807 17 36 15.8807 36 14.5C36 13.1193 34.8807 12 33.5 12C32.1193 12 31 13.1193 31 14.5C31 15.8807 32.1193 17 33.5 17Z" fill="#212121"/>
</svg>
