<svg width="24" height="24" viewBox="0 0 24 24" fill="none" xmlns="http://www.w3.org/2000/svg">
<path d="M13.5 14.001C14.2793 14.001 14.9204 14.5963 14.9931 15.3566L15 15.501V15.6715C14.3502 15.3634 13.5498 15.4783 13.0123 16.016L10.5123 18.5171C10.1842 18.8453 9.9999 19.2905 10 19.7546C10.0001 20.2188 10.1846 20.6638 10.5128 20.992L11.1946 21.6734C10.2983 21.9056 9.35522 22 8.5 22C5.77787 22 2.1647 21.044 2.00545 17.7296L2 17.5V15.5C2 14.7207 2.59527 14.0796 3.35561 14.0069L3.5 14L13.5 14.001ZM14.7804 17.7834L13.5612 19.0032H20.4386L19.2195 17.7833C18.9267 17.4903 18.9269 17.0155 19.2198 16.7227C19.5128 16.4299 19.9877 16.43 20.2805 16.723L22.7805 19.2246C22.9211 19.3653 23.0001 19.5561 23 19.755C22.9999 19.9539 22.9209 20.1447 22.7802 20.2853L20.2802 22.7837C19.9872 23.0765 19.5123 23.0763 19.2195 22.7833C18.9267 22.4903 18.9269 22.0155 19.2198 21.7227L20.4401 20.5032H13.5601L14.7802 21.7227C15.0732 22.0156 15.0733 22.4904 14.7804 22.7834C14.4876 23.0763 14.0127 23.0764 13.7198 22.7836L11.2198 20.2847C11.0791 20.1441 11 19.9533 11 19.7544C11 19.5555 11.0789 19.3647 11.2196 19.224L13.7196 16.723C14.0124 16.43 14.4873 16.4299 14.7802 16.7227C15.0732 17.0156 15.0733 17.4904 14.7804 17.7834ZM20.9878 16.0161L21.9999 17.0289L22 17V15.5L21.9931 15.3555C21.9204 14.5944 21.2793 14 20.5 14H15.488L15.601 14.1616C15.8507 14.5488 16 15.0056 16 15.5V17.5L15.9934 17.78C15.9898 17.8554 15.9847 17.9297 15.9782 18.0032H18.1683C17.8602 17.3533 17.9751 16.5528 18.513 16.0153C19.1966 15.3321 20.3046 15.3325 20.9878 16.0161ZM8.5 3C10.985 3 13 5.015 13 7.5C13 9.985 10.985 12 8.5 12C6.015 12 4 9.985 4 7.5C4 5.015 6.015 3 8.5 3ZM17.5 5C19.433 5 21 6.567 21 8.5C21 10.433 19.433 12 17.5 12C15.567 12 14 10.433 14 8.5C14 6.567 15.567 5 17.5 5Z" fill="#212121"/>
</svg>
