<svg width="16" height="16" viewBox="0 0 16 16" fill="none" xmlns="http://www.w3.org/2000/svg">
<path d="M3 3C3 1.89543 3.89543 1 5 1H8.58579C8.98361 1 9.36514 1.15804 9.64645 1.43934L12.5607 4.35355C12.842 4.63486 13 5.01639 13 5.41421V13C13 14.1046 12.1046 15 11 15H7.91465C7.96992 14.8436 8 14.6753 8 14.5V14H11C11.5523 14 12 13.5523 12 13V6H9.5C8.67157 6 8 5.32843 8 4.5V2H5C4.44772 2 4 2.44772 4 3V9.49982C3.70929 9.28146 3.36944 9.125 3 9.05001V3ZM9.5 5H11.7929L9 2.20711V4.5C9 4.77614 9.22386 5 9.5 5ZM6.80127 10.2037C6.90129 10.2974 7 10.451 7 10.6543V14.5C7 14.7761 6.77614 15 6.5 15C6.22386 15 6 14.7761 6 14.5V11.4582C5.78139 11.6398 5.51905 11.8131 5.20712 11.9551C4.95579 12.0695 4.65931 11.9585 4.54492 11.7071C4.43053 11.4558 4.54154 11.1593 4.79288 11.0449C5.2601 10.8323 5.57277 10.5213 5.76992 10.2606C5.99298 9.96564 6.34299 9.99463 6.49493 10.0357C6.59307 10.0622 6.70494 10.1135 6.80127 10.2037ZM2.5 10C1.67157 10 1 10.6716 1 11.5V13.5C1 14.3284 1.67157 15 2.5 15C3.32843 15 4 14.3284 4 13.5V11.5C4 10.6716 3.32843 10 2.5 10ZM2 11.5C2 11.2239 2.22386 11 2.5 11C2.77614 11 3 11.2239 3 11.5V13.5C3 13.7761 2.77614 14 2.5 14C2.22386 14 2 13.7761 2 13.5V11.5Z" fill="#212121"/>
</svg>
