<svg width="12" height="12" viewBox="0 0 12 12" fill="none" xmlns="http://www.w3.org/2000/svg">
<path d="M4.58606 1.08525C5.36719 0.304802 6.63325 0.3045 7.4142 1.08525L10.9142 4.58429C11.695 5.36512 11.6948 6.63144 10.9142 7.41243L7.4142 10.9124C6.63324 11.6929 5.36711 11.6928 4.58606 10.9124L1.08605 7.41243C0.304999 6.63143 0.304956 5.36526 1.08605 4.58429L4.58606 1.08525ZM6.70716 1.79229C6.31676 1.40201 5.68367 1.40228 5.2931 1.79229L1.79308 5.29133C1.40256 5.68179 1.40262 6.31489 1.79308 6.7054L5.2931 10.2054C5.6836 10.5953 6.31675 10.5955 6.70716 10.2054L10.2072 6.7054C10.5971 6.3149 10.5974 5.68164 10.2072 5.29133L6.70716 1.79229ZM7.14662 4.14679C7.34188 3.95153 7.65839 3.95153 7.85365 4.14679C8.04869 4.34207 8.04884 4.65864 7.85365 4.85382L6.70716 6.00031L7.85365 7.1468C8.04869 7.34208 8.04884 7.65865 7.85365 7.85384C7.65846 8.04896 7.34188 8.04885 7.14662 7.85384L6.00013 6.70735L4.85364 7.85384C4.65845 8.04896 4.34186 8.04885 4.14661 7.85384C3.95137 7.6586 3.95141 7.34207 4.14661 7.1468L5.2931 6.00031L4.14661 4.85382C3.95137 4.65859 3.95141 4.34206 4.14661 4.14679C4.34187 3.95153 4.65838 3.95153 4.85364 4.14679L6.00013 5.29328L7.14662 4.14679Z" fill="#212121"/>
</svg>
