<svg width="48" height="48" viewBox="0 0 48 48" fill="none" xmlns="http://www.w3.org/2000/svg">
<path d="M24.0049 15.5C20.6912 15.5 18.0049 18.1863 18.0049 21.5C18.0049 24.8137 20.6912 27.5 24.0049 27.5C27.3186 27.5 30.0049 24.8137 30.0049 21.5C30.0049 18.1863 27.3186 15.5 24.0049 15.5ZM20.5049 21.5C20.5049 19.567 22.0719 18 24.0049 18C25.9379 18 27.5049 19.567 27.5049 21.5C27.5049 23.433 25.9379 25 24.0049 25C22.0719 25 20.5049 23.433 20.5049 21.5ZM41 21C41 22.3153 40.8506 23.5957 40.5679 24.8252C39.7947 24.535 38.9865 24.3163 38.1513 24.1772C38.3796 23.155 38.5 22.0919 38.5 21C38.5 12.9919 32.0081 6.5 24 6.5C15.9919 6.5 9.5 12.9919 9.5 21C9.5 24.5801 10.7943 27.8515 12.9434 30.3815L13.2512 30.7438L22.9081 40.995C23.15 41.2517 23.4597 41.4036 23.7818 41.4507C24.0897 42.2957 24.4828 43.0998 24.9506 43.8526C23.6023 44.1808 22.1156 43.7997 21.0884 42.7093L11 32H11.0381L11.0212 31.9801L11 31.955C10.3558 31.1913 9.77758 30.37 9.2743 29.5C7.82785 26.9995 7 24.0964 7 21C7 11.6112 14.6112 4 24 4C33.3888 4 41 11.6112 41 21ZM29.8938 31.7831C30.235 32.8936 29.5615 34.0601 28.4292 34.3199L25.1691 35.0677C25.058 35.6951 25 36.3408 25 37C25 37.5672 25.0429 38.1243 25.1257 38.6683L28.5896 39.5361C29.6866 39.8109 30.3377 40.9399 30.0262 42.027L29.0285 45.5091C29.9453 46.2611 30.9858 46.8679 32.1148 47.2942L34.6335 44.687C35.4193 43.8737 36.7226 43.8731 37.5091 44.6857L39.9934 47.2527C41.1288 46.8101 42.1726 46.1844 43.0884 45.4119L42.1066 42.2165C41.7654 41.106 42.4389 39.9395 43.5712 39.6797L46.8309 38.932C46.942 38.3047 47 37.6591 47 37C47 36.4327 46.9571 35.8754 46.8742 35.3312L43.4108 34.4636C42.3139 34.1887 41.6627 33.0598 41.9742 31.9726L42.9717 28.4911C42.0549 27.739 41.0144 27.1322 39.8853 26.7058L37.3669 29.3126C36.5811 30.1259 35.2779 30.1265 34.4914 29.3139L32.0071 26.7471C30.8717 27.1896 29.8279 27.8152 28.912 28.5877L29.8938 31.7831ZM36 40C34.3432 40 33 38.6568 33 37C33 35.3431 34.3432 34 36 34C37.6569 34 39 35.3431 39 37C39 38.6568 37.6569 40 36 40Z" fill="#212121"/>
</svg>
