<?xml version="1.0" encoding="UTF-8"?>
<svg width="24px" height="24px" viewBox="0 0 24 24" version="1.1" xmlns="http://www.w3.org/2000/svg" xmlns:xlink="http://www.w3.org/1999/xlink">
    <!-- Generator: Sketch 59.1 (86144) - https://sketch.com -->
    <title>ic_fluent_brand_box_24_color</title>
    <desc>Created with Sketch.</desc>
    <g id="ðŸ”-Product-Icons" stroke="none" stroke-width="1" fill="none" fill-rule="evenodd">
        <g id="ic_fluent_brand_box_24_color" fill="#0061D5" fill-rule="nonzero">
            <path d="M2.74502989,5 C3.12130599,5 3.43251525,5.28776487 3.48397843,5.66384201 L3.49132019,5.75958571 L3.49132019,9.02443208 C4.11674197,8.5375714 4.89184774,8.24936396 5.73084301,8.24936396 C7.15970795,8.24936396 8.40164175,9.08347285 9.02758507,10.3081626 C9.65335455,9.08347285 10.8958968,8.24936396 12.3237621,8.24936396 C14.3838293,8.24936396 16.0549963,9.98388976 16.0549963,12.1239823 C16.0549963,14.265068 14.3838293,16 12.3237621,16 C10.8958968,16 9.65335455,15.1651238 9.02758507,13.9416076 C8.40164175,15.1651238 7.15970795,16 5.73084301,16 C3.74829633,16 2.12864304,14.3952912 2.00758903,12.368477 L2.00082578,12.1885751 L2,5.75958571 C2.00934438,5.33772405 2.33739745,5 2.74502989,5 Z M20.5486887,8.5993656 C20.8232832,8.2685477 21.3211433,8.20305216 21.6760126,8.4585344 C22.003183,8.69240586 22.0910467,9.11665905 21.9007362,9.44915623 L21.8473408,9.53020567 L19.816654,12.1189269 L21.8448634,14.7026377 C22.102073,15.0451013 22.0281437,15.520542 21.6736656,15.7748958 C21.3461341,16.0097672 20.8968013,15.9726428 20.6134301,15.7045278 L20.5462114,15.6327104 L18.8016801,13.4120913 L17.0561492,15.6327104 C16.7844232,15.9645665 16.2834339,16.0293398 15.9296512,15.7748958 C15.6030825,15.5401077 15.5149688,15.1169378 15.7062629,14.7838671 L15.7599311,14.7026377 L17.7862281,12.1189269 L15.7592357,9.53020567 L15.7062629,9.44915993 C15.5149688,9.1166911 15.6030825,8.69261419 15.9296512,8.4585344 C16.2562198,8.22270464 16.708219,8.26037074 16.9895448,8.52818424 L17.0561492,8.5993656 L18.8016801,10.8230541 L20.5486887,8.59990726 L20.5486887,8.5993656 Z M12.3237621,9.8008092 C11.0872611,9.8008092 10.0846739,10.8408837 10.0846739,12.1239823 C10.0846739,13.4081643 11.0872611,14.4484645 12.3237621,14.4484645 C13.5597416,14.4484645 14.5618072,13.4081643 14.5618072,12.1239823 C14.5618072,10.8408837 13.5597416,9.8008092 12.3237621,9.8008092 Z M5.73084301,9.8008092 C4.49460277,9.8008092 3.49132019,10.8408837 3.49132019,12.1244789 C3.49132019,13.4084351 4.49460277,14.4484645 5.73084301,14.4484645 C6.96695287,14.4484645 7.96814926,13.4081643 7.96814926,12.1239823 C7.96814926,10.8408837 6.96695287,9.8008092 5.73084301,9.8008092 Z" id="ðŸŽ¨-Color"></path>
        </g>
    </g>
</svg>