<?xml version="1.0" encoding="UTF-8"?>
<svg width="24px" height="24px" viewBox="0 0 24 24" version="1.1" xmlns="http://www.w3.org/2000/svg" xmlns:xlink="http://www.w3.org/1999/xlink">
    <!-- Generator: Sketch 64 (93537) - https://sketch.com -->
    <title>ic_fluent_document_catch_up_24_filled</title>
    <desc>Created with Sketch.</desc>
    <g id="ðŸ”-System-Icons" stroke="none" stroke-width="1" fill="none" fill-rule="evenodd">
        <g id="ic_fluent_document_catch_up_24_filled" fill="#212121" fill-rule="nonzero">
            <path d="M12,2 L12,8.00395 C12.0020045,9.056575 12.8172167,9.91835816 13.8509078,9.99452724 L14,10 L20,10 L20,20 C20,21.0543909 19.18415,21.9181678 18.1492661,21.9945144 L18,22 L6,22 C4.94563773,22 4.08183483,21.18415 4.00548573,20.1492661 L4,20 L4,15.5 L5.78195,15.5 L5.9749,15.4858 L6.13806,15.4554 L6.13806,15.4554 C6.616455,15.34515 7.0313541,15.03726 7.27372077,14.6022243 L7.34797,14.4526 L7.42567,14.2754 L8.88833,17.928 L8.97129,18.0996 L8.99916,18.1463 C9.64855423,19.2361077 11.2340616,19.2883784 11.9447344,18.2343927 L12.0257,18.1026 L13.6902,15.4999 L14.7306,15.4999 L14.9083,15.488 L14.9596,15.4802 C15.8022,15.3528 16.447,14.6272 16.447,13.7499 C16.447,12.831725 15.7398912,12.0787075 14.8405274,12.0057012 L14.697,11.9999 L12.662,11.9999 L12.4778,12.0129 L12.4246,12.0213 C11.9645111,12.0937444 11.5518296,12.3471272 11.2790527,12.7243486 L11.1835,12.8715 L10.8376,13.3806 L9.11004,9.06651 L9.02482,8.89091 L8.99617,8.84319 C8.31159,7.70309 6.61089576,7.715519 5.96554251,8.90495285 L5.89588,9.04742 L4.60158,12 L4,12 L4,4 C4,2.94563773 4.81587733,2.08183483 5.85073759,2.00548573 L6,2 L12,2 Z M6.81175,9.4489 C7.04489687,8.91702813 7.74067363,8.85847363 8.0766877,9.26951216 L8.14458,9.36751 L8.1949,9.4712 L10.6081,15.4977 L12.0348,13.3979 C12.1302857,13.2181571 12.2931429,13.0875653 12.4831312,13.0310621 L12.5909,13.0074 L12.6971,12.9999 L14.697,12.9999 C15.1112,12.9999 15.447,13.3357 15.447,13.7499 C15.447,14.08794 15.223278,14.373978 14.9155833,14.4676086 L14.7998,14.493 L14.697,14.4999 L13.1428,14.4999 L11.1641,17.5937 C10.9072467,18.0849133 10.246372,18.1211453 9.92221778,17.7257302 L9.85261,17.6251 L9.80375,17.524 L7.46737,11.6894 L6.4321,14.0511 C6.34942,14.2397571 6.19496041,14.382202 6.00901184,14.4521117 L5.9136,14.4809 L5.85645,14.4918 L5.7452,14.5 L2.75,14.5 C2.33579,14.5 2,14.1642 2,13.75 C2,13.41196 2.2237139,13.125922 2.53142885,13.0323643 L2.64718,13.0069 L2.75,13 L5.25508,13 L6.81175,9.4489 Z M13.5,2.5 L19.5,8.5 L14,8.5 C13.7239,8.5 13.5,8.27614 13.5,8 L13.5,2.5 Z" id="ðŸŽ¨-Color"></path>
        </g>
    </g>
</svg>