<svg width="16" height="16" viewBox="0 0 16 16" fill="none" xmlns="http://www.w3.org/2000/svg">
<path d="M12.8876 6.57978C13.5583 6.13141 13.9999 5.36728 13.9999 4.5C13.9999 3.11929 12.8806 2 11.4999 2C10.5136 2 9.66071 2.57113 9.25391 3.40071C10.9177 3.80849 12.2702 5.00937 12.8876 6.57978Z" fill="url(#paint0_linear_68326_13761)"/>
<path d="M12.8876 6.57978C13.5583 6.13141 13.9999 5.36728 13.9999 4.5C13.9999 3.11929 12.8806 2 11.4999 2C10.5136 2 9.66071 2.57113 9.25391 3.40071C10.9177 3.80849 12.2702 5.00937 12.8876 6.57978Z" fill="url(#paint1_radial_68326_13761)"/>
<path d="M6.74597 3.40071C5.08213 3.8085 3.7297 5.00937 3.11226 6.57978C2.44162 6.13141 2 5.36728 2 4.5C2 3.11929 3.11929 2 4.5 2C5.48628 2 6.33917 2.57113 6.74597 3.40071Z" fill="url(#paint2_linear_68326_13761)"/>
<path d="M6.74597 3.40071C5.08213 3.8085 3.7297 5.00937 3.11226 6.57978C2.44162 6.13141 2 5.36728 2 4.5C2 3.11929 3.11929 2 4.5 2C5.48628 2 6.33917 2.57113 6.74597 3.40071Z" fill="url(#paint3_radial_68326_13761)"/>
<path d="M3.35355 13.8535L4.85355 12.3536L4.14645 11.6465L2.64645 13.1464C2.45119 13.3417 2.45118 13.6583 2.64644 13.8535C2.84171 14.0488 3.15829 14.0488 3.35355 13.8535Z" fill="url(#paint4_linear_68326_13761)"/>
<path d="M13.3535 13.1465L11.8535 11.6465L11.1464 12.3536L12.6464 13.8536C12.8417 14.0488 13.1583 14.0488 13.3535 13.8536C13.5488 13.6583 13.5488 13.3417 13.3535 13.1465Z" fill="url(#paint5_linear_68326_13761)"/>
<circle cx="8" cy="8.5" r="5.5" fill="url(#paint6_linear_68326_13761)"/>
<circle cx="8" cy="8.5" r="4.5" fill="url(#paint7_linear_68326_13761)"/>
<path d="M7.5 6V9H9.5" stroke="url(#paint8_linear_68326_13761)" stroke-linecap="round" stroke-linejoin="round"/>
<defs>
<linearGradient id="paint0_linear_68326_13761" x1="14.8069" y1="6.91303" x2="10.1386" y2="3.09419" gradientUnits="userSpaceOnUse">
<stop stop-color="#FF6F47"/>
<stop offset="1" stop-color="#FFCD0F"/>
</linearGradient>
<radialGradient id="paint1_radial_68326_13761" cx="0" cy="0" r="1" gradientUnits="userSpaceOnUse" gradientTransform="translate(8.39987 8.4) rotate(-45) scale(7.35391)">
<stop offset="0.644231" stop-color="#FF6F47"/>
<stop offset="0.942308" stop-color="#FF6F47" stop-opacity="0"/>
</radialGradient>
<linearGradient id="paint2_linear_68326_13761" x1="6.92197" y1="6.91303" x2="2.25371" y2="3.09419" gradientUnits="userSpaceOnUse">
<stop stop-color="#FF6F47"/>
<stop offset="1" stop-color="#FFCD0F"/>
</linearGradient>
<radialGradient id="paint3_radial_68326_13761" cx="0" cy="0" r="1" gradientUnits="userSpaceOnUse" gradientTransform="translate(8.4 8.4) rotate(-135) scale(7.35391)">
<stop offset="0.658654" stop-color="#FF6F47"/>
<stop offset="0.948918" stop-color="#FF6F47" stop-opacity="0"/>
</radialGradient>
<linearGradient id="paint4_linear_68326_13761" x1="2.5" y1="10.636" x2="2.97311" y2="14.7754" gradientUnits="userSpaceOnUse">
<stop stop-color="#CAD2D9"/>
<stop offset="1" stop-color="#70777D"/>
</linearGradient>
<linearGradient id="paint5_linear_68326_13761" x1="2.5" y1="10.636" x2="2.97311" y2="14.7754" gradientUnits="userSpaceOnUse">
<stop stop-color="#CAD2D9"/>
<stop offset="1" stop-color="#70777D"/>
</linearGradient>
<linearGradient id="paint6_linear_68326_13761" x1="4.33333" y1="2.38889" x2="9.83333" y2="14.6111" gradientUnits="userSpaceOnUse">
<stop stop-color="#1EC8B0"/>
<stop offset="1" stop-color="#2764E7"/>
</linearGradient>
<linearGradient id="paint7_linear_68326_13761" x1="4.86957" y1="3.02174" x2="10.7391" y2="15.5435" gradientUnits="userSpaceOnUse">
<stop stop-color="#FDFDFD"/>
<stop offset="1" stop-color="#DEDEFF"/>
</linearGradient>
<linearGradient id="paint8_linear_68326_13761" x1="8.4" y1="5.42223" x2="10.2863" y2="8.56602" gradientUnits="userSpaceOnUse">
<stop stop-color="#1EC8B0"/>
<stop offset="1" stop-color="#2764E7"/>
</linearGradient>
</defs>
</svg>
