<svg width="24" height="24" viewBox="0 0 24 24" fill="none" xmlns="http://www.w3.org/2000/svg">
<path d="M8.25492 8.99986C9.22142 8.99986 10.0049 9.78336 10.0049 10.7499V20.25C10.0049 21.2165 9.22142 22 8.25492 22H3.75049C2.78399 22 2.00049 21.2165 2.00049 20.25V10.7499C2.00049 9.78336 2.78399 8.99986 3.75049 8.99986H8.25492ZM8.25492 10.4999H3.75049C3.61242 10.4999 3.50049 10.6118 3.50049 10.7499V20.25C3.50049 20.3881 3.61242 20.5 3.75049 20.5H8.25492C8.393 20.5 8.50492 20.3881 8.50492 20.25V10.7499C8.50492 10.6118 8.393 10.4999 8.25492 10.4999ZM6.24986 18C6.66408 18 6.99986 18.3358 6.99986 18.75C6.99986 19.1297 6.71771 19.4435 6.35163 19.4932L6.24986 19.5H5.74986C5.33565 19.5 4.99986 19.1642 4.99986 18.75C4.99986 18.3703 5.28202 18.0565 5.64809 18.0068L5.74986 18H6.24986ZM19.7499 2C20.9407 2 21.9155 2.92516 21.9947 4.09595L21.9999 4.25V13.25C21.9999 14.4409 21.0747 15.4156 19.9039 15.4948L19.7499 15.5H16.0039V17.5H17.2499C17.6641 17.5 17.9999 17.8358 17.9999 18.25C17.9999 18.6297 17.7177 18.9435 17.3516 18.9932L17.2499 19H10.9999V17.5H14.5039V15.5H10.9999V14H19.7499C20.1296 14 20.4434 13.7178 20.493 13.3518L20.4999 13.25V4.25C20.4999 3.83579 20.1641 3.5 19.7499 3.5H6.24986C5.87017 3.5 5.55637 3.78215 5.50671 4.14823L5.49986 4.25V8H3.99986V4.25C3.99986 3.05914 4.92502 2.08436 6.09581 2.00519L6.24986 2H19.7499Z" fill="#212121"/>
</svg>
