<svg width="29" height="28" viewBox="0 0 29 28" fill="none" xmlns="http://www.w3.org/2000/svg">
<path d="M10.1626 10C11.3534 10 12.3282 10.9252 12.4074 12.096L12.4126 12.25V23.75C12.4126 24.9409 11.4874 25.9156 10.3166 25.9948L10.1626 26H4.66602C3.47515 26 2.50037 25.0748 2.42121 23.904L2.41602 23.75V12.25C2.41602 11.0591 3.34118 10.0844 4.51197 10.0052L4.66602 10H10.1626ZM8.166 21.5H6.66485L6.56308 21.5068C6.197 21.5565 5.91485 21.8703 5.91485 22.25C5.91485 22.6297 6.197 22.9435 6.56308 22.9932L6.66485 23H8.166L8.26777 22.9932C8.63385 22.9435 8.916 22.6297 8.916 22.25C8.916 21.8703 8.63385 21.5565 8.26777 21.5068L8.166 21.5ZM24.1686 2C25.3595 2 26.3343 2.92516 26.4134 4.09595L26.4186 4.25V15.5C26.4186 16.6909 25.4935 17.6656 24.3227 17.7448L24.1686 17.75H19.414V20.5H20.666C21.0802 20.5 21.416 20.8358 21.416 21.25C21.416 21.6297 21.1339 21.9435 20.7678 21.9932L20.666 22H13.416V20.5H17.914V17.75H13.416V11.5C13.416 10.1745 12.3845 9.08996 11.0804 9.00532L10.916 9H5.41602V4.25C5.41602 3.05914 6.34118 2.08436 7.51197 2.00519L7.66602 2H24.1686Z" fill="#212121"/>
</svg>
