<svg width="25" height="24" viewBox="0 0 25 24" fill="none" xmlns="http://www.w3.org/2000/svg">
<path d="M8.67143 8.99986C9.63793 8.99986 10.4214 9.78336 10.4214 10.7499V20.25C10.4214 21.2165 9.63793 22 8.67143 22H4.16699C3.20049 22 2.41699 21.2165 2.41699 20.25V10.7499C2.41699 9.78336 3.20049 8.99986 4.16699 8.99986H8.67143ZM6.66921 18.4952H6.16921L6.06744 18.502C5.70136 18.5517 5.41921 18.8655 5.41921 19.2452C5.41921 19.6249 5.70136 19.9387 6.06744 19.9883L6.16921 19.9952H6.66921L6.77098 19.9883C7.13706 19.9387 7.41921 19.6249 7.41921 19.2452C7.41921 18.8655 7.13706 18.5517 6.77098 18.502L6.66921 18.4952ZM20.1664 2C21.3572 2 22.332 2.92516 22.4112 4.09595L22.4164 4.25V13.25C22.4164 14.4409 21.4912 15.4156 20.3204 15.4948L20.1664 15.5H16.4204V17.5H17.6664C18.0806 17.5 18.4164 17.8358 18.4164 18.25C18.4164 18.6297 18.1342 18.9435 17.7681 18.9932L17.6664 19H11.4164V17.5H14.9204V15.5H11.4164V10.5C11.4164 9.17452 10.3848 8.08996 9.08074 8.00532L8.91637 8H4.41637V4.25C4.41637 3.05914 5.34153 2.08436 6.51232 2.00519L6.66637 2H20.1664Z" fill="#212121"/>
</svg>
