<svg width="28" height="28" viewBox="0 0 28 28" fill="none" xmlns="http://www.w3.org/2000/svg">
<path d="M5 4.25V9H9.75C11.5449 9 13 10.4551 13 12.25V17.75H17.498V20.5H13V22H20.25L20.3518 21.9932C20.7178 21.9435 21 21.6297 21 21.25C21 20.8358 20.6642 20.5 20.25 20.5H18.998V17.75H23.7526L23.9067 17.7448C25.0775 17.6656 26.0026 16.6909 26.0026 15.5V4.25L25.9974 4.09595C25.9183 2.92516 24.9435 2 23.7526 2H7.25L7.09595 2.00519C5.92516 2.08436 5 3.05914 5 4.25ZM12 17V12.25C12 11.0074 10.9926 10 9.75 10H4.25L4.09595 10.0052C2.92516 10.0844 2 11.0591 2 12.25V23.75L2.00519 23.904C2.08436 25.0748 3.05914 26 4.25 26H9.74655L9.9006 25.9948C11.0714 25.9156 11.9966 24.9409 11.9966 23.75V17H12ZM7.74999 21.5L7.85176 21.5068C8.21783 21.5565 8.49999 21.8703 8.49999 22.25C8.49999 22.6297 8.21783 22.9435 7.85176 22.9932L7.74999 23H6.24884L6.14706 22.9932C5.78099 22.9435 5.49884 22.6297 5.49884 22.25C5.49884 21.8703 5.78099 21.5565 6.14706 21.5068L6.24884 21.5H7.74999Z" fill="#212121"/>
</svg>
