<svg width="21" height="20" viewBox="0 0 21 20" fill="none" xmlns="http://www.w3.org/2000/svg">
<path d="M6.41602 2C5.31145 2 4.41602 2.89543 4.41602 4V7H6.91602C8.29673 7 9.41602 8.11929 9.41602 9.5V13H12.416V15H9.41602V16H14.916C15.1922 16 15.416 15.7761 15.416 15.5C15.416 15.2239 15.1922 15 14.916 15H13.416V13H16.416C17.5206 13 18.416 12.1046 18.416 11V4C18.416 2.89543 17.5206 2 16.416 2H6.41602ZM3.91602 8C3.08759 8 2.41602 8.67157 2.41602 9.5V16.5C2.41602 17.3284 3.08759 18 3.91602 18H6.91602C7.74444 18 8.41602 17.3284 8.41602 16.5V9.5C8.41602 8.67157 7.74444 8 6.91602 8H3.91602ZM4.41602 15.5C4.41602 15.2239 4.63987 15 4.91602 15H5.91602C6.19216 15 6.41602 15.2239 6.41602 15.5C6.41602 15.7761 6.19216 16 5.91602 16H4.91602C4.63987 16 4.41602 15.7761 4.41602 15.5Z" fill="#212121"/>
</svg>
