<svg width="20" height="20" viewBox="0 0 20 20" fill="none" xmlns="http://www.w3.org/2000/svg">
<path d="M8.5 2C7.84689 2 7.29127 2.4174 7.08535 3H5.5C4.67157 3 4 3.67157 4 4.5V16.5C4 17.3284 4.67157 18 5.5 18H7.08537C7.0301 17.8436 7.00003 17.6753 7.00003 17.5V15.5003C6.47368 15.4998 5.96322 15.2218 5.68919 14.7292C5.28648 14.0053 5.54689 13.0919 6.27085 12.6892C6.54109 12.5389 6.77031 12.2335 6.93099 11.9014C7.39776 10.9364 8.38676 10.9785 8.68739 11.0359C8.91424 11.0793 9.19513 11.1827 9.45058 11.4028C9.57998 11.5143 9.71001 11.6646 9.81106 11.8504C10.4035 11.3408 11.0921 11.0435 11.8238 11.0044C12.7218 10.9564 13.5267 11.3081 14.0907 11.8474C14.2099 11.9614 14.3221 12.0875 14.424 12.2242C14.891 11.7186 15.4291 11.3644 16 11.1714V4.5C16 3.67157 15.3284 3 14.5 3H12.9146C12.7087 2.4174 12.1531 2 11.5 2H8.5ZM8 3.5C8 3.22386 8.22386 3 8.5 3H11.5C11.7761 3 12 3.22386 12 3.5C12 3.77614 11.7761 4 11.5 4H8.5C8.22386 4 8 3.77614 8 3.5ZM15.8715 13.605C16.2885 13.1421 16.7053 12.9998 17.0349 13C17.3774 13.0002 17.6689 13.1527 17.8397 13.3513C18.0097 13.5487 18.0321 13.7456 17.9626 13.8988C17.8862 14.0672 17.6267 14.3445 16.889 14.5125C16.6615 14.5643 16.5 14.7666 16.5 14.9999C16.5 15.2333 16.6613 15.4356 16.8888 15.4875C17.6264 15.6557 17.886 15.9332 17.9626 16.102C18.0322 16.2557 18.0096 16.4531 17.8397 16.6507C17.6688 16.8493 17.3774 17.0018 17.0351 17.0018C16.7058 17.0018 16.289 16.8592 15.8718 16.3953C15.6871 16.19 15.371 16.1732 15.1657 16.3579C14.9603 16.5425 14.9436 16.8587 15.1282 17.064C15.711 17.712 16.388 18.0018 17.0352 18.0018C17.6695 18.0018 18.2375 17.7218 18.5978 17.3027C18.9592 16.8825 19.1397 16.2768 18.8734 15.6892C18.7519 15.4212 18.5524 15.1905 18.2834 15.0002C18.5523 14.8101 18.7518 14.5797 18.8733 14.3119C19.1398 13.7245 18.9591 13.119 18.5978 12.699C18.2374 12.2802 17.6695 12.0004 17.0354 12C16.3885 11.9996 15.7115 12.2886 15.1285 12.9356C14.9437 13.1408 14.9602 13.457 15.1653 13.6418C15.3705 13.8266 15.6866 13.8102 15.8715 13.605ZM11.9305 13.0015C11.6359 13.0172 11.2624 13.1638 10.8773 13.604C10.6955 13.8119 10.3796 13.833 10.1718 13.6512C9.96395 13.4694 9.94284 13.1535 10.1246 12.9456C10.6564 12.3377 11.2694 12.0354 11.8772 12.0029C12.4773 11.9708 13.0183 12.2056 13.3997 12.5702C13.7777 12.9316 14.0255 13.4481 13.9892 14.0002C13.9516 14.5728 13.6149 15.0931 12.9999 15.4472C11.8916 16.0855 11.3995 16.6422 11.1815 17.0009H13.5004C13.7765 17.0009 14.0004 17.2247 14.0004 17.5009C14.0004 17.777 13.7765 18.0009 13.5004 18.0009H10.501C10.2452 18.0009 10.0307 17.8078 10.0038 17.5535L10.0036 17.5524L10.0035 17.5513L10.0033 17.5489L10.0028 17.544L10.002 17.5327C10.0014 17.5246 10.0009 17.5154 10.0005 17.505C9.99981 17.4842 9.99971 17.4589 10.0009 17.4293C10.0034 17.3702 10.0111 17.2944 10.0296 17.204C10.0667 17.0224 10.1461 16.7874 10.307 16.5147C10.6286 15.9698 11.2641 15.2929 12.5009 14.5807C12.8737 14.3659 12.979 14.1223 12.9913 13.9346C13.005 13.7264 12.9107 13.4862 12.7087 13.293C12.5099 13.1031 12.2328 12.9853 11.9305 13.0015ZM9 12.597C9 12.3982 8.90054 12.2488 8.79788 12.1604C8.70118 12.0771 8.59186 12.0357 8.49971 12.0181C8.36644 11.9927 8.00032 11.9871 7.83118 12.3368C7.63132 12.75 7.287 13.2682 6.75694 13.5631C6.51562 13.6973 6.42882 14.0017 6.56305 14.2431C6.69729 14.4844 7.00174 14.5712 7.24306 14.4369C7.54018 14.2717 7.79054 14.0651 8 13.8454V17.5C8 17.7761 8.22386 18 8.5 18C8.77614 18 9 17.7761 9 17.5V12.597Z" fill="#212121"/>
</svg>
