<svg width="16" height="16" viewBox="0 0 16 16" fill="none" xmlns="http://www.w3.org/2000/svg">
<path d="M5.46438 1.31431C5.38845 1.12448 5.20459 1 5.00014 1C4.79569 1 4.61183 1.12448 4.5359 1.31431L2.5359 6.31431C2.43335 6.5707 2.55805 6.86168 2.81445 6.96424C3.07084 7.0668 3.36182 6.94209 3.46438 6.6857L3.73891 5.99938L6.2616 5.99995L6.5359 6.6857C6.63846 6.94209 6.92944 7.0668 7.18584 6.96424C7.44223 6.86168 7.56694 6.5707 7.46438 6.31431L5.46438 1.31431ZM5.86157 4.99986L4.13887 4.99947L5.00014 2.84629L5.86157 4.99986ZM4.35356 7.64645C4.1583 7.45118 3.84172 7.45118 3.64645 7.64645C3.45119 7.84171 3.45119 8.15829 3.64645 8.35355L4.64645 9.35355C4.84172 9.54882 5.1583 9.54882 5.35356 9.35355L6.35356 8.35355C6.54882 8.15829 6.54882 7.84171 6.35356 7.64645C6.1583 7.45118 5.84172 7.45118 5.64645 7.64645L5.00001 8.29289L4.35356 7.64645ZM3.00001 10C2.72387 10 2.50001 10.2239 2.50001 10.5C2.50001 10.7761 2.72387 11 3.00001 11H5.39812L2.62372 14.1707C2.49453 14.3184 2.46362 14.528 2.54469 14.7066C2.62576 14.8853 2.80382 15 3.00001 15H6.50001C6.77615 15 7.00001 14.7761 7.00001 14.5C7.00001 14.2239 6.77615 14 6.50001 14H4.10189L6.8763 10.8293C7.00549 10.6816 7.03639 10.472 6.95532 10.2934C6.87426 10.1147 6.6962 10 6.50001 10H3.00001ZM12.5 1C12.7762 1 13 1.22386 13 1.5V13.2929L14.1465 12.1464C14.3417 11.9512 14.6583 11.9512 14.8536 12.1464C15.0488 12.3417 15.0488 12.6583 14.8536 12.8536L12.8536 14.8536C12.6583 15.0488 12.3417 15.0488 12.1465 14.8536L10.1465 12.8536C9.95119 12.6583 9.95119 12.3417 10.1465 12.1464C10.3417 11.9512 10.6583 11.9512 10.8536 12.1464L12 13.2929V1.5C12 1.22386 12.2239 1 12.5 1Z" fill="#212121"/>
</svg>
