<svg width="20" height="20" viewBox="0 0 20 20" fill="none" xmlns="http://www.w3.org/2000/svg">
<path d="M2.18412 2.11244C2.33657 1.98818 2.54771 1.96483 2.72363 2.05279L17.7246 9.5528C17.9715 9.67629 18.0717 9.97663 17.9482 10.2236C17.8247 10.4706 17.5243 10.5707 17.2773 10.4472L3.26911 3.44357L4.88416 9.5H11.5C11.7762 9.5 12 9.72386 12 10C12 10.2761 11.7762 10.5 11.5 10.5H4.88416L3.26911 16.5564L12.7407 11.8207C12.5858 12.1827 12.5 12.5813 12.5 13C12.5 13.0196 12.5002 13.0392 12.5006 13.0588L2.72363 17.9472C2.54771 18.0352 2.33657 18.0118 2.18412 17.8876C2.03167 17.7633 1.96623 17.5612 2.0169 17.3712L3.98255 10L2.0169 2.62884C1.96623 2.4388 2.03167 2.2367 2.18412 2.11244ZM15.5 15C16.6046 15 17.5 14.1046 17.5 13C17.5 11.8954 16.6046 11 15.5 11C14.3954 11 13.5 11.8954 13.5 13C13.5 14.1046 14.3954 15 15.5 15ZM15.5 20C18 20 19 18.7452 19 17.5C19 16.6716 18.3284 16 17.5 16H13.5C12.6716 16 12 16.6716 12 17.5C12 18.7499 13 20 15.5 20Z" fill="#212121"/>
</svg>
