<svg width="28" height="28" viewBox="0 0 28 28" fill="none" xmlns="http://www.w3.org/2000/svg">
<path d="M2.00391 7.75C2.00391 5.67893 3.68284 4 5.75391 4H22.2505C24.3216 4 26.0005 5.67893 26.0005 7.75V11.5061C25.9665 11.4893 25.9324 11.4729 25.8984 11.4572L25.4533 11.2512C23.992 10.5748 22.2863 11.3147 21.762 12.8298L21.3488 14.0239C21.0634 14.8489 21.2658 15.7674 21.8718 16.3958L22.8185 17.3774C22.6898 18.3085 22.2764 19.0398 21.5594 19.6162L20.2698 19.2773C19.4184 19.0535 18.5186 19.3408 17.9526 20.0133L17.1435 20.9747C16.4067 21.8502 16.3171 23.0474 16.8006 24.0001H5.75391C3.68284 24.0001 2.00391 22.3211 2.00391 20.2501V7.75ZM7.7277 9C7.32567 9 6.99976 9.32591 6.99976 9.72794V9.77206C6.99976 10.1741 7.32567 10.5 7.7277 10.5H13.2718C13.6738 10.5 13.9998 10.1741 13.9998 9.77206V9.72794C13.9998 9.32591 13.6738 9 13.2718 9H7.7277ZM6.99976 13.7279V13.7721C6.99976 14.1741 7.32567 14.5 7.7277 14.5H18.2718C18.6738 14.5 18.9998 14.1741 18.9998 13.7721V13.7279C18.9998 13.3259 18.6738 13 18.2718 13H7.7277C7.32567 13 6.99976 13.3259 6.99976 13.7279ZM7.7277 17C7.32567 17 6.99976 17.3259 6.99976 17.7279V17.7721C6.99976 18.1741 7.32567 18.5 7.7277 18.5H15.2718C15.6738 18.5 15.9998 18.1741 15.9998 17.7721V17.7279C15.9998 17.3259 15.6738 17 15.2718 17H7.7277ZM22.2937 14.3509L22.7069 13.1568C23.0398 12.195 24.1149 11.7336 25.0331 12.1586L25.4782 12.3646C26.2035 12.7003 26.8109 13.3019 26.9293 14.1004C27.509 18.0133 24.4406 23.4244 20.8223 24.8697C20.0839 25.1646 19.2685 24.9298 18.6203 24.4581L18.2225 24.1687C17.4019 23.5716 17.2567 22.393 17.9085 21.6185L18.7176 20.6572C19.0357 20.2793 19.5391 20.1192 20.0155 20.2444L21.7616 20.7034C23.081 19.8382 23.7788 18.6077 23.855 17.0118L22.5915 15.7016C22.2468 15.3442 22.1313 14.8203 22.2937 14.3509Z" fill="#212121"/>
</svg>
