<svg width="24" height="24" viewBox="0 0 24 24" fill="none" xmlns="http://www.w3.org/2000/svg">
<path d="M5.25 3.5C4.2835 3.5 3.5 4.2835 3.5 5.25V8.25C3.5 8.66421 3.16421 9 2.75 9C2.33579 9 2 8.66421 2 8.25V5.25C2 3.45507 3.45507 2 5.25 2H8.25C8.66421 2 9 2.33579 9 2.75C9 3.16421 8.66421 3.5 8.25 3.5H5.25ZM5.25 20.5C4.2835 20.5 3.5 19.7165 3.5 18.75V15.75C3.5 15.3358 3.16421 15 2.75 15C2.33579 15 2 15.3358 2 15.75V18.75C2 20.5449 3.45507 22 5.25 22H8.25C8.66421 22 9 21.6642 9 21.25C9 21.1623 8.98496 21.0782 8.95732 21C8.85436 20.7087 8.57655 20.5 8.25 20.5H5.25ZM20.5 5.25C20.5 4.2835 19.7165 3.5 18.75 3.5H15.75C15.3358 3.5 15 3.16421 15 2.75C15 2.33579 15.3358 2 15.75 2H18.75C20.5449 2 22 3.45507 22 5.25V8.25C22 8.66421 21.6642 9 21.25 9C20.8358 9 20.5 8.66421 20.5 8.25V5.25ZM18.75 20.5C19.7165 20.5 20.5 19.7165 20.5 18.75V15.75C20.5 15.3358 20.8358 15 21.25 15C21.6642 15 22 15.3358 22 15.75V18.75C22 20.5449 20.5449 22 18.75 22H15.75C15.3358 22 15 21.6642 15 21.25C15 21.1623 15.015 21.0782 15.0427 21C15.1456 20.7087 15.4235 20.5 15.75 20.5H18.75ZM8.25 19.5C9.13162 19.5 9.86097 20.1519 9.98228 21H14.0177C14.139 20.1519 14.8684 19.5 15.75 19.5H18.75C18.7902 19.5 18.8297 19.4968 18.8682 19.4907C18.9532 19.2173 19 18.9256 19 18.6155V18.25C19 17.0074 17.9926 16 16.75 16H7.25C6.00736 16 5 17.0074 5 18.25V18.6155C5 18.9257 5.04281 19.2167 5.12116 19.489C5.16302 19.4962 5.20607 19.5 5.25 19.5H8.25ZM12 14C14.3472 14 16.25 12.0972 16.25 9.75C16.25 7.40279 14.3472 5.5 12 5.5C9.65279 5.5 7.75 7.40279 7.75 9.75C7.75 12.0972 9.65279 14 12 14Z" fill="#212121"/>
</svg>
