<svg width="28" height="28" viewBox="0 0 28 28" fill="none" xmlns="http://www.w3.org/2000/svg">
<path d="M3.28033 2.21967C2.98744 1.92678 2.51257 1.92677 2.21967 2.21967C1.92678 2.51256 1.92677 2.98743 2.21967 3.28033L5.01191 6.07262C3.2943 6.41545 2 7.93158 2 9.75V18.25C2 20.3211 3.67893 22 5.75 22H15.25C16.788 22 18.1098 21.0741 18.6883 19.7492L24.7194 25.7805C25.0123 26.0734 25.4872 26.0734 25.7801 25.7805C26.073 25.4876 26.073 25.0127 25.7801 24.7198L3.28033 2.21967ZM17.4812 18.5421C17.338 19.6468 16.3936 20.5 15.25 20.5H5.75C4.50736 20.5 3.5 19.4926 3.5 18.25V9.75C3.5 8.50736 4.50736 7.5 5.75 7.5H6.43927L17.4812 18.5421ZM9.18303 6L10.683 7.5H15.25C16.4926 7.5 17.5 8.50736 17.5 9.75V14.3171L19 15.8171V12.0714L24.1039 8.54729C24.2697 8.43279 24.4959 8.55149 24.4959 8.75302V19.2428C24.4959 19.4443 24.2697 19.563 24.1039 19.4485L19.3466 16.1638L24.1774 20.9947C25.1098 21.0289 25.9959 20.298 25.9959 19.2428V8.75302C25.9959 7.34235 24.4124 6.51142 23.2516 7.31295L19 10.2486V9.75C19 7.67893 17.3211 6 15.25 6H9.18303Z" fill="#212121"/>
</svg>
