<svg width="32" height="32" viewBox="0 0 32 32" fill="none" xmlns="http://www.w3.org/2000/svg">
<path d="M26.1133 4.11612C26.6015 3.62796 27.3929 3.62796 27.8811 4.11612C28.3693 4.60427 28.3693 5.39573 27.8811 5.88388L17.7664 15.9985L27.8812 26.1133C28.3694 26.6015 28.3694 27.3929 27.8812 27.8811C27.3931 28.3693 26.6016 28.3693 26.1135 27.8811L15.9987 17.7663L5.88388 27.8811C5.39573 28.3693 4.60427 28.3693 4.11612 27.8811C3.62796 27.3929 3.62796 26.6015 4.11612 26.1133L14.2309 15.9985L4.11626 5.88388C3.6281 5.39573 3.6281 4.60427 4.11626 4.11612C4.60441 3.62796 5.39587 3.62796 5.88403 4.11612L15.9987 14.2308L26.1133 4.11612Z" fill="#212121"/>
</svg>
