<svg width="16" height="16" viewBox="0 0 16 16" fill="none" xmlns="http://www.w3.org/2000/svg">
<path d="M9.64655 9.14661L10.293 8.50016L8.50195 8.50016C8.22581 8.50016 8.00195 8.2763 8.00195 8.00016C8.00195 7.72402 8.22581 7.50016 8.50195 7.50016H10.293L9.64655 6.85371C9.45129 6.65845 9.45129 6.34187 9.64655 6.14661C9.84182 5.95134 10.1584 5.95134 10.3537 6.14661L11.8537 7.64661C12.0489 7.84187 12.0489 8.15845 11.8537 8.35371L10.3537 9.85371C10.1584 10.049 9.84182 10.049 9.64655 9.85371C9.45129 9.65845 9.45129 9.34187 9.64655 9.14661Z" fill="#212121"/>
<path d="M2 4.99902C2 3.89445 2.89543 2.99902 4 2.99902H12C13.1046 2.99902 14 3.89446 14 4.99903L14 11.0014C14 12.106 13.1046 13.0014 12 13.0014L4 13.0014C2.89543 13.0014 2 12.106 2 11.0014V4.99902ZM4 3.99902C3.44772 3.99902 3 4.44674 3 4.99902L3 11.0014C3 11.5537 3.44772 12.0014 4 12.0014L6.00153 12.0014L6.00153 3.99902L4 3.99902ZM7.00153 3.99902L7.00153 12.0014L12 12.0014C12.5523 12.0014 13 11.5537 13 11.0014L13 4.99903C13 4.44674 12.5523 3.99903 12 3.99903L7.00153 3.99902Z" fill="#212121"/>
</svg>
