<svg width="32" height="32" viewBox="0 0 32 32" fill="none" xmlns="http://www.w3.org/2000/svg">
<path d="M13.9998 4C13.9998 3.44772 13.5521 3 12.9998 3H3.99951C3.44723 3 2.99951 3.44772 2.99951 4V13C2.99951 13.5523 3.44723 14 3.99951 14C4.5518 14 4.99951 13.5523 4.99951 13V6.41391L12.2927 13.7071C12.6832 14.0976 13.3164 14.0976 13.7069 13.7071C14.0974 13.3166 14.0974 12.6834 13.7069 12.2929L6.41403 5H12.9998C13.5521 5 13.9998 4.55228 13.9998 4ZM24.4998 5C25.8805 5 26.9998 6.11929 26.9998 7.5V16H19.769C17.6874 16 15.9998 17.6875 15.9998 19.7692V27H7.49981C6.1191 27 4.99981 25.8807 4.99981 24.5V19C4.99981 18.4477 4.5521 18 3.99981 18C3.44753 18 2.99981 18.4477 2.99981 19V24.5C2.99981 26.9853 5.01453 29 7.49981 29H24.4998C26.9851 29 28.9998 26.9853 28.9998 24.5V7.5C28.9998 5.01472 26.9851 3 24.4998 3H18.9998C18.4475 3 17.9998 3.44772 17.9998 4C17.9998 4.55228 18.4475 5 18.9998 5H24.4998Z" fill="#212121"/>
</svg>
