<svg width="24" height="24" viewBox="0 0 24 24" fill="none" xmlns="http://www.w3.org/2000/svg">
<path d="M10.4954 14.501L10.4946 21.999H7.49962L7.50038 14.501H10.4954ZM17.2551 13.001H13.7537C13.3395 13.001 13.0037 13.3368 13.0037 13.751V17.253C13.0037 17.6672 13.3395 18.003 13.7537 18.003H17.2551C17.6693 18.003 18.0051 17.6672 18.0051 17.253V13.751C18.0051 13.3368 17.6693 13.001 17.2551 13.001ZM16.5044 14.501V16.503H14.5034V14.501H16.5044ZM8.16638 7.002H3.50138L3.50148 8.16674C3.50148 9.34763 4.37901 10.3236 5.51754 10.478L5.67435 10.4939L5.83406 10.4993C7.06862 10.4993 8.07918 9.54019 8.16125 8.32644L8.16663 8.16674L8.16638 7.002ZM14.3314 7.002H9.66638L9.66663 8.16674C9.66663 9.34763 10.5442 10.3236 11.6827 10.478L11.8395 10.4939L11.9992 10.4993C13.2338 10.4993 14.2443 9.54019 14.3264 8.32644L14.3318 8.16674L14.3314 7.002ZM20.4984 7.002H15.8334L15.8341 8.16674C15.8341 9.34763 16.7117 10.3236 17.8502 10.478L18.007 10.4939L18.1667 10.4993C19.4013 10.4993 20.4118 9.54019 20.4939 8.32644L20.4993 8.16674L20.4984 7.002ZM9.061 3.5H6.32638L4.46938 5.502H8.446L9.061 3.5ZM13.369 3.5H10.631L10.015 5.502H13.985L13.369 3.5ZM17.6734 3.5H14.939L15.554 5.502H19.5304L17.6734 3.5ZM2.20166 5.74193L5.45055 2.23991C5.56882 2.11243 5.72689 2.03081 5.89705 2.00715L6.00038 2H18.0004C18.1743 2 18.3416 2.06037 18.4747 2.16902L18.5502 2.23991L21.8225 5.76824L21.8531 5.80714C21.9549 5.94281 22.0008 6.09665 22.0008 6.24775L21.9993 8.16674C21.9993 9.16092 21.6207 10.0667 20.9999 10.7478L20.9991 21.25C20.9991 21.6297 20.717 21.9435 20.3509 21.9932L20.2491 22L11.9956 21.999L11.9963 13.751C11.9963 13.3368 11.6605 13.001 11.2463 13.001H6.75038C6.33617 13.001 6.00038 13.3368 6.00038 13.751L5.99962 21.999L3.75162 22C3.37193 22 3.05813 21.7178 3.00847 21.3518L3.00162 21.25L3.00084 10.7478C2.42133 10.112 2.05293 9.28045 2.00647 8.36396L2.00148 8.16674L2.00129 6.29097C1.99322 6.15366 2.02287 6.01238 2.09722 5.88313L2.147 5.807L2.20166 5.74193Z" fill="#212121"/>
</svg>
