<svg width="16" height="16" viewBox="0 0 16 16" fill="none" xmlns="http://www.w3.org/2000/svg">
<path d="M8.50488 10.2025C8.77825 9.92913 9.22175 9.92913 9.49512 10.2025L13.8789 14.5862C13.4837 14.8479 13.0095 15.0003 12.5 15.0003H5.5C4.99056 15.0003 4.51626 14.8479 4.12109 14.5862L8.50488 10.2025ZM12.5 3.00041C13.8807 3.00041 15 4.11969 15 5.50039V12.5003C14.9999 13.0097 14.8476 13.4841 14.5859 13.8792L10.2021 9.49547C9.53826 8.83159 8.46174 8.83159 7.79785 9.49547L3.41406 13.8792C3.15236 13.4841 3.00009 13.0097 3 12.5003V10.0003H5.5C6.47486 10.0003 7.31626 9.44035 7.72852 8.62634C8.72552 8.51917 9.60171 7.81698 9.87695 6.79042L10.8926 3.00041H12.5ZM5.5 2.00042C6.32843 2.00042 7 2.67199 7 3.50041V7.50037C6.99977 8.3286 6.32828 9.00036 5.5 9.00036H2.5C1.67172 9.00036 1.00023 8.3286 1 7.50037V3.50041C1 2.67199 1.67157 2.00042 2.5 2.00042H5.5ZM4.18652 1.00043C4.44579 0.27082 5.22546 -0.148746 5.98633 0.0551252L8.88379 0.831486C9.68392 1.04594 10.1587 1.86823 9.94434 2.66838L8.90918 6.53261C8.77962 7.01492 8.42845 7.37744 7.99512 7.54334C7.99535 7.52925 7.99799 7.51452 7.99805 7.50037V3.50041C7.99792 2.11982 6.87868 1.00043 5.49805 1.00043H4.18652ZM11.498 5.50039C10.9447 5.50039 10.4962 5.94896 10.4961 6.50233C10.4963 7.05556 10.9448 7.50428 11.498 7.50428C12.0513 7.50421 12.4998 7.05552 12.5 6.50233C12.4999 5.94901 12.0514 5.50046 11.498 5.50039Z" fill="#212121"/>
</svg>
