<svg width="28" height="28" viewBox="0 0 28 28" fill="none" xmlns="http://www.w3.org/2000/svg">
<path d="M22.5 3.75C22.5 3.33579 22.1642 3 21.75 3C21.3358 3 21 3.33579 21 3.75V5L19.75 5C19.3358 5 19 5.33579 19 5.75C19 6.16421 19.3358 6.5 19.75 6.5H21V7.75C21 8.16421 21.3358 8.5 21.75 8.5C22.1642 8.5 22.5 8.16421 22.5 7.75V6.5H23.75C24.1642 6.5 24.5 6.16421 24.5 5.75C24.5 5.33579 24.1642 5 23.75 5L22.5 5V3.75Z" fill="#212121"/>
<path d="M7.75001 5.5C8.16423 5.5 8.50001 5.83579 8.50001 6.25V7.5H9.75001C10.1642 7.5 10.5 7.83579 10.5 8.25C10.5 8.66421 10.1642 9 9.75001 9H8.50001V10.25C8.50001 10.6642 8.16423 11 7.75001 11C7.3358 11 7.00001 10.6642 7.00001 10.25V9H5.75001C5.3358 9 5.00001 8.66421 5.00001 8.25C5.00001 7.83579 5.3358 7.5 5.75001 7.5H7.00001V6.25C7.00001 5.83579 7.3358 5.5 7.75001 5.5Z" fill="#212121"/>
<path d="M19.75 17C20.1642 17 20.5 17.3358 20.5 17.75V19H21.75C22.1642 19 22.5 19.3358 22.5 19.75C22.5 20.1642 22.1642 20.5 21.75 20.5H20.5V21.75C20.5 22.1642 20.1642 22.5 19.75 22.5C19.3358 22.5 19 22.1642 19 21.75V20.5H17.75C17.3358 20.5 17 20.1642 17 19.75C17 19.3358 17.3358 19 17.75 19H19V17.75C19 17.3358 19.3358 17 19.75 17Z" fill="#212121"/>
<path d="M19.634 9.47777C18.7057 7.81278 16.4435 7.49589 15.0933 8.8417L14.2464 9.68588L18.3128 13.7522L19.1539 12.9129C20.0644 12.0042 20.2605 10.6013 19.634 9.47777Z" fill="#212121"/>
<path d="M17.251 14.8118L13.1841 10.7448L2.80728 21.0883C1.68345 22.2086 1.67742 24.0268 2.79381 25.1544C3.91606 26.288 5.74594 26.2936 6.87502 25.1668L17.251 14.8118Z" fill="#212121"/>
</svg>
