<svg width="20" height="20" viewBox="0 0 20 20" fill="none" xmlns="http://www.w3.org/2000/svg">
<path d="M17.9636 2.30829C17.9384 2.24755 17.9015 2.19237 17.8549 2.14593C17.8082 2.09917 17.7526 2.06216 17.6914 2.03703C17.6303 2.0119 17.5647 1.99915 17.4986 1.99952C17.4325 1.99989 17.3671 2.01338 17.3062 2.03919C17.2453 2.06501 17.1902 2.10265 17.1439 2.14993L14.4439 4.84993C13.6674 4.24592 12.697 3.94633 11.7151 4.00747C10.7333 4.0686 9.80753 4.48626 9.11193 5.18193L8.50093 5.79293C8.40342 5.89043 8.32607 6.00619 8.2733 6.13358C8.22052 6.26098 8.19336 6.39753 8.19336 6.53543C8.19336 6.67332 8.22052 6.80987 8.2733 6.93727C8.32607 7.06467 8.40342 7.18042 8.50093 7.27793L11.2747 10.0445C11.5511 9.84402 11.8469 9.66867 12.1588 9.52176L9.51894 6.88193C9.42728 6.7899 9.37581 6.66531 9.37581 6.53543C9.37581 6.40554 9.42728 6.28095 9.51894 6.18893L9.81894 5.88893C10.3867 5.31979 11.1573 4.99945 11.9612 4.99832C12.7651 4.9972 13.5366 5.31539 14.1059 5.88293L14.1119 5.89393L14.1179 5.89993C14.6828 6.46974 14.9992 7.24 14.9979 8.04237C14.9974 8.37465 14.9424 8.70124 14.8378 9.01021C15.183 9.03112 15.5195 9.08387 15.8446 9.16555C15.9283 8.87997 15.9806 8.58405 15.9994 8.28284C16.0606 7.30061 15.7602 6.32994 15.1549 5.55393L17.8549 2.85393C17.9015 2.80748 17.9384 2.75231 17.9636 2.69156C17.9889 2.63082 18.0018 2.56569 18.0018 2.49993C18.0018 2.43416 17.9889 2.36904 17.9636 2.30829ZM7.27889 8.49996L10.0483 11.2694C9.84728 11.5459 9.67138 11.8419 9.52398 12.154L6.88789 9.51796C6.79604 9.42636 6.67161 9.37492 6.54189 9.37492C6.41217 9.37492 6.28775 9.42636 6.19589 9.51796L5.89589 9.81796C5.32774 10.3863 5.00806 11.1566 5.00694 11.9602C5.00582 12.7638 5.32333 13.5351 5.88989 14.105L5.89589 14.111L5.90089 14.117C6.18262 14.3983 6.51706 14.6214 6.88507 14.7734C7.25309 14.9254 7.64747 15.0034 8.04564 15.0028C8.37424 15.0023 8.7001 14.9484 9.01056 14.8436C9.03159 15.1848 9.08375 15.5177 9.16421 15.8393C8.88021 15.922 8.58606 15.9738 8.28669 15.9924C7.30481 16.0536 6.33442 15.754 5.55789 15.15L2.85789 17.85C2.81166 17.8972 2.75651 17.9349 2.69563 17.9607C2.63475 17.9865 2.56935 18 2.50323 18.0004C2.4371 18.0007 2.37156 17.988 2.31039 17.9629C2.24923 17.9377 2.19366 17.9007 2.14689 17.854C2.10033 17.8075 2.06339 17.7523 2.03818 17.6916C2.01297 17.6308 2 17.5657 2 17.5C2 17.4342 2.01297 17.3691 2.03818 17.3083C2.06339 17.2476 2.10033 17.1924 2.14689 17.146L4.84689 14.446C4.24164 13.6699 3.94127 12.6993 4.00243 11.717C4.06359 10.7348 4.48205 9.8089 5.17889 9.11396L5.47889 8.81396L5.79389 8.49996C5.8914 8.40245 6.00715 8.32509 6.13455 8.27232C6.26195 8.21955 6.3985 8.19238 6.53639 8.19238C6.67429 8.19238 6.81084 8.21955 6.93824 8.27232C7.06563 8.32509 7.18139 8.40245 7.27889 8.49996ZM17.0001 18.2416C16.26 18.7361 15.39 19 14.5 19C13.3065 19 12.1619 18.5259 11.318 17.682C10.4741 16.8381 10 15.6935 10 14.5C10 13.61 10.2639 12.74 10.7584 11.9999C11.2529 11.2599 11.9557 10.6831 12.7779 10.3425C13.6002 10.0019 14.505 9.91284 15.3779 10.0865C16.2508 10.2601 17.0526 10.6887 17.682 11.318C18.3113 11.9474 18.7399 12.7492 18.9135 13.6221C19.0872 14.495 18.9981 15.3998 18.6575 16.2221C18.3169 17.0443 17.7401 17.7471 17.0001 18.2416ZM14.8536 12.1464C14.7598 12.0527 14.6326 12 14.5 12C14.3674 12 14.2402 12.0527 14.1464 12.1464C14.0527 12.2402 14 12.3674 14 12.5V14H12.5C12.3674 14 12.2402 14.0527 12.1464 14.1464C12.0527 14.2402 12 14.3674 12 14.5C12 14.6326 12.0527 14.7598 12.1464 14.8536C12.2402 14.9473 12.3674 15 12.5 15H14V16.5C14 16.6326 14.0527 16.7598 14.1464 16.8536C14.2402 16.9473 14.3674 17 14.5 17C14.6326 17 14.7598 16.9473 14.8536 16.8536C14.9473 16.7598 15 16.6326 15 16.5V15H16.5C16.6326 15 16.7598 14.9473 16.8536 14.8536C16.9473 14.7598 17 14.6326 17 14.5C17 14.3674 16.9473 14.2402 16.8536 14.1464C16.7598 14.0527 16.6326 14 16.5 14H15V12.5C15 12.3674 14.9473 12.2402 14.8536 12.1464Z" fill="#212121"/>
</svg>
