<svg width="16" height="16" viewBox="0 0 16 16" fill="none" xmlns="http://www.w3.org/2000/svg">
<path d="M12 3H9C9 1.89543 8.10457 1 7 1C5.89543 1 5 1.89543 5 3H2C1.72386 3 1.5 3.22386 1.5 3.5C1.5 3.77614 1.72386 4 2 4H2.55247L3.30537 10.7761C3.43883 11.9773 4.40895 12.901 5.5959 12.9925C5.4152 12.6377 5.27187 12.2607 5.17111 11.8666C4.70245 11.654 4.35938 11.2067 4.29925 10.6656L3.55863 4H10.4414L10.33 5.00258C10.3864 5.00086 10.4431 5 10.5 5C10.782 5 11.059 5.02122 11.3295 5.06214L11.4475 4H12C12.2761 4 12.5 3.77614 12.5 3.5C12.5 3.22386 12.2761 3 12 3ZM6 3C6 2.44772 6.44772 2 7 2C7.55229 2 8 2.44772 8 3H6ZM15 10.5C15 8.01472 12.9853 6 10.5 6C8.01472 6 6 8.01472 6 10.5C6 12.9853 8.01472 15 10.5 15C12.9853 15 15 12.9853 15 10.5ZM9.60355 7.89645C9.79882 8.09171 9.79882 8.40829 9.60355 8.60355L8.70711 9.5H10.25C11.7688 9.5 13 10.7312 13 12.25V12.5C13 12.7761 12.7761 13 12.5 13C12.2239 13 12 12.7761 12 12.5V12.25C12 11.2835 11.2165 10.5 10.25 10.5H8.70711L9.60355 11.3964C9.79882 11.5917 9.79882 11.9083 9.60355 12.1036C9.40829 12.2988 9.09171 12.2988 8.89645 12.1036L7.14433 10.3514C7.09744 10.304 7.06198 10.2495 7.03794 10.1914C7.01349 10.1324 7 10.0678 7 10C7 9.93221 7.01349 9.86756 7.03794 9.80861C7.06234 9.74964 7.09851 9.69438 7.14645 9.64645L8.89645 7.89645C9.09171 7.70118 9.40829 7.70118 9.60355 7.89645Z" fill="#212121"/>
</svg>
