<svg width="16" height="16" viewBox="0 0 16 16" fill="none" xmlns="http://www.w3.org/2000/svg">
<path d="M4 2C2.89543 2 2 2.89543 2 4V7C2 7.27614 1.77614 7.5 1.5 7.5C1.22386 7.5 1 7.72386 1 8C1 8.27614 1.22386 8.5 1.5 8.5C1.77614 8.5 2 8.72386 2 9V12C2 13.1046 2.89543 14 4 14C4.27614 14 4.5 13.7761 4.5 13.5C4.5 13.2239 4.27614 13 4 13C3.44772 13 3 12.5523 3 12V9C3 8.61582 2.85557 8.26538 2.61805 8C2.85557 7.73462 3 7.38418 3 7V4C3 3.44772 3.44772 3 4 3C4.27614 3 4.5 2.77614 4.5 2.5C4.5 2.22386 4.27614 2 4 2ZM12 2C13.1046 2 14 2.89543 14 4V7C14 7.27614 14.2239 7.5 14.5 7.5C14.7761 7.5 15 7.72386 15 8C15 8.27614 14.7761 8.5 14.5 8.5C14.2239 8.5 14 8.72386 14 9V12C14 13.1046 13.1046 14 12 14C11.7239 14 11.5 13.7761 11.5 13.5C11.5 13.2239 11.7239 13 12 13C12.5523 13 13 12.5523 13 12V9C13 8.61582 13.1444 8.26538 13.3819 8C13.1444 7.73462 13 7.38418 13 7V4C13 3.44772 12.5523 3 12 3C11.7239 3 11.5 2.77614 11.5 2.5C11.5 2.22386 11.7239 2 12 2ZM8 12C10.2091 12 12 10.2091 12 8C12 5.79086 10.2091 4 8 4C5.79086 4 4 5.79086 4 8C4 10.2091 5.79086 12 8 12ZM6.14645 6.85355C5.95118 6.65829 5.95118 6.34171 6.14645 6.14645C6.34171 5.95118 6.65829 5.95118 6.85355 6.14645L8 7.29289L9.14645 6.14645C9.34171 5.95118 9.65829 5.95118 9.85355 6.14645C10.0488 6.34171 10.0488 6.65829 9.85355 6.85355L8.70711 8L9.85355 9.14645C10.0488 9.34171 10.0488 9.65829 9.85355 9.85355C9.65829 10.0488 9.34171 10.0488 9.14645 9.85355L8 8.70711L6.85355 9.85355C6.65829 10.0488 6.34171 10.0488 6.14645 9.85355C5.95118 9.65829 5.95118 9.34171 6.14645 9.14645L7.29289 8L6.14645 6.85355Z" fill="#212121"/>
</svg>
