<svg width="20" height="20" viewBox="0 0 20 20" fill="none" xmlns="http://www.w3.org/2000/svg">
<path d="M7.08535 3C7.29127 2.4174 7.84689 2 8.5 2H11.5C12.1531 2 12.7087 2.4174 12.9146 3H14.5C15.3284 3 16 3.67157 16 4.5V9.00308C15.6621 9.01657 15.3256 9.07433 15 9.17634V4.5C15 4.22386 14.7761 4 14.5 4H12.9146C12.7087 4.5826 12.1531 5 11.5 5H8.5C7.84689 5 7.29127 4.5826 7.08535 4H5.5C5.22386 4 5 4.22386 5 4.5V16.5C5 16.7761 5.22386 17 5.5 17H10.5546L11.5546 18H5.5C4.67157 18 4 17.3284 4 16.5V4.5C4 3.67157 4.67157 3 5.5 3H7.08535ZM8.5 3C8.22386 3 8 3.22386 8 3.5C8 3.77614 8.22386 4 8.5 4H11.5C11.7761 4 12 3.77614 12 3.5C12 3.22386 11.7761 3 11.5 3H8.5ZM13.159 11.542C12.4364 10.8193 11.2647 10.8193 10.542 11.542C9.81933 12.2647 9.81933 13.4364 10.542 14.159L14.0025 17.6195L17.4631 14.159C18.1857 13.4364 18.1857 12.2647 17.4631 11.542C16.7404 10.8193 15.5687 10.8193 14.846 11.542L14.3561 12.032C14.1608 12.2272 13.8442 12.2272 13.649 12.032L13.159 11.542ZM9.8349 10.8349C10.9481 9.7217 12.7529 9.7217 13.8661 10.8349L14.0025 10.9713L14.1389 10.8349C15.2521 9.7217 17.057 9.7217 18.1702 10.8349C19.2834 11.9481 19.2834 13.7529 18.1702 14.8661L14.3561 18.6802C14.1608 18.8755 13.8442 18.8755 13.649 18.6802L9.8349 14.8661C8.7217 13.7529 8.7217 11.9481 9.8349 10.8349Z" fill="#212121"/>
</svg>
