<svg width="48" height="48" viewBox="0 0 48 48" fill="none" xmlns="http://www.w3.org/2000/svg">
<path d="M6 12.25C6 8.79822 8.79822 6 12.25 6H35.75C39.2018 6 42 8.79822 42 12.25V24.101C41.3008 23.3875 40.4501 22.823 39.5 22.4596V16.5H8.5V35.75C8.5 37.8211 10.1789 39.5 12.25 39.5H26V42H12.25C8.79822 42 6 39.2018 6 35.75V12.25ZM12.25 8.5C10.1789 8.5 8.5 10.1789 8.5 12.25V14H39.5V12.25C39.5 10.1789 37.8211 8.5 35.75 8.5H12.25ZM32 30H31C29.3431 30 28 31.3431 28 33V43C28 44.6569 29.3431 46 31 46H43C44.6569 46 46 44.6569 46 43V33C46 31.3431 44.6569 30 43 30H42V29C42 26.2386 39.7614 24 37 24C34.2386 24 32 26.2386 32 29V30ZM34.5 29C34.5 27.6193 35.6193 26.5 37 26.5C38.3807 26.5 39.5 27.6193 39.5 29V30H34.5V29ZM40 38C40 39.6569 38.6569 41 37 41C35.3431 41 34 39.6569 34 38C34 36.3431 35.3431 35 37 35C38.6569 35 40 36.3431 40 38Z" fill="#212121"/>
</svg>
