<svg width="20" height="20" viewBox="0 0 20 20" fill="none" xmlns="http://www.w3.org/2000/svg">
<path d="M6 5.5V3H5C3.89543 3 3 3.89543 3 5V13C3 14.1046 3.89549 14.9999 5 14.9999V10.4983C5 9.66872 5.6727 9 6.5 9H11.5C12.3284 9 13 9.67157 13 10.5V15C14.1046 15 15 14.1046 15 13V6.62132C15 6.09089 14.7893 5.58218 14.4142 5.20711L12.7929 3.58579C12.4178 3.21071 11.9091 3 11.3787 3H11V5.5C11 6.32843 10.3284 7 9.5 7H7.5C6.67157 7 6 6.32843 6 5.5ZM7 5.5V3H10V5.5C10 5.77614 9.77614 6 9.5 6H7.5C7.22386 6 7 5.77614 7 5.5ZM12 15H6V10.4983C6 10.2233 6.22273 10 6.5 10H11.5C11.7761 10 12 10.2239 12 10.5V15ZM8.49978 17.0003C7.54613 17.0003 6.68156 16.6189 6.05029 16.0003H13.4998C14.8805 16.0003 15.9998 14.881 15.9998 13.5003V6.05078C16.6184 6.68205 16.9998 7.54662 16.9998 8.50027V13.5003C16.9998 15.4333 15.4328 17.0003 13.4998 17.0003H8.49978Z" fill="#212121"/>
</svg>
