<svg width="20" height="20" viewBox="0 0 20 20" fill="none" xmlns="http://www.w3.org/2000/svg">
<path d="M12.7291 13.4362C11.6657 14.3481 10.3042 14.9224 8.81084 14.9927C8.89564 14.6771 8.95497 14.3396 8.98254 13.9791C10.1328 13.8791 11.1816 13.4251 12.0196 12.7266C12.276 12.5128 12.5127 12.2761 12.7265 12.0197C13.5216 11.0659 14 9.83881 14 8.5C14 5.46243 11.5376 3 8.5 3C5.46243 3 3 5.46243 3 8.5C3 8.61316 3.00342 8.72552 3.01015 8.83698C2.74103 9.07071 2.42155 9.30202 2.07227 9.47254C2.02467 9.15528 2 8.83052 2 8.5C2 4.91015 4.91015 2 8.5 2C12.0899 2 15 4.91015 15 8.5C15 10.115 14.411 11.5924 13.4361 12.7292L16.8535 16.1465C17.0487 16.3417 17.0487 16.6583 16.8535 16.8536C16.6799 17.0271 16.4105 17.0464 16.2156 16.9114L16.1464 16.8536L12.7291 13.4362ZM4.88077 9.15916C5.38846 9.69172 6.36396 10.5386 7.56366 10.7123C7.80292 10.747 8 10.9456 8 11.1942V13.5166C8 16.6388 5.21599 17.7719 4.6141 17.9804C4.53874 18.0065 4.46177 18.0065 4.38641 17.9804C3.7845 17.7719 1.00027 16.6388 1.00027 13.5166L1 11.1942C0.999971 10.9456 1.19706 10.747 1.43634 10.7123C2.63579 10.5385 3.61137 9.69165 4.11913 9.15912C4.32144 8.94694 4.67848 8.94697 4.88077 9.15916Z" fill="#212121"/>
</svg>
