<svg width="16" height="16" viewBox="0 0 16 16" fill="none" xmlns="http://www.w3.org/2000/svg">
<path d="M3 2C1.89543 2 1 2.89543 1 4V10C1 11.1046 1.89543 12 3 12H6.02242C6.00758 11.8353 6 11.6685 6 11.5C6 9.63984 6.92345 7.99537 8.33692 7H5C4.44772 7 4 6.55228 4 6C4 5.44772 4.44772 5 5 5H11C11.5523 5 12 5.44772 12 6L11.9998 6.0224C13.1343 6.12459 14.1695 6.57132 15 7.25716V4C15 2.89543 14.1046 2 13 2H3ZM16 11.5C16 13.9853 13.9853 16 11.5 16C9.01472 16 7 13.9853 7 11.5C7 9.01472 9.01472 7 11.5 7C13.9853 7 16 9.01472 16 11.5ZM10.8536 13.3536L13.8536 10.3536C14.0488 10.1583 14.0488 9.84171 13.8536 9.64645C13.6583 9.45118 13.3417 9.45118 13.1464 9.64645L10.5 12.2929L9.85355 11.6464C9.65829 11.4512 9.34171 11.4512 9.14645 11.6464C8.95118 11.8417 8.95118 12.1583 9.14645 12.3536L10.1464 13.3536C10.3417 13.5488 10.6583 13.5488 10.8536 13.3536Z" fill="#212121"/>
</svg>
