<svg width="20" height="20" viewBox="0 0 20 20" fill="none" xmlns="http://www.w3.org/2000/svg">
<path d="M4 5C4 3.993 4.87513 3.24472 5.90401 2.77705C6.97802 2.28886 8.42665 2 10 2C11.5734 2 13.022 2.28886 14.096 2.77705C15.1249 3.24472 16 3.993 16 5V9.20703C15.6777 9.11588 15.3434 9.05337 15 9.02242V6.69813C14.729 6.90046 14.4201 7.07563 14.096 7.22295C13.022 7.71114 11.5734 8 10 8C8.42665 8 6.97802 7.71114 5.90401 7.22295C5.5799 7.07563 5.27105 6.90046 5 6.69813V15C5 15.3737 5.35608 15.8754 6.31781 16.3126C7.14923 16.6905 8.29723 16.9484 9.59618 16.9931C9.77926 17.3525 10.0007 17.6891 10.2551 17.9975C10.1704 17.9991 10.0854 18 10 18C8.42665 18 6.97802 17.7111 5.90401 17.2229C4.87513 16.7553 4 16.007 4 15V5ZM5 5C5 5.37372 5.35608 5.87543 6.31781 6.31258C7.23441 6.72922 8.53579 7 10 7C11.4642 7 12.7656 6.72922 13.6822 6.31258C14.6439 5.87543 15 5.37372 15 5C15 4.62628 14.6439 4.12457 13.6822 3.68742C12.7656 3.27078 11.4642 3 10 3C8.53579 3 7.23441 3.27078 6.31781 3.68742C5.35608 4.12457 5 4.62628 5 5ZM19 14.5C19 16.9853 16.9853 19 14.5 19C12.0147 19 10 16.9853 10 14.5C10 12.0147 12.0147 10 14.5 10C16.9853 10 19 12.0147 19 14.5ZM16.8536 12.6464C16.6583 12.4512 16.3417 12.4512 16.1464 12.6464L13.5 15.2929L12.8536 14.6464C12.6583 14.4512 12.3417 14.4512 12.1464 14.6464C11.9512 14.8417 11.9512 15.1583 12.1464 15.3536L13.1464 16.3536C13.3417 16.5488 13.6583 16.5488 13.8536 16.3536L16.8536 13.3536C17.0488 13.1583 17.0488 12.8417 16.8536 12.6464Z" fill="#212121"/>
</svg>
