<svg width="48" height="48" viewBox="0 0 48 48" fill="none" xmlns="http://www.w3.org/2000/svg">
<path d="M31.6594 12.2437C30.9691 12.2437 30.4094 12.8033 30.4094 13.4937C30.4094 14.184 30.9691 14.7437 31.6594 14.7437C32.9309 14.7437 34.3975 15.9771 34.5546 17.6973C34.6174 18.3848 35.2256 18.8912 35.9131 18.8285C36.6006 18.7657 37.107 18.1575 37.0442 17.47C36.7813 14.5902 34.3479 12.2437 31.6594 12.2437Z" fill="#212121"/>
<path d="M21.2704 8.22806C18.9425 6.06404 16.1377 5.74924 13.689 6.28485C11.2824 6.81125 9.11963 8.17026 7.8207 9.54515C6.22139 11.238 4.71759 13.4077 4.59033 16.5429L4.59006 16.5508C4.53723 18.0936 4.73786 20.3725 5.9667 22.0664L6.10468 22.2576C7.33978 23.9686 8.07009 24.9803 8.43213 25.994L8.43506 26.002C8.84877 27.1359 8.85961 28.2648 8.87499 29.8666C8.87634 30.0063 8.87771 30.1497 8.8794 30.2969C8.90135 32.5167 9.53372 36.0806 11.2328 38.6834C12.0535 39.9406 13.1778 41.0556 14.6839 41.6153L14.7411 41.6366L14.8001 41.6521C15.998 41.9685 17.1302 41.9015 18.0477 41.2235C18.9038 40.5907 19.3203 39.602 19.5606 38.6821C19.8065 37.7408 19.9244 36.639 20.017 35.5478C20.0441 35.2288 20.0691 34.91 20.0942 34.591C20.1577 33.781 20.2213 32.9693 20.3196 32.1488C20.3929 31.5376 20.4835 30.9411 20.6029 30.3692C20.9528 28.6964 21.3552 27.7273 21.7418 27.1521C22.0844 26.6424 22.4286 26.4186 22.8118 26.281C23.9467 25.9936 24.6659 26.1421 25.1545 26.4192C25.6776 26.7159 26.1327 27.2711 26.5106 28.1338C27.2885 29.9098 27.5085 32.4191 27.6935 34.6853L27.6937 34.6883C27.8833 36.9422 28.3583 38.9993 29.2458 40.3242C29.7026 41.0063 30.3501 41.6126 31.2334 41.8258C32.1355 42.0436 33.0195 41.789 33.8041 41.2858L33.8053 41.285C36.6752 39.4401 38.3324 35.4983 38.7843 30.4756C38.9758 28.3472 39.2236 27.2197 39.615 26.2312C39.9318 25.4312 40.3424 24.7095 40.9685 23.6089L40.9696 23.6071C41.1614 23.2699 41.3735 22.8971 41.6093 22.4756C42.2539 21.3317 43.291 19.2676 43.4067 16.8585C43.5265 14.3609 42.648 11.6075 39.6838 9.23038C36.8548 6.93703 34.2232 6.10301 31.8767 6.22784C29.5489 6.35167 27.6853 7.40938 26.3536 8.55647L26.3229 8.58283L26.2941 8.61112C24.9869 9.89312 24.373 10.1365 23.9613 10.1185C23.5002 10.0984 22.7738 9.74049 21.3063 8.26274L21.2887 8.24504L21.2704 8.22806ZM9.63796 11.262C10.6097 10.2334 12.3323 9.14071 14.2232 8.72711C16.0653 8.32418 17.963 8.57779 19.551 10.0431C20.9666 11.4661 22.3152 12.5491 23.8523 12.6161C25.4332 12.6851 26.7411 11.6701 28.0144 10.4256C29.0586 9.53414 30.4048 8.80968 32.0095 8.72431C33.6097 8.63918 35.6521 9.17956 38.112 11.1744L38.1176 11.1789C40.4412 13.0414 40.9921 15.017 40.9095 16.7387C40.8227 18.5483 40.0258 20.1934 39.4304 21.2498L39.4284 21.2533C39.2271 21.6132 39.0355 21.9496 38.8538 22.2685C38.2022 23.4124 37.6779 24.3328 37.2906 25.3109C36.7726 26.619 36.4955 28.0165 36.2944 30.2516C35.8663 35.0086 34.3437 37.9667 32.4538 39.1818C32.0539 39.4381 31.8682 39.4073 31.8202 39.3957C31.7535 39.3796 31.571 39.3034 31.3229 38.9329C30.8005 38.1531 30.3656 36.6256 30.1851 34.4803L30.1849 34.4788L30.1772 34.384C30.0031 32.2483 29.7654 29.3335 28.8006 27.1308C28.2997 25.9873 27.5492 24.9032 26.3876 24.2445C25.1982 23.57 23.7666 23.4476 22.1335 23.8741L22.0891 23.8857L22.0458 23.9005C21.1555 24.2042 20.3421 24.7529 19.6669 25.7575C19.0235 26.7148 18.5358 28.0409 18.1557 29.858C18.0174 30.5204 17.9164 31.1916 17.8374 31.8514C17.7325 32.7265 17.6627 33.6174 17.5978 34.4446C17.5737 34.752 17.5503 35.0506 17.526 35.3363C17.4332 36.4287 17.3279 37.338 17.1418 38.0503C16.9501 38.784 16.726 39.0916 16.5618 39.2129C16.4618 39.2869 16.2056 39.426 15.4985 39.2504C14.6689 38.9252 13.9433 38.2621 13.3262 37.3169C11.9731 35.244 11.3982 32.1992 11.3793 30.2713L11.3792 30.2693C11.3774 30.1087 11.3762 29.9475 11.3751 29.7857C11.3642 28.2719 11.3529 26.7081 10.785 25.149C10.2981 23.7884 9.36179 22.4943 8.25602 20.966C8.16947 20.8464 8.08148 20.7248 7.99299 20.6021L7.9909 20.5993C7.26139 19.5943 7.04188 18.0161 7.08846 16.6403C7.18226 14.3576 8.24451 12.7369 9.63796 11.262ZM22.8118 26.281L22.7652 26.293L22.8529 26.2666C22.8391 26.2713 22.8254 26.2761 22.8118 26.281Z" fill="#212121"/>
</svg>
