<?xml version="1.0" encoding="UTF-8"?>
<svg width="24px" height="24px" viewBox="0 0 24 24" version="1.1" xmlns="http://www.w3.org/2000/svg" xmlns:xlink="http://www.w3.org/1999/xlink">
    <!-- Generator: Sketch 59.1 (86144) - https://sketch.com -->
    <title>ic_fluent_lightbulb_circle_24_filled</title>
    <desc>Created with Sketch.</desc>
    <g id="ðŸ”-Product-Icons" stroke="none" stroke-width="1" fill="none" fill-rule="evenodd">
        <g id="ic_fluent_lightbulb_circle_24_filled" fill="#212121" fill-rule="nonzero">
            <path d="M12,2 C17.5228475,2 22,6.4771525 22,12 C22,17.5228475 17.5228475,22 12,22 C6.4771525,22 2,17.5228475 2,12 C2,6.4771525 6.4771525,2 12,2 Z M14.481,16.9999231 L9.519,16.9999231 L9.62208636,17.4541839 L9.66510834,17.6064423 L9.72181711,17.7486073 C10.0101389,18.3949445 10.6239415,18.7980769 11.3090605,18.7980769 L11.3090605,18.7980769 L12.6909395,18.7980769 L12.8466093,18.7903897 L12.9978852,18.7671003 L13.1441471,18.7324284 C13.7664125,18.5581894 14.2343343,18.0763777 14.3773858,17.4564876 L14.3773858,17.4564876 L14.481,16.9999231 Z M12,5.20192308 C9.23857625,5.20192308 7,7.44049933 7,10.2019231 L7,10.2019231 L7.00752809,10.4733133 L7.02867715,10.7288689 L7.06226775,10.9810403 C7.24767238,12.1493978 7.83148313,13.1957303 8.70145288,13.9593293 L8.70145288,13.9593293 L8.856,14.088 L9.177,15.4999231 L14.821,15.4999231 L15.141,14.09 L15.3038826,13.9534968 C16.314015,13.0588885 16.9251648,11.8103767 16.9935695,10.4568744 L17,10.2019231 C17,7.44049933 14.7614237,5.20192308 12,5.20192308 Z" id="ðŸŽ¨-Color"></path>
        </g>
    </g>
</svg>