<?xml version="1.0" encoding="UTF-8"?>
<svg width="24px" height="24px" viewBox="0 0 24 24" version="1.1" xmlns="http://www.w3.org/2000/svg" xmlns:xlink="http://www.w3.org/1999/xlink">
    <!-- Generator: Sketch 59.1 (86144) - https://sketch.com -->
    <title>ic_fluent_lightbulb_circle_24_light</title>
    <desc>Created with Sketch.</desc>
    <g id="ðŸ”-Product-Icons" stroke="none" stroke-width="1" fill="none" fill-rule="evenodd">
        <g id="ic_fluent_lightbulb_circle_24_light" fill="#212121" fill-rule="nonzero">
            <path d="M12,2 C17.5228475,2 22,6.4771525 22,12 C22,17.5228475 17.5228475,22 12,22 C6.4771525,22 2,17.5228475 2,12 C2,6.4771525 6.4771525,2 12,2 Z M12,3 C7.02943725,3 3,7.02943725 3,12 C3,16.9705627 7.02943725,21 12,21 C16.9705627,21 21,16.9705627 21,12 C21,7.02943725 16.9705627,3 12,3 Z M12,5.45192308 C14.6233526,5.45192308 16.75,7.57857052 16.75,10.2019231 C16.75,11.575764 16.1624888,12.8539845 15.1530964,13.7535515 L14.9589318,13.9177139 L14.918,13.948 L14.133788,17.4002727 C14.0151462,17.9143873 13.6357504,18.2911005 13.1288174,18.4367599 L12.987501,18.4706863 L12.840461,18.4927333 L12.6909395,18.5 L11.3090605,18.5 C10.7323228,18.5 10.2188947,18.2022943 9.96705127,17.6829742 L9.90965484,17.5485712 L9.86586009,17.398737 L9.081,13.948 L9.03676894,13.9141069 C8.12338113,13.1849318 7.50689325,12.143535 7.31385838,10.9744228 L7.27902131,10.7220111 L7.25742381,10.4660933 L7.25,10.2019231 C7.25,7.57857052 9.37664744,5.45192308 12,5.45192308 Z M13.483,16 L10.515,16 L10.8322709,17.1440032 L10.8568066,17.2295002 C10.9093653,17.3699583 11.0403088,17.4683656 11.2170338,17.4936155 L11.3090605,17.5 L12.6642992,17.5007102 L12.7602367,17.496323 C12.9420183,17.4767291 13.0753129,17.3854825 13.1352707,17.2489585 L13.1590231,17.1770455 L13.483,16 Z M12,6.45192308 C9.99574083,6.45192308 8.35872626,8.02428413 8.25500899,9.98967726 L8.24979144,10.187483 L8.25637799,10.4227299 C8.32244661,11.5629499 8.90267054,12.5964875 9.81900684,13.2523336 C9.8936183,13.3057349 9.95160442,13.3782622 9.98738096,13.4615138 L10.0155475,13.5480291 L10.288,15 L13.71,15 L13.9834306,13.5492025 C14.0030001,13.4630859 14.0448933,13.3842214 14.1042209,13.3201852 L14.169179,13.2613723 L14.3442749,13.129043 C15.2269089,12.4211225 15.75,11.3550109 15.75,10.2019231 C15.75,8.13085527 14.0710678,6.45192308 12,6.45192308 Z" id="ðŸŽ¨-Color"></path>
        </g>
    </g>
</svg>