<svg width="20" height="20" viewBox="0 0 20 20" fill="none" xmlns="http://www.w3.org/2000/svg">
<path d="M2.85355 2.14645C2.65829 1.95118 2.34171 1.95118 2.14645 2.14645C1.95118 2.34171 1.95118 2.65829 2.14645 2.85355L4.00062 4.70772C2.75552 6.11808 2 7.97084 2 10.0001C2 12.3002 2.97073 14.3737 4.52487 15.833C4.71256 16.0093 5.00478 15.9953 5.18685 15.8132C5.39483 15.6052 5.37638 15.264 5.16377 15.0608C3.83047 13.7863 3 11.9902 3 10.0001C3 8.24702 3.64442 6.64447 4.7093 5.4164L5.77334 6.48044C4.9783 7.43418 4.5 8.6612 4.5 9.99994C4.5 11.6179 5.19861 13.0726 6.31064 14.079C6.49437 14.2453 6.77419 14.2258 6.9494 14.0505C7.16356 13.8364 7.13387 13.4824 6.91351 13.2746C6.04324 12.4541 5.5 11.2905 5.5 9.99994C5.5 8.93745 5.86823 7.96096 6.48402 7.19113L8.83609 9.5432C8.78052 9.68469 8.75 9.83877 8.75 9.99999C8.75 10.6903 9.30964 11.25 10 11.25C10.1612 11.25 10.3153 11.2195 10.4568 11.1639L17.1464 17.8536C17.3417 18.0488 17.6583 18.0488 17.8536 17.8536C18.0488 17.6583 18.0488 17.3417 17.8536 17.1464L15.9995 15.2923C15.9994 15.2923 15.9995 15.2923 15.9995 15.2923L15.2908 14.5836C15.2908 14.5836 15.2908 14.5837 15.2908 14.5836L14.2266 13.5195C14.2266 13.5195 14.2266 13.5195 14.2266 13.5195L13.5159 12.8088C13.5159 12.8088 13.5159 12.8088 13.5159 12.8088L11.1639 10.4568C11.1639 10.4568 11.1639 10.4568 11.1639 10.4568L9.54321 8.83608C9.54322 8.83607 9.54321 8.83608 9.54321 8.83608L2.85355 2.14645Z" fill="#212121"/>
<path d="M16.6178 14.4964C17.4901 13.215 18 11.6671 18 10.0001C18 7.78602 17.1006 5.78204 15.6472 4.33357C15.4606 4.14765 15.1603 4.15775 14.9741 4.34398C14.7702 4.5479 14.7829 4.88085 14.9854 5.08622C16.2312 6.35004 17 8.08527 17 10.0001C17 11.3902 16.5948 12.6856 15.8961 13.7747L16.6178 14.4964Z" fill="#212121"/>
<path d="M14.803 12.6817C15.247 11.8883 15.5 10.9737 15.5 9.99994C15.5 8.47067 14.8759 7.08717 13.8684 6.09028C13.6859 5.90971 13.3939 5.92401 13.2124 6.10554C13.0043 6.31366 13.0246 6.65508 13.2296 6.8663C14.0159 7.67653 14.5 8.7817 14.5 9.99994C14.5 10.6947 14.3426 11.3526 14.0614 11.9401L14.803 12.6817Z" fill="#212121"/>
</svg>
