<svg width="24" height="24" viewBox="0 0 24 24" fill="none" xmlns="http://www.w3.org/2000/svg">
<path d="M3.75 4C4.16421 4 4.5 4.3078 4.5 4.6875V6H11.25V4.6875C11.25 4.3078 11.5858 4 12 4C12.4142 4 12.75 4.3078 12.75 4.6875V6H19.5V4.6875C19.5 4.3078 19.8358 4 20.25 4C20.6642 4 21 4.3078 21 4.6875V8.8125C21 9.1922 20.6642 9.5 20.25 9.5C19.8358 9.5 19.5 9.1922 19.5 8.8125V7.5H12.75V8.8125C12.75 9.1922 12.4142 9.5 12 9.5C11.5858 9.5 11.25 9.1922 11.25 8.8125V7.5H4.5V8.8125C4.5 9.1922 4.16421 9.5 3.75 9.5C3.33579 9.5 3 9.1922 3 8.8125V4.6875C3 4.3078 3.33579 4 3.75 4Z" fill="#212121"/>
<path d="M5.75 11C4.23122 11 3 12.2312 3 13.75V17.75C3 19.2688 4.23122 20.5 5.75 20.5H11.25V11H5.75Z" fill="#212121"/>
<path d="M18.25 20.5H12.75V11H18.25C19.7688 11 21 12.2312 21 13.75V17.75C21 19.2688 19.7688 20.5 18.25 20.5Z" fill="#212121"/>
</svg>
