<svg width="20" height="20" viewBox="0 0 20 20" fill="none" xmlns="http://www.w3.org/2000/svg">
<path d="M10.0003 5.87504C10.4606 5.87504 10.8337 5.50194 10.8337 5.04171C10.8337 4.58147 10.4606 4.20837 10.0003 4.20837C9.54009 4.20837 9.16699 4.58147 9.16699 5.04171C9.16699 5.50194 9.54009 5.87504 10.0003 5.87504Z" fill="#212121"/>
<path d="M16 13.3406V8H16.093C16.9862 8 17.3519 6.85258 16.6234 6.33571L10.7718 2.18429C10.3097 1.85646 9.69091 1.85646 9.22881 2.18428L3.37703 6.3357C2.64846 6.85256 3.01414 8 3.90742 8H4V13.3406C3.39861 13.7256 3 14.3996 3 15.1667V16.5C3 16.7761 3.22386 17 3.5 17H16.5C16.7761 17 17 16.7761 17 16.5V15.1667C17 14.3996 16.6014 13.7256 16 13.3406ZM9.80743 2.99988C9.92295 2.91793 10.0776 2.91793 10.1932 2.99988L15.8315 7H12.5021L12.5 7L12.4979 7H4.16891L9.80743 2.99988ZM15 8V13.0063C14.945 13.0021 14.8894 13 14.8333 13H13L13 8H15ZM5 13.0063V8H7L7 13H5.16667C5.11059 13 5.05501 13.0021 5 13.0063ZM5.16667 14H14.8333C15.4777 14 16 14.5223 16 15.1667V16H4V15.1667C4 14.5223 4.52233 14 5.16667 14ZM9.5 13H8L8 8H9.5L9.5 13ZM10.5 13L10.5 8H12L12 13H10.5Z" fill="#212121"/>
</svg>
