<svg width="20" height="20" viewBox="0 0 20 20" fill="none" xmlns="http://www.w3.org/2000/svg">
<path d="M9.72278 2.08391C9.89069 1.97203 10.1094 1.97203 10.2773 2.08391L17.7773 7.08143C17.9607 7.20362 18.0424 7.43145 17.9786 7.64235C17.9148 7.85326 17.7204 7.99752 17.5 7.99752H16.0001V8H14.0001V7.99752H11.0001V8H9.00006V7.99752H5.9964V8H3.9964V7.99752H2.50004C2.27968 7.99752 2.08531 7.85326 2.02148 7.64235C1.95765 7.43145 2.03941 7.20362 2.22278 7.08143L9.72278 2.08391ZM10.0001 6C10.4143 6 10.7501 5.66421 10.7501 5.25C10.7501 4.83579 10.4143 4.5 10.0001 4.5C9.58585 4.5 9.25006 4.83579 9.25006 5.25C9.25006 5.66421 9.58585 6 10.0001 6Z" fill="#212121"/>
<path d="M14.0001 9H16.0001V15H14.0001V9Z" fill="#212121"/>
<path d="M11.0001 15V9H9.00006V15H11.0001Z" fill="#212121"/>
<path d="M5.9964 15V9H3.9964V15H5.9964Z" fill="#212121"/>
<path d="M3.04413 16C2.89377 16.0191 2.75877 16.1057 2.67918 16.2373L2.07219 17.2413C1.97883 17.3957 1.97591 17.5884 2.06455 17.7456C2.15318 17.9028 2.31962 18 2.50006 18H17.5001C17.6804 18 17.8468 17.9029 17.9354 17.7459C18.0241 17.5888 18.0214 17.3962 17.9282 17.2418L17.3228 16.2378C17.2433 16.1059 17.1081 16.0191 16.9576 16H3.04413Z" fill="#212121"/>
</svg>
