<svg width="24" height="24" viewBox="0 0 24 24" fill="none" xmlns="http://www.w3.org/2000/svg">
<path d="M11.569 2.14094C11.8277 1.95929 12.1724 1.95929 12.4311 2.14094L21.6799 8.63643C21.9476 8.82444 22.0625 9.16429 21.9639 9.47622C21.8653 9.78814 21.5759 10.0002 21.2488 10.0002H2.75127C2.42414 10.0002 2.13474 9.78814 2.03615 9.47622C1.93755 9.16429 2.05252 8.82444 2.32023 8.63643L11.569 2.14094ZM12.0001 7C12.5523 7 13.0001 6.55228 13.0001 6C13.0001 5.44772 12.5523 5 12.0001 5C11.4478 5 11.0001 5.44772 11.0001 6C11.0001 6.55228 11.4478 7 12.0001 7Z" fill="#212121"/>
<path d="M17.0001 11H20.0001V18H17.0001V11Z" fill="#212121"/>
<path d="M13.5 19V19.0013H17.0001V19H20.0001V19.0013H20.5022C20.7867 19.0013 21.0467 19.1623 21.1735 19.4169L21.9201 20.9156C22.0359 21.1481 22.0232 21.4239 21.8865 21.6448C21.7498 21.8656 21.5086 22 21.2488 22H2.75128C2.49141 22 2.25005 21.8655 2.11338 21.6444C1.97671 21.4234 1.9642 21.1474 2.08032 20.9149L2.82884 19.4162C2.95583 19.162 3.21561 19.0013 3.49981 19.0013H4.00006V19H7.00006V19.0013H10.5V19H13.5Z" fill="#212121"/>
<path d="M13.5 18V11H10.5V18H13.5Z" fill="#212121"/>
<path d="M7.00006 18V11H4.00006V18H7.00006Z" fill="#212121"/>
</svg>
