<svg width="16" height="16" viewBox="0 0 16 16" fill="none" xmlns="http://www.w3.org/2000/svg">
<path d="M8 5.00085C8.41421 5.00085 8.75 4.66507 8.75 4.25085C8.75 3.83664 8.41421 3.50085 8 3.50085C7.58579 3.50085 7.25 3.83664 7.25 4.25085C7.25 4.66507 7.58579 5.00085 8 5.00085ZM8.73631 1.4548C8.30759 1.10623 7.69315 1.10621 7.2644 1.45474L2.26246 5.52088C1.65374 6.01571 2.00364 7.00084 2.78811 7.00084H3V11.2008C2.40639 11.5042 2 12.1217 2 12.8342V13.5009C2 13.777 2.22386 14.0009 2.5 14.0009H13.5C13.7761 14.0009 14 13.777 14 13.5009V12.8342C14 12.1217 13.5936 11.5042 13 11.2008V7.00084H13.2116C13.9961 7.00084 14.346 6.01578 13.7374 5.52092L8.73631 1.4548ZM7.89518 2.2307C7.95643 2.18091 8.04421 2.18091 8.10546 2.23071L12.7425 6.00084H3.25736L7.89518 2.2307ZM12 11.0009H11V7.00084H12V11.0009ZM10 11.0009H8.5L8.5 7.00084H10V11.0009ZM7.5 11.0009H6V7.00084H7.5L7.5 11.0009ZM12.1667 12.0009C12.6269 12.0009 13 12.374 13 12.8342V13.0009H3V12.8342C3 12.374 3.3731 12.0009 3.83333 12.0009H12.1667ZM5 11.0009H4V7.00084H5V11.0009Z" fill="#212121"/>
</svg>
