<svg width="24" height="24" viewBox="0 0 24 24" fill="none" xmlns="http://www.w3.org/2000/svg">
<path d="M20.5 7.26348C20.3072 7.43773 20.1033 7.5974 19.8927 7.73783C19.548 7.9676 19.0824 7.87447 18.8526 7.52982C18.6228 7.18517 18.716 6.71952 19.0606 6.48976C19.825 5.98018 20.3901 5.1686 20.5167 4.58989C20.597 4.22259 20.9339 3.97754 21.298 4.00163C21.6898 4.02637 22 4.35202 22 4.75012V11.2501C22 11.6643 21.6642 12.0001 21.25 12.0001C20.8358 12.0001 20.5 11.6643 20.5 11.2501V7.26348ZM2.00011 9.25C2.00011 8.83579 2.33589 8.5 2.75011 8.5H6.25011C6.66432 8.5 7.00011 8.83579 7.00011 9.25C7.00011 10.2181 6.83448 11.4911 6.24053 12.6077C5.62932 13.7567 4.56692 14.7252 2.86589 14.991C2.45664 15.055 2.07304 14.775 2.0091 14.3658C1.94515 13.9565 2.22508 13.5729 2.63433 13.509C3.80872 13.3255 4.49632 12.6926 4.91625 11.9032C5.22768 11.3178 5.39169 10.6407 5.46028 10H2.75011C2.33589 10 2.00011 9.66421 2.00011 9.25ZM8 6.25V18.2505C8 18.6647 8.33579 19.0005 8.75 19.0005C9.16421 19.0005 9.5 18.6647 9.5 18.2505V6.25C9.5 5.83579 9.16421 5.5 8.75 5.5C8.33579 5.5 8 5.83579 8 6.25ZM16 18.2505V6.25C16 5.83579 16.3358 5.5 16.75 5.5C17.1642 5.5 17.5 5.83579 17.5 6.25V18.2505C17.5 18.6647 17.1642 19.0005 16.75 19.0005C16.3358 19.0005 16 18.6647 16 18.2505ZM12.7425 7.10607C12.801 6.69602 12.5161 6.31612 12.1061 6.25754C11.696 6.19896 11.3161 6.48389 11.2575 6.89394L10.2575 13.8939C10.2242 14.1276 10.3028 14.3634 10.4697 14.5303C10.6366 14.6973 10.8724 14.7759 11.1061 14.7425L14.6061 14.2425C15.0161 14.1839 15.301 13.804 15.2425 13.3939C15.1839 12.9839 14.804 12.699 14.3939 12.7575L11.8839 13.1161L12.7425 7.10607Z" fill="#212121"/>
</svg>
