<svg width="48" height="48" viewBox="0 0 48 48" fill="none" xmlns="http://www.w3.org/2000/svg">
<path d="M24 4C12.9543 4 4 12.9543 4 24C4 35.0457 12.9543 44 24 44C35.0457 44 44 35.0457 44 24C44 22.8814 43.908 21.7833 43.731 20.7131C43.6484 20.214 43.2731 19.8138 42.7803 19.6995C42.2875 19.5851 41.7743 19.7792 41.4804 20.1909C40.4809 21.5912 38.8466 22.5 37 22.5C34.1073 22.5 31.7352 20.2661 31.5165 17.4302C31.4756 16.9 31.1038 16.4537 30.5897 16.3178C28.2346 15.6953 26.5 13.5486 26.5 11C26.5 9.22673 27.3378 7.6497 28.6443 6.64188C29.0305 6.34404 29.2081 5.84885 29.0994 5.37348C28.9907 4.89811 28.6155 4.52935 28.1383 4.42892C26.802 4.14768 25.4176 4 24 4ZM24 26C22.8954 26 22 25.1046 22 24C22 22.8954 22.8954 22 24 22C25.1046 22 26 22.8954 26 24C26 25.1046 25.1046 26 24 26ZM18 32C18 33.1046 17.1046 34 16 34C14.8954 34 14 33.1046 14 32C14 30.8954 14.8954 30 16 30C17.1046 30 18 30.8954 18 32ZM14 20C12.8954 20 12 19.1046 12 18C12 16.8954 12.8954 16 14 16C15.1046 16 16 16.8954 16 18C16 19.1046 15.1046 20 14 20ZM32 34C32 35.1046 31.1046 36 30 36C28.8954 36 28 35.1046 28 34C28 32.8954 28.8954 32 30 32C31.1046 32 32 32.8954 32 34Z" fill="#212121"/>
</svg>
