<svg width="16" height="16" viewBox="0 0 16 16" fill="none" xmlns="http://www.w3.org/2000/svg">
<path d="M9.5 5H12.75L9 1.25V4.5C9 4.776 9.224 5 9.5 5ZM9.5 6C8.672 6 8 5.328 8 4.5V1H4.5C3.672 1 3 1.672 3 2.5V13.5C3 14.328 3.672 15 4.5 15H11.5C12.328 15 13 14.328 13 13.5V6H9.5ZM6 12.5C6 12.776 5.776 13 5.5 13C5.224 13 5 12.776 5 12.5V10.5C5 10.224 5.224 10 5.5 10C5.776 10 6 10.224 6 10.5V12.5ZM8.5 12.5C8.5 12.776 8.276 13 8 13C7.724 13 7.5 12.776 7.5 12.5V7.5C7.5 7.224 7.724 7 8 7C8.276 7 8.5 7.224 8.5 7.5V12.5ZM11 12.5C11 12.776 10.776 13 10.5 13C10.224 13 10 12.776 10 12.5V9.5C10 9.224 10.224 9 10.5 9C10.776 9 11 9.224 11 9.5V12.5Z" fill="#212121"/>
</svg>
