<svg width="20" height="20" viewBox="0 0 20 20" fill="none" xmlns="http://www.w3.org/2000/svg">
<path d="M6 2C4.89543 2 4 2.89543 4 4V10H5V4C5 3.44772 5.44772 3 6 3H10V6.5C10 7.32843 10.6716 8 11.5 8H15V16C15 16.5523 14.5523 17 14 17H11V18H14C15.1046 18 16 17.1046 16 16V7.41421C16 7.01639 15.842 6.63486 15.5607 6.35355L11.6464 2.43934C11.3651 2.15804 10.9836 2 10.5858 2H6ZM14.7929 7H11.5C11.2239 7 11 6.77614 11 6.5V3.20711L14.7929 7ZM3.5 11C3.77614 11 4 11.2239 4 11.5C4 11.7761 3.77614 12 3.5 12H2.5C2.22386 12 2 12.2239 2 12.5V17.5C2 17.7761 2.22386 18 2.5 18H3.5C3.77614 18 4 18.2239 4 18.5C4 18.7761 3.77614 19 3.5 19H2.5C1.67157 19 1 18.3284 1 17.5V12.5C1 11.6716 1.67157 11 2.5 11H3.5ZM7.5 18C7.22386 18 7 18.2239 7 18.5C7 18.7761 7.22386 19 7.5 19H8.5C9.32843 19 10 18.3284 10 17.5V12.5C10 11.6716 9.32843 11 8.5 11H7.5C7.22386 11 7 11.2239 7 11.5C7 11.7761 7.22386 12 7.5 12H8.5C8.77614 12 9 12.2239 9 12.5V17.5C9 17.7761 8.77614 18 8.5 18H7.5ZM5.4988 14C5.77494 13.9999 5.9989 14.2236 5.99902 14.4998L6.00036 17.4998C6.00048 17.7759 5.77672 17.9999 5.50058 18C5.22444 18.0001 5.00048 17.7764 5.00036 17.5002L4.99902 14.5002C4.9989 14.2241 5.22266 14.0001 5.4988 14ZM5.5 13C5.77614 13 6 12.7761 6 12.5C6 12.2239 5.77614 12 5.5 12C5.22386 12 5 12.2239 5 12.5C5 12.7761 5.22386 13 5.5 13Z" fill="#212121"/>
</svg>
