<svg width="48" height="48" viewBox="0 0 48 48" fill="none" xmlns="http://www.w3.org/2000/svg">
<path d="M8.25 8C5.90279 8 4 9.90279 4 12.25V35.75C4 38.0972 5.90279 40 8.25 40H31V36.3317C29.7466 34.722 29 32.6982 29 30.5C29 29.8139 29.0727 29.1448 29.2109 28.5H26.25C25.5596 28.5 25 27.9404 25 27.25C25 26.5596 25.5596 26 26.25 26H30.1313C31.2625 23.9007 33.1607 22.2756 35.4506 21.5H26.25C25.5596 21.5 25 20.9404 25 20.25C25 19.5596 25.5596 19 26.25 19H35.75C36.4404 19 37 19.5596 37 20.25C37 20.6285 36.8317 20.9678 36.5659 21.197C37.1904 21.0679 37.8373 21 38.5 21C40.5497 21 42.4479 21.6492 44 22.7531V12.25C44 9.90279 42.0972 8 39.75 8H8.25ZM19 20C19 21.6569 17.6569 23 16 23C14.3431 23 13 21.6569 13 20C13 18.3431 14.3431 17 16 17C17.6569 17 19 18.3431 19 20ZM11 26.5C11 25.6716 11.6716 25 12.5 25H19.5C20.3284 25 21 25.6716 21 26.5V27C21 27 21 31 16 31C11 31 11 27 11 27V26.5ZM38.5 38C40.6731 38 42.6303 37.0758 44 35.5991C45.2412 34.2609 46 32.4691 46 30.5C46 28.5309 45.2412 26.7391 44 25.4009C42.6303 23.9242 40.6731 23 38.5 23C36.0463 23 33.8678 24.1783 32.4995 26C31.9441 26.7393 31.5223 27.5845 31.2696 28.5C31.0939 29.1367 31 29.8074 31 30.5C31 34.6421 34.3579 38 38.5 38ZM42.0897 39.2986C42.7694 39.021 43.4097 38.6669 44 38.2471V44.9579C44 45.8078 43.0357 46.2989 42.3483 45.7989L38.5 43.0002L34.6517 45.7989C33.9643 46.2989 33 45.8078 33 44.9579V38.2471C33.6162 38.6853 34.2869 39.0519 35 39.3347C36.0661 39.7574 37.2268 39.9927 38.4416 40C38.4611 40.0001 38.4805 40.0002 38.5 40.0002C38.5195 40.0002 38.5389 40.0001 38.5584 40C39.7732 39.9927 40.9339 39.7574 42 39.3347C42.03 39.3228 42.0599 39.3107 42.0897 39.2986Z" fill="#212121"/>
</svg>
