<svg width="20" height="20" viewBox="0 0 20 20" fill="none" xmlns="http://www.w3.org/2000/svg">
<path d="M15 2.5C15 2.22386 14.7761 2 14.5 2C14.2239 2 14 2.22386 14 2.5V10.5C14 10.7761 14.2239 11 14.5 11C14.7761 11 15 10.7761 15 10.5V7H16.5C16.7761 7 17 6.77614 17 6.5C17 6.22386 16.7761 6 16.5 6H15V2.5ZM8.5 3C8.22386 3 8 3.22386 8 3.5C8 3.77614 8.22386 4 8.5 4L12 4V4.75C12 5.69773 11.8082 6.77843 11.2789 7.60547C10.7697 8.40101 9.92757 9 8.5 9C8.22386 9 8 9.22386 8 9.5C8 9.77614 8.22386 10 8.5 10C10.2724 10 11.4303 9.22399 12.1211 8.14453C12.7918 7.09657 13 5.80227 13 4.75V3.5C13 3.22386 12.7761 3 12.5 3L8.5 3ZM5.85355 4.14645C5.65829 3.95118 5.34171 3.95118 5.14645 4.14645L3.14645 6.14645C2.95118 6.34171 2.95118 6.65829 3.14645 6.85355L5.14645 8.85355C5.34171 9.04882 5.65829 9.04882 5.85355 8.85355C6.04882 8.65829 6.04882 8.34171 5.85355 8.14645L4.70711 7H6.5C6.77614 7 7 6.77614 7 6.5C7 6.22386 6.77614 6 6.5 6H4.70711L5.85355 4.85355C6.04882 4.65829 6.04882 4.34171 5.85355 4.14645ZM5.85355 12.1464C5.65829 11.9512 5.34171 11.9512 5.14645 12.1464L3.14645 14.1464C2.95118 14.3417 2.95118 14.6583 3.14645 14.8536L5.14645 16.8536C5.34171 17.0488 5.65829 17.0488 5.85355 16.8536C6.04882 16.6583 6.04882 16.3417 5.85355 16.1464L4.70711 15H16.5C16.7761 15 17 14.7761 17 14.5C17 14.2239 16.7761 14 16.5 14H4.70711L5.85355 12.8536C6.04882 12.6583 6.04882 12.3417 5.85355 12.1464Z" fill="#212121"/>
</svg>
