<?xml version="1.0" encoding="UTF-8"?>
<svg width="24px" height="24px" viewBox="0 0 24 24" version="1.1" xmlns="http://www.w3.org/2000/svg" xmlns:xlink="http://www.w3.org/1999/xlink">
    <!-- Generator: Sketch 59.1 (86144) - https://sketch.com -->
    <title>ic_speaker_24_regular</title>
    <desc>Created with Sketch.</desc>
    <g id="ðŸ”-Product-Icons" stroke="none" stroke-width="1" fill="none" fill-rule="evenodd">
        <g id="ic_speaker_24_regular" fill="#212121">
            <path d="M14.7041458,3.44264148 C14.8951735,3.66835211 15,3.95447492 15,4.25017218 L15,19.7518027 C15,20.4421586 14.4403559,21.0018027 13.75,21.0018027 C13.4542072,21.0018027 13.1679984,20.8969085 12.9422573,20.705769 L7.97512872,16.5 L4.25,16.5 C3.00735931,16.5 2,15.4926407 2,14.25 L2,9.75 C2,8.50735931 3.00735931,7.5 4.25,7.5 L7.97522325,7.5 L12.9424693,3.2960264 C13.4694295,2.85003951 14.2581589,2.91568132 14.7041458,3.44264148 Z M13.5,4.78927499 L8.52477675,9 L4.25,9 C3.83578644,9 3.5,9.33578644 3.5,9.75 L3.5,14.25 C3.5,14.6642136 3.83578644,15 4.25,15 L8.52487128,15 L13.5,19.2125429 L13.5,4.78927499 Z M19.1098018,5.64003732 C19.4635425,5.42453683 19.9250035,5.53660259 20.140504,5.89034319 C21.3770331,7.92008588 22.0014639,9.97007229 22.0014639,12.0305413 C22.0014639,14.0910104 21.3770331,16.1409968 20.140504,18.1707395 C19.9250035,18.5244801 19.4635425,18.6365459 19.1098018,18.4210454 C18.7560612,18.2055449 18.6439955,17.7440838 18.859496,17.3903432 C19.9582521,15.5867525 20.5014639,13.8034056 20.5014639,12.0305413 C20.5014639,10.2576771 19.9582521,8.47433013 18.859496,6.67073949 C18.6439955,6.31699889 18.7560612,5.85553781 19.1098018,5.64003732 Z M17.1035389,8.64036111 C17.4571007,8.42456736 17.9186545,8.53625041 18.1344483,8.88981219 C18.7082504,9.82994369 18.995732,10.8819892 18.995732,12.0305413 C18.995732,13.1790934 18.7082504,14.231139 18.1344483,15.1712705 C17.9186545,15.5248323 17.4571007,15.6365153 17.1035389,15.4207216 C16.7499771,15.2049278 16.6382941,14.743374 16.8540878,14.3898122 C17.2822376,13.6883211 17.495732,12.9070333 17.495732,12.0305413 C17.495732,11.1540494 17.2822376,10.3727616 16.8540878,9.67127049 C16.6382941,9.31770871 16.7499771,8.85615486 17.1035389,8.64036111 Z" id="ðŸŽ¨-Color"></path>
        </g>
    </g>
</svg>