<svg width="16" height="16" viewBox="0 0 16 16" fill="none" xmlns="http://www.w3.org/2000/svg">
<path d="M11.2748 4.536C13.3495 6.40995 13.4315 9.63949 11.4546 11.6164C10.628 12.443 9.57879 12.9115 8.4999 13.0219V14.5C8.4999 14.7762 8.27604 15 7.9999 15C7.72376 15 7.4999 14.7762 7.4999 14.5V13.0218C6.42104 12.9115 5.37189 12.443 4.54525 11.6164C2.56838 9.63949 2.65042 6.40996 4.72512 4.53601L7.16166 2.33523C7.63779 1.90518 8.36211 1.90518 8.83824 2.33523L11.2748 4.536ZM8.49995 7.50074C8.49995 7.2246 8.27609 7.00074 7.99995 7.00074C7.72381 7.00074 7.49995 7.2246 7.49995 7.50074V12.0152C7.83179 12.058 8.16811 12.058 8.49995 12.0152V7.50074Z" fill="#212121"/>
</svg>
