<svg width="20" height="20" viewBox="0 0 20 20" fill="none" xmlns="http://www.w3.org/2000/svg">
<path d="M13.75 3.5C15.5449 3.5 17 4.95507 17 6.75C17 8.54493 15.5449 10 13.75 10H6.25C5.2835 10 4.5 10.7835 4.5 11.75C4.5 12.7165 5.2835 13.5 6.25 13.5H15.4393L15.2197 13.2803C14.9268 12.9874 14.9268 12.5126 15.2197 12.2197C15.5126 11.9268 15.9874 11.9268 16.2803 12.2197L17.7803 13.7197C18.0732 14.0126 18.0732 14.4874 17.7803 14.7803L16.2803 16.2803C15.9874 16.5732 15.5126 16.5732 15.2197 16.2803C14.9268 15.9874 14.9268 15.5126 15.2197 15.2197L15.4393 15H6.25C4.45508 15 3 13.5449 3 11.75C3 9.95507 4.45507 8.5 6.25 8.5H13.75C14.7165 8.5 15.5 7.7165 15.5 6.75C15.5 5.7835 14.7165 5 13.75 5H3.75C3.33579 5 3 4.66421 3 4.25C3 3.83579 3.33579 3.5 3.75 3.5H13.75Z" fill="#212121"/>
</svg>
