<svg width="32" height="32" viewBox="0 0 32 32" fill="none" xmlns="http://www.w3.org/2000/svg">
<path d="M4.17603 2.1638C2.98757 1.56966 1.6705 2.6999 2.07734 3.96478L4.93471 12.8483C5.04929 13.2045 5.35317 13.467 5.72228 13.5285L17.5908 15.5066C17.6943 15.5238 17.7786 15.5655 17.8437 15.6226C19.304 14.6 21.0819 14 23 14C25.6418 14 28.0178 15.1383 29.6642 16.9511C30.2395 16.2493 30.0749 15.1112 29.1704 14.6591L4.17603 2.1638ZM5.72295 18.4709L16.6169 16.6553C14.9995 18.2824 14 20.5245 14 23C14 23.6281 14.0643 24.2412 14.1868 24.8331L4.17603 29.8377C2.98758 30.4319 1.67049 29.3016 2.07734 28.0367L4.93539 19.1511C5.04997 18.7949 5.35384 18.5324 5.72295 18.4709ZM23 30.5C18.8579 30.5 15.5 27.1421 15.5 23C15.5 18.8579 18.8579 15.5 23 15.5C27.1421 15.5 30.5 18.8579 30.5 23C30.5 27.1421 27.1421 30.5 23 30.5ZM22.75 18C22.3358 18 22 18.3358 22 18.75V23.25C22 23.6642 22.3358 24 22.75 24H26.25C26.6642 24 27 23.6642 27 23.25C27 22.8358 26.6642 22.5 26.25 22.5H23.5V18.75C23.5 18.3358 23.1642 18 22.75 18Z" fill="#212121"/>
</svg>
