<svg width="24" height="24" viewBox="0 0 24 24" fill="none" xmlns="http://www.w3.org/2000/svg">
<path d="M18 19.75C18 20.9409 17.0748 21.9156 15.904 21.9948L15.75 22H8.25C7.05914 22 6.08436 21.0748 6.00519 19.904L6 19.75V4.25C6 3.05914 6.92516 2.08436 8.09595 2.00519L8.25 2H15.75C16.9409 2 17.9156 2.92516 17.9948 4.09595L18 4.25V19.75ZM19 5H19.75C20.9409 5 21.9156 5.92516 21.9948 7.09595L22 7.25V16.75C22 17.9409 21.0748 18.9156 19.904 18.9948L19.75 19H19V5ZM5 19H4.25C3.05914 19 2.08436 18.0748 2.00519 16.904L2 16.75V7.25C2 6.05914 2.92516 5.08436 4.09595 5.00519L4.25 5H5V19Z" fill="#212121"/>
</svg>
