<svg width="32" height="32" viewBox="0 0 32 32" fill="none" xmlns="http://www.w3.org/2000/svg">
<path d="M16 14C19.2559 14 22.3003 13.4042 24.6058 12.3563C25.429 11.9821 26.2738 11.4913 27 10.8764V25C27 27.7614 22.0751 30 16 30C9.92487 30 5 27.7614 5 25V10.8764C5.72619 11.4913 6.57104 11.9821 7.39422 12.3563C9.69966 13.4042 12.7441 14 16 14Z" fill="#212121"/>
<path d="M5 7C5 4.23858 9.92487 2 16 2C22.0751 2 27 4.23858 27 7C27 9.76142 22.0751 12 16 12C9.92487 12 5 9.76142 5 7Z" fill="#212121"/>
</svg>
