<svg width="48" height="48" viewBox="0 0 48 48" fill="none" xmlns="http://www.w3.org/2000/svg">
<path d="M8.25 5C5.90279 5 4 6.90279 4 9.25V19H11.5331L14.6891 10.1575C15.1575 8.84537 16.41 7.97769 17.8031 8.00044C19.1961 8.02318 20.4197 8.9313 20.8449 10.258L24.563 21.8584L28.0549 14.3756C28.5982 13.2115 29.7762 12.4766 31.0606 12.5006C32.345 12.5245 33.4948 13.3028 33.9943 14.4864L35.8991 19H44V9.25C44 6.90279 42.0972 5 39.75 5H8.25ZM4 32.75V25.5H13.8239C15.1976 25.5 16.423 24.6363 16.8848 23.3425L17.5845 21.3819L20.9051 31.742C21.3133 33.0155 22.4599 33.909 23.7946 33.9935C25.1293 34.078 26.3795 33.3363 26.9451 32.1244L30.8563 23.7432C31.4109 24.816 32.5214 25.5 33.7431 25.5H44V32.75C44 35.0972 42.0972 37 39.75 37H31V40.5H33.75C34.4404 40.5 35 41.0596 35 41.75C35 42.4404 34.4404 43 33.75 43H14.25C13.5596 43 13 42.4404 13 41.75C13 41.0596 13.5596 40.5 14.25 40.5H17V37H8.25C5.90279 37 4 35.0972 4 32.75ZM28.5 37H19.5V40.5H28.5V37ZM18.9404 10.8685C18.7768 10.3582 18.3062 10.0089 17.7704 10.0002C17.2346 9.99142 16.7529 10.3251 16.5727 10.8298L12.9428 21H5.25C4.55964 21 4 21.5596 4 22.25C4 22.9404 4.55964 23.5 5.25 23.5H13.8239C14.3523 23.5 14.8236 23.1678 15.0012 22.6702L17.6864 15.1469L22.8096 31.1315C22.9666 31.6214 23.4077 31.965 23.921 31.9975C24.4344 32.03 24.9152 31.7447 25.1327 31.2786L30.9426 18.8289L32.5914 22.736C32.7868 23.199 33.2405 23.5 33.7431 23.5H42.75C43.4404 23.5 44 22.9404 44 22.25C44 21.5596 43.4404 21 42.75 21H34.5723L32.1516 15.264C31.9595 14.8088 31.5173 14.5094 31.0233 14.5002C30.5293 14.491 30.0762 14.7737 29.8673 15.2214L24.2165 27.3301L18.9404 10.8685Z" fill="#212121"/>
</svg>
