<svg width="20" height="20" viewBox="0 0 20 20" fill="none" xmlns="http://www.w3.org/2000/svg">
<path d="M2.5 3C2.22386 3 2 3.22386 2 3.5V8.5C2 8.77614 2.22386 9 2.5 9H4.5C4.77614 9 5 8.77614 5 8.5C5 8.22386 4.77614 8 4.5 8H3V4H4.5C4.77614 4 5 3.77614 5 3.5C5 3.22386 4.77614 3 4.5 3H2.5ZM2.5 11C2.22386 11 2 11.2239 2 11.5V16.5C2 16.7761 2.22386 17 2.5 17H4.5C4.77614 17 5 16.7761 5 16.5C5 16.2239 4.77614 16 4.5 16H3V12H4.5C4.77614 12 5 11.7761 5 11.5C5 11.2239 4.77614 11 4.5 11H2.5ZM6 4.5C6 4.22386 6.22386 4 6.5 4H17.5C17.7761 4 18 4.22386 18 4.5C18 4.77614 17.7761 5 17.5 5H6.5C6.22386 5 6 4.77614 6 4.5ZM6.5 12C6.22386 12 6 12.2239 6 12.5C6 12.7761 6.22386 13 6.5 13H17.5C17.7761 13 18 12.7761 18 12.5C18 12.2239 17.7761 12 17.5 12H6.5ZM6 7.5C6 7.22386 6.22386 7 6.5 7H17.5C17.7761 7 18 7.22386 18 7.5C18 7.77614 17.7761 8 17.5 8H6.5C6.22386 8 6 7.77614 6 7.5ZM6.5 15C6.22386 15 6 15.2239 6 15.5C6 15.7761 6.22386 16 6.5 16H17.5C17.7761 16 18 15.7761 18 15.5C18 15.2239 17.7761 15 17.5 15H6.5Z" fill="#212121"/>
</svg>
