<svg width="16" height="16" viewBox="0 0 16 16" fill="none" xmlns="http://www.w3.org/2000/svg">
<path d="M12 1.5C12 1.22386 11.7761 1 11.5 1C11.2239 1 11 1.22386 11 1.5V13.2929L9.85355 12.1464C9.65829 11.9512 9.34171 11.9512 9.14645 12.1464C8.95118 12.3417 8.95118 12.6583 9.14645 12.8536L11.1464 14.8536C11.3417 15.0488 11.6583 15.0488 11.8536 14.8536L13.8536 12.8536C14.0488 12.6583 14.0488 12.3417 13.8536 12.1464C13.6583 11.9512 13.3417 11.9512 13.1464 12.1464L12 13.2929V1.5ZM5.46437 9.31431L7.46437 14.3143C7.56693 14.5707 7.44222 14.8617 7.18583 14.9642C6.92944 15.0668 6.63845 14.9421 6.53589 14.6857L6.26159 13.9999L3.7389 13.9994L3.46437 14.6857C3.36181 14.9421 3.07083 15.0668 2.81444 14.9642C2.55805 14.8617 2.43334 14.5707 2.53589 14.3143L4.53589 9.31431C4.61183 9.12448 4.79568 9 5.00013 9C5.20459 9 5.38844 9.12448 5.46437 9.31431ZM5.86156 12.9999L5.00013 10.8463L4.13886 12.9995L5.86156 12.9999ZM4.32554 3.84018L2.53589 8.31431C2.43334 8.5707 2.55805 8.86168 2.81444 8.96424C3.07083 9.0668 3.36181 8.94209 3.46437 8.6857L3.7389 7.99938L6.26159 7.99995L6.53589 8.6857C6.63845 8.94209 6.92944 9.0668 7.18583 8.96424C7.44222 8.86168 7.56693 8.5707 7.46437 8.31431L5.67468 3.84007C6.16424 3.59311 6.5 3.08576 6.5 2.5C6.5 1.67157 5.82843 1 5 1C4.17157 1 3.5 1.67157 3.5 2.5C3.5 3.08585 3.83586 3.59326 4.32554 3.84018ZM5.00013 4.84629L5.86156 6.99986L4.13886 6.99947L5.00013 4.84629ZM4.5 2.5C4.5 2.22386 4.72386 2 5 2C5.27614 2 5.5 2.22386 5.5 2.5C5.5 2.77614 5.27614 3 5 3C4.72386 3 4.5 2.77614 4.5 2.5Z" fill="#212121"/>
</svg>
