<svg width="20" height="20" viewBox="0 0 20 20" fill="none" xmlns="http://www.w3.org/2000/svg">
<path d="M13.5 2C13.7761 2 14 2.22386 14 2.5V16.2929L16.1464 14.1464C16.3417 13.9512 16.6583 13.9512 16.8536 14.1464C17.0488 14.3417 17.0488 14.6583 16.8536 14.8536L13.8536 17.8536C13.6583 18.0488 13.3417 18.0488 13.1464 17.8536L10.1464 14.8536C9.95118 14.6583 9.95118 14.3417 10.1464 14.1464C10.3417 13.9512 10.6583 13.9512 10.8536 14.1464L13 16.2929V2.5C13 2.22386 13.2239 2 13.5 2ZM6.00013 11C5.79828 11 5.61623 11.1214 5.53859 11.3077L3.03859 17.3077C2.93238 17.5626 3.05292 17.8553 3.30782 17.9615C3.56272 18.0677 3.85546 17.9472 3.96167 17.6923L4.45915 16.4983C4.47267 16.4994 4.48633 16.5 4.50013 16.5H7.50013C7.51393 16.5 7.52759 16.4994 7.54111 16.4983L8.03859 17.6923C8.1448 17.9472 8.43754 18.0677 8.69244 17.9615C8.94734 17.8553 9.06788 17.5626 8.96167 17.3077L6.46167 11.3077C6.38403 11.1214 6.20198 11 6.00013 11ZM6.00013 12.8L7.12513 15.5H4.87513L6.00013 12.8ZM5.31826 4.83648L3.03859 10.3077C2.93238 10.5626 3.05292 10.8553 3.30782 10.9615C3.56272 11.0677 3.85546 10.9472 3.96167 10.6923L4.45915 9.49834C4.47267 9.49944 4.48633 9.5 4.50013 9.5H7.50013C7.51393 9.5 7.52759 9.49944 7.54111 9.49834L8.03859 10.6923C8.1448 10.9472 8.43754 11.0677 8.69244 10.9615C8.94734 10.8553 9.06788 10.5626 8.96167 10.3077L6.68195 4.83637C7.16756 4.58807 7.5 4.08286 7.5 3.5C7.5 2.67157 6.82843 2 6 2C5.17157 2 4.5 2.67157 4.5 3.5C4.5 4.08294 4.83254 4.58822 5.31826 4.83648ZM6.00013 5.8L7.12513 8.5H4.87513L6.00013 5.8ZM5.5 3.5C5.5 3.22386 5.72386 3 6 3C6.27614 3 6.5 3.22386 6.5 3.5C6.5 3.77614 6.27614 4 6 4C5.72386 4 5.5 3.77614 5.5 3.5Z" fill="#212121"/>
</svg>
