<svg width="32" height="32" viewBox="0 0 32 32" fill="none" xmlns="http://www.w3.org/2000/svg">
<path d="M6.5 7.11151V7C6.5 4.79086 8.29086 3 10.5 3H22.5C26.0899 3 29 5.91015 29 9.5V17C29 17.5765 28.878 18.1245 28.6585 18.6196C28.0583 18.3225 27.4011 18.1228 26.7079 18.0413C26.8932 17.738 27 17.3815 27 17V9.5C27 7.01472 24.9853 5 22.5 5H10.5C9.39543 5 8.5 5.89543 8.5 7H20.5C22.9853 7 25 9.01472 25 11.5V18H23V11.5C23 10.1193 21.8807 9 20.5 9H7.5C6.11929 9 5 10.1193 5 11.5V22C5 23.1046 5.89543 24 7 24H9C9.55228 24 10 24.4477 10 25V27.4319L13.8617 24.2302C13.9057 24.1937 13.9525 24.1613 14.0014 24.1331C14.0183 24.9094 14.1827 25.6493 14.4675 26.3259L10.4574 29.6507C9.47971 30.4613 8 29.7659 8 28.496V26H7C4.79086 26 3 24.2091 3 22V11.5C3 9.35841 4.49601 7.56624 6.5 7.11151ZM21.5 20.5C21.5 19.9477 21.0523 19.5 20.5 19.5H20C17.5147 19.5 15.5 21.5147 15.5 24C15.5 26.4853 17.5147 28.5 20 28.5H20.5C21.0523 28.5 21.5 28.0523 21.5 27.5C21.5 26.9477 21.0523 26.5 20.5 26.5H20C18.6193 26.5 17.5 25.3807 17.5 24C17.5 22.6193 18.6193 21.5 20 21.5H20.5C21.0523 21.5 21.5 21.0523 21.5 20.5ZM25.5 19.5C24.9477 19.5 24.5 19.9477 24.5 20.5C24.5 21.0523 24.9477 21.5 25.5 21.5H26C27.3807 21.5 28.5 22.6193 28.5 24C28.5 25.3807 27.3807 26.5 26 26.5H25.5C24.9477 26.5 24.5 26.9477 24.5 27.5C24.5 28.0523 24.9477 28.5 25.5 28.5H26C28.4853 28.5 30.5 26.4853 30.5 24C30.5 21.5147 28.4853 19.5 26 19.5H25.5ZM20.5 23C19.9477 23 19.5 23.4477 19.5 24C19.5 24.5523 19.9477 25 20.5 25H25.5C26.0523 25 26.5 24.5523 26.5 24C26.5 23.4477 26.0523 23 25.5 23H20.5Z" fill="#212121"/>
</svg>
