<svg width="20" height="20" viewBox="0 0 20 20" fill="none" xmlns="http://www.w3.org/2000/svg">
<path d="M17 7.5C17 5.87433 15.8916 4.50753 14.3894 4.11401C14.217 4.06886 14.0395 4.03652 13.8578 4.01807C13.7401 4.00612 13.6208 4 13.5 4H4.49997C4.95607 3.39278 5.68203 3 6.49994 3H13.4999C15.9852 3 17.9999 5.01472 17.9999 7.5V11.3368C17.6891 11.1891 17.353 11.0859 17 11.0354V7.5ZM9.05691 16H9.33681C9.12085 15.5454 9 15.0368 9 14.5C9 12.567 10.567 11 12.5 11H16V7.5C16 6.11929 14.8807 5 13.5 5H4.5C3.11929 5 2 6.11929 2 7.5V13.5C2 14.8807 3.11929 16 4.5 16H5V16.9953C5 17.8137 5.9293 18.2856 6.59002 17.8027L9.05691 16ZM12.5 12C11.1193 12 10 13.1193 10 14.5C10 15.8807 11.1193 17 12.5 17H13C13.2761 17 13.5 16.7761 13.5 16.5C13.5 16.2239 13.2761 16 13 16H12.5C11.6716 16 11 15.3284 11 14.5C11 13.6716 11.6716 13 12.5 13H13C13.2761 13 13.5 12.7761 13.5 12.5C13.5 12.2239 13.2761 12 13 12H12.5ZM16 12C15.7239 12 15.5 12.2239 15.5 12.5C15.5 12.7761 15.7239 13 16 13H16.5C17.3284 13 18 13.6716 18 14.5C18 15.3284 17.3284 16 16.5 16H16C15.7239 16 15.5 16.2239 15.5 16.5C15.5 16.7761 15.7239 17 16 17H16.5C17.8807 17 19 15.8807 19 14.5C19 13.1193 17.8807 12 16.5 12H16ZM12 14.5C12 14.2239 12.2239 14 12.5 14H16.5C16.7761 14 17 14.2239 17 14.5C17 14.7761 16.7761 15 16.5 15H12.5C12.2239 15 12 14.7761 12 14.5Z" fill="#212121"/>
</svg>
