<svg width="20" height="20" viewBox="0 0 20 20" fill="none" xmlns="http://www.w3.org/2000/svg">
<path d="M11.0607 16.4142C11.4693 16.3475 11.855 16.6247 11.922 17.0334C11.9887 17.4419 11.7115 17.8277 11.3029 17.8947C10.4541 18.0338 9.54623 18.0338 8.69741 17.8947C8.2888 17.8277 8.01155 17.4419 8.07827 17.0334C8.14526 16.6247 8.53091 16.3473 8.9396 16.4142C9.62871 16.5272 10.3716 16.5272 11.0607 16.4142ZM3.66909 13.6144C4.00558 13.3729 4.47442 13.4498 4.71597 13.7863C5.13031 14.3634 5.63688 14.87 6.21401 15.2843C6.55051 15.5259 6.62744 15.9947 6.38589 16.3312C6.1443 16.6675 5.67544 16.7446 5.33901 16.5031C4.62923 15.9935 4.00674 15.3701 3.49722 14.6603C3.25584 14.3239 3.33279 13.856 3.66909 13.6144ZM15.2843 13.7863C15.5259 13.4498 15.9947 13.3729 16.3312 13.6144C16.6673 13.856 16.7443 14.3239 16.5031 14.6603C15.9935 15.3702 15.3702 15.9935 14.6603 16.5031C14.3239 16.7443 13.856 16.6673 13.6144 16.3312C13.3729 15.9947 13.4498 15.5259 13.7863 15.2843C14.3634 14.87 14.87 14.3634 15.2843 13.7863ZM10.0001 12.5001L10.1027 12.505C10.6067 12.5564 11.0001 12.9825 11.0001 13.5001C11.0001 14.0523 10.5523 14.5001 10.0001 14.5001C9.44792 14.5001 9.00023 14.0524 9.00015 13.5001C9.00015 12.9479 9.44786 12.5001 10.0001 12.5001ZM2.10562 8.69741C2.1726 8.28871 2.55825 8.01139 2.96694 8.07827C3.37563 8.14526 3.65294 8.53093 3.58608 8.9396C3.47314 9.62871 3.47314 10.3716 3.58608 11.0607C3.65278 11.4693 3.37554 11.8551 2.96694 11.922C2.55828 11.9889 2.17262 11.7115 2.10562 11.3029C1.96649 10.4541 1.96652 9.54624 2.10562 8.69741ZM17.0333 8.07827C17.4419 8.01155 17.8277 8.2888 17.8947 8.69741C18.0338 9.54623 18.0338 10.4541 17.8947 11.3029C17.8277 11.7115 17.4419 11.9887 17.0333 11.922C16.6247 11.855 16.3475 11.4693 16.4142 11.0607C16.5272 10.3716 16.5272 9.62871 16.4142 8.9396C16.3473 8.53091 16.6247 8.14526 17.0333 8.07827ZM10.0001 5.75015C10.4143 5.75023 10.7501 6.08599 10.7501 6.50015V11.0001C10.7501 11.4142 10.4142 11.7501 10.0001 11.7501C9.58599 11.7501 9.25023 11.4143 9.25015 11.0001V6.50015C9.25015 6.08593 9.58593 5.75015 10.0001 5.75015ZM5.33901 3.49722C5.67549 3.25568 6.14433 3.33263 6.38589 3.66909C6.62744 4.00558 6.55051 4.47442 6.21401 4.71597C5.63687 5.13031 5.13031 5.63687 4.71597 6.21401C4.47442 6.55051 4.00558 6.62744 3.66909 6.38589C3.33263 6.14433 3.25568 5.67549 3.49722 5.33901C4.00667 4.62939 4.62939 4.00667 5.33901 3.49722ZM13.6144 3.66909C13.856 3.33279 14.3239 3.25584 14.6603 3.49722C15.3701 4.00674 15.9935 4.62923 16.5031 5.33901C16.7446 5.67544 16.6675 6.1443 16.3312 6.38589C15.9947 6.62744 15.5259 6.55051 15.2843 6.21401C14.87 5.63688 14.3634 5.13031 13.7863 4.71597C13.4498 4.47442 13.3729 4.00558 13.6144 3.66909ZM8.69741 2.10562C9.54624 1.96652 10.4541 1.96649 11.3029 2.10562C11.7115 2.17262 11.9889 2.55828 11.922 2.96694C11.8551 3.37554 11.4693 3.65278 11.0607 3.58608C10.3716 3.47314 9.62871 3.47314 8.9396 3.58608C8.53092 3.65294 8.14526 3.37563 8.07827 2.96694C8.01139 2.55825 8.28871 2.1726 8.69741 2.10562Z" fill="#212121"/>
</svg>
