<svg width="16" height="16" viewBox="0 0 16 16" fill="none" xmlns="http://www.w3.org/2000/svg">
<path d="M8 3.5C10.4853 3.5 12.5 5.51472 12.5 8C12.5 10.4853 10.4853 12.5 8 12.5C5.51472 12.5 3.5 10.4853 3.5 8C3.5 7.58579 3.16421 7.25 2.75 7.25C2.33579 7.25 2 7.58579 2 8C2 11.3137 4.68629 14 8 14C11.3137 14 14 11.3137 14 8C14 4.68629 11.3137 2 8 2C6.69383 2 5.48486 2.41784 4.5 3.12618V2.75C4.5 2.33579 4.16421 2 3.75 2C3.33579 2 3 2.33579 3 2.75V5.25C3 5.66421 3.33579 6 3.75 6H5.25C5.66421 6 6 5.66421 6 5.25C6 4.83579 5.66421 4.5 5.25 4.5H5.17122C5.94449 3.87406 6.92833 3.5 8 3.5ZM8.5 5.75C8.5 5.33579 8.16421 5 7.75 5C7.33579 5 7 5.33579 7 5.75V8.25C7 8.66421 7.33579 9 7.75 9H9.25C9.66421 9 10 8.66421 10 8.25C10 7.83579 9.66421 7.5 9.25 7.5H8.5V5.75Z" fill="#212121"/>
</svg>
