<svg width="20" height="20" viewBox="0 0 20 20" fill="none" xmlns="http://www.w3.org/2000/svg">
<path d="M8.86112 2.52814C9.45857 1.82396 10.5411 1.82395 11.1386 2.52811L17.7596 10.3314C18.3118 10.9823 17.8516 11.9845 17.0004 11.9845H13.9905V16.9974C13.9905 17.5511 13.5438 18 12.9928 18H7.00688C6.45589 18 6.00922 17.5511 6.00922 16.9974V11.9845H2.99958C2.14845 11.9845 1.68819 10.9823 2.24042 10.3314L8.86112 2.52814ZM10.3794 3.17862C10.1803 2.9439 9.81943 2.94391 9.62028 3.17863L2.99958 10.9819H6.50805C6.78354 10.9819 7.00688 11.2063 7.00688 11.4832V16.9974H12.9928V11.4832C12.9928 11.2063 13.2161 10.9819 13.4916 10.9819H17.0004L10.3794 3.17862Z" fill="#212121"/>
</svg>
