<svg width="20" height="20" viewBox="0 0 20 20" fill="none" xmlns="http://www.w3.org/2000/svg">
<path d="M10.0006 4C9.56596 4 9.19487 4.27755 9.05736 4.66662C8.96533 4.92698 8.67967 5.06344 8.41931 4.97142C8.15896 4.8794 8.02249 4.59373 8.11452 4.33338C8.38884 3.55726 9.12899 3 10.0006 3C11.1052 3 12.0006 3.89543 12.0006 5C12.0006 5.51752 11.8034 5.99014 11.4808 6.34496C11.3856 6.44973 11.2954 6.54364 11.2097 6.63302C11.0526 6.79662 10.9102 6.94501 10.7778 7.11699C10.5858 7.36647 10.5006 7.56627 10.5006 7.75002C10.5006 8.027 10.6532 8.28143 10.8976 8.41179L17.0736 11.7059C17.6438 12.01 18 12.6037 18 13.25C18 14.2165 17.2165 15 16.25 15H3.75C2.7835 15 2 14.2165 2 13.25C2 12.6037 2.35621 12.01 2.92647 11.7059L8.26471 8.85882C8.50836 8.72887 8.81123 8.82105 8.94118 9.06471C9.07113 9.30836 8.97895 9.61123 8.73529 9.74118L3.39706 12.5882C3.15266 12.7186 3 12.973 3 13.25C3 13.6642 3.33579 14 3.75 14H16.25C16.6642 14 17 13.6642 17 13.25C17 12.973 16.8473 12.7186 16.603 12.5882L10.427 9.29412C9.85678 8.98997 9.50058 8.3963 9.50058 7.75002C9.50058 7.2434 9.73835 6.82793 9.98536 6.50703C10.15 6.29315 10.36 6.07358 10.538 5.88758C10.6133 5.80882 10.6829 5.73607 10.7409 5.67232C10.9026 5.49436 11.0006 5.2592 11.0006 5C11.0006 4.44772 10.5529 4 10.0006 4Z" fill="#212121"/>
</svg>
