<svg width="12" height="12" viewBox="0 0 12 12" fill="none" xmlns="http://www.w3.org/2000/svg">
<path d="M5.99903 3C5.81459 3 5.65282 3.09961 5.56562 3.25036C5.42734 3.48939 5.12148 3.57107 4.88245 3.4328C4.64342 3.29453 4.56174 2.98867 4.70001 2.74964C4.95861 2.30259 5.44319 2 5.99903 2C6.82746 2 7.49903 2.67157 7.49903 3.5C7.49903 3.91326 7.33125 4.2883 7.06127 4.55908C7.01682 4.60366 6.97484 4.64486 6.9351 4.68388C6.81628 4.8005 6.7174 4.89755 6.63197 5.00684C6.52434 5.14455 6.49903 5.22995 6.49903 5.28692C6.49903 5.39113 6.55553 5.48715 6.64663 5.53775L10.338 7.58805C10.7466 7.815 11 8.24567 11 8.71308C11 9.42382 10.4238 10 9.71308 10H2.28724C1.57632 10 1 9.42368 1 8.71276C1 8.24567 1.25303 7.81523 1.66114 7.58805L4.25681 6.14313C4.49809 6.00882 4.80256 6.09553 4.93687 6.33681C5.07118 6.57808 4.98447 6.88256 4.74319 7.01687L2.14753 8.46179C2.05646 8.51249 2 8.60854 2 8.71276C2 8.8714 2.1286 9 2.28724 9H9.71308C9.87154 9 10 8.87154 10 8.71308C10 8.60887 9.9435 8.51285 9.8524 8.46225L6.16107 6.41195C5.75246 6.185 5.49903 5.75433 5.49903 5.28692C5.49903 4.90929 5.67437 4.60814 5.84411 4.391C5.97446 4.22423 6.13842 4.06377 6.26516 3.93974C6.29725 3.90834 6.32695 3.87927 6.35311 3.85302C6.44383 3.76204 6.49903 3.63795 6.49903 3.5C6.49903 3.22386 6.27517 3 5.99903 3Z" fill="#212121"/>
</svg>
