<svg width="28" height="28" viewBox="0 0 28 28" fill="none" xmlns="http://www.w3.org/2000/svg">
<path d="M14 4C10.4677 4 7.5468 6.61603 7.06858 10.0167C4.23266 10.2367 2 12.6076 2 15.5C2 18.5376 4.46243 21 7.5 21H13V16.9191C13 15.7653 13.6618 14.7137 14.702 14.2144L18.702 12.2948C19.5225 11.9011 20.4775 11.9011 21.298 12.2948L25.298 14.2144C25.5284 14.325 25.7402 14.4627 25.9304 14.6225C25.5325 12.141 23.4745 10.214 20.9314 10.0167C20.4532 6.61603 17.5323 4 14 4ZM26 22.0804V16.9191C26 16.1499 25.5588 15.4488 24.8653 15.116L20.8653 13.1964C20.3183 12.9339 19.6817 12.9339 19.1347 13.1964L15.1347 15.116C14.4412 15.4488 14 16.1499 14 16.9191V22.0804C14 22.8496 14.4412 23.5507 15.1347 23.8835L19.1347 25.8031C19.6817 26.0656 20.3183 26.0656 20.8653 25.8031L24.8653 23.8835C25.5588 23.5507 26 22.8496 26 22.0804ZM16.0492 16.7837C16.1687 16.5347 16.4674 16.4297 16.7163 16.5492L20 18.1251L23.2837 16.5492C23.5326 16.4297 23.8313 16.5347 23.9508 16.7837C24.0703 17.0326 23.9653 17.3313 23.7163 17.4508L20.5 18.9943V23C20.5 23.2761 20.2761 23.5 20 23.5C19.7239 23.5 19.5 23.2761 19.5 23V18.9943L16.2837 17.4508C16.0347 17.3313 15.9297 17.0326 16.0492 16.7837Z" fill="#212121"/>
</svg>
