<svg width="20" height="20" viewBox="0 0 20 20" fill="none" xmlns="http://www.w3.org/2000/svg">
<path d="M15.9867 3.01551C15.8908 2.42994 15.2919 2.04123 14.7017 2.22566L7.70173 4.41316C7.28425 4.54362 7 4.93026 7 5.36764V13.4999C6.58217 13.186 6.0628 13 5.5 13C4.11929 13 3 14.1193 3 15.5C3 16.8808 4.11929 18 5.5 18C6.88071 18 8 16.8808 8 15.5V8.36769L15 6.18019V9.02248C15.3434 9.05343 15.6777 9.11594 16 9.20709V3.18019C16 3.12387 15.9954 3.06885 15.9867 3.01551ZM19 14.5C19 16.9853 16.9853 19 14.5 19C12.0147 19 10 16.9853 10 14.5C10 12.0147 12.0147 10 14.5 10C16.9853 10 19 12.0147 19 14.5ZM16.7367 14.0643L13.7426 12.4142C13.4094 12.2305 13.0013 12.4716 13.0013 12.8521L13.0013 16.1522C13.0013 16.5326 13.4093 16.7737 13.7426 16.5901L16.7366 14.9401C17.0815 14.75 17.0816 14.2544 16.7367 14.0643Z" fill="#212121"/>
</svg>
