<svg width="16" height="16" viewBox="0 0 16 16" fill="none" xmlns="http://www.w3.org/2000/svg">
<path d="M4.43934 12.5606C4.72064 12.8419 5.10218 12.9999 5.5 12.9999C5.75753 12.998 6.01038 12.9309 6.235 12.8049L14.235 8.3049C14.4661 8.17414 14.6583 7.98439 14.7921 7.75503C14.9258 7.52566 14.9963 7.26491 14.9963 6.99939C14.9963 6.73388 14.9258 6.47313 14.7921 6.24376C14.6583 6.0144 14.4661 5.82465 14.235 5.69389L6.225 1.18789C5.99595 1.06759 5.73997 1.00777 5.48133 1.01413C5.22269 1.02049 4.96996 1.0928 4.7471 1.22421C4.52423 1.35562 4.33863 1.54178 4.20789 1.76503C4.07714 1.98829 4.00558 2.24123 4 2.49989V11.4999C4 11.8977 4.15804 12.2793 4.43934 12.5606ZM5.14645 2.14634C5.24021 2.05257 5.36739 1.99989 5.5 1.99989C5.58579 2.0009 5.66999 2.02323 5.745 2.06489L13.745 6.5649C13.8219 6.6085 13.886 6.67174 13.9305 6.74816C13.975 6.82458 13.9985 6.91145 13.9985 6.9999C13.9985 7.08834 13.975 7.17521 13.9305 7.25163C13.886 7.32805 13.8219 7.39129 13.745 7.4349L5.755 11.9289C5.67964 11.9766 5.59272 12.0029 5.50355 12.0051C5.41438 12.0072 5.32631 11.985 5.24876 11.941C5.17121 11.8969 5.10709 11.8326 5.06328 11.7549C5.01946 11.6772 4.99759 11.5891 5 11.4999V2.49989C5 2.36729 5.05268 2.24011 5.14645 2.14634ZM11.76 10.8399L12.98 10.1599C12.992 10.2427 12.9987 10.3262 13 10.4099C12.9997 10.6758 12.9293 10.9369 12.7958 11.1669C12.6624 11.3969 12.4707 11.5877 12.24 11.7199L7.16 14.5799C6.64826 14.8507 6.07898 14.9948 5.5 14.9999C5.19188 15.0023 4.88513 14.9585 4.59 14.8699C3.98312 14.7155 3.43205 14.3932 3 13.9399C2.35803 13.2902 1.99862 12.4133 2 11.4999V5.9099C2.00252 5.60325 2.10003 5.30492 2.27912 5.05599C2.45821 4.80706 2.71006 4.61976 3 4.5199V11.4999C3.00429 11.9322 3.12001 12.356 3.33598 12.7305C3.55195 13.1049 3.86087 13.4174 4.23287 13.6375C4.60487 13.8577 5.02738 13.9782 5.45957 13.9874C5.89175 13.9966 6.319 13.8941 6.7 13.6899L11.75 10.8499C11.7527 10.8499 11.7552 10.8488 11.7571 10.847C11.759 10.8451 11.76 10.8426 11.76 10.8399Z" fill="#212121"/>
</svg>
