<svg width="20" height="20" viewBox="0 0 20 20" fill="none" xmlns="http://www.w3.org/2000/svg">
<path d="M13.4939 3.25007C13.8093 3.25448 14.0882 3.45572 14.1918 3.75361L17.844 14.2536C17.98 14.6448 17.7732 15.0723 17.382 15.2084C16.9908 15.3445 16.5633 15.1376 16.4272 14.7464L15.6459 12.5L11.0603 12.5L10.2004 14.7661C10.0535 15.1533 9.62042 15.3482 9.23315 15.2012C8.84588 15.0543 8.65106 14.6212 8.79801 14.2339L12.7822 3.73393C12.8941 3.43904 13.1785 3.24567 13.4939 3.25007ZM11.6295 11L15.1241 11L13.4528 6.19485L11.6295 11ZM4.90301 8.93701C4.44457 8.95466 4.05355 9.06145 3.83457 9.17094C3.46409 9.35618 3.01359 9.20601 2.82834 8.83553C2.6431 8.46504 2.79327 8.01454 3.16375 7.8293C3.61145 7.60545 4.22043 7.46218 4.84532 7.43812C5.47425 7.41392 6.19144 7.50765 6.83464 7.82933C8.25499 8.53968 8.25076 9.95429 8.24925 10.4565L8.24917 10.5V14.4998C8.24917 14.914 7.91338 15.2498 7.49917 15.2498C7.10391 15.2498 6.78007 14.9441 6.75125 14.5562C5.87987 15.0944 4.86014 15.4068 3.80582 15.1252C1.72904 14.5706 1.00475 11.7613 3.08253 10.3763C3.857 9.86004 4.78519 9.72415 5.60871 9.76586C5.9879 9.78506 6.36226 9.8426 6.71386 9.928C6.65873 9.61712 6.51849 9.34835 6.16369 9.1709C5.80689 8.99246 5.35741 8.91952 4.90301 8.93701ZM6.74917 11.4993C6.39498 11.3773 5.97007 11.2861 5.53284 11.2639C4.90405 11.2321 4.33175 11.3463 3.91451 11.6244C2.99118 12.2399 3.26914 13.4293 4.19281 13.676C4.94383 13.8765 5.86103 13.4926 6.74917 12.6799V11.4993Z" fill="#212121"/>
</svg>
