<?xml version="1.0" encoding="UTF-8"?>
<svg width="24px" height="24px" viewBox="0 0 24 24" version="1.1" xmlns="http://www.w3.org/2000/svg" xmlns:xlink="http://www.w3.org/1999/xlink">
    <!-- Generator: Sketch 58 (84663) - https://sketch.com -->
    <title>ic_full_screen_24_outlined</title>
    <desc>Created with Sketch.</desc>
    <g id="ðŸ”-Product-Icons" stroke="none" stroke-width="1" fill="none" fill-rule="evenodd">
        <g id="ic_full_screen_24_outlined" fill="#212121">
            <path d="M20.9996358,3.75129623 L20.9996358,11.2551867 C20.9996358,11.6694002 20.6638494,12.0051867 20.2496358,12.0051867 C19.86994,12.0051867 19.5561448,11.7230328 19.5064824,11.3569572 L19.4996358,11.2551867 L19.499109,5.55929623 L5.559109,19.5042962 L11.2496358,19.5051867 C11.6293316,19.5051867 11.9431268,19.7873406 11.9927892,20.1534161 L11.9996358,20.2551867 C11.9996358,20.6694002 11.6638494,21.0051867 11.2496358,21.0051867 L11.2496358,21.0051867 L3.748109,21.0051867 C3.6678176,21.0051867 3.59047304,20.9925698 3.51794976,20.9692104 C3.51421745,20.9667385 3.50951775,20.9651753 3.50483083,20.9635644 C3.47273607,20.9537975 3.44261545,20.941126 3.41356776,20.9266251 C3.40950394,20.9232288 3.40418465,20.9204995 3.39889178,20.9177025 C3.16004305,20.7926616 2.998109,20.542835 2.998109,20.2551867 L3.00194564,20.3187599 C3.00108999,20.3087804 3.00043347,20.298787 2.99997607,20.2887861 L2.998109,20.2551867 L2.998109,12.7512962 C2.998109,12.3370827 3.33389544,12.0012962 3.748109,12.0012962 C4.16232256,12.0012962 4.498109,12.3370827 4.498109,12.7512962 L4.498109,12.7512962 L4.498109,18.4432962 L18.438109,4.50029623 L12.748109,4.50129623 C12.3684132,4.50129623 12.054618,4.21914235 12.0049556,3.85306678 L11.998109,3.75129623 C11.998109,3.37160046 12.2802629,3.05780527 12.6463384,3.00814284 L12.748109,3.00129623 L20.3018618,3.00180934 C20.3139185,3.00264583 20.3259589,3.00377237 20.3379715,3.00518895 C20.3491582,3.00775137 20.3605728,3.00935505 20.3719019,3.01121258 C20.3920971,3.01329497 20.412161,3.01743775 20.432061,3.0224071 L20.4734203,3.03525076 L20.4734203,3.03525076 C20.4918,3.03972803 20.5101424,3.04623052 20.5282596,3.05346772 C20.5394858,3.05924581 20.5508361,3.06411728 20.562038,3.06925661 C20.6410724,3.1041481 20.7149598,3.15467904 20.7799038,3.21960789 C20.7941698,3.2338705 20.8077411,3.24856481 20.8206178,3.2636488 C20.8286634,3.27438549 20.8372573,3.28500139 20.8455616,3.29585068 C20.8586288,3.31157765 20.8702667,3.32818154 20.8811543,3.34512786 C20.8874597,3.35630846 20.8944489,3.36779763 20.9011327,3.37948392 C20.9134949,3.39981321 20.9239256,3.42035092 20.9333511,3.44123174 L20.9439544,3.46718727 L20.9439544,3.46718727 C20.9534329,3.4892118 20.9612949,3.51157231 20.9680673,3.5341895 C20.970806,3.54438288 20.9736126,3.55444662 20.9762122,3.56459327 C20.9818195,3.58559119 20.9862763,3.60700112 20.9897917,3.6285349 L20.9971159,3.68909843 L20.9971159,3.68909843 L20.997109,3.69629623 L20.996109,3.68829623 L20.998109,3.72129623 L20.9996358,3.75129623 Z" id="ðŸŽ¨-Color"></path>
        </g>
    </g>
</svg>