<svg width="12" height="12" viewBox="0 0 12 12" fill="none" xmlns="http://www.w3.org/2000/svg">
<path d="M6.20711 6L9.35355 2.85355C9.54882 2.65829 9.54882 2.34171 9.35355 2.14645C9.15829 1.95118 8.84171 1.95118 8.64645 2.14645L5.14645 5.64645C4.95118 5.84171 4.95118 6.15829 5.14645 6.35355L8.64645 9.85355C8.84171 10.0488 9.15829 10.0488 9.35355 9.85355C9.54882 9.65829 9.54882 9.34171 9.35355 9.14645L6.20711 6ZM3 2.5C3 2.22386 2.77614 2 2.5 2C2.22386 2 2 2.22386 2 2.5V9.5C2 9.77614 2.22386 10 2.5 10C2.77614 10 3 9.77614 3 9.5L3 2.5Z" fill="#212121"/>
</svg>
