<svg width="48" height="48" viewBox="0 0 48 48" fill="none" xmlns="http://www.w3.org/2000/svg">
<path d="M10.25 8C6.79822 8 4 10.7982 4 14.25V33.75C4 37.2018 6.79822 40 10.25 40H37.75C41.2018 40 44 37.2018 44 33.75V14.25C44 10.7982 41.2018 8 37.75 8H10.25ZM6.5 14.25C6.5 12.1789 8.17893 10.5 10.25 10.5H37.75C39.8211 10.5 41.5 12.1789 41.5 14.25V15.1404L24.0022 24.3498L6.5 15.0635V14.25ZM6.5 17.8936L23.414 26.8678C23.7791 27.0615 24.2163 27.0622 24.5821 26.8697L41.5 17.9655V33.75C41.5 35.8211 39.8211 37.5 37.75 37.5H10.25C8.17893 37.5 6.5 35.8211 6.5 33.75V17.8936Z" fill="#212121"/>
</svg>
