<svg width="16" height="16" viewBox="0 0 16 16" fill="none" xmlns="http://www.w3.org/2000/svg">
<path d="M2 10C2 11.5067 3.08608 13.0467 5 13.6891V12.6222C3.70047 12.0719 3 11.0054 3 10V9.5C3 9.22386 3.22386 9 3.5 9H5C5 8.63571 5.09739 8.29417 5.26756 8H3.5C2.67157 8 2 8.67157 2 9.5V10Z" fill="#212121"/>
<path d="M7 1.5C8.51878 1.5 9.75 2.73122 9.75 4.25C9.75 5.76878 8.51878 7 7 7C5.48122 7 4.25 5.76878 4.25 4.25C4.25 2.73122 5.48122 1.5 7 1.5ZM7 2.5C6.0335 2.5 5.25 3.2835 5.25 4.25C5.25 5.2165 6.0335 6 7 6C7.9665 6 8.75 5.2165 8.75 4.25C8.75 3.2835 7.9665 2.5 7 2.5Z" fill="#212121"/>
<path d="M10.5098 11.9269L6.01274 9.30358C6.10895 8.56797 6.73815 8 7.5 8H13.5C14.3284 8 15 8.67157 15 9.5V9.50904L10.5098 11.9269Z" fill="#212121"/>
<path d="M10.7371 12.9402L15 10.6448V13.5C15 14.3284 14.3284 15 13.5 15H7.5C6.67157 15 6 14.3284 6 13.5V10.4539L10.2481 12.9319C10.3985 13.0196 10.5837 13.0228 10.7371 12.9402Z" fill="#212121"/>
</svg>
