<svg width="48" height="48" viewBox="0 0 48 48" fill="none" xmlns="http://www.w3.org/2000/svg">
<path d="M23.9998 13.0805C30.0305 13.0805 34.9193 17.9693 34.9193 24C34.9193 24.6831 34.8565 25.3516 34.7365 26H42.75C43.4404 26 44 26.5596 44 27.25C44 27.9404 43.4404 28.5 42.75 28.5H5.25C4.55964 28.5 4 27.9404 4 27.25C4 26.5596 4.55964 26 5.25 26H13.2631C13.1431 25.3516 13.0804 24.6831 13.0804 24C13.0804 17.9693 17.9692 13.0805 23.9998 13.0805ZM15.8194 26H32.1803C32.3365 25.3589 32.4193 24.6891 32.4193 24C32.4193 19.3501 28.6498 15.5805 23.9998 15.5805C19.3499 15.5805 15.5804 19.3501 15.5804 24C15.5804 24.6891 15.6632 25.3589 15.8194 26Z" fill="#212121"/>
<path d="M11.5055 9.8043L11.607 9.89542L13.7549 12.0433C14.243 12.5314 14.243 13.3229 13.7549 13.811C13.2993 14.2667 12.5794 14.297 12.0886 13.9022L11.9871 13.811L9.83926 11.6632C9.35111 11.175 9.35111 10.3836 9.83926 9.89542C10.2949 9.43981 11.0147 9.40943 11.5055 9.8043Z" fill="#212121"/>
<path d="M38.1439 9.89542C38.5996 10.351 38.6299 11.0709 38.2351 11.5617L38.1439 11.6632L35.9961 13.811C35.5079 14.2992 34.7165 14.2992 34.2283 13.811C33.7727 13.3554 33.7423 12.6356 34.1372 12.1448L34.2283 12.0433L36.3762 9.89542C36.8643 9.40727 37.6558 9.40727 38.1439 9.89542Z" fill="#212121"/>
<path d="M24.0003 3.99731C24.6475 3.99731 25.1799 4.48919 25.2439 5.11951L25.2503 5.24731V8.28484C25.2503 8.97519 24.6907 9.53484 24.0003 9.53484C23.3531 9.53484 22.8208 9.04296 22.7568 8.41264L22.7503 8.28484V5.24731C22.7503 4.55696 23.31 3.99731 24.0003 3.99731Z" fill="#212121"/>
<path d="M21.25 38C20.5596 38 20 38.5596 20 39.25C20 39.9404 20.5596 40.5 21.25 40.5H26.75C27.4404 40.5 28 39.9404 28 39.25C28 38.5596 27.4404 38 26.75 38H21.25Z" fill="#212121"/>
<path d="M12 33.25C12 32.5596 12.5596 32 13.25 32H34.75C35.4404 32 36 32.5596 36 33.25C36 33.9404 35.4404 34.5 34.75 34.5H13.25C12.5596 34.5 12 33.9404 12 33.25Z" fill="#212121"/>
</svg>
