<svg width="16" height="16" viewBox="0 0 16 16" fill="none" xmlns="http://www.w3.org/2000/svg">
<path d="M8.00001 15C5.77101 15 2.00001 14.579 2.00001 13C1.99973 12.9605 2.00443 12.9212 2.01401 12.883L2.06101 12.683C2.06947 12.6485 2.08153 12.615 2.09701 12.583L7.55001 1.28298C7.5957 1.20409 7.66132 1.13859 7.7403 1.09306C7.81928 1.04753 7.90885 1.02356 8.00001 1.02356C8.09118 1.02356 8.18074 1.04753 8.25972 1.09306C8.3387 1.13859 8.40433 1.20409 8.45001 1.28298L13.903 12.583C13.9185 12.615 13.9306 12.6485 13.939 12.683L13.986 12.883C13.9956 12.9212 14.0003 12.9605 14 13C14 14.579 10.229 15 8.00001 15ZM3.01001 13.019C3.20701 13.36 5.03501 14 8.00001 14C10.94 14 12.763 13.371 12.988 13.009L12.979 12.971L8.00001 2.65098L3.01001 13.019Z" fill="#212121"/>
</svg>
