<?xml version="1.0" encoding="UTF-8"?>
<svg width="16px" height="16px" viewBox="0 0 16 16" version="1.1" xmlns="http://www.w3.org/2000/svg" xmlns:xlink="http://www.w3.org/1999/xlink">
    <!-- Generator: Sketch 59.1 (86144) - https://sketch.com -->
    <title>ic_fluent_re_order_16_regular</title>
    <desc>Created with Sketch.</desc>
    <g id="ðŸ”-Product-Icons" stroke="none" stroke-width="1" fill="none" fill-rule="evenodd">
        <g id="ic_fluent_re_order_16_regular" fill="#212121" fill-rule="nonzero">
            <path d="M2.5,12 L13.5,12 C13.7761424,12 14,12.2238576 14,12.5 C14,12.7454599 13.8231248,12.9496084 13.5898756,12.9919443 L13.5,13 L2.5,13 C2.22385763,13 2,12.7761424 2,12.5 C2,12.2545401 2.17687516,12.0503916 2.41012437,12.0080557 L2.5,12 L13.5,12 L2.5,12 Z M2.5,9 L13.5,9 C13.7761424,9 14,9.22385763 14,9.5 C14,9.74545989 13.8231248,9.94960837 13.5898756,9.99194433 L13.5,10 L2.5,10 C2.22385763,10 2,9.77614237 2,9.5 C2,9.25454011 2.17687516,9.05039163 2.41012437,9.00805567 L2.5,9 L13.5,9 L2.5,9 Z M2.5,6 L13.5,6 C13.7761424,6 14,6.22385763 14,6.5 C14,6.74545989 13.8231248,6.94960837 13.5898756,6.99194433 L13.5,7 L2.5,7 C2.22385763,7 2,6.77614237 2,6.5 C2,6.25454011 2.17687516,6.05039163 2.41012437,6.00805567 L2.5,6 L13.5,6 L2.5,6 Z M2.5,3 L13.5,3 C13.7761424,3 14,3.22385763 14,3.5 C14,3.74545989 13.8231248,3.94960837 13.5898756,3.99194433 L13.5,4 L2.5,4 C2.22385763,4 2,3.77614237 2,3.5 C2,3.25454011 2.17687516,3.05039163 2.41012437,3.00805567 L2.5,3 L13.5,3 L2.5,3 Z" id="ðŸŽ¨-Color"></path>
        </g>
    </g>
</svg>