<?xml version="1.0" encoding="UTF-8"?>
<svg width="20px" height="20px" viewBox="0 0 20 20" version="1.1" xmlns="http://www.w3.org/2000/svg" xmlns:xlink="http://www.w3.org/1999/xlink">
    <!-- Generator: Sketch 64 (93537) - https://sketch.com -->
    <title>ic_fluent_extension_20_regular</title>
    <desc>Created with Sketch.</desc>
    <g id="ðŸ”-System-Icons" stroke="none" stroke-width="1" fill="none" fill-rule="evenodd">
        <g id="ic_fluent_extension_20_regular" fill="#212121" fill-rule="nonzero">
            <path d="M11.096,2.00519 C10.027,2.07747 9.16276,2.89638 9.02054,3.94469 L9.014,4.001 L6.50166,4.0015 L6.35722,4.00837 C5.59664,4.08106 5.00175,4.72181 5.00175,5.5015 L5.001,7.766 L4.94391,7.77204 C3.84646,7.92103 3,8.86242 3,10.0015 L3.00519,10.1556 C3.07747,11.2245 3.89638,12.0887 4.94469,12.231 L5.001,12.236 L5.00175,14.5016 L5.00862,14.6461 C5.0813,15.4066 5.72205,16.0015 6.50175,16.0015 L8.516,16.001 L8.52229,16.0565 C8.67128,17.1535 9.61266,18 10.7517,18 L10.9058,17.9948 C11.9748,17.9225 12.839,17.1036 12.9812,16.0553 L12.986,16.001 L15.5017,16.0015 C16.3302,16.0015 17.0017,15.3299 17.0017,14.5015 L17.0009,11.2486 L15.2496,11.25 L15.1267,11.2446 C14.5015,11.1934 14,10.6521 14,10 L14.0054,9.87667 C14.0566,9.25154 14.5979,8.75 15.25,8.75 L17.0009,8.7486 L17.0017,5.50164 L16.9949,5.35716 C16.9222,4.59639 16.2814,4.0015 15.5017,4.0015 L13.485,4.001 L13.4795,3.94469 C13.3305,2.84646 12.3891,2 11.25,2 L11.096,2.00519 Z M11.25,3 C11.9404,3 12.5,3.55964 12.5,4.25 L12.5,5.0009 L15.5016,5.0015 L15.5916,5.00956 C15.8249,5.0519 16.0017,5.25604 16.0017,5.5015 L16.001,7.749 L15.2496,7.75 C14.076,7.75 13.1019,8.65244 13.0074,9.81602 L13.0004,9.97981 C13,11.174 13.9024,12.1481 15.066,12.2426 L15.2298,12.2496 L16.001,12.248 L16.0017,14.5016 C16.0017,14.7776 15.7779,15.0015 15.5017,15.0015 L11.9995,15.0009 L12.0018,15.7515 C12.0017,16.4404 11.4421,17 10.7517,17 C10.0614,17 9.50175,16.4404 9.50175,15.75 L9.4995,15.0009 L6.50165,15.0015 C6.22561,15.0015 6.00175,14.7776 6.00175,14.5015 L6.00086,11.25 L5.249,11.2515 C4.55964,11.2515 4,10.6919 4,10.0015 C4,9.31115 4.55964,8.7515 5.25,8.7515 L6.00086,8.75 L6.00175,5.50164 C6.00175,5.22536 6.22561,5.0015 6.50175,5.0015 L10,5.00092 L10,4.25 C10,3.55964 10.5596,3 11.25,3 Z" id="ðŸŽ¨-Color"></path>
        </g>
    </g>
</svg>