<svg width="16" height="16" viewBox="0 0 16 16" fill="none" xmlns="http://www.w3.org/2000/svg">
<path d="M3.49994 4.38577C3.49994 4.04651 3.77496 3.77148 4.11423 3.77148C4.32682 3.77148 4.51465 3.87885 4.62604 4.04581C4.85593 4.39038 5.32161 4.48335 5.66618 4.25347C6.01075 4.02359 6.10372 3.5579 5.87383 3.21334C5.49606 2.64709 4.84916 2.27148 4.11423 2.27148C2.94654 2.27148 1.99994 3.21808 1.99994 4.38577C1.99994 5.45855 2.79891 6.34472 3.83427 6.48169C3.88758 6.49371 3.94305 6.50006 4 6.50006H11.3103C11.7245 6.50006 12.0603 6.16427 12.0603 5.75006C12.0603 5.33585 11.7245 5.00006 11.3103 5.00006H4.11604L4.11423 5.00006C3.77496 5.00006 3.49994 4.72503 3.49994 4.38577Z" fill="#212121"/>
<path d="M7.74994 2.50006C7.33573 2.50006 6.99994 2.83585 6.99994 3.25006C6.99994 3.66427 7.33573 4.00006 7.74994 4.00006H13.25C13.6642 4.00006 14 3.66427 14 3.25006C14 2.83585 13.6642 2.50006 13.25 2.50006H7.74994Z" fill="#212121"/>
<path d="M4.74994 7.50006C4.33573 7.50006 3.99994 7.83585 3.99994 8.25006C3.99994 8.66427 4.33573 9.00006 4.74994 9.00006H13.2501C13.6643 9.00006 14.0001 8.66427 14.0001 8.25006C14.0001 7.83585 13.6643 7.50006 13.2501 7.50006H4.74994Z" fill="#212121"/>
<path d="M1.99994 10.7501C1.99994 10.3358 2.33573 10.0001 2.74994 10.0001H11.2499C11.6642 10.0001 11.9999 10.3358 11.9999 10.7501C11.9999 11.1643 11.6642 11.5001 11.2499 11.5001H2.74994C2.33573 11.5001 1.99994 11.1643 1.99994 10.7501Z" fill="#212121"/>
<path d="M4.74518 12.501C4.33096 12.501 3.99518 12.8367 3.99518 13.251C3.99518 13.6652 4.33096 14.001 4.74518 14.001H13.2452C13.6594 14.001 13.9952 13.6652 13.9952 13.251C13.9952 12.8367 13.6594 12.501 13.2452 12.501H4.74518Z" fill="#212121"/>
</svg>
