<svg width="20" height="20" viewBox="0 0 20 20" fill="none" xmlns="http://www.w3.org/2000/svg">
<path d="M10 2C12.8166 2 14.4145 3.92329 14.6469 6.24599L14.7179 6.24599C16.5306 6.24599 18 7.75792 18 9.62299C18 9.66938 17.9991 9.71554 17.9973 9.76147C17.4669 9.28787 16.767 9 16 9C14.6936 9 13.5822 9.83505 13.1705 11.0005C12.115 11.0216 11.184 11.7045 10.8491 12.7094L10.7522 13H5.28205C3.46942 13 2 11.4881 2 9.62299C2 7.75792 3.46942 6.24599 5.28207 6.24599L5.35314 6.24599C5.58687 3.90802 7.18335 2 10 2ZM16 14C17.1046 14 18 13.1046 18 12C18 10.8954 17.1046 10 16 10C14.8954 10 14 10.8954 14 12L13.2208 12C12.5751 12 12.0019 12.4132 11.7977 13.0257L11.2536 14.6581C11.1855 14.8623 10.9945 15 10.7792 15H9.73244C9.38663 14.4022 8.74029 14 8 14C6.89543 14 6 14.8954 6 16C6 17.1046 6.89543 18 8 18C9.10457 18 9.99999 17.1046 10 16H10.7792C11.4249 16 11.9981 15.5869 12.2023 14.9744L12.7464 13.3419C12.8145 13.1377 13.0055 13 13.2208 13H14.2676C14.6134 13.5978 15.2597 14 16 14ZM16 13C15.4477 13 15 12.5523 15 12C15 11.4477 15.4477 11 16 11C16.5523 11 17 11.4477 17 12C17 12.5523 16.5523 13 16 13ZM9 16C9 16.5523 8.55228 17 8 17C7.44772 17 7 16.5523 7 16C7 15.4477 7.44772 15 8 15C8.55228 15 9 15.4477 9 16Z" fill="#212121"/>
</svg>
