<svg width="24" height="24" viewBox="0 0 24 24" fill="none" xmlns="http://www.w3.org/2000/svg">
<path d="M15.8911 3.04761C17.2885 1.65 19.5543 1.64993 20.9519 3.04746C22.3493 4.44486 22.3493 6.71048 20.952 8.10797L20.0601 8.99996L14.9995 3.9393L15.8911 3.04761ZM13.9389 5.00002L3.94103 14.999C3.5347 15.4054 3.2491 15.9166 3.116 16.4756L2.02041 21.0771C1.96009 21.3304 2.03552 21.5969 2.21968 21.7811C2.40385 21.9653 2.67037 22.0407 2.92373 21.9804L7.52498 20.8848C8.08418 20.7517 8.59546 20.466 9.00191 20.0595L10.153 18.9083C10.0528 18.4548 10 17.9836 10 17.5C10 13.9101 12.9101 11 16.5 11C16.9833 11 17.4543 11.0527 17.9075 11.1528L18.9995 10.0607L13.9389 5.00002ZM22 17.5C22 20.5376 19.5376 23 16.5 23C13.4624 23 11 20.5376 11 17.5C11 14.4624 13.4624 12 16.5 12C19.5376 12 22 14.4624 22 17.5ZM12.5 17.5C12.5 18.3335 12.755 19.1075 13.1911 19.7482L18.7482 14.1911C18.1075 13.755 17.3335 13.5 16.5 13.5C14.2909 13.5 12.5 15.2909 12.5 17.5ZM16.5 21.5C18.7091 21.5 20.5 19.7091 20.5 17.5C20.5 16.6665 20.245 15.8925 19.8089 15.2518L14.2518 20.8089C14.8925 21.245 15.6665 21.5 16.5 21.5ZM9.00191 20.0595L8.47155 19.5292Z" fill="#212121"/>
</svg>
