<svg width="24" height="24" viewBox="0 0 24 24" fill="none" xmlns="http://www.w3.org/2000/svg">
<path d="M6.5 1C9.53757 1 12 3.46243 12 6.5C12 9.53757 9.53757 12 6.5 12C3.46243 12 1 9.53757 1 6.5C1 3.46243 3.46243 1 6.5 1ZM8.5 6.50006H6.5L6.5 3.99993C6.5 3.72379 6.27614 3.49993 6 3.49993C5.72386 3.49993 5.5 3.72379 5.5 3.99993L5.5 6.99853L5.5 7.00006C5.5 7.2762 5.72386 7.50006 6 7.50006H8.5C8.77614 7.50006 9 7.2762 9 7.00006C9 6.72391 8.77614 6.50006 8.5 6.50006ZM6.5 13C8.24649 13 9.83211 12.3112 11 11.1904V12H15.9343L13.9347 8.61433C13.7099 8.2336 13.3006 7.99999 12.8584 7.99999H12.8261C12.9395 7.5196 12.9997 7.01862 13 6.50363C13.9179 6.55082 14.7557 7.05471 15.2263 7.85153L17.7345 12.0984L19.9167 12.6437C21.141 12.9497 22 14.0497 22 15.3117V17C22 18.1024 21.3514 19.0532 20.415 19.4918C20.0794 20.9293 18.7897 22 17.25 22C15.804 22 14.5785 21.0556 14.1567 19.75H9.34325C8.92147 21.0556 7.69602 22 6.25 22C4.58719 22 3.21604 20.7512 3.02321 19.1404C2.39913 18.6362 2 17.8647 2 17V14.75C2 13.6688 2.62395 12.7333 3.53141 12.284C4.42129 12.7417 5.43048 13 6.5 13ZM6.25 17C5.2835 17 4.5 17.7835 4.5 18.75C4.5 19.7165 5.2835 20.5 6.25 20.5C7.2165 20.5 8 19.7165 8 18.75C8 17.7835 7.2165 17 6.25 17ZM15.5 18.75C15.5 19.7165 16.2835 20.5 17.25 20.5C18.2165 20.5 19 19.7165 19 18.75C19 17.7835 18.2165 17 17.25 17C16.2835 17 15.5 17.7835 15.5 18.75Z" fill="#212121"/>
</svg>
