<svg width="24" height="24" viewBox="0 0 24 24" fill="none" xmlns="http://www.w3.org/2000/svg">
<path d="M11 7C11 4.79086 9.20914 3 7 3C4.79086 3 3 4.79086 3 7C3 9.20914 4.79086 11 7 11C9.20914 11 11 9.20914 11 7ZM9.5 7C9.5 8.38071 8.38071 9.5 7 9.5C5.61929 9.5 4.5 8.38071 4.5 7C4.5 5.61929 5.61929 4.5 7 4.5C8.38071 4.5 9.5 5.61929 9.5 7ZM21 7C21 4.79086 19.2091 3 17 3C14.7909 3 13 4.79086 13 7C13 9.20914 14.7909 11 17 11C19.2091 11 21 9.20914 21 7ZM19.5 7C19.5 8.38071 18.3807 9.5 17 9.5C15.6193 9.5 14.5 8.38071 14.5 7C14.5 5.61929 15.6193 4.5 17 4.5C18.3807 4.5 19.5 5.61929 19.5 7ZM7 21C4.79086 21 3 19.2091 3 17C3 14.7909 4.79086 13 7 13C9.20914 13 11 14.7909 11 17C11 19.2091 9.20914 21 7 21ZM7 19.5C8.38071 19.5 9.5 18.3807 9.5 17C9.5 15.6193 8.38071 14.5 7 14.5C5.61929 14.5 4.5 15.6193 4.5 17C4.5 18.3807 5.61929 19.5 7 19.5ZM21 17C21 14.7909 19.2091 13 17 13C14.7909 13 13 14.7909 13 17C13 19.2091 14.7909 21 17 21C19.2091 21 21 19.2091 21 17ZM19.5 17C19.5 18.3807 18.3807 19.5 17 19.5C15.6193 19.5 14.5 18.3807 14.5 17C14.5 15.6193 15.6193 14.5 17 14.5C18.3807 14.5 19.5 15.6193 19.5 17Z" fill="#212121"/>
</svg>
