<svg width="48" height="48" viewBox="0 0 48 48" fill="none" xmlns="http://www.w3.org/2000/svg">
<path d="M15.0009 15.702C15.1661 11.4066 18.6975 8 22.9988 8C27.4168 8 31 11.5814 31 16C31 20.4183 27.4183 24 23 24H5.25C4.55964 24 4 23.4404 4 22.75C4 22.0596 4.55964 21.5 5.25 21.5H23C26.0376 21.5 28.5 19.0376 28.5 16C28.5 12.9627 26.0367 10.5 22.9988 10.5C20.0436 10.5 17.6128 12.8422 17.4991 15.798C17.4725 16.4879 16.8918 17.0256 16.202 16.9991C15.5121 16.9725 14.9744 16.3918 15.0009 15.702ZM32.1334 24.0624C32.8045 21.3779 35.2263 19.5 37.987 19.5C41.2963 19.5 44 22.1818 44 25.5C44 28.8137 41.3137 31.5 38 31.5H34.5921C35.1665 32.3768 35.5 33.4237 35.5 34.5395C35.5 37.5188 33.0876 40 30.0783 40C28.0247 40 26.1473 38.8397 25.2289 37.0029L25.132 36.809C24.8232 36.1915 25.0735 35.4407 25.691 35.132C26.3085 34.8232 27.0593 35.0735 27.368 35.691L27.465 35.8849C27.9599 36.8747 28.9716 37.5 30.0783 37.5C31.6769 37.5 33 36.1682 33 34.5395C33 32.8676 31.6419 31.5 30 31.5H5.25C4.55964 31.5 4 30.9404 4 30.25C4 29.5596 4.55964 29 5.25 29H38C39.933 29 41.5 27.433 41.5 25.5C41.5 23.5714 39.9244 22 37.987 22C36.3671 22 34.9501 23.1034 34.5588 24.6687L34.4627 25.0532C34.2952 25.7229 33.6166 26.1301 32.9468 25.9627C32.2771 25.7952 31.8699 25.1166 32.0373 24.4468L32.1334 24.0624Z" fill="#212121"/>
</svg>
