<svg width="24" height="24" viewBox="0 0 24 24" fill="none" xmlns="http://www.w3.org/2000/svg">
<path d="M18.7479 9.49408C20.5438 9.49408 22 10.9489 22 12.7441C22 14.4773 20.6425 15.8933 18.9325 15.9889L18.7321 15.994L18.6155 16.0008L17.8287 16.0007C17.9385 16.3113 17.9982 16.6455 17.9982 16.9937C17.9982 18.658 16.7371 19.9997 15.0732 19.9997C13.7727 19.9997 12.8379 19.3719 12.3847 18.3731C12.1566 17.8701 12.3793 17.2775 12.8822 17.0493C13.3492 16.8374 13.8936 17.0143 14.1517 17.4433L14.2496 17.6317C14.39 17.8736 14.6228 17.9997 15.0732 17.9997C15.6039 17.9997 15.9982 17.5802 15.9982 16.9937C15.9982 16.4829 15.6047 16.0579 15.0935 16.0006L3 16.0008C2.44772 16.0008 2 15.553 2 15.0008C2 14.4879 2.38604 14.0653 2.88338 14.0075L3 14.0008L14.8588 14.0008L14.9755 13.9941C15.0391 13.9941 15.1022 13.996 15.1649 13.9999L18.6273 14.0013L18.6871 13.9959L18.7479 13.9941L18.876 13.9876C19.5075 13.9236 20 13.3911 20 12.7441C20 12.0539 19.4396 11.4941 18.7479 11.4941C18.2621 11.4941 17.8291 11.7728 17.6223 12.1953L17.5251 12.4212C17.2996 12.8682 16.7698 13.085 16.2883 12.9083C15.7699 12.718 15.5038 12.1434 15.6941 11.625C16.1601 10.3552 17.3727 9.49408 18.7479 9.49408ZM11.7497 11.9997H3C2.44772 11.9997 2 11.5519 2 10.9997C2 10.4868 2.38604 10.0641 2.88338 10.0064L3 9.99966H11.7497C12.9925 9.99966 14 8.99216 14 7.74934C14 6.50652 12.9925 5.49902 11.7497 5.49902C10.5069 5.49902 9.49937 6.50652 9.49937 7.74934C9.49937 8.30162 9.05165 8.74934 8.49937 8.74934C7.94708 8.74934 7.49937 8.30162 7.49937 7.74934C7.49937 5.40196 9.4023 3.49902 11.7497 3.49902C14.0971 3.49902 16 5.40196 16 7.74934C16 10.0181 14.2224 11.8717 11.984 11.9933L11.7497 11.9997H3H11.7497Z" fill="#212121"/>
</svg>
