<svg width="24" height="24" viewBox="0 0 24 24" fill="none" xmlns="http://www.w3.org/2000/svg">
<path d="M3 6.25C3 4.45508 4.45507 3 6.25 3H17.75C19.5449 3 21 4.45507 21 6.25V17.75C21 19.5449 19.5449 21 17.75 21H6.25C4.45508 21 3 19.5449 3 17.75V6.25Z" fill="url(#paint0_linear_378174_10311)"/>
<path d="M10.5303 9.28033L7.81066 12L10.5303 14.7197C10.8232 15.0126 10.8232 15.4874 10.5303 15.7803C10.2374 16.0732 9.76256 16.0732 9.46967 15.7803L6.21967 12.5303C5.92678 12.2374 5.92678 11.7626 6.21967 11.4697L9.46967 8.21967C9.76256 7.92678 10.2374 7.92678 10.5303 8.21967C10.8232 8.51256 10.8232 8.98744 10.5303 9.28033ZM14.5303 8.21967L17.7803 11.4697C18.0732 11.7626 18.0732 12.2374 17.7803 12.5303L14.5303 15.7803C14.2374 16.0732 13.7626 16.0732 13.4697 15.7803C13.1768 15.4874 13.1768 15.0126 13.4697 14.7197L16.1893 12L13.4697 9.28033C13.1768 8.98744 13.1768 8.51256 13.4697 8.21967C13.7626 7.92678 14.2374 7.92678 14.5303 8.21967Z" fill="url(#paint1_linear_378174_10311)"/>
<defs>
<linearGradient id="paint0_linear_378174_10311" x1="7.38879" y1="3" x2="17.2602" y2="21" gradientUnits="userSpaceOnUse">
<stop offset="0.0281195" stop-color="#E67EEA"/>
<stop offset="0.43755" stop-color="#AD64D7"/>
<stop offset="1" stop-color="#794DC5"/>
</linearGradient>
<linearGradient id="paint1_linear_378174_10311" x1="8.84518" y1="8.30774" x2="13.5444" y2="20.4717" gradientUnits="userSpaceOnUse">
<stop stop-color="#FDFDFD"/>
<stop offset="1" stop-color="#F9DCFA"/>
</linearGradient>
</defs>
</svg>
