<svg width="16" height="16" viewBox="0 0 16 16" fill="none" xmlns="http://www.w3.org/2000/svg">
<path d="M11.5 6H2V11.5C2 12.8807 3.11929 14 4.5 14H6.59971C6.21628 13.2499 6 12.4002 6 11.5C6 8.46243 8.46243 6 11.5 6ZM14 4.5C14 3.11929 12.8807 2 11.5 2H4.5C3.11929 2 2 3.11929 2 4.5V5H14V4.5ZM9.06525 8.44197C9.36854 9.52312 8.72254 10.642 7.63459 10.9199L7.17353 11.0377C7.15855 11.1897 7.15088 11.3438 7.15088 11.4999C7.15088 11.6875 7.16198 11.8725 7.18354 12.0541L7.53311 12.1368C8.65254 12.4015 9.31853 13.5536 8.98919 14.6557L8.86285 15.0785C9.12004 15.2817 9.39978 15.4559 9.69751 15.5964L10.0225 15.2523C10.8123 14.416 12.1431 14.4167 12.932 15.2538L13.2694 15.6118C13.5618 15.4769 13.8372 15.3095 14.0912 15.1142L13.9351 14.5575C13.6318 13.4764 14.2778 12.3575 15.3657 12.0796L15.8263 11.9619C15.8412 11.81 15.8489 11.6559 15.8489 11.4999C15.8489 11.3121 15.8378 11.127 15.8162 10.9452L15.4672 10.8627C14.3478 10.5981 13.6818 9.44593 14.0111 8.34378L14.1373 7.92148C13.8801 7.7182 13.6003 7.54393 13.3025 7.40341L12.9778 7.7472C12.188 8.58349 10.8573 8.58279 10.0683 7.74567L9.73094 7.3877C9.43852 7.52258 9.16313 7.68988 8.90905 7.88518L9.06525 8.44197ZM11.4999 12.4999C10.9476 12.4999 10.4999 12.0521 10.4999 11.4999C10.4999 10.9476 10.9476 10.4999 11.4999 10.4999C12.0522 10.4999 12.4999 10.9476 12.4999 11.4999C12.4999 12.0521 12.0522 12.4999 11.4999 12.4999Z" fill="#212121"/>
</svg>
