<svg width="32" height="32" viewBox="0 0 32 32" fill="none" xmlns="http://www.w3.org/2000/svg">
<path d="M23 15.5C27.1421 15.5 30.5 18.8579 30.5 23C30.5 27.1421 27.1421 30.5 23 30.5C18.8579 30.5 15.5 27.1421 15.5 23C15.5 18.8579 18.8579 15.5 23 15.5ZM24.5 3C26.9853 3 29 5.01472 29 7.5V16.293C28.4003 15.7561 27.7281 15.2994 27 14.9375V7.5C27 6.11929 25.8807 5 24.5 5H7.5C6.11929 5 5 6.11929 5 7.5V24.5C5 25.8807 6.11929 27 7.5 27H14.9375C15.2994 27.7281 15.7561 28.4003 16.293 29H7.5C5.01472 29 3 26.9853 3 24.5V7.5C3 5.01472 5.01472 3 7.5 3H24.5ZM23.25 17.5C22.8358 17.5 22.5 17.8358 22.5 18.25V22H18.75C18.3358 22 18 22.3358 18 22.75C18 23.1642 18.3358 23.5 18.75 23.5H22.5V27.25C22.5 27.6642 22.8358 28 23.25 28C23.6642 28 24 27.6642 24 27.25V23.5H27.75C28.1642 23.5 28.5 23.1642 28.5 22.75C28.5 22.3358 28.1642 22 27.75 22H24V18.25C24 17.8358 23.6642 17.5 23.25 17.5ZM10 19C11.6569 19 13 20.3431 13 22C13 23.6569 11.6569 25 10 25C8.34315 25 7 23.6569 7 22C7 20.3431 8.34315 19 10 19ZM10 21C9.44772 21 9 21.4477 9 22C9 22.5523 9.44772 23 10 23C10.5523 23 11 22.5523 11 22C11 21.4477 10.5523 21 10 21ZM10 11C11.6569 11 13 12.3431 13 14C13 15.6569 11.6569 17 10 17C8.34315 17 7 15.6569 7 14C7 12.3431 8.34315 11 10 11ZM10 13C9.44772 13 9 13.4477 9 14C9 14.5523 9.44772 15 10 15C10.5523 15 11 14.5523 11 14C11 13.4477 10.5523 13 10 13ZM24 13C24.5523 13 25 13.4477 25 14C25 14.0756 24.9905 14.1489 24.9746 14.2197C24.339 14.0774 23.6785 14 23 14C21.514 14 20.1132 14.3622 18.8779 15H16C15.4477 15 15 14.5523 15 14C15 13.4477 15.4477 13 16 13H24ZM24 7C24.5523 7 25 7.44772 25 8C25 8.55228 24.5523 9 24 9H8C7.44772 9 7 8.55228 7 8C7 7.44772 7.44772 7 8 7H24Z" fill="#212121"/>
</svg>
