<svg width="16" height="16" viewBox="0 0 16 16" fill="none" xmlns="http://www.w3.org/2000/svg">
<path d="M9.5 8C9.5 7.23165 9.78885 6.53076 10.2639 6H2V11.5C2 12.8807 3.11929 14 4.5 14H8V10C8 9.06808 8.63739 8.28503 9.5 8.06301V8ZM14 5H2V4.5C2 3.11929 3.11929 2 4.5 2H11.5C12.8807 2 14 3.11929 14 4.5V5ZM10.5 8V9H10C9.44772 9 9 9.44772 9 10V14C9 14.5523 9.44771 15 10 15H15C15.5523 15 16 14.5523 16 14V10C16 9.44772 15.5523 9 15 9H14.5V8C14.5 6.89543 13.6046 6 12.5 6C11.3954 6 10.5 6.89543 10.5 8ZM11.5 9V8C11.5 7.44772 11.9477 7 12.5 7C13.0523 7 13.5 7.44772 13.5 8V9H11.5ZM12.5 11.25C12.9142 11.25 13.25 11.5858 13.25 12C13.25 12.4142 12.9142 12.75 12.5 12.75C12.0858 12.75 11.75 12.4142 11.75 12C11.75 11.5858 12.0858 11.25 12.5 11.25Z" fill="#212121"/>
</svg>
