<svg width="16" height="16" viewBox="0 0 16 16" fill="none" xmlns="http://www.w3.org/2000/svg">
<path d="M15 1.49994C15 1.2238 14.7761 0.999939 14.5 0.999939C14.2239 0.999939 14 1.2238 14 1.49994L14 14.4999C14 14.7761 14.2239 14.9999 14.5 14.9999C14.7761 14.9999 15 14.7761 15 14.4999V1.49994ZM8 1.49994C8 1.2238 7.77614 0.999939 7.5 0.999939C7.22386 0.999939 7 1.2238 7 1.49994L7 14.4999C7 14.7761 7.22386 14.9999 7.5 14.9999C7.77614 14.9999 8 14.7761 8 14.4999L8 1.49994ZM3.5 12.9999C2.67157 12.9999 2 12.3284 2 11.4999L2 4.49994C2 3.67151 2.67157 2.99994 3.5 2.99994H4.5C5.32843 2.99994 6 3.67151 6 4.49994L6 11.4999C6 12.3284 5.32843 12.9999 4.5 12.9999H3.5ZM3 11.4999C3 11.7761 3.22386 11.9999 3.5 11.9999H4.5C4.77614 11.9999 5 11.7761 5 11.4999L5 4.49994C5 4.2238 4.77614 3.99994 4.5 3.99994H3.5C3.22386 3.99994 3 4.2238 3 4.49994L3 11.4999ZM9 9.49994C9 10.3284 9.67157 10.9999 10.5 10.9999H11.5C12.3284 10.9999 13 10.3284 13 9.49994V6.49994C13 5.67151 12.3284 4.99994 11.5 4.99994H10.5C9.67157 4.99994 9 5.67151 9 6.49994L9 9.49994ZM10.5 9.99994C10.2239 9.99994 10 9.77608 10 9.49994L10 6.49994C10 6.2238 10.2239 5.99994 10.5 5.99994H11.5C11.7761 5.99994 12 6.2238 12 6.49994V9.49994C12 9.77608 11.7761 9.99994 11.5 9.99994H10.5Z" fill="#212121"/>
</svg>
