<svg width="20" height="20" viewBox="0 0 20 20" fill="none" xmlns="http://www.w3.org/2000/svg">
<path d="M10.5 2.5C10.5 2.22386 10.2761 2 10 2C9.72386 2 9.5 2.22386 9.5 2.5V17.5C9.5 17.7761 9.72386 18 10 18C10.2761 18 10.5 17.7761 10.5 17.5V2.5ZM7 3.5C7 3.22386 7.22386 3 7.5 3H8C8.27614 3 8.5 3.22386 8.5 3.5C8.5 3.77614 8.27614 4 8 4H7.5C7.22386 4 7 3.77614 7 3.5ZM7.5 16C7.22386 16 7 16.2239 7 16.5C7 16.7761 7.22386 17 7.5 17H8C8.27614 17 8.5 16.7761 8.5 16.5C8.5 16.2239 8.27614 16 8 16H7.5ZM2 6C2 4.34315 3.34315 3 5 3H5.5C5.77614 3 6 3.22386 6 3.5C6 3.77614 5.77614 4 5.5 4H5C3.89543 4 3 4.89543 3 6V6.5C3 6.77614 2.77614 7 2.5 7C2.22386 7 2 6.77614 2 6.5V6ZM5 17C3.34315 17 2 15.6569 2 14V13.5C2 13.2239 2.22386 13 2.5 13C2.77614 13 3 13.2239 3 13.5V14C3 15.1046 3.89543 16 5 16H5.5C5.77614 16 6 16.2239 6 16.5C6 16.7761 5.77614 17 5.5 17H5ZM2.5 8C2.77614 8 3 8.22386 3 8.5V11.5C3 11.7761 2.77614 12 2.5 12C2.22386 12 2 11.7761 2 11.5V8.5C2 8.22386 2.22386 8 2.5 8ZM11.5 11.2913V17H15C15.6479 17 16.2478 16.7946 16.7381 16.4455L16.6479 16.3552L11.5 11.2913ZM11.5 3V10.0826C11.6989 10.1537 11.8858 10.2681 12.0461 10.4258L17.3536 15.6467L17.4453 15.7384C17.7946 15.248 18 14.648 18 14V6C18 4.34315 16.6569 3 15 3H11.5ZM16 7.5C16 8.32843 15.3284 9 14.5 9C13.6716 9 13 8.32843 13 7.5C13 6.67157 13.6716 6 14.5 6C15.3284 6 16 6.67157 16 7.5Z" fill="#212121"/>
</svg>
