<svg width="20" height="20" viewBox="0 0 20 20" fill="none" xmlns="http://www.w3.org/2000/svg">
<path d="M15.5008 6.99918C16.8263 6.99918 17.9108 8.03071 17.9955 9.3348L18.0008 9.49918V10.256C17.0499 9.47083 15.8307 8.99915 14.5012 8.99915C11.4637 8.99915 9.00122 11.4616 9.00122 14.4991C9.00122 15.8286 9.47294 17.048 10.2581 17.9989H9.50113C8.17565 17.9989 7.09109 16.9673 7.00645 15.6632L7.00113 15.4989V9.49918C7.00113 8.17369 8.03267 7.08914 9.33676 7.0045L9.50113 6.99918H15.5008ZM12.663 3.69422L12.7107 3.85162L13.286 5.99905L9.00113 5.99918C7.40345 5.99918 6.09747 7.2481 6.00622 8.82291L6.00113 8.99918L6.00141 14.3468C4.97445 14.3259 4.03721 13.6687 3.69081 12.6643L3.63864 12.4938L2.08581 6.69855C1.74275 5.41823 2.45843 4.10365 3.69617 3.68436L3.85357 3.63668L9.64881 2.08385C10.8758 1.75509 12.1342 2.39867 12.606 3.54226L12.663 3.69422ZM19.0012 14.4991C19.0012 16.9844 16.9865 18.9991 14.5012 18.9991C12.0159 18.9991 10.0012 16.9844 10.0012 14.4991C10.0012 12.0139 12.0159 9.99915 14.5012 9.99915C16.9865 9.99915 19.0012 12.0139 19.0012 14.4991ZM15.0012 12.4991C15.0012 12.223 14.7774 11.9991 14.5012 11.9991C14.2251 11.9991 14.0012 12.223 14.0012 12.4991V13.9991H12.5012C12.2251 13.9991 12.0012 14.223 12.0012 14.4991C12.0012 14.7753 12.2251 14.9991 12.5012 14.9991H14.0012V16.4991C14.0012 16.7753 14.2251 16.9991 14.5012 16.9991C14.7774 16.9991 15.0012 16.7753 15.0012 16.4991V14.9991H16.5012C16.7774 14.9991 17.0012 14.7753 17.0012 14.4991C17.0012 14.223 16.7774 13.9991 16.5012 13.9991H15.0012V12.4991Z" fill="#212121"/>
</svg>
