<svg width="28" height="28" viewBox="0 0 28 28" fill="none" xmlns="http://www.w3.org/2000/svg">
<path d="M2.04061 12.9995C2.52156 7.16974 7.16974 2.52156 12.9995 2.04061V3.24954C12.9995 3.66375 13.3353 3.99954 13.7495 3.99954C14.1638 3.99954 14.4995 3.66375 14.4995 3.24954V2.00977C20.5617 2.25823 25.4638 7.00401 25.9585 12.9995H24.7495C24.3353 12.9995 23.9995 13.3353 23.9995 13.7495C23.9995 14.1638 24.3353 14.4995 24.7495 14.4995H25.9893C25.734 20.7293 20.7293 25.734 14.4995 25.9893V24.7495C14.4995 24.3353 14.1638 23.9995 13.7495 23.9995C13.3353 23.9995 12.9995 24.3353 12.9995 24.7495V25.9585C7.00401 25.4638 2.25823 20.5617 2.00977 14.4995H3.24954C3.66375 14.4995 3.99954 14.1638 3.99954 13.7495C3.99954 13.3353 3.66375 12.9995 3.24954 12.9995H2.04061ZM10.7016 14.4234C11.2095 15.7451 12.2539 16.7895 13.5756 17.2973L18.5703 19.2164C18.9746 19.3717 19.3717 18.9746 19.2163 18.5703L17.2972 13.5758C16.7893 12.2541 15.7449 11.2097 14.4232 10.7018L9.42859 8.7828C9.02431 8.62747 8.62719 9.0246 8.78253 9.42887L10.7016 14.4234Z" fill="#212121"/>
</svg>
