<?xml version="1.0" encoding="UTF-8"?>
<svg width="24px" height="24px" viewBox="0 0 24 24" version="1.1" xmlns="http://www.w3.org/2000/svg" xmlns:xlink="http://www.w3.org/1999/xlink">
    <!-- Generator: Sketch 59.1 (86144) - https://sketch.com -->
    <title>ic_fluent_share_stop_24_regular</title>
    <desc>Created with Sketch.</desc>
    <g id="ðŸ”-Product-Icons" stroke="none" stroke-width="1" fill="none" fill-rule="evenodd">
        <g id="ic_fluent_share_stop_24_regular" fill="#212121" fill-rule="nonzero">
            <path d="M7.14550166,11.8077968 L7.21803316,11.7236036 C7.48402541,11.457063 7.90066394,11.4324279 8.19449961,11.6499799 L8.27869277,11.7225114 L11.7531903,15.1898609 L15.2196451,11.723082 C15.5125247,11.4301751 15.9873984,11.4301529 16.2803053,11.7230324 C16.5465843,11.9892866 16.5708098,12.4059491 16.3529691,12.6995708 L16.2803549,12.7836926 L12.808,16.255 L16.2797837,19.7191241 C16.5463243,19.9851164 16.5709594,20.4017549 16.3534074,20.6955906 L16.2808759,20.7797837 C16.0148836,21.0463243 15.5982451,21.0709594 15.3044094,20.8534074 L15.2202163,20.7808759 L11.7457187,17.3135264 L8.27926392,20.7803053 C7.98638439,21.0732122 7.51151066,21.0732344 7.21860375,20.7803549 C6.95232474,20.5141008 6.92809922,20.0974382 7.14593995,19.8038165 L7.21855418,19.7196947 L10.689,16.248 L7.21912533,12.7842632 C6.95258473,12.518271 6.92794965,12.1016324 7.14550166,11.8077968 L7.21803316,11.7236036 L7.14550166,11.8077968 Z M4.25,3 L19.25,3 C20.440864,3 21.4156449,3.92516159 21.4948092,5.09595119 L21.5,5.25 L21.5,16.754591 C21.5,17.945455 20.5748384,18.9202359 19.4040488,18.9994002 L19.25,19.004591 L18.25,19.004591 C17.8357864,19.004591 17.5,18.6688046 17.5,18.254591 C17.5,17.8748952 17.7821539,17.5611 18.1482294,17.5114376 L18.25,17.504591 L19.25,17.504591 C19.6296958,17.504591 19.943491,17.2224371 19.9931534,16.8563616 L20,16.754591 L20,5.25 C20,4.87030423 19.7178461,4.55650904 19.3517706,4.50684662 L19.25,4.5 L4.25,4.5 C3.87030423,4.5 3.55650904,4.78215388 3.50684662,5.14822944 L3.5,5.25 L3.5,16.754591 C3.5,17.1342868 3.78215388,17.448082 4.14822944,17.4977444 L4.25,17.504591 L5.25,17.504591 C5.66421356,17.504591 6,17.8403774 6,18.254591 C6,18.6342868 5.71784612,18.948082 5.35177056,18.9977444 L5.25,19.004591 L4.25,19.004591 C3.05913601,19.004591 2.08435508,18.0794294 2.00519081,16.9086398 L2,16.754591 L2,5.25 C2,4.05913601 2.92516159,3.08435508 4.09595119,3.00519081 L4.25,3 L19.25,3 L4.25,3 Z" id="ðŸŽ¨-Color"></path>
        </g>
    </g>
</svg>