<svg width="24" height="24" viewBox="0 0 24 24" fill="none" xmlns="http://www.w3.org/2000/svg">
<path d="M12 3C12.4037 3 12.7678 3.24274 12.9231 3.61538L17.9231 15.6154C18.1355 16.1252 17.8944 16.7107 17.3846 16.9231C16.8748 17.1355 16.2894 16.8944 16.0769 16.3846L14.6667 13H9.33335L7.92309 16.3846C7.71068 16.8944 7.1252 17.1355 6.6154 16.9231C6.1056 16.7107 5.86452 16.1252 6.07694 15.6154L11.0769 3.61538C11.2322 3.24274 11.5963 3 12 3ZM10.1667 11H13.8334L12 6.6L10.1667 11Z" fill="#212121"/>
<path d="M6 19C6 18.4477 6.44772 18 7 18H17C17.5523 18 18 18.4477 18 19C18 19.5523 17.5523 20 17 20H7C6.44772 20 6 19.5523 6 19Z" fill="#212121"/>
</svg>
