<svg width="20" height="20" viewBox="0 0 20 20" fill="none" xmlns="http://www.w3.org/2000/svg">
<path d="M2.86926 9.16508C2.69435 9.37876 2.69214 9.69391 2.8874 9.88917C3.08266 10.0844 3.40103 10.0857 3.57947 9.87494C4.46458 8.82954 4.99831 7.47714 4.99831 6.00008C4.99831 4.52303 4.46458 3.17063 3.57947 2.12523C3.40103 1.91448 3.08266 1.91573 2.8874 2.111C2.69214 2.30626 2.69435 2.62141 2.86926 2.83508C3.57492 3.69711 3.99831 4.79915 3.99831 6.00008C3.99831 7.20101 3.57492 8.30305 2.86926 9.16508ZM1.47318 8.47496C1.66845 8.67022 1.9879 8.67189 2.15745 8.45392C2.68446 7.77642 2.99831 6.9249 2.99831 6.00008C2.99831 5.07527 2.68446 4.22375 2.15745 3.54624C1.9879 3.32828 1.66845 3.32995 1.47318 3.52521C1.27792 3.72047 1.28199 4.03512 1.44234 4.25994C1.79239 4.75069 1.99831 5.35134 1.99831 6.00008C1.99831 6.64883 1.79239 7.24947 1.44234 7.74023C1.28199 7.96504 1.27792 8.2797 1.47318 8.47496ZM10 2C7.79086 2 6 3.79086 6 6C6 8.20914 7.79086 10 10 10C12.2091 10 14 8.20914 14 6C14 3.79086 12.2091 2 10 2ZM5.00873 11C3.90315 11 3 11.8869 3 13C3 14.6912 3.83281 15.9663 5.13499 16.7966C6.41697 17.614 8.14526 18 10 18C11.8547 18 13.583 17.614 14.865 16.7966C16.1672 15.9663 17 14.6912 17 13C17 11.8956 16.1045 11 15 11L5.00873 11ZM16.4188 2.12523C15.5337 3.17063 15 4.52303 15 6.00008C15 7.47714 15.5337 8.82954 16.4188 9.87494C16.5973 10.0857 16.9157 10.0844 17.1109 9.88917C17.3062 9.69391 17.304 9.37876 17.129 9.16508C16.4234 8.30306 16 7.20101 16 6.00008C16 4.79915 16.4234 3.69711 17.129 2.83508C17.304 2.62141 17.3062 2.30626 17.1109 2.111C16.9157 1.91573 16.5973 1.91448 16.4188 2.12523ZM17.8409 3.54625C18.0104 3.32828 18.3299 3.32995 18.5251 3.52521C18.7204 3.72047 18.7163 4.03512 18.556 4.25994C18.2059 4.75069 18 5.35134 18 6.00008C18 6.64883 18.2059 7.24948 18.556 7.74023C18.7163 7.96504 18.7204 8.2797 18.5251 8.47496C18.3299 8.67022 18.0104 8.67189 17.8409 8.45392C17.3139 7.77642 17 6.9249 17 6.00008C17 5.07527 17.3139 4.22375 17.8409 3.54625Z" fill="#212121"/>
</svg>
