<svg width="16" height="16" viewBox="0 0 16 16" fill="none" xmlns="http://www.w3.org/2000/svg">
<path d="M2.23208 6.52636C2.06435 6.74572 2.06125 7.06057 2.25651 7.25583C2.45177 7.45109 2.7707 7.45258 2.94449 7.23799C3.60539 6.42196 4.0013 5.38253 4.0013 4.25063C4.0013 3.11873 3.60539 2.0793 2.94449 1.26326C2.7707 1.04867 2.45177 1.05016 2.25651 1.24542C2.06125 1.44069 2.06435 1.75553 2.23208 1.9749C2.71463 2.60599 3.0013 3.39483 3.0013 4.25063C3.0013 5.10642 2.71463 5.89526 2.23208 6.52636ZM0.842294 5.84162C1.03756 6.03688 1.35867 6.03887 1.51561 5.81166C1.82191 5.36821 2.0013 4.83037 2.0013 4.25063C2.0013 3.67089 1.82191 3.13305 1.51561 2.68959C1.35867 2.46238 1.03756 2.46437 0.842294 2.65964C0.647032 2.8549 0.655082 3.16968 0.787615 3.41194C0.923853 3.66097 1.0013 3.94675 1.0013 4.25063C1.0013 4.5545 0.923853 4.84029 0.787615 5.08932C0.655082 5.33158 0.647032 5.64635 0.842294 5.84162ZM11.5 8C12.3284 8 13 8.67157 13 9.5V10C13 11.9714 11.1405 14 8 14C4.85951 14 3 11.9714 3 10V9.5C3 8.67157 3.67157 8 4.5 8H11.5ZM8 1.5C9.51878 1.5 10.75 2.73122 10.75 4.25C10.75 5.76878 9.51878 7 8 7C6.48122 7 5.25 5.76878 5.25 4.25C5.25 2.73122 6.48122 1.5 8 1.5ZM13.0568 7.23799C13.2306 7.45258 13.5495 7.45109 13.7448 7.25583C13.9401 7.06057 13.937 6.74572 13.7692 6.52636C13.2867 5.89526 13 5.10642 13 4.25063C13 3.39483 13.2867 2.60599 13.7692 1.9749C13.937 1.75553 13.9401 1.44069 13.7448 1.24542C13.5495 1.05016 13.2306 1.04867 13.0568 1.26326C12.3959 2.0793 12 3.11873 12 4.25063C12 5.38253 12.3959 6.42196 13.0568 7.23799ZM14.4857 2.68959C14.6426 2.46238 14.9637 2.46437 15.159 2.65964C15.3543 2.8549 15.3462 3.16968 15.2137 3.41194C15.0775 3.66097 15 3.94675 15 4.25063C15 4.5545 15.0775 4.84029 15.2137 5.08932C15.3462 5.33158 15.3543 5.64635 15.159 5.84162C14.9637 6.03688 14.6426 6.03887 14.4857 5.81166C14.1794 5.36821 14 4.83037 14 4.25063C14 3.67089 14.1794 3.13305 14.4857 2.68959Z" fill="#212121"/>
</svg>
