<svg width="25" height="24" viewBox="0 0 25 24" fill="none" xmlns="http://www.w3.org/2000/svg">
<path d="M10.5413 13.9951C10.1982 14.4104 9.97476 14.9281 9.92367 15.4956L4.66489 15.4953C4.2513 15.4953 3.91602 15.8306 3.91602 16.2442V16.8219C3.91602 17.3575 4.10713 17.8756 4.45498 18.283C5.63242 19.6618 7.43875 20.4035 9.92362 20.4883C9.97293 21.0584 10.1968 21.5787 10.5413 21.9957L10.4125 21.9964C7.26661 21.9964 4.8806 21.0913 3.3143 19.257C2.73453 18.5781 2.41602 17.7146 2.41602 16.8219V16.2442C2.41602 15.0539 3.34072 14.0796 4.51092 14.0005L4.66489 13.9953L10.5413 13.9951ZM15.1625 11.4954H18.1625C18.8097 11.4954 19.342 11.9872 19.406 12.6176L19.4125 12.7454L19.412 13.995L20.6625 13.9954C21.629 13.9954 22.4125 14.7789 22.4125 15.7454V20.2454C22.4125 21.2119 21.629 21.9954 20.6625 21.9954H12.6625C11.696 21.9954 10.9125 21.2119 10.9125 20.2454V15.7454C10.9125 14.7789 11.696 13.9954 12.6625 13.9954L13.912 13.995L13.9125 12.7454C13.9125 12.0982 14.4043 11.5658 15.0347 11.5018L15.1625 11.4954H18.1625H15.1625ZM20.6625 15.4954H12.6625C12.5244 15.4954 12.4125 15.6073 12.4125 15.7454V20.2454C12.4125 20.3834 12.5244 20.4954 12.6625 20.4954H20.6625C20.8005 20.4954 20.9125 20.3834 20.9125 20.2454V15.7454C20.9125 15.6073 20.8005 15.4954 20.6625 15.4954ZM17.9125 12.9954H15.4125L15.412 13.995H17.912L17.9125 12.9954ZM10.4125 2C13.1739 2 15.4125 4.23858 15.4125 7C15.4125 9.76142 13.1739 12 10.4125 12C7.65105 12 5.41247 9.76142 5.41247 7C5.41247 4.23858 7.65105 2 10.4125 2ZM10.4125 3.5C8.47948 3.5 6.91247 5.067 6.91247 7C6.91247 8.933 8.47948 10.5 10.4125 10.5C12.3455 10.5 13.9125 8.933 13.9125 7C13.9125 5.067 12.3455 3.5 10.4125 3.5Z" fill="#212121"/>
</svg>
