<svg width="24" height="24" viewBox="0 0 24 24" fill="none" xmlns="http://www.w3.org/2000/svg">
<path d="M10.1253 13.9951C9.78221 14.4104 9.55875 14.9281 9.50765 15.4956L4.24888 15.4953C3.83528 15.4953 3.5 15.8306 3.5 16.2442V16.8219C3.5 17.3575 3.69111 17.8756 4.03897 18.283C5.2164 19.6618 7.02273 20.4035 9.5076 20.4883C9.55691 21.0584 9.7808 21.5787 10.1253 21.9957L9.99646 21.9964C6.8506 21.9964 4.46458 21.0913 2.89828 19.257C2.31852 18.5781 2 17.7146 2 16.8219V16.2442C2 15.0539 2.9247 14.0796 4.0949 14.0005L4.24888 13.9953L10.1253 13.9951ZM14.7465 11.4954H17.7465C18.3937 11.4954 18.926 11.9872 18.99 12.6176L18.9965 12.7454L18.996 13.995L20.2465 13.9954C21.213 13.9954 21.9965 14.7789 21.9965 15.7454V20.2454C21.9965 21.2119 21.213 21.9954 20.2465 21.9954H12.2465C11.28 21.9954 10.4965 21.2119 10.4965 20.2454V15.7454C10.4965 14.7789 11.28 13.9954 12.2465 13.9954L13.496 13.995L13.4965 12.7454C13.4965 12.0982 13.9883 11.5658 14.6187 11.5018L14.7465 11.4954H17.7465H14.7465ZM20.2465 15.4954H12.2465C12.1084 15.4954 11.9965 15.6073 11.9965 15.7454V20.2454C11.9965 20.3834 12.1084 20.4954 12.2465 20.4954H20.2465C20.3845 20.4954 20.4965 20.3834 20.4965 20.2454V15.7454C20.4965 15.6073 20.3845 15.4954 20.2465 15.4954ZM17.4965 12.9954H14.9965L14.996 13.995H17.496L17.4965 12.9954ZM9.99646 2C12.7579 2 14.9965 4.23858 14.9965 7C14.9965 9.76142 12.7579 12 9.99646 12C7.23503 12 4.99646 9.76142 4.99646 7C4.99646 4.23858 7.23503 2 9.99646 2ZM9.99646 3.5C8.06346 3.5 6.49646 5.067 6.49646 7C6.49646 8.933 8.06346 10.5 9.99646 10.5C11.9295 10.5 13.4965 8.933 13.4965 7C13.4965 5.067 11.9295 3.5 9.99646 3.5Z" fill="#212121"/>
</svg>
