<svg width="20" height="20" viewBox="0 0 20 20" fill="none" xmlns="http://www.w3.org/2000/svg">
<path d="M2.85355 2.14645C2.65829 1.95118 2.34171 1.95118 2.14645 2.14645C1.95118 2.34171 1.95118 2.65829 2.14645 2.85355L2.73979 3.4469C2.28841 3.8136 2 4.37312 2 5V11C2 12.1046 2.89543 13 4 13H12C12.093 13 12.1846 12.9936 12.2742 12.9814L13.0891 13.7962C12.7515 13.9278 12.3842 14 12 14H4.26758C4.61339 14.5978 5.25973 15 6.00001 15H12C12.6649 15 13.2919 14.8378 13.8436 14.5507L14.578 15.2851C13.8252 15.7389 12.9431 16 12 16H6.26758C6.61339 16.5978 7.25973 17 8.00001 17H12C13.2203 17 14.3555 16.6357 15.3028 16.0099L17.1464 17.8536C17.3417 18.0488 17.6583 18.0488 17.8536 17.8536C18.0488 17.6583 18.0488 17.3417 17.8536 17.1464L2.85355 2.14645ZM11.2929 12H4C3.44772 12 3 11.5523 3 11V5C3 4.64893 3.18091 4.34012 3.45459 4.16169L11.2929 12ZM13 5V10.8789L13.8593 11.7382C13.9501 11.5098 14 11.2607 14 11V5C14 3.89543 13.1046 3 12 3H5.12109L6.12109 4H12C12.5523 4 13 4.44772 13 5ZM14.6069 12.4858L15.3332 13.2121C15.7545 12.5785 16 11.8179 16 11V7.00001C16 6.25973 15.5978 5.61339 15 5.26758V11C15 11.5406 14.857 12.0477 14.6069 12.4858ZM16.0516 13.9305L16.7662 14.6451C17.5401 13.6347 18 12.3711 18 11V9.00001C18 8.25973 17.5978 7.61339 17 7.26758V11C17 12.0946 16.6483 13.1071 16.0516 13.9305Z" fill="#212121"/>
</svg>
