<svg width="48" height="48" viewBox="0 0 48 48" fill="none" xmlns="http://www.w3.org/2000/svg">
<path d="M24 39.5C32.5604 39.5 39.5 32.5604 39.5 24C39.5 23.449 39.4713 22.9047 39.4152 22.3686C39.3406 21.6553 39.8771 21 40.5943 21C41.262 21 41.8377 21.482 41.9057 22.1463C41.9681 22.7557 42 23.3741 42 24C42 33.9411 33.9411 42 24 42C14.0589 42 6 33.9411 6 24C6 14.0589 14.0589 6 24 6C28.8556 6 33.2622 7.92263 36.5 11.0481V8.25C36.5 7.55964 37.0596 7 37.75 7C38.4404 7 39 7.55964 39 8.25V14.75C39 15.4404 38.4404 16 37.75 16H31.25C30.5596 16 30 15.4404 30 14.75C30 14.0596 30.5596 13.5 31.25 13.5H35.4019C32.5694 10.4259 28.5096 8.5 24 8.5C15.4396 8.5 8.5 15.4396 8.5 24C8.5 32.5604 15.4396 39.5 24 39.5Z" fill="#212121"/>
</svg>
