<svg width="28" height="28" viewBox="0 0 28 28" fill="none" xmlns="http://www.w3.org/2000/svg">
<path d="M2.62872 3.68939L2.21967 3.28033C1.92677 2.98743 1.92678 2.51256 2.21967 2.21967C2.51257 1.92677 2.98744 1.92678 3.28033 2.21967L25.7801 24.7198C26.073 25.0127 26.073 25.4876 25.7801 25.7805C25.4872 26.0734 25.0123 26.0734 24.7194 25.7805L19.9407 21.0016L17.998 21.0015V23.4995L19.75 23.5C20.1297 23.5 20.4435 23.7821 20.4932 24.1482L20.5 24.25C20.5 24.6296 20.2178 24.9434 19.8518 24.9931L19.75 25H8.25C7.83579 25 7.5 24.6642 7.5 24.25C7.5 23.8703 7.78215 23.5565 8.14823 23.5068L8.25 23.5L10 23.4995V21.0015L4.25 21.0018C3.00736 21.0018 2 19.9944 2 18.7518V5.24951C2 4.64375 2.23939 4.09389 2.62872 3.68939ZM18.4406 19.5016L3.68996 4.75065C3.5718 4.8832 3.5 5.05797 3.5 5.24951V18.7518C3.5 19.166 3.83579 19.5018 4.25 19.5018L17.2488 19.5L17.277 19.5015L18.4406 19.5016ZM6.1826 2.99951L7.68257 4.49951H13.6243C13.8583 3.964 14.153 3.4611 14.4998 2.99951H6.1826ZM24.1491 20.9663L22.6846 19.5017L23.7488 19.5018C24.163 19.5018 24.4988 19.166 24.4988 18.7518V13.8462C25.0518 13.497 25.556 13.0775 25.9988 12.6003V18.7518C25.9988 19.8578 25.2008 20.7775 24.1491 20.9663ZM27 7.5C27 11.0899 24.0899 14 20.5 14C16.9101 14 14 11.0899 14 7.5C14 3.91015 16.9101 1 20.5 1C24.0899 1 27 3.91015 27 7.5ZM21 3.5C21 3.22386 20.7761 3 20.5 3C20.2239 3 20 3.22386 20 3.5V10.2929L17.8536 8.14645C17.6583 7.95118 17.3417 7.95118 17.1464 8.14645C16.9512 8.34171 16.9512 8.65829 17.1464 8.85355L20.1464 11.8536C20.1944 11.9015 20.2496 11.9377 20.3086 11.9621C20.3667 11.9861 20.4303 11.9996 20.497 12L20.5 12L20.503 12C20.63 11.9992 20.7567 11.9504 20.8536 11.8536L23.8536 8.85355C24.0488 8.65829 24.0488 8.34171 23.8536 8.14645C23.6583 7.95118 23.3417 7.95118 23.1464 8.14645L21 10.2929V3.5ZM16.498 21.0015H11.5V23.5H16.4988L16.498 21.0015Z" fill="#212121"/>
</svg>
