<svg width="24" height="24" viewBox="0 0 24 24" fill="none" xmlns="http://www.w3.org/2000/svg">
<path d="M16.9406 18.0016L20.7194 21.7805C21.0123 22.0734 21.4872 22.0734 21.7801 21.7805C22.073 21.4876 22.073 21.0127 21.7801 20.7198L3.28034 2.21968C2.98745 1.92678 2.51257 1.92677 2.21968 2.21966C1.92678 2.51255 1.92677 2.98743 2.21966 3.28032L2.62872 3.68939C2.23939 4.09389 2 4.64375 2 5.24951V15.7518L2.00519 15.9058C2.08436 17.0766 3.05914 18.0018 4.25 18.0018L8.499 18.0015V20.4995L6.75 20.5L6.64823 20.5068C6.28215 20.5565 6 20.8703 6 21.25C6 21.6642 6.33579 22 6.75 22H17.25L17.3518 21.9931C17.7178 21.9434 18 21.6296 18 21.25C18 20.8357 17.6642 20.5 17.25 20.5L15.499 20.4995V18.0015L16.9406 18.0016ZM21.9988 15.7518C21.9988 16.5823 21.5488 17.3078 20.8794 17.6976L16.0104 12.8285C16.4888 12.9407 16.9875 13 17.5 13C19.2459 13 20.831 12.3117 21.9988 11.1915V15.7518ZM11 6.5C11 7.0125 11.0593 7.51115 11.1715 7.98946L6.1816 2.99951H12.0221C11.3751 4.00991 11 5.21115 11 6.5ZM23 6.5C23 9.53757 20.5376 12 17.5 12C14.4624 12 12 9.53757 12 6.5C12 3.46243 14.4624 1 17.5 1C20.5376 1 23 3.46243 23 6.5ZM18 3.5C18 3.22386 17.7761 3 17.5 3C17.2239 3 17 3.22386 17 3.5V8.29289L15.3536 6.64645C15.1583 6.45118 14.8417 6.45118 14.6464 6.64645C14.4512 6.84171 14.4512 7.15829 14.6464 7.35355L17.1464 9.85355C17.3417 10.0488 17.6583 10.0488 17.8536 9.85355L20.3536 7.35355C20.5488 7.15829 20.5488 6.84171 20.3536 6.64645C20.1583 6.45118 19.8417 6.45118 19.6464 6.64645L18 8.29289V3.5ZM13.998 18.0015L13.999 20.5H9.999L9.998 18.0015H13.998Z" fill="#212121"/>
</svg>
