<svg width="24" height="24" viewBox="0 0 24 24" fill="none" xmlns="http://www.w3.org/2000/svg">
<path d="M22.0016 12.0016C22.0016 6.47785 17.5238 2 12.0001 2C6.47638 2 1.99854 6.47785 1.99854 12.0016C1.99854 17.5253 6.47638 22.0031 12.0001 22.0031C17.5238 22.0031 22.0016 17.5253 22.0016 12.0016ZM7.75124 10.0015C7.75124 9.31152 8.31057 8.75219 9.00053 8.75219C9.6905 8.75219 10.2498 9.31152 10.2498 10.0015C10.2498 10.6914 9.6905 11.2508 9.00053 11.2508C8.31057 11.2508 7.75124 10.6914 7.75124 10.0015ZM13.7512 10.0015C13.7512 9.31152 14.3106 8.75219 15.0005 8.75219C15.6905 8.75219 16.2498 9.31152 16.2498 10.0015C16.2498 10.6914 15.6905 11.2508 15.0005 11.2508C14.3106 11.2508 13.7512 10.6914 13.7512 10.0015ZM10.1359 15.1079C10.619 15.3978 11.2906 15.5635 12 15.5635C12.7094 15.5635 13.381 15.3978 13.8642 15.108C14.2194 14.8949 14.6801 15.0101 14.8932 15.3653C15.1062 15.7205 14.991 16.1812 14.6358 16.3943C13.869 16.8543 12.9156 17.0635 12 17.0635C11.0844 17.0635 10.131 16.8542 9.36413 16.3941C9.00894 16.181 8.89377 15.7203 9.10688 15.3651C9.31999 15.0099 9.78069 14.8947 10.1359 15.1079Z" fill="#212121"/>
</svg>
