<svg width="24" height="24" viewBox="0 0 24 24" fill="none" xmlns="http://www.w3.org/2000/svg">
<path d="M9.52531 3.5721L10.427 5.57782C10.9097 6.65165 10.6553 7.91366 9.79427 8.71661L8.29997 10.1101C8.25629 10.1508 8.22864 10.2058 8.22201 10.2652C8.17765 10.6623 8.44688 11.4357 9.06715 12.51C9.5182 13.2913 9.92644 13.8391 10.2739 14.1473C10.516 14.362 10.6493 14.4084 10.7061 14.3915L12.7164 13.7769C13.842 13.4328 15.0618 13.8431 15.7505 14.7976L17.0312 16.5726C17.8373 17.6898 17.6924 19.2311 16.6921 20.1784L15.8057 21.0178C14.8493 21.9236 13.4877 22.2611 12.219 21.907C9.4649 21.1383 6.99559 18.8141 4.78372 14.9831C2.56877 11.1467 1.79158 7.84222 2.50803 5.07043C2.81769 3.87242 3.69665 2.90908 4.85011 2.4872L5.05646 2.41844L6.22346 2.06668C7.54596 1.66804 8.95896 2.31227 9.52531 3.5721ZM6.65636 3.50285L5.48936 3.85461L5.3308 3.90891C4.65584 4.16847 4.14297 4.73908 3.9603 5.44581C3.35765 7.77732 4.04651 10.7062 6.08276 14.2331C8.11629 17.7552 10.3052 19.8155 12.6223 20.4622C13.3835 20.6747 14.2004 20.4722 14.7743 19.9287L15.6606 19.0893C16.1153 18.6587 16.1812 17.9581 15.8148 17.4503L14.5341 15.6753C14.221 15.2415 13.6666 15.0549 13.1549 15.2114L11.1396 15.8275C9.96987 16.1762 8.9082 15.2347 7.76811 13.26C6.9998 11.9293 6.64171 10.9006 6.73128 10.0987C6.77768 9.68322 6.97125 9.29812 7.27697 9.01303L8.77127 7.61958C9.16266 7.2546 9.27829 6.68096 9.05887 6.19286L8.1572 4.18714C7.89977 3.61449 7.25749 3.32165 6.65636 3.50285ZM20.2499 10.9991L13.6962 10.9986L13.5969 10.9849L13.4949 10.9563L13.4471 10.9362C13.3636 10.9008 13.286 10.8487 13.2182 10.7809C13.1749 10.7376 13.138 10.6904 13.1075 10.6403L13.0587 10.5446L13.0337 10.4783L13.0101 10.3829L12.9989 10.2778L12.9984 3.74523C12.9984 3.33102 13.3341 2.99523 13.7484 2.99523C14.1281 2.99523 14.4418 3.27739 14.4915 3.64346L14.4984 3.74523L14.4975 8.43922L20.7183 2.21592C20.9845 1.94958 21.4012 1.92527 21.6949 2.14305L21.779 2.21565C22.0453 2.48184 22.0696 2.8985 21.8519 3.19217L21.7793 3.27631L15.5595 9.49822L20.2499 9.49912C20.6296 9.49912 20.9434 9.78128 20.993 10.1474L20.9999 10.2491C20.9999 10.6288 20.7177 10.9426 20.3517 10.9923L20.2499 10.9991Z" fill="#212121"/>
</svg>
