<?xml version="1.0" encoding="UTF-8"?>
<svg width="24px" height="24px" viewBox="0 0 24 24" version="1.1" xmlns="http://www.w3.org/2000/svg" xmlns:xlink="http://www.w3.org/1999/xlink">
    <!-- Generator: Sketch 59.1 (86144) - https://sketch.com -->
    <title>ic_fluent_megaphone_off_24_regular</title>
    <desc>Created with Sketch.</desc>
    <g id="ðŸ”-Product-Icons" stroke="none" stroke-width="1" fill="none" fill-rule="evenodd">
        <g id="ic_fluent_megaphone_off_24_regular" fill="#212121" fill-rule="nonzero">
            <path d="M21.7803301,2.21966991 C22.0465966,2.48593648 22.0708027,2.90260016 21.8529482,3.19621165 L21.7803301,3.28033009 L20.7917382,4.26870366 C21.3121994,4.54063134 21.7263011,5.01474609 21.9067845,5.62209603 C21.968603,5.8301232 22,6.04599972 22,6.26301775 L22,17.7384239 C22,18.9810645 20.9926407,19.9884239 19.75,19.9884239 C19.5329217,19.9884239 19.3169859,19.9570094 19.1089059,19.8951571 L13.5950108,18.2554848 C12.9377847,19.6005555 11.5584441,20.4991691 10,20.4991691 C8.52601609,20.4991691 7.23824279,19.7019067 6.54438667,18.5150885 L3.28033009,21.7803301 C2.98743687,22.0732233 2.51256313,22.0732233 2.21966991,21.7803301 C1.95340335,21.5140635 1.9291973,21.0973998 2.14705176,20.8037883 L2.21966991,20.7196699 L20.7196699,2.21966991 C21.0125631,1.9267767 21.4874369,1.9267767 21.7803301,2.21966991 Z M8.36,16.7 L7.66518693,17.3947244 C8.02533263,18.3330785 8.93487941,18.9991691 10,18.9991691 C10.8852368,18.9991691 11.678343,18.5349656 12.1238436,17.8196891 L8.36,16.7 Z M19.635864,5.52166279 L19.508,5.552 L9.567,15.493 L19.536302,18.4573349 C19.605662,18.4779524 19.6776406,18.4884239 19.75,18.4884239 C20.1642136,18.4884239 20.5,18.1526374 20.5,17.7384239 L20.5,6.26301775 C20.5,6.19067841 20.4895343,6.11871957 20.4689282,6.04937718 C20.3607703,5.68541187 20.0009199,5.46498962 19.635864,5.52166279 Z M15.693,5.121 L13.466,7.348 L4.03635943,10.1501532 C3.71818258,10.2447044 3.5,10.5371531 3.5,10.8690814 L3.5,13.1310119 C3.5,13.4629181 3.71815394,13.7553527 4.03630197,13.849923 L6.294,14.52 L5.087,15.727 L3.6089059,15.2877452 C2.65446183,15.0040344 2,14.1267304 2,13.1310119 L2,10.8690814 C2,9.87329639 2.65454775,8.99595035 3.60907828,8.71229691 L15.693,5.121 Z" id="ðŸŽ¨-Color"></path>
        </g>
    </g>
</svg>