<svg width="24" height="24" viewBox="0 0 24 24" fill="none" xmlns="http://www.w3.org/2000/svg">
<path d="M6.08664 10.75C6.56096 8.04276 8.92458 6 11.75 6C14.5754 6 16.939 8.04276 17.4134 10.75L17.5 10.75C19.7091 10.75 21.5 12.5409 21.5 14.75C21.5 16.9591 19.7091 18.75 17.5 18.75H6C3.79086 18.75 2 16.9591 2 14.75C2 12.5409 3.79086 10.75 6.00002 10.75L6.08664 10.75ZM11.75 7.5C9.48202 7.5 7.61629 9.28125 7.50523 11.5369C7.48557 11.9363 7.156 12.25 6.75612 12.25L6 12.25C4.61929 12.25 3.5 13.3693 3.5 14.75C3.5 16.1307 4.61929 17.25 6 17.25H17.5C18.8807 17.25 20 16.1307 20 14.75C20 13.3693 18.8807 12.25 17.5 12.25L16.7439 12.25C16.344 12.25 16.0144 11.9363 15.9948 11.5369C15.8837 9.28125 14.018 7.5 11.75 7.5Z" fill="#212121"/>
</svg>
