<svg width="24" height="24" viewBox="0 0 24 24" fill="none" xmlns="http://www.w3.org/2000/svg">
<path d="M10.0297 3.65893C10.8859 2.1111 13.1111 2.11108 13.9673 3.65888L21.7131 17.6603C22.5427 19.16 21.4581 20.9995 19.7443 20.9995H4.25323C2.53945 20.9995 1.45483 19.16 2.28438 17.6604L10.0297 3.65893Z" fill="url(#paint0_linear_378174_9756)"/>
<path d="M12.9973 17.0009C12.9973 16.4494 12.5502 16.0022 11.9987 16.0022C11.4471 16.0022 11 16.4494 11 17.0009C11 17.5524 11.4471 17.9996 11.9987 17.9996C12.5502 17.9996 12.9973 17.5524 12.9973 17.0009ZM12.7381 9.14764C12.6882 8.7816 12.3742 8.4997 11.9945 8.5C11.5802 8.50033 11.2447 8.83639 11.2451 9.2506L11.2487 13.7522L11.2556 13.854C11.3055 14.22 11.6196 14.5019 11.9993 14.5016C12.4135 14.5013 12.749 14.1652 12.7487 13.751L12.7451 9.2494L12.7381 9.14764Z" fill="url(#paint1_linear_378174_9756)"/>
<defs>
<linearGradient id="paint0_linear_378174_9756" x1="5.12461" y1="-0.392807" x2="16.7187" y2="23.4768" gradientUnits="userSpaceOnUse">
<stop stop-color="#FFCD0F"/>
<stop offset="1" stop-color="#FE8401"/>
</linearGradient>
<linearGradient id="paint1_linear_378174_9756" x1="9.33556" y1="8.5" x2="13.7522" y2="18.4051" gradientUnits="userSpaceOnUse">
<stop stop-color="#4A4A4A"/>
<stop offset="1" stop-color="#212121"/>
</linearGradient>
</defs>
</svg>
