<svg width="24" height="24" viewBox="0 0 24 24" fill="none" xmlns="http://www.w3.org/2000/svg">
<path d="M14.75 4.75L14.75 16.25C14.75 16.6642 15.0858 17 15.5 17C15.9142 17 16.25 16.6642 16.25 16.25V11H18.25C18.6642 11 19 10.6642 19 10.25C19 9.83579 18.6642 9.5 18.25 9.5H16.25V4.75C16.25 4.33579 15.9142 4 15.5 4C15.0858 4 14.75 4.33579 14.75 4.75Z" fill="#212121"/>
<path d="M5.00001 6.75C5.00001 6.33579 5.3358 6 5.75001 6H12.25C12.6642 6 13 6.33579 13 6.75C13 10.3958 10.4659 13.6447 5.96164 14.9695C5.56426 15.0864 5.14737 14.859 5.03049 14.4616C4.91361 14.0642 5.14101 13.6474 5.53839 13.5305C9.18254 12.4587 11.1384 10.0761 11.4543 7.5H5.75001C5.3358 7.5 5.00001 7.16421 5.00001 6.75Z" fill="#212121"/>
<path d="M5.75 18.5C5.33579 18.5 5 18.8358 5 19.25C5 19.6642 5.33579 20 5.75 20H18.25C18.6642 20 19 19.6642 19 19.25C19 18.8358 18.6642 18.5 18.25 18.5H5.75Z" fill="#212121"/>
</svg>
