<svg width="21" height="20" viewBox="0 0 21 20" fill="none" xmlns="http://www.w3.org/2000/svg">
<path d="M9.41602 2C7.20688 2 5.41602 3.79086 5.41602 6C5.41602 8.20914 7.20688 10 9.41602 10C11.6252 10 13.416 8.20914 13.416 6C13.416 3.79086 11.6252 2 9.41602 2ZM6.41602 6C6.41602 4.34315 7.75916 3 9.41602 3C11.0729 3 12.416 4.34315 12.416 6C12.416 7.65685 11.0729 9 9.41602 9C7.75916 9 6.41602 7.65685 6.41602 6ZM4.42474 11C3.31917 11 2.41602 11.8869 2.41602 13C2.41602 14.6912 3.24883 15.9663 4.55101 16.7966C5.83298 17.614 7.56127 18 9.41602 18C9.82687 18 10.2315 17.9811 10.6265 17.9427C10.389 17.6472 10.1814 17.3266 10.0083 16.9855C9.81399 16.9951 9.61643 17 9.41602 17C7.68091 17 6.1592 16.636 5.08863 15.9534C4.03828 15.2837 3.41602 14.3088 3.41602 13C3.41602 12.4467 3.86388 12 4.42474 12L10.0157 12C10.1986 11.6422 10.4195 11.3071 10.6732 11L4.42474 11ZM14.916 19C17.4013 19 19.416 16.9853 19.416 14.5C19.416 12.0147 17.4013 10 14.916 10C12.4307 10 10.416 12.0147 10.416 14.5C10.416 16.9853 12.4307 19 14.916 19ZM14.916 12C15.1922 12 15.416 12.2239 15.416 12.5V14H16.916C17.1922 14 17.416 14.2239 17.416 14.5C17.416 14.7761 17.1922 15 16.916 15H15.416V16.5C15.416 16.7761 15.1922 17 14.916 17C14.6399 17 14.416 16.7761 14.416 16.5V15H12.916C12.6399 15 12.416 14.7761 12.416 14.5C12.416 14.2239 12.6399 14 12.916 14H14.416V12.5C14.416 12.2239 14.6399 12 14.916 12Z" fill="#212121"/>
</svg>
