<svg width="20" height="20" viewBox="0 0 20 20" fill="none" xmlns="http://www.w3.org/2000/svg">
<path d="M6 2C4.89543 2 4 2.89543 4 4V16C4 17.1046 4.89543 18 6 18H15.5C15.7761 18 16 17.7761 16 17.5C16 17.2239 15.7761 17 15.5 17H6C5.44772 17 5 16.5523 5 16H15C15.5523 16 16 15.5523 16 15V4C16 2.89543 15.1046 2 14 2H6ZM7 9C7 7.94131 7.30576 6.96196 7.82537 6.23451C8.34429 5.50801 9.10626 5 10 5C10.8937 5 11.6557 5.50801 12.1746 6.23451C12.6942 6.96196 13 7.94131 13 9C13 10.0587 12.6942 11.038 12.1746 11.7655C11.6557 12.492 10.8937 13 10 13C9.10626 13 8.34429 12.492 7.82537 11.7655C7.30576 11.038 7 10.0587 7 9ZM11.9718 9.5C11.8957 10.1668 11.6708 10.7504 11.3609 11.1843C10.975 11.7245 10.487 12 10 12C9.51303 12 9.025 11.7245 8.6391 11.1843C8.32921 10.7504 8.1043 10.1668 8.0282 9.5H11.9718ZM11.9718 8.5C11.8957 7.83318 11.6708 7.2496 11.3609 6.81575C10.975 6.27549 10.487 6 10 6C9.51303 6 9.025 6.27549 8.6391 6.81575C8.32921 7.2496 8.1043 7.83318 8.0282 8.5H11.9718Z" fill="#212121"/>
</svg>
