<svg width="20" height="20" viewBox="0 0 20 20" fill="none" xmlns="http://www.w3.org/2000/svg">
<path d="M9 5.49988C9 3.1836 10.75 1.27607 13 1.02734V4.79277L12.3536 4.14633C12.1583 3.95106 11.8417 3.95106 11.6464 4.14633C11.4512 4.34159 11.4512 4.65817 11.6464 4.85343L13.1464 6.35343C13.3417 6.5487 13.6583 6.5487 13.8536 6.35343L15.3536 4.85343C15.5488 4.65817 15.5488 4.34159 15.3536 4.14633C15.1583 3.95106 14.8417 3.95106 14.6464 4.14633L14 4.79277V1.02734C16.25 1.27607 18 3.1836 18 5.49988C18 7.98516 15.9853 9.99988 13.5 9.99988C11.0147 9.99988 9 7.98516 9 5.49988ZM11 7.49988C11 7.77602 11.2239 7.99988 11.5 7.99988H15.5C15.7761 7.99988 16 7.77602 16 7.49988C16 7.22374 15.7761 6.99988 15.5 6.99988H11.5C11.2239 6.99988 11 7.22374 11 7.49988ZM6 4H8.20703C8.11588 4.32228 8.05337 4.65659 8.02242 5H6C4.89543 5 4 5.89543 4 7H8.20703C8.30564 7.34864 8.43777 7.68321 8.59971 8H4V11H7.5C7.77614 11 8 11.2239 8 11.5C8 12.6046 8.89543 13.5 10 13.5C11.1046 13.5 12 12.6046 12 11.5C12 11.2239 12.2239 11 12.5 11H16L16 10.4003C16.3578 10.2174 16.6929 9.99647 17 9.74284V15C17 16.6569 15.6569 18 14 18H6C4.34315 18 3 16.6569 3 15V7C3 5.34315 4.34315 4 6 4Z" fill="#212121"/>
</svg>
