<svg width="24" height="24" viewBox="0 0 24 24" fill="none" xmlns="http://www.w3.org/2000/svg">
<path d="M6.25 1.75V3H2.75C2.33579 3 2 3.33579 2 3.75C2 4.16421 2.33579 4.5 2.75 4.5H11.25C11.6642 4.5 12 4.16421 12 3.75C12 3.33579 11.6642 3 11.25 3H7.75V1.75C7.75 1.33579 7.41421 1 7 1C6.58579 1 6.25 1.33579 6.25 1.75ZM2 14.75C2 14.3358 2.33579 14 2.75 14H10.25C10.6642 14 11 14.3358 11 14.75V22.25C11 22.6642 10.6642 23 10.25 23C9.83579 23 9.5 22.6642 9.5 22.25V15.5H2.75C2.33579 15.5 2 15.1642 2 14.75ZM12 9C12 11.2091 9.76142 13 7 13C4.23858 13 2 11.2091 2 9C2 6.79086 4.23858 5 7 5C9.76142 5 12 6.79086 12 9ZM10.5 9C10.5 7.91434 9.26264 6.5 7 6.5C4.73736 6.5 3.5 7.91434 3.5 9C3.5 10.0857 4.73736 11.5 7 11.5C9.26264 11.5 10.5 10.0857 10.5 9ZM17.25 2C17.6642 2 18 2.33579 18 2.75V19.4393L20.2197 17.2197C20.5126 16.9268 20.9874 16.9268 21.2803 17.2197C21.5732 17.5126 21.5732 17.9874 21.2803 18.2803L17.7803 21.7803C17.4874 22.0732 17.0126 22.0732 16.7197 21.7803L13.2197 18.2803C12.9268 17.9874 12.9268 17.5126 13.2197 17.2197C13.5126 16.9268 13.9874 16.9268 14.2803 17.2197L16.5 19.4393V2.75C16.5 2.33579 16.8358 2 17.25 2Z" fill="#212121"/>
</svg>
