<svg width="24" height="24" viewBox="0 0 24 24" fill="none" xmlns="http://www.w3.org/2000/svg">
<path d="M14.75 20.5C15.1642 20.5 15.5 20.8358 15.5 21.25C15.5 21.6642 15.1642 22 14.75 22H2.75C2.33579 22 2 21.6642 2 21.25C2 20.8358 2.33579 20.5 2.75 20.5H14.75ZM2.21973 2.21973C2.51262 1.92684 2.98738 1.92684 3.28027 2.21973L21.7803 20.7197L21.8311 20.7764C22.0715 21.0709 22.0548 21.5056 21.7803 21.7803C21.5056 22.0549 21.0709 22.0715 20.7764 21.8311L20.7197 21.7803L16.9395 18H10.333L11.1221 16.5H15.4395L12.9395 14H11.3076L9.41406 17.5996C9.28438 17.846 9.02843 18 8.75 18C8.47156 18 8.21564 17.846 8.08594 17.5996L6.19141 14H4.25C3.00736 14 2 12.9926 2 11.75V4.25C2 3.90283 2.08023 3.57481 2.2207 3.28125L2.21973 3.28027C1.92684 2.98738 1.92684 2.51262 2.21973 2.21973ZM7.16699 18H2.75C2.33579 18 2 17.6642 2 17.25C2 16.8358 2.33579 16.5 2.75 16.5H6.37793L7.16699 18ZM21.25 16.5C21.6642 16.5 22 16.8358 22 17.25C22 17.6642 21.6642 18 21.25 18H21.1816L19.6816 16.5H21.25ZM13.25 2C14.4926 2 15.5 3.00736 15.5 4.25V11.75C15.5 11.9249 15.4772 12.0944 15.4395 12.2578L11.9004 8.71875C12.2316 8.06079 12.5 7.22869 12.5 6.25C12.5 5.83579 12.1642 5.5 11.75 5.5H10.25C9.83579 5.5 9.5 5.83579 9.5 6.25V6.31836L5.18164 2H13.25ZM5.5 7.25C5.5 7.66421 5.83579 8 6.25 8C6.39062 8 6.52229 7.96089 6.63477 7.89355C6.3322 8.55753 5.92049 9.01896 5.71973 9.21973C5.42683 9.51262 5.42683 9.98738 5.71973 10.2803C6.01262 10.5732 6.48738 10.5732 6.78027 10.2803C6.99943 10.0611 7.43707 9.57918 7.81641 8.87695L5.5 6.56055V7.25Z" fill="#212121"/>
</svg>
