<svg width="24" height="24" viewBox="0 0 24 24" fill="none" xmlns="http://www.w3.org/2000/svg">
<path d="M6.5 12C9.53757 12 12 14.4624 12 17.5C12 20.5376 9.53757 23 6.5 23C3.46243 23 1 20.5376 1 17.5C1 14.4624 3.46243 12 6.5 12ZM16.7488 2C17.9915 2 18.9988 3.00736 18.9988 4.25V19.75C18.9988 20.9926 17.9915 22 16.7488 22L11.1896 22.0008C12.3109 20.8328 13 19.2469 13 17.5C13 13.9101 10.0899 11 6.5 11C5.61413 11 4.76965 11.1772 4 11.4981V4.25C4 3.00736 5.00736 2 6.25 2H16.7488ZM6.5 19.88C6.15509 19.88 5.87549 20.1596 5.87549 20.5045C5.87549 20.8494 6.15509 21.129 6.5 21.129C6.84491 21.129 7.12451 20.8494 7.12451 20.5045C7.12451 20.1596 6.84491 19.88 6.5 19.88ZM6.50004 14.0031C6.25458 14.0031 6.05044 14.18 6.0081 14.4132L6.00004 14.5031V18.5006L6.0081 18.5905C6.05044 18.8237 6.25458 19.0006 6.50004 19.0006C6.7455 19.0006 6.94965 18.8237 6.99199 18.5905L7.00004 18.5006V14.5031L6.99199 14.4132C6.94965 14.18 6.7455 14.0031 6.50004 14.0031ZM20.75 15.0019C21.1297 15.0019 21.4435 15.2841 21.4932 15.6502L21.5 15.7519V17.25C21.5 17.6297 21.2178 17.9435 20.8518 17.9932L20.75 18H20V15.0019H20.75ZM20.75 11.0019C21.1297 11.0019 21.4435 11.2841 21.4932 11.6502L21.5 11.7519V13.25C21.5 13.6297 21.2178 13.9435 20.8518 13.9932L20.75 14H20V11.0019H20.75ZM20.75 7.00194C21.1297 7.00194 21.4435 7.28409 21.4932 7.65017L21.5 7.75194V9.25C21.5 9.6297 21.2178 9.94349 20.8518 9.99315L20.75 10H20V7.00194H20.75ZM14.748 5.50058H8.24809C7.86839 5.50058 7.5546 5.78273 7.50493 6.14881L7.49809 6.25058V7.75097C7.49809 8.13067 7.78024 8.44446 8.14632 8.49412L8.24809 8.50097H14.748C15.1277 8.50097 15.4415 8.21882 15.4911 7.85274L15.498 7.75097V6.25058C15.498 5.83637 15.1622 5.50058 14.748 5.50058Z" fill="#212121"/>
</svg>
