<svg width="48" height="48" viewBox="0 0 48 48" fill="none" xmlns="http://www.w3.org/2000/svg">
<path d="M17.2792 4.70416C19.4002 4.39327 21.7135 5.0034 23.6299 6.4407C24.8888 7.38482 25.5196 8.94953 25.2678 10.5028L24.5678 14.8195C24.2551 16.7475 22.765 18.2712 20.8446 18.6269L18.8121 19.0033C17.7485 19.2002 16.919 19.8541 16.7073 20.7579C16.2402 22.7517 16.2482 25.2644 16.7097 27.241C16.9207 28.1449 17.7489 28.7989 18.8121 28.9957L20.8446 29.3721C22.765 29.7278 24.2551 31.2515 24.5678 33.1795L25.2227 37.2181C25.5021 38.9412 24.7628 40.671 23.3244 41.66C21.4414 42.9545 19.2152 43.5417 17.1641 43.2771C15.0975 43.0105 13.2232 41.8774 12.1199 39.781C10.2998 36.3228 8.625 31.2919 8.625 24.4995C8.625 17.6527 10.3267 12.2788 12.1538 8.48377C13.2227 6.26377 15.1446 5.01706 17.2792 4.70416ZM33.1339 13.8656C32.6457 13.3775 31.8543 13.3775 31.3661 13.8656C30.878 14.3538 30.878 15.1452 31.3661 15.6334L37.7322 21.9995H23.75C23.0596 21.9995 22.5 22.5592 22.5 23.2495C22.5 23.9399 23.0596 24.4995 23.75 24.4995H37.7322L31.3661 30.8656C30.878 31.3538 30.878 32.1452 31.3661 32.6334C31.8543 33.1215 32.6457 33.1215 33.1339 32.6334L41.6339 24.1334C42.122 23.6452 42.122 22.8538 41.6339 22.3656L33.1339 13.8656Z" fill="#212121"/>
</svg>
