<svg width="20" height="20" viewBox="0 0 20 20" fill="none" xmlns="http://www.w3.org/2000/svg">
<path d="M6.75 9C8.54493 9 10 7.54493 10 5.75C10 3.95507 8.54493 2.5 6.75 2.5C4.95507 2.5 3.5 3.95507 3.5 5.75C3.5 7.54493 4.95507 9 6.75 9ZM17 6.5C17 7.88071 15.8807 9 14.5 9C13.1193 9 12 7.88071 12 6.5C12 5.11929 13.1193 4 14.5 4C15.8807 4 17 5.11929 17 6.5ZM9 14.5C9 12.7955 9.77535 11.2721 10.9926 10.2633C10.7001 10.0958 10.3612 10 10 10H3.5C2.39543 10 1.5 10.8954 1.5 12C1.5 12 1.5 16 6.75 16C7.70277 16 8.48263 15.8683 9.12097 15.6526C9.04171 15.2809 9 14.8953 9 14.5ZM19 14.5C19 16.9853 16.9853 19 14.5 19C12.0147 19 10 16.9853 10 14.5C10 12.0147 12.0147 10 14.5 10C16.9853 10 19 12.0147 19 14.5ZM16.8536 12.6464C16.6583 12.4512 16.3417 12.4512 16.1464 12.6464L13.5 15.2929L12.8536 14.6464C12.6583 14.4512 12.3417 14.4512 12.1464 14.6464C11.9512 14.8417 11.9512 15.1583 12.1464 15.3536L13.1464 16.3536C13.3417 16.5488 13.6583 16.5488 13.8536 16.3536L16.8536 13.3536C17.0488 13.1583 17.0488 12.8417 16.8536 12.6464Z" fill="#212121"/>
</svg>
