<svg width="16" height="16" viewBox="0 0 16 16" fill="none" xmlns="http://www.w3.org/2000/svg">
<path d="M7.99996 2C11.3137 2 14 4.68629 14 8C14 11.3137 11.3137 14 7.99996 14L7.99996 11C7.99996 10.0681 7.36258 9.28503 6.49996 9.06301V9C6.49996 7.34315 5.15682 6 3.49996 6C3.05502 6 2.63269 6.09687 2.25293 6.27066C2.99534 3.79998 5.28745 2 7.99996 2ZM7.50149 5C7.22535 5 7.00149 5.22386 7.00149 5.5V8.5C7.00149 8.77614 7.22535 9 7.50149 9H9.49996C9.7761 9 9.99996 8.77614 9.99996 8.5C9.99996 8.22386 9.7761 8 9.49996 8H8.00149V5.5C8.00149 5.22386 7.77763 5 7.50149 5ZM1.5 9V10H1C0.447716 10 0 10.4477 0 11V15C0 15.5523 0.447715 16 1 16H6C6.55228 16 7 15.5523 7 15V11C7 10.4477 6.55228 10 6 10H5.5V9C5.5 7.89543 4.60457 7 3.5 7C2.39543 7 1.5 7.89543 1.5 9ZM2.5 10V9C2.5 8.44772 2.94772 8 3.5 8C4.05228 8 4.5 8.44772 4.5 9V10H2.5ZM3.5 12.25C3.91421 12.25 4.25 12.5858 4.25 13C4.25 13.4142 3.91421 13.75 3.5 13.75C3.08579 13.75 2.75 13.4142 2.75 13C2.75 12.5858 3.08579 12.25 3.5 12.25Z" fill="#212121"/>
</svg>
