<svg width="24" height="24" viewBox="0 0 24 24" fill="none" xmlns="http://www.w3.org/2000/svg">
<path d="M15.25 13.5H11.25C10.836 13.5 10.5 13.164 10.5 12.75V6.75C10.5 6.336 10.836 6 11.25 6C11.664 6 12 6.336 12 6.75V12H15.25C15.664 12 16 12.336 16 12.75C16 13.164 15.664 13.5 15.25 13.5ZM12 2C6.478 2 2 6.478 2 12C2 12.4265 2.02671 12.8467 2.07855 13.2592C2.41843 11.682 3.82118 10.5 5.5 10.5C7.433 10.5 9 12.067 9 14V14.05C10.1411 14.2816 11 15.2905 11 16.5V21.5C11 21.6524 10.9864 21.8017 10.9602 21.9466C11.302 21.9819 11.6489 22 12 22C17.522 22 22 17.522 22 12C22 6.478 17.522 2 12 2ZM3 15V14C3 12.6193 4.11929 11.5 5.5 11.5C6.88071 11.5 8 12.6193 8 14V15H8.5C9.32843 15 10 15.6716 10 16.5V21.5C10 22.3284 9.32843 23 8.5 23H2.5C1.67157 23 1 22.3284 1 21.5V16.5C1 15.6716 1.67157 15 2.5 15H3ZM4.5 14V15H6.5V14C6.5 13.4477 6.05228 13 5.5 13C4.94772 13 4.5 13.4477 4.5 14ZM6.5 19C6.5 18.4477 6.05228 18 5.5 18C4.94772 18 4.5 18.4477 4.5 19C4.5 19.5523 4.94772 20 5.5 20C6.05228 20 6.5 19.5523 6.5 19Z" fill="#212121"/>
</svg>
