<svg width="32" height="32" viewBox="0 0 32 32" fill="none" xmlns="http://www.w3.org/2000/svg">
<path d="M6.5 2C4.01472 2 2 4.01472 2 6.5V21.5C2 23.9853 4.01472 26 6.5 26H11.5V24H6.5C5.11929 24 4 22.8807 4 21.5V6.5C4 5.11929 5.11929 4 6.5 4H21.5C22.8807 4 24 5.11929 24 6.5V11.5H26V6.5C26 4.01472 23.9853 2 21.5 2H6.5ZM14.3179 12H8C7.44772 12 7 12.4477 7 13C7 13.5523 7.44772 14 8 14H12.1689C12.668 13.1372 13.4174 12.4375 14.3179 12ZM8 8C7.44772 8 7 8.44772 7 9C7 9.55228 7.44772 10 8 10H20C20.5523 10 21 9.55228 21 9C21 8.44772 20.5523 8 20 8H8ZM13 16.5C13 14.567 14.567 13 16.5 13H26.5C28.433 13 30 14.567 30 16.5V26.5C30 28.433 28.433 30 26.5 30H16.5C14.567 30 13 28.433 13 26.5V16.5ZM15 20V26.5C15 27.3284 15.6716 28 16.5 28H26.5C27.3284 28 28 27.3284 28 26.5V20H15ZM28 18V16.5C28 15.6716 27.3284 15 26.5 15H16.5C15.6716 15 15 15.6716 15 16.5V18H28Z" fill="#212121"/>
</svg>
