<svg width="24" height="24" viewBox="0 0 24 24" fill="none" xmlns="http://www.w3.org/2000/svg">
<path d="M16.4998 3.75049C16.4998 3.4819 16.5603 3.22744 16.6684 3H4.25L4.09595 3.00519C2.92516 3.08436 2 4.05914 2 5.25V15.7523L2.00519 15.9063C2.08436 17.0771 3.05914 18.0023 4.25 18.0023L8.499 18.002V20.5L6.75 20.5004L6.64823 20.5073C6.28215 20.5569 6 20.8707 6 21.2504C6 21.6647 6.33579 22.0004 6.75 22.0004H17.25L17.3518 21.9936C17.7178 21.9439 18 21.6301 18 21.2504C18 20.8362 17.6642 20.5004 17.25 20.5004L15.499 20.5V18.002L19.7488 18.0023L19.9029 17.9971C21.0737 17.9179 21.9988 16.9431 21.9988 15.7523V9.50049H18.2498C17.8298 9.50049 17.4444 9.35256 17.1428 9.10597L16.7032 10.4248C16.3087 11.6083 15.2335 12.424 13.9998 12.4954V13.2505C13.9998 14.217 13.2163 15.0005 12.2498 15.0005H8.25C7.2835 15.0005 6.5 14.217 6.5 13.2505V9.25049C6.5 8.28399 7.2835 7.50049 8.25 7.50049H12.2498C12.8671 7.50049 13.4097 7.82007 13.7212 8.30281L14.2968 6.57622C14.6368 5.55608 15.4827 4.8092 16.4998 4.57671V3.75049ZM13.998 18.002L13.999 20.5004H9.999L9.998 18.002H13.998ZM18.2498 3C17.8356 3 17.4998 3.33579 17.4998 3.75V5.5H17.1767C16.3005 5.5 15.5225 6.0607 15.2454 6.89196L14.3315 9.63369C14.2586 9.85245 14.0539 10 13.8233 10H12.9998V9.25C12.9998 8.83579 12.664 8.5 12.2498 8.5H8.25C7.83579 8.5 7.5 8.83579 7.5 9.25V13.25C7.5 13.6642 7.83579 14 8.25 14H12.2498C12.664 14 12.9998 13.6642 12.9998 13.25V11.5H13.8233C14.6995 11.5 15.4775 10.9393 15.7546 10.108L16.6685 7.36631C16.7414 7.14755 16.9461 7 17.1767 7H17.4998V7.75C17.4998 8.16421 17.8356 8.5 18.2498 8.5H22.2496C22.6638 8.5 22.9996 8.16421 22.9996 7.75V3.75C22.9996 3.33579 22.6638 3 22.2496 3H18.2498Z" fill="#212121"/>
</svg>
