<svg width="16" height="16" viewBox="0 0 16 16" fill="none" xmlns="http://www.w3.org/2000/svg">
<path d="M2 4.5C2 3.67163 2.67163 3 3.5 3H7.49475C8.32312 3 8.99475 3.67163 8.99475 4.5V5H12.5499C13.2837 5.02588 14 5.54712 14 6.50928V9.54004C14 10.3684 13.3284 11.04 12.5 11.04H11.1127L10.9669 11.7861C10.8053 12.614 10.1527 13.0024 9.5 12.9993L3.5 13C2.67163 13 2 12.3284 2 11.5V4.5ZM8.99475 11.4988C8.99475 12.104 9.86938 12.1887 9.98547 11.5945L10.8774 7.0144L10.8778 7.01245L11.0262 6.22949L11.0325 6.198L11.0446 6.14429L11.0558 6.09985C11.0648 6.06567 11.0748 6.03247 11.0857 6H8.99475V11.4988ZM4.48438 5.98999C4.7605 5.98999 4.98438 5.76611 4.98438 5.48999C4.98438 5.21387 4.7605 4.98999 4.48438 4.98999C4.20825 4.98999 3.98438 5.21387 3.98438 5.48999C3.98438 5.76611 4.20825 5.98999 4.48438 5.98999ZM4.49438 7.48999C4.21826 7.48999 3.99438 7.71387 3.99438 7.98999C3.99438 8.26611 4.21826 8.48999 4.49438 8.48999H6.48438C6.52954 8.48999 6.57336 8.48413 6.61499 8.4729C6.64319 8.46533 6.67029 8.45532 6.69629 8.44312C6.73242 8.42627 6.76624 8.40503 6.797 8.38037C6.91125 8.28857 6.98438 8.14795 6.98438 7.98999C6.98438 7.71387 6.7605 7.48999 6.48438 7.48999H4.49438ZM4.49438 10C4.21826 10 3.99438 10.2239 3.99438 10.5C3.99438 10.7761 4.21826 11 4.49438 11H6.48438C6.7605 11 6.98438 10.7761 6.98438 10.5C6.98438 10.3359 6.90527 10.1902 6.78308 10.0991C6.77148 10.0906 6.75952 10.0823 6.74719 10.0747L6.72534 10.062C6.70593 10.0513 6.68579 10.0417 6.66504 10.0337C6.64294 10.0251 6.62 10.0181 6.59644 10.0127L6.58557 10.0105C6.5603 10.0051 6.5343 10.0017 6.50769 10.0005L6.48438 10H4.49438Z" fill="#212121"/>
</svg>
