<svg width="24" height="24" viewBox="0 0 24 24" fill="none" xmlns="http://www.w3.org/2000/svg">
<path d="M2.74707 15C3.12677 15 3.44056 15.2822 3.49022 15.6482L3.49707 15.75V19.2523L3.50352 19.3801C3.56327 19.9684 4.03097 20.4361 4.61927 20.4959L4.74707 20.5023H8.24707L8.34884 20.5092C8.71492 20.5588 8.99707 20.8726 8.99707 21.2523C8.99707 21.632 8.71492 21.9458 8.34884 21.9955L8.24707 22.0023H4.74707L4.57955 21.9973C3.19641 21.9142 2.08889 20.8088 2.0025 19.4265L1.99707 19.2523V15.75L2.00392 15.6482C2.05358 15.2822 2.36737 15 2.74707 15ZM21.2471 15C21.6268 15 21.9406 15.2822 21.9902 15.6482L21.9971 15.75V19.2523C21.9971 20.7149 20.8554 21.9107 19.4146 21.9973L19.2471 22.0023H15.7471C15.3329 22.0023 14.9971 21.6665 14.9971 21.2523C14.9971 20.8726 15.2792 20.5588 15.6453 20.5092L15.7471 20.5023H19.2471C19.8943 20.5023 20.4266 20.0105 20.4906 19.3801L20.4971 19.2523V15.75C20.4971 15.3358 20.8329 15 21.2471 15ZM15.2501 6C16.7127 6 17.9085 7.1417 17.9951 8.58248L18.0001 8.75V15.25C18.0001 16.7125 16.8584 17.9084 15.4177 17.995L15.2501 18H8.75013C7.2876 18 6.09172 16.8583 6.00515 15.4175L6.00013 15.25V8.75C6.00013 7.28747 7.14183 6.0916 8.58261 6.00502L8.75013 6H15.2501ZM16.5001 10.995H7.50007V15.25C7.50007 15.8972 7.992 16.4295 8.62232 16.4935L8.75013 16.5H15.2501C15.8973 16.5 16.4297 16.0081 16.4937 15.3778L16.5001 15.25V10.995ZM15.2501 7.5H8.75013C8.10292 7.5 7.57059 7.99187 7.50658 8.62219L7.50007 8.75V9.495H16.5001V8.75C16.5001 8.10279 16.0083 7.57047 15.3779 7.50645L15.2501 7.5ZM8.24707 2C8.66128 2 8.99707 2.33579 8.99707 2.75C8.99707 3.1297 8.71492 3.44349 8.34884 3.49315L8.24707 3.5H4.74707C4.09986 3.5 3.56754 3.99187 3.50352 4.62219L3.49707 4.75V8.25234C3.49707 8.66655 3.16128 9.00234 2.74707 9.00234C2.36737 9.00234 2.05358 8.72018 2.00392 8.35411L1.99707 8.25234V4.75C1.99707 3.28747 3.13877 2.0916 4.57955 2.00502L4.74707 2H8.24707ZM19.2471 2L19.4146 2.00502C20.7977 2.08813 21.9053 3.19357 21.9916 4.57583L21.9971 4.75V8.25234L21.9902 8.35411C21.9406 8.72018 21.6268 9.00234 21.2471 9.00234C20.8674 9.00234 20.5536 8.72018 20.5039 8.35411L20.4971 8.25234V4.75L20.4906 4.62219C20.4309 4.0339 19.9632 3.5662 19.3749 3.50645L19.2471 3.5H15.7471L15.6453 3.49315C15.2792 3.44349 14.9971 3.1297 14.9971 2.75C14.9971 2.3703 15.2792 2.05651 15.6453 2.00685L15.7471 2H19.2471Z" fill="#212121"/>
</svg>
