<svg width="20" height="20" viewBox="0 0 20 20" fill="none" xmlns="http://www.w3.org/2000/svg">
<path d="M6.24902 5.5C5.83481 5.5 5.49902 5.83579 5.49902 6.25V13.75C5.49902 14.1642 5.83481 14.5 6.24902 14.5H13.749C14.1632 14.5 14.499 14.1642 14.499 13.75V6.25C14.499 5.83579 14.1632 5.5 13.749 5.5H6.24902ZM5.25 3C4.00736 3 3 4.00736 3 5.25V14.75C3 15.9926 4.00736 17 5.25 17H14.749C15.9917 17 16.999 15.9926 16.999 14.75V5.25C16.999 4.00736 15.9917 3 14.749 3H5.25ZM4.5 5.25C4.5 4.83579 4.83579 4.5 5.25 4.5H14.749C15.1632 4.5 15.499 4.83579 15.499 5.25V14.75C15.499 15.1642 15.1632 15.5 14.749 15.5H5.25C4.83579 15.5 4.5 15.1642 4.5 14.75V5.25Z" fill="#212121"/>
</svg>
