<svg width="16" height="16" viewBox="0 0 16 16" fill="none" xmlns="http://www.w3.org/2000/svg">
<path d="M11 13.5V3H12V13.5C12 13.7761 12.2239 14 12.5 14C12.7761 14 13 13.7761 13 13.5V3H13.5C13.7761 3 14 2.77614 14 2.5C14 2.22386 13.7761 2 13.5 2H9C7.067 2 5.5 3.567 5.5 5.5C5.5 7.433 7.067 9 9 9H10V13.5C10 13.7761 10.2239 14 10.5 14C10.7761 14 11 13.7761 11 13.5ZM2.85355 6.14645C2.65829 5.95118 2.34171 5.95118 2.14645 6.14645C1.95118 6.34171 1.95118 6.65829 2.14645 6.85355L3.29289 8L2.14645 9.14645C1.95118 9.34171 1.95118 9.65829 2.14645 9.85355C2.34171 10.0488 2.65829 10.0488 2.85355 9.85355L4.35355 8.35355C4.54882 8.15829 4.54882 7.84171 4.35355 7.64645L2.85355 6.14645Z" fill="#212121"/>
</svg>
