<svg width="24" height="24" viewBox="0 0 24 24" fill="none" xmlns="http://www.w3.org/2000/svg">
<path d="M18.25 21C19.7688 21 21 19.7688 21 18.25V5.75C21 4.23122 19.7688 3 18.25 3L5.75 3C4.23122 3 3 4.23122 3 5.75L3 18.25C3 19.7688 4.23122 21 5.75 21H18.25ZM12.5 14.25C12.5 14.6642 12.1642 15 11.75 15C11.3703 15 11.0565 14.7178 11.0068 14.3518L11 14.25L11 6.75C11 6.33579 11.3358 6 11.75 6C12.1297 6 12.4435 6.28215 12.4932 6.64823L12.5 6.75L12.5 14.25ZM8.5 6.75L8.5 17.25C8.5 17.6642 8.16421 18 7.75 18C7.3703 18 7.05651 17.7178 7.00685 17.3518L7 17.25L7 6.75C7 6.33579 7.33579 6 7.75 6C8.1297 6 8.44349 6.28215 8.49315 6.64823L8.5 6.75ZM16.5 17.25C16.5 17.6642 16.1642 18 15.75 18C15.3703 18 15.0565 17.7178 15.0068 17.3518L15 17.25L15 6.75C15 6.33579 15.3358 6 15.75 6C16.1297 6 16.4435 6.28215 16.4932 6.64823L16.5 6.75L16.5 17.25Z" fill="#212121"/>
</svg>
