<svg width="16" height="16" viewBox="0 0 16 16" fill="none" xmlns="http://www.w3.org/2000/svg">
<path d="M11.5 8C11.5419 8 11.5834 8.00172 11.6245 8.00509L11.4883 8.3263L11.4397 8.45937L11.4322 8.48395C11.3805 8.65223 11.3531 8.8261 11.3496 9H4.5C4.22386 9 4 9.22386 4 9.5V10C4 11.4376 5.43216 13 8 13C8.30877 13 8.60111 12.9774 8.87652 12.9352C8.72553 13.2582 8.67174 13.6162 8.71428 13.9636C8.48423 13.9875 8.24605 14 8 14C4.85951 14 3 11.9714 3 10V9.5C3 8.67157 3.67157 8 4.5 8H11.5ZM11.199 12.2437L11.9384 12.4903C11.9384 12.4903 11.9384 12.4903 11.9384 12.4903L12.0603 12.5309C12.404 12.2708 12.6906 11.9434 12.92 11.5488C13.1167 11.2105 13.2454 10.8676 13.306 10.5202L13.3306 10.346L12.6135 9.66537C12.3772 9.44115 12.2914 9.09198 12.388 8.77773L12.4189 8.69301L12.7444 7.92552C12.897 7.56556 13.2626 7.36977 13.6212 7.44448L13.6979 7.46467L14.1054 7.5949C14.5095 7.72403 14.819 8.07023 14.919 8.50495C15.1565 9.53807 14.8715 10.7959 14.0641 12.2785C13.2578 13.7589 12.3741 14.649 11.413 14.9488C11.0398 15.0652 10.6389 14.9806 10.3373 14.7274L10.2576 14.6542L9.94804 14.3434C9.67981 14.0741 9.62456 13.6481 9.80442 13.3148L9.85011 13.2396L10.3166 12.5542C10.4526 12.3544 10.6602 12.2326 10.8817 12.2091C10.9275 12.2042 10.974 12.2035 11.0205 12.2072C11.0526 12.2098 11.0848 12.2145 11.1169 12.2213L11.199 12.2437ZM8 1.5C9.51878 1.5 10.75 2.73122 10.75 4.25C10.75 5.76878 9.51878 7 8 7C6.48122 7 5.25 5.76878 5.25 4.25C5.25 2.73122 6.48122 1.5 8 1.5ZM8 2.5C7.0335 2.5 6.25 3.2835 6.25 4.25C6.25 5.2165 7.0335 6 8 6C8.9665 6 9.75 5.2165 9.75 4.25C9.75 3.2835 8.9665 2.5 8 2.5Z" fill="#212121"/>
</svg>
