<svg width="24" height="24" viewBox="0 0 24 24" fill="none" xmlns="http://www.w3.org/2000/svg">
<path d="M12.25 12.25C12.25 9.90279 14.1528 8 16.5 8H21.25C21.6642 8 22 8.33579 22 8.75C22 9.16421 21.6642 9.5 21.25 9.5H21V21.25C21 21.6642 20.6642 22 20.25 22C19.8358 22 19.5 21.6642 19.5 21.25V9.5H18.5V21.25C18.5 21.6642 18.1642 22 17.75 22C17.3358 22 17 21.6642 17 21.25V16.5H16.5C14.1528 16.5 12.25 14.5972 12.25 12.25ZM2 5.75C2 5.33579 2.33579 5 2.75 5H21.25C21.6642 5 22 5.33579 22 5.75C22 6.16421 21.6642 6.5 21.25 6.5H2.75C2.33579 6.5 2 6.16421 2 5.75ZM2 10.75C2 10.3358 2.33579 10 2.75 10H11.7552C11.5337 10.4663 11.3789 10.9704 11.3032 11.5H2.75C2.33579 11.5 2 11.1642 2 10.75ZM2.75 15H12.027C12.3883 15.5864 12.8616 16.0963 13.4172 16.5H2.75C2.33579 16.5 2 16.1642 2 15.75C2 15.3358 2.33579 15 2.75 15Z" fill="#212121"/>
</svg>
