<svg width="16" height="16" viewBox="0 0 16 16" fill="none" xmlns="http://www.w3.org/2000/svg">
<path d="M3.05025 3.05031C5.78392 0.316643 10.216 0.316643 12.9497 3.05031C15.6833 5.78399 15.6833 10.2161 12.9497 12.9497C10.216 15.6834 5.78393 15.6834 3.05025 12.9497C0.316582 10.2161 0.316583 5.78398 3.05025 3.05031ZM9.06099 7.99953H11.4995C11.7755 7.99953 11.9992 8.2236 11.9995 8.49953V8.99953C11.9995 9.27567 11.7756 9.49953 11.4995 9.49953H7.56099L4.67721 12.3833C6.83286 14.0217 9.92113 13.8572 11.8891 11.8892C13.8571 9.92119 14.0216 6.83292 12.3833 4.67727L9.06099 7.99953ZM11.3227 3.61672C9.16706 1.97838 6.07879 2.14287 4.1108 4.11086C2.14281 6.07885 1.97831 9.16712 3.61666 11.3228L5.99947 8.93996V7.99953H6.9399L11.3227 3.61672ZM4.99947 9.49953H4.49947C4.22353 9.49929 3.99947 9.27553 3.99947 8.99953V8.49953C3.99971 8.22374 4.22368 7.99977 4.49947 7.99953H4.99947V9.49953ZM4.99947 4.13527C4.99957 3.97727 5.21263 3.92698 5.28365 4.06789L5.69088 4.88234C5.86126 5.22352 5.72331 5.6384 5.38228 5.8091C5.14819 5.92615 4.99947 6.16554 4.99947 6.42727V7.22512C4.99943 7.44277 4.71303 7.52212 4.60103 7.33547L4.13131 6.55129C3.80763 6.01156 4.06645 5.31086 4.66353 5.11184C4.86437 5.04485 4.99947 4.85676 4.99947 4.64504V4.13527Z" fill="#212121"/>
</svg>
