<svg width="28" height="28" viewBox="0 0 28 28" fill="none" xmlns="http://www.w3.org/2000/svg">
<path d="M6.75 3C4.67893 3 3 4.67893 3 6.75V21.25C3 23.3211 4.67893 25 6.75 25H21.25C23.3211 25 25 23.3211 25 21.25V6.75C25 4.67893 23.3211 3 21.25 3H6.75ZM4.5 21.25V18.5H9.5V23.5H6.75C5.50736 23.5 4.5 22.4926 4.5 21.25ZM9.5 11V17H4.5V11H9.5ZM17 11V17L11 17V11L17 11ZM18.5 23.5V18.5H23.5V21.25C23.5 22.4926 22.4926 23.5 21.25 23.5H18.5ZM23.5 11V17H18.5V11H23.5ZM21.25 4.5C22.4926 4.5 23.5 5.50736 23.5 6.75V9.5H18.5V4.5H21.25ZM6.75 4.5H9.5V9.5H4.5V6.75C4.5 5.50736 5.50736 4.5 6.75 4.5Z" fill="#212121"/>
</svg>
