<svg width="48" height="48" viewBox="0 0 48 48" fill="none" xmlns="http://www.w3.org/2000/svg">
<path d="M4 12.25C4 8.79822 6.79822 6 10.25 6H16.7145C17.709 6 18.6629 6.39509 19.3661 7.09835L22.75 10.4822L17.5983 15.6339C17.3639 15.8683 17.046 16 16.7145 16L4 16V12.25ZM4 18.5V34.75C4 38.2018 6.79822 41 10.25 41H24.0436C22.75 38.9794 22 36.5773 22 34C22 26.8203 27.8203 21 35 21C38.493 21 41.6642 22.3776 44 24.6191V17.25C44 13.7982 41.2018 11 37.75 11H25.7678L19.3661 17.4016C18.6629 18.1049 17.709 18.5 16.7145 18.5L4 18.5ZM35 45C28.9249 45 24 40.0751 24 34C24 27.9249 28.9249 23 35 23C41.0751 23 46 27.9249 46 34C46 40.0751 41.0751 45 35 45ZM43 34C43 33.4477 42.5523 33 42 33H30.4142L33.7071 29.7071C34.0976 29.3166 34.0976 28.6834 33.7071 28.2929C33.3166 27.9024 32.6834 27.9024 32.2929 28.2929L27.2929 33.2929C26.9024 33.6834 26.9024 34.3166 27.2929 34.7071L32.2929 39.7071C32.6834 40.0976 33.3166 40.0976 33.7071 39.7071C34.0976 39.3166 34.0976 38.6834 33.7071 38.2929L30.4142 35H42C42.5523 35 43 34.5523 43 34Z" fill="#212121"/>
</svg>
