<svg width="16" height="16" viewBox="0 0 16 16" fill="none" xmlns="http://www.w3.org/2000/svg">
<path d="M10.5828 4.23816C10.3066 4.23816 10.0828 4.46202 10.0828 4.73816C10.0828 5.0143 10.3066 5.23816 10.5828 5.23816C10.8247 5.23816 11.0248 5.31044 11.1698 5.43943C11.3117 5.56569 11.445 5.78573 11.483 6.16643C11.5105 6.4412 11.7555 6.64167 12.0303 6.6142C12.3051 6.58672 12.5056 6.3417 12.4781 6.06693C12.4198 5.48363 12.1964 5.01441 11.8346 4.69241C11.4758 4.37314 11.0253 4.23816 10.5828 4.23816Z" fill="#212121"/>
<path d="M7.10744 2.79628C6.26814 2.12143 5.33652 1.97817 4.50283 2.14091C3.68498 2.30056 2.96369 2.7522 2.48428 3.27063L2.48171 3.27344C1.95856 3.84788 1.424 4.59287 1.37818 5.68095L1.37812 5.68239C1.35717 6.21664 1.4335 6.9957 1.85533 7.59123L1.86098 7.59904C2.30713 8.20383 2.55574 8.5572 2.68032 8.89981C2.82362 9.29198 2.82382 9.68749 2.82374 10.2766L2.82374 10.3195L2.82376 10.3242C2.82909 10.8946 2.94956 11.6811 3.24147 12.3976C3.52905 13.1035 4.02418 13.8373 4.83957 14.1344L4.86054 14.142L4.8821 14.1478C5.35503 14.2737 5.80766 14.2316 6.1514 13.9103C6.45128 13.6299 6.57258 13.2162 6.63971 12.8577C6.70171 12.5267 6.73308 12.1419 6.76358 11.7678L6.77517 11.6265C6.81103 11.1947 6.8519 10.7671 6.93643 10.3644L6.93692 10.3621C7.16294 9.25907 7.48756 9.08566 7.61317 9.04669C7.98365 8.95135 8.2054 9.00213 8.34921 9.08377C8.50548 9.17249 8.64989 9.34327 8.77424 9.6257C9.03156 10.2102 9.10841 11.0394 9.17826 11.8076C9.23799 12.5704 9.39739 13.2729 9.71224 13.7284C9.87658 13.9661 10.1135 14.1788 10.4376 14.2485C10.7649 14.3189 11.0799 14.2219 11.353 14.0475C12.3467 13.413 12.9166 12.1018 13.0666 10.3921C13.1377 9.58165 13.2194 9.21914 13.3402 8.92739C13.4022 8.77751 13.4797 8.6341 13.59 8.44507C13.6222 8.38984 13.6578 8.32985 13.6963 8.26489C13.7857 8.11422 13.8909 7.93686 14.0069 7.73034L14.0076 7.72916C14.2242 7.34119 14.5804 6.63122 14.6211 5.79874C14.6636 4.93178 14.361 3.97619 13.3461 3.15424C12.3801 2.37101 11.4741 2.08114 10.6589 2.12389C9.85181 2.16622 9.20666 2.53073 8.74641 2.91976L8.73042 2.93327L8.71562 2.94807C8.27775 3.38594 8.09282 3.44259 7.99275 3.43832C7.87147 3.43314 7.64535 3.33497 7.14943 2.83414L7.12951 2.81402L7.10744 2.79628ZM2.37733 5.72228C2.4088 4.97986 2.7604 4.45285 3.21973 3.94822C3.56939 3.57069 4.10554 3.23733 4.69442 3.12238C5.26136 3.01171 5.87858 3.10112 6.45989 3.55894C6.9306 4.03167 7.40232 4.41401 7.95009 4.43741C8.52024 4.46175 8.98171 4.09397 9.40711 3.67075C9.75426 3.38126 10.1932 3.14969 10.7113 3.12252C11.2287 3.09539 11.8989 3.26824 12.7163 3.931C13.475 4.54537 13.6497 5.19013 13.6223 5.74982C13.5932 6.34377 13.3326 6.88675 13.1348 7.24108C13.0246 7.43712 12.9304 7.59597 12.8436 7.74228C12.8032 7.81035 12.7644 7.87582 12.7264 7.94095C12.6099 8.14054 12.5048 8.33091 12.4162 8.54495C12.2357 8.98101 12.1439 9.46682 12.0704 10.3048C11.9312 11.892 11.4214 12.8173 10.8148 13.2046C10.7514 13.2451 10.7071 13.2614 10.6813 13.2676C10.6582 13.2732 10.649 13.2711 10.6479 13.2708C10.6467 13.2706 10.6377 13.2687 10.62 13.2552C10.6004 13.2404 10.5707 13.2117 10.5348 13.1598C10.3754 12.9291 10.2311 12.4472 10.175 11.7267L10.1744 11.7203L10.1677 11.646C10.1035 10.9359 10.0155 9.96333 9.68946 9.22274C9.51617 8.82916 9.25389 8.44746 8.84291 8.21414C8.42051 7.97434 7.91662 7.93367 7.35206 8.08133L7.34506 8.08316L7.33812 8.08519C6.66895 8.28104 6.20994 8.92933 5.95752 10.1601C5.85906 10.6296 5.81442 11.1124 5.7786 11.5437L5.7671 11.6834C5.73551 12.0686 5.70855 12.3973 5.6568 12.6736C5.5962 12.9972 5.51988 13.1317 5.4685 13.1798L5.46743 13.1808C5.45696 13.1914 5.40172 13.247 5.16139 13.1871C4.74276 13.0252 4.4063 12.6063 4.16756 12.0203C3.92966 11.4364 3.82836 10.7781 3.82374 10.3171L3.82386 10.2139C3.82478 9.68206 3.82575 9.12109 3.61998 8.5577C3.43651 8.05338 3.08878 7.57891 2.66884 7.00965C2.43723 6.67979 2.35989 6.16953 2.37733 5.72228Z" fill="#212121"/>
</svg>
