<svg width="16" height="16" viewBox="0 0 16 16" fill="none" xmlns="http://www.w3.org/2000/svg">
<path d="M10.5 5H13.75L10 1.25V4.5C10 4.776 10.224 5 10.5 5ZM10.5 6C9.672 6 9 5.328 9 4.5V1H5.5C4.672 1 4 1.672 4 2.5V9H7.5C7.84749 9 8.18315 9.05064 8.5 9.14494V7.5C8.5 7.224 8.724 7 9 7C9.276 7 9.5 7.224 9.5 7.5V9.62734C10.4067 10.2598 11 11.3106 11 12.5C11 13.4793 10.5978 14.3647 9.94949 15H12.5C13.328 15 14 14.328 14 13.5V6H10.5ZM11 12.5V9.5C11 9.224 11.224 9 11.5 9C11.776 9 12 9.224 12 9.5V12.5C12 12.776 11.776 13 11.5 13C11.224 13 11 12.776 11 12.5ZM3.5 10C2.11929 10 1 11.1193 1 12.5C1 13.8807 2.11929 15 3.5 15H4C4.27614 15 4.5 14.7761 4.5 14.5C4.5 14.2239 4.27614 14 4 14H3.5C2.67157 14 2 13.3284 2 12.5C2 11.6716 2.67157 11 3.5 11H4C4.27614 11 4.5 10.7761 4.5 10.5C4.5 10.2239 4.27614 10 4 10H3.5ZM7 10C6.72386 10 6.5 10.2239 6.5 10.5C6.5 10.7761 6.72386 11 7 11H7.5C8.32843 11 9 11.6716 9 12.5C9 13.3284 8.32843 14 7.5 14H7C6.72386 14 6.5 14.2239 6.5 14.5C6.5 14.7761 6.72386 15 7 15H7.5C8.88071 15 10 13.8807 10 12.5C10 11.1193 8.88071 10 7.5 10H7ZM3 12.5C3 12.2239 3.22386 12 3.5 12H7.5C7.77614 12 8 12.2239 8 12.5C8 12.7761 7.77614 13 7.5 13H3.5C3.22386 13 3 12.7761 3 12.5Z" fill="#212121"/>
</svg>
