<svg width="32" height="32" viewBox="0 0 32 32" fill="none" xmlns="http://www.w3.org/2000/svg">
<path d="M16 15C16.5523 15 17 15.4477 17 16V23.1822C16.488 22.4121 15.8028 21.7671 15 21.3027V16C15 15.4477 15.4477 15 16 15ZM24 28H17.811C17.6232 28.7296 17.3016 29.4055 16.874 30H24C25.6569 30 27 28.6569 27 27V10.8284C27 10.0328 26.6839 9.26972 26.1213 8.70711L20.2929 2.87868C19.7303 2.31607 18.9672 2 18.1716 2H8C6.34315 2 5 3.34315 5 5V20.583C5.32521 20.5284 5.65929 20.5 6 20.5H7V5C7 4.44772 7.44772 4 8 4H17V9C17 10.6569 18.3431 12 20 12H25V27C25 27.5523 24.5523 28 24 28ZM21 19C21 18.4477 20.5523 18 20 18C19.4477 18 19 18.4477 19 19V25C19 25.5523 19.4477 26 20 26C20.5523 26 21 25.5523 21 25V19ZM20 10C19.4477 10 19 9.55228 19 9V4.41421L24.5858 10H20ZM7.5 23C7.5 22.4477 7.05228 22 6.5 22H6C3.51472 22 1.5 24.0147 1.5 26.5C1.5 28.9853 3.51472 31 6 31H6.5C7.05228 31 7.5 30.5523 7.5 30C7.5 29.4477 7.05228 29 6.5 29H6C4.61929 29 3.5 27.8807 3.5 26.5C3.5 25.1193 4.61929 24 6 24H6.5C7.05228 24 7.5 23.5523 7.5 23ZM11.5 22C10.9477 22 10.5 22.4477 10.5 23C10.5 23.5523 10.9477 24 11.5 24H12C13.3807 24 14.5 25.1193 14.5 26.5C14.5 27.8807 13.3807 29 12 29H11.5C10.9477 29 10.5 29.4477 10.5 30C10.5 30.5523 10.9477 31 11.5 31H12C14.4853 31 16.5 28.9853 16.5 26.5C16.5 24.0147 14.4853 22 12 22H11.5ZM6.5 25.5C5.94772 25.5 5.5 25.9477 5.5 26.5C5.5 27.0523 5.94772 27.5 6.5 27.5H11.5C12.0523 27.5 12.5 27.0523 12.5 26.5C12.5 25.9477 12.0523 25.5 11.5 25.5H6.5Z" fill="#212121"/>
</svg>
