<svg width="16" height="16" viewBox="0 0 16 16" fill="none" xmlns="http://www.w3.org/2000/svg">
<path d="M12 1.5C12 1.22386 11.7761 1 11.5 1C11.2239 1 11 1.22386 11 1.5V13.2929L9.85355 12.1464C9.65829 11.9512 9.34171 11.9512 9.14645 12.1464C8.95118 12.3417 8.95118 12.6583 9.14645 12.8536L11.1464 14.8536C11.3417 15.0488 11.6583 15.0488 11.8536 14.8536L13.8536 12.8536C14.0488 12.6583 14.0488 12.3417 13.8536 12.1464C13.6583 11.9512 13.3417 11.9512 13.1464 12.1464L12 13.2929V1.5ZM2.5 11.625C2.5 10.1558 3.63833 9 5 9C6.36167 9 7.5 10.1558 7.5 11.625C7.5 12.57 7.02904 13.3854 6.33062 13.8469C6.1381 13.9741 6 14.1786 6 14.4094C6 14.7356 6.26442 15 6.59059 15H8.5C8.77614 15 9 14.7761 9 14.5C9 14.2239 8.77614 14 8.5 14H7.64409C8.17863 13.3611 8.5 12.5284 8.5 11.625C8.5 9.6424 6.95204 8 5 8C3.04796 8 1.5 9.6424 1.5 11.625C1.5 12.5284 1.82137 13.3611 2.35591 14H1.5C1.22386 14 1 14.2239 1 14.5C1 14.7761 1.22386 15 1.5 15H3.40941C3.73558 15 4 14.7356 4 14.4094C4 14.1786 3.8619 13.9741 3.66938 13.8469C2.97096 13.3854 2.5 12.57 2.5 11.625ZM5.00013 1C5.20459 1 5.38844 1.12448 5.46437 1.31431L7.46437 6.31431C7.56693 6.5707 7.44222 6.86168 7.18583 6.96424C6.92944 7.0668 6.63845 6.94209 6.53589 6.6857L6.26159 5.99995L3.7389 5.99938L3.46437 6.6857C3.36181 6.94209 3.07083 7.0668 2.81444 6.96424C2.55805 6.86168 2.43334 6.5707 2.53589 6.31431L4.53589 1.31431C4.61183 1.12448 4.79568 1 5.00013 1ZM5.00013 2.84629L4.13886 4.99947L5.86156 4.99986L5.00013 2.84629Z" fill="#212121"/>
</svg>
