<svg width="24" height="24" viewBox="0 0 24 24" fill="none" xmlns="http://www.w3.org/2000/svg">
<path d="M7.9194 2.60608C7.76182 2.2384 7.40028 2 7.00026 2C6.60023 2 6.23869 2.2384 6.08111 2.60608L3.08111 9.60608C2.86356 10.1137 3.09871 10.7016 3.60634 10.9191C4.11397 11.1367 4.70185 10.9015 4.9194 10.3939L5.5168 9H8.48372L9.08111 10.3939C9.29867 10.9015 9.88655 11.1367 10.3942 10.9191C10.9018 10.7016 11.137 10.1137 10.9194 9.60608L7.9194 2.60608ZM7.62657 7H6.37394L7.00026 5.53859L7.62657 7ZM7 14C5.36628 14 4 15.3645 4 17.1C4 18.205 4.55392 19.1597 5.37811 19.7074C5.72767 19.9397 6 20.3019 6 20.7216V21C6 21.5523 5.55228 22 5 22H3C2.44772 22 2 21.5523 2 21C2 20.4845 2.39005 20.0601 2.89112 20.0059C2.32835 19.1786 2 18.1753 2 17.1C2 14.3068 4.21544 12 7 12C9.78456 12 12 14.3068 12 17.1C12 18.1753 11.6716 19.1786 11.1089 20.0059C11.6099 20.0601 12 20.4845 12 21C12 21.5523 11.5522 22 11 22H9C8.44772 22 8 21.5523 8 21V20.7216C8 20.3019 8.27233 19.9397 8.62189 19.7074C9.44608 19.1597 10 18.205 10 17.1C10 15.3645 8.63372 14 7 14ZM17.25 2C17.6642 2 18 2.33579 18 2.75V19.4393L20.2197 17.2197C20.5126 16.9268 20.9874 16.9268 21.2803 17.2197C21.5732 17.5126 21.5732 17.9874 21.2803 18.2803L17.7803 21.7803C17.4874 22.0732 17.0126 22.0732 16.7197 21.7803L13.2197 18.2803C12.9268 17.9874 12.9268 17.5126 13.2197 17.2197C13.5126 16.9268 13.9874 16.9268 14.2803 17.2197L16.5 19.4393V2.75C16.5 2.33579 16.8358 2 17.25 2Z" fill="#212121"/>
</svg>
