<svg width="20" height="20" viewBox="0 0 20 20" fill="none" xmlns="http://www.w3.org/2000/svg">
<path d="M3.55101 2.44202C4.40494 1.96424 5.49406 1.85202 6.53544 2.11583C7.04218 2.2442 7.47512 2.57275 7.73513 3.02624L8.6329 4.5921C9.29786 5.75189 8.9327 7.22957 7.80407 7.94614L7.01425 8.4476C6.68733 8.65515 6.56745 8.9717 6.64244 9.22332C6.90993 10.1208 7.50308 11.1175 8.15518 11.7995C8.34925 12.0025 8.7045 12.0512 9.05289 11.848L9.4899 11.593C10.6974 10.8887 12.2478 11.3113 12.9308 12.531L13.7345 13.9662C13.9975 14.4358 14.0415 14.9971 13.8548 15.502C13.4838 16.505 12.7694 17.3135 11.8903 17.7186C10.9973 18.1301 9.95159 18.1135 9.0056 17.4824C7.50831 16.4836 5.70298 14.8038 4.06815 12.0013C2.41207 9.16232 1.99456 6.74479 2.04156 4.94345C2.07166 3.78953 2.68184 2.92832 3.55101 2.44202ZM15 2.49927C15 2.22313 14.7761 1.99927 14.5 1.99927C14.2239 1.99927 14 2.22313 14 2.49927V4.99927H11.5C11.2239 4.99927 11 5.22313 11 5.49927C11 5.77541 11.2239 5.99927 11.5 5.99927H14V8.49927C14 8.77541 14.2239 8.99927 14.5 8.99927C14.7761 8.99927 15 8.77541 15 8.49927V5.99927H17.5C17.7761 5.99927 18 5.77541 18 5.49927C18 5.22313 17.7761 4.99927 17.5 4.99927H15V2.49927Z" fill="#212121"/>
</svg>
