<svg width="24" height="24" viewBox="0 0 24 24" fill="none" xmlns="http://www.w3.org/2000/svg">
<path d="M12 1.99805C17.5237 1.99805 22.0015 6.47589 22.0015 11.9996C22.0015 17.5233 17.5237 22.0011 12 22.0011C6.47626 22.0011 1.99841 17.5233 1.99841 11.9996C1.99841 6.47589 6.47626 1.99805 12 1.99805ZM12 13.4971C10.3651 13.4971 8.83293 14.1549 7.71171 15.2999C7.42191 15.5958 7.42689 16.0707 7.72284 16.3605C8.01879 16.6503 8.49363 16.6453 8.78344 16.3493C9.62531 15.4896 10.7726 14.9971 12 14.9971C13.2247 14.9971 14.3696 15.4874 15.2111 16.3438C15.5014 16.6393 15.9762 16.6434 16.2717 16.3531C16.5672 16.0628 16.5713 15.588 16.281 15.2925C15.1603 14.152 13.6312 13.4971 12 13.4971ZM9.00041 8.75024C8.31045 8.75024 7.75112 9.30956 7.75112 9.99953C7.75112 10.6895 8.31045 11.2488 9.00041 11.2488C9.69037 11.2488 10.2497 10.6895 10.2497 9.99953C10.2497 9.30956 9.69037 8.75024 9.00041 8.75024ZM15.0004 8.75024C14.3104 8.75024 13.7511 9.30956 13.7511 9.99953C13.7511 10.6895 14.3104 11.2488 15.0004 11.2488C15.6904 11.2488 16.2497 10.6895 16.2497 9.99953C16.2497 9.30956 15.6904 8.75024 15.0004 8.75024Z" fill="#212121"/>
</svg>
