<?xml version="1.0" encoding="UTF-8"?>
<svg width="24px" height="24px" viewBox="0 0 24 24" version="1.1" xmlns="http://www.w3.org/2000/svg" xmlns:xlink="http://www.w3.org/1999/xlink">
    <!-- Generator: Sketch 64 (93537) - https://sketch.com -->
    <title>ic_fluent_book_formula_engineering_24_regular</title>
    <desc>Created with Sketch.</desc>
    <g id="ðŸ”-System-Icons" stroke="none" stroke-width="1" fill="none" fill-rule="evenodd">
        <g id="ic_fluent_book_formula_engineering_24_regular" fill="#212121" fill-rule="nonzero">
            <path d="M18,2 C19.325472,2 20.4100378,3.03153766 20.4946823,4.33562452 L20.5,4.5 L20.5,18.75 C20.5,19.1296833 20.2178347,19.4434889 19.8517677,19.4931531 L19.75,19.5 L5.5,19.5 C5.5,20.01285 5.88604429,20.4355092 6.38337975,20.4932725 L6.5,20.5 L19.75,20.5 C20.1642,20.5 20.5,20.8358 20.5,21.25 C20.5,21.6296833 20.2178347,21.9434889 19.8517677,21.9931531 L19.75,22 L6.5,22 C5.1745184,22 4.08996147,20.9684531 4.00531769,19.6643744 L4,19.5 L4,4.5 C4,3.1745184 5.03153766,2.08996147 6.33562452,2.00531769 L6.5,2 L18,2 Z M18,3.5 L6.5,3.5 C5.98716857,3.5 5.56449347,3.88604429 5.5067278,4.38337975 L5.5,4.5 L5.5,18 L19,18 L19,4.5 C19,3.98716857 18.613973,3.56449347 18.1166239,3.5067278 L18,3.5 Z M12.25,5 C12.6296833,5 12.9434889,5.28215687 12.9931531,5.64823019 L13,5.75 L13,7.35352 C14.1543,7.67998 15,8.74122 15,10 C15,10.7156417 14.7266576,11.3674222 14.2786425,11.856672 L14.1522,11.986 L15.4464,15.2215 C15.6002,15.606 15.4131,16.0425 15.0286,16.1964 C14.67605,16.3373833 14.2798896,16.191916 14.0978459,15.8704524 L14.0537,15.7785 L12.8187,12.6911 C12.6352,12.7297 12.445,12.75 12.25,12.75 C12.1200667,12.75 11.9921778,12.7409778 11.8669852,12.7235259 L11.6813,12.6911 L10.4464,15.7785 C10.2925,16.1631 9.85606,16.3502 9.47147,16.1964 C9.11893833,16.055325 8.93236993,15.6767875 9.02221931,15.3185147 L9.05366,15.2215 L10.3478,11.986 C9.82535,11.4854 9.50002,10.7807 9.50002,10 C9.50002,8.804159 10.2633365,7.78659785 11.3292503,7.40793269 L11.5,7.35352 L11.5,5.75 C11.5,5.33579 11.8358,5 12.25,5 Z M12.25,8.75 C11.5597,8.75 11,9.30964 11,10 C11,10.6904 11.5597,11.25 12.25,11.25 C12.9404,11.25 13.5,10.6904 13.5,10 C13.5,9.30964 12.9404,8.75 12.25,8.75 Z" id="ðŸŽ¨-Color"></path>
        </g>
    </g>
</svg>