<svg width="16" height="16" viewBox="0 0 16 16" fill="none" xmlns="http://www.w3.org/2000/svg">
<path d="M1 5.5C1 4.11929 2.11929 3 3.5 3H12.5C13.8807 3 15 4.11929 15 5.5V10.5C15 11.8807 13.8807 13 12.5 13H3.5C2.11929 13 1 11.8807 1 10.5V5.5ZM3.5 4C2.67157 4 2 4.67157 2 5.5V10.5C2 11.3284 2.67157 12 3.5 12H5V7H6V12H10V10.9146C10.1564 10.9699 10.3247 11 10.5 11H11V12H12.5C13.3284 12 14 11.3284 14 10.5V5.5C14 4.67157 13.3284 4 12.5 4H11V6H10V4H3.5ZM3.5 5C3.22386 5 3 5.22386 3 5.5C3 5.77614 3.22386 6 3.5 6H6.5C6.77614 6 7 5.77614 7 5.5C7 5.22386 6.77614 5 6.5 5H3.5ZM7 7.5C7 7.22386 7.22386 7 7.5 7H11.5C11.7761 7 12 7.22386 12 7.5C12 7.77614 11.7761 8 11.5 8H7.5C7.22386 8 7 7.77614 7 7.5ZM10.5 9C10.2239 9 10 9.22386 10 9.5C10 9.77614 10.2239 10 10.5 10H12.5C12.7761 10 13 9.77614 13 9.5C13 9.22386 12.7761 9 12.5 9H10.5Z" fill="#212121"/>
</svg>
