<svg width="21" height="20" viewBox="0 0 21 20" fill="none" xmlns="http://www.w3.org/2000/svg">
<path d="M7.41602 14V15.5C7.41602 16.8807 8.5353 18 9.91602 18H15.916C17.2967 18 18.416 16.8807 18.416 15.5V9.5C18.416 8.11929 17.2967 7 15.916 7H14.416V8H15.916C16.7444 8 17.416 8.67157 17.416 9.5V15.5C17.416 16.3284 16.7444 17 15.916 17H9.91602C9.08759 17 8.41602 16.3284 8.41602 15.5V14H7.41602ZM2.41602 4.5C2.41602 3.11929 3.5353 2 4.91602 2H10.916C12.2967 2 13.416 3.11929 13.416 4.5V10.5C13.416 11.8807 12.2967 13 10.916 13H4.91602C3.5353 13 2.41602 11.8807 2.41602 10.5V4.5ZM4.91602 3C4.08759 3 3.41602 3.67157 3.41602 4.5V5.14673L5.56274 3H4.91602ZM6.97696 3L3.41602 6.56094V8.14673L8.56274 3H6.97696ZM3.41602 10.5C3.41602 10.7316 3.4685 10.9509 3.56223 11.1468L11.5628 3.14621C11.3669 3.05249 11.1476 3 10.916 3H9.97696L3.41602 9.56094V10.5ZM4.91602 12H5.70898L12.416 5.29297V4.5C12.416 4.26845 12.3635 4.04915 12.2699 3.85334L4.26936 11.8538C4.46516 11.9475 4.68446 12 4.91602 12ZM10.1232 12H10.916C11.7444 12 12.416 11.3284 12.416 10.5V9.70718L10.1232 12ZM8.70898 12L12.416 8.29297V6.70718L7.1232 12H8.70898Z" fill="#212121"/>
</svg>
