<svg width="25" height="24" viewBox="0 0 25 24" fill="none" xmlns="http://www.w3.org/2000/svg">
<path d="M19.166 22C20.9609 22 22.416 20.5449 22.416 18.75L22.416 10.75C22.416 8.95508 20.9609 7.5 19.166 7.5H17.916V9H19.166C20.1325 9 20.916 9.7835 20.916 10.75L20.916 18.75C20.916 19.7165 20.1325 20.5 19.166 20.5L11.166 20.5C10.1995 20.5 9.41601 19.7165 9.41601 18.75V17.5H7.91601V18.75C7.91601 20.5449 9.37109 22 11.166 22L19.166 22ZM13.666 16.5C15.4609 16.5 16.916 15.0449 16.916 13.25L16.916 5.25C16.916 3.45508 15.4609 2 13.666 2L5.66602 2C3.87109 2 2.41602 3.45508 2.41602 5.25L2.41602 13.25C2.41601 15.0449 3.87109 16.5 5.66601 16.5L13.666 16.5ZM15.416 13.25C15.416 14.2165 14.6325 15 13.666 15L12.8853 15L15.416 12.4692V13.25ZM15.416 10.469L10.885 15L8.88503 15L15.416 8.46901L15.416 10.469ZM6.7637 15L5.66601 15C5.43455 15 5.21358 14.9551 5.01136 14.8734L15.2895 4.59535C15.3711 4.79757 15.416 5.01854 15.416 5.25V6.34769L6.7637 15ZM3.99431 13.7692C3.94342 13.6051 3.91602 13.4308 3.91602 13.25L3.91602 11.969L12.385 3.5L13.666 3.5C13.8468 3.5 14.0211 3.52741 14.1852 3.5783L3.99431 13.7692ZM3.91602 9.84766L3.91602 7.96898L8.38499 3.5L10.2637 3.5L3.91602 9.84766ZM3.91602 5.84766L3.91602 5.25C3.91602 4.2835 4.69952 3.5 5.66602 3.5H6.26367L3.91602 5.84766Z" fill="#212121"/>
</svg>
