<svg width="24" height="24" viewBox="0 0 24 24" fill="none" xmlns="http://www.w3.org/2000/svg">
<path d="M17.7542 13.9999C18.9623 13.9999 19.9478 14.9525 20.0008 16.1475L20 16.25H12L11.9995 15.499L6.25242 15.4999C5.83882 15.4999 5.50354 15.8352 5.50354 16.2488V16.8265C5.50354 17.3621 5.69465 17.8802 6.04251 18.2876C7.29582 19.7553 9.26169 20.5011 12 20.5011V19.75L18.6421 19.751C17.0812 21.2569 14.8524 22.0011 12 22.0011C8.85414 22.0011 6.46812 21.0959 4.90182 19.2617C4.32206 18.5827 4.00354 17.7193 4.00354 16.8265V16.2488C4.00354 15.0068 5.0104 13.9999 6.25242 13.9999H17.7542ZM19.4701 18.7512L12 18.75V17.25L19.9788 17.2502C19.918 17.7818 19.7442 18.2935 19.4701 18.7512ZM12 2C13.6357 2 15.088 2.78547 16.0002 3.99981L12 4V3.5C10.067 3.5 8.5 5.067 8.5 7C8.5 8.933 10.067 10.5 12 10.5V10L15.9995 10.0012C15.0872 11.215 13.6353 12 12 12C9.23857 12 7 9.76142 7 7C7 4.23858 9.23857 2 12 2ZM16.9752 7.5007C16.9227 8.02919 16.7879 8.53347 16.5837 9.00053L12 9V7.5L16.9752 7.5007ZM16.5842 5.00046C16.7882 5.46754 16.9229 5.97182 16.9753 6.5003L12 6.5V5L16.5842 5.00046Z" fill="#212121"/>
</svg>
