<svg width="24" height="24" viewBox="0 0 24 24" fill="none" xmlns="http://www.w3.org/2000/svg">
<path d="M8.24459 13.0033C8.82277 13.0033 9.17016 13.6217 8.90616 14.1074L8.84941 14.1968L4.22708 20.4988L8.24459 20.4991C8.62429 20.4991 8.93808 20.7813 8.98775 21.1473L8.99459 21.2491C8.99459 21.6288 8.71244 21.9426 8.34636 21.9923L8.24459 21.9991H2.74793C2.16975 21.9991 1.82236 21.3807 2.08635 20.8949L2.14311 20.8056L6.76408 14.5028L2.74888 14.5033C2.36918 14.5033 2.05539 14.2211 2.00572 13.855L1.99888 13.7533C1.99888 13.3736 2.28103 13.0598 2.64711 13.0101L2.74888 13.0033H8.24459ZM21.2522 2.00049C21.8515 2.00049 22.195 2.65953 21.8908 3.14472L21.8303 3.22837L13.3391 13.4968L21.2522 13.4969C21.6319 13.4969 21.9457 13.779 21.9954 14.1451L22.0022 14.2469C22.0022 14.6266 21.7201 14.9404 21.354 14.99L21.2522 14.9969H11.7479C11.1487 14.9969 10.8051 14.3378 11.1094 13.8526L11.1699 13.769L19.6591 3.4998L11.7479 3.50049C11.3682 3.50049 11.0544 3.21833 11.0048 2.85226L10.9979 2.75049C10.9979 2.37079 11.2801 2.057 11.6462 2.00733L11.7479 2.00049H21.2522Z" fill="#212121"/>
</svg>
