<svg width="28" height="28" viewBox="0 0 28 28" fill="none" xmlns="http://www.w3.org/2000/svg">
<path d="M14.395 3.90219C15.1932 3.1536 16.5 3.71962 16.5 4.814V23.1841C16.5 24.2782 15.1937 24.8443 14.3953 24.0962L9.45832 19.4701C9.134 19.1662 8.70619 18.997 8.26174 18.997H5.25C3.45507 18.997 2 17.542 2 15.747V12.255C2 10.4601 3.45508 9.00505 5.25 9.00505H8.26119C8.70587 9.00505 9.13388 8.83576 9.45826 8.53158L14.395 3.90219ZM15 5.39117L10.4843 9.62575C9.8819 10.1907 9.08703 10.505 8.26119 10.505H5.25C4.2835 10.505 3.5 11.2885 3.5 12.255V15.747C3.5 16.7135 4.2835 17.497 5.25 17.497H8.26174C9.08715 17.497 9.88165 17.8111 10.484 18.3755L15 22.6072V5.39117ZM19.5 21V18.6667L18.1284 16.2283C18.0878 16.1561 18.0565 16.0794 18.0349 16.0001C18.0118 15.915 18 15.8269 18 15.7381V11.5714C18 11.0191 18.4477 10.5714 19 10.5714V8C19 7.44772 19.4477 7 20 7H24C24.5244 7 24.9545 7.4036 24.9966 7.9171C24.9989 7.94443 25 7.97208 25 8V10.5714C25.5523 10.5714 26 11.0191 26 11.5714V15.7381C26 15.9098 25.9558 16.0786 25.8716 16.2283L24.5 18.6667V21C24.5 21.5523 24.0523 22 23.5 22H20.5C19.9477 22 19.5 21.5523 19.5 21ZM23.5 8.5H20.5V10.5714H23.5V8.5Z" fill="#212121"/>
</svg>
