<svg width="16" height="16" viewBox="0 0 16 16" fill="none" xmlns="http://www.w3.org/2000/svg">
<path d="M11.5 1C11.7761 1 12 1.22386 12 1.5V4.26953C12.5973 4.61546 13 5.26007 13 6V12C13 13.1046 12.1046 14 11 14H5C3.89543 14 3 13.1046 3 12V6C3 4.89543 3.89543 4 5 4H6C6 3.44772 5.55228 3 5 3H3.5C3.22386 3 3 2.77614 3 2.5C3 2.22386 3.22386 2 3.5 2H5C6.10457 2 7 2.89543 7 4H7.73242L9.58398 1.22266L9.62207 1.17285C9.71635 1.06391 9.8539 1 10 1H11.5ZM10.3535 6.64648C10.1583 6.45122 9.84175 6.45122 9.64648 6.64648L8 8.29297L6.35352 6.64648C6.15825 6.45122 5.84175 6.45122 5.64648 6.64648C5.45122 6.84175 5.45122 7.15825 5.64648 7.35352L7.29297 9L5.64648 10.6465C5.45122 10.8417 5.45122 11.1583 5.64648 11.3535C5.84175 11.5488 6.15825 11.5488 6.35352 11.3535L8 9.70703L9.64648 11.3535C9.84175 11.5488 10.1583 11.5488 10.3535 11.3535C10.5488 11.1583 10.5488 10.8417 10.3535 10.6465L8.70703 9L10.3535 7.35352C10.5488 7.15825 10.5488 6.84175 10.3535 6.64648ZM8.93457 4H11V2H10.2676L8.93457 4Z" fill="#212121"/>
</svg>
