<svg width="20" height="20" viewBox="0 0 20 20" fill="none" xmlns="http://www.w3.org/2000/svg">
<path d="M7.5 7.25C7.5 7.66421 7.16421 8 6.75 8C6.33579 8 6 7.66421 6 7.25C6 6.83579 6.33579 6.5 6.75 6.5C7.16421 6.5 7.5 6.83579 7.5 7.25ZM6.75 11C7.16421 11 7.5 10.6642 7.5 10.25C7.5 9.83579 7.16421 9.5 6.75 9.5C6.33579 9.5 6 9.83579 6 10.25C6 10.6642 6.33579 11 6.75 11ZM7.5 13.25C7.5 13.6642 7.16421 14 6.75 14C6.33579 14 6 13.6642 6 13.25C6 12.8358 6.33579 12.5 6.75 12.5C7.16421 12.5 7.5 12.8358 7.5 13.25ZM9.5 7C9.22386 7 9 7.22386 9 7.5C9 7.77614 9.22386 8 9.5 8H13.5C13.7761 8 14 7.77614 14 7.5C14 7.22386 13.7761 7 13.5 7H9.5ZM9 10.5C9 10.2239 9.22386 10 9.5 10H11.3369C10.9338 10.2839 10.5705 10.6206 10.2572 11H9.5C9.22386 11 9 10.7761 9 10.5ZM16 5V9.20703C16.3486 9.30564 16.6832 9.43777 17 9.59971V5C17 3.89543 16.1046 3 15 3H5C3.89543 3 3 3.89543 3 5V15C3 16.1046 3.89543 17 5 17H9.59971C9.43777 16.6832 9.30564 16.3486 9.20703 16H5C4.44772 16 4 15.5523 4 15V5C4 4.44772 4.44772 4 5 4H15C15.5523 4 16 4.44772 16 5ZM12.0647 11.4421C12.368 12.5232 11.722 13.6421 10.6341 13.92L10.173 14.0378C10.1581 14.1898 10.1504 14.3439 10.1504 14.5C10.1504 14.6876 10.1615 14.8726 10.1831 15.0542L10.5326 15.1369C11.652 15.4016 12.318 16.5537 11.9887 17.6558L11.8623 18.0786C12.1195 18.2819 12.3993 18.4561 12.697 18.5965L13.022 18.2524C13.8118 17.4161 15.1426 17.4168 15.9315 18.2539L16.2689 18.6119C16.5613 18.477 16.8367 18.3096 17.0907 18.1143L16.9346 17.5576C16.6313 16.4765 17.2773 15.3576 18.3652 15.0797L18.8258 14.962C18.8408 14.8101 18.8484 14.656 18.8484 14.5C18.8484 14.3122 18.8373 14.1271 18.8157 13.9454L18.4667 13.8628C17.3473 13.5982 16.6813 12.446 17.0106 11.3439L17.1368 10.9216C16.8796 10.7183 16.5998 10.544 16.302 10.4035L15.9773 10.7473C15.1875 11.5836 13.8568 11.5829 13.0678 10.7458L12.7305 10.3878C12.438 10.5227 12.1626 10.69 11.9086 10.8853L12.0647 11.4421ZM14.4994 15.5C13.9471 15.5 13.4994 15.0523 13.4994 14.5C13.4994 13.9477 13.9471 13.5 14.4994 13.5C15.0517 13.5 15.4994 13.9477 15.4994 14.5C15.4994 15.0523 15.0517 15.5 14.4994 15.5Z" fill="#212121"/>
</svg>
