<svg width="16" height="16" viewBox="0 0 16 16" fill="none" xmlns="http://www.w3.org/2000/svg">
<path d="M8 1C11.866 1 15 4.13401 15 8C15 11.866 11.866 15 8 15C4.13401 15 1 11.866 1 8C1 4.13401 4.13401 1 8 1ZM8 4.5C6.57446 4.5 5.45476 5.21321 4.70898 5.95898C4.33447 6.3335 4.04317 6.72661 3.84277 7.06641C3.74269 7.23612 3.66194 7.39848 3.60449 7.54395C3.55281 7.67479 3.5 7.84033 3.5 8C3.5 8.15967 3.55281 8.32521 3.60449 8.45605C3.66194 8.60152 3.74269 8.76388 3.84277 8.93359C4.04317 9.27339 4.33447 9.6665 4.70898 10.041C5.45476 10.7868 6.57446 11.5 8 11.5C9.42554 11.5 10.5452 10.7868 11.291 10.041C11.6655 9.6665 11.9568 9.27339 12.1572 8.93359C12.2573 8.76388 12.3381 8.60152 12.3955 8.45605C12.4472 8.32521 12.5 8.15967 12.5 8C12.5 7.84033 12.4472 7.67479 12.3955 7.54395C12.3381 7.39848 12.2573 7.23612 12.1572 7.06641C11.9568 6.72661 11.6655 6.3335 11.291 5.95898C10.5452 5.21321 9.42554 4.5 8 4.5ZM8 5.5C9.07446 5.5 9.95476 6.03679 10.584 6.66602C10.8969 6.97898 11.1369 7.30465 11.2959 7.57422C11.3755 7.70918 11.4315 7.82419 11.4658 7.91113C11.483 7.9547 11.4907 7.98393 11.4951 8C11.4907 8.01607 11.483 8.0453 11.4658 8.08887C11.4315 8.17581 11.3755 8.29082 11.2959 8.42578C11.1369 8.69535 10.8969 9.02102 10.584 9.33398C9.95476 9.96321 9.07446 10.5 8 10.5C6.92554 10.5 6.04524 9.96321 5.41602 9.33398C5.10306 9.02102 4.86308 8.69535 4.7041 8.42578C4.62451 8.29082 4.56852 8.17581 4.53418 8.08887C4.51688 8.04507 4.50829 8.01602 4.50391 8C4.50829 7.98398 4.51688 7.95493 4.53418 7.91113C4.56852 7.82419 4.62451 7.70918 4.7041 7.57422C4.86308 7.30465 5.10306 6.97898 5.41602 6.66602C6.04524 6.03679 6.92554 5.5 8 5.5ZM8 6.5C7.17157 6.5 6.5 7.17157 6.5 8C6.5 8.82843 7.17157 9.5 8 9.5C8.82843 9.5 9.5 8.82843 9.5 8C9.5 7.17157 8.82843 6.5 8 6.5Z" fill="#212121"/>
</svg>
