<svg width="28" height="28" viewBox="0 0 28 28" fill="none" xmlns="http://www.w3.org/2000/svg">
<path d="M6.99976 9.72794C6.99976 9.32591 7.32567 9 7.7277 9H13.2718C13.6738 9 13.9998 9.32591 13.9998 9.72794V9.77206C13.9998 10.1741 13.6738 10.5 13.2718 10.5H7.7277C7.32567 10.5 6.99976 10.1741 6.99976 9.77206V9.72794ZM6.99976 13.7279C6.99976 13.3259 7.32567 13 7.7277 13H18.2718C18.4659 13 18.6423 13.076 18.7728 13.1998C17.752 13.4405 16.8116 13.8897 15.9993 14.5H7.7277C7.32567 14.5 6.99976 14.1741 6.99976 13.7721V13.7279ZM13.865 17H7.7277C7.32567 17 6.99976 17.3259 6.99976 17.7279V17.7721C6.99976 18.1741 7.32567 18.5 7.7277 18.5H13.2696C13.4146 17.9746 13.6153 17.4724 13.865 17ZM13.2696 22.5001H5.75391C4.51127 22.5001 3.50391 21.4927 3.50391 20.2501V7.75C3.50391 6.50736 4.51127 5.5 5.75391 5.5H22.2505C23.4932 5.5 24.5005 6.50736 24.5005 7.75V14.1549C25.0536 14.5043 25.5577 14.924 26.0005 15.4015V7.75C26.0005 5.67893 24.3216 4 22.2505 4H5.75391C3.68284 4 2.00391 5.67893 2.00391 7.75V20.2501C2.00391 22.3211 3.68284 24.0001 5.75391 24.0001H13.8651C13.6154 23.5277 13.4146 23.0254 13.2696 22.5001ZM20.5 25.5C17.7386 25.5 15.5 23.2614 15.5 20.5C15.5 17.7386 17.7386 15.5 20.5 15.5C23.2614 15.5 25.5 17.7386 25.5 20.5C25.5 23.2614 23.2614 25.5 20.5 25.5ZM20.5 27C24.0899 27 27 24.0899 27 20.5C27 16.9101 24.0899 14 20.5 14C16.9101 14 14 16.9101 14 20.5C14 24.0899 16.9101 27 20.5 27ZM20.5 24C22.433 24 24 22.433 24 20.5C24 18.567 22.433 17 20.5 17C18.567 17 17 18.567 17 20.5C17 22.433 18.567 24 20.5 24Z" fill="#212121"/>
</svg>
