<svg width="24" height="24" viewBox="0 0 24 24" fill="none" xmlns="http://www.w3.org/2000/svg">
<path d="M8.64506 4.3605C10.2094 7.21227 11.0038 9.50471 11.0038 11.0799C11.0038 12.6552 10.2599 13.9757 9.53777 14.6003C9.47995 14.6504 9.41475 14.6958 9.3422 14.7366L9.22783 14.7944C8.99949 14.8979 8.73047 14.7967 8.62694 14.5684C8.58849 14.4836 8.57735 14.3897 8.5938 14.2995L8.61945 14.211C9.23103 12.6962 9.52755 11.2068 9.5044 9.74673C9.49783 9.33257 9.15676 9.00214 8.7426 9.00871C8.344 9.01503 8.02297 9.33118 8.00526 9.72414L8.00898 9.74724C8.01459 10.1171 7.99605 10.4907 7.9535 10.8679L7.88685 11.3446L7.84522 11.5817L7.77673 11.9117L7.67513 12.3243L7.63186 12.4798C7.4617 13.0821 7.23342 13.6934 6.94803 14.3132C6.18479 15.9708 4.86913 17.1879 3.036 17.9465C2.65326 18.1049 2.2146 17.923 2.05621 17.5403C1.89783 17.1575 2.0797 16.7189 2.46244 16.5605C3.42748 16.1611 4.19881 15.6221 4.78587 14.9385C3.12274 14.4136 2.1553 13.2678 2.02314 11.6685C1.87359 9.85865 2.55515 8.63397 4.28321 7.25677L4.77375 6.87945L5.1287 6.61037L5.49817 6.32112C6.33102 5.64794 6.9558 4.98618 7.37465 4.34097C7.67579 3.87707 8.37649 3.87093 8.64506 4.3605ZM17 5.99954C18.5977 5.99954 19.9037 7.24846 19.9949 8.82327L20 8.99954V9.99954L21.0007 10.0174C21.1828 10.0174 21.3536 10.0661 21.5007 10.1512C21.7663 10.3049 21.9548 10.5773 21.9934 10.8959L22.0007 11.0174V13.0174C22.0007 13.3875 21.7996 13.7107 21.5007 13.8836C21.3903 13.9474 21.2667 13.9908 21.1349 14.0084L21.0007 14.0174L20 13.9995V14.9995C20 16.5973 18.7511 17.9032 17.1763 17.9944L17 17.9995H8.24254C7.69025 17.9995 7.24254 17.5518 7.24254 16.9995C7.24254 16.4867 7.62858 16.064 8.12592 16.0063L8.24254 15.9995H8.87269L8.94828 15.9939L9.0529 15.9752C9.79577 15.8126 12 14.7724 12 11.0174C12 9.8006 11.6982 8.44913 11.0945 6.96296C11.0605 6.8793 11.043 6.78984 11.043 6.69954C11.043 6.34517 11.3064 6.0523 11.648 6.00593L11.743 5.99954H17Z" fill="#212121"/>
</svg>
