<svg width="32" height="32" viewBox="0 0 32 32" fill="none" xmlns="http://www.w3.org/2000/svg">
<path d="M9 3C9 2.44772 8.55228 2 8 2C7.44772 2 7 2.44772 7 3V7H3C2.44772 7 2 7.44772 2 8C2 8.55228 2.44772 9 3 9H7V20.5C7 22.9853 9.01472 25 11.5 25H23V29C23 29.5523 23.4477 30 24 30C24.5523 30 25 29.5523 25 29V25H29C29.5523 25 30 24.5523 30 24C30 23.4477 29.5523 23 29 23H11.5C10.1193 23 9 21.8807 9 20.5V3ZM23 11.5V21.5H25V11.5C25 9.01472 22.9853 7 20.5 7H10.5V9H20.5C21.8807 9 23 10.1193 23 11.5Z" fill="#212121"/>
</svg>
