<svg width="16" height="16" viewBox="0 0 16 16" fill="none" xmlns="http://www.w3.org/2000/svg">
<path d="M5 1.5C5 1.22386 4.77614 1 4.5 1C4.22386 1 4 1.22386 4 1.5V4H1.5C1.22386 4 1 4.22386 1 4.5C1 4.77614 1.22386 5 1.5 5H4V9.5C4 10.8807 5.11929 12 6.5 12H11V14.5C11 14.7761 11.2239 15 11.5 15C11.7761 15 12 14.7761 12 14.5V12H14.5C14.7761 12 15 11.7761 15 11.5C15 11.2239 14.7761 11 14.5 11H6.5C5.67157 11 5 10.3284 5 9.5V1.5ZM11 6.5V10H12V6.5C12 5.11929 10.8807 4 9.5 4H6V5H9.5C10.3284 5 11 5.67157 11 6.5Z" fill="#212121"/>
</svg>
