<svg width="20" height="20" viewBox="0 0 20 20" fill="none" xmlns="http://www.w3.org/2000/svg">
<path d="M16.5 13.9997C17.3283 13.9997 17.9998 14.6714 18 15.4997C18 16.7449 17 17.9997 14.5 17.9997C12 17.9997 11 16.7496 11 15.4997C11.0002 14.6714 11.6717 13.9997 12.5 13.9997H16.5ZM8.99609 2.38546C9.56655 1.87204 10.4334 1.87204 11.0039 2.38546L16.5039 7.33565C16.8196 7.62003 16.9999 8.02503 17 8.44991V9.34346C16.4627 8.53435 15.5441 8.00069 14.5 8.00069C12.8431 8.00069 11.5 9.34384 11.5 11.0007C11.5001 11.7738 11.7931 12.4786 12.2734 13.0105C10.9991 13.1251 10 14.1965 10 15.5007C10.0001 16.0142 10.1195 16.531 10.3701 17.0046H4.5C3.67164 17.0046 3.00011 16.3329 3 15.5046V8.44991C3.00008 8.02503 3.18043 7.62003 3.49609 7.33565L8.99609 2.38546ZM14.5 8.99971C15.6045 8.99971 16.4998 9.89528 16.5 10.9997C16.5 12.1043 15.6046 12.9997 14.5 12.9997C13.3954 12.9997 12.5 12.1043 12.5 10.9997C12.5002 9.89528 13.3955 8.99971 14.5 8.99971Z" fill="#212121"/>
</svg>
