<svg width="28" height="28" viewBox="0 0 28 28" fill="none" xmlns="http://www.w3.org/2000/svg">
<path d="M8.25 16.5C8.94036 16.5 9.5 15.9404 9.5 15.25C9.5 14.5596 8.94036 14 8.25 14C7.55964 14 7 14.5596 7 15.25C7 15.9404 7.55964 16.5 8.25 16.5Z" fill="#212121"/>
<path d="M21 15.25C21 15.9404 20.4404 16.5 19.75 16.5C19.0596 16.5 18.5 15.9404 18.5 15.25C18.5 14.5596 19.0596 14 19.75 14C20.4404 14 21 14.5596 21 15.25Z" fill="#212121"/>
<path d="M11.75 16.5C11.3358 16.5 11 16.8358 11 17.25C11 17.6642 11.3358 18 11.75 18H16.25C16.6642 18 17 17.6642 17 17.25C17 16.8358 16.6642 16.5 16.25 16.5H11.75Z" fill="#212121"/>
<path d="M5.22699 9.5L4.94723 10.619C3.82006 10.9625 3 12.0105 3 13.25V22.25C3 23.7688 4.23122 25 5.75 25H6.75C8.26878 25 9.5 23.7688 9.5 22.25V21.25H18.5V22.25C18.5 23.7688 19.7312 25 21.25 25H22.25C23.7688 25 25 23.7688 25 22.25V13.25C25 12.0105 24.18 10.9626 23.0529 10.6191L22.7732 9.5H23.75C24.1642 9.5 24.5 9.16421 24.5 8.75C24.5 8.33579 24.1642 8 23.75 8H22.3982L21.7958 5.59049C21.3784 3.92111 19.8785 2.75 18.1577 2.75H9.8424C8.12164 2.75 6.62171 3.92111 6.20436 5.59049L5.60199 8H4.25C3.83579 8 3.5 8.33579 3.5 8.75C3.5 9.16421 3.83579 9.5 4.25 9.5H5.22699ZM9.8424 4.25H18.1577C19.1902 4.25 20.0902 4.95267 20.3406 5.95429L21.477 10.5H6.52315L7.65958 5.95429C7.90998 4.95267 8.80994 4.25 9.8424 4.25ZM20 22.25V21.25H23.5V22.25C23.5 22.9404 22.9404 23.5 22.25 23.5H21.25C20.5596 23.5 20 22.9404 20 22.25ZM8 21.25V22.25C8 22.9404 7.44036 23.5 6.75 23.5H5.75C5.05964 23.5 4.5 22.9404 4.5 22.25V21.25H8ZM5.75 12H22.25C22.9404 12 23.5 12.5596 23.5 13.25V19.75H4.5V13.25C4.5 12.5596 5.05964 12 5.75 12Z" fill="#212121"/>
</svg>
