<svg width="24" height="24" viewBox="0 0 24 24" fill="none" xmlns="http://www.w3.org/2000/svg">
<path d="M17.75 3C19.5449 3 21 4.45507 21 6.25V17.75C21 19.5449 19.5449 21 17.75 21H6.25C4.45507 21 3 19.5449 3 17.75V6.25C3 4.45507 4.45507 3 6.25 3H17.75ZM17.75 4.5H6.25C5.2835 4.5 4.5 5.2835 4.5 6.25V17.75C4.5 18.7165 5.2835 19.5 6.25 19.5H17.75C18.7165 19.5 19.5 18.7165 19.5 17.75V6.25C19.5 5.2835 18.7165 4.5 17.75 4.5ZM11 7.25C13.0711 7.25 14.75 8.92893 14.75 11C14.75 11.7642 14.5214 12.475 14.1289 13.0678L16.5303 15.4697C16.8232 15.7626 16.8232 16.2374 16.5303 16.5303C16.2641 16.7966 15.8474 16.8208 15.5538 16.6029L15.4697 16.5303L13.0678 14.1289C12.475 14.5214 11.7642 14.75 11 14.75C8.92893 14.75 7.25 13.0711 7.25 11C7.25 8.92893 8.92893 7.25 11 7.25ZM11 8.75C9.75736 8.75 8.75 9.75736 8.75 11C8.75 12.2426 9.75736 13.25 11 13.25C12.2426 13.25 13.25 12.2426 13.25 11C13.25 9.75736 12.2426 8.75 11 8.75Z" fill="#212121"/>
</svg>
