<svg width="48" height="48" viewBox="0 0 48 48" fill="none" xmlns="http://www.w3.org/2000/svg">
<path d="M14.1161 20.3681L23.3085 11.1757C23.7967 10.6875 24.5881 10.6875 25.0763 11.1757C25.5319 11.6313 25.5623 12.3511 25.1674 12.842L25.0763 12.9435L18.019 19.9996H25C28.2537 19.9996 31.2795 20.7201 33.9036 22.0984L34.3146 22.3215C36.9968 23.8253 39.1742 26.0028 40.6781 28.685C42.2016 31.4022 43 34.5746 43 37.9996C43 38.6899 42.4404 39.2496 41.75 39.2496C41.0596 39.2496 40.5 38.6899 40.5 37.9996C40.5 34.9954 39.8077 32.2445 38.4974 29.9076C37.2187 27.6268 35.3727 25.7809 33.092 24.5021C30.8849 23.2647 28.3086 22.5784 25.4983 22.506L25 22.4996H18.015L25.0763 29.5605C25.5319 30.0161 25.5623 30.7359 25.1674 31.2267L25.0763 31.3282C24.6207 31.7838 23.9008 31.8142 23.41 31.4194L23.3085 31.3282L14.1161 22.1358C13.6605 21.6802 13.6301 20.9604 14.025 20.4696L14.1161 20.3681L23.3085 11.1757L14.1161 20.3681ZM6.11612 20.3681L15.3085 11.1757C15.7967 10.6875 16.5881 10.6875 17.0763 11.1757C17.5319 11.6313 17.5623 12.3511 17.1674 12.842L17.0763 12.9435L8.76777 21.252L17.0763 29.5605C17.5644 30.0486 17.5644 30.8401 17.0763 31.3282C16.6207 31.7838 15.9008 31.8142 15.41 31.4194L15.3085 31.3282L6.11612 22.1358C5.6605 21.6802 5.63013 20.9604 6.02499 20.4696L6.11612 20.3681L15.3085 11.1757L6.11612 20.3681Z" fill="#212121"/>
</svg>
