<svg width="16" height="16" viewBox="0 0 16 16" fill="none" xmlns="http://www.w3.org/2000/svg">
<path d="M12.0002 3.00015C12.0002 2.44787 11.5524 2.00015 11.0002 2.00015C10.4479 2.00015 10.0002 2.44787 10.0002 3.00015V9.38983L5.86557 2.49887C5.71473 2.23906 5.45025 2.05341 5.14017 2.00997C4.98059 1.98731 4.81482 2.00293 4.65749 2.06049C4.58059 2.08854 4.50809 2.12576 4.44133 2.17083C4.30179 2.26469 4.19296 2.38844 4.11828 2.52833C4.05748 2.64173 4.0179 2.76821 4.00487 2.90246C4.00107 2.94092 3.99948 2.97966 4.00015 3.01848L4.00015 13.0002C4.00015 13.5525 4.44787 14.0002 5.00015 14.0002C5.55244 14.0002 6.00015 13.5525 6.00015 13.0002L6.00015 6.61047L10.1427 13.5146C10.3739 13.9001 10.8339 14.0838 11.2671 13.9639C11.7003 13.8439 12.0002 13.4496 12.0002 13.0002V3.00015Z" fill="#212121"/>
</svg>
