<svg width="20" height="20" viewBox="0 0 20 20" fill="none" xmlns="http://www.w3.org/2000/svg">
<path d="M5 2C3.89543 2 3 2.89543 3 4V5H2.5C2.22386 5 2 5.22386 2 5.5C2 5.77614 2.22386 6 2.5 6H3V9H2.5C2.22386 9 2 9.22386 2 9.5C2 9.77614 2.22386 10 2.5 10H3V13H2.5C2.22386 13 2 13.2239 2 13.5C2 13.7761 2.22386 14 2.5 14H3V15C3 16.1046 3.89543 17 5 17H8.04411C7.87887 16.6903 7.72087 16.356 7.58005 16H5C4.44772 16 4 15.5523 4 15V14H4.5C4.77614 14 5 13.7761 5 13.5C5 13.2239 4.77614 13 4.5 13H4V10H4.5C4.77614 10 5 9.77614 5 9.5C5 9.22386 4.77614 9 4.5 9H4V6H4.5C4.77614 6 5 5.77614 5 5.5C5 5.22386 4.77614 5 4.5 5H4V4C4 3.44772 4.44772 3 5 3H12C12.5523 3 13 3.44772 13 4V5.73337C13.1756 5.84933 13.3425 5.9774 13.4995 6.11641C13.6559 5.96003 13.823 5.81325 14 5.67729V4C14 2.89543 13.1046 2 12 2H5ZM15.9472 6.27638C15.8237 6.02939 15.5234 5.92928 15.2764 6.05277C14.5282 6.42686 13.9278 7.01042 13.5319 7.71176C12.9341 6.68791 11.8237 5.99999 10.5526 5.99999H10.2059C9.81603 5.99999 9.5 6.31602 9.5 6.70587V7.05262C9.5 8.04518 9.91948 8.93978 10.5908 9.56879C9.32226 9.85352 8 11.0222 8 13.0788C8 15.529 9.45311 17.512 10.1893 18.3648C10.5647 18.7996 11.1044 19 11.6345 19H11.6754C12.2455 19 12.7889 18.7582 13.1707 18.3348L13.2606 18.235C13.2912 18.2011 13.3247 18.1705 13.3605 18.1434C13.4399 18.0836 13.5601 18.0836 13.6395 18.1434C13.6753 18.1705 13.7088 18.2011 13.7394 18.235L13.8293 18.3348C14.2111 18.7582 14.7545 19 15.3246 19H15.3655C15.8956 19 16.4353 18.7996 16.8107 18.3648C17.5469 17.512 19 15.529 19 13.0788C19 10.6909 17.2174 9.49999 15.806 9.49999C15.1373 9.49999 14.6116 9.64897 14.2525 9.79886C14.1637 9.83593 14.0798 9.86884 14 9.89676V9.73606C14 8.55503 14.6673 7.47537 15.7236 6.9472C15.9706 6.82371 16.0707 6.52337 15.9472 6.27638ZM10.5 7.05262V6.99999H10.5526C11.9043 6.99999 13 8.09571 13 9.44736C13 9.47642 12.9764 9.49999 12.9474 9.49999C11.5957 9.49999 10.5 8.40426 10.5 7.05262ZM11.6972 11.7764C11.8207 12.0234 11.7206 12.3237 11.4736 12.4472C11.0755 12.6462 10.8538 13.0816 10.927 13.5206L10.9932 13.9178C11.0386 14.1902 10.8546 14.4478 10.5822 14.4932C10.3098 14.5386 10.0522 14.3546 10.0068 14.0822L9.94061 13.685C9.79527 12.813 10.2357 11.9481 11.0264 11.5528C11.2734 11.4293 11.5737 11.5294 11.6972 11.7764Z" fill="#212121"/>
</svg>
