<svg width="20" height="20" viewBox="0 0 20 20" fill="none" xmlns="http://www.w3.org/2000/svg">
<path d="M5.5 10C7.98528 10 10 12.0147 10 14.5C10 16.9853 7.98528 19 5.5 19C3.01472 19 1 16.9853 1 14.5C1 12.0147 3.01472 10 5.5 10ZM15 17C15 17.5523 14.5523 18 14 18H9.74316C9.99674 17.6929 10.2175 17.3577 10.4004 17H15ZM7.5 15C6.94772 15 6.5 15.4477 6.5 16C6.5 16.5523 6.94772 17 7.5 17C8.05228 17 8.5 16.5523 8.5 16C8.5 15.4477 8.05228 15 7.5 15ZM7.84961 12.1465C7.65435 11.9512 7.33784 11.9512 7.14258 12.1465L3.14648 16.1426C2.95125 16.3378 2.95123 16.6544 3.14648 16.8496C3.34174 17.0449 3.65825 17.0448 3.85352 16.8496L7.84961 12.8535C8.04487 12.6583 8.04487 12.3417 7.84961 12.1465ZM11 6.5C11 7.32843 11.6716 8 12.5 8H17V14.5C17 15.3284 16.3284 16 15.5 16H10.793C10.9278 15.5232 11 15.02 11 14.5C11 11.631 8.80325 9.27508 6 9.02246V3.5C6 2.67157 6.67157 2 7.5 2H11V6.5ZM3.5 12C2.94772 12 2.5 12.4477 2.5 13C2.5 13.5523 2.94772 14 3.5 14C4.05228 14 4.5 13.5523 4.5 13C4.5 12.4477 4.05228 12 3.5 12ZM5 9.02246C4.65659 9.05341 4.32228 9.11588 4 9.20703V5C4 4.44772 4.44772 4 5 4V9.02246ZM16.75 7H12.5C12.2239 7 12 6.77614 12 6.5V2.25L16.75 7Z" fill="#212121"/>
</svg>
