<svg width="32" height="32" viewBox="0 0 32 32" fill="none" xmlns="http://www.w3.org/2000/svg">
<path d="M11 2C12.1135 2.00019 12.9231 2.7337 13.4844 3.55078C14.0554 4.38224 14.5216 5.50788 14.9219 6.75684C15.7256 9.2643 16.3615 12.5825 16.9825 15.8115C17.6114 19.0822 18.2257 22.2644 18.9844 24.6318C19.3652 25.8198 19.7588 26.7261 20.1641 27.3164C20.5788 27.9202 20.8638 27.9998 21 28C21.1363 27.9998 21.4212 27.9203 21.836 27.3164C22.2414 26.7261 22.6358 25.82 23.0166 24.6318C23.4752 23.2009 23.8778 21.4715 24.2657 19.6055C22.9251 18.9594 22 17.5877 22 16C22 13.7909 23.7909 12 26 12C28.2092 12 30 13.7909 30 16C30 18.1321 28.3319 19.8742 26.2295 19.9932C25.8324 21.9073 25.4088 23.7241 24.9219 25.2432C24.5216 26.4921 24.0554 27.6178 23.4844 28.4492C22.9231 29.2663 22.1135 29.9998 21 30C19.8865 29.9998 19.077 29.2664 18.5157 28.4492C17.9446 27.6178 17.4795 26.4921 17.0791 25.2432C16.2755 22.7357 15.6396 19.4175 15.0186 16.1885C14.3896 12.9179 13.7754 9.73556 13.0166 7.36816C12.6358 6.17999 12.2414 5.27393 11.836 4.68359C11.4212 4.07971 11.1363 4.00017 11 4C10.8638 4.00015 10.5788 4.07984 10.1641 4.68359C9.75876 5.27392 9.36518 6.18016 8.98441 7.36816C8.52583 8.79898 8.12154 10.5278 7.73343 12.3936C9.07461 13.0394 10 14.4118 10 16C10 18.2091 8.20916 20 6.00003 20C3.79089 20 2.00003 18.2091 2.00003 16C2.00003 13.8682 3.66764 12.1252 5.76956 12.0059C6.16687 10.092 6.59232 8.2757 7.07913 6.75684C7.47947 5.50785 7.94461 4.38222 8.51566 3.55078C9.07695 2.73362 9.88647 2.00017 11 2ZM26 14C24.8955 14 24 14.8954 24 16C24 17.1046 24.8955 18 26 18C27.1046 18 28 17.1046 28 16C28 14.8954 27.1046 14 26 14ZM6.00003 14C4.89546 14 4.00003 14.8954 4.00003 16C4.00003 17.1046 4.89546 18 6.00003 18C7.10459 18 8.00003 17.1046 8.00003 16C8.00003 14.8954 7.10459 14 6.00003 14Z" fill="#212121"/>
</svg>
