<svg width="32" height="32" viewBox="0 0 32 32" fill="none" xmlns="http://www.w3.org/2000/svg">
<path d="M16.0001 2C23.7321 2 30.0001 8.26802 30.0001 16C30.0001 21.3015 27.0526 25.9135 22.712 28.2891C20.6355 29.4253 18.4602 29.1771 16.8321 28.0117C15.2265 26.8622 14.2075 24.8658 14.2433 22.584C14.2642 21.244 14.2506 20.138 14.0059 19.2402C13.7784 18.4054 13.3646 17.8004 12.5528 17.3945C11.8137 17.025 11.2075 16.9983 10.6573 17.1152C10.0653 17.2412 9.49662 17.54 8.84188 17.9209C8.24468 18.2683 7.49391 18.7404 6.72567 18.9649C5.86805 19.2154 4.9331 19.1835 3.99032 18.5606C2.24094 17.4045 1.91903 15.1872 2.22176 13.5049C3.39926 6.96344 9.11921 2.00004 16.0001 2ZM16.0001 4C10.1042 4.00005 5.19958 8.25364 4.19051 13.8594C3.95446 15.1715 4.30393 16.3701 5.09286 16.8916C5.47167 17.1419 5.78105 17.1568 6.16415 17.0449C6.63668 16.9069 7.12443 16.6069 7.837 16.1924C8.49188 15.8114 9.30511 15.3583 10.2413 15.1592C11.2197 14.9512 12.2895 15.0266 13.4474 15.6055C14.8593 16.3115 15.5875 17.4368 15.9356 18.7139C16.2666 19.928 16.2626 21.3159 16.2423 22.6153C16.2161 24.2846 16.9586 25.6429 17.9962 26.3858C19.0115 27.1126 20.3621 27.2948 21.752 26.5342C25.4773 24.4954 28.0001 20.5417 28.0001 16C28.0001 9.37259 22.6275 4 16.0001 4ZM20.5001 20.75C21.4666 20.75 22.2501 21.5335 22.2501 22.5C22.2501 23.4665 21.4666 24.25 20.5001 24.25C19.5336 24.25 18.7501 23.4665 18.7501 22.5C18.7501 21.5335 19.5336 20.7501 20.5001 20.75ZM24.0001 17.25C24.9666 17.25 25.7501 18.0335 25.7501 19C25.7501 19.9665 24.9666 20.75 24.0001 20.75C23.0336 20.75 22.2501 19.9665 22.2501 19C22.2501 18.0335 23.0336 17.2501 24.0001 17.25ZM23.5001 11.75C24.4666 11.75 25.2501 12.5335 25.2501 13.5C25.2501 14.4665 24.4666 15.25 23.5001 15.25C22.5336 15.25 21.7501 14.4665 21.7501 13.5C21.7501 12.5335 22.5336 11.7501 23.5001 11.75ZM20.5001 7.25C21.4666 7.25 22.2501 8.03351 22.2501 9.00001C22.2501 9.96651 21.4666 10.75 20.5001 10.75C19.5336 10.75 18.7501 9.96647 18.7501 9.00001C18.7501 8.03354 19.5336 7.25005 20.5001 7.25ZM15.5001 6.25C16.4666 6.25 17.2501 7.03351 17.2501 8C17.2501 8.9665 16.4666 9.75001 15.5001 9.75001C14.5336 9.74996 13.7501 8.96647 13.7501 8C13.7501 7.03354 14.5336 6.25005 15.5001 6.25Z" fill="#212121"/>
</svg>
