<svg width="16" height="16" viewBox="0 0 16 16" fill="none" xmlns="http://www.w3.org/2000/svg">
<path d="M9.73321 1.5606C10.4808 0.81311 11.6927 0.813137 12.4403 1.56066C13.1878 2.30823 13.1878 3.52029 12.4402 4.26783L11.5981 5.10982C11.2433 5.03792 10.876 5.00018 10.5 5.00018C7.46243 5.00018 5 7.46262 5 10.5002C5 10.8761 5.03771 11.2431 5.10954 11.5978L5.04531 11.662C4.86432 11.843 4.64368 11.9794 4.40087 12.0603L1.65813 12.9746C1.47846 13.0344 1.28038 12.9877 1.14646 12.8538C1.01254 12.7198 0.965783 12.5218 1.02567 12.3421L1.93989 9.59943C2.02085 9.35655 2.15725 9.13586 2.33829 8.95484L9.73321 1.5606ZM6 10.5C6 12.9853 8.01472 15 10.5 15C12.9853 15 15 12.9853 15 10.5C15 8.01472 12.9853 6 10.5 6C8.01472 6 6 8.01472 6 10.5ZM12.5 7.5C12.7761 7.5 13 7.72386 13 8V9.5C13 9.77614 12.7761 10 12.5 10H11C10.7239 10 10.5 9.77614 10.5 9.5C10.5 9.22386 10.7239 9 11 9H11.4682C11.4179 8.97215 11.3663 8.94644 11.3135 8.92296C11.0682 8.81372 10.8034 8.755 10.535 8.75031C10.2665 8.74561 9.99977 8.79503 9.75079 8.89562C9.5018 8.99621 9.27563 9.1459 9.08575 9.33579C8.89048 9.53105 8.5739 9.53105 8.37864 9.33579C8.18338 9.14052 8.18338 8.82394 8.37864 8.62868C8.66346 8.34386 9.00273 8.11931 9.3762 7.96842C9.74967 7.81754 10.1497 7.74341 10.5524 7.75046C10.9552 7.75751 11.3524 7.84558 11.7203 8.00944C11.8162 8.05211 11.9095 8.0997 12 8.15195V8C12 7.72386 12.2239 7.5 12.5 7.5ZM11.6238 13.0316C11.2503 13.1825 10.8503 13.2566 10.4476 13.2495C10.0448 13.2425 9.64762 13.1544 9.27966 12.9906C9.18383 12.9479 9.09049 12.9003 9 12.8481V13C9 13.2761 8.77614 13.5 8.5 13.5C8.22386 13.5 8 13.2761 8 13V11.5C8 11.2239 8.22386 11 8.5 11H10C10.2761 11 10.5 11.2239 10.5 11.5C10.5 11.7761 10.2761 12 10 12H9.53179C9.58213 12.0278 9.63372 12.0536 9.68645 12.077C9.93176 12.1863 10.1966 12.245 10.465 12.2497C10.7335 12.2544 11.0002 12.205 11.2492 12.1044C11.4982 12.0038 11.7244 11.8541 11.9143 11.6642C12.1095 11.469 12.4261 11.469 12.6214 11.6642C12.8166 11.8595 12.8166 12.1761 12.6214 12.3713C12.3365 12.6561 11.9973 12.8807 11.6238 13.0316Z" fill="#212121"/>
</svg>
