<svg width="48" height="48" viewBox="0 0 48 48" fill="none" xmlns="http://www.w3.org/2000/svg">
<path d="M23.5 7.5C18.5294 7.5 14.5 11.5294 14.5 16.5C14.5 18.9156 15.4517 21.109 17.0005 22.7255V23.1532C16.005 22.9119 15.0039 22.8888 14.0489 23.0537C12.7572 21.1943 12 18.9356 12 16.5C12 10.1487 17.1487 5 23.5 5C29.8513 5 35 10.1487 35 16.5C35 18.0114 34.7084 19.4547 34.1785 20.7767C34.0784 20.7511 33.9773 20.7273 33.8753 20.7054L31.6902 20.2363C32.2102 19.0983 32.5 17.833 32.5 16.5C32.5 11.5294 28.4706 7.5 23.5 7.5ZM23.5002 12C21.0149 12 19.0002 14.0147 19.0002 16.5V25.9682L17.1302 25.28C13.9919 24.1249 10.5767 26.1082 10.0247 29.4065C9.87727 30.2872 10.3546 31.136 11.1433 31.4914C18.4359 34.778 21.5382 37.8683 22.6189 40.1819C23.1078 41.2285 24.2423 42.1444 25.6516 41.9793L31.8943 41.248C33.6136 41.0466 35.0389 39.8226 35.4978 38.1536L37.7926 29.8072C38.6686 26.6213 36.6857 23.3543 33.4552 22.6608L28.0002 21.4898V16.5C28.0002 14.0147 25.9854 12 23.5002 12Z" fill="#212121"/>
</svg>
