<svg width="24" height="24" viewBox="0 0 24 24" fill="none" xmlns="http://www.w3.org/2000/svg">
<path d="M12 2C13.733 2 15.1492 3.35645 15.2449 5.06546L15.25 5.24987L15.251 13.202L15.331 13.2709C16.2565 14.0975 16.8482 15.2418 16.9746 16.4939L16.9936 16.7457L17 17C17 19.7614 14.7614 22 12 22C9.23858 22 7 19.7614 7 17C7 15.6373 7.5496 14.3655 8.48922 13.4396L8.66993 13.2701L8.749 13.202L8.75 5.25C8.75 3.57886 10.0113 2.20232 11.6339 2.0204L11.8156 2.00514L12 2ZM12 3.5C11.0818 3.5 10.3288 4.20711 10.2558 5.10651L10.25 5.25004L10.2495 13.9445L9.94128 14.1691C9.04185 14.8246 8.5 15.8664 8.5 17C8.5 18.933 10.067 20.5 12 20.5C13.933 20.5 15.5 18.933 15.5 17C15.5 15.9376 15.0241 14.9558 14.2239 14.2971L14.0595 14.1697L13.7515 13.9451L13.75 5.25C13.75 4.2835 12.9665 3.5 12 3.5ZM12 8C12.4142 8 12.75 8.33579 12.75 8.75L12.7506 14.6146C13.7646 14.9334 14.5 15.8808 14.5 17C14.5 18.3807 13.3807 19.5 12 19.5C10.6193 19.5 9.5 18.3807 9.5 17C9.5 15.8804 10.2359 14.9328 11.2504 14.6143L11.25 8.75C11.25 8.33579 11.5858 8 12 8Z" fill="#212121"/>
</svg>
