<svg width="20" height="20" viewBox="0 0 20 20" fill="none" xmlns="http://www.w3.org/2000/svg">
<path d="M14.5 3C15.8807 3 17 4.11929 17 5.5V12H16V5.5C16 4.7203 15.4051 4.07955 14.6445 4.00687L14.5 4H5.5C4.7203 4 4.07955 4.59489 4.00687 5.35554L4 5.5V12H3V5.5C3 4.11929 4.11929 3 5.5 3H14.5ZM17 14.5C17 15.3179 16.6072 16.0441 16 16.5002C15.5822 16.814 15.0628 17 14.5 17H13V13H17V14.5ZM4 16.5002C4.41783 16.814 4.9372 17 5.5 17H7V13H3V14.5C3 15.3179 3.39278 16.0441 4 16.5002ZM8 13H12V17H8V13Z" fill="#212121"/>
</svg>
