<svg width="20" height="20" viewBox="0 0 20 20" fill="none" xmlns="http://www.w3.org/2000/svg">
<path d="M3.50199 1.99609L3.59187 2.00415C3.79596 2.04119 3.95689 2.20213 3.99394 2.40622L4.00199 2.49609L4.00133 4.70762C5.16628 3.38448 6.75044 2.46588 8.54411 2.13344C12.8884 1.32827 17.0629 4.1973 17.868 8.54159C17.975 9.11882 18.0171 9.69306 17.9995 10.2568C17.69 10.0012 17.352 9.77884 16.991 9.59515C16.974 9.30643 16.9388 9.01556 16.8848 8.72383C16.1803 4.92257 12.5276 2.41217 8.72635 3.11669C6.88719 3.45756 5.30109 4.50146 4.26039 5.99497L7 5.99609L7.08988 6.00415C7.32312 6.04649 7.5 6.25063 7.5 6.49609C7.5 6.74155 7.32312 6.9457 7.08988 6.98804L7 6.99609H3.50199L3.41212 6.98804C3.20803 6.95099 3.04709 6.79006 3.01005 6.58597L3.00199 6.49609V2.49609L3.01005 2.40622C3.04709 2.20213 3.20803 2.04119 3.41212 2.00415L3.50199 1.99609ZM9.59422 16.9892C9.77751 17.3497 9.99937 17.6873 10.2544 17.9966C6.36799 18.1241 2.86613 15.3975 2.13587 11.4574C2.04916 10.9895 1.97832 10.1379 2.00614 9.47828C2.01777 9.20238 2.25086 8.98816 2.52676 8.99979C2.80265 9.01142 3.01688 9.24451 3.00525 9.52041C2.9808 10.1003 3.04545 10.8776 3.11913 11.2751C3.71846 14.5088 6.45133 16.8084 9.59422 16.9892ZM10.2572 11C10.5705 10.6206 10.9338 10.2839 11.3369 10H10.002V6.49609L9.99394 6.40622C9.95689 6.20213 9.79596 6.04119 9.59187 6.00415L9.50199 5.99609L9.41212 6.00415C9.20803 6.04119 9.04709 6.20213 9.01005 6.40622L9.00199 6.49609V10.5L9.01005 10.5899C9.04709 10.794 9.20803 10.9549 9.41212 10.9919L9.50199 11H10.2572ZM19 14.5C19 16.9853 16.9853 19 14.5 19C12.0147 19 10 16.9853 10 14.5C10 12.0147 12.0147 10 14.5 10C16.9853 10 19 12.0147 19 14.5ZM16.3536 13.3536C16.5488 13.1583 16.5488 12.8417 16.3536 12.6464C16.1583 12.4512 15.8417 12.4512 15.6464 12.6464L14.5 13.7929L13.3536 12.6464C13.1583 12.4512 12.8417 12.4512 12.6464 12.6464C12.4512 12.8417 12.4512 13.1583 12.6464 13.3536L13.7929 14.5L12.6464 15.6464C12.4512 15.8417 12.4512 16.1583 12.6464 16.3536C12.8417 16.5488 13.1583 16.5488 13.3536 16.3536L14.5 15.2071L15.6464 16.3536C15.8417 16.5488 16.1583 16.5488 16.3536 16.3536C16.5488 16.1583 16.5488 15.8417 16.3536 15.6464L15.2071 14.5L16.3536 13.3536Z" fill="#212121"/>
</svg>
