<svg width="24" height="24" viewBox="0 0 24 24" fill="none" xmlns="http://www.w3.org/2000/svg">
<path d="M2 8V6.25C2 4.45507 3.45507 3 5.25 3H8.12868C8.72542 3 9.29771 3.23705 9.71967 3.65901L11.25 5.18934L8.65901 7.78033C8.51836 7.92098 8.32759 8 8.12868 8H2ZM2 9.5V17.75C2 19.5449 3.45507 21 5.25 21H12.0218C11.375 19.9897 11 18.7886 11 17.5C11 13.9101 13.9101 11 17.5 11C19.2465 11 20.8321 11.6888 22 12.8096V8.75C22 6.95507 20.5449 5.5 18.75 5.5H13.0607L9.71967 8.84099C9.29771 9.26295 8.72542 9.5 8.12868 9.5H2ZM17.5 23C14.4624 23 12 20.5376 12 17.5C12 14.4624 14.4624 12 17.5 12C20.5376 12 23 14.4624 23 17.5C23 20.5376 20.5376 23 17.5 23ZM20.5 18C20.7761 18 21 17.7761 21 17.5C21 17.2239 20.7761 17 20.5 17H15.7071L17.3536 15.3536C17.5488 15.1583 17.5488 14.8417 17.3536 14.6464C17.1583 14.4512 16.8417 14.4512 16.6464 14.6464L14.1464 17.1464C13.9512 17.3417 13.9512 17.6583 14.1464 17.8536L16.6464 20.3536C16.8417 20.5488 17.1583 20.5488 17.3536 20.3536C17.5488 20.1583 17.5488 19.8417 17.3536 19.6464L15.7071 18H20.5Z" fill="#212121"/>
</svg>
