<svg width="12" height="12" viewBox="0 0 12 12" fill="none" xmlns="http://www.w3.org/2000/svg">
<path d="M7.9043 6.33204C8.17192 5.88923 8.82886 5.88946 9.09668 6.33204L9.14844 6.43361L9.40333 7.05372C9.5048 7.30053 9.70053 7.49705 9.94727 7.59865L10.5674 7.85353C11.1458 8.09134 11.1458 8.91065 10.5674 9.14845L9.94727 9.40334C9.70054 9.50495 9.50479 9.70145 9.40333 9.94826L9.14844 10.5674C8.91064 11.1459 8.09132 11.1459 7.85352 10.5674L7.59864 9.94826C7.49709 9.70136 7.30062 9.50487 7.05371 9.40334L6.4336 9.14845C5.85546 8.91056 5.85549 8.09145 6.4336 7.85353L7.05371 7.59865C7.30072 7.4971 7.4971 7.30073 7.59864 7.05372L7.85352 6.43361L7.9043 6.33204ZM8.5 7.48146C8.29859 7.93686 7.93602 8.29983 7.48047 8.50099C7.93573 8.70207 8.29856 9.0645 8.5 9.51955C8.7012 9.06461 9.06465 8.70228 9.51954 8.50099C9.06446 8.29963 8.70117 7.93664 8.5 7.48146ZM3.81836 1.37891C4.14624 0.837445 4.98413 0.876398 5.23926 1.49512L5.74024 2.71387C5.84173 2.96077 6.03832 3.15721 6.28516 3.2588L7.50391 3.75977C8.16467 4.03163 8.16461 4.96736 7.50391 5.23927L6.28516 5.74025C6.03827 5.84178 5.84178 6.03828 5.74024 6.28517L5.23926 7.50392C4.96735 8.16463 4.03162 8.16468 3.75977 7.50392L3.25879 6.28517C3.1572 6.03833 2.96075 5.84174 2.71387 5.74025L1.49512 5.23927C0.83506 4.96711 0.834861 4.03173 1.49512 3.75977L2.71387 3.2588C2.96088 3.15725 3.15725 2.96088 3.25879 2.71387L3.75977 1.49512L3.81836 1.37891ZM4.1836 3.09473C3.98052 3.58845 3.58844 3.98052 3.09473 4.1836L2.32617 4.49903L3.09473 4.81544C3.58848 5.01851 3.98051 5.41154 4.1836 5.90528L4.49903 6.67286L4.81543 5.90528C5.01852 5.41139 5.41138 5.01852 5.90528 4.81544L6.67285 4.49903L5.90528 4.1836C5.41152 3.98052 5.01851 3.58849 4.81543 3.09473L4.49903 2.32618L4.1836 3.09473Z" fill="#212121"/>
</svg>
