<?xml version="1.0" encoding="UTF-8"?>
<svg width="28px" height="28px" viewBox="0 0 28 28" version="1.1" xmlns="http://www.w3.org/2000/svg" xmlns:xlink="http://www.w3.org/1999/xlink">
    <!-- Generator: Sketch 59.1 (86144) - https://sketch.com -->
    <title>ic_image_library_28_regular</title>
    <desc>Created with Sketch.</desc>
    <g id="ðŸ”-Product-Icons" stroke="none" stroke-width="1" fill="none" fill-rule="evenodd">
        <g id="ic_image_library_28_regular" fill="#212121" fill-rule="nonzero">
            <path d="M22.9932158,6.00782415 C23.8987635,6.58284797 24.5,7.59621083 24.5,8.75 L24.5,19.25 C24.5,22.1494949 22.1494949,24.5 19.25,24.5 L8.75,24.5 C7.59621083,24.5 6.58284797,23.8987635 6.00612306,22.9925021 L6.12827706,22.9982072 L6.25,23 L19.25,23 C21.3210678,23 23,21.3210678 23,19.25 L23,6.25 C23,6.16872164 22.9977184,6.08797617 22.9932158,6.00782415 Z M18.75,3 C20.5449254,3 22,4.45507456 22,6.25 L22,18.75 C22,20.5449254 20.5449254,22 18.75,22 L6.25,22 C4.45507456,22 3,20.5449254 3,18.75 L3,6.25 C3,4.45507456 4.45507456,3 6.25,3 L18.75,3 Z M19.331549,20.4010512 L13.024576,14.2231154 C12.7595029,13.963499 12.3499409,13.9398975 12.0585971,14.1523109 L11.9750032,14.2231154 L5.66845098,20.4010512 C5.85040089,20.4651384 6.04612926,20.5 6.25,20.5 L18.75,20.5 C18.9538707,20.5 19.1495991,20.4651384 19.331549,20.4010512 L13.024576,14.2231154 L19.331549,20.4010512 Z M18.75,4.5 L6.25,4.5 C5.28350169,4.5 4.5,5.28350169 4.5,6.25 L4.5,18.75 C4.5,18.9580237 4.53629637,19.1575698 4.60290153,19.342651 L10.9254305,13.1514825 C11.7585174,12.3355452 13.0673362,12.296691 13.9457309,13.03492 L14.0741487,13.1514825 L20.3967355,19.3436585 C20.4635718,19.1582941 20.5,18.9584012 20.5,18.75 L20.5,6.25 C20.5,5.28350169 19.7164983,4.5 18.75,4.5 Z M16.0004478,7.75115873 C16.6904111,7.75115873 17.2497368,8.3104845 17.2497368,9.00044779 C17.2497368,9.69041108 16.6904111,10.2497368 16.0004478,10.2497368 C15.3104845,10.2497368 14.7511587,9.69041108 14.7511587,9.00044779 C14.7511587,8.3104845 15.3104845,7.75115873 16.0004478,7.75115873 Z" id="ðŸŽ¨-Color"></path>
        </g>
    </g>
</svg>