<svg width="48" height="48" viewBox="0 0 48 48" fill="none" xmlns="http://www.w3.org/2000/svg">
<path d="M42 35.75C42 39.2018 39.2018 42 35.75 42H12.25C8.79822 42 6 39.2018 6 35.75V16L24 15L42 16V35.75Z" fill="url(#paint0_linear_378174_9807)"/>
<path d="M42 35.75C42 39.2018 39.2018 42 35.75 42H12.25C8.79822 42 6 39.2018 6 35.75V16L24 15L42 16V35.75Z" fill="url(#paint1_linear_378174_9807)"/>
<g filter="url(#filter0_d_378174_9807)">
<path d="M15.5 26C16.8807 26 18 24.8807 18 23.5C18 22.1193 16.8807 21 15.5 21C14.1193 21 13 22.1193 13 23.5C13 24.8807 14.1193 26 15.5 26ZM26.5 23.5C26.5 24.8807 25.3807 26 24 26C22.6193 26 21.5 24.8807 21.5 23.5C21.5 22.1193 22.6193 21 24 21C25.3807 21 26.5 22.1193 26.5 23.5ZM32.5 26C33.8807 26 35 24.8807 35 23.5C35 22.1193 33.8807 21 32.5 21C31.1193 21 30 22.1193 30 23.5C30 24.8807 31.1193 26 32.5 26ZM18 31.5C18 32.8807 16.8807 34 15.5 34C14.1193 34 13 32.8807 13 31.5C13 30.1193 14.1193 29 15.5 29C16.8807 29 18 30.1193 18 31.5ZM24 34C25.3807 34 26.5 32.8807 26.5 31.5C26.5 30.1193 25.3807 29 24 29C22.6193 29 21.5 30.1193 21.5 31.5C21.5 32.8807 22.6193 34 24 34Z" fill="url(#paint2_linear_378174_9807)"/>
</g>
<path d="M12.25 6C8.79822 6 6 8.79822 6 12.25V16H42V12.25C42 8.79822 39.2018 6 35.75 6H12.25Z" fill="url(#paint3_linear_378174_9807)"/>
<defs>
<filter id="filter0_d_378174_9807" x="11.6667" y="20.3333" width="24.6667" height="15.6667" filterUnits="userSpaceOnUse" color-interpolation-filters="sRGB">
<feFlood flood-opacity="0" result="BackgroundImageFix"/>
<feColorMatrix in="SourceAlpha" type="matrix" values="0 0 0 0 0 0 0 0 0 0 0 0 0 0 0 0 0 0 127 0" result="hardAlpha"/>
<feOffset dy="0.666667"/>
<feGaussianBlur stdDeviation="0.666667"/>
<feColorMatrix type="matrix" values="0 0 0 0 0.1242 0 0 0 0 0.323337 0 0 0 0 0.7958 0 0 0 0.32 0"/>
<feBlend mode="normal" in2="BackgroundImageFix" result="effect1_dropShadow_378174_9807"/>
<feBlend mode="normal" in="SourceGraphic" in2="effect1_dropShadow_378174_9807" result="shape"/>
</filter>
<linearGradient id="paint0_linear_378174_9807" x1="30.5" y1="45.3158" x2="20.9727" y2="16.1038" gradientUnits="userSpaceOnUse">
<stop stop-color="#B3E0FF"/>
<stop offset="1" stop-color="#B3E0FF"/>
</linearGradient>
<linearGradient id="paint1_linear_378174_9807" x1="27.8571" y1="26.0455" x2="32.5628" y2="48.2291" gradientUnits="userSpaceOnUse">
<stop stop-color="#DCF8FF" stop-opacity="0"/>
<stop offset="1" stop-color="#FF6CE8" stop-opacity="0.7"/>
</linearGradient>
<linearGradient id="paint2_linear_378174_9807" x1="22" y1="19.5" x2="26.0431" y2="45.4933" gradientUnits="userSpaceOnUse">
<stop stop-color="#0078D4"/>
<stop offset="1" stop-color="#0067BF"/>
</linearGradient>
<linearGradient id="paint3_linear_378174_9807" x1="6" y1="6" x2="36.7435" y2="-3.92624" gradientUnits="userSpaceOnUse">
<stop stop-color="#0094F0"/>
<stop offset="1" stop-color="#2764E7"/>
</linearGradient>
</defs>
</svg>
