<?xml version="1.0" encoding="UTF-8"?>
<svg width="20px" height="20px" viewBox="0 0 20 20" version="1.1" xmlns="http://www.w3.org/2000/svg" xmlns:xlink="http://www.w3.org/1999/xlink">
    <!-- Generator: Sketch 64 (93537) - https://sketch.com -->
    <title>ic_fluent_collections_20_regular</title>
    <desc>Created with Sketch.</desc>
    <g id="ðŸ”-System-Icons" stroke="none" stroke-width="1" fill="none" fill-rule="evenodd">
        <g id="ic_fluent_collections_20_regular" fill="#212121" fill-rule="nonzero">
            <path d="M14.5,10 C16.9853,10 19,12.0147 19,14.5 C19,16.9853 16.9853,19 14.5,19 C12.0147,19 10,16.9853 10,14.5 C10,12.0147 12.0147,10 14.5,10 Z M15.4996,7.00003 C16.8251,7.00003 17.9096,8.03157 17.9943,9.33566 L17.9996,9.50003 L17.9996,10.2568 C17.6925,10.0032 17.3574,9.78235 16.9996,9.5995 L16.9996,9.50003 C16.9996,8.72034 16.4047,8.07958 15.644,8.0069 L15.4996,8.00003 L9.49991,8.00003 C8.72021,8.00003 8.07946,8.59492 8.00678,9.35557 L7.99991,9.50003 L7.99991,15.4997 C7.99991,16.2794 8.5948,16.9202 9.35545,16.9928 L9.49991,16.9997 L9.59956,16.9997 C9.78243,17.3575 10.0033,17.6926 10.2569,17.9997 L9.49991,17.9997 C8.17443,17.9997 7.08987,16.9682 7.00523,15.6641 L6.99991,15.4997 L6.99991,9.50003 C6.99991,8.17455 8.03145,7.08999 9.33554,7.00535 L9.49991,7.00003 L15.4996,7.00003 Z M14.5,12 C14.2239,12 14,12.2239 14,12.5 L14,14 L12.5,14 C12.2239,14 12,14.2239 12,14.5 C12,14.7761 12.2239,15 12.5,15 L14,15 L14,16.5 C14,16.7761 14.2239,17 14.5,17 C14.7761,17 15,16.7761 15,16.5 L15,15 L16.5,15 C16.7761,15 17,14.7761 17,14.5 C17,14.2239 16.7761,14 16.5,14 L15,14 L15,12.5 C15,12.2239 14.7761,12 14.5,12 Z M12.6048,3.54312 L12.6618,3.69508 L12.7095,3.85247 L13.2848,5.9999 L12.2488,5.9999 L11.7435,4.11129 C11.5417,3.35816 10.8013,2.89321 10.0477,3.01988 L9.90641,3.05063 L4.11117,4.60346 C3.35804,4.80526 2.89309,5.54572 3.01975,6.29927 L3.05051,6.44058 L4.60334,12.2358 C4.77827,12.8887 5.35796,13.325 6.00007,13.3471 L6.00019,14.3477 C4.97323,14.3268 4.03599,13.6695 3.68959,12.6652 L3.63742,12.4946 L2.08459,6.6994 C1.74152,5.41908 2.45721,4.1045 3.69495,3.68522 L3.85235,3.63754 L9.64759,2.08471 C10.8746,1.75594 12.133,2.39953 12.6048,3.54312 Z" id="Shape"></path>
        </g>
    </g>
</svg>