<?xml version="1.0" encoding="UTF-8"?>
<svg width="20px" height="20px" viewBox="0 0 20 20" version="1.1" xmlns="http://www.w3.org/2000/svg" xmlns:xlink="http://www.w3.org/1999/xlink">
    <!-- Generator: Sketch 64 (93537) - https://sketch.com -->
    <title>ic_fluent_collections_20_filled</title>
    <desc>Created with Sketch.</desc>
    <g id="ðŸ”-System-Icons" stroke="none" stroke-width="1" fill="none" fill-rule="evenodd">
        <g id="ic_fluent_collections_20_filled" fill="#212121" fill-rule="nonzero">
            <path d="M15.4997,7 C16.8252,7 17.9097,8.03154 17.9944,9.33563 L17.9997,9.5 L17.9997,15.4997 C17.9997,16.8252 16.9681,17.9097 15.6641,17.9944 L15.4997,17.9997 L9.5,17.9997 C8.17452,17.9997 7.08996,16.9681 7.00532,15.6641 L7,15.4997 L7,9.5 C7,8.17452 8.03154,7.08996 9.33563,7.00532 L9.5,7 L15.4997,7 Z M12.4998,9 C12.2544,9 12.0502,9.17688 12.0079,9.41013 L11.9998,9.5 L11.999,12 L9.5,12 L9.41013,12.0081 C9.17688,12.0504 9,12.2545 9,12.5 C9,12.7455 9.17688,12.9496 9.41013,12.9919 L9.5,13 L11.999,13 L11.9998,15.5 L12.0079,15.5899 C12.0502,15.8231 12.2544,16 12.4998,16 C12.7453,16 12.9494,15.8231 12.9918,15.5899 L12.9998,15.5 L12.999,13 L15.5,13 L15.5899,12.9919 C15.8231,12.9496 16,12.7455 16,12.5 C16,12.2545 15.8231,12.0504 15.5899,12.0081 L15.5,12 L12.999,12 L12.9998,9.5 L12.9918,9.41013 C12.9494,9.17688 12.7453,9 12.4998,9 Z M12.6619,3.69505 L12.7095,3.85244 L13.2849,5.99987 L9,6 C7.40232,6 6.09634,7.24892 6.00509,8.82373 L6,9 L6.00028,14.3477 C4.97332,14.3268 4.03608,13.6695 3.68968,12.6652 L3.63751,12.4946 L2.08468,6.69937 C1.74162,5.41905 2.4573,4.10447 3.69505,3.68519 L3.85244,3.63751 L9.64769,2.08468 C10.8747,1.75591 12.1331,2.3995 12.6049,3.54309 L12.6619,3.69505 Z" id="ðŸŽ¨-Color"></path>
        </g>
    </g>
</svg>