<svg width="24" height="24" viewBox="0 0 24 24" fill="none" xmlns="http://www.w3.org/2000/svg">
<path d="M23 6.5C23 3.46243 20.5376 1 17.5 1C14.4624 1 12 3.46243 12 6.5C12 9.53757 14.4624 12 17.5 12C20.5376 12 23 9.53757 23 6.5ZM18.0006 7.00001L18.0011 9.50352C18.0011 9.77966 17.7773 10.0035 17.5011 10.0035C17.225 10.0035 17.0011 9.77966 17.0011 9.50352L17.0006 7.00001H14.4956C14.2197 7.00001 13.9961 6.77615 13.9961 6.50001C13.9961 6.22387 14.2197 6.00001 14.4956 6.00001H17.0005L17 3.49927C17 3.22313 17.2239 2.99927 17.5 2.99927C17.7761 2.99927 18 3.22313 18 3.49927L18.0005 6.00001H20.4966C20.7725 6.00001 20.9961 6.22387 20.9961 6.50001C20.9961 6.77615 20.7725 7.00001 20.4966 7.00001H18.0006ZM17.5 13C18.0163 13 18.5185 12.9398 19 12.8261V15C19 16.0544 18.1841 16.9182 17.1493 16.9945L17 17H15C14.4872 17 14.0645 16.614 14.0067 16.1166L14 16V12L14.0002 11.9783C14.4634 12.2748 14.9666 12.5142 15.5 12.6865V15.5H17C17.2455 15.5 17.4496 15.3231 17.4919 15.0899L17.5 15V13ZM12.0218 3.00003C11.7171 3.47601 11.4727 3.99433 11.2994 4.5442C8.59265 4.88833 6.5 7.19978 6.5 10V11H9C9.55228 11 10 11.4477 10 12V16C10 16.5523 9.55228 17 9 17H6.5V17.25C6.5 18.4409 7.42516 19.4156 8.59595 19.4948L8.75 19.5L9.87812 19.4997C10.1871 18.626 11.0204 18 12 18C13.2426 18 14.25 19.0074 14.25 20.25C14.25 21.4926 13.2426 22.5 12 22.5C11.0201 22.5 10.1864 21.8735 9.87776 20.9992L8.75 21C6.74574 21 5.10873 19.4276 5.0052 17.4492L5 17.25V10C5 6.13401 8.13401 3 12 3L12.0218 3.00003ZM12 19.5C11.5858 19.5 11.25 19.8358 11.25 20.25C11.25 20.6642 11.5858 21 12 21C12.4142 21 12.75 20.6642 12.75 20.25C12.75 19.8358 12.4142 19.5 12 19.5ZM8.5 12.5H6.5V15.5H8.5V12.5Z" fill="#212121"/>
</svg>
