<?xml version="1.0" encoding="UTF-8"?>
<svg width="48px" height="48px" viewBox="0 0 48 48" version="1.1" xmlns="http://www.w3.org/2000/svg" xmlns:xlink="http://www.w3.org/1999/xlink">
    <!-- Generator: Sketch 59.1 (86144) - https://sketch.com -->
    <title>ic_weather_duststorm_48_regular</title>
    <desc>Created with Sketch.</desc>
    <g id="ðŸ”-Product-Icons" stroke="none" stroke-width="1" fill="none" fill-rule="evenodd">
        <g id="ic_weather_duststorm_48_regular" fill="#212121" fill-rule="nonzero">
            <path d="M17.5035838,35 C19.4365804,35 21.0035838,36.5670034 21.0035838,38.5 C21.0035838,40.4329966 19.4365804,42 17.5035838,42 C15.5705871,42 14.0035838,40.4329966 14.0035838,38.5 C14.0035838,36.5670034 15.5705871,35 17.5035838,35 Z M17.5035838,37.5 C16.951299,37.5 16.5035838,37.9477153 16.5035838,38.5 C16.5035838,39.0522847 16.951299,39.5 17.5035838,39.5 C18.0558685,39.5 18.5035838,39.0522847 18.5035838,38.5 C18.5035838,37.9477153 18.0558685,37.5 17.5035838,37.5 Z M38.0227575,17.5 C41.3259597,17.5 44.0041991,20.1757816 44.0041991,23.4770996 C44.0041991,26.776885 41.2992116,29.468237 37.9944555,29.468237 L38.0272526,29.4691445 C37.9784584,29.4801943 37.928581,29.4883898 37.8778052,29.4935464 L37.75,29.5 L34.7165217,29.4997147 C35.2822218,30.3606253 35.611094,31.3887303 35.611094,32.4937266 C35.611094,35.5557831 33.3128038,38.0010441 30.2756672,38.0010441 C27.2574618,38.0010441 25.454153,36.2549094 24.9646191,33.8126459 C24.828941,33.1357539 25.2676816,32.4770357 25.9445736,32.3413576 C26.6214656,32.2056795 27.2801838,32.6444201 27.4158618,33.3213121 C27.6862989,34.6705107 28.5440266,35.5010441 30.2756672,35.5010441 C31.8962608,35.5010441 33.111094,34.2085248 33.111094,32.4937266 C33.111094,30.9025103 31.8473188,29.5963608 30.2473748,29.505094 L30.0682669,29.5 L5.25,29.5 C4.55964406,29.5 4,28.9403559 4,28.25 C4,27.6027913 4.49187466,27.0704661 5.12219476,27.0064536 L5.25,27 L37.7151844,26.9995513 C37.804978,26.9790596 37.8984529,26.968237 37.9944555,26.968237 C39.92132,26.968237 41.5041991,25.393337 41.5041991,23.4770996 C41.5041991,21.5570075 39.9457614,20 38.0227575,20 C36.1791369,20 34.6579695,21.4359807 34.5477323,23.2635818 C34.5061669,23.9526853 33.9138428,24.4776187 33.2247393,24.4360533 C32.5356358,24.394488 32.0107024,23.8021638 32.0522677,23.1130603 C32.2420288,19.9670488 34.8554304,17.5 38.0227575,17.5 Z M22.9915486,6 C27.4051589,6 30.9830971,9.57793816 30.9830971,13.9915486 C30.9830971,18.3299098 27.5261218,21.8608513 23.2165535,21.9799906 L23.1098845,21.9950799 L23,22 L5.25,22 C4.55964406,22 4,21.4403559 4,20.75 C4,20.1027913 4.49187466,19.5704661 5.12219476,19.5064536 L5.25,19.5 L22.7911877,19.4990691 L22.8902563,19.4871418 L22.8902563,19.4871418 L22.9915486,19.4830971 C26.0244471,19.4830971 28.4830971,17.0244471 28.4830971,13.9915486 C28.4830971,10.95865 26.0244471,8.5 22.9915486,8.5 C19.95865,8.5 17.5,10.95865 17.5,13.9915486 C17.5,14.6819045 16.9403559,15.2415486 16.25,15.2415486 C15.5596441,15.2415486 15,14.6819045 15,13.9915486 C15,9.57793816 18.5779382,6 22.9915486,6 Z M38.5035838,7.01389158 C40.4365804,7.01389158 42.0035838,8.58089496 42.0035838,10.5138916 C42.0035838,12.4468882 40.4365804,14.0138916 38.5035838,14.0138916 C36.5705871,14.0138916 35.0035838,12.4468882 35.0035838,10.5138916 C35.0035838,8.58089496 36.5705871,7.01389158 38.5035838,7.01389158 Z M7.50233047,5 C9.43463492,5 11.0010772,6.56644226 11.0010772,8.4987467 C11.0010772,10.4310512 9.43463492,11.9974934 7.50233047,11.9974934 C5.57002603,11.9974934 4.00358377,10.4310512 4.00358377,8.4987467 C4.00358377,6.56644226 5.57002603,5 7.50233047,5 Z M38.5035838,9.51389158 C37.951299,9.51389158 37.5035838,9.96160683 37.5035838,10.5138916 C37.5035838,11.0661763 37.951299,11.5138916 38.5035838,11.5138916 C39.0558685,11.5138916 39.5035838,11.0661763 39.5035838,10.5138916 C39.5035838,9.96160683 39.0558685,9.51389158 38.5035838,9.51389158 Z M7.50233047,7.5 C6.9507379,7.5 6.50358377,7.94715413 6.50358377,8.4987467 C6.50358377,9.05033928 6.9507379,9.49749341 7.50233047,9.49749341 C8.05392305,9.49749341 8.50107718,9.05033928 8.50107718,8.4987467 C8.50107718,7.94715413 8.05392305,7.5 7.50233047,7.5 Z" id="ðŸŽ¨-Color"></path>
        </g>
    </g>
</svg>