<svg width="24" height="24" viewBox="0 0 24 24" fill="none" xmlns="http://www.w3.org/2000/svg">
<path d="M3 5.25C3 4.00736 4.00736 3 5.25 3H14.75C15.9926 3 17 4.00736 17 5.25V14H21V17.75C21 19.5449 19.5449 21 17.75 21H6.25C4.45507 21 3 19.5449 3 17.75V5.25ZM17 19.5H17.75C18.7165 19.5 19.5 18.7165 19.5 17.75V15.5H17V19.5ZM5.25 4.5C4.83579 4.5 4.5 4.83579 4.5 5.25V17.75C4.5 18.7165 5.2835 19.5 6.25 19.5H15.5V5.25C15.5 4.83579 15.1642 4.5 14.75 4.5H5.25ZM7.25 7C6.83579 7 6.5 7.33579 6.5 7.75C6.5 8.16421 6.83579 8.5 7.25 8.5H12.75C13.1642 8.5 13.5 8.16421 13.5 7.75C13.5 7.33579 13.1642 7 12.75 7H7.25ZM6.5 11.75C6.5 11.3358 6.83579 11 7.25 11H12.75C13.1642 11 13.5 11.3358 13.5 11.75C13.5 12.1642 13.1642 12.5 12.75 12.5H7.25C6.83579 12.5 6.5 12.1642 6.5 11.75ZM7.25 15C6.83579 15 6.5 15.3358 6.5 15.75C6.5 16.1642 6.83579 16.5 7.25 16.5H10.25C10.6642 16.5 11 16.1642 11 15.75C11 15.3358 10.6642 15 10.25 15H7.25Z" fill="#212121"/>
</svg>
