<svg width="28" height="28" viewBox="0 0 28 28" fill="none" xmlns="http://www.w3.org/2000/svg">
<path d="M6.75 3C4.67893 3 3 4.67893 3 6.75V21.25C3 23.3211 4.67893 25 6.75 25H21.25C23.3211 25 25 23.3211 25 21.25V17H20V6.75C20 4.67893 18.3211 3 16.25 3H6.75ZM20 23.5V18.5H23.5V21.25C23.5 22.4926 22.4926 23.5 21.25 23.5H20ZM7.75 8H15.25C15.6642 8 16 8.33579 16 8.75C16 9.16421 15.6642 9.5 15.25 9.5H7.75C7.33579 9.5 7 9.16421 7 8.75C7 8.33579 7.33579 8 7.75 8ZM7 13.75C7 13.3358 7.33579 13 7.75 13H15.25C15.6642 13 16 13.3358 16 13.75C16 14.1642 15.6642 14.5 15.25 14.5H7.75C7.33579 14.5 7 14.1642 7 13.75ZM7.75 18H11.25C11.6642 18 12 18.3358 12 18.75C12 19.1642 11.6642 19.5 11.25 19.5H7.75C7.33579 19.5 7 19.1642 7 18.75C7 18.3358 7.33579 18 7.75 18Z" fill="#212121"/>
</svg>
