<svg width="16" height="16" viewBox="0 0 16 16" fill="none" xmlns="http://www.w3.org/2000/svg">
<path d="M5.08535 2C5.29127 1.4174 5.84689 1 6.5 1H9.5C10.1531 1 10.7087 1.4174 10.9146 2H11.5C12.3284 2 13 2.67157 13 3.5V7.26738C12.8519 7.35296 12.7125 7.4591 12.5858 7.58579L11.117 9.05455C10.0286 8.86052 8.86594 9.18404 8.02487 10.0251C7.64905 10.4009 7.43803 10.7791 7.29606 11.0742C7.2184 11.2356 7.17789 11.3275 7.14985 11.3912C7.1159 11.4682 7.10023 11.5038 7.05904 11.5709C7.0362 11.6082 7.00941 11.6482 6.91485 11.7122C6.79768 11.7914 6.55582 11.9193 6.07397 12.0619C5.59766 12.2029 5.22205 12.5706 5.07091 13.0438C4.91978 13.517 5.01271 14.0344 5.3191 14.4254C5.48197 14.6332 5.65571 14.8247 5.83857 15H4.5C3.67157 15 3 14.3284 3 13.5V3.5C3 2.67157 3.67157 2 4.5 2H5.08535ZM6.5 2C6.22386 2 6 2.22386 6 2.5C6 2.77614 6.22386 3 6.5 3H9.5C9.77614 3 10 2.77614 10 2.5C10 2.22386 9.77614 2 9.5 2H6.5ZM14.7071 8.29293C15.0976 8.68347 15.0976 9.31664 14.7071 9.70714L12.8276 11.5864C13.179 12.4829 12.9928 13.5414 12.269 14.2663C10.6285 15.9312 7.7236 15.8724 6.10644 13.8086C6.00431 13.6783 5.97333 13.5058 6.02371 13.3481C6.07409 13.1903 6.19929 13.0678 6.35806 13.0208C7.43371 12.7023 7.74374 12.3676 7.9117 12.0937C7.98341 11.9768 8.02993 11.8735 8.08881 11.7427C8.11977 11.674 8.15415 11.5976 8.1974 11.5077C8.31299 11.2674 8.46578 10.9986 8.73218 10.7322C9.45705 10.0073 10.5163 9.82067 11.4134 10.1722L13.2929 8.29286C13.6835 7.90235 14.3166 7.90238 14.7071 8.29293ZM11.5605 11.4393C10.9748 10.8535 10.0251 10.8535 9.43929 11.4393C9.28231 11.5963 9.18774 11.7558 9.09854 11.9412C9.07772 11.9845 9.05469 12.0355 9.02944 12.0913C8.95851 12.2482 8.87009 12.4438 8.76416 12.6165C8.50503 13.0391 8.11592 13.4016 7.3971 13.7111C8.66995 14.7669 10.4917 14.6463 11.5578 13.5634L11.5605 13.5606C12.1463 12.9748 12.1463 12.0251 11.5605 11.4393Z" fill="#212121"/>
</svg>
