<svg width="32" height="32" viewBox="0 0 32 32" fill="none" xmlns="http://www.w3.org/2000/svg">
<path d="M23.5 4H21.8293C21.4175 2.83481 20.3062 2 19 2H13C11.6938 2 10.5825 2.83481 10.1707 4H8.5C6.567 4 5 5.567 5 7.5V26.5C5 28.433 6.567 30 8.5 30H14.1118C13.8585 29.8079 13.6057 29.6019 13.3539 29.3815C12.728 28.8338 12.4154 28.0108 12.52 27.1858C12.6245 26.3607 13.1325 25.6417 13.8752 25.2675C14.9388 24.7315 15.2613 24.2892 15.4889 23.9208C15.6144 23.7178 15.6714 23.6098 15.7471 23.4664C15.8166 23.3345 15.902 23.1727 16.071 22.8795C16.3391 22.4144 16.7017 21.8565 17.2561 21.3021C18.743 19.8152 20.8163 19.2719 22.7317 19.6721L25.9519 16.4519C26.2619 16.1419 26.6189 15.9076 27 15.7491V7.5C27 5.567 25.433 4 23.5 4ZM13 4H19C19.5523 4 20 4.44772 20 5C20 5.55228 19.5523 6 19 6H13C12.4477 6 12 5.55228 12 5C12 4.44772 12.4477 4 13 4ZM29.4874 17.5126C30.1709 18.196 30.1709 19.304 29.4874 19.9874L25.6558 23.8191C26.3324 25.4509 26.0074 27.4001 24.6806 28.7269C23.798 29.6094 22.34 30.4806 20.51 30.6245C18.648 30.7709 16.516 30.1555 14.3415 28.2528C14.0912 28.0337 13.9661 27.7045 14.0079 27.3745C14.0498 27.0445 14.2529 26.7569 14.55 26.6072C15.8684 25.9429 16.3959 25.3064 16.7648 24.7096C16.8978 24.4942 16.9889 24.3246 17.0912 24.1342C17.1697 23.9879 17.2548 23.8294 17.3705 23.6286C17.603 23.2253 17.8898 22.7897 18.3166 22.3629C19.6267 21.0529 21.5436 20.7194 23.1625 21.3626L27.0126 17.5126C27.696 16.8291 28.804 16.8291 29.4874 17.5126ZM16.771 27.5948C18.1412 28.4841 19.36 28.7088 20.3532 28.6307C21.6398 28.5295 22.6686 27.9105 23.2664 27.3127C24.2427 26.3364 24.2427 24.7535 23.2664 23.7772C22.29 22.8008 20.7071 22.8008 19.7308 23.7772C19.4742 24.0338 19.2884 24.3063 19.1033 24.6273C19.0492 24.7212 18.9814 24.8459 18.9061 24.9843C18.7712 25.2324 18.6123 25.5244 18.4661 25.761C18.0829 26.3811 17.5843 26.9982 16.771 27.5948Z" fill="#212121"/>
</svg>
