<svg width="32" height="32" viewBox="0 0 32 32" fill="none" xmlns="http://www.w3.org/2000/svg">
<path d="M27.1826 11.1357C27.8395 10.9595 28.8077 10.8463 29.4795 11.5176C30.1508 12.1894 30.0395 13.1585 29.8633 13.8154C29.6642 14.5568 29.2516 15.4106 28.7109 16.3037C27.6206 18.1043 25.8833 20.268 23.7852 22.3662C23.194 22.9574 22.2858 23.8819 21.2334 24.3604C20.9987 24.467 20.7461 24.554 20.4805 24.6133C20.5901 25.8904 20.1578 27.2063 19.1807 28.1836C18.1618 29.2023 16.7073 30.1175 14.8818 30.2324C13.0395 30.3482 10.997 29.6387 8.8418 27.7559C8.59156 27.5372 8.46664 27.2066 8.50781 26.877C8.54955 26.547 8.75287 26.2582 9.0498 26.1084C10.3629 25.4467 10.8905 24.8023 11.2607 24.1943C11.4983 23.8041 11.6001 23.5672 11.8682 23.0967C12.1005 22.6889 12.3882 22.2477 12.8164 21.8193C13.7931 20.8428 15.1073 20.4086 16.3838 20.5176C16.4434 20.2522 16.5321 20.0001 16.6387 19.7656C17.1171 18.7132 18.0416 17.8051 18.6328 17.2139C20.7311 15.1156 22.8939 13.3776 24.6943 12.2871C25.5875 11.7463 26.4413 11.3348 27.1826 11.1357ZM19 2C20.3062 2 21.4172 2.83484 21.8291 4H23.5C25.433 4 27 5.567 27 7.5V9.63379C26.9218 9.65172 26.8504 9.66858 26.7871 9.68555C25.8501 9.93707 24.8572 10.4305 23.9102 11.0039C21.9811 12.1722 19.7245 13.9933 17.5654 16.1523C17.0319 16.6859 15.937 17.744 15.3154 19.042C14.1224 19.1779 12.9597 19.6698 12.0049 20.5225L11.7559 20.7578C11.197 21.3169 10.8321 21.8838 10.5645 22.3535C10.2366 22.929 9.97687 23.5741 9.48438 24.0342C9.26381 24.2402 8.92712 24.4893 8.375 24.7676C7.63097 25.1429 7.12372 25.8647 7.01953 26.6875V26.6895C6.91645 27.5128 7.22885 28.3366 7.85449 28.8838C8.33498 29.3036 8.81861 29.6742 9.30176 30H8.5C6.567 30 5 28.433 5 26.5V7.5C5 5.567 6.567 4 8.5 4H10.1709C10.5828 2.83484 11.6938 2 13 2H19ZM17.7666 23.2334C16.7905 22.2575 15.2077 22.2578 14.2314 23.2334C13.977 23.488 13.7913 23.7625 13.6064 24.0869C13.4573 24.3488 13.1948 24.8647 12.9697 25.2344C12.5853 25.8656 12.0819 26.495 11.2588 27.1006C12.6397 28.0332 13.8106 28.2956 14.7559 28.2363C15.9596 28.1606 16.9819 27.5541 17.7666 26.7695C18.7425 25.7934 18.7424 24.2097 17.7666 23.2334ZM13 4C12.4477 4 12 4.44772 12 5C12 5.55228 12.4477 6 13 6H19C19.5523 6 20 5.55228 20 5C20 4.44772 19.5523 4 19 4H13Z" fill="#212121"/>
</svg>
