<?xml version="1.0" encoding="UTF-8"?>
<svg width="20px" height="20px" viewBox="0 0 20 20" version="1.1" xmlns="http://www.w3.org/2000/svg" xmlns:xlink="http://www.w3.org/1999/xlink">
    <!-- Generator: Sketch 64 (93537) - https://sketch.com -->
    <title>ic_fluent_site_warning_20_filled</title>
    <desc>Created with Sketch.</desc>
    <g id="ðŸ”-System-Icons" stroke="none" stroke-width="1" fill="none" fill-rule="evenodd">
        <g id="ic_fluent_site_warning_20_filled" fill="#212121" fill-rule="nonzero">
            <path d="M10.2774,2.08397 C10.1094,1.97201 9.8906,1.97201 9.72265,2.08397 C7.78446,3.3761 5.68833,4.1823 3.42929,4.50503 C3.18296,4.54021 3,4.75117 3,5 L3,9.5 C3,13.3913 5.30699,16.2307 9.82051,17.9667 C9.93605,18.0111 10.064,18.0111 10.1795,17.9667 C14.693,16.2307 17,13.3913 17,9.5 L17,5 C17,4.75117 16.817,4.54021 16.5707,4.50503 C14.3117,4.1823 12.2155,3.3761 10.2774,2.08397 Z M10,5.75 C10.4142,5.75 10.75,6.08579 10.75,6.5 L10.75,11.5 C10.75,11.9142 10.4142,12.25 10,12.25 C9.58579,12.25 9.25,11.9142 9.25,11.5 L9.25,6.5 C9.25,6.08579 9.58579,5.75 10,5.75 Z M10.75,13.75 C10.75,14.1642 10.4142,14.5 10,14.5 C9.58579,14.5 9.25,14.1642 9.25,13.75 C9.25,13.3358 9.58579,13 10,13 C10.4142,13 10.75,13.3358 10.75,13.75 Z" id="ðŸŽ¨-Color"></path>
        </g>
    </g>
</svg>