<svg width="24" height="24" viewBox="0 0 24 24" fill="none" xmlns="http://www.w3.org/2000/svg">
<path d="M3.74347 2.81561C3.77691 2.33855 4.17541 2 4.62048 2C5.10623 2 5.5 2.39377 5.5 2.87952V7.37402C5.5 7.7192 5.77982 7.99902 6.125 7.99902C6.47018 7.99902 6.75 7.7192 6.75 7.37402V2.75C6.75 2.33579 7.08579 2 7.5 2C7.91421 2 8.25 2.33579 8.25 2.75V7.37402C8.25 7.7192 8.52982 7.99902 8.875 7.99902C9.22018 7.99902 9.5 7.7192 9.5 7.37402V2.87952C9.5 2.39377 9.89377 2 10.3795 2C10.8246 2 11.2231 2.33855 11.2565 2.81561C11.2995 3.42827 11.5 6.37042 11.5 8C11.5 9.35041 10.8301 10.5443 9.80784 11.2674C9.59197 11.4201 9.53994 11.582 9.54532 11.6644C9.66817 13.5423 10 18.6815 10 19.4975C10 20.8782 8.88071 21.9975 7.5 21.9975C6.11929 21.9975 5 20.8782 5 19.4975C5 18.6815 5.33183 13.5423 5.45468 11.6644C5.46006 11.582 5.40803 11.4201 5.19216 11.2674C4.1699 10.5443 3.5 9.35041 3.5 8C3.5 6.37042 3.70051 3.42827 3.74347 2.81561ZM13 7.75C13 4.57436 15.5744 2 18.75 2C19.1642 2 19.5 2.33579 19.5 2.75V11.25C19.5 11.5677 19.6063 13.1447 19.7246 14.8917L19.7302 14.9745C19.8594 16.8829 20 18.9581 20 19.4975C20 20.8782 18.8807 21.9975 17.5 21.9975C16.1193 21.9975 15 20.8782 15 19.4975C15 18.9829 15.1278 16.8855 15.2516 14.9631C15.3141 13.9917 15.3767 13.0506 15.4236 12.3525L15.4473 12H14.75C13.7835 12 13 11.2165 13 10.25V7.75Z" fill="#212121"/>
</svg>
