<svg width="28" height="28" viewBox="0 0 28 28" fill="none" xmlns="http://www.w3.org/2000/svg">
<path d="M7.05967 2C6.07623 2 5.24217 2.73771 5.13908 3.72521C4.99213 5.13281 4.75 7.68224 4.75 9.25001C4.75 10.7298 5.42761 12.052 6.48665 12.922C6.83509 13.2082 7 13.5213 7 13.7856V14.4484C7 14.4683 6.99957 14.4805 6.99856 14.4953C6.95751 15.0935 6.5 21.7819 6.5 23C6.5 24.6569 7.84315 26 9.5 26C11.1569 26 12.5 24.6569 12.5 23C12.5 21.7819 12.0425 15.0935 12.0014 14.4953C12.0004 14.4805 12 14.4683 12 14.4484V13.7856C12 13.5213 12.1649 13.2082 12.5133 12.922C13.5724 12.052 14.25 10.7298 14.25 9.25001C14.25 7.68224 14.0079 5.13281 13.8609 3.72521C13.7578 2.73771 12.9238 2 11.9403 2C11.4828 2 11.0623 2.15835 10.7305 2.42324C10.3912 2.15804 9.96405 2 9.5 2C9.03595 2 8.60881 2.15804 8.26947 2.42324C7.93774 2.15835 7.5172 2 7.05967 2ZM9 4C9 3.72386 9.22386 3.5 9.5 3.5C9.77614 3.5 10 3.72386 10 4V9.25C10 9.66421 10.3358 10 10.75 10C11.1642 10 11.5 9.66421 11.5 9.25V3.94033C11.5 3.69714 11.6971 3.5 11.9403 3.5C12.1651 3.5 12.3467 3.66679 12.369 3.88096C12.5173 5.30168 12.75 7.77338 12.75 9.25001C12.75 10.2621 12.2883 11.1656 11.5612 11.7629C11.0231 12.205 10.5 12.9024 10.5 13.7856V14.4484C10.5 14.4973 10.5013 14.5441 10.505 14.598C10.5492 15.2431 11 21.8495 11 23C11 23.8284 10.3284 24.5 9.5 24.5C8.67157 24.5 8 23.8284 8 23C8 21.8495 8.45078 15.2431 8.49504 14.598C8.49873 14.5441 8.5 14.4973 8.5 14.4484V13.7856C8.5 12.9024 7.97692 12.205 7.43877 11.7629C6.7117 11.1656 6.25 10.2621 6.25 9.25001C6.25 7.77338 6.48265 5.30168 6.63097 3.88096C6.65333 3.66679 6.83492 3.5 7.05967 3.5C7.30286 3.5 7.5 3.69714 7.5 3.94033V9.25C7.5 9.66421 7.83579 10 8.25 10C8.66421 10 9 9.66421 9 9.25V4ZM22.5 3.50585V13.25C22.5 13.5996 22.5944 15.2466 22.6984 17.0604L22.7044 17.1651C22.844 19.6006 23 22.3289 23 23C23 23.8284 22.3284 24.5 21.5 24.5C20.6716 24.5 20 23.8284 20 23C20 22.4053 20.1231 19.9972 20.2489 17.7C20.3113 16.5598 20.3738 15.4582 20.4206 14.6417C20.4441 14.2334 20.4636 13.8964 20.4773 13.6615L20.4987 13.294C20.4996 13.2794 20.5 13.2643 20.5 13.2497C20.5 12.8355 20.1642 12.4997 19.75 12.4997H17.75C17.6119 12.4997 17.5 12.3877 17.5 12.2497V8.75C17.5 5.93431 19.7166 3.63634 22.5 3.50585ZM18.9551 13.9997L18.9231 14.5557C18.8762 15.3731 18.8137 16.476 18.7511 17.618C18.6269 19.8851 18.5 22.3521 18.5 23C18.5 24.6569 19.8431 26 21.5 26C23.1569 26 24.5 24.6569 24.5 23C24.5 22.279 24.3422 19.5262 24.2057 17.145L24.2019 17.0792C24.0931 15.1804 24 13.5495 24 13.25V2.75C24 2.33579 23.6642 2 23.25 2H22.75C19.0221 2 16 5.02208 16 8.75V12.2497C16 13.2162 16.7835 13.9997 17.75 13.9997H18.9551Z" fill="#212121"/>
</svg>
