<svg width="20" height="20" viewBox="0 0 20 20" fill="none" xmlns="http://www.w3.org/2000/svg">
<path d="M17.0001 6.50008C17.0001 6.1934 16.8134 5.91762 16.5287 5.80372L9.02867 2.80372C8.64408 2.64988 8.2076 2.83695 8.05376 3.22153C7.89993 3.60612 8.08699 4.0426 8.47158 4.19643L10.5001 5.00785V7.9923L8.47158 8.80372C8.08699 8.95755 7.89993 9.39403 8.05376 9.77862C8.2076 10.1632 8.64408 10.3503 9.02866 10.1964L16.5287 7.19644C16.8134 7.08254 17.0001 6.80676 17.0001 6.50008ZM14.2307 6.50008L12.0001 7.3923V5.60785L14.2307 6.50008ZM5 3.74997C5 3.33576 5.33579 2.99997 5.75 2.99997C6.16421 2.99997 6.5 3.33576 6.5 3.74997V14.4393L7.21967 13.7196C7.51256 13.4267 7.98744 13.4267 8.28033 13.7196C8.57322 14.0125 8.57322 14.4874 8.28033 14.7803L6.28033 16.7803C5.98744 17.0732 5.51256 17.0732 5.21967 16.7803L3.21967 14.7803C2.92678 14.4874 2.92678 14.0125 3.21967 13.7196C3.51256 13.4267 3.98744 13.4267 4.28033 13.7196L5 14.4393V3.74997ZM13 10.75C13 10.3358 13.3358 9.99997 13.75 9.99997C14.1642 9.99997 14.5 10.3358 14.5 10.75V14.4393L15.2197 13.7196C15.5126 13.4267 15.9874 13.4267 16.2803 13.7196C16.5732 14.0125 16.5732 14.4874 16.2803 14.7803L14.2803 16.7803C14.2084 16.8522 14.1255 16.9065 14.0371 16.9431C13.9487 16.9797 13.8517 17 13.75 17C13.6483 17 13.5513 16.9797 13.4629 16.9431C13.3745 16.9065 13.2916 16.8522 13.2197 16.7803L11.2197 14.7803C10.9268 14.4874 10.9268 14.0125 11.2197 13.7196C11.5126 13.4267 11.9874 13.4267 12.2803 13.7196L13 14.4393V10.75Z" fill="#212121"/>
</svg>
