<svg width="20" height="20" viewBox="0 0 20 20" fill="none" xmlns="http://www.w3.org/2000/svg">
<path d="M15.9485 5.50049C15.9651 5.50017 15.9819 5.5 15.9986 5.5C16.3287 5.5 16.6439 5.56398 16.9323 5.68021C17.8505 6.05014 18.4986 6.94939 18.4986 8C18.4986 9.38071 17.3793 10.5 15.9986 10.5C15.9206 10.5 15.8434 10.4964 15.7672 10.4894C15.356 10.4517 14.9736 10.3144 14.6444 10.1018L15.0935 11.9556C15.284 12.7423 14.6881 13.4999 13.8786 13.4999H13.1163C12.3064 13.4999 11.7104 12.7416 11.9017 11.9546L12.3521 10.1022C12.0227 10.3148 11.6402 10.452 11.2288 10.4895C11.153 10.4965 11.0762 10.5 10.9986 10.5C10.9775 10.5 10.9564 10.4997 10.9354 10.4992C10.8246 10.0694 10.5744 9.69548 10.2359 9.4286C10.4056 8.98494 10.4986 8.50333 10.4986 8C10.4986 7.18224 10.2532 6.4218 9.83203 5.78829C9.90743 5.74844 9.98512 5.71233 10.0648 5.68021C10.3533 5.56398 10.6685 5.5 10.9986 5.5C11.0153 5.5 11.032 5.50016 11.0487 5.50049C11.0158 5.33878 10.9986 5.17141 10.9986 5C10.9986 4.82889 11.0158 4.6618 11.0485 4.50035C11.28 3.35906 12.289 2.5 13.4986 2.5C14.7082 2.5 15.7172 3.35906 15.9487 4.50035C15.9814 4.6618 15.9986 4.82889 15.9986 5C15.9986 5.17141 15.9813 5.33879 15.9485 5.50049ZM6.5 5C4.84315 5 3.5 6.34315 3.5 8C3.5 8.76835 3.78885 9.46924 4.26389 10H4C3.44772 10 3 10.4477 3 11C3 11.5523 3.44772 12 4 12H4.5191C4.14836 13.798 3.16747 14.8358 2.62062 15.2932C2.27366 15.5834 2 16.029 2 16.5488C2 17.3503 2.64972 18 3.4512 18H9.5488C10.3503 18 11 17.3503 11 16.5488C11 16.029 10.7263 15.5834 10.3794 15.2932C9.83253 14.8358 8.85164 13.798 8.4809 12H9C9.55228 12 10 11.5523 10 11C10 10.4477 9.55229 10 9 10H8.73611C9.21115 9.46924 9.5 8.76835 9.5 8C9.5 6.34315 8.15685 5 6.5 5Z" fill="#212121"/>
</svg>
