<svg width="24" height="24" viewBox="0 0 24 24" fill="none" xmlns="http://www.w3.org/2000/svg">
<path d="M2 6C2 5.44772 2.44772 5 3 5H6C6.55228 5 7 5.44772 7 6C7 6.55228 6.55228 7 6 7H3C2.44772 7 2 6.55228 2 6Z" fill="#212121"/>
<path d="M2 18.5C2 17.6716 2.67157 17 3.5 17H20.5C21.3284 17 22 17.6716 22 18.5C22 19.3284 21.3284 20 20.5 20H3.5C2.67157 20 2 19.3284 2 18.5Z" fill="#212121"/>
<path d="M10.75 5C10.1977 5 9.75 5.44772 9.75 6C9.75 6.55228 10.1977 7 10.75 7H13.25C13.8023 7 14.25 6.55228 14.25 6C14.25 5.44772 13.8023 5 13.25 5H10.75Z" fill="#212121"/>
<path d="M17 6C17 5.44772 17.4477 5 18 5H21C21.5523 5 22 5.44772 22 6C22 6.55228 21.5523 7 21 7H18C17.4477 7 17 6.55228 17 6Z" fill="#212121"/>
<path d="M3 11C2.44772 11 2 11.4477 2 12C2 12.5523 2.44772 13 3 13H21C21.5523 13 22 12.5523 22 12C22 11.4477 21.5523 11 21 11H3Z" fill="#212121"/>
</svg>
