<svg width="17" height="16" viewBox="0 0 17 16" fill="none" xmlns="http://www.w3.org/2000/svg">
<path d="M11.916 8C11.9579 8 11.9994 8.00172 12.0405 8.00509L11.9043 8.3263L11.8558 8.45937L11.8482 8.48395C11.6448 9.14588 11.8181 9.89427 12.3411 10.3907L12.6462 10.6803C12.6023 10.7984 12.5448 10.9203 12.4716 11.0461C12.3972 11.1741 12.3162 11.2898 12.2287 11.3942L11.9049 11.2862L11.7688 11.2491L11.7413 11.2433C11.0254 11.0908 10.3089 11.3996 9.90606 11.9915L9.42505 12.6982L9.35265 12.8173L9.34045 12.8399C9.15319 13.1869 9.08353 13.5817 9.13029 13.9636C8.90025 13.9875 8.66206 14 8.41602 14C5.27553 14 3.41602 11.9714 3.41602 10V9.5C3.41602 8.67157 4.08759 8 4.91602 8H11.916ZM11.615 12.2437L12.3544 12.4903C12.3544 12.4903 12.3544 12.4903 12.3544 12.4903L12.4763 12.5309C12.82 12.2708 13.1066 11.9434 13.336 11.5488C13.5327 11.2105 13.6614 10.8676 13.722 10.5202L13.7466 10.346L13.0295 9.66537C12.7932 9.44115 12.7074 9.09198 12.804 8.77773L12.8349 8.69301L13.1604 7.92552C13.313 7.56556 13.6786 7.36977 14.0372 7.44448L14.1139 7.46467L14.5214 7.5949C14.9256 7.72403 15.2351 8.07023 15.335 8.50495C15.5725 9.53807 15.2875 10.7959 14.4801 12.2785C13.6738 13.7589 12.7901 14.649 11.829 14.9488C11.4558 15.0652 11.0549 14.9806 10.7533 14.7274L10.6736 14.6542L10.3641 14.3434C10.0958 14.0741 10.0406 13.6481 10.2204 13.3148L10.2661 13.2396L10.7327 12.5542C10.8704 12.3519 11.0815 12.2295 11.3061 12.2082C11.3501 12.204 11.3947 12.2037 11.4393 12.2075C11.4705 12.2101 11.5018 12.2147 11.5329 12.2213L11.615 12.2437ZM8.41602 1.5C9.9348 1.5 11.166 2.73122 11.166 4.25C11.166 5.76878 9.9348 7 8.41602 7C6.89723 7 5.66602 5.76878 5.66602 4.25C5.66602 2.73122 6.89723 1.5 8.41602 1.5Z" fill="#212121"/>
</svg>
