<svg width="24" height="24" viewBox="0 0 24 24" fill="none" xmlns="http://www.w3.org/2000/svg">
<path d="M7.8294 2.43943C7.52083 1.98139 6.89937 1.86022 6.44132 2.16879C5.98328 2.47736 5.86211 3.09882 6.17068 3.55686L10.9634 10.6711L8.63676 14.3487C8.13715 14.1244 7.58315 13.9996 7 13.9996C4.79086 13.9996 3 15.7905 3 17.9996C3 20.2087 4.79086 21.9996 7 21.9996C9.20914 21.9996 11 20.2087 11 17.9996C11 17.1029 10.705 16.2752 10.2067 15.6081L12.1839 12.4828L14.0676 15.2791C13.4051 15.9929 13 16.9489 13 17.9996C13 20.2087 14.7909 21.9996 17 21.9996C19.2091 21.9996 21 20.2087 21 17.9996C21 15.7905 19.2091 13.9996 17 13.9996C16.5639 13.9996 16.1441 14.0694 15.7511 14.1984L12.1319 8.82411L12.1313 8.8251L7.8294 2.43943ZM5 17.9996C5 16.895 5.89543 15.9996 7 15.9996C8.10457 15.9996 9 16.895 9 17.9996C9 19.1042 8.10457 19.9996 7 19.9996C5.89543 19.9996 5 19.1042 5 17.9996ZM15 17.9996C15 16.895 15.8954 15.9996 17 15.9996C18.1046 15.9996 19 16.895 19 17.9996C19 19.1042 18.1046 19.9996 17 19.9996C15.8954 19.9996 15 19.1042 15 17.9996Z" fill="#212121"/>
<path d="M14.5202 8.78988L17.8452 3.53421C18.1404 3.06749 18.0014 2.44977 17.5347 2.1545C17.068 1.85922 16.4503 1.99821 16.155 2.46494L13.2998 6.97801L14.5202 8.78988Z" fill="#212121"/>
</svg>
