<svg width="20" height="20" viewBox="0 0 20 20" fill="none" xmlns="http://www.w3.org/2000/svg">
<path d="M4 4.70711V9.5C4 9.77614 4.22386 10 4.5 10H9.29289L15 15.7071V16C15 16.5523 14.5523 17 14 17H13.5C13.2239 17 13 17.2239 13 17.5C13 17.7761 13.2239 18 13.5 18H14C14.8912 18 15.6462 17.4171 15.9047 16.6118L17.1464 17.8536C17.3417 18.0488 17.6583 18.0488 17.8536 17.8536C18.0488 17.6583 18.0488 17.3417 17.8536 17.1464L2.85355 2.14645C2.65829 1.95118 2.34171 1.95118 2.14645 2.14645C1.95118 2.34171 1.95118 2.65829 2.14645 2.85355L4 4.70711ZM15 12.8789L15.6091 13.4881C15.8328 13.4383 16 13.2387 16 13V12C16 11.7239 15.7761 11.5 15.5 11.5C15.2239 11.5 15 11.7239 15 12V12.8789ZM4.50161 2.38051L12.1211 10H15.5C15.7761 10 16 9.77614 16 9.5V8H11.5C10.6716 8 10 7.32843 10 6.5V2H5.5C5.1166 2 4.76679 2.14385 4.50161 2.38051ZM11 2.25V6.5C11 6.77614 11.2239 7 11.5 7H15.75L11 2.25ZM5 12C5 11.7239 4.77614 11.5 4.5 11.5C4.22386 11.5 4 11.7239 4 12V13C4 13.2761 4.22386 13.5 4.5 13.5C4.77614 13.5 5 13.2761 5 13V12ZM5 15.5C5 15.2239 4.77614 15 4.5 15C4.22386 15 4 15.2239 4 15.5V16C4 17.1046 4.89543 18 6 18H6.5C6.77614 18 7 17.7761 7 17.5C7 17.2239 6.77614 17 6.5 17H6C5.44772 17 5 16.5523 5 16V15.5ZM11 17H9C8.72386 17 8.5 17.2239 8.5 17.5C8.5 17.7761 8.72386 18 9 18H11C11.2761 18 11.5 17.7761 11.5 17.5C11.5 17.2239 11.2761 17 11 17Z" fill="#212121"/>
</svg>
