<svg width="24" height="24" viewBox="0 0 24 24" fill="none" xmlns="http://www.w3.org/2000/svg">
<path d="M4 4.25C4 3.00736 5.00736 2 6.25 2H13.75C14.9926 2 16 3.00736 16 4.25V9.5H17.75C18.9926 9.5 20 10.5074 20 11.75V13.05C19.3204 13.188 18.741 13.6015 18.3834 14.169C18.023 12.9164 16.8685 12 15.5 12C13.8431 12 12.5 13.3431 12.5 15C12.5 15.8048 12.8169 16.5357 13.3328 17.0745C11.9971 17.3778 11 18.5725 11 20C11 20.6637 11.148 21.3665 11.5058 22H4.75C4.33579 22 4 21.6642 4 21.25V4.25ZM8 7.5C8.55229 7.5 9 7.05228 9 6.5C9 5.94772 8.55229 5.5 8 5.5C7.44772 5.5 7 5.94772 7 6.5C7 7.05228 7.44772 7.5 8 7.5ZM7 13.5C7 14.0523 7.44772 14.5 8 14.5C8.55229 14.5 9 14.0523 9 13.5C9 12.9477 8.55229 12.5 8 12.5C7.44772 12.5 7 12.9477 7 13.5ZM7 10C7 10.5523 7.44772 11 8 11C8.55229 11 9 10.5523 9 10C9 9.44771 8.55229 9 8 9C7.44772 9 7 9.44771 7 10ZM11 6.5C11 7.05228 11.4477 7.5 12 7.5C12.5523 7.5 13 7.05228 13 6.5C13 5.94772 12.5523 5.5 12 5.5C11.4477 5.5 11 5.94772 11 6.5ZM11 10C11 10.5523 11.4477 11 12 11C12.5523 11 13 10.5523 13 10C13 9.44771 12.5523 9 12 9C11.4477 9 11 9.44771 11 10ZM15.5 17C16.6046 17 17.5 16.1046 17.5 15C17.5 13.8954 16.6046 13 15.5 13C14.3954 13 13.5 13.8954 13.5 15C13.5 16.1046 14.3954 17 15.5 17ZM15.5 23C18.0667 23 19 21.4793 19 20C19 18.8954 18.1046 18 17 18H14C12.8954 18 12 18.8954 12 20C12 21.4793 12.9333 23 15.5 23ZM19.5068 21.978C19.6628 21.9925 19.8272 22 20.0002 22C22.2002 22 23.0002 20.7835 23.0002 19.6C23.0002 18.7163 22.2839 18 21.4002 18H19.2363C19.7114 18.5308 20.0002 19.2316 20.0002 20C20.0002 20.6561 19.8556 21.3503 19.5068 21.978ZM22 15.5C22 16.3284 21.3284 17 20.5 17C19.6716 17 19 16.3284 19 15.5C19 14.6716 19.6716 14 20.5 14C21.3284 14 22 14.6716 22 15.5Z" fill="#212121"/>
</svg>
