<svg width="28" height="28" viewBox="0 0 28 28" fill="none" xmlns="http://www.w3.org/2000/svg">
<path d="M15.2933 2.29289C15.6838 1.90237 16.317 1.90237 16.7075 2.29289L20.7075 6.29289C21.098 6.68342 21.098 7.31658 20.7075 7.70711L16.7075 11.7071C16.317 12.0976 15.6838 12.0976 15.2933 11.7071C14.9028 11.3166 14.9028 10.6834 15.2933 10.2929L17.5862 8H10.2506C6.88254 8 4.13672 10.6641 4.00548 14H4.00119C4.05396 15.3411 4.52927 16.5736 5.29769 17.5681L5.2955 17.5688C5.42156 17.7361 5.49628 17.9443 5.49628 18.1699C5.49628 18.7222 5.04857 19.1699 4.49628 19.1699C4.14846 19.1699 3.84212 18.9923 3.66296 18.7229C2.66368 17.4021 2.05272 15.7711 2 14H2.00429C2.13647 9.5593 5.77788 6 10.2506 6H17.5862L15.2933 3.70711C14.9028 3.31658 14.9028 2.68342 15.2933 2.29289ZM25.9969 14H25.9926C25.8604 18.4407 22.219 22 17.7463 22H10.4068L12.6997 24.2929C13.0902 24.6834 13.0902 25.3166 12.6997 25.7071C12.3092 26.0976 11.676 26.0976 11.2855 25.7071L7.28546 21.7071C6.89494 21.3166 6.89494 20.6834 7.28546 20.2929L11.2855 16.2929C11.676 15.9024 12.3092 15.9024 12.6997 16.2929C13.0902 16.6834 13.0902 17.3166 12.6997 17.7071L10.4068 20H17.7463C21.1143 20 23.8601 17.3359 23.9914 14H23.9957C23.9429 12.6589 23.4676 11.4264 22.6992 10.4319L22.7014 10.4312C22.5753 10.2639 22.5006 10.0557 22.5006 9.83008C22.5006 9.27779 22.9483 8.83008 23.5006 8.83008C23.8484 8.83008 24.1547 9.00766 24.3339 9.2771C25.3332 10.5979 25.9441 12.2289 25.9969 14Z" fill="#212121"/>
</svg>
