<svg width="32" height="32" viewBox="0 0 32 32" fill="none" xmlns="http://www.w3.org/2000/svg">
<path d="M23.5732 24.9872L28.2932 29.7071C28.6837 30.0976 29.3169 30.0976 29.7074 29.7071C30.0979 29.3166 30.0979 28.6834 29.7074 28.2929L3.7071 2.29319C3.31657 1.90267 2.6834 1.90268 2.29288 2.29321C1.90237 2.68374 1.90237 3.3169 2.2929 3.70742L8.86771 10.2821C8.42747 11.1833 8.16474 12.1358 8.05719 13.0472C3.93119 13.4699 2.0003 16.6444 2.0003 19C2.0003 20.1452 2.28423 21.6645 3.37273 22.9085C4.48508 24.1798 6.29282 25 9.0003 25H23.0003C23.1944 25 23.3854 24.9957 23.5732 24.9872ZM28.1561 23.3987C27.9375 23.5886 27.7026 23.7614 27.4521 23.917L11.084 7.54925C12.3287 6.60157 13.9616 6 16.0003 6C17.7004 6 19.6824 6.5615 21.2585 7.85104C22.6796 9.01369 23.731 10.7384 23.9556 13.0573C25.3333 13.2223 26.669 13.7404 27.7365 14.5647C29.0632 15.5892 30.0003 17.114 30.0003 19C30.0003 20.7538 29.4168 22.3035 28.1561 23.3987Z" fill="#212121"/>
</svg>
