<svg width="16" height="16" viewBox="0 0 16 16" fill="none" xmlns="http://www.w3.org/2000/svg">
<path d="M5.75 8C6.16421 8 6.5 7.66421 6.5 7.25C6.5 6.83579 6.16421 6.5 5.75 6.5C5.33579 6.5 5 6.83579 5 7.25C5 7.66421 5.33579 8 5.75 8ZM6.5 9.75C6.5 10.1642 6.16421 10.5 5.75 10.5C5.33579 10.5 5 10.1642 5 9.75C5 9.33579 5.33579 9 5.75 9C6.16421 9 6.5 9.33579 6.5 9.75ZM10.25 8C10.6642 8 11 7.66421 11 7.25C11 6.83579 10.6642 6.5 10.25 6.5C9.83579 6.5 9.5 6.83579 9.5 7.25C9.5 7.66421 9.83579 8 10.25 8ZM8.75 7.25C8.75 7.66421 8.41421 8 8 8C7.58579 8 7.25 7.66421 7.25 7.25C7.25 6.83579 7.58579 6.5 8 6.5C8.41421 6.5 8.75 6.83579 8.75 7.25ZM8 10.5C8.41421 10.5 8.75 10.1642 8.75 9.75C8.75 9.33579 8.41421 9 8 9C7.58579 9 7.25 9.33579 7.25 9.75C7.25 10.1642 7.58579 10.5 8 10.5ZM6.5 1C5.84689 1 5.29127 1.4174 5.08535 2H4.5C3.67157 2 3 2.67157 3 3.5V13.5C3 14.3284 3.67157 15 4.5 15H11.5C12.3284 15 13 14.3284 13 13.5V3.5C13 2.67157 12.3284 2 11.5 2H10.9146C10.7087 1.4174 10.1531 1 9.5 1H6.5ZM6 2.5C6 2.22386 6.22386 2 6.5 2H9.5C9.77614 2 10 2.22386 10 2.5C10 2.77614 9.77614 3 9.5 3H6.5C6.22386 3 6 2.77614 6 2.5ZM4.5 3H5.08535C5.29127 3.5826 5.84689 4 6.5 4H9.5C10.1531 4 10.7087 3.5826 10.9146 3H11.5C11.7761 3 12 3.22386 12 3.5V13.5C12 13.7761 11.7761 14 11.5 14H4.5C4.22386 14 4 13.7761 4 13.5V3.5C4 3.22386 4.22386 3 4.5 3Z" fill="#212121"/>
</svg>
