<svg width="24" height="24" viewBox="0 0 24 24" fill="none" xmlns="http://www.w3.org/2000/svg">
<path d="M13.209 3.10312C12.7138 2.09974 11.283 2.09975 10.7878 3.10312L8.42988 7.88085L3.15735 8.64699C2.05005 8.80789 1.60791 10.1687 2.40916 10.9497L6.2244 14.6686L5.32374 19.9198C5.13459 21.0227 6.29213 21.8637 7.28252 21.343L11.2414 19.2617C11.0841 18.7016 11 18.1109 11 17.5005C11 13.9106 13.9101 11.0005 17.5 11.0005C18.6563 11.0005 19.7421 11.3024 20.6828 11.8317L21.5877 10.9497C22.3889 10.1687 21.9468 8.80789 20.8395 8.64699L15.567 7.88085L13.209 3.10312ZM23 17.5C23 20.5376 20.5376 23 17.5 23C14.4624 23 12 20.5376 12 17.5C12 14.4624 14.4624 12 17.5 12C20.5376 12 23 14.4624 23 17.5ZM20.8536 15.1464C20.6583 14.9512 20.3417 14.9512 20.1464 15.1464L16.5 18.7929L14.8536 17.1464C14.6583 16.9512 14.3417 16.9512 14.1464 17.1464C13.9512 17.3417 13.9512 17.6583 14.1464 17.8536L16.1464 19.8536C16.3417 20.0488 16.6583 20.0488 16.8536 19.8536L20.8536 15.8536C21.0488 15.6583 21.0488 15.3417 20.8536 15.1464Z" fill="#212121"/>
</svg>
