<svg width="24" height="24" viewBox="0 0 24 24" fill="none" xmlns="http://www.w3.org/2000/svg">
<path d="M5 6.25C5 5.00736 6.00736 4 7.25 4H15.75C16.9926 4 18 5.00736 18 6.25V14H21.5V17.25C21.5 19.0449 20.0449 20.5 18.25 20.5H13V19H16.5V6.25C16.5 5.83579 16.1642 5.5 15.75 5.5H7.25C6.83579 5.5 6.5 5.83579 6.5 6.25V14H5V6.25ZM18 19H18.25C19.2165 19 20 18.2165 20 17.25V15.5H18V19ZM8.00001 8.75C8.00001 8.33579 8.3358 8 8.75001 8H14.25C14.6642 8 15 8.33579 15 8.75C15 9.16422 14.6642 9.5 14.25 9.5H8.75001C8.3358 9.5 8.00001 9.16422 8.00001 8.75ZM8.00001 12.25C8.00001 11.8358 8.3358 11.5 8.75001 11.5H14.25C14.6642 11.5 15 11.8358 15 12.25C15 12.6642 14.6642 13 14.25 13H8.75001C8.3358 13 8.00001 12.6642 8.00001 12.25ZM2.5 15C1.67157 15 1 15.6716 1 16.5V20.5C1 21.3284 1.67157 22 2.5 22H10.5C11.3284 22 12 21.3284 12 20.5V16.5C12 15.6716 11.3284 15 10.5 15H2.5ZM10 16C10 16.5523 10.4477 17 11 17V18C9.89543 18 9 17.1046 9 16H10ZM9 21C9 19.8954 9.89543 19 11 19V20C10.4477 20 10 20.4477 10 21H9ZM2 17C2.55229 17 3 16.5523 3 16H4C4 17.1046 3.10457 18 2 18V17ZM2 19C3.10457 19 4 19.8954 4 21H3C3 20.4477 2.55228 20 2 20V19ZM6.5 16.75C7.4665 16.75 8.25 17.5335 8.25 18.5C8.25 19.4665 7.4665 20.25 6.5 20.25C5.5335 20.25 4.75 19.4665 4.75 18.5C4.75 17.5335 5.5335 16.75 6.5 16.75Z" fill="#212121"/>
</svg>
