<svg width="28" height="28" viewBox="0 0 28 28" fill="none" xmlns="http://www.w3.org/2000/svg">
<path d="M6.4 2C5.07452 2 4 3.07452 4 4.4V15.062C4.35225 14.4272 4.87219 13.8983 5.5 13.5351V4.4C5.5 3.90294 5.90294 3.5 6.4 3.5H14V10C14 11.1046 14.8954 12 16 12H22.5V23.6C22.5 24.0971 22.0971 24.5 21.6 24.5H14V25C14 25.3506 13.9398 25.6872 13.8293 26H21.6C22.9255 26 24 24.9255 24 23.6V11.5784C24 10.8491 23.7103 10.1496 23.1945 9.63388L16.2636 2.70294C15.8135 2.25286 15.2031 2 14.5665 2H6.4ZM21.9393 10.5H16C15.7239 10.5 15.5 10.2761 15.5 10V4.06066L21.9393 10.5ZM4.5 18H4C2.89543 18 2 18.8954 2 20V25C2 26.1046 2.89543 27 4 27H11C12.1046 27 13 26.1046 13 25V20C13 18.8954 12.1046 18 11 18H10.5V17C10.5 15.3431 9.15685 14 7.5 14C5.84315 14 4.5 15.3431 4.5 17V18ZM6 17C6 16.1716 6.67157 15.5 7.5 15.5C8.32843 15.5 9 16.1716 9 17V18H6V17ZM9 22.5C9 23.3284 8.32843 24 7.5 24C6.67157 24 6 23.3284 6 22.5C6 21.6716 6.67157 21 7.5 21C8.32843 21 9 21.6716 9 22.5Z" fill="#212121"/>
</svg>
