<svg width="24" height="24" viewBox="0 0 24 24" fill="none" xmlns="http://www.w3.org/2000/svg">
<path d="M6 22H18C19.1046 22 20 21.1046 20 20V9L15 7L13 2H6C4.89543 2 4 2.89543 4 4V20C4 21.1046 4.89543 22 6 22Z" fill="url(#paint0_linear_378174_8801)"/>
<path d="M6 22H18C19.1046 22 20 21.1046 20 20V9L15 7L13 2H6C4.89543 2 4 2.89543 4 4V20C4 21.1046 4.89543 22 6 22Z" fill="url(#paint1_radial_378174_8801)" fill-opacity="0.5"/>
<path d="M6 22H18C19.1046 22 20 21.1046 20 20V9L15 7L13 2H6C4.89543 2 4 2.89543 4 4V20C4 21.1046 4.89543 22 6 22Z" fill="url(#paint2_radial_378174_8801)" fill-opacity="0.7"/>
<path d="M6 22H18C19.1046 22 20 21.1046 20 20V9L15 7L13 2H6C4.89543 2 4 2.89543 4 4V20C4 21.1046 4.89543 22 6 22Z" fill="url(#paint3_radial_378174_8801)" fill-opacity="0.7"/>
<path d="M6 22H18C19.1046 22 20 21.1046 20 20V9L15 7L13 2H6C4.89543 2 4 2.89543 4 4V20C4 21.1046 4.89543 22 6 22Z" fill="url(#paint4_radial_378174_8801)" fill-opacity="0.7"/>
<path d="M13 7.5V2L20 9H14.5C13.6716 9 13 8.32843 13 7.5Z" fill="url(#paint5_linear_378174_8801)"/>
<path fill-rule="evenodd" clip-rule="evenodd" d="M3.92857 15V14.1666C3.92857 12.6939 5.0798 11.5 6.5 11.5C7.9202 11.5 9.07143 12.6939 9.07143 14.1666V15H9.66637C10.4027 15 11 15.5969 11 16.3333V21.6667C11 22.4031 10.4039 23 9.66752 23H3.33248C2.59611 23 2 22.4031 2 21.6667V16.3333C2 15.5969 2.59726 15 3.33363 15H3.92857ZM6.5 13C5.94772 13 5.5 13.4477 5.5 14V15H7.5V14C7.5 13.4477 7.05228 13 6.5 13Z" fill="url(#paint6_linear_378174_8801)"/>
<path d="M6.5 20C7.05228 20 7.5 19.5523 7.5 19C7.5 18.4477 7.05228 18 6.5 18C5.94772 18 5.5 18.4477 5.5 19C5.5 19.5523 5.94772 20 6.5 20Z" fill="#944600"/>
<defs>
<linearGradient id="paint0_linear_378174_8801" x1="15.2" y1="2" x2="16.8215" y2="18.8699" gradientUnits="userSpaceOnUse">
<stop stop-color="#6CE0FF"/>
<stop offset="1" stop-color="#4894FE"/>
</linearGradient>
<radialGradient id="paint1_radial_378174_8801" cx="0" cy="0" r="1" gradientUnits="userSpaceOnUse" gradientTransform="translate(20.6667 2.625) rotate(133.623) scale(12.562 7.41695)">
<stop offset="0.362364" stop-color="#4A43CB"/>
<stop offset="1" stop-color="#4A43CB" stop-opacity="0"/>
</radialGradient>
<radialGradient id="paint2_radial_378174_8801" cx="0" cy="0" r="1" gradientUnits="userSpaceOnUse" gradientTransform="translate(6 15.75) rotate(90) scale(3.75 4)">
<stop stop-color="#4A43CB" stop-opacity="0"/>
<stop offset="0.619792" stop-color="#4A43CB" stop-opacity="0.5"/>
<stop offset="1" stop-color="#4A43CB" stop-opacity="0"/>
</radialGradient>
<radialGradient id="paint3_radial_378174_8801" cx="0" cy="0" r="1" gradientUnits="userSpaceOnUse" gradientTransform="translate(10 17.625) rotate(-180) scale(3.33333 3.125)">
<stop stop-color="#4A43CB" stop-opacity="0.5"/>
<stop offset="0.731251" stop-color="#4A43CB" stop-opacity="0.05"/>
<stop offset="1" stop-color="#4A43CB" stop-opacity="0"/>
</radialGradient>
<radialGradient id="paint4_radial_378174_8801" cx="0" cy="0" r="1" gradientUnits="userSpaceOnUse" gradientTransform="translate(10 20.75) rotate(90) scale(3.75 2.7375)">
<stop stop-color="#4A43CB" stop-opacity="0.4"/>
<stop offset="1" stop-color="#4A43CB" stop-opacity="0"/>
</radialGradient>
<linearGradient id="paint5_linear_378174_8801" x1="16.4883" y1="4.91667" x2="14.7383" y2="7.83333" gradientUnits="userSpaceOnUse">
<stop stop-color="#9FF0F9"/>
<stop offset="1" stop-color="#B3E0FF"/>
</linearGradient>
<linearGradient id="paint6_linear_378174_8801" x1="11.0129" y1="23.4952" x2="0.646399" y2="17.1349" gradientUnits="userSpaceOnUse">
<stop stop-color="#FF6F47"/>
<stop offset="1" stop-color="#FFD638"/>
</linearGradient>
</defs>
</svg>
