<svg width="48" height="48" viewBox="0 0 48 48" fill="none" xmlns="http://www.w3.org/2000/svg">
<path d="M12.2499 28C9.90326 28 8.00002 29.9013 8 32.2489L8 33C8 36.7556 9.94167 39.5669 12.9202 41.3802C15.8491 43.1633 19.7861 44 24 44C28.2139 44 32.1509 43.1633 35.0798 41.3802C38.0583 39.5669 40 36.7556 40 33L40 32.2487C40 29.9012 38.0967 28 35.7502 28H12.2499Z" fill="url(#paint0_linear_378174_9362)"/>
<path d="M12.2499 28C9.90326 28 8.00002 29.9013 8 32.2489L8 33C8 36.7556 9.94167 39.5669 12.9202 41.3802C15.8491 43.1633 19.7861 44 24 44C28.2139 44 32.1509 43.1633 35.0798 41.3802C38.0583 39.5669 40 36.7556 40 33L40 32.2487C40 29.9012 38.0967 28 35.7502 28H12.2499Z" fill="url(#paint1_linear_378174_9362)"/>
<path d="M24 4C18.4772 4 14 8.47715 14 14C14 19.5228 18.4772 24 24 24C29.5228 24 34 19.5228 34 14C34 8.47715 29.5228 4 24 4Z" fill="url(#paint2_linear_378174_9362)"/>
<defs>
<linearGradient id="paint0_linear_378174_9362" x1="15.6097" y1="30.127" x2="20.779" y2="46.6354" gradientUnits="userSpaceOnUse">
<stop offset="0.125321" stop-color="#9C6CFE"/>
<stop offset="1" stop-color="#7A41DC"/>
</linearGradient>
<linearGradient id="paint1_linear_378174_9362" x1="24" y1="26.0952" x2="31.2381" y2="53.1429" gradientUnits="userSpaceOnUse">
<stop stop-color="#885EDB" stop-opacity="0"/>
<stop offset="1" stop-color="#E362F8"/>
</linearGradient>
<linearGradient id="paint2_linear_378174_9362" x1="18.7561" y1="6.65871" x2="28.9488" y2="22.9342" gradientUnits="userSpaceOnUse">
<stop offset="0.125321" stop-color="#9C6CFE"/>
<stop offset="1" stop-color="#7A41DC"/>
</linearGradient>
</defs>
</svg>
