<svg width="28" height="28" viewBox="0 0 28 28" fill="none" xmlns="http://www.w3.org/2000/svg">
<path d="M20.5 14C24.0899 14 27 16.9101 27 20.5C27 24.0899 24.0899 27 20.5 27C16.9101 27 14 24.0899 14 20.5C14 16.9101 16.9101 14 20.5 14ZM21.25 3C23.3211 3 25 4.67893 25 6.75V14.5C24.5385 14.1533 24.0353 13.8599 23.5 13.626V6.75C23.5 5.50736 22.4926 4.5 21.25 4.5H6.75C5.50736 4.5 4.5 5.50736 4.5 6.75V21.25C4.5 22.4926 5.50736 23.5 6.75 23.5H13.626C13.8599 24.0353 14.1533 24.5385 14.5 25H6.75C4.67893 25 3 23.3211 3 21.25V6.75C3 4.67893 4.67893 3 6.75 3H21.25ZM20.5 16C20.2239 16 20 16.2239 20 16.5V20H16.5C16.2239 20 16 20.2239 16 20.5C16 20.7761 16.2239 21 16.5 21H20V24.5C20 24.7761 20.2239 25 20.5 25C20.7761 25 21 24.7761 21 24.5V21H24.5C24.7761 21 25 20.7761 25 20.5C25 20.2239 24.7761 20 24.5 20H21V16.5C21 16.2239 20.7761 16 20.5 16ZM13.0186 20.001C13.0077 20.166 13 20.3323 13 20.5C13 20.8395 13.0247 21.1734 13.0684 21.501H6.75C6.33579 21.501 6 21.1652 6 20.751C6.00005 20.3368 6.33582 20.001 6.75 20.001H13.0186ZM14.502 15.998C14.155 16.4595 13.8611 16.9626 13.627 17.498H6.75C6.33579 17.498 6 17.1623 6 16.748C6.00001 16.3338 6.33579 15.998 6.75 15.998H14.502ZM11.502 6C11.8032 6.00017 12.0751 6.18053 12.1924 6.45801L14.9404 12.9609C15.1016 13.3424 14.9235 13.7821 14.542 13.9434C14.1606 14.1046 13.721 13.9261 13.5596 13.5449L13.1182 12.502H9.88184L9.44043 13.5449C9.27899 13.9262 8.83935 14.1046 8.45801 13.9434C8.07654 13.782 7.89816 13.3414 8.05957 12.96L10.8105 6.45703C10.928 6.17965 11.2007 5.99994 11.502 6ZM17.75 6C18.1642 6 18.5 6.33579 18.5 6.75V8H19.75C20.1642 8 20.5 8.33579 20.5 8.75C20.5 9.16421 20.1642 9.5 19.75 9.5H18.5V10.748C18.4998 11.1621 18.1641 11.498 17.75 11.498C17.3359 11.498 17.0002 11.1621 17 10.748V9.5H15.752C15.3379 9.49978 15.002 9.16407 15.002 8.75C15.002 8.33593 15.3379 8.00022 15.752 8H17V6.75C17 6.33579 17.3358 6 17.75 6ZM10.5166 11.002H12.4844L11.501 8.6748L10.5166 11.002Z" fill="#212121"/>
</svg>
