<svg width="20" height="20" viewBox="0 0 20 20" fill="none" xmlns="http://www.w3.org/2000/svg">
<path d="M15.5008 6.99918C16.8263 6.99918 17.9108 8.03071 17.9955 9.3348L18.0008 9.49918V15.4989C18.0008 16.8243 16.9693 17.9089 15.6652 17.9935L15.5008 17.9989H9.50113C8.17565 17.9989 7.09109 16.9673 7.00645 15.6632L7.00113 15.4989V9.49918C7.00113 8.17369 8.03267 7.08914 9.33676 7.0045L9.50113 6.99918H15.5008ZM15.5008 7.99918H9.50113C8.72143 7.99918 8.08068 8.59407 8.008 9.35472L8.00113 9.49918V15.4989C8.00113 16.2785 8.59602 16.9193 9.35667 16.992L9.50113 16.9989H15.5008C16.2805 16.9989 16.9213 16.404 16.9939 15.6433L17.0008 15.4989V9.49918C17.0008 8.71948 16.4059 8.07873 15.6453 8.00604L15.5008 7.99918ZM12.501 8.99918C12.7464 8.99918 12.9506 9.17605 12.9929 9.4093L13.001 9.49918L13 11.999L15.5011 11.9992C15.7773 11.9992 16.0011 12.223 16.0011 12.4992C16.0011 12.7446 15.8243 12.9488 15.591 12.9911L15.5011 12.9992L13 12.999L13.001 15.4992C13.001 15.7753 12.7771 15.9992 12.501 15.9992C12.2555 15.9992 12.0514 15.8223 12.009 15.5891L12.001 15.4992L12 12.999L9.50113 12.9992C9.22499 12.9992 9.00113 12.7753 9.00113 12.4992C9.00113 12.2537 9.17801 12.0496 9.41126 12.0072L9.50113 11.9992L12 11.999L12.001 9.49918C12.001 9.22304 12.2248 8.99918 12.501 8.99918ZM12.663 3.69422L12.7107 3.85162L13.286 5.99905H12.25L11.7448 4.11044C11.543 3.35731 10.8025 2.89236 10.0489 3.01902L9.90763 3.04978L4.11239 4.60261C3.35926 4.80441 2.89431 5.54487 3.02098 6.29841L3.05173 6.43973L4.60456 12.235C4.77949 12.8878 5.35918 13.3241 6.00129 13.3462L6.00141 14.3468C4.97445 14.3259 4.03721 13.6687 3.69081 12.6643L3.63864 12.4938L2.08581 6.69855C1.74275 5.41823 2.45843 4.10365 3.69617 3.68436L3.85357 3.63668L9.64881 2.08385C10.8758 1.75509 12.1342 2.39867 12.606 3.54226L12.663 3.69422Z" fill="#212121"/>
</svg>
