<svg width="25" height="24" viewBox="0 0 25 24" fill="none" xmlns="http://www.w3.org/2000/svg">
<path d="M18.1706 14.0002C18.9504 14.0002 19.6375 14.3971 20.0409 15H13.9163C12.5355 15 11.4163 16.1193 11.4163 17.5V21.5C11.4163 21.6613 11.4315 21.8191 11.4607 21.972C8.52239 21.7865 6.32515 20.7224 4.93029 18.7648C4.59833 18.2989 4.41992 17.7411 4.41992 17.169V16.2491C4.41992 15.007 5.42678 14.0002 6.6688 14.0002H18.1706ZM12.4164 2.00488C15.1778 2.00488 17.4164 4.24346 17.4164 7.00488C17.4164 9.76631 15.1778 12.0049 12.4164 12.0049C9.65496 12.0049 7.41638 9.76631 7.41638 7.00488C7.41638 4.24346 9.65496 2.00488 12.4164 2.00488ZM12.4163 17.5C12.4163 16.6716 13.0878 16 13.9163 16H21.9163C22.7447 16 23.4163 16.6716 23.4163 17.5V21.5C23.4163 22.3284 22.7447 23 21.9163 23H13.9163C13.0878 23 12.4163 22.3284 12.4163 21.5V17.5ZM22.4163 18C21.864 18 21.4163 17.5523 21.4163 17H20.4163C20.4163 18.1046 21.3117 19 22.4163 19V18ZM22.4163 20C21.3117 20 20.4163 20.8954 20.4163 22H21.4163C21.4163 21.4477 21.864 21 22.4163 21V20ZM14.4163 17C14.4163 17.5523 13.9685 18 13.4163 18V19C14.5208 19 15.4163 18.1046 15.4163 17H14.4163ZM15.4163 22C15.4163 20.8954 14.5208 20 13.4163 20V21C13.9685 21 14.4163 21.4477 14.4163 22H15.4163ZM19.6663 19.5C19.6663 18.5335 18.8828 17.75 17.9163 17.75C16.9498 17.75 16.1663 18.5335 16.1663 19.5C16.1663 20.4665 16.9498 21.25 17.9163 21.25C18.8828 21.25 19.6663 20.4665 19.6663 19.5Z" fill="#212121"/>
</svg>
