<svg width="28" height="28" viewBox="0 0 28 28" fill="none" xmlns="http://www.w3.org/2000/svg">
<path d="M3 3.75C3 3.33579 3.33579 3 3.75 3L24.25 3C24.6642 3 25 3.33579 25 3.75C25 4.16422 24.6642 4.5 24.25 4.5L3.75 4.5C3.33579 4.5 3 4.16421 3 3.75ZM10.442 9.91264C10.6032 10.094 10.7937 10.2339 11 10.3316L11 17L17 17L17 10.3316C17.2063 10.2339 17.3967 10.094 17.558 9.91264C17.671 9.78545 17.7621 9.64636 17.8316 9.5L24 9.5C24.5523 9.5 25 9.94772 25 10.5L25 21.25C25 23.3211 23.3211 25 21.25 25L6.75 25C4.67893 25 3 23.3211 3 21.25L3 10.5C3 9.94772 3.44772 9.5 4 9.5L10.1683 9.5C10.2378 9.64636 10.329 9.78545 10.442 9.91264ZM9.5 11L4.5 11L4.5 17L9.5 17L9.5 11ZM9.5 18.5L4.5 18.5L4.5 21.25C4.5 22.4926 5.50736 23.5 6.75 23.5L9.5 23.5L9.5 18.5ZM11 23.5H17L17 18.5L11 18.5L11 23.5ZM21.25 23.5C22.4926 23.5 23.5 22.4926 23.5 21.25V18.5L18.5 18.5L18.5 23.5L21.25 23.5ZM23.5 17L23.5 11L18.5 11L18.5 17L23.5 17ZM15.7517 9.31056L14.75 8.42014V12C14.75 12.4142 14.4142 12.75 14 12.75C13.5858 12.75 13.25 12.4142 13.25 12L13.25 8.42013L12.2483 9.31056C11.9387 9.58575 11.4646 9.55786 11.1894 9.24827C10.9142 8.93869 10.9421 8.46463 11.2517 8.18945L13.5017 6.18945C13.7859 5.93685 14.2141 5.93685 14.4983 6.18945L16.7483 8.18945C17.0579 8.46463 17.0857 8.93869 16.8106 9.24828C16.5354 9.55786 16.0613 9.58575 15.7517 9.31056Z" fill="#212121"/>
</svg>
