<?xml version="1.0" encoding="UTF-8"?>
<svg xmlns="http://www.w3.org/2000/svg" style="display: none;">
  <symbol id="CalculatorFilled" viewBox="0 0 20 20">
    <path d="M13.5 2h-7A2.5 2.5 0 0 0 4 4.5v11A2.5 2.5 0 0 0 6.5 18h7a2.5 2.5 0 0 0 2.5-2.5v-11A2.5 2.5 0 0 0 13.5 2Zm-6 2h5c.83 0 1.5.67 1.5 1.5v1c0 .83-.67 1.5-1.5 1.5h-5A1.5 1.5 0 0 1 6 6.5v-1C6 4.67 6.67 4 7.5 4Zm.5 7a1 1 0 1 1-2 0 1 1 0 0 1 2 0Zm0 3a1 1 0 1 1-2 0 1 1 0 0 1 2 0Zm5-2a1 1 0 1 1 0-2 1 1 0 0 1 0 2Zm1 2a1 1 0 1 1-2 0 1 1 0 0 1 2 0Zm-4-2a1 1 0 1 1 0-2 1 1 0 0 1 0 2Zm1 2a1 1 0 1 1-2 0 1 1 0 0 1 2 0Z"/>
  </symbol>
  <symbol id="CalculatorRegular" viewBox="0 0 20 20">
    <path d="M8 11a1 1 0 1 1-2 0 1 1 0 0 1 2 0Zm0 3a1 1 0 1 1-2 0 1 1 0 0 1 2 0Zm5-2a1 1 0 1 0 0-2 1 1 0 0 0 0 2Zm1 2a1 1 0 1 1-2 0 1 1 0 0 1 2 0Zm-4-2a1 1 0 1 0 0-2 1 1 0 0 0 0 2Zm1 2a1 1 0 1 1-2 0 1 1 0 0 1 2 0ZM7.5 4C6.67 4 6 4.67 6 5.5v1C6 7.33 6.67 8 7.5 8h5c.83 0 1.5-.67 1.5-1.5v-1c0-.83-.67-1.5-1.5-1.5h-5ZM7 5.5c0-.28.22-.5.5-.5h5c.28 0 .5.22.5.5v1a.5.5 0 0 1-.5.5h-5a.5.5 0 0 1-.5-.5v-1Zm9 10a2.5 2.5 0 0 1-2.5 2.5h-7A2.5 2.5 0 0 1 4 15.5v-11A2.5 2.5 0 0 1 6.5 2h7A2.5 2.5 0 0 1 16 4.5v11Zm-1-11c0-.83-.67-1.5-1.5-1.5h-7C5.67 3 5 3.67 5 4.5v11c0 .83.67 1.5 1.5 1.5h7c.83 0 1.5-.67 1.5-1.5v-11Z"/>
  </symbol>
  <symbol id="Calculator16Regular" viewBox="0 0 16 16">
    <path d="M6 9a1 1 0 1 1-2 0 1 1 0 0 1 2 0Zm0 3a1 1 0 1 1-2 0 1 1 0 0 1 2 0Zm5-2a1 1 0 1 0 0-2 1 1 0 0 0 0 2Zm1 2a1 1 0 1 1-2 0 1 1 0 0 1 2 0Zm-4-2a1 1 0 1 0 0-2 1 1 0 0 0 0 2Zm1 2a1 1 0 1 1-2 0 1 1 0 0 1 2 0ZM5.5 3C4.67 3 4 3.67 4 4.5v1C4 6.33 4.67 7 5.5 7h5c.83 0 1.5-.67 1.5-1.5v-1c0-.83-.67-1.5-1.5-1.5h-5ZM5 4.5c0-.28.22-.5.5-.5h5c.28 0 .5.22.5.5v1a.5.5 0 0 1-.5.5h-5a.5.5 0 0 1-.5-.5v-1Zm9 8a2.5 2.5 0 0 1-2.5 2.5h-7A2.5 2.5 0 0 1 2 12.5v-9A2.5 2.5 0 0 1 4.5 1h7A2.5 2.5 0 0 1 14 3.5v9Zm-1-9c0-.83-.67-1.5-1.5-1.5h-7C3.67 2 3 2.67 3 3.5v9c0 .83.67 1.5 1.5 1.5h7c.83 0 1.5-.67 1.5-1.5v-9Z"/>
  </symbol>
  <symbol id="Calculator16Filled" viewBox="0 0 16 16">
    <path d="M11.5 1h-7A2.5 2.5 0 0 0 2 3.5v9A2.5 2.5 0 0 0 4.5 15h7a2.5 2.5 0 0 0 2.5-2.5v-9A2.5 2.5 0 0 0 11.5 1Zm-6 2h5c.83 0 1.5.67 1.5 1.5v1c0 .83-.67 1.5-1.5 1.5h-5A1.5 1.5 0 0 1 4 5.5v-1C4 3.67 4.67 3 5.5 3ZM6 9a1 1 0 1 1-2 0 1 1 0 0 1 2 0Zm0 3a1 1 0 1 1-2 0 1 1 0 0 1 2 0Zm5-2a1 1 0 1 1 0-2 1 1 0 0 1 0 2Zm1 2a1 1 0 1 1-2 0 1 1 0 0 1 2 0Zm-4-2a1 1 0 1 1 0-2 1 1 0 0 1 0 2Zm1 2a1 1 0 1 1-2 0 1 1 0 0 1 2 0Z"/>
  </symbol>
  <symbol id="Calculator20Regular" viewBox="0 0 20 20">
    <path d="M8 11a1 1 0 1 1-2 0 1 1 0 0 1 2 0Zm0 3a1 1 0 1 1-2 0 1 1 0 0 1 2 0Zm5-2a1 1 0 1 0 0-2 1 1 0 0 0 0 2Zm1 2a1 1 0 1 1-2 0 1 1 0 0 1 2 0Zm-4-2a1 1 0 1 0 0-2 1 1 0 0 0 0 2Zm1 2a1 1 0 1 1-2 0 1 1 0 0 1 2 0ZM7.5 4C6.67 4 6 4.67 6 5.5v1C6 7.33 6.67 8 7.5 8h5c.83 0 1.5-.67 1.5-1.5v-1c0-.83-.67-1.5-1.5-1.5h-5ZM7 5.5c0-.28.22-.5.5-.5h5c.28 0 .5.22.5.5v1a.5.5 0 0 1-.5.5h-5a.5.5 0 0 1-.5-.5v-1Zm9 10a2.5 2.5 0 0 1-2.5 2.5h-7A2.5 2.5 0 0 1 4 15.5v-11A2.5 2.5 0 0 1 6.5 2h7A2.5 2.5 0 0 1 16 4.5v11Zm-1-11c0-.83-.67-1.5-1.5-1.5h-7C5.67 3 5 3.67 5 4.5v11c0 .83.67 1.5 1.5 1.5h7c.83 0 1.5-.67 1.5-1.5v-11Z"/>
  </symbol>
  <symbol id="Calculator20Filled" viewBox="0 0 20 20">
    <path d="M13.5 2h-7A2.5 2.5 0 0 0 4 4.5v11A2.5 2.5 0 0 0 6.5 18h7a2.5 2.5 0 0 0 2.5-2.5v-11A2.5 2.5 0 0 0 13.5 2Zm-6 2h5c.83 0 1.5.67 1.5 1.5v1c0 .83-.67 1.5-1.5 1.5h-5A1.5 1.5 0 0 1 6 6.5v-1C6 4.67 6.67 4 7.5 4Zm.5 7a1 1 0 1 1-2 0 1 1 0 0 1 2 0Zm0 3a1 1 0 1 1-2 0 1 1 0 0 1 2 0Zm5-2a1 1 0 1 1 0-2 1 1 0 0 1 0 2Zm1 2a1 1 0 1 1-2 0 1 1 0 0 1 2 0Zm-4-2a1 1 0 1 1 0-2 1 1 0 0 1 0 2Zm1 2a1 1 0 1 1-2 0 1 1 0 0 1 2 0Z"/>
  </symbol>
  <symbol id="Calculator24Regular" viewBox="0 0 24 24">
    <path d="M7 7c0-1.1.9-2 2-2h6a2 2 0 0 1 2 2v1a2 2 0 0 1-2 2H9a2 2 0 0 1-2-2V7Zm2-.5a.5.5 0 0 0-.5.5v1c0 .28.22.5.5.5h6a.5.5 0 0 0 .5-.5V7a.5.5 0 0 0-.5-.5H9Zm-.75 8a1.25 1.25 0 1 0 0-2.5 1.25 1.25 0 0 0 0 2.5Zm1.25 2.75a1.25 1.25 0 1 1-2.5 0 1.25 1.25 0 0 1 2.5 0Zm6.25-2.75a1.25 1.25 0 1 0 0-2.5 1.25 1.25 0 0 0 0 2.5ZM17 17.25a1.25 1.25 0 1 1-2.5 0 1.25 1.25 0 0 1 2.5 0Zm-5-2.75a1.25 1.25 0 1 0 0-2.5 1.25 1.25 0 0 0 0 2.5Zm1.25 2.75a1.25 1.25 0 1 1-2.5 0 1.25 1.25 0 0 1 2.5 0ZM7.25 2A3.25 3.25 0 0 0 4 5.25v13.5C4 20.55 5.46 22 7.25 22h9.5c1.8 0 3.25-1.46 3.25-3.25V5.25C20 3.45 18.54 2 16.75 2h-9.5ZM5.5 5.25c0-.97.78-1.75 1.75-1.75h9.5c.97 0 1.75.78 1.75 1.75v13.5c0 .97-.78 1.75-1.75 1.75h-9.5c-.97 0-1.75-.78-1.75-1.75V5.25Z"/>
  </symbol>
  <symbol id="Calculator24Filled" viewBox="0 0 24 24">
    <path d="M4 5.25C4 3.45 5.46 2 7.25 2h9.5C18.55 2 20 3.46 20 5.25v13.5c0 1.8-1.46 3.25-3.25 3.25h-9.5A3.25 3.25 0 0 1 4 18.75V5.25ZM9 5a2 2 0 0 0-2 2v1c0 1.1.9 2 2 2h6a2 2 0 0 0 2-2V7a2 2 0 0 0-2-2H9Zm.5 8.25a1.25 1.25 0 1 0-2.5 0 1.25 1.25 0 0 0 2.5 0ZM8.25 18.5a1.25 1.25 0 1 0 0-2.5 1.25 1.25 0 0 0 0 2.5ZM17 13.25a1.25 1.25 0 1 0-2.5 0 1.25 1.25 0 0 0 2.5 0Zm-1.25 5.25a1.25 1.25 0 1 0 0-2.5 1.25 1.25 0 0 0 0 2.5Zm-2.5-5.25a1.25 1.25 0 1 0-2.5 0 1.25 1.25 0 0 0 2.5 0ZM12 18.5a1.25 1.25 0 1 0 0-2.5 1.25 1.25 0 0 0 0 2.5Z"/>
  </symbol>
</svg>
