<svg width="24" height="24" viewBox="0 0 24 24" fill="none" xmlns="http://www.w3.org/2000/svg">
<path d="M9 5C8.44772 5 8 5.44772 8 6C8 6.55228 8.44772 7 9 7H15C15.5523 7 16 6.55228 16 6C16 5.44772 15.5523 5 15 5H9Z" fill="#212121"/>
<path d="M9 9C8.44772 9 8 9.44772 8 10C8 10.5523 8.44772 11 9 11H15C15.5523 11 16 10.5523 16 10C16 9.44772 15.5523 9 15 9H9Z" fill="#212121"/>
<path d="M8 14C8 13.4477 8.44772 13 9 13H15C15.5523 13 16 13.4477 16 14C16 14.5523 15.5523 15 15 15H9C8.44772 15 8 14.5523 8 14Z" fill="#212121"/>
<path d="M9 17C8.44772 17 8 17.4477 8 18C8 18.5523 8.44772 19 9 19H15C15.5523 19 16 18.5523 16 18C16 17.4477 15.5523 17 15 17H9Z" fill="#212121"/>
</svg>
