<svg width="32" height="32" viewBox="0 0 32 32" fill="none" xmlns="http://www.w3.org/2000/svg">
<path d="M4 16C4 9.37258 9.37258 4 16 4C22.6274 4 28 9.37258 28 16C28 22.6274 22.6274 28 16 28C9.37258 28 4 22.6274 4 16ZM16 2C8.26801 2 2 8.26801 2 16C2 23.732 8.26801 30 16 30C23.732 30 30 23.732 30 16C30 8.26801 23.732 2 16 2ZM19.7267 8.28949C19.3317 7.9035 18.6913 7.9035 18.2963 8.28949C17.9012 8.67548 17.9012 9.30128 18.2963 9.68727C21.8641 13.1736 21.8641 18.8261 18.2963 22.3124C17.9012 22.6984 17.9012 23.3242 18.2963 23.7102C18.6913 24.0962 19.3317 24.0962 19.7267 23.7102C24.0846 19.4519 24.0846 12.5478 19.7267 8.28949ZM14.2897 10.296C14.6761 9.90133 15.3024 9.90133 15.6888 10.296C18.7735 13.4473 18.7735 18.5567 15.6888 21.708C15.3024 22.1027 14.6761 22.1027 14.2897 21.708C13.9034 21.3134 13.9034 20.6735 14.2897 20.2788C16.6018 17.9168 16.6018 14.0872 14.2897 11.7252C13.9034 11.3306 13.9034 10.6907 14.2897 10.296ZM11.6198 12.3071C11.2493 11.8976 10.6485 11.8976 10.2779 12.3071C9.90736 12.7167 9.90736 13.3806 10.2779 13.7901C11.3825 15.0109 11.3825 16.99 10.2779 18.2108C9.90736 18.6203 9.90736 19.2842 10.2779 19.6938C10.6485 20.1033 11.2493 20.1033 11.6198 19.6938C13.4656 17.654 13.4656 14.3469 11.6198 12.3071Z" fill="#212121"/>
</svg>
