<svg width="28" height="28" viewBox="0 0 28 28" fill="none" xmlns="http://www.w3.org/2000/svg">
<path d="M19.0625 15.3434C19.8508 16.1728 21.1734 16.1726 21.9619 15.3434L22.8057 14.4567C23.4492 14.7225 24.0407 15.0961 24.5586 15.5563L24.2334 16.655C23.9096 17.7524 24.5713 18.8977 25.6836 19.1657L26.6611 19.4011C26.7196 19.7581 26.75 20.1253 26.75 20.4997C26.75 20.858 26.7226 21.2099 26.6689 21.5524L25.6436 21.8063C24.542 22.0789 23.8874 23.2122 24.2021 24.3024L24.5371 25.4626C24.0189 25.919 23.4277 26.2887 22.7852 26.5514L21.9355 25.6579C21.1473 24.8285 19.8257 24.8279 19.0371 25.6569L18.1943 26.5436C17.5505 26.2777 16.9585 25.9036 16.4404 25.443L16.7646 24.3454C17.0885 23.2479 16.427 22.1026 15.3145 21.8346L14.3389 21.6003C14.2803 21.2428 14.25 20.8746 14.25 20.4997C14.25 20.1416 14.2775 19.7903 14.3311 19.4479L15.3555 19.194C16.4567 18.9213 17.1106 17.788 16.7959 16.6979L16.4619 15.5387C16.98 15.0822 17.5704 14.7118 18.2129 14.4489L19.0625 15.3434ZM13.5596 2.14227C13.8218 1.95282 14.1763 1.95282 14.4385 2.14227C15.0813 2.60664 16.5264 3.45387 18.335 4.18328C20.1454 4.91345 22.2579 5.49969 24.248 5.49969C24.6619 5.49991 24.9978 5.8358 24.998 6.24969V14.0016C24.998 14.1636 24.991 14.3254 24.9814 14.486C24.5245 14.145 24.027 13.8557 23.498 13.6247V6.97625C21.4842 6.85276 19.4658 6.25644 17.7734 5.57391C16.1854 4.93337 14.8397 4.19945 13.999 3.65691C13.1584 4.19948 11.8128 4.93324 10.2246 5.57391C8.53239 6.25651 6.51479 6.85281 4.5 6.97625V14.0016C4.50007 16.4723 5.90855 18.9255 7.8916 20.8845C9.82955 22.7987 12.1929 24.1182 13.999 24.4743C14.0399 24.4662 14.0806 24.455 14.1221 24.446C14.4102 24.9106 14.7475 25.3414 15.127 25.7311C14.7854 25.8352 14.4518 25.9188 14.1279 25.9753L13.999 25.9977L13.8701 25.9753C11.6646 25.5911 8.97014 24.0591 6.83691 21.9518C4.70246 19.8434 3.00007 17.0288 3 14.0016V6.24969C3.00021 5.83566 3.33592 5.49969 3.75 5.49969C5.74122 5.49969 7.8531 4.91335 9.66309 4.18328C11.4715 3.45379 12.9168 2.60665 13.5596 2.14227ZM20.5 18.9997C19.6717 18.9997 19.0002 19.6714 19 20.4997C19 21.3281 19.6716 21.9997 20.5 21.9997C21.3284 21.9997 22 21.3281 22 20.4997C21.9998 19.6714 21.3283 18.9997 20.5 18.9997Z" fill="#212121"/>
</svg>
