<?xml version="1.0" encoding="UTF-8"?>
<svg width="24px" height="24px" viewBox="0 0 24 24" version="1.1" xmlns="http://www.w3.org/2000/svg" xmlns:xlink="http://www.w3.org/1999/xlink">
    <!-- Generator: Sketch 59.1 (86144) - https://sketch.com -->
    <title>ic_office_word_24_mono</title>
    <desc>Created with Sketch.</desc>
    <g id="ðŸ”-Product-Icons" stroke="none" stroke-width="1" fill="none" fill-rule="evenodd">
        <g id="ic_office_word_24_mono" fill="#212121">
            <path d="M9.056,15.875 L7.989,11.171 L6.984,15.875 L5.04,15.875 L3.316,8.125 L5.156,8.125 L6.08,12.839 L7.109,8.125 L8.936,8.125 L10.011,12.813 L10.865,8.125 L12.683,8.125 L10.974,15.875 L9.056,15.875 Z M8,4 L21,4 L21,7 L14,7 C14,6.45 13.55,6 13,6 L8,6 L8,4 Z M8,20 L8,18 L13,18 C13.55,18 14,17.55 14,17 L14,16 L21,16 L21,20 L8,20 Z M14,15 L21,15 L21,12 L14,12 L14,15 Z M14,11 L21,11 L21,8 L14,8 L14,11 Z M3,18 L7,18 L7,20.182 C7,20.634 7.366,21 7.818,21 L21.166,21 C21.625,21 22,20.625 22,20.167 L22,3.83 C22,3.372 21.628,3 21.17,3 L7.833,3 C7.375,3 7,3.375 7,3.833 L7,6 L3,6 C2.45,6 2,6.45 2,7 L2,17 C2,17.55 2.45,18 3,18 L3,18 Z" id="ðŸŽ¨-Color"></path>
        </g>
    </g>
</svg>