<svg width="16" height="16" viewBox="0 0 16 16" fill="none" xmlns="http://www.w3.org/2000/svg">
<path d="M1 8C1 4.13401 4.13401 1 8 1C11.866 1 15 4.13401 15 8C15 11.866 11.866 15 8 15C4.13401 15 1 11.866 1 8ZM6.5 8C6.5 7.20653 6.62235 6.5598 6.87084 6.12812C7.09717 5.73492 7.43492 5.5 8 5.5C8.56508 5.5 8.90283 5.73492 9.12916 6.12812C9.37765 6.5598 9.5 7.20653 9.5 8C9.5 8.79347 9.37765 9.4402 9.12916 9.87188C8.90283 10.2651 8.56508 10.5 8 10.5C7.43492 10.5 7.09717 10.2651 6.87084 9.87188C6.62235 9.4402 6.5 8.79347 6.5 8ZM8 4.5C7.06508 4.5 6.40283 4.93665 6.00416 5.62924C5.62765 6.28334 5.5 7.13662 5.5 8C5.5 8.86338 5.62765 9.71666 6.00416 10.3708C6.40283 11.0633 7.06508 11.5 8 11.5C8.93492 11.5 9.59717 11.0633 9.99584 10.3708C10.3723 9.71666 10.5 8.86338 10.5 8C10.5 7.13662 10.3723 6.28334 9.99584 5.62924C9.59717 4.93665 8.93492 4.5 8 4.5Z" fill="#212121"/>
</svg>
