<svg width="20" height="20" viewBox="0 0 20 20" fill="none" xmlns="http://www.w3.org/2000/svg">
<path d="M17 14.5V10.4003C17.3578 10.2174 17.6929 9.99647 18 9.74284V14.5C18 15.8807 16.8807 17 15.5 17H4.5C3.11929 17 2 15.8807 2 14.5V6.5C2 5.11929 3.11929 4 4.5 4H9.20703C9.11588 4.32228 9.05337 4.65659 9.02242 5H4.5C3.67157 5 3 5.67157 3 6.5V6.802L10 10.9199L11.4414 10.0718C11.766 10.2894 12.1151 10.4733 12.4836 10.6186L10.2535 11.931C10.1231 12.0077 9.96661 12.0205 9.82751 11.9693L9.74649 11.931L3 7.963V14.5C3 15.3284 3.67157 16 4.5 16H15.5C16.3284 16 17 15.3284 17 14.5ZM10 5.5C10 7.98528 12.0147 10 14.5 10C16.9853 10 19 7.98528 19 5.5C19 3.01472 16.9853 1 14.5 1C12.0147 1 10 3.01472 10 5.5ZM15.3964 2.89645C15.5917 2.70118 15.9083 2.70118 16.1036 2.89645L17.8536 4.64645C17.9015 4.69439 17.9377 4.74964 17.9621 4.80861C17.9865 4.86756 18 4.93221 18 5C18 5.06779 17.9865 5.13244 17.9621 5.19139C17.938 5.24949 17.9026 5.30398 17.8557 5.35143L16.1036 7.10355C15.9083 7.29882 15.5917 7.29882 15.3964 7.10355C15.2012 6.90829 15.2012 6.59171 15.3964 6.39645L16.2929 5.5H14.75C13.7835 5.5 13 6.2835 13 7.25V7.5C13 7.77614 12.7761 8 12.5 8C12.2239 8 12 7.77614 12 7.5V7.25C12 5.73122 13.2312 4.5 14.75 4.5H16.2929L15.3964 3.60355C15.2012 3.40829 15.2012 3.09171 15.3964 2.89645Z" fill="#212121"/>
</svg>
