<svg width="48" height="48" viewBox="0 0 48 48" fill="none" xmlns="http://www.w3.org/2000/svg">
<path d="M31.75 6.5C30.3693 6.5 29.25 7.61929 29.25 9C29.25 10.3807 30.3693 11.5 31.75 11.5C33.1307 11.5 34.25 10.3807 34.25 9C34.25 7.61929 33.1307 6.5 31.75 6.5ZM36.75 9C36.75 11.3298 35.1565 13.2874 33 13.8425V18.5C33 21.2614 35.2386 23.5 38 23.5C40.5927 23.5 42.7244 21.5267 42.9753 19H39.25C38.7444 19 38.2886 18.6954 38.0951 18.2284C37.9017 17.7613 38.0086 17.2236 38.3661 16.8661L43.3661 11.8661C43.7236 11.5086 44.2613 11.4017 44.7284 11.5952C45.1954 11.7886 45.5 12.2444 45.5 12.75V18.5C45.5 22.6421 42.1421 26 38 26C33.8579 26 30.5 22.6421 30.5 18.5V13.8425C28.3435 13.2874 26.75 11.3298 26.75 9C26.75 6.23858 28.9886 4 31.75 4C34.5114 4 36.75 6.23858 36.75 9ZM24.8209 8H10.25C6.79822 8 4 10.7982 4 14.25V33.75C4 37.2018 6.79822 40 10.25 40H37.75C41.2018 40 44 37.2018 44 33.75V25.8658C43.2527 26.4753 42.4109 26.9733 41.5 27.3345V33.75C41.5 35.8211 39.8211 37.5 37.75 37.5H10.25C8.17893 37.5 6.5 35.8211 6.5 33.75V17.8936L23.414 26.8678C23.7791 27.0615 24.2163 27.0622 24.5821 26.8697L30.1941 23.916C29.7204 23.2346 29.3337 22.4883 29.0499 21.6931L24.0022 24.3498L6.5 15.0635V14.25C6.5 12.1789 8.17893 10.5 10.25 10.5H24.9111C24.8056 10.0168 24.75 9.51487 24.75 9C24.75 8.66048 24.7742 8.3266 24.8209 8Z" fill="#212121"/>
</svg>
