<svg width="20" height="20" viewBox="0 0 20 20" fill="none" xmlns="http://www.w3.org/2000/svg">
<path d="M2.85355 2.14645C2.65829 1.95118 2.34171 1.95118 2.14645 2.14645C1.95118 2.34171 1.95118 2.65829 2.14645 2.85355L3.55462 4.26173C3.20539 4.75213 3 5.35207 3 5.99999V14C3 14.6495 3.20642 15.2508 3.55724 15.7419L8.94759 10.4345C9.08648 10.2977 9.24536 10.1935 9.41472 10.1218L10.0474 10.7545L9.69459 11.1074C9.67887 11.1196 9.66371 11.1328 9.6492 11.1471L4.26544 16.448C4.75517 16.7956 5.35372 17 6 17H14C14.5972 17 15.1542 16.826 15.6216 16.5252L15.6322 16.5175C15.6668 16.495 15.701 16.4718 15.7346 16.448L15.7316 16.4451L15.7353 16.4424L17.1464 17.8536C17.3417 18.0488 17.6583 18.0488 17.8536 17.8536C18.0488 17.6583 18.0488 17.3417 17.8536 17.1464L2.85355 2.14645Z" fill="#212121"/>
<path d="M13 7.49999C13 7.77613 12.7761 7.99999 12.5 7.99999C12.2239 7.99999 12 7.77613 12 7.49999C12 7.22384 12.2239 6.99999 12.5 6.99999C12.7761 6.99999 13 7.22384 13 7.49999Z" fill="#212121"/>
<path d="M5.22276 3.10165L16.8983 14.7772C16.9646 14.5293 17 14.2688 17 14V5.99999C17 4.34313 15.6569 2.99999 14 2.99999H6C5.7312 2.99999 5.47065 3.03534 5.22276 3.10165ZM14 7.49999C14 8.32841 13.3284 8.99999 12.5 8.99999C11.6716 8.99999 11 8.32841 11 7.49999C11 6.67156 11.6716 5.99999 12.5 5.99999C13.3284 5.99999 14 6.67156 14 7.49999Z" fill="#212121"/>
</svg>
