<svg width="20" height="20" viewBox="0 0 20 20" fill="none" xmlns="http://www.w3.org/2000/svg">
<path d="M9.30867 2.03806C9.4955 1.96067 9.71056 2.00345 9.85356 2.14645L13.8536 6.14645C13.9514 6.2443 14.0043 6.37833 13.9997 6.51664C13.9951 6.65495 13.9334 6.78516 13.8293 6.87629L10.2593 10L13.8293 13.1237C13.9334 13.2148 13.9951 13.3451 13.9997 13.4834C14.0043 13.6217 13.9514 13.7557 13.8536 13.8536L9.85356 17.8536C9.71056 17.9966 9.4955 18.0393 9.30867 17.9619C9.12183 17.8845 9.00001 17.7022 9.00001 17.5V11.1019L5.82926 13.8763C5.62144 14.0581 5.30556 14.0371 5.12372 13.8293C4.94188 13.6214 4.96294 13.3056 5.17075 13.1237L8.74071 10L5.17075 6.87629C4.96294 6.69445 4.94188 6.37857 5.12372 6.17075C5.30556 5.96293 5.62144 5.94187 5.82926 6.12371L9.00001 8.89812V2.5C9.00001 2.29777 9.12183 2.11545 9.30867 2.03806ZM10 11.1019V16.2929L12.7685 13.5244L10 11.1019ZM10 8.89812L12.7685 6.47564L10 3.70711V8.89812Z" fill="#212121"/>
</svg>
