<svg width="48" height="48" viewBox="0 0 48 48" fill="none" xmlns="http://www.w3.org/2000/svg">
<path d="M5.02513 26.4746C3.65829 25.1078 3.65829 22.8917 5.02513 21.5249L21.5249 5.02513C22.8917 3.65829 25.1078 3.65829 26.4746 5.02513L42.9743 21.5249C44.3412 22.8917 44.3412 25.1078 42.9743 26.4746L26.4746 42.9743C25.1078 44.3412 22.8917 44.3412 21.5249 42.9743L5.02513 26.4746ZM6.79289 23.2926C6.40237 23.6832 6.40237 24.3163 6.79289 24.7068L23.2926 41.2066C23.6832 41.5971 24.3163 41.5971 24.7068 41.2066L41.2066 24.7068C41.5971 24.3163 41.5971 23.6832 41.2066 23.2926L24.7068 6.79289C24.3163 6.40237 23.6832 6.40237 23.2926 6.79289L6.79289 23.2926Z" fill="#212121"/>
</svg>
