<svg width="16" height="16" viewBox="0 0 16 16" fill="none" xmlns="http://www.w3.org/2000/svg">
<path d="M1.58586 9.3971C0.804714 8.61615 0.804713 7.34998 1.58586 6.56902L6.57042 1.58571C7.35156 0.804763 8.61805 0.804761 9.3992 1.58571L14.3838 6.56902C15.1649 7.34997 15.1649 8.61615 14.3838 9.3971L9.3992 14.3804C8.61805 15.1614 7.35156 15.1614 6.57042 14.3804L1.58586 9.3971ZM2.29305 7.27604C1.90248 7.66652 1.90248 8.2996 2.29306 8.69008L7.27761 13.6734C7.66818 14.0639 8.30143 14.0639 8.692 13.6734L13.6766 8.69008C14.0671 8.2996 14.0671 7.66652 13.6766 7.27604L8.692 2.29273C8.30143 1.90226 7.66819 1.90226 7.27761 2.29273L2.29305 7.27604Z" fill="#212121"/>
</svg>
