<svg width="32" height="32" viewBox="0 0 32 32" fill="none" xmlns="http://www.w3.org/2000/svg">
<path d="M3.75872 6.87534C4.90084 6.18716 7.0152 5.73249 8.81722 6.18099C9.7046 6.40185 10.4903 6.83491 11.0558 7.54023C11.6196 8.24332 12.0007 9.26183 12.0007 10.7208V11.8697C10.055 11.2241 7.68716 10.8929 5.74665 11.2625C4.6547 11.4705 3.65052 11.91 2.95143 12.6919C2.24102 13.4865 1.89985 14.574 2.02872 15.9578C2.1602 17.3698 2.7915 18.3709 3.72448 19.0017C4.63772 19.6193 5.79379 19.8519 6.94734 19.8436C8.10563 19.8353 9.30468 19.5842 10.346 19.1879C10.9507 18.9577 11.5187 18.6722 12.0007 18.3445V19.498C12.0007 19.7741 12.2245 19.998 12.5007 19.998C12.7768 19.998 13.0007 19.7741 13.0007 19.498V10.7208C13.0007 9.08195 12.5692 7.82908 11.836 6.91467C11.1046 6.0025 10.1089 5.47197 9.05874 5.21059C6.98565 4.69462 4.60001 5.20091 3.24262 6.01881C3.00609 6.16133 2.92989 6.4686 3.0724 6.70513C3.21492 6.94165 3.52219 7.01786 3.75872 6.87534ZM12.0007 17.0622C11.5599 17.4991 10.8533 17.9248 9.9903 18.2533C9.04827 18.6118 7.96705 18.8362 6.94014 18.8436C5.90849 18.8511 4.97444 18.6398 4.28462 18.1733C3.61454 17.7202 3.12985 16.9974 3.02441 15.8651C2.91634 14.7046 3.20485 13.9088 3.69693 13.3584C4.20032 12.7954 4.97142 12.4281 5.93375 12.2448C7.76353 11.8963 10.1119 12.2477 12.0007 12.9277V17.0622ZM21.6377 8.01922C21.9032 8.09508 22.057 8.37183 21.9811 8.63734L21.9181 8.85749C21.7428 9.46958 21.5458 10.1574 21.3589 10.9056C23.0921 10.794 25.0036 10.5505 26.8631 10.0192C27.1286 9.94336 27.4053 10.0971 27.4812 10.3626C27.557 10.6281 27.4033 10.9049 27.1378 10.9807C25.0857 11.5671 22.9819 11.8161 21.1217 11.9219C20.8685 13.0959 20.6672 14.3859 20.6185 15.7429C21.9187 15.1189 23.3963 14.8272 24.9099 15.1084L24.9622 15.1184C25.0049 14.5966 25.0088 14.0682 24.9683 13.5381C24.9473 13.2627 25.1534 13.0225 25.4288 13.0014C25.7041 12.9804 25.9444 13.1866 25.9654 13.4619C26.0155 14.117 26.0041 14.7678 25.9402 15.4071C27.5626 16.0497 28.9729 17.4477 29.3815 19.1952C29.8919 21.3785 28.8026 23.8705 25.218 25.9333C24.9787 26.0711 24.673 25.9887 24.5353 25.7494C24.3975 25.51 24.4799 25.2043 24.7192 25.0666C28.0855 23.1294 28.7804 21.0169 28.4077 19.4229C28.1015 18.1131 27.0506 16.9996 25.7927 16.4297C25.362 18.7135 24.2948 20.7916 23.0278 22.3125C22.7816 22.6082 22.5257 22.8853 22.2632 23.1403C22.4598 23.5025 22.6769 23.8635 22.9164 24.2226C23.0695 24.4524 23.0074 24.7628 22.7777 24.916C22.5479 25.0692 22.2375 25.0071 22.0843 24.7773C21.8704 24.4564 21.673 24.1341 21.4913 23.811C21.0293 24.1661 20.5563 24.4485 20.0862 24.6416C19.0672 25.0601 17.9915 25.0786 17.136 24.3893C16.192 23.6288 15.8888 22.5395 16.0294 21.4221C16.168 20.3206 16.7347 19.1703 17.5562 18.1644C18.1174 17.4772 18.815 16.8376 19.6076 16.3159C19.6114 14.7596 19.8164 13.2873 20.0882 11.968C19.1252 12 18.2523 12 17.518 12H17.5004C17.2243 12 17.0004 11.7761 17.0004 11.5C17.0004 11.2238 17.2243 11 17.5004 11C18.3079 11 19.2655 10.9997 20.3143 10.959C20.523 10.0936 20.7472 9.31242 20.9403 8.63937L21.0196 8.36262C21.0954 8.09711 21.3722 7.94336 21.6377 8.01922ZM18.3307 18.7969C17.5921 19.7013 17.1305 20.681 17.0216 21.5469C16.9146 22.3968 17.1445 23.112 17.7634 23.6106C18.2402 23.9948 18.8947 24.0499 19.7063 23.7166C20.1294 23.5428 20.5756 23.269 21.0233 22.9065C20.1633 21.0905 19.7632 19.2633 19.6459 17.5159C19.1548 17.8969 18.711 18.3313 18.3307 18.7969ZM20.615 16.8712C20.6676 18.5935 20.9972 20.3982 21.7957 22.1922C21.952 22.0291 22.1069 21.8557 22.2595 21.6725C23.4576 20.2342 24.4555 18.2599 24.8338 16.1128C24.7983 16.1052 24.7628 16.0982 24.7272 16.0916C23.2916 15.8249 21.8564 16.1728 20.615 16.8712Z" fill="#212121"/>
</svg>
