<svg width="32" height="32" viewBox="0 0 32 32" fill="none" xmlns="http://www.w3.org/2000/svg">
<path d="M23.5 16C27.6421 16 31 12.6421 31 8.5C31 4.35786 27.6421 1 23.5 1C19.3579 1 16 4.35786 16 8.5C16 12.6421 19.3579 16 23.5 16ZM20.2197 5.21967C20.5126 4.92678 20.9874 4.92678 21.2803 5.21967C21.5732 5.51256 21.5732 5.98744 21.2803 6.28033L19.3107 8.25L21.2803 10.2197C21.5732 10.5126 21.5732 10.9874 21.2803 11.2803C20.9874 11.5732 20.5126 11.5732 20.2197 11.2803L17.7197 8.78033C17.4268 8.48744 17.4268 8.01256 17.7197 7.71967L20.2197 5.21967ZM25.2803 5.21967C25.5732 5.51256 25.5732 5.98744 25.2803 6.28033L24.0607 7.5H26.25C27.7688 7.5 29 8.73122 29 10.25V10.75C29 11.1642 28.6642 11.5 28.25 11.5C27.8358 11.5 27.5 11.1642 27.5 10.75V10.25C27.5 9.55964 26.9404 9 26.25 9H24.0607L25.2803 10.2197C25.5732 10.5126 25.5732 10.9874 25.2803 11.2803C24.9874 11.5732 24.5126 11.5732 24.2197 11.2803L21.7197 8.78033C21.4268 8.48744 21.4268 8.01256 21.7197 7.71967L24.2197 5.21967C24.5126 4.92678 24.9874 4.92678 25.2803 5.21967ZM6.50009 5H15.2059C15.069 5.32408 14.9505 5.65785 14.8518 6H6.50009C4.56709 6 3.00009 7.567 3.00009 9.5V10.2058L16.0001 17.428L18.5448 16.0143C18.8692 16.2286 19.2083 16.4225 19.5602 16.5941L16.2429 18.4371C16.0919 18.521 15.9083 18.521 15.7573 18.4371L3.00009 11.3498V22.5C3.00009 24.433 4.56709 26 6.50009 26H25.5001C27.4331 26 29.0001 24.433 29.0001 22.5V15.6244C29.3555 15.3496 29.6898 15.0488 30.0001 14.7249V22.5C30.0001 24.9853 27.9854 27 25.5001 27H6.50009C4.01481 27 2.00009 24.9853 2.00009 22.5V10.5091C1.99997 10.5027 1.99997 10.4964 2.00009 10.49V9.5C2.00009 7.01472 4.01481 5 6.50009 5Z" fill="#212121"/>
</svg>
