<svg width="20" height="20" viewBox="0 0 20 20" fill="none" xmlns="http://www.w3.org/2000/svg">
<path d="M6.66604 7.59007C5.88092 7.06392 5.77209 5.95145 6.44035 5.28307L9.28108 2.44186C9.93474 1.78809 11.0184 1.87562 11.5587 2.62584L12.0316 3.28248L7.29937 8.01449L6.66604 7.59007ZM8.14613 8.58194L12.6237 4.10461L13.9458 5.94054C13.9773 5.98423 14.0156 6.02255 14.0593 6.05402L15.8958 7.37706L14.268 9.00481C12.8337 9.06433 11.5412 9.67314 10.5955 10.6264L10.1605 9.9771C10.1242 9.9229 10.0776 9.87634 10.0235 9.84002L8.14613 8.58194ZM15.5808 9.10617C16.4456 9.27849 17.2373 9.65358 17.9041 10.1798C18.1292 9.57039 17.941 8.85048 17.3735 8.44163L16.7178 7.96926L15.5808 9.10617ZM9.30351 12.6936C9.45959 12.2446 9.67225 11.8219 9.93295 11.4343L9.38463 10.6158L8.18887 9.81451L2.41358 15.5896C1.86214 16.141 1.86214 17.035 2.41358 17.5864C2.96502 18.1378 3.85908 18.1378 4.41052 17.5864L9.30351 12.6936ZM10 14.5C10 16.9853 12.0147 19 14.5 19C16.9853 19 19 16.9853 19 14.5C19 12.0147 16.9853 10 14.5 10C12.0147 10 10 12.0147 10 14.5ZM11 14.5C11 12.567 12.567 11 14.5 11C15.2862 11 16.0118 11.2592 16.5961 11.6968L11.6968 16.5961C11.2592 16.0118 11 15.2862 11 14.5ZM14.5 18C13.7138 18 12.9882 17.7408 12.4039 17.3032L17.3032 12.4039C17.7408 12.9882 18 13.7138 18 14.5C18 16.433 16.433 18 14.5 18Z" fill="#212121"/>
</svg>
