<svg width="20" height="20" viewBox="0 0 20 20" fill="none" xmlns="http://www.w3.org/2000/svg">
<path d="M5.21073 7.78139C4.91725 7.48908 4.9163 7.01421 5.20861 6.72073C5.50092 6.42725 5.97579 6.4263 6.26927 6.71861L8.77927 9.21861C8.92039 9.35917 8.9998 9.55008 9 9.74925C9.0002 9.94842 8.92117 10.1395 8.78033 10.2803L6.28033 12.7803C5.98744 13.0732 5.51256 13.0732 5.21967 12.7803C4.92678 12.4874 4.92678 12.0126 5.21967 11.7197L6.43934 10.5H2.75C2.33579 10.5 2 10.1642 2 9.75C2 9.33579 2.33579 9 2.75 9H6.43422L5.21073 7.78139ZM14.7893 7.78139C15.0827 7.48908 15.0837 7.01421 14.7914 6.72073C14.4991 6.42725 14.0242 6.4263 13.7307 6.71861L11.2207 9.21861C11.0796 9.35917 11.0002 9.55008 11 9.74925C10.9998 9.94842 11.0788 10.1395 11.2197 10.2803L13.7197 12.7803C14.0126 13.0732 14.4874 13.0732 14.7803 12.7803C15.0732 12.4874 15.0732 12.0126 14.7803 11.7197L13.5607 10.5H17.25C17.6642 10.5 18 10.1642 18 9.75C18 9.33579 17.6642 9 17.25 9H13.5658L14.7893 7.78139Z" fill="#212121"/>
</svg>
