<svg width="20" height="20" viewBox="0 0 20 20" fill="none" xmlns="http://www.w3.org/2000/svg">
<path d="M10 18C14.4183 18 18 14.4183 18 10C18 5.58167 14.4183 2 10 2C5.58173 2 2 5.58167 2 10C2 10.0849 2.00132 10.1696 2.00395 10.2539C2.59623 9.76568 3.29241 9.39899 4.05434 9.19197C4.22414 7.93574 4.79181 6.72299 5.75735 5.75745C7.49478 4.02002 10.0318 3.57153 12.1815 4.40918C12.4388 4.5094 12.5661 4.79932 12.4659 5.05664C12.3656 5.31384 12.0758 5.44116 11.8185 5.34094C10.0251 4.64221 7.91132 5.0177 6.46448 6.46448C5.74013 7.18882 5.28449 8.08012 5.09755 9.0145C5.23044 9.00489 5.36465 9 5.5 9C6.6808 9 7.77469 9.3721 8.6708 10.0054C8.7304 9.83501 8.822 9.67254 8.94629 9.52698C9.01831 9.44275 9.14935 9.32263 9.28925 9.19922C9.4397 9.06653 9.63205 8.90271 9.84967 8.72046C10.2854 8.35571 10.831 7.91028 11.3635 7.47937C11.8964 7.04822 12.4179 6.63037 12.8061 6.32031L13.0805 6.10144L13.4498 5.80762C13.6371 5.65906 13.9034 5.66394 14.0852 5.81921C14.267 5.97449 14.3134 6.23669 14.196 6.44495L14.0852 6.64111C14.0146 6.76599 13.9132 6.94495 13.7905 7.16101C13.6763 7.36206 13.5435 7.59521 13.3997 7.84692L13.1693 8.24939L12.8716 8.76721C12.7316 9.01013 12.5894 9.25549 12.4504 9.49414C12.2497 9.8385 12.0553 10.1687 11.8828 10.4567C11.7369 10.7002 11.6052 10.9158 11.4977 11.0852C11.4616 11.1421 11.4258 11.1978 11.3913 11.2496C11.3657 11.2882 11.3409 11.3246 11.3173 11.3579C11.2846 11.4039 11.2544 11.444 11.2277 11.4752C11.0013 11.7403 10.7025 11.9071 10.3855 11.9712C10.7781 12.7283 11 13.5882 11 14.5C11 15.8278 10.5295 17.0457 9.7461 17.996C9.83041 17.9987 9.91505 18 10 18ZM15.5909 7.81848C16.4285 9.96826 15.98 12.5052 14.2426 14.2427C14.0474 14.438 13.7308 14.438 13.5355 14.2427C13.3403 14.0474 13.3403 13.7308 13.5355 13.5355C14.9824 12.0887 15.3578 9.97498 14.6591 8.18164C14.5588 7.92432 14.6862 7.6344 14.9435 7.53418C15.2007 7.43396 15.4906 7.56128 15.5909 7.81848ZM8.00007 18.2416C7.26004 18.7361 6.39002 19 5.5 19C4.30653 19 3.16193 18.5259 2.31802 17.682C1.47411 16.8381 1 15.6935 1 14.5C1 13.61 1.26392 12.74 1.75839 11.9999C2.25285 11.2599 2.95566 10.6831 3.77792 10.3425C4.60019 10.0019 5.50499 9.91283 6.37791 10.0865C7.25082 10.2601 8.05264 10.6887 8.68198 11.318C9.31132 11.9474 9.7399 12.7492 9.91353 13.6221C10.0872 14.495 9.99805 15.3998 9.65746 16.2221C9.31686 17.0443 8.74009 17.7471 8.00007 18.2416ZM5.85355 12.1464C5.75979 12.0527 5.63261 12 5.5 12C5.36739 12 5.24021 12.0527 5.14645 12.1464C5.05268 12.2402 5 12.3674 5 12.5V14H3.5C3.36739 14 3.24021 14.0527 3.14645 14.1464C3.05268 14.2402 3 14.3674 3 14.5C3 14.6326 3.05268 14.7598 3.14645 14.8536C3.24021 14.9473 3.36739 15 3.5 15H5V16.5C5 16.6326 5.05268 16.7598 5.14645 16.8536C5.24021 16.9473 5.36739 17 5.5 17C5.63261 17 5.75979 16.9473 5.85355 16.8536C5.94732 16.7598 6 16.6326 6 16.5V15H7.5C7.63261 15 7.75979 14.9473 7.85355 14.8536C7.94732 14.7598 8 14.6326 8 14.5C8 14.3674 7.94732 14.2402 7.85355 14.1464C7.75979 14.0527 7.63261 14 7.5 14H6V12.5C6 12.3674 5.94732 12.2402 5.85355 12.1464Z" fill="#212121"/>
</svg>
