<svg width="32" height="32" viewBox="0 0 32 32" fill="none" xmlns="http://www.w3.org/2000/svg">
<path d="M3.38368 7.13015C6.35647 2.95944 12.5512 2.95495 15.53 7.12134L15.9945 7.77097L16.4118 7.17854C19.3667 2.9833 25.5722 2.94189 28.5829 7.09733C30.6802 9.99219 30.4357 13.9665 27.9994 16.5825L16.7324 28.6804C16.5431 28.8837 16.2777 28.9991 15.9999 28.9989C15.7221 28.9987 15.4569 28.883 15.2679 28.6794L3.9925 16.5392C1.58271 13.9446 1.32836 10.0137 3.38368 7.13015ZM13.9031 8.28455C11.7227 5.23487 7.1883 5.23816 5.0123 8.291C3.50787 10.4017 3.69405 13.279 5.45794 15.1782L16.0016 26.5305L26.5358 15.2194C28.3206 13.303 28.4997 10.3915 26.9633 8.27073C24.7577 5.22652 20.2116 5.25685 18.0469 8.33023L16.8182 10.0747C16.6316 10.3397 16.3282 10.4977 16.0041 10.4989C15.6801 10.5 15.3756 10.3441 15.1871 10.0805L13.9031 8.28455Z" fill="#212121"/>
</svg>
