<svg width="20" height="20" viewBox="0 0 20 20" fill="none" xmlns="http://www.w3.org/2000/svg">
<path d="M17 7V11.5669C16.2781 11.2201 15.4381 11 14.5 11C12.8252 11 11.4648 11.7046 10.5313 12.5756C10.0655 13.0101 9.69355 13.4969 9.43341 13.9814C9.18097 14.4515 9 14.9835 9 15.5C9 15.9842 9.15584 16.5013 9.41986 17H5.5C4.11929 17 3 15.8807 3 14.5V7H17ZM14.5 3C15.8807 3 17 4.11929 17 5.5V6H3V5.5C3 4.11929 4.11929 3 5.5 3H14.5ZM14.5 12C11.736 12 10 14.318 10 15.5C10 16.7 11.739 19 14.5 19C17.261 19 19 16.682 19 15.5C19 14.3 17.261 12 14.5 12ZM14.5 18C14.0055 18 13.5222 17.8534 13.1111 17.5787C12.7 17.304 12.3795 16.9135 12.1903 16.4567C12.0011 15.9999 11.9516 15.4972 12.048 15.0123C12.1445 14.5273 12.3826 14.0819 12.7322 13.7322C13.0819 13.3826 13.5273 13.1445 14.0123 13.048C14.4972 12.9516 14.9999 13.0011 15.4567 13.1903C15.9135 13.3795 16.304 13.7 16.5787 14.1111C16.8534 14.5222 17 15.0055 17 15.5C17 16.163 16.7366 16.7989 16.2678 17.2678C15.7989 17.7366 15.163 18 14.5 18ZM16 15.5C16 15.7967 15.912 16.0867 15.7472 16.3334C15.5824 16.58 15.3481 16.7723 15.074 16.8858C14.7999 16.9993 14.4983 17.0291 14.2074 16.9712C13.9164 16.9133 13.6491 16.7704 13.4393 16.5607C13.2296 16.3509 13.0867 16.0836 13.0288 15.7926C12.9709 15.5017 13.0006 15.2001 13.1142 14.926C13.2277 14.6519 13.42 14.4176 13.6666 14.2528C13.9133 14.088 14.2033 14 14.5 14C14.8978 14 15.2794 14.158 15.5607 14.4393C15.842 14.7206 16 15.1022 16 15.5Z" fill="#242424"/>
</svg>
