<svg width="24" height="24" viewBox="0 0 24 24" fill="none" xmlns="http://www.w3.org/2000/svg">
<path d="M8 5.5C6.61929 5.5 5.5 6.61929 5.5 8C5.5 9.38071 6.61929 10.5 8 10.5C9.38071 10.5 10.5 9.38071 10.5 8C10.5 6.61929 9.38071 5.5 8 5.5ZM4 8C4 5.79086 5.79086 4 8 4C10.2091 4 12 5.79086 12 8C12 10.2091 10.2091 12 8 12C5.79086 12 4 10.2091 4 8ZM17 7.5C16.1716 7.5 15.5 8.17157 15.5 9C15.5 9.82843 16.1716 10.5 17 10.5C17.8284 10.5 18.5 9.82843 18.5 9C18.5 8.17157 17.8284 7.5 17 7.5ZM14 9C14 7.34315 15.3431 6 17 6C18.6569 6 20 7.34315 20 9C20 10.6569 18.6569 12 17 12C15.3431 12 14 10.6569 14 9ZM2 16.25C2 15.0074 3.00736 14 4.25 14H11.75C12.9926 14 14 15.0074 14 16.25L14 16.356L12.4912 17.8648C12.0189 18.3371 11.6839 18.9288 11.5219 19.5768L11.3272 20.3556C10.4852 20.7498 9.39723 21 8 21C5.17178 21 3.61066 19.9749 2.79183 18.8051C2.39654 18.2404 2.19995 17.6776 2.10165 17.2564C2.05233 17.045 2.02701 16.8661 2.01398 16.7358C2.00745 16.6705 2.00396 16.6169 2.0021 16.5771C2.00117 16.5571 2.00064 16.5406 2.00035 16.5277L2.00007 16.5111L2.00001 16.5048L2 16.5022L2 16.5011V16.25ZM3.5 16.4947L3.50047 16.5072C3.50117 16.5222 3.50281 16.5493 3.50653 16.5865C3.514 16.6612 3.5297 16.7753 3.56241 16.9155C3.62818 17.1974 3.75971 17.5721 4.02067 17.9449C4.51434 18.6501 5.57822 19.5 8 19.5C10.4218 19.5 11.4857 18.6501 11.9793 17.9449C12.2403 17.5721 12.3718 17.1974 12.4376 16.9155C12.4703 16.7753 12.486 16.6612 12.4935 16.5865C12.4972 16.5493 12.4988 16.5222 12.4995 16.5072L12.5 16.4946V16.25C12.5 15.8358 12.1642 15.5 11.75 15.5H4.25C3.83579 15.5 3.5 15.8358 3.5 16.25V16.4947ZM19.0999 12.6695L13.1974 18.5719C12.8533 18.916 12.6092 19.3472 12.4911 19.8194L12.0334 21.6501C11.8344 22.4462 12.5556 23.1674 13.3517 22.9683L15.1824 22.5106C15.6545 22.3926 16.0857 22.1485 16.4299 21.8043L22.3323 15.9019C23.2249 15.0093 23.2249 13.5621 22.3323 12.6695C21.4397 11.7768 19.9925 11.7768 19.0999 12.6695Z" fill="#212121"/>
</svg>
