<svg width="48" height="48" viewBox="0 0 48 48" fill="none" xmlns="http://www.w3.org/2000/svg">
<path d="M28 29.7678L41.8661 43.6339C42.3543 44.122 43.1457 44.122 43.6339 43.6339C44.122 43.1457 44.122 42.3543 43.6339 41.8661L6.13388 4.36612C5.64573 3.87796 4.85427 3.87796 4.36611 4.36612C3.87796 4.85427 3.87796 5.64573 4.36611 6.13388L13.2322 15H9C6.10051 15 3.75 17.3505 3.75 20.25V27.75C3.75 30.6495 6.10051 33 9 33H13.702C14.8734 33 16.0034 33.4328 16.875 34.2153L25.081 41.5815C26.2077 42.5929 28 41.7933 28 40.2793V29.7678ZM28 22.6966L18.0412 12.7379L25.081 6.41847C26.2076 5.40709 28 6.20669 28 7.72074V22.6966ZM36.1858 30.8824L34.3351 29.0317C34.9661 27.7376 35.5001 26.0404 35.5001 24C35.5001 21.5224 34.7127 19.5507 33.9203 18.1923C33.5242 17.5133 33.1299 16.9931 32.8398 16.6477C32.695 16.4754 32.5771 16.3476 32.4991 16.2664C32.4601 16.2259 32.4312 16.197 32.414 16.1802L32.3973 16.164L32.3981 16.1647C31.8929 15.6949 31.8645 14.9051 32.3341 14.3994C32.8038 13.8935 33.5947 13.8643 34.1006 14.334C34.2686 14.5 34.1014 14.3347 34.1014 14.3347L34.1023 14.3356L34.1043 14.3374L34.1092 14.3421L34.1229 14.355C34.1336 14.3653 34.1477 14.3788 34.1647 14.3955C34.1988 14.4289 34.2451 14.4753 34.3018 14.5344C34.4152 14.6524 34.5707 14.8215 34.7541 15.0398C35.1202 15.4757 35.6009 16.1117 36.0798 16.9327C37.0374 18.5743 38.0001 20.9776 38.0001 24C38.0001 26.9108 37.1072 29.2474 36.1858 30.8824ZM41.0084 35.705L39.1633 33.86C40.3707 31.5238 41.51 28.2071 41.51 24C41.51 19.4997 40.2064 16.0181 38.9102 13.6657C38.2615 12.4885 37.6154 11.5956 37.1379 11.0034C36.8993 10.7075 36.7034 10.4874 36.5711 10.3451C36.5051 10.274 36.455 10.2224 36.4235 10.1906C36.4078 10.1747 36.3967 10.1638 36.3906 10.1578L36.3854 10.1527C35.8879 9.67627 35.8695 8.88674 36.345 8.38772C36.8212 7.88791 37.6125 7.8688 38.1123 8.34502C38.558 8.81379 38.1131 8.34584 38.1131 8.34584L38.1141 8.34678L38.1165 8.34904L38.1227 8.35502L38.141 8.37286C38.1558 8.38735 38.1757 8.40705 38.2003 8.43192C38.2495 8.48167 38.3178 8.55216 38.4024 8.64316C38.5715 8.82512 38.806 9.08939 39.084 9.43412C39.6396 10.1231 40.371 11.1365 41.0998 12.4593C42.5586 15.1069 44.01 19.0003 44.01 24C44.01 28.9997 42.5586 32.8931 41.0998 35.5407C41.0693 35.596 41.0389 35.6508 41.0084 35.705Z" fill="#212121"/>
</svg>
