<?xml version="1.0" encoding="UTF-8"?>
<svg width="24px" height="24px" viewBox="0 0 24 24" version="1.1" xmlns="http://www.w3.org/2000/svg" xmlns:xlink="http://www.w3.org/1999/xlink">
    <!-- Generator: Sketch 59.1 (86144) - https://sketch.com -->
    <title>ic_fluent_drive_mode_24_light</title>
    <desc>Created with Sketch.</desc>
    <g id="ðŸ”-Product-Icons" stroke="none" stroke-width="1" fill="none" fill-rule="evenodd">
        <g id="ic_fluent_drive_mode_24_light" fill="#212121" fill-rule="nonzero">
            <path d="M16.1336413,3 C17.108735,3 17.9656508,3.62676348 18.2688018,4.54019456 L18.3164619,4.70429484 L18.89,7 L20.5,7 C20.7761424,7 21,7.22385763 21,7.5 C21,7.74545989 20.8231248,7.94960837 20.5898756,7.99194433 L20.5,8 L19.14,8 L19.4165822,9.10037988 C20.2867827,9.36992199 20.9310726,10.1533266 20.9948092,11.0959512 L21,11.25 L21,19.25 C21,20.1681734 20.2928897,20.9211923 19.3935272,20.9941988 L19.25,21 L17.75,21 C16.8318266,21 16.0788077,20.2928897 16.0058012,19.3935272 L16,19.25 L16,18 L8,18 L8,19.25 C8,20.1681734 7.29288973,20.9211923 6.39352721,20.9941988 L6.25,21 L4.75,21 C3.8318266,21 3.07880766,20.2928897 3.0058012,19.3935272 L3,19.25 L3,11.25 C3,10.2394364 3.66622443,9.38447788 4.58341782,9.10037988 L4.859,8 L3.5,8 C3.22385763,8 3,7.77614237 3,7.5 C3,7.25454011 3.17687516,7.05039163 3.41012437,7.00805567 L3.5,7 L5.109,7 L5.68353809,4.70429484 C5.92003306,3.75831497 6.73591554,3.07899705 7.69559877,3.00643697 L7.86635871,3 L16.1336413,3 Z M7,18 L4,18 L4,19.25 C4,19.6296958 4.28215388,19.943491 4.64822944,19.9931534 L4.75,20 L6.25,20 C6.62969577,20 6.94349096,19.7178461 6.99315338,19.3517706 L7,19.25 L7,18 Z M20,18 L17,18 L17,19.25 C17,19.6296958 17.2821539,19.943491 17.6482294,19.9931534 L17.75,20 L19.25,20 C19.6296958,20 19.943491,19.7178461 19.9931534,19.3517706 L20,19.25 L20,18 Z M18.75,10 L5.25,10 C4.60279131,10 4.0704661,10.4918747 4.00645361,11.1221948 L4,11.25 L4,17 L20,17 L20,11.25 C20,10.6459386 19.5715225,10.1419534 19.0019186,10.0253956 L18.8778052,10.0064536 L18.75,10 Z M14,14 C14.2761424,14 14.5,14.2238576 14.5,14.5 C14.5,14.7454599 14.3231248,14.9496084 14.0898756,14.9919443 L14,15 L10,15 C9.72385763,15 9.5,14.7761424 9.5,14.5 C9.5,14.2545401 9.67687516,14.0503916 9.91012437,14.0080557 L10,14 L14,14 Z M17,12 C17.5522847,12 18,12.4477153 18,13 C18,13.5522847 17.5522847,14 17,14 C16.4477153,14 16,13.5522847 16,13 C16,12.4477153 16.4477153,12 17,12 Z M7,12 C7.55228475,12 8,12.4477153 8,13 C8,13.5522847 7.55228475,14 7,14 C6.44771525,14 6,13.5522847 6,13 C6,12.4477153 6.44771525,12 7,12 Z M16.1336413,4 L7.86635871,4 C7.33689605,4 6.87015064,4.33262442 6.6920591,4.82146729 L6.65368059,4.94683047 L5.64,9 L18.359,9 L17.3463194,4.94683047 C17.2179059,4.43317624 16.7820104,4.06103995 16.2645696,4.00682759 L16.1336413,4 Z" id="ðŸŽ¨-Color"></path>
        </g>
    </g>
</svg>