<svg width="20" height="20" viewBox="0 0 20 20" fill="none" xmlns="http://www.w3.org/2000/svg">
<path d="M3.99988 4.70698L2.14645 2.85355C1.95118 2.65829 1.95118 2.34171 2.14645 2.14645C2.34171 1.95118 2.65829 1.95118 2.85355 2.14645L17.8536 17.1464C18.0488 17.3417 18.0488 17.6583 17.8536 17.8536C17.6583 18.0488 17.3417 18.0488 17.1464 17.8536L15.9999 16.707V17.5C15.9999 17.6881 15.8944 17.8602 15.7268 17.9456C15.5592 18.0309 15.3579 18.015 15.2058 17.9044L9.99988 14.1182L4.79396 17.9044C4.64187 18.015 4.44057 18.0309 4.27299 17.9456C4.1054 17.8602 3.99988 17.6881 3.99988 17.5V4.70698ZM14.9999 15.707L4.99988 5.70698V16.5181L9.7058 13.0956C9.88112 12.9681 10.1186 12.9681 10.294 13.0956L14.9999 16.5181V15.707ZM14.9999 4.5V12.8785L15.9999 13.8785V4.5C15.9999 3.11929 14.8806 2 13.4999 2H6.49988C5.84042 2 5.24059 2.25534 4.79388 2.67254L5.50168 3.38034C5.76684 3.14378 6.11657 3 6.49988 3H13.4999C14.3283 3 14.9999 3.67157 14.9999 4.5Z" fill="#212121"/>
</svg>
