<svg width="20" height="20" viewBox="0 0 20 20" fill="none" xmlns="http://www.w3.org/2000/svg">
<path d="M6 4C4.89543 4 4 4.89543 4 6V7C4 8.10457 4.89543 9 6 9H14C15.1046 9 16 8.10457 16 7V6C16 4.89543 15.1046 4 14 4H6ZM5 6C5 5.44772 5.44772 5 6 5H14C14.5523 5 15 5.44772 15 6V7C15 7.55228 14.5523 8 14 8H6C5.44772 8 5 7.55228 5 7V6Z" fill="#212121"/>
<path d="M6 11C4.89543 11 4 11.8954 4 13V14C4 15.1046 4.89543 16 6 16H14C15.1046 16 16 15.1046 16 14V13C16 11.8954 15.1046 11 14 11H6ZM5 13C5 12.4477 5.44772 12 6 12H14C14.5523 12 15 12.4477 15 13V14C15 14.5523 14.5523 15 14 15H6C5.44772 15 5 14.5523 5 14V13Z" fill="#212121"/>
</svg>
