<svg width="16" height="16" viewBox="0 0 16 16" fill="none" xmlns="http://www.w3.org/2000/svg">
<path d="M6 1.00195C4.89543 1.00195 4 1.89738 4 3.00195V5.20703C4.32228 5.11588 4.65659 5.05337 5 5.02242V3.00195C5 2.44967 5.44771 2.00195 6 2.00195H8.99951V4.5029C8.99951 5.33133 9.67108 6.0029 10.4995 6.0029H13V12.998C13 13.5503 12.5523 13.998 12 13.998H9.74446C9.43145 14.3774 9.06858 14.7141 8.66586 14.998H12C13.1046 14.998 14 14.1026 14 12.998V5.41892C14 5.021 13.8419 4.63938 13.5605 4.35806L10.6424 1.4411C10.3611 1.15991 9.97969 1.00195 9.58196 1.00195H6ZM9.99951 4.5029V2.21237L12.7911 5.0029H10.4995C10.2234 5.0029 9.99951 4.77904 9.99951 4.5029ZM10 10.5C10 8.01472 7.98528 6 5.5 6C3.01472 6 1 8.01472 1 10.5C1 12.9853 3.01472 15 5.5 15C7.98528 15 10 12.9853 10 10.5ZM5.49993 12.3804C5.84484 12.3804 6.12444 12.66 6.12444 13.0049C6.12444 13.3498 5.84484 13.6294 5.49993 13.6294C5.15502 13.6294 4.87542 13.3498 4.87542 13.0049C4.87542 12.66 5.15502 12.3804 5.49993 12.3804ZM5.49997 7.50345C6.53102 7.50345 7.35337 8.34924 7.35337 9.45294C7.35337 10.0387 7.13905 10.3607 6.62574 10.7715L6.34869 10.9858C6.10295 11.1804 6.02024 11.2863 6.0034 11.4341L5.99187 11.5902C5.94952 11.8234 5.74537 12.0003 5.49991 12.0003C5.22376 12.0003 4.99992 11.7764 4.99993 11.5003C4.99995 10.9294 5.20993 10.6161 5.7157 10.2118L5.99369 9.9968C6.28218 9.7679 6.35337 9.65474 6.35337 9.45294C6.35337 8.89534 5.97235 8.50345 5.49997 8.50345C5.0062 8.50345 4.64099 8.86913 4.64655 9.44814C4.6492 9.72427 4.4275 9.95026 4.15137 9.95292C3.87524 9.95557 3.64924 9.73387 3.64659 9.45774C3.63568 8.32084 4.45202 7.50345 5.49997 7.50345Z" fill="#212121"/>
</svg>
