<svg width="24" height="24" viewBox="0 0 24 24" fill="none" xmlns="http://www.w3.org/2000/svg">
<path d="M19.9948 4.09595C19.9156 2.92516 18.9409 2 17.75 2H6.25L6.09595 2.00519C4.92516 2.08436 4 3.05914 4 4.25V19.7546L4.00519 19.9086C4.08436 21.0794 5.05914 22.0046 6.25 22.0046H17.75L17.904 21.9994C19.0748 21.9202 20 20.9455 20 19.7546V4.25L19.9948 4.09595ZM10 5.75C10 5.33579 10.3358 5 10.75 5H13.25C13.6642 5 14 5.33579 14 5.75C14 6.16421 13.6642 6.5 13.25 6.5H10.75C10.3358 6.5 10 6.16421 10 5.75ZM14.75 14.9956C15.4404 14.9956 16 15.5552 16 16.2456V16.7449C16 18.5914 14.5279 19.4992 12 19.4992C9.47204 19.4992 8 18.5905 8 16.7429V16.2456C8 15.5552 8.55964 14.9956 9.25 14.9956H14.75ZM12 8.99561C13.3807 8.99561 14.5 10.1149 14.5 11.4956C14.5 12.8763 13.3807 13.9956 12 13.9956C10.6193 13.9956 9.5 12.8763 9.5 11.4956C9.5 10.1149 10.6193 8.99561 12 8.99561Z" fill="#212121"/>
</svg>
