<svg width="16" height="16" viewBox="0 0 16 16" fill="none" xmlns="http://www.w3.org/2000/svg">
<path fill-rule="evenodd" clip-rule="evenodd" d="M13 2.5C13 1.67157 12.3284 1 11.5 1H4.5C3.67157 1 3 1.67157 3 2.5V13.5C3 14.3284 3.67157 15 4.5 15H11.5C12.3284 15 13 14.3284 13 13.5V2.5ZM7 3C6.72386 3 6.5 3.22386 6.5 3.5C6.5 3.77614 6.72386 4 7 4H9C9.27614 4 9.5 3.77614 9.5 3.5C9.5 3.22386 9.27614 3 9 3H7Z" fill="url(#paint0_linear_72095_9385)"/>
<path fill-rule="evenodd" clip-rule="evenodd" d="M13 2.5C13 1.67157 12.3284 1 11.5 1H4.5C3.67157 1 3 1.67157 3 2.5V13.5C3 14.3284 3.67157 15 4.5 15H11.5C12.3284 15 13 14.3284 13 13.5V2.5ZM7 3C6.72386 3 6.5 3.22386 6.5 3.5C6.5 3.77614 6.72386 4 7 4H9C9.27614 4 9.5 3.77614 9.5 3.5C9.5 3.22386 9.27614 3 9 3H7Z" fill="url(#paint1_linear_72095_9385)" fill-opacity="0.7"/>
<path d="M5.69514 10C5.36392 10 5.00439 10.2376 4.97425 10.6569C4.95164 10.9715 4.97953 11.5787 5.43406 12.1095C5.89636 12.6495 6.70392 13 7.99994 13C9.29596 13 10.1035 12.6495 10.5658 12.1095C11.0203 11.5787 11.0482 10.9715 11.0256 10.6569C10.9955 10.2376 10.636 10 10.3047 10H5.69514Z" fill="url(#paint2_linear_72095_9385)" fill-opacity="0.9"/>
<path d="M6 7C6 5.89543 6.89543 5 8 5C9.10457 5 10 5.89543 10 7C10 8.10457 9.10457 9 8 9C6.89543 9 6 8.10457 6 7Z" fill="url(#paint3_linear_72095_9385)" fill-opacity="0.9"/>
<defs>
<linearGradient id="paint0_linear_72095_9385" x1="-0.333333" y1="-2.06138" x2="13.5771" y2="9.54259" gradientUnits="userSpaceOnUse">
<stop stop-color="#36DFF1"/>
<stop offset="1" stop-color="#2764E7"/>
</linearGradient>
<linearGradient id="paint1_linear_72095_9385" x1="9.54762" y1="2.7193" x2="14.138" y2="16.6979" gradientUnits="userSpaceOnUse">
<stop offset="0.618682" stop-color="#FF6CE8" stop-opacity="0"/>
<stop offset="1" stop-color="#FF6CE8"/>
</linearGradient>
<linearGradient id="paint2_linear_72095_9385" x1="12.5494" y1="15.5714" x2="9.70264" y2="5.02132" gradientUnits="userSpaceOnUse">
<stop stop-color="#9DEAFF"/>
<stop offset="1" stop-color="white"/>
</linearGradient>
<linearGradient id="paint3_linear_72095_9385" x1="11.0018" y1="12.4286" x2="4.65888" y2="0.796207" gradientUnits="userSpaceOnUse">
<stop stop-color="#9DEAFF"/>
<stop offset="1" stop-color="white"/>
</linearGradient>
</defs>
</svg>
