<svg width="16" height="16" viewBox="0 0 16 16" fill="none" xmlns="http://www.w3.org/2000/svg">
<path d="M8 5C6.89543 5 6 5.89543 6 7C6 8.10457 6.89543 9 8 9C9.10457 9 10 8.10457 10 7C10 5.89543 9.10457 5 8 5ZM7 7C7 6.44772 7.44772 6 8 6C8.55228 6 9 6.44772 9 7C9 7.55228 8.55228 8 8 8C7.44772 8 7 7.55228 7 7ZM4.97432 10.6569C5.00445 10.2376 5.36398 10 5.6952 10H10.3048C10.636 10 10.9956 10.2376 11.0257 10.6569C11.0483 10.9715 11.0204 11.5787 10.5659 12.1095C10.1036 12.6495 9.29602 13 8 13C6.70398 13 5.89642 12.6495 5.43412 12.1095C4.97959 11.5787 4.9517 10.9715 4.97432 10.6569ZM5.98385 11C6.00856 11.1482 6.06795 11.3123 6.19371 11.4591C6.39784 11.6975 6.87178 12 8 12C9.12822 12 9.60217 11.6975 9.8063 11.4591C9.93205 11.3123 9.99145 11.1482 10.0162 11H5.98385ZM7 3C6.72386 3 6.5 3.22386 6.5 3.5C6.5 3.77614 6.72386 4 7 4H9C9.27614 4 9.5 3.77614 9.5 3.5C9.5 3.22386 9.27614 3 9 3H7ZM13 2.5C13 1.67157 12.3284 1 11.5 1H4.5C3.67157 1 3 1.67157 3 2.5V13.5C3 14.3284 3.67157 15 4.5 15H11.5C12.3284 15 13 14.3284 13 13.5V2.5ZM4.5 2H11.5C11.7761 2 12 2.22386 12 2.5V13.5C12 13.7761 11.7761 14 11.5 14H4.5C4.22386 14 4 13.7761 4 13.5V2.5C4 2.22386 4.22386 2 4.5 2Z" fill="#212121"/>
</svg>
