<svg width="28" height="28" viewBox="0 0 28 28" fill="none" xmlns="http://www.w3.org/2000/svg">
<path d="M6.75 2C5.23122 2 4 3.23122 4 4.75V23.2497C4 24.7684 5.23122 25.9997 6.75 25.9997H21.25C22.7688 25.9997 24 24.7684 24 23.2497V4.75C24 3.23122 22.7688 2 21.25 2H6.75ZM5.5 4.75C5.5 4.05965 6.05965 3.5 6.75 3.5H21.25C21.9404 3.5 22.5 4.05964 22.5 4.75V23.2497C22.5 23.94 21.9404 24.4997 21.25 24.4997H6.75C6.05964 24.4997 5.5 23.94 5.5 23.2497V4.75ZM11.25 5C10.8358 5 10.5 5.33579 10.5 5.75C10.5 6.16421 10.8358 6.5 11.25 6.5H16.75C17.1642 6.5 17.5 6.16421 17.5 5.75C17.5 5.33579 17.1642 5 16.75 5H11.25ZM8 18.5C8 17.1193 9.11929 16 10.5 16H17.5C18.8807 16 20 17.1193 20 18.5C20 19.875 19.3768 21.0346 18.2836 21.8262C17.2122 22.602 15.7299 23 14 23C12.2701 23 10.7878 22.602 9.71637 21.8262C8.62319 21.0346 8 19.875 8 18.5ZM10.5 17.5C9.94772 17.5 9.5 17.9477 9.5 18.5C9.5 19.375 9.87681 20.0904 10.5961 20.6113C11.3372 21.148 12.4799 21.5 14 21.5C15.5201 21.5 16.6628 21.148 17.4039 20.6113C18.1232 20.0904 18.5 19.375 18.5 18.5C18.5 17.9477 18.0523 17.5 17.5 17.5H10.5ZM12 11.5C12 10.3954 12.8954 9.5 14 9.5C15.1046 9.5 16 10.3954 16 11.5C16 12.6046 15.1046 13.5 14 13.5C12.8954 13.5 12 12.6046 12 11.5ZM14 8C12.067 8 10.5 9.567 10.5 11.5C10.5 13.433 12.067 15 14 15C15.933 15 17.5 13.433 17.5 11.5C17.5 9.567 15.933 8 14 8Z" fill="#212121"/>
</svg>
