<svg width="20" height="20" viewBox="0 0 20 20" fill="none" xmlns="http://www.w3.org/2000/svg">
<path d="M7.87626 1.87832C9.04775 0.70718 10.9479 0.707193 12.1194 1.87832L18.1175 7.87638C19.2886 9.04787 19.2886 10.9481 18.1175 12.1196L12.1194 18.1176C10.948 19.2889 9.04782 19.2888 7.87626 18.1176L1.8782 12.1196C0.707009 10.948 0.706876 9.04785 1.8782 7.87638L7.87626 1.87832ZM11.4124 2.58535C10.6314 1.80475 9.36426 1.80474 8.58329 2.58535L2.58523 8.58341C1.80444 9.36436 1.80457 10.6315 2.58523 11.4125L8.58329 17.4106C9.36432 18.1913 10.6314 18.1914 11.4124 17.4106L17.4105 11.4125C18.1911 10.6316 18.1911 9.36438 17.4105 8.58341L11.4124 2.58535Z" fill="#212121"/>
</svg>
