<svg width="20" height="20" viewBox="0 0 20 20" fill="none" xmlns="http://www.w3.org/2000/svg">
<path d="M8.50017 15C8.77631 15 9.00017 15.2239 9.00017 15.5C9.00017 15.7761 8.77631 16 8.50017 16C8.22402 16 8.00017 15.7761 8.00017 15.5C8.00017 15.2239 8.22402 15 8.50017 15ZM11.5002 15C11.7763 15 12.0002 15.2239 12.0002 15.5C12.0002 15.7761 11.7763 16 11.5002 16C11.224 16 11.0002 15.7761 11.0002 15.5C11.0002 15.2239 11.224 15 11.5002 15ZM7.00017 14C7.27631 14 7.50017 14.2239 7.50017 14.5C7.50017 14.7761 7.27631 15 7.00017 15C6.72402 15 6.50017 14.7761 6.50017 14.5C6.50017 14.2239 6.72402 14 7.00017 14ZM10.0002 14C10.2763 14 10.5002 14.2239 10.5002 14.5C10.5002 14.7761 10.2763 15 10.0002 15C9.72402 15 9.50017 14.7761 9.50017 14.5C9.50017 14.2239 9.72402 14 10.0002 14ZM13.0002 14C13.2763 14 13.5002 14.2239 13.5002 14.5C13.5002 14.7761 13.2763 15 13.0002 15C12.724 15 12.5002 14.7761 12.5002 14.5C12.5002 14.2239 12.724 14 13.0002 14ZM10 4C12.4646 4 13.8627 5.5736 14.066 7.47399L14.1282 7.47399C15.7143 7.47399 17 8.71103 17 10.237C17 11.763 15.7143 13 14.1282 13H5.87179C4.28575 13 3 11.763 3 10.237C3 8.76755 4.19227 7.56602 5.69687 7.47903L5.93399 7.47399C6.13851 5.56111 7.53544 4 10 4ZM10 5C8.35056 5 6.9129 6.2703 6.9129 8.02495C6.9129 8.30297 6.65891 8.52113 6.36808 8.52112L5.81818 8.5211C4.81403 8.5211 4 9.29988 4 10.2606C4 11.2212 4.81403 12 5.81818 12H14.1818C15.186 12 16 11.2212 16 10.2606C16 9.29988 15.186 8.5211 14.1818 8.5211L13.6319 8.52112C13.3411 8.52113 13.0871 8.30297 13.0871 8.02495C13.0871 6.24779 11.6494 5 10 5Z" fill="#212121"/>
</svg>
