<svg width="32" height="32" viewBox="0 0 32 32" fill="none" xmlns="http://www.w3.org/2000/svg">
<path d="M7.5 3C5.01472 3 3 5.01472 3 7.5V24.5C3 26.9853 5.01472 29 7.5 29H16.967C16.8225 28.8429 16.6836 28.682 16.5506 28.5172C16.1627 28.0367 15.8302 27.5304 15.5527 27H7.5C6.11929 27 5 25.8807 5 24.5V11H27V15.8176C27.6501 16.0583 28.3165 16.2473 29 16.3854V7.5C29 5.01472 26.9853 3 24.5 3H7.5ZM29 17.9126C29.1891 17.9469 29.3793 17.9777 29.5707 18.005C29.817 18.0402 30 18.2512 30 18.5V22.5333C30 26.4247 27.693 29.264 23.1795 31C23.064 31.0444 22.936 31.0444 22.8205 31C21.3785 30.4454 20.1618 29.7782 19.1735 29C18.4105 28.3992 17.7837 27.7323 17.2946 27C16.4343 25.7119 16 24.2216 16 22.5333V18.5C16 18.2512 16.183 18.0402 16.4293 18.005C18.6883 17.6823 20.7845 16.8761 22.7226 15.584C22.8906 15.472 23.1094 15.472 23.2774 15.584C24.4591 16.3718 25.6996 16.979 27 17.4061C27.6516 17.6201 28.3182 17.7889 29 17.9126ZM5 7.5C5 6.11929 6.11929 5 7.5 5H24.5C25.8807 5 27 6.11929 27 7.5V9H5V7.5Z" fill="#212121"/>
</svg>
