<?xml version="1.0" encoding="UTF-8"?>
<svg width="24px" height="24px" viewBox="0 0 24 24" version="1.1" xmlns="http://www.w3.org/2000/svg" xmlns:xlink="http://www.w3.org/1999/xlink">
    <!-- Generator: Sketch 59.1 (86144) - https://sketch.com -->
    <title>ic_fluent_presenter_24_filled</title>
    <desc>Created with Sketch.</desc>
    <g id="ðŸ”-Product-Icons" stroke="none" stroke-width="1" fill="none" fill-rule="evenodd">
        <g id="ic_fluent_presenter_24_filled" fill="#212121" fill-rule="nonzero">
            <path d="M20.2444559,12.9970892 C20.9532475,12.9970892 21.2665137,13.8895089 20.7132369,14.3325329 L15.9953641,18.1102639 L15.9953641,19.754591 C15.9953641,20.9972317 14.9880048,22.004591 13.7453641,22.004591 L10.25,22.004591 C9.00735931,22.004591 8,20.9972317 8,19.754591 L8,18.1103457 L3.28041452,14.332616 C2.72700718,13.8896484 3.04023351,12.9970892 3.74909172,12.9970892 L20.2444559,12.9970892 Z M8.75,9 L15.244703,9 C16.1628764,9 16.9158953,9.70711027 16.9889018,10.6064728 L16.994703,10.75 L16.994703,12 L7,12 L7,10.75 C7,9.8318266 7.70711027,9.07880766 8.60647279,9.0058012 L8.75,9 L15.244703,9 L8.75,9 Z M12,2.00046154 C13.6568542,2.00046154 15,3.34360729 15,5.00046154 C15,6.65731579 13.6568542,8.00046154 12,8.00046154 C10.3431458,8.00046154 9,6.65731579 9,5.00046154 C9,3.34360729 10.3431458,2.00046154 12,2.00046154 Z" id="ðŸŽ¨-Color"></path>
        </g>
    </g>
</svg>