<svg width="20" height="20" viewBox="0 0 20 20" fill="none" xmlns="http://www.w3.org/2000/svg">
<path d="M11.9988 4C11.9988 5.10457 11.1033 6 9.99878 6C8.89421 6 7.99878 5.10457 7.99878 4C7.99878 2.89543 8.89421 2 9.99878 2C11.1033 2 11.9988 2.89543 11.9988 4ZM6.99871 14.7842V16.5C6.99871 17.3284 7.67028 18 8.49871 18H11.4987C12.3271 18 12.9987 17.3284 12.9987 16.5V14.7842C12.9987 14.6482 13.054 14.5182 13.152 14.4239L16.8548 10.8603C17.1791 10.5482 16.9582 10 16.5081 10H3.48929C3.0392 10 2.81827 10.5482 3.14257 10.8603L6.84542 14.4239C6.94336 14.5182 6.99871 14.6482 6.99871 14.7842ZM8.49878 7C7.67035 7 6.99878 7.67157 6.99878 8.5V9H12.9988V8.5C12.9988 7.67157 12.3272 7 11.4988 7H8.49878Z" fill="#212121"/>
</svg>
