<svg width="24" height="24" viewBox="0 0 24 24" fill="none" xmlns="http://www.w3.org/2000/svg">
<path d="M15.7541 14C16.9961 14 18.0029 15.0069 18.0029 16.2489V17.1673C18.0029 17.7407 17.8237 18.2997 17.4903 18.7662C15.9445 20.9295 13.4202 22.0012 9.99988 22.0012C6.57891 22.0012 4.05595 20.929 2.51379 18.7646C2.18182 18.2987 2.00342 17.7409 2.00342 17.1689V16.2489C2.00342 15.0069 3.01027 14 4.25229 14H15.7541Z" fill="url(#paint0_linear_378174_9267)"/>
<path d="M15.7541 14C16.9961 14 18.0029 15.0069 18.0029 16.2489V17.1673C18.0029 17.7407 17.8237 18.2997 17.4903 18.7662C15.9445 20.9295 13.4202 22.0012 9.99988 22.0012C6.57891 22.0012 4.05595 20.929 2.51379 18.7646C2.18182 18.2987 2.00342 17.7409 2.00342 17.1689V16.2489C2.00342 15.0069 3.01027 14 4.25229 14H15.7541Z" fill="url(#paint1_linear_378174_9267)"/>
<path d="M15.7541 14C16.9961 14 18.0029 15.0069 18.0029 16.2489V17.1673C18.0029 17.7407 17.8237 18.2997 17.4903 18.7662C15.9445 20.9295 13.4202 22.0012 9.99988 22.0012C6.57891 22.0012 4.05595 20.929 2.51379 18.7646C2.18182 18.2987 2.00342 17.7409 2.00342 17.1689V16.2489C2.00342 15.0069 3.01027 14 4.25229 14H15.7541Z" fill="url(#paint2_radial_378174_9267)" fill-opacity="0.75"/>
<path d="M15.7541 14C16.9961 14 18.0029 15.0069 18.0029 16.2489V17.1673C18.0029 17.7407 17.8237 18.2997 17.4903 18.7662C15.9445 20.9295 13.4202 22.0012 9.99988 22.0012C6.57891 22.0012 4.05595 20.929 2.51379 18.7646C2.18182 18.2987 2.00342 17.7409 2.00342 17.1689V16.2489C2.00342 15.0069 3.01027 14 4.25229 14H15.7541Z" fill="url(#paint3_radial_378174_9267)" fill-opacity="0.55"/>
<path d="M10.0005 2.00464C12.7619 2.00464 15.0005 4.24321 15.0005 7.00464C15.0005 9.76606 12.7619 12.0046 10.0005 12.0046C7.23906 12.0046 5.00049 9.76606 5.00049 7.00464C5.00049 4.24321 7.23906 2.00464 10.0005 2.00464Z" fill="url(#paint4_linear_378174_9267)"/>
<path d="M15 17H20V23H15V17Z" fill="url(#paint5_linear_378174_9267)"/>
<path d="M18.1 13.325C17.7444 13.0583 17.2556 13.0583 16.9 13.325L13.4 15.95C13.1482 16.1389 13 16.4352 13 16.75V22C13 22.5523 13.4477 23 14 23H15C15.5523 23 16 23 16 23V19.5C16 19.2239 16.2239 19 16.5 19H18.5C18.7761 19 19 19.2239 19 19.5V23C19 23 19.4477 23 20 23H21C21.5523 23 22 22.5523 22 22V16.75C22 16.4352 21.8518 16.1389 21.6 15.95L18.1 13.325Z" fill="url(#paint6_linear_378174_9267)"/>
<path fill-rule="evenodd" clip-rule="evenodd" d="M17.5 13.9501L21.5396 17.092C21.8665 17.3463 22.3377 17.2874 22.592 16.9604C22.8464 16.6335 22.7874 16.1623 22.4605 15.908L18.2675 12.6467C17.8161 12.2957 17.184 12.2957 16.7326 12.6467L12.5396 15.908C12.2126 16.1623 12.1537 16.6335 12.408 16.9604C12.6623 17.2874 13.1335 17.3463 13.4605 17.092L17.5 13.9501Z" fill="url(#paint7_linear_378174_9267)"/>
<defs>
<linearGradient id="paint0_linear_378174_9267" x1="5.80816" y1="15.0636" x2="8.39355" y2="23.3188" gradientUnits="userSpaceOnUse">
<stop offset="0.125321" stop-color="#9C6CFE"/>
<stop offset="1" stop-color="#7A41DC"/>
</linearGradient>
<linearGradient id="paint1_linear_378174_9267" x1="10.0032" y1="13.0475" x2="13.6233" y2="26.5729" gradientUnits="userSpaceOnUse">
<stop stop-color="#885EDB" stop-opacity="0"/>
<stop offset="1" stop-color="#E362F8"/>
</linearGradient>
<radialGradient id="paint2_radial_378174_9267" cx="0" cy="0" r="1" gradientUnits="userSpaceOnUse" gradientTransform="translate(14.4999 19.5001) rotate(90) scale(3.5 2.77083)">
<stop offset="0.0416666" stop-color="#0A1852" stop-opacity="0.75"/>
<stop offset="1" stop-color="#0A1852" stop-opacity="0"/>
</radialGradient>
<radialGradient id="paint3_radial_378174_9267" cx="0" cy="0" r="1" gradientUnits="userSpaceOnUse" gradientTransform="translate(12.9999 17.0001) rotate(90) scale(1.5 1.49974)">
<stop stop-color="#0A1852" stop-opacity="0.75"/>
<stop offset="1" stop-color="#0A1852" stop-opacity="0"/>
</radialGradient>
<linearGradient id="paint4_linear_378174_9267" x1="7.37853" y1="3.334" x2="12.4749" y2="11.4718" gradientUnits="userSpaceOnUse">
<stop offset="0.125321" stop-color="#9C6CFE"/>
<stop offset="1" stop-color="#7A41DC"/>
</linearGradient>
<linearGradient id="paint5_linear_378174_9267" x1="17.5" y1="17" x2="14.694" y2="23.2377" gradientUnits="userSpaceOnUse">
<stop stop-color="#944600"/>
<stop offset="1" stop-color="#CD8E02"/>
</linearGradient>
<linearGradient id="paint6_linear_378174_9267" x1="13.859" y1="14.1093" x2="21.3969" y2="21.4391" gradientUnits="userSpaceOnUse">
<stop stop-color="#FFD394"/>
<stop offset="1" stop-color="#FFB357"/>
</linearGradient>
<linearGradient id="paint7_linear_378174_9267" x1="18" y1="10.9999" x2="17.2628" y2="16.8466" gradientUnits="userSpaceOnUse">
<stop stop-color="#FF921F"/>
<stop offset="1" stop-color="#EB4824"/>
</linearGradient>
</defs>
</svg>
