<svg width="25" height="24" viewBox="0 0 25 24" fill="none" xmlns="http://www.w3.org/2000/svg">
<path d="M2.41602 6.25C2.41602 4.45507 3.87109 3 5.66602 3H19.166C20.9609 3 22.416 4.45507 22.416 6.25V12H20.916V6.25C20.916 5.2835 20.1325 4.5 19.166 4.5H5.66602C4.69952 4.5 3.91602 5.2835 3.91602 6.25V15.75C3.91602 16.7165 4.69952 17.5 5.66602 17.5H11.416V19H5.66602C3.87109 19 2.41602 17.5449 2.41602 15.75V6.25ZM14.416 13C13.3114 13 12.416 13.8954 12.416 15V20C12.416 21.1046 13.3114 22 14.416 22H21.416C22.5206 22 23.416 21.1046 23.416 20V15C23.416 13.8954 22.5206 13 21.416 13H14.416ZM5.63569 6.21967C5.92858 5.92678 6.40345 5.92678 6.69635 6.21967L9.91602 9.43934V7.75C9.91602 7.33579 10.2518 7 10.666 7C11.0802 7 11.416 7.33579 11.416 7.75V11.25C11.416 11.6642 11.0802 12 10.666 12H7.16602C6.7518 12 6.41602 11.6642 6.41602 11.25C6.41602 10.8358 6.7518 10.5 7.16602 10.5H8.85535L5.63569 7.28033C5.34279 6.98744 5.34279 6.51256 5.63569 6.21967Z" fill="#212121"/>
</svg>
