<svg width="16" height="16" viewBox="0 0 16 16" fill="none" xmlns="http://www.w3.org/2000/svg">
<path d="M12.75 9.00002C13.1642 9.00005 13.5 9.33583 13.5 9.75002C13.4999 10.1642 13.1641 10.5 12.75 10.5H11.5605L13.7802 12.7198C14.0731 13.0127 14.0731 13.4874 13.7802 13.7803C13.4874 14.0732 13.0126 14.0731 12.7197 13.7803L10.5 11.5606V12.75C10.4999 13.1642 10.1641 13.5 9.74996 13.5C9.33576 13.5 8.99999 13.1642 8.99996 12.75V9.84963C8.99997 9.83238 9.00089 9.81487 9.00191 9.79787C8.9887 9.59029 9.06104 9.37839 9.21969 9.21975C9.37833 9.0611 9.59022 8.98876 9.79781 9.00197C9.81481 9.00095 9.83232 9.00003 9.84957 9.00002H12.75ZM2.21967 2.21973C2.51256 1.92684 2.98732 1.92684 3.28022 2.21973L5.49995 4.43946V3.25001C5.49995 2.83579 5.83574 2.50001 6.24995 2.50001C6.66414 2.50004 6.99995 2.83581 6.99995 3.25001V6.1504C6.99995 6.16746 6.999 6.18438 6.998 6.20119C7.01132 6.40889 6.93896 6.62155 6.78023 6.78029C6.62149 6.93902 6.40883 7.01138 6.20112 6.99806C6.18432 6.99906 6.1674 7.00001 6.15034 7.00002H3.24995C2.83575 7.00002 2.49997 6.6642 2.49994 6.25001C2.49994 5.8358 2.83573 5.50001 3.24995 5.50001H4.4394L2.21967 3.28028C1.92678 2.98739 1.92678 2.51263 2.21967 2.21973Z" fill="#212121"/>
</svg>
