<svg width="20" height="20" viewBox="0 0 20 20" fill="none" xmlns="http://www.w3.org/2000/svg">
<path d="M11.4142 2.92792C11.6095 3.12319 11.6095 3.43977 11.4142 3.63503L11.3984 3.65084C10.9619 3.55512 10.5029 3.50376 10.0664 3.49934C8.38002 3.48223 6.68997 4.11666 5.40382 5.40281C2.8654 7.94121 2.8654 12.0568 5.40382 14.5952C5.6271 14.8185 5.86235 15.0219 6.10743 15.2057C6.32838 15.3713 6.3732 15.6847 6.20756 15.9057C6.04191 16.1266 5.72852 16.1714 5.50757 16.0058C5.2247 15.7937 4.95359 15.5592 4.69671 15.3023C1.76776 12.3734 1.76776 7.62463 4.69671 4.6957C6.05488 3.33754 7.80518 2.60911 9.58264 2.51056L8.58578 1.51371C8.39052 1.31845 8.39052 1.00186 8.58578 0.806603C8.78104 0.611341 9.09763 0.611341 9.29289 0.806603L11.4142 2.92792ZM8.60162 16.3471L8.58578 16.363C8.39052 16.5582 8.39052 16.8748 8.58578 17.0701L10.7071 19.1914C10.9024 19.3866 11.219 19.3866 11.4142 19.1914C11.6095 18.9961 11.6095 18.6795 11.4142 18.4843L10.4174 17.4874C12.1948 17.3889 13.9451 16.6605 15.3033 15.3023C18.2322 12.3734 18.2322 7.62462 15.3033 4.69569C15.0464 4.43881 14.7753 4.20428 14.4924 3.99221C14.2715 3.82656 13.9581 3.87139 13.7924 4.09233C13.6268 4.31327 13.6716 4.62667 13.8926 4.79231C14.1377 4.97606 14.3729 5.17952 14.5962 5.40279C17.1346 7.9412 17.1346 12.0568 14.5962 14.5952C13.31 15.8813 11.62 16.5158 9.9336 16.4987C9.4995 16.4942 9.02588 16.4401 8.60162 16.3471ZM11.8536 8.14547C12.0488 8.34073 12.0488 8.65731 11.8536 8.85258L10.7071 9.99902L11.8536 11.1455C12.0488 11.3407 12.0488 11.6573 11.8536 11.8526C11.6583 12.0478 11.3417 12.0478 11.1464 11.8526L10 10.7061L8.85355 11.8526C8.65829 12.0478 8.34171 12.0478 8.14645 11.8526C7.95118 11.6573 7.95118 11.3407 8.14645 11.1455L9.29289 9.99902L8.14645 8.85258C7.95118 8.65731 7.95118 8.34073 8.14645 8.14547C8.34171 7.95021 8.65829 7.95021 8.85355 8.14547L10 9.29192L11.1464 8.14547C11.3417 7.95021 11.6583 7.95021 11.8536 8.14547ZM5 9.99902C5 7.2376 7.23858 4.99902 10 4.99902C12.7614 4.99902 15 7.2376 15 9.99902C15 12.7604 12.7614 14.999 10 14.999C7.23858 14.999 5 12.7604 5 9.99902ZM10 5.99902C7.79086 5.99902 6 7.78988 6 9.99902C6 12.2082 7.79086 13.999 10 13.999C12.2091 13.999 14 12.2082 14 9.99902C14 7.78988 12.2091 5.99902 10 5.99902Z" fill="#212121"/>
</svg>
