<svg width="28" height="28" viewBox="0 0 28 28" fill="none" xmlns="http://www.w3.org/2000/svg">
<path d="M7.5 12.5C7.5 11.9477 7.94772 11.5 8.5 11.5C9.05228 11.5 9.5 11.9477 9.5 12.5C9.5 13.0523 9.05228 13.5 8.5 13.5C7.94772 13.5 7.5 13.0523 7.5 12.5ZM8.5 18.5C7.94772 18.5 7.5 18.9477 7.5 19.5C7.5 20.0523 7.94772 20.5 8.5 20.5C9.05228 20.5 9.5 20.0523 9.5 19.5C9.5 18.9477 9.05228 18.5 8.5 18.5ZM3 6.75C3 4.67893 4.67893 3 6.75 3H21.25C23.3211 3 25 4.67893 25 6.75V14.4995C23.7465 13.5579 22.1884 13 20.5 13H21.25C21.6642 13 22 12.6642 22 12.25C22 11.8358 21.6642 11.5 21.25 11.5H13.75C13.3358 11.5 13 11.8358 13 12.25C13 12.6642 13.3358 13 13.75 13H20.5C16.3579 13 13 16.3579 13 20.5C13 22.1884 13.5579 23.7465 14.4995 25H6.75C4.67893 25 3 23.3211 3 21.25V6.75ZM6 12.5C6 13.8807 7.11929 15 8.5 15C9.88071 15 11 13.8807 11 12.5C11 11.1193 9.88071 10 8.5 10C7.11929 10 6 11.1193 6 12.5ZM8.5 17C7.11929 17 6 18.1193 6 19.5C6 20.8807 7.11929 22 8.5 22C9.88071 22 11 20.8807 11 19.5C11 18.1193 9.88071 17 8.5 17ZM6 6.75C6 7.16421 6.33579 7.5 6.75 7.5H21.25C21.6642 7.5 22 7.16421 22 6.75C22 6.33579 21.6642 6 21.25 6H6.75C6.33579 6 6 6.33579 6 6.75ZM27 20.5C27 24.0899 24.0899 27 20.5 27C16.9101 27 14 24.0899 14 20.5C14 16.9101 16.9101 14 20.5 14C24.0899 14 27 16.9101 27 20.5ZM21 16.5C21 16.2239 20.7761 16 20.5 16C20.2239 16 20 16.2239 20 16.5V20H16.5C16.2239 20 16 20.2239 16 20.5C16 20.7761 16.2239 21 16.5 21H20V24.5C20 24.7761 20.2239 25 20.5 25C20.7761 25 21 24.7761 21 24.5V21H24.5C24.7761 21 25 20.7761 25 20.5C25 20.2239 24.7761 20 24.5 20H21V16.5Z" fill="#212121"/>
</svg>
