<svg width="20" height="20" viewBox="0 0 20 20" fill="none" xmlns="http://www.w3.org/2000/svg">
<path d="M12.5 2C11.1193 2 10 3.11929 10 4.5C10 5.88071 11.1193 7 12.5 7H13C13.2761 7 13.5 6.77614 13.5 6.5C13.5 6.22386 13.2761 6 13 6H12.5C11.6716 6 11 5.32843 11 4.5C11 3.67157 11.6716 3 12.5 3H13C13.2761 3 13.5 2.77614 13.5 2.5C13.5 2.22386 13.2761 2 13 2H12.5ZM16 2C15.7239 2 15.5 2.22386 15.5 2.5C15.5 2.77614 15.7239 3 16 3H16.5C17.3284 3 18 3.67157 18 4.5C18 5.32843 17.3284 6 16.5 6H16C15.7239 6 15.5 6.22386 15.5 6.5C15.5 6.77614 15.7239 7 16 7H16.5C17.8807 7 19 5.88071 19 4.5C19 3.11929 17.8807 2 16.5 2H16ZM12 4.5C12 4.22386 12.2239 4 12.5 4H16.5C16.7761 4 17 4.22386 17 4.5C17 4.77614 16.7761 5 16.5 5H12.5C12.2239 5 12 4.77614 12 4.5ZM9 4.5C9 3.9632 9.12085 3.45463 9.33682 3H4.6C3.16406 3 2 4.14876 2 5.56582V12.2764C2 13.6935 3.16406 14.8423 4.6 14.8423H5.19937L5.2 17.0133C5.2 17.2262 5.26989 17.4335 5.39921 17.6042C5.73 18.0406 6.35668 18.1298 6.79895 17.8034L10.81 14.8423H15.4C16.8359 14.8423 18 13.6935 18 12.2764V7.66318C17.5454 7.87915 17.0368 8 16.5 8H12.5C10.567 8 9 6.433 9 4.5Z" fill="#212121"/>
</svg>
