<svg width="20" height="20" viewBox="0 0 20 20" fill="none" xmlns="http://www.w3.org/2000/svg">
<path d="M2 7C2 5.34315 3.34315 4 5 4H15C16.6569 4 18 5.34315 18 7V13C18 14.6569 16.6569 16 15 16H5C3.34315 16 2 14.6569 2 13V7ZM5 6C4.44772 6 4 6.44772 4 7V10C4 10.5523 4.44772 11 5 11H8C8.55228 11 9 10.5523 9 10V7C9 6.44772 8.55228 6 8 6H5ZM15 7.5C15 6.67157 14.3284 6 13.5 6C12.6716 6 12 6.67157 12 7.5C12 8.32843 12.6716 9 13.5 9C14.3284 9 15 8.32843 15 7.5ZM12 10C11.4477 10 11 10.4477 11 11V12C11 13.1046 11.8954 14 13 14H14C15.1046 14 16 13.1046 16 12V11C16 10.4477 15.5523 10 15 10H12Z" fill="#212121"/>
</svg>
