<svg width="20" height="20" viewBox="0 0 20 20" fill="none" xmlns="http://www.w3.org/2000/svg">
<path d="M10 2C7.79086 2 6 3.79086 6 6C6 8.20914 7.79086 10 10 10C12.2091 10 14 8.20914 14 6C14 3.79086 12.2091 2 10 2ZM5.00873 11C3.90315 11 3 11.8869 3 13C3 14.6912 3.83281 15.9663 5.13499 16.7966C6.41697 17.614 8.14526 18 10 18C10.6007 18 11.1882 17.9595 11.7515 17.877L11.9708 17H11.5016C10.4312 17 9.70526 15.9111 10.1169 14.9231L11.7516 11L5.00873 11ZM12.6121 16C12.9374 16 13.176 16.3057 13.0972 16.6213L12.6627 18.3592C12.5419 18.8424 13.1248 19.1859 13.4889 18.846L18.3614 14.2983C18.8591 13.8338 18.5304 13 17.8497 13H17.4462C17.1049 13 16.8639 12.6657 16.9718 12.3419L17.5331 10.6581C17.641 10.3343 17.4 10 17.0588 10H13.5858C13.384 10 13.2019 10.1214 13.1243 10.3077L11.0409 15.3077C10.9037 15.637 11.1457 16 11.5025 16H12.6121Z" fill="#212121"/>
</svg>
