<svg width="32" height="32" viewBox="0 0 32 32" fill="none" xmlns="http://www.w3.org/2000/svg">
<path d="M23.2643 11.7845C22.7556 11.3662 22.0423 10.3955 22.0423 8.0782C22.0423 6.56233 21.5276 5.3738 20.7295 4.4774C19.9499 3.60171 18.9419 3.05017 18.002 2.69826C17.0579 2.34478 16.128 2.17241 15.4439 2.08704C15.0524 2.03819 14.6555 2.0003 14.2604 2C11.0752 2 8.65803 2.87255 6.84966 4.24145C5.05224 5.60206 3.92504 7.40045 3.21865 9.14961C2.51318 10.8965 2.21325 12.6281 2.08731 13.9117C1.63631 18.5086 2.39388 23.9873 6.12675 27.1007C8.7533 29.2913 12.3589 30 16.2879 30C19.9073 30 23.3003 29.2172 25.821 27.525C28.384 25.8044 29.9984 23.1668 29.999 19.6593C29.999 16.4524 28.6431 14.5518 27.2041 13.4823C26.5042 12.9621 25.8081 12.6547 25.2872 12.4765C24.6197 12.2481 23.8249 12.2454 23.2643 11.7845Z" fill="#212121"/>
</svg>
