<svg width="24" height="24" viewBox="0 0 24 24" fill="none" xmlns="http://www.w3.org/2000/svg">
<path d="M21 6.25C21 4.45507 19.5449 3 17.75 3H6.25C4.45507 3 3 4.45507 3 6.25V17.75C3 19.5449 4.45507 21 6.25 21H13.1718C13.0562 20.6334 13 20.2541 13 19.875V19.772C13 19.6802 13.0045 19.5895 13.0132 19.5H6.25C5.2835 19.5 4.5 18.7165 4.5 17.75V8.5H19.5V11.1449C20.0762 11.3164 20.5901 11.6323 21 12.0505V6.25ZM6.25 4.5H17.75C18.7165 4.5 19.5 5.2835 19.5 6.25V7H4.5V6.25C4.5 5.2835 5.2835 4.5 6.25 4.5ZM21 14.5C21 15.8807 19.8807 17 18.5 17C17.1193 17 16 15.8807 16 14.5C16 13.1193 17.1193 12 18.5 12C19.8807 12 21 13.1193 21 14.5ZM23 19.875C23 21.4315 21.7143 23 18.5 23C15.2857 23 14 21.4374 14 19.875V19.772C14 18.7929 14.7937 18 15.7727 18H21.2273C22.2063 18 23 18.793 23 19.772V19.875Z" fill="#212121"/>
</svg>
