<svg width="16" height="16" viewBox="0 0 16 16" fill="none" xmlns="http://www.w3.org/2000/svg">
<path d="M9.9046 2.81465C10.2831 2.98287 10.4536 3.42609 10.2854 3.80461L6.28536 12.8046C6.11713 13.1831 5.67391 13.3536 5.2954 13.1854C4.91688 13.0171 4.74641 12.5739 4.91464 12.1954L8.91464 3.1954C9.08287 2.81689 9.52609 2.64642 9.9046 2.81465ZM4.49827 5.18945C4.80786 5.46464 4.83575 5.93869 4.56056 6.24828L3.00347 8L4.56056 9.75173C4.83575 10.0613 4.80786 10.5354 4.49827 10.8106C4.18869 11.0857 3.71463 11.0579 3.43944 10.7483L1.43944 8.49828C1.18685 8.21411 1.18685 7.7859 1.43944 7.50173L3.43944 5.25173C3.71463 4.94214 4.18869 4.91426 4.49827 5.18945ZM11.5017 5.18945C11.8113 4.91426 12.2854 4.94214 12.5606 5.25173L14.5606 7.50173C14.8131 7.7859 14.8131 8.21411 14.5606 8.49828L12.5606 10.7483C12.2854 11.0579 11.8113 11.0857 11.5017 10.8106C11.1921 10.5354 11.1643 10.0613 11.4394 9.75173L12.9965 8L11.4394 6.24828C11.1643 5.93869 11.1921 5.46464 11.5017 5.18945Z" fill="#212121"/>
</svg>
