<svg width="28" height="28" viewBox="0 0 28 28" fill="none" xmlns="http://www.w3.org/2000/svg">
<path d="M17.625 4.5C16.9753 4.5 16.25 5.16459 16.25 6.25C16.25 7.33541 16.9753 8 17.625 8C18.2747 8 19 7.33541 19 6.25C19 5.16459 18.2747 4.5 17.625 4.5ZM14.75 6.25C14.75 4.57399 15.9275 3 17.625 3C19.3225 3 20.5 4.57399 20.5 6.25C20.5 7.92601 19.3225 9.5 17.625 9.5C15.9275 9.5 14.75 7.92601 14.75 6.25ZM4.125 8C3.47527 8 2.75 8.66459 2.75 9.75C2.75 10.8354 3.47527 11.5 4.125 11.5C4.77473 11.5 5.5 10.8354 5.5 9.75C5.5 8.66459 4.77473 8 4.125 8ZM1.25 9.75C1.25 8.07399 2.42752 6.5 4.125 6.5C5.82248 6.5 7 8.07399 7 9.75C7 11.426 5.82248 13 4.125 13C2.42752 13 1.25 11.426 1.25 9.75ZM14 12.5C10.4101 12.5 7.5 15.4101 7.5 19C7.5 19.1386 7.50433 19.2761 7.51284 19.4123C7.57437 20.397 8.1166 21.1458 8.9775 21.6755C9.85503 22.2154 11.0324 22.5 12.2078 22.5H15.7922C16.9676 22.5 18.145 22.2154 19.0225 21.6755C19.8834 21.1458 20.4256 20.397 20.4872 19.4123C20.4957 19.2761 20.5 19.1386 20.5 19C20.5 15.4101 17.5899 12.5 14 12.5ZM6 19C6 14.5817 9.58172 11 14 11C18.4183 11 22 14.5817 22 19C22 19.1698 21.9947 19.3385 21.9842 19.5059C21.8859 21.0804 20.9884 22.2271 19.8086 22.953C18.6454 23.6687 17.1809 24 15.7922 24H12.2078C10.8191 24 9.35464 23.6687 8.19144 22.953C7.0116 22.2271 6.11415 21.0804 6.01576 19.5059C6.0053 19.3385 6 19.1698 6 19ZM22.5 9.75C22.5 8.66459 23.2253 8 23.875 8C24.5247 8 25.25 8.66459 25.25 9.75C25.25 10.8354 24.5247 11.5 23.875 11.5C23.2253 11.5 22.5 10.8354 22.5 9.75ZM23.875 6.5C22.1775 6.5 21 8.07399 21 9.75C21 11.426 22.1775 13 23.875 13C25.5725 13 26.75 11.426 26.75 9.75C26.75 8.07399 25.5725 6.5 23.875 6.5ZM9 6.25C9 5.16459 9.72527 4.5 10.375 4.5C11.0247 4.5 11.75 5.16459 11.75 6.25C11.75 7.33541 11.0247 8 10.375 8C9.72527 8 9 7.33541 9 6.25ZM10.375 3C8.67752 3 7.5 4.57399 7.5 6.25C7.5 7.92601 8.67752 9.5 10.375 9.5C12.0725 9.5 13.25 7.92601 13.25 6.25C13.25 4.57399 12.0725 3 10.375 3Z" fill="#212121"/>
</svg>
