<svg width="16" height="16" viewBox="0 0 16 16" fill="none" xmlns="http://www.w3.org/2000/svg">
<path d="M2 4.75C2 3.23122 3.23122 2 4.75 2H5.25C5.66421 2 6 2.33579 6 2.75C6 3.16421 5.66421 3.5 5.25 3.5H4.75C4.05964 3.5 3.5 4.05964 3.5 4.75V5.25C3.5 5.66421 3.16421 6 2.75 6C2.33579 6 2 5.66421 2 5.25V4.75ZM14 11.25C14 12.7688 12.7688 14 11.25 14H10.75C10.3358 14 10 13.6642 10 13.25C10 12.8358 10.3358 12.5 10.75 12.5H11.25C11.9404 12.5 12.5 11.9404 12.5 11.25V10.75C12.5 10.3358 12.8358 10 13.25 10C13.6642 10 14 10.3358 14 10.75V11.25ZM14 4.75C14 3.23122 12.7688 2 11.25 2H10.75C10.3358 2 10 2.33579 10 2.75C10 3.16421 10.3358 3.5 10.75 3.5H11.25C11.9404 3.5 12.5 4.05964 12.5 4.75V5.25C12.5 5.66421 12.8358 6 13.25 6C13.6642 6 14 5.66421 14 5.25V4.75ZM4.75 14C3.23122 14 2 12.7688 2 11.25V10.75C2 10.3358 2.33579 10 2.75 10C3.16421 10 3.5 10.3358 3.5 10.75L3.5 11.25C3.5 11.9404 4.05964 12.5 4.75 12.5H5.25C5.66421 12.5 6 12.8358 6 13.25C6 13.6642 5.66421 14 5.25 14H4.75ZM8 10C9.10457 10 10 9.10457 10 8C10 6.89543 9.10457 6 8 6C6.89543 6 6 6.89543 6 8C6 9.10457 6.89543 10 8 10ZM5.25 6C5.66421 6 6 5.66421 6 5.25C6 4.83579 5.66421 4.5 5.25 4.5C4.83579 4.5 4.5 4.83579 4.5 5.25C4.5 5.66421 4.83579 6 5.25 6Z" fill="#212121"/>
</svg>
