<svg width="32" height="32" viewBox="0 0 32 32" fill="none" xmlns="http://www.w3.org/2000/svg">
<path d="M25.0483 26.462L28.2932 29.7068C28.6837 30.0973 29.3169 30.0973 29.7074 29.7068C30.0979 29.3163 30.0979 28.6831 29.7074 28.2926L3.7071 2.29288C3.31657 1.90237 2.6834 1.90237 2.29288 2.2929C1.90237 2.68343 1.90237 3.3166 2.2929 3.70712L7.86317 9.27725C6.7753 8.94291 5.57995 8.7497 4.2503 8.7497C3.55995 8.7497 3.0003 9.30934 3.0003 9.9997C3.0003 10.6901 3.55995 11.2497 4.2503 11.2497C7.68058 11.2497 9.97558 12.8134 12.1991 14.9412C12.413 14.7225 12.6304 14.4974 12.8523 14.2663L13.9133 15.3272C11.0778 18.2813 8.56008 20.7497 4.2503 20.7497C3.55995 20.7497 3.0003 21.3094 3.0003 21.9997C3.0003 22.6901 3.55995 23.2497 4.2503 23.2497C9.70239 23.2497 12.8965 20.0011 15.6816 17.0955L16.7425 18.1564C16.522 18.3867 16.2961 18.6223 16.064 18.8609C17.4304 20.1703 18.9562 21.4024 20.812 22.2257L23.288 24.7017C22.8798 25.1928 22.906 25.9231 23.3664 26.3836C23.8269 26.844 24.5572 26.8702 25.0483 26.462ZM24.1658 20.6305L27.5266 23.9912L28.6342 22.8836C29.1223 22.3954 29.1223 21.6039 28.6342 21.1158L25.1342 17.6158C24.646 17.1276 23.8546 17.1276 23.3664 17.6158C22.8783 18.1039 22.8783 18.8954 23.3664 19.3836L24.6793 20.6964C24.5051 20.6787 24.334 20.6567 24.1658 20.6305ZM16.3775 12.8423L18.1491 14.614C20.026 12.8778 21.9924 11.5765 24.6793 11.303L23.3664 12.6159C22.8782 13.104 22.8782 13.8955 23.3664 14.3836C23.8546 14.8718 24.646 14.8718 25.1342 14.3836L28.6342 10.8836C29.1223 10.3955 29.1223 9.60402 28.6342 9.11586L25.1342 5.61581C24.646 5.12766 23.8546 5.12766 23.3664 5.61581C22.8782 6.10396 22.8782 6.89542 23.3664 7.38358L24.7686 8.78584C21.1259 9.05749 18.543 10.8258 16.3775 12.8423Z" fill="#212121"/>
</svg>
