<svg width="28" height="28" viewBox="0 0 28 28" fill="none" xmlns="http://www.w3.org/2000/svg">
<path d="M5.75391 4C3.68284 4 2.00391 5.67893 2.00391 7.75V20.2501C2.00391 22.3211 3.68284 24.0001 5.75391 24.0001H22.2505C24.3216 24.0001 26.0005 22.3211 26.0005 20.2501V7.75C26.0005 5.67893 24.3216 4 22.2505 4H5.75391ZM3.50391 7.75C3.50391 6.50736 4.51127 5.5 5.75391 5.5H22.2505C23.4932 5.5 24.5005 6.50736 24.5005 7.75V20.2501C24.5005 21.4927 23.4932 22.5001 22.2505 22.5001H5.75391C4.51127 22.5001 3.50391 21.4927 3.50391 20.2501V7.75ZM8.47307 11.1511C9.91336 10.431 11.8681 10 14 10C16.1318 10 18.0866 10.431 19.5269 11.1511C20.9372 11.8563 21.9999 12.923 21.9999 14.25C21.9999 14.2621 21.9995 14.2743 21.9986 14.2864L21.8629 16.1429C21.7798 17.279 20.766 18.1164 19.6346 17.9833L18.0026 17.7913C17.1559 17.6917 16.4654 17.0663 16.2827 16.2335L15.848 14.2511C15.8187 14.1176 15.7526 14.0575 15.7028 14.0376C15.3969 13.9154 14.8302 13.7499 14 13.7499C13.1697 13.7499 12.603 13.9154 12.2972 14.0376C12.2473 14.0575 12.1812 14.1176 12.1519 14.2511L11.7172 16.2335C11.5346 17.0663 10.8441 17.6917 9.99732 17.7913L8.36536 17.9833C7.23398 18.1164 6.22009 17.279 6.13704 16.1429L6.00133 14.2864C6.00044 14.2743 6 14.2621 6 14.25C6 12.923 7.06269 11.8563 8.47307 11.1511Z" fill="#212121"/>
</svg>
