<?xml version="1.0" encoding="UTF-8"?>
<svg width="24px" height="24px" viewBox="0 0 24 24" version="1.1" xmlns="http://www.w3.org/2000/svg" xmlns:xlink="http://www.w3.org/1999/xlink">
    <!-- Generator: Sketch 59.1 (86144) - https://sketch.com -->
    <title>ic_fluent_alert_on_24_filled</title>
    <desc>Created with Sketch.</desc>
    <g id="ðŸ”-Product-Icons" stroke="none" stroke-width="1" fill="none" fill-rule="evenodd">
        <g id="ic_fluent_alert_on_24_filled" fill="#212121" fill-rule="nonzero">
            <path d="M9.04172524,19.0029603 L14.9582748,19.0029603 C14.7196327,20.4210965 13.4859868,21.5014962 12,21.5014962 C10.5140132,21.5014962 9.28036729,20.4210965 9.04172524,19.0029603 Z M12,2.00389443 C16.1421356,2.00389443 19.5,5.36175881 19.5,9.50389443 L19.5,13.5024024 L20.9183309,16.6624964 C20.973238,16.7848314 21.001625,16.9174043 21.001625,17.0514962 C21.001625,17.5761667 20.5762955,18.0014962 20.051625,18.0014962 L3.95218538,18.0014962 C3.81840073,18.0014962 3.68612461,17.9732391 3.56401742,17.918575 C3.08514303,17.7041957 2.87072735,17.1422026 3.08510659,16.6633282 L4.50000427,13.5027692 L4.50011124,9.49097734 L4.50452793,9.2410613 C4.64359849,5.21033445 7.95587136,2.00389443 12,2.00389443 Z M23,8.25 C23.4142136,8.25 23.75,8.58578644 23.75,9 C23.75,9.37969577 23.4678461,9.69349096 23.1017706,9.74315338 L23,9.75 L21,9.75 C20.5857864,9.75 20.25,9.41421356 20.25,9 C20.25,8.62030423 20.5321539,8.30650904 20.8982294,8.25684662 L21,8.25 L23,8.25 Z M3,8.25 C3.41421356,8.25 3.75,8.58578644 3.75,9 C3.75,9.37969577 3.46784612,9.69349096 3.10177056,9.74315338 L3,9.75 L1,9.75 C0.585786438,9.75 0.25,9.41421356 0.25,9 C0.25,8.62030423 0.532153882,8.30650904 0.898229443,8.25684662 L1,8.25 L3,8.25 Z M22.6,2.55 C22.8259347,2.85124623 22.7909723,3.26714548 22.5337844,3.52699676 L22.45,3.6 L20.45,5.1 C20.1186292,5.34852814 19.6485281,5.28137085 19.4,4.95 C19.1740653,4.64875377 19.2090277,4.23285452 19.4662156,3.97300324 L19.55,3.9 L21.55,2.4 C21.8813708,2.15147186 22.3514719,2.21862915 22.6,2.55 Z M2.45,2.4 L4.45,3.9 C4.78137085,4.14852814 4.84852814,4.61862915 4.6,4.95 C4.35147186,5.28137085 3.88137085,5.34852814 3.55,5.1 L1.55,3.6 C1.21862915,3.35147186 1.15147186,2.88137085 1.4,2.55 C1.64852814,2.21862915 2.11862915,2.15147186 2.45,2.4 Z" id="ðŸŽ¨-Color"></path>
        </g>
    </g>
</svg>