<svg width="16" height="16" viewBox="0 0 16 16" fill="none" xmlns="http://www.w3.org/2000/svg">
<path d="M4.5 2C3.11929 2 2 3.11929 2 4.5V5.5C2 5.77614 2.22386 6 2.5 6C2.77614 6 3 5.77614 3 5.5V4.5C3 3.67157 3.67157 3 4.5 3H5.5C5.77614 3 6 2.77614 6 2.5C6 2.22386 5.77614 2 5.5 2H4.5ZM10.5 2C10.2239 2 10 2.22386 10 2.5C10 2.77614 10.2239 3 10.5 3H11.5C12.3284 3 13 3.67157 13 4.5V5.5C13 5.77614 13.2239 6 13.5 6C13.7761 6 14 5.77614 14 5.5V4.5C14 3.11929 12.8807 2 11.5 2H10.5ZM3 10.5C3 10.2239 2.77614 10 2.5 10C2.22386 10 2 10.2239 2 10.5V11.5C2 12.8807 3.11929 14 4.5 14H5.5C5.77614 14 6 13.7761 6 13.5C6 13.2239 5.77614 13 5.5 13H4.5C4.44175 13 4.38428 12.9967 4.32776 12.9902L4.31814 12.9891C3.57548 12.8993 3 12.2669 3 11.5V10.5ZM14 10.5C14 10.2239 13.7761 10 13.5 10C13.2239 10 13 10.2239 13 10.5V11.5C13 12.2674 12.4238 12.9002 11.6804 12.9893C11.6213 12.9964 11.5611 13 11.5 13H10.5C10.2239 13 10 13.2239 10 13.5C10 13.7761 10.2239 14 10.5 14H11.5C12.8807 14 14 12.8807 14 11.5V10.5ZM5.04338 12C5.01446 11.8431 4.99932 11.6765 4.99932 11.5C4.99932 11.2239 5.22319 11 5.4993 11L10.4993 11C10.7755 11 10.9993 11.2239 10.9993 11.5C10.9993 11.6765 10.9842 11.8431 10.9553 12H11.5C11.7667 12 11.9846 11.7912 11.9992 11.5282L11.9993 11.5C11.9993 10.6716 11.3277 10 10.4993 10H5.4993C4.68616 10 4.02415 10.6471 4 11.4543V11.5C4 11.7761 4.22386 12 4.5 12H5.04338ZM9.25 6.75C9.25 6.05964 8.69036 5.5 8 5.5C7.30964 5.5 6.75 6.05964 6.75 6.75C6.75 7.44036 7.30964 8 8 8C8.69036 8 9.25 7.44036 9.25 6.75ZM10.25 6.75C10.25 7.99264 9.24264 9 8 9C6.75736 9 5.75 7.99264 5.75 6.75C5.75 5.50736 6.75736 4.5 8 4.5C9.24264 4.5 10.25 5.50736 10.25 6.75Z" fill="#212121"/>
</svg>
