<svg width="20" height="20" viewBox="0 0 20 20" fill="none" xmlns="http://www.w3.org/2000/svg">
<path d="M2.04248 4.74988C2.04248 3.78338 2.82598 2.99988 3.79248 2.99988H12.2505C13.217 2.99988 14.0005 3.78338 14.0005 4.74988V5.99994L14.8824 5.99982C15.4506 5.99974 15.9701 6.32075 16.2242 6.829L17.8422 10.065C17.9464 10.2733 18.0006 10.5029 18.0006 10.7358V14.4997C18.0006 15.3282 17.329 15.9997 16.5006 15.9997H14.9505C14.7189 17.1409 13.71 17.9999 12.5005 17.9999C11.291 17.9999 10.2821 17.141 10.0505 15.9999H8.95048C8.71884 17.141 7.70997 17.9999 6.50049 17.9999C5.29101 17.9999 4.28213 17.141 4.0505 15.9999H3.79248C2.82598 15.9999 2.04248 15.2164 2.04248 14.2499V4.74988ZM10.0505 14.9999C10.2821 13.8588 11.291 12.9999 12.5005 12.9999C12.6717 12.9999 12.8389 13.0171 13.0005 13.0499V4.74988C13.0005 4.33566 12.6647 3.99988 12.2505 3.99988H3.79248C3.37827 3.99988 3.04248 4.33566 3.04248 4.74988V14.2499C3.04248 14.6641 3.37827 14.9999 3.79248 14.9999H4.0505C4.28213 13.8588 5.29101 12.9999 6.50049 12.9999C7.70997 12.9999 8.71884 13.8588 8.95048 14.9999H10.0505ZM14.0005 13.4997C14.4805 13.8603 14.8266 14.3897 14.9504 14.9997H16.5006C16.7767 14.9997 17.0006 14.7759 17.0006 14.4997V10.9998H14.0005V13.4997ZM14.0005 9.99982H16.6916L15.3298 7.27621C15.2451 7.10679 15.0719 6.99979 14.8825 6.99982L14.0005 6.99994V9.99982ZM6.50049 13.9999C5.67206 13.9999 5.00049 14.6715 5.00049 15.4999C5.00049 16.3283 5.67206 16.9999 6.50049 16.9999C7.32892 16.9999 8.00049 16.3283 8.00049 15.4999C8.00049 14.6715 7.32892 13.9999 6.50049 13.9999ZM11.0005 15.4999C11.0005 16.3283 11.6721 16.9999 12.5005 16.9999C13.3289 16.9999 14.0005 16.3283 14.0005 15.4999C14.0005 14.6715 13.3289 13.9999 12.5005 13.9999C11.6721 13.9999 11.0005 14.6715 11.0005 15.4999Z" fill="#212121"/>
</svg>
