<svg width="48" height="48" viewBox="0 0 48 48" fill="none" xmlns="http://www.w3.org/2000/svg">
<path d="M24 4C33.3888 4 41 11.6112 41 21C41 23.8839 40.2818 26.6001 39.0146 28.9795C38.9213 29.1547 38.8248 29.3285 38.7256 29.5C38.2737 30.2812 37.7616 31.0235 37.1953 31.7197C37.1243 31.807 37.0522 31.8936 36.9795 31.9795L36.9775 31.9814C36.9723 31.9876 36.9671 31.9938 36.9619 32H37L26.9111 42.709C25.332 44.3852 22.668 44.3852 21.0889 42.709L11 32H11.0381C11.0325 31.9935 11.026 31.986 11.0205 31.9795C11.0137 31.9714 11.0068 31.9631 11 31.9551C10.3855 31.2267 9.83132 30.4456 9.34473 29.6201C9.32117 29.5802 9.29765 29.5402 9.27441 29.5C7.82797 26.9995 7 24.0964 7 21C7 11.6112 14.6112 4 24 4ZM24 15C20.6863 15 18 17.6863 18 21C18 24.3137 20.6863 27 24 27C27.3137 27 30 24.3137 30 21C30 17.6863 27.3137 15 24 15Z" fill="#212121"/>
</svg>
