<svg width="48" height="48" viewBox="0 0 48 48" fill="none" xmlns="http://www.w3.org/2000/svg">
<path d="M24 4C33.3888 4 41 11.6112 41 21C41 24.0964 40.172 26.9995 38.7256 29.5C38.2223 30.37 37.6442 31.1914 37 31.9551L36.9785 31.9805L36.9619 32H37L26.9111 42.709C25.332 44.3852 22.668 44.3852 21.0889 42.709L11 32H11.0381L11.0215 31.9805L11 31.9551C10.3558 31.1914 9.77769 30.37 9.27441 29.5C7.82797 26.9995 7 24.0964 7 21C7 11.6112 14.6112 4 24 4ZM24 6.5C15.9919 6.5 9.5 12.9919 9.5 21C9.5 24.5801 10.7942 27.8519 12.9434 30.3818L13.251 30.7441L22.9082 40.9951C23.5004 41.6236 24.4996 41.6237 25.0918 40.9951L34.749 30.7441L35.0566 30.3818C37.2058 27.8519 38.5 24.5801 38.5 21C38.5 12.9919 32.0081 6.5 24 6.5ZM24 14C27.866 14 31 17.134 31 21C31 24.866 27.866 28 24 28C20.134 28 17 24.866 17 21C17 17.134 20.134 14 24 14ZM24 16.5C21.5147 16.5 19.5 18.5147 19.5 21C19.5 23.4853 21.5147 25.5 24 25.5C26.4853 25.5 28.5 23.4853 28.5 21C28.5 18.5147 26.4853 16.5 24 16.5Z" fill="#212121"/>
</svg>
