<svg width="16" height="16" viewBox="0 0 16 16" fill="none" xmlns="http://www.w3.org/2000/svg">
<path d="M8 1C11.3137 1 14 3.68629 14 7C14 9.86724 12.065 12.5058 8.26844 14.9218C8.10465 15.0261 7.89535 15.0261 7.73156 14.9218C3.93495 12.5058 2 9.86724 2 7C2 3.68629 4.68629 1 8 1ZM8 2C5.23858 2 3 4.23858 3 7C3 9.32537 4.53971 11.5577 7.68057 13.6918L8 13.9049L8.31943 13.6918C11.4603 11.5577 13 9.32537 13 7C13 4.23858 10.7614 2 8 2ZM8 5.5C8.82843 5.5 9.5 6.17157 9.5 7C9.5 7.82843 8.82843 8.5 8 8.5C7.17157 8.5 6.5 7.82843 6.5 7C6.5 6.17157 7.17157 5.5 8 5.5Z" fill="#212121"/>
</svg>
