<svg width="20" height="20" viewBox="0 0 20 20" fill="none" xmlns="http://www.w3.org/2000/svg">
<path d="M17.3095 3.0005C17.6959 3.03084 18 3.35399 18 3.74817V9.25052C18 9.66474 17.6642 10.0005 17.25 10.0005C16.8358 10.0005 16.5 9.66474 16.5 9.25052V6.11355C16.3986 6.1949 16.2945 6.27129 16.1886 6.34194C15.8439 6.5717 15.3783 6.47857 15.1485 6.13393C14.9187 5.78928 15.0119 5.32363 15.3565 5.09386C15.9731 4.68278 16.4201 4.03158 16.5171 3.58793C16.5601 3.3915 16.6764 3.23003 16.8311 3.126C16.9025 3.0778 16.9827 3.04158 17.0687 3.02022C17.146 3.00095 17.2271 2.99381 17.3095 3.0005ZM10.1996 15.0709C10.0611 14.9199 10 14.7303 10 14.5247V6.60787C10 6.38936 10.0656 6.18953 10.2123 6.0306L10.2158 6.02685C10.3671 5.8695 10.5613 5.79195 10.7794 5.79195C10.9967 5.79195 11.1904 5.86914 11.3387 6.02872C11.4898 6.18695 11.5588 6.38734 11.5588 6.60787V8.95554C11.7022 8.81541 11.8628 8.69307 12.0404 8.58895L12.0415 8.58833C12.4393 8.35777 12.8827 8.24428 13.3656 8.24428C14.2365 8.24428 14.9535 8.57361 15.4937 9.22993C16.0308 9.88237 16.287 10.7369 16.287 11.7681C16.287 12.8031 16.0309 13.6598 15.4937 14.3124C14.9525 14.9655 14.2285 15.292 13.3474 15.292C12.8536 15.292 12.4038 15.1791 12.005 14.9479L12.0039 14.9473C11.8217 14.8405 11.6567 14.7138 11.5091 14.5677C11.5001 14.7604 11.4294 14.9342 11.2909 15.0727C11.1422 15.2214 10.9527 15.292 10.7429 15.292C10.5366 15.292 10.3474 15.2255 10.2032 15.0748L10.1996 15.0709ZM12.0094 13.3101C12.3079 13.682 12.6789 13.8609 13.1405 13.8609C13.6281 13.8609 13.9952 13.6838 14.2693 13.3312C14.5497 12.9663 14.7039 12.4542 14.7039 11.7681C14.7039 11.0861 14.5498 10.5758 14.2689 10.2106C13.9944 9.85383 13.6274 9.67532 13.1405 9.67532C12.6796 9.67532 12.3086 9.85562 12.0097 10.2318C11.7126 10.6068 11.5527 11.1112 11.5527 11.7681C11.5527 12.4292 11.7127 12.9353 12.0094 13.3101ZM1.75 14.5171C1.75 14.7289 1.83467 14.9127 1.99273 15.0529L2.00059 15.0596C2.16224 15.1914 2.35831 15.2504 2.57107 15.2504C2.75178 15.2504 2.92128 15.2026 3.06448 15.0943C3.2055 14.9877 3.302 14.8363 3.36461 14.6631L4.10969 12.6379H7.38444L8.13539 14.6631L8.13578 14.6642C8.19839 14.8373 8.29456 14.9878 8.43552 15.0943C8.57872 15.2026 8.74822 15.2504 8.92893 15.2504C9.1414 15.2504 9.33811 15.1911 9.49727 15.0561C9.66023 14.917 9.75 14.7325 9.75 14.5171C9.75 14.3924 9.71519 14.2573 9.66359 14.1216L6.71293 6.43661C6.63263 6.22853 6.51396 6.05309 6.34683 5.93044C6.17799 5.80653 5.97861 5.75045 5.76269 5.75045C5.53889 5.75045 5.33239 5.80565 5.15781 5.92976C4.98412 6.05324 4.86141 6.23132 4.78038 6.44364L1.83612 14.1223C1.78453 14.258 1.75 14.3924 1.75 14.5171ZM6.8777 11.2018H4.6223L5.75 8.10448L6.8777 11.2018Z" fill="#212121"/>
</svg>
