<svg width="20" height="20" viewBox="0 0 20 20" fill="none" xmlns="http://www.w3.org/2000/svg">
<path d="M6 2C4.89543 2 4 2.89543 4 4V13H5V4C5 3.44772 5.44772 3 6 3H10V6.5C10 7.32843 10.6716 8 11.5 8H15V16C15 16.5523 14.5523 17 14 17H10.9646C10.9141 17.3531 10.8109 17.6891 10.6632 18H14C15.1046 18 16 17.1046 16 16V7.41421C16 7.01639 15.842 6.63486 15.5607 6.35355L11.6464 2.43934C11.3651 2.15804 10.9836 2 10.5858 2H6ZM14.7929 7H11.5C11.2239 7 11 6.77614 11 6.5V3.20711L14.7929 7ZM3.5 14C2.11929 14 1 15.1193 1 16.5C1 17.8807 2.11929 19 3.5 19H4C4.27614 19 4.5 18.7761 4.5 18.5C4.5 18.2239 4.27614 18 4 18H3.5C2.67157 18 2 17.3284 2 16.5C2 15.6716 2.67157 15 3.5 15H4C4.27614 15 4.5 14.7761 4.5 14.5C4.5 14.2239 4.27614 14 4 14H3.5ZM7 14C6.72386 14 6.5 14.2239 6.5 14.5C6.5 14.7761 6.72386 15 7 15H7.5C8.32843 15 9 15.6716 9 16.5C9 17.3284 8.32843 18 7.5 18H7C6.72386 18 6.5 18.2239 6.5 18.5C6.5 18.7761 6.72386 19 7 19H7.5C8.88071 19 10 17.8807 10 16.5C10 15.1193 8.88071 14 7.5 14H7ZM3 16.5C3 16.2239 3.22386 16 3.5 16H7.5C7.77614 16 8 16.2239 8 16.5C8 16.7761 7.77614 17 7.5 17H3.5C3.22386 17 3 16.7761 3 16.5Z" fill="#212121"/>
</svg>
