<svg width="16" height="16" viewBox="0 0 16 16" fill="none" xmlns="http://www.w3.org/2000/svg">
<path d="M1 4.75C1 3.7835 1.7835 3 2.75 3H13.25C14.2165 3 15 3.7835 15 4.75V6.93653C14.8227 6.81113 14.6247 6.711 14.4099 6.64235L14 6.51138V4.75C14 4.33579 13.6642 4 13.25 4H2.75C2.33579 4 2 4.33579 2 4.75V11.25C2 11.6642 2.33579 12 2.75 12H5V11C5 10.4477 5.44772 10 6 10H10C10.5523 10 11 10.4477 11 11V11.2051C10.641 11.1968 10.294 11.2999 10 11.4912V11H6V12H9.48425L9.00903 12.6982L8.93664 12.8173L8.92444 12.8399C8.89619 12.8922 8.87061 12.9457 8.84771 13H2.75C1.7835 13 1 12.2165 1 11.25V4.75ZM14.9191 8.50495C14.9721 8.73552 14.999 8.97729 15 9.23025V9.25821C14.9967 10.1322 14.6848 11.139 14.0641 12.2785C13.9338 12.5177 13.8015 12.7416 13.6672 12.95C13.6671 12.95 13.6672 12.95 13.6672 12.95C12.9702 14.0311 12.2188 14.6974 11.413 14.9488C11.0398 15.0652 10.6389 14.9806 10.3373 14.7274L10.2576 14.6542L9.94804 14.3434C9.67981 14.0741 9.62456 13.6481 9.80442 13.3148L9.85011 13.2396L10.3166 12.5542C10.4543 12.3519 10.6654 12.2295 10.89 12.2082C10.9348 12.204 10.9801 12.2037 11.0254 12.2077C11.0559 12.2103 11.0865 12.2148 11.1169 12.2213L11.199 12.2437L12.0603 12.5309C12.404 12.2708 12.6906 11.9434 12.92 11.5488C13.1167 11.2105 13.2454 10.8676 13.306 10.5202L13.3306 10.346L12.6135 9.66537C12.3772 9.44115 12.2914 9.09198 12.388 8.77773L12.4189 8.69301L12.7444 7.92552C12.897 7.56556 13.2626 7.36977 13.6212 7.44448L13.6979 7.46467L14.1055 7.5949C14.5096 7.72403 14.8191 8.07023 14.9191 8.50495ZM8 9C9.10457 9 10 8.10457 10 7C10 5.89543 9.10457 5 8 5C6.89543 5 6 5.89543 6 7C6 8.10457 6.89543 9 8 9ZM8 8C7.44772 8 7 7.55228 7 7C7 6.44772 7.44772 6 8 6C8.55228 6 9 6.44772 9 7C9 7.55228 8.55228 8 8 8Z" fill="#212121"/>
</svg>
