<svg width="28" height="28" viewBox="0 0 28 28" fill="none" xmlns="http://www.w3.org/2000/svg">
<path d="M3.28033 2.21967L25.7801 24.7198C26.073 25.0127 26.073 25.4876 25.7801 25.7805C25.4872 26.0734 25.0123 26.0734 24.7194 25.7805L21.4028 22.4638L21.4854 22.9455C21.6886 24.13 20.4453 25.0333 19.3816 24.4741L13.9996 21.6446L8.61763 24.4741C7.55387 25.0333 6.31059 24.13 6.51375 22.9455L7.54161 16.9526L3.18751 12.7084C2.32691 11.8695 2.80181 10.408 3.99112 10.2351L8.51676 9.57753L2.21967 3.28033C1.92677 2.98743 1.92678 2.51256 2.21967 2.21967C2.51257 1.92677 2.98744 1.92678 3.28033 2.21967ZM19.5658 20.6268L9.84019 10.901L4.30708 11.705L8.60745 15.8968C8.9492 16.2299 9.10514 16.7099 9.02447 17.1803L8.00929 23.0992L13.3248 20.3047C13.7473 20.0826 14.2519 20.0826 14.6743 20.3047L19.9899 23.0992L19.5658 20.6268Z" fill="#212121"/>
<path d="M10.8456 7.66439L11.9655 8.78439L13.9996 4.66296L16.6574 10.0482C16.8686 10.4762 17.2768 10.7728 17.7491 10.8414L23.6921 11.705L19.3917 15.8968C19.3381 15.9491 19.2891 16.0049 19.2448 16.0638L20.5246 17.3436L20.4576 16.9526L24.8117 12.7084C25.6723 11.8695 25.1974 10.408 24.0081 10.2351L17.9908 9.36079L15.2999 3.90826C14.768 2.83056 13.2312 2.83056 12.6993 3.90826L10.8456 7.66439Z" fill="#212121"/>
</svg>
