<svg width="16" height="16" viewBox="0 0 16 16" fill="none" xmlns="http://www.w3.org/2000/svg">
<path d="M12.3579 13.0651C12.4291 13.7676 11.6837 14.2853 11.0431 13.9485L8.00096 12.3491L4.95879 13.9485C4.29853 14.2956 3.52684 13.735 3.65294 12.9997L4.23394 9.61224L1.77277 7.2132C1.23861 6.69251 1.53337 5.78534 2.27156 5.67807L4.62842 5.3356L1.14645 1.85363C0.951184 1.65837 0.951184 1.34179 1.14645 1.14652C1.34171 0.951261 1.65829 0.951261 1.85355 1.14652L14.8536 14.1465C15.0488 14.3418 15.0488 14.6584 14.8536 14.8536C14.6583 15.0489 14.3417 15.0489 14.1464 14.8536L12.3579 13.0651ZM11.136 11.8432L5.51072 6.2179L2.61588 6.63854L4.9696 8.93285C5.18172 9.13961 5.27851 9.43752 5.22843 9.72947L4.6728 12.9691L7.58215 11.4395C7.84434 11.3017 8.15758 11.3017 8.41977 11.4395L11.3291 12.9691L11.136 11.8432Z" fill="#212121"/>
<path d="M13.386 6.63854L11.0434 8.92206L11.7751 9.65376L11.768 9.61224L14.2291 7.2132C14.7633 6.69251 14.4685 5.78534 13.7304 5.67807L10.3291 5.18384L8.80802 2.10179C8.47789 1.43287 7.52403 1.43287 7.1939 2.10179L6.21222 4.09088L6.95888 4.83754L8.00096 2.72605L9.45564 5.67355C9.58673 5.93918 9.84014 6.12329 10.1333 6.16589L13.386 6.63854Z" fill="#212121"/>
</svg>
