<svg width="28" height="28" viewBox="0 0 28 28" fill="none" xmlns="http://www.w3.org/2000/svg">
<path d="M3.28033 2.21979C2.98744 1.92689 2.51257 1.92689 2.21967 2.21978C1.92678 2.51267 1.92677 2.98754 2.21967 3.28044L8.51676 9.57764L3.99112 10.2353C2.80181 10.4081 2.32691 11.8696 3.18751 12.7085L7.54161 16.9527L6.51375 22.9456C6.31059 24.1301 7.55387 25.0334 8.61763 24.4742L13.9996 21.6447L19.3816 24.4742C20.4453 25.0334 21.6886 24.1301 21.4854 22.9456L21.4028 22.4639L24.7194 25.7806C25.0123 26.0735 25.4872 26.0735 25.7801 25.7806C26.073 25.4877 26.073 25.0128 25.7801 24.7199L3.28033 2.21979Z" fill="#212121"/>
<path d="M10.8456 7.66451L20.5246 17.3437L20.4576 16.9527L24.8117 12.7085C25.6723 11.8696 25.1974 10.4081 24.0081 10.2353L17.9908 9.3609L15.2999 3.90838C14.768 2.83067 13.2312 2.83067 12.6993 3.90838L10.8456 7.66451Z" fill="#212121"/>
</svg>
