<svg width="20" height="20" viewBox="0 0 20 20" fill="none" xmlns="http://www.w3.org/2000/svg">
<path d="M3 5C3 3.89543 3.89543 3 5 3H6L6 6.5C6 7.32843 6.67157 8 7.5 8L11.5 8C12.3284 8 13 7.32843 13 6.5V3H13.3787C13.9091 3 14.4178 3.21071 14.7929 3.58579L16.4142 5.20711C16.7893 5.58218 17 6.09089 17 6.62132V15C17 16.1046 16.1046 17 15 17V11.5C15 10.6716 14.3284 10 13.5 10H9.32901C7.56173 8.56797 4.96207 8.67397 3.31802 10.318C3.20471 10.4313 3.0987 10.5492 3 10.671V5ZM10.5616 15.4403L12.1213 17H14V11.5C14 11.2239 13.7761 11 13.5 11H10.2427C11.1317 12.3278 11.238 14.0243 10.5616 15.4403ZM12 3H7L7 6.5C7 6.77614 7.22386 7 7.5 7L11.5 7C11.7761 7 12 6.77614 12 6.5V3ZM10 13.5C10 14.2862 9.7408 15.0118 9.30319 15.5961L11.8536 18.1464C12.0488 18.3417 12.0488 18.6583 11.8536 18.8536C11.6583 19.0488 11.3417 19.0488 11.1464 18.8536L8.59609 16.3032C8.0118 16.7408 7.28617 17 6.5 17C4.567 17 3 15.433 3 13.5C3 11.567 4.567 10 6.5 10C8.433 10 10 11.567 10 13.5ZM4 13.5C4 14.8807 5.11929 16 6.5 16C7.88071 16 9 14.8807 9 13.5C9 12.1193 7.88071 11 6.5 11C5.11929 11 4 12.1193 4 13.5Z" fill="#212121"/>
</svg>
