<svg width="24" height="24" viewBox="0 0 24 24" fill="none" xmlns="http://www.w3.org/2000/svg">
<path d="M10.6408 2.54728C10.7713 2.525 10.9055 2.53779 11.0295 2.58434L18.2632 5.29948C18.5505 5.40733 18.7428 5.67972 18.7483 5.98657C18.7537 6.29343 18.5712 6.57249 18.2879 6.6905L17.429 7.04829C16.5972 7.39475 15.897 7.99649 15.4294 8.76669L14.8878 9.6588C14.9729 10.2101 15.2351 10.9084 15.6072 11.6289C15.9929 12.3758 16.4591 13.0749 16.8566 13.5569L19.2387 14.7483C20.1696 15.2139 20.7575 16.1654 20.7575 17.2062V20.0024C20.7575 20.4156 20.4226 20.7505 20.0094 20.7505H19.172C15.6493 20.7505 11.6517 19.575 8.33277 17.8009C5.04587 16.044 2.24157 13.6001 1.3423 10.9369C1.27553 10.7392 1.29439 10.5226 1.39433 10.3393C1.73475 9.71524 2.10014 9.13411 2.48137 8.59447C2.65507 8.3486 2.96175 8.01961 3.21752 7.74935C3.28187 7.68136 3.34395 7.6161 3.40292 7.55411C3.60452 7.34218 3.7698 7.16843 3.86526 7.0542C3.87154 7.04668 3.87798 7.03928 3.88455 7.03201C4.21798 6.66344 4.6847 6.19245 5.23604 5.69565C5.94833 5.05382 6.81651 4.3557 7.73568 3.77667C8.64562 3.20345 9.65435 2.71562 10.6408 2.54728ZM15.4573 14.1983C15.0533 13.6643 14.6327 13.0028 14.2778 12.3154C13.8989 11.5818 13.5634 10.7589 13.4269 9.99315L12.1532 9.40349L13.7262 13.3682C13.7982 13.5498 13.7964 13.7524 13.721 13.9327L13.0493 15.539L14.2629 15.9875L15.4573 14.1983ZM15.7488 16.4566C17.0111 16.8205 17.6777 17.0085 19.2613 17.2184V17.2062C19.2613 16.732 18.9934 16.2986 18.5694 16.0865L16.64 15.1215L15.7488 16.4566ZM19.2613 18.7271C17.3912 18.4874 16.6532 18.2746 15.2606 17.873C14.9881 17.7945 14.6905 17.7086 14.3545 17.614C14.3355 17.6086 14.3166 17.6025 14.298 17.5956L11.7987 16.672C11.7775 16.6642 11.7567 16.6554 11.7363 16.6457C9.65903 15.6561 8.49706 14.9266 7.05286 13.8707C5.2948 12.5852 3.9886 11.3295 3.13688 10.3161C3.04746 10.4614 2.95945 10.6095 2.87299 10.7604C3.7019 12.7805 6.0065 14.8609 9.03811 16.4814C12.1891 18.1656 15.9455 19.2542 19.172 19.2542H19.2613V18.7271ZM4.04249 9.05837C4.63826 9.81891 5.61134 10.8317 6.97734 11.9286L7.4021 9.59247L5.65178 7.35648C5.3967 7.60555 5.17739 7.83373 5.00317 8.02583C4.87259 8.18053 4.66336 8.40031 4.46057 8.61332C4.40752 8.66905 4.35491 8.72432 4.30426 8.77784C4.20982 8.87762 4.12165 8.97189 4.04249 9.05837ZM6.76356 6.34935L8.78735 8.93469C8.91905 9.10293 8.97253 9.31945 8.93431 9.52966L8.31483 12.9367C9.35281 13.6775 10.282 14.2552 11.6735 14.9506L12.223 13.6366L10.0712 8.21301C9.95833 7.92847 10.0302 7.60386 10.2526 7.39354C10.475 7.18321 10.8031 7.12961 11.0809 7.25822L13.8239 8.52811L14.1504 7.99019C14.6278 7.20386 15.2846 6.5474 16.0618 6.07139L10.7029 4.05994C10.0407 4.20994 9.2955 4.56245 8.53319 5.04267C7.91358 5.43299 7.30925 5.89064 6.76356 6.34935Z" fill="#212121"/>
</svg>
