<svg width="16" height="16" viewBox="0 0 16 16" fill="none" xmlns="http://www.w3.org/2000/svg">
<path d="M4.83044 3.3108C5.64713 2.48205 6.76915 2.00098 7.99806 2.00098C9.23825 2.00098 10.3652 2.48999 11.1819 3.28536C11.9938 4.07603 12.5012 5.17269 12.5012 6.38719C12.5012 7.68021 11.9173 8.83025 10.8834 9.82466L10.5767 10.9999H8.50134V7.50012C8.50134 7.22398 8.27749 7.00012 8.00134 7.00012C7.7252 7.00012 7.50134 7.22398 7.50134 7.50012V10.9999H5.46603L5.2364 10.0365C4.15415 8.9072 3.55611 7.81923 3.49942 6.58224L3.49854 6.56295L3.49914 6.54365C3.53982 5.24847 4.03189 4.12114 4.83044 3.3108ZM7.50012 4.49869V5.49868C7.50012 5.77482 7.72398 5.99868 8.00012 5.99868C8.27626 5.99868 8.50012 5.77482 8.50012 5.49868V4.49869C8.50012 4.22255 8.27626 3.99869 8.00012 3.99869C7.72398 3.99869 7.50012 4.22255 7.50012 4.49869ZM10.5778 5.29409C10.3825 5.09883 10.0659 5.09883 9.87068 5.29409L9.16358 6.00119C8.96831 6.19645 8.96831 6.51303 9.16358 6.7083C9.35884 6.90356 9.67542 6.90356 9.87068 6.7083L10.5778 6.0012C10.773 5.80594 10.773 5.48935 10.5778 5.29409ZM6.10076 5.29409C5.9055 5.09883 5.58892 5.09883 5.39365 5.29409C5.19839 5.48935 5.19839 5.80594 5.39365 6.0012L6.10075 6.7083C6.29601 6.90356 6.6126 6.90356 6.80786 6.7083C7.00312 6.51303 7.00312 6.19645 6.80786 6.00119L6.10076 5.29409ZM5.70438 11.9999L5.93751 12.9781L5.94478 12.9996C6.04506 13.2972 6.23732 13.5442 6.47926 13.7173C6.73012 13.8967 7.03709 13.9989 7.36154 13.9989L7.36295 13.9989L8.74641 13.9949L8.76718 13.9932C9.08182 13.966 9.37411 13.8427 9.60715 13.6475C9.83822 13.4539 10.0129 13.1874 10.0875 12.8744L10.3157 11.9999H5.70438Z" fill="#212121"/>
</svg>
