<svg width="20" height="20" viewBox="0 0 20 20" fill="none" xmlns="http://www.w3.org/2000/svg">
<path d="M11.017 17.9946C11.822 17.935 12.5029 17.3769 12.6876 16.6062L13.6529 12.5731C13.662 12.535 13.6823 12.5004 13.7116 12.4734C15.2258 11.0754 16.0001 9.51 16.0001 7.80069C16.0001 4.59733 13.3139 2.00049 10.0003 2.00049C6.68668 2.00049 4.00049 4.59732 4.00049 7.80069C4.00049 9.50999 4.77522 11.0754 6.29035 12.4735C6.31959 12.5004 6.34001 12.5351 6.3491 12.5732L7.31184 16.6049L7.34943 16.7387C7.59085 17.484 8.30731 17.9999 9.12609 17.9999H10.8737L11.017 17.9946Z" fill="url(#paint0_radial_71639_14226)"/>
<path d="M11.017 17.9946C11.822 17.935 12.5029 17.3769 12.6876 16.6062L13.6529 12.5731C13.662 12.535 13.6823 12.5004 13.7116 12.4734C15.2258 11.0754 16.0001 9.51 16.0001 7.80069C16.0001 4.59733 13.3139 2.00049 10.0003 2.00049C6.68668 2.00049 4.00049 4.59732 4.00049 7.80069C4.00049 9.50999 4.77522 11.0754 6.29035 12.4735C6.31959 12.5004 6.34001 12.5351 6.3491 12.5732L7.31184 16.6049L7.34943 16.7387C7.59085 17.484 8.30731 17.9999 9.12609 17.9999H10.8737L11.017 17.9946Z" fill="url(#paint1_linear_71639_14226)"/>
<path d="M11.017 17.9946C11.822 17.935 12.5029 17.3769 12.6876 16.6062L13.6529 12.5731C13.662 12.535 13.6823 12.5004 13.7116 12.4734C15.2258 11.0754 16.0001 9.51 16.0001 7.80069C16.0001 4.59733 13.3139 2.00049 10.0003 2.00049C6.68668 2.00049 4.00049 4.59732 4.00049 7.80069C4.00049 9.50999 4.77522 11.0754 6.29035 12.4735C6.31959 12.5004 6.34001 12.5351 6.3491 12.5732L7.31184 16.6049L7.34943 16.7387C7.59085 17.484 8.30731 17.9999 9.12609 17.9999H10.8737L11.017 17.9946Z" fill="url(#paint2_radial_71639_14226)" fill-opacity="0.2"/>
<path d="M11.017 17.9946C11.822 17.935 12.5029 17.3769 12.6876 16.6062L13.6529 12.5731C13.662 12.535 13.6823 12.5004 13.7116 12.4734C15.2258 11.0754 16.0001 9.51 16.0001 7.80069C16.0001 4.59733 13.3139 2.00049 10.0003 2.00049C6.68668 2.00049 4.00049 4.59732 4.00049 7.80069C4.00049 9.50999 4.77522 11.0754 6.29035 12.4735C6.31959 12.5004 6.34001 12.5351 6.3491 12.5732L7.31184 16.6049L7.34943 16.7387C7.59085 17.484 8.30731 17.9999 9.12609 17.9999H10.8737L11.017 17.9946Z" fill="url(#paint3_radial_71639_14226)" fill-opacity="0.2"/>
<path d="M11.017 17.9946C11.822 17.935 12.5029 17.3769 12.6876 16.6062L13.6529 12.5731C13.662 12.535 13.6823 12.5004 13.7116 12.4734C15.2258 11.0754 16.0001 9.51 16.0001 7.80069C16.0001 4.59733 13.3139 2.00049 10.0003 2.00049C6.68668 2.00049 4.00049 4.59732 4.00049 7.80069C4.00049 9.50999 4.77522 11.0754 6.29035 12.4735C6.31959 12.5004 6.34001 12.5351 6.3491 12.5732L7.31184 16.6049L7.34943 16.7387C7.59085 17.484 8.30731 17.9999 9.12609 17.9999H10.8737L11.017 17.9946Z" fill="url(#paint4_radial_71639_14226)" fill-opacity="0.2"/>
<path d="M11.017 17.9946C11.822 17.935 12.5029 17.3769 12.6876 16.6062L13.6529 12.5731C13.662 12.535 13.6823 12.5004 13.7116 12.4734C15.2258 11.0754 16.0001 9.51 16.0001 7.80069C16.0001 4.59733 13.3139 2.00049 10.0003 2.00049C6.68668 2.00049 4.00049 4.59732 4.00049 7.80069C4.00049 9.50999 4.77522 11.0754 6.29035 12.4735C6.31959 12.5004 6.34001 12.5351 6.3491 12.5732L7.31184 16.6049L7.34943 16.7387C7.59085 17.484 8.30731 17.9999 9.12609 17.9999H10.8737L11.017 17.9946Z" fill="url(#paint5_radial_71639_14226)" fill-opacity="0.2"/>
<rect x="9.48779" y="8.99854" width="1.02302" height="5.56142" rx="0.511511" fill="url(#paint6_linear_71639_14226)"/>
<rect x="9.50293" y="6.00488" width="0.992283" height="1.98834" rx="0.496141" fill="url(#paint7_linear_71639_14226)"/>
<path d="M7.13234 8.1594C6.92854 7.9556 6.92854 7.62519 7.13234 7.4214C7.33613 7.21761 7.66654 7.21761 7.87033 7.4214L8.55666 8.10772C8.76045 8.31152 8.76045 8.64193 8.55666 8.84572C8.35287 9.04951 8.02245 9.04951 7.81866 8.84572L7.13234 8.1594Z" fill="url(#paint8_linear_71639_14226)"/>
<path d="M12.8657 8.15938C13.0695 7.95559 13.0695 7.62519 12.8657 7.4214C12.6619 7.21761 12.3315 7.21761 12.1277 7.4214L11.4414 8.10771C11.2376 8.3115 11.2376 8.6419 11.4414 8.84569C11.6452 9.04948 11.9756 9.04948 12.1794 8.84569L12.8657 8.15938Z" fill="url(#paint9_linear_71639_14226)"/>
<path d="M6.92873 15H13.0721L13.3115 14H6.68994L6.92873 15Z" fill="url(#paint10_linear_71639_14226)"/>
<defs>
<radialGradient id="paint0_radial_71639_14226" cx="0" cy="0" r="1" gradientUnits="userSpaceOnUse" gradientTransform="translate(5.99981 3.57124) rotate(73.9841) scale(14.2991 21.7659)">
<stop stop-color="#FFE06B"/>
<stop offset="0.376456" stop-color="#FFA43D"/>
<stop offset="1" stop-color="#E67505"/>
</radialGradient>
<linearGradient id="paint1_linear_71639_14226" x1="10.0003" y1="2.00049" x2="10.0003" y2="17.9999" gradientUnits="userSpaceOnUse">
<stop offset="0.765622" stop-color="#D34719" stop-opacity="0"/>
<stop offset="0.791013" stop-color="#D34719"/>
<stop offset="1" stop-color="#D34719" stop-opacity="0"/>
</linearGradient>
<radialGradient id="paint2_radial_71639_14226" cx="0" cy="0" r="1" gradientUnits="userSpaceOnUse" gradientTransform="translate(7.92188 8.4375) rotate(54.8658) scale(1.54759 1.23733)">
<stop offset="0.165145" stop-color="#741C06"/>
<stop offset="0.854115" stop-color="#741C06" stop-opacity="0"/>
</radialGradient>
<radialGradient id="paint3_radial_71639_14226" cx="0" cy="0" r="1" gradientUnits="userSpaceOnUse" gradientTransform="translate(10.0003 7.28125) rotate(90) scale(1.70312 1.27734)">
<stop offset="0.165145" stop-color="#741C06"/>
<stop offset="0.854115" stop-color="#741C06" stop-opacity="0"/>
</radialGradient>
<radialGradient id="paint4_radial_71639_14226" cx="0" cy="0" r="1" gradientUnits="userSpaceOnUse" gradientTransform="translate(12.3437 8.53125) rotate(130.752) scale(1.53839 1.15379)">
<stop offset="0.165145" stop-color="#741C06"/>
<stop offset="0.854115" stop-color="#741C06" stop-opacity="0"/>
</radialGradient>
<radialGradient id="paint5_radial_71639_14226" cx="0" cy="0" r="1" gradientUnits="userSpaceOnUse" gradientTransform="translate(10.0003 11.7187) rotate(-180) scale(1.53152 4.41097)">
<stop offset="0.165145" stop-color="#741C06"/>
<stop offset="0.777027" stop-color="#741C06" stop-opacity="0"/>
</radialGradient>
<linearGradient id="paint6_linear_71639_14226" x1="9.9993" y1="8.99854" x2="9.9993" y2="14.5629" gradientUnits="userSpaceOnUse">
<stop stop-color="#FFF2BE"/>
<stop offset="0.43735" stop-color="#FFD638"/>
</linearGradient>
<linearGradient id="paint7_linear_71639_14226" x1="9.50293" y1="6.99905" x2="10.4952" y2="6.99905" gradientUnits="userSpaceOnUse">
<stop stop-color="#FFF2BE"/>
<stop offset="1" stop-color="#FFD638"/>
</linearGradient>
<linearGradient id="paint8_linear_71639_14226" x1="7.49511" y1="8.4931" x2="8.19711" y2="7.7911" gradientUnits="userSpaceOnUse">
<stop stop-color="#FFF2BE"/>
<stop offset="1" stop-color="#FFD638"/>
</linearGradient>
<linearGradient id="paint9_linear_71639_14226" x1="11.7742" y1="7.81748" x2="12.4709" y2="8.51419" gradientUnits="userSpaceOnUse">
<stop stop-color="#FFF2BE"/>
<stop offset="1" stop-color="#FFD638"/>
</linearGradient>
<linearGradient id="paint10_linear_71639_14226" x1="9.47695" y1="14.3972" x2="10.2314" y2="16.3962" gradientUnits="userSpaceOnUse">
<stop stop-color="#FFC7A3"/>
<stop offset="1" stop-color="#FF9C70"/>
</linearGradient>
</defs>
</svg>
