<svg width="32" height="32" viewBox="0 0 32 32" fill="none" xmlns="http://www.w3.org/2000/svg">
<path d="M21.124 25.7989L20.7031 27.5609C20.3798 28.9096 19.188 29.8864 17.7793 29.9907L17.5286 30H14.4701C13.0372 30 11.7834 29.0971 11.3609 27.7928L11.2951 27.5586L10.8746 25.7989H21.124ZM16 2C21.799 2 26.5 6.54463 26.5 12.1507C26.5 15.1421 25.145 17.8817 22.495 20.3283C22.4439 20.3755 22.4082 20.4361 22.3923 20.5026L21.628 23.6987H17.0862V14.2499C17.0862 13.6699 16.5999 13.1998 16 13.1998C15.4001 13.1998 14.9138 13.6699 14.9138 14.2499V23.6987H10.372L9.61022 20.5029C9.59431 20.4362 9.55857 20.3756 9.5074 20.3284C6.85582 17.8817 5.5 15.1421 5.5 12.1507C5.5 6.54462 10.201 2 16 2ZM14.9138 8.65012V10.7503C14.9138 11.3303 15.4001 11.8004 16 11.8004C16.5999 11.8004 17.0862 11.3303 17.0862 10.7503V8.65012C17.0862 8.07018 16.5999 7.60005 16 7.60005C15.4001 7.60005 14.9138 8.07018 14.9138 8.65012ZM22.1991 10.7017C21.7749 10.2917 21.0872 10.2917 20.663 10.7017L19.1268 12.1868C18.7026 12.5969 18.7026 13.2617 19.1268 13.6718C19.551 14.0819 20.2388 14.0819 20.663 13.6718L22.1991 12.1868C22.6233 11.7767 22.6233 11.1118 22.1991 10.7017ZM11.337 10.7017C10.9128 10.2917 10.2251 10.2917 9.80089 10.7017C9.3767 11.1118 9.3767 11.7767 9.80089 12.1868L11.3371 13.6718C11.7612 14.0819 12.449 14.0819 12.8732 13.6718C13.2974 13.2617 13.2974 12.5969 12.8732 12.1868L11.337 10.7017Z" fill="#212121"/>
</svg>
