<svg width="16" height="16" viewBox="0 0 16 16" fill="none" xmlns="http://www.w3.org/2000/svg">
<path d="M10.0438 1.49793C10.1831 1.10786 10.6122 0.904587 11.0023 1.0439C11.2163 1.13391 11.0033 1.04424 11.0033 1.04424L11.0043 1.04461L11.0066 1.04545L11.0123 1.04751L11.0273 1.05317C11.039 1.05764 11.0541 1.06351 11.0722 1.07089C11.1084 1.08563 11.157 1.10639 11.2163 1.13391C11.3347 1.18889 11.4962 1.2711 11.6862 1.38644C12.0658 1.61694 12.5626 1.98179 13.0566 2.52867C14.0568 3.63603 15 5.44037 15 8.24985C15 8.66405 14.6642 8.99982 14.25 8.99982C13.8358 8.99982 13.5 8.66405 13.5 8.24985C13.5 5.8096 12.6932 4.36409 11.9435 3.53405C11.5625 3.11222 11.1843 2.83647 10.9077 2.66856C10.7696 2.58469 10.6576 2.52824 10.5846 2.49435C10.5482 2.47743 10.5216 2.46622 10.5066 2.46009L10.4929 2.45467C10.106 2.31353 9.90504 1.88635 10.0438 1.49793ZM7.19774 3.47493C7.08468 3.18853 6.80805 3.00033 6.50013 3.00033C6.19221 3.00033 5.91558 3.18853 5.80252 3.47493L2.05258 12.9745C1.9005 13.3597 2.08954 13.7953 2.47482 13.9474C2.8601 14.0995 3.29571 13.9105 3.44779 13.5252L4.34595 11.2499H8.65431L9.55247 13.5252C9.70455 13.9105 10.1402 14.0995 10.5254 13.9474C10.9107 13.7953 11.0998 13.3597 10.9477 12.9745L7.19774 3.47493ZM8.06221 9.75H4.93805L6.50013 5.79287L8.06221 9.75ZM10.7302 3.67415C10.412 3.40899 9.93904 3.45198 9.67387 3.77017C9.40916 4.08782 9.45121 4.55937 9.76793 4.82478L9.77389 4.82994C9.78045 4.83565 9.79195 4.84582 9.8077 4.86025C9.83924 4.88917 9.88747 4.93489 9.94686 4.99593C10.0663 5.11869 10.2271 5.29951 10.3873 5.52649C10.7141 5.98948 11 6.58872 11 7.25014C11 7.66434 11.3358 8.00011 11.75 8.00011C12.1642 8.00011 12.5 7.66434 12.5 7.25014C12.5 6.16165 12.0359 5.26097 11.6127 4.66151C11.398 4.35726 11.1837 4.11622 11.0219 3.94994C10.9407 3.86646 10.8717 3.80085 10.8213 3.75458C10.796 3.73141 10.7753 3.71302 10.7599 3.69957L10.7408 3.68311L10.7344 3.67768L10.732 3.67568L10.731 3.67486L10.7302 3.67415ZM9.76793 4.82478L9.76919 4.82584Z" fill="#212121"/>
</svg>
