<svg width="13" height="12" viewBox="0 0 13 12" fill="none" xmlns="http://www.w3.org/2000/svg">
<path d="M11.416 6C11.416 8.76142 9.17744 11 6.41602 11C3.65459 11 1.41602 8.76142 1.41602 6C1.41602 3.23858 3.65459 1 6.41602 1C9.17744 1 11.416 3.23858 11.416 6ZM9.91602 6C9.91602 5.30513 9.71352 4.65755 9.36432 4.11306L4.52908 8.9483C5.07357 9.2975 5.72114 9.5 6.41602 9.5C8.34901 9.5 9.91602 7.933 9.91602 6ZM8.30381 3.05225C7.75914 2.70271 7.11125 2.5 6.41602 2.5C4.48302 2.5 2.91602 4.067 2.91602 6C2.91602 6.69524 3.11872 7.34313 3.46826 7.88779L8.30381 3.05225Z" fill="#212121"/>
</svg>
