<svg width="16" height="16" viewBox="0 0 16 16" fill="none" xmlns="http://www.w3.org/2000/svg">
<path d="M2.75 1C1.7835 1 1 1.7835 1 2.75V11.25C1 12.2165 1.7835 13 2.75 13H6.20703C6.11588 12.6777 6.05337 12.3434 6.02242 12H2.75C2.33579 12 2 11.6642 2 11.25V2.75C2 2.33579 2.33579 2 2.75 2H11.25C11.6642 2 12 2.33579 12 2.75V6.02242C12.3434 6.05337 12.6777 6.11588 13 6.20703V2.75C13 1.7835 12.2165 1 11.25 1H2.75ZM6.5 9.20551C6.75187 8.65757 7.09115 8.15813 7.5 7.72506V7.5C7.5 7.22386 7.27614 7 7 7C6.72386 7 6.5 7.22386 6.5 7.5V9.20551ZM9 6.59971C9.31679 6.43777 9.65136 6.30564 10 6.20703V4.5C10 4.22386 9.77614 4 9.5 4C9.22386 4 9 4.22386 9 4.5V6.59971ZM5 5.5C5 5.22386 4.77614 5 4.5 5C4.22386 5 4 5.22386 4 5.5V9.5C4 9.77614 4.22386 10 4.5 10C4.77614 10 5 9.77614 5 9.5V5.5ZM16 11.5C16 13.9853 13.9853 16 11.5 16C9.01472 16 7 13.9853 7 11.5C7 9.01472 9.01472 7 11.5 7C13.9853 7 16 9.01472 16 11.5ZM13.1464 9.64645L10.5 12.2929L9.85355 11.6464C9.65829 11.4512 9.34171 11.4512 9.14645 11.6464C8.95118 11.8417 8.95118 12.1583 9.14645 12.3536L10.1464 13.3536C10.3417 13.5488 10.6583 13.5488 10.8536 13.3536L13.8536 10.3536C14.0488 10.1583 14.0488 9.84171 13.8536 9.64645C13.6583 9.45118 13.3417 9.45118 13.1464 9.64645Z" fill="#212121"/>
</svg>
