<svg width="24" height="24" viewBox="0 0 24 24" fill="none" xmlns="http://www.w3.org/2000/svg">
<path d="M5.25 4C3.45507 4 2 5.45507 2 7.25V16.75C2 18.5449 3.45508 20 5.25 20H11.1991C11.2806 19.8441 11.3859 19.6999 11.5126 19.5732L12.5858 18.5H9.5V5.5H18.75C19.7165 5.5 20.5 6.2835 20.5 7.25V11.1115C21.044 11.235 21.5506 11.457 22 11.7578V7.25C22 5.45507 20.5449 4 18.75 4H5.25ZM23 15.5C23 17.433 21.433 19 19.5 19H18V20C18 20.2761 17.7761 20.5 17.5 20.5H16.5V21.5C16.5 21.7761 16.2761 22 16 22H15V22.5C15 22.7761 14.7761 23 14.5 23H12.75C12.3358 23 12 22.6642 12 22.25V20.8107C12 20.6117 12.079 20.421 12.2197 20.2803L15.9697 16.5303C16.0159 16.4841 16.0666 16.4452 16.1204 16.4136C16.0419 16.1223 16 15.8161 16 15.5C16 13.567 17.567 12 19.5 12C21.433 12 23 13.567 23 15.5ZM20 16C20.5523 16 21 15.5523 21 15C21 14.4477 20.5523 14 20 14C19.4477 14 19 14.4477 19 15C19 15.5523 19.4477 16 20 16Z" fill="#212121"/>
</svg>
