<svg width="24" height="24" viewBox="0 0 24 24" fill="none" xmlns="http://www.w3.org/2000/svg">
<path fill-rule="evenodd" clip-rule="evenodd" d="M11 11.5V8.5H12.5V11.5H15.75C16.9926 11.5 18 12.5074 18 13.75V16H16.5V13.75C16.5 13.3358 16.1642 13 15.75 13H7.75C7.33579 13 7 13.3358 7 13.75V16H5.5V13.75C5.5 12.5074 6.50736 11.5 7.75 11.5H11Z" fill="url(#paint0_linear_378174_9213)"/>
<path fill-rule="evenodd" clip-rule="evenodd" d="M11 11.5V8.5H12.5V11.5H15.75C16.9926 11.5 18 12.5074 18 13.75V16H16.5V13.75C16.5 13.3358 16.1642 13 15.75 13H7.75C7.33579 13 7 13.3358 7 13.75V16H5.5V13.75C5.5 12.5074 6.50736 11.5 7.75 11.5H11Z" fill="url(#paint1_radial_378174_9213)"/>
<path fill-rule="evenodd" clip-rule="evenodd" d="M11 11.5V8.5H12.5V11.5H15.75C16.9926 11.5 18 12.5074 18 13.75V16H16.5V13.75C16.5 13.3358 16.1642 13 15.75 13H7.75C7.33579 13 7 13.3358 7 13.75V16H5.5V13.75C5.5 12.5074 6.50736 11.5 7.75 11.5H11Z" fill="url(#paint2_radial_378174_9213)"/>
<path fill-rule="evenodd" clip-rule="evenodd" d="M11 11.5V8.5H12.5V11.5H15.75C16.9926 11.5 18 12.5074 18 13.75V16H16.5V13.75C16.5 13.3358 16.1642 13 15.75 13H7.75C7.33579 13 7 13.3358 7 13.75V16H5.5V13.75C5.5 12.5074 6.50736 11.5 7.75 11.5H11Z" fill="url(#paint3_radial_378174_9213)"/>
<path d="M10 18.25C10 20.3211 8.32107 22 6.25 22C4.17893 22 2.5 20.3211 2.5 18.25C2.5 16.1789 4.17893 14.5 6.25 14.5C8.32107 14.5 10 16.1789 10 18.25Z" fill="url(#paint4_radial_378174_9213)"/>
<path d="M21 18.25C21 20.3211 19.3211 22 17.25 22C15.1789 22 13.5 20.3211 13.5 18.25C13.5 16.1789 15.1789 14.5 17.25 14.5C19.3211 14.5 21 16.1789 21 18.25Z" fill="url(#paint5_radial_378174_9213)"/>
<path d="M15.5 5.75C15.5 7.82107 13.8211 9.5 11.75 9.5C9.67893 9.5 8 7.82107 8 5.75C8 3.67893 9.67893 2 11.75 2C13.8211 2 15.5 3.67893 15.5 5.75Z" fill="url(#paint6_radial_378174_9213)"/>
<defs>
<linearGradient id="paint0_linear_378174_9213" x1="5.5" y1="8.5" x2="7.23551" y2="16.7648" gradientUnits="userSpaceOnUse">
<stop stop-color="#B9C0C7"/>
<stop offset="1" stop-color="#70777D"/>
</linearGradient>
<radialGradient id="paint1_radial_378174_9213" cx="0" cy="0" r="1" gradientUnits="userSpaceOnUse" gradientTransform="translate(11.75 6.24639) rotate(90) scale(4.5613 7.60216)">
<stop offset="0.55336" stop-color="#70777D"/>
<stop offset="1" stop-color="#70777D" stop-opacity="0"/>
</radialGradient>
<radialGradient id="paint2_radial_378174_9213" cx="0" cy="0" r="1" gradientUnits="userSpaceOnUse" gradientTransform="translate(6.125 17.7488) rotate(-90.2397) scale(4.66951 7.7825)">
<stop offset="0.548597" stop-color="#70777D"/>
<stop offset="1" stop-color="#70777D" stop-opacity="0"/>
</radialGradient>
<radialGradient id="paint3_radial_378174_9213" cx="0" cy="0" r="1" gradientUnits="userSpaceOnUse" gradientTransform="translate(17.3555 17.7308) rotate(-89.5151) scale(4.61555 7.6925)">
<stop offset="0.548597" stop-color="#70777D"/>
<stop offset="1" stop-color="#70777D" stop-opacity="0"/>
</radialGradient>
<radialGradient id="paint4_radial_378174_9213" cx="0" cy="0" r="1" gradientUnits="userSpaceOnUse" gradientTransform="translate(-2.03125 6.14063) rotate(53.6156) scale(20.282 17.3706)">
<stop offset="0.528807" stop-color="#1EC8B0"/>
<stop offset="1" stop-color="#1A7F7C"/>
</radialGradient>
<radialGradient id="paint5_radial_378174_9213" cx="0" cy="0" r="1" gradientUnits="userSpaceOnUse" gradientTransform="translate(8.96875 6.14063) rotate(53.6156) scale(20.282 17.3706)">
<stop offset="0.528807" stop-color="#7B7BFF"/>
<stop offset="1" stop-color="#4A43CB"/>
</radialGradient>
<radialGradient id="paint6_radial_378174_9213" cx="0" cy="0" r="1" gradientUnits="userSpaceOnUse" gradientTransform="translate(3.46875 -6.35937) rotate(53.6156) scale(20.282 17.3706)">
<stop offset="0.528807" stop-color="#0FAFFF"/>
<stop offset="1" stop-color="#0067BF"/>
</radialGradient>
</defs>
</svg>
