<svg width="20" height="20" viewBox="0 0 20 20" fill="none" xmlns="http://www.w3.org/2000/svg">
<path d="M10.0024 2.48303C10.0204 2.75859 9.8116 2.99657 9.53604 3.01458C5.88659 3.25312 3 6.2894 3 9.99947C3 13.8655 6.13401 16.9995 10 16.9995C13.7105 16.9995 16.747 14.1122 16.985 10.4622C17.0029 10.1867 17.2409 9.97786 17.5164 9.99582C17.792 10.0138 18.0008 10.2517 17.9828 10.5273C17.7108 14.6998 14.241 17.9995 10 17.9995C5.58172 17.9995 2 14.4177 2 9.99947C2 5.75897 5.29899 2.2894 9.47082 2.01671C9.74637 1.9987 9.98436 2.20748 10.0024 2.48303ZM11.0071 2.54975C11.062 2.2791 11.3258 2.10415 11.5964 2.15898C12.1561 2.27236 12.6946 2.44416 13.2053 2.6677C13.4583 2.77844 13.5736 3.07328 13.4628 3.32624C13.3521 3.57921 13.0573 3.69451 12.8043 3.58377C12.3579 3.38835 11.8872 3.23819 11.3979 3.13907C11.1272 3.08424 10.9523 2.82039 11.0071 2.54975ZM17.3358 6.80298C17.2254 6.54988 16.9307 6.43423 16.6776 6.54466C16.4245 6.65509 16.3089 6.94979 16.4193 7.20289C16.6128 7.64642 16.7617 8.11387 16.8602 8.59962C16.9151 8.87025 17.179 9.04513 17.4497 8.99023C17.7203 8.93532 17.8952 8.67142 17.8403 8.40079C17.7275 7.84514 17.5572 7.31034 17.3358 6.80298ZM14.4148 3.91548C14.5916 3.70336 14.9068 3.67473 15.119 3.85153C15.5074 4.17531 15.8647 4.53522 16.1857 4.92612C16.3609 5.13954 16.33 5.4546 16.1165 5.62984C15.9031 5.80507 15.588 5.77411 15.4128 5.5607C15.1318 5.2184 14.8189 4.90322 14.4787 4.61969C14.2666 4.44289 14.238 4.1276 14.4148 3.91548ZM10 5.49951C10 5.22337 9.77614 4.99951 9.5 4.99951C9.22386 4.99951 9 5.22337 9 5.49951V10.4995C9 10.7757 9.22386 10.9995 9.5 10.9995H12.5C12.7761 10.9995 13 10.7757 13 10.4995C13 10.2234 12.7761 9.99951 12.5 9.99951H10V5.49951Z" fill="#212121"/>
</svg>
