<svg width="48" height="48" viewBox="0 0 48 48" fill="none" xmlns="http://www.w3.org/2000/svg">
<path d="M5.5 32C6.32843 32 7 32.6716 7 33.5V35.5C7 37.433 8.567 39 10.5 39H12.5C13.3284 39 14 39.6716 14 40.5C14 41.3284 13.3284 42 12.5 42H10.5C6.91015 42 4 39.0899 4 35.5V33.5C4 32.6716 4.67157 32 5.5 32ZM42.5 32C43.3284 32 44 32.6716 44 33.5V35.5C44 39.0899 41.0899 42 37.5 42H35.5C34.6716 42 34 41.3284 34 40.5C34 39.6716 34.6716 39 35.5 39H37.5C39.433 39 41 37.433 41 35.5V33.5C41 32.6716 41.6716 32 42.5 32ZM11.5 14C12.3284 14 13 14.6716 13 15.5V32.5C13 33.3284 12.3284 34 11.5 34C10.6716 34 10 33.3284 10 32.5V15.5C10 14.6716 10.6716 14 11.5 14ZM19.5 14C20.3284 14 21 14.6716 21 15.5V32.5C21 33.3284 20.3284 34 19.5 34C18.6716 34 18 33.3284 18 32.5V15.5C18 14.6716 18.6716 14 19.5 14ZM27.5 14C28.3284 14 29 14.6716 29 15.5V32.5C29 33.3284 28.3284 34 27.5 34C26.6716 34 26 33.3284 26 32.5V15.5C26 14.6716 26.6716 14 27.5 14ZM35.5 14C36.3284 14 37 14.6716 37 15.5V32.5C37 33.3284 36.3284 34 35.5 34C34.6716 34 34 33.3284 34 32.5V15.5C34 14.6716 34.6716 14 35.5 14ZM12.5 6C13.3284 6 14 6.67157 14 7.5C14 8.32843 13.3284 9 12.5 9H10.5C8.567 9 7 10.567 7 12.5V14.5C7 15.3284 6.32843 16 5.5 16C4.67157 16 4 15.3284 4 14.5V12.5C4 8.91015 6.91015 6 10.5 6H12.5ZM37.5 6C41.0899 6 44 8.91015 44 12.5V14.5C44 15.3284 43.3284 16 42.5 16C41.6716 16 41 15.3284 41 14.5V12.5C41 10.567 39.433 9 37.5 9H35.5C34.6716 9 34 8.32843 34 7.5C34 6.67157 34.6716 6 35.5 6H37.5Z" fill="#212121"/>
</svg>
