<svg width="48" height="48" viewBox="0 0 48 48" fill="none" xmlns="http://www.w3.org/2000/svg">
<path d="M12.5 6C8.91015 6 6 8.91015 6 12.5V17.8433C6 18.6717 6.67157 19.3433 7.5 19.3433C8.32843 19.3433 9 18.6717 9 17.8433V12.5C9 10.567 10.567 9 12.5 9H17.8433C18.6717 9 19.3433 8.32843 19.3433 7.5C19.3433 6.67157 18.6717 6 17.8433 6H12.5ZM30.1567 6C29.3283 6 28.6567 6.67157 28.6567 7.5C28.6567 8.32843 29.3283 9 30.1567 9H35.5C37.433 9 39 10.567 39 12.5V17.8433C39 18.6717 39.6716 19.3433 40.5 19.3433C41.3284 19.3433 42 18.6717 42 17.8433V12.5C42 8.91015 39.0899 6 35.5 6H30.1567ZM9 30.1567C9 29.3283 8.32843 28.6567 7.5 28.6567C6.67157 28.6567 6 29.3283 6 30.1567V35.5C6 39.0899 8.91015 42 12.5 42H17.8433C18.6717 42 19.3433 41.3284 19.3433 40.5C19.3433 39.6716 18.6717 39 17.8433 39H12.5C10.567 39 9 37.433 9 35.5V30.1567ZM42 30.1567C42 29.3283 41.3284 28.6567 40.5 28.6567C39.6716 28.6567 39 29.3283 39 30.1567V35.5C39 37.433 37.433 39 35.5 39H30.1567C29.3283 39 28.6567 39.6716 28.6567 40.5C28.6567 41.3284 29.3283 42 30.1567 42H35.5C39.0899 42 42 39.0899 42 35.5V30.1567ZM14.5 22.5C13.6716 22.5 13 23.1716 13 24C13 24.8284 13.6716 25.5 14.5 25.5H33.5C34.3284 25.5 35 24.8284 35 24C35 23.1716 34.3284 22.5 33.5 22.5H14.5Z" fill="#212121"/>
</svg>
