<svg width="25" height="24" viewBox="0 0 25 24" fill="none" xmlns="http://www.w3.org/2000/svg">
<path d="M15.17 10C15.9628 10 16.6324 10.5271 16.8476 11.25H16.166C15.7565 11.25 15.368 11.3395 15.0188 11.5H9.66794C9.52987 11.5 9.41794 11.6119 9.41794 11.75V16.499C9.41794 17.8046 10.2518 18.9156 11.416 19.3283V20.8878C9.41294 20.432 7.91794 18.6401 7.91794 16.499V11.75C7.91794 10.7835 8.70144 10 9.66794 10H15.17ZM19.666 11.25C21.1809 11.25 22.4097 12.4748 22.416 13.9882V11.75C22.416 10.7835 21.6325 10 20.666 10L17.2907 9.99906C17.5829 10.3526 17.7884 10.7804 17.8747 11.25H19.666ZM4.16602 10L7.5473 9.99906C7.20393 10.4145 6.98026 10.9325 6.92914 11.5002L4.16602 11.5C4.02794 11.5 3.91602 11.6119 3.91602 11.75V14.9988C3.91602 16.3802 5.03586 17.5 6.41726 17.5C6.61725 17.5 6.81176 17.4765 6.99818 17.4322C7.08288 17.9361 7.23757 18.4167 7.45088 18.864C7.12179 18.953 6.77501 19 6.41726 19C4.20743 19 2.41602 17.2086 2.41602 14.9988V11.75C2.41602 10.7835 3.19952 10 4.16602 10ZM12.416 3C14.0729 3 15.416 4.34315 15.416 6C15.416 7.65685 14.0729 9 12.416 9C10.7592 9 9.41602 7.65685 9.41602 6C9.41602 4.34315 10.7592 3 12.416 3ZM12.416 4.5C11.5876 4.5 10.916 5.17157 10.916 6C10.916 6.82843 11.5876 7.5 12.416 7.5C13.2444 7.5 13.916 6.82843 13.916 6C13.916 5.17157 13.2444 4.5 12.416 4.5ZM18.916 4C20.2967 4 21.416 5.11929 21.416 6.5C21.416 7.88071 20.2967 9 18.916 9C17.5353 9 16.416 7.88071 16.416 6.5C16.416 5.11929 17.5353 4 18.916 4ZM18.916 5.5C18.3637 5.5 17.916 5.94772 17.916 6.5C17.916 7.05228 18.3637 7.5 18.916 7.5C19.4683 7.5 19.916 7.05228 19.916 6.5C19.916 5.94772 19.4683 5.5 18.916 5.5ZM5.91602 4C7.29673 4 8.41602 5.11929 8.41602 6.5C8.41602 7.88071 7.29673 9 5.91602 9C4.5353 9 3.41602 7.88071 3.41602 6.5C3.41602 5.11929 4.5353 4 5.91602 4ZM5.91602 5.5C5.36373 5.5 4.91602 5.94772 4.91602 6.5C4.91602 7.05228 5.36373 7.5 5.91602 7.5C6.4683 7.5 6.91602 7.05228 6.91602 6.5C6.91602 5.94772 6.4683 5.5 5.91602 5.5ZM14.416 15H13.916C13.0876 15 12.416 15.6716 12.416 16.5V18H14.916V17.75C14.916 17.3358 15.2518 17 15.666 17C16.0802 17 16.416 17.3358 16.416 17.75V18H19.416V17.75C19.416 17.3358 19.7518 17 20.166 17C20.5802 17 20.916 17.3358 20.916 17.75V18H23.416V16.5C23.416 15.6716 22.7444 15 21.916 15H21.416V14C21.416 13.0335 20.6325 12.25 19.666 12.25H16.166C15.1995 12.25 14.416 13.0335 14.416 14V15ZM15.916 14C15.916 13.8619 16.0279 13.75 16.166 13.75H19.666C19.8041 13.75 19.916 13.8619 19.916 14V15H15.916V14ZM12.416 21.5V19.5H14.916V20.25C14.916 20.6642 15.2518 21 15.666 21C16.0802 21 16.416 20.6642 16.416 20.25V19.5H19.416V20.25C19.416 20.6642 19.7518 21 20.166 21C20.5802 21 20.916 20.6642 20.916 20.25V19.5H23.416V21.5C23.416 22.3284 22.7444 23 21.916 23H13.916C13.0876 23 12.416 22.3284 12.416 21.5Z" fill="#212121"/>
</svg>
