<svg width="16" height="16" viewBox="0 0 16 16" fill="none" xmlns="http://www.w3.org/2000/svg">
<path d="M3.5 2C2.11929 2 1 3.11929 1 4.5V9.5C1 10.8807 2.11929 12 3.5 12H7V10C7 8.89543 7.89543 8 9 8H14V4.5C14 3.11929 12.8807 2 11.5 2H3.5ZM3.64645 4.64645C3.84171 4.45118 4.15829 4.45118 4.35355 4.64645L6 6.29289V5.5C6 5.22386 6.22386 5 6.5 5C6.77614 5 7 5.22386 7 5.5V7.5C7 7.77614 6.77614 8 6.5 8H4.5C4.22386 8 4 7.77614 4 7.5C4 7.22386 4.22386 7 4.5 7H5.29289L3.64645 5.35355C3.45118 5.15829 3.45118 4.84171 3.64645 4.64645ZM8 10C8 9.44772 8.44772 9 9 9H14C14.5523 9 15 9.44772 15 10V13C15 13.5523 14.5523 14 14 14H9C8.44772 14 8 13.5523 8 13V10Z" fill="#212121"/>
</svg>
