<svg width="20" height="20" viewBox="0 0 20 20" fill="none" xmlns="http://www.w3.org/2000/svg">
<path d="M12.2461 4.75C12.2461 4.33579 11.9103 4 11.4961 4C11.0819 4 10.7461 4.33579 10.7461 4.75V6.60778L8.98197 6.03458C8.58802 5.90658 8.16491 6.12216 8.03691 6.51611C7.90891 6.91005 8.1245 7.33316 8.51844 7.46116L10.2865 8.03564L9.19336 9.54021C8.94989 9.87531 9.02418 10.3443 9.35928 10.5878C9.69439 10.8313 10.1634 10.757 10.4069 10.4219L11.4979 8.92017L12.589 10.4219C12.8325 10.757 13.3015 10.8313 13.6366 10.5878C13.9717 10.3443 14.046 9.87531 13.8025 9.54021L12.7101 8.03666L14.4813 7.46116C14.8753 7.33316 15.0909 6.91005 14.9629 6.51611C14.8349 6.12216 14.4118 5.90658 14.0178 6.03458L12.2461 6.61024V4.75ZM6.5 16C7.32843 16 8 15.3284 8 14.5C8 13.6716 7.32843 13 6.5 13C5.67157 13 5 13.6716 5 14.5C5 15.3284 5.67157 16 6.5 16Z" fill="#212121"/>
</svg>
