<svg width="24" height="24" viewBox="0 0 24 24" fill="none" xmlns="http://www.w3.org/2000/svg">
<path d="M8.5 12.75V16.75C8.5033 17.176 8.57766 17.5985 8.72 18H3.5C3.10218 18 2.72064 17.842 2.43934 17.5607C2.15804 17.2794 2 16.8978 2 16.5V3.5C2 3.10218 2.15804 2.72064 2.43934 2.43934C2.72064 2.15804 3.10218 2 3.5 2H9.5C9.89782 2 10.2794 2.15804 10.5607 2.43934C10.842 2.72064 11 3.10218 11 3.5V7H12.5C12.8978 7 13.2794 7.15804 13.5607 7.43934C13.842 7.72064 14 8.10218 14 8.5V9H12.25C11.2554 9 10.3016 9.39509 9.59835 10.0983C8.89509 10.8016 8.5 11.7554 8.5 12.75ZM8.16668 5.1264C8.04334 5.04399 7.89834 5 7.75 5C7.55189 5.00259 7.36263 5.08244 7.22253 5.22253C7.08244 5.36263 7.00259 5.55189 7 5.75C7 5.89834 7.04399 6.04334 7.1264 6.16668C7.20881 6.29001 7.32594 6.38614 7.46299 6.44291C7.60003 6.49968 7.75083 6.51453 7.89632 6.48559C8.0418 6.45665 8.17544 6.38522 8.28033 6.28033C8.38522 6.17544 8.45665 6.0418 8.48559 5.89632C8.51453 5.75083 8.49967 5.60003 8.44291 5.46299C8.38614 5.32594 8.29001 5.20881 8.16668 5.1264ZM8.16668 8.1264C8.04334 8.04399 7.89834 8 7.75 8C7.55189 8.00259 7.36263 8.08244 7.22253 8.22253C7.08244 8.36263 7.00259 8.55189 7 8.75C7 8.89834 7.04399 9.04334 7.1264 9.16668C7.20881 9.29001 7.32594 9.38614 7.46299 9.44291C7.60003 9.49967 7.75083 9.51453 7.89632 9.48559C8.0418 9.45665 8.17544 9.38522 8.28033 9.28033C8.38522 9.17544 8.45665 9.0418 8.48559 8.89632C8.51453 8.75083 8.49967 8.60003 8.44291 8.46299C8.38614 8.32594 8.29001 8.20881 8.16668 8.1264ZM4.83332 12.3736C4.95666 12.456 5.10166 12.5 5.25 12.5C5.44811 12.4974 5.63737 12.4176 5.77747 12.2775C5.91756 12.1374 5.99741 11.9481 6 11.75C6 11.6017 5.95601 11.4567 5.8736 11.3333C5.79119 11.21 5.67406 11.1139 5.53701 11.0571C5.39997 11.0003 5.24917 10.9855 5.10368 11.0144C4.9582 11.0434 4.82456 11.1148 4.71967 11.2197C4.61478 11.3246 4.54335 11.4582 4.51441 11.6037C4.48547 11.7492 4.50032 11.9 4.55709 12.037C4.61386 12.1741 4.70999 12.2912 4.83332 12.3736ZM4.83332 9.3736C4.95666 9.45601 5.10166 9.5 5.25 9.5C5.44811 9.49741 5.63737 9.41756 5.77747 9.27747C5.91756 9.13737 5.99741 8.94811 6 8.75C6 8.60166 5.95601 8.45666 5.8736 8.33332C5.79119 8.20999 5.67406 8.11386 5.53701 8.05709C5.39997 8.00033 5.24917 7.98547 5.10368 8.01441C4.9582 8.04335 4.82456 8.11478 4.71967 8.21967C4.61478 8.32456 4.54335 8.4582 4.51441 8.60368C4.48547 8.74917 4.50032 8.89997 4.55709 9.03701C4.61386 9.17406 4.70999 9.29119 4.83332 9.3736ZM4.83332 6.3736C4.95666 6.45601 5.10166 6.5 5.25 6.5C5.44811 6.49741 5.63737 6.41756 5.77747 6.27747C5.91756 6.13737 5.99741 5.94811 6 5.75C6 5.60166 5.95601 5.45666 5.8736 5.33332C5.79119 5.20999 5.67406 5.11386 5.53701 5.05709C5.39997 5.00032 5.24917 4.98547 5.10368 5.01441C4.9582 5.04335 4.82456 5.11478 4.71967 5.21967C4.61478 5.32456 4.54335 5.4582 4.51441 5.60368C4.48547 5.74917 4.50032 5.89997 4.55709 6.03701C4.61386 6.17406 4.70999 6.29119 4.83332 6.3736ZM7.33332 12.3736C7.45666 12.456 7.60166 12.5 7.75 12.5C7.94811 12.4974 8.13737 12.4176 8.27747 12.2775C8.41756 12.1374 8.49741 11.9481 8.5 11.75C8.5 11.6017 8.45601 11.4567 8.3736 11.3333C8.29119 11.21 8.17406 11.1139 8.03701 11.0571C7.89997 11.0003 7.74917 10.9855 7.60368 11.0144C7.4582 11.0434 7.32456 11.1148 7.21967 11.2197C7.11478 11.3246 7.04335 11.4582 7.01441 11.6037C6.98547 11.7492 7.00032 11.9 7.05709 12.037C7.11386 12.1741 7.20999 12.2912 7.33332 12.3736ZM9.5 12.75C9.5 11.2312 10.7312 10 12.25 10H19.25C20.7688 10 22 11.2312 22 12.75V16.75C22 18.2688 20.7688 19.5 19.25 19.5H18V20.5H19.25C19.6642 20.5 20 20.8358 20 21.25C20 21.6642 19.6642 22 19.25 22H12.25C11.8358 22 11.5 21.6642 11.5 21.25C11.5 20.8358 11.8358 20.5 12.25 20.5H13.5V19.5H12.25C10.7312 19.5 9.5 18.2688 9.5 16.75V12.75ZM15 19.5V20.5H16.5V19.5H15ZM12.25 11.5C11.5596 11.5 11 12.0596 11 12.75V16.75C11 17.4404 11.5596 18 12.25 18H19.25C19.9404 18 20.5 17.4404 20.5 16.75V12.75C20.5 12.0596 19.9404 11.5 19.25 11.5H12.25Z" fill="#212121"/>
</svg>
