<svg width="20" height="20" viewBox="0 0 20 20" fill="none" xmlns="http://www.w3.org/2000/svg">
<path d="M2 8C2 6.34315 3.34315 5 5 5H15C16.6569 5 18 6.34315 18 8V11C18 12.6569 16.6569 14 15 14H5C3.34315 14 2 12.6569 2 11V8ZM5 6C3.89543 6 3 6.89543 3 8V11C3 12.1046 3.89543 13 5 13H15C16.1046 13 17 12.1046 17 11V8C17 6.89543 16.1046 6 15 6H5ZM9 9.5C9 9.22386 9.22386 9 9.5 9H14C14.2761 9 14.5 9.22386 14.5 9.5C14.5 9.77614 14.2761 10 14 10H9.5C9.22386 10 9 9.77614 9 9.5ZM8 9.5C8 10.3284 7.32843 11 6.5 11C5.67157 11 5 10.3284 5 9.5C5 8.67157 5.67157 8 6.5 8C7.32843 8 8 8.67157 8 9.5Z" fill="#212121"/>
</svg>
