<svg width="20" height="20" viewBox="0 0 20 20" fill="none" xmlns="http://www.w3.org/2000/svg">
<path d="M6 2C4.89543 2 4 2.89543 4 4V16C4 17.1046 4.89543 18 6 18H15.5C15.7761 18 16 17.7761 16 17.5C16 17.2239 15.7761 17 15.5 17H6C5.44772 17 5 16.5523 5 16H15C15.5523 16 16 15.5523 16 15V4C16 2.89543 15.1046 2 14 2H6ZM11.2393 6.40877C11.0499 6.21142 10.6893 6 10 6C9.31074 6 8.95015 6.21142 8.76069 6.40877C8.55909 6.61877 8.5 6.86546 8.5 7C8.5 7.4539 8.76991 7.69835 9.22272 7.92363C9.33433 7.97916 9.44804 8.02883 9.56567 8.0797L9.58841 8.08953C9.69441 8.13534 9.80981 8.18521 9.91199 8.23655C10.0174 8.28953 10.1481 8.36283 10.2567 8.46505C10.372 8.57355 10.5 8.75189 10.5 9V9.99999C10.5 10.2761 10.2761 10.5 10 10.5C9.72386 10.5 9.5 10.2753 9.5 9.99918V9.1493C9.48892 9.14333 9.47663 9.13694 9.46301 9.13009C9.38754 9.09217 9.29701 9.05302 9.18035 9.00257L9.1687 8.99753C9.05196 8.94704 8.91567 8.8878 8.77728 8.81894C8.23009 8.5467 7.5 8.0461 7.5 7C7.5 6.63454 7.64091 6.13123 8.03931 5.71623C8.44985 5.28858 9.08926 5 10 5C10.9107 5 11.5501 5.28858 11.9607 5.71623C12.3591 6.13123 12.5 6.63454 12.5 7C12.5 7.27614 12.2761 7.5 12 7.5C11.7239 7.5 11.5 7.27614 11.5 7C11.5 6.86546 11.4409 6.61877 11.2393 6.40877ZM10 13C9.58579 13 9.25 12.6642 9.25 12.25C9.25 11.8358 9.58579 11.5 10 11.5C10.4142 11.5 10.75 11.8358 10.75 12.25C10.75 12.6642 10.4142 13 10 13Z" fill="#212121"/>
</svg>
