<svg width="20" height="20" viewBox="0 0 20 20" fill="none" xmlns="http://www.w3.org/2000/svg">
<path d="M8.62087 16.2597C8.76425 16.7931 9.31294 17.1095 9.8464 16.9666L15.2627 15.5153C15.7962 15.3724 16.1124 14.8241 15.969 14.2908L13.1331 3.74168C12.9898 3.20833 12.4411 2.89184 11.9076 3.03478L6.4913 4.48608C5.95783 4.62902 5.6416 5.17726 5.78498 5.71061L8.62087 16.2597ZM10.106 17.9323C9.03908 18.2182 7.9417 17.5852 7.65494 16.5185L4.81906 5.96943C4.5323 4.90273 5.16475 3.80625 6.23169 3.52037L11.648 2.06907C12.7149 1.78319 13.8123 2.41616 14.0991 3.48286L16.935 14.0319C17.2217 15.0986 16.5893 16.1951 15.5223 16.481L10.106 17.9323ZM7.00226 18.001H7.15433C7.09881 17.9179 7.04797 17.8309 7.00226 17.7403C6.92638 17.5899 6.86465 17.4296 6.81921 17.2605L6.74017 16.9665C6.31448 16.8516 6.001 16.4621 6.00062 16.0002L5.99915 14.21L4.99609 10.4788L5.00062 16.0018C5.00147 16.6974 5.35737 17.31 5.89674 17.6681C5.9956 17.7337 6.10063 17.7908 6.21076 17.8383C6.45355 17.943 6.72115 18.001 7.00226 18.001ZM3.99795 16.5016C3.99808 16.6534 4.01172 16.802 4.03774 16.9463L3.98403 16.9319C2.9171 16.646 2.28323 15.5491 2.56823 14.482L3.99193 9.15121L3.9951 13.0149L3.53416 14.7408C3.4151 15.1866 3.61675 15.6428 3.99743 15.8642L3.99795 16.5016ZM8.25 5.49999C8.66421 5.49999 9 5.83578 9 6.24999C9 6.66421 8.66421 6.99999 8.25 6.99999C7.83579 6.99999 7.5 6.66421 7.5 6.24999C7.5 5.83578 7.83579 5.49999 8.25 5.49999Z" fill="#212121"/>
</svg>
