<?xml version="1.0" encoding="UTF-8"?>
<svg width="48px" height="48px" viewBox="0 0 48 48" version="1.1" xmlns="http://www.w3.org/2000/svg" xmlns:xlink="http://www.w3.org/1999/xlink">
    <!-- Generator: Sketch 59.1 (86144) - https://sketch.com -->
    <title>ic_reply_all_48_regular</title>
    <desc>Created with Sketch.</desc>
    <g id="ðŸ”-Product-Icons" stroke="none" stroke-width="1" fill="none" fill-rule="evenodd">
        <g id="ic_reply_all_48_regular" fill="#212121">
            <path d="M23.3085047,11.1761165 C23.79666,10.6879612 24.5881163,10.6879612 25.0762716,11.1761165 C25.564427,11.6642719 25.564427,12.4557281 25.0762716,12.9438835 L25.0762716,12.9438835 L18.019,20 L25,20 C28.2536812,20 31.2794612,20.720575 33.9036216,22.0988501 L34.3145999,22.3219289 C36.9967941,23.8257725 39.1742275,26.0032059 40.6780711,28.6854001 C42.201579,31.4026669 43,34.5750724 43,38 C43,38.6903559 42.4403559,39.25 41.75,39.25 C41.0596441,39.25 40.5,38.6903559 40.5,38 C40.5,34.9958129 39.8076557,32.2448875 38.4974353,29.9080316 C37.2186616,27.6272628 35.3727372,25.7813384 33.0919684,24.5025647 C30.7551125,23.1923443 28.0041871,22.5 25,22.5 L25,22.5 L18.015,22.5 L25.0762716,29.5608928 C25.5318833,30.0165045 25.5622574,30.7363249 25.167394,31.2271644 L25.0762716,31.3286598 C24.5881163,31.8168152 23.79666,31.8168152 23.3085047,31.3286598 L23.3085047,31.3286598 L14.1161165,22.1362716 C13.6279612,21.6481163 13.6279612,20.85666 14.1161165,20.3685047 L14.1161165,20.3685047 Z M15.3085047,11.1761165 C15.79666,10.6879612 16.5881163,10.6879612 17.0762716,11.1761165 C17.564427,11.6642719 17.564427,12.4557281 17.0762716,12.9438835 L17.0762716,12.9438835 L8.76776695,21.2523882 L17.0762716,29.5608928 C17.564427,30.0490482 17.564427,30.8405044 17.0762716,31.3286598 C16.5881163,31.8168152 15.79666,31.8168152 15.3085047,31.3286598 L15.3085047,31.3286598 L6.11611652,22.1362716 C5.62796116,21.6481163 5.62796116,20.85666 6.11611652,20.3685047 L6.11611652,20.3685047 Z" id="ðŸŽ¨-Color"></path>
        </g>
    </g>
</svg>