<svg width="20" height="20" viewBox="0 0 20 20" fill="none" xmlns="http://www.w3.org/2000/svg">
<path d="M10 2C8.61929 2 7.5 3.11929 7.5 4.5V4.54404C5.43447 5.49205 4 7.57851 4 10V15C4 16.6569 5.34315 18 7 18H10.2572C10.0035 17.6929 9.78261 17.3578 9.59971 17H7C5.89543 17 5 16.1046 5 15V13H7V14.5C7 14.7761 7.22386 15 7.5 15C7.77614 15 8 14.7761 8 14.5V13H9.20703C9.30564 12.6514 9.43777 12.3168 9.59971 12H5V10C5 7.23858 7.23858 5 10 5C12.4241 5 14.4453 6.72506 14.9029 9.01453C15.2612 9.04048 15.61 9.10075 15.9461 9.19208C15.6673 7.12093 14.3318 5.38479 12.5 4.54404V4.5C12.5 3.11929 11.3807 2 10 2ZM10 4C9.49433 4 9.00327 4.06255 8.53413 4.18035C8.68061 3.50549 9.28127 3 10 3C10.7187 3 11.3194 3.50549 11.4659 4.18035C10.9967 4.06255 10.5057 4 10 4Z" fill="#212121"/>
<path d="M11.3369 10C11.8037 9.67128 12.324 9.41335 12.882 9.24184C12.9578 9.0769 13 8.89338 13 8.7C13 7.76112 12.2389 7 11.3 7H8.7C7.76112 7 7 7.76112 7 8.7C7 9.41797 7.58203 10 8.3 10H11.3369ZM8 8.7C8 8.3134 8.3134 8 8.7 8H11.3C11.6866 8 12 8.3134 12 8.7C12 8.86569 11.8657 9 11.7 9H8.3C8.13431 9 8 8.86569 8 8.7Z" fill="#212121"/>
<path d="M19 14.5C19 16.9853 16.9853 19 14.5 19C12.0147 19 10 16.9853 10 14.5C10 12.0147 12.0147 10 14.5 10C16.9853 10 19 12.0147 19 14.5ZM15 12.5C15 12.2239 14.7761 12 14.5 12C14.2239 12 14 12.2239 14 12.5V14H12.5C12.2239 14 12 14.2239 12 14.5C12 14.7761 12.2239 15 12.5 15H14V16.5C14 16.7761 14.2239 17 14.5 17C14.7761 17 15 16.7761 15 16.5V15H16.5C16.7761 15 17 14.7761 17 14.5C17 14.2239 16.7761 14 16.5 14H15V12.5Z" fill="#212121"/>
</svg>
