<?xml version="1.0" encoding="UTF-8"?>
<svg width="24px" height="24px" viewBox="0 0 24 24" version="1.1" xmlns="http://www.w3.org/2000/svg" xmlns:xlink="http://www.w3.org/1999/xlink">
    <!-- Generator: Sketch 63.1 (92452) - https://sketch.com -->
    <title>ic_fluent_delete_off_24_filled</title>
    <desc>Created with Sketch.</desc>
    <g id="ðŸ”-Product-Icons" stroke="none" stroke-width="1" fill="none" fill-rule="evenodd">
        <g id="ic_fluent_delete_off_24_filled" fill="#212121" fill-rule="nonzero">
            <path d="M21.7911661,2.21966991 C22.0574327,2.48593648 22.0816387,2.90260016 21.8637842,3.19621165 L21.7911661,3.28033009 L20.070836,5 L20.5,5 C21.0522847,5 21.5,5.44771525 21.5,6 C21.5,6.51283584 21.1139598,6.93550716 20.6166211,6.99327227 L20.5,7 L19.6552587,7 L18.4238627,19.5191927 C18.2853972,20.9269251 17.1015956,22 15.6870698,22 L8.31293022,22 C6.95734302,22 5.81365352,21.0144851 5.59883106,19.6933629 L5.57383601,19.496 L3.2911661,21.7803301 C3.02489953,22.0465966 2.60823585,22.0708027 2.31462436,21.8529482 L2.23050592,21.7803301 C1.96423936,21.5140635 1.94003331,21.0973998 2.15788777,20.8037883 L2.23050592,20.7196699 L20.7305059,2.21966991 C21.0233991,1.9267767 21.4982729,1.9267767 21.7911661,2.21966991 Z M10.499836,14.57 L8.99983601,16.07 L9,17 L9.00684662,17.1017706 C9.05650904,17.4678461 9.37030423,17.75 9.75,17.75 C10.1296958,17.75 10.443491,17.4678461 10.4931534,17.1017706 L10.5,17 L10.499836,14.57 Z M14.999836,10.07 L13.499836,11.57 L13.5,17 L13.5068466,17.1017706 C13.556509,17.4678461 13.8703042,17.75 14.25,17.75 C14.6296958,17.75 14.943491,17.4678461 14.9931534,17.1017706 L15,17 L14.999836,10.07 Z M12,1.5 C13.9296581,1.5 15.4945861,3.06159526 15.499986,4.98998775 L10.499,9.991 L10.4931534,9.89822944 C10.443491,9.53215388 10.1296958,9.25 9.75,9.25 C9.37030423,9.25 9.05650904,9.53215388 9.00684662,9.89822944 L9,10 L9,11.49 L5.163,15.327 L4.34474133,7 L3.5,7 C2.94771525,7 2.5,6.55228475 2.5,6 C2.5,5.44771525 2.94771525,5 3.5,5 L8.5,5 C8.5,3.06700338 10.0670034,1.5 12,1.5 Z M12,3.5 C11.1715729,3.5 10.5,4.17157288 10.5,5 L13.5,5 C13.5,4.17157288 12.8284271,3.5 12,3.5 Z" id="ðŸŽ¨-Color"></path>
        </g>
    </g>
</svg>