<svg width="48" height="48" viewBox="0 0 48 48" fill="none" xmlns="http://www.w3.org/2000/svg">
<path d="M25.081 6.41845C26.2076 5.40707 28 6.20666 28 7.72071V40.2792C28 41.7933 26.2077 42.5929 25.081 41.5815L16.875 34.2152C16.0034 33.4328 14.8734 33 13.702 33H9C6.10051 33 3.75 30.6495 3.75 27.75V20.25C3.75 17.3505 6.10051 15 9 15H13.702C14.8734 15 16.0034 14.5672 16.875 13.7847L25.081 6.41845ZM25.5 9.40183L18.5451 15.6451C17.2146 16.8394 15.4898 17.5 13.702 17.5H9C7.48122 17.5 6.25 18.7312 6.25 20.25V27.75C6.25 29.2688 7.48122 30.5 9 30.5H13.702C15.4898 30.5 17.2146 31.1606 18.5451 32.3549L25.5 38.5981V9.40183Z" fill="#212121"/>
<path d="M36.3376 8.3956C36.8095 7.89167 37.6005 7.86568 38.1044 8.33754L38.1053 8.33837C38.1053 8.33837 37.7675 7.99997 38.1151 8.34759L38.1336 8.36534C38.1485 8.37973 38.1685 8.39924 38.1933 8.42386C38.2428 8.47308 38.3113 8.54274 38.396 8.63268C38.5655 8.81251 38.8004 9.07373 39.0785 9.41507C39.6344 10.0973 40.3656 11.1025 41.094 12.4203C42.5525 15.0587 44.0001 18.9526 44.0001 24C44.0001 29.0474 42.5525 32.9412 41.094 35.5797C40.3656 36.8974 39.6344 37.9026 39.0785 38.5849C38.8004 38.9262 38.5655 39.1874 38.396 39.3673C38.3714 39.3934 38.3481 39.4179 38.3262 39.4407C38.273 39.496 38.2284 39.5412 38.1933 39.5761C38.1685 39.6007 38.1485 39.6202 38.1336 39.6346L38.1151 39.6524L38.1088 39.6583L38.1063 39.6606L38.1053 39.6616C38.1053 39.6616 38.2392 39.5277 38.3262 39.4407C38.4326 39.3343 38.4688 39.298 38.1044 39.6624C37.6005 40.1343 36.8095 40.1083 36.3376 39.6043C35.8666 39.1013 35.8917 38.3121 36.3931 37.84L36.3949 37.8383L36.3981 37.8352C36.404 37.8295 36.4148 37.8189 36.4304 37.8035C36.4614 37.7726 36.5111 37.7222 36.5767 37.6526C36.708 37.5133 36.9029 37.2972 37.1404 37.0057C37.6157 36.4223 38.2595 35.54 38.9061 34.3703C40.1976 32.0337 41.5001 28.5526 41.5001 24C41.5001 19.4474 40.1976 15.9662 38.9061 13.6297C38.2595 12.4599 37.6157 11.5776 37.1404 10.9943C36.9029 10.7028 36.708 10.4867 36.5767 10.3473C36.5111 10.2777 36.4614 10.2274 36.4304 10.1965C36.4148 10.181 36.404 10.1704 36.3981 10.1647L36.3949 10.1617L36.3931 10.16C35.8917 9.68783 35.8666 8.89866 36.3376 8.3956Z" fill="#212121"/>
<path d="M32.3341 14.3994C32.8038 13.8935 33.5947 13.8642 34.1006 14.334C34.1008 14.3342 34.1014 14.3347 34.1014 14.3347L34.1023 14.3355L34.1043 14.3374L34.1092 14.342L34.1229 14.355C34.1336 14.3652 34.1477 14.3787 34.1647 14.3955C34.1988 14.4289 34.2451 14.4753 34.3018 14.5343C34.4152 14.6524 34.5707 14.8215 34.7541 15.0397C35.1202 15.4756 35.6009 16.1117 36.0798 16.9326C37.0374 18.5743 38.0001 20.9776 38.0001 24C38.0001 27.0224 37.0374 29.4257 36.0798 31.0673C35.6009 31.8883 35.1202 32.5243 34.7541 32.9602C34.5707 33.1785 34.4152 33.3476 34.3018 33.4656C34.2451 33.5247 34.1988 33.571 34.1647 33.6045L34.1452 33.6235L34.1229 33.645L34.1092 33.6579L34.1043 33.6625L34.1015 33.6651L34.1006 33.666C33.5947 34.1357 32.8038 34.1064 32.3341 33.6005C31.8653 33.0957 31.8935 32.3072 32.3962 31.837L32.3979 31.8355L32.414 31.8198C32.4312 31.8029 32.4601 31.7741 32.4991 31.7335C32.5771 31.6524 32.695 31.5246 32.8398 31.3522C33.1299 31.0069 33.5242 30.4867 33.9203 29.8076C34.7127 28.4493 35.5001 26.4776 35.5001 24C35.5001 21.5224 34.7127 19.5507 33.9203 18.1923C33.5242 17.5133 33.1299 16.9931 32.8398 16.6477C32.695 16.4754 32.5771 16.3476 32.4991 16.2664C32.4601 16.2258 32.4312 16.197 32.414 16.1802L32.3973 16.1639L32.3981 16.1647C31.8929 15.6949 31.8645 14.9051 32.3341 14.3994Z" fill="#212121"/>
</svg>
