<svg width="32" height="32" viewBox="0 0 32 32" fill="none" xmlns="http://www.w3.org/2000/svg">
<path d="M16 5C14.3431 5 13 6.34315 13 8V17.9748L12.6669 18.2729C11.6424 19.1899 11 20.5193 11 22C11 24.7614 13.2386 27 16 27C18.7614 27 21 24.7614 21 22C21 20.5193 20.3576 19.1899 19.3331 18.2729L19 17.9748V8C19 6.34315 17.6569 5 16 5ZM11 8C11 5.23858 13.2386 3 16 3C18.7614 3 21 5.23858 21 8V17.101C22.2361 18.3626 23 20.0926 23 22C23 25.866 19.866 29 16 29C12.134 29 9 25.866 9 22C9 20.0926 9.76392 18.3626 11 17.101V8ZM15 12C15 11.4477 15.4477 11 16 11C16.5523 11 17 11.4477 17 12V19.1707C18.1652 19.5825 19 20.6938 19 22C19 23.6569 17.6569 25 16 25C14.3431 25 13 23.6569 13 22C13 20.6938 13.8348 19.5825 15 19.1707V12Z" fill="#212121"/>
</svg>
