<svg width="24" height="24" viewBox="0 0 24 24" fill="none" xmlns="http://www.w3.org/2000/svg">
<path d="M5.25 3.49609H18.7477C19.1619 3.49609 19.4977 3.16031 19.4977 2.74609C19.4977 2.3664 19.2155 2.0526 18.8494 2.00294L18.7477 1.99609H5.25C4.83579 1.99609 4.5 2.33188 4.5 2.74609C4.5 3.12579 4.78215 3.43958 5.14823 3.48925L5.25 3.49609ZM11.8834 21.9938L12 22.0005C12.5128 22.0005 12.9355 21.6145 12.9933 21.1171L13 21.0005V8.41049L16.2941 11.7033C16.6546 12.0637 17.2218 12.0914 17.6141 11.7863L17.7083 11.7031C18.0687 11.3426 18.0964 10.7754 17.7913 10.3831L17.7081 10.2889L12.7105 5.2923C12.3502 4.93205 11.7833 4.90419 11.391 5.20881L11.2968 5.29189L6.29338 10.2885C5.90259 10.6788 5.90215 11.3119 6.29241 11.7027C6.65265 12.0634 7.21986 12.0916 7.61236 11.7868L7.70662 11.7037L11 8.41549V21.0005C11 21.5133 11.386 21.936 11.8834 21.9938Z" fill="#212121"/>
</svg>
