<svg width="16" height="16" viewBox="0 0 16 16" fill="none" xmlns="http://www.w3.org/2000/svg">
<path d="M2 4.5C2 3.11929 3.11929 2 4.5 2H11.5C12.8807 2 14 3.11929 14 4.5V10H13.2676L11.9343 8H13V4.5C13 3.67157 12.3284 3 11.5 3H4.5C3.67157 3 3 3.67157 3 4.5V8H4.06574L2.73241 10H2V4.5ZM2 11.5V11H5.30629L4.30869 13.9928C3.01736 13.8951 2 12.8163 2 11.5ZM6.36038 11H9.63962L10.6396 14H5.36038L6.36038 11ZM6.69371 10H9.30629L8.63962 8H7.36038L6.69371 10ZM10.6937 11H14V11.5C14 12.8163 12.9826 13.8951 11.6913 13.9928L10.6937 11ZM10.3604 10H12.0657L10.7324 8H9.69371L10.3604 10ZM3.93426 10H5.63962L6.30629 8H5.26759L3.93426 10Z" fill="#212121"/>
</svg>
