<svg width="20" height="20" viewBox="0 0 20 20" fill="none" xmlns="http://www.w3.org/2000/svg">
<path d="M14 3.00031C15.6569 3.00031 17 4.34345 17 6.00031V14.0003C16.9998 15.657 15.6568 17.0003 14 17.0003H6C4.34324 17.0003 3.00015 15.657 3 14.0003V11.0003H4V14.0003C4.00005 14.3728 4.10188 14.7222 4.2793 15.0208L8.94824 10.4319C9.53183 9.85851 10.4682 9.85851 11.0518 10.4319L15.7207 15.0208C15.8981 14.7222 15.9999 14.3728 16 14.0003V6.00031C16 4.89574 15.1046 4.00031 14 4.00031H10.8926L10.9121 3.92706C10.9955 3.61577 11.0145 3.30229 10.9805 3.00031H14ZM10.3506 11.1458C10.1561 10.9547 9.84394 10.9547 9.64941 11.1458L4.98828 15.7259C5.28506 15.9002 5.63091 16.0003 6 16.0003H14C14.3691 16.0003 14.7149 15.9002 15.0117 15.7259L10.3506 11.1458ZM5.5 3.00031C6.32843 3.00031 7 3.67188 7 4.50031V8.50031C6.99985 9.3286 6.32833 10.0003 5.5 10.0003H2.5C1.67167 10.0003 1.00015 9.3286 1 8.50031V4.50031C1 3.67188 1.67157 3.00031 2.5 3.00031H5.5ZM12.5 6.00031C13.3284 6.00031 14 6.67188 14 7.50031C13.9998 8.3286 13.3283 9.00031 12.5 9.00031C11.6717 9.00031 11.0002 8.3286 11 7.50031C11 6.67188 11.6716 6.00031 12.5 6.00031ZM4.18652 2.00031C4.44553 1.27046 5.22539 0.850353 5.98633 1.05402L8.88477 1.83038C9.68482 2.0449 10.1597 2.86816 9.94531 3.66827L8.91016 7.53156C8.78081 8.01394 8.4293 8.37619 7.99609 8.5423C7.99632 8.52841 7.99899 8.51425 7.99902 8.50031V4.50031C7.99902 4.02509 7.86557 3.58117 7.63379 3.20343C7.19508 2.48277 6.40433 2.0004 5.49902 2.00031H4.18652ZM12.5 7.00031C12.2239 7.00031 12 7.22416 12 7.50031C12.0002 7.77632 12.224 8.00031 12.5 8.00031C12.776 8.00031 12.9998 7.77632 13 7.50031C13 7.22416 12.7761 7.00031 12.5 7.00031Z" fill="#212121"/>
</svg>
