<svg width="16" height="16" viewBox="0 0 16 16" fill="none" xmlns="http://www.w3.org/2000/svg">
<path d="M10 4C10 2.89543 10.8954 2 12 2C13.1046 2 14 2.89543 14 4C14 5.10457 13.1046 6 12 6C11.398 6 10.8582 5.73406 10.4915 5.31325L5.95604 7.581C5.98484 7.71612 6 7.85629 6 8C6 8.14371 5.98484 8.28388 5.95604 8.419L10.4915 10.6867C10.8582 10.2659 11.398 10 12 10C13.1046 10 14 10.8954 14 12C14 13.1046 13.1046 14 12 14C10.8954 14 10 13.1046 10 12C10 11.8563 10.0152 11.7161 10.044 11.581L5.50847 9.31325C5.14182 9.73406 4.60197 10 4 10C2.89543 10 2 9.10457 2 8C2 6.89543 2.89543 6 4 6C4.60197 6 5.14182 6.26594 5.50847 6.68675L10.044 4.419C10.0152 4.28388 10 4.14371 10 4Z" fill="#212121"/>
</svg>
