<svg width="28" height="28" viewBox="0 0 28 28" fill="none" xmlns="http://www.w3.org/2000/svg">
<path d="M9.70748 19.7679C9.42148 19.4682 9.43252 18.9935 9.73214 18.7075L13.8781 14.75L2.75 14.75C2.33579 14.75 2 14.4142 2 14C2 13.5858 2.33579 13.25 2.75 13.25L13.8781 13.25L9.73214 9.29252C9.43252 9.00651 9.42148 8.53177 9.70748 8.23214C9.99349 7.93252 10.4682 7.92148 10.7679 8.20748L16.2679 13.4575C16.4161 13.599 16.5 13.795 16.5 14C16.5 14.205 16.4161 14.401 16.2679 14.5425L10.7679 19.7925C10.4682 20.0785 9.99349 20.0675 9.70748 19.7679ZM22 10C24.2091 10 26 11.7909 26 14C26 16.2091 24.2091 18 22 18C19.7909 18 18 16.2091 18 14C18 11.7909 19.7909 10 22 10ZM22 11.5C20.6193 11.5 19.5 12.6193 19.5 14C19.5 15.3807 20.6193 16.5 22 16.5C23.3807 16.5 24.5 15.3807 24.5 14C24.5 12.6193 23.3807 11.5 22 11.5Z" fill="#212121"/>
</svg>
