<svg width="24" height="24" viewBox="0 0 24 24" fill="none" xmlns="http://www.w3.org/2000/svg">
<path d="M16 9.5C16 10.159 15.7622 10.7323 15.3787 11.1825C16.0684 11.8218 16.5 12.7355 16.5 13.75C16.5 15.683 14.933 17.25 13 17.25C11.067 17.25 9.5 15.683 9.5 13.75C9.5 12.7355 9.93164 11.8218 10.6213 11.1825C10.2378 10.7323 10 10.159 10 9.5C10 7.85996 11.4728 6.75 13 6.75C14.5272 6.75 16 7.85996 16 9.5ZM13 8.75C12.3181 8.75 12 9.20704 12 9.5C12 9.79296 12.3181 10.25 13 10.25C13.6819 10.25 14 9.79296 14 9.5C14 9.20704 13.6819 8.75 13 8.75ZM11.5 13.75C11.5 14.5784 12.1716 15.25 13 15.25C13.8284 15.25 14.5 14.5784 14.5 13.75C14.5 12.9216 13.8284 12.25 13 12.25C12.1716 12.25 11.5 12.9216 11.5 13.75ZM7.75 17C8.16421 17 8.5 16.6642 8.5 16.25C8.5 15.8358 8.16421 15.5 7.75 15.5C7.33579 15.5 7 15.8358 7 16.25C7 16.6642 7.33579 17 7.75 17ZM17.2929 12.2929C17.6834 11.9024 18.3166 11.9024 18.7071 12.2929L19.5 13.0858L20.2929 12.2929C20.6834 11.9024 21.3166 11.9024 21.7071 12.2929C22.0976 12.6834 22.0976 13.3166 21.7071 13.7071L20.9142 14.5L21.7071 15.2929C22.0976 15.6834 22.0976 16.3166 21.7071 16.7071C21.3166 17.0976 20.6834 17.0976 20.2929 16.7071L19.5 15.9142L18.7071 16.7071C18.3166 17.0976 17.6834 17.0976 17.2929 16.7071C16.9024 16.3166 16.9024 15.6834 17.2929 15.2929L18.0858 14.5L17.2929 13.7071C16.9024 13.3166 16.9024 12.6834 17.2929 12.2929ZM6.00015 7.90151C6.00015 7.45323 5.70182 7.05971 5.27018 6.93866C4.83854 6.81761 4.37909 6.99861 4.14598 7.38152C4.12163 7.42152 4.09731 7.46176 4.07287 7.50221C3.67007 8.16873 3.23096 8.89533 1.98566 9.64251C1.51208 9.92666 1.35851 10.5409 1.64266 11.0145C1.92681 11.4881 2.54107 11.6416 3.01465 11.3575C3.39227 11.1309 3.71759 10.9009 4.00015 10.672V15.9998C4.00015 16.5521 4.44795 16.9999 5.00029 16.9998C5.55252 16.9997 6.00015 16.552 6.00015 15.9998V7.90151Z" fill="#212121"/>
</svg>
