<svg width="20" height="20" viewBox="0 0 20 20" fill="none" xmlns="http://www.w3.org/2000/svg">
<path d="M16.5 6.67122C16.6163 6.67122 16.7233 6.71092 16.8082 6.77751L16.8755 6.84057L16.8918 6.86057C17.5849 7.71877 18 8.81091 18 10C18 10.1971 17.9886 10.3915 17.9664 10.5827C17.658 10.4277 17.333 10.3009 16.9948 10.2056C16.9983 10.1375 17 10.0689 17 10C17 9.04652 16.6664 8.17096 16.1095 7.48367C16.0414 7.39911 16 7.29 16 7.17122C16 6.89508 16.2239 6.67122 16.5 6.67122ZM10.207 14C10.1159 14.3223 10.0534 14.6566 10.0224 15H7C6.89826 15 6.79724 14.997 6.697 14.991L8.35355 16.6464C8.52712 16.82 8.5464 17.0894 8.41141 17.2843L8.35355 17.3536C8.17999 17.5271 7.91056 17.5464 7.71569 17.4114L7.64645 17.3536L5.14645 14.8536C4.97288 14.68 4.9536 14.4106 5.08859 14.2157L5.14645 14.1464L7.64645 11.6464C7.84171 11.4512 8.15829 11.4512 8.35355 11.6464C8.52712 11.82 8.5464 12.0894 8.41141 12.2843L8.35355 12.3536L6.71699 13.9901L6.85787 13.9975L7 14H10.207ZM11.6464 2.64645C11.82 2.47288 12.0894 2.4536 12.2843 2.58859L12.3536 2.64645L14.8536 5.14645L14.9114 5.21569C15.0295 5.3862 15.0295 5.6138 14.9114 5.78431L14.8536 5.85355L12.3536 8.35355L12.2843 8.41141C12.1138 8.52953 11.8862 8.52953 11.7157 8.41141L11.6464 8.35355L11.5886 8.28431C11.4705 8.1138 11.4705 7.8862 11.5886 7.71569L11.6464 7.64645L13.283 6.00986L13.1421 6.00248L13 6H7C4.79086 6 3 7.79086 3 10C3 10.9563 3.33557 11.8342 3.89537 12.5224C3.95954 12.606 4 12.7139 4 12.8313C4 13.1074 3.77614 13.3313 3.5 13.3313C3.333 13.3313 3.18512 13.2494 3.09432 13.1236C2.40993 12.2676 2 11.1817 2 10C2 7.31124 4.12231 5.11818 6.78311 5.00462L7 5H13C13.1017 5 13.2028 5.00304 13.303 5.00903L11.6464 3.35355L11.5886 3.28431C11.4536 3.08944 11.4729 2.82001 11.6464 2.64645ZM20 15.5C20 17.9853 17.9853 20 15.5 20C13.0147 20 11 17.9853 11 15.5C11 13.0147 13.0147 11 15.5 11C17.9853 11 20 13.0147 20 15.5ZM16.0477 12.8386C15.8633 12.7864 15.5572 12.8034 15.3683 13.0719C15.1551 13.3751 14.7871 13.7975 14.2764 14.0528C14.0294 14.1763 13.9293 14.4766 14.0528 14.7236C14.1763 14.9706 14.4766 15.0707 14.7236 14.9472C15.0229 14.7976 15.2814 14.6114 15.5 14.4182V17.5C15.5 17.7761 15.7239 18 16 18C16.2761 18 16.5 17.7761 16.5 17.5V13.4236C16.5 13.0752 16.2327 12.891 16.0477 12.8386Z" fill="#212121"/>
</svg>
