<svg width="20" height="20" viewBox="0 0 20 20" fill="none" xmlns="http://www.w3.org/2000/svg">
<path d="M2.14648 2.26952C2.34174 2.07426 2.65825 2.07426 2.85351 2.26952L17.8535 17.2695C18.0485 17.4648 18.0487 17.7814 17.8535 17.9766C17.6584 18.1717 17.3418 18.1716 17.1465 17.9766L10.3633 11.1934C10.2483 11.2289 10.1267 11.25 10 11.25C9.31014 11.2497 8.75041 10.6898 8.75 10C8.75 9.87298 8.76944 9.75034 8.80469 9.63477L7.14453 7.97461C6.17292 9.34133 6.29911 11.2493 7.52441 12.4746C7.81688 12.7675 7.81702 13.2424 7.52441 13.5352C7.23163 13.8277 6.75671 13.8276 6.46387 13.5352C4.65173 11.723 4.5218 8.86582 6.07324 6.90332L5.00781 5.83789C2.87392 8.39155 3.00501 12.1973 5.40332 14.5957C5.6959 14.8886 5.69596 15.3634 5.40332 15.6563C5.11049 15.9488 4.63561 15.9488 4.34277 15.6563C1.35837 12.6717 1.2267 7.91725 3.94433 4.77441L2.14648 2.97656C1.95121 2.78129 1.95121 2.46479 2.14648 2.26952ZM14.5957 4.34277C14.8886 4.04996 15.3634 4.05 15.6563 4.34277C18.4393 7.12602 18.7411 11.448 16.5654 14.5674L15.4844 13.4863C17.0861 10.9722 16.7907 7.59859 14.5957 5.40332C14.303 5.11049 14.3031 4.63564 14.5957 4.34277ZM12.4736 6.46387C12.7664 6.17111 13.2413 6.17135 13.5342 6.46387C15.1394 8.06928 15.4231 10.4936 14.3887 12.3906L13.2617 11.2637C13.7464 10.0107 13.4845 8.53548 12.4736 7.52441C12.1812 7.23157 12.1811 6.75665 12.4736 6.46387Z" fill="#212121"/>
</svg>
