<svg width="24" height="24" viewBox="0 0 24 24" fill="none" xmlns="http://www.w3.org/2000/svg">
<path d="M2 5.75C2 4.23122 3.23122 3 4.75 3H19.25C20.7688 3 22 4.23122 22 5.75V11.8096C21.5557 11.3832 21.051 11.0194 20.5 10.7322V5.75C20.5 5.05964 19.9404 4.5 19.25 4.5H4.75C4.05964 4.5 3.5 5.05964 3.5 5.75V16.25C3.5 16.9404 4.05964 17.5 4.75 17.5H11.0764C11.1572 18.0232 11.3004 18.5258 11.4982 19H4.75C3.23122 19 2 17.7688 2 16.25V5.75Z" fill="#212121"/>
<path d="M12.5 14.6285L12.9472 15.0588C13.7649 15.8456 13.7649 17.1544 12.9472 17.9412L12.5 18.3715C12.7006 18.945 12.9907 19.4742 13.3528 19.9409L13.9547 19.7631C15.0522 19.4388 16.1974 20.0998 16.4657 21.2122L16.6384 21.9281C16.9188 21.9754 17.2065 22 17.4998 22C17.7931 22 18.0809 21.9754 18.3613 21.9281L18.5339 21.2122C18.8022 20.0998 19.9474 19.4388 21.0449 19.7631L21.6468 19.9409C22.009 19.4742 22.2991 18.945 22.4996 18.3715L22.0524 17.9412C21.2347 17.1544 21.2347 15.8456 22.0524 15.0588L22.4996 14.6285C22.2991 14.055 22.009 13.5258 21.6468 13.0591L21.0449 13.2369C19.9474 13.5612 18.8022 12.9002 18.5339 11.7878L18.3613 11.0719C18.0809 11.0246 17.7931 11 17.4998 11C17.2065 11 16.9188 11.0246 16.6384 11.0719L16.4657 11.7878C16.1974 12.9002 15.0522 13.5612 13.9547 13.2369L13.3528 13.0591C12.9907 13.5258 12.7006 14.055 12.5 14.6285ZM17.4998 18C16.6992 18 16.0501 17.3284 16.0501 16.5C16.0501 15.6716 16.6992 15 17.4998 15C18.3004 15 18.9495 15.6716 18.9495 16.5C18.9495 17.3284 18.3004 18 17.4998 18Z" fill="#212121"/>
</svg>
