<?xml version="1.0" encoding="UTF-8"?>
<svg width="24px" height="24px" viewBox="0 0 24 24" version="1.1" xmlns="http://www.w3.org/2000/svg" xmlns:xlink="http://www.w3.org/1999/xlink">
    <!-- Generator: Sketch 58 (84663) - https://sketch.com -->
    <title>ic_import_24_filled</title>
    <desc>Created with Sketch.</desc>
    <g id="ðŸ”-Product-Icons" stroke="none" stroke-width="1" fill="none" fill-rule="evenodd">
        <g id="ic_import_24_filled" fill="#212121">
            <path d="M21.25,4.5 C21.6296958,4.5 21.943491,4.78215388 21.9931534,5.14822944 L22,5.25 L22,18.75 C22,19.1642136 21.6642136,19.5 21.25,19.5 C20.8703042,19.5 20.556509,19.2178461 20.5068466,18.8517706 L20.5,18.75 L20.5,5.25 C20.5,4.83578644 20.8357864,4.5 21.25,4.5 Z M13.6129811,6.20976794 L13.7071798,6.29296628 L18.7037925,11.2906115 C19.0640388,11.6509322 19.0919064,12.2177853 18.7872848,12.6100581 L18.7042025,12.7042687 L13.7075898,17.7077144 C13.3173324,18.0985054 12.6841676,18.0989381 12.2933765,17.7086807 C11.9326464,17.3484432 11.9045292,16.7812312 12.209286,16.3887317 L12.2924102,16.2944675 L15.5809963,13 L2.99999627,13 C2.48716044,13 2.06448911,12.6139598 2.00672401,12.1166211 L1.99999627,12 C1.99999627,11.4477153 2.44771153,11 2.99999627,11 L2.99999627,11 L15.5839963,11 L12.2928202,7.70703372 C11.9023362,7.31646908 11.9024016,6.68330411 12.2929663,6.29282017 C12.6534875,5.93237345 13.2207214,5.90470252 13.6129811,6.20976794 Z" id="ðŸŽ¨-Color"></path>
        </g>
    </g>
</svg>