<svg width="20" height="20" viewBox="0 0 20 20" fill="none" xmlns="http://www.w3.org/2000/svg">
<path d="M4.5 3C3.11929 3 2 4.11929 2 5.5V14.5C2 15.8807 3.11929 17 4.5 17H9.59971C9.43777 16.6832 9.30564 16.3486 9.20703 16H4.5C3.67157 16 3 15.3284 3 14.5V8H7.08579C7.48361 8 7.86514 7.84196 8.14645 7.56066L9.70711 6H15.5C16.3284 6 17 6.67157 17 7.5V9.59971C17.3578 9.78261 17.6929 10.0035 18 10.2572V7.5C18 6.11929 16.8807 5 15.5 5H9.70711L8.21967 3.51256C7.89148 3.18437 7.44636 3 6.98223 3H4.5ZM3 5.5C3 4.67157 3.67157 4 4.5 4H6.98223C7.18115 4 7.37191 4.07902 7.51256 4.21967L8.79289 5.5L7.43934 6.85355C7.34557 6.94732 7.21839 7 7.08579 7H3V5.5ZM10 14.5C10 16.9853 12.0147 19 14.5 19C16.9853 19 19 16.9853 19 14.5C19 12.0147 16.9853 10 14.5 10C12.0147 10 10 12.0147 10 14.5ZM16.5 11.5C16.7761 11.5 17 11.7239 17 12V13.5C17 13.7761 16.7761 14 16.5 14H15C14.7239 14 14.5 13.7761 14.5 13.5C14.5 13.2239 14.7239 13 15 13H15.4682C15.4179 12.9722 15.3663 12.9464 15.3135 12.923C15.0682 12.8137 14.8034 12.755 14.535 12.7503C14.2665 12.7456 13.9998 12.795 13.7508 12.8956C13.5018 12.9962 13.2756 13.1459 13.0857 13.3358C12.8905 13.531 12.5739 13.531 12.3786 13.3358C12.1834 13.1405 12.1834 12.8239 12.3786 12.6287C12.6635 12.3439 13.0027 12.1193 13.3762 11.9684C13.7497 11.8175 14.1497 11.7434 14.5524 11.7505C14.9552 11.7575 15.3524 11.8456 15.7203 12.0094C15.8162 12.0521 15.9095 12.0997 16 12.1519V12C16 11.7239 16.2239 11.5 16.5 11.5ZM15.6238 17.0316C15.2503 17.1825 14.8503 17.2566 14.4476 17.2495C14.0448 17.2425 13.6476 17.1544 13.2797 16.9906C13.1838 16.9479 13.0905 16.9003 13 16.8481V17C13 17.2761 12.7761 17.5 12.5 17.5C12.2239 17.5 12 17.2761 12 17V15.5C12 15.2239 12.2239 15 12.5 15H14C14.2761 15 14.5 15.2239 14.5 15.5C14.5 15.7761 14.2761 16 14 16H13.5318C13.5821 16.0278 13.6337 16.0536 13.6865 16.077C13.9318 16.1863 14.1966 16.245 14.465 16.2497C14.7335 16.2544 15.0002 16.205 15.2492 16.1044C15.4982 16.0038 15.7244 15.8541 15.9143 15.6642C16.1095 15.469 16.4261 15.469 16.6214 15.6642C16.8166 15.8595 16.8166 16.1761 16.6214 16.3713C16.3365 16.6561 15.9973 16.8807 15.6238 17.0316Z" fill="#242424"/>
</svg>
