<svg width="24" height="24" viewBox="0 0 24 24" fill="none" xmlns="http://www.w3.org/2000/svg">
<path d="M13.821 6.5H19.75C20.8867 6.5 21.8266 7.34297 21.9785 8.43788L21.9948 8.59595L22 8.75V12.8096C20.8321 11.6888 19.2465 11 17.5 11C13.9101 11 11 13.9101 11 17.5C11 18.3859 11.1772 19.2304 11.4982 20H4.25C3.05914 20 2.08436 19.0748 2.00519 17.904L2 17.75V10.499L8.20693 10.5L8.40335 10.4914C8.79396 10.4572 9.16896 10.3214 9.49094 10.0977L9.64734 9.9785L13.821 6.5ZM8.20693 4C8.66749 4 9.1153 4.14129 9.49094 4.40235L9.64734 4.5215L11.75 6.273L8.68706 8.82617L8.60221 8.88738C8.51363 8.94232 8.41452 8.9782 8.31129 8.9927L8.20693 9L2 8.999V6.25C2 5.05914 2.92516 4.08436 4.09595 4.00519L4.25 4H8.20693ZM12 17.5C12 20.5376 14.4624 23 17.5 23C20.5376 23 23 20.5376 23 17.5C23 14.4624 20.5376 12 17.5 12C14.4624 12 12 14.4624 12 17.5ZM20.5 14C20.7761 14 21 14.2239 21 14.5V16.5C21 16.7761 20.7761 17 20.5 17H18.5C18.2239 17 18 16.7761 18 16.5C18 16.2239 18.2239 16 18.5 16H19.5003C19.0436 15.392 18.3174 15 17.5 15C16.6666 15 15.9283 15.4073 15.4733 16.036C15.3113 16.2597 14.9987 16.3098 14.775 16.1478C14.5514 15.9859 14.5013 15.6733 14.6632 15.4496C15.2982 14.5724 16.3323 14 17.5 14C18.4798 14 19.3651 14.4027 20 15.0506V14.5C20 14.2239 20.2239 14 20.5 14ZM15 19.9494V20.5C15 20.7761 14.7761 21 14.5 21C14.2239 21 14 20.7761 14 20.5V18.5C14 18.2239 14.2239 18 14.5 18H16.5C16.7761 18 17 18.2239 17 18.5C17 18.7761 16.7761 19 16.5 19H15.4998C15.9564 19.608 16.6827 20 17.5 20C18.2663 20 18.9518 19.6558 19.4112 19.1118C19.5893 18.9008 19.9048 18.8742 20.1158 19.0523C20.3268 19.2305 20.3534 19.546 20.1752 19.7569C19.534 20.5164 18.5732 21 17.5 21C16.5203 21 15.6349 20.5973 15 19.9494Z" fill="#212121"/>
</svg>
