<svg width="12" height="12" viewBox="0 0 12 12" fill="none" xmlns="http://www.w3.org/2000/svg">
<path d="M6 2.5C5.58579 2.5 5.25 2.83579 5.25 3.25C5.25 3.66421 5.58579 4 6 4C6.41421 4 6.75 3.66421 6.75 3.25C6.75 2.83579 6.41421 2.5 6 2.5ZM4.25 3.25C4.25 2.2835 5.0335 1.5 6 1.5C6.9665 1.5 7.75 2.2835 7.75 3.25C7.75 4.2165 6.9665 5 6 5C5.0335 5 4.25 4.2165 4.25 3.25ZM2.5 4C2.22386 4 2 4.22386 2 4.5C2 4.77614 2.22386 5 2.5 5C2.77614 5 3 4.77614 3 4.5C3 4.22386 2.77614 4 2.5 4ZM1 4.5C1 3.67157 1.67157 3 2.5 3C3.32843 3 4 3.67157 4 4.5C4 5.32843 3.32843 6 2.5 6C1.67157 6 1 5.32843 1 4.5ZM9 4.5C9 4.22386 9.22386 4 9.5 4C9.77614 4 10 4.22386 10 4.5C10 4.77614 9.77614 5 9.5 5C9.22386 5 9 4.77614 9 4.5ZM9.5 3C8.67157 3 8 3.67157 8 4.5C8 5.32843 8.67157 6 9.5 6C10.3284 6 11 5.32843 11 4.5C11 3.67157 10.3284 3 9.5 3ZM4 7.25C4 6.55964 4.55964 6 5.25 6H6.75C7.44036 6 8 6.55964 8 7.25V8.5C8 9.60457 7.10457 10.5 6 10.5C4.89543 10.5 4 9.60457 4 8.5V7.25ZM5.25 7C5.11193 7 5 7.11193 5 7.25V8.5C5 9.05229 5.44772 9.5 6 9.5C6.55229 9.5 7 9.05229 7 8.5V7.25C7 7.11193 6.88807 7 6.75 7H5.25ZM3 7.25006C3 6.96128 3.05441 6.6852 3.15352 6.43152L1.92288 6.76127C1.25605 6.93995 0.860319 7.62537 1.039 8.2922L1.23311 9.01664C1.51899 10.0836 2.61567 10.7167 3.6826 10.4309L3.69987 10.4261C3.47175 10.154 3.29103 9.84082 3.17041 9.49924C2.72652 9.50196 2.3193 9.20665 2.19904 8.75783L2.00492 8.03338C1.96919 7.90001 2.04833 7.76293 2.1817 7.72719L3 7.50793V7.25006ZM8.31552 10.4309L8.29978 10.4266C8.52806 10.1543 8.7089 9.841 8.82958 9.49925C9.27275 9.50112 9.67899 9.20602 9.79908 8.75783L9.9932 8.03338C10.0289 7.90001 9.94979 7.76293 9.81642 7.72719L9 7.50844V7.25006C9 6.96149 8.94568 6.68561 8.84669 6.43208L10.0752 6.76127C10.7421 6.93995 11.1378 7.62537 10.9591 8.2922L10.765 9.01664C10.4791 10.0836 9.38245 10.7167 8.31552 10.4309Z" fill="#212121"/>
</svg>
