<svg width="48" height="48" viewBox="0 0 48 48" fill="none" xmlns="http://www.w3.org/2000/svg">
<path d="M39.0145 28.9799C40.2818 26.6004 41 23.8841 41 21C41 11.6112 33.3888 4 24 4C14.6112 4 7 11.6112 7 21C7 24.0964 7.82785 26.9995 9.2743 29.5C9.29757 29.5402 9.32099 29.5803 9.34458 29.6204C9.83118 30.4458 10.3855 31.2266 11 31.955C11.0001 31.9551 10.9999 31.955 11 31.955C11.0069 31.9632 11.014 31.9716 11.0209 31.9798C11.0265 31.9864 11.0325 31.9935 11.0381 32H11L21.0884 42.7093C22.6675 44.3856 25.3324 44.3856 26.9115 42.7093L37 32H36.9619C36.9673 31.9937 36.9726 31.9874 36.978 31.9811L36.9788 31.9801L36.9795 31.9792C37.0522 31.8934 37.1241 31.8068 37.1951 31.7195C37.7614 31.0232 38.2738 30.2813 38.7257 29.5C38.8249 29.3285 38.9212 29.1551 39.0145 28.9799ZM24.0049 27.5C20.6912 27.5 18.0049 24.8137 18.0049 21.5C18.0049 18.1863 20.6912 15.5 24.0049 15.5C27.3186 15.5 30.0049 18.1863 30.0049 21.5C30.0049 24.8137 27.3186 27.5 24.0049 27.5Z" fill="#212121"/>
</svg>
