<svg width="20" height="20" viewBox="0 0 20 20" fill="none" xmlns="http://www.w3.org/2000/svg">
<path d="M15 17.5C15 17.7761 14.7761 18 14.5 18C14.2239 18 14 17.7761 14 17.5V3.70711L11.8536 5.85355C11.6583 6.04882 11.3417 6.04882 11.1464 5.85355C10.9512 5.65829 10.9512 5.34171 11.1464 5.14645L14.1464 2.14645C14.3417 1.95118 14.6583 1.95118 14.8536 2.14645L17.8536 5.14645C18.0488 5.34171 18.0488 5.65829 17.8536 5.85355C17.6583 6.04882 17.3417 6.04882 17.1464 5.85355L15 3.70711V17.5ZM2.5 16C2.22386 16 2 15.7761 2 15.5C2 15.2239 2.22386 15 2.5 15H11.5C11.7761 15 12 15.2239 12 15.5C12 15.7761 11.7761 16 11.5 16H2.5ZM5 12.5C5 12.7761 5.22386 13 5.5 13H11.5C11.7761 13 12 12.7761 12 12.5C12 12.2239 11.7761 12 11.5 12H5.5C5.22386 12 5 12.2239 5 12.5ZM8.5 10C8.22386 10 8 9.77614 8 9.5C8 9.22386 8.22386 9 8.5 9H11.5C11.7761 9 12 9.22386 12 9.5C12 9.77614 11.7761 10 11.5 10H8.5Z" fill="#212121"/>
</svg>
