<svg width="20" height="20" viewBox="0 0 20 20" fill="none" xmlns="http://www.w3.org/2000/svg">
<path d="M4 13.75C4 15.5449 5.45508 17 7.25 17C9.04493 17 10.5 15.5449 10.5 13.75L10.5 6.25C10.5 5.2835 11.2835 4.5 12.25 4.5C13.2165 4.5 14 5.2835 14 6.25L14 15.4393L13.7803 15.2197C13.4874 14.9268 13.0126 14.9268 12.7197 15.2197C12.4268 15.5126 12.4268 15.9874 12.7197 16.2803L14.2197 17.7803C14.5126 18.0732 14.9874 18.0732 15.2803 17.7803L16.7803 16.2803C17.0732 15.9874 17.0732 15.5126 16.7803 15.2197C16.4874 14.9268 16.0126 14.9268 15.7197 15.2197L15.5 15.4393L15.5 6.25C15.5 4.45508 14.0449 3 12.25 3C10.4551 3 9 4.45507 9 6.25L9 13.75C9 14.7165 8.2165 15.5 7.25 15.5C6.2835 15.5 5.5 14.7165 5.5 13.75L5.5 3.75C5.5 3.33579 5.16421 3 4.75 3C4.33579 3 4 3.33579 4 3.75L4 13.75Z" fill="#212121"/>
</svg>
