<svg width="16" height="16" viewBox="0 0 16 16" fill="none" xmlns="http://www.w3.org/2000/svg">
<path d="M2 4.5C2 3.11929 3.11929 2 4.5 2H11.5C12.8807 2 14 3.11929 14 4.5V6.00304C13.6586 6.01872 13.3194 6.09506 13 6.23205V4.5C13 3.67157 12.3284 3 11.5 3H4.5C3.67157 3 3 3.67157 3 4.5V11.5C3 12.3284 3.67157 13 4.5 13H6.47564C6.46002 13.0513 6.44566 13.1031 6.43261 13.1554L6.22145 14H4.5C3.11929 14 2 12.8807 2 11.5V4.5ZM9.85355 5.64645L11.5754 7.36826L10.8668 8.0768L10.7915 8.00143L10.7929 8L9.14645 6.35355C8.95118 6.15829 8.95118 5.84171 9.14645 5.64645C9.34171 5.45118 9.65829 5.45118 9.85355 5.64645ZM6.85356 5.64653C7.04882 5.8418 7.04881 6.15838 6.85355 6.35364L5.20711 8.00001L6.85355 9.64645C7.04882 9.84171 7.04882 10.1583 6.85355 10.3536C6.65829 10.5488 6.34171 10.5488 6.14645 10.3536L4.14645 8.35355C4.05268 8.25978 4 8.1326 4 7.99999C4 7.86738 4.05268 7.74021 4.14645 7.64644L6.14645 5.64652C6.34172 5.45126 6.6583 5.45127 6.85356 5.64653ZM7.97975 12.3772L12.8092 7.54776C13.5395 6.81741 14.7237 6.81741 15.454 7.54776C16.1843 8.27811 16.1843 9.46223 15.454 10.1926L10.6246 15.022C10.343 15.3036 9.99019 15.5033 9.60387 15.5999L8.10597 15.9744C7.45456 16.1372 6.86451 15.5472 7.02737 14.8958L7.40184 13.3979C7.49842 13.0116 7.69818 12.6588 7.97975 12.3772Z" fill="#212121"/>
</svg>
