<svg width="48" height="48" viewBox="0 0 48 48" fill="none" xmlns="http://www.w3.org/2000/svg">
<path d="M7.25 12.5C8.2165 12.5 9 11.7165 9 10.75C9 9.7835 8.2165 9 7.25 9C6.2835 9 5.5 9.7835 5.5 10.75C5.5 11.7165 6.2835 12.5 7.25 12.5ZM42.5 10.75C42.5 11.7165 41.7165 12.5 40.75 12.5C39.7835 12.5 39 11.7165 39 10.75C39 9.7835 39.7835 9 40.75 9C41.7165 9 42.5 9.7835 42.5 10.75Z" fill="#212121"/>
<path d="M8.5 15.25C8.5 14.5596 7.94036 14 7.25 14C6.55964 14 6 14.5596 6 15.25V39.75C6 40.9926 7.00736 42 8.25 42H17.75C18.9926 42 20 40.9926 20 39.75V36.75C20 34.6789 21.6789 33 23.75 33H24.25C26.3211 33 28 34.6789 28 36.75V39.75C28 40.9926 29.0074 42 30.25 42H39.75C40.9926 42 42 40.9926 42 39.75V15.25C42 14.5596 41.4404 14 40.75 14C40.0596 14 39.5 14.5596 39.5 15.25V26H34.9119C35.6105 24.4779 36 22.7844 36 21C36 19.132 35.1567 17.4516 34.0542 16.0446C32.9473 14.6321 31.5024 13.3954 30.108 12.386C28.7066 11.3717 27.3128 10.5558 26.2734 9.9948C25.7523 9.71351 25.3168 9.49441 25.0094 9.34466C24.8556 9.26974 24.7336 9.21207 24.6488 9.17254C24.6064 9.15277 24.5733 9.13753 24.55 9.12692L24.5227 9.11451L24.5148 9.11093L24.5114 9.10941C24.1864 8.96391 23.8142 8.96363 23.4892 9.10912L23.4877 9.10981L23.4852 9.11093L23.4773 9.11451L23.45 9.12692C23.4267 9.13753 23.3936 9.15277 23.3512 9.17254C23.2664 9.21207 23.1444 9.26974 22.9906 9.34466C22.6832 9.49441 22.2477 9.71351 21.7266 9.9948C20.6872 10.5558 19.2934 11.3717 17.892 12.386C16.4976 13.3954 15.0527 14.6321 13.9458 16.0446C12.8433 17.4516 12 19.132 12 21C12 22.7844 12.3895 24.4779 13.0881 26H8.5V15.25Z" fill="#242424"/>
</svg>
