<svg width="32" height="32" viewBox="0 0 32 32" fill="none" xmlns="http://www.w3.org/2000/svg">
<path d="M3 5.5C3 4.11929 4.11929 3 5.5 3H7.5C8.88071 3 10 4.11929 10 5.5V26.5C10 27.8807 8.88071 29 7.5 29H5.5C4.11929 29 3 27.8807 3 26.5V5.5ZM5.5 5C5.22386 5 5 5.22386 5 5.5V26.5C5 26.7761 5.22386 27 5.5 27H7.5C7.77614 27 8 26.7761 8 26.5V5.5C8 5.22386 7.77614 5 7.5 5H5.5ZM12 5.5C12 4.11929 13.1193 3 14.5 3H16.5C17.8807 3 19 4.11929 19 5.5V26.5C19 27.8807 17.8807 29 16.5 29H14.5C13.1193 29 12 27.8807 12 26.5V5.5ZM14.5 5C14.2239 5 14 5.22386 14 5.5V26.5C14 26.7761 14.2239 27 14.5 27H16.5C16.7761 27 17 26.7761 17 26.5V5.5C17 5.22386 16.7761 5 16.5 5H14.5ZM21.7991 7.6051C20.5046 7.96344 19.7364 9.33806 20.0833 10.6754L24.3539 27.1413C24.7008 28.4787 26.0313 29.2723 27.3258 28.914L29.2009 28.3949C30.4954 28.0366 31.2636 26.6619 30.9167 25.3246L26.6461 8.85867C26.2992 7.52134 24.9687 6.7277 23.6742 7.08604L21.7991 7.6051ZM21.9584 10.1563C21.889 9.88886 22.0426 9.61394 22.3015 9.54227L24.1766 9.02321C24.4355 8.95154 24.7016 9.11027 24.771 9.37774L29.0416 25.8437C29.111 26.1111 28.9574 26.3861 28.6985 26.4577L26.8234 26.9768C26.5645 27.0485 26.2984 26.8897 26.229 26.6223L21.9584 10.1563Z" fill="#212121"/>
</svg>
