<svg width="16" height="16" viewBox="0 0 16 16" fill="none" xmlns="http://www.w3.org/2000/svg">
<path d="M1 3.24941C1 2.55938 1.55917 2 2.24895 2H2.74852C3.4383 2 3.99747 2.55938 3.99747 3.24941V12.745C3.99747 13.435 3.4383 13.9944 2.74852 13.9944H2.24895C1.55917 13.9944 1 13.435 1 12.745V3.24941ZM2.24895 2.99953C2.11099 2.99953 1.99916 3.11141 1.99916 3.24941V12.745C1.99916 12.883 2.11099 12.9948 2.24895 12.9948H2.74852C2.88648 12.9948 2.99831 12.883 2.99831 12.745V3.24941C2.99831 3.11141 2.88648 2.99953 2.74852 2.99953H2.24895ZM4.99663 3.24941C4.99663 2.55938 5.5558 2 6.24557 2H6.74515C7.43492 2 7.9941 2.55938 7.9941 3.24941V12.745C7.9941 13.435 7.43492 13.9944 6.74515 13.9944H6.24557C5.5558 13.9944 4.99663 13.435 4.99663 12.745V3.24941ZM6.24557 2.99953C6.10762 2.99953 5.99578 3.11141 5.99578 3.24941V12.745C5.99578 12.883 6.10762 12.9948 6.24557 12.9948H6.74515C6.88311 12.9948 6.99494 12.883 6.99494 12.745V3.24941C6.99494 3.11141 6.88311 2.99953 6.74515 2.99953H6.24557ZM11.9723 4.77682C11.7231 4.15733 11.0311 3.84331 10.4011 4.06385L9.81888 4.26764C9.14658 4.50297 8.80684 5.25222 9.07268 5.91326L12.0098 13.2166C12.2589 13.8361 12.9509 14.1502 13.581 13.9296L14.1632 13.7258C14.8355 13.4904 15.1752 12.7412 14.9093 12.0802L11.9723 4.77682ZM10.7311 5.00729C10.8571 4.96318 10.9955 5.02598 11.0453 5.14988L13.9824 12.4532C14.0356 12.5854 13.9676 12.7353 13.8332 12.7823L13.251 12.9862C13.1249 13.0303 12.9865 12.9675 12.9367 12.8436L9.99964 5.5402C9.94647 5.40799 10.0144 5.25815 10.1489 5.21108L10.7311 5.00729Z" fill="#212121"/>
</svg>
