<svg width="28" height="28" viewBox="0 0 28 28" fill="none" xmlns="http://www.w3.org/2000/svg">
<path d="M5.98973 3C7.09373 3 7.98973 3.896 7.98973 5V23C7.98973 24.104 7.09373 25 5.98973 25H4.00073C2.89573 25 2.00073 24.104 2.00073 23V5C2.00073 3.896 2.89573 3 4.00073 3H5.98973ZM12.9897 3C14.0937 3 14.9897 3.896 14.9897 5V23C14.9897 24.104 14.0937 25 12.9897 25H10.9947C9.88973 25 8.99473 24.104 8.99473 23V5C8.99473 3.896 9.88973 3 10.9947 3H12.9897ZM22.0701 6.5432L25.9301 22.0262C26.1971 23.0972 25.5441 24.1832 24.4731 24.4512L22.5101 24.9402C21.4391 25.2072 20.3531 24.5552 20.0861 23.4832L16.2261 8.0002C15.9581 6.9282 16.6111 5.8432 17.6821 5.5752L19.6451 5.0862C20.7161 4.8182 21.8021 5.4712 22.0701 6.5432Z" fill="#212121"/>
</svg>
