<svg width="16" height="16" viewBox="0 0 16 16" fill="none" xmlns="http://www.w3.org/2000/svg">
<path d="M4.11096 6.18914L4.10999 6.19037L4.10825 6.19258L4.10329 6.19894L4.08771 6.21936C4.07491 6.23635 4.05739 6.26009 4.03599 6.29026C3.9932 6.35055 3.93472 6.43679 3.86719 6.54649C3.7324 6.76546 3.55998 7.08054 3.40468 7.47178C3.09479 8.25245 2.84523 9.35744 3.12352 10.6086C3.38814 11.7982 3.89831 12.9035 4.78235 13.7126C5.67455 14.5292 6.89967 15 8.50377 15C10.1215 15 11.3879 14.4571 12.2467 13.5266C13.0993 12.6027 13.5038 11.3471 13.5038 10C13.5038 9.14123 13.2183 8.31144 12.8345 7.53604C12.4692 6.7979 11.9952 6.07168 11.5496 5.38919C11.5278 5.35579 11.5061 5.32249 11.4844 5.2893C11.0115 4.56435 10.5809 3.89406 10.2949 3.25635C10.0091 2.61894 9.89723 2.07627 9.99287 1.59806C10.0222 1.45117 9.98422 1.29885 9.88925 1.18301C9.79428 1.06716 9.65238 1 9.50258 1C9.08062 1 8.37739 1.14838 7.71037 1.49339C7.03729 1.84154 6.33351 2.42606 6.02824 3.34189C5.63813 4.51222 6.08723 5.83198 6.47144 6.66488C6.64247 7.03564 6.49397 7.44529 6.21016 7.5872C5.94287 7.72084 5.61785 7.6125 5.4842 7.34521L4.94979 6.27639C4.87342 6.12365 4.72437 6.02044 4.55452 6.0027C4.38466 5.98497 4.21724 6.05547 4.11096 6.18914Z" fill="#212121"/>
</svg>
