<svg width="20" height="20" viewBox="0 0 20 20" fill="none" xmlns="http://www.w3.org/2000/svg">
<path d="M10 4C12.4646 4 13.8627 5.5736 14.066 7.47399L14.1282 7.47399C15.7143 7.47399 17 8.71103 17 10.237C17 11.763 15.7143 13 14.1282 13L13.425 12.999L13.412 13.033L11.9293 15.7367C11.7972 15.9792 11.4935 16.0686 11.251 15.9364C11.0355 15.819 10.9409 15.566 11.0153 15.3409L11.0513 15.2581L12.29 12.999H10.437L10.423 13.033L8.94035 15.7367C8.80819 15.9792 8.5045 16.0686 8.26204 15.9364C8.04651 15.819 7.95191 15.566 8.02637 15.3409L8.06231 15.2581L9.301 12.999H7.432L5.94006 15.7367C5.82259 15.9522 5.56958 16.0468 5.34452 15.9724L5.26175 15.9364C5.04623 15.819 4.95163 15.566 5.02608 15.3409L5.06203 15.2581L6.293 12.999L5.87179 13C4.28575 13 3 11.763 3 10.237C3 8.76755 4.19227 7.56602 5.69687 7.47903L5.93399 7.47399C6.13851 5.56111 7.53544 4 10 4ZM10 5C8.35056 5 6.9129 6.2703 6.9129 8.02495C6.9129 8.30297 6.65891 8.52113 6.36808 8.52112L5.81818 8.5211C4.81403 8.5211 4 9.29988 4 10.2606C4 11.2212 4.81403 12 5.81818 12H14.1818C15.186 12 16 11.2212 16 10.2606C16 9.29988 15.186 8.5211 14.1818 8.5211L13.6319 8.52112C13.3411 8.52113 13.0871 8.30297 13.0871 8.02495C13.0871 6.24779 11.6494 5 10 5Z" fill="#212121"/>
</svg>
