<svg width="20" height="20" viewBox="0 0 20 20" fill="none" xmlns="http://www.w3.org/2000/svg">
<path d="M10 6.5V2H5.5C4.67157 2 4 2.67157 4 3.5V9.20703C4.47683 9.07217 4.97999 9 5.5 9C8.53757 9 11 11.4624 11 14.5C11 15.8296 10.5282 17.0491 9.74284 18H14.5C15.3284 18 16 17.3284 16 16.5V8H11.5C10.6716 8 10 7.32843 10 6.5ZM11 6.5V2.25L15.75 7H11.5C11.2239 7 11 6.77614 11 6.5ZM4.01016 14C4.05684 12.8717 4.25922 11.8769 4.5499 11.1502C4.71692 10.7326 4.90329 10.4283 5.08467 10.2365C5.26504 10.0457 5.40552 10 5.49988 10C5.59424 10 5.73472 10.0457 5.91509 10.2365C6.09646 10.4283 6.28284 10.7326 6.44985 11.1502C6.74053 11.8769 6.94291 12.8717 6.9896 14H4.01016ZM3.62143 10.7788C3.68538 10.6189 3.75467 10.4654 3.82942 10.3202C2.31913 10.9244 1.21268 12.3234 1.02734 14H3.00938C3.05648 12.7664 3.27658 11.6409 3.62143 10.7788ZM7.37833 10.7788C7.31438 10.6189 7.24508 10.4654 7.17033 10.3202C8.68063 10.9244 9.78708 12.3234 9.97241 14H7.99038C7.94328 12.7664 7.72317 11.6409 7.37833 10.7788ZM7.99038 15H9.97241C9.78708 16.6766 8.68063 18.0756 7.17033 18.6798C7.24508 18.5346 7.31438 18.3811 7.37833 18.2212C7.72317 17.3591 7.94328 16.2336 7.99038 15ZM5.91509 18.7635C5.73472 18.9543 5.59424 19 5.49988 19C5.40552 19 5.26504 18.9543 5.08467 18.7635C4.90329 18.5717 4.71692 18.2674 4.5499 17.8498C4.25922 17.1231 4.05684 16.1283 4.01016 15H6.9896C6.94291 16.1283 6.74053 17.1231 6.44985 17.8498C6.28284 18.2674 6.09646 18.5717 5.91509 18.7635ZM1.02734 15C1.21268 16.6766 2.31913 18.0756 3.82942 18.6798C3.75467 18.5346 3.68538 18.3811 3.62143 18.2212C3.27658 17.3591 3.05648 16.2336 3.00938 15H1.02734Z" fill="#212121"/>
</svg>
