<svg width="24" height="24" viewBox="0 0 24 24" fill="none" xmlns="http://www.w3.org/2000/svg">
<path d="M11.2496 13.7499C11.5158 14.0161 11.5401 14.4328 11.3222 14.7264L11.2496 14.8105L9.27872 16.7814C9.01242 17.0477 8.59569 17.0718 8.30208 16.8539L8.21796 16.7813L6.24873 14.8105C5.9559 14.5176 5.95599 14.0427 6.24894 13.7499C6.51525 13.4836 6.93192 13.4595 7.22549 13.6774L7.3096 13.7501L7.99951 14.4412L7.99922 7.74951C7.99922 7.36982 8.28137 7.05602 8.64745 7.00636L8.74922 6.99951C9.12891 6.99951 9.44271 7.28167 9.49237 7.64774L9.49922 7.74951L9.49951 14.4392L10.1889 13.7499C10.4552 13.4836 10.8719 13.4594 11.1655 13.6772L11.2496 13.7499ZM1.99902 12C1.99902 17.5228 6.47617 22 11.999 22C17.5219 22 21.999 17.5228 21.999 12C21.999 6.47715 17.5219 2 11.999 2C6.47618 2 1.99902 6.47715 1.99902 12ZM17.6654 13.6772L17.7495 13.7499C18.0158 14.0161 18.04 14.4328 17.8221 14.7264L17.7495 14.8105L15.7787 16.7813C15.5124 17.0476 15.0957 17.0718 14.8021 16.8538L14.718 16.7812L12.7488 14.8105C12.456 14.5176 12.456 14.0427 12.749 13.7499C13.0153 13.4836 13.432 13.4595 13.7256 13.6774L13.8097 13.7501L14.4995 14.4412L14.4992 7.74945C14.4992 7.36975 14.7814 7.05596 15.1474 7.0063L15.2492 6.99945C15.6289 6.99945 15.9427 7.28161 15.9924 7.64768L15.9992 7.74945L15.9995 14.4392L16.6889 13.7499C16.9551 13.4836 17.3718 13.4594 17.6654 13.6772Z" fill="#212121"/>
</svg>
