<svg width="32" height="32" viewBox="0 0 32 32" fill="none" xmlns="http://www.w3.org/2000/svg">
<path d="M5.25 5C4.55964 5 4 5.55964 4 6.25V24.5C4 25.8807 5.11929 27 6.5 27H17.4483C17.3308 26.6764 17.2666 26.3271 17.2666 25.9628V6.25C17.2666 5.55964 16.707 5 16.0166 5H5.25ZM20 28.985V29H6.5C4.01472 29 2 26.9853 2 24.5V6.25C2 4.45507 3.45507 3 5.25 3H16.0166C17.8116 3 19.2666 4.45507 19.2666 6.25V8H27V8.00138C27.03 8.00046 27.06 8 27.0902 8C28.6972 8 30 9.30278 30 10.9098V19.75C30 21.5449 28.5449 23 26.75 23H23.9379L23.2907 26.513C23.0253 27.954 21.769 29 20.3038 29C20.2013 29 20.0999 28.9949 20 28.985ZM24.326 10H19.2666V25.9628C19.2666 26.5356 19.731 27 20.3038 27C20.8042 27 21.2332 26.6428 21.3238 26.1507L24.2285 10.3827C24.2526 10.2515 24.2854 10.1238 24.326 10ZM24.3063 21H26.75C27.4404 21 28 20.4404 28 19.75V10.9098C28 10.4073 27.5927 10 27.0902 10C26.6512 10 26.2749 10.3134 26.1954 10.745L24.3063 21ZM8 9C8 9.55228 7.55228 10 7 10C6.44772 10 6 9.55228 6 9C6 8.44772 6.44772 8 7 8C7.55228 8 8 8.44772 8 9ZM7 15C6.44772 15 6 15.4477 6 16C6 16.5523 6.44772 17 7 17H14C14.5523 17 15 16.5523 15 16C15 15.4477 14.5523 15 14 15H7ZM6 22C6 21.4477 6.44772 21 7 21H14C14.5523 21 15 21.4477 15 22C15 22.5523 14.5523 23 14 23H7C6.44772 23 6 22.5523 6 22Z" fill="#212121"/>
</svg>
