<?xml version="1.0" encoding="UTF-8"?>
<svg width="24px" height="24px" viewBox="0 0 24 24" version="1.1" xmlns="http://www.w3.org/2000/svg" xmlns:xlink="http://www.w3.org/1999/xlink">
    <!-- Generator: Sketch 59.1 (86144) - https://sketch.com -->
    <title>ic_fluent_cellular_3_g_24_regular</title>
    <desc>Created with Sketch.</desc>
    <g id="ðŸ”-Product-Icons" stroke="none" stroke-width="1" fill="none" fill-rule="evenodd">
        <g id="ic_fluent_cellular_3_g_24_regular" fill="#212121" fill-rule="nonzero">
            <path d="M11.75,12 C12.1296958,12 12.443491,12.2821539 12.4931534,12.6482294 L12.5,12.75 L12.5,20.25 C12.5,20.6642136 12.1642136,21 11.75,21 C11.3703042,21 11.056509,20.7178461 11.0068466,20.3517706 L11,20.25 L11,12.75 C11,12.3357864 11.3357864,12 11.75,12 Z M15.75,9 C16.1296958,9 16.443491,9.28215388 16.4931534,9.64822944 L16.5,9.75 L16.5,20.25 C16.5,20.6642136 16.1642136,21 15.75,21 C15.3703042,21 15.056509,20.7178461 15.0068466,20.3517706 L15,20.25 L15,9.75 C15,9.33578644 15.3357864,9 15.75,9 Z M3.75,18 C4.12969577,18 4.44349096,18.2821539 4.49315338,18.6482294 L4.5,18.75 L4.5,20.25 C4.5,20.6642136 4.16421356,21 3.75,21 C3.37030423,21 3.05650904,20.7178461 3.00684662,20.3517706 L3,20.25 L3,18.75 C3,18.3357864 3.33578644,18 3.75,18 Z M19.742726,6 C20.1224039,5.99635605 20.4389211,6.27522768 20.492132,6.64050924 L20.4999655,6.74212651 L20.4999655,20.2431626 C20.5039832,20.6570224 20.1714696,20.9957764 19.7572755,20.999897 C19.3775976,21.0034768 19.0610804,20.7245997 19.0078695,20.3593177 L19.000036,20.2577004 L19.000036,6.75666426 C18.9960183,6.3428045 19.3285319,6.00405049 19.742726,6 Z M7.75,15 C8.12969577,15 8.44349096,15.2821539 8.49315338,15.6482294 L8.5,15.75 L8.5,20.2487201 C8.5,20.6629337 8.16421356,20.9987201 7.75,20.9987201 C7.37030423,20.9987201 7.05650904,20.7165662 7.00684662,20.3504907 L7,20.2487201 L7,15.75 C7,15.3357864 7.33578644,15 7.75,15 Z M4.98529412,3 C5.60294426,3 6.08689664,3.1477258 6.43716578,3.44318182 C6.78743491,3.73863784 6.96256684,4.14571933 6.96256684,4.6644385 C6.96256684,4.93181952 6.88101686,5.17780636 6.71791444,5.40240642 C6.55481202,5.62700647 6.34091041,5.79946464 6.07620321,5.9197861 C6.40508186,6.03743374 6.65040026,6.21390257 6.81216578,6.44919786 C6.97393129,6.68449316 7.05481283,6.96256524 7.05481283,7.28342246 C7.05481283,7.80214163 6.8656436,8.21791287 6.48729947,8.53074866 C6.10895533,8.84358445 5.60829189,9 4.98529412,9 C4.4024035,9 3.92580399,8.84625822 3.55548128,8.53877005 C3.18515858,8.23128189 3,7.82486884 3,7.31951872 L4.15909091,7.31951872 C4.15909091,7.53877115 4.24130934,7.71791374 4.40574866,7.85695187 C4.57018799,7.99599 4.77272607,8.06550802 5.01336898,8.06550802 C5.28877143,8.06550802 5.50467836,7.99264779 5.66109626,7.84692513 C5.81751415,7.70120248 5.89572193,7.50802259 5.89572193,7.26737968 C5.89572193,6.68448906 5.57486952,6.39304813 4.93315508,6.39304813 L4.31951872,6.39304813 L4.31951872,5.48663102 L4.93716578,5.48663102 C5.23128489,5.48663102 5.44919715,5.41310234 5.59090909,5.26604278 C5.73262103,5.11898322 5.80347594,4.92379801 5.80347594,4.68048128 C5.80347594,4.44518599 5.73328947,4.26203274 5.59291444,4.13101604 C5.45253941,4 5.25935952,3.93449198 5.01336898,3.93449198 C4.79144274,3.93449198 4.60561572,3.99532025 4.45588235,4.11697861 C4.30614898,4.23863697 4.23128342,4.39705785 4.23128342,4.59224599 L3.07219251,4.59224599 C3.07219251,4.28743163 3.15441094,4.01403864 3.31885027,3.77205882 C3.48328959,3.530079 3.71323382,3.34090977 4.00868984,3.20454545 C4.30414586,3.06818114 4.62967737,3 4.98529412,3 Z M10.6818182,3 C11.374335,3 11.9157734,3.1651053 12.3061497,3.49532086 C12.696526,3.82553641 12.9278071,4.30614658 13,4.93716578 L11.828877,4.93716578 C11.7754008,4.60293951 11.6570865,4.35828955 11.4739305,4.20320856 C11.2907745,4.04812757 11.0387717,3.97058824 10.7179144,3.97058824 C10.3088215,3.97058824 9.99732727,4.12433001 9.78342246,4.43181818 C9.56951765,4.73930635 9.46122996,5.19652103 9.45855615,5.80347594 L9.45855615,6.17647059 C9.45855615,6.78877311 9.57486515,7.25133533 9.80748663,7.56417112 C10.0401081,7.87700691 10.3810138,8.03342246 10.8302139,8.03342246 C11.2820878,8.03342246 11.6042771,7.93716674 11.7967914,7.74465241 L11.7967914,6.73796791 L10.7018717,6.73796791 L10.7018717,5.85160428 L13,5.85160428 L13,8.18181818 C12.7834214,8.44117777 12.4772747,8.64237896 12.0815508,8.78542781 C11.6858269,8.92847665 11.2473286,9 10.7660428,9 C10.2606927,9 9.81751527,8.88970699 9.43649733,8.66911765 C9.05547938,8.44852831 8.76136467,8.12834434 8.55414439,7.70855615 C8.3469241,7.28876795 8.24064174,6.79545738 8.23529412,6.22860963 L8.23529412,5.8315508 C8.23529412,5.24866019 8.33355517,4.74398609 8.53008021,4.31751337 C8.72660526,3.89104065 9.01002489,3.5648407 9.38034759,3.33890374 C9.7506703,3.11296678 10.1844895,3 10.6818182,3 Z" id="ðŸŽ¨Color"></path>
        </g>
    </g>
</svg>