<svg width="48" height="48" viewBox="0 0 48 48" fill="none" xmlns="http://www.w3.org/2000/svg">
<path d="M24.2593 4.0498C24.9065 4.0498 25.4388 4.54188 25.5027 5.17222L25.5091 5.30003L25.5077 13.0748L30.6291 8.57642C31.1477 8.12076 31.9375 8.1718 32.3931 8.69042C32.8488 9.20904 32.7978 9.99885 32.2791 10.4545L25.5087 16.4028L25.5057 23.0008H32.1107L38.0613 16.2329C38.4867 15.749 39.2031 15.6725 39.7183 16.0351L39.8254 16.1195C40.3093 16.5449 40.3858 17.2613 40.0232 17.7765L39.9388 17.8836L35.4397 22.9998L43.2124 23.0008C43.8596 23.0007 44.392 23.4926 44.4561 24.1229L44.4625 24.2507C44.4625 24.8979 43.9707 25.4303 43.3404 25.4943L43.2126 25.5008L35.4347 25.5008L39.9345 30.6232C40.3598 31.1072 40.3437 31.8275 39.918 32.2919L39.8205 32.3873C39.3364 32.8126 38.6162 32.7965 38.1518 32.3708L38.0564 32.2733L32.1067 25.5018L25.5047 25.5008L25.5037 32.1008L32.2791 38.0541C32.7632 38.4794 32.8399 39.1957 32.4775 39.711L32.3931 39.8182C31.9679 40.3022 31.2515 40.379 30.7362 40.0166L30.6291 39.9322L25.5037 35.4288L25.5023 43.2069C25.5022 43.8541 25.0103 44.3862 24.3799 44.4502L24.2521 44.4567C23.6049 44.4567 23.0727 43.9646 23.0088 43.3343L23.0023 43.2064L23.0027 35.4348L17.8895 39.9319C17.371 40.3877 16.5812 40.337 16.1253 39.8185C15.6695 39.3001 15.7203 38.5102 16.2387 38.0544L23.0037 32.1058L23.0047 25.5018L16.8617 25.5029C16.837 25.5376 16.8103 25.5713 16.7816 25.6039L10.4601 32.799C10.0045 33.3176 9.21468 33.3686 8.69606 32.913C8.17743 32.4573 8.12639 31.6675 8.58205 31.1489L13.5427 25.5018L5.30575 25.5032C4.65854 25.5033 4.12614 25.0114 4.06212 24.3811L4.05566 24.2533C4.05566 23.6061 4.54747 23.0737 5.17778 23.0097L5.30558 23.0032L12.6137 23.0028L8.58158 18.4084C8.12622 17.8895 8.17771 17.0998 8.69659 16.6444C9.21547 16.189 10.0052 16.2405 10.4606 16.7594L15.9397 23.0018H23.0057L23.0067 16.3998L16.2387 10.4496C15.7548 10.0242 15.6783 9.30777 16.0409 8.79262L16.1253 8.68549C16.5508 8.20159 17.2672 8.12512 17.7823 8.48769L17.8895 8.57212L23.0077 13.0718L23.0091 5.29958C23.0092 4.69552 23.4378 4.19171 24.0074 4.07519L24.1315 4.05626L24.2593 4.0498Z" fill="#212121"/>
</svg>
