<svg width="20" height="20" viewBox="0 0 20 20" fill="none" xmlns="http://www.w3.org/2000/svg">
<path d="M10 2C8.34315 2 7 3.34315 7 5C7 6.65685 8.34315 8 10 8C11.6569 8 13 6.65685 13 5C13 3.34315 11.6569 2 10 2ZM5.0528 9.99585C5.01946 10.1587 5.00195 10.3273 5.00195 10.5V14C5.00195 15.5286 5.68794 16.897 6.76887 17.8142C6.7124 17.832 6.65527 17.8487 6.59751 17.8642C4.46365 18.4359 2.2703 17.1696 1.69853 15.0357L1.05148 12.6209C0.837071 11.8207 1.31194 10.9982 2.11214 10.7838L5.0528 9.99585ZM16.5 4C15.1193 4 14 5.11929 14 6.5C14 7.88071 15.1193 9 16.5 9C17.8807 9 19 7.88071 19 6.5C19 5.11929 17.8807 4 16.5 4ZM3.5 4C2.11929 4 1 5.11929 1 6.5C1 7.88071 2.11929 9 3.5 9C4.88071 9 6 7.88071 6 6.5C6 5.11929 4.88071 4 3.5 4ZM7.5 9C6.67157 9 6 9.67157 6 10.5V14C6 16.2091 7.79086 18 10 18C10.0842 18 10.1678 17.9974 10.2508 17.9923C9.46927 17.0425 9 15.826 9 14.5C9 11.919 10.7779 9.7532 13.1757 9.16047C12.9727 9.05783 12.7431 9 12.5 9H7.5ZM19 14.5C19 16.9853 16.9853 19 14.5 19C12.0147 19 10 16.9853 10 14.5C10 12.0147 12.0147 10 14.5 10C16.9853 10 19 12.0147 19 14.5ZM15 12.5C15 12.2239 14.7761 12 14.5 12C14.2239 12 14 12.2239 14 12.5V14H12.5C12.2239 14 12 14.2239 12 14.5C12 14.7761 12.2239 15 12.5 15H14V16.5C14 16.7761 14.2239 17 14.5 17C14.7761 17 15 16.7761 15 16.5V15H16.5C16.7761 15 17 14.7761 17 14.5C17 14.2239 16.7761 14 16.5 14H15V12.5Z" fill="#212121"/>
</svg>
