<svg width="24" height="24" viewBox="0 0 24 24" fill="none" xmlns="http://www.w3.org/2000/svg">
<path d="M17.4976 11.9956C20.5351 11.9956 22.9976 14.458 22.9976 17.4956C22.9976 20.5332 20.5351 22.9956 17.4976 22.9956C14.46 22.9956 11.9976 20.5332 11.9976 17.4956C11.9976 14.458 14.46 11.9956 17.4976 11.9956ZM17.4976 13.9948L17.4077 14.0029C17.2036 14.0399 17.0427 14.2009 17.0056 14.405L16.9976 14.4948L16.9972 16.9948L14.4952 16.9956L14.4053 17.0037C14.2012 17.0407 14.0403 17.2016 14.0033 17.4057L13.9952 17.4956L14.0033 17.5855C14.0403 17.7896 14.2012 17.9505 14.4053 17.9876L14.4952 17.9956L16.9982 17.9948L16.9987 20.4991L17.0067 20.589C17.0438 20.7931 17.2047 20.954 17.4088 20.991L17.4987 20.9991L17.5885 20.991C17.7926 20.954 17.9536 20.7931 17.9906 20.589L17.9987 20.4991L17.9982 17.9948L20.5021 17.9956L20.592 17.9876C20.7961 17.9505 20.957 17.7896 20.9941 17.5855L21.0021 17.4956L20.9941 17.4057C20.957 17.2016 20.7961 17.0407 20.592 17.0037L20.5021 16.9956L17.9972 16.9948L17.9976 14.4948L17.9895 14.405C17.9525 14.2009 17.7915 14.0399 17.5874 14.0029L17.4976 13.9948ZM12.0195 13.9954C11.7228 14.4588 11.4832 14.9624 11.3109 15.4962L9.24756 15.4956C9.10949 15.4956 8.99756 15.6075 8.99756 15.7456V16.7456C8.99756 17.7227 9.60952 18.2904 11.0667 18.4545C11.147 18.9904 11.2917 19.5051 11.4935 19.9902C8.93961 19.8529 7.49756 18.7687 7.49756 16.7456V15.7456C7.49756 14.7791 8.28106 13.9956 9.24756 13.9956L12.0195 13.9954ZM8.12355 8.99569C8.0413 9.31528 7.99756 9.65034 7.99756 9.99561C7.99756 10.1647 8.00805 10.3314 8.02843 10.4949L3.74756 10.4956C3.60949 10.4956 3.49756 10.6075 3.49756 10.7456V11.7456C3.49756 12.9218 4.38422 13.5046 6.56435 13.5046C7.02625 13.5046 7.42732 13.4791 7.7719 13.4273C7.20673 13.7853 6.78302 14.3446 6.59878 15.0038L6.56435 15.0046C3.65542 15.0046 1.99756 13.9148 1.99756 11.7456V10.7456C1.99756 9.82743 2.70467 9.07441 3.60403 9.00141L3.74756 8.99561L8.12355 8.99569ZM11.9976 6.99561C13.6544 6.99561 14.9976 8.33875 14.9976 9.99561C14.9976 11.6525 13.6544 12.9956 11.9976 12.9956C10.3407 12.9956 8.99756 11.6525 8.99756 9.99561C8.99756 8.33875 10.3407 6.99561 11.9976 6.99561ZM20.2476 8.99561C21.2141 8.99561 21.9976 9.77911 21.9976 10.7456L21.9965 11.7077C22.0161 12.0765 21.9863 12.4147 21.9091 12.722C21.4863 12.3311 21.0126 11.9964 20.4986 11.7284L20.4976 10.7456C20.4976 10.6075 20.3856 10.4956 20.2476 10.4956L15.9667 10.4948C15.9871 10.3313 15.9976 10.1647 15.9976 9.99561C15.9976 9.65034 15.9538 9.31528 15.8716 8.99569L20.2476 8.99561ZM11.9976 8.49561C11.1691 8.49561 10.4976 9.16718 10.4976 9.99561C10.4976 10.824 11.1691 11.4956 11.9976 11.4956C12.826 11.4956 13.4976 10.824 13.4976 9.99561C13.4976 9.16718 12.826 8.49561 11.9976 8.49561ZM6.49756 1.99561C8.15441 1.99561 9.49756 3.33875 9.49756 4.99561C9.49756 6.65246 8.15441 7.99561 6.49756 7.99561C4.8407 7.99561 3.49756 6.65246 3.49756 4.99561C3.49756 3.33875 4.8407 1.99561 6.49756 1.99561ZM17.4976 1.99561C19.1544 1.99561 20.4976 3.33875 20.4976 4.99561C20.4976 6.65246 19.1544 7.99561 17.4976 7.99561C15.8407 7.99561 14.4976 6.65246 14.4976 4.99561C14.4976 3.33875 15.8407 1.99561 17.4976 1.99561ZM6.49756 3.49561C5.66913 3.49561 4.99756 4.16718 4.99756 4.99561C4.99756 5.82403 5.66913 6.49561 6.49756 6.49561C7.32599 6.49561 7.99756 5.82403 7.99756 4.99561C7.99756 4.16718 7.32599 3.49561 6.49756 3.49561ZM17.4976 3.49561C16.6691 3.49561 15.9976 4.16718 15.9976 4.99561C15.9976 5.82403 16.6691 6.49561 17.4976 6.49561C18.326 6.49561 18.9976 5.82403 18.9976 4.99561C18.9976 4.16718 18.326 3.49561 17.4976 3.49561Z" fill="#212121"/>
</svg>
