<svg width="20" height="20" viewBox="0 0 20 20" fill="none" xmlns="http://www.w3.org/2000/svg">
<path d="M10 2C12.8166 2 14.4145 3.92329 14.6469 6.24599L14.7179 6.24599C16.5306 6.24599 18 7.75792 18 9.62299C18 11.4881 16.5306 13 14.7179 13H11V12H14.7179C15.9718 12 17 10.9421 17 9.62299C17 8.30393 15.9718 7.24599 14.718 7.24599L14.6469 7.24599C14.1332 7.24601 13.703 6.85673 13.6518 6.34554C13.4497 4.32493 12.1085 3 10 3C7.88606 3 6.55108 4.31588 6.34818 6.34547C6.29707 6.85669 5.86688 7.24601 5.3531 7.24599L5.28207 7.24599C4.02819 7.24599 3 8.30392 3 9.62299C3 10.9421 4.02819 12 5.28205 12H8V13H5.28205C3.46942 13 2 11.4881 2 9.62299C2 7.82009 3.3731 6.34717 5.10199 6.25098L5.35314 6.24599C5.58687 3.90802 7.18335 2 10 2ZM11.8536 9.85355C11.6583 10.0488 11.3417 10.0488 11.1464 9.85355L10 8.70711V16.2929L11.1464 15.1464C11.3417 14.9512 11.6583 14.9512 11.8536 15.1464C12.0488 15.3417 12.0488 15.6583 11.8536 15.8536L9.85355 17.8536C9.65829 18.0488 9.34171 18.0488 9.14645 17.8536L7.14645 15.8536C6.95118 15.6583 6.95118 15.3417 7.14645 15.1464C7.34171 14.9512 7.65829 14.9512 7.85355 15.1464L9 16.2929V8.70711L7.85355 9.85355C7.65829 10.0488 7.34171 10.0488 7.14645 9.85355C6.95118 9.65829 6.95118 9.34171 7.14645 9.14645L9.14645 7.14645C9.34171 6.95118 9.65829 6.95118 9.85355 7.14645L11.8536 9.14645C12.0488 9.34171 12.0488 9.65829 11.8536 9.85355Z" fill="#212121"/>
</svg>
