<?xml version="1.0" encoding="UTF-8"?>
<svg width="24px" height="24px" viewBox="0 0 24 24" version="1.1" xmlns="http://www.w3.org/2000/svg" xmlns:xlink="http://www.w3.org/1999/xlink">
    <!-- Generator: Sketch 59.1 (86144) - https://sketch.com -->
    <title>ic_fluent_text_strikethrough_24_filled</title>
    <desc>Created with Sketch.</desc>
    <g id="ðŸ”-Product-Icons" stroke="none" stroke-width="1" fill="none" fill-rule="evenodd">
        <g id="ic_fluent_text_strikethrough_24_filled" fill="#212121" fill-rule="nonzero">
            <path d="M13.8478904,11.5001562 L19.5006547,11.5001562 C20.0529395,11.5001562 20.5006547,11.9478714 20.5006547,12.5001562 C20.5006547,13.0524409 20.0529395,13.5001562 19.5006547,13.5001562 L17.1137633,13.5001562 C17.7747503,14.2751195 18.1123743,15.1751423 18.1123743,16.1846657 C18.1123743,19.1136639 14.8315614,21.0995436 11.0788131,20.6634184 C8.75105766,20.3928985 7.11435978,19.4445262 6.25234572,17.8309482 C5.99210883,17.3438187 6.04470088,16.8153343 6.5,16.5 C6.95529912,16.1846657 7.75616099,16.4014175 8.01639789,16.888547 C8.54931939,17.8861066 9.61990333,18.4804107 11.309689,18.676789 C13.896445,18.9774086 16.1123743,17.7669108 16.1123743,16.1846657 C16.1123743,15.0863913 15.5648903,14.2452102 14.0050052,13.5001562 L5,13.5001562 C4.44771525,13.5001562 4,13.0524409 4,12.5001562 C4,11.9478714 4.44771525,11.5001562 5,11.5001562 L13.8119942,11.5001562 C13.8307081,11.4999479 13.8317916,11.4999479 13.8478904,11.5001562 Z M6.98665712,9.69502914 C6.88193369,9.53686417 6.78285514,9.37004162 6.68906499,9.18567756 C6.38864048,8.59513068 6.22082631,7.97078799 6.2541897,7.35 C6.41351811,4.38539771 9.18804866,2.63703628 12.8561724,3.06332691 C15.1166494,3.32602801 16.8455314,4.1472353 18.0031217,5.55 C18.3546422,5.97597157 18.2759716,6.59847949 17.85,6.95 C17.4240284,7.30152051 16.8015205,7.27597157 16.45,6.85 C15.6371571,5.8649993 14.3820633,5.25411876 12.6252965,5.04995629 C10.0646712,4.75237349 8.25382943,5.76809262 8.25382943,7.37339471 C8.25382943,8.08716624 8.49271744,8.59318684 9.01562556,9.18315041 C9.24071099,9.43709981 9.66268082,9.70868258 10.281535,9.99789872 L7.19220303,9.99789872 C7.08081789,9.8347183 7.01230258,9.73376177 6.98665712,9.69502914 Z" id="ðŸŽ¨-Color"></path>
        </g>
    </g>
</svg>