<?xml version="1.0" encoding="UTF-8"?>
<svg width="24px" height="24px" viewBox="0 0 24 24" version="1.1" xmlns="http://www.w3.org/2000/svg" xmlns:xlink="http://www.w3.org/1999/xlink">
    <!-- Generator: Sketch 58 (84663) - https://sketch.com -->
    <title>ic_text_strikethrough_24_outlined</title>
    <desc>Created with Sketch.</desc>
    <g id="ðŸ”-Product-Icons" stroke="none" stroke-width="1" fill="none" fill-rule="evenodd">
        <g id="ic_text_strikethrough_24_outlined" fill="#212121">
            <path d="M4.75,12.0001992 L19.2506547,12.0001992 C19.6648683,12.0001992 20.0006547,12.3359857 20.0006547,12.7501992 C20.0006547,13.129895 19.7185008,13.4436902 19.3524253,13.4933526 L19.2506547,13.5001992 L16.2763266,13.5000946 C17.1552428,14.3132299 17.6123743,15.2931129 17.6123743,16.4347088 C17.6123743,19.2599854 14.3803741,21.0745231 10.8576726,20.6651327 C8.62330416,20.4054658 7.04895725,19.509552 6.22285224,17.9631911 C6.02767457,17.5978439 6.1656242,17.1434488 6.53097137,16.9482711 C6.89631853,16.7530934 7.3507137,16.8910431 7.54589137,17.2563902 C8.11606511,18.3236812 9.24830436,18.9680047 11.0308295,19.1751607 C13.7737623,19.4939303 16.1123743,18.1809664 16.1123743,16.4347088 C16.1123743,15.2094322 15.2322855,14.2213924 13.3010518,13.4462238 L13.431,13.5000365 L4.75,13.5001992 C4.33578644,13.5001992 4,13.1644128 4,12.7501992 C4,12.3705035 4.28215388,12.0567083 4.64822944,12.0070458 L4.75,12.0001992 L13.566,12.0000365 L19.2506547,12.0001992 Z M12.5844615,4.06165429 C14.7732158,4.31602015 16.4483679,5.11485049 17.5674478,6.47094837 C17.8310882,6.79042705 17.7858223,7.26313844 17.4663436,7.52677883 C17.1468649,7.79041921 16.6741535,7.74515333 16.4105132,7.42567466 C15.5583567,6.3930338 14.2394437,5.76408334 12.4113045,5.55162633 C9.69367608,5.23579742 7.76097795,6.35651429 7.76097795,8.12339341 C7.76097795,8.89541883 7.99478143,9.47152973 8.59075495,10.1045231 C8.69868192,10.2191541 8.88870792,10.4104642 8.9695583,10.4763451 L9,10.4978974 L7.08081974,10.4978974 C7.0812526,10.4705132 6.19289189,9.39026157 6.26097795,8.12339341 C6.4131329,5.29226676 9.08273288,3.65470126 12.5844615,4.06165429 Z" id="ðŸŽ¨-Color"></path>
        </g>
    </g>
</svg>