<svg width="20" height="20" viewBox="0 0 20 20" fill="none" xmlns="http://www.w3.org/2000/svg">
<path d="M4.61917 2.62512C4.66381 2.5477 4.74638 2.5 4.83575 2.5H8.00563C8.095 2.5 8.17756 2.5477 8.2222 2.62512L9.80795 5.37512C9.85252 5.45241 9.85252 5.54759 9.80795 5.62488L8.2222 8.37488C8.17756 8.4523 8.095 8.5 8.00563 8.5H4.83575C4.74638 8.5 4.66381 8.4523 4.61917 8.37488L3.03343 5.62488C2.98886 5.54759 2.98886 5.45241 3.03343 5.37512L4.61917 2.62512ZM4.83575 1.5C4.38892 1.5 3.97608 1.7385 3.75288 2.12558L2.16713 4.87558C1.94429 5.26204 1.94429 5.73796 2.16713 6.12442L3.75288 8.87442C3.97608 9.2615 4.38892 9.5 4.83575 9.5H8.00563C8.45245 9.5 8.86529 9.2615 9.0885 8.87442L10.6742 6.12442C10.8971 5.73796 10.8971 5.26204 10.6742 4.87558L9.0885 2.12558C8.86529 1.7385 8.45245 1.5 8.00563 1.5H4.83575ZM12.5965 7C12.5071 7 12.4246 7.0477 12.3799 7.12512L10.7942 9.87512C10.7496 9.95241 10.7496 10.0476 10.7942 10.1249L12.3799 12.8749C12.4246 12.9523 12.5071 13 12.5965 13H15.7664C15.8557 13 15.9383 12.9523 15.9829 12.8749L17.5687 10.1249C17.6133 10.0476 17.6133 9.95241 17.5687 9.87512L15.9829 7.12512C15.9383 7.0477 15.8557 7 15.7664 7H12.5965ZM11.5136 6.62558C11.7368 6.2385 12.1497 6 12.5965 6H15.7664C16.2132 6 16.626 6.2385 16.8492 6.62558L18.435 9.37558C18.6578 9.76204 18.6578 10.238 18.435 10.6244L16.8492 13.3744C16.626 13.7615 16.2132 14 15.7664 14H12.5965C12.1497 14 11.7368 13.7615 11.5136 13.3744L9.92788 10.6244C9.70503 10.238 9.70503 9.76204 9.92788 9.37558L11.5136 6.62558ZM4.83575 11.5C4.74638 11.5 4.66381 11.5477 4.61917 11.6251L3.03343 14.3751C2.98886 14.4524 2.98886 14.5476 3.03343 14.6249L4.61917 17.3749C4.66381 17.4523 4.74638 17.5 4.83575 17.5H8.00563C8.095 17.5 8.17756 17.4523 8.2222 17.3749L9.80795 14.6249C9.85252 14.5476 9.85252 14.4524 9.80795 14.3751L8.2222 11.6251C8.17756 11.5477 8.095 11.5 8.00563 11.5H4.83575ZM3.75288 11.1256C3.97608 10.7385 4.38892 10.5 4.83575 10.5H8.00563C8.45245 10.5 8.86529 10.7385 9.0885 11.1256L10.6742 13.8756C10.8971 14.262 10.8971 14.738 10.6742 15.1244L9.0885 17.8744C8.86529 18.2615 8.45245 18.5 8.00563 18.5H4.83575C4.38892 18.5 3.97608 18.2615 3.75288 17.8744L2.16713 15.1244C1.94429 14.738 1.94429 14.262 2.16713 13.8756L3.75288 11.1256Z" fill="#212121"/>
</svg>
