<svg width="24" height="24" viewBox="0 0 24 24" fill="none" xmlns="http://www.w3.org/2000/svg">
<path d="M17.7561 13.9992C18.9981 13.9992 20.005 15.0061 20.005 16.2481V16.8235C20.005 17.7178 19.6854 18.5826 19.1039 19.262C17.5345 21.0955 15.1473 22.0004 12.002 22.0004C11.839 22.0004 11.6782 21.9979 11.5193 21.9931L11.5266 21.9927C11.6426 21.9866 11.8947 21.9723 12.139 21.8576C12.6932 21.5971 13.0142 21.0407 13.001 20.4648C15.2251 20.3008 16.8663 19.5695 17.9643 18.2866C18.3132 17.879 18.505 17.3601 18.505 16.8235V16.2481C18.505 15.8345 18.1697 15.4992 17.7561 15.4992H11.4742C11.4216 14.9706 11.2867 14.4663 11.0826 13.9992H17.7561ZM12.002 2.00391C14.7634 2.00391 17.002 4.24248 17.002 7.00391C17.002 9.76533 14.7634 12.0039 12.002 12.0039C9.24053 12.0039 7.00195 9.76533 7.00195 7.00391C7.00195 4.24248 9.24053 2.00391 12.002 2.00391ZM12.002 3.50391C10.069 3.50391 8.50195 5.07091 8.50195 7.00391C8.50195 8.9369 10.069 10.5039 12.002 10.5039C13.9349 10.5039 15.502 8.9369 15.502 7.00391C15.502 5.07091 13.9349 3.50391 12.002 3.50391ZM6.5025 12C4.29336 12 2.5025 13.7909 2.5025 16L2.50228 19L1.55391 19.8004C1.2462 20.06 1.09233 20.1899 1.04574 20.2913C0.931211 20.5407 1.03909 20.8358 1.28746 20.9525C1.38849 21 1.58983 21 1.9925 21H11.0121C11.4148 21 11.6162 21 11.7172 20.9525C11.9656 20.8358 12.0735 20.5407 11.9589 20.2913C11.9123 20.1899 11.7584 20.06 11.4507 19.8003L10.5025 19V16C10.5025 13.7909 8.71164 12 6.5025 12ZM8.0025 22C7.78416 22.5826 7.19501 23 6.5025 23C5.80998 23 5.22084 22.5826 5.0025 22H8.0025Z" fill="#212121"/>
</svg>
