<svg width="16" height="16" viewBox="0 0 16 16" fill="none" xmlns="http://www.w3.org/2000/svg">
<path d="M3.75 2C2.7835 2 2 2.7835 2 3.75V12.25C2 13.2165 2.7835 14 3.75 14H12.25C13.2165 14 14 13.2165 14 12.25V3.75C14 2.7835 13.2165 2 12.25 2H3.75ZM3 3.75C3 3.33579 3.33579 3 3.75 3H12.25C12.6642 3 13 3.33579 13 3.75V12.25C13 12.6642 12.6642 13 12.25 13H3.75C3.33579 13 3 12.6642 3 12.25V3.75ZM6 6.5C6 6.22386 5.77614 6 5.5 6C5.22386 6 5 6.22386 5 6.5V10.5C5 10.7761 5.22386 11 5.5 11C5.77614 11 6 10.7761 6 10.5V6.5ZM8 8C8.27614 8 8.5 8.22386 8.5 8.5V10.5C8.5 10.7761 8.27614 11 8 11C7.72386 11 7.5 10.7761 7.5 10.5V8.5C7.5 8.22386 7.72386 8 8 8ZM11 5.5C11 5.22386 10.7761 5 10.5 5C10.2239 5 10 5.22386 10 5.5V10.5C10 10.7761 10.2239 11 10.5 11C10.7761 11 11 10.7761 11 10.5V5.5Z" fill="#212121"/>
</svg>
