<svg width="20" height="20" viewBox="0 0 20 20" fill="none" xmlns="http://www.w3.org/2000/svg">
<path d="M3 7C3 5.89543 3.89543 5 5 5H15C16.1046 5 17 5.89543 17 7V8.49982C16.7093 8.28146 16.3694 8.125 16 8.05001V7C16 6.44772 15.5523 6 15 6H5C4.44772 6 4 6.44772 4 7V12C4 12.5523 4.44772 13 5 13H9V14H5C3.89543 14 3 13.1046 3 12V7ZM2.5 16H9V15H2.5C2.22386 15 2 15.2239 2 15.5C2 15.7761 2.22386 16 2.5 16ZM12 10.5V11H11.5C10.6716 11 10 11.6716 10 12.5V16.5C10 17.3284 10.6716 18 11.5 18H17.5C18.3284 18 19 17.3284 19 16.5V12.5C19 11.6716 18.3284 11 17.5 11H17V10.5C17 9.67157 16.3284 9 15.5 9H13.5C12.6716 9 12 9.67157 12 10.5ZM13.5 10H15.5C15.7761 10 16 10.2239 16 10.5V11H13V10.5C13 10.2239 13.2239 10 13.5 10Z" fill="#212121"/>
</svg>
