<?xml version="1.0" encoding="UTF-8"?>
<svg width="20px" height="20px" viewBox="0 0 20 20" version="1.1" xmlns="http://www.w3.org/2000/svg" xmlns:xlink="http://www.w3.org/1999/xlink">
    <!-- Generator: Sketch 63.1 (92452) - https://sketch.com -->
    <title>ic_fluent_shapes_20_filled</title>
    <desc>Created with Sketch.</desc>
    <g id="ðŸ”-System-Icons" stroke="none" stroke-width="1" fill="none" fill-rule="evenodd">
        <g id="ic_fluent_shapes_20_filled" fill="#212121" fill-rule="nonzero">
            <path d="M15.5,8 C16.825472,8 17.9100378,9.03153766 17.9946823,10.3356245 L18,10.5 L18,15.5 C18,16.825472 16.9684531,17.9100378 15.6643744,17.9946823 L15.5,18 L10.5,18 C9.1745184,18 8.08996147,16.9684531 8.00531769,15.6643744 L8,15.5 L8,10.5 C8,9.1745184 9.03153766,8.08996147 10.3356245,8.00531769 L10.5,8 L15.5,8 Z M7.5,2 C10.369,2 12.725,4.19675 12.9776,7 L10.5,7 C8.567,7 7,8.567 7,10.5 L7,12.9776 C4.19675,12.725 2,10.369 2,7.5 C2,4.46243 4.46243,2 7.5,2 Z" id="ðŸŽ¨-Color"></path>
        </g>
    </g>
</svg>