<?xml version="1.0" encoding="UTF-8"?>
<svg width="16px" height="16px" viewBox="0 0 16 16" version="1.1" xmlns="http://www.w3.org/2000/svg" xmlns:xlink="http://www.w3.org/1999/xlink">
    <!-- Generator: Sketch 63.1 (92452) - https://sketch.com -->
    <title>ic_fluent_shapes_16_filled</title>
    <desc>Created with Sketch.</desc>
    <g id="ðŸ”-System-Icons" stroke="none" stroke-width="1" fill="none" fill-rule="evenodd">
        <g id="ic_fluent_shapes_16_filled" fill="#212121" fill-rule="nonzero">
            <path d="M12.5,6 C13.825472,6 14.9100378,7.03153766 14.9946823,8.33562452 L15,8.5 L15,12.5 C15,13.825472 13.9684531,14.9100378 12.6643744,14.9946823 L12.5,15 L8.5,15 C7.1745184,15 6.08996147,13.9684531 6.00531769,12.6643744 L6,12.5 L6,8.5 C6,7.1745184 7.03153766,6.08996147 8.33562452,6.00531769 L8.5,6 L12.5,6 Z M5.5,1 C7.81628,1 9.72381,2.75002 9.97254,5 L8.5,5 C6.567,5 5,6.567 5,8.5 L5,9.97254 C2.75002,9.72381 1,7.81628 1,5.5 C1,3.01472 3.01472,1 5.5,1 Z" id="ðŸŽ¨-Color"></path>
        </g>
    </g>
</svg>