<?xml version="1.0" encoding="UTF-8"?>
<svg width="24px" height="24px" viewBox="0 0 24 24" version="1.1" xmlns="http://www.w3.org/2000/svg" xmlns:xlink="http://www.w3.org/1999/xlink">
    <!-- Generator: Sketch 59.1 (86144) - https://sketch.com -->
    <title>ic_top_speed_24_regular</title>
    <desc>Created with Sketch.</desc>
    <g id="ðŸ”-Product-Icons" stroke="none" stroke-width="1" fill="none" fill-rule="evenodd">
        <g id="ic_top_speed_24_regular" fill="#212121">
            <path d="M10.0492532,15.4208574 L16.3060077,6.94493547 C16.5131405,6.66433611 16.8962754,6.58091825 17.2013158,6.75000494 C17.4758699,6.90219275 17.61052,7.21639422 17.5413028,7.51420559 L17.510592,7.61262428 L13.6405266,17.4116224 C13.2205308,18.475051 12.0179777,18.9966563 10.9545491,18.5766605 C10.8710782,18.543694 10.7898393,18.5053348 10.7113465,18.4618255 C9.71108052,17.9073691 9.34968053,16.6470175 9.904137,15.6467516 L9.97303013,15.5314501 L9.97303013,15.5314501 L10.0492532,15.4208574 L16.3060077,6.94493547 L10.0492532,15.4208574 Z M13.850015,12.7977214 L11.2560655,16.3117019 L11.2160666,16.373966 L11.2160666,16.373966 C11.0632395,16.6496733 11.1628536,16.9970689 11.4385609,17.149896 L11.5055502,17.1815268 L11.5055502,17.1815268 C11.769176,17.2856445 12.0638421,17.1796801 12.2044743,16.9439092 L12.2453929,16.8606213 L13.850015,12.7977214 Z M18.6095174,7.41397033 C19.364068,8.02528183 20.0469718,8.75083284 20.6317275,9.58595046 C21.1562296,10.3350171 21.6612578,11.2420254 21.9517027,11.9842912 C22.1026388,12.3700259 21.9122969,12.8050834 21.5265623,12.9560194 C21.1408277,13.1069554 20.7057702,12.9166136 20.5548341,12.530879 C20.4575421,12.2822379 20.3277108,12.0046594 20.1775548,11.7190679 L18.1280514,12.9023464 C17.769332,13.1094531 17.3106392,12.9865468 17.1035324,12.6278273 C16.9136845,12.2990011 17.0011393,11.8861696 17.2933389,11.6601229 L17.3780514,11.6033083 L19.3963044,10.4364308 L19.1658779,10.1227204 C18.8419948,9.70016342 18.4876665,9.31329453 18.1081562,8.96304177 L18.4883177,7.99876394 C18.5262055,7.90283222 18.5550318,7.80534515 18.5751558,7.70730436 L18.5988599,7.55995309 L18.6095174,7.41397033 Z M15.9809484,5.85271523 C15.8318986,5.9392755 15.694531,6.04936208 15.5743759,6.18134222 L15.4601633,6.32055973 L14.919203,7.05349635 C14.2174399,6.80955942 13.4886764,6.6517272 12.7502416,6.58305531 L12.75,9.25589923 C12.75,9.6701128 12.4142136,10.0058992 12,10.0058992 C11.6203042,10.0058992 11.306509,9.72374535 11.2568466,9.35766979 L11.25,9.25589923 L11.2496135,6.56662077 C9.65294084,6.68015443 8.06551588,7.21425939 6.65889532,8.19918572 C5.84294582,8.77051971 5.13152818,9.52142873 4.54015984,10.4038879 L6.62237477,11.6059717 C6.98109424,11.8130785 7.1040006,12.2717713 6.89689382,12.6304908 C6.70704594,12.959317 6.30579591,13.0899946 5.96393397,12.9499658 L5.87237477,12.9050099 L3.79818254,11.7080227 C3.6704134,11.9742424 3.55177265,12.248307 3.44255853,12.5292935 C3.29249811,12.9153696 2.8578736,13.1066981 2.47179751,12.9566377 C2.08572142,12.8065773 1.89439292,12.3719528 2.04445335,11.9858767 C2.85090303,9.91103954 4.12374054,8.14315832 5.79853067,6.97045765 C8.8904309,4.8054858 12.7328827,4.5119546 15.9809484,5.85271523 Z" id="ðŸŽ¨-Color"></path>
        </g>
    </g>
</svg>