<svg width="16" height="16" viewBox="0 0 16 16" fill="none" xmlns="http://www.w3.org/2000/svg">
<path d="M4.5 5C4.22386 5 4 5.22386 4 5.5C4 5.77614 4.22386 6 4.5 6H7.5C7.77614 6 8 5.77614 8 5.5C8 5.22386 7.77614 5 7.5 5H4.5ZM4 7.5C4 7.22386 4.22386 7 4.5 7H10.5C10.7761 7 11 7.22386 11 7.5C11 7.77614 10.7761 8 10.5 8H4.5C4.22386 8 4 7.77614 4 7.5ZM4.5 9C4.22386 9 4 9.22386 4 9.5C4 9.77614 4.22386 10 4.5 10H8.5C8.77614 10 9 9.77614 9 9.5C9 9.22386 8.77614 9 8.5 9H4.5ZM3 3C1.89543 3 1 3.89543 1 5V11C1 12.1046 1.89543 13 3 13H8.06651C7.98414 12.6744 7.97795 12.3317 8.04977 12H3C2.44772 12 2 11.5523 2 11V5C2 4.44772 2.44772 4 3 4H13C13.1542 4 13.3002 4.0349 13.4307 4.09723C13.8651 3.96844 14.3386 3.96418 14.79 4.10695C14.462 3.45066 13.7836 3 13 3H3ZM12.5835 6.58148L12.8673 5.83123C13.1246 5.15102 13.9292 4.81477 14.607 5.10421L14.9953 5.27001C15.468 5.47188 15.8595 5.83827 15.942 6.33088C16.3986 9.0554 14.0336 12.9314 11.3117 13.9196C10.8196 14.0982 10.2885 13.9606 9.86737 13.6742L9.52147 13.4389C8.91768 13.0282 8.82312 12.2007 9.31701 11.6498L9.86176 11.0421C10.1187 10.7555 10.5197 10.6303 10.8955 10.7193L12.1206 11.0095C13.0924 10.4023 13.6133 9.54874 13.683 8.44874L12.805 7.58999C12.5355 7.32651 12.4496 6.93527 12.5835 6.58148Z" fill="#212121"/>
</svg>
