<svg width="20" height="20" viewBox="0 0 20 20" fill="none" xmlns="http://www.w3.org/2000/svg">
<path d="M2 4.5C2 3.11929 3.11929 2 4.5 2H12.5C13.8807 2 15 3.11929 15 4.5V5H2V4.5Z" fill="#212121"/>
<path d="M2 6H15V12.5C15 13.8807 13.8807 15 12.5 15H4.5C3.11929 15 2 13.8807 2 12.5V6Z" fill="#212121"/>
<path d="M7.4998 18C6.29032 18 5.28144 17.1411 5.0498 16H12.4998C14.4328 16 15.9998 14.433 15.9998 12.5V5.05002C17.1409 5.28165 17.9998 6.29053 17.9998 7.50001V14C17.9998 16.2091 16.2089 18 13.9998 18H7.4998Z" fill="#212121"/>
</svg>
