<svg width="24" height="24" viewBox="0 0 24 24" fill="none" xmlns="http://www.w3.org/2000/svg">
<path d="M10.9595 16.4397C11.5457 15.8535 12.4962 15.8535 13.0823 16.4397C13.6685 17.0259 13.6685 17.9763 13.0823 18.5625C12.4962 19.1487 11.5457 19.1487 10.9595 18.5625C10.3734 17.9763 10.3734 17.0259 10.9595 16.4397ZM8.35601 13.6984C10.3995 11.6549 13.7126 11.6549 15.756 13.6984C16.2166 14.159 16.5943 14.7228 16.8573 15.3229C17.079 15.8287 16.8486 16.4185 16.3427 16.6402C15.8369 16.8618 15.2471 16.6315 15.0254 16.1256C14.8601 15.7483 14.6219 15.3926 14.3418 15.1126C13.0794 13.8502 11.0326 13.8502 9.77022 15.1126C9.49198 15.3908 9.26491 15.7314 9.09804 16.1128C8.87665 16.6188 8.28701 16.8495 7.78104 16.6281C7.27507 16.4067 7.04438 15.817 7.26577 15.3111C7.5298 14.7077 7.8959 14.1585 8.35601 13.6984ZM6.3103 10.7068C9.48446 7.53263 14.6308 7.53263 17.805 10.7068C18.4014 11.3032 18.9163 12.0247 19.3086 12.7917C19.5601 13.2834 19.3654 13.8859 18.8737 14.1374C18.382 14.3888 17.7795 14.1941 17.528 13.7024C17.2281 13.1161 16.8348 12.5651 16.3908 12.121C13.9976 9.72789 10.1176 9.72789 7.72451 12.121C7.25944 12.5861 6.882 13.1085 6.59129 13.6832C6.34201 14.1761 5.74041 14.3735 5.24759 14.1242C4.75476 13.875 4.55732 13.2734 4.8066 12.7805C5.19258 12.0175 5.69486 11.3222 6.3103 10.7068Z" fill="#212121"/>
</svg>
