<svg width="48" height="48" viewBox="0 0 48 48" fill="none" xmlns="http://www.w3.org/2000/svg">
<path d="M35.2876 7.44496C37.438 5.29454 41.0182 5.64904 42.7051 8.17944C43.9561 10.0559 43.7384 12.5489 42.1813 14.1802L34.1711 22.5719C33.6653 23.1017 33.0154 23.4719 32.3017 23.6366L26.5311 24.9683C26.1272 25.0615 25.7033 24.9484 25.3995 24.6663C25.0957 24.3842 24.9515 23.9699 25.0146 23.5602L25.8901 17.8691C26.0114 17.0808 26.3809 16.3517 26.9448 15.7877L35.2876 7.44496ZM40.625 9.56619C39.8132 8.34845 38.0902 8.17784 37.0553 9.21273L28.7126 17.5554C28.5246 17.7434 28.4015 17.9865 28.361 18.2492L27.7659 22.1176L31.7396 21.2006C31.9775 21.1457 32.1941 21.0223 32.3627 20.8457L40.3729 12.454C41.1223 11.669 41.227 10.4692 40.625 9.56619ZM28.6968 10.5003H10.25C8.17893 10.5003 6.5 12.1792 6.5 14.2503V19.1823C7.51032 18.4354 8.60621 17.6683 9.70839 17.0176C11.0498 16.2257 12.5037 15.543 13.8936 15.331C15.3394 15.1104 16.8405 15.3933 17.9492 16.6868C18.4716 17.2963 18.7759 17.9719 18.8708 18.6919C18.9638 19.3961 18.847 20.0684 18.6463 20.6737C18.286 21.76 17.5733 22.8415 16.9736 23.7516L16.8539 23.9334C16.1716 24.9717 15.658 25.799 15.4623 26.5361C15.3722 26.8753 15.3675 27.1386 15.4187 27.3572C15.468 27.5678 15.5884 27.8208 15.884 28.1164C16.287 28.5193 16.6418 28.6619 16.9434 28.7013C17.2642 28.7432 17.643 28.6829 18.0944 28.489C19.0368 28.0842 20.0024 27.2302 20.8662 26.3664C21.3544 25.8782 22.1458 25.8782 22.634 26.3664C23.1222 26.8545 23.1222 27.646 22.634 28.1341C21.765 29.0031 20.5056 30.1741 19.0812 30.786C18.3492 31.1005 17.5091 31.2965 16.6194 31.1802C15.7105 31.0614 14.8632 30.6311 14.1162 29.8841C13.5346 29.3025 13.1533 28.6476 12.9846 27.9273C12.8178 27.215 12.8787 26.5243 13.046 25.8944C13.3651 24.6931 14.1334 23.521 14.7647 22.5604L14.8 22.5066C15.4756 21.4787 16.0202 20.65 16.2733 19.8868C16.3936 19.5241 16.422 19.2438 16.3923 19.0189C16.3647 18.8096 16.2786 18.5792 16.051 18.3137C15.6597 17.8572 15.1296 17.6713 14.2706 17.8024C13.3559 17.9419 12.2317 18.4311 10.9793 19.1704C9.74598 19.8985 8.48743 20.8086 7.31239 21.6967C7.03898 21.9033 6.76704 22.1112 6.5 22.3159V33.7503C6.5 35.8213 8.17893 37.5003 10.25 37.5003H37.75C39.8211 37.5003 41.5 35.8213 41.5 33.7503V18.5147L44 15.8956V33.7503C44 37.202 41.2018 40.0003 37.75 40.0003H10.25C6.79822 40.0003 4 37.202 4 33.7503V14.2503C4 10.7985 6.79822 8.00026 10.25 8.00026H31.1968L28.6968 10.5003Z" fill="#212121"/>
</svg>
