<svg width="20" height="20" viewBox="0 0 20 20" fill="none" xmlns="http://www.w3.org/2000/svg">
<path d="M8.89997 15.6126L8.89997 10.9788C8.89997 9.62802 8.89997 8.58423 8.95617 7.74392C9.01302 6.89374 9.12932 6.209 9.38272 5.5834C10.0534 3.92768 11.3665 2.61452 13.0222 1.94389C13.3294 1.81948 13.6792 1.96762 13.8036 2.27475C13.928 2.58188 13.7799 2.93171 13.4727 3.05611C12.118 3.60481 11.0436 4.67922 10.4949 6.0339C10.3095 6.49178 10.2063 7.03363 10.1535 7.82399C10.1003 8.6196 10.1 9.62343 10.1 11.0011L10.1 15.6126L13.0757 12.6369C13.31 12.4026 13.6899 12.4026 13.9242 12.6369C14.1585 12.8712 14.1585 13.2511 13.9242 13.4854L9.92423 17.4854C9.81171 17.5979 9.65909 17.6612 9.49996 17.6612C9.34083 17.6612 9.18822 17.5979 9.0757 17.4854L5.0757 13.4854C4.84138 13.2511 4.84138 12.8712 5.0757 12.6369C5.31001 12.4026 5.68991 12.4026 5.92423 12.6369L8.89997 15.6126Z" fill="#212121"/>
</svg>
