<svg width="20" height="20" viewBox="0 0 20 20" fill="none" xmlns="http://www.w3.org/2000/svg">
<path d="M15.9893 15C15.9426 16.1281 15.7408 17.1229 15.4502 17.8496C15.2832 18.2672 15.0964 18.5719 14.915 18.7637C14.7348 18.9542 14.5943 19 14.5 19C14.4057 19 14.2652 18.9542 14.085 18.7637C13.9036 18.5719 13.7168 18.2672 13.5498 17.8496C13.2592 17.1229 13.0564 16.1281 13.0098 15H15.9893ZM12.0098 15C12.0569 16.2336 12.2763 17.3596 12.6211 18.2217C12.685 18.3814 12.7544 18.5347 12.8291 18.6797C11.319 18.0755 10.2127 16.6765 10.0273 15H12.0098ZM18.9727 15C18.7873 16.6766 17.6802 18.0755 16.1699 18.6797C16.2446 18.5347 16.314 18.3814 16.3779 18.2217C16.7228 17.3596 16.9431 16.2336 16.9902 15H18.9727ZM15.5 4C16.8807 4 18 5.11929 18 6.5V10.2568C17.693 10.0033 17.3576 9.78341 17 9.60059V6.5C17 5.67157 16.3284 5 15.5 5H4.5C3.67157 5 3 5.67157 3 6.5V13.5C3 14.3284 3.67157 15 4.5 15H9.02344C9.05439 15.3435 9.11682 15.6777 9.20801 16H4.5C3.11929 16 2 14.8807 2 13.5V6.5C2 5.11929 3.11929 4 4.5 4H15.5ZM4.5 12C4.77614 12 5 12.2239 5 12.5V13.5C5 13.7761 4.77614 14 4.5 14C4.22386 14 4 13.7761 4 13.5V12.5C4 12.2239 4.22386 12 4.5 12ZM12.8291 10.3203C12.7544 10.4653 12.685 10.6186 12.6211 10.7783C12.2763 11.6404 12.0569 12.7664 12.0098 14H10.0273C10.2127 12.3235 11.319 10.9245 12.8291 10.3203ZM14.5 10C14.5943 10 14.7348 10.0458 14.915 10.2363C15.0964 10.4281 15.2832 10.7328 15.4502 11.1504C15.7408 11.8771 15.9426 12.8719 15.9893 14H13.0098C13.0564 12.8719 13.2592 11.8771 13.5498 11.1504C13.7168 10.7328 13.9036 10.4281 14.085 10.2363C14.2652 10.0458 14.4057 10 14.5 10ZM16.1699 10.3203C17.6802 10.9245 18.7873 12.3234 18.9727 14H16.9902C16.9431 12.7664 16.7228 11.6404 16.3779 10.7783C16.314 10.6186 16.2446 10.4653 16.1699 10.3203ZM4.5 9C4.77614 9 5 9.22386 5 9.5V10.5C5 10.7761 4.77614 11 4.5 11C4.22386 11 4 10.7761 4 10.5V9.5C4 9.22386 4.22386 9 4.5 9ZM4.5 6C4.77614 6 5 6.22386 5 6.5V7.5C5 7.77614 4.77614 8 4.5 8C4.22386 8 4 7.77614 4 7.5V6.5C4 6.22386 4.22386 6 4.5 6ZM15.5 6C15.7761 6 16 6.22386 16 6.5V7.5C16 7.77614 15.7761 8 15.5 8C15.2239 8 15 7.77614 15 7.5V6.5C15 6.22386 15.2239 6 15.5 6Z" fill="#212121"/>
</svg>
