<?xml version="1.0" encoding="UTF-8"?>
<svg width="24px" height="24px" viewBox="0 0 24 24" version="1.1" xmlns="http://www.w3.org/2000/svg" xmlns:xlink="http://www.w3.org/1999/xlink">
    <!-- Generator: Sketch 64 (93537) - https://sketch.com -->
    <title>ic_fluent_book_formula_compatibility_24_regular</title>
    <desc>Created with Sketch.</desc>
    <g id="ðŸ”-System-Icons" stroke="none" stroke-width="1" fill="none" fill-rule="evenodd">
        <g id="ic_fluent_book_formula_compatibility_24_regular" fill="#212121" fill-rule="nonzero">
            <path d="M18,2 C19.3807,2 20.5,3.11929 20.5,4.5 L20.5,18.75 C20.5,19.1642 20.1642,19.5 19.75,19.5 L5.5,19.5 C5.5,20.0523 5.94772,20.5 6.5,20.5 L19.75,20.5 C20.1642,20.5 20.5,20.8358 20.5,21.25 C20.5,21.6642 20.1642,22 19.75,22 L6.5,22 C5.11929,22 4,20.8807 4,19.5 L4,4.5 C4,3.11929 5.11929,2 6.5,2 L18,2 Z M18,3.5 L6.5,3.5 C5.94772,3.5 5.5,3.94772 5.5,4.5 L5.5,18 L19,18 L19,4.5 C19,3.94772 18.5523,3.5 18,3.5 Z M12.25,13.5 C12.8023,13.5 13.25,13.9477 13.25,14.5 C13.25,15.0523 12.8023,15.5 12.25,15.5 C11.6977,15.5 11.25,15.0523 11.25,14.5 C11.25,13.9477 11.6977,13.5 12.25,13.5 Z M12.25,6 C12.6296833,6 12.9434889,6.28215688 12.9931531,6.64823019 L13,6.75 L13,11.75 C13,12.1642 12.6642,12.5 12.25,12.5 C11.8703167,12.5 11.5565111,12.2178347 11.5068469,11.8517677 L11.5,11.75 L11.5,6.75 C11.5,6.33579 11.8358,6 12.25,6 Z" id="ðŸŽ¨-Color"></path>
        </g>
    </g>
</svg>