<svg width="28" height="28" viewBox="0 0 28 28" fill="none" xmlns="http://www.w3.org/2000/svg">
<path d="M3.28033 2.21967C2.98744 1.92678 2.51257 1.92678 2.21967 2.21966C1.92678 2.51255 1.92677 2.98742 2.21967 3.28032L3.75117 4.81184C2.68984 5.58453 2 6.83669 2 8.24997V19.7499C2 22.0971 3.90279 23.9999 6.25 23.9999H21.75C22.1148 23.9999 22.4688 23.9539 22.8066 23.8675L24.7194 25.7803C25.0123 26.0732 25.4872 26.0732 25.7801 25.7803C26.073 25.4874 26.073 25.0126 25.7801 24.7197L3.28033 2.21967ZM21.439 22.4999H6.25C4.73122 22.4999 3.5 21.2687 3.5 19.7499V8.24997C3.5 7.24978 4.03396 6.37431 4.83238 5.89306L8.90367 9.96439C8.27154 10.2078 7.6766 10.631 7.23486 11.282C6.76315 11.9771 6.5 12.8817 6.5 14C6.5 15.1182 6.76315 16.0228 7.23486 16.7179C7.70778 17.4148 8.35627 17.8506 9.03801 18.0844C9.71269 18.3157 10.4214 18.3508 11.0513 18.2574C11.6727 18.1654 12.2765 17.9392 12.7185 17.5856C13.042 17.3268 13.0944 16.8548 12.8357 16.5314C12.5769 16.2079 12.1049 16.1555 11.7815 16.4143C11.5985 16.5606 11.2648 16.7094 10.8315 16.7736C10.4068 16.8366 9.94356 16.8091 9.52449 16.6655C9.11248 16.5242 8.74535 16.2725 8.47607 15.8757C8.2056 15.4771 8 14.8817 8 14C8 13.1182 8.2056 12.5228 8.47608 12.1242C8.74535 11.7274 9.11248 11.4757 9.52449 11.3344C9.72418 11.266 9.93389 11.2239 10.1447 11.2054L15.9929 17.0537C16.1021 17.1794 16.2177 17.2944 16.3385 17.3993L21.439 22.4999ZM7.18191 4L8.68188 5.49999H21.75C23.2688 5.49999 24.5 6.7312 24.5 8.24997V19.7499C24.5 20.2049 24.3895 20.6341 24.1939 21.0121L25.2877 22.106C25.7377 21.4316 26 20.6214 26 19.7499V8.24997C26 5.90277 24.0972 4 21.75 4H7.18191ZM21.2185 17.5855C21.1355 17.652 21.0467 17.714 20.9531 17.7714L19.8322 16.6504C20.0245 16.5816 20.1774 16.4975 20.2815 16.4143C20.6049 16.1555 21.0769 16.2079 21.3357 16.5314C21.5944 16.8548 21.542 17.3268 21.2185 17.5855ZM15.3056 12.1237L16.5405 13.3587C16.6133 12.817 16.7771 12.4174 16.9761 12.1242C17.2454 11.7274 17.6125 11.4757 18.0245 11.3344C18.4436 11.1907 18.9068 11.1633 19.3315 11.2262C19.7648 11.2904 20.0985 11.4392 20.2815 11.5856C20.6049 11.8444 21.0769 11.7919 21.3356 11.4685C21.5944 11.145 21.542 10.6731 21.2185 10.4143C20.7765 10.0607 20.1727 9.83449 19.5513 9.74244C18.9214 9.64911 18.2127 9.68419 17.538 9.91551C16.8563 10.1492 16.2078 10.585 15.7349 11.282C15.5633 11.5348 15.4193 11.8153 15.3056 12.1237Z" fill="#212121"/>
</svg>
