<svg width="20" height="20" viewBox="0 0 20 20" fill="none" xmlns="http://www.w3.org/2000/svg">
<path d="M9.64645 1.4038C9.84171 1.20854 10.1583 1.20854 10.3536 1.4038L12.4749 3.52512C12.6701 3.72038 12.6701 4.03697 12.4749 4.23223C12.2796 4.42749 11.963 4.42749 11.7678 4.23223L10.5 2.96446V7.49999C10.5 7.77613 10.2761 7.99999 10 7.99999C9.72386 7.99999 9.5 7.77613 9.5 7.49999V2.96446L8.23223 4.23223C8.03697 4.42749 7.72039 4.42749 7.52513 4.23223C7.32986 4.03697 7.32986 3.72038 7.52513 3.52512L9.64645 1.4038Z" fill="#212121"/>
<path d="M4 9.99999C4 9.72384 4.22386 9.49999 4.5 9.49999H15.5C15.7761 9.49999 16 9.72384 16 9.99999C16 10.2761 15.7761 10.5 15.5 10.5H4.5C4.22386 10.5 4 10.2761 4 9.99999Z" fill="#212121"/>
<path d="M10.5 17.0355L10.5 12.5C10.5 12.2238 10.2761 12 10 12C9.72386 12 9.5 12.2238 9.5 12.5L9.5 17.0355L8.23223 15.7677C8.03697 15.5725 7.72039 15.5725 7.52513 15.7677C7.32986 15.963 7.32986 16.2796 7.52513 16.4748L9.64645 18.5962C9.84171 18.7914 10.1583 18.7914 10.3536 18.5962L12.4749 16.4748C12.6701 16.2796 12.6701 15.963 12.4749 15.7677C12.2796 15.5725 11.963 15.5725 11.7678 15.7677L10.5 17.0355Z" fill="#212121"/>
</svg>
