<svg width="20" height="20" viewBox="0 0 20 20" fill="none" xmlns="http://www.w3.org/2000/svg">
<path d="M6.53544 2.1168C5.49406 1.85299 4.40494 1.96522 3.55101 2.443C2.68184 2.9293 2.07166 3.79051 2.04156 4.94442C1.99456 6.74577 2.41207 9.1633 4.06815 12.0023C5.70298 14.8048 7.50831 16.4846 9.0056 17.4834C9.95159 18.1144 10.9973 18.1311 11.8903 17.7196C12.7694 17.3145 13.4838 16.506 13.8548 15.503C14.0415 14.9981 13.9975 14.4368 13.7345 13.9672L12.9308 12.532C12.2478 11.3123 10.6974 10.8897 9.4899 11.594L9.05289 11.8489C8.7045 12.0522 8.34925 12.0035 8.15518 11.8005C7.50308 11.1185 6.90993 10.1217 6.64244 9.22429C6.56745 8.97267 6.68733 8.65613 7.01425 8.44857L7.80407 7.94711C8.9327 7.23055 9.29786 5.75287 8.6329 4.59308L7.73513 3.02722C7.47512 2.57372 7.04218 2.24518 6.53544 2.1168Z" fill="#212121"/>
<path d="M17.8535 2.14677C18.0488 2.34203 18.0488 2.65861 17.8535 2.85388L12.7071 8.00032H16.5C16.7761 8.00032 17 8.22418 17 8.50032C17 8.77647 16.7761 9.00032 16.5 9.00032H11.5C11.2238 9.00032 11 8.77647 11 8.50032V3.50032C11 3.22418 11.2238 3.00032 11.5 3.00032C11.7761 3.00032 12 3.22418 12 3.50032V7.29322L17.1464 2.14677C17.3417 1.95151 17.6582 1.95151 17.8535 2.14677Z" fill="#212121"/>
</svg>
