<svg width="20" height="20" viewBox="0 0 20 20" fill="none" xmlns="http://www.w3.org/2000/svg">
<path d="M13.2452 2.81706L3.63939 12.4229L3.52212 12.5508C3.33646 12.7718 3.20039 13.031 3.12407 13.3109L2.01817 17.3658L2.00301 17.4452C1.96546 17.7857 2.28552 18.0743 2.63211 17.9798L6.68708 16.8739L6.85236 16.821C7.12323 16.7212 7.36997 16.5636 7.57506 16.3586L17.1809 6.75273L17.3111 6.61346C18.2658 5.52026 18.2224 3.85858 17.1809 2.81706C16.0941 1.73025 14.332 1.73025 13.2452 2.81706ZM4.34649 13.13L12.385 5.09195L14.906 7.61295L6.86796 15.6515L6.77028 15.7372L6.66278 15.8093C6.58815 15.8526 6.50791 15.8862 6.42397 15.9091L3.2122 16.7847L4.08884 13.574L4.13111 13.4511C4.18117 13.3314 4.2542 13.2223 4.34649 13.13ZM16.4738 3.52417L16.5834 3.64407C17.1679 4.34455 17.1314 5.38803 16.4738 6.04563L15.613 6.90595L13.092 4.38495L13.9523 3.52417L14.0722 3.41457C14.7727 2.83003 15.8162 2.86656 16.4738 3.52417ZM11.6483 2.99966H2.50024C2.2241 2.99966 2.00024 3.22352 2.00024 3.49966C2.00024 3.77581 2.2241 3.99966 2.50024 3.99966H10.6483L11.6483 2.99966ZM8.64835 5.99966H2.50024C2.2241 5.99966 2.00024 6.22352 2.00024 6.49966C2.00024 6.77581 2.2241 6.99966 2.50024 6.99966H7.64835L8.64835 5.99966ZM4.64835 9.99966L5.64835 8.99966H2.50024C2.2241 8.99966 2.00024 9.22352 2.00024 9.49966C2.00024 9.77581 2.2241 9.99966 2.50024 9.99966H4.64835Z" fill="#212121"/>
</svg>
