<svg width="28" height="28" viewBox="0 0 28 28" fill="none" xmlns="http://www.w3.org/2000/svg">
<path d="M2.00391 9.82647C2.00131 9.80118 2 9.77566 2 9.75V6.75C2 4.67893 3.67893 3 5.75 3H9.42157C10.1509 3 10.8504 3.28973 11.3661 3.80546L13.5607 6H22.2505C24.3216 6 26.0005 7.67893 26.0005 9.75V15.5863L24.5005 14.0863V9.75C24.5005 8.50736 23.4932 7.5 22.2505 7.5H13.5607L11.3661 9.69454C10.8504 10.2103 10.1509 10.5 9.42157 10.5H3.50391V20.2501C3.50391 21.4927 4.51127 22.5001 5.75391 22.5001H15V24.0001H5.75391C3.68284 24.0001 2.00391 22.3211 2.00391 20.2501V9.82647ZM3.50097 6.68321C3.50291 6.70521 3.50391 6.72749 3.50391 6.75V9H9.42157C9.75309 9 10.071 8.8683 10.3055 8.63388L12.1893 6.75L10.3055 4.86612C10.071 4.6317 9.75309 4.5 9.42157 4.5H5.75C4.5297 4.5 3.5363 5.47146 3.50097 6.68321ZM22 17V14H17.75C16.7835 14 16 14.7835 16 15.75V25.25C16 26.2165 16.7835 27 17.75 27H25.25C26.2165 27 27 26.2165 27 25.25V19H24C22.8954 19 22 18.1046 22 17ZM23 17V14L27 18H24C23.4477 18 23 17.5523 23 17Z" fill="#212121"/>
</svg>
