<svg width="24" height="24" viewBox="0 0 24 24" fill="none" xmlns="http://www.w3.org/2000/svg">
<path d="M2.21963 2.21973C2.51253 1.92684 2.98729 1.92684 3.28018 2.21973L21.7802 20.7197C22.0729 21.0126 22.0729 21.4874 21.7802 21.7803C21.4874 22.073 21.0126 22.073 20.7197 21.7803L13.9794 15.04L13.4863 15.4941C13.1767 15.7782 13 16.1795 12.9999 16.5996V18.2695C13.597 18.6155 13.9999 19.2603 13.9999 20C13.9993 21.104 13.1041 22 11.9999 22C10.8957 22 10.0005 21.1041 9.99993 20C9.99993 19.2737 10.3886 18.6394 10.9677 18.2891C10.9036 17.9859 10.7456 17.7071 10.5136 17.4941L6.13468 13.4805C5.41179 12.8178 5.00026 11.881 4.99991 10.9004V10.7295C4.40305 10.3837 4.0003 9.73934 3.99991 9C3.99991 7.91503 4.86384 7.03295 5.94132 7.00196L2.21963 3.28028C1.92677 2.98741 1.92681 2.51263 2.21963 2.21973ZM7.99699 9.05762C7.9763 9.77268 7.58121 10.3927 6.99992 10.7295V10.9004C7.00026 11.3204 7.17667 11.722 7.48625 12.0059L10.9999 15.2256V12.0605L7.99699 9.05762ZM19.25 5C19.6641 5.00003 20 5.33581 20 5.75V8.25C19.9994 8.6637 19.6638 8.99997 19.25 9H18.997C18.9698 9.94415 18.5635 10.8403 17.8652 11.4805L16.1933 13.0117L14.7773 11.5957L16.5136 10.0059C16.7986 9.74459 16.9692 9.38319 16.9951 9H16.7499C16.3361 9 16.0005 8.66372 15.9999 8.25V5.75C15.9999 5.33579 16.3357 5 16.7499 5H19.25ZM11.3574 1.36524C11.6487 0.879841 12.3522 0.879841 12.6435 1.36524L14.1425 3.86231C14.4411 4.36177 14.082 4.99743 13.4999 4.99805H12.9999V9.81836L10.9999 7.81836V4.99805H10.5019C9.9192 4.99805 9.55922 4.36207 9.85832 3.86231L11.3574 1.36524Z" fill="#212121"/>
</svg>
