<svg width="12" height="12" viewBox="0 0 12 12" fill="none" xmlns="http://www.w3.org/2000/svg">
<path d="M12 3.5C12 5.433 10.433 7 8.5 7C6.567 7 5 5.433 5 3.5C5 1.567 6.567 0 8.5 0C10.433 0 12 1.567 12 3.5ZM6.5 3C6.22386 3 6 3.22386 6 3.5C6 3.77614 6.22386 4 6.5 4L9.29289 4L8.64645 4.64645C8.45118 4.84171 8.45118 5.15829 8.64645 5.35355C8.84171 5.54882 9.15829 5.54882 9.35355 5.35355L10.8536 3.85355C10.9015 3.80562 10.9377 3.75036 10.9621 3.69139C10.9861 3.63331 10.9996 3.5697 11 3.503L11 3.5L11 3.497C10.9996 3.4303 10.9861 3.36669 10.9621 3.30861C10.9377 3.24964 10.9015 3.19438 10.8536 3.14645L9.35355 1.64645C9.15829 1.45118 8.84171 1.45118 8.64645 1.64645C8.45118 1.84171 8.45118 2.15829 8.64645 2.35355L9.29289 3L6.5 3ZM3 2H4.25606C4.3819 1.64397 4.55127 1.30851 4.75777 1H3C1.89543 1 1 1.89543 1 3V7C1 8.10457 1.89543 9 3 9L3 10.5C3 10.6844 3.10149 10.8538 3.26407 10.9408C3.42665 11.0278 3.62392 11.0183 3.77735 10.916L6.65139 9H9C10.019 9 10.8599 8.23801 10.9842 7.25277C10.5187 7.56149 9.99254 7.78594 9.42736 7.90434C9.29778 7.96569 9.15289 8 9 8H6.5C6.40129 8 6.30478 8.02922 6.22265 8.08397L4 9.56574V8.5C4 8.22386 3.77614 8 3.5 8H3C2.44772 8 2 7.55228 2 7V3C2 2.44772 2.44772 2 3 2Z" fill="#212121"/>
</svg>
