<svg width="20" height="20" viewBox="0 0 20 20" fill="none" xmlns="http://www.w3.org/2000/svg">
<path d="M13.25 3.5C10.0744 3.5 7.5 6.07436 7.5 9.25V10.25C7.5 11.4926 6.49264 12.5 5.25 12.5H2.75C2.33579 12.5 2 12.1642 2 11.75C2 11.3358 2.33579 11 2.75 11H5.25C5.66421 11 6 10.6642 6 10.25V9.25C6 5.24594 9.24594 2 13.25 2H13.75C14.1642 2 14.5 2.33579 14.5 2.75C14.5 3.16421 14.1642 3.5 13.75 3.5H13.25ZM10.5 9.5C10.5 7.70507 11.9551 6.25 13.75 6.25H17.25C17.6642 6.25 18 5.91421 18 5.5C18 5.08579 17.6642 4.75 17.25 4.75H13.75C11.1266 4.75 9 6.87665 9 9.5V10.5C9 12.2949 7.54493 13.75 5.75 13.75H2.75C2.33579 13.75 2 14.0858 2 14.5C2 14.9142 2.33579 15.25 2.75 15.25H5.75C8.37335 15.25 10.5 13.1234 10.5 10.5V9.5ZM14.25 9C13.8358 9 13.5 9.33579 13.5 9.75V10.75C13.5 11.409 13.4121 12.0474 13.2474 12.6542C13.0069 12.5514 12.7535 12.5 12.5 12.5C12.2147 12.5 11.9293 12.5651 11.6626 12.6954C11.881 12.0878 12 11.4328 12 10.75V9.75C12 8.50736 13.0074 7.5 14.25 7.5H17.25C17.6642 7.5 18 7.83579 18 8.25C18 8.66421 17.6642 9 17.25 9H14.25ZM12.8536 18.1621C13.0488 18.3573 13.0488 18.6739 12.8536 18.8692C12.6583 19.0644 12.3417 19.0644 12.1464 18.8692L10.1464 16.8692C9.95118 16.6739 9.95118 16.3573 10.1464 16.1621L12.1464 14.1621C12.3417 13.9668 12.6583 13.9668 12.8536 14.1621C13.0488 14.3573 13.0488 14.6739 12.8536 14.8692L11.7071 16.0156H17.2929L16.1464 14.8692C15.9512 14.6739 15.9512 14.3573 16.1464 14.1621C16.3417 13.9668 16.6583 13.9668 16.8536 14.1621L18.8536 16.1621C19.0488 16.3573 19.0488 16.6739 18.8536 16.8692L16.8536 18.8692C16.6583 19.0644 16.3417 19.0644 16.1464 18.8692C15.9512 18.6739 15.9512 18.3573 16.1464 18.1621L17.2929 17.0156H11.7071L12.8536 18.1621Z" fill="#212121"/>
</svg>
