<svg width="24" height="24" viewBox="0 0 24 24" fill="none" xmlns="http://www.w3.org/2000/svg">
<path d="M10 18.0035C10.8284 18.0035 11.5 18.6751 11.5 19.5035C11.5 20.3319 10.8284 21.0035 10 21.0035C9.17157 21.0035 8.5 20.3319 8.5 19.5035C8.5 18.6751 9.17157 18.0035 10 18.0035ZM16 18.0035C16.8284 18.0035 17.5 18.6751 17.5 19.5035C17.5 20.3319 16.8284 21.0035 16 21.0035C15.1716 21.0035 14.5 20.3319 14.5 19.5035C14.5 18.6751 15.1716 18.0035 16 18.0035ZM2.75 3H3.11232C4.12075 3 4.99847 3.66948 5.27403 4.62572L5.31431 4.78768L5.358 4.999L21.2488 4.99956C21.7193 4.99956 22.0736 5.42765 21.9856 5.88979L20.3736 14.3596C20.0818 15.8926 18.7416 17.0019 17.181 17.0019L8.81896 17.0022C7.25842 17.0022 5.91814 15.8932 5.62621 14.3602L4.01324 5.88986L3.84631 5.09589C3.7807 4.78337 3.52606 4.55072 3.21712 4.50731L3.11232 4.5H2.75C2.33579 4.5 2 4.16421 2 3.75C2 3.3703 2.28215 3.05651 2.64823 3.00685L2.75 3H3.11232H2.75Z" fill="#212121"/>
</svg>
