<svg width="20" height="20" viewBox="0 0 20 20" fill="none" xmlns="http://www.w3.org/2000/svg">
<path d="M14 3C14.2761 3 14.5 3.22386 14.5 3.5C14.5 3.77614 14.2761 4 14 4H13.0044V8.68387C13.0044 8.8556 13.0171 9.02653 13.042 9.19533C12.711 9.2861 12.3925 9.40702 12.0896 9.55496C12.0331 9.26909 12.0044 8.97738 12.0044 8.68387V4H7.99444V8.68653C7.99444 9.43161 7.80943 10.165 7.45603 10.821L6.82078 12H9.59971C9.43777 12.3168 9.30564 12.6514 9.20703 13H6.282L5.06196 15.2644C4.88225 15.598 5.12365 16.0016 5.50156 16.0016H9.20749C9.30621 16.3503 9.43846 16.6848 9.60053 17.0016H5.50156C4.3659 17.0016 3.6434 15.7891 4.18161 14.7901L6.57568 10.3466C6.85055 9.83647 6.99444 9.26603 6.99444 8.68653V4H6C5.72386 4 5.5 3.77614 5.5 3.5C5.5 3.22386 5.72386 3 6 3H14ZM12.0654 11.442C12.3686 12.5231 11.7226 13.642 10.6347 13.9199L10.1737 14.0377C10.1587 14.1896 10.151 14.3438 10.151 14.4999C10.151 14.6875 10.1621 14.8725 10.1837 15.0541L10.5332 15.1368C11.6527 15.4014 12.3186 16.5536 11.9893 17.6557L11.863 18.0785C12.1201 18.2817 12.3999 18.4559 12.6976 18.5964L13.0226 18.2523C13.8124 17.416 15.1432 17.4167 15.9321 18.2538L16.2695 18.6118C16.5619 18.4769 16.8373 18.3095 17.0913 18.1142L16.9352 17.5575C16.6319 16.4764 17.2779 15.3575 18.3658 15.0795L18.8264 14.9619C18.8414 14.81 18.849 14.6559 18.849 14.4999C18.849 14.3121 18.8379 14.127 18.8163 13.9452L18.4673 13.8627C17.3479 13.598 16.6819 12.4459 17.0112 11.3438L17.1374 10.9215C16.8802 10.7182 16.6004 10.5439 16.3026 10.4034L15.9779 10.7472C15.1881 11.5835 13.8574 11.5828 13.0684 10.7457L12.7311 10.3877C12.4386 10.5226 12.1633 10.6899 11.9092 10.8852L12.0654 11.442ZM14.5 15.4999C13.9477 15.4999 13.5 15.0521 13.5 14.4999C13.5 13.9476 13.9477 13.4999 14.5 13.4999C15.0523 13.4999 15.5 13.9476 15.5 14.4999C15.5 15.0521 15.0523 15.4999 14.5 15.4999Z" fill="#212121"/>
</svg>
