<svg width="16" height="16" viewBox="0 0 16 16" fill="none" xmlns="http://www.w3.org/2000/svg">
<path d="M13.968 14.324L12.468 10.324C12.4322 10.2288 12.3682 10.1468 12.2846 10.0889C12.201 10.031 12.1017 10 12 10H11V2.5C11 2.10218 10.842 1.72064 10.5607 1.43934C10.2794 1.15804 9.89782 1 9.5 1H5.5C5.10218 1 4.72064 1.15804 4.43934 1.43934C4.15804 1.72064 4 2.10218 4 2.5V10H3C2.8983 10 2.79901 10.031 2.7154 10.0889C2.63178 10.1468 2.5678 10.2288 2.532 10.324L1.032 14.324C1.00355 14.3997 0.993862 14.4811 1.00377 14.5613C1.01368 14.6415 1.04289 14.7181 1.0889 14.7846C1.13491 14.8511 1.19635 14.9054 1.26795 14.9429C1.33954 14.9804 1.41917 15 1.5 15H13.5C13.5808 15 13.6605 14.9804 13.7321 14.9429C13.8037 14.9054 13.8651 14.8511 13.9111 14.7846C13.9571 14.7181 13.9863 14.6415 13.9962 14.5613C14.0061 14.4811 13.9965 14.3997 13.968 14.324ZM5 2.5C5 2.36739 5.05268 2.24021 5.14645 2.14645C5.24021 2.05268 5.36739 2 5.5 2H9.5C9.63261 2 9.75979 2.05268 9.85355 2.14645C9.94732 2.24021 10 2.36739 10 2.5V11.5C10 11.6326 9.94732 11.7598 9.85355 11.8536C9.75979 11.9473 9.63261 12 9.5 12H5.5C5.36739 12 5.24021 11.9473 5.14645 11.8536C5.05268 11.7598 5 11.6326 5 11.5V2.5ZM2.222 14L3.347 11H4V11.5C4 11.8978 4.15804 12.2794 4.43934 12.5607C4.72064 12.842 5.10218 13 5.5 13H9.5C9.89782 13 10.2794 12.842 10.5607 12.5607C10.842 12.2794 11 11.8978 11 11.5V11H11.653L12.778 14H2.222ZM6 4.5C6 4.36739 6.05268 4.24021 6.14645 4.14645C6.24021 4.05268 6.36739 4 6.5 4H8.5C8.63261 4 8.75979 4.05268 8.85355 4.14645C8.94732 4.24021 9 4.36739 9 4.5C9 4.63261 8.94732 4.75979 8.85355 4.85355C8.75979 4.94732 8.63261 5 8.5 5H6.5C6.36739 5 6.24021 4.94732 6.14645 4.85355C6.05268 4.75979 6 4.63261 6 4.5ZM6 8.5C6 8.36739 6.05268 8.24021 6.14645 8.14645C6.24021 8.05268 6.36739 8 6.5 8H8.5C8.63261 8 8.75979 8.05268 8.85355 8.14645C8.94732 8.24021 9 8.36739 9 8.5C9 8.63261 8.94732 8.75979 8.85355 8.85355C8.75979 8.94732 8.63261 9 8.5 9H6.5C6.36739 9 6.24021 8.94732 6.14645 8.85355C6.05268 8.75979 6 8.63261 6 8.5ZM6 10.5C6 10.3674 6.05268 10.2402 6.14645 10.1464C6.24021 10.0527 6.36739 10 6.5 10H8.5C8.63261 10 8.75979 10.0527 8.85355 10.1464C8.94732 10.2402 9 10.3674 9 10.5C9 10.6326 8.94732 10.7598 8.85355 10.8536C8.75979 10.9473 8.63261 11 8.5 11H6.5C6.36739 11 6.24021 10.9473 6.14645 10.8536C6.05268 10.7598 6 10.6326 6 10.5Z" fill="#212121"/>
</svg>
