<svg width="20" height="20" viewBox="0 0 20 20" fill="none" xmlns="http://www.w3.org/2000/svg">
<path d="M9.49552 3L9.24996 3.00001C8.55962 3.00004 8 3.55967 8 4.25001V5.75008C8 6.44043 8.55965 7.00008 9.25 7.00008C9.94036 7.00008 10.5 6.44043 10.5 5.75008H9.5C9.22386 5.75008 9 5.52622 9 5.25008C9 4.97393 9.22386 4.75008 9.5 4.75008H11C11.2761 4.75008 11.5 4.97393 11.5 5.25008V5.75008C11.5 6.99272 10.4926 8.00008 9.25 8.00008C8.00736 8.00008 7 6.99272 7 5.75008V4.25001C7 3.0074 8.00731 2.00006 9.24992 2.00001L9.49987 2C9.52827 2 10.6166 1.99983 11.1473 3.01918C11.2749 3.26412 11.1797 3.56605 10.9347 3.69357C10.6898 3.82109 10.3879 3.7259 10.2603 3.48097C10.1368 3.24364 9.95057 3.12557 9.782 3.06272C9.63037 3.0062 9.50615 3.00049 9.49552 3ZM4.75 13.0001C5.12656 13.0001 5.4383 13.2776 5.49187 13.6393L5.5 13.7501V16.2501C5.5 16.6643 5.16422 17.0001 4.75 17.0001C4.37345 17.0001 4.0617 16.7226 4.00814 16.3609L4 16.2501V13.7501C4 13.3359 4.33579 13.0001 4.75 13.0001ZM7.75 11.0001C8.12656 11.0001 8.4383 11.2776 8.49187 11.6393L8.5 11.7501V16.2501C8.5 16.6643 8.16422 17.0001 7.75 17.0001C7.37345 17.0001 7.0617 16.7226 7.00814 16.3609L7 16.2501V11.7501C7 11.3359 7.33579 11.0001 7.75 11.0001ZM10.75 9.0001C11.1266 9.0001 11.4383 9.27761 11.4919 9.63927L11.5 9.7501V16.2501C11.5 16.6643 11.1642 17.0001 10.75 17.0001C10.3734 17.0001 10.0617 16.7226 10.0081 16.3609L10 16.2501V9.7501C10 9.33588 10.3358 9.0001 10.75 9.0001ZM13.75 7.0001C14.1266 7.0001 14.4383 7.27761 14.4919 7.63927L14.5 7.7501V16.2488C14.5 16.663 14.1642 16.9988 13.75 16.9988C13.3734 16.9988 13.0617 16.7213 13.0081 16.3596L13 16.2488V7.7501C13 7.33588 13.3358 7.0001 13.75 7.0001ZM16.75 5.00003C17.1229 4.99661 17.4344 5.26825 17.4909 5.62563L17.5 5.73523L17.4856 16.2506C17.4896 16.6605 17.1602 16.996 16.75 17.0001C16.3771 17.0036 16.0657 16.7319 16.0091 16.3746L16 16.265L16.0144 5.74963C16.0104 5.33973 16.3398 5.00421 16.75 5.00003ZM2.75 2C2.49784 2 2.28514 2.18777 2.25386 2.43798L2.00386 4.43798C1.98518 4.5875 2.03491 4.73747 2.13924 4.84619C2.24357 4.95491 2.39136 5.01079 2.54152 4.99827L2.71624 4.98371L4.08734 4.86947C4.57877 4.82852 5.00024 5.21633 5.00024 5.70946V5.92679C5.00024 6.51951 4.51975 7 3.92703 7C3.5631 7 3.3313 6.84301 3.1793 6.68016C3.10072 6.59597 3.0448 6.51073 3.00911 6.44724C2.99151 6.41593 2.97955 6.3912 2.97277 6.37634C2.9694 6.36894 2.96662 6.36231 2.96662 6.36231C2.86772 6.10681 2.58107 5.97799 2.32411 6.07473C2.06567 6.17203 1.93505 6.46041 2.03234 6.71884L2.0327 6.71978L2.03309 6.72081L2.03398 6.72314L2.03622 6.72889L2.04255 6.74453C2.0476 6.75674 2.05436 6.77249 2.06292 6.79127C2.08002 6.82876 2.10455 6.87882 2.1374 6.93726C2.20262 7.05328 2.30345 7.20736 2.44827 7.36251C2.74306 7.67833 3.22463 8 3.92703 8C5.07203 8 6.00024 7.07179 6.00024 5.92679V5.70946C6.00024 4.63129 5.07875 3.78339 4.0043 3.87292L3.07258 3.95056L3.19139 3H5.50024C5.77638 3 6.00024 2.77614 6.00024 2.5C6.00024 2.22386 5.77638 2 5.50024 2H2.75Z" fill="#212121"/>
</svg>
