<?xml version="1.0" encoding="UTF-8"?>
<svg width="24px" height="24px" viewBox="0 0 24 24" version="1.1" xmlns="http://www.w3.org/2000/svg" xmlns:xlink="http://www.w3.org/1999/xlink">
    <!-- Generator: Sketch 59.1 (86144) - https://sketch.com -->
    <title>ic_device_eq_24_filled</title>
    <desc>Created with Sketch.</desc>
    <g id="ðŸ”-Product-Icons" stroke="none" stroke-width="1" fill="none" fill-rule="evenodd">
        <g id="ic_device_eq_24_filled" fill="#212121">
            <path d="M12,3 C12.5522847,3 13,3.44771525 13,4 L13,4 L13,20 C13,20.5522847 12.5522847,21 12,21 C11.4477153,21 11,20.5522847 11,20 L11,20 L11,4 C11,3.44771525 11.4477153,3 12,3 Z M8,6 C8.55228475,6 9,6.44771525 9,7 L9,7 L9,17 C9,17.5522847 8.55228475,18 8,18 C7.44771525,18 7,17.5522847 7,17 L7,17 L7,7 C7,6.44771525 7.44771525,6 8,6 Z M16,6 C16.5522847,6 17,6.44771525 17,7 L17,7 L17,17 C17,17.5522847 16.5522847,18 16,18 C15.4477153,18 15,17.5522847 15,17 L15,17 L15,7 C15,6.44771525 15.4477153,6 16,6 Z M4,9 C4.55228475,9 5,9.44771525 5,10 L5,10 L5,14 C5,14.5522847 4.55228475,15 4,15 C3.44771525,15 3,14.5522847 3,14 L3,14 L3,10 C3,9.44771525 3.44771525,9 4,9 Z M20,9 C20.5522847,9 21,9.44771525 21,10 L21,10 L21,14 C21,14.5522847 20.5522847,15 20,15 C19.4477153,15 19,14.5522847 19,14 L19,14 L19,10 C19,9.44771525 19.4477153,9 20,9 Z" id="ðŸŽ¨Color"></path>
        </g>
    </g>
</svg>