<svg width="20" height="20" viewBox="0 0 20 20" fill="none" xmlns="http://www.w3.org/2000/svg">
<path d="M10 2V6.5C10 7.32843 10.6716 8 11.5 8H16V16.5C16 17.3284 15.3284 18 14.5 18H9.74284C10.5282 17.0491 11 15.8296 11 14.5C11 11.4624 8.53757 9 5.5 9C4.97999 9 4.47683 9.07217 4 9.20703V3.5C4 2.67157 4.67157 2 5.5 2H10ZM11 2.25V6.5C11 6.77614 11.2239 7 11.5 7H15.75L11 2.25ZM10 14.5C10 16.9853 7.98528 19 5.5 19C3.01472 19 1 16.9853 1 14.5C1 12.0147 3.01472 10 5.5 10C7.98528 10 10 12.0147 10 14.5ZM4.35355 13.3536C4.54882 13.1583 4.54882 12.8417 4.35355 12.6464C4.15829 12.4512 3.84171 12.4512 3.64645 12.6464L2.14645 14.1464C1.95118 14.3417 1.95118 14.6583 2.14645 14.8536L3.64645 16.3536C3.84171 16.5488 4.15829 16.5488 4.35355 16.3536C4.54882 16.1583 4.54882 15.8417 4.35355 15.6464L3.20711 14.5L4.35355 13.3536ZM6.64645 12.6464C6.45118 12.8417 6.45118 13.1583 6.64645 13.3536L7.79289 14.5L6.64645 15.6464C6.45118 15.8417 6.45118 16.1583 6.64645 16.3536C6.84171 16.5488 7.15829 16.5488 7.35355 16.3536L8.85355 14.8536C9.04882 14.6583 9.04882 14.3417 8.85355 14.1464L7.35355 12.6464C7.15829 12.4512 6.84171 12.4512 6.64645 12.6464Z" fill="#212121"/>
</svg>
