<svg width="28" height="28" viewBox="0 0 28 28" fill="none" xmlns="http://www.w3.org/2000/svg">
<path d="M16 2C17.2095 2 18.2186 2.85888 18.4502 4H20.25C21.7688 4 23 5.23122 23 6.75V10.5176C22.5298 10.2025 22.0274 9.93218 21.5 9.70898V6.75C21.5 6.05964 20.9404 5.5 20.25 5.5H18.292C17.9062 6.38295 17.0252 7 16 7H12C10.9748 7 10.0938 6.38295 9.70801 5.5H7.75C7.05964 5.5 6.5 6.05964 6.5 6.75V23.25C6.5 23.9404 7.05964 24.5 7.75 24.5H9.14746L9.07324 24.7471C8.9467 25.1692 8.98618 25.615 9.16895 26H7.75C6.23122 26 5 24.7688 5 23.25V6.75C5 5.23122 6.23122 4 7.75 4H9.5498C9.78144 2.85888 10.7905 2 12 2H16ZM12 3.5C11.4477 3.5 11 3.94772 11 4.5C11 5.05228 11.4477 5.5 12 5.5H16C16.5523 5.5 17 5.05228 17 4.5C17 3.94772 16.5523 3.5 16 3.5H12ZM18 10C22.4183 10 26 13.5817 26 18C26 22.4183 22.4183 26 18 26C16.6046 26 15.2917 25.6409 14.1484 25.0117L10.9658 25.9688C10.7015 26.0481 10.4149 25.9754 10.2197 25.7803C10.0246 25.5852 9.95198 25.2985 10.0312 25.0342L10.9863 21.8496C10.3579 20.7068 10 19.3943 10 18C10 13.5817 13.5817 10 18 10ZM18 11.5C14.4101 11.5 11.5 14.4101 11.5 18C11.5 19.2342 11.8437 20.3857 12.4395 21.3672C12.5496 21.5487 12.5776 21.7693 12.5166 21.9727L11.8691 24.1299L14.0264 23.4824C14.2299 23.4213 14.4502 23.4503 14.6318 23.5605C15.6136 24.1567 16.7656 24.5 18 24.5C21.5899 24.5 24.5 21.5899 24.5 18C24.5 14.4101 21.5899 11.5 18 11.5Z" fill="#212121"/>
</svg>
