<svg width="48" height="48" viewBox="0 0 48 48" fill="none" xmlns="http://www.w3.org/2000/svg">
<path d="M27.75 4C29.6622 4 31.2797 5.26283 31.8135 7H35.75C38.0972 7 40 8.90279 40 11.25V19.0068C37.4179 17.0654 34.2287 16 31 16C22.7159 16.0002 16 22.7159 16 31V31.0342L16.0078 31.4941L16.0088 31.5117V31.5293C16.0822 33.6352 16.5932 35.6342 17.4502 37.4355L16.1367 41.8164C15.9175 42.5479 15.9677 43.3182 16.252 44H12.25C9.90279 44 8 42.0972 8 39.75V11.25C8 8.90279 9.90279 7 12.25 7H16.1865C16.7203 5.26283 18.3378 4 20.25 4H27.75ZM20.25 6.5C19.2835 6.5 18.5 7.2835 18.5 8.25C18.5 9.2165 19.2835 10 20.25 10H27.75C28.7165 10 29.5 9.2165 29.5 8.25C29.5 7.2835 28.7165 6.5 27.75 6.5H20.25ZM44 31C44 38.1797 38.1797 44 31 44C28.7387 44 26.6107 43.4195 24.7568 42.4023L19.6094 43.9473C19.1689 44.0794 18.6914 43.9589 18.3662 43.6338C18.0411 43.3087 17.9207 42.8311 18.0527 42.3906L19.5957 37.2422C18.6483 35.5148 18.0806 33.5492 18.0078 31.46L18 31C18 23.8203 23.8203 18 31 18C38.1797 18 44 23.8524 44 31Z" fill="#212121"/>
</svg>
