<svg width="48" height="48" viewBox="0 0 48 48" fill="none" xmlns="http://www.w3.org/2000/svg">
<path d="M16.7086 18.4764L4.61612 6.38388C4.12796 5.89573 4.12796 5.10427 4.61612 4.61612C5.10427 4.12796 5.89573 4.12796 6.38388 4.61612L43.3839 41.6161C43.872 42.1043 43.872 42.8957 43.3839 43.3839C42.8957 43.872 42.1043 43.872 41.6161 43.3839L29.5237 31.2914L27.3644 37.5418C26.7012 39.4617 24.2569 40.0247 22.8206 38.5884L17 32.7678L7.76777 42H6V40.2323L15.2322 31L9.41164 25.1794C7.97533 23.7431 8.53833 21.2989 10.4583 20.6356L16.7086 18.4764ZM27.5578 29.3256L18.6745 20.4422L11.2746 22.9986C11.1 23.0589 11.0488 23.2811 11.1794 23.4117L24.5884 36.8206C24.719 36.9512 24.9412 36.9 25.0015 36.7255L27.5578 29.3256ZM40.0976 21.5537L31.2705 25.9672L33.1339 27.8306L41.2156 23.7897C44.1155 22.3398 44.7427 18.475 42.4501 16.1824L31.8175 5.54986C29.525 3.25731 25.6602 3.88449 24.2103 6.78436L20.1694 14.8661L22.0328 16.7295L26.4463 7.90239C27.1331 6.52877 28.9638 6.23168 30.0498 7.31763L40.6824 17.9502C41.7683 19.0362 41.4712 20.8668 40.0976 21.5537Z" fill="#212121"/>
</svg>
