<svg width="20" height="20" viewBox="0 0 20 20" fill="none" xmlns="http://www.w3.org/2000/svg">
<path d="M6 3C4.34315 3 3 4.34315 3 6V8H16V14C16 15.1046 15.1046 16 14 16H6V16.0854C6.42621 16.236 6.764 16.5738 6.91465 17H14C15.6569 17 17 15.6569 17 14V6C17 4.34315 15.6569 3 14 3H6ZM16 6V7H4V6C4 4.89543 4.89543 4 6 4H14C15.1046 4 16 4.89543 16 6ZM7.5 5.5C7.5 5.91421 7.16421 6.25 6.75 6.25C6.33579 6.25 6 5.91421 6 5.5C6 5.08579 6.33579 4.75 6.75 4.75C7.16421 4.75 7.5 5.08579 7.5 5.5ZM10 5.5C10 5.22386 10.2239 5 10.5 5H13.5C13.7761 5 14 5.22386 14 5.5C14 5.77614 13.7761 6 13.5 6H10.5C10.2239 6 10 5.77614 10 5.5ZM2.5 9C2.22386 9 2 9.22386 2 9.5V11.5C2 12.7095 2.85888 13.7184 4 13.95V17H3.5C3.22386 17 3 17.2239 3 17.5C3 17.7761 3.22386 18 3.5 18H5.5C5.77614 18 6 17.7761 6 17.5C6 17.2239 5.77614 17 5.5 17H5V13.95C6.14112 13.7184 7 12.7095 7 11.5V9.5C7 9.22386 6.77614 9 6.5 9H2.5Z" fill="#212121"/>
</svg>
