<svg width="20" height="20" viewBox="0 0 20 20" fill="none" xmlns="http://www.w3.org/2000/svg">
<path d="M10.0003 5.48714C10.0003 4.66804 9.06946 4.19635 8.40894 4.68074L2.52935 8.99243C1.84829 9.49188 1.84829 10.509 2.52935 11.0084L8.40894 15.3201C9.06946 15.8045 10.0003 15.3328 10.0003 14.5137V11.3538L15.4089 15.3201C16.0695 15.8045 17.0003 15.3328 17.0003 14.5137V5.48714C17.0003 4.66804 16.0695 4.19635 15.4089 4.68074L10.0003 8.64707V5.48714ZM3.12071 9.79884L9.0003 5.48714L9.0003 14.5137L3.12071 10.202C2.9845 10.1022 2.9845 9.89873 3.12071 9.79884ZM10.1207 9.79884L16.0003 5.48714V14.5137L10.1207 10.202C9.9845 10.1022 9.9845 9.89873 10.1207 9.79884Z" fill="#212121"/>
</svg>
