<svg width="20" height="20" viewBox="0 0 20 20" fill="none" xmlns="http://www.w3.org/2000/svg">
<path d="M10.0003 5.4867C10.0003 4.6676 9.06946 4.19591 8.40894 4.6803L2.52935 8.99199C1.84829 9.49144 1.84829 10.5086 2.52935 11.008L8.40894 15.3197C9.06946 15.8041 10.0003 15.3324 10.0003 14.5133V11.3534L15.4089 15.3197C16.0695 15.8041 17.0003 15.3324 17.0003 14.5133V5.4867C17.0003 4.6676 16.0695 4.19591 15.4089 4.6803L10.0003 8.64663V5.4867ZM3.12071 9.7984L9.0003 5.4867L9.0003 14.5133L3.12071 10.2016C2.9845 10.1017 2.9845 9.89829 3.12071 9.7984ZM10.1207 9.7984L16.0003 5.4867V14.5133L10.1207 10.2016C9.9845 10.1017 9.9845 9.89829 10.1207 9.7984Z" fill="#212121"/>
</svg>
