<svg width="20" height="20" viewBox="0 0 20 20" fill="none" xmlns="http://www.w3.org/2000/svg">
<path d="M14.9497 13.955C17.6834 11.2201 17.6834 6.78601 14.9497 4.05115C12.2161 1.31628 7.78392 1.31628 5.05025 4.05115C2.31658 6.78601 2.31658 11.2201 5.05025 13.955L6.57128 15.4538L8.61408 17.4389L8.74691 17.5567C9.52168 18.1847 10.6562 18.1455 11.3861 17.4391L13.8223 15.0691L14.9497 13.955ZM5.75499 4.75619C8.09944 2.41072 11.9006 2.41072 14.245 4.75619C16.5294 7.04153 16.5879 10.7104 14.4207 13.0667L14.245 13.2499L12.9237 14.5539L10.6931 16.7225L10.6002 16.8021C10.2459 17.0699 9.7543 17.0698 9.40012 16.802L9.30713 16.7224L6.3263 13.817L5.75499 13.2499L5.57927 13.0667C3.41208 10.7104 3.47065 7.04153 5.75499 4.75619ZM7.14645 6.14645C7.34171 5.95118 7.65829 5.95118 7.85355 6.14645L10 8.29289L12.1464 6.14645C12.3417 5.95118 12.6583 5.95118 12.8536 6.14645C13.0488 6.34171 13.0488 6.65829 12.8536 6.85355L10.7071 9L12.8536 11.1464C13.0488 11.3417 13.0488 11.6583 12.8536 11.8536C12.6583 12.0488 12.3417 12.0488 12.1464 11.8536L10 9.70711L7.85355 11.8536C7.65829 12.0488 7.34171 12.0488 7.14645 11.8536C6.95118 11.6583 6.95118 11.3417 7.14645 11.1464L9.29289 9L7.14645 6.85355C6.95118 6.65829 6.95118 6.34171 7.14645 6.14645Z" fill="#212121"/>
</svg>
