<svg width="20" height="20" viewBox="0 0 20 20" fill="none" xmlns="http://www.w3.org/2000/svg">
<path d="M1.00391 5.49493C1.00391 3.01245 3.01863 1 5.50391 1C7.98919 1 10.0039 3.01245 10.0039 5.49493C10.0039 7.97741 7.98919 9.98987 5.50391 9.98987C3.01863 9.98987 1.00391 7.97741 1.00391 5.49493ZM7.40036 6.39037L6.50391 7.2858V5.74465C6.50391 4.22758 5.27269 2.99775 3.75391 2.99775H3.50391C3.22777 2.99775 3.00391 3.22136 3.00391 3.49719C3.00391 3.77301 3.22777 3.99662 3.50391 3.99662H3.75391C4.72041 3.99662 5.50391 4.77924 5.50391 5.74465V7.2858L4.60746 6.39037C4.4122 6.19532 4.09562 6.19532 3.90036 6.39037C3.70509 6.58541 3.70509 6.90164 3.90036 7.09668L5.65248 8.84683C5.69993 8.89366 5.75442 8.92908 5.81252 8.95309C5.87147 8.97752 5.93611 8.99099 6.00391 8.99099C6.0717 8.99099 6.13635 8.97752 6.1953 8.95309C6.25427 8.92872 6.30952 8.89259 6.35746 8.84471L8.10746 7.09668C8.30272 6.90164 8.30272 6.58541 8.10746 6.39037C7.9122 6.19532 7.59562 6.19532 7.40036 6.39037ZM2.00098 9.73299C2.30808 9.98634 2.64319 10.207 3.00098 10.3897V13.8085C3.00098 14.0127 3.12545 14.1964 3.31528 14.2722L9.0725 16.5725C9.66853 16.8107 10.3334 16.8107 10.9295 16.5725L16.6867 14.2722C16.8765 14.1964 17.001 14.0127 17.001 13.8085V6.17118C17.001 5.96696 16.8765 5.78332 16.6867 5.70747L10.9295 3.40717C10.8019 3.35622 10.6713 3.31617 10.5388 3.28702C10.3733 2.91092 10.1669 2.55687 9.92516 2.23051C10.3917 2.22042 10.8597 2.3035 11.3008 2.47974L17.0581 4.78004C17.6276 5.00758 18.001 5.55852 18.001 6.17118V13.8085C18.001 14.4212 17.6275 14.9721 17.0581 15.1997L11.3008 17.5C10.4664 17.8334 9.53555 17.8334 8.70111 17.5L2.94389 15.1997C2.3744 14.9721 2.00098 14.4212 2.00098 13.8085V9.73299ZM10.537 7.70697C10.2818 8.2858 9.92949 8.8123 9.50073 9.26589V13.4859C9.50073 13.7618 9.72458 13.9854 10.0007 13.9854C10.2769 13.9854 10.5007 13.7618 10.5007 13.4859V8.81613L14.7039 6.9502C14.9563 6.83818 15.0699 6.54303 14.9578 6.29097C14.8456 6.03892 14.5501 5.92539 14.2978 6.03742L10.537 7.70697Z" fill="#212121"/>
</svg>
