<svg width="20" height="20" viewBox="0 0 20 20" fill="none" xmlns="http://www.w3.org/2000/svg">
<path d="M13.5849 9H17V8H13V9.11869C13.1816 9.04175 13.3798 9 13.5849 9ZM11.3349 12L12 10.4037V8H8V12H11.3349ZM10.1169 14.9231L10.9182 13H8V17H11.5016C10.4312 17 9.70526 15.9111 10.1169 14.9231ZM7 12V8H3V12H7ZM3 13H7V17H5.5C4.11929 17 3 15.8807 3 14.5V13ZM13 7H17V5.5C17 4.11929 15.8807 3 14.5 3H13V7ZM12 3V7H8V3H12ZM7 3V7H3V5.5C3 4.11929 4.11929 3 5.5 3H7ZM12.6101 16C12.9354 16 13.1741 16.3057 13.0952 16.6213L12.6607 18.3592C12.5399 18.8424 13.1228 19.1859 13.4869 18.846L18.3595 14.2983C18.8571 13.8338 18.5285 13 17.8478 13H17.4442C17.103 13 16.862 12.6657 16.9699 12.3419L17.5311 10.6581C17.6391 10.3343 17.3981 10 17.0568 10H13.5839C13.382 10 13.1999 10.1214 13.1223 10.3077L11.039 15.3077C10.9018 15.637 11.1437 16 11.5005 16H12.6101Z" fill="#212121"/>
</svg>
