<svg width="24" height="24" viewBox="0 0 24 24" fill="none" xmlns="http://www.w3.org/2000/svg">
<path d="M3.28034 2.21968C2.98745 1.92678 2.51257 1.92677 2.21968 2.21966C1.92678 2.51255 1.92677 2.98743 2.21966 3.28032L5.0141 6.07481C4.1718 6.17346 3.50176 6.42332 3.07999 6.62072C2.57978 6.85483 2.36406 7.45011 2.59817 7.95033C2.83228 8.45054 3.42757 8.66625 3.92778 8.43214C4.45834 8.18383 5.58738 7.80612 6.97653 8.2099C7.07798 8.23971 7.16702 8.27214 7.24531 8.30607L7.90063 8.96141C7.90909 8.98503 7.91703 9.00929 7.92448 9.03423C7.99145 9.25844 8.01079 9.48006 8.01369 9.72298C7.84058 9.68046 7.65499 9.64076 7.45894 9.60677C6.31262 9.40806 4.7257 9.3919 3.19741 10.2475C1.92573 10.9594 1.40067 12.4151 1.51534 13.6946C1.63421 15.021 2.4545 16.3737 4.08705 16.8305C5.56705 17.2446 7.00046 16.7861 7.9644 16.3236C7.99134 16.3107 8.01804 16.2977 8.04448 16.2847C8.1662 16.6997 8.5498 17.0027 9.00418 17.0027C9.55646 17.0027 10.0042 16.555 10.0042 16.0027V11.065L11.4406 12.5014C10.8425 13.773 10.7825 15.3149 11.7078 16.3254C12.3835 17.062 13.4125 17.0835 14.2068 16.9142C14.5294 16.8454 14.8615 16.7375 15.195 16.594C15.371 16.8327 15.6448 16.9799 15.9374 16.9983L20.7194 21.7805C21.0123 22.0734 21.4872 22.0734 21.7801 21.7805C22.073 21.4876 22.073 21.0127 21.7801 20.7198L3.28034 2.21968ZM13.8771 14.938C13.8475 14.9453 13.8185 14.952 13.7899 14.9581C13.3611 15.0495 13.2024 14.9764 13.1757 14.9642L13.1723 14.9627C13.0636 14.833 12.9527 14.5291 13.0193 14.0802L13.8771 14.938ZM7.11733 11.5774C7.46126 11.637 7.76422 11.7204 8.00418 11.7992V13.9972C7.77877 14.1509 7.46609 14.3444 7.09928 14.5204C6.30704 14.9005 5.41661 15.1257 4.62594 14.9045C3.92845 14.7093 3.56534 14.1631 3.50736 13.5161C3.44518 12.8223 3.74983 12.2303 4.17436 11.9926C5.161 11.4403 6.23324 11.4241 7.11733 11.5774ZM20.3916 14.263C20.1955 14.7948 19.7787 15.3596 19.0224 15.8407L20.4602 17.2785C21.34 16.6309 21.9444 15.833 22.2681 14.9548C22.7018 13.7785 22.5998 12.5413 22.0974 11.4904C21.6586 10.5727 20.9266 9.81108 19.9939 9.32616C19.9978 9.21842 19.9998 9.1097 19.9998 9C19.9998 8.44772 19.5521 8 18.9998 8C18.5266 8 18.1302 8.32861 18.0263 8.77005C17.4589 8.72516 16.8566 8.7663 16.2305 8.90804C16.2772 8.60322 16.3321 8.28214 16.3959 7.94362C17.3732 7.84972 18.3402 7.69129 19.2379 7.47123C19.7743 7.33974 20.1025 6.79831 19.971 6.2619C19.8396 5.7255 19.2981 5.39725 18.7617 5.52874C18.1396 5.68125 17.476 5.80114 16.7981 5.88684C16.8455 5.67838 16.8971 5.47796 16.9527 5.30321C17.1201 4.77692 16.8292 4.21454 16.3029 4.04709C15.7766 3.87965 15.2142 4.17055 15.0468 4.69684C14.9231 5.08579 14.811 5.59535 14.7232 6.04039C14.1584 6.05277 13.6025 6.04045 13.071 6.00253C12.5201 5.96321 12.0416 6.37792 12.0023 6.92881C11.963 7.47969 12.3777 7.95814 12.9286 7.99745C13.3881 8.03024 13.8627 8.04596 14.3451 8.04497C14.2391 8.65675 14.1606 9.22052 14.1058 9.74227C13.8506 9.88695 13.6111 10.0419 13.3873 10.2054L16.0948 12.913C16.0233 12.4096 15.9862 11.8052 16.0143 11.0564C16.0472 11.0442 16.0805 11.0322 16.114 11.0204L17.765 10.7555C17.4917 11.7425 17.0027 12.5768 16.4224 13.2406L17.8386 14.6569C18.6008 13.8119 19.2525 12.7474 19.6353 11.4887C19.9208 11.7401 20.1423 12.0379 20.293 12.3531C20.5769 12.9469 20.6272 13.6238 20.3916 14.263Z" fill="#212121"/>
</svg>
