<svg width="24" height="24" viewBox="0 0 24 24" fill="none" xmlns="http://www.w3.org/2000/svg">
<path d="M12 3.5C7.30558 3.5 3.5 7.30558 3.5 12C3.5 16.6944 7.30558 20.5 12 20.5C16.6944 20.5 20.5 16.6944 20.5 12C20.5 7.30558 16.6944 3.5 12 3.5ZM2 12C2 6.47715 6.47715 2 12 2C17.5228 2 22 6.47715 22 12C22 17.5228 17.5228 22 12 22C6.47715 22 2 17.5228 2 12ZM10.5 12C10.5 11.5858 10.8358 11.25 11.25 11.25H12.1237C13.2327 11.25 14 10.4533 14 9.625C14 8.79672 13.2327 8 12.1237 8C11.4908 8 10.9765 8.22876 10.6096 8.47024C10.4269 8.59046 10.2866 8.71022 10.1943 8.79735C10.1484 8.84067 10.1152 8.87519 10.0953 8.89662C10.0854 8.90732 10.0788 8.91468 10.0758 8.91816L10.0742 8.91994C9.80924 9.23544 9.33882 9.2782 9.02122 9.0148C8.70239 8.75037 8.65828 8.27755 8.9227 7.95872L8.92352 7.95774L8.92443 7.95665L8.92653 7.95414L8.93187 7.94782L8.94713 7.93017C8.95931 7.91626 8.97554 7.8981 8.99575 7.87633C9.03612 7.83282 9.09262 7.77457 9.16466 7.70656C9.30824 7.57103 9.51656 7.39391 9.78496 7.21726C10.3202 6.86499 11.1178 6.5 12.1237 6.5C13.9156 6.5 15.5 7.82993 15.5 9.625C15.5 10.6001 15.0325 11.438 14.3181 12C15.0325 12.562 15.5 13.3999 15.5 14.375C15.5 16.1701 13.9156 17.5 12.1237 17.5C11.1178 17.5 10.3202 17.135 9.78496 16.7827C9.51656 16.6061 9.30824 16.429 9.16466 16.2934C9.09262 16.2254 9.03612 16.1672 8.99575 16.1237C8.97554 16.1019 8.95931 16.0837 8.94713 16.0698L8.93187 16.0522L8.92653 16.0459L8.92443 16.0433L8.92352 16.0423L8.9227 16.0413C8.65828 15.7224 8.70239 15.2496 9.02122 14.9852C9.33882 14.7218 9.80923 14.7646 10.0742 15.08L10.0749 15.0809L10.0758 15.0818C10.0788 15.0853 10.0854 15.0927 10.0953 15.1034C10.1152 15.1248 10.1484 15.1593 10.1943 15.2027C10.2866 15.2898 10.4269 15.4095 10.6096 15.5298C10.9765 15.7712 11.4908 16 12.1237 16C13.2327 16 14 15.2033 14 14.375C14 13.5467 13.2327 12.75 12.1237 12.75H11.25C10.8358 12.75 10.5 12.4142 10.5 12ZM10.0742 15.08L10.0758 15.0818Z" fill="#242424"/>
</svg>
