<svg width="20" height="20" viewBox="0 0 20 20" fill="none" xmlns="http://www.w3.org/2000/svg">
<path d="M10 2C5.58172 2 2 5.58172 2 10C2 14.4183 5.58172 18 10 18C14.4183 18 18 14.4183 18 10C18 5.58172 14.4183 2 10 2ZM9 10C9 9.72386 9.22386 9.5 9.5 9.5H9.99891C11.0232 9.5 11.75 8.77448 11.75 8C11.75 7.22552 11.0232 6.5 9.99891 6.5C9.41859 6.5 8.94964 6.70619 8.61917 6.91987C8.45439 7.02642 8.3277 7.13259 8.24384 7.21036C8.20208 7.24909 8.17144 7.28031 8.15251 7.30035C8.14306 7.31036 8.13658 7.31752 8.13314 7.32139L8.13059 7.32427C7.95217 7.53346 7.63782 7.55964 7.42747 7.38207C7.21646 7.20394 7.1898 6.88848 7.36793 6.67747L7.36913 6.67606L7.37064 6.67428L7.37465 6.66963L7.38651 6.65615C7.39612 6.64537 7.40914 6.63105 7.42552 6.61371C7.45824 6.57906 7.50453 6.53216 7.56385 6.47714C7.68217 6.36741 7.85432 6.22358 8.07618 6.08013C8.51898 5.79381 9.17447 5.5 9.99891 5.5C11.4611 5.5 12.75 6.56534 12.75 8C12.75 8.83971 12.3084 9.55289 11.649 10C12.3084 10.4471 12.75 11.1603 12.75 12C12.75 13.4347 11.4611 14.5 9.99891 14.5C9.17447 14.5 8.51898 14.2062 8.07618 13.9199C7.85432 13.7764 7.68217 13.6326 7.56385 13.5229C7.50453 13.4678 7.45824 13.4209 7.42552 13.3863C7.40914 13.369 7.39612 13.3546 7.38651 13.3438L7.37465 13.3304L7.37064 13.3257L7.36913 13.3239L7.3682 13.3228C7.19007 13.1118 7.21646 12.7961 7.42747 12.6179C7.63782 12.4404 7.95196 12.4663 8.13038 12.6755L8.13314 12.6786C8.13658 12.6825 8.14306 12.6896 8.15251 12.6996C8.17144 12.7197 8.20208 12.7509 8.24384 12.7896C8.3277 12.8674 8.45439 12.9736 8.61917 13.0801C8.94964 13.2938 9.41859 13.5 9.99891 13.5C11.0232 13.5 11.75 12.7745 11.75 12C11.75 11.2255 11.0232 10.5 9.99891 10.5H9.5C9.22386 10.5 9 10.2761 9 10Z" fill="#242424"/>
</svg>
