<svg width="48" height="48" viewBox="0 0 48 48" fill="none" xmlns="http://www.w3.org/2000/svg">
<path d="M10.5 16C10.5 12.9624 12.9624 10.5 16 10.5C19.0376 10.5 21.5 12.9624 21.5 16C21.5 19.0376 19.0376 21.5 16 21.5C12.9624 21.5 10.5 19.0376 10.5 16ZM16 8C11.5817 8 8 11.5817 8 16C8 20.4183 11.5817 24 16 24C20.4183 24 24 20.4183 24 16C24 11.5817 20.4183 8 16 8ZM30.5 18C30.5 16.067 32.067 14.5 34 14.5C35.933 14.5 37.5 16.067 37.5 18C37.5 19.933 35.933 21.5 34 21.5C32.067 21.5 30.5 19.933 30.5 18ZM34 12C30.6863 12 28 14.6863 28 18C28 21.3137 30.6863 24 34 24C37.3137 24 40 21.3137 40 18C40 14.6863 37.3137 12 34 12ZM6.75 27C4.67893 27 3 28.6789 3 30.75V32.0019L3.00001 32.0041L3.00003 32.0089L3.00014 32.0207L3.00073 32.0528C3.00135 32.078 3.00246 32.1106 3.00446 32.1501C3.00846 32.2292 3.016 32.3364 3.03022 32.4676C3.05859 32.7296 3.11385 33.0904 3.22169 33.5172C3.43707 34.3695 3.86629 35.5005 4.72262 36.6301C6.47781 38.9455 9.825 41 16 41C19.3486 41 21.8657 40.3958 23.7482 39.4735C23.1088 38.8992 22.5588 38.2219 22.1224 37.4667C20.6612 38.0782 18.6836 38.5 16 38.5C10.425 38.5 7.89719 36.6795 6.71488 35.1199C6.10246 34.312 5.79731 33.5055 5.6455 32.9047C5.56975 32.6049 5.5332 32.3602 5.51568 32.1984C5.50695 32.1177 5.50302 32.0584 5.50128 32.0239C5.50045 32.0075 5.50012 31.9968 5.5 31.9923V30.75C5.5 30.0596 6.05964 29.5 6.75 29.5H21.8723C22.3464 28.5436 22.9962 27.6951 23.7778 27H6.75ZM23 33.25C23 29.7982 25.7982 27 29.25 27H30.75C31.4404 27 32 27.5596 32 28.25C32 28.9404 31.4404 29.5 30.75 29.5H29.25C27.1789 29.5 25.5 31.1789 25.5 33.25C25.5 35.3211 27.1789 37 29.25 37H30.75C31.4404 37 32 37.5596 32 38.25C32 38.9404 31.4404 39.5 30.75 39.5H29.25C25.7982 39.5 23 36.7018 23 33.25ZM45 33.25C45 29.7982 42.2018 27 38.75 27H37.25C36.5596 27 36 27.5596 36 28.25C36 28.9404 36.5596 29.5 37.25 29.5H38.75C40.8211 29.5 42.5 31.1789 42.5 33.25C42.5 35.3211 40.8211 37 38.75 37H37.25C36.5596 37 36 37.5596 36 38.25C36 38.9404 36.5596 39.5 37.25 39.5H38.75C42.2018 39.5 45 36.7018 45 33.25ZM28 33.25C28 32.5596 28.5596 32 29.25 32H38.75C39.4404 32 40 32.5596 40 33.25C40 33.9404 39.4404 34.5 38.75 34.5H29.25C28.5596 34.5 28 33.9404 28 33.25Z" fill="#212121"/>
</svg>
