<svg width="20" height="20" viewBox="0 0 20 20" fill="none" xmlns="http://www.w3.org/2000/svg">
<path d="M5 1.5C5 1.77614 4.77614 2 4.5 2C4.22386 2 4 1.77614 4 1.5C4 1.22386 4.22386 1 4.5 1C4.77614 1 5 1.22386 5 1.5ZM2 5.5C2 3.45444 3.91319 2 6 2C8.08681 2 10 3.45444 10 5.5C10 7.54556 8.08681 9 6 9C3.91319 9 2 7.54556 2 5.5ZM6 3.5C4.49696 3.5 3.5 4.50799 3.5 5.5C3.5 6.49201 4.49696 7.5 6 7.5C7.50304 7.5 8.5 6.49201 8.5 5.5C8.5 4.50799 7.50304 3.5 6 3.5ZM7.5 2C7.77614 2 8 1.77614 8 1.5C8 1.22386 7.77614 1 7.5 1C7.22386 1 7 1.22386 7 1.5C7 1.77614 7.22386 2 7.5 2ZM15 2.75C15 2.33579 14.6642 2 14.25 2C13.8358 2 13.5 2.33579 13.5 2.75V15.3219L12.0529 13.7432C11.773 13.4379 11.2985 13.4172 10.9932 13.6971C10.6879 13.977 10.6672 14.4515 10.9471 14.7568L13.6971 17.7568C13.8392 17.9118 14.0398 18 14.25 18C14.4602 18 14.6608 17.9118 14.8029 17.7568L17.5529 14.7568C17.8328 14.4515 17.8121 13.977 17.5068 13.6971C17.2015 13.4172 16.727 13.4379 16.4471 13.7432L15 15.3219V2.75ZM6.0002 10.5C6.30297 10.5 6.57605 10.6821 6.6925 10.9615L9.1925 16.9615C9.35182 17.3439 9.17101 17.783 8.78866 17.9423C8.40631 18.1016 7.9672 17.9208 7.80789 17.5385L7.3752 16.5H4.6252L4.1925 17.5385C4.03319 17.9208 3.59409 18.1016 3.21173 17.9423C2.82938 17.783 2.64858 17.3439 2.80789 16.9615L5.30789 10.9615C5.42434 10.6821 5.69742 10.5 6.0002 10.5ZM6.0002 13.2L5.2502 15H6.7502L6.0002 13.2Z" fill="#212121"/>
</svg>
