<svg width="16" height="16" viewBox="0 0 16 16" fill="none" xmlns="http://www.w3.org/2000/svg">
<path d="M12.5 1C12.7761 1 13 1.22386 13 1.5V13.2929L14.1464 12.1464C14.3417 11.9512 14.6583 11.9512 14.8536 12.1464C15.0488 12.3417 15.0488 12.6583 14.8536 12.8536L12.8536 14.8536C12.6583 15.0488 12.3417 15.0488 12.1464 14.8536L10.1464 12.8536C9.95118 12.6583 9.95118 12.3417 10.1464 12.1464C10.3417 11.9512 10.6583 11.9512 10.8536 12.1464L12 13.2929V1.5C12 1.22386 12.2239 1 12.5 1ZM1.5 5C1.5 3.26166 3.15623 2 5 2C6.84377 2 8.5 3.26166 8.5 5C8.5 6.73834 6.84377 8 5 8C3.15623 8 1.5 6.73834 1.5 5ZM5 3C3.53006 3 2.5 3.97692 2.5 5C2.5 6.02308 3.53006 7 5 7C6.46994 7 7.5 6.02308 7.5 5C7.5 3.97692 6.46994 3 5 3ZM5.46437 9.31431C5.38844 9.12448 5.20459 9 5.00013 9C4.79568 9 4.61183 9.12448 4.53589 9.31431L2.53589 14.3143C2.43334 14.5707 2.55805 14.8617 2.81444 14.9642C3.07083 15.0668 3.36181 14.9421 3.46437 14.6857L3.7389 13.9994L6.26159 13.9999L6.53589 14.6857C6.63845 14.9421 6.92944 15.0668 7.18583 14.9642C7.44222 14.8617 7.56693 14.5707 7.46437 14.3143L5.46437 9.31431ZM5.86156 12.9999L4.13886 12.9995L5.00013 10.8463L5.86156 12.9999ZM4 1.5C4 1.77614 3.77614 2 3.5 2C3.22386 2 3 1.77614 3 1.5C3 1.22386 3.22386 1 3.5 1C3.77614 1 4 1.22386 4 1.5ZM6.5 2C6.77614 2 7 1.77614 7 1.5C7 1.22386 6.77614 1 6.5 1C6.22386 1 6 1.22386 6 1.5C6 1.77614 6.22386 2 6.5 2Z" fill="#212121"/>
</svg>
