<svg width="32" height="32" viewBox="0 0 32 32" fill="none" xmlns="http://www.w3.org/2000/svg">
<path d="M17 9V2H8C6.34315 2 5 3.34315 5 5V15.5505C5.63526 14.9022 6.52066 14.5 7.5 14.5H11.5C13.433 14.5 15 16.067 15 18V18.0082C16.7288 18.1219 18.1362 19.4064 18.4395 21.077C18.4789 21.2112 18.5 21.3531 18.5 21.5V28.75C18.5 29.1883 18.4248 29.609 18.2866 30H24C25.6569 30 27 28.6569 27 27V12H20C18.3431 12 17 10.6569 17 9ZM19 9V2.11664C19.4843 2.2558 19.9302 2.51602 20.2929 2.87868L26.1213 8.70711C26.484 9.06977 26.7442 9.51572 26.8834 10H20C19.4477 10 19 9.55229 19 9ZM5.5 18V19.5H4.25C3.09186 19.5 2.13809 20.375 2.01373 21.5H2V28.75C2 29.9926 3.00736 31 4.25 31H14.75C15.9926 31 17 29.9926 17 28.75V21.5H16.9863C16.8619 20.375 15.9081 19.5 14.75 19.5H13.5V18C13.5 16.8954 12.6046 16 11.5 16H7.5C6.39543 16 5.5 16.8954 5.5 18ZM7.5 17.5H11.5C11.7761 17.5 12 17.7239 12 18V19.5H7V18C7 17.7239 7.22386 17.5 7.5 17.5Z" fill="#212121"/>
</svg>
