<svg width="28" height="28" viewBox="0 0 28 28" fill="none" xmlns="http://www.w3.org/2000/svg">
<path d="M13.0012 10.6973V6.13085C13.0012 4.77153 14.5707 4.01299 15.6358 4.85757L25.2726 12.4991C26.2404 13.2665 26.2403 14.7355 25.2725 15.5029L15.6357 23.143C14.5706 23.9875 13.0012 23.2289 13.0012 21.8696V17.3025L5.63552 23.1422C4.57039 23.9866 3.00098 23.228 3.00098 21.8688V6.12999C3.00098 4.77067 4.57053 4.01214 5.63563 4.85672L13.0012 10.6973ZM13.0012 15.3883V12.6116L4.70364 6.03205C4.67673 6.01071 4.65575 6.00521 4.63955 6.00377C4.62015 6.00204 4.59606 6.00562 4.57159 6.01745C4.54711 6.02927 4.52935 6.04593 4.51864 6.06221C4.50971 6.07579 4.50098 6.09565 4.50098 6.12999V21.8688C4.50098 21.9031 4.50971 21.923 4.51864 21.9366C4.52934 21.9529 4.54711 21.9695 4.57158 21.9813C4.59605 21.9932 4.62014 21.9967 4.63955 21.995C4.65574 21.9936 4.67673 21.9881 4.70363 21.9667L13.0012 15.3883ZM14.7039 6.0329C14.6769 6.01156 14.656 6.00607 14.6398 6.00463C14.6204 6.0029 14.5963 6.00647 14.5718 6.0183C14.5473 6.03013 14.5296 6.04678 14.5188 6.06306C14.5099 6.07665 14.5012 6.09651 14.5012 6.13085V21.8696C14.5012 21.904 14.5099 21.9238 14.5188 21.9374C14.5296 21.9537 14.5473 21.9704 14.5718 21.9822C14.5963 21.994 14.6203 21.9976 14.6398 21.9959C14.656 21.9944 14.6769 21.9889 14.7038 21.9676L24.3406 14.3274C24.551 14.1606 24.551 13.8413 24.3406 13.6745L14.7039 6.0329Z" fill="#212121"/>
</svg>
