<svg width="24" height="24" viewBox="0 0 24 24" fill="none" xmlns="http://www.w3.org/2000/svg">
<path d="M12 7C12.5523 7 13 7.44772 13 8V11H15C15.5523 11 16 11.4477 16 12C16 12.5523 15.5523 13 15 13H12C11.4477 13 11 12.5523 11 12V8C11 7.44772 11.4477 7 12 7Z" fill="url(#paint0_linear_378174_9054)"/>
<path d="M12 5C15.866 5 19 8.13401 19 12C19 15.866 15.866 19 12 19C8.13401 19 5 15.866 5 12C5 11.7028 5.01846 11.4104 5.05421 11.1237C5.12255 10.5757 4.73367 10.076 4.18563 10.0077C3.63759 9.93935 3.13792 10.3282 3.06958 10.8763C3.02362 11.2448 3 11.6199 3 12C3 16.9706 7.02944 21 12 21C16.9706 21 21 16.9706 21 12C21 7.02944 16.9706 3 12 3C10.15 3 8.42985 3.5588 7 4.51575V4C7 3.44772 6.55228 3 6 3C5.44772 3 5 3.44772 5 4V7C5 7.55228 5.44772 8 6 8H9C9.55228 8 10 7.55228 10 7C10 6.44772 9.55228 6 9 6H8.39202C9.4458 5.36484 10.68 5 12 5Z" fill="url(#paint1_linear_378174_9054)"/>
<defs>
<linearGradient id="paint0_linear_378174_9054" x1="10.1563" y1="18.4502" x2="22.0941" y2="13.4139" gradientUnits="userSpaceOnUse">
<stop stop-color="#D373FC"/>
<stop offset="1" stop-color="#6D37CD"/>
</linearGradient>
<linearGradient id="paint1_linear_378174_9054" x1="3" y1="4.05882" x2="7.83131" y2="24.2883" gradientUnits="userSpaceOnUse">
<stop stop-color="#0FAFFF"/>
<stop offset="1" stop-color="#0067BF"/>
</linearGradient>
</defs>
</svg>
