<svg width="48" height="48" viewBox="0 0 48 48" fill="none" xmlns="http://www.w3.org/2000/svg">
<path d="M24 8.5C32.5604 8.5 39.5 15.4396 39.5 24C39.5 32.5604 32.5604 39.5 24 39.5C15.4396 39.5 8.5 32.5604 8.5 24C8.5 23.1333 8.57101 22.284 8.7073 21.4576C8.81963 20.7765 8.3585 20.1332 7.67734 20.0209C6.99619 19.9086 6.35294 20.3697 6.24062 21.0508C6.08224 22.0112 6 22.9965 6 24C6 33.9411 14.0589 42 24 42C33.9411 42 42 33.9411 42 24C42 14.0589 33.9411 6 24 6C19.1438 6 14.7368 7.92396 11.5 11.0483V8.25C11.5 7.55964 10.9404 7 10.25 7C9.55964 7 9 7.55964 9 8.25V14.75C9 15.4404 9.55964 16 10.25 16H16.75C17.4404 16 18 15.4404 18 14.75C18 14.0596 17.4404 13.5 16.75 13.5H12.5981C15.4318 10.4242 19.4911 8.5 24 8.5ZM25 14.25C25 13.5596 24.4404 13 23.75 13C23.0596 13 22.5 13.5596 22.5 14.25V24.25C22.5 24.9404 23.0596 25.5 23.75 25.5H30.75C31.4404 25.5 32 24.9404 32 24.25C32 23.5596 31.4404 23 30.75 23H25V14.25Z" fill="#212121"/>
</svg>
