<svg width="20" height="20" viewBox="0 0 20 20" fill="none" xmlns="http://www.w3.org/2000/svg">
<path d="M3.50004 1.99609L3.58992 2.00415C3.79401 2.04119 3.95494 2.20213 3.99199 2.40622L4.00004 2.49609L3.99938 4.70762C5.16432 3.38448 6.74848 2.46588 8.54216 2.13344C12.8865 1.32827 17.0609 4.1973 17.8661 8.54159C18.6712 12.8859 15.8022 17.0603 11.4579 17.8655C7.11362 18.6707 2.93909 15.8017 2.13392 11.4574C2.04721 10.9895 1.97637 10.1379 2.00418 9.47828C2.01582 9.20238 2.24891 8.98816 2.5248 8.99979C2.8007 9.01142 3.01493 9.24451 3.0033 9.52041C2.97884 10.1003 3.0435 10.8776 3.11718 11.2751C3.82169 15.0764 7.47442 17.5868 11.2757 16.8823C15.0769 16.1777 17.5873 12.5251 16.8828 8.72383C16.1783 4.92257 12.5256 2.41217 8.72439 3.11669C6.88523 3.45756 5.29914 4.50146 4.25844 5.99497L7.49998 5.99609L7.58986 6.00415C7.8231 6.04649 7.99998 6.25063 7.99998 6.49609C7.99998 6.74155 7.8231 6.9457 7.58986 6.98804L7.49998 6.99609H3.50004L3.41017 6.98804C3.20607 6.95099 3.04514 6.79006 3.0081 6.58597L3.00004 6.49609V2.49609L3.0081 2.40622C3.04514 2.20213 3.20607 2.04119 3.41017 2.00415L3.50004 1.99609ZM9.50004 5.99609L9.58992 6.00415C9.79401 6.04119 9.95494 6.20213 9.99199 6.40622L10 6.49609V10.4995H12L12.0899 10.5075C12.3232 10.5499 12.5 10.754 12.5 10.9995C12.5 11.2449 12.3232 11.4491 12.0899 11.4914L12 11.4995H9.50004L9.41017 11.4914C9.20607 11.4544 9.04514 11.2934 9.0081 11.0894L9.00004 10.9995V6.49609L9.0081 6.40622C9.04514 6.20213 9.20607 6.04119 9.41017 6.00415L9.50004 5.99609Z" fill="#212121"/>
</svg>
