<svg width="32" height="32" viewBox="0 0 32 32" fill="none" xmlns="http://www.w3.org/2000/svg">
<path d="M16 5C22.0751 5 27 9.92487 27 16C27 22.0751 22.0751 27 16 27C9.92487 27 5 22.0751 5 16C5 15.6907 5.01274 15.3846 5.03769 15.0822C5.0831 14.5318 4.67371 14.0488 4.12329 14.0034C3.57288 13.958 3.08987 14.3674 3.04446 14.9178C3.015 15.2748 3 15.6358 3 16C3 23.1797 8.8203 29 16 29C23.1797 29 29 23.1797 29 16C29 8.8203 23.1797 3 16 3C12.5065 3 9.33501 4.37864 7 6.61926V4C7 3.44772 6.55228 3 6 3C5.44772 3 5 3.44772 5 4V9C5 9.55228 5.44772 10 6 10H11C11.5523 10 12 9.55228 12 9C12 8.44772 11.5523 8 11 8H8.45C10.4208 6.1392 13.0773 5 16 5ZM17 9C17 8.44772 16.5523 8 16 8C15.4477 8 15 8.44772 15 9V16C15 16.5523 15.4477 17 16 17H21C21.5523 17 22 16.5523 22 16C22 15.4477 21.5523 15 21 15H17V9Z" fill="#212121"/>
</svg>
