<svg width="20" height="20" viewBox="0 0 20 20" fill="none" xmlns="http://www.w3.org/2000/svg">
<path d="M12.0883 6.41228C12.016 6.31886 11.9377 6.2298 11.8539 6.14569C11.5417 5.83255 11.1606 5.59666 10.741 5.45683L9.36317 5.00939C9.25698 4.97196 9.16502 4.90253 9.09998 4.81068C9.03493 4.71883 9 4.60908 9 4.49656C9 4.38404 9.03493 4.27429 9.09998 4.18244C9.16502 4.09058 9.25698 4.02116 9.36317 3.98372L10.741 3.53628C11.1547 3.39352 11.5299 3.15705 11.837 2.84537C12.1357 2.54224 12.3623 2.17595 12.5 1.77372L12.5114 1.73963L12.9592 0.362894C12.9967 0.256782 13.0662 0.164895 13.1581 0.0998993C13.25 0.0349035 13.3598 0 13.4724 0C13.5851 0 13.6949 0.0349035 13.7868 0.0998993C13.8787 0.164895 13.9482 0.256782 13.9857 0.362894L14.4335 1.73963C14.5727 2.15819 14.8077 2.53853 15.1198 2.85041C15.432 3.1623 15.8126 3.39715 16.2315 3.53628L17.6093 3.98372L17.6368 3.99061C17.743 4.02804 17.835 4.09747 17.9 4.18932C17.9651 4.28117 18 4.39092 18 4.50344C18 4.61596 17.9651 4.72571 17.9 4.81756C17.835 4.90942 17.743 4.97884 17.6368 5.01628L16.259 5.46372C15.8402 5.60285 15.4595 5.8377 15.1474 6.14959C14.8353 6.46147 14.6003 6.84181 14.461 7.26037L14.0132 8.63711C14.0092 8.64855 14.0048 8.65983 14 8.67093C13.9605 8.76273 13.8964 8.84212 13.8144 8.9001C13.7224 8.9651 13.6126 9 13.5 9C13.3874 9 13.2776 8.9651 13.1856 8.9001C13.0937 8.8351 13.0242 8.74322 12.9868 8.63711L12.539 7.26037C12.4378 6.95331 12.2851 6.66664 12.0883 6.41228ZM19.7829 10.2132L19.0175 9.9646C18.7848 9.8873 18.5733 9.75683 18.3999 9.58356C18.2265 9.41029 18.0959 9.199 18.0186 8.96646L17.7698 8.20161C17.749 8.14266 17.7104 8.09161 17.6593 8.0555C17.6083 8.01939 17.5473 8 17.4847 8C17.4221 8 17.3611 8.01939 17.31 8.0555C17.259 8.09161 17.2204 8.14266 17.1996 8.20161L16.9508 8.96646C16.875 9.19736 16.7467 9.40761 16.5761 9.58076C16.4055 9.75392 16.1971 9.88529 15.9672 9.9646L15.2018 10.2132C15.1428 10.234 15.0917 10.2725 15.0555 10.3236C15.0194 10.3746 15 10.4356 15 10.4981C15 10.5606 15.0194 10.6216 15.0555 10.6726C15.0917 10.7236 15.1428 10.7622 15.2018 10.783L15.9672 11.0316C16.2003 11.1093 16.412 11.2403 16.5855 11.4143C16.7589 11.5882 16.8893 11.8003 16.9661 12.0335L17.2149 12.7984C17.2357 12.8573 17.2743 12.9084 17.3254 12.9445C17.3764 12.9806 17.4374 13 17.5 13C17.5626 13 17.6236 12.9806 17.6746 12.9445C17.7257 12.9084 17.7643 12.8573 17.7851 12.7984L18.0339 12.0335C18.1113 11.801 18.2418 11.5897 18.4152 11.4164C18.5886 11.2432 18.8001 11.1127 19.0328 11.0354L19.7982 10.7868C19.8572 10.766 19.9083 10.7275 19.9445 10.6764C19.9806 10.6254 20 10.5644 20 10.5019C20 10.4394 19.9806 10.3784 19.9445 10.3274C19.9083 10.2764 19.8572 10.2378 19.7982 10.217L19.7829 10.2132ZM6 2H11.2039C11.171 2.03779 11.1363 2.07418 11.1 2.10903C10.9032 2.31418 10.6595 2.46858 10.39 2.55903L9.05 2.99903C8.74261 3.1087 8.47464 3.30706 8.28 3.56903C8.09841 3.83411 8.00085 4.14772 8 4.46903C8.00099 4.78722 8.09863 5.09759 8.28 5.35903C8.44538 5.64387 8.69773 5.86818 9 5.99903L9.00295 6H7.5C7.22386 6 7 6.22386 7 6.5C7 6.77614 7.22386 7 7.5 7H11.3007C11.4261 7.16621 11.5238 7.35161 11.59 7.54903L12 8.99903C12.0628 9.18289 12.1586 9.35247 12.2816 9.5H7.5C7.22386 9.5 7 9.72386 7 10C7 10.2761 7.22386 10.5 7.5 10.5H12.5C12.7761 10.5 13 10.2761 13 10C13 9.99279 12.9998 9.98562 12.9995 9.97849C13.1478 10.0245 13.303 10.0485 13.46 10.049C13.6963 10.0519 13.9298 9.99699 14.14 9.88903C14.0212 10.0886 13.959 10.3168 13.96 10.549C13.9578 10.8183 14.0419 11.0811 14.2 11.299C14.3554 11.5202 14.5755 11.6879 14.83 11.779L15.62 12.029C15.701 12.0623 15.7755 12.1097 15.84 12.169C15.9038 12.2339 15.9517 12.3126 15.98 12.399L16 12.4624V16C16 17.1046 15.1046 18 14 18H6C4.89543 18 4 17.1046 4 16V4C4 2.89543 4.89543 2 6 2ZM7 13.5C7 13.7761 7.22386 14 7.5 14H12.5C12.7761 14 13 13.7761 13 13.5C13 13.2239 12.7761 13 12.5 13H7.5C7.22386 13 7 13.2239 7 13.5Z" fill="#212121"/>
</svg>
