<svg width="20" height="20" viewBox="0 0 20 20" fill="none" xmlns="http://www.w3.org/2000/svg">
<path d="M15 3.00098C15.2761 3.00098 15.5 2.77712 15.5 2.50098C15.5 2.25552 15.3231 2.05137 15.0899 2.00903L15 2.00098H4C3.72386 2.00098 3.5 2.22483 3.5 2.50098C3.5 2.74644 3.67688 2.95059 3.91012 2.99292L4 3.00098H15ZM9.50014 17.9988C9.7456 17.9988 9.9497 17.8218 9.99197 17.5885L10 17.4986L9.996 5.70477L13.6414 9.3531C13.8148 9.52683 14.0842 9.54636 14.2792 9.41154L14.3485 9.35375C14.5222 9.18034 14.5418 8.91094 14.407 8.71595L14.3492 8.64664L9.85745 4.14664C9.78495 4.07401 9.69568 4.02833 9.60207 4.00962L9.49608 3.99987C9.33511 3.99987 9.19192 4.076 9.10051 4.19419L4.64386 8.64607C4.44846 8.84119 4.44823 9.15777 4.64336 9.35317C4.8168 9.52686 5.08621 9.54634 5.28117 9.41148L5.35046 9.35368L8.996 5.71277L9 17.4989C9.00008 17.7751 9.224 17.9988 9.50014 17.9988Z" fill="#212121"/>
</svg>
