<svg width="28" height="28" viewBox="0 0 28 28" fill="none" xmlns="http://www.w3.org/2000/svg">
<path d="M4 3C2.89543 3 2 3.89543 2 5C2 6.0199 2.76342 6.8615 3.75 6.98453V16.25C3.75 18.183 5.317 19.75 7.25 19.75H13.441C13.3222 19.8827 13.25 20.0579 13.25 20.25V23.5H8.75C8.33579 23.5 8 23.8358 8 24.25C8 24.6642 8.33579 25 8.75 25H19.25C19.6642 25 20 24.6642 20 24.25C20 23.8358 19.6642 23.5 19.25 23.5H14.75V20.25C14.75 20.0579 14.6778 19.8827 14.559 19.75H20.75C22.683 19.75 24.25 18.183 24.25 16.25V6.98453C25.2366 6.8615 26 6.0199 26 5C26 3.89543 25.1046 3 24 3H4Z" fill="#212121"/>
</svg>
