<?xml version="1.0" encoding="UTF-8"?>
<svg width="24px" height="24px" viewBox="0 0 24 24" version="1.1" xmlns="http://www.w3.org/2000/svg" xmlns:xlink="http://www.w3.org/1999/xlink">
    <!-- Generator: Sketch 59.1 (86144) - https://sketch.com -->
    <title>ic_fluent_double_swipe_down_24_regular</title>
    <desc>Created with Sketch.</desc>
    <g id="ðŸ”-Product-Icons" stroke="none" stroke-width="1" fill="none" fill-rule="evenodd">
        <g id="ic_fluent_double_swipe_down_24_regular" fill="#212121" fill-rule="nonzero">
            <path d="M10.7852378,17.2170053 C11.043728,17.4908274 11.0559281,17.9080153 10.8297107,18.195233 L10.7547009,18.2772258 L7.00977232,21.8124681 C6.74966267,22.0580137 6.35780534,22.0825683 6.07134615,21.8861318 L5.9800887,21.8124681 L2.23516014,18.2772258 C1.93395581,17.9928865 1.92028398,17.5182096 2.20462326,17.2170053 C2.46311352,16.9431832 2.87890758,16.9069912 3.17866949,17.1163022 L3.26484376,17.1864684 L6.49493051,20.235696 L9.72501726,17.1864684 C10.0262216,16.9021292 10.5008985,16.915801 10.7852378,17.2170053 Z M21.7815228,17.2170053 C22.040013,17.4908274 22.0522131,17.9080153 21.8259958,18.195233 L21.7509859,18.2772258 L18.0060573,21.8124681 C17.7459477,22.0580137 17.3540904,22.0825683 17.0676312,21.8861318 L16.9763737,21.8124681 L13.2314452,18.2772258 C12.9302408,17.9928865 12.916569,17.5182096 13.2009083,17.2170053 C13.4593985,16.9431832 13.8751926,16.9069912 14.1749545,17.1163022 L14.2611288,17.1864684 L17.4912155,20.235696 L20.7213023,17.1864684 C21.0225066,16.9021292 21.4971835,16.915801 21.7815228,17.2170053 Z M6.49493051,13 C7.24929604,13 7.86083013,13.6115341 7.86083013,14.3658996 C7.86083013,15.1202651 7.24929604,15.7317992 6.49493051,15.7317992 C5.74056498,15.7317992 5.12903089,15.1202651 5.12903089,14.3658996 C5.12903089,13.6115341 5.74056498,13 6.49493051,13 Z M17.4912155,13 C18.2455811,13 18.8571152,13.6115341 18.8571152,14.3658996 C18.8571152,15.1202651 18.2455811,15.7317992 17.4912155,15.7317992 C16.73685,15.7317992 16.1253159,15.1202651 16.1253159,14.3658996 C16.1253159,13.6115341 16.73685,13 17.4912155,13 Z M6.49493051,8 C7.24929604,8 7.86083013,8.61153409 7.86083013,9.36589962 C7.86083013,10.1202651 7.24929604,10.7317992 6.49493051,10.7317992 C5.74056498,10.7317992 5.12903089,10.1202651 5.12903089,9.36589962 C5.12903089,8.61153409 5.74056498,8 6.49493051,8 Z M17.4912155,8 C18.2455811,8 18.8571152,8.61153409 18.8571152,9.36589962 C18.8571152,10.1202651 18.2455811,10.7317992 17.4912155,10.7317992 C16.73685,10.7317992 16.1253159,10.1202651 16.1253159,9.36589962 C16.1253159,8.61153409 16.73685,8 17.4912155,8 Z M6.49493051,3 C7.24929604,3 7.86083013,3.61153409 7.86083013,4.36589962 C7.86083013,5.12026515 7.24929604,5.73179924 6.49493051,5.73179924 C5.74056498,5.73179924 5.12903089,5.12026515 5.12903089,4.36589962 C5.12903089,3.61153409 5.74056498,3 6.49493051,3 Z M17.4912155,3 C18.2455811,3 18.8571152,3.61153409 18.8571152,4.36589962 C18.8571152,5.12026515 18.2455811,5.73179924 17.4912155,5.73179924 C16.73685,5.73179924 16.1253159,5.12026515 16.1253159,4.36589962 C16.1253159,3.61153409 16.73685,3 17.4912155,3 Z" id="ðŸŽ¨Color"></path>
        </g>
    </g>
</svg>