<svg width="20" height="20" viewBox="0 0 20 20" fill="none" xmlns="http://www.w3.org/2000/svg">
<path d="M5.85355 17.8537C5.65829 18.0489 5.34171 18.0489 5.14645 17.8537L2.14645 14.8537C1.95118 14.6584 1.95118 14.3418 2.14645 14.1465C2.34171 13.9513 2.65829 13.9513 2.85355 14.1465L5 16.293V5.5001C5 5.22396 5.22386 5.0001 5.5 5.0001C5.77614 5.0001 6 5.22396 6 5.5001V16.293L8.14645 14.1465C8.34171 13.9513 8.65829 13.9513 8.85355 14.1465C9.04882 14.3418 9.04882 14.6584 8.85355 14.8537L5.85355 17.8537ZM14.8536 17.8537C14.6583 18.0489 14.3417 18.0489 14.1464 17.8537L11.1464 14.8537C10.9512 14.6584 10.9512 14.3418 11.1464 14.1465C11.3417 13.9513 11.6583 13.9513 11.8536 14.1465L14 16.293V5.5001C14 5.22396 14.2239 5.0001 14.5 5.0001C14.7761 5.0001 15 5.22396 15 5.5001V16.293L17.1464 14.1465C17.3417 13.9513 17.6583 13.9513 17.8536 14.1465C18.0488 14.3418 18.0488 14.6584 17.8536 14.8537L14.8536 17.8537ZM11 5.5C11 6.8962 11.8175 8.10145 13 8.66319V7.50018C12.3928 7.04408 12 6.31791 12 5.5C12 4.11929 13.1193 3 14.5 3C15.8807 3 17 4.11929 17 5.5C17 6.31791 16.6072 7.04408 16 7.50018V8.66319C17.1825 8.10145 18 6.8962 18 5.5C18 3.567 16.433 2 14.5 2C12.567 2 11 3.567 11 5.5ZM4 8.66319C2.81753 8.10145 2 6.8962 2 5.5C2 3.567 3.567 2 5.5 2C7.433 2 9 3.567 9 5.5C9 6.8962 8.18247 8.10145 7 8.66319V7.50018C7.60722 7.04408 8 6.31791 8 5.5C8 4.11929 6.88071 3 5.5 3C4.11929 3 3 4.11929 3 5.5C3 6.31791 3.39278 7.04408 4 7.50018V8.66319Z" fill="#212121"/>
</svg>
