<?xml version="1.0" encoding="UTF-8"?>
<svg width="20px" height="20px" viewBox="0 0 20 20" version="1.1" xmlns="http://www.w3.org/2000/svg" xmlns:xlink="http://www.w3.org/1999/xlink">
    <!-- Generator: Sketch 64 (93537) - https://sketch.com -->
    <title>ic_fluent_text_font_size_20_regular</title>
    <desc>Created with Sketch.</desc>
    <g id="ðŸ”-System-Icons" stroke="none" stroke-width="1" fill="none" fill-rule="evenodd">
        <g id="ic_fluent_text_font_size_20_regular" fill="#212121" fill-rule="nonzero">
            <path d="M13,3.5 C13.2084,3.5 13.395,3.62929 13.4682,3.82444 L16.4641,11.8136 C16.467,11.8208 16.4697,11.828 16.4723,11.8354 L17.9682,15.8244 C18.0651,16.083 17.9341,16.3712 17.6756,16.4682 C17.417,16.5651 17.1288,16.4341 17.0318,16.1756 L15.6535,12.5 L10.3465,12.5 L8.96817,16.1756 C8.89568,16.3689 8.71186,16.4977 8.50544,16.5 C8.29901,16.5022 8.11243,16.3774 8.03577,16.1857 L6.96149,13.5 L4.03852,13.5 L2.96424,16.1857 C2.86168,16.4421 2.5707,16.5668 2.31431,16.4642 C2.05792,16.3617 1.93321,16.0707 2.03576,15.8143 L3.23144,12.8251 C3.23413,12.8179 3.23697,12.8108 3.23997,12.8038 L5.03576,8.3143 C5.1117,8.12448 5.29555,8 5.5,8 C5.70446,8 5.88831,8.12448 5.96424,8.3143 L7.76003,12.8038 C7.76303,12.8108 7.76588,12.8179 7.76857,12.8251 L8.48496,14.6161 L9.52774,11.8354 C9.53029,11.8281 9.53301,11.8208 9.53589,11.8136 L12.5318,3.82444 C12.605,3.62929 12.7916,3.5 13,3.5 Z M10.7215,11.5 L15.2785,11.5 L13,5.424 L10.7215,11.5 Z M6.56149,12.5 L5.5,9.84629 L4.43852,12.5 L6.56149,12.5 Z" id="ðŸŽ¨-Color"></path>
        </g>
    </g>
</svg>