<svg width="20" height="20" viewBox="0 0 20 20" fill="none" xmlns="http://www.w3.org/2000/svg">
<path d="M19 5.49995C19 7.9852 16.9853 9.9999 14.5 9.9999C12.0147 9.9999 10 7.9852 10 5.49995C10 3.0147 12.0147 1 14.5 1C16.9853 1 19 3.0147 19 5.49995ZM15 3.49997C15 3.22383 14.7761 2.99998 14.5 2.99998C14.2239 2.99998 14 3.22383 14 3.49997V4.99995H12.5C12.2239 4.99995 12 5.22381 12 5.49995C12 5.77609 12.2239 5.99994 12.5 5.99994H14V7.49992C14 7.77606 14.2239 7.99992 14.5 7.99992C14.7761 7.99992 15 7.77606 15 7.49992V5.99994H16.5C16.7761 5.99994 17 5.77609 17 5.49995C17 5.22381 16.7761 4.99995 16.5 4.99995H15V3.49997ZM9 1.99999C9.399 1.99999 9.7889 2.03894 10.1661 2.11323C9.9427 2.39871 9.74689 2.70683 9.58268 3.03357C9.39154 3.01138 9.1971 2.99998 9 2.99998C6.23858 2.99998 4 5.23853 4 7.99992C4 10.7613 6.23858 12.9999 9 12.9999C10.7124 12.9999 12.2237 12.1391 13.1249 10.8266C13.4718 10.9159 13.832 10.9722 14.2019 10.9919C13.8816 11.5476 13.4748 12.0471 13 12.4721V17.5C13 17.6782 12.9051 17.843 12.751 17.9325C12.5968 18.0219 12.4067 18.0226 12.2519 17.9341L9 16.0759L5.74807 17.9341C5.59332 18.0226 5.40319 18.0219 5.24904 17.9325C5.09488 17.843 5 17.6782 5 17.5V12.4721C3.7725 11.3735 3 9.7769 3 7.99992C3 4.68625 5.68629 1.99999 9 1.99999ZM9 13.9998C7.90714 13.9998 6.88252 13.7077 6 13.1972V16.6384L8.75193 15.0659C8.90565 14.9781 9.09435 14.9781 9.24807 15.0659L12 16.6384V13.1972C11.1175 13.7077 10.0929 13.9998 9 13.9998Z" fill="#212121"/>
</svg>
