<svg width="20" height="20" viewBox="0 0 20 20" fill="none" xmlns="http://www.w3.org/2000/svg">
<path d="M10.052 2.29418C10.3913 1.31688 11.6841 0.866611 12.4829 1.70374C12.6455 1.87416 12.8081 2.05832 12.9176 2.22254C13.2379 2.70305 13.3725 3.33584 13.4218 3.9522C13.4721 4.58034 13.438 5.25446 13.3738 5.86473C13.3093 6.47735 13.2129 7.03948 13.1328 7.44766C13.1294 7.46535 13.1259 7.48277 13.1225 7.49989H14.006C15.8777 7.49989 17.2924 9.19503 16.9576 11.0365L16.2737 14.7983C15.8017 17.3942 13.2078 19.0289 10.6622 18.3347L5.06251 16.8075C4.14894 16.5583 3.45455 15.8144 3.26885 14.8859L2.91581 13.1207C2.63809 11.7321 3.69991 10.5623 4.82905 10.116C5.15163 9.9885 5.44337 9.82668 5.66974 9.62586C7.37583 8.11234 7.99442 6.90276 9.05406 4.77684C9.4084 4.06594 9.77205 3.10043 10.052 2.29418ZM12.0165 7.87851L12.0169 7.87696L12.0187 7.86962L12.0262 7.83852C12.0328 7.81068 12.0426 7.76892 12.0549 7.71482C12.0793 7.60658 12.1135 7.44919 12.1515 7.25525C12.2277 6.86655 12.3188 6.33493 12.3793 5.76005C12.4401 5.18282 12.4685 4.57569 12.425 4.03195C12.3806 3.47644 12.2652 3.04673 12.0855 2.77724C12.0264 2.68859 11.9138 2.55593 11.7594 2.3941C11.5605 2.18565 11.1314 2.23417 10.9967 2.62217C10.7141 3.43598 10.3334 4.45183 9.94904 5.22294C8.88216 7.36338 8.19326 8.72396 6.33336 10.3739C5.99304 10.6758 5.58878 10.891 5.19665 11.046C4.31631 11.394 3.75035 12.1944 3.89639 12.9246L4.24943 14.6898C4.36085 15.2469 4.77748 15.6932 5.32562 15.8427L10.9254 17.3699C12.9052 17.9099 14.9227 16.6384 15.2898 14.6194L15.9738 10.8577C16.197 9.62998 15.2538 8.49989 14.006 8.49989H12.5015C12.3476 8.49989 12.2022 8.42895 12.1074 8.3076C12.0127 8.18627 11.9792 8.02785 12.0165 7.87851C12.0165 7.87847 12.0165 7.87855 12.0165 7.87851Z" fill="#212121"/>
</svg>
