<svg width="32" height="32" viewBox="0 0 32 32" fill="none" xmlns="http://www.w3.org/2000/svg">
<path d="M25 15C25.5523 15 26 15.4477 26 16C26 21.1857 22.0528 25.4499 16.999 25.9512C16.9998 25.9673 17 25.9836 17 26V29C17 29.5523 16.5523 30 16 30C15.4477 30 15 29.5523 15 29V26C15 25.9836 15.0002 25.9673 15.001 25.9512C9.94716 25.4499 6 21.1857 6 16C6 15.4477 6.44772 15 7 15C7.55228 15 8 15.4477 8 16C8 20.4183 11.5817 24 16 24C20.4183 24 24 20.4183 24 16C24 15.4477 24.4477 15 25 15ZM16 2C17.0595 2 18.0541 2.27591 18.918 2.75781C18.8284 2.80473 18.7363 2.84795 18.6396 2.87988L17 3.43945C16.5647 3.58076 16.1854 3.85657 15.916 4.22656C15.6467 4.59652 15.5008 5.04238 15.5 5.5C15.5097 5.94109 15.6541 6.36838 15.9131 6.72559C16.1722 7.08293 16.5338 7.35366 16.9502 7.5L18.6602 8.05957C18.9502 8.15318 19.2138 8.31418 19.4297 8.5293C19.4297 8.56568 19.4707 8.60202 19.5137 8.64062C19.5415 8.66564 19.5702 8.69224 19.5898 8.71973C19.7279 8.89237 19.8336 9.08909 19.9004 9.2998L20.4502 11C20.5567 11.32 20.7366 11.6106 20.9756 11.8486C21.2149 12.0868 21.5072 12.2661 21.8281 12.3711C21.8846 12.3896 21.9424 12.4023 22 12.416V16C22 19.3137 19.3137 22 16 22C12.6863 22 10 19.3137 10 16V8C10 4.68629 12.6863 2 16 2ZM27.9814 10C28.0565 10 28.1301 10.0231 28.1914 10.0664C28.2527 10.1097 28.2992 10.1715 28.3242 10.2422L28.6221 11.1602C28.7149 11.4391 28.8721 11.6925 29.0801 11.9004C29.2881 12.1082 29.5421 12.2647 29.8213 12.3574L30.7393 12.6562L30.7578 12.6602C30.8286 12.6851 30.8902 12.7317 30.9336 12.793C30.9768 12.8541 30.9999 12.9271 31 13.002C31 13.077 30.977 13.1507 30.9336 13.2119C30.8902 13.2731 30.8286 13.3188 30.7578 13.3438L29.8389 13.6426C29.5599 13.7353 29.3066 13.8919 29.0986 14.0996C28.8906 14.3074 28.7335 14.5609 28.6406 14.8398L28.3418 15.7578C28.3168 15.8285 28.2712 15.8903 28.21 15.9336C28.1487 15.9769 28.0751 16 28 16C27.9249 16 27.8513 15.9769 27.79 15.9336C27.7288 15.8903 27.6832 15.8285 27.6582 15.7578L27.3594 14.8398C27.2671 14.5601 27.1104 14.3053 26.9023 14.0967C26.6943 13.8881 26.4397 13.7309 26.1602 13.6377L25.2422 13.3398C25.1714 13.3149 25.1098 13.2683 25.0664 13.207C25.0232 13.1459 25.0001 13.0729 25 12.998C25 12.923 25.023 12.8493 25.0664 12.7881C25.1098 12.7269 25.1714 12.6812 25.2422 12.6562L26.1602 12.3574C26.436 12.2622 26.6868 12.1043 26.8916 11.8965C27.0961 11.6889 27.2499 11.4369 27.3408 11.1602L27.6396 10.2422C27.6646 10.1714 27.7112 10.1097 27.7725 10.0664C27.8336 10.0233 27.9066 10 27.9814 10ZM22.4668 0C22.6043 9.82187e-05 22.7384 0.0427226 22.8506 0.12207C22.9629 0.201486 23.048 0.31372 23.0938 0.443359L23.6406 2.12598C23.8108 2.63737 24.0982 3.10227 24.4795 3.4834C24.861 3.86459 25.3269 4.15221 25.8389 4.32227L27.5225 4.86914L27.5557 4.87695C27.6854 4.9227 27.7984 5.00788 27.8779 5.12012C27.9574 5.2323 27.9999 5.36649 28 5.50391C28 5.64129 27.9573 5.7755 27.8779 5.8877C27.7984 5.99996 27.6855 6.08511 27.5557 6.13086L25.8721 6.67773C25.3601 6.84779 24.8952 7.13541 24.5137 7.5166C24.1322 7.89777 23.845 8.36251 23.6748 8.87402L23.127 10.5566C23.1221 10.5705 23.1171 10.5842 23.1113 10.5977C23.0631 10.7099 22.984 10.8071 22.8838 10.8779C22.7715 10.9572 22.6375 11 22.5 11C22.3625 11 22.2285 10.9572 22.1162 10.8779C22.0039 10.7985 21.9189 10.6862 21.873 10.5566L21.3252 8.87402C21.2015 8.49873 21.015 8.1478 20.7744 7.83691C20.6862 7.72294 20.5906 7.61436 20.4883 7.51172C20.1068 7.12905 19.6407 6.84083 19.1279 6.66992L17.4443 6.12305C17.3146 6.0773 17.2016 5.99212 17.1221 5.87988C17.0426 5.7677 17.0001 5.63351 17 5.49609C17 5.35871 17.0427 5.22449 17.1221 5.1123C17.2016 5.00004 17.3145 4.91489 17.4443 4.86914L19.1279 4.32227C19.6336 4.14778 20.0924 3.85847 20.4678 3.47754C20.8327 3.10714 21.109 2.65939 21.2773 2.16797L21.292 2.12598L21.8389 0.443359C21.8847 0.313723 21.9697 0.201487 22.082 0.12207C22.1944 0.042631 22.3292 0 22.4668 0Z" fill="#212121"/>
</svg>
