<svg width="16" height="16" viewBox="0 0 16 16" fill="none" xmlns="http://www.w3.org/2000/svg">
<g clip-path="url(#clip0_37675_34871)">
<path d="M6.85355 0.146447C6.65829 -0.0488155 6.34171 -0.0488155 6.14645 0.146447C5.95118 0.341709 5.95118 0.658291 6.14645 0.853553L7.29289 2H5C3.34315 2 2 3.34315 2 5V7.29289L0.853553 6.14645C0.658291 5.95118 0.341709 5.95118 0.146447 6.14645C-0.0488156 6.34171 -0.0488156 6.65829 0.146447 6.85355L2.14645 8.85355C2.34171 9.04882 2.65829 9.04882 2.85355 8.85355L4.85355 6.85355C5.04882 6.65829 5.04882 6.34171 4.85355 6.14645C4.65829 5.95118 4.34171 5.95118 4.14645 6.14645L3 7.29289V5C3 3.89543 3.89543 3 5 3H7.29289L6.14645 4.14645C5.95118 4.34171 5.95118 4.65829 6.14645 4.85355C6.34171 5.04882 6.65829 5.04882 6.85355 4.85355L8.85355 2.85355C9.04882 2.65829 9.04882 2.34171 8.85355 2.14645L6.85355 0.146447ZM2 11.5V9.91458C2.32293 10.0285 2.67707 10.0285 3 9.91458V10H5V8.12132L5.56066 7.56066C5.85355 7.26777 6 6.88388 6 6.5V10L10 10V6L6.50042 6C6.88416 5.99989 7.26787 5.85345 7.56066 5.56066L8.12132 5L10 5V3H9.91458C10.0285 2.67707 10.0285 2.32293 9.91458 2H11.5C12.8807 2 14 3.11929 14 4.5V11.5C14 12.8807 12.8807 14 11.5 14H4.5C3.11929 14 2 12.8807 2 11.5ZM6 13H10V11L6 11V13ZM5 11H3V11.5C3 12.3284 3.67157 13 4.5 13H5V11ZM13 6H11V10H13V6ZM13 11H11V13H11.5C12.3284 13 13 12.3284 13 11.5V11ZM13 5V4.5C13 3.67157 12.3284 3 11.5 3H11V5H13Z" fill="#212121"/>
</g>
<defs>
<clipPath id="clip0_37675_34871">
<rect width="16" height="16" fill="white"/>
</clipPath>
</defs>
</svg>
