<svg width="24" height="24" viewBox="0 0 24 24" fill="none" xmlns="http://www.w3.org/2000/svg">
<path d="M20.9984 6.24971C20.9984 4.45495 19.5435 3 17.7487 3H6.24971C4.45495 3 3 4.45495 3 6.24971V17.7487C3 19.5435 4.45495 20.9984 6.24971 20.9984H11.1644L11.5202 19.5754C11.5266 19.5497 11.5333 19.5241 11.5402 19.4985H6.24971C5.2833 19.4985 4.49987 18.7151 4.49987 17.7487V8.49952H19.4985V11.2317C19.9774 11.0412 20.492 10.9678 20.9984 11.0115V6.24971ZM6.24971 4.49987H17.7487C18.7151 4.49987 19.4985 5.2833 19.4985 6.24971V6.99965H4.49987V6.24971C4.49987 5.2833 5.2833 4.49987 6.24971 4.49987ZM19.0984 12.6686L13.1965 18.5705C12.8524 18.9146 12.6083 19.3458 12.4903 19.8179L12.0327 21.6484C11.8336 22.4445 12.5547 23.1656 13.3508 22.9666L15.1813 22.5089C15.6534 22.3909 16.0846 22.1468 16.4287 21.8027L22.3306 15.9008C23.2231 15.0082 23.2231 13.5611 22.3306 12.6686C21.4381 11.7761 19.991 11.7761 19.0984 12.6686Z" fill="#212121"/>
</svg>
