<svg width="25" height="24" viewBox="0 0 25 24" fill="none" xmlns="http://www.w3.org/2000/svg">
<path d="M17.0734 2.33115C16.2345 2.02113 15.3124 2.02113 14.4735 2.33115L10.1668 3.92273C9.47969 4.17666 9.02344 4.83169 9.02344 5.56423V8.35743C9.82415 8.2294 10.6498 8.30772 11.42 8.59237L15.7267 10.184C16.2409 10.374 16.6728 10.7069 16.9842 11.1279C17.4009 11.044 17.832 11 18.2734 11C19.8983 11 21.3839 11.5962 22.5234 12.5818V5.56422C22.5234 4.83169 22.0672 4.17666 21.3801 3.92273L17.0734 2.33115ZM12.5426 7.20905C12.1512 7.07373 11.9435 6.64667 12.0788 6.25518C12.2141 5.8637 12.6412 5.65604 13.0327 5.79136L15.6912 6.71031C15.7442 6.72863 15.8018 6.7286 15.8548 6.71025L18.5052 5.79185C18.8966 5.65624 19.3238 5.86357 19.4594 6.25496C19.5951 6.64634 19.3877 7.07356 18.9963 7.20918L16.3459 8.12758C15.9752 8.25604 15.572 8.25619 15.2012 8.12801L12.5426 7.20905ZM15.3801 11.122C15.5811 11.1963 15.7624 11.3049 15.9183 11.4398C14.8636 11.85 13.9425 12.5275 13.2381 13.3893C13.0424 13.2223 12.7659 13.1605 12.5052 13.2508L9.77302 14.1976L7.03269 13.2503C6.6412 13.115 6.21414 13.3227 6.07882 13.7142C5.9435 14.1057 6.15116 14.5327 6.54265 14.668L9.02332 15.5255V18.2243C9.02332 18.6386 9.35911 18.9743 9.77332 18.9743C10.1875 18.9743 10.5233 18.6386 10.5233 18.2243V15.5251L12.312 14.9053C11.9656 15.7001 11.7734 16.5776 11.7734 17.5C11.7734 18.799 12.1545 20.0091 12.811 21.0244L11.0734 21.6665C10.2345 21.9766 9.31241 21.9766 8.47352 21.6665L4.16681 20.075C3.47969 19.821 3.02344 19.166 3.02344 18.4335V12.7634C3.02344 12.0309 3.47969 11.3759 4.16681 11.122L8.47352 9.53037C9.3124 9.22035 10.2345 9.22035 11.0734 9.53037L15.3801 11.122ZM23.7734 17.5C23.7734 20.5376 21.311 23 18.2734 23C15.2359 23 12.7734 20.5376 12.7734 17.5C12.7734 14.4624 15.2359 12 18.2734 12C21.311 12 23.7734 14.4624 23.7734 17.5ZM21.2734 18C21.5496 18 21.7734 17.7761 21.7734 17.5C21.7734 17.2239 21.5496 17 21.2734 17H16.4805L18.127 15.3536C18.3223 15.1583 18.3223 14.8417 18.127 14.6464C17.9317 14.4512 17.6151 14.4512 17.4199 14.6464L14.9199 17.1464C14.7246 17.3417 14.7246 17.6583 14.9199 17.8536L17.4199 20.3536C17.6151 20.5488 17.9317 20.5488 18.127 20.3536C18.3223 20.1583 18.3223 19.8417 18.127 19.6464L16.4805 18H21.2734Z" fill="#212121"/>
</svg>
