<?xml version="1.0" encoding="UTF-8"?>
<svg width="24px" height="24px" viewBox="0 0 24 24" version="1.1" xmlns="http://www.w3.org/2000/svg" xmlns:xlink="http://www.w3.org/1999/xlink">
    <!-- Generator: Sketch 59.1 (86144) - https://sketch.com -->
    <title>ic_fluent_share_screen_24_filled</title>
    <desc>Created with Sketch.</desc>
    <g id="ðŸ”-Product-Icons" stroke="none" stroke-width="1" fill="none" fill-rule="evenodd">
        <g id="ic_fluent_share_screen_24_filled" fill="#212121" fill-rule="nonzero">
            <path d="M11.903586,6.00427565 L11.9426607,6.00142762 L11.9426607,6.00142762 L12.0507555,6.00142762 L12.0507555,6.00142762 L12.1863401,6.01813318 L12.1863401,6.01813318 L12.2905847,6.04409198 L12.2905847,6.04409198 C12.4339336,6.08663345 12.563501,6.16110844 12.671521,6.25901565 L17.707615,11.2889236 C18.0984609,11.6791261 18.0989824,12.3122908 17.70878,12.7031367 C17.3485931,13.0639175 16.7813851,13.0921143 16.3888428,12.7874127 L16.2945669,12.7043017 L13,9.415 L13,20.0040082 C13,20.5168441 12.6139598,20.9395154 12.1166211,20.9972805 L12,21.0040082 C11.4871642,21.0040082 11.0644928,20.617968 11.0067277,20.1206293 L11,20.0040082 L11,9.409 L7.70713322,12.703693 C7.34666273,13.0641905 6.77943271,13.0919412 6.3871301,12.786931 L6.29291965,12.7037459 C5.93242222,12.3432754 5.90467148,11.7760454 6.2096817,11.3837428 L6.29286678,11.2895323 L11.2891059,6.29291965 C11.3686099,6.21340967 11.4581742,6.15008486 11.553703,6.10294698 L11.5631556,6.10020991 L11.5631556,6.10020991 L11.6039078,6.08011878 L11.6039078,6.08011878 L11.711728,6.04127984 L11.711728,6.04127984 L11.8221962,6.01526478 L11.8221962,6.01526478 L11.903586,6.00427565 Z M4.25,3 L19.75166,3 C20.942524,3 21.9173049,3.92516159 21.9964692,5.09595119 L22.00166,5.25 L22.00166,16.754591 C22.00166,17.945455 21.0764984,18.9202359 19.9057088,18.9994002 L19.75166,19.004591 L15.2514915,19.004591 C14.837278,19.004591 14.5014915,18.6688046 14.5014915,18.254591 C14.5014915,17.8748952 14.7836454,17.5611 15.149721,17.5114376 L15.2514915,17.504591 L19.75166,17.504591 C20.1313558,17.504591 20.445151,17.2224371 20.4948134,16.8563616 L20.50166,16.754591 L20.50166,5.25 C20.50166,4.87030423 20.2195062,4.55650904 19.8534306,4.50684662 L19.75166,4.5 L4.25,4.5 C3.87030423,4.5 3.55650904,4.78215388 3.50684662,5.14822944 L3.5,5.25 L3.5,16.754591 C3.5,17.1342868 3.78215388,17.448082 4.14822944,17.4977444 L4.25,17.504591 L8.75,17.504591 C9.16421356,17.504591 9.5,17.8403774 9.5,18.254591 C9.5,18.6342868 9.21784612,18.948082 8.85177056,18.9977444 L8.75,19.004591 L4.25,19.004591 C3.05913601,19.004591 2.08435508,18.0794294 2.00519081,16.9086398 L2,16.754591 L2,5.25 C2,4.05913601 2.92516159,3.08435508 4.09595119,3.00519081 L4.25,3 L19.75166,3 L4.25,3 Z" id="ðŸŽ¨-Color"></path>
        </g>
    </g>
</svg>