<svg width="32" height="32" viewBox="0 0 32 32" fill="none" xmlns="http://www.w3.org/2000/svg">
<path d="M13.8548 18L14.6881 14H18.1452L17.3119 18H13.8548ZM7.5 3C5.01472 3 3 5.01472 3 7.5V24.5C3 26.9853 5.01472 29 7.5 29H24.5C26.9853 29 29 26.9853 29 24.5V7.5C29 5.01472 26.9853 3 24.5 3H7.5ZM15.479 10.204L15.1048 12H18.5619L19.021 9.79605C19.1337 9.25537 19.6633 8.90838 20.204 9.02102C20.7446 9.13366 21.0916 9.66328 20.979 10.204L20.6048 12H22C22.5523 12 23 12.4477 23 13C23 13.5523 22.5523 14 22 14H20.1881L19.3548 18H21C21.5523 18 22 18.4477 22 19C22 19.5523 21.5523 20 21 20H18.9381L18.479 22.204C18.3663 22.7446 17.8367 23.0916 17.296 22.979C16.7554 22.8663 16.4084 22.3367 16.521 21.796L16.8952 20H13.4381L12.979 22.204C12.8663 22.7446 12.3367 23.0916 11.796 22.979C11.2554 22.8663 10.9084 22.3367 11.021 21.796L11.3952 20H10C9.44772 20 9 19.5523 9 19C9 18.4477 9.44772 18 10 18H11.8119L12.6452 14H11C10.4477 14 10 13.5523 10 13C10 12.4477 10.4477 12 11 12H13.0619L13.521 9.79605C13.6337 9.25537 14.1633 8.90838 14.704 9.02102C15.2446 9.13366 15.5916 9.66328 15.479 10.204Z" fill="#212121"/>
</svg>
