<svg width="20" height="20" viewBox="0 0 20 20" fill="none" xmlns="http://www.w3.org/2000/svg">
<path d="M10 2C14.4183 2 18 5.58172 18 10C17.9999 14.4182 14.4182 18 10 18C8.72679 18 7.49594 17.7012 6.38672 17.1387L6.26562 17.0752L2.62109 17.9854C2.31143 18.0626 2.02607 17.8368 2.00098 17.5439V17.4619L2.01465 17.3789L2.9248 13.7344L2.86133 13.6152C2.28806 12.4856 2.0284 11.2565 2 10C2 5.58172 5.58172 2 10 2ZM10 3C6.13401 3 3 6.13401 3 10C3.00004 11.217 3.31061 12.3878 3.89355 13.4248C3.94043 13.5083 3.96221 13.603 3.95703 13.6973L3.94238 13.791L3.18652 16.8115L6.21094 16.0576C6.27274 16.0422 6.33641 16.0396 6.39844 16.0479L6.49023 16.0693L6.57715 16.1074C7.61371 16.6897 8.78377 17 10 17C13.8659 17 16.9999 13.8659 17 10C17 6.13401 13.866 3 10 3ZM12.5 10C13.3284 10 14 10.6716 14 11.5C14 12.6161 13.5413 13.5107 12.7881 14.1152C12.0468 14.7102 11.053 15 10 15C8.94695 15 7.95318 14.7102 7.21191 14.1152C6.45874 13.5107 6 12.6161 6 11.5C6 10.6716 6.67158 10 7.5 10H12.5ZM10 5C11.1046 5 12 5.89543 12 7C12 8.10457 11.1046 9 10 9C8.89543 9 8 8.10457 8 7C8 5.89543 8.89543 5 10 5Z" fill="#212121"/>
</svg>
