<svg width="28" height="28" viewBox="0 0 28 28" fill="none" xmlns="http://www.w3.org/2000/svg">
<path d="M4.00391 7.75C4.00391 6.23122 5.23512 5 6.75391 5H21.2539C22.7727 5 24.0039 6.23122 24.0039 7.75V16.25C24.0039 17.7688 22.7727 19 21.2539 19H6.75391C5.23512 19 4.00391 17.7688 4.00391 16.25V7.75ZM2.00391 21.25C2.00391 20.8358 2.33969 20.5 2.75391 20.5H25.2505C25.6647 20.5 26.0005 20.8358 26.0005 21.25C26.0005 21.6642 25.6647 22 25.2505 22H2.75391C2.33969 22 2.00391 21.6642 2.00391 21.25Z" fill="#212121"/>
</svg>
