<svg width="20" height="20" viewBox="0 0 20 20" fill="none" xmlns="http://www.w3.org/2000/svg">
<path d="M14.5 4H16.5C16.7761 4 17 4.22386 17 4.5V6.5C17 6.77614 16.7761 7 16.5 7H14.5V4ZM14.5 8H16.5C16.7761 8 17 8.22386 17 8.5V10.5C17 10.7761 16.7761 11 16.5 11H14.5V8ZM14.5 12H16.5C16.7761 12 17 12.2239 17 12.5V14.5C17 14.7761 16.7761 15 16.5 15H14.5V12Z" fill="url(#paint0_linear_72095_8844)"/>
<path d="M5 2C3.89543 2 3 2.89543 3 4V16C3 17.1046 3.89543 18 5 18H13C14.1046 18 15 17.1046 15 16V4C15 2.89543 14.1046 2 13 2H5Z" fill="url(#paint1_linear_72095_8844)"/>
<path d="M5 2C3.89543 2 3 2.89543 3 4V16C3 17.1046 3.89543 18 5 18H13C14.1046 18 15 17.1046 15 16V4C15 2.89543 14.1046 2 13 2H5Z" fill="url(#paint2_radial_72095_8844)" fill-opacity="0.5"/>
<path d="M5.5 5C5.22386 5 5 5.22386 5 5.5V6.5C5 6.77614 5.22386 7 5.5 7H12.5C12.7761 7 13 6.77614 13 6.5V5.5C13 5.22386 12.7761 5 12.5 5H5.5Z" fill="url(#paint3_linear_72095_8844)"/>
<path d="M5 2C3.89543 2 3 2.89543 3 4V16C3 17.1046 3.89543 18 5 18H13C14.1046 18 15 17.1046 15 16V4C15 2.89543 14.1046 2 13 2H5Z" fill="url(#paint4_radial_72095_8844)"/>
<path d="M5 2C3.89543 2 3 2.89543 3 4V16C3 17.1046 3.89543 18 5 18H13C14.1046 18 15 17.1046 15 16V4C15 2.89543 14.1046 2 13 2H5Z" fill="url(#paint5_radial_72095_8844)"/>
<path d="M10 14.5C10 16.9853 7.98528 19 5.5 19C3.01472 19 1 16.9853 1 14.5C1 12.0147 3.01472 10 5.5 10C7.98528 10 10 12.0147 10 14.5Z" fill="url(#paint6_linear_72095_8844)"/>
<path d="M5.49993 16.3803C5.15502 16.3803 4.87542 16.6599 4.87542 17.0048C4.87542 17.3497 5.15502 17.6293 5.49993 17.6293C5.84484 17.6293 6.12444 17.3497 6.12444 17.0048C6.12444 16.6599 5.84484 16.3803 5.49993 16.3803ZM5.49997 11.5034C4.45202 11.5034 3.63568 12.3208 3.64659 13.4577C3.64924 13.7338 3.87524 13.9555 4.15137 13.9529C4.4275 13.9502 4.6492 13.7242 4.64655 13.4481C4.64099 12.8691 5.0062 12.5034 5.49997 12.5034C5.97235 12.5034 6.35337 12.8953 6.35337 13.4529C6.35337 13.6547 6.28218 13.7679 5.99369 13.9968L5.7157 14.2118C5.20993 14.6161 4.99995 14.9293 4.99993 15.5003C4.99992 15.7764 5.22376 16.0003 5.49991 16.0003C5.74537 16.0003 5.94952 15.8234 5.99187 15.5902L6.0034 15.434C6.02024 15.2863 6.10295 15.1804 6.34869 14.9858L6.62574 14.7715C7.13905 14.3606 7.35337 14.0387 7.35337 13.4529C7.35337 12.3492 6.53102 11.5034 5.49997 11.5034Z" fill="url(#paint7_linear_72095_8844)"/>
<defs>
<linearGradient id="paint0_linear_72095_8844" x1="14.5" y1="-2.5" x2="23.0548" y2="17.7904" gradientUnits="userSpaceOnUse">
<stop stop-color="#D373FC"/>
<stop offset="1" stop-color="#2052CB"/>
</linearGradient>
<linearGradient id="paint1_linear_72095_8844" x1="1.5" y1="2" x2="0.604747" y2="19.9052" gradientUnits="userSpaceOnUse">
<stop stop-color="#E587F2"/>
<stop offset="1" stop-color="#816CDE"/>
</linearGradient>
<radialGradient id="paint2_radial_72095_8844" cx="0" cy="0" r="1" gradientUnits="userSpaceOnUse" gradientTransform="translate(8.50001 1) rotate(75.3777) scale(18.3207 81.0671)">
<stop offset="0.5" stop-color="#DD3CE2" stop-opacity="0"/>
<stop offset="1" stop-color="#DD3CE2"/>
</radialGradient>
<linearGradient id="paint3_linear_72095_8844" x1="6.5" y1="5" x2="11.2483" y2="10.1234" gradientUnits="userSpaceOnUse">
<stop stop-color="#FDD3FF"/>
<stop offset="1" stop-color="#F3D8FF"/>
</linearGradient>
<radialGradient id="paint4_radial_72095_8844" cx="0" cy="0" r="1" gradientUnits="userSpaceOnUse" gradientTransform="translate(7 13.75) rotate(23.4876) scale(13.0159 6.17834)">
<stop stop-color="#DC8AFD"/>
<stop offset="1" stop-color="#DC8AFD" stop-opacity="0"/>
</radialGradient>
<radialGradient id="paint5_radial_72095_8844" cx="0" cy="0" r="1" gradientUnits="userSpaceOnUse" gradientTransform="translate(6.5 15.5625) rotate(0.744061) scale(4.81291 4.34498)">
<stop stop-color="#2052CB"/>
<stop offset="1" stop-color="#2052CB" stop-opacity="0"/>
</radialGradient>
<linearGradient id="paint6_linear_72095_8844" x1="1" y1="10" x2="10" y2="19" gradientUnits="userSpaceOnUse">
<stop stop-color="#0094F0"/>
<stop offset="1" stop-color="#2052CB"/>
</linearGradient>
<linearGradient id="paint7_linear_72095_8844" x1="3.97073" y1="11.611" x2="5.58812" y2="17.92" gradientUnits="userSpaceOnUse">
<stop stop-color="#FDFDFD"/>
<stop offset="1" stop-color="#CCEAFF"/>
</linearGradient>
</defs>
</svg>
