<svg width="48" height="48" viewBox="0 0 48 48" fill="none" xmlns="http://www.w3.org/2000/svg">
<path d="M37.75 22C41.2018 22 44 24.7982 44 28.25V37.75C44 41.2018 41.2018 44 37.75 44H22.25C18.7982 44 16 41.2018 16 37.75V28.25C16 24.7982 18.7982 22 22.25 22H37.75ZM30.6484 36.0684C30.2499 36.3103 29.7501 36.3103 29.3516 36.0684L18.5 29.4795V37.75C18.5 39.8211 20.1789 41.5 22.25 41.5H37.75C39.8211 41.5 41.5 39.8211 41.5 37.75V29.4795L30.6484 36.0684ZM32.75 4C36.2018 4 39 6.79822 39 10.25V20.0938C38.5924 20.0318 38.1749 20 37.75 20H36.5V10.25C36.5 8.17893 34.8211 6.5 32.75 6.5H10.25C8.17893 6.5 6.5 8.17893 6.5 10.25V32.75C6.5 34.8211 8.17893 36.5 10.25 36.5H14V37.75C14 38.1749 14.0318 38.5924 14.0938 39H10.25C6.79822 39 4 36.2018 4 32.75V10.25C4 6.79822 6.79822 4 10.25 4H32.75ZM22.25 24.5C20.7139 24.5 19.3941 25.4239 18.8145 26.7461L30 33.5371L41.1846 26.7461C40.6049 25.4241 39.286 24.5 37.75 24.5H22.25ZM30.75 15.5C31.4404 15.5 32 16.0596 32 16.75C32 17.4404 31.4404 18 30.75 18H17.25C16.5596 18 16 17.4404 16 16.75C16 16.0596 16.5596 15.5 17.25 15.5H30.75ZM30.75 10C31.4404 10 32 10.5596 32 11.25C32 11.9404 31.4404 12.5 30.75 12.5H12.25C11.5596 12.5 11 11.9404 11 11.25C11 10.5596 11.5596 10 12.25 10H30.75Z" fill="#212121"/>
</svg>
