<svg width="20" height="20" viewBox="0 0 20 20" fill="none" xmlns="http://www.w3.org/2000/svg">
<path d="M5.27265 5.97975L2.14645 2.85355C1.95118 2.65829 1.95118 2.34171 2.14645 2.14645C2.34171 1.95118 2.65829 1.95118 2.85355 2.14645L17.8536 17.1464C18.0488 17.3417 18.0488 17.6583 17.8536 17.8536C17.6583 18.0488 17.3417 18.0488 17.1464 17.8536L11.8577 12.5648L6.85429 17.6726C6.09991 18.4551 4.79514 17.7329 5.05904 16.6773L6.22876 11.9984H4.96148C4.25565 11.9984 3.74605 11.3228 3.93996 10.6442L5.27265 5.97975ZM11.1506 11.8577L6.08155 6.78865L4.90148 10.9189C4.8901 10.9587 4.92003 10.9984 4.96148 10.9984H6.86915C7.02312 10.9984 7.1685 11.0694 7.26325 11.1907C7.35801 11.3121 7.39156 11.4703 7.35422 11.6197L6.02919 16.9198C6.02527 16.9355 6.02557 16.9448 6.02599 16.949C6.02643 16.9534 6.02746 16.9568 6.02904 16.9601C6.03261 16.9676 6.04192 16.9798 6.05954 16.9896C6.07716 16.9993 6.09246 17.0007 6.10069 16.9997C6.10435 16.9993 6.10778 16.9984 6.11173 16.9964C6.11552 16.9945 6.12356 16.9898 6.13475 16.9782L6.13832 16.9745L11.1506 11.8577ZM14.8139 8.11787L12.5501 10.429L13.2572 11.1361L15.5308 8.81506L15.5344 8.81137C16.1752 8.1436 15.7143 7 14.7678 7H12.2041L13.4655 3.40582L13.468 3.39836C13.6974 2.71043 13.1853 2 12.4602 2H7.21109C6.73675 2 6.31988 2.31445 6.18956 2.77054L5.90113 3.78004L6.71004 4.58894L7.15109 3.04526C7.15874 3.01847 7.18323 3 7.21109 3H12.4602C12.5021 3 12.5319 3.04042 12.52 3.08022L11.027 7.33443C10.9733 7.48739 10.9971 7.65689 11.0908 7.78915C11.1846 7.9214 11.3366 8 11.4987 8H14.7678C14.7857 8 14.7936 8.00438 14.799 8.00817C14.8067 8.01365 14.8168 8.0246 14.824 8.04178C14.8313 8.05898 14.8324 8.07504 14.8306 8.0864C14.8293 8.09481 14.8261 8.10484 14.8139 8.11787Z" fill="#212121"/>
</svg>
