<svg width="21" height="20" viewBox="0 0 21 20" fill="none" xmlns="http://www.w3.org/2000/svg">
<path d="M10.916 12C11.7444 12 12.416 12.6716 12.416 13.5V14C12.416 15.9714 10.5565 18 7.41602 18C4.27553 18 2.41602 15.9714 2.41602 14V13.5C2.41602 12.6716 3.08759 12 3.91602 12H10.916ZM7.41602 5.5C8.9348 5.5 10.166 6.73122 10.166 8.25C10.166 9.76878 8.9348 11 7.41602 11C5.89723 11 4.66602 9.76878 4.66602 8.25C4.66602 6.73122 5.89723 5.5 7.41602 5.5ZM16.416 2C17.4704 2 18.3342 2.81588 18.4105 3.85074L18.416 4V6C18.416 7.05436 17.6001 7.91817 16.5653 7.99451L16.416 8H14.915L13.717 9.59979C13.1876 10.306 12.1125 10.0199 11.9403 9.22426L11.9226 9.11264L11.9168 9L11.916 7.935L11.8384 7.91532C11.113 7.69685 10.5612 7.07753 10.4406 6.3148L10.4215 6.14926L10.416 6V4C10.416 2.94564 11.2319 2.08183 12.2668 2.00549L12.416 2H16.416Z" fill="#212121"/>
</svg>
