<svg width="16" height="16" viewBox="0 0 16 16" fill="none" xmlns="http://www.w3.org/2000/svg">
<path d="M13.4403 2.56066C12.6927 1.81314 11.4808 1.81311 10.7332 2.5606L3.33829 9.95484C3.15725 10.1359 3.02085 10.3566 2.93989 10.5994L2.02567 13.3421C1.96578 13.5218 2.01254 13.7198 2.14646 13.8538C2.28038 13.9877 2.47846 14.0344 2.65813 13.9746L5.40087 13.0603C5.64368 12.9794 5.86432 12.843 6.04531 12.662L12.0003 6.70759L12.2626 6.96987C12.5555 7.26276 12.5555 7.73763 12.2626 8.03053L11.1465 9.14664C10.9512 9.34191 10.9512 9.65849 11.1465 9.85375C11.3417 10.049 11.6583 10.049 11.8536 9.85375L12.9697 8.73763C13.6531 8.05422 13.6531 6.94618 12.9697 6.26276L12.7074 6.00052L13.4402 5.26783C14.1878 4.52029 14.1878 3.30823 13.4403 2.56066ZM11.6616 5.63214C11.6565 5.63685 11.6514 5.64168 11.6465 5.64664C11.6415 5.65159 11.6367 5.65662 11.632 5.66172L5.33823 11.9549C5.26701 12.0261 5.18019 12.0798 5.08464 12.1116L3.29058 12.7096L3.88858 10.9157C3.92044 10.8201 3.97412 10.7332 4.04536 10.662L11.4403 3.26774C11.7973 2.91074 12.3761 2.91076 12.7331 3.26777C13.0902 3.6248 13.0902 4.20367 12.7331 4.56069L11.6616 5.63214Z" fill="#212121"/>
</svg>
