<svg width="32" height="32" viewBox="0 0 32 32" fill="none" xmlns="http://www.w3.org/2000/svg">
<path d="M3 7.5C3 5.01472 5.01472 3 7.5 3H24.5C26.9853 3 29 5.01472 29 7.5V16.2917C28.4003 15.7549 27.7281 15.2974 27 14.9355V7.5C27 6.11929 25.8807 5 24.5 5H7.5C6.11929 5 5 6.11929 5 7.5V24.5C5 25.8807 6.11929 27 7.5 27H14.9355C15.2974 27.7281 15.7549 28.4003 16.2917 29H7.5C5.01472 29 3 26.9853 3 24.5V7.5ZM23 30.5C27.1421 30.5 30.5 27.1421 30.5 23C30.5 18.8579 27.1421 15.5 23 15.5C18.8579 15.5 15.5 18.8579 15.5 23C15.5 27.1421 18.8579 30.5 23 30.5ZM24 18.25V22H27.75C28.1642 22 28.5 22.3358 28.5 22.75C28.5 23.1642 28.1642 23.5 27.75 23.5H24V27.25C24 27.6642 23.6642 28 23.25 28C22.8358 28 22.5 27.6642 22.5 27.25V23.5H18.75C18.3358 23.5 18 23.1642 18 22.75C18 22.3358 18.3358 22 18.75 22H22.5V18.25C22.5 17.8358 22.8358 17.5 23.25 17.5C23.6642 17.5 24 17.8358 24 18.25Z" fill="#212121"/>
</svg>
