<svg width="16" height="16" viewBox="0 0 16 16" fill="none" xmlns="http://www.w3.org/2000/svg">
<path d="M4.49996 2C4.77609 2.00002 4.99996 2.22387 4.99996 2.5V12.293L6.14645 11.1465C6.34171 10.9512 6.65823 10.9512 6.85348 11.1465C7.04872 11.3418 7.04872 11.6583 6.85348 11.8535L4.85348 13.8535C4.65822 14.0488 4.34171 14.0488 4.14645 13.8535L2.14645 11.8535C1.95118 11.6583 1.95118 11.3418 2.14645 11.1465C2.34171 10.9512 2.65822 10.9512 2.85348 11.1465L3.99996 12.293V2.5C3.99996 2.22386 4.22382 2 4.49996 2ZM10.5 9.50001C10.7761 9.50003 11 9.72388 11 10V12.293L12.1465 11.1465C12.3417 10.9512 12.6582 10.9512 12.8535 11.1465C13.0487 11.3418 13.0487 11.6583 12.8535 11.8535L10.8535 13.8535C10.6582 14.0488 10.3417 14.0488 10.1465 13.8535L8.14645 11.8535C7.95119 11.6583 7.95119 11.3418 8.14645 11.1465C8.34171 10.9512 8.65823 10.9512 8.85348 11.1465L9.99997 12.293V10C9.99997 9.72386 10.2238 9.50001 10.5 9.50001ZM10.5 2C10.7068 2.00002 10.8925 2.1273 10.9668 2.32031L13.4668 8.82032C13.5659 9.078 13.4373 9.36762 13.1797 9.4668C12.922 9.56591 12.6324 9.43733 12.5332 9.17969L11.6953 7H9.30465L8.46676 9.17969C8.36759 9.43733 8.07796 9.56589 7.82028 9.4668C7.56263 9.36763 7.43406 9.07801 7.53317 8.82032L10.0332 2.32031L10.0664 2.25098C10.1545 2.09743 10.3191 2 10.5 2ZM9.68942 6H11.3105L10.5 3.89258L9.68942 6Z" fill="#212121"/>
</svg>
