<svg width="24" height="24" viewBox="0 0 24 24" fill="none" xmlns="http://www.w3.org/2000/svg">
<path d="M12 1.99902C17.5237 1.99902 22.0015 6.47687 22.0015 12.0006C22.0015 17.5243 17.5237 22.0021 12 22.0021C6.47626 22.0021 1.99841 17.5243 1.99841 12.0006C1.99841 6.47687 6.47626 1.99902 12 1.99902ZM14.9389 16.5003H9.06106C9.7131 18.9144 10.8465 20.5021 12 20.5021C13.1535 20.5021 14.2868 18.9144 14.9389 16.5003ZM7.50827 16.5009L4.78579 16.5007C5.74413 18.0338 7.17757 19.2394 8.87996 19.9114C8.35768 19.0915 7.92669 18.0653 7.60969 16.8959L7.50827 16.5009ZM19.2141 16.5007L16.4917 16.5009C16.1679 17.8346 15.7003 19.0004 15.1189 19.9114C16.7159 19.2814 18.0756 18.1824 19.0289 16.7843L19.2141 16.5007ZM7.09339 9.99992H3.73578L3.73102 10.0171C3.57894 10.6535 3.49841 11.3176 3.49841 12.0006C3.49841 13.0567 3.691 14.0679 4.04298 15.0009L7.21614 15.0005C7.07384 14.0514 6.99841 13.0432 6.99841 12.0006C6.99841 11.3166 7.03088 10.6474 7.09339 9.99992ZM15.3969 9.99999H8.60304C8.53501 10.6403 8.49841 11.31 8.49841 12.0006C8.49841 13.0601 8.58456 14.0704 8.73815 15.0007H15.2618C15.4154 14.0704 15.5015 13.0601 15.5015 12.0006C15.5015 11.31 15.4649 10.6403 15.3969 9.99999ZM20.2646 9.99909L16.9065 9.99994C16.9691 10.6474 17.0015 11.3166 17.0015 12.0006C17.0015 13.0432 16.9261 14.0514 16.7838 15.0005L19.9569 15.0009C20.3089 14.0679 20.5015 13.0567 20.5015 12.0006C20.5015 11.3112 20.4195 10.6409 20.2646 9.99909ZM8.88101 4.08973L8.85811 4.09844C6.81079 4.91315 5.15478 6.50046 4.25011 8.50033L7.29823 8.50069C7.61159 6.7479 8.15843 5.22198 8.88101 4.08973ZM12 3.49902L11.8843 3.50432C10.6189 3.62008 9.39639 5.62205 8.82868 8.50027H15.1713C14.6051 5.63011 13.3879 3.63131 12.1263 3.50534L12 3.49902ZM15.12 4.08979L15.2268 4.26388C15.896 5.37635 16.4041 6.83623 16.7017 8.50069L19.7498 8.50033C18.8852 6.58892 17.3342 5.05439 15.4112 4.21106L15.12 4.08979Z" fill="#212121"/>
</svg>
