<svg width="32" height="32" viewBox="0 0 32 32" fill="none" xmlns="http://www.w3.org/2000/svg">
<path d="M11 16C11 14.6074 11.0779 13.2657 11.2219 12H20.7781C20.9221 13.2657 21 14.6074 21 16C21 17.3926 20.9221 18.7343 20.7781 20H11.2219C11.0779 18.7343 11 17.3926 11 16ZM9.20981 20C9.07254 18.7196 9 17.3786 9 16C9 14.6214 9.07253 13.2804 9.2098 12H2.57976C2.20255 13.2674 2 14.6101 2 16C2 17.39 2.20255 18.7326 2.57976 20H9.20981ZM3.34726 22H9.48459C9.79887 23.8596 10.2564 25.5469 10.8289 26.978C11.1976 27.8997 11.6221 28.7358 12.1012 29.4499C8.23033 28.3298 5.04983 25.584 3.34726 22ZM11.5149 22H20.4851C20.1955 23.5993 19.7954 25.0322 19.3142 26.2352C18.7992 27.5227 18.2109 28.4975 17.6089 29.1341C17.0089 29.7686 16.4649 30 16 30C15.5351 30 14.9911 29.7686 14.3911 29.1341C13.7891 28.4975 13.2008 27.5227 12.6858 26.2352C12.2046 25.0322 11.8045 23.5993 11.5149 22ZM22.5154 22C22.2011 23.8596 21.7436 25.5469 21.1711 26.978C20.8024 27.8997 20.3779 28.7358 19.8988 29.4499C23.7697 28.3298 26.9502 25.584 28.6527 22H22.5154ZM29.4202 20C29.7974 18.7326 30 17.39 30 16C30 14.6101 29.7974 13.2674 29.4202 12H22.7902C22.9275 13.2804 23 14.6214 23 16C23 17.3786 22.9275 18.7196 22.7902 20H29.4202ZM19.3142 5.76479C19.7954 6.96781 20.1955 8.40075 20.4851 10H11.5149C11.8045 8.40075 12.2046 6.96781 12.6858 5.76479C13.2008 4.47728 13.7891 3.50246 14.3911 2.86588C14.989 2.2336 15.5314 2.0016 15.9952 2.00001L16 2L16.0027 2C16.467 2.0009 17.0101 2.23265 17.6089 2.86588C18.2109 3.50246 18.7992 4.47728 19.3142 5.76479ZM22.5154 10H28.6527C26.9502 6.41602 23.7697 3.67018 19.8988 2.55008C20.3779 3.26419 20.8024 4.10032 21.1711 5.02201C21.7436 6.45315 22.2011 8.14037 22.5154 10ZM3.34726 10H9.48459C9.79887 8.14037 10.2564 6.45315 10.8289 5.02201C11.1976 4.10032 11.6221 3.26419 12.1012 2.55008C8.23032 3.67018 5.04983 6.41602 3.34726 10Z" fill="#212121"/>
</svg>
