<svg width="20" height="20" viewBox="0 0 20 20" fill="none" xmlns="http://www.w3.org/2000/svg">
<path d="M6.75 3.5C5.50736 3.5 4.5 4.50736 4.5 5.75L4.5 13.25C4.5 13.6642 4.16421 14 3.75 14C3.33579 14 3 13.6642 3 13.25V5.75C3 3.67893 4.67893 2 6.75 2C8.66931 2 10.2518 3.44189 10.4735 5.30154C10.4908 5.36475 10.5 5.4313 10.5 5.5L10.5 15.7524C10.4987 16.994 9.49183 18 8.25 18C7.00736 18 6 16.9926 6 15.75V5.76904C6 5.35483 6.33579 5.01904 6.75 5.01904C7.16421 5.01904 7.5 5.35483 7.5 5.76904V15.75C7.5 16.1642 7.83579 16.5 8.25 16.5C8.66421 16.5 9 16.1642 9 15.75V5.75C9 4.50736 7.99264 3.5 6.75 3.5ZM12 8.25C12 7.83579 12.3358 7.5 12.75 7.5H17.25C17.6642 7.5 18 7.83579 18 8.25C18 8.66421 17.6642 9 17.25 9H12.75C12.3358 9 12 8.66421 12 8.25ZM12.75 4.5C12.3358 4.5 12 4.83579 12 5.25C12 5.66421 12.3358 6 12.75 6H17.25C17.6642 6 18 5.66421 18 5.25C18 4.83579 17.6642 4.5 17.25 4.5H12.75ZM12 11.25C12 10.8358 12.3358 10.5 12.75 10.5H17.25C17.6642 10.5 18 10.8358 18 11.25C18 11.6642 17.6642 12 17.25 12H12.75C12.3358 12 12 11.6642 12 11.25ZM12.75 13.5C12.3358 13.5 12 13.8358 12 14.25C12 14.6642 12.3358 15 12.75 15H14.75C15.1642 15 15.5 14.6642 15.5 14.25C15.5 13.8358 15.1642 13.5 14.75 13.5H12.75Z" fill="#212121"/>
</svg>
