<svg width="48" height="48" viewBox="0 0 48 48" fill="none" xmlns="http://www.w3.org/2000/svg">
<path d="M15.2817 7.52834C14.9991 6.84589 14.1898 6.5499 13.56 6.93593C10.8627 8.58921 8.58765 10.8641 6.9341 13.5611C6.54798 14.1909 6.84396 15.0003 7.52646 15.283C8.12302 15.5301 8.8057 15.2826 9.14803 14.7351C10.5606 12.4759 12.4744 10.5623 14.7337 9.14998C15.2813 8.80768 15.5289 8.12495 15.2817 7.52834ZM20.0495 6.94703C19.4201 7.09215 18.762 6.78447 18.5148 6.18765C18.2321 5.50532 18.5948 4.72386 19.3129 4.55152C20.8154 4.19094 22.384 3.99997 23.9971 3.99997C25.6111 3.99997 27.1805 4.19116 28.6838 4.55213C29.4018 4.72455 29.7644 5.50594 29.4818 6.18821C29.2345 6.78509 28.5764 7.09277 27.9468 6.94754C26.6775 6.65472 25.3554 6.49997 23.9971 6.49997C22.6396 6.49997 21.3182 6.65453 20.0495 6.94703ZM40.4679 15.2834C39.8713 15.5305 39.1886 15.2829 38.8463 14.7354C37.4342 12.4768 35.521 10.5635 33.2624 9.1512C32.7149 8.80886 32.4674 8.12619 32.7145 7.52964C32.9972 6.84713 33.8066 6.55116 34.4364 6.9373C37.1328 8.59055 39.4072 10.865 41.0603 13.5615C41.4464 14.1913 41.1504 15.0007 40.4679 15.2834ZM41.8091 29.4833C41.2123 29.2361 40.9046 28.578 41.0498 27.9485C41.3424 26.6796 41.4971 25.3578 41.4971 24C41.4971 22.642 41.3424 21.3202 41.0497 20.0511C40.9045 19.4216 41.2122 18.7635 41.8091 18.5162C42.4913 18.2336 43.2728 18.5962 43.4452 19.3143C43.806 20.8173 43.9971 22.3863 43.9971 24C43.9971 25.6135 43.806 27.1824 43.4452 28.6853C43.2729 29.4034 42.4914 29.766 41.8091 29.4833ZM32.715 40.47C32.4679 39.8735 32.7154 39.1908 33.2628 38.8485C35.5213 37.4361 37.4344 35.5229 38.8465 33.2642C39.1888 32.7167 39.8715 32.4691 40.4681 32.7162C41.1506 32.9989 41.4466 33.8083 41.0605 34.4381C39.4075 37.1345 37.1332 39.409 34.4369 41.0623C33.8071 41.4485 32.9977 41.1525 32.715 40.47ZM18.5142 41.8122C18.7614 41.2153 19.4195 40.9076 20.049 41.0528C21.3178 41.3454 22.6394 41.5 23.9971 41.5C25.3555 41.5 26.6779 41.3452 27.9474 41.0523C28.5769 40.907 29.2351 41.2147 29.4823 41.8116C29.7649 42.4939 29.4024 43.2752 28.6844 43.4477C27.1809 43.8087 25.6113 44 23.9971 44C22.3837 44 20.815 43.8089 19.3123 43.4483C18.5942 43.2759 18.2316 42.4945 18.5142 41.8122ZM7.52626 32.7166C8.12284 32.4695 8.80552 32.7171 9.14785 33.2646C10.5603 35.5237 12.474 37.4373 14.7332 38.8497C15.2808 39.192 15.5284 39.8747 15.2812 40.4713C14.9986 41.1538 14.1893 41.4497 13.5595 41.0637C10.8623 39.4104 8.58736 37.1355 6.9339 34.4385C6.54779 33.8087 6.84377 32.9993 7.52626 32.7166ZM6.18519 18.5158C6.78206 18.763 7.08973 19.4212 6.94453 20.0507C6.65178 21.3199 6.49707 22.6419 6.49707 24C6.49707 25.358 6.65175 26.6798 6.94445 27.9489C7.08964 28.5784 6.78196 29.2366 6.18511 29.4838C5.50281 29.7664 4.7214 29.4038 4.549 28.6857C4.18818 27.1827 3.99707 25.6137 3.99707 24C3.99707 22.3861 4.18821 20.817 4.5491 19.3138C4.7215 18.5957 5.50291 18.2332 6.18519 18.5158Z" fill="#212121"/>
</svg>
