<svg width="20" height="20" viewBox="0 0 20 20" fill="none" xmlns="http://www.w3.org/2000/svg">
<path d="M8.9975 2.38811C9.56767 1.87584 10.4323 1.87584 11.0025 2.38811L16.5025 7.32965C16.8191 7.61414 17 8.01977 17 8.44544V10.045C16.669 9.99185 16.3322 9.98579 16 10.0268V8.44544C16 8.30355 15.9397 8.16834 15.8342 8.07351L10.3342 3.13197C10.1441 2.96122 9.85589 2.96122 9.66583 3.13197L4.16583 8.07351C4.06029 8.16834 4 8.30355 4 8.44544V15.4996C4 15.7757 4.22386 15.9996 4.5 15.9996H9.93171C9.96722 16.0386 10.0037 16.0771 10.0412 16.1148L10.9193 16.9996H4.5C3.67157 16.9996 3 16.328 3 15.4996V8.44544C3 8.01977 3.18086 7.61414 3.4975 7.32965L8.9975 2.38811ZM18.249 11.7567C17.8927 11.3978 17.4577 11.1665 17 11.063C16.6715 10.9886 16.3312 10.9801 16 11.0374C15.4956 11.1246 15.0121 11.3644 14.6227 11.7567L14.5 11.8803L14.3773 11.7567C13.3759 10.7478 11.7524 10.7478 10.751 11.7567C10.674 11.8343 10.6029 11.9156 10.5378 12C9.83356 12.9125 9.82097 14.1913 10.5 15.1169C10.5752 15.2194 10.6589 15.3175 10.751 15.4104L14.1819 18.8673C14.3576 19.0442 14.6424 19.0442 14.818 18.8673L18.249 15.4104C19.2503 14.4015 19.2503 12.7656 18.249 11.7567Z" fill="#212121"/>
</svg>
