<?xml version="1.0" encoding="UTF-8"?>
<svg width="24px" height="24px" viewBox="0 0 24 24" version="1.1" xmlns="http://www.w3.org/2000/svg" xmlns:xlink="http://www.w3.org/1999/xlink">
    <!-- Generator: Sketch 59.1 (86144) - https://sketch.com -->
    <title>ic_fluent_brand_gmail_24_mono</title>
    <desc>Created with Sketch.</desc>
    <g id="ðŸ”-Brand-Icons" stroke="none" stroke-width="1" fill="none" fill-rule="evenodd">
        <g id="ic_fluent_brand_gmail_24_mono" fill="#212121" fill-rule="nonzero">
            <path d="M2.91304348,4 L21.0869565,4 C22.0926708,4 22.9179257,4.76489262 22.9942408,5.73531762 L23,5.88235294 L23,18.1176471 C23,19.1072269 22.2226363,19.9192424 21.2363892,19.9943332 L21.0869565,20 L2.91304348,20 C1.90732919,20 1.08207434,19.2351074 1.00575917,18.2646824 L1,18.1176471 L1,5.88235294 C1,4.89277311 1.7773637,4.08075764 2.76361084,4.00566677 L2.91304348,4 L21.0869565,4 L2.91304348,4 Z M20.1304348,5.91304348 L20.0692174,5.92547826 L20.0692174,5.92547826 C20.0070435,5.92930435 19.9477391,5.94556522 19.8865217,5.96182609 C19.8224348,5.97904348 19.7602609,5.99626087 19.7028696,6.02591304 L19.6454783,6.04504348 L12,10.5426087 L4.35452174,6.04504348 L4.29713043,6.02591304 L4.29713043,6.02591304 C4.23973913,5.99626087 4.17852174,5.98 4.11443478,5.96278261 C4.05226087,5.94556522 3.99295652,5.92930435 3.92982609,5.92547826 L3.86956522,5.91304348 L3.86956522,5.91304348 C3.8293913,5.91304348 3.794,5.93121739 3.75478261,5.936 C3.68973913,5.9446087 3.62756522,5.95321739 3.5653913,5.97426087 C3.50608696,5.99434783 3.45443478,6.02208696 3.40182609,6.05269565 C3.34921739,6.08234783 3.29947826,6.11295652 3.2526087,6.15313043 C3.20191304,6.19713043 3.16173913,6.24686957 3.12156522,6.29947826 C3.09765217,6.33104348 3.06513043,6.35113043 3.04504348,6.3846087 L3.02591304,6.442 L3.02591304,6.442 C2.99626087,6.4993913 2.98,6.5606087 2.96278261,6.62373913 C2.94556522,6.68591304 2.92930435,6.74617391 2.92547826,6.80930435 L2.91304348,6.86956522 L3.03837254,17.0820525 C3.03837254,17.5723382 3.40786322,17.9768493 3.88339396,18.0321351 L3.99489428,18.0385742 L5,18 L5,8.5 L11.5150435,12.4766957 C11.6642609,12.5646957 11.8326087,12.6086957 12,12.6086957 C12.1255435,12.6086957 12.251625,12.5839457 12.3697704,12.5344457 L12.4849565,12.4766957 L19.0316162,8.54156522 L19.0316162,18.0385742 L20.1304348,18.0385742 C20.6207205,18.0385742 20.9502538,17.5983342 20.9948285,17.1126964 L21,17 L21.0869565,6.86956522 L21.0745217,6.80930435 L21.0745217,6.80930435 C21.0706957,6.74617391 21.0544348,6.68591304 21.0372174,6.62373913 C21.02,6.5606087 21.0037391,6.4993913 20.974087,6.442 L20.9549565,6.3846087 L20.9549565,6.3846087 C20.9348696,6.35113043 20.9023478,6.33104348 20.8784348,6.29947826 C20.8382609,6.24686957 20.798087,6.19617391 20.7473913,6.15313043 C20.7005217,6.11295652 20.6517391,6.08330435 20.5991304,6.05269565 C20.5455652,6.02208696 20.493913,5.99434783 20.4336522,5.97426087 C20.3724348,5.95321739 20.3102609,5.9446087 20.2461739,5.936 C20.206,5.93121739 20.1715652,5.91304348 20.1304348,5.91304348 Z" id="ðŸŽ¨-Color"></path>
        </g>
    </g>
</svg>