<svg width="32" height="32" viewBox="0 0 32 32" fill="none" xmlns="http://www.w3.org/2000/svg">
<path d="M23 16.5C24.933 16.5 26.5 18.067 26.5 20V20.5H27C28.3807 20.5 29.5 21.6193 29.5 23V29C29.5 30.3807 28.3807 31.5 27 31.5H19C17.6193 31.5 16.5 30.3807 16.5 29V23C16.5 21.6193 17.6193 20.5 19 20.5H19.5V20C19.5 18.067 21.067 16.5 23 16.5ZM23 24C21.8954 24 21 24.8954 21 26C21 27.1046 21.8954 28 23 28C24.1046 28 25 27.1046 25 26C25 24.8954 24.1046 24 23 24ZM16 17C16.9564 17 17.8062 17.4493 18.3555 18.1465C18.2331 18.4528 18.1401 18.7738 18.0801 19.1064C17.9929 19.127 17.9071 19.1526 17.8223 19.1787C17.5088 18.4841 16.8116 18 16 18H5C3.89543 18 3 18.8954 3 20C3 20.8836 3.33283 22.1197 4.40625 23.1367C5.47609 24.1503 7.33915 25 10.5 25C12.4584 25 13.918 24.6728 15 24.1836V25.2676C13.8259 25.7231 12.3471 26 10.5 26C7.161 26 5.02389 25.0996 3.71875 23.8633C2.41737 22.6304 2 21.1164 2 20C2 18.3431 3.34315 17 5 17H16ZM23 18.5C22.1716 18.5 21.5 19.1716 21.5 20V20.5H24.5V20C24.5 19.1716 23.8284 18.5 23 18.5ZM10.5 4C13.5376 4 16 6.46243 16 9.5C16 12.5376 13.5376 15 10.5 15C7.46243 15 5 12.5376 5 9.5C5 6.46243 7.46243 4 10.5 4ZM23 7C25.2091 7 27 8.79086 27 11C27 13.2091 25.2091 15 23 15C20.7909 15 19 13.2091 19 11C19 8.79086 20.7909 7 23 7ZM10.5 5C8.01472 5 6 7.01472 6 9.5C6 11.9853 8.01472 14 10.5 14C12.9853 14 15 11.9853 15 9.5C15 7.01472 12.9853 5 10.5 5ZM23 8C21.3431 8 20 9.34315 20 11C20 12.6569 21.3431 14 23 14C24.6569 14 26 12.6569 26 11C26 9.34315 24.6569 8 23 8Z" fill="#212121"/>
</svg>
