<svg width="20" height="20" viewBox="0 0 20 20" fill="none" xmlns="http://www.w3.org/2000/svg">
<path d="M14.3292 3.12697C13.5541 2.35188 12.2974 2.35188 11.5224 3.12697C11.4512 3.19809 11.3865 3.27343 11.3284 3.35219C10.5803 3.21946 9.781 3.44161 9.20217 4.02044C8.26139 4.96122 8.26139 6.48652 9.20217 7.4273L10.2136 8.4387L9.14513 9.50714L10.5111 10.8731L11.5795 9.80466L12.591 10.8162C13.5318 11.757 15.0571 11.757 15.9979 10.8162C16.5767 10.2374 16.7989 9.43808 16.6662 8.69004C16.7449 8.63184 16.8203 8.56715 16.8914 8.49602C17.6665 7.72094 17.6665 6.46427 16.8914 5.68918L16.2932 5.09098L16.8171 4.5671C17.1943 4.1899 17.1943 3.57834 16.8171 3.20115C16.4399 2.82395 15.8283 2.82395 15.4511 3.20115L14.9272 3.72502L14.3292 3.12697ZM14.5996 6.67317C14.7949 6.86843 14.7949 7.18501 14.5996 7.38027C14.4043 7.57554 14.0877 7.57554 13.8925 7.38027L12.6197 6.10746C12.4244 5.91219 12.4244 5.59561 12.6197 5.40035C12.8149 5.20509 13.1315 5.20509 13.3268 5.40035L14.5996 6.67317ZM4.01973 9.20278C4.96051 8.262 6.48581 8.262 7.42659 9.20278L10.8155 12.5917C11.7562 13.5324 11.7562 15.0577 10.8155 15.9985C10.2366 16.5773 9.43734 16.7995 8.68929 16.6668C8.6311 16.7455 8.56641 16.8209 8.49529 16.892C7.7202 17.6671 6.46354 17.6671 5.68845 16.892L5.09037 16.2939L4.54907 16.8352C4.17187 17.2124 3.56031 17.2124 3.18311 16.8352C2.80591 16.458 2.80591 15.8464 3.18311 15.4693L3.72441 14.9279L3.12624 14.3298C2.35115 13.5547 2.35115 12.298 3.12624 11.5229C3.19737 11.4518 3.2727 11.3871 3.35146 11.3289C3.21876 10.5809 3.44091 9.7816 4.01973 9.20278ZM6.96261 15.0172C7.15787 14.8219 7.15787 14.5053 6.96261 14.3101L5.68979 13.0373C5.49453 12.842 5.17795 12.842 4.98268 13.0373C4.78742 13.2325 4.78742 13.5491 4.98268 13.7444L6.2555 15.0172C6.45076 15.2124 6.76735 15.2124 6.96261 15.0172Z" fill="#212121"/>
</svg>
