<svg width="24" height="24" viewBox="0 0 24 24" fill="none" xmlns="http://www.w3.org/2000/svg">
<path d="M17.767 7.80263C18.0599 8.09552 18.0599 8.57039 17.767 8.86329C17.4741 9.15618 16.9993 9.15618 16.7064 8.86329L15.1366 7.29348C14.8437 7.00058 14.8437 6.52571 15.1366 6.23282C15.4295 5.93992 15.9043 5.93992 16.1972 6.23282L17.767 7.80263ZM9.39472 17.2356C9.68761 16.9427 9.68761 16.4678 9.39472 16.1749L7.82491 14.6051C7.53202 14.3122 7.05714 14.3122 6.76425 14.6051C6.47136 14.898 6.47136 15.3729 6.76425 15.6658L8.33406 17.2356C8.62695 17.5285 9.10183 17.5285 9.39472 17.2356ZM20.9382 3.08442C20.1801 2.32631 18.951 2.32631 18.1929 3.08442L17.522 3.7553L17.3146 3.54793C16.3723 2.60562 14.8445 2.60562 13.9022 3.54793C13.8105 3.63968 13.7275 3.73718 13.6535 3.83931C12.7356 3.66947 11.7516 3.93895 11.0406 4.64995C9.89398 5.79662 9.89398 7.65572 11.0406 8.80238L11.7578 9.51951L9.51865 11.7586L8.80147 11.0415C7.65481 9.89479 5.79571 9.89479 4.64905 11.0415C3.93803 11.7525 3.66855 12.7364 3.83841 13.6544C3.7363 13.7284 3.63881 13.8113 3.54707 13.903C2.60475 14.8454 2.60475 16.3731 3.54707 17.3155L3.75445 17.5228L3.06223 18.2151C2.30413 18.9732 2.30413 20.2023 3.06223 20.9604C3.82034 21.7185 5.04947 21.7185 5.80757 20.9604L6.49979 20.2682L6.70712 20.4755C7.64944 21.4178 9.17723 21.4178 10.1195 20.4755C10.2113 20.3838 10.2942 20.2863 10.3683 20.1841C11.2861 20.354 12.2701 20.0845 12.9811 19.3735C14.1278 18.2268 14.1277 16.3677 12.9811 15.2211L12.264 14.504L14.5031 12.2649L15.2203 12.982C16.3669 14.1287 18.226 14.1287 19.3727 12.982C20.0837 12.271 20.3532 11.287 20.1833 10.3691C20.2854 10.2951 20.3829 10.2121 20.4747 10.1204C21.417 9.17809 21.417 7.6503 20.4747 6.70799L20.2673 6.50064L20.9382 5.82976C21.6963 5.07165 21.6963 3.84252 20.9382 3.08442ZM19.2067 5.43998L18.5826 4.81596L19.2535 4.14508C19.4258 3.97276 19.7052 3.97276 19.8776 4.14508C20.0499 4.3174 20.0499 4.59678 19.8776 4.7691L19.2067 5.43998ZM13.4425 11.2042L11.2033 13.4433L10.5793 12.8193L12.8184 10.5802L13.4425 11.2042ZM5.43913 19.2075L4.74691 19.8997C4.57459 20.0721 4.29521 20.0721 4.12289 19.8997C3.95057 19.7274 3.95057 19.448 4.12289 19.2757L4.81511 18.5835L5.43913 19.2075ZM14.9629 4.60859C15.3194 4.25207 15.8974 4.25207 16.254 4.60859L19.414 7.76865C19.7705 8.12518 19.7705 8.70322 19.414 9.05974C19.3079 9.1659 19.1839 9.23942 19.0525 9.2822C18.8492 9.34841 18.6838 9.49825 18.5979 9.69408C18.512 9.8899 18.5138 10.1131 18.6028 10.3075C18.8459 10.8386 18.7475 11.4858 18.312 11.9213C17.7512 12.4822 16.8418 12.4822 16.2809 11.9213L12.1013 7.74172C11.5404 7.18085 11.5404 6.27149 12.1013 5.71061C12.5368 5.2751 13.184 5.17673 13.7151 5.41984C13.9095 5.50884 14.1327 5.51061 14.3285 5.42471C14.5244 5.33882 14.6742 5.17342 14.7404 4.9701C14.7832 4.83871 14.8567 4.71475 14.9629 4.60859ZM5.70971 12.1021C6.27058 11.5412 7.17994 11.5412 7.74081 12.1021L11.9204 16.2817C12.4813 16.8426 12.4813 17.752 11.9204 18.3128C11.4849 18.7484 10.8378 18.8467 10.3066 18.6036C10.1122 18.5146 9.88902 18.5128 9.6932 18.5987C9.49739 18.6846 9.34754 18.85 9.28133 19.0534C9.23855 19.1847 9.16504 19.3087 9.05888 19.4149C8.70235 19.7714 8.12431 19.7714 7.76778 19.4149L4.60773 16.2548C4.2512 15.8983 4.2512 15.3202 4.60773 14.9637C4.71388 14.8575 4.83783 14.784 4.96922 14.7413C5.17254 14.675 5.33793 14.5252 5.42383 14.3294C5.50972 14.1336 5.50794 13.9104 5.41894 13.7159C5.17582 13.1848 5.27418 12.5376 5.70971 12.1021Z" fill="#212121"/>
</svg>
