<svg width="20" height="20" viewBox="0 0 20 20" fill="none" xmlns="http://www.w3.org/2000/svg">
<path d="M14.5979 7.38C14.7931 7.18473 14.7931 6.86815 14.5979 6.67289L13.325 5.40007C13.1298 5.20481 12.8132 5.20481 12.6179 5.40007C12.4227 5.59533 12.4227 5.91192 12.6179 6.10718L13.8908 7.38C14.086 7.57526 14.4026 7.57526 14.5979 7.38ZM7.80953 13.4613C8.00479 13.6565 8.00479 13.9731 7.80953 14.1684C7.61427 14.3636 7.29769 14.3636 7.10243 14.1684L5.82961 12.8955C5.63435 12.7003 5.63435 12.3837 5.82961 12.1884C6.02487 11.9932 6.34145 11.9932 6.53671 12.1884L7.80953 13.4613ZM17.1689 2.84731C16.5965 2.27485 15.6683 2.27485 15.0959 2.84731L14.4754 3.46774L14.2308 3.22314C13.509 2.50132 12.3387 2.50132 11.6169 3.22314C11.5299 3.31016 11.4532 3.40391 11.3871 3.50275C10.6575 3.34464 9.86457 3.5487 9.29673 4.11655C8.40922 5.00406 8.40922 6.44299 9.29673 7.3305L9.95471 7.98848L7.98623 9.95695L7.32825 9.29897C6.44075 8.41146 5.00181 8.41146 4.11431 9.29897C3.5465 9.86678 3.34242 10.6596 3.50048 11.3892C3.40162 11.4554 3.30785 11.532 3.22081 11.6191C2.49899 12.3409 2.49899 13.5112 3.22081 14.233L3.4655 14.4777L2.82778 15.1154C2.25532 15.6879 2.25532 16.616 2.82778 17.1885C3.40024 17.7609 4.32839 17.7609 4.90085 17.1885L5.53856 16.5507L5.78302 16.7952C6.50483 17.517 7.67513 17.517 8.39695 16.7952C8.48398 16.7082 8.56062 16.6144 8.62681 16.5156C9.35639 16.6737 10.1493 16.4696 10.7171 15.9018C11.6046 15.0143 11.6046 13.5754 10.7171 12.6878L10.0593 12.03L12.0278 10.0615L12.6856 10.7194C13.5731 11.6069 15.012 11.6069 15.8995 10.7194C16.4674 10.1516 16.6714 9.35874 16.5134 8.62919C16.6122 8.56299 16.706 8.48633 16.7931 8.39929C17.5149 7.67747 17.5149 6.50717 16.7931 5.78535L16.5485 5.5408L17.1689 4.92038C17.7414 4.34792 17.7414 3.41978 17.1689 2.84731ZM15.8414 4.8337L15.1826 4.17484L15.803 3.55442C15.9849 3.37248 16.2799 3.37248 16.4618 3.55442C16.6438 3.73636 16.6438 4.03134 16.4618 4.21327L15.8414 4.8337ZM11.3207 9.35443L9.35219 11.3229L8.69334 10.6641L10.6618 8.69558L11.3207 9.35443ZM4.83146 15.8436L4.19374 16.4814C4.0118 16.6633 3.71683 16.6633 3.53489 16.4814C3.35295 16.2994 3.35295 16.0044 3.53489 15.8225L4.17261 15.1848L4.83146 15.8436ZM12.324 3.93024C12.6553 3.59895 13.1924 3.59895 13.5237 3.93024L16.0859 6.49246C16.4172 6.82375 16.4172 7.36089 16.0859 7.69218C15.9876 7.79057 15.8722 7.85905 15.7499 7.89889C15.6144 7.94303 15.5041 8.04293 15.4468 8.17346C15.3896 8.304 15.3908 8.45278 15.4501 8.58239C15.6654 9.05276 15.5785 9.6262 15.1924 10.0123C14.6955 10.5093 13.8897 10.5093 13.3927 10.0123L10.0038 6.62339C9.50685 6.12641 9.50685 5.32064 10.0038 4.82365C10.3899 4.43756 10.9634 4.35073 11.4338 4.56605C11.5634 4.62538 11.7122 4.62656 11.8427 4.56931C11.9733 4.51205 12.0732 4.4018 12.1173 4.26626C12.1572 4.14393 12.2256 4.02863 12.324 3.93024ZM4.82141 10.0061C5.3184 9.50909 6.12416 9.50909 6.62115 10.0061L10.01 13.395C10.507 13.8919 10.507 14.6977 10.01 15.1947C9.62393 15.5808 9.05045 15.6676 8.58007 15.4523C8.45046 15.393 8.30168 15.3918 8.17114 15.449C8.04059 15.5063 7.94069 15.6165 7.89655 15.7521C7.8567 15.8744 7.78823 15.9897 7.68985 16.0881C7.35855 16.4194 6.82142 16.4194 6.49012 16.0881L3.92791 13.5259C3.59662 13.1946 3.59662 12.6575 3.92791 12.3262C4.0263 12.2278 4.14161 12.1593 4.26396 12.1195C4.39949 12.0753 4.50975 11.9754 4.56701 11.8449C4.62427 11.7143 4.62309 11.5656 4.56377 11.436C4.3485 10.9656 4.43534 10.3921 4.82141 10.0061Z" fill="#212121"/>
</svg>
