<svg width="20" height="20" viewBox="0 0 20 20" fill="none" xmlns="http://www.w3.org/2000/svg">
<path d="M5.70049 3.94804C5.92703 2.81534 6.92158 2 8.07672 2C8.86031 2 9.55704 2.37193 10 2.94888C10.443 2.37193 11.1397 2 11.9233 2C13.0784 2 14.073 2.81534 14.2995 3.94804L14.4249 4.57508L14.8311 4.65632C16.0922 4.90854 17 6.01586 17 7.30196V7.5C17 8.22648 16.6901 8.88058 16.1954 9.33735C17.2649 9.86867 18 10.9723 18 12.2475C18 13.7835 16.9244 15.1075 15.425 15.4247L15.3879 15.6102C15.1099 16.9998 13.8899 18 12.4728 18C11.4417 18 10.5332 17.4751 10 16.6779C9.46679 17.4751 8.5583 18 7.52721 18C6.11013 18 4.89005 16.9998 4.61214 15.6102L4.57504 15.4247C3.07561 15.1075 2 13.7835 2 12.2475C2 10.9723 2.73508 9.86867 3.80465 9.33735C3.30987 8.88058 3 8.22648 3 7.5V7.30196C3 6.01586 3.90778 4.90854 5.16891 4.65632L5.57508 4.57508L5.70049 3.94804ZM14.5 10C14.2239 10 14 9.77614 14 9.5C14 9.22386 14.2239 9 14.5 9C15.3284 9 16 8.32843 16 7.5V7.30196C16 6.49254 15.4287 5.79564 14.635 5.6369L13.9019 5.49029C13.704 5.4507 13.5493 5.29599 13.5097 5.09806L13.3189 4.14416C13.1859 3.47888 12.6017 3 11.9233 3C11.1372 3 10.5 3.63723 10.5 4.42328V15.0272C10.5 16.1167 11.3833 17 12.4728 17C13.4132 17 14.2229 16.3362 14.4073 15.4141L14.5097 14.9019C14.5493 14.704 14.704 14.5493 14.9019 14.5097L15.1932 14.4515C16.2438 14.2413 17 13.3189 17 12.2475C17 11.0063 15.9937 10 14.7525 10H14.5ZM9.5 13.9993L9.5 4.42328C9.5 3.63723 8.86277 3 8.07672 3C7.39826 3 6.81413 3.47888 6.68107 4.14416L6.49029 5.09806C6.4507 5.29599 6.29599 5.4507 6.09806 5.49029L5.36503 5.6369C4.57132 5.79564 4 6.49254 4 7.30196V7.5C4 8.32843 4.67157 9 5.5 9C5.77614 9 6 9.22386 6 9.5C6 9.77614 5.77614 10 5.5 10H5.24755C4.00626 10 3 11.0063 3 12.2475C3 13.3189 3.75621 14.2413 4.80677 14.4515L5.09806 14.5097C5.29599 14.5493 5.4507 14.704 5.49029 14.9019L5.59272 15.4141C5.77715 16.3362 6.58681 17 7.52721 17C8.61675 17 9.5 16.1167 9.5 15.0272L9.5 13.9993V13.9993Z" fill="#212121"/>
</svg>
