<svg width="48" height="48" viewBox="0 0 48 48" fill="none" xmlns="http://www.w3.org/2000/svg">
<path d="M16 22C20.4183 22 24 18.4183 24 14C24 9.58172 20.4183 6 16 6C11.5817 6 8 9.58172 8 14C8 18.4183 11.5817 22 16 22ZM34 22C37.3137 22 40 19.3137 40 16C40 12.6863 37.3137 10 34 10C30.6863 10 28 12.6863 28 16C28 19.3137 30.6863 22 34 22ZM6.75 25C4.67893 25 3 26.6789 3 28.75V30C3 30 3 39 16 39C18.6092 39 20.6947 38.6374 22.3617 38.0579C22.1253 37.0772 22 36.0532 22 35C22 31.0895 23.7266 27.5823 26.459 25.1992C26.0797 25.07 25.673 25 25.25 25H6.75ZM46 35C46 41.0751 41.0751 46 35 46C28.9249 46 24 41.0751 24 35C24 28.9249 28.9249 24 35 24C41.0751 24 46 28.9249 46 35ZM36.1901 28.4013C35.8155 27.1996 34.1845 27.1996 33.8099 28.4013L32.6163 32.2307H28.7537C27.5415 32.2307 27.0375 33.8477 28.0182 34.5904L31.1431 36.9572L29.9495 40.7866C29.5749 41.9883 30.8944 42.9877 31.8751 42.245L35 39.8783L38.1249 42.245C39.1056 42.9877 40.4251 41.9883 40.0505 40.7866L38.8569 36.9572L41.9818 34.5904C42.9625 33.8477 42.4585 32.2307 41.2463 32.2307H37.3837L36.1901 28.4013Z" fill="#212121"/>
</svg>
