<svg width="28" height="28" viewBox="0 0 28 28" fill="none" xmlns="http://www.w3.org/2000/svg">
<path d="M27 7.5C27 11.0899 24.0899 14 20.5 14C16.9101 14 14 11.0899 14 7.5C14 3.91015 16.9101 1 20.5 1C24.0899 1 27 3.91015 27 7.5ZM24.3536 4.64645C24.1583 4.45118 23.8417 4.45118 23.6464 4.64645L19 9.29289L17.3536 7.64645C17.1583 7.45118 16.8417 7.45118 16.6464 7.64645C16.4512 7.84171 16.4512 8.15829 16.6464 8.35355L18.6464 10.3536C18.8417 10.5488 19.1583 10.5488 19.3536 10.3536L24.3536 5.35355C24.5488 5.15829 24.5488 4.84171 24.3536 4.64645Z" fill="#212121"/>
<path d="M24.5 17.25V13.8454C25.053 13.4961 25.5572 13.0765 26 12.5991V17.25C26 19.3211 24.3211 21 22.25 21H16.309L9.77388 25.7147C8.61646 26.5497 7 25.7227 7 24.2955V21H5.75C3.67893 21 2 19.3211 2 17.25V6.75C2 4.67893 3.67893 3 5.75 3H14.4995C14.1527 3.46159 13.858 3.9645 13.6241 4.5H5.75C4.50736 4.5 3.5 5.50736 3.5 6.75V17.25C3.5 18.4926 4.50736 19.5 5.75 19.5H8.5V24.2955C8.5 24.4994 8.73092 24.6175 8.89627 24.4982L15.8244 19.5H22.25C23.4926 19.5 24.5 18.4926 24.5 17.25Z" fill="#212121"/>
</svg>
