<svg width="32" height="32" viewBox="0 0 32 32" fill="none" xmlns="http://www.w3.org/2000/svg">
<path d="M6.75 3C6.05964 3 5.5 3.55964 5.5 4.25L5.5 23.25C5.5 26.4256 8.07436 29 11.25 29C14.4256 29 17 26.4256 17 23.25L17 8.75C17 6.95507 18.4551 5.5 20.25 5.5C22.0449 5.5 23.5 6.95507 23.5 8.75V25.7322L22.6339 24.8661C22.1457 24.378 21.3543 24.378 20.8661 24.8661C20.378 25.3543 20.378 26.1457 20.8661 26.6339L23.8661 29.6339C24.3543 30.122 25.1457 30.122 25.6339 29.6339L28.6339 26.6339C29.122 26.1457 29.122 25.3543 28.6339 24.8661C28.1457 24.378 27.3543 24.378 26.8661 24.8661L26 25.7322V8.75C26 5.57436 23.4256 3 20.25 3C17.0744 3 14.5 5.57436 14.5 8.75L14.5 23.25C14.5 25.0449 13.0449 26.5 11.25 26.5C9.45508 26.5 8 25.0449 8 23.25L8 4.25C8 3.55964 7.44036 3 6.75 3Z" fill="#212121"/>
</svg>
