<svg width="20" height="20" viewBox="0 0 20 20" fill="none" xmlns="http://www.w3.org/2000/svg">
<path d="M8.439 17.5609C8.24663 17.3575 8.11681 17.1031 8.065 16.8279C7.46388 16.728 6.87721 16.555 6.318 16.3129C5.356 15.8749 5 15.3739 5 14.9999V6.69992C5.28059 6.90626 5.58228 7.08224 5.9 7.22492C7.19847 7.76366 8.59447 8.02754 10 7.99992C11.4057 8.0269 12.8017 7.76234 14.1 7.22292C14.4176 7.08088 14.7193 6.90556 15 6.69992V13.0929C15.3223 12.9716 15.6777 12.9716 16 13.0929V4.99992C16 3.99292 15.125 3.24492 14.1 2.77692C12.8017 2.2375 11.4057 1.97294 10 1.99992C8.59433 1.97294 7.19833 2.2375 5.9 2.77692C4.875 3.24492 4 3.99292 4 4.99992V14.9999C4 16.0069 4.875 16.7549 5.9 17.2229C6.82752 17.6198 7.81337 17.8633 8.819 17.9439L8.439 17.5609ZM6.318 3.68692C7.48524 3.20786 8.73854 2.97402 10 2.99992C11.2615 2.97402 12.5148 3.20786 13.682 3.68692C14.644 4.12492 15 4.62592 15 4.99992C15 5.37392 14.644 5.87492 13.682 6.31292C12.5148 6.79198 11.2615 7.02583 10 6.99992C8.73854 7.02583 7.48524 6.79198 6.318 6.31292C5.356 5.87492 5 5.37392 5 4.99992C5 4.62592 5.356 4.12492 6.318 3.68692ZM11.854 18.8539C11.8076 18.9005 11.7524 18.9374 11.6916 18.9626C11.6309 18.9878 11.5658 19.0008 11.5 19.0008C11.4342 19.0008 11.3691 18.9878 11.3084 18.9626C11.2476 18.9374 11.1924 18.9005 11.146 18.8539L9.146 16.8539C9.09944 16.8075 9.06249 16.7523 9.03729 16.6916C9.01208 16.6308 8.99911 16.5657 8.99911 16.4999C8.99911 16.4342 9.01208 16.369 9.03729 16.3083C9.06249 16.2475 9.09944 16.1924 9.146 16.1459L11.146 14.1459C11.2399 14.052 11.3672 13.9993 11.5 13.9993C11.6328 13.9993 11.7601 14.052 11.854 14.1459C11.9479 14.2398 12.0006 14.3671 12.0006 14.4999C12.0006 14.6327 11.9479 14.76 11.854 14.8539L10.707 15.9999H16.293L15.146 14.8539C15.0521 14.76 14.9994 14.6327 14.9994 14.4999C14.9994 14.3671 15.0521 14.2398 15.146 14.1459C15.2399 14.052 15.3672 13.9993 15.5 13.9993C15.6328 13.9993 15.7601 14.052 15.854 14.1459L17.854 16.1459C17.9006 16.1924 17.9375 16.2475 17.9627 16.3083C17.9879 16.369 18.0009 16.4342 18.0009 16.4999C18.0009 16.5657 17.9879 16.6308 17.9627 16.6916C17.9375 16.7523 17.9006 16.8075 17.854 16.8539L15.854 18.8539C15.7601 18.9478 15.6328 19.0006 15.5 19.0006C15.3672 19.0006 15.2399 18.9478 15.146 18.8539C15.0521 18.76 14.9994 18.6327 14.9994 18.4999C14.9994 18.3671 15.0521 18.2398 15.146 18.1459L16.293 16.9999H10.707L11.854 18.1459C11.9006 18.1924 11.9375 18.2475 11.9627 18.3083C11.9879 18.369 12.0009 18.4342 12.0009 18.4999C12.0009 18.5657 11.9879 18.6308 11.9627 18.6916C11.9375 18.7523 11.9006 18.8075 11.854 18.8539Z" fill="#212121"/>
</svg>
