<svg width="16" height="16" viewBox="0 0 16 16" fill="none" xmlns="http://www.w3.org/2000/svg">
<path d="M2 4.5C2 3.11929 3.11929 2 4.5 2H11.5C12.8807 2 14 3.11929 14 4.5V7.50687C13.6269 7.33592 13.2855 7.09271 13 6.84597V6H3V11.5C3 12.3284 3.67157 13 4.5 13H7.19141C7.28921 13.3618 7.42051 13.6947 7.57579 14H4.5C3.11929 14 2 12.8807 2 11.5V4.5ZM11.8808 7.15916C12.3885 7.69172 13.364 8.53857 14.5637 8.71231C14.8029 8.74696 15 8.94558 15 9.19415V11.5166C15 14.6388 12.216 15.7719 11.6141 15.9804C11.5387 16.0065 11.4618 16.0065 11.3864 15.9804C10.7845 15.7719 8.00027 14.6388 8.00027 11.5166L8 9.19421C7.99997 8.94561 8.19706 8.74696 8.43634 8.71229C9.63579 8.5385 10.6114 7.69165 11.1191 7.15912C11.3214 6.94694 11.6785 6.94697 11.8808 7.15916Z" fill="#212121"/>
</svg>
