<svg width="20" height="20" viewBox="0 0 20 20" fill="none" xmlns="http://www.w3.org/2000/svg">
<path d="M3 5.5C3 4.11929 4.11929 3 5.5 3H14.5C15.8807 3 17 4.11929 17 5.5V8.6107C16.6604 8.5456 16.328 8.4221 16 8.23188V7H4V14.5C4 15.3284 4.67157 16 5.5 16H9.82178C9.94761 16.2237 10.0883 16.4391 10.2443 16.6457C10.3365 16.7678 10.4332 16.8859 10.5344 17H5.5C4.11929 17 3 15.8807 3 14.5V5.5Z" fill="#212121"/>
<path d="M16 9.34709C16.3233 9.48293 16.6565 9.57525 17 9.62446C17.1966 9.65263 17.3966 9.66667 17.6 9.66667C17.7933 9.66667 17.9546 9.80949 17.9919 9.99936L18 10.0833V12.5844C18 15.2663 16.687 17.0896 14.1265 17.9786C14.0444 18.0071 13.9556 18.0071 13.8735 17.9786C13.1482 17.7268 12.5231 17.4 11.9995 17C11.6146 16.706 11.2847 16.3724 11.0102 16C10.3835 15.1498 10.0459 14.097 10.0044 12.8497L10 12.5844V10.0833C10 9.85321 10.1791 9.66667 10.4 9.66667C11.6234 9.66667 12.7233 9.15752 13.7178 8.12198C13.8741 7.95921 14.1276 7.95936 14.2837 8.12231C14.8231 8.68522 15.3942 9.09256 16 9.34709Z" fill="#212121"/>
</svg>
