<svg width="48" height="48" viewBox="0 0 48 48" fill="none" xmlns="http://www.w3.org/2000/svg">
<path d="M24 44C35.0457 44 44 35.0457 44 24C44 12.9543 35.0457 4 24 4C12.9543 4 4 12.9543 4 24C4 35.0457 12.9543 44 24 44ZM19.25 15.5C19.9404 15.5 20.5 16.0596 20.5 16.75V31.25C20.5 31.9404 19.9404 32.5 19.25 32.5C18.5596 32.5 18 31.9404 18 31.25V16.75C18 16.0596 18.5596 15.5 19.25 15.5ZM27.5 16.75C27.5 16.0596 28.0596 15.5 28.75 15.5C29.4404 15.5 30 16.0596 30 16.75V31.25C30 31.9404 29.4404 32.5 28.75 32.5C28.0596 32.5 27.5 31.9404 27.5 31.25V16.75Z" fill="#242424"/>
</svg>
