<svg width="24" height="24" viewBox="0 0 24 24" fill="none" xmlns="http://www.w3.org/2000/svg">
<path d="M9.25 6.75C9.25 4.12665 11.3766 2 14 2C16.0061 2 17.7203 3.24301 18.417 5H20.25C21.2165 5 22 5.7835 22 6.75C22 8.26878 20.7688 9.5 19.25 9.5H17.8734C17.5338 9.97749 17.108 10.3897 16.6183 10.7137C16.6596 10.745 16.7004 10.777 16.7406 10.8096C15.8962 10.9174 15.1595 11.0965 14.5452 11.3523C12.8238 12.0692 11.684 13.4858 11.2938 14.6691C11.2471 14.8106 11.2168 14.9542 11.1998 15.0975L11.1972 15.1198L11.1846 15.2909L11.184 15.312C11.1593 16.1069 11.7776 16.7727 12.5693 16.8094C11.9402 17.5442 11.4681 18.3615 11.15 19.25H8.75C5.02208 19.25 2 16.2279 2 12.5V11.5C2 10.5335 2.7835 9.75 3.75 9.75H10.3172C9.65023 8.93235 9.25 7.88821 9.25 6.75Z" fill="#212121"/>
<path d="M14.9297 12.2754C16.3838 11.6698 18.8055 11.5218 22.0395 11.8696C22.5947 11.9293 22.8584 12.5785 22.5459 13.0348C22.1113 13.6695 21.7407 14.5007 21.4394 15.5283L21.3144 15.9806L21.2025 16.4118L21.0428 17.0097C20.4358 19.1344 19.5672 20.2344 17.839 20.7921C16.3118 21.285 14.8821 20.8324 13.7582 19.4989C13.3528 20.3037 13.1518 21.2229 13.1541 22.2674C13.1551 22.6816 12.82 23.0181 12.4058 23.019C11.9916 23.02 11.6551 22.6849 11.6541 22.2707C11.6497 20.2868 12.2674 18.6044 13.5041 17.2625C13.9666 16.7608 14.4431 16.315 14.9337 15.9264L15.0607 15.8267L15.4025 15.5742L15.6808 15.3841L15.8837 15.2546L16.2981 15.0098C16.63 14.8255 16.9677 14.6647 17.3113 14.5277L17.3341 14.5223C17.69 14.3548 17.8584 13.9369 17.711 13.5665C17.5579 13.1817 17.1217 12.9939 16.7369 13.147C15.3801 13.687 14.1191 14.5333 12.9559 15.6803L12.8841 15.738C12.8071 15.7879 12.7162 15.8137 12.6231 15.8108C12.3725 15.803 12.1757 15.5935 12.1835 15.343L12.1928 15.2152C12.2026 15.1325 12.2195 15.0548 12.2434 14.9822C12.5425 14.0755 13.4755 12.881 14.9297 12.2754Z" fill="#212121"/>
</svg>
