<svg width="24" height="24" viewBox="0 0 24 24" fill="none" xmlns="http://www.w3.org/2000/svg">
<path d="M6.25 3C4.45507 3 3 4.45507 3 6.25V14.75C3 16.5449 4.45507 18 6.25 18H11.0189C11.0064 17.835 11 17.6682 11 17.5C11 16.7926 11.113 16.1115 11.322 15.4739C11.0628 15.4913 10.789 15.5 10.5 15.5C9.17974 15.5 8.05475 15.2429 7.25982 14.7393C6.84149 14.4743 6.53039 14.2158 6.32189 13.9097C6.11722 13.6092 6 13.2459 6 12.75V12.25C6 11.4216 6.67157 10.75 7.5 10.75H13.5C14.0832 10.75 14.5886 11.0828 14.8368 11.5689C15.6496 11.2034 16.551 11 17.5 11C17.6682 11 17.835 11.0064 18 11.0189V6.25C18 4.45507 16.5449 3 14.75 3H6.25ZM6.01089 19H11.1739C11.2986 19.5277 11.4876 20.0306 11.7322 20.5H8.74999C7.59938 20.5 6.58843 19.902 6.01089 19ZM20.5 8.74996V11.7322C20.0307 11.4876 19.5278 11.2986 19 11.1739V6.01086C19.9021 6.5884 20.5 7.59935 20.5 8.74996ZM12.75 7.5C12.75 8.74264 11.7426 9.75 10.5 9.75C9.25736 9.75 8.25 8.74264 8.25 7.5C8.25 6.25736 9.25736 5.25 10.5 5.25C11.7426 5.25 12.75 6.25736 12.75 7.5ZM23 17.5C23 14.4624 20.5376 12 17.5 12C14.4624 12 12 14.4624 12 17.5C12 20.5376 14.4624 23 17.5 23C20.5376 23 23 20.5376 23 17.5ZM18.0006 18L18.0011 20.5035C18.0011 20.7797 17.7773 21.0035 17.5011 21.0035C17.225 21.0035 17.0011 20.7797 17.0011 20.5035L17.0006 18H14.4956C14.2197 18 13.9961 17.7762 13.9961 17.5C13.9961 17.2239 14.2197 17 14.4956 17H17.0005L17 14.4993C17 14.2231 17.2239 13.9993 17.5 13.9993C17.7761 13.9993 18 14.2231 18 14.4993L18.0005 17H20.4966C20.7725 17 20.9961 17.2239 20.9961 17.5C20.9961 17.7762 20.7725 18 20.4966 18H18.0006Z" fill="#212121"/>
</svg>
