<svg width="28" height="28" viewBox="0 0 28 28" fill="none" xmlns="http://www.w3.org/2000/svg">
<path d="M12.7201 5C10.5554 5 9.01215 5.65558 7.90342 6.76068C6.8225 7.83806 6.22656 9.27363 5.79786 10.692L5.09996 13.0011H2.75244C2.33823 13.0011 2.00244 13.3369 2.00244 13.7511C2.00244 15.0952 2.76576 16.2351 3.87482 16.8517L3.286 18.2839C2.8733 19.2876 3.351 20.4373 4.35504 20.8512C4.59247 20.9491 4.84678 20.9995 5.1036 20.9995H7.29769C8.05963 20.9995 8.75239 20.5588 9.07629 19.8695L9.78265 18.3662C11.7527 18.639 13.7511 18.6422 15.7219 18.3758L16.4237 19.8695C16.7476 20.5588 17.4404 20.9995 18.2023 20.9995H20.3745C20.6317 20.9995 20.8863 20.9489 21.124 20.8508C22.1278 20.4364 22.6049 19.2865 22.1917 18.2829L21.6633 16.9994H24C25.0127 16.9994 26.0002 16.216 26.0002 15.1134V13.9994C26.0002 12.2937 24.5196 11.0023 22.8184 11.0023H19.8693L19.7752 10.6914C19.3422 9.26019 18.7117 7.82638 17.5966 6.75169C16.4579 5.65425 14.8869 5 12.7201 5ZM21.2299 15.4994L20.3231 12.5023H22.8184C23.8033 12.5023 24.5002 13.23 24.5002 13.9994V15.1134C24.5002 15.2485 24.3304 15.4994 24 15.4994H21.2299ZM17.2556 18.1127C18.2376 17.908 19.2089 17.6352 20.1625 17.2942L20.8047 18.854C20.9032 19.0933 20.789 19.3663 20.5516 19.4643C20.4954 19.4875 20.4353 19.4995 20.3745 19.4995H18.2023C18.0225 19.4995 17.8583 19.3955 17.7813 19.2316L17.2556 18.1127ZM5.53095 17.3362C6.42433 17.6499 7.33301 17.904 8.25116 18.0984L7.71869 19.2316C7.64168 19.3955 7.47745 19.4995 7.29769 19.4995H5.1036C5.04295 19.4995 4.98286 19.4876 4.92673 19.4644C4.68931 19.3665 4.57492 19.0936 4.67332 18.8542L5.30602 17.3154C5.38044 17.3244 5.45543 17.3313 5.53095 17.3362ZM4.6466 14.5011L4.3755 15.3981C4.05269 15.164 3.8034 14.8528 3.65535 14.5011H4.6466Z" fill="#212121"/>
</svg>
