<?xml version="1.0" encoding="UTF-8"?>
<svg width="24px" height="24px" viewBox="0 0 24 24" version="1.1" xmlns="http://www.w3.org/2000/svg" xmlns:xlink="http://www.w3.org/1999/xlink">
    <!-- Generator: Sketch 58 (84663) - https://sketch.com -->
    <title>ic_warning_24_filled</title>
    <desc>Created with Sketch.</desc>
    <g id="ðŸ”-Product-Icons" stroke="none" stroke-width="1" fill="none" fill-rule="evenodd">
        <g id="ic_warning_24_filled" fill="#212121">
            <path d="M10.9084921,2.78216375 C11.9955258,2.18007284 13.3648319,2.57319671 13.9669228,3.66023048 L13.9669228,3.66023048 L21.725879,17.6684928 C21.9106772,18.0021332 22.0076302,18.3772743 22.0076302,18.7586748 C22.0076302,20.0013155 21.0002709,21.0086748 19.7576302,21.0086748 L19.7576302,21.0086748 L4.24187791,21.0086748 C3.86056733,21.0086748 3.48551176,20.9117674 3.15192815,20.7270522 C2.06482334,20.1250895 1.6715379,18.7558298 2.27350053,17.668725 L2.27350053,17.668725 L10.0302967,3.66046274 C10.2348245,3.291099 10.5391525,2.98673515 10.9084921,2.78216375 Z M12.0004478,16.0017852 C11.4489016,16.0017852 11.0017852,16.4489016 11.0017852,17.0004478 C11.0017852,17.5519939 11.4489016,17.9991104 12.0004478,17.9991104 C12.5519939,17.9991104 12.9991104,17.5519939 12.9991104,17.0004478 C12.9991104,16.4489016 12.5519939,16.0017852 12.0004478,16.0017852 Z M11.9982876,7.99806099 C11.4460029,7.99825986 10.9984489,8.44613625 10.9986476,8.99842097 L10.9986476,8.99842097 L11.0004479,13.9993002 L11.0072176,14.1159189 C11.0651617,14.6132367 11.487972,14.9991248 12.0008078,14.9989402 C12.5530925,14.9987413 13.0006465,14.5508649 13.0004478,13.9985802 L13.0004478,13.9985802 L12.9986476,8.99770102 L12.9918779,8.88108232 C12.9339337,8.38376446 12.5111234,7.99787644 11.9982876,7.99806099 Z" id="ðŸŽ¨-Color"></path>
        </g>
    </g>
</svg>