<svg width="20" height="20" viewBox="0 0 20 20" fill="none" xmlns="http://www.w3.org/2000/svg">
<path d="M14.5 10C16.9853 10 19 12.0147 19 14.5C19 16.9853 16.9853 19 14.5 19C12.0147 19 10 16.9853 10 14.5C10 12.0147 12.0147 10 14.5 10ZM10 2C11.6572 2.00004 13.001 3.34379 13.001 5.00098C13.0008 6.48767 11.9191 7.72191 10.5 7.95996V9.5H12.209C11.6605 9.75175 11.1611 10.091 10.7275 10.5H6.5C6.22386 10.5 6 10.7239 6 11V12.041C7.41954 12.2788 8.50098 13.5139 8.50098 15.001C8.5008 16.6579 7.15794 18.0008 5.50098 18.001C3.84387 18.001 2.50017 16.658 2.5 15.001C2.5 13.5144 3.58114 12.2803 5 12.042V11C5 10.1716 5.67157 9.5 6.5 9.5H9.5V7.95996C8.08085 7.72196 6.99918 6.48772 6.99902 5.00098C6.99902 3.34376 8.34278 2 10 2ZM14.5 12C14.2239 12 14 12.2239 14 12.5V14H12.5C12.2239 14 12 14.2239 12 14.5C12 14.7761 12.2239 15 12.5 15H14V16.5C14 16.7761 14.2239 17 14.5 17C14.7761 17 15 16.7761 15 16.5V15H16.5C16.7761 15 17 14.7761 17 14.5C17 14.2239 16.7761 14 16.5 14H15V12.5C15 12.2239 14.7761 12 14.5 12Z" fill="#212121"/>
</svg>
