<?xml version="1.0" encoding="UTF-8"?>
<svg width="24px" height="24px" viewBox="0 0 24 24" version="1.1" xmlns="http://www.w3.org/2000/svg" xmlns:xlink="http://www.w3.org/1999/xlink">
    <!-- Generator: Sketch 64 (93537) - https://sketch.com -->
    <title>ic_fluent_table_add_24_filled</title>
    <desc>Created with Sketch.</desc>
    <g id="ðŸ”-System-Icons" stroke="none" stroke-width="1" fill="none" fill-rule="evenodd">
        <g id="ic_fluent_table_add_24_filled" fill="#212121" fill-rule="nonzero">
            <path d="M17.5,12 C20.5376,12 23,14.4624 23,17.5 C23,20.5376 20.5376,23 17.5,23 C14.4624,23 12,20.5376 12,17.5 C12,14.4624 14.4624,12 17.5,12 Z M17.5,13.9993 C17.2545778,13.9993 17.0504,14.1762086 17.0080571,14.4094355 L17,14.4993 L17.0005,17 L14.4961,17 C14.22,17 13.9961,17.2239 13.9961,17.5 C13.9961,17.7455111 14.1730086,17.9496198 14.4062355,17.9919462 L14.4961,18 L17.0006,18 L17.0011,20.5035 C17.0011,20.7797 17.225,21.0035 17.5011,21.0035 C17.7466111,21.0035 17.9507198,20.8266704 17.9930462,20.5933908 L18.0011,20.5035 L18.0006,18 L20.503,18 C20.7792,18 21.003,17.7762 21.003,17.5 C21.003,17.2545778 20.8261704,17.0504 20.5928908,17.0080571 L20.503,17 L18.0005,17 L18,14.4993 C18,14.2232 17.7761,13.9993 17.5,13.9993 Z M11.1739,16 C11.0602,16.4815 11,16.9837 11,17.5 C11,18.6894769 11.3195266,19.8043976 11.8774103,20.7635139 L12.0218,21 L9.5,21 L9.5,16 L11.1739,16 Z M8,16 L8,21 L6.25,21 C4.51696414,21 3.10075377,19.6435215 3.00514477,17.9344215 L3,17.75 L3,16 L8,16 Z M14.5,9.5 L14.5,11.7322 C13.3176,12.3485 12.3485,13.3176 11.7322,14.5 L9.5,14.5 L9.5,9.5 L14.5,9.5 Z M8,9.5 L8,14.5 L3,14.5 L3,9.5 L8,9.5 Z M21,9.5 L21,12.0218 C19.9897,11.375 18.7886,11 17.5,11 C16.9837,11 16.4815,11.0602 16,11.1739 L16,9.5 L21,9.5 Z M17.75,3 C19.4830069,3 20.8992442,4.35645051 20.9948551,6.06557565 L21,6.25 L21,8 L16,8 L16,3 L17.75,3 Z M14.5,3 L14.5,8 L9.5,8 L9.5,3 L14.5,3 Z M8,3 L8,8 L3,8 L3,6.25 C3,4.51696414 4.35645051,3.10075377 6.06557565,3.00514477 L6.25,3 L8,3 Z" id="ðŸŽ¨-Color"></path>
        </g>
    </g>
</svg>