<svg width="32" height="32" viewBox="0 0 32 32" fill="none" xmlns="http://www.w3.org/2000/svg">
<path d="M15.8661 4.71967C16.6536 3.93221 18 4.48992 18 5.60355V26.3964C18 27.5101 16.6536 28.0678 15.8661 27.2803L11.1716 22.5858C10.7965 22.2107 10.2878 22 9.75736 22H6C3.79086 22 2 20.2091 2 18V14C2 11.7909 3.79086 10 6 10H9.75736C10.2878 10 10.7965 9.78928 11.1716 9.41421L15.8661 4.71967ZM16 7.41421L12.5858 10.8284C11.8356 11.5786 10.8182 12 9.75736 12H6C4.89543 12 4 12.8954 4 14V18C4 19.1046 4.89543 20 6 20H9.75736C10.8182 20 11.8356 20.4214 12.5858 21.1716L16 24.5858V7.41421ZM21.4335 9.17595C21.8886 8.86307 22.5112 8.97836 22.824 9.43347C24.2888 11.564 25.0625 13.7579 25.0625 16C25.0625 18.2421 24.2888 20.4359 22.824 22.5665C22.5112 23.0216 21.8886 23.1369 21.4335 22.824C20.9784 22.5112 20.8631 21.8886 21.176 21.4335C22.4612 19.564 23.0625 17.7579 23.0625 16C23.0625 14.2421 22.4612 12.4359 21.176 10.5665C20.8631 10.1114 20.9784 9.48884 21.4335 9.17595Z" fill="#212121"/>
</svg>
