<svg width="24" height="24" viewBox="0 0 24 24" fill="none" xmlns="http://www.w3.org/2000/svg">
<path d="M6.5 8.75C6.5 8.61193 6.61193 8.5 6.75 8.5H17.25C17.3881 8.5 17.5 8.61193 17.5 8.75V10.5H6.5V8.75ZM6.5 12V15.25C6.5 15.3881 6.61193 15.5 6.75 15.5H9V12H6.5ZM17.25 15.5H10.5V12H17.5V15.25C17.5 15.3881 17.3881 15.5 17.25 15.5ZM2 6.75C2 5.23122 3.23122 4 4.75 4H19.25C20.7688 4 22 5.23122 22 6.75V17.25C22 18.7688 20.7688 20 19.25 20H4.75C3.23122 20 2 18.7688 2 17.25V6.75ZM6.75 7C5.7835 7 5 7.7835 5 8.75V15.25C5 16.2165 5.7835 17 6.75 17H17.25C18.2165 17 19 16.2165 19 15.25V8.75C19 7.7835 18.2165 7 17.25 7H6.75Z" fill="#212121"/>
</svg>
