<svg width="16" height="16" viewBox="0 0 16 16" fill="none" xmlns="http://www.w3.org/2000/svg">
<path d="M5.89162 2.61129C6.53698 2.22403 7.34501 2 8.33303 2C9.38284 2 10.1351 2.32015 10.6416 2.69997C10.8885 2.88514 11.0651 3.07549 11.1852 3.22978C11.2452 3.30695 11.2914 3.37552 11.3255 3.43066C11.3426 3.45826 11.3567 3.48261 11.3681 3.50312C11.3738 3.51338 11.3789 3.52269 11.3832 3.53099L11.3893 3.54267L11.392 3.54793L11.3932 3.55041L11.3938 3.55161L11.3944 3.55279C11.6414 4.04676 11.4412 4.64744 10.9472 4.89443C10.4642 5.13596 9.87907 4.94982 9.62247 4.47954C9.61963 4.47533 9.61437 4.46783 9.6065 4.45772C9.58068 4.42451 9.52812 4.36486 9.44168 4.30003C9.28141 4.17985 8.95019 4 8.33303 4C7.65459 4 7.21275 4.15098 6.92071 4.32622C6.62716 4.50237 6.42917 4.73662 6.29084 4.98564C6.1493 5.24044 6.07391 5.50531 6.03538 5.71339C6.0165 5.81534 6.00755 5.89776 6.00338 5.95029C6.00131 5.97637 6.00046 5.99453 6.00013 6.0034L6.00001 6.0072L6.00001 9.66692C6.00002 10.7715 6.89545 11.6669 8.00002 11.6669C9.10459 11.6669 10 10.7715 10 9.66691V9.00002H9.00002C8.44774 9.00002 8.00002 8.5523 8.00002 8.00002C8.00002 7.44773 8.44774 7.00002 9.00002 7.00002H11C11.5523 7.00002 12 7.44773 12 8.00002V9.66691C12 11.8761 10.2092 13.6669 8.00002 13.6669C5.79088 13.6669 4.00002 11.8761 4.00001 9.66692L4.00001 6.00006L3.99991 5.99771C3.9998 7 4.00001 5.99891 4.00001 5.99891L3.99991 5.99771L4.00002 5.99511L4.00006 5.98904L4.00027 5.97351C4.00048 5.96167 4.00086 5.94688 4.00151 5.92933C4.00281 5.89426 4.00521 5.84796 4.00966 5.79202C4.01851 5.68047 4.03561 5.52851 4.06882 5.34921C4.13445 4.99478 4.2674 4.50964 4.54249 4.01442C4.8208 3.51342 5.24776 2.99766 5.89162 2.61129Z" fill="#212121"/>
</svg>
