<svg width="28" height="28" viewBox="0 0 28 28" fill="none" xmlns="http://www.w3.org/2000/svg">
<path d="M4.75391 4C3.23512 4 2.00391 5.23122 2.00391 6.75V9H24.5005V23.2501C24.5005 23.6643 24.8363 24.0001 25.2505 24.0001C25.6647 24.0001 26.0005 23.6643 26.0005 23.2501V6.75C26.0005 5.23122 24.7693 4 23.2505 4H4.75391ZM14 10.5H2.00391V20.2501C2.00391 22.3211 3.68284 24.0001 5.75391 24.0001H10.25C12.3211 24.0001 14 22.3211 14 20.2501V10.5ZM5.5 14.75C5.5 14.3358 5.83579 14 6.25 14H9.75C10.1642 14 10.5 14.3358 10.5 14.75C10.5 15.1642 10.1642 15.5 9.75 15.5H6.25C5.83579 15.5 5.5 15.1642 5.5 14.75Z" fill="#242424"/>
</svg>
