<svg width="28" height="28" viewBox="0 0 28 28" fill="none" xmlns="http://www.w3.org/2000/svg">
<path d="M4.75391 4C3.23512 4 2.00391 5.23122 2.00391 6.75V20.2501C2.00391 22.3211 3.68284 24.0001 5.75391 24.0001H10.25C12.3211 24.0001 14 22.3211 14 20.2501V10.5H24.5005V23.2501C24.5005 23.6643 24.8363 24.0001 25.2505 24.0001C25.6647 24.0001 26.0005 23.6643 26.0005 23.2501V6.75C26.0005 5.23122 24.7693 4 23.2505 4H4.75391ZM3.50391 10.5H12.5V20.2501C12.5 21.4927 11.4926 22.5001 10.25 22.5001H5.75391C4.51127 22.5001 3.50391 21.4927 3.50391 20.2501V10.5ZM3.50391 9V6.75C3.50391 6.05964 4.06355 5.5 4.75391 5.5H23.2505C23.9409 5.5 24.5005 6.05965 24.5005 6.75V9H3.50391ZM6.24976 13C5.83554 13 5.49976 13.3358 5.49976 13.75C5.49976 14.1642 5.83554 14.5 6.24976 14.5H9.74976C10.164 14.5 10.4998 14.1642 10.4998 13.75C10.4998 13.3358 10.164 13 9.74976 13H6.24976Z" fill="#242424"/>
</svg>
