<svg width="28" height="28" viewBox="0 0 28 28" fill="none" xmlns="http://www.w3.org/2000/svg">
<path d="M14 21.25C14 22.7688 12.7688 24 11.25 24H4.75C3.23122 24 2 22.7688 2 21.25L2.00391 10.5H14V21.25ZM23.251 4C24.7695 4.00025 26.001 5.23137 26.001 6.75V23.25C26.001 23.6641 25.665 23.9998 25.251 24C24.8368 24 24.501 23.6642 24.501 23.25V9H2.00391V6.75C2.00391 5.23122 3.23512 4 4.75391 4H23.251ZM6.25 14C5.83579 14 5.5 14.3358 5.5 14.75C5.5 15.1642 5.83579 15.5 6.25 15.5H9.75C10.1642 15.5 10.5 15.1642 10.5 14.75C10.5 14.3358 10.1642 14 9.75 14H6.25Z" fill="#212121"/>
</svg>
