<svg width="48" height="48" viewBox="0 0 48 48" fill="none" xmlns="http://www.w3.org/2000/svg">
<path d="M24 35.75C24 38.0972 22.0972 40 19.75 40H8.25C5.90279 40 4 38.0972 4 35.75C4 29.9993 4 24.2583 4 18.5H24C24 24.2583 24 29.9993 24 35.75ZM39.75 8C42.0972 8 44 9.90279 44 12.25V38.75C44 39.4404 43.4404 40 42.75 40C42.0596 40 41.5 39.4404 41.5 38.75V16H4V12.25C4 9.90279 5.90279 8 8.25 8H39.75ZM11.25 24C10.5596 24 10 24.5596 10 25.25C10 25.9404 10.5596 26.5 11.25 26.5H16.75C17.4404 26.5 18 25.9404 18 25.25C18 24.5596 17.4404 24 16.75 24H11.25Z" fill="#212121"/>
</svg>
