<svg width="20" height="20" viewBox="0 0 20 20" fill="none" xmlns="http://www.w3.org/2000/svg">
<path d="M14.5775 1.43934C15.1633 0.853555 16.1131 0.853553 16.6988 1.43934L18.5608 3.30129C19.1466 3.88707 19.1466 4.83682 18.5608 5.4226L13.4226 10.5607C12.8369 11.1465 11.8871 11.1465 11.3013 10.5607L9.43934 8.69876C8.85355 8.11298 8.85355 7.16324 9.43934 6.57745L14.5775 1.43934ZM10.1465 7.28456C9.95119 7.47982 9.95119 7.7964 10.1465 7.99166L12.0084 9.85362C12.2037 10.0489 12.5203 10.0489 12.7155 9.85361L14.0053 8.56388L11.4362 5.99482L10.1465 7.28456ZM12.5998 2.00326C12.5668 2.0011 12.5335 2 12.5 2H5.5C4.67157 2 4 2.67157 4 3.5V16.5C4 17.3284 4.67157 18 5.5 18H12.5C13.3284 18 14 17.3284 14 16.5V11.3892C13.0179 12.2422 11.5287 12.2017 10.5947 11.2677L8.73272 9.40578C7.75641 8.42947 7.75641 6.84657 8.73272 5.87026L12.5998 2.00326ZM10.5 14.5C10.5 14.7761 10.2761 15 10 15H8C7.72386 15 7.5 14.7761 7.5 14.5C7.5 14.2239 7.72386 14 8 14H10C10.2761 14 10.5 14.2239 10.5 14.5Z" fill="#212121"/>
</svg>
