<svg width="17" height="16" viewBox="0 0 17 16" fill="none" xmlns="http://www.w3.org/2000/svg">
<path d="M11.3552 1.3534C11.941 0.767615 12.8907 0.767616 13.4765 1.3534L15.0623 2.93919C15.6481 3.52497 15.6481 4.47472 15.0623 5.06051L10.4765 9.64629C9.89074 10.2321 8.94099 10.2321 8.3552 9.64629L6.76942 8.06051C6.18363 7.47472 6.18363 6.52498 6.76942 5.93919L11.3552 1.3534ZM10.7088 7.99985L8.41586 5.70696L7.47652 6.6463C7.28126 6.84156 7.28126 7.15814 7.47652 7.3534L9.06231 8.93919C9.25757 9.13445 9.57416 9.13445 9.76942 8.93919L10.7088 7.99985Z" fill="#212121"/>
<path d="M6.14825 8.76749C5.17194 7.79118 5.17194 6.20827 6.14825 5.23196L10.2724 1.10779C10.0835 1.038 9.8792 0.999878 9.66602 0.999878H5.16602C4.19952 0.999878 3.41602 1.78338 3.41602 2.74988V13.2499C3.41602 14.2164 4.19952 14.9999 5.16602 14.9999H9.66602C10.6325 14.9999 11.416 14.2164 11.416 13.2499V10.2068L11.2696 10.3533C10.2933 11.3296 8.71035 11.3296 7.73404 10.3533L6.14825 8.76749ZM6.41602 11.9999H8.41602C8.69216 11.9999 8.91602 12.2237 8.91602 12.4999C8.91602 12.776 8.69216 12.9999 8.41602 12.9999H6.41602C6.13987 12.9999 5.91602 12.776 5.91602 12.4999C5.91602 12.2237 6.13987 11.9999 6.41602 11.9999Z" fill="#212121"/>
</svg>
