<svg width="32" height="32" viewBox="0 0 32 32" fill="none" xmlns="http://www.w3.org/2000/svg">
<path d="M23.9999 13.5C23.9999 19.299 19.2989 24 13.4999 24C7.70095 24 2.99994 19.299 2.99994 13.5C2.99994 7.70101 7.70095 3 13.4999 3C19.2989 3 23.9999 7.70101 23.9999 13.5Z" fill="url(#paint0_linear_75684_7953)"/>
<path d="M20.7006 22.4672C18.7298 24.0518 16.2256 25 13.5 25C7.14873 25 2 19.8513 2 13.5C2 7.14873 7.14873 2 13.5 2C19.8513 2 25 7.14873 25 13.5C25 16.225 24.0522 18.7287 22.4682 20.6993L28.635 26.866C29.1231 27.3542 29.1231 28.1456 28.635 28.6338C28.1468 29.122 27.3553 29.122 26.8672 28.6338L20.7006 22.4672ZM22.5 13.5C22.5 8.52944 18.4706 4.5 13.5 4.5C8.52944 4.5 4.5 8.52944 4.5 13.5C4.5 18.4706 8.52944 22.5 13.5 22.5C18.4706 22.5 22.5 18.4706 22.5 13.5Z" fill="url(#paint1_linear_75684_7953)"/>
<path d="M28.7395 12.6558L27.821 12.3575C27.5417 12.2648 27.288 12.1082 27.0799 11.9003C26.8718 11.6924 26.7151 11.4388 26.6223 11.1598L26.3238 10.2419C26.2988 10.1712 26.2525 10.1099 26.1912 10.0666C26.1299 10.0233 26.0567 10 25.9816 10C25.9066 10 25.8333 10.0233 25.7721 10.0666C25.7108 10.1099 25.6645 10.1712 25.6395 10.2419L25.341 11.1598C25.25 11.4368 25.0961 11.6891 24.8913 11.8969C24.6866 12.1047 24.4365 12.2623 24.1606 12.3575L23.2421 12.6558C23.1713 12.6808 23.11 12.7271 23.0667 12.7883C23.0233 12.8495 23 12.9227 23 12.9977C23 13.0727 23.0233 13.1459 23.0667 13.2071C23.11 13.2684 23.1713 13.3146 23.2421 13.3396L24.1606 13.6379C24.4404 13.7311 24.6945 13.8884 24.9026 14.0971C25.1107 14.3059 25.2671 14.5604 25.3593 14.8402L25.6578 15.7581C25.6828 15.8288 25.7291 15.8901 25.7904 15.9334C25.8517 15.9767 25.9249 16 26 16C26.0751 16 26.1483 15.9767 26.2096 15.9334C26.2709 15.8901 26.3172 15.8288 26.3422 15.7581L26.6407 14.8402C26.7335 14.5612 26.8902 14.3077 27.0983 14.0997C27.3064 13.8918 27.5601 13.7352 27.8394 13.6425L28.7579 13.3442C28.8287 13.3192 28.89 13.2729 28.9333 13.2117C28.9767 13.1505 29 13.0773 29 13.0023C29 12.9273 28.9767 12.8541 28.9333 12.7929C28.89 12.7316 28.8287 12.6854 28.7579 12.6604L28.7395 12.6558Z" fill="url(#paint2_radial_75684_7953)"/>
<path d="M18.7746 7.83723C18.6862 7.72306 18.5905 7.6142 18.4881 7.5114C18.1065 7.12868 17.6407 6.84036 17.1278 6.66946L15.4439 6.12259C15.3141 6.07684 15.2017 5.99198 15.1222 5.87972C15.0427 5.76746 15 5.63332 15 5.49579C15 5.35827 15.0427 5.22413 15.1222 5.11187C15.2017 4.9996 15.3141 4.91475 15.4439 4.86899L17.1278 4.32212C17.6336 4.14763 18.0921 3.85862 18.4675 3.47768C18.8326 3.10718 19.1094 2.65949 19.2778 2.16788L19.2918 2.12622L19.839 0.443537C19.8848 0.313845 19.9698 0.201538 20.0821 0.122099C20.1944 0.0426599 20.3287 0 20.4663 0C20.604 0 20.7382 0.0426599 20.8505 0.122099C20.9629 0.201538 21.0478 0.313845 21.0936 0.443537L21.6409 2.12622C21.8111 2.63779 22.0983 3.10264 22.4798 3.48384C22.8613 3.86504 23.3265 4.15207 23.8385 4.32212L25.5224 4.86899L25.5561 4.87741C25.6859 4.92316 25.7983 5.00802 25.8778 5.12028C25.9573 5.23254 26 5.36668 26 5.50421C26 5.64173 25.9573 5.77587 25.8778 5.88813C25.7983 6.0004 25.6859 6.08525 25.5561 6.13101L23.8722 6.67788C23.3602 6.84793 22.895 7.13496 22.5135 7.51616C22.132 7.89736 21.8448 8.36221 21.6746 8.87378L21.1273 10.5565C21.1223 10.5705 21.1169 10.5842 21.1111 10.5978C21.0629 10.71 20.9845 10.807 20.8842 10.8779C20.7719 10.9573 20.6376 11 20.5 11C20.3624 11 20.2281 10.9573 20.1158 10.8779C20.0034 10.7985 19.9185 10.6862 19.8727 10.5565L19.3254 8.87378C19.2018 8.49849 19.0152 8.14812 18.7746 7.83723Z" fill="url(#paint3_radial_75684_7953)"/>
<defs>
<linearGradient id="paint0_linear_75684_7953" x1="18.75" y1="6.5" x2="3" y2="24" gradientUnits="userSpaceOnUse">
<stop stop-color="#FDFDFD"/>
<stop offset="1" stop-color="#B3E0FF"/>
</linearGradient>
<linearGradient id="paint1_linear_75684_7953" x1="3.42111" y1="26.1578" x2="26.1581" y2="7.68323" gradientUnits="userSpaceOnUse">
<stop stop-color="#0094F0"/>
<stop offset="1" stop-color="#29C3FF"/>
</linearGradient>
<radialGradient id="paint2_radial_75684_7953" cx="0" cy="0" r="1" gradientUnits="userSpaceOnUse" gradientTransform="translate(12.65 -12.575) rotate(63.379) scale(34.3364 26.737)">
<stop offset="0.718021" stop-color="#FFCD0F"/>
<stop offset="0.990707" stop-color="#E67505"/>
</radialGradient>
<radialGradient id="paint3_radial_75684_7953" cx="0" cy="0" r="1" gradientUnits="userSpaceOnUse" gradientTransform="translate(1.34821 -27.6964) rotate(61.1996) scale(47.2968 36.829)">
<stop offset="0.698225" stop-color="#FFCD0F"/>
<stop offset="0.990707" stop-color="#E67505"/>
</radialGradient>
</defs>
</svg>
