<svg width="20" height="20" viewBox="0 0 20 20" fill="none" xmlns="http://www.w3.org/2000/svg">
<path d="M8.03711 3.16699C8.01223 3.27312 8 3.38325 8 3.49609C8 3.73436 8.05675 3.95999 8.16504 4.16309C5.77256 4.7596 4 6.92282 4 9.5C4 12.5376 6.46243 15 9.5 15C10.8388 15 12.0658 14.5216 13.0195 13.7266C13.276 13.5128 13.5128 13.276 13.7266 13.0195C14.0768 12.5994 14.3646 12.1257 14.5781 11.6133C14.6326 11.6691 14.6909 11.7222 14.7559 11.7695C14.9747 11.9189 15.2335 11.9981 15.502 11.999L15.4971 12H15.501C15.2369 12.6332 14.8766 13.2164 14.4365 13.7295L17.8535 17.1465C18.0487 17.3417 18.0487 17.6583 17.8535 17.8535C17.68 18.0271 17.4107 18.0461 17.2158 17.9111L17.1465 17.8535L13.7295 14.4365C12.5927 15.4114 11.115 16 9.5 16C5.91015 16 3 13.0899 3 9.5C3 6.4133 5.15192 3.83075 8.03711 3.16699ZM15.4844 6C15.5469 6 15.6081 6.01957 15.6592 6.05566C15.7101 6.09167 15.7487 6.14242 15.7695 6.20117L16.0186 6.9668C16.0959 7.19922 16.2271 7.41078 16.4004 7.58398C16.5737 7.75703 16.7851 7.88761 17.0176 7.96484L17.7832 8.21289L17.7979 8.2168C17.8568 8.23756 17.9082 8.27623 17.9443 8.32715C17.9805 8.37818 18 8.43944 18 8.50195C18 8.56445 17.9805 8.62574 17.9443 8.67676C17.9082 8.72765 17.8567 8.76635 17.7979 8.78711L17.0332 9.03516C16.8005 9.11244 16.5884 9.24281 16.415 9.41602C16.2417 9.58919 16.1116 9.80083 16.0342 10.0332L15.7852 10.7988C15.7643 10.8576 15.7257 10.9083 15.6748 10.9443C15.6237 10.9804 15.5626 11 15.5 11C15.4374 11 15.3763 10.9804 15.3252 10.9443C15.2743 10.9083 15.2357 10.8576 15.2148 10.7988L14.9658 10.0332C14.889 9.80017 14.7592 9.58791 14.5859 9.41406C14.4125 9.2401 14.1999 9.10893 13.9668 9.03125L13.2021 8.7832C13.1432 8.76244 13.0918 8.72377 13.0557 8.67285C13.0195 8.62182 13 8.56056 13 8.49805C13 8.43555 13.0195 8.37426 13.0557 8.32324C13.0918 8.27236 13.1433 8.23365 13.2021 8.21289L13.9668 7.96484C14.1966 7.88555 14.4056 7.75415 14.5762 7.58105C14.7468 7.40795 14.8753 7.19762 14.9512 6.9668L15.1992 6.20117C15.22 6.14249 15.2588 6.0917 15.3096 6.05566C15.3606 6.01962 15.4219 6.00007 15.4844 6ZM12.4785 0C12.5661 0 12.6512 0.0276075 12.7227 0.078125C12.7942 0.128677 12.8488 0.199695 12.8779 0.282227L13.2256 1.35352C13.3339 1.67888 13.5171 1.97432 13.7598 2.2168C14.0024 2.45924 14.2984 2.64176 14.624 2.75L15.6963 3.09863L15.7178 3.10352C15.8003 3.13264 15.8713 3.18738 15.9219 3.25879C15.9724 3.33021 16 3.41546 16 3.50293C15.9999 3.59036 15.9724 3.6757 15.9219 3.74707C15.8713 3.81832 15.8002 3.87226 15.7178 3.90137L14.6455 4.25C14.3199 4.35824 14.0239 4.54075 13.7812 4.7832C13.5386 5.02568 13.3554 5.32112 13.2471 5.64648L12.8994 6.71777C12.8703 6.80031 12.8156 6.87132 12.7441 6.92188C12.6727 6.97241 12.5876 7 12.5 7C12.4124 7 12.3273 6.97241 12.2559 6.92188C12.249 6.91702 12.2419 6.91246 12.2354 6.90723C12.1741 6.85803 12.1269 6.79217 12.1006 6.71777L11.7529 5.64648C11.7342 5.5898 11.7126 5.53427 11.6895 5.47949C11.5795 5.21896 11.4202 4.98141 11.2197 4.78027C11.1817 4.74208 11.1422 4.7051 11.1016 4.66992C10.8833 4.48092 10.6295 4.33582 10.3545 4.24414L9.28223 3.89648C9.19968 3.86736 9.12869 3.81261 9.07812 3.74121C9.02759 3.66979 9 3.58454 9 3.49707C9.00005 3.40964 9.02758 3.3243 9.07812 3.25293C9.12865 3.18168 9.19983 3.12774 9.28223 3.09863L10.3545 2.75C10.6761 2.63894 10.9683 2.45518 11.207 2.21289C11.4457 1.97062 11.6253 1.6765 11.7314 1.35352L12.0791 0.282227C12.1082 0.199695 12.1629 0.128677 12.2344 0.078125C12.3059 0.027586 12.391 1.0639e-05 12.4785 0Z" fill="#212121"/>
</svg>
