<svg width="48" height="48" viewBox="0 0 48 48" fill="none" xmlns="http://www.w3.org/2000/svg">
<path d="M8.94425 9.89312C8.17485 9.58599 7.80011 8.71331 8.10723 7.94391C8.41435 7.17452 9.28704 6.79977 10.0564 7.10689L41.6092 19.7019C43.6865 20.5311 43.7128 23.4621 41.6508 24.3285L12.393 36.6217L20.121 40.1345C20.8752 40.4773 21.2087 41.3665 20.8659 42.1207C20.5231 42.8749 19.6338 43.2084 18.8796 42.8656L7.87964 37.8656C7.14239 37.5304 6.80425 36.6706 7.11573 35.9231L12.1157 23.9231C12.4344 23.1584 13.3126 22.7968 14.0773 23.1154C14.842 23.434 15.2036 24.3122 14.885 25.0769L11.2262 33.8579L39.3634 22.0356L8.94425 9.89312Z" fill="#212121"/>
</svg>
