<svg width="32" height="32" viewBox="0 0 32 32" fill="none" xmlns="http://www.w3.org/2000/svg">
<path d="M24.8779 26.5068C25.5082 26.5709 26 27.1028 26 27.75C26 28.3972 25.5082 28.9291 24.8779 28.9932L24.75 29H7.25C6.55964 29 6 28.4404 6 27.75C6 27.0596 6.55964 26.5 7.25 26.5H24.75L24.8779 26.5068ZM15.2109 7.28027C15.7019 6.87979 16.4261 6.90855 16.8838 7.36621L20.6338 11.1162L20.7197 11.2109C21.1202 11.7019 21.0915 12.4261 20.6338 12.8838C20.1761 13.3415 19.4519 13.3702 18.9609 12.9697L18.8662 12.8838L17.25 11.2676V20.7324L18.8662 19.1162C19.3544 18.6281 20.1456 18.6281 20.6338 19.1162C21.1219 19.6044 21.1219 20.3956 20.6338 20.8838L16.8838 24.6338C16.3956 25.1219 15.6044 25.1219 15.1162 24.6338L11.3662 20.8838L11.2803 20.7891C10.8798 20.2981 10.9085 19.5739 11.3662 19.1162C11.8239 18.6585 12.5481 18.6298 13.0391 19.0303L13.1338 19.1162L14.75 20.7324V11.2676L13.1338 12.8838C12.6456 13.3719 11.8544 13.3719 11.3662 12.8838C10.8781 12.3956 10.8781 11.6044 11.3662 11.1162L15.1162 7.36621L15.2109 7.28027ZM24.8779 3.00684C25.5082 3.07092 26 3.60285 26 4.25C26 4.89715 25.5082 5.42908 24.8779 5.49316L24.75 5.5H7.25C6.55964 5.5 6 4.94036 6 4.25C6 3.55964 6.55964 3 7.25 3H24.75L24.8779 3.00684Z" fill="#212121"/>
</svg>
