<svg width="16" height="16" viewBox="0 0 16 16" fill="none" xmlns="http://www.w3.org/2000/svg">
<path d="M11.0937 11.8008L14.1464 14.8536C14.3417 15.0488 14.6583 15.0488 14.8536 14.8536C15.0488 14.6583 15.0488 14.3417 14.8536 14.1464L1.85355 1.14645C1.65829 0.951184 1.34171 0.951184 1.14645 1.14645C0.951184 1.34171 0.951184 1.65829 1.14645 1.85355L3.79642 4.50353C3.26793 4.5486 2.76797 4.6896 2.39117 4.89853C2.02892 5.0994 1.89808 5.55589 2.09895 5.91814C2.29981 6.2804 2.75631 6.41123 3.11856 6.21037C3.44414 6.02984 4.12523 5.90891 4.70423 6.04838C4.97825 6.11438 5.17348 6.22578 5.2959 6.35924C5.34992 6.41814 5.4009 6.49308 5.43898 6.59273C5.36346 6.58319 5.28529 6.57425 5.20511 6.56623C4.86661 6.53239 4.47736 6.51352 4.09271 6.54099C3.71614 6.56788 3.29383 6.64232 2.92017 6.8291C2.31585 7.13118 1.8675 7.53344 1.63088 8.0743C1.39871 8.605 1.42155 9.15446 1.52007 9.64705C1.64253 10.2593 2.08438 11.0419 3.01961 11.3701C3.70326 11.6101 4.53683 11.5666 5.52735 11.1829C5.60903 11.5086 5.90377 11.7499 6.25486 11.7499C6.66908 11.7499 7.00486 11.4133 7.00486 10.999V10.0332C7.00589 10.0107 7.00589 9.98801 7.00486 9.96534V7.71197L7.73751 8.44462C7.46377 8.96551 7.37272 9.57378 7.58511 10.2307C7.80422 10.9085 8.30198 11.3327 8.88176 11.5297C9.39204 11.703 9.95524 11.7009 10.4785 11.5959C10.6385 11.7504 10.8638 11.8301 11.0937 11.8008ZM5.0559 8.05879C5.21659 8.07486 5.36893 8.09556 5.50486 8.11703V9.55237C4.43009 10.0924 3.81762 10.0605 3.5164 9.95479C3.19329 9.84138 3.03515 9.57392 2.99094 9.35287C2.92279 9.01213 2.94563 8.81151 3.00513 8.67551C3.06018 8.54967 3.19517 8.3686 3.59084 8.17082C3.71718 8.10767 3.91987 8.05715 4.19955 8.03718C4.47114 8.01778 4.7694 8.03015 5.0559 8.05879ZM14.057 9.402C14.0851 9.78721 13.8807 10.3794 12.979 10.8576L14.0704 11.949C15.0963 11.2694 15.6279 10.3177 15.553 9.29273C15.4764 8.2442 14.7748 7.3662 13.7592 6.90224L13.7597 6.88324C13.7611 6.82605 13.7606 6.77981 13.7593 6.74363C13.7586 6.72554 13.7578 6.70995 13.7569 6.69676L13.7555 6.67874L13.7548 6.67105L13.7545 6.66753L13.7543 6.66586L13.7542 6.66423C13.7122 6.25215 13.3441 5.9521 12.9321 5.99406C12.619 6.02594 12.3706 6.24603 12.2877 6.53065C11.8992 6.48981 11.5169 6.48716 11.1481 6.51881C11.1582 6.34249 11.1727 6.16333 11.1914 5.98022C11.8378 5.90448 12.529 5.74728 13.2709 5.45971C13.6571 5.31001 13.8489 4.87556 13.6992 4.48935C13.5495 4.10313 13.115 3.9114 12.7288 4.0611C12.2742 4.2373 11.8437 4.35475 11.4304 4.42915C11.4483 4.33862 11.467 4.24684 11.4865 4.15371C11.5714 3.74829 11.3116 3.35081 10.9061 3.2659C10.5007 3.18099 10.1032 3.44081 10.0183 3.84623C9.96877 4.08287 9.92405 4.31221 9.88413 4.53532C9.5294 4.52474 9.1822 4.49447 8.83708 4.45732C8.42525 4.41299 8.05545 4.71091 8.01112 5.12275C7.9668 5.53458 8.26472 5.90438 8.67655 5.94871C8.9975 5.98325 9.33165 6.01358 9.68032 6.02888C9.6551 6.31494 9.63942 6.59341 9.63309 6.86743C9.47958 6.92797 9.33174 6.99533 9.19041 7.06905L11.3321 9.21076C11.2558 8.80402 11.2007 8.41293 11.1675 8.024C11.4536 7.99202 11.7569 7.98748 12.0708 8.01641C12.0125 8.26309 11.9363 8.55142 11.837 8.88537C11.7845 9.06187 11.6757 9.23882 11.5241 9.4027L12.5863 10.465C12.8974 10.1419 13.1429 9.75648 13.2748 9.31291C13.3666 9.0041 13.4414 8.72706 13.5022 8.47942C13.8577 8.74712 14.0346 9.09479 14.057 9.402Z" fill="#212121"/>
</svg>
