<svg width="16" height="16" viewBox="0 0 16 16" fill="none" xmlns="http://www.w3.org/2000/svg">
<path d="M1.00001 3.75C1.00001 3.33579 1.3358 3 1.75001 3H14.25C14.6642 3 15 3.33579 15 3.75C15 4.16421 14.6642 4.5 14.25 4.5H1.75001C1.3358 4.5 1.00001 4.16421 1.00001 3.75ZM7.64833 8.45073C8.24619 8.70111 8.95987 9 9.97223 9C10.856 9 11.5362 8.76613 12.0844 8.57762C12.1596 8.55176 12.2323 8.52675 12.3028 8.50331C12.8766 8.31238 13.3778 8.18705 14.1158 8.32124C14.5234 8.39533 14.9138 8.12503 14.9879 7.7175C15.062 7.30997 14.7917 6.91953 14.3842 6.84543C13.2889 6.64628 12.5077 6.85429 11.8292 7.08002C11.7461 7.10767 11.6659 7.13492 11.5879 7.16147C11.0378 7.34848 10.5921 7.5 9.97223 7.5C9.27391 7.5 8.79831 7.30605 8.20634 7.05819L8.18502 7.04927C7.58717 6.79889 6.87349 6.5 5.86112 6.5C4.84876 6.5 4.13508 6.79888 3.53723 7.04926L3.51591 7.05819C2.92394 7.30605 2.44833 7.5 1.75001 7.5C1.3358 7.5 1.00001 7.83579 1.00001 8.25C1.00001 8.66421 1.3358 9 1.75001 9C2.76238 9 3.47605 8.70111 4.07391 8.45073L4.09522 8.44181C4.6872 8.19395 5.1628 8 5.86112 8C6.55944 8 7.03505 8.19395 7.62702 8.44181L7.64833 8.45073ZM2.31543 13.2428L2.31359 13.2448C2.04145 13.5549 1.56962 13.587 1.25795 13.316C0.945345 13.0443 0.912237 12.5705 1.184 12.2579L1.18543 12.2563C1.20525 12.2337 1.22571 12.2117 1.24643 12.1899C1.28095 12.1536 1.32913 12.1048 1.38986 12.0476C1.51061 11.934 1.68476 11.7837 1.90324 11.6328C2.32951 11.3385 2.98564 11 3.77704 11C4.18344 11 4.52169 11.0903 4.80962 11.2658C5.06474 11.4212 5.23958 11.623 5.34197 11.7411L5.35657 11.7579C5.47393 11.8929 5.51197 11.9289 5.552 11.9533C5.5718 11.9653 5.63163 12 5.80407 12C6.15619 12 6.42612 11.8591 6.87437 11.6004L6.91214 11.5786C7.32814 11.3381 7.91286 11 8.69446 11C9.48774 11 10.0499 11.3475 10.4442 11.5913L10.4773 11.6118C10.8916 11.8675 11.1303 12 11.4722 12C11.8798 12 12.4492 11.8108 12.9848 11.5673C13.2379 11.4522 13.459 11.3364 13.6166 11.2495C13.695 11.2062 13.757 11.1705 13.7983 11.1462C13.8172 11.1352 13.836 11.124 13.8547 11.1127L13.8561 11.1118C14.2085 10.8944 14.6707 11.0037 14.8882 11.3561C15.1058 11.7085 14.9964 12.1706 14.6439 12.3882L14.6412 12.3899C14.6136 12.4068 14.5858 12.4233 14.5579 12.4397C14.5062 12.4701 14.4325 12.5125 14.341 12.563C14.1586 12.6636 13.9023 12.7978 13.6057 12.9327C13.0418 13.1892 12.2223 13.5 11.4722 13.5C10.6789 13.5 10.1168 13.1525 9.72253 12.9087L9.68941 12.8882C9.27511 12.6325 9.03636 12.5 8.69446 12.5C8.34233 12.5 8.0724 12.6409 7.62415 12.8996L7.58638 12.9214C7.17038 13.1619 6.58566 13.5 5.80407 13.5C5.39767 13.5 5.05941 13.4097 4.77149 13.2342C4.51637 13.0788 4.34153 12.877 4.23914 12.7589L4.22454 12.7421C4.10717 12.6071 4.06913 12.5711 4.0291 12.5467C4.00931 12.5347 3.94948 12.5 3.77704 12.5C3.41077 12.5 3.05338 12.6615 2.75556 12.8672C2.61199 12.9663 2.49644 13.066 2.41801 13.1399C2.35977 13.1947 2.32404 13.2333 2.31543 13.2428Z" fill="#212121"/>
</svg>
