<svg width="16" height="16" viewBox="0 0 16 16" fill="none" xmlns="http://www.w3.org/2000/svg">
<path d="M9.5 2C8.94772 2 8.5 2.44772 8.5 3C8.5 3.55228 8.94772 4 9.5 4C10.0523 4 10.5 3.55228 10.5 3C10.5 2.44772 10.0523 2 9.5 2ZM11.5 3C11.5 3.93192 10.8626 4.71497 10 4.93699V7C10 8.10457 10.8954 9 12 9C13.1046 9 14 8.10457 14 7H12.5C12.2978 7 12.1155 6.87818 12.0381 6.69134C11.9607 6.5045 12.0034 6.28945 12.1464 6.14645L14.1464 4.14645C14.2894 4.00345 14.5045 3.96067 14.6913 4.03806C14.8782 4.11545 15 4.29777 15 4.5V7C15 8.65685 13.6569 10 12 10C10.3431 10 9 8.65685 9 7V4.93699C8.13739 4.71497 7.5 3.93192 7.5 3C7.5 1.89543 8.39543 1 9.5 1C10.6046 1 11.5 1.89543 11.5 3ZM6.5 3H4C2.89543 3 2 3.89543 2 5V5.2013L8.0001 8.43212L8.22062 8.31338C8.07767 7.90199 8 7.46007 8 7V5.59865C7.1033 5.07994 6.5 4.11042 6.5 3ZM8.66524 9.20972C9.38166 10.2887 10.6078 11 12 11C12.7286 11 13.4117 10.8052 14 10.4649V11C14 12.1046 13.1046 13 12 13H4C2.89543 13 2 12.1046 2 11V6.33706L7.76305 9.44024C7.91104 9.51992 8.08916 9.51992 8.23715 9.44024L8.66524 9.20972Z" fill="#212121"/>
</svg>
