<svg width="32" height="32" viewBox="0 0 32 32" fill="none" xmlns="http://www.w3.org/2000/svg">
<path d="M21 4.5C20.1716 4.5 19.5 5.17157 19.5 6C19.5 6.82843 20.1716 7.5 21 7.5C21.8284 7.5 22.5 6.82843 22.5 6C22.5 5.17157 21.8284 4.5 21 4.5ZM24.5 6C24.5 7.58551 23.4457 8.92479 22 9.35506V12.5C22 14.1569 23.3431 15.5 25 15.5C26.4865 15.5 27.7205 14.4189 27.9585 13H26C25.5955 13 25.2309 12.7564 25.0761 12.3827C24.9213 12.009 25.0069 11.5789 25.2929 11.2929L28.2929 8.29289C28.5789 8.0069 29.009 7.92134 29.3827 8.07612C29.7564 8.2309 30 8.59554 30 9V12.5C30 15.2614 27.7614 17.5 25 17.5C22.2386 17.5 20 15.2614 20 12.5V9.35506C18.5543 8.92479 17.5 7.58551 17.5 6C17.5 4.067 19.067 2.5 21 2.5C22.933 2.5 24.5 4.067 24.5 6ZM25 19C23.0961 19 21.3834 18.1815 20.1947 16.8771L16.4741 18.8805C16.1781 19.0398 15.8219 19.0398 15.5259 18.8805L2.51432 11.8742L2 11.5884V22.5C2 24.9853 4.01472 27 6.5 27H25.5C27.9853 27 30 24.9853 30 22.5V16.6536C28.8077 18.0873 27.0104 19 25 19ZM16 6C16 5.65753 16.0344 5.32311 16.1 5H6.5C4.08078 5 2.10744 6.90904 2.00424 9.30284L3.4799 10.1227L16 16.8642L19.0866 15.2022C18.7099 14.3793 18.5 13.4642 18.5 12.5V10.3311C17.0055 9.46657 16 7.85071 16 6Z" fill="#212121"/>
</svg>
