<svg width="16" height="16" viewBox="0 0 16 16" fill="none" xmlns="http://www.w3.org/2000/svg">
<path d="M10.5289 1.76386C11.5525 0.740171 13.2123 0.740172 14.236 1.76386C15.2596 2.78755 15.2596 4.44728 14.236 5.47097L13.6887 6.01818C13.3633 5.78619 13.0114 5.58876 12.6386 5.43127L9.75002 2.54269L10.5289 1.76386ZM10.5 5C10.6011 5 10.7015 5.00273 10.8012 5.00811L9.04292 3.24979L2.65722 9.63549C2.28304 10.0097 2.01623 10.4775 1.88467 10.99L1.01571 14.3755C0.971767 14.5467 1.02148 14.7284 1.14646 14.8534C1.27144 14.9783 1.45312 15.028 1.62432 14.9841L5.00978 14.1151C5.36509 14.0239 5.6989 13.8678 5.99492 13.6559C5.36798 12.7625 5 11.6742 5 10.5C5 7.46243 7.46243 5 10.5 5ZM6 10.5C6 12.9853 8.01472 15 10.5 15C12.9853 15 15 12.9853 15 10.5C15 8.01472 12.9853 6 10.5 6C8.01472 6 6 8.01472 6 10.5ZM7 10.5C7 8.567 8.567 7 10.5 7C11.2862 7 12.0118 7.2592 12.5961 7.69681L7.69681 12.5961C7.2592 12.0118 7 11.2862 7 10.5ZM10.5 14C9.71383 14 8.9882 13.7408 8.40391 13.3032L13.3032 8.40391C13.7408 8.9882 14 9.71383 14 10.5C14 12.433 12.433 14 10.5 14Z" fill="#212121"/>
</svg>
