<svg width="24" height="24" viewBox="0 0 24 24" fill="none" xmlns="http://www.w3.org/2000/svg">
<path d="M15.8911 3.04825C17.2885 1.65064 19.5543 1.65058 20.9519 3.0481C22.3493 4.4455 22.3493 6.71112 20.952 8.10861L20.0601 9.0006L14.9995 3.93994L15.8911 3.04825ZM13.9389 5.00066L3.94103 14.9997C3.5347 15.4061 3.2491 15.9172 3.116 16.4762L2.02041 21.0777C1.96009 21.3311 2.03552 21.5976 2.21968 21.7817C2.40385 21.9659 2.67037 22.0413 2.92373 21.981L7.52498 20.8855C8.08418 20.7523 8.59546 20.4666 9.00191 20.0601L10.153 18.9089C10.0528 18.4555 10 17.9842 10 17.5006C10 13.9108 12.9101 11.0006 16.5 11.0006C16.9833 11.0006 17.4543 11.0534 17.9075 11.1534L18.9995 10.0613L13.9389 5.00066ZM22 17.5006C22 20.5382 19.5376 23.0006 16.5 23.0006C13.4624 23.0006 11 20.5382 11 17.5006C11 14.4631 13.4624 12.0006 16.5 12.0006C19.5376 12.0006 22 14.4631 22 17.5006ZM12.5 17.5006C12.5 18.3342 12.755 19.1082 13.1911 19.7489L18.7482 14.1918C18.1075 13.7556 17.3335 13.5006 16.5 13.5006C14.2909 13.5006 12.5 15.2915 12.5 17.5006ZM16.5 21.5006C18.7091 21.5006 20.5 19.7098 20.5 17.5006C20.5 16.6671 20.245 15.8931 19.8089 15.2524L14.2518 20.8095C14.8925 21.2457 15.6665 21.5006 16.5 21.5006ZM9.00191 20.0601L8.47155 19.5298Z" fill="#212121"/>
</svg>
