<svg width="28" height="28" viewBox="0 0 28 28" fill="none" xmlns="http://www.w3.org/2000/svg">
<path d="M4.75391 4C3.23512 4 2.00391 5.23122 2.00391 6.75V21.2501C2.00391 22.7688 3.23513 24.0001 4.75391 24.0001H13.8651C13.6154 23.5277 13.4146 23.0254 13.2696 22.5001H9.5V18.5C9.5 18.2239 9.72386 18 10 18H13.4268C13.614 17.4701 13.8592 16.9676 14.1546 16.5H10C8.89543 16.5 8 17.3954 8 18.5V22.5001H4.75391C4.06355 22.5001 3.50391 21.9404 3.50391 21.2501V6.75C3.50391 6.05964 4.06355 5.5 4.75391 5.5H23.2505C23.9409 5.5 24.5005 6.05965 24.5005 6.75V14.1549C25.0536 14.5043 25.5577 14.924 26.0005 15.4015V6.75C26.0005 5.23122 24.7693 4 23.2505 4H4.75391ZM12 11.5C12 10.3954 12.8954 9.5 14 9.5C15.1046 9.5 16 10.3954 16 11.5C16 12.6046 15.1046 13.5 14 13.5C12.8954 13.5 12 12.6046 12 11.5ZM14 8C12.067 8 10.5 9.567 10.5 11.5C10.5 13.433 12.067 15 14 15C15.933 15 17.5 13.433 17.5 11.5C17.5 9.567 15.933 8 14 8ZM27 20.5C27 24.0899 24.0899 27 20.5 27C16.9101 27 14 24.0899 14 20.5C14 16.9101 16.9101 14 20.5 14C24.0899 14 27 16.9101 27 20.5ZM19.0086 17.5001C18.791 17.4963 18.596 17.6338 18.5263 17.84L17.622 20.5169H16.5C16.2239 20.5169 16 20.7407 16 21.0169C16 21.293 16.2239 21.5169 16.5 21.5169H17.9808C18.1953 21.5169 18.3859 21.3801 18.4545 21.1769L18.9717 19.6458L20.0211 23.1437C20.0828 23.3492 20.2687 23.4925 20.4832 23.4997C20.6976 23.5069 20.8928 23.3765 20.9682 23.1756L22.0637 20.2541L22.552 21.239C22.6364 21.4092 22.81 21.5169 23 21.5169H24.5C24.7761 21.5169 25 21.293 25 21.0169C25 20.7407 24.7761 20.5169 24.5 20.5169H23.3102L22.448 18.7779C22.3595 18.5995 22.1735 18.4905 21.9746 18.5006C21.7757 18.5108 21.6018 18.6379 21.5318 18.8244L20.5527 21.4355L19.4789 17.8563C19.4164 17.6479 19.2262 17.5038 19.0086 17.5001Z" fill="#212121"/>
</svg>
