<svg width="16" height="16" viewBox="0 0 16 16" fill="none" xmlns="http://www.w3.org/2000/svg">
<path d="M9 5C9 6.10457 8.10457 7 7 7C5.89543 7 5 6.10457 5 5C5 3.89543 5.89543 3 7 3C8.10457 3 9 3.89543 9 5ZM1.75 1C0.783502 1 0 1.7835 0 2.75V9.25C0 10.2165 0.783502 11 1.75 11H6.02242C6.12465 9.86553 6.57137 8.8304 7.25716 8H5C4.44772 8 4 8.44772 4 9V10H1.75C1.33579 10 1 9.66421 1 9.25V2.75C1 2.33579 1.33579 2 1.75 2H12.25C12.6642 2 13 2.33579 13 2.75V6.20703C13.3486 6.30564 13.6832 6.43777 14 6.59971V2.75C14 1.7835 13.2165 1 12.25 1H1.75ZM16 11.5C16 13.9853 13.9853 16 11.5 16C9.01472 16 7 13.9853 7 11.5C7 9.01472 9.01472 7 11.5 7C13.9853 7 16 9.01472 16 11.5ZM10.444 9.50024C10.2385 9.49388 10.05 9.61402 9.969 9.80304L9.38459 11.1667H9C8.72386 11.1667 8.5 11.3905 8.5 11.6667C8.5 11.9428 8.72386 12.1667 9 12.1667H9.71429C9.9143 12.1667 10.0951 12.0475 10.1739 11.8636L10.3862 11.3681L11.0291 13.1682C11.099 13.3638 11.2826 13.4959 11.4902 13.4999C11.6979 13.504 11.8865 13.3792 11.964 13.1864L12.6362 11.5131L12.845 11.9028C12.932 12.0653 13.1014 12.1667 13.2857 12.1667H14C14.2761 12.1667 14.5 11.9428 14.5 11.6667C14.5 11.3905 14.2761 11.1667 14 11.1667H13.5851L13.0122 10.0972C12.9205 9.92603 12.7379 9.82343 12.544 9.83409C12.3501 9.84474 12.1799 9.96672 12.1075 10.1469L11.5275 11.5904L10.8994 9.83183C10.8303 9.63817 10.6496 9.5066 10.444 9.50024Z" fill="#212121"/>
</svg>
