<svg width="16" height="16" viewBox="0 0 16 16" fill="none" xmlns="http://www.w3.org/2000/svg">
<path d="M7 7C8.10457 7 9 6.10457 9 5C9 3.89543 8.10457 3 7 3C5.89543 3 5 3.89543 5 5C5 6.10457 5.89543 7 7 7ZM7 6C6.44772 6 6 5.55228 6 5C6 4.44772 6.44772 4 7 4C7.55228 4 8 4.44772 8 5C8 5.55228 7.55228 6 7 6ZM0 2.75C0 1.7835 0.783502 1 1.75 1H12.25C13.2165 1 14 1.7835 14 2.75V6.59971C13.6832 6.43777 13.3486 6.30564 13 6.20703V2.75C13 2.33579 12.6642 2 12.25 2H1.75C1.33579 2 1 2.33579 1 2.75V9.25C1 9.66421 1.33579 10 1.75 10H4V9C4 8.44772 4.44772 8 5 8H7.25716C7.00353 8.30711 6.78261 8.64222 6.59971 9H5V10H6.20703C6.11588 10.3223 6.05337 10.6566 6.02242 11H1.75C0.783502 11 0 10.2165 0 9.25V2.75ZM16 11.5C16 13.9853 13.9853 16 11.5 16C9.01472 16 7 13.9853 7 11.5C7 9.01472 9.01472 7 11.5 7C13.9853 7 16 9.01472 16 11.5ZM10.444 9.50024C10.2385 9.49388 10.05 9.61402 9.969 9.80304L9.38459 11.1667H9C8.72386 11.1667 8.5 11.3905 8.5 11.6667C8.5 11.9428 8.72386 12.1667 9 12.1667H9.71429C9.9143 12.1667 10.0951 12.0475 10.1739 11.8636L10.3862 11.3681L11.0291 13.1682C11.099 13.3638 11.2826 13.4959 11.4902 13.4999C11.6979 13.504 11.8865 13.3792 11.964 13.1864L12.6362 11.5131L12.845 11.9028C12.932 12.0653 13.1014 12.1667 13.2857 12.1667H14C14.2761 12.1667 14.5 11.9428 14.5 11.6667C14.5 11.3905 14.2761 11.1667 14 11.1667H13.5851L13.0122 10.0972C12.9205 9.92603 12.7379 9.82343 12.544 9.83409C12.3501 9.84474 12.1799 9.96672 12.1075 10.1469L11.5275 11.5904L10.8994 9.83183C10.8303 9.63817 10.6496 9.5066 10.444 9.50024Z" fill="#212121"/>
</svg>
