<svg width="16" height="16" viewBox="0 0 16 16" fill="none" xmlns="http://www.w3.org/2000/svg">
<path d="M4.5 2C3.11929 2 2 3.11929 2 4.5V11.5C2 12.8807 3.11929 14 4.5 14H11.5C12.8807 14 14 12.8807 14 11.5V4.5C14 3.11929 12.8807 2 11.5 2H4.5ZM5 6.5C5 6.22386 5.22386 6 5.5 6H10.5C10.7761 6 11 6.22386 11 6.5C11 6.77614 10.7761 7 10.5 7H5.5C5.22386 7 5 6.77614 5 6.5ZM5.5 9H10.5C10.7761 9 11 9.22386 11 9.5C11 9.77614 10.7761 10 10.5 10H5.5C5.22386 10 5 9.77614 5 9.5C5 9.22386 5.22386 9 5.5 9Z" fill="#212121"/>
</svg>
