<svg width="24" height="24" viewBox="0 0 24 24" fill="none" xmlns="http://www.w3.org/2000/svg">
<path d="M13.75 2C14.9926 2 16 3.00736 16 4.25L16.0002 11.1739C13.1334 11.851 11 14.4264 11 17.5H8.75C8.33579 17.5 8 17.8358 8 18.25C8 18.6642 8.33579 19 8.75 19L11.1741 19.0008C11.4453 20.1483 12.0207 21.1782 12.8104 22.0008L6.25 22C5.00736 22 4 20.9926 4 19.75V4.25C4 3.00736 5.00736 2 6.25 2H13.75ZM17.5 12C20.5376 12 23 14.4624 23 17.5C23 20.5376 20.5376 23 17.5 23C14.4624 23 12 20.5376 12 17.5C12 14.4624 14.4624 12 17.5 12ZM14.4078 17.0081C14.2037 17.0451 14.0427 17.206 14.0057 17.4101L13.9977 17.5L14.0057 17.5899C14.0427 17.794 14.2037 17.9549 14.4078 17.9919L14.4977 18H20.5046L20.5944 17.9919C20.7985 17.9549 20.9595 17.794 20.9965 17.5899L21.0046 17.5L20.9965 17.4101C20.9595 17.206 20.7985 17.0451 20.5944 17.0081L20.5046 17H14.4977L14.4078 17.0081Z" fill="#212121"/>
</svg>
