<svg width="20" height="20" viewBox="0 0 20 20" fill="none" xmlns="http://www.w3.org/2000/svg">
<path d="M16.75 3C16.9489 3 17.1397 3.07902 17.2803 3.21967C17.421 3.36032 17.5 3.55109 17.5 3.75V8.25C17.5 8.66421 17.1642 9 16.75 9C16.3358 9 16 8.66421 16 8.25V5.56066L11.7803 9.78033C11.4874 10.0732 11.0126 10.0732 10.7197 9.78035L8.99989 8.06066L4.28034 12.7803C3.98745 13.0732 3.51257 13.0732 3.21968 12.7803C2.92678 12.4874 2.92677 12.0126 3.21966 11.7197L8.46953 6.46969C8.76241 6.1768 9.23728 6.17679 9.53017 6.46967L11.25 8.18936L14.9393 4.50001L12.2499 4.50001C11.8357 4.50001 11.4999 4.16423 11.4999 3.75002C11.4999 3.3358 11.8356 3.00001 12.2499 3.00001L16.75 3ZM10 13C10 11.8954 10.8954 11 12 11H17C18.1046 11 19 11.8954 19 13V17C19 18.1046 18.1046 19 17 19H12C10.8954 19 10 18.1046 10 17V13ZM16.5 16H12.5C12.2238 16 12 16.2239 12 16.5C12 16.7761 12.2238 17 12.5 17H16.5C16.7762 17 17 16.7761 17 16.5C17 16.2239 16.7762 16 16.5 16ZM12.5 13C12.2238 13 12 13.2239 12 13.5C12 13.7761 12.2238 14 12.5 14H16.5C16.7762 14 17 13.7761 17 13.5C17 13.2239 16.7762 13 16.5 13H12.5Z" fill="#212121"/>
</svg>
