<svg width="20" height="20" viewBox="0 0 20 20" fill="none" xmlns="http://www.w3.org/2000/svg">
<path d="M16.25 3.5C16.6642 3.5 17 3.83579 17 4.25C17 4.66421 16.6642 5 16.25 5H3.75C3.33579 5 3 4.66421 3 4.25C3 3.83579 3.33579 3.5 3.75 3.5H16.25ZM11.25 13.5C11.6642 13.5 12 13.8358 12 14.25C12 14.6642 11.6642 15 11.25 15H3.75C3.33579 15 3 14.6642 3 14.25C3 13.8358 3.33579 13.5 3.75 13.5H11.25ZM12 9.25C12 8.83579 11.6642 8.5 11.25 8.5H3.75C3.33579 8.5 3 8.83579 3 9.25C3 9.66421 3.33579 10 3.75 10H11.25C11.6642 10 12 9.66421 12 9.25ZM15.7197 10.7197C16.0126 10.4268 16.4874 10.4268 16.7803 10.7197C17.0732 11.0126 17.0732 11.4874 16.7803 11.7803L15.8107 12.75L16.7803 13.7197C17.0732 14.0126 17.0732 14.4874 16.7803 14.7803C16.4874 15.0732 16.0126 15.0732 15.7197 14.7803L14.2197 13.2803C13.9268 12.9874 13.9268 12.5126 14.2197 12.2197L15.7197 10.7197Z" fill="#212121"/>
</svg>
