<svg width="20" height="20" viewBox="0 0 20 20" fill="none" xmlns="http://www.w3.org/2000/svg">
<path d="M8.73271 4.20694C9.03263 3.92125 9.50737 3.93279 9.79306 4.23271L14.7944 9.48318C15.0703 9.77285 15.0703 10.2281 14.7944 10.5178L9.79306 15.7682C9.50737 16.0681 9.03263 16.0797 8.73271 15.794C8.43279 15.5083 8.42125 15.0336 8.70694 14.7336L13.2155 10.0005L8.70694 5.26729C8.42125 4.96737 8.43279 4.49264 8.73271 4.20694ZM4.73271 4.20694C5.03263 3.92125 5.50737 3.93279 5.79306 4.23271L10.7944 9.48318C11.0703 9.77285 11.0703 10.2281 10.7944 10.5178L5.79306 15.7682C5.50737 16.0681 5.03263 16.0797 4.73271 15.794C4.43279 15.5083 4.42125 15.0336 4.70694 14.7336L9.21553 10.0005L4.70694 5.26729C4.42125 4.96737 4.43279 4.49264 4.73271 4.20694Z" fill="#212121"/>
</svg>
