<svg width="48" height="48" viewBox="0 0 48 48" fill="none" xmlns="http://www.w3.org/2000/svg">
<path d="M21.9788 5.47959C22.1055 4.80096 21.658 4.14813 20.9794 4.02145C20.3007 3.89477 19.6479 4.34222 19.5212 5.02085L17.6584 15.0002H7.25C6.55964 15.0002 6 15.5599 6 16.2502C6 16.9406 6.55964 17.5002 7.25 17.5002H17.1917L14.8584 30.0002H5.25C4.55964 30.0002 4 30.5599 4 31.2502C4 31.9406 4.55964 32.5002 5.25 32.5002H14.3917L12.5212 42.5209C12.3945 43.1995 12.842 43.8523 13.5206 43.979C14.1993 44.1057 14.8521 43.6582 14.9788 42.9796L16.9349 32.5002H28.3917L26.5212 42.5209C26.3945 43.1995 26.842 43.8523 27.5206 43.979C28.1993 44.1057 28.8521 43.6582 28.9788 42.9796L30.9349 32.5002H40.75C41.4404 32.5002 42 31.9406 42 31.2502C42 30.5599 41.4404 30.0002 40.75 30.0002H31.4016L33.7349 17.5002H42.75C43.4404 17.5002 44 16.9406 44 16.2502C44 15.5599 43.4404 15.0002 42.75 15.0002H34.2016L35.9788 5.47959C36.1055 4.80096 35.658 4.14813 34.9794 4.02145C34.3007 3.89477 33.6479 4.34222 33.5212 5.02085L31.6584 15.0002H20.2016L21.9788 5.47959ZM28.8584 30.0002H17.4016L19.7349 17.5002H31.1917L28.8584 30.0002Z" fill="#212121"/>
</svg>
