<svg width="32" height="32" viewBox="0 0 32 32" fill="none" xmlns="http://www.w3.org/2000/svg">
<path d="M15.1892 4.29864C15.6564 3.90045 16.3436 3.90045 16.8108 4.29863L26.5608 12.6081C26.8395 12.8456 27 13.1933 27 13.5595V26.4998C27 26.7759 26.7761 26.9998 26.5 26.9998H5.5C5.22386 26.9998 5 26.7759 5 26.4998V13.5595C5 13.1933 5.16053 12.8456 5.4392 12.6081L15.1892 4.29864ZM18.1081 2.77645C16.8934 1.74118 15.1066 1.74118 13.8919 2.77645L4.14191 11.0859C3.41738 11.7034 3 12.6075 3 13.5595V26.4998C3 27.8805 4.11929 28.9998 5.5 28.9998H26.5C27.8807 28.9998 29 27.8805 29 26.4998V13.5595C29 12.6075 28.5826 11.7034 27.8581 11.0859L18.1081 2.77645ZM17 7.99978C17 7.44749 16.5523 6.99978 16 6.99978C15.4477 6.99978 15 7.44749 15 7.99978V9.99978C15 10.5521 15.4477 10.9998 16 10.9998C16.5523 10.9998 17 10.5521 17 9.99978V7.99978ZM16 13.9998C16.5523 13.9998 17 14.4475 17 14.9998V16.9998C17 17.5521 16.5523 17.9998 16 17.9998C15.4477 17.9998 15 17.5521 15 16.9998V14.9998C15 14.4475 15.4477 13.9998 16 13.9998ZM17 21.9998C17 21.4475 16.5523 20.9998 16 20.9998C15.4477 20.9998 15 21.4475 15 21.9998V23.9998C15 24.5521 15.4477 24.9998 16 24.9998C16.5523 24.9998 17 24.5521 17 23.9998V21.9998Z" fill="#212121"/>
</svg>
