<svg width="16" height="16" viewBox="0 0 16 16" fill="none" xmlns="http://www.w3.org/2000/svg">
<path d="M8 2C11.3137 2 14 4.68629 14 8C14 11.3137 11.3137 14 8 14C4.68629 14 2 11.3137 2 8C2 4.68629 4.68629 2 8 2ZM5.85355 5.14645C5.65829 4.95118 5.34171 4.95118 5.14645 5.14645C4.95118 5.34171 4.95118 5.65829 5.14645 5.85355L5.74155 6.44865C5.59302 6.58569 5.5 6.78198 5.5 7C5.5 7.41421 5.83579 7.75 6.25 7.75C6.66421 7.75 7 7.41421 7 7C7 6.90236 6.98134 6.80909 6.9474 6.72354C7.04098 6.53631 7.0097 6.30259 6.85355 6.14645L5.85355 5.14645ZM10.5 7C10.5 6.78198 10.407 6.58569 10.2585 6.44865L10.8536 5.85355C11.0488 5.65829 11.0488 5.34171 10.8536 5.14645C10.6583 4.95118 10.3417 4.95118 10.1464 5.14645L9.14645 6.14645C8.9903 6.30259 8.95902 6.53631 9.0526 6.72354C9.01866 6.80909 9 6.90236 9 7C9 7.41421 9.33579 7.75 9.75 7.75C10.1642 7.75 10.5 7.41421 10.5 7ZM6.13649 11.3335C6.59497 10.8212 7.25966 10.5 8.00003 10.5C8.7404 10.5 9.40508 10.8212 9.86357 11.3335C10.0477 11.5392 10.3638 11.5567 10.5696 11.3726C10.7754 11.1884 10.7929 10.8723 10.6087 10.6665C9.96854 9.9513 9.03666 9.5 8.00003 9.5C6.9634 9.5 6.03151 9.9513 5.39135 10.6665C5.20719 10.8723 5.2247 11.1884 5.43046 11.3726C5.63623 11.5567 5.95232 11.5392 6.13649 11.3335Z" fill="#212121"/>
</svg>
