<svg width="16" height="16" viewBox="0 0 16 16" fill="none" xmlns="http://www.w3.org/2000/svg">
<path d="M8.49579 8C8.67189 8 8.84091 8.03035 8.99789 8.0861C8.4164 8.29261 8 8.84768 8 9.5V12.7779C7.45616 12.9265 6.80718 13.0008 6.06019 13.0008C3.44552 13.0008 2 12.0969 2 10.2746V9.5C2 8.67157 2.67157 8 3.5 8H8.49579ZM6 2C7.38094 2 8.50041 3.11947 8.50041 4.5004C8.50041 5.88134 7.38094 7.00081 6 7.00081C4.61906 7.00081 3.49959 5.88134 3.49959 4.5004C3.49959 3.11947 4.61906 2 6 2ZM11 3C12.1046 3 13 3.89543 13 5C13 6.10457 12.1046 7 11 7C9.89543 7 9 6.10457 9 5C9 3.89543 9.89543 3 11 3ZM9.5 9C9.22386 9 9 9.22386 9 9.5C9 9.77614 9.22386 10 9.5 10H14.5C14.7761 10 15 9.77614 15 9.5C15 9.22386 14.7761 9 14.5 9H9.5ZM9.5 11C9.22386 11 9 11.2239 9 11.5C9 11.7761 9.22386 12 9.5 12H14.5C14.7761 12 15 11.7761 15 11.5C15 11.2239 14.7761 11 14.5 11H9.5ZM9.5 13C9.22386 13 9 13.2239 9 13.5C9 13.7761 9.22386 14 9.5 14H14.5C14.7761 14 15 13.7761 15 13.5C15 13.2239 14.7761 13 14.5 13H9.5Z" fill="#212121"/>
</svg>
