<svg width="48" height="48" viewBox="0 0 48 48" fill="none" xmlns="http://www.w3.org/2000/svg">
<path d="M12.25 6C8.79822 6 6 8.79822 6 12.25V35.75C6 39.2018 8.79822 42 12.25 42H25.9289C27.5865 42 29.1762 41.3415 30.3483 40.1694L40.1694 30.3484C41.3415 29.1762 42 27.5865 42 25.9289V12.25C42 8.79822 39.2018 6 35.75 6H12.25ZM8.5 12.25C8.5 10.1789 10.1789 8.5 12.25 8.5H35.75C37.8211 8.5 39.5 10.1789 39.5 12.25V25.9289C39.5 25.9526 39.4998 25.9763 39.4993 26H32.25C28.7982 26 26 28.7982 26 32.25V39.4993C25.9763 39.4998 25.9526 39.5 25.9289 39.5H12.25C10.1789 39.5 8.5 37.8211 8.5 35.75V12.25ZM28.5 38.4799V32.25C28.5 30.1789 30.1789 28.5 32.25 28.5H38.4799C38.4542 28.5272 38.4282 28.5541 38.4016 28.5806L28.5806 38.4016C28.5541 38.4282 28.5272 38.4542 28.5 38.4799Z" fill="#212121"/>
</svg>
