<svg width="28" height="28" viewBox="0 0 28 28" fill="none" xmlns="http://www.w3.org/2000/svg">
<path d="M21.0688 9.00001C23.2399 9.00044 25.0002 10.7605 25.0004 12.9317C25.0004 13.9742 24.5861 14.9746 23.849 15.7119L16.0863 23.4746C15.6311 23.9299 15.0657 24.2609 14.4457 24.4346L8.95255 25.9727C8.69179 26.0456 8.41167 25.9717 8.22013 25.7803C8.02858 25.5888 7.95477 25.3088 8.02775 25.0479L9.56583 19.5547C9.73948 18.9346 10.0704 18.3694 10.5258 17.9141L18.2885 10.1514C19.0258 9.41434 20.0262 9.00001 21.0688 9.00001ZM21.0688 10.5C20.424 10.5 19.8051 10.7562 19.349 11.2119L11.5863 18.9746C11.3132 19.2478 11.1153 19.587 11.0111 19.959L9.83243 24.167L14.0414 22.9893C14.4133 22.8851 14.7527 22.6872 15.0258 22.4141L22.7885 14.6514C23.2442 14.1954 23.5004 13.5764 23.5004 12.9317C23.5002 11.5889 22.4114 10.5004 21.0688 10.5ZM13.2504 3C13.6644 3.00024 14.0004 3.33594 14.0004 3.75V7.50001H15.7504C16.1644 7.50025 16.5004 7.83594 16.5004 8.25001C16.5004 8.66407 16.1644 8.99977 15.7504 9.00001H14.0004V13.0254L12.5004 14.5254V3.75C12.5004 3.33582 12.8362 3.00005 13.2504 3ZM9.7504 4C10.1517 4.00024 10.482 4.31676 10.4994 4.71778V4.72168C10.5051 4.74937 10.5012 4.78164 10.5014 4.80957C10.5018 4.86164 10.5015 4.93444 10.4984 5.02539C10.4924 5.20729 10.4756 5.46349 10.435 5.77344C10.3539 6.39164 10.176 7.23618 9.78263 8.14259C8.98549 9.97942 7.32101 12.0294 3.95255 12.9727C3.5538 13.0842 3.13945 12.8509 3.02775 12.4522C2.91621 12.0534 3.14951 11.6391 3.54825 11.5274C6.42902 10.7206 7.76537 9.02039 8.40568 7.54493C8.73093 6.79537 8.88123 6.09263 8.94865 5.57813C8.95211 5.55166 8.95342 5.5254 8.95646 5.5H3.7504C3.33624 5.49995 3.0004 5.16418 3.0004 4.75C3.0004 4.33582 3.33624 4.00006 3.7504 4H9.7504Z" fill="#212121"/>
</svg>
