<svg width="16" height="16" viewBox="0 0 16 16" fill="none" xmlns="http://www.w3.org/2000/svg">
<path d="M1.5 8C1.5 4.41015 4.41015 1.5 8 1.5C11.5899 1.5 14.5 4.41015 14.5 8C14.5 11.5899 11.5899 14.5 8 14.5C4.41015 14.5 1.5 11.5899 1.5 8ZM5.64269 3.02936C4.90955 3.37767 4.2657 3.88339 3.75481 4.50285L4.40222 6.60703L5.40767 6.94218L7.50039 5.35187V4.26762L5.64269 3.02936ZM2.53625 8.63487C2.63571 9.50029 2.93606 10.3046 3.38947 11H5.29289L5.92794 10.365L5.10472 7.89529L4.08059 7.55391L2.53625 8.63487ZM6.88587 13.3871C7.24567 13.4611 7.61829 13.5 8 13.5C8.38171 13.5 8.75433 13.4611 9.11413 13.3871L9.90363 11.6107L9.29289 11H6.70711L6.09637 11.6107L6.88587 13.3871ZM12.6105 11C13.0498 10.3262 13.3455 9.55021 13.4539 8.71542L11.9096 7.55719L10.8953 7.89528L10.0721 10.365L10.7071 11H12.6105ZM12.2319 4.48684C11.7232 3.87468 11.0841 3.37468 10.3573 3.02938L8.50039 4.26757V5.35192L10.5924 6.94216L11.5957 6.60773L12.2319 4.48684Z" fill="#212121"/>
</svg>
