<svg width="24" height="24" viewBox="0 0 24 24" fill="none" xmlns="http://www.w3.org/2000/svg">
<path d="M22 6.5C22 3.46243 19.5376 1 16.5 1C13.4624 1 11 3.46243 11 6.5C11 9.53757 13.4624 12 16.5 12C19.5376 12 22 9.53757 22 6.5ZM17.0006 7.00001L17.0011 9.50352C17.0011 9.77966 16.7773 10.0035 16.5011 10.0035C16.225 10.0035 16.0011 9.77966 16.0011 9.50352L16.0006 7.00001H13.4961C13.22 7.00001 12.9961 6.77615 12.9961 6.50001C12.9961 6.22387 13.22 6.00001 13.4961 6.00001H16.0005L16 3.49927C16 3.22313 16.2239 2.99927 16.5 2.99927C16.7761 2.99927 17 3.22313 17 3.49927L17.0005 6.00001H19.503C19.7792 6.00001 20.003 6.22387 20.003 6.50001C20.003 6.77615 19.7792 7.00001 19.503 7.00001H17.0006Z" fill="#212121"/>
<path d="M19.5 14V12.2678C20.051 11.9806 20.5557 11.6168 21 11.1904V18.75C21 20.5449 19.5449 22 17.75 22H6.25C4.45507 22 3 20.5449 3 18.75V7.25C3 5.45507 4.45507 4 6.25 4H10.4982C10.3004 4.47417 10.1572 4.97679 10.0764 5.5H6.25C5.2835 5.5 4.5 6.2835 4.5 7.25V14H9C9.3797 14 9.69349 14.2822 9.74315 14.6482L9.75 14.75C9.75 15.9926 10.7574 17 12 17C13.2426 17 14.25 15.9926 14.25 14.75C14.25 14.3358 14.5858 14 15 14H19.5Z" fill="#212121"/>
</svg>
