<svg width="32" height="32" viewBox="0 0 32 32" fill="none" xmlns="http://www.w3.org/2000/svg">
<path d="M14 12.5C14 12.2239 13.7761 12 13.5 12C13.2239 12 13 12.2239 13 12.5V23.5C13 23.7761 13.2239 24 13.5 24C13.7761 24 14 23.7761 14 23.5V12.5ZM18.5 12C18.7761 12 19 12.2239 19 12.5V23.5C19 23.7761 18.7761 24 18.5 24C18.2239 24 18 23.7761 18 23.5V12.5C18 12.2239 18.2239 12 18.5 12ZM20.5 6.5V7H25.4937C25.4975 6.99996 25.5013 6.99996 25.5051 7H28.5C28.7761 7 29 7.22386 29 7.5C29 7.77614 28.7761 8 28.5 8H25.9566L24.3287 25.9074C24.1179 28.2253 22.1746 30 19.8471 30H12.1529C9.82544 30 7.88205 28.2253 7.67134 25.9074L6.04339 8H3.5C3.22386 8 3 7.77614 3 7.5C3 7.22386 3.22386 7 3.5 7H6.49489C6.49869 6.99996 6.50248 6.99996 6.50627 7H11.5V6.5C11.5 4.01472 13.5147 2 16 2C18.4853 2 20.5 4.01472 20.5 6.5ZM12.5 6.5V7H19.5V6.5C19.5 4.567 17.933 3 16 3C14.067 3 12.5 4.567 12.5 6.5ZM7.04752 8L8.66723 25.8169C8.83112 27.6196 10.3426 29 12.1529 29H19.8471C21.6574 29 23.1689 27.6197 23.3328 25.8169L24.9525 8H7.04752Z" fill="#212121"/>
</svg>
