<svg width="24" height="24" viewBox="0 0 24 24" fill="none" xmlns="http://www.w3.org/2000/svg">
<path d="M6.08664 7C6.56096 4.29276 8.92458 2.25 11.75 2.25C14.5754 2.25 16.939 4.29276 17.4134 7L17.5 7C19.3654 7 20.9326 8.27696 21.3751 10.0044C21.3337 10.0015 21.2918 10 21.2496 10H17.2498C16.2833 10 15.4998 10.7835 15.4998 11.75V12.5762C14.4827 12.8087 13.6368 13.5556 13.2968 14.5757L13.1553 15H6C3.79086 15 2 13.2091 2 11C2 8.79086 3.79086 7 6.00002 7L6.08664 7ZM16.4998 11.75C16.4998 11.3358 16.8356 11 17.2498 11H21.2496C21.6638 11 21.9996 11.3358 21.9996 11.75V15.75C21.9996 16.1642 21.6638 16.5 21.2496 16.5H17.2498C16.8356 16.5 16.4998 16.1642 16.4998 15.75V15H16.1767C15.9461 15 15.7414 15.1476 15.6685 15.3663L14.7546 18.108C14.4775 18.9393 13.6995 19.5 12.8233 19.5H11.9998V21.25C11.9998 21.6642 11.664 22 11.2498 22H7.25C6.83579 22 6.5 21.6642 6.5 21.25V17.25C6.5 16.8358 6.83579 16.5 7.25 16.5H11.2498C11.664 16.5 11.9998 16.8358 11.9998 17.25V18H12.8233C13.0539 18 13.2586 17.8524 13.3315 17.6337L14.2454 14.892C14.5225 14.0607 15.3005 13.5 16.1767 13.5H16.4998V11.75ZM17.9998 14.2679V15H20.4996V12.5H17.9998V14.2321C17.9999 14.238 18 14.244 18 14.25C18 14.256 17.9999 14.262 17.9998 14.2679ZM8 18V20.5H10.4998V18H8Z" fill="#212121"/>
</svg>
