<?xml version="1.0" encoding="UTF-8"?>
<svg width="28px" height="28px" viewBox="0 0 28 28" version="1.1" xmlns="http://www.w3.org/2000/svg" xmlns:xlink="http://www.w3.org/1999/xlink">
    <!-- Generator: Sketch 59.1 (86144) - https://sketch.com -->
    <title>ic_fluent_office_power_point_28_mono</title>
    <desc>Created with Sketch.</desc>
    <g id="ðŸ”-Product-Icons" stroke="none" stroke-width="1" fill="none" fill-rule="evenodd">
        <g id="ic_fluent_office_power_point_28_mono" fill="#212121" fill-rule="nonzero">
            <path d="M15,3 C21.075,3 26,7.925 26,14 C26,20.075 21.075,25 15,25 C11.7017931,25 8.74291558,23.5485279 6.72731969,21.2495361 L6.515,21 L3.167,21 C2.5678,21 2.07052,20.5426667 2.00687911,19.9597191 L2,19.833 L2,8.167 C2,7.5678 2.45733333,7.07052 3.04028089,7.00687911 L3.167,7 L6.515,7 C8.532,4.557 11.584,3 15,3 Z M25,13.997 L16,13.997 L16,19.833 C16,20.475 15.475,21 14.833,21 L14.833,21 L7.871,21 C9.686,22.849 12.21,24 15,24 L15,24 L15.2794701,23.9961482 C20.6647791,23.8475361 25,19.4175424 25,13.997 L25,13.997 Z M9.401,9.75 L5.965,9.75 L5.965,18.25 L8.027,18.25 L8.027,15.646 L9.3,15.646 C9.946,15.646 10.524,15.524 11.019,15.283 C11.523,15.038 11.918,14.688 12.193,14.245 C12.479,13.783 12.607,13.035 12.607,12.499 C12.607,11.615 12.321,10.926 11.757,10.45 C11.206,9.985 10.413,9.75 9.401,9.75 L9.401,9.75 Z M9.172,11.4888 C10.1946842,11.4888 10.4200166,11.9475175 10.4561233,12.4015158 L10.4561233,12.4015158 L10.462,12.5608 C10.462,12.9588 10.346,13.2898 10.145,13.4678 C9.925,13.6608 9.581,13.7598 9.122,13.7598 L9.122,13.7598 L8.027,13.7598 L8.027,11.4888 Z M15,4 L15,7.034 C15.56,7.118 16,7.584 16,8.167 L16,8.167 L16,13 L24.949,13 C24.446,7.954 20.177,4 15,4 L15,4 Z M14,4.051 L13.6437189,4.09304275 C11.399655,4.3992325 9.39525,5.4591 7.88,7 L7.88,7 L14,7 L14,4.051 Z" id="ðŸŽ¨-Color"></path>
        </g>
    </g>
</svg>