<svg width="24" height="24" viewBox="0 0 24 24" fill="none" xmlns="http://www.w3.org/2000/svg">
<path d="M6.75 3.93433C5.23122 3.93433 4 5.16554 4 6.68433V16.25C4 16.6642 4.33579 17 4.75 17C5.16421 17 5.5 16.6642 5.5 16.25V6.68433C5.5 5.99397 6.05964 5.43433 6.75 5.43433H16.25C16.9404 5.43433 17.5 5.99397 17.5 6.68433V11.2774C17.9734 11.0688 18.4893 10.9776 19 11.005V6.68433C19 5.16554 17.7688 3.93433 16.25 3.93433H6.75Z" fill="#212121"/>
<path d="M20.3063 12.5573L20.1773 12.4515L20.1742 12.4491C19.2943 11.782 18.0073 11.8626 17.2228 12.6608L13.4197 16.5302C13.1842 16.7699 13.0116 17.0596 12.9166 17.3757L12.3303 19.328C11.764 19.4142 11.261 19.4064 10.7256 19.3214C10.7015 19.3176 10.6879 19.2917 10.6983 19.2696L10.7325 19.1974L10.7355 19.1909C10.8006 19.0528 10.9155 18.809 10.9528 18.5581C10.9736 18.4181 10.9795 18.224 10.904 18.0172C10.8229 17.795 10.6707 17.6218 10.4818 17.5056C10.1584 17.3067 9.75504 17.2915 9.40872 17.3115C9.13449 17.3274 8.79514 17.374 8.37789 17.4553C7.91595 17.5454 7.47693 17.7521 7.03945 17.9581C6.46264 18.2297 5.88848 18.5001 5.26798 18.5001C5.04503 18.5001 4.8306 18.4636 4.63034 18.3963C4.50723 18.3549 4.37174 18.4547 4.40299 18.5808C4.45965 18.8094 4.56469 19.1183 4.79525 19.3561C4.92127 19.4861 5.09027 19.6001 5.30333 19.6548C5.51538 19.7093 5.72083 19.6922 5.90086 19.6394C7.35473 19.2126 8.3205 18.9806 8.94874 18.8757C9.08062 18.8537 9.17967 18.9869 9.13919 19.1143C9.07578 19.3139 8.98619 19.6922 9.17263 20.0749C9.37486 20.49 9.77319 20.6638 10.1174 20.7346C11.2602 20.9698 12.2462 20.9391 13.4527 20.6225C13.5054 20.6139 13.5581 20.6013 13.6102 20.5845L13.7274 20.5466C13.8985 20.497 14.0743 20.442 14.2558 20.3815C14.2831 20.3724 14.3095 20.3619 14.3351 20.35L15.7228 19.9012C16.0608 19.7919 16.3658 19.6047 16.6105 19.3558L20.4049 15.4953C21.1911 14.6946 21.1877 13.4611 20.4233 12.6698L20.3063 12.5573Z" fill="#212121"/>
</svg>
