<svg width="24" height="24" viewBox="0 0 24 24" fill="none" xmlns="http://www.w3.org/2000/svg">
<path d="M6.75 3.93359C5.23122 3.93359 4 5.16481 4 6.68359V16.2493C4 16.6635 4.33579 16.9993 4.75 16.9993C5.16421 16.9993 5.5 16.6635 5.5 16.2493V6.68359C5.5 5.99324 6.05964 5.43359 6.75 5.43359H16.25C16.9404 5.43359 17.5 5.99324 17.5 6.68359V11.2767C17.9734 11.068 18.4893 10.9768 19 11.0043V6.68359C19 5.16481 17.7688 3.93359 16.25 3.93359H6.75ZM20.3063 12.5566L20.1773 12.4508L20.1742 12.4484C19.2943 11.7813 18.0073 11.8618 17.2228 12.6601L13.4197 16.5295C13.1842 16.7691 13.0116 17.0589 12.9166 17.375L12.3303 19.3273C11.764 19.4135 11.261 19.4056 10.7256 19.3206C10.7015 19.3168 10.6879 19.2909 10.6983 19.2689L10.7325 19.1966L10.7355 19.1902C10.8006 19.052 10.9155 18.8083 10.9528 18.5574C10.9736 18.4174 10.9795 18.2232 10.904 18.0165C10.8229 17.7943 10.6707 17.6211 10.4818 17.5049C10.1584 17.306 9.75504 17.2908 9.40872 17.3108C9.13449 17.3266 8.79514 17.3733 8.37789 17.4546C7.91595 17.5446 7.47693 17.7514 7.03945 17.9574C6.46264 18.229 5.88848 18.4994 5.26798 18.4994C5.04503 18.4994 4.8306 18.4629 4.63034 18.3956C4.50723 18.3542 4.37174 18.454 4.40299 18.5801C4.45965 18.8087 4.56469 19.1175 4.79525 19.3554C4.92127 19.4854 5.09027 19.5993 5.30333 19.6541C5.51538 19.7086 5.72083 19.6915 5.90086 19.6386C7.35473 19.2119 8.3205 18.9799 8.94874 18.875C9.08062 18.8529 9.17967 18.9862 9.13919 19.1136C9.07578 19.3132 8.98619 19.6914 9.17263 20.0741C9.37486 20.4892 9.77319 20.6631 10.1174 20.7339C11.2602 20.9691 12.2462 20.9384 13.4527 20.6217C13.5054 20.6132 13.5581 20.6006 13.6102 20.5837L13.7274 20.5458C13.8985 20.4963 14.0743 20.4413 14.2558 20.3808C14.2831 20.3717 14.3095 20.3612 14.3351 20.3493L15.7228 19.9005C16.0608 19.7912 16.3658 19.6039 16.6105 19.3551L20.4049 15.4946C21.1911 14.6939 21.1877 13.4604 20.4233 12.6691L20.3063 12.5566Z" fill="#212121"/>
</svg>
