<svg width="20" height="20" viewBox="0 0 20 20" fill="none" xmlns="http://www.w3.org/2000/svg">
<path d="M8.95526 2.67425C9.36166 1.77525 10.6383 1.77525 11.0447 2.67425C11.3429 3.33381 12.1701 3.55546 12.7581 3.13334C13.5596 2.55799 14.6652 3.19633 14.5676 4.17808C14.4961 4.89836 15.1016 5.50392 15.8219 5.43235C16.8037 5.33481 17.442 6.44044 16.8667 7.24189C16.4445 7.82989 16.6662 8.6571 17.3258 8.95526C18.2247 9.36166 18.2247 10.6383 17.3258 11.0447C16.6662 11.3429 16.4445 12.1701 16.8667 12.7581C17.442 13.5596 16.8037 14.6652 15.8219 14.5676C15.1016 14.4961 14.4961 15.1016 14.5676 15.8219C14.6652 16.8037 13.5596 17.442 12.7581 16.8667C12.1701 16.4445 11.3429 16.6662 11.0447 17.3258C10.6383 18.2247 9.36166 18.2247 8.95526 17.3258C8.6571 16.6662 7.82989 16.4445 7.24189 16.8667C6.44044 17.442 5.33481 16.8037 5.43235 15.8219C5.50392 15.1016 4.89836 14.4961 4.17808 14.5676C3.19633 14.6652 2.55799 13.5596 3.13334 12.7581C3.55546 12.1701 3.33381 11.3429 2.67425 11.0447C1.77525 10.6383 1.77525 9.36166 2.67425 8.95526C3.33381 8.6571 3.55546 7.82989 3.13334 7.24189C2.55799 6.44044 3.19633 5.33481 4.17808 5.43235C4.89836 5.50392 5.50392 4.89836 5.43235 4.17808C5.33481 3.19633 6.44044 2.55799 7.24189 3.13334C7.82989 3.55546 8.6571 3.33381 8.95526 2.67425ZM9.99573 4.99573C8.89116 4.99573 7.99573 5.89116 7.99573 6.99573C7.99573 8.1003 8.89116 8.99573 9.99573 8.99573C11.1003 8.99573 11.9957 8.1003 11.9957 6.99573C11.9957 5.89116 11.1003 4.99573 9.99573 4.99573ZM12.4957 9.99573L7.49571 9.99573C6.66729 9.99573 5.99573 10.6673 5.99573 11.4957C5.99573 12.6118 6.4547 13.506 7.20788 14.1105C7.94915 14.7055 8.94265 14.9957 9.99573 14.9957C11.0488 14.9957 12.0423 14.7055 12.7836 14.1105C13.5368 13.506 13.9957 12.6118 13.9957 11.4957C13.9957 10.6673 13.3242 9.99573 12.4957 9.99573Z" fill="#212121"/>
</svg>
