<svg width="20" height="20" viewBox="0 0 20 20" fill="none" xmlns="http://www.w3.org/2000/svg">
<path d="M3.5 9.5C3.5 5.91015 6.41015 3 10 3C13.5899 3 16.5 5.91015 16.5 9.5C16.5 9.77614 16.7239 10 17 10C17.2761 10 17.5 9.77614 17.5 9.5C17.5 5.35786 14.1421 2 10 2C5.85786 2 2.5 5.35786 2.5 9.5C2.5 9.77614 2.72386 10 3 10C3.27614 10 3.5 9.77614 3.5 9.5ZM10 5.5C7.79086 5.5 6 7.29086 6 9.5C6 9.77614 5.77614 10 5.5 10C5.22386 10 5 9.77614 5 9.5C5 6.73858 7.23858 4.5 10 4.5C12.7614 4.5 15 6.73858 15 9.5C15 9.77614 14.7761 10 14.5 10C14.2239 10 14 9.77614 14 9.5C14 7.29086 12.2091 5.5 10 5.5ZM7.75 9.25C7.75 8.00736 8.75736 7 10 7C11.2426 7 12.25 8.00736 12.25 9.25C12.25 10.3208 11.502 11.2169 10.5 11.4442V13H14.5C15.8807 13 17 14.1193 17 15.5C17 16.8807 15.8807 18 14.5 18H5.5C4.11929 18 3 16.8807 3 15.5C3 14.1193 4.11929 13 5.5 13H9.5V11.4442C8.49801 11.2169 7.75 10.3208 7.75 9.25Z" fill="#212121"/>
</svg>
