<svg width="20" height="20" viewBox="0 0 20 20" fill="none" xmlns="http://www.w3.org/2000/svg">
<path d="M12.4829 1.70374C11.6841 0.866611 10.3913 1.31688 10.052 2.29418C9.77205 3.10043 9.4084 4.06594 9.05406 4.77684C7.99442 6.90276 7.37583 8.11234 5.66974 9.62586C5.44337 9.82668 5.15163 9.9885 4.82905 10.116C3.69991 10.5623 2.63809 11.7321 2.91581 13.1207L3.26885 14.8859C3.45455 15.8144 4.14894 16.5583 5.06251 16.8075L10.6622 18.3347C13.2078 19.0289 15.8017 17.3942 16.2737 14.7983L16.9576 11.0365C17.2924 9.19503 15.8777 7.49989 14.006 7.49989H13.1225L13.1328 7.44766C13.2129 7.03948 13.3093 6.47735 13.3738 5.86473C13.438 5.25446 13.4721 4.58034 13.4218 3.9522C13.3725 3.33584 13.2379 2.70305 12.9176 2.22254C12.8081 2.05832 12.6455 1.87416 12.4829 1.70374Z" fill="#212121"/>
</svg>
