<svg width="20" height="20" viewBox="0 0 20 20" fill="none" xmlns="http://www.w3.org/2000/svg">
<path d="M8 11C8 11.5523 7.55228 12 7 12C6.44772 12 6 11.5523 6 11C6 10.4477 6.44772 10 7 10C7.55228 10 8 10.4477 8 11Z" fill="#212121"/>
<path d="M8 14C8 14.5523 7.55228 15 7 15C6.44772 15 6 14.5523 6 14C6 13.4477 6.44772 13 7 13C7.55228 13 8 13.4477 8 14Z" fill="#212121"/>
<path d="M13 12C13.5523 12 14 11.5523 14 11C14 10.4477 13.5523 10 13 10C12.4477 10 12 10.4477 12 11C12 11.5523 12.4477 12 13 12Z" fill="#212121"/>
<path d="M14 14C14 14.5523 13.5523 15 13 15C12.4477 15 12 14.5523 12 14C12 13.4477 12.4477 13 13 13C13.5523 13 14 13.4477 14 14Z" fill="#212121"/>
<path d="M10 12C10.5523 12 11 11.5523 11 11C11 10.4477 10.5523 10 10 10C9.44772 10 9 10.4477 9 11C9 11.5523 9.44772 12 10 12Z" fill="#212121"/>
<path d="M11 14C11 14.5523 10.5523 15 10 15C9.44772 15 9 14.5523 9 14C9 13.4477 9.44772 13 10 13C10.5523 13 11 13.4477 11 14Z" fill="#212121"/>
<path d="M7.5 4C6.67157 4 6 4.67157 6 5.5V6.5C6 7.32843 6.67157 8 7.5 8H12.5C13.3284 8 14 7.32843 14 6.5V5.5C14 4.67157 13.3284 4 12.5 4H7.5ZM7 5.5C7 5.22386 7.22386 5 7.5 5H12.5C12.7761 5 13 5.22386 13 5.5V6.5C13 6.77614 12.7761 7 12.5 7H7.5C7.22386 7 7 6.77614 7 6.5V5.5Z" fill="#212121"/>
<path d="M16 15.5C16 16.8807 14.8807 18 13.5 18H6.5C5.11929 18 4 16.8807 4 15.5V4.5C4 3.11929 5.11929 2 6.5 2H13.5C14.8807 2 16 3.11929 16 4.5V15.5ZM15 4.5C15 3.67157 14.3284 3 13.5 3H6.5C5.67157 3 5 3.67157 5 4.5V15.5C5 16.3284 5.67157 17 6.5 17H13.5C14.3284 17 15 16.3284 15 15.5V4.5Z" fill="#212121"/>
</svg>
