<svg width="28" height="28" viewBox="0 0 28 28" fill="none" xmlns="http://www.w3.org/2000/svg">
<path d="M22.0078 7.07617C23.7152 7.42696 24.999 8.93884 24.999 10.75V18.75C24.999 22.2018 22.2008 25 18.749 25H10.749C8.93482 25 7.42169 23.7117 7.07422 22H8.62988C8.93901 22.8734 9.76969 23.5 10.749 23.5H18.749C21.3724 23.5 23.499 21.3734 23.499 18.75V10.75C23.499 9.77394 22.8767 8.94537 22.0078 8.63379V7.07617ZM17.25 3C19.3211 3 21 4.67893 21 6.75V17.25C21 19.3211 19.3211 21 17.25 21H6.75C4.67893 21 3 19.3211 3 17.25V11.6348C3.23683 11.7092 3.48862 11.75 3.75 11.75C4.01138 11.75 4.26317 11.7092 4.5 11.6348V17.25C4.5 18.4926 5.50736 19.5 6.75 19.5H17.25C18.4926 19.5 19.5 18.4926 19.5 17.25V6.75C19.5 5.50736 18.4926 4.5 17.25 4.5H6.75C5.50736 4.5 4.5 5.50736 4.5 6.75V6.86426C4.26326 6.78991 4.01128 6.75 3.75 6.75C3.48872 6.75 3.23674 6.78991 3 6.86426V6.75C3 4.67893 4.67893 3 6.75 3H17.25ZM3.75 7.75C4.30495 7.75 4.7884 8.052 5.04785 8.5H5.75C7.55972 8.5 9.26369 9.35211 10.3496 10.7998C11.1522 11.87 12.4123 12.5 13.75 12.5H15.4395L13.2197 10.2803C12.9268 9.98738 12.9268 9.51262 13.2197 9.21973C13.5126 8.92683 13.9874 8.92683 14.2803 9.21973L17.7803 12.7197C17.9209 12.8604 18 13.0511 18 13.25C18 13.4489 17.9209 13.6396 17.7803 13.7803L14.2803 17.2803C13.9874 17.5732 13.5126 17.5732 13.2197 17.2803C12.9268 16.9874 12.9268 16.5126 13.2197 16.2197L15.4395 14H13.75C11.9403 14 10.2363 13.1479 9.15039 11.7002C8.34776 10.63 7.08772 10 5.75 10H5.04785C4.7884 10.448 4.30495 10.75 3.75 10.75C2.92157 10.75 2.25 10.0784 2.25 9.25C2.25 8.42157 2.92157 7.75 3.75 7.75Z" fill="#212121"/>
</svg>
