<svg width="20" height="20" viewBox="0 0 20 20" fill="none" xmlns="http://www.w3.org/2000/svg">
<path d="M3 6C3 4.34315 4.34315 3 6 3H11C12.6569 3 14 4.34315 14 6V12C14 13.6569 12.6569 15 11 15H7.16832L7.61747 14.3824C7.86609 14.0406 8 13.6287 8 13.2061V11C8 10.2597 7.5978 9.61337 7 9.26756V8C7 6.89543 6.10457 6 5 6L3 6ZM17.0373 13.7759L15 12.3692V5.63025L17.0373 4.22353C17.8665 3.65101 18.9976 4.24453 18.9976 5.25215V12.7473C18.9976 13.7549 17.8665 14.3484 17.0373 13.7759ZM2 8V10C1.44772 10 1 10.4477 1 11V13.1788C1 13.3877 1.06542 13.5913 1.18709 13.7611L2.5 15.5938V17C2.5 17.5523 2.94772 18 3.5 18H4.5C5.05228 18 5.5 17.5523 5.5 17V15.5938L6.80874 13.7942C6.93304 13.6233 7 13.4174 7 13.2061V11C7 10.4477 6.55228 10 6 10V8C6 7.44772 5.55228 7 5 7H3C2.44772 7 2 7.44772 2 8ZM5 10H3V8H5V10Z" fill="#212121"/>
</svg>
