<svg width="20" height="20" viewBox="0 0 20 20" fill="none" xmlns="http://www.w3.org/2000/svg">
<path d="M4.00058 4.70769C3.75118 4.9902 3.52142 5.29046 3.31344 5.60634L6.60355 8.89645C6.79882 9.09171 6.79882 9.40829 6.60355 9.60355C6.40829 9.79882 6.09171 9.79882 5.89645 9.60355L2.80052 6.50763C2.62336 6.87217 2.47306 7.25219 2.35222 7.64511L5.60355 10.8964C5.79882 11.0917 5.79882 11.4083 5.60355 11.6036C5.40829 11.7988 5.09171 11.7988 4.89645 11.6036L2.08986 8.79696C2.03068 9.18936 2 9.5911 2 10C2 10.0999 2.00183 10.1994 2.00546 10.2984L5.35355 13.6464C5.54882 13.8417 5.54882 14.1583 5.35355 14.3536C5.15829 14.5488 4.84171 14.5488 4.64645 14.3536L2.23815 11.9453C3.10706 15.4235 6.25264 18 10 18C14.4183 18 18 14.4183 18 10C18 6.25264 15.4235 3.10706 11.9453 2.23815L14.3536 4.64645C14.5488 4.84171 14.5488 5.15829 14.3536 5.35355C14.1583 5.54882 13.8417 5.54882 13.6464 5.35355L10.2984 2.00546C10.1994 2.00183 10.0999 2 10 2C9.5911 2 9.18936 2.03068 8.79696 2.08986L11.6036 4.89645C11.7988 5.09171 11.7988 5.40829 11.6036 5.60355C11.4083 5.79882 11.0917 5.79882 10.8964 5.60355L7.64511 2.35222C7.25219 2.47306 6.87217 2.62336 6.50763 2.80052L9.60355 5.89645C9.79882 6.09171 9.79882 6.40829 9.60355 6.60355C9.40829 6.79882 9.09171 6.79882 8.89645 6.60355L5.60634 3.31344C5.29046 3.52142 4.9902 3.75118 4.70769 4.00058L7.85355 7.14645C8.04882 7.34171 8.04882 7.65829 7.85355 7.85355C7.65829 8.04882 7.34171 8.04882 7.14645 7.85355L4.00058 4.70769Z" fill="#212121"/>
</svg>
