<svg width="24" height="24" viewBox="0 0 24 24" fill="none" xmlns="http://www.w3.org/2000/svg">
<path d="M3.50382 5.62668C2.62793 5.93448 2 6.76891 2 7.75V17.75C2 20.0972 3.90279 22 6.25 22H16.25C17.2311 22 18.0655 21.3721 18.3733 20.4962L16.276 20.4996L6.25 20.5C4.73122 20.5 3.5 19.2688 3.5 17.75V7.75L3.50398 7.69902L3.50382 5.62668ZM6.75319 2C5.51055 2 4.50319 3.00736 4.50319 4.25V17.2468C4.50319 18.4895 5.51055 19.4968 6.75319 19.4968H19.75C20.9926 19.4968 22 18.4895 22 17.2468V4.25C22 3.00736 20.9926 2 19.75 2H6.75319ZM13.25 6.75C13.6297 6.75 13.9435 7.03215 13.9932 7.39823L14 7.5V10H16.5C16.9142 10 17.25 10.3358 17.25 10.75C17.25 11.1297 16.9678 11.4435 16.6018 11.4932L16.5 11.5H14V14C14 14.4142 13.6642 14.75 13.25 14.75C12.8703 14.75 12.5565 14.4678 12.5068 14.1018L12.5 14V11.5H10C9.58579 11.5 9.25 11.1642 9.25 10.75C9.25 10.3703 9.53215 10.0565 9.89823 10.0068L10 10H12.5V7.5C12.5 7.08579 12.8358 6.75 13.25 6.75Z" fill="#212121"/>
</svg>
