<svg width="20" height="20" viewBox="0 0 20 20" fill="none" xmlns="http://www.w3.org/2000/svg">
<path d="M15.5001 1.99998C16.8808 1.99998 18.0001 3.11927 18.0001 4.49998V13.5C18.0001 14.8807 16.8808 16 15.5001 16H6.50014C5.11942 16 4.00014 14.8807 4.00014 13.5V4.49998C4.00014 3.11927 5.11942 1.99998 6.50014 1.99998H15.5001ZM10.5001 6.49998V8.49998H8.50014C8.22399 8.49998 8.00014 8.72384 8.00014 8.99998C8.00014 9.27613 8.22399 9.49998 8.50014 9.49998H10.5001V11.5C10.5001 11.7761 10.724 12 11.0001 12C11.2763 12 11.5001 11.7761 11.5001 11.5V9.49998H13.5001C13.7763 9.49998 14.0001 9.27613 14.0001 8.99998C14.0001 8.72384 13.7763 8.49998 13.5001 8.49998H11.5001V6.49998C11.5001 6.22384 11.2763 5.99998 11.0001 5.99998C10.724 5.99998 10.5001 6.22384 10.5001 6.49998ZM12.4999 18C13.4535 18 14.3181 17.6186 14.9494 17H5.49986C4.11915 17 2.99986 15.8807 2.99986 14.5V5.05052C2.38127 5.68179 1.99986 6.54636 1.99986 7.50001V14.5C1.99986 16.433 3.56687 18 5.49986 18H12.4999Z" fill="black" fill-opacity="0.858824"/>
</svg>
