<svg width="20" height="20" viewBox="0 0 20 20" fill="none" xmlns="http://www.w3.org/2000/svg">
<path d="M13.9242 6.07576C14.1585 6.31007 14.1585 6.68997 13.9242 6.92429C13.6899 7.1586 13.31 7.1586 13.0757 6.92429L10.1 3.94856V8.56005C10.1 9.93776 10.1003 10.9416 10.1535 11.7372C10.2063 12.5276 10.3095 13.0694 10.4949 13.5273C11.0436 14.882 12.118 15.9564 13.4727 16.5051C13.7799 16.6295 13.928 16.9793 13.8036 17.2864C13.6792 17.5936 13.3294 17.7417 13.0222 17.6173C11.3665 16.9467 10.0534 15.6335 9.38272 13.9778C9.12932 13.3522 9.01302 12.6674 8.95617 11.8173C8.89997 10.977 8.89997 9.93317 8.89997 8.58238V3.94854L5.92423 6.92429C5.68991 7.1586 5.31001 7.1586 5.0757 6.92429C4.84138 6.68997 4.84138 6.31007 5.0757 6.07576L9.0757 2.07576C9.18822 1.96324 9.34083 1.90002 9.49996 1.90002C9.65909 1.90002 9.81171 1.96324 9.92423 2.07576L13.9242 6.07576Z" fill="#212121"/>
</svg>
