<svg width="28" height="28" viewBox="0 0 28 28" fill="none" xmlns="http://www.w3.org/2000/svg">
<path d="M3.28033 2.21967C2.98744 1.92678 2.51257 1.92677 2.21967 2.21967C1.92678 2.51256 1.92677 2.98743 2.21967 3.28033L7.76134 8.82209C7.41659 9.49757 7.17829 10.2365 7.06858 11.0167C4.23266 11.2367 2 13.6076 2 16.5C2 19.5376 4.46243 22 7.5 22H20.5C20.6423 22 20.7834 21.9946 20.923 21.984L24.7194 25.7805C25.0123 26.0734 25.4872 26.0734 25.7801 25.7805C26.073 25.4876 26.073 25.0127 25.7801 24.7198L3.28033 2.21967ZM19.4391 20.5H7.5C5.29086 20.5 3.5 18.7091 3.5 16.5C3.5 14.2909 5.29086 12.5 7.5 12.5H7.75491C8.15765 12.5 8.4885 12.1819 8.50433 11.7795C8.52962 11.1365 8.66537 10.5218 8.89311 9.95388L19.4391 20.5ZM9.67633 6.49453L10.7467 7.56492C11.6578 6.89548 12.7828 6.5 14 6.5C16.9637 6.5 19.3802 8.84443 19.4957 11.7795C19.5115 12.1819 19.8423 12.5 20.2451 12.5H20.5C22.7091 12.5 24.5 14.2909 24.5 16.5C24.5 17.8133 23.8671 18.9788 22.8896 19.708L23.9584 20.7768C25.2038 19.7685 26 18.2272 26 16.5C26 13.6076 23.7673 11.2367 20.9314 11.0167C20.4532 7.61603 17.5323 5 14 5C12.3681 5 10.8667 5.55837 9.67633 6.49453Z" fill="#212121"/>
</svg>
