<svg width="24" height="24" viewBox="0 0 24 24" fill="none" xmlns="http://www.w3.org/2000/svg">
<path d="M18 2.75C18 2.33579 17.6642 2 17.25 2C16.8358 2 16.5 2.33579 16.5 2.75V19.4393L14.2803 17.2197C13.9874 16.9268 13.5126 16.9268 13.2197 17.2197C12.9268 17.5126 12.9268 17.9874 13.2197 18.2803L16.7197 21.7803C17.0126 22.0732 17.4874 22.0732 17.7803 21.7803L21.2803 18.2803C21.5732 17.9874 21.5732 17.5126 21.2803 17.2197C20.9874 16.9268 20.5126 16.9268 20.2197 17.2197L18 19.4393V2.75ZM3.125 5.87732C3.125 3.73701 4.86006 2.00195 7.00037 2.00195C9.14067 2.00195 10.8757 3.73701 10.8757 5.87732C10.8757 8.827 9.67054 12.4413 9.06462 14.0809C8.74086 14.957 7.90567 15.4995 7.00253 15.4995C6.09696 15.4995 5.26055 14.9542 4.93776 14.0759C4.33243 12.4289 3.125 8.79606 3.125 5.87732ZM4.5 19.5021C4.5 18.1208 5.61979 17.001 7.00112 17.001C8.38245 17.001 9.50224 18.1208 9.50224 19.5021C9.50224 20.8834 8.38245 22.0032 7.00112 22.0032C5.61979 22.0032 4.5 20.8834 4.5 19.5021Z" fill="#212121"/>
</svg>
