<svg width="16" height="16" viewBox="0 0 16 16" fill="none" xmlns="http://www.w3.org/2000/svg">
<path d="M4.5 1C3.11929 1 2 2.11929 2 3.5C2 5.81801 2.66966 8.26822 3.03581 9.43839C3.239 10.0878 3.84215 10.5 4.5 10.5C5.15785 10.5 5.761 10.0878 5.96419 9.43839C6.33034 8.26822 7 5.81801 7 3.5C7 2.11929 5.88071 1 4.5 1ZM2.75 13.25C2.75 12.2835 3.5335 11.5 4.5 11.5C5.4665 11.5 6.25 12.2835 6.25 13.25C6.25 14.2165 5.4665 15 4.5 15C3.5335 15 2.75 14.2165 2.75 13.25ZM12 1.5C12 1.22386 11.7761 1 11.5 1C11.2239 1 11 1.22386 11 1.5V13.2929L9.85355 12.1464C9.65829 11.9512 9.34171 11.9512 9.14645 12.1464C8.95118 12.3417 8.95118 12.6583 9.14645 12.8536L11.1464 14.8536C11.3417 15.0488 11.6583 15.0488 11.8536 14.8536L13.8536 12.8536C14.0488 12.6583 14.0488 12.3417 13.8536 12.1464C13.6583 11.9512 13.3417 11.9512 13.1464 12.1464L12 13.2929V1.5Z" fill="#212121"/>
</svg>
