<svg width="32" height="32" viewBox="0 0 32 32" fill="none" xmlns="http://www.w3.org/2000/svg">
<path d="M2.29301 2.29297C2.68356 1.90282 3.31667 1.90258 3.70707 2.29297L29.7071 28.293L29.7764 28.3691C30.0963 28.7619 30.0729 29.3411 29.7071 29.707C29.3411 30.073 28.7619 30.0962 28.3692 29.7764L28.3155 29.7275C27.383 30.2036 26.1276 30.5 24.5 30.5C20.2143 30.5 18.5 28.4686 18.5 26.4375C18.5 25.1026 19.5821 24.0002 20.917 24H22.586L20.3018 21.7158C20.4848 21.998 20.6953 22.2608 20.9297 22.5H20.917C18.7376 22.5002 17 24.2904 17 26.4375C17 27.3245 17.2327 28.2072 17.7119 29H8.25004C6.45511 29 5.00004 27.5449 5.00004 25.75V7.25C5.00004 6.99242 5.03121 6.74218 5.08793 6.50195L2.29301 3.70703C1.90249 3.31651 1.90249 2.68349 2.29301 2.29297ZM28.083 24C29.4179 24.0003 30.5 25.1026 30.5 26.4375C30.5 26.6009 30.4867 26.7642 30.4639 26.9268L27.5371 24H28.083ZM24.5 15.5C26.433 15.5001 28 17.067 28 19C28 20.4771 27.0843 21.7392 25.7901 22.2529L21.2461 17.709C21.76 16.415 23.023 15.5 24.5 15.5ZM11 20C10.4478 20 10 20.4477 10 21C10 21.5523 10.4478 22 11 22H15C15.5523 21.9999 16 21.5522 16 21C16 20.4478 15.5523 20.0001 15 20H11ZM11 15C10.4478 15 10 15.4477 10 16C10 16.5523 10.4478 17 11 17H15.586L13.586 15H11ZM21 2C21.5522 2.00007 22 2.44776 22 3V4H23.75C25.5449 4.00008 27 5.45512 27 7.25V14.6699C26.2645 14.2444 25.4109 14 24.5 14C22.6145 14 20.9729 15.0438 20.1211 16.585L15.5362 12H21C21.5522 11.9999 22 11.5522 22 11C22 10.4478 21.5522 10.0001 21 10H13.5362L7.60062 4.06445C7.8104 4.02193 8.02772 4 8.25004 4H10V3C10 2.44772 10.4478 2 11 2C11.5523 2.00007 12 2.44776 12 3V4H15V3C15 2.44772 15.4477 2 16 2C16.5523 2.00007 17 2.44776 17 3V4H20V3C20 2.44772 20.4477 2 21 2Z" fill="#212121"/>
</svg>
