<svg width="24" height="24" viewBox="0 0 24 24" fill="none" xmlns="http://www.w3.org/2000/svg">
<path d="M6.25 3C4.45507 3 3 4.45508 3 6.25V17.75C3 19.5449 4.45508 21 6.25 21H17.75C19.5449 21 21 19.5449 21 17.75V6.25C21 4.45507 19.5449 3 17.75 3H6.25ZM16.2802 9.78034L11.2802 14.7801C10.9873 15.073 10.5124 15.073 10.2196 14.7801L8.21576 12.7763C7.92287 12.4834 7.92287 12.0085 8.21576 11.7157C8.50865 11.4228 8.98353 11.4228 9.27642 11.7157L10.7499 13.1891L15.2196 8.71966C15.5125 8.42677 15.9873 8.42678 16.2802 8.71968C16.5731 9.01258 16.5731 9.48746 16.2802 9.78034Z" fill="#212121"/>
</svg>
