<svg width="24" height="24" viewBox="0 0 24 24" fill="none" xmlns="http://www.w3.org/2000/svg">
<path d="M17.0146 6.41113C19.9519 7.42743 22.0614 10.2171 22.0615 13.5C22.0615 14.6331 21.8095 15.7092 21.3584 16.6738C21.6114 17.6818 21.8678 18.7742 22.0303 19.4775C22.2347 20.3625 21.455 21.1631 20.5625 20.9766C19.8353 20.8246 18.693 20.5812 17.6494 20.3369C16.7069 20.7632 15.661 21 14.5615 21C12.5923 21 10.8001 20.2414 9.46191 19C9.49507 19.0004 9.52828 19 9.56152 19C10.2795 19 10.9766 18.9108 11.6426 18.7432C12.5065 19.2251 13.502 19.5 14.5615 19.5C15.5222 19.5 16.4282 19.2749 17.2314 18.875L17.4746 18.7539L17.7393 18.8164C18.6608 19.0358 19.7045 19.263 20.4785 19.4268C20.3036 18.6762 20.0647 17.6708 19.8369 16.7754L19.7666 16.5L19.8975 16.2471C20.3217 15.4249 20.5615 14.4914 20.5615 13.5C20.5615 11.3854 19.4673 9.52654 17.8145 8.45801C17.6361 7.73484 17.3649 7.04811 17.0146 6.41113ZM9.5 3C13.6421 3 17 6.35786 17 10.5C17 14.6421 13.6421 18 9.5 18C8.40027 18 7.35382 17.7624 6.41113 17.3359C5.15291 17.6263 3.79808 17.8763 3.1748 17.9873C2.48728 18.1096 1.88826 17.5063 2.02148 16.8174C2.13929 16.2085 2.401 14.9 2.70312 13.6748C2.25174 12.7099 2 11.6334 2 10.5C2 6.35786 5.35786 3 9.5 3ZM7.5 11C6.67157 11 6 11.6716 6 12.5C6 14 7.5 15 9.5 15C11.5 15 13 14 13 12.5C13 11.6716 12.3284 11 11.5 11H7.5ZM9.5 6C8.39543 6 7.5 6.89543 7.5 8C7.5 9.10457 8.39543 10 9.5 10C10.6046 10 11.5 9.10457 11.5 8C11.5 6.89543 10.6046 6 9.5 6Z" fill="#212121"/>
</svg>
