<svg width="20" height="20" viewBox="0 0 20 20" fill="none" xmlns="http://www.w3.org/2000/svg">
<path d="M3 3.25C3 3.11193 3.11193 3 3.25 3H8.75C8.88807 3 9 3.11193 9 3.25V5.75C9 6.44036 9.55964 7 10.25 7H11.75C11.8881 7 12 7.11193 12 7.25V8H13V7.25C13 6.55964 12.4404 6 11.75 6H10.25C10.1119 6 10 5.88807 10 5.75V3.25C10 2.55964 9.44036 2 8.75 2H3.25C2.55964 2 2 2.55964 2 3.25V13.75C2 14.4404 2.55964 15 3.25 15H7V14H3.25C3.11193 14 3 13.8881 3 13.75V3.25ZM7.25 8.5C7.52312 8.5 7.76213 8.64598 7.89328 8.86418C7.57415 9.179 7.32522 9.56481 7.17212 9.99601C6.7945 9.95705 6.5 9.63792 6.5 9.25C6.5 8.83579 6.83579 8.5 7.25 8.5ZM4.75 5.5C5.16421 5.5 5.5 5.16421 5.5 4.75C5.5 4.33579 5.16421 4 4.75 4C4.33579 4 4 4.33579 4 4.75C4 5.16421 4.33579 5.5 4.75 5.5ZM5.5 7C5.5 7.41421 5.16421 7.75 4.75 7.75C4.33579 7.75 4 7.41421 4 7C4 6.58579 4.33579 6.25 4.75 6.25C5.16421 6.25 5.5 6.58579 5.5 7ZM4.75 10C5.16421 10 5.5 9.66421 5.5 9.25C5.5 8.83579 5.16421 8.5 4.75 8.5C4.33579 8.5 4 8.83579 4 9.25C4 9.66421 4.33579 10 4.75 10ZM8 4.75C8 5.16421 7.66421 5.5 7.25 5.5C6.83579 5.5 6.5 5.16421 6.5 4.75C6.5 4.33579 6.83579 4 7.25 4C7.66421 4 8 4.33579 8 4.75ZM7.25 7.75C7.66421 7.75 8 7.41421 8 7C8 6.58579 7.66421 6.25 7.25 6.25C6.83579 6.25 6.5 6.58579 6.5 7C6.5 7.41421 6.83579 7.75 7.25 7.75ZM8 11C8 9.89543 8.89543 9 10 9H17C18.1046 9 19 9.89543 19 11V15C19 16.1046 18.1046 17 17 17H15V18H16.5C16.7761 18 17 18.2239 17 18.5C17 18.7761 16.7761 19 16.5 19H10.5C10.2239 19 10 18.7761 10 18.5C10 18.2239 10.2239 18 10.5 18H12V17H10C8.89543 17 8 16.1046 8 15V11ZM10 16H17C17.5523 16 18 15.5523 18 15V11C18 10.4477 17.5523 10 17 10H10C9.44772 10 9 10.4477 9 11V15C9 15.5523 9.44772 16 10 16ZM14 18V17H13V18H14Z" fill="#212121"/>
</svg>
