<svg width="32" height="32" viewBox="0 0 32 32" fill="none" xmlns="http://www.w3.org/2000/svg">
<path d="M16 16C19.866 16 23 12.866 23 9C23 5.13401 19.866 2 16 2C12.134 2 9 5.13401 9 9C9 12.866 12.134 16 16 16ZM7.5 18C5.56696 18 3.99994 19.5671 4 21.5001L4.00001 22.0001C4.00003 24.3936 5.52264 26.4175 7.68492 27.7935C9.85906 29.177 12.8016 30.0001 15.9999 30.0001C17.1419 30.0001 18.2512 29.8951 19.3047 29.6972C18.7705 28.7194 18.9419 27.468 19.794 26.6726C20.144 26.3458 20.5628 26.1389 21 26.0502V25.6348C20.6348 25.52 20.2963 25.3214 20.0138 25.0488C19.4661 24.5201 19.1891 23.7708 19.2613 23.013L19.7387 18H7.5ZM21.2545 17.9052C21.3034 17.392 21.7344 17 22.25 17H28.5C29.0523 17 29.5 17.4477 29.5 18C29.5 18.5523 29.0523 19 28.5 19H23.1593L22.865 22.0896L24.7754 21.8305C27.5397 21.4556 30 23.6047 30 26.3944C30 28.938 27.938 31 25.3944 31H24.778C23.47 31 22.2097 30.5092 21.2462 29.6246L20.8237 29.2366C20.4169 28.8631 20.3899 28.2305 20.7634 27.8237C21.1369 27.4169 21.7695 27.3899 22.1763 27.7634L22.5989 28.1514C23.1933 28.6972 23.971 29 24.778 29H25.3944C26.8334 29 28 27.8334 28 26.3944C28 24.8161 26.6081 23.6003 25.0442 23.8124L21.8844 24.2409C21.5819 24.282 21.2772 24.1826 21.0571 23.9711C20.837 23.7595 20.7256 23.4591 20.7545 23.1552L21.2545 17.9052Z" fill="#212121"/>
</svg>
