<svg width="28" height="28" viewBox="0 0 28 28" fill="none" xmlns="http://www.w3.org/2000/svg">
<path d="M15.7725 23.8428C16.2738 23.7529 16.7875 23.9992 16.9824 24.4697C17.212 25.0241 16.911 25.6587 16.3223 25.7744C15.5697 25.9222 14.792 26 13.9961 26C13.2031 26 12.4277 25.9231 11.6777 25.7764C11.089 25.6609 10.7882 25.0261 11.0176 24.4717C11.2123 24.0015 11.7255 23.7544 12.2266 23.8438C12.8008 23.9463 13.3924 24 13.9961 24C14.6023 24 15.196 23.9461 15.7725 23.8428ZM4.4834 19.293C4.95369 19.0982 5.49149 19.2872 5.78223 19.7051C6.46359 20.6842 7.31542 21.5359 8.29492 22.2168C8.71304 22.5074 8.9019 23.0452 8.70703 23.5156C8.4773 24.0698 7.81553 24.306 7.31738 23.9717C6.0186 23.1001 4.89948 21.981 4.02734 20.6826C3.69287 20.1844 3.92902 19.5227 4.4834 19.293ZM22.2129 19.7012C22.5036 19.2836 23.0406 19.0945 23.5107 19.2891C24.0651 19.5187 24.3011 20.1805 23.9668 20.6787C23.0959 21.9763 21.9786 23.0951 20.6816 23.9668C20.1834 24.3016 19.5207 24.0653 19.291 23.5107C19.0964 23.0406 19.2856 22.5036 19.7031 22.2129C20.6813 21.5319 21.5325 20.6799 22.2129 19.7012ZM18.2891 10.0479C18.6795 9.65739 19.3126 9.65751 19.7031 10.0479C20.0936 10.4384 20.0936 11.0714 19.7031 11.4619L13.208 17.957C12.8175 18.3473 12.1844 18.3474 11.7939 17.957L8.29297 14.457C7.9025 14.0666 7.90256 13.4335 8.29297 13.043C8.68343 12.6525 9.31648 12.6526 9.70703 13.043L12.5 15.8359L18.2891 10.0479ZM2.22168 11.6719C2.33742 11.0833 2.97215 10.7823 3.52637 11.0117C3.99694 11.2066 4.24324 11.7203 4.15332 12.2217C4.04976 12.7987 3.99609 13.3931 3.99609 14C3.99609 14.6052 4.0503 15.1978 4.15332 15.7734C4.24304 16.2747 3.99584 16.7885 3.52539 16.9834C2.97105 17.2128 2.33627 16.912 2.2207 16.3232C2.07327 15.5717 1.99609 14.7948 1.99609 14C1.99609 13.2035 2.07361 12.425 2.22168 11.6719ZM24.4658 11.0156C25.0202 10.786 25.6559 11.0869 25.7715 11.6758C25.9191 12.4277 25.9961 13.2048 25.9961 14C25.9961 14.7931 25.9193 15.5683 25.7725 16.3184C25.6571 16.9075 25.0214 17.2092 24.4668 16.9795C23.9967 16.7846 23.7504 16.2706 23.8398 15.7695C23.9424 15.1952 23.9961 14.6038 23.9961 14C23.9961 13.3944 23.942 12.8015 23.8389 12.2256C23.7491 11.7244 23.9956 11.2106 24.4658 11.0156ZM19.2939 4.49023C19.5239 3.93583 20.1865 3.70018 20.6846 4.03516C21.9788 4.90559 23.094 6.02172 23.9639 7.31641C24.2986 7.81465 24.0624 8.47635 23.5078 8.70605C23.0377 8.90068 22.5007 8.71248 22.21 8.29492C21.5305 7.31855 20.6811 6.46897 19.7051 5.78906C19.2875 5.49822 19.0992 4.96034 19.2939 4.49023ZM7.31543 4.03027C7.81366 3.69581 8.47543 3.93191 8.70508 4.48633C8.89978 4.9566 8.71079 5.49349 8.29297 5.78418C7.31536 6.4641 6.46472 7.31485 5.78418 8.29199C5.4933 8.70929 4.95631 8.89777 4.48633 8.70312C3.93164 8.47337 3.6953 7.81074 4.03027 7.3125C4.90145 6.01683 6.01916 4.90063 7.31543 4.03027ZM13.9961 2C14.793 2 15.5718 2.0774 16.3252 2.22559C16.9138 2.34138 17.2149 2.977 16.9854 3.53125C16.7903 4.00147 16.2765 4.24795 15.7754 4.1582C15.1981 4.05456 14.6032 4 13.9961 4C13.3916 4 12.7996 4.05347 12.2246 4.15625C11.7234 4.24586 11.2095 3.99968 11.0146 3.5293C10.785 2.97493 11.0861 2.34029 11.6748 2.22461C12.4257 2.07747 13.2021 2 13.9961 2Z" fill="#212121"/>
</svg>
