<svg width="17" height="16" viewBox="0 0 17 16" fill="none" xmlns="http://www.w3.org/2000/svg">
<path d="M7.41602 12C10.1774 12 12.416 9.76142 12.416 7C12.416 4.23858 10.1774 2 7.41602 2C4.65459 2 2.41602 4.23858 2.41602 7C2.41602 9.76142 4.65459 12 7.41602 12ZM7.41602 10.5C6.72097 10.5 6.07324 10.2974 5.52866 9.94804L10.3641 5.11265C10.7134 5.65722 10.916 6.30495 10.916 7C10.916 8.933 9.34901 10.5 7.41602 10.5ZM9.3034 4.05198L4.468 8.88738C4.11862 8.3428 3.91602 7.69506 3.91602 7C3.91602 5.067 5.48302 3.5 7.41602 3.5C8.11108 3.5 8.75881 3.70261 9.3034 4.05198ZM13.416 7C13.416 10.3137 10.7297 13 7.41596 13C7.02647 13 6.64566 12.9629 6.27686 12.892C7.13501 13.585 8.22702 14 9.41596 14C12.1774 14 14.416 11.7614 14.416 9C14.416 7.81107 14.001 6.71905 13.308 5.8609C13.3788 6.22971 13.416 6.61052 13.416 7Z" fill="#212121"/>
</svg>
