<svg width="24" height="24" viewBox="0 0 24 24" fill="none" xmlns="http://www.w3.org/2000/svg">
<path d="M12.9518 18.1018L13.0364 18.1998L15.3905 20.5566C15.5696 20.8301 15.8949 21 16.2509 21C16.5739 21 16.8697 20.8606 17.0558 20.6321L17.0614 20.6253L17.1068 20.5608L19.4653 18.1998L19.5498 18.1018L19.5553 18.0944C19.8138 17.746 19.817 17.2687 19.5649 16.9171L19.5589 16.9088L19.46 16.7923L19.3542 16.701L19.3468 16.6955C18.9984 16.437 18.5211 16.4338 18.1696 16.6859L18.1612 16.6919L18.0517 16.7849L17.25 17.5865V3.89656L17.2416 3.78831L17.2402 3.77878C17.1682 3.3147 16.7292 3 16.2499 3C15.7705 3 15.3317 3.31494 15.2598 3.77901L15.2583 3.78854L15.25 3.89675V17.5859L14.4507 16.7856L14.3526 16.701L14.3452 16.6955C13.9535 16.4049 13.3981 16.4369 13.0429 16.7921C12.6877 17.1473 12.6557 17.7027 12.9463 18.0944L12.9518 18.1018ZM4 17.5078C4 18.8885 5.11929 20.0078 6.5 20.0078H10.5C11.0523 20.0078 11.5 19.5601 11.5 19.0078C11.5 18.4555 11.0523 18.0078 10.5 18.0078H6.5C6.22386 18.0078 6 17.784 6 17.5078V6.50781C6 6.23167 6.22386 6.00781 6.5 6.00781H12.5C13.0523 6.00781 13.5 5.5601 13.5 5.00781C13.5 4.45553 13.0523 4.00781 12.5 4.00781H6.5C5.11929 4.00781 4 5.1271 4 6.50781V17.5078Z" fill="#212121"/>
</svg>
