<svg width="20" height="20" viewBox="0 0 20 20" fill="none" xmlns="http://www.w3.org/2000/svg">
<path d="M4.99999 5.99998C4.99999 4.34313 6.34314 2.99998 7.99999 2.99998H14C15.6568 2.99998 17 4.34313 17 5.99998V12C17 12.6479 16.7946 13.2478 16.4454 13.7383L12.2092 9.50205C11.5414 8.83426 10.4586 8.83426 9.79085 9.50205L5.55463 13.7383C5.20539 13.2479 4.99999 12.6479 4.99999 12V5.99998ZM13.4975 7.49659C14.0484 7.49659 14.495 7.04999 14.495 6.49908C14.495 5.94817 14.0484 5.50157 13.4975 5.50157C12.9466 5.50157 12.5 5.94817 12.5 6.49908C12.5 7.04999 12.9466 7.49659 13.4975 7.49659ZM11.502 10.2092L15.7383 14.4454C15.2478 14.7946 14.6479 15 14 15H7.99999C7.35208 15 6.75215 14.7946 6.26174 14.4454L10.498 10.2092C10.7752 9.93189 11.2248 9.93189 11.502 10.2092ZM14.2361 16C13.6868 16.6138 12.8885 17 12 17H7.5C5.01472 17 3 14.9853 3 12.5V8.00001C3 7.11151 3.38625 6.31322 4 5.7639V12.5C4 12.6208 4.00612 12.7402 4.01807 12.8579C4.1973 14.6228 5.68782 16 7.5 16H14.2361Z" fill="#212121"/>
</svg>
