<svg width="16" height="16" viewBox="0 0 16 16" fill="none" xmlns="http://www.w3.org/2000/svg">
<path d="M4 3C4 1.89543 4.89543 1 6 1H9.58579C9.98361 1 10.3651 1.15804 10.6464 1.43934L13.5607 4.35355C13.842 4.63486 14 5.01639 14 5.41421V13C14 14.1046 13.1046 15 12 15H8.66308C9.06621 14.7161 9.42948 14.3794 9.74284 14H12C12.5523 14 13 13.5523 13 13V6H10.5C9.67157 6 9 5.32843 9 4.5V2H6C5.44772 2 5 2.44772 5 3V5.02242C4.65659 5.05337 4.32228 5.11588 4 5.20703V3ZM10.5 5H12.7929L10 2.20711V4.5C10 4.77614 10.2239 5 10.5 5ZM5.5 6C7.98528 6 10 8.01472 10 10.5C10 12.9853 7.98528 15 5.5 15C3.01472 15 1 12.9853 1 10.5C1 8.01472 3.01472 6 5.5 6ZM7.85316 10.854L7.85567 10.8514C7.90256 10.804 7.93802 10.7495 7.96206 10.6914C7.98615 10.6333 7.9996 10.5697 7.99999 10.503L8 10.5L7.99999 10.497C7.9996 10.4303 7.98615 10.3667 7.96206 10.3086C7.93766 10.2496 7.90149 10.1944 7.85355 10.1464L5.85355 8.14645C5.65829 7.95118 5.34171 7.95118 5.14645 8.14645C4.95118 8.34171 4.95118 8.65829 5.14645 8.85355L6.29289 10H3.5C3.22386 10 3 10.2239 3 10.5C3 10.7761 3.22386 11 3.5 11H6.29289L5.14645 12.1464C4.95118 12.3417 4.95118 12.6583 5.14645 12.8536C5.34171 13.0488 5.65829 13.0488 5.85355 12.8536L7.85316 10.854Z" fill="#212121"/>
</svg>
