<svg width="16" height="16" viewBox="0 0 16 16" fill="none" xmlns="http://www.w3.org/2000/svg">
<path d="M10.2019 4.004L13.3873 7.18939C14.2043 8.00632 14.2043 9.33084 13.3873 10.1478C12.8551 10.68 12.1074 10.8655 11.425 10.7042L11.425 10.8241C11.425 11.4723 10.8995 11.9978 10.2513 11.9978H8.06254V11.4994C8.06254 10.6991 7.42371 10.0004 6.5 10.0004H5.5C5.22386 10.0004 5 10.2242 5 10.5004C5 10.7765 5.22386 11.0004 5.5 11.0004H6.5C6.87284 11.0004 7.06254 11.2528 7.06254 11.4994V11.9978H4.1737C3.52548 11.9978 3 11.4723 3 10.8241L3.00004 9.29338C3.00004 9.25834 3.00074 9.22366 3.00212 9.18934C2.38292 8.90992 1.95197 8.28713 1.95197 7.56368C1.95197 6.57918 2.75007 5.78107 3.73457 5.78107C4.52499 5.78107 5.19526 6.29551 5.42881 7.00784C5.507 7.00287 5.58609 7.00037 5.66594 7.00037H8.80928C9.16348 7.00037 9.5014 7.05666 9.81005 7.18315C9.84926 7.11719 9.88778 6.99973 9.92895 6.87417C9.98875 6.6918 10.0542 6.49233 10.1355 6.40872L8.9661 5.23983C8.62483 4.89857 8.62483 4.34526 8.9661 4.004C9.30737 3.66273 9.86067 3.66273 10.2019 4.004Z" fill="#212121"/>
</svg>
