<svg width="16" height="16" viewBox="0 0 16 16" fill="none" xmlns="http://www.w3.org/2000/svg">
<path d="M9.32779 6.40283L8.43304 5.51561C7.94785 5.02856 7.94786 4.23967 8.43305 3.75262C8.91916 3.26465 9.708 3.26451 10.1943 3.7522L13.2886 6.84333C14.2377 7.796 14.2377 9.33979 13.2886 10.2925C12.7892 10.7938 12.1262 11.0314 11.4724 11.0058C11.2084 11.594 10.619 12.0039 9.93252 12.0039H4.68895C3.75423 12.0039 2.99976 11.2438 2.99976 10.3102V9.24345C2.99976 8.9455 3.04727 8.65826 3.13517 8.38911C2.47175 8.14032 1.99957 7.5003 1.99957 6.75C1.99957 5.7835 2.78307 5 3.74957 5C4.635 5 5.36684 5.65757 5.48339 6.51101C5.56444 6.50372 5.64652 6.5 5.72949 6.5H8.89198C9.01083 6.5 9.12664 6.50873 9.23881 6.52418C9.26697 6.4833 9.29664 6.4429 9.32779 6.40283ZM9.48624 4.45837C9.39082 4.36259 9.23692 4.36259 9.14151 4.45837C9.04531 4.55495 9.04504 4.71215 9.14072 4.80905L10.737 6.39193L10.2721 6.83811C10.1 7.01968 10.0083 7.15813 9.95445 7.28417L9.78203 7.68804L9.35928 7.56919C9.20267 7.52517 9.04659 7.5 8.89198 7.5H5.72949C4.77748 7.5 3.99976 8.2801 3.99976 9.24345V10.3102C3.99976 10.6951 4.31012 11.0039 4.68895 11.0039H7.00493L7.00492 11V10.5594C7.00492 10.3091 6.74962 10 6.31573 10H5.4967C5.22056 10 4.9967 9.77614 4.9967 9.5C4.9967 9.22386 5.22056 9 5.4967 9H6.31573C7.19537 9 8.00492 9.65595 8.00492 10.5594V11L8.0049 11.0039H9.93252C10.2834 11.0039 10.5752 10.739 10.6155 10.3951L10.6812 9.83424L11.23 9.9674C11.6999 10.0814 12.2142 9.95413 12.5802 9.58671C13.1404 9.02437 13.1405 8.11193 12.5805 7.54944L9.4871 4.45923L9.48624 4.45837ZM3.63052 7.4906C3.86828 7.20329 4.16334 6.96528 4.49827 6.79464C4.49913 6.77987 4.49957 6.76499 4.49957 6.75C4.49957 6.33579 4.16379 6 3.74957 6C3.33536 6 2.99957 6.33579 2.99957 6.75C2.99957 7.1237 3.27288 7.43356 3.63052 7.4906Z" fill="#212121"/>
</svg>
