<svg width="48" height="48" viewBox="0 0 48 48" fill="none" xmlns="http://www.w3.org/2000/svg">
<path d="M37 4C41.9706 4 46 8.02944 46 13V14.75C46 15.4404 45.4404 16 44.75 16C44.0596 16 43.5 15.4404 43.5 14.75V13C43.5 9.41015 40.5899 6.5 37 6.5C33.4101 6.5 30.5 9.41015 30.5 13V18H32.75C36.2018 18 39 20.7982 39 24.25V37.75C39 41.2018 36.2018 44 32.75 44H15.25C11.7982 44 9 41.2018 9 37.75V24.25C9 20.7982 11.7982 18 15.25 18H28V13C28 8.02944 32.0294 4 37 4ZM24 28.5C22.6193 28.5 21.5 29.6193 21.5 31C21.5 32.3807 22.6193 33.5 24 33.5C25.3807 33.5 26.5 32.3807 26.5 31C26.5 29.6193 25.3807 28.5 24 28.5Z" fill="#212121"/>
</svg>
