<svg width="32" height="32" viewBox="0 0 32 32" fill="none" xmlns="http://www.w3.org/2000/svg">
<path d="M22 6C22 3.79086 23.7909 2 26 2C28.2091 2 30 3.79086 30 6V7C30 7.55228 30.4477 8 31 8C31.5523 8 32 7.55228 32 7V6C32 2.68629 29.3137 0 26 0C22.6863 0 20 2.68629 20 6V9H8.5C6.01472 9 4 11.0147 4 13.5V25.5C4 27.9853 6.01472 30 8.5 30H23.5C25.9853 30 28 27.9853 28 25.5V13.5C28 11.0147 25.9853 9 23.5 9H22V6ZM8.5 11H23.5C24.8807 11 26 12.1193 26 13.5V25.5C26 26.8807 24.8807 28 23.5 28H8.5C7.11929 28 6 26.8807 6 25.5V13.5C6 12.1193 7.11929 11 8.5 11ZM18 20C18 21.1046 17.1046 22 16 22C14.8954 22 14 21.1046 14 20C14 18.8954 14.8954 18 16 18C17.1046 18 18 18.8954 18 20Z" fill="#212121"/>
</svg>
