<svg width="20" height="21" viewBox="0 0 20 21" fill="none" xmlns="http://www.w3.org/2000/svg">
<path d="M4 1.5C4.36429 1.5 4.70583 1.59739 5 1.76757C5.29418 1.59739 5.63571 1.5 6 1.5C7.10457 1.5 8 2.39543 8 3.5V4.5H8.5C8.77614 4.5 9 4.72386 9 5V9.5C9 10.6046 8.10457 11.5 7 11.5H3C2.65312 11.5 2.32686 11.4117 2.04248 11.2563C1.42133 10.917 1 10.2577 1 9.5V5C1 4.72386 1.22386 4.5 1.5 4.5H2V3.5C2 2.39543 2.89543 1.5 4 1.5ZM3 4.5H5V3.5C5 2.94772 4.55228 2.5 4 2.5C3.44772 2.5 3 2.94772 3 3.5V4.5ZM6 3.5V4.5H7V3.5C7 2.94772 6.55228 2.5 6 2.5C5.91376 2.5 5.83008 2.51092 5.75025 2.53144C5.90938 2.8184 6 3.14862 6 3.5ZM9 3.58535V3.5H12.2505C13.217 3.5 14.0005 4.2835 14.0005 5.25V6.50006L14.8824 6.49994C15.4506 6.49986 15.9701 6.82087 16.2242 7.32912L17.8422 10.5651C17.9464 10.7734 18.0006 11.0031 18.0006 11.2359V14.9999C18.0006 15.8283 17.329 16.4999 16.5006 16.4999H14.9505C14.7189 17.641 13.71 18.5 12.5005 18.5C11.291 18.5 10.2821 17.6411 10.0505 16.5H8.95048C8.71884 17.6411 7.70997 18.5 6.50049 18.5C5.29101 18.5 4.28213 17.6411 4.0505 16.5H3.79248C2.82598 16.5 2.04248 15.7165 2.04248 14.75V12.3439C2.34318 12.4452 2.66518 12.5 3 12.5H3.04248V14.75C3.04248 15.1642 3.37827 15.5 3.79248 15.5H4.0505C4.28213 14.3589 5.29101 13.5 6.50049 13.5C7.70997 13.5 8.71884 14.3589 8.95048 15.5H10.0505C10.2821 14.3589 11.291 13.5 12.5005 13.5C12.6717 13.5 12.8389 13.5172 13.0005 13.55V5.25C13.0005 4.83579 12.6647 4.5 12.2505 4.5H9.91465C9.764 4.07379 9.42621 3.736 9 3.58535ZM14.0005 13.9998C14.4805 14.3604 14.8266 14.8898 14.9504 15.4999H16.5006C16.7767 15.4999 17.0006 15.276 17.0006 14.9999V11.4999H14.0005V13.9998ZM14.0005 10.4999H16.6916L15.3298 7.77633C15.2451 7.60692 15.0719 7.49991 14.8825 7.49994L14.0005 7.50006V10.4999ZM6.50049 14.5C5.67206 14.5 5.00049 15.1716 5.00049 16C5.00049 16.8284 5.67206 17.5 6.50049 17.5C7.32892 17.5 8.00049 16.8284 8.00049 16C8.00049 15.1716 7.32892 14.5 6.50049 14.5ZM11.0005 16C11.0005 16.8284 11.6721 17.5 12.5005 17.5C13.3289 17.5 14.0005 16.8284 14.0005 16C14.0005 15.1716 13.3289 14.5 12.5005 14.5C11.6721 14.5 11.0005 15.1716 11.0005 16Z" fill="#212121"/>
</svg>
