<svg width="20" height="20" viewBox="0 0 20 20" fill="none" xmlns="http://www.w3.org/2000/svg">
<path d="M4 1C4.36429 1 4.70583 1.09739 5 1.26757C5.29418 1.09739 5.63571 1 6 1C7.10457 1 8 1.89543 8 3V4H8.5C8.77614 4 9 4.22386 9 4.5V9C9 10.1046 8.10457 11 7 11H3C2.65312 11 2.32686 10.9117 2.04248 10.7563C1.42133 10.417 1 9.75768 1 9V4.5C1 4.22386 1.22386 4 1.5 4H2V3C2 1.89543 2.89543 1 4 1ZM3 4H5V3C5 2.44772 4.55228 2 4 2C3.44772 2 3 2.44772 3 3V4ZM6 3V4H7V3C7 2.44772 6.55228 2 6 2C5.91376 2 5.83008 2.01092 5.75025 2.03144C5.90938 2.3184 6 2.64862 6 3ZM9 3.08535V3H12.2505C13.217 3 14.0005 3.7835 14.0005 4.75V6.00006L14.8824 5.99994C15.4506 5.99986 15.9701 6.32087 16.2242 6.82912L17.8422 10.0651C17.9464 10.2734 18.0006 10.5031 18.0006 10.7359V14.4999C18.0006 15.3283 17.329 15.9999 16.5006 15.9999H14.9505C14.7189 17.141 13.71 18 12.5005 18C11.291 18 10.2821 17.1411 10.0505 16H8.95048C8.71884 17.1411 7.70997 18 6.50049 18C5.29101 18 4.28213 17.1411 4.0505 16H3.79248C2.82598 16 2.04248 15.2165 2.04248 14.25V11.8439C2.34318 11.9452 2.66518 12 3 12H7C8.65685 12 10 10.6569 10 9V4.5C10 3.84689 9.5826 3.29127 9 3.08535ZM14.0005 7.00006V9.99994H16.6916L15.3298 7.27633C15.2451 7.10692 15.0719 6.99991 14.8825 6.99994L14.0005 7.00006ZM6.50049 14C5.67206 14 5.00049 14.6716 5.00049 15.5C5.00049 16.3284 5.67206 17 6.50049 17C7.32892 17 8.00049 16.3284 8.00049 15.5C8.00049 14.6716 7.32892 14 6.50049 14ZM11.0005 15.5C11.0005 16.3284 11.6721 17 12.5005 17C13.3289 17 14.0005 16.3284 14.0005 15.5C14.0005 14.6716 13.3289 14 12.5005 14C11.6721 14 11.0005 14.6716 11.0005 15.5Z" fill="#212121"/>
</svg>
