<svg width="24" height="24" viewBox="0 0 24 24" fill="none" xmlns="http://www.w3.org/2000/svg">
<path d="M20.2197 3.21967C20.5126 2.92678 20.9874 2.92678 21.2803 3.21967C21.5732 3.51256 21.5732 3.98744 21.2803 4.28033L19.8107 5.75L21.2803 7.21967C21.5732 7.51256 21.5732 7.98744 21.2803 8.28033C20.9874 8.57322 20.5126 8.57322 20.2197 8.28033L18.2197 6.28033C17.9268 5.98744 17.9268 5.51256 18.2197 5.21967L20.2197 3.21967ZM14.25 5C14.6642 5 15 5.33579 15 5.75C15 6.16421 14.6642 6.5 14.25 6.5H2.75C2.33579 6.5 2 6.16421 2 5.75C2 5.33579 2.33579 5 2.75 5H14.25ZM21.25 18C21.6642 18 22 18.3358 22 18.75C22 19.1642 21.6642 19.5 21.25 19.5H2.75C2.33579 19.5 2 19.1642 2 18.75C2 18.3358 2.33579 18 2.75 18H21.25ZM22 12.25C22 11.8358 21.6642 11.5 21.25 11.5H2.75C2.33579 11.5 2 11.8358 2 12.25C2 12.6642 2.33579 13 2.75 13H21.25C21.6642 13 22 12.6642 22 12.25Z" fill="#212121"/>
</svg>
