<svg width="20" height="20" viewBox="0 0 20 20" fill="none" xmlns="http://www.w3.org/2000/svg">
<path d="M15.7197 2.21967C16.0126 1.92678 16.4874 1.92678 16.7803 2.21967C17.0732 2.51256 17.0732 2.98744 16.7803 3.28033L15.8107 4.25L16.7803 5.21967C17.0732 5.51256 17.0732 5.98744 16.7803 6.28033C16.4874 6.57322 16.0126 6.57322 15.7197 6.28033L14.2197 4.78033C13.9268 4.48744 13.9268 4.01256 14.2197 3.71967L15.7197 2.21967ZM3.75 3.5H11.25C11.6642 3.5 12 3.83579 12 4.25C12 4.66421 11.6642 5 11.25 5H3.75C3.33579 5 3 4.66421 3 4.25C3 3.83579 3.33579 3.5 3.75 3.5ZM16.25 13.5C16.6642 13.5 17 13.8358 17 14.25C17 14.6642 16.6642 15 16.25 15H3.75C3.33579 15 3 14.6642 3 14.25C3 13.8358 3.33579 13.5 3.75 13.5H16.25ZM3.75 10H16.25C16.6642 10 17 9.66421 17 9.25C17 8.83579 16.6642 8.5 16.25 8.5H3.75C3.33579 8.5 3 8.83579 3 9.25C3 9.66421 3.33579 10 3.75 10Z" fill="#212121"/>
</svg>
