<svg width="16" height="16" viewBox="0 0 16 16" fill="none" xmlns="http://www.w3.org/2000/svg">
<path d="M4.92552 3.37088C5.58306 2.56722 6.60015 2 8 2C8.85003 2 9.84106 2.28075 10.6291 2.92552C11.2682 3.44844 11.7578 4.19876 11.9315 5.18814C11.4751 5.06544 10.9952 5 10.5 5C7.46243 5 5 7.46243 5 10.5C5 10.8415 5.03112 11.1757 5.09069 11.5H4.5C3.14626 11.5 2.24239 11.0899 1.68621 10.4543C1.14196 9.83225 1 9.07262 1 8.5C1 7.3222 1.96544 5.73497 4.02844 5.5236C4.11434 4.79571 4.39818 4.01541 4.92552 3.37088ZM15 10.5C15 12.9853 12.9853 15 10.5 15C8.01472 15 6 12.9853 6 10.5C6 8.01472 8.01472 6 10.5 6C12.9853 6 15 8.01472 15 10.5ZM12.3536 9.35355C12.5488 9.15829 12.5488 8.84171 12.3536 8.64645C12.1583 8.45118 11.8417 8.45118 11.6464 8.64645L10.5 9.79289L9.35355 8.64645C9.15829 8.45118 8.84171 8.45118 8.64645 8.64645C8.45118 8.84171 8.45118 9.15829 8.64645 9.35355L9.79289 10.5L8.64645 11.6464C8.45118 11.8417 8.45118 12.1583 8.64645 12.3536C8.84171 12.5488 9.15829 12.5488 9.35355 12.3536L10.5 11.2071L11.6464 12.3536C11.8417 12.5488 12.1583 12.5488 12.3536 12.3536C12.5488 12.1583 12.5488 11.8417 12.3536 11.6464L11.2071 10.5L12.3536 9.35355Z" fill="#212121"/>
</svg>
