<svg width="20" height="20" viewBox="0 0 20 20" fill="none" xmlns="http://www.w3.org/2000/svg">
<path d="M13.5 8C12.1193 8 11 9.11929 11 10.5C11 11.8807 12.1193 13 13.5 13H14V8H13.5ZM14 14H13.5C11.567 14 10 12.433 10 10.5C10 8.567 11.567 7 13.5 7H17.5C17.7761 7 18 7.22386 18 7.5C18 7.77614 17.7761 8 17.5 8H17V17.5C17 17.7761 16.7761 18 16.5 18C16.2239 18 16 17.7761 16 17.5V8H15V17.5C15 17.7761 14.7761 18 14.5 18C14.2239 18 14 17.7761 14 17.5V14Z" fill="#212121"/>
<path d="M2.5 5C2.22386 5 2 5.22386 2 5.5C2 5.77614 2.22386 6 2.5 6H17.5C17.7761 6 18 5.77614 18 5.5C18 5.22386 17.7761 5 17.5 5H2.5Z" fill="#212121"/>
<path d="M9.25606 9H2.5C2.22386 9 2 9.22386 2 9.5C2 9.77614 2.22386 10 2.5 10H9.02746C9.06579 9.65327 9.14352 9.31841 9.25606 9Z" fill="#212121"/>
<path d="M9.75777 13H2.5C2.22386 13 2 13.2239 2 13.5C2 13.7761 2.22386 14 2.5 14H10.6713C10.319 13.7149 10.0106 13.3776 9.75777 13Z" fill="#212121"/>
</svg>
