<svg width="20" height="20" viewBox="0 0 20 20" fill="none" xmlns="http://www.w3.org/2000/svg">
<path d="M9.10433 2.89874C9.47114 2.15549 10.531 2.1555 10.8978 2.89874L12.8282 6.81024L17.1448 7.43748C17.9651 7.55666 18.2926 8.56464 17.699 9.14317L14.5755 12.1878L15.3129 16.487C15.453 17.3039 14.5956 17.9269 13.8619 17.5412L10.0011 15.5114L6.14018 17.5412C5.40655 17.9269 4.54913 17.3039 4.68924 16.487L5.4266 12.1878L2.30308 9.14317C1.70956 8.56463 2.03708 7.55666 2.8573 7.43748L7.17389 6.81024L9.10433 2.89874ZM10.0011 3.34131L8.07062 7.25281C7.92496 7.54795 7.6434 7.75252 7.31769 7.79985L3.00109 8.42709L6.12461 11.4718C6.3603 11.7015 6.46784 12.0325 6.41221 12.3569L5.67484 16.656L9.53572 14.6263C9.82705 14.4731 10.1751 14.4731 10.4664 14.6263L14.3273 16.656L13.5899 12.3569C13.5343 12.0325 13.6418 11.7015 13.8775 11.4718L17.001 8.42709L12.6844 7.79985C12.3587 7.75252 12.0772 7.54795 11.9315 7.25281L10.0011 3.34131Z" fill="#212121"/>
<path d="M4.39045 12.6875C4.56296 12.9031 4.528 13.2177 4.31237 13.3902L1.81237 15.3902C1.59673 15.5627 1.28209 15.5278 1.10958 15.3122C0.937079 15.0965 0.97204 14.7819 1.18767 14.6094L3.68767 12.6094C3.9033 12.4369 4.21795 12.4718 4.39045 12.6875Z" fill="#212121"/>
<path d="M4.31237 5.10939C4.528 5.2819 4.56296 5.59655 4.39045 5.81218C4.21795 6.02781 3.9033 6.06277 3.68767 5.89026L1.18767 3.89026C0.97204 3.71776 0.937079 3.40311 1.10958 3.18748C1.28209 2.97185 1.59673 2.93689 1.81237 3.10939L4.31237 5.10939Z" fill="#212121"/>
<path d="M15.6095 12.6875C15.437 12.9031 15.472 13.2177 15.6876 13.3902L18.1876 15.3902C18.4033 15.5627 18.7179 15.5278 18.8904 15.3122C19.0629 15.0965 19.028 14.7819 18.8123 14.6094L16.3123 12.6094C16.0967 12.4369 15.7821 12.4718 15.6095 12.6875Z" fill="#212121"/>
<path d="M15.6876 5.10939C15.472 5.2819 15.437 5.59655 15.6095 5.81218C15.7821 6.02781 16.0967 6.06277 16.3123 5.89026L18.8123 3.89026C19.028 3.71776 19.0629 3.40311 18.8904 3.18748C18.7179 2.97185 18.4033 2.93689 18.1876 3.10939L15.6876 5.10939Z" fill="#212121"/>
</svg>
