<svg width="20" height="20" viewBox="0 0 20 20" fill="none" xmlns="http://www.w3.org/2000/svg">
<path d="M8.50011 6.75006C8.50011 6.41566 8.27873 6.12166 7.95735 6.02926C7.63597 5.93686 7.29224 6.06839 7.11464 6.35173L7.06717 6.42753C6.85325 6.76933 6.70783 7.00168 6.49171 7.23915C6.26727 7.48576 5.9449 7.75854 5.36424 8.10693C5.00906 8.32004 4.89388 8.78073 5.10699 9.13591C5.3201 9.49109 5.7808 9.60627 6.13599 9.39316C6.47586 9.18923 6.75857 8.99595 7.00011 8.80502V13.25C7.00011 13.6642 7.3359 14 7.75011 14C8.16433 14 8.50011 13.6642 8.50011 13.25V6.75006ZM11.2803 10.2197C10.9874 9.92681 10.5126 9.92681 10.2197 10.2197C9.92678 10.5126 9.92678 10.9875 10.2197 11.2804L10.9393 12L10.2197 12.7197C9.92678 13.0126 9.92678 13.4874 10.2197 13.7803C10.5126 14.0732 10.9874 14.0732 11.2803 13.7803L12 13.0607L12.7197 13.7803C13.0126 14.0732 13.4874 14.0732 13.7803 13.7803C14.0732 13.4874 14.0732 13.0126 13.7803 12.7197L13.0607 12L13.7803 11.2804C14.0732 10.9875 14.0732 10.5126 13.7803 10.2197C13.4874 9.92681 13.0126 9.92681 12.7197 10.2197L12 10.9394L11.2803 10.2197Z" fill="#212121"/>
</svg>
