<svg width="20" height="20" viewBox="0 0 20 20" fill="none" xmlns="http://www.w3.org/2000/svg">
<path d="M5.5 3C4.11929 3 3 4.11929 3 5.5V6H17L17 5.5C17 4.11929 15.8807 3 14.5 3H5.5ZM17 7H3V14.5C3 15.8807 4.11929 17 5.5 17H9.59971C9.21628 16.2499 9 15.4002 9 14.5C9 11.4624 11.4624 9 14.5 9C15.4002 9 16.2499 9.21628 17 9.59971V7ZM19 14.5C19 16.9853 16.9853 19 14.5 19C12.0147 19 10 16.9853 10 14.5C10 12.0147 12.0147 10 14.5 10C16.9853 10 19 12.0147 19 14.5ZM14.146 16.8532L14.1486 16.8557C14.196 16.9026 14.2505 16.938 14.3086 16.9621C14.3667 16.9861 14.4303 16.9996 14.497 17L14.5 17L14.503 17C14.5697 16.9996 14.6333 16.9861 14.6914 16.9621C14.7504 16.9377 14.8056 16.9015 14.8536 16.8536L16.8536 14.8536C17.0488 14.6583 17.0488 14.3417 16.8536 14.1464C16.6583 13.9512 16.3417 13.9512 16.1464 14.1464L15 15.2929V12.5C15 12.2239 14.7761 12 14.5 12C14.2239 12 14 12.2239 14 12.5V15.2929L12.8536 14.1464C12.6583 13.9512 12.3417 13.9512 12.1464 14.1464C11.9512 14.3417 11.9512 14.6583 12.1464 14.8536L14.146 16.8532Z" fill="#212121"/>
</svg>
