<svg width="20" height="20" viewBox="0 0 20 20" fill="none" xmlns="http://www.w3.org/2000/svg">
<path d="M2.75 2C2.33579 2 2 2.33579 2 2.75V7.74988C2 9.97963 3.62172 11.8306 5.75 12.1877V13.2499C5.75 16.1494 8.1005 18.4999 11 18.4999C13.8995 18.4999 16.25 16.1494 16.25 13.2499V12.1464C17.4043 11.8199 18.25 10.7587 18.25 9.49988C18.25 7.98109 17.0188 6.74988 15.5 6.74988C13.9812 6.74988 12.75 7.98109 12.75 9.49988C12.75 10.7587 13.5957 11.8199 14.75 12.1464V13.2499C14.75 15.321 13.0711 16.9999 11 16.9999C8.92893 16.9999 7.25 15.321 7.25 13.2499V12.1877C9.37828 11.8306 11 9.97963 11 7.74988V2.75C11 2.33579 10.6642 2 10.25 2H8.75C8.33579 2 8 2.33579 8 2.75C8 3.16421 8.33579 3.5 8.75 3.5H9.5V7.74988C9.5 9.40674 8.15685 10.7499 6.5 10.7499C4.84315 10.7499 3.5 9.40674 3.5 7.74988V3.5H4.25C4.66421 3.5 5 3.16421 5 2.75C5 2.33579 4.66421 2 4.25 2H2.75ZM15.5 8.24988C16.1904 8.24988 16.75 8.80952 16.75 9.49988C16.75 10.1902 16.1904 10.7499 15.5 10.7499C14.8096 10.7499 14.25 10.1902 14.25 9.49988C14.25 8.80952 14.8096 8.24988 15.5 8.24988Z" fill="#212121"/>
</svg>
