<svg width="20" height="20" viewBox="0 0 20 20" fill="none" xmlns="http://www.w3.org/2000/svg">
<path d="M4.5 2C3.67157 2 3 2.67157 3 3.5V16.5C3 17.3284 3.67157 18 4.5 18H11.5C12.3284 18 13 17.3284 13 16.5V15C13 14.7238 12.776 14.4998 12.4999 14.4998C12.0866 14.4998 11.8226 14.398 11.6437 14.2639C11.4612 14.127 11.322 13.9223 11.2199 13.6414C11.0059 13.053 10.9999 12.2742 10.9999 11.4997C10.9998 11.3671 10.9472 11.24 10.8534 11.1462L10.5666 10.8593C10.4578 10.7504 10.3251 10.6176 9.35356 9.64618C8.88667 9.17934 8.75014 8.86588 8.72435 8.69089C8.70385 8.55183 8.74583 8.45651 8.84563 8.361C9.06033 8.15555 9.21264 8.01659 9.38518 7.97463C9.48906 7.94937 9.72441 7.93132 10.1465 8.35333L13.1464 11.3533C13.3417 11.5486 13.6583 11.5486 13.8536 11.3533C14.0488 11.158 14.0488 10.8415 13.8536 10.6462L13 9.79263V6.70711L15.5607 9.26777C15.842 9.54907 16 9.9306 16 10.3284V17.5C16 17.7761 16.2239 18 16.5 18C16.7761 18 17 17.7761 17 17.5V10.3284C17 9.66539 16.7366 9.0295 16.2678 8.56066L13 5.29289V3.5C13 2.67157 12.3284 2 11.5 2H4.5ZM12 5.49951C12 5.49984 12 5.49918 12 5.49951V8.79264L10.8535 7.64618C10.2755 7.06823 9.7003 6.86887 9.14891 7.00294C9.03719 7.03011 8.9327 7.07032 8.83605 7.11804C8.57067 7.04119 8.29015 7 8 7C6.34315 7 5 8.34315 5 10C5 11.6569 6.34315 13 8 13C8.77173 13 9.47541 12.7086 10.007 12.2298C10.0241 12.8077 10.0824 13.4395 10.2801 13.9831C10.4279 14.3897 10.6637 14.7788 11.0437 15.0638L11.0501 15.0686C10.4415 15.2597 10 15.8283 10 16.5V17H6V16.5C6 15.6716 5.32843 15 4.5 15H4V5H4.5C5.32843 5 6 4.32843 6 3.5V3H10V3.5C10 4.32843 10.6716 5 11.5 5H12V5.49951ZM11.9999 16.4998L11.9999 16.5086C11.9953 16.7808 11.7733 17 11.5 17H11V16.5C11 16.2239 11.2239 16 11.5 16H11.9999V16.4998ZM6 10C6 8.93775 6.82814 8.06891 7.87401 8.0039C7.75028 8.23482 7.68743 8.51371 7.73503 8.8367C7.80612 9.31904 8.11334 9.82022 8.6465 10.3533L9.55324 11.26C9.18654 11.7115 8.62696 12 8 12C6.89543 12 6 11.1046 6 10ZM5 3V3.5C5 3.77614 4.77614 4 4.5 4H4V3.5C4 3.22386 4.22386 3 4.5 3H5ZM4 16H4.5C4.77614 16 5 16.2239 5 16.5V17H4.5C4.22386 17 4 16.7761 4 16.5V16ZM12 4H11.5C11.2239 4 11 3.77614 11 3.5V3H11.5C11.7761 3 12 3.22386 12 3.5V4Z" fill="#212121"/>
</svg>
