<svg width="20" height="20" viewBox="0 0 20 20" fill="none" xmlns="http://www.w3.org/2000/svg">
<path d="M3 3.5C3 2.67157 3.67157 2 4.5 2H11.5C12.3284 2 13 2.67157 13 3.5V5.29289L16.2678 8.56066C16.7366 9.0295 17 9.66539 17 10.3284V17.5C17 17.7761 16.7761 18 16.5 18C16.2239 18 16 17.7761 16 17.5V10.3284C16 9.9306 15.842 9.54907 15.5607 9.26777L13 6.70711V9.79263L13.8536 10.6462C14.0488 10.8415 14.0488 11.158 13.8536 11.3533C13.6583 11.5486 13.3417 11.5486 13.1464 11.3533L10.1465 8.35333C9.72441 7.93132 9.48906 7.94937 9.38518 7.97463C9.21264 8.01659 9.06033 8.15555 8.84563 8.361C8.74583 8.45651 8.70385 8.55183 8.72435 8.69089C8.75014 8.86588 8.88667 9.17934 9.35356 9.64618C10.3251 10.6176 10.4578 10.7504 10.5666 10.8593L10.8534 11.1462C10.9472 11.24 10.9998 11.3671 10.9999 11.4997C10.9999 12.2742 11.0059 13.053 11.2199 13.6414C11.322 13.9223 11.4612 14.127 11.6437 14.2639C11.8226 14.398 12.0866 14.4998 12.4999 14.4998C12.776 14.4998 12.9999 14.7236 12.9999 14.9998L13 16.5C13 17.3284 12.3284 18 11.5 18H4.5C3.67157 18 3 17.3284 3 16.5V3.5ZM8 7.5C6.61929 7.5 5.5 8.61929 5.5 10C5.5 11.3807 6.61929 12.5 8 12.5C8.76495 12.5 9.44966 12.1564 9.90824 11.6152L9.85873 11.5657C9.75036 11.4572 9.61834 11.3251 8.6465 10.3533C8.11334 9.82022 7.80612 9.31904 7.73503 8.8367C7.65865 8.31842 7.86666 7.91372 8.15426 7.6385L8.18906 7.60495C8.21644 7.57846 8.24764 7.54828 8.2825 7.51578C8.18977 7.50536 8.09551 7.5 8 7.5ZM10 16.5V17H11V16.5C11 16.2239 11.2239 16 11.5 16H11.9999V15.4601C11.6342 15.3989 11.3174 15.2675 11.0501 15.0686C10.4415 15.2597 10 15.8283 10 16.5ZM4 5H4.5C5.32843 5 6 4.32843 6 3.5V3H5V3.5C5 3.77614 4.77614 4 4.5 4H4V5ZM10 3.5C10 4.32843 10.6716 5 11.5 5H12V4H11.5C11.2239 4 11 3.77614 11 3.5V3H10V3.5ZM6 16.5C6 15.6716 5.32843 15 4.5 15H4V16H4.5C4.77614 16 5 16.2239 5 16.5V17H6V16.5Z" fill="#212121"/>
</svg>
