<svg width="20" height="20" viewBox="0 0 20 20" fill="none" xmlns="http://www.w3.org/2000/svg">
<path d="M13.25 4C13.6642 4 14 4.33579 14 4.75C14 5.16421 13.6642 5.5 13.25 5.5H5.75C5.33579 5.5 5 5.16421 5 4.75C5 4.33579 5.33579 4 5.75 4H13.25ZM14 9.75C14 9.33579 13.6642 9 13.25 9H2.75C2.33579 9 2 9.33579 2 9.75C2 10.1642 2.33579 10.5 2.75 10.5H13.25C13.6642 10.5 14 10.1642 14 9.75ZM14 14.75C14 14.3358 13.6642 14 13.25 14H7.75C7.33579 14 7 14.3358 7 14.75C7 15.1642 7.33579 15.5 7.75 15.5H13.25C13.6642 15.5 14 15.1642 14 14.75ZM15.2197 7.71967C15.5126 7.42678 15.9874 7.42678 16.2803 7.71967L17.7803 9.21967C18.0732 9.51256 18.0732 9.98744 17.7803 10.2803L16.2803 11.7803C15.9874 12.0732 15.5126 12.0732 15.2197 11.7803C14.9268 11.4874 14.9268 11.0126 15.2197 10.7197L16.1893 9.75L15.2197 8.78033C14.9268 8.48744 14.9268 8.01256 15.2197 7.71967Z" fill="#212121"/>
</svg>
