<svg width="20" height="20" viewBox="0 0 20 20" fill="none" xmlns="http://www.w3.org/2000/svg">
<path d="M16.5 3.25C16.5 2.83579 16.1642 2.5 15.75 2.5C15.3358 2.5 15 2.83579 15 3.25V4.4084C14.0473 3.55612 12.8756 2.94373 11.5796 2.66614C11.1404 2.57208 10.7512 2.92634 10.7512 3.37548C10.7512 3.75862 11.0383 4.0766 11.4108 4.16628C12.3758 4.39862 13.2499 4.86419 13.9702 5.5H12.75C12.3358 5.5 12 5.83579 12 6.25C12 6.66421 12.3358 7 12.75 7H15.75C16.1642 7 16.5 6.66421 16.5 6.25V3.25ZM8.42301 2.66611C8.86219 2.57205 9.25124 2.92634 9.25124 3.37548C9.25124 3.75862 8.96418 4.07659 8.59169 4.16627C7.97641 4.31441 7.39806 4.55736 6.87298 4.8788C6.54638 5.07874 6.11883 5.05671 5.84805 4.78592C5.53035 4.46822 5.55512 3.94246 5.93234 3.69838C6.6813 3.21377 7.52215 2.85905 8.42301 2.66611ZM16.6255 10.7498C16.2424 10.7498 15.9244 11.0368 15.8347 11.4093C15.6866 12.0246 15.4436 12.6029 15.1222 13.128C14.9223 13.4546 14.9443 13.8822 15.2151 14.153C15.5328 14.4707 16.0585 14.4459 16.3026 14.0687C16.7872 13.3197 17.142 12.4789 17.3349 11.578C17.429 11.1388 17.0747 10.7498 16.6255 10.7498ZM11.4108 15.8333C11.0383 15.923 10.7512 16.2409 10.7512 16.6241C10.7512 17.0732 11.1403 17.4275 11.5795 17.3334C12.4803 17.1405 13.3212 16.7858 14.0701 16.3012C14.4473 16.0571 14.4721 15.5313 14.1544 15.2136C13.8836 14.9428 13.4561 14.9208 13.1295 15.1207C12.6044 15.4422 12.0261 15.6851 11.4108 15.8333ZM6.87298 15.1207C6.54638 14.9208 6.11883 14.9428 5.84805 15.2136C5.53035 15.5313 5.55512 16.0571 5.93234 16.3012C6.6813 16.7858 7.52215 17.1405 8.42301 17.3334C8.86219 17.4275 9.25124 17.0732 9.25124 16.6241C9.25124 16.2409 8.96418 15.923 8.59169 15.8333C7.97641 15.6851 7.39806 15.4422 6.87298 15.1207ZM4.16773 11.4093C4.07805 11.0368 3.76009 10.7498 3.37695 10.7498C2.92781 10.7498 2.57352 11.1388 2.66758 11.578C2.86052 12.4789 3.21523 13.3197 3.69984 14.0687C3.94392 14.4459 4.46969 14.4707 4.78739 14.153C5.05817 13.8822 5.0802 13.4546 4.88026 13.128C4.55882 12.6029 4.31587 12.0246 4.16773 11.4093ZM4.88026 6.87152C5.0802 6.54492 5.05817 6.11737 4.78739 5.84658C4.46969 5.52888 3.94392 5.55366 3.69984 5.93088C3.21523 6.67984 2.86052 7.52069 2.66758 8.42154C2.57352 8.86073 2.92781 9.24977 3.37695 9.24977C3.76009 9.24977 4.07805 8.96271 4.16773 8.59022C4.31587 7.97494 4.55882 7.3966 4.88026 6.87152Z" fill="#212121"/>
</svg>
