<svg width="20" height="20" viewBox="0 0 20 20" fill="none" xmlns="http://www.w3.org/2000/svg">
<path d="M14 3C14.2761 3 14.5 3.22386 14.5 3.5C14.5 3.77614 14.2761 4 14 4H13.0044V8.68387C13.0044 9.26343 13.1484 9.83392 13.4233 10.3441L15.8189 14.7901C16.3574 15.7894 15.6338 17.0016 14.4985 17.0016H5.50156C4.3659 17.0016 3.6434 15.7891 4.18161 14.7901L6.57568 10.3466C6.85055 9.83647 6.99444 9.26603 6.99444 8.68653V4H6C5.72386 4 5.5 3.77614 5.5 3.5C5.5 3.22386 5.72386 3 6 3H14ZM7.99444 4V8.68653C7.99444 9.43161 7.80943 10.165 7.45603 10.821L6.82078 12H13.1796L12.5429 10.8185C12.1895 10.1625 12.0044 9.42902 12.0044 8.68387V4H7.99444ZM13.7184 13H6.282L5.06196 15.2644C4.88225 15.598 5.12365 16.0016 5.50156 16.0016H14.4985C14.8769 16.0016 15.1181 15.5976 14.9386 15.2644L13.7184 13Z" fill="#212121"/>
</svg>
