<svg width="20" height="20" viewBox="0 0 20 20" fill="none" xmlns="http://www.w3.org/2000/svg">
<path d="M12.2197 4.78033C11.9268 4.48744 11.9268 4.01256 12.2197 3.71967C12.5126 3.42678 12.9874 3.42678 13.2803 3.71967L17.7803 8.21967C18.0732 8.51256 18.0732 8.98744 17.7803 9.28033L13.2803 13.7803C12.9874 14.0732 12.5126 14.0732 12.2197 13.7803C11.9268 13.4874 11.9268 13.0126 12.2197 12.7197L15.4393 9.5H9.25C6.07436 9.5 3.5 12.0744 3.5 15.25C3.5 15.6642 3.16421 16 2.75 16C2.33579 16 2 15.6642 2 15.25C2 11.2459 5.24594 8 9.25 8H15.4393L12.2197 4.78033Z" fill="#212121"/>
</svg>
