<svg width="16" height="16" viewBox="0 0 16 16" fill="none" xmlns="http://www.w3.org/2000/svg">
<path d="M4.92552 3.37088C5.58306 2.56722 6.60015 2 8 2C8.85003 2 9.84106 2.28075 10.6291 2.92552C11.3396 3.50685 11.8653 4.3692 11.9777 5.52863C12.6665 5.61114 13.3343 5.87019 13.8681 6.28237C14.1294 6.48417 14.3605 6.7248 14.5447 7H8C6.89543 7 6 7.89543 6 9C6 9.74028 6.4022 10.3866 7 10.7324V11.5H4.5C3.14626 11.5 2.24239 11.0899 1.68621 10.4543C1.14196 9.83225 1 9.07262 1 8.5C1 7.3222 1.96544 5.73497 4.02844 5.5236C4.11434 4.79571 4.39818 4.01541 4.92552 3.37088ZM7 9C7 8.44772 7.44772 8 8 8H15C15.5523 8 16 8.44772 16 9C16 9.55228 15.5523 10 15 10H8C7.44772 10 7 9.55228 7 9ZM15 11H8V14C8 15.1046 8.89543 16 10 16H13C14.1046 16 15 15.1046 15 14V11ZM10.5 12H12.5C12.7761 12 13 12.2239 13 12.5C13 12.7761 12.7761 13 12.5 13H10.5C10.2239 13 10 12.7761 10 12.5C10 12.2239 10.2239 12 10.5 12Z" fill="#212121"/>
</svg>
