<svg width="28" height="28" viewBox="0 0 28 28" fill="none" xmlns="http://www.w3.org/2000/svg">
<path d="M14 4C10.4677 4 7.5468 6.61603 7.06858 10.0167C4.23266 10.2367 2 12.6076 2 15.5C2 18.5376 4.46243 21 7.5 21H14V17.7324C13.4022 17.3866 13 16.7403 13 16V15C13 13.8954 13.8954 13 15 13H25.4003C24.5518 11.3401 22.8847 10.1682 20.9314 10.0167C20.4532 6.61603 17.5323 4 14 4ZM15 14C14.4477 14 14 14.4477 14 15V16C14 16.5523 14.4477 17 15 17H26C26.5523 17 27 16.5523 27 16V15C27 14.4477 26.5523 14 26 14H15ZM15 18H26V23C26 24.6569 24.6569 26 23 26H18C16.3431 26 15 24.6569 15 23V18ZM22.5 20H18.5C18.2239 20 18 20.2239 18 20.5C18 20.7761 18.2239 21 18.5 21H22.5C22.7761 21 23 20.7761 23 20.5C23 20.2239 22.7761 20 22.5 20Z" fill="#212121"/>
</svg>
