<svg width="28" height="28" viewBox="0 0 28 28" fill="none" xmlns="http://www.w3.org/2000/svg">
<path d="M7.51894 10C7.77426 6.64378 10.5784 4 14 4C17.4216 4 20.2257 6.64378 20.4811 10H20.75C23.1182 10 25.0815 11.733 25.4411 14H15C13.8954 14 13 14.8954 13 16V17C13 17.7403 13.4022 18.3866 14 18.7324V19.5H7.25C4.62665 19.5 2.5 17.3734 2.5 14.75C2.5 12.1266 4.62665 10 7.25 10H7.51894ZM14 16C14 15.4477 14.4477 15 15 15H26C26.5523 15 27 15.4477 27 16V17C27 17.5523 26.5523 18 26 18H15C14.4477 18 14 17.5523 14 17V16ZM26 19H15V24C15 25.6569 16.3431 27 18 27H23C24.6569 27 26 25.6569 26 24V19ZM18.5 21H22.5C22.7761 21 23 21.2239 23 21.5C23 21.7761 22.7761 22 22.5 22H18.5C18.2239 22 18 21.7761 18 21.5C18 21.2239 18.2239 21 18.5 21Z" fill="#212121"/>
</svg>
