<svg width="20" height="20" viewBox="0 0 20 20" fill="none" xmlns="http://www.w3.org/2000/svg">
<path d="M4.5 3.5C3.94772 3.5 3.5 3.94772 3.5 4.5V6.75C3.5 7.16421 3.16421 7.5 2.75 7.5C2.33579 7.5 2 7.16421 2 6.75V4.5C2 3.11929 3.11929 2 4.5 2H6.75C7.16421 2 7.5 2.33579 7.5 2.75C7.5 3.16421 7.16421 3.5 6.75 3.5H4.5ZM4.5 16.5C3.94772 16.5 3.5 16.0523 3.5 15.5V13.25C3.5 12.8358 3.16421 12.5 2.75 12.5C2.33579 12.5 2 12.8358 2 13.25V15.5C2 16.8807 3.11929 18 4.5 18H6.75C7.16421 18 7.5 17.6642 7.5 17.25C7.5 16.8358 7.16421 16.5 6.75 16.5H4.5ZM16.5 4.5C16.5 3.94772 16.0523 3.5 15.5 3.5H13.25C12.8358 3.5 12.5 3.16421 12.5 2.75C12.5 2.33579 12.8358 2 13.25 2H15.5C16.8807 2 18 3.11929 18 4.5V6.75C18 7.16421 17.6642 7.5 17.25 7.5C16.8358 7.5 16.5 7.16421 16.5 6.75V4.5ZM15.5 16.5C16.0523 16.5 16.5 16.0523 16.5 15.5V13.25C16.5 12.8358 16.8358 12.5 17.25 12.5C17.6642 12.5 18 12.8358 18 13.25V15.5C18 16.8807 16.8807 18 15.5 18H13.25C12.8358 18 12.5 17.6642 12.5 17.25C12.5 16.8358 12.8358 16.5 13.25 16.5H15.5ZM11.25 10.3077C11.25 10.9874 10.6904 11.5385 10 11.5385C9.30964 11.5385 8.75 10.9874 8.75 10.3077C8.75 9.62796 9.30964 9.07692 10 9.07692C10.6904 9.07692 11.25 9.62796 11.25 10.3077ZM5 9.07692V12.7692C5 13.449 5.55964 14 6.25 14H13.75C14.4404 14 15 13.449 15 12.7692V9.07692C15 8.39719 14.4404 7.84615 13.75 7.84615H12.5L11.6211 6.54806C11.3893 6.20566 10.999 6 10.581 6H9.41898C9.00104 6 8.61075 6.20566 8.37892 6.54806L7.5 7.84615H6.25C5.55964 7.84615 5 8.39719 5 9.07692ZM10 7.84615C11.3807 7.84615 12.5 8.94822 12.5 10.3077C12.5 11.6672 11.3807 12.7692 10 12.7692C8.61929 12.7692 7.5 11.6672 7.5 10.3077C7.5 8.94822 8.61929 7.84615 10 7.84615Z" fill="#212121"/>
</svg>
