<svg width="24" height="24" viewBox="0 0 24 24" fill="none" xmlns="http://www.w3.org/2000/svg">
<path d="M7 7V5C7 3.34315 8.34315 2 10 2C10.7684 2 11.4692 2.28886 12 2.7639C12.5308 2.28886 13.2317 2 14 2C15.6569 2 17 3.34315 17 5V7H18.5C19.3284 7 20 7.67157 20 8.5V12.8179L19.0314 11.8641C18.4683 11.3096 17.7091 10.9994 16.9188 11L14.5 11.0017V7H15.5V5C15.5 4.17157 14.8284 3.5 14 3.5C13.535 3.5 13.1195 3.71156 12.8443 4.04367C12.9453 4.34403 13 4.66563 13 5V11.1734C11.836 11.5849 11 12.6923 11 13.9982V16.9348C11 17.7198 11.3087 18.4728 11.8588 19.0327L14.7741 22H8C5.79086 22 4 20.2091 4 18V8.5C4 7.67157 4.67157 7 5.5 7H7ZM8.5 5V7H11.5V5C11.5 4.17157 10.8284 3.5 10 3.5C9.17157 3.5 8.5 4.17157 8.5 5ZM12.5721 18.3319L16.573 22.4042C17.3544 23.1995 18.6374 23.2049 19.4251 22.4163L22.4184 19.4196C23.2009 18.6362 23.1955 17.3681 22.4062 16.5909L18.3298 12.5767C17.9542 12.2069 17.4474 11.9996 16.9195 12L14.0018 12.0021C12.8959 12.0028 12 12.8962 12 13.9982V16.9348C12 17.4571 12.2054 17.9586 12.5721 18.3319ZM15.9958 14.9999C15.9958 15.5522 15.5486 15.9999 14.9969 15.9999C14.4453 15.9999 13.998 15.5522 13.998 14.9999C13.998 14.4476 14.4453 13.9999 14.9969 13.9999C15.5486 13.9999 15.9958 14.4476 15.9958 14.9999Z" fill="#212121"/>
</svg>
