<svg width="16" height="16" viewBox="0 0 16 16" fill="none" xmlns="http://www.w3.org/2000/svg">
<path d="M10 4.5V1.25L13.75 5H10.5C10.22 5 10 4.78 10 4.5ZM9 4.5C9 5.33 9.67 6 10.5 6H14V13.5C14 14.33 13.33 15 12.5 15H8.75C8.89 14.81 9.01 14.6 9.1 14.37C9.27 13.89 9.3 13.37 9.17 12.87C9.11 12.64 9.02 12.42 8.89 12.21C8.95 12.04 8.98 11.85 8.99 11.66C9.02 11.21 8.93 10.75 8.72 10.34C8.51 9.94 8.19 9.6 7.8 9.36C7.41 9.12 6.96 9 6.5 9H5.5C5.23 9 4.97 9.07 4.75 9.2C4.68 9.16 4.6 9.12 4.52 9.09C4.35 9.03 4.18 9 4 9V2.5C4 1.67 4.67 1 5.5 1H9V4.5ZM7.99623 11.5989C7.97823 11.8729 7.88523 12.1359 7.72723 12.3609L7.72823 12.3619C7.96123 12.5609 8.12623 12.8269 8.20323 13.1239C8.27923 13.4209 8.26323 13.7339 8.15723 14.0209C8.05023 14.3079 7.85823 14.5559 7.60723 14.7309C7.35523 14.9059 7.05623 14.9999 6.75023 14.9999H5.50023C5.36723 14.9999 5.24023 14.9479 5.14623 14.8539C5.05323 14.7599 5.00023 14.6329 5.00023 14.4999V10.4999C5.00023 10.3669 5.05223 10.2399 5.14623 10.1459C5.24023 10.0529 5.36723 9.99995 5.50023 9.99995H6.50023C6.77423 9.99995 7.04323 10.0749 7.27823 10.2179C7.51223 10.3599 7.70323 10.5639 7.83023 10.8079C7.95723 11.0509 8.01423 11.3249 7.99623 11.5989ZM6.50023 10.9979H6.00023V11.9979H6.50023C6.63323 11.9979 6.76023 11.9459 6.85423 11.8519C6.94723 11.7579 7.00023 11.6309 7.00023 11.4979C7.00023 11.3649 6.94823 11.2379 6.85423 11.1439C6.76023 11.0509 6.63323 10.9979 6.50023 10.9979ZM6.00023 13.9979H6.75023C6.88323 13.9979 7.01023 13.9459 7.10423 13.8519C7.19723 13.7579 7.25023 13.6309 7.25023 13.4979C7.25023 13.3649 7.19823 13.2379 7.10423 13.1439C7.01023 13.0509 6.88323 12.9979 6.75023 12.9979H6.00023V13.9979ZM2.96823 14.6739L4.46823 10.6739V10.6749C4.51423 10.5509 4.50923 10.4139 4.45423 10.2929C4.40023 10.1719 4.29923 10.0779 4.17523 10.0309C4.05123 9.98495 3.91423 9.98895 3.79323 10.0439C3.67223 10.0979 3.57823 10.1989 3.53123 10.3229L2.49923 13.0749L1.46723 10.3229C1.42023 10.1989 1.32623 10.0989 1.20523 10.0439C1.08523 9.98895 0.947231 9.98395 0.823231 10.0309C0.699231 10.0779 0.599231 10.1719 0.544231 10.2929C0.517231 10.3529 0.502231 10.4169 0.500231 10.4829C0.498231 10.5479 0.509231 10.6139 0.532231 10.6749L2.03223 14.6739C2.06723 14.7689 2.13123 14.8509 2.21523 14.9089C2.29923 14.9669 2.39823 14.9979 2.50023 14.9979C2.60223 14.9979 2.70123 14.9669 2.78523 14.9089C2.86823 14.8509 2.93223 14.7689 2.96823 14.6739Z" fill="#212121"/>
</svg>
