<?xml version="1.0" encoding="UTF-8"?>
<svg width="24px" height="24px" viewBox="0 0 24 24" version="1.1" xmlns="http://www.w3.org/2000/svg" xmlns:xlink="http://www.w3.org/1999/xlink">
    <!-- Generator: Sketch 59.1 (86144) - https://sketch.com -->
    <title>ic_fluent_in_private_account_24_filled</title>
    <desc>Created with Sketch.</desc>
    <g id="ðŸ”-Product-Icons" stroke="none" stroke-width="1" fill="none" fill-rule="evenodd">
        <g id="ic_fluent_in_private_account_24_filled" fill="#212121" fill-rule="nonzero">
            <path d="M19.9791275,17.250241 C19.9179401,17.7853771 19.7422067,18.3004273 19.4648639,18.7604385 L12.0018275,18.7606264 L12.003655,19.75 L16.2175295,19.75 L16.21691,19.76064 L18.6314604,19.7615383 C17.9675952,20.3992481 17.1834076,20.8997113 16.2823024,21.2642795 L12.003655,21.2629464 L12.0034241,22.0010997 C8.8545,22.0010997 6.46849,21.0959 4.90219,19.2617 C4.32242,18.5828 4.00391,17.7193 4.00391,16.8265 L4.00391,16.2488 C4.00391,15.0068 5.01076,13.9999 6.25278,13.9999 L11.99991,13.99964 L12,14.74768 L19.4295321,14.74815 C19.746724,15.1019658 19.9534457,15.5568554 19.9954679,16.0585687 L20.00291,16.24964 L12.003655,16.25 L12.003655,17.25 L19.9791275,17.250241 Z M16.5815113,4.9981465 C16.7868479,5.46628883 16.9225296,5.97192198 16.9754427,6.5019329 L12.003655,6.50232 L12.003655,7.49768 L16.976335,7.49832476 C16.9242869,8.02936788 16.7891585,8.53603737 16.5841202,9.00516421 L12.0018275,9.00464 L12.0018275,10 L16.0036318,10.0007957 C15.5280548,10.6351951 14.9052008,11.1528318 14.1858004,11.5029791 L12,11.50232 L12.0004,12.0046 C9.23894,12.0046 7.00036,9.76606 7.00036,7.00464 C7.00036,4.24321 9.23894,2.00464 12.0004,2.00464 L12,2.49169361 L14.1549643,2.49138919 C14.8847342,2.84040041 15.5166466,3.36119748 15.9983466,4.00142813 L14.15491,4.00064 L14.1557714,4.00232 L12.003655,4.00232 L12.003655,4.99768 L16.5815113,4.9981465 Z" id="ðŸŽ¨-Color"></path>
        </g>
    </g>
</svg>