<svg width="28" height="28" viewBox="0 0 28 28" fill="none" xmlns="http://www.w3.org/2000/svg">
<path d="M18.75 16C18.3358 16 18 16.3358 18 16.75C18 17.1642 18.3358 17.5 18.75 17.5H21.25C21.6642 17.5 22 17.1642 22 16.75C22 16.3358 21.6642 16 21.25 16H18.75ZM3 5.75C3 4.23122 4.23122 3 5.75 3H19.25C20.7688 3 22 4.23122 22 5.75V7.00822C23.9544 7.13698 25.4998 8.76302 25.4998 10.75V21.2501C25.4998 23.3211 23.8208 25.0001 21.7498 25.0001H6.75391C4.68284 25.0001 3.00391 23.3211 3.00391 21.2501V10.75H3V6H3.01121C3.00379 5.91766 3 5.83427 3 5.75ZM21.7498 8.5H4.50391V21.2501C4.50391 22.4927 5.51127 23.5001 6.75391 23.5001H21.7498C22.9924 23.5001 23.9998 22.4927 23.9998 21.2501V10.75C23.9998 9.50736 22.9924 8.5 21.7498 8.5ZM20.5 5.75C20.5 5.05964 19.9404 4.5 19.25 4.5H5.75C5.05964 4.5 4.5 5.05964 4.5 5.75C4.5 6.44036 5.05964 7 5.75 7H20.5V5.75Z" fill="#212121"/>
</svg>
