<svg width="28" height="28" viewBox="0 0 28 28" fill="none" xmlns="http://www.w3.org/2000/svg">
<path d="M3 5.75C3 4.23122 4.23122 3 5.75 3H19.75C21.2688 3 22.5 4.23122 22.5 5.75V7.07506C24.2116 7.42261 25.4998 8.93587 25.4998 10.75V21.2501C25.4998 23.3211 23.8208 25.0001 21.7498 25.0001H6.75391C4.68284 25.0001 3.00391 23.3211 3.00391 21.2501V10.75H3V6H3.01121C3.00379 5.91766 3 5.83427 3 5.75ZM21 5.75C21 5.05964 20.4404 4.5 19.75 4.5H5.75C5.05964 4.5 4.5 5.05964 4.5 5.75C4.5 6.44036 5.05964 7 5.75 7H21V5.75ZM18.75 16C18.3358 16 18 16.3358 18 16.75C18 17.1642 18.3358 17.5 18.75 17.5H21.25C21.6642 17.5 22 17.1642 22 16.75C22 16.3358 21.6642 16 21.25 16H18.75Z" fill="#212121"/>
</svg>
