<svg width="20" height="20" viewBox="0 0 20 20" fill="none" xmlns="http://www.w3.org/2000/svg">
<path d="M16.5 2C16.7761 2 17 2.22386 17 2.5V17.5C17 17.7761 16.7761 18 16.5 18C16.2239 18 16 17.7761 16 17.5V2.5C16 2.22386 16.2239 2 16.5 2ZM13 11C14.1046 11 15 11.8954 15 13V14C15 15.1046 14.1046 16 13 16H8C6.89543 16 6 15.1046 6 14V13C6 11.8954 6.89543 11 8 11H13ZM14 13C14 12.4477 13.5523 12 13 12H8C7.44771 12 7 12.4477 7 13V14C7 14.5523 7.44771 15 8 15H13C13.5523 15 14 14.5523 14 14V13ZM15 6C15 4.89543 14.1046 4 13 4L5 4C3.89543 4 3 4.89543 3 6V7C3 8.10457 3.89543 9 5 9L13 9C14.1046 9 15 8.10457 15 7V6ZM13 5C13.5523 5 14 5.44772 14 6V7C14 7.55228 13.5523 8 13 8L5 8C4.44771 8 4 7.55228 4 7V6C4 5.44771 4.44772 5 5 5L13 5Z" fill="#212121"/>
</svg>
