<svg width="28" height="28" viewBox="0 0 28 28" fill="none" xmlns="http://www.w3.org/2000/svg">
<path d="M22.1548 2.97761C18.4732 0.852036 13.7655 2.11344 11.64 5.79504L11.3505 6.29642C11.251 6.46868 11.2241 6.6734 11.2756 6.86553C11.327 7.05767 11.4527 7.22148 11.625 7.32094L17.0864 10.4741L13.8184 16.193L13.75 16.1927C10.5918 16.1927 7.85682 18.0252 6.2278 20.6143C6.41305 20.5488 6.6102 20.5099 6.81424 20.5016C7.21547 20.4855 7.59969 20.5898 7.92649 20.7867C9.33795 18.9204 11.4442 17.6927 13.75 17.6927C16.1542 17.6927 18.3413 19.0274 19.7503 21.0289C20.1138 20.6943 20.5976 20.4973 21.1157 20.5C21.1441 20.5002 21.1725 20.5009 21.2007 20.5023C19.869 18.4442 17.8328 16.8826 15.4439 16.3717L18.3855 11.2241L23.6582 14.2683C23.8305 14.3678 24.0352 14.3947 24.2273 14.3432C24.4194 14.2917 24.5833 14.1661 24.6827 13.9938L24.9722 13.4924C27.0978 9.81081 25.8364 5.10317 22.1548 2.97761ZM19.9642 10.4035L16.8075 8.58098C17.3803 7.69952 17.9237 7.02849 18.5761 6.43525C19.211 5.858 19.9695 5.33583 20.9975 4.76792C21.1487 5.72319 21.1953 6.51788 21.0979 7.29739C20.9814 8.22965 20.6516 9.1903 19.9642 10.4035ZM21.2633 11.1535C22.0227 9.81538 22.4388 8.66369 22.5863 7.48344C22.683 6.70972 22.6612 5.94575 22.5641 5.13886C24.5654 7.0273 25.1161 10.0838 23.7567 12.5931L21.2633 11.1535ZM17.567 5.32544C16.7761 6.04456 16.1416 6.84463 15.5067 7.83001L13.0265 6.39806C14.4889 4.01655 17.3217 2.95898 19.914 3.65698C18.9853 4.19233 18.2293 4.72322 17.567 5.32544ZM7.60668 22.2641C7.50149 21.9466 7.19876 21.7372 6.86455 21.7506C6.53035 21.7641 6.24545 21.9972 6.16613 22.3222C5.9119 23.3637 5.42908 23.9354 4.87885 24.2676C4.30269 24.6154 3.56953 24.75 2.75 24.75C2.33579 24.75 2 25.0858 2 25.5C2 25.9142 2.33579 26.25 2.75 26.25C3.70678 26.25 4.74994 26.0975 5.65404 25.5517C6.17635 25.2364 6.62655 24.8055 6.98074 24.243C8.77005 26.5249 12.2628 26.5133 14 24.2186C15.7647 26.5496 19.3408 26.5247 21.1028 24.1331C22.0769 25.4721 23.6647 26.25 25.25 26.25C25.6642 26.25 26 25.9142 26 25.5C26 25.0858 25.6642 24.75 25.25 24.75C23.7754 24.75 22.3051 23.7897 21.8196 22.2716C21.7207 21.9622 21.4339 21.7517 21.1092 21.75C20.7844 21.7483 20.4955 21.9558 20.3933 22.2641C19.4297 25.1727 15.6547 25.1358 14.7093 22.3849C14.6052 22.0821 14.3203 21.8787 14 21.8787C13.6797 21.8787 13.3948 22.0821 13.2907 22.3849C12.3453 25.1359 8.57033 25.1727 7.60668 22.2641Z" fill="#212121"/>
</svg>
