<svg width="16" height="16" viewBox="0 0 16 16" fill="none" xmlns="http://www.w3.org/2000/svg">
<path d="M10.119 5.5445L9.24991 5.0498L7.06079 8.92053L7.92986 9.41522L10.119 5.5445Z" fill="url(#paint0_linear_378174_8465)"/>
<path d="M3.88092 12.5077L5.99976 13.5498L7.71056 12.3541L9.49976 13.5498L11.4998 12.8542H12.2998C12.2761 11.3063 11.4611 9.80597 10.021 8.98835C7.8609 7.75795 5.10736 8.52001 3.88092 10.6871C3.45365 11.4412 3.27166 12.2588 3.30331 13.0606L3.88092 12.2985V12.5077Z" fill="url(#paint1_linear_378174_8465)"/>
<path d="M4.1199 11.7504C4.3427 11.7414 4.54452 11.8811 4.61465 12.0928C5.07904 13.4944 6.8835 13.4699 7.33578 12.1539C7.40517 11.952 7.59512 11.8165 7.80863 11.8165C8.02214 11.8165 8.21209 11.952 8.28148 12.1539C8.73375 13.4699 10.5382 13.4944 11.0026 12.0928C11.0707 11.8872 11.2633 11.7489 11.4798 11.75C11.6963 11.7511 11.8875 11.8915 11.9535 12.0977C12.1881 12.8314 12.9013 13.299 13.6173 13.299C13.8934 13.299 14.1173 13.5228 14.1173 13.799C14.1173 14.0751 13.8934 14.299 13.6173 14.299C12.8116 14.299 12.0045 13.9261 11.4753 13.2771C10.5251 14.4171 8.76007 14.431 7.80863 13.318C6.87421 14.4111 5.15506 14.4173 4.19377 13.3372C4.01686 13.5809 3.80233 13.7745 3.55769 13.9222C3.06623 14.2189 2.50433 14.299 2 14.299C1.72386 14.299 1.5 14.0751 1.5 13.799C1.5 13.5228 1.72386 13.299 2 13.299C2.41283 13.299 2.76807 13.2308 3.0409 13.0661C3.29644 12.9118 3.5293 12.6435 3.65428 12.1314C3.70716 11.9148 3.89709 11.7594 4.1199 11.7504Z" fill="url(#paint2_linear_378174_8465)"/>
<path d="M12.6595 7.793C12.9013 7.93403 13.2117 7.84912 13.3481 7.60469L13.443 7.43454C14.5844 5.36725 13.9219 2.76673 11.9025 1.58542C9.88312 0.404117 7.31299 1.12603 6.1716 3.19332L6.06733 3.38023C5.93463 3.61812 6.01677 3.91846 6.25207 4.05571L12.6595 7.793Z" fill="url(#paint3_linear_378174_8465)"/>
<path d="M12.013 1.65276C12.2336 2.64395 12.0697 4.91867 10.9754 6.80228L8.25 5.21629C9.25783 3.28264 11.0704 1.96801 12.0107 1.65233L12.0123 1.6499L12.0127 1.65165L12.0138 1.65129L12.013 1.65276Z" fill="url(#paint4_linear_378174_8465)"/>
<defs>
<linearGradient id="paint0_linear_378174_8465" x1="7.6847" y1="8.26414" x2="10.4294" y2="4.89863" gradientUnits="userSpaceOnUse">
<stop stop-color="#CD3E1D"/>
<stop offset="1" stop-color="#592A00"/>
</linearGradient>
<linearGradient id="paint1_linear_378174_8465" x1="7.26712" y1="12.7498" x2="7.26712" y2="8.73042" gradientUnits="userSpaceOnUse">
<stop stop-color="#FFC7A3"/>
<stop offset="1" stop-color="#FFA43D"/>
</linearGradient>
<linearGradient id="paint2_linear_378174_8465" x1="7.8166" y1="13.8749" x2="7.8166" y2="11.7545" gradientUnits="userSpaceOnUse">
<stop offset="0.0606792" stop-color="#0FAFFF"/>
<stop offset="1" stop-color="#0078D4"/>
</linearGradient>
<linearGradient id="paint3_linear_378174_8465" x1="13.1638" y1="9.19827" x2="6.96593" y2="1.15782" gradientUnits="userSpaceOnUse">
<stop stop-color="#AA1D2D"/>
<stop offset="1" stop-color="#FB6F7B"/>
</linearGradient>
<linearGradient id="paint4_linear_378174_8465" x1="11.9331" y1="4.78203" x2="8.54053" y2="3.68395" gradientUnits="userSpaceOnUse">
<stop stop-color="#FECBE6"/>
<stop offset="1" stop-color="#FDAFD9"/>
</linearGradient>
</defs>
</svg>
