<svg width="48" height="48" viewBox="0 0 48 48" fill="none" xmlns="http://www.w3.org/2000/svg">
<path d="M37 32L26.9115 42.7093C25.3324 44.3856 22.6675 44.3856 21.0884 42.7093L11 32H11.0381L11.0212 31.9801L11 31.955C10.3558 31.1913 9.77758 30.37 9.2743 29.5C7.82785 26.9995 7 24.0964 7 21C7 11.6112 14.6112 4 24 4C33.3888 4 41 11.6112 41 21C41 24.0964 40.1721 26.9995 38.7257 29.5C38.2224 30.37 37.6442 31.1913 37 31.955L36.9788 31.9801L36.9619 32H37ZM22.8839 16.8839C23.372 16.3957 23.372 15.6043 22.8839 15.1161C22.3957 14.628 21.6043 14.628 21.1161 15.1161L16.1161 20.1161C15.628 20.6043 15.628 21.3957 16.1161 21.8839L21.1161 26.8839C21.6043 27.372 22.3957 27.372 22.8839 26.8839C23.372 26.3957 23.372 25.6043 22.8839 25.1161L20.0178 22.25H31C31.6904 22.25 32.25 21.6904 32.25 21C32.25 20.3096 31.6904 19.75 31 19.75H20.0178L22.8839 16.8839Z" fill="#212121"/>
</svg>
