<svg width="24" height="24" viewBox="0 0 24 24" fill="none" xmlns="http://www.w3.org/2000/svg">
<path d="M5.75 2C4.23122 2 3 3.23122 3 4.75C3 5.7393 3.5224 6.60659 4.30639 7.09107C3.62692 7.74805 3.00586 8.76672 3.00586 10.25C3.00586 10.6642 3.34165 11 3.75586 11C4.17007 11 4.50586 10.6642 4.50586 10.25C4.50586 9.13788 4.99858 8.45927 5.4916 8.0402C5.74463 7.82512 5.99996 7.67805 6.19161 7.58542C6.27023 7.54742 6.33659 7.51933 6.38557 7.5H9.5V10.25C9.5 10.6642 9.83579 11 10.25 11C10.6642 11 11 10.6642 11 10.25V2.75C11 2.33579 10.6642 2 10.25 2H5.75ZM6.27329 6C6.26189 5.99974 6.25047 5.99974 6.23902 6H5.75C5.05964 6 4.5 5.44036 4.5 4.75C4.5 4.05964 5.05964 3.5 5.75 3.5H9.5V6H6.27329ZM7.07179 11.9999C6.76092 11.9978 6.48097 12.1877 6.36797 12.4773L3.0515 20.9772C2.90094 21.363 3.09171 21.7979 3.47759 21.9485C3.86347 22.099 4.29834 21.9083 4.4489 21.5224L5.23807 19.4998H8.79389L9.54785 21.5128C9.69313 21.9007 10.1254 22.0974 10.5133 21.9521C10.9012 21.8068 11.0978 21.3746 10.9526 20.9867L7.76903 12.4868C7.65999 12.1957 7.38266 12.002 7.07179 11.9999ZM7.05234 14.8499L8.23209 17.9998H5.82333L7.05234 14.8499ZM17.25 2C17.6642 2 18 2.33579 18 2.75V19.4393L20.2197 17.2197C20.5126 16.9268 20.9874 16.9268 21.2803 17.2197C21.5732 17.5126 21.5732 17.9874 21.2803 18.2803L17.7803 21.7803C17.4874 22.0732 17.0126 22.0732 16.7197 21.7803L13.2197 18.2803C12.9268 17.9874 12.9268 17.5126 13.2197 17.2197C13.5126 16.9268 13.9874 16.9268 14.2803 17.2197L16.5 19.4393V2.75C16.5 2.33579 16.8358 2 17.25 2Z" fill="#212121"/>
</svg>
