<svg width="24" height="24" viewBox="0 0 24 24" fill="none" xmlns="http://www.w3.org/2000/svg">
<path d="M2.21973 2.21973C2.51262 1.92684 2.98738 1.92684 3.28028 2.21973L21.7803 20.7197C22.073 21.0126 22.0729 21.4874 21.7803 21.7803C21.4874 22.0731 21.0126 22.073 20.7197 21.7803L14.4395 15.5H12.3486L10.9385 19.3447C10.7952 19.7348 10.4254 19.9958 10.0098 20C9.59388 20.004 9.21917 19.7499 9.06836 19.3623L8.34375 17.5H4.65625L3.93164 19.3623C3.7315 19.8769 3.15235 20.1316 2.6377 19.9316C2.12297 19.7315 1.86819 19.1524 2.06836 18.6377L5.56836 9.6377L5.63379 9.5C5.81039 9.19395 6.13907 9 6.5 9C6.91229 9.00013 7.2822 9.25342 7.43164 9.6377L9.97168 16.1709L11.3496 12.4102L2.21973 3.28028C1.92684 2.98738 1.92684 2.51262 2.21973 2.21973ZM15.5 3C15.9192 3.00013 16.2939 3.26179 16.4385 3.65528L21.9385 18.6553C21.9553 18.7013 21.9667 18.7483 21.9766 18.7949L16.6816 13.5H17.9189L15.5 6.90332L14.0469 10.8652L12.4883 9.30664L14.5615 3.65528L14.626 3.51465C14.8002 3.20069 15.1329 3 15.5 3ZM5.4336 15.5H7.56641L6.5 12.7578L5.4336 15.5Z" fill="#212121"/>
</svg>
