<?xml version="1.0" encoding="UTF-8"?>
<svg width="20px" height="20px" viewBox="0 0 20 20" version="1.1" xmlns="http://www.w3.org/2000/svg" xmlns:xlink="http://www.w3.org/1999/xlink">
    <!-- Generator: Sketch 64 (93537) - https://sketch.com -->
    <title>ic_fluent_text_header_1_20_filled</title>
    <desc>Created with Sketch.</desc>
    <g id="ðŸ”-System-Icons" stroke="none" stroke-width="1" fill="none" fill-rule="evenodd">
        <g id="ic_fluent_text_header_1_20_filled" fill="#212121" fill-rule="nonzero">
            <path d="M16.2082352,3.75097968 L16.3315,3.75438 C16.417,3.76362 16.4981,3.78721 16.5725,3.8227 C16.6798,3.87366 16.7713,3.94855 16.8418,4.03921 C16.92476,4.145898 16.978664,4.27441 16.9949616,4.41140328 L17,4.51553 L17,15.5 C17,15.9142 16.6642,16.25 16.25,16.25 C15.8703167,16.25 15.5565111,15.9678347 15.5068469,15.6017677 L15.5,15.5 L15.5,7.46849 C14.9718,8.09958 14.3432,8.67263 13.666,9.12404 C13.3214,9.35381 12.8557,9.26068 12.626,8.91603 C12.3962,8.57138 12.4893,8.10573 12.834,7.87597 C14.1257647,7.01476529 15.1346893,5.6621646 15.4611782,4.55734877 L15.5143,4.35328 C15.5276,4.28666 15.5496,4.22322 15.5792,4.16422 C15.6263,4.06986 15.6922,3.98817 15.771,3.92286 C15.89292,3.82182 16.045816,3.7599544 16.2082352,3.75097968 L16.2082352,3.75097968 Z M9.25,3.75001 C9.6296925,3.75001 9.94349042,4.03215847 9.99315332,4.39823809 L10,4.50001 L10,15.5 C10,15.9142 9.66421,16.25001 9.25,16.25001 C8.8703075,16.25001 8.55650958,15.9678363 8.50684668,15.6017679 L8.5,15.5 L8.5,10.5 L3.5,10.5 L3.5,15.5 C3.5,15.9142 3.16421,16.25001 2.75,16.25001 C2.3703075,16.25001 2.05650958,15.9678363 2.00684668,15.6017679 L2,15.5 L2,4.50001 C2,4.08579 2.33579,3.75001 2.75,3.75001 C3.1296925,3.75001 3.44349042,4.03215847 3.49315332,4.39823809 L3.5,4.50001 L3.5,9.00001 L8.5,9.00001 L8.5,4.50001 C8.5,4.08579 8.83579,3.75001 9.25,3.75001 Z" id="ðŸŽ¨-Color"></path>
        </g>
    </g>
</svg>