<svg width="16" height="16" viewBox="0 0 16 16" fill="none" xmlns="http://www.w3.org/2000/svg">
<path d="M14 8C14 8.41422 13.6642 8.75 13.25 8.75L4.46302 8.75L7.75009 11.6911C8.05878 11.9673 8.08512 12.4414 7.80893 12.7501C7.53273 13.0588 7.05859 13.0851 6.7499 12.8089L1.9999 8.55893C1.84089 8.41665 1.75 8.21338 1.75 8C1.75 7.78663 1.84089 7.58335 1.9999 7.44107L6.7499 3.19108C7.05859 2.91488 7.53273 2.94122 7.80893 3.24991C8.08512 3.5586 8.05878 4.03274 7.75009 4.30894L4.46302 7.25L13.25 7.25C13.6642 7.25 14 7.58579 14 8Z" fill="#212121"/>
</svg>
