<svg width="24" height="24" viewBox="0 0 24 24" fill="none" xmlns="http://www.w3.org/2000/svg">
<path d="M21 8C22.6569 8 24 6.65685 24 5C24 3.34315 22.6569 2 21 2C19.6797 2 18.5586 2.85291 18.1576 4.03781C18.0554 4.33985 18 4.66345 18 5C18 6.36441 18.9109 7.51608 20.1577 7.88013C20.4249 7.95816 20.7076 8 21 8ZM5.25 4H16.6115C16.5385 4.32161 16.5 4.65631 16.5 5C16.5 6.56246 17.2963 7.93894 18.5052 8.74572L12 12.1533L2.01619 6.92355C2.17386 5.34271 3.46432 4.09545 5.06409 4.00523L5.25 4ZM12.348 13.6644L20.3785 9.45744C20.5817 9.4855 20.7891 9.5 21 9.5C21.3437 9.5 21.6784 9.46147 22 9.38849V16.75C22 18.483 20.6435 19.8992 18.9344 19.9949L18.75 20H5.25C3.51697 20 2.10075 18.6435 2.00514 16.9344L2 16.75V8.608L11.652 13.6644C11.87 13.7785 12.13 13.7785 12.348 13.6644Z" fill="#212121"/>
</svg>
