<svg width="24" height="24" viewBox="0 0 24 24" fill="none" xmlns="http://www.w3.org/2000/svg">
<path d="M17.75 3C19.5449 3 21 4.45507 21 6.25V17.75C21 19.5449 19.5449 21 17.75 21H6.25C4.45507 21 3 19.5449 3 17.75V6.25C3 4.45507 4.45507 3 6.25 3H17.75ZM17.75 4.5H6.25C5.2835 4.5 4.5 5.2835 4.5 6.25V17.75C4.5 18.7165 5.2835 19.5 6.25 19.5H17.75C18.7165 19.5 19.5 18.7165 19.5 17.75V6.25C19.5 5.2835 18.7165 4.5 17.75 4.5ZM7.75 7C8.1297 7 8.44349 7.28215 8.49315 7.64823L8.5 7.75V8.75C8.5 9.16421 8.16421 9.5 7.75 9.5C7.3703 9.5 7.05651 9.21785 7.00685 8.85177L7 8.75V7.75C7 7.33579 7.33579 7 7.75 7Z" fill="#212121"/>
<path d="M8.49315 15.1482C8.44349 14.7822 8.1297 14.5 7.75 14.5C7.33579 14.5 7 14.8358 7 15.25V16.25L7.00685 16.3518C7.05651 16.7178 7.3703 17 7.75 17C8.16421 17 8.5 16.6642 8.5 16.25V15.25L8.49315 15.1482Z" fill="#212121"/>
<path d="M8.5 11.3212C8.45034 10.9551 8.13654 10.6729 7.75685 10.6729C7.34263 10.6729 7.00685 11.0087 7.00685 11.4229L7 12.5712L7.00685 12.6729C7.05651 13.039 7.3703 13.3212 7.75 13.3212C8.16421 13.3212 8.5 12.9854 8.5 12.5712L8.50685 11.4229L8.5 11.3212Z" fill="#212121"/>
</svg>
