<?xml version="1.0" encoding="UTF-8"?>
<svg width="24px" height="24px" viewBox="0 0 24 24" version="1.1" xmlns="http://www.w3.org/2000/svg" xmlns:xlink="http://www.w3.org/1999/xlink">
    <!-- Generator: Sketch 59.1 (86144) - https://sketch.com -->
    <title>ic_mark_unread_24_filled</title>
    <desc>Created with Sketch.</desc>
    <g id="ðŸ”-Product-Icons" stroke="none" stroke-width="1" fill="none" fill-rule="evenodd">
        <g id="ic_mark_unread_24_filled" fill="#212121">
            <path d="M21.7803301,2.21966991 C22.0465966,2.48593648 22.0708027,2.90260016 21.8529482,3.19621165 L21.7803301,3.28033009 L18.509,6.551 L21.3881025,9.6714127 C21.4383575,9.72588002 21.4790102,9.78579122 21.5101441,9.84906348 C21.8159766,10.2334116 21.998832,10.7201318 21.998832,11.2495602 L21.998832,14.7460933 C21.998832,16.5410188 20.5437574,17.9960933 18.748832,17.9960933 L16.25,17.9960933 C14.4550746,17.9960933 13,16.5410188 13,14.7460933 L13,12.504 L12.556,12.504 L10.998,14.062 L10.998832,14.7460933 C10.998832,16.5410188 9.54375744,17.9960933 7.748832,17.9960933 L7.064,17.996 L3.28033009,21.7803301 C3.01406352,22.0465966 2.59739984,22.0708027 2.30378835,21.8529482 L2.21966991,21.7803301 C1.95340335,21.5140635 1.9291973,21.0973998 2.14705176,20.8037883 L2.21966991,20.7196699 L4.95739615,17.9830999 L4.953,17.983 L11.933,11.003 L11.934,11.004 L16.3807867,6.55760392 L16.379,6.557 L17.4680159,5.46937757 C17.4683421,5.46962958 17.4686683,5.46988169 17.4689944,5.47013389 L20.7196699,2.21966991 C21.0125631,1.9267767 21.4874369,1.9267767 21.7803301,2.21966991 Z M8.75,5 C9.16421356,5 9.5,5.33578644 9.5,5.75 C9.5,6.12969577 9.21784612,6.44349096 8.85177056,6.49315338 L8.75,6.5 L7.90884736,6.5 C7.73390021,6.5 7.56562682,6.56110393 7.43220028,6.67093729 L7.35655136,6.74258584 L5.283,8.999 L8.748832,8.99956021 C9.57959742,8.99956021 10.3052022,9.44980644 10.6949399,10.1195925 L3.39760427,17.416864 C2.5529536,16.8299273 2,15.8525849 2,14.7460933 L2,11.2495602 C2,10.6879463 2.20576378,10.1743911 2.54601624,9.7801698 L2.58382263,9.72498468 L2.58382263,9.72498468 L2.627704,9.67258584 L6.25195936,5.72775753 C6.63544862,5.31034784 7.1605906,5.05479199 7.72091541,5.00785492 L7.90884736,5 L8.75,5 Z M17.447,7.613 L16.061,8.999 L18.727,8.999 L17.447,7.613 Z M15.815,4.999 L14.6349048,6.17924996 C14.5498797,6.05763958 14.5,5.90964481 14.5,5.75 C14.5,5.37030423 14.7821539,5.05650904 15.1482294,5.00684662 L15.25,5 L15.815,4.999 Z" id="ðŸŽ¨-Color"></path>
        </g>
    </g>
</svg>