<svg width="28" height="28" viewBox="0 0 28 28" fill="none" xmlns="http://www.w3.org/2000/svg">
<path d="M5 6.75C5 5.23122 6.23122 4 7.75 4H20.25C21.7688 4 23 5.23122 23 6.75V23.25C23 24.7688 21.7688 26 20.25 26H7.75C6.23122 26 5 24.7688 5 23.25V6.75Z" fill="url(#paint0_linear_378174_10136)"/>
<path d="M5 6.75C5 5.23122 6.23122 4 7.75 4H20.25C21.7688 4 23 5.23122 23 6.75V23.25C23 24.7688 21.7688 26 20.25 26H7.75C6.23122 26 5 24.7688 5 23.25V6.75Z" fill="url(#paint1_radial_378174_10136)" fill-opacity="0.7"/>
<path d="M5 6.75C5 5.23122 6.23122 4 7.75 4H20.25C21.7688 4 23 5.23122 23 6.75V23.25C23 24.7688 21.7688 26 20.25 26H7.75C6.23122 26 5 24.7688 5 23.25V6.75Z" fill="url(#paint2_radial_378174_10136)" fill-opacity="0.4"/>
<path d="M9.5 4.5C9.5 3.11929 10.6193 2 12 2H16C17.3807 2 18.5 3.11929 18.5 4.5C18.5 5.88071 17.3807 7 16 7H12C10.6193 7 9.5 5.88071 9.5 4.5Z" fill="url(#paint3_linear_378174_10136)"/>
<defs>
<linearGradient id="paint0_linear_378174_10136" x1="5" y1="6.2" x2="22.5493" y2="26.3917" gradientUnits="userSpaceOnUse">
<stop stop-color="#36DFF1"/>
<stop offset="1" stop-color="#0094F0"/>
</linearGradient>
<radialGradient id="paint1_radial_378174_10136" cx="0" cy="0" r="1" gradientUnits="userSpaceOnUse" gradientTransform="translate(14 2.77778) rotate(90) scale(7.53979 6.96094)">
<stop stop-color="#0A1852"/>
<stop offset="0.970427" stop-color="#0A1852" stop-opacity="0"/>
</radialGradient>
<radialGradient id="paint2_radial_378174_10136" cx="0" cy="0" r="1" gradientUnits="userSpaceOnUse" gradientTransform="translate(14 5.0777) rotate(90) scale(3.38176 5.51953)">
<stop stop-color="#0A1852"/>
<stop offset="1" stop-color="#0A1852" stop-opacity="0"/>
</radialGradient>
<linearGradient id="paint3_linear_378174_10136" x1="14" y1="2" x2="14" y2="7" gradientUnits="userSpaceOnUse">
<stop stop-color="#FFE06B"/>
<stop offset="1" stop-color="#FAB500"/>
</linearGradient>
</defs>
</svg>
