<?xml version="1.0" encoding="UTF-8"?>
<svg width="24px" height="24px" viewBox="0 0 24 24" version="1.1" xmlns="http://www.w3.org/2000/svg" xmlns:xlink="http://www.w3.org/1999/xlink">
    <!-- Generator: Sketch 61.2 (89653) - https://sketch.com -->
    <title>ic_fluent_document_search_24_filled</title>
    <desc>Created with Sketch.</desc>
    <g id="ðŸ”-Product-Icons" stroke="none" stroke-width="1" fill="none" fill-rule="evenodd">
        <g id="ic_fluent_document_search_24_filled" fill="#212121" fill-rule="nonzero">
            <path d="M11.4087946,10.9461386 C13.1311812,12.6685252 13.3113697,15.3491109 11.94936,17.2719826 L11.8080184,17.4616805 L16.0253699,21.6800252 L16.1002367,21.7667483 C16.3248369,22.0694513 16.2998813,22.4990168 16.0253699,22.7735281 C15.7508586,23.0480395 15.3212931,23.0729951 15.0185901,22.8483949 L14.931867,22.7735281 L10.6754475,18.5171346 C8.75993647,19.8086092 6.13747729,19.6069683 4.44272106,17.9122121 C2.51909298,15.988584 2.51909298,12.8697666 4.44272106,10.9461386 C6.36634915,9.02251048 9.48516649,9.02251048 11.4087946,10.9461386 Z M13,2 L13,7.75389054 C13,8.99653122 14.0073593,10.0038905 15.25,10.0038905 L20.996,10.003 L20.996813,19.75 C20.996813,20.9926407 19.9894537,22 18.746813,22 L17.2375183,22.000582 C17.2000564,21.7076293 17.0891738,21.4213644 16.9033168,21.1708772 L16.7823246,21.0265578 L13.09,17.33 L13.1595364,17.2059675 C14.3617006,14.9334033 13.9793041,12.1024345 12.1159014,10.2390318 C10.1864925,8.30962289 7.25760803,7.98884562 4.99586,9.27669995 L5,4.25 C5,3.00735931 6.00735931,2 7.25,2 L13,2 Z M5.53622402,12.0396415 C4.21652094,13.3593446 4.21652094,15.499006 5.53622402,16.8187091 C6.85592709,18.1384122 8.99558854,18.1384122 10.3152916,16.8187091 C11.6349947,15.499006 11.6349947,13.3593446 10.3152916,12.0396415 C8.99558854,10.7199384 6.85592709,10.7199384 5.53622402,12.0396415 Z M14.5015884,2.46722346 C14.5778519,2.52594619 14.6506655,2.5898115 14.7194834,2.6585934 L17.531355,5.46899352 L20.3390003,8.28086677 C20.4089044,8.35087615 20.4737234,8.42501456 20.5332199,8.50270814 L15.25,8.50389054 C14.8357864,8.50389054 14.5,8.1681041 14.5,7.75389054 L14.5015884,2.46722346 Z" id="ðŸŽ¨-Color"></path>
        </g>
    </g>
</svg>