<svg width="16" height="16" viewBox="0 0 16 16" fill="none" xmlns="http://www.w3.org/2000/svg">
<path d="M5.5 3.5C5.5 2.11929 6.61929 1 8 1C9.38071 1 10.5 2.11929 10.5 3.5C10.5 4.70966 9.64087 5.71865 8.4995 5.95009V6.99994H10.6337C11.3884 6.99994 12.0002 7.61178 12.0002 8.36653V10.0501C13.1412 10.2818 14 11.2906 14 12.5C14 13.8807 12.8807 15 11.5 15C10.1193 15 9 13.8807 9 12.5C9 11.2904 9.859 10.2815 11.0002 10.05V8.36653C11.0002 8.16407 10.8361 7.99994 10.6337 7.99994H5.36684C5.16437 7.99994 5.00024 8.16407 5.00024 8.36653V10.0501C6.14124 10.2818 7 11.2906 7 12.5C7 13.8807 5.88071 15 4.5 15C3.11929 15 2 13.8807 2 12.5C2 11.2904 2.859 10.2815 4.00024 10.05V8.36653C4.00024 7.61178 4.61209 6.99994 5.36684 6.99994H7.4995V5.94989C6.35863 5.71806 5.5 4.7093 5.5 3.5Z" fill="#212121"/>
</svg>
