<svg width="28" height="28" viewBox="0 0 28 28" fill="none" xmlns="http://www.w3.org/2000/svg">
<path d="M21.25 3C23.3211 3 25 4.67893 25 6.75V21.25C25 23.3211 23.3211 25 21.25 25H6.75C4.67893 25 3 23.3211 3 21.25V6.75C3 4.67893 4.67893 3 6.75 3H21.25ZM4.5 6.75V9.5H18.5L18.5 23.5H21.25C22.4926 23.5 23.5 22.4926 23.5 21.25V6.75C23.5 5.50736 22.4926 4.5 21.25 4.5H6.75C5.50736 4.5 4.5 5.50736 4.5 6.75ZM11 17H17L17 11H11L11 17ZM17 23.5V18.5H11V23.5H17ZM9.5 11H4.5V17H9.5L9.5 11ZM4.5 18.5V21.25C4.5 22.4926 5.50736 23.5 6.75 23.5H9.5V18.5H4.5Z" fill="#212121"/>
</svg>
