<svg width="24" height="24" viewBox="0 0 24 24" fill="none" xmlns="http://www.w3.org/2000/svg">
<path d="M10.5 8C8.84315 8 7.5 9.34315 7.5 11C7.5 12.6569 8.84315 14 10.5 14C12.1569 14 13.5 12.6569 13.5 11C13.5 9.34315 12.1569 8 10.5 8ZM9 11C9 10.1716 9.67157 9.5 10.5 9.5C11.3284 9.5 12 10.1716 12 11C12 11.8284 11.3284 12.5 10.5 12.5C9.67157 12.5 9 11.8284 9 11ZM2 7.25C2 6.00736 3.00736 5 4.25 5H16.75C17.9926 5 19 6.00736 19 7.25V11.1739C18.5185 11.0602 18.0163 11 17.5 11V9.5H16.75C15.5074 9.5 14.5 8.49264 14.5 7.25V6.5H6.5V7.25C6.5 8.49264 5.49264 9.5 4.25 9.5H3.5V12.5H4.25C5.49264 12.5 6.5 13.5074 6.5 14.75V15.5H11.3135C11.159 15.9782 11.0585 16.4805 11.0189 17H4.25C3.00736 17 2 15.9926 2 14.75V7.25ZM4.25 6.5C3.83579 6.5 3.5 6.83579 3.5 7.25V8H4.25C4.66421 8 5 7.66421 5 7.25V6.5H4.25ZM17.5 8V7.25C17.5 6.83579 17.1642 6.5 16.75 6.5H16V7.25C16 7.66421 16.3358 8 16.75 8H17.5ZM3.5 14.75C3.5 15.1642 3.83579 15.5 4.25 15.5H5V14.75C5 14.3358 4.66421 14 4.25 14H3.5V14.75ZM4.40137 18.5H11.0765C11.1572 19.0232 11.3004 19.5258 11.4982 20H7.00002C5.8896 20 4.92008 19.3967 4.40137 18.5ZM20.5 11.7322C21.051 12.0194 21.5558 12.3832 22 12.8096V10C22 8.8896 21.3967 7.92008 20.5 7.40137V11.7322ZM23 17.5C23 20.5376 20.5376 23 17.5 23C14.4624 23 12 20.5376 12 17.5C12 14.4624 14.4624 12 17.5 12C20.5376 12 23 14.4624 23 17.5ZM15.8536 15.1464C15.6583 14.9512 15.3417 14.9512 15.1464 15.1464C14.9512 15.3417 14.9512 15.6583 15.1464 15.8536L16.7929 17.5L15.1464 19.1464C14.9512 19.3417 14.9512 19.6583 15.1464 19.8536C15.3417 20.0488 15.6583 20.0488 15.8536 19.8536L17.5 18.2071L19.1464 19.8536C19.3417 20.0488 19.6583 20.0488 19.8536 19.8536C20.0488 19.6583 20.0488 19.3417 19.8536 19.1464L18.2071 17.5L19.8536 15.8536C20.0488 15.6583 20.0488 15.3417 19.8536 15.1464C19.6583 14.9512 19.3417 14.9512 19.1464 15.1464L17.5 16.7929L15.8536 15.1464Z" fill="#212121"/>
</svg>
