<svg width="20" height="20" viewBox="0 0 20 20" fill="none" xmlns="http://www.w3.org/2000/svg">
<path d="M14.2837 3.24146L13.1903 4.33487C10.7126 2.93781 7.51349 3.29412 5.40381 5.40381C2.8654 7.94221 2.8654 12.0578 5.40381 14.5962C7.94221 17.1346 12.0578 17.1346 14.5962 14.5962C14.8891 14.3033 15.364 14.3033 15.6569 14.5962C15.9497 14.8891 15.9497 15.364 15.6569 15.6569C12.5327 18.781 7.46734 18.781 4.34315 15.6569C1.21895 12.5327 1.21895 7.46734 4.34315 4.34315C7.04228 1.64401 11.1903 1.27678 14.2837 3.24146ZM10.9877 6.53746L12.1509 5.37423C10.2638 4.49697 7.95069 4.83682 6.39376 6.39375C4.40208 8.38543 4.40208 11.6146 6.39376 13.6062C8.38543 15.5979 11.6146 15.5979 13.6062 13.6062C13.8991 13.3134 13.8991 12.8385 13.6062 12.5456C13.3134 12.2527 12.8385 12.2527 12.5456 12.5456C11.1397 13.9515 8.8603 13.9515 7.45442 12.5456C6.04853 11.1397 6.04853 8.8603 7.45442 7.45442C8.41116 6.49767 9.77245 6.19202 10.9877 6.53746ZM15.7803 4.21967C16.0732 4.51256 16.0732 4.98744 15.7803 5.28033L11.4492 9.61147C11.4823 9.73539 11.5 9.86563 11.5 10C11.5 10.8284 10.8284 11.5 10 11.5C9.17157 11.5 8.5 10.8284 8.5 10C8.5 9.17157 9.17157 8.5 10 8.5C10.1344 8.5 10.2646 8.51767 10.3885 8.55081L14.7197 4.21967C15.0126 3.92678 15.4874 3.92678 15.7803 4.21967ZM17.25 13.25C17.25 13.6642 16.9142 14 16.5 14C16.0858 14 15.75 13.6642 15.75 13.25C15.75 12.8358 16.0858 12.5 16.5 12.5C16.9142 12.5 17.25 12.8358 17.25 13.25ZM16.5 7.5C16.9142 7.5 17.25 7.16421 17.25 6.75C17.25 6.33579 16.9142 6 16.5 6C16.0858 6 15.75 6.33579 15.75 6.75C15.75 7.16421 16.0858 7.5 16.5 7.5ZM18 11.25C18 11.6642 17.6642 12 17.25 12C16.8358 12 16.5 11.6642 16.5 11.25C16.5 10.8358 16.8358 10.5 17.25 10.5C17.6642 10.5 18 10.8358 18 11.25ZM17.25 9.5C17.6642 9.5 18 9.16421 18 8.75C18 8.33579 17.6642 8 17.25 8C16.8358 8 16.5 8.33579 16.5 8.75C16.5 9.16421 16.8358 9.5 17.25 9.5ZM15 11.25C15 11.6642 14.6642 12 14.25 12C13.8358 12 13.5 11.6642 13.5 11.25C13.5 10.8358 13.8358 10.5 14.25 10.5C14.6642 10.5 15 10.8358 15 11.25ZM14.25 9.5C14.6642 9.5 15 9.16421 15 8.75C15 8.33579 14.6642 8 14.25 8C13.8358 8 13.5 8.33579 13.5 8.75C13.5 9.16421 13.8358 9.5 14.25 9.5Z" fill="#212121"/>
</svg>
