<?xml version="1.0" encoding="UTF-8"?>
<svg width="24px" height="24px" viewBox="0 0 24 24" version="1.1" xmlns="http://www.w3.org/2000/svg" xmlns:xlink="http://www.w3.org/1999/xlink">
    <!-- Generator: Sketch 59.1 (86144) - https://sketch.com -->
    <title>ic_fluent_triple_column_24_regular</title>
    <desc>Created with Sketch.</desc>
    <g id="ðŸ”-Product-Icons" stroke="none" stroke-width="1" fill="none" fill-rule="evenodd">
        <g id="ic_fluent_triple_column_24_regular" fill="#212121" fill-rule="nonzero">
            <path d="M6.23697061,3.00041493 C7.20346892,3.00041493 7.98697061,3.78391661 7.98697061,4.75041493 L7.98697061,19.2504149 C7.98697061,20.2169132 7.20346892,21.0004149 6.23697061,21.0004149 L3.73697061,21.0004149 C2.7704723,21.0004149 1.98697061,20.2169132 1.98697061,19.2504149 L1.98697061,4.75041493 C1.98697061,3.83224153 2.69408088,3.07922259 3.5934434,3.00621613 L3.73697061,3.00041493 L6.23697061,3.00041493 Z M20.2630294,3.00041493 C21.2295277,3.00041493 22.0130294,3.78391661 22.0130294,4.75041493 L22.0130294,19.2504149 C22.0130294,20.2169132 21.2295277,21.0004149 20.2630294,21.0004149 L17.7630294,21.0004149 C16.7965311,21.0004149 16.0130294,20.2169132 16.0130294,19.2504149 L16.0130294,4.75041493 C16.0130294,3.78391661 16.7965311,3.00041493 17.7630294,3.00041493 L20.2630294,3.00041493 Z M13.2369706,2.99958507 C14.2034689,2.99958507 14.9869706,3.78308676 14.9869706,4.74958507 L14.9869706,19.2495851 C14.9869706,20.2160834 14.2034689,20.9995851 13.2369706,20.9995851 L10.7369706,20.9995851 C9.7704723,20.9995851 8.98697061,20.2160834 8.98697061,19.2495851 L8.98697061,4.74958507 C8.98697061,3.78308676 9.7704723,2.99958507 10.7369706,2.99958507 L13.2369706,2.99958507 Z M6.23697061,4.50041493 L3.73697061,4.50041493 L3.6796479,4.5070176 C3.56920402,4.53292811 3.48697061,4.63206819 3.48697061,4.75041493 L3.48697061,19.2504149 C3.48697061,19.3884861 3.59889942,19.5004149 3.73697061,19.5004149 L6.23697061,19.5004149 C6.3750418,19.5004149 6.48697061,19.3884861 6.48697061,19.2504149 L6.48697061,4.75041493 C6.48697061,4.61234374 6.3750418,4.50041493 6.23697061,4.50041493 Z M20.2630294,4.50041493 L17.7630294,4.50041493 C17.6249582,4.50041493 17.5130294,4.61234374 17.5130294,4.75041493 L17.5130294,19.2504149 C17.5130294,19.3884861 17.6249582,19.5004149 17.7630294,19.5004149 L20.2630294,19.5004149 C20.4011006,19.5004149 20.5130294,19.3884861 20.5130294,19.2504149 L20.5130294,4.75041493 C20.5130294,4.61234374 20.4011006,4.50041493 20.2630294,4.50041493 Z M13.2369706,4.49958507 L10.7369706,4.49958507 C10.5988994,4.49958507 10.4869706,4.61151389 10.4869706,4.74958507 L10.4869706,19.2495851 C10.4869706,19.3876563 10.5988994,19.4995851 10.7369706,19.4995851 L13.2369706,19.4995851 C13.3750418,19.4995851 13.4869706,19.3876563 13.4869706,19.2495851 L13.4869706,4.74958507 C13.4869706,4.61151389 13.3750418,4.49958507 13.2369706,4.49958507 Z" id="ðŸŽ¨Color"></path>
        </g>
    </g>
</svg>