<svg width="20" height="20" viewBox="0 0 20 20" fill="none" xmlns="http://www.w3.org/2000/svg">
<path d="M8.95235 3.53479C9.61709 3.22799 10.3829 3.22799 11.0476 3.53479L15.7095 5.68643C15.8866 5.76815 16 5.94538 16 6.14041V8.00061H17V6.14041C17 5.55533 16.6598 5.02365 16.1286 4.77847L11.4667 2.62683C10.5361 2.19731 9.46393 2.19731 8.5333 2.62683L3.87141 4.77847C3.34019 5.02365 3 5.55533 3 6.14041V8.00061H4L4 6.14041C4 5.94538 4.1134 5.76815 4.29047 5.68643L8.95235 3.53479ZM3.39872 11.0006C3.58077 11.1505 3.7811 11.2966 4 11.438C4.05121 11.4711 4.10344 11.5039 4.15669 11.5364C5.6041 12.421 7.66726 13.0006 9.9992 13.0006C12.3311 13.0006 14.3943 12.421 15.8417 11.5364C15.8955 11.5036 15.9483 11.4704 16 11.437C16.2183 11.2959 16.4181 11.1501 16.5997 11.0006C16.7447 10.8813 16.878 10.7595 17 10.6359C17.2046 10.4286 17.377 10.216 17.5179 10.0006H16.0002C16.0002 10.0006 16.0001 10.0006 16.0002 10.0006C15.7241 10.0005 15.5002 9.7767 15.5002 9.50061C15.5002 9.22447 15.724 9.00061 16.0002 9.00061H18.5002C18.6328 9.00061 18.7599 9.05329 18.8537 9.14706C18.9475 9.24083 19.0002 9.368 19.0002 9.50061V12.0006C19.0002 12.2767 18.7763 12.5006 18.5002 12.5006C18.224 12.5006 18.0002 12.2767 18.0002 12.0006V11.0217C17.7185 11.3549 17.3827 11.6682 17 11.9573C16.8002 12.1082 16.5876 12.2526 16.3632 12.3897C16.2453 12.4617 16.1242 12.5318 16 12.5997C14.4076 13.4709 12.3046 14.0006 9.9992 14.0006C7.69452 14.0006 5.59217 13.4713 4 12.6006C3.87523 12.5324 3.75359 12.4621 3.63524 12.3897C3.41142 12.253 3.19935 12.109 3 11.9585C2.61739 11.6696 2.2817 11.3566 2 11.0238V12.0006C2 12.2767 1.77614 12.5006 1.5 12.5006C1.22386 12.5006 1 12.2767 1 12.0006V9.50061C1 9.368 1.05268 9.24083 1.14645 9.14706C1.24021 9.05329 1.36739 9.00061 1.5 9.00061H4C4.27614 9.00061 4.5 9.22447 4.5 9.50061C4.5 9.77675 4.27614 10.0006 4 10.0006H2.48054C2.62181 10.2166 2.79473 10.4297 3 10.6375C3.12152 10.7606 3.25437 10.8818 3.39872 11.0006ZM4 13.7247V13.8607C4 14.0558 4.1134 14.233 4.29047 14.3147L8.95235 16.4664C9.61709 16.7732 10.3829 16.7732 11.0476 16.4664L15.7095 14.3147C15.8866 14.233 16 14.0558 16 13.8607V13.7239C16.3511 13.5549 16.6852 13.3707 17 13.172V13.8607C17 14.4458 16.6598 14.9775 16.1286 15.2227L11.4667 17.3743C10.5361 17.8038 9.46393 17.8038 8.5333 17.3743L3.87141 15.2227C3.34019 14.9775 3 14.4458 3 13.8607V13.173C3.31477 13.3716 3.64893 13.5558 4 13.7247ZM6.04031 6.80366C6.14909 6.54984 6.44303 6.43227 6.69684 6.54104L9.99988 7.95663L13.3029 6.54104C13.5567 6.43227 13.8507 6.54984 13.9595 6.80366C14.0682 7.05747 13.9507 7.35141 13.6968 7.46019L10.4999 8.83031V11.0006C10.4999 11.2768 10.276 11.5006 9.99988 11.5006C9.72374 11.5006 9.49988 11.2768 9.49988 11.0006V8.83031L6.30292 7.46019C6.04911 7.35141 5.93153 7.05747 6.04031 6.80366Z" fill="#212121"/>
</svg>
