<svg width="16" height="16" viewBox="0 0 16 16" fill="none" xmlns="http://www.w3.org/2000/svg">
<path d="M8 1C11.866 1 15 4.13401 15 8C15 11.866 11.866 15 8 15C4.13401 15 1 11.866 1 8C1 4.13401 4.13401 1 8 1ZM8 3C5.23858 3 3 5.23858 3 8C3 9.57081 3.7248 10.9728 4.85645 11.8887C5.07105 12.0623 5.38583 12.029 5.55957 11.8145C5.7332 11.5999 5.70073 11.2851 5.48633 11.1113C4.5791 10.3772 4 9.25635 4 8C4 5.79086 5.79086 4 8 4C8.15061 4 8.29935 4.00828 8.44531 4.02441C8.71969 4.05461 8.96674 3.85642 8.99707 3.58203C9.02719 3.30771 8.82903 3.0606 8.55469 3.03027C8.3724 3.01013 8.1873 3 8 3ZM12.418 7.00293C12.1436 7.03326 11.9454 7.28031 11.9756 7.55469C11.9917 7.70065 12 7.84938 12 8C12 9.25635 11.4209 10.3772 10.5137 11.1113C10.2993 11.2851 10.2668 11.5999 10.4404 11.8145C10.6142 12.029 10.9289 12.0623 11.1436 11.8887C12.2752 10.9728 13 9.57081 13 8C13 7.8127 12.9899 7.6276 12.9697 7.44531C12.9394 7.17097 12.6923 6.97281 12.418 7.00293ZM11.1318 4.5166C10.7953 4.42643 10.5019 4.74095 10.2109 4.93262C9.35058 5.49934 7.48885 6.74161 7.11621 7.11426C6.6282 7.60242 6.6281 8.39373 7.11621 8.88184C7.60433 9.3698 8.39567 9.3698 8.88379 8.88184C9.25687 8.50876 10.5034 6.645 11.0703 5.78711C11.261 5.49858 11.5722 5.20877 11.4854 4.87402C11.4637 4.79071 11.4207 4.71176 11.3555 4.64648C11.2912 4.58219 11.2138 4.53856 11.1318 4.5166Z" fill="#212121"/>
</svg>
