<svg width="24" height="24" viewBox="0 0 24 24" fill="none" xmlns="http://www.w3.org/2000/svg">
<path d="M16.749 2C17.9916 2 18.999 3.00736 18.999 4.25V19.75C18.999 20.9926 17.9916 22 16.749 22H7.97439L11.5627 17.903C12.507 16.8248 11.8217 15.1651 10.4534 15.0115L11.4525 13.2354C12.0149 12.2355 11.2924 11 10.1451 11H5.31753C4.76596 11 4.26151 11.3024 4.00012 11.7827V4.25C4.00012 3.00736 5.00748 2 6.25012 2H16.749ZM14.7537 5.49739H8.25148C7.87179 5.49739 7.55799 5.77954 7.50833 6.14562L7.50148 6.24739V7.75097C7.50148 8.13066 7.78364 8.44446 8.14971 8.49412L8.25148 8.50097H14.7537C15.1334 8.50097 15.4472 8.21882 15.4969 7.85274L15.5037 7.75097V6.24739C15.5037 5.83317 15.1679 5.49739 14.7537 5.49739ZM20.0001 15.0019H20.7501C21.1298 15.0019 21.4436 15.2841 21.4933 15.6502L21.5001 15.7519V17.25C21.5001 17.6297 21.218 17.9435 20.8519 17.9932L20.7501 18H20.0001V15.0019ZM20.0001 11.0019H20.7501C21.1298 11.0019 21.4436 11.2841 21.4933 11.6502L21.5001 11.7519V13.25C21.5001 13.6297 21.218 13.9435 20.8519 13.9932L20.7501 14H20.0001V11.0019ZM20.0001 7.00194H20.7501C21.1298 7.00194 21.4436 7.28409 21.4933 7.65017L21.5001 7.75194V9.25C21.5001 9.6297 21.218 9.94349 20.8519 9.99315L20.7501 10H20.0001V7.00194ZM5.31767 12H10.1453C10.5277 12 10.7685 12.4118 10.5811 12.7451L8.7502 16H10.2463C10.8909 16 11.2352 16.7593 10.8105 17.2441L5.98666 22.7519C5.48211 23.328 4.54401 22.8375 4.72916 22.0945L5.5002 19H2.49767C2.13127 19 1.88931 18.6189 2.04516 18.2873L4.86516 12.2873C4.94758 12.112 5.1239 12 5.31767 12Z" fill="#212121"/>
</svg>
