<svg width="16" height="16" viewBox="0 0 16 16" fill="none" xmlns="http://www.w3.org/2000/svg">
<path d="M9.06934 6.74607C9.85827 7.58318 11.1897 7.58334 11.9795 6.74705L12.3037 6.4033C12.6015 6.54383 12.8814 6.71857 13.1387 6.92186L13.0127 7.34373C12.6834 8.44587 13.3493 9.59759 14.4688 9.86229L14.8174 9.94529C14.839 10.127 14.8506 10.3122 14.8506 10.5C14.8506 10.6559 14.8431 10.81 14.8281 10.9619L14.3672 11.0791C13.2792 11.357 12.6332 12.4764 12.9365 13.5576L13.0928 14.1142C12.8387 14.3096 12.5629 14.4764 12.2705 14.6113L11.9336 14.2539C11.1448 13.4169 9.81428 13.416 9.02441 14.2519L8.69922 14.5967C8.40149 14.4562 8.12144 14.2813 7.86426 14.0781L7.99023 13.6553C8.31937 12.5532 7.65352 11.4014 6.53418 11.1367L6.18457 11.0537C6.16305 10.8723 6.15235 10.6874 6.15234 10.5C6.15234 10.3441 6.15985 10.1899 6.1748 10.0381L6.63574 9.9199C7.72359 9.64201 8.36948 8.52342 8.06641 7.44236L7.91016 6.88475C8.16424 6.68945 8.44 6.52256 8.73242 6.38768L9.06934 6.74607ZM7.64746 2.14647C7.8428 1.95123 8.1593 1.95113 8.35449 2.14647C9.59454 3.38881 10.9689 3.99998 12.5 3.99998C12.7761 3.99998 13 4.22384 13 4.49998V5.60057C12.6832 5.43858 12.3487 5.30663 12 5.20799V4.98143C10.5195 4.86916 9.18478 4.25553 8 3.18943C6.81361 4.25495 5.47924 4.86905 4 4.98143V7.50096C4.00001 8.93252 4.36178 10.0621 5.01855 10.9414C5.07106 11.6024 5.24029 12.2302 5.50586 12.8047C3.8454 11.5899 3.00001 9.81068 3 7.50096V4.49998C3 4.22384 3.22386 3.99998 3.5 3.99998C5.02922 3.99998 6.40435 3.38909 7.64746 2.14647ZM10.501 9.49998C9.94887 9.50019 9.50098 9.94783 9.50098 10.5C9.50107 11.0521 9.94892 11.4998 10.501 11.5C11.0532 11.5 11.5009 11.0522 11.501 10.5C11.501 9.9477 11.0533 9.49998 10.501 9.49998Z" fill="#212121"/>
</svg>
