<svg width="48" height="48" viewBox="0 0 48 48" fill="none" xmlns="http://www.w3.org/2000/svg">
<path d="M31.9893 15.8721C32.1981 15.2143 32.9007 14.8501 33.5586 15.0586C34.2163 15.2673 34.5805 15.9701 34.3721 16.6279C34.1246 17.4083 33.7937 18.4305 33.458 19.623C34.7175 19.4433 36.1088 19.1793 37.6777 18.7871C38.3472 18.6201 39.0259 19.0279 39.1934 19.6973C39.3603 20.3666 38.9533 21.0452 38.2842 21.2129C36.1952 21.7351 34.396 22.0448 32.8008 22.2295C32.6201 23.055 32.4585 23.9252 32.3301 24.8242C33.0549 24.6216 33.759 24.5001 34.3809 24.5C34.7697 24.5 35.1531 24.5158 35.5293 24.5449C35.53 24.452 35.5314 24.3581 35.5303 24.2646C35.5223 23.5746 36.0756 23.0084 36.7656 23C37.4558 22.9919 38.022 23.5452 38.0303 24.2354C38.0332 24.4845 38.0282 24.7327 38.0205 24.9785C39.1559 25.2987 40.184 25.7767 41.0605 26.4062C42.8264 27.6746 43.9485 29.5442 44.0293 31.8057C44.0989 33.7582 43.8077 35.5788 42.7139 37.2363C41.634 38.8724 39.8712 40.1994 37.3047 41.3848C36.6782 41.6738 35.9351 41.4006 35.6455 40.7744C35.3564 40.148 35.6297 39.4049 36.2559 39.1152C38.6013 38.032 39.9028 36.9564 40.627 35.8594C41.3366 34.784 41.5899 33.539 41.5312 31.8945C41.4807 30.4813 40.8027 29.3002 39.6016 28.4375C39.0842 28.0659 38.4646 27.7525 37.7559 27.5137C37.1323 30.981 35.5149 33.9662 33.6113 36.0703C33.8 36.4482 34.0082 36.8192 34.2373 37.1816C34.606 37.765 34.4317 38.5372 33.8486 38.9062C33.2652 39.2749 32.4929 39.1009 32.124 38.5176C31.9777 38.2861 31.8388 38.0522 31.707 37.8164C30.7571 38.5221 29.758 39.0351 28.7695 39.2754C27.2179 39.6523 25.5884 39.3605 24.4795 37.9746L24.4316 37.915L24.3916 37.8496C23.2152 35.9408 23.3483 33.8906 23.9551 32.1787C24.5555 30.485 25.6511 29.0053 26.6338 28.0225C27.4743 27.182 28.5686 26.4491 29.6846 25.876C29.6949 25.772 29.7045 25.6676 29.7158 25.5645C29.834 24.4833 30.0048 23.4345 30.2031 22.4414C29.1163 22.4938 28.1226 22.5 27.1807 22.5C26.4905 22.4999 25.9309 21.9401 25.9307 21.25C25.9309 20.5599 26.4905 20.0001 27.1807 20C28.3008 20 29.4759 19.9902 30.7891 19.9023C31.2269 18.2258 31.686 16.8285 31.9893 15.8721ZM29.543 28.8613C29.1118 29.1569 28.722 29.4694 28.4014 29.79C27.6126 30.5789 26.7586 31.7528 26.3115 33.0137C25.8814 34.2272 25.8609 35.4073 26.4746 36.46C26.8278 36.8671 27.3494 37.0484 28.1797 36.8467C28.8965 36.6724 29.7547 36.2172 30.6426 35.4736C29.862 33.3082 29.5602 31.0474 29.543 28.8613ZM34.3809 27C33.8348 27.0001 33.006 27.1835 32.0693 27.543C31.9788 29.4949 32.1107 31.4741 32.6025 33.3584C33.8458 31.6706 34.8644 29.4945 35.3008 27.0342C35.0029 27.012 34.6959 27 34.3809 27ZM12.5 8.5C13.7985 8.5 15.8687 8.71243 17.6572 9.76172C19.5413 10.8672 21 12.8438 21 16.04V29.75C21 30.4404 20.4404 31 19.75 31C19.0596 31 18.5 30.4404 18.5 29.75V28.4053C18.0791 28.7019 17.6187 29.003 17.1221 29.2861C15.5224 30.1983 13.4807 31 11.25 31C9.80776 31 8.02608 30.3801 6.59863 29.1719C5.13317 27.9314 4 26.0332 4 23.5C4 20.8817 5.37871 18.9721 7.07812 17.7637C8.74556 16.578 10.8001 16 12.4502 16C15.2328 16 17.0703 16.3162 18.5 16.6494V16.04C18.5 13.7557 17.5334 12.5874 16.3926 11.918C15.1561 11.1925 13.6014 11 12.5 11C11.4696 11 10.3457 11.2336 9.37598 11.5439C8.37446 11.8645 7.69229 12.2161 7.49805 12.3613C6.94513 12.7744 6.1623 12.6612 5.74902 12.1084C5.33572 11.5554 5.44899 10.7717 6.00195 10.3584C6.52778 9.96553 7.52108 9.51295 8.61426 9.16309C9.73954 8.80296 11.1305 8.5 12.5 8.5ZM12.4502 18.5C11.3066 18.5 9.76047 18.9232 8.52637 19.8008C7.32426 20.6556 6.5 21.8715 6.5 23.5C6.5 25.2137 7.24183 26.4409 8.21387 27.2637C9.22389 28.1186 10.4423 28.5 11.25 28.5C12.8941 28.5 14.5023 27.902 15.8838 27.1143C16.9963 26.4799 17.9077 25.7519 18.5 25.2129V19.2217C17.0742 18.863 15.351 18.5 12.4502 18.5Z" fill="#212121"/>
</svg>
