<svg width="28" height="28" viewBox="0 0 28 28" fill="none" xmlns="http://www.w3.org/2000/svg">
<path d="M4 4.4C4 3.07452 5.07452 2 6.4 2H14.5665C15.2031 2 15.8135 2.25286 16.2636 2.70294L23.1945 9.63388C23.7103 10.1496 24 10.8491 24 11.5784V23.6C24 24.9255 22.9255 26 21.6 26H13.5636C13.6319 25.9365 13.6941 25.866 13.7491 25.7895C13.912 25.5583 13.9993 25.2823 13.9991 24.9995C13.9973 24.8277 13.9643 24.6585 13.9027 24.5H21.6C22.0971 24.5 22.5 24.0971 22.5 23.6V12H16C14.8954 12 14 11.1046 14 10V3.5H6.4C5.90294 3.5 5.5 3.90294 5.5 4.4V13.0816C5.3242 13.0189 5.13793 12.9863 4.94907 12.9863C4.60899 12.9863 4.27733 13.0921 4 13.2888V4.4ZM16 10.5H21.9393L15.5 4.06066V10C15.5 10.2761 15.7239 10.5 16 10.5ZM3.17096 20.8285C3.26413 20.922 3.35109 21.021 3.43142 21.1248C3.65015 21.4074 3.8198 21.7259 3.93221 22.0671L4.42975 23.5968C4.47137 23.7147 4.54857 23.8168 4.65071 23.889C4.75284 23.9612 4.87488 24 5 24C5.12512 24 5.24716 23.9612 5.34929 23.889C5.44041 23.8246 5.51168 23.7364 5.55556 23.6344C5.56086 23.622 5.56576 23.6095 5.57025 23.5968L6.06779 22.0671C6.2225 21.602 6.48364 21.1794 6.83045 20.8329C7.17726 20.4863 7.60017 20.2254 8.06559 20.0708L9.59647 19.5736C9.71447 19.532 9.81664 19.4549 9.88891 19.3528C9.96119 19.2508 10 19.1288 10 19.0038C10 18.8788 9.96119 18.7569 9.88891 18.6548C9.81664 18.5527 9.71447 18.4756 9.59647 18.434L9.56586 18.4264L8.03498 17.9292C7.56956 17.7746 7.14664 17.5137 6.79983 17.1671C6.45302 16.8206 6.19189 16.398 6.03717 15.9329L5.53964 14.4032C5.49801 14.2853 5.42081 14.1832 5.31867 14.111C5.21654 14.0388 5.0945 14 4.96938 14C4.84426 14 4.72222 14.0388 4.62009 14.111C4.51795 14.1832 4.44075 14.2853 4.39913 14.4032L3.90159 15.9329L3.88889 15.9708C3.73584 16.4177 3.48414 16.8247 3.15223 17.1615C2.81096 17.5078 2.39416 17.7706 1.93441 17.9292L0.403524 18.4264C0.285532 18.468 0.183357 18.5451 0.111085 18.6472C0.0388119 18.7492 0 18.8712 0 18.9962C0 19.1212 0.0388119 19.2431 0.111085 19.3452C0.183357 19.4473 0.285532 19.5244 0.403524 19.566L1.93441 20.0632C2.40065 20.2185 2.8241 20.4806 3.17096 20.8285ZM11.821 24.3575L12.7395 24.6558L12.7579 24.6604C12.8287 24.6854 12.89 24.7316 12.9333 24.7929C12.9767 24.8541 13 24.9273 13 25.0023C13 25.0773 12.9767 25.1505 12.9333 25.2117C12.89 25.2729 12.8287 25.3192 12.7579 25.3442L11.8394 25.6425C11.5601 25.7352 11.3064 25.8918 11.0983 26.0997C10.8902 26.3077 10.7335 26.5612 10.6407 26.8402L10.3422 27.7581C10.3172 27.8288 10.2709 27.8901 10.2096 27.9334C10.1483 27.9767 10.0751 28 10 28C9.92493 28 9.8517 27.9767 9.79042 27.9334C9.72914 27.8901 9.68282 27.8288 9.65785 27.7581L9.35933 26.8402C9.26711 26.5604 9.1107 26.3059 8.90258 26.0971C8.69446 25.8884 8.44039 25.7311 8.16064 25.6379L7.24212 25.3396C7.17132 25.3146 7.11001 25.2684 7.06665 25.2071C7.02329 25.1459 7 25.0727 7 24.9977C7 24.9227 7.02329 24.8495 7.06665 24.7883C7.11001 24.7271 7.17132 24.6808 7.24212 24.6558L8.16064 24.3575C8.4365 24.2623 8.68658 24.1047 8.89134 23.8969C9.09609 23.6891 9.24998 23.4368 9.34096 23.1598L9.63948 22.2419C9.66445 22.1712 9.71077 22.1099 9.77205 22.0666C9.83333 22.0233 9.90656 22 9.98163 22C10.0567 22 10.1299 22.0233 10.1912 22.0666C10.2525 22.1099 10.2988 22.1712 10.3238 22.2419L10.6223 23.1598C10.7151 23.4388 10.8718 23.6923 11.0799 23.9003C11.288 24.1082 11.5417 24.2648 11.821 24.3575Z" fill="#212121"/>
</svg>
