<svg width="24" height="24" viewBox="0 0 24 24" fill="none" xmlns="http://www.w3.org/2000/svg">
<path d="M6 8.75C6 8.33579 6.33579 8 6.75 8H11.25C11.6642 8 12 8.33579 12 8.75C12 9.16421 11.6642 9.5 11.25 9.5H6.75C6.33579 9.5 6 9.16421 6 8.75ZM6.75 11C6.33579 11 6 11.3358 6 11.75C6 12.1642 6.33579 12.5 6.75 12.5H15.25C15.6642 12.5 16 12.1642 16 11.75C16 11.3358 15.6642 11 15.25 11H6.75ZM6 14.75C6 14.3358 6.33579 14 6.75 14H13.25C13.6642 14 14 14.3358 14 14.75C14 15.1642 13.6642 15.5 13.25 15.5H6.75C6.33579 15.5 6 15.1642 6 14.75ZM2 6.75C2 5.23122 3.23122 4 4.75 4H19.25C20.7688 4 22 5.23122 22 6.75V11.2603C21.5233 11.0582 21.0085 10.9738 20.5 11.0071V6.75C20.5 6.05964 19.9404 5.5 19.25 5.5H4.75C4.05964 5.5 3.5 6.05964 3.5 6.75V17.25C3.5 17.9404 4.05964 18.5 4.75 18.5H11.982C11.7728 18.8306 11.6166 19.1939 11.5209 19.5768L11.4151 20H4.75C3.23122 20 2 18.7688 2 17.25V6.75ZM19.0999 12.6695L13.1974 18.5719C12.8533 18.916 12.6092 19.3472 12.4911 19.8194L12.0334 21.6501C11.8344 22.4462 12.5556 23.1674 13.3517 22.9683L15.1824 22.5106C15.6545 22.3926 16.0857 22.1485 16.4299 21.8043L22.3323 15.9019C23.2249 15.0093 23.2249 13.5621 22.3323 12.6695C21.4397 11.7768 19.9925 11.7768 19.0999 12.6695Z" fill="#242424"/>
</svg>
