<svg width="24" height="24" viewBox="0 0 24 24" fill="none" xmlns="http://www.w3.org/2000/svg">
<path d="M22 6.5C22 9.53757 19.5376 12 16.5 12C13.4624 12 11 9.53757 11 6.5C11 3.46243 13.4624 1 16.5 1C19.5376 1 22 3.46243 22 6.5ZM19.8536 4.14645C19.6583 3.95118 19.3417 3.95118 19.1464 4.14645L15.5 7.79289L13.8536 6.14645C13.6583 5.95118 13.3417 5.95118 13.1464 6.14645C12.9512 6.34171 12.9512 6.65829 13.1464 6.85355L15.1464 8.85355C15.3417 9.04882 15.6583 9.04882 15.8536 8.85355L19.8536 4.85355C20.0488 4.65829 20.0488 4.34171 19.8536 4.14645ZM19.5 12.2678V14H15C14.5858 14 14.25 14.3358 14.25 14.75C14.25 15.9926 13.2426 17 12 17C10.7574 17 9.75 15.9926 9.75 14.75L9.74315 14.6482C9.69349 14.2822 9.3797 14 9 14H4.5V7.25C4.5 6.2835 5.2835 5.5 6.25 5.5H10.0764C10.1572 4.97679 10.3004 4.47417 10.4982 4H6.25C4.45507 4 3 5.45507 3 7.25V18.75C3 20.5449 4.45507 22 6.25 22H17.75C19.5449 22 21 20.5449 21 18.75V11.1904C20.5557 11.6168 20.051 11.9806 19.5 12.2678Z" fill="#212121"/>
</svg>
