<svg width="28" height="28" viewBox="0 0 28 28" fill="none" xmlns="http://www.w3.org/2000/svg">
<path d="M3.78963 2.77272L24.8609 12.8503C25.4837 13.1482 25.7471 13.8945 25.4493 14.5173C25.3261 14.7748 25.1185 14.9825 24.8609 15.1056L3.78963 25.1832C3.16684 25.4811 2.4205 25.2177 2.12265 24.5949C1.99321 24.3242 1.96543 24.0161 2.04436 23.7267L4.70309 13.978L2.04436 4.22929C1.86271 3.56326 2.25539 2.87608 2.92142 2.69444C3.21084 2.6155 3.519 2.64329 3.78963 2.77272ZM3.63523 4.3616L6.058 13.2494L17 13.2504C17.3797 13.2504 17.6935 13.5325 17.7432 13.8986L17.75 14.0004C17.75 14.3801 17.4678 14.6939 17.1018 14.7435L17 14.7504L6.046 14.7494L3.63523 23.5943L23.7422 13.978L3.63523 4.3616Z" fill="#212121"/>
</svg>
