<svg width="16" height="16" viewBox="0 0 16 16" fill="none" xmlns="http://www.w3.org/2000/svg">
<path d="M10 8.5C10.8284 8.5 11.5 9.17157 11.5 10C11.5 11.2452 10.5 12.5 8 12.5C5.5 12.5 4.5 11.2499 4.5 10C4.5 9.17157 5.17157 8.5 6 8.5H10ZM8 3.5C9.10457 3.5 10 4.39543 10 5.5C10 6.60457 9.10457 7.5 8 7.5C6.89543 7.5 6 6.60457 6 5.5C6 4.39543 6.89543 3.5 8 3.5ZM8 1C11.866 1 15 4.13401 15 8C15 11.866 11.866 15 8 15C4.13401 15 1 11.866 1 8C1 4.13401 4.13401 1 8 1ZM8 2C4.68629 2 2 4.68629 2 8C2 11.3137 4.68629 14 8 14C11.3137 14 14 11.3137 14 8C14 4.68629 11.3137 2 8 2Z" fill="#212121"/>
</svg>
