<svg width="16" height="16" viewBox="0 0 16 16" fill="none" xmlns="http://www.w3.org/2000/svg">
<path d="M9 4.5V1H5.5C4.67157 1 4 1.67157 4 2.5V5.05001C4.16156 5.01722 4.32877 5 4.5 5H6.5C7.72423 5 8.74294 5.87996 8.95812 7.04188C10.12 7.25706 11 8.27577 11 9.5V13.5C11 14.0628 10.814 14.5822 10.5002 15H12.5C13.3284 15 14 14.3284 14 13.5V6H10.5C9.67157 6 9 5.32843 9 4.5Z" fill="#212121"/>
<path d="M10 4.5V1.25L13.75 5H10.5C10.2239 5 10 4.77614 10 4.5Z" fill="#242424"/>
<path d="M3 7.5V8H2.5C1.67157 8 1 8.67157 1 9.5V13.5C1 14.3284 1.67157 15 2.5 15H8.5C9.32843 15 10 14.3284 10 13.5V9.5C10 8.67157 9.32843 8 8.5 8H8V7.5C8 6.67157 7.32843 6 6.5 6H4.5C3.67157 6 3 6.67157 3 7.5ZM4.5 7H6.5C6.77614 7 7 7.22386 7 7.5V8H4V7.5C4 7.22386 4.22386 7 4.5 7Z" fill="#242424"/>
</svg>
