<?xml version="1.0" encoding="UTF-8"?>
<svg width="24px" height="24px" viewBox="0 0 24 24" version="1.1" xmlns="http://www.w3.org/2000/svg" xmlns:xlink="http://www.w3.org/1999/xlink">
    <!-- Generator: Sketch 59.1 (86144) - https://sketch.com -->
    <title>ic_fluent_local_language_24_light</title>
    <desc>Created with Sketch.</desc>
    <g id="ðŸ”-Product-Icons" stroke="none" stroke-width="1" fill="none" fill-rule="evenodd">
        <g id="ic_fluent_local_language_24_light" fill="#212121" fill-rule="nonzero">
            <path d="M8.92908686,6.24209553 L8.96943816,6.32787268 L14.4694382,21.3278727 C14.5645015,21.5871362 14.4313909,21.8743749 14.1721273,21.9694382 C13.9416708,22.0539389 13.6891106,21.958154 13.5690652,21.7537362 L13.5305618,21.6721273 L11.999867,17.499998 L4.637867,17.499998 L2.96423835,21.6856953 C2.87307683,21.9135991 2.63303352,22.0374564 2.40074389,21.9901378 L2.31430466,21.9642383 C2.08640088,21.8730768 1.96254356,21.6330335 2.00986218,21.4007439 L2.03576165,21.3143047 L8.03576165,6.31430466 C8.19386541,5.91904526 8.72732194,5.89840043 8.92908686,6.24209553 Z M18.5,2 C18.7454599,2 18.9496081,2.17687479 18.991944,2.410124 L19,2.5 L18.999869,8 L21.5,8 C21.7761424,8 22,8.22385763 22,8.5 C22,8.74545989 21.8231252,8.94960804 21.589876,8.991944 L21.5,9 L18.999869,9 L19,16 C19,16.2761424 18.7761424,16.5 18.5,16.5 C18.2545401,16.5 18.0503919,16.3231252 18.008056,16.089876 L18,16 L18,2.5 C18,2.22385763 18.2238576,2 18.5,2 Z M8.479,7.897 L5.037867,16.499998 L11.633867,16.499998 L8.479,7.897 Z M16.5,2 C16.7454599,2 16.9496081,2.17687479 16.991944,2.410124 L17,2.5 L17,6 C17,8.209139 15.209139,10 13,10 C12.7238576,10 12.5,9.77614237 12.5,9.5 C12.5,9.22385763 12.7238576,9 13,9 C14.5976809,9 15.9036606,7.75108025 15.994907,6.176273 L16,6 L15.999,2.999 L10.5,3 C10.2545401,3 10.0503919,2.82312521 10.008056,2.589876 L10,2.5 C10,2.25454011 10.1768748,2.05039196 10.410124,2.008056 L10.5,2 L16.5,2 Z" id="ðŸŽ¨-Color"></path>
        </g>
    </g>
</svg>