<svg width="20" height="20" viewBox="0 0 20 20" fill="none" xmlns="http://www.w3.org/2000/svg">
<path d="M2 3C2 2.44772 2.44772 2 3 2C3.55228 2 4 2.44772 4 3L17 3C17.5523 3 18 3.44772 18 4C18 4.55229 17.5523 5 17 5L4 5V17.5C4 17.7761 3.77614 18 3.5 18H2.5C2.22386 18 2 17.7761 2 17.5V3ZM5 6.5C5 6.22386 5.22386 6 5.5 6H16.5C16.7761 6 17 6.22386 17 6.5V13.5C17 14.8807 15.8807 16 14.5 16H7.5C6.11929 16 5 14.8807 5 13.5V6.5ZM8 13.5C8 13.7761 8.22386 14 8.5 14H9.5C9.77614 14 10 13.7761 10 13.5V12.5C10 12.2239 10.2239 12 10.5 12H11.5C11.7761 12 12 12.2239 12 12.5V13.5C12 13.7761 12.2239 14 12.5 14H13.5C13.7761 14 14 13.7761 14 13.5V10.9494C14 10.6636 13.8777 10.3914 13.664 10.2016L11.332 8.13076C11.1426 7.96258 10.8574 7.96258 10.668 8.13076L8.336 10.2016C8.12229 10.3914 8 10.6636 8 10.9494V13.5Z" fill="#212121"/>
</svg>
