<svg width="48" height="48" viewBox="0 0 48 48" fill="none" xmlns="http://www.w3.org/2000/svg">
<path d="M16.4971 11.5011C16.4971 7.35835 19.8554 4 23.9982 4C28.1409 4 31.4993 7.35835 31.4993 11.5011C31.4993 15.2179 28.796 18.3033 25.2482 18.8985V22.9999H32.7475C34.8185 22.9999 36.4973 24.6787 36.4973 26.7497V29.1012C40.046 29.6955 42.7502 32.7814 42.7502 36.4989C42.7502 40.6416 39.3919 44 35.2491 44C31.1064 44 27.748 40.6416 27.748 36.4989C27.748 32.7827 30.4505 29.6977 33.9973 29.1018V26.7497C33.9973 26.0594 33.4378 25.4999 32.7475 25.4999H15.249C14.5588 25.4999 13.9993 26.0594 13.9993 26.7497V29.1012C17.5479 29.6955 20.2522 32.7814 20.2522 36.4989C20.2522 40.6416 16.8938 44 12.7511 44C8.60835 44 5.25 40.6416 5.25 36.4989C5.25 32.7827 7.95242 29.6977 11.4993 29.1018V26.7497C11.4993 24.6787 13.1781 22.9999 15.249 22.9999H22.7482V18.8985C19.2005 18.3034 16.4971 15.218 16.4971 11.5011Z" fill="#212121"/>
</svg>
