<svg width="16" height="16" viewBox="0 0 16 16" fill="none" xmlns="http://www.w3.org/2000/svg">
<path d="M1 14.5001C1 14.7762 1.22386 15.0001 1.5 15.0001C1.77614 15.0001 2 14.7762 2 14.5001L2 1.50006C2 1.22392 1.77614 1.00006 1.5 1.00006C1.22386 1.00006 1 1.22392 1 1.50006L1 14.5001ZM8 14.5001C8 14.7762 8.22386 15.0001 8.5 15.0001C8.77614 15.0001 9 14.7762 9 14.5001L9 1.50006C9 1.22392 8.77614 1.00006 8.5 1.00006C8.22386 1.00006 8 1.22392 8 1.50006L8 14.5001ZM4.5 13.0001C3.67157 13.0001 3 12.3285 3 11.5001L3 4.50006C3 3.67163 3.67157 3.00006 4.5 3.00006H5.5C6.32843 3.00006 7 3.67163 7 4.50006L7 11.5001C7 12.3285 6.32843 13.0001 5.5 13.0001H4.5ZM4 11.5001C4 11.7762 4.22386 12.0001 4.5 12.0001H5.5C5.77614 12.0001 6 11.7762 6 11.5001L6 4.50006C6 4.22392 5.77614 4.00006 5.5 4.00006H4.5C4.22386 4.00006 4 4.22392 4 4.50006L4 11.5001ZM10 9.50006C10 10.3285 10.6716 11.0001 11.5 11.0001H12.5C13.3284 11.0001 14 10.3285 14 9.50006L14 6.50006C14 5.67163 13.3284 5.00006 12.5 5.00006H11.5C10.6716 5.00006 10 5.67163 10 6.50006L10 9.50006ZM11.5 10.0001C11.2239 10.0001 11 9.7762 11 9.50006L11 6.50006C11 6.22392 11.2239 6.00006 11.5 6.00006H12.5C12.7761 6.00006 13 6.22392 13 6.50006L13 9.50006C13 9.7762 12.7761 10.0001 12.5 10.0001H11.5Z" fill="#212121"/>
</svg>
