<svg width="16" height="16" viewBox="0 0 16 16" fill="none" xmlns="http://www.w3.org/2000/svg">
<path d="M13 1.5C13 1.22386 12.7761 1 12.5 1C12.2239 1 12 1.22386 12 1.5V3H10.5C10.2239 3 10 3.22386 10 3.5C10 3.77614 10.2239 4 10.5 4H12V5.5C12 5.77614 12.2239 6 12.5 6C12.7761 6 13 5.77614 13 5.5V4H14.5C14.7761 4 15 3.77614 15 3.5C15 3.22386 14.7761 3 14.5 3H13V1.5ZM3.75 2C2.7835 2 2 2.7835 2 3.75V12.25C2 13.2165 2.7835 14 3.75 14H12.25C13.2165 14 14 13.2165 14 12.25V9.25C14 8.2835 13.2165 7.5 12.25 7.5H8.5V3.75C8.5 2.7835 7.7165 2 6.75 2H3.75ZM7.5 8.5V13H3.75C3.33579 13 3 12.6642 3 12.25V8.5H7.5ZM7.5 3.75V7.5H3V3.75C3 3.33579 3.33579 3 3.75 3H6.75C7.16421 3 7.5 3.33579 7.5 3.75ZM12.25 13H8.5V8.5H12.25C12.6642 8.5 13 8.83579 13 9.25V12.25C13 12.6642 12.6642 13 12.25 13Z" fill="#212121"/>
</svg>
