<svg width="24" height="24" viewBox="0 0 24 24" fill="none" xmlns="http://www.w3.org/2000/svg">
<path d="M9.99995 15.7101L10.0001 14.1251C7.95138 13.3251 6.5 11.332 6.5 9C6.5 5.96243 8.96243 3.5 12 3.5C15.0376 3.5 17.5 5.96243 17.5 9C17.5 11.2512 16.1474 13.1866 14.2106 14.0377L14.0009 14.1247L14.001 15.7098C16.892 14.8489 19 12.1706 19 9C19 5.13401 15.866 2 12 2C8.13401 2 5 5.13401 5 9C5 12.0804 6.98973 14.6961 9.75406 15.6319L9.99995 15.7101ZM9.99979 13.0321L10.0001 11.2362C9.38629 10.6869 9 9.88855 9 9C9 7.34315 10.3431 6 12 6C13.6569 6 15 7.34315 15 9C15 9.81976 14.6712 10.5627 14.1383 11.1042L14.0009 11.2353L14.0012 13.0316C15.4823 12.295 16.5 10.7664 16.5 9C16.5 6.51472 14.4853 4.5 12 4.5C9.51472 4.5 7.5 6.51472 7.5 9C7.5 10.69 8.43157 12.1623 9.80921 12.9316L9.99979 13.0321ZM11.3871 21.7903C11.7467 22.0699 12.2533 22.0699 12.6129 21.7903L12.7071 21.7071L15.7071 18.7071L15.7903 18.6129C16.0699 18.2533 16.0699 17.7467 15.7903 17.3871L15.7071 17.2929L15.6129 17.2097C15.2533 16.9301 14.7467 16.9301 14.3871 17.2097L14.2929 17.2929L13 18.585V9C13 8.44772 12.5523 8 12 8C11.4872 8 11.0645 8.38604 11.0067 8.88338L11 9V18.585L9.70711 17.2929L9.6129 17.2097C9.22061 16.9047 8.65338 16.9324 8.29289 17.2929C7.93241 17.6534 7.90468 18.2206 8.2097 18.6129L8.29289 18.7071L11.2929 21.7071L11.3871 21.7903Z" fill="#212121"/>
</svg>
