<svg width="32" height="32" viewBox="0 0 32 32" fill="none" xmlns="http://www.w3.org/2000/svg">
<path d="M12.0717 4.30556C13.7888 1.23195 18.2118 1.23217 19.9291 4.30556L29.4233 21.3036C31.0984 24.3031 28.9302 27.9979 25.4946 27.9979H6.50628C3.07097 27.9976 0.902758 24.3029 2.57756 21.3036L12.0717 4.30556ZM18.183 5.28114C17.2289 3.57374 14.7717 3.57354 13.8178 5.28114L4.32366 22.2792C3.39371 23.9454 4.59806 25.9976 6.50628 25.9979H25.4946C27.4032 25.9979 28.6075 23.9455 27.6772 22.2792L18.183 5.28114ZM16.0004 19.4999C16.8286 19.5001 17.5004 20.1716 17.5004 20.9999C17.5004 21.8282 16.8287 22.4997 16.0004 22.4999C15.172 22.4999 14.5004 21.8283 14.5004 20.9999C14.5005 20.1715 15.172 19.4999 16.0004 19.4999ZM16.0004 8.9999C16.5525 9.00011 17.0004 9.44779 17.0004 9.9999V16.4999C17.0004 17.052 16.5525 17.4997 16.0004 17.4999C15.4481 17.4999 15.0004 17.0522 15.0004 16.4999V9.9999C15.0005 9.44766 15.4482 8.9999 16.0004 8.9999Z" fill="#212121"/>
</svg>
