<svg width="16" height="16" viewBox="0 0 16 16" fill="none" xmlns="http://www.w3.org/2000/svg">
<path d="M5 3.5C5 3.22386 5.22386 3 5.5 3H11.5C11.7761 3 12 3.22386 12 3.5C12 3.77614 11.7761 4 11.5 4H5.5C5.22386 4 5 3.77614 5 3.5ZM1.14645 5.64645C1.34171 5.45118 1.65829 5.45118 1.85355 5.64645L3.35355 7.14645C3.54882 7.34171 3.54882 7.65829 3.35355 7.85355L1.85355 9.35355C1.65829 9.54882 1.34171 9.54882 1.14645 9.35355C0.951184 9.15829 0.951184 8.84171 1.14645 8.64645L2.29289 7.5L1.14645 6.35355C0.951184 6.15829 0.951184 5.84171 1.14645 5.64645ZM5 7.5C5 7.22386 5.22386 7 5.5 7H14.5C14.7761 7 15 7.22386 15 7.5C15 7.77614 14.7761 8 14.5 8H5.5C5.22386 8 5 7.77614 5 7.5ZM5 11.5C5 11.2239 5.22386 11 5.5 11H9.5C9.77614 11 10 11.2239 10 11.5C10 11.7761 9.77614 12 9.5 12H5.5C5.22386 12 5 11.7761 5 11.5Z" fill="#212121"/>
</svg>
