<svg width="24" height="24" viewBox="0 0 24 24" fill="none" xmlns="http://www.w3.org/2000/svg">
<path d="M20.25 5C17.5866 5 14.992 4.05652 12.45 2.15C12.1833 1.95 11.8167 1.95 11.55 2.15C9.00797 4.05652 6.41341 5 3.75 5C3.33579 5 3 5.33579 3 5.75V11C3 16.0012 5.95756 19.6757 11.7251 21.9478C11.9018 22.0174 12.0982 22.0174 12.2749 21.9478C18.0424 19.6757 21 16.0012 21 11V5.75C21 5.33579 20.6642 5 20.25 5ZM16.7568 9.30287L10.7568 14.8029C10.4608 15.0742 10.0036 15.0643 9.71967 14.7803L7.21967 12.2803C6.92678 11.9874 6.92678 11.5126 7.21967 11.2197C7.51256 10.9268 7.98744 10.9268 8.28033 11.2197L10.2726 13.2119L15.7432 8.19714C16.0485 7.91724 16.523 7.93787 16.8029 8.24321C17.0828 8.54855 17.0621 9.02297 16.7568 9.30287Z" fill="#212121"/>
</svg>
