<svg width="20" height="20" viewBox="0 0 20 20" fill="none" xmlns="http://www.w3.org/2000/svg">
<path d="M7.07246 9.4442C7.03244 9.71742 7.22149 9.97136 7.49472 10.0114C7.76795 10.0514 8.02188 9.86234 8.0619 9.58911L8.14784 9.00239H9.38717L9.32246 9.4442C9.28244 9.71742 9.47149 9.97136 9.74472 10.0114C10.0179 10.0514 10.2719 9.86234 10.3119 9.58911L10.3978 9.00239H11C11.2761 9.00239 11.5 8.77854 11.5 8.50239C11.5 8.22625 11.2761 8.00239 11 8.00239H10.5443L10.764 6.50239H11.5C11.7761 6.50239 12 6.27854 12 6.00239C12 5.72625 11.7761 5.50239 11.5 5.50239H10.9105L11.0467 4.57253C11.0867 4.2993 10.8976 4.04536 10.6244 4.00534C10.3512 3.96533 10.0972 4.15438 10.0572 4.42761L9.89979 5.50239H8.66046L8.79666 4.57253C8.83667 4.2993 8.64762 4.04536 8.37439 4.00534C8.10117 3.96533 7.84723 4.15438 7.80721 4.42761L7.64979 5.50239H7C6.72386 5.50239 6.5 5.72625 6.5 6.00239C6.5 6.27854 6.72386 6.50239 7 6.50239H7.50333L7.28363 8.00239H6.5C6.22386 8.00239 6 8.22625 6 8.50239C6 8.77854 6.22386 9.00239 6.5 9.00239H7.13717L7.07246 9.4442ZM9.75333 6.50239L9.53363 8.00239H8.2943L8.514 6.50239H9.75333Z" fill="#212121"/>
<path d="M6 2C4.89543 2 4 2.89543 4 4V16C4 17.1046 4.89543 18 6 18H14C15.1046 18 16 17.1046 16 16L16 4C16 2.89543 15.1046 2 14 2H6ZM6 3L14 3C14.5523 3 15 3.44771 15 4L15 16C15 16.5523 14.5523 17 14 17H6C5.44772 17 5 16.5523 5 16V4C5 3.44772 5.44772 3 6 3Z" fill="#212121"/>
</svg>
