<svg width="20" height="20" viewBox="0 0 20 20" fill="none" xmlns="http://www.w3.org/2000/svg">
<path d="M5 6C5 5.44772 5.44772 5 6 5H8C8.55228 5 9 5.44772 9 6V8C9 8.55228 8.55228 9 8 9H6C5.44772 9 5 8.55228 5 8V6ZM8 6H6V8H8V6ZM5 12C5 11.4477 5.44772 11 6 11H8C8.55228 11 9 11.4477 9 12V14C9 14.5523 8.55228 15 8 15H6C5.44772 15 5 14.5523 5 14V12ZM8 12H6V14H8V12ZM12 5C11.4477 5 11 5.44772 11 6V8C11 8.55228 11.4477 9 12 9H14C14.5523 9 15 8.55228 15 8V6C15 5.44772 14.5523 5 14 5H12ZM12 6H14V8H12V6ZM11 12C11 11.4477 11.4477 11 12 11H14C14.5523 11 15 11.4477 15 12V14C15 14.5523 14.5523 15 14 15H12C11.4477 15 11 14.5523 11 14V12ZM14 12H12V14H14V12ZM5 2C3.34315 2 2 3.34315 2 5V15C2 16.6569 3.34315 18 5 18H15C16.6569 18 18 16.6569 18 15V5C18 3.34315 16.6569 2 15 2H5ZM3 5C3 3.89543 3.89543 3 5 3H15C16.1046 3 17 3.89543 17 5V15C17 16.1046 16.1046 17 15 17H5C3.89543 17 3 16.1046 3 15V5Z" fill="#212121"/>
</svg>
