<svg width="32" height="32" viewBox="0 0 32 32" fill="none" xmlns="http://www.w3.org/2000/svg">
<path d="M9.5 18C10.3284 18 11 17.3284 11 16.5C11 15.6716 10.3284 15 9.5 15C8.67157 15 8 15.6716 8 16.5C8 17.3284 8.67157 18 9.5 18ZM17.5 16.5C17.5 17.3284 16.8284 18 16 18C15.1716 18 14.5 17.3284 14.5 16.5C14.5 15.6716 15.1716 15 16 15C16.8284 15 17.5 15.6716 17.5 16.5ZM22.5 18C23.3284 18 24 17.3284 24 16.5C24 15.6716 23.3284 15 22.5 15C21.6716 15 21 15.6716 21 16.5C21 17.3284 21.6716 18 22.5 18ZM11 22.5C11 23.3284 10.3284 24 9.5 24C8.67157 24 8 23.3284 8 22.5C8 21.6716 8.67157 21 9.5 21C10.3284 21 11 21.6716 11 22.5ZM16 24C16.8284 24 17.5 23.3284 17.5 22.5C17.5 21.6716 16.8284 21 16 21C15.1716 21 14.5 21.6716 14.5 22.5C14.5 23.3284 15.1716 24 16 24ZM29 24.5V7.5C29 5.01472 26.9853 3 24.5 3H7.5C5.01472 3 3 5.01472 3 7.5V24.5C3 26.9853 5.01472 29 7.5 29H24.5C26.9853 29 29 26.9853 29 24.5ZM24.5 4C26.433 4 28 5.567 28 7.5V10H4V7.5C4 5.567 5.567 4 7.5 4H24.5ZM4 24.5V11H28V24.5C28 26.433 26.433 28 24.5 28H7.5C5.567 28 4 26.433 4 24.5Z" fill="#212121"/>
</svg>
