<svg width="20" height="20" viewBox="0 0 20 20" fill="none" xmlns="http://www.w3.org/2000/svg">
<path d="M2.5 2C2.77614 2 3 2.22386 3 2.5V15.5C3 16.3284 3.67157 17 4.5 17H17.5C17.7761 17 18 17.2239 18 17.5C18 17.7761 17.7761 18 17.5 18H4.5C3.11929 18 2 16.8807 2 15.5V2.5C2 2.22386 2.22386 2 2.5 2ZM12 5.5C12 5.22386 12.2239 5 12.5 5H16.5C16.7761 5 17 5.22386 17 5.5V9.5C17 9.77614 16.7761 10 16.5 10C16.2239 10 16 9.77614 16 9.5V6.70708L11.3535 11.3536C11.2598 11.4473 11.1326 11.5 11 11.5C10.8674 11.5 10.7402 11.4473 10.6464 11.3536L9 9.70711L5.85355 12.8536C5.65829 13.0488 5.34171 13.0488 5.14645 12.8536C4.95118 12.6583 4.95118 12.3417 5.14645 12.1464L8.64645 8.64645C8.74022 8.55268 8.86739 8.5 9 8.5C9.13261 8.5 9.25979 8.55268 9.35356 8.64645L11 10.2929L15.2929 6H12.5C12.2239 6 12 5.77614 12 5.5Z" fill="#212121"/>
</svg>
