<svg width="28" height="28" viewBox="0 0 28 28" fill="none" xmlns="http://www.w3.org/2000/svg">
<path d="M6.75 3C4.67893 3 3 4.67893 3 6.75V21.25C3 23.3211 4.67893 25 6.75 25H14.4995C14.1527 24.5384 13.858 24.0355 13.6241 23.5H6.75C5.50736 23.5 4.5 22.4926 4.5 21.25V6.75C4.5 5.50736 5.50736 4.5 6.75 4.5H21.25C22.4926 4.5 23.5 5.50736 23.5 6.75V13.6241C24.0355 13.858 24.5384 14.1527 25 14.4995V6.75C25 4.67893 23.3211 3 21.25 3H6.75ZM13.0661 19.5C13.1352 18.9814 13.2573 18.4795 13.4268 18H8.75C8.33579 18 8 18.3358 8 18.75C8 19.1642 8.33579 19.5 8.75 19.5H13.0661ZM8.75 13C8.33579 13 8 13.3358 8 13.75C8 14.1642 8.33579 14.5 8.75 14.5H15.25C15.6642 14.5 16 14.1642 16 13.75C16 13.3358 15.6642 13 15.25 13H8.75ZM8 8.75C8 8.33579 8.33579 8 8.75 8H19.25C19.6642 8 20 8.33579 20 8.75C20 9.16421 19.6642 9.5 19.25 9.5H8.75C8.33579 9.5 8 9.16421 8 8.75ZM27 20.5C27 24.0899 24.0899 27 20.5 27C16.9101 27 14 24.0899 14 20.5C14 16.9101 16.9101 14 20.5 14C24.0899 14 27 16.9101 27 20.5ZM23.6464 17.6464L19 22.2929L17.3536 20.6464C17.1583 20.4512 16.8417 20.4512 16.6464 20.6464C16.4512 20.8417 16.4512 21.1583 16.6464 21.3536L18.6464 23.3536C18.8417 23.5488 19.1583 23.5488 19.3536 23.3536L24.3536 18.3536C24.5488 18.1583 24.5488 17.8417 24.3536 17.6464C24.1583 17.4512 23.8417 17.4512 23.6464 17.6464Z" fill="#212121"/>
</svg>
