<svg width="48" height="48" viewBox="0 0 48 48" fill="none" xmlns="http://www.w3.org/2000/svg">
<path d="M12.25 6C8.79822 6 6 8.79822 6 12.25V35.75C6 39.2018 8.79822 42 12.25 42H24.0436C23.544 41.2196 23.1255 40.3823 22.7999 39.5H12.25C10.1789 39.5 8.5 37.8211 8.5 35.75V12.25C8.5 10.1789 10.1789 8.5 12.25 8.5H35.75C37.8211 8.5 39.5 10.1789 39.5 12.25V22.7999C40.3823 23.1255 41.2196 23.544 42 24.0436V12.25C42 8.79822 39.2018 6 35.75 6H12.25ZM22.1529 33C22.2864 32.1356 22.505 31.2993 22.7999 30.5H15.25C14.5596 30.5 14 31.0596 14 31.75C14 32.4404 14.5596 33 15.25 33H22.1529ZM15.25 22.5C14.5596 22.5 14 23.0596 14 23.75C14 24.4404 14.5596 25 15.25 25H25.75C26.4404 25 27 24.4404 27 23.75C27 23.0596 26.4404 22.5 25.75 22.5H15.25ZM15.25 14.5C14.5596 14.5 14 15.0596 14 15.75C14 16.4404 14.5596 17 15.25 17H32.75C33.4404 17 34 16.4404 34 15.75C34 15.0596 33.4404 14.5 32.75 14.5H15.25ZM46 35C46 41.0751 41.0751 46 35 46C28.9249 46 24 41.0751 24 35C24 28.9249 28.9249 24 35 24C41.0751 24 46 28.9249 46 35ZM41.7071 30.2929C41.3166 29.9024 40.6834 29.9024 40.2929 30.2929L33 37.5858L29.7071 34.2929C29.3166 33.9024 28.6834 33.9024 28.2929 34.2929C27.9024 34.6834 27.9024 35.3166 28.2929 35.7071L32.2929 39.7071C32.6834 40.0976 33.3166 40.0976 33.7071 39.7071L41.7071 31.7071C42.0976 31.3166 42.0976 30.6834 41.7071 30.2929Z" fill="#212121"/>
</svg>
