<svg width="32" height="32" viewBox="0 0 32 32" fill="none" xmlns="http://www.w3.org/2000/svg">
<path d="M7.5 3C5.01472 3 3 5.01472 3 7.5V24.5C3 26.9853 5.01472 29 7.5 29H16.3755C15.1997 27.4791 14.5 25.5712 14.5 23.5C14.5 23.3322 14.5046 23.1655 14.5137 23H10C9.44772 23 9 22.5523 9 22C9 21.4477 9.44772 21 10 21H14.8518C15.3054 19.4281 16.1759 18.033 17.336 16.9422C17.231 16.9796 17.1179 17 17 17H10C9.44772 17 9 16.5523 9 16C9 15.4477 9.44772 15 10 15H17C17.5523 15 18 15.4477 18 16C18 16.1682 17.9585 16.3268 17.8851 16.4659C19.4243 15.2356 21.3763 14.5 23.5 14.5C25.5712 14.5 27.4791 15.1997 29 16.3755V7.5C29 5.01472 26.9853 3 24.5 3H7.5ZM10 9H22C22.5523 9 23 9.44772 23 10C23 10.5523 22.5523 11 22 11H10C9.44772 11 9 10.5523 9 10C9 9.44772 9.44772 9 10 9ZM23.5 16C27.6421 16 31 19.3579 31 23.5C31 27.6421 27.6421 31 23.5 31C19.3579 31 16 27.6421 16 23.5C16 19.3579 19.3579 16 23.5 16ZM28.0303 20.7197C27.7374 20.4268 27.2626 20.4268 26.9697 20.7197L22.25 25.4393L20.2803 23.4697C19.9874 23.1768 19.5126 23.1768 19.2197 23.4697C18.9268 23.7626 18.9268 24.2374 19.2197 24.5303L21.7197 27.0303C22.0126 27.3232 22.4874 27.3232 22.7803 27.0303L28.0303 21.7803C28.3232 21.4874 28.3232 21.0126 28.0303 20.7197Z" fill="#212121"/>
</svg>
