<?xml version="1.0" encoding="UTF-8"?>
<svg width="20px" height="20px" viewBox="0 0 20 20" version="1.1" xmlns="http://www.w3.org/2000/svg" xmlns:xlink="http://www.w3.org/1999/xlink">
    <!-- Generator: Sketch 64 (93537) - https://sketch.com -->
    <title>ic_fluent_desktop_20_regular</title>
    <desc>Created with Sketch.</desc>
    <g id="ðŸ”-System-Icons" stroke="none" stroke-width="1" fill="none" fill-rule="evenodd">
        <g id="ic_fluent_desktop_20_regular" fill="#212121">
            <path d="M4,2 C2.89543,2 2,2.89543 2,4 L2,13 C2,14.1046 2.89543,15 4,15 L7,15 L7,17 L5.5,17 C5.22386,17 5,17.2239 5,17.5 C5,17.7761 5.22386,18 5.5,18 L14.5,18 C14.7761,18 15,17.7761 15,17.5 C15,17.2239 14.7761,17 14.5,17 L13,17 L13,15 L16,15 C17.1046,15 18,14.1046 18,13 L18,4 C18,2.89543 17.1046,2 16,2 L4,2 Z M12,15 L8,15 L8,17 L12,17 L12,15 Z M3,4 C3,3.44772 3.44772,3 4,3 L16,3 C16.5523,3 17,3.44772 17,4 L17,13 C17,13.5523 16.5523,14 16,14 L4,14 C3.44772,14 3,13.5523 3,13 L3,4 Z" id="ðŸŽ¨-Color"></path>
        </g>
    </g>
</svg>