<svg width="32" height="32" viewBox="0 0 32 32" fill="none" xmlns="http://www.w3.org/2000/svg">
<path d="M5.25 3C3.45507 3 2 4.45507 2 6.25V21.75C2 23.5449 3.45507 25 5.25 25H12.01V27.0013L9.01196 27.0013C8.45967 27.0013 8.01196 27.4488 8.01196 28.0007C8.01197 28.5526 8.45969 29 9.01197 29L23.0043 28.9999C23.5565 28.9999 24.0042 28.5525 24.0042 28.0005C24.0042 27.4486 23.5565 27.0012 23.0042 27.0012L20.0059 27.0012V25H26.75C28.5449 25 30 23.5449 30 21.75V6.25C30 4.45507 28.5449 3 26.75 3H5.25ZM18.0059 25V27.0013L14.01 27.0013V25H18.0059ZM4 6.25C4 5.55964 4.55964 5 5.25 5H26.75C27.4404 5 28 5.55964 28 6.25V21.75C28 22.4404 27.4404 23 26.75 23H5.25C4.55964 23 4 22.4404 4 21.75V6.25Z" fill="#212121"/>
</svg>
