<svg width="32" height="32" viewBox="0 0 32 32" fill="none" xmlns="http://www.w3.org/2000/svg">
<path d="M8 4C5.79086 4 4 5.78967 4 7.99734V19.9839C4 22.1916 5.79086 23.9813 8 23.9813H12.01V26.0013L9.01196 26.0013C8.45968 26.0013 8.01197 26.4488 8.01197 27.0007C8.01198 27.5526 8.45969 28 9.01198 28L23.0043 27.9999C23.5565 27.9999 24.0043 27.5525 24.0043 27.0005C24.0042 26.4486 23.5565 26.0012 23.0042 26.0012L20.0059 26.0012V23.9813H24C26.2091 23.9813 28 22.1916 28 19.9839V7.99734C28 5.78967 26.2091 4 24 4H8ZM18.0059 23.9813V26.0013L14.01 26.0013V23.9813H18.0059ZM6 7.99734C6 6.8935 6.89543 5.99867 8 5.99867H24C25.1046 5.99867 26 6.8935 26 7.99734V19.9839C26 21.0878 25.1046 21.9826 24 21.9826H8C6.89543 21.9826 6 21.0878 6 19.9839V7.99734Z" fill="#212121"/>
</svg>
