<svg width="24" height="24" viewBox="0 0 24 24" fill="none" xmlns="http://www.w3.org/2000/svg">
<path d="M12 4.5C7.30558 4.5 3.5 8.30558 3.5 13C3.5 15.3447 4.44841 17.4665 5.98432 19.0051C6.27696 19.2983 6.27655 19.7732 5.9834 20.0658C5.69025 20.3584 5.21538 20.358 4.92274 20.0649C3.11755 18.2565 2 15.7581 2 13C2 7.47715 6.47715 3 12 3C17.5228 3 22 7.47715 22 13C22 14.2312 21.7773 15.4106 21.3702 16.5H20.5504C20.6114 16.4434 20.6706 16.3848 20.7277 16.3243C21.3612 15.6535 21.751 14.7462 21.751 13.75C21.751 12.7534 21.3609 11.8458 20.7271 11.175C20.5625 11.0009 20.3812 10.8423 20.1857 10.702C19.1833 7.124 15.8981 4.5 12 4.5ZM14.2503 13.75C14.2503 13.3223 14.3223 12.9101 14.455 12.5256C14.2334 11.3717 13.2185 10.5 12 10.5C10.6193 10.5 9.5 11.6193 9.5 13C9.5 14.3807 10.6193 15.5 12 15.5C13.0005 15.5 13.8637 14.9123 14.2632 14.0633C14.2546 13.9598 14.2503 13.8553 14.2503 13.75ZM11 13C11 12.4477 11.4477 12 12 12C12.5523 12 13 12.4477 13 13C13 13.5523 12.5523 14 12 14C11.4477 14 11 13.5523 11 13ZM16.2816 10.4164C16.7324 10.1834 17.2367 10.0391 17.7714 10.0069C16.6886 7.92325 14.5105 6.5 12 6.5C8.41015 6.5 5.5 9.41015 5.5 13C5.5 14.7958 6.22927 16.4228 7.40601 17.5984C7.69905 17.8912 8.17392 17.8909 8.46667 17.5979C8.75943 17.3049 8.7592 16.83 8.46617 16.5372C7.55952 15.6315 7 14.3818 7 13C7 10.2386 9.23858 8 12 8C13.816 8 15.4058 8.96811 16.2816 10.4164ZM20.0002 11.8618C19.6073 11.4459 19.086 11.1526 18.4997 11.0452C18.3378 11.0155 18.171 11 18.0006 11C16.9318 11 16.0054 11.6096 15.5502 12.5C15.3584 12.875 15.2503 13.2999 15.2503 13.75C15.2503 13.8343 15.2541 13.9177 15.2615 14C15.3878 15.4016 16.5659 16.5 18.0006 16.5C18.1712 16.5 18.3381 16.4845 18.5001 16.4548C19.0865 16.3472 19.6078 16.0537 20.0007 15.6377C20.4658 15.1452 20.751 14.4809 20.751 13.75C20.751 13.0189 20.4656 12.3544 20.0002 11.8618ZM14.5002 17.5L14.4858 17.5001C14.4471 17.5004 14.4087 17.5023 14.3707 17.5055C13.6028 17.5712 13 18.2152 13 19V19.5C13 20.0095 13.1242 20.5229 13.3627 21.004C13.6421 21.5677 14.0782 22.0872 14.6551 22.5046C15.491 23.1095 16.6225 23.5 18.0006 23.5C21.1415 23.5 23.0013 21.4714 23.0013 19.5V19C23.0013 18.1716 22.3296 17.5 21.5011 17.5H14.5002Z" fill="#212121"/>
</svg>
