<svg width="24" height="24" viewBox="0 0 24 24" fill="none" xmlns="http://www.w3.org/2000/svg">
<path d="M12.8094 13.0002L4 12.999C2.896 12.999 2 13.895 2 14.999V16.5L2.00545 16.7296C2.1647 20.044 5.77787 21 8.5 21C9.53057 21 10.6887 20.863 11.739 20.513C11.267 19.6124 11 18.5874 11 17.5C11 15.7536 11.6887 14.1681 12.8094 13.0002ZM13 6.5C13 4.015 10.985 2 8.5 2C6.015 2 4 4.015 4 6.5C4 8.985 6.015 11 8.5 11C10.985 11 13 8.985 13 6.5ZM21 7.5C21 5.567 19.433 4 17.5 4C15.567 4 14 5.567 14 7.5C14 9.433 15.567 11 17.5 11C19.433 11 21 9.433 21 7.5ZM23 17.5C23 20.5376 20.5376 23 17.5 23C14.4624 23 12 20.5376 12 17.5C12 14.4624 14.4624 12 17.5 12C20.5376 12 23 14.4624 23 17.5ZM20.8536 15.1464C20.6583 14.9512 20.3417 14.9512 20.1464 15.1464L16.5 18.7929L14.8536 17.1464C14.6583 16.9512 14.3417 16.9512 14.1464 17.1464C13.9512 17.3417 13.9512 17.6583 14.1464 17.8536L16.1464 19.8536C16.3417 20.0488 16.6583 20.0488 16.8536 19.8536L20.8536 15.8536C21.0488 15.6583 21.0488 15.3417 20.8536 15.1464Z" fill="#212121"/>
</svg>
