<svg width="16" height="16" viewBox="0 0 16 16" fill="none" xmlns="http://www.w3.org/2000/svg">
<path d="M1.63 2.28919C1.74927 2.26352 1.87306 2.25 2 2.25C2.24983 2.25 2.48743 2.30235 2.70243 2.39668C2.88502 2.15568 3.17433 2 3.5 2H8.5C9.05228 2 9.5 2.44772 9.5 3V5.09069C9.82428 5.03112 10.1585 5 10.5 5V3C10.5 1.89543 9.60457 1 8.5 1H3.5C2.64577 1 1.91663 1.53554 1.63 2.28919ZM5.02242 10C5.05337 9.65659 5.11588 9.32228 5.20703 9H3.5C2.94772 9 2.5 8.55228 2.5 8V5.67753C2.34157 5.72468 2.17374 5.75 2 5.75C1.82626 5.75 1.65843 5.72468 1.5 5.67753V8C1.5 9.10457 2.39543 10 3.5 10H5.02242ZM4.5 4C4.22386 4 4 4.22386 4 4.5C4 4.77614 4.22386 5 4.5 5H7.5C7.77614 5 8 4.77614 8 4.5C8 4.22386 7.77614 4 7.5 4H4.5ZM4 6.5C4 6.22386 4.22386 6 4.5 6H6C6.27614 6 6.5 6.22386 6.5 6.5C6.5 6.77614 6.27614 7 6 7H4.5C4.22386 7 4 6.77614 4 6.5ZM2 4.75C2.41421 4.75 2.75 4.41421 2.75 4C2.75 3.58579 2.41421 3.25 2 3.25C1.58579 3.25 1.25 3.58579 1.25 4C1.25 4.41421 1.58579 4.75 2 4.75ZM10.5 15C12.9853 15 15 12.9853 15 10.5C15 8.01472 12.9853 6 10.5 6C8.01472 6 6 8.01472 6 10.5C6 12.9853 8.01472 15 10.5 15ZM12.5 11H8.5C8.22386 11 8 10.7761 8 10.5C8 10.2239 8.22386 10 8.5 10H12.5C12.7761 10 13 10.2239 13 10.5C13 10.7761 12.7761 11 12.5 11Z" fill="#212121"/>
</svg>
