<svg width="32" height="32" viewBox="0 0 32 32" fill="none" xmlns="http://www.w3.org/2000/svg">
<path d="M21.8293 4H23.5C25.433 4 27 5.567 27 7.5V15.8544C26.7827 15.5653 26.4989 15.319 26.1567 15.1408L25.9083 15.0115C23.0653 13.5312 19.6418 15.4136 19.3495 18.5855C18.2842 18.8718 17.5 19.8443 17.5 21C17.5 22.0287 18.1214 22.9123 19.0093 23.296L18.7249 27.245C17.596 26.9018 16.3475 27.3991 15.7828 28.4836C15.5304 28.9683 15.4525 29.4977 15.5264 30H8.5C6.567 30 5 28.433 5 26.5V7.5C5 5.567 6.567 4 8.5 4H10.1707C10.5825 2.83481 11.6938 2 13 2H19C20.3062 2 21.4175 2.83481 21.8293 4ZM19 4H13C12.4477 4 12 4.44772 12 5C12 5.55228 12.4477 6 13 6H19C19.5523 6 20 5.55228 20 5C20 4.44772 19.5523 4 19 4ZM25.2155 16.3423C23.3015 15.3457 20.9929 16.6353 20.8378 18.7877L20.7505 20.0003H20C19.4477 20.0003 19 20.4481 19 21.0003C19 21.5526 19.4477 22.0003 20 22.0003H20.6064L20.1696 28.0657C20.1179 28.7831 19.3484 29.213 18.7104 28.8808L18.462 28.7515C17.9722 28.4964 17.3683 28.6868 17.1132 29.1767C16.8582 29.6665 17.0485 30.2704 17.5384 30.5254L17.7867 30.6548C19.7008 31.6513 22.0094 30.3617 22.1644 28.2093L22.6116 22.0003H24C24.5522 22.0003 25 21.5526 25 21.0003C25 20.4481 24.5522 20.0003 24 20.0003H22.7557L22.8327 18.9314C22.8843 18.2139 23.6539 17.7841 24.2919 18.1162L24.5402 18.2455C25.0301 18.5006 25.634 18.3102 25.889 17.8204C26.1441 17.3305 25.9537 16.7266 25.4639 16.4716L25.2155 16.3423ZM30.7033 24.7071C31.0939 24.3166 31.0939 23.6834 30.7033 23.2929C30.3128 22.9024 29.6796 22.9024 29.2891 23.2929L27.6775 24.9045L27.0281 23.8607C26.4707 22.9648 25.2712 22.7281 24.4153 23.3451C23.9673 23.6681 23.8659 24.293 24.1889 24.7411C24.474 25.1366 24.9946 25.262 25.421 25.0636L26.2254 26.3566L24.2933 28.2887C23.9028 28.6792 23.9028 29.3124 24.2933 29.7029C24.6838 30.0935 25.317 30.0935 25.7075 29.7029L27.3102 28.1003L27.9602 29.1451C28.5264 30.0552 29.7535 30.2796 30.6051 29.6287C31.044 29.2934 31.1278 28.6658 30.7925 28.227C30.4988 27.8427 29.981 27.7306 29.5622 27.9339L28.7623 26.6482L30.7033 24.7071Z" fill="#212121"/>
</svg>
