<svg width="16" height="16" viewBox="0 0 16 16" fill="none" xmlns="http://www.w3.org/2000/svg">
<path d="M2.21373 4.05924C2.3828 3.812 2.73414 3.79395 2.94615 4.00553C3.12586 4.18534 3.14147 4.47053 3.00084 4.68229C2.35139 5.65877 1.99999 6.82715 1.99987 7.99966C1.99991 9.17908 2.34141 10.2788 2.92955 11.2067C3.00993 11.3335 3.02964 11.49 2.98229 11.6325L2.28991 13.7076L4.36607 13.0162C4.51591 12.9838 4.6557 12.9828 4.79185 13.069C5.71986 13.6575 6.8202 13.9996 7.99984 13.9996C9.22601 13.9996 10.3663 13.6297 11.3162 12.9977C11.5277 12.8571 11.8122 12.8732 11.992 13.0524C12.2039 13.2644 12.1866 13.6156 11.9393 13.7848C10.8172 14.5508 9.46093 14.9996 7.99984 14.9996C6.76298 14.9996 5.52855 14.6652 4.46177 14.0387L1.65807 14.9742C1.47857 15.0339 1.28018 14.9869 1.14635 14.8532C1.01273 14.7193 0.965496 14.5209 1.02526 14.3414L1.95885 11.5358C1.35009 10.4981 0.999871 9.28934 0.999871 7.99966C0.99994 6.53848 1.44794 5.18138 2.21373 4.05924ZM11.536 11.5358C9.58344 13.4883 6.41734 13.4881 4.4647 11.5358C2.51209 9.58317 2.51209 6.41713 4.4647 4.46452L11.536 11.5358ZM14.3973 8.74966C14.6973 8.74981 14.9329 9.01054 14.8777 9.30532C14.696 10.2669 14.3168 11.159 13.785 11.9381C13.6159 12.1858 13.2646 12.2039 13.0526 11.9918C12.8734 11.812 12.8574 11.5276 12.9979 11.3161C13.4194 10.6819 13.7242 9.96284 13.8797 9.19009C13.9302 8.94049 14.1427 8.74992 14.3973 8.74966ZM13.0526 4.00553C13.2645 3.79382 13.6158 3.81205 13.785 4.05924C14.317 4.83851 14.6959 5.73117 14.8777 6.69302C14.9335 6.98815 14.6976 7.24951 14.3973 7.24966C14.1426 7.2494 13.9301 7.05887 13.8797 6.80923C13.7241 6.03625 13.4196 5.31657 12.9979 4.68229C12.8574 4.47049 12.8729 4.18531 13.0526 4.00553ZM6.69418 1.12175C6.98881 1.06633 7.24952 1.30147 7.24985 1.60124C7.24985 1.85594 7.05907 2.06848 6.80942 2.11882C6.03643 2.27436 5.31681 2.57902 4.68247 3.00065C4.47068 3.14123 4.1865 3.1247 4.0067 2.94499C3.79511 2.73297 3.81219 2.38261 4.05943 2.21355C4.83886 1.6817 5.73221 1.30336 6.69418 1.12175ZM9.3055 1.12175C10.2669 1.30334 11.1592 1.68203 11.9383 2.21355C12.1859 2.38259 12.2038 2.7329 11.992 2.94499C11.8122 3.12478 11.528 3.14126 11.3162 3.00065C10.6821 2.5792 9.9629 2.27437 9.19027 2.11882C8.94069 2.06839 8.74984 1.85589 8.74984 1.60124C8.75017 1.30152 9.01094 1.0664 9.3055 1.12175Z" fill="#212121"/>
</svg>
