<svg width="48" height="48" viewBox="0 0 48 48" fill="none" xmlns="http://www.w3.org/2000/svg">
<path d="M15.2917 7.30546C14.2507 6.26437 12.5743 6.22795 11.489 7.22283L5.39177 12.8119C4.23763 13.8699 4.19838 15.6766 5.30546 16.7836L11.2159 22.6941C11.7317 23.2099 12.4311 23.4996 13.1605 23.4996H16.4362C17.6847 23.4996 18.87 24.0486 19.6776 25.0008L32.7044 40.3617C34.269 41.89 36.7764 41.8788 38.3272 40.328C39.878 38.7772 39.8892 36.2698 38.3608 34.7052L23.0048 21.6825C22.0526 20.875 21.5036 19.6897 21.5036 18.4412V14.6564C21.5036 13.9271 21.2139 13.2276 20.6982 12.7119L15.2917 7.30546ZM9.79965 5.37995C11.8716 3.48062 15.072 3.55016 17.0595 5.5377L22.466 10.9441C23.4505 11.9287 24.0036 13.2641 24.0036 14.6564V18.4412C24.0036 18.7935 24.1098 19.1336 24.3028 19.4198L25.3605 18.4573C25.7421 18.1101 25.9913 17.5428 26.0522 16.834C26.2139 14.9492 26.8273 12.9449 27.6436 11.1674C28.4573 9.39529 29.5154 7.75589 30.6353 6.63604C34.15 3.12133 39.8485 3.12132 43.3632 6.63604C46.8779 10.1508 46.8779 15.8492 43.3632 19.364C42.2434 20.4837 40.6042 21.5417 38.8323 22.3555C37.0549 23.1717 35.0508 23.7851 33.1661 23.947C32.4575 24.0079 31.8903 24.2571 31.5431 24.6386L31.0259 25.2069L40.0587 32.8671L40.095 32.9034C42.6334 35.4418 42.6334 39.5574 40.095 42.0958C37.5565 44.6342 33.441 44.6342 30.9026 42.0958L30.8663 42.0595L23.5457 33.4273L15.4297 42.3463C15.4165 42.3608 15.403 42.375 15.3891 42.3889C13.2412 44.5368 9.7588 44.5368 7.61091 42.3889C5.46303 40.241 5.46303 36.7586 7.61091 34.6107C7.62479 34.5968 7.639 34.5833 7.65352 34.5701L16.9777 26.0855C16.8047 26.0292 16.6221 25.9996 16.4362 25.9996H13.1605C11.7681 25.9996 10.4327 25.4465 9.44818 24.4619L3.5377 18.5514C1.42416 16.4379 1.49911 12.9888 3.70246 10.969L9.79965 5.37995ZM29.1181 23.589L29.6941 22.956C30.5874 21.9743 31.8244 21.553 32.9522 21.4562C34.4809 21.3248 36.202 20.8123 37.7889 20.0836C39.3813 19.3523 40.7454 18.4462 41.5954 17.5962C44.1338 15.0578 44.1338 10.9422 41.5954 8.40381C39.057 5.8654 34.9414 5.8654 32.403 8.40381C31.553 9.25387 30.6468 10.6182 29.9155 12.2107C29.1867 13.7977 28.6742 15.519 28.543 17.0478C28.4462 18.1756 28.025 19.4129 27.0431 20.3064L26.1769 21.0946L29.1181 23.589ZM18.7885 27.8177L9.3597 36.3976C8.20714 37.5707 8.21347 39.4559 9.37868 40.6211C10.5439 41.7864 12.4292 41.7927 13.6022 40.6401L21.9152 31.5046L18.7885 27.8177ZM33.5 13.75C33.5 13.0596 32.9404 12.5 32.25 12.5C31.5596 12.5 31 13.0596 31 13.75C31 16.6495 33.3505 19 36.25 19C36.9404 19 37.5 18.4404 37.5 17.75C37.5 17.0596 36.9404 16.5 36.25 16.5C34.7312 16.5 33.5 15.2688 33.5 13.75ZM8.36612 14.3661C8.85427 13.878 9.64573 13.878 10.1339 14.3661L14.1339 18.3661C14.622 18.8543 14.622 19.6457 14.1339 20.1339C13.6457 20.622 12.8543 20.622 12.3661 20.1339L8.36612 16.1339C7.87796 15.6457 7.87796 14.8543 8.36612 14.3661ZM14.1339 10.3661C13.6457 9.87796 12.8543 9.87796 12.3661 10.3661C11.878 10.8543 11.878 11.6457 12.3661 12.1339L16.3661 16.1339C16.8543 16.622 17.6457 16.622 18.1339 16.1339C18.622 15.6457 18.622 14.8543 18.1339 14.3661L14.1339 10.3661ZM30.6353 6.63604L31.5191 7.51993L30.6353 6.63604Z" fill="#212121"/>
</svg>
