<svg width="24" height="24" viewBox="0 0 24 24" fill="none" xmlns="http://www.w3.org/2000/svg">
<path d="M16 12.75C16.4142 12.75 16.75 12.4142 16.75 12C16.75 11.5858 16.4142 11.25 16 11.25C15.5858 11.25 15.25 11.5858 15.25 12C15.25 12.4142 15.5858 12.75 16 12.75Z" fill="#212121"/>
<path d="M8 10.5C8 9.67157 8.67157 9 9.5 9H17.5C18.3284 9 19 9.67157 19 10.5V15.5C19 16.3284 18.3284 17 17.5 17H9.5C8.67157 17 8 16.3284 8 15.5V10.5ZM9.5 10.5V14.8942L11.5815 12.6392C12.0764 12.103 12.9235 12.103 13.4185 12.6392L16.0511 15.4912L16.0416 15.5H17.5V10.5H9.5ZM12.5 13.8556L10.9821 15.5H14.0178L12.5 13.8556Z" fill="#212121"/>
<path d="M5.75 4C3.67893 4 2 5.67893 2 7.75V16.25C2 18.3211 3.67893 20 5.75 20H18.25C20.3211 20 22 18.3211 22 16.25V7.75C22 5.67893 20.3211 4 18.25 4H5.75ZM3.5 7.75C3.5 6.50736 4.50736 5.5 5.75 5.5H18.25C19.4926 5.5 20.5 6.50736 20.5 7.75V16.25C20.5 17.4926 19.4926 18.5 18.25 18.5H5.75C4.50736 18.5 3.5 17.4926 3.5 16.25V7.75Z" fill="#212121"/>
</svg>
