<svg width="32" height="32" viewBox="0 0 32 32" fill="none" xmlns="http://www.w3.org/2000/svg">
<path d="M6.5 3C4.01472 3 2 5.01472 2 7.5V22.5C2 24.9853 4.01472 27 6.5 27H14.7289C14.6282 26.6794 14.5589 26.3448 14.5247 26H6.5C4.567 26 3 24.433 3 22.5V7.5C3 5.567 4.567 4 6.5 4H25.5C27.433 4 29 5.567 29 7.5V15.7289C29.3517 15.8394 29.6866 15.9876 30 16.1689V7.5C30 5.01472 27.9853 3 25.5 3H6.5ZM16 20.5C16 18.567 17.567 17 19.5 17H27.5C29.433 17 31 18.567 31 20.5V25.5C31 27.433 29.433 29 27.5 29H19.5C17.567 29 16 27.433 16 25.5V20.5Z" fill="#212121"/>
</svg>
