<svg width="32" height="32" viewBox="0 0 32 32" fill="none" xmlns="http://www.w3.org/2000/svg">
<path d="M18.1081 2.77645C16.8934 1.74118 15.1066 1.74118 13.8919 2.77645L4.14191 11.0859C3.41738 11.7034 3 12.6075 3 13.5595V26.4998C3 27.8805 4.11929 28.9998 5.5 28.9998H26.5C27.8807 28.9998 29 27.8805 29 26.4998V13.5595C29 12.6075 28.5826 11.7034 27.8581 11.0859L18.1081 2.77645ZM17 8V10C17 10.5523 16.5523 11 16 11C15.4477 11 15 10.5523 15 10V8C15 7.44772 15.4477 7 16 7C16.5523 7 17 7.44772 17 8ZM16 14C16.5523 14 17 14.4477 17 15V17C17 17.5523 16.5523 18 16 18C15.4477 18 15 17.5523 15 17V15C15 14.4477 15.4477 14 16 14ZM17 22V24C17 24.5523 16.5523 25 16 25C15.4477 25 15 24.5523 15 24V22C15 21.4477 15.4477 21 16 21C16.5523 21 17 21.4477 17 22Z" fill="#212121"/>
</svg>
