<svg width="28" height="28" viewBox="0 0 28 28" fill="none" xmlns="http://www.w3.org/2000/svg">
<path d="M2.75 3C2.33579 3 2 3.33579 2 3.75C2 4.16421 2.33579 4.5 2.75 4.5H25.25C25.6642 4.5 26 4.16421 26 3.75C26 3.33579 25.6642 3 25.25 3L2.75 3ZM5 8.75C5 7.23122 6.23122 6 7.75 6H10.25C11.7688 6 13 7.23122 13 8.75L13 22.25C13 23.7688 11.7688 25 10.25 25H7.75C6.23122 25 5 23.7688 5 22.25L5 8.75ZM7.75 7.5C7.05964 7.5 6.5 8.05964 6.5 8.75L6.5 22.25C6.5 22.9404 7.05964 23.5 7.75 23.5H10.25C10.9404 23.5 11.5 22.9404 11.5 22.25L11.5 8.75C11.5 8.05964 10.9404 7.5 10.25 7.5L7.75 7.5ZM15 8.75C15 7.23122 16.2312 6 17.75 6H20.25C21.7688 6 23 7.23122 23 8.75V16.75C23 18.2688 21.7688 19.5 20.25 19.5H17.75C16.2312 19.5 15 18.2688 15 16.75L15 8.75ZM17.75 7.5C17.0596 7.5 16.5 8.05964 16.5 8.75L16.5 16.75C16.5 17.4404 17.0596 18 17.75 18H20.25C20.9404 18 21.5 17.4404 21.5 16.75V8.75C21.5 8.05964 20.9404 7.5 20.25 7.5L17.75 7.5Z" fill="#212121"/>
</svg>
