<svg width="28" height="28" viewBox="0 0 28 28" fill="none" xmlns="http://www.w3.org/2000/svg">
<path d="M5.75 2C3.67893 2 2 3.67893 2 5.75V20.25C2 22.3211 3.67893 24 5.75 24H13.865C13.6153 23.5276 13.4146 23.0254 13.2696 22.5H5.75C4.50736 22.5 3.5 21.4926 3.5 20.25V5.75C3.5 4.50736 4.50736 3.5 5.75 3.5H20.25C21.4926 3.5 22.5 4.50736 22.5 5.75V13.2696C23.0254 13.4146 23.5276 13.6153 24 13.865V5.75C24 3.67893 22.3211 2 20.25 2H5.75ZM13.1532 18.9843C13.2798 18.3675 13.4821 17.7783 13.75 17.2269V13.75C13.75 13.3358 13.4142 13 13 13C12.5858 13 12.25 13.3358 12.25 13.75V18.25C12.25 18.6642 12.5858 19 13 19C13.0525 19 13.1038 18.9946 13.1532 18.9843ZM17.5 13.6241C17.9763 13.416 18.4783 13.2559 19 13.15V7.75C19 7.33579 18.6642 7 18.25 7C17.8358 7 17.5 7.33579 17.5 7.75V13.6241ZM8.5 10.75C8.5 10.3358 8.16421 10 7.75 10C7.33579 10 7 10.3358 7 10.75V18.25C7 18.6642 7.33579 19 7.75 19C8.16421 19 8.5 18.6642 8.5 18.25V10.75ZM27 20.5C27 24.0899 24.0899 27 20.5 27C16.9101 27 14 24.0899 14 20.5C14 16.9101 16.9101 14 20.5 14C24.0899 14 27 16.9101 27 20.5ZM24.3536 17.6464C24.1583 17.4512 23.8417 17.4512 23.6464 17.6464L19 22.2929L17.3536 20.6464C17.1583 20.4512 16.8417 20.4512 16.6464 20.6464C16.4512 20.8417 16.4512 21.1583 16.6464 21.3536L18.6464 23.3536C18.8417 23.5488 19.1583 23.5488 19.3536 23.3536L24.3536 18.3536C24.5488 18.1583 24.5488 17.8417 24.3536 17.6464Z" fill="#212121"/>
</svg>
