<svg width="24" height="24" viewBox="0 0 24 24" fill="none" xmlns="http://www.w3.org/2000/svg">
<path d="M5 4.25C5 3.00736 6.00736 2 7.25 2H15.75C16.9926 2 18 3.00736 18 4.25V12H21.5V15.25C21.5 17.0449 20.0449 18.5 18.25 18.5H12.9236C12.9739 18.174 13 17.8401 13 17.5001C13 15.9915 12.4861 14.603 11.6238 13.5H14.25C14.6642 13.5 15 13.1642 15 12.75C15 12.3358 14.6642 12 14.25 12H9.96559C8.96247 11.3666 7.77404 11.0001 6.5 11.0001C5.98373 11.0001 5.48152 11.0603 5 11.174V4.25ZM18 17H18.25C19.2165 17 20 16.2165 20 15.25V13.5H18V17ZM8.75 5C8.33579 5 8 5.33579 8 5.75C8 6.16421 8.33579 6.5 8.75 6.5H14.25C14.6642 6.5 15 6.16421 15 5.75C15 5.33579 14.6642 5 14.25 5H8.75ZM8.75 8.5C8.33579 8.5 8 8.83579 8 9.25C8 9.66421 8.33579 10 8.75 10H14.25C14.6642 10 15 9.66421 15 9.25C15 8.83579 14.6642 8.5 14.25 8.5H8.75ZM12 17.5C12 14.4624 9.53757 12 6.5 12C3.46243 12 1 14.4624 1 17.5C1 20.5376 3.46243 23 6.5 23C9.53757 23 12 20.5376 12 17.5ZM7.00065 18L7.00111 20.5035C7.00111 20.7797 6.77725 21.0035 6.50111 21.0035C6.22497 21.0035 6.00111 20.7797 6.00111 20.5035L6.00065 18H3.4956C3.21973 18 2.99609 17.7762 2.99609 17.5C2.99609 17.2239 3.21973 17 3.4956 17H6.00046L6 14.4993C6 14.2231 6.22386 13.9993 6.5 13.9993C6.77614 13.9993 7 14.2231 7 14.4993L7.00046 17H9.49659C9.77246 17 9.99609 17.2239 9.99609 17.5C9.99609 17.7762 9.77246 18 9.49659 18H7.00065Z" fill="#212121"/>
</svg>
