<?xml version="1.0" encoding="UTF-8"?>
<svg width="24px" height="24px" viewBox="0 0 24 24" version="1.1" xmlns="http://www.w3.org/2000/svg" xmlns:xlink="http://www.w3.org/1999/xlink">
    <!-- Generator: Sketch 58 (84663) - https://sketch.com -->
    <title>ic_bookmark_24_outlined</title>
    <desc>Created with Sketch.</desc>
    <g id="ðŸ”-Product-Icons" stroke="none" stroke-width="1" fill="none" fill-rule="evenodd">
        <g id="ic_bookmark_24_outlined" fill="#212121">
            <path d="M21.3578224,18.3089924 C21.7147765,18.805131 21.3602206,19.4970063 20.7490171,19.4970063 L5.75309304,19.4970063 C3.9581676,19.4970063 2.50309304,18.0419317 2.50309304,16.2470063 L2.50309304,8.74861627 C2.50309304,6.95369084 3.9581676,5.49861627 5.75309304,5.49861627 L20.7490171,5.49861627 C21.3602206,5.49861627 21.7147765,6.19049158 21.3578224,6.68663014 L17.176883,12.4978113 L21.3578224,18.3089924 Z M5.75309304,6.99861627 C4.78659472,6.99861627 4.00309304,7.78211796 4.00309304,8.74861627 L4.00309304,16.2470063 C4.00309304,17.2135046 4.78659472,17.9970063 5.75309304,17.9970063 L19.2854779,17.9970063 L15.6441369,12.9358252 C15.4558773,12.6741589 15.4558773,12.3214637 15.6441369,12.0597974 L19.2854779,6.99861627 L5.75309304,6.99861627 Z" id="ðŸŽ¨-Color" transform="translate(12.001719, 12.497811) rotate(-270.000000) translate(-12.001719, -12.497811) "></path>
        </g>
    </g>
</svg>