<svg width="32" height="32" viewBox="0 0 32 32" fill="none" xmlns="http://www.w3.org/2000/svg">
<path d="M3 7.5C3 5.01472 5.01472 3 7.5 3H24.5C26.9853 3 29 5.01472 29 7.5V24.5C29 26.9853 26.9853 29 24.5 29H7.5C5.01472 29 3 26.9853 3 24.5V7.5ZM12 10.5C12 9.67157 11.3284 9 10.5 9C9.67157 9 9 9.67157 9 10.5C9 11.3284 9.67157 12 10.5 12C11.3284 12 12 11.3284 12 10.5ZM12 16C12 15.1716 11.3284 14.5 10.5 14.5C9.67157 14.5 9 15.1716 9 16C9 16.8284 9.67157 17.5 10.5 17.5C11.3284 17.5 12 16.8284 12 16ZM10.5 23C11.3284 23 12 22.3284 12 21.5C12 20.6716 11.3284 20 10.5 20C9.67157 20 9 20.6716 9 21.5C9 22.3284 9.67157 23 10.5 23ZM14 10.5C14 11.0523 14.4477 11.5 15 11.5H22C22.5523 11.5 23 11.0523 23 10.5C23 9.94772 22.5523 9.5 22 9.5H15C14.4477 9.5 14 9.94772 14 10.5ZM15 15C14.4477 15 14 15.4477 14 16C14 16.5523 14.4477 17 15 17H22C22.5523 17 23 16.5523 23 16C23 15.4477 22.5523 15 22 15H15ZM14 21.5C14 22.0523 14.4477 22.5 15 22.5H22C22.5523 22.5 23 22.0523 23 21.5C23 20.9477 22.5523 20.5 22 20.5H15C14.4477 20.5 14 20.9477 14 21.5Z" fill="#212121"/>
</svg>
