<svg width="28" height="28" viewBox="0 0 28 28" fill="none" xmlns="http://www.w3.org/2000/svg">
<path d="M3 6.75C3 4.67893 4.67893 3 6.75 3H9.5V9.5L3 9.5V6.75ZM3 11V17H9.5V11L3 11ZM3 18.5V21.25C3 23.3211 4.67893 25 6.75 25H9.5V18.5H3ZM11 25H13.1661L13.5219 23.5768C13.6839 22.9288 14.0189 22.3371 14.4912 21.8648L17 19.356V18.5L11 18.5V25ZM25 11V13.0121C24.0675 12.932 23.1073 13.2487 22.3937 13.9624L19.356 17H18.5V11L25 11ZM25 9.5V6.75C25 4.67893 23.3211 3 21.25 3H18.5V9.5L25 9.5ZM17 3H11V9.5H17V3ZM17 11V17L11 17V11H17ZM23.0999 14.6695L15.1974 22.5719C14.8533 22.916 14.6092 23.3472 14.4911 23.8194L14.0334 25.6501C13.8344 26.4462 14.5556 27.1674 15.3517 26.9683L17.1824 26.5106C17.6545 26.3926 18.0857 26.1485 18.4299 25.8043L26.3323 17.9019C27.2249 17.0093 27.2249 15.5621 26.3323 14.6695C25.4397 13.7768 23.9925 13.7768 23.0999 14.6695Z" fill="#212121"/>
</svg>
