<svg width="32" height="32" viewBox="0 0 32 32" fill="none" xmlns="http://www.w3.org/2000/svg">
<path d="M23.9997 5.00017L23.4683 4.34474C22.1357 2.70118 19.687 2.53714 18.1471 3.98825C16.6778 5.37282 16.6168 7.68894 18.0112 9.14895L22.9694 14.3406L23.2527 14.6593C23.3421 14.7599 23.4467 14.8378 23.5597 14.8932C23.9172 15.0859 24.3748 15.0272 24.6712 14.7172L29.9915 9.15369C31.3894 7.69178 31.3279 5.37062 29.8544 3.98485C28.3129 2.53512 25.8644 2.70036 24.5317 4.34408L23.9997 5.00017ZM25.2919 16.704C25.688 17.5584 26.0249 18.4419 26.2993 19.3486L26.7877 20.9628C27.2506 22.4926 26.9543 24.1515 25.9903 25.4264L24.0702 27.966C22.4612 30.0941 19.5514 30.5108 17.2869 29.4214C14.0627 27.8703 10.2512 26.7186 7.09905 26.5822C6.41819 26.5528 5.77925 26.224 5.38528 25.7024C4.96656 25.1481 4.82472 24.3502 5.27256 23.6145C6.138 22.1927 7.50166 21.5432 8.62621 21.2469L2.43934 15.06C1.85355 14.4743 1.85355 13.5245 2.43934 12.9387C3.02513 12.3529 3.97487 12.3529 4.56066 12.9387L8.66445 17.0425C8.907 17.2851 9.30026 17.285 9.54278 17.0425C9.78527 16.7999 9.78525 16.4067 9.54274 16.1642L3.43934 10.0608C2.85355 9.47505 2.85355 8.52531 3.43934 7.93952C4.02513 7.35373 4.97487 7.35373 5.56066 7.93952L11.5383 13.9171C11.85 14.2288 12.3554 14.2288 12.6671 13.917C12.9786 13.6053 12.9786 13.1001 12.6669 12.7884L7.43934 7.56084C6.85355 6.97505 6.85355 6.02531 7.43934 5.43952C8.02513 4.85373 8.97487 4.85373 9.56066 5.43952L14.1977 10.0766C14.8352 10.714 15.8687 10.7139 16.5061 10.0763C16.5401 10.1169 16.5749 10.1571 16.6103 10.197L21.7579 15.988C22.6753 17.0202 24.1273 17.2588 25.2919 16.704ZM16.196 21.9799C17.338 21.7519 18.2839 21.7691 19.0771 22.0169C19.8552 22.26 20.5625 22.7484 21.2017 23.5996C21.5333 24.0413 22.1602 24.1304 22.6018 23.7988C23.0434 23.4672 23.1326 22.8403 22.801 22.3987C21.939 21.2509 20.8958 20.4898 19.6736 20.1079C18.4665 19.7308 17.1623 19.7475 15.8044 20.0186C15.2628 20.1267 14.9114 20.6534 15.0195 21.195C15.1277 21.7366 15.6544 22.088 16.196 21.9799ZM15.7985 9.00018C15.1499 7.70564 15.0422 6.21244 15.4738 4.85261L14.5607 3.93952C13.9749 3.35373 13.0251 3.35373 12.4393 3.93952C11.8536 4.52531 11.8536 5.47505 12.4393 6.06084L15.3787 9.00018H15.7985Z" fill="#212121"/>
</svg>
