<svg width="32" height="32" viewBox="0 0 32 32" fill="none" xmlns="http://www.w3.org/2000/svg">
<path d="M23.4683 4.34474L23.9997 5.00017L24.5317 4.34408C25.8644 2.70036 28.3129 2.53512 29.8544 3.98485C31.3279 5.37062 31.3894 7.69178 29.9915 9.15369L24.6712 14.7172C24.3054 15.0997 23.6943 15.0995 23.3287 14.7167L18.0112 9.14895C16.6168 7.68894 16.6778 5.37282 18.1471 3.98825C19.687 2.53714 22.1357 2.70118 23.4683 4.34474ZM15.4191 5.03593L15.2109 4.824C14.1324 3.72564 12.3642 3.7203 11.279 4.81212C11.0624 5.03005 10.8896 5.27503 10.7606 5.53613C9.72027 5.00327 8.41311 5.17236 7.54208 6.04339C7.31417 6.27129 7.13432 6.52906 7.00253 6.80409C6.11967 6.38542 5.04505 6.48405 4.24298 7.1257C3.05007 8.08003 2.92349 9.84849 3.96833 10.963L4.40177 11.4253C4.18347 11.5453 3.97813 11.6979 3.79282 11.8832C2.76752 12.9085 2.73646 14.561 3.7225 15.6241L8.8809 21.1856C7.71425 21.4488 6.2048 22.0845 5.27296 23.6153C4.82512 24.351 4.96696 25.1489 5.38567 25.7033C5.77965 26.2249 6.41859 26.5536 7.09945 26.5831C10.2516 26.7194 14.0631 27.8711 17.2873 29.4222C19.5518 30.5116 22.4616 30.0949 24.0706 27.9668L25.9907 25.4273C26.9547 24.1523 27.251 22.4934 26.7881 20.9636L25.4711 16.6111C24.8616 16.954 24.1567 17.0672 23.4842 16.9506L23.4908 16.9722L24.8738 21.5429C25.1516 22.4607 24.9738 23.4561 24.3954 24.2211L22.4753 26.7606C21.5314 28.009 19.7043 28.3656 18.1543 27.6199C14.7702 25.9919 10.6888 24.7365 7.1859 24.5849C7.13651 24.5828 7.08907 24.5694 7.04925 24.5489C7.59669 23.7319 8.47416 23.3252 9.33543 23.1333C9.77617 23.0351 10.1818 23.001 10.4775 22.9919C10.6242 22.9874 10.7408 22.9891 10.8175 22.9918C10.8501 22.9929 10.8826 22.9944 10.9151 22.9965L10.9166 22.9967L10.9177 22.9968C11.3282 23.0308 11.7179 22.8096 11.8988 22.4392C12.0803 22.0679 12.0146 21.6232 11.7335 21.3201L5.18886 14.264C4.93408 13.9893 4.9421 13.5623 5.20703 13.2974C5.43871 13.0657 5.79158 13.032 6.05856 13.1926L10.2701 17.6849C10.6479 18.0878 11.2807 18.1082 11.6836 17.7305C11.7115 17.7043 11.7376 17.6769 11.7619 17.6484C12.087 17.2675 12.082 16.695 11.7328 16.3193L7.675 11.954C7.58473 11.8569 7.48905 11.768 7.38884 11.6873L5.42741 9.59511C5.18026 9.33149 5.2102 8.91317 5.49237 8.68744C5.73893 8.49019 6.09437 8.50988 6.31763 8.73314L12.2926 14.7081C12.6199 15.0354 13.1177 15.0884 13.5002 14.867C13.5743 14.8242 13.6442 14.771 13.7076 14.7076C14.0981 14.317 14.098 13.6839 13.7074 13.2934L8.95635 8.54331C8.6565 8.24353 8.65647 7.75742 8.95629 7.4576C9.25609 7.15781 9.74215 7.15781 10.0419 7.4576L11.1259 8.5416C11.177 8.60207 11.2311 8.66086 11.2882 8.71778L15.2931 12.7092L15.31 12.7257L16.292 13.7077C16.6825 14.0982 17.3157 14.0982 17.7062 13.7077C18.0967 13.3171 18.0967 12.684 17.7062 12.2935L12.6193 7.20651C12.4044 6.90878 12.4303 6.49089 12.6975 6.22203C12.9974 5.92035 13.4859 5.92183 13.7839 6.22531L15.3736 7.8441C15.1476 6.92117 15.163 5.95209 15.4191 5.03593ZM16.196 21.9799C17.338 21.7519 18.2839 21.7691 19.0771 22.0169C19.8552 22.26 20.5625 22.7484 21.2017 23.5996C21.5333 24.0413 22.1602 24.1304 22.6018 23.7988C23.0434 23.4672 23.1326 22.8403 22.801 22.3987C21.939 21.2509 20.8958 20.4898 19.6736 20.1079C18.4665 19.7308 17.1623 19.7475 15.8044 20.0186C15.2628 20.1267 14.9114 20.6534 15.0195 21.195C15.1277 21.7366 15.6544 22.088 16.196 21.9799Z" fill="#212121"/>
</svg>
