<svg width="24" height="24" viewBox="0 0 24 24" fill="none" xmlns="http://www.w3.org/2000/svg">
<path d="M8.31677 3.25881C8.1117 3.02219 7.78123 2.93787 7.48787 3.0473C7.19451 3.15674 7 3.4369 7 3.75V10.3063C6.62595 9.5429 6.23619 8.95151 5.86172 8.49383C5.3898 7.91703 4.9468 7.55853 4.60072 7.33918C4.4282 7.22984 4.28138 7.1561 4.16918 7.10741C4.11312 7.08308 4.06585 7.06507 4.02848 7.05202C4.0098 7.04549 3.9936 7.04021 3.98003 7.036L3.96166 7.03048L3.95399 7.02828L3.95053 7.02731L3.9489 7.02686C3.94676 7.02627 3.94734 7.02643 3.94734 7.02643C3.72182 6.96493 3.48052 7.01209 3.29475 7.15397C3.10899 7.29586 3 7.51625 3 7.75V17.75C3 19.5449 4.45507 21 6.25 21H17.75C19.5449 21 21 19.5449 21 17.75V7.75C21 7.51625 20.891 7.29586 20.7052 7.15397C20.5195 7.01209 20.2782 6.96493 20.0527 7.02643C20.0527 7.02643 20.0533 7.02626 20.0511 7.02686L20.0495 7.02731L20.046 7.02828L20.0383 7.03048L20.02 7.036C20.0064 7.04021 19.9902 7.04549 19.9715 7.05202C19.9341 7.06507 19.8869 7.08308 19.8308 7.10741C19.7186 7.1561 19.5718 7.22984 19.3993 7.33918C19.0532 7.55853 18.6102 7.91703 18.1383 8.49383C17.7638 8.95151 17.374 9.5429 17 10.3063V3.75C17 3.4369 16.8055 3.15674 16.5121 3.0473C16.2188 2.93787 15.8883 3.02219 15.6832 3.25881L15.6817 3.26055L15.679 3.26367L15.6702 3.274L15.639 3.31086C15.6124 3.34253 15.5744 3.38833 15.5262 3.44757C15.43 3.56602 15.2934 3.73839 15.1272 3.95928C14.7951 4.40075 14.3436 5.03779 13.8604 5.82714C13.2347 6.84903 12.548 8.13873 12 9.59954C11.452 8.13873 10.7653 6.84903 10.1396 5.82714C9.65636 5.03779 9.20489 4.40075 8.87278 3.95928C8.7066 3.73839 8.56998 3.56602 8.47376 3.44757C8.42565 3.38833 8.38761 3.34253 8.361 3.31086L8.32981 3.274L8.32096 3.26367L8.31827 3.26055L8.31677 3.25881Z" fill="#212121"/>
</svg>
