<svg width="20" height="20" viewBox="0 0 20 20" fill="none" xmlns="http://www.w3.org/2000/svg">
<path d="M7.41701 3.0068C7.52202 2.98913 7.63107 3.00537 7.72755 3.05465C7.85608 3.12037 7.95033 3.23883 7.98537 3.37887C8.12714 3.9456 8.73549 4.99996 10 4.99997C11.2646 4.99997 11.8729 3.94561 12.0147 3.37887C12.0497 3.23883 12.1439 3.12037 12.2725 3.05465C12.401 2.989 12.5516 2.98251 12.6856 3.0361L17.3125 4.88668C17.7485 5.06137 18.004 5.51614 17.9268 5.97946L17.5625 8.16403C17.4822 8.64622 17.065 8.99997 16.5762 8.99997H15V16.5C15 16.7761 14.7762 17 14.5 17H5.50001C5.22388 17 5.00001 16.7761 5.00001 16.5V8.99997H3.42384C2.935 8.99996 2.51787 8.64621 2.43751 8.16403L2.07325 5.97946C1.99607 5.51614 2.25154 5.06137 2.68751 4.88668L7.31447 3.0361L7.41701 3.0068Z" fill="#212121"/>
</svg>
