<?xml version="1.0" encoding="UTF-8"?>
<svg width="16px" height="16px" viewBox="0 0 16 16" version="1.1" xmlns="http://www.w3.org/2000/svg" xmlns:xlink="http://www.w3.org/1999/xlink">
    <!-- Generator: Sketch 59.1 (86144) - https://sketch.com -->
    <title>ic_fluent_repeat_all_off_16_regular</title>
    <desc>Created with Sketch.</desc>
    <g id="ðŸ”-Product-Icons" stroke="none" stroke-width="1" fill="none" fill-rule="evenodd">
        <g id="ic_fluent_repeat_all_off_16_regular" fill="#212121" fill-rule="nonzero">
            <path d="M1.64644661,13.6464466 L13.6464466,1.64644661 C13.8417088,1.45118446 14.1582912,1.45118446 14.3535534,1.64644661 C14.5271197,1.82001296 14.5464049,2.08943736 14.4114088,2.2843055 L14.3535534,2.35355339 L12.5816996,4.12578308 C13.4664908,5.17109624 14,6.52324425 14,8 C14,8.10008596 13.997545,8.19987497 13.9926539,8.29930322 L14.5606602,7.73223305 C14.7559223,7.5369709 15.0725048,7.5369709 15.267767,7.73223305 C15.4630291,7.92749519 15.4630291,8.24407768 15.267767,8.43933983 L13.8535534,9.85355339 C13.6582912,10.0488155 13.3417088,10.0488155 13.1464466,9.85355339 L11.732233,8.43933983 C11.5369709,8.24407768 11.5369709,7.92749519 11.732233,7.73223305 C11.9274952,7.5369709 12.2440777,7.5369709 12.4393398,7.73223305 L12.9920507,8.28459566 C12.9973421,8.19014381 13,8.09525445 13,8 C13,6.79948953 12.5769052,5.69779814 11.8716923,4.83590253 L4.83532445,11.8707554 C5.69736874,12.5767403 6.79925557,13 8,13 C9.29348982,13 10.5084125,12.5074492 11.4303825,11.6376673 C11.6312468,11.4481728 11.9476951,11.45739 12.1371895,11.6582543 C12.3266839,11.8591186 12.3174668,12.1755669 12.1166025,12.3650613 C11.0108404,13.4082318 9.55118871,14 8,14 C6.52325362,14 5.17111339,13.4664976 4.12580297,12.5817165 L2.35355339,14.3535534 C2.15829124,14.5488155 1.84170876,14.5488155 1.64644661,14.3535534 C1.47288026,14.179987 1.45359511,13.9105626 1.58859116,13.7156945 L1.64644661,13.6464466 L13.6464466,1.64644661 L1.64644661,13.6464466 Z M2.7843055,6.58859116 L2.85355339,6.64644661 L4.26776695,8.06066017 C4.4630291,8.25592232 4.4630291,8.57250481 4.26776695,8.76776695 C4.0942006,8.9413333 3.8247762,8.96061846 3.62990806,8.8256224 L3.56066017,8.76776695 L3.00378644,8.211 C3.03675457,8.97952619 3.24236863,9.70283779 3.58273802,10.3431652 L2.84820006,11.077327 C2.342277,10.2321737 2.03842676,9.25215662 2.00340386,8.2040302 L1.43933983,8.76776695 C1.24407768,8.9630291 0.927495193,8.9630291 0.732233047,8.76776695 C0.558666695,8.5942006 0.539381545,8.3247762 0.674377596,8.12990806 L0.732233047,8.06066017 L2.14644661,6.64644661 C2.32001296,6.47288026 2.58943736,6.45359511 2.7843055,6.58859116 Z M8,2 C9.12512155,2 10.1779118,2.30968732 11.0777798,2.84847119 L10.3439149,3.58230744 C9.64480655,3.21060596 8.8469981,3 8,3 C6.44761018,3 5.01347043,3.71140589 4.07057582,4.90776361 C3.89964433,5.12464385 3.58526081,5.16189267 3.36838058,4.99096118 C3.15150034,4.82002969 3.11425152,4.50564617 3.28518301,4.28876593 C4.4157248,2.85431888 6.13796618,2 8,2 Z" id="ðŸŽ¨-Color"></path>
        </g>
    </g>
</svg>