<svg width="24" height="24" viewBox="0 0 24 24" fill="none" xmlns="http://www.w3.org/2000/svg">
<path d="M15.2495 12.9999C16.216 12.9999 16.9995 13.7834 16.9995 14.7499V19.2531C16.9995 20.2196 16.216 21.0031 15.2495 21.0031H3.74951C2.78301 21.0031 1.99951 20.2196 1.99951 19.2531V14.7499C1.99951 13.7834 2.78301 12.9999 3.74951 12.9999H15.2495ZM21 14.8954L20.9995 20.2499C20.9995 20.6641 20.6637 20.9999 20.2495 20.9999C19.8698 20.9999 19.556 20.7177 19.5064 20.3516L19.4995 20.2499L19.4994 14.9061C19.7329 14.9645 19.9772 14.9954 20.2288 14.9954C20.4954 14.9954 20.7539 14.9606 21 14.8954ZM20.2498 10.0918C21.3036 10.0918 22.1578 10.9461 22.1578 11.9999C22.1578 13.0537 21.3036 13.9079 20.2498 13.9079C19.196 13.9079 18.3417 13.0537 18.3417 11.9999C18.3417 10.9461 19.196 10.0918 20.2498 10.0918ZM15.2451 2.99658C16.2116 2.99658 16.9951 3.78008 16.9951 4.74658V9.24985C16.9951 10.2164 16.2116 10.9999 15.2451 10.9999H3.74512C2.77862 10.9999 1.99512 10.2164 1.99512 9.24985V4.74658C1.99512 3.82841 2.70223 3.07539 3.60159 3.00238L3.74512 2.99658H15.2451ZM20.2501 2.99985C20.6298 2.99985 20.9436 3.28201 20.9933 3.64808L21.0001 3.74985L21 9.0955C20.7539 9.03022 20.4954 8.99543 20.2288 8.99543C19.9772 8.99543 19.7329 9.0264 19.4994 9.08473L19.5001 3.74985C19.5001 3.33564 19.8359 2.99985 20.2501 2.99985Z" fill="#212121"/>
</svg>
