<svg width="32" height="32" viewBox="0 0 32 32" fill="none" xmlns="http://www.w3.org/2000/svg">
<path d="M2 19C2 22.3137 4.68629 25 8 25H24C27.3137 25 30 22.3137 30 19C30 15.6863 27.3137 13 24 13C23.9794 13 23.9587 13.0001 23.9381 13.0003C23.4462 9.05385 20.0797 6 16 6C11.9203 6 8.55381 9.05385 8.06185 13.0003C8.04126 13.0001 8.02064 13 8 13C4.68629 13 2 15.6863 2 19Z" fill="url(#paint0_linear_72095_9816)"/>
<path d="M14 19C14 22.3137 11.3137 25 8 25C4.68629 25 2 22.3137 2 19C2 15.6863 4.68629 13 8 13C11.3137 13 14 15.6863 14 19Z" fill="url(#paint1_linear_72095_9816)" fill-opacity="0.3"/>
<path d="M15.9999 22C20.4182 22 23.9999 18.4183 23.9999 14C23.9999 9.58172 20.4182 6 15.9999 6C11.9202 6 8.55373 9.05385 8.06177 13.0003C11.347 13.0335 13.9999 15.7069 13.9999 19C13.9999 19.9217 13.7921 20.7948 13.4207 21.5751C14.23 21.8506 15.0975 22 15.9999 22Z" fill="url(#paint2_linear_72095_9816)" fill-opacity="0.3"/>
<path d="M15.9999 22C20.4182 22 23.9999 18.4183 23.9999 14C23.9999 9.58172 20.4182 6 15.9999 6C11.9202 6 8.55373 9.05385 8.06177 13.0003C11.347 13.0335 13.9999 15.7069 13.9999 19C13.9999 19.9217 13.7921 20.7948 13.4207 21.5751C14.23 21.8506 15.0975 22 15.9999 22Z" fill="url(#paint3_radial_72095_9816)"/>
<path d="M2 19C2 22.3137 4.68629 25 8 25H24C27.3137 25 30 22.3137 30 19C30 15.6863 27.3137 13 24 13C23.9794 13 23.9587 13.0001 23.9381 13.0003C23.4462 9.05385 20.0797 6 16 6C11.9203 6 8.55381 9.05385 8.06185 13.0003C8.04126 13.0001 8.02064 13 8 13C4.68629 13 2 15.6863 2 19Z" fill="url(#paint4_radial_72095_9816)" fill-opacity="0.5"/>
<path d="M13 12C12.4477 12 12 12.4477 12 13C12 13.5523 12.4477 14 13 14H19C19.5523 14 20 13.5523 20 13C20 12.4477 19.5523 12 19 12H13ZM6 19C6 18.4477 6.44772 18 7 18H13C13.5523 18 14 18.4477 14 19C14 19.5523 13.5523 20 13 20H7C6.44772 20 6 19.5523 6 19ZM19 18C18.4477 18 18 18.4477 18 19C18 19.5523 18.4477 20 19 20H25C25.5523 20 26 19.5523 26 19C26 18.4477 25.5523 18 25 18H19Z" fill="url(#paint5_linear_72095_9816)" fill-opacity="0.95"/>
<defs>
<linearGradient id="paint0_linear_72095_9816" x1="3" y1="9.5625" x2="15.0151" y2="27.9589" gradientUnits="userSpaceOnUse">
<stop stop-color="#0FAFFF"/>
<stop offset="1" stop-color="#367AF2"/>
</linearGradient>
<linearGradient id="paint1_linear_72095_9816" x1="2" y1="15.0556" x2="10.0896" y2="22.2154" gradientUnits="userSpaceOnUse">
<stop stop-color="white"/>
<stop offset="1" stop-color="#FCFCFC" stop-opacity="0"/>
</linearGradient>
<linearGradient id="paint2_linear_72095_9816" x1="10.8247" y1="6.9" x2="12.9424" y2="17.9307" gradientUnits="userSpaceOnUse">
<stop stop-color="white"/>
<stop offset="1" stop-color="#FCFCFC" stop-opacity="0"/>
</linearGradient>
<radialGradient id="paint3_radial_72095_9816" cx="0" cy="0" r="1" gradientUnits="userSpaceOnUse" gradientTransform="translate(8.68572 19.1) rotate(-22.9281) scale(9.7542 8.72021)">
<stop offset="0.412409" stop-color="#2C87F5"/>
<stop offset="1" stop-color="#2C87F5" stop-opacity="0"/>
</radialGradient>
<radialGradient id="paint4_radial_72095_9816" cx="0" cy="0" r="1" gradientUnits="userSpaceOnUse" gradientTransform="translate(14.8333 4.8125) rotate(62.8585) scale(23.6561 173.962)">
<stop offset="0.5" stop-color="#DD3CE2" stop-opacity="0"/>
<stop offset="1" stop-color="#DD3CE2"/>
</radialGradient>
<linearGradient id="paint5_linear_72095_9816" x1="32.6667" y1="25.3333" x2="23.4111" y2="0.662066" gradientUnits="userSpaceOnUse">
<stop stop-color="#B3E0FF"/>
<stop offset="1" stop-color="white"/>
</linearGradient>
</defs>
</svg>
