<svg width="16" height="16" viewBox="0 0 16 16" fill="none" xmlns="http://www.w3.org/2000/svg">
<path d="M3 1C1.89543 1 1 1.89543 1 3V3.2013L6.87415 6.3643C7.60096 5.72658 8.49731 5.27739 9.4868 5.09313L13 3.20141V3C13 1.89543 12.1046 1 11 1H3ZM1 4.33706L6.16305 7.11716C5.43428 8.05016 5 9.22436 5 10.5C5 10.6685 5.00758 10.8353 5.02242 11H3C1.89543 11 1 10.1046 1 9V4.33706ZM13 4.33716V5.59971C12.5562 5.37286 12.0776 5.20452 11.5743 5.10486L13 4.33716ZM15 10.5C15 12.9853 12.9853 15 10.5 15C8.01472 15 6 12.9853 6 10.5C6 8.01472 8.01472 6 10.5 6C12.9853 6 15 8.01472 15 10.5ZM11.2071 10.5L12.3536 9.35355C12.5488 9.15829 12.5488 8.84171 12.3536 8.64645C12.1583 8.45118 11.8417 8.45118 11.6464 8.64645L10.5 9.79289L9.35355 8.64645C9.15829 8.45118 8.84171 8.45118 8.64645 8.64645C8.45118 8.84171 8.45118 9.15829 8.64645 9.35355L9.79289 10.5L8.64645 11.6464C8.45118 11.8417 8.45118 12.1583 8.64645 12.3536C8.84171 12.5488 9.15829 12.5488 9.35355 12.3536L10.5 11.2071L11.6464 12.3536C11.8417 12.5488 12.1583 12.5488 12.3536 12.3536C12.5488 12.1583 12.5488 11.8417 12.3536 11.6464L11.2071 10.5Z" fill="#212121"/>
</svg>
