<svg width="16" height="16" viewBox="0 0 16 16" fill="none" xmlns="http://www.w3.org/2000/svg">
<path d="M11.0707 4.13788C10.7124 3.95404 10.2876 3.95404 9.9293 4.13788L7.6793 5.29251C7.26226 5.50652 7 5.93587 7 6.40462V9.59372C7 10.0625 7.26226 10.4918 7.6793 10.7058L9.9293 11.8605C10.2876 12.0443 10.7124 12.0443 11.0707 11.8605L13.3207 10.7058C13.7377 10.4918 14 10.0625 14 9.59372V6.40462C14 5.93587 13.7377 5.50652 13.3207 5.29251L11.0707 4.13788ZM10.3859 5.02758C10.4575 4.99081 10.5425 4.99081 10.6141 5.02758L12.8641 6.1822C12.9475 6.225 13 6.31087 13 6.40462V9.59372C13 9.68747 12.9475 9.77334 12.8641 9.81614L10.6141 10.9708C10.5425 11.0075 10.4575 11.0075 10.3859 10.9708L8.13586 9.81614C8.05245 9.77334 8 9.68747 8 9.59372V6.40462C8 6.31087 8.05245 6.225 8.13586 6.1822L10.3859 5.02758ZM9.22361 6.55208C8.97662 6.42859 8.67628 6.5287 8.55279 6.77569C8.42929 7.02268 8.5294 7.32302 8.77639 7.44651L10 8.05831V9.4993C10 9.77544 10.2239 9.9993 10.5 9.9993C10.7761 9.9993 11 9.77544 11 9.4993V8.05831L12.2236 7.44651C12.4706 7.32302 12.5707 7.02268 12.4472 6.77569C12.3237 6.5287 12.0234 6.42859 11.7764 6.55208L10.5 7.19028L9.22361 6.55208ZM1.5 7.4993C1.22386 7.4993 1 7.72316 1 7.9993C1 8.27544 1.22386 8.4993 1.5 8.4993H4.5C4.77614 8.4993 5 8.27544 5 7.9993C5 7.72316 4.77614 7.4993 4.5 7.4993H1.5ZM2 5.4993C2 5.22316 2.22386 4.9993 2.5 4.9993H5.5C5.77614 4.9993 6 5.22316 6 5.4993C6 5.77544 5.77614 5.9993 5.5 5.9993H2.5C2.22386 5.9993 2 5.77544 2 5.4993ZM2.5 9.9993C2.22386 9.9993 2 10.2232 2 10.4993C2 10.7754 2.22386 10.9993 2.5 10.9993H5.5C5.77614 10.9993 6 10.7754 6 10.4993C6 10.2232 5.77614 9.9993 5.5 9.9993H2.5Z" fill="#212121"/>
</svg>
