<svg width="32" height="32" viewBox="0 0 32 32" fill="none" xmlns="http://www.w3.org/2000/svg">
<path d="M17.348 3.83947C16.799 2.72018 15.2035 2.72018 14.6545 3.83947L11.4559 10.3609L4.28462 11.4095C3.05719 11.5889 2.56569 13.0959 3.45128 13.9646L8.64679 19.0605L7.42232 26.2443C7.21324 27.471 8.50252 28.4041 9.60241 27.8223L14.2496 25.3639L23.5641 20.2832L23.3557 19.0605L28.5512 13.9646C29.4368 13.0959 28.9453 11.5889 27.7178 11.4095L20.5465 10.3609L17.348 3.83947Z" fill="url(#paint0_linear_72095_8268)"/>
<path d="M17.348 3.83947C16.799 2.72018 15.2035 2.72018 14.6545 3.83947L11.4559 10.3609L4.28462 11.4095C3.05719 11.5889 2.56569 13.0959 3.45128 13.9646L8.64679 19.0605L7.42232 26.2443C7.21324 27.471 8.50252 28.4041 9.60241 27.8223L14.2496 25.3639L23.5641 20.2832L23.3557 19.0605L28.5512 13.9646C29.4368 13.0959 28.9453 11.5889 27.7178 11.4095L20.5465 10.3609L17.348 3.83947Z" fill="url(#paint1_radial_72095_8268)"/>
<path d="M17.348 3.83947C16.799 2.72018 15.2035 2.72018 14.6545 3.83947L11.4559 10.3609L4.28462 11.4095C3.05719 11.5889 2.56569 13.0959 3.45128 13.9646L8.64679 19.0605L7.42232 26.2443C7.21324 27.471 8.50252 28.4041 9.60241 27.8223L14.2496 25.3639L23.5641 20.2832L23.3557 19.0605L28.5512 13.9646C29.4368 13.0959 28.9453 11.5889 27.7178 11.4095L20.5465 10.3609L17.348 3.83947Z" fill="url(#paint2_radial_72095_8268)" fill-opacity="0.4"/>
<path d="M17.348 3.83947C16.799 2.72018 15.2035 2.72018 14.6545 3.83947L11.4559 10.3609L4.28462 11.4095C3.05719 11.5889 2.56569 13.0959 3.45128 13.9646L8.64679 19.0605L7.42232 26.2443C7.21324 27.471 8.50252 28.4041 9.60241 27.8223L14.2496 25.3639L23.5641 20.2832L23.3557 19.0605L28.5512 13.9646C29.4368 13.0959 28.9453 11.5889 27.7178 11.4095L20.5465 10.3609L17.348 3.83947Z" fill="url(#paint3_radial_72095_8268)" fill-opacity="0.4"/>
<path d="M17.348 3.83947C16.799 2.72018 15.2035 2.72018 14.6545 3.83947L11.4559 10.3609L4.28462 11.4095C3.05719 11.5889 2.56569 13.0959 3.45128 13.9646L8.64679 19.0605L7.42232 26.2443C7.21324 27.471 8.50252 28.4041 9.60241 27.8223L14.2496 25.3639L23.5641 20.2832L23.3557 19.0605L28.5512 13.9646C29.4368 13.0959 28.9453 11.5889 27.7178 11.4095L20.5465 10.3609L17.348 3.83947Z" fill="url(#paint4_radial_72095_8268)" fill-opacity="0.4"/>
<path fill-rule="evenodd" clip-rule="evenodd" d="M17.2258 20.9637C18.0894 20.7663 18.603 19.88 18.3428 19.0363L17.876 17.523C18.6521 16.7967 19.5825 16.2334 20.6129 15.8877L21.8492 17.1603C22.4491 17.7777 23.4431 17.7772 24.0423 17.1593L25.3025 15.8599C26.3347 16.1925 27.2692 16.7427 28.052 17.4565L27.5562 19.1803C27.3187 20.0063 27.8153 20.864 28.6519 21.0728L30.3493 21.4964C30.4481 21.9821 30.5 22.4849 30.5 22.9998C30.5 23.5792 30.4343 24.1433 30.3099 24.685L28.7742 25.036C27.9106 25.2333 27.397 26.1196 27.6572 26.9633L28.1239 28.4766C27.3479 29.2029 26.4174 29.7662 25.3871 30.1119L24.1508 28.8394C23.5509 28.222 22.5569 28.2224 21.9577 28.8404L20.6975 30.1398C19.6653 29.8071 18.7308 29.2569 17.948 28.5431L18.4438 26.8193C18.6813 25.9934 18.1847 25.1356 17.3481 24.9268L15.6507 24.5032C15.5519 24.0175 15.5 23.5147 15.5 22.9998C15.5 22.4204 15.5657 21.8563 15.6901 21.3146L17.2258 20.9637ZM23 24.9998C24.1046 24.9998 25 24.1044 25 22.9998C25 21.8952 24.1046 20.9998 23 20.9998C21.8954 20.9998 21 21.8952 21 22.9998C21 24.1044 21.8954 24.9998 23 24.9998Z" fill="#212121"/>
<path fill-rule="evenodd" clip-rule="evenodd" d="M17.2258 20.9637C18.0894 20.7663 18.603 19.88 18.3428 19.0363L17.876 17.523C18.6521 16.7967 19.5825 16.2334 20.6129 15.8877L21.8492 17.1603C22.4491 17.7777 23.4431 17.7772 24.0423 17.1593L25.3025 15.8599C26.3347 16.1925 27.2692 16.7427 28.052 17.4565L27.5562 19.1803C27.3187 20.0063 27.8153 20.864 28.6519 21.0728L30.3493 21.4964C30.4481 21.9821 30.5 22.4849 30.5 22.9998C30.5 23.5792 30.4343 24.1433 30.3099 24.685L28.7742 25.036C27.9106 25.2333 27.397 26.1196 27.6572 26.9633L28.1239 28.4766C27.3479 29.2029 26.4174 29.7662 25.3871 30.1119L24.1508 28.8394C23.5509 28.222 22.5569 28.2224 21.9577 28.8404L20.6975 30.1398C19.6653 29.8071 18.7308 29.2569 17.948 28.5431L18.4438 26.8193C18.6813 25.9934 18.1847 25.1356 17.3481 24.9268L15.6507 24.5032C15.5519 24.0175 15.5 23.5147 15.5 22.9998C15.5 22.4204 15.5657 21.8563 15.6901 21.3146L17.2258 20.9637ZM23 24.9998C24.1046 24.9998 25 24.1044 25 22.9998C25 21.8952 24.1046 20.9998 23 20.9998C21.8954 20.9998 21 21.8952 21 22.9998C21 24.1044 21.8954 24.9998 23 24.9998Z" fill="url(#paint5_linear_72095_8268)"/>
<defs>
<linearGradient id="paint0_linear_72095_8268" x1="28.999" y1="28.5572" x2="2.15658" y2="3.34042" gradientUnits="userSpaceOnUse">
<stop stop-color="#FF6F47"/>
<stop offset="1" stop-color="#FFCD0F"/>
</linearGradient>
<radialGradient id="paint1_radial_72095_8268" cx="0" cy="0" r="1" gradientUnits="userSpaceOnUse" gradientTransform="translate(23.3117 25.2929) rotate(-174.264) scale(16.3311 19.63)">
<stop offset="0.19813" stop-color="#EB4824" stop-opacity="0.6"/>
<stop offset="0.700994" stop-color="#EB4824" stop-opacity="0"/>
</radialGradient>
<radialGradient id="paint2_radial_72095_8268" cx="0" cy="0" r="1" gradientUnits="userSpaceOnUse" gradientTransform="translate(23 23) rotate(-180) scale(9.5 4.17464)">
<stop offset="0.588543" stop-color="#B03111"/>
<stop offset="1" stop-color="#B03111" stop-opacity="0"/>
</radialGradient>
<radialGradient id="paint3_radial_72095_8268" cx="0" cy="0" r="1" gradientUnits="userSpaceOnUse" gradientTransform="translate(23.3117 22.8445) rotate(-124.103) scale(9.4737 4.50623)">
<stop offset="0.628202" stop-color="#B03111"/>
<stop offset="1" stop-color="#B03111" stop-opacity="0"/>
</radialGradient>
<radialGradient id="paint4_radial_72095_8268" cx="0" cy="0" r="1" gradientUnits="userSpaceOnUse" gradientTransform="translate(23.3117 22.8445) rotate(-59.4662) scale(9.92956 4.72271)">
<stop offset="0.670952" stop-color="#B03111"/>
<stop offset="0.972426" stop-color="#B03111" stop-opacity="0"/>
</radialGradient>
<linearGradient id="paint5_linear_72095_8268" x1="26.7493" y1="29.5871" x2="19.0879" y2="16.5126" gradientUnits="userSpaceOnUse">
<stop stop-color="#70777D"/>
<stop offset="1" stop-color="#B9C0C7"/>
</linearGradient>
</defs>
</svg>
