<svg width="24" height="24" viewBox="0 0 24 24" fill="none" xmlns="http://www.w3.org/2000/svg">
<path d="M10.7878 3.10263C11.283 2.09926 12.7138 2.09925 13.209 3.10263L15.567 7.88036L20.8395 8.6465C21.9468 8.8074 22.3889 10.1682 21.5877 10.9492L20.6821 11.8319C19.7411 11.3022 18.6548 11 17.498 11C13.9082 11 10.998 13.9101 10.998 17.5C10.998 18.1107 11.0823 18.7017 11.2397 19.2621L7.28252 21.3425C6.29213 21.8632 5.13459 21.0222 5.32374 19.9193L6.2244 14.6681L2.40916 10.9492C1.60791 10.1682 2.05005 8.8074 3.15735 8.6465L8.42988 7.88036L10.7878 3.10263Z" fill="#212121"/>
<path d="M12.498 15.6285L12.9453 16.0588C13.763 16.8456 13.763 18.1544 12.9453 18.9412L12.498 19.3715C12.6986 19.945 12.9887 20.4742 13.3509 20.9409L13.9528 20.7631C15.0502 20.4388 16.1955 21.0998 16.4637 22.2122L16.6364 22.9281C16.9168 22.9754 17.2046 23 17.4979 23C17.7912 23 18.0789 22.9754 18.3593 22.9281L18.532 22.2122C18.8003 21.0998 19.9455 20.4388 21.0429 20.7631L21.6448 20.9409C22.007 20.4742 22.2971 19.945 22.4977 19.3715L22.0504 18.9412C21.2327 18.1544 21.2327 16.8456 22.0504 16.0588L22.4977 15.6285C22.2971 15.055 22.007 14.5258 21.6448 14.0591L21.0429 14.2369C19.9455 14.5612 18.8003 13.9002 18.532 12.7878L18.3593 12.0719C18.0789 12.0246 17.7912 12 17.4979 12C17.2046 12 16.9168 12.0246 16.6364 12.0719L16.4637 12.7878C16.1954 13.9002 15.0502 14.5612 13.9528 14.2369L13.3509 14.0591C12.9887 14.5258 12.6986 15.055 12.498 15.6285ZM17.4979 19C16.6972 19 16.0482 18.3284 16.0482 17.5C16.0482 16.6716 16.6972 16 17.4979 16C18.2985 16 18.9475 16.6716 18.9475 17.5C18.9475 18.3284 18.2985 19 17.4979 19Z" fill="#212121"/>
</svg>
