<svg width="32" height="32" viewBox="0 0 32 32" fill="none" xmlns="http://www.w3.org/2000/svg">
<path d="M11.2116 11.8222V15.5556L11.2441 15.558C11.3835 15.5682 11.5135 15.5778 11.6341 15.5778H12.2083C12.6308 15.5778 13.0533 15.5111 13.4541 15.3778C13.8008 15.2778 14.1041 15.0667 14.3425 14.7889C14.57 14.5111 14.6783 14.1334 14.6783 13.6445C14.6891 13.3 14.6025 12.9556 14.4291 12.6556C14.245 12.3667 13.985 12.1445 13.6708 12.0222C13.27 11.8556 12.8366 11.7889 12.3925 11.8C12.1108 11.8 11.8616 11.8 11.6558 11.8111C11.4391 11.8 11.2875 11.8111 11.2116 11.8222ZM7.60417 3H24.3958C26.9417 3 29 5.11111 29 7.72222V24.2778C29 26.8889 26.9417 29 24.3958 29H7.60417C5.05833 29 3 26.8889 3 24.2778V7.72222C3 5.11111 5.05833 3 7.60417 3ZM8.84998 21.2334C8.84998 21.3334 8.89331 21.3778 8.97998 21.3778H11.0816C11.1575 21.3667 11.2116 21.3 11.2008 21.2222V17.6556C11.4066 17.6556 11.5583 17.6556 11.6666 17.6667C11.775 17.6778 11.9483 17.6778 12.2083 17.6778C13.0966 17.6778 13.9091 17.5778 14.6458 17.3C15.35 17.0334 15.9566 16.5667 16.39 15.9445C16.8233 15.3222 17.04 14.5334 17.04 13.5778C17.04 13.0778 16.9533 12.6 16.7908 12.1334C16.6175 11.6556 16.3466 11.2222 16 10.8667C15.5883 10.4556 15.09 10.1445 14.5483 9.95558C13.9416 9.72224 13.205 9.61113 12.3166 9.61113C11.9916 9.61113 11.6666 9.61113 11.3308 9.62224C11.1687 9.62761 11.0116 9.63038 10.8596 9.63307C10.6967 9.63595 10.5396 9.63872 10.3883 9.64447C10.2464 9.64986 10.1096 9.65263 9.9767 9.65533C9.8356 9.65819 9.69885 9.66097 9.56498 9.66669C9.31581 9.6778 9.14248 9.6778 8.95831 9.6778C8.88248 9.6778 8.84998 9.72224 8.84998 9.80002V21.2334ZM22.7599 14.5C23.1282 14.5778 23.4749 14.7 23.7999 14.8778C23.8432 14.9 23.8974 14.9 23.9949 14.8778C24.0274 14.8556 24.0491 14.8112 24.0491 14.7667V12.9556C24.0491 12.9112 24.0382 12.8667 24.0274 12.8223C24.0057 12.7778 23.9624 12.7334 23.9191 12.7223C23.6266 12.6 23.3124 12.5112 22.9874 12.4667C22.5432 12.4 22.0882 12.3667 21.6441 12.3667C20.8749 12.3667 20.2357 12.4889 19.7266 12.7556C19.2607 12.9778 18.8599 13.3334 18.5891 13.7778C18.3507 14.1889 18.2207 14.6445 18.2207 15.1223C18.2099 15.5112 18.2966 15.9 18.4699 16.2556C18.6757 16.6334 18.9574 16.9556 19.2932 17.2C19.7699 17.5334 20.2791 17.8 20.8316 18C21.3624 18.2112 21.7199 18.3778 21.8932 18.5223C22.0666 18.6667 22.1532 18.8112 22.1532 18.9667C22.1532 19.1667 22.0341 19.3556 21.8607 19.4334C21.6657 19.5334 21.3732 19.5889 20.9616 19.5889C20.5282 19.5889 20.0949 19.5334 19.6832 19.4223C19.2066 19.3112 18.7624 19.1334 18.3399 18.8778C18.3074 18.8556 18.2749 18.8445 18.2424 18.8667C18.2099 18.8889 18.1991 18.9334 18.1991 18.9667V20.9C18.1882 20.9889 18.2424 21.0667 18.3182 21.1112C18.6649 21.2778 19.0441 21.4 19.4232 21.4667C19.9107 21.5667 20.3982 21.6112 20.8966 21.6112C21.6766 21.6112 22.3266 21.4889 22.8574 21.2556C23.3449 21.0556 23.7674 20.7112 24.0707 20.2667C24.3524 19.8334 24.5041 19.3112 24.4932 18.7889C24.5041 18.3889 24.4174 18 24.2441 17.6445C24.0382 17.2667 23.7457 16.9556 23.3882 16.7223C22.8682 16.3889 22.3049 16.1112 21.7199 15.9112C21.4599 15.8 21.1999 15.6778 20.9507 15.5445C20.8099 15.4667 20.6799 15.3667 20.5824 15.2445C20.5174 15.1556 20.4741 15.0556 20.4741 14.9556C20.4741 14.8556 20.5066 14.7445 20.5607 14.6556C20.6366 14.5445 20.7557 14.4667 20.8966 14.4334C21.1024 14.3778 21.3299 14.3445 21.5466 14.3556C21.9582 14.3556 22.3591 14.4112 22.7599 14.5Z" fill="#212121"/>
</svg>
