<svg width="32" height="32" viewBox="0 0 32 32" fill="none" xmlns="http://www.w3.org/2000/svg">
<path d="M12.8536 26.8536C13.0488 26.6583 13.0488 26.3417 12.8536 26.1464L7.70711 21H19C22.866 21 26 17.866 26 14C26 10.134 22.866 7 19 7H9.5C9.22386 7 9 7.22386 9 7.5C9 7.77614 9.22386 8 9.5 8H19C22.3137 8 25 10.6863 25 14C25 17.3137 22.3137 20 19 20H7.70711L12.8536 14.8536C13.0488 14.6583 13.0488 14.3417 12.8536 14.1464C12.6583 13.9512 12.3417 13.9512 12.1464 14.1464L6.14645 20.1464C6.05268 20.2402 6 20.3674 6 20.5C6 20.6326 6.05268 20.7598 6.14645 20.8536L12.1464 26.8536C12.3417 27.0488 12.6583 27.0488 12.8536 26.8536Z" fill="#212121"/>
</svg>
