<svg width="20" height="20" viewBox="0 0 20 20" fill="none" xmlns="http://www.w3.org/2000/svg">
<path d="M4 4C4 2.89543 4.89543 2 6 2H14C15.1046 2 16 2.89543 16 4V15C16 15.5523 15.5523 16 15 16H5C5 16.5523 5.44772 17 6 17H15.5C15.7761 17 16 17.2239 16 17.5C16 17.7761 15.7761 18 15.5 18H6C4.89543 18 4 17.1046 4 16V4ZM8.48316 6.34497C8.12592 6.55225 8 6.78731 8 7C8 7.21269 8.12592 7.44775 8.48316 7.65503C8.84138 7.86287 9.37439 8 10 8C10.6256 8 11.1586 7.86287 11.5168 7.65503C11.8741 7.44775 12 7.21269 12 7C12 6.78731 11.8741 6.55225 11.5168 6.34497C11.1586 6.13713 10.6256 6 10 6C9.37439 6 8.84138 6.13713 8.48316 6.34497ZM7.9813 5.48003C7.43372 5.79775 7 6.31269 7 7V11C7 11.6272 7.45227 12.1351 7.96825 12.4559C8.50592 12.7901 9.2237 13 10 13C10.7763 13 11.4941 12.7901 12.0317 12.4559C12.5477 12.1351 13 11.6272 13 11V7C13 6.31269 12.5663 5.79775 12.0187 5.48003C11.4721 5.16287 10.7551 5 10 5C9.2449 5 8.5279 5.16287 7.9813 5.48003ZM12 11V8.53073C11.4558 8.84081 10.7465 9 10 9C9.25348 9 8.5442 8.84081 8 8.53073V11C8 11.1228 8.10737 11.3649 8.49621 11.6066C8.86336 11.8349 9.39559 12 10 12C10.6044 12 11.1366 11.8349 11.5038 11.6066C11.8926 11.3649 12 11.1228 12 11Z" fill="#212121"/>
</svg>
