<?xml version="1.0" encoding="UTF-8"?>
<svg width="28px" height="28px" viewBox="0 0 28 28" version="1.1" xmlns="http://www.w3.org/2000/svg" xmlns:xlink="http://www.w3.org/1999/xlink">
    <!-- Generator: Sketch 63.1 (92452) - https://sketch.com -->
    <title>ic_fluent_headset_28_filled</title>
    <desc>Created with Sketch.</desc>
    <g id="ðŸ”-Product-Icons" stroke="none" stroke-width="1" fill="none" fill-rule="evenodd">
        <g id="ic_fluent_headset_28_filled" fill="#212121" fill-rule="nonzero">
            <path d="M14,2 C18.8818027,2 22.8557914,5.88681368 22.9961629,10.7346377 L23,11 L23,16.2543161 C23,17.716848 21.8582954,18.9127204 20.4175223,18.9992973 L20.25,19.0043161 L17.2539433,19.0043161 C16.8742475,19.0043161 16.5604523,18.7221622 16.5107899,18.3560867 L16.5039433,18.2543161 L16.5039433,12.25 C16.5039433,11.8703042 16.7860972,11.556509 17.1521727,11.5068466 L17.2539433,11.5 L21.25,11.5 C21.335259,11.5 21.4190939,11.506097 21.5010925,11.5178788 L21.5,11 C21.5,6.85786438 18.1421356,3.5 14,3.5 C9.93908272,3.5 6.63198248,6.72747441 6.50385357,10.7572689 L6.5,11 L6.5,11.5 L10.7460567,11.5 C11.1257525,11.5 11.4395477,11.7821539 11.4892101,12.1482294 L11.4960567,12.25 L11.4960567,18.2543161 C11.4960567,18.6340119 11.2139028,18.9478071 10.8478273,18.9974695 L10.7460567,19.0043161 L7.75,19.0043161 C7.2999902,19.0043161 6.87522627,18.8962257 6.50025471,18.7045915 L6.5,20.25 C6.5,21.440864 7.42516159,22.4156449 8.59595119,22.4948092 L8.75,22.5 L11.0414358,22.500659 C11.2793881,21.0814506 12.5136195,20 14.0004371,20 C15.6575328,20 17.0008743,21.3433415 17.0008743,23.0004371 C17.0008743,24.6575328 15.6575328,26.0008743 14.0004371,26.0008743 C12.6939948,26.0008743 11.5825705,25.1659025 11.1706991,24.0004939 L8.75,24 C6.74574083,24 5.10872626,22.4276389 5.00519801,20.4491586 L5,20.25 L5,11 C5,6.02943725 9.02943725,2 14,2 Z M14.0004371,21.5 C13.1717686,21.5 12.5,22.1717686 12.5,23.0004371 C12.5,23.8291057 13.1717686,24.5008743 14.0004371,24.5008743 C14.8291057,24.5008743 15.5008743,23.8291057 15.5008743,23.0004371 C15.5008743,22.1717686 14.8291057,21.5 14.0004371,21.5 Z" id="ðŸŽ¨-Color"></path>
        </g>
    </g>
</svg>