<svg width="16" height="16" viewBox="0 0 16 16" fill="none" xmlns="http://www.w3.org/2000/svg">
<path fill-rule="evenodd" clip-rule="evenodd" d="M3 11V10.5H4.5V11C4.5 11.9665 5.2835 12.75 6.25 12.75H8.25V14.25H6.25C4.45507 14.25 3 12.7949 3 11Z" fill="url(#paint0_linear_378174_8996)"/>
<path d="M9.5 13.5C9.5 14.3284 8.82843 15 8 15C7.17157 15 6.5 14.3284 6.5 13.5C6.5 12.6716 7.17157 12 8 12C8.82843 12 9.5 12.6716 9.5 13.5Z" fill="url(#paint1_linear_378174_8996)"/>
<path fill-rule="evenodd" clip-rule="evenodd" d="M8 2.5C6.067 2.5 4.5 4.067 4.5 6V8H3V6C3 3.23858 5.23858 1 8 1C10.7614 1 13 3.23858 13 6V8H11.5V6C11.5 4.067 9.933 2.5 8 2.5Z" fill="url(#paint2_linear_378174_8996)"/>
<path fill-rule="evenodd" clip-rule="evenodd" d="M3 11V7H4.5V11H3Z" fill="url(#paint3_linear_378174_8996)"/>
<path fill-rule="evenodd" clip-rule="evenodd" d="M11.5 7H13V9.49985C13 10.3283 12.3284 10.9999 11.5 11V7Z" fill="url(#paint4_linear_378174_8996)"/>
<path d="M6.25 11C6.66421 11 7 10.6642 7 10.25L7 7.75C7 7.33579 6.66421 7 6.25 7H4.5L3.5 9L4.5 11L6.25 11Z" fill="url(#paint5_linear_378174_8996)"/>
<path d="M9.75 7C9.33579 7 9 7.33579 9 7.75V10.25C9 10.6642 9.33579 11 9.75 11H11.5L12.5 9L11.5 7H9.75Z" fill="url(#paint6_linear_378174_8996)"/>
<defs>
<linearGradient id="paint0_linear_378174_8996" x1="6.375" y1="13" x2="5.67075" y2="10.3407" gradientUnits="userSpaceOnUse">
<stop stop-color="#9CA5AD"/>
<stop offset="1" stop-color="#70777D"/>
</linearGradient>
<linearGradient id="paint1_linear_378174_8996" x1="9.125" y1="14.625" x2="6.58376" y2="13.1405" gradientUnits="userSpaceOnUse">
<stop stop-color="#383B3D"/>
<stop offset="1" stop-color="#70777D"/>
</linearGradient>
<linearGradient id="paint2_linear_378174_8996" x1="1.09375" y1="2.56486" x2="3.82032" y2="8.39291" gradientUnits="userSpaceOnUse">
<stop stop-color="#B9C0C7"/>
<stop offset="1" stop-color="#70777D"/>
</linearGradient>
<linearGradient id="paint3_linear_378174_8996" x1="12.1667" y1="7" x2="12.1667" y2="11" gradientUnits="userSpaceOnUse">
<stop stop-color="#0078D4"/>
<stop offset="1" stop-color="#2052CB"/>
</linearGradient>
<linearGradient id="paint4_linear_378174_8996" x1="12.1667" y1="7" x2="12.1667" y2="11" gradientUnits="userSpaceOnUse">
<stop stop-color="#0078D4"/>
<stop offset="1" stop-color="#2052CB"/>
</linearGradient>
<linearGradient id="paint5_linear_378174_8996" x1="11.1875" y1="7" x2="11.1875" y2="11" gradientUnits="userSpaceOnUse">
<stop stop-color="#0FAFFF"/>
<stop offset="1" stop-color="#0067BF"/>
</linearGradient>
<linearGradient id="paint6_linear_378174_8996" x1="11.1875" y1="7" x2="11.1875" y2="11" gradientUnits="userSpaceOnUse">
<stop stop-color="#0FAFFF"/>
<stop offset="1" stop-color="#0067BF"/>
</linearGradient>
</defs>
</svg>
