<svg width="16" height="16" viewBox="0 0 16 16" fill="none" xmlns="http://www.w3.org/2000/svg">
<path d="M12.5 7C13.3284 7 14 7.67157 14 8.5V9H14.5C15.3284 9 16 9.67157 16 10.5V14.5C16 15.3284 15.3284 16 14.5 16H8.5C7.67157 16 7 15.3284 7 14.5V10.5C7 9.67157 7.67157 9 8.5 9H9V8.5C9 7.67157 9.67157 7 10.5 7H12.5ZM10.5 8C10.2239 8 10 8.22386 10 8.5V9H13V8.5C13 8.22386 12.7761 8 12.5 8H10.5ZM8.04199 8.04199C6.88007 8.25717 6 9.27577 6 10.5V13.9258C3.46885 13.5474 2 11.752 2 10V9.5C2 8.67157 2.67157 8 3.5 8H8.05176C8.04891 8.01403 8.04461 8.02788 8.04199 8.04199ZM7 1.5C8.51878 1.5 9.75 2.73122 9.75 4.25C9.75 5.76878 8.51878 7 7 7C5.48122 7 4.25 5.76878 4.25 4.25C4.25 2.73122 5.48122 1.5 7 1.5Z" fill="#212121"/>
</svg>
