<svg width="16" height="16" viewBox="0 0 16 16" fill="none" xmlns="http://www.w3.org/2000/svg">
<path d="M8 4.5V1H4.5C3.67157 1 3 1.67157 3 2.5V13.5C3 14.3284 3.67157 15 4.5 15H11.5C12.3284 15 13 14.3284 13 13.5V6H9.5C8.67157 6 8 5.32843 8 4.5ZM9 4.5V1.25L12.75 5H9.5C9.22386 5 9 4.77614 9 4.5ZM5.5 8H10.5C10.7761 8 11 8.22386 11 8.5C11 8.77614 10.7761 9 10.5 9H5.5C5.22386 9 5 8.77614 5 8.5C5 8.22386 5.22386 8 5.5 8ZM5 10.5C5 10.2239 5.22386 10 5.5 10H10.5C10.7761 10 11 10.2239 11 10.5C11 10.7761 10.7761 11 10.5 11H5.5C5.22386 11 5 10.7761 5 10.5ZM5.5 12H10.5C10.7761 12 11 12.2239 11 12.5C11 12.7761 10.7761 13 10.5 13H5.5C5.22386 13 5 12.7761 5 12.5C5 12.2239 5.22386 12 5.5 12Z" fill="#212121"/>
</svg>
