<svg width="20" height="20" viewBox="0 0 20 20" fill="none" xmlns="http://www.w3.org/2000/svg">
<path d="M2.75303 2.93316C2.78993 2.5206 3.15428 2.21607 3.56683 2.25297L6.61029 2.52517C8.76683 2.72992 10.8337 2.9765 12.5316 3.25644C14.1916 3.53012 15.605 3.85095 16.3756 4.24023C16.5735 4.34017 16.788 4.4728 16.9543 4.65458C17.1299 4.84646 17.306 5.16086 17.2331 5.55568C17.1674 5.91132 16.9299 6.14578 16.7469 6.28362C16.5526 6.42998 16.3116 6.5495 16.0517 6.65254C15.0324 7.05683 13.1004 7.4421 10.0684 7.82176C8.62561 8.00242 7.57899 8.179 6.85417 8.34417C7.05931 8.38876 7.28467 8.43265 7.52834 8.47549C8.52025 8.64991 9.76933 8.79914 11.0964 8.91281C12.1069 8.99936 13.1888 9.1365 14.1117 9.31116C14.5726 9.3984 15.0045 9.49698 15.373 9.60662C15.7254 9.71149 16.0797 9.8434 16.3441 10.0188C16.4737 10.1048 16.6479 10.2437 16.7636 10.4558C16.901 10.7078 16.928 11.0177 16.7923 11.3089C16.6788 11.5525 16.4855 11.7081 16.3379 11.8036C16.1798 11.9059 15.9941 11.9902 15.7969 12.0629C15.0289 12.3462 13.6535 12.6073 11.514 12.8518C9.38974 13.0945 8.10503 13.4029 7.39658 13.7107C7.10119 13.839 6.95495 13.9468 6.88948 14.01C6.91528 14.0475 6.96216 14.105 7.04519 14.1812C7.19523 14.3187 7.41362 14.4714 7.69495 14.6306C8.25472 14.9472 8.97661 15.2409 9.67389 15.4695L12.3107 16.2831C12.7065 16.4052 12.9283 16.8251 12.8062 17.2209C12.6841 17.6167 12.2642 17.8385 11.8685 17.7164L9.21334 16.8971C8.45887 16.6502 7.63391 16.3194 6.95641 15.9361C6.6183 15.7448 6.29489 15.5282 6.03156 15.2868C5.7775 15.0539 5.51878 14.743 5.41262 14.3523C5.2927 13.9109 5.39562 13.4721 5.68562 13.1084C5.94716 12.7804 6.34159 12.5336 6.79887 12.3349C7.71914 11.9351 9.18639 11.608 11.3437 11.3615C12.7102 11.2053 13.6981 11.0483 14.385 10.8994C14.2132 10.8603 14.0284 10.822 13.8328 10.785C12.9714 10.622 11.9416 10.4907 10.9684 10.4073C9.61595 10.2915 8.31942 10.1376 7.26858 9.95281C6.74384 9.86054 6.26875 9.75857 5.87325 9.64632C5.49721 9.53958 5.1234 9.40499 4.85169 9.22043C4.7188 9.13017 4.52999 8.97507 4.42149 8.73023C4.28957 8.43253 4.32492 8.11431 4.48072 7.85741C4.6104 7.64357 4.80161 7.50485 4.95266 7.41538C5.115 7.31924 5.30561 7.23692 5.51193 7.1636C6.31881 6.87684 7.73425 6.60234 9.88205 6.3334C12.5771 5.99595 14.2586 5.66821 15.1774 5.37239C14.5386 5.1628 13.5539 4.94521 12.2876 4.73644C10.6369 4.46428 8.60804 4.22161 6.47055 4.01864L3.43321 3.74698C3.02066 3.71008 2.71613 3.34572 2.75303 2.93316Z" fill="#212121"/>
</svg>
