<svg width="32" height="32" viewBox="0 0 32 32" fill="none" xmlns="http://www.w3.org/2000/svg">
<path d="M3 7.5C3 5.01472 5.01472 3 7.5 3H24.5C26.9853 3 29 5.01472 29 7.5V24.5C29 26.9853 26.9853 29 24.5 29H19C18.4477 29 18 28.5523 18 28C18 27.4477 18.4477 27 19 27H24.5C25.8807 27 27 25.8807 27 24.5V16H19.5C17.567 16 16 14.433 16 12.5V5H7.5C6.11929 5 5 6.11929 5 7.5V13C5 13.5523 4.55228 14 4 14C3.44772 14 3 13.5523 3 13V7.5ZM4 20C3.44772 20 3 19.5523 3 19C3 18.4477 3.44772 18 4 18H13C13.5523 18 14 18.4477 14 19V28C14 28.5523 13.5523 29 13 29C12.4477 29 12 28.5523 12 28V21.4142L4.70711 28.7071C4.31658 29.0976 3.68342 29.0976 3.29289 28.7071C2.90237 28.3166 2.90237 27.6834 3.29289 27.2929L10.5858 20H4Z" fill="#212121"/>
</svg>
