<svg width="28" height="28" viewBox="0 0 28 28" fill="none" xmlns="http://www.w3.org/2000/svg">
<path d="M6.75 3C4.67893 3 3 4.67893 3 6.75V11.25C3 11.6642 3.33579 12 3.75 12C4.16421 12 4.5 11.6642 4.5 11.25V6.75C4.5 5.50736 5.50736 4.5 6.75 4.5H14V11.25C14 12.7688 15.2312 14 16.75 14H23.5V21.25C23.5 22.4926 22.4926 23.5 21.25 23.5H16.75C16.3358 23.5 16 23.8358 16 24.25C16 24.6642 16.3358 25 16.75 25H21.25C23.3211 25 25 23.3211 25 21.25V6.75C25 4.67893 23.3211 3 21.25 3H6.75ZM15.5 11.25V4.5H21.25C22.4926 4.5 23.5 5.50736 23.5 6.75V12.5H16.75C16.0596 12.5 15.5 11.9404 15.5 11.25ZM3 15.75C3 16.1642 3.33579 16.5 3.75 16.5H10.4393L3.21967 23.7197C2.92678 24.0126 2.92678 24.4874 3.21967 24.7803C3.51256 25.0732 3.98744 25.0732 4.28033 24.7803L11.5 17.5607V24.25C11.5 24.6642 11.8358 25 12.25 25C12.6642 25 13 24.6642 13 24.25V15.75C13 15.3358 12.6642 15 12.25 15H3.75C3.33579 15 3 15.3358 3 15.75Z" fill="#212121"/>
</svg>
