<svg width="24" height="24" viewBox="0 0 24 24" fill="none" xmlns="http://www.w3.org/2000/svg">
<path fill-rule="evenodd" clip-rule="evenodd" d="M15.2471 20.258C15.0239 21.2213 14.2011 21.9189 13.2283 21.9935L13.0552 22.0001H10.9435C9.95406 22.0001 9.0883 21.3552 8.79658 20.4236L8.75115 20.2563L8.3457 18.5H15.6539L15.2471 20.258Z" fill="url(#paint0_radial_72095_9107)"/>
<path fill-rule="evenodd" clip-rule="evenodd" d="M15.2471 20.258C15.0239 21.2213 14.2011 21.9189 13.2283 21.9935L13.0552 22.0001H10.9435C9.95406 22.0001 9.0883 21.3552 8.79658 20.4236L8.75115 20.2563L8.3457 18.5H15.6539L15.2471 20.258Z" fill="url(#paint1_linear_72095_9107)"/>
<path fill-rule="evenodd" clip-rule="evenodd" d="M8.23048 18H15.7698L16.4137 15.2167C16.4247 15.1692 16.4493 15.1259 16.4846 15.0922C18.3144 13.3448 19.25 11.388 19.25 9.25146C19.25 5.2474 16.0041 2.00146 12 2.00146C7.99593 2.00146 4.75 5.2474 4.75 9.25146C4.75 11.388 5.68616 13.3448 7.51701 15.0922C7.55234 15.126 7.57702 15.1693 7.58801 15.2169L8.23048 18Z" fill="url(#paint2_radial_72095_9107)"/>
<path fill-rule="evenodd" clip-rule="evenodd" d="M8.23048 18H15.7698L16.4137 15.2167C16.4247 15.1692 16.4493 15.1259 16.4846 15.0922C18.3144 13.3448 19.25 11.388 19.25 9.25146C19.25 5.2474 16.0041 2.00146 12 2.00146C7.99593 2.00146 4.75 5.2474 4.75 9.25146C4.75 11.388 5.68616 13.3448 7.51701 15.0922C7.55234 15.126 7.57702 15.1693 7.58801 15.2169L8.23048 18Z" fill="url(#paint3_radial_72095_9107)" fill-opacity="0.2"/>
<path d="M8.46126 18.9995L8.11426 17.4995H15.8863L15.5383 18.9995H8.46126Z" fill="url(#paint4_linear_72095_9107)"/>
<path fill-rule="evenodd" clip-rule="evenodd" d="M17.5 12C20.5376 12 23 9.53757 23 6.5C23 3.46243 20.5376 1 17.5 1C14.4624 1 12 3.46243 12 6.5C12 9.53757 14.4624 12 17.5 12Z" fill="url(#paint5_linear_72095_9107)"/>
<path fill-rule="evenodd" clip-rule="evenodd" d="M20.8536 4.85355C21.0488 4.65829 21.0488 4.34171 20.8536 4.14645C20.6583 3.95118 20.3417 3.95118 20.1464 4.14645L16.5 7.79289L14.8536 6.14645C14.6583 5.95118 14.3417 5.95118 14.1464 6.14645C13.9512 6.34171 13.9512 6.65829 14.1464 6.85355L16.1464 8.85355C16.3417 9.04882 16.6583 9.04882 16.8536 8.85355L20.8536 4.85355Z" fill="url(#paint6_linear_72095_9107)"/>
<defs>
<radialGradient id="paint0_radial_72095_9107" cx="0" cy="0" r="1" gradientUnits="userSpaceOnUse" gradientTransform="translate(7.41892 7.57078) rotate(71.8063) scale(14.468 24.6328)">
<stop stop-color="#FFE06B"/>
<stop offset="0.376456" stop-color="#FFA43D"/>
<stop offset="1" stop-color="#E67505"/>
</radialGradient>
<linearGradient id="paint1_linear_72095_9107" x1="11.9993" y1="18.5" x2="11.9995" y2="22.0001" gradientUnits="userSpaceOnUse">
<stop stop-color="#D34719"/>
<stop offset="1" stop-color="#D34719" stop-opacity="0"/>
</linearGradient>
<radialGradient id="paint2_radial_72095_9107" cx="0" cy="0" r="1" gradientUnits="userSpaceOnUse" gradientTransform="translate(7.16593 4.01193) rotate(74.8372) scale(18.226 26.4109)">
<stop stop-color="#FFE06B"/>
<stop offset="0.376456" stop-color="#FFA43D"/>
<stop offset="1" stop-color="#E67505"/>
</radialGradient>
<radialGradient id="paint3_radial_72095_9107" cx="0" cy="0" r="1" gradientUnits="userSpaceOnUse" gradientTransform="translate(17.5 8) rotate(180) scale(7)">
<stop offset="0.165145" stop-color="#741C06"/>
<stop offset="1" stop-color="#741C06" stop-opacity="0"/>
</radialGradient>
<linearGradient id="paint4_linear_72095_9107" x1="11.3855" y1="18.0953" x2="12.7259" y2="20.8744" gradientUnits="userSpaceOnUse">
<stop stop-color="#FFC7A3"/>
<stop offset="1" stop-color="#FF9C70"/>
</linearGradient>
<linearGradient id="paint5_linear_72095_9107" x1="12.3929" y1="3.0625" x2="19.9842" y2="10.9496" gradientUnits="userSpaceOnUse">
<stop stop-color="#52D17C"/>
<stop offset="1" stop-color="#22918B"/>
</linearGradient>
<linearGradient id="paint6_linear_72095_9107" x1="15.3125" y1="4.51003" x2="16.4497" y2="10.1303" gradientUnits="userSpaceOnUse">
<stop stop-color="white"/>
<stop offset="1" stop-color="#E3FFD9"/>
</linearGradient>
</defs>
</svg>
