<svg width="20" height="20" viewBox="0 0 20 20" fill="none" xmlns="http://www.w3.org/2000/svg">
<path d="M15.4989 6.99918C16.8243 6.99918 17.9089 8.03071 17.9935 9.3348L17.9989 9.49918V10.256C17.6917 10.0024 17.3566 9.7815 16.9989 9.59864V9.49918C16.9989 8.71948 16.404 8.07873 15.6433 8.00604L15.4989 7.99918H9.49918C8.71948 7.99918 8.07873 8.59407 8.00604 9.35472L7.99918 9.49918V15.4989C7.99918 16.2785 8.59407 16.9193 9.35472 16.992L9.49918 16.9989H9.59883C9.7817 17.3566 10.0026 17.6917 10.2562 17.9989H9.49918C8.17369 17.9989 7.08914 16.9673 7.0045 15.6632L6.99918 15.4989V9.49918C6.99918 8.17369 8.03071 7.08914 9.3348 7.0045L9.49918 6.99918H15.4989ZM12.661 3.69422L12.7087 3.85162L13.284 5.99905H12.248L11.7428 4.11044C11.541 3.35731 10.8005 2.89236 10.047 3.01902L9.90568 3.04978L4.11044 4.60261C3.35731 4.80441 2.89236 5.54487 3.01902 6.29841L3.04978 6.43973L4.60261 12.235C4.77754 12.8878 5.35723 13.3241 5.99934 13.3462L5.99946 14.3468C4.97249 14.3259 4.03526 13.6687 3.68886 12.6643L3.63668 12.4938L2.08385 6.69855C1.74079 5.41823 2.45648 4.10365 3.69422 3.68436L3.85162 3.63668L9.64686 2.08385C10.8738 1.75509 12.1323 2.39867 12.604 3.54226L12.661 3.69422ZM18.9993 14.4991C18.9993 16.9844 16.9845 18.9991 14.4993 18.9991C12.014 18.9991 9.99927 16.9844 9.99927 14.4991C9.99927 12.0139 12.014 9.99915 14.4993 9.99915C16.9845 9.99915 18.9993 12.0139 18.9993 14.4991ZM14.9993 12.4991C14.9993 12.223 14.7754 11.9991 14.4993 11.9991C14.2231 11.9991 13.9993 12.223 13.9993 12.4991V13.9991H12.4993C12.2231 13.9991 11.9993 14.223 11.9993 14.4991C11.9993 14.7753 12.2231 14.9991 12.4993 14.9991H13.9993V16.4991C13.9993 16.7753 14.2231 16.9991 14.4993 16.9991C14.7754 16.9991 14.9993 16.7753 14.9993 16.4991V14.9991H16.4993C16.7754 14.9991 16.9993 14.7753 16.9993 14.4991C16.9993 14.223 16.7754 13.9991 16.4993 13.9991H14.9993V12.4991Z" fill="#212121"/>
</svg>
