<svg width="20" height="20" viewBox="0 0 20 20" fill="none" xmlns="http://www.w3.org/2000/svg">
<path d="M7.4577 4.63466C7.74056 4.78894 7.97637 5.00582 8.15174 5.26271C8.39301 5.09699 8.68518 5 9 5H11C11.3148 5 11.607 5.09699 11.8483 5.26272C12.0236 5.00582 12.2594 4.78894 12.5423 4.63466L15.0423 3.27102C16.375 2.54407 18 3.5087 18 5.02681V9.97319C18 11.4913 16.375 12.4559 15.0423 11.729L12.5423 10.3653C12.2594 10.2111 12.0236 9.99418 11.8483 9.73728C11.607 9.90301 11.3148 10 11 10H9C8.68518 10 8.39301 9.90301 8.15174 9.73728C7.97637 9.99418 7.74056 10.2111 7.45771 10.3653L4.9577 11.729C3.62495 12.4559 2 11.4913 2 9.97319V5.02681C2 3.50869 3.62495 2.54407 4.9577 3.27102L7.4577 4.63466ZM5.5 7.5C5.5 7.77615 5.72386 8 6 8H8V7H6C5.72386 7 5.5 7.22386 5.5 7.5ZM14 7H12V8H14C14.2761 8 14.5 7.77614 14.5 7.5C14.5 7.22386 14.2761 7 14 7ZM8.30474 11.0491C8.17614 11.1156 8.07191 11.1694 7.93659 11.2432L5.5417 12.5495L4.58435 14.9429C4.19023 15.9282 4.91587 17 5.97707 17H7.50003C8.32846 17 9.00003 16.3284 9.00003 15.5L9.00003 11L8.39974 11L8.30474 11.0491ZM11 15.5V11L11.5938 11C11.6609 11.0351 11.7218 11.066 11.781 11.0961C11.8733 11.1429 11.9618 11.1878 12.0634 11.2432L14.4583 12.5495L15.4157 14.9429C15.8098 15.9282 15.0842 17 14.023 17H12.5C11.6716 17 11 16.3284 11 15.5Z" fill="#212121"/>
</svg>
