<svg width="16" height="16" viewBox="0 0 16 16" fill="none" xmlns="http://www.w3.org/2000/svg">
<path d="M4.5 2C3.11929 2 2 3.11929 2 4.5V7.5H7.26389C7.33817 7.41701 7.41701 7.33817 7.5 7.26389V2H4.5ZM2 8.5H6.67071C6.56015 8.81278 6.5 9.14936 6.5 9.5V12C6.5 12.7684 6.78885 13.4692 7.26389 14H4.5C3.11929 14 2 12.8807 2 11.5V8.5ZM14 4.5V7.26389C13.4692 6.78885 12.7684 6.5 12 6.5H9.5C9.14936 6.5 8.81278 6.56015 8.5 6.67071V2H11.5C12.8807 2 14 3.11929 14 4.5ZM7.5 9.25C7.5 8.2835 8.2835 7.5 9.25 7.5H12.25C13.2165 7.5 14 8.2835 14 9.25V12.25C14 13.2165 13.2165 14 12.25 14H9.25C8.2835 14 7.5 13.2165 7.5 12.25V9.25Z" fill="#212121"/>
</svg>
