<?xml version="1.0" encoding="UTF-8"?>
<svg width="24px" height="24px" viewBox="0 0 24 24" version="1.1" xmlns="http://www.w3.org/2000/svg" xmlns:xlink="http://www.w3.org/1999/xlink">
    <!-- Generator: Sketch 59.1 (86144) - https://sketch.com -->
    <title>ic_fluent_board_24_filled</title>
    <desc>Created with Sketch.</desc>
    <g id="ðŸ”-Product-Icons" stroke="none" stroke-width="1" fill="none" fill-rule="evenodd">
        <g id="ic_fluent_board_24_filled" fill="#212121" fill-rule="nonzero">
            <path d="M11.499,9.49917736 L11.5,21.0011774 L6.25005624,21.0018356 C4.51701151,21.0018356 3.10075697,19.6455145 3.00514494,17.9363661 L3,17.7519391 L3,9.49917736 L11.499,9.49917736 Z M12.999,15.4991774 L21.5,15.4991774 L21.5008077,17.7519229 C21.5005988,19.5467519 20.0455893,21.0018356 18.2507042,21.0018356 L13,21.0011774 L12.999,15.4991774 Z M18.2513521,2.49817736 C19.9843968,2.49817736 21.4006513,3.85452629 21.4962634,5.56367469 L21.5014083,5.74810161 L21.5,13.9991774 L12.999,13.9991774 L13,2.49817736 L18.2513521,2.49817736 Z M11.5,2.49817736 L11.499,7.99917736 L3,7.99917736 L3.00060063,5.74811784 C3.00080955,3.9532889 4.45581897,2.49817736 6.25064792,2.49817736 L11.5,2.49817736 Z" id="ðŸŽ¨-Color"></path>
        </g>
    </g>
</svg>