<svg width="24" height="24" viewBox="0 0 24 24" fill="none" xmlns="http://www.w3.org/2000/svg">
<path d="M11.25 6C11.6642 6 12 6.33579 12 6.75V12H15.25C15.6642 12 16 12.3358 16 12.75C16 13.1642 15.6642 13.5 15.25 13.5H11.25C10.8358 13.5 10.5 13.1642 10.5 12.75V6.75C10.5 6.33579 10.8358 6 11.25 6Z" fill="#6E6E6E"/>
<path d="M12 3.5C7.30558 3.5 3.5 7.30558 3.5 12C3.5 16.6944 7.30558 20.5 12 20.5C16.6944 20.5 20.5 16.6944 20.5 12C20.5 7.30558 16.6944 3.5 12 3.5ZM2 12C2 6.47715 6.47715 2 12 2C17.5228 2 22 6.47715 22 12C22 17.5228 17.5228 22 12 22C6.47715 22 2 17.5228 2 12Z" fill="#212121"/>
</svg>
