<svg width="24" height="24" viewBox="0 0 24 24" fill="none" xmlns="http://www.w3.org/2000/svg">
<path d="M2.75 3C2.33579 3 2 3.33579 2 3.75C2 4.16421 2.33579 4.5 2.75 4.5H21.25C21.6642 4.5 22 4.16421 22 3.75C22 3.33579 21.6642 3 21.25 3L2.75 3ZM4 8.25C4 7.00736 5.00736 6 6.25 6H8.75C9.99264 6 11 7.00736 11 8.25L11 18.75C11 19.9926 9.99264 21 8.75 21H6.25C5.00736 21 4 19.9926 4 18.75L4 8.25ZM13 8.25C13 7.00736 14.0074 6 15.25 6H17.75C18.9926 6 20 7.00736 20 8.25V15.25C20 16.4926 18.9926 17.5 17.75 17.5H15.25C14.0074 17.5 13 16.4926 13 15.25L13 8.25Z" fill="#212121"/>
</svg>
