<svg width="20" height="20" viewBox="0 0 20 20" fill="none" xmlns="http://www.w3.org/2000/svg">
<path d="M2 3.5C2 3.22386 2.22386 3 2.5 3H17.5C17.7761 3 18 3.22386 18 3.5C18 3.77614 17.7761 4 17.5 4H2.5C2.22386 4 2 3.77614 2 3.5ZM11 7C11 5.89543 11.8954 5 13 5L14 5C15.1046 5 16 5.89543 16 7V12C16 13.1046 15.1046 14 14 14H13C11.8954 14 11 13.1046 11 12V7ZM6 5C4.89543 5 4 5.89543 4 7L4 15C4 16.1046 4.89543 17 6 17H7C8.10457 17 9 16.1046 9 15L9 7C9 5.89543 8.10457 5 7 5L6 5Z" fill="#212121"/>
</svg>
