<svg width="20" height="20" viewBox="0 0 20 20" fill="none" xmlns="http://www.w3.org/2000/svg">
<path d="M2 3.5C2 3.22386 2.22386 3 2.5 3L17.5 3C17.7761 3 18 3.22386 18 3.5C18 3.77614 17.7761 4 17.5 4H2.5C2.22386 4 2 3.77614 2 3.5ZM13 5C11.8954 5 11 5.89543 11 7V12C11 13.1046 11.8954 14 13 14H14C15.1046 14 16 13.1046 16 12V7C16 5.89543 15.1046 5 14 5L13 5ZM5.5 5.5C4.39543 5.5 3.5 6.39543 3.5 7.5L3.5 15.5C3.5 16.6046 4.39543 17.5 5.5 17.5H6.5C7.60457 17.5 8.5 16.6046 8.5 15.5L8.5 7.5C8.5 6.39543 7.60457 5.5 6.5 5.5L5.5 5.5Z" fill="#212121"/>
</svg>
