<?xml version="1.0" encoding="UTF-8"?>
<svg width="24px" height="24px" viewBox="0 0 24 24" version="1.1" xmlns="http://www.w3.org/2000/svg" xmlns:xlink="http://www.w3.org/1999/xlink">
    <!-- Generator: Sketch 59.1 (86144) - https://sketch.com -->
    <title>ic_weekend_24_filled</title>
    <desc>Created with Sketch.</desc>
    <g id="ðŸ”-Product-Icons" stroke="none" stroke-width="1" fill="none" fill-rule="evenodd">
        <g id="ic_weekend_24_filled" fill="#212121">
            <path d="M19.25,10.75 C20.7687831,10.75 22,11.9812169 22,13.5 L22,13.5 L22,16.25 C22,17.2164983 21.2164983,18 20.25,18 L20.25,18 L3.75,18 C2.78350169,18 2,17.2164983 2,16.25 L2,16.25 L2,13.5 C2,11.9812169 3.23121694,10.75 4.75,10.75 C6.09803481,10.75 7.21952778,11.719941 7.45465594,13 L7.45465594,13 L16.5453441,13 L16.5809854,12.8348487 C16.8784216,11.6374318 17.9605754,10.75 19.25,10.75 Z M5.75,6 L18.25,6 C19.1681734,6 19.9211923,6.70711027 19.9941988,7.60647279 L20,7.75 L20.0005323,9.82512168 C19.7580348,9.77586052 19.5070374,9.75 19.25,9.75 C17.7321412,9.75 16.3968501,10.6589674 15.8120258,12 L8.18808782,12 C7.60511929,10.6636171 6.27271172,9.75 4.75,9.75 C4.49266302,9.75 4.24138017,9.77592083 3.99861996,9.82529399 L4,7.75 C4,6.8318266 4.70711027,6.07880766 5.60647279,6.0058012 L5.75,6 L18.25,6 Z" id="ðŸŽ¨-Color"></path>
        </g>
    </g>
</svg>