<svg width="16" height="16" viewBox="0 0 16 16" fill="none" xmlns="http://www.w3.org/2000/svg">
<path d="M6.23174 1.23175C7.20808 0.256025 8.79176 0.255694 9.7679 1.23175L14.7669 6.23178C15.7427 7.20794 15.7426 8.79072 14.7669 9.76695L9.7679 14.767C8.79171 15.7432 7.20809 15.7429 6.23174 14.767L1.23269 9.76695C0.256441 8.79063 0.256398 7.20807 1.23269 6.23178L6.23174 1.23175ZM9.35383 4.64681C9.15874 4.45172 8.8421 4.45206 8.6468 4.64681C8.45153 4.84207 8.45153 5.15858 8.6468 5.35384L9.29329 6.00033H8.50031C7.11972 6.00033 6.0005 7.1198 6.0003 8.50034V10.5004C6.00043 10.7764 6.22424 11.0004 6.5003 11.0004C6.77595 10.9999 7.00017 10.7761 7.0003 10.5004V8.50034C7.00051 7.67209 7.67201 7.00034 8.50031 7.00034H9.29329L8.6468 7.64682C8.45153 7.84209 8.45153 8.1586 8.6468 8.35386C8.84209 8.54874 9.1587 8.549 9.35383 8.35386L10.8538 6.85385C11.0485 6.65867 11.0486 6.34194 10.8538 6.14682L9.35383 4.64681Z" fill="#212121"/>
</svg>
