<svg width="16" height="16" viewBox="0 0 16 16" fill="none" xmlns="http://www.w3.org/2000/svg">
<path d="M6.23261 2.69708C7.20892 1.72077 8.79183 1.72077 9.76814 2.69708L13.3037 6.23261C14.28 7.20892 14.28 8.79183 13.3037 9.76814L9.76814 13.3037C8.79183 14.28 7.20892 14.28 6.23261 13.3037L2.69708 9.76814C1.72077 8.79183 1.72077 7.20892 2.69708 6.23261L6.23261 2.69708ZM8.85355 4.64645C8.65829 4.45118 8.34171 4.45118 8.14645 4.64645C7.95118 4.84171 7.95118 5.15829 8.14645 5.35355L8.79289 6H7.5C6.67157 6 6 6.67157 6 7.5V10C6 10.2761 6.22386 10.5 6.5 10.5C6.77614 10.5 7 10.2761 7 10V7.5C7 7.22386 7.22386 7 7.5 7H8.79289L8.14645 7.64645C7.95118 7.84171 7.95118 8.15829 8.14645 8.35355C8.34171 8.54882 8.65829 8.54882 8.85355 8.35355L10.3536 6.85355C10.5488 6.65829 10.5488 6.34171 10.3536 6.14645L8.85355 4.64645Z" fill="#212121"/>
</svg>
