<svg width="16" height="16" viewBox="0 0 16 16" fill="none" xmlns="http://www.w3.org/2000/svg">
<path d="M1.73223 6.23315C0.755924 7.20946 0.755921 8.79237 1.73223 9.76869L6.23317 14.2696C7.20948 15.2459 8.79239 15.2459 9.7687 14.2696L14.2696 9.76869C15.2459 8.79238 15.2459 7.20947 14.2696 6.23315L9.7687 1.73222C8.79239 0.755909 7.20948 0.755905 6.23317 1.73222L1.73223 6.23315ZM2.43934 9.06158C1.85355 8.47579 1.85355 7.52605 2.43934 6.94026L6.94028 2.43932C7.52606 1.85354 8.47581 1.85354 9.06159 2.43933L13.5625 6.94026C14.1483 7.52605 14.1483 8.47579 13.5625 9.06158L9.06159 13.5625C8.47581 14.1483 7.52606 14.1483 6.94027 13.5625L2.43934 9.06158ZM8.85325 4.64645C8.65799 4.45119 8.34141 4.45119 8.14615 4.64645C7.95088 4.84171 7.95088 5.1583 8.14615 5.35356L8.79259 6H7.4997C6.67127 6 5.9997 6.67158 5.9997 7.5V10C5.9997 10.2761 6.22356 10.5 6.4997 10.5C6.77584 10.5 6.9997 10.2761 6.9997 10V7.5C6.9997 7.22386 7.22356 7 7.4997 7H8.79259L8.14615 7.64645C7.95088 7.84171 7.95088 8.1583 8.14615 8.35356C8.34141 8.54882 8.65799 8.54882 8.85325 8.35356L10.3533 6.85356C10.5485 6.6583 10.5485 6.34171 10.3533 6.14645L8.85325 4.64645Z" fill="#212121"/>
</svg>
