<svg width="16" height="16" viewBox="0 0 16 16" fill="none" xmlns="http://www.w3.org/2000/svg">
<path d="M11.5 2C12.8807 2 14 3.11929 14 4.5V11.5C14 12.8807 12.8807 14 11.5 14H4.5C3.11929 14 2 12.8807 2 11.5V4.5C2 3.11929 3.11929 2 4.5 2H11.5ZM4.5 3C3.67157 3 3 3.67157 3 4.5V11.5C3 12.3284 3.67157 13 4.5 13H11.5C12.3284 13 13 12.3284 13 11.5V4.5C13 3.67157 12.3284 3 11.5 3H4.5ZM5.25 9C5.66421 9 6 9.33579 6 9.75C6 10.1642 5.66421 10.5 5.25 10.5C4.83579 10.5 4.5 10.1642 4.5 9.75C4.5 9.33579 4.83579 9 5.25 9ZM8 9C8.41421 9 8.75 9.33579 8.75 9.75C8.75 10.1642 8.41421 10.5 8 10.5C7.58579 10.5 7.25 10.1642 7.25 9.75C7.25 9.33579 7.58579 9 8 9ZM5.25 5.5C5.66421 5.5 6 5.83579 6 6.25C6 6.66421 5.66421 7 5.25 7C4.83579 7 4.5 6.66421 4.5 6.25C4.5 5.83579 4.83579 5.5 5.25 5.5ZM8 5.5C8.41421 5.5 8.75 5.83579 8.75 6.25C8.75 6.66421 8.41421 7 8 7C7.58579 7 7.25 6.66421 7.25 6.25C7.25 5.83579 7.58579 5.5 8 5.5ZM10.75 5.5C11.1642 5.5 11.5 5.83579 11.5 6.25C11.5 6.66421 11.1642 7 10.75 7C10.3358 7 10 6.66421 10 6.25C10 5.83579 10.3358 5.5 10.75 5.5Z" fill="#212121"/>
</svg>
