<?xml version="1.0" encoding="UTF-8"?>
<svg width="28px" height="28px" viewBox="0 0 28 28" version="1.1" xmlns="http://www.w3.org/2000/svg" xmlns:xlink="http://www.w3.org/1999/xlink">
    <!-- Generator: Sketch 59.1 (86144) - https://sketch.com -->
    <title>ic_fluent_calendar_month_28_regular</title>
    <desc>Created with Sketch.</desc>
    <g id="ðŸ”-Product-Icons" stroke="none" stroke-width="1" fill="none" fill-rule="evenodd">
        <g id="ic_fluent_calendar_month_28_regular" fill="#212121" fill-rule="nonzero">
            <path d="M21.75,3 C23.5449254,3 25,4.45507456 25,6.25 L25,21.75 C25,23.5449254 23.5449254,25 21.75,25 L6.25,25 C4.45507456,25 3,23.5449254 3,21.75 L3,6.25 C3,4.45507456 4.45507456,3 6.25,3 L21.75,3 Z M21.75,4.5 L6.25,4.5 C5.28350169,4.5 4.5,5.28350169 4.5,6.25 L4.5,21.75 C4.5,22.7164983 5.28350169,23.5 6.25,23.5 L21.75,23.5 C22.7164983,23.5 23.5,22.7164983 23.5,21.75 L23.5,6.25 C23.5,5.28350169 22.7164983,4.5 21.75,4.5 Z M8.5,15.5 C9.32842712,15.5 10,16.1715729 10,17 C10,17.8284271 9.32842712,18.5 8.5,18.5 C7.67157288,18.5 7,17.8284271 7,17 C7,16.1715729 7.67157288,15.5 8.5,15.5 Z M14,15.5 C14.8284271,15.5 15.5,16.1715729 15.5,17 C15.5,17.8284271 14.8284271,18.5 14,18.5 C13.1715729,18.5 12.5,17.8284271 12.5,17 C12.5,16.1715729 13.1715729,15.5 14,15.5 Z M8.5,9.5 C9.32842712,9.5 10,10.1715729 10,11 C10,11.8284271 9.32842712,12.5 8.5,12.5 C7.67157288,12.5 7,11.8284271 7,11 C7,10.1715729 7.67157288,9.5 8.5,9.5 Z M14,9.5 C14.8284271,9.5 15.5,10.1715729 15.5,11 C15.5,11.8284271 14.8284271,12.5 14,12.5 C13.1715729,12.5 12.5,11.8284271 12.5,11 C12.5,10.1715729 13.1715729,9.5 14,9.5 Z M19.5,9.5 C20.3284271,9.5 21,10.1715729 21,11 C21,11.8284271 20.3284271,12.5 19.5,12.5 C18.6715729,12.5 18,11.8284271 18,11 C18,10.1715729 18.6715729,9.5 19.5,9.5 Z" id="ðŸŽ¨-Color"></path>
        </g>
    </g>
</svg>