<svg width="32" height="32" viewBox="0 0 32 32" fill="none" xmlns="http://www.w3.org/2000/svg">
<path d="M7.5 4C5.567 4 4 5.567 4 7.5V24.5C4 26.433 5.567 28 7.5 28H24.5C26.433 28 28 26.433 28 24.5V7.5C28 5.567 26.433 4 24.5 4H7.5ZM3 7.5C3 5.01472 5.01472 3 7.5 3H24.5C26.9853 3 29 5.01472 29 7.5V24.5C29 26.9853 26.9853 29 24.5 29H7.5C5.01472 29 3 26.9853 3 24.5V7.5ZM9.5 14C10.3284 14 11 13.3284 11 12.5C11 11.6716 10.3284 11 9.5 11C8.67157 11 8 11.6716 8 12.5C8 13.3284 8.67157 14 9.5 14ZM17.5 12.5C17.5 13.3284 16.8284 14 16 14C15.1716 14 14.5 13.3284 14.5 12.5C14.5 11.6716 15.1716 11 16 11C16.8284 11 17.5 11.6716 17.5 12.5ZM22.5 14C23.3284 14 24 13.3284 24 12.5C24 11.6716 23.3284 11 22.5 11C21.6716 11 21 11.6716 21 12.5C21 13.3284 21.6716 14 22.5 14ZM11 19.5C11 20.3284 10.3284 21 9.5 21C8.67157 21 8 20.3284 8 19.5C8 18.6716 8.67157 18 9.5 18C10.3284 18 11 18.6716 11 19.5ZM16 21C16.8284 21 17.5 20.3284 17.5 19.5C17.5 18.6716 16.8284 18 16 18C15.1716 18 14.5 18.6716 14.5 19.5C14.5 20.3284 15.1716 21 16 21Z" fill="#242424"/>
</svg>
