<svg width="24" height="24" viewBox="0 0 24 24" fill="none" xmlns="http://www.w3.org/2000/svg">
<path d="M7.75019 3.75024C7.75019 3.33603 7.4144 3.00024 7.00019 3.00024C6.58597 3.00024 6.25019 3.33603 6.25019 3.75024V11.2502C6.25019 11.6645 6.58597 12.0002 7.00019 12.0002C7.4144 12.0002 7.75019 11.6645 7.75019 11.2502V6.50024H8.00019C8.4144 6.50024 8.75019 6.16446 8.75019 5.75024C8.75019 5.33603 8.4144 5.00024 8.00019 5.00024H7.75019V3.75024ZM22.0002 3.75024C22.0002 3.33603 21.6644 3.00024 21.2502 3.00024C20.836 3.00024 20.5002 3.33603 20.5002 3.75024V11.2502C20.5002 11.6645 20.836 12.0002 21.2502 12.0002C21.6644 12.0002 22.0002 11.6645 22.0002 11.2502V6.50024H22.2502C22.6644 6.50024 23.0002 6.16446 23.0002 5.75024C23.0002 5.33603 22.6644 5.00024 22.2502 5.00024H22.0002V3.75024ZM14.2502 3.00024C14.6644 3.00024 15.0002 3.33603 15.0002 3.75024V5.00024H15.2502C15.6644 5.00024 16.0002 5.33603 16.0002 5.75024C16.0002 6.16446 15.6644 6.50024 15.2502 6.50024H15.0002V11.2502C15.0002 11.6645 14.6644 12.0002 14.2502 12.0002C13.836 12.0002 13.5002 11.6645 13.5002 11.2502V3.75024C13.5002 3.33603 13.836 3.00024 14.2502 3.00024ZM1.00019 4.75024C1.00019 4.33603 1.33597 4.00024 1.75019 4.00024H4.75019C4.9491 4.00024 5.13986 4.07926 5.28052 4.21991C5.42117 4.36057 5.50019 4.55133 5.50019 4.75024C5.50019 6.43946 4.66161 9.02702 2.05479 10.1856C1.67628 10.3538 1.23306 10.1834 1.06483 9.80485C0.8966 9.42633 1.06707 8.98311 1.44558 8.81489C3.0008 8.12368 3.72478 6.7097 3.93371 5.50024H1.75019C1.33597 5.50024 1.00019 5.16446 1.00019 4.75024ZM11.9654 4.72609C12.0901 4.33111 11.871 3.90979 11.476 3.78506C11.081 3.66032 10.6597 3.87941 10.535 4.2744L9.035 9.0244C8.95513 9.27731 9.01478 9.55361 9.19188 9.75104C9.36899 9.94848 9.6372 10.0377 9.89727 9.98568L12.3973 9.48568C12.8034 9.40445 13.0669 9.00933 12.9856 8.60316C12.9044 8.19699 12.5093 7.93357 12.1031 8.01481L10.8475 8.26592L11.9654 4.72609ZM16.5002 4.76978C16.5002 4.35556 16.836 4.01978 17.2502 4.01978H18.7502C19.1644 4.01978 19.5002 4.35556 19.5002 4.76978C19.5002 5.18399 19.1644 5.51978 18.7502 5.51978H18.0002V8.28966L19.0683 8.02264C19.4701 7.92218 19.8773 8.1665 19.9778 8.56834C20.0783 8.97019 19.8339 9.37739 19.4321 9.47785L17.4321 9.97785C17.208 10.0339 16.9707 9.98353 16.7886 9.8414C16.6066 9.69927 16.5002 9.4812 16.5002 9.25024V4.76978ZM11.1996 18.139L9.28033 16.2197C8.98744 15.9269 8.51256 15.9269 8.21967 16.2197C7.92678 16.5126 7.92678 16.9875 8.21967 17.2804L10.7197 19.7804C11.0315 20.0923 11.5438 20.069 11.8262 19.7302L16.8262 13.7302C17.0913 13.412 17.0483 12.9391 16.7301 12.6739C16.4119 12.4087 15.939 12.4517 15.6738 12.7699L11.1996 18.139Z" fill="#212121"/>
</svg>
