<svg width="24" height="24" viewBox="0 0 24 24" fill="none" xmlns="http://www.w3.org/2000/svg">
<path d="M17.25 1.99658C18.7688 1.99658 20 3.2278 20 4.74658V11.3534C19.7616 11.286 19.51 11.2499 19.25 11.2499H16V6.7293C16 6.32646 15.6642 5.99989 15.25 5.99989C14.8358 5.99989 14.5 6.32646 14.5 6.7293V11.5497C13.6096 12.0049 13 12.9312 13 13.9999V14.0499C12.5161 14.1481 12.083 14.3861 11.7446 14.7199L11.7146 11.7158C11.7106 11.3147 11.3795 10.9927 10.9751 10.9966C10.5707 11.0006 10.246 11.329 10.25 11.7301L10.2854 15.2775C10.2894 15.6786 10.6205 16.0005 11.0249 15.9967C11.0336 15.9966 11.0422 15.9963 11.0508 15.9959C11.0175 16.1587 11 16.3273 11 16.4999V19.9966H4.75C3.23122 19.9966 2 18.7654 2 17.2466V4.74658C2 3.2278 3.23122 1.99658 4.75 1.99658H17.25ZM6.75 7.99989C6.33579 7.99989 6 8.33423 6 8.74667V15.2531C6 15.6655 6.33579 15.9999 6.75 15.9999C7.16421 15.9999 7.5 15.6655 7.5 15.2531V8.74667C7.5 8.33423 7.16421 7.99989 6.75 7.99989ZM14 14.9999H13.5C12.6716 14.9999 12 15.6715 12 16.4999V17.9999H14.5V17.7499C14.5 17.3357 14.8358 16.9999 15.25 16.9999C15.6642 16.9999 16 17.3357 16 17.7499V17.9999H19V17.7499C19 17.3357 19.3358 16.9999 19.75 16.9999C20.1642 16.9999 20.5 17.3357 20.5 17.7499V17.9999H23V16.4999C23 15.6715 22.3284 14.9999 21.5 14.9999H21V13.9999C21 13.0334 20.2165 12.2499 19.25 12.2499H15.75C14.7835 12.2499 14 13.0334 14 13.9999V14.9999ZM15.5 13.9999C15.5 13.8618 15.6119 13.7499 15.75 13.7499H19.25C19.3881 13.7499 19.5 13.8618 19.5 13.9999V14.9999H15.5V13.9999ZM12 21.4999V19.4999H14.5V20.2499C14.5 20.6641 14.8358 20.9999 15.25 20.9999C15.6642 20.9999 16 20.6641 16 20.2499V19.4999H19V20.2499C19 20.6641 19.3358 20.9999 19.75 20.9999C20.1642 20.9999 20.5 20.6641 20.5 20.2499V19.4999H23V21.4999C23 22.3283 22.3284 22.9999 21.5 22.9999H13.5C12.6716 22.9999 12 22.3283 12 21.4999Z" fill="#212121"/>
</svg>
