<svg width="20" height="20" viewBox="0 0 20 20" fill="none" xmlns="http://www.w3.org/2000/svg">
<path d="M10 2C12.2091 2 14 3.79086 14 6C14 8.20914 12.2091 10 10 10C7.79086 10 6 8.20914 6 6C6 3.79086 7.79086 2 10 2ZM7 6C7 7.65685 8.34315 9 10 9C11.6569 9 13 7.65685 13 6C13 4.34315 11.6569 3 10 3C8.34315 3 7 4.34315 7 6Z" fill="#212121"/>
<path d="M5.00873 11C3.90315 11 3 11.8869 3 13C3 14.6912 3.83281 15.9663 5.13499 16.7966C6.41697 17.614 8.14526 18 10 18C10.0853 18 10.1704 17.9992 10.2551 17.9975C10.0008 17.6892 9.77938 17.3527 9.59631 16.9933C8.02927 16.941 6.65932 16.5825 5.67262 15.9534C4.62226 15.2837 4 14.3088 4 13C4 12.4467 4.44786 12 5.00873 12L9.59971 12C9.7826 11.6422 10.0035 11.3071 10.2572 11L5.00873 11Z" fill="#212121"/>
<path d="M19 14.5C19 12.0147 16.9853 10 14.5 10C12.0147 10 10 12.0147 10 14.5C10 16.9853 12.0147 19 14.5 19C16.9853 19 19 16.9853 19 14.5ZM12.1468 14.146L14.1464 12.1464C14.3417 11.9512 14.6583 11.9512 14.8536 12.1464C15.0488 12.3417 15.0488 12.6583 14.8536 12.8536L13.7071 14H16.5C16.7761 14 17 14.2239 17 14.5C17 14.7761 16.7761 15 16.5 15H13.7071L14.8536 16.1464C15.0488 16.3417 15.0488 16.6583 14.8536 16.8536C14.6583 17.0488 14.3417 17.0488 14.1464 16.8536L12.1464 14.8536C12.0985 14.8056 12.0623 14.7504 12.0379 14.6914C12.0139 14.6333 12.0004 14.5697 12 14.503L12 14.5L12 14.497C12.0004 14.4303 12.0139 14.3667 12.0379 14.3086C12.062 14.2505 12.0974 14.196 12.1443 14.1486L12.1468 14.146Z" fill="#212121"/>
</svg>
