<svg width="28" height="28" viewBox="0 0 28 28" fill="none" xmlns="http://www.w3.org/2000/svg">
<path d="M15.75 4C18.9256 4 21.5 6.57436 21.5 9.75C21.5 11.1001 21.0329 12.3402 20.2539 13.3213C21.6227 14.421 22.5 16.1075 22.5 18C22.5 21.3137 19.8137 24 16.5 24H8.75C7.7835 24 7 23.2165 7 22.25V5.75C7 4.7835 7.7835 4 8.75 4H15.75ZM10.5 20.5H16.5C17.8807 20.5 19 19.3807 19 18C19 16.6193 17.8807 15.5 16.5 15.5H10.5V20.5ZM10.5 12H15.75C16.9926 12 18 10.9926 18 9.75C18 8.50736 16.9926 7.5 15.75 7.5H10.5V12Z" fill="#212121"/>
</svg>
