<svg width="24" height="24" viewBox="0 0 24 24" fill="none" xmlns="http://www.w3.org/2000/svg">
<path d="M3 3.75C3 3.33579 3.33579 3 3.75 3C4.16421 3 4.5 3.33579 4.5 3.75V19.5H20.25C20.6642 19.5 21 19.8358 21 20.25C21 20.6642 20.6642 21 20.25 21H3.75C3.33579 21 3 20.6642 3 20.25V3.75ZM19.5 6.75C19.5 6.46592 19.3395 6.20622 19.0854 6.07918C18.8313 5.95214 18.5273 5.97955 18.3 6.15L12.6997 10.3503L8.88029 8.10355C8.66126 7.97471 8.39189 7.96554 8.16461 8.07918L5.5 9.41148V18.5H19.5L19.5 6.75Z" fill="#212121"/>
</svg>
