<svg width="16" height="16" viewBox="0 0 16 16" fill="none" xmlns="http://www.w3.org/2000/svg">
<path d="M7.239 14.974C4.775 14.801 3 13.796 3 12.5V5.487C4.057 6.413 5.864 7 8 7C8.118 7 8.234 6.998 8.35 6.994C6.93 7.99 6 9.638 6 11.5C6 12.816 6.465 14.026 7.239 14.974ZM8 6C10.761 6 13 4.881 13 3.5C13 2.119 10.761 1 8 1C5.239 1 3 2.119 3 3.5C3 4.881 5.239 6 8 6ZM16 11.5C16 13.985 13.985 16 11.5 16C9.015 16 7 13.985 7 11.5C7 9.015 9.015 7 11.5 7C13.985 7 16 9.015 16 11.5ZM13.854 11.146L11.854 9.146C11.806 9.098 11.751 9.062 11.692 9.037C11.634 9.013 11.57 8.999 11.504 8.999H11.498C11.431 8.999 11.368 9.013 11.31 9.037C11.252 9.061 11.197 9.097 11.15 9.143L11.147 9.146L9.147 11.146C8.952 11.341 8.952 11.658 9.147 11.853C9.342 12.048 9.659 12.048 9.854 11.853L11 10.707V13.5C11 13.776 11.224 14 11.5 14C11.776 14 12 13.776 12 13.5V10.707L13.146 11.853C13.341 12.048 13.658 12.048 13.853 11.853C14.048 11.658 14.049 11.341 13.854 11.146Z" fill="#212121"/>
</svg>
