<svg width="24" height="24" viewBox="0 0 24 24" fill="none" xmlns="http://www.w3.org/2000/svg">
<path d="M14.9979 5C18.8639 5 21.9979 8.13401 21.9979 12C21.9979 15.7855 18.9931 18.8691 15.2385 18.9959L14.9979 19H9.00211C5.13611 19 2.00211 15.866 2.00211 12C2.00211 8.21455 5.00689 5.1309 8.76146 5.00406L9.00211 5H14.9979ZM14.75 12.5C14.0596 12.5 13.5 13.0596 13.5 13.75C13.5 14.4404 14.0596 15 14.75 15C15.4403 15 16 14.4404 16 13.75C16 13.0596 15.4403 12.5 14.75 12.5ZM7.99999 9C7.62029 9 7.3065 9.28215 7.25684 9.64823L7.24999 9.75V11.248L5.74999 11.2487C5.33578 11.2487 4.99999 11.5845 4.99999 11.9987C4.99999 12.3784 5.28214 12.6922 5.64822 12.7419L5.74999 12.7487L7.24999 12.748V14.25C7.24999 14.6642 7.58578 15 7.99999 15C8.37969 15 8.69348 14.7178 8.74314 14.3518L8.74999 14.25V12.748L10.25 12.7487C10.6642 12.7487 11 12.413 11 11.9987C11 11.6191 10.7178 11.3053 10.3518 11.2556L10.25 11.2487L8.74999 11.248V9.75C8.74999 9.33579 8.4142 9 7.99999 9ZM16.75 9C16.0596 9 15.5 9.55964 15.5 10.25C15.5 10.9404 16.0596 11.5 16.75 11.5C17.4403 11.5 18 10.9404 18 10.25C18 9.55964 17.4403 9 16.75 9Z" fill="#212121"/>
</svg>
