<svg width="20" height="20" viewBox="0 0 20 20" fill="none" xmlns="http://www.w3.org/2000/svg">
<path d="M3.25 7C3.94036 7 4.5 6.44036 4.5 5.75C4.5 5.05964 3.94036 4.5 3.25 4.5C2.55964 4.5 2 5.05964 2 5.75C2 6.44036 2.55964 7 3.25 7ZM7 5.75C7 5.33579 7.33579 5 7.75 5H17.25C17.6642 5 18 5.33579 18 5.75C18 6.16421 17.6642 6.5 17.25 6.5H7.75C7.33579 6.5 7 6.16421 7 5.75ZM7.75 10C7.33579 10 7 10.3358 7 10.75C7 11.1642 7.33579 11.5 7.75 11.5H17.25C17.6642 11.5 18 11.1642 18 10.75C18 10.3358 17.6642 10 17.25 10H7.75ZM7.75 15C7.33579 15 7 15.3358 7 15.75C7 16.1642 7.33579 16.5 7.75 16.5H17.25C17.6642 16.5 18 16.1642 18 15.75C18 15.3358 17.6642 15 17.25 15H7.75ZM4.5 10.75C4.5 11.4404 3.94036 12 3.25 12C2.55964 12 2 11.4404 2 10.75C2 10.0596 2.55964 9.5 3.25 9.5C3.94036 9.5 4.5 10.0596 4.5 10.75ZM3.25 17C3.94036 17 4.5 16.4404 4.5 15.75C4.5 15.0596 3.94036 14.5 3.25 14.5C2.55964 14.5 2 15.0596 2 15.75C2 16.4404 2.55964 17 3.25 17Z" fill="#212121"/>
</svg>
