<svg width="20" height="20" viewBox="0 0 20 20" fill="none" xmlns="http://www.w3.org/2000/svg">
<path d="M5 3.5C5 3.22386 5.22386 3 5.5 3H17.5C17.7761 3 18 3.22386 18 3.5C18 3.77614 17.7761 4 17.5 4H5.5C5.22386 4 5 3.77614 5 3.5ZM5 15.5C5 15.2239 5.22386 15 5.5 15H17.5C17.7761 15 18 15.2239 18 15.5C18 15.7761 17.7761 16 17.5 16H5.5C5.22386 16 5 15.7761 5 15.5ZM11 7.5C11 7.22386 11.2239 7 11.5 7H17.5C17.7761 7 18 7.22386 18 7.5C18 7.77614 17.7761 8 17.5 8H11.5C11.2239 8 11 7.77614 11 7.5ZM11 11.5C11 11.2239 11.2239 11 11.5 11H17.5C17.7761 11 18 11.2239 18 11.5C18 11.7761 17.7761 12 17.5 12H11.5C11.2239 12 11 11.7761 11 11.5ZM9 9.5C9 11.433 7.433 13 5.5 13C3.567 13 2 11.433 2 9.5C2 7.567 3.567 6 5.5 6C7.433 6 9 7.567 9 9.5ZM3.5 9C3.22386 9 3 9.22386 3 9.5C3 9.77614 3.22386 10 3.5 10H7.5C7.77614 10 8 9.77614 8 9.5C8 9.22386 7.77614 9 7.5 9H3.5Z" fill="#212121"/>
</svg>
