<svg width="21" height="20" viewBox="0 0 21 20" fill="none" xmlns="http://www.w3.org/2000/svg">
<path d="M13.416 12C13.416 10.8954 12.5206 10 11.416 10H4.41602C3.31145 10 2.41602 10.8954 2.41602 12V13.5C2.41602 15.5544 4.50406 17 7.91602 17C8.37467 17 8.80941 16.9739 9.21836 16.9237L8.85535 16.5607C8.26957 15.9749 8.26957 15.0251 8.85535 14.4393L10.8554 12.4393C11.4411 11.8536 12.3909 11.8536 12.9767 12.4393C13.2695 12.7322 13.4159 13.1159 13.416 13.4997V12ZM18.2227 13.6854C18.351 13.3224 18.416 12.9253 18.416 12.5V12C18.416 10.8954 17.5206 10 16.416 10L13.6513 9.99912L13.7883 10.1634C14.1818 10.6709 14.416 11.3081 14.416 12V13.4997C14.4161 13.1159 14.5625 12.7322 14.8554 12.4393C15.4411 11.8536 16.3909 11.8536 16.9767 12.4393L18.2227 13.6854ZM11.416 5.5C11.416 3.567 9.84901 2 7.91602 2C5.98302 2 4.41602 3.567 4.41602 5.5C4.41602 7.433 5.98302 9 7.91602 9C9.84901 9 11.416 7.433 11.416 5.5ZM17.416 6.5C17.416 5.11929 16.2967 4 14.916 4C13.5353 4 12.416 5.11929 12.416 6.5C12.416 7.88071 13.5353 9 14.916 9C16.2967 9 17.416 7.88071 17.416 6.5ZM11.5625 17.8536C11.7577 18.0488 12.0743 18.0488 12.2696 17.8536C12.4648 17.6583 12.4648 17.3417 12.2696 17.1464L11.1231 16H16.7089L15.5625 17.1464C15.3672 17.3417 15.3672 17.6583 15.5625 17.8536C15.7577 18.0488 16.0743 18.0488 16.2696 17.8536L18.2696 15.8536C18.4648 15.6583 18.4648 15.3417 18.2696 15.1464L16.2696 13.1464C16.0743 12.9512 15.7577 12.9512 15.5625 13.1464C15.3672 13.3417 15.3672 13.6583 15.5625 13.8536L16.7089 15H11.1231L12.2696 13.8536C12.4648 13.6583 12.4648 13.3417 12.2696 13.1464C12.0743 12.9512 11.7577 12.9512 11.5625 13.1464L9.56246 15.1464C9.3672 15.3417 9.3672 15.6583 9.56246 15.8536L11.5625 17.8536ZM11.1231 15H12.9837Z" fill="#212121"/>
</svg>
