<svg width="20" height="20" viewBox="0 0 20 20" fill="none" xmlns="http://www.w3.org/2000/svg">
<path d="M14.8546 9.6459L11.8546 6.6459C11.7607 6.55201 11.6334 6.49927 11.5006 6.49927C11.3679 6.49927 11.2405 6.55201 11.1466 6.6459C11.0527 6.73979 11 6.86712 11 6.9999C11 7.13268 11.0527 7.26001 11.1466 7.3539L13.2936 9.4999H12.2022L12.1999 9.4999H10.0999C9.29994 9.4999 8.59993 9.2999 7.99993 8.9999C7.39993 8.5999 6.79993 8.1999 6.39993 7.5999C6.29993 7.2999 5.99993 7.2999 5.79993 7.3999C5.49993 7.5999 5.49993 7.8999 5.69993 8.0999C6.19993 8.8999 6.79993 9.4999 7.59993 9.89989C8.29993 10.2999 9.19993 10.4999 10.0999 10.4999L13.2936 10.4999L11.1466 12.6459C11.0527 12.7398 11 12.8671 11 12.9999C11 13.1327 11.0527 13.26 11.1466 13.3539C11.2405 13.4478 11.3679 13.5005 11.5006 13.5005C11.6334 13.5005 11.7607 13.4478 11.8546 13.3539L14.8546 10.3539C14.9012 10.3075 14.9381 10.2523 14.9633 10.1915C14.9886 10.1308 15.0015 10.0657 15.0015 9.9999C15.0015 9.93413 14.9886 9.86901 14.9633 9.80827C14.9381 9.74752 14.9012 9.69234 14.8546 9.6459Z" fill="black"/>
<path d="M10 2C8.41775 2 6.87103 2.46919 5.55544 3.34824C4.23985 4.22729 3.21447 5.47672 2.60897 6.93853C2.00347 8.40034 1.84504 10.0089 2.15372 11.5607C2.4624 13.1126 3.22433 14.538 4.34315 15.6569C5.46197 16.7757 6.88743 17.5376 8.43928 17.8463C9.99113 18.155 11.5997 17.9965 13.0615 17.391C14.5233 16.7855 15.7727 15.7602 16.6518 14.4446C17.5308 13.129 18 11.5823 18 10C18 7.87827 17.1572 5.84344 15.6569 4.34315C14.1566 2.84285 12.1217 2 10 2ZM10 17C8.61553 17 7.26216 16.5895 6.11101 15.8203C4.95987 15.0511 4.06266 13.9579 3.53285 12.6788C3.00303 11.3997 2.86441 9.99224 3.13451 8.63437C3.4046 7.2765 4.07129 6.02922 5.05026 5.05025C6.02922 4.07128 7.2765 3.4046 8.63437 3.1345C9.99224 2.86441 11.3997 3.00303 12.6788 3.53284C13.9579 4.06266 15.0511 4.95986 15.8203 6.11101C16.5895 7.26215 17 8.61553 17 10C17 11.8565 16.2625 13.637 14.9498 14.9497C13.637 16.2625 11.8565 17 10 17Z" fill="black"/>
</svg>
