<svg width="20" height="20" viewBox="0 0 20 20" fill="none" xmlns="http://www.w3.org/2000/svg">
<path d="M10 2C14.4183 2 18 5.58172 18 10C18 14.4183 14.4183 18 10 18C5.58172 18 2 14.4183 2 10C2 5.58172 5.58172 2 10 2Z" fill="url(#paint0_linear_378174_8858)"/>
<path fill-rule="evenodd" clip-rule="evenodd" d="M10.5 6.5C10.5 6.22386 10.2761 6 10 6C9.72386 6 9.5 6.22386 9.5 6.5V11C9.5 11.2761 9.72386 11.5 10 11.5C10.2761 11.5 10.5 11.2761 10.5 11V6.5ZM10 14C10.4142 14 10.75 13.6642 10.75 13.25C10.75 12.8358 10.4142 12.5 10 12.5C9.58579 12.5 9.25 12.8358 9.25 13.25C9.25 13.6642 9.58579 14 10 14Z" fill="url(#paint1_linear_378174_8858)"/>
<defs>
<linearGradient id="paint0_linear_378174_8858" x1="4.5" y1="-0.5" x2="15" y2="19.5" gradientUnits="userSpaceOnUse">
<stop stop-color="#FFCD0F"/>
<stop offset="1" stop-color="#FE8401"/>
</linearGradient>
<linearGradient id="paint1_linear_378174_8858" x1="8" y1="6" x2="12" y2="14" gradientUnits="userSpaceOnUse">
<stop stop-color="#4A4A4A"/>
<stop offset="1" stop-color="#212121"/>
</linearGradient>
</defs>
</svg>
