<svg width="28" height="28" viewBox="0 0 28 28" fill="none" xmlns="http://www.w3.org/2000/svg">
<path d="M20.19 16.5439C20.0722 16.8205 19.8006 17 19.5 17C19.1994 17 18.9278 16.8205 18.81 16.5439L13.06 3.04386C12.8977 2.66277 13.075 2.22226 13.4561 2.05995C13.8372 1.89763 14.2777 2.07498 14.44 2.45607L19.5 14.336L24.56 2.45607C24.7223 2.07498 25.1628 1.89763 25.5439 2.05995C25.925 2.22226 26.1023 2.66277 25.94 3.04386L20.19 16.5439Z" fill="#212121"/>
<path d="M8.4961 1.99999C8.79673 1.99999 9.06832 2.1795 9.18612 2.45609L12.9834 11.3714C13.0151 11.4256 13.0403 11.4841 13.0577 11.5459L14.9361 15.9561C15.0984 16.3372 14.9211 16.7777 14.54 16.94C14.1589 17.1023 13.7184 16.925 13.5561 16.5439L11.8337 12.5H5.15853L3.43612 16.5439C3.27381 16.925 2.83329 17.1023 2.45221 16.94C2.07112 16.7777 1.89377 16.3372 2.05609 15.9561L3.96598 11.472C3.97018 11.4615 3.97461 11.4511 3.97927 11.4408L7.80609 2.45609C7.92389 2.1795 8.19547 1.99999 8.4961 1.99999ZM5.79742 11H11.1948L8.4961 4.66393L5.79742 11Z" fill="#212121"/>
<path d="M21.97 19.2185C22.263 18.9258 22.7379 18.926 23.0306 19.2191L25.778 21.9691C26.0706 22.2619 26.0706 22.7364 25.778 23.0292L23.0306 25.7792C22.7379 26.0722 22.263 26.0725 21.97 25.7797C21.677 25.487 21.6767 25.0121 21.9695 24.7191L23.438 23.2492H4.56335L6.03186 24.7191C6.32462 25.0121 6.32439 25.487 6.03136 25.7797C5.73833 26.0725 5.26345 26.0723 4.9707 25.7792L2.22332 23.0292C1.93076 22.7364 1.93076 22.2619 2.22332 21.9691L4.9707 19.2191C5.26345 18.926 5.73833 18.9258 6.03136 19.2186C6.32439 19.5113 6.32462 19.9862 6.03187 20.2792L4.56334 21.7492H23.438L21.9695 20.2792C21.6767 19.9862 21.677 19.5113 21.97 19.2185Z" fill="#212121"/>
</svg>
