<svg width="16" height="16" viewBox="0 0 16 16" fill="none" xmlns="http://www.w3.org/2000/svg">
<path d="M8.00001 2C4.68631 2 2.00001 4.68629 2.00001 8C2.00001 9.03957 2.2648 10.0186 2.73086 10.872L2.01925 13.3626C1.9683 13.541 2.02025 13.7329 2.15422 13.8612C2.2882 13.9894 2.48217 14.033 2.65813 13.9743L4.99618 13.195C5.87989 13.707 6.90639 14 8.00001 14C11.3137 14 14 11.3137 14 8C14 4.68629 11.3137 2 8.00001 2Z" fill="url(#paint0_linear_378174_10000)"/>
<path d="M6 7C6 6.72386 6.22386 6.5 6.5 6.5H9.5C9.77614 6.5 10 6.72386 10 7C10 7.27614 9.77614 7.5 9.5 7.5H6.5C6.22386 7.5 6 7.27614 6 7ZM6.5 8.5H8.5C8.77614 8.5 9 8.72386 9 9C9 9.27614 8.77614 9.5 8.5 9.5H6.5C6.22386 9.5 6 9.27614 6 9C6 8.72386 6.22386 8.5 6.5 8.5Z" fill="url(#paint1_linear_378174_10000)"/>
<defs>
<linearGradient id="paint0_linear_378174_10000" x1="2.42857" y1="4.25" x2="12.9045" y2="22.111" gradientUnits="userSpaceOnUse">
<stop stop-color="#0FAFFF"/>
<stop offset="1" stop-color="#CC23D1"/>
</linearGradient>
<linearGradient id="paint1_linear_378174_10000" x1="6.34989" y1="6.55267" x2="6.72787" y2="9.80142" gradientUnits="userSpaceOnUse">
<stop stop-color="#FDFDFD"/>
<stop offset="1" stop-color="#CCEAFF"/>
</linearGradient>
</defs>
</svg>
