<svg width="48" height="48" viewBox="0 0 48 48" fill="none" xmlns="http://www.w3.org/2000/svg">
<path d="M24 8.5C18.7533 8.5 14.5 12.7533 14.5 18C14.5 18.0741 14.5008 18.1479 14.5025 18.2215C14.5102 18.5579 14.3819 18.8831 14.1468 19.1237C13.9116 19.3644 13.5893 19.5 13.2528 19.5H11.5C8.18629 19.5 5.5 22.1863 5.5 25.5C5.5 28.8137 8.18629 31.5 11.5 31.5H21.2402C21.0826 32.309 21 33.1449 21 34H11.5C6.80558 34 3 30.1944 3 25.5C3 20.8056 6.80558 17 11.5 17H12.0411C12.5492 10.8405 17.7093 6 24 6C30.2907 6 35.4508 10.8405 35.9589 17H36.5C41.1944 17 45 20.8056 45 25.5C45 25.9741 44.9612 26.4392 44.8866 26.8921C44.1757 25.8056 43.3066 24.832 42.312 24.0041C41.6474 21.4142 39.2972 19.5 36.5 19.5H34.7472C34.4107 19.5 34.0884 19.3644 33.8532 19.1237C33.6181 18.8831 33.4898 18.5579 33.4975 18.2215C33.4992 18.1479 33.5 18.074 33.5 18C33.5 12.7533 29.2467 8.5 24 8.5ZM45 34C45 40.0751 40.0751 45 34 45C27.9249 45 23 40.0751 23 34C23 27.9249 27.9249 23 34 23C40.0751 23 45 27.9249 45 34ZM34 26C33.4477 26 33 26.4477 33 27V38.5858L29.7071 35.2929C29.3166 34.9024 28.6834 34.9024 28.2929 35.2929C27.9024 35.6834 27.9024 36.3166 28.2929 36.7071L33.2929 41.7071C33.6834 42.0976 34.3166 42.0976 34.7071 41.7071L39.7071 36.7071C40.0976 36.3166 40.0976 35.6834 39.7071 35.2929C39.3166 34.9024 38.6834 34.9024 38.2929 35.2929L35 38.5858V27C35 26.4477 34.5523 26 34 26Z" fill="#212121"/>
</svg>
