<svg width="48" height="48" viewBox="0 0 48 48" fill="none" xmlns="http://www.w3.org/2000/svg">
<path d="M13.0448 16C13.5501 10.3935 18.262 6 24 6C29.738 6 34.4499 10.3935 34.9552 16H35.25C39.5302 16 43 19.4698 43 23.75C43 24.0487 42.9831 24.3434 42.9502 24.6333C42.1752 23.7126 41.2746 22.9009 40.275 22.2246C39.6215 20.0691 37.619 18.5 35.25 18.5H33.75C33.0596 18.5 32.5 17.9404 32.5 17.25V17C32.5 12.3056 28.6944 8.5 24 8.5C19.3056 8.5 15.5 12.3056 15.5 17V17.25C15.5 17.9404 14.9404 18.5 14.25 18.5H12.75C9.8505 18.5 7.5 20.8505 7.5 23.75C7.5 26.6495 9.8505 29 12.75 29H20.627C20.3679 29.8021 20.1846 30.6382 20.0856 31.5H12.75C8.46979 31.5 5 28.0302 5 23.75C5 19.4698 8.46979 16 12.75 16H13.0448ZM44 33C44 26.9249 39.0751 22 33 22C26.9249 22 22 26.9249 22 33C22 39.0751 26.9249 44 33 44C39.0751 44 44 39.0751 44 33ZM33 41C32.7348 41 32.4804 40.8946 32.2929 40.7071L27.2929 35.7071C26.9024 35.3166 26.9024 34.6834 27.2929 34.2929C27.6834 33.9024 28.3166 33.9024 28.7071 34.2929L32 37.5858V26C32 25.4477 32.4477 25 33 25C33.5523 25 34 25.4477 34 26V37.5858L37.2929 34.2929C37.6834 33.9024 38.3166 33.9024 38.7071 34.2929C39.0976 34.6834 39.0976 35.3166 38.7071 35.7071L33.7071 40.7071C33.5196 40.8946 33.2652 41 33 41Z" fill="#212121"/>
</svg>
