<svg width="28" height="28" viewBox="0 0 28 28" fill="none" xmlns="http://www.w3.org/2000/svg">
<path d="M14 3C10.4677 3 7.5468 5.61603 7.06858 9.01667C4.23266 9.23671 2 11.6076 2 14.5C2 17.5376 4.46243 20 7.5 20H12.0164C12.0055 19.8347 12 19.668 12 19.5C12 15.3579 15.3579 12 19.5 12C22.2046 12 24.5749 13.4316 25.8943 15.5784C25.9636 15.2297 26 14.8691 26 14.5C26 11.6076 23.7673 9.23671 20.9314 9.01667C20.4532 5.61603 17.5323 3 14 3ZM26 19.5C26 23.0899 23.0899 26 19.5 26C15.9101 26 13 23.0899 13 19.5C13 15.9101 15.9101 13 19.5 13C23.0899 13 26 15.9101 26 19.5ZM20 15.5C20 15.2239 19.7761 15 19.5 15C19.2239 15 19 15.2239 19 15.5V22.2929L16.8536 20.1464C16.6583 19.9512 16.3417 19.9512 16.1464 20.1464C15.9512 20.3417 15.9512 20.6583 16.1464 20.8536L19.1464 23.8536C19.1944 23.9015 19.2496 23.9377 19.3086 23.9621C19.3667 23.9861 19.4303 23.9996 19.497 24L19.5 24L19.503 24C19.63 23.9992 19.7567 23.9504 19.8536 23.8536L22.8536 20.8536C23.0488 20.6583 23.0488 20.3417 22.8536 20.1464C22.6583 19.9512 22.3417 19.9512 22.1464 20.1464L20 22.2929V15.5Z" fill="#212121"/>
</svg>
