<svg width="16" height="16" viewBox="0 0 16 16" fill="none" xmlns="http://www.w3.org/2000/svg">
<path d="M14.1465 1.14648C14.3418 0.951216 14.6583 0.951215 14.8535 1.14648C15.0487 1.34174 15.0488 1.65826 14.8535 1.85351L1.85351 14.8535C1.65826 15.0488 1.34174 15.0487 1.14647 14.8535C0.951214 14.6583 0.951218 14.3418 1.14647 14.1465L14.1465 1.14648ZM11.1025 8.00391C11.2264 8.02295 11.3443 8.07072 11.4463 8.14356C11.5824 8.23918 11.6849 8.37596 11.7393 8.5332L11.9912 9.30664C12.0443 9.46461 12.134 9.60891 12.252 9.72657C12.3698 9.84391 12.5131 9.93284 12.6709 9.98535L13.4356 10.2344C13.5562 10.272 13.6664 10.3375 13.7568 10.4258C13.8472 10.5141 13.9157 10.6225 13.9561 10.7422C13.9965 10.862 14.0078 10.9902 13.9893 11.1152C13.9707 11.2402 13.9229 11.359 13.8496 11.4619C13.753 11.598 13.6157 11.7004 13.458 11.7549L12.6865 12.0068C12.528 12.0585 12.3839 12.1472 12.2666 12.2656C12.1489 12.384 12.06 12.5283 12.0068 12.6865L11.7588 13.4492C11.7033 13.6107 11.5975 13.7502 11.458 13.8486C11.3241 13.9447 11.1638 13.9975 10.999 13.999C10.8326 13.9989 10.6701 13.9467 10.5342 13.8506C10.3992 13.7547 10.2969 13.6192 10.2422 13.4629L9.98926 12.6895C9.93792 12.5303 9.84966 12.3848 9.73145 12.2666C9.61279 12.1484 9.4683 12.0592 9.30957 12.0059L8.5459 11.7588C8.3844 11.7036 8.24459 11.5986 8.14648 11.459C8.07415 11.3578 8.02623 11.241 8.00683 11.1182C7.98749 10.9954 7.99655 10.8694 8.03418 10.751C8.07184 10.6326 8.13698 10.5246 8.22363 10.4356C8.31031 10.3465 8.41682 10.2791 8.53418 10.2383L9.31055 9.98535C9.46445 9.93117 9.60423 9.84181 9.71875 9.72559C9.83471 9.60696 9.92239 9.46313 9.97461 9.30567L10.2217 8.54395C10.261 8.42504 10.3274 8.31697 10.416 8.22852C10.5048 8.14004 10.6133 8.07312 10.7324 8.03418C10.8516 7.99526 10.9786 7.98487 11.1025 8.00391ZM5.97851 2.00292C6.16906 2.00293 6.35581 2.06079 6.51269 2.16894C6.66793 2.27853 6.78538 2.43408 6.84863 2.61328L7.20117 3.69726C7.28473 3.94856 7.42586 4.17715 7.61328 4.36425C7.80077 4.55138 8.02973 4.69229 8.28125 4.77539L8.90234 4.97558L4.97363 8.9043L4.77636 8.30078C4.71606 8.11743 4.62507 7.94553 4.50683 7.79297C4.463 7.73664 4.41497 7.68302 4.36425 7.63281C4.17656 7.4445 3.94742 7.30223 3.69531 7.21777L2.6289 6.87109C2.44688 6.80981 2.28842 6.69266 2.17577 6.53711C2.0632 6.38158 2.00143 6.19491 1.99999 6.00293C1.9986 5.81095 2.05672 5.62298 2.16698 5.46582C2.27726 5.30865 2.43423 5.18999 2.61523 5.12597L3.69921 4.77539C3.94255 4.6896 4.16403 4.54943 4.3457 4.36621C4.52724 4.18303 4.66437 3.96074 4.74804 3.71679L5.10351 2.62695C5.16598 2.4419 5.28563 2.28141 5.44531 2.16894C5.60207 2.06088 5.78812 2.00302 5.97851 2.00292Z" fill="#212121"/>
</svg>
