<svg width="24" height="24" viewBox="0 0 24 24" fill="none" xmlns="http://www.w3.org/2000/svg">
<path d="M20.7198 2.21969C21.0127 1.92688 21.4875 1.92683 21.7804 2.21969C22.0731 2.51257 22.0731 2.98739 21.7804 3.28024L15.9454 9.11524C15.9787 9.23362 15.9977 9.35616 16.0001 9.48047C16.0058 9.78387 15.9163 10.0818 15.7432 10.3311C15.5701 10.5802 15.3224 10.7686 15.0362 10.8692L13.7842 11.2754L11.2647 13.7949L10.8282 15.1231C10.7168 15.3822 10.5315 15.6029 10.2959 15.7578C10.0601 15.9127 9.78317 15.9958 9.50102 15.9952V15.9991C9.36941 15.9995 9.23967 15.98 9.11429 15.9453L3.28028 21.7803C2.98742 22.0731 2.51259 22.0731 2.21973 21.7803C1.92706 21.4875 1.92702 21.0126 2.21973 20.7198L20.7198 2.21969ZM16.9727 13.0049C17.2094 13.0026 17.4414 13.0741 17.6358 13.209C17.8303 13.344 17.9781 13.5362 18.0587 13.7588L18.3878 14.7725C18.4522 14.9625 18.5601 15.1358 18.7022 15.2774C18.8444 15.4187 19.018 15.5254 19.2081 15.5889L20.1993 15.9121C20.4279 15.9836 20.6289 16.1258 20.7726 16.3174C20.916 16.5091 20.9958 16.7411 21.0001 16.9805C21.0044 17.2199 20.9334 17.4547 20.797 17.6514C20.6603 17.8481 20.4642 17.9975 20.2384 18.0772L19.2247 18.4063C19.0349 18.4711 18.8618 18.5782 18.7198 18.7198C18.5777 18.8625 18.4698 19.0365 18.4063 19.2276L18.085 20.2169C18.0075 20.447 17.8587 20.6472 17.6602 20.7872C17.4684 20.925 17.2373 20.9992 17.0011 20.9991C16.7611 20.999 16.5265 20.9231 16.3321 20.7823C16.1419 20.6466 15.9981 20.4544 15.9219 20.2335L15.5938 19.2256C15.53 19.0343 15.4223 18.8601 15.2803 18.7168C15.1379 18.5742 14.9638 18.4669 14.7725 18.4034L13.7813 18.0801C13.5513 18.0028 13.3515 17.8541 13.211 17.6563C13.0738 17.4641 13.0003 17.2332 13.001 16.9971C13.0013 16.7594 13.0758 16.5274 13.2139 16.334C13.351 16.1397 13.5464 15.9936 13.7715 15.917L14.7774 15.5909C14.9642 15.5245 15.1339 15.4162 15.2725 15.2744C15.4112 15.1325 15.5162 14.96 15.5782 14.7715L15.9014 13.7803C15.9776 13.5562 16.1219 13.3605 16.3136 13.2217C16.5053 13.083 16.7361 13.0073 16.9727 13.0049ZM9.45512 2.99801C9.75543 2.9956 10.0498 3.08671 10.2959 3.25876C10.5421 3.43092 10.7283 3.67602 10.8291 3.95896L11.4073 5.73631C11.5483 6.16066 11.7865 6.54695 12.1026 6.86327C12.4186 7.17938 12.8045 7.41732 13.2286 7.55859L13.252 7.56542L7.5596 13.2588C7.4577 12.9497 7.30441 12.6599 7.10549 12.4024C7.03211 12.3077 6.9522 12.2172 6.86721 12.1328C6.55049 11.8151 6.16377 11.575 5.7383 11.4326L3.98438 10.8643C3.69534 10.7661 3.44342 10.579 3.26661 10.3301C3.13693 10.1477 3.05118 9.93695 3.01661 9.71582C2.98209 9.49474 2.99956 9.26793 3.06739 9.05469C3.13527 8.84153 3.25232 8.64677 3.40821 8.48633C3.56414 8.32593 3.75568 8.20381 3.96681 8.12988L5.74416 7.55859C6.15494 7.41433 6.5275 7.17833 6.83401 6.86913C7.14058 6.55978 7.37311 6.18465 7.5137 5.77244L8.09671 3.98044C8.19293 3.69608 8.37602 3.44848 8.61917 3.27243C8.86241 3.09645 9.15491 3.00054 9.45512 2.99801Z" fill="#212121"/>
</svg>
