<svg width="16" height="16" viewBox="0 0 16 16" fill="none" xmlns="http://www.w3.org/2000/svg">
<path d="M8.50041 4.5004C8.50041 3.11947 7.38094 2 6 2C4.61906 2 3.49959 3.11947 3.49959 4.5004C3.49959 5.88134 4.61906 7.00081 6 7.00081C7.38094 7.00081 8.50041 5.88134 8.50041 4.5004ZM4.4996 4.5004C4.4996 3.67175 5.17135 3 6 3C6.82865 3 7.5004 3.67175 7.5004 4.5004C7.5004 5.32906 6.82865 6.00081 6 6.00081C5.17135 6.00081 4.4996 5.32906 4.4996 4.5004Z" fill="#212121"/>
<path d="M9 5C9 5.52592 9.203 6.00443 9.53491 6.36145C10.1452 6.12793 10.8076 6 11.5 6C11.8966 6 12.2833 6.04197 12.6561 6.12171C12.8732 5.80182 13 5.41572 13 5C13 3.89543 12.1046 3 11 3C9.89543 3 9 3.89543 9 5ZM11 4C11.5523 4 12 4.44772 12 5C12 5.55228 11.5523 6 11 6C10.4477 6 10 5.55228 10 5C10 4.44772 10.4477 4 11 4Z" fill="#212121"/>
<path d="M6.06019 13.0008C6.10955 13.0008 6.15849 13.0005 6.20699 12.9998C6.11593 12.6778 6.05345 12.3438 6.02249 12.0007C3.917 11.9939 3 11.4138 3 10.2746V9.5C3 9.22386 3.22386 9 3.5 9H6.59971C6.78261 8.64222 7.00353 8.30711 7.25716 8H3.5C2.67157 8 2 8.67157 2 9.5V10.2746C2 12.0969 3.44552 13.0008 6.06019 13.0008Z" fill="#212121"/>
<path d="M16 11.5C16 13.9853 13.9853 16 11.5 16C9.01472 16 7 13.9853 7 11.5C7 9.01472 9.01472 7 11.5 7C13.9853 7 16 9.01472 16 11.5ZM11.5 9C11.2239 9 11 9.22386 11 9.5V11.5C11 11.7761 11.2239 12 11.5 12C11.7761 12 12 11.7761 12 11.5V9.5C12 9.22386 11.7761 9 11.5 9ZM11.5 14.125C11.8452 14.125 12.125 13.8452 12.125 13.5C12.125 13.1548 11.8452 12.875 11.5 12.875C11.1548 12.875 10.875 13.1548 10.875 13.5C10.875 13.8452 11.1548 14.125 11.5 14.125Z" fill="#212121"/>
</svg>
