<svg width="32" height="32" viewBox="0 0 32 32" fill="none" xmlns="http://www.w3.org/2000/svg">
<path d="M4.01758 2.95142C4.01758 2.39913 3.56986 1.95142 3.01758 1.95142C2.46529 1.95142 2.01758 2.39913 2.01758 2.95142V6.95142C2.01758 8.60827 3.36072 9.95142 5.01758 9.95142H5.47946L12.0335 22.9031C12.2685 23.3675 12.67 23.7134 13.1442 23.8832L13.1434 23.8894C13.0714 24.4969 13.0161 25.2138 13.0161 25.8481C13.0161 26.7079 13.2087 27.6704 13.6398 28.4546C14.0686 29.2348 14.8356 29.9894 15.9839 30.0032C15.9893 30.0032 15.9946 30.0034 16 30.0034C16.0054 30.0034 16.0107 30.0034 16.0161 30.0034C17.1644 29.9895 17.9314 29.2348 18.3602 28.4546C18.7913 27.6704 18.9839 26.7079 18.9839 25.8481C18.9839 25.2138 18.9286 24.4969 18.8566 23.8894C18.8562 23.8866 18.8559 23.8838 18.8556 23.881C19.3269 23.7106 19.7259 23.3659 19.9599 22.9038L26.5205 9.95142H27.0176C28.6744 9.95142 30.0176 8.60827 30.0176 6.95142V2.95142C30.0176 2.39913 29.5699 1.95142 29.0176 1.95142C28.4653 1.95142 28.0176 2.39913 28.0176 2.95142V6.95142C28.0176 7.5037 27.5699 7.95142 27.0176 7.95142H5.01758C4.46529 7.95142 4.01758 7.5037 4.01758 6.95142V2.95142ZM16.8552 24.0001C16.8604 24.0409 16.8655 24.0825 16.8705 24.1247C16.9363 24.6804 16.9839 25.3151 16.9839 25.8481C16.9839 26.4473 16.8432 27.0625 16.6075 27.4912C16.3811 27.9031 16.1652 27.9976 16 28.0032C15.8348 27.9976 15.6189 27.9031 15.3925 27.4912C15.1568 27.0625 15.0161 26.4473 15.0161 25.8481C15.0161 25.3151 15.0637 24.6804 15.1295 24.1247L15.1448 24.0001H16.8552ZM24.2786 9.95142L18.1758 22.0001H13.818L7.72096 9.95142H24.2786Z" fill="#212121"/>
</svg>
