<svg width="16" height="16" viewBox="0 0 16 16" fill="none" xmlns="http://www.w3.org/2000/svg">
<path d="M6.75 14.25C6.697 14.25 6.646 14.245 6.595 14.234C6.229 14.158 3 13.423 3 11.247C3 9.98602 4.094 9.39402 4.893 8.96102C5.674 8.53702 6 8.30902 6 7.99402C6 7.67902 5.674 7.45202 4.893 7.03002C4.094 6.59702 3 6.00502 3 4.74602C3 2.57302 6.229 1.84102 6.598 1.76502C6.647 1.75402 6.699 1.74902 6.75 1.74902C7.103 1.74902 7.411 2.00002 7.484 2.34602C7.567 2.75102 7.306 3.14902 6.902 3.23302C6.15 3.39102 4.5 3.99102 4.5 4.74602C4.5 5.06002 4.826 5.28802 5.607 5.71102C6.407 6.14502 7.5 6.73602 7.5 7.99402C7.5 9.25202 6.406 9.84602 5.608 10.279C4.826 10.703 4.5 10.931 4.5 11.247C4.5 12.004 6.151 12.607 6.904 12.766C7.308 12.851 7.568 13.249 7.484 13.654C7.411 14 7.102 14.25 6.75 14.25ZM12.984 13.654C13.025 13.458 12.987 13.258 12.878 13.09C12.769 12.923 12.6 12.807 12.404 12.766C11.651 12.607 10 12.003 10 11.247C10 10.932 10.326 10.704 11.107 10.28C11.906 9.84702 13 9.25502 13 7.99402C13 6.73302 11.906 6.14302 11.107 5.71102C10.326 5.28802 10 5.06102 10 4.74602C10 4.03302 11.565 3.40902 12.404 3.23302C12.808 3.14802 13.068 2.75002 12.984 2.34602C12.913 2.00002 12.603 1.74902 12.248 1.74902C12.199 1.74902 12.15 1.75402 12.098 1.76402C11.73 1.84002 8.5 2.57402 8.5 4.74502C8.5 6.00402 9.594 6.59602 10.393 7.02902C11.174 7.45102 11.5 7.67802 11.5 7.99302C11.5 8.30802 11.174 8.53602 10.393 8.96002C9.594 9.39302 8.5 9.98502 8.5 11.246C8.5 13.423 11.729 14.157 12.097 14.233C12.148 14.244 12.2 14.249 12.25 14.249C12.603 14.249 12.911 14 12.984 13.654Z" fill="#212121"/>
</svg>
