<svg width="16" height="16" viewBox="0 0 16 16" fill="none" xmlns="http://www.w3.org/2000/svg">
<path d="M5.39935 3C5.22076 3 5.05573 3.09525 4.9664 3.24989L2.36685 7.74989C2.27746 7.90465 2.27746 8.09535 2.36685 8.25011L4.9664 12.7501C5.05573 12.9047 5.22076 13 5.39935 13H10.5994C10.778 13 10.943 12.9047 11.0324 12.7501L13.6319 8.25011C13.7213 8.09535 13.7213 7.90465 13.6319 7.74989L11.0324 3.24989C10.943 3.09525 10.778 3 10.5994 3H5.39935ZM4.1005 2.74968C4.36849 2.28576 4.86358 2 5.39935 2H10.5994C11.1352 2 11.6303 2.28576 11.8983 2.74968L14.4978 7.24968C14.766 7.71394 14.766 8.28605 14.4978 8.75032L11.8983 13.2503C11.6303 13.7142 11.1352 14 10.5994 14H5.39935C4.86358 14 4.36849 13.7142 4.1005 13.2503L1.50095 8.75032C1.23276 8.28606 1.23276 7.71395 1.50095 7.24968L4.1005 2.74968Z" fill="#212121"/>
</svg>
