<svg width="20" height="20" viewBox="0 0 20 20" fill="none" xmlns="http://www.w3.org/2000/svg">
<path d="M2 4.25C2 3.83579 2.33579 3.5 2.75 3.5H17.25C17.6642 3.5 18 3.83579 18 4.25C18 4.66421 17.6642 5 17.25 5H2.75C2.33579 5 2 4.66421 2 4.25Z" fill="#212121"/>
<path d="M2 9.25C2 8.83579 2.33579 8.5 2.75 8.5H17.25C17.6642 8.5 18 8.83579 18 9.25C18 9.66421 17.6642 10 17.25 10H2.75C2.33579 10 2 9.66421 2 9.25Z" fill="#212121"/>
<path d="M4.56066 15L4.78033 15.2197C5.07322 15.5126 5.07322 15.9874 4.78033 16.2803C4.48744 16.5732 4.01256 16.5732 3.71967 16.2803L2.21967 14.7803C1.92678 14.4874 1.92678 14.0126 2.21967 13.7197L3.71967 12.2197C4.01256 11.9268 4.48744 11.9268 4.78033 12.2197C5.07322 12.5126 5.07322 12.9874 4.78033 13.2803L4.56066 13.5H15.4393L15.2197 13.2803C14.9268 12.9874 14.9268 12.5126 15.2197 12.2197C15.5126 11.9268 15.9874 11.9268 16.2803 12.2197L17.7803 13.7197C18.0732 14.0126 18.0732 14.4874 17.7803 14.7803L16.2803 16.2803C15.9874 16.5732 15.5126 16.5732 15.2197 16.2803C14.9268 15.9874 14.9268 15.5126 15.2197 15.2197L15.4393 15H4.56066Z" fill="#212121"/>
</svg>
