<?xml version="1.0" encoding="UTF-8"?>
<svg width="24px" height="24px" viewBox="0 0 24 24" version="1.1" xmlns="http://www.w3.org/2000/svg" xmlns:xlink="http://www.w3.org/1999/xlink">
    <!-- Generator: Sketch 64 (93537) - https://sketch.com -->
    <title>ic_fluent_text_align_distributed_24_filled</title>
    <desc>Created with Sketch.</desc>
    <g id="ðŸ”-System-Icons" stroke="none" stroke-width="1" fill="none" fill-rule="evenodd">
        <g id="ic_fluent_text_align_distributed_24_filled" fill="#212121" fill-rule="nonzero">
            <path d="M4.29289,15.2929 C4.68342,14.9024 5.31658,14.9024 5.70711,15.2929 C6.06759,15.6533615 6.09531923,16.2206207 5.79029769,16.6128973 L5.70711,16.7071 L5.41421,17 L18.5858,17 L18.2929,16.7071 C17.9024,16.3166 17.9024,15.6834 18.2929,15.2929 C18.6533615,14.9324385 19.2206207,14.9047107 19.6128973,15.2097166 L19.7071,15.2929 L21.7071,17.2929 C22.0675615,17.6533615 22.0952893,18.2206207 21.7902834,18.6128973 L21.7071,18.7071 L19.7071,20.7071 C19.3166,21.0976 18.6834,21.0976 18.2929,20.7071 C17.9324385,20.3466385 17.9047107,19.7793793 18.2097166,19.3871027 L18.2929,19.2929 L18.5858,19 L5.41421,19 L5.70711,19.2929 C6.09763,19.6834 6.09763,20.3166 5.70711,20.7071 C5.34662077,21.0675615 4.77939355,21.0952893 4.38709848,20.7902834 L4.29289,20.7071 L2.29289,18.7071 C1.93241,18.3466385 1.90468077,17.7793793 2.20970231,17.3871027 L2.29289,17.2929 L4.29289,15.2929 Z M21,11 C21.5523,11 22,11.4477 22,12 C22,12.51285 21.613973,12.9355092 21.1166239,12.9932725 L21,13 L3,13 C2.44772,13 2,12.5523 2,12 C2,11.48715 2.38604429,11.0644908 2.88337975,11.0067275 L3,11 L21,11 Z M21,5 C21.5523,5 22,5.44772 22,6 C22,6.55228 21.5523,7 21,7 L3,7 C2.44772,7 2,6.55228 2,6 C2,5.44772 2.44772,5 3,5 L21,5 Z" id="ðŸŽ¨-Color"></path>
        </g>
    </g>
</svg>