<svg width="12" height="12" viewBox="0 0 12 12" fill="none" xmlns="http://www.w3.org/2000/svg">
<path d="M4.07227 11H1.5C1.22386 11 1 10.7761 1 10.5C1 10.2239 1.22386 10 1.5 10H3.57227L4.07227 11ZM8.25 1C9.2165 1 10 1.7835 10 2.75V6.25C10 7.2165 9.2165 8 8.25 8H7.30859L5.94727 10.7236C5.86257 10.893 5.68939 11 5.5 11C5.31061 11 5.13743 10.893 5.05273 10.7236L3.69141 8H2.75C1.7835 8 1 7.2165 1 6.25V2.75C1 1.7835 1.7835 1 2.75 1H8.25ZM10.5 10C10.7761 10 11 10.2239 11 10.5C11 10.7761 10.7761 11 10.5 11H6.92773L7.42773 10H10.5ZM3.5 3C3.22426 3.00025 3.00026 3.2242 3 3.5V4C3 4.17854 3.0954 4.34326 3.25 4.43262C3.40473 4.52203 3.59524 4.52197 3.75 4.43262L3.875 4.35938C3.82184 4.47002 3.75712 4.57142 3.68457 4.66211C3.577 4.79657 3.46179 4.90149 3.37305 4.97266C3.30821 5.02464 3.25958 5.05714 3.24512 5.06641L3.24414 5.06738C3.00738 5.20944 2.92928 5.51713 3.07129 5.75391C3.19557 5.96104 3.4467 6.04589 3.66602 5.96875C3.7889 5.90992 3.88955 5.8399 3.99805 5.75293C4.12858 5.64828 4.30124 5.49283 4.46582 5.28711C4.79582 4.8746 5.11695 4.23043 4.95996 3.40625C4.92061 3.19996 4.75751 3.04368 4.55664 3.00781L4.46875 3H3.5ZM6.5 3C6.22426 3.00025 6.00026 3.2242 6 3.5V4C6 4.17854 6.0954 4.34326 6.25 4.43262C6.40473 4.52203 6.59524 4.52197 6.75 4.43262L6.875 4.35938C6.82184 4.47002 6.75712 4.57142 6.68457 4.66211C6.577 4.79657 6.46179 4.90149 6.37305 4.97266C6.30821 5.02464 6.25958 5.05714 6.24512 5.06641L6.24414 5.06738C6.00738 5.20944 5.92928 5.51713 6.07129 5.75391C6.19557 5.96104 6.4467 6.04589 6.66602 5.96875C6.7889 5.90992 6.88955 5.8399 6.99805 5.75293C7.12858 5.64828 7.30124 5.49283 7.46582 5.28711C7.79582 4.8746 8.11695 4.23043 7.95996 3.40625C7.92061 3.19996 7.75751 3.04368 7.55664 3.00781L7.46875 3H6.5Z" fill="#212121"/>
</svg>
