<svg width="28" height="28" viewBox="0 0 28 28" fill="none" xmlns="http://www.w3.org/2000/svg">
<path d="M17.3271 24.5039C17.7051 24.5425 18 24.8618 18 25.25C18 25.6382 17.7051 25.9575 17.3271 25.9961L17.25 26H2.75C2.33579 26 2 25.6642 2 25.25C2 24.8358 2.33579 24.5 2.75 24.5H17.25L17.3271 24.5039ZM8.41895 21H2.75C2.33579 21 2 20.6642 2 20.25C2 19.8358 2.33579 19.5 2.75 19.5H7.66895L8.41895 21ZM15.25 2C16.7688 2 18 3.23122 18 4.75V13.25C18 14.7688 16.7688 16 15.25 16H12.9639L10.6709 20.585C10.5439 20.839 10.2841 21 10 21C9.71592 21 9.45615 20.839 9.3291 20.585L7.03613 16H4.75C3.23122 16 2 14.7688 2 13.25V4.75C2 3.23122 3.23122 2 4.75 2H15.25ZM25.25 19.5C25.6642 19.5 26 19.8358 26 20.25C26 20.6642 25.6642 21 25.25 21H11.5811L12.3311 19.5H25.25ZM6.75 6C6.36183 6 6.04253 6.29488 6.00391 6.67285L6 6.75V8.25C6 8.47469 6.10066 8.68762 6.27441 8.83008C6.44818 8.97253 6.67713 9.02942 6.89746 8.98535L7.63281 8.83789C7.48351 9.22418 7.3087 9.53994 7.13477 9.79004C6.92262 10.095 6.71297 10.3105 6.5625 10.4453C6.48761 10.5124 6.42722 10.5591 6.38965 10.5869C6.37141 10.6004 6.35822 10.6097 6.35156 10.6143C6.00094 10.834 5.89489 11.2965 6.11426 11.6475C6.33381 11.9986 6.79624 12.1053 7.14746 11.8857L7.15039 11.8838L7.15527 11.8818C7.17575 11.8688 7.21995 11.8391 7.28223 11.793C7.35401 11.7398 7.45024 11.663 7.5625 11.5625C7.78693 11.3615 8.07759 11.0609 8.36523 10.6475C8.94554 9.81327 9.5 8.54018 9.5 6.75C9.5 6.55109 9.42093 6.36038 9.28027 6.21973C9.1749 6.11435 9.04145 6.04352 8.89746 6.01465L8.75 6H6.75ZM11.75 6C11.3618 6 11.0425 6.29488 11.0039 6.67285L11 6.75V8.25C11 8.47469 11.1007 8.68762 11.2744 8.83008C11.4482 8.97253 11.6771 9.02942 11.8975 8.98535L12.6328 8.83789C12.4835 9.22418 12.3087 9.53994 12.1348 9.79004C11.9226 10.095 11.713 10.3105 11.5625 10.4453C11.4876 10.5124 11.4272 10.5591 11.3896 10.5869C11.3714 10.6004 11.3582 10.6097 11.3516 10.6143C11.0009 10.834 10.8949 11.2965 11.1143 11.6475C11.3338 11.9986 11.7962 12.1053 12.1475 11.8857L12.1504 11.8838L12.1553 11.8818C12.1757 11.8688 12.22 11.8391 12.2822 11.793C12.354 11.7398 12.4502 11.663 12.5625 11.5625C12.7869 11.3615 13.0776 11.0609 13.3652 10.6475C13.9455 9.81327 14.5 8.54018 14.5 6.75C14.5 6.55109 14.4209 6.36038 14.2803 6.21973C14.1749 6.11435 14.0414 6.04352 13.8975 6.01465L13.75 6H11.75Z" fill="#212121"/>
</svg>
