<svg width="12" height="12" viewBox="0 0 12 12" fill="none" xmlns="http://www.w3.org/2000/svg">
<path d="M4.07227 11H1.5C1.22386 11 1 10.7761 1 10.5C1 10.2239 1.22386 10 1.5 10H3.57227L4.07227 11ZM8.25 1C9.2165 1 10 1.7835 10 2.75V6.25C10 7.2165 9.2165 8 8.25 8H7.30859L5.94727 10.7236C5.86257 10.893 5.68939 11 5.5 11C5.31061 11 5.13743 10.893 5.05273 10.7236L3.69141 8H2.75C1.7835 8 1 7.2165 1 6.25V2.75C1 1.7835 1.7835 1 2.75 1H8.25ZM10.5 10C10.7761 10 11 10.2239 11 10.5C11 10.7761 10.7761 11 10.5 11H6.92773L7.42773 10H10.5ZM2.75 2C2.33579 2 2 2.33579 2 2.75V6.25C2 6.66421 2.33579 7 2.75 7H4C4.18939 7 4.36257 7.10698 4.44727 7.27637L5.5 9.38184L6.55273 7.27637C6.63743 7.10698 6.81061 7 7 7H8.25C8.66421 7 9 6.66421 9 6.25V2.75C9 2.33579 8.66421 2 8.25 2H2.75ZM4.55664 3.00781C4.75751 3.04368 4.92061 3.19996 4.95996 3.40625C5.11695 4.23043 4.79582 4.8746 4.46582 5.28711C4.30124 5.49283 4.12858 5.64828 3.99805 5.75293C3.88897 5.84037 3.78926 5.91037 3.66602 5.96875C3.4467 6.04589 3.19557 5.96104 3.07129 5.75391C2.92928 5.51713 3.00738 5.20944 3.24414 5.06738L3.24512 5.06641C3.25958 5.05714 3.30821 5.02464 3.37305 4.97266C3.46179 4.90149 3.577 4.79657 3.68457 4.66211C3.75712 4.57142 3.82184 4.47002 3.875 4.35938L3.75 4.43262C3.59524 4.52197 3.40473 4.52203 3.25 4.43262C3.0954 4.34326 3 4.17854 3 4V3.5C3.00026 3.2242 3.22426 3.00025 3.5 3H4.46875L4.55664 3.00781ZM7.55664 3.00781C7.75751 3.04368 7.92061 3.19996 7.95996 3.40625C8.11695 4.23043 7.79582 4.8746 7.46582 5.28711C7.30124 5.49283 7.12858 5.64828 6.99805 5.75293C6.88897 5.84037 6.78926 5.91037 6.66602 5.96875C6.4467 6.04589 6.19557 5.96104 6.07129 5.75391C5.92928 5.51713 6.00738 5.20944 6.24414 5.06738L6.24512 5.06641C6.25958 5.05714 6.30821 5.02464 6.37305 4.97266C6.46179 4.90149 6.577 4.79657 6.68457 4.66211C6.75712 4.57142 6.82184 4.47002 6.875 4.35938L6.75 4.43262C6.59524 4.52197 6.40473 4.52203 6.25 4.43262C6.0954 4.34326 6 4.17854 6 4V3.5C6.00026 3.2242 6.22426 3.00025 6.5 3H7.46875L7.55664 3.00781Z" fill="#212121"/>
</svg>
