<svg width="48" height="48" viewBox="0 0 48 48" fill="none" xmlns="http://www.w3.org/2000/svg">
<path d="M29.8779 41.5068C30.5082 41.5709 31 42.1028 31 42.75C31 43.3972 30.5082 43.9291 29.8779 43.9932L29.75 44H5.25C4.55964 44 4 43.4404 4 42.75C4 42.0596 4.55964 41.5 5.25 41.5H29.75L29.8779 41.5068ZM14.4912 36H5.25C4.55964 36 4 35.4404 4 34.75C4 34.0596 4.55964 33.5 5.25 33.5H13.2412L14.4912 36ZM26.75 4C29.0972 4 31 5.90279 31 8.25V23.75C31 26.0972 29.0972 28 26.75 28H22.2725L18.6182 35.3086C18.4064 35.7321 17.9735 36 17.5 36C17.0265 36 16.5936 35.7321 16.3818 35.3086L12.7275 28H8.25C5.90279 28 4 26.0972 4 23.75V8.25C4 5.90279 5.90279 4 8.25 4H26.75ZM42.75 33.5C43.4404 33.5 44 34.0596 44 34.75C44 35.4404 43.4404 36 42.75 36H20.5088L21.7588 33.5H42.75ZM12.25 11C11.9185 11 11.6006 11.1318 11.3662 11.3662C11.1612 11.5712 11.0344 11.84 11.0059 12.126L11 12.25V14.75C11 15.129 11.1722 15.4874 11.4678 15.7246C11.7634 15.9618 12.1505 16.0527 12.5205 15.9707L13.9443 15.6543C13.67 16.3979 13.3294 16.9709 13.0029 17.4023C12.6409 17.8806 12.2853 18.2026 12.0322 18.3984C11.906 18.4961 11.8056 18.5617 11.7441 18.5996C11.7135 18.6185 11.692 18.6305 11.6826 18.6357C11.68 18.6372 11.6777 18.6387 11.6777 18.6387C11.6777 18.6387 11.6797 18.6377 11.6816 18.6367L11.5791 18.6953C11.0445 19.0345 10.8428 19.73 11.1318 20.3086C11.4405 20.9259 12.1912 21.1766 12.8086 20.8682L12.8125 20.8662L12.8154 20.8652C12.8507 20.8474 12.9356 20.8022 13.0566 20.7275C13.1866 20.6473 13.36 20.531 13.5615 20.375C13.9646 20.0631 14.4842 19.5879 14.9971 18.9102C15.7995 17.8496 16.5555 16.3294 16.8584 14.2383C16.8675 14.1916 16.8752 14.1446 16.8789 14.0967C16.9553 13.5238 17 12.9092 17 12.25C17 11.6028 16.5082 11.0709 15.8779 11.0068L15.75 11H12.25ZM20.25 11C19.9185 11 19.6006 11.1318 19.3662 11.3662C19.1612 11.5712 19.0344 11.84 19.0059 12.126L19 12.25V14.75C19 15.129 19.1722 15.4874 19.4678 15.7246C19.7634 15.9618 20.1505 16.0527 20.5205 15.9707L21.9443 15.6543C21.67 16.3979 21.3294 16.9709 21.0029 17.4023C20.6409 17.8806 20.2853 18.2026 20.0322 18.3984C19.906 18.4961 19.8056 18.5617 19.7441 18.5996C19.7135 18.6185 19.692 18.6305 19.6826 18.6357C19.68 18.6372 19.6777 18.6387 19.6777 18.6387C19.6777 18.6387 19.6797 18.6377 19.6816 18.6367L19.5791 18.6953C19.0445 19.0345 18.8428 19.73 19.1318 20.3086C19.4405 20.9259 20.1912 21.1766 20.8086 20.8682L20.8105 20.8672C20.8391 20.8529 20.8675 20.8378 20.8955 20.8223C20.9373 20.7991 20.9918 20.7676 21.0566 20.7275C21.1866 20.6473 21.36 20.531 21.5615 20.375C21.9646 20.0631 22.4842 19.5879 22.9971 18.9102C23.7995 17.8496 24.5555 16.3294 24.8584 14.2383C24.8675 14.1916 24.8752 14.1446 24.8789 14.0967C24.9553 13.5238 25 12.9092 25 12.25C25 11.6028 24.5082 11.0709 23.8779 11.0068L23.75 11H20.25Z" fill="#212121"/>
</svg>
