<svg width="21" height="20" viewBox="0 0 21 20" fill="none" xmlns="http://www.w3.org/2000/svg">
<path d="M3.41602 14.5V7L7.41602 7V3H14.916C16.2967 3 17.416 4.11929 17.416 5.5V14.5C17.416 15.8807 16.2967 17 14.916 17H5.91602C4.5353 17 3.41602 15.8807 3.41602 14.5ZM8.41602 4V7H12.416V4H8.41602ZM13.416 4V7H16.416V5.5C16.416 4.67157 15.7444 4 14.916 4H13.416ZM16.416 8H13.416V12H16.416V8ZM16.416 13H13.416V16H14.916C15.7444 16 16.416 15.3284 16.416 14.5V13ZM12.416 16V13L8.41602 13V16H12.416ZM7.41602 16V13H4.41602V14.5C4.41602 15.3284 5.08759 16 5.91602 16H7.41602ZM4.41602 12H7.41602V8H4.41602L4.41602 12ZM12.416 8L8.41602 8V12L12.416 12V8Z" fill="#212121"/>
</svg>
