<svg width="16" height="16" viewBox="0 0 16 16" fill="none" xmlns="http://www.w3.org/2000/svg">
<path d="M11.5 2H6.89978L8.5 2.92389C9.4282 3.45979 10 4.45017 10 5.52196L10 11.9146C10.5826 11.7087 11 11.1531 11 10.5V7C11 6.86739 11.0527 6.74021 11.1464 6.64645L12.8536 4.93934C12.9473 4.84557 13 4.71839 13 4.58579V3.5C13 2.67157 12.3284 2 11.5 2ZM2.00471 7.06895C2.00161 7.04641 2 7.02339 2 7V3.5C2 2.11929 3.11929 1 4.5 1H11.5C12.8807 1 14 2.11929 14 3.5V4.58579C14 4.98361 13.842 5.36514 13.5607 5.64645L12 7.20711V10.5C12 11.724 11.1203 12.7426 9.95873 12.958C9.65852 14.605 7.77894 15.5443 6.25 14.6616L3.50472 13.0766C2.57651 12.5407 2.00471 11.5503 2.00471 10.4785V7.06895ZM9 5.52196C9 4.80743 8.6188 4.14718 8 3.78991L5.25471 2.20492C4.25471 1.62757 3.00472 2.34926 3.00472 3.50396L3.00471 10.4785C3.00471 11.193 3.38591 11.8533 4.00472 12.2105L6.75 13.7955C7.75 14.3729 9 13.6512 9 12.4965L9 5.52196Z" fill="#242424"/>
</svg>
