<svg width="16" height="16" viewBox="0 0 16 16" fill="none" xmlns="http://www.w3.org/2000/svg">
<path d="M14.5674 5.56836C14.9037 5.47812 15.3941 5.42287 15.7334 5.76172C16.072 6.10074 16.0169 6.59047 15.9268 6.92676C15.8251 7.30523 15.6139 7.74272 15.3369 8.2002C14.7784 9.12245 13.8869 10.2312 12.8115 11.3066C12.5079 11.6102 12.0445 12.0821 11.5078 12.3262C11.3493 12.3982 11.1752 12.4508 10.9902 12.4766C11.0454 13.091 10.8414 13.7236 10.373 14.1953L10.2402 14.3242C8.8414 15.6202 6.52679 15.633 5.10547 13.8086C5.00466 13.6785 4.97333 13.5064 5.02344 13.3496C5.07413 13.1928 5.19942 13.0694 5.35742 13.0225C6.24175 12.7607 6.48055 12.4904 6.60645 12.2852C6.6941 12.1419 6.73204 12.0298 6.83984 11.8057C6.93836 11.601 7.07091 11.3656 7.30176 11.1348C7.77079 10.6663 8.40161 10.4601 9.01465 10.5117C9.0403 10.3243 9.09511 10.1477 9.16797 9.9873C9.41204 9.45058 9.88389 8.98621 10.1875 8.68262C11.2631 7.60707 12.3726 6.7158 13.2949 6.15723C13.7523 5.88028 14.189 5.67005 14.5674 5.56836ZM9.5 1C10.1531 1 10.7091 1.4174 10.915 2H11.5C12.3284 2 13 2.67157 13 3.5V5.17383C12.9259 5.21605 12.8511 5.25767 12.7783 5.30176C12.5279 5.45346 12.2672 5.62577 12 5.81641V3.5C12 3.22386 11.7761 3 11.5 3H10.915C10.7091 3.5826 10.1531 4 9.5 4H6.5C5.84689 4 5.29088 3.5826 5.08496 3H4.5C4.22386 3 4 3.22386 4 3.5V13.5C4 13.5099 4.00236 13.5196 4.00293 13.5293C4.01449 14.1371 4.41937 14.6038 4.83789 15H4.5C3.67157 15 3 14.3284 3 13.5V3.5C3 2.67157 3.67157 2 4.5 2H5.08496C5.29088 1.4174 5.84689 1 6.5 1H9.5ZM9.66016 11.8428C9.20448 11.3881 8.46552 11.3873 8.00977 11.8418C7.8882 11.9633 7.81327 12.0886 7.74121 12.2383C7.679 12.3676 7.58037 12.6089 7.45801 12.8086C7.24564 13.1547 6.93344 13.448 6.39355 13.7002C7.44722 14.5365 8.81858 14.3599 9.65527 13.498L9.66016 13.4932C10.1153 13.0373 10.1157 12.2984 9.66016 11.8428ZM6.5 2C6.22386 2 6 2.22386 6 2.5C6 2.77614 6.22386 3 6.5 3H9.5C9.77614 3 10 2.77614 10 2.5C10 2.22386 9.77614 2 9.5 2H6.5Z" fill="#212121"/>
</svg>
