<svg width="16" height="16" viewBox="0 0 16 16" fill="none" xmlns="http://www.w3.org/2000/svg">
<path d="M3.707 8.00406L6.38909 5.32155C6.58435 5.12629 6.58435 4.8097 6.38909 4.61444C6.21552 4.44087 5.9461 4.42159 5.75123 4.55659L5.68198 4.61444L2.11603 8.18324L2.06639 8.25438L2.03875 8.31019L2.01597 8.37782L2.01109 8.39854C2.00383 8.43223 2 8.46743 2 8.50353L2.00546 8.42961L2.0018 8.46105L2.0018 8.54605L2.01679 8.63236L2.03779 8.69457L2.07719 8.77054L2.13169 8.84169L5.68198 12.3926C5.87724 12.5879 6.19383 12.5879 6.38909 12.3926C6.56265 12.219 6.58194 11.9496 6.44694 11.7548L6.38909 11.6855L3.707 9.00406L8 9.00353C11.5218 9.00353 13.8854 7.02773 13.9959 4.21111L14 4.00353C14 3.72739 13.7761 3.50353 13.5 3.50353C13.2239 3.50353 13 3.72739 13 4.00353C13 6.2767 11.1925 7.90812 8.26152 7.99949L8 8.00353L3.707 8.00406L6.38909 5.32155L3.707 8.00406Z" fill="#212121"/>
</svg>
