<svg width="20" height="20" viewBox="0 0 20 20" fill="none" xmlns="http://www.w3.org/2000/svg">
<path d="M10.0962 3.90426C10.2698 4.07783 10.289 4.34725 10.154 4.54212L10.0962 4.61137L6.707 7.99981L10 8.00045C14.0609 8.00045 17.368 11.2279 17.4961 15.2577L17.5 15.5005C17.5 15.7766 17.2761 16.0005 17 16.0005C16.7239 16.0005 16.5 15.7766 16.5 15.5005C16.5 11.9886 13.715 9.1273 10.2331 9.00456L10 9.00045L6.707 8.99981L10.0962 12.3895C10.2915 12.5848 10.2915 12.9014 10.0962 13.0966C9.92263 13.2702 9.6532 13.2895 9.45833 13.1545L9.38909 13.0966L5.14645 8.85401C4.97288 8.68044 4.9536 8.41102 5.08859 8.21615L5.14645 8.1469L9.38909 3.90426C9.58435 3.709 9.90093 3.709 10.0962 3.90426ZM2.14645 8.1469L6.38909 3.90426C6.58435 3.709 6.90093 3.709 7.09619 3.90426C7.26976 4.07783 7.28905 4.34725 7.15405 4.54212L7.09619 4.61137L3.20711 8.50045L7.09619 12.3895C7.29146 12.5848 7.29146 12.9014 7.09619 13.0966C6.92263 13.2702 6.6532 13.2895 6.45834 13.1545L6.38909 13.0966L2.14645 8.85401C1.97288 8.68044 1.9536 8.41102 2.08859 8.21615L2.14645 8.1469L6.38909 3.90426L2.14645 8.1469Z" fill="#212121"/>
</svg>
