<svg width="25" height="24" viewBox="0 0 25 24" fill="none" xmlns="http://www.w3.org/2000/svg">
<path d="M17.916 12C20.9536 12 23.416 14.4624 23.416 17.5C23.416 20.5376 20.9536 23 17.916 23C14.8784 23 12.416 20.5376 12.416 17.5C12.416 14.4624 14.8784 12 17.916 12ZM14.67 10C15.5046 10 16.233 10.4544 16.6214 11.1292C16.088 11.2368 15.5791 11.4096 15.1025 11.6388C14.9809 11.551 14.8314 11.5 14.67 11.5H10.1679C9.75373 11.5 9.41794 11.8358 9.41794 12.25V16.499C9.41794 17.9099 10.3916 19.0934 11.7036 19.4142C11.8765 19.9798 12.1258 20.5128 12.4386 21.0012L12.419 21C9.93313 21 7.91794 18.9848 7.91794 16.499V12.25C7.91794 11.0074 8.9253 10 10.1679 10H14.67ZM15.5091 14.9663L15.4398 15.0241L15.382 15.0934C15.2638 15.2639 15.2638 15.4915 15.382 15.662L15.4398 15.7312L17.2094 17.5007L15.4424 19.2675L15.3845 19.3367C15.2664 19.5072 15.2664 19.7348 15.3845 19.9053L15.4424 19.9746L15.5117 20.0325C15.6822 20.1506 15.9098 20.1506 16.0803 20.0325L16.1495 19.9746L17.9164 18.2077L19.6854 19.9768L19.7547 20.0347C19.9252 20.1528 20.1528 20.1528 20.3233 20.0347L20.3925 19.9768L20.4504 19.9076C20.5685 19.7371 20.5685 19.5095 20.4504 19.339L20.3925 19.2697L18.6234 17.5007L20.3953 15.7313L20.4531 15.662C20.5713 15.4915 20.5713 15.2639 20.4531 15.0934L20.3953 15.0242L20.326 14.9663C20.1555 14.8482 19.9279 14.8482 19.7574 14.9663L19.6882 15.0242L17.9164 16.7937L16.1469 15.0241L16.0777 14.9663C15.9315 14.865 15.7434 14.8506 15.5853 14.9229L15.5091 14.9663ZM7.82247 10.0003C7.42779 10.4116 7.14028 10.9266 7.00483 11.5003L4.66602 11.5C4.2518 11.5 3.91602 11.8358 3.91602 12.25V14.9988C3.91602 16.3802 5.03586 17.5 6.41726 17.5C6.61725 17.5 6.81175 17.4765 6.99818 17.4322C7.08288 17.9361 7.23757 18.4167 7.45088 18.864C7.12179 18.953 6.77501 19 6.41726 19C4.20743 19 2.41602 17.2086 2.41602 14.9988V12.25C2.41602 11.0591 3.34118 10.0844 4.51197 10.0052L4.66602 10L7.82247 10.0003ZM20.166 10C21.4087 10 22.416 11.0074 22.416 12.25L22.4168 12.8104C21.2489 11.6891 19.6629 11 17.916 11L17.6708 11.0045C17.517 10.6291 17.2927 10.2892 17.0155 10.0003L20.166 10ZM18.916 4C20.2967 4 21.416 5.11929 21.416 6.5C21.416 7.88071 20.2967 9 18.916 9C17.5353 9 16.416 7.88071 16.416 6.5C16.416 5.11929 17.5353 4 18.916 4ZM12.416 3C14.0729 3 15.416 4.34315 15.416 6C15.416 7.65685 14.0729 9 12.416 9C10.7592 9 9.41602 7.65685 9.41602 6C9.41602 4.34315 10.7592 3 12.416 3ZM5.91602 4C7.29673 4 8.41602 5.11929 8.41602 6.5C8.41602 7.88071 7.29673 9 5.91602 9C4.5353 9 3.41602 7.88071 3.41602 6.5C3.41602 5.11929 4.5353 4 5.91602 4ZM18.916 5.5C18.3637 5.5 17.916 5.94772 17.916 6.5C17.916 7.05228 18.3637 7.5 18.916 7.5C19.4683 7.5 19.916 7.05228 19.916 6.5C19.916 5.94772 19.4683 5.5 18.916 5.5ZM12.416 4.5C11.5876 4.5 10.916 5.17157 10.916 6C10.916 6.82843 11.5876 7.5 12.416 7.5C13.2444 7.5 13.916 6.82843 13.916 6C13.916 5.17157 13.2444 4.5 12.416 4.5ZM5.91602 5.5C5.36373 5.5 4.91602 5.94772 4.91602 6.5C4.91602 7.05228 5.36373 7.5 5.91602 7.5C6.4683 7.5 6.91602 7.05228 6.91602 6.5C6.91602 5.94772 6.4683 5.5 5.91602 5.5Z" fill="#212121"/>
</svg>
