<svg width="16" height="16" viewBox="0 0 16 16" fill="none" xmlns="http://www.w3.org/2000/svg">
<path d="M8 1V4.5C8 5.32843 8.67157 6 9.5 6H13V13.5C13 14.3284 12.3284 15 11.5 15H4.5C3.67157 15 3 14.3284 3 13.5V11H4.5C4.93909 11 5.34905 10.8083 5.62994 10.4866L6.06326 11.931C6.22592 12.4732 6.67999 12.8777 7.23733 12.9768C7.79467 13.0759 8.36035 12.8529 8.7 12.4L9.75 11H10.5C11.3284 11 12 10.3284 12 9.5C12 8.67157 11.3284 8 10.5 8H9C8.67379 8 8.36073 8.10612 8.10494 8.2963L7.43674 6.06897C7.26003 5.47994 6.74168 5.05843 6.12898 5.00555C5.51629 4.95267 4.93338 5.27913 4.65836 5.82918L3.57295 8H3V2.5C3 1.67157 3.67157 1 4.5 1H8Z" fill="#212121"/>
<path d="M9 1.25V4.5C9 4.77614 9.22386 5 9.5 5H12.75L9 1.25Z" fill="#212121"/>
<path d="M6.47891 6.35634C6.42001 6.15999 6.24723 6.01949 6.04299 6.00186C5.83876 5.98423 5.64446 6.09305 5.55279 6.2764L4.19098 9.00001H2.5C2.22386 9.00001 2 9.22387 2 9.50001C2 9.77615 2.22386 10 2.5 10H4.5C4.68939 10 4.86252 9.89301 4.94721 9.72362L5.88337 7.8513L7.02109 11.6437C7.07531 11.8244 7.22666 11.9592 7.41244 11.9923C7.59822 12.0253 7.78678 11.951 7.9 11.8L9.25 10H10.5C10.7761 10 11 9.77615 11 9.50001C11 9.22387 10.7761 9.00001 10.5 9.00001H9C8.84262 9.00001 8.69443 9.07411 8.6 9.20001L7.6943 10.4076L6.47891 6.35634Z" fill="#212121"/>
</svg>
