<svg width="25" height="24" viewBox="0 0 25 24" fill="none" xmlns="http://www.w3.org/2000/svg">
<path d="M3.69635 2.21968C3.40346 1.92678 2.92859 1.92677 2.63569 2.21966C2.34279 2.51255 2.34279 2.98743 2.63568 3.28032L8.49042 9.13519C7.85932 9.39951 7.41597 10.023 7.41597 10.75V12H11.3552L12.3523 12.9971H4.16506C3.4562 12.9971 3.14297 13.8897 3.69638 14.3327L8.41597 18.1104V19.7546C8.41597 20.9973 9.42332 22.0046 10.666 22.0046H14.1613C15.404 22.0046 16.4113 20.9973 16.4113 19.7546V18.1103L16.9967 17.6416L21.1355 21.7805C21.4283 22.0734 21.9032 22.0734 22.1961 21.7805C22.489 21.4876 22.489 21.0127 22.1961 20.7198L3.69635 2.21968ZM16.5949 12.9971L19.3527 15.755L21.1292 14.3326C21.6825 13.8895 21.3692 12.9971 20.6604 12.9971H16.5949ZM12.5979 9.00004L15.5978 12H17.4107V10.75L17.4049 10.6065C17.3319 9.70715 16.5788 9.00004 15.6607 9.00004H12.5979ZM12.416 8.0005C12.072 8.0005 11.7416 7.94263 11.434 7.83609L9.58035 5.98244C9.47383 5.67477 9.41597 5.34439 9.41597 5.0005C9.41597 3.34364 10.7591 2.0005 12.416 2.0005C14.0728 2.0005 15.416 3.34364 15.416 5.0005C15.416 6.65735 14.0728 8.0005 12.416 8.0005Z" fill="#212121"/>
</svg>
