<svg width="24" height="24" viewBox="0 0 24 24" fill="none" xmlns="http://www.w3.org/2000/svg">
<path d="M7.75019 3.75018C7.75019 3.33597 7.4144 3.00018 7.00019 3.00018C6.58597 3.00018 6.25019 3.33597 6.25019 3.75018V11.2502C6.25019 11.6644 6.58597 12.0002 7.00019 12.0002C7.4144 12.0002 7.75019 11.6644 7.75019 11.2502V6.50018H8.00019C8.4144 6.50018 8.75019 6.1644 8.75019 5.75018C8.75019 5.33597 8.4144 5.00018 8.00019 5.00018H7.75019V3.75018ZM22.0002 3.75018C22.0002 3.33597 21.6644 3.00018 21.2502 3.00018C20.836 3.00018 20.5002 3.33597 20.5002 3.75018V11.2502C20.5002 11.6644 20.836 12.0002 21.2502 12.0002C21.6644 12.0002 22.0002 11.6644 22.0002 11.2502V6.50018H22.2502C22.6644 6.50018 23.0002 6.1644 23.0002 5.75018C23.0002 5.33597 22.6644 5.00018 22.2502 5.00018H22.0002V3.75018ZM14.2502 3.00018C14.6644 3.00018 15.0002 3.33597 15.0002 3.75018V5.00018H15.2502C15.6644 5.00018 16.0002 5.33597 16.0002 5.75018C16.0002 6.1644 15.6644 6.50018 15.2502 6.50018H15.0002V11.2502C15.0002 11.6644 14.6644 12.0002 14.2502 12.0002C13.836 12.0002 13.5002 11.6644 13.5002 11.2502V3.75018C13.5002 3.33597 13.836 3.00018 14.2502 3.00018ZM1.00019 4.75018C1.00019 4.33597 1.33597 4.00018 1.75019 4.00018H4.75019C4.9491 4.00018 5.13986 4.0792 5.28052 4.21985C5.42117 4.36051 5.50019 4.55127 5.50019 4.75018C5.50019 6.4394 4.66161 9.02695 2.05479 10.1855C1.67628 10.3538 1.23306 10.1833 1.06483 9.80479C0.8966 9.42627 1.06707 8.98305 1.44558 8.81482C3.0008 8.12362 3.72478 6.70964 3.93371 5.50018H1.75019C1.33597 5.50018 1.00019 5.1644 1.00019 4.75018ZM11.9654 4.72603C12.0901 4.33104 11.871 3.90973 11.476 3.785C11.081 3.66026 10.6597 3.87935 10.535 4.27433L9.035 9.02433C8.95513 9.27725 9.01478 9.55354 9.19188 9.75098C9.36899 9.94842 9.6372 10.0376 9.89727 9.98562L12.3973 9.48562C12.8034 9.40438 13.0669 9.00927 12.9856 8.6031C12.9044 8.19693 12.5093 7.93351 12.1031 8.01475L10.8475 8.26586L11.9654 4.72603ZM16.5002 4.76971C16.5002 4.3555 16.836 4.01971 17.2502 4.01971H18.7502C19.1644 4.01971 19.5002 4.3555 19.5002 4.76971C19.5002 5.18393 19.1644 5.51971 18.7502 5.51971H18.0002V8.2896L19.0683 8.02258C19.4701 7.92211 19.8773 8.16644 19.9778 8.56828C20.0783 8.97013 19.8339 9.37733 19.4321 9.47779L17.4321 9.97779C17.208 10.0338 16.9707 9.98347 16.7886 9.84134C16.6066 9.69921 16.5002 9.48113 16.5002 9.25018V4.76971ZM11.1996 18.139L9.28033 16.2197C8.98744 15.9268 8.51256 15.9268 8.21967 16.2197C7.92678 16.5126 7.92678 16.9875 8.21967 17.2803L10.7197 19.7803C11.0315 20.0922 11.5438 20.069 11.8262 19.7302L16.8262 13.7302C17.0913 13.4119 17.0483 12.939 16.7301 12.6739C16.4119 12.4087 15.939 12.4517 15.6738 12.7699L11.1996 18.139Z" fill="#212121"/>
</svg>
