<svg width="24" height="24" viewBox="0 0 24 24" fill="none" xmlns="http://www.w3.org/2000/svg">
<path d="M21.9998 4.25C21.9998 3.00736 20.9925 2 19.7498 2H14.2845C13.4218 2 12.5946 2.34297 11.985 2.95334L3.48531 11.4632C2.21699 12.7334 2.21862 14.7913 3.48909 16.0592L7.95079 20.5143C9.22195 21.7807 11.2777 21.7798 12.5472 20.5129L12.641 20.419C12.2814 20.0648 11.9703 19.6616 11.7186 19.2201L11.487 19.4518C10.8033 20.134 9.69493 20.1345 9.01006 19.4522L4.54884 14.9977C3.86898 14.3191 3.86389 13.2207 4.53412 12.5358L13.0463 4.01333C13.3745 3.68467 13.82 3.5 14.2845 3.5H19.7498C20.164 3.5 20.4998 3.83579 20.4998 4.25V9.71196C20.4998 10.176 20.3155 10.6211 19.9874 10.9492L19.2189 11.7179C19.6605 11.9695 20.0638 12.2806 20.418 12.6401L21.0482 12.0098C21.6575 11.4003 21.9998 10.5738 21.9998 9.71196V4.25ZM18.4998 7.00216C18.4998 6.17374 17.8282 5.50218 16.9998 5.50218C16.1714 5.50218 15.4998 6.17374 15.4998 7.00216C15.4998 7.83057 16.1714 8.50213 16.9998 8.50213C17.8282 8.50213 18.4998 7.83057 18.4998 7.00216ZM20.1681 19.1074C20.6919 18.3718 21 17.4719 21 16.5C21 14.0147 18.9853 12 16.5 12C14.0147 12 12 14.0147 12 16.5C12 18.9853 14.0147 21 16.5 21C17.4719 21 18.3718 20.6919 19.1074 20.1681L21.7197 22.7803C22.0126 23.0732 22.4874 23.0732 22.7803 22.7803C23.0732 22.4874 23.0732 22.0126 22.7803 21.7197L20.1681 19.1074ZM19.5 16.5C19.5 18.1569 18.1569 19.5 16.5 19.5C14.8431 19.5 13.5 18.1569 13.5 16.5C13.5 14.8431 14.8431 13.5 16.5 13.5C18.1569 13.5 19.5 14.8431 19.5 16.5Z" fill="#212121"/>
</svg>
