<svg width="24" height="24" viewBox="0 0 24 24" fill="none" xmlns="http://www.w3.org/2000/svg">
<path d="M4 4.25C4 3.00736 5.00736 2 6.25 2H17.75C18.9926 2 20 3.00736 20 4.25V11.4982C19.5258 11.3004 19.0232 11.1572 18.5 11.0764V4.25C18.5 3.83579 18.1642 3.5 17.75 3.5H6.25C5.83579 3.5 5.5 3.83579 5.5 4.25V19.75C5.5 20.1642 5.83579 20.5 6.25 20.5H11.7322C12.0194 21.051 12.3832 21.5557 12.8096 22H6.25C5.00736 22 4 20.9926 4 19.75V4.25ZM16.25 11C16.3609 11 16.4663 11.0241 16.561 11.0673C15.3491 11.2427 14.2453 11.7524 13.3464 12.5H7.75C7.33579 12.5 7 12.1642 7 11.75C7 11.3358 7.33579 11 7.75 11H16.25ZM7.75 6.5C7.33579 6.5 7 6.83579 7 7.25C7 7.66421 7.33579 8 7.75 8H16.25C16.6642 8 17 7.66421 17 7.25C17 6.83579 16.6642 6.5 16.25 6.5H7.75ZM23 17.5C23 14.4624 20.5376 12 17.5 12C14.4624 12 12 14.4624 12 17.5C12 20.5376 14.4624 23 17.5 23C20.5376 23 23 20.5376 23 17.5ZM18.0006 18L18.0011 20.5035C18.0011 20.7797 17.7773 21.0035 17.5011 21.0035C17.225 21.0035 17.0011 20.7797 17.0011 20.5035L17.0006 18H14.4956C14.2197 18 13.9961 17.7762 13.9961 17.5C13.9961 17.2239 14.2197 17 14.4956 17H17.0005L17 14.4993C17 14.2231 17.2239 13.9993 17.5 13.9993C17.7761 13.9993 18 14.2231 18 14.4993L18.0005 17H20.4966C20.7725 17 20.9961 17.2239 20.9961 17.5C20.9961 17.7762 20.7725 18 20.4966 18H18.0006Z" fill="#212121"/>
</svg>
