<svg width="24" height="24" viewBox="0 0 24 24" fill="none" xmlns="http://www.w3.org/2000/svg">
<path d="M17.5001 12C20.5377 12 23.0001 14.4624 23.0001 17.5C23.0001 20.5376 20.5377 23 17.5001 23C14.4625 23 12.0001 20.5376 12.0001 17.5C12.0001 14.4624 14.4625 12 17.5001 12ZM17.7501 3C19.4831 3 20.8993 4.35645 20.995 6.06558L21.0001 6.25L21.0008 12.0223C19.9903 11.3752 18.789 11 17.5001 11C15.6551 11 13.9897 11.7687 12.8066 13.0032L8.74786 13.0031L8.64609 13.0099C8.28002 13.0596 7.99786 13.3734 7.99786 13.7531C7.99786 14.1327 8.28002 14.4465 8.64609 14.4962L8.74786 14.5031L11.7308 14.5029C11.264 15.3997 11.0001 16.419 11.0001 17.5C11.0001 18.7892 11.3754 19.9907 12.0227 21.0012L6.2501 21C4.51707 21 3.10086 19.6435 3.00525 17.9344L3.0001 17.75L2.99981 9.37208C3.23448 9.45505 3.48702 9.5002 3.7501 9.5002C4.9928 9.5002 6.0002 8.4928 6.0002 7.2501C6.0002 6.0074 4.9928 5 3.7501 5C3.56887 5 3.39265 5.02142 3.22383 5.06188C3.67586 3.91215 4.76406 3.0822 6.055 3.00576L6.2501 3H17.7501ZM16.7193 14.5886L16.6501 14.6464L14.1345 17.1628L14.0938 17.2134L14.0497 17.2901L14.0269 17.3488L14.008 17.4341L14.0056 17.5443L14.0206 17.6296L14.0496 17.7098L14.0835 17.7711L14.1344 17.8371L16.6501 20.3536C16.8453 20.5488 17.1619 20.5488 17.3572 20.3536C17.5307 20.18 17.55 19.9106 17.415 19.7157L17.3572 19.6464L15.7111 18H20.5001C20.7456 18 20.9497 17.8231 20.992 17.5899L21.0001 17.5C21.0001 17.2545 20.8232 17.0504 20.59 17.0081L20.5001 17H15.7111L17.3572 15.3536C17.5307 15.18 17.55 14.9106 17.415 14.7157L17.3572 14.6464C17.1836 14.4729 16.9142 14.4536 16.7193 14.5886ZM15.2523 9.49623H8.74786L8.64609 9.50307C8.28002 9.55274 7.99786 9.86653 7.99786 10.2462C7.99786 10.6259 8.28002 10.9397 8.64609 10.9894L8.74786 10.9962H15.2523L15.3541 10.9894C15.7202 10.9397 16.0023 10.6259 16.0023 10.2462C16.0023 9.83201 15.6666 9.49623 15.2523 9.49623ZM3.7501 6C4.44051 6 5.0002 6.55969 5.0002 7.2501C5.0002 7.94051 4.44051 8.5002 3.7501 8.5002C3.05969 8.5002 2.5 7.94051 2.5 7.2501C2.5 6.55969 3.05969 6 3.7501 6Z" fill="#212121"/>
</svg>
