<svg width="20" height="20" viewBox="0 0 20 20" fill="none" xmlns="http://www.w3.org/2000/svg">
<path d="M9 15C9 16.6569 7.65685 18 6 18C4.34315 18 3 16.6569 3 15C3 13.3431 4.34315 12 6 12C6.55903 12 7.08234 12.1529 7.5304 12.4192C8 12 8.18261 12.2133 8.18261 12.2133C8.18261 12.2133 8.5 12.5 8.18261 12.9418C8.68937 13.479 9 14.2032 9 15ZM8 15C8 13.8954 7.10457 13 6 13C4.89543 13 4 13.8954 4 15C4 16.1046 4.89543 17 6 17C7.10457 17 8 16.1046 8 15Z" fill="#6E6E6E"/>
<path d="M17 15C17 16.6569 15.6569 18 14 18C12.3431 18 11 16.6569 11 15C11 14.2316 11.2889 13.5308 11.7639 13C11.5 12.5 11.8402 12.2133 11.8402 12.2133C11.8402 12.2133 12.2327 12.2133 12.4696 12.4192C12.9177 12.1529 13.441 12 14 12C15.6569 12 17 13.3431 17 15ZM16 15C16 13.8954 15.1046 13 14 13C12.8954 13 12 13.8954 12 15C12 16.1046 12.8954 17 14 17C15.1046 17 16 16.1046 16 15Z" fill="#6E6E6E"/>
<path d="M5.22756 2.08084C4.99603 2.23133 4.93034 2.54102 5.08084 2.77255L9.40371 9.42312L7.47658 12.3879C7.77117 12.5548 8.03474 12.7701 8.25648 13.023L10 10.3406L11.7436 13.0229C11.9653 12.7701 12.2289 12.5548 12.5235 12.3879L5.91928 2.22756C5.76879 1.99603 5.45909 1.93034 5.22756 2.08084ZM11.1927 8.50571L10.5964 7.58825L14.0808 2.22762C14.2313 1.99609 14.541 1.9304 14.7725 2.0809C15.004 2.23139 15.0697 2.54108 14.9192 2.77261L11.1927 8.50571Z" fill="#212121"/>
</svg>
