<svg width="24" height="24" viewBox="0 0 24 24" fill="none" xmlns="http://www.w3.org/2000/svg">
<path d="M19.25 8.5C20.7688 8.5 22 7.26878 22 5.75C22 4.23122 20.7688 3 19.25 3C17.7312 3 16.5 4.23122 16.5 5.75C16.5 7.26878 17.7312 8.5 19.25 8.5ZM15.7134 7C15.5752 6.60903 15.5 6.18829 15.5 5.75C15.5 5.49315 15.5258 5.24233 15.575 5H3L2.88338 5.00673C2.38604 5.06449 2 5.48716 2 6C2 6.55228 2.44772 7 3 7H15.7134ZM21 17H3L2.88338 17.0067C2.38604 17.0645 2 17.4872 2 18C2 18.5523 2.44772 19 3 19H21L21.1166 18.9933C21.614 18.9355 22 18.5128 22 18C22 17.4477 21.5523 17 21 17ZM2.99988 11L20.9999 10.9978C21.5522 10.9978 22 11.4454 22 11.9977C22 12.5105 21.6141 12.9333 21.1167 12.9911L21.0001 12.9978L3.00012 13C2.44784 13.0001 2 12.5524 2 12.0001C2 11.4873 2.38594 11.0646 2.88326 11.0067L2.99988 11Z" fill="#212121"/>
</svg>
