<svg width="20" height="20" viewBox="0 0 20 20" fill="none" xmlns="http://www.w3.org/2000/svg">
<path d="M13.5 1C15.9853 1 18 3.01472 18 5.5C18 7.98528 15.9853 10 13.5 10C11.0147 10 9 7.98528 9 5.5C9 3.01472 11.0147 1 13.5 1ZM15.8532 5.85395L15.8557 5.85143C15.9026 5.80398 15.938 5.74949 15.9621 5.69139C15.9861 5.63331 15.9996 5.5697 16 5.503L16 5.5L16 5.497C15.9996 5.4303 15.9861 5.36669 15.9621 5.30861C15.9377 5.24964 15.9015 5.19439 15.8536 5.14645L13.8536 3.14645C13.6583 2.95118 13.3417 2.95118 13.1464 3.14645C12.9512 3.34171 12.9512 3.65829 13.1464 3.85355L14.2929 5L11.5 5C11.2239 5 11 5.22386 11 5.5C11 5.77614 11.2239 6 11.5 6H14.2929L13.1464 7.14645C12.9512 7.34171 12.9512 7.65829 13.1464 7.85355C13.3417 8.04882 13.6583 8.04882 13.8536 7.85355L15.8532 5.85395ZM8.02242 5H6C4.89543 5 4 5.89543 4 7V11H7.5C7.77594 11 7.99966 11.2235 8 11.4994L8.00033 11.5114C8.00075 11.5238 8.00165 11.5443 8.00361 11.5718C8.00755 11.6269 8.01565 11.7088 8.03226 11.8084C8.06586 12.0101 8.13214 12.2713 8.25971 12.5264C8.38631 12.7796 8.56834 13.0176 8.83204 13.1933C9.0926 13.3671 9.46249 13.5 10 13.5C10.5375 13.5 10.9074 13.3671 11.168 13.1933C11.4317 13.0176 11.6137 12.7796 11.7403 12.5264C11.8679 12.2713 11.9341 12.0101 11.9677 11.8084C11.9843 11.7088 11.9925 11.6269 11.9964 11.5718C11.9983 11.5443 11.9993 11.5238 11.9997 11.5114L12 11.4991C12 11.223 12.2239 11 12.5 11H16V10.4003C16.3578 10.2174 16.6929 9.99647 17 9.74284V15C17 16.6569 15.6569 18 14 18H6C4.34315 18 3 16.6569 3 15V7C3 5.34315 4.34315 4 6 4H8.20703C8.11588 4.32228 8.05337 4.65659 8.02242 5ZM7.0505 12H4V15C4 16.1046 4.89543 17 6 17H14C15.1046 17 16 16.1046 16 15V12H12.9495C12.9035 12.2643 12.8134 12.6161 12.6347 12.9736C12.4488 13.3454 12.1621 13.7324 11.7227 14.0254C11.2801 14.3204 10.7125 14.5 10 14.5C9.28751 14.5 8.7199 14.3204 8.27734 14.0254C7.83791 13.7324 7.55119 13.3454 7.36529 12.9736C7.18655 12.6161 7.09652 12.2643 7.0505 12Z" fill="#212121"/>
</svg>
