<svg width="32" height="32" viewBox="0 0 32 32" fill="none" xmlns="http://www.w3.org/2000/svg">
<path d="M2 10.5C2 8.01472 4.01472 6 6.5 6H16.5C18.9853 6 21 8.01472 21 10.5V21.5C21 23.8851 19.1445 25.8368 16.7982 25.9903C17.2502 24.917 17.5 23.7377 17.5 22.5C17.5 17.5294 13.4706 13.5 8.5 13.5C5.94477 13.5 3.63825 14.5649 2 16.275V10.5ZM29.9959 9.75388C29.9959 7.94016 27.96 6.87182 26.4674 7.90236L22.5 10.6418V21.358L26.4675 24.0974C27.96 25.1279 29.9959 24.0596 29.9959 22.2459V9.75388ZM8.5 30C12.6421 30 16 26.6421 16 22.5C16 18.3579 12.6421 15 8.5 15C4.35786 15 1 18.3579 1 22.5C1 23.7688 1.31507 24.964 1.87124 26.0117L1.01793 29.3815C0.92485 29.7491 1.25885 30.0825 1.62628 29.9887L4.99075 29.1301C6.03783 29.6854 7.23218 30 8.5 30ZM5 21.25C5 20.8358 5.33579 20.5 5.75 20.5H11.25C11.6642 20.5 12 20.8358 12 21.25C12 21.6642 11.6642 22 11.25 22H5.75C5.33579 22 5 21.6642 5 21.25ZM5.75 25C5.33579 25 5 24.6642 5 24.25C5 23.8358 5.33579 23.5 5.75 23.5H9.25C9.66421 23.5 10 23.8358 10 24.25C10 24.6642 9.66421 25 9.25 25H5.75Z" fill="#212121"/>
</svg>
