<svg width="28" height="28" viewBox="0 0 28 28" fill="none" xmlns="http://www.w3.org/2000/svg">
<path d="M5.75 6C3.67893 6 2 7.67893 2 9.75V14.4073C2.44264 13.929 2.94684 13.5085 3.5 13.1583V9.75C3.5 8.50736 4.50736 7.5 5.75 7.5H15.25C16.4926 7.5 17.5 8.50736 17.5 9.75V18.25C17.5 19.4926 16.4926 20.5 15.25 20.5H14.9399C14.8708 21.0186 14.7487 21.5205 14.5792 22H15.25C17.3211 22 19 20.3211 19 18.25V17.7473L23.2516 20.6829C24.4124 21.4844 25.9959 20.6535 25.9959 19.2428V8.75302C25.9959 7.34235 24.4124 6.51142 23.2516 7.31295L19 10.2486V9.75C19 7.67893 17.3211 6 15.25 6H5.75ZM19 12.0714L24.1039 8.54729C24.2697 8.43279 24.4959 8.55149 24.4959 8.75302V19.2428C24.4959 19.4443 24.2697 19.563 24.1039 19.4485L19 15.9244V12.0714ZM14.0047 19.5C14.0047 23.0898 11.0945 26 7.50465 26C6.36275 26 5.28962 25.7055 4.35705 25.1884L1.64041 25.9793C1.26129 26.0897 0.909834 25.7377 1.02079 25.3588L1.81517 22.6457C1.2987 21.7136 1.00465 20.6411 1.00465 19.5C1.00465 15.9101 3.9148 13 7.50465 13C11.0945 13 14.0047 15.9101 14.0047 19.5ZM5.00465 18C4.72851 18 4.50465 18.2239 4.50465 18.5C4.50465 18.7761 4.72851 19 5.00465 19H10.0047C10.2808 19 10.5047 18.7761 10.5047 18.5C10.5047 18.2239 10.2808 18 10.0047 18H5.00465ZM4.50465 20.5C4.50465 20.7761 4.72851 21 5.00465 21H7.50465C7.78079 21 8.00465 20.7761 8.00465 20.5C8.00465 20.2239 7.78079 20 7.50465 20H5.00465C4.72851 20 4.50465 20.2239 4.50465 20.5Z" fill="#212121"/>
</svg>
