<svg width="24" height="24" viewBox="0 0 24 24" fill="none" xmlns="http://www.w3.org/2000/svg">
<path d="M8.61268 16.2097L8.70689 16.2929L10.7069 18.2929C11.0674 18.6534 11.0951 19.2206 10.7901 19.6129L10.7069 19.7071L8.70689 21.7071C8.31636 22.0976 7.6832 22.0976 7.29267 21.7071C6.93219 21.3466 6.90446 20.7794 7.20948 20.3871L7.29267 20.2929L7.58551 19.999L3.99978 20C3.4475 20 2.99978 19.5523 2.99978 19C2.99978 18.4872 3.38582 18.0645 3.88316 18.0067L3.99978 18L7.58451 17.999L7.29267 17.7071C6.93219 17.3466 6.90446 16.7794 7.20948 16.3871L7.29267 16.2929C7.65316 15.9324 8.22039 15.9047 8.61268 16.2097ZM15.3869 16.2097C15.7465 15.9301 16.2531 15.9301 16.6127 16.2097L16.7069 16.2929L16.7901 16.3871C17.0697 16.7467 17.0697 17.2533 16.7901 17.6129L16.7069 17.7071L16.4145 17.999L19.9998 18C20.5521 18 20.9998 18.4477 20.9998 19C20.9998 19.5128 20.6137 19.9355 20.1164 19.9933L19.9998 20L16.4135 19.999L16.7069 20.2929L16.7901 20.3871C17.0951 20.7794 17.0674 21.3466 16.7069 21.7071C16.3464 22.0676 15.7792 22.0953 15.3869 21.7903L15.2927 21.7071L13.2927 19.7071L13.2095 19.6129C12.9299 19.2533 12.9299 18.7467 13.2095 18.3871L13.2927 18.2929L15.2927 16.2929L15.3869 16.2097ZM9.11851 2.44618L9.18228 2.54995L9.23537 2.66525L13.5397 13.6652C13.741 14.1796 13.4872 14.7596 12.9729 14.9609C12.4953 15.1478 11.961 14.9423 11.726 14.5002L11.6772 14.394L10.5658 11.554H6.04178L4.93102 14.394C4.74415 14.8716 4.23063 15.1246 3.74643 14.9971L3.63538 14.9609C3.15781 14.774 2.90487 14.2605 3.03231 13.7763L3.06854 13.6652L7.37288 2.66525C7.67292 1.89849 8.68319 1.82547 9.11851 2.44618ZM19.1405 2.52972C19.3755 2.08762 19.9098 1.88215 20.3874 2.06903C20.865 2.2559 21.1179 2.76942 20.9905 3.25361L20.9542 3.36467L16.6499 14.3647L16.5968 14.48C16.2256 15.1737 15.2117 15.1737 14.8405 14.48L14.7874 14.3647L10.483 3.36467L10.4468 3.25361C10.3292 2.80667 10.5357 2.33473 10.9437 2.11779L11.0499 2.06903L11.1609 2.03279C11.6079 1.91516 12.0798 2.12163 12.2968 2.52972L12.3455 2.63587L15.7178 11.2563L19.0917 2.63587L19.1405 2.52972ZM8.30378 5.773L6.82478 9.554H9.78278L8.30378 5.773Z" fill="#212121"/>
</svg>
