<svg width="20" height="20" viewBox="0 0 20 20" fill="none" xmlns="http://www.w3.org/2000/svg">
<path d="M10 1.25C11.4346 1.25 12.6126 2.34848 12.7388 3.75019L17 3.75C17.4142 3.75 17.75 4.08579 17.75 4.5C17.75 4.8797 17.4678 5.19349 17.1018 5.24315L17 5.25H16.417L15.9616 9.19632C15.4962 9.06835 15.0061 9 14.5 9C11.4624 9 9 11.4624 9 14.5C9 15.8296 9.47182 17.0491 10.2572 18H6.83688C5.821 18 4.9665 17.2384 4.85006 16.2292L3.582 5.25H3C2.6203 5.25 2.30651 4.96785 2.25685 4.60177L2.25 4.5C2.25 4.1203 2.53215 3.80651 2.89823 3.75685L3 3.75L7.26119 3.75019C7.38741 2.34848 8.56542 1.25 10 1.25ZM10 2.75C9.39524 2.75 8.89079 3.17947 8.77499 3.75005H11.225C11.1092 3.17947 10.6048 2.75 10 2.75ZM14.5 19C16.9853 19 19 16.9853 19 14.5C19 12.0147 16.9853 10 14.5 10C12.0147 10 10 12.0147 10 14.5C10 16.9853 12.0147 19 14.5 19ZM13.6036 12.6036L12.7071 13.5H14.25C15.7688 13.5 17 14.7312 17 16.25V16.5C17 16.7761 16.7761 17 16.5 17C16.2239 17 16 16.7761 16 16.5V16.25C16 15.2835 15.2165 14.5 14.25 14.5H12.7071L13.6036 15.3964C13.7988 15.5917 13.7988 15.9083 13.6036 16.1036C13.4083 16.2988 13.0917 16.2988 12.8964 16.1036L11.1443 14.3514C11.0974 14.304 11.062 14.2495 11.0379 14.1914C11.0135 14.1324 11 14.0678 11 14C11 13.9322 11.0135 13.8676 11.0379 13.8086C11.0623 13.7496 11.0985 13.6944 11.1464 13.6464L12.8964 11.8964C13.0917 11.7012 13.4083 11.7012 13.6036 11.8964C13.7988 12.0917 13.7988 12.4083 13.6036 12.6036Z" fill="#212121"/>
</svg>
