<svg width="21" height="20" viewBox="0 0 21 20" fill="none" xmlns="http://www.w3.org/2000/svg">
<path d="M1.41602 3C1.41602 1.89543 2.31145 1 3.41602 1H6.41601C7.52058 1 8.41601 1.89543 8.41601 3V4H7.91602C7.74625 4 7.57932 4.01209 7.41601 4.03544V3C7.41601 2.44772 6.9683 2 6.41601 2H3.41602C2.86373 2 2.41602 2.44772 2.41602 3V6C2.41602 6.55228 2.86373 7 3.41602 7H4.45146C4.4281 7.1633 4.41602 7.33024 4.41602 7.5V8H3.41602C2.31145 8 1.41602 7.10457 1.41602 6V3ZM12.416 16V17C12.416 18.1046 13.3114 19 14.416 19H17.416C18.5206 19 19.416 18.1046 19.416 17V14C19.416 12.8954 18.5206 12 17.416 12H16.416V12.5C16.416 12.6698 16.4039 12.8367 16.3806 13H17.416C17.9683 13 18.416 13.4477 18.416 14V17C18.416 17.5523 17.9683 18 17.416 18H14.416C13.8637 18 13.416 17.5523 13.416 17V15.9646C13.2527 15.9879 13.0858 16 12.916 16H12.416ZM5.41602 7.5C5.41602 6.11929 6.5353 5 7.91602 5H12.916C14.2967 5 15.416 6.11929 15.416 7.5V12.5C15.416 13.8807 14.2967 15 12.916 15H7.91602C6.5353 15 5.41602 13.8807 5.41602 12.5V7.5Z" fill="#212121"/>
</svg>
