<svg width="28" height="28" viewBox="0 0 28 28" fill="none" xmlns="http://www.w3.org/2000/svg">
<path d="M26 8.16023V17.8202C26 18.4702 25.48 18.9902 24.83 18.9902H15.17C14.52 18.9902 14 18.4702 14 17.8202V8.16023C14 8.10023 14 8.05023 14.01 7.99023C14.09 7.42023 14.58 6.99023 15.17 6.99023H24.83C25.48 6.99023 26 7.51023 26 8.16023Z" fill="#2B7CD3"/>
<path d="M19.66 8.82994L17 11.4799L14.82 13.6599C14.6 13.8899 14.3 13.9999 14 13.9999C13.7 13.9999 13.4 13.8899 13.17 13.6599L8.34 8.82994C8.11 8.59994 8 8.29994 8 7.99994C8 7.69994 8.11 7.39994 8.34 7.17994L13.17 2.33994C13.63 1.88994 14.37 1.88994 14.82 2.33994L19.48 6.99994L19.66 7.17994C20.11 7.62994 20.11 8.36994 19.66 8.82994Z" fill="#41A5EE"/>
<path d="M20 19.5C20 22.54 17.54 25 14.5 25C12.36 25 10.51 23.78 9.61 22C9.22 21.25 9 20.4 9 19.5C9 16.63 11.19 14.28 14 14.03C14.16 14.01 14.33 14 14.5 14C15.4 14 16.25 14.22 17 14.61C18.64 15.43 19.8 17.07 19.97 19C19.99 19.16 20 19.33 20 19.5Z" fill="#103F91"/>
<path opacity="0.5" d="M17 9.16023V20.6402C17 21.2802 16.31 21.9902 15.6 21.9902H9.61C9.22 21.2402 9 20.3902 9 19.4902C9 16.6202 11.19 14.2702 14 14.0202V13.9902C13.7 13.9902 13.4 13.8802 13.17 13.6502L8.34 8.82023C8.11 8.59023 8 8.29023 8 7.99023H15.83C16.47 7.99023 17 8.52023 17 9.16023Z" fill="black"/>
<path d="M14.83 7H3.17C2.52382 7 2 7.52383 2 8.17V19.83C2 20.4762 2.52382 21 3.17 21H14.83C15.4762 21 16 20.4762 16 19.83V8.17C16 7.52383 15.4762 7 14.83 7Z" fill="#185ABD"/>
<path d="M8.60012 15.2902C8.83012 15.9602 8.96012 16.3802 9.00012 16.5502H9.03012C9.07012 16.3802 9.22012 15.9302 9.47012 15.2002L11.2601 9.99023H12.9101L9.88012 17.9902H8.12012L5.12012 9.99023H6.82012L8.62012 15.2802L8.60012 15.2902Z" fill="white"/>
</svg>
