<svg width="28" height="28" viewBox="0 0 28 28" fill="none" xmlns="http://www.w3.org/2000/svg">
<path d="M18.3632 8.00449L17 9.3626V11.4799L19.66 8.82994C19.7595 8.72825 19.837 8.61288 19.8925 8.48999H24.5V17.49H19.6179C19.1284 16.233 18.1907 15.2054 17 14.61V16.3791C17.8206 17.0297 18.3771 18.0111 18.4758 19.1316L18.4782 19.1589L18.4816 19.1861C18.4932 19.2794 18.5 19.387 18.5 19.5C18.5 21.7116 16.7116 23.5 14.5 23.5C13.2344 23.5 12.1097 22.9143 11.3826 22H9.61C10.51 23.78 12.36 25 14.5 25C17.54 25 20 22.54 20 19.5C20 19.33 19.99 19.16 19.97 19L19.9691 18.99H24.83C25.48 18.99 26 18.47 26 17.82V8.15999C26 7.50999 25.48 6.98999 24.83 6.98999H19.4701L14.82 2.33994C14.37 1.88994 13.63 1.88994 13.17 2.33994L9.5175 6H11.6366L13.9952 3.63651L18.3632 8.00449Z" fill="black"/>
<path d="M14.83 7H3.17C2.52382 7 2 7.52383 2 8.17V19.83C2 20.4762 2.52382 21 3.17 21H14.83C15.4762 21 16 20.4762 16 19.83V8.17C16 7.52383 15.4762 7 14.83 7ZM8.60012 15.29C8.83012 15.96 8.96012 16.38 9.00012 16.55H9.03012C9.07012 16.38 9.22012 15.93 9.47012 15.2L11.2601 9.98999H12.9101L9.88012 17.99H8.12012L5.12012 9.98999H6.82012L8.62012 15.28L8.60012 15.29Z" fill="black"/>
</svg>
