<svg width="20" height="20" viewBox="0 0 20 20" fill="none" xmlns="http://www.w3.org/2000/svg">
<path d="M10.2856 2.29289L8.57854 4H11C12.1046 4 13 4.89543 13 6V8.40324L14.698 6.70524C15.0885 6.31472 15.0885 5.68155 14.698 5.29103L11.6999 2.29289C11.3093 1.90237 10.6762 1.90237 10.2856 2.29289Z" fill="black"/>
<path d="M11 18.0031C9.51817 18.0031 8.22454 17.1973 7.53336 16H11C12.1046 16 13 15.1046 13 14V10.5382C14.1956 11.2298 15 12.5225 15 14.0031C15 16.2122 13.2091 18.0031 11 18.0031Z" fill="black"/>
<path d="M13.2724 9.54503L15.4051 7.41235C15.7944 7.02307 15.9896 6.51326 15.9909 6.00305H17C17.5523 6.00305 18 6.45077 18 7.00305V13.0031C18 13.5553 17.5523 14.0031 17 14.0031H16L16 14C16 12.0568 14.8915 10.3726 13.2724 9.54503Z" fill="black"/>
<path d="M11 5.00305H3C2.44772 5.00305 2 5.45077 2 6.00305V14.0031C2 14.5553 2.44772 15.0031 3 15.0031H11C11.5523 15.0031 12 14.5553 12 14.0031V6.00305C12 5.45077 11.5523 5.00305 11 5.00305ZM6.69982 10.9731C6.86982 11.4731 6.96982 11.7831 6.99982 11.9231H7.01982C7.04982 11.7931 7.15982 11.4531 7.34982 10.9131L8.68982 7.01306H9.91982L7.63982 13.0131H6.31982L4.06982 7.01306H5.33982L6.68982 10.9831L6.69982 10.9731Z" fill="black"/>
</svg>
