<svg width="24" height="24" viewBox="0 0 24 24" fill="none" xmlns="http://www.w3.org/2000/svg">
<path d="M20.9519 3.04712C19.5543 1.6496 17.2885 1.64967 15.8911 3.04727L3.94103 14.9987C3.5347 15.4051 3.2491 15.9162 3.116 16.4753L2.02041 21.0767C1.96009 21.3301 2.03552 21.5966 2.21968 21.7808C2.40385 21.9649 2.67037 22.0404 2.92373 21.98L7.52498 20.8845C8.08418 20.7514 8.59546 20.4656 9.00191 20.0591L10.153 18.9079C10.0528 18.4545 10 17.9832 10 17.4997C10 13.9098 12.9101 10.9997 16.5 10.9997C16.9833 10.9997 17.4543 11.0524 17.9075 11.1525L20.952 8.10763C22.3493 6.71015 22.3493 4.44453 20.9519 3.04712ZM22 17.4997C22 14.4621 19.5376 11.9997 16.5 11.9997C13.4624 11.9997 11 14.4621 11 17.4997C11 20.5372 13.4624 22.9997 16.5 22.9997C19.5376 22.9997 22 20.5372 22 17.4997ZM12.5 17.4997C12.5 15.2905 14.2909 13.4997 16.5 13.4997C17.3335 13.4997 18.1075 13.7546 18.7482 14.1908L13.1911 19.7479C12.755 19.1072 12.5 18.3332 12.5 17.4997ZM16.5 21.4997C15.6665 21.4997 14.8925 21.2447 14.2518 20.8085L19.8089 15.2514C20.245 15.8922 20.5 16.6661 20.5 17.4997C20.5 19.7088 18.7091 21.4997 16.5 21.4997Z" fill="#212121"/>
</svg>
