<svg width="20" height="20" viewBox="0 0 20 20" fill="none" xmlns="http://www.w3.org/2000/svg">
<path d="M10.2774 2.08397C10.1094 1.97201 9.8906 1.97201 9.72265 2.08397C7.78446 3.3761 5.68833 4.1823 3.42929 4.50503C3.18296 4.54021 3 4.75117 3 5V9.5C3 13.3913 5.30699 16.2307 9.82051 17.9667C9.93605 18.0111 10.064 18.0111 10.1795 17.9667C14.693 16.2307 17 13.3913 17 9.5V5C17 4.75117 16.817 4.54021 16.5707 4.50503C14.3117 4.1823 12.2155 3.3761 10.2774 2.08397ZM10 5.75C10.4142 5.75 10.75 6.08579 10.75 6.5V11.5C10.75 11.9142 10.4142 12.25 10 12.25C9.58579 12.25 9.25 11.9142 9.25 11.5V6.5C9.25 6.08579 9.58579 5.75 10 5.75ZM10.75 13.75C10.75 14.1642 10.4142 14.5 10 14.5C9.58579 14.5 9.25 14.1642 9.25 13.75C9.25 13.3358 9.58579 13 10 13C10.4142 13 10.75 13.3358 10.75 13.75Z" fill="#212121"/>
</svg>
