<svg width="20" height="20" viewBox="0 0 20 20" fill="none" xmlns="http://www.w3.org/2000/svg">
<path d="M5 2.5C5 2.22386 4.77614 2 4.5 2C4.22386 2 4 2.22386 4 2.5C4 3.50207 4.68608 4.01543 5.16023 4.37022L5.2 4.4C5.72551 4.79413 6 5.03046 6 5.5C6 5.77614 6.22386 6 6.5 6C6.77614 6 7 5.77614 7 5.5C7 4.49793 6.31392 3.98457 5.83977 3.62978L5.8 3.6C5.27449 3.20587 5 2.96954 5 2.5ZM15 7.93478V9H16C17.6569 9 19 10.3431 19 12C19 13.6569 17.6569 15 16 15H14.1973C13.1599 16.7934 11.2208 18 9 18C5.68629 18 3 15.3137 3 12V7.93478C3 7.41852 3.41852 7 3.93478 7H14.0652C14.5815 7 15 7.41852 15 7.93478ZM4 8V12C4 14.7614 6.23858 17 9 17C11.7614 17 14 14.7614 14 12V8H4ZM15 12C15 12.7013 14.8797 13.3744 14.6586 14H16C17.1046 14 18 13.1046 18 12C18 10.8954 17.1046 10 16 10H15V12ZM7.5 2C7.77614 2 8 2.22386 8 2.5C8 2.96954 8.27449 3.20587 8.8 3.6L8.83977 3.62978C9.31392 3.98457 10 4.49793 10 5.5C10 5.77614 9.77614 6 9.5 6C9.22386 6 9 5.77614 9 5.5C9 5.03046 8.72551 4.79413 8.2 4.4L8.16023 4.37022C7.68608 4.01543 7 3.50207 7 2.5C7 2.22386 7.22386 2 7.5 2ZM11 2.5C11 2.22386 10.7761 2 10.5 2C10.2239 2 10 2.22386 10 2.5C10 3.50207 10.6861 4.01543 11.1602 4.37022L11.2 4.4C11.7255 4.79413 12 5.03046 12 5.5C12 5.77614 12.2239 6 12.5 6C12.7761 6 13 5.77614 13 5.5C13 4.49793 12.3139 3.98457 11.8398 3.62978L11.8 3.6C11.2745 3.20587 11 2.96954 11 2.5Z" fill="#212121"/>
</svg>
