<svg width="16" height="16" viewBox="0 0 16 16" fill="none" xmlns="http://www.w3.org/2000/svg">
<path d="M6.63206 2.44663C7.4632 1.90319 8.53719 1.90321 9.36833 2.44667L14.7736 5.98105C14.9137 6.07263 14.9986 6.2282 15 6.39554C15.0013 6.56287 14.9189 6.71978 14.7803 6.81358L9.4016 10.4546C8.55518 11.0276 7.44521 11.0276 6.59878 10.4547L2 7.34176L2 10.4995C2 10.7757 1.77614 10.9995 1.5 10.9995C1.22386 10.9995 1 10.7757 1 10.4995V6.49951C1 6.48258 1.00084 6.46585 1.00248 6.44936C1.00071 6.43158 0.999872 6.41362 1.00002 6.39554C1.00135 6.2282 1.08632 6.07262 1.22638 5.98105L6.63206 2.44663ZM3 11.4995V9.22622L6.03822 11.2828C7.22323 12.0849 8.77719 12.0849 9.96218 11.2827L13 9.22631V11.4995C13 11.6182 12.9578 11.7329 12.881 11.8233C12.881 11.8233 12.881 11.8233 12.5 11.4995L12.881 11.8233L12.8796 11.8249L12.8777 11.8272L12.8718 11.834L12.8525 11.8558C12.8363 11.8738 12.8134 11.8989 12.784 11.9298C12.7252 11.9917 12.6401 12.0776 12.5298 12.1794C12.3096 12.3827 11.987 12.6514 11.5711 12.9197C10.7405 13.4556 9.52236 13.9995 8.0001 13.9995C6.47783 13.9995 5.25964 13.4556 4.42899 12.9197C4.01312 12.6514 3.69051 12.3827 3.47026 12.1794C3.35997 12.0776 3.27484 11.9918 3.21603 11.9298C3.18661 11.8989 3.16372 11.8739 3.14752 11.8558L3.12823 11.834L3.12237 11.8272L3.12039 11.8249L3.11963 11.8241L3.5 11.4995C3.11904 11.8234 3.11963 11.8241 3.11963 11.8241C3.04279 11.7337 3 11.6182 3 11.4995Z" fill="#212121"/>
</svg>
