<svg width="16" height="16" viewBox="0 0 16 16" fill="none" xmlns="http://www.w3.org/2000/svg">
<path d="M6.01323 6.77501C5.52723 6.28801 4.73223 6.28801 4.24523 6.77501L4.02523 6.99501C3.34923 7.67001 2.98523 8.56901 3.00023 9.52401C3.01223 10.28 3.26023 10.994 3.71023 11.583L1.64723 13.646C1.45223 13.841 1.45223 14.158 1.64723 14.353C1.74523 14.451 1.87323 14.499 2.00123 14.499C2.12923 14.499 2.25723 14.45 2.35523 14.353L4.42523 12.283C5.02223 12.718 5.73723 12.935 6.46123 12.935C7.39923 12.935 8.34923 12.572 9.06523 11.855L9.19623 11.724C9.68323 11.237 9.68323 10.444 9.19623 9.95601L6.01423 6.77401L6.01323 6.77501ZM8.48823 11.018L8.35723 11.149C7.36323 12.144 5.76123 12.208 4.78923 11.291C4.29123 10.823 4.01223 10.19 4.00123 9.50801C3.99123 8.82601 4.25123 8.18401 4.73323 7.70201L4.95323 7.48201C5.00223 7.43301 5.06523 7.40901 5.13023 7.40901C5.19523 7.40901 5.25823 7.43301 5.30723 7.48201L8.48923 10.664C8.58723 10.762 8.58723 10.92 8.48923 11.018H8.48823ZM14.3542 1.64601C14.1592 1.45101 13.8422 1.45101 13.6472 1.64601L11.5772 3.71601C10.2072 2.71701 8.20723 2.87301 6.93723 4.14401L6.80623 4.27501C6.31923 4.76201 6.31923 5.55501 6.80623 6.04301L9.98823 9.22501C10.2312 9.46901 10.5512 9.59101 10.8722 9.59101C11.1932 9.59101 11.5132 9.46901 11.7562 9.22501L11.9762 9.00501C12.6522 8.33001 13.0162 7.43101 13.0012 6.47601C12.9892 5.72001 12.7412 5.00601 12.2912 4.41701L14.3542 2.35401C14.5492 2.15901 14.5492 1.84101 14.3542 1.64601ZM11.2682 8.29701L11.0482 8.51701C10.9502 8.61501 10.7922 8.61501 10.6942 8.51701L7.51223 5.33501C7.41423 5.23701 7.41423 5.07901 7.51223 4.98101L7.64323 4.85001C8.16723 4.32601 8.86023 4.06001 9.54023 4.06001C10.1502 4.06001 10.7512 4.27401 11.2112 4.70801C11.7092 5.17601 11.9882 5.80901 11.9992 6.49101C12.0092 7.17301 11.7502 7.81501 11.2682 8.29701Z" fill="#212121"/>
</svg>
