<svg width="16" height="16" viewBox="0 0 16 16" fill="none" xmlns="http://www.w3.org/2000/svg">
<path d="M8.80802 2.10179C8.47789 1.43287 7.52403 1.43287 7.1939 2.10179L5.67281 5.18384L2.27156 5.67807C1.53336 5.78534 1.23861 6.69251 1.77277 7.2132L4.23394 9.61224L3.65294 12.9997C3.52684 13.735 4.29853 14.2956 4.95879 13.9485L5.86977 13.4696C5.3193 12.613 5 11.5938 5 10.5C5 7.54914 7.32386 5.14105 10.2413 5.00598L8.80802 2.10179ZM10.5 15C12.9853 15 15 12.9853 15 10.5C15 8.01472 12.9853 6 10.5 6C8.01472 6 6 8.01472 6 10.5C6 12.9853 8.01472 15 10.5 15ZM9.60355 8.60355L8.70711 9.5H10.25C11.7688 9.5 13 10.7312 13 12.25V12.5C13 12.7761 12.7761 13 12.5 13C12.2239 13 12 12.7761 12 12.5V12.25C12 11.2835 11.2165 10.5 10.25 10.5H8.70711L9.60355 11.3964C9.79882 11.5917 9.79882 11.9083 9.60355 12.1036C9.40829 12.2988 9.09171 12.2988 8.89645 12.1036L7.14433 10.3514C7.09744 10.304 7.06198 10.2495 7.03794 10.1914C7.01349 10.1324 7 10.0678 7 10C7 9.93221 7.01349 9.86756 7.03794 9.80861C7.06234 9.74964 7.09851 9.69439 7.14645 9.64645L8.89645 7.89645C9.09171 7.70118 9.40829 7.70118 9.60355 7.89645C9.79882 8.09171 9.79882 8.40829 9.60355 8.60355Z" fill="#212121"/>
</svg>
