<svg width="20" height="20" viewBox="0 0 20 20" fill="none" xmlns="http://www.w3.org/2000/svg">
<path d="M4 7C4 5.34315 5.34315 4 7 4H10C11.6569 4 13 5.34315 13 7V11C13 12.6569 11.6569 14 10 14H7C5.34315 14 4 12.6569 4 11V7ZM15.6489 12.7326L14 11.5989V6.40169L15.6489 5.268C16.6442 4.58373 17.9987 5.29626 17.9987 6.50404V11.4966C17.9987 12.7043 16.6442 13.4169 15.6489 12.7326ZM3.00723 6.75732C3.00243 6.83756 3 6.91844 3 6.99988V10.9999C3 13.209 4.79086 14.9999 7 14.9999H10C10.0814 14.9999 10.1623 14.9974 10.2426 14.9927C9.69304 15.6106 8.89199 15.9999 8 15.9999H7C4.23858 15.9999 2 13.7613 2 10.9999V8.99988C2 8.1079 2.38929 7.30684 3.00723 6.75732Z" fill="#212121"/>
</svg>
