<svg width="28" height="28" viewBox="0 0 28 28" fill="none" xmlns="http://www.w3.org/2000/svg">
<path d="M8.75391 6C6.68284 6 5.00391 7.67893 5.00391 9.75V16.25C5.00391 18.3211 6.68284 20 8.75391 20H15.2539C17.325 20 19.0039 18.3211 19.0039 16.25V9.75C19.0039 7.67893 17.325 6 15.2539 6H8.75391ZM4.00391 9.24658C3.09085 9.93055 2.5 11.0212 2.5 12.2498V16.2498C2.5 19.7016 5.29822 22.4998 8.75 22.4998H12.75C13.9893 22.4998 15.0882 21.8986 15.771 20.972C15.6011 20.9904 15.4286 20.9998 15.2539 20.9998H8.75C6.12665 20.9998 4 18.8731 4 16.2498V12.2498C4 12.2049 4.00131 12.1603 4.00391 12.1161V9.24658ZM26.0044 9.00333C26.0044 7.41146 24.235 6.45758 22.9051 7.3325L20 9.24376V16.7559L22.9051 18.6671C24.235 19.5421 26.0044 18.5882 26.0044 16.9963V9.00333Z" fill="#212121"/>
</svg>
