<svg width="20" height="20" viewBox="0 0 20 20" fill="none" xmlns="http://www.w3.org/2000/svg">
<path d="M14.7803 2.21967C14.4874 1.92678 14.0126 1.92678 13.7197 2.21967C13.4268 2.51256 13.4268 2.98744 13.7197 3.28033L15.4393 5H11.25C9.73125 5 8.50003 6.23122 8.50003 7.75V13.25C8.50003 13.8916 8.01662 14.4203 7.39414 14.4918C7.06497 13.3417 6.00579 12.5 4.75 12.5C3.23122 12.5 2 13.7312 2 15.25C2 16.7688 3.23122 18 4.75 18C6.01019 18 7.0724 17.1524 7.39758 15.9961C8.84776 15.9194 10 14.7193 10 13.25V7.75C10 7.05964 10.5597 6.5 11.25 6.5H15.4393L13.7197 8.21967C13.4268 8.51256 13.4268 8.98744 13.7197 9.28033C14.0126 9.57322 14.4874 9.57322 14.7803 9.28033L17.7803 6.28033C18.0732 5.98744 18.0732 5.51256 17.7803 5.21967L14.7803 2.21967Z" fill="#212121"/>
</svg>
