<svg width="32" height="32" viewBox="0 0 32 32" fill="none" xmlns="http://www.w3.org/2000/svg">
<path d="M4.5 4.25177V7.67415C7.45013 4.5147 11.672 2.93712 16.0185 3.00192C21.96 3.09049 26.7161 6.26965 29.8018 11.076C30.1747 11.6569 30.0061 12.4302 29.4251 12.8031C28.8442 13.176 28.0709 13.0074 27.6979 12.4265C24.9851 8.20072 20.9469 5.57549 15.9812 5.50146C11.9678 5.44163 8.21325 7.00386 5.78874 10.0014H9.75C10.4404 10.0014 11 10.561 11 11.2513C11 11.9416 10.4404 12.5012 9.75 12.5012H3.25C2.55964 12.5012 2 11.9416 2 11.2513V4.25177C2 3.56147 2.55964 3.00186 3.25 3.00186C3.94036 3.00186 4.5 3.56147 4.5 4.25177ZM12.4861 15.0993C12.9492 15.2947 13.2502 15.7484 13.2502 16.2509V27.4998C13.2502 28.19 12.6907 28.7496 12.0004 28.7497C11.3099 28.7498 10.7502 28.1902 10.7502 27.4998V19.03C10.3229 19.3371 9.80555 19.6752 9.14331 20.0725C8.55133 20.4277 7.78351 20.2357 7.42832 19.6438C7.07314 19.0519 7.26509 18.2841 7.85707 17.9289C8.90335 17.3012 9.48984 16.875 9.91288 16.5178C10.2234 16.2556 10.4442 16.035 10.7227 15.7567C10.8431 15.6364 10.9742 15.5054 11.128 15.3556C11.488 15.0049 12.023 14.9039 12.4861 15.0993ZM16.9491 17.2989C17.7869 15.8816 19.1781 15.001 21.1004 15.001C23.0227 15.001 24.4139 15.8816 25.2518 17.2989C26.0333 18.6209 26.2868 20.3219 26.2868 22.0005C26.2868 23.6791 26.0333 25.3801 25.2518 26.7021C24.4139 28.1194 23.0227 29 21.1004 29C19.1781 29 17.7869 28.1194 16.9491 26.7021C16.1676 25.3801 15.9141 23.6791 15.9141 22.0005C15.9141 20.3219 16.1676 18.6209 16.9491 17.2989ZM19.1012 18.5709C18.6526 19.3299 18.4141 20.5037 18.4141 22.0005C18.4141 23.4973 18.6526 24.6711 19.1012 25.4301C19.4935 26.0936 20.0704 26.5002 21.1004 26.5002C22.1304 26.5002 22.7074 26.0936 23.0996 25.4301C23.5482 24.6711 23.7868 23.4973 23.7868 22.0005C23.7868 20.5037 23.5482 19.3299 23.0996 18.5709C22.7074 17.9074 22.1304 17.5008 21.1004 17.5008C20.0704 17.5008 19.4935 17.9074 19.1012 18.5709Z" fill="#212121"/>
</svg>
