<svg width="20" height="20" viewBox="0 0 20 20" fill="none" xmlns="http://www.w3.org/2000/svg">
<path d="M10 9.00002C11.8401 9.00002 13.5286 9.28616 14.7754 9.76565C15.3971 10.0048 15.9345 10.302 16.3252 10.6572C16.716 11.0127 17 11.4655 17 12V15L16.9873 15.1963C16.9277 15.6461 16.6673 16.0318 16.3252 16.3428C15.9345 16.698 15.3971 16.9953 14.7754 17.2344C13.5286 17.7139 11.8401 18 10 18C8.15987 18 6.47141 17.7139 5.22461 17.2344C4.60292 16.9953 4.06549 16.698 3.6748 16.3428C3.33275 16.0318 3.07232 15.6461 3.0127 15.1963L3 15V12C3 11.4655 3.28397 11.0127 3.6748 10.6572C4.06549 10.302 4.60291 10.0048 5.22461 9.76565C6.47141 9.28616 8.15986 9.00002 10 9.00002ZM16 13.6026C15.656 13.8454 15.239 14.0561 14.7754 14.2344C13.5286 14.7139 11.8401 15 10 15C8.15987 15 6.47141 14.7139 5.22461 14.2344C4.76096 14.0561 4.344 13.8454 4 13.6026L4.00391 15.0606C4.02296 15.2075 4.11396 15.391 4.34766 15.6035C4.61475 15.8463 5.02896 16.0877 5.58301 16.3008C6.68872 16.7261 8.25041 17 10 17C11.7496 17 13.3113 16.7261 14.417 16.3008C14.971 16.0877 15.3852 15.8463 15.6523 15.6035C15.886 15.391 15.977 15.2075 15.9961 15.0606L16 13.6026ZM10 10C8.2504 10 6.68872 10.274 5.58301 10.6992C5.02896 10.9124 4.61475 11.1538 4.34766 11.3965C4.08068 11.6393 4 11.8442 4 12C4.00001 12.1559 4.08068 12.3608 4.34766 12.6035C4.61475 12.8463 5.02896 13.0877 5.58301 13.3008C6.68872 13.7261 8.25041 14 10 14C11.7496 14 13.3113 13.7261 14.417 13.3008C14.971 13.0877 15.3852 12.8463 15.6523 12.6035C15.9193 12.3608 16 12.1559 16 12C16 11.8442 15.9193 11.6393 15.6523 11.3965C15.3853 11.1538 14.971 10.9124 14.417 10.6992C13.3113 10.274 11.7496 10 10 10ZM14.9482 3.95022C15.1435 3.75498 15.46 3.75502 15.6553 3.95022C15.8505 4.14548 15.8505 4.46199 15.6553 4.65725C12.5311 7.78134 7.46596 7.78139 4.3418 4.65725C4.14654 4.46199 4.14655 4.14548 4.3418 3.95022C4.53706 3.75496 4.85357 3.75496 5.04883 3.95022C7.78247 6.68384 12.2146 6.68379 14.9482 3.95022ZM13.1826 2.18166C13.3779 1.98649 13.6944 1.98643 13.8896 2.18166C14.0848 2.37691 14.0848 2.69347 13.8896 2.8887C11.7418 5.03657 8.25921 5.03656 6.11133 2.8887C5.91607 2.69344 5.91608 2.37693 6.11133 2.18166C6.30659 1.9864 6.6231 1.9864 6.81836 2.18166C8.57572 3.939 11.4253 3.93902 13.1826 2.18166Z" fill="#212121"/>
</svg>
