<svg width="20" height="20" viewBox="0 0 20 20" fill="none" xmlns="http://www.w3.org/2000/svg">
<path d="M14.6469 8.24599C14.4145 5.92329 12.8166 4 10 4C7.18335 4 5.58687 5.90802 5.35314 8.24599L5.10199 8.25098C3.3731 8.34717 2 9.82009 2 11.623C2 13.4881 3.46942 15 5.28205 15H14.7179C16.5306 15 18 13.4881 18 11.623C18 9.75792 16.5306 8.24599 14.7179 8.24599L14.6469 8.24599ZM8.5 7H11.5C11.7761 7 12 7.22386 12 7.5C12 7.77614 11.7761 8 11.5 8H8.5C8.22386 8 8 7.77614 8 7.5C8 7.22386 8.22386 7 8.5 7ZM4 11.5C4 11.2239 4.22386 11 4.5 11H8.5C8.77614 11 9 11.2239 9 11.5C9 11.7761 8.77614 12 8.5 12H4.5C4.22386 12 4 11.7761 4 11.5ZM11.5 11H15.5C15.7761 11 16 11.2239 16 11.5C16 11.7761 15.7761 12 15.5 12H11.5C11.2239 12 11 11.7761 11 11.5C11 11.2239 11.2239 11 11.5 11Z" fill="#212121"/>
</svg>
