<svg width="32" height="32" viewBox="0 0 32 32" fill="none" xmlns="http://www.w3.org/2000/svg">
<path d="M21.582 14.0039C22.9175 12.6687 25.0824 12.6687 26.418 14.0039L28.9961 16.582C30.3313 17.9176 30.3313 20.0824 28.9961 21.418L22.4141 28H27C27.5523 28 28 28.4477 28 29C28 29.5523 27.5523 30 27 30H19C18.9724 30 18.945 29.9983 18.918 29.9961C18.0703 29.9759 17.229 29.6429 16.582 28.9961L14.0049 26.4189C12.6692 25.0834 12.6684 22.9177 14.0039 21.582L21.582 14.0039ZM15.418 22.9961C14.8637 23.5505 14.8639 24.4494 15.418 25.0039L17.9961 27.582C18.5506 28.1363 19.4494 28.1363 20.0039 27.582L21.0859 26.5L16.5 21.9141L15.418 22.9961ZM25.0039 15.418C24.4494 14.8638 23.5506 14.8638 22.9961 15.418L17.9141 20.5L22.5 25.0859L27.582 20.0039C28.1362 19.4494 28.1362 18.5506 27.582 17.9961L25.0039 15.418ZM15 3C15.5523 3 16 3.44772 16 4V8H18C18.5523 8 19 8.44772 19 9C19 9.55228 18.5523 10 18 10H16V15C16 15.5523 15.5523 16 15 16C14.4478 15.9999 14 15.5522 14 15V4C14 3.44776 14.4478 3.00007 15 3ZM11 4C11.5523 4 12 4.44772 12 5C12 7.8378 10.3093 12.7694 4.3418 14.9395C3.82285 15.1281 3.24933 14.8607 3.06055 14.3418C2.87187 13.8229 3.13936 13.2494 3.6582 13.0605C7.99151 11.4848 9.56266 8.24892 9.91602 6H4C3.44778 5.99993 3 5.55224 3 5C3 4.44776 3.44778 4.00007 4 4H11Z" fill="#212121"/>
</svg>
