<svg width="16" height="16" viewBox="0 0 16 16" fill="none" xmlns="http://www.w3.org/2000/svg">
<path d="M13.4011 1.05794C13.6452 0.928887 13.9478 1.02218 14.0768 1.26631C14.6663 2.38144 14.9998 3.65249 14.9998 4.99998C14.9998 6.34746 14.6663 7.61852 14.0768 8.73364C13.9478 8.97778 13.6452 9.07107 13.4011 8.94202C13.157 8.81297 13.0637 8.51045 13.1927 8.26631C13.7079 7.29172 13.9998 6.18068 13.9998 4.99998C13.9998 3.81928 13.7079 2.70824 13.1927 1.73364C13.0637 1.48951 13.157 1.18699 13.4011 1.05794ZM5 4.99998C5 3.89541 5.89543 2.99998 7 2.99998C8.10457 2.99998 9 3.89541 9 4.99998C9 6.10455 8.10457 6.99998 7 6.99998C5.89543 6.99998 5 6.10455 5 4.99998ZM7 1.99998C5.34315 1.99998 4 3.34312 4 4.99998C4 6.65683 5.34315 7.99998 7 7.99998C8.65685 7.99998 10 6.65683 10 4.99998C10 3.34312 8.65685 1.99998 7 1.99998ZM12 10.5C12 9.67155 11.3284 8.99998 10.5 8.99998H3.5C2.67157 8.99998 2 9.67155 2 10.5V11C2 12.9714 3.85951 15 7 15C10.1405 15 12 12.9714 12 11V10.5ZM3 10.5C3 10.2238 3.22386 9.99998 3.5 9.99998H10.5C10.7761 9.99998 11 10.2238 11 10.5V11C11 12.4376 9.56784 14 7 14C4.43216 14 3 12.4376 3 11V10.5ZM11.9496 2.59722C11.8289 2.34889 11.5297 2.24548 11.2813 2.36625C11.033 2.48703 10.9296 2.78624 11.0504 3.03457C11.3389 3.62779 11.5009 4.29421 11.5009 4.9999C11.5009 5.70559 11.3389 6.372 11.0504 6.96522C10.9296 7.21355 11.033 7.51277 11.2813 7.63354C11.5297 7.75431 11.8289 7.65091 11.9496 7.40258C12.303 6.67606 12.5009 5.86039 12.5009 4.9999C12.5009 4.13941 12.303 3.32374 11.9496 2.59722Z" fill="#212121"/>
</svg>
