<svg width="48" height="48" viewBox="0 0 48 48" fill="none" xmlns="http://www.w3.org/2000/svg">
<path d="M32.75 28C35.0965 28 37 29.9014 37 32.249V33C37 36.7554 35.0584 39.5666 32.0801 41.3799C29.1512 43.163 25.2139 44 21 44C16.7861 44 12.8488 43.163 9.91992 41.3799C6.94161 39.5666 5 36.7554 5 33V32.249C5.00002 29.9014 6.90338 28 9.25 28H32.75ZM9.25 30.5C8.28308 30.5 7.50001 31.2831 7.5 32.249V33C7.5 35.7444 8.85988 37.8084 11.2197 39.2451C13.6293 40.712 17.0677 41.5 21 41.5C24.9323 41.5 28.3707 40.712 30.7803 39.2451C33.1401 37.8084 34.5 35.7444 34.5 33V32.249C34.5 31.2832 33.7169 30.5 32.75 30.5H9.25ZM21 4C26.5228 4 31 8.47715 31 14C31 19.5228 26.5228 24 21 24C15.4772 24 11 19.5228 11 14C11 8.47715 15.4772 4 21 4ZM39.2939 4.12207C39.9198 3.83078 40.6628 4.10171 40.9541 4.72754C42.2662 7.54672 43 10.6891 43 14C43 17.3107 42.2659 20.4526 40.9541 23.2715C40.6628 23.8973 39.9198 24.1682 39.2939 23.877C38.6681 23.5856 38.3972 22.8427 38.6885 22.2168C39.8501 19.7207 40.5 16.9379 40.5 14C40.5 11.0617 39.8503 8.27839 38.6885 5.78223C38.3972 5.15637 38.6681 4.4134 39.2939 4.12207ZM21 6.5C16.8579 6.5 13.5 9.85786 13.5 14C13.5 18.1421 16.8579 21.5 21 21.5C25.1421 21.5 28.5 18.1421 28.5 14C28.5 9.85786 25.1421 6.5 21 6.5ZM34.3701 7.6416C35.0163 7.39889 35.7366 7.72595 35.9795 8.37207C36.6379 10.1238 37 12.0205 37 14C37 15.9794 36.6377 17.8756 35.9795 19.627C35.7367 20.2731 35.0163 20.6001 34.3701 20.3574C33.724 20.1146 33.3969 19.3942 33.6396 18.748C34.1945 17.2716 34.5 15.6724 34.5 14C34.5 12.3271 34.1947 10.7275 33.6396 9.25098C33.3969 8.60484 33.724 7.88447 34.3701 7.6416Z" fill="#212121"/>
</svg>
