<svg width="16" height="16" viewBox="0 0 16 16" fill="none" xmlns="http://www.w3.org/2000/svg">
<path d="M14 2C14.5523 2 15 2.44772 15 3C15 3.55228 14.5523 4 14 4V9.5C14 10.8807 12.8807 12 11.5 12H8.5V13H10.5C10.7761 13 11 13.2239 11 13.5C11 13.7761 10.7761 14 10.5 14H5.5C5.22386 14 5 13.7761 5 13.5C5 13.2239 5.22386 13 5.5 13H7.5V12H4.5C3.11929 12 2 10.8807 2 9.5V4C1.44772 4 1 3.55228 1 3C1 2.44772 1.44772 2 2 2H14ZM3 9.5C3 10.3284 3.67157 11 4.5 11H11.5C12.3284 11 13 10.3284 13 9.5V4H3V9.5ZM9.5 9C9.77614 9 10 9.22386 10 9.5C10 9.77614 9.77614 10 9.5 10H6.5C6.22386 10 6 9.77614 6 9.5C6 9.22386 6.22386 9 6.5 9H9.5ZM10.5 7C10.7761 7 11 7.22386 11 7.5C11 7.77614 10.7761 8 10.5 8H5.5C5.22386 8 5 7.77614 5 7.5C5 7.22386 5.22386 7 5.5 7H10.5ZM9.5 5C9.77614 5 10 5.22386 10 5.5C10 5.77614 9.77614 6 9.5 6H6.5C6.22386 6 6 5.77614 6 5.5C6 5.22386 6.22386 5 6.5 5H9.5Z" fill="#212121"/>
</svg>
