<svg width="16" height="16" viewBox="0 0 16 16" fill="none" xmlns="http://www.w3.org/2000/svg">
<path d="M14.8535 1.85355C15.0488 1.65829 15.0488 1.34171 14.8535 1.14645C14.6583 0.951184 14.3417 0.951185 14.1464 1.14645L6.14645 9.14645L6.00008 10L6.85355 9.85355L14.8535 1.85355Z" fill="#212121"/>
<path d="M4.5 2C3.11929 2 2 3.11929 2 4.5V11.5C2 12.8807 3.11929 14 4.5 14H11.5C12.8807 14 14 12.8807 14 11.5V6.5C14 6.22386 13.7761 6 13.5 6C13.2239 6 13 6.22386 13 6.5V11.5C13 12.3284 12.3284 13 11.5 13H4.5C3.67157 13 3 12.3284 3 11.5V4.5C3 3.67157 3.67157 3 4.5 3H9.50459C9.78073 3 10.0046 2.77614 10.0046 2.5C10.0046 2.22386 9.78073 2 9.50459 2H4.5Z" fill="#212121"/>
</svg>
