<svg width="48" height="48" viewBox="0 0 48 48" fill="none" xmlns="http://www.w3.org/2000/svg">
<path d="M43.6338 6.13388C44.122 5.64573 44.122 4.85427 43.6338 4.36612C43.1457 3.87796 42.3542 3.87796 41.8661 4.36612L18.7322 27.5L18 29.9999L20.4999 29.2678L43.6338 6.13388ZM28.75 6C29.4404 6 30 6.55964 30 7.25C30 7.94036 29.4404 8.5 28.75 8.5H12.25C10.1789 8.5 8.5 10.1789 8.5 12.25V35.75C8.5 37.8211 10.1789 39.5 12.25 39.5H35.75C37.8211 39.5 39.5 37.8211 39.5 35.75V19.25C39.5 18.5596 40.0596 18 40.75 18C41.4404 18 42 18.5596 42 19.25V35.75C42 39.2018 39.2018 42 35.75 42H12.25C8.79822 42 6 39.2018 6 35.75V12.25C6 8.79822 8.79822 6 12.25 6H28.75Z" fill="#212121"/>
</svg>
