<svg width="32" height="32" viewBox="0 0 32 32" fill="none" xmlns="http://www.w3.org/2000/svg">
<path d="M18 4.00004C18.5523 4.00004 19 4.44776 19 5.00004C18.9999 5.55223 18.5522 6.00004 18 6.00004H7.5C6.11929 6.00004 5 7.11932 5 8.50003V24.5C5.00011 25.8806 6.11936 27 7.5 27H23.5C24.8806 27 25.9999 25.8806 26 24.5V14C26 13.4477 26.4477 13 27 13C27.5523 13 28 13.4477 28 14V24.5C27.9999 26.9852 25.9852 29 23.5 29H7.5C5.01479 29 3.00011 26.9852 3 24.5V8.50003C3 6.01476 5.01472 4.00004 7.5 4.00004H18ZM27.292 3.29301C27.6825 2.90253 28.3155 2.90266 28.7061 3.29301C29.0963 3.68355 29.0965 4.31664 28.7061 4.70707L14.1201 19.293L12 20L12.707 17.8779L27.292 3.29301Z" fill="#212121"/>
</svg>
