<svg width="16" height="16" viewBox="0 0 16 16" fill="none" xmlns="http://www.w3.org/2000/svg">
<path d="M8.25 3.00003C8.66421 3.00003 8.99999 3.33582 8.99999 3.75003C8.99995 4.1642 8.66418 4.50003 8.25 4.50003H4.75C4.05964 4.50003 3.5 5.05967 3.5 5.75002V11.25C3.50005 11.9403 4.05967 12.5 4.75 12.5H10.25C10.9403 12.5 11.4999 11.9403 11.5 11.25V7.75002C11.5 7.3358 11.8358 7.00002 12.25 7.00002C12.6642 7.00002 13 7.3358 13 7.75002V11.25C12.9999 12.7687 11.7687 14 10.25 14H4.75C3.23125 14 2.00005 12.7687 2 11.25V5.75002C2 4.23124 3.23122 3.00003 4.75 3.00003H8.25ZM12.7197 2.21976C13.0126 1.92687 13.4874 1.92687 13.7803 2.21976C14.073 2.51266 14.0731 2.98745 13.7803 3.2803L7.59082 9.46974L6 10L6.53027 8.4092L12.7197 2.21976Z" fill="#212121"/>
</svg>
