<svg width="28" height="28" viewBox="0 0 28 28" fill="none" xmlns="http://www.w3.org/2000/svg">
<path d="M16.25 4.00003C16.6642 4.00003 17 4.33582 17 4.75003C16.9999 5.1642 16.6642 5.50003 16.25 5.50003H6.75C5.50736 5.50003 4.5 6.50739 4.5 7.75003V21.25C4.50005 22.4926 5.50739 23.5 6.75 23.5H20.25C21.4926 23.5 22.4999 22.4926 22.5 21.25V11.75C22.5 11.3358 22.8358 11 23.25 11C23.6642 11 24 11.3358 24 11.75V21.25C23.9999 23.321 22.321 25 20.25 25H6.75C4.67896 25 3.00005 23.321 3 21.25V7.75003C3 5.67896 4.67893 4.00003 6.75 4.00003H16.25ZM23.7197 3.21976C24.0126 2.92687 24.4874 2.92687 24.7803 3.21976C25.0731 3.51265 25.0732 3.98742 24.7803 4.2803L12.5908 16.4697L11 17L11.5303 15.4092L23.7197 3.21976Z" fill="#212121"/>
</svg>
