<svg width="32" height="32" viewBox="0 0 32 32" fill="none" xmlns="http://www.w3.org/2000/svg">
<path d="M6.00098 7.5C6.00098 5.01472 8.0157 3 10.501 3H25.501C27.9863 3 30.001 5.01472 30.001 7.5V17.5C30.001 19.9853 27.9863 22 25.501 22H19.1924C18.5924 20.6841 17.316 19.8307 16 19.5783V18C16 16.3431 17.3431 15 19 15H24C25.6569 15 27 16.3431 27 18V19.5009C27.6078 19.0449 28.001 18.3183 28.001 17.5V7.5C28.001 6.11929 26.8817 5 25.501 5H10.501C9.12027 5 8.00098 6.11929 8.00098 7.5V7.8135C7.26897 8.04997 6.59374 8.41275 6.00098 8.87616V7.5ZM15.1905 21C16.0281 21 16.8653 21.369 17.4148 22H17.4138C17.8367 22.4856 18.0893 23.1263 18.0408 23.8734C17.906 25.9468 17.1233 27.5534 15.6378 28.6014C14.2053 29.612 12.2605 30 9.99928 30C7.75055 30 5.84282 29.6164 4.43253 28.6138C2.97478 27.5774 2.20535 25.9952 2.01611 23.9649C1.85315 22.2165 3.34911 21 4.87152 21H15.1905ZM21.5 14C23.433 14 25 12.433 25 10.5C25 8.567 23.433 7 21.5 7C19.567 7 18 8.567 18 10.5C18 12.433 19.567 14 21.5 14ZM15 14C15 16.7614 12.7614 19 10 19C7.23858 19 5 16.7614 5 14C5 11.2386 7.23858 9 10 9C12.7614 9 15 11.2386 15 14Z" fill="#212121"/>
</svg>
