<svg width="20" height="20" viewBox="0 0 20 20" fill="none" xmlns="http://www.w3.org/2000/svg">
<path d="M11.3544 15.8527C11.1594 16.0484 10.8429 16.0489 10.6472 15.854L5.16276 10.389C4.94705 10.1741 4.94705 9.82477 5.16276 9.60982L10.6472 4.14484C10.8429 3.94993 11.1594 3.95049 11.3544 4.1461C11.5493 4.34171 11.5487 4.65829 11.3531 4.85321L6.18851 9.99942L11.3531 15.1456C11.5487 15.3406 11.5493 15.6571 11.3544 15.8527ZM15.3534 15.8527C15.1585 16.0484 14.8419 16.0489 14.6463 15.854L9.16178 10.389C8.94607 10.1741 8.94607 9.82477 9.16178 9.60982L14.6463 4.14484C14.8419 3.94993 15.1585 3.95049 15.3534 4.1461C15.5483 4.34171 15.5477 4.65829 15.3521 4.85321L10.1875 9.99942L15.3521 15.1456C15.5477 15.3406 15.5483 15.6571 15.3534 15.8527Z" fill="#212121"/>
</svg>
