<svg width="16" height="16" viewBox="0 0 16 16" fill="none" xmlns="http://www.w3.org/2000/svg">
<path d="M6.5 2C6.22386 2 6 2.22386 6 2.5V10.5C6 10.7761 6.22386 11 6.5 11C6.77614 11 7 10.7761 7 10.5V7H9.5C10.8807 7 12 5.88071 12 4.5C12 3.11929 10.8807 2 9.5 2H6.5ZM9.5 6H7V3H9.5C10.3284 3 11 3.67157 11 4.5C11 5.32843 10.3284 6 9.5 6Z" fill="#212121"/>
<path d="M4.5 13C4.22386 13 4 13.2239 4 13.5C4 13.7761 4.22386 14 4.5 14H11.5C11.7761 14 12 13.7761 12 13.5C12 13.2239 11.7761 13 11.5 13H4.5Z" fill="#212121"/>
</svg>
