<svg width="24" height="24" viewBox="0 0 24 24" fill="none" xmlns="http://www.w3.org/2000/svg">
<path d="M14 9C13.4477 9 13 9.44772 13 10C13 10.5523 13.4477 11 14 11C14.5523 11 15 10.5523 15 10C15 9.44772 14.5523 9 14 9ZM7.25 6.5C6.83579 6.5 6.5 6.83579 6.5 7.25V16.75C6.5 17.1642 6.83579 17.5 7.25 17.5H16.75C17.1642 17.5 17.5 17.1642 17.5 16.75V7.25C17.5 6.83579 17.1642 6.5 16.75 6.5H7.25ZM10.409 12.659L8 15.068V8H16V15.068L13.591 12.659C12.7123 11.7803 11.2877 11.7803 10.409 12.659ZM12.5303 13.7197L14.8107 16H9.18934L11.4697 13.7197C11.7626 13.4268 12.2374 13.4268 12.5303 13.7197ZM6.25 3C4.45507 3 3 4.45507 3 6.25V17.75C3 19.5449 4.45507 21 6.25 21H17.75C19.5449 21 21 19.5449 21 17.75V6.25C21 4.45507 19.5449 3 17.75 3H6.25ZM4.5 6.25C4.5 5.2835 5.2835 4.5 6.25 4.5H17.75C18.7165 4.5 19.5 5.2835 19.5 6.25V17.75C19.5 18.7165 18.7165 19.5 17.75 19.5H6.25C5.2835 19.5 4.5 18.7165 4.5 17.75V6.25Z" fill="#212121"/>
</svg>
