<svg width="24" height="24" viewBox="0 0 24 24" fill="none" xmlns="http://www.w3.org/2000/svg">
<path d="M15.445 15.9159C15.9769 16.5113 16.8243 16.6574 17.5093 16.3272C17.1877 16.8051 17 17.3806 17 18C17 18.6194 17.1877 19.1949 17.5093 19.6728C16.8243 19.3426 15.9769 19.4887 15.445 20.0841C15.0983 20.4721 14.9563 20.9719 15.0116 21.4511C14.0755 21.8058 13.0604 22 12 22C7.30558 22 3.5 18.1944 3.5 13.5C3.5 8.80558 7.30558 5 12 5C16.2342 5 19.7452 8.09595 20.393 12.1476C20.0179 12.0504 19.632 12 19.25 12C18.1523 12 17.2284 12.3909 16.6358 12.7183C16.329 12.8879 16.0804 13.0574 15.9045 13.1877C15.8159 13.2534 15.7439 13.3105 15.6903 13.3545C15.6634 13.3766 15.641 13.3955 15.6233 13.4107L15.6001 13.4308L15.5912 13.4386L15.5874 13.442L15.5841 13.445C14.8633 14.0889 14.8011 15.1952 15.445 15.9159ZM11.2568 8.64823L11.25 8.75V13.25L11.2568 13.3518C11.3065 13.7178 11.6203 14 12 14C12.3797 14 12.6935 13.7178 12.7432 13.3518L12.75 13.25V8.75L12.7432 8.64823C12.6935 8.28215 12.3797 8 12 8C11.6203 8 11.3065 8.28215 11.2568 8.64823ZM19.2517 5.18424L19.1704 5.1226C18.8617 4.91974 18.4428 4.97122 18.1936 5.25764C17.9217 5.5701 17.9545 6.04383 18.267 6.31576L19.416 7.31576L19.4973 7.3774C19.8061 7.58026 20.2249 7.52878 20.4742 7.24236C20.7461 6.9299 20.7132 6.45617 20.4008 6.18424L19.2517 5.18424ZM15 3.25C15 2.83579 14.6642 2.5 14.25 2.5H9.75L9.64823 2.50685C9.28215 2.55651 9 2.8703 9 3.25C9 3.66421 9.33579 4 9.75 4H14.25L14.3518 3.99315C14.7178 3.94349 15 3.6297 15 3.25ZM18.25 18C18.25 17.5858 18.5858 17.25 19 17.25C19.5275 17.25 20.0578 17.0651 20.444 16.7767C20.8346 16.485 21 16.1541 21 15.875C21 15.2253 20.3354 14.5 19.25 14.5C18.7342 14.5 18.2373 14.6896 17.845 14.9064C17.6533 15.0123 17.4984 15.1183 17.393 15.1963C17.3406 15.2351 17.3013 15.2665 17.2767 15.2867C17.2645 15.2968 17.2559 15.304 17.2513 15.3079L17.2476 15.3112C16.9386 15.5851 16.4661 15.5579 16.1907 15.2497C15.9147 14.9408 15.9418 14.4664 16.2507 14.1904L16.2519 14.1893L16.2538 14.1876L16.2591 14.183L16.2745 14.1696C16.287 14.1589 16.3038 14.1447 16.3249 14.1274C16.3669 14.0929 16.4258 14.0461 16.4999 13.9912C16.6476 13.8817 16.8587 13.7377 17.1195 13.5936C17.632 13.3104 18.3851 13 19.25 13C20.926 13 22.5 14.1775 22.5 15.875C22.5 16.7695 21.9808 17.5011 21.3415 17.9785L21.3125 18L21.3415 18.0215C21.9808 18.4989 22.5 19.2305 22.5 20.125C22.5 21.8225 20.926 23 19.25 23C18.3851 23 17.632 22.6896 17.1195 22.4064C16.8587 22.2623 16.6476 22.1183 16.4999 22.0088C16.4258 21.9539 16.3669 21.9071 16.3249 21.8726C16.3038 21.8553 16.287 21.8411 16.2745 21.8304L16.2591 21.817L16.2538 21.8124L16.2519 21.8107L16.2503 21.8093C15.9414 21.5333 15.9147 21.0592 16.1907 20.7503C16.4661 20.4421 16.9389 20.4151 17.2478 20.689L17.2486 20.6897L17.2513 20.6921C17.2551 20.6953 17.2615 20.7008 17.2705 20.7082C17.2724 20.7098 17.2745 20.7115 17.2767 20.7133C17.3013 20.7335 17.3406 20.7649 17.393 20.8037C17.4984 20.8817 17.6533 20.9877 17.845 21.0936C18.2373 21.3104 18.7342 21.5 19.25 21.5C20.3354 21.5 21 20.7747 21 20.125C21 19.8459 20.8346 19.515 20.444 19.2233C20.0578 18.9349 19.5275 18.75 19 18.75C18.5858 18.75 18.25 18.4142 18.25 18Z" fill="#212121"/>
</svg>
