<svg width="20" height="20" viewBox="0 0 20 20" fill="none" xmlns="http://www.w3.org/2000/svg">
<path d="M2 4C2 2.89543 2.89543 2 4 2H10C11.1046 2 12 2.89543 12 4V5H16C17.1046 5 18 5.89543 18 7V17C18 17.5523 17.5523 18 17 18H3C2.44772 18 2 17.5523 2 17V4ZM12 17H14V15H12V17ZM15 17H17V7C17 6.44772 16.5523 6 16 6H10C9.44772 6 9 6.44772 9 7V17H11V15C11 14.4477 11.4477 14 12 14H14C14.5523 14 15 14.4477 15 15V17ZM11 4C11 3.44772 10.5523 3 10 3H4C3.44772 3 3 3.44772 3 4V17H8V7C8 5.89543 8.89543 5 10 5H11V4ZM12 8.75C12 9.16421 11.6642 9.5 11.25 9.5C10.8358 9.5 10.5 9.16421 10.5 8.75C10.5 8.33579 10.8358 8 11.25 8C11.6642 8 12 8.33579 12 8.75ZM5.25 9.5C5.66421 9.5 6 9.16421 6 8.75C6 8.33579 5.66421 8 5.25 8C4.83579 8 4.5 8.33579 4.5 8.75C4.5 9.16421 4.83579 9.5 5.25 9.5ZM6 5.75C6 6.16421 5.66421 6.5 5.25 6.5C4.83579 6.5 4.5 6.16421 4.5 5.75C4.5 5.33579 4.83579 5 5.25 5C5.66421 5 6 5.33579 6 5.75ZM11.25 12.5C11.6642 12.5 12 12.1642 12 11.75C12 11.3358 11.6642 11 11.25 11C10.8358 11 10.5 11.3358 10.5 11.75C10.5 12.1642 10.8358 12.5 11.25 12.5ZM6 14.75C6 15.1642 5.66421 15.5 5.25 15.5C4.83579 15.5 4.5 15.1642 4.5 14.75C4.5 14.3358 4.83579 14 5.25 14C5.66421 14 6 14.3358 6 14.75ZM5.25 12.5C5.66421 12.5 6 12.1642 6 11.75C6 11.3358 5.66421 11 5.25 11C4.83579 11 4.5 11.3358 4.5 11.75C4.5 12.1642 4.83579 12.5 5.25 12.5ZM15.5 8.75C15.5 9.16421 15.1642 9.5 14.75 9.5C14.3358 9.5 14 9.16421 14 8.75C14 8.33579 14.3358 8 14.75 8C15.1642 8 15.5 8.33579 15.5 8.75ZM14.75 12.5C15.1642 12.5 15.5 12.1642 15.5 11.75C15.5 11.3358 15.1642 11 14.75 11C14.3358 11 14 11.3358 14 11.75C14 12.1642 14.3358 12.5 14.75 12.5Z" fill="#212121"/>
</svg>
