<svg width="20" height="20" viewBox="0 0 20 20" fill="none" xmlns="http://www.w3.org/2000/svg">
<path d="M2.5 2C2.77614 2 3 2.22386 3 2.5V15.5C3 16.3284 3.67157 17 4.5 17H17.5C17.7761 17 18 17.2239 18 17.5C18 17.7761 17.7761 18 17.5 18H4.5C3.11929 18 2 16.8807 2 15.5V2.5C2 2.22386 2.22386 2 2.5 2ZM5 7.5C5 6.11929 6.11929 5 7.5 5C8.88071 5 10 6.11929 10 7.5C10 8.88071 8.88071 10 7.5 10C6.11929 10 5 8.88071 5 7.5ZM7.5 6C6.67157 6 6 6.67157 6 7.5C6 8.32843 6.67157 9 7.5 9C8.32843 9 9 8.32843 9 7.5C9 6.67157 8.32843 6 7.5 6ZM14.5 3C13.1193 3 12 4.11929 12 5.5C12 6.88071 13.1193 8 14.5 8C15.8807 8 17 6.88071 17 5.5C17 4.11929 15.8807 3 14.5 3ZM13 5.5C13 4.67157 13.6716 4 14.5 4C15.3284 4 16 4.67157 16 5.5C16 6.32843 15.3284 7 14.5 7C13.6716 7 13 6.32843 13 5.5ZM10 12.5C10 11.1193 11.1193 10 12.5 10C13.8807 10 15 11.1193 15 12.5C15 13.8807 13.8807 15 12.5 15C11.1193 15 10 13.8807 10 12.5ZM12.5 11C11.6716 11 11 11.6716 11 12.5C11 13.3284 11.6716 14 12.5 14C13.3284 14 14 13.3284 14 12.5C14 11.6716 13.3284 11 12.5 11Z" fill="#212121"/>
</svg>
