<svg width="24" height="24" viewBox="0 0 24 24" fill="none" xmlns="http://www.w3.org/2000/svg">
<path d="M9 6C7.34315 6 6 7.34315 6 9C6 10.6569 7.34315 12 9 12C10.6569 12 12 10.6569 12 9C12 7.34315 10.6569 6 9 6Z" fill="url(#paint0_linear_72095_9614)"/>
<path d="M15 12C13.3431 12 12 13.3431 12 15C12 16.6569 13.3431 18 15 18C16.6569 18 18 16.6569 18 15C18 13.3431 16.6569 12 15 12Z" fill="url(#paint1_linear_72095_9614)"/>
<path d="M14 7C14 5.34315 15.3431 4 17 4C18.6569 4 20 5.34315 20 7C20 8.65685 18.6569 10 17 10C15.3431 10 14 8.65685 14 7Z" fill="url(#paint2_linear_72095_9614)"/>
<path d="M5 4C5 3.44772 4.55228 3 4 3C3.44772 3 3 3.44772 3 4V17.5C3 19.433 4.567 21 6.5 21H20C20.5523 21 21 20.5523 21 20C21 19.4477 20.5523 19 20 19H6.5C5.67157 19 5 18.3284 5 17.5V4Z" fill="url(#paint3_linear_72095_9614)"/>
<defs>
<linearGradient id="paint0_linear_72095_9614" x1="6.75" y1="6.25" x2="13.2038" y2="13.8844" gradientUnits="userSpaceOnUse">
<stop stop-color="#36DFF1"/>
<stop offset="1" stop-color="#0078D4"/>
</linearGradient>
<linearGradient id="paint1_linear_72095_9614" x1="18" y1="18" x2="8.4" y2="8.4" gradientUnits="userSpaceOnUse">
<stop stop-color="#6D37CD"/>
<stop offset="0.640625" stop-color="#EA71EF"/>
</linearGradient>
<linearGradient id="paint2_linear_72095_9614" x1="19.5" y1="8.9" x2="15.2" y2="4" gradientUnits="userSpaceOnUse">
<stop stop-color="#E23CB4"/>
<stop offset="1" stop-color="#EA71EF"/>
</linearGradient>
<linearGradient id="paint3_linear_72095_9614" x1="19.3125" y1="4.125" x2="3.56041" y2="27.5804" gradientUnits="userSpaceOnUse">
<stop stop-color="#70777D"/>
<stop offset="1" stop-color="#B9C0C7"/>
</linearGradient>
</defs>
</svg>
