<svg width="32" height="32" viewBox="0 0 32 32" fill="none" xmlns="http://www.w3.org/2000/svg">
<path d="M5 4C5 3.44772 4.55228 3 4 3C3.44772 3 3 3.44772 3 4V24.5C3 26.9853 5.01472 29 7.5 29H28C28.5523 29 29 28.5523 29 28C29 27.4477 28.5523 27 28 27H7.5C6.11929 27 5 25.8807 5 24.5V4ZM12 8C9.79086 8 8 9.79086 8 12C8 14.2091 9.79086 16 12 16C14.2091 16 16 14.2091 16 12C16 9.79086 14.2091 8 12 8ZM10 12C10 10.8954 10.8954 10 12 10C13.1046 10 14 10.8954 14 12C14 13.1046 13.1046 14 12 14C10.8954 14 10 13.1046 10 12ZM19 9C19 6.79086 20.7909 5 23 5C25.2091 5 27 6.79086 27 9C27 11.2091 25.2091 13 23 13C20.7909 13 19 11.2091 19 9ZM23 7C21.8954 7 21 7.89543 21 9C21 10.1046 21.8954 11 23 11C24.1046 11 25 10.1046 25 9C25 7.89543 24.1046 7 23 7ZM20 16C17.7909 16 16 17.7909 16 20C16 22.2091 17.7909 24 20 24C22.2091 24 24 22.2091 24 20C24 17.7909 22.2091 16 20 16ZM18 20C18 18.8954 18.8954 18 20 18C21.1046 18 22 18.8954 22 20C22 21.1046 21.1046 22 20 22C18.8954 22 18 21.1046 18 20Z" fill="#212121"/>
</svg>
