<svg width="16" height="16" viewBox="0 0 16 16" fill="none" xmlns="http://www.w3.org/2000/svg">
<path d="M7.31444 0.256132C7.04168 -0.0555957 6.56786 -0.0871838 6.25613 0.185578C5.9444 0.458339 5.91282 0.932161 6.18558 1.24389L6.87327 2.02983C3.57747 2.34513 1 5.12157 1 8.5C1 12.0899 3.91015 15 7.5 15C11.0899 15 14 12.0899 14 8.5C14 8.45486 14 8.36197 14 8.25019C14 7.83598 13.6642 7.5 13.25 7.5C12.8358 7.5 12.5 7.83598 12.5 8.25019C12.5 8.36189 12.5 8.45476 12.5 8.5C12.5 11.2614 10.2614 13.5 7.5 13.5C4.73858 13.5 2.5 11.2614 2.5 8.5C2.5 5.97431 4.37269 3.88601 6.80531 3.54787L6.18558 4.25613C5.91282 4.56786 5.9444 5.04168 6.25613 5.31444C6.56786 5.5872 7.04168 5.55562 7.31444 5.24389L9.06444 3.24389C9.31187 2.96112 9.31187 2.5389 9.06444 2.25613L7.31444 0.256132Z" fill="#212121"/>
<path d="M10.805 6.2455C11.0836 6.55199 11.061 7.02633 10.7545 7.30496L8.0045 9.80496C7.70827 10.0743 7.25276 10.0634 6.96967 9.78034L5.71967 8.53034C5.42678 8.23744 5.42678 7.76257 5.71967 7.46968C6.01256 7.17678 6.48744 7.17678 6.78033 7.46968L7.52465 8.214L9.74549 6.19505C10.052 5.91642 10.5263 5.93901 10.805 6.2455Z" fill="#212121"/>
</svg>
