<svg width="20" height="20" viewBox="0 0 20 20" fill="none" xmlns="http://www.w3.org/2000/svg">
<path d="M6 3C4.34315 3 3 4.34315 3 6V14C3 15.6569 4.34315 17 6 17H9.27052L9.76996 16H6C4.89543 16 4 15.1046 4 14V6C4 4.89543 4.89543 4 6 4H14C15.1046 4 16 4.89543 16 6V9.66898C16.112 9.79651 16.2109 9.94228 16.2929 10.1063L17 11.5207V6C17 4.34315 15.6569 3 14 3H6ZM13.8536 7.85355C14.0488 7.65829 14.0488 7.34171 13.8536 7.14645C13.6583 6.95118 13.3417 6.95118 13.1464 7.14645L8.5 11.7929L6.85355 10.1464C6.65829 9.95118 6.34171 9.95118 6.14645 10.1464C5.95118 10.3417 5.95118 10.6583 6.14645 10.8536L8.14645 12.8536C8.34171 13.0488 8.65829 13.0488 8.85355 12.8536L13.8536 7.85355ZM13.6029 10.5536L10.1068 17.552C9.77438 18.2174 10.2583 19 11.0022 19H17.9978C18.7419 19 19.2258 18.2171 18.893 17.5517L15.3935 10.5532C15.0246 9.81544 13.9716 9.81564 13.6029 10.5536ZM14.9983 12.4951V15.4974C14.9983 15.7738 14.7743 15.9978 14.4979 15.9978C14.2215 15.9978 13.9975 15.7738 13.9975 15.4974V12.4951C13.9975 12.2187 14.2215 11.9947 14.4979 11.9947C14.7743 11.9947 14.9983 12.2187 14.9983 12.4951ZM14.4979 17.9993C14.2215 17.9993 13.9975 17.7753 13.9975 17.499C13.9975 17.2226 14.2215 16.9986 14.4979 16.9986C14.7743 16.9986 14.9983 17.2226 14.9983 17.499C14.9983 17.7753 14.7743 17.9993 14.4979 17.9993Z" fill="#212121"/>
</svg>
