<svg width="20" height="20" viewBox="0 0 20 20" fill="none" xmlns="http://www.w3.org/2000/svg">
<path d="M11.2999 2.48129C10.4654 2.14751 9.53457 2.14751 8.70013 2.48129L2.94291 4.78418C2.37343 5.01197 2 5.56353 2 6.17689V13.8228C2 14.4362 2.37343 14.9877 2.94291 15.2155L8.70013 17.5184C8.81846 17.5658 8.93874 17.6064 9.0604 17.6403L9.30306 16.6697C9.22495 16.647 9.14767 16.6204 9.07152 16.59L3.3143 14.2871C3.12448 14.2111 3 14.0273 3 13.8228V6.23834L9.50015 8.8384V15.92C9.65673 15.4501 9.92076 15.0219 10.2726 14.6701L10.5001 14.4425V8.8384L17 6.23846V9.00299C17.3368 8.98764 17.6757 9.03128 18 9.13392V6.17689C18 5.56353 17.6266 5.01197 17.0571 4.78418L11.2999 2.48129ZM9.07152 3.40977C9.66755 3.17135 10.3324 3.17135 10.9285 3.40977L16.1538 5.4999L13.8751 6.41137L7.72133 3.94984L9.07152 3.40977ZM6.37504 4.48836L12.5289 6.94988L10.0001 7.96137L3.84633 5.49984L6.37504 4.48836ZM10.9798 15.3772L15.8092 10.5478C16.5395 9.81741 17.7237 9.81741 18.454 10.5478C19.1843 11.2781 19.1843 12.4622 18.454 13.1926L13.6246 18.022C13.343 18.3036 12.9902 18.5033 12.6039 18.5999L11.106 18.9744C10.4546 19.1372 9.86451 18.5472 10.0274 17.8958L10.4018 16.3979C10.4984 16.0116 10.6982 15.6588 10.9798 15.3772Z" fill="#212121"/>
</svg>
