<svg width="32" height="32" viewBox="0 0 32 32" fill="none" xmlns="http://www.w3.org/2000/svg">
<path d="M9.01095 8.52381C9.29593 8.19134 9.71195 8 10.1498 8H12C12.5523 8 13 7.55228 13 7C13 6.44772 12.5523 6 12 6H10.1498C9.1281 6 8.15738 6.44647 7.49244 7.22223L2.8426 12.647C2.29887 13.2814 2 14.0893 2 14.9248V19.5C2 21.9853 4.01472 24 6.5 24H10.5C12.9853 24 15 21.9853 15 19.5V17H17V19.5C17 21.9853 19.0147 24 21.5 24H25.5C27.9853 24 30 21.9853 30 19.5V14.9248C30 14.0893 29.7011 13.2814 29.1574 12.647L24.5076 7.22223C23.8426 6.44647 22.8719 6 21.8502 6H20C19.4477 6 19 6.44772 19 7C19 7.55228 19.4477 8 20 8H21.8502C22.288 8 22.7041 8.19134 22.989 8.52381L25.9686 12H20.5C18.7368 12 17.2781 13.3039 17.0354 15H14.9646C14.7219 13.3039 13.2632 12 11.5 12H6.03136L9.01095 8.52381Z" fill="#212121"/>
</svg>
