<svg width="24" height="24" viewBox="0 0 24 24" fill="none" xmlns="http://www.w3.org/2000/svg">
<path d="M8 9V17.5C8 18.0523 7.55228 18.5 7 18.5C6.48716 18.5 6.06449 18.114 6.00673 17.6166L6 17.5V9C6 8.44772 6.44772 8 7 8C7.51284 8 7.93551 8.38604 7.99327 8.88338L8 9ZM12.7071 2.29289L14.7071 4.29289C15.0976 4.68342 15.0976 5.31658 14.7071 5.70711C14.3466 6.06759 13.7794 6.09532 13.3871 5.7903L13.2929 5.70711L12 4.41421L10.7071 5.70711C10.3166 6.09763 9.68342 6.09763 9.29289 5.70711C8.93241 5.34662 8.90468 4.77939 9.2097 4.3871L9.29289 4.29289L11.2929 2.29289C11.6534 1.93241 12.2206 1.90468 12.6129 2.2097L12.7071 2.29289ZM13 8.99991L13.0011 20.4999C13.0011 21.0522 12.5535 21.5 12.0012 21.5C11.4883 21.5 11.0656 21.114 11.0078 20.6167L11.0011 20.5001L11 9.00009C10.9999 8.44781 11.4476 8 11.9999 8C12.5127 8 12.9354 8.38596 12.9933 8.88329L13 8.99991ZM18 9V17.5C18 18.0523 17.5523 18.5 17 18.5C16.4872 18.5 16.0645 18.114 16.0067 17.6166L16 17.5V9C16 8.44772 16.4477 8 17 8C17.5128 8 17.9355 8.38604 17.9933 8.88338L18 9Z" fill="#212121"/>
</svg>
