<svg width="20" height="20" viewBox="0 0 20 20" fill="none" xmlns="http://www.w3.org/2000/svg">
<path d="M5 2C4.72386 2 4.5 2.22386 4.5 2.5C4.5 2.77614 4.72386 3 5 3H6V4H5.5C4.67157 4 4 4.67157 4 5.5V12.5C4 13.3284 4.67157 14 5.5 14H6V15H5C4.72386 15 4.5 15.2239 4.5 15.5C4.5 15.7761 4.72386 16 5 16H8C8.27614 16 8.5 15.7761 8.5 15.5C8.5 15.2239 8.27614 15 8 15H7V14H7.5C8.32843 14 9 13.3284 9 12.5V5.5C9 4.67157 8.32843 4 7.5 4H7V3H8C8.27614 3 8.5 2.77614 8.5 2.5C8.5 2.22386 8.27614 2 8 2H5ZM5 12.5V11H8V12.5C8 12.7761 7.77614 13 7.5 13H5.5C5.22386 13 5 12.7761 5 12.5ZM5 5.5C5 5.22386 5.22386 5 5.5 5H7.5C7.77614 5 8 5.22386 8 5.5V10H5V5.5ZM12 4C11.7239 4 11.5 4.22386 11.5 4.5C11.5 4.77614 11.7239 5 12 5H13V6H12.5C11.6716 6 11 6.67157 11 7.5V14.5C11 15.3284 11.6716 16 12.5 16H13V17H12C11.7239 17 11.5 17.2239 11.5 17.5C11.5 17.7761 11.7239 18 12 18H15C15.2761 18 15.5 17.7761 15.5 17.5C15.5 17.2239 15.2761 17 15 17H14V16H14.5C15.3284 16 16 15.3284 16 14.5V7.5C16 6.67157 15.3284 6 14.5 6H14V5H15C15.2761 5 15.5 4.77614 15.5 4.5C15.5 4.22386 15.2761 4 15 4H12ZM15 9H12V7.5C12 7.22386 12.2239 7 12.5 7H14.5C14.7761 7 15 7.22386 15 7.5V9ZM12 10H15V14.5C15 14.7761 14.7761 15 14.5 15H12.5C12.2239 15 12 14.7761 12 14.5V10Z" fill="#212121"/>
</svg>
