<svg width="16" height="16" viewBox="0 0 16 16" fill="none" xmlns="http://www.w3.org/2000/svg">
<path d="M4.03004 5.50733C4.27283 3.53062 5.95767 2 8 2C9.92958 2 11.54 3.36628 11.9167 5.1842C11.4647 5.06404 10.9898 5 10.5 5C7.46243 5 5 7.46243 5 10.5C5 11.02 5.07217 11.5232 5.20703 12H4.25C2.45507 12 1 10.5449 1 8.75C1 7.029 2.33769 5.62043 4.03004 5.50733ZM15 10.5C15 12.9853 12.9853 15 10.5 15C8.01472 15 6 12.9853 6 10.5C6 8.01472 8.01472 6 10.5 6C12.9853 6 15 8.01472 15 10.5ZM12.8536 8.64645C12.6583 8.45118 12.3417 8.45118 12.1464 8.64645L9.5 11.2929L8.85355 10.6464C8.65829 10.4512 8.34171 10.4512 8.14645 10.6464C7.95118 10.8417 7.95118 11.1583 8.14645 11.3536L9.14645 12.3536C9.34171 12.5488 9.65829 12.5488 9.85355 12.3536L12.8536 9.35355C13.0488 9.15829 13.0488 8.84171 12.8536 8.64645Z" fill="#212121"/>
</svg>
