<svg width="20" height="20" viewBox="0 0 20 20" fill="none" xmlns="http://www.w3.org/2000/svg">
<path d="M6 3C4.34315 3 3 4.34315 3 6V14C3 15.6569 4.34315 17 6 17H9.05103C9.01778 16.8398 9 16.673 9 16.4995V16H6C4.89543 16 4 15.1046 4 14V6C4 4.89543 4.89543 4 6 4H14C15.1046 4 16 4.89543 16 6V7.12557C16.3469 7.18514 16.6817 7.26527 17 7.36465V6C17 4.34315 15.6569 3 14 3H6ZM17 8.42099C16.6915 8.30626 16.356 8.21216 16 8.14225C15.5308 8.05013 15.026 8 14.5 8C12.0147 8 10 9.11929 10 10.5C10 11.8807 12.0147 13 14.5 13C16.9853 13 19 11.8807 19 10.5C19 9.63322 18.206 8.86946 17 8.42099ZM9 11.25C8.87204 11.25 8.74409 11.2988 8.64646 11.3964L7.23436 12.8085L6.8372 12.4457C6.6333 12.2595 6.31704 12.2738 6.13081 12.4777C5.94459 12.6816 5.95891 12.9979 6.16281 13.1841L6.91281 13.8691C7.11021 14.0494 7.41451 14.0425 7.60355 13.8535L9 12.4571V11.25ZM9.35355 7.10356C9.54881 6.9083 9.54882 6.59172 9.35357 6.39646C9.15831 6.20119 8.84173 6.20118 8.64646 6.39644L7.23436 7.80847L6.8372 7.44572C6.6333 7.2595 6.31704 7.27382 6.13081 7.47772C5.94459 7.68162 5.95891 7.99788 6.16281 8.1841L6.91281 8.8691C7.11021 9.04939 7.41451 9.04251 7.60355 8.85347L9.35355 7.10356ZM14.5 14C15.8799 14 17.1785 13.6914 18.1676 13.1419C18.4605 12.9792 18.7461 12.7824 19.0013 12.5526C19.0008 13.7315 19 15.5953 19 16.4994C19 17.8802 16.9853 18.9994 14.5 18.9994C12.0147 18.9994 10 17.8802 10 16.4994V12.5538C10.2549 12.7831 10.54 12.9794 10.8324 13.1419C11.8215 13.6914 13.1201 14 14.5 14Z" fill="#212121"/>
</svg>
