<svg width="16" height="16" viewBox="0 0 16 16" fill="none" xmlns="http://www.w3.org/2000/svg">
<path d="M3.75 2C3.33579 2 3 2.33579 3 2.75C3 3.16421 3.33579 3.5 3.75 3.5H12.25C12.6642 3.5 13 3.16421 13 2.75C13 2.33579 12.6642 2 12.25 2H3.75ZM8.53033 4.71967C8.23744 4.42678 7.76256 4.42678 7.46967 4.71967L4.21967 7.96967C3.92678 8.26256 3.92678 8.73744 4.21967 9.03033C4.51256 9.32322 4.98744 9.32322 5.28033 9.03033L7.25 7.06066V13.25C7.25 13.6642 7.58579 14 8 14C8.41421 14 8.75 13.6642 8.75 13.25V7.06066L10.7197 9.03033C11.0126 9.32322 11.4874 9.32322 11.7803 9.03033C12.0732 8.73744 12.0732 8.26256 11.7803 7.96967L8.53033 4.71967Z" fill="#212121"/>
</svg>
