<svg width="16" height="16" viewBox="0 0 16 16" fill="none" xmlns="http://www.w3.org/2000/svg">
<path d="M5.08535 2C5.29127 1.4174 5.84689 1 6.5 1H9.5C10.1531 1 10.7087 1.4174 10.9146 2H11.5C12.3284 2 13 2.67157 13 3.5V6.20703C12.6777 6.11588 12.3434 6.05337 12 6.02242V3.5C12 3.22386 11.7761 3 11.5 3H10.9146C10.7087 3.5826 10.1531 4 9.5 4H6.5C5.84689 4 5.29127 3.5826 5.08535 3H4.5C4.22386 3 4 3.22386 4 3.5V13.5C4 13.7761 4.22386 14 4.5 14H6.59971C6.78261 14.3578 7.00353 14.6929 7.25716 15H4.5C3.67157 15 3 14.3284 3 13.5V3.5C3 2.67157 3.67157 2 4.5 2H5.08535ZM6.5 2C6.22386 2 6 2.22386 6 2.5C6 2.77614 6.22386 3 6.5 3H9.5C9.77614 3 10 2.77614 10 2.5C10 2.22386 9.77614 2 9.5 2H6.5ZM16 11.5C16 13.9853 13.9853 16 11.5 16C9.01472 16 7 13.9853 7 11.5C7 9.01472 9.01472 7 11.5 7C13.9853 7 16 9.01472 16 11.5ZM13.8536 9.64645C13.6583 9.45118 13.3417 9.45118 13.1464 9.64645L10.5 12.2929L9.85355 11.6464C9.65829 11.4512 9.34171 11.4512 9.14645 11.6464C8.95118 11.8417 8.95118 12.1583 9.14645 12.3536L10.1464 13.3536C10.3417 13.5488 10.6583 13.5488 10.8536 13.3536L13.8536 10.3536C14.0488 10.1583 14.0488 9.84171 13.8536 9.64645Z" fill="#212121"/>
</svg>
