<svg width="28" height="28" viewBox="0 0 28 28" fill="none" xmlns="http://www.w3.org/2000/svg">
<path d="M8.03851 5.5C9.6591 4.60099 11.6365 4 14.0001 4C18.2549 4 21.2583 5.94748 23.1815 8.0752C24.1398 9.13537 24.8347 10.2442 25.2925 11.1911C25.5215 11.6647 25.6944 12.1045 25.8116 12.4844C25.9242 12.8498 26.0001 13.207 26.0001 13.5C26.0001 14.0219 25.7741 14.866 25.364 15.7874C24.9414 16.737 24.2872 17.8508 23.3532 18.9163C21.4736 21.0603 18.4644 23 14.0001 23C11.5185 23 9.48655 22.4006 7.8483 21.5H14.0001V20.5H6.32636C5.72058 20.0303 5.18709 19.5219 4.72115 19H14.0001V18C16.4853 17.9999 18.5 15.9852 18.5 13.5C18.5 11.0148 16.4853 9.00007 14.0001 9V8H4.88723C5.36522 7.47921 5.90832 6.97052 6.51905 6.5H14.0001V5.5H8.03851ZM14.0001 9H4.05438C3.66902 9.51035 3.34178 10.018 3.0698 10.5H10.6458C11.4698 9.57938 12.6674 9 14.0001 9ZM9.96776 11.5H2.56405C2.40499 11.8562 2.27991 12.1885 2.18868 12.4844C2.13446 12.6602 2.08876 12.8342 2.05593 13H9.52746C9.58646 12.4663 9.73879 11.9607 9.96776 11.5ZM9.52746 14H2.05078C2.12599 14.4217 2.28345 14.9411 2.51318 15.5H9.96776C9.73879 15.0393 9.58646 14.5337 9.52746 14ZM10.6458 16.5H2.98302C3.2378 16.9821 3.54731 17.4897 3.91669 18H14.0001C12.6674 18 11.4698 17.4206 10.6458 16.5Z" fill="#212121"/>
</svg>
