<svg width="20" height="20" viewBox="0 0 20 20" fill="none" xmlns="http://www.w3.org/2000/svg">
<path d="M16 6V15C16 15.417 15.922 15.807 15.766 16.172C15.61 16.531 15.396 16.849 15.125 17.125C14.849 17.396 14.529 17.609 14.164 17.766C13.799 17.923 13.411 18 13 18H7C6.583 18 6.195 17.922 5.836 17.766C5.471 17.61 5.154 17.396 4.883 17.125C4.607 16.849 4.391 16.531 4.235 16.172C4.078 15.807 4 15.417 4 15V6H6V4.5C6 4.156 6.065 3.833 6.195 3.531C6.325 3.224 6.505 2.958 6.734 2.734C6.958 2.505 7.224 2.325 7.531 2.195C7.833 2.065 8.156 2 8.5 2C8.781 2 9.049 2.044 9.305 2.133C9.561 2.222 9.795 2.347 10.008 2.508C10.216 2.347 10.448 2.222 10.703 2.133C10.953 2.044 11.219 2 11.5 2C11.844 2 12.169 2.065 12.477 2.195C12.779 2.325 13.045 2.505 13.274 2.734C13.498 2.958 13.675 3.224 13.805 3.531C13.935 3.833 14 4.156 14 4.5V6H16ZM13 4.5C13 4.292 12.961 4.096 12.883 3.914C12.805 3.732 12.698 3.573 12.563 3.437C12.428 3.301 12.269 3.195 12.086 3.117C11.903 3.039 11.708 3 11.5 3C11.193 3 10.917 3.086 10.672 3.258C10.776 3.44 10.857 3.635 10.914 3.844C10.971 4.053 11 4.271 11 4.5V6H13V4.5ZM7 6H10V4.5C10 4.292 9.961 4.096 9.883 3.914C9.805 3.732 9.698 3.573 9.563 3.437C9.428 3.301 9.269 3.195 9.086 3.117C8.903 3.039 8.708 3 8.5 3C8.292 3 8.096 3.039 7.914 3.117C7.732 3.195 7.573 3.302 7.437 3.437C7.301 3.572 7.195 3.731 7.117 3.914C7.039 4.097 7 4.292 7 4.5V6ZM5 15C5 15.276 5.052 15.536 5.156 15.781C5.26 16.021 5.403 16.232 5.586 16.414C5.769 16.596 5.982 16.74 6.227 16.844C6.466 16.948 6.724 17 7 17H11.766C11.526 16.734 11.339 16.432 11.204 16.094C11.068 15.75 11 15.385 11 15V7H5V15ZM15 7H14H12V15C12 15.234 12.039 15.456 12.117 15.664C12.19 15.872 12.294 16.062 12.429 16.234C12.559 16.401 12.718 16.546 12.906 16.672C13.088 16.792 13.286 16.88 13.5 16.938C13.714 16.881 13.914 16.792 14.102 16.672C14.284 16.547 14.443 16.401 14.579 16.234C14.709 16.062 14.813 15.872 14.891 15.664C14.964 15.456 15 15.234 15 15V7Z" fill="#212121"/>
</svg>
