<svg width="24" height="24" viewBox="0 0 24 24" fill="none" xmlns="http://www.w3.org/2000/svg">
<path d="M14.6102 2.47047L14.5334 2.4031C14.2394 2.17855 13.818 2.20101 13.5495 2.47047L13.4824 2.54755C13.2587 2.84259 13.281 3.26552 13.5495 3.53498L15.521 5.5118H8.5L8.26687 5.51592C4.785 5.63911 2 8.51085 2 12.0354C2 13.7259 2.6407 15.2663 3.6917 16.4252L3.76407 16.4947C3.89496 16.6065 4.06463 16.674 4.25 16.674C4.66421 16.674 5 16.337 5 15.9213C5 15.7481 4.9417 15.5885 4.84373 15.4613L4.64439 15.2306C3.92953 14.3627 3.5 13.2494 3.5 12.0354C3.5 9.26396 5.73858 7.01725 8.5 7.01725H15.381L13.5495 8.85754L13.4824 8.93463C13.2587 9.22967 13.281 9.6526 13.5495 9.92206C13.8424 10.216 14.3173 10.216 14.6102 9.92206L17.7922 6.72852L17.8593 6.65144C18.083 6.3564 18.0606 5.93347 17.7922 5.66401L14.6102 2.47047ZM20.23 7.57108C20.0999 7.46224 19.9326 7.39677 19.75 7.39677C19.3358 7.39677 19 7.73378 19 8.14949C19 8.33618 19.0677 8.507 19.1791 8.63722C19.9345 9.46055 20.419 10.5381 20.4907 11.7274C21.0285 12.0066 21.5224 12.3587 21.9592 12.7707C21.9861 12.5294 22 12.284 22 12.0354C22 10.342 21.3571 8.79923 20.3029 7.63965L20.23 7.57108ZM8.558 17.0536H11.0151C11.0051 17.2011 11 17.3499 11 17.5C11 17.8606 11.0294 18.2144 11.0858 18.559H8.564L10.4634 20.465L10.5305 20.5421C10.7542 20.8371 10.7319 21.2601 10.4634 21.5295C10.1971 21.7968 9.78044 21.8211 9.48683 21.6024L9.40271 21.5295L6.22073 18.336L6.15361 18.2589C5.95224 17.9934 5.95023 17.6242 6.14756 17.3566L6.22073 17.2715L9.40271 14.0779L9.47951 14.0106C9.74409 13.8085 10.1119 13.8065 10.3785 14.0045L10.4634 14.0779L10.5305 14.155C10.7319 14.4206 10.7339 14.7897 10.5365 15.0573L10.4634 15.1425L8.558 17.0536ZM23 17.5C23 20.5376 20.5376 23 17.5 23C14.4624 23 12 20.5376 12 17.5C12 14.4624 14.4624 12 17.5 12C20.5376 12 23 14.4624 23 17.5ZM18.1149 14.0134C17.8892 13.9601 17.6565 14.069 17.5528 14.2764C17.4958 14.3904 17.2759 14.7286 16.9399 15.1041C16.6058 15.4775 16.1965 15.8427 15.7764 16.0528C15.5294 16.1763 15.4293 16.4766 15.5528 16.7236C15.6763 16.9706 15.9766 17.0707 16.2236 16.9472C16.7128 16.7026 17.1504 16.3312 17.5 15.9699V20.5C17.5 20.7761 17.7239 21 18 21C18.2761 21 18.5 20.7761 18.5 20.5V14.5C18.5 14.2681 18.3406 14.0667 18.1149 14.0134Z" fill="#212121"/>
</svg>
