<svg width="28" height="28" viewBox="0 0 28 28" fill="none" xmlns="http://www.w3.org/2000/svg">
<path d="M8.75 2C7.23122 2 6 3.23122 6 4.75V9.87865C6.44914 9.57794 6.98264 9.45634 7.5 9.51385V4.75C7.5 4.05965 8.05965 3.5 8.75 3.5H19.25C19.9404 3.5 20.5 4.05964 20.5 4.75V9.51385C21.0174 9.45634 21.5509 9.57794 22 9.87865V4.75C22 3.23122 20.7688 2 19.25 2H8.75ZM25 14.75C25 14.3358 24.6642 14 24.25 14H19.5607L21.2803 12.2803C21.3169 12.2437 21.349 12.2043 21.3764 12.1627C21.5686 11.8716 21.5366 11.476 21.2803 11.2197C21.0693 11.0087 20.7638 10.9497 20.5 11.0427C20.3976 11.0788 20.3015 11.1378 20.2197 11.2197L17.2197 14.2197C16.9268 14.5126 16.9268 14.9874 17.2197 15.2803L20.2197 18.2803C20.4849 18.5456 20.8993 18.5706 21.1928 18.3555C21.2234 18.333 21.2527 18.308 21.2803 18.2803C21.5732 17.9874 21.5732 17.5126 21.2803 17.2197L19.5607 15.5H24.25C24.6642 15.5 25 15.1642 25 14.75ZM22 19.6213C21.5509 19.9221 21.0174 20.0437 20.5 19.9862V23.2497C20.5 23.94 19.9404 24.4997 19.25 24.4997H8.75C8.05964 24.4997 7.5 23.94 7.5 23.2497V19.9862C6.98264 20.0437 6.44914 19.9221 6 19.6213V23.2497C6 24.7684 7.23122 25.9997 8.75 25.9997H19.25C20.7688 25.9997 22 24.7684 22 23.2497V19.6213ZM7.5 11.0427C7.23617 10.9497 6.93069 11.0087 6.71967 11.2197C6.42678 11.5126 6.42678 11.9874 6.71967 12.2803L8.43934 14H3.75C3.33579 14 3 14.3358 3 14.75C3 15.1642 3.33579 15.5 3.75 15.5H8.43934L6.71967 17.2197C6.42678 17.5126 6.42678 17.9874 6.71967 18.2803C6.7466 18.3073 6.77507 18.3317 6.80479 18.3537C7.09835 18.5707 7.51436 18.5463 7.78033 18.2803L10.7803 15.2803C11.0732 14.9874 11.0732 14.5126 10.7803 14.2197L7.78033 11.2197C7.69846 11.1378 7.60236 11.0788 7.5 11.0427Z" fill="#212121"/>
</svg>
