<svg width="16" height="16" viewBox="0 0 16 16" fill="none" xmlns="http://www.w3.org/2000/svg">
<path d="M8.23705 1.55976C8.08906 1.48008 7.91094 1.48008 7.76295 1.55976L1.78885 4.77659C1.54993 4.90523 1.35524 5.09328 1.21904 5.31681L1.24119 5.32862C1.25099 5.3331 1.26071 5.33793 1.27033 5.3431L1.54937 5.49298L7.99998 8.93331L8.56651 8.63116C8.52293 8.42766 8.5 8.21651 8.5 8C8.5 6.34315 9.84315 5 11.5 5C12.3471 5 13.1123 5.35113 13.6578 5.9158L14.7809 5.31679C14.6448 5.09327 14.4501 4.90523 14.2112 4.77659L8.23705 1.55976ZM1 6.33332L1.07756 6.37469L7.85819 10.017C7.95717 10.0702 8.01886 10.1735 8.01873 10.2858C8.01864 10.3601 7.99145 10.4317 7.94227 10.4874L7.64787 10.8203L7.63815 10.8316C7.24135 11.2741 7 11.8589 7 12.5C7 13.0121 7.1183 13.5275 7.36735 14H3C1.89543 14 1 13.1046 1 12V6.33332ZM13.5 8C13.5 9.10457 12.6046 10 11.5 10C10.3954 10 9.5 9.10457 9.5 8C9.5 6.89543 10.3954 6 11.5 6C12.6046 6 13.5 6.89543 13.5 8ZM15 12.5C15 13.7452 14 15 11.5 15C9 15 8 13.7499 8 12.5C8 11.6716 8.67157 11 9.5 11H13.5C14.3284 11 15 11.6716 15 12.5Z" fill="#212121"/>
</svg>
