<?xml version="1.0" encoding="UTF-8"?>
<svg width="20px" height="20px" viewBox="0 0 20 20" version="1.1" xmlns="http://www.w3.org/2000/svg" xmlns:xlink="http://www.w3.org/1999/xlink">
    <!-- Generator: Sketch 64 (93537) - https://sketch.com -->
    <title>ic_fluent_print_20_filled</title>
    <desc>Created with Sketch.</desc>
    <g id="ðŸ”-System-Icons" stroke="none" stroke-width="1" fill="none" fill-rule="evenodd">
        <g id="ic_fluent_print_20_filled" fill="#212121" fill-rule="nonzero">
            <path d="M13.5,3 C14.3284,3 15,3.67157 15,4.5 L15,5 L15.5,5 C16.8807,5 18,6.11929 18,7.5 L18,12.5 C18,13.3284 17.3284,14 16.5,14 L15,14 L15,15.5 C15,16.3284 14.3284,17 13.5,17 L6.5,17 C5.67157,17 5,16.3284 5,15.5 L5,14 L3.5,14 C2.67157,14 2,13.3284 2,12.5 L2,7.5 C2,6.11929 3.11929,5 4.5,5 L5,5 L5,4.5 C5,3.67157 5.67157,3 6.5,3 L13.5,3 Z M13.5,11 L6.5,11 C6.22386,11 6,11.2239 6,11.5 L6,11.5 L6,15.5 C6,15.7761 6.22386,16 6.5,16 L6.5,16 L13.5,16 C13.7761,16 14,15.7761 14,15.5 L14,15.5 L14,11.5 C14,11.2239 13.7761,11 13.5,11 L13.5,11 Z M13.5,4 L6.5,4 C6.22386,4 6,4.22386 6,4.5 L6,4.5 L6,5 L14,5 L14,4.5 C14,4.22386 13.7761,4 13.5,4 L13.5,4 Z" id="ðŸŽ¨-Color"></path>
        </g>
    </g>
</svg>