<svg width="25" height="24" viewBox="0 0 25 24" fill="none" xmlns="http://www.w3.org/2000/svg">
<path d="M18.416 17.5V18.75C18.416 19.9926 17.4087 21 16.166 21H8.66602C7.42337 21 6.41602 19.9926 6.41602 18.75V17.499L4.66602 17.5001C3.42337 17.5001 2.41602 16.4927 2.41602 15.2501V9.25358C2.41602 7.45865 3.87109 6.00358 5.66602 6.00358L6.41502 6.003L6.41602 5.25C6.41602 4.00736 7.42337 3 8.66602 3H16.1685C17.4111 3 18.4185 4.00736 18.4185 5.25L18.418 6.003L19.1685 6.00358C20.9629 6.00533 22.4171 7.45877 22.4199 9.25244L22.4231 15.2497C22.425 16.4918 21.4181 17.5002 20.1751 17.5009L18.416 17.5ZM16.166 13.5H8.66602C8.2518 13.5 7.91602 13.8358 7.91602 14.25V18.75C7.91602 19.1642 8.2518 19.5 8.66602 19.5H16.166C16.5802 19.5 16.916 19.1642 16.916 18.75V14.25C16.916 13.8358 16.5802 13.5 16.166 13.5ZM16.1685 4.5H8.66602C8.2518 4.5 7.91602 4.83579 7.91602 5.25L7.91502 6.003H16.918L16.9185 5.25C16.9185 4.83579 16.5827 4.5 16.1685 4.5Z" fill="#212121"/>
</svg>
