<svg width="17" height="16" viewBox="0 0 17 16" fill="none" xmlns="http://www.w3.org/2000/svg">
<path d="M5.91602 2C5.08759 2 4.41602 2.67157 4.41602 3.5V4H3.41602C2.31145 4 1.41602 4.89543 1.41602 6V10.5C1.41602 11.3284 2.08759 12 2.91602 12H4.41602V12.5C4.41602 13.3284 5.08759 14 5.91602 14H11.0159C11.8443 14 12.5159 13.3284 12.5159 12.5V12H13.916C14.7444 12 15.416 11.3284 15.416 10.5V6C15.416 4.89543 14.5206 4 13.416 4H12.416V3.5C12.416 2.67157 11.7444 2 10.916 2H5.91602ZM11.416 4H5.41602V3.5C5.41602 3.22386 5.63987 3 5.91602 3H10.916C11.1922 3 11.416 3.22386 11.416 3.5V4ZM5.91602 10H11.0159C11.2921 10 11.5159 10.2239 11.5159 10.5V12.5C11.5159 12.7761 11.2921 13 11.0159 13H5.91602C5.63987 13 5.41602 12.7761 5.41602 12.5V10.5C5.41602 10.2239 5.63987 10 5.91602 10Z" fill="#212121"/>
</svg>
