<svg width="16" height="16" viewBox="0 0 16 16" fill="none" xmlns="http://www.w3.org/2000/svg">
<path d="M2 4.5C2 3.11929 3.11929 2 4.5 2H5V5H2V4.5ZM6 5V2H10V5L6 5ZM2 6H5V10H2V6ZM6 6V10H7C7 9.06808 7.63739 8.28503 8.5 8.06301V8C8.5 7.23165 8.78885 6.53076 9.26389 6L6 6ZM7 11V14H6V11H7ZM2 11H5V14H4.5C3.11929 14 2 12.8807 2 11.5V11ZM14 4.5V5H11V2H11.5C12.8807 2 14 3.11929 14 4.5ZM9.5 8V9H9C8.44772 9 8 9.44772 8 10V14C8 14.5523 8.44771 15 9 15H14C14.5523 15 15 14.5523 15 14V10C15 9.44772 14.5523 9 14 9H13.5V8C13.5 6.89543 12.6046 6 11.5 6C10.3954 6 9.5 6.89543 9.5 8ZM10.5 9V8C10.5 7.44772 10.9477 7 11.5 7C12.0523 7 12.5 7.44772 12.5 8V9H10.5ZM11.5 11.25C11.9142 11.25 12.25 11.5858 12.25 12C12.25 12.4142 11.9142 12.75 11.5 12.75C11.0858 12.75 10.75 12.4142 10.75 12C10.75 11.5858 11.0858 11.25 11.5 11.25Z" fill="#212121"/>
</svg>
