<svg width="24" height="24" viewBox="0 0 24 24" fill="none" xmlns="http://www.w3.org/2000/svg">
<path d="M3 6.25C3 4.45507 4.45507 3 6.25 3H17.75C19.5449 3 21 4.45507 21 6.25V11.5505C20.5901 11.1323 20.0762 10.8164 19.5 10.6449V10H15.5L15.5 12.1962C15.1826 12.723 15 13.3402 15 14V14.05C14.1943 14.2135 13.5294 14.7645 13.208 15.5H10V19.5H13V21H6.25C4.45507 21 3 19.5449 3 17.75V6.25ZM6.25 4.5C5.2835 4.5 4.5 5.2835 4.5 6.25V8.5H8.5V4.5H6.25ZM4.5 10V14H8.5L8.5 10H4.5ZM10 10L10 14H14L14 10H10ZM15.5 8.5H19.5V6.25C19.5 5.2835 18.7165 4.5 17.75 4.5H15.5V8.5ZM14 4.5H10V8.5H14V4.5ZM4.5 15.5V17.75C4.5 18.7165 5.2835 19.5 6.25 19.5H8.5V15.5H4.5ZM16 15H15.5C14.6716 15 14 15.6716 14 16.5V21.5C14 22.3284 14.6716 23 15.5 23H21.5C22.3284 23 23 22.3284 23 21.5V16.5C23 15.6716 22.3284 15 21.5 15H21V14C21 12.6193 19.8807 11.5 18.5 11.5C17.1193 11.5 16 12.6193 16 14V15ZM17.5 14C17.5 13.4477 17.9477 13 18.5 13C19.0523 13 19.5 13.4477 19.5 14V15H17.5V14ZM19.5 19C19.5 19.5523 19.0523 20 18.5 20C17.9477 20 17.5 19.5523 17.5 19C17.5 18.4477 17.9477 18 18.5 18C19.0523 18 19.5 18.4477 19.5 19Z" fill="#212121"/>
</svg>
