<svg width="28" height="28" viewBox="0 0 28 28" fill="none" xmlns="http://www.w3.org/2000/svg">
<path d="M5.75 4C3.67893 4 2 5.67893 2 7.75V20.25C2 22.3211 3.67893 24 5.75 24H15.066C15.0218 23.752 15 23.5011 15 23.25V23.0448C15 22.8588 15.0167 22.6767 15.0486 22.5H5.75C4.50736 22.5 3.5 21.4926 3.5 20.25V7.75C3.5 6.50736 4.50736 5.5 5.75 5.5H22.25C23.4926 5.5 24.5 6.50736 24.5 7.75V14.3542C25.0709 15.001 25.4358 15.8338 25.4923 16.7501C25.5008 16.8879 25.6119 17 25.75 17C25.8881 17 26 16.8881 26 16.75V7.75C26 5.67893 24.3211 4 22.25 4H5.75ZM24.5 17C24.5 18.6569 23.1569 20 21.5 20C19.8431 20 18.5 18.6569 18.5 17C18.5 15.3431 19.8431 14 21.5 14C23.1569 14 24.5 15.3431 24.5 17ZM27 23.25C27 25.1178 25.4286 27 21.5 27C17.5714 27 16 25.1249 16 23.25V23.0448C16 21.9151 16.9158 21 18.0455 21H24.9545C26.0842 21 27 21.9151 27 23.0448V23.25Z" fill="#212121"/>
</svg>
