<svg width="32" height="32" viewBox="0 0 32 32" fill="none" xmlns="http://www.w3.org/2000/svg">
<path d="M9.85104 5.74176C11.1661 4.13445 13.2003 3 16 3C17.7001 3 19.6821 3.5615 21.2582 4.85104C22.6793 6.01369 23.7307 7.73841 23.9553 10.0573C25.333 10.2223 26.6687 10.7404 27.7362 11.5647C29.0629 12.5892 30 14.114 30 16C30 16.4631 29.9593 16.912 29.8762 17.342C28.2487 15.0189 25.5518 13.5 22.5 13.5C17.6972 13.5 13.7731 17.262 13.5137 22H9C6.29252 22 4.48477 21.1798 3.37242 19.9085C2.28392 18.6645 2 17.1452 2 16C2 13.6444 3.93089 10.4699 8.05688 10.0472C8.22868 8.59142 8.79636 7.03082 9.85104 5.74176ZM30 22.5C30 18.3579 26.6421 15 22.5 15C18.3579 15 15 18.3579 15 22.5C15 26.6421 18.3579 30 22.5 30C26.6421 30 30 26.6421 30 22.5ZM22.2197 17.2197C22.5126 16.9268 22.9874 16.9268 23.2803 17.2197L27.2803 21.2197C27.5732 21.5126 27.5732 21.9874 27.2803 22.2803C26.9874 22.5732 26.5126 22.5732 26.2197 22.2803L23.5 19.5607V27.25C23.5 27.6642 23.1642 28 22.75 28C22.3358 28 22 27.6642 22 27.25V19.5607L19.2803 22.2803C18.9874 22.5732 18.5126 22.5732 18.2197 22.2803C17.9268 21.9874 17.9268 21.5126 18.2197 21.2197L22.2197 17.2197Z" fill="#212121"/>
</svg>
