<svg width="24" height="24" viewBox="0 0 24 24" fill="none" xmlns="http://www.w3.org/2000/svg">
<path d="M15.989 4L12.922 7.06267C12.5845 7.39965 12.32 7.80145 12.1439 8.24292L12.0633 8.46684L11.3244 10.7617C11.1847 11.1956 11.18 11.6616 11.3111 12.0982C11.6528 13.2366 12.8154 13.9039 13.9574 13.6471L14.1129 13.6063L16.4405 12.9077C16.915 12.7652 17.353 12.5239 17.7261 12.2007L17.9071 12.0324L22.0001 7.946V16.7546C22.0001 18.5495 20.545 20.0046 18.7501 20.0046H5.2501C3.45517 20.0046 2 18.5495 2 16.7546L2.00039 12.5552L2.07603 12.5236L2.14922 12.483L5.90866 10.12L6.00682 10.0679C6.34153 9.92083 6.74238 10.0371 6.94277 10.3559C7.065 10.5504 7.09034 10.7881 7.01623 11.0012L6.97088 11.1054L5.76315 13.3908L5.69307 13.5355C5.22036 14.6064 5.6503 15.8761 6.70119 16.4314C7.32124 16.7591 8.05496 16.7773 8.68648 16.4891L8.85602 16.4029L10.6209 15.4066L10.706 15.3503C10.9996 15.1261 11.0897 14.7139 10.902 14.3838C10.7143 14.0538 10.3139 13.9205 9.97114 14.0583L9.8793 14.1027L8.12031 15.0957L8.02238 15.1419C7.82169 15.2193 7.5953 15.2073 7.40204 15.1052C7.06634 14.9278 6.92073 14.5317 7.04786 14.1849L7.08935 14.0917L8.29709 11.8063L8.37654 11.6398C8.66542 10.9647 8.60764 10.186 8.21273 9.55767C7.58151 8.55341 6.28727 8.21911 5.25588 8.76593L5.11043 8.85007L2 10.805V7.25C2 5.51697 3.35655 4.10075 5.06567 4.00514L5.2501 4H15.989ZM21.1756 3.54486L21.3058 3.66549L21.4263 3.79573C22.1895 4.68738 22.1489 6.03053 21.3048 6.87411L17.0239 11.1478C16.7609 11.4103 16.437 11.6036 16.0811 11.7104L13.7536 12.4091C13.2246 12.5679 12.6671 12.2678 12.5083 11.7388C12.45 11.5448 12.4521 11.3376 12.5142 11.1448L13.2531 8.84996C13.3628 8.50946 13.552 8.20001 13.8051 7.94728L18.0958 3.66366C18.9406 2.82024 20.2842 2.78082 21.1756 3.54486Z" fill="#212121"/>
</svg>
