<svg width="28" height="28" viewBox="0 0 28 28" fill="none" xmlns="http://www.w3.org/2000/svg">
<path d="M20.5 14C24.0899 14 27 16.9101 27 20.5C27 24.0899 24.0899 27 20.5 27C16.9101 27 14 24.0899 14 20.5C14 16.9101 16.9101 14 20.5 14ZM20.5 16C20.2239 16 20 16.2239 20 16.5V20H16.5C16.2239 20 16 20.2239 16 20.5C16 20.7761 16.2239 21 16.5 21H20V24.5C20 24.7761 20.2239 25 20.5 25C20.7761 25 21 24.7761 21 24.5V21H24.5C24.7761 21 25 20.7761 25 20.5C25 20.2239 24.7761 20 24.5 20H21V16.5C21 16.2239 20.7761 16 20.5 16ZM21 4C21.5523 4 22 4.44772 22 5V8C22 8.55228 21.5523 9 21 9C20.4477 9 20 8.55228 20 8V6H14V16.7598C13.365 17.8609 13 19.1375 13 20.5C13 21.7643 13.3137 22.955 13.8662 24H11C10.4477 24 10 23.5523 10 23C10 22.4477 10.4477 22 11 22H12V6H6V8C6 8.55228 5.55228 9 5 9C4.44772 9 4 8.55228 4 8V5C4 4.44772 4.44772 4 5 4H21Z" fill="black" fill-opacity="0.858824"/>
</svg>
