<svg width="32" height="32" viewBox="0 0 32 32" fill="none" xmlns="http://www.w3.org/2000/svg">
<path d="M23 15.5C27.1421 15.5 30.5 18.8579 30.5 23C30.5 27.1421 27.1421 30.5 23 30.5C18.8579 30.5 15.5 27.1421 15.5 23C15.5 18.8579 18.8579 15.5 23 15.5ZM22.75 4C23.4404 4 24 4.55964 24 5.25V8.75C24 9.44036 23.4404 10 22.75 10C22.0596 10 21.5 9.44036 21.5 8.75V6.5H15.25V18.4238C14.4565 19.7648 14 21.3289 14 23C14 24.8504 14.5591 26.5698 15.5166 28H11.25C10.5596 28 10 27.4404 10 26.75C10 26.0596 10.5596 25.5 11.25 25.5H12.75V6.5H6.5V8.75C6.5 9.44036 5.94036 10 5.25 10C4.55964 10 4 9.44036 4 8.75V5.25C4 4.55964 4.55964 4 5.25 4H22.75ZM23.25 17.5C22.8358 17.5 22.5 17.8358 22.5 18.25V22H18.75C18.3358 22 18 22.3358 18 22.75C18 23.1642 18.3358 23.5 18.75 23.5H22.5V27.25C22.5 27.6642 22.8358 28 23.25 28C23.6642 28 24 27.6642 24 27.25V23.5H27.75C28.1642 23.5 28.5 23.1642 28.5 22.75C28.5 22.3358 28.1642 22 27.75 22H24V18.25C24 17.8358 23.6642 17.5 23.25 17.5Z" fill="black" fill-opacity="0.858824"/>
</svg>
