<svg width="28" height="28" viewBox="0 0 28 28" fill="none" xmlns="http://www.w3.org/2000/svg">
<path d="M20.5 14C24.0899 14 27 16.9101 27 20.5C27 24.0899 24.0899 27 20.5 27C16.9101 27 14 24.0899 14 20.5C14 16.9101 16.9101 14 20.5 14ZM20.5 16C20.2239 16 20 16.2239 20 16.5V20H16.5C16.2239 20 16 20.2239 16 20.5C16 20.7761 16.2239 21 16.5 21H20V24.5C20 24.7761 20.2239 25 20.5 25C20.7761 25 21 24.7761 21 24.5V21H24.5C24.7761 21 25 20.7761 25 20.5C25 20.2239 24.7761 20 24.5 20H21V16.5C21 16.2239 20.7761 16 20.5 16ZM21.25 4C21.6642 4 22 4.33579 22 4.75V8.25C22 8.66421 21.6642 9 21.25 9C20.8358 9 20.5 8.66421 20.5 8.25V5.5H13.75V17.2266C13.2694 18.2157 13 19.3264 13 20.5C13 21.7643 13.3137 22.955 13.8662 24H10.75C10.3358 24 10 23.6642 10 23.25C10 22.8358 10.3358 22.5 10.75 22.5H12.25V5.5H5.5V8.25C5.5 8.66421 5.16421 9 4.75 9C4.33579 9 4 8.66421 4 8.25V4.75C4 4.33579 4.33579 4 4.75 4H21.25Z" fill="#212121"/>
</svg>
