<svg width="24" height="24" viewBox="0 0 24 24" fill="none" xmlns="http://www.w3.org/2000/svg">
<path d="M17.5 12C20.5376 12 23 14.4624 23 17.5C23 20.5376 20.5376 23 17.5 23C14.4624 23 12 20.5376 12 17.5C12 14.4624 14.4624 12 17.5 12ZM17.5 13.9992L17.4101 14.0073C17.206 14.0443 17.0451 14.2053 17.0081 14.4094L17 14.4992L16.9996 16.9992L14.4977 17L14.4078 17.0081C14.2037 17.0451 14.0427 17.206 14.0057 17.4101L13.9977 17.5L14.0057 17.5899C14.0427 17.794 14.2037 17.9549 14.4078 17.9919L14.4977 18L17.0007 17.9992L17.0011 20.5035L17.0092 20.5934C17.0462 20.7975 17.2071 20.9584 17.4112 20.9954L17.5011 21.0035L17.591 20.9954C17.7951 20.9584 17.956 20.7975 17.9931 20.5934L18.0011 20.5035L18.0007 17.9992L20.5046 18L20.5944 17.9919C20.7985 17.9549 20.9595 17.794 20.9965 17.5899L21.0046 17.5L20.9965 17.4101C20.9595 17.206 20.7985 17.0451 20.5944 17.0081L20.5046 17L17.9996 16.9992L18 14.4992L17.9919 14.4094C17.9496 14.1761 17.7455 13.9992 17.5 13.9992ZM16 3C16.5128 3 16.9355 3.38604 16.9933 3.88338L17 4V6C17 6.55228 16.5523 7 16 7C15.4872 7 15.0645 6.61396 15.0067 6.11662L15 6H11V19L11.1741 19.0008C11.3443 19.721 11.6343 20.3948 12.0219 21.0002L8 21C7.44772 21 7 20.5523 7 20C7 19.4872 7.38604 19.0645 7.88338 19.0067L8 19H9V6H5C5 6.51284 4.61396 6.93551 4.11662 6.99327L4 7C3.48716 7 3.06449 6.61396 3.00673 6.11662L3 6V4C3 3.44772 3.44772 3 4 3C4.51284 3 4.93551 3.38604 4.99327 3.88338L5 4H15C15 3.44772 15.4477 3 16 3Z" fill="#212121"/>
</svg>
