<svg width="20" height="20" viewBox="0 0 20 20" fill="none" xmlns="http://www.w3.org/2000/svg">
<path d="M11.5 3C9.29086 3 7.5 4.79086 7.5 7C7.5 9.20914 9.29086 11 11.5 11H13V17.5C13 17.7761 13.2239 18 13.5 18C13.7761 18 14 17.7761 14 17.5V4H15V17.5C15 17.7761 15.2239 18 15.5 18C15.7761 18 16 17.7761 16 17.5V4H16.5C16.7761 4 17 3.77614 17 3.5C17 3.22386 16.7761 3 16.5 3H11.5ZM13 4V10H11.5C9.84315 10 8.5 8.65685 8.5 7C8.5 5.34315 9.84315 4 11.5 4H13ZM5.85355 7.64645C5.65829 7.45118 5.34171 7.45118 5.14645 7.64645L3.14645 9.64645C2.95118 9.84171 2.95118 10.1583 3.14645 10.3536L5.14645 12.3536C5.34171 12.5488 5.65829 12.5488 5.85355 12.3536C6.04882 12.1583 6.04882 11.8417 5.85355 11.6464L4.20711 10L5.85355 8.35355C6.04882 8.15829 6.04882 7.84171 5.85355 7.64645Z" fill="#212121"/>
</svg>
