<svg width="48" height="48" viewBox="0 0 48 48" fill="none" xmlns="http://www.w3.org/2000/svg">
<path d="M42.5287 20.7516C45.008 16.5954 44.3288 10.9204 39.609 8.60536C35.8461 6.75964 30.542 5 23.9999 5C17.4577 5 12.1537 6.75964 8.39075 8.60536C3.67093 10.9204 2.99172 16.5954 5.47107 20.7516C6.4554 22.4017 8.30787 23.3306 10.219 23.1323L13.6499 22.7764C15.8083 22.5525 17.6065 21.0238 18.1749 18.9297L19.0048 15.8723C19.2153 15.0969 19.6705 14.6453 20.1551 14.532C22.3339 14.0229 25.653 14.0135 27.844 14.5286C28.3286 14.6425 28.7841 15.0956 28.9949 15.8723L29.8248 18.9297C30.3933 21.0238 32.1915 22.5525 34.3498 22.7764L37.7808 23.1323C39.6919 23.3305 41.5443 22.4017 42.5287 20.7516ZM38.5081 10.8499C41.5558 12.3448 42.3346 16.197 40.3817 19.4708C39.8959 20.2851 38.9818 20.7435 38.0387 20.6456L34.6078 20.2898C33.4772 20.1725 32.5353 19.3717 32.2375 18.2748L31.4076 15.2174C31.0422 13.8709 30.0732 12.4846 28.4162 12.095C25.8439 11.4902 22.1342 11.5022 19.5863 12.0976C17.9286 12.4849 16.9579 13.8696 16.5921 15.2174L15.7622 18.2748C15.4645 19.3717 14.5225 20.1725 13.392 20.2897L9.96105 20.6456C9.01796 20.7435 8.10381 20.2851 7.61807 19.4708C5.66513 16.197 6.44397 12.3448 9.49169 10.8499C12.9865 9.13572 17.9145 7.5 23.9999 7.5C30.0852 7.5 35.0133 9.13572 38.5081 10.8499Z" fill="#212121"/>
<path d="M24 44C17.9249 44 13 39.0751 13 33C13 26.9249 17.9249 22 24 22C30.0751 22 35 26.9249 35 33C35 39.0751 30.0751 44 24 44ZM24 41.5C28.6944 41.5 32.5 37.6944 32.5 33C32.5 31.1037 31.879 29.3525 30.8293 27.9385L18.9385 39.8294C20.3524 40.879 22.1037 41.5 24 41.5ZM29.0616 26.1707C27.6476 25.121 25.8963 24.5 24 24.5C19.3056 24.5 15.5 28.3056 15.5 33C15.5 34.8963 16.121 36.6476 17.1707 38.0616L29.0616 26.1707Z" fill="#212121"/>
</svg>
