<svg width="16" height="16" viewBox="0 0 16 16" fill="none" xmlns="http://www.w3.org/2000/svg">
<path d="M8.00073 1C11.8667 1.00003 15.0007 4.13403 15.0007 8V10C15.0007 10.0033 14.9998 10.0065 14.9998 10.0098V12.5C14.9998 13.8807 13.8805 15 12.4998 15H10.4998C10.2237 14.9999 9.99975 14.7761 9.99975 14.5V9.5C9.99975 9.22394 10.2237 9.00013 10.4998 9H13.9998L14.0007 8C14.0007 4.68631 11.3144 2.00003 8.00073 2C5.17641 2.00006 2.80938 3.95191 2.17163 6.58008C2.11325 6.82042 1.90432 7 1.65698 7C1.34883 6.99985 1.11139 6.72614 1.18042 6.42578C1.89461 3.31801 4.67618 1.00006 8.00073 1Z" fill="#212121"/>
</svg>
