<svg width="24" height="24" viewBox="0 0 24 24" fill="none" xmlns="http://www.w3.org/2000/svg">
<path d="M10 11C11.1046 11 12 11.8954 12 13V20C12 21.1046 11.1046 22 10 22H3C1.89543 22 1 21.1046 1 20V13C1 11.8954 1.89543 11 3 11H10ZM12 8C12 9.10457 12.8954 10 14 10H20V20C20 21.1046 19.1046 22 18 22H12.2314C12.7077 21.469 13 20.7695 13 20V13C13 11.3431 11.6569 10 10 10H4V4C4 2.89543 4.89543 2 6 2H12V8ZM8.80762 13.501L8.05957 17.46L7.2627 13.501H5.70117L4.94043 17.46L4.17383 13.501H2.90039L4.1416 19.5H5.70117L6.5 15.9004L7.2627 19.5L8.80762 19.499L10.0996 13.5L8.80762 13.501ZM19.5 8.5H14C13.7239 8.5 13.5 8.27614 13.5 8V2.5L19.5 8.5Z" fill="#212121"/>
</svg>
