<svg width="24" height="24" viewBox="0 0 24 24" fill="none" xmlns="http://www.w3.org/2000/svg">
<path d="M12 5C7.58172 5 4 8.58172 4 13C4 15.2068 4.8922 17.2033 6.33795 18.6517C6.72812 19.0425 6.72754 19.6757 6.33666 20.0659C5.94578 20.456 5.31262 20.4555 4.92245 20.0646C3.1177 18.2565 2 15.7578 2 13C2 7.47715 6.47715 3 12 3C17.5228 3 22 7.47715 22 13C22 15.7578 20.8823 18.2565 19.0775 20.0646C18.6874 20.4555 18.0542 20.456 17.6633 20.0659C17.2725 19.6757 17.2719 19.0425 17.662 18.6517C19.1078 17.2033 20 15.2068 20 13C20 8.58172 16.4183 5 12 5Z" fill="#212121"/>
<path d="M12 11C10.8954 11 10 11.8954 10 13C10 14.1046 10.8954 15 12 15C13.1046 15 14 14.1046 14 13C14 11.8954 13.1046 11 12 11Z" fill="#212121"/>
<path d="M8 13C8 10.7909 9.79086 9 12 9C14.2091 9 16 10.7909 16 13C16 14.1048 15.5534 15.1035 14.8284 15.8284C14.4379 16.219 14.4379 16.8521 14.8284 17.2426C15.219 17.6332 15.8521 17.6332 16.2426 17.2426C17.3273 16.1579 18 14.6566 18 13C18 9.68629 15.3137 7 12 7C8.68629 7 6 9.68629 6 13C6 14.6566 6.67267 16.1579 7.75736 17.2426C8.14788 17.6332 8.78105 17.6332 9.17157 17.2426C9.5621 16.8521 9.5621 16.219 9.17157 15.8284C8.44662 15.1035 8 14.1048 8 13Z" fill="#212121"/>
</svg>
