<svg width="32" height="32" viewBox="0 0 32 32" fill="none" xmlns="http://www.w3.org/2000/svg">
<path d="M2 8.5C2 6.01472 4.01472 4 6.5 4H25.5C27.9853 4 30 6.01472 30 8.5V23.5C30 25.9853 27.9853 28 25.5 28H16.5004C16.4302 27.9067 16.3527 27.8172 16.2678 27.7322L13.7688 25.2333C14.2375 24.2535 14.5 23.1563 14.5 22H19C19.5523 22 20 21.5523 20 21C20 20.4477 19.5523 20 19 20H14.2304C13.9187 18.8708 13.3497 17.8485 12.5903 17H22C22.5523 17 23 16.5523 23 16C23 15.4477 22.5523 15 22 15H9.6982C8.86093 14.6771 7.95114 14.5 7 14.5C5.07911 14.5 3.32689 15.2221 2 16.4097V8.5ZM8 11C8 11.5523 8.44772 12 9 12H16C16.5523 12 17 11.5523 17 11C17 10.4477 16.5523 10 16 10H9C8.44772 10 8 10.4477 8 11ZM7 28C8.29583 28 9.49572 27.5892 10.4765 26.8907L13.7929 30.2071C14.1834 30.5976 14.8166 30.5976 15.2071 30.2071C15.5976 29.8166 15.5976 29.1834 15.2071 28.7929L11.8907 25.4765C12.5892 24.4957 13 23.2958 13 22C13 18.6863 10.3137 16 7 16C3.68629 16 1 18.6863 1 22C1 25.3137 3.68629 28 7 28ZM7 26C4.79086 26 3 24.2091 3 22C3 19.7909 4.79086 18 7 18C9.20914 18 11 19.7909 11 22C11 24.2091 9.20914 26 7 26Z" fill="#212121"/>
</svg>
