<svg width="20" height="20" viewBox="0 0 20 20" fill="none" xmlns="http://www.w3.org/2000/svg">
<path d="M8.22808 2.18434C8.69018 1.85652 9.30898 1.85652 9.77106 2.18435L15.6226 6.33577C16.3504 6.8521 15.9863 7.99765 15.0951 8.00006L2.90669 8.00006C2.01341 8.00006 1.64773 6.85263 2.37629 6.33576L8.22808 2.18434ZM9.00008 5.8751C9.46032 5.8751 9.83342 5.50201 9.83342 5.04177C9.83342 4.58153 9.46032 4.20844 9.00008 4.20844C8.53984 4.20844 8.16675 4.58153 8.16675 5.04177C8.16675 5.50201 8.53984 5.8751 9.00008 5.8751ZM3.49976 9.00006V13.0001H5.49976V9.00006H3.49976ZM4.16642 14.0001C2.96981 14.0001 1.99976 14.9701 1.99976 16.1667V16.5001C1.99976 16.7762 2.22361 17.0001 2.49976 17.0001H9V14.0001H4.16642ZM11.4998 10.0001V9.00006H9.49976V12.0001C9.8686 11.509 10.4141 11.1581 11.0419 11.0419C11.1133 10.6563 11.2732 10.3017 11.4998 10.0001ZM8.49976 13.0001V9.00006H6.49976V13.0001H8.49976ZM12 12V11.5C12 10.6716 12.6716 10 13.5 10H15.5C16.3284 10 17 10.6716 17 11.5V12H17.5C18.3284 12 19 12.6716 19 13.5V15H17V14.5C17 14.2239 16.7761 14 16.5 14C16.2239 14 16 14.2239 16 14.5V15H13V14.5C13 14.2239 12.7761 14 12.5 14C12.2239 14 12 14.2239 12 14.5V15H10V13.5C10 12.6716 10.6716 12 11.5 12H12ZM13 11.5V12H16V11.5C16 11.2239 15.7761 11 15.5 11H13.5C13.2239 11 13 11.2239 13 11.5ZM17 16H19V17.5C19 18.3284 18.3284 19 17.5 19H11.5C10.6716 19 10 18.3284 10 17.5V16H12V16.5C12 16.7761 12.2239 17 12.5 17C12.7761 17 13 16.7761 13 16.5V16H16V16.5C16 16.7761 16.2239 17 16.5 17C16.7761 17 17 16.7761 17 16.5V16Z" fill="#212121"/>
</svg>
