<svg width="20" height="20" viewBox="0 0 20 20" fill="none" xmlns="http://www.w3.org/2000/svg">
<path d="M3 5.75C3 5.33579 3.33579 5 3.75 5H16.25C16.6642 5 17 5.33579 17 5.75C17 6.16421 16.6642 6.5 16.25 6.5H3.75C3.33579 6.5 3 6.16421 3 5.75ZM3 9.75C3 9.33579 3.33579 9 3.75 9H16.25C16.6642 9 17 9.33579 17 9.75C17 10.1642 16.6642 10.5 16.25 10.5H3.75C3.33579 10.5 3 10.1642 3 9.75ZM12.0303 15.7803C12.3232 15.4874 12.3232 15.0126 12.0303 14.7197L10.5303 13.2197C10.2374 12.9268 9.76256 12.9268 9.46967 13.2197L7.96967 14.7197C7.67678 15.0126 7.67678 15.4874 7.96967 15.7803C8.26256 16.0732 8.73744 16.0732 9.03033 15.7803L10 14.8107L10.9697 15.7803C11.2626 16.0732 11.7374 16.0732 12.0303 15.7803Z" fill="#212121"/>
</svg>
