<svg width="24" height="24" viewBox="0 0 24 24" fill="none" xmlns="http://www.w3.org/2000/svg">
<path d="M21.9248 10.0938C22.4035 9.96536 23.1194 9.88122 23.6172 10.3789C24.1144 10.8767 24.0297 11.5917 23.9014 12.0703C23.7559 12.6123 23.4552 13.2356 23.0615 13.8857C22.2678 15.1966 21.0037 16.7707 19.4775 18.2969C19.0485 18.7259 18.385 19.4011 17.6152 19.751C17.42 19.8397 17.2079 19.9105 16.9834 19.9531C17.0665 20.8775 16.7568 21.8305 16.0508 22.5391L15.8457 22.7354C14.7942 23.6799 13.4073 24.0548 12.0732 23.9805C10.6533 23.9012 9.22422 23.3105 8.21094 22.2666C8.03164 22.0815 7.96043 21.8177 8.02148 21.5674C8.0827 21.3171 8.26733 21.1158 8.51172 21.0342C9.89158 20.5742 10.2491 20.1197 10.4326 19.7783C10.564 19.5338 10.6053 19.3652 10.7607 19C10.8997 18.6736 11.0936 18.3048 11.4512 17.9473C12.1602 17.2383 13.1149 16.9267 14.041 17.0098C14.0838 16.7861 14.1567 16.5754 14.2451 16.3809C14.5949 15.6112 15.2702 14.9486 15.6992 14.5195C17.2254 12.9934 18.7986 11.7284 20.1094 10.9346C20.7596 10.5408 21.3828 10.2393 21.9248 10.0938ZM14.9863 19.0078C14.3029 18.3245 13.1951 18.3245 12.5117 19.0078C12.3401 19.1794 12.2392 19.3586 12.1416 19.5879C12.0606 19.7783 11.9221 20.1734 11.7529 20.4883C11.4617 21.0301 11.0189 21.5096 10.2295 21.9336C10.8124 22.2533 11.4801 22.4446 12.1562 22.4824C13.236 22.5426 14.2689 22.2112 14.9824 21.4863L14.9863 21.4824C15.6696 20.799 15.6696 19.6912 14.9863 19.0078ZM10.5078 17.5C10.1762 17.8953 9.97808 18.285 9.84082 18.6074C9.70155 18.9346 9.61968 19.3368 9.32031 19.5615C9.19206 19.6577 8.97579 19.7861 8.61133 19.9326C8.42 20.0027 8.22336 20.0644 8.03711 20.1475C8.01407 20.0183 8 19.8858 8 19.75V17.5H10.5078ZM6.5 16H4.25C3.00736 16 2 14.9926 2 13.75V10.25C2 9.00736 3.00736 8 4.25 8H6.5V16ZM16 12.8477C15.6633 13.1565 15.3255 13.4772 14.9922 13.8105C14.5923 14.2105 13.7736 15.0012 13.335 15.9658C13.3299 15.977 13.3244 15.9886 13.3193 16H8V8H16V12.8477ZM19.75 8C20.5803 8 21.3035 8.45096 21.6934 9.12012L21.666 9.12695C20.9936 9.30748 20.2775 9.66289 19.5918 10.0781C18.9363 10.4751 18.2291 10.9782 17.5 11.5605V8H19.75ZM13.75 2C14.9926 2 16 3.00736 16 4.25V6.5H8V4.25C8 3.00736 9.00736 2 10.25 2H13.75Z" fill="#212121"/>
</svg>
