<svg width="20" height="20" viewBox="0 0 20 20" fill="none" xmlns="http://www.w3.org/2000/svg">
<path d="M11 16.6665C11.3682 16.6665 11.6667 16.965 11.6667 17.3332C11.6667 17.7014 11.3682 17.9998 11 17.9998C10.6318 17.9998 10.3333 17.7014 10.3333 17.3332C10.3333 16.965 10.6318 16.6665 11 16.6665ZM8.66667 15.9998C9.03486 15.9998 9.33334 16.2983 9.33334 16.6665C9.33334 17.0347 9.03486 17.3332 8.66667 17.3332C8.29848 17.3332 8.00001 17.0347 8.00001 16.6665C8.00001 16.2983 8.29848 15.9998 8.66667 15.9998ZM13.3333 15.9998C13.7015 15.9998 14 16.2983 14 16.6665C14 17.0347 13.7015 17.3332 13.3333 17.3332C12.9651 17.3332 12.6667 17.0347 12.6667 16.6665C12.6667 16.2983 12.9651 15.9998 13.3333 15.9998ZM11 5.99983C13.4646 5.99983 14.8627 7.57343 15.066 9.47382L15.1282 9.47382C16.7143 9.47382 18 10.7109 18 12.2368C18 13.7628 16.7143 14.9998 15.1282 14.9998H6.8718C5.28575 14.9998 4.00001 13.7628 4.00001 12.2368C4.00001 10.7109 5.28575 9.47382 6.87182 9.47382L6.934 9.47382C7.13852 7.56094 8.53544 5.99983 11 5.99983ZM11 6.99983C9.35057 6.99983 7.9129 8.27013 7.9129 10.0248C7.9129 10.3028 7.65892 10.521 7.36809 10.5209L6.81819 10.5209C5.81403 10.5209 5.00001 11.2997 5.00001 12.2604C5.00001 13.2211 5.81403 13.9998 6.81819 13.9998H15.1818C16.186 13.9998 17 13.2211 17 12.2604C17 11.2997 16.186 10.5209 15.1818 10.5209L14.6319 10.5209C14.3411 10.521 14.0871 10.3028 14.0871 10.0248C14.0871 8.24762 12.6494 6.99983 11 6.99983ZM3.80323 8.70064C3.88315 8.93273 3.78237 9.18334 3.57561 9.29931L3.49326 9.33619L2.69185 9.61213C2.43075 9.70204 2.14621 9.56325 2.05631 9.30216C1.97639 9.07007 2.07717 8.81946 2.28393 8.70349L2.36628 8.66661L3.16769 8.39067C3.42879 8.30076 3.71333 8.43954 3.80323 8.70064ZM8.91929 4.50006C9.25181 4.66224 9.54462 4.8732 9.79331 5.12012C9.38698 5.20326 9.00724 5.32987 8.65692 5.49493C8.60128 5.46088 8.54207 5.42868 8.48091 5.39885C7.34909 4.84683 5.98405 5.31684 5.43202 6.44867C5.04721 7.23766 5.15904 8.13997 5.6455 8.8012C5.31553 8.89946 5.00518 9.04231 4.72106 9.22193C4.124 8.29047 4.01237 7.07823 4.53323 6.0103C5.32736 4.38208 7.29107 3.70593 8.91929 4.50006ZM2.91582 4.6696L3.00013 4.70176L3.76194 5.07331C4.01013 5.19436 4.1132 5.4937 3.99215 5.74189C3.88455 5.96251 3.63608 6.06846 3.40788 6.00426L3.32357 5.97211L2.56176 5.60055C2.31357 5.4795 2.2105 5.18016 2.33155 4.93197C2.43915 4.71135 2.68762 4.6054 2.91582 4.6696ZM9.98918 2.29523C10.2098 2.40284 10.3157 2.6513 10.2515 2.87951L10.2194 2.96382L9.84783 3.72562C9.72678 3.97381 9.42745 4.07688 9.17925 3.95583C8.95863 3.84823 8.85268 3.59976 8.91688 3.37156L8.94904 3.28725L9.3206 2.52545C9.44165 2.27725 9.74098 2.17418 9.98918 2.29523ZM6.19931 2.26281L6.23619 2.34516L6.51213 3.14657C6.60204 3.40767 6.46326 3.69221 6.20216 3.78211C5.97007 3.86203 5.71946 3.76125 5.60349 3.55449L5.56662 3.47214L5.29067 2.67073C5.20077 2.40963 5.33955 2.12509 5.60064 2.03519C5.83273 1.95528 6.08334 2.05605 6.19931 2.26281Z" fill="#212121"/>
</svg>
