<svg width="20" height="20" viewBox="0 0 20 20" fill="none" xmlns="http://www.w3.org/2000/svg">
<path d="M5 15.0565V12.7142C5.17709 12.7889 5.35899 12.8585 5.5455 12.9233C5.84006 13.0256 6.15994 13.0256 6.4545 12.9233C7.88692 12.4259 9.04306 11.6401 9.83551 10.5374C10.6287 9.43358 11 8.09218 11 6.58438V4.03505L10.9825 3.85447L10.9731 3.8066C10.851 3.18491 10.3082 2.66667 9.6 2.66667C9.56994 2.66667 9.54005 2.66627 9.51033 2.66548C9.87651 2.257 10.4082 2 11 2C12.1046 2 13 2.89543 13 4L12.999 4.056L16 4.05648C16.5523 4.05648 17 4.50419 17 5.05648L16.999 7.999L16 8C14.9456 8 14.0818 8.81588 14.0055 9.85074L14 10C14 11.0544 14.8159 11.9182 15.8507 11.9945L16 12L16.999 11.999L17 15.0565C17 15.6088 16.5523 16.0565 16 16.0565L12.997 16.056L12.9945 16.1493C12.9182 17.1841 12.0544 18 11 18C9.91451 18 9.031 17.1352 9.0008 16.057L6 16.0565C5.44772 16.0565 5 15.6088 5 15.0565ZM8 3.34709C8.32332 3.48293 8.6565 3.57525 9 3.62446C9.19659 3.65263 9.39657 3.66667 9.6 3.66667C9.7933 3.66667 9.95457 3.80949 9.99187 3.99936L10 4.08333V6.58438C10 9.26632 8.68699 11.0896 6.12649 11.9786C6.04438 12.0071 5.95562 12.0071 5.87351 11.9786C5.14824 11.7268 4.52307 11.4 3.99947 11C3.61463 10.706 3.28467 10.3724 3.01017 10C2.38355 9.14981 2.04594 8.09701 2.00437 6.84971L2 6.58438V4.08333C2 3.85321 2.17909 3.66667 2.4 3.66667C3.62338 3.66667 4.72333 3.15752 5.71782 2.12198C5.87414 1.95921 6.12757 1.95936 6.28372 2.12231C6.82311 2.68522 7.39423 3.09256 8 3.34709Z" fill="#212121"/>
</svg>
