<svg width="28" height="28" viewBox="0 0 28 28" fill="none" xmlns="http://www.w3.org/2000/svg">
<path d="M14.304 2.10367C14.5442 1.49585 15.2397 0.869116 16.1236 1.11553C17.9023 1.61139 18.5762 3.50092 18.7605 5.27033C18.918 6.78282 18.7589 8.49665 18.4136 10.0002H20.5809C22.9519 10.0002 24.7278 12.1731 24.2558 14.4967L23.0277 20.5427C22.2444 24.3989 18.342 26.7703 14.5584 25.6893L6.86873 23.4923C5.47671 23.0946 4.43796 21.9311 4.19996 20.5031L3.78388 18.0066C3.56372 16.6856 4.33068 15.4787 5.43214 14.921C10.2068 12.5036 12.0379 7.85518 14.0437 2.76343C14.1301 2.54429 14.2167 2.32432 14.304 2.10367ZM15.7358 2.59142C15.7216 2.60886 15.7086 2.63066 15.6989 2.65512C15.5936 2.92147 15.4886 3.18884 15.3833 3.45681C13.4363 8.41373 11.4083 13.5765 6.10971 16.2593C5.49724 16.5694 5.16781 17.186 5.26347 17.76L5.67955 20.2565C5.82235 21.1133 6.4456 21.8114 7.28081 22.05L14.9705 24.247C17.9133 25.0878 20.9485 23.2434 21.5577 20.2441L22.7858 14.1981C23.069 12.8039 22.0035 11.5002 20.5809 11.5002H17.4392C17.2017 11.5002 16.9782 11.3877 16.8368 11.1969C16.6953 11.0061 16.6526 10.7596 16.7215 10.5324C17.1894 8.99085 17.437 7.04335 17.2686 5.42569C17.0944 3.75322 16.5323 2.80981 15.7555 2.5706C15.7498 2.57566 15.743 2.58249 15.7358 2.59142Z" fill="#212121"/>
</svg>
