<svg width="24" height="24" viewBox="0 0 24 24" fill="none" xmlns="http://www.w3.org/2000/svg">
<path d="M7 10H17C17.5523 10 18 10.3358 18 10.75C18 11.1297 17.6238 11.4435 17.1357 11.4932L17 11.5H7C6.44772 11.5 6 11.1642 6 10.75C6 10.3703 6.37621 10.0565 6.86431 10.0068L7 10ZM15.3333 13H8.66667L8.5762 13.0068C8.2508 13.0565 8 13.3703 8 13.75C8 14.1642 8.29848 14.5 8.66667 14.5H15.3333L15.4238 14.4932C15.7492 14.4435 16 14.1297 16 13.75C16 13.3358 15.7015 13 15.3333 13ZM21 5.75C21 4.23122 19.7688 3 18.25 3H5.75C4.23122 3 3 4.23122 3 5.75V18.25C3 19.7688 4.23122 21 5.75 21H18.25C19.7688 21 21 19.7688 21 18.25V5.75ZM5.75 4.5H18.25C18.9404 4.5 19.5 5.05964 19.5 5.75V18.25C19.5 18.9404 18.9404 19.5 18.25 19.5H5.75C5.05964 19.5 4.5 18.9404 4.5 18.25V5.75C4.5 5.05964 5.05964 4.5 5.75 4.5Z" fill="#212121"/>
</svg>
