<svg width="32" height="32" viewBox="0 0 32 32" fill="none" xmlns="http://www.w3.org/2000/svg">
<path d="M27.0016 4.25586C27.0016 3.5655 26.442 3.00586 25.7516 3.00586C25.0613 3.00586 24.5016 3.5655 24.5016 4.25586V10.4371L19.9051 5.63957C18.6837 4.34636 16.6529 3.314 14.424 3.09748C12.1448 2.87606 9.60727 3.50523 7.49542 5.61707C5.34624 7.76623 4.78306 10.2766 4.99457 12.4478C5.19958 14.5522 6.13759 16.4058 7.11347 17.3829L7.11542 17.3848L18.3219 28.6813C18.8081 29.1714 19.5995 29.1746 20.0896 28.6884C20.5797 28.2022 20.5829 27.4107 20.0967 26.9206L8.88671 15.6206L8.88318 15.6171C8.35975 15.0936 7.63804 13.7991 7.48279 12.2054C7.33388 10.6769 7.7107 8.9373 9.26318 7.38484C10.7883 5.85969 12.5609 5.42825 14.1823 5.58576C15.852 5.74796 17.3108 6.53226 18.0898 7.35846L18.0967 7.36571L23.0358 12.5209H16.5992C15.9088 12.5209 15.3492 13.0806 15.3492 13.7709C15.3492 14.4613 15.9088 15.0209 16.5992 15.0209H25.7516C26.442 15.0209 27.0016 14.4613 27.0016 13.7709V4.25586Z" fill="#212121"/>
</svg>
