<svg width="16" height="16" viewBox="0 0 16 16" fill="none" xmlns="http://www.w3.org/2000/svg">
<path d="M13.2182 4.24627L7.08675 6.23849C7.01457 6.28462 6.93168 6.31139 6.84663 6.31651L4.74202 7.00034H13.5C13.7762 7.00034 14 7.2242 14 7.50034V12.5003C14 13.8811 12.8807 15.0003 11.5 15.0003H4.50003C3.11932 15.0003 2.00003 13.8811 2.00003 12.5003V7.50034C2.00003 7.3936 2.03348 7.29467 2.09047 7.21346L1.89476 6.61114C1.4681 5.29801 2.18673 3.88762 3.49986 3.46096L10.1573 1.29784C11.4704 0.871175 12.8808 1.5898 13.3074 2.90294L13.5392 3.61623C13.6245 3.87886 13.4808 4.16093 13.2182 4.24627ZM9.47413 4.41132L10.7596 2.18488C10.6617 2.19615 10.5636 2.21729 10.4663 2.24889L9.22107 2.65349L7.9134 4.91843L9.47413 4.41132ZM11.7694 2.43239C11.7635 2.44483 11.7571 2.45713 11.7501 2.46925L10.8955 3.9495L12.4336 3.44972L12.3564 3.21195C12.2488 2.88099 12.0372 2.61297 11.7694 2.43239ZM7.79974 3.11531L6.23901 3.62242L4.93134 5.88736L6.49207 5.38025L7.79974 3.11531ZM2.92307 6.53989L3.51001 6.34918L4.81767 4.08424L3.80888 4.41201C3.021 4.66801 2.58982 5.51424 2.84582 6.30212L2.92307 6.53989Z" fill="#212121"/>
</svg>
