<svg width="20" height="20" viewBox="0 0 20 20" fill="none" xmlns="http://www.w3.org/2000/svg">
<path d="M15.9961 14.5658C15.9911 14.6041 15.9816 14.642 15.9676 14.6788C15.9179 14.8095 15.8157 14.9134 15.6859 14.9653L10.6859 16.9644C10.4295 17.0669 10.1385 16.9422 10.036 16.6858C9.93349 16.4293 10.0582 16.1384 10.3146 16.0359L14.1523 14.5015L2.62805 9.91181C1.79999 9.58202 1.78451 8.41553 2.60353 8.06389L14.3032 3.04068C14.5569 2.93174 14.8509 3.04912 14.9599 3.30287C15.0688 3.55661 14.9514 3.85063 14.6977 3.95957L2.99805 8.98277L14.4658 13.55L12.553 9.7237C12.4296 9.47671 12.5297 9.17638 12.7767 9.0529C13.0237 8.92942 13.324 9.02956 13.4475 9.27655L15.938 14.2585C15.9888 14.3507 16.0104 14.4583 15.9961 14.5658Z" fill="#212121"/>
</svg>
