<svg width="32" height="32" viewBox="0 0 32 32" fill="none" xmlns="http://www.w3.org/2000/svg">
<path d="M10.8536 6.85355C11.0488 6.65829 11.0488 6.34171 10.8536 6.14645C10.6583 5.95118 10.3417 5.95118 10.1464 6.14645L3.14645 13.1464C2.95118 13.3417 2.95118 13.6583 3.14645 13.8536L10.1464 20.8536C10.3417 21.0488 10.6583 21.0488 10.8536 20.8536C11.0488 20.6583 11.0488 20.3417 10.8536 20.1464L4.70711 14H16.5C22.8513 14 28 19.1487 28 25.5C28 25.7761 28.2239 26 28.5 26C28.7761 26 29 25.7761 29 25.5C29 18.5964 23.4036 13 16.5 13H4.70711L10.8536 6.85355Z" fill="#212121"/>
</svg>
