<svg width="24" height="24" viewBox="0 0 24 24" fill="none" xmlns="http://www.w3.org/2000/svg">
<path d="M15.8432 17.3679C14.4988 18.392 12.8204 19 11 19C6.58172 19 3 15.4183 3 11C3 6.58172 6.58172 3 11 3C15.4183 3 19 6.58172 19 11C19 12.8768 18.3537 14.6027 17.2715 15.9672L21.6982 20.2841C22.0936 20.6697 22.1015 21.3028 21.7159 21.6982C21.3303 22.0936 20.6972 22.1015 20.3018 21.7159L15.8432 17.3679ZM17 11C17 7.68629 14.3137 5 11 5C7.68629 5 5 7.68629 5 11C5 14.3137 7.68629 17 11 17C14.3137 17 17 14.3137 17 11Z" fill="#212121"/>
</svg>
