<?xml version="1.0" encoding="UTF-8"?>
<svg width="24px" height="24px" viewBox="0 0 24 24" version="1.1" xmlns="http://www.w3.org/2000/svg" xmlns:xlink="http://www.w3.org/1999/xlink">
    <!-- Generator: Sketch 59.1 (86144) - https://sketch.com -->
    <title>ic_fluent_search_24_light</title>
    <desc>Created with Sketch.</desc>
    <g id="ðŸ”-Product-Icons" stroke="none" stroke-width="1" fill="none" fill-rule="evenodd">
        <g id="ic_fluent_search_24_light" fill="#212121" fill-rule="nonzero">
            <path d="M10,3 C13.8659932,3 17,6.13400675 17,10 C17,11.7530734 16.3555667,13.3556314 15.2906721,14.583702 L20.3535534,19.6464466 C20.5488155,19.8417088 20.5488155,20.1582912 20.3535534,20.3535534 C20.179987,20.5271197 19.9105626,20.5464049 19.7156945,20.4114088 L19.6464466,20.3535534 L14.583702,15.2906721 C13.3556314,16.3555667 11.7530734,17 10,17 C6.13400675,17 3,13.8659932 3,10 C3,6.13400675 6.13400675,3 10,3 Z M10,4 C6.6862915,4 4,6.6862915 4,10 C4,13.3137085 6.6862915,16 10,16 C13.3137085,16 16,13.3137085 16,10 C16,6.6862915 13.3137085,4 10,4 Z" id="ðŸŽ¨-Color"></path>
        </g>
    </g>
</svg>