<svg width="48" height="48" viewBox="0 0 48 48" fill="none" xmlns="http://www.w3.org/2000/svg">
<path d="M31.2035 33.3248C28.434 35.6202 24.8781 37 21 37C12.1634 37 5 29.8366 5 21C5 12.1634 12.1634 5 21 5C29.8366 5 37 12.1634 37 21C37 24.8781 35.6202 28.434 33.3248 31.2035L42.5607 40.4393C43.1464 41.0251 43.1464 41.9749 42.5607 42.5607C41.9749 43.1464 41.0251 43.1464 40.4393 42.5607L31.2035 33.3248ZM34 21C34 13.8203 28.1797 8 21 8C13.8203 8 8 13.8203 8 21C8 28.1797 13.8203 34 21 34C28.1797 34 34 28.1797 34 21Z" fill="#212121"/>
</svg>
