<svg width="12" height="12" viewBox="0 0 12 12" fill="none" xmlns="http://www.w3.org/2000/svg">
<path d="M5.00038 1C2.79103 1 1 2.7909 1 5.00008C1 7.20927 2.79103 9.00017 5.00038 9.00017C5.92463 9.00017 6.77568 8.68675 7.45302 8.1604L10.1464 10.8536C10.3416 11.0488 10.6583 11.0488 10.8535 10.8536C11.0488 10.6583 11.0488 10.3417 10.8535 10.1464L8.16028 7.45337C8.68705 6.77595 9.00075 5.92465 9.00075 5.00008C9.00075 2.7909 7.20972 1 5.00038 1ZM2.00009 5.00008C2.00009 3.34319 3.34337 2.00002 5.00038 2.00002C6.65739 2.00002 8.00066 3.34319 8.00066 5.00008C8.00066 6.65697 6.65739 8.00015 5.00038 8.00015C3.34337 8.00015 2.00009 6.65697 2.00009 5.00008Z" fill="#212121"/>
</svg>
