<svg width="32" height="32" viewBox="0 0 32 32" fill="none" xmlns="http://www.w3.org/2000/svg">
<path d="M13.5 3C7.70101 3 3 7.70101 3 13.5C3 19.299 7.70101 24 13.5 24C15.9493 24 18.2028 23.1613 19.9889 21.7555L26.8672 28.6338C27.3553 29.122 28.1468 29.122 28.635 28.6338C29.1231 28.1456 29.1231 27.3542 28.635 26.866L21.7565 19.9876C23.1617 18.2017 24 15.9488 24 13.5C24 7.70101 19.299 3 13.5 3ZM5.5 13.5C5.5 9.08172 9.08172 5.5 13.5 5.5C17.9183 5.5 21.5 9.08172 21.5 13.5C21.5 17.9183 17.9183 21.5 13.5 21.5C9.08172 21.5 5.5 17.9183 5.5 13.5Z" fill="#212121"/>
</svg>
