<svg width="20" height="20" viewBox="0 0 20 20" fill="none" xmlns="http://www.w3.org/2000/svg">
<path d="M9.72265 2.08397C9.8906 1.97201 10.1094 1.97201 10.2774 2.08397C12.2155 3.3761 14.3117 4.1823 16.5707 4.50503C16.817 4.54021 17 4.75117 17 5V9.5C17 13.3913 14.693 16.2307 10.1795 17.9667C10.064 18.0111 9.93605 18.0111 9.82051 17.9667C5.30699 16.2307 3 13.3913 3 9.5V5C3 4.75117 3.18296 4.54021 3.42929 4.50503C5.68833 4.1823 7.78446 3.3761 9.72265 2.08397Z" fill="url(#paint0_radial_378174_9616)"/>
<path d="M9.72265 2.08397C9.8906 1.97201 10.1094 1.97201 10.2774 2.08397C12.2155 3.3761 14.3117 4.1823 16.5707 4.50503C16.817 4.54021 17 4.75117 17 5V9.5C17 13.3913 14.693 16.2307 10.1795 17.9667C10.064 18.0111 9.93605 18.0111 9.82051 17.9667C5.30699 16.2307 3 13.3913 3 9.5V5C3 4.75117 3.18296 4.54021 3.42929 4.50503C5.68833 4.1823 7.78446 3.3761 9.72265 2.08397Z" fill="url(#paint1_radial_378174_9616)" fill-opacity="0.5"/>
<path d="M19 14.5C19 12.0147 16.9853 10 14.5 10C12.0147 10 10 12.0147 10 14.5C10 16.9853 12.0147 19 14.5 19C16.9853 19 19 16.9853 19 14.5Z" fill="url(#paint2_linear_378174_9616)"/>
<path fill-rule="evenodd" clip-rule="evenodd" d="M16.8536 12.6464C17.0488 12.8417 17.0488 13.1583 16.8536 13.3536L13.8536 16.3536C13.6583 16.5488 13.3417 16.5488 13.1464 16.3536L12.1464 15.3536C11.9512 15.1583 11.9512 14.8417 12.1464 14.6464C12.3417 14.4512 12.6583 14.4512 12.8536 14.6464L13.5 15.2929L16.1464 12.6464C16.3417 12.4512 16.6583 12.4512 16.8536 12.6464Z" fill="url(#paint3_linear_378174_9616)"/>
<defs>
<radialGradient id="paint0_radial_378174_9616" cx="0" cy="0" r="1" gradientUnits="userSpaceOnUse" gradientTransform="translate(-2.5 -7) rotate(55.2568) scale(37.726 33.0102)">
<stop offset="0.337728" stop-color="#0FAFFF"/>
<stop offset="0.529425" stop-color="#367AF2"/>
<stop offset="0.682436" stop-color="#5750E2"/>
<stop offset="0.860903" stop-color="#CC23D1"/>
</radialGradient>
<radialGradient id="paint1_radial_378174_9616" cx="0" cy="0" r="1" gradientUnits="userSpaceOnUse" gradientTransform="translate(14.5 15.5) rotate(90) scale(6.5)">
<stop offset="0.5" stop-color="#1E1868"/>
<stop offset="1" stop-color="#1E1868" stop-opacity="0"/>
</radialGradient>
<linearGradient id="paint2_linear_378174_9616" x1="10.3214" y1="11.6875" x2="16.5325" y2="18.1406" gradientUnits="userSpaceOnUse">
<stop stop-color="#52D17C"/>
<stop offset="1" stop-color="#22918B"/>
</linearGradient>
<linearGradient id="paint3_linear_378174_9616" x1="12.9375" y1="12.908" x2="13.9463" y2="17.3597" gradientUnits="userSpaceOnUse">
<stop stop-color="white"/>
<stop offset="1" stop-color="#E3FFD9"/>
</linearGradient>
</defs>
</svg>
