<svg width="16" height="16" viewBox="0 0 16 16" fill="none" xmlns="http://www.w3.org/2000/svg">
<path d="M6.64728 1.14638C6.84268 0.951052 7.15946 0.95123 7.35464 1.14678C8.5947 2.38913 9.96892 3 11.5 3C11.7761 3 12 3.22386 12 3.5V5.20703C11.6777 5.11588 11.3434 5.05337 11 5.02242V3.98121C9.51949 3.86895 8.18521 3.25528 7.00042 2.18917C5.81393 3.25491 4.47941 3.86879 3 3.98118V6.50126C3 7.9349 3.36269 9.06553 4.02127 9.94534C4.29157 10.3064 4.62189 10.6388 5.01725 10.9387C5.05493 11.4162 5.15357 11.8765 5.3054 12.3118C3.11713 11.1102 2 9.15643 2 6.50126V3.5C2 3.22386 2.22386 3 2.5 3C4.02923 3 5.40416 2.38902 6.64728 1.14638ZM15 10.5C15 12.9853 12.9853 15 10.5 15C8.01472 15 6 12.9853 6 10.5C6 8.01472 8.01472 6 10.5 6C12.9853 6 15 8.01472 15 10.5ZM12.8536 8.64645C12.6583 8.45118 12.3417 8.45118 12.1464 8.64645L9.5 11.2929L8.85355 10.6464C8.65829 10.4512 8.34171 10.4512 8.14645 10.6464C7.95118 10.8417 7.95118 11.1583 8.14645 11.3536L9.14645 12.3536C9.34171 12.5488 9.65829 12.5488 9.85355 12.3536L12.8536 9.35355C13.0488 9.15829 13.0488 8.84171 12.8536 8.64645Z" fill="#212121"/>
</svg>
