<svg width="28" height="28" viewBox="0 0 28 28" fill="none" xmlns="http://www.w3.org/2000/svg">
<path d="M14.4415 2.14374C14.1752 1.9498 13.8136 1.95234 13.55 2.15C12.1438 3.20468 10.4158 3.9463 8.77591 4.45974C7.41397 4.88615 6.13717 5.14769 5.19982 5.30244C4.73193 5.37969 4.35057 5.43 4.08792 5.46086C3.95664 5.47629 3.85515 5.48683 3.78749 5.49344C3.75366 5.49675 3.7283 5.49907 3.71192 5.50052L3.69413 5.50206L3.68997 5.50241C3.30029 5.5337 2.99999 5.85962 3 6.25058V12.75C3 17.8425 6.4765 23.6195 13.7705 25.964C13.9197 26.012 14.0803 26.012 14.2295 25.964C14.5156 25.8721 14.7955 25.7748 15.0691 25.6726C13.787 24.3269 13 22.5054 13 20.5C13 16.3579 16.3579 13 20.5 13C22.0464 13 23.4836 13.468 24.6775 14.2702C24.726 13.8415 24.75 13.4172 24.75 13V6.25C24.75 5.8605 24.4516 5.53582 24.0635 5.5027L24.0619 5.50255L24.0519 5.50164L24.0074 5.49735C23.967 5.49333 23.9058 5.48692 23.8254 5.47762C23.6647 5.45903 23.4279 5.42895 23.1297 5.38355C22.5327 5.29266 21.6929 5.14079 20.7279 4.89772C18.7862 4.40864 16.3908 3.56337 14.4415 2.14374ZM27 20.5C27 16.9101 24.0899 14 20.5 14C16.9101 14 14 16.9101 14 20.5C14 24.0899 16.9101 27 20.5 27C24.0899 27 27 24.0899 27 20.5ZM24.3536 17.6464C24.5488 17.8417 24.5488 18.1583 24.3536 18.3536L19.3536 23.3536C19.1583 23.5488 18.8417 23.5488 18.6464 23.3536L16.6464 21.3536C16.4512 21.1583 16.4512 20.8417 16.6464 20.6464C16.8417 20.4512 17.1583 20.4512 17.3536 20.6464L19 22.2929L23.6464 17.6464C23.8417 17.4512 24.1583 17.4512 24.3536 17.6464Z" fill="#212121"/>
</svg>
