<svg width="24" height="24" viewBox="0 0 24 24" fill="none" xmlns="http://www.w3.org/2000/svg">
<path d="M10.5492 2.53318C11.3872 1.82618 12.6128 1.82618 13.4508 2.53318L20.2008 8.22772C20.7076 8.65523 21 9.28447 21 9.94747V11.4415C20.5787 11.3065 20.1271 11.2007 19.6551 11.1266C19.1291 11.0439 18.5733 11 18 11C16.4977 11 15.0882 11.3023 14.0173 11.8378C13.0599 12.3165 12.107 13.1339 12.0084 14.3002L12 14.2929V20.5C12 20.674 12.0197 20.8418 12.0559 21.0026H4.75C3.7835 21.0026 3 20.2191 3 19.2526V9.94747C3 9.28447 3.29241 8.65523 3.79916 8.22772L10.5492 2.53318ZM21 12.4998C20.5523 12.3317 20.0464 12.2003 19.5 12.1144C19.0265 12.0401 18.5226 12 18 12C15.2386 12 13 13.1193 13 14.5C13 15.8807 15.2386 17 18 17C18.5226 17 19.0265 16.9599 19.5 16.8855C20.0464 16.7997 20.5523 16.6683 21 16.5002C22.2144 16.0441 23 15.3179 23 14.5C23 13.6821 22.2144 12.9559 21 12.4998ZM21 17.5585C20.5336 17.708 20.0293 17.8219 19.5 17.8965C19.0174 17.9646 18.5141 18 18 18C16.4977 18 15.0882 17.6977 14.0173 17.1622C13.6632 16.9852 13.3098 16.7619 13 16.4917V20.5C13 20.8556 13.1484 21.1938 13.416 21.5C14.1876 22.383 15.9497 23 18 23C20.7614 23 23 21.8807 23 20.5V16.4917C22.6902 16.7619 22.3368 16.9852 21.9827 17.1622C21.6803 17.3134 21.3509 17.446 21 17.5585Z" fill="#212121"/>
</svg>
