<svg width="28" height="28" viewBox="0 0 28 28" fill="none" xmlns="http://www.w3.org/2000/svg">
<path d="M3.00077 7.16804C2.40912 7.44875 2 8.0516 2 8.75C2 9.4481 2.40876 10.0507 3 10.3316C3.22731 10.4396 3.4816 10.5 3.75 10.5C4.7165 10.5 5.5 9.7165 5.5 8.75C5.5 7.7835 4.7165 7 3.75 7C3.48191 7 3.22789 7.06029 3.00077 7.16804Z" fill="#212121"/>
<path d="M3.16838 6.06162C3.35586 6.02125 3.55045 6 3.75 6C5.26878 6 6.5 7.23122 6.5 8.75C6.5 10.2688 5.26878 11.5 3.75 11.5C3.48999 11.5 3.23842 11.4639 3 11.3965V20.75C3 23.0972 4.90279 25 7.25 25H14.4995C13.5579 23.7465 13 22.1884 13 20.5C13 19.0294 13.4232 17.6577 14.1546 16.5H9.75C9.33579 16.5 9 16.1642 9 15.75C9 15.3358 9.33579 15 9.75 15H15.4009C16.7391 13.7588 18.5309 13 20.5 13C22.1884 13 23.7465 13.5579 25 14.4995V7.25C25 4.90279 23.0972 3 20.75 3H7.25C5.31528 3 3.6825 4.29278 3.16838 6.06162ZM9.75 11H18.25C18.6642 11 19 11.3358 19 11.75C19 12.1642 18.6642 12.5 18.25 12.5H9.75C9.33579 12.5 9 12.1642 9 11.75C9 11.3358 9.33579 11 9.75 11Z" fill="#212121"/>
<path d="M27 20.5C27 24.0899 24.0899 27 20.5 27C16.9101 27 14 24.0899 14 20.5C14 16.9101 16.9101 14 20.5 14C24.0899 14 27 16.9101 27 20.5ZM17.8536 17.1464C17.6583 16.9512 17.3417 16.9512 17.1464 17.1464C16.9512 17.3417 16.9512 17.6583 17.1464 17.8536L19.7929 20.5L17.1464 23.1464C16.9512 23.3417 16.9512 23.6583 17.1464 23.8536C17.3417 24.0488 17.6583 24.0488 17.8536 23.8536L20.5 21.2071L23.1464 23.8536C23.3417 24.0488 23.6583 24.0488 23.8536 23.8536C24.0488 23.6583 24.0488 23.3417 23.8536 23.1464L21.2071 20.5L23.8536 17.8536C24.0488 17.6583 24.0488 17.3417 23.8536 17.1464C23.6583 16.9512 23.3417 16.9512 23.1464 17.1464L20.5 19.7929L17.8536 17.1464Z" fill="#212121"/>
</svg>
