<svg width="24" height="24" viewBox="0 0 24 24" fill="none" xmlns="http://www.w3.org/2000/svg">
<path d="M6.25 3C4.45507 3 3 4.45507 3 6.25V17.75C3 19.5449 4.45507 21 6.25 21H17.75C19.5449 21 21 19.5449 21 17.75V6.25C21 4.45507 19.5449 3 17.75 3H6.25ZM6 8.25C6 7.2835 6.7835 6.5 7.75 6.5H16.25C17.2165 6.5 18 7.2835 18 8.25V9.75C18 10.7165 17.2165 11.5 16.25 11.5H7.75C6.7835 11.5 6 10.7165 6 9.75V8.25ZM7.75 8C7.61193 8 7.5 8.11193 7.5 8.25V9.75C7.5 9.88807 7.61193 10 7.75 10H16.25C16.3881 10 16.5 9.88807 16.5 9.75V8.25C16.5 8.11193 16.3881 8 16.25 8H7.75ZM6.75 13H11.25C11.6642 13 12 13.3358 12 13.75C12 14.1642 11.6642 14.5 11.25 14.5H6.75C6.33579 14.5 6 14.1642 6 13.75C6 13.3358 6.33579 13 6.75 13ZM6 16.75C6 16.3358 6.33579 16 6.75 16H11.25C11.6642 16 12 16.3358 12 16.75C12 17.1642 11.6642 17.5 11.25 17.5H6.75C6.33579 17.5 6 17.1642 6 16.75ZM15.25 13H16.25C17.2165 13 18 13.7835 18 14.75V15.75C18 16.7165 17.2165 17.5 16.25 17.5H15.25C14.2835 17.5 13.5 16.7165 13.5 15.75V14.75C13.5 13.7835 14.2835 13 15.25 13ZM15 14.75C15 14.6119 15.1119 14.5 15.25 14.5H16.25C16.3881 14.5 16.5 14.6119 16.5 14.75V15.75C16.5 15.8881 16.3881 16 16.25 16H15.25C15.1119 16 15 15.8881 15 15.75V14.75Z" fill="#212121"/>
</svg>
