<svg width="28" height="28" viewBox="0 0 28 28" fill="none" xmlns="http://www.w3.org/2000/svg">
<path d="M3.50097 6.68321C3.50291 6.70521 3.50391 6.72749 3.50391 6.75V9H9.42157C9.75309 9 10.071 8.8683 10.3055 8.63388L12.1893 6.75L10.3055 4.86612C10.071 4.6317 9.75309 4.5 9.42157 4.5H5.75C4.5297 4.5 3.5363 5.47146 3.50097 6.68321ZM2.00391 9.82647C2.00131 9.80118 2 9.77566 2 9.75V6.75C2 4.67893 3.67893 3 5.75 3H9.42157C10.1509 3 10.8504 3.28973 11.3661 3.80546L13.5607 6H22.2505C24.3216 6 26.0005 7.67893 26.0005 9.75V14.4015C25.5577 13.924 25.0536 13.5043 24.5005 13.1549V9.75C24.5005 8.50736 23.4932 7.5 22.2505 7.5H13.5607L11.3661 9.69454C10.8504 10.2103 10.1509 10.5 9.42157 10.5H3.50391V20.2501C3.50391 21.4927 4.51127 22.5001 5.75391 22.5001H13.6241C13.8581 23.0356 14.1528 23.5385 14.4995 24.0001H5.75391C3.68284 24.0001 2.00391 22.3211 2.00391 20.2501V9.82647ZM20.5 26C24.0899 26 27 23.0899 27 19.5C27 15.9101 24.0899 13 20.5 13C16.9101 13 14 15.9101 14 19.5C14 23.0899 16.9101 26 20.5 26ZM20.5 24.5C19.3899 24.5 18.3642 24.1382 17.5346 23.5261L24.5261 16.5346C25.1382 17.3642 25.5 18.3899 25.5 19.5C25.5 22.2614 23.2614 24.5 20.5 24.5ZM23.4654 15.4739L16.4739 22.4654C15.8618 21.6358 15.5 20.6101 15.5 19.5C15.5 16.7386 17.7386 14.5 20.5 14.5C21.6101 14.5 22.6358 14.8618 23.4654 15.4739Z" fill="#242424"/>
</svg>
