<svg width="48" height="48" viewBox="0 0 48 48" fill="none" xmlns="http://www.w3.org/2000/svg">
<path d="M6.5 12.25V16H16.7145C17.046 16 17.3639 15.8683 17.5983 15.6339L20.9822 12.25L17.5983 8.86612C17.3639 8.6317 17.046 8.5 16.7145 8.5H10.25C8.17893 8.5 6.5 10.1789 6.5 12.25ZM4 12.25C4 8.79822 6.79822 6 10.25 6H16.7145C17.709 6 18.6629 6.39509 19.3661 7.09835L23.2678 11H37.75C41.2018 11 44 13.7982 44 17.25V24.6191C43.2476 23.8971 42.4086 23.2647 41.5 22.7392V17.25C41.5 15.1789 39.8211 13.5 37.75 13.5H23.2678L19.3661 17.4017C18.6629 18.1049 17.709 18.5 16.7145 18.5H6.5V34.75C6.5 36.8211 8.17893 38.5 10.25 38.5H22.7999C23.1255 39.3823 23.544 40.2196 24.0436 41H10.25C6.79822 41 4 38.2018 4 34.75V12.25ZM35 45C41.0751 45 46 40.0751 46 34C46 27.9249 41.0751 23 35 23C28.9249 23 24 27.9249 24 34C24 40.0751 28.9249 45 35 45ZM35 42.5C33.1037 42.5 31.3524 41.879 29.9384 40.8293L41.8293 28.9384C42.879 30.3524 43.5 32.1037 43.5 34C43.5 38.6944 39.6944 42.5 35 42.5ZM40.0616 27.1707L28.1707 39.0616C27.121 37.6476 26.5 35.8963 26.5 34C26.5 29.3056 30.3056 25.5 35 25.5C36.8963 25.5 38.6476 26.121 40.0616 27.1707Z" fill="#212121"/>
</svg>
