<svg width="16" height="16" viewBox="0 0 16 16" fill="none" xmlns="http://www.w3.org/2000/svg">
<path d="M7.17539 3H7.20669L5.5567 4.49998H2V4C2 2.89543 2.89543 2 4 2H5.75C5.86354 2 5.97369 2.03864 6.06235 2.10957L7.17539 3ZM6.08633 5.36995L8.6933 3H12C13.1046 3 14 3.89543 14 5V6.25716C13.0491 5.47182 11.8296 5 10.5 5C7.46243 5 5 7.46243 5 10.5C5 11.02 5.07217 11.5232 5.20703 12H4C2.89543 12 2 11.1046 2 10V5.49998H5.75C5.87438 5.49998 5.9943 5.45362 6.08633 5.36995ZM10.5 15C8.01472 15 6 12.9853 6 10.5C6 8.01472 8.01472 6 10.5 6C12.9853 6 15 8.01472 15 10.5C15 12.9853 12.9853 15 10.5 15ZM7.69679 12.5961L12.5961 7.69679C12.0118 7.25919 11.2862 7 10.5 7C8.567 7 7 8.567 7 10.5C7 11.2862 7.25919 12.0118 7.69679 12.5961ZM8.40389 13.3032C8.98818 13.7408 9.71382 14 10.5 14C12.433 14 14 12.433 14 10.5C14 9.71382 13.7408 8.98818 13.3032 8.40389L8.40389 13.3032Z" fill="#212121"/>
</svg>
