<svg width="28" height="28" viewBox="0 0 28 28" fill="none" xmlns="http://www.w3.org/2000/svg">
<path d="M2 6.75C2 4.67893 3.67893 3 5.75 3H9.42157C10.1509 3 10.8504 3.28973 11.3661 3.80546L13.25 5.68934L10.3055 8.63388C10.071 8.8683 9.75309 9 9.42157 9H2V6.75ZM2.00391 10.5V20.2501C2.00391 22.3211 3.68284 24.0001 5.75391 24.0001H14.4995C13.5579 22.7466 13 21.1884 13 19.5C13 15.3579 16.3579 12 20.5 12C22.6733 12 24.6307 12.9244 26.0005 14.4015V9.75C26.0005 7.67893 24.3216 6 22.2505 6H15.0607L11.3661 9.69454C10.8504 10.2103 10.1509 10.5 9.42157 10.5H2.00391ZM20.5 26C24.0899 26 27 23.0899 27 19.5C27 15.9101 24.0899 13 20.5 13C16.9101 13 14 15.9101 14 19.5C14 23.0899 16.9101 26 20.5 26ZM20.5 24.5C19.3899 24.5 18.3642 24.1382 17.5346 23.5261L24.5261 16.5346C25.1382 17.3642 25.5 18.3899 25.5 19.5C25.5 22.2614 23.2614 24.5 20.5 24.5ZM23.4654 15.4739L16.4739 22.4654C15.8618 21.6358 15.5 20.6101 15.5 19.5C15.5 16.7386 17.7386 14.5 20.5 14.5C21.6101 14.5 22.6358 14.8618 23.4654 15.4739Z" fill="#242424"/>
</svg>
