<svg width="28" height="28" viewBox="0 0 28 28" fill="none" xmlns="http://www.w3.org/2000/svg">
<path d="M13.2695 24.3672C13.0039 24.8976 12.9448 25.4583 13.0476 25.9764C7.7545 25.7105 4 23.2261 4 19.7146V19C4 17.3431 5.34315 16 7 16H17.4607L13.2695 24.3672ZM14 2C17.3137 2 20 4.68629 20 8C20 11.3137 17.3137 14 14 14C10.6863 14 8 11.3137 8 8C8 4.68629 10.6863 2 14 2ZM19.1638 14.8279L14.1617 24.8195C13.6609 25.8199 14.3841 27 15.4979 27H25.5021C26.6159 27 27.3391 25.8199 26.8383 24.8195L21.8362 14.8279C21.2836 13.724 19.7164 13.724 19.1638 14.8279ZM21 17.5V22.5C21 22.7761 20.7761 23 20.5 23C20.2239 23 20 22.7761 20 22.5V17.5C20 17.2239 20.2239 17 20.5 17C20.7761 17 21 17.2239 21 17.5ZM20.5 25C20.2239 25 20 24.7761 20 24.5C20 24.2239 20.2239 24 20.5 24C20.7761 24 21 24.2239 21 24.5C21 24.7761 20.7761 25 20.5 25Z" fill="#212121"/>
</svg>
