<svg width="48" height="48" viewBox="0 0 48 48" fill="none" xmlns="http://www.w3.org/2000/svg">
<path d="M12.2499 28C9.90326 28 8.00002 29.9013 8 32.2489L8 33C8 36.7556 9.94167 39.5669 12.9202 41.3802C15.8491 43.1633 19.7861 44 24 44C28.2139 44 32.1509 43.1633 35.0798 41.3802C38.0583 39.5669 40 36.7556 40 33L40 32.2487C40 29.9012 38.0967 28 35.7502 28H12.2499Z" fill="url(#paint0_linear_72095_8742)"/>
<path d="M12.2499 28C9.90326 28 8.00002 29.9013 8 32.2489L8 33C8 36.7556 9.94167 39.5669 12.9202 41.3802C15.8491 43.1633 19.7861 44 24 44C28.2139 44 32.1509 43.1633 35.0798 41.3802C38.0583 39.5669 40 36.7556 40 33L40 32.2487C40 29.9012 38.0967 28 35.7502 28H12.2499Z" fill="url(#paint1_linear_72095_8742)"/>
<path d="M12.2499 28C9.90326 28 8.00002 29.9013 8 32.2489L8 33C8 36.7556 9.94167 39.5669 12.9202 41.3802C15.8491 43.1633 19.7861 44 24 44C28.2139 44 32.1509 43.1633 35.0798 41.3802C38.0583 39.5669 40 36.7556 40 33L40 32.2487C40 29.9012 38.0967 28 35.7502 28H12.2499Z" fill="url(#paint2_radial_72095_8742)" fill-opacity="0.75"/>
<path d="M24 4C18.4772 4 14 8.47715 14 14C14 19.5228 18.4772 24 24 24C29.5228 24 34 19.5228 34 14C34 8.47715 29.5228 4 24 4Z" fill="url(#paint3_linear_72095_8742)"/>
<path d="M43.4939 46H26.4983C24.6397 46 23.4315 44.0398 24.264 42.375L32.7618 25.3821C33.6834 23.5393 36.3088 23.5393 37.2303 25.3821L45.7281 42.375C46.5606 44.0398 45.3525 46 43.4939 46Z" fill="url(#paint4_linear_72095_8742)"/>
<path d="M36.0044 31C36.0044 30.4477 35.5567 30 35.0044 30C34.4521 30 34.0044 30.4477 34.0044 31V37C34.0044 37.5523 34.4521 38 35.0044 38C35.5567 38 36.0044 37.5523 36.0044 37V31ZM35.0044 42.25C35.6948 42.25 36.2544 41.6904 36.2544 41C36.2544 40.3096 35.6948 39.75 35.0044 39.75C34.314 39.75 33.7544 40.3096 33.7544 41C33.7544 41.6904 34.314 42.25 35.0044 42.25Z" fill="url(#paint5_linear_72095_8742)"/>
<defs>
<linearGradient id="paint0_linear_72095_8742" x1="15.6097" y1="30.127" x2="20.779" y2="46.6354" gradientUnits="userSpaceOnUse">
<stop offset="0.125321" stop-color="#9C6CFE"/>
<stop offset="1" stop-color="#7A41DC"/>
</linearGradient>
<linearGradient id="paint1_linear_72095_8742" x1="24" y1="26.0952" x2="31.2381" y2="53.1429" gradientUnits="userSpaceOnUse">
<stop stop-color="#885EDB" stop-opacity="0"/>
<stop offset="1" stop-color="#E362F8"/>
</linearGradient>
<radialGradient id="paint2_radial_72095_8742" cx="0" cy="0" r="1" gradientUnits="userSpaceOnUse" gradientTransform="translate(32 47) rotate(-67.7965) scale(26.4622 13.6303)">
<stop stop-color="#0A1852" stop-opacity="0.75"/>
<stop offset="1" stop-color="#0A1852" stop-opacity="0"/>
</radialGradient>
<linearGradient id="paint3_linear_72095_8742" x1="18.7561" y1="6.65871" x2="28.9488" y2="22.9342" gradientUnits="userSpaceOnUse">
<stop offset="0.125321" stop-color="#9C6CFE"/>
<stop offset="1" stop-color="#7A41DC"/>
</linearGradient>
<linearGradient id="paint4_linear_72095_8742" x1="27.4336" y1="20.5625" x2="41.8711" y2="48.0625" gradientUnits="userSpaceOnUse">
<stop stop-color="#FFCD0F"/>
<stop offset="1" stop-color="#FE8401"/>
</linearGradient>
<linearGradient id="paint5_linear_72095_8742" x1="31.6711" y1="30" x2="37.4795" y2="42.6442" gradientUnits="userSpaceOnUse">
<stop stop-color="#4A4A4A"/>
<stop offset="1" stop-color="#212121"/>
</linearGradient>
</defs>
</svg>
