<svg width="20" height="20" viewBox="0 0 20 20" fill="none" xmlns="http://www.w3.org/2000/svg">
<path d="M8.2051 2.51296C9.36045 2.0686 10.6396 2.0686 11.7949 2.51296L16.0385 4.1451C16.6178 4.36791 17 4.92446 17 5.54512V5.68637C16.8184 5.55019 16.6164 5.43738 16.3974 5.35318L11.4359 3.44489C10.5116 3.0894 9.48836 3.0894 8.56408 3.44489L3.60255 5.35318C3.38361 5.43738 3.18156 5.55019 3 5.68637V5.54512C3 4.92446 3.38224 4.36791 3.96153 4.1451L8.2051 2.51296ZM6.04031 8.3028C6.14909 8.04899 6.44303 7.93141 6.69684 8.04019L9.99988 9.45578L13.3029 8.04019C13.5567 7.93141 13.8507 8.04899 13.9595 8.3028C14.0682 8.55662 13.9507 8.85056 13.6968 8.95933L10.4999 10.3295V13.4998C10.4999 13.7759 10.276 13.9998 9.99988 13.9998C9.72374 13.9998 9.49988 13.7759 9.49988 13.4998V10.3295L6.30292 8.95933C6.04911 8.85056 5.93153 8.55662 6.04031 8.3028ZM8.92306 4.37831C9.61627 4.11169 10.3837 4.11169 11.0769 4.37831L16.0385 6.28659C16.6178 6.50939 17 7.06595 17 7.68661V14.313C17 14.9337 16.6178 15.4902 16.0385 15.713L11.0769 17.6213C10.3837 17.8879 9.61627 17.8879 8.92306 17.6213L3.96153 15.713C3.38224 15.4902 3 14.9337 3 14.313V7.68661C3 7.06595 3.38224 6.50939 3.96153 6.28659L8.92306 4.37831ZM10.718 5.31165C10.2558 5.13391 9.74418 5.13391 9.28204 5.31165L4.32051 7.21993C4.12741 7.2942 4 7.47972 4 7.68661V14.313C4 14.5199 4.12741 14.7054 4.32051 14.7797L9.28204 16.688C9.74418 16.8657 10.2558 16.8657 10.718 16.688L15.6795 14.7797C15.8726 14.7054 16 14.5199 16 14.313V7.68661C16 7.47972 15.8726 7.2942 15.6795 7.21993L10.718 5.31165Z" fill="#212121"/>
</svg>
