<svg width="48" height="48" viewBox="0 0 48 48" fill="none" xmlns="http://www.w3.org/2000/svg">
<path d="M24 4C18.4772 4 14 8.47715 14 14C14 19.5228 18.4772 24 24 24C29.5228 24 34 19.5228 34 14C34 8.47715 29.5228 4 24 4ZM12.2499 28C9.90326 28 8.00002 29.9013 8 32.2489L8 33C8 36.7555 9.94167 39.5669 12.9202 41.3802C15.8491 43.1633 19.7861 44 24 44C24.5318 44 25.0592 43.9867 25.5807 43.9598C23.3619 41.6279 22 38.473 22 35C22 32.4227 22.75 30.0206 24.0437 28H12.2499ZM46 35C46 41.0751 41.0751 46 35 46C28.9249 46 24 41.0751 24 35C24 28.9249 28.9249 24 35 24C41.0751 24 46 28.9249 46 35ZM36.1901 28.4013C35.8155 27.1996 34.1845 27.1996 33.8099 28.4013L32.6163 32.2307H28.7537C27.5415 32.2307 27.0375 33.8477 28.0182 34.5904L31.1431 36.9572L29.9495 40.7866C29.5749 41.9883 30.8944 42.9877 31.8751 42.245L35 39.8783L38.1249 42.245C39.1056 42.9877 40.4251 41.9883 40.0505 40.7866L38.8569 36.9572L41.9818 34.5904C42.9625 33.8477 42.4585 32.2307 41.2463 32.2307H37.3837L36.1901 28.4013Z" fill="#212121"/>
</svg>
