<svg width="16" height="16" viewBox="0 0 16 16" fill="none" xmlns="http://www.w3.org/2000/svg">
<path d="M7.35355 10.3536C7.54882 10.1583 7.54882 9.84171 7.35355 9.64645C7.15829 9.45118 6.84171 9.45118 6.64645 9.64645L5.14645 11.1464C4.95118 11.3417 4.95118 11.6583 5.14645 11.8536C5.34171 12.0488 5.65829 12.0488 5.85355 11.8536L7.35355 10.3536ZM12.95 3.05033C11.5832 1.6835 9.3671 1.6835 8.00026 3.05033L3.05052 8.00008C1.68368 9.36692 1.68368 11.583 3.05052 12.9498C4.41735 14.3167 6.63343 14.3167 8.00026 12.9498L12.95 8.00008C14.3168 6.63325 14.3168 4.41717 12.95 3.05033ZM5.87895 6.58587L9.41448 10.1214L7.29316 12.2427C6.31685 13.219 4.73393 13.219 3.75762 12.2427C2.78131 11.2664 2.78131 9.6835 3.75762 8.70719L5.87895 6.58587ZM12.2429 7.29297L10.1216 9.41429L6.58605 5.87876L8.70737 3.75744C9.68368 2.78113 11.2666 2.78113 12.2429 3.75744C13.2192 4.73375 13.2192 6.31666 12.2429 7.29297Z" fill="#212121"/>
</svg>
