<svg width="20" height="20" viewBox="0 0 20 20" fill="none" xmlns="http://www.w3.org/2000/svg">
<path d="M11.4142 3.63601C11.6095 3.44074 11.6095 3.12416 11.4142 2.9289L9.29289 0.807579C9.09763 0.612317 8.78104 0.612317 8.58578 0.807579C8.39052 1.00284 8.39052 1.31942 8.58578 1.51469L9.58264 2.51154C8.28052 2.58373 6.99298 2.99396 5.8635 3.74216L6.5874 4.46606C7.64915 3.80996 8.85872 3.48807 10.0664 3.50031C10.0915 3.50057 10.1162 3.49897 10.1404 3.49564L8.58578 5.05022C8.39052 5.24548 8.39052 5.56206 8.58578 5.75733C8.78104 5.95259 9.09763 5.95259 9.29289 5.75733L11.4142 3.63601ZM4.35474 5.06184C1.77258 8.00787 1.88657 12.4932 4.69671 15.3033C4.95359 15.5602 5.2247 15.7947 5.50757 16.0068C5.72852 16.1724 6.04191 16.1276 6.20756 15.9066C6.3732 15.6857 6.32838 15.3723 6.10743 15.2067C5.86235 15.0229 5.6271 14.8194 5.40382 14.5962C2.98437 12.1767 2.87098 8.32449 5.06364 5.77075L14.2292 14.9363C12.9974 15.9941 11.464 16.5151 9.9336 16.4996C9.90849 16.4994 9.88379 16.501 9.85963 16.5043L11.4142 14.9497C11.6095 14.7545 11.6095 14.4379 11.4142 14.2426C11.219 14.0474 10.9024 14.0474 10.7071 14.2426L8.58578 16.3639C8.39052 16.5592 8.39052 16.8758 8.58578 17.071L10.7071 19.1924C10.9024 19.3876 11.219 19.3876 11.4142 19.1924C11.6095 18.9971 11.6095 18.6805 11.4142 18.4853L10.4174 17.4884C12.0393 17.3985 13.6387 16.784 14.9381 15.6452L17.1464 17.8536C17.3417 18.0488 17.6583 18.0488 17.8536 17.8536C18.0488 17.6583 18.0488 17.3417 17.8536 17.1464L2.85355 2.14645C2.65829 1.95118 2.34171 1.95118 2.14645 2.14645C1.95118 2.34171 1.95118 2.65829 2.14645 2.85355L4.35474 5.06184ZM15.3033 4.69666C17.869 7.26236 18.1872 11.2245 16.2579 14.1365L15.5339 13.4125C17.0821 10.9066 16.7695 7.57712 14.5962 5.40377C14.3729 5.18049 14.1377 4.97703 13.8926 4.79329C13.6716 4.62764 13.6268 4.31425 13.7924 4.09331C13.9581 3.87236 14.2715 3.82754 14.4924 3.99318C14.7753 4.20526 15.0464 4.43978 15.3033 4.69666Z" fill="#212121"/>
</svg>
