<svg width="20" height="20" viewBox="0 0 20 20" fill="none" xmlns="http://www.w3.org/2000/svg">
<path d="M2.14648 2.14651C2.34174 1.95125 2.65825 1.95125 2.85351 2.14651L17.8535 17.1465C18.0485 17.3418 18.0487 17.6584 17.8535 17.8536C17.6584 18.0487 17.3418 18.0486 17.1465 17.8536L13.293 14H5.46972C4.30741 14 3.29775 13.1985 3.03417 12.0664L2.33593 9.06644C1.9713 7.49883 3.16195 6.00003 4.77148 6.00003H5.29297L2.14648 2.85354C1.95121 2.65828 1.95121 2.34177 2.14648 2.14651ZM15.2315 6.00003C16.8415 6.00026 18.0319 7.5004 17.666 9.06839L16.9658 12.0684C16.8046 12.7589 16.3646 13.324 15.7832 13.6612L15.0342 12.9121C15.5043 12.7445 15.8737 12.3487 15.9922 11.8409L16.6924 8.84085C16.9118 7.90016 16.1974 7.00026 15.2315 7.00003H9.12207L8.12207 6.00003H15.2315ZM4.77148 7.00003C3.80572 7.00003 3.09167 7.89927 3.31054 8.83988L4.00878 11.8399C4.16695 12.5191 4.77235 13 5.46972 13H12.293L8.46777 9.17484C8.39671 9.36423 8.21613 9.49988 8.00195 9.50003C7.72586 9.49999 7.50197 9.27613 7.50195 9.00003C7.50197 8.78605 7.63616 8.60361 7.8252 8.53226L6.29297 7.00003H4.77148ZM7.00195 10.5C7.27791 10.5002 7.50194 10.724 7.50195 11C7.50193 11.276 7.27791 11.4998 7.00195 11.5C6.72586 11.5 6.50197 11.2761 6.50195 11C6.50197 10.7239 6.72586 10.5001 7.00195 10.5ZM9.00195 10.5C9.27792 10.5002 9.50194 10.724 9.50196 11C9.50193 11.276 9.27791 11.4998 9.00195 11.5C8.72586 11.5 8.50197 11.2761 8.50195 11C8.50197 10.7239 8.72586 10.5001 9.00195 10.5ZM6.00195 8.50003C6.27791 8.50023 6.50193 8.72403 6.50195 9.00003C6.50193 9.27603 6.27791 9.49983 6.00195 9.50003C5.72586 9.49999 5.50197 9.27613 5.50195 9.00003C5.50197 8.72393 5.72585 8.50007 6.00195 8.50003ZM12.002 8.50003C12.2779 8.50023 12.5019 8.72403 12.502 9.00003C12.5019 9.27603 12.2779 9.49983 12.002 9.50003C11.7259 9.49999 11.502 9.27613 11.502 9.00003C11.502 8.72393 11.7259 8.50007 12.002 8.50003ZM14.002 8.50003C14.2779 8.50023 14.5019 8.72403 14.502 9.00003C14.5019 9.27603 14.2779 9.49983 14.002 9.50003C13.7259 9.49999 13.502 9.27613 13.502 9.00003C13.502 8.72393 13.7259 8.50007 14.002 8.50003Z" fill="#212121"/>
</svg>
