<svg width="20" height="20" viewBox="0 0 20 20" fill="none" xmlns="http://www.w3.org/2000/svg">
<path d="M5 2C3.34315 2 2 3.34315 2 5V8.5C2 8.77614 2.22386 9 2.5 9C2.77614 9 3 8.77614 3 8.5V5C3 3.89543 3.89543 3 5 3H8.5C8.77614 3 9 2.77614 9 2.5C9 2.22386 8.77614 2 8.5 2H5ZM11.5 2C11.2239 2 11 2.22386 11 2.5C11 2.77614 11.2239 3 11.5 3H15C16.1046 3 17 3.89543 17 5V8.5C17 8.77614 17.2239 9 17.5 9C17.7761 9 18 8.77614 18 8.5V5C18 3.34315 16.6569 2 15 2H11.5ZM18 11.5C18 11.2239 17.7761 11 17.5 11C17.2239 11 17 11.2239 17 11.5V15C17 16.1046 16.1046 17 15 17H11.5C11.2239 17 11 17.2239 11 17.5C11 17.7761 11.2239 18 11.5 18H15C16.6569 18 18 16.6569 18 15V11.5ZM3.5 10C2.11929 10 1 11.1193 1 12.5V16.5C1 17.8807 2.11929 19 3.5 19H7.5C8.88071 19 10 17.8807 10 16.5V12.5C10 11.1193 8.88071 10 7.5 10H3.5ZM4.22361 12.5528L7.22361 14.0528C7.393 14.1375 7.5 14.3106 7.5 14.5C7.5 14.6894 7.393 14.8625 7.22361 14.9472L4.22361 16.4472C4.06861 16.5247 3.88454 16.5164 3.73713 16.4253C3.58973 16.3342 3.5 16.1733 3.5 16V13C3.5 12.8267 3.58973 12.6658 3.73713 12.5747C3.88454 12.4836 4.06861 12.4753 4.22361 12.5528Z" fill="#212121"/>
</svg>
