<svg width="20" height="20" viewBox="0 0 20 20" fill="none" xmlns="http://www.w3.org/2000/svg">
<path d="M14.8536 2.14645C14.6583 1.95118 14.3417 1.95118 14.1464 2.14645C13.9512 2.34171 13.9512 2.65829 14.1464 2.85355L15.2929 4H4C2.89543 4 2 4.89543 2 6V12.5C2 12.7761 2.22386 13 2.5 13C2.77614 13 3 12.7761 3 12.5V6C3 5.44772 3.44772 5 4 5H15.2929L14.1464 6.14645C13.9512 6.34171 13.9512 6.65829 14.1464 6.85355C14.3417 7.04882 14.6583 7.04882 14.8536 6.85355L16.8536 4.85355C17.0488 4.65829 17.0488 4.34171 16.8536 4.14645L14.8536 2.14645ZM16 15C16.5523 15 17 14.5523 17 14V7.5C17 7.22386 17.2239 7 17.5 7C17.7761 7 18 7.22386 18 7.5V14C18 15.1046 17.1046 16 16 16H4.70711L5.85355 17.1464C6.04882 17.3417 6.04882 17.6583 5.85355 17.8536C5.65829 18.0488 5.34171 18.0488 5.14645 17.8536L3.14645 15.8536C2.95118 15.6583 2.95118 15.3417 3.14645 15.1464L5.14645 13.1464C5.34171 12.9512 5.65829 12.9512 5.85355 13.1464C6.04882 13.3417 6.04882 13.6583 5.85355 13.8536L4.70711 15H16ZM13 10C13 11.6569 11.6569 13 10 13C8.34315 13 7 11.6569 7 10C7 8.34315 8.34315 7 10 7C11.6569 7 13 8.34315 13 10ZM12 10C12 8.89543 11.1046 8 10 8C8.89543 8 8 8.89543 8 10C8 11.1046 8.89543 12 10 12C11.1046 12 12 11.1046 12 10Z" fill="#212121"/>
</svg>
