<svg width="24" height="24" viewBox="0 0 24 24" fill="none" xmlns="http://www.w3.org/2000/svg">
<path d="M17.5 2.75C17.5 2.33579 17.1642 2 16.75 2C16.3358 2 16 2.33579 16 2.75V6.76477C13.974 5.40741 11.1329 5.88353 9.70653 7.97968L2.35306 18.7861C1.79669 19.6038 1.90361 20.6966 2.60816 21.3936C3.32281 22.1005 4.44736 22.1979 5.27537 21.6247L16.0644 14.1552C18.1214 12.7311 18.5757 9.97752 17.2407 8H21.25C21.6642 8 22 7.66421 22 7.25C22 6.83579 21.6642 6.5 21.25 6.5H18.5603L21.7806 3.28038C22.0735 2.98752 22.0736 2.51265 21.7807 2.21972C21.4879 1.9268 21.013 1.92675 20.7201 2.21962L17.5 5.43904V2.75Z" fill="#212121"/>
</svg>
