<svg width="24" height="24" viewBox="0 0 24 24" fill="none" xmlns="http://www.w3.org/2000/svg">
<path d="M3 3.75C3 3.33579 3.33579 3 3.75 3C4.16421 3 4.5 3.33579 4.5 3.75V19.5H20.25C20.6642 19.5 21 19.8358 21 20.25C21 20.6642 20.6642 21 20.25 21H3.75C3.33579 21 3 20.6642 3 20.25V3.75Z" fill="#212121"/>
<path d="M14 7C14 5.34315 15.3431 4 17 4C18.6569 4 20 5.34315 20 7C20 8.65685 18.6569 10 17 10C15.3431 10 14 8.65685 14 7Z" fill="#212121"/>
<path d="M9 6C7.34315 6 6 7.34315 6 9C6 10.6569 7.34315 12 9 12C10.6569 12 12 10.6569 12 9C12 7.34315 10.6569 6 9 6Z" fill="#212121"/>
<path d="M15 12C13.3431 12 12 13.3431 12 15C12 16.6569 13.3431 18 15 18C16.6569 18 18 16.6569 18 15C18 13.3431 16.6569 12 15 12Z" fill="#212121"/>
</svg>
