<svg width="16" height="16" viewBox="0 0 16 16" fill="none" xmlns="http://www.w3.org/2000/svg">
<path d="M1.5 2.99988C1.77614 2.99988 2 3.22374 2 3.49988V11.9999C2 12.276 1.77614 12.4999 1.5 12.4999C1.22386 12.4999 1 12.276 1 11.9999V3.49988C1 3.22374 1.22386 2.99988 1.5 2.99988ZM10.6464 3.64632C10.8417 3.45106 11.1583 3.45106 11.3536 3.64632L14.8536 7.14632C15.0488 7.34159 15.0488 7.65817 14.8536 7.85343L11.3536 11.3534C11.1583 11.5487 10.8417 11.5487 10.6464 11.3534C10.4512 11.1582 10.4512 10.8416 10.6464 10.6463L13.2929 7.99988H4.5C4.22386 7.99988 4 7.77602 4 7.49988C4 7.22374 4.22386 6.99988 4.5 6.99988H13.2929L10.6464 4.35343C10.4512 4.15817 10.4512 3.84159 10.6464 3.64632Z" fill="#212121"/>
</svg>
