<svg width="32" height="32" viewBox="0 0 32 32" fill="none" xmlns="http://www.w3.org/2000/svg">
<path d="M3.25 4.5C3.94036 4.5 4.5 5.05964 4.5 5.75V25.75C4.5 26.4404 3.94036 27 3.25 27C2.55964 27 2 26.4404 2 25.75V5.75C2 5.05964 2.55964 4.5 3.25 4.5ZM20.3662 7.36621C20.8544 6.87807 21.6456 6.87806 22.1338 7.36621L29.6338 14.8662C30.1219 15.3544 30.1219 16.1456 29.6338 16.6338L22.1338 24.1338C21.6456 24.6219 20.8544 24.6219 20.3662 24.1338C19.8781 23.6456 19.8781 22.8544 20.3662 22.3662L25.7324 17H8.25C7.55964 17 7 16.4404 7 15.75C7.00002 15.0597 7.55965 14.5 8.25 14.5H25.7324L20.3662 9.13379C19.8781 8.64563 19.8781 7.85437 20.3662 7.36621Z" fill="black" fill-opacity="0.858824"/>
</svg>
