<svg width="28" height="28" viewBox="0 0 28 28" fill="none" xmlns="http://www.w3.org/2000/svg">
<path d="M3 5C3.55228 5 4 5.44772 4 6V22C4 22.5523 3.55228 23 3 23C2.44772 23 2 22.5523 2 22V6C2 5.44772 2.44772 5 3 5ZM17.793 6.79297C18.1835 6.40246 18.8165 6.40247 19.207 6.79297L25.707 13.293C26.0975 13.6835 26.0975 14.3165 25.707 14.707L19.207 21.207C18.8165 21.5976 18.1835 21.5976 17.793 21.207C17.4025 20.8165 17.4024 20.1835 17.793 19.793L22.5859 15H7C6.44772 15 6 14.5523 6 14C6.00002 13.4477 6.44773 13 7 13H22.5859L17.793 8.20703C17.4025 7.81651 17.4024 7.18349 17.793 6.79297Z" fill="black" fill-opacity="0.858824"/>
</svg>
