<svg width="16" height="16" viewBox="0 0 16 16" fill="none" xmlns="http://www.w3.org/2000/svg">
<path d="M11.5 7C13.9853 7 16 9.01472 16 11.5C16 13.9853 13.9853 16 11.5 16C9.01472 16 7 13.9853 7 11.5C7 9.01472 9.01472 7 11.5 7ZM11 1C12.1046 1 13 1.89543 13 3V6.20801C12.5231 6.0731 12.0201 6 11.5 6C8.46243 6 6 8.46243 6 11.5C6 12.8298 6.47231 14.049 7.25781 15H5C3.89543 15 3 14.1046 3 13V3C3 1.89543 3.89543 1 5 1H11ZM11.5 9C11.2239 9 11 9.22386 11 9.5V11H9.5C9.22386 11 9 11.2239 9 11.5C9 11.7761 9.22386 12 9.5 12H11V13.5C11 13.7761 11.2239 14 11.5 14C11.7761 14 12 13.7761 12 13.5V12H13.5C13.7761 12 14 11.7761 14 11.5C14 11.2239 13.7761 11 13.5 11H12V9.5C12 9.22386 11.7761 9 11.5 9ZM6 7C5.44772 7 5 7.44772 5 8C5 8.55229 5.44772 9 6 9C6.55228 9 7 8.55229 7 8C7 7.44772 6.55228 7 6 7Z" fill="#212121"/>
</svg>
