<svg width="21" height="20" viewBox="0 0 21 20" fill="none" xmlns="http://www.w3.org/2000/svg">
<path d="M19.416 5.5C19.416 7.98528 17.4013 10 14.916 10C12.4307 10 10.416 7.98528 10.416 5.5C10.416 3.01472 12.4307 1 14.916 1C17.4013 1 19.416 3.01472 19.416 5.5ZM16.7696 4.35355C16.9648 4.15829 16.9648 3.84171 16.7696 3.64645C16.5743 3.45118 16.2577 3.45118 16.0625 3.64645L14.916 4.79289L13.7696 3.64645C13.5743 3.45118 13.2577 3.45118 13.0625 3.64645C12.8672 3.84171 12.8672 4.15829 13.0625 4.35355L14.2089 5.5L13.0625 6.64645C12.8672 6.84171 12.8672 7.15829 13.0625 7.35355C13.2577 7.54882 13.5743 7.54882 13.7696 7.35355L14.916 6.20711L16.0625 7.35355C16.2577 7.54882 16.5743 7.54882 16.7696 7.35355C16.9648 7.15829 16.9648 6.84171 16.7696 6.64645L15.6231 5.5L16.7696 4.35355ZM16.416 11V10.793C16.7647 10.6944 17.0992 10.5622 17.416 10.4003V11C17.416 12.6569 16.0729 14 14.416 14H10.916V16H12.916C13.1922 16 13.416 16.2239 13.416 16.5C13.416 16.7761 13.1922 17 12.916 17H7.91602C7.63987 17 7.41602 16.7761 7.41602 16.5C7.41602 16.2239 7.63987 16 7.91602 16H9.91602V14H6.41602C4.75916 14 3.41602 12.6569 3.41602 11V5C2.86373 5 2.41602 4.55228 2.41602 4C2.41602 3.44772 2.86373 3 3.41602 3H10.0157C9.70408 3.60964 9.50286 4.2851 9.43844 5H4.41602V11C4.41602 12.1046 5.31145 13 6.41602 13H14.416C15.5206 13 16.416 12.1046 16.416 11Z" fill="#212121"/>
</svg>
