<svg width="20" height="20" viewBox="0 0 20 20" fill="none" xmlns="http://www.w3.org/2000/svg">
<path d="M3.5 18C3.22386 18 3 17.7761 3 17.5V2.5C3 2.22386 3.22386 2 3.5 2C3.77614 2 4 2.22386 4 2.5V17.5C4 17.7761 3.77614 18 3.5 18Z" fill="#212121"/>
<path d="M16 17.5C16 17.7761 16.2239 18 16.5 18C16.7761 18 17 17.7761 17 17.5V2.5C17 2.22386 16.7761 2 16.5 2C16.2239 2 16 2.22386 16 2.5V17.5Z" fill="#212121"/>
<path d="M9 4C7.89543 4 7 4.89543 7 6V14C7 15.1046 7.89543 16 9 16H11C12.1046 16 13 15.1046 13 14V6C13 4.89543 12.1046 4 11 4H9Z" fill="#212121"/>
</svg>
