<svg width="21" height="20" viewBox="0 0 21 20" fill="none" xmlns="http://www.w3.org/2000/svg">
<path d="M9.41602 2C7.20688 2 5.41602 3.79086 5.41602 6C5.41602 8.20914 7.20688 10 9.41602 10C11.6252 10 13.416 8.20914 13.416 6C13.416 3.79086 11.6252 2 9.41602 2ZM4.42474 11C3.31917 11 2.41602 11.8869 2.41602 13C2.41602 14.6912 3.24883 15.9663 4.55101 16.7966C5.83298 17.614 7.56127 18 9.41602 18C10.2959 18 11.1474 17.9131 11.9362 17.7345C11.8762 17.3019 11.9515 16.8523 12.1642 16.4582L12.1764 16.4356L12.2591 16.2995L12.8457 15.4376C13.2901 14.7847 14.0778 14.4469 14.8621 14.614L14.8896 14.6199L15.0443 14.6621L15.5775 14.8399C15.7337 14.6721 15.8748 14.4811 16.0007 14.2646C16.1258 14.0495 16.2174 13.8408 16.2801 13.6376L15.8008 13.1827C15.2497 12.6597 15.0493 11.8805 15.2295 11.1724C14.981 11.0616 14.7057 11 14.4161 11L4.42474 11ZM16.2505 11.2649L16.6497 10.3236C16.8369 9.88219 17.2853 9.64207 17.7251 9.73369L17.8191 9.75845L18.319 9.91817C18.8146 10.0765 19.1941 10.5011 19.3167 11.0343C19.608 12.3013 19.2585 13.8439 18.2682 15.6622C17.2794 17.4777 16.1956 18.5694 15.0169 18.9371C14.5592 19.0798 14.0675 18.9761 13.6977 18.6656L13.5999 18.5758L13.2203 18.1947C12.8913 17.8644 12.8236 17.3419 13.0441 16.9331L13.1002 16.8409L13.6723 16.0003C13.8975 15.6695 14.2826 15.513 14.6537 15.5921L14.7544 15.6195L15.8107 15.9718C16.2323 15.6528 16.5837 15.2513 16.8652 14.7673C17.1064 14.3524 17.2641 13.9319 17.3385 13.5057L17.3687 13.2922L16.4892 12.4574C16.1995 12.1824 16.0942 11.7542 16.2127 11.3688L16.2505 11.2649Z" fill="#212121"/>
</svg>
