<svg width="28" height="28" viewBox="0 0 28 28" fill="none" xmlns="http://www.w3.org/2000/svg">
<path d="M21.3335 3.12824C21.6769 3.35986 21.7675 3.82601 21.5358 4.16941L7.70929 24.6681C7.47766 25.0115 7.01151 25.1021 6.66812 24.8705C6.32472 24.6389 6.23411 24.1727 6.46573 23.8293L20.2923 3.33062C20.5239 2.98722 20.9901 2.89661 21.3335 3.12824ZM7.5 4.50002C5.567 4.50002 4 6.06702 4 8.00002C4 9.93301 5.567 11.5 7.5 11.5C9.433 11.5 11 9.93301 11 8.00002C11 6.06702 9.433 4.50002 7.5 4.50002ZM2.5 8.00002C2.5 5.23859 4.73858 3.00002 7.5 3.00002C10.2614 3.00002 12.5 5.23859 12.5 8.00002C12.5 10.7614 10.2614 13 7.5 13C4.73858 13 2.5 10.7614 2.5 8.00002ZM17 20C17 18.067 18.567 16.5 20.5 16.5C22.433 16.5 24 18.067 24 20C24 21.933 22.433 23.5 20.5 23.5C18.567 23.5 17 21.933 17 20ZM20.5 15C17.7386 15 15.5 17.2386 15.5 20C15.5 22.7614 17.7386 25 20.5 25C23.2614 25 25.5 22.7614 25.5 20C25.5 17.2386 23.2614 15 20.5 15Z" fill="#212121"/>
</svg>
