<svg width="16" height="16" viewBox="0 0 16 16" fill="none" xmlns="http://www.w3.org/2000/svg">
<path d="M9.647 1.43998L12.561 4.35398L12.562 4.35298C12.843 4.63498 13.001 5.01598 13.001 5.41398V13C13.001 14.105 12.106 15 11.001 15H7.258C7.30157 14.9658 7.34622 14.933 7.39084 14.9003C7.48858 14.8285 7.58618 14.7568 7.672 14.671C7.875 14.468 8.046 14.237 8.206 14H11.001C11.553 14 12.001 13.552 12.001 13V5.99998H9.501C8.673 5.99998 8.001 5.32798 8.001 4.49998V1.99998H5.001C4.449 1.99998 4.001 2.44798 4.001 2.99998V6.09198C3.793 6.16498 3.6 6.27998 3.44 6.43998C3.212 6.66798 3.066 6.95698 3.018 7.26898C3.01417 7.27007 3.01094 7.27176 3.00782 7.2734C3.00523 7.27475 3.00272 7.27607 3 7.27698V3.00098C3 1.89598 3.895 1.00098 5 1.00098H8.586C8.984 1.00098 9.366 1.15898 9.647 1.43998ZM9 4.49998C9 4.77598 9.224 4.99998 9.5 4.99998H11.793L9 2.20698V4.49998ZM4.5 12.5C4.698 12.5 4.891 12.442 5.056 12.332C5.22 12.222 5.348 12.066 5.424 11.883C5.5 11.7 5.52 11.499 5.481 11.305C5.442 11.111 5.347 10.933 5.207 10.793C5.067 10.653 4.889 10.557 4.695 10.519C4.501 10.481 4.3 10.5 4.117 10.576C3.934 10.651 3.778 10.78 3.668 10.944C3.559 11.109 3.5 11.302 3.5 11.5C3.5 11.765 3.606 12.019 3.793 12.207C3.98 12.395 4.235 12.5 4.5 12.5ZM8.5 11H7.949C7.841 10.256 7.495 9.567 6.964 9.036C6.433 8.505 5.744 8.159 5 8.051V7.5C5 7.367 4.948 7.24 4.854 7.146C4.76 7.053 4.633 7 4.5 7C4.367 7 4.24 7.052 4.146 7.146C4.053 7.24 4 7.367 4 7.5V8.051C3.256 8.159 2.567 8.505 2.036 9.036C1.505 9.567 1.159 10.256 1.051 11H0.5C0.367 11 0.24 11.052 0.146 11.146C0.053 11.24 0 11.367 0 11.5C0 11.633 0.052 11.76 0.146 11.854C0.24 11.947 0.367 12 0.5 12H1.051C1.159 12.744 1.505 13.433 2.036 13.964C2.567 14.495 3.256 14.841 4 14.949V15.5C4 15.633 4.052 15.76 4.146 15.854C4.24 15.947 4.367 16 4.5 16C4.633 16 4.76 15.948 4.854 15.854C4.947 15.76 5 15.633 5 15.5V14.949C5.744 14.841 6.433 14.495 6.964 13.964C7.495 13.433 7.841 12.744 7.949 12H8.5C8.633 12 8.76 11.948 8.854 11.854C8.947 11.76 9 11.633 9 11.5C9 11.367 8.948 11.24 8.854 11.146C8.76 11.053 8.633 11 8.5 11ZM6.268 13.268C5.859 13.677 5.321 13.931 4.745 13.988C4.169 14.045 3.593 13.9 3.112 13.579C2.631 13.258 2.276 12.78 2.108 12.226C1.94 11.673 1.969 11.078 2.19 10.544C2.411 10.01 2.811 9.569 3.321 9.296C3.831 9.023 4.42 8.935 4.987 9.048C5.554 9.161 6.065 9.467 6.432 9.914C6.799 10.361 7 10.922 7 11.5C7 11.829 6.935 12.154 6.81 12.457C6.684 12.76 6.5 13.036 6.268 13.268Z" fill="#212121"/>
</svg>
