<svg width="48" height="48" viewBox="0 0 48 48" fill="none" xmlns="http://www.w3.org/2000/svg">
<path d="M4 7.25C4 5.45507 5.45507 4 7.25 4H40.75C42.5449 4 44 5.45507 44 7.25C44 9.04493 42.5449 10.5 40.75 10.5H7.25C5.45508 10.5 4 9.04493 4 7.25ZM24 18.5C19.3056 18.5 15.5 22.3056 15.5 27C15.5 31.6944 19.3056 35.5 24 35.5C28.6944 35.5 32.5 31.6944 32.5 27C32.5 22.3056 28.6944 18.5 24 18.5ZM24 21C27.3137 21 30 23.6863 30 27C30 30.3137 27.3137 33 24 33C20.6863 33 18 30.3137 18 27C18 23.6863 20.6863 21 24 21ZM42 13H6V26C6 35.9411 14.0589 44 24 44C33.9411 44 42 35.9411 42 26V13ZM13 27C13 20.9249 17.9249 16 24 16C30.0751 16 35 20.9249 35 27C35 33.0751 30.0751 38 24 38C17.9249 38 13 33.0751 13 27Z" fill="#212121"/>
</svg>
