<svg width="16" height="16" viewBox="0 0 16 16" fill="none" xmlns="http://www.w3.org/2000/svg">
<path d="M4 3.5C4 3.22386 4.22386 3 4.5 3H11.5C11.7761 3 12 3.22386 12 3.5V4.5C12 4.77614 11.7761 5 11.5 5C11.2239 5 11 4.77614 11 4.5V4H8.5V12H9C9.27614 12 9.5 12.2239 9.5 12.5C9.5 12.7761 9.27614 13 9 13H7C6.72386 13 6.5 12.7761 6.5 12.5C6.5 12.2239 6.72386 12 7 12H7.5V4H5V4.5C5 4.77614 4.77614 5 4.5 5C4.22386 5 4 4.77614 4 4.5V3.5ZM4.35355 6.64645C4.54882 6.84171 4.54882 7.15829 4.35355 7.35355L2.20711 9.5L4.35355 11.6464C4.54882 11.8417 4.54882 12.1583 4.35355 12.3536C4.15829 12.5488 3.84171 12.5488 3.64645 12.3536L1.14645 9.85355C0.951184 9.65829 0.951184 9.34171 1.14645 9.14645L3.64645 6.64645C3.84171 6.45118 4.15829 6.45118 4.35355 6.64645ZM14.8536 9.14645L12.3536 6.64645C12.1583 6.45118 11.8417 6.45118 11.6464 6.64645C11.4512 6.84171 11.4512 7.15829 11.6464 7.35355L13.7929 9.5L11.6464 11.6464C11.4512 11.8417 11.4512 12.1583 11.6464 12.3536C11.8417 12.5488 12.1583 12.5488 12.3536 12.3536L14.8536 9.85355C15.0488 9.65829 15.0488 9.34171 14.8536 9.14645Z" fill="#212121"/>
</svg>
