<svg width="24" height="24" viewBox="0 0 24 24" fill="none" xmlns="http://www.w3.org/2000/svg">
<path d="M17.5 12C20.5376 12 23 14.4624 23 17.5C23 20.5376 20.5376 23 17.5 23C14.4624 23 12 20.5376 12 17.5C12 14.4624 14.4624 12 17.5 12ZM21 8.5L21.0012 12.0226C19.9907 11.3753 18.7892 11 17.5 11C13.9101 11 11 13.9101 11 17.5C11 18.7892 11.3753 19.9907 12.0226 21.0012L6.25 21C4.45507 21 3 19.5449 3 17.75V8.5H21ZM16.984 14.0455L16.9446 14.1441L16.3876 15.9311H14.5851C14.0527 15.9311 13.813 16.5995 14.1682 16.9671L14.2418 17.0323L15.7001 18.1368L15.1431 19.9238C14.978 20.4535 15.5181 20.8989 15.9641 20.6548L16.0417 20.6044L17.5 19.5L18.9583 20.6044C19.3905 20.9318 19.9638 20.534 19.8789 20.0163L19.8569 19.9238L19.2999 18.1368L20.7582 17.0323C21.1889 16.7061 21.0059 16.0185 20.5113 15.9387L20.4149 15.9311H18.6124L18.0554 14.1441C17.8915 13.6183 17.2123 13.5854 16.984 14.0455ZM17.75 3C19.5449 3 21 4.45507 21 6.25V7H3V6.25C3 4.45507 4.45507 3 6.25 3H17.75Z" fill="#212121"/>
</svg>
