<svg width="32" height="32" viewBox="0 0 32 32" fill="none" xmlns="http://www.w3.org/2000/svg">
<path d="M26 5.75C27.1743 6.23986 28 7.39815 28 8.75V23.25C28 26.9779 24.9779 30 21.25 30H10.75C9.39815 30 8.23986 29.1743 7.75 28H21.25C23.8734 28 26 25.8734 26 23.25V5.75ZM21.25 2C23.0449 2 24.5 3.45507 24.5 5.25V23.25C24.5 25.0449 23.0449 26.5 21.25 26.5H7.25C5.45507 26.5 4 25.0449 4 23.25V5.25C4 3.45507 5.45507 2 7.25 2H21.25ZM9.5 19C8.94772 19 8.5 19.4477 8.5 20C8.5 20.5523 8.94772 21 9.5 21H19C19.5523 21 20 20.5523 20 20C20 19.4477 19.5523 19 19 19H9.5ZM9.5 13C8.94772 13 8.5 13.4477 8.5 14C8.5 14.5523 8.94772 15 9.5 15H19C19.5523 15 20 14.5523 20 14C20 13.4477 19.5523 13 19 13H9.5ZM9.5 7C8.94772 7 8.5 7.44772 8.5 8C8.5 8.55228 8.94772 9 9.5 9H19C19.5523 9 20 8.55228 20 8C20 7.44772 19.5523 7 19 7H9.5Z" fill="#212121"/>
</svg>
