<svg width="20" height="20" viewBox="0 0 20 20" fill="none" xmlns="http://www.w3.org/2000/svg">
<path d="M12 5.5C12 5.74546 11.8231 5.94961 11.5899 5.99194L11.5 6H7.5C7.22386 6 7 5.77614 7 5.5C7 5.25454 7.17688 5.05039 7.41012 5.00806L7.5 5H11.5C11.7761 5 12 5.22386 12 5.5ZM12 9C12 9.24546 11.8231 9.44961 11.5899 9.49194L11.5 9.5H7.5C7.22386 9.5 7 9.27614 7 9C7 8.75454 7.17688 8.55039 7.41012 8.50806L7.5 8.5H11.5C11.7761 8.5 12 8.72386 12 9ZM12 12.5C12 12.7455 11.8231 12.9496 11.5899 12.9919L11.5 13H7.5C7.22386 13 7 12.7761 7 12.5C7 12.2545 7.17688 12.0504 7.41012 12.0081L7.5 12H11.5C11.7761 12 12 12.2239 12 12.5ZM6 2C4.96447 2 4.11275 2.787 4.01033 3.79551C4.0035 3.86275 4 3.93097 4 4V14C4 15.1046 4.89543 16 6 16H13C14.1046 16 15 15.1046 15 14L15 4C15 2.89543 14.1046 2 13 2H6ZM5 14V4C5 3.96262 5.00205 3.92573 5.00605 3.88941C5.06108 3.38917 5.48509 3 6 3H13C13.5523 3 14 3.44772 14 4L14 14C14 14.5523 13.5523 15 13 15H6C5.44772 15 5 14.5523 5 14ZM16 8C16.5523 8 17 8.44772 17 9V14.0606C17 16.2363 15.2363 18 13.0606 18H7C6.44772 18 6 17.5523 6 17H13C14.6569 17 16 15.6569 16 14V8Z" fill="#212121"/>
</svg>
