<?xml version="1.0" encoding="UTF-8"?>
<svg width="20px" height="20px" viewBox="0 0 20 20" version="1.1" xmlns="http://www.w3.org/2000/svg" xmlns:xlink="http://www.w3.org/1999/xlink">
    <!-- Generator: Sketch 61.2 (89653) - https://sketch.com -->
    <title>ic_fluent_wifi_1_20_regular</title>
    <desc>Created with Sketch.</desc>
    <g id="ðŸ”-Product-Icons" stroke="none" stroke-width="1" fill="none" fill-rule="evenodd">
        <g id="ic_fluent_wifi_1_20_regular" fill="#212121" fill-rule="nonzero">
            <path d="M16.832218,7.38330683 C17.2416108,7.79269961 17.6284701,8.26079584 17.9652382,8.74874308 C18.1220931,8.97601198 18.0650112,9.28740584 17.8377423,9.44426073 C17.6104734,9.60111563 17.2990796,9.54403379 17.1422247,9.31676489 C16.839067,8.87751614 16.4907339,8.45603626 16.1251112,8.09041361 C12.7620463,4.72734866 7.30944068,4.72734866 3.94637573,8.09041361 C3.59813553,8.4386538 3.25354806,8.86000405 2.93936282,9.31289232 C2.78196071,9.53978257 2.4704302,9.59611384 2.24353995,9.43871174 C2.01664969,9.28130963 1.96031842,8.96977912 2.11772053,8.74288886 C2.46418773,8.24346714 2.84610713,7.77646865 3.23926895,7.38330683 C6.99285819,3.62971759 13.0786288,3.62971759 16.832218,7.38330683 Z M14.5965465,9.35674671 C15.068877,9.82907725 15.4783451,10.4027967 15.7903483,11.0128013 C15.9160951,11.2586516 15.8187319,11.5598905 15.5728816,11.6856373 C15.3270313,11.811384 15.0257924,11.7140208 14.9000456,11.4681705 C14.634261,10.9485289 14.2856136,10.4600274 13.8894397,10.0638535 C11.7611021,7.93551584 8.31038492,7.93551584 6.18204727,10.0638535 C5.76867393,10.4772268 5.4327165,10.9422331 5.17410658,11.453509 C5.04946739,11.6999227 4.74866964,11.7986404 4.502256,11.6740012 C4.25584235,11.549362 4.15712464,11.2485643 4.28176382,11.0021506 C4.58800448,10.396708 4.98638057,9.84530663 5.47494048,9.35674671 C7.99380243,6.83788477 12.0776845,6.83788477 14.5965465,9.35674671 Z M12.8875724,11.8539052 C13.2418386,12.2081714 13.5337692,12.6439855 13.7369294,13.1076076 C13.8477616,13.3605322 13.7325729,13.6554153 13.4796483,13.7662474 C13.2267237,13.8770795 12.9318406,13.7618908 12.8210085,13.5089662 C12.6666514,13.1567156 12.4444467,12.824993 12.1804656,12.561012 C10.9959683,11.3765146 9.07551867,11.3765146 7.89102133,12.561012 C7.62832082,12.8237125 7.41551425,13.1429433 7.25996033,13.4984467 C7.14926461,13.7514311 6.85444368,13.8667788 6.60145936,13.756083 C6.34847503,13.6453873 6.23312733,13.3505664 6.34382305,13.0975821 C6.5479565,12.6310549 6.83028402,12.2075357 7.18391455,11.8539052 C8.75893618,10.2788835 11.3125508,10.2788835 12.8875724,11.8539052 Z M10.9629032,13.7865336 C11.4699685,14.2935989 11.4699685,15.1157143 10.9629032,15.6227797 C10.4558378,16.1298451 9.63372238,16.1298451 9.12665701,15.6227797 C8.61959163,15.1157143 8.61959163,14.2935989 9.12665701,13.7865336 C9.63372238,13.2794682 10.4558378,13.2794682 10.9629032,13.7865336 Z" id="ðŸŽ¨-Color"></path>
        </g>
    </g>
</svg>