<svg width="20" height="20" viewBox="0 0 20 20" fill="none" xmlns="http://www.w3.org/2000/svg">
<path d="M11.2999 2.48129C10.4654 2.14751 9.53457 2.14751 8.70013 2.48129L2.94291 4.78418C2.37343 5.01197 2 5.56353 2 6.17689V13.8228C2 14.4362 2.37343 14.9877 2.94291 15.2155L8.70013 17.5184C8.79983 17.5583 8.9009 17.5934 9.00301 17.6238C9.00101 17.5828 9 17.5415 9 17.5V16.5613L3.3143 14.2871C3.12448 14.2111 3 14.0273 3 13.8228V6.23834L9.50015 8.8384V11.9996C9.75797 11.6565 10.102 11.3819 10.5001 11.208V8.8384L17 6.23846V9.49982C17.4911 9.86866 17.8419 10.4141 17.9581 11.0419C17.9721 11.0445 17.9861 11.0472 18 11.05V6.17689C18 5.56353 17.6266 5.01197 17.0571 4.78418L11.2999 2.48129ZM9.07152 3.40977C9.66755 3.17135 10.3324 3.17135 10.9285 3.40977L16.1538 5.4999L13.8751 6.41137L7.72133 3.94984L9.07152 3.40977ZM6.37504 4.48836L12.5289 6.94988L10.0001 7.96137L3.84633 5.49984L6.37504 4.48836ZM12 12V11.5C12 10.6716 12.6716 10 13.5 10H15.5C16.3284 10 17 10.6716 17 11.5V12H17.5C18.3284 12 19 12.6716 19 13.5V15H17V14.5C17 14.2239 16.7761 14 16.5 14C16.2239 14 16 14.2239 16 14.5V15H13V14.5C13 14.2239 12.7761 14 12.5 14C12.2239 14 12 14.2239 12 14.5V15H10V13.5C10 12.6716 10.6716 12 11.5 12H12ZM15.5 11H13.5C13.2239 11 13 11.2239 13 11.5V12H16V11.5C16 11.2239 15.7761 11 15.5 11ZM17 16.5V16H19V17.5C19 18.3284 18.3284 19 17.5 19H11.5C10.6716 19 10 18.3284 10 17.5V16H12V16.5C12 16.7761 12.2239 17 12.5 17C12.7761 17 13 16.7761 13 16.5V16H16V16.5C16 16.7761 16.2239 17 16.5 17C16.7761 17 17 16.7761 17 16.5Z" fill="#212121"/>
</svg>
