<svg width="28" height="28" viewBox="0 0 28 28" fill="none" xmlns="http://www.w3.org/2000/svg">
<path d="M3.09835 16.6514C1.63388 15.187 1.63388 12.8126 3.09835 11.3481L11.3482 3.09835C12.8126 1.63388 15.187 1.63388 16.6515 3.09835L24.9013 11.3482C26.3657 12.8126 26.3657 15.187 24.9013 16.6515L16.6514 24.9013C15.187 26.3657 12.8126 26.3657 11.3481 24.9012L3.09835 16.6514ZM15.7803 8.21967C15.4874 7.92678 15.0126 7.92678 14.7197 8.21967C14.4268 8.51256 14.4268 8.98744 14.7197 9.28033L15.9393 10.5H14.25C12.1789 10.5 10.5 12.1789 10.5 14.25V18.25C10.5 18.6642 10.8358 19 11.25 19C11.6642 19 12 18.6642 12 18.25V14.25C12 13.0074 13.0074 12 14.25 12H15.9393L14.7197 13.2197C14.4268 13.5126 14.4268 13.9874 14.7197 14.2803C15.0126 14.5732 15.4874 14.5732 15.7803 14.2803L18.2803 11.7803C18.5732 11.4874 18.5732 11.0126 18.2803 10.7197L15.7803 8.21967Z" fill="#212121"/>
</svg>
