<svg width="48" height="48" viewBox="0 0 48 48" fill="none" xmlns="http://www.w3.org/2000/svg">
<path d="M7 10C6.44772 10 6 9.55228 6 9C6 8.44772 6.44772 8 7 8C7.55228 8 8 8.44772 8 9C8 9.55228 7.55228 10 7 10ZM7 13C9.20914 13 11 11.2091 11 9C11 6.79086 9.20914 5 7 5C4.79086 5 3 6.79086 3 9C3 11.2091 4.79086 13 7 13ZM22.5 6C17.8056 6 14 9.80558 14 14.5C14 15.3284 14.6716 16 15.5 16C16.3284 16 17 15.3284 17 14.5C17 11.4624 19.4624 9 22.5 9C25.5376 9 28 11.4624 28 14.5C28 17.5376 25.5376 20 22.5 20H5.5C4.67157 20 4 20.6716 4 21.5C4 22.3284 4.67157 23 5.5 23H22.5C27.1944 23 31 19.1944 31 14.5C31 9.80558 27.1944 6 22.5 6ZM37.4039 18C34.4212 18 31.8214 20.0299 31.098 22.9235L31.0448 23.1362C30.8439 23.9399 31.3325 24.7543 32.1362 24.9552C32.9399 25.1561 33.7543 24.6675 33.9552 23.8638L34.0084 23.6511C34.3979 22.093 35.7978 21 37.4039 21H37.5C39.433 21 41 22.567 41 24.5C41 26.433 39.433 28 37.5 28H5.5C4.67157 28 4 28.6716 4 29.5C4 30.3284 4.67157 31 5.5 31H30C31.6569 31 33 32.3431 33 34C33 35.6569 31.6569 37 30 37C28.7889 37 27.6966 36.2718 27.2308 35.1538L27.1346 34.9231C26.816 34.1584 25.9378 33.7968 25.1731 34.1154C24.4084 34.434 24.0468 35.3122 24.3654 36.0769L24.4615 36.3077C25.3932 38.5436 27.5778 40 30 40C33.3137 40 36 37.3137 36 34C36 32.9071 35.7078 31.8825 35.1973 31H37.5C41.0899 31 44 28.0899 44 24.5C44 20.9101 41.0899 18 37.5 18H37.4039ZM17 39C17 38.4477 16.5523 38 16 38C15.4477 38 15 38.4477 15 39C15 39.5523 15.4477 40 16 40C16.5523 40 17 39.5523 17 39ZM20 39C20 41.2091 18.2091 43 16 43C13.7909 43 12 41.2091 12 39C12 36.7909 13.7909 35 16 35C18.2091 35 20 36.7909 20 39ZM39 11C39 10.4477 38.5523 10 38 10C37.4477 10 37 10.4477 37 11C37 11.5523 37.4477 12 38 12C38.5523 12 39 11.5523 39 11ZM42 11C42 13.2091 40.2091 15 38 15C35.7909 15 34 13.2091 34 11C34 8.79086 35.7909 7 38 7C40.2091 7 42 8.79086 42 11Z" fill="#212121"/>
</svg>
