<svg width="20" height="20" viewBox="0 0 20 20" fill="none" xmlns="http://www.w3.org/2000/svg">
<path d="M9.49583 3L9.25027 3.00001C8.55993 3.00004 8.00032 3.55967 8.00032 4.25001V5.75008C8.00032 6.44043 8.55996 7.00008 9.25032 7.00008C9.94067 7.00008 10.5003 6.44043 10.5003 5.75008H9.50032C9.22417 5.75008 9.00032 5.52622 9.00032 5.25008C9.00032 4.97393 9.22417 4.75008 9.50032 4.75008H11.0003C11.2765 4.75008 11.5003 4.97393 11.5003 5.25008V5.75008C11.5003 6.99272 10.493 8.00008 9.25032 8.00008C8.00768 8.00008 7.00032 6.99272 7.00032 5.75008V4.25001C7.00032 3.0074 8.00762 2.00006 9.25023 2.00001L9.50018 2C9.52859 2 10.617 1.99983 11.1476 3.01918C11.2752 3.26412 11.18 3.56605 10.935 3.69357C10.6901 3.82109 10.3882 3.7259 10.2607 3.48097C10.1371 3.24364 9.95089 3.12557 9.78231 3.06272C9.63068 3.0062 9.50646 3.00049 9.49583 3ZM16.5037 5.00098C16.7491 5.00098 16.9533 5.17785 16.9956 5.4111L17.0037 5.50098V16.5012C17.0037 16.7774 16.7798 17.0012 16.5037 17.0012C16.2582 17.0012 16.0541 16.8243 16.0117 16.5911L16.0037 16.5012V5.50098C16.0037 5.22483 16.2275 5.00098 16.5037 5.00098ZM7.50366 10.9999C7.74912 10.9999 7.95327 11.1768 7.99561 11.41L8.00366 11.4999V16.5002C8.00366 16.7763 7.77981 17.0002 7.50366 17.0002C7.2582 17.0002 7.05406 16.8233 7.01172 16.59L7.00366 16.5002V11.4999C7.00366 11.2238 7.22752 10.9999 7.50366 10.9999ZM4.50032 13.0002C4.74578 13.0002 4.94992 13.177 4.99226 13.4103L5.00032 13.5002V16.5002C5.00032 16.7763 4.77646 17.0002 4.50032 17.0002C4.25486 17.0002 4.05071 16.8233 4.00837 16.59L4.00032 16.5002V13.5002C4.00032 13.224 4.22417 13.0002 4.50032 13.0002ZM10.5003 8.99769C10.7458 8.99769 10.9499 9.17456 10.9923 9.40781L11.0003 9.49769V16.5002C11.0003 16.7763 10.7765 17.0002 10.5003 17.0002C10.2549 17.0002 10.0507 16.8233 10.0084 16.59L10.0003 16.5002V9.49769C10.0003 9.22155 10.2242 8.99769 10.5003 8.99769ZM13.5003 7.00226C13.7458 7.00226 13.9499 7.17913 13.9923 7.41238L14.0003 7.50226V16.5002C14.0003 16.7763 13.7765 17.0002 13.5003 17.0002C13.2549 17.0002 13.0507 16.8233 13.0084 16.59L13.0003 16.5002V7.50226C13.0003 7.22612 13.2242 7.00226 13.5003 7.00226ZM4.95816 2.70626C4.95816 2.02474 4.08323 1.74508 3.68794 2.30024L1.12906 5.89398C0.799092 6.35739 1.13039 7 1.69928 7H3.95816V7.499C3.95816 7.77515 4.18201 7.999 4.45816 7.999C4.7343 7.999 4.95816 7.77515 4.95816 7.499V7H5.50165C5.77779 7 6.00165 6.77614 6.00165 6.5C6.00165 6.22386 5.77779 6 5.50165 6H4.95816V2.70626ZM3.95816 3.64481V6H2.28117L3.95816 3.64481Z" fill="#212121"/>
</svg>
