<svg width="20" height="20" viewBox="0 0 20 20" fill="none" xmlns="http://www.w3.org/2000/svg">
<path d="M6.9873 2.06589C7.89569 1.79208 8.86278 2.19479 9.31442 3.01224L9.38866 3.16075L10.0501 4.63213C10.4627 5.54992 10.2823 6.61908 9.60778 7.3496L9.47554 7.48248L8.43219 8.45541C8.24441 8.63298 8.38537 9.32181 9.06551 10.4999C9.6774 11.5597 10.1751 12.0552 10.4201 12.0823L10.463 12.082L10.516 12.0716L12.5668 11.4446C13.1335 11.2713 13.744 11.4487 14.13 11.8865L14.2217 12.0014L15.5783 13.8815C16.1301 14.6462 16.0692 15.6842 15.4536 16.378L15.3317 16.5039L14.7889 17.018C13.795 17.9592 12.3437 18.2346 11.0741 17.7231C9.13891 16.9433 7.38101 15.1607 5.78393 12.3945C4.18348 9.62242 3.51925 7.20438 3.81622 5.13565C4.00001 3.85539 4.87325 2.78674 6.07773 2.3462L6.27061 2.28192L6.9873 2.06589Z" fill="#212121"/>
</svg>
