<svg width="24" height="24" viewBox="0 0 24 24" fill="none" xmlns="http://www.w3.org/2000/svg">
<path d="M6.25391 16L12 15.4688L17.7539 16H17.8187C17.9386 16 18.0575 16.0216 18.1698 16.0637L21.2949 17.2356C21.7181 17.3943 21.9988 17.7983 22 18.25H2C2 17.7989 2.27984 17.3951 2.70225 17.2367L5.83021 16.0637C5.94249 16.0216 6.06142 16 6.18133 16H6.25391Z" fill="url(#paint0_linear_72095_9140)"/>
<path d="M2.75 17.5C2.33579 17.5 2 17.8358 2 18.25C2 18.6642 2.33579 19 2.75 19H21.25C21.6642 19 22 18.6642 22 18.25C22 17.8358 21.6642 17.5 21.25 17.5H2.75Z" fill="url(#paint1_linear_72095_9140)"/>
<path d="M4 6.25C4 5.00736 5.00736 4 6.25 4H17.75C18.9926 4 20 5.00736 20 6.25V13.75C20 14.9926 18.9926 16 17.75 16H6.25C5.00736 16 4 14.9926 4 13.75V6.25Z" fill="url(#paint2_linear_72095_9140)"/>
<defs>
<linearGradient id="paint0_linear_72095_9140" x1="22" y1="18.9122" x2="20.7655" y2="12.2542" gradientUnits="userSpaceOnUse">
<stop stop-color="#63686E"/>
<stop offset="1" stop-color="#889096"/>
</linearGradient>
<linearGradient id="paint1_linear_72095_9140" x1="22" y1="18.8929" x2="21.7922" y2="16.1227" gradientUnits="userSpaceOnUse">
<stop stop-color="#889096"/>
<stop offset="1" stop-color="#AAB3BD"/>
</linearGradient>
<linearGradient id="paint2_linear_72095_9140" x1="15.2" y1="4" x2="15.9497" y2="17.7217" gradientUnits="userSpaceOnUse">
<stop stop-color="#6CE0FF"/>
<stop offset="1" stop-color="#4894FE"/>
</linearGradient>
</defs>
</svg>
