<svg width="20" height="20" viewBox="0 0 20 20" fill="none" xmlns="http://www.w3.org/2000/svg">
<path d="M11.1 15.6126L11.1 10.9788C11.1 9.62802 11.1 8.58423 11.0438 7.74392C10.987 6.89374 10.8707 6.209 10.6173 5.5834C9.94664 3.92768 8.63348 2.61452 6.97776 1.94389C6.67063 1.81948 6.3208 1.96762 6.1964 2.27475C6.072 2.58188 6.22013 2.93171 6.52726 3.05611C7.88194 3.60481 8.95634 4.67922 9.50504 6.0339C9.69051 6.49178 9.79364 7.03363 9.8465 7.82399C9.8997 8.6196 9.90002 9.62343 9.90002 11.0011L9.90002 15.6126L6.92429 12.6369C6.68997 12.4026 6.31007 12.4026 6.07576 12.6369C5.84145 12.8712 5.84145 13.2511 6.07576 13.4854L10.0758 17.4854C10.1883 17.5979 10.3409 17.6612 10.5 17.6612C10.6592 17.6612 10.8118 17.5979 10.9243 17.4854L14.9243 13.4854C15.1586 13.2511 15.1586 12.8712 14.9243 12.6369C14.69 12.4026 14.3101 12.4026 14.0758 12.6369L11.1 15.6126Z" fill="#212121"/>
</svg>
