<svg width="20" height="20" viewBox="0 0 20 20" fill="none" xmlns="http://www.w3.org/2000/svg">
<path d="M7 2C5.89543 2 5 2.89543 5 4V16C5 17.1046 5.89543 18 7 18H13C14.1046 18 15 17.1046 15 16V4C15 2.89543 14.1046 2 13 2H7ZM7 4.5C7 4.22386 7.22386 4 7.5 4H12.5C12.7761 4 13 4.22386 13 4.5C13 4.77614 12.7761 5 12.5 5H7.5C7.22386 5 7 4.77614 7 4.5ZM12.3536 8.14645C12.5488 8.34171 12.5488 8.65829 12.3536 8.85355C12.1583 9.04882 11.8417 9.04882 11.6464 8.85355L10.5 7.70711V10.5C10.5 10.7761 10.2761 11 10 11C9.72386 11 9.5 10.7761 9.5 10.5V7.70711L8.35355 8.85355C8.15829 9.04882 7.84171 9.04882 7.64645 8.85355C7.45118 8.65829 7.45118 8.34171 7.64645 8.14645L9.64645 6.14645C9.69439 6.09851 9.74964 6.06234 9.80861 6.03794C9.86669 6.01385 9.9303 6.0004 9.997 6.00001L10 6L10.003 6.00001C10.0697 6.0004 10.1333 6.01385 10.1914 6.03794C10.2495 6.06198 10.304 6.09744 10.3514 6.14433L10.354 6.14684L12.3536 8.14645Z" fill="#212121"/>
</svg>
