<svg width="20" height="20" viewBox="0 0 20 20" fill="none" xmlns="http://www.w3.org/2000/svg">
<path d="M5 6C5 5.72386 5.22386 5.5 5.5 5.5H8.5C8.77614 5.5 9 5.72386 9 6C9 6.27614 8.77614 6.5 8.5 6.5H5.5C5.22386 6.5 5 6.27614 5 6Z" fill="black"/>
<path d="M5.5 7.5C5.22386 7.5 5 7.72386 5 8C5 8.27614 5.22386 8.5 5.5 8.5H7.5C7.77614 8.5 8 8.27614 8 8C8 7.72386 7.77614 7.5 7.5 7.5H5.5Z" fill="black"/>
<path d="M7.00001 1C3.68631 1 1.00001 3.68629 1.00001 7C1.00001 8.03957 1.2648 9.01862 1.73086 9.87202L1.01925 12.3626C0.968297 12.541 1.02025 12.7329 1.15422 12.8612C1.2882 12.9894 1.48217 13.033 1.65813 12.9743L3.99618 12.195C4.87989 12.707 5.90639 13 7.00001 13C10.3137 13 13 10.3137 13 7C13 3.68629 10.3137 1 7.00001 1ZM2.00001 7C2.00001 4.23858 4.23859 2 7.00001 2C9.76144 2 12 4.23858 12 7C12 9.76142 9.76144 12 7.00001 12C6.01533 12 5.09854 11.7159 4.32536 11.2253C4.19843 11.1448 4.04199 11.1256 3.89938 11.1732L2.24119 11.7259L2.75014 9.94458C2.78797 9.81217 2.76952 9.67002 2.69913 9.55165C2.25513 8.80506 2.00001 7.93308 2.00001 7Z" fill="black"/>
<path d="M7 14C7.33952 14 7.6734 13.9758 8 13.9291V16C8 16.5523 8.44772 17 9 17H16C16.5523 17 17 16.5523 17 16V12.809L12.7236 14.9472C12.5828 15.0175 12.4171 15.0175 12.2764 14.9472L9.47887 13.5484C9.87513 13.3983 10.2542 13.2133 10.6124 12.9971L12.5 13.9409L17 11.6909V11C17 10.4477 16.5523 10 16 10H13.3264C13.4787 9.67933 13.6074 9.34525 13.7101 9H16C17.1046 9 18 9.89543 18 11V16C18 17.1046 17.1046 18 16 18H9C7.89543 18 7 17.1046 7 16V14Z" fill="black"/>
</svg>
