<svg width="16" height="16" viewBox="0 0 16 16" fill="none" xmlns="http://www.w3.org/2000/svg">
<path d="M1 3.1674V6.17072C1 8.47414 2.86729 10.3414 5.17072 10.3414C5.5721 10.3414 5.96023 10.2847 6.32756 10.1789C6.49213 10.5883 6.71518 10.9679 6.98636 11.3074L5.20146 13.0936C5.00627 13.289 5.00639 13.6055 5.20173 13.8007C5.39706 13.9959 5.71365 13.9958 5.90883 13.8005L7.69304 12.0149C8.46277 12.6313 9.4395 13 10.5023 13C12.9863 13 15 10.9863 15 8.50231V5.23149C15 4.55392 14.4507 4.00464 13.7732 4.00464H10.5023C9.93746 4.00464 9.3969 4.10877 8.89882 4.29889C8.21291 2.93545 6.80106 2 5.17072 2H2.1674C1.52267 2 1 2.52266 1 3.1674ZM8.40544 11.302L10.8567 8.84886C11.0519 8.65352 11.0518 8.33694 10.8565 8.14175C10.6611 7.94656 10.3446 7.94668 10.1494 8.14202L7.69896 10.5943C7.26288 10.0108 7.00466 9.28672 7.00466 8.50231C7.00466 6.5706 8.57062 5.00464 10.5023 5.00464H13.7732C13.8984 5.00464 14 5.1062 14 5.23149V8.50231C14 10.434 12.434 12 10.5023 12C9.7157 12 8.98972 11.7403 8.40544 11.302ZM5.17072 3C6.41417 3 7.49044 3.71577 8.00999 4.75777C7.30272 5.22946 6.73665 5.89621 6.38864 6.68114L4.85346 5.1464C4.65817 4.95116 4.34158 4.95121 4.14635 5.1465C3.95112 5.34179 3.95116 5.65837 4.14645 5.8536L6.0639 7.7705C6.02493 8.00867 6.00466 8.25312 6.00466 8.50231C6.00466 8.74477 6.02385 8.98275 6.06078 9.21481C5.7784 9.29724 5.47972 9.34144 5.17072 9.34144C3.41958 9.34144 2 7.92186 2 6.17072L2 3.1674C2 3.07495 2.07495 3 2.1674 3L5.17072 3Z" fill="#212121"/>
</svg>
