<svg width="20" height="20" viewBox="0 0 20 20" fill="none" xmlns="http://www.w3.org/2000/svg">
<path d="M8.49989 13.5C8.49989 14.3284 9.17154 14.9999 9.99988 15C10.8283 15 11.4999 14.3284 11.4999 13.5V9H13.8075C14.4325 9.0002 14.9924 9.38822 15.2118 9.97363L17.4618 15.9736C17.8292 16.954 17.1044 17.9997 16.0575 18H3.94325C2.89603 18 2.17138 16.9542 2.53895 15.9736L4.78895 9.97363C5.00851 9.38822 5.56802 9.00002 6.19325 9H8.49989V13.5ZM9.99988 2C11.3806 2 12.4999 3.11929 12.4999 4.5C12.4999 5.70943 11.6409 6.71753 10.4999 6.94922V13.5C10.4999 13.7761 10.276 14 9.99988 14C9.72381 13.9999 9.49989 13.7761 9.49989 13.5V6.94922C8.35888 6.71747 7.49989 5.70938 7.49989 4.5C7.49989 3.11934 8.61924 2.00008 9.99988 2Z" fill="#212121"/>
</svg>
