<svg width="20" height="20" viewBox="0 0 20 20" fill="none" xmlns="http://www.w3.org/2000/svg">
<path d="M17 7V9.40135C16.5587 9.14609 16.0464 9 15.5 9C13.8431 9 12.5 10.3431 12.5 12C12.5 12.7733 12.7926 13.4782 13.273 14.0102C11.9987 14.1248 11 15.1958 11 16.5C11 16.6669 11.0126 16.8341 11.0381 17H5.5C4.11929 17 3 15.8807 3 14.5V7H17ZM14.5 3C15.8807 3 17 4.11929 17 5.5V6H3V5.5C3 4.11929 4.11929 3 5.5 3H14.5ZM17.5 12C17.5 13.1046 16.6046 14 15.5 14C14.3954 14 13.5 13.1046 13.5 12C13.5 10.8954 14.3954 10 15.5 10C16.6046 10 17.5 10.8954 17.5 12ZM19 16.5C19 17.7452 18 19 15.5 19C13 19 12 17.7499 12 16.5C12 15.6716 12.6716 15 13.5 15H17.5C18.3284 15 19 15.6716 19 16.5Z" fill="#212121"/>
</svg>
