<svg width="20" height="20" viewBox="0 0 20 20" fill="none" xmlns="http://www.w3.org/2000/svg">
<path d="M4.75 4H7V6.26756C6.70583 6.09739 6.36429 6 6 6C4.89543 6 4 6.89543 4 8C4 8.36429 4.09739 8.70583 4.26756 9H2V6.75C2 5.23122 3.23122 4 4.75 4ZM2 12.25V10H6.29289L4.64645 11.6464C4.45118 11.8417 4.45118 12.1583 4.64645 12.3536C4.84171 12.5488 5.15829 12.5488 5.35355 12.3536L7 10.7071V15H4.75C3.23122 15 2 13.7688 2 12.25ZM8 15H13.25C14.7688 15 16 13.7688 16 12.25V10H8.70711L10.3536 11.6464C10.5488 11.8417 10.5488 12.1583 10.3536 12.3536C10.1583 12.5488 9.84171 12.5488 9.64645 12.3536L8 10.7071V15ZM10.7324 9H16V6.75C16 5.23122 14.7688 4 13.25 4H8V6.26756C8.29417 6.09739 8.63571 6 9 6C10.1046 6 11 6.89543 11 8C11 8.36429 10.9026 8.70583 10.7324 9ZM8 9V8C8 7.44772 8.44772 7 9 7C9.55228 7 10 7.44772 10 8C10 8.55228 9.55228 9 9 9H8ZM6 9H7V8C7 7.44772 6.55228 7 6 7C5.44772 7 5 7.44772 5 8C5 8.55228 5.44772 9 6 9ZM6.75 17C5.89511 17 5.13133 16.6099 4.62695 15.998C4.66781 15.9993 4.70883 16 4.75 16H13.25C15.3211 16 17 14.3211 17 12.25V6.75C17 6.70883 16.9993 6.66781 16.998 6.62695C17.6099 7.13133 18 7.89511 18 8.75V12.25C18 14.8734 15.8734 17 13.25 17H6.75Z" fill="#212121"/>
</svg>
