<svg width="16" height="16" viewBox="0 0 16 16" fill="none" xmlns="http://www.w3.org/2000/svg">
<path d="M4.41799 2.21306L3.20963 4.45604C2.98771 4.86797 2.65464 5.20936 2.2483 5.44137L1.25423 6.00895C1.04211 6.13007 0.948547 6.38672 1.03295 6.61594L1.42428 7.67863C1.47844 7.82571 1.59843 7.93888 1.74842 7.98435L4.9511 8.9553C5.48558 9.11733 6.05014 8.81097 6.20621 8.27331C6.43043 7.50083 6.71331 6.53355 6.97558 5.65783C7.0741 5.32887 6.82713 5 6.49048 5H5.49978C5.33412 5 5.17922 4.91795 5.08615 4.7809C4.99322 4.64406 4.97426 4.46944 5.03502 4.31562L5.03598 4.31314C5.04665 4.28491 5.0569 4.25654 5.06676 4.22801C5.08801 4.16646 5.11736 4.07631 5.14809 3.96618C5.21031 3.74313 5.27446 3.45124 5.29325 3.1551C5.31242 2.85296 5.28147 2.58909 5.19204 2.39381C5.11296 2.22112 4.98043 2.08019 4.71576 2.00517C4.6853 1.99653 4.64639 1.9969 4.59108 2.02773C4.53087 2.06128 4.46517 2.12548 4.41799 2.21306ZM6.29124 3.21843C6.27324 3.50215 6.22481 3.77268 6.17158 4H6.49048C7.50354 4 8.22225 4.98073 7.93354 5.94474C7.67244 6.81654 7.39045 7.78075 7.16657 8.55207C6.85563 9.62327 5.72971 10.2363 4.66098 9.91228L1.45829 8.94134C1.00832 8.80492 0.64836 8.46541 0.485883 8.02419L0.0945558 6.96149C-0.158665 6.27384 0.122024 5.50389 0.75839 5.14054L1.75246 4.57295C1.99626 4.43375 2.1961 4.22892 2.32926 3.98176L3.53761 1.73877C3.77652 1.29531 4.32617 0.855328 4.98848 1.04307C5.54553 1.20098 5.90482 1.54851 6.10125 1.97747C6.28734 2.38384 6.31558 2.83482 6.29124 3.21843ZM11.5816 13.7845L12.7899 11.5415C13.0119 11.1296 13.3449 10.7882 13.7513 10.5562L14.7453 9.98861C14.9575 9.86749 15.051 9.61084 14.9666 9.38162L14.5753 8.31893C14.5211 8.17185 14.4011 8.05868 14.2512 8.01321L11.0485 7.04227C10.514 6.88023 9.94943 7.1866 9.79336 7.72426C9.56914 8.49674 9.28626 9.46401 9.02399 10.3397C8.92547 10.6687 9.17244 10.9976 9.50909 10.9976H10.4998C10.6654 10.9976 10.8204 11.0796 10.9134 11.2167C11.0064 11.3535 11.0253 11.5281 10.9645 11.6819L10.9636 11.6844C10.9529 11.7127 10.9427 11.741 10.9328 11.7696C10.9116 11.8311 10.8822 11.9213 10.8515 12.0314C10.7893 12.2544 10.7251 12.5463 10.7063 12.8425C10.6871 13.1446 10.7181 13.4085 10.8075 13.6037C10.8866 13.7764 11.0191 13.9174 11.2838 13.9924C11.3143 14.001 11.3532 14.0007 11.4085 13.9698C11.4687 13.9363 11.5344 13.8721 11.5816 13.7845ZM9.70833 12.7791C9.72633 12.4954 9.77476 12.2249 9.82799 11.9976H9.50909C8.49603 11.9976 7.77731 11.0168 8.06603 10.0528C8.32713 9.18102 8.60911 8.21682 8.833 7.4455C9.14394 6.37429 10.2699 5.76127 11.3386 6.08528L14.5413 7.05623C14.9912 7.19264 15.3512 7.53215 15.5137 7.97337L15.905 9.03607C16.1582 9.72372 15.8775 10.4937 15.2412 10.857L14.2471 11.4246C14.0033 11.5638 13.8035 11.7686 13.6703 12.0158L12.462 14.2588C12.223 14.7023 11.6734 15.1422 11.0111 14.9545C10.454 14.7966 10.0947 14.4491 9.89832 14.0201C9.71223 13.6137 9.68398 13.1627 9.70833 12.7791Z" fill="#212121"/>
</svg>
