<svg width="20" height="20" viewBox="0 0 20 20" fill="none" xmlns="http://www.w3.org/2000/svg">
<path d="M7.9928 6.00287L7.27429 6.00284C7.39715 5.69062 7.52896 5.2992 7.61285 4.88526C7.71142 4.39887 7.75456 3.83064 7.59419 3.31229C7.42398 2.76213 7.03335 2.30319 6.35954 2.07748C5.49678 1.78849 4.75203 2.3943 4.43619 3.00203L3.14319 5.49001C2.92202 5.91558 2.58311 6.26855 2.16687 6.50682L1.0057 7.17151C0.155474 7.65821 -0.217053 8.68914 0.125665 9.60691L0.437128 10.441C0.657805 11.0319 1.14435 11.4841 1.74984 11.6611L5.99343 12.9009C7.30339 13.2837 8.67825 12.5452 9.08242 11.2417L9.90299 8.59517C10.302 7.30823 9.34018 6.00293 7.9928 6.00287ZM12.7255 14.0025L12.007 14.0025C10.6597 14.0024 9.69782 12.6971 10.0969 11.4102L10.9174 8.7637C11.3216 7.46019 12.6964 6.72166 14.0064 7.10441L18.25 8.34431C18.8555 8.52122 19.342 8.97343 19.5627 9.56438L19.8742 10.3985C20.2169 11.3162 19.8444 12.3471 18.9941 12.8338L17.833 13.4985C17.4167 13.7368 17.0778 14.0898 16.8566 14.5154L15.5636 17.0033C15.2478 17.6111 14.5031 18.2169 13.6403 17.9279C12.9665 17.7022 12.5759 17.2432 12.4057 16.6931C12.2453 16.1747 12.2884 15.6065 12.387 15.1201C12.4709 14.7062 12.6027 14.3147 12.7255 14.0025Z" fill="#212121"/>
</svg>
