<svg width="16" height="16" viewBox="0 0 16 16" fill="none" xmlns="http://www.w3.org/2000/svg">
<path d="M11.5 1C9.567 1 8 2.567 8 4.5C8 6.433 9.567 8 11.5 8H12.5C12.7761 8 13 8.22386 13 8.5C13 8.77614 12.7761 9 12.5 9H11.5C9.01472 9 7 6.98528 7 4.5C7 2.01472 9.01472 0 11.5 0C13.9853 0 16 2.01472 16 4.5V5.25C16 6.2165 15.2165 7 14.25 7C13.6671 7 13.1508 6.71505 12.8328 6.27685C12.4263 6.72392 11.8672 7 11.25 7C10.0074 7 9 5.88071 9 4.5C9 3.11929 10.0074 2 11.25 2C11.7149 2 12.1469 2.15669 12.5056 2.42514C12.5417 2.18451 12.7493 2 13 2C13.2761 2 13.5 2.22386 13.5 2.5V5.25C13.5 5.66421 13.8358 6 14.25 6C14.6642 6 15 5.66421 15 5.25V4.5C15 2.567 13.433 1 11.5 1ZM11.25 6C11.8439 6 12.5 5.43014 12.5 4.5C12.5 3.56986 11.8439 3 11.25 3C10.6561 3 10 3.56986 10 4.5C10 5.43014 10.6561 6 11.25 6ZM14 8.5V8H14.5C14.6712 8 14.8384 7.98278 15 7.94999V9.5C15 10.8807 13.8807 12 12.5 12H8.68787L5.62533 14.6797C4.99168 15.2342 4 14.7842 4 13.9422V12H3.5C2.11929 12 1 10.8807 1 9.5V4.5C1 3.11929 2.11929 2 3.5 2H6.59971C6.21628 2.75007 6 3.59978 6 4.5C6 7.53757 8.46243 10 11.5 10H12.5C13.3284 10 14 9.32843 14 8.5Z" fill="#212121"/>
</svg>
