<svg width="24" height="24" viewBox="0 0 24 24" fill="none" xmlns="http://www.w3.org/2000/svg">
<path d="M12.7071 21.7071C12.3166 22.0976 11.6834 22.0976 11.2929 21.7071L8.29289 18.7071C7.90237 18.3166 7.90237 17.6834 8.29289 17.2929C8.68342 16.9024 9.31658 16.9024 9.70711 17.2929L11 18.5858V9.00001C11 8.44772 11.4477 8.00001 12 8.00001C12.5523 8.00001 13 8.44772 13 9.00001V18.5858L14.2929 17.2929C14.6834 16.9024 15.3166 16.9024 15.7071 17.2929C16.0976 17.6834 16.0976 18.3166 15.7071 18.7071L12.7071 21.7071ZM4.5 9.00009C4.5 12.4496 6.82881 15.3552 10 16.2305V14.1252C7.95132 13.3251 6.5 11.3321 6.5 9.00009C6.5 5.96253 8.96243 3.50009 12 3.50009C15.0376 3.50009 17.5 5.96253 17.5 9.00009C17.5 11.3321 16.0487 13.3251 14 14.1252V16.2305C17.1712 15.3552 19.5 12.4496 19.5 9.00009C19.5 4.85796 16.1421 1.50009 12 1.50009C7.85786 1.50009 4.5 4.85796 4.5 9.00009ZM7.5 9.00009C7.5 10.767 8.51828 12.296 10 13.0323V10.5003C9.68604 10.0825 9.5 9.563 9.5 9.00009C9.5 7.61938 10.6193 6.50009 12 6.50009C13.3807 6.50009 14.5 7.61938 14.5 9.00009C14.5 9.56301 14.314 10.0825 14 10.5003V13.0323C15.4817 12.296 16.5 10.767 16.5 9.00009C16.5 6.51481 14.4853 4.50009 12 4.50009C9.51472 4.50009 7.5 6.51481 7.5 9.00009Z" fill="#212121"/>
</svg>
