<svg width="24" height="24" viewBox="0 0 24 24" fill="none" xmlns="http://www.w3.org/2000/svg">
<path d="M12 6.5C12 9.53757 9.53757 12 6.5 12C3.46243 12 1 9.53757 1 6.5C1 3.46243 3.46243 1 6.5 1C9.53757 1 12 3.46243 12 6.5ZM5.85355 8.85355L9.85355 4.85355C10.0488 4.65829 10.0488 4.34171 9.85355 4.14645C9.65829 3.95118 9.34171 3.95118 9.14645 4.14645L5.5 7.79289L3.85355 6.14645C3.65829 5.95118 3.34171 5.95118 3.14645 6.14645C2.95118 6.34171 2.95118 6.65829 3.14645 6.85355L5.14645 8.85355C5.34171 9.04882 5.65829 9.04882 5.85355 8.85355ZM6.5 13C10.0899 13 13 10.0899 13 6.5C13 5.21136 12.625 4.0103 11.9782 3H14.25C15.4926 3 16.5 4.00736 16.5 5.25V6H18.0508C18.9203 6 19.7119 6.501 20.0842 7.28681L21.7834 10.8741C21.926 11.1752 22 11.5042 22 11.8373V17.25C22 18.4926 20.9926 19.5 19.75 19.5H17.9585C17.7205 20.9189 16.4865 22 15 22C13.5135 22 12.2795 20.9189 12.0415 19.5H9.95852C9.72048 20.9189 8.4865 22 7 22C5.51012 22 4.27391 20.9139 4.03988 19.4903C2.89576 19.3844 2 18.4218 2 17.25V11.1904C3.16789 12.3112 4.75351 13 6.5 13ZM20.5 15.5001H19.25C18.8358 15.5001 18.5 15.8358 18.5 16.2501C18.5 16.6643 18.8358 17.0001 19.25 17.0001H20.5V15.5001ZM20.1833 11L18.7286 7.92894C18.6045 7.667 18.3406 7.5 18.0508 7.5H16.5V11L20.1833 11ZM7 20.5C7.82843 20.5 8.5 19.8284 8.5 19C8.5 18.1716 7.82843 17.5 7 17.5C6.17157 17.5 5.5 18.1716 5.5 19C5.5 19.8284 6.17157 20.5 7 20.5ZM16.5 19C16.5 18.1716 15.8284 17.5 15 17.5C14.1716 17.5 13.5 18.1716 13.5 19C13.5 19.8284 14.1716 20.5 15 20.5C15.8284 20.5 16.5 19.8284 16.5 19Z" fill="#212121"/>
</svg>
