<svg width="16" height="16" viewBox="0 0 16 16" fill="none" xmlns="http://www.w3.org/2000/svg">
<path d="M4.5 2C3.11929 2 2 3.11929 2 4.5V11.5C2 12.8807 3.11929 14 4.5 14H8.0381C8.01256 13.8341 8 13.6669 8 13.5C8 12.1958 8.99868 11.1248 10.273 11.0102C9.95733 10.6606 9.72275 10.2364 9.59899 9.76719C9.27695 10.2355 8.77332 10.5 8 10.5C7.10266 10.5 6.56844 10.1439 6.25971 9.52639C6.14724 9.30145 6.07341 9.05536 6.03226 8.80843C6.00784 8.66189 6 8.55217 6 8.5C6 8.22386 5.77614 8 5.5 8H3V4.5C3 3.67157 3.67157 3 4.5 3H11.5C12.3284 3 13 3.67157 13 4.5V6H14V4.5C14 3.11929 12.8807 2 11.5 2H4.5ZM14.5 9C14.5 10.1046 13.6046 11 12.5 11C11.3954 11 10.5 10.1046 10.5 9C10.5 7.89543 11.3954 7 12.5 7C13.6046 7 14.5 7.89543 14.5 9ZM16 13.5C16 14.7452 15 16 12.5 16C10 16 9 14.7499 9 13.5C9 12.6716 9.67157 12 10.5 12H14.5C15.3284 12 16 12.6716 16 13.5Z" fill="#212121"/>
</svg>
