<svg width="48" height="48" viewBox="0 0 48 48" fill="none" xmlns="http://www.w3.org/2000/svg">
<path d="M24 7.5C21.7909 7.5 20 9.29086 20 11.5C20 13.7091 21.7909 15.5 24 15.5C26.2091 15.5 28 13.7091 28 11.5C28 9.29086 26.2091 7.5 24 7.5ZM17.5 11.5C17.5 7.91015 20.4101 5 24 5C27.5899 5 30.5 7.91015 30.5 11.5C30.5 15.0899 27.5899 18 24 18C20.4101 18 17.5 15.0899 17.5 11.5ZM9.5 11.5C7.84315 11.5 6.5 12.8431 6.5 14.5C6.5 16.1569 7.84315 17.5 9.5 17.5C11.1569 17.5 12.5 16.1569 12.5 14.5C12.5 12.8431 11.1569 11.5 9.5 11.5ZM4 14.5C4 11.4624 6.46243 9 9.5 9C12.5376 9 15 11.4624 15 14.5C15 17.5376 12.5376 20 9.5 20C6.46243 20 4 17.5376 4 14.5ZM35.5 14.5C35.5 12.8431 36.8431 11.5 38.5 11.5C40.1569 11.5 41.5 12.8431 41.5 14.5C41.5 16.1569 40.1569 17.5 38.5 17.5C36.8431 17.5 35.5 16.1569 35.5 14.5ZM38.5 9C35.4624 9 33 11.4624 33 14.5C33 17.5376 35.4624 20 38.5 20C41.5376 20 44 17.5376 44 14.5C44 11.4624 41.5376 9 38.5 9ZM15 24.25C15 22.4551 16.4551 21 18.25 21H29.75C31.5449 21 33 22.4551 33 24.25V32C33 36.9706 28.9706 41 24 41C19.0294 41 15 36.9706 15 32V24.25ZM18.25 23.5C17.8358 23.5 17.5 23.8358 17.5 24.25V32C17.5 35.5899 20.4101 38.5 24 38.5C27.5899 38.5 30.5 35.5899 30.5 32V24.25C30.5 23.8358 30.1642 23.5 29.75 23.5H18.25ZM13.1523 22.9893C13.0528 23.3931 13 23.8153 13 24.2499V25.6183L7.0606 27.2097C6.6605 27.3169 6.42306 27.7282 6.53027 28.1283L8.01848 33.6824C8.86822 36.8537 11.922 38.8458 15.0902 38.4523C15.6607 39.2387 16.3328 39.9466 17.0872 40.5568C16.9357 40.6061 16.782 40.6516 16.6264 40.6934C11.8252 41.9798 6.89014 39.1306 5.60366 34.3294L4.11545 28.7753C3.65089 27.0416 4.67979 25.2595 6.41355 24.7949L13.1523 22.9893ZM30.9127 40.557C31.064 40.6062 31.2175 40.6517 31.3731 40.6934C36.1743 41.9798 41.1093 39.1306 42.3958 34.3294L43.884 28.7753C44.3486 27.0416 43.3197 25.2595 41.5859 24.7949L34.8477 22.9894C34.9472 23.3932 35 23.8154 35 24.2499V25.6184L40.9389 27.2097C41.339 27.3169 41.5764 27.7282 41.4692 28.1283L39.981 33.6824C39.1313 36.8535 36.0777 38.8456 32.9098 38.4523C32.3392 39.2388 31.6671 39.9467 30.9127 40.557Z" fill="#212121"/>
</svg>
