<svg width="24" height="24" viewBox="0 0 24 24" fill="none" xmlns="http://www.w3.org/2000/svg">
<path d="M10.25 2H13.75C14.9079 2 15.8616 2.87472 15.9862 3.99944L17.75 4C18.9926 4 20 5.00736 20 6.25V11.4982C19.2304 11.1772 18.3859 11 17.5 11C13.9101 11 11 13.9101 11 17.5C11 19.2465 11.6888 20.8321 12.8096 22H6.25C5.00736 22 4 20.9926 4 19.75V6.25C4 5.00736 5.00736 4 6.25 4L8.01379 3.99944C8.13841 2.87472 9.09205 2 10.25 2ZM13.75 3.5H10.25C9.83579 3.5 9.5 3.83579 9.5 4.25C9.5 4.66421 9.83579 5 10.25 5H13.75C14.1642 5 14.5 4.66421 14.5 4.25C14.5 3.83579 14.1642 3.5 13.75 3.5ZM23 17.5C23 20.5376 20.5376 23 17.5 23C14.4624 23 12 20.5376 12 17.5C12 14.4624 14.4624 12 17.5 12C20.5376 12 23 14.4624 23 17.5ZM17.5 14C17.2239 14 17 14.2239 17 14.5V18.5C17 18.7761 17.2239 19 17.5 19C17.7761 19 18 18.7761 18 18.5V14.5C18 14.2239 17.7761 14 17.5 14ZM17.5 21.125C17.8452 21.125 18.125 20.8452 18.125 20.5C18.125 20.1548 17.8452 19.875 17.5 19.875C17.1548 19.875 16.875 20.1548 16.875 20.5C16.875 20.8452 17.1548 21.125 17.5 21.125Z" fill="#212121"/>
</svg>
