<svg width="20" height="20" viewBox="0 0 20 20" fill="none" xmlns="http://www.w3.org/2000/svg">
<path d="M16 3C17.1046 3 18 3.89543 18 5V6C18 6.55228 17.5523 7 17 7H16.2217L17.3584 10.0342C18.2918 10.2032 19 11.0179 19 12V13C19 14.1046 18.1046 15 17 15H16.9502C16.7186 16.1411 15.7095 17 14.5 17C13.2905 17 12.2814 16.1411 12.0498 15H8.9502C8.71858 16.1411 7.70949 17 6.5 17C5.29051 17 4.28142 16.1411 4.0498 15H4C2.89543 15 2 14.1046 2 13V5C2 3.89543 2.89543 3 4 3H16ZM6.5 13C5.67157 13 5 13.6716 5 14.5C5 15.3284 5.67157 16 6.5 16C7.32843 16 8 15.3284 8 14.5C8 13.6716 7.32843 13 6.5 13ZM14.5 13C13.6716 13 13 13.6716 13 14.5C13 15.3284 13.6716 16 14.5 16C15.3284 16 16 15.3284 16 14.5C16 13.6716 15.3284 13 14.5 13ZM5 6C4.44772 6 4 6.44772 4 7V9L4.00488 9.10254C4.05621 9.60667 4.48232 10 5 10H8C8.55228 10 9 9.55228 9 9V7C9 6.44772 8.55228 6 8 6H5ZM13 7C12.4477 7 12 7.44772 12 8V10H16.2783L15.1533 7H13Z" fill="#212121"/>
</svg>
