<svg width="16" height="16" viewBox="0 0 16 16" fill="none" xmlns="http://www.w3.org/2000/svg">
<path d="M12.6162 2.00879C13.4988 2.0983 14.1875 2.84383 14.1875 3.75V5C14.1875 5.55228 13.7398 6 13.1875 6H12.8086L13.8652 8.11328C14.5279 8.36248 15 9.00027 15 9.75V11.25C15 12.2165 14.2165 13 13.25 13H12.7305C12.3845 13.5973 11.7399 14 11 14C10.2601 14 9.61546 13.5973 9.26953 13H6.73047C6.38454 13.5973 5.73993 14 5 14C4.26007 14 3.61546 13.5973 3.26953 13H2.75C1.7835 13 1 12.2165 1 11.25V3.75C1 2.7835 1.7835 2 2.75 2H12.4375L12.6162 2.00879ZM5 11C4.44772 11 4 11.4477 4 12C4 12.5523 4.44772 13 5 13C5.55228 13 6 12.5523 6 12C6 11.4477 5.55228 11 5 11ZM11 11C10.4477 11 10 11.4477 10 12C10 12.5523 10.4477 13 11 13C11.5523 13 12 12.5523 12 12C12 11.4477 11.5523 11 11 11ZM2 11.25C2 11.6642 2.33579 12 2.75 12H3C3 10.8954 3.89543 10 5 10C6.10457 10 7 10.8954 7 12H9C9 10.8954 9.89543 10 11 10C12.1046 10 13 10.8954 13 12H13.25C13.6642 12 14 11.6642 14 11.25V9.75C14 9.33579 13.6642 9 13.25 9H2V11.25ZM2.75 3C2.33579 3 2 3.33579 2 3.75V8H8V6.75C8 5.7835 8.7835 5 9.75 5H13.1875V3.75C13.1875 3.36183 12.8926 3.04253 12.5146 3.00391L12.4375 3H2.75ZM9.75 6C9.33579 6 9 6.33579 9 6.75V8H12.6914L11.6914 6H9.75ZM6.10254 4.00488C6.60667 4.05621 7 4.48232 7 5V6C7 6.55228 6.55228 7 6 7H4C3.44772 7 3 6.55228 3 6V5C3 4.44772 3.44772 4 4 4H6L6.10254 4.00488ZM4 6H6V5H4V6Z" fill="#212121"/>
</svg>
