<svg width="32" height="32" viewBox="0 0 32 32" fill="none" xmlns="http://www.w3.org/2000/svg">
<path d="M18.6842 4C17.9232 4 17.1905 4.28926 16.6348 4.80919L4.45357 16.2045C3.1118 17.4597 3.07652 19.5768 4.37573 20.876L10.7017 27.2019C11.8757 28.376 13.7245 28.464 14.9998 27.466V22C14.9998 20.1076 16.3139 18.5221 18.0794 18.1064C18.5007 15.7714 20.5434 14 22.9998 14C24.5077 14 25.8598 14.6676 26.7765 15.7233L27.1211 15.3787C27.6837 14.8161 27.9998 14.053 27.9998 13.2574V6.5C27.9998 5.11929 26.8805 4 25.4998 4H18.6842Z" fill="#212121"/>
</svg>
