<svg width="20" height="20" viewBox="0 0 20 20" fill="none" xmlns="http://www.w3.org/2000/svg">
<path d="M10 6.5V2H5.5C4.67157 2 4 2.67157 4 3.5V16.5C4 17.3284 4.67157 18 5.5 18H8.22126C8.01159 17.6097 7.93566 17.1395 8.05723 16.6533L8.4317 15.1554C8.57224 14.5932 8.86291 14.0798 9.27265 13.6701L14.1021 8.84065C14.629 8.31369 15.3099 8.03448 16 8.003V8H11.5C10.6716 8 10 7.32843 10 6.5ZM11 6.5V2.25L15.75 7H11.5C11.2239 7 11 6.77614 11 6.5ZM16.7469 10.2549C17.0867 10.5947 17.0867 11.1457 16.7469 11.4855L11.9175 16.3149C11.7641 16.4683 11.5718 16.5772 11.3613 16.6298L10.0422 16.9596L10.372 15.6404C10.4246 15.4299 10.5334 15.2377 10.6869 15.0843L15.5163 10.2549C15.8561 9.91504 16.4071 9.91504 16.7469 10.2549ZM9.86343 17.0043C9.8634 17.0043 9.86347 17.0042 9.86343 17.0043V17.0043ZM17.454 9.54776C16.7237 8.81741 15.5395 8.81741 14.8092 9.54776L9.97975 14.3772C9.69818 14.6588 9.49842 15.0116 9.40184 15.3979L9.02737 16.8958C8.86451 17.5472 9.45456 18.1372 10.106 17.9744L11.6039 17.5999C11.9902 17.5033 12.343 17.3036 12.6246 17.022L17.454 12.1926C18.1843 11.4622 18.1843 10.2781 17.454 9.54776Z" fill="#212121"/>
</svg>
