<svg width="16" height="16" viewBox="0 0 16 16" fill="none" xmlns="http://www.w3.org/2000/svg">
<path d="M4.99964 1C3.89527 1 3 1.89528 3 2.99966V12.998C3 14.1023 3.89527 14.9976 4.99964 14.9976H6.0461L6.29606 13.9978H4.99964C4.44745 13.9978 3.99982 13.5502 3.99982 12.998V2.99966C3.99982 2.44747 4.44745 1.99983 4.99964 1.99983H7.99909V4.49941C7.99909 5.32769 8.67054 5.99915 9.49882 5.99915H11.9984V7.44052C12.3046 7.23146 12.6462 7.0963 12.9982 7.03502V5.41346C12.9982 5.01571 12.8402 4.63424 12.5589 4.35298L9.64524 1.43927C9.36398 1.15801 8.98252 1 8.58477 1H4.99964ZM11.7913 4.99932H9.49882C9.22273 4.99932 8.99891 4.7755 8.99891 4.49941V2.2069L11.7913 4.99932ZM12.9982 8.06015C12.7558 8.13137 12.5274 8.26258 12.3362 8.45376L8.04868 12.7414C7.701 13.0891 7.45203 13.5227 7.32694 13.9978L7.31825 14.0314L7.01558 15.2423C6.90402 15.6886 7.30823 16.0928 7.75448 15.9813L8.96542 15.6785C9.45365 15.5565 9.89953 15.304 10.2554 14.9481L14.543 10.6605C15.1523 10.0511 15.1523 9.06314 14.543 8.45376C14.1248 8.03556 13.5283 7.90435 12.9982 8.06015Z" fill="#212121"/>
</svg>
