<svg width="48" height="48" viewBox="0 0 48 48" fill="none" xmlns="http://www.w3.org/2000/svg">
<path d="M10 37H39.5C39.5 37 39 37.6 39 40C39 42.4 39.5 43 39.5 43H15C12.2386 43 10 40.7614 10 38V37Z" fill="url(#paint0_linear_75809_8119)"/>
<path d="M14.25 4C10.7982 4 8 6.79822 8 10.25V37.75C8 41.2018 10.7982 44 14.25 44H38.75C39.4404 44 40 43.4404 40 42.75C40 42.0596 39.4404 41.5 38.75 41.5H14.25C12.4358 41.5 10.9225 40.2117 10.575 38.5H37.75C38.9926 38.5 40 37.4926 40 36.25V10.25C40 6.79822 37.2018 4 33.75 4H14.25Z" fill="url(#paint1_linear_75809_8119)"/>
<path d="M14.25 4C10.7982 4 8 6.79822 8 10.25V37.75C8 41.2018 10.7982 44 14.25 44H38.75C39.4404 44 40 43.4404 40 42.75C40 42.0596 39.4404 41.5 38.75 41.5H14.25C12.4358 41.5 10.9225 40.2117 10.575 38.5H37.75C38.9926 38.5 40 37.4926 40 36.25V10.25C40 6.79822 37.2018 4 33.75 4H14.25Z" fill="url(#paint2_radial_75809_8119)" fill-opacity="0.3"/>
<path d="M14.25 4C10.7982 4 8 6.79822 8 10.25V37.75C8 41.2018 10.7982 44 14.25 44H38.75C39.4404 44 40 43.4404 40 42.75C40 42.0596 39.4404 41.5 38.75 41.5H14.25C12.4358 41.5 10.9225 40.2117 10.575 38.5H37.75C38.9926 38.5 40 37.4926 40 36.25V10.25C40 6.79822 37.2018 4 33.75 4H14.25Z" fill="url(#paint3_radial_75809_8119)" fill-opacity="0.3"/>
<path d="M29 22C30.6569 22 32 23.3431 32 25V25.5C32 27.9853 29.5 31 24 31C18.5 31 16 27.9853 16 25.5V25C16 23.3431 17.3431 22 19 22H29Z" fill="url(#paint4_linear_75809_8119)" fill-opacity="0.9"/>
<path d="M24 10.5C26.4853 10.5 28.5 12.5147 28.5 15C28.5 17.4853 26.4853 19.5 24 19.5C21.5147 19.5 19.5 17.4853 19.5 15C19.5 12.5147 21.5147 10.5 24 10.5Z" fill="url(#paint5_linear_75809_8119)" fill-opacity="0.9"/>
<defs>
<linearGradient id="paint0_linear_75809_8119" x1="23.8696" y1="41.8" x2="23.8696" y2="37" gradientUnits="userSpaceOnUse">
<stop stop-color="#9DEAFF"/>
<stop offset="0.715705" stop-color="#58AAFE"/>
</linearGradient>
<linearGradient id="paint1_linear_75809_8119" x1="19.3859" y1="11.4842" x2="25.3612" y2="54.616" gradientUnits="userSpaceOnUse">
<stop stop-color="#20AC9D"/>
<stop offset="1" stop-color="#2052CB"/>
</linearGradient>
<radialGradient id="paint2_radial_75809_8119" cx="0" cy="0" r="1" gradientUnits="userSpaceOnUse" gradientTransform="translate(24 27) scale(10 7.072)">
<stop stop-color="#171155"/>
<stop offset="1" stop-color="#4A43CB" stop-opacity="0"/>
</radialGradient>
<radialGradient id="paint3_radial_75809_8119" cx="0" cy="0" r="1" gradientUnits="userSpaceOnUse" gradientTransform="translate(25 15.5) scale(6 5.60429)">
<stop stop-color="#171155"/>
<stop offset="1" stop-color="#4A43CB" stop-opacity="0"/>
</radialGradient>
<linearGradient id="paint4_linear_75809_8119" x1="36.0071" y1="48.5714" x2="-0.303573" y2="-3.40194" gradientUnits="userSpaceOnUse">
<stop stop-color="#9DEAFF"/>
<stop offset="1" stop-color="white"/>
</linearGradient>
<linearGradient id="paint5_linear_75809_8119" x1="36.0071" y1="48.5714" x2="-0.303573" y2="-3.40194" gradientUnits="userSpaceOnUse">
<stop stop-color="#9DEAFF"/>
<stop offset="1" stop-color="white"/>
</linearGradient>
</defs>
</svg>
