<svg width="16" height="16" viewBox="0 0 16 16" fill="none" xmlns="http://www.w3.org/2000/svg">
<path d="M11 1C12.1046 1 13 1.89543 13 3V12.4971C12.9999 12.7732 12.7761 12.9971 12.5 12.9971H4V13C4 13.5523 4.44772 14 5 14H12.5C12.7761 14 13 14.2239 13 14.5C13 14.7761 12.7761 15 12.5 15H5C3.89543 15 3 14.1046 3 13V3C3 1.89543 3.89543 1 5 1H11ZM5 2C4.44771 2 4 2.44772 4 3V11.9971H12V3C12 2.44772 11.5523 2 11 2H5ZM9.2998 7C9.96255 7 10.5 7.53745 10.5 8.2002C10.4999 9.02858 9.71862 10 8 10C6.28138 10 5.50012 9.02858 5.5 8.2002C5.5 7.53745 6.03745 7 6.7002 7H9.2998ZM8 3.5C8.69036 3.5 9.25 4.05964 9.25 4.75C9.25 5.44036 8.69036 6 8 6C7.30964 6 6.75 5.44036 6.75 4.75C6.75 4.05964 7.30964 3.5 8 3.5Z" fill="#212121"/>
</svg>
