<svg width="20" height="20" viewBox="0 0 20 20" fill="none" xmlns="http://www.w3.org/2000/svg">
<path d="M8.00001 1C4.68631 1 2.00001 3.68629 2.00001 7C2.00001 8.03957 2.2648 9.01862 2.73086 9.87202L2.01925 12.3626C1.9683 12.541 2.02025 12.7329 2.15422 12.8612C2.2882 12.9894 2.48217 13.033 2.65813 12.9743L4.99618 12.195C5.87989 12.707 6.90639 13 8.00001 13C11.3137 13 14 10.3137 14 7C14 3.68629 11.3137 1 8.00001 1Z" fill="url(#paint0_linear_378174_8906)"/>
<path d="M8.00001 1C4.68631 1 2.00001 3.68629 2.00001 7C2.00001 8.03957 2.2648 9.01862 2.73086 9.87202L2.01925 12.3626C1.9683 12.541 2.02025 12.7329 2.15422 12.8612C2.2882 12.9894 2.48217 13.033 2.65813 12.9743L4.99618 12.195C5.87989 12.707 6.90639 13 8.00001 13C11.3137 13 14 10.3137 14 7C14 3.68629 11.3137 1 8.00001 1Z" fill="url(#paint1_radial_378174_8906)"/>
<path d="M6.5 5.5C6.22386 5.5 6 5.72386 6 6C6 6.27614 6.22386 6.5 6.5 6.5H9.5C9.77614 6.5 10 6.27614 10 6C10 5.72386 9.77614 5.5 9.5 5.5H6.5Z" fill="url(#paint2_linear_378174_8906)"/>
<path d="M6 8C6 7.72386 6.22386 7.5 6.5 7.5H8.5C8.77614 7.5 9 7.72386 9 8C9 8.27614 8.77614 8.5 8.5 8.5H6.5C6.22386 8.5 6 8.27614 6 8Z" fill="url(#paint3_linear_378174_8906)"/>
<path fill-rule="evenodd" clip-rule="evenodd" d="M13.9252 10.2119C14.2331 10.0274 14.597 9.95937 14.9508 10.0203L15.7237 10.1534C16.3649 10.2638 16.9124 10.6792 17.1913 11.2671L18.3903 13.7943C18.9515 14.9836 19.0784 15.9796 18.959 16.7955C18.8399 17.6103 18.4813 18.2039 18.1394 18.5995C17.8671 18.9146 17.49 19.0354 17.1295 18.9964C16.7802 18.9585 16.4564 18.7744 16.2267 18.502L15.4092 17.5329C15.1242 17.1951 14.7046 17.0001 14.2626 17.0001H10.7374C10.2954 17.0001 9.87591 17.1951 9.5909 17.5329L8.77338 18.502C8.54361 18.7744 8.21988 18.9586 7.87056 18.9964C7.51007 19.0354 7.13292 18.9146 6.86064 18.5995C6.51873 18.2039 6.16018 17.6103 6.04102 16.7955C5.92169 15.9796 6.04854 14.9836 6.60972 13.7943L6.61017 13.7934L7.80877 11.2671C8.08768 10.6792 8.63511 10.2638 9.27634 10.1534L10.0492 10.0203C10.403 9.95938 10.7669 10.0274 11.0748 10.2119L11.1997 10.2867C11.4326 10.4264 11.6992 10.5001 11.9708 10.5001H13.0293C13.3009 10.5001 13.5674 10.4264 13.8004 10.2867L13.9252 10.2119Z" fill="url(#paint4_linear_378174_8906)"/>
<path d="M13.25 13.25C13.25 13.6642 12.9142 14 12.5 14C12.0858 14 11.75 13.6642 11.75 13.25C11.75 12.8358 12.0858 12.5 12.5 12.5C12.9142 12.5 13.25 12.8358 13.25 13.25Z" fill="#3E3E3E"/>
<defs>
<linearGradient id="paint0_linear_378174_8906" x1="2.42857" y1="3.25" x2="12.9045" y2="21.111" gradientUnits="userSpaceOnUse">
<stop stop-color="#0FAFFF"/>
<stop offset="1" stop-color="#CC23D1"/>
</linearGradient>
<radialGradient id="paint1_radial_378174_8906" cx="0" cy="0" r="1" gradientUnits="userSpaceOnUse" gradientTransform="translate(10.0313 14.3438) rotate(-136.21) scale(6.27697 6.27698)">
<stop offset="0.180807" stop-color="#1B44B1"/>
<stop offset="0.927002" stop-color="#1B44B1" stop-opacity="0"/>
</radialGradient>
<linearGradient id="paint2_linear_378174_8906" x1="6.34989" y1="5.55267" x2="6.72787" y2="8.80142" gradientUnits="userSpaceOnUse">
<stop stop-color="#FDFDFD"/>
<stop offset="1" stop-color="#CCEAFF"/>
</linearGradient>
<linearGradient id="paint3_linear_378174_8906" x1="6.34989" y1="5.55267" x2="6.72787" y2="8.80142" gradientUnits="userSpaceOnUse">
<stop stop-color="#FDFDFD"/>
<stop offset="1" stop-color="#CCEAFF"/>
</linearGradient>
<linearGradient id="paint4_linear_378174_8906" x1="8.125" y1="11.3751" x2="12.4305" y2="19.5519" gradientUnits="userSpaceOnUse">
<stop stop-color="#B5BBCE"/>
<stop offset="0.383804" stop-color="#A0A7BE"/>
<stop offset="1" stop-color="#728192"/>
</linearGradient>
</defs>
</svg>
