<svg width="24" height="24" viewBox="0 0 24 24" fill="none" xmlns="http://www.w3.org/2000/svg">
<path d="M19.7498 2C20.9925 2 21.9998 3.00736 21.9998 4.25V9.71196C21.9998 10.5738 21.6575 11.4003 21.0482 12.0098L21.0219 12.036C20.5795 11.7502 20.1001 11.5167 19.5925 11.3442L19.9874 10.9492C20.3155 10.6211 20.4998 10.176 20.4998 9.71196V4.25C20.4998 3.83579 20.164 3.5 19.7498 3.5H14.2845C13.82 3.5 13.3745 3.68467 13.0463 4.01333L4.53412 12.5358C3.86389 13.2207 3.86898 14.3191 4.54884 14.9977L9.01006 19.4522C9.64796 20.0877 10.6533 20.1309 11.3406 19.5825C11.505 20.0689 11.7254 20.5295 11.9941 20.9566C10.7371 21.7569 9.05041 21.6098 7.95079 20.5143L3.48909 16.0592C2.21862 14.7913 2.21699 12.7334 3.48531 11.4632L11.985 2.95334C12.5946 2.34297 13.4218 2 14.2845 2H19.7498ZM16.9998 5.50218C17.8282 5.50218 18.4998 6.17374 18.4998 7.00216C18.4998 7.83057 17.8282 8.50213 16.9998 8.50213C16.1714 8.50213 15.4998 7.83057 15.4998 7.00216C15.4998 6.17374 16.1714 5.50218 16.9998 5.50218ZM22.9998 17.5C22.9998 20.5376 20.5374 23 17.4998 23C14.4623 23 11.9998 20.5376 11.9998 17.5C11.9998 14.4624 14.4623 12 17.4998 12C20.5374 12 22.9998 14.4624 22.9998 17.5ZM17.4998 14C17.2237 14 16.9998 14.2239 16.9998 14.5V18.5C16.9998 18.7761 17.2237 19 17.4998 19C17.776 19 17.9998 18.7761 17.9998 18.5V14.5C17.9998 14.2239 17.776 14 17.4998 14ZM17.4998 21.125C17.845 21.125 18.1248 20.8452 18.1248 20.5C18.1248 20.1548 17.845 19.875 17.4998 19.875C17.1546 19.875 16.8748 20.1548 16.8748 20.5C16.8748 20.8452 17.1546 21.125 17.4998 21.125Z" fill="#212121"/>
</svg>
