<svg width="28" height="28" viewBox="0 0 28 28" fill="none" xmlns="http://www.w3.org/2000/svg">
<path d="M12.7013 3.90838C13.2332 2.83067 14.7699 2.83067 15.3018 3.90838L17.9928 9.3609L24.01 10.2353C25.1993 10.4081 25.6742 11.8696 24.8136 12.7085L23.7544 13.741C22.77 13.2662 21.6661 13.0001 20.5 13.0001C16.3579 13.0001 13 16.358 13 20.5001C13 21.0432 13.0577 21.5729 13.1674 22.0832L8.61958 24.4742C7.55582 25.0334 6.31254 24.1301 6.5157 22.9456L7.54357 16.9527L3.18947 12.7085C2.32887 11.8696 2.80376 10.4081 3.99308 10.2353L10.0103 9.3609L12.7013 3.90838ZM27 20.5C27 24.0899 24.0899 27 20.5 27C16.9101 27 14 24.0899 14 20.5C14 16.9101 16.9101 14 20.5 14C24.0899 14 27 16.9101 27 20.5ZM21 16.5C21 16.2239 20.7761 16 20.5 16C20.2239 16 20 16.2239 20 16.5V20H16.5C16.2239 20 16 20.2239 16 20.5C16 20.7761 16.2239 21 16.5 21H20V24.5C20 24.7761 20.2239 25 20.5 25C20.7761 25 21 24.7761 21 24.5V21H24.5C24.7761 21 25 20.7761 25 20.5C25 20.2239 24.7761 20 24.5 20H21V16.5Z" fill="#212121"/>
</svg>
