<svg width="16" height="16" viewBox="0 0 16 16" fill="none" xmlns="http://www.w3.org/2000/svg">
<path d="M12.5 1.75C12.5 1.33579 12.1642 1 11.75 1C11.3358 1 11 1.33579 11 1.75V2.52727C10.2508 1.85685 9.33217 1.37189 8.31624 1.14458C7.88229 1.04748 7.5004 1.40154 7.5004 1.84622C7.5004 2.23391 7.79472 2.55268 8.16917 2.65311C9.02528 2.88274 9.78063 3.35854 10.3547 4H8.75C8.33579 4 8 4.33579 8 4.75C8 5.16421 8.33579 5.5 8.75 5.5H11.75C12.1642 5.5 12.5 5.16421 12.5 4.75V1.75ZM5.68458 1.14457C6.11853 1.04748 6.5004 1.40154 6.5004 1.84622C6.5004 2.23391 6.20612 2.55267 5.83167 2.6531C5.44929 2.75566 5.087 2.90733 4.752 3.10093C4.41644 3.29486 3.98311 3.2774 3.70906 3.00335C3.39456 2.68885 3.41436 2.16845 3.78989 1.93014C4.3629 1.56651 5.00177 1.29735 5.68458 1.14457ZM4.75252 10.899C4.41697 10.7052 3.98369 10.7227 3.70966 10.9967C3.39514 11.3112 3.41497 11.8317 3.79057 12.07C4.3634 12.4334 5.00204 12.7024 5.68458 12.8551C5.85448 12.8931 6.01639 12.862 6.15052 12.7833C6.05211 12.3716 6 11.9419 6 11.5C6 11.4697 6.00025 11.4394 6.00073 11.4092C5.94689 11.3834 5.89026 11.3623 5.83167 11.3466C5.44949 11.2441 5.08738 11.0925 4.75252 10.899ZM2.65373 8.16882C2.55328 7.79439 2.23452 7.50014 1.84685 7.50014C1.40215 7.50014 1.04808 7.88203 1.1452 8.316C1.29781 8.99787 1.56649 9.63592 1.92941 10.2083C2.16764 10.584 2.68821 10.6039 3.0028 10.2894C3.27677 10.0154 3.29432 9.58221 3.10059 9.24667C2.90745 8.91218 2.75612 8.55052 2.65373 8.16882ZM3.10028 4.75353C3.29396 4.418 3.27637 3.98488 3.00243 3.71093C2.68781 3.39631 2.16718 3.41625 1.92898 3.79205C1.56616 4.36446 1.29757 5.0025 1.14505 5.68437C1.04798 6.11831 1.40204 6.50014 1.84671 6.50014C2.23441 6.50014 2.55318 6.20584 2.65359 5.83137C2.75593 5.44969 2.90721 5.08803 3.10028 4.75353ZM9.06671 8.44197C9.37 9.52312 8.724 10.642 7.63605 10.9199L7.175 11.0377C7.16002 11.1897 7.15234 11.3438 7.15234 11.4999C7.15234 11.6875 7.16345 11.8725 7.18501 12.0541L7.53457 12.1368C8.65401 12.4015 9.31999 13.5536 8.99065 14.6557L8.86432 15.0785C9.1215 15.2817 9.40124 15.4559 9.69897 15.5964L10.024 15.2523C10.8138 14.416 12.1445 14.4167 12.9335 15.2538L13.2708 15.6118C13.5632 15.4769 13.8386 15.3095 14.0927 15.1142L13.9365 14.5575C13.6333 13.4764 14.2793 12.3575 15.3672 12.0796L15.8277 11.9619C15.8427 11.81 15.8504 11.6559 15.8504 11.4999C15.8504 11.3121 15.8393 11.127 15.8177 10.9452L15.4687 10.8627C14.3492 10.5981 13.6833 9.44593 14.0126 8.34378L14.1388 7.92148C13.8816 7.7182 13.6018 7.54393 13.304 7.40341L12.9793 7.7472C12.1895 8.58349 10.8587 8.58279 10.0698 7.74567L9.73241 7.3877C9.43998 7.52258 9.1646 7.68988 8.91051 7.88518L9.06671 8.44197ZM11.5014 12.4999C10.9491 12.4999 10.5014 12.0521 10.5014 11.4999C10.5014 10.9476 10.9491 10.4999 11.5014 10.4999C12.0536 10.4999 12.5014 10.9476 12.5014 11.4999C12.5014 12.0521 12.0536 12.4999 11.5014 12.4999Z" fill="#212121"/>
</svg>
