<svg width="16" height="16" viewBox="0 0 16 16" fill="none" xmlns="http://www.w3.org/2000/svg">
<path d="M2 8C2 8.41422 2.33579 8.75 2.75 8.75L11.537 8.75L8.24991 11.6911C7.94122 11.9673 7.91488 12.4414 8.19107 12.7501C8.46727 13.0588 8.94141 13.0851 9.2501 12.8089L14.0001 8.55893C14.1591 8.41665 14.25 8.21338 14.25 8C14.25 7.78663 14.1591 7.58335 14.0001 7.44107L9.2501 3.19108C8.94141 2.91488 8.46727 2.94122 8.19107 3.24991C7.91488 3.5586 7.94122 4.03274 8.24991 4.30894L11.537 7.25L2.75 7.25C2.33579 7.25 2 7.58579 2 8Z" fill="#212121"/>
</svg>
