<?xml version="1.0" encoding="UTF-8"?>
<svg width="24px" height="24px" viewBox="0 0 24 24" version="1.1" xmlns="http://www.w3.org/2000/svg" xmlns:xlink="http://www.w3.org/1999/xlink">
    <!-- Generator: Sketch 64 (93537) - https://sketch.com -->
    <title>ic_fluent_arrow_right_24_regular</title>
    <desc>Created with Sketch.</desc>
    <g id="ðŸ”-System-Icons" stroke="none" stroke-width="1" fill="none" fill-rule="evenodd">
        <g id="ic_fluent_arrow_right_24_regular" fill="#212121" fill-rule="nonzero">
            <path d="M13.2673,4.20926 C12.9674,3.92357 12.4926,3.93511 12.2069,4.23504 C11.9212,4.53497 11.9328,5.0097 12.2327,5.29539 L18.4841,11.25 L3.75,11.25 C3.33579,11.25 3,11.5858 3,12 C3,12.4142 3.33579,12.75 3.75,12.75 L18.4842,12.75 L12.2327,18.7047 C11.9328,18.9904 11.9212,19.4651 12.2069,19.7651 C12.4926,20.065 12.9674,20.0765 13.2673,19.7908 L20.6862,12.7241 C20.8551,12.5632 20.9551,12.358 20.9861,12.1446 C20.9952,12.0978 21,12.0495 21,12 C21,11.9504 20.9952,11.902 20.986,11.8551 C20.955,11.6419 20.855,11.4368 20.6862,11.276 L13.2673,4.20926 Z" id="ðŸŽ¨-Color"></path>
        </g>
    </g>
</svg>