<svg width="20" height="20" viewBox="0 0 20 20" fill="none" xmlns="http://www.w3.org/2000/svg">
<path d="M14 3C15.6569 3 17 4.34315 17 6V14C17 15.6569 15.6569 17 14 17H6C4.34315 17 3 15.6569 3 14V10.3984C3.31686 10.5605 3.65127 10.6923 4 10.791V14C4 14.3726 4.10183 14.7218 4.2793 15.0205L8.94824 10.4316C9.53183 9.8582 10.4682 9.8582 11.0518 10.4316L15.7207 15.0205C15.8982 14.7218 16 14.3726 16 14V6C16 4.89543 15.1046 4 14 4H10.792C10.6933 3.65118 10.5605 3.31694 10.3984 3H14ZM10.3506 11.1455C10.1561 10.9544 9.84394 10.9544 9.64941 11.1455L4.98828 15.7256C5.28509 15.9 5.63086 16 6 16H14C14.3691 16 14.7149 15.9 15.0117 15.7256L10.3506 11.1455ZM5.5 1C7.98528 1 10 3.01472 10 5.5C10 7.98528 7.98528 10 5.5 10C3.01472 10 1 7.98528 1 5.5C1 3.01472 3.01472 1 5.5 1ZM12.5 6C13.3284 6 14 6.67157 14 7.5C14 8.32843 13.3284 9 12.5 9C11.6716 9 11 8.32843 11 7.5C11 6.67157 11.6716 6 12.5 6ZM12.5 7C12.2239 7 12 7.22386 12 7.5C12 7.77614 12.2239 8 12.5 8C12.7761 8 13 7.77614 13 7.5C13 7.22386 12.7761 7 12.5 7ZM7.35352 3.64648C7.15825 3.45122 6.84175 3.45122 6.64648 3.64648L5.5 4.79297L4.35352 3.64648C4.15825 3.45122 3.84175 3.45122 3.64648 3.64648C3.45122 3.84175 3.45122 4.15825 3.64648 4.35352L4.79297 5.5L3.64648 6.64648C3.45122 6.84175 3.45122 7.15825 3.64648 7.35352C3.84175 7.54878 4.15825 7.54878 4.35352 7.35352L5.5 6.20703L6.64648 7.35352C6.84175 7.54878 7.15825 7.54878 7.35352 7.35352C7.54878 7.15825 7.54878 6.84175 7.35352 6.64648L6.20703 5.5L7.35352 4.35352C7.54878 4.15825 7.54878 3.84175 7.35352 3.64648Z" fill="#212121"/>
</svg>
