<svg width="16" height="16" viewBox="0 0 16 16" fill="none" xmlns="http://www.w3.org/2000/svg">
<path d="M2 10C2 11.8026 3.55468 13.653 6.22176 13.9567C5.93668 13.6043 5.69426 13.216 5.50235 12.7996C3.88187 12.333 3 11.1281 3 10V9.5C3 9.22386 3.22386 9 3.5 9H5.20703C5.30564 8.65136 5.43777 8.31679 5.59971 8H3.5C2.67157 8 2 8.67157 2 9.5V10Z" fill="#212121"/>
<path d="M9.75 4.25C9.75 4.53525 9.70657 4.81036 9.62596 5.06907C9.14016 5.14664 8.67558 5.28783 8.24104 5.48382C8.55561 5.16743 8.75 4.73141 8.75 4.25C8.75 3.2835 7.9665 2.5 7 2.5C6.0335 2.5 5.25 3.2835 5.25 4.25C5.25 5.2165 6.0335 6 7 6C7.13934 6 7.27488 5.98371 7.40482 5.95294C7.00446 6.226 6.64202 6.55055 6.32704 6.91706C5.13357 6.61687 4.25 5.53662 4.25 4.25C4.25 2.73122 5.48122 1.5 7 1.5C8.51878 1.5 9.75 2.73122 9.75 4.25Z" fill="#212121"/>
<path d="M15 10.5C15 12.9853 12.9853 15 10.5 15C8.01472 15 6 12.9853 6 10.5C6 8.01472 8.01472 6 10.5 6C12.9853 6 15 8.01472 15 10.5ZM10.5 8C10.2239 8 10 8.22386 10 8.5V10.5C10 10.7761 10.2239 11 10.5 11H12C12.2761 11 12.5 10.7761 12.5 10.5C12.5 10.2239 12.2761 10 12 10H11V8.5C11 8.22386 10.7761 8 10.5 8Z" fill="#212121"/>
</svg>
