<svg width="20" height="20" viewBox="0 0 20 20" fill="none" xmlns="http://www.w3.org/2000/svg">
<path d="M17 14.5V10.4003C17.3578 10.2174 17.6929 9.99647 18 9.74284V14.5C18 15.8807 16.8807 17 15.5 17H4.5C3.11929 17 2 15.8807 2 14.5V6.5C2 5.11929 3.11929 4 4.5 4H9.20703C9.11588 4.32228 9.05337 4.65659 9.02242 5H4.5C3.67157 5 3 5.67157 3 6.5V6.802L10 10.9199L11.4414 10.0718C11.766 10.2894 12.1151 10.4733 12.4836 10.6186L10.2535 11.931C10.1231 12.0077 9.96661 12.0205 9.82751 11.9693L9.74649 11.931L3 7.963V14.5C3 15.3284 3.67157 16 4.5 16H15.5C16.3284 16 17 15.3284 17 14.5ZM14.5 10C16.9853 10 19 7.98528 19 5.5C19 3.01472 16.9853 1 14.5 1C12.0147 1 10 3.01472 10 5.5C10 7.98528 12.0147 10 14.5 10ZM16.5 5.79289L16.8536 6.14645C16.9966 6.28945 17.0393 6.5045 16.962 6.69134C16.8846 6.87818 16.7022 7 16.5 7H12.5C12.2978 6.99999 12.1155 6.87817 12.0381 6.69134C11.9607 6.5045 12.0035 6.28945 12.1465 6.14645L12.5 5.79289V4C12.5 2.89543 13.3954 2 14.5 2C15.6046 2 16.5 2.89543 16.5 4V5.79289ZM14.5 9C13.8469 9 13.2913 8.5826 13.0854 8H15.9147C15.7087 8.5826 15.1531 9 14.5 9Z" fill="#212121"/>
</svg>
