<svg width="24" height="24" viewBox="0 0 24 24" fill="none" xmlns="http://www.w3.org/2000/svg">
<path d="M23 6.5C23 9.53757 20.5376 12 17.5 12C14.4624 12 12 9.53757 12 6.5C12 3.46243 14.4624 1 17.5 1C20.5376 1 23 3.46243 23 6.5ZM15 5.5V6.38197L14.5528 7.27639C14.4753 7.43139 14.4836 7.61546 14.5747 7.76287C14.6658 7.91027 14.8267 8 15 8H20C20.1733 8 20.3342 7.91027 20.4253 7.76287C20.5164 7.61546 20.5247 7.43139 20.4472 7.27639L20 6.38197V5.5C20 4.11929 18.8807 3 17.5 3C16.1193 3 15 4.11929 15 5.5ZM17.5001 10C18.1532 10 18.7088 9.5826 18.9147 9H16.0854C16.2914 9.5826 16.847 10 17.5001 10ZM20.5 16.75V12.2678C21.051 11.9806 21.5557 11.6168 22 11.1904V16.75C22 18.483 20.6435 19.8992 18.9344 19.9949L18.75 20H5.25C3.51697 20 2.10075 18.6435 2.00514 16.9344L2 16.75V7.25C2 5.51697 3.35645 4.10075 5.06558 4.00514L5.25 4H11.4982C11.3004 4.47417 11.1572 4.97679 11.0764 5.5H5.25C4.33183 5.5 3.57881 6.20711 3.5058 7.10647L3.5 7.25V7.679L12 12.1525L13.3052 11.4654C13.7437 11.8363 14.232 12.1501 14.7587 12.3954L12.3493 13.6637C12.1619 13.7623 11.9431 13.7764 11.7468 13.706L11.6507 13.6637L3.5 9.374V16.75C3.5 17.6682 4.20711 18.4212 5.10647 18.4942L5.25 18.5H18.75C19.6682 18.5 20.4212 17.7929 20.4942 16.8935L20.5 16.75Z" fill="#212121"/>
</svg>
