<svg width="16" height="16" viewBox="0 0 16 16" fill="none" xmlns="http://www.w3.org/2000/svg">
<path d="M12 10.793V13C12 13.5523 11.5523 14 11 14H3C2.44772 14 2 13.5523 2 13V8.87552L6.76305 11.4402C6.91104 11.5199 7.08916 11.5199 7.23715 11.4402L8.64816 10.6805C8.25794 10.541 7.88809 10.3586 7.54428 10.1391L7.0001 10.4321L2 7.73976V7C2 6.44772 2.44772 6 3 6H5.02242C5.00758 5.83532 5 5.66854 5 5.5C5 5.33146 5.00758 5.16468 5.02242 5H3C1.89543 5 1 5.89543 1 7V13C1 14.1046 1.89543 15 3 15H11C12.1046 15 13 14.1046 13 13V10.4003C12.6832 10.5622 12.3486 10.6944 12 10.793ZM10.5 10C12.9853 10 15 7.98528 15 5.5C15 3.01472 12.9853 1 10.5 1C8.01472 1 6 3.01472 6 5.5C6 7.98528 8.01472 10 10.5 10ZM12.5 5.79289L12.8536 6.14645C12.9966 6.28945 13.0393 6.5045 12.962 6.69134C12.8846 6.87818 12.7022 7 12.5 7H8.5C8.29777 6.99999 8.11546 6.87817 8.03807 6.69134C7.96068 6.5045 8.00346 6.28945 8.14646 6.14645L8.50001 5.79289V4C8.50001 2.89543 9.39544 2 10.5 2C11.6046 2 12.5 2.89543 12.5 4V5.79289ZM10.5 9C9.84691 9 9.29129 8.5826 9.08537 8H11.9147C11.7087 8.5826 11.1531 9 10.5 9Z" fill="#212121"/>
</svg>
