<svg width="48" height="48" viewBox="0 0 48 48" fill="none" xmlns="http://www.w3.org/2000/svg">
<path d="M8.24815 8C6.5248 8 5.04102 9.02574 4.37402 10.5H43.6223C42.9553 9.02574 41.4715 8 39.7482 8H8.24815ZM30.6153 15.5H43.999V18H31.748C31.515 17.0947 31.1275 16.2515 30.6153 15.5ZM17.3847 15.5H4V18H16.252C16.485 17.0947 16.8725 16.2515 17.3847 15.5ZM16.4852 22.75H4V25.25H17.9635C17.3287 24.5208 16.8239 23.6754 16.4852 22.75ZM12.1497 30H4V32.5H12V31.25C12 30.8192 12.0519 30.4006 12.1497 30ZM36 32.5V31.25C36 30.8192 35.9481 30.4006 35.8503 30H43.999V32.5H36ZM12 37.5H4.375C5.04199 38.9743 6.52577 40 8.24913 40H12V37.5ZM36 40V37.5H43.6233C42.9563 38.9743 41.4725 40 39.7491 40H36ZM30.0365 25.25C30.6713 24.5208 31.1761 23.6754 31.5148 22.75H43.999V25.25H30.0365ZM16.5 31.25C16.5 30.8358 16.8358 30.5 17.25 30.5H30.75C31.1642 30.5 31.5 30.8358 31.5 31.25V40H34V31.25C34 29.4551 32.5449 28 30.75 28H17.25C15.4551 28 14 29.4551 14 31.25V40H16.5V31.25ZM24 26C27.3137 26 30 23.3137 30 20C30 16.6863 27.3137 14 24 14C20.6863 14 18 16.6863 18 20C18 23.3137 20.6863 26 24 26ZM24 16.5C25.933 16.5 27.5 18.067 27.5 20C27.5 21.933 25.933 23.5 24 23.5C22.067 23.5 20.5 21.933 20.5 20C20.5 18.067 22.067 16.5 24 16.5Z" fill="#212121"/>
</svg>
