<svg width="20" height="20" viewBox="0 0 20 20" fill="none" xmlns="http://www.w3.org/2000/svg">
<path d="M10 2.5C14.1421 2.5 17.5 5.85786 17.5 10C17.5 10.4142 17.1642 10.75 16.75 10.75C16.3358 10.75 16 10.4142 16 10C16 6.68629 13.3137 4 10 4C6.68629 4 4 6.68629 4 10C4 12.0069 4.9867 13.7818 6.5 14.8711V13.25C6.5 12.8358 6.83579 12.5 7.25 12.5C7.66421 12.5 8 12.8358 8 13.25V16.75C8 17.1642 7.66421 17.5 7.25 17.5H3.75C3.33579 17.5 3 17.1642 3 16.75C3 16.3358 3.33579 16 3.75 16H5.50293C3.68003 14.6321 2.5 12.4545 2.5 10C2.5 5.85786 5.85786 2.5 10 2.5ZM10 7.5C11.3807 7.5 12.5 8.61929 12.5 10C12.5 11.3807 11.3807 12.5 10 12.5C8.61929 12.5 7.5 11.3807 7.5 10C7.5 8.61929 8.61929 7.5 10 7.5ZM10 9C9.44772 9 9 9.44772 9 10C9 10.5523 9.44772 11 10 11C10.5523 11 11 10.5523 11 10C11 9.44772 10.5523 9 10 9Z" fill="#212121"/>
</svg>
