<svg width="32" height="32" viewBox="0 0 32 32" fill="none" xmlns="http://www.w3.org/2000/svg">
<path d="M13.5 6.5C13.5 5.11929 14.6193 4 16 4C17.3807 4 18.5 5.11929 18.5 6.5C18.5 7.88071 17.3807 9 16 9C14.6193 9 13.5 7.88071 13.5 6.5ZM16 2C13.5147 2 11.5 4.01472 11.5 6.5C11.5 6.93498 11.5617 7.35555 11.6769 7.75343L7.07377 6.16845C5.46926 5.61598 3.72068 6.46882 3.16821 8.07332C2.61573 9.67783 3.46857 11.4264 5.07308 11.9789L11 14.0197V17.7781C11 17.9301 10.9654 18.08 10.8988 18.2165L7.30741 25.58C6.56351 27.1052 7.19689 28.9447 8.72211 29.6886C10.2473 30.4325 12.0868 29.7991 12.8307 28.2739L15.9978 21.7803L19.165 28.2739C19.9089 29.7991 21.7483 30.4325 23.2736 29.6886C24.7988 28.9447 25.4322 27.1052 24.6883 25.58L21.1012 18.2254C21.0346 18.0889 21 17.939 21 17.787V14.0197L26.9269 11.9789C28.5314 11.4264 29.3842 9.67783 28.8317 8.07332C28.2793 6.46882 26.5307 5.61598 24.9262 6.16845L20.3231 7.75341C20.4383 7.35554 20.5 6.93498 20.5 6.5C20.5 4.01472 18.4853 2 16 2ZM5.05924 8.72446C5.25211 8.16434 5.86252 7.86663 6.42263 8.05949L14.0466 10.6846C15.3124 11.1205 16.6876 11.1205 17.9534 10.6846L25.5773 8.05949C26.1374 7.86663 26.7478 8.16434 26.9407 8.72446C27.1336 9.28458 26.8358 9.89498 26.2757 10.0878L20.0117 12.2447C19.4063 12.4532 19 13.0228 19 13.663V17.787C19 18.2428 19.1038 18.6925 19.3036 19.1022L22.8907 26.4567C23.1504 26.9891 22.9293 27.6313 22.3968 27.891C21.8644 28.1507 21.2222 27.9295 20.9626 27.3971L17.7954 20.9035C17.065 19.4059 14.9307 19.4059 14.2002 20.9035L11.0331 27.3971C10.7734 27.9295 10.1313 28.1507 9.59885 27.891C9.06642 27.6313 8.84531 26.9891 9.10499 26.4567L12.6964 19.0933C12.8962 18.6836 13 18.2339 13 17.7781V13.663C13 13.0228 12.5937 12.4532 11.9884 12.2448L5.72421 10.0878C5.1641 9.89498 4.86638 9.28457 5.05924 8.72446Z" fill="#212121"/>
</svg>
