<svg width="20" height="20" viewBox="0 0 20 20" fill="none" xmlns="http://www.w3.org/2000/svg">
<path d="M4.02986 9.392C4.05155 9.36175 4.08185 9.33875 4.11681 9.326L4.57257 9.179C4.71028 9.13154 4.83514 9.05281 4.93737 8.949C4.98875 8.89627 5.03401 8.8379 5.0723 8.775C5.10929 8.71347 5.13945 8.64809 5.16225 8.58L5.31116 8.121C5.32356 8.08583 5.34662 8.05542 5.37713 8.034C5.38899 8.02564 5.40172 8.0186 5.41511 8.013C5.43646 8.00466 5.45915 8.00025 5.48207 8C5.51804 8.00108 5.55285 8.01292 5.58202 8.034C5.59313 8.04128 5.60322 8.05003 5.612 8.06C5.62773 8.07789 5.63994 8.09858 5.64798 8.121L5.7969 8.58C5.84351 8.7197 5.92186 8.84669 6.02578 8.951C6.13006 9.0547 6.257 9.13275 6.39658 9.179L6.85533 9.328H6.86432C6.87583 9.33178 6.88689 9.33681 6.89731 9.343C6.91904 9.3559 6.93778 9.37329 6.95228 9.394C6.97321 9.42319 6.98472 9.45808 6.98525 9.494C6.98569 9.53162 6.97414 9.5684 6.95228 9.599C6.93081 9.62989 6.89997 9.65303 6.86432 9.665L6.40557 9.814C6.26595 9.86064 6.13902 9.93903 6.03477 10.043C5.93103 10.1469 5.85299 10.2736 5.8069 10.413L5.65698 10.872C5.64501 10.9077 5.62188 10.9385 5.59101 10.96C5.56176 10.9808 5.52694 10.9923 5.49107 10.993C5.45517 10.9925 5.42029 10.9809 5.39112 10.96C5.36026 10.9383 5.33687 10.9075 5.32416 10.872L5.17524 10.413C5.12939 10.2732 5.05133 10.1461 4.94736 10.042C4.8431 9.93781 4.7162 9.8591 4.57656 9.812L4.11681 9.663C4.08166 9.6506 4.05127 9.62753 4.02986 9.597C4.00782 9.56642 3.99594 9.5297 3.99588 9.492C3.99714 9.45605 4.00896 9.42127 4.02986 9.392ZM2.32274 8.943C2.3736 8.97896 2.43438 8.99818 2.49665 8.998C2.55926 8.99839 2.62042 8.97916 2.67155 8.943C2.68745 8.93109 2.70248 8.91805 2.71653 8.904C2.74058 8.87808 2.76017 8.84834 2.7745 8.816L2.78149 8.797L3.03036 8.032C3.1078 7.79959 3.23815 7.58837 3.41115 7.415C3.58443 7.24143 3.79599 7.11094 4.02881 7.034L4.7934 6.785C4.85266 6.7646 4.90404 6.72613 4.94032 6.675C4.97646 6.62384 4.99568 6.56265 4.99529 6.5C4.99547 6.4377 4.97626 6.37688 4.94032 6.326C4.9039 6.27478 4.85261 6.23602 4.7934 6.215H4.77841L4.01382 5.966C3.78117 5.88869 3.5697 5.75825 3.39616 5.585C3.2828 5.46714 3.1887 5.33215 3.11731 5.185C3.078 5.11524 3.04457 5.04232 3.01736 4.967L2.7685 4.202C2.74792 4.14308 2.70949 4.09204 2.65856 4.056C2.60755 4.01949 2.54637 3.9999 2.48365 4C2.42093 3.9999 2.35976 4.01949 2.30875 4.056C2.25781 4.09204 2.21938 4.14308 2.19881 4.202L1.94994 4.967L1.94395 4.986C1.867 5.20942 1.74098 5.41274 1.57515 5.581C1.40472 5.75445 1.19636 5.8859 0.966476 5.965L0.201891 6.214C0.142998 6.23459 0.0919894 6.27304 0.0559704 6.324C0.0196781 6.37476 0.000113349 6.43559 3.47726e-07 6.498C-9.51444e-05 6.56076 0.0194796 6.62196 0.0559704 6.673C0.0919894 6.72396 0.142998 6.76242 0.201891 6.783L0.966476 7.032C1.19966 7.10979 1.4115 7.24093 1.58514 7.415C1.63158 7.46149 1.67498 7.51093 1.71507 7.563C1.82462 7.70458 1.90913 7.86388 1.96493 8.034L2.2138 8.799C2.23447 8.85706 2.27251 8.90734 2.32274 8.943ZM2.50005 10C2.67107 10 2.8413 9.9654 3 9.89748V14C3 14.5523 3.44772 15 4 15H16C16.5523 15 17 14.5523 17 14V6C17 5.44772 16.5523 5 16 5H4.27463C4.20564 4.96884 4.14909 4.93088 4.10975 4.89489C4.04881 4.8262 4.0256 4.78714 4.01626 4.76711L3.9988 4.72971L3.97832 4.69386C3.97558 4.68906 3.96862 4.67651 3.95289 4.63591L3.74885 4.01562C3.83112 4.00531 3.91494 4 4 4H16C17.1046 4 18 4.89543 18 6V14C18 15.1046 17.1046 16 16 16H4C2.89543 16 2 15.1046 2 14V9.89743C2.15874 9.96539 2.329 10 2.50005 10Z" fill="#212121"/>
</svg>
