<svg width="24" height="24" viewBox="0 0 24 24" fill="none" xmlns="http://www.w3.org/2000/svg">
<path d="M6.56153 8.00131C6.7836 8.01547 6.99799 8.09032 7.18105 8.21832L7.19091 8.22522L7.2006 8.23235C7.26169 8.27729 7.31864 8.3277 7.37075 8.38299L7.38258 8.39554L7.39396 8.40848C7.49476 8.52312 7.57324 8.65567 7.62525 8.79931L7.63094 8.81502L7.80849 9.36173C7.81324 9.3753 7.82089 9.38771 7.83094 9.39808C7.84361 9.41025 7.85873 9.41962 7.87533 9.42558L8.25246 9.54818H8.28826L8.45961 9.61317C8.52271 9.6371 8.58353 9.66595 8.64154 9.69931L8.64843 9.70327L8.65525 9.70735C8.7987 9.79291 8.923 9.90724 9.02025 10.0432C9.16774 10.2494 9.24667 10.4966 9.246 10.7499C9.24579 10.9998 9.16806 11.2434 9.02362 11.4472L9.02602 11.4438L9.01937 11.4532L9.02362 11.4472C8.88198 11.6479 8.68264 11.8008 8.45207 11.8856L8.43398 11.8922L7.88458 12.0705C7.87034 12.0755 7.8574 12.0836 7.84676 12.0943L7.84515 12.0959C7.83446 12.1065 7.82637 12.1194 7.82145 12.1336L7.64011 12.6909L7.62976 12.7175C7.54315 12.9397 7.3933 13.1318 7.19872 13.2699L7.19361 13.2735C6.98923 13.4166 6.74574 13.4929 6.49653 13.4923C6.24939 13.4922 6.00801 13.4165 5.80487 13.2752L5.80136 13.2728C5.59993 13.1313 5.44636 12.9319 5.36103 12.7011L5.35418 12.6826L5.17511 12.1322C5.17033 12.1181 5.16216 12.1044 5.15162 12.0937C5.13932 12.0816 5.12456 12.0724 5.10834 12.0665L4.57098 11.8918L4.56119 11.8884C4.31996 11.8044 4.11192 11.6457 3.96723 11.4354C3.83184 11.2402 3.75679 11.0096 3.75132 10.7722C3.52868 10.9184 3.26787 10.9965 3.00096 10.9964C2.72046 10.9965 2.44677 10.91 2.21723 10.7487L2.21529 10.7474C2.13668 10.6919 2.06459 10.6285 2 10.5586V17.75C2 18.9926 3.00736 20 4.25 20H19.75C20.9926 20 22 18.9926 22 17.75V6.25C22 5.00736 20.9926 4 19.75 4H4.29801L4.57442 4.84545L4.57487 4.8468C4.6181 4.97678 4.69104 5.09495 4.78795 5.19192C4.88625 5.28952 5.00565 5.3633 5.13699 5.40756L5.90105 5.65688H5.93114L6.09253 5.71377C6.3561 5.8067 6.58494 5.97821 6.7481 6.20527L6.75565 6.21577C6.91614 6.44531 7.00211 6.7187 7.00202 6.9988C7.00207 7.27942 6.91548 7.5532 6.75409 7.78276L6.74686 7.79304C6.69204 7.86897 6.62984 7.93865 6.56153 8.00131ZM2.66095 9.75546L2.36095 8.83886C2.29293 8.63653 2.19153 8.447 2.06095 8.2781C2.0125 8.21578 1.96041 8.15637 1.90495 8.10018C1.69657 7.89179 1.44254 7.73472 1.16295 7.64139L0.243954 7.34151C0.173182 7.31652 0.111996 7.27004 0.0689545 7.20857C0.0256498 7.14749 0.00225126 7.07453 0.00195312 6.99966C0.00225126 6.9248 0.0256498 6.85184 0.0689545 6.79076C0.111996 6.72929 0.173182 6.68281 0.243954 6.65781L1.16295 6.35795C1.43894 6.26281 1.68914 6.10509 1.89395 5.89715C2.09288 5.69533 2.24393 5.45143 2.33595 5.18346L2.34295 5.16047L2.64295 4.24287C2.66793 4.17239 2.71402 4.11131 2.77495 4.06795C2.83649 4.02476 2.90976 4.00139 2.98495 4.00098C3.05985 4.00127 3.13284 4.02466 3.19395 4.06795C3.25545 4.11097 3.30195 4.17213 3.32695 4.24287L3.62695 5.16047C3.71931 5.43965 3.87583 5.69333 4.08395 5.90115C4.29239 6.10851 4.546 6.26486 4.82495 6.35795L5.74395 6.65781H5.76195C5.83274 6.68277 5.89417 6.72882 5.93795 6.78976C5.98098 6.8513 6.00402 6.92458 6.00395 6.99966C6.00401 7.07443 5.98096 7.1474 5.93795 7.20857C5.89395 7.26952 5.83263 7.31584 5.76195 7.34151L4.84395 7.64139C4.56472 7.73387 4.31098 7.89029 4.10295 8.09818C3.89432 8.30578 3.73743 8.5595 3.64495 8.83886L3.34495 9.75546L3.33695 9.77845C3.3198 9.81748 3.29613 9.85331 3.26695 9.8844C3.25015 9.90139 3.2321 9.91709 3.21295 9.93138C3.15138 9.97439 3.07807 9.99742 3.00295 9.99735C2.92815 9.99741 2.85516 9.97437 2.79395 9.93138C2.73243 9.88795 2.68596 9.82647 2.66095 9.75546ZM5.42693 10.3732L4.89193 10.5471C4.85116 10.5613 4.81608 10.5883 4.79193 10.6241C4.76672 10.6598 4.75311 10.7023 4.75293 10.746C4.75311 10.7897 4.76672 10.8323 4.79193 10.868C4.81608 10.9038 4.85116 10.9308 4.89193 10.945L5.42693 11.1189C5.58993 11.1737 5.73809 11.2654 5.85993 11.3868C5.98167 11.5085 6.07313 11.6571 6.12693 11.8206L6.30093 12.3553C6.31585 12.3957 6.34271 12.4306 6.37793 12.4553C6.41372 12.4802 6.45632 12.4935 6.49993 12.4933C6.54356 12.4936 6.5862 12.4803 6.62193 12.4553C6.65714 12.4303 6.68426 12.3955 6.69993 12.3553L6.87393 11.8206C6.92801 11.6578 7.01945 11.5099 7.14093 11.3888C7.26213 11.2673 7.41007 11.1759 7.57293 11.1219L8.10893 10.9479C8.14934 10.9331 8.18423 10.9062 8.20893 10.871C8.23444 10.8354 8.24809 10.7928 8.24793 10.749C8.24823 10.705 8.23458 10.6619 8.20893 10.6261C8.19191 10.6022 8.17011 10.5821 8.14493 10.5671C8.13276 10.5601 8.12006 10.5541 8.10693 10.5491H8.09593L7.56093 10.3752C7.3981 10.3204 7.24998 10.2292 7.12793 10.1083C7.00645 9.98717 6.91502 9.83929 6.86093 9.67651L6.68693 9.14074C6.67749 9.11467 6.66324 9.09059 6.64493 9.06977C6.63422 9.05841 6.62251 9.04804 6.60993 9.03878C6.57414 9.01376 6.5316 9.00017 6.48793 8.9998C6.46087 8.99964 6.43405 9.00473 6.40893 9.01479C6.39375 9.0218 6.37904 9.02982 6.36493 9.03878C6.32992 9.06374 6.30312 9.09853 6.28793 9.13874L6.11393 9.6745C6.08899 9.75356 6.05546 9.82965 6.01393 9.90141C5.96858 9.97351 5.91561 10.0405 5.85593 10.1013C5.73567 10.2236 5.58889 10.3166 5.42693 10.3732Z" fill="#212121"/>
</svg>
