<svg width="48" height="48" viewBox="0 0 48 48" fill="none" xmlns="http://www.w3.org/2000/svg">
<path d="M24 4C19.8817 4 16.4902 7.11186 16.0487 11.1125C11.2394 13.872 8 19.0577 8 25V38.75C8 41.6495 10.3505 44 13.25 44H25.6191C24.8971 43.2476 24.2647 42.4086 23.7392 41.5H13.25C11.7312 41.5 10.5 40.2688 10.5 38.75V30.5H16V33.75C16 34.4404 16.5596 35 17.25 35C17.9404 35 18.5 34.4404 18.5 33.75V30.5H22.7999C23.1255 29.6177 23.544 28.7804 24.0436 28H10.5V25C10.5 17.5442 16.5442 11.5 24 11.5C30.491 11.5 35.9121 16.0811 37.2064 22.1865C38.1309 22.3445 39.0221 22.6002 39.8689 22.9425C39.2183 17.8743 36.1964 13.5482 31.9513 11.1125C31.5098 7.11186 28.1183 4 24 4ZM24 9C22.2362 9 20.539 9.28541 18.9522 9.81256C19.798 7.86336 21.7398 6.5 24 6.5C26.2602 6.5 28.202 7.86336 29.0478 9.81256C27.461 9.28541 25.7638 9 24 9ZM28.0686 24C29.1809 23.2976 30.4072 22.7593 31.7134 22.419C31.8969 22.0447 32 21.6237 32 21.1786C32 18.3185 29.6815 16 26.8214 16H21.1786C18.3185 16 16 18.3185 16 21.1786C16 22.7368 17.2632 24 18.8214 24H28.0686ZM21.1786 18.5H26.8214C28.3008 18.5 29.5 19.6992 29.5 21.1786C29.5 21.3561 29.3561 21.5 29.1786 21.5H18.8214C18.6439 21.5 18.5 21.3561 18.5 21.1786C18.5 19.6992 19.6992 18.5 21.1786 18.5ZM46 35C46 41.0751 41.0751 46 35 46C28.9249 46 24 41.0751 24 35C24 28.9249 28.9249 24 35 24C41.0751 24 46 28.9249 46 35ZM36 28C36 27.4477 35.5523 27 35 27C34.4477 27 34 27.4477 34 28V34H28C27.4477 34 27 34.4477 27 35C27 35.5523 27.4477 36 28 36H34V42C34 42.5523 34.4477 43 35 43C35.5523 43 36 42.5523 36 42V36H42C42.5523 36 43 35.5523 43 35C43 34.4477 42.5523 34 42 34H36V28Z" fill="#212121"/>
</svg>
