<svg width="28" height="28" viewBox="0 0 28 28" fill="none" xmlns="http://www.w3.org/2000/svg">
<path d="M12.9986 10.8182L12.9968 10.8306C12.9531 11.3727 12.483 11.782 11.9379 11.7481C11.3867 11.7138 10.9677 11.2391 11.002 10.6879C11.0076 10.8746 11.002 10.6866 11.002 10.6866L11.0021 10.6852L11.0023 10.6824L11.0028 10.6761L11.0039 10.6611C11.0048 10.6502 11.0061 10.6371 11.0076 10.6221C11.0108 10.5922 11.0155 10.5545 11.0225 10.5099C11.0363 10.4212 11.0594 10.3038 11.0978 10.167C11.174 9.89567 11.3152 9.53263 11.5783 9.16651C12.1395 8.38544 13.1399 7.75 14.7495 7.75C16.0942 7.75 17.3033 8.2023 18.1132 9.11925C18.9298 10.0438 19.2201 11.3046 18.9856 12.6693C18.7835 13.8458 18.1199 14.5656 17.3376 15.0371C16.8086 15.3559 16.1535 15.5931 15.6058 15.7915C15.4411 15.8511 15.2856 15.9074 15.1467 15.9612C14.465 16.225 13.9624 16.4902 13.6118 16.8934C13.3995 17.1376 13.204 17.479 13.0936 18H18C18.5523 18 19 18.4477 19 19C19 19.5523 18.5523 20 18 20H12C11.7348 20 11.4805 19.8946 11.2929 19.7071C11.1054 19.5196 11 19.2652 11 19C11 17.5038 11.3924 16.3979 12.1025 15.5812C12.7876 14.7932 13.6779 14.3851 14.4247 14.096C14.6657 14.0027 14.8842 13.9234 15.085 13.8505C15.5739 13.673 15.9578 13.5336 16.3053 13.3241C16.7015 13.0853 16.9309 12.8173 17.0145 12.3307C17.1666 11.4454 16.9568 10.8312 16.6142 10.4433C16.2648 10.0477 15.6554 9.75 14.7495 9.75C13.7341 9.75 13.3598 10.1146 13.2025 10.3335C13.1063 10.4674 13.0523 10.6043 13.0232 10.708C13.009 10.7587 13.0018 10.7976 12.9986 10.8182ZM8.75 20C9.16421 20 9.5 19.6642 9.5 19.25C9.5 18.8358 9.16421 18.5 8.75 18.5C8.33579 18.5 8 18.8358 8 19.25C8 19.6642 8.33579 20 8.75 20ZM20.2929 14.2929C20.6834 13.9024 21.3166 13.9024 21.7071 14.2929L23 15.5858L24.2929 14.2929C24.6834 13.9024 25.3166 13.9024 25.7071 14.2929C26.0976 14.6834 26.0976 15.3166 25.7071 15.7071L24.4142 17L25.7071 18.2929C26.0976 18.6834 26.0976 19.3166 25.7071 19.7071C25.3166 20.0976 24.6834 20.0976 24.2929 19.7071L23 18.4142L21.7071 19.7071C21.3166 20.0976 20.6834 20.0976 20.2929 19.7071C19.9024 19.3166 19.9024 18.6834 20.2929 18.2929L21.5858 17L20.2929 15.7071C19.9024 15.3166 19.9024 14.6834 20.2929 14.2929ZM7.00015 8.99984C7.00015 8.55036 6.70026 8.15611 6.26708 8.03613C5.83453 7.91632 5.37522 8.0994 5.14365 8.4837L5.1375 8.49367C5.13158 8.50322 5.1215 8.51929 5.10735 8.54127C5.07902 8.58526 5.03455 8.65269 4.97467 8.7386C4.85466 8.9108 4.67434 9.15495 4.43989 9.43203C3.96552 9.99264 3.29664 10.6558 2.48566 11.1424C2.01208 11.4265 1.85851 12.0408 2.14266 12.5143C2.42681 12.9879 3.04107 13.1415 3.51465 12.8573C4.07688 12.52 4.57408 12.1272 5.00015 11.7347V19C5.00015 19.5523 5.44787 20 6.00015 20C6.55244 20 7.00015 19.5523 7.00015 19V8.99984ZM5.14365 8.4837L5.14301 8.48476Z" fill="#212121"/>
</svg>
