<svg width="48" height="48" viewBox="0 0 48 48" fill="none" xmlns="http://www.w3.org/2000/svg">
<path d="M10.4071 38.4738C10.1454 39.1126 9.41539 39.4184 8.77654 39.1567C8.1377 38.8951 7.83193 38.165 8.0936 37.5262L20.9182 6.21548C21.6812 4.35257 24.3194 4.35257 25.0824 6.21548L37.4555 36.4238L41.6227 27.7107C41.9205 27.0879 42.6669 26.8245 43.2896 27.1223C43.9124 27.4202 44.1759 28.1665 43.878 28.7893L38.378 40.2893C38.0909 40.8896 37.3838 41.1598 36.7696 40.9038L24.7696 35.9038C24.1323 35.6383 23.831 34.9065 24.0965 34.2692C24.362 33.632 25.0938 33.3306 25.7311 33.5961L35.2142 37.5474L23.0003 7.72788L10.4071 38.4738Z" fill="#212121"/>
</svg>
