<svg width="32" height="32" viewBox="0 0 32 32" fill="none" xmlns="http://www.w3.org/2000/svg">
<path d="M14 3.00033C14.5523 3.00033 15 3.44804 15 4.00033C14.9998 4.55246 14.5522 5.00033 14 5.00033H7.5C6.11929 5.00033 5 6.11962 5 7.50033V24.5003C5.00019 25.8809 6.1194 27.0003 7.5 27.0003H24.5C25.8806 27.0003 26.9998 25.8809 27 24.5003V19.0003C27 18.448 27.4477 18.0003 28 18.0003C28.5523 18.0003 29 18.448 29 19.0003V24.5003C28.9998 26.9855 26.9852 29.0003 24.5 29.0003H7.5C5.01483 29.0003 3.00019 26.9855 3 24.5003V7.50033C3 5.01505 5.01472 3.00033 7.5 3.00033H14ZM19.5791 2.0931C19.9329 1.9295 20.3495 1.98617 20.6465 2.23861L30.6465 10.7386C30.8698 10.9286 30.999 11.2071 30.999 11.5003C30.9989 11.7935 30.8699 12.0721 30.6465 12.262L20.6465 20.762C20.3495 21.0143 19.9328 21.0711 19.5791 20.9076C19.2255 20.744 18.9992 20.3899 18.999 20.0003V16.0404C15.8061 16.2983 13.3631 17.7616 11.6582 19.2533C10.719 20.075 10.0127 20.8979 9.54395 21.513C9.31027 21.8197 9.13656 22.0732 9.02344 22.2464C8.96697 22.3329 8.92551 22.3999 8.89941 22.4427C8.88655 22.4638 8.87744 22.4795 8.87207 22.4886C8.87005 22.4919 8.86621 22.4954 8.86621 22.4954L8.86719 22.4964C8.64549 22.884 8.19333 23.0778 7.75977 22.971C7.32608 22.8641 7.01508 22.4819 6.99902 22.0355C6.99902 21.8136 6.99571 21.5923 7.00195 21.3704C7.0134 20.9639 7.04424 20.3884 7.12207 19.7005C7.27721 18.3296 7.62204 16.4822 8.38672 14.6204C9.15197 12.7574 10.3539 10.8436 12.2422 9.39486C13.9478 8.0864 16.1609 7.20022 18.999 7.03158V3.00033C18.999 2.61065 19.2255 2.25676 19.5791 2.0931Z" fill="#212121"/>
</svg>
