<svg width="28" height="28" viewBox="0 0 28 28" fill="none" xmlns="http://www.w3.org/2000/svg">
<path d="M12.25 3.00014C12.6642 3.00014 13 3.33593 13 3.75014C12.9999 4.16429 12.6642 4.50014 12.25 4.50014H7.25C5.73122 4.50014 4.5 5.73136 4.5 7.25014V20.7501C4.50007 22.2689 5.73126 23.5001 7.25 23.5001H20.75C22.2687 23.5001 23.4999 22.2689 23.5 20.7501V15.7501C23.5 15.3359 23.8358 15.0001 24.25 15.0001C24.6642 15.0001 25 15.3359 25 15.7501V20.7501C24.9999 23.0973 23.0972 25.0001 20.75 25.0001H7.25C4.90284 25.0001 3.00007 23.0973 3 20.7501V7.25014C3 4.90293 4.90279 3.00014 7.25 3.00014H12.25ZM17.4287 2.0724C17.6906 1.94831 18.0003 1.98655 18.2246 2.17006L26.4746 8.92006C26.6417 9.05683 26.7426 9.25892 26.75 9.47475C26.7573 9.69045 26.671 9.89923 26.5137 10.047L18.2637 17.797C18.0457 18.0017 17.7266 18.0573 17.4521 17.9386C17.1777 17.8199 17.0001 17.5492 17 17.2501V13.5109C15.8342 13.5463 14.5367 13.699 13.1465 14.3117C11.5621 15.0099 9.79607 16.3332 7.98633 18.8888L7.62402 19.4162C7.44069 19.6911 7.0985 19.8137 6.78223 19.7179C6.46617 19.622 6.25006 19.3304 6.25 19.0001C6.25 14.594 7.59006 11.4396 9.76074 9.39174C11.7374 7.5272 14.3243 6.65595 17 6.52065V2.75014C17 2.4604 17.1669 2.19653 17.4287 2.0724Z" fill="#212121"/>
</svg>
