<svg width="24" height="24" viewBox="0 0 24 24" fill="none" xmlns="http://www.w3.org/2000/svg">
<path d="M10.2499 2.99985C10.6641 2.99985 10.9999 3.33571 10.9999 3.74985C10.9999 4.16407 10.6642 4.49985 10.2499 4.49985H6.74994C5.50735 4.49985 4.50002 5.50728 4.49994 6.74985V17.2499L4.51166 17.4803C4.62708 18.6147 5.58511 19.4999 6.74994 19.4999H17.2499C18.4926 19.4999 19.4999 18.4925 19.4999 17.2499V15.2499C19.5 14.8357 19.8358 14.4999 20.2499 14.4999C20.6641 14.4999 20.9999 14.8357 20.9999 15.2499V17.2499C20.9999 19.3209 19.321 20.9999 17.2499 20.9999H6.74994C4.74372 20.9999 3.10545 19.4244 3.00482 17.4432L2.99994 17.2499V6.74985C3.00002 4.67885 4.67892 2.99985 6.74994 2.99985H10.2499ZM14.9365 2.06821C15.2025 1.94588 15.5159 1.98997 15.7382 2.18052L22.7382 8.18052C22.8985 8.31798 22.9937 8.5173 22.9999 8.72837C23.006 8.93935 22.9224 9.14336 22.7704 9.28989L15.7704 16.0399C15.554 16.2486 15.2337 16.3077 14.957 16.1903C14.6801 16.0726 14.4999 15.8007 14.4999 15.4999V12.5243C13.4856 12.5878 12.5295 12.7971 11.5605 13.2928C10.4241 13.8742 9.21636 14.8744 7.87103 16.5956L7.59955 16.9501C7.40582 17.2081 7.06877 17.3138 6.76263 17.2118C6.4564 17.1097 6.24994 16.8227 6.24994 16.4999C6.24996 13.6426 6.93653 10.9108 8.41791 8.87192C9.79374 6.97863 11.8288 5.72528 14.4999 5.52817V2.74985L14.5078 2.64146C14.5441 2.39271 14.7037 2.17528 14.9365 2.06821ZM15.9999 6.24985C15.9999 6.66407 15.6642 6.99985 15.2499 6.99985C12.6932 6.99985 10.8549 8.06982 9.63177 9.75278C8.75381 10.961 8.17788 12.5099 7.91498 14.2459C8.91528 13.1985 9.89191 12.4608 10.8769 11.9569C12.3601 11.1981 13.8009 10.9999 15.2499 10.9999C15.4488 10.9999 15.6396 11.079 15.7802 11.2196C15.9208 11.3602 15.9999 11.551 15.9999 11.7499V13.7342L21.1347 8.78208L15.9999 4.37974V6.24985Z" fill="#212121"/>
</svg>
