<svg width="48" height="48" viewBox="0 0 48 48" fill="none" xmlns="http://www.w3.org/2000/svg">
<path d="M20.7499 5.99995C21.4403 5.99995 21.9999 6.55962 21.9999 7.24995C21.9999 7.9403 21.4403 8.49995 20.7499 8.49995H13.2499C10.6266 8.49995 8.49997 10.6266 8.49994 13.2499V34.7499C8.49994 37.3733 10.6266 39.4999 13.2499 39.4999H34.7499C37.3733 39.4999 39.4999 37.3733 39.4999 34.7499V28.2499C39.5 27.5596 40.0596 26.9999 40.7499 26.9999C41.4403 26.9999 41.9999 27.5596 41.9999 28.2499V34.7499C41.9999 38.754 38.754 41.9999 34.7499 41.9999H13.2499C9.24587 41.9999 5.99994 38.754 5.99994 34.7499V13.2499C5.99997 9.24591 9.24589 5.99995 13.2499 5.99995H20.7499ZM29.7236 2.11616C30.1648 1.91133 30.6849 1.98096 31.0566 2.29487L45.5566 14.5449C45.8311 14.7768 45.9929 15.1162 45.9999 15.4755C46.0069 15.835 45.8581 16.1803 45.5927 16.4228L31.0927 29.6728C30.7271 30.0065 30.199 30.0931 29.746 29.8935C29.2929 29.6937 29.0001 29.2452 28.9999 28.7499V23.0283C26.945 23.1256 24.978 23.4989 22.9619 24.4951C20.6826 25.6214 18.2466 27.5899 15.5439 31.04L14.9999 31.7499C14.6863 32.168 14.1455 32.3468 13.6445 32.1982C13.1434 32.0494 12.7876 31.6045 12.7529 31.083C12.4872 27.0907 13.5414 21.6439 16.2773 17.1611C18.864 12.9227 23.0163 9.46787 28.9999 9.04389V3.24995C28.9999 2.76343 29.2823 2.32106 29.7236 2.11616ZM31.4999 10.2499C31.4999 10.5814 31.3681 10.8994 31.1337 11.1337C30.8993 11.368 30.5814 11.4999 30.2499 11.4999C24.662 11.5 20.8366 14.4912 18.412 18.4638C16.7107 21.2516 15.7342 24.4781 15.374 27.3642C17.5879 24.9303 19.7232 23.3066 21.8535 22.2539C24.7447 20.8252 27.519 20.5 30.2499 20.4999C30.5814 20.5 30.8993 20.6318 31.1337 20.8662C31.368 21.1006 31.4999 21.4185 31.4999 21.7499V25.913L42.8554 15.5361L31.4999 5.94233V10.2499Z" fill="#212121"/>
</svg>
