<svg width="16" height="16" viewBox="0 0 16 16" fill="none" xmlns="http://www.w3.org/2000/svg">
<path d="M5 3.5C5 1.84315 6.34315 0.5 8 0.5C9.65685 0.5 11 1.84315 11 3.5V4H11.5C12.7511 4 13.7875 4.91897 13.9711 6.1187C13.6602 6.04116 13.3349 6 13 6C10.7909 6 9 7.79086 9 10C9 10.1857 9.01272 10.3688 9.0374 10.5484L6.58579 13C6.30991 13.2759 6.12295 13.6241 6.04336 14H4.5C3.11929 14 2 12.8807 2 11.5V6.5C2 5.11929 3.11929 4 4.5 4H5V3.5ZM8 1.5C6.89543 1.5 6 2.39543 6 3.5V4H10V3.5C10 2.39543 9.10457 1.5 8 1.5ZM8 10C8.55228 10 9 9.55229 9 9C9 8.44772 8.55228 8 8 8C7.44772 8 7 8.44772 7 9C7 9.55229 7.44772 10 8 10ZM13 13C14.6569 13 16 11.6569 16 10C16 8.34315 14.6569 7 13 7C11.3431 7 10 8.34315 10 10C10 10.3031 10.0449 10.5957 10.1285 10.8715L7.29289 13.7071C7.10536 13.8946 7 14.149 7 14.4142V15.5C7 15.7761 7.22386 16 7.5 16H9.5C9.77614 16 10 15.7761 10 15.5V15H10.5C10.7761 15 11 14.7761 11 14.5V14H11.5C11.7761 14 12 13.7761 12 13.5V12.8293C12.3128 12.9398 12.6494 13 13 13ZM13.75 8.5C14.1642 8.5 14.5 8.83579 14.5 9.25C14.5 9.66421 14.1642 10 13.75 10C13.3358 10 13 9.66421 13 9.25C13 8.83579 13.3358 8.5 13.75 8.5Z" fill="#212121"/>
</svg>
