<svg width="20" height="20" viewBox="0 0 20 20" fill="none" xmlns="http://www.w3.org/2000/svg">
<path d="M11 12C11 12.5523 10.5523 13 10 13C9.44771 13 9 12.5523 9 12C9 11.4477 9.44771 11 10 11C10.5523 11 11 11.4477 11 12ZM7 6H6C4.34315 6 3 7.34315 3 9V15C3 16.6569 4.34315 18 6 18H9V17.4142C9 17.2739 9.01474 17.1352 9.04336 17H6C4.89543 17 4 16.1046 4 15V9C4 7.89543 4.89543 7 6 7H14C15.1046 7 16 7.89543 16 9C16.3453 9 16.6804 9.04375 17 9.12602V9C17 7.34315 15.6569 6 14 6H13V5C13 3.34315 11.6569 2 10 2C8.34315 2 7 3.34315 7 5V6ZM8 5C8 3.89543 8.89543 3 10 3C11.1046 3 12 3.89543 12 5V6H8V5ZM16 16C17.6569 16 19 14.6569 19 13C19 11.3431 17.6569 10 16 10C14.3431 10 13 11.3431 13 13C13 13.3031 13.0449 13.5957 13.1285 13.8715L10.2929 16.7071C10.1054 16.8946 10 17.149 10 17.4142V18.5C10 18.7761 10.2239 19 10.5 19H12.5C12.7761 19 13 18.7761 13 18.5V18H13.5C13.7761 18 14 17.7761 14 17.5V17H14.5C14.7761 17 15 16.7761 15 16.5V15.8293C15.3128 15.9398 15.6494 16 16 16ZM16.75 11.5C17.1642 11.5 17.5 11.8358 17.5 12.25C17.5 12.6642 17.1642 13 16.75 13C16.3358 13 16 12.6642 16 12.25C16 11.8358 16.3358 11.5 16.75 11.5Z" fill="#212121"/>
</svg>
