<svg width="24" height="24" viewBox="0 0 24 24" fill="none" xmlns="http://www.w3.org/2000/svg">
<path d="M3 3.75C3 3.33579 3.33579 3 3.75 3C4.16421 3 4.5 3.33579 4.5 3.75V19.5H20.25C20.6642 19.5 21 19.8358 21 20.25C21 20.6642 20.6642 21 20.25 21H3.75C3.33579 21 3 20.6642 3 20.25V3.75ZM17 4C15.3431 4 14 5.34315 14 7C14 8.65685 15.3431 10 17 10C18.6569 10 20 8.65685 20 7C20 5.34315 18.6569 4 17 4ZM15.5 7C15.5 6.17157 16.1716 5.5 17 5.5C17.8284 5.5 18.5 6.17157 18.5 7C18.5 7.82843 17.8284 8.5 17 8.5C16.1716 8.5 15.5 7.82843 15.5 7ZM6 9C6 7.34315 7.34315 6 9 6C10.6569 6 12 7.34315 12 9C12 10.6569 10.6569 12 9 12C7.34315 12 6 10.6569 6 9ZM9 7.5C8.17157 7.5 7.5 8.17157 7.5 9C7.5 9.82843 8.17157 10.5 9 10.5C9.82843 10.5 10.5 9.82843 10.5 9C10.5 8.17157 9.82843 7.5 9 7.5ZM15 12C13.3431 12 12 13.3431 12 15C12 16.6569 13.3431 18 15 18C16.6569 18 18 16.6569 18 15C18 13.3431 16.6569 12 15 12ZM13.5 15C13.5 14.1716 14.1716 13.5 15 13.5C15.8284 13.5 16.5 14.1716 16.5 15C16.5 15.8284 15.8284 16.5 15 16.5C14.1716 16.5 13.5 15.8284 13.5 15Z" fill="#212121"/>
</svg>
