<svg width="48" height="48" viewBox="0 0 48 48" fill="none" xmlns="http://www.w3.org/2000/svg">
<path d="M29 5.5V7H27C25.3431 7 24 8.34315 24 10V21C24 22.6569 25.3431 24 27 24H43C44.6569 24 46 22.6569 46 21V10C46 8.34315 44.6569 7 43 7H41V5.5C41 3.567 39.433 2 37.5 2H32.5C30.567 2 29 3.567 29 5.5ZM32.5 4H37.5C38.3284 4 39 4.67157 39 5.5V7H31V5.5C31 4.67157 31.6716 4 32.5 4ZM10.25 9H22.1C22.0344 9.32311 22 9.65753 22 10V21C22 22.761 22.9104 24.3094 24.2862 25.2002L24.0023 25.3497L4.01995 14.747C4.27612 11.5304 6.96755 9 10.25 9ZM24.5824 27.8696L28.1331 26H43C43.3425 26 43.6769 25.9656 44 25.9V34.75C44 38.2018 41.2018 41 37.75 41H10.25C6.79822 41 4 38.2018 4 34.75V17.5665L23.4142 27.8677C23.7793 28.0615 24.2166 28.0622 24.5824 27.8696Z" fill="#212121"/>
</svg>
