<svg width="20" height="20" viewBox="0 0 20 20" fill="none" xmlns="http://www.w3.org/2000/svg">
<path d="M6 3C3.79086 3 2 4.79086 2 7V9.75777C2.30851 9.55127 2.64397 9.3819 3 9.25606V7C3 5.34315 4.34315 4 6 4H13C13.5523 4 14 4.44772 14 5H15C15 3.89543 14.1046 3 13 3H6ZM16 17H10.1213L9.12132 16H16C16.5523 16 17 15.5523 17 15V8C17 7.44772 16.5523 7 16 7H7C6.44772 7 6 7.44772 6 8V9.25606C5.68159 9.14352 5.34673 9.06579 5 9.02746V8C5 6.89543 5.89543 6 7 6H16C17.1046 6 18 6.89543 18 8V15C18 16.1046 17.1046 17 16 17ZM4.5 17C5.2862 17 6.01185 16.7408 6.59615 16.3031L9.14644 18.8535C9.3417 19.0488 9.65828 19.0488 9.85355 18.8535C10.0488 18.6583 10.0488 18.3417 9.85356 18.1464L7.30324 15.596C7.74082 15.0117 8 14.2861 8 13.5C8 11.567 6.433 10 4.5 10C2.567 10 1 11.567 1 13.5C1 15.433 2.567 17 4.5 17ZM4.5 16C3.11929 16 2 14.8807 2 13.5C2 12.1193 3.11929 11 4.5 11C5.88071 11 7 12.1193 7 13.5C7 14.8807 5.88071 16 4.5 16Z" fill="#212121"/>
</svg>
