<svg width="16" height="16" viewBox="0 0 16 16" fill="none" xmlns="http://www.w3.org/2000/svg">
<path d="M1 5C1 3.61929 2.11929 2.5 3.5 2.5H8.5C9.88071 2.5 11 3.61929 11 5V11C11 12.1493 10.2245 13.1175 9.16816 13.4097C9.69534 12.5657 10 11.5684 10 10.5C10 7.46243 7.53757 5 4.5 5C3.17037 5 1.95094 5.47182 1 6.25716V5ZM12 5.89198L14.184 4.11068C14.5106 3.84429 15 4.07668 15 4.49814V11.4984C15 11.9197 14.5109 12.1522 14.1842 11.8861L12 10.107V5.89198ZM8.24304 13C8.44955 12.6915 8.61892 12.356 8.74476 12C8.91058 11.5308 9 11.026 9 10.5C9 8.01472 6.98528 6 4.5 6C2.01472 6 0 8.01472 0 10.5C0 11.2918 0.204487 12.0358 0.563531 12.6821L0.0189152 14.4707C-0.0764222 14.7838 0.216247 15.0765 0.529361 14.9812L2.31846 14.4368C2.96465 14.7956 3.70846 15 4.5 15C6.06021 15 7.43578 14.206 8.24304 13ZM2.50081 12C2.22467 12 2.00081 11.7761 2.00081 11.5C2.00081 11.3623 2.05644 11.2377 2.14645 11.1473C2.23695 11.0566 2.3618 11 2.5 11H4.5C4.77614 11 5 11.2239 5 11.5C5 11.7761 4.77614 12 4.5 12H2.50081ZM2 9.5C2 9.22386 2.22386 9 2.5 9H6.5C6.77614 9 7 9.22386 7 9.5C7 9.77614 6.77614 10 6.5 10H2.5C2.22386 10 2 9.77614 2 9.5Z" fill="#212121"/>
</svg>
