<?xml version="1.0" encoding="UTF-8"?>
<svg width="28px" height="28px" viewBox="0 0 28 28" version="1.1" xmlns="http://www.w3.org/2000/svg" xmlns:xlink="http://www.w3.org/1999/xlink">
    <!-- Generator: Sketch 59.1 (86144) - https://sketch.com -->
    <title>ic_fluent_location_28_regular</title>
    <desc>Created with Sketch.</desc>
    <g id="ðŸ”-Product-Icons" stroke="none" stroke-width="1" fill="none" fill-rule="evenodd">
        <g id="ic_fluent_location_28_regular" fill="#212121" fill-rule="nonzero">
            <path d="M14,2.25 C19.3847763,2.25 23.75,6.61522369 23.75,12 C23.75,16.1196455 20.855433,20.6092677 15.1401958,25.5178507 C14.4843932,26.0810927 13.5155806,26.0810925 12.8571694,25.5155993 L12.4794181,25.1881258 C7.01712282,20.4088515 4.25,16.0278108 4.25,12 C4.25,6.61522369 8.61522369,2.25 14,2.25 Z M14,3.75 C9.44365081,3.75 5.75,7.44365081 5.75,12 C5.75,15.5020564 8.29839906,19.5368033 13.464548,24.0569728 L13.8370909,24.3799312 C13.9307823,24.460399 14.069192,24.460399 14.1628835,24.3799313 C19.5789268,19.7283136 22.25,15.5853418 22.25,12 C22.25,7.44365081 18.5563492,3.75 14,3.75 Z M14,8.25 C16.0710678,8.25 17.75,9.92893219 17.75,12 C17.75,14.0710678 16.0710678,15.75 14,15.75 C11.9289322,15.75 10.25,14.0710678 10.25,12 C10.25,9.92893219 11.9289322,8.25 14,8.25 Z M14,9.75 C12.7573593,9.75 11.75,10.7573593 11.75,12 C11.75,13.2426407 12.7573593,14.25 14,14.25 C15.2426407,14.25 16.25,13.2426407 16.25,12 C16.25,10.7573593 15.2426407,9.75 14,9.75 Z" id="ðŸŽ¨-Color"></path>
        </g>
    </g>
</svg>