<?xml version="1.0" encoding="UTF-8"?>
<svg width="12px" height="12px" viewBox="0 0 12 12" version="1.1" xmlns="http://www.w3.org/2000/svg" xmlns:xlink="http://www.w3.org/1999/xlink">
    <!-- Generator: Sketch 59.1 (86144) - https://sketch.com -->
    <title>ic_fluent_location_12_filled</title>
    <desc>Created with Sketch.</desc>
    <g id="ðŸ”-Product-Icons" stroke="none" stroke-width="1" fill="none" fill-rule="evenodd">
        <g id="ic_fluent_location_12_filled" fill="#212121" fill-rule="nonzero">
            <path d="M6,0.5 C8.48528137,0.5 10.5,2.51471863 10.5,5 C10.5,6.86262254 9.08019607,8.81485295 6.3,10.9 C6.12222222,11.0333333 5.87777778,11.0333333 5.7,10.9 C2.91980393,8.81485295 1.5,6.86262254 1.5,5 C1.5,2.51471863 3.51471863,0.5 6,0.5 Z M6,3.5 C5.17157288,3.5 4.5,4.17157288 4.5,5 C4.5,5.82842712 5.17157288,6.5 6,6.5 C6.82842712,6.5 7.5,5.82842712 7.5,5 C7.5,4.17157288 6.82842712,3.5 6,3.5 Z" id="ðŸŽ¨-Color"></path>
        </g>
    </g>
</svg>