<?xml version="1.0" encoding="UTF-8"?>
<svg width="20px" height="20px" viewBox="0 0 20 20" version="1.1" xmlns="http://www.w3.org/2000/svg" xmlns:xlink="http://www.w3.org/1999/xlink">
    <!-- Generator: Sketch 59.1 (86144) - https://sketch.com -->
    <title>ic_location_20_filled</title>
    <desc>Created with Sketch.</desc>
    <g id="ðŸ”-Product-Icons" stroke="none" stroke-width="1" fill="none" fill-rule="evenodd">
        <g id="ic_location_20_filled" fill="#212121">
            <path d="M14.9497475,4.05114803 C17.6834175,6.78601207 17.6834175,11.2201028 14.9497475,13.9549668 L13.8223439,15.069118 L11.3861083,17.4391038 C10.6562292,18.1454854 9.52168141,18.1846556 8.7469141,17.556666 L8.6140808,17.4389187 L6.57128024,15.4538335 L5.05025253,13.9549668 C2.31658249,11.2201028 2.31658249,6.78601207 5.05025253,4.05114803 C7.78392257,1.31628399 12.2160774,1.31628399 14.9497475,4.05114803 Z M10.0009589,6.00019221 C8.34912635,6.00019221 7.01005146,7.33985197 7.01005146,8.99240603 C7.01005146,10.6449601 8.34912635,11.9846199 10.0009589,11.9846199 C11.6527915,11.9846199 12.9918664,10.6449601 12.9918664,8.99240603 C12.9918664,7.33985197 11.6527915,6.00019221 10.0009589,6.00019221 Z" id="ðŸŽ¨Color"></path>
        </g>
    </g>
</svg>