<?xml version="1.0" encoding="UTF-8"?>
<svg width="24px" height="24px" viewBox="0 0 24 24" version="1.1" xmlns="http://www.w3.org/2000/svg" xmlns:xlink="http://www.w3.org/1999/xlink">
    <!-- Generator: Sketch 59.1 (86144) - https://sketch.com -->
    <title>ic_fluent_store_24_regular</title>
    <desc>Created with Sketch.</desc>
    <g id="ðŸ”-Product-Icons" stroke="none" stroke-width="1" fill="none" fill-rule="evenodd">
        <g id="ic_fluent_store_24_regular" fill="#212121" fill-rule="nonzero">
            <path d="M18,2 C18.1738924,2 18.3412335,2.06037182 18.4743134,2.16902442 L18.5498283,2.23991295 L21.8220979,5.76824215 L21.8220979,5.76824215 L21.8527639,5.80714173 L21.8527639,5.80714173 C21.9544731,5.94280763 22.0003787,6.09665326 22.0003787,6.24775223 L21.998895,8.16673651 C21.998895,9.16091533 21.6203526,10.0666808 20.9995385,10.7477623 L20.9987561,21.25 C20.9987561,21.6296958 20.7166022,21.943491 20.3505266,21.9931534 L20.2487561,22 L3.75124394,22 C3.37154817,22 3.05775297,21.7178461 3.00809055,21.3517706 L3.00124394,21.25 L3.0004615,10.7477623 C2.42740234,10.1190717 2.06077587,9.29893438 2.00776268,8.3945309 L2.00110502,8.16673651 L2.00090777,6.2909691 C1.99283731,6.15365752 2.02249068,6.01238387 2.09684049,5.88312789 L2.1621019,5.78766808 L2.1621019,5.78766808 L2.20127668,5.74193191 L5.45017166,2.23991295 C5.56843866,2.11243167 5.72650892,2.03081298 5.8966724,2.00714789 L6,2 L18,2 Z M15.0819553,10.4420784 L15.0699952,10.4598252 C14.3710794,11.3943861 13.2555932,11.9993081 11.9988199,11.9993081 C10.734991,11.9993081 9.61404004,11.3875749 8.91591271,10.4440541 C8.21845647,11.3875749 7.09750553,11.9993081 5.83367664,11.9993081 C5.3645725,11.9993081 4.91515299,11.9150282 4.49973394,11.7607843 L4.501,20.499 L5.99962126,20.499 L6,13.7510095 C6,13.3713137 6.28215388,13.0575185 6.64822944,13.0078561 L6.75,13.0010095 L11.2459469,13.0010095 C11.6256426,13.0010095 11.9394378,13.2831634 11.9891002,13.6492389 L11.9959469,13.7510095 L11.9956213,20.499 L19.498,20.499 L19.4982459,11.7615337 C19.0833902,11.9153012 18.6346672,11.9993081 18.1663234,11.9993081 C16.9016125,11.9993081 15.7799791,11.3867208 15.0819553,10.4420784 Z M10.495,14.501 L7.5,14.501 L7.5,20.499 L10.495,20.499 L10.495,14.501 Z M17.2547169,13.0010095 C17.6344127,13.0010095 17.9482079,13.2831634 17.9978703,13.6492389 L18.0047169,13.7510095 L18.0047169,17.2530284 C18.0047169,17.6327242 17.722563,17.9465194 17.3564874,17.9961818 L17.2547169,18.0030284 L13.753289,18.0030284 C13.3735932,18.0030284 13.059798,17.7208746 13.0101356,17.354799 L13.003289,17.2530284 L13.003289,13.7510095 C13.003289,13.3713137 13.2854429,13.0575185 13.6515184,13.0078561 L13.753289,13.0010095 L17.2547169,13.0010095 Z M16.504,14.501 L14.503,14.501 L14.503,16.503 L16.504,16.503 L16.504,14.501 Z M8.166,7.002 L3.501,7.002 L3.50110502,8.16673651 L3.50728002,8.33777031 L3.50728002,8.33777031 L3.53566139,8.56899569 L3.56840447,8.72528505 L3.61778547,8.89725937 L3.67213842,9.04509728 L3.71281873,9.13910053 C3.74398758,9.2069726 3.77831864,9.27309115 3.81562325,9.33726751 L3.91856535,9.49872676 L3.91856535,9.49872676 L3.97284714,9.57343825 L3.97284714,9.57343825 L4.10162062,9.72909417 L4.24339516,9.87317641 L4.33964212,9.95811033 L4.38173069,9.99243143 C4.69625813,10.2429023 5.07696997,10.4138015 5.49340432,10.4746671 L5.67397446,10.4939268 L5.83367664,10.4993081 C7.06824354,10.4993081 8.07879746,9.5401945 8.16086694,8.32643868 L8.16624825,8.16673651 L8.166,7.002 Z M14.331,7.002 L9.666,7.002 L9.66624825,8.16673651 C9.66624825,9.3476266 10.5437738,10.3235596 11.6823037,10.4780145 L11.8391177,10.4939268 L11.9988199,10.4993081 C13.2333868,10.4993081 14.2439407,9.5401945 14.3260102,8.32643868 L14.3313915,8.16673651 L14.331,7.002 Z M20.498,7.002 L15.833,7.002 L15.8337517,8.16673651 C15.8337517,9.3476266 16.7112773,10.3235596 17.8498072,10.4780145 L18.0066212,10.4939268 L18.1663234,10.4993081 C18.7306301,10.4993081 19.2481338,10.2989203 19.6515576,9.96542147 L19.7413098,9.88731019 L19.8571509,9.7736013 L19.8571509,9.7736013 L20.0032953,9.60440808 C20.0573398,9.5354501 20.1075857,9.46337247 20.1537178,9.38849018 L20.2572507,9.20178608 L20.3201474,9.06382693 L20.3784003,8.90873461 L20.4081691,8.81313565 L20.4464082,8.66108012 L20.4464082,8.66108012 L20.4747613,8.50351954 L20.4927915,8.33677995 L20.4927915,8.33677995 L20.498895,8.16673651 L20.498,7.002 Z M9.06162126,3.499 L6.327,3.499 L4.469,5.502 L8.44562126,5.502 L9.06162126,3.499 Z M13.3686213,3.499 L10.6306213,3.499 L10.0146213,5.502 L13.9846213,5.502 L13.3686213,3.499 Z M17.672,3.499 L14.9376213,3.499 L15.5536213,5.502 L19.53,5.502 L17.672,3.499 Z" id="ðŸŽ¨-Color"></path>
        </g>
    </g>
</svg>