<svg width="16" height="16" viewBox="0 0 16 16" fill="none" xmlns="http://www.w3.org/2000/svg">
<path d="M13.3088 14.0159L14.1464 14.8536C14.3417 15.0488 14.6583 15.0488 14.8536 14.8536C15.0488 14.6583 15.0488 14.3417 14.8536 14.1464L1.85355 1.14645C1.65829 0.951184 1.34171 0.951184 1.14645 1.14645C0.951184 1.34171 0.951184 1.65829 1.14645 1.85355L2.50064 3.20774C1.61734 3.59338 1 4.47459 1 5.5V10.5C1 11.8807 2.11929 13 3.5 13H5.59971C5.43777 12.6832 5.30564 12.3486 5.20703 12H3.5C2.67157 12 2 11.3284 2 10.5V5.5C2 4.73752 2.56891 4.10792 3.3054 4.01251L6.98405 7.69116C6.36824 8.46099 6 9.43749 6 10.5C6 12.9853 8.01472 15 10.5 15C11.5625 15 12.539 14.6318 13.3088 14.0159ZM12.0881 12.7952C11.9408 12.8871 11.7855 12.9662 11.6238 13.0316C11.2503 13.1825 10.8503 13.2566 10.4476 13.2495C10.0448 13.2425 9.64762 13.1544 9.27966 12.9906C9.18383 12.9479 9.09049 12.9003 9 12.8481V13C9 13.2761 8.77614 13.5 8.5 13.5C8.22386 13.5 8 13.2761 8 13V11.5C8 11.2239 8.22386 11 8.5 11H10C10.2761 11 10.5 11.2239 10.5 11.5C10.5 11.7761 10.2761 12 10 12H9.53179C9.58213 12.0278 9.63372 12.0536 9.68645 12.077C9.93176 12.1863 10.1966 12.245 10.465 12.2497C10.7335 12.2544 11.0002 12.205 11.2492 12.1044C11.284 12.0903 11.3184 12.0753 11.3522 12.0594L12.0881 12.7952ZM8.55989 6.43855L9.92663 7.80529C10.1322 7.76526 10.342 7.74678 10.5524 7.75046C10.9552 7.75751 11.3524 7.84558 11.7203 8.00944C11.8162 8.05211 11.9095 8.0997 12 8.15195V8C12 7.72386 12.2239 7.5 12.5 7.5C12.7761 7.5 13 7.72386 13 8V9.5C13 9.77614 12.7761 10 12.5 10H12.1213L14.5614 12.4401C14.8426 11.8527 15 11.1947 15 10.5C15 8.01472 12.9853 6 10.5 6C9.80528 6 9.14734 6.15743 8.55989 6.43855ZM11.1213 9L10.9148 8.7935C11.0516 8.8225 11.1852 8.86582 11.3135 8.92296C11.3663 8.94644 11.4179 8.97215 11.4682 9H11.1213ZM5.12134 3L6.12134 4H12.5C13.3284 4 14 4.67157 14 5.5V6.25716C14.3794 6.57052 14.7161 6.93379 15 7.33692V5.5C15 4.11929 13.8807 3 12.5 3H5.12134Z" fill="#212121"/>
</svg>
