<svg width="16" height="16" viewBox="0 0 16 16" fill="none" xmlns="http://www.w3.org/2000/svg">
<path d="M12.1191 6.96289C12.3214 6.77009 12.6786 6.77007 12.8809 6.96289C13.3885 7.44701 14.3639 8.21701 15.5635 8.375C15.8026 8.40648 15.9997 8.58676 16 8.8125V10.9238C16 13.762 13.2164 14.7928 12.6143 14.9824C12.539 15.0061 12.462 15.006 12.3867 14.9824C11.7847 14.7929 9 13.7622 9 10.9238V8.8125C9.00029 8.58676 9.19743 8.40649 9.43652 8.375C10.6359 8.21696 11.6114 7.44699 12.1191 6.96289ZM8 1C11.5857 1 14.5394 3.69632 14.9492 7.17188C14.4825 6.97416 14.0698 6.68119 13.7578 6.41016L13.5713 6.23926L13.4561 6.14062C13.3451 6.05452 13.2238 5.98615 13.0967 5.93457C12.2798 3.92092 10.3068 2.5 8 2.5C4.96243 2.5 2.5 4.96243 2.5 8C2.5 9.51812 3.11426 10.8917 4.10938 11.8877C4.40188 12.1807 4.40133 12.6556 4.1084 12.9482C3.81535 13.2407 3.34053 13.2402 3.04785 12.9473C1.78335 11.6815 1 9.93154 1 8C1 4.13401 4.13401 1 8 1ZM8 3.75C9.62603 3.75 11.0383 4.66341 11.7529 6.00488C11.6803 6.044 11.6102 6.08918 11.5439 6.14062L11.4287 6.23926C11.2005 6.45682 10.8916 6.7092 10.5322 6.9248C10.1137 5.94026 9.1373 5.25 8 5.25C6.48122 5.25 5.25 6.48122 5.25 8C5.25 8.75882 5.55615 9.44501 6.05371 9.94336C6.3463 10.2365 6.34583 10.7113 6.05273 11.0039C5.75959 11.2963 5.28475 11.296 4.99219 11.0029C4.22534 10.2348 3.75 9.17215 3.75 8C3.75 5.65279 5.65279 3.75 8 3.75ZM8 6.5C8.60466 6.5 9.12394 6.85862 9.36133 7.37402L9.30566 7.38379C8.74911 7.45722 8.08864 7.89327 8.00781 8.65527L8 8.81152V9.5C7.17157 9.5 6.5 8.82843 6.5 8C6.5 7.17157 7.17157 6.5 8 6.5Z" fill="#212121"/>
</svg>
