<svg width="24" height="24" viewBox="0 0 24 24" fill="none" xmlns="http://www.w3.org/2000/svg">
<path d="M4.08828 6.41228C4.01598 6.31886 3.93772 6.2298 3.85387 6.14569C3.54169 5.83255 3.16058 5.59666 2.74097 5.45683L1.36317 5.00939C1.25698 4.97196 1.16502 4.90253 1.09998 4.81068C1.03493 4.71883 1 4.60908 1 4.49656C1 4.38404 1.03493 4.27429 1.09998 4.18244C1.16502 4.09058 1.25698 4.02116 1.36317 3.98372L2.74097 3.53628C3.15474 3.39352 3.52987 3.15705 3.837 2.84537C4.13572 2.54224 4.36226 2.17595 4.5 1.77372L4.51143 1.73963L4.95922 0.362894C4.99668 0.256782 5.06616 0.164895 5.15808 0.0998993C5.25 0.0349035 5.35984 0 5.47244 0C5.58505 0 5.69489 0.0349035 5.78681 0.0998993C5.87873 0.164895 5.94821 0.256782 5.98567 0.362894L6.43346 1.73963C6.5727 2.15819 6.80772 2.53853 7.11985 2.85041C7.43198 3.1623 7.8126 3.39715 8.23148 3.53628L9.60927 3.98372L9.63683 3.99061C9.74302 4.02804 9.83498 4.09747 9.90002 4.18932C9.96507 4.28117 10 4.39092 10 4.50344C10 4.61596 9.96507 4.72571 9.90002 4.81756C9.83498 4.90942 9.74302 4.97884 9.63683 5.01628L8.25903 5.46372C7.84016 5.60285 7.45953 5.8377 7.1474 6.14959C6.83528 6.46147 6.60025 6.84181 6.46101 7.26037L6.01323 8.63711C6.00919 8.64855 6.00477 8.65983 6 8.67093C5.96052 8.76273 5.89637 8.84212 5.81436 8.9001C5.72244 8.9651 5.61261 9 5.5 9C5.38739 9 5.27756 8.9651 5.18564 8.9001C5.09372 8.8351 5.02423 8.74322 4.98677 8.63711L4.53899 7.26037C4.43782 6.95331 4.28514 6.66664 4.08828 6.41228ZM11.7829 10.2132L11.0175 9.9646C10.7848 9.8873 10.5733 9.75683 10.3999 9.58356C10.2265 9.41029 10.0959 9.199 10.0186 8.96646L9.76982 8.20161C9.74901 8.14266 9.7104 8.09161 9.65934 8.0555C9.60827 8.01939 9.54725 8 9.48469 8C9.42213 8 9.36111 8.01939 9.31004 8.0555C9.25898 8.09161 9.22038 8.14266 9.19956 8.20161L8.9508 8.96646C8.87498 9.19736 8.74675 9.40761 8.57611 9.58076C8.40548 9.75392 8.19708 9.88529 7.9672 9.9646L7.20176 10.2132C7.14277 10.234 7.09168 10.2725 7.05554 10.3236C7.01941 10.3746 7 10.4356 7 10.4981C7 10.5606 7.01941 10.6216 7.05554 10.6726C7.09168 10.7236 7.14277 10.7622 7.20176 10.783L7.9672 11.0316C8.20032 11.1093 8.41205 11.2403 8.58548 11.4143C8.75891 11.5882 8.88926 11.8003 8.9661 12.0335L9.21487 12.7984C9.23569 12.8573 9.27429 12.9084 9.32535 12.9445C9.37642 12.9806 9.43744 13 9.5 13C9.56256 13 9.62358 12.9806 9.67465 12.9445C9.72571 12.9084 9.76431 12.8573 9.78513 12.7984L10.0339 12.0335C10.1113 11.801 10.2418 11.5897 10.4152 11.4164C10.5886 11.2432 10.8001 11.1127 11.0328 11.0354L11.7982 10.7868C11.8572 10.766 11.9083 10.7275 11.9445 10.6764C11.9806 10.6254 12 10.5644 12 10.5019C12 10.4394 11.9806 10.3784 11.9445 10.3274C11.9083 10.2764 11.8572 10.2378 11.7982 10.217L11.7829 10.2132ZM12.13 9.26903C12.3845 9.3602 12.6046 9.52786 12.76 9.74903L12.72 9.79903C12.8764 10.0179 12.9604 10.2801 12.9604 10.549C12.9604 10.818 12.8764 11.0802 12.72 11.299C12.5619 11.5282 12.3339 11.7001 12.07 11.789L11.31 12.029C11.2248 12.0599 11.1466 12.1075 11.08 12.169C11.0207 12.2335 10.9733 12.308 10.94 12.389L10.69 13.179C10.5988 13.4335 10.4312 13.6536 10.21 13.809C9.99117 13.9654 9.72895 14.0495 9.46 14.0495C9.19105 14.0495 8.92882 13.9654 8.71 13.809C8.48368 13.6479 8.31257 13.421 8.22 13.159L7.98 12.399C7.95168 12.3126 7.90377 12.2339 7.84 12.169C7.77553 12.1097 7.70104 12.0623 7.62 12.029L7.08121 11.8585L3.94103 14.9991C3.5347 15.4054 3.2491 15.9166 3.116 16.4756L2.02041 21.0771C1.96009 21.3304 2.03552 21.597 2.21968 21.7811C2.40385 21.9653 2.67037 22.0407 2.92373 21.9804L7.52498 20.8849C8.08418 20.7517 8.59546 20.466 9.00191 20.0595L19 10.0603C19.6787 10.7441 19.6771 11.8486 18.9953 12.5304L17.2119 14.3138C16.919 14.6067 16.919 15.0816 17.2119 15.3745C17.5048 15.6674 17.9796 15.6674 18.2725 15.3745L20.0559 13.5911C21.3236 12.3235 21.3252 10.2692 20.0606 8.99954L20.952 8.108C22.3493 6.71051 22.3493 4.44489 20.9519 3.04749C19.5543 1.64997 17.2885 1.65003 15.8911 3.04764L10.8243 8.11497L11 8.64903C11.0196 8.72973 11.0572 8.80494 11.11 8.86903C11.1708 8.93069 11.2466 8.97548 11.33 8.99903L12.06 9.26903H12.13Z" fill="#242424"/>
</svg>
