<svg width="24" height="24" viewBox="0 0 24 24" fill="none" xmlns="http://www.w3.org/2000/svg">
<path d="M3 4C2.44772 4 2 4.44772 2 5V6.75C2 7.30228 2.44772 7.75 3 7.75C3.55229 7.75 4 7.30228 4 6.75L4 5C4 4.44772 3.55229 4 3 4ZM3 9.25C2.44772 9.25 2 9.69772 2 10.25V13.75C2 14.3023 2.44772 14.75 3 14.75C3.55229 14.75 4 14.3023 4 13.75L4 10.25C4 9.69772 3.55229 9.25 3 9.25ZM3 16.25C2.44772 16.25 2 16.6977 2 17.25V19C2 19.5523 2.44772 20 3 20C3.55228 20 4 19.5523 4 19L4 17.25C4 16.6977 3.55228 16.25 3 16.25ZM21 4C20.4477 4 20 4.44772 20 5V19C20 19.5523 20.4477 20 21 20C21.5523 20 22 19.5523 22 19V5C22 4.44772 21.5523 4 21 4ZM5.29289 12.7071C4.90237 12.3166 4.90237 11.6834 5.29289 11.2929L10.2929 6.29289C10.6834 5.90237 11.3166 5.90237 11.7071 6.29289C12.0976 6.68342 12.0976 7.31658 11.7071 7.70711L8.41421 11L18 11C18.5523 11 19 11.4477 19 12C19 12.5523 18.5523 13 18 13L8.41421 13L11.7071 16.2929C12.0976 16.6834 12.0976 17.3166 11.7071 17.7071C11.3166 18.0976 10.6834 18.0976 10.2929 17.7071L5.29289 12.7071Z" fill="#212121"/>
</svg>
