<svg width="32" height="32" viewBox="0 0 32 32" fill="none" xmlns="http://www.w3.org/2000/svg">
<path d="M9.85104 5.74176C11.1661 4.13445 13.2003 3 16 3C17.7001 3 19.6821 3.5615 21.2582 4.85104C22.6793 6.01369 23.7307 7.73841 23.9553 10.0573C25.333 10.2223 26.6687 10.7404 27.7362 11.5647C29.0629 12.5892 30 14.114 30 16C30 16.4631 29.9593 16.912 29.8762 17.342C28.2487 15.0189 25.5518 13.5 22.5 13.5C17.6972 13.5 13.7731 17.262 13.5137 22H9C6.29252 22 4.48477 21.1798 3.37242 19.9085C2.28392 18.6645 2 17.1452 2 16C2 13.6444 3.93089 10.4699 8.05688 10.0472C8.22868 8.59142 8.79636 7.03082 9.85104 5.74176ZM30 22.5C30 18.3579 26.6421 15 22.5 15C18.3579 15 15 18.3579 15 22.5C15 26.6421 18.3579 30 22.5 30C26.6421 30 30 26.6421 30 22.5ZM26.25 17.75C26.6642 17.75 27 18.0858 27 18.5V21C27 21.4142 26.6642 21.75 26.25 21.75H23.75C23.3358 21.75 23 21.4142 23 21C23 20.5858 23.3358 20.25 23.75 20.25H24.4842C23.9553 19.7832 23.2606 19.5 22.4998 19.5C21.5275 19.5 20.6632 19.9626 20.115 20.6796C19.9701 20.8691 19.7543 21 19.5157 21C18.9008 21 18.4787 20.3866 18.8362 19.8863C19.6524 18.7444 20.9892 18 22.4998 18C23.6524 18 24.7038 18.4334 25.5 19.146V18.5C25.5 18.0858 25.8358 17.75 26.25 17.75ZM19.5 25.8543V26.25C19.5 26.6642 19.1642 27 18.75 27C18.3358 27 18 26.6642 18 26.25V23.75C18 23.3358 18.3358 23 18.75 23H21.25C21.6642 23 22 23.3358 22 23.75C22 24.1642 21.6642 24.5 21.25 24.5H20.2637C20.813 25.1137 21.6113 25.5 22.4998 25.5C23.4721 25.5 24.3364 25.0374 24.8846 24.3204C25.0295 24.1309 25.2453 24 25.4839 24C26.0988 24 26.5209 24.6134 26.1634 25.1137C25.3472 26.2556 24.0104 27 22.4998 27C21.3474 27 20.2961 26.5668 19.5 25.8543Z" fill="#212121"/>
</svg>
