<svg width="24" height="24" viewBox="0 0 24 24" fill="none" xmlns="http://www.w3.org/2000/svg">
<path d="M3.44126 9.95533C1.51763 11.879 1.51763 14.9978 3.44126 16.9214C5.13601 18.6162 7.75847 18.8178 9.67398 17.5263L13.9304 21.7827C14.2324 22.0847 14.7219 22.0847 15.0239 21.7827C15.2984 21.5082 15.3234 21.0786 15.0988 20.7759L15.0239 20.6892L10.8066 16.4709C12.3202 14.5381 12.1871 11.7351 10.4073 9.95533C8.4837 8.0317 5.36488 8.0317 3.44126 9.95533ZM12.0258 1.99805C7.27034 1.99805 3.29007 5.3169 2.27486 9.76471C2.41594 9.5855 2.56916 9.41321 2.73415 9.24823C3.26249 8.71989 3.86577 8.31217 4.50978 8.02508C5.45281 6.24259 7.01307 4.83589 8.90577 4.08881L8.79893 4.2629C8.2614 5.15648 7.8278 6.27421 7.52377 7.54206C8.02265 7.59337 8.51502 7.70657 8.98938 7.88256C9.6212 5.255 10.8123 3.49805 12.0258 3.49805L12.1414 3.50335C13.4069 3.6191 14.6293 5.62107 15.1971 8.4993L10.1994 8.49856C10.5227 8.71335 10.8295 8.96324 11.1144 9.24823C11.3499 9.48371 11.5617 9.73451 11.7495 9.99752L15.4227 9.99901C15.4907 10.6393 15.5273 11.309 15.5273 11.9996C15.5273 13.0591 15.4412 14.0694 15.2876 14.9997L12.6422 14.9998C12.5645 15.2855 12.4648 15.5667 12.3432 15.8409L12.2143 16.1126L12.0917 16.342L12.2503 16.499L14.9647 16.4993C14.7625 17.2478 14.5141 17.9169 14.2331 18.4838L15.3386 19.5915C15.8305 18.7335 16.2305 17.6829 16.5175 16.5003L19.2401 16.4995C18.3502 17.9232 17.0505 19.0645 15.5063 19.7584L15.7311 19.9822L15.8557 20.1225C16.0761 20.4177 16.2006 20.7467 16.2338 21.0752C19.6547 19.4871 22.0273 16.0204 22.0273 11.9996C22.0273 6.47589 17.5495 1.99805 12.0258 1.99805ZM9.31383 11.0488C10.6335 12.3685 10.6335 14.5082 9.31383 15.8279C7.99412 17.1476 5.85446 17.1476 4.53476 15.8279C3.21506 14.5082 3.21506 12.3685 4.53476 11.0488C5.85446 9.72913 7.99412 9.72913 9.31383 11.0488ZM16.9324 9.99965L20.29 9.99895L20.2978 10.0291C20.4479 10.6615 20.5273 11.3213 20.5273 11.9996C20.5273 13.0556 20.3348 14.0667 19.9829 14.9996L16.8095 15.0005C16.9518 14.0512 17.0273 13.0426 17.0273 11.9996C17.0273 11.3158 16.9949 10.6469 16.9324 9.99965ZM15.1447 4.08875L15.1676 4.09747C17.215 4.91219 18.871 6.49954 19.7757 8.49945L16.7274 8.49888C16.414 6.74644 15.8672 5.22082 15.1447 4.08875Z" fill="#212121"/>
</svg>
