<svg width="32" height="32" viewBox="0 0 32 32" fill="none" xmlns="http://www.w3.org/2000/svg">
<path d="M17.7931 2.87849C18.9647 1.70692 20.8641 1.70693 22.0357 2.8785L29.1257 9.96853C30.2973 11.1401 30.2973 13.0396 29.1257 14.2112L22.2239 21.1129L23.9727 22.8612C26.0948 24.9828 24.738 28.6163 21.7447 28.8277L5.21155 29.9955C3.39153 30.124 1.87914 28.6117 2.00763 26.7917L3.17459 10.2616C3.38588 7.26871 7.01857 5.91161 9.14044 8.03292L10.8898 9.78178L17.7931 2.87849ZM20.6215 4.29271C20.231 3.90219 19.5978 3.90218 19.2073 4.29271L11.597 11.903C11.2065 12.2935 10.5734 12.2935 10.1828 11.9031L7.72642 9.44732C6.81704 8.53819 5.26017 9.1198 5.16962 10.4025L4.00266 26.9325C3.95983 27.5392 4.46396 28.0433 5.07064 28.0005L21.6038 26.8327C22.8866 26.7421 23.4681 25.1849 22.5586 24.2756L20.1026 21.8202C19.915 21.6327 19.8096 21.3783 19.8096 21.1131C19.8096 20.8478 19.9149 20.5935 20.1025 20.4059L27.7115 12.7969C28.102 12.4064 28.102 11.7733 27.7115 11.3827L20.6215 4.29271Z" fill="#242424"/>
</svg>
