<svg width="16" height="16" viewBox="0 0 16 16" fill="none" xmlns="http://www.w3.org/2000/svg">
<path d="M9.02979 1.43928C9.61559 0.853486 10.5653 0.853493 11.1511 1.4393L14.5606 4.84883C15.1463 5.43462 15.1463 6.38436 14.5605 6.97014L10.5343 10.9964L11.6323 12.0946C12.3817 12.844 11.917 14.1274 10.8616 14.2233L2.36331 14.996C1.58589 15.0666 0.934593 14.4154 1.00526 13.6379L1.77783 5.13871C1.87377 4.08322 3.15726 3.61858 3.90663 4.36804L5.00377 5.4653L9.02979 1.43928ZM10.444 2.14639C10.2488 1.95112 9.93217 1.95112 9.7369 2.14639L5.35731 6.52598C5.26354 6.61975 5.13635 6.67243 5.00374 6.67243C4.87113 6.67242 4.74395 6.61974 4.65018 6.52596L3.19949 5.0751C3.04961 4.92521 2.79291 5.01814 2.77373 5.22924L2.00115 13.7285C1.98702 13.884 2.11728 14.0142 2.27276 14.0001L10.771 13.2274C10.9821 13.2082 11.0751 12.9516 10.9252 12.8017L9.47361 11.3499C9.27836 11.1547 9.27837 10.8381 9.47363 10.6428L13.8534 6.26303C14.0487 6.06777 14.0487 5.75119 13.8534 5.55593L10.444 2.14639Z" fill="#242424"/>
</svg>
