<svg width="20" height="20" viewBox="0 0 20 20" fill="none" xmlns="http://www.w3.org/2000/svg">
<path d="M9.16289 16.8692C9.36683 17.0555 9.68308 17.0411 9.86926 16.8371C10.0554 16.6331 10.041 16.3168 9.83711 16.1306L3.66925 10.4988L17.5 10.4988C17.7761 10.4988 18 10.2749 18 9.99868C18 9.72249 17.7761 9.49859 17.5 9.49859L3.67214 9.49859L9.83711 3.86943C10.041 3.68322 10.0554 3.3669 9.86926 3.16293C9.68308 2.95895 9.36683 2.94455 9.16289 3.13076L2.24654 9.446C2.10659 9.57378 2.02676 9.74135 2.00705 9.91453C2.00241 9.94189 2 9.97 2 9.99868C2 10.0256 2.00212 10.0519 2.0062 10.0777C2.02437 10.2536 2.10449 10.4243 2.24654 10.554L9.16289 16.8692Z" fill="#212121"/>
</svg>
