<svg width="28" height="28" viewBox="0 0 28 28" fill="none" xmlns="http://www.w3.org/2000/svg">
<path d="M5.75415 4C3.68308 4 2.00415 5.67893 2.00415 7.75V20.2501C2.00415 22.3211 3.68309 24.0001 5.75415 24.0001H22.2508C24.3218 24.0001 26.0008 22.3211 26.0008 20.2501V7.75C26.0008 5.67893 24.3218 4 22.2508 4H5.75415ZM3.50415 7.75C3.50415 6.50736 4.51151 5.5 5.75415 5.5H17V22.5001H5.75415C4.51151 22.5001 3.50415 21.4927 3.50415 20.2501V7.75ZM18.5 22.5001V5.5H22.2508C23.4934 5.5 24.5008 6.50736 24.5008 7.75V20.2501C24.5008 21.4927 23.4934 22.5001 22.2508 22.5001H18.5Z" fill="#212121"/>
</svg>
