<svg width="28" height="28" viewBox="0 0 28 28" fill="none" xmlns="http://www.w3.org/2000/svg">
<path d="M5.75391 4C3.68284 4 2.00391 5.67893 2.00391 7.75V20.2501C2.00391 22.3211 3.68284 24.0001 5.75391 24.0001H22.2505C24.3216 24.0001 26.0005 22.3211 26.0005 20.2501V7.75C26.0005 5.67893 24.3216 4 22.2505 4H5.75391ZM3.50391 7.75C3.50391 6.50736 4.51127 5.5 5.75391 5.5H16.9998V22.5001H5.75391C4.51127 22.5001 3.50391 21.4927 3.50391 20.2501V7.75ZM18.4998 22.5001V5.5H22.2505C23.4932 5.5 24.5005 6.50736 24.5005 7.75V20.2501C24.5005 21.4927 23.4932 22.5001 22.2505 22.5001H18.4998Z" fill="#212121"/>
</svg>
