<svg width="16" height="16" viewBox="0 0 16 16" fill="none" xmlns="http://www.w3.org/2000/svg">
<path d="M13.5 1C11.0147 1 9 3.01472 9 5.5V7C9 7.55228 9.44772 8 10 8H10.9445L10.9246 8.19118C10.8776 8.64266 10.815 9.25347 10.7524 9.89042C10.6289 11.1462 10.5 12.5544 10.5 13C10.5 14.1046 11.3954 15 12.5 15C13.6046 15 14.5 14.1046 14.5 13C14.5 12.5544 14.3711 11.1462 14.2476 9.89042C14.185 9.25347 14.1224 8.64266 14.0754 8.19118C14.052 7.9654 14.0324 7.7794 14.0187 7.6498L14 7.4734V1.5C14 1.22386 13.7761 1 13.5 1Z" fill="url(#paint0_linear_378174_8880)"/>
<path d="M6.72299 1.05361C6.86793 1.12627 6.95643 1.2562 6.98754 1.38902C7.00592 1.46752 7.5 3.5817 7.5 5C7.5 5.94976 7.05808 6.79662 6.37062 7.3455C6.11917 7.54626 6 7.76367 6 7.94635V8.43223C6 8.45598 6.00137 8.47639 6.00429 8.49802C6.03776 8.74617 6.16094 9.66687 6.27583 10.6219C6.38859 11.5593 6.5 12.5809 6.5 13C6.5 14.1046 5.60457 15 4.5 15C3.39543 15 2.5 14.1046 2.5 13C2.5 12.5809 2.61141 11.5593 2.72417 10.6219C2.83906 9.66687 2.96224 8.74617 2.99571 8.49802C2.99863 8.47639 3 8.45598 3 8.43223V7.94635C3 7.76367 2.88083 7.54626 2.62938 7.3455C1.94192 6.79662 1.5 5.94975 1.5 5C1.5 3.58703 1.99033 1.48364 2.01217 1.39028C2.04139 1.26537 2.11868 1.15051 2.23605 1.07708C2.34069 1.01163 2.44302 1 2.50518 1C2.78493 1 3.01172 1.22679 3.01172 1.50655V4.505C3.01172 4.77838 3.23334 5 3.50672 5C3.77104 5 3.98718 4.79264 4.00101 4.532C4.00034 4.52142 4 4.51075 4 4.5V1.5C4 1.22386 4.22386 1 4.5 1C4.77614 1 5 1.22386 5 1.5V4.5L4.9998 4.5142L5.00043 4.52612C5.0113 4.78951 5.2287 5 5.495 5C5.76838 5 5.99 4.77839 5.99 4.505V1.50559C5.99 1.22636 6.21636 1 6.49558 1L6.49684 1C6.51839 0.999975 6.61578 0.999854 6.72299 1.05361Z" fill="url(#paint1_linear_378174_8880)"/>
<defs>
<linearGradient id="paint0_linear_378174_8880" x1="8.15385" y1="1.875" x2="21.1983" y2="6.74874" gradientUnits="userSpaceOnUse">
<stop stop-color="#6CE0FF"/>
<stop offset="1" stop-color="#0067BF"/>
</linearGradient>
<linearGradient id="paint1_linear_378174_8880" x1="0.576923" y1="1.875" x2="14.4834" y2="7.54317" gradientUnits="userSpaceOnUse">
<stop stop-color="#6CE0FF"/>
<stop offset="1" stop-color="#0067BF"/>
</linearGradient>
</defs>
</svg>
