<svg width="24" height="24" viewBox="0 0 24 24" fill="none" xmlns="http://www.w3.org/2000/svg">
<path d="M8 6H6V8H8V6Z" fill="#212121"/>
<path d="M3 5.5C3 4.11929 4.11929 3 5.5 3H8.5C9.88071 3 11 4.11929 11 5.5V8.5C11 9.88071 9.88071 11 8.5 11H5.5C4.11929 11 3 9.88071 3 8.5V5.5ZM5.5 5C5.22386 5 5 5.22386 5 5.5V8.5C5 8.77614 5.22386 9 5.5 9H8.5C8.77614 9 9 8.77614 9 8.5V5.5C9 5.22386 8.77614 5 8.5 5H5.5Z" fill="#212121"/>
<path d="M6 16H8V18H6V16Z" fill="#212121"/>
<path d="M3 15.5C3 14.1193 4.11929 13 5.5 13H8.5C9.88071 13 11 14.1193 11 15.5V18.5C11 19.8807 9.88071 21 8.5 21H5.5C4.11929 21 3 19.8807 3 18.5V15.5ZM5.5 15C5.22386 15 5 15.2239 5 15.5V18.5C5 18.7761 5.22386 19 5.5 19H8.5C8.77614 19 9 18.7761 9 18.5V15.5C9 15.2239 8.77614 15 8.5 15H5.5Z" fill="#212121"/>
<path d="M18 6H16V8H18V6Z" fill="#212121"/>
<path d="M15.5 3C14.1193 3 13 4.11929 13 5.5V8.5C13 9.88071 14.1193 11 15.5 11H18.5C19.8807 11 21 9.88071 21 8.5V5.5C21 4.11929 19.8807 3 18.5 3H15.5ZM15 5.5C15 5.22386 15.2239 5 15.5 5H18.5C18.7761 5 19 5.22386 19 5.5V8.5C19 8.77614 18.7761 9 18.5 9H15.5C15.2239 9 15 8.77614 15 8.5V5.5Z" fill="#212121"/>
<path d="M13 13H15.75V15.75H13V13Z" fill="#212121"/>
<path d="M18.25 15.75H15.75V18.25H13V21H15.75V18.25H18.25V21H21V18.25H18.25V15.75Z" fill="#212121"/>
<path d="M18.25 15.75V13H21V15.75H18.25Z" fill="#212121"/>
</svg>
