<svg width="24" height="24" viewBox="0 0 24 24" fill="none" xmlns="http://www.w3.org/2000/svg">
<path d="M3 6.25C3 4.45507 4.45507 3 6.25 3H17.75C19.5449 3 21 4.45507 21 6.25V17.75C21 19.5449 19.5449 21 17.75 21H6.25C4.45507 21 3 19.5449 3 17.75V6.25ZM7.25 14C6.83579 14 6.5 14.3358 6.5 14.75C6.5 15.1642 6.83579 15.5 7.25 15.5H10.75C11.1642 15.5 11.5 15.1642 11.5 14.75C11.5 14.3358 11.1642 14 10.75 14H7.25ZM6.5 9.25C6.5 9.66421 6.83579 10 7.25 10H10.75C11.1642 10 11.5 9.66421 11.5 9.25C11.5 8.83579 11.1642 8.5 10.75 8.5H7.25C6.83579 8.5 6.5 8.83579 6.5 9.25ZM17.7803 8.78033C18.0732 8.48744 18.0732 8.01256 17.7803 7.71967C17.4874 7.42678 17.0126 7.42678 16.7197 7.71967L15.25 9.18934L14.7803 8.71967C14.4874 8.42678 14.0126 8.42678 13.7197 8.71967C13.4268 9.01256 13.4268 9.48744 13.7197 9.78033L14.7197 10.7803C15.0126 11.0732 15.4874 11.0732 15.7803 10.7803L17.7803 8.78033ZM17.7803 13.2197C17.4874 12.9268 17.0126 12.9268 16.7197 13.2197L15.25 14.6893L14.7803 14.2197C14.4874 13.9268 14.0126 13.9268 13.7197 14.2197C13.4268 14.5126 13.4268 14.9874 13.7197 15.2803L14.7197 16.2803C15.0126 16.5732 15.4874 16.5732 15.7803 16.2803L17.7803 14.2803C18.0732 13.9874 18.0732 13.5126 17.7803 13.2197Z" fill="#212121"/>
</svg>
