<svg width="24" height="24" viewBox="0 0 24 24" fill="none" xmlns="http://www.w3.org/2000/svg">
<path d="M7.00072 2C7.31463 2.00001 7.59531 2.19551 7.70416 2.48994L10.6559 10.4745C10.6602 10.4853 10.6642 10.4962 10.668 10.5072L10.8905 11.109L10.0624 13.195L9.43613 11.5008H4.56447L3.4517 14.5101C3.30804 14.8986 2.87663 15.0971 2.48813 14.9534C2.09963 14.8098 1.90114 14.3784 2.0448 13.9899L3.33266 10.5071C3.33643 10.4961 3.34046 10.4852 3.34473 10.4744L6.29724 2.48988C6.40611 2.19546 6.68682 1.99999 7.00072 2ZM5.11914 10.0008H8.8816L7.0006 4.91271L5.11914 10.0008ZM13.8066 6.47329C13.92 6.18746 14.1965 5.99986 14.504 6C14.8115 6.00014 15.0878 6.18799 15.201 6.47391L20.7559 20.5042L21.2499 20.5042C21.6641 20.5042 21.9999 20.84 21.9998 21.2542C21.9998 21.6684 21.664 22.0042 21.2498 22.0042L20.2597 22.0042C20.2561 22.0042 20.2524 22.0043 20.2487 22.0043C20.2435 22.0043 20.2382 22.0043 20.2329 22.0042L18.7507 22.0041C18.3364 22.0041 18.0007 21.6683 18.0007 21.2541C18.0007 20.8399 18.3365 20.5041 18.7507 20.5041L19.1426 20.5041L17.9532 17.5H11.0433L9.85074 20.5042L10.2499 20.5042C10.6641 20.5042 10.9999 20.84 10.9998 21.2542C10.9998 21.6684 10.664 22.0042 10.2498 22.0042L8.75991 22.0042C8.75663 22.0042 8.75335 22.0043 8.75006 22.0043C8.74401 22.0043 8.73795 22.0043 8.73188 22.0042L7.75065 22.0041C7.33644 22.0041 7.00066 21.6683 7.00067 21.2541C7.00068 20.8399 7.33648 20.5041 7.75069 20.5041L8.23689 20.5041L13.8066 6.47329ZM17.3593 16L14.5027 8.78508L11.6387 16H17.3593Z" fill="#212121"/>
</svg>
