<svg width="20" height="20" viewBox="0 0 20 20" fill="none" xmlns="http://www.w3.org/2000/svg">
<path d="M5.00066 13.0008C3.34344 13.0008 2 11.6573 2 10.0001C2 8.34289 3.34344 6.99945 5.00066 6.99945C6.48749 6.99945 7.72176 8.08085 7.95983 9.50004H9.5V6.50003C9.5 5.6716 10.1716 5.00003 11 5.00003H12.0414C12.2791 3.58049 13.5136 2.49872 15.0007 2.49872C16.6579 2.49872 18.0013 3.84216 18.0013 5.49937C18.0013 7.15659 16.6579 8.50003 15.0007 8.50003C13.514 8.50003 12.2799 7.41893 12.0416 6.00003H11C10.7239 6.00003 10.5 6.22389 10.5 6.50003V13.5C10.5 13.7762 10.7239 14 11 14H12.0414C12.2791 12.5805 13.5136 11.4987 15.0007 11.4987C16.6579 11.4987 18.0013 12.8422 18.0013 14.4994C18.0013 16.1566 16.6579 17.5 15.0007 17.5C13.514 17.5 12.2799 16.4189 12.0416 15H11C10.1716 15 9.5 14.3285 9.5 13.5V10.5H7.95985C7.72183 11.9193 6.48754 13.0008 5.00066 13.0008Z" fill="#212121"/>
</svg>
