<svg width="28" height="28" viewBox="0 0 28 28" fill="none" xmlns="http://www.w3.org/2000/svg">
<path d="M6.75 3C4.67893 3 3 4.67893 3 6.75V10.25C3 10.6642 3.33579 11 3.75 11C4.16421 11 4.5 10.6642 4.5 10.25V6.75C4.5 5.50736 5.50736 4.5 6.75 4.5H10.25C10.6642 4.5 11 4.16421 11 3.75C11 3.33579 10.6642 3 10.25 3H6.75ZM21.25 3C23.3211 3 25 4.67893 25 6.75V10.25C25 10.6642 24.6642 11 24.25 11C23.8358 11 23.5 10.6642 23.5 10.25V6.75C23.5 5.50736 22.4926 4.5 21.25 4.5H17.75C17.3358 4.5 17 4.16421 17 3.75C17 3.33579 17.3358 3 17.75 3H21.25ZM3 21.25C3 23.3211 4.67893 25 6.75 25H10.25C10.6642 25 11 24.6642 11 24.25C11 23.8358 10.6642 23.5 10.25 23.5H6.75C5.50736 23.5 4.5 22.4926 4.5 21.25V17.75C4.5 17.3358 4.16421 17 3.75 17C3.33579 17 3 17.3358 3 17.75V21.25ZM21.25 25C23.3211 25 25 23.3211 25 21.25V17.75C25 17.3358 24.6642 17 24.25 17C23.8358 17 23.5 17.3358 23.5 17.75V21.25C23.5 22.4926 22.4926 23.5 21.25 23.5H17.75C17.3358 23.5 17 23.8358 17 24.25C17 24.6642 17.3358 25 17.75 25H21.25ZM12.0439 10.212C11.5947 11.1585 11.1554 11.7459 10.8566 12.0796C10.7067 12.247 10.5905 12.3525 10.5235 12.4087C10.5026 12.4263 10.4864 12.4391 10.4754 12.4476L8.61655 13.5335C7.45749 14.2106 6.95189 15.6196 7.4284 16.8754L7.95404 18.2607C8.25535 19.0548 8.90763 19.6641 9.71919 19.9165L15.1332 21.6004C16.876 22.1425 18.7381 21.1653 19.257 19.4151L20.6361 14.7647C21.1616 12.9923 19.8178 11.2356 17.9772 11.2356H17.5456C17.6661 10.6927 17.7703 10.0578 17.7593 9.49102C17.7492 8.97088 17.6979 8.31739 17.4225 7.72569C17.1093 7.05294 16.5475 6.54509 15.7357 6.32168C14.4571 5.9698 13.5647 6.9317 13.2792 7.63546C13.0488 8.20356 12.8477 8.60006 12.5924 9.10289L12.5915 9.10462C12.4333 9.41602 12.2553 9.76647 12.0439 10.212Z" fill="#212121"/>
</svg>
