<svg width="20" height="20" viewBox="0 0 20 20" fill="none" xmlns="http://www.w3.org/2000/svg">
<path d="M5.5 1.99902C5.08579 1.99902 4.75 2.33481 4.75 2.74902V3.08067C3.17741 3.424 2 4.82456 2 6.50012V6.78131C2 8.24652 2.84648 9.57983 4.17246 10.2032L4.75 10.4747V15.3386C4.01735 15.042 3.5 14.3237 3.5 13.4839V12.4035C3.5 11.9893 3.16421 11.6535 2.75 11.6535C2.33579 11.6535 2 11.9893 2 12.4035V13.4839C2 15.1604 3.17826 16.5602 4.75 16.9034V17.2512C4.75 17.6654 5.08579 18.0012 5.5 18.0012C5.91421 18.0012 6.25 17.6654 6.25 17.2512V16.9033C7.82345 16.5598 9 15.1586 8.99999 13.4839L8.99999 13.2114C8.99999 11.7489 8.15508 10.418 6.83156 9.79583L6.25 9.52242V4.6455C6.98295 4.9422 7.49999 5.66077 7.5 6.50011L7.5 7.59588C7.5 8.0101 7.83579 8.34588 8.25 8.34588C8.66422 8.34588 9 8.01009 9 7.59588L9 6.50011C8.99999 4.82455 7.82258 3.424 6.25 3.08067V2.74902C6.25 2.33481 5.91421 1.99902 5.5 1.99902ZM3.5 6.50012C3.5 5.66078 4.01704 4.94219 4.75 4.6455V8.81613C3.98496 8.42857 3.5 7.64272 3.5 6.78131V6.50012ZM6.25 15.3385V11.1809C7.0149 11.5666 7.49999 12.3512 7.49999 13.2114L7.49999 13.4839C7.49999 14.3229 6.98326 15.0417 6.25 15.3385Z" fill="#212121"/>
<path d="M12.5046 10.0001C12.5046 9.66525 12.5239 9.33849 12.5605 9.02204L14.2542 9.02162C14.6684 9.02152 15.0041 8.68565 15.004 8.27143C15.0039 7.85722 14.668 7.52152 14.2538 7.52162L12.8836 7.52196C13.0704 6.94737 13.3186 6.43348 13.6109 6.00002C14.2824 5.00419 15.1301 4.50012 15.9691 4.50012C16.273 4.50012 16.6009 4.59307 16.8296 4.7488C17.172 4.98196 17.6385 4.89344 17.8717 4.55109C18.1048 4.20873 18.0163 3.74218 17.674 3.50902C17.1639 3.16167 16.5324 3.00012 15.9691 3.00012C14.4805 3.00012 13.221 3.89517 12.3672 5.16139C11.9109 5.83807 11.5542 6.64017 11.3204 7.52235L10.7515 7.5225C10.3373 7.5226 10.0016 7.85847 10.0017 8.27268C10.0018 8.6869 10.3376 9.0226 10.7518 9.0225L11.0521 9.02242C11.0207 9.34266 11.0046 9.66913 11.0046 10.0001C11.0046 10.0084 11.0046 10.0166 11.0047 10.0249L10.7506 10.0252C10.3364 10.0256 10.001 10.3617 10.0014 10.7759C10.0018 11.1901 10.3379 11.5256 10.7522 11.5252L11.1212 11.5248C11.3168 12.7836 11.7513 13.9255 12.3672 14.8389C13.221 16.1051 14.4805 17.0001 15.9691 17.0001C16.5112 17.0001 17.1611 16.8653 17.6925 16.4832C18.0288 16.2414 18.1054 15.7728 17.8636 15.4365C17.6218 15.1002 17.1531 15.0236 16.8168 15.2654C16.6095 15.4144 16.2942 15.5001 15.9691 15.5001C15.1301 15.5001 14.2824 14.9961 13.6109 14.0002C13.1647 13.3386 12.8213 12.4895 12.6423 11.5232L14.2547 11.5216C14.6689 11.5212 15.0044 11.1851 15.0039 10.7709C15.0035 10.3567 14.6674 10.0212 14.2532 10.0216L12.5047 10.0234C12.5046 10.0156 12.5046 10.0079 12.5046 10.0001Z" fill="#212121"/>
</svg>
