<svg width="28" height="28" viewBox="0 0 28 28" fill="none" xmlns="http://www.w3.org/2000/svg">
<path d="M14.0002 3.5C11.8209 3.5 10.1887 3.80642 9.19079 4.06864C8.80268 4.17062 8.51048 4.26593 8.31937 4.33394C8.22381 4.36794 8.15355 4.39511 8.10923 4.41287C8.08707 4.42175 8.07139 4.42827 8.06229 4.43212L8.05357 4.43584L8.05459 4.43539C7.67611 4.60347 7.23301 4.43299 7.06482 4.05453C6.8966 3.67602 7.06708 3.2328 7.4456 3.06458C7.4456 3.06458 7.68761 2.96777 7.44996 3.06265L7.45687 3.05964L7.47829 3.05048C7.49594 3.04302 7.52031 3.03291 7.55132 3.02048C7.61335 2.99563 7.70195 2.9615 7.81647 2.92075C8.04551 2.83924 8.37831 2.73121 8.80958 2.61788C9.91884 2.32641 11.6793 2 14.0002 2C16.321 2 18.0815 2.32641 19.1908 2.61788C19.6221 2.73121 19.9549 2.83924 20.1839 2.92075C20.2984 2.9615 20.387 2.99563 20.4491 3.02048C20.4801 3.03291 20.5044 3.04302 20.5221 3.05048L20.5435 3.05964L20.5504 3.06265L20.5529 3.06375L20.5539 3.0642C20.9324 3.23242 21.1038 3.67602 20.9356 4.05453C20.7676 4.43247 20.3255 4.60301 19.9473 4.43607L19.9459 4.43544L19.9381 4.43212C19.929 4.42827 19.9133 4.42175 19.8911 4.41287C19.8468 4.39511 19.7766 4.36794 19.681 4.33394C19.4899 4.26593 19.1977 4.17062 18.8096 4.06864C17.8117 3.80642 16.1795 3.5 14.0002 3.5ZM4 9.75C4 8.23122 5.23122 7 6.75 7H15.25C16.7688 7 18 8.23122 18 9.75V18.25C18 19.7688 16.7688 21 15.25 21H6.75C5.23122 21 4 19.7688 4 18.25V9.75ZM19 16.4797L22.3956 19.6593C23.1941 20.407 24.5 19.8408 24.5 18.7469V9.25315C24.5 8.15922 23.1942 7.593 22.3956 8.34071L19 11.5203V16.4797ZM9.19079 23.9314C10.1887 24.1936 11.8209 24.5 14.0002 24.5C16.1795 24.5 17.8117 24.1936 18.8096 23.9314C19.1977 23.8294 19.4899 23.7341 19.681 23.6661C19.7766 23.6321 19.8468 23.6049 19.8911 23.5871C19.9133 23.5783 19.929 23.5717 19.9381 23.5679L19.9459 23.5646L19.9473 23.5639C20.3255 23.397 20.7676 23.5675 20.9356 23.9455C21.1038 24.324 20.9324 24.7676 20.5539 24.9358L20.5529 24.9362L20.5504 24.9373L20.5435 24.9404L20.5221 24.9495C20.5044 24.957 20.4801 24.9671 20.4491 24.9795C20.387 25.0044 20.2984 25.0385 20.1839 25.0793C19.9549 25.1608 19.6221 25.2688 19.1908 25.3821C18.0815 25.6736 16.321 26 14.0002 26C11.6793 26 9.91884 25.6736 8.80958 25.3821C8.37831 25.2688 8.04551 25.1608 7.81647 25.0793C7.70195 25.0385 7.61335 25.0044 7.55132 24.9795C7.52031 24.9671 7.49594 24.957 7.47829 24.9495L7.45687 24.9404L7.44996 24.9373C7.68761 25.0322 7.4456 24.9354 7.4456 24.9354C7.06708 24.7672 6.8966 24.324 7.06482 23.9455C7.23301 23.567 7.67611 23.3965 8.05459 23.5646L8.06229 23.5679C8.07139 23.5717 8.08707 23.5783 8.10923 23.5871C8.15355 23.6049 8.22381 23.6321 8.31937 23.6661C8.51048 23.7341 8.80268 23.8294 9.19079 23.9314Z" fill="#212121"/>
</svg>
