<svg width="24" height="24" viewBox="0 0 24 24" fill="none" xmlns="http://www.w3.org/2000/svg">
<path d="M12 1.99805C17.5237 1.99805 22.0015 6.47589 22.0015 11.9996C22.0015 17.5233 17.5237 22.0011 12 22.0011C6.47626 22.0011 1.99841 17.5233 1.99841 11.9996C1.99841 6.47589 6.47626 1.99805 12 1.99805ZM8.4617 14.7829C8.20535 14.4576 7.73379 14.4016 7.40843 14.658C7.08307 14.9143 7.02713 15.3859 7.28348 15.7112C8.41408 17.1462 10.1373 18.0012 11.9999 18.0012C13.8601 18.0012 15.5813 17.1485 16.712 15.7168C16.9688 15.3917 16.9134 14.9201 16.5883 14.6634C16.2633 14.4066 15.7916 14.462 15.5349 14.7871C14.6856 15.8624 13.3962 16.5012 11.9999 16.5012C10.6019 16.5012 9.31084 15.8606 8.4617 14.7829ZM9.00041 8.75024C8.31045 8.75024 7.75112 9.30956 7.75112 9.99953C7.75112 10.6895 8.31045 11.2488 9.00041 11.2488C9.69037 11.2488 10.2497 10.6895 10.2497 9.99953C10.2497 9.30956 9.69037 8.75024 9.00041 8.75024ZM15.0004 8.75024C14.3104 8.75024 13.7511 9.30956 13.7511 9.99953C13.7511 10.6895 14.3104 11.2488 15.0004 11.2488C15.6904 11.2488 16.2497 10.6895 16.2497 9.99953C16.2497 9.30956 15.6904 8.75024 15.0004 8.75024Z" fill="#212121"/>
</svg>
