<svg width="32" height="32" viewBox="0 0 32 32" fill="none" xmlns="http://www.w3.org/2000/svg">
<path d="M18.7973 19.5C18.6486 19.9146 18.5 20.4482 18.5 21C18.5 23.4853 20.5147 25.5 23 25.5C25.4853 25.5 27.5 23.4853 27.5 21C27.5 20.6052 27.4239 20.2196 27.3261 19.8803C28.0312 20.3224 28.5 21.1064 28.5 22V26C28.5 27.3807 27.3807 28.5 26 28.5H6C4.61929 28.5 3.5 27.3807 3.5 26V22C3.5 20.6193 4.61929 19.5 6 19.5H6.43849L9.04379 22.1053C10.8988 23.9603 13.9063 23.9604 15.7613 22.1054L18.3668 19.5H18.7973Z" fill="#212121"/>
</svg>
