<svg width="24" height="24" viewBox="0 0 24 24" fill="none" xmlns="http://www.w3.org/2000/svg">
<path d="M4.25 13C3.00736 13 2 14.0074 2 15.25V15.5C2 15.5 2 20 8 20C14 20 14 15.5 14 15.5V15.25C14 14.0074 12.9926 13 11.75 13H4.25Z" fill="url(#paint0_linear_74358_6475)"/>
<path d="M4.25 13C3.00736 13 2 14.0074 2 15.25V15.5C2 15.5 2 20 8 20C14 20 14 15.5 14 15.5V15.25C14 14.0074 12.9926 13 11.75 13H4.25Z" fill="url(#paint1_linear_74358_6475)"/>
<path d="M4.25 13C3.00736 13 2 14.0074 2 15.25V15.5C2 15.5 2 20 8 20C14 20 14 15.5 14 15.5V15.25C14 14.0074 12.9926 13 11.75 13H4.25Z" fill="url(#paint2_radial_74358_6475)" fill-opacity="0.5"/>
<path d="M17 11C18.6569 11 20 9.65685 20 8C20 6.34315 18.6569 5 17 5C15.3431 5 14 6.34315 14 8C14 9.65685 15.3431 11 17 11Z" fill="url(#paint3_linear_74358_6475)"/>
<path d="M8 11C10.2091 11 12 9.20914 12 7C12 4.79086 10.2091 3 8 3C5.79086 3 4 4.79086 4 7C4 9.20914 5.79086 11 8 11Z" fill="url(#paint4_linear_74358_6475)"/>
<path d="M17.5 12C20.5376 12 23 14.4624 23 17.5C23 20.5376 20.5376 23 17.5 23C14.4624 23 12 20.5376 12 17.5C12 14.4624 14.4624 12 17.5 12Z" fill="url(#paint5_linear_74358_6475)"/>
<path d="M17.5 14C17.2342 14 17.0146 14.1975 16.9798 14.4538L16.975 14.525V16.975H14.525C14.2351 16.975 14 17.2101 14 17.5C14 17.7658 14.1975 17.9854 14.4538 18.0202L14.525 18.025H16.975V20.475C16.975 20.7649 17.2101 21 17.5 21C17.7658 21 17.9854 20.8025 18.0202 20.5462L18.025 20.475V18.025H20.475C20.7649 18.025 21 17.7899 21 17.5C21 17.2342 20.8025 17.0146 20.5462 16.9798L20.475 16.975H18.025V14.525C18.025 14.2351 17.7899 14 17.5 14Z" fill="url(#paint6_linear_74358_6475)"/>
<defs>
<linearGradient id="paint0_linear_74358_6475" x1="4.85365" y1="13.9305" x2="7.40972" y2="20.9274" gradientUnits="userSpaceOnUse">
<stop offset="0.125321" stop-color="#BD96FF"/>
<stop offset="1" stop-color="#9C6CFE"/>
</linearGradient>
<linearGradient id="paint1_linear_74358_6475" x1="8" y1="12.1667" x2="11.6074" y2="23.7212" gradientUnits="userSpaceOnUse">
<stop stop-color="#885EDB" stop-opacity="0"/>
<stop offset="1" stop-color="#E362F8"/>
</linearGradient>
<radialGradient id="paint2_radial_74358_6475" cx="0" cy="0" r="1" gradientUnits="userSpaceOnUse" gradientTransform="translate(15.2 17.375) rotate(66.4985) scale(5.58857 5.51762)">
<stop stop-color="#30116E"/>
<stop offset="0.268231" stop-color="#30116E" stop-opacity="0.811643"/>
<stop offset="1" stop-color="#30116E" stop-opacity="0"/>
</radialGradient>
<linearGradient id="paint3_linear_74358_6475" x1="15.4268" y1="5.79761" x2="18.4846" y2="10.6803" gradientUnits="userSpaceOnUse">
<stop offset="0.125321" stop-color="#9C6CFE"/>
<stop offset="1" stop-color="#7A41DC"/>
</linearGradient>
<linearGradient id="paint4_linear_74358_6475" x1="5.90243" y1="4.06349" x2="9.97953" y2="10.5737" gradientUnits="userSpaceOnUse">
<stop offset="0.125321" stop-color="#BD96FF"/>
<stop offset="1" stop-color="#9C6CFE"/>
</linearGradient>
<linearGradient id="paint5_linear_74358_6475" x1="12.3929" y1="14.0625" x2="19.9842" y2="21.9496" gradientUnits="userSpaceOnUse">
<stop stop-color="#52D17C"/>
<stop offset="1" stop-color="#22918B"/>
</linearGradient>
<linearGradient id="paint6_linear_74358_6475" x1="15.3125" y1="14.714" x2="17.4603" y2="22.2961" gradientUnits="userSpaceOnUse">
<stop stop-color="white"/>
<stop offset="1" stop-color="#E3FFD9"/>
</linearGradient>
</defs>
</svg>
