<svg width="28" height="28" viewBox="0 0 28 28" fill="none" xmlns="http://www.w3.org/2000/svg">
<path d="M3 6C3 4.34315 4.34315 3 6 3H9.5C10.0523 3 10.5 3.44772 10.5 4C10.5 4.55228 10.0523 5 9.5 5H6C5.44772 5 5 5.44772 5 6V9.5C5 10.0523 4.55228 10.5 4 10.5C3.44772 10.5 3 10.0523 3 9.5V6ZM17.5 4C17.5 3.44772 17.9477 3 18.5 3H22C23.6569 3 25 4.34315 25 6V9.5C25 10.0523 24.5523 10.5 24 10.5C23.4477 10.5 23 10.0523 23 9.5V6C23 5.44772 22.5523 5 22 5H18.5C17.9477 5 17.5 4.55228 17.5 4ZM4 17.5C4.55228 17.5 5 17.9477 5 18.5V22C5 22.5523 5.44772 23 6 23H9.5C10.0523 23 10.5 23.4477 10.5 24C10.5 24.5523 10.0523 25 9.5 25H6C4.34315 25 3 23.6569 3 22V18.5C3 17.9477 3.44772 17.5 4 17.5ZM24 17.5C24.5523 17.5 25 17.9477 25 18.5V22C25 23.6569 23.6569 25 22 25H18.5C17.9477 25 17.5 24.5523 17.5 24C17.5 23.4477 17.9477 23 18.5 23H22C22.5523 23 23 22.5523 23 22V18.5C23 17.9477 23.4477 17.5 24 17.5Z" fill="#242424"/>
</svg>
