<svg width="16" height="16" viewBox="0 0 16 16" fill="none" xmlns="http://www.w3.org/2000/svg">
<path d="M12.296 11.7364C12.58 12.0384 12.566 12.5124 12.264 12.7964C12.119 12.9334 11.935 13.0004 11.75 13.0004C11.551 13.0004 11.352 12.9214 11.204 12.7644L7.204 8.51445C6.932 8.22645 6.932 7.77545 7.204 7.48745L11.204 3.23645C11.487 2.93345 11.963 2.92045 12.264 3.20445C12.566 3.48745 12.58 3.96245 12.296 4.26445L8.78 8.00045L12.296 11.7364V11.7364ZM4.75 3.00045C4.336 3.00045 4 3.33645 4 3.75045V12.2504C4 12.6644 4.336 13.0004 4.75 13.0004C5.164 13.0004 5.5 12.6644 5.5 12.2504V3.75045C5.5 3.33645 5.164 3.00045 4.75 3.00045Z" fill="#212121"/>
</svg>
