<svg width="48" height="48" viewBox="0 0 48 48" fill="none" xmlns="http://www.w3.org/2000/svg">
<path d="M34.2322 36L41.8661 43.6339C42.3543 44.122 43.1457 44.122 43.6339 43.6339C44.122 43.1457 44.122 42.3543 43.6339 41.8661L6.13388 4.36612C5.64573 3.87796 4.85427 3.87796 4.36612 4.36612C3.87796 4.85427 3.87796 5.64573 4.36612 6.13388L11.2043 12.9721L5.46044 19.1817C5.17321 19.4449 4.92026 19.745 4.70907 20.0743C4.24941 20.7668 4 21.5836 4 22.4247V29.5C4 33.0899 6.91015 36 10.5 36H15.5C19.0899 36 22 33.0899 22 29.5V24.5H22.7322L26 27.7678V29.5C26 33.0899 28.9101 36 32.5 36H34.2322ZM16.2322 18H9.95902L12.9734 14.7412L16.2322 18ZM40.069 35.4726C42.3812 34.4767 44 32.1774 44 29.5V22.4247C44 21.5836 43.7506 20.7668 43.2909 20.0743C43.0797 19.745 42.8268 19.4449 42.5396 19.1817L35.3083 11.3641C34.5039 10.4944 33.373 10 32.1884 10H29.25C28.5596 10 28 10.5596 28 11.25C28 11.9404 28.5596 12.5 29.25 12.5H32.1884C32.6762 12.5 33.1418 12.7036 33.473 13.0617L38.041 18H30.5C28.354 18 26.5589 19.5021 26.1087 21.5123L28.5 23.9036V22.5C28.5 21.3954 29.3954 20.5 30.5 20.5H39.5C39.9909 20.5 40.4406 20.6769 40.7886 20.9704L41.0347 21.2364C41.0923 21.2987 41.1449 21.3647 41.1924 21.4338C41.3873 21.7424 41.5 22.1081 41.5 22.5V29.5C41.5 31.5198 40.0029 33.19 38.0578 33.4614L40.069 35.4726ZM14.735 10.1386L17.0964 12.5H18.75C19.4404 12.5 20 11.9404 20 11.25C20 10.5596 19.4404 10 18.75 10H15.8116C15.4449 10 15.0834 10.0474 14.735 10.1386ZM17.5 20.5C18.6046 20.5 19.5 21.3954 19.5 22.5V29.5C19.5 31.7091 17.7091 33.5 15.5 33.5H10.5C8.29086 33.5 6.5 31.7091 6.5 29.5V22.5C6.5 22.1081 6.61274 21.7425 6.80756 21.4338C6.85506 21.3647 6.90773 21.2987 6.96533 21.2364L7.2114 20.9704C7.55945 20.6769 8.00907 20.5 8.5 20.5H17.5Z" fill="#212121"/>
</svg>
