<svg width="20" height="20" viewBox="0 0 20 20" fill="none" xmlns="http://www.w3.org/2000/svg">
<path d="M17 5.5C16.4477 5.5 16 5.05228 16 4.5C16 3.94772 16.4477 3.5 17 3.5C17.5523 3.5 18 3.94772 18 4.5C18 5.05228 17.5523 5.5 17 5.5ZM14 4.5C14 4.22386 13.7761 4 13.5 4H2.5C2.22386 4 2 4.22386 2 4.5C2 4.77614 2.22386 5 2.5 5H13.5C13.7761 5 14 4.77614 14 4.5ZM14 9.5C14 9.22386 13.7761 9 13.5 9H2.5C2.22386 9 2 9.22386 2 9.5C2 9.77614 2.22386 10 2.5 10H13.5C13.7761 10 14 9.77614 14 9.5ZM13.5 14C13.7761 14 14 14.2239 14 14.5C14 14.7761 13.7761 15 13.5 15H2.5C2.22386 15 2 14.7761 2 14.5C2 14.2239 2.22386 14 2.5 14H13.5ZM16 14.5C16 15.0523 16.4477 15.5 17 15.5C17.5523 15.5 18 15.0523 18 14.5C18 13.9477 17.5523 13.5 17 13.5C16.4477 13.5 16 13.9477 16 14.5ZM17 10.5C16.4477 10.5 16 10.0523 16 9.5C16 8.94772 16.4477 8.5 17 8.5C17.5523 8.5 18 8.94772 18 9.5C18 10.0523 17.5523 10.5 17 10.5Z" fill="#212121"/>
</svg>
