<svg width="17" height="16" viewBox="0 0 17 16" fill="none" xmlns="http://www.w3.org/2000/svg">
<path d="M1 4.5C1 3.11929 2.11929 2 3.5 2H12.5C13.8807 2 15 3.11929 15 4.5V5.13392C14.6757 5.03128 14.3368 4.98764 14 5.00299V4.5C14 3.67157 13.3284 3 12.5 3H3.5C2.67157 3 2 3.67157 2 4.5V9.5C2 10.3284 2.67157 11 3.5 11H5V13.8981L6.27481 12.7827L6.05716 13.6532C5.99828 13.8887 5.98573 14.1205 6.01226 14.3412L5.62533 14.6797C4.99168 15.2342 4 14.7842 4 13.9422V12H3.5C2.11929 12 1 10.8807 1 9.5V4.5ZM7.97975 11.3772L12.8092 6.54776C13.5395 5.81741 14.7237 5.81741 15.454 6.54776C16.1843 7.27811 16.1843 8.46223 15.454 9.19258L10.6246 14.022C10.343 14.3036 9.99019 14.5033 9.60387 14.5999L8.10597 14.9744C7.45456 15.1372 6.86451 14.5472 7.02737 13.8958L7.40184 12.3979C7.49842 12.0116 7.69818 11.6588 7.97975 11.3772Z" fill="#242424"/>
</svg>
