<svg width="24" height="24" viewBox="0 0 24 24" fill="none" xmlns="http://www.w3.org/2000/svg">
<path d="M8.25 2C6.53691 2 5.13339 3.32542 5.00897 5.00672C5.08874 5.00226 5.16911 5 5.25 5H14.75C17.0972 5 19 6.90279 19 9.25V13H19.25C20.2046 13 21.0934 13.2816 21.838 13.7663C21.9431 13.4465 22 13.1049 22 12.75V6.75C22 4.12665 19.8734 2 17.25 2H8.25ZM18 9.25V13H15.75C13.1266 13 11 15.1266 11 17.75C11 18.1826 11.0578 18.6017 11.1662 19H10.6667L7 21.75C6.17595 22.368 5 21.7801 5 20.75V18.9905C3.32189 18.8629 2 17.4608 2 15.75V9.25C2 7.53919 3.32189 6.13713 5 6.00947C5.08251 6.0032 5.16588 6 5.25 6H14.75C16.5449 6 18 7.45507 18 9.25ZM23 17.75C23 15.6789 21.3211 14 19.25 14L19.1482 14.0068C18.7822 14.0565 18.5 14.3703 18.5 14.75C18.5 15.1642 18.8358 15.5 19.25 15.5L19.404 15.5052C20.5748 15.5844 21.5 16.5591 21.5 17.75C21.5 18.9926 20.4926 20 19.25 20L19.2466 20.0046L19.1448 20.0119C18.779 20.0633 18.4983 20.3783 18.5 20.758C18.5019 21.1722 18.8392 21.5065 19.2534 21.5046V21.5L19.4523 21.4948C21.4276 21.3913 23 19.7543 23 17.75ZM16.5 14.75C16.5 14.3358 16.1642 14 15.75 14L15.5508 14.0052C13.5724 14.1087 12 15.7457 12 17.75C12 19.8211 13.6789 21.5 15.75 21.5L15.8518 21.4932C16.2178 21.4435 16.5 21.1297 16.5 20.75C16.5 20.3358 16.1642 20 15.75 20L15.596 19.9948C14.4252 19.9156 13.5 18.9409 13.5 17.75C13.5 16.5074 14.5074 15.5 15.75 15.5L15.8518 15.4932C16.2178 15.4435 16.5 15.1297 16.5 14.75ZM20 17.75C20 17.3358 19.6642 17 19.25 17H15.75L15.6482 17.0068C15.2822 17.0565 15 17.3703 15 17.75C15 18.1642 15.3358 18.5 15.75 18.5H19.25L19.3518 18.4932C19.7178 18.4435 20 18.1297 20 17.75Z" fill="#212121"/>
</svg>
