<svg width="28" height="28" viewBox="0 0 28 28" fill="none" xmlns="http://www.w3.org/2000/svg">
<path d="M24.7197 2.21973C25.0126 1.92684 25.4874 1.92684 25.7803 2.21973C26.0732 2.51262 26.0732 2.98738 25.7803 3.28027L22.9961 6.06348C24.8639 8.17906 26 10.956 26 14C26 20.6274 20.6274 26 14 26C10.956 26 8.17906 24.8639 6.06348 22.9961L3.28027 25.7803C2.98736 26.0728 2.51251 26.0731 2.21973 25.7803C1.92713 25.4875 1.92723 25.0126 2.21973 24.7197L24.7197 2.21973ZM7.12598 21.9336C8.96815 23.5311 11.3702 24.5 14 24.5C19.799 24.5 24.5 19.799 24.5 14C24.5 11.3702 23.5311 8.96815 21.9336 7.12598L7.12598 21.9336ZM16.6758 14.583C16.9508 13.8059 18.0499 13.8058 18.3252 14.583L18.7266 15.7148C18.8191 15.976 19.024 16.1819 19.2852 16.2744L20.417 16.6748C21.1942 16.95 21.1942 18.0491 20.417 18.3242L19.2852 18.7246C19.024 18.8171 18.8191 19.0231 18.7266 19.2842L18.3252 20.417C18.05 21.1942 16.9508 21.1941 16.6758 20.417L16.2754 19.2852C16.1829 19.0235 15.9775 18.8171 15.7158 18.7246L14.583 18.3252C13.8055 18.0502 13.8055 16.9498 14.583 16.6748L15.7158 16.2744C15.9773 16.1819 16.1829 15.9763 16.2754 15.7148L16.6758 14.583ZM14 2C16.5001 2 18.8213 2.76517 20.7432 4.07324L19.6592 5.15723C18.0258 4.1097 16.0845 3.5 14 3.5C8.20101 3.5 3.5 8.20101 3.5 14C3.5 16.0845 4.1097 18.0258 5.15723 19.6592L4.07324 20.7432C2.76517 18.8213 2 16.5001 2 14C2 7.37258 7.37258 2 14 2ZM10.4395 7.75C10.7927 6.75047 12.2064 6.74991 12.5605 7.74902L13.0762 9.20508C13.1951 9.54097 13.46 9.80588 13.7959 9.9248L14.6055 10.2109L10.2119 14.6045L9.92578 13.7949C9.80691 13.4586 9.54231 13.1942 9.20605 13.0752L7.75 12.5605C6.75017 12.2071 6.75021 10.793 7.75 10.4395L9.20605 9.9248C9.54239 9.80586 9.80689 9.54046 9.92578 9.2041L10.4395 7.75Z" fill="#212121"/>
</svg>
