<svg width="28" height="28" viewBox="0 0 28 28" fill="none" xmlns="http://www.w3.org/2000/svg">
<path d="M9.14355 13.4834C9.3751 13.0994 9.8343 12.9166 10.2666 13.0361C10.6998 13.1561 11 13.5505 11 14V24C11 24.5523 10.5523 25 10 25C9.44779 24.9999 9 24.5522 9 24V16.7354C8.574 17.1278 8.07673 17.5202 7.51465 17.8574C7.04109 18.1416 6.42675 17.9882 6.14258 17.5146C5.85848 17.0412 6.01197 16.4268 6.48535 16.1426C7.29611 15.6561 7.96511 14.9931 8.43945 14.4326C8.6739 14.1555 8.85459 13.9105 8.97461 13.7383C9.03438 13.6525 9.07913 13.585 9.10742 13.541C9.12139 13.5193 9.13179 13.5037 9.1377 13.4941L9.14258 13.4854L9.14355 13.4834ZM13.75 3C18.6498 3.00004 22.2451 5.37931 24.8438 9.46289C25.1402 9.92876 25.0029 10.5472 24.5371 10.8438C24.0712 11.1402 23.4528 11.0029 23.1562 10.5371C20.8578 6.92526 17.8501 5.00004 13.75 5C9.80201 5 6.38341 6.70102 4.69922 9H9C9.55228 9 10 9.44772 10 10C10 10.5523 9.55228 11 9 11H3C2.44772 11 2 10.5523 2 10V4C2 3.44772 2.44772 3 3 3C3.55228 3 4 3.44772 4 4V6.74707C6.27677 4.44233 9.88497 3 13.75 3Z" fill="#212121"/>
<path d="M21.1025 13.0059C21.6067 13.0572 21.9999 13.4833 22 14.001C21.9997 14.5185 21.6065 14.9448 21.1025 14.9961L21 15.001H17.3799L17.1328 16.9707C17.6805 16.9659 18.3639 16.9749 18.8418 17.042L19.0576 17.0781C21.2656 17.5033 22.7755 19.591 22.459 21.8428C22.1421 24.0942 20.1154 25.6844 17.876 25.4844L17.6592 25.46C16.3849 25.2809 15.3041 24.5503 14.6572 23.5391C14.3601 23.074 14.4961 22.4558 14.9609 22.1582C15.4262 21.8606 16.0452 21.9966 16.3428 22.4619C16.683 22.9935 17.2558 23.3837 17.9375 23.4795L18.167 23.5C19.3062 23.5437 20.316 22.7176 20.4785 21.5645C20.6406 20.4109 19.8974 19.3385 18.79 19.0664L18.5635 19.0225C18.2223 18.9745 17.6173 18.9645 17.042 18.9717C16.7664 18.9751 16.5158 18.9821 16.334 18.9883C16.2435 18.9914 16.1702 18.994 16.1201 18.9961C16.0951 18.9971 16.0753 18.9985 16.0625 18.999C16.0565 18.9993 16.0519 18.9999 16.0488 19H16.0439C15.7494 19.0139 15.4631 18.8969 15.2627 18.6807C15.0623 18.4642 14.9684 18.1696 15.0049 17.877L15.5049 13.877L15.5205 13.7842C15.6208 13.3308 16.0244 13.001 16.4971 13.001H21L21.1025 13.0059Z" fill="#242424"/>
</svg>
