<svg width="28" height="28" viewBox="0 0 28 28" fill="none" xmlns="http://www.w3.org/2000/svg">
<path d="M9.88184 13.0967C10.103 12.9722 10.3793 12.9651 10.6104 13.0918C10.6294 13.1022 10.6481 13.114 10.666 13.126C10.6741 13.1314 10.6825 13.1368 10.6904 13.1426C10.8109 13.2299 10.8977 13.3467 10.9482 13.4756C10.9675 13.5244 10.9816 13.5757 10.9902 13.6289C10.9976 13.6742 11.001 13.7206 11 13.7666V24.25C11 24.6642 10.6642 25 10.25 25C9.83592 24.9999 9.5 24.6641 9.5 24.25V15.9053C9.01267 16.4055 8.39318 16.9397 7.63672 17.3936C7.28154 17.6067 6.82053 17.4909 6.60742 17.1357C6.39436 16.7806 6.50913 16.3196 6.86426 16.1064C8.39341 15.1889 9.26603 13.8758 9.56152 13.4307C9.58749 13.3915 9.60887 13.3588 9.62598 13.334C9.64877 13.2999 9.67422 13.2672 9.70215 13.2373C9.75534 13.1803 9.81644 13.1335 9.88184 13.0967ZM21.3271 13.0039C21.7051 13.0425 22 13.3618 22 13.75C22 14.1382 21.7051 14.4575 21.3271 14.4961L21.25 14.5H17.4092L17.1006 16.9512C17.1047 16.9511 17.1091 16.9513 17.1133 16.9512C17.6527 16.9368 18.3757 16.9437 19.0547 17.0391L19.2578 17.0732C21.3359 17.4734 22.7567 19.4373 22.459 21.5566C22.1612 23.6758 20.2542 25.1723 18.1465 24.9844L17.9414 24.9609C16.8026 24.8008 15.8432 24.1753 15.2295 23.3057L15.1113 23.1279L15.0732 23.0615C14.9043 22.7209 15.0179 22.3005 15.3467 22.0938C15.6754 21.8871 16.1031 21.967 16.3369 22.2666L16.3809 22.3301L16.5352 22.5479C16.9205 23.0369 17.4863 23.3823 18.1504 23.4756L18.4053 23.499C19.6715 23.5477 20.7935 22.6295 20.9736 21.3477C21.1536 20.066 20.328 18.8755 19.0977 18.5732L18.8467 18.5244C18.2863 18.4457 17.6566 18.4368 17.1533 18.4502C16.905 18.4568 16.6934 18.4694 16.5449 18.4795C16.4708 18.4845 16.412 18.4889 16.373 18.4922L16.3193 18.4971H16.3174C16.0908 18.519 15.8668 18.4365 15.708 18.2734C15.5491 18.1101 15.4727 17.8833 15.501 17.6572L16.0029 13.6562L16.0322 13.5205C16.13 13.2154 16.4163 13 16.7471 13H21.25L21.3271 13.0039ZM2.75 2.5C3.1642 2.50001 3.5 2.83579 3.5 3.25V7.93652C5.52422 5.07267 9.31644 3.00003 13.75 3C18.5328 3 22.3114 5.30682 24.8828 9.34766C25.1049 9.69707 25.0017 10.1605 24.6523 10.3828C24.3029 10.605 23.8395 10.5017 23.6172 10.1523C21.2915 6.49775 17.967 4.5 13.75 4.5C9.65562 4.50004 6.26987 6.46881 4.58984 9H9.25C9.66421 9 10 9.33579 10 9.75C10 10.1642 9.66421 10.5 9.25 10.5H2.75C2.33579 10.5 2 10.1642 2 9.75V3.25C2 2.83579 2.33579 2.5 2.75 2.5Z" fill="#212121"/>
</svg>
