<svg width="24" height="24" viewBox="0 0 24 24" fill="none" xmlns="http://www.w3.org/2000/svg">
<path d="M6.5 12C9.53757 12 12 14.4624 12 17.5C12 20.5376 9.53757 23 6.5 23C3.46243 23 1 20.5376 1 17.5C1 14.4624 3.46243 12 6.5 12ZM16.7488 2C17.9915 2 18.9988 3.00736 18.9988 4.25V19.75C18.9988 20.9926 17.9915 22 16.7488 22L11.1896 22.0008C12.3109 20.8328 13 19.2469 13 17.5C13 13.9101 10.0899 11 6.5 11C5.61413 11 4.76965 11.1772 4 11.4981V4.25C4 3.00736 5.00736 2 6.25 2H16.7488ZM9.5 17.5H7.5L7.41012 17.5081C7.17688 17.5504 7 17.7545 7 18C7 18.2455 7.17688 18.4496 7.41012 18.4919L7.5 18.5L8.3705 18.5006C8.01033 19.1742 7.29974 19.6236 6.49649 19.6236C5.8827 19.6236 5.31221 19.3624 4.91136 18.9132C4.85559 18.8507 4.80355 18.785 4.75553 18.7164C4.59713 18.4902 4.28535 18.4353 4.05916 18.5937C3.83297 18.7521 3.77801 19.0639 3.93642 19.29C4.00695 19.3908 4.08336 19.4872 4.16521 19.579C4.75386 20.2387 5.5947 20.6236 6.49649 20.6236C7.44467 20.6236 8.30481 20.1981 8.88143 19.5177L9.00058 19.3681L9 20L9.00806 20.0899C9.05039 20.3231 9.25454 20.5 9.5 20.5C9.74546 20.5 9.94961 20.3231 9.99194 20.0899L10 20V18L9.99194 17.9101C9.94961 17.6769 9.74546 17.5 9.5 17.5ZM20.75 15.0019C21.1297 15.0019 21.4435 15.2841 21.4932 15.6502L21.5 15.7519V17.25C21.5 17.6297 21.2178 17.9435 20.8518 17.9932L20.75 18H20V15.0019H20.75ZM6.49649 14.3764C5.55161 14.3764 4.69422 14.7989 4.11767 15.4751L3.99849 15.6238L3.99871 15L3.99066 14.9101C3.94832 14.6769 3.74417 14.5 3.49871 14.5C3.25325 14.5 3.0491 14.6769 3.00677 14.9101L2.99871 15V17L3.00677 17.0899C3.04381 17.294 3.20474 17.4549 3.40884 17.4919L3.49871 17.5L3.94069 17.5015L5.5 17.5L5.58988 17.4919C5.82312 17.4496 6 17.2455 6 17C6 16.7545 5.82312 16.5504 5.58988 16.5081L5.5 16.5L4.62227 16.4998C4.98237 15.826 5.69305 15.3764 6.49649 15.3764C7.10852 15.3764 7.67753 15.6361 8.07828 16.0831C8.13699 16.1486 8.19161 16.2176 8.24178 16.2898C8.39938 16.5166 8.71096 16.5726 8.93771 16.415C9.16447 16.2574 9.22053 15.9458 9.06293 15.7191C8.98924 15.6131 8.90905 15.5117 8.82286 15.4155C8.23437 14.7591 7.3957 14.3764 6.49649 14.3764ZM20.75 11.0019C21.1297 11.0019 21.4435 11.2841 21.4932 11.6502L21.5 11.7519V13.25C21.5 13.6297 21.2178 13.9435 20.8518 13.9932L20.75 14H20V11.0019H20.75ZM20.75 7.00194C21.1297 7.00194 21.4435 7.28409 21.4932 7.65017L21.5 7.75194V9.25C21.5 9.6297 21.2178 9.94349 20.8518 9.99315L20.75 10H20V7.00194H20.75ZM14.7425 5.50189H8.24178C7.86208 5.50189 7.54829 5.78404 7.49863 6.15012L7.49178 6.25189V7.75097C7.49178 8.13067 7.77393 8.44446 8.14001 8.49412L8.24178 8.50097H14.7425C15.1222 8.50097 15.436 8.21882 15.4856 7.85274L15.4925 7.75097V6.25189C15.4925 5.83767 15.1567 5.50189 14.7425 5.50189Z" fill="#212121"/>
</svg>
