<?xml version="1.0" encoding="UTF-8"?>
<svg width="24px" height="24px" viewBox="0 0 24 24" version="1.1" xmlns="http://www.w3.org/2000/svg" xmlns:xlink="http://www.w3.org/1999/xlink">
    <!-- Generator: Sketch 59.1 (86144) - https://sketch.com -->
    <title>ic_swipe_down_24_filled</title>
    <desc>Created with Sketch.</desc>
    <g id="ðŸ”-Product-Icons" stroke="none" stroke-width="1" fill="none" fill-rule="evenodd">
        <g id="ic_swipe_down_24_filled" fill="#212121">
            <path d="M6.29289322,15.2928932 C6.65337718,14.9324093 7.22060824,14.9046797 7.61289944,15.2097046 L7.70710678,15.2928932 L12,19.5857864 L16.2928932,15.2928932 C16.6834175,14.9023689 17.3165825,14.9023689 17.7071068,15.2928932 C18.0675907,15.6533772 18.0953203,16.2206082 17.7902954,16.6128994 L17.7071068,16.7071068 L12.7071068,21.7071068 C12.3466228,22.0675907 11.7793918,22.0953203 11.3871006,21.7902954 L11.2928932,21.7071068 L6.29289322,16.7071068 C5.90236893,16.3165825 5.90236893,15.6834175 6.29289322,15.2928932 Z M12.0025928,12 C12.8310199,12 13.5025928,12.6715729 13.5025928,13.5 C13.5025928,14.3284271 12.8310199,15 12.0025928,15 C11.1741656,15 10.5025928,14.3284271 10.5025928,13.5 C10.5025928,12.6715729 11.1741656,12 12.0025928,12 Z M12.0025928,7 C12.8310199,7 13.5025928,7.67157288 13.5025928,8.5 C13.5025928,9.32842712 12.8310199,10 12.0025928,10 C11.1741656,10 10.5025928,9.32842712 10.5025928,8.5 C10.5025928,7.67157288 11.1741656,7 12.0025928,7 Z M12.0025928,2 C12.8310199,2 13.5025928,2.67157288 13.5025928,3.5 C13.5025928,4.32842712 12.8310199,5 12.0025928,5 C11.1741656,5 10.5025928,4.32842712 10.5025928,3.5 C10.5025928,2.67157288 11.1741656,2 12.0025928,2 Z" id="ðŸŽ¨Color"></path>
        </g>
    </g>
</svg>