<svg width="24" height="24" viewBox="0 0 24 24" fill="none" xmlns="http://www.w3.org/2000/svg">
<path d="M11.9973 16C11.9973 15.4484 11.5502 15.0013 10.9987 15.0013C10.4471 15.0013 10 15.4484 10 16C10 16.5515 10.4471 16.9986 10.9987 16.9986C11.5502 16.9986 11.9973 16.5515 11.9973 16ZM11.7381 8.1467C11.6882 7.78066 11.3742 7.49876 10.9945 7.49906C10.5802 7.49939 10.2447 7.83545 10.2451 8.24966L10.2487 12.7513L10.2556 12.853C10.3055 13.2191 10.6196 13.501 10.9993 13.5007C11.4135 13.5003 11.749 13.1643 11.7487 12.7501L11.7451 8.24846L11.7381 8.1467ZM12.9673 2.65888C12.1111 1.11108 9.88589 1.1111 9.02967 2.65893L1.28438 16.6604C0.454825 18.16 1.53945 19.9995 3.25323 19.9995H13V18.4995H3.25323C2.68196 18.4995 2.32043 17.8863 2.59694 17.3865L10.3422 3.38501C10.6276 2.86907 11.3694 2.86906 11.6548 3.38499L17.5271 14H18C18 13.4348 18.134 12.9009 18.3719 12.4283L12.9673 2.65888ZM19 14C19 12.6193 20.1193 11.5 21.5 11.5C22.8807 11.5 24 12.6193 24 14C24 14.4142 23.6642 14.75 23.25 14.75C22.8358 14.75 22.5 14.4142 22.5 14C22.5 13.4477 22.0523 13 21.5 13C20.9477 13 20.5 13.4477 20.5 14V15H21.5C22.3284 15 23 15.6716 23 16.5V21.5C23 22.3284 22.3284 23 21.5 23H15.5C14.6716 23 14 22.3284 14 21.5V16.5C14 15.6716 14.6716 15 15.5 15H19V14ZM18.5 20C19.0523 20 19.5 19.5523 19.5 19C19.5 18.4477 19.0523 18 18.5 18C17.9477 18 17.5 18.4477 17.5 19C17.5 19.5523 17.9477 20 18.5 20Z" fill="#212121"/>
</svg>
