<svg width="28" height="28" viewBox="0 0 28 28" fill="none" xmlns="http://www.w3.org/2000/svg">
<path d="M20.25 2C22.3211 2 24 3.67893 24 5.75V22.25C23.9998 24.3209 22.321 26 20.25 26H7.75C5.67904 26 4.00018 24.3209 4 22.25V5.75C4 3.67894 5.67893 2 7.75 2H20.25ZM7.75 3.5C6.50736 3.5 5.5 4.50736 5.5 5.75V22.25C5.50018 23.4925 6.50747 24.5 7.75 24.5H20.25C21.4925 24.5 22.4998 23.4925 22.5 22.25V5.75C22.5 4.50736 21.4926 3.5 20.25 3.5H7.75ZM11 11.501C11.0002 10.3232 12.2959 9.60543 13.2949 10.2295L17.2949 12.7275C18.2352 13.315 18.2351 14.685 17.2949 15.2725L13.2949 17.7715C12.2958 18.3956 11 17.677 11 16.499V11.501Z" fill="#212121"/>
</svg>
