<svg width="20" height="20" viewBox="0 0 20 20" fill="none" xmlns="http://www.w3.org/2000/svg">
<path d="M13.1543 2.00391C14.7394 2.08421 16 3.39489 16 5V15C16 16.6569 14.6569 18 13 18H7C5.34315 18 4 16.6569 4 15V5C4 3.34315 5.34315 2 7 2H13L13.1543 2.00391ZM7 3C5.89543 3 5 3.89543 5 5V15C5 16.1046 5.89543 17 7 17H13C14.1046 17 15 16.1046 15 15V5C15 3.96435 14.2128 3.113 13.2041 3.01074L13 3H7ZM8 8.50195C8 7.72527 8.84713 7.24486 9.51367 7.64355L12.0176 9.1416C12.6665 9.52974 12.6665 10.4703 12.0176 10.8584L9.51367 12.3564C8.84713 12.7551 8 12.2747 8 11.498V8.50195Z" fill="#212121"/>
</svg>
