<svg width="24" height="24" viewBox="0 0 24 24" fill="none" xmlns="http://www.w3.org/2000/svg">
<path d="M6.5 11C9.53757 11 12 13.4624 12 16.5C12 19.5376 9.53757 22 6.5 22C3.46243 22 1 19.5376 1 16.5C1 13.4624 3.46243 11 6.5 11ZM4.25195 19.8086C4.89266 20.2448 5.66647 20.5 6.5 20.5C8.70914 20.5 10.5 18.7091 10.5 16.5C10.5 15.6665 10.2448 14.8927 9.80859 14.252L4.25195 19.8086ZM11.75 5C13.5449 5 15 6.45507 15 8.25V15.75C15 17.2727 13.9525 18.5497 12.5391 18.9023C12.835 18.1589 13 17.3489 13 16.5C13 12.9101 10.0899 10 6.5 10C4.75302 10 3.16799 10.6902 2 11.8115V8.25C2 6.45507 3.45507 5 5.25 5H11.75ZM6.5 12.5C4.29086 12.5 2.5 14.2909 2.5 16.5C2.5 17.3335 2.75523 18.1073 3.19141 18.748L8.74805 13.1914C8.10734 12.7552 7.33353 12.5 6.5 12.5ZM19.2578 6.3125C20.4186 5.51158 22.0019 6.34252 22.002 7.75293V16.248C22.002 17.6585 20.4186 18.4895 19.2578 17.6885L16 15.4395V8.5625L19.2578 6.3125Z" fill="#212121"/>
</svg>
