<svg width="32" height="32" viewBox="0 0 32 32" fill="none" xmlns="http://www.w3.org/2000/svg">
<path d="M9.39369 10.0809C8.88606 9.86331 8.29818 10.0985 8.08062 10.6061C7.86307 11.1137 8.09822 11.7016 8.60585 11.9192L14.9998 14.6594V21C14.9998 21.5523 15.4475 22 15.9998 22C16.5521 22 16.9998 21.5523 16.9998 21V14.6594L23.3937 11.9192C23.9013 11.7016 24.1365 11.1137 23.9189 10.6061C23.7014 10.0985 23.1135 9.86331 22.6059 10.0809L15.9998 12.912L9.39369 10.0809ZM18.1539 2.7571C16.7675 2.22387 15.2325 2.22387 13.8461 2.7571L3.92306 6.57367C2.76449 7.01927 2 8.13239 2 9.3737V22.6265C2 23.8678 2.76449 24.9809 3.92306 25.4265L13.8461 29.2431C15.2325 29.7763 16.7675 29.7763 18.1539 29.2431L28.0769 25.4265C29.2355 24.9809 30 23.8678 30 22.6265V9.3737C30 8.13239 29.2355 7.01927 28.0769 6.57367L18.1539 2.7571ZM14.5641 4.6238C15.4884 4.26831 16.5116 4.26831 17.4359 4.6238L27.359 8.44036C27.7452 8.58889 28 8.95993 28 9.3737V22.6265C28 23.0403 27.7452 23.4113 27.359 23.5599L17.4359 27.3764C16.5116 27.7319 15.4884 27.7319 14.5641 27.3764L4.64102 23.5599C4.25483 23.4113 4 23.0403 4 22.6265V9.3737C4 8.95993 4.25483 8.58889 4.64102 8.44036L14.5641 4.6238Z" fill="#212121"/>
</svg>
