<svg width="48" height="48" viewBox="0 0 48 48" fill="none" xmlns="http://www.w3.org/2000/svg">
<path d="M14.2525 15.6054C13.6204 15.3279 12.883 15.6154 12.6054 16.2475C12.3279 16.8796 12.6154 17.617 13.2475 17.8945L22.75 22.0664V31.25C22.75 31.9403 23.3096 32.5 24 32.5C24.6904 32.5 25.25 31.9403 25.25 31.25V22.0664L34.7525 17.8945C35.3846 17.617 35.6721 16.8796 35.3946 16.2475C35.117 15.6154 34.3796 15.3279 33.7475 15.6054L24 19.8848L14.2525 15.6054ZM26.3213 5.33225C24.8312 4.73617 23.1688 4.73617 21.6787 5.33225L6.67152 11.3354C5.05801 11.9809 4 13.5436 4 15.2814V32.7193C4 34.4571 5.05804 36.0199 6.67159 36.6653L21.6788 42.6682C23.1689 43.2642 24.8311 43.2642 26.3212 42.6682L41.3284 36.6653C42.942 36.0199 44 34.4571 44 32.7193V15.2814C44 13.5436 42.942 11.9809 41.3285 11.3354L26.3213 5.33225ZM22.6072 7.65343C23.5013 7.29578 24.4987 7.29578 25.3928 7.65343L40.4 13.6566C41.0644 13.9224 41.5 14.5658 41.5 15.2814V32.7193C41.5 33.4348 41.0643 34.0783 40.3999 34.3441L25.3927 40.347C24.4987 40.7046 23.5013 40.7046 22.6073 40.347L7.60007 34.3441C6.93566 34.0783 6.5 33.4348 6.5 32.7193V15.2814C6.5 14.5658 6.93565 13.9224 7.60004 13.6566L22.6072 7.65343Z" fill="#242424"/>
</svg>
