<svg width="16" height="16" viewBox="0 0 16 16" fill="none" xmlns="http://www.w3.org/2000/svg">
<path d="M6.92306 1.37855C7.61627 1.11193 8.38373 1.11193 9.07694 1.37855L14.0385 3.28683C14.6178 3.50964 15 4.06619 15 4.68685V11.3133C15 11.9339 14.6178 12.4905 14.0385 12.7133L9.07694 14.6216C8.38373 14.8882 7.61627 14.8882 6.92306 14.6216L1.96153 12.7133C1.38224 12.4905 1 11.9339 1 11.3133V4.68685C1 4.06619 1.38224 3.50964 1.96153 3.28683L6.92306 1.37855ZM4.69684 5.04043C4.44303 4.93166 4.14909 5.04923 4.04031 5.30305C3.93153 5.55686 4.04911 5.8508 4.30292 5.95958L7.49988 7.3297V10.5C7.49988 10.7761 7.72374 11 7.99988 11C8.27603 11 8.49988 10.7761 8.49988 10.5V7.3297L11.6968 5.95958C11.9507 5.8508 12.0682 5.55686 11.9595 5.30305C11.8507 5.04923 11.5567 4.93166 11.3029 5.04043L7.99988 6.45602L4.69684 5.04043Z" fill="#212121"/>
</svg>
