<svg width="28" height="28" viewBox="0 0 28 28" fill="none" xmlns="http://www.w3.org/2000/svg">
<path d="M6.25 3H21.75C23.5449 3 25 4.45507 25 6.25V21.75C25 23.5449 23.5449 25 21.75 25H6.25C4.45507 25 3 23.5449 3 21.75V6.25C3 4.45507 4.45507 3 6.25 3ZM4.5 6.25V7.43848L7.43848 4.5H6.25C5.2835 4.5 4.5 5.2835 4.5 6.25ZM4.5 9.5598V12.4385L12.4385 4.5H9.5598L4.5 9.5598ZM14.5598 4.5L4.5 14.5598V17.4385L17.4385 4.5H14.5598ZM19.5598 4.5L4.5 19.5598V21.75C4.5 21.9561 4.53562 22.1538 4.60104 22.3374L22.3374 4.60104C22.1538 4.53562 21.9561 4.5 21.75 4.5H19.5598ZM23.3985 5.66129L5.66129 23.3985C5.84526 23.4642 6.04345 23.5 6.25 23.5H8.43848L23.5 8.43848V6.25C23.5 6.04345 23.4642 5.84526 23.3985 5.66129ZM23.5 10.5598L10.5598 23.5H13.4385L23.5 13.4385V10.5598ZM23.5 15.5598L15.5598 23.5H18.4385L23.5 18.4385V15.5598ZM23.5 20.5598L20.5598 23.5H21.75C22.7165 23.5 23.5 22.7165 23.5 21.75V20.5598Z" fill="#212121"/>
</svg>
