<svg width="28" height="28" viewBox="0 0 28 28" fill="none" xmlns="http://www.w3.org/2000/svg">
<path d="M23.7503 15L23.8518 15.0069C24.2179 15.0566 24.5003 15.3704 24.5003 15.75L24.4934 15.8516C24.4438 16.2176 24.1299 16.4999 23.7503 16.5H17.5618L25.5306 24.4698L25.6028 24.5538C25.8206 24.8473 25.7967 25.264 25.5306 25.5303C25.2377 25.8232 24.7629 25.8231 24.47 25.5303L16.5003 17.5596V23.75L16.4934 23.8516C16.4438 24.2176 16.1299 24.4999 15.7503 24.5C15.3361 24.5 15.0003 24.1642 15.0003 23.75V15.75L15.0071 15.6485C15.0568 15.2824 15.3706 15 15.7503 15H23.7503ZM2.47 2.46977C2.7629 2.17698 3.23769 2.17691 3.53055 2.46977L11.5003 10.4375V4.25005L11.5071 4.14848C11.5568 3.78241 11.8706 3.50005 12.2503 3.50005C12.6644 3.50019 13.0003 3.83592 13.0003 4.25005V12.25L12.9934 12.3516C12.9438 12.7176 12.6299 12.9999 12.2503 13H4.25028L4.14871 12.9932C3.78266 12.9435 3.5003 12.6297 3.50028 12.25L3.50711 12.1485C3.55677 11.7824 3.87058 11.5 4.25028 11.5H10.4397L2.47 3.53032L2.39676 3.44633C2.17895 3.15273 2.20375 2.73602 2.47 2.46977Z" fill="#212121"/>
</svg>
