<svg width="20" height="20" viewBox="0 0 20 20" fill="none" xmlns="http://www.w3.org/2000/svg">
<path d="M3.25 3C3.66421 3 4 3.33579 4 3.75V5.58867C5.50357 3.99558 7.6358 3 10.0009 3C12.9384 3 15.5167 4.5358 16.9774 6.8447C17.1989 7.19474 17.0946 7.65803 16.7446 7.87949C16.3946 8.10094 15.9313 7.9967 15.7098 7.64666C14.5124 5.75403 12.4029 4.5 10.0009 4.5C8.12578 4.5 6.42882 5.26427 5.20496 6.5H7.25C7.66421 6.5 8 6.83579 8 7.25C8 7.66421 7.66421 8 7.25 8H3.25C2.83579 8 2.5 7.66421 2.5 7.25V3.75C2.5 3.33579 2.83579 3 3.25 3ZM14.4994 10.75C14.4994 11.1642 14.1636 11.5 13.7494 11.5H11.9111L11.8487 12.003H12.3694C12.5267 11.995 12.6864 12.0017 12.847 12.0243C14.2143 12.2165 15.1669 13.4806 14.9747 14.8479C14.7826 16.2152 13.5184 17.1678 12.1511 16.9756C11.6045 16.8988 11.1223 16.6495 10.7546 16.2909C10.5405 16.0822 10.365 15.8362 10.2371 15.5651C10.0604 15.1905 10.2208 14.7436 10.5955 14.5669C10.9701 14.3901 11.417 14.5506 11.5937 14.9252C11.6451 15.034 11.7157 15.133 11.8018 15.217C11.9487 15.3603 12.14 15.4593 12.3599 15.4902C12.9068 15.5671 13.4125 15.1861 13.4893 14.6391C13.5662 14.0922 13.1851 13.5866 12.6382 13.5097C12.5692 13.5 12.5017 13.4976 12.4361 13.5016C12.4208 13.5025 12.4055 13.503 12.3903 13.503H10.9999C10.7849 13.503 10.5802 13.4107 10.4378 13.2496C10.2955 13.0885 10.2291 12.874 10.2556 12.6607L10.5041 10.6576C10.5508 10.282 10.8699 9.99995 11.2484 9.99995H13.7494C14.1636 9.99995 14.4994 10.3357 14.4994 10.75ZM7.56714 10.0685C7.83333 10.1909 8.00391 10.457 8.00391 10.75V16.25C8.00391 16.6642 7.66812 17 7.25391 17C6.83969 17 6.50391 16.6642 6.50391 16.25V12.3817L5.98836 12.824C5.67399 13.0937 5.2005 13.0575 4.93079 12.7431C4.66107 12.4288 4.69727 11.9553 5.01164 11.6856L6.76555 10.1808C6.98789 9.99003 7.30095 9.94619 7.56714 10.0685Z" fill="#212121"/>
</svg>
