<svg width="24" height="24" viewBox="0 0 24 24" fill="none" xmlns="http://www.w3.org/2000/svg">
<path d="M14.1988 3.80808C13.7651 3.63507 13.1505 3.87723 12.9112 4.40574C12.6833 4.90884 12.0908 5.13198 11.5877 4.90413C11.0846 4.67629 10.8615 4.08375 11.0893 3.58065C11.7002 2.23172 13.3639 1.32173 14.9399 1.95045C16.6243 2.62245 17.3858 4.73504 16.3919 6.3218C16.0756 6.82667 15.6497 7.2498 15.247 7.60522C15.0155 7.80948 14.7377 8.0358 14.4835 8.24294C14.3272 8.37032 14.1796 8.49056 14.0572 8.59387C13.8818 8.74206 13.7325 8.87664 13.6063 9H16.2502C16.8025 9 17.2502 9.44772 17.2502 10C17.2502 10.5523 16.8025 11 16.2502 11H12.0002C11.448 11 11.0002 10.5523 11.0002 10C11.0002 8.62837 12.0353 7.68371 12.7667 7.06593C12.9558 6.90623 13.1244 6.76948 13.2851 6.63921C13.5021 6.46316 13.7047 6.29884 13.9236 6.1057C14.2755 5.79513 14.5328 5.52223 14.697 5.26009C15.0029 4.77171 14.7693 4.03568 14.1988 3.80808ZM4 3C4 2.44772 3.55229 2 3 2C2.44772 2 2 2.44772 2 3V10C2 10.5523 2.44772 11 3 11C3.55228 11 4 10.5523 4 10L4 7.5H7V9.99479C7 10.5471 7.44772 10.9948 8 10.9948C8.55228 10.9948 9 10.5471 9 9.99479L9 3.00154C9 2.44925 8.55229 2.00154 8 2.00154C7.44772 2.00154 7 2.44925 7 3.00154V5.5L4 5.5L4 3ZM3 19C2.44772 19 2 19.4477 2 20C2 20.5523 2.44772 21 3 21H21C21.5523 21 22 20.5523 22 20C22 19.4477 21.5523 19 21 19H3ZM2 15C2 14.4477 2.44772 14 3 14H21C21.5523 14 22 14.4477 22 15C22 15.5523 21.5523 16 21 16H3C2.44772 16 2 15.5523 2 15Z" fill="#212121"/>
</svg>
