<svg width="20" height="20" viewBox="0 0 20 20" fill="none" xmlns="http://www.w3.org/2000/svg">
<path d="M9.75007 2.75C10.4404 2.75 11.0001 3.30964 11.0001 4V8.57347L14.7449 3.50696C15.1553 2.9518 15.938 2.8344 16.4931 3.24474C17.0483 3.65509 17.1657 4.43779 16.7554 4.99295L13.0544 10L16.7552 15.007C17.1656 15.5621 17.0481 16.3448 16.493 16.7552C15.9378 17.1655 15.1551 17.0481 14.7448 16.4929L11.0001 11.4266V16C11.0001 16.6904 10.4404 17.25 9.75007 17.25C9.05971 17.25 8.50007 16.6904 8.50007 16V11.3575L4.2138 16.5461C3.77413 17.0784 2.98624 17.1534 2.454 16.7137C1.92176 16.2741 1.84673 15.4862 2.2864 14.9539L6.37875 10L2.28634 5.04614C1.84666 4.51391 1.92169 3.72602 2.45393 3.28634C2.98616 2.84666 3.77405 2.92169 4.21373 3.45393L8.50007 8.64258V4C8.50007 3.30964 9.05971 2.75 9.75007 2.75Z" fill="#212121"/>
</svg>
