<?xml version="1.0" encoding="UTF-8"?>
<svg width="24px" height="24px" viewBox="0 0 24 24" version="1.1" xmlns="http://www.w3.org/2000/svg" xmlns:xlink="http://www.w3.org/1999/xlink">
    <!-- Generator: Sketch 59.1 (86144) - https://sketch.com -->
    <title>ic_fluent_arrow_previous_24_filled</title>
    <desc>Created with Sketch.</desc>
    <g id="ðŸ”-Product-Icons" stroke="none" stroke-width="1" fill="none" fill-rule="evenodd">
        <g id="ic_fluent_arrow_previous_24_filled" fill="#212121" fill-rule="nonzero">
            <path d="M6,3 C5.48716416,3 5.06449284,3.38604019 5.00672773,3.88337887 L5,4 L5,20 C5,20.5522847 5.44771525,21 6,21 C6.51283584,21 6.93550716,20.6139598 6.99327227,20.1166211 L7,20 L7,4 C7,3.44771525 6.55228475,3 6,3 Z M18.7071068,3.29289322 C18.3466228,2.93240926 17.7793918,2.90467972 17.3871006,3.20970461 L17.2928932,3.29289322 L9.29289322,11.2928932 C8.93240926,11.6533772 8.90467972,12.2206082 9.20970461,12.6128994 L9.29289322,12.7071068 L17.2928932,20.7071068 C17.6834175,21.0976311 18.3165825,21.0976311 18.7071068,20.7071068 C19.0675907,20.3466228 19.0953203,19.7793918 18.7902954,19.3871006 L18.7071068,19.2928932 L11.4142136,12 L18.7071068,4.70710678 C19.0976311,4.31658249 19.0976311,3.68341751 18.7071068,3.29289322 Z" id="ðŸŽ¨-Color"></path>
        </g>
    </g>
</svg>