<svg width="16" height="16" viewBox="0 0 16 16" fill="none" xmlns="http://www.w3.org/2000/svg">
<path d="M2.00001 8C2.00001 4.68629 4.68631 2 8.00001 2C11.3137 2 14 4.68629 14 8C14 11.3137 11.3137 14 8.00001 14C6.90639 14 5.87989 13.707 4.99618 13.195L2.65813 13.9743C2.48217 14.033 2.2882 13.9894 2.15422 13.8612C2.02025 13.7329 1.9683 13.541 2.01925 13.3626L2.73086 10.872C2.2648 10.0186 2.00001 9.03957 2.00001 8ZM5.89645 5.89645L5.83859 5.96569C5.7036 6.16056 5.72288 6.42999 5.89645 6.60355L7.293 8L5.89645 9.39645L5.83859 9.46569C5.7036 9.66056 5.72288 9.92999 5.89645 10.1036L5.96569 10.1614C6.16056 10.2964 6.42999 10.2771 6.60355 10.1036L8 8.707L9.39645 10.1036L9.46569 10.1614C9.66056 10.2964 9.92999 10.2771 10.1036 10.1036L10.1614 10.0343C10.2964 9.83944 10.2771 9.57001 10.1036 9.39645L8.707 8L10.1036 6.60355L10.1614 6.53431C10.2964 6.33944 10.2771 6.07001 10.1036 5.89645L10.0343 5.83859C9.83944 5.7036 9.57001 5.72288 9.39645 5.89645L8 7.293L6.60355 5.89645L6.53431 5.83859C6.33944 5.7036 6.07001 5.72288 5.89645 5.89645Z" fill="#212121"/>
</svg>
