<svg width="24" height="24" viewBox="0 0 24 24" fill="none" xmlns="http://www.w3.org/2000/svg">
<path d="M12 2C13.718 2 15.3348 2.43315 16.7471 3.19629C16.5961 3.33349 16.5 3.52994 16.5 3.75V5.25C16.5 5.66421 16.8358 6 17.25 6C17.6642 6 18 5.66421 18 5.25V3.99902C20.429 5.82343 22 8.72831 22 12C22 17.5228 17.5228 22 12 22C6.47715 22 2 17.5228 2 12C2 6.47715 6.47715 2 12 2ZM5.25 15C4.83579 15 4.5 15.3358 4.5 15.75V17.25C4.5 17.6642 4.83579 18 5.25 18C5.66421 18 6 17.6642 6 17.25V15.75C6 15.3358 5.66421 15 5.25 15ZM8.25 16.5C7.83579 16.5 7.5 16.8358 7.5 17.25C7.5 17.6642 7.83579 18 8.25 18H9.75C10.1642 18 10.5 17.6642 10.5 17.25C10.5 16.8358 10.1642 16.5 9.75 16.5H8.25ZM8.25 12C7.83579 12 7.5 12.3358 7.5 12.75V14.25C7.5 14.6642 7.83579 15 8.25 15C8.66421 15 9 14.6642 9 14.25V12.75C9 12.3358 8.66421 12 8.25 12ZM11.25 13.5C10.8358 13.5 10.5 13.8358 10.5 14.25C10.5 14.6642 10.8358 15 11.25 15H12.75C13.1642 15 13.5 14.6642 13.5 14.25C13.5 13.8358 13.1642 13.5 12.75 13.5H11.25ZM11.25 9C10.8358 9 10.5 9.33579 10.5 9.75V11.25C10.5 11.6642 10.8358 12 11.25 12C11.6642 12 12 11.6642 12 11.25V9.75C12 9.33579 11.6642 9 11.25 9ZM14.25 10.5C13.8358 10.5 13.5 10.8358 13.5 11.25C13.5 11.6642 13.8358 12 14.25 12H15.75C16.1642 12 16.5 11.6642 16.5 11.25C16.5 10.8358 16.1642 10.5 15.75 10.5H14.25ZM14.25 6C13.8358 6 13.5 6.33579 13.5 6.75V8.25C13.5 8.66421 13.8358 9 14.25 9C14.6642 9 15 8.66421 15 8.25V6.75C15 6.33579 14.6642 6 14.25 6ZM17.25 7.5C16.8358 7.5 16.5 7.83579 16.5 8.25C16.5 8.66421 16.8358 9 17.25 9H18.75C19.1642 9 19.5 8.66421 19.5 8.25C19.5 7.83579 19.1642 7.5 18.75 7.5H17.25Z" fill="#212121"/>
</svg>
