<svg width="20" height="20" viewBox="0 0 20 20" fill="none" xmlns="http://www.w3.org/2000/svg">
<path d="M7.5 3C7.22386 3 7 3.22386 7 3.5V6H5C3.34315 6 2 7.34315 2 9V15C2 16.6569 3.34315 18 5 18H15C16.6569 18 18 16.6569 18 15V9C18 7.34315 16.6569 6 15 6H13V3.5C13 3.22386 12.7761 3 12.5 3H7.5ZM12 6H8V4H12V6ZM10 9C10.2761 9 10.5 9.22386 10.5 9.5V11.5H12.5C12.7761 11.5 13 11.7239 13 12C13 12.2761 12.7761 12.5 12.5 12.5H10.5V14.5C10.5 14.7761 10.2761 15 10 15C9.72386 15 9.5 14.7761 9.5 14.5V12.5H7.5C7.22386 12.5 7 12.2761 7 12C7 11.7239 7.22386 11.5 7.5 11.5H9.5V9.5C9.5 9.22386 9.72386 9 10 9Z" fill="#212121"/>
</svg>
