<svg width="16" height="16" viewBox="0 0 16 16" fill="none" xmlns="http://www.w3.org/2000/svg">
<path d="M7.54112 3.94779C6.26943 2.6761 4.21207 2.66992 2.94588 3.93611C1.67969 5.20231 1.68587 7.25966 2.95756 8.53136L7.66505 13.2389C7.86031 13.4341 8.1769 13.4341 8.37216 13.2389L13.0552 8.55858C14.3184 7.28827 14.3144 5.23668 13.0425 3.96476C11.7686 2.69079 9.71024 2.68461 8.44178 3.95306L7.99452 4.40119L7.54112 3.94779ZM12.3461 7.85345L8.01861 12.1782L3.66467 7.82425C2.78255 6.94213 2.77827 5.51794 3.65299 4.64322C4.5277 3.76851 5.9519 3.77278 6.83402 4.6549L7.64337 5.46426C7.84197 5.66285 8.16514 5.65896 8.35889 5.45564L9.14889 4.66017C10.0259 3.78319 11.451 3.78747 12.3354 4.67187C13.2178 5.5542 13.2205 6.97415 12.3461 7.85345Z" fill="#212121"/>
</svg>
