<svg width="24" height="24" viewBox="0 0 24 24" fill="none" xmlns="http://www.w3.org/2000/svg">
<path d="M6.94588 7.94533C8.21207 6.66635 10.2694 6.67259 11.5411 7.95712L11.9945 8.4151L12.4418 7.96245C13.7102 6.68119 15.7686 6.68743 17.0425 7.97426C18.3144 9.25902 18.3184 11.3313 17.0552 12.6145L12.3722 17.342C12.1769 17.5392 11.8603 17.5392 11.6651 17.342L6.95756 12.587C5.68587 11.3024 5.67969 9.2243 6.94588 7.94533ZM22 12C22 6.47715 17.5228 2 12 2C6.47715 2 2 6.47715 2 12C2 17.5228 6.47715 22 12 22C17.5228 22 22 17.5228 22 12ZM20.5 12C20.5 16.6944 16.6944 20.5 12 20.5C7.30558 20.5 3.5 16.6944 3.5 12C3.5 7.30558 7.30558 3.5 12 3.5C16.6944 3.5 20.5 7.30558 20.5 12Z" fill="#212121"/>
</svg>
