<svg width="16" height="16" viewBox="0 0 16 16" fill="none" xmlns="http://www.w3.org/2000/svg">
<path d="M8.00001 2C8.41422 2 8.75001 2.33579 8.75001 2.75V6H11C11.8284 6 12.5 6.67157 12.5 7.5V11.4393L13.2197 10.7197C13.5126 10.4268 13.9874 10.4268 14.2803 10.7197C14.5732 11.0126 14.5732 11.4874 14.2803 11.7803L12.2803 13.7803C11.9874 14.0732 11.5126 14.0732 11.2197 13.7803L9.21967 11.7803C8.92678 11.4874 8.92678 11.0126 9.21967 10.7197C9.51256 10.4268 9.98744 10.4268 10.2803 10.7197L11 11.4393L11 7.5H5V11.4393L5.71967 10.7197C6.01256 10.4268 6.48744 10.4268 6.78033 10.7197C7.07322 11.0126 7.07322 11.4874 6.78033 11.7803L4.78033 13.7803C4.48744 14.0732 4.01256 14.0732 3.71967 13.7803L1.71967 11.7803C1.42678 11.4874 1.42678 11.0126 1.71967 10.7197C2.01256 10.4268 2.48744 10.4268 2.78033 10.7197L3.5 11.4393V7.5C3.5 6.67157 4.17157 6 5 6H7.25001V2.75C7.25001 2.33579 7.5858 2 8.00001 2Z" fill="#212121"/>
</svg>
