<svg width="20" height="20" viewBox="0 0 20 20" fill="none" xmlns="http://www.w3.org/2000/svg">
<path d="M10 3C10.2761 3 10.5 3.22386 10.5 3.5V8H13C14.1046 8 15 8.89543 15 10V15.2929L16.6464 13.6464C16.8417 13.4512 17.1583 13.4512 17.3536 13.6464C17.5488 13.8417 17.5488 14.1583 17.3536 14.3536L14.8536 16.8536C14.6583 17.0488 14.3417 17.0488 14.1464 16.8536L11.6464 14.3536C11.4512 14.1583 11.4512 13.8417 11.6464 13.6464C11.8417 13.4512 12.1583 13.4512 12.3536 13.6464L14 15.2929V10C14 9.44772 13.5523 9 13 9H7C6.44772 9 6 9.44772 6 10V15.2929L7.64645 13.6464C7.84171 13.4512 8.15829 13.4512 8.35355 13.6464C8.54882 13.8417 8.54882 14.1583 8.35355 14.3536L5.85355 16.8536C5.65829 17.0488 5.34171 17.0488 5.14645 16.8536L2.64645 14.3536C2.45118 14.1583 2.45118 13.8417 2.64645 13.6464C2.84171 13.4512 3.15829 13.4512 3.35355 13.6464L5 15.2929V10C5 8.89543 5.89543 8 7 8H9.5V3.5C9.5 3.22386 9.72386 3 10 3Z" fill="#212121"/>
</svg>
