<svg width="17" height="16" viewBox="0 0 17 16" fill="none" xmlns="http://www.w3.org/2000/svg">
<path d="M7.41602 14V13C4.84817 13 3.41602 11.4376 3.41602 10V9.5C3.41602 9.22386 3.63987 9 3.91602 9H7.64029C7.89737 8.51612 8.35629 8.1516 8.91602 8.03754V8H3.91602C3.08759 8 2.41602 8.67157 2.41602 9.5V10C2.41602 11.9714 4.27553 14 7.41602 14ZM10.166 4.25C10.166 2.73122 8.9348 1.5 7.41602 1.5C5.89723 1.5 4.66602 2.73122 4.66602 4.25C4.66602 5.76878 5.89723 7 7.41602 7C8.9348 7 10.166 5.76878 10.166 4.25ZM5.66602 4.25C5.66602 3.2835 6.44952 2.5 7.41602 2.5C8.38251 2.5 9.16602 3.2835 9.16602 4.25C9.16602 5.2165 8.38251 6 7.41602 6C6.44952 6 5.66602 5.2165 5.66602 4.25ZM9.91602 8V9H9.29102C8.80777 9 8.41602 9.40294 8.41602 9.9V14.1C8.41602 14.5971 8.80777 15 9.29102 15H14.541C15.0243 15 15.416 14.5971 15.416 14.1V9.9C15.416 9.40294 15.0243 9 14.541 9H13.916V8C13.916 6.89543 13.0206 6 11.916 6C10.8114 6 9.91602 6.89543 9.91602 8ZM11.916 7C12.4683 7 12.916 7.44772 12.916 8V9H10.916V8C10.916 7.44772 11.3637 7 11.916 7ZM11.916 12.75C11.5018 12.75 11.166 12.4142 11.166 12C11.166 11.5858 11.5018 11.25 11.916 11.25C12.3302 11.25 12.666 11.5858 12.666 12C12.666 12.4142 12.3302 12.75 11.916 12.75Z" fill="#212121"/>
</svg>
