<svg width="20" height="20" viewBox="0 0 20 20" fill="none" xmlns="http://www.w3.org/2000/svg">
<path d="M4.82816 10.4857L10.485 4.82888C11.6566 3.6573 13.5561 3.6573 14.7277 4.82888C15.8783 5.97948 15.8989 7.83219 14.7894 9.00793C15.1797 9.02817 15.5591 9.0891 15.9237 9.18654C16.975 7.63073 16.812 5.49902 15.4348 4.12177C13.8727 2.55967 11.34 2.55967 9.77791 4.12177L4.12106 9.77862C3.92579 9.97388 3.92579 10.2905 4.12106 10.4857C4.31632 10.681 4.6329 10.681 4.82816 10.4857Z" fill="#212121"/>
<path d="M8.01014 15.789L9.00734 14.7918C9.02919 15.2104 9.09784 15.6166 9.20815 16.0052L8.71725 16.4961C7.74094 17.4724 6.15803 17.4724 5.18172 16.4961C4.20541 15.5198 4.20541 13.9369 5.18172 12.9606L11.1921 6.9502C11.3874 6.75493 11.704 6.75493 11.8992 6.9502C12.0945 7.14546 12.0945 7.46204 11.8992 7.6573L5.88882 13.6677C5.30304 14.2535 5.30304 15.2032 5.88882 15.789C6.47461 16.3748 7.42436 16.3748 8.01014 15.789Z" fill="#212121"/>
<path d="M18.9998 14.5004C18.9998 16.9857 16.985 19.0004 14.4998 19.0004C12.0145 19.0004 9.99976 16.9857 9.99976 14.5004C9.99976 12.0151 12.0145 10.0004 14.4998 10.0004C16.985 10.0004 18.9998 12.0151 18.9998 14.5004ZM16.8529 14.8544L16.8554 14.8519C16.9023 14.8044 16.9378 14.7499 16.9618 14.6918C16.9859 14.6337 16.9994 14.5701 16.9997 14.5034L16.9998 14.5004L16.9997 14.4974C16.9994 14.4307 16.9859 14.3671 16.9618 14.309C16.9374 14.2501 16.9012 14.1948 16.8533 14.1469L14.8533 12.1469C14.658 11.9516 14.3415 11.9516 14.1462 12.1469C13.9509 12.3421 13.9509 12.6587 14.1462 12.854L15.2927 14.0004H12.4998C12.2236 14.0004 11.9998 14.2243 11.9998 14.5004C11.9998 14.7766 12.2236 15.0004 12.4998 15.0004H15.2926L14.1462 16.1469C13.9509 16.3421 13.9509 16.6587 14.1462 16.854C14.3415 17.0492 14.658 17.0492 14.8533 16.854L16.8529 14.8544Z" fill="#212121"/>
</svg>
