<svg width="12" height="12" viewBox="0 0 12 12" fill="none" xmlns="http://www.w3.org/2000/svg">
<path d="M6 9.42806L3.7774 10.5966C3.19049 10.9051 2.50455 10.4067 2.61664 9.75321L3.04128 7.27736L1.24246 5.52394C0.767651 5.06112 1.02966 4.25474 1.68584 4.15939L4.17174 3.79817L5.28347 1.54556C5.43005 1.24856 5.71495 1.09991 6 1.09961C6.28562 1.09931 6.57137 1.24796 6.71825 1.54556L7.82997 3.79817L10.3159 4.15939C10.9721 4.25474 11.2341 5.06112 10.7592 5.52394L8.96043 7.27736L9.38507 9.75321C9.49716 10.4067 8.81122 10.9051 8.22431 10.5966L6 9.42806ZM6 2.35326V8.40166C6.12816 8.40152 6.25634 8.43215 6.37313 8.49355L8.33096 9.52285L7.95705 7.34277C7.91254 7.08325 7.99858 6.81845 8.18713 6.63466L9.77105 5.09072L7.58212 4.77265C7.32156 4.73479 7.0963 4.57114 6.97977 4.33502L6.00086 2.35152L6 2.35326Z" fill="#212121"/>
</svg>
