<svg width="48" height="48" viewBox="0 0 48 48" fill="none" xmlns="http://www.w3.org/2000/svg">
<path d="M34.985 22.5005L27.9237 29.5614C27.4356 30.0496 27.4356 30.841 27.9237 31.3292C28.3793 31.7848 29.0992 31.8152 29.59 31.4203L29.6915 31.3292L38.8839 22.1368C39.3395 21.6812 39.3699 20.9614 38.975 20.4705L38.8839 20.3691L29.6915 11.1767C29.2033 10.6885 28.4119 10.6885 27.9237 11.1767C27.4681 11.6323 27.4377 12.3521 27.8326 12.8429L27.9237 12.9444L34.981 20.0005H26C22.7463 20.0005 19.7205 20.7211 17.0964 22.0994L16.6854 22.3225C14.0032 23.8263 11.8258 26.0038 10.3219 28.6859C8.79842 31.4032 8 34.5756 8 38.0005C8 38.6909 8.55964 39.2505 9.25 39.2505C9.94036 39.2505 10.5 38.6909 10.5 38.0005C10.5 34.9964 11.1923 32.2454 12.5026 29.9086C13.7813 27.6278 15.6273 25.7819 17.908 24.5031C20.1151 23.2657 22.6914 22.5794 25.5017 22.5069L26 22.5005H34.985Z" fill="#212121"/>
</svg>
