<?xml version="1.0" encoding="UTF-8"?>
<svg width="24px" height="24px" viewBox="0 0 24 24" version="1.1" xmlns="http://www.w3.org/2000/svg" xmlns:xlink="http://www.w3.org/1999/xlink">
    <!-- Generator: Sketch 59.1 (86144) - https://sketch.com -->
    <title>ic_double_tap_swipe_up_24_filled</title>
    <desc>Created with Sketch.</desc>
    <g id="ðŸ”-Product-Icons" stroke="none" stroke-width="1" fill="none" fill-rule="evenodd">
        <g id="ic_double_tap_swipe_up_24_filled" fill="#212121">
            <path d="M9.61289944,6.79029539 L9.70710678,6.70710678 L12,4.41421356 L14.2928932,6.70710678 C14.6834175,7.09763107 15.3165825,7.09763107 15.7071068,6.70710678 C16.0675907,6.34662282 16.0953203,5.77939176 15.7902954,5.38710056 L15.7071068,5.29289322 L12.7071068,2.29289322 C12.3466228,1.93240926 11.7793918,1.90467972 11.3871006,2.20970461 L11.2928932,2.29289322 L8.29289322,5.29289322 C7.90236893,5.68341751 7.90236893,6.31658249 8.29289322,6.70710678 C8.62333685,7.03755041 9.12750547,7.08838789 9.51140295,6.85961923 L9.61289944,6.79029539 L9.61289944,6.79029539 Z M12,10 C12.6540214,10 13.1842105,9.46981089 13.1842105,8.81578947 C13.1842105,8.16176806 12.6540214,7.63157895 12,7.63157895 C11.3459786,7.63157895 10.8157895,8.16176806 10.8157895,8.81578947 C10.8157895,9.46981089 11.3459786,10 12,10 Z M12,21 C14.7614237,21 17,18.7614237 17,16 C17,13.2385763 14.7614237,11 12,11 C9.23857625,11 7,13.2385763 7,16 C7,18.7614237 9.23857625,21 12,21 Z M12,19.5 C10.0670034,19.5 8.5,17.9329966 8.5,16 C8.5,14.0670034 10.0670034,12.5 12,12.5 C13.9329966,12.5 15.5,14.0670034 15.5,16 C15.5,17.9329966 13.9329966,19.5 12,19.5 Z M12,18.25 C13.2426407,18.25 14.25,17.2426407 14.25,16 C14.25,14.7573593 13.2426407,13.75 12,13.75 C10.7573593,13.75 9.75,14.7573593 9.75,16 C9.75,17.2426407 10.7573593,18.25 12,18.25 Z M12,16.75 C11.5857864,16.75 11.25,16.4142136 11.25,16 C11.25,15.5857864 11.5857864,15.25 12,15.25 C12.4142136,15.25 12.75,15.5857864 12.75,16 C12.75,16.4142136 12.4142136,16.75 12,16.75 Z" id="ðŸŽ¨Color"></path>
        </g>
    </g>
</svg>