<svg width="16" height="16" viewBox="0 0 16 16" fill="none" xmlns="http://www.w3.org/2000/svg">
<path d="M5.61523 10.0137C5.67153 10.027 5.72391 10.0491 5.77051 10.0791C5.88731 10.1541 5.96924 10.2759 5.99316 10.415C5.99792 10.4427 6 10.4712 6 10.5V14.5C6 14.7761 5.77614 15 5.5 15C5.22386 15 5 14.7761 5 14.5V12.6182L3.94727 14.7236C3.86257 14.893 3.68939 15 3.5 15C3.31061 15 3.13743 14.893 3.05273 14.7236L2 12.6182V14.5C2 14.7761 1.77614 15 1.5 15C1.22386 15 1 14.7761 1 14.5V10.5C1.00002 10.2683 1.1593 10.0671 1.38477 10.0137C1.61044 9.9604 1.84355 10.069 1.94727 10.2764L3.5 13.3818L5.05273 10.2764C5.14344 10.095 5.33315 9.98902 5.53027 10.001C5.55841 10.0027 5.58706 10.007 5.61523 10.0137ZM9 10C9.27611 10 9.5 10.2239 9.5 10.5V13.293L10.1465 12.6465C10.3417 12.4513 10.6583 12.4512 10.8535 12.6465C11.0487 12.8417 11.0487 13.1583 10.8535 13.3535L9.35352 14.8535C9.31946 14.8876 9.28039 14.9134 9.24023 14.9355C9.19597 14.96 9.14884 14.9801 9.09766 14.9902C9.0329 15.0031 8.96611 15.0032 8.90137 14.9902C8.85024 14.98 8.803 14.9601 8.75879 14.9355C8.7189 14.9134 8.68034 14.8874 8.64648 14.8535L7.14648 13.3535C7.04885 13.2559 7 13.1279 7 13C7 12.8721 7.04886 12.7441 7.14648 12.6465C7.34175 12.4513 7.65827 12.4512 7.85352 12.6465L8.5 13.293V10.5C8.5 10.2239 8.72386 10 9 10ZM8 4.5C8 5.32843 8.67157 6 9.5 6H13V13.5C13 14.3284 12.3284 15 11.5 15H10.6211L11.5605 14.0605C12.1095 13.5115 12.1441 12.6428 11.6641 12.0537L11.5605 11.9395L11.4463 11.8359C11.1714 11.6119 10.8357 11.5 10.5 11.5V10.5C10.5 9.67151 9.82828 9.00006 9 9C8.17158 9 7.5 9.67158 7.5 10.5V11.5C7.33079 11.5 7.16143 11.5281 7 11.585V10.5C6.99998 9.84769 6.57938 9.27571 5.96875 9.0752L5.84473 9.04004L5.71777 9.01562C5.12437 8.92824 4.53389 9.2043 4.2207 9.71582L4.1582 9.8291L3.5 11.1455L3 10.1455V2.5C3 1.67157 3.67157 1 4.5 1H8V4.5ZM12.75 5H9.5C9.22386 5 9 4.77614 9 4.5V1.25L12.75 5Z" fill="#212121"/>
</svg>
