<svg width="16" height="16" viewBox="0 0 16 16" fill="none" xmlns="http://www.w3.org/2000/svg">
<path d="M5.61523 10.0137C5.8407 10.0671 5.99998 10.2683 6 10.5V14.5C6 14.7761 5.77614 15 5.5 15C5.22386 15 5 14.7761 5 14.5V12.6182L3.98047 14.6582L3.95703 14.7031L3.94727 14.7236C3.86257 14.893 3.68939 15 3.5 15C3.31061 15 3.13743 14.893 3.05273 14.7236L2 12.6182V14.5C2 14.7761 1.77614 15 1.5 15C1.22386 15 1 14.7761 1 14.5V10.5C1.00002 10.2683 1.1593 10.0671 1.38477 10.0137C1.61044 9.9604 1.84355 10.069 1.94727 10.2764L3.5 13.3818L5.05273 10.2764C5.15645 10.069 5.38956 9.9604 5.61523 10.0137ZM9 10C9.27611 10 9.5 10.2239 9.5 10.5V13.293L10.1465 12.6465C10.3417 12.4513 10.6583 12.4512 10.8535 12.6465C11.0487 12.8417 11.0487 13.1583 10.8535 13.3535L9.35352 14.8535C9.31946 14.8876 9.28038 14.9134 9.24023 14.9355C9.19597 14.96 9.14883 14.9801 9.09766 14.9902C9.03291 15.0031 8.9661 15.0032 8.90137 14.9902C8.85024 14.98 8.80299 14.9601 8.75879 14.9355C8.71891 14.9134 8.68034 14.8874 8.64648 14.8535L7.14648 13.3535C6.95122 13.1583 6.95122 12.8417 7.14648 12.6465C7.34175 12.4513 7.65827 12.4512 7.85352 12.6465L8.5 13.293V10.5C8.5 10.2239 8.72386 10 9 10ZM8.58594 1C8.98371 1.00004 9.36522 1.15818 9.64648 1.43945L12.5605 4.35352C12.8418 4.63478 13 5.01629 13 5.41406V13C13 14.1046 12.1046 15 11 15H10.6211L11.5605 14.0605C11.8444 13.7766 11.9893 13.4072 11.998 13.0352C11.9985 13.0235 12 13.0118 12 13V6H9.5C8.67157 6 8 5.32843 8 4.5V2H5C4.44772 2 4 2.44772 4 3V10.1455L3.5 11.1455L3 10.1455V3C3 1.89543 3.89543 1 5 1H8.58594ZM9 4.5C9 4.77614 9.22386 5 9.5 5H11.793L9 2.20703V4.5Z" fill="#212121"/>
</svg>
