<svg width="32" height="32" viewBox="0 0 32 32" fill="none" xmlns="http://www.w3.org/2000/svg">
<path d="M16.6139 2.21065C16.2528 1.92978 15.7472 1.92978 15.3861 2.21065C14.0102 3.28079 10.1874 5.52429 4.90946 6.00411C4.39439 6.05093 4 6.4828 4 7V16C4 19.5713 5.64892 22.6804 7.89837 25.0595C10.1437 27.4342 13.0461 29.1485 15.7162 29.9389L16 30.0229L16.2838 29.9389C18.9539 29.1485 21.8563 27.4342 24.1016 25.0595C26.3511 22.6804 28 19.5713 28 16V7C28 6.4828 27.6056 6.05093 27.0905 6.00411C21.8126 5.52429 17.9898 3.28079 16.6139 2.21065Z" fill="#212121"/>
</svg>
