<svg width="28" height="28" viewBox="0 0 28 28" fill="none" xmlns="http://www.w3.org/2000/svg">
<path d="M13.55 2.15C13.8136 1.95234 14.1752 1.9498 14.4415 2.14374C16.3908 3.56337 18.7862 4.40864 20.7279 4.89772C21.6929 5.14079 22.5327 5.29266 23.1297 5.38355C23.4279 5.42895 23.6647 5.45903 23.8254 5.47762C23.9058 5.48692 23.967 5.49333 24.0074 5.49735L24.0519 5.50164L24.0619 5.50255L24.0635 5.5027C24.4516 5.53582 24.75 5.8605 24.75 6.25V13C24.75 17.8286 21.537 23.6152 14.2295 25.964C14.0803 26.012 13.9197 26.012 13.7705 25.964C6.4765 23.6195 3 17.8425 3 12.75V6.25058C2.99999 5.85964 3.30026 5.53373 3.68991 5.50241L3.6948 5.502L3.71491 5.50025C3.73338 5.49861 3.76188 5.49598 3.79981 5.49223C3.87567 5.48474 3.98919 5.47277 4.13559 5.4552C4.42848 5.42006 4.85228 5.36261 5.36882 5.27399C6.4039 5.09641 7.80132 4.79535 9.2598 4.30227C10.7535 3.79728 12.283 3.10026 13.55 2.15ZM4.50002 6.92144L4.5 12.75C4.50001 17.1069 7.45447 22.2606 13.9999 24.4605C20.5267 22.265 23.25 17.1234 23.25 13V6.91656C23.145 6.90218 23.0293 6.88556 22.9039 6.86645C22.2694 6.76984 21.3816 6.60921 20.3615 6.35228C18.4705 5.87598 16.0787 5.05743 14.0052 3.6683C12.6708 4.58003 11.1624 5.24244 9.7402 5.72326C8.18705 6.24834 6.70947 6.5659 5.62246 6.75239C5.17746 6.82874 4.79625 6.8834 4.50002 6.92144Z" fill="#212121"/>
</svg>
