<svg width="28" height="28" viewBox="0 0 28 28" fill="none" xmlns="http://www.w3.org/2000/svg">
<path d="M11 8C11.4142 8 11.75 8.33579 11.75 8.75C11.75 9.1297 11.4678 9.44349 11.1018 9.49315L11 9.5H8C5.51472 9.5 3.5 11.5147 3.5 14C3.5 16.4143 5.40124 18.3845 7.78816 18.4951L8 18.5H11C11.4142 18.5 11.75 18.8358 11.75 19.25C11.75 19.6297 11.4678 19.9435 11.1018 19.9932L11 20H8C4.68629 20 2 17.3137 2 14C2 10.7616 4.56557 8.12243 7.77506 8.00414L8 8H11ZM20 8C23.3137 8 26 10.6863 26 14C26 17.2384 23.4344 19.8776 20.2249 19.9959L20 20H17C16.5858 20 16.25 19.6642 16.25 19.25C16.25 18.8703 16.5322 18.5565 16.8982 18.5068L17 18.5H20C22.4853 18.5 24.5 16.4853 24.5 14C24.5 11.5857 22.5988 9.61551 20.2118 9.5049L20 9.5H17C16.5858 9.5 16.25 9.16421 16.25 8.75C16.25 8.3703 16.5322 8.05651 16.8982 8.00685L17 8H20ZM8 13.25H20C20.4142 13.25 20.75 13.5858 20.75 14C20.75 14.3797 20.4678 14.6935 20.1018 14.7432L20 14.75H8C7.58579 14.75 7.25 14.4142 7.25 14C7.25 13.6203 7.53215 13.3065 7.89823 13.2568L8 13.25H20H8Z" fill="#212121"/>
</svg>
