<svg width="32" height="32" viewBox="0 0 32 32" fill="none" xmlns="http://www.w3.org/2000/svg">
<path d="M2 16C2 8.26801 8.26801 2 16 2C23.732 2 30 8.26801 30 16C30 23.732 23.732 30 16 30C8.26801 30 2 23.732 2 16ZM14.3803 19.1644C14.9167 18.4811 15.655 17.9731 16.5189 17.4485C16.6491 17.3695 16.7846 17.2888 16.9234 17.2062C17.6451 16.7767 18.4576 16.2931 19.0911 15.6972C19.9096 14.9272 20.4995 13.9183 20.4993 12.4998C20.4989 10.0148 18.4847 8 15.9993 8C14.6302 8 13.5537 8.54859 12.8423 9.06662C12.4847 9.32702 12.2083 9.58733 12.0189 9.78526C11.9238 9.88465 11.8495 9.96957 11.7967 10.0326C11.765 10.0704 11.7339 10.1087 11.7042 10.1479L11.7031 10.1494L11.7021 10.1508C11.3711 10.5929 11.4613 11.2196 11.9035 11.5506C12.3441 11.8804 12.968 11.792 13.2998 11.3538L13.3025 11.3503C13.307 11.3446 13.3161 11.3333 13.3298 11.317C13.3571 11.2843 13.4022 11.2325 13.4641 11.1679C13.5886 11.0377 13.7764 10.8605 14.0196 10.6834C14.5098 10.3264 15.1816 10 15.9993 10C17.3798 10 18.499 11.1192 18.4993 12.5002C18.4994 13.2692 18.2146 13.7759 17.7208 14.2403C17.2612 14.6727 16.6764 15.0224 15.9562 15.4532C15.8039 15.5443 15.6455 15.639 15.4809 15.739C14.5949 16.2769 13.5832 16.9408 12.8072 17.9294C12.0063 18.9496 11.5 20.2554 11.5 22C11.5 22.5523 11.9477 23 12.5 23H19.5C20.0523 23 20.5 22.5523 20.5 22C20.5 21.4477 20.0523 21 19.5 21H13.5807C13.7162 20.2169 14.011 19.6348 14.3803 19.1644Z" fill="#212121"/>
</svg>
