<svg width="24" height="24" viewBox="0 0 24 24" fill="none" xmlns="http://www.w3.org/2000/svg">
<path d="M6 3C6 2.44772 5.55228 2 5 2C4.44772 2 4 2.44772 4 3V21C4 21.5523 4.44772 22 5 22C5.55228 22 6 21.5523 6 21V3ZM20 3C20 2.44772 19.5523 2 19 2C18.4477 2 18 2.44772 18 3V21C18 21.5523 18.4477 22 19 22C19.5523 22 20 21.5523 20 21V3ZM13 3C13 2.44772 12.5523 2 12 2C11.4477 2 11 2.44772 11 3V6C11 6.55228 11.4477 7 12 7C12.5523 7 13 6.55228 13 6V3ZM11 13.5C11 14.0523 11.4477 14.5 12 14.5C12.5523 14.5 13 14.0523 13 13.5V10.5C13 9.94772 12.5523 9.5 12 9.5C11.4477 9.5 11 9.94772 11 10.5V13.5ZM11 18C11 17.4477 11.4477 17 12 17C12.5523 17 13 17.4477 13 18V21C13 21.5523 12.5523 22 12 22C11.4477 22 11 21.5523 11 21V18Z" fill="#212121"/>
</svg>
