<svg width="20" height="20" viewBox="0 0 20 20" fill="none" xmlns="http://www.w3.org/2000/svg">
<path d="M13.5001 15C14.8808 15 16.0001 13.8807 16.0001 12.5L16 5.5C16 5.40637 15.9949 5.31389 15.9849 5.22293C15.847 3.9726 14.7871 3 13.5 3H4.5C3.11929 3 2 4.11929 2 5.5L2 12.5C2 12.6726 2.01749 12.8411 2.0508 13.0038C2.26958 14.0729 3.17077 14.8934 4.27935 14.9904C4.34681 14.9963 4.41503 14.9995 4.48391 14.9999L4.50008 15H13.5001ZM5.5 6H9.5C9.77614 6 10 6.22386 10 6.5C10 6.77614 9.77614 7 9.5 7H5.5C5.22386 7 5 6.77614 5 6.5C5 6.22386 5.22386 6 5.5 6ZM5.5 8.5H12.5C12.7761 8.5 13 8.72386 13 9C13 9.27614 12.7761 9.5 12.5 9.5H5.5C5.22386 9.5 5 9.27614 5 9C5 8.72386 5.22386 8.5 5.5 8.5ZM5 11.5C5 11.2239 5.22386 11 5.5 11H9.5C9.77614 11 10 11.2239 10 11.5C10 11.7761 9.77614 12 9.5 12H5.5C5.22386 12 5 11.7761 5 11.5ZM6.5 17C5.68209 17 4.95592 16.6072 4.49982 16H13.5C15.433 16 17 14.433 17 12.5V5.5C17.6072 5.9561 18 6.68209 18 7.5V12.5C18 14.9853 15.9853 17 13.5 17H6.5Z" fill="#212121"/>
</svg>
