<svg width="48" height="48" viewBox="0 0 48 48" fill="none" xmlns="http://www.w3.org/2000/svg">
<path d="M4.36621 4.36621C4.85437 3.87806 5.64563 3.87806 6.13379 4.36621L43.6338 41.8662C44.1218 42.3544 44.1219 43.1457 43.6338 43.6338C43.1457 44.1219 42.3544 44.1218 41.8662 43.6338L37.2295 38.9971C33.7036 42.1098 29.073 44 24 44C12.9543 44 4 35.0457 4 24C4 18.9269 5.88838 14.2946 9.00098 10.7686L4.36621 6.13379C3.87806 5.64563 3.87806 4.85437 4.36621 4.36621ZM10.7725 12.54C8.11026 15.6102 6.5 19.6173 6.5 24C6.5 33.665 14.335 41.5 24 41.5C28.3826 41.5 32.388 39.8879 35.458 37.2256L10.7725 12.54ZM24 4C35.0457 4 44 12.9543 44 24C44 28.3493 42.6105 32.3735 40.2529 35.6553L38.458 33.8604C40.3768 31.0524 41.5 27.6576 41.5 24C41.5 14.335 33.665 6.5 24 6.5C20.3423 6.5 16.9467 7.62218 14.1387 9.54102L12.3438 7.74609C15.6256 5.3884 19.6506 4 24 4Z" fill="#212121"/>
</svg>
