<svg width="24" height="24" viewBox="0 0 24 24" fill="none" xmlns="http://www.w3.org/2000/svg">
<path d="M3.39449 20.9154C3.18657 20.8038 3.03898 20.6001 3.00534 20.3601L2.99805 20.2552V12.7513C2.99805 12.3371 3.33383 12.0013 3.74805 12.0013C4.12774 12.0013 4.44154 12.2835 4.4912 12.6495L4.49805 12.7513L4.49705 18.445L19.7192 3.21973C19.9854 2.95343 20.4021 2.92918 20.6957 3.147L20.7798 3.21961C21.0461 3.48584 21.0704 3.9025 20.8526 4.19614L20.78 4.28027L5.55805 19.505L11.2496 19.5052C11.6293 19.5052 11.9431 19.7873 11.9927 20.1534L11.9996 20.2552C11.9996 20.6349 11.7174 20.9487 11.3513 20.9983L11.2496 21.0052L3.6898 21.002C3.60705 20.9965 3.52867 20.9769 3.45611 20.9462L3.39449 20.9154Z" fill="#212121"/>
</svg>
