<svg width="20" height="20" viewBox="0 0 20 20" fill="none" xmlns="http://www.w3.org/2000/svg">
<path d="M9.81526 3.03562C10.1435 2.90563 10.4994 3.14748 10.4994 3.50048V3.802L11.4966 3.40704C11.436 2.39936 10.4024 1.7275 9.44703 2.10588L3.57942 4.42983C2.6261 4.80741 2 5.72881 2 6.75417V12.4968C2 13.5371 3.03035 14.2556 4 13.9111V12.8364L3.68429 12.9616C3.35606 13.0918 3 12.8499 3 12.4968V6.75417C3 6.13895 3.37566 5.58611 3.94765 5.35957L9.81526 3.03562ZM12.8153 5.03611C13.1435 4.90612 13.4994 5.14796 13.4994 5.50097V5.99946L14.4994 5.60339V5.50097C14.4994 4.44195 13.4316 3.7164 12.447 4.10637L6.26353 6.55543C5.50088 6.85749 5 7.59461 5 8.4149V14.4973C5 15.5566 6.06819 16.2821 7.05288 15.8917L8 15.5162V14.4404L6.68429 14.9621C6.35606 15.0922 6 14.8504 6 14.4973V8.4149C6 8.00475 6.25044 7.63619 6.63177 7.48516L12.8153 5.03611ZM17 7.49996C17 7.14695 16.6441 6.90511 16.3159 7.03509L10.3159 9.41148C10.1252 9.48699 10 9.67127 10 9.87635V16.4995C10 16.8525 10.3559 17.0944 10.6841 16.9644L11.0168 16.8326C11.0505 17.1643 11.135 17.493 11.2738 17.8064L11.0524 17.8941C10.0677 18.2841 9 17.5585 9 16.4995V9.87635C9 9.26113 9.37566 8.70829 9.94765 8.48174L15.9476 6.10536C16.9323 5.71539 18 6.44094 18 7.49996V10.3406C17.744 9.95556 17.4014 9.63305 17 9.40086V7.49996ZM17.5 11.9995C17.5 13.1041 16.6046 13.9995 15.5 13.9995C14.3954 13.9995 13.5 13.1041 13.5 11.9995C13.5 10.8949 14.3954 9.99951 15.5 9.99951C16.6046 9.99951 17.5 10.8949 17.5 11.9995ZM19 16.4995C19 17.7447 18 18.9995 15.5 18.9995C13 18.9995 12 17.7494 12 16.4995C12 15.6711 12.6716 14.9995 13.5 14.9995H17.5C18.3284 14.9995 19 15.6711 19 16.4995Z" fill="#212121"/>
</svg>
