<svg width="20" height="20" viewBox="0 0 20 20" fill="none" xmlns="http://www.w3.org/2000/svg">
<path d="M4.19934 2.85643C3.98479 3.00166 3.694 2.98958 3.5108 2.80638C3.30228 2.59786 3.31557 2.25392 3.55699 2.08457C4.26066 1.59094 5.07518 1.24458 5.95578 1.09024C6.24618 1.03935 6.4987 1.27316 6.4987 1.56798C6.4987 1.82716 6.30147 2.04135 6.04697 2.09039C5.37314 2.22025 4.74747 2.48539 4.19934 2.85643Z" fill="#212121"/>
<path d="M7.4987 1.56798C7.4987 1.27316 7.75123 1.03935 8.04162 1.09024C8.92144 1.24445 9.7353 1.59033 10.4385 2.08325C10.6801 2.25256 10.6935 2.59661 10.4849 2.80518C10.3017 2.98833 10.011 3.00047 9.79649 2.85536C9.24874 2.48488 8.62362 2.22012 7.95043 2.09039C7.69594 2.04135 7.4987 1.82716 7.4987 1.56798Z" fill="#242424"/>
<path d="M12.9139 6.00047C12.9128 5.98609 12.9109 5.9716 12.9084 5.95701C12.754 5.0764 12.4077 4.26189 11.9141 3.55821C11.7447 3.31679 11.4008 3.3035 11.1923 3.51202C11.0091 3.69522 10.997 3.98601 11.1422 4.20056C11.5132 4.74869 11.7784 5.37436 11.9082 6.0482C11.9105 6.06003 11.9132 6.07174 11.9161 6.08331C12.2418 6.0327 12.575 6.00454 12.9139 6.00047Z" fill="#242424"/>
<path d="M6.00021 12.9152C5.98552 12.9141 5.9707 12.9122 5.95578 12.9096C5.07518 12.7553 4.26066 12.4089 3.55699 11.9153C3.31557 11.7459 3.30228 11.402 3.5108 11.1935C3.694 11.0103 3.98479 10.9982 4.19934 11.1434C4.74747 11.5145 5.37314 11.7796 6.04697 11.9095C6.05908 11.9118 6.07106 11.9145 6.08289 11.9176C6.03234 12.2432 6.00423 12.5763 6.00021 12.9152Z" fill="#242424"/>
<path d="M2.85414 4.20214C2.99925 3.9876 2.98711 3.6969 2.80396 3.51375C2.59539 3.30518 2.25134 3.31854 2.08203 3.56008C1.58911 4.26333 1.24323 5.07718 1.08902 5.95701C1.03813 6.2474 1.27194 6.49992 1.56676 6.49992C1.82594 6.49992 2.04013 6.30269 2.08917 6.0482C2.2189 5.37501 2.48365 4.74989 2.85414 4.20214Z" fill="#242424"/>
<path d="M2.85414 9.79771C2.99925 10.0122 2.98711 10.3029 2.80396 10.4861C2.59539 10.6947 2.25134 10.6813 2.08203 10.4398C1.58911 9.73652 1.24323 8.92267 1.08902 8.04284C1.03813 7.75245 1.27194 7.49992 1.56676 7.49992C1.82594 7.49992 2.04013 7.69716 2.08917 7.95165C2.2189 8.62484 2.48365 9.24996 2.85414 9.79771Z" fill="#242424"/>
<path d="M13 19C16.3137 19 19 16.3137 19 13C19 9.68629 16.3137 7 13 7C9.68629 7 7 9.68629 7 13C7 16.3137 9.68629 19 13 19ZM15.8536 11.8536L12.8536 14.8536C12.6583 15.0488 12.3417 15.0488 12.1464 14.8536L10.6464 13.3536C10.4512 13.1583 10.4512 12.8417 10.6464 12.6464C10.8417 12.4512 11.1583 12.4512 11.3536 12.6464L12.5 13.7929L15.1464 11.1464C15.3417 10.9512 15.6583 10.9512 15.8536 11.1464C16.0488 11.3417 16.0488 11.6583 15.8536 11.8536Z" fill="#242424"/>
</svg>
