<svg width="16" height="16" viewBox="0 0 16 16" fill="none" xmlns="http://www.w3.org/2000/svg">
<path d="M3.21679 9.57324C3.36107 9.33779 3.66884 9.26391 3.90429 9.4082C3.94305 9.43195 3.98265 9.45498 4.02245 9.47753C4.0076 9.64969 3.99999 9.82399 3.99999 10C3.99999 10.2007 4.01003 10.3991 4.02929 10.5947C3.80287 10.4977 3.58651 10.3862 3.38183 10.2607C3.14649 10.1165 3.07278 9.80864 3.21679 9.57324ZM1.50585 6.55859C1.77429 6.49439 2.04403 6.66027 2.10839 6.92871C2.21328 7.36602 2.39102 7.78353 2.63378 8.1621C2.78276 8.39442 2.71552 8.70337 2.48339 8.85253C2.25094 9.0016 1.94105 8.93458 1.79198 8.70214C1.48872 8.22925 1.26671 7.70743 1.13573 7.16113C1.07161 6.89273 1.23745 6.62294 1.50585 6.55859ZM5.99999 2.99999C6.98723 3.00002 7.86053 3.47886 8.40722 4.21484C6.37404 4.77335 4.77335 6.37404 4.21483 8.40722C3.47885 7.86053 3.00001 6.98724 2.99999 6C2.99999 4.34314 4.34314 2.99999 5.99999 2.99999ZM1.73827 3.38183C1.88252 3.14644 2.19034 3.07265 2.42577 3.21679C2.66122 3.36108 2.7351 3.66884 2.59081 3.90429C2.47543 4.09258 2.37453 4.29351 2.28905 4.50585C2.20356 4.71829 2.13707 4.9336 2.08983 5.14941C2.03076 5.41891 1.76465 5.58996 1.49511 5.53125C1.22536 5.47221 1.05425 5.20529 1.11327 4.93554C1.17237 4.66551 1.25493 4.39716 1.36132 4.13281C1.46771 3.86844 1.59383 3.61753 1.73827 3.38183ZM9.51562 3.1455C9.74799 2.99656 10.057 3.06461 10.206 3.29687C10.3556 3.53011 10.4858 3.77533 10.5947 4.02929C10.3991 4.01004 10.2007 4 10 3.99999C9.82377 3.99999 9.64893 4.00757 9.47656 4.02246C9.4409 3.95962 9.40331 3.89781 9.36425 3.83691C9.21522 3.60446 9.28319 3.29456 9.51562 3.1455ZM4.83691 1.13574C5.10544 1.07135 5.37604 1.23732 5.44042 1.50585C5.50459 1.77428 5.33873 2.04404 5.0703 2.10839C4.63297 2.21326 4.2155 2.39104 3.8369 2.63378C3.60447 2.78284 3.29458 2.7158 3.1455 2.48339C2.99643 2.25094 3.06441 1.94106 3.29687 1.79199C3.76964 1.48883 4.29077 1.26671 4.83691 1.13574ZM7.06347 1.11328C7.33345 1.17238 7.6019 1.25495 7.8662 1.36132C8.13052 1.46771 8.38152 1.59386 8.61718 1.73828C8.85241 1.88255 8.92625 2.19042 8.78222 2.42578C8.63797 2.66118 8.33015 2.73498 8.09472 2.59082C7.90649 2.47546 7.70543 2.37452 7.49316 2.28906C7.28075 2.20357 7.06539 2.13707 6.8496 2.08984C6.57999 2.03083 6.40901 1.76472 6.46777 1.49511C6.52681 1.22536 6.79371 1.05424 7.06347 1.11328Z" fill="url(#paint0_linear_74374_5952)"/>
<circle cx="10" cy="10" r="5" fill="url(#paint1_radial_74374_5952)"/>
<path d="M12.3536 9.35355C12.5488 9.15829 12.5488 8.84171 12.3536 8.64645C12.1583 8.45118 11.8417 8.45118 11.6464 8.64645L9.5 10.7929L8.35355 9.64645C8.15829 9.45118 7.84171 9.45118 7.64645 9.64645C7.45118 9.84171 7.45118 10.1583 7.64645 10.3536L9.14645 11.8536C9.34171 12.0488 9.65829 12.0488 9.85355 11.8536L12.3536 9.35355Z" fill="url(#paint2_linear_74374_5952)" fill-opacity="0.95"/>
<defs>
<linearGradient id="paint0_linear_74374_5952" x1="2.37689" y1="4.41523" x2="10.3406" y2="8.23094" gradientUnits="userSpaceOnUse">
<stop stop-color="#8B52F4"/>
<stop offset="0.395" stop-color="#6D37CD"/>
<stop offset="0.861502" stop-color="#4B20A0"/>
</linearGradient>
<radialGradient id="paint1_radial_74374_5952" cx="0" cy="0" r="1" gradientUnits="userSpaceOnUse" gradientTransform="translate(5 5.37222) rotate(40.3849) scale(13.1284 11.0169)">
<stop stop-color="#FFC470"/>
<stop offset="0.251092" stop-color="#FF835C"/>
<stop offset="0.584326" stop-color="#F24A9D"/>
<stop offset="0.871234" stop-color="#B339F0"/>
<stop offset="1" stop-color="#C354FF"/>
</radialGradient>
<linearGradient id="paint2_linear_74374_5952" x1="10.4605" y1="13.6406" x2="7.5671" y2="9.21165" gradientUnits="userSpaceOnUse">
<stop offset="0.0238693" stop-color="#FFC8D7"/>
<stop offset="0.807402" stop-color="white"/>
</linearGradient>
</defs>
</svg>
