<?xml version="1.0" encoding="UTF-8"?>
<svg width="24px" height="24px" viewBox="0 0 24 24" version="1.1" xmlns="http://www.w3.org/2000/svg" xmlns:xlink="http://www.w3.org/1999/xlink">
    <!-- Generator: Sketch 59.1 (86144) - https://sketch.com -->
    <title>ic_leave_24_filled</title>
    <desc>Created with Sketch.</desc>
    <g id="ðŸ”-Product-Icons" stroke="none" stroke-width="1" fill="none" fill-rule="evenodd">
        <g id="ic_leave_24_filled" fill="#212121">
            <path d="M17.5,12 C20.5375661,12 23,14.4624339 23,17.5 C23,20.5375661 20.5375661,23 17.5,23 C14.4624339,23 12,20.5375661 12,17.5 C12,14.4624339 14.4624339,12 17.5,12 Z M12.0222607,13.9993086 C11.3751676,15.0097525 11,16.2110637 11,17.5 C11,19.1441769 11.6104632,20.6457725 12.6170965,21.7904935 C11.8149076,21.9312924 10.9419626,22.0010712 10,22.0010712 C7.11050247,22.0010712 4.87168436,21.3444691 3.30881727,20.0007885 C2.48019625,19.2883988 2.00354153,18.2500002 2.00354153,17.1572408 L2.00354153,16.249921 C2.00354153,15.0072804 3.01090084,13.999921 4.25354153,13.999921 L12.0222607,13.9993086 Z M16.7192196,14.5885912 L16.6499717,14.6464466 L14.1499717,17.1464466 C14.1446263,17.1517919 14.1394273,17.1572282 14.1343746,17.1627504 C14.124024,17.1740913 14.1142967,17.185758 14.1051078,17.1978561 C14.0972503,17.2081401 14.0899198,17.2186039 14.0830362,17.2292723 C14.0745931,17.2424101 14.0664716,17.2564057 14.0590297,17.2708095 L14.0411356,17.3094049 L14.0267935,17.3488008 L14.0267935,17.3488008 C14.0222818,17.3631879 14.0184461,17.3775481 14.0152595,17.3920225 L14.007,17.442 L14.0039878,17.4784276 L14.0035251,17.5 C14.0035251,17.5075844 14.0036939,17.5151294 14.0040281,17.5226314 C14.0046815,17.5370401 14.0059561,17.5514822 14.0078554,17.5658575 C14.0097388,17.5803581 14.0122225,17.5944257 14.0152806,17.6082776 C14.0184461,17.6224519 14.0222818,17.6368121 14.0267664,17.6510116 L14.0413173,17.6910366 L14.0413173,17.6910366 C14.0464425,17.7034847 14.052311,17.7161975 14.0587412,17.728696 L14.0833517,17.7711351 L14.0833517,17.7711351 L14.111,17.809 L14.114008,17.8135595 L14.122,17.822 L14.119,17.819 L14.1342541,17.8371085 L16.6499717,20.3535534 C16.8452338,20.5488155 17.1618163,20.5488155 17.3570785,20.3535534 C17.5306448,20.179987 17.54993,19.9105626 17.4149339,19.7156945 L17.3570785,19.6464466 L15.711,18 L20.5,18 C20.7454599,18 20.9496084,17.8231248 20.9919443,17.5898756 L21,17.5 C21,17.2545401 20.8231248,17.0503916 20.5898756,17.0080557 L20.5,17 L15.711,17 L17.3570785,15.3535534 C17.5306448,15.179987 17.54993,14.9105626 17.4149339,14.7156945 L17.3570785,14.6464466 C17.1835121,14.4728803 16.9140877,14.4535951 16.7192196,14.5885912 Z M10,2.0046246 C12.7614237,2.0046246 15,4.24320085 15,7.0046246 C15,9.76604835 12.7614237,12.0046246 10,12.0046246 C7.23857625,12.0046246 5,9.76604835 5,7.0046246 C5,4.24320085 7.23857625,2.0046246 10,2.0046246 Z" id="ðŸŽ¨-Color"></path>
        </g>
    </g>
</svg>