<svg width="32" height="32" viewBox="0 0 32 32" fill="none" xmlns="http://www.w3.org/2000/svg">
<path d="M14.75 16L26.474 7.92773C27.9668 6.89994 30 7.96857 30 9.78094V22.2191C30 24.0314 27.9668 25.1001 26.474 24.0723L14.75 16Z" fill="url(#paint0_radial_378174_9735)"/>
<path d="M14.75 16L26.474 7.92773C27.9668 6.89994 30 7.96857 30 9.78094V22.2191C30 24.0314 27.9668 25.1001 26.474 24.0723L14.75 16Z" fill="url(#paint1_linear_378174_9735)" fill-opacity="0.75"/>
<path d="M2 10.5C2 8.01472 4.01472 6 6.5 6H16.5C18.9853 6 21 8.01472 21 10.5V21.5C21 23.9853 18.9853 26 16.5 26H6.5C4.01472 26 2 23.9853 2 21.5V10.5Z" fill="url(#paint2_radial_378174_9735)"/>
<path opacity="0.5" d="M4 20.5C4 18.567 5.567 17 7.5 17H15.5C17.433 17 19 18.567 19 20.5C19 22.433 17.433 24 15.5 24H7.5C5.567 24 4 22.433 4 20.5Z" fill="url(#paint3_linear_378174_9735)"/>
<path fill-rule="evenodd" clip-rule="evenodd" d="M7.5 19C6.67157 19 6 19.6716 6 20.5C6 21.3284 6.67157 22 7.5 22H11.5C12.3284 22 13 21.3284 13 20.5C13 19.6716 12.3284 19 11.5 19H7.5ZM15.5 19C14.6716 19 14 19.6716 14 20.5C14 21.3284 14.6716 22 15.5 22C16.3284 22 17 21.3284 17 20.5C17 19.6716 16.3284 19 15.5 19Z" fill="#BABAFF"/>
<defs>
<radialGradient id="paint0_radial_378174_9735" cx="0" cy="0" r="1" gradientUnits="userSpaceOnUse" gradientTransform="translate(22.6988 5.23446) rotate(71.7403) scale(23.3026 46.2193)">
<stop offset="0.0810009" stop-color="#F08AF4"/>
<stop offset="0.393858" stop-color="#9C6CFE"/>
<stop offset="1" stop-color="#4E44DB"/>
</radialGradient>
<linearGradient id="paint1_linear_378174_9735" x1="18.3991" y1="16" x2="29.9851" y2="15.5843" gradientUnits="userSpaceOnUse">
<stop stop-color="#312A9A"/>
<stop offset="1" stop-color="#312A9A" stop-opacity="0"/>
</linearGradient>
<radialGradient id="paint2_radial_378174_9735" cx="0" cy="0" r="1" gradientUnits="userSpaceOnUse" gradientTransform="translate(-1.45403 6.83321) rotate(44.0766) scale(30.4287 63.9034)">
<stop stop-color="#F08AF4"/>
<stop offset="0.341244" stop-color="#9C6CFE"/>
<stop offset="1" stop-color="#4E44DB"/>
</radialGradient>
<linearGradient id="paint3_linear_378174_9735" x1="3.65917" y1="16.9999" x2="6.13995" y2="26.2944" gradientUnits="userSpaceOnUse">
<stop stop-color="#3B148A"/>
<stop offset="1" stop-color="#4B20A0"/>
</linearGradient>
</defs>
</svg>
