<svg width="32" height="32" viewBox="0 0 32 32" fill="none" xmlns="http://www.w3.org/2000/svg">
<path d="M5 16C5 9.92487 9.92487 5 16 5C18.9227 5 21.5792 6.1392 23.55 8H21C20.4477 8 20 8.44772 20 9C20 9.55228 20.4477 10 21 10H26C26.5523 10 27 9.55228 27 9V4C27 3.44772 26.5523 3 26 3C25.4477 3 25 3.44772 25 4V6.61926C22.665 4.37864 19.4935 3 16 3C8.8203 3 3 8.8203 3 16C3 23.1797 8.8203 29 16 29C23.1797 29 29 23.1797 29 16C29 15.6358 28.985 15.2748 28.9555 14.9178C28.9101 14.3674 28.4271 13.958 27.8767 14.0034C27.3263 14.0488 26.9169 14.5318 26.9623 15.0822C26.9873 15.3846 27 15.6907 27 16C27 22.0751 22.0751 27 16 27C9.92487 27 5 22.0751 5 16Z" fill="#212121"/>
</svg>
