<svg width="32" height="32" viewBox="0 0 32 32" fill="none" xmlns="http://www.w3.org/2000/svg">
<path d="M17.6764 9.93028L16.336 7.20908C16.1987 6.93031 15.8013 6.93031 15.6639 7.20908L14.3236 9.93028L11.3214 10.3641C11.0139 10.4085 10.891 10.7866 11.1137 11.0033L13.2876 13.1189L12.7724 16.1082C12.7197 16.4145 13.0412 16.6481 13.3162 16.5033L16 15.0896L18.6838 16.5033C18.9586 16.648 19.2801 16.4147 19.2276 16.1086L18.715 13.1189L20.8864 11.0031C21.1089 10.7864 20.986 10.4085 20.6786 10.3641L17.6764 9.93028ZM6 12C6 6.47715 10.4772 2 16 2C21.5228 2 26 6.47715 26 12C26 15.2716 24.4289 18.1763 22 20.0007V29C22 29.3603 21.8062 29.6927 21.4927 29.8702C21.1792 30.0477 20.7944 30.0429 20.4855 29.8575L16 27.1662L11.5145 29.8575C11.2056 30.0429 10.8208 30.0477 10.5073 29.8702C10.1938 29.6927 10 29.3603 10 29V20.0007C7.57111 18.1763 6 15.2716 6 12ZM16 4C11.5817 4 8 7.58172 8 12C8 16.4183 11.5817 20 16 20C20.4183 20 24 16.4183 24 12C24 7.58172 20.4183 4 16 4ZM20 27.2338V21.1679C18.7751 21.7031 17.4222 22 16 22C14.5778 22 13.2249 21.7031 12 21.1679V27.2338L15.4855 25.1425C15.8022 24.9525 16.1978 24.9525 16.5145 25.1425L20 27.2338Z" fill="#212121"/>
</svg>
