<svg width="20" height="20" viewBox="0 0 20 20" fill="none" xmlns="http://www.w3.org/2000/svg">
<path d="M17.2465 2.75409C16.2228 1.7304 14.563 1.73041 13.5393 2.75411L12.5 3.7935L12.1489 3.44243C11.5631 2.85663 10.6134 2.85663 10.0276 3.44242L9.44178 4.0282C8.856 4.61399 8.85599 5.56373 9.44178 6.14952L9.79287 6.50061L3.43946 12.854C3.15816 13.1353 3.00012 13.5169 3.00012 13.9147V14.4162L2.03559 16.6745C1.67987 17.5073 2.52597 18.3463 3.35577 17.9835L5.60452 17.0005H6.08591C6.48373 17.0005 6.86526 16.8424 7.14657 16.5611L13.5 10.2077L13.8533 10.5611C14.4391 11.1468 15.3888 11.1468 15.9746 10.5611L16.5604 9.97528C17.1462 9.38949 17.1462 8.43974 16.5604 7.85396L16.2071 7.50061L17.2465 6.46119C18.2701 5.4375 18.2701 3.77778 17.2465 2.75409ZM14.2464 3.46121C14.8796 2.82804 15.9062 2.82803 16.5394 3.4612C17.1725 4.09436 17.1725 5.12092 16.5394 5.75409L15.1464 7.14706C14.9511 7.34232 14.9511 7.6589 15.1464 7.85416L15.8533 8.56106C16.0486 8.75633 16.0486 9.07291 15.8533 9.26817L15.2675 9.85396C15.0723 10.0492 14.7557 10.0492 14.5604 9.85396L10.1489 5.44241C9.95363 5.24715 9.95363 4.93057 10.1489 4.73531L10.7347 4.14952C10.9299 3.95426 11.2465 3.95426 11.4418 4.14953L12.1464 4.85416C12.2402 4.94793 12.3674 5.00061 12.5 5.00061C12.6326 5.00061 12.7598 4.94793 12.8535 4.85416L14.2464 3.46121ZM12.7929 9.50062L6.43946 15.854C6.34569 15.9478 6.21852 16.0005 6.08591 16.0005H5.50001C5.43108 16.0005 5.36289 16.0147 5.29973 16.0423L2.95522 17.0673L3.95994 14.7149C3.98645 14.6528 4.00012 14.586 4.00012 14.5185V13.9147C4.00012 13.7821 4.0528 13.6549 4.14657 13.5611L10.5 7.20772L12.7929 9.50062Z" fill="#212121"/>
</svg>
