<?xml version="1.0" encoding="UTF-8"?>
<svg width="20px" height="20px" viewBox="0 0 20 20" version="1.1" xmlns="http://www.w3.org/2000/svg" xmlns:xlink="http://www.w3.org/1999/xlink">
    <!-- Generator: Sketch 64 (93537) - https://sketch.com -->
    <title>ic_fluent_image_search_20_regular</title>
    <desc>Created with Sketch.</desc>
    <g id="ðŸ”-System-Icons" stroke="none" stroke-width="1" fill="none" fill-rule="evenodd">
        <g id="ic_fluent_image_search_20_regular" fill="#212121" fill-rule="nonzero">
            <path d="M5.5,9 C7.433,9 9,10.567 9,12.5 C9,13.20758 8.790048,13.866074 8.42903991,14.4166517 L8.30319,14.5961 L10.8536,17.1464 C11.0488,17.3417 11.0488,17.6583 10.8536,17.8536 C10.68,18.0271111 10.410558,18.0463901 10.2156598,17.911437 L10.1464,17.8536 L7.59609,15.3032 C7.0118,15.7408 6.28617,16 5.5,16 C3.567,16 2,14.433 2,12.5 C2,10.567 3.567,9 5.5,9 Z M14,3 C15.597725,3 16.903664,4.24892392 16.9949075,5.82372764 L17,6 L17,14 C17,15.597725 15.7511226,16.903664 14.1762773,16.9949075 L14,17 L11.9146,17 C11.86045,16.846475 11.7805375,16.6999813 11.6749047,16.5672266 L11.5607,16.4393 L11.1213,16 L14,16 C14.3076667,16 14.5990139,15.9305556 14.8594005,15.8064815 L15.0118,15.7256 L10.3504,11.1453 C10.191,10.9886 9.95273,10.9604 9.76486,11.0606 C9.65697,10.7408 9.51414,10.4371 9.3409,10.1541 C9.85413077,9.90306 10.4807722,9.96268509 10.9401127,10.3329595 L11.0513,10.432 L15.7206,15.0201 C15.8685167,14.7712667 15.9639333,14.4875028 15.9916301,14.1842019 L16,14 L16,6 C16,4.94563773 15.18415,4.08183483 14.1492661,4.00548573 L14,4 L6,4 C4.94563773,4 4.08183483,4.81587733 4.00548573,5.85073759 L4,6 L4,8.25606 C3.7329775,8.35044 3.47752563,8.46930563 3.23633594,8.60995688 L3,8.75777 L3,6 C3,4.40232321 4.24892392,3.09633941 5.82372764,3.00509271 L6,3 L14,3 Z M5.5,10 C4.11929,10 3,11.1193 3,12.5 C3,13.8807 4.11929,15 5.5,15 C6.88071,15 8,13.8807 8,12.5 C8,11.1193 6.88071,10 5.5,10 Z M12.5,6 C13.3284,6 14,6.67157 14,7.5 C14,8.32843 13.3284,9 12.5,9 C11.6716,9 11,8.32843 11,7.5 C11,6.67157 11.6716,6 12.5,6 Z M12.5,7 C12.2239,7 12,7.22386 12,7.5 C12,7.77614 12.2239,8 12.5,8 C12.7761,8 13,7.77614 13,7.5 C13,7.22386 12.7761,7 12.5,7 Z" id="ðŸŽ¨-Color"></path>
        </g>
    </g>
</svg>