<svg width="32" height="32" viewBox="0 0 32 32" fill="none" xmlns="http://www.w3.org/2000/svg">
<path d="M8.75 7C6.67893 7 5 8.67893 5 10.75V12.126C3.27477 12.5701 2 14.1362 2 16V21.25C2 23.3211 3.67893 25 5.75 25H26.25C28.3211 25 30 23.3211 30 21.25V16C30 14.1362 28.7252 12.5701 27 12.126V10.75C27 8.67893 25.3211 7 23.25 7H8.75ZM25 12.126C23.2748 12.5701 22 14.1362 22 16H10C10 14.1362 8.72523 12.5701 7 12.126V10.75C7 9.7835 7.7835 9 8.75 9H23.25C24.2165 9 25 9.7835 25 10.75V12.126ZM4 16C4 14.8954 4.89543 14 6 14C7.10457 14 8 14.8954 8 16V17C8 17.5523 8.44772 18 9 18H23C23.5523 18 24 17.5523 24 17V16C24 14.8954 24.8954 14 26 14C27.1046 14 28 14.8954 28 16V21.25C28 22.2165 27.2165 23 26.25 23H5.75C4.7835 23 4 22.2165 4 21.25V16Z" fill="#212121"/>
</svg>
