<svg width="20" height="20" viewBox="0 0 20 20" fill="none" xmlns="http://www.w3.org/2000/svg">
<path d="M10 6.5V2H5.5C4.67157 2 4 2.67157 4 3.5V16.5C4 17.3284 4.67157 18 5.5 18H9.59971C9.21628 17.2499 9 16.4002 9 15.5C9 15.3315 9.00758 15.1647 9.02242 15H8.5C8.22386 15 8 14.7761 8 14.5C8 14.2239 8.22386 14 8.5 14H9.20703C9.30564 13.6514 9.43777 13.3168 9.59971 13H8.5C8.22386 13 8 12.7761 8 12.5C8 12.2239 8.22386 12 8.5 12H10.2572C10.5705 11.6206 10.9338 11.2839 11.3369 11H8.5C8.22386 11 8 10.7761 8 10.5C8 10.2239 8.22386 10 8.5 10H13.5C13.5814 10 13.6583 10.0195 13.7263 10.054C13.9791 10.0184 14.2374 10 14.5 10C15.02 10 15.5232 10.0722 16 10.207V8H11.5C10.6716 8 10 7.32843 10 6.5ZM6 10.5C6 10.2239 6.22386 10 6.5 10C6.77614 10 7 10.2239 7 10.5C7 10.7761 6.77614 11 6.5 11C6.22386 11 6 10.7761 6 10.5ZM6 12.5C6 12.2239 6.22386 12 6.5 12C6.77614 12 7 12.2239 7 12.5C7 12.7761 6.77614 13 6.5 13C6.22386 13 6 12.7761 6 12.5ZM6 14.5C6 14.2239 6.22386 14 6.5 14C6.77614 14 7 14.2239 7 14.5C7 14.7761 6.77614 15 6.5 15C6.22386 15 6 14.7761 6 14.5ZM11 6.5V2.25L15.75 7H11.5C11.2239 7 11 6.77614 11 6.5ZM19 15.5C19 17.9853 16.9853 20 14.5 20C12.0147 20 10 17.9853 10 15.5C10 13.0147 12.0147 11 14.5 11C16.9853 11 19 13.0147 19 15.5ZM15 12.5C15 12.2239 14.7761 12 14.5 12C14.2239 12 14 12.2239 14 12.5V15.5C14 15.7761 14.2239 16 14.5 16H16.5C16.7761 16 17 15.7761 17 15.5C17 15.2239 16.7761 15 16.5 15H15V12.5Z" fill="#212121"/>
</svg>
