<svg width="24" height="24" viewBox="0 0 24 24" fill="none" xmlns="http://www.w3.org/2000/svg">
<path d="M12 8V2H6C4.89543 2 4 2.89543 4 4V20C4 21.1046 4.89543 22 6 22H12.8096C12.0201 21.1773 11.445 20.1474 11.1739 19H10.75C10.3358 19 10 18.6642 10 18.25C10 17.8358 10.3358 17.5 10.75 17.5H11C11 16.9837 11.0602 16.4815 11.1739 16H10.75C10.3358 16 10 15.6642 10 15.25C10 14.8358 10.3358 14.5 10.75 14.5H11.7322C12.0194 13.949 12.3832 13.4443 12.8096 13H10.75C10.3358 13 10 12.6642 10 12.25C10 11.8358 10.3358 11.5 10.75 11.5H14.9956C15.7664 11.1779 16.6124 11 17.5 11C18.3859 11 19.2304 11.1772 20 11.4982V10H14C12.8954 10 12 9.10457 12 8ZM7 12.25C7 11.8358 7.33579 11.5 7.75 11.5C8.16421 11.5 8.5 11.8358 8.5 12.25C8.5 12.6642 8.16421 13 7.75 13C7.33579 13 7 12.6642 7 12.25ZM7 15.25C7 14.8358 7.33579 14.5 7.75 14.5C8.16421 14.5 8.5 14.8358 8.5 15.25C8.5 15.6642 8.16421 16 7.75 16C7.33579 16 7 15.6642 7 15.25ZM7 18.25C7 17.8358 7.33579 17.5 7.75 17.5C8.16421 17.5 8.5 17.8358 8.5 18.25C8.5 18.6642 8.16421 19 7.75 19C7.33579 19 7 18.6642 7 18.25ZM13.5 8V2.5L19.5 8.5H14C13.7239 8.5 13.5 8.27614 13.5 8ZM23 17.5C23 14.4624 20.5376 12 17.5 12C14.4624 12 12 14.4624 12 17.5C12 20.5376 14.4624 23 17.5 23C20.5376 23 23 20.5376 23 17.5ZM17.2206 17.9175C17.0853 17.828 16.9961 17.6745 16.9961 17.5C16.9961 17.4759 16.9978 17.4522 17.0011 17.4291L17 13.4993C17 13.2231 17.2239 12.9993 17.5 12.9993C17.7761 12.9993 18 13.2231 18 13.4993L18.001 17H20.4966C20.7725 17 20.9961 17.2239 20.9961 17.5C20.9961 17.7762 20.7725 18 20.4966 18H17.5606C17.5411 18.0023 17.5213 18.0035 17.5011 18.0035C17.3971 18.0035 17.3006 17.9718 17.2206 17.9175Z" fill="#212121"/>
</svg>
