<svg width="16" height="16" viewBox="0 0 16 16" fill="none" xmlns="http://www.w3.org/2000/svg">
<path d="M12.4562 2.02905C12.8545 2.14284 13.0851 2.55796 12.9713 2.95623L11.8159 7.00019H13.2502C13.6644 7.00019 14.0002 7.33598 14.0002 7.75019C14.0002 8.16441 13.6644 8.50019 13.2502 8.50019H11.3873L9.97129 13.4562C9.85749 13.8545 9.44238 14.0851 9.0441 13.9713C8.64583 13.8575 8.41521 13.4424 8.529 13.0442L11.529 2.54415C11.6428 2.14588 12.0579 1.91526 12.4562 2.02905ZM4.75014 3.50019C4.33593 3.50019 4.00014 3.83598 4.00014 4.25019C4.00014 4.66441 4.33593 5.00019 4.75014 5.00019H8.27902C7.91078 6.17665 7.31731 7.33765 6.58997 8.29712C5.66429 9.51822 4.59835 10.3157 3.60306 10.5148C3.19689 10.596 2.93348 10.9911 3.01471 11.3973C3.09594 11.8035 3.49106 12.0669 3.89723 11.9856C5.40194 11.6847 6.75267 10.5655 7.78532 9.20327C8.8299 7.82533 9.62741 6.09879 9.98406 4.4047C10.0306 4.18353 9.97496 3.95315 9.83255 3.77764C9.69013 3.60212 9.47617 3.50019 9.25014 3.50019H4.75014Z" fill="#212121"/>
</svg>
