<svg width="32" height="32" viewBox="0 0 32 32" fill="none" xmlns="http://www.w3.org/2000/svg">
<path d="M10.1026 3.36754C10.3749 2.55086 11.1392 2 12 2H21C21.656 2 22.2702 2.32166 22.6439 2.86081C23.0175 3.39996 23.103 4.08805 22.8727 4.70225L20.886 10H24C24.775 10 25.4803 10.4478 25.81 11.1491C26.1397 11.8505 26.0345 12.6793 25.5401 13.276L24.7923 14.1785C24.2131 14.0614 23.6137 14 23 14C22.7719 14 22.5458 14.0085 22.322 14.0252L24 12H19.443C18.7448 12 18.2615 11.3026 18.5067 10.6489L21 4H12L8.00002 16H11.7077C12.3619 16 12.8399 16.6177 12.6757 17.251L10.0635 27.3267C9.92932 27.8441 10.5914 28.1828 10.9325 27.7712L14.0552 24.0024C14.1483 24.8423 14.3569 25.6473 14.6649 26.4012L12.4725 29.0472C10.7673 31.1052 7.45674 29.4119 8.12748 26.8247L10.4154 18H8.00002C7.35713 18 6.75343 17.691 6.37753 17.1694C6.00163 16.6479 5.89935 15.9774 6.10265 15.3675L10.1026 3.36754ZM30.5 23C30.5 27.1421 27.1421 30.5 23 30.5C18.8579 30.5 15.5 27.1421 15.5 23C15.5 18.8579 18.8579 15.5 23 15.5C27.1421 15.5 30.5 18.8579 30.5 23ZM21 26.0575C21 26.4567 21.4448 26.6949 21.7771 26.4736L26.3751 23.4117C26.6722 23.2139 26.6722 22.7773 26.3751 22.5794L21.7771 19.5175C21.4448 19.2962 21 19.5345 21 19.9337V26.0575Z" fill="#212121"/>
</svg>
