<svg width="20" height="20" viewBox="0 0 20 20" fill="none" xmlns="http://www.w3.org/2000/svg">
<path d="M5 7C5 6.44772 5.44772 6 6 6H9C9.55228 6 10 6.44772 10 7V9C10 9.55228 9.55228 10 9 10H6C5.44772 10 5 9.55228 5 9V7ZM9 7H6V9H9V7ZM5.5 11C5.22386 11 5 11.2239 5 11.5C5 11.7761 5.22386 12 5.5 12H9.5C9.77614 12 10 11.7761 10 11.5C10 11.2239 9.77614 11 9.5 11H5.5ZM5 13.5C5 13.2239 5.22386 13 5.5 13H9.5C9.51486 13 9.52956 13.0006 9.54409 13.0019L9.13987 13.862C9.11838 13.9077 9.0994 13.9538 9.08287 14H5.5C5.22386 14 5 13.7761 5 13.5ZM6 16C4.89543 16 4 15.1046 4 14V6C4 4.89543 4.89543 4 6 4H11V9.90425L11.9599 7.86196C11.9725 7.83505 11.9859 7.80864 12 7.78274V4H14C15.1046 4 16 4.89543 16 6V7H17V6C17 4.34315 15.6569 3 14 3H6C4.34315 3 3 4.34315 3 6V14C3 15.6569 4.34315 17 6 17H11.971L12.2202 16H6ZM13.3174 8H18.145C18.5274 8 18.7683 8.41183 18.5808 8.74513L16.75 12H18.2461C18.8906 12 19.235 12.7593 18.8103 13.2441L13.9864 18.7519C13.4819 19.328 12.5438 18.8375 12.7289 18.0945L13.5 15H10.4974C10.131 15 9.88906 14.6189 10.0449 14.2873L12.8649 8.28732C12.9473 8.11195 13.1237 8 13.3174 8Z" fill="#212121"/>
</svg>
