<svg width="20" height="20" viewBox="0 0 20 20" fill="none" xmlns="http://www.w3.org/2000/svg">
<path d="M7.08535 3C7.29127 2.4174 7.84689 2 8.5 2H11.5C12.1531 2 12.7087 2.4174 12.9146 3H14.5C15.3284 3 16 3.67157 16 4.5V10H15V4.5C15 4.22386 14.7761 4 14.5 4H12.9146C12.7087 4.5826 12.1531 5 11.5 5H8.5C7.84689 5 7.29127 4.5826 7.08535 4H5.5C5.22386 4 5 4.22386 5 4.5V10H4V4.5C4 3.67157 4.67157 3 5.5 3H7.08535ZM8.5 3C8.22386 3 8 3.22386 8 3.5C8 3.77614 8.22386 4 8.5 4H11.5C11.7761 4 12 3.77614 12 3.5C12 3.22386 11.7761 3 11.5 3H8.5ZM15 13H16V16.5C16 17.3284 15.3284 18 14.5 18H5.5C4.67157 18 4 17.3284 4 16.5V13H5V16.5C5 16.7761 5.22386 17 5.5 17H14.5C14.7761 17 15 16.7761 15 16.5V13ZM8.97789 6.85296C8.91657 6.65369 8.73804 6.51337 8.52991 6.5009C8.32179 6.48843 8.12777 6.60641 8.04309 6.79694L6.17506 11H2.5C2.22386 11 2 11.2239 2 11.5C2 11.7761 2.22386 12 2.5 12H6.5C6.69759 12 6.87666 11.8836 6.95691 11.7031L8.41471 8.42301L10.0221 13.647C10.0822 13.8424 10.2551 13.9814 10.4588 13.9983C10.6624 14.0152 10.8558 13.9064 10.9472 13.7236L12.5 10.618L13.0528 11.7236C13.1375 11.893 13.3106 12 13.5 12H17.5C17.7761 12 18 11.7761 18 11.5C18 11.2239 17.7761 11 17.5 11H13.809L12.9472 9.2764C12.8625 9.10701 12.6894 9.00001 12.5 9.00001C12.3106 9.00001 12.1375 9.10701 12.0528 9.2764L10.6109 12.1602L8.97789 6.85296Z" fill="#212121"/>
</svg>
