<svg width="20" height="20" viewBox="0 0 20 20" fill="none" xmlns="http://www.w3.org/2000/svg">
<path d="M10.5 18C10.2239 18 10 17.7761 10 17.5V16H8C6.89543 16 6 15.1046 6 14V13C6 11.8954 6.89543 11 8 11H10V9H6C4.89543 9 4 8.10457 4 7V6C4 4.89543 4.89543 4 6 4H10V2.5C10 2.22386 10.2239 2 10.5 2C10.7761 2 11 2.22386 11 2.5V4H15C16.1046 4 17 4.89543 17 6V7C17 8.10457 16.1046 9 15 9H11V11H13C14.1046 11 15 11.8954 15 13V14C15 15.1046 14.1046 16 13 16H11V17.5C11 17.7761 10.7761 18 10.5 18Z" fill="#212121"/>
</svg>
