<svg width="21" height="20" viewBox="0 0 21 20" fill="none" xmlns="http://www.w3.org/2000/svg">
<path d="M9.41602 8.5C10.5206 8.5 11.416 7.60457 11.416 6.5C11.416 5.39543 10.5206 4.5 9.41602 4.5C8.31145 4.5 7.41602 5.39543 7.41602 6.5C7.41602 7.60457 8.31145 8.5 9.41602 8.5ZM9.41602 7.5C8.86373 7.5 8.41602 7.05228 8.41602 6.5C8.41602 5.94772 8.86373 5.5 9.41602 5.5C9.9683 5.5 10.416 5.94772 10.416 6.5C10.416 7.05228 9.9683 7.5 9.41602 7.5ZM6.91582 9C6.08734 9 5.41601 9.67178 5.41602 10.5C5.41602 10.8275 5.45518 11.5482 6.03951 12.179C6.62561 12.8117 7.66135 13.25 9.41394 13.25C11.1651 13.25 12.2018 12.8165 12.7893 12.1864C13.3759 11.5572 13.416 10.8354 13.416 10.5C13.416 9.67157 12.7444 9 11.916 9H6.91582ZM6.41602 10.5C6.41602 10.2238 6.63988 10 6.91582 10H11.916C12.1922 10 12.416 10.2239 12.416 10.5C12.416 10.7523 12.3833 11.1555 12.0579 11.5044C11.7336 11.8523 11.0192 12.25 9.41394 12.25C7.81009 12.25 7.09687 11.8489 6.77311 11.4994C6.44759 11.1481 6.41602 10.7438 6.41602 10.5ZM3.41602 6C3.41602 4.34315 4.75916 3 6.41602 3H12.416C14.0729 3 15.416 4.34315 15.416 6V12C15.416 13.6569 14.0729 15 12.416 15H6.41602C4.75916 15 3.41602 13.6569 3.41602 12V6ZM6.41602 4C5.31145 4 4.41602 4.89543 4.41602 6V12C4.41602 13.1046 5.31145 14 6.41602 14H12.416C13.5206 14 14.416 13.1046 14.416 12V6C14.416 4.89543 13.5206 4 12.416 4H6.41602ZM8.41601 17C7.52751 17 6.72922 16.6138 6.1799 16H12.916C14.849 16 16.416 14.433 16.416 12.5V5.76392C17.0298 6.31324 17.416 7.11152 17.416 8.00002V12.5C17.416 14.9853 15.4013 17 12.916 17H8.41601Z" fill="#212121"/>
</svg>
