<?xml version="1.0" encoding="UTF-8"?>
<svg width="24px" height="24px" viewBox="0 0 24 24" version="1.1" xmlns="http://www.w3.org/2000/svg" xmlns:xlink="http://www.w3.org/1999/xlink">
    <!-- Generator: Sketch 61.2 (89653) - https://sketch.com -->
    <title>ic_fluent_timer_2_24_filled</title>
    <desc>Created with Sketch.</desc>
    <g id="ðŸ”-Product-Icons" stroke="none" stroke-width="1" fill="none" fill-rule="evenodd">
        <g id="ic_fluent_timer_2_24_filled" fill="#212121" fill-rule="nonzero">
            <path d="M11.9982359,5.00115817 C16.6926563,5.00115817 20.4982359,8.8067378 20.4982359,13.5011582 C20.4982359,13.8650319 20.4753716,14.2235654 20.4310013,14.5754003 C19.8772898,14.2099678 19.2150774,13.9974679 18.503233,13.9974679 L18.2519715,13.9974679 L18.064219,14.0032268 C16.3298013,14.1199279 15.0015794,15.5354097 15.0015794,17.2478599 L15.0073806,17.3913871 C15.05349,17.9594056 15.3708508,18.4507361 15.834,18.738 L15.7768275,18.8050211 C15.2901332,19.4065173 15.0015794,20.1702894 15.0015794,20.9986815 L15.0015794,21.2474679 L15.0106814,21.4163617 L15.0170087,21.4494962 C14.0789233,21.8059782 13.061373,22.0011582 11.9982359,22.0011582 C7.30381556,22.0011582 3.49823594,18.1955785 3.49823594,13.5011582 C3.49823594,8.8067378 7.30381556,5.00115817 11.9982359,5.00115817 Z M18.503233,14.9974679 C19.8840303,14.9974679 21.0033877,16.1168253 21.0033877,17.4976226 C21.0033877,18.8231881 19.971788,19.9078105 18.6676189,19.9924594 L18.503233,19.9977774 C18.1471224,19.9977774 17.8350152,20.1829698 17.6574082,20.4621086 L17.637,20.497 L20.2533877,20.4974679 C20.6330835,20.4974679 20.9468787,20.7796218 20.9965411,21.1456973 L21.0033877,21.2474679 C21.0033877,21.6271636 20.7212339,21.9409588 20.3551583,21.9906213 L20.2533877,21.9974679 L16.7515794,21.9974679 C16.3718837,21.9974679 16.0580885,21.715314 16.008426,21.3492384 L16.0015794,21.2474679 L16.0015794,20.9986815 C16.0015794,19.6727187 17.0334884,18.5877712 18.3380485,18.503097 L18.5024836,18.4977774 C19.0556032,18.4977774 19.5033877,18.0499928 19.5033877,17.4976226 C19.5033877,16.9847074 19.1172878,16.5619707 18.6198722,16.5041966 L18.503233,16.4974679 L18.2519715,16.4974679 C17.8720772,16.4974679 17.558118,16.7797692 17.5084296,17.1460362 L17.5015794,17.2478599 C17.5015794,17.6620735 17.165793,17.9978599 16.7515794,17.9978599 C16.3373659,17.9978599 16.0015794,17.6620735 16.0015794,17.2478599 C16.0015794,16.0567884 16.9269022,15.0818377 18.0978958,15.0026596 L18.2519715,14.9974679 L18.503233,14.9974679 Z M11.9982359,8.00115817 C11.6185402,8.00115817 11.304745,8.28331205 11.2550826,8.64938761 L11.2482359,8.75115817 L11.2482359,13.2511582 L11.2550826,13.3529287 C11.304745,13.7190043 11.6185402,14.0011582 11.9982359,14.0011582 C12.3779317,14.0011582 12.6917269,13.7190043 12.7413893,13.3529287 L12.7482359,13.2511582 L12.7482359,8.75115817 L12.7413893,8.64938761 C12.6917269,8.28331205 12.3779317,8.00115817 11.9982359,8.00115817 Z M19.1683074,5.12352029 L19.2496072,5.1851195 L20.3986739,6.18396133 C20.7112884,6.45570576 20.7444202,6.92942229 20.4726757,7.24203681 C20.2235767,7.52860013 19.8047649,7.58032028 19.4959001,7.37763788 L19.4146002,7.31603867 L18.2655336,6.31719684 C17.9529191,6.04545241 17.9197873,5.57173588 18.1915317,5.25912136 C18.4406308,4.97255804 18.8594425,4.92083788 19.1683074,5.12352029 Z M14.2482359,2.50115817 C14.6624495,2.50115817 14.9982359,2.83694461 14.9982359,3.25115817 C14.9982359,3.63085393 14.7160821,3.94464913 14.3500065,3.99431155 L14.2482359,4.00115817 L9.74823594,4.00115817 C9.33402237,4.00115817 8.99823594,3.66537173 8.99823594,3.25115817 C8.99823594,2.8714624 9.28038982,2.55766721 9.64646538,2.50800479 L9.74823594,2.50115817 L14.2482359,2.50115817 Z" id="ðŸŽ¨Color"></path>
        </g>
    </g>
</svg>