<svg width="20" height="20" viewBox="0 0 20 20" fill="none" xmlns="http://www.w3.org/2000/svg">
<path d="M17 5.5C17 4.11929 15.8807 3 14.5 3H5.5C4.11929 3 3 4.11929 3 5.5V9.25606C3.31841 9.14352 3.65327 9.06579 4 9.02746V7H16V14.5C16 15.3284 15.3284 16 14.5 16H9.12132L10.1213 17H14.5C15.8807 17 17 15.8807 17 14.5V5.5ZM5.5 4H14.5C15.3284 4 16 4.67157 16 5.5V6H4V5.5C4 4.67157 4.67157 4 5.5 4ZM6.59608 16.3032C6.01179 16.7408 5.28617 17 4.5 17C2.567 17 1 15.433 1 13.5C1 11.567 2.567 10 4.5 10C6.433 10 8 11.567 8 13.5C8 14.2862 7.7408 15.0118 7.30319 15.5961L9.85356 18.1465C10.0488 18.3418 10.0488 18.6584 9.85355 18.8536C9.65828 19.0489 9.3417 19.0489 9.14644 18.8536L6.59608 16.3032ZM7 13.5C7 12.1193 5.88071 11 4.5 11C3.11929 11 2 12.1193 2 13.5C2 14.8807 3.11929 16 4.5 16C5.88071 16 7 14.8807 7 13.5Z" fill="#212121"/>
</svg>
