<svg width="20" height="20" viewBox="0 0 20 20" fill="none" xmlns="http://www.w3.org/2000/svg">
<path d="M8 18C7.99997 18.4119 7.52979 18.6472 7.2002 18.4004L5.7998 17.3496C5.62216 17.2166 5.37784 17.2166 5.2002 17.3496L3.7998 18.4004C3.47021 18.6472 3.00003 18.4119 3 18V15.2422C3.71505 15.7209 4.57493 16 5.5 16C6.42507 16 7.28495 15.7209 8 15.2422V18ZM2.14648 2.14651C2.34175 1.95125 2.65825 1.95125 2.85352 2.14651L17.8535 17.1465C18.0485 17.3418 18.0487 17.6584 17.8535 17.8536C17.6583 18.0487 17.3418 18.0486 17.1465 17.8536L14.293 15H9V14.3291C9.62539 13.5563 9.99999 12.5717 10 11.5C10 11.1985 9.96871 10.9041 9.91211 10.6192L6.38086 7.08792C6.09588 7.0314 5.80157 7.00003 5.5 7.00003C4.08649 7.00003 2.82498 7.65158 2 8.67093V5.00003C2 4.37296 2.28946 3.81464 2.74121 3.44827L2.14648 2.85354C1.95123 2.65828 1.95124 2.34177 2.14648 2.14651ZM5.5 8.00003C7.433 8.00003 9 9.56703 9 11.5C8.99998 13.433 7.43298 15 5.5 15C3.56702 15 2.00002 13.433 2 11.5C2 9.56703 3.567 8.00003 5.5 8.00003ZM16 3.00002C17.1046 3.00002 18 3.89546 18 5.00003V13C18 13.7791 17.5534 14.4521 16.9033 14.7823L9.12109 7.00003H14.5C14.7761 7.00003 15 6.77615 15 6.50003C15 6.22389 14.7761 6.00003 14.5 6.00003H8.12109L5.12109 3.00002H16Z" fill="#212121"/>
</svg>
