<svg width="20" height="20" viewBox="0 0 20 20" fill="none" xmlns="http://www.w3.org/2000/svg">
<path d="M8.95235 3.53381C9.61709 3.22701 10.3829 3.22701 11.0476 3.53381L15.7095 5.68545C15.8866 5.76718 16 5.94441 16 6.13943V7.99963H17V6.13943C17 5.55435 16.6598 5.02267 16.1286 4.77749L11.4667 2.62585C10.5361 2.19633 9.46393 2.19633 8.5333 2.62585L3.87141 4.77749C3.34019 5.02267 3 5.55435 3 6.13943V7.99963H4L4 6.13943C4 5.9444 4.1134 5.76718 4.29047 5.68545L8.95235 3.53381Z" fill="#212121"/>
<path d="M3.39872 10.9996C3.58077 11.1495 3.7811 11.2957 4 11.437C4.05121 11.4701 4.10344 11.5029 4.15669 11.5355C5.6041 12.42 7.66726 12.9997 9.9992 12.9997C12.3311 12.9997 14.3943 12.42 15.8417 11.5355C15.8955 11.5026 15.9483 11.4694 16 11.436C16.2183 11.2949 16.4181 11.1492 16.5997 10.9996C16.7447 10.8803 16.878 10.7585 17 10.6349C17.2046 10.4276 17.377 10.215 17.5179 9.99963H16.0002C16.0002 9.99963 16.0001 9.99963 16.0002 9.99963C15.7241 9.99955 15.5002 9.77573 15.5002 9.49963C15.5002 9.22349 15.724 8.99963 16.0002 8.99963H18.5002C18.6328 8.99963 18.7599 9.05231 18.8537 9.14608C18.9475 9.23985 19.0002 9.36703 19.0002 9.49963V11.9996C19.0002 12.2758 18.7763 12.4996 18.5002 12.4996C18.224 12.4996 18.0002 12.2758 18.0002 11.9996V11.0207C17.7185 11.3539 17.3827 11.6672 17 11.9563C16.8002 12.1073 16.5876 12.2516 16.3632 12.3888C16.2453 12.4608 16.1242 12.5308 16 12.5988C14.4076 13.4699 12.3046 13.9997 9.9992 13.9997C7.69452 13.9997 5.59217 13.4703 4 12.5996C3.87523 12.5314 3.75359 12.4611 3.63524 12.3888C3.41142 12.252 3.19935 12.108 3 11.9575C2.61739 11.6687 2.2817 11.3556 2 11.0228V11.9996C2 12.2758 1.77614 12.4996 1.5 12.4996C1.22386 12.4996 1 12.2758 1 11.9996V9.49963C1 9.36703 1.05268 9.23985 1.14645 9.14608C1.24021 9.05231 1.36739 8.99963 1.5 8.99963H4C4.27614 8.99963 4.5 9.22349 4.5 9.49963C4.5 9.77578 4.27614 9.99963 4 9.99963H2.48054C2.62181 10.2156 2.79473 10.4287 3 10.6366C3.12152 10.7596 3.25437 10.8808 3.39872 10.9996Z" fill="#212121"/>
<path d="M4 13.7237V13.8598C4 14.0548 4.1134 14.232 4.29047 14.3137L8.95235 16.4654C9.61709 16.7722 10.3829 16.7722 11.0476 16.4654L15.7095 14.3137C15.8866 14.232 16 14.0548 16 13.8598V13.7229C16.3511 13.554 16.6852 13.3697 17 13.171V13.8598C17 14.4448 16.6598 14.9765 16.1286 15.2217L11.4667 17.3733C10.5361 17.8029 9.46393 17.8029 8.5333 17.3733L3.87141 15.2217C3.34019 14.9765 3 14.4448 3 13.8598V13.172C3.31477 13.3706 3.64893 13.5548 4 13.7237Z" fill="#212121"/>
<path d="M6.04031 6.80268C6.14909 6.54887 6.44303 6.43129 6.69684 6.54007L9.99988 7.95566L13.3029 6.54007C13.5567 6.43129 13.8507 6.54887 13.9595 6.80268C14.0682 7.0565 13.9507 7.35043 13.6968 7.45921L10.4999 8.82934V10.9996C10.4999 11.2758 10.276 11.4996 9.99988 11.4996C9.72374 11.4996 9.49988 11.2758 9.49988 10.9996V8.82934L6.30292 7.45921C6.04911 7.35043 5.93153 7.0565 6.04031 6.80268Z" fill="#212121"/>
</svg>
