<svg width="20" height="20" viewBox="0 0 20 20" fill="none" xmlns="http://www.w3.org/2000/svg">
<path d="M17.3536 2.64667C16.3299 1.62299 14.6701 1.62298 13.6465 2.64667L8.14646 8.14667C8.08238 8.21075 8.03692 8.29104 8.01494 8.37896L7.01494 12.379C6.97234 12.5493 7.02227 12.7296 7.14646 12.8538C7.27065 12.978 7.45089 13.0279 7.62128 12.9853L11.6213 11.9853C11.7092 11.9633 11.7895 11.9179 11.8536 11.8538L17.3536 6.35378C18.3773 5.33009 18.3773 3.67036 17.3536 2.64667ZM14.3536 3.35378C14.9867 2.72061 16.0133 2.72062 16.6465 3.35378C17.2796 3.98695 17.2796 5.01351 16.6465 5.64667L11.2444 11.0487L8.18719 11.813L8.95149 8.75585L14.3536 3.35378Z" fill="#212121"/>
<path d="M10 4.00023C10.2791 4.00023 10.5537 4.01929 10.8227 4.05617L11.6766 3.20229C11.1394 3.07026 10.5779 3.00023 10 3.00023C6.13401 3.00023 3 6.13424 3 10.0002C3 13.8662 6.13401 17.0002 10 17.0002C13.866 17.0002 17 13.8662 17 10.0002C17 9.42232 16.93 8.86076 16.7979 8.32359L15.9441 9.17746C15.9809 9.44645 16 9.72111 16 10.0002C16 13.3139 13.3137 16.0002 10 16.0002C6.68629 16.0002 4 13.3139 4 10.0002C4 6.68652 6.68629 4.00023 10 4.00023Z" fill="#212121"/>
</svg>
