<svg width="24" height="24" viewBox="0 0 24 24" fill="none" xmlns="http://www.w3.org/2000/svg">
<path d="M14 11.25C14 10.2835 14.7835 9.5 15.75 9.5H17.25C17.6642 9.5 18 9.83579 18 10.25C18 10.6642 17.6642 11 17.25 11H15.75C15.6119 11 15.5 11.1119 15.5 11.25V12.75C15.5 12.8881 15.6119 13 15.75 13H16.25C17.2165 13 18 13.7835 18 14.75V16.25C18 17.2165 17.2165 18 16.25 18H14.75C14.3358 18 14 17.6642 14 17.25C14 16.8358 14.3358 16.5 14.75 16.5H16.25C16.3881 16.5 16.5 16.3881 16.5 16.25V14.75C16.5 14.6119 16.3881 14.5 16.25 14.5H15.75C14.7835 14.5 14 13.7165 14 12.75V11.25Z" fill="#212121"/>
<path d="M12.75 10.25C12.75 9.83579 12.4142 9.5 12 9.5C11.5858 9.5 11.25 9.83579 11.25 10.25V16.25C11.25 16.3881 11.1381 16.5 11 16.5H9.75C9.33579 16.5 9 16.8358 9 17.25C9 17.6642 9.33579 18 9.75 18H11C11.9665 18 12.75 17.2165 12.75 16.25V10.25Z" fill="#212121"/>
<path d="M3 6.25V17.75C3 19.5449 4.45507 21 6.25 21H17.75C19.5449 21 21 19.5449 21 17.75V6.25C21 4.45507 19.5449 3 17.75 3H6.25C4.45507 3 3 4.45507 3 6.25ZM6.25 4.5H17.75C18.7165 4.5 19.5 5.2835 19.5 6.25V17.75C19.5 18.7165 18.7165 19.5 17.75 19.5H6.25C5.2835 19.5 4.5 18.7165 4.5 17.75V6.25C4.5 5.2835 5.2835 4.5 6.25 4.5Z" fill="#212121"/>
</svg>
