<svg width="28" height="28" viewBox="0 0 28 28" fill="none" xmlns="http://www.w3.org/2000/svg">
<path d="M21.0688 9.00001C23.2399 9.00043 25.0002 10.7605 25.0004 12.9317C25.0004 13.9742 24.5861 14.9746 23.849 15.7119L16.0864 23.4746C15.6311 23.9299 15.0657 24.2609 14.4457 24.4346L8.95257 25.9727C8.6918 26.0456 8.41169 25.9717 8.22014 25.7803C8.02859 25.5888 7.95479 25.3088 8.02776 25.0479L9.56585 19.5547C9.7395 18.9346 10.0705 18.3694 10.5258 17.9141L18.2885 10.1514C19.0258 9.41434 20.0262 9.00001 21.0688 9.00001ZM13.2514 3C13.6652 3.00043 14.0014 3.33605 14.0014 3.75V7.50001H15.7514C16.1652 7.50043 16.5014 7.83606 16.5014 8.25001C16.5014 8.66396 16.1652 8.99958 15.7514 9.00001H14.0014V13.0254L12.5014 14.5254V3.75C12.5014 3.33579 12.8372 3 13.2514 3ZM9.75139 4C10.1526 4.00042 10.483 4.31687 10.5004 4.71778V4.72168C10.5061 4.74937 10.5022 4.78164 10.5024 4.80957C10.5027 4.86164 10.5025 4.93445 10.4994 5.02539C10.4934 5.20728 10.4766 5.46351 10.436 5.77344C10.3549 6.39161 10.1769 7.23622 9.78362 8.14259C8.98651 9.97937 7.32182 12.0293 3.95354 12.9727C3.55479 13.0842 3.14049 12.8509 3.02874 12.4522C2.91717 12.0533 3.15043 11.639 3.54924 11.5274C6.42982 10.7205 7.76639 9.02035 8.40667 7.54493C8.73188 6.79541 8.88222 6.09261 8.94964 5.57813C8.9531 5.55167 8.95441 5.52539 8.95745 5.5H3.75139C3.33718 5.5 3.00139 5.16422 3.00139 4.75C3.00139 4.33579 3.33718 4 3.75139 4H9.75139Z" fill="#212121"/>
</svg>
