<svg width="20" height="20" viewBox="0 0 20 20" fill="none" xmlns="http://www.w3.org/2000/svg">
<path d="M17.248 4C17.5239 4.00022 17.7479 4.22409 17.748 4.5C17.7479 4.77603 17.5231 5.00001 17.2471 5L13.1016 4.99902L12.8018 7.99023C13.0038 7.9872 13.2447 7.98346 13.498 7.98242C14.1548 7.97974 14.9515 7.98742 15.3398 8.04199L15.5557 8.07812C17.7634 8.5035 19.2735 10.5911 18.957 12.8428C18.6302 15.1669 16.4805 16.7866 14.1562 16.46C12.8091 16.2705 11.6986 15.4676 11.0674 14.376L11.0254 14.2832C10.9519 14.0627 11.0409 13.8133 11.25 13.6924C11.489 13.5544 11.7954 13.636 11.9336 13.875L12.0283 14.0293C12.5241 14.7868 13.3303 15.334 14.2959 15.4697C16.0733 15.7194 17.717 14.4805 17.9668 12.7031C18.2087 10.9812 17.0536 9.38467 15.3652 9.05957L15.2002 9.03223C14.8987 8.98992 14.1844 8.97965 13.5029 8.98242C13.1714 8.98378 12.8597 8.98816 12.6318 8.99219L12.2861 8.99902C12.2781 8.99922 12.2719 8.99986 12.2676 9C12.2658 9.00004 12.2638 8.9991 12.2627 8.99902L12.2617 9C12.1184 9.00358 11.9794 8.94486 11.8818 8.83984C11.8087 8.76103 11.763 8.66165 11.751 8.55664L11.75 8.4502L12.1514 4.4502C12.1771 4.19478 12.3927 4.00004 12.6494 4H17.248ZM9.5 4C9.77614 4 10 4.22386 10 4.5V15.5C10 15.7761 9.77614 16 9.5 16C9.22386 16 9 15.7761 9 15.5V10H3V15.5C3 15.7761 2.77614 16 2.5 16C2.22386 16 2 15.7761 2 15.5V4.5C2 4.22386 2.22386 4 2.5 4C2.77614 4 3 4.22386 3 4.5V9H9V4.5C9 4.22386 9.22386 4 9.5 4Z" fill="#212121"/>
</svg>
