<svg width="32" height="32" viewBox="0 0 32 32" fill="none" xmlns="http://www.w3.org/2000/svg">
<path d="M20.0574 21.4715L28.2932 29.7071C28.6837 30.0976 29.3169 30.0976 29.7074 29.7071C30.0979 29.3166 30.0979 28.6834 29.7074 28.2929L3.7071 2.29319C3.31657 1.90267 2.6834 1.90268 2.29288 2.29321C1.90237 2.68374 1.90237 3.3169 2.2929 3.70742L8.38749 9.80187C7.08912 9.3007 5.6438 9.00005 4.0003 9.00005C3.44802 9.00005 3.0003 9.44776 3.0003 10C3.0003 10.5523 3.44802 11 4.0003 11C7.63206 11 10.1039 12.7159 12.5027 14.9577C12.6747 14.7882 12.8487 14.6153 13.0251 14.4394L14.0859 15.5001C11.1348 18.4467 8.43056 21 4.0003 21C3.44802 21 3.0003 21.4477 3.0003 22C3.0003 22.5523 3.44802 23 4.0003 23C9.33957 23 12.5872 19.8268 15.5002 16.9144L16.5609 17.9751C16.4024 18.1336 16.2417 18.2945 16.0783 18.4569C17.2739 19.5799 18.5662 20.6514 20.0574 21.4715ZM27.4748 23.9397L24.4202 20.8852C24.793 20.941 25.1785 20.9772 25.5782 20.9922L23.7932 19.2071C23.4027 18.8166 23.4027 18.1834 23.7932 17.7929C24.1837 17.4024 24.8169 17.4024 25.2074 17.7929L28.7074 21.2929C29.0979 21.6834 29.0979 22.3166 28.7074 22.7071L27.4748 23.9397ZM18.0173 14.4824L16.5988 13.064C18.9476 10.9476 21.7054 9.12588 25.5923 9.00629L23.7932 7.20711C23.4027 6.81658 23.4027 6.18341 23.7932 5.79289C24.1837 5.40237 24.8169 5.40237 25.2074 5.7929L28.7074 9.29294C29.0979 9.68347 29.0979 10.3166 28.7074 10.7072L25.2074 14.2072C24.8169 14.5977 24.1837 14.5977 23.7932 14.2072C23.4027 13.8167 23.4027 13.1835 23.7932 12.793L25.5782 11.0079C22.4296 11.1259 20.1637 12.5626 18.0173 14.4824Z" fill="#212121"/>
</svg>
