<svg width="28" height="28" viewBox="0 0 28 28" fill="none" xmlns="http://www.w3.org/2000/svg">
<path d="M3.28033 2.21967C2.98744 1.92678 2.51257 1.92677 2.21967 2.21967C1.92678 2.51256 1.92677 2.98743 2.21967 3.28033L7.50887 8.56962C6.48173 8.21152 5.3256 8 4 8C3.44772 8 3 8.44771 3 9C3 9.55229 3.44772 10 4 10C7.14573 10 9.08361 11.4106 10.9388 13.2788C11.1332 13.0722 11.3304 12.8597 11.5318 12.6419L11.5555 12.6163L12.2631 13.324C9.93684 15.8388 7.89366 18 4 18C3.44772 18 3 18.4477 3 19C3 19.5523 3.44772 20 4 20C8.813 20 11.3919 17.2115 13.6747 14.7433L13.6784 14.7393L14.3861 15.4469L14.3621 15.4729C14.146 15.7066 13.9245 15.9462 13.6963 16.1881C14.9661 17.461 16.4132 18.6598 18.3009 19.3619L20.2631 21.324C19.9026 21.7164 19.9126 22.3268 20.2929 22.7071C20.6732 23.0874 21.2836 23.0974 21.676 22.737L24.7194 25.7805C25.0123 26.0734 25.4872 26.0734 25.7801 25.7805C26.073 25.4876 26.073 25.0127 25.7801 24.7198L3.28033 2.21967ZM14.3566 11.1748L15.7736 12.5918C17.3411 11.1546 19.0631 10.1135 21.5771 10.0087L20.2929 11.2929C19.9024 11.6834 19.9024 12.3166 20.2929 12.7071C20.6834 13.0976 21.3166 13.0976 21.7071 12.7071L24.7071 9.70711C25.0976 9.31658 25.0976 8.68342 24.7071 8.29289L21.7071 5.29289C21.3166 4.90237 20.6834 4.90237 20.2929 5.29289C19.9024 5.68342 19.9024 6.31658 20.2929 6.70711L21.5926 8.00677C18.353 8.11524 16.1544 9.51345 14.3566 11.1748ZM21.1452 17.9635L23.7979 20.6163L24.7071 19.7071C25.0976 19.3166 25.0976 18.6834 24.7071 18.2929L21.7071 15.2929C21.3166 14.9024 20.6834 14.9024 20.2929 15.2929C19.9024 15.6834 19.9024 16.3166 20.2929 16.7071L21.5771 17.9913C21.4305 17.9852 21.2865 17.9759 21.1452 17.9635Z" fill="#212121"/>
</svg>
