<svg width="32" height="32" viewBox="0 0 32 32" fill="none" xmlns="http://www.w3.org/2000/svg">
<path d="M23.8779 15.0068C24.5082 15.0708 24.9999 15.6028 25 16.25C25 16.8972 24.5082 17.4292 23.8779 17.4932L23.75 17.5H19.8691L19.6513 19.459C20.1452 19.4604 20.7103 19.4805 21.1963 19.5488L21.4502 19.5908C24.0476 20.0911 25.8244 22.5472 25.4521 25.1963C25.0797 27.8451 22.6951 29.7153 20.0605 29.4805L19.8047 29.4512C18.3192 29.2424 17.0781 28.3999 16.3174 27.2393L16.1719 27.0039L16.1133 26.8897C15.8529 26.3121 16.0679 25.6192 16.6279 25.2949C17.1879 24.9711 17.8945 25.1304 18.2656 25.6436L18.3359 25.751L18.4092 25.8691C18.7915 26.4526 19.4107 26.8713 20.1523 26.9756L20.4072 26.9981C21.6734 27.0468 22.7964 26.1295 22.9765 24.8477C23.1565 23.5659 22.3301 22.3744 21.0996 22.0723L20.8486 22.0244C20.4149 21.9635 19.803 21.9524 19.2558 21.9619C18.9918 21.9665 18.7584 21.9755 18.5918 21.9834C18.509 21.9873 18.4429 21.9906 18.3984 21.9932C18.3764 21.9945 18.3595 21.9964 18.3486 21.9971H18.334C17.9649 22.0218 17.6036 21.8823 17.3476 21.6152C17.0916 21.3479 16.9669 20.9803 17.0078 20.6123L17.5078 16.1123L17.5263 15.9951C17.6455 15.4211 18.153 15 18.75 15H23.75L23.8779 15.0068ZM11.1279 15.3555C11.4879 15.0049 12.0233 14.9043 12.4863 15.0996C12.9491 15.2951 13.25 15.7486 13.25 16.251V27.5C13.2499 28.1901 12.6902 28.7499 12 28.75C11.3097 28.75 10.7501 28.1902 10.75 27.5V19.0303C10.3228 19.3373 9.80551 19.6751 9.14354 20.0723C8.55157 20.4274 7.78291 20.2355 7.42772 19.6436C7.07289 19.0518 7.26477 18.2839 7.85643 17.9287C8.90271 17.301 9.49004 16.8748 9.91307 16.5176C10.2234 16.2555 10.4443 16.035 10.7226 15.7568C10.843 15.6366 10.9741 15.5053 11.1279 15.3555ZM15.9814 3.00195C20.3278 2.93717 24.5499 4.51445 27.5 7.67383V4.25195C27.5 3.56164 28.0596 3.00195 28.75 3.00195C29.4403 3.00203 30 3.56169 30 4.25195V11.251C30 11.9412 29.4403 12.5009 28.75 12.501H22.25C21.5596 12.501 21 11.9413 21 11.251C21.0002 10.5608 21.5597 10.001 22.25 10.001H26.2109C23.7864 7.00367 20.0318 5.44114 16.0185 5.50097C11.0529 5.57503 7.01458 8.20107 4.30175 12.4268C3.92877 13.0073 3.156 13.1754 2.57519 12.8027C1.99426 12.4298 1.82537 11.6571 2.19823 11.0762C5.28384 6.26981 10.0399 3.09052 15.9814 3.00195Z" fill="#212121"/>
</svg>
