<?xml version="1.0" encoding="UTF-8"?>
<svg width="24px" height="24px" viewBox="0 0 24 24" version="1.1" xmlns="http://www.w3.org/2000/svg" xmlns:xlink="http://www.w3.org/1999/xlink">
    <!-- Generator: Sketch 61.2 (89653) - https://sketch.com -->
    <title>ic_fluent_page_view_24_filled</title>
    <desc>Created with Sketch.</desc>
    <g id="ðŸ”-Product-Icons" stroke="none" stroke-width="1" fill="none" fill-rule="evenodd">
        <g id="ic_fluent_page_view_24_filled" fill="#212121" fill-rule="nonzero">
            <path d="M3.44117056,9.95573408 C1.51754248,11.8793622 1.51754248,14.9981795 3.44117056,16.9218076 C5.13592679,18.6165638 7.75838597,18.8182047 9.67389703,17.5267302 L13.9303165,21.7831236 C14.232279,22.0850861 14.7218569,22.0850861 15.0238194,21.7831236 C15.2983308,21.5086123 15.3232864,21.0790468 15.0986862,20.7763438 L15.0238194,20.6896207 L10.8064679,16.471276 C12.3201182,14.5384768 12.1870436,11.7355336 10.4072441,9.95573408 C8.48361599,8.032106 5.36479865,8.032106 3.44117056,9.95573408 Z M16.6542478,16.5002809 C16.4286942,17.7878011 16.1062171,18.9565117 15.7016271,19.9541585 L15.7310095,19.9825972 L15.8556409,20.1228764 C16.0757939,20.4178127 16.2002143,20.7464432 16.2336002,21.0746466 C18.2774411,20.1267015 19.9468694,18.5075358 20.9598834,16.5004954 L16.6542478,16.5002809 Z M12.2502382,16.4994581 L14.5340804,18.7863493 C14.7363511,18.1865113 14.9151864,17.5181491 15.0633754,16.794829 L15.1214275,16.5003438 L12.2502382,16.4994581 Z M9.31374112,11.049237 C10.6334442,12.3689401 10.6334442,14.5086016 9.31374112,15.8283046 C7.99403804,17.1480077 5.85437659,17.1480077 4.53467352,15.8283046 C3.21497044,14.5086016 3.21497044,12.3689401 4.53467352,11.049237 C5.85437659,9.72953396 7.99403804,9.72953396 9.31374112,11.049237 Z M15.4501957,9.99974664 L11.7501687,9.99892478 C12.7970008,11.465107 13.1020336,13.3107025 12.6421411,15.0002222 L15.3517307,15.0004434 C15.46478,14.0546472 15.5272382,13.0470576 15.5272382,12 C15.5272382,11.4856709 15.5121676,10.980865 15.4834329,10.4882286 L15.4501957,9.99974664 Z M16.9571487,10.0003196 C17.0033956,10.6502654 17.0272382,11.3185171 17.0272382,12 C17.0272382,12.8293642 16.9919252,13.6391318 16.9238918,14.4201557 L16.8667721,15.0003913 L21.5694024,15.0003913 C21.866873,14.0531925 22.0272382,13.0453239 22.0272382,12 C22.0272382,11.3149689 21.9583683,10.6460232 21.8271748,9.999709 L16.9571487,10.0003196 Z M14.862133,2.40638044 C15.742891,3.75589241 16.3975004,5.73550173 16.7451587,8.06012068 L16.8067278,8.49996021 L21.3976114,8.49966751 C20.3563363,5.71292786 18.1077065,3.5151034 15.2881625,2.54263458 L14.9839129,2.44315935 L14.862133,2.40638044 Z M12.0256877,2.00145806 C10.7489114,2.00145806 9.46463784,4.38382412 8.86832407,7.84021592 C9.33248989,8.00044489 9.77977163,8.22013451 10.1993583,8.49896464 L15.2865082,8.49970778 C14.7470983,4.69052669 13.3821618,2.00145806 12.0256877,2.00145806 Z M9.18930019,2.40634287 C6.17098986,3.29731949 3.74697646,5.57392903 2.65376396,8.49966751 L3.6490563,8.49896464 C4.77313206,7.75197676 6.09597722,7.42944497 7.39170088,7.53136927 C7.71435907,5.67355397 8.23825331,4.06210857 8.91918657,2.85232542 L9.08141379,2.57657059 L9.18930019,2.40634287 Z" id="ðŸŽ¨-Color"></path>
        </g>
    </g>
</svg>