<svg width="16" height="16" viewBox="0 0 16 16" fill="none" xmlns="http://www.w3.org/2000/svg">
<path d="M2.75 3C1.7835 3 1 3.7835 1 4.75V11.25C1 12.2165 1.7835 13 2.75 13H13.25C14.2165 13 15 12.2165 15 11.25V4.75C15 3.7835 14.2165 3 13.25 3H2.75ZM3 10.5C3 10.2239 3.22386 10 3.5 10H12.5C12.7761 10 13 10.2239 13 10.5C13 10.7761 12.7761 11 12.5 11H3.5C3.22386 11 3 10.7761 3 10.5ZM3.25 7C2.83579 7 2.5 6.66421 2.5 6.25C2.5 5.83579 2.83579 5.5 3.25 5.5C3.66421 5.5 4 5.83579 4 6.25C4 6.66421 3.66421 7 3.25 7ZM10 6.25C10 6.66421 9.66421 7 9.25 7C8.83579 7 8.5 6.66421 8.5 6.25C8.5 5.83579 8.83579 5.5 9.25 5.5C9.66421 5.5 10 5.83579 10 6.25ZM6.25 7C5.83579 7 5.5 6.66421 5.5 6.25C5.5 5.83579 5.83579 5.5 6.25 5.5C6.66421 5.5 7 5.83579 7 6.25C7 6.66421 6.66421 7 6.25 7ZM13 6.25C13 6.66421 12.6642 7 12.25 7C11.8358 7 11.5 6.66421 11.5 6.25C11.5 5.83579 11.8358 5.5 12.25 5.5C12.6642 5.5 13 5.83579 13 6.25ZM5.25 9C4.83579 9 4.5 8.66421 4.5 8.25C4.5 7.83579 4.83579 7.5 5.25 7.5C5.66421 7.5 6 7.83579 6 8.25C6 8.66421 5.66421 9 5.25 9ZM9 8.25C9 8.66421 8.66421 9 8.25 9C7.83579 9 7.5 8.66421 7.5 8.25C7.5 7.83579 7.83579 7.5 8.25 7.5C8.66421 7.5 9 7.83579 9 8.25ZM11.25 9C10.8358 9 10.5 8.66421 10.5 8.25C10.5 7.83579 10.8358 7.5 11.25 7.5C11.6642 7.5 12 7.83579 12 8.25C12 8.66421 11.6642 9 11.25 9Z" fill="#212121"/>
</svg>
