<svg width="20" height="20" viewBox="0 0 20 20" fill="none" xmlns="http://www.w3.org/2000/svg">
<path d="M5 12.5C5 12.2239 5.22386 12 5.5 12H14.5C14.7761 12 15 12.2239 15 12.5C15 12.7761 14.7761 13 14.5 13H5.5C5.22386 13 5 12.7761 5 12.5ZM11.5024 8.00468C11.9179 8.00468 12.2547 7.66783 12.2547 7.25231C12.2547 6.83679 11.9179 6.49994 11.5024 6.49994C11.0868 6.49994 10.75 6.83679 10.75 7.25231C10.75 7.66783 11.0868 8.00468 11.5024 8.00468ZM15.2547 7.25231C15.2547 7.66783 14.9179 8.00468 14.5024 8.00468C14.0868 8.00468 13.75 7.66783 13.75 7.25231C13.75 6.83679 14.0868 6.49994 14.5024 6.49994C14.9179 6.49994 15.2547 6.83679 15.2547 7.25231ZM5.50237 8.00468C5.91789 8.00468 6.25474 7.66783 6.25474 7.25231C6.25474 6.83679 5.91789 6.49994 5.50237 6.49994C5.08685 6.49994 4.75 6.83679 4.75 7.25231C4.75 7.66783 5.08685 8.00468 5.50237 8.00468ZM7.74998 9.75231C7.74998 10.1678 7.41313 10.5047 6.99761 10.5047C6.58209 10.5047 6.24524 10.1678 6.24524 9.75231C6.24524 9.33679 6.58209 8.99994 6.99761 8.99994C7.41313 8.99994 7.74998 9.33679 7.74998 9.75231ZM10.0024 10.5047C10.4179 10.5047 10.7547 10.1678 10.7547 9.75231C10.7547 9.33679 10.4179 8.99994 10.0024 8.99994C9.58685 8.99994 9.25 9.33679 9.25 9.75231C9.25 10.1678 9.58685 10.5047 10.0024 10.5047ZM13.7595 9.75231C13.7595 10.1678 13.4227 10.5047 13.0071 10.5047C12.5916 10.5047 12.2548 10.1678 12.2548 9.75231C12.2548 9.33679 12.5916 8.99994 13.0071 8.99994C13.4227 8.99994 13.7595 9.33679 13.7595 9.75231ZM8.50237 8.00468C8.91789 8.00468 9.25474 7.66783 9.25474 7.25231C9.25474 6.83679 8.91789 6.49994 8.50237 6.49994C8.08685 6.49994 7.75 6.83679 7.75 7.25231C7.75 7.66783 8.08685 8.00468 8.50237 8.00468ZM2 5.5C2 4.67157 2.67157 4 3.5 4H16.5C17.3284 4 18 4.67157 18 5.5V13.5C18 14.3284 17.3284 15 16.5 15H3.5C2.67157 15 2 14.3284 2 13.5V5.5ZM3.5 5C3.22386 5 3 5.22386 3 5.5V13.5C3 13.7761 3.22386 14 3.5 14H16.5C16.7761 14 17 13.7761 17 13.5V5.5C17 5.22386 16.7761 5 16.5 5H3.5Z" fill="#212121"/>
</svg>
