<svg width="20" height="20" viewBox="0 0 20 20" fill="none" xmlns="http://www.w3.org/2000/svg">
<path d="M2 7C2 5.34315 3.34315 4 5 4H15C16.6569 4 18 5.34315 18 7V10.3411C17.4625 9.53275 16.5435 9 15.5 9C13.8431 9 12.5 10.3431 12.5 12C12.5 12.7733 12.7926 13.4782 13.273 14.0102C12.166 14.1098 11.267 14.9311 11.05 16H5C3.34315 16 2 14.6569 2 13V7ZM4 7V10C4 10.5523 4.44772 11 5 11H9C9.55228 11 10 10.5523 10 10V7C10 6.44772 9.55228 6 9 6H5C4.44772 6 4 6.44772 4 7ZM17.5 12C17.5 13.1046 16.6046 14 15.5 14C14.3954 14 13.5 13.1046 13.5 12C13.5 10.8954 14.3954 10 15.5 10C16.6046 10 17.5 10.8954 17.5 12ZM19 16.5C19 17.7452 18 19 15.5 19C13 19 12 17.7499 12 16.5C12 15.6716 12.6716 15 13.5 15H17.5C18.3284 15 19 15.6716 19 16.5Z" fill="#212121"/>
</svg>
