<svg width="48" height="48" viewBox="0 0 48 48" fill="none" xmlns="http://www.w3.org/2000/svg">
<path d="M12.25 7C8.79822 7 6 9.79822 6 13.25V14.0589C6.2443 14.0201 6.4948 14 6.75 14H8.5V13.25C8.5 11.1789 10.1789 9.5 12.25 9.5H27.75C29.8211 9.5 31.5 11.1789 31.5 13.25V28.75C31.5 30.8211 29.8211 32.5 27.75 32.5H18.9971C18.9691 33.3034 18.7376 34.0875 18.3231 34.7784L18.1901 35H27.75C31.2018 35 34 32.2018 34 28.75V27.6486L40.9068 32.4176C43.0627 33.9062 46.0034 32.363 46.0034 29.7432V12.2556C46.0034 9.63579 43.0627 8.09263 40.9068 9.58119L34 14.3502V13.25C34 9.79822 31.2018 7 27.75 7H12.25ZM34 17.3882L42.3273 11.6384C42.8248 11.2949 43.5034 11.651 43.5034 12.2556V29.7432C43.5034 30.3478 42.8248 30.7039 42.3273 30.3604L34 24.6106V17.3882ZM6.75 16C5.23122 16 4 17.2312 4 18.75V23.1035C2.84575 23.43 2 24.4912 2 25.75V32.3345C2 32.8329 2.13546 33.322 2.39189 33.7494L4.96437 38.0369C4.98769 38.0757 5 38.1202 5 38.1655V41.25C5 42.7688 6.23122 44 7.75 44H11.25C12.7688 44 14 42.7688 14 41.25V38.1655C14 38.1202 14.0123 38.0757 14.0356 38.0369L16.6081 33.7494C16.8645 33.322 17 32.8329 17 32.3345V25.75C17 24.4912 16.1543 23.43 15 23.1035V18.75C15 17.2312 13.7688 16 12.25 16H6.75ZM12.5 23H6.5V18.75C6.5 18.6119 6.61193 18.5 6.75 18.5H12.25C12.3881 18.5 12.5 18.6119 12.5 18.75V23Z" fill="#212121"/>
</svg>
