<svg width="20" height="20" viewBox="0 0 20 20" fill="none" xmlns="http://www.w3.org/2000/svg">
<path d="M8.5 14C8.22386 14 8 14.2239 8 14.5C8 14.7761 8.22386 15 8.5 15H11.5C11.7761 15 12 14.7761 12 14.5C12 14.2239 11.7761 14 11.5 14H8.5ZM4.3547 12.0069C3.59445 12.08 3 12.7206 3 13.5V15.5C3 16.3284 3.67157 17 4.5 17H15.5C16.3284 17 17 16.3284 17 15.5V13.5C17 12.7206 16.4056 12.0801 15.6454 12.007L14.9286 10H15C15.5523 10 16 9.55231 16 9V7.03113C16 6.68311 15.9092 6.34106 15.7365 6.03888L14.5758 4.00775C14.2198 3.38458 13.5571 3 12.8394 3H7.16064C6.44293 3 5.78024 3.38458 5.42416 4.00775L4.26351 6.03888C4.09083 6.34106 4 6.68311 4 7.03113V9C4 9.55231 4.44772 10 5 10H5.07147L4.3547 12.0069ZM12.8394 4C13.1982 4 13.5296 4.19226 13.7076 4.50385L14.5625 6H5.43746L6.2924 4.50385C6.47044 4.19226 6.80179 4 7.16064 4H12.8394ZM12.7953 7L14.581 12H5.41904L7.20476 7H12.7953ZM15.5 13C15.7761 13 16 13.2239 16 13.5V15.5C16 15.7761 15.7761 16 15.5 16H4.5C4.22386 16 4 15.7761 4 15.5V13.5C4 13.2239 4.22386 13 4.5 13H15.5ZM5.42861 9H5V7.03113C5 7.02075 5.00017 7.01038 5.00049 7H6.1429L5.42861 9ZM14.5715 9L13.8572 7H14.9995C14.9998 7.01038 15 7.02075 15 7.03113V9H14.5715Z" fill="#212121"/>
</svg>
