<svg width="12" height="12" viewBox="0 0 12 12" fill="none" xmlns="http://www.w3.org/2000/svg">
<path d="M7.5 1C8.32843 1 9 1.67157 9 2.5V9.5C9 10.3284 8.32843 11 7.5 11H4.5C3.67157 11 3 10.3284 3 9.5V2.5C3 1.67157 3.67157 1 4.5 1H7.5ZM4.5 2C4.22386 2 4 2.22386 4 2.5V3H5.5C5.77614 3 6 3.22386 6 3.5C6 3.77614 5.77614 4 5.5 4H4V5.5H6.5C6.77614 5.5 7 5.72386 7 6C7 6.27614 6.77614 6.5 6.5 6.5H4V8H5.5C5.77614 8 6 8.22386 6 8.5C6 8.77614 5.77614 9 5.5 9H4V9.5C4 9.77614 4.22386 10 4.5 10H7.5C7.77614 10 8 9.77614 8 9.5V2.5C8 2.22386 7.77614 2 7.5 2H4.5Z" fill="#212121"/>
</svg>
