<svg width="20" height="20" viewBox="0 0 20 20" fill="none" xmlns="http://www.w3.org/2000/svg">
<path d="M2 6C2 4.89543 2.89543 4 4 4H16C17.1046 4 18 4.89543 18 6V14C18 15.1046 17.1046 16 16 16H4C2.89543 16 2 15.1046 2 14V6ZM4 5C3.44772 5 3 5.44772 3 6V14C3 14.5523 3.44772 15 4 15H9.5V11.5H10.5V15H16C16.5523 15 17 14.5523 17 14V6C17 5.44772 16.5523 5 16 5H10.5V8.5H9.5V5H4ZM6.85355 8.35355C7.04882 8.15829 7.04882 7.84171 6.85355 7.64645C6.65829 7.45118 6.34171 7.45118 6.14645 7.64645L4.14645 9.64645C3.95118 9.84171 3.95118 10.1583 4.14645 10.3536L6.14645 12.3536C6.34171 12.5488 6.65829 12.5488 6.85355 12.3536C7.04882 12.1583 7.04882 11.8417 6.85355 11.6464L5.70711 10.5H14.2929L13.1464 11.6464C12.9512 11.8417 12.9512 12.1583 13.1464 12.3536C13.3417 12.5488 13.6583 12.5488 13.8536 12.3536L15.8536 10.3536C16.0488 10.1583 16.0488 9.84171 15.8536 9.64645L13.8536 7.64645C13.6583 7.45118 13.3417 7.45118 13.1464 7.64645C12.9512 7.84171 12.9512 8.15829 13.1464 8.35355L14.2929 9.5H5.70711L6.85355 8.35355Z" fill="#212121"/>
</svg>
