<svg width="20" height="20" viewBox="0 0 20 20" fill="none" xmlns="http://www.w3.org/2000/svg">
<path d="M16.1086 2.98808C16.3781 2.92817 16.5481 2.66109 16.4882 2.39152C16.4283 2.12195 16.1612 1.95199 15.8917 2.01189L11.3917 3.01189C11.2068 3.05298 11.061 3.19499 11.015 3.37872L10.7347 4.5H4.5C4.22386 4.5 4 4.72386 4 5V8.5C4 9.88071 5.11929 11 6.5 11H7V11.5C7 12.9871 8.08199 14.2215 9.50167 14.4588C9.50057 14.4724 9.5 14.4861 9.5 14.5V17H7.5C7.22386 17 7 17.2239 7 17.5C7 17.7761 7.22386 18 7.5 18H12.5C12.7761 18 13 17.7761 13 17.5C13 17.2239 12.7761 17 12.5 17H10.5V14.5C10.5 14.4861 10.4994 14.4724 10.4983 14.4588C11.918 14.2215 13 12.9871 13 11.5V11H13.5C14.8807 11 16 9.88071 16 8.5V5C16 4.72386 15.7761 4.5 15.5 4.5H11.7655L11.9102 3.92104L16.1086 2.98808ZM10.4847 5.5L10.1097 7H5V5.5H10.4847ZM15 7H11.1405L11.5155 5.5H15V7Z" fill="#212121"/>
</svg>
