<?xml version="1.0" encoding="UTF-8"?>
<svg width="24px" height="24px" viewBox="0 0 24 24" version="1.1" xmlns="http://www.w3.org/2000/svg" xmlns:xlink="http://www.w3.org/1999/xlink">
    <!-- Generator: Sketch 59.1 (86144) - https://sketch.com -->
    <title>ic_bot_add_24_regular</title>
    <desc>Created with Sketch.</desc>
    <g id="ðŸ”-Product-Icons" stroke="none" stroke-width="1" fill="none" fill-rule="evenodd">
        <g id="ic_bot_add_24_regular" fill="#212121">
            <path d="M17.5,12 C20.5375661,12 23,14.4624339 23,17.5 C23,20.5375661 20.5375661,23 17.5,23 C14.4624339,23 12,20.5375661 12,17.5 C12,14.4624339 14.4624339,12 17.5,12 Z M12.0222607,13.9993086 C11.7255613,14.4626083 11.4860296,14.9660345 11.3136172,15.4996352 L4.25354153,15.499921 C3.83932796,15.499921 3.50354153,15.8357075 3.50354153,16.249921 L3.50354153,17.1572408 C3.50354153,17.8128951 3.78953221,18.4359296 4.28670709,18.8633654 C5.5447918,19.9450082 7.44080155,20.5010712 10,20.5010712 C10.598839,20.5010712 11.1614445,20.4706245 11.6881394,20.4101192 C11.9370538,20.9102887 12.2508544,21.3740111 12.6170965,21.7904935 C11.8149076,21.9312924 10.9419626,22.0010712 10,22.0010712 C7.11050247,22.0010712 4.87168436,21.3444691 3.30881727,20.0007885 C2.48019625,19.2883988 2.00354153,18.2500002 2.00354153,17.1572408 L2.00354153,16.249921 C2.00354153,15.0072804 3.01090084,13.999921 4.25354153,13.999921 L12.0222607,13.9993086 Z M17.5,13.9992349 L17.4101244,14.0072906 C17.2060313,14.0443345 17.0450996,14.2052662 17.0080557,14.4093593 L17,14.4992349 L16.9996498,16.9992349 L14.4976498,17 L14.4077742,17.0080557 C14.2036811,17.0450996 14.0427494,17.2060313 14.0057055,17.4101244 L13.9976498,17.5 L14.0057055,17.5898756 C14.0427494,17.7939687 14.2036811,17.9549004 14.4077742,17.9919443 L14.4976498,18 L17.0006498,17.9992349 L17.0011076,20.5034847 L17.0091633,20.5933603 C17.0462073,20.7974534 17.207139,20.9583851 17.411232,20.995429 L17.5011076,21.0034847 L17.5909833,20.995429 C17.7950763,20.9583851 17.956008,20.7974534 17.993052,20.5933603 L18.0011076,20.5034847 L18.0006498,17.9992349 L20.5045655,18 L20.5944411,17.9919443 C20.7985342,17.9549004 20.9594659,17.7939687 20.9965098,17.5898756 L21.0045655,17.5 L20.9965098,17.4101244 C20.9594659,17.2060313 20.7985342,17.0450996 20.5944411,17.0080557 L20.5045655,17 L17.9996498,16.9992349 L18,14.4992349 L17.9919443,14.4093593 C17.9549004,14.2052662 17.7939687,14.0443345 17.5898756,14.0072906 L17.5,13.9992349 Z M10.0003312,2.00049432 C10.380027,2.00049432 10.6938222,2.2826482 10.7434846,2.64872376 L10.7503312,2.75049432 L10.7495415,3.49949432 L14.25,3.5 C15.4926407,3.5 16.5,4.50735931 16.5,5.75 L16.5,10.254591 C16.5,10.5557334 16.4408388,10.843058 16.3335049,11.1055761 C15.2082115,11.3083422 14.1840602,11.8017755 13.3407048,12.5047635 L5.75,12.504591 C4.50735931,12.504591 3.5,11.4972317 3.5,10.254591 L3.5,5.75 C3.5,4.50735931 4.50735931,3.5 5.75,3.5 L9.24954153,3.49949432 L9.25033122,2.75049432 C9.25033122,2.40531635 9.48351624,2.11460166 9.80095151,2.02728504 L9.89856066,2.00734093 L10.0003312,2.00049432 Z M14.25,5 L5.75,5 C5.33578644,5 5,5.33578644 5,5.75 L5,10.254591 C5,10.6688046 5.33578644,11.004591 5.75,11.004591 L14.25,11.004591 C14.6642136,11.004591 15,10.6688046 15,10.254591 L15,5.75 C15,5.33578644 14.6642136,5 14.25,5 Z M7.74928905,6.5 C8.43925235,6.5 8.99857811,7.05932576 8.99857811,7.74928905 C8.99857811,8.43925235 8.43925235,8.99857811 7.74928905,8.99857811 C7.05932576,8.99857811 6.5,8.43925235 6.5,7.74928905 C6.5,7.05932576 7.05932576,6.5 7.74928905,6.5 Z M12.2420255,6.5 C12.9319888,6.5 13.4913145,7.05932576 13.4913145,7.74928905 C13.4913145,8.43925235 12.9319888,8.99857811 12.2420255,8.99857811 C11.5520622,8.99857811 10.9927364,8.43925235 10.9927364,7.74928905 C10.9927364,7.05932576 11.5520622,6.5 12.2420255,6.5 Z" id="ðŸŽ¨-Color"></path>
        </g>
    </g>
</svg>