<svg width="24" height="24" viewBox="0 0 24 24" fill="none" xmlns="http://www.w3.org/2000/svg">
<path d="M17.25 2C18.7688 2 20 3.23122 20 4.75V11.4982C19.5258 11.3004 19.0232 11.1572 18.5 11.0764V4.75C18.5 4.05964 17.9404 3.5 17.25 3.5H4.75C4.05964 3.5 3.5 4.05964 3.5 4.75V17.25C3.5 17.9404 4.05964 18.5 4.75 18.5H11.0764C11.1572 19.0232 11.3004 19.5258 11.4982 20H4.75C3.23122 20 2 18.7688 2 17.25V4.75C2 3.23122 3.23122 2 4.75 2H17.25ZM9 13.4393L15.4697 6.96967C15.7626 6.67678 16.2374 6.67678 16.5303 6.96967C16.7966 7.23594 16.8208 7.6526 16.6029 7.94621L16.5303 8.03033L9.53033 15.0303C9.26406 15.2966 8.8474 15.3208 8.55379 15.1029L8.46967 15.0303L5.46967 12.0303C5.17678 11.7374 5.17678 11.2626 5.46967 10.9697C5.73594 10.7034 6.1526 10.6792 6.44621 10.8971L6.53033 10.9697L9 13.4393ZM23 17.5C23 20.5376 20.5376 23 17.5 23C14.4624 23 12 20.5376 12 17.5C12 14.4624 14.4624 12 17.5 12C20.5376 12 23 14.4624 23 17.5ZM14.5 17C14.2239 17 14 17.2239 14 17.5C14 17.7761 14.2239 18 14.5 18H19.2929L17.6464 19.6464C17.4512 19.8417 17.4512 20.1583 17.6464 20.3536C17.8417 20.5488 18.1583 20.5488 18.3536 20.3536L20.8536 17.8536C21.0488 17.6583 21.0488 17.3417 20.8536 17.1464L18.3536 14.6464C18.1583 14.4512 17.8417 14.4512 17.6464 14.6464C17.4512 14.8417 17.4512 15.1583 17.6464 15.3536L19.2929 17H14.5Z" fill="#212121"/>
</svg>
