<svg width="20" height="20" viewBox="0 0 20 20" fill="none" xmlns="http://www.w3.org/2000/svg">
<path d="M6 4C5.44772 4 5 4.44772 5 5V7C5 7.55228 5.44772 8 6 8H12C12.5523 8 13 7.55228 13 7V5C13 4.44772 12.5523 4 12 4H6ZM6 5H12V7H6V5ZM8 10C8 9.44772 8.44772 9 9 9C9.55228 9 10 9.44772 10 10C10 10.5523 9.55228 11 9 11C8.44772 11 8 10.5523 8 10ZM9 11.75C8.44772 11.75 8 12.1977 8 12.75C8 13.3023 8.44772 13.75 9 13.75C9.55228 13.75 10 13.3023 10 12.75C10 12.1977 9.55228 11.75 9 11.75ZM11 10C11 9.44772 11.4477 9 12 9C12.5523 9 13 9.44772 13 10C13 10.5523 12.5523 11 12 11C11.4477 11 11 10.5523 11 10ZM12 11.75C11.4477 11.75 11 12.1977 11 12.75C11 13.3023 11.4477 13.75 12 13.75C12.5523 13.75 13 13.3023 13 12.75C13 12.1977 12.5523 11.75 12 11.75ZM5 10C5 9.44772 5.44772 9 6 9C6.55228 9 7 9.44772 7 10C7 10.5523 6.55228 11 6 11C5.44772 11 5 10.5523 5 10ZM6 11.75C5.44772 11.75 5 12.1977 5 12.75C5 13.3023 5.44772 13.75 6 13.75C6.55228 13.75 7 13.3023 7 12.75C7 12.1977 6.55228 11.75 6 11.75ZM5.5 2C4.11929 2 3 3.11929 3 4.5V13.5C3 14.8807 4.11929 16 5.5 16H12.5C13.8807 16 15 14.8807 15 13.5V4.5C15 3.11929 13.8807 2 12.5 2H5.5ZM4 4.5C4 3.67157 4.67157 3 5.5 3H12.5C13.3284 3 14 3.67157 14 4.5V13.5C14 14.3284 13.3284 15 12.5 15H5.5C4.67157 15 4 14.3284 4 13.5V4.5ZM7.49994 18.0001C6.68203 18.0001 5.95586 17.6073 5.49976 17.0001H12.4999C14.4329 17.0001 15.9999 15.4331 15.9999 13.5001V4.50006C16.6072 4.95616 16.9999 5.68215 16.9999 6.50006V13.5001C16.9999 15.9853 14.9852 18.0001 12.4999 18.0001H7.49994Z" fill="#212121"/>
</svg>
