<?xml version="1.0" encoding="UTF-8"?>
<svg width="20px" height="20px" viewBox="0 0 20 20" version="1.1" xmlns="http://www.w3.org/2000/svg" xmlns:xlink="http://www.w3.org/1999/xlink">
    <!-- Generator: Sketch 59.1 (86144) - https://sketch.com -->
    <title>ic_weather_thunderstorm_20_regular</title>
    <desc>Created with Sketch.</desc>
    <g id="ðŸ”-Product-Icons" stroke="none" stroke-width="1" fill="none" fill-rule="evenodd">
        <g id="ic_weather_thunderstorm_20_regular" fill="#212121" fill-rule="nonzero">
            <path d="M9.12840937,14.168587 L10.8951135,12.1695759 C11.0797073,11.9641988 11.3958411,11.9473506 11.6012182,12.1319444 C11.7837756,12.2960278 11.817372,12.564044 11.6929379,12.7658204 L11.6388497,12.8380491 L10.6219609,14.0028236 L12.4997225,14.0028236 C12.8905765,14.0028236 13.1198074,14.4244348 12.9364904,14.7469572 L12.8908023,14.8143627 L10.4464057,17.8173529 C10.2743474,18.0333403 9.95977423,18.0689519 9.74378685,17.8968936 C9.55179806,17.7439528 9.50232844,17.4784078 9.61454747,17.2695911 L9.66424621,17.1942747 L11.4621603,15.0028236 L9.50027749,15.0028236 C9.09639719,15.0028236 8.87050406,14.5564658 9.07736532,14.2352868 L9.12840937,14.168587 L10.8951135,12.1695759 L9.12840937,14.168587 Z M11,6 C13.4645648,6 14.8626705,7.57359992 15.0660053,9.47399034 L15.1282051,9.4739884 C16.7142536,9.4739884 18,10.7110282 18,12.2369942 C18,13.7629602 16.7142536,15.0000622 15.1282051,15.0000622 L13.8723823,15.0000622 C13.953805,14.8486477 14,14.6754765 14,14.4915157 C14,14.3143536 13.9571563,14.1471981 13.8812647,13.9998451 L15.1818182,14 C16.1859723,14 17,13.2212223 17,12.2605512 C17,11.2998802 16.1859723,10.5211024 15.1818359,10.5211024 L14.6319159,10.5211195 C14.3410898,10.5211286 14.0871036,10.3029682 14.0871036,10.0249473 C14.0871036,8.24778983 12.649437,7 11,7 C9.35056297,7 7.91289643,8.27029833 7.91289643,10.0249473 C7.91289643,10.3029682 7.65891017,10.5211286 7.36808412,10.5211195 L6.81818182,10.5211024 C5.81402773,10.5211024 5,11.2998802 5,12.2605512 C5,13.2212223 5.81402773,14 6.81818182,14 L8.11873531,13.9998451 C8.04284371,14.1471981 8,14.3143536 8,14.4915157 C8,14.6754765 8.04619504,14.8486477 8.12761772,15.0000622 L6.87179487,15.0000622 C5.28574636,15.0000622 4,13.7629602 4,12.2369942 C4,10.7110282 5.28574636,9.4739884 6.87181238,9.4739884 L6.93399466,9.47399034 C7.13851239,7.56110917 8.53543521,6 11,6 Z M8.39190227,3 C9.84844763,3 11.1177883,3.82807986 11.7448931,5.04489563 C11.5043854,5.01508684 11.2558878,5 11,5 C10.8165846,5 10.6369926,5.00769267 10.4614363,5.02279119 C9.97195883,4.39649135 9.21360834,4 8.375,4 C7.07938192,4 5.97533191,4.94638831 5.75417546,6.22499674 L5.71784342,6.43504915 C5.63492001,6.91446796 5.21897915,7.26462936 4.73244171,7.26461333 L4.47363587,7.26460481 C3.65976324,7.26460481 3,7.93290688 3,8.75730241 C3,9.32679336 3.31484086,9.82179728 3.77782866,10.0734621 C3.56407891,10.3451832 3.38766,10.6488286 3.25732511,10.9753967 C2.50323774,10.515148 2,9.68450401 2,8.73632255 C2,7.34375839 3.08547721,6.20472102 4.45649352,6.11916276 L4.6791153,6.11400552 C4.99007327,4.33919048 6.53961184,3 8.39190227,3 Z" id="ðŸŽ¨Color"></path>
        </g>
    </g>
</svg>