<svg width="12" height="12" viewBox="0 0 12 12" fill="none" xmlns="http://www.w3.org/2000/svg">
<path d="M1.85355 1.14645C1.65829 0.951184 1.34171 0.951184 1.14645 1.14645C0.951184 1.34171 0.951184 1.65829 1.14645 1.85355L3.29289 4H2C1.72386 4 1.5 4.22386 1.5 4.5C1.5 4.77614 1.72386 5 2 5H4.29289L6.29289 7H2C1.72386 7 1.5 7.22386 1.5 7.5C1.5 7.77614 1.72386 8 2 8H7.29289L10.1464 10.8536C10.3417 11.0488 10.6583 11.0488 10.8536 10.8536C11.0488 10.6583 11.0488 10.3417 10.8536 10.1464L1.85355 1.14645ZM9.12121 7L10.1092 7.98803C10.3328 7.9382 10.5 7.73862 10.5 7.5C10.5 7.22386 10.2761 7 10 7H9.12121ZM6.12121 4L7.12121 5H10C10.2761 5 10.5 4.77614 10.5 4.5C10.5 4.22386 10.2761 4 10 4H6.12121Z" fill="#212121"/>
</svg>
