<svg width="20" height="20" viewBox="0 0 20 20" fill="none" xmlns="http://www.w3.org/2000/svg">
<path d="M4 5C4 3.34315 5.34315 2 7 2H15C16.6569 2 18 3.34315 18 5V11C18 12.6569 16.6569 14 15 14H12V13C12 12.7239 11.7761 12.5 11.5 12.5C11.2239 12.5 11 12.7239 11 13V15C11 16.6569 9.65685 18 8 18H5C3.34315 18 2 16.6569 2 15V12C2 10.6938 2.83481 9.58254 4 9.17071C4.31278 9.06015 4.64936 9 5 9H6C6.27614 9 6.5 8.77614 6.5 8.5C6.5 8.22386 6.27614 8 6 8H5C4.6547 8 4.31962 8.04375 4 8.12602V5ZM8.75215 10.9989C9.16606 10.9989 9.5016 10.6634 9.5016 10.2495C9.5016 9.83554 9.16606 9.5 8.75215 9.5C8.33824 9.5 8.0027 9.83554 8.0027 10.2495C8.0027 10.6634 8.33824 10.9989 8.75215 10.9989ZM8.5 7C8.22386 7 8 7.22386 8 7.5C8 7.77614 8.22386 8 8.5 8C9.88211 8 11.0025 9.12042 11.0025 10.5025C11.0025 10.7787 11.2264 11.0025 11.5025 11.0025C11.7787 11.0025 12.0025 10.7787 12.0025 10.5025C12.0025 8.56813 10.4344 7 8.5 7ZM8.50002 4.5C8.22387 4.5 8.00002 4.72386 8.00002 5C8.00002 5.27614 8.22387 5.5 8.50002 5.5C11.2629 5.5 13.5027 7.73978 13.5027 10.5027C13.5027 10.7788 13.7266 11.0027 14.0027 11.0027C14.2788 11.0027 14.5027 10.7788 14.5027 10.5027C14.5027 7.18749 11.8152 4.5 8.50002 4.5Z" fill="#212121"/>
</svg>
