<svg width="24" height="24" viewBox="0 0 24 24" fill="none" xmlns="http://www.w3.org/2000/svg">
<path d="M22.0016 12.0001C22.0014 6.47659 17.5236 1.99902 12.0001 1.99902C6.47638 1.99902 1.99854 6.47687 1.99854 12.0006C1.99854 17.1868 5.94589 21.451 11.0001 21.9528V20.1101C10.222 19.4976 9.52161 18.205 9.06118 16.5003H11.0001V15.0007H8.73827C8.58468 14.0704 8.49854 13.0601 8.49854 12.0006C8.49854 11.31 8.53514 10.6403 8.60316 9.99999H15.397C15.465 10.6401 15.5016 11.3096 15.5016 12.0001H17.0016C17.0016 11.3162 16.9692 10.6472 16.9067 9.99994L20.2647 9.99909C20.4195 10.6408 20.5016 11.3108 20.5016 12.0001H22.0001L22.0016 12.0001ZM4.78591 16.5007L7.5084 16.5009L7.60981 16.8959C7.92681 18.0653 8.3578 19.0915 8.88008 19.9114C7.1777 19.2394 5.74425 18.0338 4.78591 16.5007ZM3.7359 9.99992H7.09351C7.031 10.6474 6.99854 11.3166 6.99854 12.0006C6.99854 13.0432 7.07396 14.0514 7.21626 15.0005L4.0431 15.0009C3.69112 14.0679 3.49854 13.0567 3.49854 12.0006C3.49854 11.3176 3.57906 10.6535 3.73115 10.0171L3.7359 9.99992ZM8.85823 4.09844L8.88114 4.08973C8.15855 5.22198 7.61171 6.7479 7.29835 8.50069L4.25023 8.50033C5.1549 6.50046 6.81092 4.91315 8.85823 4.09844ZM11.8844 3.50432L12.0001 3.49902L12.1264 3.50534C13.388 3.63131 14.6052 5.63011 15.1714 8.50027H8.8288C9.39651 5.62205 10.619 3.62008 11.8844 3.50432ZM15.2269 4.26388L15.1201 4.08979L15.4113 4.21106C17.3343 5.05439 18.8853 6.58892 19.7499 8.50033L16.7018 8.50069C16.4043 6.83623 15.8961 5.37635 15.2269 4.26388Z" fill="#212121"/>
<path d="M12.0001 19.0001C12.0001 19.5523 12.4478 20.0001 13.0001 20.0001H16.0001V22.0001H15.5001C15.2239 22.0001 15.0001 22.2239 15.0001 22.5001C15.0001 22.7762 15.2239 23.0001 15.5001 23.0001H19.5001C19.7762 23.0001 20.0001 22.7762 20.0001 22.5001C20.0001 22.2239 19.7762 22.0001 19.5001 22.0001H19.0001V20.0001H22.0001C22.5523 20.0001 23.0001 19.5523 23.0001 19.0001V14.0001C23.0001 13.4478 22.5523 13.0001 22.0001 13.0001H13.0001C12.4478 13.0001 12.0001 13.4478 12.0001 14.0001V19.0001Z" fill="#212121"/>
</svg>
