<svg width="32" height="32" viewBox="0 0 32 32" fill="none" xmlns="http://www.w3.org/2000/svg">
<path d="M4 9C4 6.23858 6.23858 4 9 4H23C25.7614 4 28 6.23857 28 9V23C28 25.7614 25.7614 28 23 28H9C6.23858 28 4 25.7614 4 23V19C4 18.4477 4.44772 18 5 18C5.55228 18 6 18.4477 6 19V23C6 24.6568 7.34315 26 9 26H23C24.6569 26 26 24.6568 26 23V12H10.293C10.5703 11.3639 10.5703 10.6361 10.293 10H26V9C26 7.34314 24.6569 6 23 6H9C7.34315 6 6 7.34315 6 9V11.5858L7.29289 10.2929C7.68342 9.90237 8.31658 9.90237 8.70711 10.2929C9.09763 10.6834 9.09763 11.3166 8.70711 11.7071L5.70711 14.7071C5.31658 15.0976 4.68342 15.0976 4.29289 14.7071L1.29289 11.7071C0.902369 11.3166 0.902369 10.6834 1.29289 10.2929C1.68342 9.90237 2.31658 9.90237 2.70711 10.2929L4 11.5858V9ZM10.5 18C11.3284 18 12 17.3284 12 16.5C12 15.6716 11.3284 15 10.5 15C9.67157 15 9 15.6716 9 16.5C9 17.3284 9.67157 18 10.5 18ZM12 21.5C12 22.3284 11.3284 23 10.5 23C9.67157 23 9 22.3284 9 21.5C9 20.6716 9.67157 20 10.5 20C11.3284 20 12 20.6716 12 21.5ZM16 23C16.8284 23 17.5 22.3284 17.5 21.5C17.5 20.6716 16.8284 20 16 20C15.1716 20 14.5 20.6716 14.5 21.5C14.5 22.3284 15.1716 23 16 23ZM17.5 16.5C17.5 17.3284 16.8284 18 16 18C15.1716 18 14.5 17.3284 14.5 16.5C14.5 15.6716 15.1716 15 16 15C16.8284 15 17.5 15.6716 17.5 16.5ZM21.5 18C22.3284 18 23 17.3284 23 16.5C23 15.6716 22.3284 15 21.5 15C20.6716 15 20 15.6716 20 16.5C20 17.3284 20.6716 18 21.5 18Z" fill="#212121"/>
</svg>
