<svg width="20" height="20" viewBox="0 0 20 20" fill="none" xmlns="http://www.w3.org/2000/svg">
<path d="M5.85355 4.35355C6.04882 4.15829 6.04882 3.84171 5.85355 3.64645C5.65829 3.45118 5.34171 3.45118 5.14645 3.64645L3.5 5.29289L2.85355 4.64645C2.65829 4.45118 2.34171 4.45118 2.14645 4.64645C1.95118 4.84171 1.95118 5.15829 2.14645 5.35355L3.14645 6.35355C3.34171 6.54882 3.65829 6.54882 3.85355 6.35355L5.85355 4.35355ZM8.75 4.5C8.33579 4.5 8 4.83579 8 5.25C8 5.66421 8.33579 6 8.75 6H17.25C17.6642 6 18 5.66421 18 5.25C18 4.83579 17.6642 4.5 17.25 4.5H8.75ZM8.75 9.5C8.33579 9.5 8 9.83579 8 10.25C8 10.6642 8.33579 11 8.75 11H17.25C17.6642 11 18 10.6642 18 10.25C18 9.83579 17.6642 9.5 17.25 9.5H8.75ZM8 15.25C8 14.8358 8.33579 14.5 8.75 14.5H17.25C17.6642 14.5 18 14.8358 18 15.25C18 15.6642 17.6642 16 17.25 16H8.75C8.33579 16 8 15.6642 8 15.25ZM5.85355 9.85355C6.04882 9.65829 6.04882 9.34171 5.85355 9.14645C5.65829 8.95118 5.34171 8.95118 5.14645 9.14645L3.5 10.7929L2.85355 10.1464C2.65829 9.95118 2.34171 9.95118 2.14645 10.1464C1.95118 10.3417 1.95118 10.6583 2.14645 10.8536L3.14645 11.8536C3.34171 12.0488 3.65829 12.0488 3.85355 11.8536L5.85355 9.85355ZM5.85355 14.1464C6.04882 14.3417 6.04882 14.6583 5.85355 14.8536L3.85355 16.8536C3.65829 17.0488 3.34171 17.0488 3.14645 16.8536L2.14645 15.8536C1.95118 15.6583 1.95118 15.3417 2.14645 15.1464C2.34171 14.9512 2.65829 14.9512 2.85355 15.1464L3.5 15.7929L5.14645 14.1464C5.34171 13.9512 5.65829 13.9512 5.85355 14.1464Z" fill="#212121"/>
</svg>
