<svg width="48" height="48" viewBox="0 0 48 48" fill="none" xmlns="http://www.w3.org/2000/svg">
<path d="M11.25 6C8.3505 6 6 8.3505 6 11.25V36.75C6 39.6495 8.3505 42 11.25 42H36.75C39.6495 42 42 39.6495 42 36.75V11.25C42 8.3505 39.6495 6 36.75 6H11.25ZM12.5 21.5C12.5 20.3954 13.3954 19.5 14.5 19.5C15.6046 19.5 16.5 20.3954 16.5 21.5C16.5 22.6046 15.6046 23.5 14.5 23.5C13.3954 23.5 12.5 22.6046 12.5 21.5ZM14.5 17C16.9853 17 19 19.0147 19 21.5C19 23.9853 16.9853 26 14.5 26C12.0147 26 10 23.9853 10 21.5C10 19.0147 12.0147 17 14.5 17ZM14.5 31.5C13.3954 31.5 12.5 32.3954 12.5 33.5C12.5 34.6046 13.3954 35.5 14.5 35.5C15.6046 35.5 16.5 34.6046 16.5 33.5C16.5 32.3954 15.6046 31.5 14.5 31.5ZM10 33.5C10 31.0147 12.0147 29 14.5 29C16.9853 29 19 31.0147 19 33.5C19 35.9853 16.9853 38 14.5 38C12.0147 38 10 35.9853 10 33.5ZM22.25 20H36.75C37.4404 20 38 20.5596 38 21.25C38 21.9404 37.4404 22.5 36.75 22.5H22.25C21.5596 22.5 21 21.9404 21 21.25C21 20.5596 21.5596 20 22.25 20ZM21 33.25C21 32.5596 21.5596 32 22.25 32H36.75C37.4404 32 38 32.5596 38 33.25C38 33.9404 37.4404 34.5 36.75 34.5H22.25C21.5596 34.5 21 33.9404 21 33.25ZM11.25 11H36.75C37.4404 11 38 11.5596 38 12.25C38 12.9404 37.4404 13.5 36.75 13.5H11.25C10.5596 13.5 10 12.9404 10 12.25C10 11.5596 10.5596 11 11.25 11Z" fill="#212121"/>
</svg>
