<svg width="24" height="24" viewBox="0 0 24 24" fill="none" xmlns="http://www.w3.org/2000/svg">
<path d="M7.00026 1C7.40028 1 7.76182 1.2384 7.9194 1.60608L10.9194 8.60608C11.137 9.11371 10.9018 9.70159 10.3942 9.91915C9.88655 10.1367 9.29867 9.90155 9.08111 9.39392L8.48372 8H5.5168L4.9194 9.39392C4.70185 9.90155 4.11397 10.1367 3.60634 9.91915C3.09871 9.70159 2.86356 9.11371 3.08111 8.60608L6.08111 1.60608C6.23869 1.2384 6.60023 1 7.00026 1ZM7.00026 4.53859L6.37394 6H7.62657L7.00026 4.53859ZM18.5 3C18.5 2.44772 18.0523 2 17.5 2C16.9477 2 16.5 2.44772 16.5 3V18.5858L14.7071 16.7929C14.3166 16.4024 13.6834 16.4024 13.2929 16.7929C12.9024 17.1834 12.9024 17.8166 13.2929 18.2071L16.7929 21.7071C17.1834 22.0976 17.8166 22.0976 18.2071 21.7071L21.7071 18.2071C22.0976 17.8166 22.0976 17.1834 21.7071 16.7929C21.3166 16.4024 20.6834 16.4024 20.2929 16.7929L18.5 18.5858V3ZM4 14C4 13.4477 3.55228 13 3 13C2.44772 13 2 13.4477 2 14V21C2 21.5523 2.44772 22 3 22H11C11.5523 22 12 21.5523 12 21V14C12 13.4477 11.5523 13 11 13C10.4477 13 10 13.4477 10 14V20H8V16.9993C8 16.4471 7.55228 15.9993 7 15.9993C6.44772 15.9993 6 16.4471 6 16.9993V20H4V14Z" fill="#212121"/>
</svg>
