<svg width="32" height="32" viewBox="0 0 32 32" fill="none" xmlns="http://www.w3.org/2000/svg">
<path d="M4 11V24.5C4 26.433 5.567 28 7.5 28H15.704C15.9058 28.3488 16.1303 28.6828 16.3755 29H7.5C5.01472 29 3 26.9853 3 24.5V7.5C3 5.01472 5.01472 3 7.5 3H24.5C26.9853 3 29 5.01472 29 7.5V16.3755C28.6828 16.1303 28.3488 15.9058 28 15.704V11H4ZM7.5 4C5.567 4 4 5.567 4 7.5V10H28V7.5C28 5.567 26.433 4 24.5 4H7.5ZM23.5 31C27.6421 31 31 27.6421 31 23.5C31 19.3579 27.6421 16 23.5 16C19.3579 16 16 19.3579 16 23.5C16 27.6421 19.3579 31 23.5 31ZM22.2803 20.7803L21.0607 22H23.75C26.0972 22 28 23.9028 28 26.25V26.75C28 27.1642 27.6642 27.5 27.25 27.5C26.8358 27.5 26.5 27.1642 26.5 26.75V26.25C26.5 24.7312 25.2688 23.5 23.75 23.5H21.0607L22.2803 24.7197C22.5732 25.0126 22.5732 25.4874 22.2803 25.7803C21.9874 26.0732 21.5126 26.0732 21.2197 25.7803L18.7197 23.2803C18.4268 22.9874 18.4268 22.5126 18.7197 22.2197L21.2197 19.7197C21.5126 19.4268 21.9874 19.4268 22.2803 19.7197C22.5732 20.0126 22.5732 20.4874 22.2803 20.7803Z" fill="#212121"/>
</svg>
