<svg width="32" height="32" viewBox="0 0 32 32" fill="none" xmlns="http://www.w3.org/2000/svg">
<path d="M22.5 18C24.433 18 26 19.567 26 21.5V22C26 24.3933 24.4775 26.417 22.3154 27.793C20.1413 29.1765 17.1983 30 14 30C10.8016 30 7.85871 29.1765 5.68457 27.793C3.52254 26.417 2.00001 24.3933 2 22V21.5C1.99997 19.567 3.56698 18 5.5 18H22.5ZM5.5 20C4.67156 20 3.99998 20.6716 4 21.5V22C4 23.4725 4.9399 24.949 6.75879 26.1064C8.56581 27.2563 11.1234 28 14 28C16.8766 28 19.4342 27.2563 21.2412 26.1064C23.0602 24.9489 24 23.4725 24 22V21.5C24 20.6716 23.3284 20 22.5 20H5.5ZM14 2C17.866 2 21 5.13402 21 9C21 12.866 17.866 16 14 16C10.134 16 7.00001 12.866 7 9C7 5.13402 10.134 2 14 2ZM27.3545 2.0918C27.8606 1.87134 28.4502 2.10332 28.6709 2.60938C29.5251 4.56773 30 6.72932 30 9C30 11.2707 29.5251 13.4323 28.6709 15.3906C28.4502 15.8967 27.8606 16.1287 27.3545 15.9082C26.8484 15.6875 26.6165 15.0979 26.8369 14.5918C27.5837 12.8798 28 10.9895 28 9C28 7.01053 27.5837 5.1202 26.8369 3.4082C26.6165 2.90209 26.8484 2.31254 27.3545 2.0918ZM14 4C11.2386 4 9 6.23858 9 9C9.00001 11.7614 11.2386 14 14 14C16.7614 14 19 11.7614 19 9C19 6.23858 16.7614 4 14 4ZM24.1377 4.61133C24.6623 4.43881 25.2279 4.7244 25.4004 5.24902C25.7886 6.42962 26 7.69063 26 9C26 10.3092 25.7884 11.5698 25.4004 12.75C25.2279 13.2746 24.6623 13.5602 24.1377 13.3877C23.6131 13.2152 23.3275 12.6496 23.5 12.125C23.8232 11.1418 24 10.0921 24 9C24 7.90737 23.8233 6.85728 23.5 5.87402C23.3275 5.34939 23.6131 4.78387 24.1377 4.61133Z" fill="#212121"/>
</svg>
