<svg width="32" height="32" viewBox="0 0 32 32" fill="none" xmlns="http://www.w3.org/2000/svg">
<path d="M20 29V28.985C20.0999 28.9949 20.2013 29 20.3038 29C21.769 29 23.0253 27.954 23.2907 26.513L23.9379 23H26.75C28.5449 23 30 21.5449 30 19.75V10.9098C30 9.30278 28.6972 8 27.0902 8C27.06 8 27.03 8.00046 27 8.00138V8H19.2666V6.25C19.2666 4.45507 17.8116 3 16.0166 3H5.25C3.45507 3 2 4.45507 2 6.25V24.5C2 26.9853 4.01472 29 6.5 29H20ZM19.2666 10H24.326C24.2854 10.1238 24.2526 10.2515 24.2285 10.3827L21.3238 26.1507C21.2332 26.6428 20.8042 27 20.3038 27C19.731 27 19.2666 26.5356 19.2666 25.9628V10ZM7 10C6.44772 10 6 9.55228 6 9C6 8.44772 6.44772 8 7 8C7.55228 8 8 8.44772 8 9C8 9.55228 7.55228 10 7 10ZM6 16C6 15.4477 6.44772 15 7 15H14C14.5523 15 15 15.4477 15 16C15 16.5523 14.5523 17 14 17H7C6.44772 17 6 16.5523 6 16ZM7 21H14C14.5523 21 15 21.4477 15 22C15 22.5523 14.5523 23 14 23H7C6.44772 23 6 22.5523 6 22C6 21.4477 6.44772 21 7 21Z" fill="#212121"/>
</svg>
