<svg width="20" height="20" viewBox="0 0 20 20" fill="none" xmlns="http://www.w3.org/2000/svg">
<path d="M5.5 3.5C5.5 3.22386 5.72386 3 6 3H14C14.2761 3 14.5 3.22386 14.5 3.5C14.5 3.77614 14.2761 4 14 4H13.0044V8.68387C13.0044 8.8556 13.0171 9.02653 13.042 9.19533C11.5402 9.60717 10.2951 10.6397 9.59971 12H5.68488L6.57568 10.3466C6.85055 9.83647 6.99444 9.26603 6.99444 8.68653V4H6C5.72386 4 5.5 3.77614 5.5 3.5ZM9 14.5C9 13.98 9.07217 13.4768 9.20703 13H5.1461L4.18161 14.7901C3.6434 15.7891 4.3659 17.0016 5.50156 17.0016H9.60053C9.21659 16.2511 9 15.4009 9 14.5ZM19 14.5C19 16.9853 16.9853 19 14.5 19C12.0147 19 10 16.9853 10 14.5C10 12.0147 12.0147 10 14.5 10C16.9853 10 19 12.0147 19 14.5ZM15.2071 14.5L16.3536 13.3536C16.5488 13.1583 16.5488 12.8417 16.3536 12.6464C16.1583 12.4512 15.8417 12.4512 15.6464 12.6464L14.5 13.7929L13.3536 12.6464C13.1583 12.4512 12.8417 12.4512 12.6464 12.6464C12.4512 12.8417 12.4512 13.1583 12.6464 13.3536L13.7929 14.5L12.6464 15.6464C12.4512 15.8417 12.4512 16.1583 12.6464 16.3536C12.8417 16.5488 13.1583 16.5488 13.3536 16.3536L14.5 15.2071L15.6464 16.3536C15.8417 16.5488 16.1583 16.5488 16.3536 16.3536C16.5488 16.1583 16.5488 15.8417 16.3536 15.6464L15.2071 14.5Z" fill="#212121"/>
</svg>
