<svg width="28" height="28" viewBox="0 0 28 28" fill="none" xmlns="http://www.w3.org/2000/svg">
<path d="M8.99856 10.8182L8.99678 10.8306C8.95314 11.3727 8.48295 11.782 7.93792 11.7481C7.3867 11.7138 6.96766 11.2391 7.00196 10.6879C7 11 7.00205 10.6866 7.00205 10.6866L7.00213 10.6852L7.00232 10.6824L7.00276 10.6761L7.00393 10.6611C7.00485 10.6502 7.00606 10.6371 7.00764 10.6221C7.01081 10.5922 7.01551 10.5545 7.02246 10.5099C7.0363 10.4212 7.05935 10.3038 7.09778 10.167C7.17402 9.89567 7.31522 9.53263 7.57827 9.16651C8.13946 8.38544 9.13993 7.75 10.7495 7.75C12.0942 7.75 13.3033 8.2023 14.1132 9.11925C14.9298 10.0438 15.2201 11.3046 14.9856 12.6693C14.7835 13.8458 14.1199 14.5656 13.3376 15.0371C12.8086 15.3559 12.1535 15.5931 11.6058 15.7915C11.441 15.8511 11.2857 15.9074 11.1467 15.9612C10.465 16.225 9.9624 16.4902 9.61181 16.8934C9.39951 17.1376 9.20397 17.479 9.09359 18H14C14.5523 18 15 18.4477 15 19C15 19.5523 14.5523 20 14 20H8.00003C7.73482 20 7.48046 19.8946 7.29293 19.7071C7.10539 19.5196 7.00003 19.2652 7.00003 19C7.00003 17.5038 7.39242 16.3979 8.10252 15.5812C8.78764 14.7932 9.67788 14.3851 10.4247 14.096C10.6657 14.0027 10.8842 13.9234 11.085 13.8505C11.5739 13.673 11.9578 13.5336 12.3053 13.3241C12.7015 13.0853 12.9309 12.8173 13.0145 12.3307C13.1666 11.4454 12.9568 10.8312 12.6142 10.4433C12.2648 10.0477 11.6554 9.75 10.7495 9.75C9.73407 9.75 9.35981 10.1146 9.20251 10.3335C9.10632 10.4674 9.05235 10.6043 9.02322 10.708C9.00896 10.7587 9.00178 10.7976 8.99856 10.8182ZM17.7071 14.2929C17.3166 13.9024 16.6834 13.9024 16.2929 14.2929C15.9024 14.6834 15.9024 15.3166 16.2929 15.7071L17.5858 17L16.2929 18.2929C15.9024 18.6834 15.9024 19.3166 16.2929 19.7071C16.6834 20.0976 17.3166 20.0976 17.7071 19.7071L19 18.4142L20.2929 19.7071C20.6834 20.0976 21.3166 20.0976 21.7071 19.7071C22.0976 19.3166 22.0976 18.6834 21.7071 18.2929L20.4142 17L21.7071 15.7071C22.0976 15.3166 22.0976 14.6834 21.7071 14.2929C21.3166 13.9024 20.6834 13.9024 20.2929 14.2929L19 15.5858L17.7071 14.2929Z" fill="#212121"/>
</svg>
