<svg width="20" height="20" viewBox="0 0 20 20" fill="none" xmlns="http://www.w3.org/2000/svg">
<path d="M2 4.5C2 4.22386 2.22386 4 2.5 4H5.5C5.77614 4 6 4.22386 6 4.5C6 4.77614 5.77614 5 5.5 5H2.5C2.22386 5 2 4.77614 2 4.5ZM8 4.5C8 4.22386 8.22386 4 8.5 4H11.5C11.7761 4 12 4.22386 12 4.5C12 4.77614 11.7761 5 11.5 5H8.5C8.22386 5 8 4.77614 8 4.5ZM14 4.5C14 4.22386 14.2239 4 14.5 4H17.5C17.7761 4 18 4.22386 18 4.5C18 4.77614 17.7761 5 17.5 5H14.5C14.2239 5 14 4.77614 14 4.5ZM2 9.5C2 9.22386 2.22386 9 2.5 9H17.5C17.7761 9 18 9.22386 18 9.5C18 9.77614 17.7761 10 17.5 10H2.5C2.22386 10 2 9.77614 2 9.5ZM3 14C2.44772 14 2 14.4477 2 15C2 15.5523 2.44772 16 3 16H17C17.5523 16 18 15.5523 18 15C18 14.4477 17.5523 14 17 14H3Z" fill="#212121"/>
</svg>
