<svg width="20" height="20" viewBox="0 0 20 20" fill="none" xmlns="http://www.w3.org/2000/svg">
<path d="M2.99609 5.5C2.99609 4.11929 4.11538 3 5.49609 3H14.4961C15.8768 3 16.9961 4.11929 16.9961 5.5V14.5C16.9961 15.8807 15.8768 17 14.4961 17H10.4003C10.5622 16.6832 10.6944 16.3486 10.793 16H14.4961C15.3245 16 15.9961 15.3284 15.9961 14.5V7H9.49609C8.66767 7 7.99609 6.32843 7.99609 5.5V4H5.49609C4.66767 4 3.99609 4.67157 3.99609 5.5V9.20814C3.64743 9.30703 3.31286 9.43946 2.99609 9.60171V5.5ZM15.9961 6V5.5C15.9961 4.67157 15.3245 4 14.4961 4H8.99609V5.5C8.99609 5.77614 9.21995 6 9.49609 6H15.9961Z" fill="#212121"/>
<path d="M10 14.5C10 16.9853 7.98528 19 5.5 19C3.01472 19 1 16.9853 1 14.5C1 12.0147 3.01472 10 5.5 10C7.98528 10 10 12.0147 10 14.5ZM3.14684 14.146L3.14433 14.1486C3.09744 14.196 3.06198 14.2505 3.03794 14.3086C3.01385 14.3667 3.0004 14.4303 3.00001 14.497L3 14.5L3.00001 14.503C3.0004 14.5697 3.01385 14.6333 3.03794 14.6914C3.06234 14.7504 3.09851 14.8056 3.14645 14.8536L5.14645 16.8536C5.34171 17.0488 5.65829 17.0488 5.85355 16.8536C6.04882 16.6583 6.04882 16.3417 5.85355 16.1464L4.70711 15H7.5C7.77614 15 8 14.7761 8 14.5C8 14.2239 7.77614 14 7.5 14H4.70711L5.85355 12.8536C6.04882 12.6583 6.04882 12.3417 5.85355 12.1464C5.65829 11.9512 5.34171 11.9512 5.14645 12.1464L3.14684 14.146Z" fill="#212121"/>
</svg>
