<svg width="20" height="20" viewBox="0 0 20 20" fill="none" xmlns="http://www.w3.org/2000/svg">
<path d="M2.14651 2.14651C2.34177 1.95125 2.65828 1.95125 2.85354 2.14651L17.8536 17.1465C18.0486 17.3418 18.0487 17.6584 17.8536 17.8536C17.6584 18.0487 17.3418 18.0486 17.1465 17.8536L11.793 12.5H10.3467L8.9678 16.1758C8.89528 16.3689 8.71114 16.4977 8.50491 16.5C8.29872 16.5021 8.11281 16.377 8.03616 16.1856L6.96097 13.5H4.03811L2.96389 16.1856C2.86138 16.4419 2.57079 16.5662 2.31448 16.4639C2.05808 16.3614 1.9336 16.0709 2.03616 15.8145L3.23147 12.8252C3.23415 12.8181 3.23726 12.8108 3.24026 12.8037L5.03616 8.31448C5.11211 8.1247 5.29561 8.00003 5.50003 8.00003C5.70434 8.00017 5.88801 8.12476 5.9639 8.31448L7.7598 12.8037C7.76279 12.8107 7.76591 12.8181 7.76858 12.8252L8.48441 14.6162L9.52738 11.835C9.5299 11.8278 9.53333 11.8206 9.53617 11.8135L9.96292 10.67L2.14651 2.85354C1.95125 2.65828 1.95125 2.34177 2.14651 2.14651ZM13 3.50003C13.2082 3.50017 13.3946 3.62936 13.4678 3.82424L16.4639 11.8135C16.4667 11.8205 16.4692 11.8279 16.4717 11.835L17.9678 15.8243C17.9714 15.834 17.9726 15.8448 17.9756 15.8545L16.2715 14.1504L15.6534 12.5H14.6211L13.6211 11.5H15.2784L13 5.42386L11.5118 9.39066L10.7354 8.61429L12.5313 3.82424C12.6045 3.62914 12.7916 3.50003 13 3.50003ZM4.4385 12.5H6.56155L5.50003 9.84671L4.4385 12.5Z" fill="#212121"/>
</svg>
