<svg width="16" height="16" viewBox="0 0 16 16" fill="none" xmlns="http://www.w3.org/2000/svg">
<path d="M7.22236 1.66676C7.62261 1.17163 8.37749 1.17163 8.77774 1.66676L9.69084 2.79634L11.0935 2.4192C11.7083 2.25389 12.3191 2.6976 12.3518 3.33342L12.4266 4.78398L13.7831 5.30333C14.3776 5.53099 14.6109 6.24892 14.2637 6.78258L13.4716 8.00006L14.2637 9.21753C14.6109 9.75119 14.3776 10.4691 13.7831 10.6968L12.4266 11.2161L12.3518 12.6667C12.3191 13.3025 11.7083 13.7462 11.0935 13.5809L9.69084 13.2038L8.77774 14.3334C8.37749 14.8285 7.62261 14.8285 7.22236 14.3334L6.30926 13.2038L4.90659 13.5809C4.29176 13.7462 3.68104 13.3025 3.64827 12.6667L3.5735 11.2161L2.21705 10.6968C1.62246 10.4691 1.38919 9.75119 1.73641 9.21753L2.52853 8.00006L1.73641 6.78258C1.38919 6.24893 1.62246 5.53099 2.21704 5.30333L3.5735 4.78398L3.64827 3.33343C3.68104 2.6976 4.29176 2.25389 4.90659 2.4192L6.30926 2.79634L7.22236 1.66676ZM10.1203 6.16401L7.24953 9.04245L5.85355 7.64648L5.78431 7.58862C5.58944 7.45362 5.32001 7.47291 5.14645 7.64648C4.95118 7.84174 4.95118 8.15832 5.14645 8.35358L6.89645 10.1036L6.96576 10.1615C7.16082 10.2966 7.43053 10.2771 7.60403 10.1031L10.8283 6.87017L10.8861 6.80084C11.0208 6.6058 11.0012 6.3364 10.8274 6.16306C10.6319 5.96806 10.3153 5.96849 10.1203 6.16401ZM3.5735 4.78398L3.75228 5.25092L3.5735 4.78398Z" fill="#212121"/>
</svg>
