<svg width="28" height="28" viewBox="0 0 28 28" fill="none" xmlns="http://www.w3.org/2000/svg">
<path d="M15.7217 2.40331C17.7717 1.36472 20.2653 2.39807 20.9805 4.58202L21.2266 5.33299C21.4496 6.01392 21.9841 6.5475 22.665 6.77049L23.416 7.01658C25.5998 7.73184 26.6323 10.2255 25.5938 12.2754L25.2363 12.9804C24.9127 13.6195 24.9128 14.3746 25.2363 15.0136L25.5938 15.7187C26.6323 17.7686 25.5998 20.2622 23.416 20.9775L22.665 21.2236C21.984 21.4466 21.4496 21.9811 21.2266 22.6621L20.9805 23.4131C20.2652 25.5968 17.7716 26.6293 15.7217 25.5908L15.0166 25.2334C14.3776 24.9098 13.6224 24.9097 12.9834 25.2334L12.2783 25.5908C10.2284 26.6293 7.7348 25.5969 7.01954 23.4131L6.77345 22.6621C6.55046 21.9811 6.01688 21.4466 5.33595 21.2236L4.58498 20.9775C2.40103 20.2623 1.36768 17.7687 2.40627 15.7187L2.76369 15.0136C3.08735 14.3745 3.08746 13.6195 2.76369 12.9804L2.40627 12.2754C1.36777 10.2254 2.40107 7.73174 4.58498 7.01658L5.33595 6.77049C6.01673 6.54746 6.55042 6.01377 6.77345 5.33299L7.01954 4.58202C7.7347 2.3981 10.2284 1.36481 12.2783 2.40331L12.9834 2.76073C13.6225 3.0845 14.3775 3.08439 15.0166 2.76073L15.7217 2.40331ZM19.5547 5.04881C19.1257 3.73862 17.6303 3.11847 16.4004 3.7412L15.6953 4.09862C14.63 4.63836 13.371 4.63832 12.3057 4.09862L11.6006 3.7412C10.3706 3.11808 8.87442 3.73846 8.44532 5.04881L8.19923 5.79979C7.82754 6.93464 6.9376 7.82458 5.80275 8.19627L5.05177 8.44236C3.74142 8.87146 3.12104 10.3677 3.74416 11.5976L4.10158 12.3027C4.64127 13.3681 4.64132 14.627 4.10158 15.6924L3.74416 16.3974C3.12143 17.6273 3.74159 19.1227 5.05177 19.5517L5.80275 19.7978C6.93772 20.1695 7.82757 21.0603 8.19923 22.1953L8.44532 22.9463C8.87455 24.2564 10.3707 24.876 11.6006 24.2529L12.3057 23.8955C13.371 23.3559 14.63 23.3558 15.6953 23.8955L16.4004 24.2529C17.6302 24.8757 19.1255 24.2562 19.5547 22.9463L19.8008 22.1953C20.1725 21.0603 21.0632 20.1695 22.1982 19.7978L22.9492 19.5517C24.2592 19.1225 24.8787 17.6272 24.2559 16.3974L23.8984 15.6924C23.3587 14.6271 23.3588 13.368 23.8984 12.3027L24.2559 11.5976C24.879 10.3677 24.2594 8.87159 22.9492 8.44236L22.1982 8.19627C21.0633 7.82461 20.1725 6.93476 19.8008 5.79979L19.5547 5.04881ZM18.4697 10.2197C18.7626 9.92684 19.2374 9.92689 19.5303 10.2197C19.8232 10.5126 19.8232 10.9874 19.5303 11.2803L13.0303 17.7802C12.7374 18.0731 12.2626 18.0731 11.9697 17.7802L8.46974 14.2803C8.17692 13.9874 8.17687 13.5126 8.46974 13.2197C8.76261 12.9268 9.23739 12.9269 9.53029 13.2197L12.5 16.1894L18.4697 10.2197Z" fill="#212121"/>
</svg>
