<svg width="16" height="16" viewBox="0 0 16 16" fill="none" xmlns="http://www.w3.org/2000/svg">
<path d="M11.3352 2.06447L11.4116 2.21703L11.9881 3.75001C12.0333 3.87074 12.1286 3.96599 12.2493 4.01128L13.7294 4.56656C14.3789 4.81023 14.7279 5.50427 14.5549 6.16092L14.5132 6.29161L13.8246 7.81443C13.7713 7.93182 13.7713 8.06654 13.8246 8.18393L14.4786 9.62313C14.7655 10.2547 14.5216 10.9923 13.9349 11.3342L13.7823 11.4106L12.2493 11.9871C12.1286 12.0324 12.0333 12.1276 11.9881 12.2483L11.4328 13.7284C11.1891 14.3779 10.4951 14.7269 9.83842 14.5539L9.70773 14.5122L8.1849 13.8237C8.06751 13.7703 7.9328 13.7703 7.81541 13.8237L6.3762 14.4776C5.74463 14.7646 5.00708 14.5206 4.66513 13.9339L4.58871 13.7813L4.01226 12.2483C3.96697 12.1276 3.87171 12.0324 3.75099 11.9871L2.27092 11.4318C1.62141 11.1881 1.27239 10.4941 1.44546 9.83744L1.48711 9.70675L2.17567 8.18393C2.22901 8.06654 2.22901 7.93182 2.17567 7.81443L1.52174 6.37523C1.23477 5.74366 1.47874 5.0061 2.06544 4.66416L2.21801 4.58774L3.75099 4.01128C3.87171 3.96599 3.96697 3.87074 4.01226 3.75001L4.56753 2.26994C4.81121 1.62044 5.50524 1.27141 6.1619 1.44449L6.29259 1.48613L7.81541 2.1747C7.9328 2.22803 8.06751 2.22803 8.1849 2.1747L9.62411 1.52076C10.2557 1.2338 10.9932 1.47776 11.3352 2.06447ZM10.1641 5.70509L6.9784 9.34584L5.81595 8.18338C5.64154 8.00898 5.35877 8.00898 5.18436 8.18338C5.00995 8.35779 5.00995 8.64057 5.18436 8.81498L6.68436 10.315C6.86704 10.4977 7.16614 10.4877 7.33626 10.2933L10.8363 6.29327C10.9987 6.10765 10.9799 5.8255 10.7942 5.66308C10.6086 5.50066 10.3265 5.51947 10.1641 5.70509Z" fill="#212121"/>
</svg>
