<svg width="16" height="16" viewBox="0 0 16 16" fill="none" xmlns="http://www.w3.org/2000/svg">
<path d="M4.1014 2.24804C4.52292 1.20817 5.71836 0.718908 6.74793 1.16502L7.63466 1.54979C7.88527 1.65828 8.1693 1.65915 8.42081 1.55272L9.31047 1.17674C10.3438 0.739421 11.5346 1.23872 11.9472 2.28222L12.3027 3.18067C12.4032 3.43462 12.6033 3.63668 12.8564 3.73927L13.7519 4.10157C14.7919 4.52305 15.2811 5.71848 14.835 6.74809L14.4512 7.63481C14.3426 7.88543 14.3409 8.16941 14.4473 8.42095L14.8242 9.31061C15.2615 10.3439 14.7621 11.5347 13.7187 11.9474L12.8203 12.3028C12.5663 12.4033 12.3643 12.6034 12.2617 12.8565L11.8984 13.7521C11.477 14.7919 10.2824 15.2809 9.25285 14.8351L8.36612 14.4513C8.11543 14.3427 7.8306 14.3409 7.579 14.4474L6.68933 14.8243C5.65602 15.2615 4.46517 14.7622 4.05257 13.7189L3.6971 12.8204C3.59665 12.5663 3.39658 12.3644 3.14338 12.2618L2.24786 11.8985C1.20825 11.477 0.71911 10.2824 1.16483 9.25299L1.54961 8.36627C1.65823 8.11558 1.65901 7.83075 1.55254 7.57915L1.17655 6.68949C0.739233 5.65612 1.23853 4.46532 2.28204 4.05274L3.18049 3.69727C3.43439 3.59677 3.63652 3.39664 3.73909 3.14356L4.1014 2.24804ZM6.35046 2.08202C5.83578 1.85908 5.23803 2.10331 5.0272 2.62304L4.66489 3.51856C4.45965 4.02496 4.05581 4.42606 3.54768 4.62697L2.64923 4.98147C2.12756 5.18772 1.87801 5.78321 2.09649 6.29984L2.47247 7.19047C2.68532 7.69358 2.68278 8.26149 2.46564 8.76275L2.08184 9.64948C1.85884 10.1641 2.10318 10.7618 2.62286 10.9727L3.51839 11.336C4.0248 11.5413 4.42589 11.9451 4.6268 12.4532L4.9813 13.3517C5.18756 13.8732 5.78312 14.1227 6.29968 13.9044L7.19032 13.5275C7.69334 13.3147 8.26142 13.3172 8.76261 13.5343L9.64934 13.9181C10.1641 14.1411 10.7618 13.897 10.9726 13.3771L11.3359 12.4815C11.5411 11.9752 11.945 11.575 12.4531 11.3741L13.3515 11.0186C13.8731 10.8123 14.1228 10.2169 13.9043 9.70026L13.5273 8.81061C13.3144 8.30739 13.3169 7.73872 13.5342 7.23735L13.918 6.35062C14.141 5.83582 13.8969 5.2381 13.3769 5.02736L12.4814 4.66506C11.9751 4.45985 11.5749 4.05589 11.374 3.54786L11.0185 2.64941C10.8122 2.12766 10.2168 1.87801 9.70012 2.09667L8.81046 2.47265C8.30725 2.68561 7.73857 2.68306 7.23719 2.46581L6.35046 2.08202ZM10.1464 6.14652C10.3416 5.95132 10.6582 5.95145 10.8535 6.14652C11.0487 6.34178 11.0487 6.65829 10.8535 6.85356L7.60341 10.1036C7.40815 10.2989 7.09163 10.2989 6.89637 10.1036L5.14634 8.35357C4.95127 8.15829 4.95114 7.84173 5.14634 7.64653C5.34154 7.45133 5.6581 7.45146 5.85338 7.64653L7.24989 9.04303L10.1464 6.14652Z" fill="#212121"/>
</svg>
