<svg width="16" height="16" viewBox="0 0 16 16" fill="none" xmlns="http://www.w3.org/2000/svg">
<path d="M4.10155 2.24996C4.52294 1.21031 5.71769 0.721182 6.74707 1.16695L7.63379 1.55172C7.88427 1.66015 8.16852 1.66094 8.41992 1.55465L9.30957 1.17769C10.3427 0.740478 11.5336 1.24004 11.9463 2.28317L12.3018 3.18161C12.4022 3.43554 12.6024 3.63755 12.8555 3.7402L13.751 4.10348C14.7905 4.52506 15.279 5.71967 14.833 6.749L14.4492 7.63572C14.3407 7.88625 14.34 8.17041 14.4463 8.42186L14.8223 9.31151C15.2595 10.3448 14.7602 11.5357 13.7168 11.9482L12.8184 12.3037C12.5646 12.4042 12.3623 12.6044 12.2598 12.8574L11.8975 13.7529C11.476 14.7924 10.2813 15.2808 9.25195 14.835L8.36523 14.4512C8.11465 14.3427 7.82959 14.3408 7.57812 14.4473L6.68847 14.8242C5.65532 15.2612 4.4652 14.762 4.05273 13.7188L3.69726 12.8203C3.59677 12.5664 3.39659 12.3643 3.14355 12.2617L2.24804 11.8994C1.20843 11.4779 0.718995 10.2823 1.16503 9.25292L1.54979 8.36717C1.65839 8.11652 1.65918 7.83162 1.55272 7.58006L1.17577 6.69041C0.739035 5.65748 1.23844 4.46731 2.28124 4.05466L3.17968 3.69919C3.43363 3.59878 3.63563 3.39853 3.73827 3.14547L4.10155 2.24996ZM10.8535 6.14646C10.6582 5.95155 10.3416 5.95131 10.1465 6.14646L7.25 9.04295L5.85351 7.64647C5.65822 7.45155 5.34162 7.45132 5.14648 7.64647C4.95139 7.84162 4.95159 8.15823 5.14648 8.3535L6.89648 10.1035C7.09172 10.2987 7.40825 10.2987 7.60351 10.1035L10.8535 6.85349C11.0488 6.65823 11.0488 6.34172 10.8535 6.14646Z" fill="#212121"/>
</svg>
