<?xml version="1.0" encoding="UTF-8"?>
<svg width="24px" height="24px" viewBox="0 0 24 24" version="1.1" xmlns="http://www.w3.org/2000/svg" xmlns:xlink="http://www.w3.org/1999/xlink">
    <!-- Generator: Sketch 59.1 (86144) - https://sketch.com -->
    <title>ic_folder_link_24_regular</title>
    <desc>Created with Sketch.</desc>
    <g id="ðŸ”-Product-Icons" stroke="none" stroke-width="1" fill="none" fill-rule="evenodd">
        <g id="ic_folder_link_24_regular" fill="#212121" fill-rule="nonzero">
            <path d="M8.20404146,3.00005249 C8.6658677,2.99933917 9.11507892,3.14062442 9.49176695,3.40235589 L9.64858982,3.52183773 L12.0215959,5.49989737 L19.75,5.49989737 C20.940864,5.49989737 21.9156449,6.42505896 21.9948092,7.59584856 L22,7.74989737 L21.9965394,13.250002 C21.9955832,13.664494 21.6593023,14 21.2448092,14 C20.8659883,14 20.5529162,13.7184963 20.5033682,13.3532642 L20.4965394,13.250002 L20.5,7.74989737 C20.5,7.3702016 20.2178461,7.05640641 19.8517706,7.00674399 L19.75,6.99989737 L12.073,6.99912371 L9.6374719,8.99206493 C9.28571606,9.27990205 8.85629735,9.45348659 8.40645208,9.49238527 L8.21257751,9.50075049 L3.499,9.50012371 L3.5,16.7488333 C3.50018379,17.1287172 3.7824855,17.442736 4.14846286,17.4926741 L4.25020038,17.4995972 L6.24919031,17.499597 C6.62888612,17.499597 6.94268136,17.7817509 6.99234381,18.1478265 L6.99919043,18.2495971 C6.99919043,18.6638107 6.66340394,18.9995972 6.24919031,18.9995972 L4.24943648,18.9995972 C3.05906945,18.9987027 2.08490278,18.0738502 2.00525958,16.9032247 L2,16.7491963 L2,5.25698881 C2,4.06758231 2.92298278,3.09344171 4.0922506,3.01243722 L4.24610488,3.00699218 L8.20404146,3.00005249 Z M8.2066382,4.50013473 L4.24870163,4.50698993 C3.86947114,4.50764644 3.55637913,4.78967827 3.50683068,5.15533845 L3.49999991,5.25698881 L3.499,8.00012371 L8.21257751,8.00075049 C8.35109587,8.00075049 8.4862009,7.96240834 8.60331132,7.89092953 L8.68754231,7.83118864 L10.599,6.26612371 L8.68815432,4.67403722 C8.58004172,4.58391811 8.4493366,4.5264992 8.31130095,4.50729063 L8.2066382,4.50013473 Z M18.25,14.5 C20.3210678,14.5 21.9999839,16.1789322 21.9999839,18.25 C21.9999839,20.2542592 20.4276389,21.8912737 18.4522792,21.994802 L18.2534432,22 L17.2534432,22.0046071 C16.839234,22.0064847 16.5019095,21.6722434 16.4999839,21.2580342 C16.4982641,20.8783424 16.778975,20.5632552 17.1448187,20.5119127 L17.2465568,20.5045989 L18.25,20.5 C19.4926407,20.5 20.4999839,19.4926407 20.4999839,18.25 C20.4999839,17.059136 19.5748384,16.0843551 18.4040488,16.0051908 L18.25,16 L17.25,16 C16.8357864,16 16.4999839,15.6642136 16.4999839,15.25 C16.4999839,14.8703042 16.7821539,14.556509 17.1482294,14.5068466 L17.25,14.5 L18.25,14.5 Z M13.25,14.5 C13.6642136,14.5 14,14.8357864 14,15.25 C14,15.6296958 13.7178461,15.943491 13.3517706,15.9931534 L13.25,16 L12.25,16 C11.0073593,16 10,17.0073593 10,18.25 C10,19.440864 10.9251616,20.4156449 12.0959512,20.4948092 L12.25,20.5 L13.25,20.5 C13.6642136,20.5 14,20.8357864 14,21.25 C14,21.6296958 13.7178461,21.943491 13.3517706,21.9931534 L13.25,22 L12.25,22 C10.1789322,22 8.5,20.3210678 8.5,18.25 C8.5,16.2457408 10.0723611,14.6087263 12.0508414,14.505198 L12.25,14.5 L13.25,14.5 Z M18.25,17.5 C18.6642136,17.5 19,17.8357864 19,18.25 C19,18.6296958 18.7178461,18.943491 18.3517706,18.9931534 L18.25,19 L12.25,19 C11.8357864,19 11.5,18.6642136 11.5,18.25 C11.5,17.8703042 11.7821539,17.556509 12.1482294,17.5068466 L12.25,17.5 L18.25,17.5 Z" id="ðŸŽ¨Color"></path>
        </g>
    </g>
</svg>