<?xml version="1.0" encoding="UTF-8"?>
<svg width="24px" height="24px" viewBox="0 0 24 24" version="1.1" xmlns="http://www.w3.org/2000/svg" xmlns:xlink="http://www.w3.org/1999/xlink">
    <!-- Generator: Sketch 64 (93537) - https://sketch.com -->
    <title>ic_fluent_text_first_line_24_filled</title>
    <desc>Created with Sketch.</desc>
    <g id="ðŸ”-System-Icons" stroke="none" stroke-width="1" fill="none" fill-rule="evenodd">
        <g id="ic_fluent_text_first_line_24_filled" fill="#212121" fill-rule="nonzero">
            <path d="M21,17 C21.5523,17 22,17.4477 22,18 C22,18.51285 21.613973,18.9355092 21.1166239,18.9932725 L21,19 L3,19 C2.44772,19 2,18.5523 2,18 C2,17.48715 2.38604429,17.0644908 2.88337975,17.0067275 L3,17 L21,17 Z M21,11 C21.5523,11 22,11.4477 22,12 C22,12.5523 21.5523,13 21,13 L3,13 C2.44772,13 2,12.5523 2,12 C2,11.4477 2.44772,11 3,11 L21,11 Z M2.29289,3.29289 C2.65337923,2.93241 3.22060645,2.90468077 3.61290152,3.20970231 L3.70711,3.29289 L5.70711,5.29289 C6.06759,5.65337923 6.09531923,6.22060645 5.79029769,6.61290152 L5.70711,6.70711 L3.70711,8.70711 C3.31658,9.09763 2.68342,9.09763 2.29289,8.70711 C1.93241,8.34662077 1.90468077,7.77939355 2.20970231,7.38709848 L2.29289,7.29289 L3.58579,6 L2.29289,4.70711 C1.90237,4.31658 1.90237,3.68342 2.29289,3.29289 Z M21,5 C21.5523,5 22,5.44772 22,6 C22,6.51283143 21.613973,6.93550653 21.1166239,6.9932722 L21,7 L10,7 C9.44772,7 9,6.55228 9,6 C9,5.48716857 9.38604429,5.06449347 9.88337975,5.0067278 L10,5 L21,5 Z" id="ðŸŽ¨-Color"></path>
        </g>
    </g>
</svg>