<?xml version="1.0" encoding="UTF-8"?>
<svg width="24px" height="24px" viewBox="0 0 24 24" version="1.1" xmlns="http://www.w3.org/2000/svg" xmlns:xlink="http://www.w3.org/1999/xlink">
    <!-- Generator: Sketch 64 (93537) - https://sketch.com -->
    <title>ic_fluent_text_first_line_24_regular</title>
    <desc>Created with Sketch.</desc>
    <g id="ðŸ”-System-Icons" stroke="none" stroke-width="1" fill="none" fill-rule="evenodd">
        <g id="ic_fluent_text_first_line_24_regular" fill="#212121" fill-rule="nonzero">
            <path d="M21.25,18 C21.6642,18 22,18.3358 22,18.75 C22,19.1296833 21.7178347,19.4434889 21.3517677,19.4931531 L21.25,19.5 L2.75,19.5 C2.33579,19.5 2,19.1642 2,18.75 C2,18.3703167 2.28215688,18.0565111 2.64823019,18.0068469 L2.75,18 L21.25,18 Z M21.25,11.5 C21.6642,11.5 22,11.8358 22,12.25 C22,12.6642 21.6642,13 21.25,13 L2.75,13 C2.33579,13 2,12.6642 2,12.25 C2,11.8358 2.33579,11.5 2.75,11.5 L21.25,11.5 Z M2.71967,3.21967 C2.98593364,2.95340636 3.40260223,2.92920058 3.69621222,3.14705264 L3.78033,3.21967 L5.78033,5.21967 C6.04659364,5.48593364 6.07079942,5.90260223 5.85294736,6.19621222 L5.78033,6.28033 L3.78033,8.28033 C3.48744,8.57322 3.01256,8.57322 2.71967,8.28033 C2.45340636,8.01406636 2.42920058,7.59739777 2.64705264,7.30378778 L2.71967,7.21967 L4.18934,5.75 L2.71967,4.28033 C2.42678,3.98744 2.42678,3.51256 2.71967,3.21967 Z M21.25,5 C21.6642,5 22,5.33579 22,5.75 C22,6.1296925 21.7178347,6.44349042 21.3517677,6.49315332 L21.25,6.5 L9.75,6.5 C9.33579,6.5 9,6.16421 9,5.75 C9,5.3703075 9.28215687,5.05650958 9.64823019,5.00684668 L9.75,5 L21.25,5 Z" id="ðŸŽ¨-Color"></path>
        </g>
    </g>
</svg>