<svg width="24" height="24" viewBox="0 0 24 24" fill="none" xmlns="http://www.w3.org/2000/svg">
<path d="M18.2491 3C17.0069 3 16 4.00695 16 5.24908V11.1735C16.481 11.06 16.9826 11 17.4982 11H17.5V5.24908C17.5 4.83538 17.8354 4.5 18.2491 4.5C18.6628 4.5 18.9982 4.83538 18.9982 5.24908V11.1735C19.5259 11.298 20.0288 11.4868 20.4982 11.7313V5.24908C20.4982 4.00695 19.4912 3 18.2491 3ZM13.9982 9.24908V12.0218C13.4323 12.3841 12.9262 12.8317 12.4982 13.3464V9.24908C12.4982 8.83537 12.1628 8.5 11.7491 8.5C11.3354 8.5 11 8.83537 11 9.24908V17.344C10.9988 17.3959 10.9982 17.4479 10.9982 17.5C10.9982 17.5521 10.9988 17.6041 11 17.656V18.7509C11 18.9751 11.0985 19.1763 11.2545 19.3136C11.4276 19.9106 11.6841 20.4722 12.0104 20.985C11.9247 20.9949 11.8375 21 11.7491 21C10.5069 21 9.5 19.9931 9.5 18.7509V9.24908C9.5 8.00695 10.5069 7 11.7491 7C12.9912 7 13.9982 8.00695 13.9982 9.24908ZM3 13.2491C3 12.0069 4.00695 11 5.24908 11C6.49122 11 7.49817 12.0069 7.49817 13.2491V18.7509C7.49817 19.9931 6.49122 21 5.24908 21C4.00695 21 3 19.9931 3 18.7509V13.2491ZM5.99817 13.2491C5.99817 12.8354 5.66279 12.5 5.24908 12.5C4.83538 12.5 4.5 12.8354 4.5 13.2491V18.7509C4.5 19.1646 4.83538 19.5 5.24908 19.5C5.66279 19.5 5.99817 19.1646 5.99817 18.7509V13.2491ZM23 17.5C23 14.4624 20.5376 12 17.5 12C14.4624 12 12 14.4624 12 17.5C12 20.5376 14.4624 23 17.5 23C20.5376 23 23 20.5376 23 17.5ZM18.0006 18L18.0011 20.5035C18.0011 20.7797 17.7773 21.0035 17.5011 21.0035C17.225 21.0035 17.0011 20.7797 17.0011 20.5035L17.0006 18H14.4956C14.2197 18 13.9961 17.7762 13.9961 17.5C13.9961 17.2239 14.2197 17 14.4956 17H17.0005L17 14.4993C17 14.2231 17.2239 13.9993 17.5 13.9993C17.7761 13.9993 18 14.2231 18 14.4993L18.0005 17H20.4966C20.7725 17 20.9961 17.2239 20.9961 17.5C20.9961 17.7762 20.7725 18 20.4966 18H18.0006Z" fill="#212121"/>
</svg>
