<svg width="20" height="20" viewBox="0 0 20 20" fill="none" xmlns="http://www.w3.org/2000/svg">
<path d="M10 18C5.58172 18 2 14.4183 2 10C2 5.58172 5.58172 2 10 2C14.4183 2 18 5.58172 18 10C18 14.4183 14.4183 18 10 18ZM8.14645 13.1464C7.95118 13.3417 7.95118 13.6583 8.14645 13.8536C8.34171 14.0488 8.65829 14.0488 8.85355 13.8536L12.3536 10.3536C12.4473 10.2598 12.5 10.1326 12.5 10C12.5 9.86739 12.4473 9.74022 12.3536 9.64645L8.85355 6.14645C8.65829 5.95118 8.34171 5.95118 8.14645 6.14645C7.95118 6.34171 7.95118 6.65829 8.14645 6.85355L11.2929 10L8.14645 13.1464Z" fill="#212121"/>
</svg>
