<svg width="24" height="24" viewBox="0 0 24 24" fill="none" xmlns="http://www.w3.org/2000/svg">
<path d="M6.93514 4.43963C7.21647 4.15815 7.59813 4 7.99609 4H12.3795C15.0161 4 16.9995 6.18211 16.9995 8.62541C16.9995 9.60205 16.6828 10.5367 16.1341 11.307C17.211 12.134 17.9995 13.4274 17.9995 15.12C17.9995 18.2315 15.301 20 13.1195 20H7.99951C7.17108 20 6.49951 19.3284 6.49951 18.5L6.49609 5.50082C6.49588 5.10285 6.65382 4.72111 6.93514 4.43963ZM9.49869 10.2499H12.3795C13.2824 10.2499 13.9995 9.49051 13.9995 8.62541C13.9995 7.76 13.2814 7 12.3795 7H9.49691L9.49869 10.2499ZM9.49951 13.2499V17H13.1195C13.9927 17 14.9995 16.2464 14.9995 15.12C14.9995 13.9901 14.0248 13.2499 13.1195 13.2499H9.49951Z" fill="#212121"/>
</svg>
