<svg width="16" height="16" viewBox="0 0 16 16" fill="none" xmlns="http://www.w3.org/2000/svg">
<path d="M4.50013 1C4.70014 1 4.88091 1.1192 4.9597 1.30304L7.84443 8.03407L7.09096 8.78754C7.07144 8.75971 7.05448 8.72945 7.04056 8.69696L6.31329 7H2.68697L1.9597 8.69696C1.85092 8.95077 1.55698 9.06835 1.30317 8.95957C1.04935 8.85079 0.931778 8.55686 1.04056 8.30304L4.04056 1.30304C4.11935 1.1192 4.30011 1 4.50013 1ZM5.88472 6L4.50013 2.7693L3.11554 6H5.88472ZM14.3118 6.19062C14.3143 6.12693 14.3156 6.06241 14.3156 5.99707C14.3156 4.17627 13.3595 3 11.8878 3C11.0929 3 10.3893 3.39209 10.0724 4.01514H10.0001V1.5C10.0001 1.22386 9.77627 1 9.50013 1C9.22399 1 9.00013 1.22386 9.00013 1.5V6.87837L10.0001 5.87837V5.48435C10.149 4.45151 10.7623 3.83252 11.673 3.83252C12.5257 3.83252 13.0993 4.35921 13.2899 5.27206C13.4601 5.37475 13.6207 5.49953 13.7676 5.64642L14.3118 6.19062ZM13.0605 6.35352C12.4747 5.76774 11.525 5.76774 10.9392 6.35352L6.3534 10.9393C5.76762 11.5251 5.76762 12.4748 6.3534 13.0606L7.93919 14.6464C8.36148 15.0687 8.97293 15.1866 9.50081 15H12.5C12.7761 15 13 14.7761 13 14.5C13 14.2239 12.7761 14 12.5 14H10.7069L14.6463 10.0606C15.2321 9.47484 15.2321 8.5251 14.6463 7.93931L13.0605 6.35352ZM7.99985 10.7071L10.2927 13L9.3534 13.9393C9.15814 14.1346 8.84156 14.1346 8.6463 13.9393L7.06051 12.3535C6.86525 12.1583 6.86525 11.8417 7.06051 11.6464L7.99985 10.7071Z" fill="#212121"/>
</svg>
