<svg width="24" height="24" viewBox="0 0 24 24" fill="none" xmlns="http://www.w3.org/2000/svg">
<path d="M16.2497 3C15.846 3 15.4819 3.24274 15.3267 3.61538L11.5767 12.6154C11.3642 13.1252 11.6053 13.7107 12.1151 13.9231C12.6249 14.1355 13.2104 13.8944 13.4228 13.3846L14.4164 11H18.0831L19.0767 13.3846C19.2891 13.8944 19.8746 14.1355 20.3844 13.9231C20.8942 13.7107 21.1352 13.1252 20.9228 12.6154L17.1728 3.61538C17.0175 3.24274 16.6534 3 16.2497 3ZM16.2497 6.6L17.2497 9H15.2497L16.2497 6.6ZM6.70686 5.29289C6.31634 4.90237 5.68317 4.90237 5.29265 5.29289L3.36578 7.22661C3.14302 7.40943 3.00066 7.68659 2.99976 7.99704L2.99976 8L2.99976 8.00296C3.00066 8.31341 3.14302 8.59058 3.36578 8.77339L5.29265 10.7071C5.68317 11.0976 6.31634 11.0976 6.70686 10.7071C7.09739 10.3166 7.09739 9.68342 6.70686 9.29289L6.41397 9H10.9998C11.552 9 11.9998 8.55228 11.9998 8C11.9998 7.44772 11.552 7 10.9998 7H6.41397L6.70686 6.70711C7.09739 6.31658 7.09739 5.68342 6.70686 5.29289ZM5.29265 14.2929C5.68317 13.9024 6.31634 13.9024 6.70686 14.2929C7.09739 14.6834 7.09739 15.3166 6.70686 15.7071L6.41397 16H19.9998C20.552 16 20.9998 16.4477 20.9998 17C20.9998 17.5523 20.552 18 19.9998 18H6.41397L6.70686 18.2929C7.09739 18.6834 7.09739 19.3166 6.70686 19.7071C6.31634 20.0976 5.68317 20.0976 5.29265 19.7071L3.29265 17.7071C2.90212 17.3166 2.90212 16.6834 3.29265 16.2929L5.29265 14.2929Z" fill="#212121"/>
</svg>
