<svg width="20" height="20" viewBox="0 0 20 20" fill="none" xmlns="http://www.w3.org/2000/svg">
<path d="M14.0872 6.70308C14.9271 5.85998 16.2664 5.81735 17.1568 6.57701L17.2869 6.69697L17.4134 6.83357C18.1376 7.68212 18.1376 8.93671 17.4134 9.78526L17.293 9.91574L10.4167 16.8183C10.2617 16.9739 10.0749 17.0931 9.86988 17.1682L9.71291 17.2161L6.62737 17.9764C6.28827 18.0599 5.98023 17.7813 6.00917 17.4498L6.0236 17.366L6.81558 14.2953C6.86895 14.0883 6.96574 13.8958 7.09885 13.7302L7.20537 13.6112L14.0872 6.70308ZM6.42419 2.22879L6.46607 2.31323L9.448 9.94224L8.676 10.7172L8.004 8.99824H4.007L2.96614 11.678C2.87719 11.9068 2.63835 12.0329 2.40561 11.9879L2.31893 11.9628C2.09015 11.8738 1.96399 11.635 2.00906 11.4023L2.03413 11.3156L5.53436 2.31403C5.6877 1.9197 6.21661 1.89109 6.42419 2.22879ZM6.00061 3.871L4.396 7.99824H7.614L6.00061 3.871Z" fill="#212121"/>
</svg>
