<?xml version="1.0" encoding="UTF-8"?>
<svg width="20px" height="20px" viewBox="0 0 20 20" version="1.1" xmlns="http://www.w3.org/2000/svg" xmlns:xlink="http://www.w3.org/1999/xlink">
    <!-- Generator: Sketch 64 (93537) - https://sketch.com -->
    <title>ic_fluent_link_remove_20_regular</title>
    <desc>Created with Sketch.</desc>
    <g id="ðŸ”-System-Icons" stroke="none" stroke-width="1" fill="none" fill-rule="evenodd">
        <g id="ic_fluent_link_remove_20_regular" fill="#212121" fill-rule="nonzero">
            <path d="M14.5,10 C16.9853,10 19,12.0147 19,14.5 C19,16.9853 16.9853,19 14.5,19 C12.0147,19 10,16.9853 10,14.5 C10,12.0147 12.0147,10 14.5,10 Z M12.7322,12.7322 C12.537,12.9275 12.537,13.2441 12.7322,13.4393 L13.7929,14.5 L12.7322,15.5607 C12.537,15.7559 12.537,16.0725 12.7322,16.2678 C12.9275,16.463 13.2441,16.463 13.4393,16.2678 L14.5,15.2071 L15.5607,16.2678 C15.7559,16.463 16.0725,16.463 16.2678,16.2678 C16.463,16.0725 16.463,15.7559 16.2678,15.5607 L15.2071,14.5 L16.2678,13.4393 C16.463,13.2441 16.463,12.9275 16.2678,12.7322 C16.0725,12.537 15.7559,12.537 15.5607,12.7322 L14.5,13.7929 L13.4393,12.7322 C13.2441,12.537 12.9275,12.537 12.7322,12.7322 Z M8,4 C8.27614,4 8.5,4.22386 8.5,4.5 C8.5,4.74546 8.32312,4.94961 8.08988,4.99194 L8,5 L6,5 C4.34315,5 3,6.34315 3,8 C3,9.59058 4.23784,10.892 5.80275,10.9936 L6,11 L8,11 C8.27614,11 8.5,11.2239 8.5,11.5 C8.5,11.7455 8.32312,11.9496 8.08988,11.9919 L8,12 L6,12 C3.79086,12 2,10.2091 2,8 C2,5.8645 3.67346,4.11986 5.78053,4.00592 L6,4 L8,4 Z M14,4 C16.2091,4 18,5.79086 18,8 C18,8.68859 17.826,9.33654 17.5196,9.90229 C17.242,9.71965 16.947,9.56146 16.6375,9.43079 C16.8687,9.00552 17,8.5181 17,8 C17,6.40942 15.7622,5.10795 14.1973,5.00638 L14,5 L12,5 C11.7239,5 11.5,4.77614 11.5,4.5 C11.5,4.25454 11.6769,4.05039 11.9101,4.00806 L12,4 L14,4 Z M14,7.5 C14.2761,7.5 14.5,7.72386 14.5,8 C14.5,8.24546 14.3231,8.44961 14.0899,8.49194 L14,8.5 L6,8.5 C5.72386,8.5 5.5,8.27614 5.5,8 C5.5,7.75454 5.67688,7.55039 5.91012,7.50806 L6,7.5 L14,7.5 Z" id="ðŸŽ¨-Color"></path>
        </g>
    </g>
</svg>