<svg width="16" height="16" viewBox="0 0 16 16" fill="none" xmlns="http://www.w3.org/2000/svg">
<path d="M9 1C7.50844 1 6.20756 1.81639 5.51982 3.0267C7.01581 3.18123 8.31607 3.99534 9.12485 5.17329C9.56435 5.06017 10.0251 5 10.4999 5H13V2.14948C13 1.51464 12.4854 1 11.8505 1H9Z" fill="#212121"/>
<path d="M13.7576 6C14.4437 6 14.9999 6.55618 14.9999 7.24227L15 10.5C15 12.9853 12.9853 15 10.5 15C9.43751 15 8.46103 14.6318 7.6912 14.016L6.85363 14.8536C6.65837 15.0488 6.34178 15.0488 6.14652 14.8536C5.95126 14.6583 5.95126 14.3417 6.14652 14.1464L6.98408 13.3089C6.63407 12.8713 6.36403 12.367 6.19612 11.8181C6.06861 11.4012 6 10.9586 6 10.5C6 10.2502 6.02035 10.0052 6.05948 9.76654C6.12199 9.38519 6.23244 9.01998 6.38444 8.67729C6.83475 7.66203 7.6497 6.84445 8.66311 6.39075C8.966 6.25515 9.28662 6.15204 9.62052 6.08588C9.62053 6.08589 9.62052 6.08588 9.62052 6.08588C9.90492 6.02954 10.199 6 10.4999 6H13.7576ZM7.69678 12.5961C7.89754 12.8642 8.13584 13.1025 8.40389 13.3032L10.8536 10.8536C11.0488 10.6583 11.0488 10.3417 10.8536 10.1464C10.6583 9.95118 10.3417 9.95118 10.1465 10.1464L7.69678 12.5961Z" fill="#212121"/>
<path d="M8.14507 5.52818C7.07234 6.03717 6.19055 6.8831 5.63642 7.92927L4.85355 7.1464C4.65829 6.95114 4.34171 6.95114 4.14645 7.1464C3.95118 7.34166 3.95118 7.65824 4.14645 7.85351L5.22633 8.93339C5.07906 9.42989 5 9.95571 5 10.5C5 11.0181 5.07165 11.5195 5.20557 11.9948C5.13748 11.9983 5.06894 12 5 12C2.79086 12 1 10.2091 1 8V5.14948C1 4.51464 1.51464 4 2.14948 4H5C6.27612 4 7.41267 4.59759 8.14507 5.52818Z" fill="#212121"/>
</svg>
