<svg width="28" height="28" viewBox="0 0 28 28" fill="none" xmlns="http://www.w3.org/2000/svg">
<path d="M13 8C13 5.23858 10.7614 3 8 3C5.23858 3 3 5.23858 3 8C3 10.7614 5.23858 13 8 13C10.7614 13 13 10.7614 13 8ZM11.125 8C11.125 9.72589 9.72589 11.125 8 11.125C6.27411 11.125 4.875 9.72589 4.875 8C4.875 6.27411 6.27411 4.875 8 4.875C9.72589 4.875 11.125 6.27411 11.125 8ZM25 8C25 5.23858 22.7614 3 20 3C17.2386 3 15 5.23858 15 8C15 10.7614 17.2386 13 20 13C22.7614 13 25 10.7614 25 8ZM23.125 8C23.125 9.72589 21.7259 11.125 20 11.125C18.2741 11.125 16.875 9.72589 16.875 8C16.875 6.27411 18.2741 4.875 20 4.875C21.7259 4.875 23.125 6.27411 23.125 8ZM8 25C5.23858 25 3 22.7614 3 20C3 17.2386 5.23858 15 8 15C10.7614 15 13 17.2386 13 20C13 22.7614 10.7614 25 8 25ZM8 23.125C9.72589 23.125 11.125 21.7259 11.125 20C11.125 18.2741 9.72589 16.875 8 16.875C6.27411 16.875 4.875 18.2741 4.875 20C4.875 21.7259 6.27411 23.125 8 23.125ZM25 20C25 17.2386 22.7614 15 20 15C17.2386 15 15 17.2386 15 20C15 22.7614 17.2386 25 20 25C22.7614 25 25 22.7614 25 20ZM23.125 20C23.125 21.7259 21.7259 23.125 20 23.125C18.2741 23.125 16.875 21.7259 16.875 20C16.875 18.2741 18.2741 16.875 20 16.875C21.7259 16.875 23.125 18.2741 23.125 20Z" fill="#212121"/>
</svg>
