<svg width="20" height="20" viewBox="0 0 20 20" fill="none" xmlns="http://www.w3.org/2000/svg">
<path d="M3.5003 3C3.22416 3 3.0003 3.22386 3.0003 3.5C3.0003 3.77614 3.22416 4 3.5003 4H4.2503L2.07722 9.21538C2.02782 9.33395 1.99682 9.47168 2.00266 9.61978C2.06572 11.2213 3.38356 12.5 5.0003 12.5C6.61704 12.5 7.93488 11.2213 7.99795 9.61978C8.00378 9.47168 7.97278 9.33395 7.92338 9.21538L5.7503 4H9.5003V15H5.5003C4.67187 15 4.0003 15.6716 4.0003 16.5C4.0003 17.3284 4.67187 18 5.5003 18H14.5003C15.3287 18 16.0003 17.3284 16.0003 16.5C16.0003 15.6716 15.3287 15 14.5003 15H10.5003V4H14.2503L12.0772 9.21538C12.0278 9.33395 11.9968 9.47168 12.0027 9.61978C12.0657 11.2213 13.3836 12.5 15.0003 12.5C16.617 12.5 17.9349 11.2213 17.9979 9.61978C18.0038 9.47168 17.9728 9.33395 17.9234 9.21538L15.7503 4H16.5003C16.7764 4 17.0003 3.77614 17.0003 3.5C17.0003 3.22386 16.7764 3 16.5003 3H3.5003ZM5.0003 4.8L6.7503 9H3.2503L5.0003 4.8ZM16.7503 9H13.2503L15.0003 4.8L16.7503 9Z" fill="#212121"/>
</svg>
