<svg width="32" height="32" viewBox="0 0 32 32" fill="none" xmlns="http://www.w3.org/2000/svg">
<path d="M27 3C27.5523 3 28 3.44772 28 4C28 4.55228 27.5523 5 27 5H25.4277L28.9395 14.6582C28.9793 14.7677 29 14.8834 29 15C29 17.7614 26.7614 20 24 20C21.2386 20 19 17.7614 19 15C19 14.8834 19.0207 14.7677 19.0605 14.6582L22.5723 5H17V23H23C24.6569 23 26 24.3431 26 26C26 27.6569 24.6569 29 23 29H9C7.34315 29 6 27.6569 6 26C6 24.3431 7.34315 23 9 23H15V5H9.42773L12.9395 14.6582C12.9793 14.7677 13 14.8834 13 15C13 17.7614 10.7614 20 8 20C5.23858 20 3 17.7614 3 15C3 14.8834 3.02072 14.7677 3.06055 14.6582L6.57227 5H5C4.44772 5 4 4.55228 4 4C4 3.44772 4.44772 3 5 3H27ZM5.42773 14H10.5723L8 6.9248L5.42773 14ZM21.4277 14H26.5723L24 6.9248L21.4277 14Z" fill="#212121"/>
</svg>
