<svg width="48" height="48" viewBox="0 0 48 48" fill="none" xmlns="http://www.w3.org/2000/svg">
<path d="M39.9805 10.7363C41.5085 11.8757 42.498 13.6973 42.498 15.75V31.75C42.498 37.6871 37.6851 42.5 31.748 42.5H15.748C13.6954 42.5 11.8738 41.5105 10.7344 39.9824C10.9043 39.9929 11.0755 40 11.248 40H31.748C36.3044 40 39.998 36.3063 39.998 31.75V11.25C39.998 11.0774 39.9909 10.9062 39.9805 10.7363ZM14 38H11.25C7.79822 38 5 35.2018 5 31.75V29H14V38ZM26.5 38H16.5V29H26.5V38ZM38 31.75C38 35.2018 35.2018 38 31.75 38H29V29H38V31.75ZM14 26.5H5V16.5H14V26.5ZM26.5 26.5H16.5V16.5H26.5V26.5ZM38 26.5H29V16.5H38V26.5ZM14 14H5V11.25C5 7.79822 7.79822 5 11.25 5H14V14ZM26.5 14H16.5V5H26.5V14ZM31.75 5C35.2018 5 38 7.79822 38 11.25V14H29V5H31.75Z" fill="#212121"/>
</svg>
