<svg width="16" height="16" viewBox="0 0 16 16" fill="none" xmlns="http://www.w3.org/2000/svg">
<path d="M5.25 7C4.69772 7 4.25 7.44772 4.25 8C4.25 8.55228 4.69772 9 5.25 9H10.75C11.3023 9 11.75 8.55228 11.75 8C11.75 7.44772 11.3023 7 10.75 7H5.25Z" fill="#212121"/>
<path d="M0 8C0 3.58172 3.58172 0 8 0C12.4183 0 16 3.58172 16 8C16 12.4183 12.4183 16 8 16C3.58172 16 0 12.4183 0 8ZM8 2C4.68629 2 2 4.68629 2 8C2 11.3137 4.68629 14 8 14C11.3137 14 14 11.3137 14 8C14 4.68629 11.3137 2 8 2Z" fill="#212121"/>
</svg>
