<svg width="20" height="20" viewBox="0 0 20 20" fill="none" xmlns="http://www.w3.org/2000/svg">
<path d="M10 18C14.4183 18 18 14.4183 18 10C18 5.58172 14.4183 2 10 2C5.58172 2 2 5.58172 2 10C2 14.4183 5.58172 18 10 18ZM10 3C10.6568 3 11.4068 3.59025 12.0218 4.90814C12.2393 5.37419 12.4283 5.90978 12.5806 6.5H7.41936C7.57172 5.90978 7.76073 5.37419 7.97822 4.90814C8.59323 3.59025 9.34315 3 10 3ZM7.07203 4.48526C6.79564 5.07753 6.56498 5.75696 6.38931 6.5H3.93648C4.77295 5.05399 6.11182 3.93497 7.71442 3.38163C7.47297 3.71222 7.25828 4.08617 7.07203 4.48526ZM6.19265 7.5C6.06723 8.28832 6 9.12934 6 10C6 10.8707 6.06723 11.7117 6.19265 12.5H3.45963C3.16268 11.7236 3 10.8808 3 10C3 9.1192 3.16268 8.2764 3.45963 7.5H6.19265ZM6.38931 13.5C6.56498 14.243 6.79564 14.9225 7.07203 15.5147C7.25828 15.9138 7.47297 16.2878 7.71442 16.6184C6.11182 16.065 4.77295 14.946 3.93648 13.5H6.38931ZM7.41936 13.5H12.5806C12.4283 14.0902 12.2393 14.6258 12.0218 15.0919C11.4068 16.4097 10.6568 17 10 17C9.34315 17 8.59323 16.4097 7.97822 15.0919C7.76073 14.6258 7.57172 14.0902 7.41936 13.5ZM12.7938 12.5H7.20617C7.07345 11.7253 7 10.8833 7 10C7 9.11669 7.07345 8.27472 7.20617 7.5H12.7938C12.9266 8.27472 13 9.11669 13 10C13 10.8833 12.9266 11.7253 12.7938 12.5ZM13.6107 13.5H16.0635C15.2271 14.946 13.8882 16.065 12.2856 16.6184C12.527 16.2878 12.7417 15.9138 12.928 15.5147C13.2044 14.9225 13.435 14.243 13.6107 13.5ZM16.5404 12.5H13.8074C13.9328 11.7117 14 10.8707 14 10C14 9.12934 13.9328 8.28832 13.8074 7.5H16.5404C16.8373 8.2764 17 9.1192 17 10C17 10.8808 16.8373 11.7236 16.5404 12.5ZM12.2856 3.38163C13.8882 3.93497 15.2271 5.05399 16.0635 6.5H13.6107C13.435 5.75696 13.2044 5.07753 12.928 4.48526C12.7417 4.08617 12.527 3.71222 12.2856 3.38163Z" fill="#212121"/>
</svg>
