<svg width="20" height="20" viewBox="0 0 20 20" fill="none" xmlns="http://www.w3.org/2000/svg">
<path d="M14 3C15.6569 3 17 4.34315 17 6L17 14C17 15.6569 15.6569 17 14 17V12.6181C14.0206 12.5996 14.0408 12.5805 14.0607 12.5607L15.5607 11.0607C16.1464 10.4749 16.1464 9.52513 15.5607 8.93934L14.0607 7.43934C14.0408 7.41953 14.0206 7.40038 14 7.38191V3ZM13 3V7C12.6161 7 12.2322 7.14645 11.9393 7.43934C11.6464 7.73223 11.5 8.11612 11.5 8.5H8.5C8.5 8.11612 8.35355 7.73223 8.06066 7.43934C7.76777 7.14645 7.38388 7 7 7L7 3H13ZM8.06066 12.5607C7.76777 12.8536 7.38388 13 7 13L7 17H13V13C12.6161 13 12.2322 12.8536 11.9393 12.5607C11.6465 12.2678 11.5 11.8839 11.5 11.5H8.5C8.5 11.8839 8.35355 12.2678 8.06066 12.5607ZM6 17L6 12.6181C5.97938 12.5996 5.95915 12.5805 5.93934 12.5607L4.43934 11.0607C3.85355 10.4749 3.85355 9.52513 4.43934 8.93934L5.93934 7.43934C5.95915 7.41953 5.97938 7.40038 6 7.38191L6 3C4.34315 3 3 4.34315 3 6V14C3 15.6569 4.34315 17 6 17ZM7.35355 8.14645C7.54882 8.34171 7.54882 8.65829 7.35355 8.85355L6.70711 9.5H13.2929L12.6464 8.85355C12.4512 8.65829 12.4512 8.34171 12.6464 8.14645C12.8417 7.95118 13.1583 7.95118 13.3536 8.14645L14.8536 9.64645C15.0488 9.84171 15.0488 10.1583 14.8536 10.3536L13.3536 11.8536C13.1583 12.0488 12.8417 12.0488 12.6464 11.8536C12.4512 11.6583 12.4512 11.3417 12.6464 11.1464L13.2929 10.5H6.70711L7.35355 11.1464C7.54882 11.3417 7.54882 11.6583 7.35355 11.8536C7.15829 12.0488 6.84171 12.0488 6.64645 11.8536L5.14645 10.3536C4.95118 10.1583 4.95118 9.84171 5.14645 9.64645L6.64645 8.14645C6.84171 7.95118 7.15829 7.95118 7.35355 8.14645Z" fill="#212121"/>
</svg>
