<svg width="24" height="24" viewBox="0 0 24 24" fill="none" xmlns="http://www.w3.org/2000/svg">
<path d="M18.75 8C20.5449 8 22 9.45511 22 11.25V18.75C22 20.5449 20.545 22 18.75 22H11.25C9.45517 21.9999 8.00002 20.5449 8.00002 18.75V11.25C8.00007 9.45516 9.4552 8.00008 11.25 8H18.75ZM12.5 15.5C11.3956 15.5001 10.5001 16.3955 10.5 17.5C10.5 18.6045 11.3955 19.4999 12.5 19.5C13.6046 19.5 14.5 18.6046 14.5 17.5C14.5 16.3955 13.6046 15.5 12.5 15.5ZM16.75 17C16.3359 17.0001 16.0001 17.3359 16 17.75C16 18.1642 16.3359 18.4999 16.75 18.5H19.25C19.6642 18.5 20 18.1642 20 17.75C20 17.3358 19.6642 17 19.25 17H16.75ZM12.5 17C12.7761 17 13 17.2239 13 17.5C13 17.7761 12.7762 18 12.5 18C12.224 17.9999 12 17.7761 12 17.5C12.0001 17.2239 12.224 17.0001 12.5 17ZM11.6543 2.1123C13.3878 1.64808 15.1691 2.67688 15.6338 4.41015L16.3282 7.00097H11.25C8.90299 7.00118 7.00002 8.90389 7.00002 11.251V17.6807C5.64078 17.6002 4.42459 16.6657 4.05276 15.2783L2.11135 8.03417C1.64696 6.30073 2.67598 4.51859 4.4092 4.05371L11.6543 2.1123ZM12.5 10.5C11.3956 10.5001 10.5001 11.3955 10.5 12.5C10.5 13.6045 11.3955 14.4999 12.5 14.5C13.6046 14.5 14.5 13.6046 14.5 12.5C14.5 11.3955 13.6046 10.5 12.5 10.5ZM16.75 12C16.3359 12.0001 16.0001 12.3359 16 12.75C16 13.1642 16.3359 13.4999 16.75 13.5H19.25C19.6642 13.5 20 13.1642 20 12.75C20 12.3358 19.6642 12 19.25 12H16.75ZM12.5 12C12.7761 12 13 12.2239 13 12.5C13 12.7761 12.7762 13 12.5 13C12.224 12.9999 12 12.7761 12 12.5C12.0001 12.2239 12.224 12.0001 12.5 12Z" fill="#212121"/>
</svg>
