<svg width="28" height="28" viewBox="0 0 28 28" fill="none" xmlns="http://www.w3.org/2000/svg">
<path d="M5.00659 5.00686C5.08717 5.00231 5.16835 5 5.25006 5H19.7501C22.0973 5 24.0001 6.90279 24.0001 9.25V18.75C24.0001 18.8317 23.9978 18.9129 23.9932 18.9935C24.8991 18.4167 25.5001 17.4035 25.5001 16.25V9.25C25.5001 6.07436 22.9257 3.5 19.7501 3.5H7.75006C6.59654 3.5 5.58339 4.10095 5.00659 5.00686ZM6.69 25.87C6.87 25.96 7.06 26 7.25 26H7.26C7.52 26 7.78 25.92 8 25.75L13.04 22H19.75C21.54 22 23 20.54 23 18.75V9.25C23 7.46 21.54 6 19.75 6H5.25C3.46 6 2 7.46 2 9.25V18.75C2 20.54 3.46 22 5.25 22H6V24.75C6 25.23 6.26 25.66 6.69 25.87Z" fill="#212121"/>
</svg>
