<svg width="16" height="16" viewBox="0 0 16 16" fill="none" xmlns="http://www.w3.org/2000/svg">
<path d="M3.49982 2C3.95592 1.39278 4.68209 1 5.5 1H12C13.6569 1 15 2.34315 15 4V8.5C15 9.31791 14.6072 10.0441 14 10.5002V4C14 2.89543 13.1046 2 12 2H3.49982ZM13 5C13 3.89543 12.1046 3 11 3H3C1.89543 3 1 3.89543 1 5V11C1 12.1046 1.89543 13 3 13V14.0284C3 14.8418 3.91937 15.3149 4.58124 14.8421L7.16024 13H11C12.1046 13 13 12.1046 13 11V5ZM12 11C12 11.5523 11.5523 12 11 12H6.83978L4 14.0284V12H3C2.44772 12 2 11.5523 2 11V5C2 4.44772 2.44772 4 3 4H11C11.5523 4 12 4.44772 12 5V11Z" fill="#212121"/>
</svg>
