<svg width="32" height="32" viewBox="0 0 32 32" fill="none" xmlns="http://www.w3.org/2000/svg">
<path d="M10.5 3C8.80474 3 7.3558 4.05461 6.77344 5.54355C7.01161 5.5148 7.25408 5.5 7.50001 5.5H20.5C23.8137 5.5 26.5 8.18629 26.5 11.5V20.7092C27.9659 20.1159 29 18.6787 29 17V9.5C29 5.91015 26.0899 3 22.5 3H10.5ZM3 11.5C3 9.01472 5.01472 7 7.5 7H20.5C22.9853 7 25 9.01472 25 11.5V21.5C25 23.9853 22.9853 26 20.5 26H14.8606L10.4574 29.6507C9.47971 30.4613 8 29.7659 8 28.496V26H7C4.79086 26 3 24.2091 3 22V11.5Z" fill="#212121"/>
</svg>
