<svg width="32" height="32" viewBox="0 0 32 32" fill="none" xmlns="http://www.w3.org/2000/svg">
<path d="M6.5 7.11151V7C6.5 4.79086 8.29086 3 10.5 3H22.5C26.0899 3 29 5.91015 29 9.5V17C29 19.2091 27.2091 21 25 21V21.5C25 23.9853 22.9853 26 20.5 26H14.8606L10.4574 29.6507C9.47971 30.4613 8 29.7659 8 28.496V26H7C4.79086 26 3 24.2091 3 22V11.5C3 9.35841 4.49601 7.56624 6.5 7.11151ZM8.5 7H20.5C22.9853 7 25 9.01472 25 11.5V19C26.1046 19 27 18.1046 27 17V9.5C27 7.01472 24.9853 5 22.5 5H10.5C9.39543 5 8.5 5.89543 8.5 7ZM7.5 9C6.11929 9 5 10.1193 5 11.5V22C5 23.1046 5.89543 24 7 24H9C9.55228 24 10 24.4477 10 25V27.4319L13.8617 24.2302C14.0412 24.0814 14.2669 24 14.5 24H20.5C21.8807 24 23 22.8807 23 21.5V11.5C23 10.1193 21.8807 9 20.5 9H7.5Z" fill="#212121"/>
</svg>
