<svg width="20" height="20" viewBox="0 0 20 20" fill="none" xmlns="http://www.w3.org/2000/svg">
<path d="M2.99609 5.5C2.99609 4.11929 4.11538 3 5.49609 3H14.4961C15.8768 3 16.9961 4.11929 16.9961 5.5V6H16.999V7H16.9961V14.5C16.9961 15.8807 15.8768 17 14.4961 17H5.49609C4.11538 17 2.99609 15.8807 2.99609 14.5V5.5ZM3.99609 7V14.5C3.99609 15.3284 4.66767 16 5.49609 16H14.4961C15.3245 16 15.9961 15.3284 15.9961 14.5V7H3.99609ZM5.49902 8C5.22288 8 4.99902 8.22386 4.99902 8.5V12.5C4.99902 12.7761 5.22288 13 5.49902 13H9.49902C9.77517 13 9.99902 12.7761 9.99902 12.5V8.5C9.99902 8.22386 9.77517 8 9.49902 8H5.49902ZM8.99902 9V12H5.99902V9H8.99902Z" fill="#212121"/>
</svg>
