<svg width="20" height="20" viewBox="0 0 20 20" fill="none" xmlns="http://www.w3.org/2000/svg">
<path d="M6.5 8C6.22386 8 6 8.22386 6 8.5V12.5C6 12.7761 6.22386 13 6.5 13H9.5C9.77614 13 10 12.7761 10 12.5V8.5C10 8.22386 9.77614 8 9.5 8H6.5ZM9 9V12H7V9H9Z" fill="#212121"/>
<path d="M3 5.5C3 4.11929 4.11929 3 5.5 3H14.5C15.8807 3 17 4.11929 17 5.5V14.5C17 15.8807 15.8807 17 14.5 17H5.5C4.11929 17 3 15.8807 3 14.5V5.5ZM4.5 7V14.25C4.5 14.9404 5.05964 15.5 5.75 15.5H14.25C14.9404 15.5 15.5 14.9404 15.5 14.25V7H4.5Z" fill="#212121"/>
</svg>
