<svg width="28" height="28" viewBox="0 0 28 28" fill="none" xmlns="http://www.w3.org/2000/svg">
<path d="M17.4998 4C20.5374 4 22.9998 6.46243 22.9998 9.49998C22.9998 12.5375 20.5374 15 17.4998 15H11.0359L7.87481 23.3535C7.67941 23.8698 7.10218 24.1306 6.58575 23.9355C6.06939 23.7401 5.80859 23.1628 6.00372 22.6464L12.8152 4.64648L12.8797 4.50683C13.0551 4.19701 13.386 4.00011 13.7498 4H17.4998ZM11.7918 13H17.4998C19.4328 13 20.9998 11.433 20.9998 9.49998C20.9998 7.56699 19.4328 5.99999 17.4998 5.99999H14.4412L11.7918 13Z" fill="#212121"/>
</svg>
