<svg width="32" height="32" viewBox="0 0 32 32" fill="none" xmlns="http://www.w3.org/2000/svg">
<path d="M6.7587 8.17311C6.27001 9.35192 6.0003 10.6445 6.0003 12C6.0003 15.1066 7.4169 17.8823 9.63938 19.7165C9.75744 19.8139 9.87778 19.9087 10.0003 20.0007C11.6716 21.2561 13.7491 22 16.0003 22C17.3559 22 18.6485 21.7303 19.8274 21.2415L20.963 22.3771C19.4605 23.0969 17.7775 23.5 16.0003 23.5C13.8016 23.5 11.747 22.883 10.0003 21.8126V29C10.0003 29.3603 10.1941 29.6927 10.5076 29.8702C10.8211 30.0477 11.2059 30.0429 11.5148 29.8575L16.0003 27.1662L20.4858 29.8575C20.7947 30.0429 21.1795 30.0477 21.493 29.8702C21.8065 29.6927 22.0003 29.3603 22.0003 29V23.4144L28.2932 29.7071C28.6837 30.0976 29.3169 30.0976 29.7074 29.7071C30.0979 29.3166 30.0979 28.6834 29.7074 28.2929L3.7071 2.29319C3.31657 1.90267 2.6834 1.90268 2.29288 2.29321C1.90237 2.68374 1.90237 3.3169 2.2929 3.70742L6.7587 8.17311ZM8.70022 5.16557L22.8349 19.2999C24.783 17.4753 26.0003 14.8798 26.0003 12C26.0003 6.47715 21.5232 2 16.0003 2C13.1204 2 10.5249 3.21737 8.70022 5.16557Z" fill="#212121"/>
</svg>
