<svg width="16" height="16" viewBox="0 0 16 16" fill="none" xmlns="http://www.w3.org/2000/svg">
<path d="M3.37927 4.08638L1.14645 1.85355C0.951184 1.65829 0.951184 1.34171 1.14645 1.14645C1.34171 0.951185 1.65829 0.951185 1.85355 1.14645L14.8536 14.1464C15.0488 14.3417 15.0488 14.6583 14.8536 14.8536C14.6583 15.0488 14.3417 15.0488 14.1464 14.8536L11 11.7071V14.5C11 14.6801 10.9031 14.8463 10.7463 14.9351C10.5896 15.0239 10.3972 15.0214 10.2428 14.9287L8 13.5831L5.75725 14.9287C5.60278 15.0214 5.41041 15.0239 5.25365 14.9351C5.0969 14.8463 5 14.6801 5 14.5V10.0004C3.78555 9.08816 3 7.63582 3 6C3 5.32216 3.13488 4.67583 3.37927 4.08638ZM9.91362 10.6207C9.32417 10.8651 8.67784 11 8 11C7.2889 11 6.61246 10.8516 6 10.584V13.6169L7.74275 12.5713C7.90109 12.4762 8.09891 12.4762 8.25725 12.5713L10 13.6169V10.7071L9.91362 10.6207ZM9.13081 9.83792L4.16208 4.86919C4.0566 5.22777 4 5.60727 4 6C4 8.20914 5.79086 10 8 10C8.39273 10 8.77224 9.9434 9.13081 9.83792ZM12 6C12 7.07371 11.577 8.04861 10.8884 8.76711L11.5957 9.47435C12.4651 8.57477 13 7.34985 13 6C13 3.23858 10.7614 1 8 1C6.65015 1 5.42523 1.53491 4.52565 2.40431L5.23289 3.11155C5.95139 2.42305 6.92629 2 8 2C10.2091 2 12 3.79086 12 6Z" fill="#212121"/>
</svg>
