<svg width="20" height="20" viewBox="0 0 20 20" fill="none" xmlns="http://www.w3.org/2000/svg">
<path d="M5 2.75C5.8392 2.75 6.55673 3.26725 6.85352 4H13.75C15.5449 4 17 5.45507 17 7.25C17 9.04493 15.5449 10.5 13.75 10.5H6.25C5.2835 10.5 4.5 11.2835 4.5 12.25C4.5 13.2165 5.2835 14 6.25 14H13.1465C13.4433 13.2672 14.1608 12.75 15 12.75C16.1046 12.75 17 13.6454 17 14.75C17 15.8546 16.1046 16.75 15 16.75C14.1608 16.75 13.4433 16.2328 13.1465 15.5H6.25C4.45507 15.5 3 14.0449 3 12.25C3 10.4551 4.45507 9 6.25 9H13.75C14.7165 9 15.5 8.2165 15.5 7.25C15.5 6.2835 14.7165 5.5 13.75 5.5H6.85352C6.55673 6.23275 5.8392 6.75 5 6.75C3.89543 6.75 3 5.85457 3 4.75C3 3.64543 3.89543 2.75 5 2.75Z" fill="#212121"/>
</svg>
