<svg width="16" height="16" viewBox="0 0 16 16" fill="none" xmlns="http://www.w3.org/2000/svg">
<path d="M3 3.5C3 2.67157 3.67157 2 4.5 2H11.5C12.3284 2 13 2.67157 13 3.5V13.5C13 14.3284 12.3284 15 11.5 15H4.5C3.67157 15 3 14.3284 3 13.5V3.5Z" fill="url(#paint0_linear_378174_10127)"/>
<path d="M3 3.5C3 2.67157 3.67157 2 4.5 2H11.5C12.3284 2 13 2.67157 13 3.5V13.5C13 14.3284 12.3284 15 11.5 15H4.5C3.67157 15 3 14.3284 3 13.5V3.5Z" fill="url(#paint1_radial_378174_10127)" fill-opacity="0.7"/>
<path d="M3 3.5C3 2.67157 3.67157 2 4.5 2H11.5C12.3284 2 13 2.67157 13 3.5V13.5C13 14.3284 12.3284 15 11.5 15H4.5C3.67157 15 3 14.3284 3 13.5V3.5Z" fill="url(#paint2_radial_378174_10127)" fill-opacity="0.4"/>
<path d="M5 2.5C5 3.32843 5.67157 4 6.5 4H9.5C10.3284 4 11 3.32843 11 2.5C11 1.67157 10.3284 1 9.5 1H6.5C5.67157 1 5 1.67157 5 2.5Z" fill="url(#paint3_linear_378174_10127)"/>
<defs>
<linearGradient id="paint0_linear_378174_10127" x1="3" y1="3.3" x2="13.44" y2="14.5933" gradientUnits="userSpaceOnUse">
<stop stop-color="#36DFF1"/>
<stop offset="1" stop-color="#0094F0"/>
</linearGradient>
<radialGradient id="paint1_radial_378174_10127" cx="0" cy="0" r="1" gradientUnits="userSpaceOnUse" gradientTransform="translate(8 1.27778) rotate(90) scale(4.16204 4.27976)">
<stop stop-color="#0A1852"/>
<stop offset="1" stop-color="#0A1852" stop-opacity="0"/>
</radialGradient>
<radialGradient id="paint2_radial_378174_10127" cx="0" cy="0" r="1" gradientUnits="userSpaceOnUse" gradientTransform="translate(8 2.69048) rotate(90) scale(2.02381 4.04762)">
<stop stop-color="#0A1852"/>
<stop offset="1" stop-color="#0A1852" stop-opacity="0"/>
</radialGradient>
<linearGradient id="paint3_linear_378174_10127" x1="8" y1="1" x2="8" y2="4" gradientUnits="userSpaceOnUse">
<stop stop-color="#FFE06B"/>
<stop offset="1" stop-color="#FAB500"/>
</linearGradient>
</defs>
</svg>
