<svg width="16" height="16" viewBox="0 0 16 16" fill="none" xmlns="http://www.w3.org/2000/svg">
<path d="M5 1C3.89543 1 3 1.89543 3 3V13C3 14.1046 3.89543 15 5 15H8.26725C7.9448 14.4421 7.88653 13.7305 8.22326 13.0802L8.78683 11.9919H6.5C6.22386 11.9919 6 11.7681 6 11.4919C6 11.2465 6.17688 11.0423 6.41012 11L6.5 10.9919H9.30467L9.88577 9.86979C9.95936 9.72768 9.99777 9.56999 9.99777 9.40995V8.0475C9.97667 8.27142 9.8079 8.45237 9.58988 8.49194L9.5 8.5H6.5C6.22386 8.5 6 8.27614 6 8C6 7.75454 6.17688 7.55039 6.41012 7.50806L6.5 7.5H9.38182C9.1443 7.23462 8.99988 6.88418 8.99988 6.5C8.99988 5.67157 9.67145 5 10.4999 5H13V3C13 1.89543 12.1046 1 11 1H5ZM9.99777 7.9139V7.9525C9.99648 7.93881 9.99464 7.92528 9.99227 7.91193L9.99777 7.9139ZM9.58988 4.99194L9.5 5H6.5C6.22386 5 6 4.77614 6 4.5C6 4.25454 6.17688 4.05039 6.41012 4.00806L6.5 4H9.5C9.77614 4 10 4.22386 10 4.5C10 4.74546 9.82312 4.94961 9.58988 4.99194ZM13.9956 9.40455C13.9956 9.72462 14.0724 10.04 14.2196 10.3242L14.5695 11H10.4268L10.7739 10.3296C10.9211 10.0454 10.9979 9.73002 10.9979 9.40995V7H10.5C10.2239 7 10 6.77614 10 6.5C10 6.22386 10.2239 6 10.5 6H14.5C14.7761 6 15 6.22386 15 6.5C15 6.77614 14.7761 7 14.5 7H13.9956V9.40455ZM9.90891 12L9.11139 13.5401C8.76669 14.2057 9.2498 14.9999 9.99939 14.9999H14.9969C15.7465 14.9999 16.2296 14.2057 15.8849 13.5401L15.0874 12H9.90891Z" fill="#212121"/>
</svg>
