<svg width="20" height="20" viewBox="0 0 20 20" fill="none" xmlns="http://www.w3.org/2000/svg">
<path d="M3.49951 2C2.67135 2 2 2.67062 2 3.49786V16.4793C2 17.3066 2.67135 17.9772 3.49951 17.9772H4.49918C5.32733 17.9772 5.99869 17.3066 5.99869 16.4793V3.49786C5.99869 2.67062 5.32733 2 4.49918 2H3.49951ZM8.49786 2C7.66971 2 6.99836 2.67062 6.99836 3.49786V16.4793C6.99836 17.3066 7.66971 17.9772 8.49786 17.9772H9.49754C10.3257 17.9772 10.997 17.3066 10.997 16.4793V3.49786C10.997 2.67062 10.3257 2 9.49754 2H8.49786ZM15.7179 6.15689C15.5259 5.32191 14.6733 4.81758 13.848 5.05092L13.1029 5.26161C12.3477 5.47516 11.8851 6.2344 12.0422 7.00262L14.046 16.8015C14.2174 17.6394 15.0551 18.1642 15.8848 17.9534L16.8698 17.7031C17.6592 17.5025 18.144 16.7092 17.9616 15.9162L15.7179 6.15689Z" fill="#212121"/>
</svg>
