<svg width="20" height="20" viewBox="0 0 20 20" fill="none" xmlns="http://www.w3.org/2000/svg">
<path d="M2.14645 2.14648C2.34171 1.95124 2.65822 1.95123 2.85348 2.14648L17.8535 17.1465C18.0485 17.3418 18.0486 17.6583 17.8535 17.8535C17.6583 18.0487 17.3417 18.0485 17.1464 17.8535L15.29 15.9971C14.7214 16.4992 14.0826 16.9237 13.3877 17.249C12.3007 17.7578 11.0605 17.6889 10.0966 17.1904C9.12351 16.687 8.40064 15.7227 8.44918 14.459C8.46631 14.0135 8.53068 13.592 8.59176 13.2158C8.65461 12.8288 8.71038 12.5037 8.72848 12.2012C8.74624 11.9042 8.7241 11.6683 8.65035 11.4688C8.57959 11.2775 8.4499 11.0878 8.20016 10.9004C7.88701 10.6656 7.62032 10.6251 7.35543 10.6631C7.05532 10.7063 6.74108 10.8511 6.34078 11.0498C5.60617 11.4146 4.56543 11.9917 3.36715 11.3818C2.26478 10.8203 1.94337 9.51438 2.14742 8.46485C2.42413 7.04169 3.07911 5.75429 4.00192 4.70899L2.14645 2.85352C1.95118 2.65825 1.95118 2.34175 2.14645 2.14648ZM4.70895 5.41602C3.92345 6.32196 3.36683 7.4318 3.12887 8.65528C2.97579 9.44262 3.25531 10.2023 3.82027 10.4902C4.5038 10.8383 5.07133 10.564 5.89645 10.1543C6.2758 9.96594 6.72986 9.74238 7.21383 9.67286C7.73307 9.59834 8.2678 9.7008 8.79977 10.0996C9.18977 10.3921 9.44462 10.7342 9.58785 11.1211C9.72795 11.4998 9.74969 11.8895 9.7275 12.2607C9.70562 12.6266 9.63805 13.0137 9.57906 13.377C9.51834 13.7509 9.46277 14.1187 9.4482 14.4971C9.41701 15.3092 9.86673 15.9449 10.5566 16.3018C11.2559 16.6634 12.1694 16.7155 12.9638 16.3438C13.5532 16.0679 14.0963 15.7106 14.582 15.2891L13.4814 14.1885C13.3932 14.6506 12.9878 15 12.5 15C11.9478 14.9999 11.5 14.5522 11.5 14C11.5 13.5125 11.8488 13.1062 12.3105 13.0176L4.70895 5.41602ZM9.99996 2C14.4182 2 18 5.58172 18 10C18 11.6672 17.4884 13.214 16.6162 14.4951L15.8955 13.7744C16.5943 12.685 17 11.3899 17 10C17 6.13401 13.866 3 9.99996 3C8.61001 3.00003 7.31478 3.40573 6.22555 4.10449L5.50387 3.38281C6.78516 2.51043 8.33276 2.00004 9.99996 2ZM14.5 10.5C15.0522 10.5 15.5 10.9477 15.5 11.5C15.5 12.0137 15.1127 12.4365 14.6142 12.4932L13.5058 11.3848C13.5629 10.8868 13.9867 10.5001 14.5 10.5ZM14.5 7.5C15.0522 7.5 15.5 7.94772 15.5 8.5C15.5 9.05229 15.0522 9.5 14.5 9.5C13.9478 9.49991 13.5 9.05223 13.5 8.5C13.5 7.94778 13.9478 7.5001 14.5 7.5ZM12.5 5C13.0522 5 13.5 5.44772 13.5 6C13.5 6.55229 13.0522 7 12.5 7C11.9478 6.99991 11.5 6.55223 11.5 6C11.5 5.44778 11.9478 5.0001 12.5 5ZM9.49996 4.5C10.0522 4.5 10.5 4.94772 10.5 5.5C10.5 6.05229 10.0522 6.5 9.49996 6.5C8.94776 6.49991 8.49996 6.05223 8.49996 5.5C8.49996 4.94778 8.94776 4.5001 9.49996 4.5Z" fill="#212121"/>
</svg>
