<svg width="20" height="20" viewBox="0 0 20 20" fill="none" xmlns="http://www.w3.org/2000/svg">
<path d="M19 5.5C19 7.98528 16.9853 10 14.5 10C12.0147 10 10 7.98528 10 5.5C10 3.01472 12.0147 1 14.5 1C16.9853 1 19 3.01472 19 5.5ZM14.5 3C14.2239 3 14 3.22386 14 3.5V5.5C14 5.77614 14.2239 6 14.5 6C14.7761 6 15 5.77614 15 5.5V3.5C15 3.22386 14.7761 3 14.5 3ZM14.5 8.125C14.8452 8.125 15.125 7.84518 15.125 7.5C15.125 7.15482 14.8452 6.875 14.5 6.875C14.1548 6.875 13.875 7.15482 13.875 7.5C13.875 7.84518 14.1548 8.125 14.5 8.125ZM14.5 11C15.8297 11 17.0491 10.5282 18.0001 9.74276V14.5C18.0001 15.8807 16.8808 17 15.5001 17H4.50008C3.11937 17 2 15.8807 2 14.5V7.373L9.74657 11.931C9.90304 12.023 10.0971 12.023 10.2536 11.931L12.4839 10.6187C13.1081 10.8648 13.7883 11 14.5 11ZM4.50008 4H9.20703C9.07217 4.47683 9 4.97999 9 5.5C9 7.4057 9.96922 9.08503 11.4416 10.0719L10.0001 10.9199L2.01526 6.22293C2.15311 4.9726 3.21301 4 4.50008 4Z" fill="#212121"/>
</svg>
