<svg width="24" height="24" viewBox="0 0 24 24" fill="none" xmlns="http://www.w3.org/2000/svg">
<path d="M19 4.49146C19 5.87217 17.8807 6.99146 16.5 6.99146C16.3246 6.99146 16.1535 6.9734 15.9883 6.93904L14.7085 9.05651C15.0326 9.35486 15.3072 9.70604 15.5189 10.0964C13.2276 10.5527 11.5008 12.5747 11.5008 15L11.5007 15.9691C10.3864 15.8304 9.41435 15.2333 8.77919 14.3724L6.98453 15.2203C6.99475 15.3121 7 15.4055 7 15.5C7 16.8807 5.88071 18 4.5 18C3.11929 18 2 16.8807 2 15.5C2 14.1193 3.11929 13 4.5 13C5.24768 13 5.9187 13.3282 6.37684 13.8484L8.13113 13.0196C8.04557 12.6941 8 12.3524 8 12C8 11.0323 8.34362 10.1449 8.9155 9.45309L7.92382 8.32377C7.63803 8.43748 7.32632 8.5 7 8.5C5.61929 8.5 4.5 7.38071 4.5 6C4.5 4.61929 5.61929 3.5 7 3.5C8.38071 3.5 9.5 4.61929 9.5 6C9.5 6.50832 9.34829 6.98121 9.08768 7.37586L10.0706 8.49523C10.6427 8.17961 11.3004 8 12 8C12.5055 8 12.9891 8.09376 13.4343 8.26484L14.6794 6.20477C14.2581 5.7573 14 5.15452 14 4.49146C14 3.11074 15.1193 1.99146 16.5 1.99146C17.8807 1.99146 19 3.11074 19 4.49146ZM16.5025 11C14.2934 11 12.5025 12.7909 12.5025 15L12.5023 18L11.5539 18.8004C11.2462 19.06 11.0923 19.1899 11.0457 19.2913C10.9312 19.5407 11.0391 19.8358 11.2875 19.9525C11.3885 20 11.5898 20 11.9925 20H21.0121C21.4148 20 21.6162 20 21.7172 19.9525C21.9656 19.8358 22.0735 19.5407 21.9589 19.2913C21.9123 19.1899 21.7584 19.06 21.4507 18.8003L20.5025 18V15C20.5025 12.7909 18.7116 11 16.5025 11ZM18.0025 21C17.7842 21.5826 17.195 22 16.5025 22C15.81 22 15.2208 21.5826 15.0025 21H18.0025Z" fill="#212121"/>
</svg>
