<svg width="20" height="20" viewBox="0 0 20 20" fill="none" xmlns="http://www.w3.org/2000/svg">
<path d="M1.91099 7.38266C2.28028 6.24053 2.88863 5.19213 3.69133 4.30364C3.82707 4.15339 4.04002 4.09984 4.23069 4.16802L6.14897 4.85392C6.66905 5.03977 7.24131 4.76883 7.42716 4.24875C7.44544 4.19762 7.45952 4.14507 7.46925 4.09173L7.83471 2.08573C7.87104 1.88627 8.02422 1.7285 8.22251 1.6863C8.8027 1.5628 9.39758 1.5 10.0003 1.5C10.6026 1.5 11.1971 1.56273 11.7769 1.68607C11.9752 1.72824 12.1284 1.88591 12.1648 2.08529L12.5313 4.09165C12.6303 4.63497 13.1511 4.9951 13.6944 4.89601C13.7479 4.88627 13.8004 4.87219 13.8515 4.85395L15.7698 4.16802C15.9605 4.09984 16.1734 4.15339 16.3092 4.30364C17.1119 5.19213 17.7202 6.24053 18.0895 7.38266C18.1518 7.57534 18.0918 7.78658 17.9374 7.91764L16.3825 9.23773C16.3573 9.25918 16.3334 9.28161 16.3108 9.30492C15.9765 9.18846 15.6276 9.10335 15.2676 9.05309C15.3826 8.83894 15.5388 8.64229 15.7353 8.47544L17.029 7.37709C16.7369 6.59486 16.3155 5.86783 15.784 5.22494L14.1881 5.79559C14.0858 5.83214 13.9807 5.8603 13.8738 5.87979C12.7872 6.07796 11.7456 5.3577 11.5475 4.27119L11.2427 2.60235C10.8351 2.53443 10.42 2.5 10.0003 2.5C9.58024 2.5 9.16489 2.53448 8.75702 2.60249L8.45304 4.27105C8.43355 4.37791 8.40539 4.48299 8.36884 4.58527C7.99714 5.62542 6.8526 6.1673 5.81237 5.79556L4.21648 5.22494C3.68504 5.86783 3.26359 6.59486 2.97154 7.37709L4.26523 8.47546C4.34803 8.54576 4.42496 8.62269 4.49526 8.70548C5.2102 9.54746 5.10721 10.8096 4.26521 11.5246L2.97154 12.6229C3.26359 13.4051 3.68504 14.1322 4.21648 14.7751L5.81246 14.2044C5.91473 14.1679 6.01982 14.1397 6.12667 14.1202C7.21332 13.922 8.25487 14.6423 8.45305 15.729L8.75702 17.3975C8.93003 17.4264 9.10438 17.4492 9.27987 17.4659L9.06261 18.1794C9.03567 18.2679 9.01773 18.3558 9.00808 18.4427C8.7437 18.4119 8.48164 18.3689 8.22251 18.3137C8.02422 18.2715 7.87104 18.1137 7.83471 17.9143L7.46926 15.9084C7.37018 15.365 6.8494 15.0049 6.30608 15.104C6.25265 15.1137 6.20011 15.1278 6.14906 15.1461L4.23069 15.832C4.04002 15.9002 3.82707 15.8466 3.69133 15.6964C2.88863 14.8079 2.28028 13.7595 1.91099 12.6173C1.84869 12.4247 1.90876 12.2134 2.06313 12.0824L3.61798 10.7623C4.03897 10.4048 4.09046 9.77373 3.73299 9.35274C3.69784 9.31135 3.65937 9.27288 3.618 9.23775L2.06313 7.91764C1.90876 7.78658 1.84869 7.57534 1.91099 7.38266ZM10.0116 18.5C9.9424 18.8017 10.2265 19.0735 10.5298 18.9812L12.319 18.4368C12.9651 18.7956 13.7089 19 14.5005 19C16.9858 19 19.0005 16.9853 19.0005 14.5C19.0005 12.0147 16.9858 10 14.5005 10C13.7626 10 13.0663 10.1776 12.4518 10.4923C12.4518 10.4923 12.4518 10.4924 12.4518 10.4923C11.6108 10.923 10.9232 11.6106 10.4925 12.4515C10.4926 12.4515 10.4925 12.4516 10.4925 12.4515C10.1778 13.066 10.0005 13.7622 10.0005 14.5C10.0005 15.2918 10.205 16.0358 10.564 16.6821L10.317 17.4934C10.317 17.4934 10.3169 17.4934 10.317 17.4934L10.0192 18.4707C10.0163 18.4805 10.0138 18.4902 10.0116 18.5C10.0115 18.5 10.0116 18.5 10.0116 18.5ZM14.5003 15C14.7765 15 15.0003 15.2239 15.0003 15.5C15.0003 15.5188 14.9994 15.5375 14.9974 15.5558C14.9697 15.8057 14.7578 16 14.5005 16H12.5005C12.2243 16 12.0005 15.7761 12.0005 15.5C12.0005 15.2239 12.2243 15 12.5005 15H14.5003ZM16.5003 14H12.5005C12.2243 14 12.0005 13.7761 12.0005 13.5C12.0005 13.2239 12.2243 13 12.5005 13H16.5005C16.6236 13 16.7363 13.0446 16.8234 13.1184C16.8234 13.1183 16.8234 13.1184 16.8234 13.1184C16.9316 13.2101 17.0003 13.347 17.0003 13.5C17.0003 13.7761 16.7765 14 16.5003 14ZM10.0003 7.5C11.1754 7.5 12.1612 8.31081 12.4287 9.40352C12.101 9.53685 11.789 9.70087 11.4964 9.89201C11.4411 9.11399 10.7924 8.5 10.0003 8.5C9.17183 8.5 8.50026 9.17157 8.50026 10C8.50026 10.7921 9.11426 11.4408 9.89229 11.4962C9.70116 11.7888 9.53714 12.1007 9.40381 12.4284C8.31108 12.1609 7.50026 11.1752 7.50026 10C7.50026 8.61929 8.61954 7.5 10.0003 7.5Z" fill="#212121"/>
</svg>
