<?xml version="1.0" encoding="UTF-8"?>
<svg width="48px" height="48px" viewBox="0 0 48 48" version="1.1" xmlns="http://www.w3.org/2000/svg" xmlns:xlink="http://www.w3.org/1999/xlink">
    <!-- Generator: Sketch 59.1 (86144) - https://sketch.com -->
    <title>ic_document_copy_48_filled</title>
    <desc>Created with Sketch.</desc>
    <g id="ðŸ”-Product-Icons" stroke="none" stroke-width="1" fill="none" fill-rule="evenodd">
        <g id="ic_document_copy_48_filled" fill="#212121">
            <path d="M11.5004316,10.3756744 L11.5,33.75 C11.5,37.4779221 14.5220779,40.5 18.25,40.5 L33.6238675,40.5005808 C32.9567459,41.9745319 31.4731284,43 29.75,43 L18.25,43 C13.1413661,43 9,38.8586339 9,33.75 L9,14.25 C9,12.5264771 10.0259377,11.0425748 11.5004316,10.3756744 Z M25,5 L25,14.75 C25,17.0972102 26.9027898,19 29.25,19 L39,19 L39,33.75 C39,36.0972102 37.0972102,38 34.75,38 L18.25,38 C15.9027898,38 14,36.0972102 14,33.75 L14,9.25 C14,6.90278981 15.9027898,5 18.25,5 L25,5 Z M28.7625631,6.24479618 L37.7552038,15.2374369 C38.1232856,15.6055187 38.4168784,16.0341651 38.6262801,16.4999535 L29.25,16.5 C28.2835017,16.5 27.5,15.7164983 27.5,14.75 L27.5010424,5.37416779 C27.9664459,5.58354017 28.3947437,5.87697672 28.7625631,6.24479618 Z" id="ðŸŽ¨-Color"></path>
        </g>
    </g>
</svg>