<svg width="20" height="20" viewBox="0 0 20 20" fill="none" xmlns="http://www.w3.org/2000/svg">
<path d="M10.0001 2C8.68278 2 7.6248 2.26351 6.89168 2.5301C6.52515 2.66339 6.23936 2.79759 6.04221 2.90046C5.94359 2.95191 5.86703 2.99558 5.81349 3.02748C5.78671 3.04343 5.76568 3.05645 5.75051 3.06603L5.73217 3.07776L5.72632 3.08158L5.72423 3.08296L5.7234 3.08351C5.72323 3.08362 5.7227 3.08397 6.00005 3.5L5.7234 3.08351C5.49363 3.23669 5.43085 3.54759 5.58403 3.77735C5.73699 4.00679 6.04677 4.06903 6.27643 3.91667C6.27584 3.91706 6.27632 3.91675 6.27643 3.91667L6.28451 3.91151C6.29253 3.90644 6.30617 3.89797 6.32529 3.88658C6.36355 3.86379 6.4237 3.82934 6.50477 3.78704C6.66699 3.70241 6.91245 3.58661 7.23342 3.4699C7.8753 3.23649 8.81733 3 10.0001 3C11.1828 3 12.1248 3.23649 12.7667 3.4699C13.0877 3.58661 13.3331 3.70241 13.4953 3.78704C13.5764 3.82934 13.6366 3.86379 13.6748 3.88658C13.6939 3.89797 13.7076 3.90644 13.7156 3.91151L13.7227 3.91603L13.9848 3.52283C13.7227 3.91603 13.7226 3.91593 13.7227 3.91603C13.9524 4.06865 14.263 4.0069 14.4161 3.77735C14.5693 3.54759 14.5072 3.23715 14.2774 3.08397L14.0001 3.5C14.2774 3.08397 14.2776 3.08409 14.2774 3.08397L14.2759 3.08296L14.2738 3.08158L14.2679 3.07776L14.2496 3.06603C14.2344 3.05645 14.2134 3.04343 14.1866 3.02748C14.1331 2.99558 14.0565 2.95191 13.9579 2.90046C13.7607 2.79759 13.475 2.66339 13.1084 2.5301C12.3753 2.26351 11.3173 2 10.0001 2Z" fill="#212121"/>
<path d="M4 8C4 6.89543 4.89543 6 6 6H10C11.1046 6 12 6.89543 12 8V12C12 13.1046 11.1046 14 10 14H6C4.89543 14 4 13.1046 4 12V8Z" fill="#212121"/>
<path d="M13 11.4771L14.7922 12.7697C15.2883 13.1275 15.9809 12.7731 15.9809 12.1614V7.83855C15.9809 7.22694 15.2883 6.87249 14.7922 7.23026L13 8.52289V11.4771Z" fill="#212121"/>
<path d="M6.89168 17.4699C7.6248 17.7365 8.68278 18 10.0001 18C11.3173 18 12.3753 17.7365 13.1084 17.4699C13.475 17.3366 13.7607 17.2024 13.9579 17.0995C14.0565 17.0481 14.1331 17.0044 14.1866 16.9725C14.2134 16.9566 14.2344 16.9436 14.2496 16.934L14.2679 16.9222L14.2738 16.9184L14.2759 16.917L14.2767 16.9165C14.2769 16.9164 14.2774 16.916 14.0001 16.5L14.2767 16.9165C14.5065 16.7633 14.5693 16.4524 14.4161 16.2226C14.263 15.9931 13.9531 15.9309 13.7234 16.0835C13.7232 16.0836 13.7227 16.084 13.9848 16.4772L13.7234 16.0835L13.7156 16.0885C13.7076 16.0936 13.6939 16.102 13.6748 16.1134C13.6366 16.1362 13.5764 16.1707 13.4953 16.213C13.3331 16.2976 13.0877 16.4134 12.7667 16.5301C12.1248 16.7635 11.1828 17 10.0001 17C8.81733 17 7.8753 16.7635 7.23342 16.5301C6.91245 16.4134 6.66699 16.2976 6.50477 16.213C6.4237 16.1707 6.36355 16.1362 6.32529 16.1134C6.30617 16.102 6.29253 16.0936 6.28451 16.0885L6.27711 16.0838L6.27606 16.0831C6.04643 15.931 5.73691 15.9933 5.58403 16.2226C5.43085 16.4524 5.49294 16.7628 5.7227 16.916L6.00005 16.5C5.7227 16.916 5.72254 16.9159 5.7227 16.916L5.72423 16.917L5.72632 16.9184L5.73217 16.9222L5.75051 16.934C5.76568 16.9436 5.78671 16.9566 5.81349 16.9725C5.86703 17.0044 5.94359 17.0481 6.04221 17.0995C6.23936 17.2024 6.52515 17.3366 6.89168 17.4699Z" fill="#212121"/>
</svg>
