<svg width="48" height="48" viewBox="0 0 48 48" fill="none" xmlns="http://www.w3.org/2000/svg">
<path d="M16.5358 5.45151C33.8238 -1.46711 50.882 16.8873 41.5929 33.6076C37.3737 41.2022 26.8909 47.318 14.6846 41.5336L6.20039 43.9576C4.88395 44.3338 3.66742 43.1222 4.03682 41.8046C4.54321 39.9986 5.74306 35.7407 6.44459 33.4333C1.18328 24.045 4.73099 10.1758 16.5358 5.45151ZM15.9958 20.2505C15.9958 20.9409 16.5555 21.5005 17.2458 21.5005H30.7503C31.4406 21.5005 32.0003 20.9409 32.0003 20.2505C32.0003 19.5602 31.4406 19.0005 30.7503 19.0005H17.2458C16.5555 19.0005 15.9958 19.5602 15.9958 20.2505ZM17.2503 26.4755C16.5599 26.4755 16.0003 27.0352 16.0003 27.7255C16.0003 28.4159 16.5599 28.9755 17.2503 28.9755H26.7503C27.4406 28.9755 28.0003 28.4159 28.0003 27.7255C28.0003 27.0352 27.4406 26.4755 26.7503 26.4755H17.2503Z" fill="#212121"/>
</svg>
