<svg width="48" height="48" viewBox="0 0 48 48" fill="none" xmlns="http://www.w3.org/2000/svg">
<path d="M26.0011 12C32.3382 12 35.9331 16.1946 36.4559 21.2603L36.6158 21.2602C40.694 21.2602 44 24.5577 44 28.6253C44 32.6929 40.694 35.9904 36.6158 35.9904L36.547 35.99L32.2479 43.1489C31.7502 43.9775 30.6752 44.2457 29.8466 43.7481C29.0641 43.2781 28.7814 42.293 29.1716 41.4871L29.2475 41.3468L32.464 35.99H28.547L24.2479 43.1489C23.7502 43.9775 22.6752 44.2457 21.8466 43.7481C21.0641 43.2781 20.7814 42.293 21.1716 41.4871L21.2475 41.3468L24.464 35.99H20.547L16.2479 43.1489C15.7502 43.9775 14.6752 44.2457 13.8466 43.7481C13.0641 43.2781 12.7814 42.293 13.1716 41.4871L13.2475 41.3468L16.464 35.99L15.3864 35.9904C11.3082 35.9904 8.00222 32.6929 8.00222 28.6253C8.00222 24.5577 11.3082 21.2602 15.3864 21.2602L15.5463 21.2603C16.0722 16.1613 19.664 12 26.0011 12ZM13.1779 4.00223C14.768 4.08754 16.3119 4.54577 17.7041 5.34955C19.8143 6.56786 21.3217 8.4292 22.1219 10.5432C18.1057 11.687 15.2447 14.6259 14.095 18.5916L14.0032 18.9244L13.8877 19.4001L13.475 19.477C11.184 19.9579 9.19807 21.28 7.85857 23.109L7.54971 22.9374C6.23467 22.1781 5.11833 21.1471 4.26545 19.9087C3.70647 19.0968 4.0681 17.9756 4.99616 17.6435C8.281 16.4678 10.0508 15.1447 11.0631 13.2124C12.1685 11.1022 12.3728 8.86426 11.6388 5.8575C11.4002 4.8795 12.1727 3.9483 13.1779 4.00223Z" fill="#212121"/>
</svg>
