<svg width="32" height="32" viewBox="0 0 32 32" fill="none" xmlns="http://www.w3.org/2000/svg">
<path d="M5 7.5C5 6.11929 6.11929 5 7.5 5H13C13.5523 5 14 4.55228 14 4C14 3.44772 13.5523 3 13 3H7.5C5.01472 3 3 5.01472 3 7.5V24.5C3 26.9853 5.01472 29 7.5 29H24.5C26.9853 29 29 26.9853 29 24.5V19C29 18.4477 28.5523 18 28 18C27.4477 18 27 18.4477 27 19V24.5C27 25.8807 25.8807 27 24.5 27H16V19.7694C16 17.6878 14.3125 16.0002 12.2308 16.0002H5V7.5ZM5 18.0002H12.2308C13.2079 18.0002 14 18.7923 14 19.7694V27H7.5C6.11929 27 5 25.8807 5 24.5V18.0002ZM18 4C18 3.44772 18.4477 3 19 3H28.0003C28.5526 3 29.0003 3.44772 29.0003 4V13C29.0003 13.5523 28.5526 14 28.0003 14C27.448 14 27.0003 13.5523 27.0003 13V6.41413L19.7071 13.7073C19.3166 14.0978 18.6834 14.0978 18.2929 13.7073C17.9024 13.3168 17.9024 12.6836 18.2929 12.2931L25.586 5H19C18.4477 5 18 4.55228 18 4Z" fill="#212121"/>
</svg>
