<svg width="20" height="20" viewBox="0 0 20 20" fill="none" xmlns="http://www.w3.org/2000/svg">
<path d="M17.0001 2.5C17.0001 2.22386 16.7762 2 16.5001 2C16.224 2 16.0001 2.22386 16.0001 2.5V3H15.5001C15.224 3 15.0001 3.22386 15.0001 3.5C15.0001 3.77614 15.224 4 15.5001 4H16.0001V4.5C16.0001 4.77614 16.224 5 16.5001 5C16.7762 5 17.0001 4.77614 17.0001 4.5V4H17.5001C17.7762 4 18.0001 3.77614 18.0001 3.5C18.0001 3.22386 17.7762 3 17.5001 3H17.0001V2.5ZM7.0001 5.5C7.0001 5.77614 6.77624 6 6.5001 6H6.0001V6.5C6.0001 6.77614 5.77624 7 5.5001 7C5.22396 7 5.0001 6.77614 5.0001 6.5V6H4.5001C4.22396 6 4.0001 5.77614 4.0001 5.5C4.0001 5.22386 4.22396 5 4.5001 5H5.0001V4.5C5.0001 4.22386 5.22396 4 5.5001 4C5.77624 4 6.0001 4.22386 6.0001 4.5V5H6.5001C6.77624 5 7.0001 5.22386 7.0001 5.5ZM16.0001 14.5C16.0001 14.7761 15.7762 15 15.5001 15H15.0001V15.5C15.0001 15.7761 14.7762 16 14.5001 16C14.224 16 14.0001 15.7761 14.0001 15.5V15H13.5001C13.224 15 13.0001 14.7761 13.0001 14.5C13.0001 14.2239 13.224 14 13.5001 14H14.0001V13.5C14.0001 13.2239 14.224 13 14.5001 13C14.7762 13 15.0001 13.2239 15.0001 13.5V14H15.5001C15.7762 14 16.0001 14.2239 16.0001 14.5ZM13.4346 6.56566C12.687 5.81812 11.475 5.81812 10.7275 6.56566L10.2501 7.04304L12.9572 9.75015L13.4346 9.27278C14.1821 8.52523 14.1821 7.31321 13.4346 6.56566ZM12.2501 10.4573L9.54296 7.75014L2.56067 14.7324C1.81311 15.4799 1.81311 16.6919 2.56066 17.4395C3.30821 18.187 4.52021 18.187 5.26776 17.4395L12.2501 10.4573Z" fill="#212121"/>
</svg>
