<svg width="24" height="24" viewBox="0 0 24 24" fill="none" xmlns="http://www.w3.org/2000/svg">
<path d="M21 12.0505V8.5H3V17.75C3 19.5449 4.45507 21 6.25 21H13.1718C13.0562 20.6334 13 20.2541 13 19.875V19.772C13 18.2401 14.2419 17 15.7727 17H16.0505C15.4022 16.3647 15 15.4793 15 14.5C15 12.567 16.567 11 18.5 11C19.4793 11 20.3647 11.4022 21 12.0505ZM21 6.25C21 4.45507 19.5449 3 17.75 3H6.25C4.45507 3 3 4.45507 3 6.25V7H21V6.25ZM21 14.5C21 15.8807 19.8807 17 18.5 17C17.1193 17 16 15.8807 16 14.5C16 13.1193 17.1193 12 18.5 12C19.8807 12 21 13.1193 21 14.5ZM23 19.875C23 21.4315 21.7143 23 18.5 23C15.2857 23 14 21.4374 14 19.875V19.772C14 18.7929 14.7937 18 15.7727 18H21.2273C22.2063 18 23 18.793 23 19.772V19.875Z" fill="#212121"/>
</svg>
