<svg width="21" height="20" viewBox="0 0 21 20" fill="none" xmlns="http://www.w3.org/2000/svg">
<path d="M5.25886 3.13856C5.39067 2.8989 5.6425 2.75 5.91602 2.75H14.916C15.1895 2.75 15.4414 2.8989 15.5732 3.13856L18.3232 8.13856C18.4716 8.40835 18.44 8.74142 18.2435 8.97851L17.9279 9.35944C17.6705 8.96615 17.3235 8.63728 16.9167 8.40196C16.4745 8.14611 15.9608 8 15.416 8C13.7592 8 12.416 9.34315 12.416 11C12.416 11.5382 12.5577 12.0432 12.8058 12.4799L12.5928 13.0207C11.3647 13.1792 10.416 14.2289 10.416 15.5C10.416 15.7143 10.4296 15.9247 10.4567 16.1304C10.5175 16.5933 10.6461 17.0291 10.8373 17.4302C10.8858 17.5321 10.9382 17.6313 10.9942 17.7277L10.9935 17.7285C10.8511 17.9005 10.6393 18 10.416 18C10.1927 18 9.98099 17.9005 9.83851 17.7285L2.58851 8.97851C2.39206 8.74142 2.36048 8.40835 2.50886 8.13856L5.25886 3.13856ZM6.35948 4.25L4.57198 7.5H6.72138L7.85888 4.25H6.35948ZM8.48855 13.7482L6.55959 9H4.55431L8.48855 13.7482ZM8.17864 9L10.4053 14.481L12.5645 9H8.17864ZM9.4481 4.25L8.3106 7.5H12.5905L11.3931 4.25H9.4481ZM12.9917 4.25L14.189 7.5H16.2601L14.4726 4.25H12.9917ZM12.5762 14.0386C11.9115 14.1926 11.416 14.7885 11.416 15.5C11.416 15.672 11.4269 15.8388 11.4481 16C11.49 16.3183 11.572 16.6151 11.6895 16.8885C11.7057 16.9261 11.7225 16.9633 11.74 17C11.9489 17.4383 12.2518 17.8127 12.6282 18.1148C13.3694 18.7098 14.3629 19 15.416 19C16.4691 19 17.4626 18.7098 18.2039 18.1148C18.957 17.5103 19.416 16.6161 19.416 15.5C19.416 14.6716 18.7444 14 17.916 14L12.916 14C12.7991 14 12.6854 14.0134 12.5762 14.0386ZM17.2433 10.1857C17.3543 10.4344 17.416 10.71 17.416 11C17.416 11.7403 17.0138 12.3866 16.416 12.7324C16.1218 12.9026 15.7803 13 15.416 13C14.3114 13 13.416 12.1046 13.416 11C13.416 10.9758 13.4164 10.9517 13.4173 10.9277C13.4341 10.4548 13.6151 10.0237 13.905 9.68963C14.2717 9.26716 14.8127 9 15.416 9C15.6787 9 15.9296 9.05066 16.1595 9.14274C16.2483 9.17834 16.334 9.22012 16.416 9.26756C16.7796 9.47791 17.0709 9.79946 17.2433 10.1857Z" fill="#212121"/>
</svg>
