<svg width="21" height="20" viewBox="0 0 21 20" fill="none" xmlns="http://www.w3.org/2000/svg">
<path d="M5.48727 3.24275C5.57763 3.09215 5.74039 3 5.91602 3H14.916C15.0917 3 15.2544 3.09215 15.3448 3.24275L18.3448 8.24275C18.4542 8.4251 18.4363 8.65672 18.3001 8.82009L17.8935 9.30803C17.64 8.93746 17.3057 8.62695 16.9167 8.40195C16.4745 8.14611 15.9608 8 15.416 8H17.0329L14.6329 4H12.6545L14.2545 8H15.416C14.5275 8 13.7292 8.38625 13.1799 8.99999H7.647L10.416 16.1203L10.446 16.0431C10.4493 16.0723 10.4528 16.1014 10.4567 16.1304C10.5175 16.5933 10.6461 17.0291 10.8373 17.4302C10.8719 17.5028 10.9085 17.5741 10.9469 17.644L10.8001 17.8201C10.7051 17.9341 10.5644 18 10.416 18C10.2676 18 10.1269 17.9341 10.0319 17.8201L2.53191 8.82009C2.39577 8.65672 2.37786 8.4251 2.48727 8.24275L5.48727 3.24275ZM6.19911 4L3.79911 8H6.57756L8.17756 4H6.19911ZM8.84074 14.8286L6.57405 8.99999H3.98354L8.84074 14.8286ZM9.25459 4L7.65459 8H13.1774L11.5774 4H9.25459ZM11.6521 16.7977C11.5545 16.5497 11.4854 16.2834 11.4481 16C11.4269 15.8388 11.416 15.672 11.416 15.5C11.416 14.9093 11.7575 14.3983 12.2538 14.1537C12.3814 14.0908 12.5193 14.0455 12.6643 14.021C12.7461 14.0072 12.8302 14 12.916 14L17.916 14C18.7444 14 19.416 14.6716 19.416 15.5C19.416 16.6161 18.957 17.5103 18.2039 18.1148C17.4626 18.7098 16.4691 19 15.416 19C14.3629 19 13.3694 18.7098 12.6282 18.1148C12.2518 17.8127 11.9489 17.4383 11.74 17C11.7086 16.934 11.6792 16.8665 11.6521 16.7977ZM14.0473 9.54166C14.4051 9.20575 14.8865 8.99999 15.416 8.99999C15.7803 8.99999 16.1218 9.09739 16.416 9.26756C16.463 9.29471 16.5087 9.32371 16.5531 9.35447C16.8341 9.54904 17.0629 9.81375 17.2141 10.1233C17.3434 10.388 17.416 10.6855 17.416 11C17.416 11.7403 17.0138 12.3866 16.416 12.7324C16.1218 12.9026 15.7803 13 15.416 13C15.2296 13 15.0491 12.9745 14.8779 12.9268C14.7146 12.8812 14.5596 12.8155 14.416 12.7324C13.8182 12.3866 13.416 11.7403 13.416 11C13.416 10.4249 13.6587 9.90651 14.0473 9.54166Z" fill="#212121"/>
</svg>
