<svg width="28" height="28" viewBox="0 0 28 28" fill="none" xmlns="http://www.w3.org/2000/svg">
<path d="M19.25 2C19.6642 2 20 2.33579 20 2.75V4H20.25C21.7688 4 23 5.23122 23 6.75V18.6895C23 19.0872 22.8418 19.4687 22.5605 19.75L17.75 24.5605C17.4687 24.8418 17.0872 25 16.6895 25H7.75C6.23122 25 5 23.7688 5 22.25V6.75C5 5.23122 6.23122 4 7.75 4H8V2.75C8 2.33579 8.33579 2 8.75 2C9.16421 2 9.5 2.33579 9.5 2.75V4H13.25V2.75C13.25 2.33579 13.5858 2 14 2C14.4142 2 14.75 2.33579 14.75 2.75V4H18.5V2.75C18.5 2.33579 18.8358 2 19.25 2ZM7.75 5.5C7.05964 5.5 6.5 6.05964 6.5 6.75V22.25C6.5 22.9404 7.05964 23.5 7.75 23.5H16V20.75C16 19.2312 17.2312 18 18.75 18H21.5V6.75C21.5 6.05964 20.9404 5.5 20.25 5.5H7.75ZM18.75 19.5C18.0596 19.5 17.5 20.0596 17.5 20.75V22.6895L20.6895 19.5H18.75ZM13.3271 18.0039C13.7051 18.0425 14 18.3618 14 18.75C14 19.1382 13.7051 19.4575 13.3271 19.4961L13.25 19.5H9.75C9.33579 19.5 9 19.1642 9 18.75C9 18.3358 9.33579 18 9.75 18H13.25L13.3271 18.0039ZM18.3271 13.5039C18.7051 13.5425 19 13.8618 19 14.25C19 14.6382 18.7051 14.9575 18.3271 14.9961L18.25 15H9.75C9.33579 15 9 14.6642 9 14.25C9 13.8358 9.33579 13.5 9.75 13.5H18.25L18.3271 13.5039ZM18.3271 9.00391C18.7051 9.04253 19 9.36183 19 9.75C19 10.1382 18.7051 10.4575 18.3271 10.4961L18.25 10.5H9.75C9.33579 10.5 9 10.1642 9 9.75C9 9.33579 9.33579 9 9.75 9H18.25L18.3271 9.00391Z" fill="#212121"/>
</svg>
