<svg width="20" height="20" viewBox="0 0 20 20" fill="none" xmlns="http://www.w3.org/2000/svg">
<path d="M5.75 3H14.25C15.7688 3 17 4.23122 17 5.75V14.25C17 15.7688 15.7688 17 14.25 17H5.75C4.23122 17 3 15.7688 3 14.25V5.75C3 4.23122 4.23122 3 5.75 3Z" fill="url(#paint0_linear_72095_8071)"/>
<path d="M6.75 8C7.16421 8 7.5 7.66421 7.5 7.25C7.5 6.83579 7.16421 6.5 6.75 6.5C6.33579 6.5 6 6.83579 6 7.25C6 7.66421 6.33579 8 6.75 8ZM7.5 10.25C7.5 10.6642 7.16421 11 6.75 11C6.33579 11 6 10.6642 6 10.25C6 9.83579 6.33579 9.5 6.75 9.5C7.16421 9.5 7.5 9.83579 7.5 10.25ZM6.75 14C7.16421 14 7.5 13.6642 7.5 13.25C7.5 12.8358 7.16421 12.5 6.75 12.5C6.33579 12.5 6 12.8358 6 13.25C6 13.6642 6.33579 14 6.75 14ZM9 7.5C9 7.22386 9.22386 7 9.5 7H13.5C13.7761 7 14 7.22386 14 7.5C14 7.77614 13.7761 8 13.5 8H9.5C9.22386 8 9 7.77614 9 7.5ZM9.5 10C9.22386 10 9 10.2239 9 10.5C9 10.7761 9.22386 11 9.5 11H13.5C13.7761 11 14 10.7761 14 10.5C14 10.2239 13.7761 10 13.5 10H9.5ZM9 13.5C9 13.2239 9.22386 13 9.5 13H13.5C13.7761 13 14 13.2239 14 13.5C14 13.7761 13.7761 14 13.5 14H9.5C9.22386 14 9 13.7761 9 13.5Z" fill="url(#paint1_linear_72095_8071)"/>
<path d="M5.75 3H14.25C15.7688 3 17 4.23122 17 5.75V14.25C17 15.7688 15.7688 17 14.25 17H5.75C4.23122 17 3 15.7688 3 14.25V5.75C3 4.23122 4.23122 3 5.75 3Z" fill="url(#paint2_radial_72095_8071)"/>
<path d="M5.75 3H14.25C15.7688 3 17 4.23122 17 5.75V14.25C17 15.7688 15.7688 17 14.25 17H5.75C4.23122 17 3 15.7688 3 14.25V5.75C3 4.23122 4.23122 3 5.75 3Z" fill="url(#paint3_radial_72095_8071)"/>
<path d="M5.75 3H14.25C15.7688 3 17 4.23122 17 5.75V14.25C17 15.7688 15.7688 17 14.25 17H5.75C4.23122 17 3 15.7688 3 14.25V5.75C3 4.23122 4.23122 3 5.75 3Z" fill="url(#paint4_radial_72095_8071)"/>
<path d="M5.75 3H14.25C15.7688 3 17 4.23122 17 5.75V14.25C17 15.7688 15.7688 17 14.25 17H5.75C4.23122 17 3 15.7688 3 14.25V5.75C3 4.23122 4.23122 3 5.75 3Z" fill="url(#paint5_radial_72095_8071)"/>
<path d="M18.7829 8.21318L18.0175 7.9646C17.7848 7.88731 17.5733 7.75684 17.3999 7.58357C17.2265 7.41029 17.0959 7.199 17.0186 6.96646L16.7698 6.20161C16.749 6.14266 16.7104 6.09161 16.6593 6.0555C16.6083 6.01939 16.5473 6 16.4847 6C16.4221 6 16.3611 6.01939 16.31 6.0555C16.259 6.09161 16.2204 6.14266 16.1996 6.20161L15.9508 6.96646C15.875 7.19736 15.7467 7.40761 15.5761 7.58076C15.4055 7.75392 15.1971 7.88529 14.9672 7.9646L14.2018 8.21318C14.1428 8.23398 14.0917 8.27255 14.0555 8.32358C14.0194 8.37461 14 8.43558 14 8.49809C14 8.5606 14.0194 8.62158 14.0555 8.6726C14.0917 8.72363 14.1428 8.7622 14.2018 8.783L14.9672 9.03158C15.2003 9.10926 15.412 9.24031 15.5855 9.41428C15.7589 9.58824 15.8893 9.8003 15.9661 10.0335L16.2149 10.7984C16.2357 10.8573 16.2743 10.9084 16.3254 10.9445C16.3764 10.9806 16.4374 11 16.5 11C16.5626 11 16.6236 10.9806 16.6746 10.9445C16.7257 10.9084 16.7643 10.8573 16.7851 10.7984L17.0339 10.0335C17.1113 9.80101 17.2418 9.58971 17.4152 9.41644C17.5886 9.24317 17.8001 9.1127 18.0328 9.0354L18.7982 8.78682C18.8572 8.76603 18.9083 8.72746 18.9445 8.67643C18.9806 8.6254 19 8.56443 19 8.50191C19 8.4394 18.9806 8.37843 18.9445 8.3274C18.9083 8.27637 18.8572 8.2378 18.7982 8.21701L18.7829 8.21318Z" fill="url(#paint6_radial_72095_8071)"/>
<path d="M13.8777 0.282251L14.226 1.35305C14.3343 1.67859 14.5171 1.97441 14.7599 2.21699C15.0026 2.45957 15.2987 2.64223 15.6245 2.75044L16.6961 3.09845L16.7175 3.10381C16.8001 3.13292 16.8716 3.18692 16.9222 3.25836C16.9728 3.3298 17 3.41516 17 3.50268C17 3.5902 16.9728 3.67556 16.9222 3.747C16.8716 3.81844 16.8001 3.87244 16.7175 3.90155L15.6459 4.24956C15.3201 4.35778 15.0241 4.54044 14.7813 4.78302C14.5385 5.0256 14.3558 5.32141 14.2475 5.64696L13.8992 6.71775C13.87 6.80029 13.816 6.87175 13.7445 6.92231C13.673 6.97286 13.5876 7.00001 13.5 7.00001C13.4124 7.00001 13.327 6.97286 13.2555 6.92231C13.2484 6.91732 13.2416 6.91213 13.2349 6.90675C13.1736 6.85755 13.1271 6.79215 13.1008 6.71775L12.7525 5.64696C12.7338 5.59014 12.7128 5.53422 12.6897 5.47932C12.5796 5.21872 12.4202 4.98116 12.2197 4.77999C12.1815 4.74173 12.1421 4.70496 12.1014 4.66973C11.883 4.48064 11.6292 4.33588 11.3541 4.24421L10.2825 3.8962C10.1999 3.86708 10.1284 3.81308 10.0778 3.74164C10.0272 3.6702 10 3.58484 10 3.49733C10 3.40981 10.0272 3.32445 10.0778 3.25301C10.1284 3.18157 10.1999 3.12757 10.2825 3.09845L11.3541 2.75044C11.6759 2.63941 11.9677 2.45549 12.2066 2.21307C12.4454 1.97065 12.625 1.67631 12.7311 1.35305L13.0794 0.282251C13.1085 0.19972 13.1626 0.128252 13.2341 0.0776997C13.3056 0.0271473 13.391 0 13.4786 0C13.5662 0 13.6516 0.0271473 13.7231 0.0776997C13.7946 0.128252 13.8486 0.19972 13.8777 0.282251Z" fill="url(#paint7_radial_72095_8071)"/>
<defs>
<linearGradient id="paint0_linear_72095_8071" x1="3.5" y1="5.625" x2="13.1617" y2="15.6631" gradientUnits="userSpaceOnUse">
<stop stop-color="#0FAFFF"/>
<stop offset="1" stop-color="#2764E7"/>
</linearGradient>
<linearGradient id="paint1_linear_72095_8071" x1="7.53846" y1="7.07692" x2="12.7972" y2="20.6673" gradientUnits="userSpaceOnUse">
<stop stop-color="white"/>
<stop offset="1" stop-color="#B3E0FF"/>
</linearGradient>
<radialGradient id="paint2_radial_72095_8071" cx="0" cy="0" r="1" gradientUnits="userSpaceOnUse" gradientTransform="translate(16.4688 9.4375) rotate(89.5226) scale(3.75013 1.87285)">
<stop stop-color="#4A43CB"/>
<stop offset="1" stop-color="#4A43CB" stop-opacity="0"/>
</radialGradient>
<radialGradient id="paint3_radial_72095_8071" cx="0" cy="0" r="1" gradientUnits="userSpaceOnUse" gradientTransform="translate(13.5313 4.125) rotate(90.769) scale(4.65667 2.32559)">
<stop stop-color="#4A43CB"/>
<stop offset="1" stop-color="#4A43CB" stop-opacity="0"/>
</radialGradient>
<radialGradient id="paint4_radial_72095_8071" cx="0" cy="0" r="1" gradientUnits="userSpaceOnUse" gradientTransform="translate(13.5312 4.125) rotate(-180) scale(4.40625 2.20052)">
<stop stop-color="#4A43CB"/>
<stop offset="1" stop-color="#4A43CB" stop-opacity="0"/>
</radialGradient>
<radialGradient id="paint5_radial_72095_8071" cx="0" cy="0" r="1" gradientUnits="userSpaceOnUse" gradientTransform="translate(16.5625 9.125) rotate(180) scale(3.1875 1.59187)">
<stop stop-color="#4A43CB"/>
<stop offset="1" stop-color="#4A43CB" stop-opacity="0"/>
</radialGradient>
<radialGradient id="paint6_radial_72095_8071" cx="0" cy="0" r="1" gradientUnits="userSpaceOnUse" gradientTransform="translate(5.375 -12.8125) rotate(63.379) scale(28.6137 22.2808)">
<stop offset="0.718021" stop-color="#FFCD0F"/>
<stop offset="0.990707" stop-color="#E67505"/>
</radialGradient>
<radialGradient id="paint7_radial_72095_8071" cx="0" cy="0" r="1" gradientUnits="userSpaceOnUse" gradientTransform="translate(1.3125 -17.625) rotate(61.1996) scale(30.098 23.4366)">
<stop offset="0.698225" stop-color="#FFCD0F"/>
<stop offset="0.990707" stop-color="#E67505"/>
</radialGradient>
</defs>
</svg>
