<svg width="28" height="28" viewBox="0 0 28 28" fill="none" xmlns="http://www.w3.org/2000/svg">
<path d="M15.4033 15.9043C17.9417 13.3659 22.0573 13.366 24.5957 15.9043C27.1339 18.4427 27.1341 22.5583 24.5957 25.0967C24.3029 25.3891 23.8279 25.3892 23.5352 25.0967C23.2425 24.8039 23.2427 24.329 23.5352 24.0361C25.4877 22.0836 25.4876 18.9175 23.5352 16.9648C21.5825 15.0123 18.4165 15.0123 16.4639 16.9648C14.5117 18.9175 14.5115 22.0836 16.4639 24.0361C16.7566 24.329 16.7567 24.8038 16.4639 25.0967C16.171 25.389 15.6961 25.3892 15.4033 25.0967C12.8652 22.5584 12.8654 18.4427 15.4033 15.9043ZM17.1709 17.6719C18.7329 16.11 21.2651 16.11 22.8271 17.6719C24.3892 19.234 24.3892 21.767 22.8271 23.3291C22.5342 23.6212 22.0593 23.6216 21.7666 23.3291C21.4739 23.0363 21.4741 22.5605 21.7666 22.2676C22.7428 21.2913 22.7429 19.7087 21.7666 18.7324C20.7903 17.7564 19.2077 17.7563 18.2314 18.7324C17.2556 19.7087 17.2555 21.2914 18.2314 22.2676C18.5243 22.5605 18.5243 23.0362 18.2314 23.3291C17.9386 23.6214 17.4637 23.6215 17.1709 23.3291C15.609 21.7671 15.6092 19.234 17.1709 17.6719ZM14.8945 15.0068C14.4203 15.4478 14.0047 15.9501 13.6572 16.5H4.25C3.83579 16.5 3.5 16.8358 3.5 17.25V17.7451L3.50098 17.7627C3.50196 17.7824 3.50382 17.8169 3.50879 17.8633C3.51878 17.9566 3.53971 18.0983 3.58301 18.2715C3.6698 18.6186 3.84409 19.084 4.19336 19.5498C4.86639 20.4472 6.30799 21.5 9.5 21.5C10.7618 21.5 11.7491 21.3325 12.5244 21.0781C12.5635 21.5904 12.6532 22.0881 12.79 22.5664C11.8879 22.8365 10.8034 23 9.5 23C5.94228 23 4.00867 21.8027 2.99414 20.4502C2.49989 19.7912 2.25207 19.1313 2.12793 18.6348C2.06582 18.3863 2.03395 18.1762 2.01758 18.0234C2.00938 17.9469 2.00524 17.8841 2.00293 17.8379C2.00178 17.8149 2.00036 17.796 2 17.7812V17.25C2 16.0074 3.00736 15 4.25 15H14.75C14.7986 15 14.8467 15.0038 14.8945 15.0068ZM9.5 4C11.9853 4 14 6.01472 14 8.5C14 10.9853 11.9853 13 9.5 13C7.01472 13 5 10.9853 5 8.5C5 6.01472 7.01472 4 9.5 4ZM20 6C21.933 6 23.5 7.567 23.5 9.5C23.5 11.433 21.933 13 20 13C18.067 13 16.5 11.433 16.5 9.5C16.5 7.567 18.067 6 20 6ZM9.5 5.5C7.84315 5.5 6.5 6.84315 6.5 8.5C6.5 10.1569 7.84315 11.5 9.5 11.5C11.1569 11.5 12.5 10.1569 12.5 8.5C12.5 6.84315 11.1569 5.5 9.5 5.5ZM20 7.5C18.8954 7.5 18 8.39543 18 9.5C18 10.6046 18.8954 11.5 20 11.5C21.1046 11.5 22 10.6046 22 9.5C22 8.39543 21.1046 7.5 20 7.5Z" fill="#212121"/>
</svg>
