<svg width="28" height="28" viewBox="0 0 28 28" fill="none" xmlns="http://www.w3.org/2000/svg">
<path d="M15.821 6.5H23.75C24.8867 6.5 25.8266 7.34297 25.9785 8.43788L25.9948 8.59595L26 8.75V14.4009C24.6303 12.9242 22.6731 12 20.5 12C16.3579 12 13 15.3579 13 19.5C13 21.1884 13.5579 22.7465 14.4995 24H4.25C3.05914 24 2.08436 23.0748 2.00519 21.904L2 21.75V10.499L10.2069 10.5L10.4034 10.4914C10.794 10.4572 11.169 10.3214 11.4909 10.0977L11.6473 9.9785L15.821 6.5ZM10.2069 4C10.6675 4 11.1153 4.14129 11.4909 4.40235L11.6473 4.5215L13.75 6.273L10.6871 8.82617L10.6022 8.88738C10.5136 8.94232 10.4145 8.9782 10.3113 8.9927L10.2069 9L2 8.999V6.25C2 5.05914 2.92516 4.08436 4.09595 4.00519L4.25 4H10.2069ZM20.5 13C24.0899 13 27 15.9102 27 19.5C27 23.0899 24.0898 26 20.5 26C16.9101 26 14 23.0898 14 19.5C14 15.9101 16.9102 13 20.5 13ZM16.5 19C16.2239 19 16 19.2239 16 19.5C16 19.7761 16.2239 20 16.5 20H23.2929L21.1464 22.1464C20.9512 22.3417 20.9512 22.6583 21.1464 22.8536C21.3417 23.0488 21.6583 23.0488 21.8536 22.8536L24.8536 19.8536C24.9015 19.8056 24.9377 19.7504 24.9621 19.6914C24.9861 19.6333 24.9996 19.5697 25 19.503L25 19.5L25 19.497C24.9992 19.37 24.9504 19.2433 24.8536 19.1464L21.8536 16.1464C21.6583 15.9512 21.3417 15.9512 21.1464 16.1464C20.9512 16.3417 20.9512 16.6583 21.1464 16.8536L23.2929 19H16.5Z" fill="#212121"/>
</svg>
