<svg width="20" height="20" viewBox="0 0 20 20" fill="none" xmlns="http://www.w3.org/2000/svg">
<path d="M4.5 3C3.11929 3 2 4.11929 2 5.5V14.5C2 15.8807 3.11929 17 4.5 17H9.59971C9.43777 16.6832 9.30564 16.3486 9.20703 16H4.5C3.67157 16 3 15.3284 3 14.5V8H7.08579C7.48361 8 7.86514 7.84196 8.14645 7.56066L9.70711 6H15.5C16.3284 6 17 6.67157 17 7.5V9.59971C17.3578 9.78261 17.6929 10.0035 18 10.2572V7.5C18 6.11929 16.8807 5 15.5 5H9.70711L8.21967 3.51256C7.89148 3.18437 7.44636 3 6.98223 3H4.5ZM3 5.5C3 4.67157 3.67157 4 4.5 4H6.98223C7.18115 4 7.37191 4.07902 7.51256 4.21967L8.79289 5.5L7.43934 6.85355C7.34557 6.94732 7.21839 7 7.08579 7H3V5.5ZM14.5 10C16.9853 10 19 12.0147 19 14.5C19 16.9853 16.9853 19 14.5 19C12.0147 19 10 16.9853 10 14.5C10 12.0147 12.0147 10 14.5 10ZM16.8532 14.854L16.8557 14.8514C16.9026 14.804 16.938 14.7495 16.9621 14.6914C16.9861 14.6333 16.9996 14.5697 17 14.503L17 14.5L17 14.497C16.9996 14.4303 16.9861 14.3667 16.9621 14.3086C16.9377 14.2496 16.9015 14.1944 16.8536 14.1464L14.8536 12.1464C14.6583 11.9512 14.3417 11.9512 14.1464 12.1464C13.9512 12.3417 13.9512 12.6583 14.1464 12.8536L15.2929 14H12.5C12.2239 14 12 14.2239 12 14.5C12 14.7761 12.2239 15 12.5 15H15.2929L14.1464 16.1464C13.9512 16.3417 13.9512 16.6583 14.1464 16.8536C14.3417 17.0488 14.6583 17.0488 14.8536 16.8536L16.8532 14.854Z" fill="#212121"/>
</svg>
