<svg width="28" height="28" viewBox="0 0 28 28" fill="none" xmlns="http://www.w3.org/2000/svg">
<path d="M2 6.75C2 4.67893 3.67893 3 5.75 3H9.42157C10.1509 3 10.8504 3.28973 11.3661 3.80546L13.25 5.68934L10.3055 8.63388C10.071 8.8683 9.75309 9 9.42157 9H2V6.75ZM2.00391 10.5V20.2501C2.00391 22.3211 3.68284 24.0001 5.75391 24.0001H14.4995C13.5579 22.7466 13 21.1884 13 19.5C13 15.3579 16.3579 12 20.5 12C22.6733 12 24.6307 12.9244 26.0005 14.4015V9.75C26.0005 7.67893 24.3216 6 22.2505 6H15.0607L11.3661 9.69454C10.8504 10.2103 10.1509 10.5 9.42157 10.5H2.00391ZM20.5 13C24.0899 13 27 15.9102 27 19.5C27 23.0899 24.0898 26 20.5 26C16.9101 26 14 23.0898 14 19.5C14 15.9101 16.9102 13 20.5 13ZM16.5 19C16.2239 19 16 19.2239 16 19.5C16 19.7761 16.2239 20 16.5 20H23.2929L21.1464 22.1464C20.9512 22.3417 20.9512 22.6583 21.1464 22.8536C21.3417 23.0488 21.6583 23.0488 21.8536 22.8536L24.8536 19.8536C24.9015 19.8056 24.9377 19.7504 24.9621 19.6914C24.9861 19.6333 24.9996 19.5697 25 19.503L25 19.5L25 19.497C24.9992 19.37 24.9504 19.2433 24.8536 19.1464L21.8536 16.1464C21.6583 15.9512 21.3417 15.9512 21.1464 16.1464C20.9512 16.3417 20.9512 16.6583 21.1464 16.8536L23.2929 19H16.5Z" fill="#212121"/>
</svg>
