<svg width="24" height="24" viewBox="0 0 24 24" fill="none" xmlns="http://www.w3.org/2000/svg">
<path d="M17.5 11C20.5376 11 23 13.4624 23 16.5C23 19.5376 20.5376 22 17.5 22C14.4624 22 12 19.5376 12 16.5C12 13.4624 14.4624 11 17.5 11ZM19.75 6.5C20.8867 6.5 21.8266 7.34297 21.9785 8.43788L21.9948 8.59595L22 8.75L22.0008 11.8104C20.8328 10.6891 19.2469 10 17.5 10C13.9101 10 11 12.9101 11 16.5C11 17.7892 11.3753 18.9907 12.0226 20.0012L4.25 20C3.05914 20 2.08436 19.0748 2.00519 17.904L2 17.75V10.499L8.20693 10.5L8.40335 10.4914C8.79396 10.4572 9.16896 10.3214 9.49094 10.0977L9.64734 9.9785L13.821 6.5H19.75ZM17.7919 13.5452L17.7157 13.5886L17.6464 13.6464L17.5886 13.7157C17.4705 13.8862 17.4705 14.1138 17.5886 14.2843L17.6464 14.3536L19.292 16H14L13.9101 16.0081C13.706 16.0451 13.5451 16.206 13.5081 16.4101L13.5 16.5L13.5081 16.5899C13.5451 16.794 13.706 16.9549 13.9101 16.9919L14 17H19.292L17.6464 18.6464L17.5886 18.7157C17.4536 18.9106 17.4729 19.18 17.6464 19.3536C17.82 19.5271 18.0894 19.5464 18.2843 19.4114L18.3536 19.3536L20.8824 16.8221L20.9281 16.7585L20.9622 16.691L20.9834 16.6281L20.9979 16.5463L21 16.5L20.9972 16.4466L20.9834 16.3719L20.9533 16.2886L20.9112 16.2153L20.8656 16.1589L18.3536 13.6464L18.2843 13.5886C18.1382 13.4873 17.9501 13.4729 17.7919 13.5452ZM8.20693 4C8.66749 4 9.1153 4.14129 9.49094 4.40235L9.64734 4.5215L11.75 6.273L8.68706 8.82617L8.60221 8.88738C8.51363 8.94232 8.41452 8.9782 8.31129 8.9927L8.20693 9L2 8.999V6.25C2 5.05914 2.92516 4.08436 4.09595 4.00519L4.25 4H8.20693Z" fill="#212121"/>
</svg>
