<?xml version="1.0" encoding="UTF-8"?>
<svg width="28px" height="28px" viewBox="0 0 28 28" version="1.1" xmlns="http://www.w3.org/2000/svg" xmlns:xlink="http://www.w3.org/1999/xlink">
    <!-- Generator: Sketch 59.1 (86144) - https://sketch.com -->
    <title>ic_fluent_calendar_week_start_28_filled</title>
    <desc>Created with Sketch.</desc>
    <g id="ðŸ”-Product-Icons" stroke="none" stroke-width="1" fill="none" fill-rule="evenodd">
        <g id="ic_fluent_calendar_week_start_28_filled" fill="#212121" fill-rule="nonzero">
            <path d="M6.25,25 C4.45507456,25 3,23.5449254 3,21.75 L3,6.25 C3,4.45507456 4.45507456,3 6.25,3 L21.75,3 C23.5449254,3 25,4.45507456 25,6.25 L25,21.75 C25,23.5449254 23.5449254,25 21.75,25 L6.25,25 Z M8.75,19.75 C9.12969577,19.75 9.44349096,19.4678461 9.49315338,19.1017706 L9.5,19 L9.5,9 L9.49315338,8.89822944 C9.44349096,8.53215388 9.12969577,8.25 8.75,8.25 C8.37030423,8.25 8.05650904,8.53215388 8.00684662,8.89822944 L8,9 L8,19 L8.00684662,19.1017706 C8.05650904,19.4678461 8.37030423,19.75 8.75,19.75 Z" id="ðŸŽ¨-Color"></path>
        </g>
    </g>
</svg>