<svg width="28" height="28" viewBox="0 0 28 28" fill="none" xmlns="http://www.w3.org/2000/svg">
<path d="M4 7.75C4 5.67893 5.67893 4 7.75 4H15.25C17.3211 4 19 5.67893 19 7.75V16.25C19 18.3211 17.3211 20 15.25 20H9.58485L9.74315 19.7186C9.91154 19.4192 10 19.0815 10 18.7381V14.5714C10 13.8311 9.5978 13.1848 9 12.839V11C9 10.9447 8.99773 10.8898 8.99326 10.8353C8.90889 9.80727 8.04923 9 7 9H4V7.75ZM24.2516 18.6829L20 15.7472V8.24859L24.2516 5.31295C25.4125 4.51142 26.996 5.34235 26.996 6.75302V17.2428C26.996 18.6535 25.4125 19.4844 24.2516 18.6829ZM2.5 21.6667V24C2.5 24.5523 2.94772 25 3.5 25H6.5C7.05228 25 7.5 24.5523 7.5 24V21.6667L8.87157 19.2283C8.95577 19.0786 9 18.9098 9 18.7381V14.5714C9 14.0191 8.55228 13.5714 8 13.5714V11C8 10.9721 7.99886 10.9444 7.99661 10.9171C7.95447 10.4036 7.52437 10 7 10H3C2.44772 10 2 10.4477 2 11V13.5714C1.44772 13.5714 1 14.0191 1 14.5714V18.7381C1 18.8269 1.01184 18.915 1.03493 19.0001C1.05647 19.0794 1.0878 19.1561 1.12843 19.2283L2.5 21.6667ZM3.5 11.5H6.5V13.5714H3.5V11.5Z" fill="#212121"/>
</svg>
