<svg width="48" height="48" viewBox="0 0 48 48" fill="none" xmlns="http://www.w3.org/2000/svg">
<path d="M10.25 9C6.79822 9 4 11.7982 4 15.25V32.75C4 36.2018 6.79822 39 10.25 39H27.75C31.2018 39 34 36.2018 34 32.75V30.3123L39.9612 34.9678C41.6027 36.2497 44 35.0801 44 32.9975V15.0024C44 12.9197 41.6026 11.7502 39.9612 13.0321L34 17.6877V15.25C34 11.7982 31.2018 9 27.75 9H10.25ZM34 20.8598L41.5 15.0024V32.9975L34 27.1402V20.8598ZM31.5 15.25V32.75C31.5 34.8211 29.8211 36.5 27.75 36.5H10.25C8.17893 36.5 6.5 34.8211 6.5 32.75V15.25C6.5 13.1789 8.17893 11.5 10.25 11.5H27.75C29.8211 11.5 31.5 13.1789 31.5 15.25Z" fill="#212121"/>
</svg>
