<svg width="24" height="24" viewBox="0 0 24 24" fill="none" xmlns="http://www.w3.org/2000/svg">
<path d="M12.0127 2.25C12.7466 2.25846 13.4777 2.34326 14.1942 2.50304C14.5069 2.57279 14.7408 2.83351 14.7763 3.15196L14.9465 4.67881C15.0235 5.37986 15.6155 5.91084 16.3211 5.91158C16.5108 5.91188 16.6984 5.87238 16.8737 5.79483L18.2743 5.17956C18.5656 5.05159 18.906 5.12136 19.1234 5.35362C20.1356 6.43464 20.8894 7.73115 21.3282 9.14558C21.4228 9.45058 21.3139 9.78203 21.0568 9.9715L19.8154 10.8866C19.4612 11.1468 19.2521 11.56 19.2521 11.9995C19.2521 12.4389 19.4612 12.8521 19.8161 13.1129L21.0587 14.0283C21.3158 14.2177 21.4248 14.5492 21.3302 14.8543C20.8916 16.2685 20.1382 17.5649 19.1266 18.6461C18.9093 18.8783 18.5693 18.9483 18.278 18.8206L16.8716 18.2045C16.4693 18.0284 16.0072 18.0542 15.627 18.274C15.2468 18.4937 14.9938 18.8812 14.9454 19.3177L14.7764 20.8444C14.7415 21.1592 14.5126 21.4182 14.2045 21.4915C12.7561 21.8361 11.247 21.8361 9.79852 21.4915C9.49039 21.4182 9.26153 21.1592 9.22667 20.8444L9.05785 19.32C9.00826 18.8843 8.75483 18.498 8.37491 18.279C7.995 18.06 7.53369 18.0343 7.13269 18.2094L5.72606 18.8256C5.43471 18.9533 5.09452 18.8833 4.87727 18.6509C3.86511 17.5685 3.11168 16.2705 2.67369 14.8548C2.57935 14.5499 2.68835 14.2186 2.94533 14.0293L4.18867 13.1133C4.54281 12.8531 4.75196 12.4399 4.75196 12.0005C4.75196 11.561 4.54281 11.1478 4.1882 10.8873L2.94565 9.97285C2.68828 9.78345 2.57918 9.45178 2.67386 9.14658C3.11261 7.73215 3.86643 6.43564 4.87861 5.35462C5.09608 5.12236 5.43643 5.05259 5.72773 5.18056L7.12811 5.79572C7.53105 5.97256 7.99429 5.94585 8.37626 5.72269C8.75658 5.50209 9.00977 5.11422 9.05866 4.67764L9.22873 3.15196C9.26425 2.83335 9.49835 2.57254 9.81129 2.50294C10.5286 2.34342 11.2604 2.25865 12.0127 2.25ZM12.0002 8.99995C10.3433 8.99995 9.00018 10.3431 9.00018 12C9.00018 13.6568 10.3433 15 12.0002 15C13.657 15 15.0002 13.6568 15.0002 12C15.0002 10.3431 13.657 8.99995 12.0002 8.99995Z" fill="#212121"/>
</svg>
