<svg width="20" height="20" viewBox="0 0 20 20" fill="none" xmlns="http://www.w3.org/2000/svg">
<path d="M3.5 4.5C3.5 3.94772 3.94772 3.5 4.5 3.5H6.75C7.16421 3.5 7.5 3.16421 7.5 2.75C7.5 2.33579 7.16421 2 6.75 2H4.5C3.11929 2 2 3.11929 2 4.5V6.75C2 7.16421 2.33579 7.5 2.75 7.5C3.16421 7.5 3.5 7.16421 3.5 6.75V4.5ZM3.5 15.5C3.5 16.0523 3.94772 16.5 4.5 16.5H6.75C7.16421 16.5 7.5 16.8358 7.5 17.25C7.5 17.6642 7.16421 18 6.75 18H4.5C3.11929 18 2 16.8807 2 15.5V13.25C2 12.8358 2.33579 12.5 2.75 12.5C3.16421 12.5 3.5 12.8358 3.5 13.25V15.5ZM15.5 3.5C16.0523 3.5 16.5 3.94772 16.5 4.5V6.75C16.5 7.16421 16.8358 7.5 17.25 7.5C17.6642 7.5 18 7.16421 18 6.75V4.5C18 3.11929 16.8807 2 15.5 2H13.25C12.8358 2 12.5 2.33579 12.5 2.75C12.5 3.16421 12.8358 3.5 13.25 3.5H15.5ZM6.5 6C6.08579 6 5.75 6.33579 5.75 6.75V7.75C5.75 8.16421 6.08579 8.5 6.5 8.5C6.91421 8.5 7.25 8.16421 7.25 7.75V7.5H9.25V12.8557C9.53804 11.9351 10.0615 11.1186 10.75 10.4766V7.5H12.75V7.75C12.75 8.16421 13.0858 8.5 13.5 8.5C13.9142 8.5 14.25 8.16421 14.25 7.75V6.75C14.25 6.33579 13.9142 6 13.5 6H6.5ZM19 14.5C19 16.9853 16.9853 19 14.5 19C12.0147 19 10 16.9853 10 14.5C10 12.0147 12.0147 10 14.5 10C16.9853 10 19 12.0147 19 14.5ZM16.8536 12.6464C16.6583 12.4512 16.3417 12.4512 16.1464 12.6464L13.5 15.2929L12.8536 14.6464C12.6583 14.4512 12.3417 14.4512 12.1464 14.6464C11.9512 14.8417 11.9512 15.1583 12.1464 15.3536L13.1464 16.3536C13.3417 16.5488 13.6583 16.5488 13.8536 16.3536L16.8536 13.3536C17.0488 13.1583 17.0488 12.8417 16.8536 12.6464Z" fill="#212121"/>
</svg>
