<svg width="20" height="20" viewBox="0 0 20 20" fill="none" xmlns="http://www.w3.org/2000/svg">
<path d="M4.5 3.5C3.94772 3.5 3.5 3.94772 3.5 4.5V6.75C3.5 7.16421 3.16421 7.5 2.75 7.5C2.33579 7.5 2 7.16421 2 6.75V4.5C2 3.11929 3.11929 2 4.5 2H6.75C7.16421 2 7.5 2.33579 7.5 2.75C7.5 3.16421 7.16421 3.5 6.75 3.5H4.5ZM4.5 16.5C3.94772 16.5 3.5 16.0523 3.5 15.5V13.25C3.5 12.8358 3.16421 12.5 2.75 12.5C2.33579 12.5 2 12.8358 2 13.25V15.5C2 16.8807 3.11929 18 4.5 18H6.75C7.16421 18 7.5 17.6642 7.5 17.25C7.5 16.8358 7.16421 16.5 6.75 16.5H4.5ZM16.5 4.5C16.5 3.94772 16.0523 3.5 15.5 3.5H13.25C12.8358 3.5 12.5 3.16421 12.5 2.75C12.5 2.33579 12.8358 2 13.25 2H15.5C16.8807 2 18 3.11929 18 4.5V6.75C18 7.16421 17.6642 7.5 17.25 7.5C16.8358 7.5 16.5 7.16421 16.5 6.75V4.5ZM5.75 6.75C5.75 6.33579 6.08579 6 6.5 6H13.5C13.9142 6 14.25 6.33579 14.25 6.75V7.75C14.25 8.16421 13.9142 8.5 13.5 8.5C13.0858 8.5 12.75 8.16421 12.75 7.75V7.5H10.75V12.5H10.8895C10.5912 12.9574 10.3592 13.4619 10.207 14H9C8.58579 14 8.25 13.6642 8.25 13.25C8.25 12.8358 8.58579 12.5 9 12.5H9.25V7.5H7.25V7.75C7.25 8.16421 6.91421 8.5 6.5 8.5C6.08579 8.5 5.75 8.16421 5.75 7.75V6.75ZM20 15.5C20 17.9853 17.9853 20 15.5 20C13.0147 20 11 17.9853 11 15.5C11 13.0147 13.0147 11 15.5 11C17.9853 11 20 13.0147 20 15.5ZM17.1464 13.6464L14.5 16.2929L13.8536 15.6464C13.6583 15.4512 13.3417 15.4512 13.1464 15.6464C12.9512 15.8417 12.9512 16.1583 13.1464 16.3536L14.1464 17.3536C14.3417 17.5488 14.6583 17.5488 14.8536 17.3536L17.8536 14.3536C18.0488 14.1583 18.0488 13.8417 17.8536 13.6464C17.6583 13.4512 17.3417 13.4512 17.1464 13.6464Z" fill="#212121"/>
</svg>
