<svg width="24" height="24" viewBox="0 0 24 24" fill="none" xmlns="http://www.w3.org/2000/svg">
<path d="M9 4C9 3.44772 8.55228 3 8 3C7.44772 3 7 3.44772 7 4V6.5C7 6.77614 6.77614 7 6.5 7H4C3.44772 7 3 7.44772 3 8C3 8.55228 3.44772 9 4 9H6.5C7.88071 9 9 7.88071 9 6.5V4ZM9 20C9 20.5523 8.55228 21 8 21C7.44772 21 7 20.5523 7 20V17.5C7 17.2239 6.77614 17 6.5 17H4C3.44772 17 3 16.5523 3 16C3 15.4477 3.44772 15 4 15H6.5C7.88071 15 9 16.1193 9 17.5V20ZM16 3C15.4477 3 15 3.44772 15 4V6.5C15 7.88071 16.1193 9 17.5 9H20C20.5523 9 21 8.55228 21 8C21 7.44772 20.5523 7 20 7H17.5C17.2239 7 17 6.77614 17 6.5V4C17 3.44772 16.5523 3 16 3ZM15 20C15 20.5523 15.4477 21 16 21C16.5523 21 17 20.5523 17 20V17.5C17 17.2239 17.2239 17 17.5 17H20C20.5523 17 21 16.5523 21 16C21 15.4477 20.5523 15 20 15H17.5C16.1193 15 15 16.1193 15 17.5V20Z" fill="#212121"/>
</svg>
