<svg width="20" height="20" viewBox="0 0 20 20" fill="none" xmlns="http://www.w3.org/2000/svg">
<path d="M5.99996 4.50122C5.36604 4.50122 4.82397 4.89445 4.60436 5.4503C4.59564 5.48177 4.58476 5.51304 4.57165 5.54392C4.40983 5.92514 3.96962 6.10299 3.58841 5.94118C3.20723 5.77938 3.02937 5.33925 3.1911 4.95806H3.18629C3.61007 3.81547 4.70992 3.00122 5.99996 3.00122H14C15.29 3.00122 16.3898 3.81547 16.8136 4.95806H16.8105C16.9723 5.33927 16.7944 5.77946 16.4132 5.94127C16.032 6.10308 15.5918 5.92522 15.4299 5.54401L15.4257 5.53373C15.4167 5.51172 15.4089 5.48952 15.4021 5.46721C15.1869 4.90245 14.6403 4.50122 14 4.50122H5.99996ZM3.75 11C3.33579 11 3 10.6642 3 10.25V8.75C3 8.33579 3.33579 8 3.75 8C4.16421 8 4.5 8.33579 4.5 8.75V10.25C4.5 10.6642 4.16421 11 3.75 11ZM16.25 11C15.8358 11 15.5 10.6642 15.5 10.25V8.75C15.5 8.33579 15.8358 8 16.25 8C16.6642 8 17 8.33579 17 8.75V10.25C17 10.6642 16.6642 11 16.25 11ZM3.75 15.5C3.33579 15.5 3 15.8358 3 16.25C3 16.6642 3.33579 17 3.75 17H16.25C16.6642 17 17 16.6642 17 16.25C17 15.8358 16.6642 15.5 16.25 15.5H3.75ZM3 13.75C3 13.3358 3.33579 13 3.75 13H16.25C16.6642 13 17 13.3358 17 13.75C17 14.1642 16.6642 14.5 16.25 14.5H3.75C3.33579 14.5 3 14.1642 3 13.75Z" fill="#212121"/>
</svg>
