<svg width="20" height="20" viewBox="0 0 20 20" fill="none" xmlns="http://www.w3.org/2000/svg">
<path d="M10.0003 3.5C10.2015 3.50001 10.3831 3.62058 10.4612 3.80598L14.4608 13.306C14.568 13.5605 14.4485 13.8537 14.194 13.9608C13.9395 14.068 13.6463 13.9485 13.5392 13.694L11.9839 10H8.01633L6.46082 13.694C6.35365 13.9485 6.06047 14.068 5.80597 13.9608C5.55147 13.8536 5.43203 13.5605 5.5392 13.306L9.53952 3.80596C9.61759 3.62055 9.79918 3.49999 10.0003 3.5ZM8.43742 9H11.5629L10.0003 5.28847L8.43742 9Z" fill="#212121"/>
<path d="M5 16.5C5 16.2239 5.22386 16 5.5 16H14.5C14.7761 16 15 16.2239 15 16.5C15 16.7761 14.7761 17 14.5 17H5.5C5.22386 17 5 16.7761 5 16.5Z" fill="#212121"/>
</svg>
