<svg width="24" height="24" viewBox="0 0 24 24" fill="none" xmlns="http://www.w3.org/2000/svg">
<path d="M5.75 3C4.23122 3 3 4.23122 3 5.75V18.25C3 19.7688 4.23122 21 5.75 21H18.25C19.7688 21 21 19.7688 21 18.25V5.75C21 4.23122 19.7688 3 18.25 3H5.75ZM7.25 7H16.75C17.1642 7 17.5 7.33579 17.5 7.75C17.5 8.16421 17.1642 8.5 16.75 8.5H7.25C6.83579 8.5 6.5 8.16421 6.5 7.75C6.5 7.33579 6.83579 7 7.25 7ZM7.25 11H13.75C14.1642 11 14.5 11.3358 14.5 11.75C14.5 12.1642 14.1642 12.5 13.75 12.5H7.25C6.83579 12.5 6.5 12.1642 6.5 11.75C6.5 11.3358 6.83579 11 7.25 11Z" fill="#212121"/>
</svg>
