<svg width="48" height="48" viewBox="0 0 48 48" fill="none" xmlns="http://www.w3.org/2000/svg">
<path d="M10.25 8C6.79822 8 4 10.7982 4 14.25V33.75C4 37.2018 6.79822 40 10.25 40H37.75C41.2018 40 44 37.2018 44 33.75V14.25C44 10.7982 41.2018 8 37.75 8H10.25ZM10 15.5C10 14.6716 10.6716 14 11.5 14C12.3284 14 13 14.6716 13 15.5V16.5C13 17.3284 12.3284 18 11.5 18C10.6716 18 10 17.3284 10 16.5V15.5ZM36.5 14C37.3284 14 38 14.6716 38 15.5V16.5C38 17.3284 37.3284 18 36.5 18C35.6716 18 35 17.3284 35 16.5V15.5C35 14.6716 35.6716 14 36.5 14ZM10 23.5C10 22.6716 10.6716 22 11.5 22C12.3284 22 13 22.6716 13 23.5V24.5C13 25.3284 12.3284 26 11.5 26C10.6716 26 10 25.3284 10 24.5V23.5ZM36.5 22C37.3284 22 38 22.6716 38 23.5V24.5C38 25.3284 37.3284 26 36.5 26C35.6716 26 35 25.3284 35 24.5V23.5C35 22.6716 35.6716 22 36.5 22ZM10 31.5C10 30.6716 10.6716 30 11.5 30C12.3284 30 13 30.6716 13 31.5V32.5C13 33.3284 12.3284 34 11.5 34C10.6716 34 10 33.3284 10 32.5V31.5ZM36.5 30C37.3284 30 38 30.6716 38 31.5V32.5C38 33.3284 37.3284 34 36.5 34C35.6716 34 35 33.3284 35 32.5V31.5C35 30.6716 35.6716 30 36.5 30Z" fill="#212121"/>
</svg>
