<svg width="24" height="24" viewBox="0 0 24 24" fill="none" xmlns="http://www.w3.org/2000/svg">
<path d="M15.7541 14C16.9961 14 18.0029 15.0069 18.0029 16.2489V17.1673C18.0029 17.7407 17.8237 18.2997 17.4903 18.7662C15.9445 20.9295 13.4202 22.0012 9.99988 22.0012C6.57891 22.0012 4.05595 20.929 2.51379 18.7646C2.18182 18.2987 2.00342 17.7409 2.00342 17.1689V16.2489C2.00342 15.0069 3.01027 14 4.25229 14H15.7541Z" fill="url(#paint0_linear_72095_8729)"/>
<path d="M15.7541 14C16.9961 14 18.0029 15.0069 18.0029 16.2489V17.1673C18.0029 17.7407 17.8237 18.2997 17.4903 18.7662C15.9445 20.9295 13.4202 22.0012 9.99988 22.0012C6.57891 22.0012 4.05595 20.929 2.51379 18.7646C2.18182 18.2987 2.00342 17.7409 2.00342 17.1689V16.2489C2.00342 15.0069 3.01027 14 4.25229 14H15.7541Z" fill="url(#paint1_linear_72095_8729)"/>
<path d="M15.7541 14C16.9961 14 18.0029 15.0069 18.0029 16.2489V17.1673C18.0029 17.7407 17.8237 18.2997 17.4903 18.7662C15.9445 20.9295 13.4202 22.0012 9.99988 22.0012C6.57891 22.0012 4.05595 20.929 2.51379 18.7646C2.18182 18.2987 2.00342 17.7409 2.00342 17.1689V16.2489C2.00342 15.0069 3.01027 14 4.25229 14H15.7541Z" fill="url(#paint2_radial_72095_8729)" fill-opacity="0.25"/>
<path d="M10.0005 2.00488C12.7619 2.00488 15.0005 4.24346 15.0005 7.00488C15.0005 9.76631 12.7619 12.0049 10.0005 12.0049C7.23906 12.0049 5.00049 9.76631 5.00049 7.00488C5.00049 4.24346 7.23906 2.00488 10.0005 2.00488Z" fill="url(#paint3_linear_72095_8729)"/>
<path d="M17.0439 22.996C16.8519 22.9961 16.6599 22.9228 16.5135 22.7764L12.1052 18.3681C10.7514 17.0142 10.7514 14.8192 12.1052 13.4654C13.4591 12.1116 15.6541 12.1116 17.0079 13.4654L17.0439 13.5014L17.0799 13.4654C18.4337 12.1116 20.6287 12.1116 21.9826 13.4654C23.3364 14.8192 23.3364 17.0142 21.9826 18.3681L17.5743 22.7764C17.4279 22.9228 17.2359 22.9961 17.0439 22.996Z" fill="url(#paint4_linear_72095_8729)"/>
<defs>
<linearGradient id="paint0_linear_72095_8729" x1="5.80816" y1="15.0636" x2="8.39355" y2="23.3188" gradientUnits="userSpaceOnUse">
<stop offset="0.125321" stop-color="#9C6CFE"/>
<stop offset="1" stop-color="#7A41DC"/>
</linearGradient>
<linearGradient id="paint1_linear_72095_8729" x1="10.0032" y1="13.0475" x2="13.6233" y2="26.5729" gradientUnits="userSpaceOnUse">
<stop stop-color="#885EDB" stop-opacity="0"/>
<stop offset="1" stop-color="#E362F8"/>
</linearGradient>
<radialGradient id="paint2_radial_72095_8729" cx="0" cy="0" r="1" gradientUnits="userSpaceOnUse" gradientTransform="translate(16.5 19) rotate(36.1352) scale(8.43922 4.16713)">
<stop offset="0.436086" stop-color="#30116E"/>
<stop offset="0.715498" stop-color="#30116E" stop-opacity="0.811643"/>
<stop offset="1" stop-color="#30116E" stop-opacity="0"/>
</radialGradient>
<linearGradient id="paint3_linear_72095_8729" x1="7.37853" y1="3.33424" x2="12.4749" y2="11.472" gradientUnits="userSpaceOnUse">
<stop offset="0.125321" stop-color="#9C6CFE"/>
<stop offset="1" stop-color="#7A41DC"/>
</linearGradient>
<linearGradient id="paint4_linear_72095_8729" x1="12.4131" y1="13.1089" x2="19.2527" y2="24.4531" gradientUnits="userSpaceOnUse">
<stop stop-color="#FC92CB"/>
<stop offset="1" stop-color="#D7257D"/>
</linearGradient>
</defs>
</svg>
