<?xml version="1.0" encoding="UTF-8"?>
<svg width="24px" height="24px" viewBox="0 0 24 24" version="1.1" xmlns="http://www.w3.org/2000/svg" xmlns:xlink="http://www.w3.org/1999/xlink">
    <!-- Generator: Sketch 59.1 (86144) - https://sketch.com -->
    <title>ic_fluent_mail_unsubscribe_24_filled</title>
    <desc>Created with Sketch.</desc>
    <g id="ðŸ”-Product-Icons" stroke="none" stroke-width="1" fill="none" fill-rule="evenodd">
        <g id="ic_fluent_mail_unsubscribe_24_filled" fill="#212121" fill-rule="nonzero">
            <path d="M3.46966991,20.4696699 L20.9696699,2.96966991 C21.2625631,2.6767767 21.7374369,2.6767767 22.0303301,2.96966991 C22.2965966,3.23593648 22.3208027,3.65260016 22.1029482,3.94621165 L22.0303301,4.03033009 L21.0783027,4.98250837 C21.5774081,5.49491458 21.9087986,6.17148222 21.9838083,6.92354535 L16.005,10.055 L12.449,13.611 L22,8.608 L22,16.75 C22,18.4830315 20.6435452,19.8992459 18.9344239,19.9948552 L18.75,20 L6.06,20 L4.53033009,21.5303301 C4.26406352,21.7965966 3.84739984,21.8208027 3.55378835,21.6029482 L3.46966991,21.5303301 C3.20340335,21.2640635 3.1791973,20.8473998 3.39705176,20.5537883 L3.46966991,20.4696699 L20.9696699,2.96966991 L3.46966991,20.4696699 Z M2,8.608 L9.436,12.503 L2.92217518,19.0179821 C2.39156855,18.4734634 2.05040246,17.7434547 2.00514479,16.9344239 L2,16.75 L2,8.608 Z M17.939,4 L10.547,11.392 L2.01619171,6.92354535 C2.17386146,5.342714 3.46431785,4.09544995 5.06408558,4.00522851 L5.25,4 L17.939,4 Z" id="ðŸŽ¨-Color"></path>
        </g>
    </g>
</svg>