<svg width="32" height="32" viewBox="0 0 32 32" fill="none" xmlns="http://www.w3.org/2000/svg">
<path d="M24.5 3C26.9853 3 29 5.01472 29 7.5V24.5C29 26.9853 26.9853 29 24.5 29H7.5C5.01472 29 3 26.9853 3 24.5V7.5C3 5.01472 5.01472 3 7.5 3H24.5ZM10.5 9C9.11929 9 8 10.1193 8 11.5V15.5C8 16.8807 9.11929 18 10.5 18H21.5C22.8807 18 24 16.8807 24 15.5V11.5C24 10.1193 22.8807 9 21.5 9H10.5ZM21.5 11C21.7761 11 22 11.2239 22 11.5V15.5C22 15.7761 21.7761 16 21.5 16H10.5C10.2239 16 10 15.7761 10 15.5V11.5C10 11.2239 10.2239 11 10.5 11H21.5Z" fill="#212121"/>
</svg>
