<svg width="20" height="20" viewBox="0 0 20 20" fill="none" xmlns="http://www.w3.org/2000/svg">
<path d="M8.5 2C9.0628 2 9.58217 2.18597 10 2.49982C10.4178 2.18597 10.9372 2 11.5 2C12.8807 2 14 3.11929 14 4.5V6H15C15.5523 6 16 6.44772 16 7V10.8787L15 11.8787V7H12V9C11.6494 9 11.3128 9.06015 11 9.17071V7H5V15C5 16.1046 5.89543 17 7 17H10.0854C9.97153 17.3229 9.97153 17.6771 10.0854 18H7C5.34315 18 4 16.6569 4 15V7C4 6.44772 4.44772 6 5 6H6V4.5C6 3.11929 7.11929 2 8.5 2ZM8.5 3C7.67157 3 7 3.67157 7 4.5V6H10V4.5C10 3.67157 9.32843 3 8.5 3ZM11.5 3C11.1918 3 10.9052 3.09297 10.6669 3.25241C10.8788 3.61958 11 4.04564 11 4.5V6H13V4.5C13 3.67157 12.3284 3 11.5 3ZM12 14C13.1046 14 14 13.1046 14 12C14 10.8954 13.1046 10 12 10C10.8954 10 10 10.8954 10 12C10 13.1046 10.8954 14 12 14ZM12 11C12.5523 11 13 11.4477 13 12C13 12.5523 12.5523 13 12 13C11.4477 13 11 12.5523 11 12C11 11.4477 11.4477 11 12 11ZM17 19C18.1046 19 19 18.1046 19 17C19 15.8954 18.1046 15 17 15C15.8954 15 15 15.8954 15 17C15 18.1046 15.8954 19 17 19ZM17 16C17.5523 16 18 16.4477 18 17C18 17.5523 17.5523 18 17 18C16.4477 18 16 17.5523 16 17C16 16.4477 16.4477 16 17 16ZM17.8536 11.8536C18.0488 11.6583 18.0488 11.3417 17.8536 11.1464C17.6583 10.9512 17.3417 10.9512 17.1464 11.1464L11.1464 17.1464C10.9512 17.3417 10.9512 17.6583 11.1464 17.8536C11.3417 18.0488 11.6583 18.0488 11.8536 17.8536L17.8536 11.8536Z" fill="#212121"/>
</svg>
