<svg width="48" height="48" viewBox="0 0 48 48" fill="none" xmlns="http://www.w3.org/2000/svg">
<path d="M24 15.25V4H11C9.34315 4 8 5.34315 8 7V40C8 41.6569 9.34315 43 11 43H37C38.6569 43 40 41.6569 40 40V28.3971L30.4944 37.7565C29.8686 38.3726 29.0916 38.813 28.2415 39.0334L25.0072 39.872C23.1455 40.3546 21.3889 39.4641 20.5369 38H14.2383C13.5479 38 12.9883 37.4404 12.9883 36.75C12.9883 36.0596 13.5479 35.5 14.2383 35.5H20.0339C20.0557 35.3335 20.0882 35.1656 20.1319 34.9968L20.9705 31.7624C21.1908 30.9123 21.6313 30.1353 22.2474 29.5095L32.5952 19H27.75C25.6789 19 24 17.3211 24 15.25ZM37.4136 14.5984C36.8142 14.8886 36.2534 15.2847 35.7592 15.7866L35.0568 16.5H27.75C27.0596 16.5 26.5 15.9404 26.5 15.25V4.46429L37.4136 14.5984ZM42.834 17.1679C41.2708 15.6048 38.7334 15.6146 37.1823 17.1899L23.6706 30.9127C23.3009 31.2881 23.0367 31.7543 22.9045 32.2643L22.066 35.4987C21.6833 36.9747 23.0273 38.3187 24.5033 37.936L27.7376 37.0974C28.2476 36.9652 28.7138 36.701 29.0892 36.3313L42.8121 22.8196C44.3874 21.2686 44.3972 18.7311 42.834 17.1679Z" fill="#212121"/>
</svg>
