<svg width="24" height="24" viewBox="0 0 24 24" fill="none" xmlns="http://www.w3.org/2000/svg">
<path d="M12 8V2H6C4.89543 2 4 2.89543 4 4V20C4 21.1046 4.89543 22 6 22H18C19.1046 22 20 21.1046 20 20V15.6493L17.1379 18.5114C16.6656 18.9837 16.0738 19.3188 15.4258 19.4808L13.5951 19.9385C12.648 20.1752 11.7562 19.7337 11.3057 19H7.75C7.33579 19 7 18.6642 7 18.25C7 17.8358 7.33579 17.5 7.75 17.5H11.0432C11.0495 17.4692 11.0565 17.4384 11.0642 17.4075L11.5219 15.5768C11.6839 14.9288 12.0189 14.3371 12.4912 13.8648L16.356 10H14C12.8954 10 12 9.10457 12 8ZM18.6952 7.69523C18.5907 7.77705 18.4899 7.86609 18.3937 7.96235L17.856 8.5H14C13.7239 8.5 13.5 8.27614 13.5 8V2.5L18.6952 7.69523ZM19.0999 8.66946L13.1974 14.5719C12.8533 14.916 12.6092 15.3472 12.4911 15.8194L12.0334 17.6501C11.8344 18.4462 12.5556 19.1674 13.3517 18.9683L15.1824 18.5106C15.6545 18.3926 16.0857 18.1485 16.4299 17.8043L22.3323 11.9019C23.2249 11.0093 23.2249 9.56208 22.3323 8.66946C21.4397 7.77685 19.9925 7.77685 19.0999 8.66946Z" fill="#212121"/>
</svg>
