<svg width="28" height="28" viewBox="0 0 28 28" fill="none" xmlns="http://www.w3.org/2000/svg">
<path d="M4.75391 4C3.23512 4 2.00391 5.23122 2.00391 6.75V21.2501C2.00391 22.7688 3.23513 24.0001 4.75391 24.0001H18V21.6631C17.37 20.7684 17 19.6774 17 18.5C17 17.7944 17.1329 17.1199 17.3749 16.5H15.75C15.3358 16.5 15 16.1642 15 15.75C15 15.3358 15.3358 15 15.75 15H18.2572C19.266 13.7785 20.7921 13 22.5 13C23.8299 13 25.0495 13.472 26.0005 14.2576V6.75C26.0005 5.23122 24.7693 4 23.2505 4H4.75391ZM15 11.75C15 11.3358 15.3358 11 15.75 11H21.25C21.6642 11 22 11.3358 22 11.75C22 12.1642 21.6642 12.5 21.25 12.5H15.75C15.3358 12.5 15 12.1642 15 11.75ZM11.25 11.75C11.25 12.7165 10.4665 13.5 9.5 13.5C8.5335 13.5 7.75 12.7165 7.75 11.75C7.75 10.7835 8.5335 10 9.5 10C10.4665 10 11.25 10.7835 11.25 11.75ZM7 14.5H12C12.5523 14.5 13 14.9477 13 15.5V16C13 16 12.5 18.5 9.5 18.5C6.5 18.5 6 16 6 16V15.5C6 14.9477 6.44772 14.5 7 14.5ZM26.0005 15.672C26.6256 16.4447 27 17.4286 27 18.5C27 19.572 26.6252 20.5564 25.9994 21.3294C25.1744 22.3485 23.9133 23 22.5 23C20.0147 23 18 20.9853 18 18.5C18 17.7816 18.1684 17.1025 18.4678 16.5C18.7575 15.917 19.17 15.4057 19.6713 15C20.4442 14.3746 21.4284 14 22.5 14C23.9139 14 25.1756 14.6521 26.0005 15.672ZM24.901 23.4499C24.2697 23.7567 23.5709 23.9463 22.8329 23.9904C22.7387 23.996 22.6438 23.9992 22.5483 24.0001C22.5322 24.0002 22.5161 24.0003 22.5 24.0003C22.4839 24.0003 22.4678 24.0002 22.4517 24.0001C22.3562 23.9992 22.2613 23.996 22.1671 23.9904C21.3903 23.944 20.6569 23.7364 20 23.4006C19.6422 23.2177 19.3071 22.9967 19 22.7431V26.3027C19 26.8863 19.672 27.2136 20.1315 26.8539L22.5 24.9997L24.8685 26.8539C25.328 27.2136 26 26.8863 26 26.3027V22.7431C25.6647 23.02 25.2961 23.2579 24.901 23.4499Z" fill="#212121"/>
</svg>
