<svg width="24" height="24" viewBox="0 0 24 24" fill="none" xmlns="http://www.w3.org/2000/svg">
<path d="M6.25 3C4.45507 3 3 4.45507 3 6.25V17.75C3 19.5449 4.45507 21 6.25 21H17.75C19.5449 21 21 19.5449 21 17.75V6.25C21 4.45507 19.5449 3 17.75 3H6.25ZM5 6.25C5 5.55964 5.55964 5 6.25 5H17.75C18.4404 5 19 5.55964 19 6.25V17.75C19 18.4404 18.4404 19 17.75 19H6.25C5.55964 19 5 18.4404 5 17.75V6.25ZM7.5 6.5C6.94772 6.5 6.5 6.94772 6.5 7.5V16.5C6.5 17.0523 6.94772 17.5 7.5 17.5H16.5C17.0523 17.5 17.5 17.0523 17.5 16.5V7.5C17.5 6.94772 17.0523 6.5 16.5 6.5H7.5Z" fill="#212121"/>
</svg>
