<svg width="24" height="24" viewBox="0 0 24 24" fill="none" xmlns="http://www.w3.org/2000/svg">
<path d="M7.25 6.25C6.69772 6.25 6.25 6.69772 6.25 7.25V16.75C6.25 17.3023 6.69772 17.75 7.25 17.75H16.75C17.3023 17.75 17.75 17.3023 17.75 16.75V7.25C17.75 6.69772 17.3023 6.25 16.75 6.25H7.25ZM18 3H6C4.34315 3 3 4.34315 3 6V18C3 19.6569 4.34315 21 6 21H18C19.6569 21 21 19.6569 21 18V6C21 4.34315 19.6569 3 18 3ZM5 6C5 5.44772 5.44772 5 6 5H18C18.5523 5 19 5.44772 19 6V18C19 18.5523 18.5523 19 18 19H6C5.44772 19 5 18.5523 5 18V6Z" fill="#212121"/>
</svg>
