<svg width="24" height="24" viewBox="0 0 24 24" fill="none" xmlns="http://www.w3.org/2000/svg">
<path d="M5.25 21.0044C3.45507 21.0044 2 19.5493 2 17.7544V8.84259L4.04451 12.3838C4.8037 13.6987 6.20674 14.5088 7.72512 14.5088L20 14.5088V15.2544C20 17.0493 18.5449 18.5044 16.75 18.5044H11.5607L9.71967 20.3454C9.29771 20.7673 8.72542 21.0044 8.12868 21.0044H5.25ZM7.72512 13.0088L20.7445 13.0088C22.4765 13.0088 23.5591 11.1338 22.6931 9.63379L19.6569 4.375C19.1657 3.52415 18.2578 3 17.2753 3H4.25594C2.52389 3 1.44136 4.875 2.30738 6.37499L5.34355 11.6338C5.83479 12.4846 6.74264 13.0088 7.72512 13.0088Z" fill="#212121"/>
</svg>
