<svg width="24" height="24" viewBox="0 0 24 24" fill="none" xmlns="http://www.w3.org/2000/svg">
<path d="M2.92322 4.12856C2.98774 2.93485 3.97448 2 5.16994 2H6.32772C7.52317 2 8.50991 2.93485 8.57444 4.12856L9.41228 19.6286C9.48193 20.917 8.45592 22 7.16556 22H4.3321C3.04174 22 2.01573 20.917 2.08538 19.6286L2.92322 4.12856ZM9.5108 22H19.7489C20.9915 22 21.9989 20.9926 21.9989 19.75V6C21.9989 5.7021 21.8225 5.43244 21.5497 5.31297C21.2768 5.19349 20.959 5.24684 20.7401 5.4489L15.4989 10.287V6C15.4989 5.7021 15.3225 5.43244 15.0497 5.31297C14.7768 5.19349 14.459 5.24684 14.2401 5.4489L9.86558 9.48695L10.4109 19.5746C10.4616 20.5125 10.1103 21.3751 9.5108 22ZM12.9988 16C12.9988 15.4477 13.4466 15 13.9988 15H17.9988C18.5511 15 18.9988 15.4477 18.9988 16V20.5H12.9988V16Z" fill="#212121"/>
</svg>
