<svg width="20" height="20" viewBox="0 0 20 20" fill="none" xmlns="http://www.w3.org/2000/svg">
<path d="M4.5 3C3.67157 3 3 3.67157 3 4.5V15.5C3 16.3284 3.67157 17 4.5 17H15.5C16.3284 17 17 16.3284 17 15.5V4.5C17 3.67157 16.3284 3 15.5 3H4.5ZM14.3536 6.39646C14.5488 6.59172 14.5488 6.9083 14.3535 7.10356L12.6035 8.85347C12.4145 9.04251 12.1102 9.04939 11.9128 8.8691L11.1628 8.1841C10.9589 7.99788 10.9446 7.68162 11.1308 7.47772C11.317 7.27382 11.6333 7.2595 11.8372 7.44572L12.2344 7.80847L13.6465 6.39644C13.8417 6.20118 14.1583 6.20119 14.3536 6.39646ZM14.3536 11.3965C14.5488 11.5917 14.5488 11.9083 14.3535 12.1036L12.6035 13.8535C12.4145 14.0425 12.1102 14.0494 11.9128 13.8691L11.1628 13.1841C10.9589 12.9979 10.9446 12.6816 11.1308 12.4777C11.317 12.2738 11.6333 12.2595 11.8372 12.4457L12.2344 12.8085L13.6465 11.3964C13.8417 11.2012 14.1583 11.2012 14.3536 11.3965ZM6.5 12H9C9.27614 12 9.5 12.2239 9.5 12.5C9.5 12.7761 9.27614 13 9 13H6.5C6.22386 13 6 12.7761 6 12.5C6 12.2239 6.22386 12 6.5 12ZM6 7.5C6 7.22386 6.22386 7 6.5 7H9C9.27614 7 9.5 7.22386 9.5 7.5C9.5 7.77614 9.27614 8 9 8H6.5C6.22386 8 6 7.77614 6 7.5Z" fill="#212121"/>
</svg>
