<?xml version="1.0" encoding="UTF-8"?>
<svg width="24px" height="24px" viewBox="0 0 24 24" version="1.1" xmlns="http://www.w3.org/2000/svg" xmlns:xlink="http://www.w3.org/1999/xlink">
    <!-- Generator: Sketch 59.1 (86144) - https://sketch.com -->
    <title>ic_office_powerpoint_24_color</title>
    <desc>Created with Sketch.</desc>
    <g id="ðŸ”-Product-Icons" stroke="none" stroke-width="1" fill="none" fill-rule="evenodd">
        <g id="ic_office_powerpoint_24_color" fill-rule="nonzero">
            <path d="M12.9999,3.0002 C8.0499,3.0002 3.9999,7.0502 3.9999,12.0002 L14.9999,13.5002 L12.9999,3.0002 Z" id="powerpoint" fill="#ED6C47"></path>
            <path d="M12.9999,3.0002 C17.9499,3.0002 21.9999,7.0502 21.9999,12.0002 L17.4999,14.0002 L12.9999,12.0002 L12.9999,3.0002 Z" id="powerpoint" fill="#FF8F6B"></path>
            <path d="M21.9998,12.0002 L21.9998,12.0002 C21.9998,16.9502 17.9498,21.0002 12.9998,21.0002 C8.0498,21.0002 3.9998,16.9502 3.9998,12.0002 L21.9998,12.0002 Z" id="powerpoint" fill="#D35230"></path>
            <path d="M14.0129,7 L5.5289,7 C4.5649,8.433 3.9999,10.153 3.9999,12 C3.9999,14.821 5.3179,17.347 7.3659,19 L13.8189,19 C14.4179,19 14.9999,18.389 14.9999,17.839 L14.9999,8 C14.9999,7.45 14.5559,7 14.0129,7" id="powerpoint" fill="#000000" opacity="0.5"></path>
            <path d="M13,18 L3,18 C2.45,18 2,17.55 2,17 L2,7 C2,6.45 2.45,6 3,6 L13,6 C13.55,6 14,6.45 14,7 L14,17 C14,17.55 13.55,18 13,18" id="powerpoint" fill="#C43E1C"></path>
            <path d="M6.6324,12.0085 L7.8504,12.0085 C8.3264,12.0085 8.6854,11.9015 8.9274,11.6875 C9.1704,11.4735 9.2914,11.1065 9.2914,10.6955 C9.2914,9.8965 8.8264,9.4975 7.8964,9.4975 L6.6324,9.4975 L6.6324,12.0085 Z M8.1034,8.3745 C8.9694,8.3745 9.6334,8.5685 10.0934,8.9565 C10.5534,9.3435 10.7834,9.9055 10.7834,10.6395 C10.7834,11.1125 10.6694,11.7355 10.4424,12.1025 C10.2144,12.4695 9.8904,12.7555 9.4714,12.9595 C9.0514,13.1635 8.5654,13.2655 8.0124,13.2655 L6.6324,13.2655 L6.6324,15.6245 L5.2164,15.6245 L5.2164,8.3745 L8.1034,8.3745 Z" id="powerpoint" fill="#FFFFFF"></path>
        </g>
    </g>
</svg>