<svg width="16" height="16" viewBox="0 0 16 16" fill="none" xmlns="http://www.w3.org/2000/svg">
<path d="M3 2.75C3 2.33579 3.33579 2 3.75 2H9.25C9.66421 2 10 2.33579 10 2.75V5.40902L11 4.1868V2.75C11 1.7835 10.2165 1 9.25 1H3.75C2.7835 1 2 1.7835 2 2.75V3H1.5C1.22386 3 1 3.22386 1 3.5C1 3.77614 1.22386 4 1.5 4H2V6H1.5C1.22386 6 1 6.22386 1 6.5C1 6.77614 1.22386 7 1.5 7H2V9H1.5C1.22386 9 1 9.22386 1 9.5C1 9.77614 1.22386 10 1.5 10H2V10.25C2 11.2165 2.7835 12 3.75 12H4.60738L5.42556 11H3.75C3.33579 11 3 10.6642 3 10.25V10H3.5C3.77614 10 4 9.77614 4 9.5C4 9.22386 3.77614 9 3.5 9H3V7H3.5C3.77614 7 4 6.77614 4 6.5C4 6.22386 3.77614 6 3.5 6H3V4H3.5C3.77614 4 4 3.77614 4 3.5C4 3.22386 3.77614 3 3.5 3H3V2.75ZM13.6681 3.0291C13.8671 3.10015 14 3.28866 14 3.5V13.25C14 14.2165 13.2165 15 12.25 15H4.5C4.30681 15 4.1309 14.8887 4.04817 14.7141C3.96543 14.5395 3.99068 14.3329 4.11302 14.1834L13.113 3.18338C13.2468 3.01982 13.4691 2.95805 13.6681 3.0291ZM5.55512 14H12.25C12.6642 14 13 13.6642 13 13.25V4.9007L5.55512 14ZM5 4.5C5 4.22386 5.22386 4 5.5 4H7.5C7.77614 4 8 4.22386 8 4.5C8 4.77614 7.77614 5 7.5 5H5.5C5.22386 5 5 4.77614 5 4.5ZM11.5 9.25C11.5 9.00975 11.1942 8.9078 11.05 9.1L8.8 12.1C8.67639 12.2648 8.79399 12.5 9 12.5H11C11.2761 12.5 11.5 12.2761 11.5 12V9.25Z" fill="#212121"/>
</svg>
