<svg width="32" height="32" viewBox="0 0 32 32" fill="none" xmlns="http://www.w3.org/2000/svg">
<path d="M2 9.5C2 7.01472 4.01472 5 6.5 5H16.5C18.9853 5 21 7.01472 21 9.5V20.5C21 22.5262 19.6608 24.2397 17.8192 24.8035C17.9378 24.2208 18 23.6177 18 23C18 18.0294 13.9706 14 9 14C6.17273 14 3.64996 15.3037 2 17.3427V9.5ZM29.9959 8.75388C29.9959 6.94016 27.96 5.87182 26.4674 6.90236L22.5 9.64179V20.358L26.4675 23.0974C27.96 24.1279 29.9959 23.0596 29.9959 21.2459V8.75388ZM4.3428 19.0368C4.60303 19.8805 4.08936 20.7668 3.22578 20.9642L1.69007 21.3151C1.56571 21.8568 1.5 22.4209 1.5 23.0003C1.5 23.5152 1.55189 24.018 1.65072 24.5037L3.34809 24.9273C4.18474 25.1361 4.68134 25.9938 4.44378 26.8198L3.948 28.5436C4.73078 29.2574 5.6653 29.8076 6.69752 30.1402L7.95766 28.8408C8.55694 28.2229 9.55092 28.2224 10.1508 28.8399L11.3871 30.1124C12.4174 29.7667 13.3479 29.2034 14.1239 28.4771L13.6572 26.9638C13.397 26.1201 13.9106 25.2338 14.7742 25.0364L16.3099 24.6855C16.4343 24.1438 16.5 23.5797 16.5 23.0003C16.5 22.4854 16.4481 21.9826 16.3493 21.4969L14.6519 21.0733C13.8153 20.8645 13.3187 20.0068 13.5562 19.1808L14.052 17.457C13.2692 16.7432 12.3347 16.193 11.3025 15.8604L10.0423 17.1598C9.44306 17.7777 8.44908 17.7782 7.84924 17.1608L6.61287 15.8882C5.58253 16.2339 4.65206 16.7972 3.87604 17.5235L4.3428 19.0368ZM11 23.0003C11 24.1049 10.1046 25.0003 9 25.0003C7.89543 25.0003 7 24.1049 7 23.0003C7 21.8957 7.89543 21.0003 9 21.0003C10.1046 21.0003 11 21.8957 11 23.0003Z" fill="#212121"/>
</svg>
