<svg width="20" height="20" viewBox="0 0 20 20" fill="none" xmlns="http://www.w3.org/2000/svg">
<path d="M2 7C2 5.34315 3.34315 4 5 4H10C11.6569 4 13 5.34315 13 7V13C13 14.3711 12.0802 15.5273 10.824 15.8854C10.9389 15.4428 11 14.9785 11 14.5C11 11.4624 8.53757 9 5.5 9C4.17037 9 2.95094 9.47182 2 10.2572V7ZM16.0373 14.7759L14 13.3692V6.63025L16.0373 5.22353C16.8665 4.65101 17.9976 5.24453 17.9976 6.25215V13.7473C17.9976 14.7549 16.8665 15.3484 16.0373 14.7759ZM3.06279 11.442L2.9066 10.8852C3.16069 10.6899 3.43608 10.5226 3.72851 10.3877L4.06586 10.7457C4.8548 11.5828 6.18556 11.5835 6.97538 10.7472L7.30006 10.4034C7.59785 10.5439 7.87764 10.7182 8.13487 10.9215L8.00868 11.3438C7.67934 12.4459 8.34533 13.598 9.46476 13.8627L9.81376 13.9452C9.83535 14.127 9.84647 14.3121 9.84647 14.4999C9.84647 14.6559 9.8388 14.81 9.82382 14.9619L9.36329 15.0795C8.27533 15.3575 7.62933 16.4764 7.93263 17.5575L8.08878 18.1142C7.83471 18.3095 7.55933 18.4769 7.26692 18.6118L6.92956 18.2538C6.14062 17.4167 4.80986 17.416 4.02004 18.2523L3.69504 18.5964C3.39732 18.4559 3.11758 18.2817 2.8604 18.0785L2.98674 17.6557C3.31608 16.5536 2.65009 15.4014 1.53065 15.1368L1.1811 15.0541C1.15954 14.8725 1.14844 14.6875 1.14844 14.4999C1.14844 14.3438 1.15611 14.1896 1.17109 14.0377L1.63214 13.9199C2.72009 13.642 3.36608 12.5231 3.06279 11.442ZM5.49746 15.4999C6.04974 15.4999 6.49746 15.0521 6.49746 14.4999C6.49746 13.9476 6.04974 13.4999 5.49746 13.4999C4.94517 13.4999 4.49746 13.9476 4.49746 14.4999C4.49746 15.0521 4.94517 15.4999 5.49746 15.4999Z" fill="#212121"/>
</svg>
