<svg width="32" height="32" viewBox="0 0 32 32" fill="none" xmlns="http://www.w3.org/2000/svg">
<path d="M21.4881 7.5114C21.5905 7.6142 21.6862 7.72306 21.7746 7.83723C22.0152 8.14812 22.2018 8.49849 22.3254 8.87378L22.8727 10.5565C22.9185 10.6862 23.0034 10.7985 23.1158 10.8779C23.2281 10.9573 23.3624 11 23.5 11C23.6376 11 23.7719 10.9573 23.8842 10.8779C23.9845 10.807 24.0629 10.71 24.1111 10.5978C24.1169 10.5842 24.1223 10.5705 24.1273 10.5565L24.6746 8.87378C24.8448 8.36221 25.132 7.89736 25.5135 7.51616C25.895 7.13496 26.3602 6.84793 26.8722 6.67788L28.5561 6.13101C28.6859 6.08525 28.7983 6.0004 28.8778 5.88813C28.9573 5.77587 29 5.64173 29 5.50421C29 5.36668 28.9573 5.23254 28.8778 5.12028C28.7983 5.00802 28.6859 4.92316 28.5561 4.87741L28.5224 4.86899L26.8385 4.32212C26.3265 4.15207 25.8613 3.86504 25.4798 3.48384C25.0983 3.10264 24.8111 2.63779 24.6409 2.12622L24.0936 0.443537C24.0478 0.313845 23.9629 0.201538 23.8505 0.122099C23.7382 0.0426599 23.604 0 23.4663 0C23.3287 0 23.1944 0.0426599 23.0821 0.122099C22.9697 0.201538 22.8848 0.313845 22.839 0.443537L22.2918 2.12622L22.2778 2.16788C22.1094 2.65949 21.8326 3.10718 21.4675 3.47768C21.0921 3.85862 20.6336 4.14763 20.1278 4.32212L18.4439 4.86899C18.3141 4.91475 18.2017 4.9996 18.1222 5.11187C18.0427 5.22413 18 5.35827 18 5.49579C18 5.63332 18.0427 5.76746 18.1222 5.87972C18.2017 5.99198 18.3141 6.07684 18.4439 6.12259L20.1278 6.66946C20.6407 6.84036 21.1065 7.12868 21.4881 7.5114ZM30.821 12.3575L31.7395 12.6558L31.7579 12.6604C31.8287 12.6854 31.89 12.7316 31.9333 12.7929C31.9767 12.8541 32 12.9273 32 13.0023C32 13.0773 31.9767 13.1505 31.9333 13.2117C31.89 13.2729 31.8287 13.3192 31.7579 13.3442L30.8394 13.6425C30.5601 13.7352 30.3064 13.8918 30.0983 14.0997C29.8902 14.3077 29.7335 14.5612 29.6407 14.8402L29.3422 15.7581C29.3172 15.8288 29.2709 15.8901 29.2096 15.9334C29.1483 15.9767 29.0751 16 29 16C28.9249 16 28.8517 15.9767 28.7904 15.9334C28.7291 15.8901 28.6828 15.8288 28.6578 15.7581L28.3593 14.8402C28.2671 14.5604 28.1107 14.3059 27.9026 14.0971C27.6945 13.8884 27.4404 13.7311 27.1606 13.6379L26.2421 13.3396C26.1713 13.3146 26.11 13.2684 26.0667 13.2071C26.0233 13.1459 26 13.0727 26 12.9977C26 12.9227 26.0233 12.8495 26.0667 12.7883C26.11 12.7271 26.1713 12.6808 26.2421 12.6558L27.1606 12.3575C27.4365 12.2623 27.6866 12.1047 27.8913 11.8969C28.0961 11.6891 28.25 11.4368 28.341 11.1598L28.6395 10.2419C28.6645 10.1712 28.7108 10.1099 28.7721 10.0666C28.8333 10.0233 28.9066 10 28.9816 10C29.0567 10 29.1299 10.0233 29.1912 10.0666C29.2525 10.1099 29.2988 10.1712 29.3238 10.2419L29.6223 11.1598C29.7151 11.4388 29.8718 11.6924 30.0799 11.9003C30.288 12.1082 30.5417 12.2648 30.821 12.3575ZM16 2C17.4423 2 18.8336 2.2181 20.1428 2.62311C19.9898 2.73328 19.8203 2.81993 19.64 2.87954L18 3.43954C17.5647 3.58085 17.1852 3.85618 16.9158 4.22617C16.6464 4.59616 16.5008 5.04185 16.5 5.49954C16.5096 5.94081 16.6536 6.36866 16.9126 6.726C17.1717 7.08335 17.5336 7.35319 17.95 7.49954L19.66 8.05954C19.9502 8.15318 20.2141 8.31424 20.43 8.52954C20.43 8.56597 20.4706 8.60241 20.5136 8.64109C20.5415 8.6661 20.5704 8.69205 20.59 8.71954C20.7281 8.89219 20.8332 9.08881 20.9 9.29954L21.45 10.9995C21.4652 11.0452 21.4819 11.0903 21.5 11.1347V21C21.5 21.5523 21.9477 22 22.5 22C23.0523 22 23.5 21.5523 23.5 21V12.4782C23.608 12.4782 23.7162 12.47 23.8236 12.4538C24.1574 12.4031 24.4747 12.275 24.75 12.0795C24.5931 12.3541 24.5071 12.6634 24.5 12.9795C24.4991 13.3629 24.618 13.737 24.84 14.0495C25.0638 14.3625 25.3778 14.5998 25.74 14.7295L26.74 15.0395C26.7932 15.0626 26.8409 15.0967 26.88 15.1395C26.9247 15.1791 26.9562 15.2315 26.97 15.2895L27.27 16.1995C27.4015 16.5744 27.6417 16.9017 27.96 17.1395C28.2769 17.3602 28.6538 17.4785 29.04 17.4785C29.3574 17.4785 29.6685 17.3986 29.9452 17.2477C29.314 24.3952 23.3115 30 16 30C8.26801 30 2 23.732 2 16C2 8.26801 8.26801 2 16 2ZM13.5 10C12.9477 10 12.5 10.4477 12.5 11V21C12.5 21.5523 12.9477 22 13.5 22C14.0523 22 14.5 21.5523 14.5 21V11C14.5 10.4477 14.0523 10 13.5 10ZM18 12.5C17.4477 12.5 17 12.9477 17 13.5V18.5C17 19.0523 17.4477 19.5 18 19.5C18.5523 19.5 19 19.0523 19 18.5V13.5C19 12.9477 18.5523 12.5 18 12.5ZM10 18V14C10 13.4477 9.55228 13 9 13C8.44772 13 8 13.4477 8 14V18C8 18.5523 8.44772 19 9 19C9.55228 19 10 18.5523 10 18Z" fill="#212121"/>
</svg>
