<svg width="28" height="28" viewBox="0 0 28 28" fill="none" xmlns="http://www.w3.org/2000/svg">
<path d="M16.9511 2.50391C17.7275 2.50391 18.449 2.9042 18.86 3.56291L20.3811 6.00086H22.75C24.5449 6.00086 26 7.45593 26 9.25086V21.7509C26 23.5458 24.5449 25.0009 22.75 25.0009H5.25C3.45507 25.0009 2 23.5458 2 21.7509V9.25086C2 7.45593 3.45507 6.00086 5.25 6.00086H7.81851L9.20109 3.62296C9.6039 2.93016 10.3448 2.50391 11.1462 2.50391H16.9511ZM16.9511 4.00391H11.1462C10.9172 4.00391 10.7031 4.1083 10.562 4.28355L10.4978 4.37692L8.89837 7.12784C8.7641 7.35877 8.51713 7.50086 8.25 7.50086H5.25C4.2835 7.50086 3.5 8.28436 3.5 9.25086V21.7509C3.5 22.7174 4.2835 23.5009 5.25 23.5009H22.75C23.7165 23.5009 24.5 22.7174 24.5 21.7509V9.25086C24.5 8.28436 23.7165 7.50086 22.75 7.50086H19.965C19.7062 7.50086 19.4657 7.36743 19.3287 7.14786L17.5874 4.35691C17.4504 4.13734 17.2099 4.00391 16.9511 4.00391ZM14 9.50185C17.0376 9.50185 19.5 11.9643 19.5 15.0018C19.5 18.0394 17.0376 20.5018 14 20.5018C10.9624 20.5018 8.5 18.0394 8.5 15.0018C8.5 11.9643 10.9624 9.50185 14 9.50185ZM14 11.0018C11.7909 11.0018 10 12.7927 10 15.0018C10 17.211 11.7909 19.0018 14 19.0018C16.2091 19.0018 18 17.211 18 15.0018C18 12.7927 16.2091 11.0018 14 11.0018Z" fill="#212121"/>
</svg>
