<?xml version="1.0" encoding="UTF-8"?>
<svg width="20px" height="20px" viewBox="0 0 20 20" version="1.1" xmlns="http://www.w3.org/2000/svg" xmlns:xlink="http://www.w3.org/1999/xlink">
    <!-- Generator: Sketch 64 (93537) - https://sketch.com -->
    <title>ic_fluent_site_blocked_20_regular</title>
    <desc>Created with Sketch.</desc>
    <g id="ðŸ”-System-Icons" stroke="none" stroke-width="1" fill="none" fill-rule="evenodd">
        <g id="ic_fluent_site_blocked_20_regular" fill="#212121" fill-rule="nonzero">
            <path d="M9.72265,2.08397 C9.8906,1.97201 10.1094,1.97201 10.2774,2.08397 C12.2155,3.3761 14.3117,4.1823 16.5707,4.50503 C16.7862125,4.5358125 16.9532609,4.70117656 16.9916557,4.90873326 L17,5 L17,9.5 C17,13.3913 14.693,16.2307 10.1795,17.9667 C10.064,18.0111 9.93605,18.0111 9.82051,17.9667 C5.419828,16.2741 3.11672858,13.5325804 3.00432404,9.78987438 L3,9.5 L3,5 C3,4.75117 3.18296,4.54021 3.42929,4.50503 C5.68833,4.1823 7.78446,3.3761 9.72265,2.08397 Z M10,3.09715 L9.59914,3.34583 C7.98708769,4.31527308 6.2719774,4.98160041 4.45607431,5.34368728 L4,5.42787 L4,9.5 C4,12.892 5.96795,15.3634 10,16.9632 C13.9200972,15.4078389 15.8890795,13.0286275 15.9954426,9.7805367 L16,9.5 L16,5.42787 C14.1673231,5.11649769 12.4352757,4.50079118 10.8060603,3.58187521 L10.4009,3.34583 L10,3.09715 Z M7.14645,7.14645 C7.32001444,6.97287667 7.58943667,6.95359074 7.78430284,7.08859222 L7.85355,7.14645 L9.9999975,9.29289 L12.1464,7.14645 C12.3417,6.95118 12.6583,6.95118 12.8536,7.14645 C13.0271111,7.32001444 13.0463901,7.58943667 12.911437,7.78430284 L12.8536,7.85355 L10.7071,9.9999975 L12.8536,12.1464 C13.0488,12.3417 13.0488,12.6583 12.8536,12.8536 C12.68,13.0271111 12.410558,13.0463901 12.2156598,12.911437 L12.1464,12.8536 L9.9999975,10.7071 L7.85355,12.8536 C7.65829,13.0488 7.34171,13.0488 7.14645,12.8536 C6.97287667,12.68 6.95359074,12.410558 7.08859222,12.2156598 L7.14645,12.1464 L9.29289,9.9999975 L7.14645,7.85355 C6.95118,7.65829 6.95118,7.34171 7.14645,7.14645 Z" id="ðŸŽ¨-Color"></path>
        </g>
    </g>
</svg>