<?xml version="1.0" encoding="UTF-8"?>
<svg width="20px" height="20px" viewBox="0 0 20 20" version="1.1" xmlns="http://www.w3.org/2000/svg" xmlns:xlink="http://www.w3.org/1999/xlink">
    <!-- Generator: Sketch 64 (93537) - https://sketch.com -->
    <title>ic_fluent_site_blocked_20_filled</title>
    <desc>Created with Sketch.</desc>
    <g id="ðŸ”-System-Icons" stroke="none" stroke-width="1" fill="none" fill-rule="evenodd">
        <g id="ic_fluent_site_blocked_20_filled" fill="#212121" fill-rule="nonzero">
            <path d="M9.72265,2.08397 C9.8906,1.97201 10.1094,1.97201 10.2774,2.08397 C12.2155,3.3761 14.3117,4.1823 16.5707,4.50503 C16.817,4.54021 17,4.75117 17,5 L17,5 L17,9.5 C17,13.3913 14.693,16.2307 10.1795,17.9667 C10.064,18.0111 9.93605,18.0111 9.82051,17.9667 C5.30699,16.2307 3,13.3913 3,9.5 L3,9.5 L3,5 C3,4.75117 3.18296,4.54021 3.42929,4.50503 C5.68833,4.1823 7.78446,3.3761 9.72265,2.08397 Z M6.96967,6.96967 C6.67678,7.26256 6.67678,7.73744 6.96967,8.03033 L8.93934,10 L6.96967,11.9697 C6.67678,12.2626 6.67678,12.7374 6.96967,13.0303 C7.26256,13.3232 7.73744,13.3232 8.03033,13.0303 L10,11.0607 L11.9697,13.0303 C12.2626,13.3232 12.7374,13.3232 13.0303,13.0303 C13.3232,12.7374 13.3232,12.2626 13.0303,11.9697 L11.0607,10 L13.0303,8.03033 C13.3232,7.73744 13.3232,7.26256 13.0303,6.96967 C12.7374,6.67678 12.2626,6.67678 11.9697,6.96967 L10,8.93934 L8.03033,6.96967 C7.73744,6.67678 7.26256,6.67678 6.96967,6.96967 Z" id="ðŸŽ¨-Color"></path>
        </g>
    </g>
</svg>