<svg width="48" height="48" viewBox="0 0 48 48" fill="none" xmlns="http://www.w3.org/2000/svg">
<path d="M17.5 22C18.8807 22 20 20.8807 20 19.5C20 18.1193 18.8807 17 17.5 17C16.1193 17 15 18.1193 15 19.5C15 20.8807 16.1193 22 17.5 22ZM33 19.5C33 20.8807 31.8807 22 30.5 22C29.1193 22 28 20.8807 28 19.5C28 18.1193 29.1193 17 30.5 17C31.8807 17 33 18.1193 33 19.5ZM18.4519 34.6812C20.1644 35.5709 22.07 36.0239 23.9996 36C24.6221 36.0077 25.2422 35.9658 25.854 35.8756L32.6195 29.0044C32.5663 29.01 32.5132 29.0191 32.4605 29.0317C32.1383 29.1088 31.8599 29.3107 31.6866 29.593C30.8212 30.8219 29.6683 31.8203 28.3284 32.5013C26.9885 33.1823 25.5024 33.5252 23.9996 33.5C22.4969 33.5246 21.011 33.1815 19.6712 32.5005C18.3315 31.8196 17.1784 30.8214 16.3126 29.593C16.2268 29.4532 16.1143 29.3317 15.9815 29.2354C15.8487 29.1391 15.6983 29.0699 15.5387 29.0317C15.3792 28.9935 15.2137 28.9872 15.0517 29.0129C14.8897 29.0387 14.7344 29.0962 14.5946 29.182C14.4548 29.2678 14.3333 29.3803 14.237 29.5131C14.1407 29.6459 14.0715 29.7963 14.0333 29.9559C13.9951 30.1154 13.9888 30.2809 14.0146 30.4429C14.0403 30.6049 14.0978 30.7602 14.1836 30.9C15.2733 32.4926 16.7395 33.7915 18.4519 34.6812ZM6.5 24C6.5 33.1712 13.5548 40.6946 22.5337 41.4394L22.13 42.9966C22.0508 43.3021 22.0085 43.6049 21.9998 43.9012C11.8932 42.8977 4 34.3706 4 24C4 12.9543 12.9543 4 24 4C34.4778 4 43.0737 12.0572 43.9299 22.3137C43.1102 22.0381 42.2427 21.9452 41.3909 22.0346C40.4141 13.2948 33.0006 6.5 24 6.5C14.335 6.5 6.5 14.335 6.5 24ZM44.834 25.1677C43.2708 23.6045 40.7334 23.6143 39.1823 25.1896L25.6706 38.9125C25.3009 39.2879 25.0367 39.7541 24.9045 40.2641L24.066 43.4985C23.6833 44.9745 25.0273 46.3184 26.5033 45.9357L29.7376 45.0972C30.2476 44.965 30.7138 44.7007 31.0892 44.3311L44.8121 30.8194C46.3874 29.2683 46.3972 26.7309 44.834 25.1677Z" fill="#212121"/>
</svg>
