<svg width="32" height="32" viewBox="0 0 32 32" fill="none" xmlns="http://www.w3.org/2000/svg">
<path d="M9 13C7.89543 13 7 13.8954 7 15V23C7 24.1046 7.89543 25 9 25H12C13.1046 25 14 24.1046 14 23V15C14 13.8954 13.1046 13 12 13H9ZM9 15H12V23H9V15ZM16 14C16 13.4477 16.4477 13 17 13H24C24.5523 13 25 13.4477 25 14C25 14.5523 24.5523 15 24 15H17C16.4477 15 16 14.5523 16 14ZM17 17C16.4477 17 16 17.4477 16 18C16 18.5523 16.4477 19 17 19H22C22.5523 19 23 18.5523 23 18C23 17.4477 22.5523 17 22 17H17ZM3 7.5C3 5.01472 5.01472 3 7.5 3H24.5C26.9853 3 29 5.01472 29 7.5V24.5C29 26.9853 26.9853 29 24.5 29H7.5C5.01472 29 3 26.9853 3 24.5V7.5ZM7.5 5C6.11929 5 5 6.11929 5 7.5V9H27V7.5C27 6.11929 25.8807 5 24.5 5H7.5ZM27 11H5V24.5C5 25.8807 6.11929 27 7.5 27H24.5C25.8807 27 27 25.8807 27 24.5V11Z" fill="#212121"/>
</svg>
