<?xml version="1.0" encoding="UTF-8"?>
<svg width="24px" height="24px" viewBox="0 0 24 24" version="1.1" xmlns="http://www.w3.org/2000/svg" xmlns:xlink="http://www.w3.org/1999/xlink">
    <!-- Generator: Sketch 64 (93537) - https://sketch.com -->
    <title>ic_fluent_book_formula_logical_24_regular</title>
    <desc>Created with Sketch.</desc>
    <g id="ðŸ”-System-Icons" stroke="none" stroke-width="1" fill="none" fill-rule="evenodd">
        <g id="ic_fluent_book_formula_logical_24_regular" fill="#212121" fill-rule="nonzero">
            <path d="M18,2 C19.3807,2 20.5,3.11929 20.5,4.5 L20.5,18.75 C20.5,19.1642 20.1642,19.5 19.75,19.5 L5.5,19.5 C5.5,20.0523 5.94772,20.5 6.5,20.5 L19.75,20.5 C20.1642,20.5 20.5,20.8358 20.5,21.25 C20.5,21.6642 20.1642,22 19.75,22 L6.5,22 C5.11929,22 4,20.8807 4,19.5 L4,4.5 C4,3.11929 5.11929,2 6.5,2 L18,2 Z M18,3.5 L6.5,3.5 C5.94772,3.5 5.5,3.94772 5.5,4.5 L5.5,18 L19,18 L19,4.5 C19,3.94772 18.5523,3.5 18,3.5 Z M12.25,13.5 C12.8023,13.5 13.25,13.9477 13.25,14.5 C13.25,15.0523 12.8023,15.5 12.25,15.5 C11.6977,15.5 11.25,15.0523 11.25,14.5 C11.25,13.9477 11.6977,13.5 12.25,13.5 Z M12.513,5.7501 C13.4627,5.76659 14.3059,6.16497 14.834,6.82047 C15.371,7.48704 15.5517,8.3902 15.1964,9.27853 C14.8859429,10.0545614 14.2396571,10.4297659 13.7649224,10.6512336 L13.2878816,10.8651341 C13.1718408,10.9189289 13.0946245,10.9590233 13.0391224,10.9963516 L13,11.0251 L13,11.7492 C13.0001,12.1634 12.6643,12.4999 12.2501,12.5 C11.8359,12.5 11.5001,12.1643 11.5,11.7501 L11.5,11 C11.5,10.4769 11.752,10.1029 12.0633,9.85345 C12.26338,9.693114 12.504484,9.5725988 12.7063304,9.480922 L12.8875,9.40049 C13.4292,9.16137 13.6868,9.01346 13.8036,8.72145 C13.9483,8.35977 13.8789,8.02596 13.6659,7.76153 C13.4439,7.48604 13.0371,7.25943 12.487,7.24988 C11.5518,7.23364 11.2425,7.53509 11.134,7.68162 C11.0827,7.750935 11.0503563,7.82109938 11.0301344,7.88155359 L11.0067593,7.96998111 L11.0067593,7.96998111 L10.9998,8.01752 C10.9905,8.42363 10.6584,8.74999 10.25,8.74999 C9.640625,8.74999 9.52636719,8.25415324 9.50494385,8.06821446 L9.5005775,7.96817125 L9.5005775,7.96817125 L9.50399375,7.90534875 L9.50399375,7.90534875 L9.50846,7.8559 C9.51591,7.78477 9.52996,7.69092 9.55665,7.58186 C9.60973,7.36492 9.71565,7.07652 9.92848,6.78906 C10.3825,6.17582 11.1982,5.72727 12.513,5.7501 Z" id="ðŸŽ¨-Color"></path>
        </g>
    </g>
</svg>