<svg width="20" height="20" viewBox="0 0 20 20" fill="none" xmlns="http://www.w3.org/2000/svg">
<path d="M16.9961 5.5C16.9961 5.77615 17.22 6 17.4961 6C17.7722 6 17.9961 5.77615 17.9961 5.5V5C17.9961 3.89543 17.1007 3 15.9961 3H14.4961C14.22 3 13.9961 3.22386 13.9961 3.5C13.9961 3.77614 14.22 4 14.4961 4L15.9961 4C16.5484 4 16.9961 4.44772 16.9961 5V5.5ZM8.9961 3.5C8.9961 3.77615 8.77224 4 8.4961 4L7 4C6.44772 4 6 4.44772 6 5V5.4961C6 5.77224 5.77614 5.9961 5.5 5.9961C5.22386 5.9961 5 5.77224 5 5.4961V5C5 3.89543 5.89543 3 7 3L8.4961 3C8.77224 3 8.9961 3.22386 8.9961 3.5ZM5.50001 10.9973C5.77615 10.9973 6.00001 11.2212 6.00001 11.4973V12.0012C6.00001 12.5535 6.44772 13.0012 7.00001 13.0012H8.50001C8.77615 13.0012 9.00001 13.2251 9.00001 13.5012C9.00001 13.7774 8.77615 14.0012 8.50001 14.0012H7.00001C5.89544 14.0012 5.00001 13.1058 5.00001 12.0012V11.4973C5.00001 11.2212 5.22386 10.9973 5.50001 10.9973ZM16.9961 11.4973C16.9961 11.2212 17.22 10.9973 17.4961 10.9973C17.7722 10.9973 17.9961 11.2212 17.9961 11.4973V12.0012C17.9961 13.1058 17.1007 14.0012 15.9961 14.0012H14.4961C14.22 14.0012 13.9961 13.7774 13.9961 13.5012C13.9961 13.2251 14.22 13.0012 14.4961 13.0012H15.9961C16.5484 13.0012 16.9961 12.5535 16.9961 12.0012V11.4973ZM13.0059 3.5C13.0059 3.77614 12.782 4 12.5059 4H10.5078C10.2317 4 10.0078 3.77614 10.0078 3.5C10.0078 3.22386 10.2317 3 10.5078 3H12.5059C12.782 3 13.0059 3.22386 13.0059 3.5ZM5.50001 7.00611C5.77615 7.00611 6.00001 7.22996 6.00001 7.50611V9.50611C6.00001 9.78225 5.77615 10.0061 5.50001 10.0061C5.22386 10.0061 5.00001 9.78225 5.00001 9.50611V7.50611C5.00001 7.22996 5.22386 7.00611 5.50001 7.00611ZM17.9961 7.50611C17.9961 7.22996 17.7722 7.00611 17.4961 7.00611C17.22 7.00611 16.9961 7.22996 16.9961 7.50611V9.50611C16.9961 9.78225 17.22 10.0061 17.4961 10.0061C17.7722 10.0061 17.9961 9.78225 17.9961 9.50611V7.50611ZM12.5059 14.0012C12.782 14.0012 13.0059 13.7774 13.0059 13.5012C13.0059 13.2251 12.782 13.0012 12.5059 13.0012H10.5079C10.2317 13.0012 10.0079 13.2251 10.0079 13.5012C10.0079 13.7774 10.2317 14.0012 10.5079 14.0012H12.5059ZM2 7.40989C2 6.02944 2.82028 4.84058 4 4.30414V12.2499C4 13.7687 5.23122 14.9999 6.75 14.9999H16.6958C16.1593 16.1796 14.9704 16.9999 13.59 16.9999H6.5C4.01472 16.9999 2 14.9852 2 12.4999V7.40989Z" fill="#242424"/>
</svg>
