<svg width="48" height="48" viewBox="0 0 48 48" fill="none" xmlns="http://www.w3.org/2000/svg">
<path d="M34 24C40.0751 24 45 28.9249 45 35C45 41.0751 40.0751 46 34 46C27.9249 46 23 41.0751 23 35C23 28.9249 27.9249 24 34 24ZM28.9385 41.8291C30.3525 42.8788 32.1037 43.5 34 43.5C38.6944 43.5 42.5 39.6944 42.5 35C42.5 33.1037 41.8788 31.3525 40.8291 29.9385L28.9385 41.8291ZM34 26.5C29.3056 26.5 25.5 30.3056 25.5 35C25.5 36.8963 26.1212 38.6475 27.1709 40.0615L39.0615 28.1709C37.6475 27.1212 35.8963 26.5 34 26.5ZM25.25 25C25.391 25 25.5301 25.0083 25.667 25.0234C22.815 27.4081 21 30.9917 21 35C21 36.1558 21.1515 37.2761 21.4346 38.3428C19.9383 38.7525 18.1467 39 16 39C3 39 3 30 3 30V28.75C3 26.6789 4.67893 25 6.75 25H25.25ZM16 6C20.4183 6 24 9.58172 24 14C24 18.4183 20.4183 22 16 22C11.5817 22 8 18.4183 8 14C8 9.58172 11.5817 6 16 6ZM34 10C37.3137 10 40 12.6863 40 16C40 19.3137 37.3137 22 34 22C30.6863 22 28 19.3137 28 16C28 12.6863 30.6863 10 34 10Z" fill="#212121"/>
</svg>
