<svg width="28" height="28" viewBox="0 0 28 28" fill="none" xmlns="http://www.w3.org/2000/svg">
<path d="M12.2373 2.8414C13.3404 2.25302 14.6641 2.25302 15.7671 2.8414L24.0154 7.24116C24.4659 7.48144 24.854 7.80603 25.1645 8.18949L13.9996 13.9082L2.83879 8.19087C3.14949 7.80681 3.538 7.48173 3.98899 7.24116L12.2373 2.8414ZM2.1474 9.52206C2.05342 9.85176 2.00391 10.1972 2.00391 10.5499V19.25C2.00391 21.3211 3.68284 23 5.75391 23H22.2505C24.3216 23 26.0005 21.3211 26.0005 19.25V10.5499C26.0005 10.1966 25.9508 9.85057 25.8565 9.52036L14.3415 15.4184C14.1268 15.5283 13.8724 15.5283 13.6577 15.4183L2.1474 9.52206Z" fill="#212121"/>
</svg>
