<?xml version="1.0" encoding="UTF-8"?>
<svg width="48px" height="48px" viewBox="0 0 48 48" version="1.1" xmlns="http://www.w3.org/2000/svg" xmlns:xlink="http://www.w3.org/1999/xlink">
    <!-- Generator: Sketch 59.1 (86144) - https://sketch.com -->
    <title>ic_fluent_office_outlook_48_color</title>
    <desc>Created with Sketch.</desc>
    <g id="ðŸ”-Product-Icons" stroke="none" stroke-width="1" fill="none" fill-rule="evenodd">
        <g id="ic_fluent_office_outlook_48_color" fill-rule="nonzero">
            <path d="M42.6,23.26 L29.53,15.31 L29.36,15.2 C29.1090018,15.071853 28.8317981,15.0034076 28.55,15 C28.2714022,15.0034967 27.9974671,15.0719805 27.75,15.2 L27.57,15.31 L14.48,23.25 C14.2259536,23.4104872 14.0713596,23.6895106 14.0697577,23.99 C14.0666141,24.3021291 14.2307053,24.5921507 14.5,24.75 L27.59,32.69 L27.77,32.79 C28.0157559,32.9224917 28.2908076,32.9912546 28.57,32.9901359 C28.8524215,32.9916523 29.1308051,32.9229156 29.38,32.79 L29.55,32.69 L42.6,24.75 C42.8532369,24.5852381 43.0042502,24.3020883 43,24 C43.0027006,23.7009825 42.8516465,23.4215326 42.6,23.26 Z" id="outlook" fill="#123B6D"></path>
            <polygon id="outlook" fill="#0078D4" points="15 12 24.05 12 24.05 20 15 20"></polygon>
            <polygon id="outlook" fill="#28A8EA" points="24.05 12 33 12 33 20 24.05 20"></polygon>
            <polygon id="outlook" fill="#50D9FF" points="33 12 42 12 42 20 33 20"></polygon>
            <polygon id="outlook" fill="#28A8EA" points="33 20 42 20 42 28 33 28"></polygon>
            <polygon id="outlook" fill="#0078D4" points="24.05 20 33 20 33 28 24.05 28"></polygon>
            <polygon id="outlook" fill="#0364B8" points="24.05 28 33 28 33 37 24.05 37"></polygon>
            <polygon id="outlook" fill="#14447D" points="15.16 27.7 24.05 27.7 24.05 35.11 15.16 35.11"></polygon>
            <polygon id="outlook" fill="#0078D4" points="33 28 42.05 28 42.05 36 33 36"></polygon>
            <polygon id="outlook" fill="#0364B8" points="15.16 19.56 24.05 19.56 24.05 27.71 15.16 27.71"></polygon>
            <path d="M42,12 L42,7.91 C42,7.5 41.9111092,6.98038039 41.5959231,6.63142433 C41.2807369,6.28246828 40.8396499,6.07327184 40.37,6.05 L16.7,6 C16.2277472,6.02074694 15.7831417,6.22848972 15.4642311,6.57741548 C15.1453204,6.92634124 14.9782992,7.38779003 15,7.86 L15,12 L42,12 Z" id="outlook" fill="#0358A7"></path>
            <path d="M28,34.5 L13,25.5 L13,24 L27.1138155,31.0569077 L27.1138155,31.0569077 C27.6722229,31.3361114 28.3289787,31.3385369 28.889433,31.0634652 L43.002,24.137 L43.002,24.137 L43,25 L28,34.5 Z" id="outlook" fill="#0A2767" opacity="0.5"></path>
            <path d="M42.64,24.74 L29.07,32.7 L28.89,32.8 C28.629962,32.9327166 28.3419449,33.0012921 28.05,33 C27.7612053,33.0016529 27.4763453,32.933012 27.22,32.8 L27.04,32.7 L13.49,24.76 C13.2261835,24.6077304 13.0654726,24.3245729 13.07,24.02 L13.07,40.07 C13.0619879,40.57564 13.2558813,41.0636123 13.6087446,41.4258602 C13.9616078,41.7881081 14.4443239,41.9947403 14.95,42 L41.18,42 C41.6839316,41.992106 42.1640801,41.784317 42.5147866,41.422358 C42.865493,41.0603989 43.0080196,40.5039296 43,40 L43,24 C43.0065868,24.302507 42.8999706,24.5851802 42.64,24.74 Z" id="outlook" fill="#1490DF"></path>
            <path d="M41.14,42 C41.5602372,41.9993985 41.969608,41.8664405 42.31,41.62 L27.99,32.97 L27.8,32.91 L13.59,24.7 L13,24 L13,40 C13,41.092959 13.9271639,41.9836056 15.02,42 L41.14,42 Z" id="outlook" fill="#28A8EA"></path>
            <path d="M15,14 L15,13 L23.33,13 C24.2523155,13 25,13.7476845 25,14.67 L25,33 C25,34.1045695 24.1045695,35 23,35 L13,35 L13,34 L15,14 Z" id="outlook" fill="#0A2767" opacity="0.6"></path>
            <path d="M5.67,14 L22.33,14 C23.2523155,14 24,14.7476845 24,15.67 L24,32.33 C24,33.2523155 23.2523155,34 22.33,34 L5.67,34 C4.74768447,34 4,33.2523155 4,32.33 L4,15.67 C4,14.7476845 4.74768447,14 5.67,14 Z" id="outlook" fill="#107AD5"></path>
            <path d="M9.22,21.07 C9.62667247,20.1941504 10.2890845,19.4620107 11.12,18.97 C12.0311686,18.4458183 13.0691631,18.1828597 14.12,18.21 C15.1018421,18.1874538 16.0708244,18.4366207 16.92,18.93 C17.7066402,19.401608 18.341696,20.0887176 18.75,20.91 C19.2218018,21.8385519 19.4587194,22.8686283 19.44,23.91 C19.4546835,24.9733618 19.2182798,26.025187 18.75,26.98 C18.3364162,27.8460516 17.6751827,28.5699282 16.85,29.06 C15.9650649,29.5660197 14.9591614,29.8218165 13.94,29.8 C12.937726,29.8238562 11.9482324,29.5712932 11.08,29.07 C10.2749796,28.5999422 9.62497509,27.9047501 9.21,27.07 C8.75895256,26.1637017 8.53258219,25.1621843 8.55,24.15 C8.53627416,23.0857481 8.76541608,22.0323793 9.22,21.07 L9.22,21.07 Z M11.22,26 C11.4434173,26.5521357 11.8133966,27.032763 12.29,27.39 C12.7835706,27.7290117 13.3713798,27.903955 13.97,27.89 C14.6043452,27.9169001 15.2298956,27.734155 15.75,27.37 C16.2112933,27.0136559 16.5587838,26.5306441 16.75,25.98 C16.981199,25.3630884 17.0964658,24.70878 17.09,24.05 C17.0952681,23.3865113 16.9870418,22.7270071 16.77,22.1 C16.5791557,21.53529 16.2324786,21.0360751 15.77,20.66 C15.2599155,20.2803196 14.6354372,20.0862727 14,20.11 C13.3903811,20.094675 12.7916314,20.2732495 12.29,20.62 C11.7986594,20.9736097 11.4173226,21.4589475 11.19,22.02 C10.6985112,23.3080406 10.6985112,24.7319594 11.19,26.02 L11.22,26 Z" id="outlook" fill="#FFFFFF"></path>
        </g>
    </g>
</svg>