<?xml version="1.0" encoding="UTF-8"?>
<svg width="24px" height="24px" viewBox="0 0 24 24" version="1.1" xmlns="http://www.w3.org/2000/svg" xmlns:xlink="http://www.w3.org/1999/xlink">
    <!-- Generator: Sketch 59.1 (86144) - https://sketch.com -->
    <title>ic_office_outlook_24_mono</title>
    <desc>Created with Sketch.</desc>
    <g id="ðŸ”-Product-Icons" stroke="none" stroke-width="1" fill="none" fill-rule="evenodd">
        <g id="ic_office_outlook_24_mono" fill="#212121" fill-rule="nonzero">
            <path d="M20.099,3.0002 C20.5586923,3.0002 20.9374379,3.34443669 20.9929863,3.78830014 L21,3.9012 L21,10.9412 L21.749,11.3682 C21.896,11.4452 21.997,11.5912 21.997,11.7642 L21.998,12.0002 L22,12.0002 L22,20.1472 C22,20.5801231 21.6728047,20.9406201 21.2535858,20.9935195 L21.147,21.0002 L6.853,21.0002 C6.42007692,21.0002 6.05957988,20.6730047 6.00668047,20.2537858 L6,20.1472 L6,18.0002 L3,18.0002 C2.48928571,18.0002 2.06479592,17.6121898 2.0067602,17.116399 L2,17.0002 L2,7.0002 C2,6.48948571 2.3880102,6.06499592 2.88380102,6.0069602 L3,6.0002 L8,6.0002 L8,3.9012 C8,3.44150769 8.34338462,3.06276213 8.7879035,3.00721365 L8.901,3.0002 L20.099,3.0002 Z M14,16.6782 L14,17.0002 C14,17.5502 13.55,18.0002 13,18.0002 L13,18.0002 L7,18.0002 L7,20.0002 L19.585,20.0002 L14,16.6782 Z M21,12.6102 L14.978,16.0952 L21,19.6782 L21,12.6102 Z M8.092,7.8712 C7.261,7.8712 6.537,8.0542 5.938,8.4142 C5.337,8.7772 4.876,9.2862 4.568,9.9282 C4.266,10.5582 4.112,11.2872 4.112,12.0922 C4.112,12.8572 4.269,13.5532 4.579,14.1592 C4.892,14.7722 5.346,15.2602 5.929,15.6072 L5.929,15.6072 L6.12627023,15.7162288 C6.66275309,15.9901383 7.28211111,16.1292 7.971,16.1292 C8.756,16.1292 9.453,15.9502 10.042,15.5992 C10.635,15.2462 11.096,14.7432 11.415,14.1042 C11.729,13.4732 11.888,12.7402 11.888,11.9242 C11.888,11.1452 11.733,10.4422 11.427,9.8342 C11.117,9.2192 10.668,8.7322 10.092,8.3872 C9.519,8.0452 8.845,7.8712 8.092,7.8712 Z M15,11.0002 L14,11.0002 L14,15.4512 C14.125,15.4362 14.274,15.3882 14.475,15.2362 L14.475,15.2362 L15,14.9322 L15,11.0002 Z M20,11.0002 L16,11.0002 L16,14.3522 L20,12.0342 L20,11.0002 Z M8.0342,9.6472 C8.4612,9.6472 8.7982,9.7502 9.0632,9.9602 C9.3372,10.1762 9.5302,10.4542 9.6552,10.8092 C9.7842,11.1782 9.8502,11.5902 9.8502,12.0342 C9.8502,12.4752 9.7812,12.8802 9.6442,13.2362 C9.5132,13.5812 9.3122,13.8482 9.0342,14.0532 C8.7642,14.2522 8.4112,14.3522 7.9872,14.3522 C7.6042,14.3522 7.2862,14.2572 7.0132,14.0622 C6.7392,13.8652 6.5262,13.5902 6.3822,13.2422 C6.2312,12.8832 6.1552,12.4682 6.1552,12.0082 C6.1552,11.5482 6.2332,11.1322 6.3862,10.7682 C6.5342,10.4182 6.7522,10.1402 7.0332,9.9412 C7.3132,9.7442 7.6402,9.6472 8.0342,9.6472 Z M15,5.0002 L9,5.0002 L9,6.0002 L13,6.0002 C13.55,6.0002 14,6.4502 14,7.0002 L14,7.0002 L14,10.0002 L15,10.0002 L15,5.0002 Z M20,5.0002 L16,5.0002 L16,10.0002 L20,10.0002 L20,5.0002 Z" id="ðŸŽ¨-Color"></path>
        </g>
    </g>
</svg>