<?xml version="1.0" encoding="UTF-8"?>
<svg width="28px" height="28px" viewBox="0 0 28 28" version="1.1" xmlns="http://www.w3.org/2000/svg" xmlns:xlink="http://www.w3.org/1999/xlink">
    <!-- Generator: Sketch 59.1 (86144) - https://sketch.com -->
    <title>ic_office_outlook_28_mono</title>
    <desc>Created with Sketch.</desc>
    <g id="ðŸ”-Product-Icons" stroke="none" stroke-width="1" fill="none" fill-rule="evenodd">
        <g id="ic_office_outlook_28_mono" fill="#212121">
            <path d="M10.1562,16.2861 C10.4682,16.0571 10.6912,15.7591 10.8392,15.3741 C10.9902,14.9771 11.0672,14.5271 11.0672,14.0371 C11.0672,13.5451 10.9942,13.0871 10.8502,12.6771 C10.7132,12.2861 10.4912,11.9671 10.1902,11.7281 C9.8962,11.4961 9.5082,11.3781 9.0372,11.3781 C8.5972,11.3781 8.2312,11.4861 7.9182,11.7071 C7.6042,11.9291 7.3612,12.2401 7.1952,12.6311 C7.0252,13.0351 6.9382,13.4981 6.9382,14.0091 C6.9382,14.5191 7.0232,14.9811 7.1902,15.3811 C7.3522,15.7681 7.5892,16.0761 7.8962,16.2961 C8.2012,16.5151 8.5582,16.6211 8.9852,16.6211 C9.4602,16.6211 9.8532,16.5091 10.1562,16.2861 L10.1562,16.2861 Z M25.0042,23.2991 L17.4132,19.0681 L24.0072,15.3391 L24.0082,15.3411 L25.0042,14.7701 L25.0042,23.2991 Z M8.0002,24.0001 L8.0002,21.0001 L14.8332,21.0001 C15.4752,21.0001 16.0002,20.4741 16.0002,19.8331 L16.0002,19.4191 L24.0002,24.0001 L8.0002,24.0001 Z M6.7272,17.9581 C6.0892,17.5771 5.5912,17.0431 5.2472,16.3701 C4.9072,15.7051 4.7352,14.9411 4.7352,14.1011 C4.7352,13.2171 4.9042,12.4171 5.2362,11.7241 C5.5742,11.0201 6.0792,10.4631 6.7382,10.0651 C7.3942,9.6701 8.1892,9.4701 9.1012,9.4701 C9.9272,9.4701 10.6662,9.6611 11.2952,10.0361 C11.9272,10.4141 12.4192,10.9471 12.7592,11.6221 C13.0942,12.2891 13.2642,13.0611 13.2642,13.9161 C13.2642,14.8131 13.0902,15.6191 12.7442,16.3101 C12.3952,17.0111 11.8892,17.5621 11.2402,17.9491 C10.5932,18.3351 9.8292,18.5301 8.9682,18.5301 C8.1182,18.5301 7.3642,18.3381 6.7272,17.9581 L6.7272,17.9581 Z M17.0002,12.0001 L17.0002,18.1531 L16.5042,18.4331 C16.4282,18.4811 16.2112,18.3921 16.0002,18.2521 L16.0002,12.0001 L17.0002,12.0001 Z M10.0002,5.0001 L17.0002,5.0001 L17.0002,11.0001 L16.0002,11.0001 L16.0002,8.1661 C16.0002,7.5251 15.4752,7.0001 14.8332,7.0001 L10.0002,7.0001 L10.0002,5.0001 Z M18.0002,12.0001 L23.0002,12.0001 L23.0002,14.7601 L18.0002,17.5871 L18.0002,12.0001 Z M18.0002,11.0001 L23.0002,11.0001 L23.0002,5.0001 L18.0002,5.0001 L18.0002,11.0001 Z M25.7362,13.4601 L25.7362,13.4591 L25.7242,13.4531 C25.7232,13.4531 25.7232,13.4531 25.7232,13.4531 L24.0002,12.4711 L24.0002,3.9681 C24.0002,3.4331 23.5662,3.0001 23.0312,3.0001 L9.9682,3.0001 C9.4332,3.0001 9.0002,3.4331 9.0002,3.9681 L9.0002,7.0001 L3.1672,7.0001 C2.5252,7.0001 2.0002,7.5251 2.0002,8.1661 L2.0002,19.8331 C2.0002,20.4741 2.5252,21.0001 3.1672,21.0001 L7.0002,21.0001 L7.0002,23.9731 C7.0002,24.5371 7.4622,25.0001 8.0272,25.0001 L24.9722,25.0001 C25.5372,25.0001 26.0002,24.5371 26.0002,23.9731 L26.0002,13.9871 C26.0042,13.9611 26.0042,13.9531 26.0042,13.9251 C26.0042,13.7301 25.8932,13.5521 25.7362,13.4601 L25.7362,13.4601 Z" id="ðŸŽ¨-Color"></path>
        </g>
    </g>
</svg>