<svg width="20" height="20" viewBox="0 0 20 20" fill="none" xmlns="http://www.w3.org/2000/svg">
<path d="M4 4C4 2.89543 4.89543 2 6 2H14C15.1046 2 16 2.89543 16 4V13.883L15 14.893V4C15 3.44772 14.5523 3 14 3H6C5.44772 3 5 3.44772 5 4V16C5 16.5523 5.44772 17 6 17H10.0854C10.156 17.2002 10.2705 17.3885 10.4289 17.5501L10.87 18H6C4.89543 18 4 17.1046 4 16V4Z" fill="#212121"/>
<path d="M8 5.5C8 6.05228 7.55228 6.5 7 6.5C6.44772 6.5 6 6.05228 6 5.5C6 4.94772 6.44772 4.5 7 4.5C7.55228 4.5 8 4.94772 8 5.5Z" fill="#212121"/>
<path d="M9.5 5C9.22386 5 9 5.22386 9 5.5C9 5.77614 9.22386 6 9.5 6H13.5C13.7761 6 14 5.77614 14 5.5C14 5.22386 13.7761 5 13.5 5H9.5Z" fill="#212121"/>
<path d="M9.5 9C9.22386 9 9 9.22386 9 9.5C9 9.77614 9.22386 10 9.5 10H13.5C13.7761 10 14 9.77614 14 9.5C14 9.22386 13.7761 9 13.5 9H9.5Z" fill="#212121"/>
<path d="M9 13.5C9 13.2239 9.22386 13 9.5 13H13.5C13.7761 13 14 13.2239 14 13.5C14 13.7761 13.7761 14 13.5 14H9.5C9.22386 14 9 13.7761 9 13.5Z" fill="#212121"/>
<path d="M7 10.5C7.55228 10.5 8 10.0523 8 9.5C8 8.94772 7.55228 8.5 7 8.5C6.44772 8.5 6 8.94772 6 9.5C6 10.0523 6.44772 10.5 7 10.5Z" fill="#212121"/>
<path d="M7 14.5C7.55228 14.5 8 14.0523 8 13.5C8 12.9477 7.55228 12.5 7 12.5C6.44772 12.5 6 12.9477 6 13.5C6 14.0523 6.44772 14.5 7 14.5Z" fill="#212121"/>
<path d="M17.8553 14.8518C18.0496 14.6556 18.048 14.339 17.8518 14.1447C17.6556 13.9504 17.339 13.952 17.1447 14.1482L13.5018 17.8276L11.857 16.15C11.6637 15.9528 11.3471 15.9496 11.15 16.143C10.9528 16.3363 10.9496 16.6529 11.143 16.85L13.0719 18.8176C13.3063 19.0567 13.6911 19.0576 13.9267 18.8197L17.8553 14.8518Z" fill="#212121"/>
</svg>
