<svg width="16" height="16" viewBox="0 0 16 16" fill="none" xmlns="http://www.w3.org/2000/svg">
<path d="M13.2941 14.0012L14.1464 14.8536C14.3417 15.0488 14.6583 15.0488 14.8536 14.8536C15.0488 14.6583 15.0488 14.3417 14.8536 14.1464L1.85355 1.14645C1.65829 0.951184 1.34171 0.951184 1.14645 1.14645C0.951184 1.34171 0.951184 1.65829 1.14645 1.85355L4.31464 5.02174L2.02008 5.7966C1.41043 6.00248 1 6.57427 1 7.21776V8.78323C1 9.42595 1.40947 9.99725 2.01813 10.2037L4 10.876V12C4 13.6568 5.34315 15 7 15C8.35497 15 9.50014 14.1017 9.87246 12.8681L13.0181 13.9353C13.1101 13.9665 13.2024 13.9882 13.2941 14.0012ZM5 11.2153L8.9244 12.5465C8.6866 13.3854 7.91507 14 7 14C5.89543 14 5 13.1045 5 12V11.2153ZM15 12.5148C15 12.6283 14.9877 12.738 14.9644 12.8431L6.42906 4.30772L13.0201 2.08197C13.9924 1.75361 15 2.47681 15 3.50312V12.5148Z" fill="#212121"/>
</svg>
