<svg width="20" height="20" viewBox="0 0 20 20" fill="none" xmlns="http://www.w3.org/2000/svg">
<path d="M19 5.5C19 7.98528 16.9853 10 14.5 10C12.0147 10 10 7.98528 10 5.5C10 3.01472 12.0147 1 14.5 1C16.9853 1 19 3.01472 19 5.5ZM16.3536 4.35355C16.5488 4.15829 16.5488 3.84171 16.3536 3.64645C16.1583 3.45118 15.8417 3.45118 15.6464 3.64645L14.5 4.79289L13.3536 3.64645C13.1583 3.45118 12.8417 3.45118 12.6464 3.64645C12.4512 3.84171 12.4512 4.15829 12.6464 4.35355L13.7929 5.5L12.6464 6.64645C12.4512 6.84171 12.4512 7.15829 12.6464 7.35355C12.8417 7.54882 13.1583 7.54882 13.3536 7.35355L14.5 6.20711L15.6464 7.35355C15.8417 7.54882 16.1583 7.54882 16.3536 7.35355C16.5488 7.15829 16.5488 6.84171 16.3536 6.64645L15.2071 5.5L16.3536 4.35355ZM14.5 11C15.8296 11 17.0491 10.5282 18 9.74284V16C18 17.1046 17.1046 18 16 18H10.5V9.27494C11.5028 10.3371 12.924 11 14.5 11ZM9.5 7.79449C9.24506 7.23985 9.07969 6.63551 9.02242 6H4C2.89543 6 2 6.89543 2 8V16C2 17.1046 2.89543 18 4 18H9.5V7.79449ZM6 15.5C6 15.2239 6.22386 15 6.5 15H7.5C7.77614 15 8 15.2239 8 15.5C8 15.7761 7.77614 16 7.5 16H6.5C6.22386 16 6 15.7761 6 15.5ZM12.5 15C12.2239 15 12 15.2239 12 15.5C12 15.7761 12.2239 16 12.5 16H13.5C13.7761 16 14 15.7761 14 15.5C14 15.2239 13.7761 15 13.5 15H12.5Z" fill="#212121"/>
</svg>
