<svg width="24" height="24" viewBox="0 0 24 24" fill="none" xmlns="http://www.w3.org/2000/svg">
<path d="M18.5 12C19.2181 12 19.9091 12.1165 20.555 12.3315C21.0646 9.60334 20.2641 6.6786 18.1533 4.56789C14.7529 1.16748 9.23978 1.16748 5.83937 4.56789C2.43896 7.9683 2.43896 13.4815 5.83937 16.8819C6.13521 17.1777 6.50248 17.541 6.94124 17.9718L10.4323 21.3677C11.1079 22.0211 12.0905 22.1684 12.9045 21.8096C12.3299 20.8402 12 19.7086 12 18.5C12 14.9101 14.9101 12 18.5 12ZM14.4966 10.9996C14.4966 12.3804 13.3772 13.4998 11.9964 13.4998C10.6155 13.4998 9.49616 12.3804 9.49616 10.9996C9.49616 9.61875 10.6155 8.49937 11.9964 8.49937C13.3772 8.49937 14.4966 9.61875 14.4966 10.9996ZM15.2811 14.9759C15.5959 16.0661 14.9415 17.1995 13.8399 17.4721L13.2557 17.6166C13.2108 17.9043 13.1875 18.1995 13.1875 18.5003C13.1875 18.815 13.213 19.1235 13.2621 19.4237L13.8015 19.5536C14.9141 19.8216 15.5754 20.9666 15.2515 22.0641L15.0652 22.6954C15.5044 23.081 16.0048 23.3942 16.5494 23.6169L17.0427 23.0982C17.8312 22.269 19.1535 22.2692 19.9418 23.0987L20.4405 23.6235C20.9841 23.4032 21.484 23.093 21.9233 22.7106L21.7253 22.0247C21.4105 20.9344 22.0649 19.801 23.1665 19.5285L23.7502 19.384C23.7951 19.0963 23.8184 18.8011 23.8184 18.5003C23.8184 18.1856 23.7929 17.877 23.7438 17.5767L23.2048 17.4469C22.0923 17.179 21.431 16.034 21.7549 14.9364L21.941 14.3056C21.5019 13.9198 21.0014 13.6066 20.4568 13.3838L19.9637 13.9023C19.1752 14.7316 17.8529 14.7313 17.0646 13.9018L16.5658 13.377C16.0223 13.5972 15.5223 13.9073 15.083 14.2897L15.2811 14.9759ZM18.503 20.0003C17.7023 20.0003 17.0533 19.3287 17.0533 18.5003C17.0533 17.6719 17.7023 17.0003 18.503 17.0003C19.3036 17.0003 19.9526 17.6719 19.9526 18.5003C19.9526 19.3287 19.3036 20.0003 18.503 20.0003Z" fill="#212121"/>
</svg>
