<svg width="28" height="28" viewBox="0 0 28 28" fill="none" xmlns="http://www.w3.org/2000/svg">
<path d="M3 2.75C3 2.33579 3.33579 2 3.75 2C4.16421 2 4.5 2.33579 4.5 2.75V25.25C4.5 25.6642 4.16421 26 3.75 26C3.33579 26 3 25.6642 3 25.25V2.75ZM8.75 5C7.23122 5 6 6.23122 6 7.75V10.25C6 11.7688 7.23122 13 8.75 13L22.25 13C23.7688 13 25 11.7688 25 10.25V7.75C25 6.23122 23.7688 5 22.25 5L8.75 5ZM8.75 15C7.23122 15 6 16.2312 6 17.75V20.25C6 21.7688 7.23122 23 8.75 23H16.75C18.2688 23 19.5 21.7688 19.5 20.25V17.75C19.5 16.2312 18.2688 15 16.75 15L8.75 15Z" fill="#212121"/>
</svg>
