<svg width="28" height="28" viewBox="0 0 28 28" fill="none" xmlns="http://www.w3.org/2000/svg">
<path d="M23.6538 2.11794C23.8695 2.25573 24.0001 2.49403 24.0001 2.75V12.25C24.0001 12.6642 23.6643 13 23.2501 13H2.75007C2.39808 13 2.09344 12.7552 2.01766 12.4115C1.94188 12.0677 2.11536 11.7175 2.43473 11.5695L22.9347 2.06952C23.167 1.96189 23.4381 1.98015 23.6538 2.11794ZM6.15225 11.5H22.5001V3.92418L6.15225 11.5ZM24.0003 25.25C24.0003 25.506 23.8698 25.7443 23.654 25.8821C23.4383 26.0199 23.1672 26.0381 22.935 25.9305L2.43497 16.4305C2.1156 16.2825 1.94213 15.9323 2.0179 15.5885C2.09368 15.2448 2.39832 15 2.75032 15H23.2503C23.6645 15 24.0003 15.3358 24.0003 15.75V25.25Z" fill="#212121"/>
</svg>
