<svg width="24" height="24" viewBox="0 0 24 24" fill="none" xmlns="http://www.w3.org/2000/svg">
<path d="M13 4.75281C13 3.78631 12.2165 3.00281 11.25 3.00281H4.75C3.7835 3.00281 3 3.78631 3 4.75281V9.25281C3 10.2193 3.7835 11.0028 4.75 11.0028H11.25C12.2165 11.0028 13 10.2193 13 9.25281V4.75281ZM8.98759 14.7346C8.98759 13.7681 8.20408 12.9846 7.23759 12.9846H4.75C3.7835 12.9846 3 13.7681 3 14.7346V19.249C3 20.2155 3.7835 20.999 4.75 20.999H7.23759C8.20408 20.999 8.98759 20.2155 8.98759 19.249V14.7346ZM11.5 4.75281V9.25281C11.5 9.39088 11.3881 9.50281 11.25 9.50281H4.75C4.61193 9.50281 4.5 9.39088 4.5 9.25281V4.75281C4.5 4.61474 4.61193 4.50281 4.75 4.50281H11.25C11.3881 4.50281 11.5 4.61474 11.5 4.75281ZM7.48759 14.7346V19.249C7.48759 19.3871 7.37566 19.499 7.23759 19.499H4.75C4.61193 19.499 4.5 19.3871 4.5 19.249V14.7346C4.5 14.5965 4.61193 14.4846 4.75 14.4846H7.23759C7.37566 14.4846 7.48759 14.5965 7.48759 14.7346ZM21.0017 14.749C21.0017 13.7825 20.2182 12.999 19.2517 12.999H12.7517C11.8335 12.999 11.0805 13.7061 11.0075 14.6055L11.0017 14.749V19.249C11.0017 20.2155 11.7852 20.999 12.7517 20.999H19.2517C20.2182 20.999 21.0017 20.2155 21.0017 19.249V14.749ZM19.5017 14.749V19.249C19.5017 19.3871 19.3898 19.499 19.2517 19.499H12.7517C12.6136 19.499 12.5017 19.3871 12.5017 19.249V14.749L12.5083 14.6917C12.5342 14.5813 12.6333 14.499 12.7517 14.499H19.2517C19.3898 14.499 19.5017 14.6109 19.5017 14.749ZM21.0017 4.75281C21.0017 3.78631 20.2182 3.00281 19.2517 3.00281H16.7517C15.7852 3.00281 15.0017 3.78631 15.0017 4.75281V9.25281C15.0017 10.2193 15.7852 11.0028 16.7517 11.0028H19.2517C20.2182 11.0028 21.0017 10.2193 21.0017 9.25281V4.75281ZM19.5017 9.25281C19.5017 9.39088 19.3898 9.50281 19.2517 9.50281H16.7517C16.6136 9.50281 16.5017 9.39088 16.5017 9.25281V4.75281C16.5017 4.61474 16.6136 4.50281 16.7517 4.50281H19.2517C19.3898 4.50281 19.5017 4.61474 19.5017 4.75281V9.25281Z" fill="#212121"/>
</svg>
