<svg width="16" height="16" viewBox="0 0 16 16" fill="none" xmlns="http://www.w3.org/2000/svg">
<path d="M15 5.5C15 7.98528 12.9853 10 10.5 10C8.01472 10 6 7.98528 6 5.5C6 3.01472 8.01472 1 10.5 1C12.9853 1 15 3.01472 15 5.5ZM12.3536 4.35355C12.5488 4.15829 12.5488 3.84171 12.3536 3.64645C12.1583 3.45118 11.8417 3.45118 11.6464 3.64645L10.5 4.79289L9.35355 3.64645C9.15829 3.45118 8.84171 3.45118 8.64645 3.64645C8.45118 3.84171 8.45118 4.15829 8.64645 4.35355L9.79289 5.5L8.64645 6.64645C8.45118 6.84171 8.45118 7.15829 8.64645 7.35355C8.84171 7.54882 9.15829 7.54882 9.35355 7.35355L10.5 6.20711L11.6464 7.35355C11.8417 7.54882 12.1583 7.54882 12.3536 7.35355C12.5488 7.15829 12.5488 6.84171 12.3536 6.64645L11.2071 5.5L12.3536 4.35355ZM10.5 11C10.8679 11 11.2273 10.9639 11.5749 10.895C11.1259 11.5616 10.3641 12 9.5 12H7.5V14H9.5C9.77614 14 10 14.2239 10 14.5C10 14.7761 9.77614 15 9.5 15H4.5C4.22386 15 4 14.7761 4 14.5C4 14.2239 4.22386 14 4.5 14H6.5V12H4.5C3.11929 12 2 10.8807 2 9.5L2 5C1.44772 5 1 4.55228 1 4C1 3.44772 1.44772 3 2 3H5.59971C5.21628 3.75007 5 4.59978 5 5.5C5 8.53757 7.46243 11 10.5 11Z" fill="#212121"/>
</svg>
