<svg width="29" height="28" viewBox="0 0 29 28" fill="none" xmlns="http://www.w3.org/2000/svg">
<path d="M27.416 7.5C27.416 11.0899 24.5059 14 20.916 14C17.3262 14 14.416 11.0899 14.416 7.5C14.416 3.91015 17.3262 1 20.916 1C24.5059 1 27.416 3.91015 27.416 7.5ZM18.2696 4.14645C18.0743 3.95118 17.7577 3.95118 17.5625 4.14645C17.3672 4.34171 17.3672 4.65829 17.5625 4.85355L20.2089 7.5L17.5625 10.1464C17.3672 10.3417 17.3672 10.6583 17.5625 10.8536C17.7577 11.0488 18.0743 11.0488 18.2696 10.8536L20.916 8.20711L23.5625 10.8536C23.7577 11.0488 24.0743 11.0488 24.2696 10.8536C24.4648 10.6583 24.4648 10.3417 24.2696 10.1464L21.6231 7.5L24.2696 4.85355C24.4648 4.65829 24.4648 4.34171 24.2696 4.14645C24.0743 3.95118 23.7577 3.95118 23.5625 4.14645L20.916 6.79289L18.2696 4.14645ZM20.916 15C22.6044 15 24.1625 14.4421 25.416 13.5005V16.25C25.416 18.5972 23.5132 20.5 21.166 20.5H15.166V23.5H19.666C20.0802 23.5 20.416 23.8358 20.416 24.25C20.416 24.6642 20.0802 25 19.666 25H9.16602C8.7518 25 8.41602 24.6642 8.41602 24.25C8.41602 23.8358 8.7518 23.5 9.16602 23.5H13.666V20.5H7.66602C5.31881 20.5 3.41602 18.5972 3.41602 16.25V6.73244C2.81821 6.38663 2.41602 5.74028 2.41602 5C2.41602 3.89543 3.31145 3 4.41602 3H14.9155C13.9739 4.25349 13.416 5.81159 13.416 7.5C13.416 11.6421 16.7739 15 20.916 15Z" fill="#212121"/>
</svg>
