<svg width="24" height="24" viewBox="0 0 24 24" fill="none" xmlns="http://www.w3.org/2000/svg">
<path d="M11.5586 13.6465C11.8176 13.4575 12.1703 13.4553 12.4316 13.6396L12.5254 13.7178L19.4531 20.5186C18.9579 20.8239 18.3745 21 17.75 21H6.25C5.62551 21 5.04212 20.8239 4.54688 20.5186L11.4746 13.7178L11.5586 13.6465ZM17.75 3C19.5449 3 21 4.45507 21 6.25V17.75C21 18.377 20.8222 18.9624 20.5146 19.459L13.5762 12.6475L13.4473 12.5303C12.6146 11.8294 11.3943 11.8274 10.5596 12.5244L10.4238 12.6475L3.48535 19.459C3.17776 18.9624 3 18.377 3 17.75V11.9785C4.01027 12.6253 5.21142 13 6.5 13C10.0899 13 13 10.0899 13 6.5C13 5.21142 12.6253 4.01027 11.9785 3H17.75ZM6.5 1C9.53757 1 12 3.46243 12 6.5C12 9.53757 9.53757 12 6.5 12C3.46243 12 1 9.53757 1 6.5C1 3.46243 3.46243 1 6.5 1ZM15.752 6C14.5083 6.00009 13.5001 7.00827 13.5 8.25195C13.5 9.49571 14.5082 10.5038 15.752 10.5039C16.9958 10.5039 18.0039 9.49576 18.0039 8.25195C18.0038 7.00822 16.9957 6 15.752 6ZM6.50098 3C5.52139 3 4.63529 3.40222 4 4.05078V3.5C4 3.22386 3.77614 3 3.5 3C3.22386 3 3 3.22386 3 3.5V5.5C3 5.77614 3.22386 6 3.5 6H5.5C5.77614 6 6 5.77614 6 5.5C6 5.22386 5.77614 5 5.5 5H4.50098C4.95709 4.3929 5.68317 4 6.50098 4C7.88156 4.00015 9.00098 5.11938 9.00098 6.5C9.00098 7.88062 7.88156 8.99985 6.50098 9C5.78338 9 5.13562 8.69812 4.67969 8.21387C4.5593 8.086 4.39729 8.00008 4.22168 8C3.81128 8 3.55039 8.4272 3.81348 8.74219C4.45551 9.51082 5.42116 10 6.50098 10C8.43385 9.99985 10.001 8.4329 10.001 6.5C10.001 4.5671 8.43385 3.00015 6.50098 3ZM15.752 7.5C16.1673 7.5 16.5038 7.83665 16.5039 8.25195C16.5039 8.66733 16.1673 9.00391 15.752 9.00391C15.3366 9.00382 15 8.66728 15 8.25195C15.0001 7.8367 15.3367 7.50009 15.752 7.5Z" fill="#212121"/>
</svg>
