<svg width="16" height="16" viewBox="0 0 16 16" fill="none" xmlns="http://www.w3.org/2000/svg">
<path d="M2 6.5C2 6.22386 2.22386 6 2.5 6H13.5C13.7761 6 14 6.22386 14 6.5V14.5C14 14.7761 13.7761 15 13.5 15H2.5C2.22386 15 2 14.7761 2 14.5V6.5Z" fill="url(#paint0_linear_378174_8604)"/>
<path d="M4 9.5C4 9.22386 4.22386 9 4.5 9H7.5C7.77614 9 8 9.22386 8 9.5V15H4V9.5Z" fill="url(#paint1_linear_378174_8604)" fill-opacity="0.8"/>
<path d="M9 9.5C9 9.22386 9.22386 9 9.5 9H11.5C11.7761 9 12 9.22386 12 9.5V11.5C12 11.7761 11.7761 12 11.5 12H9.5C9.22386 12 9 11.7761 9 11.5V9.5Z" fill="url(#paint2_linear_378174_8604)" fill-opacity="0.8"/>
<path d="M7 2.5V1H4.50021C4.38668 1 4.27652 1.03864 4.18786 1.10957L1.68786 3.10957C1.56841 3.20513 1.52367 3.35006 1.50798 3.4984L1.5 3.5V5.5C1.5 6.88071 2.61929 8 4 8C5.38071 8 6.5 6.88071 6.5 5.5V3.5L6.08333 3.41667L7 2.5Z" fill="url(#paint3_linear_378174_8604)"/>
<path d="M14.4932 3.49863C14.4779 3.35013 14.4335 3.206 14.3129 3.10957L11.8129 1.10957C11.7243 1.03864 11.6141 1 11.5006 1H9V2.5L9.91667 3.41667L9.5 3.5V5.5C9.5 6.88071 10.6193 8 12 8C13.3807 8 14.5 6.88071 14.5 5.5V3.5L14.4932 3.49863Z" fill="url(#paint4_linear_378174_8604)"/>
<path d="M9.5 1L10.5 3.5V5.5C10.5 6.88071 9.38071 8 8 8C6.61929 8 5.5 6.88071 5.5 5.5V3.5L6.5 1H9.5Z" fill="url(#paint5_linear_378174_8604)"/>
<defs>
<linearGradient id="paint0_linear_378174_8604" x1="5" y1="6.81818" x2="6.56686" y2="15.4359" gradientUnits="userSpaceOnUse">
<stop offset="0.312325" stop-color="#29C3FF"/>
<stop offset="1" stop-color="#0094F0"/>
</linearGradient>
<linearGradient id="paint1_linear_378174_8604" x1="4.14286" y1="10.125" x2="8.02206" y2="12.8119" gradientUnits="userSpaceOnUse">
<stop stop-color="#0067BF"/>
<stop offset="1" stop-color="#003580"/>
</linearGradient>
<linearGradient id="paint2_linear_378174_8604" x1="9.9" y1="8.66667" x2="10.996" y2="12.6122" gradientUnits="userSpaceOnUse">
<stop stop-color="#FDFDFD"/>
<stop offset="1" stop-color="#B3E0FF"/>
</linearGradient>
<linearGradient id="paint3_linear_378174_8604" x1="4.03846" y1="1" x2="4.03846" y2="4.0625" gradientUnits="userSpaceOnUse">
<stop stop-color="#FB6F7B"/>
<stop offset="1" stop-color="#D7257D"/>
</linearGradient>
<linearGradient id="paint4_linear_378174_8604" x1="11.5385" y1="1" x2="11.5385" y2="4.0625" gradientUnits="userSpaceOnUse">
<stop stop-color="#FB6F7B"/>
<stop offset="1" stop-color="#D7257D"/>
</linearGradient>
<linearGradient id="paint5_linear_378174_8604" x1="8" y1="1" x2="8" y2="4.0625" gradientUnits="userSpaceOnUse">
<stop offset="0.303571" stop-color="#FF9FB2"/>
<stop offset="1" stop-color="#F97DBD"/>
</linearGradient>
</defs>
</svg>
