<svg width="24" height="24" viewBox="0 0 24 24" fill="none" xmlns="http://www.w3.org/2000/svg">
<path d="M10.0874 2.85421C11.1536 1.82216 12.8464 1.82216 13.9126 2.85421L21.0104 9.7244C21.6429 10.3367 22 11.1793 22 12.0596V18.75C22 19.9926 20.9926 21 19.75 21H18.6861L18.6297 20.9865C18.5376 20.9643 18.4017 20.9312 18.2283 20.8879C17.8815 20.8011 17.385 20.6734 16.7888 20.5104C15.5948 20.1837 14.008 19.717 12.4255 19.1543C10.835 18.5887 9.28446 17.9385 8.14425 17.2525C7.5727 16.9086 7.13858 16.5758 6.85565 16.2662C6.56848 15.9521 6.5 15.7328 6.5 15.6001C6.5 15.288 6.69957 14.9531 7.52094 14.614C8.32081 14.2838 9.43325 14.0753 10.658 13.8847C10.8863 13.8492 11.1188 13.8143 11.3527 13.7791C12.3281 13.6326 13.3273 13.4826 14.1429 13.2706C14.6511 13.1385 15.145 12.9692 15.5459 12.7299C15.9465 12.4909 16.341 12.1283 16.4776 11.582C16.6318 10.9654 16.3867 10.431 16.0669 10.0354C15.7542 9.64862 15.3056 9.30744 14.8341 9.00395C14.1582 8.56894 13.2952 8.12733 12.4507 7.69517C12.1255 7.52874 11.8029 7.36364 11.4949 7.20093C10.3242 6.58252 9.36305 5.99862 8.85234 5.4168C8.60785 5.13827 8.52602 4.92536 8.51651 4.76684C8.50796 4.62433 8.55032 4.40497 8.82157 4.0857C8.8296 4.07624 8.83736 4.06664 8.84485 4.05691L10.0874 2.85421ZM7.21526 5.63426L2.98964 9.7244C2.35711 10.3367 2 11.1793 2 12.0596V18.75C2 19.9926 3.00736 21 4.25 21H13.1917C12.7739 20.8633 12.3486 20.7189 11.9229 20.5676C10.3013 19.9909 8.63976 19.3012 7.37089 18.5377C6.7379 18.1569 6.16823 17.7374 5.74851 17.2783C5.33303 16.8238 5 16.258 5 15.6001C5 14.331 5.98131 13.6268 6.94855 13.2275C7.93728 12.8194 9.22117 12.5902 10.4273 12.4026C10.679 12.3634 10.9276 12.326 11.1715 12.2893C12.1393 12.1436 13.0343 12.0089 13.7656 11.8188C14.2208 11.7005 14.5557 11.5741 14.7772 11.4418C14.9991 11.3094 15.0207 11.2248 15.0224 11.2182C15.0245 11.2097 15.0267 11.2002 15.0183 11.1732C15.0074 11.1386 14.9775 11.0738 14.9004 10.9785C14.7393 10.7792 14.451 10.5413 14.0222 10.2653C13.4128 9.87298 12.6568 9.48616 11.8418 9.06917C11.5008 8.89468 11.1495 8.7149 10.7942 8.52724C9.65287 7.92429 8.44466 7.22617 7.72503 6.40633C7.52369 6.17695 7.34362 5.91939 7.21526 5.63426Z" fill="#212121"/>
</svg>
