<svg width="20" height="20" viewBox="0 0 20 20" fill="none" xmlns="http://www.w3.org/2000/svg">
<path d="M19 14.5C19 16.9853 16.9853 19 14.5 19C12.0147 19 10 16.9853 10 14.5C10 12.0147 12.0147 10 14.5 10C16.9853 10 19 12.0147 19 14.5ZM14.5 12C14.2239 12 14 12.2239 14 12.5V14.5C14 14.7761 14.2239 15 14.5 15H16C16.2761 15 16.5 14.7761 16.5 14.5C16.5 14.2239 16.2761 14 16 14H15V12.5C15 12.2239 14.7761 12 14.5 12Z" fill="#212121"/>
<path d="M17 9.60059C16.2498 9.21704 15.4004 9 14.5 9C13.3234 9 12.2342 9.37081 11.3398 10H8.5C8.22386 10 8 10.2239 8 10.5C8 10.7761 8.22386 11 8.5 11H10.2578C9.47231 11.951 9 13.1702 9 14.5C9 15.4005 9.21789 16.2497 9.60156 17H6C4.34315 17 3 15.6569 3 14V8H17V9.60059Z" fill="#242424"/>
<path d="M16.75 3C17.4404 3 18 3.55964 18 4.25V5.75C18 6.44036 17.4404 7 16.75 7H3.25C2.55964 7 2 6.44036 2 5.75V4.25C2 3.55964 2.55964 3 3.25 3H16.75Z" fill="#242424"/>
</svg>
