<svg width="20" height="20" viewBox="0 0 20 20" fill="none" xmlns="http://www.w3.org/2000/svg">
<path d="M6.5 12C6.77614 12 7 12.2239 7 12.5V17.293L8.14648 16.1465C8.34175 15.9512 8.65825 15.9512 8.85352 16.1465C9.04878 16.3417 9.04878 16.6583 8.85352 16.8535L6.85352 18.8535C6.65825 19.0488 6.34175 19.0488 6.14648 18.8535L4.14648 16.8535C3.95122 16.6583 3.95122 16.3417 4.14648 16.1465C4.34175 15.9512 4.65825 15.9512 4.85352 16.1465L6 17.293V12.5C6 12.2239 6.22386 12 6.5 12ZM13.1543 3.00391C14.7394 3.08421 16 4.39489 16 6V14H18V12.5C18 12.2239 18.2239 12 18.5 12C18.7761 12 19 12.2239 19 12.5V16.5C19 16.7761 18.7761 17 18.5 17C18.2239 17 18 16.7761 18 16.5V15H8V12.5C8 11.6716 7.32843 11 6.5 11C5.67157 11 5 11.6716 5 12.5V15H4C2.34315 15 1 13.6569 1 12C1 7.02944 5.02944 3 10 3H13L13.1543 3.00391ZM10 6C9.44771 6 9 6.44772 9 7V9L9.00488 9.10254C9.05621 9.60667 9.48232 10 10 10H12C12.5523 10 13 9.55228 13 9V7C13 6.48232 12.6067 6.05621 12.1025 6.00488L12 6H10Z" fill="#212121"/>
</svg>
