<svg width="16" height="16" viewBox="0 0 16 16" fill="none" xmlns="http://www.w3.org/2000/svg">
<path d="M5.00001 14H4.50001C3.11929 14 2 12.8807 2 11.5V11H5.00001V14ZM9.00002 14H6.00001V11H9.00002V14ZM13 11.5C13 12.8807 11.8807 14 10.5 14H10V11H13V11.5ZM5.00001 9.99997H2V6.99995H5.00001V9.99997ZM9.00002 9.99997H6.00001V6.99995H9.00002V9.99997ZM13 9.99997H10V6.99995H13V9.99997ZM5.00001 5.99995H2V5.49994C2.0001 4.1193 3.11935 2.99993 4.50001 2.99993H5.00001V5.99995ZM9.00002 5.99995H6.00001V2.99993H9.00002V5.99995ZM12.3692 0.973549C12.7619 0.653514 13.342 0.676993 13.708 1.04289L14.959 2.29289C15.3493 2.68322 15.349 3.31644 14.959 3.70696L13.708 4.95795C13.3421 5.32382 12.7629 5.34702 12.3702 5.02728L12.294 4.95795L11.043 3.70794C10.6525 3.31744 10.6525 2.68338 11.043 2.29289L12.294 1.04289L12.3692 0.973549Z" fill="#212121"/>
</svg>
