<svg width="28" height="28" viewBox="0 0 28 28" fill="none" xmlns="http://www.w3.org/2000/svg">
<path d="M17 11H23V21.25C22.9999 23.321 21.321 25 19.25 25H6.74999C4.67899 25 3.0001 23.321 3 21.25V8.75002C3 6.67895 4.67893 5.00002 6.74999 5.00002H17V11ZM4.5 21.25C4.5001 22.4926 5.50742 23.5 6.74999 23.5H8.99999V19H4.5V21.25ZM10.5 23.5H15.5V19H10.5V23.5ZM17 23.5H19.25C20.4925 23.5 21.4999 22.4926 21.5 21.25V19H17V23.5ZM4.5 17.5H8.99999V12.5H4.5V17.5ZM10.5 17.5H15.5V12.5H10.5V17.5ZM17 17.5H21.5V12.5H17V17.5ZM6.74999 6.50002C5.50735 6.50002 4.5 7.50738 4.5 8.75002V11H8.99999V6.50002H6.74999ZM10.5 11H15.5V6.50002H10.5V11ZM22.1152 1.11722C22.6034 0.62912 23.3946 0.629161 23.8828 1.11722L26.8818 4.11526C27.3699 4.60323 27.3706 5.39467 26.8828 5.88284L23.8828 8.88186C23.3946 9.36982 22.6034 9.36989 22.1152 8.88186L19.1162 5.88381C18.628 5.39574 18.6281 4.60437 19.1162 4.11624L22.1152 1.11722ZM20.3535 4.99905L22.999 7.64455L25.6445 4.99905L22.999 2.35452L20.3535 4.99905Z" fill="#212121"/>
</svg>
