<svg width="16" height="16" viewBox="0 0 16 16" fill="none" xmlns="http://www.w3.org/2000/svg">
<path d="M10.9961 7.59974C10.9778 7.87367 10.8848 8.13733 10.727 8.362C10.9594 8.56158 11.1252 8.82754 11.2019 9.12412C11.2787 9.4207 11.2628 9.73367 11.1564 10.021C11.05 10.3082 10.8582 10.5561 10.6068 10.7311C10.3553 10.9061 10.0564 11 9.75 11H8.5C8.36739 11 8.24021 10.9473 8.14645 10.8536C8.05268 10.7598 8 10.6326 8 10.5V6.5C8 6.36739 8.05268 6.24021 8.14645 6.14645C8.24021 6.05268 8.36739 6 8.5 6H9.5C9.77453 6.00011 10.0438 6.07555 10.2784 6.21812C10.513 6.36068 10.704 6.5649 10.8305 6.80852C10.9571 7.05214 11.0144 7.32582 10.9961 7.59974ZM9.5 7H9V8H9.5C9.63261 8 9.75979 7.94732 9.85355 7.85355C9.94732 7.75979 10 7.63261 10 7.5C10 7.36739 9.94732 7.24021 9.85355 7.14645C9.75979 7.05268 9.63261 7 9.5 7ZM9 10H9.75C9.88261 10 10.0098 9.94732 10.1036 9.85355C10.1973 9.75979 10.25 9.63261 10.25 9.5C10.25 9.36739 10.1973 9.24021 10.1036 9.14645C10.0098 9.05268 9.88261 9 9.75 9H9V10ZM6.522 8.588C6.75928 8.98073 6.92834 9.41081 7.022 9.86C7.02857 9.88628 7.03478 9.91184 7.04079 9.93654C7.05945 10.0134 7.07608 10.0818 7.095 10.137C7.16758 10.2058 7.21788 10.2947 7.23942 10.3923C7.26095 10.4899 7.25272 10.5918 7.2158 10.6847C7.17887 10.7776 7.11495 10.8573 7.03227 10.9135C6.9496 10.9697 6.85197 10.9998 6.752 11C6.27649 11 6.16223 10.5419 6.05234 10.1014L6.052 10.1L6.04925 10.0891C5.95824 9.73004 5.77321 9 5.5 9H5V10.5C5 10.6326 4.94732 10.7598 4.85355 10.8536C4.75979 10.9473 4.63261 11 4.5 11C4.36739 11 4.24021 10.9473 4.14645 10.8536C4.05268 10.7598 4 10.6326 4 10.5V6.5C4 6.36739 4.05268 6.24021 4.14645 6.14645C4.24021 6.05268 4.36739 6 4.5 6H5.5C5.79911 6.00211 6.09075 6.09359 6.33748 6.26269C6.5842 6.4318 6.77473 6.67081 6.8846 6.94902C6.99446 7.22722 7.01864 7.53193 6.95403 7.82398C6.88942 8.11603 6.73897 8.3821 6.522 8.588ZM5.5 7H5V8H5.5C5.63261 8 5.75979 7.94732 5.85355 7.85355C5.94732 7.75979 6 7.63261 6 7.5C6 7.36739 5.94732 7.24021 5.85355 7.14645C5.75979 7.05268 5.63261 7 5.5 7ZM2.75 3C1.7835 3 1 3.7835 1 4.75V12.25C1 13.2165 1.7835 14 2.75 14H12.25C13.2165 14 14 13.2165 14 12.25V4.75C14 3.7835 13.2165 3 12.25 3H2.75ZM2 4.75C2 4.33579 2.33579 4 2.75 4H12.25C12.6642 4 13 4.33579 13 4.75V12.25C13 12.6642 12.6642 13 12.25 13H2.75C2.33579 13 2 12.6642 2 12.25V4.75Z" fill="#212121"/>
</svg>
