<svg width="16" height="16" viewBox="0 0 16 16" fill="none" xmlns="http://www.w3.org/2000/svg">
<path d="M13.8194 5.42773C14.5604 6.42588 15 7.66131 15 9C15 10.0215 14.741 10.9826 14.2901 11.8252L14.9824 14.3682C15.0309 14.546 14.9776 14.7366 14.8438 14.8633C14.7098 14.9899 14.5167 15.0329 14.3418 14.9746L11.9981 14.1924C11.1155 14.7032 10.0927 15 9.00002 15C7.66203 15 6.4266 14.5617 5.42873 13.8213C5.93404 13.9377 6.45996 14 7.00001 14C7.36943 14 7.732 13.9702 8.08595 13.915C8.38239 13.9698 8.68772 14 9.00002 14C9.9841 14 10.9003 13.7153 11.6738 13.2246C11.81 13.1383 11.9497 13.1395 12.0996 13.1719L13.7725 13.7295L13.2725 11.8965C13.2373 11.7672 13.2558 11.6285 13.3233 11.5127C13.7533 10.7746 14 9.9168 14 9C14 8.6877 13.9698 8.38238 13.9151 8.08594C13.9702 7.73198 14 7.36943 14 7C14 6.45915 13.9355 5.93336 13.8194 5.42773ZM7.00001 1C10.3137 1 13 3.68629 13 7C13 10.3137 10.3137 13 7.00001 13C5.90733 13 4.88449 12.7032 4.00197 12.1924L1.65822 12.9746C1.48336 13.0329 1.2902 12.9899 1.15626 12.8633C1.02243 12.7366 0.969166 12.546 1.01759 12.3682L1.70997 9.8252C1.25906 8.98265 1.00001 8.02152 1.00001 7C1.00001 3.68633 3.68635 1.00006 7.00001 1ZM9.35353 5.14648C9.15827 4.95125 8.84175 4.95123 8.6465 5.14648L6.00001 7.79297L4.85353 6.64648C4.65827 6.45125 4.34175 6.45123 4.1465 6.64648C3.95127 6.84174 3.95127 7.15826 4.1465 7.35352L5.6465 8.85352C5.84175 9.04877 6.15827 9.04875 6.35353 8.85352L9.35353 5.85352C9.54879 5.65825 9.54879 5.34175 9.35353 5.14648Z" fill="#212121"/>
</svg>
