<svg width="24" height="24" viewBox="0 0 24 24" fill="none" xmlns="http://www.w3.org/2000/svg">
<path d="M20.0049 11.5C20.5177 11.5 20.9405 11.886 20.9982 12.3834L21.005 12.5V17.0001C21.005 19.9636 18.661 22.3796 15.7261 22.4955L15.5048 22.4999L8.25005 22.4997C7.03649 22.4997 6.02488 21.6349 5.79778 20.488L8.14491 20.4886L8.19671 20.4969L8.25013 20.4997L15.5049 20.4999C17.3695 20.5 18.8935 19.0421 18.9991 17.204L19.0049 17.0125L19.0049 12.5C19.0049 11.9477 19.4526 11.5 20.0049 11.5ZM16.9989 9.48663C17.5117 9.48663 17.9344 9.87267 17.9922 10.37L17.9989 10.4866V16.9876C17.9989 18.3131 16.9673 19.3977 15.6633 19.4823L15.4989 19.4876H5.49854C4.17305 19.4876 3.0885 18.4561 3.00385 17.152L2.99854 16.9876V10.4984C2.99854 9.94609 3.44625 9.49838 3.99854 9.49838C4.51137 9.49838 4.93404 9.88442 4.99181 10.3818L4.99854 10.4984V16.9876C4.99854 17.2331 5.17541 17.4372 5.40866 17.4796L5.49854 17.4876H15.4989C15.7443 17.4876 15.9485 17.3108 15.9908 17.0775L15.9989 16.9876V10.4866C15.9989 9.93435 16.4466 9.48663 16.9989 9.48663ZM6.29277 5.79313L9.79041 2.29313C10.1508 1.93253 10.718 1.90461 11.1104 2.2095L11.2046 2.29266L14.707 5.79266C15.0976 6.18305 15.0978 6.81621 14.7075 7.20687C14.3471 7.56747 13.7799 7.59539 13.3875 7.2905L13.2932 7.20734L11.4995 5.415L11.5001 14.2549C11.5001 14.7678 11.1141 15.1905 10.6167 15.2482L10.5001 15.2549C9.98728 15.2549 9.5646 14.8689 9.50684 14.3716L9.50011 14.2549L9.49953 5.412L7.70746 7.20687C7.34709 7.56747 6.77987 7.59539 6.38748 7.2905L6.29324 7.20734C5.93264 6.84698 5.90472 6.27976 6.20961 5.88737L6.29277 5.79313L9.79041 2.29313L6.29277 5.79313Z" fill="#212121"/>
</svg>
