<svg width="20" height="20" viewBox="0 0 20 20" fill="none" xmlns="http://www.w3.org/2000/svg">
<path d="M2.04236 4.75C2.04236 3.7835 2.82586 3 3.79236 3H12.2504C13.2169 3 14.0004 3.7835 14.0004 4.75V6.00006L14.8823 5.99994C15.4505 5.99986 15.97 6.32087 16.2241 6.82912L17.8421 10.0651C17.9462 10.2734 18.0005 10.5031 18.0005 10.7359V14.4999C18.0005 15.3283 17.3289 15.9999 16.5005 15.9999H14.9504C14.7188 17.141 13.7099 18 12.5004 18C11.2909 18 10.282 17.1411 10.0504 16H8.95036C8.71872 17.1411 7.70985 18 6.50037 18C5.29089 18 4.28201 17.1411 4.05038 16H3.79236C2.82586 16 2.04236 15.2165 2.04236 14.25V4.75ZM10.0504 15C10.282 13.8589 11.2909 13 12.5004 13C12.6716 13 12.8388 13.0172 13.0004 13.05V4.75C13.0004 4.33579 12.6646 4 12.2504 4H3.79236C3.37814 4 3.04236 4.33579 3.04236 4.75V14.25C3.04236 14.6642 3.37814 15 3.79236 15H4.05038C4.28201 13.8589 5.29089 13 6.50037 13C7.70985 13 8.71872 13.8589 8.95036 15H10.0504ZM14.0004 13.4998C14.4804 13.8604 14.8265 14.3898 14.9503 14.9999H16.5005C16.7766 14.9999 17.0005 14.776 17.0005 14.4999V10.9999H14.0004V13.4998ZM14.0004 9.99994H16.6915L15.3297 7.27633C15.245 7.10692 15.0718 6.99991 14.8824 6.99994L14.0004 7.00006V9.99994ZM6.50037 14C5.67194 14 5.00037 14.6716 5.00037 15.5C5.00037 16.3284 5.67194 17 6.50037 17C7.32879 17 8.00037 16.3284 8.00037 15.5C8.00037 14.6716 7.32879 14 6.50037 14ZM11.0004 15.5C11.0004 16.3284 11.6719 17 12.5004 17C13.3288 17 14.0004 16.3284 14.0004 15.5C14.0004 14.6716 13.3288 14 12.5004 14C11.6719 14 11.0004 14.6716 11.0004 15.5Z" fill="#212121"/>
</svg>
