<?xml version="1.0" encoding="UTF-8"?>
<svg width="24px" height="24px" viewBox="0 0 24 24" version="1.1" xmlns="http://www.w3.org/2000/svg" xmlns:xlink="http://www.w3.org/1999/xlink">
    <!-- Generator: Sketch 59.1 (86144) - https://sketch.com -->
    <title>ic_address_book_number_24_filled</title>
    <desc>Created with Sketch.</desc>
    <g id="ðŸ”-Product-Icons" stroke="none" stroke-width="1" fill="none" fill-rule="evenodd">
        <g id="ic_address_book_number_24_filled" fill="#212121">
            <path d="M18.2482428,2 C19.4908834,2 20.4982428,3.00735931 20.4982428,4.25 L20.4982428,19.754591 C20.4982428,20.9972317 19.4908834,22.004591 18.2482428,22.004591 L8,22.004591 L8,2 L18.2482428,2 Z M16.4482331,8.01749645 C16.04448,7.92499611 15.6421871,8.17731633 15.5496867,8.58106943 L15.5496867,8.58106943 L15.343,9.47938164 L13.876,9.47938164 L14.0112353,8.92675915 L14.0287658,8.82627631 C14.0675067,8.45888439 13.8297388,8.11025179 13.4609167,8.02003454 L13.4609167,8.02003454 L13.3604339,8.00250398 C12.993042,7.96376314 12.6444094,8.20153098 12.5541921,8.57035305 L12.5541921,8.57035305 L12.331,9.47938164 L11.2608845,9.48014017 L11.1591139,9.48698678 C10.7930384,9.53664921 10.5108845,9.8504444 10.5108845,10.2301402 L10.5108845,10.2301402 L10.5177311,10.3319107 C10.5673935,10.6979863 10.8811887,10.9801402 11.2608845,10.9801402 L11.2608845,10.9801402 L11.964,10.9793816 L11.576,12.5663816 L10.78,12.5669351 L10.6782294,12.5737817 C10.3121539,12.6234441 10.03,12.9372393 10.03,13.3169351 L10.03,13.3169351 L10.0368466,13.4187057 C10.086509,13.7847812 10.4003042,14.0669351 10.78,14.0669351 L10.78,14.0669351 L11.209,14.0663816 L11.0858308,14.5732408 L11.0683002,14.6737237 C11.0295594,15.0411156 11.2673272,15.3897482 11.6361493,15.4799655 L11.6361493,15.4799655 L11.7366321,15.497496 C12.1040241,15.5362369 12.4526567,15.298469 12.5428739,14.9296469 L12.5428739,14.9296469 L12.753,14.0663816 L14.292,14.0663816 L14.1744177,14.5839572 L14.1583644,14.6846866 C14.1250223,15.0526078 14.3678836,15.3977116 14.7379906,15.4825035 L14.7379906,15.4825035 L14.83872,15.4985568 C15.2066412,15.5318989 15.551745,15.2890376 15.636537,14.9189306 L15.636537,14.9189306 L15.831,14.0663816 L16.7715519,14.0669351 L16.8733225,14.0600885 C17.239398,14.0104261 17.5215519,13.6966309 17.5215519,13.3169351 L17.5215519,13.3169351 L17.5147053,13.2151645 C17.4650429,12.849089 17.1512477,12.5669351 16.7715519,12.5669351 L16.7715519,12.5669351 L16.175,12.5663816 L16.538,10.9793816 L17.2579127,10.9801402 L17.3596833,10.9732936 C17.7257588,10.9236311 18.0079127,10.6098359 18.0079127,10.2301402 L18.0079127,10.2301402 L18.0010661,10.1283696 C17.9514037,9.76229405 17.6376085,9.48014017 17.2579127,9.48014017 L17.2579127,9.48014017 L16.882,9.47938164 L17.011806,8.91604278 L17.0278593,8.81531336 C17.0612014,8.44739221 16.8183401,8.10228843 16.4482331,8.01749645 Z M15,10.9793816 L14.636,12.5663816 L13.12,12.5663816 L13.509,10.9793816 L15,10.9793816 Z M6.5,22.004591 L6.25,22.004591 C5.00735931,22.004591 4,20.9972317 4,19.754591 L4,4.25 C4,3.00735931 5.00735931,2 6.25,2 L6.5,2 L6.5,22.004591 Z" id="ðŸŽ¨-Color"></path>
        </g>
    </g>
</svg>