<?xml version="1.0" encoding="UTF-8"?>
<svg width="24px" height="24px" viewBox="0 0 24 24" version="1.1" xmlns="http://www.w3.org/2000/svg" xmlns:xlink="http://www.w3.org/1999/xlink">
    <!-- Generator: Sketch 59.1 (86144) - https://sketch.com -->
    <title>ic_address_book_number_24_regular</title>
    <desc>Created with Sketch.</desc>
    <g id="ðŸ”-Product-Icons" stroke="none" stroke-width="1" fill="none" fill-rule="evenodd">
        <g id="ic_address_book_number_24_regular" fill="#212121">
            <path d="M18.2482428,2 C19.4908834,2 20.4982428,3.00735931 20.4982428,4.25 L20.4982428,19.754591 C20.4982428,20.9972317 19.4908834,22.004591 18.2482428,22.004591 L6.25,22.004591 C5.00735931,22.004591 4,20.9972317 4,19.754591 L4,4.25 C4,3.00735931 5.00735931,2 6.25,2 L18.2482428,2 Z M6.5,3.499 L6.25,3.5 C5.83578644,3.5 5.5,3.83578644 5.5,4.25 L5.5,19.754591 C5.5,20.1688046 5.83578644,20.504591 6.25,20.504591 L6.5,20.504 L6.5,3.499 Z M18.2482428,3.5 L8,3.499 L8,20.504 L18.2482428,20.504591 C18.6624563,20.504591 18.9982428,20.1688046 18.9982428,19.754591 L18.9982428,4.25 C18.9982428,3.83578644 18.6624563,3.5 18.2482428,3.5 Z M12.0503181,8.57035305 C12.148737,8.1680017 12.5546914,7.92161571 12.9570428,8.02003454 C13.3593941,8.11845336 13.6057801,8.5244078 13.5073613,8.92675915 L13.5073613,8.92675915 L13.371,9.48 L14.839,9.48 L15.0458127,8.58106943 C15.1306047,8.21096242 15.4757085,7.9681011 15.8436297,8.00144322 L15.9443591,8.01749645 C16.3481122,8.10999679 16.6004324,8.51228968 16.507932,8.91604278 L16.507932,8.91604278 L16.378,9.48 L16.7540387,9.48014017 C17.1337345,9.48014017 17.4475297,9.76229405 17.4971921,10.1283696 L17.5040387,10.2301402 C17.5040387,10.6443537 17.1682523,10.9801402 16.7540387,10.9801402 L16.7540387,10.9801402 L16.034,10.98 L15.671,12.566 L16.2676779,12.5669351 C16.6473737,12.5669351 16.9611689,12.849089 17.0108313,13.2151645 L17.0176779,13.3169351 C17.0176779,13.7311487 16.6818915,14.0669351 16.2676779,14.0669351 L16.2676779,14.0669351 L15.327,14.066 L15.132663,14.9189306 C15.047871,15.2890376 14.7027672,15.5318989 14.3348461,15.4985568 L14.2341166,15.4825035 C13.8303636,15.3900032 13.5780433,14.9877103 13.6705437,14.5839572 L13.6705437,14.5839572 L13.788,14.066 L12.249,14.066 L12.0389999,14.9296469 C11.9487827,15.298469 11.6001501,15.5362369 11.2327582,15.497496 L11.1322753,15.4799655 C10.729924,15.3815466 10.483538,14.9755922 10.5819568,14.5732408 L10.5819568,14.5732408 L10.705,14.066 L10.276126,14.0669351 C9.89643025,14.0669351 9.58263506,13.7847812 9.53297264,13.4187057 L9.52612602,13.3169351 C9.52612602,12.9027215 9.86191246,12.5669351 10.276126,12.5669351 L10.276126,12.5669351 L11.072,12.566 L11.46,10.98 L10.7570105,10.9801402 C10.3773148,10.9801402 10.0635196,10.6979863 10.0138571,10.3319107 L10.0070105,10.2301402 C10.0070105,9.8159266 10.342797,9.48014017 10.7570105,9.48014017 L10.7570105,9.48014017 L11.827,9.48 Z M14.495,10.98 L13.004,10.98 L12.616,12.566 L14.132,12.566 L14.495,10.98 Z" id="ðŸŽ¨-Color"></path>
        </g>
    </g>
</svg>