<svg width="32" height="32" viewBox="0 0 32 32" fill="none" xmlns="http://www.w3.org/2000/svg">
<path d="M6.75821 8.17311L2.29241 3.70742C1.90188 3.3169 1.90188 2.68374 2.2924 2.29321C2.68292 1.90268 3.31608 1.90267 3.70661 2.29319L29.7069 28.2929C30.0974 28.6834 30.0975 29.3166 29.7069 29.7071C29.3164 30.0976 28.6832 30.0976 28.2927 29.7071L21.9998 23.4144V29C21.9998 29.3603 21.806 29.6927 21.4925 29.8702C21.179 30.0477 20.7943 30.0429 20.4853 29.8575L15.9998 27.1662L11.5143 29.8575C11.2054 30.0429 10.8206 30.0477 10.5071 29.8702C10.1936 29.6927 9.99982 29.3603 9.99982 29V20.0007C7.57092 18.1763 5.99982 15.2716 5.99982 12C5.99982 10.6445 6.26953 9.35192 6.75821 8.17311ZM19.8269 21.2415C18.6481 21.7303 17.3554 22 15.9998 22C14.5776 22 13.2247 21.7031 11.9998 21.1679V27.2338L15.4853 25.1425C15.802 24.9525 16.1976 24.9525 16.5143 25.1425L19.9998 27.2338V21.4144L19.8269 21.2415ZM18.2613 19.6759L8.32387 9.73874C8.11297 10.4558 7.99982 11.2147 7.99982 12C7.99982 16.4183 11.5815 20 15.9998 20C16.7852 20 17.5442 19.8868 18.2613 19.6759ZM23.9998 12C23.9998 14.3275 23.0058 16.4229 21.4192 17.8848L22.8344 19.2999C24.7825 17.4753 25.9998 14.8798 25.9998 12C25.9998 6.47715 21.5227 2 15.9998 2C13.1199 2 10.5244 3.21737 8.69973 5.16557L10.1149 6.58072C11.5768 4.99402 13.6722 4 15.9998 4C20.4181 4 23.9998 7.58172 23.9998 12Z" fill="#212121"/>
</svg>
