<svg width="32" height="32" viewBox="0 0 32 32" fill="none" xmlns="http://www.w3.org/2000/svg">
<path d="M21 4.5C20.1716 4.5 19.5 5.17157 19.5 6C19.5 6.82843 20.1716 7.5 21 7.5C21.8284 7.5 22.5 6.82843 22.5 6C22.5 5.17157 21.8284 4.5 21 4.5ZM24.5 6C24.5 7.58551 23.4457 8.92479 22 9.35506V12.5C22 14.1569 23.3431 15.5 25 15.5C26.4865 15.5 27.7205 14.4189 27.9585 13H26C25.5955 13 25.2309 12.7564 25.0761 12.3827C24.9213 12.009 25.0069 11.5789 25.2929 11.2929L28.2929 8.29289C28.5789 8.0069 29.009 7.92134 29.3827 8.07612C29.7564 8.2309 30 8.59554 30 9V12.5C30 15.2614 27.7614 17.5 25 17.5C22.2386 17.5 20 15.2614 20 12.5V9.35506C18.5543 8.92479 17.5 7.58551 17.5 6C17.5 4.067 19.067 2.5 21 2.5C22.933 2.5 24.5 4.067 24.5 6ZM30.0002 16.6533C29.4497 17.3154 28.7701 17.8664 28.0002 18.2677V22.5C28.0002 23.8807 26.8809 25 25.5002 25H6.50019C5.11948 25 4.00019 23.8807 4.00019 22.5V12.6742L15.5261 18.8805C15.8221 19.0398 16.1783 19.0398 16.4743 18.8805L20.1947 16.8772C19.744 16.3827 19.3686 15.8183 19.0866 15.2023L16.0002 16.8642L4.00019 10.4027V9.5C4.00019 8.11929 5.11948 7 6.50019 7H16.1C16.0344 6.67689 16 6.34247 16 6C16 5.65753 16.0344 5.32311 16.1 5H6.50019C4.01491 5 2.00019 7.01472 2.00019 9.5V10.9795C1.99993 10.9926 1.99994 11.0057 2.00019 11.0188V22.5C2.00019 24.9853 4.01491 27 6.50019 27H25.5002C27.9855 27 30.0002 24.9853 30.0002 22.5V16.6533Z" fill="#212121"/>
</svg>
