<svg width="32" height="32" viewBox="0 0 32 32" fill="none" xmlns="http://www.w3.org/2000/svg">
<path d="M6.98369 6.79656C7.53421 5.69551 8.65957 5 9.89058 5H22.1094C23.3404 5 24.4658 5.69551 25.0163 6.79656L29.5513 15.8666C29.8464 16.4567 30 17.1074 30 17.7672V22.75C30 24.5449 28.5449 26 26.75 26H5.25C3.45507 26 2 24.5449 2 22.75V17.7672C2 17.1074 2.15362 16.4567 2.44868 15.8666L6.98369 6.79656ZM23.2275 7.69098C23.0157 7.2675 22.5829 7 22.1094 7H9.89058C9.41711 7 8.98428 7.2675 8.77254 7.69098L5.11669 15.0027C5.16091 15.0009 5.20535 15 5.25 15H26.75C26.7947 15 26.8391 15.0009 26.8833 15.0027L23.2275 7.69098ZM4 18.25V22.75C4 23.4404 4.55964 24 5.25 24H26.75C27.4404 24 28 23.4404 28 22.75V18.25C28 17.5596 27.4404 17 26.75 17H5.25C4.55964 17 4 17.5596 4 18.25ZM24.5 21.75C25.1904 21.75 25.75 21.1904 25.75 20.5C25.75 19.8096 25.1904 19.25 24.5 19.25C23.8096 19.25 23.25 19.8096 23.25 20.5C23.25 21.1904 23.8096 21.75 24.5 21.75Z" fill="#212121"/>
</svg>
