<svg width="48" height="48" viewBox="0 0 48 48" fill="none" xmlns="http://www.w3.org/2000/svg">
<path d="M24 4C12.9543 4 4 12.9543 4 24C4 35.0457 12.9543 44 24 44C35.0457 44 44 35.0457 44 24C44 12.9543 35.0457 4 24 4ZM15.3661 23.8661C15.8543 23.378 16.6457 23.378 17.1339 23.8661L22.75 29.4822V15.25C22.75 14.5596 23.3096 14 24 14C24.6904 14 25.25 14.5596 25.25 15.25V29.4822L30.8661 23.8661C31.3543 23.378 32.1457 23.378 32.6339 23.8661C33.122 24.3543 33.122 25.1457 32.6339 25.6339L24.8839 33.3839C24.3957 33.872 23.6043 33.872 23.1161 33.3839L15.3661 25.6339C14.878 25.1457 14.878 24.3543 15.3661 23.8661Z" fill="#212121"/>
</svg>
