<?xml version="1.0" encoding="UTF-8"?>
<svg width="24px" height="24px" viewBox="0 0 24 24" version="1.1" xmlns="http://www.w3.org/2000/svg" xmlns:xlink="http://www.w3.org/1999/xlink">
    <!-- Generator: Sketch 64 (93537) - https://sketch.com -->
    <title>ic_fluent_arrow_sort_24_regular</title>
    <desc>Created with Sketch.</desc>
    <g id="ðŸ”-System-Icons" stroke="none" stroke-width="1" fill="none" fill-rule="evenodd">
        <g id="ic_fluent_arrow_sort_24_regular" fill="#212121" fill-rule="nonzero">
            <path d="M2.21965261,9.21968721 L6.71441333,4.72463325 C6.9804724,4.45855682 7.39676029,4.43414822 7.69038012,4.65156046 L7.77451313,4.72403891 L12.279365,9.21909288 C12.5725769,9.51166706 12.5730939,9.98654051 12.2805197,10.2797524 C12.0145431,10.5463087 11.5979061,10.5709683 11.3040576,10.3534337 L11.2198601,10.2809071 L7.997,7.06405396 L7.99766092,18.7598921 C7.99766092,19.1395878 7.71550704,19.453383 7.34943148,19.5030455 L7.24766092,19.5098921 C6.86796516,19.5098921 6.55416996,19.2277382 6.50450754,18.8616626 L6.49766092,18.7598921 L6.497,7.06205396 L3.28034739,10.2803128 C3.01408951,10.546588 2.59742662,10.5708077 2.30380802,10.3529628 L2.21968721,10.2803474 C1.95341197,10.0140895 1.92919232,9.59742662 2.14703721,9.30380802 L2.21965261,9.21968721 L6.71441333,4.72463325 L2.21965261,9.21968721 Z M16.6490901,4.50190058 L16.7508607,4.49505396 C17.1305564,4.49505396 17.4443516,4.77720785 17.4940141,5.14328341 L17.5008607,5.24505396 L17.5,16.941054 L20.7194483,13.7198917 C20.9856035,13.4535138 21.402257,13.4291336 21.6959596,13.6468653 L21.7801083,13.7194483 C22.0464862,13.9856035 22.0708664,14.402257 21.8531347,14.6959596 L21.7805517,14.7801083 L17.2843126,19.2801083 C17.0181573,19.5464863 16.6015037,19.5708664 16.3078012,19.3531346 L16.2236524,19.2805516 L11.7198915,14.7805516 C11.4268759,14.4877807 11.4266776,14.012907 11.7194484,13.7198915 C11.9856038,13.4535137 12.4022573,13.4291336 12.6959598,13.6468654 L12.7801085,13.7194484 L16,16.937054 L16.0008607,5.24505396 C16.0008607,4.8653582 16.2830146,4.551563 16.6490901,4.50190058 L16.7508607,4.49505396 L16.6490901,4.50190058 Z" id="ðŸŽ¨-Color"></path>
        </g>
    </g>
</svg>