<svg width="28" height="28" viewBox="0 0 28 28" fill="none" xmlns="http://www.w3.org/2000/svg">
<path d="M8.35153 4.01102L8.40997 4.004L8.5 4L8.57524 4.00279L8.70073 4.02024L8.81214 4.04974L8.92322 4.09367L9.02071 4.146L9.12545 4.21969L9.20711 4.29289L14.7071 9.79289C15.0976 10.1834 15.0976 10.8166 14.7071 11.2071C14.3466 11.5676 13.7794 11.5953 13.3871 11.2903L13.2929 11.2071L9.5 7.415V23C9.5 23.5523 9.05228 24 8.5 24C7.98716 24 7.56449 23.614 7.50673 23.1166L7.5 23V7.415L3.70711 11.2071C3.34662 11.5676 2.77939 11.5953 2.3871 11.2903L2.29289 11.2071C1.93241 10.8466 1.90468 10.2794 2.2097 9.8871L2.29289 9.79289L7.79289 4.29289C7.82829 4.2575 7.86567 4.22531 7.90469 4.19633L8.01594 4.12467L8.12866 4.07123L8.23401 4.03585L8.35153 4.01102ZM19.5 4C20.0128 4 20.4355 4.38604 20.4933 4.88338L20.5 5V20.585L24.2929 16.7929L24.3871 16.7097C24.7794 16.4047 25.3466 16.4324 25.7071 16.7929C26.0676 17.1534 26.0953 17.7206 25.7903 18.1129L25.7071 18.2071L20.2071 23.7071L20.1631 23.7485L20.0953 23.8037L19.9841 23.8753L19.8713 23.9288L19.766 23.9642L19.6485 23.989L19.5593 23.9983H19.4406L19.3819 23.9931L19.2665 23.9726L19.1583 23.9401L19.0768 23.9063L18.9793 23.854L18.8832 23.7872C18.8515 23.7623 18.8214 23.7356 18.7929 23.7071L13.2929 18.2071L13.2097 18.1129C12.9301 17.7533 12.9301 17.2467 13.2097 16.8871L13.2929 16.7929L13.3871 16.7097C13.7467 16.4301 14.2533 16.4301 14.6129 16.7097L14.7071 16.7929L18.5 20.585V5L18.5067 4.88338C18.5645 4.38604 18.9872 4 19.5 4Z" fill="#212121"/>
</svg>
