<svg width="20" height="20" viewBox="0 0 20 20" fill="none" xmlns="http://www.w3.org/2000/svg">
<path d="M6.49956 15H13.5004C13.7763 15 14 15.2239 14 15.5C14 15.7455 13.8233 15.9496 13.5902 15.9919L13.5004 16H6.49956C6.22366 16 6 15.7761 6 15.5C6 15.2545 6.17672 15.0504 6.40976 15.0081L6.49956 15ZM4.50391 13H15.4961C15.7744 13 16 13.2239 16 13.5C16 13.7455 15.8217 13.9496 15.5867 13.9919L15.4961 14H4.50391C4.22561 14 4 13.7761 4 13.5C4 13.2545 4.17826 13.0504 4.41333 13.0081L4.50391 13ZM10 3C12.4646 3 13.8627 4.5736 14.066 6.47399L14.1282 6.47399C15.7143 6.47399 17 7.71103 17 9.23699C17 10.763 15.7143 12 14.1282 12H5.87179C4.28575 12 3 10.763 3 9.23699C3 7.76755 4.19227 6.56602 5.69687 6.47903L5.93399 6.47399C6.13851 4.56111 7.53544 3 10 3Z" fill="#212121"/>
</svg>
