<svg width="24" height="24" viewBox="0 0 24 24" fill="none" xmlns="http://www.w3.org/2000/svg">
<path d="M13.4089 2.51203C12.5053 2.14573 11.4947 2.14573 10.5911 2.51203L3.09252 5.552C2.43211 5.81973 2 6.46118 2 7.1738V16.8265C2 17.5391 2.43211 18.1806 3.09252 18.4483L10.5911 21.4883C11.2187 21.7427 11.898 21.8204 12.5572 21.7214C11.5863 20.5856 11 19.1113 11 17.5C11 16.8786 11.0872 16.2776 11.25 15.7086V10.7595L6.48392 8.95131C6.09664 8.80438 5.9018 8.37132 6.04873 7.98404C6.19566 7.59676 6.62872 7.40192 7.016 7.54885L12 9.43974L16.9839 7.54885C17.3712 7.40192 17.8043 7.59676 17.9512 7.98404C18.0981 8.37132 17.9033 8.80438 17.516 8.95131L12.75 10.7595V13.0629C13.9363 11.7935 15.6255 11 17.5 11C19.2465 11 20.8321 11.6888 22 12.8096V7.1738C22 6.46118 21.5679 5.81973 20.9075 5.552L13.4089 2.51203ZM12 17.5C12 20.5376 14.4624 23 17.5 23C20.5376 23 23 20.5376 23 17.5C23 14.4624 20.5376 12 17.5 12C14.4624 12 12 14.4624 12 17.5ZM20.5 14C20.7761 14 21 14.2239 21 14.5V16.5C21 16.7761 20.7761 17 20.5 17H18.5C18.2239 17 18 16.7761 18 16.5C18 16.2239 18.2239 16 18.5 16H19.5003C19.0436 15.392 18.3174 15 17.5 15C16.6666 15 15.9283 15.4073 15.4733 16.036C15.3113 16.2597 14.9987 16.3098 14.775 16.1478C14.5514 15.9859 14.5013 15.6733 14.6632 15.4496C15.2982 14.5724 16.3323 14 17.5 14C18.4798 14 19.3651 14.4027 20 15.0506V14.5C20 14.2239 20.2239 14 20.5 14ZM15 19.9494V20.5C15 20.7761 14.7761 21 14.5 21C14.2239 21 14 20.7761 14 20.5V18.5C14 18.2239 14.2239 18 14.5 18H16.5C16.7761 18 17 18.2239 17 18.5C17 18.7761 16.7761 19 16.5 19H15.4998C15.9564 19.608 16.6827 20 17.5 20C18.2663 20 18.9518 19.6558 19.4112 19.1118C19.5893 18.9008 19.9048 18.8742 20.1158 19.0523C20.3268 19.2305 20.3534 19.546 20.1752 19.7569C19.534 20.5164 18.5732 21 17.5 21C16.5203 21 15.6349 20.5973 15 19.9494Z" fill="#212121"/>
</svg>
