<svg width="16" height="16" viewBox="0 0 16 16" fill="none" xmlns="http://www.w3.org/2000/svg">
<path d="M2.75 2C1.7835 2 1 2.7835 1 3.75V12.25C1 13.2165 1.7835 14 2.75 14H6C6.78802 14 7.49862 13.6686 8 13.1375C8.50139 13.6686 9.21198 14 10 14H13.25C14.2165 14 15 13.2165 15 12.25V3.75C15 2.7835 14.2165 2 13.25 2H10C9.21199 2 8.50138 2.33144 8 2.86253C7.49862 2.33144 6.78801 2 6 2H2.75ZM7.25 4.75V11.25C7.25 11.9404 6.69036 12.5 6 12.5H2.75C2.61193 12.5 2.5 12.3881 2.5 12.25V3.75C2.5 3.61193 2.61193 3.5 2.75 3.5H6C6.69036 3.5 7.25 4.05964 7.25 4.75ZM8.75 11.25V4.75C8.75 4.05964 9.30964 3.5 10 3.5H13.25C13.3881 3.5 13.5 3.61193 13.5 3.75V12.25C13.5 12.3881 13.3881 12.5 13.25 12.5H10C9.30964 12.5 8.75 11.9404 8.75 11.25Z" fill="#212121"/>
</svg>
