<svg width="48" height="48" viewBox="0 0 48 48" fill="none" xmlns="http://www.w3.org/2000/svg">
<path d="M13.5 4C8.25329 4 4 8.25329 4 13.5C4 18.7467 8.25329 23 13.5 23H21.75C22.4404 23 23 22.4404 23 21.75V13.5C23 8.25329 18.7467 4 13.5 4ZM13.4749 44C8.26078 44 4 39.774 4 34.55C4 29.3309 8.23091 25.1 13.45 25.1L21.75 25.1C22.4404 25.1 23 25.6596 23 26.35L23 34.5C23 39.7516 18.7167 44 13.4749 44ZM34.5 4C39.7467 4 44 8.25329 44 13.5C44 18.7467 39.7467 23 34.5 23H26.25C25.5596 23 25 22.4404 25 21.75V13.5C25 8.25329 29.2533 4 34.5 4ZM34.5 44C39.7467 44 44 39.7467 44 34.5C44 29.2533 39.7467 25 34.5 25L26.25 25C25.5596 25 25 25.5596 25 26.25L25 34.5C25 39.7467 29.2533 44 34.5 44Z" fill="#212121"/>
</svg>
