<svg width="20" height="20" viewBox="0 0 20 20" fill="none" xmlns="http://www.w3.org/2000/svg">
<path d="M8.99916 4V7.5C8.99916 7.77614 8.77531 8 8.49916 8H6.99916C6.44688 8 5.99916 8.44772 5.99916 9V10H13.9992V9C13.9992 8.44772 13.5514 8 12.9992 8H11.4992C11.223 8 10.9992 7.77614 10.9992 7.5V4C10.9992 3.44772 10.5515 3 9.99917 3C9.44688 3 8.99916 3.44772 8.99916 4ZM14.9992 9V10.4708C14.9997 10.4805 15 10.4902 15 10.5C15 10.5098 14.9997 10.5195 14.9992 10.5292V12.0851C14.843 12.03 14.675 12 14.5 12C14.3244 12 14.1558 12.0302 13.9992 12.0856V11H5.99916V11.5C5.99916 13.3184 5.60958 14.8756 5.22113 15.9773C5.07867 16.3813 4.93593 16.7254 4.81172 17H6.18483L6.20227 16.9623C6.29349 16.7647 6.41482 16.4917 6.53576 16.1893C6.65712 15.8859 6.77556 15.5593 6.86299 15.2533C6.95259 14.9396 7 14.6801 7 14.5C7 14.2239 7.22386 14 7.5 14C7.77614 14 8 14.2239 8 14.5C8 14.8199 7.92241 15.1854 7.82451 15.528C7.72444 15.8782 7.59288 16.2391 7.46424 16.5607C7.40184 16.7167 7.33954 16.8649 7.28094 17H8.51802C8.57184 16.8848 8.63621 16.7409 8.70033 16.5835C8.86788 16.1719 8.99674 15.7542 8.99674 15.5C8.99674 15.2239 9.2206 15 9.49674 15C9.77289 15 9.99675 15.2239 9.99675 15.5C9.99675 15.9712 9.79228 16.5534 9.6265 16.9606L9.61033 17H11.0854C11.1576 17.2047 11.2756 17.3969 11.4393 17.5607L11.8787 18H8.83974C8.83303 18.0001 8.82631 18.0001 8.81958 18H6.51009C6.50312 18.0001 6.49613 18.0001 6.48914 18H4C3.81995 18 3.6538 17.9032 3.56502 17.7466C3.47634 17.5901 3.47852 17.3981 3.57068 17.2437L3.57283 17.2401L3.58284 17.2227C3.59213 17.2065 3.60652 17.181 3.62528 17.1465C3.66281 17.0776 3.71781 16.973 3.78449 16.8357C3.91792 16.561 4.09772 16.1562 4.27803 15.6448C4.63917 14.6205 4.99916 13.1777 4.99916 11.5V9C4.99916 7.89543 5.89459 7 6.99916 7H7.99916V4C7.99916 2.89543 8.8946 2 9.99917 2C11.1037 2 11.9992 2.89543 11.9992 4V7H12.9992C14.1037 7 14.9992 7.89543 14.9992 9ZM15 13.5C15 13.2239 14.7761 13 14.5 13C14.2239 13 14 13.2239 14 13.5V17.2929L12.8536 16.1464C12.6583 15.9512 12.3417 15.9512 12.1464 16.1464C11.9512 16.3417 11.9512 16.6583 12.1464 16.8536L14.1464 18.8536C14.3417 19.0488 14.6583 19.0488 14.8536 18.8536L16.8536 16.8536C17.0488 16.6583 17.0488 16.3417 16.8536 16.1464C16.6583 15.9512 16.3417 15.9512 16.1464 16.1464L15 17.2929V13.5Z" fill="#212121"/>
</svg>
