<svg width="20" height="20" viewBox="0 0 20 20" fill="none" xmlns="http://www.w3.org/2000/svg">
<path d="M3.57266 17.2401L3.57085 17.2432C3.47869 17.3975 3.47618 17.5901 3.56485 17.7466C3.65364 17.9032 3.81978 18 3.99984 18H5.70695L5.72325 17.9663C5.98446 17.4257 6.27095 16.8329 6.51 16.2555C6.81156 15.5272 7 14.9081 7 14.5C7 14.2239 7.22386 14 7.5 14C7.77614 14 8 14.2239 8 14.5C8 15.1273 7.73478 15.9115 7.43393 16.6381C7.24428 17.0961 7.02549 17.5649 6.81707 18H8.00471C8.20914 17.6141 8.42794 17.1995 8.61222 16.7892C8.8549 16.249 8.99675 15.801 8.99675 15.5C8.99675 15.2239 9.2206 15 9.49675 15C9.77289 15 9.99675 15.2239 9.99675 15.5C9.99675 16.0329 9.77019 16.6518 9.52443 17.199C9.40353 17.4681 9.26808 17.7404 9.13409 18H11.8787L11.4393 17.5607C10.8536 16.9749 10.8536 16.0251 11.4393 15.4393C11.8614 15.0173 12.4723 14.8993 13 15.0854V13.5C13 12.6716 13.6716 12 14.5 12C14.6749 12 14.8429 12.0299 14.999 12.085V11H4.999V11.5C4.999 13.1777 4.63901 14.6205 4.27787 15.6448C4.09755 16.1562 3.91776 16.561 3.78433 16.8357C3.71764 16.973 3.66265 17.0776 3.62512 17.1465C3.60635 17.181 3.59197 17.2065 3.58268 17.2227L3.57266 17.2401ZM4.999 10H14.999V9C14.999 7.89543 14.1036 7 12.999 7H11.999V4C11.999 2.89543 11.1036 2 9.999 2C8.89443 2 7.999 2.89543 7.999 4V7H6.999C5.89443 7 4.999 7.89543 4.999 9V10ZM15 13.5C15 13.2239 14.7761 13 14.5 13C14.2239 13 14 13.2239 14 13.5V17.2929L12.8536 16.1464C12.6583 15.9512 12.3417 15.9512 12.1464 16.1464C11.9512 16.3417 11.9512 16.6583 12.1464 16.8536L14.1464 18.8536C14.3417 19.0488 14.6583 19.0488 14.8536 18.8536L16.8536 16.8536C17.0488 16.6583 17.0488 16.3417 16.8536 16.1464C16.6583 15.9512 16.3417 15.9512 16.1464 16.1464L15 17.2929V13.5Z" fill="#212121"/>
</svg>
