<svg width="20" height="20" viewBox="0 0 20 20" fill="none" xmlns="http://www.w3.org/2000/svg">
<path d="M4.5 5C3.67157 5 3 5.67157 3 6.5V12.5C3 13.3284 3.67157 14 4.5 14H9.02242C9.27504 11.1968 11.631 9 14.5 9C15.4002 9 16.2499 9.21628 17 9.59971V6.5C17 5.67157 16.3284 5 15.5 5H4.5ZM2.5 15H9.02242C9.05337 15.3434 9.11588 15.6777 9.20703 16H2.5C2.22386 16 2 15.7761 2 15.5C2 15.2239 2.22386 15 2.5 15ZM12.0647 11.4421C12.368 12.5232 11.722 13.6421 10.6341 13.9201L10.173 14.0378C10.1581 14.1898 10.1504 14.3439 10.1504 14.5C10.1504 14.6876 10.1615 14.8726 10.1831 15.0542L10.5326 15.1369C11.652 15.4016 12.318 16.5537 11.9887 17.6558L11.8623 18.0786C12.1195 18.2819 12.3993 18.4561 12.697 18.5965L13.022 18.2524C13.8118 17.4161 15.1426 17.4168 15.9315 18.2539L16.2689 18.6119C16.5613 18.477 16.8367 18.3096 17.0907 18.1143L16.9346 17.5576C16.6313 16.4765 17.2773 15.3576 18.3652 15.0797L18.8258 14.962C18.8408 14.8101 18.8484 14.656 18.8484 14.5C18.8484 14.3122 18.8373 14.1271 18.8157 13.9454L18.4667 13.8628C17.3473 13.5982 16.6813 12.446 17.0106 11.3439L17.1368 10.9216C16.8796 10.7183 16.5998 10.544 16.302 10.4035L15.9773 10.7473C15.1875 11.5836 13.8568 11.5829 13.0678 10.7458L12.7305 10.3878C12.438 10.5227 12.1626 10.69 11.9086 10.8853L12.0647 11.4421ZM14.4994 15.5C13.9471 15.5 13.4994 15.0523 13.4994 14.5C13.4994 13.9477 13.9471 13.5 14.4994 13.5C15.0517 13.5 15.4994 13.9477 15.4994 14.5C15.4994 15.0523 15.0517 15.5 14.4994 15.5Z" fill="#212121"/>
</svg>
