<?xml version="1.0" encoding="UTF-8"?>
<svg width="24px" height="24px" viewBox="0 0 24 24" version="1.1" xmlns="http://www.w3.org/2000/svg" xmlns:xlink="http://www.w3.org/1999/xlink">
    <!-- Generator: Sketch 59.1 (86144) - https://sketch.com -->
    <title>ic_access_time_24_filled</title>
    <desc>Created with Sketch.</desc>
    <g id="ðŸ”-Product-Icons" stroke="none" stroke-width="1" fill="none" fill-rule="evenodd">
        <g id="ic_access_time_24_filled" fill="#212121">
            <path d="M12,2 C17.5228475,2 22,6.4771525 22,12 C22,17.5228475 17.5228475,22 12,22 C6.4771525,22 2,17.5228475 2,12 C2,6.4771525 6.4771525,2 12,2 Z M16.2565763,8.00051796 C16.0839873,8.00051796 15.9250142,8.0626928 15.7982737,8.167187 L15.7982737,8.167187 L15.7064029,8.25261634 C15.5699703,8.39794958 15.485585,8.59872559 15.485585,8.82049665 L15.485585,8.82049665 L15.485585,11.2138215 L14.0012624,11.2138215 L14.0012624,8.82049665 L13.99438,8.71152019 C13.944458,8.31952451 13.629023,8.01739261 13.247343,8.01739261 C12.8309649,8.01739261 12.4934237,8.37695454 12.4934237,8.82049665 L12.4934237,8.82049665 L12.4934237,12.0169255 L12.5003061,12.125902 C12.550228,12.5178977 12.8656631,12.8200296 13.247343,12.8200296 L13.247343,12.8200296 L15.5064237,12.819518 L15.5065763,15.2050137 L15.5134229,15.3135553 C15.5630853,15.7039867 15.8768805,16.0049129 16.2565763,16.0049129 C16.6707899,16.0049129 17.0065763,15.6467858 17.0065763,15.2050137 L17.0065763,15.2050137 L17.0065763,8.80041713 L16.9997297,8.69187555 C16.9500673,8.30144417 16.6362721,8.00051796 16.2565763,8.00051796 Z M9.24342369,8.00051796 C8.000783,8.00051796 7.00747961,8.97410382 7.00747961,10.3003154 L7.00747961,10.3003154 L7.00747961,10.4565475 C7.00747961,10.870761 7.34326605,11.2065475 7.75747961,11.2065475 C8.17169317,11.2065475 8.50747961,10.870761 8.50747961,10.4565475 L8.50747961,10.4565475 L8.50747961,10.3003154 C8.50747961,9.90441256 8.82921013,9.60139694 9.24342369,9.60139694 C9.62311945,9.60139694 9.94609474,9.85542143 9.99728718,10.2032482 L9.99728718,10.2032482 L9.99942369,10.242518 L9.99627465,11.0254645 C9.99414417,11.4398312 9.65779574,11.7747027 9.24342369,11.7786366 L9.24342369,11.7786366 L9.10656181,11.7786366 C7.93950785,11.7786366 6.99342369,12.7247208 6.99342369,13.8917748 L6.99342369,13.8917748 L6.99342369,15.0049129 C6.99342369,15.5571976 7.44113894,16.0049129 7.99342369,16.0049129 L7.99342369,16.0049129 L10.6929842,16.0049129 C11.1350547,16.0049129 11.4934237,15.6465439 11.4934237,15.2044734 C11.4934237,14.7624029 11.1350547,14.4040339 10.6929842,14.4040339 L10.6929842,14.4040339 L8.49342369,14.4040339 L8.49342369,14.1295156 C8.49342369,13.7153021 8.82921013,13.3795156 9.24342369,13.3758887 L9.24342369,13.3758887 L9.39815219,13.3706494 C10.5685353,13.2911302 11.4930791,12.3163655 11.492692,11.1258888 L11.492692,11.1258888 L11.4924237,10.299518 C11.4960138,8.97410382 10.4860644,8.00051796 9.24342369,8.00051796 Z" id="ðŸŽ¨Color"></path>
        </g>
    </g>
</svg>