<svg width="20" height="20" viewBox="0 0 20 20" fill="none" xmlns="http://www.w3.org/2000/svg">
<path d="M13.5767 2.37867C12.8835 2.11206 12.116 2.11206 11.4228 2.37867L7.96153 3.70994C7.38224 3.93274 7 4.4893 7 5.10996V6.21004C7.64989 6.12822 8.31509 6.20665 8.93565 6.44533L12.3969 7.77659C13.3624 8.14793 13.9995 9.07553 13.9995 10.11V14.8899C13.9995 15.094 13.9747 15.2939 13.9275 15.4863L17.038 14.2899C17.6173 14.0671 17.9995 13.5106 17.9995 12.8899V5.10996C17.9995 4.4893 17.6173 3.93274 17.038 3.70994L13.5767 2.37867ZM15.445 4.53333C15.7028 4.4342 15.9921 4.56277 16.0912 4.82051C16.1903 5.07825 16.0617 5.36754 15.804 5.46667L13.0381 6.53047C12.6915 6.66378 12.3078 6.66378 11.9612 6.53047L9.19533 5.46667C8.9376 5.36754 8.80902 5.07825 8.90815 4.82051C9.00728 4.56277 9.29658 4.4342 9.55431 4.53333L12.3202 5.59712C12.4357 5.64156 12.5636 5.64156 12.6792 5.59712L15.445 4.53333ZM6.42281 7.37867C7.11602 7.11206 7.88348 7.11206 8.57669 7.37867L12.038 8.70994C12.6173 8.93274 12.9995 9.4893 12.9995 10.11V14.8899C12.9995 15.5106 12.6173 16.0671 12.038 16.2899L8.57669 17.6212C7.88348 17.8878 7.11602 17.8878 6.42281 17.6212L2.96153 16.2899C2.38224 16.0671 2 15.5106 2 14.8899V10.11C2 9.4893 2.38224 8.93274 2.96153 8.70994L6.42281 7.37867ZM11.0912 10.2941C10.9921 10.0364 10.7028 9.90783 10.445 10.007L7.49967 11.1398L4.55431 10.007C4.29658 9.90783 4.00728 10.0364 3.90815 10.2941C3.80902 10.5519 3.9376 10.8412 4.19533 10.9403L6.99967 12.0189V14.5087C6.99967 14.7848 7.22353 15.0087 7.49967 15.0087C7.77581 15.0087 7.99967 14.7848 7.99967 14.5087V12.0189L10.804 10.9403C11.0617 10.8412 11.1903 10.5519 11.0912 10.2941Z" fill="#212121"/>
</svg>
