<svg width="24" height="24" viewBox="0 0 24 24" fill="none" xmlns="http://www.w3.org/2000/svg">
<path d="M12 2C17.5228 2 22 6.47715 22 12C22 17.5228 17.5228 22 12 22C6.47715 22 2 17.5228 2 12C2 6.47715 6.47715 2 12 2ZM12 4C7.58172 4 4 7.58172 4 12C4 16.4183 7.58172 20 12 20C16.4183 20 20 16.4183 20 12C20 7.58172 16.4183 4 12 4ZM11.3105 5.45801C11.554 4.84863 12.446 4.84863 12.6895 5.45801L12.7314 5.59863C13.1233 7.52207 13.5315 9.44467 13.8564 11.3809C13.9386 11.8702 14 12.2913 14 12.4971C14 13.6016 13.1046 14.4971 12 14.4971C10.8954 14.4971 10 13.6016 10 12.4971C10 12.2913 10.0614 11.8702 10.1436 11.3809C10.4009 9.84701 10.9502 7.14198 11.2686 5.59863L11.3105 5.45801Z" fill="#212121"/>
</svg>
