<svg width="24" height="24" viewBox="0 0 24 24" fill="none" xmlns="http://www.w3.org/2000/svg">
<path d="M15 4.25C15 3.17138 13.7255 2.59915 12.9195 3.31583L8.42794 7.30909C8.29065 7.43116 8.11333 7.49859 7.92961 7.49859H4.25C3.00736 7.49859 2 8.50595 2 9.74859V14.2465C2 15.4891 3.00736 16.4965 4.25 16.4965H7.92956C8.11329 16.4965 8.29063 16.5639 8.42793 16.686L10.5257 18.5513C10.69 17.9133 11.0225 17.3309 11.4886 16.8648L15 13.3533V4.25Z" fill="#212121"/>
<path d="M20.0407 6.05362C21.0596 7.42925 21.7341 9.07623 21.9363 10.8652C21.4565 10.4241 20.8774 10.1517 20.275 10.0479C20.0073 8.90844 19.5103 7.85777 18.8353 6.94641C18.5888 6.61356 18.6587 6.14387 18.9916 5.89733C19.3244 5.65079 19.7941 5.72077 20.0407 6.05362Z" fill="#212121"/>
<path d="M18.1596 8.67184C18.4096 9.13374 18.6092 9.62689 18.751 10.1437C18.2574 10.2946 17.7922 10.5643 17.4006 10.9528C17.2933 10.3957 17.1019 9.86898 16.8404 9.38593C16.6432 9.02167 16.7787 8.56652 17.143 8.36933C17.5072 8.17214 17.9624 8.30757 18.1596 8.67184Z" fill="#212121"/>
<path d="M12.1957 17.5719L18.0981 11.6695C18.9907 10.7768 20.4379 10.7768 21.3305 11.6695C22.2231 12.5621 22.2231 14.0093 21.3305 14.9019L15.4281 20.8043C15.084 21.1485 14.6528 21.3926 14.1806 21.5106L12.3499 21.9683C11.5538 22.1674 10.8326 21.4462 11.0317 20.6501L11.4894 18.8194C11.6074 18.3472 11.8515 17.916 12.1957 17.5719ZM19.1587 12.7301L13.2563 18.6325C13.1044 18.7844 12.9967 18.9748 12.9446 19.1832L12.6538 20.3462L13.8168 20.0554C14.0252 20.0033 14.2155 19.8956 14.3674 19.7437L20.2699 13.8412C20.5767 13.5344 20.5767 13.0369 20.2699 12.7301C19.963 12.4233 19.4656 12.4233 19.1587 12.7301Z" fill="#212121"/>
</svg>
