<svg width="16" height="16" viewBox="0 0 16 16" fill="none" xmlns="http://www.w3.org/2000/svg">
<path d="M9.5 14C9.77614 14 10 14.2239 10 14.5C10 14.7761 9.77614 15 9.5 15H1.5C1.22386 15 1 14.7761 1 14.5C1 14.2239 1.22386 14 1.5 14H9.5ZM1.14648 1.14648C1.34175 0.951222 1.65825 0.951222 1.85352 1.14648L14.8535 14.1465L14.918 14.2246C15.0461 14.4187 15.0244 14.6827 14.8535 14.8535C14.6827 15.0244 14.4187 15.0461 14.2246 14.918L14.1465 14.8535L11.293 12H6.92773L7.42773 11H10.293L8.29102 8.99805C8.27737 8.99838 8.26373 9 8.25 9H7.30859L5.94727 11.7236C5.86257 11.893 5.68939 12 5.5 12C5.31061 12 5.13743 11.893 5.05273 11.7236L3.69141 9H2.75C1.7835 9 1 8.2165 1 7.25V2.75C1 2.44853 1.07569 2.16459 1.20996 1.91699L1.14648 1.85352C0.951222 1.65825 0.951222 1.34175 1.14648 1.14648ZM4.07227 12H1.5C1.22386 12 1 11.7761 1 11.5C1 11.2239 1.22386 11 1.5 11H3.57227L4.07227 12ZM14.5 11C14.7761 11 15 11.2239 15 11.5C15 11.7761 14.7761 12 14.5 12H14.1211L13.1211 11H14.5ZM2 2.75V7.25C2 7.66421 2.33579 8 2.75 8H4C4.18939 8 4.36257 8.10698 4.44727 8.27637L5.5 10.3818L6.55273 8.27637L6.58887 8.21582C6.68135 8.08197 6.83437 8 7 8H7.29297L4.71289 5.41992C4.65284 5.55311 4.5894 5.67649 4.52246 5.78809C4.36031 6.05834 4.18913 6.26658 4.05664 6.4082C3.99022 6.4792 3.93305 6.53451 3.89062 6.57324C3.85401 6.60668 3.82749 6.62869 3.81641 6.6377L3.81445 6.63867L3.8125 6.64062C3.59687 6.81313 3.28188 6.77813 3.10938 6.5625C2.93687 6.34687 2.97187 6.03188 3.1875 5.85938L3.18945 5.85742C3.19444 5.85317 3.20344 5.84529 3.21582 5.83398C3.24077 5.8112 3.27937 5.77464 3.32617 5.72461C3.42019 5.62409 3.54602 5.47272 3.66504 5.27441C3.74235 5.14556 3.81461 4.99651 3.87598 4.83008L3.85352 4.85352C3.71052 4.99651 3.49543 5.0393 3.30859 4.96191C3.12179 4.88451 3 4.70221 3 4.5V3.70703L2.00195 2.70898C2.00122 2.72258 2 2.73622 2 2.75ZM8.25 1C9.2165 1 10 1.7835 10 2.75V7.25C10 7.43932 9.9687 7.62123 9.91309 7.79199L9 6.87891V2.75C9 2.33579 8.66421 2 8.25 2H4.12109L3.12109 1H8.25ZM7.59082 3.00879C7.79854 3.04705 7.96431 3.21403 7.99512 3.42969L8.01758 3.61719C8.09037 4.40029 7.90245 5.04771 7.6582 5.53711L6 3.87891V3.5L6.00977 3.39941C6.05629 3.17145 6.25829 3 6.5 3H7.5L7.59082 3.00879Z" fill="#212121"/>
</svg>
