<svg width="28" height="28" viewBox="0 0 28 28" fill="none" xmlns="http://www.w3.org/2000/svg">
<path fill-rule="evenodd" clip-rule="evenodd" d="M7.01968 4.58166C7.73485 2.39771 10.2283 1.36491 12.2782 2.40349L12.9833 2.76067C13.6225 3.08453 14.3778 3.08453 15.017 2.76067L15.722 2.40349C17.772 1.36491 20.2654 2.39771 20.9805 4.58166L21.2265 5.33274C21.4495 6.01375 21.9836 6.5478 22.6646 6.7708L23.4156 7.01676C25.5996 7.73192 26.6324 10.2253 25.5938 12.2753L25.2366 12.9803C24.9128 13.6196 24.9128 14.3748 25.2366 15.0141L25.5938 15.7191C26.6324 17.769 25.5996 20.2625 23.4156 20.9776L22.6646 21.2236C21.9836 21.4466 21.4495 21.9806 21.2265 22.6616L20.9805 23.4127C20.2654 25.5967 17.772 26.6295 15.722 25.5909L15.017 25.2337C14.3777 24.9098 13.6225 24.9098 12.9833 25.2337L12.2782 25.5909C10.2283 26.6295 7.73485 25.5967 7.01968 23.4127L6.77373 22.6616C6.55073 21.9806 6.01667 21.4466 5.33567 21.2236L4.58459 20.9776C2.40064 20.2625 1.36784 17.769 2.40642 15.7191L2.7636 15.0141C3.08746 14.3748 3.08746 13.6196 2.7636 12.9803L2.40642 12.2753C1.36784 10.2253 2.40064 7.73192 4.58459 7.01675L5.33567 6.7708C6.01667 6.5478 6.55073 6.01374 6.77373 5.33274L7.01968 4.58166Z" fill="url(#paint0_linear_73183_13043)"/>
<path fill-rule="evenodd" clip-rule="evenodd" d="M7.01968 4.58166C7.73485 2.39771 10.2283 1.36491 12.2782 2.40349L12.9833 2.76067C13.6225 3.08453 14.3778 3.08453 15.017 2.76067L15.722 2.40349C17.772 1.36491 20.2654 2.39771 20.9805 4.58166L21.2265 5.33274C21.4495 6.01375 21.9836 6.5478 22.6646 6.7708L23.4156 7.01676C25.5996 7.73192 26.6324 10.2253 25.5938 12.2753L25.2366 12.9803C24.9128 13.6196 24.9128 14.3748 25.2366 15.0141L25.5938 15.7191C26.6324 17.769 25.5996 20.2625 23.4156 20.9776L22.6646 21.2236C21.9836 21.4466 21.4495 21.9806 21.2265 22.6616L20.9805 23.4127C20.2654 25.5967 17.772 26.6295 15.722 25.5909L15.017 25.2337C14.3777 24.9098 13.6225 24.9098 12.9833 25.2337L12.2782 25.5909C10.2283 26.6295 7.73485 25.5967 7.01968 23.4127L6.77373 22.6616C6.55073 21.9806 6.01667 21.4466 5.33567 21.2236L4.58459 20.9776C2.40064 20.2625 1.36784 17.769 2.40642 15.7191L2.7636 15.0141C3.08746 14.3748 3.08746 13.6196 2.7636 12.9803L2.40642 12.2753C1.36784 10.2253 2.40064 7.73192 4.58459 7.01675L5.33567 6.7708C6.01667 6.5478 6.55073 6.01374 6.77373 5.33274L7.01968 4.58166Z" fill="url(#paint1_linear_73183_13043)" fill-opacity="0.7"/>
<path d="M17.25 9.25C17.25 11.0449 15.7949 12.5 14 12.5C12.2051 12.5 10.75 11.0449 10.75 9.25C10.75 7.45507 12.2051 6 14 6C15.7949 6 17.25 7.45507 17.25 9.25ZM14 21.5C17.3137 21.5 20 19.3571 20 16.1429C20 14.9594 19.0406 14 17.8571 14H10.1429C8.95939 14 8 14.9594 8 16.1429C8 19.3571 10.6863 21.5 14 21.5Z" fill="url(#paint2_linear_73183_13043)" fill-opacity="0.9"/>
<defs>
<linearGradient id="paint0_linear_73183_13043" x1="6.00004" y1="0.663724" x2="18.0002" y2="27.3307" gradientUnits="userSpaceOnUse">
<stop stop-color="#1EC8B0"/>
<stop offset="1" stop-color="#2764E7"/>
</linearGradient>
<linearGradient id="paint1_linear_73183_13043" x1="17.7144" y1="4.94447" x2="22.4709" y2="28.5786" gradientUnits="userSpaceOnUse">
<stop offset="0.53288" stop-color="#FF6CE8" stop-opacity="0"/>
<stop offset="1" stop-color="#FF6CE8"/>
</linearGradient>
<linearGradient id="paint2_linear_73183_13043" x1="23.0053" y1="34.7857" x2="-4.52487" y2="-4.30191" gradientUnits="userSpaceOnUse">
<stop stop-color="#9DEAFF"/>
<stop offset="1" stop-color="white"/>
</linearGradient>
</defs>
</svg>
