<svg width="48" height="48" viewBox="0 0 48 48" fill="none" xmlns="http://www.w3.org/2000/svg">
<path d="M7.25 35.5C6.55964 35.5 6 36.0596 6 36.75C6 37.4404 6.55964 38 7.25 38H25.75C29.7541 38 33 34.7541 33 30.75V12.5824L39.8544 19.622C40.336 20.1166 41.1274 20.1272 41.622 19.6456C42.1166 19.164 42.1272 18.3726 41.6456 17.878L32.3956 8.37798C32.1603 8.13631 31.8373 8 31.5 8C31.1627 8 30.8397 8.13631 30.6044 8.37798L21.3544 17.878C20.8728 18.3726 20.8834 19.164 21.378 19.6456C21.8726 20.1272 22.664 20.1166 23.1456 19.622L30.5 12.0688V30.75C30.5 33.3734 28.3734 35.5 25.75 35.5H7.25Z" fill="#212121"/>
</svg>
