<svg width="24" height="24" viewBox="0 0 24 24" fill="none" xmlns="http://www.w3.org/2000/svg">
<path d="M21.0303 2.96967C19.6329 1.5722 17.3671 1.5722 15.9697 2.96967L14 4.93935L13.9874 4.92679C13.304 4.24337 12.196 4.24337 11.5125 4.92679L10.9268 5.51258C10.2433 6.19599 10.2433 7.30403 10.9268 7.98745L10.9394 8.00009L4.15914 14.7803C3.73719 15.2023 3.50013 15.7746 3.50013 16.3713V17.0588L2.21981 19.406C1.38379 20.9387 3.06141 22.6164 4.59412 21.7803L6.94138 20.5H7.62881C8.22555 20.5 8.79785 20.263 9.2198 19.841L16.0001 13.0607L16.0125 13.0732C16.696 13.7567 17.804 13.7567 18.4874 13.0732L19.0732 12.4875C19.7566 11.804 19.7566 10.696 19.0732 10.0126L19.0606 10L21.0303 8.03033C22.4278 6.63286 22.4278 4.36713 21.0303 2.96967ZM12.0001 9.06075L14.9394 12.0001L8.15914 18.7803C8.01849 18.921 7.82773 19 7.62881 19H6.75013C6.62465 19 6.50116 19.0315 6.391 19.0916L3.87584 20.4635C3.80671 20.5012 3.75536 20.5029 3.717 20.4961C3.67227 20.4882 3.62232 20.4638 3.57935 20.4208C3.53638 20.3778 3.51196 20.3279 3.50405 20.2831C3.49726 20.2448 3.49895 20.1934 3.53665 20.1243L4.90856 17.6091C4.96865 17.499 5.00014 17.3755 5.00014 17.25V16.3713C5.00014 16.1724 5.07915 15.9816 5.21981 15.841L12.0001 9.06075Z" fill="#212121"/>
</svg>
