<svg width="16" height="16" viewBox="0 0 16 16" fill="none" xmlns="http://www.w3.org/2000/svg">
<path d="M8 5.5C8 6.88071 6.88071 8 5.5 8C4.11929 8 3 6.88071 3 5.5C3 4.11929 4.11929 3 5.5 3C6.88071 3 8 4.11929 8 5.5ZM11.5 8C12.6046 8 13.5 7.10457 13.5 6C13.5 4.89543 12.6046 4 11.5 4C10.3954 4 9.5 4.89543 9.5 6C9.5 7.10457 10.3954 8 11.5 8ZM8 9.5C8 9.32556 8.02978 9.15807 8.08453 9.00234C8.05655 9.00079 8.02837 9 8 9H3C2.17157 9 1.5 9.67157 1.5 10.5V10.575C1.5 10.575 1.5 13.5 5.5 13.5C6.71083 13.5 7.55514 13.232 8.14386 12.8582C8.20594 12.7273 8.28641 12.6067 8.38195 12.5C8.14443 12.2346 8 11.8842 8 11.5C8 11.1158 8.14443 10.7654 8.38195 10.5C8.14443 10.2346 8 9.88418 8 9.5ZM9.5 9C9.22386 9 9 9.22386 9 9.5C9 9.77614 9.22386 10 9.5 10H14.5C14.7761 10 15 9.77614 15 9.5C15 9.22386 14.7761 9 14.5 9H9.5ZM9.5 11C9.22386 11 9 11.2239 9 11.5C9 11.7761 9.22386 12 9.5 12H14.5C14.7761 12 15 11.7761 15 11.5C15 11.2239 14.7761 11 14.5 11H9.5ZM9.5 13C9.22386 13 9 13.2239 9 13.5C9 13.7761 9.22386 14 9.5 14H14.5C14.7761 14 15 13.7761 15 13.5C15 13.2239 14.7761 13 14.5 13H9.5Z" fill="#212121"/>
</svg>
