<svg width="24" height="24" viewBox="0 0 24 24" fill="none" xmlns="http://www.w3.org/2000/svg">
<path d="M13 13C13.9315 13 14.7149 13.6372 14.937 14.5H13.75C13.5784 14.5 13.4126 14.5247 13.2559 14.5707C13.2055 14.5405 13.1493 14.5189 13.0896 14.5081L13 14.5L4 14.499L3.89934 14.509C3.77496 14.5343 3.69 14.6018 3.646 14.645C3.6028 14.689 3.53528 14.7733 3.51 14.898L3.5 14.999V16.5C3.5 17.509 3.95 18.222 4.917 18.742C5.74315 19.1869 6.91951 19.4563 8.18258 19.4951L8.5 19.5L8.8174 19.4951C10.0388 19.4576 11.1786 19.2044 12.0003 18.7853C12.0098 19.2609 12.2089 19.69 12.5253 20C12.4296 20.0937 12.3447 20.1983 12.2725 20.3117C11.093 20.8115 9.70874 21 8.5 21C5.77787 21 2.1647 20.044 2.00545 16.7296L2 16.5V14.999C2 13.9452 2.8164 13.0809 3.85081 13.0045L4 12.999L13 13ZM15.949 14.5C15.865 13.9986 15.6554 13.5432 15.3545 13.1598L15.22 13H20C20.9862 13 21.8065 13.715 21.9702 14.6546C21.7506 14.5553 21.5067 14.5 21.25 14.5H15.949ZM21.25 15.5C21.6401 15.5 21.9607 15.7979 21.9966 16.1786C21.9989 16.2021 22 16.2259 22 16.25C22 16.3073 21.9936 16.3631 21.9814 16.4167C21.9056 16.7507 21.6069 17 21.25 17H13.75C13.6501 17 13.5548 16.9805 13.4677 16.945C13.1934 16.8335 13 16.5643 13 16.25C13 15.9234 13.2087 15.6456 13.5 15.5427C13.5782 15.515 13.6623 15.5 13.75 15.5H21.25ZM21.25 18C21.3201 18 21.3879 18.0096 21.4522 18.0276C21.7682 18.1158 22 18.4058 22 18.75C22 19.1642 21.6642 19.5 21.25 19.5H13.75C13.7131 19.5 13.6769 19.4973 13.6414 19.4922C13.2787 19.4396 13 19.1273 13 18.75C13 18.3358 13.3358 18 13.75 18H21.25ZM8.5 2C10.985 2 13 4.015 13 6.5C13 8.985 10.985 11 8.5 11C6.015 11 4 8.985 4 6.5C4 4.015 6.015 2 8.5 2ZM8.5 3.5C6.846 3.5 5.5 4.846 5.5 6.5C5.5 8.154 6.846 9.5 8.5 9.5C10.154 9.5 11.5 8.154 11.5 6.5C11.5 4.846 10.154 3.5 8.5 3.5ZM17.5 4C19.433 4 21 5.567 21 7.5C21 9.433 19.433 11 17.5 11C15.567 11 14 9.433 14 7.5C14 5.567 15.567 4 17.5 4ZM17.5 5.5C16.397 5.5 15.5 6.397 15.5 7.5C15.5 8.603 16.397 9.5 17.5 9.5C18.603 9.5 19.5 8.603 19.5 7.5C19.5 6.397 18.603 5.5 17.5 5.5ZM13 21.25C13 20.8358 13.3358 20.5 13.75 20.5H21.25C21.6642 20.5 22 20.8358 22 21.25C22 21.6642 21.6642 22 21.25 22H13.75C13.3358 22 13 21.6642 13 21.25Z" fill="#212121"/>
</svg>
