<svg width="16" height="16" viewBox="0 0 16 16" fill="none" xmlns="http://www.w3.org/2000/svg">
<path d="M7.5 9C7.6944 9 7.88187 9.02932 8.05957 9.08105C8.02096 9.21404 8 9.35456 8 9.5C8 9.88415 8.14435 10.2346 8.38184 10.5C8.14435 10.7654 8 11.1158 8 11.5C8 11.8842 8.14435 12.2346 8.38184 12.5C8.19283 12.7112 8.06378 12.9765 8.01855 13.2695C7.20799 13.7418 6.1421 14 5 14C3.82495 14 2.72972 13.7281 1.91113 13.2295C1.09166 12.7303 0.5 11.9652 0.5 11C0.5 9.89543 1.39543 9 2.5 9H7.5ZM14.5 13C14.7761 13 15 13.2239 15 13.5C15 13.7761 14.7761 14 14.5 14H9.5C9.22386 14 9 13.7761 9 13.5C9 13.2239 9.22386 13 9.5 13H14.5ZM14.5 11C14.7761 11 15 11.2239 15 11.5C15 11.7761 14.7761 12 14.5 12H9.5C9.22386 12 9 11.7761 9 11.5C9 11.2239 9.22386 11 9.5 11H14.5ZM14.5 9C14.7761 9 15 9.22386 15 9.5C15 9.77614 14.7761 10 14.5 10H9.5C9.22386 10 9 9.77614 9 9.5C9 9.22386 9.22386 9 9.5 9H14.5ZM5 2.5C6.51878 2.5 7.75 3.73122 7.75 5.25C7.75 6.76878 6.51878 8 5 8C3.48122 8 2.25 6.76878 2.25 5.25C2.25 3.73122 3.48122 2.5 5 2.5ZM12.002 3.49707C13.2453 3.4972 14.2538 4.50466 14.2539 5.74805C14.2539 6.99155 13.2454 7.99987 12.002 8C10.7584 8 9.75 6.99163 9.75 5.74805C9.75013 4.50457 10.7585 3.49707 12.002 3.49707Z" fill="#212121"/>
</svg>
