<svg width="20" height="20" viewBox="0 0 20 20" fill="none" xmlns="http://www.w3.org/2000/svg">
<path d="M2.75 5C2.33579 5 2 5.33579 2 5.75C2 6.16421 2.33579 6.5 2.75 6.5H17.25C17.6642 6.5 18 6.16421 18 5.75C18 5.33579 17.6642 5 17.25 5H2.75ZM2 10.75C2 10.3358 2.33579 10 2.75 10H14.0859C14.0554 10.0865 14.0327 10.1761 14.0183 10.2678C13.3825 10.4896 12.805 10.8522 12.3288 11.3283C12.273 11.3842 12.2187 11.4414 12.166 11.5H2.75C2.33579 11.5 2 11.1642 2 10.75ZM2.75 15H10.0858C10.1469 15.1726 10.2395 15.3339 10.3604 15.4751C10.5929 15.7469 10.9149 15.9266 11.2683 15.9818C11.3303 16.1594 11.4032 16.3324 11.4865 16.5H2.75C2.33579 16.5 2 16.1642 2 15.75C2 15.3358 2.33579 15 2.75 15ZM16.0556 15.3315C15.8911 15.4414 15.6978 15.5 15.5 15.5C15.2348 15.5 14.9804 15.3946 14.7929 15.2071C14.6054 15.0196 14.5 14.7652 14.5 14.5C14.5 14.3022 14.5586 14.1089 14.6685 13.9444C14.7784 13.78 14.9346 13.6518 15.1173 13.5761C15.3 13.5004 15.5011 13.4806 15.6951 13.5192C15.8891 13.5578 16.0673 13.653 16.2071 13.7929C16.347 13.9327 16.4422 14.1109 16.4808 14.3049C16.5194 14.4989 16.4996 14.7 16.4239 14.8827C16.3482 15.0654 16.22 15.2216 16.0556 15.3315ZM18.949 14H19.5C19.6326 14 19.7598 14.0527 19.8536 14.1464C19.9473 14.2402 20 14.3674 20 14.5C20 14.6326 19.9473 14.7598 19.8536 14.8536C19.7598 14.9473 19.6326 15 19.5 15H18.949C18.8409 15.7437 18.4954 16.4326 17.964 16.964C17.4326 17.4954 16.7437 17.8409 16 17.949V18.5C16 18.6326 15.9473 18.7598 15.8536 18.8536C15.7598 18.9473 15.6326 19 15.5 19C15.3674 19 15.2402 18.9473 15.1464 18.8536C15.0527 18.7598 15 18.6326 15 18.5V17.949C14.2563 17.8409 13.5674 17.4954 13.036 16.964C12.5046 16.4326 12.1591 15.7437 12.051 15H11.5C11.3674 15 11.2402 14.9473 11.1464 14.8536C11.0527 14.7598 11 14.6326 11 14.5C11 14.3674 11.0527 14.2402 11.1464 14.1464C11.2402 14.0527 11.3674 14 11.5 14H12.051C12.1591 13.2563 12.5046 12.5674 13.036 12.036C13.5674 11.5046 14.2563 11.1591 15 11.051V10.5C15 10.3674 15.0527 10.2402 15.1464 10.1464C15.2402 10.0527 15.3674 10 15.5 10C15.6326 10 15.7598 10.0527 15.8536 10.1464C15.9473 10.2402 16 10.3674 16 10.5V11.051C16.7437 11.1591 17.4326 11.5046 17.964 12.036C18.4954 12.5674 18.8409 13.2563 18.949 14ZM15.7454 16.9884C16.321 16.9316 16.8591 16.677 17.268 16.268C17.5001 16.0358 17.6843 15.7602 17.8099 15.4568C17.9354 15.1535 18.0001 14.8283 18 14.5C17.9999 13.9216 17.7992 13.3612 17.4322 12.9141C17.0652 12.4671 16.5546 12.1612 15.9873 12.0484C15.42 11.9357 14.8312 12.0231 14.3211 12.2959C13.8111 12.5686 13.4114 13.0097 13.1901 13.5441C12.9689 14.0785 12.9398 14.6731 13.1078 15.2265C13.2757 15.78 13.6304 16.2581 14.1114 16.5793C14.5923 16.9006 15.1698 17.0452 15.7454 16.9884Z" fill="#212121"/>
</svg>
