<svg width="32" height="32" viewBox="0 0 32 32" fill="none" xmlns="http://www.w3.org/2000/svg">
<path d="M27.4302 2.20122C27.7856 2.43168 28.0001 2.82643 28.0001 3.25V13.75C28.0001 14.4404 27.4405 15 26.7501 15H3.25012C2.66024 15 2.15064 14.5876 2.02761 14.0107C1.90459 13.4338 2.20163 12.8494 2.7402 12.6087L26.2402 2.10874C26.6269 1.93595 27.0748 1.97076 27.4302 2.20122ZM9.11192 12.5H25.5001V5.17761L9.11192 12.5ZM28.0003 29C28.0003 29.3406 27.827 29.6577 27.5404 29.8416C27.2538 30.0255 26.8933 30.051 26.5837 29.9091L2.58369 18.9091C2.15632 18.7132 1.9231 18.2461 2.02334 17.7868C2.12359 17.3275 2.53023 17 3.00034 17H27.0003C27.5526 17 28.0003 17.4477 28.0003 18V29Z" fill="#212121"/>
</svg>
