<svg width="16" height="16" viewBox="0 0 16 16" fill="none" xmlns="http://www.w3.org/2000/svg">
<path d="M3 1C1.89543 1 1 1.89543 1 3V3.2013L6.87415 6.3643C7.60096 5.72658 8.49731 5.27739 9.4868 5.09313L13 3.20141V3C13 1.89543 12.1046 1 11 1H3ZM1 4.33706L6.16305 7.11716C5.43428 8.05016 5 9.22436 5 10.5C5 10.6685 5.00758 10.8353 5.02242 11H3C1.89543 11 1 10.1046 1 9V4.33706ZM13 4.33716V5.59971C12.5562 5.37286 12.0776 5.20452 11.5743 5.10486L13 4.33716ZM6 10.5C6 12.9853 8.01472 15 10.5 15C12.9853 15 15 12.9853 15 10.5C15 8.01472 12.9853 6 10.5 6C8.01472 6 6 8.01472 6 10.5ZM7 10.5C7 8.567 8.567 7 10.5 7C11.2862 7 12.0118 7.2592 12.5961 7.69681L7.69681 12.5961C7.2592 12.0118 7 11.2862 7 10.5ZM10.5 14C9.71383 14 8.9882 13.7408 8.40391 13.3032L13.3032 8.40391C13.7408 8.9882 14 9.71383 14 10.5C14 12.433 12.433 14 10.5 14Z" fill="#212121"/>
</svg>
