<?xml version="1.0" encoding="UTF-8"?>
<svg width="24px" height="24px" viewBox="0 0 24 24" version="1.1" xmlns="http://www.w3.org/2000/svg" xmlns:xlink="http://www.w3.org/1999/xlink">
    <!-- Generator: Sketch 58 (84663) - https://sketch.com -->
    <title>ic_share_ios_24_filled</title>
    <desc>Created with Sketch.</desc>
    <g id="ðŸ”-Product-Icons" stroke="none" stroke-width="1" fill="none" fill-rule="evenodd">
        <g id="ic_share_ios_24_filled" fill="#212121">
            <path d="M18.995828,11 C19.5086638,11 19.9313352,11.3860402 19.9891003,11.8833789 L19.995828,12 L19.995828,18 C19.995828,20.1421954 18.3118595,21.8910789 16.1954683,21.9951047 L15.995828,22 L8,22 C5.85780461,22 4.10892112,20.3160315 4.00489531,18.1996403 L4,18 L4,12 C4,11.4477153 4.44771525,11 5,11 C5.51283584,11 5.93550716,11.3860402 5.99327227,11.8833789 L6,12 L6,18 C6,19.0543618 6.81587779,19.9181651 7.85073766,19.9945143 L8,20 L15.995828,20 C17.0501898,20 17.9139931,19.1841222 17.9903423,18.1492623 L17.995828,18 L17.995828,12 C17.995828,11.4477153 18.4435433,11 18.995828,11 Z M11.2863585,2.29282017 C11.676706,1.9025534 12.309442,1.90236991 12.7000157,2.29241022 L12.7000157,2.29241022 L17.7034614,7.2890229 C18.0942524,7.67928026 18.0946851,8.31244509 17.7044277,8.70323613 C17.3141704,9.09402718 16.6810055,9.09445982 16.2902145,8.70420246 L16.2902145,8.70420246 L12.996,5.415 L12.9962925,15.254946 C12.9962925,15.8072308 12.5485772,16.254946 11.9962925,16.254946 C11.4834566,16.254946 11.0607853,15.8689058 11.0030202,15.3715672 L10.9962925,15.254946 L10.996,5.41 L7.70278072,8.70379252 C7.34225952,9.06423923 6.7750256,9.09191016 6.38276591,8.78684474 L6.28856717,8.7036464 C5.89808322,8.31308176 5.89814864,7.67991679 6.28871328,7.28943285 L6.28871328,7.28943285 Z" id="ðŸŽ¨-Color"></path>
        </g>
    </g>
</svg>