<svg width="16" height="16" viewBox="0 0 16 16" fill="none" xmlns="http://www.w3.org/2000/svg">
<path d="M14 1.5C14 1.22386 13.7761 1 13.5 1C13.2239 1 13 1.22386 13 1.5V2H12.5C12.2239 2 12 2.22386 12 2.5C12 2.77614 12.2239 3 12.5 3H13V3.5C13 3.77614 13.2239 4 13.5 4C13.7761 4 14 3.77614 14 3.5V3H14.5C14.7761 3 15 2.77614 15 2.5C15 2.22386 14.7761 2 14.5 2H14V1.5ZM5.39078 2.12972C5.39924 2.08899 5.4218 2.0509 5.44929 2.02592C5.47519 2.0024 5.49359 2.00005 5.50078 2.00005C5.50798 2.00005 5.52635 2.0024 5.55219 2.02588C5.57963 2.05082 5.60215 2.08883 5.6106 2.1295C5.72418 2.6764 6.01221 3.5191 6.74631 4.2537C7.48046 4.98836 8.32325 5.27647 8.87031 5.39004C8.91105 5.39849 8.94913 5.42105 8.97411 5.44853C8.99764 5.47442 9 5.49283 9 5.50005C9 5.50728 8.99764 5.52569 8.97411 5.55158C8.94914 5.57907 8.91106 5.60163 8.87031 5.6101C8.32332 5.72379 7.48067 6.01208 6.74633 6.74681C6.01237 7.48118 5.7244 8.32319 5.61086 8.87004C5.60239 8.91085 5.5798 8.94901 5.55225 8.97405C5.52631 8.99763 5.50785 9 5.50061 9C5.49335 9 5.47494 8.99762 5.44908 8.97413C5.42162 8.94919 5.39908 8.91117 5.39062 8.87047C5.2769 8.32348 4.98869 7.48049 4.25442 6.74596C3.51993 6.01121 2.67719 5.72323 2.13043 5.60979C2.08976 5.60135 2.05175 5.57887 2.02682 5.55148C2.00334 5.5257 2.00097 5.50735 2.00095 5.50017C2.00094 5.493 2.00325 5.47458 2.02681 5.44862C2.05182 5.42105 2.08997 5.39844 2.13074 5.38998C2.67794 5.27635 3.52018 4.9882 4.25441 4.25378C4.98892 3.51907 5.27713 2.67667 5.39078 2.12972ZM5.50087 1.00005C4.924 0.999996 4.50995 1.45341 4.41169 1.92628C4.32325 2.35193 4.10117 2.99266 3.54721 3.54677C2.99368 4.10044 2.35328 4.32244 1.92743 4.41086C1.45393 4.50918 0.999923 4.92423 1.00096 5.50196C1.00198 6.07801 1.45499 6.49095 1.92728 6.58894C2.35278 6.67722 2.99353 6.89908 3.54719 7.45294C4.10078 8.00672 4.32298 8.64794 4.41155 9.07401C4.50987 9.54693 4.92396 10 5.50061 10C6.07767 10 6.49178 9.54634 6.58998 9.07333C6.67834 8.64777 6.9002 8.00746 7.45363 7.45373C8.00725 6.89982 8.64802 6.67767 9.0738 6.58918C9.54667 6.4909 10 6.07686 10 5.50005C10 4.92316 9.54654 4.50909 9.07356 4.41091C8.64768 4.3225 8.00694 4.10051 7.45366 3.54684C6.90016 2.99296 6.67815 2.352 6.5897 1.92615C6.49149 1.45329 6.07753 1.0001 5.50087 1.00005ZM10.9404 5C10.979 5.15694 11 5.32386 11 5.50005C11 5.67621 10.979 5.84309 10.9404 6H11.5C12.3284 6 13 6.67157 13 7.5V11.5C13 12.3284 12.3284 13 11.5 13H7.5C6.67157 13 6 12.3284 6 11.5V10.9406C5.84325 10.9791 5.67656 11 5.50061 11C5.32421 11 5.15711 10.979 5 10.9403V11.5C5 12.8807 6.11929 14 7.5 14H11.5C12.8807 14 14 12.8807 14 11.5V7.5C14 6.11929 12.8807 5 11.5 5H10.9404ZM8 8.5C8 8.22386 8.22386 8 8.5 8H11C11.2761 8 11.5 8.22386 11.5 8.5C11.5 8.77614 11.2761 9 11 9H8.5C8.22386 9 8 8.77614 8 8.5ZM8.5 10C8.22386 10 8 10.2239 8 10.5C8 10.7761 8.22386 11 8.5 11H10C10.2761 11 10.5 10.7761 10.5 10.5C10.5 10.2239 10.2761 10 10 10H8.5ZM2.5 12C2.77614 12 3 12.2239 3 12.5V13H3.5C3.77614 13 4 13.2239 4 13.5C4 13.7761 3.77614 14 3.5 14H3V14.5C3 14.7761 2.77614 15 2.5 15C2.22386 15 2 14.7761 2 14.5V14H1.5C1.22386 14 1 13.7761 1 13.5C1 13.2239 1.22386 13 1.5 13H2V12.5C2 12.2239 2.22386 12 2.5 12Z" fill="#212121"/>
</svg>
