<svg width="24" height="24" viewBox="0 0 24 24" fill="none" xmlns="http://www.w3.org/2000/svg">
<path d="M9.96951 16.1675L14.5596 3.65608C14.8657 2.82169 16.006 2.78376 16.388 3.5423L16.4372 3.65608L21.9388 18.6528C22.129 19.1713 21.8628 19.7458 21.3443 19.936C20.8629 20.1126 20.3331 19.8958 20.1076 19.4488L20.0611 19.3416L18.6505 15.4985H12.3455L10.9039 19.4183L10.8629 19.4972L10.7908 19.6054L10.7133 19.6952L10.6284 19.7729L10.5459 19.8332L10.4955 19.864L10.4114 19.9072L10.3074 19.9478L10.2027 19.9759L10.0695 19.9948L9.96214 19.9969L9.89154 19.9919L9.78899 19.9755L9.63901 19.931L9.56968 19.9014L9.46966 19.847L9.35809 19.7669L9.26643 19.6805L9.20247 19.6048L9.14122 19.5149L9.08713 19.4124L8.34151 17.4995H4.65451L3.93178 19.3597C3.74591 19.8376 3.23292 20.0916 2.74846 19.9652L2.63733 19.9292C2.15937 19.7433 1.90536 19.2303 2.03178 18.7459L2.06778 18.6348L5.56631 9.63856C5.88116 8.82897 6.98716 8.79042 7.37735 9.52291L7.43032 9.63856L9.96951 16.1675L14.5596 3.65608L9.96951 16.1675ZM6.49832 12.76L5.43251 15.4995H7.56351L6.49832 12.76ZM15.4984 6.90404L13.0785 13.4985H17.9165L15.4984 6.90404Z" fill="#212121"/>
</svg>
