<svg width="28" height="28" viewBox="0 0 28 28" fill="none" xmlns="http://www.w3.org/2000/svg">
<path d="M17.125 2C19.1476 2 20.8071 3.54966 20.9834 5.52637C23.2413 5.76755 25 7.67805 25 10C25 11.4063 24.3542 12.6611 23.3438 13.4863C24.9169 14.2603 26 15.8783 26 17.75C26 20.2527 24.0643 22.3011 21.6084 22.4844L21.5684 22.6748C21.1528 24.6141 19.4394 26 17.4561 26C16.0236 26 14.7595 25.2832 14 24.1895C13.2405 25.2832 11.9764 26 10.5439 26C8.56063 26 6.8472 24.6141 6.43164 22.6748L6.3916 22.4844C3.93574 22.3011 2 20.2527 2 17.75C2 15.8783 3.08306 14.2603 4.65625 13.4863C3.64581 12.6611 3 11.4063 3 10C3 7.67805 4.75868 5.76755 7.0166 5.52637C7.19291 3.54966 8.85244 2 10.875 2C12.1578 2 13.2947 2.62363 14 3.58398C14.7053 2.62363 15.8422 2 17.125 2ZM10.875 3.5C9.56332 3.5 8.5 4.56332 8.5 5.875V6.25C8.5 6.66421 8.16421 7 7.75 7H7.5C5.84315 7 4.5 8.34315 4.5 10C4.5 11.6569 5.84315 13 7.5 13H8.25C8.66421 13 9 13.3358 9 13.75C9 14.1642 8.66421 14.5 8.25 14.5H6.75C4.95507 14.5 3.5 15.9551 3.5 17.75C3.5 19.5449 4.95507 21 6.75 21H7C7.30938 21 7.58229 21.1889 7.69531 21.4678L7.7334 21.5928L7.89746 22.3613C8.16493 23.6089 9.26803 24.5 10.5439 24.5C12.0385 24.5 13.25 23.2885 13.25 21.7939V5.875C13.25 4.56332 12.1867 3.5 10.875 3.5ZM17.125 3.5C15.8133 3.5 14.75 4.56332 14.75 5.875V21.7939C14.75 23.2885 15.9615 24.5 17.4561 24.5C18.732 24.5 19.8351 23.6089 20.1025 22.3613L20.2666 21.5928L20.3047 21.4678C20.4177 21.1889 20.6906 21 21 21H21.25C23.0449 21 24.5 19.5449 24.5 17.75C24.5 15.9551 23.0449 14.5 21.25 14.5H19.75C19.3358 14.5 19 14.1642 19 13.75C19 13.3358 19.3358 13 19.75 13H20.5C22.1569 13 23.5 11.6569 23.5 10C23.5 8.34315 22.1569 7 20.5 7H20.25C19.8358 7 19.5 6.66421 19.5 6.25V5.875C19.5 4.56332 18.4367 3.5 17.125 3.5Z" fill="#212121"/>
</svg>
