<svg width="20" height="20" viewBox="0 0 20 20" fill="none" xmlns="http://www.w3.org/2000/svg">
<path d="M5.5 3C4.11929 3 3 4.11929 3 5.5C3 5.77614 3.22386 6 3.5 6C3.77614 6 4 5.77614 4 5.5C4 4.67157 4.67157 4 5.5 4C5.77614 4 6 3.77614 6 3.5C6 3.22386 5.77614 3 5.5 3ZM8.5 3C8.22386 3 8 3.22386 8 3.5C8 3.77614 8.22386 4 8.5 4H10.5C10.7761 4 11 3.77614 11 3.5C11 3.22386 10.7761 3 10.5 3H8.5ZM4 8.5C4 8.22386 3.77614 8 3.5 8C3.22386 8 3 8.22386 3 8.5V11.5C3 11.7761 3.22386 12 3.5 12C3.77614 12 4 11.7761 4 11.5V8.5ZM4 14.5C4 14.2239 3.77614 14 3.5 14C3.22386 14 3 14.2239 3 14.5C3 15.8807 4.11929 17 5.5 17C5.77614 17 6 16.7761 6 16.5C6 16.2239 5.77614 16 5.5 16C4.67157 16 4 15.3284 4 14.5ZM8.5 16C8.22386 16 8 16.2239 8 16.5C8 16.7761 8.22386 17 8.5 17H10.5C10.7761 17 11 16.7761 11 16.5C11 16.2239 10.7761 16 10.5 16H8.5ZM12.5 3C12.2239 3 12 3.22386 12 3.5V16.5C12 16.7761 12.2239 17 12.5 17H14C15.6569 17 17 15.6569 17 14V6C17 4.34315 15.6569 3 14 3H12.5ZM13 16V4H14C15.1046 4 16 4.89543 16 6V14C16 15.1046 15.1046 16 14 16H13Z" fill="#212121"/>
</svg>
