<svg width="48" height="48" viewBox="0 0 48 48" fill="none" xmlns="http://www.w3.org/2000/svg">
<path d="M7.5 10.5C7.04069 10.5 6.59946 10.5774 6.18865 10.7199C6.87113 8.00781 9.32609 6 12.25 6H35.75C39.2018 6 42 8.79822 42 12.25V24.0436C41.2196 23.544 40.3823 23.1255 39.5 22.7999V12.25C39.5 10.1789 37.8211 8.5 35.75 8.5H12.25C10.7223 8.5 9.40795 9.41353 8.82345 10.7241C8.40921 10.5789 7.96382 10.5 7.5 10.5ZM22.7999 39.5C23.1255 40.3823 23.544 41.2196 24.0436 42H12.25C8.79822 42 6 39.2018 6 35.75V18.2092C6.46322 18.3967 6.96955 18.5 7.5 18.5C7.8453 18.5 8.18038 18.4562 8.5 18.374V35.75C8.5 37.8211 10.1789 39.5 12.25 39.5H22.7999ZM23.7392 28.5C24.2647 27.5914 24.8971 26.7524 25.6191 26H17.25C16.5596 26 16 26.5596 16 27.25C16 27.9404 16.5596 28.5 17.25 28.5H23.7392ZM7.5 12C6.9372 12 6.41783 12.186 6 12.4998C5.39278 12.9559 5 13.6821 5 14.5C5 15.3179 5.39278 16.0441 6 16.5002C6.41783 16.814 6.9372 17 7.5 17C7.85555 17 8.19377 16.9258 8.5 16.792C9.38295 16.4062 10 15.5252 10 14.5C10 13.4749 9.38306 12.594 8.50023 12.2081C8.19394 12.0743 7.85564 12 7.5 12ZM17.25 19C16.5596 19 16 19.5596 16 20.25C16 20.9404 16.5596 21.5 17.25 21.5H30.75C31.4404 21.5 32 20.9404 32 20.25C32 19.5596 31.4404 19 30.75 19H17.25ZM46 35C46 41.0751 41.0751 46 35 46C28.9249 46 24 41.0751 24 35C24 28.9249 28.9249 24 35 24C41.0751 24 46 28.9249 46 35ZM35 28C32.2386 28 30 30.2386 30 33V36.382L29.0528 38.2764C28.9753 38.4314 28.9836 38.6155 29.0747 38.7629C29.1658 38.9103 29.3267 39 29.5 39H40.5C40.6733 39 40.8342 38.9103 40.9253 38.7629C41.0164 38.6155 41.0247 38.4314 40.9472 38.2764L40 36.382V33C40 30.2386 37.7614 28 35 28ZM33 40C33 41.1046 33.8954 42 35 42C36.1046 42 37 41.1046 37 40H33Z" fill="#212121"/>
</svg>
