<svg width="24" height="24" viewBox="0 0 24 24" fill="none" xmlns="http://www.w3.org/2000/svg">
<path d="M21.7071 2.2968C22.0976 2.68732 22.0976 3.32049 21.7071 3.71101L21.2071 4.21101C20.8166 4.60154 20.1834 4.60154 19.7929 4.21101C19.4024 3.82049 19.4024 3.18732 19.7929 2.7968L20.2929 2.2968C20.6834 1.90628 21.3166 1.90628 21.7071 2.2968ZM17.7032 6.29704C18.0937 6.68757 18.0937 7.32073 17.7032 7.71126L16.7061 8.70833C16.3156 9.09885 15.6824 9.09885 15.2919 8.70833C14.9014 8.3178 14.9014 7.68464 15.2919 7.29411L16.289 6.29704C16.6795 5.90652 17.3127 5.90652 17.7032 6.29704ZM13.2071 10.7926C13.5976 11.1832 13.5976 11.8163 13.2071 12.2069L12.2071 13.2069C11.8166 13.5974 11.1834 13.5974 10.7929 13.2069C10.4024 12.8163 10.4024 12.1832 10.7929 11.7926L11.7929 10.7926C12.1834 10.4021 12.8166 10.4021 13.2071 10.7926ZM8.70295 16.7109C9.09347 16.3204 9.09347 15.6872 8.70295 15.2967C8.31242 14.9062 7.67926 14.9062 7.28873 15.2967L6.29094 16.2945C5.90042 16.685 5.90042 17.3182 6.29094 17.7087C6.68146 18.0992 7.31463 18.0992 7.70515 17.7087L8.70295 16.7109ZM4.21199 21.2069C4.60251 20.8163 4.60251 20.1832 4.21199 19.7926C3.82147 19.4021 3.1883 19.4021 2.79778 19.7926L2.29778 20.2926C1.90725 20.6832 1.90725 21.3163 2.29778 21.7069C2.6883 22.0974 3.32147 22.0974 3.71199 21.7069L4.21199 21.2069Z" fill="#212121"/>
</svg>
