<?xml version="1.0" encoding="UTF-8"?>
<svg width="24px" height="24px" viewBox="0 0 24 24" version="1.1" xmlns="http://www.w3.org/2000/svg" xmlns:xlink="http://www.w3.org/1999/xlink">
    <!-- Generator: Sketch 59.1 (86144) - https://sketch.com -->
    <title>ic_fluent_office_exchange_24_mono</title>
    <desc>Created with Sketch.</desc>
    <g id="ðŸ”-Product-Icons" stroke="none" stroke-width="1" fill="none" fill-rule="evenodd">
        <g id="ic_fluent_office_exchange_24_mono" fill="#212121" fill-rule="nonzero">
            <path d="M21,8.911 C21,8.978 20.974,9.041 20.927,9.088 L18.722,11.293 L18.014,12 L14,12 L14,7.001 C14,6.721 13.885,6.468 13.699,6.286 L13.707,6.279 L15.912,4.074 C15.959,4.027 16.023,4 16.089,4 L20.75,4 C20.888,4 21,4.113 21,4.25 L21,8.911 Z M20.926,14.912 C20.974,14.96 21,15.023 21,15.09 L21,19.75 C21,19.888 20.888,20 20.75,20 L16.089,20 C16.023,20 15.959,19.974 15.912,19.927 L13.985,18 L14,18 L14,13 L19,13 L19,12.986 L20.926,14.912 Z M10.088,19.927 C10.04,19.974 9.978,20 9.911,20 L5.25,20 C5.112,20 5,19.888 5,19.75 L5,18 L12.015,18 L10.088,19.927 Z M10.25,11.134 L10.25,12.807 L7.312,12.807 L7.312,14.208 L10.608,14.208 L10.608,15.876 L5.392,15.876 L5.392,8.126 L10.442,8.126 L10.442,9.804 L7.312,9.804 L7.312,11.134 L10.25,11.134 Z M5,4.25 C5,4.113 5.112,4 5.25,4 L9.911,4 C9.978,4 10.04,4.026 10.088,4.074 L12.015,6 L12,6 L12,6.001 L5,6.001 L5,4.25 Z M22,8.911 L22,4.25 C22,3.56 21.44,3 20.75,3 L16.089,3 C15.758,3 15.44,3.132 15.205,3.367 L13,5.572 L10.795,3.367 C10.56,3.132 10.242,3 9.911,3 L5.25,3 C4.56,3 4,3.56 4,4.25 L4,6.001 L3,6.001 C2.448,6.001 2,6.449 2,7.001 L2,17 C2,17.553 2.448,18 3,18 L4,18 L4,19.75 C4,20.441 4.56,21 5.25,21 L9.911,21 C10.242,21 10.56,20.869 10.795,20.634 L13,18.429 L15.205,20.634 C15.44,20.869 15.758,21 16.089,21 L20.75,21 C21.44,21 22,20.441 22,19.75 L22,15.09 C22,14.758 21.868,14.44 21.634,14.205 L19.429,12 L21.634,9.795 C21.868,9.56 22,9.243 22,8.911 L22,8.911 Z" id="ðŸŽ¨-Color"></path>
        </g>
    </g>
</svg>