<svg width="32" height="32" viewBox="0 0 32 32" fill="none" xmlns="http://www.w3.org/2000/svg">
<path d="M10.5 16C13.5376 16 16 13.5376 16 10.5C16 7.46243 13.5376 5 10.5 5C7.46243 5 5 7.46243 5 10.5C5 13.5376 7.46243 16 10.5 16ZM23 16C25.2091 16 27 14.2091 27 12C27 9.79086 25.2091 8 23 8C20.7909 8 19 9.79086 19 12C19 14.2091 20.7909 16 23 16ZM5 18C3.34315 18 2 19.3431 2 21V21.15C2 21.15 2 27 10.5 27C19 27 19 21.15 19 21.15V21C19 19.3431 17.6569 18 16 18H5ZM22.9994 25C21.5445 25 20.3919 24.8016 19.479 24.4872C19.9113 23.7861 20.1585 23.1123 20.2999 22.5679C20.3923 22.2124 20.4413 21.9055 20.4674 21.6709C20.4805 21.5532 20.488 21.4524 20.4922 21.3712C20.4943 21.3306 20.4956 21.2948 20.4964 21.2641L20.4972 21.2219L20.4974 21.2037L20.4974 21.1954L20.4974 21C20.4974 19.8475 20.0641 18.7961 19.3516 18H27.5931C28.922 18 29.9994 19.0773 29.9994 20.4062C29.9994 20.4062 29.9994 25 22.9994 25Z" fill="#212121"/>
</svg>
