<svg width="25" height="24" viewBox="0 0 25 24" fill="none" xmlns="http://www.w3.org/2000/svg">
<path d="M13.4155 2.00391C15.0131 2.00391 16.3191 3.25283 16.4095 4.82294L16.4145 4.99867L18.6655 4.99967C19.5326 4.99967 20.2525 5.63039 20.3913 6.45825L20.4097 6.6063L20.4155 6.74985L20.4146 10.5009L18.4169 10.501C17.6733 10.501 17.0507 11.0442 16.937 11.74L16.9217 11.8722L16.9169 12.001C16.9169 12.7446 17.4601 13.3672 18.156 13.4809L18.2881 13.4962L18.4169 13.501L20.4146 13.5009L20.4155 17.2523C20.4155 18.1705 19.7084 18.9235 18.8089 18.9965L18.6654 19.0023L16.4145 19.0017L16.4104 19.1743C16.326 20.6301 15.2036 21.8075 13.7722 21.9771L13.5917 21.993L13.4155 21.9981C11.8178 21.9981 10.5118 20.7491 10.4206 19.1776L10.4155 19.0017L8.16546 19.0023C7.2983 19.0023 6.57845 18.3716 6.43964 17.544L6.42126 17.396L6.41546 17.2525L6.41446 15.0007L6.25146 14.9959C4.79564 14.9115 3.61832 13.7891 3.44873 12.3577L3.43283 12.1773L3.42773 12.001C3.42773 10.4033 4.67665 9.09732 6.2514 9.00607L6.41446 9.00067L6.41546 6.74967C6.41546 5.88251 7.04619 5.16266 7.87377 5.02385L8.02177 5.00547L8.16527 4.99967L10.4145 4.99867L10.4206 4.82763C10.5049 3.37181 11.6274 2.19449 13.0587 2.0249L13.2392 2.009L13.4155 2.00391ZM13.4155 3.50391C12.6358 3.50391 11.995 4.09879 11.9223 4.86006L11.9155 5.00464L11.914 6.49872L8.16546 6.49967C8.04712 6.49967 7.94798 6.5819 7.92207 6.69246L7.91546 6.74985L7.91455 10.5008L6.42773 10.501C5.59931 10.501 4.92773 11.1726 4.92773 12.001C4.92773 12.7807 5.52262 13.4214 6.28321 13.4941L6.42766 13.501L7.91455 13.5008L7.91546 17.2523C7.91546 17.3706 7.9977 17.4698 8.10808 17.4957L8.16537 17.5023L11.914 17.5018L11.9155 18.9981C11.9155 19.8265 12.587 20.4981 13.4155 20.4981C14.1952 20.4981 14.8359 19.9032 14.9086 19.1431L14.9155 18.9988L14.914 17.5018L18.6655 17.5023C18.7838 17.5023 18.8829 17.4201 18.9089 17.3097L18.9155 17.2525L18.9145 14.9997L18.3917 15.0006L18.2123 14.9941C16.701 14.8919 15.5082 13.6766 15.4223 12.1529L15.4174 11.9757L15.4238 11.7963C15.526 10.285 16.7413 9.09226 18.2425 9.00598L18.4169 9.00098L18.9145 9.00067L18.9155 6.74967C18.9155 6.65499 18.8628 6.57261 18.7852 6.53017L18.7227 6.50627L18.6653 6.49967L14.914 6.49872L14.9155 5.00391C14.9155 4.17548 14.2439 3.50391 13.4155 3.50391Z" fill="#212121"/>
</svg>
