<svg width="48" height="48" viewBox="0 0 48 48" fill="none" xmlns="http://www.w3.org/2000/svg">
<path d="M19.25 5C18.5596 5 18 5.55964 18 6.25C18 6.94036 18.5596 7.5 19.25 7.5H28.75C29.4404 7.5 30 6.94036 30 6.25C30 5.55964 29.4404 5 28.75 5H19.25ZM7 27C7 17.6112 14.6112 10 24 10C33.3888 10 41 17.6112 41 27C41 36.3888 33.3888 44 24 44C14.6112 44 7 36.3888 7 27ZM22.75 26.75C22.75 27.4404 23.3096 28 24 28C24.6904 28 25.25 27.4404 25.25 26.75V17.25C25.25 16.5596 24.6904 16 24 16C23.3096 16 22.75 16.5596 22.75 17.25V26.75ZM36.3661 10.3661C36.8543 9.87797 37.6457 9.87797 38.1339 10.3661L40.6339 12.8661C41.122 13.3543 41.122 14.1457 40.6339 14.6339C40.1457 15.122 39.3543 15.122 38.8661 14.6339L36.3661 12.1339C35.878 11.6457 35.878 10.8543 36.3661 10.3661Z" fill="#212121"/>
</svg>
