<svg width="32" height="32" viewBox="0 0 32 32" fill="none" xmlns="http://www.w3.org/2000/svg">
<path d="M15 16C18.866 16 22 12.866 22 9C22 5.134 18.866 2 15 2C11.134 2 8 5.134 8 9C8 12.866 11.134 16 15 16ZM3 21.5V22C3 24.393 4.523 26.417 6.685 27.793C8.859 29.177 11.802 30 15 30C15.178 30 15.353 29.988 15.529 29.983C15.522 29.904 15.5 29.83 15.5 29.75V23.27C15.5 22.351 15.901 21.483 16.602 20.889L20 18H6.5C4.567 18 3 19.567 3 21.5ZM22.448 17.888C23.055 17.372 23.946 17.372 24.553 17.888L29.428 22.032C29.791 22.341 30.001 22.793 30.001 23.27V29.75C30.001 30.44 29.441 31 28.751 31H26.751C26.061 31 25.501 30.44 25.501 29.75V26.5C25.501 25.949 25.056 25.502 24.505 25.5H22.496C21.946 25.502 21.5 25.949 21.5 26.5V29.75C21.5 30.44 20.94 31 20.25 31H18.25C17.56 31 17 30.44 17 29.75V23.27C17 22.793 17.209 22.341 17.573 22.032L22.448 17.888Z" fill="#212121"/>
</svg>
