<svg width="32" height="32" viewBox="0 0 32 32" fill="none" xmlns="http://www.w3.org/2000/svg">
<path d="M7.5 3C9.433 3 11 4.567 11 6.5V25.5C11 27.433 9.433 29 7.5 29C5.567 29 4 27.433 4 25.5V6.5C4 4.567 5.567 3 7.5 3ZM16.5 9C18.433 9 20 10.567 20 12.5V25.5C20 27.433 18.433 29 16.5 29C14.567 29 13 27.433 13 25.5V12.5C13 10.567 14.567 9 16.5 9ZM25.5 15C27.433 15 29 16.567 29 18.5V25.5C29 27.433 27.433 29 25.5 29C23.567 29 22 27.433 22 25.5V18.5C22 16.567 23.567 15 25.5 15ZM7.5 5C6.67157 5 6 5.67157 6 6.5V25.5C6 26.3284 6.67157 27 7.5 27C8.32843 27 9 26.3284 9 25.5V6.5C9 5.67157 8.32843 5 7.5 5ZM16.5 11C15.6716 11 15 11.6716 15 12.5V25.5C15 26.3284 15.6716 27 16.5 27C17.3284 27 18 26.3284 18 25.5V12.5C18 11.6716 17.3284 11 16.5 11ZM25.5 17C24.6716 17 24 17.6716 24 18.5V25.5C24 26.3284 24.6716 27 25.5 27C26.3284 27 27 26.3284 27 25.5V18.5C27 17.6716 26.3284 17 25.5 17Z" fill="#212121"/>
</svg>
