<svg width="28" height="28" viewBox="0 0 28 28" fill="none" xmlns="http://www.w3.org/2000/svg">
<path d="M12.25 6.75C12.25 8.82107 10.5711 10.5 8.5 10.5C6.42893 10.5 4.75 8.82107 4.75 6.75C4.75 4.67893 6.42893 3 8.5 3C10.5711 3 12.25 4.67893 12.25 6.75ZM5.25 12C4.00736 12 3 13.0074 3 14.25V19.5C3 22.5376 5.46243 25 8.5 25C11.5376 25 14 22.5376 14 19.5V14.25C14 13.0074 12.9926 12 11.75 12H5.25ZM14.001 10.5C13.2752 10.5 12.5975 10.2938 12.0234 9.93677C12.7863 9.09404 13.251 7.97628 13.251 6.75C13.251 5.52372 12.7863 4.40596 12.0234 3.56323C12.5975 3.20621 13.2752 3 14.001 3C16.0721 3 17.751 4.67893 17.751 6.75C17.751 8.82107 16.0721 10.5 14.001 10.5ZM15.001 14.25C15.001 13.3768 14.6566 12.5839 14.0962 12H17.251C18.4937 12 19.501 13.0074 19.501 14.25V19.5C19.501 22.5376 17.0386 25 14.001 25C13.4225 25 12.8648 24.9107 12.341 24.745C13.9539 23.5622 15.001 21.6534 15.001 19.5V14.25ZM17.5234 9.93625C18.0977 10.2936 18.7757 10.5 19.5019 10.5C21.5729 10.5 23.2519 8.82107 23.2519 6.75C23.2519 4.67893 21.5729 3 19.5019 3C18.7757 3 18.0977 3.20641 17.5234 3.56375C18.2861 4.40642 18.7506 5.52397 18.7506 6.75C18.7506 7.97603 18.2861 9.09358 17.5234 9.93625ZM17.8409 24.7448C18.365 24.9106 18.923 25 19.5019 25C22.5394 25 25.0019 22.5376 25.0019 19.5V14.25C25.0019 13.0074 23.9945 12 22.7519 12H19.5958C20.1562 12.5839 20.5006 13.3768 20.5006 14.25V19.5C20.5006 21.6532 19.4536 23.5619 17.8409 24.7448Z" fill="#212121"/>
</svg>
