<svg width="25" height="24" viewBox="0 0 25 24" fill="none" xmlns="http://www.w3.org/2000/svg">
<path d="M16.1661 2C17.4087 2 18.4161 3.00736 18.4161 4.25V19.75C18.4161 20.9926 17.4087 22 16.1661 22H8.66606C7.42342 22 6.41606 20.9926 6.41606 19.75V4.25C6.41606 3.00736 7.42342 2 8.66606 2H16.1661ZM13.6661 18H11.1661C10.7518 18 10.4161 18.3358 10.4161 18.75C10.4161 19.1297 10.6982 19.4435 11.0643 19.4932L11.1661 19.5H13.6661C14.0803 19.5 14.4161 19.1642 14.4161 18.75C14.4161 18.3358 14.0803 18 13.6661 18ZM20.5447 7.57152C21.0208 7.38106 21.5566 7.58251 21.795 8.02283L21.8445 8.12861L22.4271 9.58502C22.79 10.4923 22.687 11.5149 22.1609 12.3282L22.0417 12.4992L21.8905 12.7008C21.7072 12.9451 21.647 13.2575 21.7217 13.5489L21.762 13.6722L22.3445 15.1286C22.5497 15.6414 22.3002 16.2234 21.7875 16.4285C21.3113 16.6189 20.7755 16.4175 20.5371 15.9772L20.4876 15.8714L19.905 14.415C19.5421 13.5077 19.6452 12.4851 20.1713 11.6718L20.2905 11.5008L20.4417 11.2992C20.6249 11.0549 20.6851 10.7425 20.6104 10.4511L20.5701 10.3278L19.9876 8.87139C19.7825 8.35861 20.0319 7.77664 20.5447 7.57152ZM3.04467 7.57152C3.52083 7.38106 4.05664 7.58251 4.29498 8.02283L4.34454 8.12861L4.9271 9.58502C5.29002 10.4923 5.18696 11.5149 4.66087 12.3282L4.54167 12.4992L4.39045 12.7008C4.20723 12.9451 4.14705 13.2575 4.2217 13.5489L4.26198 13.6722L4.84454 15.1286C5.04965 15.6414 4.80024 16.2234 4.28745 16.4285C3.8113 16.6189 3.27549 16.4175 3.03715 15.9772L2.98759 15.8714L2.40502 14.415C2.04211 13.5077 2.14517 12.4851 2.67126 11.6718L2.79045 11.5008L2.94167 11.2992C3.12489 11.0549 3.18508 10.7425 3.11043 10.4511L3.07015 10.3278L2.48759 8.87139C2.28247 8.35861 2.53189 7.77664 3.04467 7.57152Z" fill="#212121"/>
</svg>
