<svg width="24" height="24" viewBox="0 0 24 24" fill="none" xmlns="http://www.w3.org/2000/svg">
<path d="M15.7491 2C16.9917 2 17.9991 3.00736 17.9991 4.25V19.75C17.9991 20.9926 16.9917 22 15.7491 22H8.24907C7.00643 22 5.99907 20.9926 5.99907 19.75V4.25C5.99907 3.00736 7.00643 2 8.24907 2H15.7491ZM13.2491 18H10.7491C10.3349 18 9.99907 18.3358 9.99907 18.75C9.99907 19.1297 10.2812 19.4435 10.6473 19.4932L10.7491 19.5H13.2491C13.6633 19.5 13.9991 19.1642 13.9991 18.75C13.9991 18.3358 13.6633 18 13.2491 18ZM20.1277 7.57152C20.6038 7.38106 21.1396 7.58251 21.378 8.02283L21.4275 8.12861L22.0101 9.58502C22.373 10.4923 22.27 11.5149 21.7439 12.3282L21.6247 12.4992L21.4735 12.7008C21.2902 12.9451 21.2301 13.2575 21.3047 13.5489L21.345 13.6722L21.9275 15.1286C22.1327 15.6414 21.8832 16.2234 21.3705 16.4285C20.8943 16.6189 20.3585 16.4175 20.1202 15.9772L20.0706 15.8714L19.488 14.415C19.1251 13.5077 19.2282 12.4851 19.7543 11.6718L19.8735 11.5008L20.0247 11.2992C20.2079 11.0549 20.2681 10.7425 20.1934 10.4511L20.1532 10.3278L19.5706 8.87139C19.3655 8.35861 19.6149 7.77664 20.1277 7.57152ZM2.62768 7.57152C3.10384 7.38106 3.63965 7.58251 3.87799 8.02283L3.92755 8.12861L4.51011 9.58502C4.87303 10.4923 4.76997 11.5149 4.24387 12.3282L4.12468 12.4992L3.97346 12.7008C3.79024 12.9451 3.73006 13.2575 3.8047 13.5489L3.84499 13.6722L4.42755 15.1286C4.63266 15.6414 4.38325 16.2234 3.87046 16.4285C3.39431 16.6189 2.85849 16.4175 2.62015 15.9772L2.57059 15.8714L1.98803 14.415C1.62512 13.5077 1.72817 12.4851 2.25427 11.6718L2.37346 11.5008L2.52468 11.2992C2.7079 11.0549 2.76809 10.7425 2.69344 10.4511L2.65316 10.3278L2.07059 8.87139C1.86548 8.35861 2.1149 7.77664 2.62768 7.57152Z" fill="#212121"/>
</svg>
