<?xml version="1.0" encoding="UTF-8"?>
<svg width="24px" height="24px" viewBox="0 0 24 24" version="1.1" xmlns="http://www.w3.org/2000/svg" xmlns:xlink="http://www.w3.org/1999/xlink">
    <!-- Generator: Sketch 59.1 (86144) - https://sketch.com -->
    <title>ic_fluent_phone_vibrate_24_filled</title>
    <desc>Created with Sketch.</desc>
    <g id="ðŸ”-Product-Icons" stroke="none" stroke-width="1" fill="none" fill-rule="evenodd">
        <g id="ic_fluent_phone_vibrate_24_filled" fill="#212121" fill-rule="nonzero">
            <path d="M15.75,2 C16.9926407,2 18,3.00735931 18,4.25 L18,19.75 C18,20.9926407 16.9926407,22 15.75,22 L8.25,22 C7.00735931,22 6,20.9926407 6,19.75 L6,4.25 C6,3.00735931 7.00735931,2 8.25,2 L15.75,2 Z M13.25,18 L10.75,18 C10.3357864,18 10,18.3357864 10,18.75 C10,19.1296958 10.2821539,19.443491 10.6482294,19.4931534 L10.75,19.5 L13.25,19.5 C13.6642136,19.5 14,19.1642136 14,18.75 C14,18.3357864 13.6642136,18 13.25,18 Z M20.1286093,7.57152331 C20.6047654,7.38106086 21.1405776,7.58251399 21.3789182,8.02282794 L21.4284767,8.12860932 L22.0110393,9.58501573 C22.3739553,10.4923058 22.2708972,11.5149266 21.744803,12.3282305 L21.6256092,12.4991878 L21.4743908,12.7008122 C21.2911693,12.9451076 21.2309856,13.2575199 21.305633,13.5488821 L21.3459141,13.6722029 L21.9284767,15.1286093 C22.1335901,15.6413928 21.8841742,16.2233633 21.3713907,16.4284767 C20.8952346,16.6189391 20.3594224,16.417486 20.1210818,15.9771721 L20.0715233,15.8713907 L19.4889607,14.4149843 C19.1260447,13.5076942 19.2291028,12.4850734 19.755197,11.6717695 L19.8743908,11.5008122 L20.0256092,11.2991878 C20.2088307,11.0548924 20.2690144,10.7424801 20.194367,10.4511179 L20.1540859,10.3277971 L19.5715233,8.87139068 C19.3664099,8.35860716 19.6158258,7.77663672 20.1286093,7.57152331 Z M2.62860932,7.57152331 C3.10476545,7.38106086 3.64057764,7.58251399 3.87891815,8.02282794 L3.92847669,8.12860932 L4.51103925,9.58501573 C4.87395529,10.4923058 4.77089719,11.5149266 4.24480304,12.3282305 L4.12560918,12.4991878 L3.97439082,12.7008122 C3.79116932,12.9451076 3.73098562,13.2575199 3.80563303,13.5488821 L3.84591413,13.6722029 L4.42847669,15.1286093 C4.6335901,15.6413928 4.38417419,16.2233633 3.87139068,16.4284767 C3.39523455,16.6189391 2.85942236,16.417486 2.62108185,15.9771721 L2.57152331,15.8713907 L1.98896075,14.4149843 C1.62604471,13.5076942 1.72910281,12.4850734 2.25519696,11.6717695 L2.37439082,11.5008122 L2.52560918,11.2991878 C2.70883068,11.0548924 2.76901438,10.7424801 2.69436697,10.4511179 L2.65408587,10.3277971 L2.07152331,8.87139068 C1.8664099,8.35860716 2.11582581,7.77663672 2.62860932,7.57152331 Z" id="ðŸŽ¨-Color"></path>
        </g>
    </g>
</svg>