<svg width="24" height="24" viewBox="0 0 24 24" fill="none" xmlns="http://www.w3.org/2000/svg">
<path d="M23 6.5C23 3.46243 20.5376 1 17.5 1C14.4624 1 12 3.46243 12 6.5C12 9.53757 14.4624 12 17.5 12C20.5376 12 23 9.53757 23 6.5ZM18.0006 7.00001L18.0011 9.50352C18.0011 9.77966 17.7773 10.0035 17.5011 10.0035C17.225 10.0035 17.0011 9.77966 17.0011 9.50352L17.0006 7.00001H14.4956C14.2197 7.00001 13.9961 6.77615 13.9961 6.50001C13.9961 6.22387 14.2197 6.00001 14.4956 6.00001H17.0005L17 3.49927C17 3.22313 17.2239 2.99927 17.5 2.99927C17.7761 2.99927 18 3.22313 18 3.49927L18.0005 6.00001H20.4966C20.7725 6.00001 20.9961 6.22387 20.9961 6.50001C20.9961 6.77615 20.7725 7.00001 20.4966 7.00001H18.0006ZM17.5 13C18.0166 13 18.5191 12.9397 19.0008 12.8259V21.2451C19.0008 21.8563 18.309 22.2108 17.8128 21.8539L12.0016 17.6729L6.19045 21.8539C5.69432 22.2108 5.00244 21.8563 5.00244 21.2451V6.24915C5.00244 4.45422 6.45752 2.99915 8.25244 2.99915H12.0224C11.3752 4.00962 11 5.21099 11 6.5C11 10.0899 13.9101 13 17.5 13Z" fill="#212121"/>
</svg>
