<svg width="20" height="20" viewBox="0 0 20 20" fill="none" xmlns="http://www.w3.org/2000/svg">
<path d="M10.3536 3.14645C10.1583 2.95118 9.84171 2.95118 9.64645 3.14645L6.64645 6.14645C6.45118 6.34171 6.45118 6.65829 6.64645 6.85355C6.84171 7.04882 7.15829 7.04882 7.35355 6.85355L9.5 4.70711V12.5C9.5 12.7761 9.72386 13 10 13C10.2761 13 10.5 12.7761 10.5 12.5V4.70711L12.6464 6.85355C12.8417 7.04882 13.1583 7.04882 13.3536 6.85355C13.5488 6.65829 13.5488 6.34171 13.3536 6.14645L10.3536 3.14645ZM3 10.5C3 9.67157 3.67157 9 4.5 9H7.5C7.77614 9 8 8.77614 8 8.5C8 8.22386 7.77614 8 7.5 8H4.5C3.11929 8 2 9.11929 2 10.5V13.5C2 14.8807 3.11929 16 4.5 16H15.5C16.8807 16 18 14.8807 18 13.5V10.5C18 9.11929 16.8807 8 15.5 8H12.5C12.2239 8 12 8.22386 12 8.5C12 8.77614 12.2239 9 12.5 9H15.5C16.3284 9 17 9.67157 17 10.5V13.5C17 14.3284 16.3284 15 15.5 15H4.5C3.67157 15 3 14.3284 3 13.5V10.5Z" fill="#212121"/>
</svg>
