<svg width="20" height="20" viewBox="0 0 20 20" fill="none" xmlns="http://www.w3.org/2000/svg">
<path fill-rule="evenodd" clip-rule="evenodd" d="M5.30132 2.22782C5.41921 1.92443 5.68539 1.76345 5.96002 1.75077L5.98738 1.75H6.0126L6.04002 1.75077C6.31463 1.76347 6.58075 1.92437 6.69864 2.22775L10.203 11.2402L10.2342 11.3487L10.2364 11.3596C10.304 11.7085 10.1152 12.0673 9.77157 12.2008L9.76039 12.2051L9.65255 12.2355L9.64276 12.2374C9.2923 12.3066 8.93418 12.1158 8.80087 11.7733L7.82191 9.25292H4.17807L3.19919 11.7731C3.13104 11.9476 3.00401 12.0826 2.85112 12.164L2.84983 12.1647C2.70342 12.2416 2.53014 12.2715 2.35727 12.2375L2.34745 12.2355L2.2396 12.2051L2.22841 12.2008C1.8848 12.0673 1.69597 11.7085 1.76363 11.3596L1.76575 11.3487L1.79702 11.2402L5.30132 2.22782ZM4.55 7.73072H7.45L6.00055 4L4.55 7.73072Z" fill="url(#paint0_linear_378174_9679)"/>
<path d="M10.2961 16.9383L15.8782 11.3299L12.6724 8.11725L7.08472 13.7313L7.60839 16.4168L10.2961 16.9383Z" fill="url(#paint1_linear_378174_9679)"/>
<path d="M9.8692 17.1681C10.0742 17.093 10.261 16.9738 10.4161 16.8182C10.4161 16.8182 9.44983 16.9141 8.2804 15.7446C7.11096 14.5752 7.20469 13.6111 7.20469 13.6111L7.09816 13.7301C6.96506 13.8957 6.86827 14.0882 6.8149 14.2951L6.02291 17.3659L6.00848 17.4497C5.97955 17.7812 6.28758 18.0598 6.62669 17.9763L9.71223 17.216L9.8692 17.1681Z" fill="url(#paint2_linear_378174_9679)"/>
<path d="M9.8692 17.1681C10.0742 17.093 10.261 16.9738 10.4161 16.8182C10.4161 16.8182 9.44983 16.9141 8.2804 15.7446C7.11096 14.5752 7.20469 13.6111 7.20469 13.6111L7.09816 13.7301C6.96506 13.8957 6.86827 14.0882 6.8149 14.2951L6.02291 17.3659L6.00848 17.4497C5.97955 17.7812 6.28758 18.0598 6.62669 17.9763L9.71223 17.216L9.8692 17.1681Z" fill="url(#paint3_linear_378174_9679)"/>
<path d="M9.8692 17.1681C10.0742 17.093 10.261 16.9738 10.4161 16.8182C10.4161 16.8182 9.44983 16.9141 8.2804 15.7446C7.11096 14.5752 7.20469 13.6111 7.20469 13.6111L7.09816 13.7301C6.96506 13.8957 6.86827 14.0882 6.8149 14.2951L6.02291 17.3659L6.00848 17.4497C5.97955 17.7812 6.28758 18.0598 6.62669 17.9763L9.71223 17.216L9.8692 17.1681Z" fill="url(#paint4_linear_378174_9679)"/>
<path d="M17.1562 6.57695C16.2658 5.8173 14.9264 5.85993 14.0866 6.70303L12.5161 8.27348L15.7261 11.4834L17.2924 9.91569L17.4127 9.7852C18.137 8.93666 18.137 7.68207 17.4127 6.83352L17.2863 6.69692L17.1562 6.57695Z" fill="url(#paint5_linear_378174_9679)"/>
<path d="M15.3535 11.8561L16.5853 10.6228C16.5853 10.6228 15.6347 10.7294 14.4521 9.54679C13.2695 8.36419 13.3795 7.41013 13.3795 7.41013L12.1411 8.64797C12.1411 8.64797 12.0605 9.62586 13.2299 10.7953C14.3993 11.9647 15.3535 11.8561 15.3535 11.8561Z" fill="url(#paint6_linear_378174_9679)"/>
<defs>
<linearGradient id="paint0_linear_378174_9679" x1="1.75" y1="2.36773" x2="4.60378" y2="13.8421" gradientUnits="userSpaceOnUse">
<stop stop-color="#0FAFFF"/>
<stop offset="0.676761" stop-color="#0078D4"/>
<stop offset="0.84" stop-color="#0057AA"/>
<stop offset="1" stop-color="#0057AA"/>
</linearGradient>
<linearGradient id="paint1_linear_378174_9679" x1="9.50533" y1="10.2524" x2="13.7693" y2="14.5076" gradientUnits="userSpaceOnUse">
<stop stop-color="#FFA43D"/>
<stop offset="1" stop-color="#FB5937"/>
</linearGradient>
<linearGradient id="paint2_linear_378174_9679" x1="5.90419" y1="14.7024" x2="8.72763" y2="17.5299" gradientUnits="userSpaceOnUse">
<stop offset="0.255" stop-color="#FFD394"/>
<stop offset="1" stop-color="#FF921F"/>
</linearGradient>
<linearGradient id="paint3_linear_378174_9679" x1="8.72458" y1="16.2545" x2="7.11343" y2="14.4987" gradientUnits="userSpaceOnUse">
<stop stop-color="#AC80FF"/>
<stop offset="1" stop-color="#CEB0FF"/>
</linearGradient>
<linearGradient id="paint4_linear_378174_9679" x1="5.37473" y1="14.8315" x2="8.53207" y2="17.9908" gradientUnits="userSpaceOnUse">
<stop offset="0.255" stop-color="#FFD394"/>
<stop offset="1" stop-color="#FF921F"/>
</linearGradient>
<linearGradient id="paint5_linear_378174_9679" x1="16.8181" y1="7.1703" x2="14.8104" y2="9.05605" gradientUnits="userSpaceOnUse">
<stop stop-color="#F97DBD"/>
<stop offset="1" stop-color="#DD3CE2"/>
</linearGradient>
<linearGradient id="paint6_linear_378174_9679" x1="14.4457" y1="10.4626" x2="11.3076" y2="9.0989" gradientUnits="userSpaceOnUse">
<stop stop-color="#FF921F"/>
<stop offset="1" stop-color="#FFE994"/>
</linearGradient>
</defs>
</svg>
