<svg width="48" height="48" viewBox="0 0 48 48" fill="none" xmlns="http://www.w3.org/2000/svg">
<path d="M30 6C26.6863 6 24 8.68629 24 12V20C24 23.3137 26.6863 26 30 26C33.3137 26 36 23.3137 36 20V12C36 8.68629 33.3137 6 30 6ZM33 20C33 21.6569 31.6569 23 30 23C28.3431 23 27 21.6569 27 20V12C27 10.3431 28.3431 9 30 9C31.6569 9 33 10.3431 33 12V20Z" fill="#212121"/>
<path d="M8 31.25C8 30.5596 8.55964 30 9.25 30H15.756C16.4464 30 17.006 30.5596 17.006 31.25C17.006 31.9404 16.4464 32.5 15.756 32.5H10.5V36H14.75C15.4404 36 16 36.5596 16 37.25C16 37.9404 15.4404 38.5 14.75 38.5H10.5V42.7896C10.5 43.48 9.94036 44.0396 9.25 44.0396C8.55964 44.0396 8 43.48 8 42.7896V31.25Z" fill="#212121"/>
<path d="M20.75 30C20.0596 30 19.5 30.5596 19.5 31.25V42.7896C19.5 43.48 20.0596 44.0396 20.75 44.0396C21.4404 44.0396 22 43.48 22 42.7896V38.5H24.25C26.5972 38.5 28.5 36.5972 28.5 34.25C28.5 31.9028 26.5972 30 24.25 30H20.75ZM24.25 36H22V32.5H24.25C25.2165 32.5 26 33.2835 26 34.25C26 35.2165 25.2165 36 24.25 36Z" fill="#212121"/>
<path d="M33 34.1556C33 33.2412 33.7412 32.5 34.6556 32.5H36.25C36.9404 32.5 37.5 33.0596 37.5 33.75C37.5 34.4404 38.0596 35 38.75 35C39.4404 35 40 34.4404 40 33.75C40 31.6789 38.3211 30 36.25 30H34.6556C32.3605 30 30.5 31.8605 30.5 34.1556C30.5 36.4506 32.3605 38.3111 34.6556 38.3111H35.9056C36.7861 38.3111 37.5 39.025 37.5 39.9056C37.5 40.7861 36.7861 41.5 35.9056 41.5H34.25C33.5596 41.5 33 40.9404 33 40.25C33 39.5596 32.4404 39 31.75 39C31.0596 39 30.5 39.5596 30.5 40.25C30.5 42.3211 32.1789 44 34.25 44H35.9056C38.1669 44 40 42.1669 40 39.9056C40 37.6443 38.1669 35.8111 35.9056 35.8111H34.6556C33.7412 35.8111 33 35.0699 33 34.1556Z" fill="#212121"/>
<path d="M13 12C13 10.3431 14.3431 9 16 9C17.6569 9 19 10.3431 19 12C19 12.8284 19.6716 13.5 20.5 13.5C21.3284 13.5 22 12.8284 22 12C22 8.68629 19.3137 6 16 6C12.6863 6 10 8.68629 10 12V20.25C10 20.3343 10.007 20.4171 10.0203 20.4976C10.2733 23.5785 12.8539 26 16 26C19.3137 26 22 23.3137 22 20C22 16.6863 19.3137 14 16 14C14.9071 14 13.8825 14.2922 13 14.8027V12ZM13 20C13 18.3431 14.3431 17 16 17C17.6569 17 19 18.3431 19 20C19 21.6569 17.6569 23 16 23C14.3431 23 13 21.6569 13 20Z" fill="#212121"/>
</svg>
