<svg width="16" height="16" viewBox="0 0 16 16" fill="none" xmlns="http://www.w3.org/2000/svg">
<path d="M14.8268 9.70072L14.965 8.94626C15.1019 8.19816 14.8317 7.41344 14.2545 6.88345C12.8829 5.62393 10.7401 4.99613 7.82599 5.00002C4.91615 5.00397 2.83801 5.63562 1.59156 6.895C1.06359 7.42844 0.871303 8.2188 1.08677 8.9698L1.30325 9.72431C1.50524 10.4284 2.18652 10.8985 2.89708 10.8242L4.32113 10.6753C4.9324 10.6114 5.41505 10.1577 5.51881 9.54946L5.79254 7.94475C6.47022 7.62535 7.20291 7.45368 7.99062 7.42973C8.77833 7.40578 9.49922 7.53327 10.1533 7.81219L10.5952 9.52643C10.754 10.1425 11.2858 10.6035 11.91 10.6662L13.3424 10.8101C14.0621 10.8824 14.6974 10.4077 14.8268 9.70072Z" fill="#212121"/>
</svg>
