<svg width="28" height="28" viewBox="0 0 28 28" fill="none" xmlns="http://www.w3.org/2000/svg">
<path d="M22.9606 11.4819C24.1523 12.0517 24.7074 13.4331 24.3755 14.8712L23.9421 16.7493C23.7936 17.3928 23.1701 17.8098 22.5186 17.7012L19.3715 17.1767C19.0699 17.1264 18.829 16.8981 18.7627 16.5996L17.9822 13.0874C17.9251 12.8303 17.7369 12.6218 17.487 12.5385L17.2501 13.2501C17.4872 12.5386 17.487 12.5385 17.487 12.5385L17.486 12.5382L17.4842 12.5376L17.4789 12.5359L17.4619 12.5304C17.4478 12.5258 17.4279 12.5195 17.4028 12.5118C17.3524 12.4963 17.2807 12.4749 17.19 12.4496C17.0087 12.399 16.7506 12.3325 16.4358 12.2662C15.8092 12.1343 14.9426 12.0001 14.0001 12.0001C13.0576 12.0001 12.1909 12.1343 11.5643 12.2662C11.2495 12.3325 10.9915 12.399 10.8102 12.4496C10.7195 12.4749 10.6477 12.4963 10.5974 12.5118C10.5722 12.5195 10.5524 12.5258 10.5382 12.5304L10.5212 12.5359L10.516 12.5376L10.5129 12.5386C10.5129 12.5386 10.5129 12.5386 10.7501 13.2501L10.5129 12.5386C10.263 12.6219 10.0751 12.8302 10.0179 13.0874L9.23745 16.5996C9.17112 16.8981 8.93022 17.1264 8.62861 17.1767L5.48154 17.7012C4.83007 17.8098 4.20656 17.3928 4.05805 16.7493L3.62933 14.8915C3.29547 13.4447 3.85859 12.0553 5.06187 11.4867C7.01624 10.5632 10.0947 9.51289 14.0025 9.50012C17.9235 9.48729 21.0089 10.5486 22.9606 11.4819ZM16.6147 13.8482L17.2984 16.925C17.4974 17.8205 18.2201 18.5055 19.1249 18.6563L22.272 19.1808C23.7052 19.4197 25.077 18.5023 25.4037 17.0866L25.8371 15.2085C26.2908 13.2424 25.568 11.066 23.6077 10.1286C21.5035 9.12247 18.1947 7.9864 13.9976 8.00012C9.8212 8.01378 6.52504 9.13632 4.42103 10.1305C2.44606 11.0637 1.71118 13.2503 2.16774 15.2288L2.59646 17.0866C2.92318 18.5023 4.29492 19.4197 5.72814 19.1808L8.87521 18.6563C9.78005 18.5055 10.5027 17.8205 10.7017 16.925L11.3855 13.8482C11.5201 13.8134 11.6847 13.7737 11.8733 13.734C12.4342 13.616 13.1926 13.5001 14.0001 13.5001C14.8076 13.5001 15.5659 13.616 16.1268 13.734C16.3155 13.7737 16.48 13.8134 16.6147 13.8482Z" fill="#212121"/>
</svg>
