<svg width="20" height="20" viewBox="0 0 20 20" fill="none" xmlns="http://www.w3.org/2000/svg">
<path d="M17.8015 7.76906L17.9594 6.93993C18.116 6.1178 17.8139 5.24209 17.154 4.65965C15.5858 3.27548 13.3241 2.49957 9.99245 2.50386C6.6656 2.50818 4.10141 3.28832 2.67633 4.67234C2.0727 5.25858 1.85286 6.12714 2.09921 6.95248L2.3467 7.78165C2.57765 8.55537 3.35656 9.07205 4.16895 8.99042L5.79708 8.8268C6.49595 8.75657 6.80244 8.17088 7 7.49994C7.29566 6.49585 7.5 5.74998 7.5 5.74998C8.26225 5.46481 8.98623 5.24994 10 5.24994C11.0138 5.24994 11.7522 5.44346 12.5 5.74998C12.5 5.74998 12.6957 6.49518 13 7.49994C13.2241 8.23997 13.753 8.76115 14.4666 8.83008L16.1042 8.98826C16.9272 9.06774 17.6535 8.546 17.8015 7.76906Z" fill="#212121"/>
<path d="M9.5 11.5C9.77614 11.5 10 11.7239 10 12V13.5001H11.0047C11.2809 13.5001 11.5047 13.7239 11.5047 14.0001C11.5047 14.2762 11.2809 14.5001 11.0047 14.5001H9.5C9.22386 14.5001 9 14.2762 9 14.0001V12C9 11.7239 9.22386 11.5 9.5 11.5Z" fill="#212121"/>
<path d="M5.5 13.5C5.5 11.0147 7.51472 9 10 9C12.4853 9 14.5 11.0147 14.5 13.5C14.5 15.9853 12.4853 18 10 18C7.51472 18 5.5 15.9853 5.5 13.5ZM10 10C8.067 10 6.5 11.567 6.5 13.5C6.5 15.433 8.067 17 10 17C11.933 17 13.5 15.433 13.5 13.5C13.5 11.567 11.933 10 10 10Z" fill="#212121"/>
</svg>
