<svg width="28" height="28" viewBox="0 0 28 28" fill="none" xmlns="http://www.w3.org/2000/svg">
<path d="M16.8575 13.3613L17.5631 16.8894C17.7453 17.8004 18.4686 18.5057 19.3839 18.6649L22.2559 19.1643C23.6948 19.4146 25.0783 18.4964 25.4067 17.0734L25.7842 15.4375C26.2691 13.3363 25.4011 11.0317 23.2472 10.1875C21.1405 9.36178 17.9674 8.48692 13.9976 8.4999C10.0498 8.51281 6.89051 9.37707 4.78533 10.1915C2.61615 11.0307 1.73328 13.346 2.2214 15.4612L2.59345 17.0734C2.92185 18.4964 4.30535 19.4146 5.74422 19.1643L8.61622 18.6649C9.53148 18.5057 10.2548 17.8004 10.437 16.8894L11.1426 13.3613C11.3047 13.3238 11.5054 13.2802 11.7341 13.2367C12.3656 13.1164 13.1899 12.9999 14.0001 12.9999C14.8103 12.9999 15.6345 13.1164 16.266 13.2367C16.4947 13.2802 16.6954 13.3238 16.8575 13.3613Z" fill="#212121"/>
</svg>
