<svg width="32" height="32" viewBox="0 0 32 32" fill="none" xmlns="http://www.w3.org/2000/svg">
<path d="M6.55712 10.7244C9.0543 9.62101 12.3846 9 15.9964 9C19.615 9 22.9649 9.62336 25.4708 10.7305C27.9096 11.808 29.8729 13.5063 29.9927 15.8142C30.0057 16.0652 29.9753 16.2932 29.9413 16.4739L29.4393 19.1439C29.0839 21.0345 27.2694 22.2838 25.3765 21.9414L22.1466 21.357C20.9431 21.1393 19.9923 20.2127 19.7434 19.0153L19.1294 16.0599C18.526 15.8584 17.3934 15.5598 15.9964 15.5598C14.5994 15.5598 13.4669 15.8584 12.8636 16.0599L12.2494 19.0153C12.0006 20.2127 11.0498 21.1393 9.84628 21.357L6.61634 21.9414C4.72344 22.2838 2.90893 21.0345 2.5535 19.144L2.0553 16.4941C2.01803 16.2959 1.98609 16.0463 2.00623 15.7723C2.17424 13.4873 4.1224 11.8001 6.55712 10.7244Z" fill="#212121"/>
</svg>
