<svg width="32" height="32" viewBox="0 0 32 32" fill="none" xmlns="http://www.w3.org/2000/svg">
<path d="M23.5732 24.9869L28.2932 29.7068C28.6837 30.0973 29.3169 30.0973 29.7074 29.7068C30.0979 29.3163 30.0979 28.6831 29.7074 28.2926L3.7071 2.29288C3.31657 1.90237 2.6834 1.90237 2.29288 2.2929C1.90237 2.68343 1.90237 3.3166 2.2929 3.70712L8.86771 10.2818C8.42747 11.183 8.16474 12.1355 8.05719 13.0469C3.93119 13.4696 2.0003 16.6441 2.0003 18.9997C2.0003 20.1449 2.28423 21.6642 3.37273 22.9082C4.48508 24.1795 6.29282 24.9997 9.0003 24.9997H23.0003C23.1944 24.9997 23.3854 24.9954 23.5732 24.9869ZM21.5859 22.9997H9.0003C6.70778 22.9997 5.51553 22.3199 4.87788 21.5912C4.21638 20.8352 4.0003 19.8545 4.0003 18.9997C4.0003 17.528 5.37664 14.9997 9.0003 14.9997C9.55259 14.9997 10.0003 14.552 10.0003 13.9997C10.0003 13.3022 10.1265 12.542 10.3919 11.8059L21.5859 22.9997ZM26.8445 21.8886C26.6048 22.0968 26.3177 22.2843 25.9788 22.4434L27.4521 23.9167C27.7026 23.761 27.9375 23.5883 28.1561 23.3984C29.4168 22.3032 30.0003 20.7535 30.0003 18.9997C30.0003 17.1137 29.0632 15.5889 27.7365 14.5644C26.669 13.7401 25.3333 13.222 23.9556 13.057C23.731 10.7381 22.6796 9.01339 21.2585 7.85074C19.6824 6.56119 17.7004 5.9997 16.0003 5.9997C13.9616 5.9997 12.3287 6.60127 11.084 7.54894L12.5162 8.98113C13.3908 8.38512 14.532 7.9997 16.0003 7.9997C17.3002 7.9997 18.8182 8.4382 19.9921 9.39865C21.1348 10.3336 22.0003 11.7994 22.0003 13.9997C22.0003 14.552 22.448 14.9997 23.0003 14.9997C24.2964 14.9997 25.5774 15.424 26.5141 16.1474C27.4374 16.8604 28.0003 17.8356 28.0003 18.9997C28.0003 20.296 27.5838 21.2463 26.8445 21.8886Z" fill="#212121"/>
</svg>
