<svg width="16" height="16" viewBox="0 0 16 16" fill="none" xmlns="http://www.w3.org/2000/svg">
<path d="M5.81217 3.27816C6.66976 2.29359 7.82263 1.64675 9.22321 1.75209C10.6531 1.85964 11.4385 2.69491 11.8332 3.47329C12.0246 3.85076 12.1267 4.21504 12.1816 4.48131C12.2094 4.61584 12.2258 4.72917 12.2356 4.81176C12.2404 4.85316 12.2436 4.88713 12.2457 4.91253L12.2481 4.94414L12.2487 4.95491L12.249 4.959L12.2491 4.96071C12.2491 4.96071 12.2188 4.36036 12.2491 4.9622C12.27 5.37589 11.9516 5.72817 11.5379 5.74905C11.1257 5.76985 10.7744 5.45374 10.7513 5.04221L10.7507 5.03498C10.75 5.02611 10.7485 5.00979 10.7458 4.98706C10.7405 4.9414 10.7304 4.87113 10.7125 4.7843C10.6761 4.60785 10.6103 4.37837 10.4954 4.15166C10.2773 3.72169 9.89616 3.30694 9.1107 3.24787C8.29588 3.18658 7.57362 3.53967 6.94326 4.26336C6.30124 5.00046 5.79275 6.08804 5.4777 7.3484C5.17505 8.55914 5.11153 9.94468 5.41622 11.0115C5.56662 11.5381 5.79602 11.9508 6.09353 12.2374C6.381 12.5143 6.7671 12.7085 7.31066 12.7524C8.38073 12.839 9.09542 12.2931 9.58742 11.6363C9.83464 11.3063 10.0106 10.9644 10.1249 10.7017C10.1815 10.5716 10.2216 10.4642 10.2468 10.3917C10.2594 10.3555 10.2682 10.3283 10.2734 10.3117L10.2786 10.2949C10.3919 9.89676 10.8064 9.66547 11.2047 9.77848C11.6032 9.89155 11.8346 10.3062 11.7215 10.7047L11.7207 10.7077C11.6218 11 11.7215 10.7047 11.7215 10.7047L11.7207 10.7077L11.7195 10.7118L11.716 10.7236C11.7132 10.733 11.7094 10.7454 11.7046 10.7607C11.6951 10.7913 11.6814 10.8332 11.6634 10.8849C11.6275 10.9882 11.5738 11.1312 11.5003 11.3002C11.3542 11.6359 11.124 12.087 10.788 12.5356C10.1134 13.4361 8.95321 14.3902 7.18974 14.2476C6.31653 14.1769 5.60089 13.8455 5.05289 13.3177C4.51495 12.7995 4.17516 12.1282 3.97389 11.4234C3.57523 10.0276 3.67844 8.36096 4.02248 6.98464C4.37401 5.57832 4.96626 4.24933 5.81217 3.27816Z" fill="#212121"/>
</svg>
