<svg width="20" height="20" viewBox="0 0 20 20" fill="none" xmlns="http://www.w3.org/2000/svg">
<path d="M12.1194 2.87868C10.9478 1.70711 9.0483 1.70711 7.87673 2.87868L2.87868 7.87673C1.70711 9.0483 1.70711 10.9478 2.87868 12.1194L7.87673 17.1174C9.0483 18.289 10.9478 18.289 12.1194 17.1174L17.1174 12.1194C18.289 10.9478 18.289 9.0483 17.1174 7.87673L12.1194 2.87868ZM8.58384 3.58579C9.36488 2.80474 10.6312 2.80474 11.4123 3.58579L16.4103 8.58384C17.1914 9.36488 17.1914 10.6312 16.4103 11.4123L11.4123 16.4103C10.6312 17.1914 9.36489 17.1914 8.58384 16.4103L3.58579 11.4123C2.80474 10.6312 2.80474 9.36489 3.58579 8.58384L8.58384 3.58579ZM7.85355 7.14645C7.65829 6.95118 7.34171 6.95118 7.14645 7.14645C6.95118 7.34171 6.95118 7.65829 7.14645 7.85355L9.29289 10L7.14645 12.1464C6.95118 12.3417 6.95118 12.6583 7.14645 12.8536C7.34171 13.0488 7.65829 13.0488 7.85355 12.8536L10 10.7071L12.1464 12.8536C12.3417 13.0488 12.6583 13.0488 12.8536 12.8536C13.0488 12.6583 13.0488 12.3417 12.8536 12.1464L10.7071 10L12.8536 7.85355C13.0488 7.65829 13.0488 7.34171 12.8536 7.14645C12.6583 6.95118 12.3417 6.95118 12.1464 7.14645L10 9.29289L7.85355 7.14645Z" fill="#212121"/>
</svg>
