<svg width="16" height="16" viewBox="0 0 16 16" fill="none" xmlns="http://www.w3.org/2000/svg">
<path d="M2 5.25C2 3.45507 3.45507 2 5.25 2H10.75C12.5449 2 14 3.45507 14 5.25V7.25C14 7.66421 13.6642 8 13.25 8C12.8358 8 12.5 7.66421 12.5 7.25V5.25C12.5 4.2835 11.7165 3.5 10.75 3.5H5.25C4.2835 3.5 3.5 4.2835 3.5 5.25V10.75C3.5 11.7165 4.2835 12.5 5.25 12.5H8.25C8.66421 12.5 9 12.8358 9 13.25C9 13.6642 8.66421 14 8.25 14H5.25C3.45507 14 2 12.5449 2 10.75V5.25ZM6 6.75C6 6.33579 6.33579 6 6.75 6H10.25C10.6642 6 11 6.33579 11 6.75C11 7.16421 10.6642 7.5 10.25 7.5H8.56067L12.7803 11.7197C13.0732 12.0126 13.0732 12.4874 12.7803 12.7803C12.4874 13.0732 12.0126 13.0732 11.7197 12.7803L7.5 8.56065V10.25C7.5 10.6642 7.16421 11 6.75 11C6.33579 11 6 10.6642 6 10.25V6.75Z" fill="#212121"/>
</svg>
