<svg width="24" height="24" viewBox="0 0 24 24" fill="none" xmlns="http://www.w3.org/2000/svg">
<path d="M14.9999 3.51091C14.9999 3.8324 15.2005 4.11721 15.4935 4.24949C17.3798 5.10099 18.8995 6.62076 19.751 8.50698C19.8833 8.8 20.1681 9.00063 20.4896 9.00063C21.0113 9.00063 21.3822 8.49336 21.1741 8.01497C20.1655 5.69664 18.3039 3.83504 15.9855 2.82646C15.5072 2.61834 14.9999 2.98921 14.9999 3.51091ZM8.01424 2.82646C8.49263 2.61834 8.99989 2.98921 8.99989 3.51091C8.99989 3.8324 8.79927 4.11721 8.50625 4.24949C6.62003 5.10099 5.10026 6.62076 4.24876 8.50698C4.11648 8.8 3.83167 9.00062 3.51018 9.00062C2.98848 9.00062 2.61761 8.49336 2.82573 8.01497C3.83431 5.69664 5.69591 3.83504 8.01424 2.82646ZM14.9999 20.4903C14.9999 20.1689 15.2005 19.884 15.4935 19.7518C17.3798 18.9003 18.8995 17.3805 19.751 15.4943C19.8833 15.2012 20.1681 15.0006 20.4896 15.0006C21.0113 15.0006 21.3822 15.5079 21.1741 15.9863C20.1655 18.3046 18.3039 20.1662 15.9855 21.1748C15.5072 21.3829 14.9999 21.012 14.9999 20.4903ZM4.24876 15.4943C4.11648 15.2012 3.83167 15.0006 3.51018 15.0006C2.98848 15.0006 2.61761 15.5079 2.82573 15.9863C3.8343 18.3046 5.69591 20.1662 8.01424 21.1748C8.49263 21.3829 8.99989 21.012 8.99989 20.4903C8.99989 20.1689 8.79927 19.884 8.50625 19.7518C6.62003 18.9003 5.10026 17.3805 4.24876 15.4943ZM11.9999 6.50066C11.8065 6.50066 11.6157 6.51062 11.4279 6.53C11.0158 6.57251 10.6474 6.27296 10.6049 5.86093C10.5623 5.4489 10.8619 5.08043 11.2739 5.03792C11.5128 5.01327 11.755 5.00066 11.9999 5.00066C15.3315 5.00066 18.1178 7.3273 18.826 10.4436C18.9178 10.8475 18.6647 11.2494 18.2608 11.3412C17.8569 11.433 17.4551 11.1799 17.3633 10.776C16.8069 8.32768 14.6159 6.50066 11.9999 6.50066ZM9.12095 6.40131C9.3532 6.74429 9.26343 7.2106 8.92045 7.44285C7.45832 8.43293 6.49993 10.105 6.49993 12.0007C6.49993 13.1429 6.84732 14.2018 7.44211 15.0801C7.67436 15.4231 7.5846 15.8894 7.24162 16.1217C6.89864 16.3539 6.43233 16.2642 6.20008 15.9212C5.44247 14.8024 4.99993 13.4521 4.99993 12.0007C4.99993 9.58642 6.22277 7.45803 8.07941 6.20081C8.42239 5.96857 8.8887 6.05833 9.12095 6.40131ZM18.2305 12.9056C18.6304 13.0133 18.8674 13.4249 18.7597 13.8248C17.957 16.8057 15.2358 19.0007 11.9999 19.0007C10.8284 19.0007 9.72204 18.7123 8.75009 18.202C8.38335 18.0094 8.24213 17.556 8.43468 17.1893C8.62723 16.8226 9.08062 16.6813 9.44736 16.8739C10.2094 17.274 11.0771 17.5007 11.9999 17.5007C14.5405 17.5007 16.6805 15.7775 17.3113 13.4348C17.419 13.0349 17.8305 12.7979 18.2305 12.9056ZM11.9999 8.00066C9.79079 8.00066 7.99993 9.79152 7.99993 12.0007C7.99993 14.2098 9.79079 16.0007 11.9999 16.0007C14.2091 16.0007 15.9999 14.2098 15.9999 12.0007C15.9999 9.79152 14.2091 8.00066 11.9999 8.00066Z" fill="#212121"/>
</svg>
