<svg width="16" height="16" viewBox="0 0 16 16" fill="none" xmlns="http://www.w3.org/2000/svg">
<path d="M11.25 2C11.9404 2 12.5 2.55964 12.5 3.25V6H12.7493C13.4397 6 13.9993 6.55964 13.9993 7.25C13.9993 7.94036 13.4397 8.5 12.7493 8.5H12.5V12.75C12.5 13.4404 11.9404 14 11.25 14C10.5596 14 10 13.4404 10 12.75V3.25C10 2.55964 10.5596 2 11.25 2Z" fill="#212121"/>
<path d="M3.2502 3C2.55984 3 2.0002 3.55964 2.0002 4.25C2.0002 4.94036 2.55984 5.5 3.2502 5.5H6.21836C6.16595 6.37193 6.03532 7.18413 5.73216 7.86905C5.33884 8.75766 4.62711 9.50324 3.0447 9.76697C2.36373 9.88047 1.90371 10.5245 2.0172 11.2055C2.1307 11.8864 2.77473 12.3465 3.45569 12.233C5.87328 11.83 7.28655 10.534 8.01823 8.88092C8.69891 7.3431 8.7502 5.57867 8.7502 4.25C8.7502 3.55964 8.19055 3 7.5002 3H3.2502Z" fill="#212121"/>
</svg>
