<svg width="24" height="24" viewBox="0 0 24 24" fill="none" xmlns="http://www.w3.org/2000/svg">
<path d="M8.2516 4C8.66581 4 9.0016 4.33579 9.0016 4.75V7.52317L10.8759 10.3383C10.9579 10.4614 11.0016 10.6061 11.0016 10.754V15.25C11.0016 15.6642 10.6658 16 10.2516 16H8.99791L8.99885 19.2536C8.99885 19.6678 8.66306 20.0036 8.24885 20.0036C7.86915 20.0036 7.55535 19.7214 7.50569 19.3553L7.49885 19.2536L7.49791 16L5.50291 15.999L5.5036 19.2566C5.5036 19.6708 5.16781 20.0066 4.7536 20.0066C4.3739 20.0066 4.06011 19.7244 4.01045 19.3584L4.0036 19.2566L4.00291 15.999L2.75391 16C2.33969 16 2.00391 15.6642 2.00391 15.25V10.754C2.00391 10.6061 2.04764 10.4614 2.12962 10.3383L4.00391 7.52317V4.75C4.00391 4.33579 4.33969 4 4.75391 4H8.2516ZM15.2562 4.00139H19.7516C20.1313 4.00139 20.4451 4.28355 20.4948 4.64962L20.5016 4.75139L20.5009 8H21.2516C21.6658 8 22.0016 8.33579 22.0016 8.75V13.246C22.0016 13.3939 21.9579 13.5386 21.8759 13.6617L20.0016 16.4768V19.25C20.0016 19.6642 19.6658 20 19.2516 20H15.7539C15.3397 20 15.0039 19.6642 15.0039 19.25V16.4768L13.1296 13.6617C13.0476 13.5386 13.0039 13.3939 13.0039 13.246V8.75C13.0039 8.33579 13.3397 8 13.7539 8H14.5059L14.5062 4.75139C14.5062 4.3717 14.7883 4.0579 15.1544 4.00824L15.2562 4.00139H19.7516H15.2562ZM19.0016 5.50139H16.0062L16.0059 8H19.0009L19.0016 5.50139Z" fill="#212121"/>
</svg>
