<svg width="20" height="20" viewBox="0 0 20 20" fill="none" xmlns="http://www.w3.org/2000/svg">
<path d="M17.4992 9.88894C17.0267 9.58101 16.504 9.34373 15.9461 9.19208C15.5515 6.26044 13.0397 4 10 4C8.47869 4 7.08928 4.56592 6.03111 5.5H7.25C7.66421 5.5 8 5.83579 8 6.25C8 6.66421 7.66421 7 7.25 7H4.25C3.83579 7 3.5 6.66421 3.5 6.25V3.25C3.5 2.83579 3.83579 2.5 4.25 2.5C4.66421 2.5 5 2.83579 5 3.25V4.40987C6.32643 3.22274 8.07867 2.5 10 2.5C14.1051 2.5 17.4398 5.79801 17.4992 9.88894ZM2.5 10C2.5 14.1051 5.79801 17.4398 9.88894 17.4992C9.58101 17.0267 9.34373 16.504 9.19208 15.9461C6.26044 15.5515 4 13.0397 4 10C4 9.92537 4.00136 9.85109 4.00405 9.77718C4.01913 9.36324 3.69579 9.01546 3.28185 9.00038C2.86791 8.9853 2.52012 9.30864 2.50505 9.72258C2.50169 9.81467 2.5 9.90715 2.5 10ZM10 14.5C10 12.0147 12.0147 10 14.5 10C16.9853 10 19 12.0147 19 14.5C19 16.9853 16.9853 19 14.5 19C12.0147 19 10 16.9853 10 14.5ZM14.5 17C14.7761 17 15 16.7761 15 16.5V14.5C15 14.2239 14.7761 14 14.5 14C14.2239 14 14 14.2239 14 14.5V16.5C14 16.7761 14.2239 17 14.5 17ZM14.5 11.875C14.1548 11.875 13.875 12.1548 13.875 12.5C13.875 12.8452 14.1548 13.125 14.5 13.125C14.8452 13.125 15.125 12.8452 15.125 12.5C15.125 12.1548 14.8452 11.875 14.5 11.875Z" fill="#212121"/>
</svg>
