<svg width="20" height="20" viewBox="0 0 20 20" fill="none" xmlns="http://www.w3.org/2000/svg">
<path d="M10 3C6.13401 3 3 6.13401 3 10C3 13.866 6.13401 17 10 17C13.866 17 17 13.866 17 10C17 6.13401 13.866 3 10 3ZM2 10C2 5.58172 5.58172 2 10 2C14.4183 2 18 5.58172 18 10C18 14.4183 14.4183 18 10 18C5.58172 18 2 14.4183 2 10ZM11.3309 9.99915C11.5306 9.33406 12.4725 9.33434 12.6719 9.99954L12.8497 10.593C12.9301 10.8614 13.1401 11.0714 13.4085 11.1519L14.0023 11.33C14.6675 11.5295 14.6675 12.4714 14.0023 12.671L13.4085 12.8491C13.1401 12.9296 12.9302 13.1396 12.8497 13.4081L12.6719 14.0013C12.4726 14.6666 11.5305 14.6668 11.3309 14.0016L11.1525 13.4068C11.0719 13.1383 10.8618 12.9283 10.5932 12.848L10.0013 12.6709C9.33576 12.4717 9.33542 11.5294 10.0008 11.3298L10.5938 11.1518C10.862 11.0714 11.0719 10.8616 11.1524 10.5934L11.3309 9.99915ZM12.0011 11.1594C11.8223 11.525 11.5265 11.821 11.161 12C11.5266 12.1791 11.8226 12.4753 12.0014 12.8411C12.1804 12.4755 12.4765 12.1794 12.8422 12.0005C12.4763 11.8215 12.1801 11.5253 12.0011 11.1594ZM8.82478 5.58288C8.54943 4.80544 7.44985 4.80579 7.175 5.58341L6.91873 6.30847C6.81807 6.59326 6.59408 6.81729 6.30931 6.918L5.58326 7.17477C4.80553 7.44982 4.8056 8.54971 5.58335 8.82467L6.30917 9.08126C6.59401 9.18196 6.81806 9.40604 6.91872 9.69091L7.17498 10.4161C7.44979 11.1938 8.5495 11.1942 8.82481 10.4166L9.08203 9.6902C9.18276 9.40573 9.40656 9.18196 9.69105 9.08128L10.4164 8.82457C11.1938 8.54945 11.1939 7.45008 10.4165 7.17487L9.69091 6.91798C9.4065 6.81729 9.18275 6.59357 9.08202 6.30917L8.82478 5.58288ZM7.86157 6.64172L8.00011 6.24975L8.1394 6.64302C8.34085 7.21182 8.78835 7.65926 9.35717 7.86064L9.74989 7.99968L9.35743 8.13857C8.78845 8.33994 8.34083 8.78748 8.13938 9.35642L8.00011 9.74974L7.86159 9.35773C7.66027 8.78801 7.21217 8.33984 6.64248 8.13844L6.24996 7.99968L6.64273 7.86077C7.21227 7.65935 7.66025 7.21129 7.86157 6.64172Z" fill="#212121"/>
</svg>
