<svg width="28" height="28" viewBox="0 0 28 28" fill="none" xmlns="http://www.w3.org/2000/svg">
<path d="M3.5 14C3.5 8.20101 8.20101 3.5 14 3.5C19.799 3.5 24.5 8.20101 24.5 14C24.5 19.799 19.799 24.5 14 24.5C8.20101 24.5 3.5 19.799 3.5 14ZM14 2C7.37258 2 2 7.37258 2 14C2 20.6274 7.37258 26 14 26C20.6274 26 26 20.6274 26 14C26 7.37258 20.6274 2 14 2ZM15.4994 8.25C15.4994 7.87423 15.2214 7.55647 14.8489 7.50663C14.4771 7.45687 14.1258 7.68949 14.0263 8.05101L14.0222 8.06483C14.0181 8.07865 14.0109 8.1019 14.0003 8.13356C13.9792 8.19695 13.9448 8.29368 13.895 8.41574C13.7951 8.66052 13.6345 9.00321 13.3962 9.38172C12.9187 10.1404 12.1446 11.0195 10.9396 11.5672C10.5626 11.7386 10.3958 12.1833 10.5672 12.5604C10.7386 12.9374 11.1833 13.1042 11.5604 12.9328C12.6237 12.4494 13.4173 11.7678 13.9994 11.087V19.25C13.9994 19.6642 14.3352 20 14.7494 20C15.1637 20 15.4994 19.6642 15.4994 19.25V8.25ZM14.0263 8.05101C14.0265 8.05043 14.0263 8.05119 14.0263 8.05101Z" fill="#212121"/>
</svg>
