<svg width="16" height="16" viewBox="0 0 16 16" fill="none" xmlns="http://www.w3.org/2000/svg">
<path d="M8.99998 2.50001C8.99998 2.29898 8.87957 2.11749 8.69435 2.03934C8.50912 1.96119 8.2951 2.00157 8.15109 2.14185L5.22438 4.99273H3.5C2.67157 4.99273 2 5.66431 2 6.49273V9.48172C2 10.3101 2.67157 10.9817 3.5 10.9817H5.22314L8.14957 13.8567C8.29326 13.9978 8.50762 14.039 8.69337 13.9611C8.87911 13.8832 8.99998 13.7014 8.99998 13.5V2.50001ZM10.1469 6.14646C10.3422 5.9512 10.6588 5.9512 10.854 6.14646L12.0005 7.29291L13.1469 6.14646C13.3422 5.9512 13.6588 5.9512 13.854 6.14646C14.0493 6.34172 14.0493 6.65831 13.854 6.85357L12.7076 8.00001L13.854 9.14646C14.0493 9.34172 14.0493 9.65831 13.854 9.85357C13.6588 10.0488 13.3422 10.0488 13.1469 9.85357L12.0005 8.70712L10.854 9.85357C10.6588 10.0488 10.3422 10.0488 10.1469 9.85357C9.95167 9.65831 9.95167 9.34172 10.1469 9.14646L11.2934 8.00001L10.1469 6.85357C9.95167 6.65831 9.95167 6.34172 10.1469 6.14646Z" fill="#212121"/>
</svg>
