<svg width="28" height="28" viewBox="0 0 28 28" fill="none" xmlns="http://www.w3.org/2000/svg">
<path d="M14.374 2.33403C14.1907 2.05904 13.849 1.93647 13.5327 2.03224C13.2163 2.12801 13 2.41956 13 2.75006V8.25006C13 8.66427 13.3358 9.00006 13.75 9.00006C14.1642 9.00006 14.5 8.66427 14.5 8.25006V5.22714L15.8125 7.19593C16.0122 7.49539 16.3964 7.61082 16.728 7.47097L19.7948 6.1777L18.5646 8.94545C18.4615 9.17745 18.4828 9.44587 18.6211 9.65874C18.7595 9.87162 18.9961 10.0001 19.25 10.0001H22.6487L21.1738 11.7699C20.9377 12.0533 20.9427 12.4663 21.1856 12.7439L23.5972 15.5001H20.7522C20.3379 15.5001 20.0022 15.8358 20.0022 16.2501C20.0022 16.6643 20.3379 17.0001 20.7522 17.0001H25.25C25.5443 17.0001 25.8114 16.828 25.933 16.56C26.0546 16.292 26.0082 15.9776 25.8144 15.7562L22.7362 12.2382L24.8262 9.7302C25.0125 9.50663 25.0526 9.19548 24.9292 8.93194C24.8058 8.6684 24.541 8.50006 24.25 8.50006H20.4041L21.9354 5.05466C22.0603 4.77348 22.0009 4.44448 21.7854 4.22483C21.5699 4.00518 21.2421 3.93943 20.9586 4.05899L16.7166 5.84786L14.374 2.33403ZM14.5 20.0001C15.0523 20.0001 15.5 19.5523 15.5 19.0001C15.5 18.4478 15.0523 18.0001 14.5 18.0001C13.9477 18.0001 13.5 18.4478 13.5 19.0001C13.5 19.5523 13.9477 20.0001 14.5 20.0001ZM7 19.0001C7 19.5523 6.55228 20.0001 6 20.0001C5.44772 20.0001 5 19.5523 5 19.0001C5 18.4478 5.44772 18.0001 6 18.0001C6.55228 18.0001 7 18.4478 7 19.0001ZM8.75 19.0001C8.33579 19.0001 8 19.3358 8 19.7501C8 20.1643 8.33579 20.5001 8.75 20.5001H11.75C12.1642 20.5001 12.5 20.1643 12.5 19.7501C12.5 19.3358 12.1642 19.0001 11.75 19.0001H8.75ZM2.75 15.5001H3.16846C2.46172 15.9977 2 16.82 2 17.7501V22.2501C2 22.2927 2.00355 22.3344 2.01037 22.3751C2.00355 22.4157 2 22.4575 2 22.5001V24.2501C2 25.2166 2.7835 26.0001 3.75 26.0001H5.25C6.2165 26.0001 7 25.2166 7 24.2501V23.0001H13.5V24.2501C13.5 25.2166 14.2835 26.0001 15.25 26.0001H16.75C17.7165 26.0001 18.5 25.2166 18.5 24.2501V17.7501C18.5 16.82 18.0383 15.9977 17.3315 15.5001H17.75C18.1642 15.5001 18.5 15.1643 18.5 14.7501C18.5 14.3358 18.1642 14.0001 17.75 14.0001H16.5C16.4506 14.0001 16.4024 14.0048 16.3556 14.0139L16.0364 12.2581C15.7986 10.9505 14.6598 10 13.3307 10H7.16909C5.84004 10 4.70117 10.9505 4.46344 12.2581L4.14676 14.0001H2.75C2.33579 14.0001 2 14.3358 2 14.7501C2 15.1643 2.33579 15.5001 2.75 15.5001ZM3.5 17.7501C3.5 17.0597 4.05964 16.5001 4.75 16.5001H15.75C16.4404 16.5001 17 17.0597 17 17.7501V21.5001H3.5V17.7501ZM14.5606 12.5264L15.0103 15.0001H5.48954L5.93925 12.5264C6.04731 11.9321 6.56498 11.5 7.16909 11.5H13.3307C13.9348 11.5 14.4525 11.9321 14.5606 12.5264ZM15 24.2501V23.0001H17V24.2501C17 24.3881 16.8881 24.5001 16.75 24.5001H15.25C15.1119 24.5001 15 24.3881 15 24.2501ZM5.5 23.0001V24.2501C5.5 24.3881 5.38807 24.5001 5.25 24.5001H3.75C3.61193 24.5001 3.5 24.3881 3.5 24.2501V23.0001H5.5Z" fill="#212121"/>
</svg>
