<svg width="16" height="16" viewBox="0 0 16 16" fill="none" xmlns="http://www.w3.org/2000/svg">
<path d="M1 5.5C1 4.11929 2.11929 3 3.5 3H12.5C13.8807 3 15 4.11929 15 5.5V9.5C15 10.8807 13.8807 12 12.5 12H3.5C2.11929 12 1 10.8807 1 9.5V5.5ZM5.14645 6.14645L4.5 6.79289L3.85355 6.14645C3.65829 5.95118 3.34171 5.95118 3.14645 6.14645C2.95118 6.34171 2.95118 6.65829 3.14645 6.85355L3.79289 7.5L3.14645 8.14645C2.95118 8.34171 2.95118 8.65829 3.14645 8.85355C3.34171 9.04882 3.65829 9.04882 3.85355 8.85355L4.5 8.20711L5.14645 8.85355C5.34171 9.04882 5.65829 9.04882 5.85355 8.85355C6.04882 8.65829 6.04882 8.34171 5.85355 8.14645L5.20711 7.5L5.85355 6.85355C6.04882 6.65829 6.04882 6.34171 5.85355 6.14645C5.65829 5.95118 5.34171 5.95118 5.14645 6.14645ZM9.14645 6.14645L8.5 6.79289L7.85355 6.14645C7.65829 5.95118 7.34171 5.95118 7.14645 6.14645C6.95118 6.34171 6.95118 6.65829 7.14645 6.85355L7.79289 7.5L7.14645 8.14645C6.95118 8.34171 6.95118 8.65829 7.14645 8.85355C7.34171 9.04882 7.65829 9.04882 7.85355 8.85355L8.5 8.20711L9.14645 8.85355C9.34171 9.04882 9.65829 9.04882 9.85355 8.85355C10.0488 8.65829 10.0488 8.34171 9.85355 8.14645L9.20711 7.5L9.85355 6.85355C10.0488 6.65829 10.0488 6.34171 9.85355 6.14645C9.65829 5.95118 9.34171 5.95118 9.14645 6.14645ZM11 8.5C11 8.77614 11.2239 9 11.5 9H12.5C12.7761 9 13 8.77614 13 8.5C13 8.22386 12.7761 8 12.5 8H11.5C11.2239 8 11 8.22386 11 8.5Z" fill="#212121"/>
</svg>
