<svg width="20" height="20" viewBox="0 0 20 20" fill="none" xmlns="http://www.w3.org/2000/svg">
<path d="M18.0065 4.03302C18.0049 2.93471 17.1179 2.04321 16.0196 2.03601L11.1292 2.00395C10.5951 2.00045 10.0818 2.21071 9.7037 2.58789L3.02216 9.25243C2.23941 10.0332 2.2386 11.3009 3.02036 12.0827L7.96875 17.0311C8.7498 17.8121 10.0161 17.8121 10.7972 17.0311L17.428 10.4002C17.8038 10.0244 18.0146 9.51453 18.0138 8.98308L18.0065 4.03302ZM14 6.99985C13.4477 6.99985 13 6.55213 13 5.99985C13 5.44756 13.4477 4.99985 14 4.99985C14.5523 4.99985 15 5.44756 15 5.99985C15 6.55213 14.5523 6.99985 14 6.99985Z" fill="#212121"/>
</svg>
