<svg width="28" height="28" viewBox="0 0 28 28" fill="none" xmlns="http://www.w3.org/2000/svg">
<path d="M12.9871 3.9519C13.5966 3.34241 14.4232 3 15.2852 3H22.2496C23.7684 3 24.9996 4.23122 24.9996 5.75V12.7145C24.9996 13.5764 24.6572 14.4031 24.0477 15.0126L14.7977 24.2626C13.5285 25.5318 11.4707 25.5318 10.2015 24.2626L3.73706 17.7981C2.46785 16.5289 2.46786 14.4711 3.73706 13.2019L12.9871 3.9519ZM19.5 10C20.3284 10 21 9.32843 21 8.5C21 7.67157 20.3284 7 19.5 7C18.6716 7 18 7.67157 18 8.5C18 9.32843 18.6716 10 19.5 10Z" fill="#212121"/>
</svg>
