<svg width="24" height="24" viewBox="0 0 24 24" fill="none" xmlns="http://www.w3.org/2000/svg">
<path d="M11.9515 5.01619C12.0984 4.6289 11.9035 4.19586 11.5162 4.04895C11.1289 3.90205 10.6959 4.09692 10.549 4.48421L5.04895 18.9842C4.90205 19.3715 5.09692 19.8045 5.48421 19.9515C5.8715 20.0984 6.30455 19.9035 6.45145 19.5162L9.18367 12.3131L15.6858 19.7441C15.9585 20.0558 16.4324 20.0874 16.7441 19.8146C17.0558 19.5419 17.0874 19.068 16.8147 18.7563L10.3844 11.4075L19.659 5.37903C20.0063 5.15329 20.1048 4.68875 19.8791 4.34145C19.6533 3.99416 19.1888 3.89562 18.8415 4.12136L10.1473 9.77257L11.9515 5.01619Z" fill="#212121"/>
</svg>
