<svg width="20" height="20" viewBox="0 0 20 20" fill="none" xmlns="http://www.w3.org/2000/svg">
<path d="M5.99776 2C6.30866 2.00001 6.58732 2.19184 6.69831 2.48226L8.96783 8.42079C8.98734 8.46066 9.00342 8.50252 9.01568 8.54598L9.05348 8.64489L8.26053 10.7719L7.77447 9.5H4.22038L3.44783 11.521C3.29993 11.9079 2.86638 12.1016 2.47947 11.9537C2.09257 11.8058 1.89881 11.3723 2.04671 10.9854L5.29717 2.4822C5.40818 2.19179 5.68686 1.99999 5.99776 2ZM4.79377 8H7.20121L5.99764 4.85069L4.79377 8ZM12.7025 5.48972C12.5931 5.19626 12.3129 5.00166 11.9997 5.00165C11.6865 5.00163 11.4063 5.19621 11.2969 5.48966L7.19217 16.5L6.75435 16.5C6.34014 16.5 6.00434 16.8358 6.00433 17.25C6.00432 17.6642 6.3401 18 6.75432 18L9.25432 18C9.66853 18.0001 10.0043 17.6643 10.0043 17.2501C10.0043 16.8358 9.66856 16.5001 9.25435 16.5L8.793 16.5L9.5399 14.4966H14.4586L15.2053 16.5H14.7497C14.3355 16.5 13.9997 16.8358 13.9997 17.25C13.9997 17.6642 14.3355 18 14.7497 18L17.2494 18C17.6637 18 17.9994 17.6642 17.9994 17.25C17.9994 16.8358 17.6637 16.5 17.2494 16.5H16.8061L12.7025 5.48972ZM13.8996 12.9966H10.0991L11.9996 7.8989L13.8996 12.9966Z" fill="#212121"/>
</svg>
