<svg width="24" height="24" viewBox="0 0 24 24" fill="none" xmlns="http://www.w3.org/2000/svg">
<path d="M7.00023 2C7.31414 2.00001 7.59483 2.19551 7.70367 2.48994L10.6554 10.4745C10.6597 10.4853 10.6637 10.4962 10.6675 10.5072L10.89 11.109L10.0619 13.195L9.43564 11.5008H4.56398L3.45121 14.5101C3.30755 14.8986 2.87615 15.0971 2.48764 14.9534C2.09914 14.8098 1.90066 14.3784 2.04432 13.9899L3.33217 10.5071C3.33595 10.4961 3.33997 10.4852 3.34424 10.4744L6.29676 2.48988C6.40563 2.19546 6.68633 1.99999 7.00023 2ZM5.11865 10.0008H8.88111L7.00012 4.91271L5.11865 10.0008Z" fill="#212121"/>
<path d="M13.8061 6.47329C13.9195 6.18746 14.196 5.99986 14.5035 6C14.811 6.00014 15.0873 6.18799 15.2005 6.47391L20.7554 20.5042L21.2494 20.5042C21.6636 20.5042 21.9994 20.84 21.9994 21.2542C21.9993 21.6684 21.6635 22.0042 21.2493 22.0042L20.2592 22.0042C20.2556 22.0042 20.2519 22.0043 20.2482 22.0043C20.243 22.0043 20.2377 22.0043 20.2324 22.0042L18.7502 22.0041C18.336 22.0041 18.0002 21.6683 18.0002 21.2541C18.0002 20.8399 18.336 20.5041 18.7502 20.5041L19.1421 20.5041L17.9527 17.5H11.0428L9.85025 20.5042L10.2494 20.5042C10.6636 20.5042 10.9994 20.84 10.9994 21.2542C10.9993 21.6684 10.6635 22.0042 10.2493 22.0042L8.75942 22.0042C8.75614 22.0042 8.75286 22.0043 8.74958 22.0043C8.74352 22.0043 8.73746 22.0043 8.73139 22.0042L7.75017 22.0041C7.33595 22.0041 7.00017 21.6683 7.00018 21.2541C7.00019 20.8399 7.33599 20.5041 7.7502 20.5041L8.23641 20.5041L13.8061 6.47329ZM17.3588 16L14.5022 8.78508L11.6382 16H17.3588Z" fill="#212121"/>
</svg>
