<svg width="48" height="48" viewBox="0 0 48 48" fill="none" xmlns="http://www.w3.org/2000/svg">
<path d="M43.75 25.75C44.4404 25.75 45 26.3096 45 27C45 33.2053 40.29 38.3104 34.25 38.9355V42.75C34.25 43.4404 33.6904 44 33 44C32.3096 44 31.75 43.4404 31.75 42.75V38.9355C25.71 38.3104 21 33.2053 21 27C21 26.3096 21.5596 25.75 22.25 25.75C22.9404 25.75 23.5 26.3096 23.5 27C23.5 32.2467 27.7533 36.5 33 36.5C38.2467 36.5 42.5 32.2467 42.5 27C42.5 26.3096 43.0596 25.75 43.75 25.75ZM20 4C24.1947 4 28.0119 5.61475 30.8652 8.25586C29.939 8.48121 29.0685 8.84876 28.2793 9.33594C25.9931 7.55844 23.1201 6.5 20 6.5C12.5442 6.5 6.5 12.5442 6.5 20C6.5 22.2379 7.04379 24.345 8.00488 26.2002C8.1449 26.4705 8.18113 26.7828 8.10742 27.0781L6.50293 33.498L12.9238 31.8926C13.2193 31.8187 13.5323 31.8551 13.8027 31.9951C15.6578 32.9557 17.7635 33.5 20 33.5C20.1986 33.5 20.3962 33.4938 20.5928 33.4854C21.0348 34.3292 21.56 35.122 22.1582 35.8535C21.4523 35.9487 20.732 36 20 36C17.5241 36 15.1776 35.4356 13.083 34.4297L7.11035 35.9248C5.27974 36.3821 3.61984 34.7232 4.07715 32.8926L5.56934 26.9199C4.56283 24.8244 4 22.4762 4 20C4 11.1634 11.1634 4 20 4ZM33 10C36.866 10 40 13.134 40 17V27C40 30.866 36.866 34 33 34C29.134 34 26 30.866 26 27V17C26 13.134 29.134 10 33 10ZM33 12.5C30.5147 12.5 28.5 14.5147 28.5 17V27C28.5 29.4853 30.5147 31.5 33 31.5C35.4853 31.5 37.5 29.4853 37.5 27V17C37.5 14.5147 35.4853 12.5 33 12.5Z" fill="#212121"/>
</svg>
