<svg width="32" height="32" viewBox="0 0 32 32" fill="none" xmlns="http://www.w3.org/2000/svg">
<path d="M7.5 3C5.01472 3 3 5.01472 3 7.5V9H29V7.5C29 5.01472 26.9853 3 24.5 3H7.5ZM29 11H3V24.5C3 26.9853 5.01472 29 7.5 29H14.126C14.0438 28.6804 14 28.3453 14 28V19C14 16.7909 15.7909 15 18 15H28C28.3453 15 28.6804 15.0438 29 15.126V11ZM18 16.5C16.6193 16.5 15.5 17.6193 15.5 19V28C15.5 29.3807 16.6193 30.5 18 30.5H28C29.3807 30.5 30.5 29.3807 30.5 28V19C30.5 17.6193 29.3807 16.5 28 16.5H18ZM18.75 22C18.3358 22 18 21.6642 18 21.25C18 20.8358 18.3358 20.5 18.75 20.5H27.25C27.6642 20.5 28 20.8358 28 21.25C28 21.6642 27.6642 22 27.25 22H18.75ZM18 25.75C18 25.3358 18.3358 25 18.75 25H27.25C27.6642 25 28 25.3358 28 25.75C28 26.1642 27.6642 26.5 27.25 26.5H18.75C18.3358 26.5 18 26.1642 18 25.75Z" fill="#212121"/>
</svg>
