<svg width="16" height="16" viewBox="0 0 16 16" fill="none" xmlns="http://www.w3.org/2000/svg">
<path d="M11.5 6C13.9853 6 16 8.01472 16 10.5C16 12.9853 13.9853 15 11.5 15C9.01472 15 7 12.9853 7 10.5C7 8.01472 9.01472 6 11.5 6ZM10.7568 8.57227C10.4236 8.37276 10 8.61256 10 9.00098V11.9951C10.0001 12.3835 10.4236 12.6233 10.7568 12.4238L13.2578 10.9268C13.5819 10.7327 13.5818 10.2635 13.2578 10.0693L10.7568 8.57227ZM6.02344 11C6.05439 11.3435 6.11682 11.6777 6.20801 12H2.5C2.22386 12 2 11.7761 2 11.5C2 11.2239 2.22386 11 2.5 11H6.02344ZM7.25781 7C7.00425 7.30698 6.78445 7.64238 6.60156 8H2.5C2.22386 8 2 7.77614 2 7.5C2 7.22386 2.22386 7 2.5 7H7.25781ZM13.5 3C13.7761 3 14 3.22386 14 3.5C14 3.77614 13.7761 4 13.5 4H2.5C2.22386 4 2 3.77614 2 3.5C2 3.22386 2.22386 3 2.5 3H13.5Z" fill="#212121"/>
</svg>
