<svg width="20" height="20" viewBox="0 0 20 20" fill="none" xmlns="http://www.w3.org/2000/svg">
<path d="M16.5033 4.00085C16.7488 4.00085 16.953 4.17773 16.9953 4.41098L17.0033 4.50085V11.5274L16.2929 10.1063C16.2117 9.94391 16.114 9.79942 16.0033 9.6728V4.50085C16.0033 4.22471 16.2272 4.00085 16.5033 4.00085ZM10.003 15.5334L11 13.5371V8.49757L10.9919 8.40769C10.9496 8.17444 10.7455 7.99757 10.5 7.99757C10.2239 7.99757 10 8.22143 10 8.49757V15.5L10.003 15.5334ZM13 9.67629C13.2726 9.36282 13.6243 9.15831 14 9.06279V6.50214L13.9919 6.41226C13.9496 6.17901 13.7455 6.00214 13.5 6.00214C13.2239 6.00214 13 6.22599 13 6.50214V9.67629ZM7.50335 9.99978C7.74881 9.99978 7.95296 10.1767 7.99529 10.4099L8.00335 10.4998V15.5C8.00335 15.7762 7.77949 16 7.50335 16C7.25789 16 7.05374 15.8232 7.0114 15.5899L7.00335 15.5V10.4998C7.00335 10.2236 7.22721 9.99978 7.50335 9.99978ZM4.5 12C4.74546 12 4.94961 12.1769 4.99194 12.4102L5 12.5V15.5C5 15.7762 4.77614 16 4.5 16C4.25454 16 4.05039 15.8232 4.00806 15.5899L4 15.5V12.5C4 12.2239 4.22386 12 4.5 12ZM13.6029 10.5536L10.1068 17.552C9.77438 18.2174 10.2583 19 11.0022 19H17.9978C18.7419 19 19.2258 18.2171 18.893 17.5517L15.3935 10.5532C15.0246 9.81544 13.9716 9.81564 13.6029 10.5536ZM14.9983 12.4951V15.4974C14.9983 15.7738 14.7743 15.9978 14.4979 15.9978C14.2215 15.9978 13.9975 15.7738 13.9975 15.4974V12.4951C13.9975 12.2187 14.2215 11.9947 14.4979 11.9947C14.7743 11.9947 14.9983 12.2187 14.9983 12.4951ZM14.4979 17.9993C14.2215 17.9993 13.9975 17.7753 13.9975 17.499C13.9975 17.2226 14.2215 16.9986 14.4979 16.9986C14.7743 16.9986 14.9983 17.2226 14.9983 17.499C14.9983 17.7753 14.7743 17.9993 14.4979 17.9993Z" fill="#212121"/>
</svg>
