<svg width="20" height="20" viewBox="0 0 20 20" fill="none" xmlns="http://www.w3.org/2000/svg">
<path d="M16.5033 4C16.7488 4 16.953 4.17688 16.9953 4.41012L17.0033 4.5V11.5265L16.2929 10.1054C16.2117 9.94306 16.114 9.79857 16.0033 9.67195V4.5C16.0033 4.22386 16.2272 4 16.5033 4ZM10.003 15.5326L11 13.5363V8.49671L10.9919 8.40684C10.9496 8.17359 10.7455 7.99671 10.5 7.99671C10.2239 7.99671 10 8.22057 10 8.49671V15.4992L10.003 15.5326ZM13 9.67543C13.2726 9.36196 13.6243 9.15746 14 9.06194V6.50128L13.9919 6.41141C13.9496 6.17816 13.7455 6.00128 13.5 6.00128C13.2239 6.00128 13 6.22514 13 6.50128V9.67543ZM7.50335 9.99892C7.74881 9.99892 7.95296 10.1758 7.99529 10.409L8.00335 10.4989V15.4992C8.00335 15.7753 7.77949 15.9992 7.50335 15.9992C7.25789 15.9992 7.05374 15.8223 7.0114 15.5891L7.00335 15.4992V10.4989C7.00335 10.2228 7.22721 9.99892 7.50335 9.99892ZM4.5 11.9992C4.74546 11.9992 4.94961 12.1761 4.99194 12.4093L5 12.4992V15.4992C5 15.7753 4.77614 15.9992 4.5 15.9992C4.25454 15.9992 4.05039 15.8223 4.00806 15.5891L4 15.4992V12.4992C4 12.2231 4.22386 11.9992 4.5 11.9992ZM13.6029 10.5527L10.1068 17.5512C9.77438 18.2166 10.2583 18.9991 11.0022 18.9991H17.9978C18.7419 18.9991 19.2258 18.2162 18.893 17.5508L15.3935 10.5524C15.0246 9.81458 13.9716 9.81478 13.6029 10.5527ZM14.9983 12.4942V15.4966C14.9983 15.7729 14.7743 15.9969 14.4979 15.9969C14.2215 15.9969 13.9975 15.7729 13.9975 15.4966V12.4942C13.9975 12.2179 14.2215 11.9938 14.4979 11.9938C14.7743 11.9938 14.9983 12.2179 14.9983 12.4942ZM14.4979 17.9985C14.2215 17.9985 13.9975 17.7745 13.9975 17.4981C13.9975 17.2217 14.2215 16.9977 14.4979 16.9977C14.7743 16.9977 14.9983 17.2217 14.9983 17.4981C14.9983 17.7745 14.7743 17.9985 14.4979 17.9985Z" fill="#212121"/>
</svg>
