<svg width="48" height="48" viewBox="0 0 48 48" fill="none" xmlns="http://www.w3.org/2000/svg">
<path d="M6 12.25C6 8.79822 8.79822 6 12.25 6H35.75C39.2018 6 42 8.79822 42 12.25V14H6V12.25ZM6 16.5V35.75C6 39.2018 8.79822 42 12.25 42H26V33C26 30.5603 27.7473 28.5287 30.0588 28.0884C30.5056 24.6531 33.4429 22 37 22C38.9587 22 40.7295 22.8045 42 24.101V16.5H6ZM32 30H31C29.3431 30 28 31.3431 28 33V43C28 44.6569 29.3431 46 31 46H43C44.6569 46 46 44.6569 46 43V33C46 31.3431 44.6569 30 43 30H42V29C42 26.2386 39.7614 24 37 24C34.2386 24 32 26.2386 32 29V30ZM34.5 29C34.5 27.6193 35.6193 26.5 37 26.5C38.3807 26.5 39.5 27.6193 39.5 29V30H34.5V29ZM40 38C40 39.6569 38.6569 41 37 41C35.3431 41 34 39.6569 34 38C34 36.3431 35.3431 35 37 35C38.6569 35 40 36.3431 40 38Z" fill="#212121"/>
</svg>
