<?xml version="1.0" encoding="UTF-8"?>
<svg width="24px" height="24px" viewBox="0 0 24 24" version="1.1" xmlns="http://www.w3.org/2000/svg" xmlns:xlink="http://www.w3.org/1999/xlink">
    <!-- Generator: Sketch 59.1 (86144) - https://sketch.com -->
    <title>ic_lightbulb_24_regular</title>
    <desc>Created with Sketch.</desc>
    <g id="ðŸ”-Product-Icons" stroke="none" stroke-width="1" fill="none" fill-rule="evenodd">
        <g id="ic_lightbulb_24_regular" fill="#212121">
            <path d="M12.000008,2.00139734 C16.0040628,2.00139734 19.249992,5.24733208 19.249992,9.25139734 C19.249992,11.3474567 18.3493333,13.2711054 16.5869535,14.9933011 C16.484356,15.0935669 16.4126628,15.2211427 16.380373,15.3609016 L16.380373,15.3609016 L15.2492957,20.256497 C15.0134911,21.2771208 14.1045554,22 13.0570456,22 L13.0570456,22 L10.9432689,22 C9.89554297,22 8.98647988,21.2768288 8.75088874,20.2559339 L8.75088874,20.2559339 L7.62132399,15.3611533 C7.58904306,15.2212595 7.51728321,15.0935695 7.41456824,14.9932517 C5.65119176,13.2710293 4.750008,11.3474064 4.750008,9.25139734 L4.750008,9.25139734 L4.75388322,9.01208292 C4.88014853,5.11879041 8.07602134,2.00139734 12.000008,2.00139734 Z M14.115008,18.4993973 L9.884008,18.4993973 L10.2124755,19.9186446 C10.2831529,20.2249131 10.5356676,20.4507962 10.8400612,20.4929101 L10.9432689,20.5 L13.0570456,20.5 C13.4062155,20.5 13.7091941,20.2590403 13.7877956,19.9188323 L13.7877956,19.9188323 L14.115008,18.4993973 Z M12.000008,3.50139734 C8.82436711,3.50139734 6.250008,6.07575645 6.250008,9.25139734 L6.250008,9.25139734 L6.25672343,9.52840679 C6.33286953,11.0917695 7.05722352,12.5475342 8.46263227,13.9201432 C8.77078144,14.2211008 8.98606823,14.6041837 9.08291336,15.0238752 L9.08291336,15.0238752 L9.538008,16.9993973 L14.461008,16.9993973 L14.9188729,15.023237 C15.0019011,14.6638694 15.1717664,14.3313677 15.4124215,14.0542893 L15.5385739,13.9205009 C17.0258249,12.4671609 17.749992,10.9204671 17.749992,9.25139734 L17.749992,9.25139734 L17.7458399,9.03084154 C17.6299293,5.9574132 15.1017833,3.50139734 12.000008,3.50139734 Z" id="ðŸŽ¨-Color"></path>
        </g>
    </g>
</svg>