<?xml version="1.0" encoding="UTF-8"?>
<svg width="20px" height="20px" viewBox="0 0 20 20" version="1.1" xmlns="http://www.w3.org/2000/svg" xmlns:xlink="http://www.w3.org/1999/xlink">
    <!-- Generator: Sketch 64 (93537) - https://sketch.com -->
    <title>ic_fluent_xbox_console_20_regular</title>
    <desc>Created with Sketch.</desc>
    <g id="ðŸ”-System-Icons" stroke="none" stroke-width="1" fill="none" fill-rule="evenodd">
        <g id="ic_fluent_xbox_console_20_regular" fill="#212121" fill-rule="nonzero">
            <path d="M17.5,6 C17.7761,6 18,6.22386 18,6.5 L18,13.5 C18,13.7761 17.7761,14 17.5,14 L4.5,14 C4.22386,14 4,13.7761 4,13.5 L4,12 L2.5,12 C2.22386,12 2,11.7761 2,11.5 L2,6.5 C2,6.22386 2.22386,6 2.5,6 L17.5,6 Z M17,12 L5,12 L5,13 L17,13 L17,12 Z M17,7 L3,7 L3,11 L17,11 L17,7 Z M15,8 C15.5523,8 16,8.44772 16,9 C16,9.55228 15.5523,10 15,10 C14.4477,10 14,9.55228 14,9 C14,8.44772 14.4477,8 15,8 Z" id="ðŸŽ¨-Color"></path>
        </g>
    </g>
</svg>