<svg width="48" height="48" viewBox="0 0 48 48" fill="none" xmlns="http://www.w3.org/2000/svg">
<path d="M6.49619 7.75494L6.58342 7.65008C7.02153 7.17761 7.73969 7.12012 8.24507 7.49619L8.34993 7.58342L35.8499 33.0834C36.3561 33.5528 36.386 34.3437 35.9166 34.8499C35.4785 35.3224 34.7603 35.3799 34.2549 35.0038L34.1501 34.9166L27.77 29L12.5 29V38.75C12.5 39.4404 11.9404 40 11.25 40C10.6028 40 10.0705 39.5081 10.0065 38.8778L10 38.75L9.999 12.522L6.65008 9.41659C6.17761 8.97848 6.12012 8.26032 6.49619 7.75494L6.58342 7.65008L6.49619 7.75494ZM11.876 8H36.75C37.6665 8 38.2571 8.94578 37.8928 9.75729L37.8371 9.86701L32.9373 18.5L37.8371 27.133C38.2895 27.9301 37.7585 28.9105 36.8729 28.9942L36.75 29H34.524L31.828 26.5H34.6032L30.4129 19.117C30.2198 18.7769 30.1984 18.3688 30.3485 18.0135L30.4129 17.883L34.6032 10.5H14.572L11.876 8ZM25.074 26.5L12.499 14.84L12.5 26.5H25.074Z" fill="#212121"/>
</svg>
