<svg width="16" height="16" viewBox="0 0 16 16" fill="none" xmlns="http://www.w3.org/2000/svg">
<path d="M11.1191 6.96289C11.3214 6.77009 11.6786 6.77007 11.8809 6.96289C12.3885 7.44701 13.3639 8.21701 14.5635 8.375C14.8026 8.40648 14.9997 8.58676 15 8.8125V10.9238C15 13.762 12.2164 14.7928 11.6143 14.9824C11.539 15.0061 11.462 15.006 11.3867 14.9824C10.7847 14.7929 8 13.7622 8 10.9238V8.8125C8.00029 8.58676 8.19743 8.40649 8.43652 8.375C9.63587 8.21696 10.6114 7.44699 11.1191 6.96289ZM7.00293 11C7.008 11.3558 7.04823 11.6886 7.11719 12H2.5C2.22386 12 2 11.7761 2 11.5C2 11.2239 2.22386 11 2.5 11H7.00293ZM11.5 3C12.3284 3 13 3.67157 13 4.5V6.60645C12.9143 6.5403 12.8327 6.47518 12.7578 6.41016L12.5713 6.23926L12.4561 6.14062C11.9025 5.71106 11.0974 5.71117 10.5439 6.14062L10.4287 6.23926C9.99727 6.65056 9.28232 7.19453 8.46973 7.35645L8.2002 7.40137C7.66875 7.51256 7.08359 7.94088 7.00781 8.65527L7 8.81152V10H4.5C3.67157 10 3 9.32843 3 8.5V4.5C3 3.67157 3.67157 3 4.5 3H11.5Z" fill="#212121"/>
</svg>
