<svg width="12" height="12" viewBox="0 0 12 12" fill="none" xmlns="http://www.w3.org/2000/svg">
<path d="M5.5 4.5C5.5 4.22386 5.72386 4 6 4C6.27614 4 6.5 4.22386 6.5 4.5V5.5C6.5 5.77614 6.27614 6 6 6C5.72386 6 5.5 5.77614 5.5 5.5V4.5ZM6 6.75C5.58579 6.75 5.25 7.08579 5.25 7.5C5.25 7.91421 5.58579 8.25 6 8.25C6.41421 8.25 6.75 7.91421 6.75 7.5C6.75 7.08579 6.41421 6.75 6 6.75ZM5.21367 1.45866C5.56266 0.847113 6.43733 0.847113 6.78633 1.45866L10.8776 8.62781C11.2259 9.23809 10.7893 10 10.0913 10H1.9087C1.2107 10 0.774094 9.23809 1.12237 8.62781L5.21367 1.45866ZM6 2.11928L2.08308 8.98286H9.91692L6 2.11928Z" fill="#212121"/>
</svg>
