<svg width="16" height="16" viewBox="0 0 16 16" fill="none" xmlns="http://www.w3.org/2000/svg">
<path d="M2.56367 12.2571L7.56524 3.25712C7.73988 2.94286 8.16874 2.91667 8.38575 3.17856L8.43933 3.25712L13.4409 12.2571C13.6119 12.5648 13.4197 12.9374 13.0892 12.993L13.0039 13H3.00072C2.64878 13 2.41637 12.651 2.52837 12.3352L2.56367 12.2571L7.56524 3.25712L2.56367 12.2571ZM8.00229 4.52932L3.85061 12H12.154L8.00229 4.52932ZM8.00229 9.87694C8.34641 9.87694 8.62537 10.1559 8.62537 10.5C8.62537 10.8441 8.34641 11.1231 8.00229 11.1231C7.65816 11.1231 7.3792 10.8441 7.3792 10.5C7.3792 10.1559 7.65816 9.87694 8.00229 9.87694ZM8.00191 7.00257C8.24737 7.00275 8.45138 7.17979 8.49354 7.41307L8.50152 7.50295L8.50076 8.50038C8.50055 8.77652 8.27652 9.00021 8.00038 9C7.75492 8.99981 7.5509 8.82278 7.50875 8.5895L7.50076 8.49962L7.50152 7.50218C7.50173 7.22604 7.72576 7.00235 8.00191 7.00257Z" fill="#212121"/>
</svg>
