<?xml version="1.0" encoding="UTF-8"?>
<svg width="48px" height="48px" viewBox="0 0 48 48" version="1.1" xmlns="http://www.w3.org/2000/svg" xmlns:xlink="http://www.w3.org/1999/xlink">
    <!-- Generator: Sketch 59.1 (86144) - https://sketch.com -->
    <title>ic_weather_snow_shower_night_48_regular</title>
    <desc>Created with Sketch.</desc>
    <g id="ðŸ”-Product-Icons" stroke="none" stroke-width="1" fill="none" fill-rule="evenodd">
        <g id="ic_weather_snow_shower_night_48_regular" fill="#212121">
            <path d="M21.4988918,40.0088064 C22.327319,40.0088064 22.9988918,40.6803793 22.9988918,41.5088064 C22.9988918,42.3372336 22.327319,43.0088064 21.4988918,43.0088064 C20.6704647,43.0088064 19.9988918,42.3372336 19.9988918,41.5088064 C19.9988918,40.6803793 20.6704647,40.0088064 21.4988918,40.0088064 Z M30.4988918,40.0088064 C31.327319,40.0088064 31.9988918,40.6803793 31.9988918,41.5088064 C31.9988918,42.3372336 31.327319,43.0088064 30.4988918,43.0088064 C29.6704647,43.0088064 28.9988918,42.3372336 28.9988918,41.5088064 C28.9988918,40.6803793 29.6704647,40.0088064 30.4988918,40.0088064 Z M16.9988918,38.0088064 C17.827319,38.0088064 18.4988918,38.6803793 18.4988918,39.5088064 C18.4988918,40.3372336 17.827319,41.0088064 16.9988918,41.0088064 C16.1704647,41.0088064 15.4988918,40.3372336 15.4988918,39.5088064 C15.4988918,38.6803793 16.1704647,38.0088064 16.9988918,38.0088064 Z M25.9988918,38.0088064 C26.827319,38.0088064 27.4988918,38.6803793 27.4988918,39.5088064 C27.4988918,40.3372336 26.827319,41.0088064 25.9988918,41.0088064 C25.1704647,41.0088064 24.4988918,40.3372336 24.4988918,39.5088064 C24.4988918,38.6803793 25.1704647,38.0088064 25.9988918,38.0088064 Z M34.9988918,38.0088064 C35.827319,38.0088064 36.4988918,38.6803793 36.4988918,39.5088064 C36.4988918,40.3372336 35.827319,41.0088064 34.9988918,41.0088064 C34.1704647,41.0088064 33.4988918,40.3372336 33.4988918,39.5088064 C33.4988918,38.6803793 34.1704647,38.0088064 34.9988918,38.0088064 Z M25.9988918,12.0096412 C32.335954,12.0096412 35.9308615,16.204222 36.4536905,21.2698939 L36.6136229,21.2698888 C40.6917823,21.2698888 43.9977837,24.5673365 43.9977837,28.6349444 C43.9977837,32.7025523 40.6917823,36 36.6136229,36 L15.3841608,36 C11.3060014,36 8,32.7025523 8,28.6349444 C8,24.5673365 11.3060014,21.2698888 15.3842058,21.2698888 L15.5440932,21.2698939 C16.0699636,16.1709267 19.6618297,12.0096412 25.9988918,12.0096412 Z M25.9988918,14.5048206 C21.7378367,14.5048206 18.0238565,17.9527732 18.0238565,22.7153918 C18.0238565,23.47002 17.3677239,24.0621696 16.6164216,24.0621451 L15.1958375,24.0620987 C12.6017669,24.0620987 10.4988573,26.175924 10.4988573,28.7834596 C10.4988573,31.3909953 12.6017669,33.5048206 15.1958375,33.5048206 L36.8019462,33.5048206 C39.3960167,33.5048206 41.4989264,31.3909953 41.4989264,28.7834596 C41.4989264,26.175924 39.3960167,24.0620987 36.801992,24.0620987 L35.3813621,24.0621451 C34.6300598,24.0621696 33.9739272,23.47002 33.9739272,22.7153918 C33.9739272,17.8916787 30.259947,14.5048206 25.9988918,14.5048206 Z M13.1779282,4.0022343 C14.7679791,4.08753742 16.3119166,4.5457712 17.7041002,5.34955183 C19.8142756,6.56786335 21.321747,8.4292038 22.1219035,10.5431601 C21.3476174,10.7629851 20.6169899,11.0500133 19.9331735,11.3981388 C19.2928213,9.65696159 17.8729079,8.24244689 15.9415089,7.13641696 C15.4922546,6.87914577 15.0024287,6.68316452 14.5161108,6.5457252 C14.8802305,9.58672482 14.7627976,11.6544346 13.4586324,14.1237304 L13.1910805,14.6030198 C11.8960644,16.7998223 9.98382099,18.0999071 7.06602799,19.4423719 C7.3878478,19.7607829 7.87836529,20.1353601 8.27761267,20.4169826 C8.73052887,20.7364622 9.20063343,21.0098301 9.68134925,21.2346336 C8.99031365,21.7711298 8.37617884,22.4021984 7.85856596,23.1089615 L7.54970577,22.9373947 L7.54970577,22.9373947 C6.23466925,22.1780714 5.1183289,21.1471177 4.2654475,19.9086885 C3.70646864,19.0968478 4.06810311,17.9756219 4.99616015,17.6435152 C8.2809958,16.4678311 10.0508447,15.1447438 11.063059,13.2123898 C12.1685479,11.1022216 12.3727655,8.86425728 11.6388216,5.8575041 C11.400197,4.87950344 12.1726994,3.9482991 13.1779282,4.0022343 Z" id="ðŸŽ¨-Color"></path>
        </g>
    </g>
</svg>