<svg width="32" height="32" viewBox="0 0 32 32" fill="none" xmlns="http://www.w3.org/2000/svg">
<path d="M8.11328 5.5H10.2098C10.5956 4.61705 11.4766 4 12.5018 4H23.5018C25.9871 4 28.0018 6.01472 28.0018 8.5V19.5C28.0018 20.5258 27.3839 21.4074 26.5 21.7928V23.8889C28.5049 23.4348 30.0018 21.6422 30.0018 19.5V8.5C30.0018 4.91015 27.0916 2 23.5018 2H12.5018C10.3602 2 8.56801 3.49601 8.11328 5.5ZM6.5 7C4.01472 7 2 9.01472 2 11.5V25.5C2 27.9853 4.01472 30 6.5 30H20.5C22.9853 30 25 27.9853 25 25.5V11.5C25 9.01472 22.9853 7 20.5 7H6.5Z" fill="#212121"/>
</svg>
