<svg width="16" height="16" viewBox="0 0 16 16" fill="none" xmlns="http://www.w3.org/2000/svg">
<path d="M11.5 2C12.8807 2 14 3.11929 14 4.5V13.5C14 13.7761 13.7761 14 13.5 14C13.2239 14 13 13.7761 13 13.5V11.5C13 10.6716 12.3284 10 11.5 10H4.5C3.67157 10 3 10.6716 3 11.5V13.5C3 13.7761 2.77614 14 2.5 14C2.22386 14 2 13.7761 2 13.5V4.5C2 3.11929 3.11929 2 4.5 2H11.5ZM4.5 6.5C3.67157 6.5 3 7.17157 3 8V9.50293C3.41809 9.18841 3.93653 9 4.5 9H11.5C12.0635 9 12.5819 9.18841 13 9.50293V8C13 7.17157 12.3284 6.5 11.5 6.5H4.5ZM4.5 3C3.67157 3 3 3.67157 3 4.5V6.00293C3.41809 5.68841 3.93653 5.5 4.5 5.5H11.5C12.0635 5.5 12.5819 5.68841 13 6.00293V4.5C13 3.67157 12.3284 3 11.5 3H4.5Z" fill="#212121"/>
</svg>
