<svg width="20" height="20" viewBox="0 0 20 20" fill="none" xmlns="http://www.w3.org/2000/svg">
<path d="M3 5.5C3 4.11929 4.11929 3 5.5 3H14.5C15.8807 3 17 4.11929 17 5.5V16.5C17 16.7761 16.7761 17 16.5 17C16.2239 17 16 16.7761 16 16.5V13.5C16 12.6716 15.3284 12 14.5 12H5.5C4.67157 12 4 12.6716 4 13.5V16.5C4 16.7761 3.77614 17 3.5 17C3.22386 17 3 16.7761 3 16.5V5.5ZM4 11.4998C4.41783 11.186 4.9372 11 5.5 11H14.5C15.0628 11 15.5822 11.186 16 11.4998V9.5C16 8.67157 15.3284 8 14.5 8H5.5C4.67157 8 4 8.67157 4 9.5V11.4998ZM16 5.5C16 4.67157 15.3284 4 14.5 4H5.5C4.67157 4 4 4.67157 4 5.5V7.49982C4.41783 7.18597 4.9372 7 5.5 7H14.5C15.0628 7 15.5822 7.18597 16 7.49982V5.5Z" fill="#212121"/>
</svg>
