<svg width="24" height="24" viewBox="0 0 24 24" fill="none" xmlns="http://www.w3.org/2000/svg">
<path d="M17.5001 11.9998C20.5377 11.9998 23.0001 14.4622 23.0001 17.4998C23.0001 20.5373 20.5377 22.9998 17.5001 22.9998C14.4626 22.9998 12.0001 20.5373 12.0001 17.4998C12.0001 14.4622 14.4626 11.9998 17.5001 11.9998ZM14.8537 17.1462C14.6584 16.951 14.3418 16.951 14.1466 17.1462C13.9513 17.3415 13.9513 17.6581 14.1466 17.8533L16.1466 19.8533C16.3418 20.0486 16.6584 20.0486 16.8537 19.8533L20.8537 15.8533C21.0489 15.6581 21.0489 15.3415 20.8537 15.1462C20.6584 14.951 20.3418 14.951 20.1466 15.1462L16.5001 18.7927L14.8537 17.1462ZM12.0224 13.9991C11.7257 14.4624 11.4862 14.9658 11.3137 15.4994L4.25254 15.4997C3.83895 15.4997 3.50366 15.835 3.50366 16.2486V16.8262C3.50366 17.3619 3.69477 17.88 4.04263 18.2874C5.29594 19.755 7.26182 20.5008 10.0001 20.5008C10.5966 20.5008 11.1564 20.4655 11.6804 20.3949C11.9255 20.8898 12.2331 21.3484 12.5919 21.7613C11.7964 21.9215 10.9315 22.0008 10.0001 22.0008C6.85426 22.0008 4.46825 21.0957 2.90194 19.2614C2.32218 18.5825 2.00366 17.719 2.00366 16.8262V16.2486C2.00366 15.0065 3.01052 13.9997 4.25254 13.9997L12.0224 13.9991ZM10.0001 2.00439C12.7615 2.00439 15.0001 4.24297 15.0001 7.00439C15.0001 9.76582 12.7615 12.0044 10.0001 12.0044C7.2387 12.0044 5.00012 9.76582 5.00012 7.00439C5.00012 4.24297 7.2387 2.00439 10.0001 2.00439ZM10.0001 3.50439C8.06712 3.50439 6.50012 5.0714 6.50012 7.00439C6.50012 8.93739 8.06712 10.5044 10.0001 10.5044C11.9331 10.5044 13.5001 8.93739 13.5001 7.00439C13.5001 5.0714 11.9331 3.50439 10.0001 3.50439Z" fill="#212121"/>
</svg>
