<svg width="20" height="20" viewBox="0 0 20 20" fill="none" xmlns="http://www.w3.org/2000/svg">
<path d="M7.50335 9.99959C7.74881 9.99959 7.95296 10.1765 7.99529 10.4097L8.00335 10.4996V15.4999C8.00335 15.776 7.77949 15.9999 7.50335 15.9999C7.25789 15.9999 7.05374 15.823 7.0114 15.5897L7.00335 15.4999V10.4996C7.00335 10.2235 7.22721 9.99959 7.50335 9.99959ZM4.5 11.9999C4.74546 11.9999 4.94961 12.1767 4.99194 12.41L5 12.4999V15.4999C5 15.776 4.77614 15.9999 4.5 15.9999C4.25454 15.9999 4.05039 15.823 4.00806 15.5897L4 15.4999V12.4999C4 12.2237 4.22386 11.9999 4.5 11.9999ZM10.5 7.99738C10.7455 7.99738 10.9496 8.17426 10.9919 8.40751L11 8.49738V15.4999C11 15.776 10.7761 15.9999 10.5 15.9999C10.2545 15.9999 10.0504 15.823 10.0081 15.5897L10 15.4999V8.49738C10 8.22124 10.2239 7.99738 10.5 7.99738ZM13.5 6.00195C13.7455 6.00195 13.9496 6.17883 13.9919 6.41208L14 6.50195V15.4999C14 15.776 13.7761 15.9999 13.5 15.9999C13.2545 15.9999 13.0504 15.823 13.0081 15.5897L13 15.4999V6.50195C13 6.22581 13.2239 6.00195 13.5 6.00195Z" fill="#212121"/>
</svg>
