<svg width="21" height="20" viewBox="0 0 21 20" fill="none" xmlns="http://www.w3.org/2000/svg">
<path d="M12.416 14C12.416 12.8954 13.3114 12 14.416 12H17.416C18.5206 12 19.416 12.8954 19.416 14V17C19.416 18.1046 18.5206 19 17.416 19H14.416C13.3114 19 12.416 18.1046 12.416 17V14ZM14.416 13C13.8637 13 13.416 13.4477 13.416 14V17C13.416 17.5523 13.8637 18 14.416 18H17.416C17.9683 18 18.416 17.5523 18.416 17V14C18.416 13.4477 17.9683 13 17.416 13H14.416ZM5.41602 9H6.71601C8.20718 9 9.41601 7.79117 9.41601 6.3V5H12.916C14.2967 5 15.416 6.11929 15.416 7.5V11H14.116C12.6248 11 11.416 12.2088 11.416 13.7V15H7.91602C6.5353 15 5.41602 13.8807 5.41602 12.5V9ZM1.41602 3C1.41602 1.89543 2.31145 1 3.41602 1H6.41601C7.52058 1 8.41601 1.89543 8.41601 3V6C8.41601 7.10457 7.52058 8 6.41601 8H3.41602C2.31145 8 1.41602 7.10457 1.41602 6V3ZM3.41602 2C2.86373 2 2.41602 2.44772 2.41602 3V6C2.41602 6.55228 2.86373 7 3.41602 7H6.41601C6.9683 7 7.41601 6.55228 7.41601 6V3C7.41601 2.44772 6.9683 2 6.41601 2H3.41602Z" fill="#212121"/>
</svg>
