<svg width="20" height="20" viewBox="0 0 20 20" fill="none" xmlns="http://www.w3.org/2000/svg">
<path d="M15 1.75C15 1.33579 14.6642 1 14.25 1C13.8358 1 13.5 1.33579 13.5 1.75V2.5H10.25C9.83579 2.5 9.5 2.83579 9.5 3.25V4.25C9.5 4.66421 9.83579 5 10.25 5C10.6642 5 11 4.66421 11 4.25V4H17.5V4.25C17.5 4.66421 17.8358 5 18.25 5C18.6642 5 19 4.66421 19 4.25V3.25C19 2.83579 18.6642 2.5 18.25 2.5H15V1.75ZM7.19335 5.46382C7.07741 5.18324 6.80375 5.00023 6.50015 5.00024C6.19656 5.00026 5.92292 5.18331 5.80701 5.4639L2.51174 13.4413C2.50715 13.4517 2.50279 13.4622 2.49868 13.4729L1.05701 16.963C0.898867 17.3458 1.08102 17.7843 1.46386 17.9425C1.84669 18.1006 2.28524 17.9185 2.44338 17.5356L3.70016 14.4932H9.30143L10.557 17.5318C10.7152 17.9146 11.1538 18.0967 11.5366 17.9385C11.9194 17.7803 12.1015 17.3417 11.9433 16.9589L7.19335 5.46382ZM8.6816 12.9932H4.31978L6.50032 7.7144L8.6816 12.9932ZM12.25 5C11.8358 5 11.5 5.33579 11.5 5.75C11.5 6.16421 11.8358 6.5 12.25 6.5H14.6895L13.6643 7.78148C13.6115 7.84748 13.5707 7.92143 13.5429 8H10.25C9.83579 8 9.5 8.33579 9.5 8.75C9.5 9.16421 9.83579 9.5 10.25 9.5H13.5V11.3323C13.5 11.4249 13.4249 11.5 13.3323 11.5C13.293 11.5 13.255 11.4862 13.2249 11.4611L13.1801 11.4238C12.8619 11.1587 12.389 11.2017 12.1238 11.5199C11.8587 11.8381 11.9017 12.311 12.2199 12.5762L12.2646 12.6135C12.5643 12.8632 12.9421 13 13.3323 13C14.2533 13 15 12.2533 15 11.3323V9.5H18.25C18.6642 9.5 19 9.16421 19 8.75C19 8.33579 18.6642 8 18.25 8H15.4105L16.8357 6.21852C17.0158 5.99339 17.0509 5.68496 16.926 5.42511C16.8011 5.16526 16.5383 5 16.25 5H12.25Z" fill="#212121"/>
</svg>
