<svg width="20" height="20" viewBox="0 0 20 20" fill="none" xmlns="http://www.w3.org/2000/svg">
<path d="M3.3054 4.01251L2.14645 2.85355C1.95118 2.65829 1.95118 2.34171 2.14645 2.14645C2.34171 1.95118 2.65829 1.95118 2.85355 2.14645L17.8536 17.1464C18.0488 17.3417 18.0488 17.6583 17.8536 17.8536C17.6583 18.0488 17.3417 18.0488 17.1464 17.8536L15.2929 16H3.5C2.67157 16 2 15.3284 2 14.5V5.5C2 4.73752 2.56891 4.10791 3.3054 4.01251ZM11.2929 12L10.2776 10.9848C10.1865 10.9948 10.0938 11 10 11C8.61929 11 7.5 9.88071 7.5 8.5C7.5 8.40615 7.50517 8.31351 7.51524 8.22235L4.29289 5H3.5C3.22386 5 3 5.22386 3 5.5V14.5C3 14.7761 3.22386 15 3.5 15H6V13.5C6 12.6716 6.67157 12 7.5 12H11.2929ZM8.57026 6.44892L12.0511 9.92974C12.334 9.52458 12.5 9.03167 12.5 8.5C12.5 7.11929 11.3807 6 10 6C9.46833 6 8.97542 6.16597 8.57026 6.44892ZM17.6196 15.4983L16.909 14.7877C16.9663 14.7063 17 14.6071 17 14.5V12.9009C17.1576 12.9654 17.3276 12.9993 17.5018 13C17.6746 12.9996 17.8433 12.9785 18 12.9211V14.5C18 14.8833 17.8562 15.2331 17.6196 15.4983ZM6.12134 4L7.12134 5H10.0909C10.031 4.84162 10 4.67231 10 4.49611C10 4.32279 10.03 4.15614 10.088 4H6.12134ZM15.226 2.35305L14.8777 1.28225C14.8486 1.19972 14.7946 1.12825 14.7231 1.0777C14.6516 1.02715 14.5662 1 14.4786 1C14.391 1 14.3056 1.02715 14.2341 1.0777C14.1626 1.12825 14.1085 1.19972 14.0794 1.28225L13.7311 2.35305C13.625 2.67631 13.4454 2.97065 13.2066 3.21307C12.9677 3.45549 12.6759 3.63941 12.3541 3.75044L11.2825 4.09845C11.1999 4.12757 11.1284 4.18157 11.0778 4.25301C11.0272 4.32445 11 4.40981 11 4.49733C11 4.58484 11.0272 4.6702 11.0778 4.74164C11.1284 4.81308 11.1999 4.86708 11.2825 4.8962L12.3541 5.24421C12.6292 5.33588 12.883 5.48064 13.1014 5.66973C13.1421 5.70496 13.1815 5.74173 13.2197 5.77999C13.4202 5.98116 13.5796 6.21872 13.6897 6.47932C13.7128 6.53422 13.7338 6.59014 13.7525 6.64696L14.1008 7.71775C14.1271 7.79215 14.1736 7.85755 14.2349 7.90675C14.2416 7.91213 14.2484 7.91732 14.2555 7.92231C14.327 7.97286 14.4124 8.00001 14.5 8.00001C14.5876 8.00001 14.673 7.97286 14.7445 7.92231C14.816 7.87175 14.87 7.80029 14.8992 7.71775L15.2475 6.64696C15.3558 6.32141 15.5385 6.0256 15.7813 5.78302C16.0241 5.54044 16.3201 5.35778 16.6459 5.24956L17.7175 4.90155C17.8001 4.87244 17.8716 4.81844 17.9222 4.747C17.9728 4.67556 18 4.5902 18 4.50268C18 4.41516 17.9728 4.3298 17.9222 4.25836C17.8716 4.18692 17.8001 4.13292 17.7175 4.10381L17.6961 4.09845L16.6245 3.75044C16.2987 3.64223 16.0026 3.45957 15.7599 3.21699C15.5171 2.97441 15.3343 2.67859 15.226 2.35305ZM19.0175 8.96461L19.7829 9.21319L19.7982 9.21701C19.8572 9.23781 19.9083 9.27638 19.9445 9.32741C19.9806 9.37844 20 9.43941 20 9.50192C20 9.56443 19.9806 9.62541 19.9445 9.67643C19.9083 9.72746 19.8572 9.76603 19.7982 9.78683L19.0328 10.0354C18.8001 10.1127 18.5886 10.2432 18.4152 10.4164C18.2418 10.5897 18.1113 10.801 18.0339 11.0335L17.7851 11.7984C17.7643 11.8574 17.7257 11.9084 17.6746 11.9445C17.6236 11.9806 17.5626 12 17.5 12C17.4374 12 17.3764 11.9806 17.3254 11.9445C17.2743 11.9084 17.2357 11.8574 17.2149 11.7984L16.9661 11.0335C16.8893 10.8003 16.7589 10.5882 16.5855 10.4143C16.412 10.2403 16.2003 10.1093 15.9672 10.0316L15.2018 9.78301C15.1428 9.76221 15.0917 9.72364 15.0555 9.67261C15.0194 9.62158 15 9.56061 15 9.4981C15 9.43558 15.0194 9.37461 15.0555 9.32358C15.0917 9.27255 15.1428 9.23398 15.2018 9.21319L15.9672 8.96461C16.1971 8.8853 16.4055 8.75392 16.5761 8.58077C16.7467 8.40762 16.875 8.19737 16.9508 7.96647L17.1996 7.20161C17.2204 7.14266 17.259 7.09161 17.31 7.05551C17.3611 7.0194 17.4221 7.00001 17.4847 7.00001C17.5473 7.00001 17.6083 7.0194 17.6593 7.05551C17.7104 7.09161 17.749 7.14266 17.7698 7.20161L18.0186 7.96647C18.0959 8.199 18.2265 8.4103 18.3999 8.58357C18.5733 8.75684 18.7848 8.88731 19.0175 8.96461Z" fill="#212121"/>
</svg>
