<svg width="20" height="20" viewBox="0 0 20 20" fill="none" xmlns="http://www.w3.org/2000/svg">
<path d="M3 6H17V13.6923L12.2222 17H5.5C4.11929 17 3 15.8807 3 14.5V6Z" fill="url(#paint0_linear_72095_10133)"/>
<path d="M3 6H17V13.6923L12.2222 17H5.5C4.11929 17 3 15.8807 3 14.5V6Z" fill="url(#paint1_linear_72095_10133)"/>
<path d="M3 6H17V13.6923L12.2222 17H5.5C4.11929 17 3 15.8807 3 14.5V6Z" fill="url(#paint2_radial_72095_10133)" fill-opacity="0.3"/>
<g filter="url(#filter0_d_72095_10133)">
<path d="M8 10C8 10.5523 7.55228 11 7 11C6.44772 11 6 10.5523 6 10C6 9.44771 6.44772 9 7 9C7.55228 9 8 9.44771 8 10Z" fill="url(#paint3_linear_72095_10133)"/>
<path d="M8 13C8 13.5523 7.55228 14 7 14C6.44772 14 6 13.5523 6 13C6 12.4477 6.44772 12 7 12C7.55228 12 8 12.4477 8 13Z" fill="url(#paint4_linear_72095_10133)"/>
<path d="M11 13C11 13.5523 10.5523 14 10 14C9.44771 14 9 13.5523 9 13C9 12.4477 9.44771 12 10 12C10.5523 12 11 12.4477 11 13Z" fill="url(#paint5_linear_72095_10133)"/>
<path d="M10 11C10.5523 11 11 10.5523 11 10C11 9.44771 10.5523 9 10 9C9.44771 9 9 9.44771 9 10C9 10.5523 9.44771 11 10 11Z" fill="url(#paint6_linear_72095_10133)"/>
<path d="M14 10C14 10.5523 13.5523 11 13 11C12.4477 11 12 10.5523 12 10C12 9.44771 12.4477 9 13 9C13.5523 9 14 9.44771 14 10Z" fill="url(#paint7_linear_72095_10133)"/>
</g>
<path d="M17 5.5C17 4.11929 15.8807 3 14.5 3H5.5C4.11929 3 3 4.11929 3 5.5V7H17V5.5Z" fill="url(#paint8_linear_72095_10133)"/>
<path d="M14.3521 12H16.9923V14.6465L13.6206 18.022C13.3393 18.3037 12.9869 18.5034 12.601 18.6001L11.1048 18.9746C10.4541 19.1372 9.86467 18.5474 10.0273 17.896L10.4014 16.3979C10.4979 16.0117 10.6974 15.6587 10.9787 15.377L14.3521 12Z" fill="url(#paint9_linear_72095_10133)"/>
<path d="M13.4854 18.1427C13.2297 18.359 12.9273 18.5145 12.601 18.5961L11.1047 18.9706C10.4541 19.1335 9.86466 18.5434 10.0273 17.892L10.4014 16.3941C10.4808 16.0763 10.6299 15.7812 10.8368 15.5298C11.1433 16.8326 12.1769 17.8545 13.4854 18.1427Z" fill="url(#paint10_linear_72095_10133)"/>
<path d="M14.54 11.8203L15.811 10.5479C16.5405 9.81738 17.7234 9.81738 18.4529 10.5479C19.1825 11.2783 19.1825 12.4624 18.4529 13.1924L17.2792 14.3672L14.54 11.8203Z" fill="url(#paint11_linear_72095_10133)"/>
<path d="M18.0015 13.6466C16.6814 13.3563 15.6408 12.3191 15.3442 11L14.3452 12.0001C14.6418 13.3192 15.6824 14.3563 17.0026 14.6466L18.0015 13.6466Z" fill="url(#paint12_linear_72095_10133)"/>
<defs>
<filter id="filter0_d_72095_10133" x="4.66667" y="8.33333" width="10.6667" height="7.66667" filterUnits="userSpaceOnUse" color-interpolation-filters="sRGB">
<feFlood flood-opacity="0" result="BackgroundImageFix"/>
<feColorMatrix in="SourceAlpha" type="matrix" values="0 0 0 0 0 0 0 0 0 0 0 0 0 0 0 0 0 0 127 0" result="hardAlpha"/>
<feOffset dy="0.666667"/>
<feGaussianBlur stdDeviation="0.666667"/>
<feColorMatrix type="matrix" values="0 0 0 0 0.1242 0 0 0 0 0.323337 0 0 0 0 0.7958 0 0 0 0.32 0"/>
<feBlend mode="normal" in2="BackgroundImageFix" result="effect1_dropShadow_72095_10133"/>
<feBlend mode="normal" in="SourceGraphic" in2="effect1_dropShadow_72095_10133" result="shape"/>
</filter>
<linearGradient id="paint0_linear_72095_10133" x1="12.5278" y1="18.3509" x2="8.49922" y2="6.56023" gradientUnits="userSpaceOnUse">
<stop stop-color="#B3E0FF"/>
<stop offset="1" stop-color="#B3E0FF"/>
</linearGradient>
<linearGradient id="paint1_linear_72095_10133" x1="11.5" y1="10.5" x2="13.5" y2="19.5" gradientUnits="userSpaceOnUse">
<stop stop-color="#DCF8FF" stop-opacity="0"/>
<stop offset="1" stop-color="#FF6CE8" stop-opacity="0.7"/>
</linearGradient>
<radialGradient id="paint2_radial_72095_10133" cx="0" cy="0" r="1" gradientUnits="userSpaceOnUse" gradientTransform="translate(15 15) rotate(139.764) scale(8.51469 3.9309)">
<stop offset="0.535" stop-color="#4A43CB"/>
<stop offset="1" stop-color="#4A43CB" stop-opacity="0"/>
</radialGradient>
<linearGradient id="paint3_linear_72095_10133" x1="9.27273" y1="8.42308" x2="10.9129" y2="18.3925" gradientUnits="userSpaceOnUse">
<stop stop-color="#0078D4"/>
<stop offset="1" stop-color="#0067BF"/>
</linearGradient>
<linearGradient id="paint4_linear_72095_10133" x1="9.27273" y1="8.42308" x2="10.9129" y2="18.3925" gradientUnits="userSpaceOnUse">
<stop stop-color="#0078D4"/>
<stop offset="1" stop-color="#0067BF"/>
</linearGradient>
<linearGradient id="paint5_linear_72095_10133" x1="9.27273" y1="8.42308" x2="10.9129" y2="18.3925" gradientUnits="userSpaceOnUse">
<stop stop-color="#0078D4"/>
<stop offset="1" stop-color="#0067BF"/>
</linearGradient>
<linearGradient id="paint6_linear_72095_10133" x1="9.27273" y1="8.42308" x2="10.9129" y2="18.3925" gradientUnits="userSpaceOnUse">
<stop stop-color="#0078D4"/>
<stop offset="1" stop-color="#0067BF"/>
</linearGradient>
<linearGradient id="paint7_linear_72095_10133" x1="9.27273" y1="8.42308" x2="10.9129" y2="18.3925" gradientUnits="userSpaceOnUse">
<stop stop-color="#0078D4"/>
<stop offset="1" stop-color="#0067BF"/>
</linearGradient>
<linearGradient id="paint8_linear_72095_10133" x1="3" y1="3" x2="15.018" y2="-0.772487" gradientUnits="userSpaceOnUse">
<stop stop-color="#0094F0"/>
<stop offset="1" stop-color="#2764E7"/>
</linearGradient>
<linearGradient id="paint9_linear_72095_10133" x1="11.8546" y1="13.7183" x2="15.2859" y2="17.1486" gradientUnits="userSpaceOnUse">
<stop stop-color="#FFA43D"/>
<stop offset="1" stop-color="#FB5937"/>
</linearGradient>
<linearGradient id="paint10_linear_72095_10133" x1="9.50055" y1="16.4961" x2="12.0006" y2="18.9933" gradientUnits="userSpaceOnUse">
<stop offset="0.255" stop-color="#FFD394"/>
<stop offset="1" stop-color="#FF921F"/>
</linearGradient>
<linearGradient id="paint11_linear_72095_10133" x1="18.0672" y1="10.9085" x2="16.4554" y2="12.4564" gradientUnits="userSpaceOnUse">
<stop stop-color="#F97DBD"/>
<stop offset="1" stop-color="#DD3CE2"/>
</linearGradient>
<linearGradient id="paint12_linear_72095_10133" x1="16.2365" y1="13.4958" x2="13.6554" y2="12.3641" gradientUnits="userSpaceOnUse">
<stop stop-color="#FF921F"/>
<stop offset="1" stop-color="#FFE994"/>
</linearGradient>
</defs>
</svg>
