<svg width="20" height="20" viewBox="0 0 20 20" fill="none" xmlns="http://www.w3.org/2000/svg">
<path d="M5.99806 3C5.25778 3 4.61143 3.4022 4.26562 4H13.9981C15.6549 4 16.9981 5.34315 16.9981 7V13.5C16.9981 13.7761 17.2219 14 17.4981 14C17.7742 14 17.9981 13.7761 17.9981 13.5V7C17.9981 4.79086 16.2072 3 13.9981 3H5.99806ZM4 5C2.89543 5 2 5.89543 2 7V14C2 15.1046 2.89543 16 4 16H7C8.10457 16 9 15.1046 9 14V9H15V15.5C15 15.7761 15.2239 16 15.5 16C15.7761 16 16 15.7761 16 15.5V7C16 5.89543 15.1046 5 14 5H4ZM3 9H8V14C8 14.5523 7.55228 15 7 15H4C3.44772 15 3 14.5523 3 14V9ZM3 8V7C3 6.44772 3.44772 6 4 6H14C14.5523 6 15 6.44772 15 7V8H3ZM4.5 10C4.22386 10 4 10.2239 4 10.5C4 10.7761 4.22386 11 4.5 11H6.5C6.77614 11 7 10.7761 7 10.5C7 10.2239 6.77614 10 6.5 10H4.5Z" fill="#212121"/>
</svg>
