<?xml version="1.0" encoding="UTF-8"?>
<svg width="48px" height="48px" viewBox="0 0 48 48" version="1.1" xmlns="http://www.w3.org/2000/svg" xmlns:xlink="http://www.w3.org/1999/xlink">
    <!-- Generator: Sketch 63.1 (92452) - https://sketch.com -->
    <title>ic_fluent_weather_fog_48_filled</title>
    <desc>Created with Sketch.</desc>
    <g id="ðŸ”-Product-Icons" stroke="none" stroke-width="1" fill="none" fill-rule="evenodd">
        <g id="ic_fluent_weather_fog_48_filled" fill="#212121" fill-rule="nonzero">
            <path d="M32.2520215,38.5 C33.2185198,38.5 34.0020215,39.2835017 34.0020215,40.25 C34.0020215,41.1681734 33.2949112,41.9211923 32.3955487,41.9941988 L32.2520215,42 L15.7520215,42 C14.7855232,42 14.0020215,41.2164983 14.0020215,40.25 C14.0020215,39.3318266 14.7091317,38.5788077 15.6084943,38.5058012 L15.7520215,38.5 L32.2520215,38.5 Z M38.251787,32.5046901 C39.2182854,32.5046901 40.001787,33.2881918 40.001787,34.2546901 C40.001787,35.1728635 39.2946768,35.9258824 38.3953143,35.9988889 L38.251787,36.0046901 L9.75225591,36.0046901 C8.78575759,36.0046901 8.00225591,35.2211884 8.00225591,34.2546901 C8.00225591,33.3365167 8.70936618,32.5834978 9.6087287,32.5104913 L9.75225591,32.5046901 L38.251787,32.5046901 Z M24,6.0096412 C30.3370622,6.0096412 33.9319697,10.204222 34.4547986,15.2698939 L34.6147311,15.2698888 C38.6928905,15.2698888 41.9988918,18.5673365 41.9988918,22.6349444 C41.9988918,26.7025523 38.6928905,30 34.6147311,30 L13.3852689,30 C9.30710954,30 6.00110816,26.7025523 6.00110816,22.6349444 C6.00110816,18.5673365 9.30710954,15.2698888 13.3853139,15.2698888 L13.5452014,15.2698939 C14.0710717,10.1709267 17.6629378,6.0096412 24,6.0096412 Z" id="ðŸŽ¨-Color"></path>
        </g>
    </g>
</svg>