<svg width="24" height="24" viewBox="0 0 24 24" fill="none" xmlns="http://www.w3.org/2000/svg">
<path d="M12.2427 13.1486H7.75805L10.0004 6.74427L12.2427 13.1486ZM12.943 15.1486L13.2705 16.0839L14.84 14.5144L11.0755 3.76267C10.7194 2.74576 9.28134 2.74579 8.9253 3.76267L4.05588 17.6701C3.87338 18.1914 4.14799 18.7619 4.66924 18.9444C5.1905 19.1269 5.76102 18.8523 5.94352 18.331L7.05778 15.1486H12.943ZM13.1969 17.5719L19.0993 11.6695C19.9919 10.7768 21.4391 10.7768 22.3317 11.6695C23.2243 12.5621 23.2243 14.0093 22.3317 14.9019L16.4293 20.8043C16.0852 21.1485 15.654 21.3926 15.1818 21.5106L13.3511 21.9683C13.3013 21.9808 13.2517 21.9896 13.2027 21.9951C12.6117 22.1991 10.223 22.569 9.375 21.9072C8.80054 21.4588 8.91488 20.5728 9.15739 20.0887C9.19618 20.0113 9.13752 19.9098 9.05195 19.9232C8.39118 20.0264 7.80881 20.3738 7.22548 20.7219C6.44155 21.1896 5.65591 21.6583 4.676 21.5366C3.69713 21.4149 3.20792 20.8108 2.9659 20.2822C2.86699 20.0662 3.14549 19.8809 3.35403 19.9948C3.82265 20.2505 4.45973 20.4906 4.98511 20.3744C5.36023 20.2914 5.88893 19.9174 6.48138 19.4983C7.54665 18.7448 8.81804 17.8454 9.77342 18.2298C10.6124 18.5674 11.2327 19.3809 10.8033 20.3432C10.7506 20.4612 10.8036 20.6065 10.9296 20.6355C11.3529 20.7325 11.7077 20.7018 12.0626 20.5313L12.4906 18.8194C12.6086 18.3472 12.8527 17.916 13.1969 17.5719Z" fill="#212121"/>
</svg>
