<svg width="20" height="20" viewBox="0 0 20 20" fill="none" xmlns="http://www.w3.org/2000/svg">
<path d="M14.5 10C12.0147 10 10 7.98528 10 5.5C10 3.01472 12.0147 1 14.5 1C16.9853 1 19 3.01472 19 5.5C19 7.98528 16.9853 10 14.5 10ZM16.1036 2.89645C15.9083 2.70118 15.5917 2.70118 15.3964 2.89645C15.2012 3.09171 15.2012 3.40829 15.3964 3.60355L16.2929 4.5H14.75C13.2312 4.5 12 5.73122 12 7.25V7.5C12 7.77614 12.2239 8 12.5 8C12.7761 8 13 7.77614 13 7.5V7.25C13 6.2835 13.7835 5.5 14.75 5.5H16.2929L15.3964 6.39645C15.2012 6.59171 15.2012 6.90829 15.3964 7.10355C15.5917 7.29882 15.9083 7.29882 16.1036 7.10355L17.8557 5.35143C17.9026 5.30398 17.938 5.24949 17.9621 5.19139C17.9865 5.13244 18 5.06779 18 5C18 4.93221 17.9865 4.86756 17.9621 4.80861C17.9377 4.74964 17.9015 4.69439 17.8536 4.64645L16.1036 2.89645ZM4 3H9.59971C9.21628 3.75007 9 4.59978 9 5.5C9 8.36902 11.1967 10.725 14 10.9776V11C14 12.1046 13.1046 13 12 13H4C2.89543 13 2 12.1046 2 11V5C2 3.89543 2.89543 3 4 3ZM15 10.9776C15.3434 10.9466 15.6777 10.8841 16 10.793V11C16 13.2092 14.2092 15 12 15H6.00001C5.25973 15 4.61339 14.5978 4.26758 14H12C13.6569 14 15 12.6569 15 11V10.9776ZM18 9.74283C17.6929 9.99646 17.3578 10.2174 17 10.4003V11C17 13.7614 14.7614 16 12 16H6.26758C6.61339 16.5978 7.25973 17 8.00001 17H12C15.3137 17 18 14.3137 18 11V9.74283Z" fill="#212121"/>
</svg>
