<svg width="24" height="24" viewBox="0 0 24 24" fill="none" xmlns="http://www.w3.org/2000/svg">
<path d="M9.5 2C12.8843 2 15.7451 4.24163 16.6786 7.32113C19.7584 8.25487 22 11.1157 22 14.5C22 18.6421 18.6421 22 14.5 22C11.1157 22 8.25487 19.7584 7.3214 16.6789C4.24163 15.7451 2 12.8843 2 9.5C2 5.35786 5.35786 2 9.5 2ZM16.9984 9.59888L17 9.5C17 13.6089 13.6958 16.9461 9.59952 16.9994C10.5089 18.7801 12.362 20 14.5 20C17.5376 20 20 17.5376 20 14.5C20 12.362 18.7801 10.5089 16.9984 9.59888ZM9.5 4C6.46243 4 4 6.46243 4 9.5C4 11.638 5.21991 13.4911 7.00163 14.4011L7 14.5C7 10.3913 10.3039 7.05424 14.3999 7.00065C13.4911 5.21991 11.638 4 9.5 4Z" fill="#212121"/>
</svg>
