<svg width="20" height="20" viewBox="0 0 20 20" fill="none" xmlns="http://www.w3.org/2000/svg">
<path d="M10 13C10.5523 13 11 12.5523 11 12C11 11.4477 10.5523 11 10 11C9.44771 11 9 11.4477 9 12C9 12.5523 9.44771 13 10 13ZM15 2C13.8954 2 13 2.89543 13 4V6H14C15.6569 6 17 7.34315 17 9V15C17 16.6569 15.6569 18 14 18H6C4.34315 18 3 16.6569 3 15V9C3 7.34315 4.34315 6 6 6H12V4C12 2.34315 13.3431 1 15 1C16.6569 1 18 2.34315 18 4V4.5C18 4.77614 17.7761 5 17.5 5C17.2239 5 17 4.77614 17 4.5V4C17 2.89543 16.1046 2 15 2ZM14 7H6C4.89543 7 4 7.89543 4 9V15C4 16.1046 4.89543 17 6 17H14C15.1046 17 16 16.1046 16 15V9C16 7.89543 15.1046 7 14 7Z" fill="#242424"/>
</svg>
