<svg width="28" height="28" viewBox="0 0 28 28" fill="none" xmlns="http://www.w3.org/2000/svg">
<path d="M18 5.5C18 3.84315 19.3431 2.5 21 2.5C22.6569 2.5 24 3.84315 24 5.5V6.5C24 6.91421 24.3358 7.25 24.75 7.25C25.1642 7.25 25.5 6.91421 25.5 6.5V5.5C25.5 3.01472 23.4853 1 21 1C18.5147 1 16.5 3.01472 16.5 5.5V8H7.75C5.67893 8 4 9.67893 4 11.75V21.25C4 23.3211 5.67893 25 7.75 25H19.25C21.3211 25 23 23.3211 23 21.25V11.75C23 9.67893 21.3211 8 19.25 8H18V5.5ZM7.75 9.5H19.25C20.4926 9.5 21.5 10.5074 21.5 11.75V21.25C21.5 22.4926 20.4926 23.5 19.25 23.5H7.75C6.50736 23.5 5.5 22.4926 5.5 21.25V11.75C5.5 10.5074 6.50736 9.5 7.75 9.5ZM13.5 18C14.3284 18 15 17.3284 15 16.5C15 15.6716 14.3284 15 13.5 15C12.6716 15 12 15.6716 12 16.5C12 17.3284 12.6716 18 13.5 18Z" fill="#212121"/>
</svg>
