<svg width="32" height="32" viewBox="0 0 32 32" fill="none" xmlns="http://www.w3.org/2000/svg">
<path d="M4.25 6C4.89715 6 5.42908 6.49183 5.49316 7.12207L5.5 7.25V24.75C5.5 25.4404 4.94036 26 4.25 26C3.55964 26 3 25.4404 3 24.75V7.25L3.00684 7.12207C3.07092 6.49183 3.60285 6 4.25 6ZM27.75 6C28.3972 6 28.9291 6.49183 28.9932 7.12207L29 7.25V24.75C29 25.4404 28.4404 26 27.75 26C27.0596 26 26.5 25.4404 26.5 24.75V7.25L26.5068 7.12207C26.5709 6.49183 27.1028 6 27.75 6ZM19.1162 11.3662C19.6044 10.8781 20.3956 10.8781 20.8838 11.3662L24.6338 15.1162C25.1219 15.6044 25.1219 16.3956 24.6338 16.8838L20.8838 20.6338L20.7891 20.7197C20.2981 21.1202 19.5739 21.0915 19.1162 20.6338C18.6585 20.1761 18.6298 19.4519 19.0303 18.9609L19.1162 18.8662L20.7324 17.25H11.2676L12.8838 18.8662C13.3719 19.3544 13.3719 20.1456 12.8838 20.6338C12.3956 21.1219 11.6044 21.1219 11.1162 20.6338L7.36621 16.8838L7.28027 16.7891C6.87979 16.2981 6.90855 15.5739 7.36621 15.1162L11.1162 11.3662L11.2109 11.2803C11.7019 10.8798 12.4261 10.9085 12.8838 11.3662C13.3415 11.8239 13.3702 12.5481 12.9697 13.0391L12.8838 13.1338L11.2676 14.75H20.7324L19.1162 13.1338C18.6281 12.6456 18.6281 11.8544 19.1162 11.3662Z" fill="#212121"/>
</svg>
