<svg width="16" height="16" viewBox="0 0 16 16" fill="none" xmlns="http://www.w3.org/2000/svg">
<path d="M12 7C12 6.31641 12.343 5.71292 12.8662 5.35221C12.3102 2.8616 10.0868 1 7.42857 1C7.18656 1 7 1.20321 7 1.44522V6.5C7 6.77614 7.22386 7 7.5 7H12ZM1 7.50095C1 10.3698 3.19681 12.7256 6 12.9778V11C6 9.89543 6.89543 9 8 9C8.36429 9 8.70583 9.09739 9 9.26756V9C9 8.63574 9.09738 8.29422 9.26753 8.00005H7C6.44772 8.00005 6 7.55234 6 7.00005V2.5711C6 2.27727 5.74698 2.04482 5.45839 2.1001C2.91894 2.58657 1 4.81966 1 7.50095ZM14 6C13.4477 6 13 6.44771 13 7V14C13 14.5523 13.4477 15 14 15C14.5523 15 15 14.5523 15 14V7C15 6.44772 14.5523 6 14 6ZM11 8C10.4477 8 10 8.44772 10 9V14C10 14.5523 10.4477 15 11 15C11.5523 15 12 14.5523 12 14V9C12 8.44772 11.5523 8 11 8ZM7 11C7 10.4477 7.44772 10 8 10C8.55228 10 9 10.4477 9 11V14C9 14.5523 8.55228 15 8 15C7.44772 15 7 14.5523 7 14V11Z" fill="#212121"/>
</svg>
