<svg width="20" height="20" viewBox="0 0 20 20" fill="none" xmlns="http://www.w3.org/2000/svg">
<path d="M11 10C12.1046 10 13 10.8954 13 12H12C12 11.4477 11.5523 11 11 11H4C3.44772 11 3 11.4477 3 12V13.5C3 14.9071 4.57862 16 7.5 16C8.04772 16 8.54824 15.9616 9 15.8899V16.8972C8.53429 16.9647 8.03332 17 7.5 17C4.08805 17 2 15.5544 2 13.5V12C2 10.8954 2.89543 10 4 10H11ZM17 12H18C18 10.8954 17.1046 10 16 10L13.2353 9.99912C13.4937 10.2876 13.6971 10.6265 13.829 10.9991L16 11C16.5523 11 17 11.4477 17 12ZM7.5 2C9.433 2 11 3.567 11 5.5C11 7.433 9.433 9 7.5 9C5.567 9 4 7.433 4 5.5C4 3.567 5.567 2 7.5 2ZM7.5 3C6.11929 3 5 4.11929 5 5.5C5 6.88071 6.11929 8 7.5 8C8.88071 8 10 6.88071 10 5.5C10 4.11929 8.88071 3 7.5 3ZM14.5 4C15.8807 4 17 5.11929 17 6.5C17 7.88071 15.8807 9 14.5 9C13.1193 9 12 7.88071 12 6.5C12 5.11929 13.1193 4 14.5 4ZM14.5 5C13.6716 5 13 5.67157 13 6.5C13 7.32843 13.6716 8 14.5 8C15.3284 8 16 7.32843 16 6.5C16 5.67157 15.3284 5 14.5 5ZM19 14.5V17.5C19 18.3284 18.3284 19 17.5 19H11.5C10.6716 19 10 18.3284 10 17.5V14.5C10 13.6716 10.6716 13 11.5 13H17.5C18.3284 13 19 13.6716 19 14.5ZM17.5 18C17.5 17.7239 17.7239 17.5 18 17.5V16.5C17.1716 16.5 16.5 17.1716 16.5 18H17.5ZM18 14.5C17.7239 14.5 17.5 14.2761 17.5 14H16.5C16.5 14.8284 17.1716 15.5 18 15.5V14.5ZM11.5 14C11.5 14.2761 11.2761 14.5 11 14.5L11 15.5C11.8285 15.5 12.5 14.8284 12.5 14H11.5ZM11 17.5C11.2761 17.5 11.5 17.7239 11.5 18H12.5C12.5 17.1716 11.8284 16.5 11 16.5V17.5ZM14.5 14.5C13.6716 14.5 13 15.1716 13 16C13 16.8284 13.6716 17.5 14.5 17.5C15.3285 17.5 16 16.8284 16 16C16 15.1716 15.3285 14.5 14.5 14.5Z" fill="#212121"/>
</svg>
