<svg width="20" height="20" viewBox="0 0 20 20" fill="none" xmlns="http://www.w3.org/2000/svg">
<path d="M5.5 10C3.01472 10 1 7.98528 1 5.5C1 3.01472 3.01472 1 5.5 1C7.98528 1 10 3.01472 10 5.5C10 7.98528 7.98528 10 5.5 10ZM6.39645 3.60355L7.29289 4.5H5.75C4.23122 4.5 3 5.73122 3 7.25V7.5C3 7.77614 3.22386 8 3.5 8C3.77614 8 4 7.77614 4 7.5V7.25C4 6.2835 4.7835 5.5 5.75 5.5H7.29289L6.39645 6.39645C6.20118 6.59171 6.20118 6.90829 6.39645 7.10355C6.59171 7.29882 6.90829 7.29882 7.10355 7.10355L8.85567 5.35143C8.90256 5.30398 8.93802 5.24949 8.96206 5.19139C8.98651 5.13244 9 5.06779 9 5C9 4.93221 8.98651 4.86756 8.96206 4.80861C8.93766 4.74964 8.90149 4.69439 8.85355 4.64645L7.10355 2.89645C6.90829 2.70118 6.59171 2.70118 6.39645 2.89645C6.20118 3.09171 6.20118 3.40829 6.39645 3.60355ZM3 10.4003C3.31679 10.5622 3.65136 10.6944 4 10.793V14C4 14.3726 4.10191 14.7215 4.27937 15.0201L8.94868 10.432C9.53227 9.85859 10.4677 9.85859 11.0513 10.432L15.7206 15.0201C15.8981 14.7215 16 14.3726 16 14V6C16 4.89543 15.1046 4 14 4H10.793C10.6944 3.65136 10.5622 3.31679 10.4003 3H14C15.6569 3 17 4.34315 17 6V14C17 15.6569 15.6569 17 14 17H6C4.34315 17 3 15.6569 3 14V10.4003ZM14 7.5C14 8.32843 13.3284 9 12.5 9C11.6716 9 11 8.32843 11 7.5C11 6.67157 11.6716 6 12.5 6C13.3284 6 14 6.67157 14 7.5ZM13 7.5C13 7.22386 12.7761 7 12.5 7C12.2239 7 12 7.22386 12 7.5C12 7.77614 12.2239 8 12.5 8C12.7761 8 13 7.77614 13 7.5ZM4.98824 15.7256C5.28505 15.9 5.63085 16 6 16H14C14.3692 16 14.7149 15.9 15.0118 15.7256L10.3504 11.1453C10.1559 10.9542 9.84409 10.9542 9.64956 11.1453L4.98824 15.7256Z" fill="#212121"/>
</svg>
