<svg width="20" height="20" viewBox="0 0 20 20" fill="none" xmlns="http://www.w3.org/2000/svg">
<path d="M3 6C3 4.34315 4.34315 3 6 3H14C15.6569 3 17 4.34315 17 6V14C17 15.6569 15.6569 17 14 17H6C4.34315 17 3 15.6569 3 14V6ZM10 5C8.89543 5 8 5.89543 8 7C8 8.10457 8.89543 9 10 9C11.1046 9 12 8.10457 12 7C12 5.89543 11.1046 5 10 5ZM12.5 10L7.49998 10C6.67156 10 6 10.6716 6 11.5C6 12.6161 6.45897 13.5103 7.21215 14.1148C7.95342 14.7098 8.94692 15 10 15C11.0531 15 12.0466 14.7098 12.7879 14.1148C13.541 13.5103 14 12.6161 14 11.5C14 10.6716 13.3284 10 12.5 10Z" fill="#212121"/>
</svg>
