<svg width="28" height="28" viewBox="0 0 28 28" fill="none" xmlns="http://www.w3.org/2000/svg">
<path d="M11.5 7C11.5 5.61929 12.6193 4.5 14 4.5C15.3807 4.5 16.5 5.61929 16.5 7C16.5 8.38071 15.3807 9.5 14 9.5C12.6193 9.5 11.5 8.38071 11.5 7ZM14 3C11.7909 3 10 4.79086 10 7C10 9.20914 11.7909 11 14 11C16.2091 11 18 9.20914 18 7C18 4.79086 16.2091 3 14 3ZM5.5 7.5C4.39543 7.5 3.5 8.39543 3.5 9.5C3.5 10.6046 4.39543 11.5 5.5 11.5C6.60457 11.5 7.5 10.6046 7.5 9.5C7.5 8.39543 6.60457 7.5 5.5 7.5ZM2 9.5C2 7.567 3.567 6 5.5 6C7.433 6 9 7.567 9 9.5C9 11.433 7.433 13 5.5 13C3.567 13 2 11.433 2 9.5ZM22.5 7.5C21.3954 7.5 20.5 8.39543 20.5 9.5C20.5 10.6046 21.3954 11.5 22.5 11.5C23.6046 11.5 24.5 10.6046 24.5 9.5C24.5 8.39543 23.6046 7.5 22.5 7.5ZM19 9.5C19 7.567 20.567 6 22.5 6C24.433 6 26 7.567 26 9.5C26 11.433 24.433 13 22.5 13C20.567 13 19 11.433 19 9.5ZM9 14.75C9 13.7835 9.7835 13 10.75 13H17.25C18.2165 13 19 13.7835 19 14.75V20C19 22.7614 16.7614 25 14 25C11.2386 25 9 22.7614 9 20V14.75ZM10.75 14.5C10.6119 14.5 10.5 14.6119 10.5 14.75V20C10.5 21.933 12.067 23.5 14 23.5C15.933 23.5 17.5 21.933 17.5 20V14.75C17.5 14.6119 17.3881 14.5 17.25 14.5H10.75ZM8 14.7524L3.2975 16.0124C2.36394 16.2625 1.80992 17.2221 2.06006 18.1557L2.90123 21.295C3.61594 23.9623 6.35762 25.5452 9.02495 24.8305C9.36492 24.7394 9.68727 24.6154 9.98949 24.4628C9.60075 24.1132 9.25792 23.7136 8.97117 23.274C8.86266 23.315 8.75112 23.351 8.63672 23.3816C6.76959 23.8819 4.85041 22.7739 4.35011 20.9067L3.50895 17.7675C3.47322 17.6341 3.55236 17.497 3.68573 17.4613L8 16.3053V14.7524ZM18.0117 24.4617C18.3146 24.6148 18.6376 24.7392 18.9784 24.8305C21.6457 25.5452 24.3874 23.9623 25.1021 21.295L25.9433 18.1557C26.1935 17.2221 25.6394 16.2625 24.7059 16.0124L20 14.7515V16.3044L24.3176 17.4613C24.451 17.497 24.5302 17.6341 24.4944 17.7675L23.6533 20.9067C23.153 22.7739 21.2338 23.8819 19.3666 23.3816C19.2513 23.3507 19.1389 23.3144 19.0295 23.273C18.7429 23.7125 18.4003 24.1121 18.0117 24.4617Z" fill="#212121"/>
</svg>
