<svg width="32" height="32" viewBox="0 0 32 32" fill="none" xmlns="http://www.w3.org/2000/svg">
<path d="M14.25 3C13.5596 3 13 3.55964 13 4.25C13 4.94036 13.5596 5.5 14.25 5.5H17.75C18.4404 5.5 19 4.94036 19 4.25C19 3.55964 18.4404 3 17.75 3H14.25ZM14.25 26.5C13.5596 26.5 13 27.0596 13 27.75C13 28.4404 13.5596 29 14.25 29H17.75C18.4404 29 19 28.4404 19 27.75C19 27.0596 18.4404 26.5 17.75 26.5H14.25ZM27.75 19C27.0596 19 26.5 18.4404 26.5 17.75V14.25C26.5 13.5596 27.0596 13 27.75 13C28.4404 13 29 13.5596 29 14.25V17.75C29 18.4404 28.4404 19 27.75 19ZM3 17.75C3 18.4404 3.55964 19 4.25 19C4.94036 19 5.5 18.4404 5.5 17.75L5.5 14.25C5.5 13.5596 4.94036 13 4.25 13C3.55964 13 3 13.5596 3 14.25V17.75ZM9 4.25C9 3.55964 8.44036 3 7.75 3C5.12665 3 3 5.12665 3 7.75C3 8.44036 3.55964 9 4.25 9C4.94036 9 5.5 8.44036 5.5 7.75C5.5 6.50736 6.50736 5.5 7.75 5.5C8.44036 5.5 9 4.94036 9 4.25ZM7.75 29C8.44036 29 9 28.4404 9 27.75C9 27.0596 8.44036 26.5 7.75 26.5C6.50736 26.5 5.5 25.4926 5.5 24.25C5.5 23.5596 4.94036 23 4.25 23C3.55964 23 3 23.5596 3 24.25C3 26.8734 5.12665 29 7.75 29ZM23 4.25C23 3.55964 23.5596 3 24.25 3C26.8734 3 29 5.12665 29 7.75C29 8.44036 28.4404 9 27.75 9C27.0596 9 26.5 8.44036 26.5 7.75C26.5 6.50736 25.4926 5.5 24.25 5.5C23.5596 5.5 23 4.94036 23 4.25ZM24.25 29C23.5596 29 23 28.4404 23 27.75C23 27.0596 23.5596 26.5 24.25 26.5C25.4926 26.5 26.5 25.4926 26.5 24.25C26.5 23.5596 27.0596 23 27.75 23C28.4404 23 29 23.5596 29 24.25C29 26.8734 26.8734 29 24.25 29Z" fill="#212121"/>
</svg>
