<svg width="32" height="32" viewBox="0 0 32 32" fill="none" xmlns="http://www.w3.org/2000/svg">
<path d="M7 3C6.44772 3 6 3.44772 6 4L6 23.5C6 26.5376 8.46243 29 11.5 29C14.5376 29 17 26.5376 17 23.5L17 8.5C17 6.567 18.567 5 20.5 5C22.433 5 24 6.567 24 8.5L24 26.5858L22.7071 25.2929C22.3166 24.9024 21.6834 24.9024 21.2929 25.2929C20.9024 25.6834 20.9024 26.3166 21.2929 26.7071L24.2929 29.7071C24.6834 30.0976 25.3166 30.0976 25.7071 29.7071L28.7071 26.7071C29.0976 26.3166 29.0976 25.6834 28.7071 25.2929C28.3166 24.9024 27.6834 24.9024 27.2929 25.2929L26 26.5858L26 8.5C26 5.46243 23.5376 3 20.5 3C17.4624 3 15 5.46243 15 8.5L15 23.5C15 25.433 13.433 27 11.5 27C9.567 27 8 25.433 8 23.5L8 4C8 3.44772 7.55228 3 7 3Z" fill="#212121"/>
</svg>
