<svg width="32" height="32" viewBox="0 0 32 32" fill="none" xmlns="http://www.w3.org/2000/svg">
<path d="M16 3C23.1797 3 29 8.8203 29 16C29 20.6333 26.5747 24.698 22.9258 27H27C27.5523 27 28 27.4477 28 28C28 28.5523 27.5523 29 27 29H21C20.4477 29 20 28.5523 20 28V22C20 21.4477 20.4477 21 21 21C21.5523 21 22 21.4477 22 22V25.2148C25.0091 23.2525 27 19.8605 27 16C27 9.92487 22.0751 5 16 5C9.92487 5 5 9.92487 5 16C5 16.5523 4.55228 17 4 17C3.44772 17 3 16.5523 3 16C3 8.8203 8.8203 3 16 3ZM16 12C18.2091 12 20 13.7909 20 16C20 18.2091 18.2091 20 16 20C13.7909 20 12 18.2091 12 16C12 13.7909 13.7909 12 16 12ZM16 14C14.8954 14 14 14.8954 14 16C14 17.1046 14.8954 18 16 18C17.1046 18 18 17.1046 18 16C18 14.8954 17.1046 14 16 14Z" fill="#212121"/>
</svg>
