<svg width="16" height="16" viewBox="0 0 16 16" fill="none" xmlns="http://www.w3.org/2000/svg">
<path d="M4.14645 6.35355C4.34171 6.54882 4.65829 6.54882 4.85355 6.35355L8 3.20711L11.1464 6.35355C11.3417 6.54882 11.6583 6.54882 11.8536 6.35355C12.0488 6.15829 12.0488 5.84171 11.8536 5.64645L8.35355 2.14645C8.15829 1.95118 7.84171 1.95118 7.64645 2.14645L4.14645 5.64645C3.95118 5.84171 3.95118 6.15829 4.14645 6.35355ZM4.14645 9.64645C4.34171 9.45118 4.65829 9.45118 4.85355 9.64645L8 12.7929L11.1464 9.64645C11.3417 9.45118 11.6583 9.45118 11.8536 9.64645C12.0488 9.84171 12.0488 10.1583 11.8536 10.3536L8.35355 13.8536C8.15829 14.0488 7.84171 14.0488 7.64645 13.8536L4.14645 10.3536C3.95118 10.1583 3.95118 9.84171 4.14645 9.64645Z" fill="#212121"/>
</svg>
