<svg width="16" height="16" viewBox="0 0 16 16" fill="none" xmlns="http://www.w3.org/2000/svg">
<path d="M5.0002 0C5.30688 0 5.58266 0.186713 5.69656 0.471457L7.69656 5.47146C7.8504 5.85604 7.66333 6.29252 7.27875 6.44636C6.89416 6.60019 6.45768 6.41313 6.30384 6.02854L6.09266 5.50059L3.90794 5.50009L3.69656 6.02854C3.54273 6.41313 3.10625 6.60019 2.72166 6.44636C2.33707 6.29252 2.15001 5.85604 2.30385 5.47146L4.30385 0.471457C4.41774 0.186713 4.69352 0 5.0002 0ZM5.0002 2.76944L4.50789 4.00023L5.49261 4.00045L5.0002 2.76944ZM13 1.75C13 1.33579 12.6642 1 12.25 1C11.8358 1 11.5 1.33579 11.5 1.75V12.4393L10.7803 11.7197C10.4874 11.4268 10.0126 11.4268 9.71968 11.7197C9.42678 12.0126 9.42678 12.4874 9.71968 12.7803L11.7197 14.7803C12.0126 15.0732 12.4874 15.0732 12.7803 14.7803L14.7803 12.7803C15.0732 12.4874 15.0732 12.0126 14.7803 11.7197C14.4874 11.4268 14.0126 11.4268 13.7197 11.7197L13 12.4393V1.75ZM2.5 9.75C2.5 9.33579 2.16421 9 1.75 9C1.33579 9 1 9.33579 1 9.75V14.25C1 14.6642 1.33579 15 1.75 15H7.75C8.16421 15 8.5 14.6642 8.5 14.25V9.75C8.5 9.33579 8.16421 9 7.75 9C7.33579 9 7 9.33579 7 9.75V13.5H5.5V11.75C5.5 11.3358 5.16421 11 4.75 11C4.33579 11 4 11.3358 4 11.75V13.5H2.5V9.75Z" fill="#212121"/>
</svg>
