<svg width="32" height="32" viewBox="0 0 32 32" fill="none" xmlns="http://www.w3.org/2000/svg">
<path d="M9.39369 10.0811C8.88606 9.86356 8.29818 10.0987 8.08062 10.6063C7.86307 11.114 8.09822 11.7018 8.60585 11.9194L14.9998 14.6597V18.8732C15.5057 17.8943 16.1861 17.0202 16.9998 16.2919V14.6597L23.3937 11.9194C23.9013 11.7018 24.1365 11.114 23.9189 10.6063C23.7014 10.0987 23.1135 9.86356 22.6059 10.0811L15.9998 12.9123L9.39369 10.0811ZM14.5641 27.3767C14.7865 27.4622 15.0147 27.5272 15.2459 27.5716C15.6864 28.3172 16.2315 28.9938 16.8609 29.5812C15.8509 29.7276 14.8124 29.615 13.8461 29.2434L3.92306 25.4268C2.76449 24.9812 2 23.8681 2 22.6268V9.37395C2 8.13263 2.76449 7.01952 3.92306 6.57391L13.8461 2.75735C15.2325 2.22411 16.7675 2.22411 18.1539 2.75735L28.0769 6.57391C29.2355 7.01952 30 8.13263 30 9.37395V17.3427C29.4298 16.638 28.7553 16.0211 28 15.5155V9.37395C28 8.96018 27.7452 8.58914 27.359 8.4406L17.4359 4.62404C16.5116 4.26855 15.4884 4.26855 14.5641 4.62404L4.64102 8.4406C4.25483 8.58914 4 8.96018 4 9.37395V22.6268C4 23.0405 4.25483 23.4116 4.64102 23.5601L14.5641 27.3767ZM23 15.5C27.1421 15.5 30.5 18.8579 30.5 23C30.5 27.1421 27.1421 30.5 23 30.5C18.8579 30.5 15.5 27.1421 15.5 23C15.5 18.8579 18.8579 15.5 23 15.5ZM22.2803 26.5303L27.5303 21.2803C27.8232 20.9874 27.8232 20.5126 27.5303 20.2197C27.2374 19.9268 26.7626 19.9268 26.4697 20.2197L21.75 24.9393L19.7803 22.9697C19.4874 22.6768 19.0126 22.6768 18.7197 22.9697C18.4268 23.2626 18.4268 23.7374 18.7197 24.0303L21.2197 26.5303C21.5126 26.8232 21.9874 26.8232 22.2803 26.5303Z" fill="#212121"/>
</svg>
