<svg width="16" height="16" viewBox="0 0 16 16" fill="none" xmlns="http://www.w3.org/2000/svg">
<path d="M7.5 9C7.61804 9 7.73328 9.01261 7.8457 9.03223L6.43945 10.4395C5.85367 11.0252 5.85367 11.9748 6.43945 12.5605L7.43457 13.5557C6.72424 13.8448 5.88496 14 5 14C3.82495 14 2.72972 13.7281 1.91113 13.2295C1.09166 12.7303 0.5 11.9652 0.5 11C0.5 9.89543 1.39543 9 2.5 9H7.5ZM13.1465 9.14648C13.3417 8.95122 13.6583 8.95122 13.8535 9.14648L15.8535 11.1465C16.0488 11.3417 16.0488 11.6583 15.8535 11.8535L13.8535 13.8535C13.6583 14.0488 13.3417 14.0488 13.1465 13.8535C12.9512 13.6583 12.9512 13.3417 13.1465 13.1465L14.293 12H8.70703L9.85352 13.1465C10.0488 13.3417 10.0488 13.6583 9.85352 13.8535C9.65825 14.0488 9.34175 14.0488 9.14648 13.8535L7.14648 11.8535C6.95122 11.6583 6.95122 11.3417 7.14648 11.1465L9.14648 9.14648C9.34175 8.95122 9.65825 8.95122 9.85352 9.14648C10.0488 9.34175 10.0488 9.65825 9.85352 9.85352L8.70703 11H14.293L13.1465 9.85352C12.9512 9.65825 12.9512 9.34175 13.1465 9.14648ZM5 2.5C6.51878 2.5 7.75 3.73122 7.75 5.25C7.75 6.76878 6.51878 8 5 8C3.48122 8 2.25 6.76878 2.25 5.25C2.25 3.73122 3.48122 2.5 5 2.5ZM11.502 3.49707C12.7453 3.4972 13.7538 4.50466 13.7539 5.74805C13.7539 6.99155 12.7454 7.99987 11.502 8C10.2584 8 9.25 6.99163 9.25 5.74805C9.25013 4.50457 10.2585 3.49707 11.502 3.49707Z" fill="#212121"/>
</svg>
