<svg width="48" height="48" viewBox="0 0 48 48" fill="none" xmlns="http://www.w3.org/2000/svg">
<path d="M25.25 5.25C25.25 4.55964 24.6904 4 24 4C23.3096 4 22.75 4.55964 22.75 5.25V7H15.25C12.9028 7 11 8.90279 11 11.25V19.75C11 22.0972 12.9028 24 15.25 24H28.0686C30.0749 22.7331 32.4518 22 35 22C35.4437 22 35.8821 22.0222 36.3144 22.0656C36.748 21.3995 37 20.6042 37 19.75V11.25C37 8.90279 35.0972 7 32.75 7H25.25V5.25ZM12.25 28H24.0436C22.75 30.0206 22 32.4227 22 35C22 38.4745 23.3631 41.6307 25.5837 43.9629C25.0677 43.9876 24.5397 44 24 44C19.0595 44 15.1003 42.957 12.3362 41.085C9.53483 39.1876 8 36.4536 8 33.3V32.25C8 29.9028 9.90279 28 12.25 28ZM19 18C17.6193 18 16.5 16.8807 16.5 15.5C16.5 14.1193 17.6193 13 19 13C20.3807 13 21.5 14.1193 21.5 15.5C21.5 16.8807 20.3807 18 19 18ZM31.5 15.5C31.5 16.8807 30.3807 18 29 18C27.6193 18 26.5 16.8807 26.5 15.5C26.5 14.1193 27.6193 13 29 13C30.3807 13 31.5 14.1193 31.5 15.5ZM46 35C46 41.0751 41.0751 46 35 46C28.9249 46 24 41.0751 24 35C24 28.9249 28.9249 24 35 24C41.0751 24 46 28.9249 46 35ZM36 28C36 27.4477 35.5523 27 35 27C34.4477 27 34 27.4477 34 28V34H28C27.4477 34 27 34.4477 27 35C27 35.5523 27.4477 36 28 36H34V42C34 42.5523 34.4477 43 35 43C35.5523 43 36 42.5523 36 42V36H42C42.5523 36 43 35.5523 43 35C43 34.4477 42.5523 34 42 34H36V28Z" fill="#212121"/>
</svg>
