<svg width="32" height="32" viewBox="0 0 32 32" fill="none" xmlns="http://www.w3.org/2000/svg">
<path d="M17 3C17 2.44772 16.5523 2 16 2C15.4477 2 15 2.44772 15 3V4H10.25C8.45507 4 7 5.45508 7 7.25V12.75C7 14.5449 8.45507 16 10.25 16H17.3427C18.8884 14.7492 20.8567 14 23 14C23.5744 14 24.1362 14.0538 24.6807 14.1567C24.8853 13.731 25 13.2539 25 12.75V7.25C25 5.45507 23.5449 4 21.75 4H17V3ZM8.25 19H14.9355C14.6232 19.6285 14.3822 20.2987 14.223 21H8.25C7.55964 21 7 21.5596 7 22.25V22.7C7 24.1295 7.67977 25.4072 9.12188 26.3677C10.5163 27.2964 12.6399 27.9301 15.5119 27.9946C16.0075 28.7361 16.6104 29.3999 17.2982 29.9638C16.8771 29.9878 16.4442 30 16 30C12.6342 30 9.91936 29.3018 8.01325 28.0323C6.07699 26.7428 5 24.8705 5 22.7V22.25C5 20.4551 6.45507 19 8.25 19ZM9 7.25C9 6.55964 9.55964 6 10.25 6H21.75C22.4404 6 23 6.55964 23 7.25V12.75C23 13.4404 22.4404 14 21.75 14H10.25C9.55964 14 9 13.4404 9 12.75V7.25ZM14.25 10C14.25 10.9665 13.4665 11.75 12.5 11.75C11.5335 11.75 10.75 10.9665 10.75 10C10.75 9.0335 11.5335 8.25 12.5 8.25C13.4665 8.25 14.25 9.0335 14.25 10ZM19.5 11.75C20.4665 11.75 21.25 10.9665 21.25 10C21.25 9.0335 20.4665 8.25 19.5 8.25C18.5335 8.25 17.75 9.0335 17.75 10C17.75 10.9665 18.5335 11.75 19.5 11.75ZM23 30.5C27.1421 30.5 30.5 27.1421 30.5 23C30.5 18.8579 27.1421 15.5 23 15.5C18.8579 15.5 15.5 18.8579 15.5 23C15.5 27.1421 18.8579 30.5 23 30.5ZM24 18.25V22H27.75C28.1642 22 28.5 22.3358 28.5 22.75C28.5 23.1642 28.1642 23.5 27.75 23.5H24V27.25C24 27.6642 23.6642 28 23.25 28C22.8358 28 22.5 27.6642 22.5 27.25V23.5H18.75C18.3358 23.5 18 23.1642 18 22.75C18 22.3358 18.3358 22 18.75 22H22.5V18.25C22.5 17.8358 22.8358 17.5 23.25 17.5C23.6642 17.5 24 17.8358 24 18.25Z" fill="#212121"/>
</svg>
