<svg width="24" height="24" viewBox="0 0 24 24" fill="none" xmlns="http://www.w3.org/2000/svg">
<path d="M14.25 2.00098C14.6297 2.00098 14.9435 2.28313 14.9932 2.64921L15 2.75098V3.50309C15 4.13585 14.8041 4.72286 14.4696 5.20678C15.8646 5.68497 16.8883 6.96509 16.9914 8.49751L17.2469 8.49759C18.4895 8.49246 19.4927 7.48094 19.4876 6.23831L19.4814 4.75272C19.4797 4.33851 19.8141 4.00133 20.2283 3.99961C20.6425 3.99791 20.9797 4.33231 20.9814 4.74652L20.9876 6.23211C20.9958 8.23635 19.4302 9.87985 17.4522 9.99156L17.2376 9.99761L17 9.99698V11.499L21.2528 11.4996C21.6325 11.4996 21.9463 11.7818 21.996 12.1478L22.0028 12.2496C22.0028 12.6293 21.7207 12.9431 21.3546 12.9928L21.2528 12.9996H17.0004L17 14.999L17.2376 14.9996L17.4522 15.0057C19.3643 15.1136 20.891 16.653 20.9832 18.5659L20.9876 18.7651L20.9814 20.2507C20.9797 20.6649 20.6425 20.9993 20.2283 20.9976C19.8486 20.996 19.536 20.7126 19.4878 20.3463L19.4814 20.2445L19.4876 18.7589C19.4925 17.5681 18.5714 16.5895 17.4009 16.5055L17.2469 16.4996L16.7713 16.4996C16.1343 18.5284 14.239 20.0001 12 20.0001C9.76098 20.0001 7.86569 18.5284 7.22873 16.4996L6.74073 16.4996C5.4981 16.5048 4.49492 17.5163 4.50005 18.7589L4.50619 20.2445C4.50791 20.6587 4.17351 20.9959 3.7593 20.9976C3.34509 20.9993 3.00792 20.6649 3.00621 20.2507L3 18.7651C2.99178 16.7609 4.55736 15.1174 6.5354 15.0057L6.75003 14.9996L7 14.999V12.999L2.75 12.9996C2.3703 12.9996 2.05651 12.7175 2.00685 12.3514L2 12.2496C2 11.8699 2.28215 11.5561 2.64823 11.5065L2.75 11.4996L7 11.499V9.99698L6.75 9.99761L6.53536 9.99155C4.62326 9.88357 3.09658 8.34421 3.00438 6.43128L3 6.23211L3.00617 4.74651C3.00789 4.3323 3.34506 3.9979 3.75927 3.99961C4.13896 4.00118 4.45159 4.28463 4.49973 4.65091L4.50616 4.75271L4.50002 6.23831C4.4951 7.42916 5.41622 8.40776 6.58667 8.49176L6.7407 8.49759L7.00857 8.49751C7.11171 6.96509 8.13544 5.68497 9.53135 5.20555C9.23317 4.7765 9.04526 4.26501 9.00718 3.71223L9 3.50309V2.75098C9 2.33676 9.33579 2.00098 9.75 2.00098C10.1297 2.00098 10.4435 2.28313 10.4932 2.64921L10.5 2.75098V3.50309C10.5 4.33151 11.1716 5.00309 12 5.00309C12.7797 5.00309 13.4204 4.4082 13.4931 3.64755L13.5 3.50309V2.75098C13.5 2.33676 13.8358 2.00098 14.25 2.00098Z" fill="#212121"/>
</svg>
