<svg width="20" height="20" viewBox="0 0 20 20" fill="none" xmlns="http://www.w3.org/2000/svg">
<path d="M13.999 7C14.5513 7 14.999 6.55228 14.999 6C14.999 5.44772 14.5513 5 13.999 5C13.4467 5 12.999 5.44772 12.999 6C12.999 6.55228 13.4467 7 13.999 7ZM11.1282 2.00004C10.5942 1.99654 10.0809 2.20681 9.70272 2.58399L3.02118 9.24852C2.23844 10.0293 2.23763 11.297 3.01938 12.0788L7.96778 17.0271C7.97875 17.0381 7.98981 17.0489 8.00097 17.0596C8.00526 16.9264 8.02383 16.7905 8.05813 16.6532L8.24813 15.8933L3.72649 11.3716C3.33561 10.9808 3.33601 10.3469 3.72739 9.95653L10.4089 3.29199C10.598 3.1034 10.8546 2.99827 11.1217 3.00002L16.0121 3.03208C16.5612 3.03568 17.0047 3.48143 17.0055 4.03058L17.0116 8.13729C17.3711 8.25261 17.7123 8.44057 18.0124 8.70117L18.0055 4.02911C18.0039 2.93081 17.1169 2.0393 16.0186 2.0321L11.1282 2.00004ZM9.97975 14.3772L14.8092 9.54776C15.5395 8.81741 16.7237 8.81741 17.454 9.54776C18.1843 10.2781 18.1843 11.4622 17.454 12.1926L12.6246 17.022C12.343 17.3036 11.9902 17.5033 11.6039 17.5999L10.106 17.9744C9.45456 18.1372 8.86451 17.5472 9.02737 16.8958L9.40184 15.3979C9.49842 15.0116 9.69818 14.6588 9.97975 14.3772Z" fill="#212121"/>
</svg>
