<svg width="20" height="20" viewBox="0 0 20 20" fill="none" xmlns="http://www.w3.org/2000/svg">
<path d="M3.09853 3C3.2603 3 3.3915 2.88404 3.51999 2.77047C3.56702 2.7289 3.61368 2.68766 3.66135 2.65254C3.77758 2.5669 3.97585 2.5 4.24865 2.5C4.77274 2.5 4.99865 2.82221 4.99865 3H4.00005C3.1716 3 2.5 3.67159 2.5 4.50005C2.5 5.3285 3.1716 6.0001 4.00005 6.0001H4.07143C4.43069 6.0001 4.767 5.90186 5.05498 5.73079C5.13837 5.89077 5.30575 6 5.49865 6C5.77479 6 5.99865 5.77614 5.99865 5.5V4.1445C5.99955 4.12028 6 4.09596 6 4.07153V3.5C6 3.48752 5.99954 3.47516 5.99865 3.46291V3C5.99865 2.07322 5.10526 1.5 4.24865 1.5C3.83108 1.5 3.40436 1.59977 3.06817 1.84746C2.84112 2.01475 2.67092 2.23913 2.57812 2.50864C2.48822 2.76973 2.7225 3 2.99865 3H3.09853ZM4.99865 4V4.12212C4.97237 4.61143 4.56729 5.0001 4.07143 5.0001H4.00005C3.72388 5.0001 3.5 4.77622 3.5 4.50005C3.5 4.22388 3.72388 4 4.00005 4H4.99865ZM8.75 4C8.33579 4 8 4.33579 8 4.75C8 5.16421 8.33579 5.5 8.75 5.5H16.25C16.6642 5.5 17 5.16421 17 4.75C17 4.33579 16.6642 4 16.25 4H8.75ZM8.75 9C8.33579 9 8 9.33579 8 9.75C8 10.1642 8.33579 10.5 8.75 10.5H16.25C16.6642 10.5 17 10.1642 17 9.75C17 9.33579 16.6642 9 16.25 9H8.75ZM8.75 14C8.33579 14 8 14.3358 8 14.75C8 15.1642 8.33579 15.5 8.75 15.5H16.25C16.6642 15.5 17 15.1642 17 14.75C17 14.3358 16.6642 14 16.25 14H8.75ZM3.5 7C3.77614 7 4 7.22386 4 7.5V8.19718C4.26981 8.06302 4.57039 8 4.875 8C5.9506 8 6.75 8.93727 6.75 10C6.75 11.0627 5.9506 12 4.875 12C4.5419 12 4.21363 11.9246 3.92513 11.7633C3.83695 11.9054 3.67952 12 3.5 12C3.22386 12 3 11.7761 3 11.5V7.5C3 7.22386 3.22386 7 3.5 7ZM4.25711 10.7723C4.39701 10.9128 4.60527 11 4.875 11C5.31819 11 5.75 10.5941 5.75 10C5.75 9.40587 5.31819 9 4.875 9C4.60527 9 4.39701 9.08717 4.25711 9.22772C4.11915 9.36634 4 9.60496 4 10C4 10.395 4.11915 10.6337 4.25711 10.7723ZM3.5 15.75C3.5 15.3645 3.61573 15.0571 3.80528 14.8513C3.98864 14.6522 4.28492 14.5 4.75 14.5C5.20772 14.5 5.50196 14.6484 5.68579 14.8432C5.87534 15.044 6.19179 15.0532 6.39261 14.8636C6.59342 14.6741 6.60255 14.3576 6.413 14.1568C6.01364 13.7337 5.44161 13.5 4.75 13.5C4.04841 13.5 3.46969 13.7395 3.06972 14.1738C2.67594 14.6014 2.5 15.169 2.5 15.75C2.5 16.331 2.67594 16.8986 3.06972 17.3262C3.46969 17.7605 4.04841 18 4.75 18C5.44161 18 6.01364 17.7663 6.413 17.3432C6.60255 17.1424 6.59342 16.8259 6.39261 16.6364C6.19179 16.4468 5.87534 16.456 5.68579 16.6568C5.50196 16.8516 5.20772 17 4.75 17C4.28492 17 3.98864 16.8478 3.80528 16.6487C3.61573 16.4429 3.5 16.1355 3.5 15.75Z" fill="#212121"/>
</svg>
