<svg width="20" height="20" viewBox="0 0 20 20" fill="none" xmlns="http://www.w3.org/2000/svg">
<path d="M3.5003 3C3.22416 3 3.0003 3.22386 3.0003 3.5C3.0003 3.77614 3.22416 4 3.5003 4H4.2503L2.07722 9.21538C2.02782 9.33395 1.99682 9.47168 2.00266 9.61978C2.06572 11.2213 3.38356 12.5 5.0003 12.5C6.61704 12.5 7.93488 11.2213 7.99795 9.61978C8.00378 9.47168 7.97278 9.33395 7.92338 9.21538L5.7503 4H9.5003V14H6.0003C4.89573 14 4.0003 14.8954 4.0003 16C4.0003 17.1046 4.89573 18 6.0003 18H14.0003C15.1049 18 16.0003 17.1046 16.0003 16C16.0003 14.8954 15.1049 14 14.0003 14H10.5003V4H14.2503L12.0772 9.21538C12.0278 9.33395 11.9968 9.47168 12.0027 9.61978C12.0657 11.2213 13.3836 12.5 15.0003 12.5C16.617 12.5 17.9349 11.2213 17.9979 9.61978C18.0038 9.47168 17.9728 9.33395 17.9234 9.21538L15.7503 4H16.5003C16.7764 4 17.0003 3.77614 17.0003 3.5C17.0003 3.22386 16.7764 3 16.5003 3H3.5003ZM5.0003 11.5C4.0684 11.5 3.28522 10.8625 3.06326 10H6.93734C6.71538 10.8625 5.9322 11.5 5.0003 11.5ZM5.0003 4.8L6.7503 9H3.2503L5.0003 4.8ZM6.0003 15H14.0003C14.5526 15 15.0003 15.4477 15.0003 16C15.0003 16.5523 14.5526 17 14.0003 17H6.0003C5.44802 17 5.0003 16.5523 5.0003 16C5.0003 15.4477 5.44802 15 6.0003 15ZM16.7503 9H13.2503L15.0003 4.8L16.7503 9ZM13.0633 10H16.9373C16.7154 10.8625 15.9322 11.5 15.0003 11.5C14.0684 11.5 13.2852 10.8625 13.0633 10Z" fill="#212121"/>
</svg>
