<?xml version="1.0" encoding="UTF-8"?>
<svg width="24px" height="24px" viewBox="0 0 24 24" version="1.1" xmlns="http://www.w3.org/2000/svg" xmlns:xlink="http://www.w3.org/1999/xlink">
    <!-- Generator: Sketch 59.1 (86144) - https://sketch.com -->
    <title>ic_brand_wunderlist_24_color</title>
    <desc>Created with Sketch.</desc>
    <g id="ðŸ”-Product-Icons" stroke="none" stroke-width="1" fill="none" fill-rule="evenodd">
        <g id="ic_brand_wunderlist_24_color" fill="#D42B2B">
            <path d="M20.2703,14.8895675 C20.2296197,16.8782121 20.2296197,17.7386575 19.9819786,18.5478959 C19.7298044,19.2103969 19.2100099,19.7301898 18.5476748,19.9821954 C17.7391056,20.2295 16.8784898,20.2295 15.0271416,20.2295 L8.9726102,20.2295 C7.12126202,20.2295 6.26098198,20.2295 5.45190908,19.9821954 C4.78940614,19.7300219 4.26977953,19.2103969 4.01794111,18.5482317 C3.77046789,17.7388254 3.7703,16.8782121 3.7703,14.8895675 L3.7703,8.88958522 C3.7703,7.12151684 3.7703,6.26107145 4.01794111,5.45200094 C4.26961164,4.78966785 4.78940614,4.26987489 5.45190908,4.01770143 C5.62634916,3.96431184 5.80414708,3.92301047 5.99285801,3.89027157 C5.99336168,5.99378773 5.9952085,16.5971613 5.99386536,18.6444337 C5.99352958,18.7985583 6.11676251,18.9214551 6.26870502,18.9214551 C6.31319648,18.9214551 12.0307681,17.2030827 12.0307681,17.2030827 C12.0307681,17.2030827 17.6815186,18.9175936 17.7292,18.9175936 C17.8811425,18.9175936 18.0042075,18.7946968 18.0042075,18.6430905 C18.0042075,18.6412437 18.0037038,3.8896 18.0037038,3.8896 C18.19359,3.92250679 18.3722274,3.96397606 18.5476748,4.01770143 C19.2100099,4.269707 19.7299723,4.78966785 19.9819786,5.45250462 C20.2296197,6.26140723 20.2296197,7.12168474 20.2703,8.88958522 L20.2703,14.8895675 Z M10.9995685,9.84508365 L12.0084376,6.8269 L13.0161315,9.84508365 L16.2793,9.84508365 L13.6395182,11.7075029 L14.6478836,14.7915 L12.0084376,12.8607489 L9.36848794,14.7658126 L10.3763497,11.7162333 L7.7364,9.84508365 L10.9995685,9.84508365 Z M19.1193043,2.3414929 C18.0389174,2 17.0350895,2 15.0270978,2 L8.9725664,2 C6.96440684,2 5.96091468,2 4.88035996,2.3414929 C3.70007723,2.77112924 2.77079346,3.70041302 2.3414929,4.88069575 C2,5.96141835 2,6.9652463 2,8.97323797 L2,15.026762 C2,17.0347537 2,18.0385816 2.3414929,19.11964 C2.77079346,20.2994191 3.70007723,21.2288708 4.88035996,21.6585071 C5.96091468,22 6.96440684,22 8.9725664,22 L15.0270978,22 C17.0350895,22 18.0389174,22 19.1193043,21.6585071 C20.299587,21.2288708 21.228535,20.2994191 21.6581713,19.11964 C22,18.0385816 22,17.0347537 22,15.026762 L22,8.97323797 C22,6.9652463 22,5.96141835 21.6581713,4.88069575 C21.228535,3.70041302 20.299587,2.77112924 19.1193043,2.3414929 Z" id="wunderlist"></path>
        </g>
    </g>
</svg>