<svg width="16" height="16" viewBox="0 0 16 16" fill="none" xmlns="http://www.w3.org/2000/svg">
<path d="M7.99996 1C11.6259 1 14.6075 3.75703 14.9638 7.28908C14.6032 6.78857 14.1613 6.35072 13.6562 5.99611C12.8313 3.66797 10.6108 2 7.99996 2C4.6864 2.00018 1.99995 4.68641 1.99995 8.00002C1.99995 9.18013 2.34144 10.2792 2.92964 11.2071C3.01008 11.3339 3.02986 11.4903 2.98238 11.6328L2.28999 13.708L4.36617 13.0166C4.51606 12.9842 4.65578 12.9831 4.79195 13.0694C5.16638 13.3068 5.56992 13.5015 5.9941 13.6524C6.34914 14.1589 6.78739 14.6024 7.28903 14.9639C6.26557 14.8601 5.30691 14.5354 4.46187 14.0391L1.65816 14.9746C1.4786 15.0344 1.28028 14.9873 1.14644 14.8535C1.0127 14.7197 0.965574 14.5214 1.02534 14.3418L1.95894 11.5362C1.3501 10.4985 0.999952 9.28978 0.999952 8.00002C0.999952 4.13412 4.13412 1.00018 7.99996 1ZM10.5 6.00001C12.9853 6.00001 15 8.01473 15 10.5C15 12.9853 12.9853 15 10.5 15C8.01476 14.9999 5.99996 12.9853 5.99996 10.5C5.99996 8.01479 8.01476 6.0001 10.5 6.00001ZM9.60348 7.8965C9.40821 7.70132 9.09169 7.70126 8.89645 7.8965L7.14645 9.6465C7.05063 9.74237 6.99996 9.86447 6.99996 10C6.99996 10.1346 7.05002 10.256 7.14449 10.3516L8.89645 12.1035C9.09169 12.2988 9.40821 12.2987 9.60348 12.1035C9.79875 11.9083 9.79875 11.5918 9.60348 11.3965L8.707 10.5H10.25C11.2165 10.5 12 11.2835 12 12.25V12.5C12 12.7761 12.2239 12.9999 12.5 13C12.7761 13 13 12.7762 13 12.5V12.25C13 10.7312 11.7688 9.50002 10.25 9.50002H8.707L9.60348 8.60353C9.79875 8.40827 9.79875 8.09176 9.60348 7.8965Z" fill="#212121"/>
</svg>
