<svg width="20" height="20" viewBox="0 0 20 20" fill="none" xmlns="http://www.w3.org/2000/svg">
<path d="M8 9C8 7.34315 9.34315 6 11 6C12.6569 6 14 7.34315 14 9C14 10.6569 12.6569 12 11 12C9.34315 12 8 10.6569 8 9ZM11 7C9.89543 7 9 7.89543 9 9C9 10.1046 9.89543 11 11 11C12.1046 11 13 10.1046 13 9C13 7.89543 12.1046 7 11 7ZM9 1.5C9 1.22386 8.77614 1 8.5 1C8.22386 1 8 1.22386 8 1.5V3H7.5C6.11929 3 5 4.11929 5 5.5V6H3.5C3.22386 6 3 6.22386 3 6.5C3 6.77614 3.22386 7 3.5 7H5V8.5H3.5C3.22386 8.5 3 8.72386 3 9C3 9.08523 3.02132 9.16547 3.05893 9.23569C3.51135 9.08286 3.996 9 4.5 9C5.02595 9 5.53083 9.09023 6 9.25606V5.5C6 4.67157 6.67157 4 7.5 4H14.5C15.3284 4 16 4.67157 16 5.5V12.5C16 13.3284 15.3284 14 14.5 14H8.97254C8.93421 14.3467 8.85648 14.6816 8.74394 15H10.5V16.5C10.5 16.7761 10.7239 17 11 17C11.2761 17 11.5 16.7761 11.5 16.5V15H13V16.5C13 16.7761 13.2239 17 13.5 17C13.7761 17 14 16.7761 14 16.5V15H14.5C15.8807 15 17 13.8807 17 12.5V12H18.5C18.7761 12 19 11.7761 19 11.5C19 11.2239 18.7761 11 18.5 11H17V9.5H18.5C18.7761 9.5 19 9.27614 19 9C19 8.72386 18.7761 8.5 18.5 8.5H17V7H18.5C18.7761 7 19 6.77614 19 6.5C19 6.22386 18.7761 6 18.5 6H17V5.5C17 4.11929 15.8807 3 14.5 3H14V1.5C14 1.22386 13.7761 1 13.5 1C13.2239 1 13 1.22386 13 1.5V3H11.5V1.5C11.5 1.22386 11.2761 1 11 1C10.7239 1 10.5 1.22386 10.5 1.5V3H9V1.5ZM4.5 17C5.28618 17 6.01182 16.7408 6.59612 16.3032L9.14644 18.8536C9.3417 19.0488 9.65828 19.0488 9.85355 18.8536C10.0488 18.6583 10.0488 18.3417 9.85356 18.1465L7.30322 15.5961C7.74081 15.0118 8 14.2862 8 13.5C8 11.567 6.433 10 4.5 10C2.567 10 1 11.567 1 13.5C1 15.433 2.567 17 4.5 17ZM4.5 16C3.11929 16 2 14.8807 2 13.5C2 12.1193 3.11929 11 4.5 11C5.88071 11 7 12.1193 7 13.5C7 14.8807 5.88071 16 4.5 16Z" fill="#212121"/>
</svg>
