<svg width="20" height="20" viewBox="0 0 20 20" fill="none" xmlns="http://www.w3.org/2000/svg">
<path d="M13 9C13 10.1046 12.1046 11 11 11C9.89543 11 9 10.1046 9 9C9 7.89543 9.89543 7 11 7C12.1046 7 13 7.89543 13 9ZM8.5 1C8.77614 1 9 1.22386 9 1.5V3H10.5V1.5C10.5 1.22386 10.7239 1 11 1C11.2761 1 11.5 1.22386 11.5 1.5V3H13V1.5C13 1.22386 13.2239 1 13.5 1C13.7761 1 14 1.22386 14 1.5V3H14.5C15.8807 3 17 4.11929 17 5.5V6H18.5C18.7761 6 19 6.22386 19 6.5C19 6.77614 18.7761 7 18.5 7H17V8.5H18.5C18.7761 8.5 19 8.72386 19 9C19 9.27614 18.7761 9.5 18.5 9.5H17V11H18.5C18.7761 11 19 11.2239 19 11.5C19 11.7761 18.7761 12 18.5 12H17V12.5C17 13.8807 15.8807 15 14.5 15H14V16.5C14 16.7761 13.7761 17 13.5 17C13.2239 17 13 16.7761 13 16.5V15H11.5V16.5C11.5 16.7761 11.2761 17 11 17C10.7239 17 10.5 16.7761 10.5 16.5V15H8.74394C8.90977 14.5308 9 14.026 9 13.5C9 11.0147 6.98528 9 4.5 9C3.996 9 3.51135 9.08286 3.05893 9.23569C3.02132 9.16547 3 9.08523 3 9C3 8.72386 3.22386 8.5 3.5 8.5H5V7H3.5C3.22386 7 3 6.77614 3 6.5C3 6.22386 3.22386 6 3.5 6H5V5.5C5 4.11929 6.11929 3 7.5 3H8V1.5C8 1.22386 8.22386 1 8.5 1ZM11 12C12.6569 12 14 10.6569 14 9C14 7.34315 12.6569 6 11 6C9.34315 6 8 7.34315 8 9C8 10.6569 9.34315 12 11 12ZM4.5 17C5.28618 17 6.01182 16.7408 6.59612 16.3032L9.14644 18.8536C9.3417 19.0488 9.65828 19.0488 9.85355 18.8536C10.0488 18.6583 10.0488 18.3417 9.85356 18.1465L7.30322 15.5961C7.74081 15.0118 8 14.2862 8 13.5C8 11.567 6.433 10 4.5 10C2.567 10 1 11.567 1 13.5C1 15.433 2.567 17 4.5 17ZM4.5 16C3.11929 16 2 14.8807 2 13.5C2 12.1193 3.11929 11 4.5 11C5.88071 11 7 12.1193 7 13.5C7 14.8807 5.88071 16 4.5 16Z" fill="#212121"/>
</svg>
