<svg width="24" height="24" viewBox="0 0 24 24" fill="none" xmlns="http://www.w3.org/2000/svg">
<path d="M16.7808 7.21967C16.9215 7.36032 17.0005 7.55109 17.0005 7.75V10.25C17.0005 10.6642 16.6647 11 16.2505 11C15.8363 11 15.5005 10.6642 15.5005 10.25V9.56014L13.7801 11.2798C13.4871 11.5727 13.0123 11.5726 12.7194 11.2796C12.4266 10.9867 12.4267 10.5118 12.7197 10.219L14.4393 8.5H13.7493C13.3351 8.5 12.9993 8.16421 12.9993 7.75C12.9993 7.33579 13.3351 7 13.7493 7L16.2505 7C16.4494 7 16.6402 7.07902 16.7808 7.21967Z" fill="#212121"/>
<path d="M7 16.2499C7 16.4488 7.07902 16.6396 7.21967 16.7802C7.36032 16.9209 7.55109 16.9999 7.75 16.9999H10.2512C10.6654 16.9999 11.0012 16.6641 11.0012 16.2499C11.0012 15.8357 10.6654 15.4999 10.2512 15.4999H9.56045L11.2804 13.7797C11.5732 13.4868 11.5732 13.0119 11.2803 12.719C10.9874 12.4261 10.5125 12.4262 10.2196 12.7191L8.5 14.439V13.7499C8.5 13.3357 8.16421 12.9999 7.75 12.9999C7.33579 12.9999 7 13.3357 7 13.7499L7 16.2499Z" fill="#212121"/>
<path d="M2 6.75C2 5.23122 3.23122 4 4.75 4H19.25C20.7688 4 22 5.23122 22 6.75V17.25C22 18.7688 20.7688 20 19.25 20H4.75C3.23122 20 2 18.7688 2 17.25V6.75ZM4.75 5.5C4.05964 5.5 3.5 6.05964 3.5 6.75V17.25C3.5 17.9404 4.05964 18.5 4.75 18.5H19.25C19.9404 18.5 20.5 17.9404 20.5 17.25V6.75C20.5 6.05964 19.9404 5.5 19.25 5.5H4.75Z" fill="#212121"/>
</svg>
