<svg width="20" height="20" viewBox="0 0 20 20" fill="none" xmlns="http://www.w3.org/2000/svg">
<path d="M13.5 14.2071L17.1464 17.8536C17.3417 18.0488 17.6583 18.0488 17.8536 17.8536C18.0488 17.6583 18.0488 17.3417 17.8536 17.1464L2.85355 2.14645C2.65829 1.95118 2.34171 1.95118 2.14645 2.14645C1.95118 2.34171 1.95118 2.65829 2.14645 2.85355L9.00001 9.70711V9.77313L5.17075 13.1237C4.96294 13.3056 4.94188 13.6214 5.12372 13.8293C5.30556 14.0371 5.62144 14.0581 5.82926 13.8763L9.00001 11.1019V17.5C9.00001 17.7022 9.12183 17.8846 9.30867 17.962C9.4955 18.0393 9.71056 17.9966 9.85356 17.8536L13.5 14.2071ZM13.8293 6.8763L11.2524 9.13107L10.5437 8.4224L12.7685 6.47566L10 3.70712V7.8787L9.00001 6.8787V2.50001C9.00001 2.29778 9.12183 2.11547 9.30867 2.03807C9.4955 1.96068 9.71056 2.00346 9.85356 2.14646L13.8536 6.14646C13.9514 6.24431 14.0043 6.37835 13.9997 6.51665C13.9951 6.65496 13.9334 6.78518 13.8293 6.8763ZM10 11.1019L12.7685 13.5244L10 16.2929V11.1019Z" fill="#212121"/>
</svg>
