<svg width="16" height="16" viewBox="0 0 16 16" fill="none" xmlns="http://www.w3.org/2000/svg">
<path d="M14.236 1.76386C13.2123 0.740172 11.5525 0.740171 10.5289 1.76386L2.65722 9.63549C2.28304 10.0097 2.01623 10.4775 1.88467 10.99L1.01571 14.3755C0.971767 14.5467 1.02148 14.7284 1.14646 14.8534C1.27144 14.9783 1.45312 15.028 1.62432 14.9841L5.00978 14.1151C5.52234 13.9836 5.99015 13.7168 6.36433 13.3426L7 12.7069V11.2927L5.65722 12.6355C5.40969 12.883 5.10023 13.0595 4.76117 13.1465L2.19447 13.8053L2.85327 11.2386C2.9403 10.8996 3.1168 10.5901 3.36433 10.3426L9.75002 3.9569L10.8613 5.06814C11.0671 5.02351 11.2808 5 11.5 5C11.7847 5 12.0601 5.03966 12.3211 5.11375L10.4571 3.24979L11.236 2.47097C11.8691 1.8378 12.8957 1.8378 13.5288 2.47097C14.162 3.10413 14.162 4.1307 13.5288 4.76386L12.9304 5.36231C13.2285 5.52431 13.4961 5.73537 13.7223 5.98465L14.236 5.47097C15.2596 4.44728 15.2596 2.78755 14.236 1.76386ZM9.5 8V9H9C8.44772 9 8 9.44772 8 10V14C8 14.5523 8.44771 15 9 15H14C14.5523 15 15 14.5523 15 14V10C15 9.44772 14.5523 9 14 9H13.5V8C13.5 6.89543 12.6046 6 11.5 6C10.3954 6 9.5 6.89543 9.5 8ZM10.5 9V8C10.5 7.44772 10.9477 7 11.5 7C12.0523 7 12.5 7.44772 12.5 8V9H10.5ZM11.5 11.25C11.9142 11.25 12.25 11.5858 12.25 12C12.25 12.4142 11.9142 12.75 11.5 12.75C11.0858 12.75 10.75 12.4142 10.75 12C10.75 11.5858 11.0858 11.25 11.5 11.25Z" fill="#212121"/>
</svg>
