<?xml version="1.0" encoding="UTF-8"?>
<svg width="24px" height="24px" viewBox="0 0 24 24" version="1.1" xmlns="http://www.w3.org/2000/svg" xmlns:xlink="http://www.w3.org/1999/xlink">
    <!-- Generator: Sketch 58 (84663) - https://sketch.com -->
    <title>ic_lock_24_filled</title>
    <desc>Created with Sketch.</desc>
    <g id="ðŸ”-Product-Icons" stroke="none" stroke-width="1" fill="none" fill-rule="evenodd">
        <g id="ic_lock_24_filled" fill="#212121">
            <path d="M12,2 C14.209139,2 16,3.790861 16,6 L16,8 L18.5,8 C19.3284271,8 20,8.67157288 20,9.5 L20,20.5 C20,21.3284271 19.3284271,22 18.5,22 L5.5,22 C4.67157288,22 4,21.3284271 4,20.5 L4,9.5 C4,8.67157288 4.67157288,8 5.5,8 L8,8 L8,6 C8,3.790861 9.790861,2 12,2 Z M12.000125,13.5 C11.1716979,13.5 10.500125,14.1715729 10.500125,15 C10.500125,15.8284271 11.1716979,16.5 12.000125,16.5 C12.8285521,16.5 13.500125,15.8284271 13.500125,15 C13.500125,14.1715729 12.8285521,13.5 12.000125,13.5 Z M12,4 C10.8954305,4 10,4.8954305 10,6 L10,8 L14,8 L14,6 C14,4.8954305 13.1045695,4 12,4 Z" id="ðŸŽ¨-Color"></path>
        </g>
    </g>
</svg>