<svg width="20" height="20" viewBox="0 0 20 20" fill="none" xmlns="http://www.w3.org/2000/svg">
<path d="M14.6616 3.07321C14.6387 3.06509 14.615 3.05857 14.5905 3.05381C14.3194 3.00112 14.0511 3.1821 13.9984 3.45317C13.9457 3.72424 14.1267 3.99256 14.3977 4.04525C14.4188 4.04935 14.4399 4.05203 14.4609 4.05337C15.3433 4.26149 16 5.05406 16 6.00001V14C16 14.946 15.3432 15.7386 14.4608 15.9467C14.4399 15.948 14.4188 15.9507 14.3977 15.9548C14.1267 16.0075 13.9457 16.2758 13.9984 16.5469C14.0511 16.8179 14.3194 16.9989 14.5905 16.9462C14.615 16.9415 14.6388 16.9349 14.6617 16.9268C16.0002 16.6255 17 15.4295 17 14V6.00001C17 4.57049 16.0002 3.3745 14.6616 3.07321ZM5.33837 3.07321C5.36129 3.06509 5.38505 3.05857 5.40954 3.05381C5.68061 3.00112 5.94893 3.1821 6.00162 3.45317C6.05431 3.72424 5.87333 3.99256 5.60226 4.04525C5.58117 4.04935 5.56009 4.05203 5.53914 4.05337C4.65673 4.26149 4 5.05406 4 6.00001L4 14C4 14.946 4.65676 15.7386 5.53918 15.9467C5.56013 15.948 5.58118 15.9507 5.60226 15.9548C5.87333 16.0075 6.05431 16.2758 6.00162 16.5469C5.94893 16.8179 5.68061 16.9989 5.40954 16.9462C5.38502 16.9415 5.36124 16.9349 5.3383 16.9268C3.99981 16.6255 3 15.4295 3 14L3 6.00001C3 4.57049 3.99985 3.3745 5.33837 3.07321ZM8 16.5C8 16.2239 8.22386 16 8.5 16H11.5C11.7761 16 12 16.2239 12 16.5C12 16.7761 11.7761 17 11.5 17H8.5C8.22386 17 8 16.7761 8 16.5ZM8.5 3C8.22386 3 8 3.22386 8 3.5C8 3.77614 8.22386 4 8.5 4L11.5 4C11.7761 4 12 3.77614 12 3.5C12 3.22386 11.7761 3 11.5 3L8.5 3Z" fill="#212121"/>
</svg>
