<svg width="28" height="28" viewBox="0 0 28 28" fill="none" xmlns="http://www.w3.org/2000/svg">
<path d="M17 9.5C16.1716 9.5 15.5 10.1716 15.5 11C15.5 11.8284 16.1716 12.5 17 12.5C17.8284 12.5 18.5 11.8284 18.5 11C18.5 10.1716 17.8284 9.5 17 9.5ZM7.25 6.5C6.83579 6.5 6.5 6.83579 6.5 7.25V20.75C6.5 21.1642 6.83579 21.5 7.25 21.5H20.75C21.1642 21.5 21.5 21.1642 21.5 20.75V7.25C21.5 6.83579 21.1642 6.5 20.75 6.5H7.25ZM12.5858 14.5858L8 19.1716V8H20V19.1716L15.4142 14.5858C14.6332 13.8047 13.3668 13.8047 12.5858 14.5858ZM14.3536 15.6464L18.7071 20H9.29289L13.6464 15.6464C13.8417 15.4512 14.1583 15.4512 14.3536 15.6464ZM6.75 3C4.67893 3 3 4.67893 3 6.75V21.25C3 23.3211 4.67893 25 6.75 25H21.25C23.3211 25 25 23.3211 25 21.25V6.75C25 4.67893 23.3211 3 21.25 3H6.75ZM4.5 6.75C4.5 5.50736 5.50736 4.5 6.75 4.5H21.25C22.4926 4.5 23.5 5.50736 23.5 6.75V21.25C23.5 22.4926 22.4926 23.5 21.25 23.5H6.75C5.50736 23.5 4.5 22.4926 4.5 21.25V6.75Z" fill="#212121"/>
</svg>
