<svg width="32" height="32" viewBox="0 0 32 32" fill="none" xmlns="http://www.w3.org/2000/svg">
<path d="M11.369 6.22462C11.7618 5.90427 12.3408 5.92686 12.7069 6.29298C13.0729 6.6591 13.0956 7.23815 12.7753 7.63087L12.7069 7.70704L9.41395 11H18.9999C22.8659 11.0001 25.9999 14.134 25.9999 18C25.9998 21.745 23.0587 24.8037 19.3603 24.9912L18.9999 25H9.99989C9.44768 25 9.00002 24.5522 8.99989 24C8.99989 23.4477 9.44761 23 9.99989 23H18.9999L19.2567 22.9932C21.8987 22.8595 23.9998 20.6752 23.9999 18C23.9999 15.2386 21.7613 13.0001 18.9999 13H9.41395L12.7069 16.293C13.0973 16.6835 13.0974 17.3166 12.7069 17.707C12.3164 18.0974 11.6834 18.0974 11.2929 17.707L6.29285 12.707C5.90236 12.3165 5.90241 11.6835 6.29285 11.293L11.2929 6.29298L11.369 6.22462Z" fill="#212121"/>
</svg>
