<svg width="16" height="16" viewBox="0 0 16 16" fill="none" xmlns="http://www.w3.org/2000/svg">
<path d="M10 12.6222V13.6891C9.40959 13.8872 8.74039 14 8 14C4.85951 14 3 11.9714 3 10V9.5C3 8.67157 3.67157 8 4.5 8H9.12586C9.0437 8.31942 9 8.65429 9 8.99936L4.5 9C4.22386 9 4 9.22386 4 9.5V10C4 11.4376 5.43216 13 8 13C8.772 13 9.44135 12.8588 10 12.6222ZM8 1.5C9.51878 1.5 10.75 2.73122 10.75 4.25C10.75 5.76878 9.51878 7 8 7C6.48122 7 5.25 5.76878 5.25 4.25C5.25 2.73122 6.48122 1.5 8 1.5ZM8 2.5C7.0335 2.5 6.25 3.2835 6.25 4.25C6.25 5.2165 7.0335 6 8 6C8.9665 6 9.75 5.2165 9.75 4.25C9.75 3.2835 8.9665 2.5 8 2.5ZM13 11.9992C14.6569 11.9992 16 10.6561 16 8.99936C16 7.34259 14.6569 5.99951 13 5.99951C11.3431 5.99951 10 7.34259 10 8.99936C10 10.6561 11.3431 11.9992 13 11.9992ZM13 12.9991C13.7286 12.9991 14.4117 12.8044 15 12.464V14.7494C15 14.9433 14.7888 15.0634 14.6222 14.9642L13 13.9991L11.3778 14.9642C11.2112 15.0634 11 14.9433 11 14.7494V12.464C11.5883 12.8044 12.2714 12.9991 13 12.9991Z" fill="#212121"/>
</svg>
