<svg width="24" height="24" viewBox="0 0 24 24" fill="none" xmlns="http://www.w3.org/2000/svg">
<path d="M4.75 8.5C4.75 8.08579 5.08579 7.75 5.5 7.75H6.75C7.16421 7.75 7.5 8.08579 7.5 8.5C7.5 8.91421 7.16421 9.25 6.75 9.25H5.5C5.08579 9.25 4.75 8.91421 4.75 8.5ZM4.75 12C4.75 11.5858 5.08579 11.25 5.5 11.25H6.75C7.16421 11.25 7.5 11.5858 7.5 12C7.5 12.4142 7.16421 12.75 6.75 12.75H5.5C5.08579 12.75 4.75 12.4142 4.75 12ZM4.75 15.5C4.75 15.0858 5.08579 14.75 5.5 14.75H6.75C7.16421 14.75 7.5 15.0858 7.5 15.5C7.5 15.9142 7.16421 16.25 6.75 16.25H5.5C5.08579 16.25 4.75 15.9142 4.75 15.5ZM5.25 4C3.45507 4 2 5.45507 2 7.25V16.75C2 18.5449 3.45508 20 5.25 20H18.75C20.5449 20 22 18.5449 22 16.75V7.25C22 5.45507 20.5449 4 18.75 4H5.25ZM18.75 18.5H10V5.5H18.75C19.7165 5.5 20.5 6.2835 20.5 7.25V16.75C20.5 17.7165 19.7165 18.5 18.75 18.5ZM5.25 5.5H8.5V18.5H5.25C4.2835 18.5 3.5 17.7165 3.5 16.75V7.25C3.5 6.2835 4.2835 5.5 5.25 5.5Z" fill="#212121"/>
</svg>
