<svg width="24" height="24" viewBox="0 0 24 24" fill="none" xmlns="http://www.w3.org/2000/svg">
<path d="M20.2503 10C21.2168 10 22.0003 10.7835 22.0003 11.75V15C22.0003 17.1004 20.3814 18.8228 18.3232 18.9872C18.2167 18.9957 18.109 19 18.0003 19C17.8667 19 17.7345 18.9934 17.6042 18.9806C15.5805 18.7818 14 17.0749 14 14.9988V11.75C14 10.8318 14.7071 10.0788 15.6065 10.0058L20.2503 10Z" fill="url(#paint0_linear_378174_9318)"/>
<path d="M20.2503 10C21.2168 10 22.0003 10.7835 22.0003 11.75V15C22.0003 17.1004 20.3814 18.8228 18.3232 18.9872C18.2167 18.9957 18.109 19 18.0003 19C17.8667 19 17.7345 18.9934 17.6042 18.9806C15.5805 18.7818 14 17.0749 14 14.9988V11.75C14 10.8318 14.7071 10.0788 15.6065 10.0058L20.2503 10Z" fill="url(#paint1_radial_378174_9318)" fill-opacity="0.5"/>
<path d="M8.25033 10C9.21683 10 10.0003 10.7835 10.0003 11.75V15C10.0003 17.1004 8.38136 18.8228 6.32321 18.9872C6.21671 18.9957 6.10903 19 6.00033 19C5.86667 19 5.73454 18.9934 5.60425 18.9806C3.58046 18.7818 2 17.0749 2 14.9988V11.75C2 10.8318 2.70711 10.0788 3.60647 10.0058L8.25033 10Z" fill="url(#paint2_linear_378174_9318)"/>
<path d="M8.25033 10C9.21683 10 10.0003 10.7835 10.0003 11.75V15C10.0003 17.1004 8.38136 18.8228 6.32321 18.9872C6.21671 18.9957 6.10903 19 6.00033 19C5.86667 19 5.73454 18.9934 5.60425 18.9806C3.58046 18.7818 2 17.0749 2 14.9988V11.75C2 10.8318 2.70711 10.0788 3.60647 10.0058L8.25033 10Z" fill="url(#paint3_radial_378174_9318)" fill-opacity="0.5"/>
<path d="M14.7541 10C15.7205 10 16.5041 10.7835 16.5041 11.75V16.499C16.5041 18.9848 14.4889 21 12.003 21C9.51714 21 7.50195 18.9848 7.50195 16.499V11.75C7.50195 10.7835 8.28545 10 9.25195 10H14.7541Z" fill="url(#paint4_linear_378174_9318)"/>
<path d="M14.7541 10C15.7205 10 16.5041 10.7835 16.5041 11.75V16.499C16.5041 18.9848 14.4889 21 12.003 21C9.51714 21 7.50195 18.9848 7.50195 16.499V11.75C7.50195 10.7835 8.28545 10 9.25195 10H14.7541Z" fill="url(#paint5_linear_378174_9318)"/>
<path d="M18.5 4C19.8807 4 21 5.11929 21 6.5C21 7.88071 19.8807 9 18.5 9C17.1193 9 16 7.88071 16 6.5C16 5.11929 17.1193 4 18.5 4Z" fill="url(#paint6_linear_378174_9318)"/>
<path d="M5.5 4C6.88071 4 8 5.11929 8 6.5C8 7.88071 6.88071 9 5.5 9C4.11929 9 3 7.88071 3 6.5C3 5.11929 4.11929 4 5.5 4Z" fill="url(#paint7_linear_378174_9318)"/>
<path d="M12 3C13.6569 3 15 4.34315 15 6C15 7.65685 13.6569 9 12 9C10.3431 9 9 7.65685 9 6C9 4.34315 10.3431 3 12 3Z" fill="url(#paint8_linear_378174_9318)"/>
<defs>
<linearGradient id="paint0_linear_378174_9318" x1="15.9025" y1="11.1964" x2="20.7033" y2="18.0107" gradientUnits="userSpaceOnUse">
<stop offset="0.125321" stop-color="#7A41DC"/>
<stop offset="1" stop-color="#5B2AB5"/>
</linearGradient>
<radialGradient id="paint1_radial_378174_9318" cx="0" cy="0" r="1" gradientUnits="userSpaceOnUse" gradientTransform="translate(12.7427 14.2891) scale(6.43822 12.2867)">
<stop offset="0.432701" stop-color="#3B148A"/>
<stop offset="1" stop-color="#3B148A" stop-opacity="0"/>
</radialGradient>
<linearGradient id="paint2_linear_378174_9318" x1="3.90251" y1="11.1964" x2="8.70327" y2="18.0107" gradientUnits="userSpaceOnUse">
<stop offset="0.125321" stop-color="#9C6CFE"/>
<stop offset="1" stop-color="#7A41DC"/>
</linearGradient>
<radialGradient id="paint3_radial_378174_9318" cx="0" cy="0" r="1" gradientUnits="userSpaceOnUse" gradientTransform="translate(12.592 14.2891) rotate(180) scale(7.12497 13.5973)">
<stop offset="0.432701" stop-color="#3B148A"/>
<stop offset="1" stop-color="#3B148A" stop-opacity="0"/>
</radialGradient>
<linearGradient id="paint4_linear_378174_9318" x1="9.64269" y1="11.4623" x2="15.6573" y2="19.3219" gradientUnits="userSpaceOnUse">
<stop offset="0.125321" stop-color="#BD96FF"/>
<stop offset="1" stop-color="#9C6CFE"/>
</linearGradient>
<linearGradient id="paint5_linear_378174_9318" x1="12.003" y1="8.69048" x2="21.131" y2="22.6477" gradientUnits="userSpaceOnUse">
<stop stop-color="#885EDB" stop-opacity="0"/>
<stop offset="1" stop-color="#E362F8"/>
</linearGradient>
<linearGradient id="paint6_linear_378174_9318" x1="17.189" y1="4.66468" x2="19.7372" y2="8.73356" gradientUnits="userSpaceOnUse">
<stop offset="0.125321" stop-color="#7A41DC"/>
<stop offset="1" stop-color="#5B2AB5"/>
</linearGradient>
<linearGradient id="paint7_linear_378174_9318" x1="4.18902" y1="4.66468" x2="6.7372" y2="8.73356" gradientUnits="userSpaceOnUse">
<stop offset="0.125321" stop-color="#9C6CFE"/>
<stop offset="1" stop-color="#7A41DC"/>
</linearGradient>
<linearGradient id="paint8_linear_378174_9318" x1="10.4268" y1="3.79761" x2="13.4846" y2="8.68027" gradientUnits="userSpaceOnUse">
<stop offset="0.125321" stop-color="#BD96FF"/>
<stop offset="1" stop-color="#9C6CFE"/>
</linearGradient>
</defs>
</svg>
