<?xml version="1.0" encoding="UTF-8"?>
<svg width="24px" height="24px" viewBox="0 0 24 24" version="1.1" xmlns="http://www.w3.org/2000/svg" xmlns:xlink="http://www.w3.org/1999/xlink">
    <!-- Generator: Sketch 61.2 (89653) - https://sketch.com -->
    <title>ic_fluent_dislike_24_filled</title>
    <desc>Created with Sketch.</desc>
    <g id="ðŸ”-Product-Icons" stroke="none" stroke-width="1" fill="none" fill-rule="evenodd">
        <g id="ic_fluent_dislike_24_filled" fill="#212121" fill-rule="nonzero">
            <path d="M15.0565194,14.1828524 C15.5173411,15.6098738 15.75,16.8590427 15.75,17.9361182 C15.75,20.3347924 14.8109614,22.1835328 13.25,22.1835328 C12.4502697,22.1835328 12.1720941,21.7337632 11.8674147,20.6370077 L11.5976813,19.6154989 C11.4967419,19.2567597 11.320953,18.6460088 11.0706606,17.7844882 C11.0639667,17.761409 11.0541078,17.7396599 11.0412776,17.7195843 L8.17452051,13.2339226 C7.49647021,12.1729662 6.49599765,11.3574669 5.32011785,10.9072588 L4.06288509,10.4259031 C3.26951384,10.1221457 2.80889568,9.29246749 2.97061074,8.45846825 L3.65677048,4.91979528 C3.82391206,4.05781029 4.47721492,3.37179992 5.33001366,3.16278144 L13.5795251,1.14085022 C16.1107316,0.520458878 18.6691147,2.05539125 19.313008,4.58072155 L20.8868831,10.7534122 C21.2621276,12.2251097 20.3732767,13.722352 18.9015792,14.0975965 C18.6795357,14.1542118 18.4512866,14.1828524 18.222139,14.1828524 L15.0565194,14.1828524 Z" id="ðŸŽ¨-Color"></path>
        </g>
    </g>
</svg>