<svg width="24" height="24" viewBox="0 0 24 24" fill="none" xmlns="http://www.w3.org/2000/svg">
<path d="M17.9557 3.17097C18.4135 3.47981 18.5344 4.10134 18.2255 4.5592L7.43338 20.5592C7.12455 21.0171 6.50302 21.1379 6.04515 20.829C5.58729 20.5202 5.46648 19.8987 5.77531 19.4408L16.5674 3.44082C16.8763 2.98295 17.4978 2.86214 17.9557 3.17097ZM6.5 5.00001C5.39543 5.00001 4.5 5.89544 4.5 7.00001C4.5 8.10458 5.39543 9.00001 6.5 9.00001C7.60457 9.00001 8.5 8.10458 8.5 7.00001C8.5 5.89544 7.60457 5.00001 6.5 5.00001ZM2.5 7.00001C2.5 4.79087 4.29086 3.00001 6.5 3.00001C8.70914 3.00001 10.5 4.79087 10.5 7.00001C10.5 9.20915 8.70914 11 6.5 11C4.29086 11 2.5 9.20915 2.5 7.00001ZM15.5 17C15.5 15.8954 16.3954 15 17.5 15C18.6046 15 19.5 15.8954 19.5 17C19.5 18.1046 18.6046 19 17.5 19C16.3954 19 15.5 18.1046 15.5 17ZM17.5 13C15.2909 13 13.5 14.7909 13.5 17C13.5 19.2091 15.2909 21 17.5 21C19.7091 21 21.5 19.2091 21.5 17C21.5 14.7909 19.7091 13 17.5 13Z" fill="#212121"/>
</svg>
