<svg width="16" height="16" viewBox="0 0 16 16" fill="none" xmlns="http://www.w3.org/2000/svg">
<path d="M1.14648 1.14648C1.34174 0.951241 1.65825 0.951229 1.85351 1.14648L14.8535 14.1465C15.0488 14.3418 15.0488 14.6583 14.8535 14.8535C14.6583 15.0488 14.3418 15.0488 14.1465 14.8535L11.4932 12.2002C10.6823 13.1489 9.82358 13.9703 9.15918 14.5576C8.49083 15.1484 7.50918 15.1484 6.84082 14.5576C5.09687 13.016 1.99999 9.87377 1.99999 7C1.99999 5.77973 2.36517 4.64531 2.99121 3.69824L1.14648 1.85352C0.951215 1.65825 0.951215 1.34175 1.14648 1.14648ZM3.71484 4.42188C3.26089 5.17464 3 6.05687 3 7C3 8.10839 3.61435 9.39536 4.56933 10.6826C5.50327 11.9415 6.65742 13.0604 7.50391 13.8086C7.79391 14.0647 8.2061 14.0647 8.4961 13.8086C9.15586 13.2254 10.0007 12.4156 10.7842 11.4912L8.48731 9.19434C8.3304 9.22965 8.16764 9.25 8 9.25001C6.75736 9.25001 5.75 8.24265 5.75 7C5.75 6.8319 5.76848 6.66819 5.80371 6.51075L3.71484 4.42188ZM8 1C11.3137 1.00002 14 3.68631 14 7C14 8.19539 13.4624 9.43608 12.7109 10.5899L11.9854 9.86426C12.6147 8.85602 13 7.87366 13 7C13 4.23859 10.7614 2.00002 8 2C6.90538 2 5.89278 2.35161 5.06933 2.94824L4.35547 2.23438C5.36586 1.46051 6.62899 1 8 1ZM8 4.75C9.24263 4.75002 10.25 5.75738 10.25 7C10.25 7.33083 10.1761 7.64386 10.0479 7.92676L9.24317 7.12207C9.24707 7.08188 9.25 7.04122 9.25 7C9.25 6.30966 8.69034 5.75002 8 5.75C7.9585 5.75 7.91742 5.75191 7.87696 5.75586L7.07227 4.95117C7.35528 4.82282 7.66901 4.75 8 4.75Z" fill="#212121"/>
</svg>
