<svg width="48" height="48" viewBox="0 0 48 48" fill="none" xmlns="http://www.w3.org/2000/svg">
<path d="M4.36621 4.36621C4.85437 3.8781 5.64565 3.87807 6.13379 4.36621L43.6338 41.8662L43.7198 41.9619C44.1197 42.4529 44.0912 43.1763 43.6338 43.6338C43.1764 44.0913 42.4529 44.1197 41.962 43.7198L41.8662 43.6338L33.7168 35.4844L26.9112 42.709C25.3321 44.3852 22.668 44.3852 21.0889 42.709L11 32H11.0381C11.0326 31.9935 11.026 31.986 11.0205 31.9795C11.0137 31.9715 11.0068 31.9631 11 31.9551C10.3856 31.2267 9.83132 30.4456 9.34473 29.6201C9.32118 29.5802 9.29765 29.5402 9.27442 29.5C7.82797 26.9995 7 24.0965 7 21C7 17.5247 8.04412 14.2939 9.83399 11.6016L4.36621 6.13379C3.87805 5.64563 3.87805 4.85437 4.36621 4.36621ZM24 4C33.3888 4.00005 41 11.6112 41 21C41 23.8839 40.2818 26.6001 39.0147 28.9795C38.9214 29.1547 38.8248 29.3285 38.7256 29.5C38.2737 30.2812 37.7616 31.0235 37.1953 31.7197C37.1244 31.807 37.0522 31.8937 36.9795 31.9795L36.9776 31.9815C36.9724 31.9876 36.9672 31.9939 36.9619 32H37L36.8047 32.2071L28.9658 24.3682C29.6184 23.4079 30 22.2485 30 21C30 17.6863 27.3137 15.0001 24 15C22.7514 15 21.5912 15.3806 20.6309 16.0332L12.8047 8.20703C15.7953 5.58778 19.7122 4 24 4ZM18.1074 19.875C18.0381 20.2395 18 20.6153 18 21C18 24.3137 20.6863 27 24 27C24.3845 27 24.7599 26.9612 25.124 26.8916L18.1074 19.875Z" fill="#212121"/>
</svg>
