<svg width="16" height="16" viewBox="0 0 16 16" fill="none" xmlns="http://www.w3.org/2000/svg">
<path d="M4.5 6C6.98528 6 9 8.01472 9 10.5C9 12.9853 6.98528 15 4.5 15C2.01472 15 0 12.9853 0 10.5C0 8.01472 2.01472 6 4.5 6ZM2.4043 13.3027C2.98858 13.7403 3.71384 14 4.5 14C6.433 14 8 12.433 8 10.5C8 9.71384 7.74033 8.98858 7.30273 8.4043L2.4043 13.3027ZM9.5 3C10.8807 3 12 4.11929 12 5.5V5.62891L14.0352 4.22363C14.8643 3.65115 15.9959 4.24445 15.9961 5.25195V10.75C15.9958 11.7574 14.8642 12.3508 14.0352 11.7783L12 10.373V10.5C12 11.8807 10.8807 13 9.5 13H9.39844C9.56517 12.674 9.70028 12.3294 9.7998 11.9697C10.4845 11.8308 11 11.2257 11 10.5V5.5C11 4.67157 10.3284 4 9.5 4H4.5C3.77453 4 3.16851 4.51485 3.0293 5.19922C2.67 5.29869 2.32573 5.43404 2 5.60059V5.5C2 4.11929 3.11929 3 4.5 3H9.5ZM4.5 7C2.567 7 1 8.567 1 10.5C1 11.2862 1.25967 12.0114 1.69727 12.5957L6.5957 7.69727C6.01142 7.25967 5.28616 7 4.5 7ZM14.9961 5.25195C14.9959 5.05055 14.7693 4.93241 14.6035 5.04688L12 6.84375V9.15723L14.6035 10.9551C14.7692 11.0695 14.9958 10.9513 14.9961 10.75V5.25195Z" fill="#212121"/>
</svg>
