<svg width="24" height="24" viewBox="0 0 24 24" fill="none" xmlns="http://www.w3.org/2000/svg">
<path d="M11 17.5C11 14.4264 13.1333 11.8511 16 11.1739V8.25C16 6.45507 14.5449 5 12.75 5H5.25C3.45507 5 2 6.45507 2 8.25V16.75C2 18.5449 3.45507 20 5.25 20H11.4982C11.1772 19.2304 11 18.3859 11 17.5ZM17.5 11C19.2465 11 20.8321 11.6888 22 12.8096V7.04096C22 6.80368 21.9156 6.57414 21.762 6.39334C21.4043 5.97252 20.7732 5.92132 20.3524 6.27899L17 9.12794V11.0189C17.165 11.0064 17.3318 11 17.5 11ZM23 17.5C23 20.5376 20.5376 23 17.5 23C14.4624 23 12 20.5376 12 17.5C12 14.4624 14.4624 12 17.5 12C20.5376 12 23 14.4624 23 17.5ZM13.5 17.5C13.5 18.3335 13.755 19.1075 14.1911 19.7482L19.7482 14.1911C19.1075 13.755 18.3335 13.5 17.5 13.5C15.2909 13.5 13.5 15.2909 13.5 17.5ZM17.5 21.5C19.7091 21.5 21.5 19.7091 21.5 17.5C21.5 16.6665 21.245 15.8925 20.8089 15.2518L15.2518 20.8089C15.8925 21.245 16.6665 21.5 17.5 21.5Z" fill="#212121"/>
</svg>
