<svg width="20" height="20" viewBox="0 0 20 20" fill="none" xmlns="http://www.w3.org/2000/svg">
<path d="M8.07041 5.83065C7.83135 5.1669 8.25184 4.00007 9.79165 4.00008C10.6316 4.00008 11.222 4.23222 11.5954 4.45191C11.7836 4.56261 11.9189 4.67153 12.0041 4.74901C12.0467 4.78772 12.0766 4.8184 12.0941 4.83728C12.1029 4.8467 12.1085 4.85315 12.1111 4.85613L12.1102 4.85495L12.1123 4.85758C12.2854 5.07016 12.5978 5.10385 12.8123 4.93227C13.028 4.75977 13.0629 4.44513 12.8904 4.22949C12.6768 3.96247 12.8897 4.2286 12.8897 4.2286L12.8889 4.22762L12.8871 4.22537L12.8825 4.21973L12.8693 4.20412C12.8587 4.19184 12.8446 4.17591 12.8269 4.15685C12.7916 4.11875 12.7417 4.06805 12.6768 4.00909C12.5472 3.89125 12.357 3.73973 12.1025 3.58999C11.5905 3.28881 10.8267 3.00008 9.79166 3.00008C7.58146 3.00007 6.64829 4.83325 7.12957 6.16951C7.35092 6.78409 7.75038 7.23008 8.20196 7.58746C8.59608 7.89937 9.05511 8.16191 9.48635 8.40854L9.63912 8.49606C10.6211 9.06055 11.4766 9.61042 11.8831 10.678C12.1273 11.3191 12.0104 11.8875 11.6675 12.3011C11.3165 12.7245 10.679 13.0416 9.79165 13.0416C8.70813 13.0416 8.18258 12.6031 7.90966 12.2132C7.7652 12.0068 7.68131 11.7981 7.63393 11.6401C7.61044 11.5618 7.59657 11.4981 7.58884 11.4565C7.58499 11.4358 7.58271 11.4207 7.58153 11.4123L7.58058 11.4051C7.55144 11.1321 7.30732 10.9334 7.03368 10.9607C6.75891 10.9882 6.55843 11.2332 6.58589 11.508L6.58602 11.5092C6.58644 11.5126 6.59101 11.5493 6.58654 11.5142L6.58761 11.5235C6.58847 11.5307 6.58964 11.5399 6.59119 11.5509C6.59429 11.5731 6.59892 11.6028 6.60564 11.639C6.61907 11.7113 6.64099 11.8104 6.67609 11.9274C6.74589 12.1601 6.8703 12.4722 7.09041 12.7866C7.54661 13.4384 8.37517 14.0416 9.79166 14.0416C10.9126 14.0416 11.8589 13.6371 12.4373 12.9393C13.024 12.2318 13.1822 11.2795 12.8177 10.3221C12.2722 8.88973 11.1126 8.1896 10.1375 7.62909L9.98716 7.54288C9.54459 7.28936 9.15391 7.06556 8.82254 6.80332C8.46464 6.52008 8.20922 6.21606 8.07041 5.83065Z" fill="#212121"/>
<path d="M5.5 16C5.22386 16 5 16.2239 5 16.5C5 16.7761 5.22386 17 5.5 17H14.5C14.7761 17 15 16.7761 15 16.5C15 16.2239 14.7761 16 14.5 16H5.5Z" fill="#212121"/>
</svg>
