<svg width="20" height="20" viewBox="0 0 20 20" fill="none" xmlns="http://www.w3.org/2000/svg">
<path d="M14 3.5C14 3.22386 13.7761 3 13.5 3H6.5C6.36739 3 6.24021 3.05268 6.14645 3.14645C6.05268 3.24021 6 3.36739 6 3.5L6 13.5C6 13.7761 6.22386 14 6.5 14C6.77614 14 7 13.7761 7 13.5L7 4H13V13.5C13 13.7761 13.2239 14 13.5 14C13.7761 14 14 13.7761 14 13.5V3.5ZM5.5 16C5.22386 16 5 16.2239 5 16.5C5 16.7761 5.22386 17 5.5 17H14.5C14.7761 17 15 16.7761 15 16.5C15 16.2239 14.7761 16 14.5 16H5.5Z" fill="#212121"/>
</svg>
