<svg width="48" height="48" viewBox="0 0 48 48" fill="none" xmlns="http://www.w3.org/2000/svg">
<path d="M6.5 24C6.5 14.335 14.335 6.5 24 6.5C33.665 6.5 41.5 14.335 41.5 24C41.5 33.665 33.665 41.5 24 41.5C14.335 41.5 6.5 33.665 6.5 24ZM24 4C12.9543 4 4 12.9543 4 24C4 35.0457 12.9543 44 24 44C35.0457 44 44 35.0457 44 24C44 12.9543 35.0457 4 24 4ZM35 16.25C35 15.5596 34.4404 15 33.75 15C33.0596 15 32.5 15.5596 32.5 16.25V18.7297C30.7358 15.8904 27.5886 14 23.9999 14C20.7279 14 17.8229 15.5728 16.0006 17.9983C15.5859 18.5502 15.6972 19.3338 16.2491 19.7485C16.801 20.1632 17.5846 20.0519 17.9993 19.5C19.3698 17.6759 21.5473 16.5 23.9999 16.5C27.2655 16.5 30.0436 18.587 31.0732 21.5H27.25C26.5596 21.5 26 22.0596 26 22.75C26 23.4404 26.5596 24 27.25 24H33.75C34.4404 24 35 23.4404 35 22.75V16.25ZM14.25 33C13.5596 33 13 32.4404 13 31.75V25.25C13 24.5596 13.5596 24 14.25 24H20.75C21.4404 24 22 24.5596 22 25.25C22 25.9404 21.4404 26.5 20.75 26.5H16.9267C17.9563 29.413 20.7344 31.5 23.9999 31.5C26.4525 31.5 28.6301 30.3241 30.0006 28.5C30.4153 27.9481 31.1988 27.8368 31.7508 28.2515C32.3027 28.6662 32.414 29.4498 31.9993 30.0017C30.177 32.4272 27.2719 34 23.9999 34C20.4113 34 17.2642 32.1097 15.5 29.2705V31.75C15.5 32.4404 14.9404 33 14.25 33Z" fill="#212121"/>
</svg>
