<svg width="24" height="24" viewBox="0 0 24 24" fill="none" xmlns="http://www.w3.org/2000/svg">
<path d="M12 22C17.5228 22 22 17.5228 22 12C22 6.47715 17.5228 2 12 2C6.47715 2 2 6.47715 2 12C2 17.5228 6.47715 22 12 22ZM8.72948 10.75H10C10.4142 10.75 10.75 11.0858 10.75 11.5C10.75 11.9142 10.4142 12.25 10 12.25H7.25C6.83579 12.25 6.5 11.9142 6.5 11.5V8.25C6.5 7.83579 6.83579 7.5 7.25 7.5C7.66421 7.5 8 7.83579 8 8.25V8.99955C8.9121 7.78531 10.364 7 11.9999 7C13.5368 7 14.9041 7.66036 15.8268 8.77062C16.0915 9.08918 16.0479 9.56205 15.7294 9.8268C15.4108 10.0916 14.9379 10.0479 14.6732 9.72938C14.0368 8.96361 13.093 8.5 11.9999 8.5C10.5076 8.5 9.2326 9.43442 8.72948 10.75ZM16 15.75V15C15.0881 16.2143 13.6362 17 11.9999 17C10.4748 17 9.09587 16.316 8.17857 15.237C7.91028 14.9214 7.94862 14.4481 8.2642 14.1798C8.57979 13.9115 9.05311 13.9499 9.3214 14.2655C9.96322 15.0204 10.9293 15.5 11.9999 15.5C13.3953 15.5 14.6014 14.6829 15.1633 13.5H14C13.5858 13.5 13.25 13.1642 13.25 12.75C13.25 12.3358 13.5858 12 14 12H16.75C17.1642 12 17.5 12.3358 17.5 12.75V15.75C17.5 16.1642 17.1642 16.5 16.75 16.5C16.3358 16.5 16 16.1642 16 15.75Z" fill="#212121"/>
</svg>
