<svg width="24" height="24" viewBox="0 0 24 24" fill="none" xmlns="http://www.w3.org/2000/svg">
<path d="M7.9194 2.60608C7.76182 2.2384 7.40028 2 7.00026 2C6.60023 2 6.23869 2.2384 6.08111 2.60608L3.08111 9.60608C2.86356 10.1137 3.09871 10.7016 3.60634 10.9191C4.11397 11.1367 4.70185 10.9015 4.9194 10.3939L5.5168 9H8.48372L9.08111 10.3939C9.29867 10.9015 9.88655 11.1367 10.3942 10.9191C10.9018 10.7016 11.137 10.1137 10.9194 9.60608L7.9194 2.60608ZM7.62657 7H6.37394L7.00026 5.53859L7.62657 7ZM8.72702 15.3076C9.20332 14.8524 9.5 14.2109 9.5 13.5C9.5 12.1193 8.38071 11 7 11C5.61929 11 4.5 12.1193 4.5 13.5C4.5 14.211 4.79684 14.8527 5.27336 15.308L3.07625 20.6176C2.86508 21.128 3.10759 21.7129 3.61791 21.924C4.12823 22.1352 4.71311 21.8927 4.92428 21.3824L5.49629 20H8.50424L9.07624 21.3824C9.28741 21.8927 9.87229 22.1352 10.3826 21.924C10.8929 21.7129 11.1354 21.128 10.9243 20.6176L8.72702 15.3076ZM7.67665 18H6.32387L7.00026 16.3654L7.67665 18ZM6.5 13.5C6.5 13.2239 6.72386 13 7 13C7.27614 13 7.5 13.2239 7.5 13.5C7.5 13.7761 7.27614 14 7 14C6.72386 14 6.5 13.7761 6.5 13.5ZM17.5 2C18.0523 2 18.5 2.44772 18.5 3V18.5858L20.2929 16.7929C20.6834 16.4024 21.3166 16.4024 21.7071 16.7929C22.0976 17.1834 22.0976 17.8166 21.7071 18.2071L18.2071 21.7071C17.8166 22.0976 17.1834 22.0976 16.7929 21.7071L13.2929 18.2071C12.9024 17.8166 12.9024 17.1834 13.2929 16.7929C13.6834 16.4024 14.3166 16.4024 14.7071 16.7929L16.5 18.5858V3C16.5 2.44772 16.9477 2 17.5 2Z" fill="#212121"/>
</svg>
