<?xml version="1.0" encoding="UTF-8"?>
<svg width="28px" height="28px" viewBox="0 0 28 28" version="1.1" xmlns="http://www.w3.org/2000/svg" xmlns:xlink="http://www.w3.org/1999/xlink">
    <!-- Generator: Sketch 59.1 (86144) - https://sketch.com -->
    <title>ic_dismiss_28_filled</title>
    <desc>Created with Sketch.</desc>
    <g id="ðŸ”-Product-Icons" stroke="none" stroke-width="1" fill="none" fill-rule="evenodd">
        <g id="ic_dismiss_28_filled" fill="#212121" fill-rule="nonzero">
            <path d="M3.14905434,3.3874012 L3.26256313,3.26256313 C3.90577961,2.61934665 4.92513114,2.58151039 5.6125988,3.14905434 L5.73743687,3.26256313 L14,11.525 L22.2625631,3.26256313 C22.9459806,2.57914562 24.0540194,2.57914562 24.7374369,3.26256313 C25.4208544,3.94598064 25.4208544,5.05401936 24.7374369,5.73743687 L16.475,14 L24.7374369,22.2625631 C25.3806533,22.9057796 25.4184896,23.9251311 24.8509457,24.6125988 L24.7374369,24.7374369 C24.0942204,25.3806533 23.0748689,25.4184896 22.3874012,24.8509457 L22.2625631,24.7374369 L14,16.475 L5.73743687,24.7374369 C5.05401936,25.4208544 3.94598064,25.4208544 3.26256313,24.7374369 C2.57914562,24.0540194 2.57914562,22.9459806 3.26256313,22.2625631 L11.525,14 L3.26256313,5.73743687 C2.61934665,5.09422039 2.58151039,4.07486886 3.14905434,3.3874012 L3.26256313,3.26256313 L3.14905434,3.3874012 Z" id="ðŸŽ¨-Color"></path>
        </g>
    </g>
</svg>