<svg width="20" height="20" viewBox="0 0 20 20" fill="none" xmlns="http://www.w3.org/2000/svg">
<path d="M10 2C14.4183 2 18 5.58172 18 10C18 14.4183 14.4183 18 10 18C9.66134 18 9.32759 17.979 9 17.9381V14C9 13.0681 8.36261 12.285 7.5 12.063V12C7.5 10.3431 6.15685 9 4.5 9C3.46085 9 2.54511 9.52833 2.00672 10.331C2.00226 10.2212 2 10.1109 2 10C2 5.58172 5.58172 2 10 2ZM9.5 5C9.22386 5 9 5.22386 9 5.5V10.5L9.00806 10.5899C9.05039 10.8231 9.25454 11 9.5 11H12.5L12.5899 10.9919C12.8231 10.9496 13 10.7455 13 10.5C13 10.2239 12.7761 10 12.5 10H10V5.5L9.99194 5.41012C9.94961 5.17688 9.74546 5 9.5 5ZM2.5 12V13H2C1.44772 13 1 13.4477 1 14V18C1 18.5523 1.44771 19 2 19H7C7.55228 19 8 18.5523 8 18V14C8 13.4477 7.55228 13 7 13H6.5V12C6.5 10.8954 5.60457 10 4.5 10C3.39543 10 2.5 10.8954 2.5 12ZM3.5 13V12C3.5 11.4477 3.94772 11 4.5 11C5.05228 11 5.5 11.4477 5.5 12V13H3.5ZM4.5 15.25C4.91421 15.25 5.25 15.5858 5.25 16C5.25 16.4142 4.91421 16.75 4.5 16.75C4.08579 16.75 3.75 16.4142 3.75 16C3.75 15.5858 4.08579 15.25 4.5 15.25Z" fill="#212121"/>
</svg>
