<svg width="20" height="20" viewBox="0 0 20 20" fill="none" xmlns="http://www.w3.org/2000/svg">
<path d="M15.5286 3.05364C15.9131 3.20748 16.1002 3.64396 15.9464 4.02854L13.9578 9H16.25C16.6642 9 17 9.33579 17 9.75C17 10.1642 16.6642 10.5 16.25 10.5H13.5C13.4531 10.5 13.4073 10.4957 13.3628 10.4875L10.9464 16.5285C10.7925 16.9131 10.3561 17.1002 9.97147 16.9464C9.58688 16.7925 9.39982 16.356 9.55366 15.9715L14.5537 3.47146C14.7075 3.08687 15.144 2.89981 15.5286 3.05364Z" fill="#212121"/>
<path d="M5.74999 5C5.33578 5 4.99999 5.33579 4.99999 5.75C4.99999 6.16421 5.33578 6.5 5.74999 6.5H10.2754C9.78627 8.02538 8.89292 9.52137 7.79891 10.7516C6.47966 12.2351 4.94741 13.2457 3.6029 13.5146C3.19674 13.5958 2.93332 13.9909 3.01456 14.3971C3.09579 14.8033 3.49091 15.0667 3.89708 14.9854C5.67758 14.6293 7.47866 13.369 8.91982 11.7484C10.3704 10.1172 11.5357 8.03362 11.9839 5.90451C12.0305 5.68333 11.9748 5.45296 11.8324 5.27744C11.69 5.10193 11.476 5 11.25 5H5.74999Z" fill="#212121"/>
</svg>
