<svg width="24" height="24" viewBox="0 0 24 24" fill="none" xmlns="http://www.w3.org/2000/svg">
<path d="M19.516 4.04875C19.9033 4.19565 20.0982 4.6287 19.9513 5.01599L17.4918 11.5H19.25C19.6642 11.5 20 11.8358 20 12.25C20 12.6642 19.6642 13 19.25 13H16.9228L14.4513 19.516C14.3044 19.9033 13.8713 20.0981 13.484 19.9512C13.0967 19.8043 12.9019 19.3713 13.0488 18.984L18.5488 4.48401C18.6957 4.09672 19.1287 3.90185 19.516 4.04875Z" fill="#212121"/>
<path d="M6.74999 6C6.33578 6 5.99999 6.33579 5.99999 6.75C5.99999 7.16421 6.33578 7.5 6.74999 7.5H12.2881C11.7335 9.38661 10.7266 11.1177 9.47582 12.496C8.02287 14.0972 6.28229 15.1787 4.6029 15.5146C4.19674 15.5958 3.93332 15.9909 4.01456 16.3971C4.09579 16.8033 4.49091 17.0667 4.89708 16.9854C6.96769 16.5713 8.97711 15.2778 10.5867 13.504C12.201 11.725 13.4546 9.41882 13.9839 6.90451C14.0305 6.68333 13.9748 6.45296 13.8324 6.27744C13.69 6.10193 13.476 6 13.25 6H6.74999Z" fill="#212121"/>
</svg>
