<svg width="20" height="20" viewBox="0 0 20 20" fill="none" xmlns="http://www.w3.org/2000/svg">
<path d="M15.6795 3.03332C15.9372 3.13245 16.0658 3.42175 15.9667 3.67949L13.9203 9H16.5C16.7761 9 17 9.22386 17 9.5C17 9.77614 16.7761 10 16.5 10H13.5357L10.9667 16.6795C10.8675 16.9372 10.5782 17.0658 10.3205 16.9667C10.0628 16.8675 9.93419 16.5782 10.0333 16.3205L15.0333 3.32051C15.1324 3.06277 15.4217 2.9342 15.6795 3.03332Z" fill="#212121"/>
<path d="M5.5 5C5.22386 5 5 5.22386 5 5.5C5 5.77614 5.22386 6 5.5 6H10.863C10.3878 7.70693 9.42057 9.47749 8.22331 10.9323C6.87452 12.5712 5.3004 13.73 3.90195 14.0097C3.63117 14.0639 3.45556 14.3273 3.50971 14.5981C3.56387 14.8688 3.82728 15.0444 4.09806 14.9903C5.82461 14.645 7.58382 13.283 8.99545 11.5677C10.4169 9.84059 11.553 7.6751 11.9893 5.60301C12.0203 5.45556 11.9832 5.30197 11.8883 5.18496C11.7933 5.06795 11.6507 5 11.5 5H5.5Z" fill="#212121"/>
</svg>
