<svg width="16" height="16" viewBox="0 0 16 16" fill="none" xmlns="http://www.w3.org/2000/svg">
<path d="M12.6417 2.02049C12.9065 2.09874 13.0577 2.37685 12.9795 2.64167L11.6918 7H13.5C13.7761 7 14 7.22386 14 7.5C14 7.77614 13.7761 8 13.5 8H11.3964L9.7295 13.6417C9.65126 13.9065 9.37314 14.0578 9.10832 13.9795C8.84349 13.9013 8.69224 13.6232 8.77048 13.3583L12.0205 2.35833C12.0987 2.0935 12.3768 1.94225 12.6417 2.02049Z" fill="#212121"/>
<path d="M4.50001 5L8.85692 4.99996C8.47007 6.29578 7.72496 7.60174 6.80744 8.67506C5.73928 9.92461 4.49709 10.7906 3.40195 11.0097C3.13117 11.0638 2.95556 11.3272 3.00971 11.598C3.06387 11.8688 3.32728 12.0444 3.59806 11.9902C5.00292 11.7093 6.42739 10.6586 7.56757 9.32484C8.71567 7.98178 9.63565 6.28267 9.98928 4.60296C10.0203 4.45551 9.98321 4.30192 9.88827 4.18491C9.79333 4.0679 9.65068 3.99995 9.5 3.99995L4.5 4C4.22386 4 4 4.22386 4 4.5C4.00001 4.77615 4.22387 5 4.50001 5Z" fill="#212121"/>
</svg>
