<svg width="20" height="20" viewBox="0 0 20 20" fill="none" xmlns="http://www.w3.org/2000/svg">
<path d="M8.9975 2.38811C9.56767 1.87584 10.4323 1.87584 11.0025 2.38811L16.3513 7.1938C15.8098 7.07615 15.2335 7.01009 14.6405 7.00107L10.3342 3.13197C10.1441 2.96122 9.85589 2.96122 9.66583 3.13197L4.16583 8.07351C4.06029 8.16834 4 8.30355 4 8.44544V15.4996C4 15.7757 4.22386 15.9996 4.5 15.9996H9V16.4995C9 16.6728 9.01775 16.8395 9.05094 16.9996H4.5C3.67157 16.9996 3 16.328 3 15.4996V8.44544C3 8.01977 3.18086 7.61414 3.4975 7.32965L8.9975 2.38811ZM15.8793 8.11962C16.2803 8.19127 16.6567 8.29333 16.9998 8.42091C18.2059 8.86938 19 9.63317 19 10.5C19 11.8807 16.9853 13 14.5 13C12.0147 13 10 11.8807 10 10.5C10 9.11929 12.0147 8 14.5 8C14.9811 8 15.4446 8.04195 15.8793 8.11962ZM14.5 14C15.8799 14 17.1785 13.6914 18.1676 13.1419C18.4605 12.9792 18.7461 12.7824 19.0013 12.5526C19.0008 13.7315 19 15.5953 19 16.4994C19 17.8802 16.9853 18.9994 14.5 18.9994C12.0147 18.9994 10 17.8802 10 16.4994V12.5538C10.2549 12.7831 10.54 12.9794 10.8324 13.1419C11.8215 13.6914 13.1201 14 14.5 14Z" fill="#212121"/>
</svg>
