<svg width="24" height="24" viewBox="0 0 24 24" fill="none" xmlns="http://www.w3.org/2000/svg">
<path d="M10.5495 2.53189C11.3874 1.82531 12.6126 1.82531 13.4505 2.5319L20.2005 8.224C20.7074 8.65152 21 9.2809 21 9.94406V11.4415C20.5336 11.292 20.0293 11.1781 19.5 11.1035V9.94406C19.5 9.72301 19.4025 9.51321 19.2335 9.37071L12.4835 3.6786C12.2042 3.44307 11.7958 3.44307 11.5165 3.6786L4.76651 9.37071C4.59752 9.51321 4.5 9.72301 4.5 9.94406V19.7468C4.5 19.8849 4.61193 19.9968 4.75 19.9968H7V20H12V20.5C12 20.8653 12.0828 21.1986 12.2249 21.5H8V21.4968H4.75C3.7835 21.4968 3 20.7133 3 19.7468V9.94406C3 9.2809 3.29255 8.65152 3.79952 8.224L10.5495 2.53189ZM19.5 12.1144C20.0464 12.2003 20.5523 12.3317 21 12.4998C22.2144 12.9559 23 13.6821 23 14.5C23 15.3179 22.2144 16.0441 21 16.5002C20.5523 16.6683 20.0464 16.7997 19.5 16.8855C19.0265 16.9599 18.5226 17 18 17C15.2386 17 13 15.8807 13 14.5C13 13.1193 15.2386 12 18 12C18.5226 12 19.0265 12.0401 19.5 12.1144ZM19.5 17.8965C20.0293 17.8219 20.5336 17.708 21 17.5585C21.3509 17.446 21.6803 17.3134 21.9827 17.1622C22.3368 16.9852 22.6902 16.7619 23 16.4917V20.5C23 21.8807 20.7614 23 18 23C15.9497 23 14.1876 22.383 13.416 21.5C13.1484 21.1938 13 20.8556 13 20.5V16.4917C13.3098 16.7619 13.6632 16.9852 14.0173 17.1622C15.0882 17.6977 16.4977 18 18 18C18.5141 18 19.0174 17.9646 19.5 17.8965Z" fill="#212121"/>
</svg>
