<svg width="20" height="20" viewBox="0 0 20 20" fill="none" xmlns="http://www.w3.org/2000/svg">
<path d="M2.75 4.5C2.33579 4.5 2 4.83579 2 5.25C2 5.66421 2.33579 6 2.75 6H17.25C17.6642 6 18 5.66421 18 5.25C18 4.83579 17.6642 4.5 17.25 4.5H2.75Z" fill="#212121"/>
<path d="M2.75 7.5C2.33579 7.5 2 7.83579 2 8.25C2 8.66421 2.33579 9 2.75 9H11.25C11.6642 9 12 8.66421 12 8.25C12 7.83579 11.6642 7.5 11.25 7.5H2.75Z" fill="#212121"/>
<path d="M2.75 10.5C2.33579 10.5 2 10.8358 2 11.25C2 11.6642 2.33579 12 2.75 12H9.38312C9.14997 11.7346 9.01013 11.3871 9.01013 11.0101C9.01013 10.8316 9.0415 10.6597 9.09928 10.5H2.75Z" fill="#212121"/>
<path d="M2.75 13.5H9.37773L7.8764 15H2.75C2.33579 15 2 14.6642 2 14.25C2 13.8358 2.33579 13.5 2.75 13.5Z" fill="#212121"/>
<path d="M14.4963 7.43892C14.4654 7.18829 14.2525 7 14 7C13.7475 7 13.5346 7.18829 13.5037 7.43892L13.4063 8.23046C13.2662 9.36907 12.3691 10.2662 11.2305 10.4063L10.4389 10.5037C10.1883 10.5346 10 10.7475 10 11C10 11.2525 10.1883 11.4654 10.4389 11.4963L11.2305 11.5937C12.3691 11.7338 13.2662 12.6309 13.4063 13.7695L13.5037 14.5611C13.5346 14.8117 13.7475 15 14 15C14.2525 15 14.4654 14.8117 14.4963 14.5611L14.5937 13.7695C14.7338 12.6309 15.6309 11.7338 16.7695 11.5937L17.5611 11.4963C17.8117 11.4654 18 11.2525 18 11C18 10.7475 17.8117 10.5346 17.5611 10.5037L16.7695 10.4063C15.6309 10.2662 14.7338 9.36907 14.5937 8.23046L14.4963 7.43892Z" fill="#212121"/>
<path d="M11.853 13.1466C12.0482 13.3419 12.0481 13.6585 11.8528 13.8537L7.85343 17.8501C7.65809 18.0453 7.34151 18.0452 7.14632 17.8499C6.95113 17.6545 6.95124 17.338 7.14657 17.1428L11.1459 13.1463C11.3413 12.9511 11.6579 12.9512 11.853 13.1466Z" fill="#212121"/>
</svg>
