<svg width="16" height="16" viewBox="0 0 16 16" fill="none" xmlns="http://www.w3.org/2000/svg">
<path d="M3 2C1.89543 2 1 2.89543 1 4V10C1 11.1046 1.89543 12 3 12H6.02242C6.00758 11.8353 6 11.6685 6 11.5C6 11.3315 6.00758 11.1647 6.02242 11H3C2.44772 11 2 10.5523 2 10V4C2 3.44772 2.44772 3 3 3H13C13.5523 3 14 3.44772 14 4V6.59971C14.3578 6.78261 14.6929 7.00353 15 7.25716V4C15 2.89543 14.1046 2 13 2H3ZM11.5 6C11.6685 6 11.8352 6.00758 11.9998 6.0224L12 6C12 5.44772 11.5523 5 11 5H5C4.44772 5 4 5.44772 4 6C4 6.55228 4.44772 7 5 7H8.33692C9.23159 6.36997 10.3226 6 11.5 6ZM16 11.5C16 13.9853 13.9853 16 11.5 16C9.01472 16 7 13.9853 7 11.5C7 9.01472 9.01472 7 11.5 7C13.9853 7 16 9.01472 16 11.5ZM12 9.5C12 9.22386 11.7761 9 11.5 9C11.2239 9 11 9.22386 11 9.5V11H9.5C9.22386 11 9 11.2239 9 11.5C9 11.7761 9.22386 12 9.5 12H11V13.5C11 13.7761 11.2239 14 11.5 14C11.7761 14 12 13.7761 12 13.5V12H13.5C13.7761 12 14 11.7761 14 11.5C14 11.2239 13.7761 11 13.5 11H12V9.5Z" fill="#212121"/>
</svg>
