<svg width="24" height="24" viewBox="0 0 24 24" fill="none" xmlns="http://www.w3.org/2000/svg">
<path d="M21.25 2.5C21.6642 2.5 22 2.83579 22 3.25V8.75C22 9.16421 21.6642 9.5 21.25 9.5H15.7499C15.3357 9.5 14.9999 9.16421 14.9999 8.75C14.9999 8.33578 15.3357 8 15.7499 8H19.6573C18.5992 6.60212 17.2297 5.4648 15.5283 4.93832C13.4619 4.29885 11.2768 4.35354 9.26156 5.10317C7.23271 5.85787 5.35214 7.38846 4.40776 9.11081C4.20861 9.47401 3.75274 9.607 3.38955 9.40785C3.02635 9.2087 2.89336 8.75283 3.09251 8.38964C4.23451 6.30687 6.42268 4.55877 8.73861 3.69728C11.0682 2.83072 13.5931 2.7693 15.9717 3.50536C17.8504 4.08673 19.3465 5.26153 20.5 6.64949V3.25C20.5 2.83579 20.8358 2.5 21.25 2.5ZM16.0018 11C14.6821 11 13.7525 11.6377 13.1987 12.629C12.6772 13.5624 12.5019 14.7762 12.5019 16C12.5019 17.2238 12.6772 18.4376 13.1987 19.371C13.7525 20.3623 14.6821 21 16.0018 21C17.3216 21 18.2512 20.3623 18.805 19.371C19.3265 18.4376 19.5018 17.2238 19.5018 16C19.5018 14.7762 19.3265 13.5624 18.805 12.629C18.2512 11.6377 17.3216 11 16.0018 11ZM14.0019 16C14.0019 14.8766 14.1703 13.9654 14.5082 13.3606C14.8137 12.8137 15.2591 12.5 16.0018 12.5C16.7446 12.5 17.19 12.8137 17.4955 13.3606C17.8334 13.9654 18.0018 14.8766 18.0018 16C18.0018 17.1234 17.8334 18.0346 17.4955 18.6394C17.19 19.1863 16.7446 19.5 16.0018 19.5C15.2591 19.5 14.8137 19.1863 14.5082 18.6394C14.1703 18.0346 14.0019 17.1234 14.0019 16ZM9.50005 11.75C9.50005 11.4138 9.27626 11.1186 8.9525 11.0278C8.62884 10.9371 8.28486 11.072 8.11003 11.359L8.10935 11.3602L8.10401 11.3687C8.09864 11.3772 8.08972 11.3913 8.07735 11.4103C8.05259 11.4483 8.0141 11.5061 7.96263 11.5793C7.85946 11.7261 7.70536 11.9334 7.50637 12.1678C7.10384 12.6421 6.5396 13.2016 5.86422 13.6069C5.50903 13.82 5.39386 14.2807 5.60697 14.6359C5.82008 14.9911 6.28077 15.1062 6.63595 14.8931C7.15988 14.5788 7.61776 14.202 8.00007 13.8328V20.25C8.00007 20.6642 8.33585 21 8.75006 21C9.16427 21 9.50005 20.6642 9.50005 20.25V11.75Z" fill="#212121"/>
</svg>
