<svg width="16" height="16" viewBox="0 0 16 16" fill="none" xmlns="http://www.w3.org/2000/svg">
<path d="M4.6999 3.5996C5.03106 3.3508 5.09782 2.88064 4.84901 2.54948C4.6002 2.21832 4.13005 2.15155 3.79888 2.40036C2.10074 3.67621 1 5.70966 1 7.99998C1 10.2903 2.10074 12.3238 3.79888 13.5996C4.13005 13.8484 4.6002 13.7816 4.84901 13.4505C5.09782 13.1193 5.03106 12.6492 4.6999 12.4004C3.36262 11.3956 2.5 9.79866 2.5 7.99998C2.5 6.20131 3.36262 4.60432 4.6999 3.5996ZM12.2011 2.40036C11.87 2.15155 11.3998 2.21832 11.151 2.54948C10.9022 2.88064 10.9689 3.3508 11.3001 3.5996C12.6374 4.60432 13.5 6.20131 13.5 7.99998C13.5 9.79866 12.6374 11.3956 11.3001 12.4004C10.9689 12.6492 10.9022 13.1193 11.151 13.4505C11.3998 13.7816 11.87 13.8484 12.2011 13.5996C13.8993 12.3238 15 10.2903 15 7.99998C15 5.70966 13.8993 3.67621 12.2011 2.40036ZM5.75 7.24998C5.33579 7.24998 5 7.58577 5 7.99998C5 8.4142 5.33579 8.74998 5.75 8.74998H10.25C10.6642 8.74998 11 8.4142 11 7.99998C11 7.58577 10.6642 7.24998 10.25 7.24998H5.75Z" fill="#212121"/>
</svg>
