<svg width="28" height="28" viewBox="0 0 28 28" fill="none" xmlns="http://www.w3.org/2000/svg">
<path d="M7.69941 5.59963C8.03057 5.35083 8.09733 4.88067 7.84852 4.54951C7.59972 4.21835 7.12956 4.15159 6.7984 4.40039C3.88608 6.58847 2 10.0741 2 14C2 17.9259 3.88608 21.4116 6.7984 23.5996C7.12956 23.8484 7.59972 23.7817 7.84852 23.4505C8.09733 23.1194 8.03057 22.6492 7.69941 22.4004C5.14796 20.4834 3.5 17.4343 3.5 14C3.5 10.5657 5.14796 7.51658 7.69941 5.59963ZM21.2016 4.40039C20.8704 4.15159 20.4003 4.21835 20.1515 4.54951C19.9027 4.88067 19.9694 5.35083 20.3006 5.59963C22.852 7.51658 24.5 10.5657 24.5 14C24.5 17.3289 22.9517 20.2958 20.533 22.2207C20.2089 22.4786 20.1552 22.9505 20.4132 23.2746C20.6711 23.5987 21.1429 23.6523 21.467 23.3944C24.228 21.1971 26 17.8053 26 14C26 10.0741 24.1139 6.58847 21.2016 4.40039ZM8.75 13.25C8.33579 13.25 8 13.5858 8 14C8 14.4142 8.33579 14.75 8.75 14.75H19.25C19.6642 14.75 20 14.4142 20 14C20 13.5858 19.6642 13.25 19.25 13.25H8.75Z" fill="#242424"/>
</svg>
