<svg width="20" height="20" viewBox="0 0 20 20" fill="none" xmlns="http://www.w3.org/2000/svg">
<path d="M5.79961 4.39978C6.02038 4.2339 6.06489 3.92047 5.89902 3.69969C5.73314 3.47892 5.41971 3.43441 5.19893 3.60028C3.25739 5.059 2 7.38275 2 10C2 12.6173 3.25739 14.9411 5.19893 16.3998C5.41971 16.5656 5.73314 16.5211 5.89902 16.3004C6.06489 16.0796 6.02038 15.7662 5.79961 15.6003C4.09864 14.3223 3 12.2895 3 10C3 7.71051 4.09864 5.67774 5.79961 4.39978ZM14.8011 3.60028C14.5803 3.43441 14.2669 3.47892 14.101 3.69969C13.9351 3.92047 13.9796 4.2339 14.2004 4.39978C15.9014 5.67774 17 7.71051 17 10C17 12.2895 15.9014 14.3223 14.2004 15.6003C13.9796 15.7662 13.9351 16.0796 14.101 16.3004C14.2669 16.5211 14.5803 16.5656 14.8011 16.3998C16.7426 14.9411 18 12.6173 18 10C18 7.38275 16.7426 5.059 14.8011 3.60028ZM6.5 9.50003C6.22386 9.50003 6 9.72389 6 10C6 10.2762 6.22386 10.5 6.5 10.5H13.5C13.7761 10.5 14 10.2762 14 10C14 9.72389 13.7761 9.50003 13.5 9.50003H6.5Z" fill="#242424"/>
</svg>
