<svg width="48" height="48" viewBox="0 0 48 48" fill="none" xmlns="http://www.w3.org/2000/svg">
<path d="M22 24C22 22.6938 21.5826 21.4851 20.874 20.5H27.126C26.4174 21.4851 26 22.6938 26 24C26 27.3137 28.6863 30 32 30C35.3137 30 38 27.3137 38 24C38 20.6863 35.3137 18 32 18H16C12.6863 18 10 20.6863 10 24C10 27.3137 12.6863 30 16 30C19.3137 30 22 27.3137 22 24ZM19.5 24C19.5 25.933 17.933 27.5 16 27.5C14.067 27.5 12.5 25.933 12.5 24C12.5 22.067 14.067 20.5 16 20.5C17.933 20.5 19.5 22.067 19.5 24ZM28.5 24C28.5 22.067 30.067 20.5 32 20.5C33.933 20.5 35.5 22.067 35.5 24C35.5 25.933 33.933 27.5 32 27.5C30.067 27.5 28.5 25.933 28.5 24Z" fill="#212121"/>
<path d="M8.25 8C5.90279 8 4 9.90279 4 12.25V35.75C4 38.0972 5.90279 40 8.25 40H39.75C42.0972 40 44 38.0972 44 35.75V12.25C44 9.90279 42.0972 8 39.75 8H8.25ZM6.5 12.25C6.5 11.2835 7.2835 10.5 8.25 10.5H39.75C40.7165 10.5 41.5 11.2835 41.5 12.25V35.75C41.5 36.7165 40.7165 37.5 39.75 37.5H8.25C7.2835 37.5 6.5 36.7165 6.5 35.75V12.25Z" fill="#212121"/>
</svg>
