<svg width="28" height="28" viewBox="0 0 28 28" fill="none" xmlns="http://www.w3.org/2000/svg">
<path d="M12.3727 12H15.6273C15.2319 12.5669 15 13.2564 15 14C15 15.933 16.567 17.5 18.5 17.5C20.433 17.5 22 15.933 22 14C22 12.067 20.433 10.5 18.5 10.5H9.5C7.567 10.5 6 12.067 6 14C6 15.933 7.567 17.5 9.5 17.5C11.433 17.5 13 15.933 13 14C13 13.2564 12.7681 12.5669 12.3727 12ZM16.5 14C16.5 12.8954 17.3954 12 18.5 12C19.6046 12 20.5 12.8954 20.5 14C20.5 15.1046 19.6046 16 18.5 16C17.3954 16 16.5 15.1046 16.5 14ZM7.5 14C7.5 12.8954 8.39543 12 9.5 12C10.6046 12 11.5 12.8954 11.5 14C11.5 15.1046 10.6046 16 9.5 16C8.39543 16 7.5 15.1046 7.5 14ZM4.75391 4C3.23512 4 2.00391 5.23122 2.00391 6.75V21.2501C2.00391 22.7688 3.23513 24.0001 4.75391 24.0001H23.2505C24.7693 24.0001 26.0005 22.7688 26.0005 21.2501V6.75C26.0005 5.23122 24.7693 4 23.2505 4H4.75391ZM3.50391 6.75C3.50391 6.05964 4.06355 5.5 4.75391 5.5H23.2505C23.9409 5.5 24.5005 6.05965 24.5005 6.75V21.2501C24.5005 21.9404 23.9409 22.5001 23.2505 22.5001H4.75391C4.06355 22.5001 3.50391 21.9404 3.50391 21.2501V6.75Z" fill="#212121"/>
</svg>
