<svg width="28" height="28" viewBox="0 0 28 28" fill="none" xmlns="http://www.w3.org/2000/svg">
<path d="M14 2C20.6274 2 26 7.37258 26 14C26 20.6274 20.6274 26 14 26C7.37258 26 2 20.6274 2 14C2 7.37258 7.37258 2 14 2ZM14 18.5C13.3096 18.5 12.75 19.0596 12.75 19.75C12.75 20.4404 13.3096 21 14 21C14.6904 21 15.25 20.4404 15.25 19.75C15.25 19.0596 14.6904 18.5 14 18.5ZM14 6.75C12.0375 6.75 10.25 8.47515 10.25 10.5C10.25 10.9142 10.5858 11.25 11 11.25C11.4142 11.25 11.75 10.9142 11.75 10.5C11.75 9.31571 12.8542 8.25 14 8.25C15.1458 8.25 16.25 9.31571 16.25 10.5C16.25 11.3795 16.0089 11.8846 15.3176 12.5755L15.1625 12.7266L14.5928 13.2547C13.6475 14.1579 13.25 14.8513 13.25 16C13.25 16.4142 13.5858 16.75 14 16.75C14.4142 16.75 14.75 16.4142 14.75 16C14.75 15.3519 14.9633 14.972 15.6387 14.3299L15.8028 14.1768L16.0068 13.9904L16.2039 13.806C17.2847 12.7736 17.75 11.9315 17.75 10.5C17.75 8.47515 15.9625 6.75 14 6.75Z" fill="#212121"/>
</svg>
