<svg width="28" height="28" viewBox="0 0 28 28" fill="none" xmlns="http://www.w3.org/2000/svg">
<path d="M13.25 25.25V17.5226C13.2758 17.4995 13.3011 17.4756 13.3258 17.4508L14 16.7767L14.6742 17.4508C14.6989 17.4756 14.7242 17.4995 14.75 17.5226V25.25C14.75 25.6642 14.4142 26 14 26C13.5858 26 13.25 25.6642 13.25 25.25ZM13.3258 10.7992C13.3011 10.7744 13.2758 10.7505 13.25 10.7274L13.25 2.75C13.25 2.33579 13.5858 2 14 2C14.4142 2 14.75 2.33579 14.75 2.75V10.7274C14.7242 10.7505 14.6989 10.7744 14.6742 10.7992L14 11.4734L13.3258 10.7992ZM11.4697 15.4697C11.1768 15.7626 11.1768 16.2374 11.4697 16.5303C11.7626 16.8232 12.2374 16.8232 12.5303 16.5303L14 15.0607L15.4697 16.5303C15.7626 16.8232 16.2374 16.8232 16.5303 16.5303C16.8232 16.2374 16.8232 15.7626 16.5303 15.4697L15.0607 14L16.5303 12.5303C16.8232 12.2374 16.8232 11.7626 16.5303 11.4697C16.2374 11.1768 15.7626 11.1768 15.4697 11.4697L14 12.9393L12.5303 11.4697C12.2374 11.1768 11.7626 11.1768 11.4697 11.4697C11.1768 11.7626 11.1768 12.2374 11.4697 12.5303L12.9393 14L11.4697 15.4697ZM3.75 3C3.33579 3 3 3.33579 3 3.75C3 4.16421 3.33579 4.5 3.75 4.5H5.25C6.49264 4.5 7.5 5.50736 7.5 6.75V9.5H3.75C3.33579 9.5 3 9.83579 3 10.25C3 10.6642 3.33579 11 3.75 11H7.5V17H3.75C3.33579 17 3 17.3358 3 17.75C3 18.1642 3.33579 18.5 3.75 18.5H7.5V21.25C7.5 22.4926 6.49264 23.5 5.25 23.5H3.75C3.33579 23.5 3 23.8358 3 24.25C3 24.6642 3.33579 25 3.75 25H5.25C7.32107 25 9 23.3211 9 21.25V6.75C9 4.67893 7.32107 3 5.25 3H3.75ZM22.75 3C20.6789 3 19 4.67893 19 6.75V21.25C19 23.3211 20.6789 25 22.75 25H25.25C25.6642 25 26 24.6642 26 24.25C26 23.8358 25.6642 23.5 25.25 23.5H22.75C21.5074 23.5 20.5 22.4926 20.5 21.25V18.5H25.25C25.6642 18.5 26 18.1642 26 17.75C26 17.3358 25.6642 17 25.25 17H20.5V11H25.25C25.6642 11 26 10.6642 26 10.25C26 9.83579 25.6642 9.5 25.25 9.5H20.5V6.75C20.5 5.50736 21.5074 4.5 22.75 4.5H25.25C25.6642 4.5 26 4.16421 26 3.75C26 3.33579 25.6642 3 25.25 3H22.75Z" fill="#212121"/>
</svg>
