<?xml version="1.0" encoding="UTF-8"?>
<svg width="20px" height="20px" viewBox="0 0 20 20" version="1.1" xmlns="http://www.w3.org/2000/svg" xmlns:xlink="http://www.w3.org/1999/xlink">
    <!-- Generator: Sketch 63.1 (92452) - https://sketch.com -->
    <title>ic_fluent_calendar_add_20_filled</title>
    <desc>Created with Sketch.</desc>
    <g id="ðŸ”-System-Icons" stroke="none" stroke-width="1" fill="none" fill-rule="evenodd">
        <g id="ic_fluent_calendar_add_20_filled" fill="#212121" fill-rule="nonzero">
            <path d="M13.5,8 C16.5375661,8 19,10.4624339 19,13.5 C19,16.5375661 16.5375661,19 13.5,19 C10.4624339,19 8,16.5375661 8,13.5 C8,10.4624339 10.4624339,8 13.5,8 Z M13.5,9.9992349 L13.4101244,10.0072906 C13.2060313,10.0443345 13.0450996,10.2052662 13.0080557,10.4093593 L13,10.4992349 L12.9996498,12.9992349 L10.4976498,13 L10.4077742,13.0080557 C10.2036811,13.0450996 10.0427494,13.2060313 10.0057055,13.4101244 L9.99764979,13.5 L10.0057055,13.5898756 C10.0427494,13.7939687 10.2036811,13.9549004 10.4077742,13.9919443 L10.4976498,14 L13.0006498,13.9992349 L13.0011076,16.5034847 L13.0091633,16.5933603 C13.0462073,16.7974534 13.207139,16.9583851 13.411232,16.995429 L13.5011076,17.0034847 L13.5909833,16.995429 C13.7950763,16.9583851 13.956008,16.7974534 13.993052,16.5933603 L14.0011076,16.5034847 L14.0006498,13.9992349 L16.5045655,14 L16.5944411,13.9919443 C16.7985342,13.9549004 16.9594659,13.7939687 16.9965098,13.5898756 L17.0045655,13.5 L16.9965098,13.4101244 C16.9594659,13.2060313 16.7985342,13.0450996 16.5944411,13.0080557 L16.5045655,13 L13.9996498,12.9992349 L14,10.4992349 L13.9919443,10.4093593 C13.9496084,10.1761101 13.7454599,9.9992349 13.5,9.9992349 Z M16,6 L16.000576,7.49840358 C15.2308293,7.17731659 14.3861219,7 13.5,7 C9.91014913,7 7,9.91014913 7,13.5 C7,14.3861219 7.17731659,15.2308293 7.49840358,16.000576 L4.5,16 C3.11928813,16 2,14.8807119 2,13.5 L2,6 L16,6 Z M13.5,2 C14.8807119,2 16,3.11928813 16,4.5 L16,5 L2,5 L2,4.5 C2,3.11928813 3.11928813,2 4.5,2 L13.5,2 Z" id="ðŸŽ¨-Color"></path>
        </g>
    </g>
</svg>