<svg width="24" height="24" viewBox="0 0 24 24" fill="none" xmlns="http://www.w3.org/2000/svg">
<path d="M19 5C19.5523 5 20 5.44772 20 6V14.5879L20.7959 13.793C21.1864 13.4024 21.8194 13.4025 22.21 13.793C22.6005 14.1835 22.6005 14.8165 22.21 15.207L19.709 17.709C19.3186 18.0993 18.6855 18.0991 18.2949 17.709L15.793 15.207C15.4025 14.8165 15.4025 14.1835 15.793 13.793C16.1835 13.4025 16.8165 13.4025 17.207 13.793L18 14.5859V6C18 5.44772 18.4477 5 19 5ZM12.2598 5.32715C12.5376 5.0215 12.9751 4.91851 13.3604 5.06738C13.7457 5.21636 14 5.58686 14 6V17C14 17.5523 13.5523 18 13 18C12.4477 18 12 17.5523 12 17V8.58691L8.74023 12.1729C8.55071 12.3813 8.28174 12.5 8 12.5C7.71826 12.5 7.44929 12.3813 7.25977 12.1729L4 8.58691V17C4 17.5523 3.55228 18 3 18C2.44772 18 2 17.5523 2 17V6C2 5.58686 2.25431 5.21636 2.63965 5.06738C3.02495 4.91851 3.46237 5.0215 3.74023 5.32715L8 10.0127L12.2598 5.32715Z" fill="#212121"/>
</svg>
