<?xml version="1.0" encoding="UTF-8"?>
<svg width="20px" height="20px" viewBox="0 0 20 20" version="1.1" xmlns="http://www.w3.org/2000/svg" xmlns:xlink="http://www.w3.org/1999/xlink">
    <!-- Generator: Sketch 63.1 (92452) - https://sketch.com -->
    <title>ic_fluent_folder_junk_20_filled</title>
    <desc>Created with Sketch.</desc>
    <g id="ðŸ”-Product-Icons" stroke="none" stroke-width="1" fill="none" fill-rule="evenodd">
        <g id="ic_fluent_folder_junk_20_filled" fill="#212121" fill-rule="nonzero">
            <path d="M15.5,3.5 C16.7702549,3.5 17.8192408,4.44736547 17.9789489,5.67408771 L17.9946823,5.83562431 L18,6 L18.0008195,8.81035876 C16.8328473,7.68912635 15.2469007,7 13.5,7 C9.91014913,7 7,9.91014913 7,13.5 C7,14.3861219 7.17731659,15.2308293 7.49840358,16.000576 L4.5,16 C3.1745166,16 2.08996133,14.9684641 2.00531768,13.6643757 L2,13.5 L2,6.5 L7.07068858,6.5 L7.22385164,6.49216551 C7.52776973,6.46098171 7.81508509,6.33763395 8.04701675,6.13877133 L8.15818773,6.03312419 L10.565,3.5 L15.5,3.5 Z M13.5,8 C16.5375661,8 19,10.4624339 19,13.5 C19,16.5375661 16.5375661,19 13.5,19 C10.4624339,19 8,16.5375661 8,13.5 C8,10.4624339 10.4624339,8 13.5,8 Z M17.0161235,10.6913744 L10.6913744,17.0161235 C11.4611762,17.6318328 12.4375931,18 13.5,18 C15.9852814,18 18,15.9852814 18,13.5 C18,12.4375931 17.6318328,11.4611762 17.0161235,10.6913744 Z M13.5,9 C11.0147186,9 9,11.0147186 9,13.5 C9,14.5624069 9.36816715,15.5388238 9.98387653,16.3086256 L16.3086256,9.98387653 C15.5388238,9.36816715 14.5624069,9 13.5,9 Z M7.16666667,2 C7.43712943,2 7.70151241,2.07310195 7.93238431,2.21016209 L8.06666667,2.3 L9.385,3.289 L7.43318829,5.34437473 L7.37239723,5.39871601 C7.3076984,5.44767418 7.23201172,5.48016734 7.15195579,5.49335403 L7.07068858,5.5 L2,5.5 L2,4.5 C2,3.1745166 3.03153594,2.08996133 4.33562431,2.00531768 L4.5,2 L7.16666667,2 Z" id="ðŸŽ¨-Color"></path>
        </g>
    </g>
</svg>