<svg width="28" height="28" viewBox="0 0 28 28" fill="none" xmlns="http://www.w3.org/2000/svg">
<path d="M24.25 2.99997C24.6642 2.99997 25 3.33576 25 3.74997V24.25C25 24.6642 24.6642 25 24.25 25C23.8358 25 23.5 24.6642 23.5 24.25V3.74997C23.5 3.33576 23.8358 2.99997 24.25 2.99997ZM18.0874 10.442C17.906 10.6032 17.7661 10.7937 17.6684 11L11 11V17L17.6684 17C17.7661 17.2063 17.906 17.3967 18.0874 17.5579C18.2146 17.671 18.3536 17.7621 18.5 17.8316V24C18.5 24.5523 18.0523 25 17.5 25H6.75C4.67893 25 3 23.321 3 21.25L3 6.74997C3 4.6789 4.67893 2.99997 6.75 2.99997L17.5 2.99997C18.0523 2.99997 18.5 3.44768 18.5 3.99997V10.1683C18.3536 10.2378 18.2146 10.3289 18.0874 10.442ZM17 9.49997V4.49997L11 4.49997L11 9.49997L17 9.49997ZM9.5 9.49997L9.5 4.49997L6.75 4.49997C5.50736 4.49997 4.5 5.50733 4.5 6.74997L4.5 9.49997H9.5ZM9.5 11L4.5 11L4.5 17L9.5 17L9.5 11ZM4.5 21.25C4.5 22.4926 5.50736 23.5 6.75 23.5H9.5V18.5L4.5 18.5L4.5 21.25ZM11 23.5H17V18.5L11 18.5V23.5ZM18.6894 15.7517L19.5799 14.75L16 14.75C15.5858 14.75 15.25 14.4142 15.25 14C15.25 13.5858 15.5858 13.25 16 13.25L19.5799 13.25L18.6894 12.2482C18.4143 11.9386 18.4421 11.4646 18.7517 11.1894C19.0613 10.9142 19.5354 10.9421 19.8106 11.2517L21.8106 13.5017C22.0631 13.7859 22.0631 14.2141 21.8106 14.4982L19.8106 16.7482C19.5354 17.0578 19.0613 17.0857 18.7517 16.8105C18.4421 16.5353 18.4143 16.0613 18.6894 15.7517Z" fill="#212121"/>
</svg>
