<svg width="16" height="16" viewBox="0 0 16 16" fill="none" xmlns="http://www.w3.org/2000/svg">
<path d="M6.78573 4.49586C6.7168 4.30448 6.88599 3.5 8.00082 3.5C8.66955 3.5 9.08236 3.69792 9.31684 3.86311C9.43793 3.94843 9.51901 4.03053 9.56581 4.0846C9.58916 4.11158 9.60365 4.1312 9.60999 4.14016L9.61248 4.14374C9.8261 4.49036 10.2788 4.60384 10.6313 4.39631C10.9883 4.18617 11.1073 3.72645 10.8971 3.3695C10.6999 3.1029 10.8962 3.3679 10.8962 3.3679L10.8952 3.36619L10.893 3.3625L10.8878 3.354L10.8743 3.33265C10.864 3.31656 10.8508 3.29679 10.8346 3.2739C10.8022 3.22817 10.7577 3.16967 10.6999 3.1029C10.5844 2.96947 10.4145 2.80157 10.1808 2.63689C9.70556 2.30208 8.99337 2 8.00082 2C6.11565 2 4.86713 3.59552 5.37447 5.00414C5.75503 6.06077 6.72698 6.5331 7.41618 6.86804C7.47212 6.89522 7.52629 6.92155 7.57804 6.94716C8.3621 7.33526 8.91202 7.66446 9.17953 8.36691C9.33269 8.76908 9.25363 9.0895 9.06466 9.31744C8.86343 9.56017 8.46158 9.78319 7.83342 9.7832C7.05826 9.78322 6.77438 9.50339 6.65479 9.33401C6.58161 9.23038 6.54076 9.1241 6.51882 9.0432C6.50808 9.00363 6.50271 8.9732 6.5003 8.95677L6.4989 8.94625C6.46979 8.53921 6.11961 8.22904 5.71047 8.25109C5.29686 8.27337 4.97968 8.62771 5.00196 9.04132L5.00202 9.04233L5.00214 9.04446L5.00243 9.04919L5.00322 9.06043C5.00384 9.06871 5.00466 9.07857 5.00577 9.0899C5.00797 9.11253 5.01128 9.14118 5.01626 9.175C5.02617 9.24241 5.04288 9.33177 5.07114 9.43593C5.12718 9.64252 5.23199 9.91954 5.42946 10.1992C5.85117 10.7965 6.6086 11.2832 7.83344 11.2832C8.81195 11.2832 9.67708 10.929 10.2194 10.2748C10.774 9.60583 10.9151 8.70966 10.5813 7.83309C10.0872 6.53554 9.02509 5.98974 8.24346 5.60284C7.36706 5.16903 6.95052 4.95342 6.78573 4.49586ZM5.00322 9.06043L5.00196 9.04132C5.00196 9.04132 5.07112 9.43593 5.00322 9.06043ZM4.80078 12.55C4.38657 12.55 4.05078 12.8858 4.05078 13.3C4.05078 13.7142 4.38657 14.05 4.80078 14.05H11.3008C11.715 14.05 12.0508 13.7142 12.0508 13.3C12.0508 12.8858 11.715 12.55 11.3008 12.55H4.80078Z" fill="#212121"/>
</svg>
