<svg width="24" height="24" viewBox="0 0 24 24" fill="none" xmlns="http://www.w3.org/2000/svg">
<path d="M7 19C7 19.5523 7.44772 20 8 20H13C15.2424 20 17.0109 19.2222 18.2179 17.9774C19.4136 16.7444 20 15.1129 20 13.5C20 11.8871 19.4136 10.2556 18.2179 9.0226C17.0109 7.77783 15.2424 7 13 7H8.41421L10.4571 4.95711C10.8476 4.56658 10.8476 3.93342 10.4571 3.54289C10.0666 3.15237 9.43342 3.15237 9.04289 3.54289L5.29289 7.29289C4.90237 7.68342 4.90237 8.31658 5.29289 8.70711L9.04289 12.4571C9.43342 12.8476 10.0666 12.8476 10.4571 12.4571C10.8476 12.0666 10.8476 11.4334 10.4571 11.0429L8.41421 9H13C14.7576 9 15.9892 9.59717 16.7821 10.4149C17.5864 11.2444 18 12.3629 18 13.5C18 14.6371 17.5864 15.7556 16.7821 16.5851C15.9891 17.4028 14.7576 18 13 18H8C7.44772 18 7 18.4477 7 19Z" fill="#212121"/>
</svg>
