<svg width="24" height="24" viewBox="0 0 24 24" fill="none" xmlns="http://www.w3.org/2000/svg">
<path d="M10.9611 3.00008C11.2717 3.00459 11.5474 3.20014 11.6544 3.49181L15.2354 13.2584L14.0719 14.4423L13.6042 13.1667H7.99751L6.69966 16.5207C6.55018 16.907 6.11584 17.0989 5.72954 16.9495C5.34324 16.8 5.15126 16.3656 5.30074 15.9793L6.78408 12.146L6.78718 12.1381L10.2538 3.47146C10.3692 3.18302 10.6505 2.99557 10.9611 3.00008ZM10.9197 5.84557L8.59131 11.6667H13.0542L10.9197 5.84557Z" fill="#212121"/>
<path d="M20.3063 12.5573L20.1773 12.4515L20.1742 12.4491C19.2943 11.782 18.0073 11.8626 17.2228 12.6608L13.4197 16.5302C13.1842 16.7699 13.0116 17.0596 12.9166 17.3757L12.3303 19.328C11.764 19.4142 11.261 19.4063 10.7256 19.3214C10.7015 19.3176 10.6879 19.2917 10.6983 19.2696L10.7355 19.1909C10.8006 19.0528 10.9155 18.809 10.9528 18.5581C10.9736 18.4181 10.9795 18.224 10.904 18.0172C10.8229 17.795 10.6707 17.6218 10.4818 17.5056C10.1584 17.3067 9.75504 17.2915 9.40872 17.3115C9.13449 17.3274 8.79514 17.374 8.37789 17.4553C7.91595 17.5454 7.47694 17.7521 7.03945 17.9581C6.46264 18.2297 5.88848 18.5001 5.26798 18.5001C5.04503 18.5001 4.8306 18.4636 4.63034 18.3963C4.50723 18.3549 4.37174 18.4547 4.40299 18.5808C4.45965 18.8094 4.56469 19.1183 4.79525 19.3561C4.92127 19.4861 5.09027 19.6001 5.30333 19.6548C5.51538 19.7093 5.72083 19.6922 5.90086 19.6394C7.35473 19.2126 8.3205 18.9806 8.94874 18.8757C9.08062 18.8537 9.17967 18.9869 9.13919 19.1143C9.07578 19.3139 8.98619 19.6922 9.17263 20.0749C9.37486 20.49 9.77319 20.6638 10.1174 20.7346C11.2602 20.9698 12.2462 20.9391 13.4527 20.6225C13.5054 20.6139 13.5581 20.6013 13.6102 20.5845L13.7274 20.5466C13.8985 20.497 14.0743 20.442 14.2558 20.3815C14.2831 20.3724 14.3095 20.3619 14.3351 20.35L15.7228 19.9012C16.0608 19.7919 16.3658 19.6047 16.6105 19.3558L20.4049 15.4953C21.1911 14.6946 21.1877 13.4611 20.4233 12.6698L20.3063 12.5573ZM14.4311 17.7881C14.4564 17.7039 14.5025 17.6261 14.5662 17.5614L18.3692 13.6919C18.5987 13.4584 18.9852 13.4452 19.2301 13.6623C19.449 13.8564 19.4792 14.1681 19.3161 14.3956L19.2551 14.4676L15.464 18.3246C15.3979 18.3919 15.3148 18.4431 15.2222 18.4731L14.1181 18.8301L14.4311 17.7881Z" fill="#212121"/>
</svg>
