<svg width="25" height="24" viewBox="0 0 25 24" fill="none" xmlns="http://www.w3.org/2000/svg">
<path d="M15.5876 10.5C15.6533 10.4998 15.7184 10.5127 15.7791 10.5378C15.8397 10.563 15.8948 10.5999 15.9412 10.6465L17.7695 12.4748C17.8161 12.5212 17.8531 12.5763 17.8782 12.637C17.9033 12.6977 17.9162 12.7627 17.916 12.8284V13C17.9159 13.1326 17.8631 13.2597 17.7694 13.3534C17.6757 13.4471 17.5486 13.4998 17.416 13.5H7.41602C7.28345 13.4998 7.15636 13.4471 7.06263 13.3534C6.96889 13.2597 6.91617 13.1326 6.91602 13V12.8284C6.91583 12.7627 6.92868 12.6977 6.95383 12.637C6.97897 12.5763 7.01591 12.5212 7.0625 12.4748L8.89087 10.6465C8.93718 10.5999 8.99229 10.563 9.05298 10.5378C9.11367 10.5127 9.17875 10.4998 9.24445 10.5H15.5876ZM15.5876 9H9.24445C8.98179 9 8.72171 9.05173 8.47905 9.15224C8.2364 9.25276 8.01591 9.40009 7.8302 9.58582L6.00184 11.4142C5.81611 11.5999 5.66878 11.8204 5.56826 12.063C5.46774 12.3057 5.41601 12.5658 5.41602 12.8284V13C5.41602 13.5304 5.62673 14.0391 6.0018 14.4142C6.37687 14.7893 6.88558 15 7.41602 15H17.416C17.9464 15 18.4552 14.7893 18.8302 14.4142C19.2053 14.0391 19.416 13.5304 19.416 13V12.8284C19.416 12.5658 19.3643 12.3057 19.2638 12.063C19.1633 11.8204 19.0159 11.5999 18.8302 11.4142L17.0018 9.58582C16.8161 9.40009 16.5956 9.25276 16.353 9.15224C16.1103 9.05173 15.8502 9 15.5876 9Z" fill="#212121"/>
</svg>
