<svg width="16" height="16" viewBox="0 0 16 16" fill="none" xmlns="http://www.w3.org/2000/svg">
<path d="M7.64728 2.14638C7.84268 1.95105 8.15946 1.95123 8.35464 2.14677C9.5947 3.38913 10.9689 4 12.5 4C12.7455 4 12.9496 4.17688 12.9919 4.41012L13 4.5V7.50126C13 10.7196 11.3587 12.9075 8.15811 13.9743C8.05548 14.0086 7.94452 14.0086 7.84189 13.9743C4.73825 12.9398 3.1009 10.8512 3.00452 7.79099L3 7.50126V4.5C3 4.22386 3.22386 4 3.5 4C5.02923 4 6.40416 3.38902 7.64728 2.14638ZM8.00042 3.18918C6.87841 4.19701 5.63834 4.78791 4.29048 4.95245L4 4.98117V7.50126C4 10.1375 5.22185 11.9026 7.73537 12.8738L8 12.9715L8.26463 12.8738C10.6915 11.9361 11.9142 10.2583 11.9956 7.77087L12 7.50126V4.98121C10.538 4.87033 9.20057 4.26913 8.00042 3.18918ZM6.09019 6.21559L6.14806 6.14636C6.32167 5.97283 6.5911 5.95362 6.78594 6.08866L6.85517 6.14654L8.001 7.293L9.14806 6.14636C9.32167 5.97283 9.5911 5.95362 9.78594 6.08866L9.85517 6.14654C10.0287 6.32015 10.0479 6.58958 9.91286 6.78441L9.85499 6.85364L8.707 7.999L9.85364 9.14654C10.0272 9.32015 10.0464 9.58958 9.91134 9.78441L9.85346 9.85364C9.67985 10.0272 9.41042 10.0464 9.21559 9.91134L9.14636 9.85346L8 8.707L6.85346 9.85364C6.67985 10.0272 6.41042 10.0464 6.21559 9.91134L6.14636 9.85346C5.97283 9.67985 5.95362 9.41042 6.08866 9.21559L6.14654 9.14636L7.293 8L6.14788 6.85346C5.97436 6.67985 5.95514 6.41042 6.09019 6.21559L6.14806 6.14636L6.09019 6.21559Z" fill="#212121"/>
</svg>
