<svg width="24" height="24" viewBox="0 0 24 24" fill="none" xmlns="http://www.w3.org/2000/svg">
<path d="M4.75 4C3.23122 4 2 5.23122 2 6.75V17.25C2 18.7688 3.23122 20 4.75 20H11.4982C11.1772 19.2304 11 18.3859 11 17.5C11 16.8022 11.11 16.1301 11.3135 15.5H6.75C6.33579 15.5 6 15.1642 6 14.75C6 14.3358 6.33579 14 6.75 14H12.0218C12.3841 13.4341 12.8317 12.9281 13.3464 12.5H6.75C6.33579 12.5 6 12.1642 6 11.75C6 11.3358 6.33579 11 6.75 11H15.25C15.4612 11 15.652 11.0873 15.7883 11.2277C16.3337 11.0793 16.9076 11 17.5 11C19.2465 11 20.8321 11.6888 22 12.8096V6.75C22 5.23122 20.7688 4 19.25 4H4.75ZM6 8.75C6 8.33579 6.33579 8 6.75 8H11.25C11.6642 8 12 8.33579 12 8.75C12 9.16421 11.6642 9.5 11.25 9.5H6.75C6.33579 9.5 6 9.16421 6 8.75ZM17.5 21.5C15.2909 21.5 13.5 19.7091 13.5 17.5C13.5 15.2909 15.2909 13.5 17.5 13.5C19.7091 13.5 21.5 15.2909 21.5 17.5C21.5 19.7091 19.7091 21.5 17.5 21.5ZM17.5 23C20.5376 23 23 20.5376 23 17.5C23 14.4624 20.5376 12 17.5 12C14.4624 12 12 14.4624 12 17.5C12 20.5376 14.4624 23 17.5 23ZM17.5 20C18.8807 20 20 18.8807 20 17.5C20 16.1193 18.8807 15 17.5 15C16.1193 15 15 16.1193 15 17.5C15 18.8807 16.1193 20 17.5 20Z" fill="#212121"/>
</svg>
