<?xml version="1.0" encoding="UTF-8"?>
<svg width="12px" height="12px" viewBox="0 0 12 12" version="1.1" xmlns="http://www.w3.org/2000/svg" xmlns:xlink="http://www.w3.org/1999/xlink">
    <!-- Generator: Sketch 59.1 (86144) - https://sketch.com -->
    <title>ic_fluent_star_off_12_filled</title>
    <desc>Created with Sketch.</desc>
    <g id="ðŸ”-Product-Icons" stroke="none" stroke-width="1" fill="none" fill-rule="evenodd">
        <g id="ic_fluent_star_off_12_filled" fill="#212121" fill-rule="nonzero">
            <path d="M1.14644661,10.1464466 L10.1464466,1.14644661 C10.3417088,0.951184464 10.6582912,0.951184464 10.8535534,1.14644661 C11.0271197,1.32001296 11.0464049,1.58943736 10.9114088,1.7843055 L10.8535534,1.85355339 L8.57417104,4.132 L10.8271817,4.46011152 C11.2372919,4.51970402 11.4010469,5.02369016 11.1042884,5.31295821 L8.91488158,7.44710244 L9.43173042,10.4605624 C9.5017856,10.8690155 9.07306939,11.1804961 8.7062557,10.9876507 L6,9.56488787 L3.2937443,10.9876507 C2.92693061,11.1804961 2.4982144,10.8690155 2.56826958,10.4605624 L2.63517104,10.071 L1.85355339,10.8535534 C1.67998704,11.0271197 1.41056264,11.0464049 1.2156945,10.9114088 L1.14644661,10.8535534 C0.972880258,10.679987 0.953595107,10.4105626 1.08859116,10.2156945 L1.14644661,10.1464466 L10.1464466,1.14644661 L1.14644661,10.1464466 Z M6.44836804,1.27871714 L7.18617104,2.773 L2.79417104,7.164 L0.895711573,5.31295821 C0.598953063,5.02369016 0.762708086,4.51970402 1.17281826,4.46011152 L4.19850411,4.02045363 L5.55163196,1.27871714 C5.73503881,0.907094285 6.26496119,0.907094285 6.44836804,1.27871714 Z" id="ðŸŽ¨-Color"></path>
        </g>
    </g>
</svg>