<svg width="16" height="16" viewBox="0 0 16 16" fill="none" xmlns="http://www.w3.org/2000/svg">
<path d="M7.99992 1C8.26394 1 8.52474 1.01547 8.78117 1.04395C8.72104 1.22336 8.6217 1.383 8.4921 1.5127C8.36201 1.64287 8.20201 1.75362 8.04191 1.80371L7.29874 2.04199C4.31558 2.3894 1.99992 4.92361 1.99992 8C1.99992 9.18014 2.34138 10.2791 2.9296 11.207C3.01002 11.3339 3.0298 11.4903 2.98234 11.6328L2.28996 13.708L4.36613 13.0166C4.516 12.9842 4.65576 12.983 4.79191 13.0693C5.72008 13.658 6.81944 14 7.99992 14C9.90609 14 11.603 13.1095 12.7021 11.7236C12.7203 11.7383 12.7366 11.7556 12.7558 11.7695C12.9746 11.9188 13.2335 11.998 13.5019 11.999C13.5891 11.9988 13.6747 11.9903 13.7587 11.9775C12.4954 13.803 10.388 15 7.99992 15C6.70917 15 5.49992 14.6487 4.46183 14.0391L1.65812 14.9746C1.47855 15.0344 1.28028 14.9873 1.1464 14.8535C1.0126 14.7196 0.965507 14.5214 1.02531 14.3418L1.9589 11.5361C1.35005 10.4984 0.999916 9.28978 0.999916 8C0.999916 4.13407 4.13401 1.00011 7.99992 1ZM13.497 12H13.5068L13.5019 11.999L13.497 12ZM13.4843 6C13.5468 6 13.6081 6.01962 13.6591 6.05566C13.71 6.09166 13.7486 6.14245 13.7694 6.20117L14.0185 6.9668C14.0958 7.19923 14.227 7.41077 14.4003 7.58398C14.5736 7.75707 14.7849 7.8876 15.0175 7.96484L15.7831 8.21289L15.7987 8.2168C15.8575 8.23758 15.9082 8.27636 15.9443 8.32715C15.9804 8.37818 15.9999 8.43944 15.9999 8.50195C15.9999 8.56445 15.9804 8.62574 15.9443 8.67676C15.9082 8.72753 15.8575 8.76634 15.7987 8.78711L15.0331 9.03516C14.8004 9.11245 14.5884 9.24277 14.415 9.41602C14.2416 9.5892 14.1115 9.80081 14.0341 10.0332L13.7851 10.7988C13.7642 10.8576 13.7256 10.9083 13.6747 10.9443C13.6237 10.9804 13.5625 11 13.4999 11C13.4374 11 13.3761 10.9804 13.3251 10.9443C13.2743 10.9083 13.2356 10.8575 13.2148 10.7988L12.9657 10.0332C12.8889 9.80016 12.7592 9.58791 12.5859 9.41406C12.4125 9.24016 12.2007 9.10894 11.9677 9.03125L11.2021 8.7832C11.1431 8.76243 11.0917 8.72381 11.0556 8.67285C11.0194 8.62182 10.9999 8.56056 10.9999 8.49805C10.9999 8.43555 11.0195 8.37426 11.0556 8.32324C11.0917 8.27232 11.1431 8.23366 11.2021 8.21289L11.9677 7.96484C12.1974 7.88555 12.4056 7.75404 12.5761 7.58105C12.7467 7.40796 12.8753 7.1976 12.9511 6.9668L13.2001 6.20117C13.221 6.14245 13.2596 6.09166 13.3105 6.05566C13.3614 6.01972 13.422 6.0001 13.4843 6ZM10.4784 0C10.566 0 10.6521 0.0275726 10.7235 0.078125C10.7948 0.128655 10.8488 0.199881 10.8778 0.282227L11.2265 1.35352C11.3348 1.67874 11.5172 1.97439 11.7597 2.2168C12.0024 2.45938 12.2991 2.64178 12.6249 2.75L13.6962 3.09863L13.7177 3.10352C13.8003 3.13263 13.8722 3.18735 13.9228 3.25879C13.9731 3.33013 13.9999 3.41562 13.9999 3.50293C13.9999 3.59029 13.9732 3.67573 13.9228 3.74707C13.8722 3.81847 13.8002 3.87224 13.7177 3.90137L12.6464 4.25C12.3206 4.35822 12.0239 4.54062 11.7812 4.7832C11.5386 5.02561 11.3563 5.32125 11.248 5.64648L10.8993 6.71777C10.8703 6.80011 10.8163 6.87134 10.745 6.92188C10.6735 6.97243 10.5875 7 10.4999 7C10.4124 6.99997 10.3272 6.9724 10.2558 6.92188C10.2489 6.91701 10.2418 6.91247 10.2353 6.90723C10.174 6.85803 10.1268 6.79217 10.1005 6.71777L9.75285 5.64648C9.73416 5.5898 9.7125 5.53427 9.68937 5.47949C9.57936 5.21893 9.42016 4.98143 9.21964 4.78027C9.18154 4.74205 9.14213 4.70513 9.10148 4.66992C8.88316 4.48088 8.62944 4.33582 8.35441 4.24414L7.28214 3.89648C7.19966 3.86735 7.12858 3.81257 7.07804 3.74121C7.02754 3.66981 6.99992 3.58451 6.99992 3.49707C6.99997 3.40964 7.0275 3.3243 7.07804 3.25293C7.12854 3.18168 7.19978 3.12776 7.28214 3.09863L8.35441 2.75C8.67609 2.63895 8.96815 2.45522 9.20695 2.21289C9.44562 1.97061 9.62524 1.67652 9.73136 1.35352L10.079 0.282227C10.1081 0.199733 10.1628 0.128673 10.2343 0.078125C10.3057 0.0276133 10.3909 4.3712e-05 10.4784 0Z" fill="#212121"/>
</svg>
