<?xml version="1.0" encoding="UTF-8"?>
<svg width="24px" height="24px" viewBox="0 0 24 24" version="1.1" xmlns="http://www.w3.org/2000/svg" xmlns:xlink="http://www.w3.org/1999/xlink">
    <!-- Generator: Sketch 59.1 (86144) - https://sketch.com -->
    <title>ic_tap_double_24_filled</title>
    <desc>Created with Sketch.</desc>
    <g id="ðŸ”-Product-Icons" stroke="none" stroke-width="1" fill="none" fill-rule="evenodd">
        <g id="ic_tap_double_24_filled" fill="#212121">
            <path d="M11.7488353,7 C13.16632,7 13.7515827,7.97842757 13.7515827,9.5149102 L13.7515827,9.5149102 L13.7515827,12.0013573 L16.6233702,12.4234988 C16.7354398,12.4399726 16.8463844,12.4633549 16.9555701,12.4935122 C18.4195382,12.8978626 19.2785281,14.412434 18.8741777,15.8764021 L18.8741777,15.8764021 L17.6471292,20.3189844 C17.4619564,20.9894107 16.8973354,21.4865403 16.2088585,21.585333 L16.2088585,21.585333 L13.147933,22.0245592 C12.3367052,22.140966 11.5533436,21.6787986 11.2629271,20.912444 L11.2629271,20.912444 L11.046255,20.3406873 C10.7694677,19.6102977 10.2912741,18.9733493 9.66714517,18.5037288 L9.66714517,18.5037288 L8.07041374,17.3022819 C7.94504535,17.2079495 7.80756067,17.1309049 7.66165591,17.0732192 L7.66165591,17.0732192 L5.46664973,16.2053905 C5.19309651,16.0972371 5.00802291,15.839154 4.99333874,15.5453634 C4.95722361,14.822797 5.4828585,14.2991137 6.4145898,13.833248 C7.18175605,13.4496649 8.27782849,13.5089426 9.75285368,13.9559069 L9.75285368,13.9559069 L9.75285368,9.50576869 C9.75285368,7.96860838 10.3312374,7 11.7488353,7 Z M11.7488353,2 C15.7532421,2 18.9994553,5.24621313 18.9994553,9.25061996 C18.9994553,10.2628878 18.7920157,11.2267055 18.4173274,12.1018825 C18.0655677,11.8480813 17.6639163,11.6517159 17.2218032,11.5296035 L17.0483886,11.4870206 C17.3388519,10.7995601 17.4994553,10.0438455 17.4994553,9.25061996 C17.4994553,6.07464025 14.924815,3.5 11.7488353,3.5 C8.5728556,3.5 5.99821535,6.07464025 5.99821535,9.25061996 C5.99821535,10.5344409 6.41891296,11.7200027 7.12996945,12.6769665 C6.62574475,12.7153636 6.23845852,12.8032797 5.96737621,12.9388208 C5.84682463,12.9990966 5.73067202,13.0607288 5.61923896,13.1240079 C4.90914097,12.0040947 4.49821535,10.6753458 4.49821535,9.25061996 C4.49821535,5.24621313 7.74442848,2 11.7488353,2 Z M11.7488353,4.50178465 C14.3715446,4.50178465 16.4976706,6.62791064 16.4976706,9.25061996 C16.4976706,9.99427828 16.3267338,10.6980122 16.0220082,11.3246736 L14.7515827,11.1376072 L14.7524706,10.4910385 C14.9104839,10.108836 14.9976706,9.68990973 14.9976706,9.25061996 C14.9976706,8.22234758 14.5199605,7.30565038 13.774366,6.710354 C13.294662,6.26027148 12.6268994,6 11.7488353,6 C10.8607424,6 10.189077,6.26436292 9.70915529,6.72127552 C8.97172275,7.31718039 8.5,8.2288118 8.5,9.25061996 C8.5,9.69609691 8.58965997,10.1206327 8.7519187,10.507166 L8.75285368,12.3643547 C8.75273363,12.5299738 8.6184728,12.6642346 8.45285368,12.6642346 C7.55525221,11.8015264 7,10.5909162 7,9.25061996 C7,6.62791064 9.12612599,4.50178465 11.7488353,4.50178465 Z" id="ðŸŽ¨-Color"></path>
        </g>
    </g>
</svg>