<?xml version="1.0" encoding="UTF-8"?>
<svg width="24px" height="24px" viewBox="0 0 24 24" version="1.1" xmlns="http://www.w3.org/2000/svg" xmlns:xlink="http://www.w3.org/1999/xlink">
    <!-- Generator: Sketch 59.1 (86144) - https://sketch.com -->
    <title>ic_tap_double_24_outline</title>
    <desc>Created with Sketch.</desc>
    <g id="ðŸ”-Product-Icons" stroke="none" stroke-width="1" fill="none" fill-rule="evenodd">
        <g id="ic_tap_double_24_outline" fill="#212121">
            <path d="M11.75,7 C13.1572953,7 14,8.05521072 14,9.50847912 L14,9.50847912 L14,11.6239658 L16.2191671,12.0269265 C16.3059934,12.0426926 16.3921415,12.0619885 16.4773973,12.0847662 C18.2114998,12.548065 19.2416898,14.3294108 18.7783909,16.0635133 L18.7783909,16.0635133 L17.7302473,19.9866586 C17.4976526,20.8572479 16.7680686,21.5050894 15.8760801,21.6330849 L15.8760801,21.6330849 L13.4578534,21.9800873 C12.4754683,22.1210543 11.516747,21.6017199 11.0981723,20.7018603 L11.0981723,20.7018603 L11.0690771,20.6393109 C10.8007307,20.062415 10.3787278,19.5705397 9.84933278,19.2176097 L9.84933278,19.2176097 L7.96560087,17.9617884 C7.90423676,17.920879 7.84034794,17.8838896 7.77431661,17.8510415 L7.77431661,17.8510415 L5.41140295,16.6755814 C5.16192093,16.5514735 5.00180973,16.2992831 4.99563339,16.0207048 C4.97105537,14.9121345 5.46115528,14.0567901 6.4145898,13.5800728 C7.1665667,13.2040844 8.18412591,13.2536948 9.5,13.6762241 L9.5,13.6762241 L9.5,9.50847912 C9.5,8.05521072 10.3427047,7 11.75,7 Z M11.75,8.5 C11.2546498,8.5 11,8.8188652 11,9.50847912 L11,9.50847912 L11,14.7525154 C11,15.2865066 10.4577823,15.6494397 9.96410876,15.4458885 C8.50347817,14.843642 7.52268831,14.7030746 7.0854102,14.9217136 C6.78907149,15.069883 6.61222484,15.2683093 6.53715909,15.5602504 L6.53715909,15.5602504 L8.44240897,16.5080402 C8.56503859,16.5690438 8.68368925,16.6377383 8.79765116,16.713713 L8.79765116,16.713713 L10.6813831,17.9695342 C11.4399461,18.4752429 12.0446284,19.1800444 12.4291383,20.0066708 L12.4291383,20.0066708 L12.4582335,20.0692202 C12.5977584,20.3691734 12.9173322,20.5422849 13.2447939,20.4952959 L13.2447939,20.4952959 L15.6630206,20.1482935 C15.9603501,20.1056283 16.2035448,19.8896811 16.2810763,19.5994847 L16.2810763,19.5994847 L17.32922,15.6763394 C17.5786886,14.7425919 17.0239709,13.7834058 16.0902234,13.5339372 C16.0443165,13.5216722 15.997929,13.5112821 15.9511764,13.5027927 L15.9511764,13.5027927 L13.1160046,12.9879766 C12.7593082,12.9232069 12.5,12.6125728 12.5,12.2500435 L12.5,12.2500435 L12.5,9.50847912 C12.5,8.8188652 12.2453502,8.5 11.75,8.5 Z M11.7488353,2 C15.7532421,2 18.9994553,5.24621313 18.9994553,9.25061996 C18.9994553,10.2367051 18.8026079,11.1768142 18.4460653,12.033795 C18.0706958,11.7019776 17.6316339,11.4335469 17.1414982,11.2489273 C17.3733162,10.6271229 17.4994553,9.95360212 17.4994553,9.25061996 C17.4994553,6.07464025 14.924815,3.5 11.7488353,3.5 C8.5728556,3.5 5.99821535,6.07464025 5.99821535,9.25061996 C5.99821535,10.404202 6.33788608,11.4784498 6.92266794,12.3788036 C6.58493584,12.4339349 6.26708189,12.5357928 5.96737621,12.6856456 C5.80641169,12.7661279 5.6546981,12.8551435 5.51245904,12.9521463 C4.86871384,11.8697434 4.49821535,10.6034489 4.49821535,9.25061996 C4.49821535,5.24621313 7.74442848,2 11.7488353,2 Z M11.7488353,4.50178465 C14.3715446,4.50178465 16.4976706,6.62791064 16.4976706,9.25061996 C16.4976706,9.86873244 16.3795777,10.4592629 16.1647233,11.0008799 L15,10.7891954 L15,9.50847912 L14.995901,9.31367137 L14.9976706,9.25061996 C14.9976706,8.57003016 14.7883948,7.93831934 14.4306835,7.41632766 L14.3413894,7.28382734 C13.783327,6.49647237 12.8919799,6 11.75,6 C10.5749055,6 9.66519001,6.52568276 9.11090606,7.35305011 C8.72674857,7.88671571 8.5,8.54218785 8.5,9.25061996 L8.50233174,9.36135296 C8.50077965,9.41012022 8.5,9.45916825 8.5,9.50847912 L8.5,12.3984093 C8.45789799,12.391569 8.40503102,12.3839064 8.34139911,12.3754213 L8.23787572,12.3620912 C8.0004694,12.3323902 7.7815796,12.2185559 7.62093571,12.0412498 C7.20697857,11.5843564 7,10.6541465 7,9.25061996 C7,6.62791064 9.12612599,4.50178465 11.7488353,4.50178465 Z" id="ðŸŽ¨-Color"></path>
        </g>
    </g>
</svg>