<svg width="20" height="20" viewBox="0 0 20 20" fill="none" xmlns="http://www.w3.org/2000/svg">
<path d="M6.32227 6H3C1.89543 6 1 6.89543 1 8V12C1.00001 13.1046 1.89543 14 3 14H16C17.1046 14 18 13.1046 18 12V8C18 6.89543 17.1046 6 16 6H12.6748L12.7656 5.82031C12.902 5.54975 12.9288 5.2637 12.873 5H16C17.6569 5 19 6.34315 19 8C19.5523 8 20 8.44772 20 9V11C20 11.5523 19.5523 12 19 12C19 13.6569 17.6569 15 16 15H3C1.34315 15 7.02246e-06 13.6569 0 12V8C6.44266e-08 6.34315 1.34315 5 3 5H6.82812L6.32227 6ZM9.37305 2.18164C9.52978 1.87172 9.99775 1.98294 9.99805 2.33008V5.00098H11.6445C11.8346 5.00098 11.9578 5.20151 11.8721 5.3711L9.62402 9.81641C9.46715 10.1262 9.00001 10.0143 9 9.66699V6.99707H7.35254C7.16285 6.99684 7.03973 6.79635 7.125 6.62696L9.37305 2.18164Z" fill="#212121"/>
</svg>
