<svg width="20" height="20" viewBox="0 0 20 20" fill="none" xmlns="http://www.w3.org/2000/svg">
<path d="M5 3.5C5 3.22386 5.22386 3 5.5 3H8.5C8.77614 3 9 3.22386 9 3.5V6.5C9 6.77614 8.77614 7 8.5 7H5.5C5.22386 7 5 6.77614 5 6.5V3.5ZM11.5 3C11.2239 3 11 3.22386 11 3.5V6.5C11 6.77614 11.2239 7 11.5 7H14.5C14.7761 7 15 6.77614 15 6.5V3.5C15 3.22386 14.7761 3 14.5 3H11.5ZM12 6V4H14V6H12ZM6 8C3.79086 8 2 9.79086 2 12C2 14.2091 3.79086 16 6 16H9.20703C9.07217 15.5232 9 15.02 9 14.5C9 13.8739 9.10462 13.2722 9.29733 12.7115C9.11376 12.5302 9 12.2784 9 12C9 11.4477 9.44772 11 10 11C10.0808 11 10.1593 11.0096 10.2345 11.0276C11.243 9.79025 12.7792 9 14.5 9C15.5349 9 16.5031 9.28585 17.3298 9.78289C16.6127 8.70803 15.3891 8 14 8H6ZM6 13C5.44772 13 5 12.5523 5 12C5 11.4477 5.44772 11 6 11C6.55228 11 7 11.4477 7 12C7 12.5523 6.55228 13 6 13ZM19 14.5C19 16.9853 16.9853 19 14.5 19C12.0147 19 10 16.9853 10 14.5C10 12.0147 12.0147 10 14.5 10C16.9853 10 19 12.0147 19 14.5ZM16.1464 12.6464L13.5 15.2929L12.8536 14.6464C12.6583 14.4512 12.3417 14.4512 12.1464 14.6464C11.9512 14.8417 11.9512 15.1583 12.1464 15.3536L13.1464 16.3536C13.3417 16.5488 13.6583 16.5488 13.8536 16.3536L16.8536 13.3536C17.0488 13.1583 17.0488 12.8417 16.8536 12.6464C16.6583 12.4512 16.3417 12.4512 16.1464 12.6464Z" fill="#212121"/>
</svg>
