<svg width="16" height="16" viewBox="0 0 16 16" fill="none" xmlns="http://www.w3.org/2000/svg">
<path d="M4.50002 1.99963C4.77601 1.99965 4.99981 2.22368 5.00002 2.49964V12.2927L6.14651 11.1462C6.34173 10.9512 6.65834 10.9512 6.85355 11.1462C7.04874 11.3414 7.0486 11.6579 6.85355 11.8532L4.85353 13.8532C4.65827 14.0485 4.34176 14.0485 4.1465 13.8532L2.14648 11.8532C1.95139 11.6579 1.95128 11.3414 2.14648 11.1462C2.34171 10.9512 2.65831 10.9512 2.85352 11.1462L4.00001 12.2927V2.49964C4.00022 2.22367 4.224 1.99963 4.50002 1.99963ZM10.5001 10.4997C10.7761 10.4997 10.9999 10.7237 11.0001 10.9997V12.2927L12.1466 11.1462C12.3418 10.9512 12.6584 10.9512 12.8536 11.1462C13.0488 11.3414 13.0486 11.6579 12.8536 11.8532L10.8536 13.8532C10.6583 14.0485 10.3418 14.0485 10.1465 13.8532L8.14653 11.8532C7.95144 11.6579 7.95132 11.3414 8.14653 11.1462C8.34175 10.9512 8.65836 10.9512 8.85356 11.1462L10.0001 12.2927V10.9997C10.0003 10.7237 10.224 10.4997 10.5001 10.4997ZM13.5001 6.99967C13.7761 6.99969 13.9999 7.22372 14.0001 7.49967C14.0001 7.7758 13.7762 7.99965 13.5001 7.99967H11.0001V8.99968C11.0001 9.27581 10.7762 9.49966 10.5001 9.49968C10.2239 9.49968 10.0001 9.27582 10.0001 8.99968V7.99967H7.50004C7.22389 7.99967 7.00003 7.77581 7.00003 7.49967C7.00024 7.2237 7.22402 6.99967 7.50004 6.99967H13.5001ZM12.5001 1.99963C12.7761 1.99965 12.9999 2.22368 13.0001 2.49964V5.49966C13.0001 5.77579 12.7762 5.99964 12.5001 5.99966C12.0002 5.99966 11.0314 6.00403 10.0528 5.58462C9.0487 5.15423 8.07128 4.29538 7.52543 2.65784C7.43834 2.39596 7.57998 2.11231 7.84184 2.02502C8.10366 1.93784 8.38722 2.07972 8.47465 2.34143C8.92875 3.70373 9.70151 4.34503 10.4473 4.66469C10.9946 4.89919 11.5467 4.96893 12.0001 4.98989V2.49964C12.0003 2.22367 12.2241 1.99963 12.5001 1.99963Z" fill="#212121"/>
</svg>
