<svg width="16" height="16" viewBox="0 0 16 16" fill="none" xmlns="http://www.w3.org/2000/svg">
<path d="M4.24994 2C4.66413 2.00003 4.99994 2.33581 4.99994 2.75V11.4395L5.71967 10.7197C6.01257 10.4269 6.48733 10.4269 6.78022 10.7197C7.07307 11.0126 7.07307 11.4874 6.78022 11.7803L4.78022 13.7803C4.48733 14.0732 4.01256 14.0732 3.71967 13.7803L1.71967 11.7803C1.42678 11.4874 1.42678 11.0126 1.71967 10.7197C2.01256 10.4269 2.48733 10.4269 2.78022 10.7197L3.49994 11.4395V2.75C3.49994 2.33579 3.83573 2 4.24994 2ZM10.7499 10C11.1641 10 11.4999 10.3358 11.4999 10.75V11.4395L12.2197 10.7197C12.5126 10.4269 12.9873 10.4269 13.2802 10.7197C13.5731 11.0126 13.5731 11.4874 13.2802 11.7803L11.2802 13.7803C10.9873 14.0732 10.5126 14.0732 10.2197 13.7803L8.21967 11.7803C7.92678 11.4874 7.92678 11.0126 8.21967 10.7197C8.51257 10.4269 8.98733 10.4269 9.28022 10.7197L9.99994 11.4395V10.75C9.99994 10.3358 10.3357 10 10.7499 10ZM13.2499 6.50001C13.6641 6.50004 13.9999 6.83581 13.9999 7.25001C13.9999 7.6642 13.6641 7.99998 13.2499 8.00001H11.4999V8.25001C11.4999 8.6642 11.1641 8.99998 10.7499 9.00001C10.3357 9.00001 9.99994 8.66422 9.99994 8.25001V8.00001H7.74994C7.33573 8.00001 6.99994 7.66422 6.99994 7.25001C6.99994 6.83579 7.33573 6.50001 7.74994 6.50001H13.2499ZM12.2499 1.5C12.6641 1.50003 12.9999 1.83581 12.9999 2.25V4.75C12.9999 5.1642 12.6641 5.49997 12.2499 5.5C11.64 5.5 10.7946 5.50885 9.9394 5.12012C9.05811 4.71947 8.26012 3.9471 7.57904 2.58496C7.3941 2.21455 7.54463 1.76428 7.91498 1.5791C8.28538 1.39419 8.73567 1.5447 8.92084 1.91504C9.48964 3.05248 10.0669 3.53054 10.5605 3.75489C10.8635 3.89259 11.1702 3.95203 11.4999 3.97852V2.25C11.4999 1.83579 11.8357 1.5 12.2499 1.5Z" fill="#212121"/>
</svg>
