<svg width="24" height="24" viewBox="0 0 24 24" fill="none" xmlns="http://www.w3.org/2000/svg">
<path d="M10.678 2.0867C11.1109 2.02948 11.5522 2 12 2C12.4478 2 12.8891 2.02948 13.322 2.0867C13.7326 2.14097 14.0215 2.51786 13.9673 2.9285C13.913 3.33914 13.5361 3.62804 13.1254 3.57376C12.7575 3.52514 12.3819 3.5 12 3.5C11.6181 3.5 11.2425 3.52514 10.8746 3.57376C10.4639 3.62804 10.087 3.33914 10.0327 2.9285C9.97848 2.51786 10.2674 2.14097 10.678 2.0867ZM21.0715 10.0327C21.4821 9.97848 21.859 10.2674 21.9133 10.678C21.9705 11.1109 22 11.5522 22 12C22 12.4478 21.9705 12.8891 21.9133 13.322C21.859 13.7326 21.4821 14.0215 21.0715 13.9673C20.6609 13.913 20.372 13.5361 20.4262 13.1254C20.4749 12.7575 20.5 12.3819 20.5 12C20.5 11.6181 20.4749 11.2425 20.4262 10.8746C20.372 10.4639 20.6609 10.087 21.0715 10.0327ZM2.9285 10.0327C3.33914 10.087 3.62804 10.4639 3.57376 10.8746C3.52514 11.2425 3.5 11.6181 3.5 12C3.5 12.3819 3.52514 12.7575 3.57376 13.1254C3.62804 13.5361 3.33914 13.913 2.9285 13.9673C2.51786 14.0215 2.14097 13.7326 2.0867 13.322C2.02948 12.8891 2 12.4478 2 12C2 11.5522 2.02948 11.1109 2.0867 10.678C2.14097 10.2674 2.51786 9.97848 2.9285 10.0327ZM10.0327 21.0715C10.087 20.6609 10.4639 20.372 10.8746 20.4262C11.2425 20.4749 11.6181 20.5 12 20.5C12.3819 20.5 12.7575 20.4749 13.1254 20.4262C13.5361 20.372 13.913 20.6609 13.9673 21.0715C14.0215 21.4821 13.7326 21.859 13.322 21.9133C12.8891 21.9705 12.4478 22 12 22C11.5522 22 11.1109 21.9705 10.678 21.9133C10.2674 21.859 9.97848 21.4821 10.0327 21.0715ZM18.075 4.05587C18.4215 4.32151 18.7544 4.61271 19.0711 4.92935C19.3877 5.246 19.6789 5.57889 19.9446 5.92544C20.1965 6.25419 20.1343 6.72497 19.8056 6.97696C19.4768 7.22895 19.006 7.16673 18.7541 6.83798C18.5283 6.54345 18.2805 6.26006 18.0104 5.99001C17.7404 5.71997 17.457 5.47212 17.1624 5.24636C16.8337 4.99437 16.7715 4.52359 17.0235 4.19485C17.2755 3.8661 17.7462 3.80388 18.075 4.05587ZM19.8056 17.0239C20.1343 17.2759 20.1965 17.7467 19.9446 18.0754C19.6789 18.422 19.3877 18.7548 19.0711 19.0715C18.7544 19.3881 18.4215 19.6793 18.075 19.945C17.7462 20.197 17.2755 20.1347 17.0235 19.806C16.7715 19.4772 16.8337 19.0065 17.1624 18.7545C17.457 18.5287 17.7404 18.2809 18.0104 18.0108C18.2805 17.7408 18.5283 17.4574 18.7541 17.1629C19.006 16.8341 19.4768 16.7719 19.8056 17.0239ZM6.97654 4.19485C7.22853 4.52359 7.16631 4.99437 6.83756 5.24636C6.54303 5.47212 6.25964 5.71997 5.98959 5.99001C5.71955 6.26006 5.4717 6.54345 5.24594 6.83798C4.99395 7.16673 4.52317 7.22895 4.19443 6.97696C3.86568 6.72497 3.80346 6.25419 4.05545 5.92544C4.32109 5.57889 4.61229 5.246 4.92893 4.92935C5.24558 4.61271 5.57847 4.32151 5.92502 4.05587C6.25377 3.80388 6.72455 3.8661 6.97654 4.19485ZM4.19443 17.0239C4.52317 16.7719 4.99395 16.8341 5.24594 17.1629C5.4717 17.4574 5.71955 17.7408 5.98959 18.0108C6.25964 18.2809 6.54303 18.5287 6.83756 18.7545C7.16631 19.0065 7.22853 19.4772 6.97654 19.806C6.72455 20.1347 6.25377 20.197 5.92502 19.945C5.57847 19.6793 5.24558 19.3881 4.92893 19.0715C4.61229 18.7548 4.32109 18.422 4.05545 18.0754C3.80346 17.7467 3.86568 17.2759 4.19443 17.0239ZM16.3444 8.91279C15.3308 7.74653 13.539 7.68968 12.4534 8.78933L11.9976 9.25113L11.5417 8.78933C10.4562 7.68968 8.66434 7.74653 7.6507 8.91279C6.7831 9.91103 6.7831 11.3958 7.6507 12.394L11.4315 16.7441C11.5739 16.908 11.7804 17.0021 11.9976 17.0021C12.2147 17.0021 12.4212 16.908 12.5636 16.7441L16.3444 12.394C17.212 11.3958 17.2121 9.91103 16.3444 8.91279Z" fill="#212121"/>
</svg>
