<svg width="24" height="24" viewBox="0 0 24 24" fill="none" xmlns="http://www.w3.org/2000/svg">
<path d="M21.9487 12.9921L21.7513 14.0287C21.5664 15 20.6588 15.6523 19.6305 15.5529L17.5841 15.3552C16.6923 15.269 15.9325 14.6356 15.7056 13.7892L15.0743 11.434C14.1398 11.0508 13.1099 10.8756 11.9845 10.9085C10.8591 10.9414 9.81232 11.1773 8.84412 11.6161L8.45304 13.8209C8.30481 14.6566 7.61525 15.2799 6.74193 15.3677L4.70741 15.5723C3.69224 15.6744 2.71891 15.0284 2.43031 14.0611L2.12104 13.0245C1.8132 11.9927 2.08792 10.9068 2.84222 10.1739C4.62301 8.44357 7.59203 7.57574 11.7493 7.57034C15.9126 7.56498 18.974 8.42752 20.9337 10.158C21.7582 10.8862 22.1443 11.9643 21.9487 12.9921Z" fill="#212121"/>
</svg>
