<svg width="24" height="24" viewBox="0 0 24 24" fill="none" xmlns="http://www.w3.org/2000/svg">
<path d="M17.7499 2.00098C18.9407 2.00098 19.9155 2.92614 19.9947 4.09693L19.9999 4.25098V19.749C19.9999 20.9399 19.0747 21.9147 17.9039 21.9939L17.7499 21.999H6.25C5.05914 21.999 4.08436 21.0739 4.00519 19.9031L4 19.749V4.25098C4 3.06011 4.92516 2.08533 6.09595 2.00617L6.25 2.00098H17.7499ZM12.2481 12.9973H7.74994L7.64817 13.0042C7.28209 13.0538 6.99994 13.3676 6.99994 13.7473C6.99994 14.127 7.28209 14.4408 7.64817 14.4905L7.74994 14.4973H12.2481L12.3498 14.4905C12.7159 14.4408 12.9981 14.127 12.9981 13.7473C12.9981 13.3676 12.7159 13.0538 12.3498 13.0042L12.2481 12.9973ZM16.2499 9.99866H7.74994L7.64817 10.0055C7.28209 10.0552 6.99994 10.369 6.99994 10.7487C6.99994 11.1284 7.28209 11.4421 7.64817 11.4918L7.74994 11.4987H16.2499L16.3517 11.4918C16.7178 11.4421 16.9999 11.1284 16.9999 10.7487C16.9999 10.369 16.7178 10.0552 16.3517 10.0055L16.2499 9.99866ZM16.2499 7.00001H7.74994L7.64817 7.00686C7.28209 7.05652 6.99994 7.37031 6.99994 7.75001C6.99994 8.12971 7.28209 8.4435 7.64817 8.49316L7.74994 8.50001H16.2499L16.3517 8.49316C16.7178 8.4435 16.9999 8.12971 16.9999 7.75001C16.9999 7.37031 16.7178 7.05652 16.3517 7.00686L16.2499 7.00001Z" fill="#212121"/>
</svg>
