<svg width="48" height="48" viewBox="0 0 48 48" fill="none" xmlns="http://www.w3.org/2000/svg">
<path d="M22 4C16.4772 4 12 8.47715 12 14C12 19.5228 16.4772 24 22 24C27.5228 24 32 19.5228 32 14C32 8.47715 27.5228 4 22 4ZM10.2499 28C7.90326 28 6.00002 29.9013 6 32.2489L6 33C6 36.7555 7.94167 39.5669 10.9202 41.3802C13.8486 43.163 17.7849 43.9997 21.9981 44C21.9996 43.6722 22.0419 43.3362 22.13 42.9966L22.9685 39.7621C23.1889 38.9121 23.6293 38.135 24.2455 37.5093L33.6085 28H10.2499ZM44.834 25.1677C43.2708 23.6045 40.7334 23.6143 39.1823 25.1896L25.6706 38.9125C25.3009 39.2879 25.0367 39.7541 24.9045 40.2641L24.066 43.4985C23.6833 44.9745 25.0273 46.3184 26.5033 45.9357L29.7376 45.0972C30.2476 44.965 30.7138 44.7007 31.0892 44.3311L44.8121 30.8194C46.3874 29.2683 46.3972 26.7309 44.834 25.1677Z" fill="#212121"/>
</svg>
