<svg width="28" height="28" viewBox="0 0 28 28" fill="none" xmlns="http://www.w3.org/2000/svg">
<path d="M15.7198 6.21967C15.9342 6.00534 16.257 5.94063 16.5372 6.05658C16.8173 6.17262 16.9999 6.44672 17 6.74994V20.25C17 20.6642 16.6643 21 16.25 21C15.8358 21 15.5 20.6642 15.5 20.25V8.5605L10.5303 13.5302C10.2374 13.8231 9.76264 13.8231 9.46975 13.5302L4.50001 8.5605V20.25C4.50001 20.6642 4.16422 21 3.75 21C3.33579 21 3 20.6642 3 20.25V6.74994C3.00013 6.44672 3.18273 6.17262 3.46289 6.05658C3.74304 5.94063 4.06583 6.00534 4.28028 6.21967L10 11.9394L15.7198 6.21967ZM22.7501 5.99994C23.1642 5.99994 23.4999 6.33587 23.5001 6.74994V18.4395L25.2198 16.7197C25.5127 16.427 25.9875 16.427 26.2804 16.7197C26.5732 17.0126 26.5731 17.4874 26.2804 17.7803L23.2803 20.7803C22.9874 21.0732 22.5127 21.0732 22.2198 20.7803L19.2198 17.7803C18.927 17.4874 18.9269 17.0126 19.2198 16.7197C19.5126 16.427 19.9875 16.427 20.2803 16.7197L22.0001 18.4395V6.74994C22.0002 6.33587 22.336 5.99994 22.7501 5.99994Z" fill="#212121"/>
</svg>
