<?xml version="1.0" encoding="UTF-8"?>
<svg width="48px" height="48px" viewBox="0 0 48 48" version="1.1" xmlns="http://www.w3.org/2000/svg" xmlns:xlink="http://www.w3.org/1999/xlink">
    <!-- Generator: Sketch 59.1 (86144) - https://sketch.com -->
    <title>ic_weather_hail_night_48_filled</title>
    <desc>Created with Sketch.</desc>
    <g id="ðŸ”-Product-Icons" stroke="none" stroke-width="1" fill="none" fill-rule="evenodd">
        <g id="ic_weather_hail_night_48_filled" fill="#212121">
            <path d="M26,40.0313234 C27.1045695,40.0313234 28,40.9267539 28,42.0313234 C28,43.1358929 27.1045695,44.0313234 26,44.0313234 C24.8954305,44.0313234 24,43.1358929 24,42.0313234 C24,40.9267539 24.8954305,40.0313234 26,40.0313234 Z M19,38.0313234 C20.1045695,38.0313234 21,38.9267539 21,40.0313234 C21,41.1358929 20.1045695,42.0313234 19,42.0313234 C17.8954305,42.0313234 17,41.1358929 17,40.0313234 C17,38.9267539 17.8954305,38.0313234 19,38.0313234 Z M33,38.0313234 C34.1045695,38.0313234 35,38.9267539 35,40.0313234 C35,41.1358929 34.1045695,42.0313234 33,42.0313234 C31.8954305,42.0313234 31,41.1358929 31,40.0313234 C31,38.9267539 31.8954305,38.0313234 33,38.0313234 Z M25.9988918,12.0096412 C32.335954,12.0096412 35.9308615,16.204222 36.4536905,21.2698939 L36.6136229,21.2698888 C40.6917823,21.2698888 43.9977837,24.5673365 43.9977837,28.6349444 C43.9977837,32.7025523 40.6917823,36 36.6136229,36 L15.3841608,36 C11.3060014,36 8,32.7025523 8,28.6349444 C8,24.5673365 11.3060014,21.2698888 15.3842058,21.2698888 L15.5440932,21.2698939 C16.0699636,16.1709267 19.6618297,12.0096412 25.9988918,12.0096412 Z M13.1779282,4.0022343 C14.7679791,4.08753742 16.3119166,4.5457712 17.7041002,5.34955183 C19.8142756,6.56786335 21.321747,8.4292038 22.1219035,10.5431601 C18.1057461,11.6869784 15.2446572,14.6258984 14.0950428,18.5916137 L14.0032153,18.9244503 L13.8876819,19.4001055 L13.4750314,19.4770233 C11.1839655,19.9579001 9.19806583,21.279971 7.85856596,23.1089615 L7.54970577,22.9373947 L7.54970577,22.9373947 C6.23466925,22.1780714 5.1183289,21.1471177 4.2654475,19.9086885 C3.70646864,19.0968478 4.06810311,17.9756219 4.99616015,17.6435152 C8.2809958,16.4678311 10.0508447,15.1447438 11.063059,13.2123898 C12.1685479,11.1022216 12.3727655,8.86425728 11.6388216,5.8575041 C11.400197,4.87950344 12.1726994,3.9482991 13.1779282,4.0022343 Z" id="ðŸŽ¨-Color"></path>
        </g>
    </g>
</svg>