<svg width="24" height="24" viewBox="0 0 24 24" fill="none" xmlns="http://www.w3.org/2000/svg">
<path d="M13.5 12.501C14.2793 12.501 14.9204 13.0963 14.9931 13.8566L15 14.001V15H13.5C12.1193 15 11 16.1193 11 17.5V20.7215C10.1627 20.9188 9.29355 21 8.5 21C5.77787 21 2.1647 20.044 2.00545 16.7296L2 16.5V14C2 13.2207 2.59527 12.5796 3.35561 12.5069L3.5 12.5L13.5 12.501ZM21.5 15C21.6712 15 21.8384 15.0172 22 15.05V14L21.9931 13.8555C21.9204 13.0944 21.2793 12.5 20.5 12.5H15.488L15.601 12.6616C15.8507 13.0488 16 13.5056 16 14V15H21.5ZM8.5 2C10.985 2 13 4.015 13 6.5C13 8.985 10.985 11 8.5 11C6.015 11 4 8.985 4 6.5C4 4.015 6.015 2 8.5 2ZM17.5 4C19.433 4 21 5.567 21 7.5C21 9.433 19.433 11 17.5 11C15.567 11 14 9.433 14 7.5C14 5.567 15.567 4 17.5 4ZM12 17.5C12 16.6716 12.6716 16 13.5 16H21.5C22.3284 16 23 16.6716 23 17.5V21.5C23 22.3284 22.3284 23 21.5 23H13.5C12.6716 23 12 22.3284 12 21.5V17.5ZM22 18C21.4477 18 21 17.5523 21 17H20C20 18.1046 20.8954 19 22 19V18ZM22 20C20.8954 20 20 20.8954 20 22H21C21 21.4477 21.4477 21 22 21V20ZM14 17C14 17.5523 13.5523 18 13 18V19C14.1046 19 15 18.1046 15 17H14ZM15 22C15 20.8954 14.1046 20 13 20V21C13.5523 21 14 21.4477 14 22H15ZM19.25 19.5C19.25 18.5335 18.4665 17.75 17.5 17.75C16.5335 17.75 15.75 18.5335 15.75 19.5C15.75 20.4665 16.5335 21.25 17.5 21.25C18.4665 21.25 19.25 20.4665 19.25 19.5Z" fill="#212121"/>
</svg>
