<svg width="24" height="24" viewBox="0 0 24 24" fill="none" xmlns="http://www.w3.org/2000/svg">
<path d="M3.14258 5.75C3.14258 4.23122 4.3738 3 5.89258 3H18.3926C19.9114 3 21.1426 4.23122 21.1426 5.75V12.1153C20.6814 11.8027 20.1779 11.5479 19.6426 11.3611V5.75C19.6426 5.05964 19.0829 4.5 18.3926 4.5H5.89258C5.20222 4.5 4.64258 5.05964 4.64258 5.75V18.25C4.64258 18.9404 5.20222 19.5 5.89258 19.5H11.3142C11.4866 20.0335 11.726 20.5368 12.0225 21H5.89258C4.3738 21 3.14258 19.7688 3.14258 18.25V5.75ZM23.0007 17.5C23.0007 20.5376 20.5383 23 17.5007 23C14.4632 23 12.0007 20.5376 12.0007 17.5C12.0007 14.4624 14.4632 12 17.5007 12C20.5383 12 23.0007 14.4624 23.0007 17.5ZM17.3543 15.3536C17.5495 15.1583 17.5495 14.8417 17.3543 14.6464C17.159 14.4512 16.8424 14.4512 16.6472 14.6464L14.1472 17.1464C13.9519 17.3417 13.9519 17.6583 14.1472 17.8536L16.6472 20.3536C16.8424 20.5488 17.159 20.5488 17.3543 20.3536C17.5495 20.1583 17.5495 19.8417 17.3543 19.6464L15.7078 18H20.5007C20.7769 18 21.0007 17.7761 21.0007 17.5C21.0007 17.2239 20.7769 17 20.5007 17H15.7078L17.3543 15.3536Z" fill="#212121"/>
</svg>
