<svg width="48" height="48" viewBox="0 0 48 48" fill="none" xmlns="http://www.w3.org/2000/svg">
<path d="M13.1003 7.27814C14.2071 4.54723 17.3457 3.26284 20.0495 4.43439L22.9958 5.71076C23.6853 6.00935 24.4679 6.01328 25.1599 5.72052L28.1179 4.46857C30.8313 3.32049 33.9582 4.63107 35.0417 7.37091L36.2224 10.3582C36.4988 11.0568 37.0496 11.6121 37.7458 11.8944L40.7224 13.1004C43.453 14.2074 44.7376 17.346 43.5661 20.0496L42.2888 22.9959C41.9901 23.6855 41.9872 24.4679 42.28 25.16L43.532 28.118C44.6797 30.8314 43.3685 33.9584 40.6286 35.0418L37.6423 36.2225C36.9435 36.4988 36.3885 37.0496 36.1062 37.7459L34.8991 40.7225C33.7923 43.453 30.6544 44.7373 27.9509 43.5662L25.0036 42.2889C24.3142 41.9903 23.5325 41.9875 22.8405 42.2801L19.8825 43.5321C17.169 44.6804 14.0423 43.3687 12.9587 40.6287L11.7771 37.6424C11.5007 36.9437 10.9499 36.3886 10.2536 36.1063L7.27803 34.8993C4.54722 33.7925 3.26296 30.6547 4.43428 27.951L5.71064 25.0037C6.00928 24.3144 6.0129 23.5326 5.72041 22.8406L4.46846 19.8826C3.32012 17.1691 4.6309 14.0425 7.3708 12.9588L10.3581 11.7772C11.0567 11.5008 11.612 10.95 11.8942 10.2537L13.1003 7.27814ZM32.6335 17.616C32.1453 17.1282 31.354 17.128 30.8659 17.616L20.7497 27.7323L17.1335 24.116C16.6453 23.6282 15.854 23.628 15.3659 24.116C14.8779 24.6041 14.8781 25.3954 15.3659 25.8836L19.8659 30.3836C20.3541 30.8714 21.1455 30.8716 21.6335 30.3836L32.6335 19.3836C33.1215 18.8956 33.1213 18.1042 32.6335 17.616Z" fill="#212121"/>
</svg>
