<svg width="16" height="16" viewBox="0 0 16 16" fill="none" xmlns="http://www.w3.org/2000/svg">
<path d="M6.32704 6.91706C7.15594 5.95255 8.31349 5.27865 9.62596 5.06907C9.70657 4.81036 9.75 4.53525 9.75 4.25C9.75 2.73122 8.51878 1.5 7 1.5C5.48122 1.5 4.25 2.73122 4.25 4.25C4.25 5.53662 5.13357 6.61687 6.32704 6.91706ZM5 10.5C5 9.59978 5.21628 8.75007 5.59971 8H3.5C2.67157 8 2 8.67157 2 9.5V10C2 11.8026 3.55468 13.653 6.22176 13.9567C5.45766 13.0122 5 11.8095 5 10.5ZM15 10.5C15 12.9853 12.9853 15 10.5 15C8.01472 15 6 12.9853 6 10.5C6 8.01472 8.01472 6 10.5 6C12.9853 6 15 8.01472 15 10.5ZM10.976 7.86053C10.8262 7.37982 10.1738 7.37982 10.024 7.86053L9.54652 9.39228H8.00149C7.51662 9.39228 7.31501 10.0391 7.70728 10.3362L8.95725 11.2829L8.4798 12.8146C8.32997 13.2953 8.85775 13.6951 9.25003 13.398L10.5 12.4513L11.75 13.398C12.1422 13.6951 12.67 13.2953 12.5202 12.8146L12.0428 11.2829L13.2927 10.3362C13.685 10.0391 13.4834 9.39228 12.9985 9.39228H11.4535L10.976 7.86053Z" fill="#212121"/>
</svg>
