<svg width="28" height="28" viewBox="0 0 28 28" fill="none" xmlns="http://www.w3.org/2000/svg">
<path d="M13 20.5C13 22.5983 13.8617 24.4954 15.2506 25.8567C14.5334 25.9507 13.7811 26 13 26C7.21053 26 3 23.4333 3 19.7146V19C3 17.3431 4.34315 16 6 16H14.4995C13.5579 17.2535 13 18.8116 13 20.5ZM13 2C16.3137 2 19 4.68629 19 8C19 11.3137 16.3137 14 13 14C9.68629 14 7 11.3137 7 8C7 4.68629 9.68629 2 13 2ZM27 20.5C27 24.0899 24.0899 27 20.5 27C16.9101 27 14 24.0899 14 20.5C14 16.9101 16.9101 14 20.5 14C24.0899 14 27 16.9101 27 20.5ZM21.214 16.5408C20.9893 15.8197 20.0107 15.8197 19.786 16.5408L19.0698 18.8384H16.7522C16.0249 18.8384 15.7225 19.8086 16.3109 20.2543L18.1859 21.6743L17.4697 23.9719C17.2449 24.693 18.0366 25.2926 18.625 24.847L20.5 23.427L22.375 24.847C22.9634 25.2926 23.7551 24.693 23.5303 23.9719L22.8141 21.6743L24.6891 20.2543C25.2775 19.8086 24.9751 18.8384 24.2478 18.8384H21.9302L21.214 16.5408Z" fill="#212121"/>
</svg>
