<?xml version="1.0" encoding="UTF-8"?>
<svg width="24px" height="24px" viewBox="0 0 24 24" version="1.1" xmlns="http://www.w3.org/2000/svg" xmlns:xlink="http://www.w3.org/1999/xlink">
    <!-- Generator: Sketch 59.1 (86144) - https://sketch.com -->
    <title>ic_fluent_notebook_lightning_24_regular</title>
    <desc>Created with Sketch.</desc>
    <g id="ðŸ”-Product-Icons" stroke="none" stroke-width="1" fill="none" fill-rule="evenodd">
        <g id="ic_fluent_notebook_lightning_24_regular" fill="#212121" fill-rule="nonzero">
            <path d="M6.5,12 C9.53756612,12 12,14.4624339 12,17.5 C12,20.5375661 9.53756612,23 6.5,23 C3.46243388,23 1,20.5375661 1,17.5 C1,14.4624339 3.46243388,12 6.5,12 Z M16.748832,2 C17.9914727,2 18.998832,3.00735931 18.998832,4.25 L18.998832,19.75 C18.998832,20.9926407 17.9914727,22 16.748832,22 L11.1896412,22.0008195 C11.6160435,21.5566422 11.9799518,21.0520148 12.2672297,20.5010736 L16.748832,20.5 C17.1630456,20.5 17.498832,20.1642136 17.498832,19.75 L17.498832,4.25 C17.498832,3.83578644 17.1630456,3.5 16.748832,3.5 L6.25,3.5 C5.83578644,3.5 5.5,3.83578644 5.5,4.25 L5.50009292,11.0764338 C4.97687415,11.157217 4.47425417,11.3003968 4,11.4981326 L4,4.25 C4,3.00735931 5.00735931,2 6.25,2 L16.748832,2 Z M7.50355671,14.0020808 L6.00571877,14.0020808 C5.79088189,14.0020808 5.60005951,14.1393199 5.53170322,14.3429919 L4.52554335,17.3409112 C4.41681841,17.6648643 4.65784746,18 4.99955891,18 L5.80169367,18 L5.02544208,20.3394381 C4.83910069,20.9010268 5.61054725,21.2636378 5.92404986,20.76182 L8.42104979,16.7649183 C8.62910329,16.4318909 8.38967474,16 7.99699993,16 L7.55159688,16 L7.98001459,14.6536983 C8.08263227,14.3312225 7.8419663,14.0020808 7.50355671,14.0020808 Z M20.75,15.001939 C21.1296958,15.001939 21.443491,15.2840929 21.4931534,15.6501685 L21.5,15.751939 L21.5,17.25 C21.5,17.6296958 21.2178461,17.943491 20.8517706,17.9931534 L20.75,18 L20,18 L20,15.001939 L20.75,15.001939 Z M20.75,11.001939 C21.1296958,11.001939 21.443491,11.2840929 21.4931534,11.6501685 L21.5,11.751939 L21.5,13.25 C21.5,13.6296958 21.2178461,13.943491 20.8517706,13.9931534 L20.75,14 L20,14 L20,11.001939 L20.75,11.001939 Z M20.75,7.00193905 C21.1296958,7.00193905 21.443491,7.28409293 21.4931534,7.65016849 L21.5,7.75193905 L21.5,9.25 C21.5,9.62969577 21.2178461,9.94349096 20.8517706,9.99315338 L20.75,10 L20,10 L20,7.00193905 L20.75,7.00193905 Z M15.248832,5 C15.6630456,5 15.998832,5.33578644 15.998832,5.75 L15.998832,8.24850422 C15.998832,8.66271778 15.6630456,8.99850422 15.248832,8.99850422 L7.75,8.99850422 C7.33578644,8.99850422 7,8.66271778 7,8.24850422 L7,5.75 C7,5.33578644 7.33578644,5 7.75,5 L15.248832,5 Z M14.498832,6.5 L8.5,6.5 L8.5,7.49850422 L14.498832,7.49850422 L14.498832,6.5 Z" id="ðŸŽ¨-Color"></path>
        </g>
    </g>
</svg>