<svg width="32" height="32" viewBox="0 0 32 32" fill="none" xmlns="http://www.w3.org/2000/svg">
<path d="M12 28H25.5C26.8807 28 28 26.8807 28 25.5V23.5C28 22.1193 26.8807 21 25.5 21H12V28ZM12 19H25.5C26.8807 19 28 17.8807 28 16.5V15.5C28 14.1193 26.8807 13 25.5 13H12V19ZM10 13V19H6.5C5.11929 19 4 17.8807 4 16.5V15.5C4 14.1193 5.11929 13 6.5 13H10ZM12 11H25.5C26.8807 11 28 9.88071 28 8.5V6.5C28 5.11929 26.8807 4 25.5 4H12V11ZM10 4V11H6.5C5.11929 11 4 9.88071 4 8.5V6.5C4 5.11929 5.11929 4 6.5 4H10ZM10 21V28H6.5C5.11929 28 4 26.8807 4 25.5V23.5C4 22.1193 5.11929 21 6.5 21H10Z" fill="#212121"/>
</svg>
