<svg width="24" height="24" viewBox="0 0 24 24" fill="none" xmlns="http://www.w3.org/2000/svg">
<path d="M5.25 3.5C4.2835 3.5 3.5 4.2835 3.5 5.25V8.25C3.5 8.66421 3.16421 9 2.75 9C2.33579 9 2 8.66421 2 8.25V5.25C2 3.45507 3.45507 2 5.25 2H8.25C8.66421 2 9 2.33579 9 2.75C9 3.16421 8.66421 3.5 8.25 3.5H5.25ZM5.25 20.5C4.2835 20.5 3.5 19.7165 3.5 18.75V15.75C3.5 15.3358 3.16421 15 2.75 15C2.33579 15 2 15.3358 2 15.75V18.75C2 20.5449 3.45507 22 5.25 22H8.25C8.66421 22 9 21.6642 9 21.25C9 20.8358 8.66421 20.5 8.25 20.5H5.25ZM20.5 5.25C20.5 4.2835 19.7165 3.5 18.75 3.5H15.75C15.3358 3.5 15 3.16421 15 2.75C15 2.33579 15.3358 2 15.75 2H18.75C20.5449 2 22 3.45507 22 5.25V8.25C22 8.66421 21.6642 9 21.25 9C20.8358 9 20.5 8.66421 20.5 8.25V5.25ZM18.75 20.5C19.7165 20.5 20.5 19.7165 20.5 18.75V15.75C20.5 15.3358 20.8358 15 21.25 15C21.6642 15 22 15.3358 22 15.75V18.75C22 20.5449 20.5449 22 18.75 22H15.75C15.3358 22 15 21.6642 15 21.25C15 20.8358 15.3358 20.5 15.75 20.5H18.75ZM7 7H10V10H7V7ZM14 10H10V14H7V17H10V14H14V17H17V14H14V10ZM14 10V7H17V10H14Z" fill="#212121"/>
</svg>
