<svg width="29" height="28" viewBox="0 0 29 28" fill="none" xmlns="http://www.w3.org/2000/svg">
<path d="M17.67 11C18.9127 11 19.92 12.0074 19.92 13.25V19.499C19.92 22.5371 17.4571 25 14.419 25C11.3808 25 8.91794 22.5371 8.91794 19.499V13.25C8.91794 12.0074 9.9253 11 11.1679 11H17.67ZM17.67 12.5H11.1679C10.7537 12.5 10.4179 12.8358 10.4179 13.25V19.499C10.4179 21.7087 12.2093 23.5 14.419 23.5C16.6287 23.5 18.42 21.7087 18.42 19.499V13.25C18.42 12.8358 18.0843 12.5 17.67 12.5ZM4.66602 11L8.82247 11.0003C8.42779 11.4116 8.14028 11.9266 8.00483 12.5003L4.66602 12.5C4.2518 12.5 3.91602 12.8358 3.91602 13.25V18.4988C3.91602 20.1563 5.25972 21.5 6.91726 21.5C7.35812 21.5 7.77679 21.4049 8.15387 21.2342C8.28731 21.7236 8.47833 22.1899 8.71788 22.6257C8.16687 22.8663 7.55768 23 6.91726 23C4.43129 23 2.41602 20.9847 2.41602 18.4988V13.25C2.41602 12.0074 3.42337 11 4.66602 11ZM24.166 11C25.4087 11 26.416 12.0074 26.416 13.25V18.5C26.416 20.9853 24.4013 23 21.916 23C21.2769 23 20.669 22.8668 20.1184 22.6266L20.1741 22.5254C20.3882 22.1192 20.5605 21.6875 20.6853 21.2362C21.0598 21.4057 21.4769 21.5 21.916 21.5C23.5729 21.5 24.916 20.1569 24.916 18.5V13.25C24.916 12.8358 24.5802 12.5 24.166 12.5L20.8332 12.5003C20.6977 11.9266 20.4102 11.4116 20.0155 11.0003L24.166 11ZM14.416 3C16.349 3 17.916 4.567 17.916 6.5C17.916 8.433 16.349 10 14.416 10C12.483 10 10.916 8.433 10.916 6.5C10.916 4.567 12.483 3 14.416 3ZM22.419 4C24.0759 4 25.419 5.34315 25.419 7C25.419 8.65685 24.0759 10 22.419 10C20.7621 10 19.419 8.65685 19.419 7C19.419 5.34315 20.7621 4 22.419 4ZM6.41303 4C8.06989 4 9.41303 5.34315 9.41303 7C9.41303 8.65685 8.06989 10 6.41303 10C4.75618 10 3.41303 8.65685 3.41303 7C3.41303 5.34315 4.75618 4 6.41303 4ZM14.416 4.5C13.3114 4.5 12.416 5.39543 12.416 6.5C12.416 7.60457 13.3114 8.5 14.416 8.5C15.5206 8.5 16.416 7.60457 16.416 6.5C16.416 5.39543 15.5206 4.5 14.416 4.5ZM22.419 5.5C21.5906 5.5 20.919 6.17157 20.919 7C20.919 7.82843 21.5906 8.5 22.419 8.5C23.2474 8.5 23.919 7.82843 23.919 7C23.919 6.17157 23.2474 5.5 22.419 5.5ZM6.41303 5.5C5.5846 5.5 4.91303 6.17157 4.91303 7C4.91303 7.82843 5.5846 8.5 6.41303 8.5C7.24146 8.5 7.91303 7.82843 7.91303 7C7.91303 6.17157 7.24146 5.5 6.41303 5.5Z" fill="#212121"/>
</svg>
