<?xml version="1.0" encoding="UTF-8"?>
<svg width="20px" height="20px" viewBox="0 0 20 20" version="1.1" xmlns="http://www.w3.org/2000/svg" xmlns:xlink="http://www.w3.org/1999/xlink">
    <!-- Generator: Sketch 63.1 (92452) - https://sketch.com -->
    <title>ic_fluent_people_team_20_filled</title>
    <desc>Created with Sketch.</desc>
    <g id="ðŸ”-System-Icons" stroke="none" stroke-width="1" fill="none" fill-rule="evenodd">
        <g id="ic_fluent_people_team_20_filled" fill="#212121" fill-rule="nonzero">
            <path d="M12.4746679,8.01416981 C12.9875037,8.01416981 13.4101751,8.40021 13.4679402,8.89754868 L13.4746679,9.01416981 L13.4746679,13.3815317 C13.4746679,15.3058488 11.9147007,16.865816 9.99038366,16.865816 C8.13021051,16.865816 6.61050207,15.4081133 6.51125503,13.5727047 L6.50609943,13.3815317 L6.50609943,9.01416981 C6.50609943,8.50133397 6.89213962,8.07866265 7.3894783,8.02089754 L7.50609943,8.01416981 L12.4746679,8.01416981 Z M5.77400881,8.01357366 C5.63202259,8.25883037 5.54063189,8.53703624 5.51411238,8.83391559 L5.50609943,9.01416981 L5.50609943,13.3815317 L5.51098031,13.5926276 C5.54076581,14.2353721 5.70586374,14.8427756 5.97844112,15.3870053 C5.63880637,15.5305447 5.26515935,15.6095526 4.87305905,15.6095526 C3.35192161,15.6095526 2.10850994,14.4204673 2.02163505,12.9211076 L2.01678634,12.7532799 L2.01678634,9.01416981 C2.01678634,8.50133397 2.40282653,8.07866265 2.90016521,8.02089754 L3.01678634,8.01416981 L5.77400881,8.01357366 Z M14.2067585,8.01357366 L16.9911187,8.01416981 C17.5039545,8.01416981 17.9266259,8.40021 17.984391,8.89754868 L17.9911187,9.01416981 L17.9911187,12.7540587 C17.9911187,14.3311044 16.7126706,15.6095526 15.1356249,15.6095526 C14.7347142,15.6095526 14.3531006,15.5269317 14.0068822,15.3777879 C14.2690162,14.8511716 14.4305641,14.2665866 14.4668553,13.6484369 L14.4746679,13.3815317 L14.4746679,9.01416981 L14.4691822,8.86490746 C14.446421,8.55639582 14.3536748,8.26734622 14.2067585,8.01357366 Z M9.98851432,2.98911626 C11.2186525,2.98911626 12.2158765,3.98634026 12.2158765,5.21647842 C12.2158765,6.44661657 11.2186525,7.44384057 9.98851432,7.44384057 C8.75837617,7.44384057 7.76115216,6.44661657 7.76115216,5.21647842 C7.76115216,3.98634026 8.75837617,2.98911626 9.98851432,2.98911626 Z M14.9756846,3.61724795 C16.0323689,3.61724795 16.8889809,4.47385989 16.8889809,5.53054426 C16.8889809,6.58722864 16.0323689,7.44384057 14.9756846,7.44384057 C13.9190002,7.44384057 13.0623882,6.58722864 13.0623882,5.53054426 C13.0623882,4.47385989 13.9190002,3.61724795 14.9756846,3.61724795 Z M5.01711309,3.61724795 C6.07379746,3.61724795 6.9304094,4.47385989 6.9304094,5.53054426 C6.9304094,6.58722864 6.07379746,7.44384057 5.01711309,7.44384057 C3.96042871,7.44384057 3.10381677,6.58722864 3.10381677,5.53054426 C3.10381677,4.47385989 3.96042871,3.61724795 5.01711309,3.61724795 Z" id="ðŸŽ¨-Color"></path>
        </g>
    </g>
</svg>