<svg width="21" height="20" viewBox="0 0 21 20" fill="none" xmlns="http://www.w3.org/2000/svg">
<path d="M12.8905 8.01431C13.4033 8.01431 13.826 8.40035 13.8838 8.89769L13.8905 9.01431V13.3817C13.8905 15.306 12.3305 16.866 10.4062 16.866C8.54604 16.866 7.02633 15.4083 6.92709 13.5728L6.92193 13.3817V9.01431C6.92193 8.50148 7.30797 8.0788 7.80531 8.02104L7.92193 8.01431H12.8905ZM12.8905 9.01431H7.92193V13.3817C7.92193 14.7537 9.03418 15.866 10.4062 15.866C11.7234 15.866 12.8011 14.8409 12.8852 13.545L12.8905 13.3817V9.01431ZM6.18984 8.01372C6.04785 8.25897 5.95646 8.53718 5.92994 8.83406L5.92193 9.01431H3.43262V12.7534C3.43262 13.7786 4.2637 14.6097 5.28889 14.6097C5.5601 14.6097 5.81773 14.5515 6.04998 14.447C6.12924 14.7756 6.24582 15.0907 6.39427 15.3871C6.05464 15.5307 5.68099 15.6097 5.28889 15.6097C3.76775 15.6097 2.52434 14.4206 2.43747 12.9212L2.43262 12.7534V9.01431C2.43262 8.50148 2.81866 8.0788 3.316 8.02104L3.43262 8.01431L6.18984 8.01372ZM14.6226 8.01372L17.4069 8.01431C17.9198 8.01431 18.3425 8.40035 18.4002 8.89769L18.4069 9.01431V12.7542C18.4069 14.3312 17.1285 15.6097 15.5515 15.6097C15.1505 15.6097 14.7689 15.5271 14.4227 15.3779C14.5709 15.0803 14.6867 14.7648 14.7661 14.4351C15.0045 14.5473 15.2707 14.6097 15.5515 14.6097C16.5274 14.6097 17.3274 13.8562 17.4014 12.8992L17.4069 12.7542V9.01431H14.8905L14.885 8.86505C14.8623 8.55654 14.7695 8.26749 14.6226 8.01372ZM10.4043 2.98926C11.6345 2.98926 12.6317 3.98648 12.6317 5.21662C12.6317 6.44676 11.6345 7.44398 10.4043 7.44398C9.17421 7.44398 8.17698 6.44676 8.17698 5.21662C8.17698 3.98648 9.17421 2.98926 10.4043 2.98926ZM15.3915 3.61739C16.4482 3.61739 17.3048 4.474 17.3048 5.53069C17.3048 6.58737 16.4482 7.44398 15.3915 7.44398C14.3348 7.44398 13.4782 6.58737 13.4782 5.53069C13.4782 4.474 14.3348 3.61739 15.3915 3.61739ZM5.43294 3.61739C6.48963 3.61739 7.34624 4.474 7.34624 5.53069C7.34624 6.58737 6.48963 7.44398 5.43294 7.44398C4.37626 7.44398 3.51965 6.58737 3.51965 5.53069C3.51965 4.474 4.37626 3.61739 5.43294 3.61739ZM10.4043 3.98926C9.72649 3.98926 9.17698 4.53877 9.17698 5.21662C9.17698 5.89447 9.72649 6.44398 10.4043 6.44398C11.0822 6.44398 11.6317 5.89447 11.6317 5.21662C11.6317 4.53877 11.0822 3.98926 10.4043 3.98926ZM15.3915 4.61739C14.8871 4.61739 14.4782 5.02629 14.4782 5.53069C14.4782 6.03509 14.8871 6.44398 15.3915 6.44398C15.8959 6.44398 16.3048 6.03509 16.3048 5.53069C16.3048 5.02629 15.8959 4.61739 15.3915 4.61739ZM5.43294 4.61739C4.92854 4.61739 4.51965 5.02629 4.51965 5.53069C4.51965 6.03509 4.92854 6.44398 5.43294 6.44398C5.93734 6.44398 6.34624 6.03509 6.34624 5.53069C6.34624 5.02629 5.93734 4.61739 5.43294 4.61739Z" fill="#212121"/>
</svg>
