<svg width="48" height="48" viewBox="0 0 48 48" fill="none" xmlns="http://www.w3.org/2000/svg">
<path d="M6 10C6 7.79086 7.79086 6 10 6H21C23.2091 6 25 7.79086 25 10V23C25 23.5523 24.5523 24 24 24H7C6.44771 24 6 23.5523 6 23V10Z" fill="url(#paint0_linear_74070_10793)"/>
<path d="M38 23C40.2091 23 42 24.7909 42 27V38C42 40.2091 40.2091 42 38 42H24C23.4477 42 23 41.5523 23 41L23 24C23 23.4477 23.4477 23 24 23L38 23Z" fill="url(#paint1_linear_74070_10793)"/>
<path d="M38 23C40.2091 23 42 24.7909 42 27V38C42 40.2091 40.2091 42 38 42H24C23.4477 42 23 41.5523 23 41L23 24C23 23.4477 23.4477 23 24 23L38 23Z" fill="url(#paint2_linear_74070_10793)" fill-opacity="0.6"/>
<path d="M25 41C25 41.5523 24.5523 42 24 42L10 42C7.79086 42 6 40.2091 6 38L6 24C6 23.4477 6.44772 23 7 23L24 23C24.5523 23 25 23.4477 25 24L25 41Z" fill="url(#paint3_linear_74070_10793)"/>
<path d="M25 41C25 41.5523 24.5523 42 24 42L10 42C7.79086 42 6 40.2091 6 38L6 24C6 23.4477 6.44772 23 7 23L24 23C24.5523 23 25 23.4477 25 24L25 41Z" fill="url(#paint4_linear_74070_10793)" fill-opacity="0.8"/>
<path d="M30.2543 5.2447C31.9198 3.59078 34.6108 3.60017 36.2647 5.26568L42.7271 11.7734C44.3811 13.4389 44.3717 16.1299 42.7061 17.7838L36.211 24.2337C34.5455 25.8877 31.8545 25.8783 30.2006 24.2128L23.7382 17.705C22.0842 16.0395 22.0936 13.3486 23.7592 11.6947L30.2543 5.2447Z" fill="url(#paint5_linear_74070_10793)"/>
<path d="M30.2543 5.2447C31.9198 3.59078 34.6108 3.60017 36.2647 5.26568L42.7271 11.7734C44.3811 13.4389 44.3717 16.1299 42.7061 17.7838L36.211 24.2337C34.5455 25.8877 31.8545 25.8783 30.2006 24.2128L23.7382 17.705C22.0842 16.0395 22.0936 13.3486 23.7592 11.6947L30.2543 5.2447Z" fill="url(#paint6_linear_74070_10793)"/>
<defs>
<linearGradient id="paint0_linear_74070_10793" x1="7" y1="5" x2="47" y2="59" gradientUnits="userSpaceOnUse">
<stop offset="0.0831445" stop-color="#FFC470"/>
<stop offset="0.279637" stop-color="#FF835C"/>
<stop offset="0.584326" stop-color="#F24A9D"/>
<stop offset="0.871234" stop-color="#B339F0"/>
<stop offset="1" stop-color="#C354FF"/>
</linearGradient>
<linearGradient id="paint1_linear_74070_10793" x1="2.94444" y1="6" x2="42.8843" y2="41.8382" gradientUnits="userSpaceOnUse">
<stop stop-color="#FFC470"/>
<stop offset="0.676809" stop-color="#CF40CA"/>
<stop offset="0.954587" stop-color="#B339F0"/>
</linearGradient>
<linearGradient id="paint2_linear_74070_10793" x1="54.4028" y1="32.5" x2="23" y2="32.5" gradientUnits="userSpaceOnUse">
<stop offset="0.415966" stop-color="#A931D8" stop-opacity="0"/>
<stop offset="1" stop-color="#82027A"/>
</linearGradient>
<linearGradient id="paint3_linear_74070_10793" x1="5" y1="7" x2="41.7849" y2="40.011" gradientUnits="userSpaceOnUse">
<stop stop-color="#FFC470"/>
<stop offset="0.251092" stop-color="#FF835C"/>
<stop offset="0.518843" stop-color="#F24A9D"/>
<stop offset="0.871234" stop-color="#B339F0"/>
<stop offset="1" stop-color="#C354FF"/>
</linearGradient>
<linearGradient id="paint4_linear_74070_10793" x1="15.5" y1="45.0347" x2="15.5" y2="20.3611" gradientUnits="userSpaceOnUse">
<stop stop-color="#FEA567" stop-opacity="0"/>
<stop offset="0.920994" stop-color="#CA2134"/>
</linearGradient>
<linearGradient id="paint5_linear_74070_10793" x1="23.5577" y1="5.41566" x2="45.6631" y2="26.9258" gradientUnits="userSpaceOnUse">
<stop offset="0.194813" stop-color="#8B52F4"/>
<stop offset="0.691098" stop-color="#6D37CD"/>
</linearGradient>
<linearGradient id="paint6_linear_74070_10793" x1="34.3272" y1="8.76412" x2="11.5337" y2="8.76412" gradientUnits="userSpaceOnUse">
<stop stop-color="#F24A9D" stop-opacity="0"/>
<stop offset="1" stop-color="#F24A9D"/>
</linearGradient>
</defs>
</svg>
