<svg width="20" height="20" viewBox="0 0 20 20" fill="none" xmlns="http://www.w3.org/2000/svg">
<path d="M2.85355 2.14645C2.65829 1.95118 2.34171 1.95118 2.14645 2.14645C1.95118 2.34171 1.95118 2.65829 2.14645 2.85355L7.30255 8.00966C7.05818 8.02592 6.82062 8.06703 6.59236 8.13049C6.14578 7.44921 5.37544 6.99923 4.5 6.99923C3.11929 6.99923 2 8.11852 2 9.49923C2 10.7087 2.85888 11.7176 4 11.9492V12.8834C4 14.0566 4.94834 15.0104 6.12162 15.0104H10.5058L10.5088 15.0104L10.5118 15.0104H12.6347C13.105 15.0104 13.5393 14.8571 13.8906 14.5977L17.1464 17.8536C17.3417 18.0488 17.6583 18.0488 17.8536 17.8536C18.0488 17.6583 18.0488 17.3417 17.8536 17.1464L2.85355 2.14645ZM13.1679 13.875C13.0092 13.9614 12.8275 14.0104 12.6347 14.0104H11.0088V13.9099C11.0088 12.7829 9.98948 11.9992 8.88718 11.9992H7.5C7.22386 11.9992 7 12.2231 7 12.4992C7 12.7754 7.22386 12.9992 7.5 12.9992H8.88718C9.57607 12.9992 10.0088 13.4645 10.0088 13.9099V14.0104H6.12162C5.50371 14.0104 5 13.5074 5 12.8834V11.5523C5 10.1421 6.13898 9.00177 7.54054 9.00177H8.29466L13.1679 13.875ZM5.65741 8.54502C4.82784 9.06857 4.23043 9.92771 4.0539 10.9318C3.44332 10.7418 3 10.1723 3 9.49923C3 8.6708 3.67157 7.99923 4.5 7.99923C4.96596 7.99923 5.38229 8.21169 5.65741 8.54502ZM16.374 12.0254C15.9337 12.4672 15.3491 12.6759 14.7718 12.6507L15.6691 13.548C16.1867 13.4107 16.6764 13.1386 17.0823 12.7314C18.3059 11.5038 18.3059 9.51414 17.0823 8.28656L12.8628 4.07383C12.2707 3.48043 11.3106 3.4806 10.7188 4.07434C10.1278 4.66736 10.1278 5.62815 10.7188 6.22117L12.0613 7.55155C11.9381 7.71453 11.8367 7.88486 11.7542 8.04264C11.5784 8.01571 11.3986 8.00177 11.2157 8.00177H10.1229L11.1229 9.00177H11.2157C11.4543 9.00177 11.6845 9.03465 11.9023 9.09585L12.3249 9.21459L12.4973 8.8109C12.6085 8.55071 12.7618 8.24364 12.9691 8.02323L13.4716 7.5413L11.4271 5.51521L11.4262 5.51432C11.225 5.31149 11.2253 4.98275 11.4271 4.78029C11.6283 4.57844 11.9538 4.57844 12.155 4.78029L12.1559 4.78116L16.3745 8.99297C17.2086 9.83033 17.2085 11.1882 16.374 12.0254Z" fill="#212121"/>
</svg>
