<svg width="24" height="24" viewBox="0 0 24 24" fill="none" xmlns="http://www.w3.org/2000/svg">
<path d="M10 12.46C10 12.168 10.1276 11.8907 10.3492 11.7007L13.1746 9.27894C13.3618 9.11845 13.6382 9.11845 13.8254 9.27894L16.6508 11.7007C16.8724 11.8907 17 12.168 17 12.46V15.5C17 15.7762 16.7761 16 16.5 16H14.75C14.6119 16 14.5 15.8881 14.5 15.75V14.5C14.5 14.2239 14.2761 14 14 14H13C12.7239 14 12.5 14.2239 12.5 14.5V15.75C12.5 15.8881 12.3881 16 12.25 16H10.5C10.2239 16 10 15.7762 10 15.5V12.46ZM7 21.034V18.2503C7.62675 18.721 8.4058 19 9.25 19H17.75C19.8211 19 21.5 17.3211 21.5 15.25V7.32291C21.8112 6.97035 22 6.50722 22 6C22 4.89543 21.1046 4 20 4H6.73221C6.38651 3.40223 5.74072 3 5 3C3.89543 3 3 3.89543 3 5V21.034C3 21.5675 3.43251 22 3.96605 22H6.03395C6.56749 22 7 21.5675 7 21.034ZM5 4.5C5.24102 4.5 5.44372 4.67129 5.48999 4.8992L5.61194 5.5H20C20.2761 5.5 20.5 5.72386 20.5 6C20.5 6.27614 20.2761 6.5 20 6.5H5.5V20.5H4.5V5C4.5 4.72386 4.72386 4.5 5 4.5ZM9.25 17.5C8.00736 17.5 7 16.4926 7 15.25V8H20V15.25C20 16.4926 18.9926 17.5 17.75 17.5H9.25Z" fill="#212121"/>
</svg>
