<svg width="24" height="24" viewBox="0 0 24 24" fill="none" xmlns="http://www.w3.org/2000/svg">
<path d="M17.7446 1.99581C18.9355 1.99581 19.9103 2.92097 19.9894 4.09176L19.9946 4.24581V19.7439C19.9946 20.9347 19.0695 21.9095 17.8987 21.9887L17.7446 21.9939H6.24475C5.05389 21.9939 4.07911 21.0687 3.99994 19.8979L3.99475 19.7439V4.24581C3.99475 3.05495 4.91991 2.08017 6.0907 2.001L6.24475 1.99581H17.7446ZM17.7446 3.49581H6.24475C5.86506 3.49581 5.55126 3.77797 5.5016 4.14404L5.49475 4.24581V19.7439C5.49475 20.1236 5.77691 20.4374 6.14298 20.487L6.24475 20.4939H17.7446C18.1243 20.4939 18.4381 20.2117 18.4878 19.8456L18.4946 19.7439V4.24581C18.4946 3.86612 18.2125 3.55232 17.8464 3.50266L17.7446 3.49581Z" fill="#212121"/>
<path d="M13.0188 19.0188C12.6097 18.954 12.3306 18.5699 12.3954 18.1607L12.5 17.4999H11.0187L10.8769 18.3953C10.8121 18.8044 10.428 19.0836 10.0188 19.0188C9.60973 18.954 9.33059 18.5699 9.39536 18.1607L9.5 17.4999H8.75C8.33578 17.4999 8 17.1641 8 16.7499C8 16.3357 8.33578 15.9999 8.75 15.9999H9.7375L9.975 14.4999H9.25C8.83578 14.4999 8.5 14.1641 8.5 13.7499C8.5 13.3357 8.83578 12.9999 9.25 12.9999H10.2125L10.4119 11.7407C10.4767 11.3316 10.8608 11.0525 11.2699 11.1172C11.6791 11.182 11.9582 11.5662 11.8934 11.9753L11.7312 12.9999H13.2125L13.4119 11.7407C13.4767 11.3316 13.8608 11.0525 14.2699 11.1172C14.6791 11.182 14.9582 11.5662 14.8934 11.9753L14.7312 12.9999H15.25C15.6642 12.9999 16 13.3357 16 13.7499C16 14.1641 15.6642 14.4999 15.25 14.4999H14.4937L14.2562 15.9999H14.75C15.1642 15.9999 15.5 16.3357 15.5 16.7499C15.5 17.1641 15.1642 17.4999 14.75 17.4999H14.0187L13.8769 18.3953C13.8121 18.8044 13.428 19.0836 13.0188 19.0188ZM11.4937 14.4999L11.2562 15.9999H12.7375L12.975 14.4999H11.4937Z" fill="#212121"/>
</svg>
