<svg width="20" height="20" viewBox="0 0 20 20" fill="none" xmlns="http://www.w3.org/2000/svg">
<path d="M4.5 6.75C4.5 5.50736 5.50736 4.5 6.75 4.5C7.99264 4.5 9 5.50736 9 6.75C9 7.99264 7.99264 9 6.75 9C5.50736 9 4.5 7.99264 4.5 6.75ZM6.75 3.5C4.95507 3.5 3.5 4.95507 3.5 6.75C3.5 8.54493 4.95507 10 6.75 10C8.54493 10 10 8.54493 10 6.75C10 4.95507 8.54493 3.5 6.75 3.5ZM1.5 13C1.5 11.8954 2.39543 11 3.5 11H10C10.0167 11 10.0333 11.0002 10.0499 11.0006C9.75722 11.2875 9.51474 11.6255 9.33682 12H3.5C2.94772 12 2.5 12.4477 2.5 13V13.0602L2.50002 13.0612L2.50063 13.0781C2.50141 13.0951 2.50313 13.1233 2.50686 13.1611C2.51433 13.2368 2.52976 13.3497 2.56146 13.4874C2.62512 13.7638 2.75235 14.1312 3.00512 14.497C3.4916 15.2012 4.51315 16 6.75 16C8.04295 16 8.92986 15.7331 9.54209 15.3719C9.72408 15.6588 9.94668 15.9175 10.2018 16.1398C9.4147 16.6482 8.30409 17 6.75 17C4.23685 17 2.8834 16.0801 2.18238 15.0655C1.8414 14.5719 1.67175 14.08 1.58697 13.7118C1.54446 13.5272 1.52278 13.3716 1.5117 13.2593C1.50614 13.2031 1.50322 13.1574 1.50169 13.1241C1.50092 13.1074 1.5005 13.0938 1.50027 13.0835L1.50005 13.0705L1.50001 13.0658L1.5 13.064L1.5 13.0625V13ZM12 7.5C12 8.88071 13.1193 10 14.5 10C15.8807 10 17 8.88071 17 7.5C17 6.11929 15.8807 5 14.5 5C13.1193 5 12 6.11929 12 7.5ZM13 7.5C13 6.67157 13.6716 6 14.5 6C15.3284 6 16 6.67157 16 7.5C16 8.32843 15.3284 9 14.5 9C13.6716 9 13 8.32843 13 7.5ZM12.5 11C11.1193 11 10 12.1193 10 13.5C10 14.8807 11.1193 16 12.5 16H13C13.2761 16 13.5 15.7761 13.5 15.5C13.5 15.2239 13.2761 15 13 15H12.5C11.6716 15 11 14.3284 11 13.5C11 12.6716 11.6716 12 12.5 12H13C13.2761 12 13.5 11.7761 13.5 11.5C13.5 11.2239 13.2761 11 13 11H12.5ZM16 11C15.7239 11 15.5 11.2239 15.5 11.5C15.5 11.7761 15.7239 12 16 12H16.5C17.3284 12 18 12.6716 18 13.5C18 14.3284 17.3284 15 16.5 15H16C15.7239 15 15.5 15.2239 15.5 15.5C15.5 15.7761 15.7239 16 16 16H16.5C17.8807 16 19 14.8807 19 13.5C19 12.1193 17.8807 11 16.5 11H16ZM12 13.5C12 13.2239 12.2239 13 12.5 13H16.5C16.7761 13 17 13.2239 17 13.5C17 13.7761 16.7761 14 16.5 14H12.5C12.2239 14 12 13.7761 12 13.5Z" fill="#212121"/>
</svg>
