<svg width="32" height="32" viewBox="0 0 32 32" fill="none" xmlns="http://www.w3.org/2000/svg">
<path d="M10.5 16C13.5376 16 16 13.5376 16 10.5C16 7.46243 13.5376 5 10.5 5C7.46243 5 5 7.46243 5 10.5C5 13.5376 7.46243 16 10.5 16ZM23 16C25.2091 16 27 14.2091 27 12C27 9.79086 25.2091 8 23 8C20.7909 8 19 9.79086 19 12C19 14.2091 20.7909 16 23 16ZM5 18C3.34315 18 2 19.3431 2 21V21.15C2 21.15 2 27 10.5 27C12.5268 27 14.0703 26.6674 15.2458 26.1608C14.4646 25.1478 14 23.8781 14 22.5C14 20.708 14.7856 19.0996 16.0311 18.0002L16 18H5ZM21.5 19C21.5 18.4477 21.0523 18 20.5 18H20C17.5147 18 15.5 20.0147 15.5 22.5C15.5 24.9853 17.5147 27 20 27H20.5C21.0523 27 21.5 26.5523 21.5 26C21.5 25.4477 21.0523 25 20.5 25H20C18.6193 25 17.5 23.8807 17.5 22.5C17.5 21.1193 18.6193 20 20 20H20.5C21.0523 20 21.5 19.5523 21.5 19ZM25.5 18C24.9477 18 24.5 18.4477 24.5 19C24.5 19.5523 24.9477 20 25.5 20H26C27.3807 20 28.5 21.1193 28.5 22.5C28.5 23.8807 27.3807 25 26 25H25.5C24.9477 25 24.5 25.4477 24.5 26C24.5 26.5523 24.9477 27 25.5 27H26C28.4853 27 30.5 24.9853 30.5 22.5C30.5 20.0147 28.4853 18 26 18H25.5ZM20.5 21.5C19.9477 21.5 19.5 21.9477 19.5 22.5C19.5 23.0523 19.9477 23.5 20.5 23.5H25.5C26.0523 23.5 26.5 23.0523 26.5 22.5C26.5 21.9477 26.0523 21.5 25.5 21.5H20.5Z" fill="#212121"/>
</svg>
