<svg width="16" height="16" viewBox="0 0 16 16" fill="none" xmlns="http://www.w3.org/2000/svg">
<path d="M11.0001 6.868L13.0081 6.057C13.8231 5.728 14.2131 4.8 13.8781 3.987C13.5441 3.177 12.6151 2.786 11.8021 3.115L10.1911 3.766C10.2301 3.6 10.2511 3.427 10.2511 3.25C10.2511 2.007 9.24413 1 8.00113 1C6.75813 1 5.75113 2.007 5.75113 3.25C5.75113 3.428 5.77213 3.601 5.81113 3.766L4.20013 3.115C3.38713 2.787 2.45813 3.177 2.12413 3.987C1.78913 4.8 2.17813 5.728 2.99413 6.057L5.00213 6.868V9.252L3.18913 12.662C2.77613 13.438 3.07113 14.402 3.84713 14.814C4.62313 15.227 5.58713 14.932 5.99913 14.156L6.01513 14.126C6.01213 14.083 6.00213 14.043 6.00213 13.999C6.00213 13.265 6.40413 12.629 6.99613 12.281L8.00213 10.388L9.01613 12.295C9.19613 12.404 9.36413 12.532 9.50213 12.69C9.67113 12.496 9.87913 12.339 10.1091 12.22L8.88513 9.918C8.50913 9.211 7.49513 9.211 7.11913 9.918L5.11613 13.686C4.96313 13.975 4.60513 14.084 4.31613 13.931C4.02813 13.778 3.91813 13.42 4.07113 13.131L5.88413 9.72C5.96113 9.575 6.00113 9.414 6.00113 9.251V6.867C6.00113 6.459 5.75413 6.093 5.37613 5.94L3.36813 5.129C3.06713 5.007 2.92413 4.667 3.04813 4.367C3.17313 4.064 3.52113 3.918 3.82513 4.041L7.25213 5.426C7.73313 5.62 8.27013 5.62 8.75013 5.426L12.1771 4.041C12.4801 3.918 12.8291 4.065 12.9541 4.367C13.0781 4.667 12.9351 5.007 12.6341 5.129L10.6261 5.94C10.2481 6.093 10.0011 6.46 10.0011 6.867V9.25C10.0011 9.414 10.0411 9.575 10.1181 9.719L11.3511 12.038C11.8061 12.121 12.2081 12.354 12.5011 12.69C12.5671 12.614 12.6451 12.549 12.7211 12.484L11.0011 9.249V6.866L11.0001 6.868ZM8.00013 4.499C7.31013 4.499 6.75013 3.939 6.75013 3.249C6.75013 2.559 7.31013 1.999 8.00013 1.999C8.69013 1.999 9.25013 2.559 9.25013 3.249C9.25013 3.939 8.69013 4.499 8.00013 4.499ZM9.00013 14C9.00013 14.552 8.55213 15 8.00013 15C7.44813 15 7.00013 14.552 7.00013 14C7.00013 13.448 7.44813 13 8.00013 13C8.55213 13 9.00013 13.448 9.00013 14ZM15.0001 14C15.0001 14.552 14.5521 15 14.0001 15C13.4481 15 13.0001 14.552 13.0001 14C13.0001 13.448 13.4481 13 14.0001 13C14.5521 13 15.0001 13.448 15.0001 14ZM12.0001 14C12.0001 14.552 11.5521 15 11.0001 15C10.4481 15 10.0001 14.552 10.0001 14C10.0001 13.448 10.4481 13 11.0001 13C11.5521 13 12.0001 13.448 12.0001 14Z" fill="#212121"/>
</svg>
