<svg width="48" height="48" viewBox="0 0 48 48" fill="none" xmlns="http://www.w3.org/2000/svg">
<path d="M32.5 26C31.1193 26 30 24.8807 30 23.5C30 22.1193 31.1193 21 32.5 21C33.8807 21 35 22.1193 35 23.5C35 24.8807 33.8807 26 32.5 26ZM21.5 23.5C21.5 24.8807 22.6193 26 24 26C25.3807 26 26.5 24.8807 26.5 23.5C26.5 22.1193 25.3807 21 24 21C22.6193 21 21.5 22.1193 21.5 23.5ZM15.5 26C14.1193 26 13 24.8807 13 23.5C13 22.1193 14.1193 21 15.5 21C16.8807 21 18 22.1193 18 23.5C18 24.8807 16.8807 26 15.5 26ZM30 31.5C30 32.8807 31.1193 34 32.5 34C33.8807 34 35 32.8807 35 31.5C35 30.1193 33.8807 29 32.5 29C31.1193 29 30 30.1193 30 31.5ZM24 34C22.6193 34 21.5 32.8807 21.5 31.5C21.5 30.1193 22.6193 29 24 29C25.3807 29 26.5 30.1193 26.5 31.5C26.5 32.8807 25.3807 34 24 34ZM42 12.25C42 8.79822 39.2018 6 35.75 6H12.25C8.79822 6 6 8.79822 6 12.25V35.75C6 39.2018 8.79822 42 12.25 42H35.75C39.2018 42 42 39.2018 42 35.75V12.25ZM35.75 8.5C37.8211 8.5 39.5 10.1789 39.5 12.25V14H8.5V12.25C8.5 10.1789 10.1789 8.5 12.25 8.5H35.75ZM39.5 35.75C39.5 37.8211 37.8211 39.5 35.75 39.5H12.25C10.1789 39.5 8.5 37.8211 8.5 35.75V16.5H39.5V35.75Z" fill="#212121"/>
</svg>
