<svg width="20" height="20" viewBox="0 0 20 20" fill="none" xmlns="http://www.w3.org/2000/svg">
<path d="M6.1046 3.23616C6.47726 2.92128 7.02274 2.92128 7.3954 3.23616L9.9681 5.40994C9.97888 5.41904 9.98952 5.42829 10 5.43767C10.0105 5.42829 10.0211 5.41904 10.0319 5.40994L12.6046 3.23616C12.9773 2.92128 13.5227 2.92128 13.8954 3.23616L16.4681 5.40994C16.8054 5.69494 17 6.1141 17 6.5557V15.5046C17 16.333 16.3284 17.0046 15.5 17.0046H4.5C3.67157 17.0046 3 16.333 3 15.5046V6.5557C3 6.1141 3.19459 5.69494 3.5319 5.40994L6.1046 3.23616ZM10.5 12.9997H12.5C12.7761 12.9997 13 13.2236 13 13.4997V16.0046H15.5C15.7761 16.0046 16 15.7807 16 15.5046V6.5557C16 6.4085 15.9351 6.26878 15.8227 6.17378L13.25 4L10.6773 6.17378C10.5649 6.26878 10.5 6.4085 10.5 6.5557L10.5 12.9997ZM9.5 12.9997V6.5557C9.5 6.4085 9.43514 6.26878 9.3227 6.17378L6.75 4L4.1773 6.17378C4.06486 6.26878 4 6.4085 4 6.5557V15.5046C4 15.7807 4.22386 16.0046 4.5 16.0046H7V13.4997C7 13.2236 7.22386 12.9997 7.5 12.9997H9.5ZM8 16.0046H9.5V13.9997H8V16.0046ZM10.5 13.9997V16.0046H12V13.9997H10.5ZM6.75 8.49971C7.16421 8.49971 7.5 8.16393 7.5 7.74971C7.5 7.3355 7.16421 6.99971 6.75 6.99971C6.33579 6.99971 6 7.3355 6 7.74971C6 8.16393 6.33579 8.49971 6.75 8.49971ZM7.5 10.7497C7.5 11.1639 7.16421 11.4997 6.75 11.4997C6.33579 11.4997 6 11.1639 6 10.7497C6 10.3355 6.33579 9.99971 6.75 9.99971C7.16421 9.99971 7.5 10.3355 7.5 10.7497ZM13.25 8.49971C13.6642 8.49971 14 8.16393 14 7.74971C14 7.3355 13.6642 6.99971 13.25 6.99971C12.8358 6.99971 12.5 7.3355 12.5 7.74971C12.5 8.16393 12.8358 8.49971 13.25 8.49971ZM14 10.7497C14 11.1639 13.6642 11.4997 13.25 11.4997C12.8358 11.4997 12.5 11.1639 12.5 10.7497C12.5 10.3355 12.8358 9.99971 13.25 9.99971C13.6642 9.99971 14 10.3355 14 10.7497Z" fill="#212121"/>
</svg>
