<svg width="24" height="24" viewBox="0 0 24 24" fill="none" xmlns="http://www.w3.org/2000/svg">
<path d="M8.03871 4.57757L10.9911 7.1357C11.1555 7.27815 11.25 7.48498 11.25 7.70252V15.5H8.75C8.33579 15.5 8 15.8358 8 16.25V19.5H4.75C4.61193 19.5 4.5 19.3881 4.5 19.25V7.70253C4.5 7.48498 4.59446 7.27815 4.75887 7.1357L7.71129 4.57757C7.80525 4.49616 7.94475 4.49616 8.03871 4.57757ZM11.25 17V19.5H9.5V17H11.25ZM12.75 17H14.5V19.5H12.75V17ZM16 19.5V16.25C16 15.8358 15.6642 15.5 15.25 15.5H12.75V7.70252C12.75 7.48498 12.8445 7.27815 13.0089 7.1357L15.9613 4.57757C16.0552 4.49616 16.1948 4.49616 16.2887 4.57757L19.2411 7.1357C19.4055 7.27815 19.5 7.48498 19.5 7.70253V19.25C19.5 19.3881 19.3881 19.5 19.25 19.5H16ZM4.75 21H19.25C20.2165 21 21 20.2165 21 19.25V7.70253C21 7.04989 20.7166 6.42941 20.2234 6.00204L17.271 3.44391C16.6133 2.87404 15.6367 2.87404 14.979 3.44391L12.0266 6.00204L12 6.02547L11.9734 6.00204L9.02097 3.44391C8.36326 2.87404 7.38674 2.87404 6.72903 3.44391L3.77661 6.00204C3.28337 6.42941 3 7.04989 3 7.70253V19.25C3 20.2165 3.7835 21 4.75 21ZM8.87891 9C8.87891 9.55228 8.43119 10 7.87891 10C7.32662 10 6.87891 9.55228 6.87891 9C6.87891 8.44771 7.32662 8 7.87891 8C8.43119 8 8.87891 8.44771 8.87891 9ZM7.87891 13.9966C8.43119 13.9966 8.87891 13.5489 8.87891 12.9966C8.87891 12.4443 8.43119 11.9966 7.87891 11.9966C7.32662 11.9966 6.87891 12.4443 6.87891 12.9966C6.87891 13.5489 7.32662 13.9966 7.87891 13.9966ZM16.1211 10C15.5688 10 15.1211 9.55228 15.1211 9C15.1211 8.44771 15.5688 8 16.1211 8C16.6734 8 17.1211 8.44771 17.1211 9C17.1211 9.55228 16.6734 10 16.1211 10ZM15.1211 12.9966C15.1211 13.5489 15.5688 13.9966 16.1211 13.9966C16.6734 13.9966 17.1211 13.5489 17.1211 12.9966C17.1211 12.4443 16.6734 11.9966 16.1211 11.9966C15.5688 11.9966 15.1211 12.4443 15.1211 12.9966Z" fill="#212121"/>
</svg>
