<svg width="24" height="24" viewBox="0 0 24 24" fill="none" xmlns="http://www.w3.org/2000/svg">
<path d="M12.431 5.36592C12.633 4.85188 12.38 4.27146 11.8659 4.06952C11.3519 3.86757 10.7715 4.12058 10.5695 4.63462L5.06952 18.6346C4.86757 19.1487 5.12058 19.7291 5.63462 19.931C6.14866 20.133 6.72908 19.88 6.93102 19.3659L9.43695 12.9872L15.2462 19.6571C15.6089 20.0735 16.2406 20.1171 16.6571 19.7544C17.0735 19.3916 17.1171 18.76 16.7544 18.3435L10.7652 11.467L19.5399 5.84215C20.0049 5.54411 20.1402 4.92557 19.8422 4.46061C19.5441 3.99565 18.9256 3.86035 18.4606 4.1584L11.0355 8.91806L12.431 5.36592Z" fill="#212121"/>
</svg>
