<svg width="20" height="20" viewBox="0 0 20 20" fill="none" xmlns="http://www.w3.org/2000/svg">
<path d="M6.53544 2.1168C5.49406 1.85299 4.40494 1.96522 3.55101 2.443C2.68184 2.9293 2.07166 3.79051 2.04156 4.94442C1.99456 6.74577 2.41207 9.1633 4.06815 12.0023C5.70298 14.8048 7.50831 16.4846 9.0056 17.4834C9.95159 18.1144 10.9973 18.1311 11.8903 17.7196C12.7694 17.3145 13.4838 16.506 13.8548 15.503C14.0415 14.9981 13.9975 14.4368 13.7345 13.9672L12.781 12.2645C12.1747 11.1817 10.8657 10.7076 9.70661 11.151L9.04092 11.4056C8.71835 11.529 8.42164 11.4721 8.25304 11.3065C7.68784 10.7514 7.28407 9.9976 7.10089 9.18557C7.04329 8.93022 7.1603 8.62828 7.44299 8.41494L8.04412 7.9613C9.04934 7.20269 9.33337 5.81481 8.70699 4.72229L7.73513 3.02722C7.47512 2.57372 7.04218 2.24518 6.53544 2.1168ZM3.04122 4.97051C3.06139 4.19743 3.45254 3.64397 4.03928 3.31569C4.64126 2.97888 5.46263 2.87662 6.28987 3.08618C6.5339 3.148 6.74239 3.30622 6.8676 3.52461L7.83946 5.21969C8.21529 5.8752 8.04487 6.70792 7.44174 7.16309L6.84061 7.61673C6.32141 8.00856 5.96194 8.68096 6.1254 9.40562C6.34709 10.3884 6.83828 11.3187 7.55233 12.02C8.0737 12.5321 8.8175 12.5617 9.39819 12.3396L10.0639 12.085C10.7594 11.8189 11.5447 12.1034 11.9085 12.7531L12.862 14.4558C12.982 14.6699 13.002 14.9259 12.9169 15.1561C12.6267 15.9407 12.0825 16.53 11.4718 16.8114C10.8752 17.0863 10.2001 17.0781 9.56054 16.6515C8.18976 15.7371 6.49007 14.1695 4.93193 11.4984C3.36852 8.81828 2.99912 6.58401 3.04122 4.97051Z" fill="#212121"/>
<path d="M12.7428 2.06321C12.5014 1.92911 12.197 2.01608 12.0629 2.25747C11.9288 2.49886 12.0158 2.80326 12.2572 2.93737L12.6411 3.15069C15.0761 4.50347 16.6938 6.96351 16.971 9.73524L17.0025 10.05C17.0299 10.3248 17.275 10.5253 17.5497 10.4978C17.8245 10.4703 18.025 10.2253 17.9975 9.95054L17.966 9.63574C17.6562 6.53792 15.8483 3.78847 13.1268 2.27653L12.7428 2.06321Z" fill="#212121"/>
<path d="M11.5713 4.74306C11.7134 4.50627 12.0205 4.42949 12.2573 4.57156L12.3814 4.64603C14.0144 5.62586 15.1356 7.2726 15.4487 9.15114L15.4932 9.41811C15.5386 9.69049 15.3546 9.94811 15.0822 9.9935C14.8098 10.0389 14.5522 9.85489 14.5068 9.58251L14.4623 9.31554C14.1974 7.726 13.2487 6.33261 11.8669 5.50352L11.7428 5.42905C11.506 5.28698 11.4292 4.97985 11.5713 4.74306Z" fill="#212121"/>
</svg>
