<svg width="24" height="24" viewBox="0 0 24 24" fill="none" xmlns="http://www.w3.org/2000/svg">
<path d="M11 17.5C11 16.2113 11.375 15.0102 12.0219 13.9999H4.25242C3.0104 13.9999 2.00354 15.0068 2.00354 16.2488V17.1688C2.00354 17.7409 2.18195 18.2987 2.51391 18.7646C4.05607 20.9289 6.57903 22.0011 10 22.0011C10.9311 22.0011 11.7959 21.9217 12.5925 21.7624C11.6005 20.6213 11 19.1308 11 17.5Z" fill="#212121"/>
<path d="M10 2.00464C12.7614 2.00464 15 4.24321 15 7.00464C15 9.76606 12.7614 12.0046 10 12.0046C7.23857 12.0046 5 9.76606 5 7.00464C5 4.24321 7.23857 2.00464 10 2.00464Z" fill="#212121"/>
<path d="M23 17.5C23 20.5376 20.5376 23 17.5 23C14.4624 23 12 20.5376 12 17.5C12 14.4624 14.4624 12 17.5 12C20.5376 12 23 14.4624 23 17.5ZM18.3536 14.6465C18.1583 14.4512 17.8417 14.4512 17.6464 14.6465C17.4512 14.8418 17.4512 15.1583 17.6464 15.3536L19.2928 17H15C14.7239 17 14.5 17.2239 14.5 17.5C14.5 17.7761 14.7239 18 15 18H19.2929L17.6464 19.6465C17.4512 19.8418 17.4512 20.1583 17.6464 20.3536C17.8417 20.5489 18.1583 20.5489 18.3536 20.3536L20.8536 17.8536C20.9067 17.8004 20.9454 17.7383 20.9696 17.672C20.9883 17.6211 20.9989 17.5664 20.9999 17.5093L21 17.5C21 17.4228 20.9825 17.3498 20.9513 17.2845C20.936 17.2525 20.9171 17.2217 20.8946 17.1928C20.8807 17.175 20.8656 17.1582 20.8494 17.1424L18.3536 14.6465Z" fill="#212121"/>
</svg>
