<svg width="32" height="32" viewBox="0 0 32 32" fill="none" xmlns="http://www.w3.org/2000/svg">
<path d="M5 5C5 3.34315 6.34315 2 8 2H18.1716C18.9672 2 19.7303 2.31607 20.2929 2.87868L26.1213 8.70711C26.6839 9.26972 27 10.0328 27 10.8284V27C27 28.6569 25.6569 30 24 30H16.4649C16.8052 29.4117 17 28.7286 17 28H24C24.5523 28 25 27.5523 25 27V12H20C18.3431 12 17 10.6569 17 9V4H8C7.44772 4 7 4.44772 7 5V14.416C6.20375 14.7639 5.51562 15.3132 5 15.9995V5ZM20 10H24.5858L19 4.41421V9C19 9.55228 19.4477 10 20 10ZM19 21C19 20.4477 18.5523 20 18 20C17.4477 20 17 20.4477 17 21V25C17 25.5523 17.4477 26 18 26C18.5523 26 19 25.5523 19 25V21ZM22 16C22.5523 16 23 16.4477 23 17V25C23 25.5523 22.5523 26 22 26C21.4477 26 21 25.5523 21 25V17C21 16.4477 21.4477 16 22 16ZM5.5 19.5V19C5.5 17.067 7.067 15.5 9 15.5C10.933 15.5 12.5 17.067 12.5 19V19.5H13C14.3807 19.5 15.5 20.6193 15.5 22V28C15.5 29.3807 14.3807 30.5 13 30.5H5C3.61929 30.5 2.5 29.3807 2.5 28V22C2.5 20.6193 3.61929 19.5 5 19.5H5.5ZM7.5 19V19.5H10.5V19C10.5 18.1716 9.82843 17.5 9 17.5C8.17157 17.5 7.5 18.1716 7.5 19ZM11 25C11 23.8954 10.1046 23 9 23C7.89543 23 7 23.8954 7 25C7 26.1046 7.89543 27 9 27C10.1046 27 11 26.1046 11 25Z" fill="#212121"/>
</svg>
