<svg width="20" height="20" viewBox="0 0 20 20" fill="none" xmlns="http://www.w3.org/2000/svg">
<path d="M14.5 9C15.4002 9 16.2499 9.21628 17 9.59971V8H13V9.20703C13.4768 9.07217 13.98 9 14.5 9ZM9 14.5C9 13.98 9.07217 13.4768 9.20703 13H8V17H9.59971C9.21628 16.2499 9 15.4002 9 14.5ZM9.59971 12C10.1266 10.9692 10.9692 10.1266 12 9.59971V8H8V12H9.59971ZM7 12V8H3V12H7ZM3 13H7V17H5.5C4.11929 17 3 15.8807 3 14.5V13ZM13 7H17V5.5C17 4.11929 15.8807 3 14.5 3H13V7ZM12 3V7H8V3H12ZM7 3V7H3V5.5C3 4.11929 4.11929 3 5.5 3H7ZM19 14.5C19 16.9853 16.9853 19 14.5 19C12.0147 19 10 16.9853 10 14.5C10 12.0147 12.0147 10 14.5 10C16.9853 10 19 12.0147 19 14.5ZM13.88 11.5C13.6678 11.5 13.4788 11.6339 13.4083 11.834L12.5284 14.334C12.4745 14.487 12.4982 14.6566 12.592 14.789C12.6857 14.9213 12.8378 15 13 15H13.7758L13.2675 16.8688C13.2028 17.1069 13.3214 17.3566 13.5468 17.4569C13.7723 17.5571 14.0372 17.4779 14.1706 17.2704L16.4206 13.7704C16.5195 13.6165 16.5265 13.4209 16.4389 13.2604C16.3512 13.0999 16.1829 13 16 13H15.2537L15.5343 12.1581C15.5852 12.0056 15.5596 11.838 15.4656 11.7076C15.3716 11.5773 15.2207 11.5 15.06 11.5H13.88Z" fill="#212121"/>
</svg>
