<svg width="20" height="20" viewBox="0 0 20 20" fill="none" xmlns="http://www.w3.org/2000/svg">
<path d="M9.08887 3C9.03078 3.15622 9 3.32268 9 3.49609C9 3.79647 9.08973 4.07705 9.25977 4.31738C9.42991 4.55776 9.67046 4.74846 9.9707 4.84863L11.0322 5.19922C11.1821 5.24929 11.3221 5.32929 11.502 5.48926C11.6121 5.59944 11.7029 5.72959 11.793 5.95996L12.1367 7H11C10.7239 7 10.5 7.22386 10.5 7.5C10.5 7.77614 10.7239 8 11 8H13.1055C13.039 8.15816 13.004 8.33059 13.0039 8.50391C13.0039 8.77435 13.084 9.0355 13.2441 9.25586C13.4043 9.47604 13.6244 9.63622 13.8945 9.73633L14.6553 9.98633C14.7353 10.0163 14.815 10.0669 14.875 10.127C14.9451 10.1871 14.9856 10.2675 15.0156 10.3477L15.2754 11.1484C15.3754 11.3988 15.5358 11.6093 15.7559 11.7695C15.9747 11.9189 16.2335 11.9981 16.502 11.999C16.6749 11.9986 16.8433 11.9775 17 11.9199V14C17 15.6569 15.6569 17 14 17H6C4.34315 17 3 15.6569 3 14V6C3 4.34315 4.34315 3 6 3H9.08887ZM9.35352 11.3965C9.15826 11.2012 8.84175 11.2012 8.64648 11.3965L7.23438 12.8086L6.83691 12.4453C6.63304 12.2595 6.31699 12.2739 6.13086 12.4775C5.94463 12.6814 5.95919 12.9983 6.16309 13.1846L6.91309 13.8691C7.11048 14.0493 7.41452 14.0425 7.60352 13.8535L9.35352 12.1035C9.54878 11.9083 9.54877 11.5917 9.35352 11.3965ZM11 12C10.7239 12 10.5 12.2239 10.5 12.5C10.5 12.7761 10.7239 13 11 13H13.5C13.7761 13 14 12.7761 14 12.5C14 12.2239 13.7761 12 13.5 12H11ZM16.4971 12H16.5068L16.502 11.999L16.4971 12ZM16.4844 6C16.5469 6 16.6081 6.01957 16.6592 6.05566C16.7101 6.09167 16.7487 6.14242 16.7695 6.20117L17.0186 6.9668C17.0959 7.19922 17.2271 7.41078 17.4004 7.58398C17.5737 7.75703 17.7851 7.88761 18.0176 7.96484L18.7832 8.21289L18.7979 8.2168C18.8568 8.23756 18.9082 8.27623 18.9443 8.32715C18.9805 8.37818 19 8.43944 19 8.50195C19 8.56445 18.9805 8.62574 18.9443 8.67676C18.9082 8.72765 18.8567 8.76635 18.7979 8.78711L18.0332 9.03516C17.8005 9.11244 17.5884 9.24281 17.415 9.41602C17.2417 9.58919 17.1116 9.80083 17.0342 10.0332L16.7852 10.7988C16.7643 10.8576 16.7257 10.9083 16.6748 10.9443C16.6237 10.9804 16.5626 11 16.5 11C16.4374 11 16.3763 10.9804 16.3252 10.9443C16.2743 10.9083 16.2357 10.8576 16.2148 10.7988L15.9658 10.0332C15.889 9.80017 15.7592 9.58791 15.5859 9.41406C15.4125 9.2401 15.1999 9.10893 14.9668 9.03125L14.2021 8.7832C14.1432 8.76244 14.0918 8.72377 14.0557 8.67285C14.0195 8.62182 14 8.56056 14 8.49805C14 8.43555 14.0195 8.37426 14.0557 8.32324C14.0918 8.27236 14.1433 8.23365 14.2021 8.21289L14.9668 7.96484C15.1966 7.88555 15.4056 7.75415 15.5762 7.58105C15.7468 7.40795 15.8753 7.19762 15.9512 6.9668L16.1992 6.20117C16.22 6.14249 16.2588 6.0917 16.3096 6.05566C16.3606 6.01962 16.4219 6.00007 16.4844 6ZM9.35352 6.39648C9.15826 6.20123 8.84175 6.20123 8.64648 6.39648L7.23438 7.80859L6.83691 7.44531C6.63304 7.25947 6.31699 7.27388 6.13086 7.47754C5.94463 7.68144 5.95919 7.99834 6.16309 8.18457L6.91309 8.86914C7.11048 9.04926 7.41452 9.04246 7.60352 8.85352L9.35352 7.10352C9.54878 6.90826 9.54877 6.59175 9.35352 6.39648ZM13.4785 0C13.5661 0 13.6512 0.0276075 13.7227 0.078125C13.7942 0.128677 13.8488 0.199695 13.8779 0.282227L14.2256 1.35352C14.3339 1.67888 14.5171 1.97432 14.7598 2.2168C15.0024 2.45924 15.2984 2.64176 15.624 2.75L16.6963 3.09863L16.7178 3.10352C16.8003 3.13264 16.8713 3.18738 16.9219 3.25879C16.9724 3.33021 17 3.41546 17 3.50293C16.9999 3.59036 16.9724 3.6757 16.9219 3.74707C16.8713 3.81832 16.8002 3.87226 16.7178 3.90137L15.6455 4.25C15.3199 4.35824 15.0239 4.54075 14.7812 4.7832C14.5386 5.02568 14.3554 5.32112 14.2471 5.64648L13.8994 6.71777C13.8703 6.80031 13.8156 6.87132 13.7441 6.92188C13.6727 6.97241 13.5876 7 13.5 7C13.4124 7 13.3273 6.97241 13.2559 6.92188C13.249 6.91702 13.2419 6.91246 13.2354 6.90723C13.1741 6.85803 13.1269 6.79217 13.1006 6.71777L12.7529 5.64648C12.7342 5.5898 12.7126 5.53427 12.6895 5.47949C12.5795 5.21896 12.4202 4.98141 12.2197 4.78027C12.1817 4.74208 12.1422 4.7051 12.1016 4.66992C11.8833 4.48092 11.6295 4.33582 11.3545 4.24414L10.2822 3.89648C10.1997 3.86736 10.1287 3.81261 10.0781 3.74121C10.0276 3.66979 10 3.58454 10 3.49707C10.0001 3.40964 10.0276 3.3243 10.0781 3.25293C10.1287 3.18168 10.1998 3.12774 10.2822 3.09863L11.3545 2.75C11.6761 2.63894 11.9683 2.45518 12.207 2.21289C12.4457 1.97062 12.6253 1.6765 12.7314 1.35352L13.0791 0.282227C13.1082 0.199695 13.1629 0.128677 13.2344 0.078125C13.3059 0.027586 13.391 1.0639e-05 13.4785 0Z" fill="#212121"/>
</svg>
