<svg width="16" height="16" viewBox="0 0 16 16" fill="none" xmlns="http://www.w3.org/2000/svg">
<path d="M1 5C1 3.89543 1.89543 3 3 3H13C14.1046 3 15 3.89543 15 5V11C15 12.1046 14.1046 13 13 13H3C1.89543 13 1 12.1046 1 11V5ZM13 12C13.5523 12 14 11.5523 14 11V8H6.70711L7.85355 9.14645C8.04882 9.34171 8.04882 9.65829 7.85355 9.85355C7.65829 10.0488 7.34171 10.0488 7.14645 9.85355L6 8.70711V12H13ZM7.91465 7H14V5C14 4.44772 13.5523 4 13 4H6V5.08535C6.15639 5.03008 6.32468 5 6.5 5C7.32843 5 8 5.67157 8 6.5C8 6.67532 7.96992 6.84361 7.91465 7ZM6.5 7C6.77614 7 7 6.77614 7 6.5C7 6.22386 6.77614 6 6.5 6C6.22386 6 6 6.22386 6 6.5V7H6.5ZM5 5.08535V4H3C2.44772 4 2 4.44772 2 5V7H3.08535C3.03008 6.84361 3 6.67532 3 6.5C3 5.67157 3.67157 5 4.5 5C4.67532 5 4.84361 5.03008 5 5.08535ZM4.5 7H5V6.5C5 6.22386 4.77614 6 4.5 6C4.22386 6 4 6.22386 4 6.5C4 6.77614 4.22386 7 4.5 7ZM4.29289 8H2V11C2 11.5523 2.44772 12 3 12H5V8.70711L3.85355 9.85355C3.65829 10.0488 3.34171 10.0488 3.14645 9.85355C2.95118 9.65829 2.95118 9.34171 3.14645 9.14645L4.29289 8Z" fill="#212121"/>
</svg>
