<svg width="20" height="20" viewBox="0 0 20 20" fill="none" xmlns="http://www.w3.org/2000/svg">
<path d="M1.7964 2.09808C1.57549 1.93239 1.26208 1.97716 1.0964 2.19808C0.930714 2.41899 0.975485 2.73239 1.1964 2.89808L3.1984 4.39958C3.41932 4.56527 3.73272 4.5205 3.8984 4.29958C4.06409 4.07867 4.01932 3.76527 3.7984 3.59958L1.7964 2.09808ZM1 6.9996C0.723858 6.9996 0.5 7.22346 0.5 7.4996C0.5 7.77574 0.723858 7.9996 1 7.9996H2.5C2.77614 7.9996 3 7.77574 3 7.4996C3 7.22346 2.77614 6.9996 2.5 6.9996H1ZM12.4497 16.0011C12.2174 17.1415 11.2089 17.9996 10 17.9996C8.79108 17.9996 7.78257 17.1415 7.55033 16.0011H12.4497ZM9.99765 1.99957C13.1466 1.99957 15.7415 4.33445 15.9821 7.35498L15.9955 7.57719L16 7.80171L15.999 11.4076L16.9528 13.9947L16.9784 14.0792L16.9939 14.166L16.9991 14.2541C16.9991 14.5692 16.8034 14.8446 16.4771 14.9614L16.3636 14.9942L16.2491 15.0041H3.75136C3.66286 15.0041 3.57506 14.9885 3.49203 14.9579C3.20513 14.8521 3.01636 14.586 3.00958 14.2418L3.01418 14.1243L3.04762 13.9948L3.99901 11.4106L4.00009 7.79238L4.00439 7.56781C4.12701 4.45072 6.77103 1.99957 9.99765 1.99957ZM18.9036 2.19808C18.7379 1.97716 18.4245 1.93239 18.2036 2.09808L16.2016 3.59958C15.9807 3.76527 15.9359 4.07867 16.1016 4.29958C16.2673 4.5205 16.5807 4.56527 16.8016 4.39958L18.8036 2.89808C19.0245 2.73239 19.0693 2.41899 18.9036 2.19808ZM19.5 7.4996C19.5 7.22346 19.2761 6.9996 19 6.9996H17.5C17.2239 6.9996 17 7.22346 17 7.4996C17 7.77574 17.2239 7.9996 17.5 7.9996H19C19.2761 7.9996 19.5 7.77574 19.5 7.4996Z" fill="#212121"/>
</svg>
