<svg width="48" height="48" viewBox="0 0 48 48" fill="none" xmlns="http://www.w3.org/2000/svg">
<path d="M35.75 6C39.2018 6 42 8.79822 42 12.25V35.75C42 39.2018 39.2018 42 35.75 42H12.25C8.79822 42 6 39.2018 6 35.75V12.25C6 8.79822 8.79822 6 12.25 6H35.75ZM12.25 8.5C10.1789 8.5 8.5 10.1789 8.5 12.25V35.75C8.5 37.8211 10.1789 39.5 12.25 39.5H35.75C37.8211 39.5 39.5 37.8211 39.5 35.75V12.25C39.5 10.1789 37.8211 8.5 35.75 8.5H12.25ZM29.8662 16.3662C30.3544 15.8781 31.1456 15.8781 31.6338 16.3662C32.1219 16.8544 32.1219 17.6456 31.6338 18.1338L25.7676 24L31.6338 29.8662C32.1219 30.3544 32.1219 31.1456 31.6338 31.6338C31.1456 32.1219 30.3544 32.1219 29.8662 31.6338L24 25.7676L18.1338 31.6338C17.6456 32.1219 16.8544 32.1219 16.3662 31.6338C15.8781 31.1456 15.8781 30.3544 16.3662 29.8662L22.2324 24L16.3662 18.1338C15.8781 17.6456 15.8781 16.8544 16.3662 16.3662C16.8544 15.8781 17.6456 15.8781 18.1338 16.3662L24 22.2324L29.8662 16.3662Z" fill="#212121"/>
</svg>
