<svg width="16" height="16" viewBox="0 0 16 16" fill="none" xmlns="http://www.w3.org/2000/svg">
<path d="M7.95399 1.37222C8.30127 0.937223 8.93691 0.869515 9.36803 1.2216L12.6305 3.88595C13.0082 4.19438 13.1006 4.71961 12.8805 5.13128C12.6021 5.04593 12.3064 5.00001 12 5.00001H11.6999L11.9979 4.66048L10.2795 3.25707L8.86269 5.00084H7.57422L9.50497 2.62454L8.73549 1.99613L6.33734 5.00001H5.05775L7.95399 1.37222ZM10.5 10C10.2239 10 10 10.2239 10 10.5C10 10.7761 10.2239 11 10.5 11H11.5C11.7761 11 12 10.7761 12 10.5C12 10.2239 11.7761 10 11.5 10H10.5ZM3 5.5C3 5.22386 3.22386 5 3.5 5H4.05762L4.85254 4H3.5C2.67157 4 2 4.67157 2 5.5V11.5C2 12.8807 3.11929 14 4.5 14H12C13.1046 14 14 13.1046 14 12V8C14 6.89543 13.1046 6 12 6H3.5C3.22386 6 3 5.77614 3 5.5ZM3 11.5V6.91465C3.15639 6.96992 3.32468 7 3.5 7H12C12.5523 7 13 7.44772 13 8V12C13 12.5523 12.5523 13 12 13H4.5C3.67157 13 3 12.3284 3 11.5Z" fill="#212121"/>
</svg>
