<svg width="48" height="48" viewBox="0 0 48 48" fill="none" xmlns="http://www.w3.org/2000/svg">
<path d="M15.2467 38H32.7533C33.4418 38 34 38.5587 34 39.2478C34 39.8939 33.5094 40.4253 32.8808 40.4892L32.7533 40.4956H15.2467C14.5582 40.4956 14 39.937 14 39.2478C14 38.6017 14.4906 38.0703 15.1192 38.0064L15.2467 38ZM9.24782 33H38.7522C39.4413 33 40 33.5587 40 34.2478C40 34.8939 39.509 35.4253 38.8798 35.4892L38.7522 35.4956H9.24782C8.55867 35.4956 8 34.937 8 34.2478C8 33.6017 8.49102 33.0703 9.12024 33.0064L9.24782 33ZM23.9989 7C30.336 7 33.9309 11.1946 34.4537 16.2603L34.6136 16.2602C38.6918 16.2602 41.9978 19.5577 41.9978 23.6253C41.9978 27.6929 38.6918 30.9904 34.6136 30.9904H13.3842C9.306 30.9904 6 27.6929 6 23.6253C6 19.5577 9.306 16.2602 13.3842 16.2602L13.5441 16.2603C14.07 11.1613 17.6618 7 23.9989 7ZM23.9989 9.49518C19.7378 9.49518 16.0239 12.9431 16.0239 17.7058C16.0239 18.4604 15.3677 19.0525 14.6164 19.0525L13.1958 19.0525C10.6018 19.0525 8.49886 21.1663 8.49886 23.7738C8.49886 26.3814 10.6018 28.4952 13.1958 28.4952H34.8019C37.396 28.4952 39.4989 26.3814 39.4989 23.7738C39.4989 21.1663 37.396 19.0525 34.802 19.0525L33.3814 19.0525C32.6301 19.0525 31.9739 18.4604 31.9739 17.7058C31.9739 12.882 28.2599 9.49518 23.9989 9.49518Z" fill="#212121"/>
</svg>
