<svg width="28" height="28" viewBox="0 0 28 28" fill="none" xmlns="http://www.w3.org/2000/svg">
<path d="M17.4998 11.5C17.4998 13.433 15.9328 15 13.9998 15C12.0668 15 10.4998 13.433 10.4998 11.5C10.4998 9.567 12.0668 8 13.9998 8C15.9328 8 17.4998 9.567 17.4998 11.5ZM2.00391 7C2.00391 5.34315 3.34705 4 5.00391 4H23.0005C24.6574 4 26.0005 5.34314 26.0005 7V21.0001C26.0005 22.6569 24.6574 24.0001 23.0005 24.0001H5.00391C3.34706 24.0001 2.00391 22.6569 2.00391 21.0001V7ZM5.00391 5.5C4.17548 5.5 3.50391 6.17157 3.50391 7V21.0001C3.50391 21.8285 4.17548 22.5001 5.00391 22.5001H8.24976V18.5C8.24976 17.3954 9.14519 16.5 10.2498 16.5H17.7498C18.8543 16.5 19.7498 17.3954 19.7498 18.5V22.5001H23.0005C23.8289 22.5001 24.5005 21.8285 24.5005 21.0001V7C24.5005 6.17157 23.8289 5.5 23.0005 5.5H5.00391Z" fill="#212121"/>
</svg>
