<svg width="32" height="32" viewBox="0 0 32 32" fill="none" xmlns="http://www.w3.org/2000/svg">
<path d="M12 13L12 26H14.5121C14.7638 26.7121 15.1025 27.383 15.5155 28H6.5C4.01472 28 2 25.9853 2 23.5V8.5C2 6.01472 4.01472 4 6.5 4H25.5C27.9853 4 30 6.01472 30 8.5V17.3427C29.4298 16.638 28.7553 16.0211 28 15.5155V13H12ZM12 11H28V8.5C28 7.11929 26.8807 6 25.5 6L12 6V11ZM10 6H6.5C5.11929 6 4 7.11929 4 8.5V23.5C4 24.8807 5.11929 26 6.5 26H10L10 6Z" fill="#212121"/>
<path d="M30.5 23C30.5 27.1421 27.1421 30.5 23 30.5C18.8579 30.5 15.5 27.1421 15.5 23C15.5 18.8579 18.8579 15.5 23 15.5C27.1421 15.5 30.5 18.8579 30.5 23ZM24 18.25C24 17.8358 23.6642 17.5 23.25 17.5C22.8358 17.5 22.5 17.8358 22.5 18.25V22H18.75C18.3358 22 18 22.3358 18 22.75C18 23.1642 18.3358 23.5 18.75 23.5H22.5V27.25C22.5 27.6642 22.8358 28 23.25 28C23.6642 28 24 27.6642 24 27.25V23.5H27.75C28.1642 23.5 28.5 23.1642 28.5 22.75C28.5 22.3358 28.1642 22 27.75 22H24V18.25Z" fill="#212121"/>
</svg>
