<?xml version="1.0" encoding="UTF-8"?>
<svg width="24px" height="24px" viewBox="0 0 24 24" version="1.1" xmlns="http://www.w3.org/2000/svg" xmlns:xlink="http://www.w3.org/1999/xlink">
    <!-- Generator: Sketch 61.2 (89653) - https://sketch.com -->
    <title>ic_fluent_timer_off_24_regular</title>
    <desc>Created with Sketch.</desc>
    <g id="ðŸ”-Product-Icons" stroke="none" stroke-width="1" fill="none" fill-rule="evenodd">
        <g id="ic_fluent_timer_off_24_regular" fill="#212121" fill-rule="nonzero">
            <path d="M5.19619633,4.14704042 L5.28031661,4.21965644 L21.7803166,20.7188179 L21.8529369,20.8029345 C22.0707988,21.0965404 22.0466034,21.5132047 21.7803436,21.779478 C21.5140838,22.0457514 21.0974207,22.069968 20.8038037,21.852121 L20.7196834,21.779505 L18.2265755,19.2862216 C16.6745217,20.9556339 14.4592233,22 12,22 C7.30557963,22 3.5,18.1944204 3.5,13.5 C3.5,11.0407767 4.54436612,8.82547826 6.21377845,7.27342447 L4.21968339,5.28034356 L4.1470631,5.19622697 C3.92920118,4.90262102 3.95339664,4.48595672 4.21965644,4.21968339 C4.45633181,3.98299599 4.81184434,3.93756325 5.09414183,4.08339007 L5.19619633,4.14704042 Z M7.2746851,8.33550608 C5.87668893,9.61532125 5,11.4552798 5,13.5 C5,17.3659932 8.13400675,20.5 12,20.5 C14.0447202,20.5 15.8846788,19.6233111 17.1644939,18.2253149 L12.6171564,13.6762867 C12.4818014,13.8718761 12.2558632,14 12,14 C11.6203042,14 11.306509,13.7178461 11.2568466,13.3517706 L11.25,13.25 L11.25,12.311 L7.2746851,8.33550608 Z M12,5 C16.6944204,5 20.5,8.80557963 20.5,13.5 C20.5,14.6634165 20.2662631,15.7722409 19.8431866,16.7820757 L18.6748937,15.6147308 C18.8860825,14.9475248 19,14.2370658 19,13.5 C19,9.63400675 15.8659932,6.5 12,6.5 C11.2629342,6.5 10.5524752,6.61391745 9.88526923,6.82510627 L8.71692316,5.65723291 C9.72702623,5.23389144 10.836199,5 12,5 Z M12,8 C12.3796958,8 12.693491,8.28215388 12.7431534,8.64822944 L12.75,8.75 L12.75,9.69 L11.3828436,8.32371333 C11.5181986,8.12812388 11.7441368,8 12,8 Z M19.1471991,5.11370832 L19.2297996,5.173552 L20.3882047,6.13772876 C20.7065642,6.40271944 20.7498352,6.87561762 20.4848538,7.19398496 C20.2419453,7.48581421 19.8243374,7.54649326 19.5112021,7.3504731 L19.4285977,7.29063387 L18.2701965,6.32645265 C17.9518369,6.06146197 17.908566,5.58856379 18.1735473,5.27019645 C18.4164559,4.9783672 18.8340637,4.91768816 19.1471991,5.11370832 Z M14.25,2.5 C14.6642136,2.5 15,2.83578644 15,3.25 C15,3.62969577 14.7178461,3.94349096 14.3517706,3.99315338 L14.25,4 L9.75,4 C9.33578644,4 9,3.66421356 9,3.25 C9,2.87030423 9.28215388,2.55650904 9.64822944,2.50684662 L9.75,2.5 L14.25,2.5 Z" id="ðŸŽ¨Color"></path>
        </g>
    </g>
</svg>