<?xml version="1.0" encoding="UTF-8"?>
<svg width="24px" height="24px" viewBox="0 0 24 24" version="1.1" xmlns="http://www.w3.org/2000/svg" xmlns:xlink="http://www.w3.org/1999/xlink">
    <!-- Generator: Sketch 64 (93537) - https://sketch.com -->
    <title>ic_fluent_text_add_space_after_24_regular</title>
    <desc>Created with Sketch.</desc>
    <g id="ðŸ”-System-Icons" stroke="none" stroke-width="1" fill="none" fill-rule="evenodd">
        <g id="ic_fluent_text_add_space_after_24_regular" fill="#212121" fill-rule="nonzero">
            <path d="M12.4461816,16.1470802 L12.5303,16.2197 L14.5303,18.2197 C14.8232,18.5126 14.8232,18.9874 14.5303,19.2803 C14.2640273,19.5465727 13.847424,19.5707793 13.5538184,19.3529198 L13.4697,19.2803 L12,17.8107 L10.5303,19.2803 C10.2374,19.5732 9.76256,19.5732 9.46967,19.2803 C9.20340636,19.0140273 9.17920058,18.597424 9.39705264,18.3038184 L9.46967,18.2197 L11.4697,16.2197 C11.7359727,15.9534273 12.152576,15.9292207 12.4461816,16.1470802 Z M20.25,12 C20.6642,12 21,12.3358 21,12.75 C21,13.1642 20.6642,13.5 20.25,13.5 L3.75,13.5 C3.33579,13.5 3,13.1642 3,12.75 C3,12.3358 3.33579,12 3.75,12 L20.25,12 Z M20.25,6 C20.6642,6 21,6.33579 21,6.75 C21,7.16421 20.6642,7.5 20.25,7.5 L3.75,7.5 C3.33579,7.5 3,7.16421 3,6.75 C3,6.33579 3.33579,6 3.75,6 L20.25,6 Z" id="ðŸŽ¨-Color"></path>
        </g>
    </g>
</svg>