<svg width="48" height="48" viewBox="0 0 48 48" fill="none" xmlns="http://www.w3.org/2000/svg">
<path d="M6.5 24C6.5 14.335 14.335 6.5 24 6.5C33.665 6.5 41.5 14.335 41.5 24V28L43 29L44 28V24C44 12.9543 35.0457 4 24 4C12.9543 4 4 12.9543 4 24V28L5 29L6.5 28V24Z" fill="url(#paint0_linear_378174_8991)"/>
<path d="M6.5 24C6.5 14.335 14.335 6.5 24 6.5C33.665 6.5 41.5 14.335 41.5 24V28L43 29L44 28V24C44 12.9543 35.0457 4 24 4C12.9543 4 4 12.9543 4 24V28L5 29L6.5 28V24Z" fill="url(#paint1_linear_378174_8991)"/>
<path d="M4 38.25V28H6.5L10 35L6.5 42.9941C4.99024 41.9578 4 40.2195 4 38.25Z" fill="url(#paint2_linear_378174_8991)"/>
<path d="M44 38.25C44 40.2195 43.0098 41.9578 41.5 42.9941L38.5 35.5L41.5 28H44V38.25Z" fill="url(#paint3_linear_378174_8991)"/>
<path d="M6.5 28V42.9941C7.42454 43.6287 8.5439 44 9.75 44H15.75C16.4404 44 17 43.4404 17 42.75V29.25C17 28.5596 16.4404 28 15.75 28H6.5Z" fill="url(#paint4_linear_378174_8991)"/>
<path d="M41.5 42.9941V28H32.25C31.5596 28 31 28.5596 31 29.25V42.75C31 43.4404 31.5596 44 32.25 44H38.25C39.4561 44 40.5755 43.6287 41.5 42.9941Z" fill="url(#paint5_linear_378174_8991)"/>
<defs>
<linearGradient id="paint0_linear_378174_8991" x1="-8.5" y1="7.76494" x2="3.94912" y2="34.8678" gradientUnits="userSpaceOnUse">
<stop stop-color="#CAD2D9"/>
<stop offset="1" stop-color="#70777D"/>
</linearGradient>
<linearGradient id="paint1_linear_378174_8991" x1="-10.2857" y1="4" x2="-5.60124" y2="24.341" gradientUnits="userSpaceOnUse">
<stop stop-color="#B9C0C7"/>
<stop offset="1" stop-color="#70777D"/>
</linearGradient>
<linearGradient id="paint2_linear_378174_8991" x1="24" y1="28" x2="24" y2="42.9941" gradientUnits="userSpaceOnUse">
<stop stop-color="#0078D4"/>
<stop offset="1" stop-color="#2052CB"/>
</linearGradient>
<linearGradient id="paint3_linear_378174_8991" x1="24" y1="28" x2="24" y2="42.9941" gradientUnits="userSpaceOnUse">
<stop stop-color="#0078D4"/>
<stop offset="1" stop-color="#2052CB"/>
</linearGradient>
<linearGradient id="paint4_linear_378174_8991" x1="21.8125" y1="28" x2="21.8125" y2="44" gradientUnits="userSpaceOnUse">
<stop stop-color="#0FAFFF"/>
<stop offset="1" stop-color="#0067BF"/>
</linearGradient>
<linearGradient id="paint5_linear_378174_8991" x1="21.8125" y1="28" x2="21.8125" y2="44" gradientUnits="userSpaceOnUse">
<stop stop-color="#0FAFFF"/>
<stop offset="1" stop-color="#0067BF"/>
</linearGradient>
</defs>
</svg>
