<svg width="28" height="28" viewBox="0 0 28 28" fill="none" xmlns="http://www.w3.org/2000/svg">
<path d="M19.3102 18.2495C19.3102 18.2494 19.3102 18.2495 19.3102 18.2495L3.28035 2.21979C2.98745 1.92689 2.51257 1.92689 2.21968 2.21978C1.92678 2.51266 1.92677 2.98753 2.21967 3.28042L9.50007 10.5608V14.4999C9.50007 16.9851 11.5148 18.9998 14.0001 18.9998C15.0999 18.9998 16.1076 18.6053 16.8893 17.95L18.3073 19.368C17.1605 20.3833 15.6523 20.9997 14.0001 20.9997C10.4102 20.9997 7.50005 18.0892 7.50005 14.4994V13.7504C7.50005 13.3361 7.16426 13.0004 6.75004 13.0004C6.33583 13.0004 6.00004 13.3366 6.00004 13.7508V14.4998C6.00004 18.6651 9.18347 22.0869 13.2501 22.465V25.2496C13.2501 25.6638 13.5859 25.9996 14.0001 25.9996C14.4143 25.9996 14.7501 25.6638 14.7501 25.2496V22.465C16.5206 22.3004 18.1237 21.5589 19.3695 20.4302L24.7197 25.7803C25.0125 26.0732 25.4874 26.0732 25.7803 25.7803C25.7803 25.7804 25.7804 25.7803 25.7803 25.7803C25.9031 25.6575 25.9745 25.5024 25.9943 25.3424C25.9981 25.3117 26 25.2808 26 25.2498C26 25.058 25.9267 24.8661 25.7803 24.7197L20.3834 19.3228C20.3834 19.3228 20.3834 19.3227 20.3834 19.3228L19.3102 18.2495ZM21.1914 18.0091C21.7094 16.9496 22.0002 15.7586 22.0002 14.4998V13.7504C22.0002 13.3362 21.6644 13.0004 21.2502 13.0004C20.836 13.0004 20.5002 13.3364 20.5002 13.7506V14.4998C20.5002 15.3368 20.342 16.1368 20.0538 16.8716L21.1914 18.0091ZM18.4371 15.2549C18.4786 15.0094 18.5002 14.7571 18.5002 14.4999V6.49995C18.5002 4.0147 16.4854 2 14.0001 2C11.5746 2 9.59732 3.91889 9.50355 6.32136L18.4371 15.2549Z" fill="#212121"/>
</svg>
