<svg width="16" height="16" viewBox="0 0 16 16" fill="none" xmlns="http://www.w3.org/2000/svg">
<path d="M9.70711 8.49976L10.3536 9.1462C10.5488 9.34146 10.5488 9.65805 10.3536 9.85331C10.1583 10.0486 9.84171 10.0486 9.64645 9.85331L8.14645 8.35331C7.95118 8.15805 7.95118 7.84146 8.14645 7.6462L9.64645 6.1462C9.84171 5.95094 10.1583 5.95094 10.3536 6.1462C10.5488 6.34146 10.5488 6.65805 10.3536 6.85331L9.70711 7.49976H11.4983C11.7744 7.49976 11.9983 7.72361 11.9983 7.99976C11.9983 8.2759 11.7744 8.49976 11.4983 8.49976H9.70711Z" fill="#212121"/>
<path d="M4 2.99854C2.89543 2.99854 2 3.89397 2 4.99854V11.0009C2 12.1055 2.89543 13.0009 4 13.0009H12C13.1046 13.0009 14 12.1055 14 11.0009V4.99854C14 3.89397 13.1046 2.99854 12 2.99854H4ZM3 4.99854C3 4.44625 3.44772 3.99854 4 3.99854H6.00153L6.00152 12.0009H4C3.44772 12.0009 3 11.5532 3 11.0009V4.99854ZM7.00152 12.0009L7.00153 3.99854H12C12.5523 3.99854 13 4.44625 13 4.99854V11.0009C13 11.5532 12.5523 12.0009 12 12.0009H7.00152Z" fill="#212121"/>
</svg>
