<svg width="20" height="20" viewBox="0 0 20 20" fill="none" xmlns="http://www.w3.org/2000/svg">
<path d="M5.5 9C7.98528 9 10 11.0147 10 13.5C10 15.9853 7.98528 18 5.5 18C3.01472 18 1 15.9853 1 13.5C1 11.0147 3.01472 9 5.5 9ZM16 4C17.1046 4 18 4.89543 18 6V14C18 15.1046 17.1046 16 16 16H10.4004C10.5623 15.6832 10.6944 15.3486 10.793 15H16C16.5523 15 17 14.5523 17 14V6C17 5.44772 16.5523 5 16 5H6V8.02246C5.83532 8.00762 5.66854 8 5.5 8C5.33146 8 5.16468 8.00762 5 8.02246V5H4C3.44772 5 3 5.44772 3 6V8.59961C2.64228 8.78247 2.30706 9.00326 2 9.25684V6C2 4.89543 2.89543 4 4 4H16ZM3.5 13C3.22386 13 3 13.2239 3 13.5C3 13.7761 3.22386 14 3.5 14H7.5C7.77614 14 8 13.7761 8 13.5C8 13.2239 7.77614 13 7.5 13H3.5ZM13.5 7C14.3284 7 15 7.67157 15 8.5V9.5C15 10.3284 14.3284 11 13.5 11H10.4004C10.2175 10.6423 9.99674 10.3071 9.74316 10H13.5C13.7761 10 14 9.77614 14 9.5V8.5C14 8.22386 13.7761 8 13.5 8H9.5C9.22386 8 9 8.22386 9 8.5V9.25684C8.69294 9.00326 8.35772 8.78247 8 8.59961V8.5C8 7.67157 8.67157 7 9.5 7H13.5Z" fill="#212121"/>
</svg>
