<svg width="24" height="24" viewBox="0 0 24 24" fill="none" xmlns="http://www.w3.org/2000/svg">
<path d="M6.24788 16.0021C7.21437 16.0021 7.99788 16.7856 7.99788 17.7521V20.25C7.99788 21.2165 7.21437 22 6.24788 22H3.75C2.7835 22 2 21.2165 2 20.25V17.7521C2 16.7856 2.7835 16.0021 3.75 16.0021H6.24788ZM6.24788 17.5021H3.75C3.61193 17.5021 3.5 17.6141 3.5 17.7521V20.25C3.5 20.3881 3.61193 20.5 3.75 20.5H6.24788C6.38595 20.5 6.49788 20.3881 6.49788 20.25V17.7521C6.49788 17.6141 6.38595 17.5021 6.24788 17.5021ZM9.74809 18H21.2529C21.6671 18 22.0029 18.3358 22.0029 18.75C22.0029 19.1297 21.7207 19.4435 21.3547 19.4932L21.2529 19.5H9.74809C9.33388 19.5 8.99809 19.1642 8.99809 18.75C8.99809 18.3703 9.28025 18.0565 9.64632 18.0068L9.74809 18H21.2529H9.74809ZM6.24788 9.00106C7.21437 9.00106 7.99788 9.78456 7.99788 10.7511V13.2489C7.99788 14.2154 7.21437 14.9989 6.24788 14.9989H3.75C2.7835 14.9989 2 14.2154 2 13.2489V10.7511C2 9.78456 2.7835 9.00106 3.75 9.00106H6.24788ZM6.24788 10.5011H3.75C3.61193 10.5011 3.5 10.613 3.5 10.7511V13.2489C3.5 13.387 3.61193 13.4989 3.75 13.4989H6.24788C6.38595 13.4989 6.49788 13.387 6.49788 13.2489V10.7511C6.49788 10.613 6.38595 10.5011 6.24788 10.5011ZM9.74809 11H21.2529C21.6671 11 22.0029 11.3358 22.0029 11.75C22.0029 12.1297 21.7207 12.4435 21.3547 12.4932L21.2529 12.5H9.74809C9.33388 12.5 8.99809 12.1642 8.99809 11.75C8.99809 11.3703 9.28025 11.0565 9.64632 11.0068L9.74809 11H21.2529H9.74809ZM6.24788 2C7.21437 2 7.99788 2.7835 7.99788 3.75V6.24788C7.99788 7.21437 7.21437 7.99788 6.24788 7.99788H3.75C2.7835 7.99788 2 7.21437 2 6.24788V3.75C2 2.7835 2.7835 2 3.75 2H6.24788ZM6.24788 3.5H3.75C3.61193 3.5 3.5 3.61193 3.5 3.75V6.24788C3.5 6.38595 3.61193 6.49788 3.75 6.49788H6.24788C6.38595 6.49788 6.49788 6.38595 6.49788 6.24788V3.75C6.49788 3.61193 6.38595 3.5 6.24788 3.5ZM9.74809 4H21.2529C21.6671 4 22.0029 4.33579 22.0029 4.75C22.0029 5.1297 21.7207 5.44349 21.3547 5.49315L21.2529 5.5H9.74809C9.33388 5.5 8.99809 5.16421 8.99809 4.75C8.99809 4.3703 9.28025 4.05651 9.64632 4.00685L9.74809 4H21.2529H9.74809Z" fill="#212121"/>
</svg>
