<svg width="16" height="16" viewBox="0 0 16 16" fill="none" xmlns="http://www.w3.org/2000/svg">
<path d="M7.99993 1C11.8659 1 15 4.13402 15 8.00002C15 11.866 11.8659 15 7.99993 15C6.70916 15 5.49994 14.6488 4.46184 14.0391L1.65812 14.9747C1.47854 15.0344 1.28028 14.9874 1.1464 14.8536C1.0126 14.7197 0.965507 14.5214 1.02531 14.3418L1.9589 11.5362C1.35005 10.4985 0.999916 9.28981 0.999916 8.00002C0.999916 4.13408 4.13402 1.00011 7.99993 1ZM7.99993 2C4.68631 2.00011 1.99992 4.68637 1.99992 8.00002C1.99992 9.18017 2.34138 10.2792 2.92961 11.2071C3.01005 11.3339 3.02982 11.4903 2.98234 11.6328L2.28996 13.708L4.36614 13.0166C4.51602 12.9842 4.65576 12.9831 4.79192 13.0694C5.72011 13.6581 6.81943 14 7.99993 14C11.3137 14 13.9999 11.3137 13.9999 8.00002C13.9999 4.6863 11.3137 2 7.99993 2ZM10.1464 6.1465C10.3417 5.95127 10.6582 5.95134 10.8535 6.1465C11.0487 6.34176 11.0487 6.65827 10.8535 6.85354L7.60345 10.1035C7.40818 10.2987 7.09165 10.2988 6.89642 10.1035L5.14641 8.35354C4.95128 8.1583 4.95128 7.84174 5.14641 7.64651C5.34164 7.45128 5.65817 7.45134 5.85344 7.64651L7.24993 9.043L10.1464 6.1465Z" fill="#212121"/>
</svg>
