<svg width="48" height="48" viewBox="0 0 48 48" fill="none" xmlns="http://www.w3.org/2000/svg">
<path fill-rule="evenodd" clip-rule="evenodd" d="M13.1007 7.27753C14.2075 4.54662 17.3456 3.26245 20.0494 4.43399L22.9962 5.71085C23.6858 6.00968 24.4678 6.01302 25.16 5.72009L28.1176 4.46845C30.8313 3.32004 33.9583 4.63096 35.0417 7.37122L36.2226 10.3578C36.4989 11.0568 37.0495 11.6121 37.7461 11.8944L40.7225 13.1007C43.4534 14.2075 44.7376 17.3456 43.566 20.0494L42.2892 22.9962C41.9903 23.6858 41.987 24.4678 42.2799 25.16L43.5316 28.1176C44.68 30.8313 43.369 33.9583 40.6288 35.0417L37.6422 36.2226C36.9432 36.4989 36.3879 37.0495 36.1056 37.7461L34.8993 40.7225C33.7925 43.4534 30.6544 44.7376 27.9506 43.566L25.0038 42.2892C24.3142 41.9903 23.5322 41.987 22.84 42.2799L19.8824 43.5315C17.1687 44.68 14.0417 43.369 12.9583 40.6288L11.7774 37.6422C11.5011 36.9432 10.9505 36.3879 10.2539 36.1056L7.27753 34.8993C4.54662 33.7925 3.26245 30.6544 4.43399 27.9506L5.71085 25.0038C6.00968 24.3142 6.01302 23.5322 5.72009 22.84L4.46845 19.8824C3.32004 17.1687 4.63096 14.0417 7.37123 12.9583L10.3578 11.7774C11.0568 11.5011 11.6121 10.9505 11.8944 10.2539L13.1007 7.27753Z" fill="url(#paint0_linear_73183_13014)"/>
<path fill-rule="evenodd" clip-rule="evenodd" d="M13.1007 7.27753C14.2075 4.54662 17.3456 3.26245 20.0494 4.43399L22.9962 5.71085C23.6858 6.00968 24.4678 6.01302 25.16 5.72009L28.1176 4.46845C30.8313 3.32004 33.9583 4.63096 35.0417 7.37122L36.2226 10.3578C36.4989 11.0568 37.0495 11.6121 37.7461 11.8944L40.7225 13.1007C43.4534 14.2075 44.7376 17.3456 43.566 20.0494L42.2892 22.9962C41.9903 23.6858 41.987 24.4678 42.2799 25.16L43.5316 28.1176C44.68 30.8313 43.369 33.9583 40.6288 35.0417L37.6422 36.2226C36.9432 36.4989 36.3879 37.0495 36.1056 37.7461L34.8993 40.7225C33.7925 43.4534 30.6544 44.7376 27.9506 43.566L25.0038 42.2892C24.3142 41.9903 23.5322 41.987 22.84 42.2799L19.8824 43.5315C17.1687 44.68 14.0417 43.369 12.9583 40.6288L11.7774 37.6422C11.5011 36.9432 10.9505 36.3879 10.2539 36.1056L7.27753 34.8993C4.54662 33.7925 3.26245 30.6544 4.43399 27.9506L5.71085 25.0038C6.00968 24.3142 6.01302 23.5322 5.72009 22.84L4.46845 19.8824C3.32004 17.1687 4.63096 14.0417 7.37123 12.9583L10.3578 11.7774C11.0568 11.5011 11.6121 10.9505 11.8944 10.2539L13.1007 7.27753Z" fill="url(#paint1_linear_73183_13014)" fill-opacity="0.7"/>
<path d="M23.9997 11.9297C21.3333 11.9297 19.1717 14.0913 19.1717 16.7577C19.1717 19.4241 21.3333 21.5857 23.9997 21.5857C26.6662 21.5857 28.8277 19.4241 28.8277 16.7577C28.8277 14.0913 26.6662 11.9297 23.9997 11.9297ZM30.0347 23.9997L17.9647 23.9997C15.9649 23.9997 14.3438 25.6209 14.3438 27.6207C14.3438 30.3149 15.4517 32.4735 17.2699 33.9328C19.0593 35.3691 21.4576 36.0697 23.9997 36.0697C26.5419 36.0697 28.9402 35.3691 30.7296 33.9328C32.5478 32.4735 33.6557 30.3149 33.6557 27.6207C33.6557 25.6209 32.0346 23.9997 30.0347 23.9997Z" fill="url(#paint2_linear_73183_13014)" fill-opacity="0.9"/>
<defs>
<linearGradient id="paint0_linear_73183_13014" x1="10.6667" y1="1.77778" x2="30.6667" y2="46.2222" gradientUnits="userSpaceOnUse">
<stop stop-color="#1EC8B0"/>
<stop offset="1" stop-color="#2764E7"/>
</linearGradient>
<linearGradient id="paint1_linear_73183_13014" x1="30.1905" y1="8.91228" x2="38.1178" y2="48.3021" gradientUnits="userSpaceOnUse">
<stop offset="0.53288" stop-color="#FF6CE8" stop-opacity="0"/>
<stop offset="1" stop-color="#FF6CE8"/>
</linearGradient>
<linearGradient id="paint2_linear_73183_13014" x1="38.4923" y1="56.7611" x2="-3.8928" y2="-5.42348" gradientUnits="userSpaceOnUse">
<stop stop-color="#9DEAFF"/>
<stop offset="1" stop-color="white"/>
</linearGradient>
</defs>
</svg>
