<svg width="16" height="16" viewBox="0 0 16 16" fill="none" xmlns="http://www.w3.org/2000/svg">
<path d="M6.74705 1.1672C5.71757 0.721124 4.52271 1.21008 4.10129 2.2499L3.73839 3.14531C3.63578 3.39848 3.43396 3.59858 3.17992 3.69902L2.28144 4.05426C1.23807 4.4668 0.738923 5.65743 1.17619 6.69069L1.55273 7.58044C1.6592 7.83202 1.65798 8.11622 1.54937 8.36688L1.16525 9.25339C0.719171 10.2829 1.20813 11.4777 2.24795 11.8992L3.14335 12.2621C3.39653 12.3647 3.59663 12.5665 3.69707 12.8205L4.05231 13.719C4.46484 14.7624 5.65548 15.2615 6.68873 14.8243L7.57849 14.4477C7.83007 14.3412 8.11427 14.3425 8.36493 14.4511L9.25144 14.8352C10.2809 15.2813 11.4758 14.7923 11.8972 13.7525L12.2601 12.8571C12.3627 12.6039 12.5645 12.4038 12.8186 12.3034L13.717 11.9481C14.7604 11.5356 15.2596 10.345 14.8223 9.31171L14.4458 8.42195C14.3393 8.17038 14.3405 7.88617 14.4491 7.63551L14.8332 6.74901C15.2793 5.71952 14.7904 4.52467 13.7505 4.10324L12.8551 3.74034C12.602 3.63773 12.4019 3.43591 12.3014 3.18187L11.9462 2.2834C11.5336 1.24002 10.343 0.740876 9.30976 1.17814L8.42 1.55468C8.16842 1.66115 7.88422 1.65993 7.63356 1.55132L6.74705 1.1672ZM6.24749 8H9.74749C10.4378 8 11.0351 8.5653 10.9176 9.24558C10.73 10.3316 10.1017 11.5 7.9975 11.5C5.89327 11.5 5.26496 10.3316 5.07736 9.24558C4.95984 8.5653 5.55714 8 6.24749 8ZM9.49749 5.5C9.49749 6.32843 8.82592 7 7.99749 7C7.16907 7 6.49749 6.32843 6.49749 5.5C6.49749 4.67157 7.16907 4 7.99749 4C8.82592 4 9.49749 4.67157 9.49749 5.5Z" fill="#212121"/>
</svg>
