<svg width="28" height="28" viewBox="0 0 28 28" fill="none" xmlns="http://www.w3.org/2000/svg">
<path d="M19.4996 10C20.3281 10 20.9996 9.32843 20.9996 8.5C20.9996 7.67157 20.3281 7 19.4996 7C18.6712 7 17.9996 7.67157 17.9996 8.5C17.9996 9.32843 18.6712 10 19.4996 10ZM15.2852 3C14.4232 3 13.5966 3.34241 12.9871 3.9519L3.73706 13.2019C2.46786 14.4711 2.46785 16.5289 3.73706 17.7981L10.2015 24.2626C10.7128 24.7738 11.3519 25.0791 12.016 25.1785C11.9849 24.9314 11.9982 24.6716 12.0642 24.4075L12.2422 23.6955C11.8836 23.6425 11.5382 23.478 11.2622 23.2019L4.79772 16.7374C4.1143 16.054 4.1143 14.946 4.79772 14.2626L14.0477 5.01256C14.3759 4.68437 14.821 4.5 15.2852 4.5H22.2496C22.94 4.5 23.4996 5.05964 23.4996 5.75V12.0072C24.0081 11.9736 24.5229 12.0578 24.9996 12.2597V5.75C24.9996 4.23122 23.7684 3 22.2496 3H15.2852ZM22.0999 13.6695L14.1974 21.5719C13.8533 21.916 13.6092 22.3472 13.4911 22.8194L13.0334 24.6501C12.8344 25.4462 13.5556 26.1674 14.3517 25.9683L16.1824 25.5106C16.6546 25.3926 17.0857 25.1485 17.4299 24.8043L25.3323 16.9019C26.2249 16.0093 26.2249 14.5621 25.3323 13.6695C24.4397 12.7768 22.9925 12.7768 22.0999 13.6695Z" fill="#212121"/>
</svg>
