<svg width="16" height="16" viewBox="0 0 16 16" fill="none" xmlns="http://www.w3.org/2000/svg">
<path d="M8 1C11.866 1 15 4.13401 15 8C15 11.866 11.866 15 8 15C4.13401 15 1 11.866 1 8C1 4.13401 4.13401 1 8 1ZM8 2C4.68629 2 2 4.68629 2 8C2 11.3137 4.68629 14 8 14C11.3137 14 14 11.3137 14 8C14 4.68629 11.3137 2 8 2ZM6 6.24902C6.00004 5.67011 6.62796 5.30971 7.12793 5.60156L10.1279 7.35254C10.6233 7.64205 10.6233 8.35793 10.1279 8.64746L7.12793 10.3984C6.62794 10.6903 6 10.3299 6 9.75098V6.24902Z" fill="#212121"/>
</svg>
