<svg width="24" height="24" viewBox="0 0 24 24" fill="none" xmlns="http://www.w3.org/2000/svg">
<path d="M3 6.25C3 4.45507 4.45507 3 6.25 3H17.75C19.5449 3 21 4.45507 21 6.25V11H19.5V9.5H15V11.7827C14.9859 11.8086 14.9725 11.835 14.9599 11.862L13.5 14.9681V4.5H6.25C5.2835 4.5 4.5 5.2835 4.5 6.25V17.75C4.5 18.7165 5.2835 19.5 6.25 19.5H12.3789C12.6479 19.8024 13.0404 20 13.4974 20H15.2202L14.971 21H6.25C4.45507 21 3 19.5449 3 17.75V6.25ZM19.5 8V6.25C19.5 5.2835 18.7165 4.5 17.75 4.5H15V8H19.5ZM6 13.75C6 13.3358 6.33579 13 6.75 13H11.25C11.6642 13 12 13.3358 12 13.75C12 14.1642 11.6642 14.5 11.25 14.5H6.75C6.33579 14.5 6 14.1642 6 13.75ZM7.25 6.5C6.55964 6.5 6 7.05964 6 7.75V10.25C6 10.9404 6.55964 11.5 7.25 11.5H10.75C11.4404 11.5 12 10.9404 12 10.25V7.75C12 7.05964 11.4404 6.5 10.75 6.5H7.25ZM7.5 10V8H10.5V10H7.5ZM6 16.75C6 16.3358 6.33579 16 6.75 16H11.25C11.6642 16 12 16.3358 12 16.75C12 17.1642 11.6642 17.5 11.25 17.5H6.75C6.33579 17.5 6 17.1642 6 16.75ZM16.3174 12H21.145C21.5274 12 21.7683 12.4118 21.5808 12.7451L19.75 16H21.2461C21.8906 16 22.235 16.7593 21.8103 17.2441L16.9864 22.7519C16.4819 23.328 15.5438 22.8375 15.7289 22.0945L16.5 19H13.4974C13.131 19 12.8891 18.6189 13.0449 18.2873L15.8649 12.2873C15.9473 12.112 16.1237 12 16.3174 12Z" fill="#212121"/>
</svg>
