<?xml version="1.0" encoding="UTF-8"?>
<svg width="24px" height="24px" viewBox="0 0 24 24" version="1.1" xmlns="http://www.w3.org/2000/svg" xmlns:xlink="http://www.w3.org/1999/xlink">
    <!-- Generator: Sketch 59.1 (86144) - https://sketch.com -->
    <title>ic_fluent_font_increase_24_regular</title>
    <desc>Created with Sketch.</desc>
    <g id="ðŸ”-Product-Icons" stroke="none" stroke-width="1" fill="none" fill-rule="evenodd">
        <g id="ic_fluent_font_increase_24_regular" fill="#212121" fill-rule="nonzero">
            <path d="M12.590967,4.27630842 L12.6533323,4.36790706 L12.7039495,4.47258193 L18.0719261,17.9725819 C18.2249738,18.3574836 18.0370189,18.7935777 17.6521173,18.9466253 C17.2992907,19.086919 16.9034484,18.9406759 16.7220392,18.6188555 L16.6780739,18.5268165 L15.077,14.499 L8.927,14.499 L7.32167695,18.5274423 C7.18106646,18.8801427 6.80276705,19.0671395 6.44432732,18.9777044 L6.34725692,18.9463762 C5.99455653,18.8057657 5.80755974,18.4274663 5.89699479,18.0690265 L5.92832305,17.9719561 L11.3103464,4.47195612 C11.5319522,3.91609111 12.2523801,3.85100704 12.590967,4.27630842 Z M12.006,6.776 L9.525,12.999 L14.48,12.999 L12.006,6.776 Z M17.6834824,3.07042232 C17.8845216,2.97641824 18.1174942,2.97641824 18.3185334,3.07042232 L18.4160963,3.12525804 L20.6671042,4.62105637 L20.7549114,4.68916802 C21.0264848,4.93394581 21.0850834,5.3471779 20.876677,5.66080596 C20.6682707,5.97443402 20.2646042,6.08049026 19.9337359,5.9249446 L19.8369274,5.87037881 L18.001,4.65071759 L16.1650884,5.87037881 L16.0682799,5.9249446 C15.7374116,6.08049026 15.3337451,5.97443402 15.1253388,5.66080596 C14.9169324,5.3471779 14.975531,4.93394581 15.2471044,4.68916802 L15.3349116,4.62105637 L17.5859195,3.12525804 L17.6834824,3.07042232 Z" id="ðŸŽ¨-Color"></path>
        </g>
    </g>
</svg>