<svg width="28" height="28" viewBox="0 0 28 28" fill="none" xmlns="http://www.w3.org/2000/svg">
<path d="M6.43934 4L2 8.43934V10.5607L8.56066 4H6.43934ZM2 13.9393V16.0607L14.0607 4H11.9393L2 13.9393ZM2 21.25C2 21.3497 2.0053 21.4481 2.01564 21.545L9.999 13.5617C9.74087 13.0617 9.57369 12.5072 9.51934 11.92L2 19.4393V21.25ZM14.42 7.01934C15.0072 7.07369 15.5617 7.24087 16.0617 7.499L19.5607 4H17.4393L14.42 7.01934ZM7 19.9393L3.3324 23.6069C3.74636 23.8565 4.23142 24 4.75 24H5.06066L7 22.0607V19.9393ZM18.9177 15.643C18.6285 15.5501 18.3201 15.5 18 15.5H16.9393L25.9844 6.45498C25.9947 6.5519 26 6.65033 26 6.75V8.56066L18.9177 15.643ZM21 19.0607V18.5C21 18.0436 20.8981 17.6109 20.7157 17.2236L26 11.9393V14.0607L21 19.0607ZM21 24H21.5607L26 19.5607V17.4393L21 22.4393V24ZM18.4184 10.6423C18.3123 10.0926 18.1061 9.57846 17.8196 9.1197L22.9393 4H23.25C23.7686 4 24.2536 4.14354 24.6676 4.39306L18.4184 10.6423ZM8 18.5V24H20V18.5C20 17.3954 19.1046 16.5 18 16.5H10C8.89543 16.5 8 17.3954 8 18.5ZM14 15C15.933 15 17.5 13.433 17.5 11.5C17.5 9.567 15.933 8 14 8C12.067 8 10.5 9.567 10.5 11.5C10.5 13.433 12.067 15 14 15Z" fill="#212121"/>
</svg>
