<svg width="48" height="48" viewBox="0 0 48 48" fill="none" xmlns="http://www.w3.org/2000/svg">
<path d="M22 4C16.4772 4 12 8.47715 12 14C12 19.5228 16.4772 24 22 24C27.5228 24 32 19.5228 32 14C32 8.47715 27.5228 4 22 4ZM10.2499 28C7.90326 28 6.00002 29.9013 6 32.2489L6 33C6 36.7555 7.94167 39.5669 10.9202 41.3802C13.8491 43.1633 17.7861 44 22 44C23.1715 44 24.3216 43.9353 25.4346 43.8036C23.3022 41.488 22 38.3961 22 35C22 32.4227 22.75 30.0206 24.0437 28H10.2499ZM46 35C46 41.0751 41.0751 46 35 46C28.9249 46 24 41.0751 24 35C24 28.9249 28.9249 24 35 24C41.0751 24 46 28.9249 46 35ZM31.7071 31.7071C32.0976 31.3166 32.0976 30.6834 31.7071 30.2929C31.3166 29.9024 30.6834 29.9024 30.2929 30.2929L27.2929 33.2929C26.9024 33.6834 26.9024 34.3166 27.2929 34.7071L30.2929 37.7071C30.6834 38.0976 31.3166 38.0976 31.7071 37.7071C32.0976 37.3166 32.0976 36.6834 31.7071 36.2929L30.4142 35H36C38.2091 35 40 36.7909 40 39C40 39.5523 40.4477 40 41 40C41.5523 40 42 39.5523 42 39C42 35.6863 39.3137 33 36 33H30.4142L31.7071 31.7071Z" fill="#212121"/>
</svg>
