<svg width="21" height="20" viewBox="0 0 21 20" fill="none" xmlns="http://www.w3.org/2000/svg">
<path d="M4.91602 2C3.5353 2 2.41602 3.11929 2.41602 4.5V10.5C2.41602 11.8807 3.5353 13 4.91602 13H6.41602V11.293L5.70898 12H4.91602C4.68446 12 4.46516 11.9475 4.26936 11.8538L6.41602 9.70718V9.5C6.41602 8.92896 6.55277 8.38987 6.79531 7.91367L3.56223 11.1468C3.4685 10.9509 3.41602 10.7316 3.41602 10.5V9.56094L9.97696 3H10.916C11.1476 3 11.3669 3.05249 11.5628 3.14621L8.32969 6.37929C8.80588 6.13675 9.34498 6 9.91602 6H10.1232L12.2699 3.85334C12.3635 4.04915 12.416 4.26845 12.416 4.5V5.29297L11.709 6H13.416V4.5C13.416 3.11929 12.2967 2 10.916 2H4.91602ZM3.41602 4.5C3.41602 3.67157 4.08759 3 4.91602 3H5.56274L3.41602 5.14673V4.5ZM3.41602 6.56094L6.97696 3H8.56274L3.41602 8.14673V6.56094ZM7.41602 9.5C7.41602 8.11929 8.5353 7 9.91602 7H15.916C17.2967 7 18.416 8.11929 18.416 9.5V15.5C18.416 16.8807 17.2967 18 15.916 18H9.91602C8.5353 18 7.41602 16.8807 7.41602 15.5V9.5ZM9.91602 8C9.08759 8 8.41602 8.67157 8.41602 9.5V15.5C8.41602 16.3284 9.08759 17 9.91602 17H15.916C16.7444 17 17.416 16.3284 17.416 15.5V9.5C17.416 8.67157 16.7444 8 15.916 8H9.91602Z" fill="#212121"/>
</svg>
