<svg width="17" height="16" viewBox="0 0 17 16" fill="none" xmlns="http://www.w3.org/2000/svg">
<path d="M2.41602 10C2.41602 11.5067 3.5022 13.0467 5.41602 13.6891V9C5.41602 8.63571 5.51343 8.29417 5.68359 8H3.91602C3.08765 8 2.41602 8.67157 2.41602 9.5V10ZM7.41602 1.5C8.93481 1.5 10.166 2.73122 10.166 4.25C10.166 5.76878 8.93481 7 7.41602 7C5.89722 7 4.66602 5.76878 4.66602 4.25C4.66602 2.73122 5.89722 1.5 7.41602 1.5ZM10.9258 11.9268L6.42871 9.30359C6.5249 8.56798 7.15405 8 7.91602 8H13.916C14.7444 8 15.416 8.67157 15.416 9.5V9.50905L10.9258 11.9268ZM11.1531 12.9402L15.416 10.6448V13.5C15.416 14.3284 14.7444 15 13.916 15H7.91602C7.08765 15 6.41602 14.3284 6.41602 13.5V10.4539L10.6641 12.9319C10.8145 13.0196 10.9998 13.0228 11.1531 12.9402Z" fill="#212121"/>
</svg>
