<svg width="48" height="48" viewBox="0 0 48 48" fill="none" xmlns="http://www.w3.org/2000/svg">
<path d="M12.25 6C8.79822 6 6 8.79822 6 12.25V35.75C6 39.2018 8.79822 42 12.25 42H26.6502C26.1024 41.2803 25.6349 40.5151 25.2518 39.7049C25.2196 39.6368 25.1881 39.5685 25.1571 39.5H12.25C10.1789 39.5 8.5 37.8211 8.5 35.75V12.25C8.5 10.1789 10.1789 8.5 12.25 8.5H35.75C37.8211 8.5 39.5 10.1789 39.5 12.25V23.7354C39.5744 23.777 39.6488 23.8177 39.7231 23.8576C40.4886 24.2682 41.2472 24.5862 42 24.8178V12.25C42 8.79822 39.2018 6 35.75 6H12.25ZM42 26.8956C43.0462 27.1655 44.1015 27.3 45.1667 27.3C45.6269 27.3 46 27.6694 46 28.125V33.9C46 39.4013 42.7138 43.4433 36.3054 45.9426C36.1092 46.0191 35.8909 46.0191 35.6946 45.9426C33.0125 44.8966 30.8773 43.5803 29.3011 42C29.1699 41.8685 29.0426 41.7352 28.9192 41.6C28.3193 40.943 27.8109 40.2429 27.395 39.5C27.2757 39.2868 27.164 39.0702 27.0599 38.85C26.3552 37.3597 26 35.7087 26 33.9V28.125C26 27.6694 26.3731 27.3 26.8333 27.3C29.7927 27.3 32.6755 26.2622 35.5 24.165C35.7963 23.945 36.2037 23.945 36.5 24.165C37.255 24.7256 38.0141 25.2104 38.7778 25.6201C39.0181 25.7489 39.2588 25.8704 39.5 25.9844C40.1814 26.3064 40.8666 26.5691 41.5556 26.7726C41.7035 26.8164 41.8517 26.8574 42 26.8956ZM29.3358 25C30.9533 24.6091 32.5859 23.8274 34.2482 22.6032C34.0956 22.5368 33.9271 22.5 33.75 22.5H20.25C19.5596 22.5 19 23.0596 19 23.75C19 24.4404 19.5596 25 20.25 25H29.3358ZM24 33V30.5H20.25C19.5596 30.5 19 31.0596 19 31.75C19 32.4404 19.5596 33 20.25 33H24ZM17 15.75C17 16.8546 16.1046 17.75 15 17.75C13.8954 17.75 13 16.8546 13 15.75C13 14.6454 13.8954 13.75 15 13.75C16.1046 13.75 17 14.6454 17 15.75ZM17 23.75C17 24.8546 16.1046 25.75 15 25.75C13.8954 25.75 13 24.8546 13 23.75C13 22.6454 13.8954 21.75 15 21.75C16.1046 21.75 17 22.6454 17 23.75ZM15 33.75C16.1046 33.75 17 32.8546 17 31.75C17 30.6454 16.1046 29.75 15 29.75C13.8954 29.75 13 30.6454 13 31.75C13 32.8546 13.8954 33.75 15 33.75ZM19 15.75C19 15.0596 19.5596 14.5 20.25 14.5H33.75C34.4404 14.5 35 15.0596 35 15.75C35 16.4404 34.4404 17 33.75 17H20.25C19.5596 17 19 16.4404 19 15.75Z" fill="#212121"/>
</svg>
