<svg width="28" height="28" viewBox="0 0 28 28" fill="none" xmlns="http://www.w3.org/2000/svg">
<path d="M14 3.5C8.20101 3.5 3.5 8.20101 3.5 14C3.5 19.799 8.20101 24.5 14 24.5C19.799 24.5 24.5 19.799 24.5 14C24.5 8.20101 19.799 3.5 14 3.5ZM2 14C2 7.37258 7.37258 2 14 2C20.6274 2 26 7.37258 26 14C26 20.6274 20.6274 26 14 26C7.37258 26 2 20.6274 2 14ZM12.25 9C12.6642 9 13 9.33579 13 9.75V18.25C13 18.6642 12.6642 19 12.25 19C11.8358 19 11.5 18.6642 11.5 18.25V9.75C11.5 9.33579 11.8358 9 12.25 9ZM9.5 12.25C9.5 11.8358 9.16421 11.5 8.75 11.5C8.33579 11.5 8 11.8358 8 12.25V15.75C8 16.1642 8.33579 16.5 8.75 16.5C9.16421 16.5 9.5 16.1642 9.5 15.75V12.25ZM15.75 11C16.1642 11 16.5 11.3358 16.5 11.75V16.25C16.5 16.6642 16.1642 17 15.75 17C15.3358 17 15 16.6642 15 16.25V11.75C15 11.3358 15.3358 11 15.75 11ZM20 9.75C20 9.33579 19.6642 9 19.25 9C18.8358 9 18.5 9.33579 18.5 9.75V18.25C18.5 18.6642 18.8358 19 19.25 19C19.6642 19 20 18.6642 20 18.25V9.75Z" fill="#212121"/>
</svg>
