<svg width="20" height="20" viewBox="0 0 20 20" fill="none" xmlns="http://www.w3.org/2000/svg">
<path d="M5.99996 4.50122C5.36604 4.50122 4.82397 4.89445 4.60436 5.4503C4.59564 5.48177 4.58476 5.51304 4.57165 5.54392C4.40983 5.92514 3.96962 6.10299 3.58841 5.94118C3.20723 5.77938 3.02937 5.33925 3.1911 4.95806H3.18629C3.61007 3.81547 4.70992 3.00122 5.99996 3.00122H14C15.29 3.00122 16.3898 3.81547 16.8136 4.95806H16.8105C16.9723 5.33927 16.7944 5.77946 16.4132 5.94127C16.032 6.10308 15.5918 5.92522 15.4299 5.54401L15.4257 5.53373C15.4167 5.51172 15.4089 5.48952 15.4021 5.46721C15.1869 4.90245 14.6403 4.50122 14 4.50122H5.99996ZM3 11.25C3 11.6642 3.33579 12 3.75 12C4.16421 12 4.5 11.6642 4.5 11.25V8.75C4.5 8.33579 4.16421 8 3.75 8C3.33579 8 3 8.33579 3 8.75V11.25ZM15.5 11.25C15.5 11.6642 15.8358 12 16.25 12C16.6642 12 17 11.6642 17 11.25V8.75C17 8.33579 16.6642 8 16.25 8C15.8358 8 15.5 8.33579 15.5 8.75V11.25ZM4.60436 14.5519C4.82397 15.1077 5.36604 15.501 5.99996 15.501H14C14.6403 15.501 15.1869 15.0998 15.4021 14.535C15.4089 14.5127 15.4167 14.4905 15.4257 14.4685L15.429 14.4581C15.5908 14.0769 16.032 13.8991 16.4132 14.0609C16.7944 14.2227 16.9723 14.6629 16.8105 15.0441H16.8136C16.3898 16.1867 15.29 17.001 14 17.001H5.99996C4.70992 17.001 3.61007 16.1867 3.18629 15.0441H3.1911C3.02937 14.663 3.20723 14.2228 3.58841 14.061C3.96962 13.8992 4.40983 14.0771 4.57165 14.4583C4.58476 14.4892 4.59564 14.5204 4.60436 14.5519Z" fill="#212121"/>
</svg>
