<svg width="20" height="20" viewBox="0 0 20 20" fill="none" xmlns="http://www.w3.org/2000/svg">
<path d="M5 3C3.89543 3 3 3.89543 3 5V14C3 15.6569 4.34315 17 6 17H13.9983C15.6552 17 16.9983 15.6569 16.9983 14V12H14V5C14 3.89543 13.1046 3 12 3H5ZM13 12H5.9983V14C5.9983 14.7399 5.59648 15.386 4.99915 15.7319C4.40182 15.386 4 14.7399 4 14V5C4 4.44772 4.44772 4 5 4H12C12.5523 4 13 4.44772 13 5V12ZM6.23441 16C6.70945 15.4692 6.9983 14.7684 6.9983 14V13H15.9983V14C15.9983 15.1046 15.1029 16 13.9983 16H6.23441Z" fill="#212121"/>
</svg>
