<?xml version="1.0" encoding="UTF-8"?>
<svg width="24px" height="24px" viewBox="0 0 24 24" version="1.1" xmlns="http://www.w3.org/2000/svg" xmlns:xlink="http://www.w3.org/1999/xlink">
    <!-- Generator: Sketch 64 (93537) - https://sketch.com -->
    <title>ic_fluent_hand_raise_24_regular</title>
    <desc>Created with Sketch.</desc>
    <g id="ðŸ”-System-Icons" stroke="none" stroke-width="1" fill="none" fill-rule="evenodd">
        <g id="ic_fluent_hand_raise_24_regular" fill="#212121" fill-rule="nonzero">
            <path d="M11.4974,1.99706871 C12.3600875,1.99640433 13.0354801,2.50970554 13.3328276,3.19889673 L13.3872,3.33898 L13.5301172,3.29970656 C13.6270391,3.27692094 13.7271797,3.26103656 13.8301266,3.25270094 L13.9866,3.24594 L14.1385062,3.25087043 C15.1381001,3.32205511 15.9184637,4.14871006 15.9940011,5.09901621 L16,5.25 L16,11.2581 C16.3849,11.0467 16.8491,10.8542 17.3678,10.7632 C18.1185,10.6317 18.9851,10.6766 19.7008,11.0463 C20.4687,11.4429 21,12.1883 21,13.25 C21,13.4521143 20.9185224,13.6440898 20.7766006,13.784049 L20.7007,13.8495 L18.7428,15.3214 L16.6048,17.4572 C15.7846,18.2766 15.1021,19.2232 14.5838,20.2603 C14.0801278,21.2680222 13.0795361,21.9251981 11.9649896,21.9951074 L11.7672,22.0013 L9.03943,22.0013 C7.99781,22.0013 6.97463,21.4977 6.4182,20.5446 C5.70695238,19.3263143 4.61059819,17.1538336 4.50779631,15.0660089 L4.5,14.7536 L4.5,7 C4.5,5.95905 5.33182,4.99994 6.50115,4.99994 C6.6801,4.99994 6.85127,5.02235 7.01285,5.06407 C7.10363,4.10157 7.8915,3.24592 9,3.24592 C9.21687,3.24592 9.42187,3.27859 9.61197,3.33844 C9.87538,2.58304 10.5817,1.99778 11.4974,1.99706871 Z M11.4986,3.49706968 C11.2121,3.49729 11,3.72415 11,3.99682 L11,10.2494 L10.9931531,10.3512005 C10.9434889,10.7174146 10.6296833,11 10.25,11 C9.8703075,11 9.55650958,10.7178347 9.50684668,10.3517677 L9.5,10.25 L9.5,5.25 C9.5,4.9715 9.28688,4.74592 9,4.74592 C8.71851,4.74592 8.50409,4.97174 8.50409,5.25 L8.50409,10.7451 L8.49724332,10.8468736 C8.44758042,11.2129826 8.1337825,11.4954 7.75409,11.4954 C7.3743975,11.4954 7.06059958,11.2132347 7.01093668,10.8471677 L7.00409,10.7454 L7.00409,7 C7.00409,6.73065 6.79011,6.49994 6.50115,6.49994 C6.21505,6.49994 6,6.73158 6,7 L6,14.7536 C6,16.5004 6.97783,18.528 7.7136,19.7883 C7.97061,20.2285 8.46764,20.5013 9.03943,20.5013 L11.7672,20.5013 C12.3918,20.5013 12.9628,20.1484 13.242,19.5897 C13.8326,18.4081 14.6101,17.3296 15.5447,16.396 L17.7199,14.223 C17.7448,14.1982 17.7713,14.1752 17.7993,14.1541 L19.4577,12.9073 C19.3843,12.644 19.221,12.4867 19.0124,12.379 C18.6737,12.204 18.1641,12.1466 17.6268,12.2407 C17.1332,12.3272 16.6758,12.5737 16.3241,12.8227 C16.1521,12.9445 16.0151,13.06 15.9226,13.1434 L15.7952,13.2651 C15.5846,13.488 15.2593,13.5603 14.974,13.4474 C14.6879,13.3342 14.5,13.0577 14.5,12.75 L14.5,5.25 C14.5,4.99047 14.2584,4.7443 13.9959,4.74591 C13.7023,4.74762 13.4981,4.98399 13.4981,5.22345 L13.4981,10.2494 L13.4912531,10.3512005 C13.4415889,10.7174146 13.1277833,11 12.7481,11 C12.3684167,11 12.0546111,10.7178347 12.0049469,10.3517677 L11.9981,10.25 L11.9981,3.99682 C11.9981,3.72007 11.789,3.49685 11.4986,3.49706968 Z" id="ðŸŽ¨-Color"></path>
        </g>
    </g>
</svg>