<svg width="24" height="24" viewBox="0 0 24 24" fill="none" xmlns="http://www.w3.org/2000/svg">
<path d="M17.5 12C20.5376 12 23 14.4624 23 17.5C23 20.5376 20.5376 23 17.5 23C14.4624 23 12 20.5376 12 17.5C12 14.4624 14.4624 12 17.5 12ZM17.5112 14.0001L17.427 14.005L17.3719 14.0166L17.2886 14.0467L17.2153 14.0888L17.1589 14.1344L14.6464 16.6464L14.5886 16.7157C14.4705 16.8862 14.4705 17.1138 14.5886 17.2843L14.6464 17.3536L14.7157 17.4114C14.8862 17.5295 15.1138 17.5295 15.2843 17.4114L15.3536 17.3536L16.999 15.708L17 21L17.0081 21.0899C17.0451 21.294 17.206 21.4549 17.4101 21.4919L17.5 21.5L17.5899 21.4919C17.794 21.4549 17.9549 21.294 17.9919 21.0899L18 21L17.999 15.706L19.6464 17.3536L19.7157 17.4114C19.9106 17.5464 20.18 17.5271 20.3536 17.3536C20.5271 17.18 20.5464 16.9106 20.4114 16.7157L20.3536 16.6464L17.806 14.104L17.7585 14.0719L17.691 14.0378L17.6281 14.0166L17.5739 14.0055C17.5529 14.0023 17.5317 14.0006 17.5112 14.0001ZM6.25 3H17.75C19.483 3 20.8992 4.35645 20.9949 6.06558L21 6.25L21.0012 12.0226C20.5378 11.7258 20.0342 11.4861 19.5004 11.3136L19.5 8H4.5V17.75C4.5 18.6682 5.20711 19.4212 6.10647 19.4942L6.25 19.5L11.3136 19.5004C11.4861 20.0342 11.7258 20.5378 12.0226 21.0012L6.25 21C4.51697 21 3.10075 19.6435 3.00514 17.9344L3 17.75V6.25C3 4.51697 4.35645 3.10075 6.06558 3.00514L6.25 3Z" fill="#212121"/>
</svg>
