<svg width="32" height="32" viewBox="0 0 32 32" fill="none" xmlns="http://www.w3.org/2000/svg">
<path d="M23.4683 4.34455L23.9997 4.99998L24.5317 4.34389C25.8644 2.70018 28.3129 2.53493 29.8544 3.98467C31.3279 5.37044 31.3894 7.69159 29.9915 9.15351L24.6712 14.717C24.3054 15.0996 23.6943 15.0994 23.3287 14.7166L18.0112 9.14876C16.6168 7.68876 16.6778 5.37263 18.1471 3.98807C19.687 2.53696 22.1357 2.701 23.4683 4.34455ZM15.4191 5.03575L15.2109 4.82381C14.1324 3.72546 12.3642 3.72012 11.279 4.81193C11.0624 5.02987 10.8896 5.27485 10.7606 5.53595C9.72027 5.00309 8.41311 5.17218 7.54208 6.0432C7.31417 6.27111 7.13432 6.52888 7.00253 6.80391C6.11967 6.38523 5.04505 6.48386 4.24298 7.12552C3.05007 8.07985 2.92349 9.84831 3.96833 10.9628L4.40177 11.4251C4.18347 11.5451 3.97813 11.6977 3.79282 11.883C2.76752 12.9083 2.73646 14.5608 3.7225 15.6239L8.8809 21.1854C7.71425 21.4487 6.2048 22.0843 5.27296 23.6151C4.82512 24.3508 4.96696 25.1487 5.38567 25.7031C5.77965 26.2247 6.41859 26.5534 7.09945 26.5829C10.2516 26.7193 14.0631 27.8709 17.2873 29.422C19.5518 30.5114 22.4616 30.0947 24.0706 27.9666L25.9907 25.4271C26.9547 24.1522 27.251 22.4932 26.7881 20.9634L25.4711 16.6109C24.8616 16.9538 24.1567 17.067 23.4842 16.9504L23.4908 16.9721L24.8738 21.5427C25.1516 22.4606 24.9738 23.4559 24.3954 24.2209L22.4753 26.7604C21.5314 28.0088 19.7043 28.3654 18.1543 27.6197C14.7702 25.9917 10.6888 24.7363 7.1859 24.5847C7.13651 24.5826 7.08907 24.5692 7.04925 24.5487C7.59669 23.7317 8.47416 23.3251 9.33543 23.1332C9.77617 23.035 10.1818 23.0008 10.4775 22.9917C10.6242 22.9872 10.7408 22.989 10.8175 22.9916C10.8501 22.9927 10.8826 22.9943 10.9151 22.9964L10.9166 22.9965L10.9177 22.9966C11.3282 23.0307 11.7179 22.8094 11.8988 22.439C12.0803 22.0677 12.0146 21.623 11.7335 21.32L5.18886 14.2638C4.93408 13.9891 4.9421 13.5622 5.20703 13.2972C5.43871 13.0656 5.79158 13.0319 6.05856 13.1924L10.2701 17.6847C10.6479 18.0876 11.2807 18.1081 11.6836 17.7303C11.7115 17.7041 11.7376 17.6767 11.7619 17.6482C12.087 17.2673 12.082 16.6948 11.7328 16.3191L7.675 11.9539C7.58473 11.8568 7.48905 11.7678 7.38884 11.6871L5.42741 9.59493C5.18026 9.3313 5.2102 8.91299 5.49237 8.68725C5.73893 8.49001 6.09437 8.5097 6.31763 8.73296L12.2926 14.7079C12.6199 15.0352 13.1177 15.0882 13.5002 14.8668C13.5743 14.824 13.6442 14.7708 13.7076 14.7074C14.0981 14.3168 14.098 13.6837 13.7074 13.2932L8.95635 8.54313C8.6565 8.24334 8.65647 7.75723 8.95629 7.45742C9.25609 7.15762 9.74215 7.15762 10.0419 7.45742L11.1259 8.54142C11.177 8.60189 11.2311 8.66068 11.2882 8.7176L15.2931 12.7091L15.31 12.7255L16.292 13.7075C16.6825 14.098 17.3157 14.098 17.7062 13.7075C18.0967 13.317 18.0967 12.6838 17.7062 12.2933L12.6193 7.20633C12.4044 6.9086 12.4303 6.49071 12.6975 6.22185C12.9974 5.92017 13.4859 5.92165 13.7839 6.22513L15.3736 7.84391C15.1476 6.92098 15.163 5.95191 15.4191 5.03575ZM16.196 21.9797C17.338 21.7517 18.2839 21.7689 19.0771 22.0168C19.8552 22.2599 20.5625 22.7483 21.2017 23.5995C21.5333 24.0411 22.1602 24.1303 22.6018 23.7986C23.0434 23.467 23.1326 22.8401 22.801 22.3985C21.939 21.2507 20.8958 20.4896 19.6736 20.1078C18.4665 19.7306 17.1623 19.7473 15.8044 20.0184C15.2628 20.1266 14.9114 20.6533 15.0195 21.1949C15.1277 21.7365 15.6544 22.0879 16.196 21.9797Z" fill="#212121"/>
</svg>
