<svg width="24" height="24" viewBox="0 0 24 24" fill="none" xmlns="http://www.w3.org/2000/svg">
<path d="M8.64372 8.20794L11.3273 2.75964C11.6022 2.2015 12.398 2.2015 12.6729 2.75964L15.3565 8.20794L21.3674 9.07654C21.9829 9.16549 22.229 9.92194 21.7835 10.356L20.4155 11.6889C19.5387 11.2481 18.5484 11 17.5001 11C13.9103 11 11.0001 13.9101 11.0001 17.5C11.0001 18.0077 11.0583 18.5017 11.1684 18.9759L6.62662 21.3682C6.07614 21.6582 5.43233 21.1904 5.53798 20.5773L6.56937 14.5921L2.217 10.3563C1.77112 9.92237 2.01704 9.16552 2.63282 9.07654L8.64372 8.20794Z" fill="#212121"/>
<path d="M23 17.5C23 20.5376 20.5376 23 17.5 23C14.4624 23 12 20.5376 12 17.5C12 14.4624 14.4624 12 17.5 12C20.5376 12 23 14.4624 23 17.5ZM14.5 17C14.2239 17 14 17.2239 14 17.5C14 17.7761 14.2239 18 14.5 18H19.2929L17.6464 19.6464C17.4512 19.8417 17.4512 20.1583 17.6464 20.3536C17.8417 20.5488 18.1583 20.5488 18.3536 20.3536L20.8536 17.8536C21.0488 17.6583 21.0488 17.3417 20.8536 17.1464L18.3536 14.6464C18.1583 14.4512 17.8417 14.4512 17.6464 14.6464C17.4512 14.8417 17.4512 15.1583 17.6464 15.3536L19.2929 17H14.5Z" fill="#212121"/>
</svg>
