<?xml version="1.0" encoding="UTF-8"?>
<svg width="24px" height="24px" viewBox="0 0 24 24" version="1.1" xmlns="http://www.w3.org/2000/svg" xmlns:xlink="http://www.w3.org/1999/xlink">
    <!-- Generator: Sketch 59.1 (86144) - https://sketch.com -->
    <title>ic_info_24_filled</title>
    <desc>Created with Sketch.</desc>
    <g id="ðŸ”-Product-Icons" stroke="none" stroke-width="1" fill="none" fill-rule="evenodd">
        <g id="ic_info_24_filled" fill="#212121">
            <path d="M12.0000002,1.99896738 C17.523704,1.99896738 22.0015507,6.47681407 22.0015507,12.0005179 C22.0015507,17.5242217 17.523704,22.0020684 12.0000002,22.0020684 C6.47629639,22.0020684 1.99844971,17.5242217 1.99844971,12.0005179 C1.99844971,6.47681407 6.47629639,1.99896738 12.0000002,1.99896738 Z M11.996193,10.2495496 C11.4439084,10.2499112 10.9964862,10.6979194 10.9968474,11.250204 L10.9968474,11.250204 L11.000448,16.751798 L11.0072521,16.8684147 C11.0653426,17.3657155 11.4882665,17.751479 12.0011022,17.7511436 C12.5533868,17.750782 13.000809,17.3027738 13.0004478,16.7504892 L13.0004478,16.7504892 L12.9968474,11.2488952 L12.9900433,11.1322785 C12.9319526,10.6349777 12.5090287,10.2492142 11.996193,10.2495496 Z M12.0004478,6.5 C11.3092523,6.5 10.7489277,7.06032464 10.7489277,7.75152012 C10.7489277,8.44271559 11.3092523,9.00304023 12.0004478,9.00304023 C12.6916433,9.00304023 13.2519679,8.44271559 13.2519679,7.75152012 C13.2519679,7.06032464 12.6916433,6.5 12.0004478,6.5 Z" id="ðŸŽ¨-Color"></path>
        </g>
    </g>
</svg>