<svg width="32" height="32" viewBox="0 0 32 32" fill="none" xmlns="http://www.w3.org/2000/svg">
<path d="M20.75 3C14.8129 3 10 7.81294 10 13.75L10 14.75C10 15.9926 8.99264 17 7.75 17H4.25C3.55964 17 3 17.5596 3 18.25C3 18.9404 3.55964 19.5 4.25 19.5H7.75C10.3734 19.5 12.5 17.3734 12.5 14.75V13.75C12.5 9.19365 16.1937 5.5 20.75 5.5H22.75C23.4404 5.5 24 4.94036 24 4.25C24 3.55964 23.4404 3 22.75 3H20.75ZM14.25 14.75C14.25 11.0221 17.2721 8 21 8H27.75C28.4404 8 29 8.55964 29 9.25C29 9.94036 28.4404 10.5 27.75 10.5H21C18.6528 10.5 16.75 12.4028 16.75 14.75C16.75 15.4167 16.75 16.0833 16.75 16.75C16.75 21.0302 13.2802 24.5 9 24.5H4.25C3.55964 24.5 3 23.9404 3 23.25C3 22.5596 3.55964 22 4.25 22H9C11.8995 22 14.25 19.6495 14.25 16.75C14.25 16.0833 14.25 15.4167 14.25 14.75ZM21.2478 18.6381C21.1277 24.6574 16.2107 29.5 10.1626 29.5L9.25 29.5C8.55964 29.5 8 28.9403 8 28.25C8 27.5596 8.55965 27 9.25 27L10.1626 27C14.9053 27 18.75 23.1553 18.75 18.4126V16.25C18.75 14.4551 20.2051 13 22 13H27.75C28.4404 13 29 13.5596 29 14.25C29 14.9404 28.4404 15.5 27.75 15.5H22C21.5858 15.5 21.25 15.8358 21.25 16.25V18.5625C21.25 18.5879 21.2492 18.6131 21.2478 18.6381Z" fill="#212121"/>
</svg>
