<svg width="48" height="48" viewBox="0 0 48 48" fill="none" xmlns="http://www.w3.org/2000/svg">
<path d="M30.5 7C23.5964 7 18 12.5964 18 19.5V20.5C18 24.6421 14.6421 28 10.5 28H5.5C4.67157 28 4 27.3284 4 26.5C4 25.6716 4.67157 25 5.5 25H10.5C12.9853 25 15 22.9853 15 20.5V19.5C15 10.9396 21.9396 4 30.5 4H34.75C35.5784 4 36.25 4.67157 36.25 5.5C36.25 6.32843 35.5784 7 34.75 7H30.5ZM32.5 15C28.9101 15 26 17.9101 26 21.5V22.5C26 29.9558 19.9558 36 12.5 36H5.5C4.67157 36 4 35.3284 4 34.5C4 33.6716 4.67157 33 5.5 33H12.5C18.299 33 23 28.299 23 22.5V21.5C23 16.2533 27.2533 12 32.5 12H42.5C43.3284 12 44 12.6716 44 13.5C44 14.3284 43.3284 15 42.5 15H32.5ZM34 24.3636C34 23.6105 34.6105 23 35.3636 23H42.5C43.3284 23 44 22.3284 44 21.5C44 20.6716 43.3284 20 42.5 20H35.3636C32.9537 20 31 21.9537 31 24.3636C31 33.5516 23.5516 41 14.3636 41H13.5C12.6716 41 12 41.6716 12 42.5C12 43.3284 12.6716 44 13.5 44H14.3636C25.2085 44 34 35.2085 34 24.3636Z" fill="#212121"/>
</svg>
