<svg width="20" height="20" viewBox="0 0 20 20" fill="none" xmlns="http://www.w3.org/2000/svg">
<path d="M12.5 15C12.7761 15 13 15.2239 13 15.5C13 15.7455 12.8231 15.9499 12.5898 15.9922L12.5 16H7.5C7.22386 16 7 15.7761 7 15.5C7 15.2545 7.17691 15.0501 7.41016 15.0078L7.5 15H12.5ZM14.5 11C14.7761 11 15 11.2239 15 11.5C15 11.7455 14.8231 11.9499 14.5898 11.9922L14.5 12H5.5C5.22386 12 5 11.7761 5 11.5C5 11.2545 5.17691 11.0501 5.41016 11.0078L5.5 11H14.5ZM14.5 1C16.9853 1 19 3.01472 19 5.5C19 7.98528 16.9853 10 14.5 10C12.0147 10 10 7.98528 10 5.5C10 3.01472 12.0147 1 14.5 1ZM12.5 6C12.2239 6 12 6.22386 12 6.5V8C12 8.27614 12.2239 8.5 12.5 8.5C12.7761 8.5 13 8.27614 13 8V7.84766C13.0904 7.89983 13.1836 7.94761 13.2793 7.99023C13.6472 8.15405 14.0446 8.24292 14.4473 8.25C14.85 8.25705 15.2506 8.18213 15.624 8.03125C15.9974 7.88037 16.3364 7.65583 16.6211 7.37109C16.8164 7.17583 16.8164 6.85932 16.6211 6.66406C16.4258 6.46901 16.1093 6.46887 15.9141 6.66406C15.7242 6.85394 15.498 7.00391 15.249 7.10449C15.0001 7.20503 14.7333 7.2547 14.4648 7.25C14.1965 7.24528 13.9317 7.18633 13.6865 7.07715C13.6339 7.05372 13.5825 7.02778 13.5322 7H14C14.2761 7 14.5 6.77614 14.5 6.5C14.5 6.22386 14.2761 6 14 6H12.5ZM9.20801 7C9.30669 7.34882 9.43948 7.68306 9.60156 8H3.5C3.22386 8 3 7.77614 3 7.5C3 7.25454 3.17691 7.05015 3.41016 7.00781L3.5 7H9.20801ZM16.5 2.5C16.2239 2.5 16 2.72386 16 3V3.15234C15.9096 3.10017 15.8164 3.05239 15.7207 3.00977C15.3528 2.84595 14.9554 2.75708 14.5527 2.75C14.15 2.74295 13.7494 2.81787 13.376 2.96875C13.0026 3.11963 12.6636 3.34417 12.3789 3.62891C12.1836 3.82417 12.1836 4.14068 12.3789 4.33594C12.5742 4.53099 12.8907 4.53113 13.0859 4.33594C13.2758 4.14606 13.502 3.99609 13.751 3.89551C13.9999 3.79497 14.2667 3.7453 14.5352 3.75C14.8035 3.75472 15.0683 3.81367 15.3135 3.92285C15.3661 3.94628 15.4175 3.97222 15.4678 4H15C14.7239 4 14.5 4.22386 14.5 4.5C14.5 4.77614 14.7239 5 15 5H16.5C16.7761 5 17 4.77614 17 4.5V3C17 2.72386 16.7761 2.5 16.5 2.5Z" fill="#212121"/>
</svg>
