<svg width="16" height="16" viewBox="0 0 16 16" fill="none" xmlns="http://www.w3.org/2000/svg">
<path d="M5 4C6.38071 4 7.5 5.11929 7.5 6.5C7.5 6.69409 7.47575 6.88242 7.43359 7.06348C8.05064 7.24947 8.5 7.82232 8.5 8.5C8.5 9.31765 7.84576 9.98088 7.03223 9.99805C7.18601 11.1979 7.87325 11.9259 8.33398 12.29C8.69423 12.5747 9 13.0292 9 13.5732L8.99219 13.7197C8.92362 14.3906 8.39063 14.9236 7.71973 14.9922L7.57324 15H2.42676C1.68839 14.9998 1.0813 14.4387 1.00781 13.7197L1 13.5732C1 13.0292 1.30577 12.5747 1.66602 12.29C2.12673 11.9259 2.81298 11.1978 2.9668 9.99805C2.15372 9.98037 1.5 9.31732 1.5 8.5C1.5 7.82265 1.94885 7.24975 2.56543 7.06348C2.52331 6.88248 2.5 6.69401 2.5 6.5C2.5 5.11929 3.61929 4 5 4ZM9.49316 1C9.8797 1 10.2309 1.14811 10.4971 1.38867C10.7624 1.14766 11.1138 1 11.5 1C11.8859 1 12.2367 1.14795 12.502 1.38867C12.7682 1.14782 13.12 1 13.5068 1H14C14.5523 1 15 1.44772 15 2V4C15 5.10261 14.1077 5.99586 13.0059 5.99902C13.0748 10.1403 13.9951 11.7489 14.458 12.2969C14.7101 12.5953 14.9997 13.0439 15 13.5732C15 14.361 14.361 15 13.5732 15H9.5332C9.74565 14.7087 9.89433 14.3693 9.95996 14H13.5732C13.8087 14 14 13.8087 14 13.5732C13.9998 13.4001 13.8956 13.1796 13.6943 12.9414C13.0013 12.1209 12 10.1361 12 5.5C12 5.22386 12.2239 5 12.5 5H13C13.5523 5 14 4.55228 14 4V2H13.5068C13.2333 2 13.0106 2.21979 13.0068 2.49316L13 3.00684C12.9963 3.28028 12.7735 3.5 12.5 3.5C12.2265 3.49998 12.0037 3.28025 12 3.00684L11.9932 2.48633C11.9894 2.21674 11.7698 2 11.5 2C11.264 2 11.0659 2.16573 11.0176 2.3877L11.0068 2.48633L11 3.00684C10.9963 3.28025 10.7735 3.49998 10.5 3.5C10.2265 3.5 10.0037 3.28028 10 3.00684L9.99316 2.49316C9.98943 2.21979 9.76671 2 9.49316 2H9V4C9 4.55228 9.44772 5 10 5H10.5C10.7761 5 11 5.22386 11 5.5C11 9.31348 10.3214 11.3324 9.69531 12.3857C9.51132 12.0449 9.26279 11.7649 9.00781 11.5527C9.45124 10.6472 9.94354 8.97965 9.99316 5.99902C8.89174 5.99534 8 5.10229 8 4V2C8 1.44772 8.44772 1 9 1H9.49316ZM5 5C4.17157 5 3.5 5.67157 3.5 6.5C3.5 6.77257 3.57387 7.0274 3.70215 7.24902C3.79173 7.40371 3.7924 7.59514 3.70312 7.75C3.61385 7.90484 3.44827 8 3.26953 8H3C2.72386 8 2.5 8.22386 2.5 8.5C2.5 8.77614 2.72386 9 3 9H3.5C3.77614 9 4 9.22386 4 9.5C4 11.4143 2.94686 12.5524 2.28516 13.0752C2.09461 13.2259 2 13.4151 2 13.5732L2.00879 13.6592C2.04866 13.8536 2.22058 13.9999 2.42676 14H7.57324L7.65918 13.9912C7.82583 13.957 7.95703 13.8258 7.99121 13.6592L8 13.5732C8 13.4151 7.90539 13.2259 7.71484 13.0752C7.05314 12.5524 6 11.4143 6 9.5C6 9.22386 6.22386 9 6.5 9H7L7.10059 8.99023C7.32855 8.94371 7.5 8.74171 7.5 8.5C7.5 8.25829 7.32855 8.05629 7.10059 8.00977L7 8H6.73047C6.55173 8 6.38615 7.90484 6.29688 7.75C6.2076 7.59514 6.20827 7.40371 6.29785 7.24902C6.42613 7.0274 6.5 6.77257 6.5 6.5C6.5 5.67157 5.82843 5 5 5Z" fill="#212121"/>
</svg>
