<?xml version="1.0" encoding="UTF-8"?>
<svg width="24px" height="24px" viewBox="0 0 24 24" version="1.1" xmlns="http://www.w3.org/2000/svg" xmlns:xlink="http://www.w3.org/1999/xlink">
    <!-- Generator: Sketch 59.1 (86144) - https://sketch.com -->
    <title>ic_gif_24_regular</title>
    <desc>Created with Sketch.</desc>
    <g id="ðŸ”-Product-Icons" stroke="none" stroke-width="1" fill="none" fill-rule="evenodd">
        <g id="ic_gif_24_regular" fill="#212121">
            <path d="M18.75,3.50054297 C20.5449254,3.50054297 22,4.95561754 22,6.75054297 L22,17.2531195 C22,19.048045 20.5449254,20.5031195 18.75,20.5031195 L5.25,20.5031195 C3.45507456,20.5031195 2,19.048045 2,17.2531195 L2,6.75054297 C2,4.95561754 3.45507456,3.50054297 5.25,3.50054297 L18.75,3.50054297 Z M18.75,5.00054297 L5.25,5.00054297 C4.28350169,5.00054297 3.5,5.78404466 3.5,6.75054297 L3.5,17.2531195 C3.5,18.2196178 4.28350169,19.0031195 5.25,19.0031195 L18.75,19.0031195 C19.7164983,19.0031195 20.5,18.2196178 20.5,17.2531195 L20.5,6.75054297 C20.5,5.78404466 19.7164983,5.00054297 18.75,5.00054297 Z M8.01459972,8.87193666 C8.61149825,8.87193666 9.03352891,8.95326234 9.51677386,9.18532686 C9.82793289,9.33475204 9.95904407,9.70812933 9.80961888,10.0192884 C9.6601937,10.3304474 9.28681641,10.4615586 8.97565738,10.3121334 C8.67582824,10.1681491 8.43601415,10.1219367 8.01459972,10.1219367 C7.14788947,10.1219367 6.51103525,10.9182985 6.51103525,11.9943017 C6.51103525,13.0713011 7.14873038,13.8702789 8.01459972,13.8702789 C8.49084922,13.8702789 8.8858934,13.6482216 9.05117316,13.2573646 L9.001,13.354543 L9.001,12.620543 L8.62521827,12.6211937 C8.31142012,12.6211937 8.05163513,12.3899359 8.00699487,12.0885517 L8.00021827,11.9961937 C8.00021827,11.6510158 8.2800403,11.3711937 8.62521827,11.3711937 L8.62521827,11.3711937 L9.62682145,11.3711937 C9.97199942,11.3711937 10.2518215,11.6510158 10.2518215,11.9961937 L10.2518215,11.9961937 L10.2518215,13.5007861 C10.2518215,13.5059024 10.25176,13.5110043 10.2516377,13.5160912 C10.2513595,13.5345271 10.2500767,13.5531741 10.2479353,13.5718247 C10.2457076,13.5904215 10.2428851,13.608212 10.2393293,13.6257364 C10.2313507,13.6649567 10.2190687,13.704954 10.2024697,13.7442077 L10.2306538,13.6626668 C10.225906,13.6804212 10.2203961,13.6978642 10.2141611,13.7149584 L10.2024697,13.7442077 C9.82606539,14.6343365 8.96156448,15.1202789 8.01459972,15.1202789 C6.38857781,15.1202789 5.26103525,13.707564 5.26103525,11.9943017 C5.26103525,10.2816525 6.38839145,8.87193666 8.01459972,8.87193666 Z M12.6289445,8.99393497 C12.9741225,8.99393497 13.2539445,9.273757 13.2539445,9.61893497 L13.2539445,9.61893497 L13.2539445,14.381065 C13.2539445,14.726243 12.9741225,15.006065 12.6289445,15.006065 C12.2837665,15.006065 12.0039445,14.726243 12.0039445,14.381065 L12.0039445,14.381065 L12.0039445,9.61893497 C12.0039445,9.273757 12.2837665,8.99393497 12.6289445,8.99393497 Z M15.6247564,8.99393489 L17.6221579,9.00083497 C17.9673338,9.00202673 18.246188,9.28281321 18.2450001,9.62798912 C18.2438045,9.97316503 17.963018,10.2520193 17.6178421,10.2508313 L17.6178421,10.2508313 L16.247,10.245543 L16.247,11.999543 L17.37,12.0004012 C17.6837982,12.0004012 17.9435831,12.2316591 17.9882234,12.5330433 L17.995,12.6254012 C17.995,12.9705792 17.715178,13.2504012 17.37,13.2504012 L17.37,13.2504012 L16.247,13.249543 L16.2475985,14.3649711 C16.2475985,14.6787693 16.0163406,14.9385543 15.7149564,14.9831945 L15.6225985,14.9899711 C15.2774205,14.9899711 14.9975985,14.7101491 14.9975985,14.3649711 L14.9975985,14.3649711 L14.9975984,9.61677709 C14.998794,9.27160118 15.2795805,8.99274693 15.6247564,8.99393489 L15.6247564,8.99393489 Z" id="ðŸŽ¨-Color"></path>
        </g>
    </g>
</svg>