<?xml version="1.0" encoding="UTF-8"?>
<svg width="24px" height="24px" viewBox="0 0 24 24" version="1.1" xmlns="http://www.w3.org/2000/svg" xmlns:xlink="http://www.w3.org/1999/xlink">
    <!-- Generator: Sketch 58 (84663) - https://sketch.com -->
    <title>ic_gif_24_filled</title>
    <desc>Created with Sketch.</desc>
    <g id="ðŸ”-Product-Icons" stroke="none" stroke-width="1" fill="none" fill-rule="evenodd">
        <g id="ic_gif_24_filled" fill="#212121">
            <path d="M18.75,3.50054297 C20.5449254,3.50054297 22,4.95561754 22,6.75054297 L22,17.2531195 C22,19.048045 20.5449254,20.5031195 18.75,20.5031195 L5.25,20.5031195 C3.45507456,20.5031195 2,19.048045 2,17.2531195 L2,6.75054297 C2,4.95561754 3.45507456,3.50054297 5.25,3.50054297 L18.75,3.50054297 Z M8.01459972,8.87193666 C6.38839145,8.87193666 5.26103525,10.2816525 5.26103525,11.9943017 C5.26103525,13.707564 6.38857781,15.1202789 8.01459972,15.1202789 C8.96156448,15.1202789 9.82606539,14.6343365 10.2024697,13.7442077 L10.2024697,13.7442077 L10.2115487,13.7219884 C10.2153865,13.7118489 10.2189681,13.7015836 10.2230353,13.6859367 L10.2230353,13.6859367 L10.2140353,13.7099367 L10.2290353,13.6639367 L10.2389164,13.6277539 L10.2479353,13.5718247 L10.2480353,13.5649367 L10.2480353,13.5619367 L10.2504833,13.5441874 L10.2517889,13.5165933 L10.2518215,11.9961937 L10.2450448,11.9038358 C10.2004046,11.6024516 9.94061961,11.3711937 9.62682145,11.3711937 L9.62682145,11.3711937 L8.62521827,11.3711937 L8.53286035,11.3779703 C8.23147615,11.4226106 8.00021827,11.6823956 8.00021827,11.9961937 L8.00021827,11.9961937 L8.00699487,12.0885517 C8.05163513,12.3899359 8.31142012,12.6211937 8.62521827,12.6211937 L8.62521827,12.6211937 L9.00103525,12.6209367 L9.00103525,13.3549367 L8.99484486,13.3695045 C8.80607251,13.6904125 8.44322427,13.8702789 8.01459972,13.8702789 C7.14873038,13.8702789 6.51103525,13.0713011 6.51103525,11.9943017 C6.51103525,10.9182985 7.14788947,10.1219367 8.01459972,10.1219367 C8.43601415,10.1219367 8.67582824,10.1681491 8.97565738,10.3121334 C9.28681641,10.4615586 9.6601937,10.3304474 9.80961888,10.0192884 C9.95904407,9.70812933 9.82793289,9.33475204 9.51677386,9.18532686 C9.03352891,8.95326234 8.61149825,8.87193666 8.01459972,8.87193666 Z M12.6289445,8.99393497 C12.2837665,8.99393497 12.0039445,9.273757 12.0039445,9.61893497 L12.0039445,9.61893497 L12.0039445,14.381065 L12.0107211,14.4734229 C12.0553614,14.7748072 12.3151463,15.006065 12.6289445,15.006065 C12.9741225,15.006065 13.2539445,14.726243 13.2539445,14.381065 L13.2539445,14.381065 L13.2539445,9.61893497 L13.2471679,9.52657705 C13.2025276,9.22519285 12.9427427,8.99393497 12.6289445,8.99393497 Z M15.6247564,8.99393489 L15.5323756,9.00039353 C15.230839,9.04399582 14.9986853,9.30298081 14.9970353,9.62093666 L14.9970353,9.62093666 L14.9975985,14.3649711 L15.0043751,14.4573291 C15.0490154,14.7587133 15.3088003,14.9899711 15.6225985,14.9899711 C15.9677765,14.9899711 16.2475985,14.7101491 16.2475985,14.3649711 L16.2475985,14.3649711 L16.2470353,13.2499367 L17.37,13.2504012 L17.4623579,13.2436246 C17.7637421,13.1989843 17.995,12.9391993 17.995,12.6254012 L17.995,12.6254012 L17.9882234,12.5330433 C17.9435831,12.2316591 17.6837982,12.0004012 17.37,12.0004012 L17.37,12.0004012 L16.2470353,11.9999367 L16.2470353,10.2449367 L17.6178421,10.2508313 L17.7102229,10.2443727 C18.0117595,10.2007704 18.2439132,9.94178541 18.2450001,9.62798912 C18.246188,9.28281321 17.9673338,9.00202673 17.6221579,9.00083497 L17.6221579,9.00083497 L15.6247564,8.99393489 Z M10.2314382,13.6597041 L10.2290353,13.6639367 L10.2230353,13.6859367 L10.2314382,13.6597041 Z" id="ðŸŽ¨-Color"></path>
        </g>
    </g>
</svg>