<svg width="20" height="20" viewBox="0 0 20 20" fill="none" xmlns="http://www.w3.org/2000/svg">
<path d="M10 3C8.34315 3 7 4.34315 7 6C7 6.80363 7.31598 7.53345 7.83048 8.07201C7.93421 8.18059 8 8.32193 8 8.47209C8 8.76365 7.76365 9 7.47209 9H3.42308C3.18942 9 3 9.18942 3 9.42308C3 11.9508 5.04916 14 7.57692 14H8.70287C8.75454 14.0891 8.81545 14.173 8.88494 14.2503C8.66507 14.4868 8.4597 14.7363 8.26501 15H7.57692C4.49687 15 2 12.5031 2 9.42308C2 8.63713 2.63713 8 3.42308 8H6.53513C6.19479 7.41165 6 6.72857 6 6C6 3.79086 7.79086 2 10 2C11.8638 2 13.4299 3.27477 13.874 5H15.8333C16.4777 5 17 5.52233 17 6.16667C17 7.17919 16.1792 8 15.1667 8H13.4649C13.3885 8.13198 13.3049 8.2592 13.2144 8.38109C13.5768 8.58416 13.8928 8.86028 14.1423 9.1895C13.7903 9.19449 13.4278 9.21609 13.0639 9.26158C12.9757 9.2726 12.8887 9.28516 12.8028 9.29923C12.6012 9.17414 12.3757 9.08392 12.1347 9.03696C11.9249 8.99608 11.75 8.82671 11.75 8.61294C11.75 8.48129 11.8178 8.35989 11.9226 8.28014C12.0073 8.21565 12.1087 8.13114 12.2026 8.03391L12.205 8.03428C12.478 7.73842 12.6923 7.38748 12.8293 7H15.1667C15.6269 7 16 6.6269 16 6.16667C16 6.07462 15.9254 6 15.8333 6H13C13 4.34315 11.6569 3 10 3Z" fill="#212121"/>
<path d="M15.6574 11.1539C14.9433 11.0046 14.1437 10.8922 13.3119 10.9962C11.7434 11.1922 10.9306 12.2691 10.4639 13.4326C10.3611 13.6889 10.07 13.8133 9.81373 13.7105C9.55744 13.6077 9.43302 13.3165 9.53583 13.0603C10.0691 11.7308 11.1064 10.2641 13.1879 10.0039C14.1811 9.87971 15.1071 10.0172 15.862 10.175C16.087 10.2221 16.3145 10.275 16.5186 10.3226C16.6443 10.3518 16.7612 10.379 16.8632 10.4015C17.1581 10.4666 17.361 10.5 17.4999 10.5C17.6732 10.5 17.8341 10.5897 17.9252 10.7371C18.0163 10.8845 18.0246 11.0686 17.9471 11.2236C17.8959 11.326 17.8122 11.4611 17.7286 11.5963L17.7124 11.6224C17.6169 11.7768 17.5055 11.9572 17.3883 12.1635C17.1535 12.5767 16.9013 13.0834 16.7277 13.6471C16.6938 13.7575 16.658 13.8848 16.6189 14.0243C16.4627 14.5809 16.2523 15.3302 15.8842 15.9606C15.646 16.3686 15.3275 16.7578 14.8877 17.0441C14.4434 17.3333 13.902 17.5 13.2499 17.5C12.1841 17.5 11.4222 16.939 10.9488 16.4221C10.7109 16.1623 10.5364 15.9043 10.4211 15.7114C10.4106 15.6937 10.4004 15.6764 10.3908 15.6598C9.78774 16.2711 9.32977 16.9587 8.94732 17.7236C8.82383 17.9706 8.52349 18.0707 8.2765 17.9472C8.02951 17.8237 7.9294 17.5234 8.0529 17.2764C9.11407 15.1541 10.7202 13.5663 13.842 12.5257C14.104 12.4383 14.3871 12.5799 14.4745 12.8419C14.5618 13.1039 14.4202 13.387 14.1582 13.4744C12.9067 13.8915 11.9358 14.3943 11.161 14.9838C11.1681 14.9959 11.175 15.0085 11.1817 15.0217C11.2024 15.0626 11.235 15.1238 11.2796 15.1985C11.3695 15.349 11.5049 15.5487 11.6863 15.7467C12.0515 16.1454 12.5657 16.5 13.2499 16.5C13.7228 16.5 14.0718 16.382 14.3421 16.206C14.617 16.0271 14.8373 15.7705 15.0207 15.4563C15.317 14.9489 15.4807 14.3699 15.6354 13.8227C15.6806 13.6625 15.7252 13.505 15.772 13.3528C15.9749 12.694 16.2644 12.1174 16.5188 11.6695C16.5761 11.5688 16.6319 11.474 16.6847 11.3861L16.6478 11.3781C16.5195 11.3498 16.3941 11.3205 16.266 11.2906C16.0757 11.2461 15.8791 11.2002 15.6574 11.1539Z" fill="#212121"/>
</svg>
