<svg width="24" height="24" viewBox="0 0 24 24" fill="none" xmlns="http://www.w3.org/2000/svg">
<path d="M16.9613 5.98651C17.0918 5.5934 16.8789 5.16892 16.4858 5.0384C16.0927 4.90789 15.6682 5.12078 15.5377 5.51389C15.3898 5.95938 15.2337 6.55385 15.1181 7.02636C14.3819 7.05155 13.6725 7.04441 13.0512 7.00192C12.638 6.97366 12.28 7.28575 12.2518 7.699C12.2235 8.11224 12.5356 8.47016 12.9489 8.49842C13.512 8.53693 14.1391 8.54883 14.7931 8.53567C14.6493 9.30134 14.5518 9.98483 14.4928 10.5995C13.2779 11.2419 12.4318 12.1041 11.9543 13.0119C11.3412 14.1776 11.2937 15.5683 12.1596 16.4547C12.7313 17.0391 13.5679 17.095 14.2889 16.9402C14.6945 16.8532 15.1145 16.6919 15.5292 16.466C15.5352 16.4817 15.5411 16.4972 15.5468 16.5125C15.6917 16.9005 16.1237 17.0977 16.5118 16.9529C16.8998 16.808 17.097 16.376 16.9522 15.9879C16.8956 15.8363 16.8385 15.6966 16.7818 15.5641C17.8051 14.6283 18.6965 13.2557 19.0671 11.5174C19.7047 11.8294 20.1363 12.3529 20.345 12.9166C20.5723 13.5303 20.5579 14.229 20.2479 14.8693C19.9403 15.5047 19.3154 16.1338 18.2327 16.5502C17.8461 16.6988 17.6532 17.1327 17.8018 17.5194C17.9505 17.906 18.3844 18.0989 18.771 17.9502C20.1576 17.4171 21.1017 16.548 21.598 15.523C22.0918 14.5031 22.116 13.3795 21.7517 12.3957C21.3384 11.2798 20.4512 10.3853 19.2474 9.97202C19.2492 9.89857 19.2501 9.82462 19.2501 9.75018C19.2501 9.33597 18.9143 9.00018 18.5001 9.00018C18.0948 9.00018 17.7646 9.32169 17.7506 9.72358C17.2257 9.71943 16.6655 9.79437 16.0784 9.9614C16.1416 9.50583 16.2261 9.00765 16.3354 8.46137C17.5197 8.37197 18.6989 8.20879 19.6716 7.98029C20.0748 7.88556 20.3249 7.48188 20.2302 7.07865C20.1354 6.67541 19.7317 6.42532 19.3285 6.52005C18.5605 6.70047 17.6387 6.83792 16.6905 6.9262C16.7765 6.59639 16.8719 6.25572 16.9613 5.98651ZM13.2819 13.7102C13.5082 13.2799 13.8817 12.8238 14.4278 12.4104C14.4449 12.9015 14.4933 13.3357 14.5646 13.7275C14.6589 14.2462 14.8005 14.7013 14.9508 15.0998C14.6455 15.2711 14.3192 15.3996 13.9741 15.4736C13.4893 15.5777 13.2868 15.462 13.2317 15.4057C12.9929 15.1612 12.8383 14.5535 13.2819 13.7102ZM17.5959 11.2226C17.3869 12.1893 16.8955 13.2447 16.1823 14.0708C16.1295 13.8871 16.0817 13.6863 16.0404 13.4591C15.9513 12.9695 15.9006 12.3672 15.9286 11.593C16.0381 11.551 16.1511 11.5106 16.2676 11.4721C16.7491 11.3132 17.1924 11.2353 17.5959 11.2226Z" fill="#212121"/>
<path d="M7.96084 6.53004C5.72117 5.87843 3.95773 6.68117 3.38512 6.99715C3.02245 7.19727 2.89069 7.65349 3.09081 8.01616C3.29093 8.37882 3.74715 8.51059 4.10982 8.31047C4.51469 8.08705 5.84606 7.47728 7.54098 7.97008C8.31403 8.19709 8.63905 8.60925 8.80538 9.02611C8.93783 9.35807 8.97952 9.71701 8.99259 10.0683C8.72336 9.99308 8.41199 9.91829 8.07049 9.85759C6.93793 9.65631 5.38792 9.59496 3.94794 10.2847C2.36169 11.0445 1.81748 12.601 2.04591 13.9817C2.27037 15.3384 3.26232 16.6483 4.84609 16.9333C6.2756 17.1906 7.65146 16.6774 8.60343 16.1719C8.74209 16.0983 8.87408 16.0236 8.9985 15.9496V16.2502C8.9985 16.6644 9.33429 17.0002 9.7485 17.0002C10.1627 17.0002 10.4985 16.6644 10.4985 16.2502L10.4985 10.4605C10.4988 10.0064 10.4993 9.22388 10.1986 8.47022C9.86774 7.64108 9.19434 6.89191 7.96246 6.53051L7.96084 6.53004ZM7.80802 11.3344C8.29139 11.4204 8.70564 11.5403 8.9985 11.6388V14.1448C8.96621 14.1693 8.93112 14.1955 8.89337 14.2231C8.6526 14.3993 8.3091 14.6298 7.89995 14.8471C7.05912 15.2936 6.0502 15.6259 5.11177 15.457C4.26739 15.3051 3.66714 14.5912 3.52579 13.7369C3.3884 12.9064 3.70477 12.0644 4.59594 11.6375C5.63338 11.1406 6.82165 11.1591 7.80802 11.3344Z" fill="#212121"/>
</svg>
