<svg width="20" height="20" viewBox="0 0 20 20" fill="none" xmlns="http://www.w3.org/2000/svg">
<path d="M7.08535 3C7.29127 2.4174 7.84689 2 8.5 2H11.5C12.1531 2 12.7087 2.4174 12.9146 3H14.5C15.3284 3 16 3.67157 16 4.5V9.20703C15.6777 9.11588 15.3434 9.05337 15 9.02242V4.5C15 4.22386 14.7761 4 14.5 4H12.9146C12.7087 4.5826 12.1531 5 11.5 5H8.5C7.84689 5 7.29127 4.5826 7.08535 4H5.5C5.22386 4 5 4.22386 5 4.5V16.5C5 16.7761 5.22386 17 5.5 17H9.59971C9.78261 17.3578 10.0035 17.6929 10.2572 18H5.5C4.67157 18 4 17.3284 4 16.5V4.5C4 3.67157 4.67157 3 5.5 3H7.08535ZM8.5 3C8.22386 3 8 3.22386 8 3.5C8 3.77614 8.22386 4 8.5 4H11.5C11.7761 4 12 3.77614 12 3.5C12 3.22386 11.7761 3 11.5 3H8.5ZM19 14.5C19 16.9853 16.9853 19 14.5 19C12.0147 19 10 16.9853 10 14.5C10 12.0147 12.0147 10 14.5 10C16.9853 10 19 12.0147 19 14.5ZM14.5 12C14.2239 12 14 12.2239 14 12.5V14.5C14 14.7761 14.2239 15 14.5 15C14.7761 15 15 14.7761 15 14.5V12.5C15 12.2239 14.7761 12 14.5 12ZM14.5 17.125C14.8452 17.125 15.125 16.8452 15.125 16.5C15.125 16.1548 14.8452 15.875 14.5 15.875C14.1548 15.875 13.875 16.1548 13.875 16.5C13.875 16.8452 14.1548 17.125 14.5 17.125Z" fill="#212121"/>
</svg>
