<svg width="24" height="24" viewBox="0 0 24 24" fill="none" xmlns="http://www.w3.org/2000/svg">
<path d="M18.25 7C18.25 7.69036 17.6904 8.25 17 8.25C16.3096 8.25 15.75 7.69036 15.75 7C15.75 6.30964 16.3096 5.75 17 5.75C17.6904 5.75 18.25 6.30964 18.25 7Z" fill="#212121"/>
<path d="M15.5 2.04999C11.8857 2.04999 8.94995 4.98577 8.94995 8.59999C8.94995 8.9872 9.00013 9.36035 9.06042 9.704C9.07822 9.80547 9.04566 9.89362 8.99119 9.94809L2.75541 16.1839C2.23968 16.6996 1.94995 17.3991 1.94995 18.1284V20.3C1.94995 21.2665 2.73345 22.05 3.69995 22.05H6.19995C7.16645 22.05 7.94995 21.2665 7.94995 20.3V19.05H9.69995C10.3903 19.05 10.95 18.4903 10.95 17.8V16.05H12.7C13.3748 16.05 13.9248 15.5151 13.9491 14.8462C14.4458 14.974 14.9696 15.05 15.5 15.05C19.1142 15.05 22.0499 12.1142 22.0499 8.49999C22.0499 4.86884 19.097 2.04999 15.5 2.04999ZM10.45 8.59999C10.45 5.8142 12.7142 3.54999 15.5 3.54999C18.3029 3.54999 20.5499 5.73114 20.5499 8.49999C20.5499 11.2858 18.2857 13.55 15.5 13.55C14.8206 13.55 14.1213 13.3789 13.4954 13.1106C13.2637 13.0113 12.9976 13.0351 12.7871 13.1739C12.5766 13.3126 12.45 13.5479 12.45 13.8V14.55H10.7C10.0096 14.55 9.44995 15.1096 9.44995 15.8V17.55H7.69995C7.00959 17.55 6.44995 18.1096 6.44995 18.8V20.3C6.44995 20.4381 6.33802 20.55 6.19995 20.55H3.69995C3.56188 20.55 3.44995 20.4381 3.44995 20.3V18.1284C3.44995 17.7969 3.58165 17.479 3.81607 17.2445L10.0518 11.0087C10.4702 10.5904 10.6356 10.002 10.5379 9.44479C10.4842 9.13883 10.45 8.86239 10.45 8.59999Z" fill="#212121"/>
</svg>
