<svg width="16" height="16" viewBox="0 0 16 16" fill="none" xmlns="http://www.w3.org/2000/svg">
<path d="M2 5C2 4.17157 2.67157 3.5 3.5 3.5H9.5C10.3284 3.5 11 4.17157 11 5V6.02242C11.1647 6.00758 11.3315 6 11.5 6C11.9467 6 12.381 6.05326 12.7968 6.15376L14 5.25407V6.59971C14.3578 6.78261 14.6929 7.00353 15 7.25716V4.75496C15 4.13743 14.2954 3.78451 13.8009 4.15432L12 5.50093V5C12 3.61929 10.8807 2.5 9.5 2.5H3.5C2.11929 2.5 1 3.61929 1 5V11C1 12.3807 2.11929 13.5 3.5 13.5H6.37494C6.25003 13.1801 6.15419 12.8457 6.09069 12.5H3.5C2.67157 12.5 2 11.8284 2 11V5ZM7 11.5C7 13.9853 9.01472 16 11.5 16C13.9853 16 16 13.9853 16 11.5C16 9.01472 13.9853 7 11.5 7C9.01472 7 7 9.01472 7 11.5ZM8 11.5C8 9.567 9.567 8 11.5 8C12.2862 8 13.0118 8.2592 13.5961 8.69681L8.69681 13.5961C8.2592 13.0118 8 12.2862 8 11.5ZM11.5 15C10.7138 15 9.9882 14.7408 9.40391 14.3032L14.3032 9.40391C14.7408 9.9882 15 10.7138 15 11.5C15 13.433 13.433 15 11.5 15Z" fill="#212121"/>
</svg>
