<svg width="20" height="20" viewBox="0 0 20 20" fill="none" xmlns="http://www.w3.org/2000/svg">
<path d="M13 6.5C13 5.11929 11.8807 4 10.5 4H4.5C3.11929 4 2 5.11929 2 6.5V13.5C2 14.8807 3.11929 16 4.5 16H9.20703C9.07217 15.5232 9 15.02 9 14.5C9 11.9824 10.6915 9.85996 13 9.20703V6.5ZM18 6.19315V10.2572C17.0491 9.47182 15.8296 9 14.5 9C14.3315 9 14.1647 9.00758 14 9.02242V7.93082L16.7692 5.61756C17.2575 5.20962 18 5.55685 18 6.19315ZM10 14.5C10 16.9853 12.0147 19 14.5 19C16.9853 19 19 16.9853 19 14.5C19 12.0147 16.9853 10 14.5 10C12.0147 10 10 12.0147 10 14.5ZM11 14.5C11 12.567 12.567 11 14.5 11C15.2862 11 16.0118 11.2592 16.5961 11.6968L11.6968 16.5961C11.2592 16.0118 11 15.2862 11 14.5ZM14.5 18C13.7138 18 12.9882 17.7408 12.4039 17.3032L17.3032 12.4039C17.7408 12.9882 18 13.7138 18 14.5C18 16.433 16.433 18 14.5 18Z" fill="#212121"/>
</svg>
