<svg width="20" height="20" viewBox="0 0 20 20" fill="none" xmlns="http://www.w3.org/2000/svg">
<path d="M6.75 9C8.54493 9 10 7.54493 10 5.75C10 3.95507 8.54493 2.5 6.75 2.5C4.95507 2.5 3.5 3.95507 3.5 5.75C3.5 7.54493 4.95507 9 6.75 9ZM9 12.5C9 11.3966 9.71489 10.4601 10.7068 10.1285C10.487 10.0454 10.2488 10 10 10H3.5C2.39543 10 1.5 10.8954 1.5 12C1.5 12 1.5 16 6.75 16C7.64685 16 8.39049 15.8833 9.00709 15.6897C9.00239 15.6271 9 15.5638 9 15.5V12.5ZM17 6.5C17 7.88071 15.8807 9 14.5 9C13.1193 9 12 7.88071 12 6.5C12 5.11929 13.1193 4 14.5 4C15.8807 4 17 5.11929 17 6.5ZM10 12.5C10 11.6716 10.6716 11 11.5 11H17.5C18.3284 11 19 11.6716 19 12.5V15.5C19 16.3284 18.3284 17 17.5 17H11.5C10.6716 17 10 16.3284 10 15.5V12.5ZM11 12.5V13.5C11.8284 13.5 12.5 12.8284 12.5 12H11.5C11.5 12.2761 11.2761 12.5 11 12.5ZM18 13.5V12.5C17.7239 12.5 17.5 12.2761 17.5 12H16.5C16.5 12.8284 17.1716 13.5 18 13.5ZM16.5 16H17.5C17.5 15.7239 17.7239 15.5 18 15.5V14.5C17.1716 14.5 16.5 15.1716 16.5 16ZM11 14.5V15.5C11.2761 15.5 11.5 15.7239 11.5 16H12.5C12.5 15.1716 11.8284 14.5 11 14.5ZM14.5 15.5C15.3284 15.5 16 14.8284 16 14C16 13.1716 15.3284 12.5 14.5 12.5C13.6716 12.5 13 13.1716 13 14C13 14.8284 13.6716 15.5 14.5 15.5Z" fill="#212121"/>
</svg>
