<svg width="20" height="20" viewBox="0 0 20 20" fill="none" xmlns="http://www.w3.org/2000/svg">
<path d="M5.25 2C3.45507 2 2 3.45507 2 5.25V8.25C2 8.66421 2.33579 9 2.75 9C3.16421 9 3.5 8.66421 3.5 8.25V5.25C3.5 4.2835 4.2835 3.5 5.25 3.5H8.25C8.66421 3.5 9 3.16421 9 2.75C9 2.33579 8.66421 2 8.25 2H5.25ZM11.75 2C11.3358 2 11 2.33579 11 2.75C11 3.16421 11.3358 3.5 11.75 3.5H14.75C15.7165 3.5 16.5 4.2835 16.5 5.25V8.25C16.5 8.66421 16.8358 9 17.25 9C17.6642 9 18 8.66421 18 8.25V5.25C18 3.45507 16.5449 2 14.75 2H11.75ZM2.75 11C3.16421 11 3.5 11.3358 3.5 11.75V14.75C3.5 15.7165 4.2835 16.5 5.25 16.5H8.25C8.66421 16.5 9 16.8358 9 17.25C9 17.6642 8.66421 18 8.25 18H5.25C3.45507 18 2 16.5449 2 14.75V11.75C2 11.3358 2.33579 11 2.75 11ZM18 11.75C18 11.3358 17.6642 11 17.25 11C16.8358 11 16.5 11.3358 16.5 11.75V14.75C16.5 15.7165 15.7165 16.5 14.75 16.5H11.75C11.3358 16.5 11 16.8358 11 17.25C11 17.6642 11.3358 18 11.75 18H14.75C16.5449 18 18 16.5449 18 14.75V11.75Z" fill="#212121"/>
</svg>
