<svg width="16" height="16" viewBox="0 0 16 16" fill="none" xmlns="http://www.w3.org/2000/svg">
<path d="M1 5.5C1 4.11929 2.11929 3 3.5 3H7.5C8.88071 3 10 4.11929 10 5.5V10.5C10 11.8807 8.88071 13 7.5 13H3.5C2.11929 13 1 11.8807 1 10.5V5.5ZM13.0355 11.7782L10.8999 10.3036C10.9129 10.2115 10.9197 10.1173 10.9197 10.0215V5.98047C10.9197 5.88463 10.9129 5.79037 10.8999 5.69813L13.0355 4.22353C13.8647 3.65101 14.9958 4.24453 14.9958 5.25216V10.7496C14.9958 11.7572 13.8647 12.3507 13.0355 11.7782Z" fill="#212121"/>
</svg>
