<svg width="48" height="48" viewBox="0 0 48 48" fill="none" xmlns="http://www.w3.org/2000/svg">
<path d="M22.5 24L38.7332 12.6745C40.954 11.1251 44 12.7141 44 15.4219V32.5781C44 35.2859 40.954 36.8749 38.7332 35.3255L22.5 24Z" fill="url(#paint0_radial_378174_9742)"/>
<path d="M22.5 24L38.7332 12.6745C40.954 11.1251 44 12.7141 44 15.4219V32.5781C44 35.2859 40.954 36.8749 38.7332 35.3255L22.5 24Z" fill="url(#paint1_linear_378174_9742)" fill-opacity="0.75"/>
<path d="M4 16.25C4 12.7982 6.79822 10 10.25 10H24.75C28.2018 10 31 12.7982 31 16.25V31.75C31 35.2018 28.2018 38 24.75 38H10.25C6.79822 38 4 35.2018 4 31.75V16.25Z" fill="url(#paint2_radial_378174_9742)"/>
<path opacity="0.5" d="M8 30C8 27.7909 9.79086 26 12 26H22C24.2091 26 26 27.7909 26 30C26 32.2091 24.2091 34 22 34H12C9.79086 34 8 32.2091 8 30Z" fill="url(#paint3_linear_378174_9742)"/>
<path d="M12.0257 28C10.907 28 10 28.9218 10 30.0588C10 31.1959 10.907 32.1176 12.0257 32.1176H16.0772C17.196 32.1176 18.1029 31.1959 18.1029 30.0588C18.1029 28.9218 17.196 28 16.0772 28H12.0257Z" fill="#BABAFF"/>
<path d="M21.9743 32.1176C23.0931 32.1176 24 31.1959 24 30.0588C24 28.9218 23.0931 28 21.9743 28C20.8555 28 19.9486 28.9218 19.9486 30.0588C19.9486 31.1959 20.8555 32.1176 21.9743 32.1176Z" fill="#BABAFF"/>
<defs>
<radialGradient id="paint0_radial_378174_9742" cx="0" cy="0" r="1" gradientUnits="userSpaceOnUse" gradientTransform="translate(33.6369 8.62064) rotate(71.8504) scale(33.2683 65.6431)">
<stop offset="0.0810009" stop-color="#F08AF4"/>
<stop offset="0.393858" stop-color="#9C6CFE"/>
<stop offset="1" stop-color="#4E44DB"/>
</radialGradient>
<linearGradient id="paint1_linear_378174_9742" x1="27.5342" y1="24" x2="43.9791" y2="23.4137" gradientUnits="userSpaceOnUse">
<stop stop-color="#312A9A"/>
<stop offset="1" stop-color="#312A9A" stop-opacity="0"/>
</linearGradient>
<radialGradient id="paint2_radial_378174_9742" cx="0" cy="0" r="1" gradientUnits="userSpaceOnUse" gradientTransform="translate(-0.908359 11.1665) rotate(43.6494) scale(42.932 90.1083)">
<stop stop-color="#F08AF4"/>
<stop offset="0.341244" stop-color="#9C6CFE"/>
<stop offset="1" stop-color="#4E44DB"/>
</radialGradient>
<linearGradient id="paint3_linear_378174_9742" x1="7.59101" y1="25.9999" x2="10.308" y2="36.6882" gradientUnits="userSpaceOnUse">
<stop stop-color="#3B148A"/>
<stop offset="1" stop-color="#4B20A0"/>
</linearGradient>
</defs>
</svg>
