<svg width="28" height="28" viewBox="0 0 28 28" fill="none" xmlns="http://www.w3.org/2000/svg">
<path d="M6.52712 6.44233C7.00743 5.55375 7.93622 5 8.94631 5H19.0581C20.0682 5 20.997 5.55375 21.4773 6.44233L24.9407 12.8496C24.4226 12.6247 23.8508 12.5 23.25 12.5H4.75C4.1514 12.5 3.5817 12.6238 3.06509 12.8471L6.52712 6.44233ZM23.25 23C24.7688 23 26 21.7688 26 20.25V16.75C26 15.2312 24.7688 14 23.25 14H4.75C3.23122 14 2 15.2312 2 16.75V20.25C2 21.7688 3.23122 23 4.75 23H23.25ZM20.25 18.5C20.25 17.8138 20.8029 17.2568 21.4875 17.2501H21.5125C22.1971 17.2568 22.75 17.8138 22.75 18.5C22.75 19.1904 22.1904 19.75 21.5 19.75C20.8096 19.75 20.25 19.1904 20.25 18.5Z" fill="#212121"/>
</svg>
