<svg width="48" height="48" viewBox="0 0 48 48" fill="none" xmlns="http://www.w3.org/2000/svg">
<path d="M46 42.001C45.9995 44.2096 44.2087 46.0008 42 46.001H28C25.7913 46.0008 24.0005 44.2096 24 42.001V33.8633L34.25 39.7812C34.714 40.0489 35.2861 40.049 35.75 39.7812L46 33.8633V42.001ZM23.5293 28C22.5788 29.0616 22 30.4629 22 32V42C22 42.6996 22.1207 43.3708 22.3408 43.9951C22.2274 43.9963 22.1138 44 22 44C17.7861 44 13.8488 43.163 10.9199 41.3799C7.94161 39.5666 6 36.7554 6 33V32.249C6.00002 29.9014 7.90338 28 10.25 28H23.5293ZM42 28.001C44.0623 28.0011 45.7591 29.5616 45.9756 31.5664L35 37.9043L24.0234 31.5664C24.2398 29.5615 25.9377 28.0011 28 28.001H42ZM22 4C27.5228 4 32 8.47715 32 14C32 19.5228 27.5228 24 22 24C16.4772 24 12 19.5228 12 14C12 8.47715 16.4772 4 22 4Z" fill="#212121"/>
</svg>
