<svg width="24" height="24" viewBox="0 0 24 24" fill="none" xmlns="http://www.w3.org/2000/svg">
<path d="M10.9999 15.5002C10.9999 14.9374 11.1859 14.418 11.4997 14.0002H5.25229C4.01027 14.0002 3.00342 15.007 3.00342 16.2491V16.8267C3.00342 17.7195 3.32194 18.583 3.9017 19.2619C5.468 21.0962 7.85401 22.0013 10.9999 22.0013L11.0501 22.0013C11.0172 21.8394 10.9999 21.6718 10.9999 21.5002L10.9999 20.5013C8.26157 20.5013 6.29569 19.7555 5.04239 18.2878C4.69453 17.8805 4.50342 17.3624 4.50342 16.8267V16.2491C4.50342 15.8355 4.8387 15.5002 5.25229 15.5002H10.9999Z" fill="#212121"/>
<path d="M10.9999 2.00488C13.7613 2.00488 15.9999 4.24346 15.9999 7.00488C15.9999 9.76631 13.7613 12.0049 10.9999 12.0049C8.23845 12.0049 5.99988 9.76631 5.99988 7.00488C5.99988 4.24346 8.23845 2.00488 10.9999 2.00488ZM10.9999 3.50488C9.06688 3.50488 7.49988 5.07189 7.49988 7.00488C7.49988 8.93788 9.06688 10.5049 10.9999 10.5049C12.9329 10.5049 14.4999 8.93788 14.4999 7.00488C14.4999 5.07189 12.9329 3.50488 10.9999 3.50488Z" fill="#212121"/>
<path d="M17.5098 18.9271L12.0189 15.7241C12.1534 14.7502 12.9891 14.0002 14 14.0002H21C22.0948 14.0002 22.9841 14.8799 22.9998 15.9709L17.5098 18.9271Z" fill="#212121"/>
<path d="M17.737 19.9405L23 17.1066V21.0002C23 22.1048 22.1046 23.0002 21 23.0002H14C12.8954 23.0002 12 22.1048 12 21.0002V16.8708L17.2481 19.9321C17.3985 20.0199 17.5837 20.023 17.737 19.9405Z" fill="#212121"/>
</svg>
