<svg width="20" height="20" viewBox="0 0 20 20" fill="none" xmlns="http://www.w3.org/2000/svg">
<path d="M2.99609 5.5C2.99609 4.11929 4.11538 3 5.49609 3H7.99609V5.5C7.99609 6.32843 8.66767 7 9.49609 7H16.9961V14.5C16.9961 15.8807 15.8768 17 14.4961 17H11.9146C11.8424 16.7953 11.7244 16.6031 11.5607 16.4393L9.56144 14.4401C9.84257 13.8527 10 13.1947 10 12.5C10 10.0147 7.98528 8 5.5 8C4.57324 8 3.71192 8.28015 2.99609 8.76039V5.5ZM8.99609 5.5V3H14.4961C15.8768 3 16.9961 4.11929 16.9961 5.5V6H9.49609C9.21995 6 8.99609 5.77614 8.99609 5.5ZM5.5 16C6.2862 16 7.01185 15.7408 7.59615 15.3031L10.1464 17.8535C10.3417 18.0488 10.6583 18.0488 10.8535 17.8535C11.0488 17.6583 11.0488 17.3417 10.8536 17.1464L8.30324 14.596C8.74082 14.0117 9 13.2861 9 12.5C9 10.567 7.433 9 5.5 9C3.567 9 2 10.567 2 12.5C2 14.433 3.567 16 5.5 16ZM5.5 15C4.11929 15 3 13.8807 3 12.5C3 11.1193 4.11929 10 5.5 10C6.88071 10 8 11.1193 8 12.5C8 13.8807 6.88071 15 5.5 15Z" fill="#212121"/>
</svg>
