<?xml version="1.0" encoding="UTF-8"?>
<svg width="48px" height="48px" viewBox="0 0 48 48" version="1.1" xmlns="http://www.w3.org/2000/svg" xmlns:xlink="http://www.w3.org/1999/xlink">
    <!-- Generator: Sketch 59.1 (86144) - https://sketch.com -->
    <title>ic_weather_snowflake_48_regular</title>
    <desc>Created with Sketch.</desc>
    <g id="ðŸ”-Product-Icons" stroke="none" stroke-width="1" fill="none" fill-rule="evenodd">
        <g id="ic_weather_snowflake_48_regular" fill="#212121" fill-rule="nonzero">
            <path d="M24.2593832,4.04989833 C24.9065918,4.04989833 25.4388293,4.54196888 25.5027295,5.17231345 L25.5091603,5.30012119 L25.5077309,13.0748983 L30.6291219,8.5765087 C31.1477427,8.12085107 31.9375513,8.17189274 32.3932089,8.69051346 C32.8488666,9.20913418 32.7978249,9.99894283 32.2792042,10.4546005 L25.5087309,16.4028983 L25.5057309,23.0008983 L32.1107309,23.0008983 L38.061364,16.2329456 C38.4868188,15.7490529 39.2032095,15.6725782 39.7183617,16.0351507 L39.825492,16.1195764 C40.3093847,16.5450312 40.3858593,17.2614219 40.0232869,17.7765741 L39.9388612,17.8837044 L35.4397309,22.9998983 L43.2125083,23.0008606 C43.859717,23.0008184 44.3921137,23.4926585 44.4561351,24.1229744 L44.4625897,24.2507792 C44.4625897,24.8979879 43.9707865,25.4303451 43.3404753,25.4943986 L43.212671,25.5008606 L35.4347309,25.5008983 L39.934564,30.6232894 C40.3598444,31.1073354 40.3437335,31.8276162 39.9180374,32.2919688 L39.8205592,32.3873764 C39.3365132,32.8126568 38.6162324,32.7965459 38.1518797,32.3708498 L38.0564722,32.2733716 L32.1067309,25.5018983 L25.5047309,25.5008983 L25.5037309,32.1008983 L32.2792042,38.0541823 C32.7632502,38.4794628 32.8399829,39.1958259 32.4775961,39.7111087 L32.393209,39.8182693 C31.9679285,40.3023153 31.2515654,40.379048 30.7362826,40.0166612 L30.629122,39.9322741 L25.5037309,35.4288983 L25.502402,43.20698 C25.5022866,43.8541887 25.010317,44.386318 24.3799855,44.450306 L24.2521791,44.4567571 C23.6049704,44.4567571 23.0727329,43.9646866 23.0088328,43.334342 L23.002402,43.2065343 L23.0027309,35.4348983 L17.889537,39.9319768 C17.3710804,40.3878212 16.5812535,40.3370641 16.125409,39.8186076 C15.6695646,39.300151 15.7203217,38.5103241 16.2387782,38.0544796 L23.0037309,32.1058983 L23.0047309,25.5018983 L16.8617558,25.5030057 C16.8370739,25.5376587 16.8103931,25.5713877 16.7817036,25.6040416 L10.4602093,32.7990443 C10.0045517,33.317665 9.21474303,33.3687067 8.69612231,32.9130491 C8.17750159,32.4573914 8.12645992,31.6675828 8.58211755,31.1489621 L13.5427309,25.5018983 L5.3058123,25.5033277 C4.65860361,25.5033699 4.1262069,25.0115298 4.06218547,24.3812139 L4.05573095,24.2534091 C4.05573095,23.6062004 4.54753411,23.0738432 5.17784527,23.0097897 L5.30564959,23.0033277 L12.6137309,23.0028983 L8.5816487,18.4085049 C8.12628596,17.8896252 8.1777766,17.0998457 8.69665626,16.644483 C9.21553592,16.1891202 10.0053154,16.2406109 10.4606782,16.7594905 L15.9397309,23.0018983 L23.0057309,23.0018983 L23.0067309,16.3998983 L16.2387782,10.4497087 C15.7548854,10.0242539 15.6784108,9.30786315 16.0409832,8.79271094 L16.125409,8.68558072 C16.5508638,8.20168797 17.2672545,8.12521335 17.7824067,8.48778578 L17.8895369,8.57221151 L23.0077309,13.0718983 L23.0091603,5.29967547 C23.009268,4.69561404 23.4378354,4.19179949 24.00746,4.07528432 L24.1315768,4.05634944 L24.2593832,4.04989833 Z" id="ðŸŽ¨-Color"></path>
        </g>
    </g>
</svg>