<svg width="20" height="20" viewBox="0 0 20 20" fill="none" xmlns="http://www.w3.org/2000/svg">
<path d="M10 6.5V2H5.5C4.67157 2 4 2.67157 4 3.5V8.17071C4.31278 8.06015 4.64936 8 5 8C5.54477 8 6.05845 8.14611 6.50073 8.40196C7.39482 8.91916 8 9.88832 8 11C8 11.769 7.71041 12.4698 7.23591 13H7.5C8.88071 13 10 14.1193 10 15.5C10 16.4549 9.72984 17.3039 9.24908 18H14.5C15.3284 18 16 17.3284 16 16.5V8H11.5C10.6716 8 10 7.32843 10 6.5ZM11 6.5V2.25L15.75 7H11.5C11.2239 7 11 6.77614 11 6.5ZM7 11C7 10.2597 6.5978 9.61337 6 9.26756C5.70583 9.09739 5.36429 9 5 9C3.89543 9 3 9.89543 3 11C3 12.1046 3.89543 13 5 13C5.36429 13 5.70583 12.9026 6 12.7324C6.5978 12.3866 7 11.7403 7 11ZM1 15.5C1 15.672 1.0109 15.8388 1.03211 16C1.07973 16.3621 1.1793 16.6964 1.324 17C1.53288 17.4383 1.83578 17.8127 2.21215 18.1148C2.95342 18.7098 3.94692 19 5 19C6.05308 19 7.04658 18.7098 7.78785 18.1148C8.54103 17.5103 9 16.6161 9 15.5C9 14.6716 8.32843 14 7.5 14L2.49998 14C1.67156 14 1 14.6716 1 15.5Z" fill="#212121"/>
</svg>
