<svg width="20" height="20" viewBox="0 0 20 20" fill="none" xmlns="http://www.w3.org/2000/svg">
<path d="M7.79337 8.50109L2.14645 2.85416C1.95118 2.6589 1.95118 2.34232 2.14645 2.14706C2.34171 1.95179 2.65829 1.95179 2.85355 2.14706L17.8536 17.1471C18.0488 17.3423 18.0488 17.6589 17.8536 17.8542C17.6583 18.0494 17.3417 18.0494 17.1464 17.8542L11.5005 12.2082L7.14755 16.5611C6.86624 16.8424 6.48471 17.0005 6.08689 17.0005H5.6055L3.35675 17.9835C2.52695 18.3463 1.68085 17.5073 2.03656 16.6745L3.0011 14.4162V13.9147C3.0011 13.5169 3.15913 13.1353 3.44044 12.854L7.79337 8.50109ZM10.7934 11.5011L8.50048 9.2082L4.14754 13.5611C4.05378 13.6549 4.0011 13.7821 4.0011 13.9147V14.5185C4.0011 14.586 3.98743 14.6528 3.96091 14.7149L2.95619 17.0673L5.3007 16.0423C5.36386 16.0147 5.43205 16.0005 5.50098 16.0005H6.08689C6.21949 16.0005 6.34667 15.9478 6.44044 15.854L10.7934 11.5011ZM12.7938 9.50062L12.2081 10.0864L12.9152 10.7935L13.501 10.2077L13.8543 10.5611C14.4401 11.1468 15.3898 11.1468 15.9756 10.5611L16.5614 9.97528C17.1472 9.38949 17.1472 8.43974 16.5614 7.85396L16.208 7.50061L17.2474 6.46119C18.2711 5.4375 18.2711 3.77778 17.2474 2.75409C16.2237 1.7304 14.564 1.73041 13.5403 2.75411L12.5009 3.7935L12.1499 3.44243C11.5641 2.85663 10.6143 2.85663 10.0285 3.44242L9.44276 4.0282C8.85697 4.61399 8.85697 5.56373 9.44276 6.14952L9.79385 6.50061L9.20808 7.08638L9.91519 7.79349L10.501 7.20772L12.7938 9.50062ZM14.2474 3.46121C14.8806 2.82804 15.9072 2.82803 16.5403 3.4612C17.1735 4.09436 17.1735 5.12092 16.5403 5.75409L15.1474 7.14706C14.9521 7.34232 14.9521 7.6589 15.1474 7.85416L15.8543 8.56106C16.0495 8.75633 16.0495 9.07291 15.8543 9.26817L15.2685 9.85396C15.0732 10.0492 14.7567 10.0492 14.5614 9.85396L10.1499 5.44241C9.9546 5.24715 9.9546 4.93057 10.1499 4.73531L10.7356 4.14952C10.9309 3.95426 11.2475 3.95426 11.4428 4.14953L12.1474 4.85416C12.2412 4.94793 12.3683 5.00061 12.5009 5.00061C12.6335 5.00061 12.7607 4.94793 12.8545 4.85416L14.2474 3.46121Z" fill="#212121"/>
</svg>
