<svg width="20" height="20" viewBox="0 0 20 20" fill="none" xmlns="http://www.w3.org/2000/svg">
<path d="M7.08535 3C7.29127 2.4174 7.84689 2 8.5 2H11.5C12.1531 2 12.7087 2.4174 12.9146 3H14.5C15.3284 3 16 3.67157 16 4.5V10H12C10.3431 10 9 11.3431 9 13V17C9 17.3506 9.06015 17.6872 9.1707 18H5.5C4.67157 18 4 17.3284 4 16.5V4.5C4 3.67157 4.67157 3 5.5 3H7.08535ZM8.5 3C8.22386 3 8 3.22386 8 3.5C8 3.77614 8.22386 4 8.5 4H11.5C11.7761 4 12 3.77614 12 3.5C12 3.22386 11.7761 3 11.5 3H8.5ZM12 11C10.8954 11 10 11.8954 10 13V17C10 18.1046 10.8954 19 12 19H17C18.1046 19 19 18.1046 19 17V13C19 11.8954 18.1046 11 17 11H12ZM12 16.5C12 16.2239 12.2238 16 12.5 16H16.5C16.7762 16 17 16.2239 17 16.5C17 16.7761 16.7762 17 16.5 17H12.5C12.2238 17 12 16.7761 12 16.5ZM12 13.5C12 13.2239 12.2238 13 12.5 13H16.5C16.7762 13 17 13.2239 17 13.5C17 13.7761 16.7762 14 16.5 14H12.5C12.2238 14 12 13.7761 12 13.5Z" fill="#212121"/>
</svg>
