<svg width="20" height="20" viewBox="0 0 20 20" fill="none" xmlns="http://www.w3.org/2000/svg">
<path d="M4 4C4 2.89543 4.89543 2 6 2H14C15.1046 2 16 2.89543 16 4V9.20703C15.5232 9.07217 15.02 9 14.5 9C11.4624 9 9 11.4624 9 14.5C9 15.02 9.07217 15.5232 9.20703 16H5C5 16.5523 5.44772 17 6 17H9.59971C9.78261 17.3578 10.0035 17.6929 10.2572 18H6C4.89543 18 4 17.1046 4 16V4ZM14.5 19C16.9853 19 19 16.9853 19 14.5C19 12.0147 16.9853 10 14.5 10C12.0147 10 10 12.0147 10 14.5C10 16.9853 12.0147 19 14.5 19ZM14.5 12C14.7761 12 15 12.2239 15 12.5V14H16.5C16.7761 14 17 14.2239 17 14.5C17 14.7761 16.7761 15 16.5 15H15V16.5C15 16.7761 14.7761 17 14.5 17C14.2239 17 14 16.7761 14 16.5V15H12.5C12.2239 15 12 14.7761 12 14.5C12 14.2239 12.2239 14 12.5 14H14V12.5C14 12.2239 14.2239 12 14.5 12ZM6.75 4C6.33579 4 6 4.33579 6 4.75V5.25C6 5.66421 6.33579 6 6.75 6H13.25C13.6642 6 14 5.66421 14 5.25V4.75C14 4.33579 13.6642 4 13.25 4H6.75Z" fill="#212121"/>
</svg>
