<svg width="20" height="20" viewBox="0 0 20 20" fill="none" xmlns="http://www.w3.org/2000/svg">
<path d="M10 1.99998C14.4182 1.99998 17.9999 5.58175 18 9.99998C18 14.4183 14.4183 18 10 18C5.58172 18 2 14.4183 2 9.99998C2.00003 7.54484 3.10653 5.34894 4.84766 3.88182C5.32635 3.4785 5.99973 3.85558 6 4.48143C6 4.7315 5.88262 4.96612 5.69531 5.13182C4.3494 6.32256 3.50003 8.06163 3.5 9.99998C3.5 13.5898 6.41015 16.5 10 16.5C13.5899 16.5 16.5 13.5898 16.5 9.99998C16.4999 6.66387 13.9865 3.91583 10.75 3.54393V4.74998C10.75 5.16419 10.4142 5.49998 10 5.49998C9.58579 5.49998 9.25 5.16419 9.25 4.74998V2.7119C9.25 2.3286 9.54251 2.00361 9.92578 1.99998C9.95049 1.99975 9.97523 1.99998 10 1.99998ZM6.04004 6.94334C5.64756 6.38487 6.26196 5.7112 6.83105 5.97459L6.94336 6.04002L9.53613 7.87986C9.98611 8.20324 10.4057 8.50862 10.7324 8.75193C11.0415 8.98214 11.3087 9.18662 11.415 9.29295C12.0005 9.87876 12.0007 10.8293 11.415 11.415C10.8294 12.0006 9.87876 12.0005 9.29297 11.415C9.18664 11.3087 8.98216 11.0415 8.75195 10.7324C8.50864 10.4057 8.20326 9.98609 7.87988 9.53611C7.23257 8.63537 6.506 7.60571 6.04004 6.94334Z" fill="#212121"/>
</svg>
