<svg width="20" height="20" viewBox="0 0 20 20" fill="none" xmlns="http://www.w3.org/2000/svg">
<path d="M10.8311 2.04296C14.859 2.45916 17.9998 5.86241 18 10C18 14.4183 14.4183 18 10 18C5.58172 18 2 14.4183 2 10C2.00014 7.72097 2.95398 5.66312 4.48242 4.20703C4.78231 3.92141 5.25728 3.93357 5.54297 4.23339C5.82839 4.53317 5.81704 5.00727 5.51758 5.29296C4.27395 6.47773 3.50014 8.14817 3.5 10C3.5 13.5898 6.41015 16.5 10 16.5C13.5899 16.5 16.5 13.5898 16.5 10C16.4998 6.63906 13.9481 3.87311 10.6768 3.53515C10.2647 3.4926 9.96526 3.12393 10.0078 2.71191C10.0505 2.30002 10.4191 2.00043 10.8311 2.04296ZM6.04004 6.94335C5.64758 6.38488 6.26197 5.71122 6.83105 5.9746L6.94336 6.04003C8.20984 6.93873 9.48683 7.82427 10.7324 8.75195C11.0415 8.98215 11.3087 9.18663 11.415 9.29296C12.0005 9.87878 12.0007 10.8294 11.415 11.415C10.8294 12.0007 9.87876 12.0005 9.29297 11.415C9.18663 11.3087 8.98215 11.0415 8.75195 10.7324C8.02158 9.75175 6.73878 7.93662 6.04004 6.94335Z" fill="#212121"/>
</svg>
