<svg width="48" height="48" viewBox="0 0 48 48" fill="none" xmlns="http://www.w3.org/2000/svg">
<path d="M12.25 6C8.79822 6 6 8.79822 6 12.25V35.75C6 39.2018 8.79822 42 12.25 42H35.75C39.2018 42 42 39.2018 42 35.75V12.25C42 8.79822 39.2018 6 35.75 6H12.25ZM8.5 12.25C8.5 10.1789 10.1789 8.5 12.25 8.5H35.75C37.8211 8.5 39.5 10.1789 39.5 12.25V35.75C39.5 37.8211 37.8211 39.5 35.75 39.5H12.25C10.1789 39.5 8.5 37.8211 8.5 35.75V12.25ZM24 14C24.6904 14 25.25 14.5596 25.25 15.25V22.75H32.75C33.4404 22.75 34 23.3096 34 24C34 24.6904 33.4404 25.25 32.75 25.25H25.25V32.75C25.25 33.4404 24.6904 34 24 34C23.3096 34 22.75 33.4404 22.75 32.75V25.25H15.25C14.5596 25.25 14 24.6904 14 24C14 23.3096 14.5596 22.75 15.25 22.75H22.75V15.25C22.75 14.5596 23.3096 14 24 14Z" fill="#212121"/>
</svg>
