<svg width="16" height="16" viewBox="0 0 16 16" fill="none" xmlns="http://www.w3.org/2000/svg">
<path d="M3 4.5C3 3.67157 3.67157 3 4.5 3H6.73077C7.00691 3 7.23077 2.77614 7.23077 2.5C7.23077 2.22386 7.00691 2 6.73077 2H4.5C3.11929 2 2 3.11929 2 4.5V11.5C2 12.8807 3.11929 14 4.5 14H11.5C12.8807 14 14 12.8807 14 11.5V9.26923C14 8.99309 13.7761 8.76923 13.5 8.76923C13.2239 8.76923 13 8.99309 13 9.26923V11.5C13 12.3284 12.3284 13 11.5 13H8V9.76947C8 8.79236 7.20789 8.00024 6.23077 8.00024H3V4.5ZM3 9.00024H6.23077C6.6556 9.00024 7 9.34464 7 9.76947V13H4.5C3.67157 13 3 12.3284 3 11.5V9.00024ZM10.7075 5.99982H13.5C13.7761 5.99982 14 6.22367 14 6.49982C14 6.77596 13.7761 6.99982 13.5 6.99982H9.52073C9.38595 7.00538 9.24935 6.9567 9.14645 6.8538C9.04873 6.75608 8.99991 6.62797 9 6.49989C9 6.49987 9 6.49991 9 6.49989V2.5C9 2.22386 9.22386 2 9.5 2C9.77614 2 10 2.22386 10 2.5V5.29314L13.1464 2.14669C13.3417 1.95143 13.6583 1.95143 13.8536 2.14669C14.0488 2.34195 14.0488 2.65854 13.8536 2.8538L10.7075 5.99982Z" fill="#212121"/>
</svg>
