<svg width="16" height="16" viewBox="0 0 16 16" fill="none" xmlns="http://www.w3.org/2000/svg">
<path d="M9.03033 11.0303L6.28033 13.7803C5.98744 14.0732 5.51256 14.0732 5.21967 13.7803L2.46967 11.0303C2.17678 10.7374 2.17678 10.2626 2.46967 9.96967C2.76256 9.67678 3.23744 9.67678 3.53033 9.96967L5 11.4393V2.75C5 2.33579 5.33579 2 5.75 2C6.16421 2 6.5 2.33579 6.5 2.75V11.4393L7.96967 9.96967C8.26256 9.67678 8.73744 9.67678 9.03033 9.96967C9.32322 10.2626 9.32322 10.7374 9.03033 11.0303ZM8.5 2C8.08579 2 7.75 2.33579 7.75 2.75C7.75 3.16421 8.08579 3.5 8.5 3.5H13.5C13.9142 3.5 14.25 3.16421 14.25 2.75C14.25 2.33579 13.9142 2 13.5 2H8.5ZM8.5 4.5C8.08579 4.5 7.75 4.83579 7.75 5.25C7.75 5.66421 8.08579 6 8.5 6H11.5C11.9142 6 12.25 5.66421 12.25 5.25C12.25 4.83579 11.9142 4.5 11.5 4.5H8.5ZM8.5 7C8.08579 7 7.75 7.33579 7.75 7.75C7.75 8.16421 8.08579 8.5 8.5 8.5H9.5C9.91421 8.5 10.25 8.16421 10.25 7.75C10.25 7.33579 9.91421 7 9.5 7H8.5Z" fill="#212121"/>
</svg>
