<svg width="24" height="24" viewBox="0 0 24 24" fill="none" xmlns="http://www.w3.org/2000/svg">
<path d="M14 5C14 5.5303 13.7936 6.0124 13.4568 6.37035L16.0807 9.65021C16.1543 9.74226 16.2822 9.77036 16.3877 9.71764L19.0385 8.39226C19.0132 8.26542 19 8.13425 19 8C19 6.89543 19.8954 6 21 6C22.1046 6 23 6.89543 23 8C23 8.95189 22.335 9.74845 21.4443 9.95048L19.6401 19.5725C19.4849 20.4002 18.7622 21 17.9201 21H6.07995C5.23782 21 4.51512 20.4002 4.35992 19.5725L2.5558 9.9505C1.66501 9.74848 1 8.9519 1 8C1 6.89543 1.89543 6 3 6C4.10457 6 5 6.89543 5 8C5 8.13425 4.98677 8.2654 4.96155 8.39224L7.61236 9.71764C7.7178 9.77036 7.84574 9.74226 7.91939 9.65021L10.5433 6.37037C10.2064 6.01242 10 5.53032 10 5C10 3.89543 10.8954 3 12 3C13.1046 3 14 3.89543 14 5ZM12 17C13.1046 17 14 16.1046 14 15C14 13.8954 13.1046 13 12 13C10.8954 13 10 13.8954 10 15C10 16.1046 10.8954 17 12 17Z" fill="#212121"/>
</svg>
