<svg width="24" height="24" viewBox="0 0 24 24" fill="none" xmlns="http://www.w3.org/2000/svg">
<path d="M6.75 18C7.30228 18 7.75 17.5523 7.75 17V5.415L9.04289 6.70711C9.40338 7.06759 9.97061 7.09532 10.3629 6.7903L10.4571 6.70711C10.8176 6.34662 10.8453 5.77939 10.5403 5.3871L10.4571 5.29289L7.45711 2.29289C7.09662 1.93241 6.52939 1.90468 6.1371 2.2097L6.04289 2.29289L3.04289 5.29289C2.65237 5.68342 2.65237 6.31658 3.04289 6.70711C3.40338 7.06759 3.97061 7.09532 4.3629 6.7903L4.45711 6.70711L5.75 5.415V17C5.75 17.5523 6.19772 18 6.75 18ZM17.2477 18C17.8 18 18.2477 17.5523 18.2477 17V5.416L19.5406 6.70711C19.9011 7.06759 20.4683 7.09532 20.8606 6.7903L20.9548 6.70711C21.3153 6.34662 21.343 5.77939 21.038 5.3871L20.9548 5.29289L17.9548 2.29289C17.5943 1.93241 17.0271 1.90468 16.6348 2.2097L16.5406 2.29289L13.5406 5.29289C13.15 5.68342 13.15 6.31658 13.5406 6.70711C13.9011 7.06759 14.4683 7.09532 14.8606 6.7903L14.9548 6.70711L16.2477 5.414V17C16.2477 17.5523 16.6954 18 17.2477 18ZM6.75 22C9.37335 22 11.5 19.8734 11.5 17.25C11.5 15.3414 10.3743 13.6957 8.75068 12.9406L8.75104 14.6889C9.51133 15.2838 10 16.2098 10 17.25C10 19.0449 8.54493 20.5 6.75 20.5C4.95507 20.5 3.5 19.0449 3.5 17.25C3.5 16.2093 3.9891 15.2829 4.74998 14.6881L4.75031 12.9402C3.12613 13.6951 2 15.341 2 17.25C2 19.8734 4.12665 22 6.75 22ZM17.2477 22C19.871 22 21.9977 19.8734 21.9977 17.25C21.9977 15.3414 20.872 13.6957 19.2484 12.9406L19.2487 14.6889C20.009 15.2838 20.4977 16.2098 20.4977 17.25C20.4977 19.0449 19.0426 20.5 17.2477 20.5C15.4528 20.5 13.9977 19.0449 13.9977 17.25C13.9977 16.2093 14.4868 15.2829 15.2477 14.6881L15.248 12.9402C13.6238 13.6951 12.4977 15.341 12.4977 17.25C12.4977 19.8734 14.6243 22 17.2477 22Z" fill="#212121"/>
</svg>
