<svg width="16" height="16" viewBox="0 0 16 16" fill="none" xmlns="http://www.w3.org/2000/svg">
<path d="M11.69 7.99936L9.43414 10.2551C9.14124 10.548 9.14124 11.0229 9.43414 11.3158C9.7004 11.582 10.1171 11.6062 10.4107 11.3884L10.4948 11.3158L14.0303 7.78022L14.0989 7.70142L14.1394 7.64205L14.1885 7.54779L14.2213 7.45599L14.2372 7.38817L14.2461 7.32629L14.2498 7.23268L14.2461 7.17349L14.2305 7.07954L14.2001 6.98026L14.1536 6.88172L14.1188 6.82602C14.0932 6.78863 14.0637 6.75292 14.0303 6.71956L14.0989 6.79836C14.0779 6.77051 14.055 6.74418 14.0303 6.71956L10.4948 3.18403C10.2019 2.89113 9.72703 2.89113 9.43414 3.18403C9.16787 3.45029 9.14366 3.86696 9.36152 4.16057L9.43414 4.24469L11.69 6.49936L8 6.49989C4.34852 6.49989 1.86748 8.57653 1.75406 11.5369L1.75 11.7499C1.75 12.1641 2.08579 12.4999 2.5 12.4999C2.91421 12.4999 3.25 12.1641 3.25 11.7499C3.25 9.62103 4.94201 8.09201 7.74238 8.00391L8 7.99989L11.69 7.99936Z" fill="#212121"/>
</svg>
