<svg width="16" height="16" viewBox="0 0 16 16" fill="none" xmlns="http://www.w3.org/2000/svg">
<path d="M4.75 1C3.7835 1 3 1.7835 3 2.75V13.25C3 14.2165 3.7835 15 4.75 15H7.25716C7.00353 14.6929 6.78261 14.3578 6.59971 14H4.75C4.33579 14 4 13.6642 4 13.25V2.75C4 2.33579 4.33579 2 4.75 2H11.25C11.6642 2 12 2.33579 12 2.75V6.02242C12.3434 6.05337 12.6777 6.11588 13 6.20703V2.75C13 1.7835 12.2165 1 11.25 1H4.75ZM7 8C7 8.55229 6.55228 9 6 9C5.44772 9 5 8.55229 5 8C5 7.44772 5.44772 7 6 7C6.55228 7 7 7.44772 7 8ZM16 11.5C16 13.9853 13.9853 16 11.5 16C9.01472 16 7 13.9853 7 11.5C7 9.01472 9.01472 7 11.5 7C13.9853 7 16 9.01472 16 11.5ZM9.14684 11.146L9.14433 11.1486C9.09744 11.196 9.06198 11.2505 9.03794 11.3086C9.01385 11.3667 9.0004 11.4303 9.00001 11.497L9 11.5L9.00001 11.503C9.0004 11.5697 9.01385 11.6333 9.03794 11.6914C9.06234 11.7504 9.09851 11.8056 9.14645 11.8536L11.1464 13.8536C11.3417 14.0488 11.6583 14.0488 11.8536 13.8536C12.0488 13.6583 12.0488 13.3417 11.8536 13.1464L10.7071 12H13.5C13.7761 12 14 11.7761 14 11.5C14 11.2239 13.7761 11 13.5 11H10.7071L11.8536 9.85355C12.0488 9.65829 12.0488 9.34171 11.8536 9.14645C11.6583 8.95118 11.3417 8.95118 11.1464 9.14645L9.14684 11.146Z" fill="#212121"/>
</svg>
