<svg width="28" height="28" viewBox="0 0 28 28" fill="none" xmlns="http://www.w3.org/2000/svg">
<path d="M2 6.75C2 4.67893 3.67893 3 5.75 3H9.42157C10.1509 3 10.8504 3.28973 11.3661 3.80546L13.25 5.68934L10.3055 8.63388C10.071 8.8683 9.75309 9 9.42157 9H2V6.75ZM2.00391 10.5V20.2501C2.00391 22.3211 3.68284 24.0001 5.75391 24.0001H15V15.75C15 14.2312 16.2312 13 17.75 13H22.5858C23.1162 13 23.6249 13.2107 24 13.5858L26.0005 15.5863V9.75C26.0005 7.67893 24.3216 6 22.2505 6H15.0607L11.3661 9.69454C10.8504 10.2103 10.1509 10.5 9.42157 10.5H2.00391ZM22 17V14H17.75C16.7835 14 16 14.7835 16 15.75V25.25C16 26.2165 16.7835 27 17.75 27H25.25C26.2165 27 27 26.2165 27 25.25V19H24C22.8954 19 22 18.1046 22 17ZM23 17V14L27 18H24C23.4477 18 23 17.5523 23 17Z" fill="#212121"/>
</svg>
