<svg width="20" height="20" viewBox="0 0 20 20" fill="none" xmlns="http://www.w3.org/2000/svg">
<path d="M2 5.5C2 4.11929 3.11929 3 4.5 3H6.98223C7.44636 3 7.89148 3.18437 8.21967 3.51256L9.5 4.79289L7.43934 6.85355C7.34557 6.94732 7.21839 7 7.08579 7H2V5.5ZM2 8V14.5C2 15.8807 3.11929 17 4.5 17H11V11C11 9.89543 11.8954 9 13 9H15.5858C16.1162 9 16.6249 9.21071 17 9.58579L18 10.5858V7.5C18 6.11929 16.8807 5 15.5 5H10.7071L8.14645 7.56066C7.86514 7.84196 7.48361 8 7.08579 8H2ZM13.25 10H15V12.5C15 13.3284 15.6716 14 16.5 14H19V17.75C19 18.4404 18.4404 19 17.75 19H13.25C12.5596 19 12 18.4404 12 17.75V11.25C12 10.5596 12.5596 10 13.25 10ZM16 10L19 13H16.5C16.2239 13 16 12.7761 16 12.5V10Z" fill="#212121"/>
</svg>
