<svg width="20" height="20" viewBox="0 0 20 20" fill="none" xmlns="http://www.w3.org/2000/svg">
<path d="M2.85355 2.14645C2.65829 1.95118 2.34171 1.95118 2.14645 2.14645C1.95118 2.34171 1.95118 2.65829 2.14645 2.85355L17.1464 17.8536C17.3417 18.0488 17.6583 18.0488 17.8536 17.8536C18.0488 17.6583 18.0488 17.3417 17.8536 17.1464L2.85355 2.14645ZM16.7924 11.4141L15.7068 12.4997L7.49966 4.29261L8.58527 3.207C9.36631 2.42595 10.6326 2.42595 11.4137 3.207L16.7924 8.58568C17.5734 9.36673 17.5734 10.6331 16.7924 11.4141ZM6.79289 8.99956L11.0001 13.2067L6.91402 17.2929C6.13298 18.074 4.86663 18.074 4.08558 17.2929L2.70688 15.9142C1.92585 15.1332 1.92583 13.8669 2.70684 13.0859L6.79289 8.99956ZM6.85355 13.8536L7.85355 12.8536C8.04882 12.6583 8.04882 12.3418 7.85355 12.1465C7.65829 11.9512 7.34171 11.9512 7.14645 12.1465L6.14645 13.1465C5.95118 13.3418 5.95118 13.6583 6.14645 13.8536C6.34171 14.0489 6.65829 14.0489 6.85355 13.8536Z" fill="#212121"/>
</svg>
