<?xml version="1.0" encoding="UTF-8"?>
<svg width="20px" height="20px" viewBox="0 0 20 20" version="1.1" xmlns="http://www.w3.org/2000/svg" xmlns:xlink="http://www.w3.org/1999/xlink">
    <!-- Generator: Sketch 64 (93537) - https://sketch.com -->
    <title>ic_fluent_arrow_import_20_filled</title>
    <desc>Created with Sketch.</desc>
    <g id="ðŸ”-System-Icons" stroke="none" stroke-width="1" fill="none" fill-rule="evenodd">
        <g id="ic_fluent_arrow_import_20_filled" fill="#212121" fill-rule="nonzero">
            <path d="M17.25,3.75 C17.6642,3.75 18,4.08579 18,4.5 L18,15.5 C18,15.9142 17.6642,16.25 17.25,16.25 C16.8358,16.25 16.5,15.9142 16.5,15.5 L16.5,4.5 C16.5,4.08579 16.8358,3.75 17.25,3.75 Z M11.2803,5.46967 L15.3122,9.50361 L15.3122,9.50361 C15.3626,9.56051 15.4028,9.62323 15.4329,9.68943 C15.476,9.78406 15.5,9.88923 15.5,10 C15.5,10.1122 15.4753,10.2187 15.4312,10.3143 C15.4019,10.3778 15.3633,10.438 15.3153,10.4929 L15.2766,10.534 L15.2766,10.534 L11.2803,14.5303 C10.9874,14.8232 10.5126,14.8232 10.2197,14.5303 C9.92678,14.2374 9.92678,13.7626 10.2197,13.4697 L12.9393,10.7500025 L2.75,10.7500025 C2.33579,10.7500025 2,10.4142 2,10 C2,9.58579 2.33579,9.2500025 2.75,9.2500025 L12.9393,9.2500025 L10.2197,6.53033 C9.92678,6.23744 9.92678,5.76256 10.2197,5.46967 C10.5126,5.17678 10.9874,5.17678 11.2803,5.46967 Z" id="ðŸŽ¨-Color"></path>
        </g>
    </g>
</svg>