<svg width="32" height="32" viewBox="0 0 32 32" fill="none" xmlns="http://www.w3.org/2000/svg">
<path d="M28.75 4.5C29.4404 4.5 30 5.05964 30 5.75V25.75C30 26.4404 29.4404 27 28.75 27C28.0596 27 27.5 26.4404 27.5 25.75V5.75C27.5 5.05964 28.0596 4.5 28.75 4.5ZM15.3662 7.36621C15.8544 6.87807 16.6456 6.87806 17.1338 7.36621L24.6338 14.8662C25.1219 15.3544 25.1219 16.1456 24.6338 16.6338L17.1338 24.1338C16.6456 24.6219 15.8544 24.6219 15.3662 24.1338C14.8781 23.6456 14.8781 22.8544 15.3662 22.3662L20.7324 17H3.25C2.55964 17 2 16.4404 2 15.75C2.00002 15.0597 2.55965 14.5 3.25 14.5H20.7324L15.3662 9.13379C14.8781 8.64563 14.8781 7.85437 15.3662 7.36621Z" fill="black" fill-opacity="0.858824"/>
</svg>
