<svg width="20" height="20" viewBox="0 0 20 20" fill="none" xmlns="http://www.w3.org/2000/svg">
<path d="M3.75 3.75H16.25V5.25H3.75V3.75Z" fill="#E62C46"/>
<path d="M3.75 5H16.25V6.5H3.75V5Z" fill="#F36D38"/>
<path d="M3.75 6H16.25V7.75H3.75V6Z" fill="#FFD23E"/>
<path d="M3.75 7.5H16.25V9.25H3.75V7.5Z" fill="#61BC51"/>
<path d="M3.75 9H16.25V10.25H3.75V9Z" fill="#1793E8"/>
<path d="M3.75 10H16.25V11.25H3.75V10Z" fill="#B73FBB"/>
<path d="M3.5 3H16.5C16.7761 3 17 3.22386 17 3.5V11.5C17 11.7761 16.7761 12 16.5 12H4L4 17.5C4 17.7761 3.77614 18 3.5 18C3.22386 18 3 17.7761 3 17.5V3.5C3 3.22386 3.22386 3 3.5 3ZM4 4V11H16V4H4Z" fill="#242424"/>
</svg>
