<svg width="20" height="20" viewBox="0 0 20 20" fill="none" xmlns="http://www.w3.org/2000/svg">
<rect x="4" y="4" width="12" height="1" fill="#745125"/>
<rect x="4" y="5" width="12" height="1" fill="#E62C46"/>
<rect x="4" y="6" width="12" height="1" fill="#F36D38"/>
<rect x="4" y="7" width="12" height="1" fill="#FFD23E"/>
<rect x="4" y="8" width="12" height="1" fill="#61BC51"/>
<rect x="4" y="9" width="12" height="1" fill="#1793E8"/>
<rect x="4" y="10" width="12" height="1" fill="#B73FBB"/>
<path d="M3.5 3H16.5C16.7761 3 17 3.22386 17 3.5V11.5C17 11.7761 16.7761 12 16.5 12H4L4 17.5C4 17.7761 3.77614 18 3.5 18C3.22386 18 3 17.7761 3 17.5V3.5C3 3.22386 3.22386 3 3.5 3ZM4 4V11H16V4H4Z" fill="#212121"/>
</svg>
