<svg width="20" height="20" viewBox="0 0 20 20" fill="none" xmlns="http://www.w3.org/2000/svg">
<path d="M2.75 4.5C2.33579 4.5 2 4.83579 2 5.25C2 5.66421 2.33579 6 2.75 6H7.75C8.16421 6 8.5 5.66421 8.5 5.25C8.5 4.83579 8.16421 4.5 7.75 4.5H2.75ZM5.75 7.5C5.33579 7.5 5 7.83579 5 8.25C5 8.66421 5.33579 9 5.75 9H10.25C10.6642 9 11 8.66421 11 8.25C11 7.83579 10.6642 7.5 10.25 7.5H5.75ZM4 11.25C4 10.8358 4.33579 10.5 4.75 10.5H14.25C14.3097 10.5 14.3678 10.507 14.4235 10.5202L12.9436 12H4.75C4.33579 12 4 11.6642 4 11.25ZM10.2736 14.6701L11.2514 13.6922C11.1185 13.5727 10.9428 13.5 10.75 13.5H2.75C2.33579 13.5 2 13.8358 2 14.25C2 14.6642 2.33579 15 2.75 15H9.986C10.0739 14.884 10.1699 14.7737 10.2736 14.6701ZM12.5 8.25C12.5 7.83579 12.8358 7.5 13.25 7.5H16.25C16.6642 7.5 17 7.83579 17 8.25C17 8.66421 16.6642 9 16.25 9H13.25C12.8358 9 12.5 8.66421 12.5 8.25ZM10.75 4.5C10.3358 4.5 10 4.83579 10 5.25C10 5.66421 10.3358 6 10.75 6H17.25C17.6642 6 18 5.66421 18 5.25C18 4.83579 17.6642 4.5 17.25 4.5H10.75ZM10.9798 15.3772L15.8092 10.5478C16.5395 9.81741 17.7237 9.81741 18.454 10.5478C19.1843 11.2781 19.1843 12.4622 18.454 13.1926L13.6246 18.022C13.343 18.3036 12.9902 18.5033 12.6039 18.5999L11.106 18.9744C10.4546 19.1372 9.86451 18.5472 10.0274 17.8958L10.4018 16.3979C10.4984 16.0116 10.6982 15.6588 10.9798 15.3772Z" fill="#212121"/>
</svg>
