<svg width="20" height="20" viewBox="0 0 20 20" fill="none" xmlns="http://www.w3.org/2000/svg">
<path d="M2.5 5C2.22386 5 2 5.22386 2 5.5C2 5.77614 2.22386 6 2.5 6H8C8.27614 6 8.5 5.77614 8.5 5.5C8.5 5.22386 8.27614 5 8 5H2.5ZM5.5 8C5.22386 8 5 8.22386 5 8.5C5 8.77614 5.22386 9 5.5 9H10.5C10.7761 9 11 8.77614 11 8.5C11 8.22386 10.7761 8 10.5 8H5.5ZM4 11.5C4 11.2239 4.22386 11 4.5 11H13.9436L12.9436 12H4.5C4.22386 12 4 11.7761 4 11.5ZM10.2736 14.6701L10.9436 14H2.5C2.22386 14 2 14.2239 2 14.5C2 14.7761 2.22386 15 2.5 15H9.986C10.0739 14.884 10.1699 14.7737 10.2736 14.6701ZM12.5 8.5C12.5 8.22386 12.7239 8 13 8H16.5C16.7761 8 17 8.22386 17 8.5C17 8.77614 16.7761 9 16.5 9H13C12.7239 9 12.5 8.77614 12.5 8.5ZM10.5 5C10.2239 5 10 5.22386 10 5.5C10 5.77614 10.2239 6 10.5 6H17C17.2761 6 17.5 5.77614 17.5 5.5C17.5 5.22386 17.2761 5 17 5H10.5ZM10.9798 15.3772L15.8092 10.5478C16.5395 9.81741 17.7237 9.81741 18.454 10.5478C19.1843 11.2781 19.1843 12.4622 18.454 13.1926L13.6246 18.022C13.343 18.3036 12.9902 18.5033 12.6039 18.5999L11.106 18.9744C10.4546 19.1372 9.86451 18.5472 10.0274 17.8958L10.4018 16.3979C10.4984 16.0116 10.6982 15.6588 10.9798 15.3772Z" fill="#212121"/>
</svg>
