<svg width="20" height="20" viewBox="0 0 20 20" fill="none" xmlns="http://www.w3.org/2000/svg">
<path d="M16.5068 14.377L16.5241 14.4288C16.6118 14.6919 16.6521 14.9604 16.6521 15.2262C16.6521 15.839 16.4216 16.4237 15.9551 16.8672C15.5357 17.277 14.9889 17.5082 14.3871 17.5082C13.923 17.5082 13.4876 17.3699 13.113 17.1202L13.052 17.0795L12.9952 17.0331C12.6698 16.7668 12.4388 16.4391 12.2798 16.0985L12.2679 16.073L11.5898 14.4652H8.33627L7.69702 16.0161C7.5439 16.4378 7.27049 16.8236 6.86361 17.103C6.48025 17.374 6.03699 17.5082 5.5811 17.5082C5.08846 17.5082 4.46964 17.375 3.97644 16.8818C3.51048 16.4159 3.3501 15.8306 3.3501 15.3112C3.3501 15.1205 3.38552 14.9065 3.40451 14.7926L3.43252 14.6245L7.83853 3.9464L7.84486 3.93192C8.01337 3.54677 8.28429 3.16438 8.69931 2.88428C9.12735 2.59163 9.6234 2.46595 10.1264 2.50786C10.5482 2.52371 10.9599 2.6499 11.3261 2.89407C11.7461 3.17403 12.0274 3.5658 12.1839 3.99505L16.5068 14.377ZM10.7831 4.53315C10.7327 4.38187 10.6508 4.26199 10.5376 4.17354C10.5236 4.16259 10.5091 4.15213 10.4941 4.14215C10.3581 4.05148 10.2051 4.00615 10.0351 4.00615C9.85376 3.98348 9.68943 4.02315 9.5421 4.12515C9.4061 4.21582 9.29843 4.35182 9.2191 4.53315L4.8841 15.0392C4.86143 15.1752 4.8501 15.2658 4.8501 15.3112C4.8501 15.5265 4.91243 15.6965 5.0371 15.8212C5.16176 15.9458 5.3431 16.0082 5.5811 16.0082C5.73976 16.0082 5.88143 15.9628 6.0061 15.8722C6.10821 15.8041 6.18796 15.7136 6.24535 15.6008C6.2644 15.5634 6.28098 15.5235 6.2951 15.4812L7.3321 12.9652H12.5851L13.6391 15.4642C13.7184 15.6342 13.8204 15.7702 13.9451 15.8722C14.0811 15.9628 14.2284 16.0082 14.3871 16.0082C14.5911 16.0082 14.7668 15.9345 14.9141 15.7872C15.0728 15.6398 15.1521 15.4528 15.1521 15.2262C15.1521 15.1128 15.1351 15.0052 15.1011 14.9032L10.7831 4.53315ZM9.9501 6.65815L11.9391 11.4182H7.9781L9.9501 6.65815Z" fill="#212121"/>
</svg>
