<svg width="25" height="24" viewBox="0 0 25 24" fill="none" xmlns="http://www.w3.org/2000/svg">
<path d="M16.166 2C17.4087 2 18.416 3.00736 18.416 4.25V19.75C18.416 20.9926 17.4087 22 16.166 22H8.66602C7.42337 22 6.41602 20.9926 6.41602 19.75V4.25C6.41602 3.00736 7.42337 2 8.66602 2H16.166ZM16.166 3.5H8.66602C8.2518 3.5 7.91602 3.83579 7.91602 4.25V19.75C7.91602 20.1642 8.2518 20.5 8.66602 20.5H16.166C16.5802 20.5 16.916 20.1642 16.916 19.75V4.25C16.916 3.83579 16.5802 3.5 16.166 3.5ZM15.166 4.5C15.5802 4.5 15.916 4.83579 15.916 5.25C15.916 5.66421 15.5802 6 15.166 6H9.66602C9.2518 6 8.91602 5.66421 8.91602 5.25C8.91602 4.83579 9.2518 4.5 9.66602 4.5H15.166Z" fill="#212121"/>
</svg>
