<svg width="20" height="20" viewBox="0 0 20 20" fill="none" xmlns="http://www.w3.org/2000/svg">
<path d="M14.5036 4.00008C13.0856 3.98981 11.8664 4.95905 11.2987 5.48742C11.0666 5.70345 10.8215 5.86587 10.5639 5.95172L10.1485 6.09019L7.5078 4.27963C7.24214 4.09748 6.92757 4 6.60546 4C5.27888 4 4.53159 5.52466 5.34425 6.57319L6.03311 7.46198L4.75857 7.88683L4.16602 6.66324C3.63829 5.5735 2 5.9493 2 7.16011V10.1457C2 11.3482 3.18482 12.1925 4.3214 11.7998L7.3386 10.7575L7.04566 12.2223C6.73479 13.7766 8.73343 14.6879 9.70311 13.434L12.801 9.42822L16.9796 8.07653C17.8176 7.80548 18.3116 6.79722 17.7173 5.9855C17.1268 5.17913 16.0247 4.0111 14.5036 4.00008ZM7.03855 7.12684L6.13464 5.96059C5.83127 5.56917 6.11024 5 6.60546 5C6.72571 5 6.84314 5.03639 6.94231 5.10439L8.95858 6.48683L7.03855 7.12684ZM11.98 6.21944C12.5275 5.70984 13.4948 4.9928 14.4964 5.00005C15.5038 5.00735 16.3467 5.80639 16.9104 6.57628C16.9827 6.67494 16.9895 6.77797 16.9525 6.87396C16.9131 6.97629 16.8185 7.07763 16.6718 7.12507L12.3461 8.52434C12.2503 8.55533 12.1661 8.61453 12.1045 8.69419L8.91206 12.8223C8.58883 13.2403 7.92262 12.9365 8.02624 12.4184L8.31918 10.9537C8.47071 10.196 7.7424 9.56006 7.01209 9.81235L3.99489 10.8546C3.50778 11.0229 3 10.6611 3 10.1457V7.16011C3 7.1091 3.01505 7.08416 3.02768 7.06945C3.04387 7.0506 3.07156 7.03217 3.1087 7.02365C3.14583 7.01513 3.17879 7.01965 3.20157 7.02956C3.21935 7.03729 3.24377 7.05318 3.266 7.09909L4.04999 8.71799C4.15949 8.94411 4.41977 9.05386 4.65811 8.97441L10.8801 6.9004C11.3134 6.75597 11.679 6.49952 11.98 6.21944Z" fill="#212121"/>
<path d="M2.5 17C2.22386 17 2 17.2239 2 17.5C2 17.7761 2.22386 18 2.5 18H17.5C17.7761 18 18 17.7761 18 17.5C18 17.2239 17.7761 17 17.5 17H2.5Z" fill="#212121"/>
</svg>
