<svg width="28" height="28" viewBox="0 0 28 28" fill="none" xmlns="http://www.w3.org/2000/svg">
<path d="M8.25 14C8.25 15.2426 7.24264 16.25 6 16.25C4.75736 16.25 3.75 15.2426 3.75 14C3.75 12.7574 4.75736 11.75 6 11.75C7.24264 11.75 8.25 12.7574 8.25 14ZM16.25 14C16.25 15.2426 15.2426 16.25 14 16.25C12.7574 16.25 11.75 15.2426 11.75 14C11.75 12.7574 12.7574 11.75 14 11.75C15.2426 11.75 16.25 12.7574 16.25 14ZM22 16.25C23.2426 16.25 24.25 15.2426 24.25 14C24.25 12.7574 23.2426 11.75 22 11.75C20.7574 11.75 19.75 12.7574 19.75 14C19.75 15.2426 20.7574 16.25 22 16.25Z" fill="#212121"/>
</svg>
