<svg width="48" height="48" viewBox="0 0 48 48" fill="none" xmlns="http://www.w3.org/2000/svg">
<path d="M22.0946 6.89356C21.3154 5.33528 19.6859 4.07467 17.6833 4.29701C15.892 4.4959 13.2323 5.16215 11.4203 7.34561C9.55886 9.58858 8.86485 13.0874 10.2943 18.3278C11.8196 23.9194 14.0861 29.4306 16.9028 33.8784C19.6988 38.2934 23.143 41.8266 27.094 43.1816C30.5884 44.3801 33.2596 43.8801 35.2093 42.5638C37.0881 41.2954 38.1215 39.3864 38.6554 38.0639C39.2533 36.5832 38.8592 35.0426 38.0787 33.9074L35.2017 29.723C33.8969 27.8254 31.5078 26.9995 29.3096 27.6865L25.3345 28.9287C25.047 29.0185 24.769 28.9276 24.6108 28.7422C22.8418 26.6694 20.8583 23.7777 20.3188 20.8519C20.3009 20.7548 20.3204 20.6752 20.3522 20.6216C20.9367 19.6389 21.9435 18.525 22.9446 17.5503C24.642 15.8977 25.2844 13.2723 24.1652 11.0343L22.0946 6.89356Z" fill="#212121"/>
</svg>
