<svg width="16" height="16" viewBox="0 0 16 16" fill="none" xmlns="http://www.w3.org/2000/svg">
<path d="M6.22176 13.9567C3.55468 13.653 2 11.8026 2 10V9.5C2 8.67157 2.67157 8 3.5 8H5.59971C5.43777 8.31679 5.30564 8.65136 5.20703 9H3.5C3.22386 9 3 9.22386 3 9.5V10C3 11.1281 3.88187 12.333 5.50235 12.7996C5.69426 13.216 5.93668 13.6043 6.22176 13.9567ZM9.62596 5.06907C9.70657 4.81036 9.75 4.53525 9.75 4.25C9.75 2.73122 8.51878 1.5 7 1.5C5.48122 1.5 4.25 2.73122 4.25 4.25C4.25 5.53662 5.13357 6.61687 6.32704 6.91706C6.64202 6.55055 7.00446 6.226 7.40482 5.95294C7.27488 5.98371 7.13934 6 7 6C6.0335 6 5.25 5.2165 5.25 4.25C5.25 3.2835 6.0335 2.5 7 2.5C7.9665 2.5 8.75 3.2835 8.75 4.25C8.75 4.73141 8.55561 5.16743 8.24104 5.48382C8.67558 5.28783 9.14016 5.14664 9.62596 5.06907ZM15 10.5C15 12.9853 12.9853 15 10.5 15C8.01472 15 6 12.9853 6 10.5C6 8.01472 8.01472 6 10.5 6C12.9853 6 15 8.01472 15 10.5ZM11.2071 10.5L12.3536 9.35355C12.5488 9.15829 12.5488 8.84171 12.3536 8.64645C12.1583 8.45118 11.8417 8.45118 11.6464 8.64645L10.5 9.79289L9.35355 8.64645C9.15829 8.45118 8.84171 8.45118 8.64645 8.64645C8.45118 8.84171 8.45118 9.15829 8.64645 9.35355L9.79289 10.5L8.64645 11.6464C8.45118 11.8417 8.45118 12.1583 8.64645 12.3536C8.84171 12.5488 9.15829 12.5488 9.35355 12.3536L10.5 11.2071L11.6464 12.3536C11.8417 12.5488 12.1583 12.5488 12.3536 12.3536C12.5488 12.1583 12.5488 11.8417 12.3536 11.6464L11.2071 10.5Z" fill="#212121"/>
</svg>
