<svg width="28" height="28" viewBox="0 0 28 28" fill="none" xmlns="http://www.w3.org/2000/svg">
<path d="M18.8838 9.02441C19.0089 8.62978 19.4315 8.41135 19.8262 8.53613C20.2207 8.66146 20.4394 9.0829 20.3145 9.47754C20.1874 9.87824 20.0232 10.3836 19.8525 10.9668C20.5692 10.8792 21.3564 10.7388 22.2178 10.5234C22.6196 10.4231 23.0265 10.6675 23.127 11.0693C23.2273 11.4711 22.9828 11.878 22.5811 11.9785C21.4165 12.2696 20.3736 12.4328 19.4453 12.5166C19.2932 13.1762 19.1576 13.8877 19.0684 14.6289C19.5167 14.5427 19.9413 14.5 20.2998 14.5C20.5347 14.5 20.7671 14.5101 20.9951 14.5244C20.9968 14.4368 21.001 14.3484 21 14.2598C20.9951 13.8457 21.3272 13.5061 21.7412 13.501C22.1552 13.4964 22.4951 13.8282 22.5 14.2422C22.502 14.4093 22.4983 14.5752 22.4922 14.7393C23.1096 14.8874 23.675 15.1075 24.1641 15.4082C25.2234 16.0598 25.9011 17.0793 25.9492 18.4238C25.99 19.5657 25.8205 20.6139 25.1729 21.5645C24.5374 22.4968 23.5037 23.2439 22.0146 23.9316C21.6388 24.105 21.1922 23.9412 21.0186 23.5654C20.8451 23.1896 21.01 22.7441 21.3857 22.5703C22.7612 21.935 23.5157 21.3313 23.9326 20.7197C24.3372 20.126 24.4843 19.4341 24.4502 18.4775C24.4216 17.6789 24.0489 17.0983 23.3779 16.6855C23.0839 16.5048 22.7284 16.3576 22.3193 16.2451C21.9521 18.1626 21.0555 19.7849 19.9902 20.9336C20.0667 21.0741 20.1469 21.2138 20.2334 21.3506C20.4545 21.7007 20.35 22.1644 20 22.3857C19.6501 22.6063 19.186 22.502 18.9648 22.1523C18.9217 22.0841 18.8798 22.0151 18.8389 21.9463C18.269 22.3467 17.6693 22.6324 17.0742 22.75C16.1642 22.9296 15.2255 22.7212 14.5859 21.9219L14.5576 21.8857L14.5332 21.8467C13.8506 20.7391 13.8969 19.5724 14.2354 18.5859C14.5683 17.616 15.1938 16.776 15.7666 16.2031C16.2569 15.7129 16.8831 15.3508 17.5127 15.0908C17.5257 14.9365 17.5409 14.7833 17.5576 14.6318C17.6363 13.9198 17.7578 13.2324 17.8945 12.5889C17.1872 12.5906 16.5658 12.551 16.0254 12.4971C15.6136 12.4557 15.3126 12.0886 15.3535 11.6768C15.3947 11.2648 15.762 10.9641 16.1738 11.0049C16.7605 11.0635 17.4525 11.1058 18.2607 11.085C18.4928 10.2373 18.7243 9.52738 18.8838 9.02441ZM17.4619 16.7852C17.2188 16.9284 17.0027 17.0882 16.8271 17.2637C16.3665 17.7244 15.8934 18.376 15.6543 19.0723C15.4268 19.7351 15.4228 20.3943 15.7832 21.0117C15.9963 21.2584 16.3083 21.372 16.7832 21.2783C17.1886 21.1982 17.6727 20.9654 18.1758 20.5742C17.6957 19.3347 17.4935 18.0413 17.4619 16.7852ZM20.2998 16C19.9519 16.0001 19.4716 16.0592 18.959 16.1895C18.9402 17.2608 19.0467 18.3399 19.3477 19.3682C20.0186 18.4807 20.5743 17.3359 20.8359 16.0156C20.6628 16.0061 20.4835 16 20.2998 16ZM6.9502 4C7.70419 4.00002 8.93103 4.11532 9.99512 4.71875C11.1181 5.35562 11.9999 6.50812 12 8.38965V15.75C12 16.1642 11.6642 16.5 11.25 16.5C10.8358 16.5 10.5 16.1642 10.5 15.75V15.252C10.1618 15.4314 9.79363 15.6038 9.41992 15.7568C8.43645 16.1595 7.25603 16.5 6.25 16.5C5.46256 16.5 4.42651 16.2594 3.56738 15.6367C2.67635 14.9908 2.00006 13.9465 2 12.4502C2 10.8875 2.90588 9.75986 3.91211 9.05664C4.90216 8.36474 6.09955 8 6.9502 8C8.52895 8.00003 9.67683 8.33057 10.5 8.60254V8.38965C10.4999 7.07465 9.9317 6.40725 9.25488 6.02344C8.51915 5.60628 7.59616 5.50002 6.9502 5.5C6.34996 5.5 5.73029 5.62957 5.20508 5.80078C4.66462 5.97697 4.29586 6.17318 4.17871 6.26074C3.84696 6.50853 3.37685 6.44104 3.12891 6.10938C2.88092 5.77759 2.94947 5.30755 3.28125 5.05957C3.58409 4.83322 4.1257 4.57436 4.74023 4.37402C5.37001 4.16874 6.15052 4 6.9502 4ZM6.9502 9.5C6.44462 9.5 5.54234 9.74745 4.77148 10.2861C4.01678 10.8136 3.5 11.5356 3.5 12.4502C3.50006 13.431 3.91747 14.0371 4.44824 14.4219C5.01095 14.8297 5.72502 15 6.25 15C6.9721 15 7.94208 14.7405 8.85156 14.3682C9.57667 14.0713 10.1637 13.7418 10.5 13.498V10.1875C9.58658 9.89062 8.65439 9.50003 6.9502 9.5Z" fill="#212121"/>
</svg>
