<?xml version="1.0" encoding="UTF-8"?>
<svg width="24px" height="24px" viewBox="0 0 24 24" version="1.1" xmlns="http://www.w3.org/2000/svg" xmlns:xlink="http://www.w3.org/1999/xlink">
    <!-- Generator: Sketch 64 (93537) - https://sketch.com -->
    <title>ic_fluent_text_grammar_options_24_filled</title>
    <desc>Created with Sketch.</desc>
    <g id="ðŸ”-System-Icons" stroke="none" stroke-width="1" fill="none" fill-rule="evenodd">
        <g id="ic_fluent_text_grammar_options_24_filled" fill="#212121" fill-rule="nonzero">
            <path d="M13.7803,16.2161 C14.0732,16.509 14.0732,16.9839 13.7803,17.2768 L9.28033,21.7768 C8.98744,22.0697 8.51256,22.0697 8.21967,21.7768 C7.92678,21.4839 7.92678,21.009 8.21967,20.7161 L12.7197,16.2161 C13.0126,15.9232 13.4874,15.9232 13.7803,16.2161 Z M10.5216,17 L8.52157,19 L3,19 C2.44772,19 2,18.5523 2,18 C2,17.4872 2.38604,17.0645 2.88338,17.0067 L3,17 L10.5216,17 Z M16.5,8 C16.8788,8 17.1981,8.28243 17.2444,8.65837 L17.3834,9.78797 C17.5656,11.2682 18.7318,12.4344 20.212,12.6166 L21.3416,12.7556 C21.7176,12.8019 22,13.1212 22,13.5 C22,13.8788 21.7176,14.1981 21.3416,14.2444 L20.212,14.3834 C18.7318,14.5656 17.5656,15.7318 17.3834,17.212 L17.2444,18.3416 C17.1981,18.7176 16.8788,19 16.5,19 C16.1212,19 15.8019,18.7176 15.7556,18.3416 L15.6166,17.212 C15.4344,15.7318 14.2682,14.5656 12.788,14.3834 L11.6584,14.2444 C11.2824,14.1981 11,13.8788 11,13.5 C11,13.1212 11.2824,12.8019 11.6584,12.7556 L12.788,12.6166 C14.2682,12.4344 15.4344,11.2682 15.6166,9.78797 L15.7556,8.65837 C15.8019,8.28243 16.1212,8 16.5,8 Z M10.0726,13 C10.0253,13.1588 10,13.3268 10,13.5 C10,14.0786917 10.2825854,14.5979757 10.7238993,14.9178198 L10.8481,15 L3,15 C2.44772,15 2,14.5523 2,14 C2,13.5266462 2.32893349,13.1300639 2.77071002,13.0263909 L2.88338,13.0067 L3,13 L10.0726,13 Z M13,9 C13.5523,9 14,9.44772 14,10 C14,10.5128 13.614,10.9355 13.1166,10.9933 L13,11 L3,11 C2.44772,11 2,10.5523 2,10 C2,9.48716 2.38604,9.06449 2.88338,9.00673 L3,9 L13,9 Z M21,5 C21.5523,5 22,5.44772 22,6 C22,6.47339077 21.6711006,6.8699503 21.2292821,6.97358813 L21.1166,6.99327 L21,7 L3,7 C2.44772,7 2,6.55228 2,6 C2,5.52660923 2.32893349,5.1300497 2.77071002,5.02641187 L2.88338,5.00673 L3,5 L21,5 Z" id="ðŸŽ¨-Color"></path>
        </g>
    </g>
</svg>