<?xml version="1.0" encoding="UTF-8"?>
<svg width="20px" height="20px" viewBox="0 0 20 20" version="1.1" xmlns="http://www.w3.org/2000/svg" xmlns:xlink="http://www.w3.org/1999/xlink">
    <!-- Generator: Sketch 64 (93537) - https://sketch.com -->
    <title>ic_fluent_text_grammar_options_20_filled</title>
    <desc>Created with Sketch.</desc>
    <g id="ðŸ”-System-Icons" stroke="none" stroke-width="1" fill="none" fill-rule="evenodd">
        <g id="ic_fluent_text_grammar_options_20_filled" fill="#212121" fill-rule="nonzero">
            <path d="M11.853,13.1466 C12.0482,13.3419 12.0481,13.6585 11.8528,13.8537 L7.85343,17.8501 C7.65809,18.0453 7.34151,18.0452 7.14632,17.8499 C6.95113,17.6545 6.95124,17.338 7.14657,17.1428 L11.1459,13.1463 C11.3413,12.9511 11.6579,12.9512 11.853,13.1466 Z M9.37773,13.5 L7.8764,15 L2.75,15 C2.33579,15 2,14.6642 2,14.25 C2,13.8358 2.33579,13.5 2.75,13.5 L9.37773,13.5 Z M14,7 C14.2244444,7 14.4176,7.14877235 14.4794546,7.35785833 L14.4963,7.43892 L14.5937,8.23046 C14.726795,9.3121395 15.5430825,10.1758833 16.6005857,10.3796717 L16.7695,10.4063 L17.5611,10.5037 C17.8117,10.5346 18,10.7475 18,11 C18,11.2244444 17.8512198,11.4176 17.6421531,11.4794546 L17.5611,11.4963 L16.7695,11.5937 C15.68783,11.726795 14.8241137,12.5430825 14.6203281,13.6005857 L14.5937,13.7695 L14.4963,14.5611 C14.4654,14.8117 14.2525,15 14,15 C13.7755556,15 13.5824,14.8512198 13.5205454,14.6421531 L13.5037,14.5611 L13.4063,13.7695 C13.273205,12.68783 12.4569175,11.8241138 11.3994143,11.6203281 L11.2305,11.5937 L10.4389,11.4963 C10.1883,11.4654 10,11.2525 10,11 C10,10.7755556 10.1487802,10.5824 10.3578469,10.5205454 L10.4389,10.5037 L11.2305,10.4063 C12.31217,10.273205 13.1758862,9.45689043 13.3796719,8.39937596 L13.4063,8.23046 L13.5037,7.43892 C13.5346,7.18829 13.7475,7 14,7 Z M9.09928,10.5 C9.0415,10.6597 9.01013,10.8316 9.01013,11.0101 C9.01013,11.3332429 9.11286959,11.6347122 9.28904708,11.881384 L9.38312,12 L2.75,12 C2.33579,12 2,11.6642 2,11.25 C2,10.8703167 2.28215687,10.5565111 2.64823019,10.5068469 L2.75,10.5 L9.09928,10.5 Z M11.25,7.5 C11.6642,7.5 12,7.83579 12,8.25 C12,8.6296925 11.7178347,8.94349042 11.3517677,8.99315332 L11.25,9 L2.75,9 C2.33579,9 2,8.66421 2,8.25 C2,7.8703075 2.28215687,7.55650958 2.64823019,7.50684668 L2.75,7.5 L11.25,7.5 Z M17.25,4.5 C17.6642,4.5 18,4.83579 18,5.25 C18,5.6296925 17.7178347,5.94349042 17.3517677,5.99315332 L17.25,6 L2.75,6 C2.33579,6 2,5.66421 2,5.25 C2,4.8703075 2.28215687,4.55650958 2.64823019,4.50684668 L2.75,4.5 L17.25,4.5 Z" id="ðŸŽ¨-Color"></path>
        </g>
    </g>
</svg>