<?xml version="1.0" encoding="UTF-8"?>
<svg width="24px" height="24px" viewBox="0 0 24 24" version="1.1" xmlns="http://www.w3.org/2000/svg" xmlns:xlink="http://www.w3.org/1999/xlink">
    <!-- Generator: Sketch 64 (93537) - https://sketch.com -->
    <title>ic_fluent_text_grammar_options_24_regular</title>
    <desc>Created with Sketch.</desc>
    <g id="ðŸ”-System-Icons" stroke="none" stroke-width="1" fill="none" fill-rule="evenodd">
        <g id="ic_fluent_text_grammar_options_24_regular" fill="#212121" fill-rule="nonzero">
            <path d="M13.7803,16.2197 C14.0732,16.5126 14.0732,16.9875 13.7803,17.2804 L9.28033,21.7803 C8.98744,22.0732 8.51256,22.0732 8.21967,21.7803 C7.92678,21.4874 7.92678,21.0126 8.21967,20.7197 L12.7197,16.2197 C13.0126,15.9268 13.4874,15.9268 13.7803,16.2197 Z M16.5,8 C16.8788,8 17.1981,8.28243 17.2444,8.65837 L17.3834,9.78797 C17.5656,11.2682 18.7318,12.4344 20.212,12.6166 L21.3416,12.7556 C21.7176,12.8019 22,13.1212 22,13.5 C22,13.8788 21.7176,14.1981 21.3416,14.2444 L20.212,14.3834 C18.7318,14.5656 17.5656,15.7318 17.3834,17.212 L17.2444,18.3416 C17.1981,18.7176 16.8788,19 16.5,19 C16.1212,19 15.8019,18.7176 15.7556,18.3416 L15.6166,17.212 C15.4344,15.7318 14.2682,14.5656 12.788,14.3834 L11.6584,14.2444 C11.2824,14.1981 11,13.8788 11,13.5 C11,13.1212 11.2824,12.8019 11.6584,12.7556 L12.788,12.6166 C14.2682,12.4344 15.4344,11.2682 15.6166,9.78797 L15.7556,8.65837 C15.8019,8.28243 16.1212,8 16.5,8 Z M10.5252,17 L9.02514,18.5 L2.75,18.5 C2.33579,18.5 2,18.1642 2,17.75 C2,17.3703 2.28215,17.0565 2.64823,17.0068 L2.75,17 L10.5252,17 Z M16.5,11.7745 C16.085,12.4893 15.4893,13.085 14.7745,13.5 C15.4893,13.915 16.085,14.5107 16.5,15.2255 C16.915,14.5107 17.5107,13.915 18.2255,13.5 C17.5107,13.085 16.915,12.4893 16.5,11.7745 Z M10.0726,13 C10.0253,13.1588 10,13.3268 10,13.5 C10,13.8169714 10.0847837,14.1160898 10.2339475,14.3743697 L10.3138,14.5 L2.75,14.5 C2.33579,14.5 2,14.1642 2,13.75 C2,13.4048182 2.23318182,13.1140992 2.55061983,13.0267536 L2.64823,13.0068 L2.75,13 L10.0726,13 Z M13.25,9 C13.6642,9 14,9.33579 14,9.75 C14,10.1297 13.7178,10.4435 13.3518,10.4932 L13.25,10.5 L2.75,10.5 C2.33579,10.5 2,10.1642 2,9.75 C2,9.3703 2.28215,9.05651 2.64823,9.00685 L2.75,9 L13.25,9 Z M21.25,5 C21.6642,5 22,5.33579 22,5.75 C22,6.1297 21.7178,6.44349 21.3518,6.49315 L21.25,6.5 L2.75,6.5 C2.33579,6.5 2,6.16421 2,5.75 C2,5.3703 2.28215,5.05651 2.64823,5.00685 L2.75,5 L21.25,5 Z" id="ðŸŽ¨-Color"></path>
        </g>
    </g>
</svg>