<svg width="20" height="20" viewBox="0 0 20 20" fill="none" xmlns="http://www.w3.org/2000/svg">
<path d="M9 2C6.79086 2 5 3.79086 5 6C5 8.20914 6.79086 10 9 10C11.2091 10 13 8.20914 13 6C13 3.79086 11.2091 2 9 2ZM6 6C6 4.34315 7.34315 3 9 3C10.6569 3 12 4.34315 12 6C12 7.65685 10.6569 9 9 9C7.34315 9 6 7.65685 6 6ZM4.00873 11C2.90315 11 2 11.8869 2 13C2 14.6912 2.83281 15.9663 4.13499 16.7966C5.41697 17.614 7.14526 18 9 18L9.04999 17.9999C9.01721 17.8384 9 17.6712 9 17.5V17C7.26489 17 5.74318 16.636 4.67262 15.9534C3.62226 15.2837 3 14.3088 3 13C3 12.4467 3.44786 12 4.00873 12L9.49981 12C9.86866 11.509 10.4141 11.1581 11.0419 11.0419C11.0445 11.0279 11.0472 11.0139 11.05 11L4.00873 11ZM12 11.5V12H11.5C10.6716 12 10 12.6716 10 13.5V17.5C10 18.3284 10.6716 19 11.5 19H17.5C18.3284 19 19 18.3284 19 17.5V13.5C19 12.6716 18.3284 12 17.5 12H17V11.5C17 10.6716 16.3284 10 15.5 10H13.5C12.6716 10 12 10.6716 12 11.5ZM13.5 11H15.5C15.7761 11 16 11.2239 16 11.5V12H13V11.5C13 11.2239 13.2239 11 13.5 11Z" fill="#212121"/>
</svg>
