<svg width="28" height="28" viewBox="0 0 28 28" fill="none" xmlns="http://www.w3.org/2000/svg">
<path d="M14 2C7.37258 2 2 7.37258 2 14C2 20.6274 7.37258 26 14 26C20.6274 26 26 20.6274 26 14C26 7.37258 20.6274 2 14 2ZM12.25 9C12.6642 9 13 9.33579 13 9.75V18.25C13 18.6642 12.6642 19 12.25 19C11.8358 19 11.5 18.6642 11.5 18.25V9.75C11.5 9.33579 11.8358 9 12.25 9ZM16.5 11.75V16.25C16.5 16.6642 16.1642 17 15.75 17C15.3358 17 15 16.6642 15 16.25V11.75C15 11.3358 15.3358 11 15.75 11C16.1642 11 16.5 11.3358 16.5 11.75ZM19.25 9C19.6642 9 20 9.33579 20 9.75V18.25C20 18.6642 19.6642 19 19.25 19C18.8358 19 18.5 18.6642 18.5 18.25V9.75C18.5 9.33579 18.8358 9 19.25 9ZM9.5 12.25V15.75C9.5 16.1642 9.16421 16.5 8.75 16.5C8.33579 16.5 8 16.1642 8 15.75V12.25C8 11.8358 8.33579 11.5 8.75 11.5C9.16421 11.5 9.5 11.8358 9.5 12.25Z" fill="#212121"/>
</svg>
