<svg width="20" height="20" viewBox="0 0 20 20" fill="none" xmlns="http://www.w3.org/2000/svg">
<path d="M14.9497 4.05115C17.6834 6.78601 17.6834 11.2201 14.9497 13.955L13.8223 15.0691L11.3861 17.4391C10.6562 18.1455 9.52168 18.1847 8.74691 17.5567L8.61408 17.4389L6.57128 15.4538L5.05025 13.955C2.31658 11.2201 2.31658 6.78601 5.05025 4.05115C7.78392 1.31628 12.2161 1.31628 14.9497 4.05115ZM14.245 4.75619C11.9006 2.41072 8.09944 2.41072 5.75499 4.75619C3.47065 7.04153 3.41208 10.7104 5.57927 13.0667L5.75499 13.2499L6.3263 13.817L9.30713 16.7224L9.40012 16.802C9.7543 17.0698 10.2459 17.0699 10.6002 16.8021L10.6931 16.7225L12.9237 14.5539L14.245 13.2499L14.4207 13.0667C16.5879 10.7104 16.5294 7.04153 14.245 4.75619ZM12.1464 8.35355C12.3417 8.54882 12.6583 8.54882 12.8536 8.35355C13.0488 8.15829 13.0488 7.84171 12.8536 7.64645L10.3536 5.14645C10.2598 5.05268 10.1326 5 10 5C9.86739 5 9.74021 5.05268 9.64645 5.14645L7.14645 7.64645C6.95118 7.84171 6.95118 8.15829 7.14645 8.35355C7.34171 8.54882 7.65829 8.54882 7.85355 8.35355L9.5 6.70711L9.5 11.5C9.5 11.7761 9.72386 12 10 12C10.2761 12 10.5 11.7761 10.5 11.5L10.5 6.70711L12.1464 8.35355Z" fill="#212121"/>
</svg>
