<svg width="24" height="24" viewBox="0 0 24 24" fill="none" xmlns="http://www.w3.org/2000/svg">
<path d="M3 6.25C3 4.45507 4.45507 3 6.25 3H17.75C19.5449 3 21 4.45507 21 6.25V12.0218C20.5368 11.7253 20.0335 11.4858 19.5 11.3135V8.5H4.5V17.75C4.5 18.7165 5.2835 19.5 6.25 19.5H11.3135C11.4858 20.0335 11.7253 20.5368 12.0218 21H6.25C4.45507 21 3 19.5449 3 17.75V6.25ZM23 17.5C23 20.5376 20.5376 23 17.5 23C14.4624 23 12 20.5376 12 17.5C12 14.4624 14.4624 12 17.5 12C20.5376 12 23 14.4624 23 17.5ZM17 20.5C17 20.7761 17.2239 21 17.5 21C17.7761 21 18 20.7761 18 20.5V15.7071L19.6464 17.3536C19.8417 17.5488 20.1583 17.5488 20.3536 17.3536C20.5488 17.1583 20.5488 16.8417 20.3536 16.6464L17.8536 14.1464C17.6583 13.9512 17.3417 13.9512 17.1464 14.1464L14.6464 16.6464C14.4512 16.8417 14.4512 17.1583 14.6464 17.3536C14.8417 17.5488 15.1583 17.5488 15.3536 17.3536L17 15.7071V20.5Z" fill="#212121"/>
</svg>
