<svg width="16" height="16" viewBox="0 0 16 16" fill="none" xmlns="http://www.w3.org/2000/svg">
<path d="M12.6511 1.11624C12.8684 1.25373 13.0001 1.49291 13.0001 1.75V6.25C13.0001 6.66422 12.6643 7 12.2501 7H2.75007C2.39926 7 2.09531 6.75681 2.01835 6.41454C1.94138 6.07227 2.11196 5.72238 2.42901 5.5722L11.929 1.0722C12.1614 0.962139 12.4339 0.978761 12.6511 1.11624ZM6.08539 5.5H11.5001V2.93515L6.08539 5.5ZM13 14.5C13 14.6733 12.9103 14.8342 12.7629 14.9253C12.6155 15.0164 12.4314 15.0247 12.2764 14.9472L2.27644 9.94721C2.06903 9.84351 1.96015 9.61081 2.01342 9.38512C2.0667 9.15944 2.26816 9 2.50005 9H12.5C12.7762 9 13 9.22386 13 9.5V14.5Z" fill="#212121"/>
</svg>
