<svg width="20" height="20" viewBox="0 0 20 20" fill="none" xmlns="http://www.w3.org/2000/svg">
<path d="M11.2999 2.4808C10.4654 2.14702 9.53457 2.14702 8.70013 2.4808L2.94291 4.78369C2.37343 5.01148 2 5.56305 2 6.1764V13.8223C2 14.4357 2.37343 14.9873 2.94291 15.2151L8.70013 17.5179C9.53457 17.8517 10.4654 17.8517 11.2999 17.5179L17.0571 15.2151C17.6266 14.9873 18 14.4357 18 13.8223V6.1764C18 5.56305 17.6266 5.01148 17.0571 4.78369L11.2999 2.4808ZM9.07152 3.40928C9.66755 3.17087 10.3324 3.17087 10.9285 3.40928L16.1538 5.49941L13.8751 6.41088L7.72133 3.94935L9.07152 3.40928ZM6.37504 4.48787L12.5289 6.94939L10.0001 7.96088L3.84633 5.49935L6.37504 4.48787ZM10.5001 8.83791L17 6.23797V13.8223C17 14.0268 16.8755 14.2106 16.6857 14.2866L10.9285 16.5895C10.7889 16.6453 10.6455 16.6881 10.5001 16.7177V8.83791ZM9.50015 8.83791V16.7178C9.35467 16.6881 9.21121 16.6453 9.07152 16.5895L3.3143 14.2866C3.12448 14.2106 3 14.0268 3 13.8223V6.23785L9.50015 8.83791Z" fill="#212121"/>
</svg>
