<svg width="24" height="24" viewBox="0 0 24 24" fill="none" xmlns="http://www.w3.org/2000/svg">
<path d="M16.7508 5.99707C17.6689 5.99707 18.422 6.70418 18.495 7.60354L18.5008 7.74707V17.2505C18.5008 18.1686 17.7937 18.9217 16.8943 18.9947L16.7508 19.0005H7.24923C6.33106 19.0005 5.57804 18.2934 5.50503 17.394L5.49923 17.2505V7.74707C5.49923 6.8289 6.20634 6.07588 7.1057 6.00287L7.24923 5.99707H16.7508ZM11.5 7.49707H7.24923C7.13088 7.49707 7.03174 7.5793 7.00583 7.68975L6.99923 7.74707V17.2505C6.99923 17.3688 7.08146 17.468 7.19191 17.4939L7.24923 17.5005L11.5 17.5001V7.49707ZM16.7508 7.49707H12.5V17.5001L16.7508 17.5005C16.8691 17.5005 16.9683 17.4182 16.9942 17.3078L17.0008 17.2505V7.74707C17.0008 7.62872 16.9185 7.52958 16.8081 7.50367L16.7508 7.49707ZM15.25 15.0075C15.6642 15.0075 16 15.3433 16 15.7575C16 16.1372 15.7178 16.451 15.3518 16.5007L15.25 16.5075H14.25C13.8358 16.5075 13.5 16.1717 13.5 15.7575C13.5 15.3778 13.7822 15.064 14.1482 15.0144L14.25 15.0075H15.25ZM9.74944 15.0075C10.1637 15.0075 10.4994 15.3433 10.4994 15.7575C10.4994 16.1372 10.2173 16.451 9.85122 16.5007L9.74944 16.5075H8.75C8.33579 16.5075 8 16.1717 8 15.7575C8 15.3778 8.28215 15.064 8.64823 15.0144L8.75 15.0075H9.74944ZM21.1158 8.03901L21.1766 8.13005L21.2207 8.222L21.8033 9.6784C22.136 10.5101 22.0415 11.4475 21.5592 12.193L21.45 12.3497L21.2988 12.5514C21.0661 12.8616 20.9922 13.2597 21.0924 13.6288L21.1382 13.7656L21.7207 15.222C21.8746 15.6066 21.6875 16.0431 21.3029 16.1969C20.9504 16.3379 20.5542 16.1925 20.3722 15.871L20.328 15.7791L19.7454 14.3227C19.4128 13.491 19.5072 12.5536 19.9895 11.8081L20.0988 11.6514L20.25 11.4497C20.4826 11.1395 20.5566 10.7414 20.4564 10.3723L20.4106 10.2355L19.828 8.77908C19.6742 8.3945 19.8612 7.95802 20.2458 7.80418C20.5631 7.67727 20.9157 7.78238 21.1158 8.03901ZM3.56705 8.03893L3.62784 8.12997L3.67199 8.22192L4.25455 9.67833C4.58722 10.51 4.49275 11.4474 4.0105 12.1929L3.90124 12.3497L3.75002 12.5513C3.51736 12.8615 3.44342 13.2596 3.54365 13.6287L3.58943 13.7655L4.17199 15.2219C4.32582 15.6065 4.13876 16.043 3.75417 16.1968C3.40164 16.3378 3.0055 16.1924 2.82343 15.871L2.77927 15.779L2.19671 14.3226C1.86404 13.4909 1.95851 12.5535 2.44076 11.808L2.55002 11.6513L2.70124 11.4497C2.9339 11.1394 3.00785 10.7413 2.90762 10.3722L2.86184 10.2354L2.27927 8.77901C2.12544 8.39442 2.3125 7.95794 2.69709 7.80411C3.01437 7.67719 3.36698 7.7823 3.56705 8.03893Z" fill="#212121"/>
</svg>
