<svg width="16" height="16" viewBox="0 0 16 16" fill="none" xmlns="http://www.w3.org/2000/svg">
<path d="M3 8C3 5.23858 5.23858 3 8 3C10.7614 3 13 5.23858 13 8C13 10.7614 10.7614 13 8 13C5.23858 13 3 10.7614 3 8ZM8 2C4.68629 2 2 4.68629 2 8C2 11.3137 4.68629 14 8 14C11.3137 14 14 11.3137 14 8C14 4.68629 11.3137 2 8 2ZM9.00039 5.37766C9.00039 4.62273 8.01077 4.34084 7.61296 4.98246L5.07011 9.08384C4.82229 9.48354 5.10976 10 5.58005 10H8.00039V10.5C8.00039 10.7761 8.22425 11 8.50039 11C8.77653 11 9.00039 10.7761 9.00039 10.5V10H9.50039C9.77653 10 10.0004 9.77614 10.0004 9.5C10.0004 9.22386 9.77653 9 9.50039 9H9.00039V5.37766ZM8.00039 6.25533V9H6.29869L8.00039 6.25533Z" fill="#242424"/>
</svg>
