<svg width="32" height="32" viewBox="0 0 32 32" fill="none" xmlns="http://www.w3.org/2000/svg">
<path d="M2 16C2 8.26801 8.26801 2 16 2C23.732 2 30 8.26801 30 16C30 23.732 23.732 30 16 30C8.26801 30 2 23.732 2 16ZM18.9981 9.8214C18.9981 8.43614 17.2014 7.89227 16.4332 9.04497L10.4787 17.979C9.90292 18.843 10.5222 20 11.5605 20H16.9981V22C16.9981 22.5523 17.4458 23 17.9981 23C18.5504 23 18.9981 22.5523 18.9981 22V20H19.9981C20.5504 20 20.9981 19.5523 20.9981 19C20.9981 18.4477 20.5504 18 19.9981 18H18.9981V9.8214ZM16.9981 11.8035V18H12.8682L16.9981 11.8035Z" fill="#212121"/>
</svg>
