<svg width="16" height="16" viewBox="0 0 16 16" fill="none" xmlns="http://www.w3.org/2000/svg">
<path d="M1.53547 6.32742L6.29487 1.59933C6.67037 1.2263 7.17901 1.01576 7.71004 1.01356L10.9741 1.00002C12.095 0.995368 13.0038 1.90099 12.9957 3.01444L12.977 5.58807C12.2326 5.21191 11.391 5 10.4999 5C7.46237 5 4.99994 7.46243 4.99994 10.5C4.99994 11.3596 5.19715 12.1732 5.54879 12.8979C5.29237 12.8005 5.05195 12.6492 4.84529 12.4439L1.53547 9.15585C0.749246 8.3748 0.749245 7.10847 1.53547 6.32742ZM9.26373 4.65827C9.56446 4.95702 10.052 4.95702 10.3528 4.65827C10.6535 4.35952 10.6535 3.87514 10.3528 3.57639C10.052 3.27764 9.56446 3.27764 9.26373 3.57639C8.963 3.87514 8.963 4.35952 9.26373 4.65827ZM14.9999 10.5C14.9999 12.9853 12.9852 15 10.4999 15C8.01466 15 5.99994 12.9853 5.99994 10.5C5.99994 8.01472 8.01466 6 10.4999 6C12.9852 6 14.9999 8.01472 14.9999 10.5ZM10.4999 8C10.2238 8 9.99994 8.22386 9.99994 8.5V10.5C9.99994 10.7761 10.2238 11 10.4999 11C10.7761 11 10.9999 10.7761 10.9999 10.5V8.5C10.9999 8.22386 10.7761 8 10.4999 8ZM10.4999 13.125C10.8451 13.125 11.1249 12.8452 11.1249 12.5C11.1249 12.1548 10.8451 11.875 10.4999 11.875C10.1548 11.875 9.87494 12.1548 9.87494 12.5C9.87494 12.8452 10.1548 13.125 10.4999 13.125Z" fill="#212121"/>
</svg>
