<?xml version="1.0" encoding="UTF-8"?>
<svg width="24px" height="24px" viewBox="0 0 24 24" version="1.1" xmlns="http://www.w3.org/2000/svg" xmlns:xlink="http://www.w3.org/1999/xlink">
    <!-- Generator: Sketch 59.1 (86144) - https://sketch.com -->
    <title>ic_fluent_tab_in_private_24_filled</title>
    <desc>Created with Sketch.</desc>
    <g id="ðŸ”-Product-Icons" stroke="none" stroke-width="1" fill="none" fill-rule="evenodd">
        <g id="ic_fluent_tab_in_private_24_filled" fill="#212121" fill-rule="nonzero">
            <path d="M19,2 C20.5976809,2 21.9036609,3.24891996 21.9949073,4.82372721 L22,5 L22,19 C22,20.5976809 20.75108,21.9036609 19.1762728,21.9949073 L19,22 L5,22 C3.40231912,22 2.09633912,20.75108 2.00509269,19.1762728 L2,19 L2,5 C2,3.40231912 3.24891996,2.09633912 4.82372721,2.00509269 L5,2 L19,2 Z M19,4 L17.771,4 L4.47256701,19.8497571 C4.59447747,19.9255859 4.73390119,19.9759107 4.88337887,19.9932723 L5,20 L6.304,20 L19.5771554,4.1832657 C19.4440258,4.08901655 19.2868425,4.02649868 19.1166211,4.00672773 L19,4 Z M20,6.013 L8.262,20 L10.22,20 L20,8.344 L20,6.013 Z M20,10.678 L12.178,20 L14.137,20 L20,13.013 L20,10.678 Z M20,15.347 L16.096,20 L18.054,20 L20,17.68 L20,15.347 Z M15.813,4 L13.855,4 L4,15.744 L4,18.079 L15.813,4 Z M11.896,4 L9.937,4 L4,11.075 L4,13.41 L11.896,4 Z M7.98,4 L6.02,4 L4,6.407 L4,8.742 L7.98,4 Z" id="ðŸŽ¨-Color"></path>
        </g>
    </g>
</svg>