<svg width="16" height="16" viewBox="0 0 16 16" fill="none" xmlns="http://www.w3.org/2000/svg">
<path d="M0 7C0 3.13401 3.13401 0 7 0C10.6592 0 13.6626 2.80765 13.9735 6.38618C13.5382 6.14032 13.0355 6 12.5 6C10.8431 6 9.5 7.34315 9.5 9V9.06301C8.63739 9.28503 8 10.0681 8 11V13.9291C7.6734 13.9758 7.33952 14 7 14C3.13401 14 0 10.866 0 7ZM9.85355 5.85355C10.0488 5.65829 10.0488 5.34171 9.85355 5.14645C9.65829 4.95118 9.34171 4.95118 9.14645 5.14645L6.25 8.04289L4.85355 6.64645C4.65829 6.45118 4.34171 6.45118 4.14645 6.64645C3.95118 6.84171 3.95118 7.15829 4.14645 7.35355L5.89645 9.10355C6.09171 9.29882 6.40829 9.29882 6.60355 9.10355L9.85355 5.85355ZM10.5 9V10H10C9.44772 10 9 10.4477 9 11V15C9 15.5523 9.44771 16 10 16H15C15.5523 16 16 15.5523 16 15V11C16 10.4477 15.5523 10 15 10H14.5V9C14.5 7.89543 13.6046 7 12.5 7C11.3954 7 10.5 7.89543 10.5 9ZM11.5 10V9C11.5 8.44772 11.9477 8 12.5 8C13.0523 8 13.5 8.44772 13.5 9V10H11.5ZM12.5 12.25C12.9142 12.25 13.25 12.5858 13.25 13C13.25 13.4142 12.9142 13.75 12.5 13.75C12.0858 13.75 11.75 13.4142 11.75 13C11.75 12.5858 12.0858 12.25 12.5 12.25Z" fill="#212121"/>
</svg>
