<svg width="24" height="24" viewBox="0 0 24 24" fill="none" xmlns="http://www.w3.org/2000/svg">
<path d="M12 2C17.5228 2 22 6.47715 22 12C22 12.6653 21.935 13.3155 21.8111 13.9445C21.3852 12.8059 20.2873 11.9952 19.0001 11.9952C17.3432 11.9952 16 13.3384 16 14.9954V15.0471C14.852 15.2734 13.9862 16.2855 13.9862 17.4999V21.4999C13.9862 21.6012 13.9922 21.701 14.0039 21.7992C13.3565 21.9309 12.6863 22 12 22C6.47715 22 2 17.5228 2 12C2 6.47715 6.47715 2 12 2ZM15.2197 8.96967L10.75 13.4393L8.78033 11.4697C8.48744 11.1768 8.01256 11.1768 7.71967 11.4697C7.42678 11.7626 7.42678 12.2374 7.71967 12.5303L10.2197 15.0303C10.5126 15.3232 10.9874 15.3232 11.2803 15.0303L16.2803 10.0303C16.5732 9.73744 16.5732 9.26256 16.2803 8.96967C15.9874 8.67678 15.5126 8.67678 15.2197 8.96967Z" fill="#212121"/>
<path d="M17 15.9999H16.4862C15.6578 15.9999 14.9862 16.6715 14.9862 17.4999V21.4999C14.9862 22.3283 15.6578 22.9999 16.4862 22.9999H21.4862C22.3146 22.9999 22.9862 22.3283 22.9862 21.4999V17.4999C22.9862 16.6715 22.3146 15.9999 21.4862 15.9999H21.0003V14.9954C21.0003 13.8907 20.1048 12.9952 19.0001 12.9952C17.8955 12.9952 17 13.8907 17 14.9954V15.9999ZM18 14.9954C18 14.443 18.4478 13.9952 19.0001 13.9952C19.5525 13.9952 20.0003 14.443 20.0003 14.9954V15.9999H18V14.9954ZM19.75 19.4999C19.75 19.9141 19.4142 20.2499 19 20.2499C18.5858 20.2499 18.25 19.9141 18.25 19.4999C18.25 19.0857 18.5858 18.7499 19 18.7499C19.4142 18.7499 19.75 19.0857 19.75 19.4999Z" fill="#212121"/>
</svg>
