<svg width="20" height="20" viewBox="0 0 20 20" fill="none" xmlns="http://www.w3.org/2000/svg">
<path d="M10.3201 2.11589C10.1347 1.96137 9.86533 1.96137 9.67991 2.11589L6.67991 4.61589C6.46777 4.79267 6.43911 5.10795 6.61589 5.32009C6.79267 5.53223 7.10795 5.56089 7.32009 5.38411L10 3.15085L12.6799 5.38411C12.892 5.56089 13.2073 5.53223 13.3841 5.32009C13.5609 5.10795 13.5322 4.79267 13.3201 4.61589L10.3201 2.11589ZM13.3201 15.3841L10.3201 17.8841C10.1347 18.0386 9.86533 18.0386 9.67991 17.8841L6.67991 15.3841C6.46777 15.2073 6.43911 14.892 6.61589 14.6799C6.79267 14.4678 7.10795 14.4391 7.32009 14.6159L10 16.8491L12.6799 14.6159C12.892 14.4391 13.2073 14.4678 13.3841 14.6799C13.5609 14.892 13.5322 15.2073 13.3201 15.3841ZM10.75 8.75C10.75 9.16421 10.4142 9.5 10 9.5C9.58579 9.5 9.25 9.16421 9.25 8.75C9.25 8.33579 9.58579 8 10 8C10.4142 8 10.75 8.33579 10.75 8.75ZM10 12C10.4142 12 10.75 11.6642 10.75 11.25C10.75 10.8358 10.4142 10.5 10 10.5C9.58579 10.5 9.25 10.8358 9.25 11.25C9.25 11.6642 9.58579 12 10 12ZM16 9.5C16 8.67157 16.6716 8 17.5 8C18.3284 8 19 8.67157 19 9.5V10.5C19 11.3284 18.3284 12 17.5 12C16.6716 12 16 11.3284 16 10.5V9.5ZM17.5 9C17.2239 9 17 9.22386 17 9.5V10.5C17 10.7761 17.2239 11 17.5 11C17.7761 11 18 10.7761 18 10.5V9.5C18 9.22386 17.7761 9 17.5 9ZM6.5 8C5.67157 8 5 8.67157 5 9.5V10.5C5 11.3284 5.67157 12 6.5 12C7.32843 12 8 11.3284 8 10.5V9.5C8 8.67157 7.32843 8 6.5 8ZM6 9.5C6 9.22386 6.22386 9 6.5 9C6.77614 9 7 9.22386 7 9.5V10.5C7 10.7761 6.77614 11 6.5 11C6.22386 11 6 10.7761 6 10.5V9.5ZM12 9.5C12 8.67157 12.6716 8 13.5 8C14.3284 8 15 8.67157 15 9.5V10.5C15 11.3284 14.3284 12 13.5 12C12.6716 12 12 11.3284 12 10.5V9.5ZM13.5 9C13.2239 9 13 9.22386 13 9.5V10.5C13 10.7761 13.2239 11 13.5 11C13.7761 11 14 10.7761 14 10.5V9.5C14 9.22386 13.7761 9 13.5 9ZM2.5 8C1.67157 8 1 8.67157 1 9.5V10.5C1 11.3284 1.67157 12 2.5 12C3.32843 12 4 11.3284 4 10.5V9.5C4 8.67157 3.32843 8 2.5 8ZM2 9.5C2 9.22386 2.22386 9 2.5 9C2.77614 9 3 9.22386 3 9.5V10.5C3 10.7761 2.77614 11 2.5 11C2.22386 11 2 10.7761 2 10.5V9.5Z" fill="#212121"/>
</svg>
