<svg width="20" height="20" viewBox="0 0 20 20" fill="none" xmlns="http://www.w3.org/2000/svg">
<path d="M2 10C2 14.0931 5.07388 17.4682 9.03911 17.9429C9.01341 17.7991 9 17.6511 9 17.5V16.5638C8.64443 16.2521 8.29359 15.7676 7.97822 15.0919C7.76073 14.6258 7.57172 14.0902 7.41936 13.5H9C9 13.1444 9.07422 12.8062 9.20802 12.5H7.20617C7.07345 11.7253 7 10.8833 7 10C7 9.11669 7.07345 8.27472 7.20617 7.5H12.7938C12.9266 8.27472 13 9.11669 13 10C13 10.3399 12.9891 10.6738 12.9682 11H13.9701C13.9899 10.672 14 10.3383 14 10C14 9.12934 13.9328 8.28832 13.8074 7.5H16.5404C16.8373 8.2764 17 9.1192 17 10C17 10.7731 16.8747 11.5169 16.6432 12.2122C16.652 12.2268 16.6606 12.2414 16.6691 12.2561L17.1784 11.8643C17.3899 11.7017 17.6187 11.5966 17.8514 11.5424C17.9489 11.0433 18 10.5276 18 10C18 5.58172 14.4183 2 10 2C5.58172 2 2 5.58172 2 10ZM10 3C10.6568 3 11.4068 3.59025 12.0218 4.90814C12.2393 5.37419 12.4283 5.90978 12.5806 6.5H7.41936C7.57172 5.90978 7.76073 5.37419 7.97822 4.90814C8.59323 3.59025 9.34315 3 10 3ZM7.07203 4.48526C6.79564 5.07753 6.56498 5.75696 6.38931 6.5H3.93648C4.77295 5.05399 6.11182 3.93497 7.71442 3.38163C7.47297 3.71222 7.25828 4.08617 7.07203 4.48526ZM6.19265 7.5C6.06723 8.28832 6 9.12934 6 10C6 10.8707 6.06723 11.7117 6.19265 12.5H3.45963C3.16268 11.7236 3 10.8808 3 10C3 9.1192 3.16268 8.2764 3.45963 7.5H6.19265ZM6.38931 13.5C6.56498 14.243 6.79564 14.9225 7.07203 15.5147C7.25828 15.9138 7.47297 16.2878 7.71442 16.6184C6.11182 16.065 4.77295 14.946 3.93648 13.5H6.38931ZM12.2856 3.38163C13.8882 3.93497 15.2271 5.05399 16.0635 6.5H13.6107C13.435 5.75696 13.2044 5.07753 12.928 4.48526C12.7417 4.08617 12.527 3.71222 12.2856 3.38163ZM10 13.5C10 12.6716 10.6716 12 11.5 12H14.5C15.3284 12 16 12.6716 16 13.5V14.0324L17.7881 12.657C18.2813 12.2776 18.9954 12.6292 18.9954 13.2514V17.7522C18.9954 18.3744 18.2813 18.726 17.7881 18.3466L16 16.9711V17.5C16 18.3284 15.3284 19 14.5 19H11.5C10.6716 19 10 18.3284 10 17.5V13.5Z" fill="#212121"/>
</svg>
