<svg width="16" height="16" viewBox="0 0 16 16" fill="none" xmlns="http://www.w3.org/2000/svg">
<path d="M11.5 2C12.8807 2 14 3.11929 14 4.5V6.25716C13.0491 5.47182 11.8296 5 10.5 5H13V4.5C13 3.67157 12.3284 3 11.5 3H4.5C3.67157 3 3 3.67157 3 4.5V5H10.5C9.32259 5 8.23159 5.36997 7.33692 6H3V11.5C3 12.3284 3.67157 13 4.5 13H5.59971C5.78261 13.3578 6.00353 13.6929 6.25716 14H4.5C3.11929 14 2 12.8807 2 11.5V4.5C2 3.11929 3.11929 2 4.5 2H11.5Z" fill="#212121"/>
<path d="M15.1539 10.5C15.1539 7.92976 13.0703 5.84616 10.5 5.84616C7.92976 5.84616 5.84616 7.92976 5.84616 10.5C5.84616 13.0703 7.92976 15.1539 10.5 15.1539C13.0703 15.1539 15.1539 13.0703 15.1539 10.5ZM8.5 7.25038C8.77614 7.25038 9 7.47424 9 7.75038V7.92301L9.0011 7.92226C9.40346 7.64718 9.87771 7.50395 10.4365 7.50395C11.4296 7.50395 12.332 7.94475 12.8915 8.72077C13.0529 8.94477 13.0023 9.25727 12.7783 9.41876C12.5543 9.58025 12.2418 9.52957 12.0803 9.30557C11.7211 8.80734 11.1298 8.50395 10.4365 8.50395C10.0595 8.50395 9.78609 8.59695 9.56548 8.74778C9.46633 8.81556 9.37187 8.89915 9.28061 9L10.2465 9C10.5227 9 10.7465 9.22386 10.7465 9.5C10.7465 9.77614 10.5227 10 10.2465 10H8.5C8.36739 10 8.24021 9.94732 8.14645 9.85355C8.05268 9.75979 8 9.63261 8 9.5V7.75038C8 7.47424 8.22386 7.25038 8.5 7.25038ZM12.0031 12.9382C11.5813 13.2707 11.0616 13.4951 10.4365 13.4951C9.52739 13.4951 8.68849 13.1331 8.12128 12.4586C7.94355 12.2473 7.97079 11.9319 8.18213 11.7541C8.39347 11.5764 8.70888 11.6036 8.88661 11.815C9.24695 12.2434 9.79535 12.4951 10.4365 12.4951C10.8651 12.4951 11.2403 12.311 11.5589 12H10.7485C10.4723 12 10.2485 11.7761 10.2485 11.5C10.2485 11.2239 10.4723 11 10.7485 11H12.5031C12.7792 11 13.0031 11.2239 13.0031 11.5L13.0031 13.2525C13.0031 13.5286 12.7792 13.7525 12.5031 13.7525C12.227 13.7525 12.0031 13.5286 12.0031 13.2525L12.0031 12.9382Z" fill="#212121"/>
</svg>
