<svg width="20" height="20" viewBox="0 0 20 20" fill="none" xmlns="http://www.w3.org/2000/svg">
<path d="M5.5 3C5.77612 3 6 3.22388 6 3.5C6 3.77612 5.77612 4 5.5 4C4.67163 4 4 4.67157 4 5.5C4 5.77612 3.77612 6 3.5 6C3.22388 6 3 5.77612 3 5.5C3 4.11926 4.11926 3 5.5 3ZM17 5.5C17 5.77612 16.7761 6 16.5 6C16.2239 6 16 5.77612 16 5.5C16 4.67157 15.3285 4 14.5 4C14.2239 4 14 3.77612 14 3.5C14 3.22388 14.2239 3 14.5 3C15.8807 3 17 4.11926 17 5.5ZM14 16.5C14 16.7761 14.2239 17 14.5 17C15.8807 17 17 15.8807 17 14.5C17 14.2239 16.7761 14 16.5 14C16.2239 14 16 14.2239 16 14.5C16 15.3284 15.3284 16 14.5 16C14.2239 16 14 16.2239 14 16.5ZM3 14.5C3 14.2239 3.22388 14 3.5 14C3.77612 14 4 14.2239 4 14.5C4 15.3284 4.67151 16 5.5 16C5.77612 16 6 16.2239 6 16.5C6 16.7761 5.77612 17 5.5 17C4.11926 17 3 15.8807 3 14.5ZM3.5 8.5C3.22388 8.5 3 8.72388 3 9V11C3 11.2761 3.22388 11.5 3.5 11.5C3.77612 11.5 4 11.2761 4 11V9C4 8.72388 3.77612 8.5 3.5 8.5ZM16 9C16 8.72388 16.2239 8.5 16.5 8.5C16.7761 8.5 17 8.72388 17 9V11C17 11.2761 16.7761 11.5 16.5 11.5C16.2239 11.5 16 11.2761 16 11V9ZM9 3C8.72388 3 8.5 3.22388 8.5 3.5C8.5 3.77612 8.72388 4 9 4H11C11.2761 4 11.5 3.77612 11.5 3.5C11.5 3.22388 11.2761 3 11 3H9ZM8.5 16.5C8.5 16.2239 8.72388 16 9 16H11C11.2761 16 11.5 16.2239 11.5 16.5C11.5 16.7761 11.2761 17 11 17H9C8.72388 17 8.5 16.7761 8.5 16.5ZM8.19977 7.12512C8.24442 7.0477 8.32698 7 8.41635 7H11.5862C11.6756 7 11.7582 7.0477 11.8028 7.12512L13.3886 9.87512C13.4331 9.95241 13.4331 10.0476 13.3886 10.1249L11.8028 12.8749C11.7582 12.9523 11.6756 13 11.5862 13H8.41635C8.32698 13 8.24442 12.9523 8.19977 12.8749L6.61403 10.1249C6.56946 10.0476 6.56946 9.95241 6.61403 9.87512L8.19977 7.12512ZM8.41635 6C7.96953 6 7.55668 6.2385 7.33348 6.62558L5.74773 9.37558C5.52489 9.76204 5.52489 10.238 5.74773 10.6244L7.33348 13.3744C7.55668 13.7615 7.96953 14 8.41635 14H11.5862C12.0331 14 12.4459 13.7615 12.6691 13.3744L14.2548 10.6244C14.4777 10.238 14.4777 9.76204 14.2548 9.37558L12.6691 6.62558C12.4459 6.2385 12.0331 6 11.5862 6H8.41635Z" fill="#212121"/>
</svg>
