<svg width="20" height="20" viewBox="0 0 20 20" fill="none" xmlns="http://www.w3.org/2000/svg">
<path d="M4 5C4 3.89543 4.89543 3 6 3H13C14.1046 3 15 3.89543 15 5V12H18V14C18 15.6569 16.6569 17 15 17H10V12.5C10 11.8469 9.5826 11.2913 9 11.0854V11C9 10.6494 8.93985 10.3128 8.82929 10H11.5C11.7761 10 12 9.77614 12 9.5C12 9.22386 11.7761 9 11.5 9H8.23611C7.68679 8.38625 6.8885 8 6 8C5.6503 8 5.31341 8.06021 5 8.171C4.68659 8.06021 4.3497 8 4 8V5ZM15 16C16.1046 16 17 15.1046 17 14V13H15V16ZM7.5 6C7.22386 6 7 6.22386 7 6.5C7 6.77614 7.22386 7 7.5 7H11.5C11.7761 7 12 6.77614 12 6.5C12 6.22386 11.7761 6 11.5 6H7.5ZM4 9C4.36429 9 4.70583 9.09739 5 9.26757C5.29418 9.09739 5.63571 9 6 9C7.10457 9 8 9.89543 8 11V12H8.5C8.77614 12 9 12.2239 9 12.5V17C9 18.1046 8.10457 19 7 19H3C1.89543 19 1 18.1046 1 17V12.5C1 12.2239 1.22386 12 1.5 12H2V11C2 9.89543 2.89543 9 4 9ZM5 12V11C5 10.4477 4.55228 10 4 10C3.44772 10 3 10.4477 3 11V12H5ZM5.75025 10.0314C5.90938 10.3184 6 10.6486 6 11V12H7V11C7 10.4477 6.55228 10 6 10C5.91376 10 5.83008 10.0109 5.75025 10.0314Z" fill="#212121"/>
</svg>
