<svg width="24" height="24" viewBox="0 0 24 24" fill="none" xmlns="http://www.w3.org/2000/svg">
<path d="M7.25 1.99997C6.00736 1.99997 5 3.00733 5 4.24997V9.53558C5.26004 9.57287 5.51122 9.6388 5.75001 9.73012C5.98879 9.63879 6.23997 9.57286 6.5 9.53556V4.24997C6.5 3.83576 6.83579 3.49997 7.25 3.49997H15.75C16.1642 3.49997 16.5 3.83576 16.5 4.24997V17H11.5V18.5H18.25C20.0449 18.5 21.5 17.0449 21.5 15.25V12H18V4.24997C18 3.00733 16.9926 1.99997 15.75 1.99997H7.25ZM18.25 17H18V13.5H20V15.25C20 16.2165 19.2165 17 18.25 17ZM10.9747 13.5H14.25C14.6642 13.5 15 13.1642 15 12.75C15 12.3358 14.6642 12 14.25 12H10.3552C10.4495 12.3168 10.5001 12.6525 10.5001 13V13.1685C10.6766 13.2523 10.8368 13.3648 10.9747 13.5ZM8.80391 9.99997H14.25C14.6642 9.99997 15 9.66419 15 9.24997C15 8.83576 14.6642 8.49997 14.25 8.49997H8.75001C8.3358 8.49997 8.00001 8.83576 8.00001 9.24997C8.00001 9.41477 8.05316 9.56715 8.14325 9.69091C8.37552 9.77113 8.59671 9.87512 8.80391 9.99997ZM8.75001 4.99997C8.3358 4.99997 8.00001 5.33576 8.00001 5.74997C8.00001 6.16419 8.3358 6.49997 8.75001 6.49997H14.25C14.6642 6.49997 15 6.16419 15 5.74997C15 5.33576 14.6642 4.99997 14.25 4.99997H8.75001ZM1 14.75C1 14.3358 1.33579 14 1.75 14H2V13C2 11.6193 3.1193 10.5 4.50002 10.5C4.95538 10.5 5.3823 10.6218 5.75002 10.8345C6.11776 10.6218 6.54471 10.5 7.00011 10.5C8.38082 10.5 9.50011 11.6193 9.50011 13V14H9.75C10.1642 14 10.5 14.3358 10.5 14.75V20.75C10.5 21.9927 9.49264 23 8.25 23H3.25C2.00736 23 1 21.9927 1 20.75V14.75ZM7 13V14H8.00011V13C8.00011 12.4477 7.55239 12 7.00011 12C6.93177 12 6.86504 12.0069 6.80056 12.0199C6.92895 12.3209 7 12.6522 7 13ZM5.5 14V13C5.5 12.4478 5.05229 12 4.50001 12C3.94772 12 3.5 12.4478 3.5 13V14H5.5Z" fill="#212121"/>
</svg>
