<svg width="16" height="16" viewBox="0 0 16 16" fill="none" xmlns="http://www.w3.org/2000/svg">
<path d="M11.5 2C12.8807 2 14 3.11929 14 4.5V6.25716C13.0491 5.47182 11.8296 5 10.5 5H13V4.5C13 3.67157 12.3284 3 11.5 3H4.5C3.67157 3 3 3.67157 3 4.5V5H10.5C9.32259 5 8.23159 5.36997 7.33692 6H3V11.5C3 12.3284 3.67157 13 4.5 13H5.59971C5.78261 13.3578 6.00353 13.6929 6.25716 14H4.5C3.11929 14 2 12.8807 2 11.5V4.5C2 3.11929 3.11929 2 4.5 2H11.5ZM10.5 15C12.9853 15 15 12.9853 15 10.5C15 8.01472 12.9853 6 10.5 6C8.01472 6 6 8.01472 6 10.5C6 12.9853 8.01472 15 10.5 15ZM10.8536 12.8536C10.6583 13.0488 10.3417 13.0488 10.1464 12.8536C9.95118 12.6583 9.95118 12.3417 10.1464 12.1464L11.2929 11H8.5C8.22386 11 8 10.7761 8 10.5C8 10.2239 8.22386 10 8.5 10H11.2929L10.1464 8.85355C9.95118 8.65829 9.95118 8.34171 10.1464 8.14645C10.3417 7.95118 10.6583 7.95118 10.8536 8.14645L12.8536 10.1464C12.9015 10.1944 12.9377 10.2496 12.9621 10.3086C12.9861 10.3667 12.9996 10.4303 13 10.497L13 10.5L13 10.503C12.9996 10.5697 12.9861 10.6333 12.9621 10.6914C12.938 10.7495 12.9026 10.804 12.8557 10.8514L12.8532 10.854L10.8536 12.8536Z" fill="#212121"/>
</svg>
