<svg width="20" height="20" viewBox="0 0 20 20" fill="none" xmlns="http://www.w3.org/2000/svg">
<path d="M10.7483 1.63271C10.7483 1.32497 11.0207 1.08627 11.3195 1.15995C11.8627 1.29389 12.3741 1.50856 12.8403 1.79049C13.1037 1.94975 13.1276 2.31119 12.91 2.52881C12.7347 2.70415 12.4598 2.72435 12.245 2.60037C11.9108 2.40739 11.5494 2.25615 11.168 2.15376C10.9285 2.08945 10.7483 1.88075 10.7483 1.63271ZM5.13076 7.25022C5.3788 7.25022 5.5875 7.43043 5.65181 7.66999C5.75419 8.05136 5.90544 8.41273 6.09841 8.74698C6.2224 8.96172 6.2022 9.23661 6.02686 9.41195C5.80924 9.62957 5.4478 9.60566 5.28854 9.3423C5.00661 8.8761 4.79194 8.36466 4.65799 7.82145C4.58432 7.52266 4.82302 7.25022 5.13076 7.25022ZM14.7088 3.65948C14.5496 3.39603 14.1881 3.37206 13.9704 3.58973C13.7951 3.76502 13.7749 4.03984 13.8988 4.25457C14.0914 4.58851 14.2425 4.9495 14.3447 5.33046C14.409 5.57002 14.6177 5.75022 14.8658 5.75022C15.1735 5.75022 15.4122 5.47779 15.3385 5.179C15.2047 4.6363 14.9903 4.12532 14.7088 3.65948ZM14.8658 7.25022C15.1735 7.25022 15.4122 7.52266 15.3385 7.82145C15.2047 8.36414 14.9903 8.87512 14.7088 9.34097C14.5496 9.60442 14.1881 9.62839 13.9704 9.41072C13.7951 9.23542 13.7749 8.9606 13.8988 8.74587C14.0914 8.41194 14.2425 8.05094 14.3447 7.66999C14.409 7.43043 14.6177 7.25022 14.8658 7.25022ZM5.13076 5.75022C5.3788 5.75022 5.5875 5.57002 5.65181 5.33046C5.75419 4.94908 5.90544 4.58771 6.09841 4.25347C6.2224 4.03872 6.2022 3.76383 6.02686 3.5885C5.80924 3.37087 5.4478 3.39479 5.28854 3.65814C5.00661 4.12435 4.79194 4.63578 4.65799 5.179C4.58432 5.47779 4.82302 5.75022 5.13076 5.75022ZM9.24827 1.63271C9.24827 1.88075 9.06806 2.08945 8.8285 2.15376C8.44755 2.25603 8.08656 2.40706 7.75262 2.59973C7.53789 2.72362 7.26307 2.70339 7.08777 2.52809C6.87011 2.31042 6.89407 1.9489 7.15753 1.78968C7.62337 1.50815 8.13435 1.29377 8.67705 1.15995C8.97583 1.08627 9.24827 1.32497 9.24827 1.63271ZM5.00873 11C3.90315 11 3 11.8869 3 13C3 14.6912 3.83281 15.9663 5.13499 16.7966C6.41697 17.614 8.14526 18 10 18C11.8547 18 13.583 17.614 14.865 16.7966C16.1672 15.9663 17 14.6912 17 13C17 11.8956 16.1045 11 15 11L5.00873 11ZM4 13C4 12.4467 4.44786 12 5.00873 12L15 12C15.5522 12 16 12.4478 16 13C16 14.3088 15.3777 15.2837 14.3274 15.9534C13.2568 16.636 11.7351 17 10 17C8.26489 17 6.74318 16.636 5.67262 15.9534C4.62226 15.2837 4 14.3088 4 13ZM8 6.5C8 5.39543 8.89543 4.5 10 4.5C11.1046 4.5 12 5.39543 12 6.5C12 7.60457 11.1046 8.5 10 8.5C8.89543 8.5 8 7.60457 8 6.5ZM10 3.5C8.34315 3.5 7 4.84315 7 6.5C7 8.15685 8.34315 9.5 10 9.5C11.6569 9.5 13 8.15685 13 6.5C13 4.84315 11.6569 3.5 10 3.5Z" fill="#212121"/>
</svg>
