<svg width="20" height="20" viewBox="0 0 20 20" fill="none" xmlns="http://www.w3.org/2000/svg">
<path d="M8.19277 3.75361C8.08915 3.45572 7.81023 3.25448 7.49486 3.25007C7.1795 3.24567 6.89507 3.43904 6.78318 3.73393L2.79899 14.2339C2.65204 14.6212 2.84686 15.0543 3.23413 15.2012C3.6214 15.3482 4.05447 15.1533 4.20142 14.7661L5.06127 12.5L8.09069 12.5C8.18814 11.9694 8.36173 11.4655 8.59971 11L5.63044 11L7.45374 6.19485L8.92992 10.4388C9.24791 9.96505 9.63762 9.54343 10.0835 9.18954L8.19277 3.75361ZM13.5 10.875C13.1548 10.875 12.875 11.1548 12.875 11.5C12.875 11.8452 13.1548 12.125 13.5 12.125C13.8452 12.125 14.125 11.8452 14.125 11.5C14.125 11.1548 13.8452 10.875 13.5 10.875ZM13.5 16C13.7761 16 14 15.7761 14 15.5V13.5C14 13.2239 13.7761 13 13.5 13C13.2239 13 13 13.2239 13 13.5V15.5C13 15.7761 13.2239 16 13.5 16ZM13.5 9C11.0147 9 9 11.0147 9 13.5C9 15.9853 11.0147 18 13.5 18C15.9853 18 18 15.9853 18 13.5C18 11.0147 15.9853 9 13.5 9ZM13.5 17C11.567 17 10 15.433 10 13.5C10 11.567 11.567 10 13.5 10C15.433 10 17 11.567 17 13.5C17 15.433 15.433 17 13.5 17Z" fill="#212121"/>
</svg>
