<svg width="48" height="48" viewBox="0 0 48 48" fill="none" xmlns="http://www.w3.org/2000/svg">
<path d="M10.25 6C7.90279 6 6 7.90279 6 10.25V21.75C6 24.0972 7.90279 26 10.25 26H17.75C20.0972 26 22 24.0972 22 21.75V10.25C22 7.90279 20.0972 6 17.75 6H10.25ZM6 34.25C6 31.9028 7.90279 30 10.25 30H17.75C20.0972 30 22 31.9028 22 34.25V37.75C22 40.0972 20.0972 42 17.75 42H10.25C7.90279 42 6 40.0972 6 37.75V34.25ZM26 10.25C26 7.90279 27.9028 6 30.25 6H37.75C40.0972 6 42 7.90279 42 10.25V13.75C42 16.0972 40.0972 18 37.75 18H30.25C27.9028 18 26 16.0972 26 13.75V10.25ZM26 26.25C26 23.9028 27.9028 22 30.25 22H37.75C40.0972 22 42 23.9028 42 26.25V37.75C42 40.0972 40.0972 42 37.75 42H30.25C27.9028 42 26 40.0972 26 37.75V26.25Z" fill="#212121"/>
</svg>
