<svg width="24" height="24" viewBox="0 0 24 24" fill="none" xmlns="http://www.w3.org/2000/svg">
<path d="M5.69362 12L2.29933 3.27184C2.0631 2.66436 2.65544 2.08343 3.2414 2.28992L3.33375 2.32918L21.3337 11.3292C21.7769 11.5507 21.8648 12.1016 21.5975 12.4539C20.4793 11.5448 19.0533 11 17.5 11C17.4418 11 17.3837 11.0008 17.3259 11.0023L4.4021 4.54041L7.01109 11.2494L13.6387 11.25C13.9856 11.25 14.2776 11.4856 14.3632 11.8056C13.8908 12.0664 13.4543 12.3843 13.063 12.7499L7.01109 12.7494L4.4021 19.4596L11.1549 16.0832C11.0535 16.5393 11 17.0134 11 17.5C11 17.6118 11.0028 17.723 11.0084 17.8335L3.33375 21.6708C2.75077 21.9623 2.11746 21.4263 2.2688 20.8238L2.29933 20.7282L5.69362 12Z" fill="#212121"/>
<path d="M23 17.5C23 14.4624 20.5376 12 17.5 12C14.4624 12 12 14.4624 12 17.5C12 20.5376 14.4624 23 17.5 23C20.5376 23 23 20.5376 23 17.5ZM17.5 17.5001H19.5C19.7761 17.5001 20 17.7239 20 18.0001C20 18.2762 19.7761 18.5001 19.5 18.5001H17C16.7239 18.5001 16.5 18.2762 16.5 18.0001L16.5 17.9985L16.5 14.9999C16.5 14.7238 16.7239 14.4999 17 14.4999C17.2761 14.4999 17.5 14.7238 17.5 14.9999L17.5 17.5001Z" fill="#212121"/>
</svg>
