<svg width="32" height="32" viewBox="0 0 32 32" fill="none" xmlns="http://www.w3.org/2000/svg">
<path d="M2.07871 3.9749C1.66162 2.70811 2.98137 1.56773 4.17426 2.16414L29.1683 14.6605C30.0698 15.1113 30.2362 16.2436 29.6675 16.9459C29.4242 16.7168 29.1681 16.5011 28.9004 16.3C29.0743 16.0651 29.0145 15.7017 28.7211 15.555L3.72706 3.05858C3.32943 2.85977 2.88952 3.2399 3.02855 3.66217L6.92687 15.5022H18.4996C18.6818 15.5022 18.8413 15.5997 18.9287 15.7454C18.5466 15.9712 18.1826 16.2243 17.8395 16.5022H6.92687L3.02855 28.3422C2.88952 28.7645 3.32943 29.1446 3.72706 28.9458L14.4997 23.5598C14.5021 23.9261 14.5264 24.2873 14.5713 24.642L4.17426 29.8403C2.98137 30.4367 1.66162 29.2963 2.07871 28.0295L6.03869 16.0022L2.07871 3.9749ZM23.4995 31C27.6416 31 30.9995 27.6422 30.9995 23.5C30.9995 19.3579 27.6416 16 23.4995 16C19.3574 16 15.9995 19.3579 15.9995 23.5C15.9995 27.6422 19.3574 31 23.4995 31ZM23.2495 18.5C23.6637 18.5 23.9995 18.8358 23.9995 19.25V23H26.7495C27.1637 23 27.4995 23.3358 27.4995 23.75C27.4995 24.1642 27.1637 24.5 26.7495 24.5H23.2495C22.8353 24.5 22.4995 24.1642 22.4995 23.75V19.25C22.4995 18.8358 22.8353 18.5 23.2495 18.5Z" fill="#212121"/>
</svg>
