<svg width="25" height="24" viewBox="0 0 25 24" fill="none" xmlns="http://www.w3.org/2000/svg">
<path d="M11.5741 20.4754C11.6394 21.0058 11.8143 21.5253 12.099 21.9972C9.10965 21.9379 6.8314 21.033 5.3182 19.2609C4.73844 18.582 4.41992 17.7185 4.41992 16.8257V16.2481C4.41992 15.006 5.42678 13.9992 6.6688 13.9992H15.9419L14.4419 15.4992H6.6688C6.25521 15.4992 5.91992 15.8345 5.91992 16.2481V16.8257C5.91992 17.3614 6.11103 17.8795 6.45889 18.2869C7.57976 19.5994 9.27056 20.3346 11.5741 20.4754ZM12.4164 2.00391C15.1778 2.00391 17.4164 4.24249 17.4164 7.00391C17.4164 9.76534 15.1778 12.0039 12.4164 12.0039C9.65496 12.0039 7.41638 9.76534 7.41638 7.00391C7.41638 4.24249 9.65496 2.00391 12.4164 2.00391ZM12.4164 3.50391C10.4834 3.50391 8.91638 5.07092 8.91638 7.00391C8.91638 8.93691 10.4834 10.5039 12.4164 10.5039C14.3494 10.5039 15.9164 8.93691 15.9164 7.00391C15.9164 5.07092 14.3494 3.50391 12.4164 3.50391ZM22.4466 12.9694C21.3253 11.8481 19.5072 11.8481 18.3859 12.9694L13.3859 17.9694C12.2646 19.0907 12.2646 20.9087 13.3859 22.0301C14.5072 23.1514 16.3252 23.1514 17.4466 22.0301L22.4466 17.0301C23.5679 15.9087 23.5679 14.0907 22.4466 12.9694ZM19.4466 14.0301C19.9821 13.4945 20.8504 13.4945 21.3859 14.0301C21.9214 14.5656 21.9214 15.4339 21.3859 15.9694L19.4162 17.9391L17.4769 15.9997L19.4466 14.0301ZM17.4466 18.9692C17.7395 19.2621 17.7395 19.7369 17.4466 20.0298L16.4466 21.0298C16.1537 21.3227 15.6788 21.3227 15.3859 21.0298C15.093 20.7369 15.093 20.2621 15.3859 19.9692L16.3859 18.9692C16.6788 18.6763 17.1537 18.6763 17.4466 18.9692Z" fill="#212121"/>
</svg>
