<svg width="24" height="24" viewBox="0 0 24 24" fill="none" xmlns="http://www.w3.org/2000/svg">
<path d="M8.25 3C6.45507 3 5 4.45507 5 6.25V8.5H7.25C7.66421 8.5 8 8.83579 8 9.25C8 9.66421 7.66421 10 7.25 10H5V10.0095C3.32189 10.1371 2 11.5392 2 13.25V17.75C2 19.5449 3.45507 21 5.25 21H10.25C11.9608 21 13.3629 19.6781 13.4905 18H13.5V16.25C13.5 15.8358 13.8358 15.5 14.25 15.5C14.6642 15.5 15 15.8358 15 16.25V18H18.75C20.5449 18 22 16.5449 22 14.75V6.25C22 4.45507 20.5449 3 18.75 3H8.25ZM10.5021 13.9996C9.95099 13.9996 9.5042 13.5528 9.5042 13.0017C9.5042 12.4505 9.95099 12.0037 10.5021 12.0037C11.0533 12.0037 11.5001 12.4505 11.5001 13.0017C11.5001 13.5528 11.0533 13.9996 10.5021 13.9996ZM10.25 9.00676C12.5956 9.00676 14.497 10.9082 14.497 13.2538C14.497 13.668 14.1612 14.0038 13.747 14.0038C13.3328 14.0038 12.997 13.668 12.997 13.2538C12.997 11.7367 11.7671 10.5068 10.25 10.5068C9.83579 10.5068 9.5 10.171 9.5 9.75676C9.5 9.34255 9.83579 9.00676 10.25 9.00676ZM10.25 6C14.2562 6 17.5038 9.24764 17.5038 13.2538C17.5038 13.668 17.168 14.0038 16.7538 14.0038C16.3396 14.0038 16.0038 13.668 16.0038 13.2538C16.0038 10.0761 13.4277 7.5 10.25 7.5C9.83579 7.5 9.5 7.16421 9.5 6.75C9.5 6.33579 9.83579 6 10.25 6Z" fill="#212121"/>
</svg>
