<svg width="24" height="24" viewBox="0 0 24 24" fill="none" xmlns="http://www.w3.org/2000/svg">
<path d="M4.38828 7.05632C4.68446 6.69433 5.0159 6.33844 5.38454 6H11.9994V5H6.67846C8.06161 4.11054 9.81651 3.50011 11.9994 3.5C15.6402 3.5 18.0911 5.19775 19.6117 7.05632C20.367 7.97945 20.8949 8.94291 21.2356 9.76308C21.5655 10.5573 21.75 11.2906 21.75 11.75C21.75 12.2094 21.5655 12.9427 21.2356 13.7369C20.8949 14.5571 20.367 15.5206 19.6117 16.4437C18.0911 18.3023 15.6408 20 12 20C9.81711 19.9999 8.06161 19.3895 6.67846 18.5H11.9994V17.5H5.38454C5.0159 17.1616 4.68446 16.8057 4.38828 16.4437C4.26791 16.2966 4.15332 16.1484 4.04434 16H11.9994V15.25C11.9996 15.25 11.9992 15.25 11.9994 15.25C13.9324 15.25 15.5 13.683 15.5 11.75C15.5 9.817 13.933 8.25 12 8.25C11.9998 8.25 12.0002 8.25 12 8.25L11.9994 7.5H4.04434C4.15332 7.35158 4.26791 7.20344 4.38828 7.05632ZM10.6985 8.5H3.39075C3.13564 8.94057 2.92835 9.36841 2.76441 9.76308C2.73132 9.84274 2.69969 9.92178 2.66957 10H8.96824C9.35854 9.32528 9.96761 8.79295 10.6985 8.5ZM8.58054 11H2.35445C2.28594 11.2911 2.25 11.5472 2.25 11.75C2.25 11.9528 2.28594 12.2089 2.35445 12.5H8.58054C8.52779 12.2584 8.5 12.0074 8.5 11.75C8.5 11.4926 8.52779 11.2416 8.58054 11ZM8.96824 13.5H2.66957C2.69969 13.5782 2.73132 13.6573 2.76441 13.7369C2.92835 14.1316 3.13564 14.5594 3.39075 15H10.6985C9.96761 14.707 9.35854 14.1747 8.96824 13.5Z" fill="#212121"/>
</svg>
