<svg width="48" height="48" viewBox="0 0 48 48" fill="none" xmlns="http://www.w3.org/2000/svg">
<path d="M31.0004 10.2545C31.0004 8.52247 32.8754 7.43993 34.3754 8.30596L38.3754 10.6154C41.8562 12.625 44.0004 16.3389 44.0004 20.3581V22.2374C44.0004 23.0413 43.5715 23.7841 42.8754 24.186L40.8277 25.3682C43.8303 26.3476 46 29.1704 46 32.5C46 36.6421 42.6421 40 38.5 40C34.3579 40 31 36.6421 31 32.5C31 31.9685 31.0553 31.4499 31.1604 30.9496L28.4879 32.4926C26.7777 33.48 24.8377 33.9998 22.8629 33.9998H16.85C16.1552 37.4233 13.1285 40 9.5 40C5.35786 40 2 36.6421 2 32.5C2 28.3579 5.35786 25 9.5 25C11.6205 25 13.5354 25.88 14.8995 27.2947L31.0004 17.9989V10.2545ZM9.72568 33.9998C8.77304 33.9998 8.00064 33.2278 8.00014 32.2752C7.99982 31.6584 8.32875 31.0883 8.86291 30.7799L12.6331 28.6032C11.7759 27.9131 10.6862 27.5 9.5 27.5C6.73858 27.5 4.5 29.7386 4.5 32.5C4.5 35.2614 6.73858 37.5 9.5 37.5C11.7389 37.5 13.6341 36.0285 14.2712 33.9998H9.72568ZM24.0004 19.7312L29.0009 16.8442V14.3385C27.5298 13.4872 25.8217 13 23.9997 13C21.3291 13 18.903 14.0469 17.1094 15.7527L24.0004 19.7312ZM33.5 32.5C33.5 35.2614 35.7386 37.5 38.5 37.5C41.2614 37.5 43.5 35.2614 43.5 32.5C43.5 29.7386 41.2614 27.5 38.5 27.5C35.7386 27.5 33.5 29.7386 33.5 32.5ZM9.375 13.5968L21.9998 20.8857L14.548 25.188L6.64727 17.1693C6.2325 16.7484 6 16.1811 6 15.5902V15.5454C6 13.8133 7.875 12.7308 9.375 13.5968Z" fill="#212121"/>
</svg>
