<svg width="28" height="28" viewBox="0 0 28 28" fill="none" xmlns="http://www.w3.org/2000/svg">
<path d="M7.00015 9.00007C7.00015 8.5506 6.70026 8.15635 6.26708 8.03637C5.83437 7.91652 5.37489 8.09977 5.1434 8.48435L5.1375 8.49391C5.13158 8.50345 5.1215 8.51952 5.10735 8.5415C5.07902 8.58549 5.03455 8.65292 4.97467 8.73883C4.85466 8.91102 4.67434 9.15517 4.43989 9.43224C3.96552 9.99285 3.29664 10.656 2.48566 11.1425C2.01208 11.4267 1.85851 12.0409 2.14266 12.5145C2.42681 12.9881 3.04107 13.1416 3.51465 12.8575C4.07688 12.5202 4.57408 12.1274 5.00015 11.7349V19C5.00015 19.5523 5.44787 20 6.00015 20C6.55244 20 7.00015 19.5523 7.00015 19V9.00007ZM11.5068 8.88339C11.5661 8.37978 11.9929 8.00024 12.5 8.00024H17.5C18.0523 8.00024 18.5 8.44795 18.5 9.00022C18.5 9.5525 18.0523 10.0002 17.5 10.0002H13.3892L13.1415 12.106L14.5796 11.9334C17.0637 11.6354 19.25 13.575 19.25 16.0769C19.25 18.3816 17.3816 20.25 15.0768 20.25H14.7145C13.5116 20.25 12.3579 19.7722 11.5074 18.9216L10.7929 18.2071C10.4024 17.8166 10.4024 17.1835 10.7929 16.793C11.1834 16.4024 11.8166 16.4024 12.2071 16.793L12.9216 17.5074C13.3971 17.9829 14.042 18.25 14.7145 18.25H15.0768C16.277 18.25 17.25 17.2771 17.25 16.0769C17.25 14.774 16.1115 13.7639 14.8178 13.9192L12.1191 14.243C11.8149 14.2795 11.5107 14.1745 11.2937 13.9581C11.0768 13.7416 10.971 13.4376 11.0068 13.1333L11.5068 8.88339ZM21.7071 14.293C21.3166 13.9025 20.6834 13.9025 20.2929 14.293C19.9024 14.6835 19.9024 15.3167 20.2929 15.7072L21.5858 17.0001L20.2929 18.2929C19.9024 18.6834 19.9024 19.3166 20.2929 19.7071C20.6834 20.0976 21.3166 20.0976 21.7071 19.7071L23 18.4143L24.2929 19.7071C24.6834 20.0976 25.3166 20.0976 25.7071 19.7071C26.0976 19.3166 26.0976 18.6834 25.7071 18.2929L24.4142 17.0001L25.7071 15.7072C26.0976 15.3167 26.0976 14.6835 25.7071 14.293C25.3166 13.9025 24.6834 13.9025 24.2929 14.293L23 15.5859L21.7071 14.293ZM8.75 20C9.16421 20 9.5 19.6642 9.5 19.25C9.5 18.8358 9.16421 18.5 8.75 18.5C8.33579 18.5 8 18.8358 8 19.25C8 19.6642 8.33579 20 8.75 20Z" fill="#212121"/>
</svg>
