<svg width="16" height="16" viewBox="0 0 16 16" fill="none" xmlns="http://www.w3.org/2000/svg">
<path d="M8 4.5V1H4.5C3.67157 1 3 1.67157 3 2.5V9.38137C3.471 8.95985 4.17627 8.86913 4.75013 9.20064C4.87431 9.12894 5.0104 9.0742 5.15563 9.03991C5.83268 8.88008 6.53079 9.20674 6.8419 9.82897L7.50026 11.1457L8.15862 9.82897C8.46973 9.20674 9.16783 8.88008 9.84489 9.03991C10.0952 9.09901 10.3184 9.2189 10.5003 9.3817C10.7657 9.1442 11.1161 8.99979 11.5003 8.99979C12.3193 8.99979 12.9851 9.65627 13 10.4718V6H9.5C8.67157 6 8 5.32843 8 4.5ZM9 4.5V1.25L12.75 5H9.5C9.22386 5 9 4.77614 9 4.5ZM2.50008 14.9996C2.77622 14.9996 3.00008 14.7757 3.00008 14.4996V13.1385L4.42884 10.7568C4.5709 10.52 4.49409 10.2129 4.25729 10.0708C4.02048 9.92877 3.71336 10.0056 3.57131 10.2424L2.50008 12.0281L1.42884 10.2424C1.28679 10.0056 0.979667 9.92877 0.742865 10.0708C0.506062 10.2129 0.429253 10.52 0.571307 10.7568L2.00008 13.1385V14.4996C2.00008 14.7757 2.22393 14.9996 2.50008 14.9996ZM5.94732 10.276C5.84362 10.0686 5.61091 9.95973 5.38523 10.013C5.15954 10.0663 5.00011 10.2677 5.00011 10.4996V14.4996C5.00011 14.7758 5.22396 14.9996 5.50011 14.9996C5.77625 14.9996 6.00011 14.7758 6.00011 14.4996V12.6177L7.05289 14.7232C7.13759 14.8926 7.31072 14.9996 7.50011 14.9996C7.68949 14.9996 7.86262 14.8926 7.94732 14.7232L9.0001 12.6177V14.4996C9.0001 14.7758 9.22396 14.9996 9.5001 14.9996C9.77625 14.9996 10.0001 14.7758 10.0001 14.4996V10.4996C10.0001 10.2677 9.84067 10.0663 9.61498 10.013C9.3893 9.95973 9.1566 10.0686 9.05289 10.276L7.50011 13.3816L5.94732 10.276ZM12.0001 10.4996C12.0001 10.2235 11.7762 9.99964 11.5001 9.99964C11.224 9.99964 11.0001 10.2235 11.0001 10.4996V14.4996C11.0001 14.7758 11.224 14.9996 11.5001 14.9996H13.5001C13.7762 14.9996 14.0001 14.7758 14.0001 14.4996C14.0001 14.2235 13.7762 13.9996 13.5001 13.9996H12.0001V10.4996Z" fill="#212121"/>
</svg>
