<svg width="16" height="16" viewBox="0 0 16 16" fill="none" xmlns="http://www.w3.org/2000/svg">
<path d="M4 5.75C4 5.33579 4.33579 5 4.75 5C5.16421 5 5.5 5.33579 5.5 5.75C5.5 6.16421 5.16421 6.5 4.75 6.5C4.33579 6.5 4 6.16421 4 5.75ZM8.5 5.75C8.5 5.33579 8.83579 5 9.25 5C9.66421 5 10 5.33579 10 5.75C10 5.80943 9.99309 5.86725 9.98002 5.92269C9.63473 6.18506 9.28889 6.34884 8.93807 6.43226C8.67957 6.31388 8.5 6.05291 8.5 5.75ZM9.25 4C10.0045 4 10.6475 4.47748 10.8932 5.14675C11.0788 5.05161 11.2845 5.00098 11.4944 5H11.5037C11.8681 5.0017 12.2198 5.15312 12.4759 5.42731C12.6508 5.61472 12.8254 5.77446 13 5.90891V2.5C13 1.67157 12.3284 1 11.5 1H2.5C1.67157 1 1 1.67157 1 2.5V9C1 9.82843 1.67157 10.5 2.5 10.5H7.00834C7.00283 10.378 7.00196 10.256 7 10.1339V7.87499C7 7.37388 7.2824 6.87884 7.7446 6.64288C7.58923 6.38148 7.5 6.07616 7.5 5.75C7.5 5.4816 7.56042 5.22731 7.66841 5H6.33159C6.43958 5.22731 6.5 5.4816 6.5 5.75C6.5 6.7165 5.7165 7.5 4.75 7.5C3.7835 7.5 3 6.7165 3 5.75C3 4.7835 3.7835 4 4.75 4H9.25ZM11.499 15C11.462 14.9999 11.4249 14.9935 11.3893 14.9808C10.6976 14.7337 10.1099 14.4065 9.6279 14.0011L9.62658 14C9.27903 13.7075 8.98652 13.3742 8.74968 13.0011L8.74898 13C8.28705 12.2717 8.03709 11.3915 8.00383 10.3647L8 10.1259V7.875C8 7.66789 8.1567 7.5 8.35 7.5C9.42047 7.5 10.3829 7.04177 11.2531 6.10978C11.3211 6.03701 11.41 6.00042 11.499 6C11.5881 6.00042 11.677 6.03701 11.7449 6.10978C12.6151 7.04177 13.5776 7.5 14.648 7.5C14.8413 7.5 14.998 7.66789 14.998 7.875V10.1259L14.9942 10.3647C14.961 11.3915 14.711 12.2717 14.2491 13L14.2484 13.0011C14.0115 13.3742 13.719 13.7075 13.3715 14L13.3701 14.0011C12.8882 14.4065 12.3005 14.7337 11.6087 14.9808C11.5731 14.9935 11.5361 14.9999 11.499 15Z" fill="#212121"/>
</svg>
