<svg width="20" height="20" viewBox="0 0 20 20" fill="none" xmlns="http://www.w3.org/2000/svg">
<path d="M6 10C6 9.44772 6.44772 9 7 9C7.55228 9 8 9.44772 8 10C8 10.5523 7.55228 11 7 11C6.44772 11 6 10.5523 6 10ZM12 10C12 9.44772 12.4477 9 13 9C13.5221 9 13.9508 9.40012 13.996 9.91044C13.4543 10.3269 12.9113 10.5 12.35 10.5C12.2788 10.5 12.2097 10.5053 12.1428 10.5154C12.0522 10.3648 12 10.1885 12 10ZM13 8C13.8137 8 14.514 8.48597 14.8263 9.18352C15.0287 9.0647 15.2589 9.0011 15.4944 9H15.5037C15.8681 9.0017 16.2198 9.15312 16.4759 9.42731C16.9831 9.97054 17.4864 10.2814 18 10.4172V6C18 4.89543 17.1046 4 16 4H4C2.89543 4 2 4.89543 2 6V14C2 15.1046 2.89543 16 4 16H11.235C11.0981 15.4945 11.0225 14.9585 11.0044 14.3971L11.0041 14.3889L11 14.1339V11.875C11 11.5728 11.1027 11.2728 11.2856 11.0305C11.1043 10.7296 11 10.377 11 10C11 9.63571 11.0974 9.29417 11.2676 9H8.73244C8.90261 9.29417 9 9.63571 9 10C9 11.1046 8.10457 12 7 12C5.89543 12 5 11.1046 5 10C5 8.89543 5.89543 8 7 8H13ZM15.499 19C15.462 18.9999 15.4249 18.9935 15.3893 18.9808C14.6976 18.7337 14.1099 18.4065 13.6279 18.0011L13.6266 18C13.279 17.7075 12.9865 17.3742 12.7497 17.0011L12.749 17C12.287 16.2717 12.0371 15.3915 12.0038 14.3647L12 14.1259V11.875C12 11.6679 12.1567 11.5 12.35 11.5C13.4205 11.5 14.3829 11.0418 15.2531 10.1098C15.3211 10.037 15.41 10.0004 15.499 10C15.5881 10.0004 15.677 10.037 15.7449 10.1098C16.6151 11.0418 17.5776 11.5 18.648 11.5C18.8413 11.5 18.998 11.6679 18.998 11.875V14.1259L18.9942 14.3647C18.961 15.3915 18.711 16.2717 18.2491 17L18.2484 17.0011C18.0115 17.3742 17.719 17.7075 17.3715 18L17.3701 18.0011C16.8882 18.4065 16.3005 18.7337 15.6087 18.9808C15.5731 18.9935 15.5361 18.9999 15.499 19Z" fill="#212121"/>
</svg>
