<svg width="32" height="32" viewBox="0 0 32 32" fill="none" xmlns="http://www.w3.org/2000/svg">
<path d="M18.7509 11.2416L16.0012 5.63545L13.2516 11.2416C12.9612 11.8336 12.3977 12.2445 11.7453 12.3399L5.57139 13.2426L10.0473 17.6327C10.5151 18.0916 10.7285 18.7506 10.6184 19.3966L9.56444 25.5798L15.066 22.6694C15.6511 22.3598 16.3514 22.3598 16.9364 22.6694L22.438 25.5798L21.3841 19.3966C21.274 18.7506 21.4873 18.0916 21.9552 17.6327L26.431 13.2426L20.2572 12.3399C19.6047 12.2445 19.0412 11.8336 18.7509 11.2416ZM14.6545 3.83947C15.2035 2.72018 16.799 2.72018 17.348 3.83947L20.5465 10.3609L27.7178 11.4095C28.9453 11.5889 29.4368 13.0959 28.5512 13.9646L23.3557 19.0606L24.5801 26.2443C24.7892 27.471 23.4999 28.4041 22.4 27.8223L16.0012 24.4372L9.60241 27.8223C8.50252 28.4041 7.21324 27.471 7.42232 26.2443L8.64679 19.0606L3.45128 13.9646C2.56569 13.0959 3.05719 11.5889 4.28462 11.4095L11.4559 10.3609L14.6545 3.83947ZM2.29299 5.16301C2.68351 4.77249 3.31668 4.77249 3.7072 5.16301L6.7072 8.16301C7.09772 8.55353 7.09772 9.1867 6.7072 9.57722C6.31668 9.96775 5.68351 9.96775 5.29299 9.57722L2.29299 6.57722C1.90246 6.1867 1.90246 5.55353 2.29299 5.16301ZM25.2929 8.16301C24.9024 8.55354 24.9024 9.1867 25.2929 9.57722C25.6834 9.96775 26.3166 9.96775 26.7071 9.57722L29.7071 6.57723C30.0976 6.1867 30.0976 5.55354 29.7071 5.16301C29.3166 4.77249 28.6834 4.77249 28.2929 5.16301L25.2929 8.16301ZM2.29289 24.5772C1.90237 24.1867 1.90237 23.5535 2.29289 23.163L5.29289 20.163C5.68342 19.7725 6.31658 19.7725 6.70711 20.163C7.09763 20.5535 7.09763 21.1867 6.70711 21.5772L3.70711 24.5772C3.31658 24.9678 2.68342 24.9678 2.29289 24.5772ZM25.293 20.163C25.6835 19.7725 26.3167 19.7725 26.7072 20.163L29.7072 23.163C30.0977 23.5535 30.0977 24.1867 29.7072 24.5772C29.3167 24.9677 28.6835 24.9677 28.293 24.5772L25.293 21.5772C24.9025 21.1867 24.9025 20.5535 25.293 20.163Z" fill="#212121"/>
</svg>
