<svg width="32" height="32" viewBox="0 0 32 32" fill="none" xmlns="http://www.w3.org/2000/svg">
<path d="M14.3879 4.20333C15.0481 2.86549 16.9559 2.86549 17.6161 4.20333L20.6583 10.3674L27.4608 11.3559C28.9372 11.5704 29.5267 13.3848 28.4584 14.4261L23.5361 19.2242L24.6981 25.9992C24.9503 27.4697 23.4069 28.591 22.0863 27.8968L16.002 24.698L9.91768 27.8968C8.59715 28.591 7.05377 27.4697 7.30596 25.9992L8.46797 19.2242L3.54564 14.4261C2.47731 13.3848 3.06682 11.5704 4.54322 11.3559L11.3457 10.3674L14.3879 4.20333Z" fill="#212121"/>
<path d="M25.2929 9.57759C24.9024 9.18707 24.9024 8.5539 25.2929 8.16338L28.2929 5.16338C28.6834 4.77285 29.3166 4.77285 29.7071 5.16338C30.0976 5.5539 30.0976 6.18707 29.7071 6.57759L26.7071 9.57759C26.3166 9.96811 25.6834 9.96811 25.2929 9.57759Z" fill="#212121"/>
<path d="M2.29289 23.1634C1.90237 23.5539 1.90237 24.1871 2.29289 24.5776C2.68342 24.9681 3.31658 24.9681 3.70711 24.5776L6.70711 21.5776C7.09763 21.1871 7.09763 20.5539 6.70711 20.1634C6.31658 19.7729 5.68342 19.7729 5.29289 20.1634L2.29289 23.1634Z" fill="#212121"/>
<path d="M2.29299 5.16338C2.68351 4.77285 3.31668 4.77285 3.7072 5.16338L6.7072 8.16337C7.09772 8.5539 7.09772 9.18706 6.7072 9.57759C6.31668 9.96811 5.68351 9.96811 5.29299 9.57759L2.29299 6.57759C1.90246 6.18706 1.90246 5.5539 2.29299 5.16338Z" fill="#212121"/>
<path d="M26.7072 20.1634C26.3167 19.7729 25.6835 19.7729 25.293 20.1634C24.9025 20.5539 24.9025 21.1871 25.293 21.5776L28.293 24.5776C28.6835 24.9681 29.3167 24.9681 29.7072 24.5776C30.0977 24.1871 30.0977 23.5539 29.7072 23.1634L26.7072 20.1634Z" fill="#212121"/>
</svg>
