<svg width="16" height="16" viewBox="0 0 16 16" fill="none" xmlns="http://www.w3.org/2000/svg">
<path d="M8.64645 1.64645C8.84171 1.45118 9.15829 1.45118 9.35355 1.64645L12.8536 5.14645C13.0488 5.34171 13.0488 5.65829 12.8536 5.85355L9.35355 9.35355C9.15829 9.54882 8.84171 9.54882 8.64645 9.35355C8.45118 9.15829 8.45118 8.84171 8.64645 8.64645L11.2929 6H5.5C4.67157 6 4 6.67157 4 7.5V13.5C4 13.7761 3.77614 14 3.5 14C3.22386 14 3 13.7761 3 13.5V7.5C3 6.11929 4.11929 5 5.5 5H11.2929L8.64645 2.35355C8.45118 2.15829 8.45118 1.84171 8.64645 1.64645Z" fill="#212121"/>
</svg>
