<svg width="48" height="48" viewBox="0 0 48 48" fill="none" xmlns="http://www.w3.org/2000/svg">
<path d="M20 4C16.6863 4 14 6.68629 14 10V14H10.5C9.11929 14 8 15.1193 8 16.5V37.5C8 41.0899 10.9101 44 14.5 44H24.6191C23.8971 43.2476 23.2647 42.4086 22.7392 41.5H14.5C12.2909 41.5 10.5 39.7091 10.5 37.5V16.5H27V24.0436C27.7804 23.544 28.6177 23.1255 29.5 22.7999V16.5H37.5V22.4766C38.3739 22.7203 39.2107 23.053 40 23.4644V16.5C40 15.1193 38.8807 14 37.5 14H34.0003V10C34.0003 6.68629 31.314 4 28.0003 4C26.4635 4 25.0617 4.57776 24.0001 5.52791C22.9386 4.57776 21.5368 4 20 4ZM31.5003 14H26V10C26 9.13334 25.8162 8.30959 25.4856 7.56559C26.1218 6.90848 27.0134 6.5 28.0003 6.5C29.9333 6.5 31.5003 8.067 31.5003 10V14ZM23.5 10V14H16.5V10C16.5 8.067 18.067 6.5 20 6.5C21.933 6.5 23.5 8.067 23.5 10ZM45 35C45 41.0751 40.0751 46 34 46C27.9249 46 23 41.0751 23 35C23 28.9249 27.9249 24 34 24C40.0751 24 45 28.9249 45 35ZM40.7071 30.2929C40.3166 29.9024 39.6834 29.9024 39.2929 30.2929L32 37.5858L28.7071 34.2929C28.3166 33.9024 27.6834 33.9024 27.2929 34.2929C26.9024 34.6834 26.9024 35.3166 27.2929 35.7071L31.2929 39.7071C31.6834 40.0976 32.3166 40.0976 32.7071 39.7071L40.7071 31.7071C41.0976 31.3166 41.0976 30.6834 40.7071 30.2929Z" fill="#212121"/>
</svg>
