<svg width="32" height="32" viewBox="0 0 32 32" fill="none" xmlns="http://www.w3.org/2000/svg">
<path d="M13.8946 7.15076C14.8782 5.61625 17.1205 5.61625 18.1041 7.15077L21.8534 13H19.4998C15.91 13 12.9998 15.9101 12.9998 19.5C12.9998 23.0898 15.91 26 19.4998 26C23.0897 26 25.9998 23.0898 25.9998 19.5C25.9998 18.368 25.7105 17.3036 25.2017 16.3767C25.1942 16.3615 25.1859 16.3464 25.1767 16.3317C25.0494 16.1041 24.9088 15.885 24.756 15.6753L23.6822 14H29.4998C29.776 14 29.9998 13.7761 29.9998 13.5C29.9998 13.2239 29.776 13 29.4998 13H23.0412L18.946 6.61112C17.5689 4.4628 14.4298 4.46279 13.0527 6.61112L2.07912 23.7309C1.9301 23.9634 1.99776 24.2726 2.23024 24.4217C2.46272 24.5707 2.77199 24.503 2.92101 24.2705L13.8946 7.15076ZM23.9315 16.2421L24.3161 16.842C24.7518 17.6298 24.9998 18.536 24.9998 19.5C24.9998 22.5376 22.5374 25 19.4998 25C16.4623 25 13.9998 22.5376 13.9998 19.5C13.9998 16.4624 16.4623 14 19.4998 14C21.318 14 22.9302 14.8823 23.9315 16.2421Z" fill="#212121"/>
</svg>
