<svg width="20" height="20" viewBox="0 0 20 20" fill="none" xmlns="http://www.w3.org/2000/svg">
<path d="M16.293 7.00053L13.6109 4.31802C13.4157 4.12276 13.4157 3.80617 13.6109 3.61091C13.7845 3.43735 14.0539 3.41806 14.2488 3.55306L14.318 3.61091L17.884 7.17971L17.9336 7.25085L17.9612 7.30666L17.984 7.37429L17.9889 7.39501C17.9962 7.4287 18 7.4639 18 7.5L17.9982 7.47569V7.54252L17.9832 7.62883L17.9622 7.69104L17.9228 7.76701L17.8683 7.83816L14.318 11.3891C14.1228 11.5843 13.8062 11.5843 13.6109 11.3891C13.4373 11.2155 13.4181 10.9461 13.5531 10.7512L13.6109 10.682L16.293 8.00053L12 8C8.47823 8 6.11461 6.0242 6.00405 3.20758L6 3C6 2.72386 6.22386 2.5 6.5 2.5C6.77614 2.5 7 2.72386 7 3C7 5.27317 8.80747 6.90459 11.7385 6.99596L12 7L16.293 7.00053ZM11 13.4995C11 15.9848 8.98528 17.9995 6.5 17.9995C4.01472 17.9995 2 15.9848 2 13.4995C2 11.0142 4.01472 8.99951 6.5 8.99951C8.98528 8.99951 11 11.0142 11 13.4995ZM5.87998 10.4995C5.66783 10.4995 5.47878 10.6334 5.40834 10.8335L4.52837 13.3335C4.47451 13.4865 4.49822 13.6561 4.59196 13.7885C4.68569 13.9208 4.83781 13.9995 5 13.9995H5.77583L5.26753 15.8683C5.20276 16.1064 5.32137 16.3561 5.54682 16.4564C5.77227 16.5566 6.03716 16.4774 6.17058 16.2699L8.42059 12.7699C8.5195 12.616 8.5265 12.4205 8.43886 12.2599C8.35121 12.0994 8.18291 11.9995 8 11.9995H7.25371L7.53434 11.1576C7.58516 11.0052 7.55959 10.8375 7.46562 10.7072C7.37164 10.5768 7.22072 10.4995 7.05999 10.4995H5.87998Z" fill="#212121"/>
</svg>
