<svg width="20" height="20" viewBox="0 0 20 20" fill="none" xmlns="http://www.w3.org/2000/svg">
<path d="M13.6114 4.31851L16.2935 7.00102L12.0005 7.00049L11.739 6.99645C8.80796 6.90508 7.00049 5.27366 7.00049 3.00049C7.00049 2.72435 6.77663 2.50049 6.50049 2.50049C6.22435 2.50049 6.00049 2.72435 6.00049 3.00049L6.00454 3.20807C6.1151 6.02469 8.47872 8.00049 12.0005 8.00049L16.2935 8.00102L13.6114 10.6825L13.5535 10.7517C13.4185 10.9466 13.4378 11.216 13.6114 11.3896C13.8067 11.5848 14.1232 11.5848 14.3185 11.3896L17.8688 7.83865L17.9233 7.7675L17.9627 7.69152L17.9837 7.62932L17.9987 7.54301V7.47618L18.0005 7.50049C18.0005 7.46439 17.9967 7.42919 17.9894 7.3955L17.9845 7.37478L17.9617 7.30715L17.9341 7.25134L17.8845 7.1802L14.3185 3.6114L14.2493 3.55355C14.0544 3.41855 13.785 3.43783 13.6114 3.6114C13.4161 3.80666 13.4161 4.12325 13.6114 4.31851ZM2.50247 16H4.25247L3.66267 18.3592C3.54186 18.8424 4.12476 19.1859 4.4889 18.846L9.36145 14.2983C9.85909 13.8338 9.53042 13 8.84971 13H7.75247L8.5331 10.6581C8.64102 10.3343 8.40004 10 8.05876 10H4.58581C4.38396 10 4.2019 10.1214 4.12427 10.3077L2.04093 15.3077C1.90371 15.637 2.14568 16 2.50247 16Z" fill="#212121"/>
</svg>
