<svg width="24" height="24" viewBox="0 0 24 24" fill="none" xmlns="http://www.w3.org/2000/svg">
<path d="M6.08664 9C6.56096 6.29276 8.92458 4.25 11.75 4.25C14.5754 4.25 16.939 6.29276 17.4134 9L17.5 9C19.7091 9 21.5 10.7909 21.5 13C21.5 13.3163 21.4633 13.624 21.3939 13.919L19.9874 12.5126C19.9731 12.4982 19.9585 12.4841 19.9438 12.4704C19.7008 11.344 18.699 10.5 17.5 10.5L16.7439 10.5C16.344 10.5 16.0144 10.1863 15.9948 9.78691C15.8837 7.53125 14.018 5.75 11.75 5.75C9.48202 5.75 7.61629 7.53125 7.50523 9.78691C7.48557 10.1863 7.156 10.5 6.75612 10.5L6 10.5C4.61929 10.5 3.5 11.6193 3.5 13C3.5 14.3807 4.61929 15.5 6 15.5H9.16833C8.94389 15.9734 8.94389 16.5266 9.16833 17H6C3.79086 17 2 15.2091 2 13C2 10.7909 3.79086 9 6.00002 9L6.08664 9ZM13.7803 14.2803C14.0732 13.9874 14.0732 13.5126 13.7803 13.2197C13.4874 12.9268 13.0126 12.9268 12.7197 13.2197L10.2197 15.7197C9.92678 16.0126 9.92678 16.4874 10.2197 16.7803L12.7197 19.2803C13.0126 19.5732 13.4874 19.5732 13.7803 19.2803C14.0732 18.9874 14.0732 18.5126 13.7803 18.2197L12.5607 17H19.4393L18.2197 18.2197C17.9268 18.5126 17.9268 18.9874 18.2197 19.2803C18.5126 19.5732 18.9874 19.5732 19.2803 19.2803L21.7803 16.7803C22.0732 16.4874 22.0732 16.0126 21.7803 15.7197L19.2803 13.2197C18.9874 12.9268 18.5126 12.9268 18.2197 13.2197C17.9268 13.5126 17.9268 13.9874 18.2197 14.2803L19.4393 15.5H12.5607L13.7803 14.2803Z" fill="#212121"/>
</svg>
