<svg width="20" height="20" viewBox="0 0 20 20" fill="none" xmlns="http://www.w3.org/2000/svg">
<path d="M10 4C12.8166 4 14.4145 5.92329 14.6469 8.24599L14.7179 8.24599C16.5306 8.24599 18 9.75792 18 11.623C18 12.0019 17.9394 12.3662 17.8275 12.7062L16.9882 11.8668C16.996 11.7867 17 11.7054 17 11.623C17 10.3039 15.9718 9.24599 14.718 9.24599L14.6469 9.24599C14.1332 9.24601 13.703 8.85673 13.6518 8.34554C13.4497 6.32493 12.1085 5 10 5C7.88606 5 6.55108 6.31588 6.34818 8.34547C6.29707 8.85669 5.86688 9.24601 5.3531 9.24599L5.28207 9.24599C4.02819 9.24599 3 10.3039 3 11.623C3 12.9421 4.02819 14 5.28205 14H8.08542C7.97153 14.3229 7.97153 14.6771 8.08542 15H5.28205C3.46942 15 2 13.4881 2 11.623C2 9.82009 3.3731 8.34717 5.10199 8.25098L5.35314 8.24599C5.58687 5.90802 7.18335 4 10 4ZM11.8536 12.8536C12.0488 12.6583 12.0488 12.3417 11.8536 12.1464C11.6583 11.9512 11.3417 11.9512 11.1464 12.1464L9.14645 14.1464C8.95118 14.3417 8.95118 14.6583 9.14645 14.8536L11.1464 16.8536C11.3417 17.0488 11.6583 17.0488 11.8536 16.8536C12.0488 16.6583 12.0488 16.3417 11.8536 16.1464L10.7071 15H16.2929L15.1464 16.1464C14.9512 16.3417 14.9512 16.6583 15.1464 16.8536C15.3417 17.0488 15.6583 17.0488 15.8536 16.8536L17.8536 14.8536C18.0488 14.6583 18.0488 14.3417 17.8536 14.1464L15.8536 12.1464C15.6583 11.9512 15.3417 11.9512 15.1464 12.1464C14.9512 12.3417 14.9512 12.6583 15.1464 12.8536L16.2929 14H10.7071L11.8536 12.8536Z" fill="#212121"/>
</svg>
