<svg width="20" height="20" viewBox="0 0 20 20" fill="none" xmlns="http://www.w3.org/2000/svg">
<path d="M5.5 3C4.11929 3 3 4.11929 3 5.5V6H17V5.5C17 4.11929 15.8807 3 14.5 3H5.5ZM17 7H3V14.5C3 15.8807 4.11929 17 5.5 17H9.42124L9.49033 16.7731C9.17516 16.0794 8.99984 15.3091 8.99984 14.5C8.99984 13.1499 9.48631 11.9134 10.2935 10.9562C10.2007 10.9847 10.1021 11 10 11C9.44771 11 9 10.5523 9 10C9 9.44771 9.44771 9 10 9C10.5523 9 11 9.44771 11 10C11 10.1022 10.9847 10.2007 10.9562 10.2936C11.9134 9.48642 13.1498 9 14.4998 9C15.4001 9 16.2499 9.21631 17 9.59979V7ZM8 10C8 10.5523 7.55228 11 7 11C6.44772 11 6 10.5523 6 10C6 9.44771 6.44772 9 7 9C7.55228 9 8 9.44771 8 10ZM7 14C6.44772 14 6 13.5523 6 13C6 12.4477 6.44772 12 7 12C7.55228 12 8 12.4477 8 13C8 13.5523 7.55228 14 7 14ZM10.5634 16.6821C10.2043 16.0358 9.99984 15.2918 9.99984 14.5C9.99984 12.0147 12.0146 10 14.4998 10C14.4998 10 14.4999 10 14.4998 10C16.9851 10 19 12.0147 19 14.5C19 16.9853 16.9853 19 14.5 19C13.7085 19 12.9647 18.7956 12.3185 18.4368L10.5294 18.9812C10.2162 19.0765 9.92358 18.7838 10.0189 18.4707L10.5634 16.6821ZM16.4998 13H12.5C12.2239 13 12 13.2239 12 13.5C12 13.7761 12.2239 14 12.5 14H16.4998C16.776 14 16.9998 13.7761 16.9998 13.5C16.9998 13.2239 16.776 13 16.4998 13ZM12.5 15C12.2239 15 12 15.2239 12 15.5C12 15.7761 12.2239 16 12.5 16H14.4998C14.776 16 14.9998 15.7761 14.9998 15.5C14.9998 15.2239 14.776 15 14.4998 15H12.5Z" fill="#212121"/>
</svg>
