<?xml version="1.0" encoding="UTF-8"?>
<svg width="24px" height="24px" viewBox="0 0 24 24" version="1.1" xmlns="http://www.w3.org/2000/svg" xmlns:xlink="http://www.w3.org/1999/xlink">
    <!-- Generator: Sketch 59.1 (86144) - https://sketch.com -->
    <title>ic_forward_24_filled</title>
    <desc>Created with Sketch.</desc>
    <g id="ðŸ”-Product-Icons" stroke="none" stroke-width="1" fill="none" fill-rule="evenodd">
        <g id="ic_forward_24_filled" fill="#212121">
            <path d="M14.2929663,6.29282017 C14.6835309,5.90233622 15.3166959,5.90240164 15.7071798,6.29296628 L15.7071798,6.29296628 L20.7037925,11.2906115 C21.0940593,11.680959 21.0942428,12.313695 20.7042025,12.7042687 L20.7042025,12.7042687 L15.7075898,17.7077144 C15.3173324,18.0985054 14.6841676,18.0989381 14.2933765,17.7086807 C13.9025855,17.3184234 13.9021529,16.6852585 14.2924102,16.2944675 L14.2924102,16.2944675 L17.5809963,13 L3.99999627,13 C3.48716044,13 3.06448911,12.6139598 3.00672401,12.1166211 L2.99999627,12 C2.99999627,11.4477153 3.44771153,11 3.99999627,11 L3.99999627,11 L17.5839963,11 L14.2928202,7.70703372 C13.9323735,7.34651252 13.9047025,6.7792786 14.2097679,6.38701891 Z" id="ðŸŽ¨-Color"></path>
        </g>
    </g>
</svg>