<svg width="32" height="32" viewBox="0 0 32 32" fill="none" xmlns="http://www.w3.org/2000/svg">
<path d="M26.2901 4.29289C26.6806 3.90237 27.3138 3.90237 27.7043 4.29289C28.0948 4.68342 28.0948 5.31658 27.7043 5.70711L17.4129 15.9985L27.7044 26.2901C28.095 26.6806 28.095 27.3138 27.7044 27.7043C27.3139 28.0948 26.6807 28.0948 26.2902 27.7043L15.9987 17.4128L5.70711 27.7043C5.31658 28.0948 4.68342 28.0948 4.29289 27.7043C3.90237 27.3138 3.90237 26.6806 4.29289 26.2901L14.5845 15.9985L4.29301 5.70711C3.90249 5.31658 3.90249 4.68342 4.29301 4.29289C4.68354 3.90237 5.3167 3.90237 5.70723 4.29289L15.9987 14.5843L26.2901 4.29289Z" fill="#212121"/>
</svg>
