<svg width="24" height="24" viewBox="0 0 24 24" fill="none" xmlns="http://www.w3.org/2000/svg">
<path d="M13.3781 3.02583C14.7798 3.10103 16.1492 3.50366 17.391 4.22061C21.6975 6.70697 23.173 12.2137 20.6866 16.5202C18.2003 20.8267 12.6936 22.3022 8.38707 19.8158C7.2143 19.1387 6.22702 18.2227 5.47506 17.1308C5.22365 16.7657 5.38627 16.2615 5.80362 16.1121C9.19524 14.8982 11.0118 13.4915 12.0659 11.4794C13.1756 9.36109 13.4623 7.04073 12.686 3.86014C12.5787 3.42034 12.9261 3.00158 13.3781 3.02583ZM10.9937 3.65277L11 3.75148V8.99956C11 10.1041 10.1046 10.9996 9 10.9996C7.89543 10.9996 7 10.1041 7 8.99956C7 7.89499 7.89543 6.99956 9 6.99956C9.17302 6.99956 9.3409 7.02153 9.50102 7.06283L9.5 4.76359L6 5.8284V9.99956C6 11.1041 5.10457 11.9996 4 11.9996C2.89543 11.9996 2 11.1041 2 9.99956C2 8.89499 2.89543 7.99956 4 7.99956C4.17302 7.99956 4.3409 8.02153 4.50102 8.06283L4.5 5.27264C4.5 4.97919 4.67056 4.71641 4.93029 4.59415L5.03171 4.55511L10.0317 3.03395C10.4814 2.89714 10.9352 3.20205 10.9937 3.65277Z" fill="#212121"/>
</svg>
