<svg width="24" height="24" viewBox="0 0 24 24" fill="none" xmlns="http://www.w3.org/2000/svg">
<path d="M16.2498 12.5H12.2498C11.8358 12.5 11.4998 12.164 11.4998 11.75V5.75C11.4998 5.336 11.8358 5 12.2498 5C12.6638 5 12.9998 5.336 12.9998 5.75V11H16.2498C16.6638 11 16.9998 11.336 16.9998 11.75C16.9998 12.164 16.6638 12.5 16.2498 12.5ZM12.9998 1C7.47776 1 2.99976 5.478 2.99976 11C2.99976 11.206 3.00599 11.4106 3.01828 11.6136C3.49104 11.2299 4.09365 11 4.74995 11H8.24995C9.76873 11 10.9999 12.2312 10.9999 13.75V14.05C12.1411 14.2816 12.9999 15.2905 12.9999 16.5V21C18.5219 20.9999 22.9998 16.5219 22.9998 11C22.9998 5.478 18.5218 1 12.9998 1ZM8.25 13.5H4.75C4.61193 13.5 4.5 13.6119 4.5 13.75V15H8.5V13.75C8.5 13.6119 8.38807 13.5 8.25 13.5ZM3 15V13.75C3 12.7835 3.7835 12 4.75 12H8.25C9.2165 12 10 12.7835 10 13.75V15H10.5C11.3284 15 12 15.6716 12 16.5V18H10V17.5C10 17.2239 9.77614 17 9.5 17C9.22386 17 9 17.2239 9 17.5V18H4V17.5C4 17.2239 3.77614 17 3.5 17C3.22386 17 3 17.2239 3 17.5V18H1V16.5C1 15.6716 1.67157 15 2.5 15H3ZM9 19.5V19H4V19.5C4 19.7761 3.77614 20 3.5 20C3.22386 20 3 19.7761 3 19.5V19H1V21.5C1 22.3284 1.67157 23 2.5 23H10.5C11.3284 23 12 22.3284 12 21.5V19H10V19.5C10 19.7761 9.77614 20 9.5 20C9.22386 20 9 19.7761 9 19.5Z" fill="#212121"/>
</svg>
