<svg width="16" height="16" viewBox="0 0 16 16" fill="none" xmlns="http://www.w3.org/2000/svg">
<path d="M15 5.5C15 7.98528 12.9853 10 10.5 10C8.01472 10 6 7.98528 6 5.5C6 3.01472 8.01472 1 10.5 1C12.9853 1 15 3.01472 15 5.5ZM12.1464 3.64645L9.5 6.29289L8.85355 5.64645C8.65829 5.45118 8.34171 5.45118 8.14645 5.64645C7.95118 5.84171 7.95118 6.15829 8.14645 6.35355L9.14645 7.35355C9.34171 7.54881 9.65829 7.54881 9.85355 7.35355L12.8536 4.35355C13.0488 4.15829 13.0488 3.84171 12.8536 3.64645C12.6583 3.45118 12.3417 3.45118 12.1464 3.64645ZM14 9.74284C13.0491 10.5282 11.8296 11 10.5 11C10.1555 11 9.81847 10.9683 9.49155 10.9078C9.16832 11.2881 8.6922 11.5 8 11.5C7.10266 11.5 6.56844 11.1439 6.25971 10.5264C6.14724 10.3015 6.07341 10.0554 6.03226 9.80842C6.00784 9.66189 6 9.55217 6 9.5C6 9.22386 5.77614 9 5.5 9H3V5.5C3 4.67157 3.67157 4 4.5 4H5.20703C5.30564 3.65136 5.43777 3.31679 5.59971 3H4.5C3.11929 3 2 4.11929 2 5.5V12.5C2 13.8807 3.11929 15 4.5 15H11.5C12.8807 15 14 13.8807 14 12.5V9.74284Z" fill="#212121"/>
</svg>
