<svg width="20" height="20" viewBox="0 0 20 20" fill="none" xmlns="http://www.w3.org/2000/svg">
<path d="M2 5.5C2 4.11929 3.11929 3 4.5 3H6.98223C7.44636 3 7.89148 3.18437 8.21967 3.51256L9.5 4.79289L7.43934 6.85355C7.34557 6.94732 7.21839 7 7.08579 7H2V5.5ZM2 8V14.5C2 15.8807 3.11929 17 4.5 17H9V13.5C9 12.2758 9.87996 11.2571 11.0419 11.0419C11.2571 9.87996 12.2758 9 13.5 9H15.5C16.7242 9 17.7429 9.87996 17.9581 11.0419C17.9721 11.0445 17.9861 11.0472 18 11.05V7.5C18 6.11929 16.8807 5 15.5 5H10.7071L8.14645 7.56066C7.86514 7.84196 7.48361 8 7.08579 8H2ZM12 11.5V12H11.5C10.6716 12 10 12.6716 10 13.5V17.5C10 18.3284 10.6716 19 11.5 19H17.5C18.3284 19 19 18.3284 19 17.5V13.5C19 12.6716 18.3284 12 17.5 12H17V11.5C17 10.6716 16.3284 10 15.5 10H13.5C12.6716 10 12 10.6716 12 11.5ZM13.5 11H15.5C15.7761 11 16 11.2239 16 11.5V12H13V11.5C13 11.2239 13.2239 11 13.5 11Z" fill="#242424"/>
</svg>
