<svg width="32" height="32" viewBox="0 0 32 32" fill="none" xmlns="http://www.w3.org/2000/svg">
<path d="M7.5 3C5.01472 3 3 5.01472 3 7.5V8.5V23.5V24.5C3 26.9853 5.01472 29 7.5 29H24.5C26.9853 29 29 26.9853 29 24.5V23.5V8.5V7.5C29 5.01472 26.9853 3 24.5 3H7.5ZM4 24.5V24L28 24V24.5C28 26.433 26.433 28 24.5 28H7.5C5.567 28 4 26.433 4 24.5ZM4 23V9L28 9V23L4 23ZM28 8L4 8V7.5C4 5.567 5.567 4 7.5 4H24.5C26.433 4 28 5.567 28 7.5V8ZM23.2929 16.5H8.70711L11.3536 19.1464C11.5488 19.3417 11.5488 19.6583 11.3536 19.8536C11.1583 20.0488 10.8417 20.0488 10.6464 19.8536L7.14645 16.3536C7.05268 16.2598 7 16.1326 7 16C7 15.8674 7.05268 15.7402 7.14645 15.6464L10.6464 12.1464C10.8417 11.9512 11.1583 11.9512 11.3536 12.1464C11.5488 12.3417 11.5488 12.6583 11.3536 12.8536L8.70711 15.5H23.2929L20.6464 12.8536C20.4512 12.6583 20.4512 12.3417 20.6464 12.1464C20.8417 11.9512 21.1583 11.9512 21.3536 12.1464L24.8536 15.6464C24.9473 15.7402 25 15.8674 25 16C25 16.1326 24.9473 16.2598 24.8536 16.3536L21.3536 19.8536C21.1583 20.0488 20.8417 20.0488 20.6464 19.8536C20.4512 19.6583 20.4512 19.3417 20.6464 19.1464L23.2929 16.5Z" fill="#212121"/>
</svg>
