<?xml version="1.0" encoding="UTF-8"?>
<svg width="28px" height="28px" viewBox="0 0 28 28" version="1.1" xmlns="http://www.w3.org/2000/svg" xmlns:xlink="http://www.w3.org/1999/xlink">
    <!-- Generator: Sketch 59.1 (86144) - https://sketch.com -->
    <title>ic_fluent_arrow_right_28_filled</title>
    <desc>Created with Sketch.</desc>
    <g id="ðŸ”-Product-Icons" stroke="none" stroke-width="1" fill="none" fill-rule="evenodd">
        <g id="ic_fluent_arrow_right_28_filled" fill="#212121" fill-rule="nonzero">
            <path d="M14.0220928,4.1947124 L14.1052814,4.10050506 C14.4657653,3.7400211 15.0329964,3.71229157 15.4252876,4.01731646 L15.5194949,4.10050506 L24.7118831,13.2928932 C25.0723671,13.6533772 25.1000966,14.2206082 24.7950717,14.6128994 L24.7118831,14.7071068 L15.5194949,23.8994949 C15.1289706,24.2900192 14.4958057,24.2900192 14.1052814,23.8994949 C13.7447974,23.539011 13.7170679,22.9717799 14.0220928,22.5794887 L14.1052814,22.4852814 L21.59,14.9996118 L4,15 C3.48716416,15 3.06449284,14.6139598 3.00672773,14.1166211 L3,14 C3,13.4871642 3.38604019,13.0644928 3.88337887,13.0067277 L4,13 L21.59,12.9996118 L14.1052814,5.51471863 C13.7447974,5.15423466 13.7170679,4.58700361 14.0220928,4.1947124 L14.1052814,4.10050506 L14.0220928,4.1947124 Z" id="ðŸŽ¨-Color"></path>
        </g>
    </g>
</svg>