<svg width="28" height="28" viewBox="0 0 28 28" fill="none" xmlns="http://www.w3.org/2000/svg">
<path d="M3 6.75C3 4.67893 4.67893 3 6.75 3H21.25C23.3211 3 25 4.67893 25 6.75V21.25C25 23.3211 23.3211 25 21.25 25H6.75C4.67893 25 3 23.3211 3 21.25V6.75Z" fill="url(#paint0_linear_72095_8137)"/>
<path d="M12 9.25C12 8.83579 12.3358 8.5 12.75 8.5H20.25C20.6642 8.5 21 8.83579 21 9.25C21 9.66421 20.6642 10 20.25 10H12.75C12.3358 10 12 9.66421 12 9.25ZM12.75 13.5H20.25C20.6642 13.5 21 13.8358 21 14.25C21 14.6642 20.6642 15 20.25 15H12.75C12.3358 15 12 14.6642 12 14.25C12 13.8358 12.3358 13.5 12.75 13.5ZM12 19.25C12 18.8358 12.3358 18.5 12.75 18.5H20.25C20.6642 18.5 21 18.8358 21 19.25C21 19.6642 20.6642 20 20.25 20H12.75C12.3358 20 12 19.6642 12 19.25ZM8.75 10.5C8.05964 10.5 7.5 9.94036 7.5 9.25C7.5 8.55964 8.05964 8 8.75 8C9.44036 8 10 8.55964 10 9.25C10 9.94036 9.44036 10.5 8.75 10.5ZM10 14.25C10 14.9404 9.44036 15.5 8.75 15.5C8.05964 15.5 7.5 14.9404 7.5 14.25C7.5 13.5596 8.05964 13 8.75 13C9.44036 13 10 13.5596 10 14.25ZM8.75 20.5C8.05964 20.5 7.5 19.9404 7.5 19.25C7.5 18.5596 8.05964 18 8.75 18C9.44036 18 10 18.5596 10 19.25C10 19.9404 9.44036 20.5 8.75 20.5Z" fill="url(#paint1_linear_72095_8137)"/>
<defs>
<linearGradient id="paint0_linear_72095_8137" x1="3.78571" y1="7.125" x2="18.9684" y2="22.8992" gradientUnits="userSpaceOnUse">
<stop stop-color="#0FAFFF"/>
<stop offset="1" stop-color="#2764E7"/>
</linearGradient>
<linearGradient id="paint1_linear_72095_8137" x1="10.0962" y1="8.96154" x2="18.7802" y2="31.6849" gradientUnits="userSpaceOnUse">
<stop stop-color="white"/>
<stop offset="1" stop-color="#B3E0FF"/>
</linearGradient>
</defs>
</svg>
