<svg width="24" height="24" viewBox="0 0 24 24" fill="none" xmlns="http://www.w3.org/2000/svg">
<path d="M9.01838 6.0008L7.52668 7.50324L4.25 7.50413C3.83579 7.50413 3.5 7.83992 3.5 8.25413V19.7497C3.5 20.164 3.83579 20.4997 4.25 20.4997H15.75C16.1642 20.4997 16.5 20.164 16.5 19.7497L16.4976 16.4714L18 14.9797V19.7497C18 20.9924 16.9926 21.9997 15.75 21.9997H4.25C3.00736 21.9997 2 20.9924 2 19.7497V8.25413C2 7.01149 3.00736 6.00413 4.25 6.00413L9.01838 6.0008ZM5.2199 12.2192L7.219 10.2218C7.48524 9.9558 7.90164 9.93164 8.19516 10.1493L8.27926 10.2219L13.7802 15.7192C14.0466 15.9855 14.0709 16.4023 13.853 16.6959L13.7803 16.7801L11.7803 18.7801C11.5141 19.0463 11.0974 19.0705 10.8038 18.8527L10.7197 18.7801L5.21967 13.2801C4.95332 13.0137 4.92919 12.5969 5.14722 12.3033L5.2199 12.2192L7.219 10.2218L5.2199 12.2192ZM7.74904 11.8126L6.81089 12.75L11.25 17.1891L12.1892 16.2499L7.74904 11.8126ZM21.2797 2.71807C21.4615 2.89969 21.6151 3.10748 21.7355 3.33455C22.3753 4.54193 21.9593 6.02783 20.8122 6.73447L20.6651 6.81866L19.497 7.43687L20.013 7.95206C21.2353 9.17438 21.2804 11.128 20.1484 12.4037L20.0126 12.5478L18.7803 13.7801C18.5141 14.0463 18.0974 14.0705 17.8038 13.8527L17.7197 13.7801L17.25 13.3107L15.7803 14.7801C15.5141 15.0463 15.0974 15.0705 14.8038 14.8527L14.7197 14.7801L9.21967 9.28008C8.95332 9.01373 8.92919 8.59691 9.14722 8.3033L9.2199 8.21919L10.689 6.74966L10.2197 6.28008C9.95335 6.01375 9.92919 5.59699 10.1472 5.30338L10.2198 5.21926L11.4511 3.98865C12.674 2.76879 14.6259 2.72366 15.9032 3.85367L16.0475 3.98927L16.561 4.50287L17.1789 3.33602C17.269 3.16587 17.3777 3.00653 17.5029 2.86088L17.6336 2.71991C18.64 1.71257 20.2724 1.71175 21.2797 2.71807ZM11.749 7.81263L10.8109 8.74997L15.25 13.1891L16.1892 12.2499L11.749 7.81263ZM12.6359 4.93681L12.511 5.05011L11.8108 5.7499L18.25 12.1891L18.9521 11.487C19.6299 10.8098 19.6357 9.71493 18.9696 9.03022L14.9876 5.05068C14.3435 4.40809 13.3238 4.37027 12.6359 4.93681ZM18.6948 3.78004C18.6443 3.83066 18.5989 3.88613 18.5594 3.9456L18.5047 4.03769L17.672 5.61105L18.3885 6.32755L19.9627 5.49328C20.4884 5.21468 20.6887 4.56266 20.4101 4.03695C20.3598 3.94204 20.2956 3.85518 20.2196 3.77927C19.7983 3.35843 19.1157 3.35878 18.6948 3.78004Z" fill="#212121"/>
</svg>
