<svg width="16" height="16" viewBox="0 0 16 16" fill="none" xmlns="http://www.w3.org/2000/svg">
<path d="M8 1C11.866 1 15 4.13401 15 8C15 11.866 11.866 15 8 15C4.13401 15 1 11.866 1 8C1 4.13401 4.13401 1 8 1ZM9.35352 4.64648C9.15825 4.45122 8.84175 4.45122 8.64648 4.64648L5.64648 7.64648C5.45122 7.84175 5.45122 8.15825 5.64648 8.35352L8.64648 11.3535C8.84175 11.5488 9.15825 11.5488 9.35352 11.3535C9.54878 11.1583 9.54878 10.8417 9.35352 10.6465L6.70703 8L9.35352 5.35352C9.54878 5.15825 9.54878 4.84175 9.35352 4.64648Z" fill="#212121"/>
</svg>
