<svg width="48" height="48" viewBox="0 0 48 48" fill="none" xmlns="http://www.w3.org/2000/svg">
<path d="M24 4C12.9543 4 4 12.9543 4 24C4 35.0457 12.9543 44 24 44C35.0457 44 44 35.0457 44 24C44 12.9543 35.0457 4 24 4ZM27.6339 32.6161C28.122 33.1043 28.122 33.8957 27.6339 34.3839C27.1457 34.872 26.3543 34.872 25.8661 34.3839L16.3661 24.8839C15.878 24.3957 15.878 23.6043 16.3661 23.1161L25.8661 13.6161C26.3543 13.128 27.1457 13.128 27.6339 13.6161C28.122 14.1043 28.122 14.8957 27.6339 15.3839L19.0178 24L27.6339 32.6161Z" fill="#212121"/>
</svg>
