<svg width="16" height="16" viewBox="0 0 16 16" fill="none" xmlns="http://www.w3.org/2000/svg">
<path d="M13 6C14.1046 6 15 6.89543 15 8V13C15 14.1046 14.1046 15 13 15H10C8.89543 15 8 14.1046 8 13V8C8 6.89543 8.89543 6 10 6H13ZM7 13C7 13.3495 7.06202 13.6842 7.17188 13.9961C7.115 13.9975 7.05774 14 7 14C3.85951 14 2 11.9714 2 10V9.5C2 8.67157 2.67157 8 3.5 8H7V13ZM10.5 8C10.2239 8 10 8.22386 10 8.5C10 8.77614 10.2239 9 10.5 9H12.5C12.7761 9 13 8.77614 13 8.5C13 8.22386 12.7761 8 12.5 8H10.5ZM7 1.5C8.51878 1.5 9.75 2.73122 9.75 4.25C9.75 4.51851 9.70847 4.77714 9.63672 5.02246C8.49463 5.16035 7.55239 5.9401 7.17676 6.99023C7.11823 6.99395 7.05947 7 7 7C5.48122 7 4.25 5.76878 4.25 4.25C4.25 2.73122 5.48122 1.5 7 1.5Z" fill="#212121"/>
</svg>
