<svg width="24" height="24" viewBox="0 0 24 24" fill="none" xmlns="http://www.w3.org/2000/svg">
<path d="M10 6.5C10 6.84073 10.0262 7.17534 10.0767 7.50191L3.75 7.50122C3.61193 7.50122 3.5 7.61315 3.5 7.75122V20.2463C3.5 20.3844 3.61193 20.4963 3.75 20.4963H11.2476L11.2468 10.3288C11.6634 10.8994 12.1707 11.3995 12.7475 11.808L12.7476 20.4988H20.2451C20.3832 20.4988 20.4951 20.3869 20.4951 20.2488L20.4958 11.6271C21.0859 11.1666 21.5943 10.6065 21.996 9.97207L21.9951 20.2488C21.9951 21.2153 21.2116 21.9988 20.2451 21.9988H11.2476L11.247 21.9962L3.75 21.9963C2.7835 21.9963 2 21.2128 2 20.2463V7.75122C2 6.78472 2.7835 6.00122 3.75 6.00122L10.0188 6.00167C10.0063 6.16615 10 6.33233 10 6.5ZM16.2387 17.5C16.6529 17.5 16.9887 17.8358 16.9887 18.25C16.9887 18.6297 16.7066 18.9435 16.3405 18.9932L16.2387 19H14.7387C14.3245 19 13.9887 18.6642 13.9887 18.25C13.9887 17.8703 14.2709 17.5565 14.637 17.5068L14.7387 17.5H16.2387ZM9.24289 17.5C9.6571 17.5 9.99289 17.8358 9.99289 18.25C9.99289 18.6297 9.71074 18.9435 9.34466 18.9932L9.24289 19H7.7412C7.32698 19 6.9912 18.6642 6.9912 18.25C6.9912 17.8703 7.27335 17.5565 7.63943 17.5068L7.7412 17.5H9.24289ZM16.5 1C19.5376 1 22 3.46243 22 6.5C22 9.53757 19.5376 12 16.5 12C13.4624 12 11 9.53757 11 6.5C11 3.46243 13.4624 1 16.5 1ZM14.6617 3.96628C14.4911 3.84816 14.2636 3.84816 14.093 3.96628L14.0238 4.02414L13.9659 4.09339C13.8478 4.2639 13.8478 4.49149 13.9659 4.662L14.0238 4.73124L15.7934 6.50069L14.0264 8.26749L13.9685 8.33674C13.8504 8.50725 13.8504 8.73484 13.9685 8.90535L14.0264 8.9746L14.0956 9.03245C14.2661 9.15057 14.4937 9.15057 14.6642 9.03245L14.7335 8.9746L16.5004 7.20769L18.2694 8.97684L18.3386 9.0347C18.5092 9.15282 18.7367 9.15282 18.9073 9.0347L18.9765 8.97684L19.0344 8.90759C19.1525 8.73708 19.1525 8.50949 19.0344 8.33898L18.9765 8.26973L17.2074 6.50069L18.9793 4.73129L19.0371 4.66204C19.1552 4.49153 19.1552 4.26394 19.0371 4.09343L18.9793 4.02419L18.91 3.96633C18.7395 3.84821 18.5119 3.84821 18.3414 3.96633L18.2722 4.02419L16.5004 5.79369L14.7309 4.02414L14.6617 3.96628Z" fill="#212121"/>
</svg>
