<svg width="17" height="16" viewBox="0 0 17 16" fill="none" xmlns="http://www.w3.org/2000/svg">
<path d="M12.1231 6.70711C12.5136 6.31658 12.5136 5.68342 12.1231 5.29289C11.7326 4.90237 11.0994 4.90237 10.7089 5.29289L7.41602 8.58579L6.12312 7.29289C5.7326 6.90237 5.09943 6.90237 4.70891 7.29289C4.31838 7.68342 4.31838 8.31658 4.70891 8.70711L6.70891 10.7071C7.09943 11.0976 7.7326 11.0976 8.12312 10.7071L12.1231 6.70711ZM0.416016 8C0.416016 3.58172 3.99774 0 8.41602 0C12.8343 0 16.416 3.58172 16.416 8C16.416 12.4183 12.8343 16 8.41602 16C3.99774 16 0.416016 12.4183 0.416016 8ZM8.41602 2C5.10231 2 2.41602 4.68629 2.41602 8C2.41602 11.3137 5.10231 14 8.41602 14C11.7297 14 14.416 11.3137 14.416 8C14.416 4.68629 11.7297 2 8.41602 2Z" fill="#212121"/>
</svg>
