<svg width="24" height="24" viewBox="0 0 24 24" fill="none" xmlns="http://www.w3.org/2000/svg">
<path d="M6.07981 8.01936C6.54808 5.17188 9.02022 3 12 3C14.9798 3 17.4519 5.17189 17.9202 8.01936C20.2085 8.23125 22 10.1564 22 12.5C22 12.6664 21.991 12.8307 21.9734 12.9925C20.8175 11.1925 18.798 10 16.5 10C12.9101 10 10 12.9101 10 16.5C10 16.6682 10.0064 16.835 10.0189 17H6.5C4.01472 17 2 14.9853 2 12.5C2 10.1564 3.79155 8.23125 6.07981 8.01936ZM22 16.5C22 19.5376 19.5376 22 16.5 22C13.4624 22 11 19.5376 11 16.5C11 13.4624 13.4624 11 16.5 11C19.5376 11 22 13.4624 22 16.5ZM17 13.5C17 13.2239 16.7761 13 16.5 13C16.2239 13 16 13.2239 16 13.5V18.2929L14.3536 16.6464C14.1583 16.4512 13.8417 16.4512 13.6464 16.6464C13.4512 16.8417 13.4512 17.1583 13.6464 17.3536L16.1464 19.8536C16.3417 20.0488 16.6583 20.0488 16.8536 19.8536L19.3536 17.3536C19.5488 17.1583 19.5488 16.8417 19.3536 16.6464C19.1583 16.4512 18.8417 16.4512 18.6464 16.6464L17 18.2929V13.5Z" fill="#212121"/>
</svg>
