<svg width="24" height="24" viewBox="0 0 24 24" fill="none" xmlns="http://www.w3.org/2000/svg">
<path d="M21.0713 8.85993C21.6755 9.85813 22 11.063 22 12.5001C22 14.706 21.1671 16.2492 20.3194 17.2381C19.899 17.7287 19.4777 18.0802 19.1579 18.3112C19.1021 18.3514 19.0493 18.3881 19 18.4214V20.2501C19 21.2166 18.2165 22.0001 17.25 22.0001H16C15.1716 22.0001 14.5 21.3285 14.5 20.5001H12.5C12.5 21.3285 11.8284 22.0001 11 22.0001H9.75C8.7835 22.0001 8 21.2166 8 20.2501V19.5674C7.86194 19.5209 7.7053 19.4631 7.53573 19.3922C6.93965 19.1427 6.15955 18.7203 5.46967 18.0304C4.68564 17.2464 4.16052 16.4283 3.8651 15.8994C3.77791 15.7433 3.64768 15.66 3.53621 15.6414C2.64973 15.4937 2 14.7267 2 13.828V12.0751C2 11.2324 2.60926 10.5132 3.44051 10.3746C3.52742 10.3601 3.6555 10.2738 3.71651 10.0911C3.90886 9.51484 4.28209 8.6573 4.96967 7.96972C5.53209 7.40731 6.15488 6.99416 6.6279 6.72387C6.76427 6.64594 6.88983 6.57896 7 6.52288V3.67121C7 2.73331 8.13062 2.34833 8.73986 2.95499C9.07031 3.28404 9.55006 3.72288 10.0811 4.08935C10.6111 4.45512 11.1143 4.74929 11.5352 4.74929C15.7829 4.74929 19.2193 5.80027 21.0713 8.85993Z" fill="url(#paint0_radial_70646_5963)"/>
<path d="M9 10C9 10.5523 8.55228 11 8 11C7.44772 11 7 10.5523 7 10C7 9.44772 7.44772 9 8 9C8.55228 9 9 9.44772 9 10Z" fill="url(#paint1_radial_70646_5963)"/>
<path d="M10.5492 6.50277C10.8025 5.88946 11.5049 5.59754 12.1182 5.85076L19.4939 8.89597C20.1073 9.14919 20.3992 9.85165 20.146 10.465C19.8927 11.0783 19.1903 11.3702 18.577 11.117L11.2013 8.07177C10.5879 7.81855 10.296 7.11609 10.5492 6.50277Z" fill="#9F1459"/>
<path d="M17.545 10.6907C18.987 10.0863 20 8.66147 20 7C20 4.79086 18.2091 3 16 3C13.7909 3 12 4.79086 12 7C12 7.5403 12.1071 8.05558 12.3013 8.52576L17.545 10.6907Z" fill="url(#paint2_linear_70646_5963)"/>
<path d="M17.545 10.6907C18.987 10.0863 20 8.66147 20 7C20 4.79086 18.2091 3 16 3C13.7909 3 12 4.79086 12 7C12 7.5403 12.1071 8.05558 12.3013 8.52576L17.545 10.6907Z" fill="url(#paint3_linear_70646_5963)" fill-opacity="0.8"/>
<defs>
<radialGradient id="paint0_radial_70646_5963" cx="0" cy="0" r="1" gradientUnits="userSpaceOnUse" gradientTransform="translate(8.125 4.5625) rotate(74.0806) scale(18.9128 19.5608)">
<stop stop-color="#F08AF4"/>
<stop offset="0.58054" stop-color="#E869CE"/>
<stop offset="1" stop-color="#D7257D"/>
</radialGradient>
<radialGradient id="paint1_radial_70646_5963" cx="0" cy="0" r="1" gradientUnits="userSpaceOnUse" gradientTransform="translate(7.59765 9.53942) rotate(59.532) scale(1.69458)">
<stop stop-color="#B91D6B"/>
<stop offset="1" stop-color="#670938"/>
</radialGradient>
<linearGradient id="paint2_linear_70646_5963" x1="18.7453" y1="9.82036" x2="12.6508" y2="4.62915" gradientUnits="userSpaceOnUse">
<stop stop-color="#FF8A69"/>
<stop offset="1" stop-color="#FFCD0F"/>
</linearGradient>
<linearGradient id="paint3_linear_70646_5963" x1="17.1875" y1="3.4375" x2="14.5625" y2="9.75" gradientUnits="userSpaceOnUse">
<stop offset="0.67" stop-color="#FB5937" stop-opacity="0"/>
<stop offset="1" stop-color="#CD3E1D"/>
</linearGradient>
</defs>
</svg>
