<svg width="32" height="32" viewBox="0 0 32 32" fill="none" xmlns="http://www.w3.org/2000/svg">
<path d="M5 3C3.34315 3 2 4.34315 2 6V12C2 16.0219 4.6381 19.4276 8.27828 20.5811C8.09604 19.7497 8 18.8861 8 18C8 15.8194 8.58163 13.7747 9.59821 12.0124L7.29289 9.70711C6.90237 9.31658 6.90237 8.68342 7.29289 8.29289C7.68342 7.90237 8.31658 7.90237 8.70711 8.29289L10.7587 10.3445C12.5299 8.20888 15.0272 6.6972 17.8721 6.1881C16.2212 4.23802 13.7552 3 11 3H5ZM19.0849 8.04131C16.2939 8.29451 13.8341 9.69445 12.1804 11.7662C11.7555 12.2984 11.3839 12.8749 11.0735 13.4877C10.3869 14.8433 10 16.3765 10 18C10 19.0392 10.1585 20.0413 10.4527 20.9836C10.8382 22.2187 11.4569 23.3509 12.2571 24.3287L9.29289 27.2929C8.90237 27.6834 8.90237 28.3166 9.29289 28.7071C9.68342 29.0976 10.3166 29.0976 10.7071 28.7071L13.6713 25.7429C15.3951 27.1536 17.5987 28 20 28C25.5228 28 30 23.5228 30 18V11C30 9.34315 28.6569 8 27 8H20C19.6915 8 19.3863 8.01397 19.0849 8.04131ZM21.7071 16.2929C22.0976 16.6834 22.0976 17.3166 21.7071 17.7071L15.0944 24.3199C14.5661 23.9092 14.0908 23.4339 13.6801 22.9056L20.2929 16.2929C20.6834 15.9024 21.3166 15.9024 21.7071 16.2929Z" fill="#212121"/>
</svg>
