<svg width="20" height="20" viewBox="0 0 20 20" fill="none" xmlns="http://www.w3.org/2000/svg">
<path d="M6 15V5C6 4.46957 5.78929 3.96086 5.41421 3.58579C5.03914 3.21071 4.53043 3 4 3H2.5C2.36739 3 2.24021 3.05268 2.14645 3.14645C2.05268 3.24021 2 3.36739 2 3.5C2 3.63261 2.05268 3.75979 2.14645 3.85355C2.24021 3.94732 2.36739 4 2.5 4H4C4.26522 4 4.51957 4.10536 4.70711 4.29289C4.89464 4.48043 5 4.73478 5 5V7H2.5C2.36739 7 2.24021 7.05268 2.14645 7.14645C2.05268 7.24021 2 7.36739 2 7.5C2 7.63261 2.05268 7.75979 2.14645 7.85355C2.24021 7.94732 2.36739 8 2.5 8H5V12H2.5C2.36739 12 2.24021 12.0527 2.14645 12.1464C2.05268 12.2402 2 12.3674 2 12.5C2 12.6326 2.05268 12.7598 2.14645 12.8536C2.24021 12.9473 2.36739 13 2.5 13H5V15C5 15.2652 4.89464 15.5196 4.70711 15.7071C4.51957 15.8946 4.26522 16 4 16H2.5C2.36739 16 2.24021 16.0527 2.14645 16.1464C2.05268 16.2402 2 16.3674 2 16.5C2 16.6326 2.05268 16.7598 2.14645 16.8536C2.24021 16.9473 2.36739 17 2.5 17H4C4.53043 17 5.03914 16.7893 5.41421 16.4142C5.78929 16.0391 6 15.5304 6 15ZM17.8536 10.8536C17.7598 10.9473 17.6326 11 17.5 11H15V13C15 13.2652 15.1054 13.5196 15.2929 13.7071C15.4804 13.8946 15.7348 14 16 14H17.5C17.6326 14 17.7598 14.0527 17.8536 14.1464C17.9473 14.2402 18 14.3674 18 14.5C18 14.6326 17.9473 14.7598 17.8536 14.8536C17.7598 14.9473 17.6326 15 17.5 15H16C15.4696 15 14.9609 14.7893 14.5858 14.4142C14.2107 14.0391 14 13.5304 14 13V8C14 7.46957 14.2107 6.96086 14.5858 6.58579C14.9609 6.21071 15.4696 6 16 6H17.5C17.6326 6 17.7598 6.05268 17.8536 6.14645C17.9473 6.24021 18 6.36739 18 6.5C18 6.63261 17.9473 6.75979 17.8536 6.85355C17.7598 6.94732 17.6326 7 17.5 7H16C15.7348 7 15.4804 7.10536 15.2929 7.29289C15.1054 7.48043 15 7.73478 15 8V10H17.5C17.6326 10 17.7598 10.0527 17.8536 10.1464C17.9473 10.2402 18 10.3674 18 10.5C18 10.6326 17.9473 10.7598 17.8536 10.8536ZM9.99937 11.5C9.99937 11.3672 10.0521 11.2399 10.146 11.146L10.793 10.5H8C7.86739 10.5 7.74021 10.4473 7.64645 10.3536C7.55268 10.2598 7.5 10.1326 7.5 10C7.5 9.86741 7.55268 9.74024 7.64645 9.64647C7.74021 9.5527 7.86739 9.50002 8 9.50002H10.793L10.146 8.85402C10.0521 8.76013 9.99937 8.6328 9.99937 8.50002C9.99937 8.36725 10.0521 8.23991 10.146 8.14602C10.2399 8.05213 10.3672 7.99939 10.5 7.99939C10.6328 7.99939 10.7601 8.05213 10.854 8.14602L12.354 9.64602C12.4006 9.69247 12.4375 9.74764 12.4627 9.80839C12.4879 9.86913 12.5009 9.93425 12.5009 10C12.5009 10.0658 12.4879 10.1309 12.4627 10.1917C12.4375 10.2524 12.4006 10.3076 12.354 10.354L10.854 11.854C10.7601 11.9479 10.6328 12.0007 10.5 12.0007C10.3672 12.0007 10.2399 11.9479 10.146 11.854C10.0521 11.7601 9.99937 11.6328 9.99937 11.5Z" fill="#212121"/>
</svg>
