<?xml version="1.0" encoding="UTF-8"?>
<svg width="16px" height="16px" viewBox="0 0 16 16" version="1.1" xmlns="http://www.w3.org/2000/svg" xmlns:xlink="http://www.w3.org/1999/xlink">
    <!-- Generator: Sketch 59.1 (86144) - https://sketch.com -->
    <title>ic_fluent_person_16_filled</title>
    <desc>Created with Sketch.</desc>
    <g id="ðŸ”-Product-Icons" stroke="none" stroke-width="1" fill="none" fill-rule="evenodd">
        <g id="ic_fluent_person_16_filled" fill="#212121" fill-rule="nonzero">
            <path d="M11.5,8 C12.3284271,8 13,8.67157288 13,9.5 L13,10 C13,11.9714437 11.14049,14 8,14 C4.85950997,14 3,11.9714437 3,10 L3,9.5 C3,8.67157288 3.67157288,8 4.5,8 L11.5,8 Z M8,1.5 C9.51878306,1.5 10.75,2.73121694 10.75,4.25 C10.75,5.76878306 9.51878306,7 8,7 C6.48121694,7 5.25,5.76878306 5.25,4.25 C5.25,2.73121694 6.48121694,1.5 8,1.5 Z" id="ðŸŽ¨-Color"></path>
        </g>
    </g>
</svg>