<?xml version="1.0" encoding="UTF-8"?>
<svg width="24px" height="24px" viewBox="0 0 24 24" version="1.1" xmlns="http://www.w3.org/2000/svg" xmlns:xlink="http://www.w3.org/1999/xlink">
    <!-- Generator: Sketch 59.1 (86144) - https://sketch.com -->
    <title>ic_cellular_unavailable_24_filled</title>
    <desc>Created with Sketch.</desc>
    <g id="ðŸ”-Product-Icons" stroke="none" stroke-width="1" fill="none" fill-rule="evenodd">
        <g id="ic_cellular_unavailable_24_filled" fill="#212121" fill-rule="nonzero">
            <path d="M20,19 C20.5522847,19 21,19.4477153 21,20 C21,20.5522847 20.5522847,21 20,21 C19.4477153,21 19,20.5522847 19,20 C19,19.4477153 19.4477153,19 20,19 Z M16,9 C16.5523,9 17,9.44567197 17,9.99542565 L17,20.0045744 C17,20.5543479 16.5523,21 16,21 C15.4477,21 15,20.5543479 15,20.0045744 L15,9.99542565 C15,9.44567197 15.4477,9 16,9 Z M12,12 C12.5523,12 13,12.4477 13,13 L13,20 C13,20.5523 12.5523,21 12,21 C11.4477,21 11,20.5523 11,20 L11,13 C11,12.4477 11.4477,12 12,12 Z M8,15 C8.55228,15 9,15.4450832 9,15.9941551 L9,20.0058449 C9,20.5549168 8.55228,21 8,21 C7.44772,21 7,20.5549168 7,20.0058449 L7,15.9941551 C7,15.4450832 7.44772,15 8,15 Z M4,18 C4.55228,18 5,18.4403401 5,18.9835607 L5,20.0164393 C5,20.5596599 4.55228,21 4,21 C3.44772,21 3,20.5596599 3,20.0164393 L3,18.9835607 C3,18.4403401 3.44772,18 4,18 Z M20,6 C20.5523,6 21,6.44734644 21,6.99916563 L21,16.9961396 C21,17.5479788 20.5523,17.9953052 20,17.9953052 C19.4477,17.9953052 19,17.5479788 19,16.9961396 L19,6.99916563 C19,6.44734644 19.4477,6 20,6 Z" id="ðŸŽ¨-Color"></path>
        </g>
    </g>
</svg>