<svg width="32" height="32" viewBox="0 0 32 32" fill="none" xmlns="http://www.w3.org/2000/svg">
<path d="M14 16C17.866 16 21 12.866 21 8.99998C21 5.134 17.866 2 14 2C10.134 2 7 5.134 7 8.99998C7 12.866 10.134 16 14 16ZM5.5 18C3.56696 18 1.99994 19.567 2 21.5001L2.00001 22C2.00003 24.3935 3.52264 26.4174 5.68492 27.7934C7.85906 29.177 10.8015 30 13.9999 30C15.047 30 16.0666 29.9118 17.0408 29.7446C15.1759 28.0956 14 25.6851 14 23C14 21.1498 14.5583 19.4301 15.5156 18H5.5ZM23 30.5C27.1421 30.5 30.5 27.1421 30.5 23C30.5 18.8579 27.1421 15.5 23 15.5C18.8579 15.5 15.5 18.8579 15.5 23C15.5 27.1421 18.8579 30.5 23 30.5ZM23 28.5C21.8425 28.5 20.7685 28.1424 19.8825 27.5318L27.5318 19.8825C28.1424 20.7685 28.5 21.8425 28.5 23C28.5 26.0376 26.0376 28.5 23 28.5ZM26.1176 18.4683L18.4683 26.1176C17.8576 25.2315 17.5 24.1575 17.5 23C17.5 19.9624 19.9624 17.5 23 17.5C24.1575 17.5 25.2315 17.8576 26.1176 18.4683Z" fill="#212121"/>
</svg>
