<svg width="20" height="20" viewBox="0 0 20 20" fill="none" xmlns="http://www.w3.org/2000/svg">
<path d="M11.5 2.99792C10.6716 2.99792 10 3.6695 10 4.49792C10 5.32635 10.6716 5.99792 11.5 5.99792C12.3284 5.99792 13 5.32635 13 4.49792C13 3.6695 12.3284 2.99792 11.5 2.99792ZM9 4.49792C9 3.11721 10.1193 1.99792 11.5 1.99792C12.8807 1.99792 14 3.11721 14 4.49792C14 5.29813 13.624 6.01052 13.0391 6.46811C13.5266 6.67482 13.9514 7.02098 14.2538 7.4745L14.779 8.26239L16.268 9.32598C17.0545 9.88775 17.2367 10.9807 16.6749 11.7672C16.1131 12.5537 15.0202 12.7358 14.2337 12.174L12.4837 10.924C12.4529 10.9021 12.4229 10.8791 12.3937 10.8553L12.3793 10.8985L13.322 12.3252C13.5725 12.7043 13.7251 13.1396 13.7663 13.5922L13.9935 16.0915C14.081 17.054 13.3716 17.9052 12.4091 17.9927C11.4466 18.0802 10.5953 17.3709 10.5078 16.4084L10.2977 14.0971L9.80411 13.35L8.37436 16.9033C8.01357 17.7999 6.99423 18.2343 6.0976 17.8735C5.20096 17.5127 4.76657 16.4934 5.12736 15.5967L6.47445 12.2489C6.23443 12.2591 5.98842 12.2198 5.75089 12.1248C4.85353 11.7659 4.41707 10.7474 4.77603 9.85003L5.87603 7.10017C6.08472 6.57848 6.53121 6.18872 7.07631 6.05241L8.61602 5.66738C8.82492 5.61514 9.03706 5.5881 9.24829 5.58543C9.0892 5.25662 9 4.88769 9 4.49792ZM9.31751 6.52252L7.31751 7.02253C7.08394 7.08092 6.89261 7.2479 6.80313 7.47141L5.70235 10.2213C5.54842 10.6058 5.73536 11.0423 6.11991 11.1963C6.50446 11.3502 6.94099 11.1633 7.09492 10.7787L7.96053 8.61635C8.01875 8.47091 8.14325 8.36226 8.29524 8.32426C8.68191 8.22759 9.01513 8.61012 8.86635 8.97989L6.05363 15.9702C5.89901 16.3544 6.08518 16.7913 6.46945 16.9459C6.85372 17.1005 7.29058 16.9144 7.4452 16.5301L8.87496 12.9768C9.17588 12.229 10.1926 12.1263 10.637 12.7989L11.2347 13.7035C11.2575 13.7379 11.2713 13.7775 11.2751 13.8187L11.5023 16.318C11.5398 16.7305 11.9046 17.0345 12.3171 16.997C12.7296 16.9595 13.0336 16.5947 12.9961 16.1822L12.7689 13.6828C12.7427 13.3949 12.6456 13.1179 12.4862 12.8766L11.5618 11.4775C11.3853 11.2104 11.3474 10.8749 11.4598 10.5751L11.8384 9.56544C11.8651 9.49426 11.9105 9.43162 11.9699 9.38413C12.1631 9.2296 12.4471 9.27371 12.5844 9.47954L12.8754 9.91605C12.9258 9.99165 12.9895 10.0575 13.0635 10.1103L14.8135 11.3604C15.1505 11.6012 15.6189 11.5231 15.8597 11.1861C16.1005 10.849 16.0224 10.3806 15.6854 10.1399L14.1963 9.07612C14.0977 9.0057 14.0128 8.91795 13.9456 8.81715L13.1234 7.58407C13.0199 7.42885 12.8623 7.31776 12.6813 7.27252L9.68132 6.52252C9.56189 6.49266 9.43694 6.49266 9.31751 6.52252Z" fill="#212121"/>
</svg>
