<svg width="12" height="12" viewBox="0 0 12 12" fill="none" xmlns="http://www.w3.org/2000/svg">
<path d="M1 6C1 3.23858 3.23858 1 6 1C8.76142 1 11 3.23858 11 6C11 8.76142 8.76142 11 6 11C3.23858 11 1 8.76142 1 6ZM8.35355 5.10355C8.54882 4.90829 8.54882 4.59171 8.35355 4.39645C8.15829 4.20118 7.84171 4.20118 7.64645 4.39645L5.5 6.54289L4.35355 5.39645C4.15829 5.20118 3.84171 5.20118 3.64645 5.39645C3.45118 5.59171 3.45118 5.90829 3.64645 6.10355L5.14645 7.60355C5.34171 7.79882 5.65829 7.79882 5.85355 7.60355L8.35355 5.10355Z" fill="#212121"/>
</svg>
