<svg width="17" height="16" viewBox="0 0 17 16" fill="none" xmlns="http://www.w3.org/2000/svg">
<path d="M10.042 5.06907C8.7295 5.27865 7.57195 5.95255 6.74305 6.91706C5.54959 6.61687 4.66602 5.53662 4.66602 4.25C4.66602 2.73122 5.89723 1.5 7.41602 1.5C8.9348 1.5 10.166 2.73122 10.166 4.25C10.166 4.53525 10.1226 4.81036 10.042 5.06907ZM6.01573 8C5.63229 8.75007 5.41602 9.59978 5.41602 10.5C5.41602 11.8095 5.87368 13.0122 6.63777 13.9567C3.97069 13.653 2.41602 11.8026 2.41602 10V9.5C2.41602 8.67157 3.08759 8 3.91602 8H6.01573ZM7.0506 9.91995C8.13855 9.64203 8.78455 8.52312 8.48126 7.44197L8.32507 6.88518C8.57915 6.68988 8.85453 6.52258 9.14696 6.3877L9.48433 6.74567C10.2733 7.58279 11.604 7.58349 12.3938 6.7472L12.7185 6.40341C13.0163 6.54393 13.2961 6.7182 13.5533 6.92148L13.4271 7.34378C13.0978 8.44593 13.7638 9.59805 14.8832 9.86273L15.2322 9.94525C15.2538 10.127 15.2649 10.3121 15.2649 10.4999C15.2649 10.6559 15.2573 10.81 15.2423 10.9619L14.7818 11.0796C13.6938 11.3575 13.0478 12.4764 13.3511 13.5575L13.5072 14.1142C13.2532 14.3095 12.9778 14.4769 12.6854 14.6118L12.348 14.2538C11.5591 13.4167 10.2283 13.416 9.43851 14.2523L9.11352 14.5964C8.81579 14.4559 8.53605 14.2817 8.27887 14.0785L8.40521 13.6557C8.73454 12.5536 8.06856 11.4015 6.94912 11.1368L6.59956 11.0541C6.578 10.8725 6.56689 10.6875 6.56689 10.4999C6.56689 10.3438 6.57457 10.1897 6.58955 10.0377L7.0506 9.91995ZM11.9159 10.4999C11.9159 9.94757 11.4682 9.49985 10.9159 9.49985C10.3636 9.49985 9.91591 9.94757 9.91591 10.4999C9.91591 11.0521 10.3636 11.4999 10.9159 11.4999C11.4682 11.4999 11.9159 11.0521 11.9159 10.4999Z" fill="#212121"/>
</svg>
