<svg width="20" height="20" viewBox="0 0 20 20" fill="none" xmlns="http://www.w3.org/2000/svg">
<path d="M9.8217 3.32935C9.89349 3.13164 10.0813 3 10.2917 3H12.27C14.9209 3 16.7716 5.62619 15.88 8.12262L15.761 8.45595C15.2161 9.98159 13.771 11 12.1509 11H8.09651L5.96818 16.6756C5.87122 16.9341 5.58301 17.0651 5.32445 16.9682C5.06589 16.8712 4.93489 16.583 5.03185 16.3244L7.28093 10.3269L9.8217 3.32935ZM8.4635 10H12.1509C13.3484 10 14.4165 9.24727 14.8192 8.11962L14.9383 7.78629C15.5973 5.94109 14.2293 4 12.27 4H10.6421L8.4635 10Z" fill="#212121"/>
</svg>
