<svg width="16" height="16" viewBox="0 0 16 16" fill="none" xmlns="http://www.w3.org/2000/svg">
<path d="M7.79515 2.49369C7.90292 2.1973 8.18461 2 8.49999 2H9.65378C12.1416 2 13.8352 4.52262 12.8932 6.82522C12.3551 8.1406 11.075 9 9.65378 9H7.0321L5.45788 13.4978C5.32105 13.8887 4.89319 14.0947 4.50223 13.9579C4.11127 13.8211 3.90526 13.3932 4.0421 13.0022L5.79509 7.99367L7.79515 2.49369ZM7.57077 7.5H9.65378C10.4659 7.5 11.1974 7.00892 11.5049 6.25727C12.0431 4.9415 11.0754 3.5 9.65378 3.5H9.02531L7.57077 7.5Z" fill="#212121"/>
</svg>
