<svg width="24" height="24" viewBox="0 0 24 24" fill="none" xmlns="http://www.w3.org/2000/svg">
<path d="M15.1133 17.25V16H12.6513L12.7493 16.1959C12.9142 16.5257 13 16.8894 13 17.2581V17.5H14.8633C15.0014 17.5 15.1133 17.3881 15.1133 17.25ZM15.1133 14.5H11.9013L11.7244 14.1462C11.5737 13.8447 11.3639 13.5848 11.1133 13.3777V13H14.8633C15.0014 13 15.1133 13.1119 15.1133 13.25V14.5ZM13 20.25V19H14.8633C15.8298 19 16.6133 18.2165 16.6133 17.25V13.25C16.6133 12.2835 15.8298 11.5 14.8633 11.5H9.18062C8.75025 11.1856 8.21979 11 7.64598 11H3.61328V4C3.61328 2.89543 4.50871 2 5.61328 2H11.6133V8C11.6133 9.10457 12.5087 10 13.6133 10H19.6133V20C19.6133 21.1046 18.7178 22 17.6133 22H12.2307C12.7036 21.5659 13 20.9426 13 20.25ZM13.1133 8V2.5L19.1133 8.5H13.6133C13.3371 8.5 13.1133 8.27614 13.1133 8ZM1 13.6042C1 12.7182 1.71821 12 2.60417 12H7.64598C8.53194 12 9.25015 12.7182 9.25015 13.6042V13.8333H9.60014C10.1209 13.8333 10.5971 14.1276 10.83 14.5934L11.8548 16.6431C11.9503 16.8341 12 17.0446 12 17.2581V20.25C12 21.0094 11.3844 21.625 10.625 21.625H10.1089C9.90539 22.4157 9.18759 23 8.33333 23C7.47907 23 6.76128 22.4157 6.55776 21.625H5.52558C5.32206 22.4157 4.60426 23 3.75 23C2.84544 23 2.09389 22.3449 1.9439 21.4833C1.38729 21.2316 1 20.6714 1 20.0208V13.6042ZM9.25015 14.75V16.5833H10.8001L10.0101 15.0034C9.93244 14.8481 9.77374 14.75 9.60014 14.75H9.25015ZM3.75 20.25C3.24374 20.25 2.83333 20.6604 2.83333 21.1667C2.83333 21.6729 3.24374 22.0833 3.75 22.0833C4.25626 22.0833 4.66667 21.6729 4.66667 21.1667C4.66667 20.6604 4.25626 20.25 3.75 20.25ZM7.41667 21.1667C7.41667 21.6729 7.82707 22.0833 8.33333 22.0833C8.83959 22.0833 9.25 21.6729 9.25 21.1667C9.25 20.6604 8.83959 20.25 8.33333 20.25C7.82707 20.25 7.41667 20.6604 7.41667 21.1667Z" fill="#212121"/>
</svg>
