<?xml version="1.0" encoding="UTF-8"?>
<svg width="20px" height="20px" viewBox="0 0 20 20" version="1.1" xmlns="http://www.w3.org/2000/svg" xmlns:xlink="http://www.w3.org/1999/xlink">
    <!-- Generator: Sketch 59.1 (86144) - https://sketch.com -->
    <title>ic_fluent_wi_fi_2_20_filled</title>
    <desc>Created with Sketch.</desc>
    <g id="ðŸ”-Product-Icons" stroke="none" stroke-width="1" fill="none" fill-rule="evenodd">
        <g id="ic_fluent_wi_fi_2_20_filled" fill="#212121" fill-rule="nonzero">
            <path d="M14.589911,9.45134061 C15.0625092,9.92393883 15.4707969,10.4960044 15.7818668,11.1041841 C15.9704868,11.4729596 15.8244421,11.924818 15.4556666,12.1134381 C15.0868911,12.3020581 14.6350328,12.1560134 14.4464127,11.7872379 C14.2046708,11.3146027 13.8876142,10.8703641 13.5292508,10.5120008 C11.5989867,8.58173663 8.46941013,8.58173663 6.53914599,10.5120008 C6.16406326,10.8870835 5.85958205,11.3085228 5.62508823,11.7721209 C5.43812945,12.1417413 4.98693283,12.2898179 4.61731236,12.1028591 C4.24769189,11.9159003 4.09961533,11.4647037 4.2865741,11.0950832 C4.59251402,10.4902352 4.99062323,9.9392032 5.47848582,9.45134061 C7.9945364,6.93529002 12.0738604,6.93529002 14.589911,9.45134061 Z M12.9548109,11.8405542 C13.3182858,12.2040292 13.6165356,12.649277 13.8241694,13.123108 C13.9904176,13.5024949 13.8176346,13.9448196 13.4382477,14.1110678 C13.0588608,14.277316 12.6165362,14.1045329 12.450288,13.725146 C12.315859,13.4183722 12.122198,13.1292616 11.8941507,12.9012144 C10.8669274,11.8739911 9.20146939,11.8739911 8.17424609,12.9012144 C7.94759918,13.1278613 7.76287446,13.4049666 7.62723954,13.7149471 C7.46119595,14.0944236 7.01896456,14.2674451 6.63948807,14.1014015 C6.26001159,13.935358 6.08699003,13.4931266 6.25303361,13.1136501 C6.46153782,12.6371339 6.75054398,12.2035961 7.11358592,11.8405542 C8.72659565,10.2275445 11.3418011,10.2275445 12.9548109,11.8405542 Z M10.9212797,13.8817005 C11.4064261,14.3668469 11.4064261,15.1534247 10.9212797,15.6385711 C10.4361333,16.1237175 9.6495555,16.1237175 9.16440908,15.6385711 C8.67926266,15.1534247 8.67926266,14.3668469 9.16440908,13.8817005 C9.6495555,13.3965541 10.4361333,13.3965541 10.9212797,13.8817005 Z" id="ðŸŽ¨-Color"></path>
        </g>
    </g>
</svg>