<svg width="20" height="20" viewBox="0 0 20 20" fill="none" xmlns="http://www.w3.org/2000/svg">
<path d="M4.34239 4.34305C4.63527 4.05028 5.11007 4.05024 5.40294 4.34305C5.69579 4.63591 5.69572 5.11069 5.40294 5.4036C2.86456 7.94197 2.86464 12.0576 5.40294 14.596C5.69577 14.8888 5.69566 15.3636 5.40294 15.6565C5.11004 15.9494 4.63528 15.9494 4.34239 15.6565C1.2183 12.5323 1.21823 7.46721 4.34239 4.34305ZM14.5953 4.34305C14.8882 4.05024 15.363 4.05028 15.6559 4.34305C18.78 7.46721 18.78 12.5323 15.6559 15.6565C15.363 15.9494 14.8882 15.9494 14.5953 15.6565C14.3026 15.3636 14.3025 14.8888 14.5953 14.596C17.1336 12.0576 17.1337 7.94197 14.5953 5.4036C14.3025 5.11069 14.3025 4.63591 14.5953 4.34305ZM6.46348 6.46414C6.75639 6.1716 7.23124 6.17141 7.52403 6.46414C7.81681 6.75693 7.81659 7.23177 7.52403 7.52469C6.1572 8.89153 6.1572 11.1081 7.52403 12.4749C7.81675 12.7677 7.81672 13.2426 7.52403 13.5354C7.23118 13.8283 6.75639 13.8282 6.46348 13.5354C4.51086 11.5828 4.51086 8.41676 6.46348 6.46414ZM12.4732 6.46414C12.766 6.17139 13.2409 6.17163 13.5338 6.46414C15.4864 8.41676 15.4864 11.5828 13.5338 13.5354C13.2409 13.8282 12.7661 13.8283 12.4732 13.5354C12.1806 13.2426 12.1806 12.7677 12.4732 12.4749C13.8401 11.1081 13.8401 8.89153 12.4732 7.52469C12.1807 7.23177 12.1805 6.75691 12.4732 6.46414ZM9.99962 8.75028C10.69 8.75028 11.2496 9.30992 11.2496 10.0003C11.2495 10.6905 10.6899 11.2503 9.99962 11.2503C9.30952 11.2501 8.74976 10.6904 8.74962 10.0003C8.74962 9.31004 9.30943 8.75048 9.99962 8.75028Z" fill="#212121"/>
</svg>
