<svg width="16" height="16" viewBox="0 0 16 16" fill="none" xmlns="http://www.w3.org/2000/svg">
<path d="M5 14H12.75C13.4404 14 14 13.4404 14 12.75V12.25C14 11.5596 13.4404 11 12.75 11H5L4.5 12.5L5 14ZM5 10H12.75C13.4404 10 14 9.44036 14 8.75V7.25C14 6.55964 13.4404 6 12.75 6H5L4.5 8L5 10ZM5 5H12.75C13.4404 5 14 4.44036 14 3.75V3.25C14 2.55964 13.4404 2 12.75 2H5L4.5 3.5L5 5Z" fill="url(#paint0_linear_72095_9171)"/>
<path d="M5 6V10H3.25C2.55964 10 2 9.44036 2 8.75V7.25C2 6.55964 2.55964 6 3.25 6H5ZM5 2V5H3.25C2.55964 5 2 4.44036 2 3.75V3.25C2 2.55964 2.55964 2 3.25 2H5ZM5 11V14H3.25C2.55964 14 2 13.4404 2 12.75V12.25C2 11.5596 2.55964 11 3.25 11H5Z" fill="url(#paint1_linear_72095_9171)"/>
<defs>
<linearGradient id="paint0_linear_72095_9171" x1="3.075" y1="0.285714" x2="13.2431" y2="13.8553" gradientUnits="userSpaceOnUse">
<stop stop-color="#36DFF1"/>
<stop offset="1" stop-color="#0094F0"/>
</linearGradient>
<linearGradient id="paint1_linear_72095_9171" x1="2.71341" y1="3.59523" x2="7.3946" y2="5.46393" gradientUnits="userSpaceOnUse">
<stop offset="0.125321" stop-color="#9C6CFE"/>
<stop offset="1" stop-color="#7A41DC"/>
</linearGradient>
</defs>
</svg>
