<?xml version="1.0" encoding="UTF-8"?>
<svg width="24px" height="24px" viewBox="0 0 24 24" version="1.1" xmlns="http://www.w3.org/2000/svg" xmlns:xlink="http://www.w3.org/1999/xlink">
    <!-- Generator: Sketch 59.1 (86144) - https://sketch.com -->
    <title>ic_open_folder_24_filled</title>
    <desc>Created with Sketch.</desc>
    <g id="ðŸ”-Product-Icons" stroke="none" stroke-width="1" fill="none" fill-rule="evenodd">
        <g id="ic_open_folder_24_filled" fill="#212121">
            <path d="M6.74720429,2.99997716 L17.2535313,3.00166657 C19.3241935,3.00260126 21.0025905,4.68126784 21.0031927,6.75214824 L21.0031927,6.75214824 L21.0031927,11.2447064 C21.0031927,11.65892 20.6674063,11.9947064 20.2531927,11.9947064 C19.8389792,11.9947064 19.5031927,11.65892 19.5031927,11.2447064 L19.5031927,11.2447064 L19.5031927,6.75236635 C19.5028314,5.50969641 18.4955241,4.50222736 17.2530723,4.50166649 L17.2530723,4.50166649 L6.74650744,4.49997716 C5.51530423,4.49903293 4.5147281,5.48811106 4.49684577,6.71553403 L4.49684577,6.71553403 L4.49945018,17.2517016 C4.50006238,18.4943741 5.50754146,19.5016766 6.74997604,19.502071 L6.74997604,19.502071 L11.2463146,19.502071 C11.6605281,19.502071 11.9963146,19.8378574 11.9963146,20.252071 C11.9963146,20.6662846 11.6605281,21.002071 11.2463146,21.002071 L11.2463146,21.002071 L6.74973799,21.002071 C4.67911275,21.0014138 3.00047045,19.3230656 2.99945029,17.2522025 L2.99945029,17.2522025 L2.99761019,6.75261272 L3.00183344,6.54918686 C3.10570144,4.5704802 4.74330391,2.99843917 6.74720429,2.99997716 L6.74720429,2.99997716 Z M15.996343,9.00118183 C16.5486278,9.00118183 16.996343,9.44889708 16.996343,10.0011818 C16.996343,10.5534666 16.5486278,11.0011818 15.996343,11.0011818 L15.996343,11.0011818 L12.4166102,11.000976 L18.9604533,17.5427434 C19.3210136,17.903151 19.3488633,18.4703762 19.0439215,18.862732 L18.9607529,18.956957 C18.5703113,19.347564 17.9371464,19.3476981 17.5465394,18.9572566 L17.5465394,18.9572566 L10.9986102,12.411976 L10.9988182,16.0023773 C10.9988182,16.5152131 10.612778,16.9378845 10.1154393,16.9956496 L9.99881817,17.0023773 C9.44653342,17.0023773 8.99881817,16.554662 8.99881817,16.0023773 L8.99881817,16.0023773 L8.99881817,10.0011818 C8.99881817,9.94462675 9.00351299,9.88916821 9.01253416,9.83517468 C9.01484958,9.82762415 9.01627751,9.8196135 9.01780355,9.81161787 C9.02269376,9.78075925 9.02994743,9.75073674 9.03852005,9.72127586 C9.04147213,9.71423353 9.04358429,9.70722003 9.04577509,9.70022583 C9.06619348,9.63263865 9.09452955,9.56804956 9.12902215,9.50741919 C9.13442807,9.49859834 9.14006968,9.48899715 9.14588516,9.47947218 C9.20818941,9.37740387 9.28794193,9.28801759 9.38101147,9.21479792 C9.39468222,9.20366731 9.40890282,9.19303071 9.42333333,9.18282166 C9.43890055,9.17228778 9.45502876,9.16159603 9.47147565,9.15136844 C9.48890887,9.13995979 9.50615991,9.12992792 9.52363362,9.12045479 C9.54165977,9.11131125 9.56049954,9.10186105 9.57966734,9.09299982 C9.59477517,9.08533487 9.61006951,9.07871759 9.62548749,9.07250018 C9.64426805,9.06564061 9.66308102,9.0587207 9.68214956,9.05235953 C9.70313777,9.044597 9.72488398,9.03813315 9.74678612,9.0324234 C9.76005099,9.02977242 9.77307532,9.02667399 9.78619558,9.02383304 C9.81213204,9.01734097 9.8385008,9.01269105 9.86498584,9.00910232 C9.90875689,9.00420509 9.95343447,9.00118183 9.99881817,9.00118183 L9.89683318,9.00530377 C9.91145144,9.00379643 9.92609657,9.00261038 9.94075713,9.00174562 Z" id="ðŸŽ¨-Color"></path>
        </g>
    </g>
</svg>