<svg width="16" height="16" viewBox="0 0 16 16" fill="none" xmlns="http://www.w3.org/2000/svg">
<path d="M3.25785 8.70733L7.85404 4.11114C8.83036 3.13483 10.4133 3.13483 11.3896 4.11114C12.3659 5.08745 12.3659 6.67036 11.3896 7.64667L6.08628 12.95C5.69575 13.3405 5.06259 13.3405 4.67206 12.95C4.28154 12.5594 4.28154 11.9263 4.67206 11.5358L9.97536 6.23246C10.1706 6.0372 10.1706 5.72062 9.97536 5.52535C9.7801 5.33009 9.46352 5.33009 9.26826 5.52535L3.96496 10.8287C3.18391 11.6097 3.18391 12.876 3.96496 13.6571C4.74601 14.4381 6.01234 14.4381 6.79338 13.6571L12.0967 8.35378C13.4635 6.98695 13.4635 4.77087 12.0967 3.40403C10.7299 2.0372 8.51377 2.0372 7.14694 3.40403L2.55074 8.00023C2.35548 8.19549 2.35548 8.51207 2.55074 8.70733C2.74601 8.9026 3.06259 8.9026 3.25785 8.70733Z" fill="#212121"/>
</svg>
