<?xml version="1.0" encoding="UTF-8"?>
<svg width="16px" height="16px" viewBox="0 0 16 16" version="1.1" xmlns="http://www.w3.org/2000/svg" xmlns:xlink="http://www.w3.org/1999/xlink">
    <!-- Generator: Sketch 64 (93537) - https://sketch.com -->
    <title>ic_fluent_toolbox_16_filled</title>
    <desc>Created with Sketch.</desc>
    <g id="ðŸ”-System-Icons" stroke="none" stroke-width="1" fill="none" fill-rule="evenodd">
        <g id="ic_fluent_toolbox_16_filled" fill="#212121" fill-rule="nonzero">
            <path d="M5,9 L5,9.50342 C5,9.77956 5.22386,10.0034 5.5,10.0034 C5.74545778,10.0034 5.9496079,9.82653877 5.99194425,9.59329432 L6,9.50342 L6,9 L10,9 L10,9.49997 C10,9.77611 10.2239,9.99997 10.5,9.99997 C10.7454222,9.99997 10.9496,9.82309296 10.9919429,9.58984501 L11,9.49997 L11,9 L13.5,9 L13.5,10.9995 C13.5,11.7791706 12.9050879,12.4199457 12.1444558,12.4926332 L12,12.4995 L4,12.4995 C3.22030118,12.4995 2.579551,11.9045879 2.50686655,11.1439558 L2.5,10.9995 L2.5,9 L5,9 Z M9.50696,3 C10.2866682,3 10.9274455,3.59488554 11.0001331,4.35553954 L11.007,4.5 L11.007,5.5 L12,5.5 C12.7796706,5.5 13.4204457,6.09488554 13.4931332,6.85553954 L13.5,7 L13.5,8 L11,8 L11,7.5 C11,7.22386 10.7761,7 10.5,7 C10.2545778,7 10.0504,7.17687704 10.0080571,7.41012499 L10,7.5 L10,8 L6,8 L6,7.5 C6,7.22386 5.77614,7 5.5,7 C5.25454222,7 5.0503921,7.17687704 5.00805575,7.41012499 L5,7.5 L5,8 L2.5,8 L2.5,7 C2.5,6.22030118 3.09488554,5.579551 3.85553954,5.50686655 L4,5.5 L5.00696,5.5 L5.00696,4.5 C5.00696,3.72030118 5.60184554,3.079551 6.36249954,3.00686655 L6.50696,3 L9.50696,3 Z M9.50696,4 L6.50696,4 C6.23082,4 6.00696,4.22386 6.00696,4.5 L6.00696,5.5 L10.007,5.5 L10.007,4.5 C10.007,4.22386 9.7831,4 9.50696,4 Z" id="ðŸŽ¨-Color"></path>
        </g>
    </g>
</svg>