<svg width="24" height="24" viewBox="0 0 24 24" fill="none" xmlns="http://www.w3.org/2000/svg">
<path d="M10.7878 3.10263C11.283 2.09926 12.7138 2.09925 13.209 3.10263L15.567 7.88036L20.8395 8.6465C21.9468 8.8074 22.3889 10.1682 21.5877 10.9492L17.7724 14.6681L18.6731 19.9193C18.8622 21.0222 17.7047 21.8632 16.7143 21.3425L12.7582 19.2626C12.899 18.7615 12.9813 18.2359 12.9972 17.6936L17.1433 19.8734L16.2807 14.844C16.2056 14.406 16.3508 13.9592 16.6689 13.649L20.323 10.0872L15.2732 9.35343C14.8335 9.28953 14.4534 9.01336 14.2568 8.61492L11.9984 4.03903L9.74008 8.61492C9.54344 9.01336 9.16332 9.28953 8.72361 9.35343L3.67382 10.0872L4.83188 11.216C4.29604 11.3579 3.78734 11.5665 3.31521 11.8324L2.40916 10.9492C1.60791 10.1682 2.05005 8.8074 3.15735 8.6465L8.42988 7.88036L10.7878 3.10263Z" fill="#212121"/>
<path d="M12 17.5C12 20.5376 9.53757 23 6.5 23C3.46243 23 1 20.5376 1 17.5C1 14.4624 3.46243 12 6.5 12C9.53757 12 12 14.4624 12 17.5ZM3.5 17C3.22386 17 3 17.2239 3 17.5C3 17.7761 3.22386 18 3.5 18L8.29289 18L6.64645 19.6464C6.45118 19.8417 6.45118 20.1583 6.64645 20.3536C6.84171 20.5488 7.15829 20.5488 7.35355 20.3536L9.85355 17.8536C10.0488 17.6583 10.0488 17.3417 9.85355 17.1464L7.35355 14.6464C7.15829 14.4512 6.84171 14.4512 6.64645 14.6464C6.45118 14.8417 6.45119 15.1583 6.64645 15.3536L8.29289 17L3.5 17Z" fill="#212121"/>
</svg>
