<?xml version="1.0" encoding="UTF-8"?>
<svg width="24px" height="24px" viewBox="0 0 24 24" version="1.1" xmlns="http://www.w3.org/2000/svg" xmlns:xlink="http://www.w3.org/1999/xlink">
    <!-- Generator: Sketch 59.1 (86144) - https://sketch.com -->
    <title>ic_fluent_keyboard_layout_one_handed_left_24_light</title>
    <desc>Created with Sketch.</desc>
    <g id="ðŸ”-Product-Icons" stroke="none" stroke-width="1" fill="none" fill-rule="evenodd">
        <g id="ic_fluent_keyboard_layout_one_handed_left_24_light" fill="#212121" fill-rule="nonzero">
            <path d="M19.75,5 C20.940864,5 21.9156449,5.92516159 21.9948092,7.09595119 L22,7.25 L22,16.75 C22,17.940864 21.0748384,18.9156449 19.9040488,18.9948092 L19.75,19 L4.25,19 C3.05913601,19 2.08435508,18.0748384 2.00519081,16.9040488 L2,16.75 L2,7.25 C2,6.05913601 2.92516159,5.08435508 4.09595119,5.00519081 L4.25,5 L19.75,5 Z M19.75,6 L4.25,6 C3.60279131,6 3.0704661,6.49187466 3.00645361,7.12219476 L3,7.25 L3,16.75 C3,17.3972087 3.49187466,17.9295339 4.12219476,17.9935464 L4.25,18 L19.75,18 C20.3972087,18 20.9295339,17.5081253 20.9935464,16.8778052 L21,16.75 L21,7.25 C21,6.60279131 20.5081253,6.0704661 19.8778052,6.00645361 L19.75,6 Z M10.5,15 C10.7761424,15 11,15.2238576 11,15.5 C11,15.7454599 10.8231252,15.9496084 10.589876,15.9919443 L10.5,16 L6.5,16 C6.22385763,16 6,15.7761424 6,15.5 C6,15.2545401 6.17687516,15.0503916 6.41012437,15.0080557 L6.5,15 L10.5,15 Z M6.5,11.25 C6.91421356,11.25 7.25,11.5857864 7.25,12 C7.25,12.4142136 6.91421356,12.75 6.5,12.75 C6.08578644,12.75 5.75,12.4142136 5.75,12 C5.75,11.5857864 6.08578644,11.25 6.5,11.25 Z M9.5,11.25 C9.91421356,11.25 10.25,11.5857864 10.25,12 C10.25,12.4142136 9.91421356,12.75 9.5,12.75 C9.08578644,12.75 8.75,12.4142136 8.75,12 C8.75,11.5857864 9.08578644,11.25 9.5,11.25 Z M9,8.25 C9.41421356,8.25 9.75,8.58578644 9.75,9 C9.75,9.41421356 9.41421356,9.75 9,9.75 C8.58578644,9.75 8.25,9.41421356 8.25,9 C8.25,8.58578644 8.58578644,8.25 9,8.25 Z M6,8.25 C6.41421356,8.25 6.75,8.58578644 6.75,9 C6.75,9.41421356 6.41421356,9.75 6,9.75 C5.58578644,9.75 5.25,9.41421356 5.25,9 C5.25,8.58578644 5.58578644,8.25 6,8.25 Z" id="ðŸŽ¨-Color"></path>
        </g>
    </g>
</svg>