<svg width="28" height="28" viewBox="0 0 28 28" fill="none" xmlns="http://www.w3.org/2000/svg">
<path d="M5.75391 4C3.68284 4 2.00391 5.67893 2.00391 7.75V19.25C2.00391 21.3211 3.68284 23 5.75391 23H22.2505C24.3216 23 26.0005 21.3211 26.0005 19.25V7.75C26.0005 5.67893 24.3216 4 22.2505 4H5.75391ZM3.50391 7.75C3.50391 6.50736 4.51127 5.5 5.75391 5.5H22.2505C23.4932 5.5 24.5005 6.50736 24.5005 7.75V8.5289L13.9998 13.9074L3.50391 8.53141V7.75ZM3.50391 10.2167L13.6579 15.4175C13.8726 15.5275 14.127 15.5275 14.3417 15.4175L24.5005 10.2142V19.25C24.5005 20.4926 23.4932 21.5 22.2505 21.5H5.75391C4.51127 21.5 3.50391 20.4926 3.50391 19.25V10.2167Z" fill="#212121"/>
</svg>
