<?xml version="1.0" encoding="UTF-8"?>
<svg width="24px" height="24px" viewBox="0 0 24 24" version="1.1" xmlns="http://www.w3.org/2000/svg" xmlns:xlink="http://www.w3.org/1999/xlink">
    <!-- Generator: Sketch 59.1 (86144) - https://sketch.com -->
    <title>ic_redo_24_regular</title>
    <desc>Created with Sketch.</desc>
    <g id="ðŸ”-Product-Icons" stroke="none" stroke-width="1" fill="none" fill-rule="evenodd">
        <g id="ic_redo_24_regular" fill="#212121" fill-rule="nonzero">
            <path d="M19.25,1.99981721 C18.8703042,1.99981721 18.556509,2.28197109 18.5068466,2.64804665 L18.5,2.74981721 L18.5,8.43981721 L13.9256607,3.87995431 C11.483715,1.43800869 7.56154453,1.37844904 5.04739282,3.70127537 L4.8615166,3.87995431 C2.35852234,6.38294858 2.35852234,10.4411041 4.8615166,12.9440984 L13.7066528,21.7832698 L13.7066528,21.7832698 C13.9996749,22.0760341 14.4744198,22.0756964 14.767313,21.7828032 C15.0602061,21.48991 15.0598683,21.0149074 14.7668462,20.7221431 L5.92217677,11.8834382 L5.92217677,11.8834382 C4.00496895,9.96623037 4.00496895,6.85782231 5.92217677,4.94061449 C7.78128739,3.08150387 10.7604981,3.02516718 12.6881921,4.77230194 L12.8657665,4.94137945 L17.438,9.49981721 L11.75,9.5 C11.3703042,9.5 11.056509,9.78215388 11.0068466,10.1482294 L11,10.25 C11,10.6296958 11.2821539,10.943491 11.6482294,10.9931534 L11.75,11 L19.25,11 C19.6296958,11 19.943491,10.7178461 19.9931534,10.3517706 L20,10.25 L20,2.74981721 C20,2.33560365 19.6642136,1.99981721 19.25,1.99981721 Z" id="ðŸŽ¨-Color"></path>
        </g>
    </g>
</svg>