<svg width="24" height="24" viewBox="0 0 24 24" fill="none" xmlns="http://www.w3.org/2000/svg">
<path d="M12 2V8C12 9.10457 12.8954 10 14 10H20V20.5C20 21.3284 19.3284 22 18.5 22H9.73017L12.3065 19.4237L12.3262 19.4036L12.6734 19.0564C14.4716 17.2582 14.4716 14.3428 12.6734 12.5446C11.1463 11.0174 8.81333 10.7872 7.04325 11.8539C6.12195 11.2797 5.04181 11.0618 4 11.2004V3.5C4 2.67157 4.67157 2 5.5 2H12ZM13.5 2.5V8C13.5 8.27614 13.7239 8.5 14 8.5H19.5L13.5 2.5ZM2.06162 13.2158C3.42827 11.8491 5.61928 11.8093 7.03399 13.0962C8.44972 11.8461 10.6125 11.8979 11.9663 13.2517C12.7209 14.0063 13.071 15.0122 13.0166 16H10.9749L10.2374 15.2626C9.89663 14.9218 9.43036 14.7366 8.9486 14.7508C8.46683 14.7649 8.01224 14.9771 7.69203 15.3374L7.19838 15.8927L6.45609 14.7793C6.11005 14.2602 5.51388 13.9646 4.89126 14.0034C4.26864 14.0421 3.71373 14.4094 3.43475 14.9674L2.91844 16H1.01351C0.948506 15.0007 1.29788 13.9795 2.06162 13.2158ZM3.24784 19.5L6.50141 22.7536C6.65761 22.9098 6.86559 22.9827 7.07012 22.9723C7.2492 22.9632 7.42565 22.8903 7.5624 22.7536L10.816 19.5H8.67475L8.30797 19.9126C7.94767 20.318 7.41981 20.5334 6.87879 20.4958C6.33777 20.4582 5.84474 20.172 5.54391 19.7207L5.39676 19.5H3.24784ZM5.62404 15.334C5.47574 15.1115 5.22023 14.9848 4.9534 15.0014C4.68656 15.0181 4.44874 15.1755 4.32918 15.4146L3.53647 17H1.75C1.33579 17 1 17.3358 1 17.75C1 18.1642 1.33579 18.5 1.75 18.5H4C4.28408 18.5 4.54378 18.3395 4.67082 18.0854L5.09285 17.2414L6.37596 19.166C6.50489 19.3594 6.71619 19.4821 6.94805 19.4982C7.17992 19.5143 7.40614 19.422 7.56056 19.2483L9.03211 17.5928L9.71967 18.2803C9.86032 18.421 10.0511 18.5 10.25 18.5H12.25C12.6642 18.5 13 18.1642 13 17.75C13 17.3358 12.6642 17 12.25 17H10.5607L9.53033 15.9697C9.38427 15.8236 9.18444 15.7443 8.97797 15.7503C8.7715 15.7564 8.57667 15.8473 8.43944 16.0017L7.08502 17.5255L5.62404 15.334Z" fill="#212121"/>
</svg>
