<svg width="16" height="16" viewBox="0 0 16 16" fill="none" xmlns="http://www.w3.org/2000/svg">
<path d="M2.13965 4.17383C2.30577 3.92009 2.66152 3.89883 2.87598 4.11328C3.05247 4.29015 3.07076 4.5685 2.93652 4.7793C2.34361 5.70975 2 6.81498 2 8V9H5.5C5.77614 9 6 9.22386 6 9.5V14.5C6 14.7761 5.77614 15 5.5 15H3.5C2.11929 15 1 13.8807 1 12.5V8C1 6.58752 1.41973 5.27353 2.13965 4.17383ZM8 1C11.866 1 15 4.13401 15 8V12.5C15 13.8807 13.8807 15 12.5 15H10.5C10.2239 15 10 14.7761 10 14.5V9.5C10 9.22386 10.2239 9 10.5 9H14V8C14 4.68629 11.3137 2 8 2C6.81539 2.00009 5.7105 2.34303 4.78027 2.93555C4.56945 3.06977 4.29112 3.05153 4.11426 2.875C3.89979 2.66054 3.92102 2.30475 4.1748 2.13867C5.27428 1.41918 6.58795 1.0001 8 1ZM2 10V12.5C2 13.3284 2.67157 14 3.5 14H5V10H2ZM11 14H12.5C13.3284 14 14 13.3284 14 12.5V10H11V14Z" fill="#212121"/>
</svg>
