<svg width="20" height="20" viewBox="0 0 20 20" fill="none" xmlns="http://www.w3.org/2000/svg">
<path d="M2.33378 9.06681C1.96883 7.49905 3.159 6 4.76867 6H15.2291C16.8394 6 18.0297 7.50007 17.6637 9.06819L16.9635 12.0682C16.6995 13.1996 15.6908 14 14.529 14H5.46702C4.30467 14 3.29566 13.1989 3.03213 12.0668L2.33378 9.06681ZM5.99963 9.5C6.27578 9.5 6.49963 9.27614 6.49963 9C6.49963 8.72386 6.27578 8.5 5.99963 8.5C5.72349 8.5 5.49963 8.72386 5.49963 9C5.49963 9.27614 5.72349 9.5 5.99963 9.5ZM8.49963 9C8.49963 8.72386 8.27578 8.5 7.99963 8.5C7.72349 8.5 7.49963 8.72386 7.49963 9C7.49963 9.27614 7.72349 9.5 7.99963 9.5C8.27578 9.5 8.49963 9.27614 8.49963 9ZM6.99963 11.5C7.27578 11.5 7.49963 11.2761 7.49963 11C7.49963 10.7239 7.27578 10.5 6.99963 10.5C6.72349 10.5 6.49963 10.7239 6.49963 11C6.49963 11.2761 6.72349 11.5 6.99963 11.5ZM9.49963 11C9.49963 10.7239 9.27578 10.5 8.99963 10.5C8.72349 10.5 8.49963 10.7239 8.49963 11C8.49963 11.2761 8.72349 11.5 8.99963 11.5C9.27578 11.5 9.49963 11.2761 9.49963 11ZM10.9996 11.5C11.2758 11.5 11.4996 11.2761 11.4996 11C11.4996 10.7239 11.2758 10.5 10.9996 10.5C10.7235 10.5 10.4996 10.7239 10.4996 11C10.4996 11.2761 10.7235 11.5 10.9996 11.5ZM13.4996 11C13.4996 10.7239 13.2758 10.5 12.9996 10.5C12.7235 10.5 12.4996 10.7239 12.4996 11C12.4996 11.2761 12.7235 11.5 12.9996 11.5C13.2758 11.5 13.4996 11.2761 13.4996 11ZM9.99963 9.5C10.2758 9.5 10.4996 9.27614 10.4996 9C10.4996 8.72386 10.2758 8.5 9.99963 8.5C9.72349 8.5 9.49963 8.72386 9.49963 9C9.49963 9.27614 9.72349 9.5 9.99963 9.5ZM12.4996 9C12.4996 8.72386 12.2758 8.5 11.9996 8.5C11.7235 8.5 11.4996 8.72386 11.4996 9C11.4996 9.27614 11.7235 9.5 11.9996 9.5C12.2758 9.5 12.4996 9.27614 12.4996 9ZM13.9996 9.5C14.2758 9.5 14.4996 9.27614 14.4996 9C14.4996 8.72386 14.2758 8.5 13.9996 8.5C13.7235 8.5 13.4996 8.72386 13.4996 9C13.4996 9.27614 13.7235 9.5 13.9996 9.5Z" fill="#212121"/>
</svg>
