<svg width="20" height="20" viewBox="0 0 20 20" fill="none" xmlns="http://www.w3.org/2000/svg">
<path d="M6.00012 9.50003C6.27626 9.50003 6.50012 9.27617 6.50012 9.00003C6.50012 8.72389 6.27626 8.50003 6.00012 8.50003C5.72398 8.50003 5.50012 8.72389 5.50012 9.00003C5.50012 9.27617 5.72398 9.50003 6.00012 9.50003ZM8.50012 9.00003C8.50012 9.27617 8.27626 9.50003 8.00012 9.50003C7.72398 9.50003 7.50012 9.27617 7.50012 9.00003C7.50012 8.72389 7.72398 8.50003 8.00012 8.50003C8.27626 8.50003 8.50012 8.72389 8.50012 9.00003ZM7.00012 11.5C7.27626 11.5 7.50012 11.2762 7.50012 11C7.50012 10.7239 7.27626 10.5 7.00012 10.5C6.72398 10.5 6.50012 10.7239 6.50012 11C6.50012 11.2762 6.72398 11.5 7.00012 11.5ZM9.50012 11C9.50012 11.2762 9.27626 11.5 9.00012 11.5C8.72398 11.5 8.50012 11.2762 8.50012 11C8.50012 10.7239 8.72398 10.5 9.00012 10.5C9.27626 10.5 9.50012 10.7239 9.50012 11ZM11.0001 11.5C11.2763 11.5 11.5001 11.2762 11.5001 11C11.5001 10.7239 11.2763 10.5 11.0001 10.5C10.724 10.5 10.5001 10.7239 10.5001 11C10.5001 11.2762 10.724 11.5 11.0001 11.5ZM13.5001 11C13.5001 11.2762 13.2763 11.5 13.0001 11.5C12.724 11.5 12.5001 11.2762 12.5001 11C12.5001 10.7239 12.724 10.5 13.0001 10.5C13.2763 10.5 13.5001 10.7239 13.5001 11ZM10.0001 9.50003C10.2763 9.50003 10.5001 9.27617 10.5001 9.00003C10.5001 8.72389 10.2763 8.50003 10.0001 8.50003C9.72398 8.50003 9.50012 8.72389 9.50012 9.00003C9.50012 9.27617 9.72398 9.50003 10.0001 9.50003ZM12.5001 9.00003C12.5001 9.27617 12.2763 9.50003 12.0001 9.50003C11.724 9.50003 11.5001 9.27617 11.5001 9.00003C11.5001 8.72389 11.724 8.50003 12.0001 8.50003C12.2763 8.50003 12.5001 8.72389 12.5001 9.00003ZM14.0001 9.50003C14.2763 9.50003 14.5001 9.27617 14.5001 9.00003C14.5001 8.72389 14.2763 8.50003 14.0001 8.50003C13.724 8.50003 13.5001 8.72389 13.5001 9.00003C13.5001 9.27617 13.724 9.50003 14.0001 9.50003ZM4.76916 6C3.15948 6 1.96932 7.49905 2.33426 9.06681L3.03261 12.0668C3.29614 13.1989 4.30516 14 5.46751 14H14.5295C15.6913 14 16.7 13.1996 16.964 12.0682L17.6642 9.06819C18.0302 7.50007 16.8399 6 15.2296 6H4.76916ZM3.30822 8.84008C3.08925 7.89943 3.80336 7 4.76916 7H15.2296C16.1958 7 16.9099 7.90004 16.6904 8.84092L15.9902 11.8409C15.8318 12.5198 15.2265 13 14.5295 13H5.46751C4.7701 13 4.16469 12.5193 4.00657 11.8401L3.30822 8.84008Z" fill="#212121"/>
</svg>
