<svg width="20" height="20" viewBox="0 0 20 20" fill="none" xmlns="http://www.w3.org/2000/svg">
<path d="M2.33426 9.06681C1.96932 7.49905 3.15948 6 4.76916 6H15.2296C16.8399 6 18.0302 7.50007 17.6642 9.06819L16.964 12.0682C16.7 13.1996 15.6913 14 14.5295 14H5.46751C4.30516 14 3.29614 13.1989 3.03261 12.0668L2.33426 9.06681ZM6.00012 9.5C6.27626 9.5 6.50012 9.27614 6.50012 9C6.50012 8.72386 6.27626 8.5 6.00012 8.5C5.72398 8.5 5.50012 8.72386 5.50012 9C5.50012 9.27614 5.72398 9.5 6.00012 9.5ZM8.50012 9C8.50012 8.72386 8.27626 8.5 8.00012 8.5C7.72398 8.5 7.50012 8.72386 7.50012 9C7.50012 9.27614 7.72398 9.5 8.00012 9.5C8.27626 9.5 8.50012 9.27614 8.50012 9ZM7.00012 11.5C7.27626 11.5 7.50012 11.2761 7.50012 11C7.50012 10.7239 7.27626 10.5 7.00012 10.5C6.72398 10.5 6.50012 10.7239 6.50012 11C6.50012 11.2761 6.72398 11.5 7.00012 11.5ZM9.50012 11C9.50012 10.7239 9.27626 10.5 9.00012 10.5C8.72398 10.5 8.50012 10.7239 8.50012 11C8.50012 11.2761 8.72398 11.5 9.00012 11.5C9.27626 11.5 9.50012 11.2761 9.50012 11ZM11.0001 11.5C11.2763 11.5 11.5001 11.2761 11.5001 11C11.5001 10.7239 11.2763 10.5 11.0001 10.5C10.724 10.5 10.5001 10.7239 10.5001 11C10.5001 11.2761 10.724 11.5 11.0001 11.5ZM13.5001 11C13.5001 10.7239 13.2763 10.5 13.0001 10.5C12.724 10.5 12.5001 10.7239 12.5001 11C12.5001 11.2761 12.724 11.5 13.0001 11.5C13.2763 11.5 13.5001 11.2761 13.5001 11ZM10.0001 9.5C10.2763 9.5 10.5001 9.27614 10.5001 9C10.5001 8.72386 10.2763 8.5 10.0001 8.5C9.72398 8.5 9.50012 8.72386 9.50012 9C9.50012 9.27614 9.72398 9.5 10.0001 9.5ZM12.5001 9C12.5001 8.72386 12.2763 8.5 12.0001 8.5C11.724 8.5 11.5001 8.72386 11.5001 9C11.5001 9.27614 11.724 9.5 12.0001 9.5C12.2763 9.5 12.5001 9.27614 12.5001 9ZM14.0001 9.5C14.2763 9.5 14.5001 9.27614 14.5001 9C14.5001 8.72386 14.2763 8.5 14.0001 8.5C13.724 8.5 13.5001 8.72386 13.5001 9C13.5001 9.27614 13.724 9.5 14.0001 9.5Z" fill="#212121"/>
</svg>
