<svg width="16" height="16" viewBox="0 0 16 16" fill="none" xmlns="http://www.w3.org/2000/svg">
<path d="M8.99949 9.7066L14.1464 14.8536C14.3417 15.0488 14.6583 15.0488 14.8536 14.8536C15.0488 14.6583 15.0488 14.3417 14.8536 14.1464L1.85355 1.14645C1.65829 0.951184 1.34171 0.951184 1.14645 1.14645C0.951184 1.34171 0.951184 1.65829 1.14645 1.85355L4.28561 4.99272H3.49951C2.67108 4.99272 1.99951 5.66429 1.99951 6.49272V9.48171C1.99951 10.3101 2.67108 10.9817 3.49951 10.9817H5.22265L8.14909 13.8567C8.29277 13.9978 8.50713 14.039 8.69288 13.9611C8.87862 13.8832 8.99949 13.7014 8.99949 13.5V9.7066ZM7.99949 8.70659V12.3079L5.77757 10.125C5.68407 10.0332 5.55824 9.98171 5.42717 9.98171H3.49951C3.22337 9.98171 2.99951 9.75785 2.99951 9.48171V6.49272C2.99951 6.21657 3.22337 5.99272 3.49951 5.99272H5.28561L7.99949 8.70659Z" fill="#212121"/>
<path d="M7.99949 5.87826V3.68505L6.88849 4.76726L6.18132 4.06009L8.15061 2.14184C8.29461 2.00156 8.50863 1.96117 8.69386 2.03932C8.87908 2.11748 8.99949 2.29896 8.99949 2.5V6.87826L7.99949 5.87826Z" fill="#212121"/>
<path d="M11.7089 9.58768L10.914 8.7928C10.969 8.56065 11.0038 8.29631 11.0038 7.99854C11.0038 7.25105 10.785 6.7152 10.5757 6.37089C10.4702 6.19743 10.3662 6.0712 10.2919 5.99104C10.2548 5.95103 10.2254 5.92276 10.2072 5.90611C10.1981 5.89779 10.1919 5.89241 10.189 5.88994L10.19 5.8907C9.97427 5.71871 9.93895 5.4047 10.1108 5.18873C10.2827 4.97263 10.5972 4.9368 10.8133 5.10872L10.8142 5.10939L10.8151 5.11014L10.8173 5.11187L10.8226 5.11626L10.8376 5.1288C10.8494 5.13883 10.8647 5.15223 10.883 5.16903C10.9196 5.2026 10.9684 5.24989 11.0252 5.31117C11.1387 5.4336 11.2852 5.61295 11.4302 5.85141C11.7217 6.33095 12.0038 7.04437 12.0038 7.99854C12.0038 8.63414 11.8786 9.16326 11.7089 9.58768Z" fill="#212121"/>
<path d="M13.2258 11.1046L12.4813 10.36C12.776 9.73181 13.0028 8.94355 13.0028 8.00403C13.0028 6.66846 12.5445 5.63641 12.084 4.93508C11.8536 4.5841 11.6238 4.31791 11.4537 4.14131C11.3688 4.05316 11.2993 3.9878 11.2526 3.94581C11.2293 3.92483 11.2118 3.90973 11.201 3.90059L11.1899 3.89137C10.9742 3.71931 10.938 3.40449 11.11 3.18857C11.282 2.97253 11.5965 2.93684 11.8126 3.10885L11.8143 3.11023L11.8167 3.11221L11.8238 3.11796L11.8462 3.13664C11.8647 3.15226 11.8902 3.17425 11.9216 3.20253C11.9844 3.25907 12.0713 3.34095 12.1741 3.44769C12.3793 3.66087 12.6499 3.97501 12.9199 4.38625C13.4603 5.20936 14.0028 6.42933 14.0028 8.00403C14.0028 9.27807 13.6477 10.3187 13.2258 11.1046Z" fill="#212121"/>
</svg>
