<?xml version="1.0" encoding="UTF-8"?>
<svg width="24px" height="24px" viewBox="0 0 24 24" version="1.1" xmlns="http://www.w3.org/2000/svg" xmlns:xlink="http://www.w3.org/1999/xlink">
    <!-- Generator: Sketch 58 (84663) - https://sketch.com -->
    <title>ic_share_desktop_24_filled</title>
    <desc>Created with Sketch.</desc>
    <g id="ðŸ”-Product-Icons" stroke="none" stroke-width="1" fill="none" fill-rule="evenodd">
        <g id="ic_share_desktop_24_filled" fill="#212121">
            <path d="M6.75,21 C6.33578644,21 6,20.6642136 6,20.25 C6,19.8703042 6.28215388,19.556509 6.64822944,19.5068466 L6.75,19.5 L8,19.5 L8,18.004 L4.25,18.004591 C3.05913601,18.004591 2.08435508,17.0794294 2.00519081,15.9086398 L2,15.754591 L2,8.25 C2,7.05913601 2.92516159,6.08435508 4.09595119,6.00519081 L4.25,6 L10.75,6 C11.1642136,6 11.5,6.33578644 11.5,6.75 C11.5,7.12969577 11.2178461,7.44349096 10.8517706,7.49315338 L10.75,7.5 L4.25,7.5 C3.87030423,7.5 3.55650904,7.78215388 3.50684662,8.14822944 L3.5,8.25 L3.5,15.754591 C3.5,16.1342868 3.78215388,16.448082 4.14822944,16.4977444 L4.25,16.504591 L8,16.504 L8,16.5 L13.995364,16.5 L13.995,16.504 L17.7453641,16.504591 C18.1250599,16.504591 18.4388551,16.2224371 18.4885175,15.8563616 L18.4953641,15.754591 L18.4953641,15.251124 C18.4953641,14.8369105 18.8311506,14.501124 19.2453641,14.501124 C19.6250599,14.501124 19.9388551,14.7832779 19.9885175,15.1493535 L19.9953641,15.251124 L19.9953641,15.754591 C19.9953641,16.945455 19.0702026,17.9202359 17.899413,17.9994002 L17.7453641,18.004591 L13.995,18.004 L13.995,19.5 L15.25,19.5 C15.6642136,19.5 16,19.8357864 16,20.25 C16,20.6296958 15.7178461,20.943491 15.3517706,20.9931534 L15.25,21 L13.995364,21 L8,21 L6.75,21 Z M12.495,18.004 L9.5,18.004 L9.5,19.5 L12.495364,19.5 L12.495,18.004 Z M21.0193409,4.0001833 C21.0425571,4.00062706 21.0659832,4.00189163 21.0893499,4.00397536 C21.1096949,4.00574796 21.1294204,4.00810098 21.1489612,4.01101934 C21.1660479,4.01364472 21.1834739,4.01672056 21.200824,4.0202602 C21.2227461,4.0246398 21.2444365,4.02983363 21.2658396,4.03572097 L21.2896142,4.04264288 L21.3130618,4.0500398 C21.3310532,4.0559003 21.3491486,4.06244532 21.3669928,4.06948879 C21.3869275,4.07734894 21.4068591,4.08595269 21.4265503,4.09523498 C21.4450905,4.1040443 21.4628463,4.1131069 21.4802859,4.12267436 C21.4936878,4.12992758 21.5073175,4.13781354 21.5207944,4.14604767 C21.546275,4.1617187 21.5711307,4.17849009 21.5951593,4.19631351 L21.6171013,4.21298956 L21.7071777,4.29296412 C21.7425682,4.32836172 21.7747506,4.3657521 21.8037251,4.40477397 C21.8215099,4.42886931 21.8382813,4.45372505 21.8539326,4.47933981 C21.8614441,4.49147326 21.8685509,4.50369264 21.8753774,4.51602567 C21.8862061,4.53570605 21.8966234,4.5561086 21.9063462,4.57690085 L21.9288117,4.6287571 C21.9366843,4.6484208 21.9438775,4.66820232 21.9504533,4.68826359 C21.955301,4.70324444 21.9599305,4.71863297 21.9641815,4.73410371 C21.9701664,4.75556352 21.9753602,4.77725392 21.9798348,4.7992059 C21.9833002,4.81664478 21.9863607,4.83399211 21.9889616,4.85139488 L21.9964114,4.91509747 L22,5 L22,12.0022955 C22,12.5545802 21.5522847,13.0022955 21,13.0022955 C20.4871642,13.0022955 20.0644928,12.6162553 20.0067277,12.1189166 L20,12.0022955 L20,7.414 L13.2070359,14.2054734 C12.8164724,14.5959585 12.1833075,14.595895 11.7928223,14.2053316 C11.4323745,13.8448115 11.4047018,13.2775776 11.7097661,12.885317 L11.7929641,12.791118 L18.584,6 L14.0022513,6 C13.4894154,6 13.0667441,5.61395981 13.008979,5.11662113 L13.0022513,5 C13.0022513,4.44771525 13.4499665,4 14.0022513,4 L21.0193409,4.0001833 Z" id="ðŸŽ¨-Color"></path>
        </g>
    </g>
</svg>