<?xml version="1.0" encoding="UTF-8"?>
<svg width="24px" height="24px" viewBox="0 0 24 24" version="1.1" xmlns="http://www.w3.org/2000/svg" xmlns:xlink="http://www.w3.org/1999/xlink">
    <!-- Generator: Sketch 58 (84663) - https://sketch.com -->
    <title>ic_share_desktop_24_outlined</title>
    <desc>Created with Sketch.</desc>
    <g id="ðŸ”-Product-Icons" stroke="none" stroke-width="1" fill="none" fill-rule="evenodd">
        <g id="ic_share_desktop_24_outlined" fill="#212121">
            <path d="M6.75,21 C6.33578644,21 6,20.6642136 6,20.25 C6,19.8703042 6.28215388,19.556509 6.64822944,19.5068466 L6.75,19.5 L8,19.4992962 L8,18.0042962 L4.25,18.004591 C3.05913601,18.004591 2.08435508,17.0794294 2.00519081,15.9086398 L2,15.754591 L2,8.25 C2,7.05913601 2.92516159,6.08435508 4.09595119,6.00519081 L4.25,6 L10.7479383,6 C11.1621519,6 11.4979383,6.33578644 11.4979383,6.75 C11.4979383,7.12969577 11.2157844,7.44349096 10.8497089,7.49315338 L10.7479383,7.5 L4.25,7.5 C3.87030423,7.5 3.55650904,7.78215388 3.50684662,8.14822944 L3.5,8.25 L3.5,15.754591 C3.5,16.1342868 3.78215388,16.448082 4.14822944,16.4977444 L4.25,16.504591 L8,16.5042962 L8,16.5 L13.995364,16.5 L13.995,16.5042962 L17.7453641,16.504591 C18.1250599,16.504591 18.4388551,16.2224371 18.4885175,15.8563616 L18.4953641,15.754591 L18.4953641,15.251124 C18.4953641,14.8369105 18.8311506,14.501124 19.2453641,14.501124 C19.6250599,14.501124 19.9388551,14.7832779 19.9885175,15.1493535 L19.9953641,15.251124 L19.9953641,15.754591 C19.9953641,16.945455 19.0702026,17.9202359 17.899413,17.9994002 L17.7453641,18.004591 L13.995,18.0042962 L13.995,19.4992962 L15.25,19.5 C15.6642136,19.5 16,19.8357864 16,20.25 C16,20.6296958 15.7178461,20.943491 15.3517706,20.9931534 L15.25,21 L13.995364,21 L8,21 L6.75,21 Z M12.495,18.0042962 L9.5,18.0042962 L9.5,19.5 L12.495364,19.5 L12.495,18.0042962 Z M21.3019242,4.00181369 C21.3139808,4.00265119 21.326021,4.00377873 21.3380336,4.00519631 C21.3490877,4.00774313 21.3604329,4.00933541 21.3716937,4.01117847 C21.3917329,4.01323684 21.4113755,4.0172768 21.430862,4.0221088 C21.4450398,4.02684828 21.4594528,4.03088437 21.4736836,4.03533304 C21.4928463,4.04006559 21.5118292,4.04683622 21.5305685,4.05439454 C21.5402935,4.0596202 21.5496915,4.06365088 21.5589882,4.06786568 C21.6123136,4.09109823 21.6634617,4.12153548 21.7111561,4.15876504 L21.779948,4.21965207 L21.78,4.22029623 L21.8455616,4.29585068 L21.881188,4.34518049 C21.8874597,4.35630846 21.8944489,4.36779763 21.9011327,4.37948392 C21.913524,4.39986853 21.9239531,4.42040711 21.9333768,4.44128871 L21.9439544,4.46718727 C21.9534546,4.48927044 21.9613148,4.51163161 21.9680853,4.53424937 C21.970806,4.54438288 21.9736126,4.55444662 21.9762122,4.56459327 C21.9818332,4.5856522 21.9862882,4.6070625 21.9898018,4.62859658 L21.9955484,4.67156865 C21.9973295,4.68860685 21.9985285,4.70569438 21.9991454,4.72279901 L21.9996358,12.2551867 C21.9996358,12.6694002 21.6638494,13.0051867 21.2496358,13.0051867 C20.86994,13.0051867 20.5561448,12.7230328 20.5064824,12.3569572 L20.4996358,12.2551867 L20.499,6.56029623 L12.7803479,14.2805535 C12.4874646,14.5734566 12.0125908,14.5734726 11.7196878,14.2805892 C11.4534122,14.0143316 11.4291922,13.5976688 11.6470368,13.3040499 L11.7196521,13.2199291 L19.437,5.50129623 L13.748109,5.50129623 C13.3684132,5.50129623 13.054618,5.21914235 13.0049556,4.85306678 L12.998109,4.75129623 C12.998109,4.37160046 13.2802629,4.05780527 13.6463384,4.00814284 L13.748109,4.00129623 L21.3019242,4.00181369 Z M21.996,4.68829623 L21.998,4.72229623 L21.9977835,4.69715892 L21.9977835,4.69715892 L21.996,4.68829623 Z M21.819,4.26329623 L21.8344459,4.28032682 L21.843,4.29229623 L21.819,4.26329623 Z" id="ðŸŽ¨-Color"></path>
        </g>
    </g>
</svg>