<svg width="32" height="32" viewBox="0 0 32 32" fill="none" xmlns="http://www.w3.org/2000/svg">
<path d="M15.6358 3.9519C16.2453 3.34241 17.072 3 17.9339 3H25.7519C27.5469 3 29.0019 4.45507 29.0019 6.25V14.068C29.0019 14.7066 28.814 15.3257 28.4688 15.8516C26.953 14.6902 25.0571 14 23 14C18.0294 14 14 18.0294 14 23C14 25.0569 14.69 26.9527 15.8513 28.4684C14.5906 29.2948 12.8818 29.1541 11.7738 28.0461L3.95581 20.2281C2.68661 18.9589 2.6866 16.9011 3.95581 15.6319L15.6358 3.9519ZM23 11C24.1046 11 25 10.1046 25 9C25 7.89543 24.1046 7 23 7C21.8954 7 21 7.89543 21 9C21 10.1046 21.8954 11 23 11ZM23 30.5C27.1421 30.5 30.5 27.1421 30.5 23C30.5 18.8579 27.1421 15.5 23 15.5C18.8579 15.5 15.5 18.8579 15.5 23C15.5 27.1421 18.8579 30.5 23 30.5ZM24 18.25V22H27.75C28.1642 22 28.5 22.3358 28.5 22.75C28.5 23.1642 28.1642 23.5 27.75 23.5H24V27.25C24 27.6642 23.6642 28 23.25 28C22.8358 28 22.5 27.6642 22.5 27.25V23.5H18.75C18.3358 23.5 18 23.1642 18 22.75C18 22.3358 18.3358 22 18.75 22H22.5V18.25C22.5 17.8358 22.8358 17.5 23.25 17.5C23.6642 17.5 24 17.8358 24 18.25Z" fill="#212121"/>
</svg>
