<svg width="16" height="16" viewBox="0 0 16 16" fill="none" xmlns="http://www.w3.org/2000/svg">
<path d="M14.25 2.99988C13.8358 2.99988 13.5 3.33566 13.5 3.74988V12.2499C13.5 12.6641 13.8358 12.9999 14.25 12.9999C14.6642 12.9999 15 12.6641 15 12.2499V3.74988C15 3.33566 14.6642 2.99988 14.25 2.99988ZM5.78033 3.71955C5.48744 3.42665 5.01256 3.42665 4.71967 3.71955L1.21967 7.21955C0.926777 7.51244 0.926777 7.98731 1.21967 8.28021L4.71967 11.7802C5.01256 12.0731 5.48744 12.0731 5.78033 11.7802C6.07322 11.4873 6.07322 11.0124 5.78033 10.7195L3.56066 8.49988H11.25C11.6642 8.49988 12 8.16409 12 7.74988C12 7.33566 11.6642 6.99988 11.25 6.99988H3.56066L5.78033 4.78021C6.07322 4.48731 6.07322 4.01244 5.78033 3.71955Z" fill="#212121"/>
</svg>
