<svg width="28" height="28" viewBox="0 0 28 28" fill="none" xmlns="http://www.w3.org/2000/svg">
<path d="M18.6664 19.727C17.0069 21.1443 14.8534 22 12.5 22C7.25329 22 3 17.7467 3 12.5C3 7.25329 7.25329 3 12.5 3C17.7467 3 22 7.25329 22 12.5C22 14.8534 21.1443 17.0069 19.727 18.6663L25.7803 24.7197C26.0732 25.0126 26.0732 25.4874 25.7803 25.7803C25.4874 26.0732 25.0126 26.0732 24.7197 25.7803L18.6664 19.727ZM20.5 12.5C20.5 8.08172 16.9183 4.5 12.5 4.5C8.08172 4.5 4.5 8.08172 4.5 12.5C4.5 16.9183 8.08172 20.5 12.5 20.5C16.9183 20.5 20.5 16.9183 20.5 12.5Z" fill="#212121"/>
</svg>
