<svg width="20" height="20" viewBox="0 0 20 20" fill="none" xmlns="http://www.w3.org/2000/svg">
<path d="M2.5 3C2.22386 3 2 3.22386 2 3.5C2 3.77614 2.22386 4 2.5 4H17.5C17.7761 4 18 3.77614 18 3.5C18 3.22386 17.7761 3 17.5 3H2.5ZM2.5 7H17.5C17.7761 7 18 7.22386 18 7.5C18 7.77614 17.7761 8 17.5 8H2.5C2.22386 8 2 7.77614 2 7.5C2 7.22386 2.22386 7 2.5 7ZM17.5 16H9.12132L8.56144 15.4401C8.62974 15.2974 8.69073 15.1505 8.74394 15H17.5C17.7761 15 18 15.2239 18 15.5C18 15.7761 17.7761 16 17.5 16ZM17.5 12H8.74394C8.6181 11.644 8.44873 11.3085 8.24223 11H17.5C17.7761 11 18 11.2239 18 11.5C18 11.7761 17.7761 12 17.5 12ZM4.5 17C5.2862 17 6.01185 16.7408 6.59615 16.3031L9.14644 18.8535C9.3417 19.0488 9.65828 19.0488 9.85355 18.8535C10.0488 18.6583 10.0488 18.3417 9.85356 18.1464L7.30324 15.596C7.74082 15.0117 8 14.2861 8 13.5C8 11.567 6.433 10 4.5 10C2.567 10 1 11.567 1 13.5C1 15.433 2.567 17 4.5 17ZM4.5 16C3.11929 16 2 14.8807 2 13.5C2 12.1193 3.11929 11 4.5 11C5.88071 11 7 12.1193 7 13.5C7 14.8807 5.88071 16 4.5 16Z" fill="#212121"/>
</svg>
