<svg width="16" height="16" viewBox="0 0 16 16" fill="none" xmlns="http://www.w3.org/2000/svg">
<path d="M12.998 3.50293C13.6044 3.9591 13.998 4.68276 13.998 5.5V10.5C13.998 12.9853 11.9833 15 9.49805 15H7.49805C6.60029 15 5.81589 14.525 5.375 13.8145C5.72764 13.9339 6.10506 14 6.49805 14H9.49805C11.431 14 12.998 12.433 12.998 10.5V3.50293ZM9.5 1C10.8807 1 12 2.11929 12 3.5V10.5C12 11.8807 10.8807 13 9.5 13H5.5C4.11929 13 3 11.8807 3 10.5V3.5C3 2.11929 4.11929 1 5.5 1H9.5ZM7.14746 5.11133C6.64796 4.79902 6 5.15792 6 5.74707V8.24512C6.00009 8.83418 6.648 9.19309 7.14746 8.88086L9.14453 7.63184C9.61401 7.33803 9.61398 6.65419 9.14453 6.36035L7.14746 5.11133Z" fill="#212121"/>
</svg>
