<svg width="24" height="24" viewBox="0 0 24 24" fill="none" xmlns="http://www.w3.org/2000/svg">
<path d="M13.25 3C14.4926 3 15.5 4.00736 15.5 5.25V7H18.75C19.9926 7 21 8.00736 21 9.25V20.25C21 20.6642 20.6642 21 20.25 21H3.75C3.33579 21 3 20.6642 3 20.25V12.25C3 11.0074 4.00736 10 5.25 10H8.5V5.25C8.5 4.00736 9.50736 3 10.75 3H13.25ZM5.25 11.5C4.83579 11.5 4.5 11.8358 4.5 12.25V19.5H8.5V11.5H5.25ZM10.75 4.5C10.3358 4.5 10 4.83579 10 5.25V19.5H14V5.25C14 4.83579 13.6642 4.5 13.25 4.5H10.75ZM15.5 19.5H19.5V9.25C19.5 8.83579 19.1642 8.5 18.75 8.5H15.5V19.5Z" fill="#212121"/>
</svg>
