<svg width="24" height="24" viewBox="0 0 24 24" fill="none" xmlns="http://www.w3.org/2000/svg">
<path d="M8.5 5.23047C8.5 3.98783 9.50736 2.98047 10.75 2.98047H13.25C14.4926 2.98047 15.5 3.98783 15.5 5.23047V7.00047H18.75C19.9926 7.00047 21 8.00782 21 9.25047V20.2505C21 20.6647 20.6642 21.0005 20.25 21.0005H3.75C3.33579 21.0005 3 20.6647 3 20.2505V12.2505C3 11.0078 4.00736 10.0005 5.25 10.0005H8.5V5.23047ZM10 19.5005H14V5.23047C14 4.81626 13.6642 4.48047 13.25 4.48047H10.75C10.3358 4.48047 10 4.81625 10 5.23047V19.5005ZM8.5 11.5005H5.25C4.83579 11.5005 4.5 11.8363 4.5 12.2505V19.5005H8.5V11.5005ZM15.5 19.5005V8.50047H18.75C19.1642 8.50047 19.5 8.83625 19.5 9.25047V19.5005H15.5Z" fill="#212121"/>
</svg>
