<svg width="24" height="24" viewBox="0 0 24 24" fill="none" xmlns="http://www.w3.org/2000/svg">
<path d="M13.2562 8.99898L13.4937 7.49898H14.975L14.7375 8.99898H13.2562ZM17.7499 2C18.9407 2 19.9155 2.92516 19.9947 4.09595L19.9999 4.25V19.7481C19.9999 20.9389 19.0747 21.9137 17.9039 21.9929L17.7499 21.9981H6.25C5.05914 21.9981 4.08436 21.0729 4.00519 19.9021L4 19.7481V4.25C4 3.05914 4.92516 2.08436 6.09595 2.00519L6.25 2H17.7499ZM14.3954 11.1598C14.3306 11.5689 14.6097 11.9531 15.0188 12.0179C15.428 12.0827 15.8121 11.8035 15.8769 11.3944L16.0187 10.499H16.75C17.1642 10.499 17.5 10.1632 17.5 9.74898C17.5 9.33476 17.1642 8.99898 16.75 8.99898H16.2562L16.4937 7.49898H17.25C17.6642 7.49898 18 7.16319 18 6.74898C18 6.33476 17.6642 5.99898 17.25 5.99898H16.7312L16.8934 4.97438C16.9582 4.56526 16.6791 4.18109 16.2699 4.11631C15.8608 4.05154 15.4767 4.33068 15.4119 4.7398L15.2125 5.99898H13.7312L13.8934 4.97438C13.9582 4.56526 13.6791 4.18109 13.2699 4.11631C12.8608 4.05154 12.4767 4.33068 12.4119 4.7398L12.2125 5.99898H11.25C10.8358 5.99898 10.5 6.33476 10.5 6.74898C10.5 7.16319 10.8358 7.49898 11.25 7.49898H11.975L11.7375 8.99898H10.75C10.3358 8.99898 10 9.33476 10 9.74898C10 10.1632 10.3358 10.499 10.75 10.499H11.5L11.3954 11.1598C11.3306 11.5689 11.6097 11.9531 12.0188 12.0179C12.428 12.0827 12.8121 11.8035 12.8769 11.3944L13.0187 10.499H14.5L14.3954 11.1598Z" fill="#212121"/>
</svg>
