<svg width="16" height="16" viewBox="0 0 16 16" fill="none" xmlns="http://www.w3.org/2000/svg">
<path d="M10.0001 2.5C10.0001 2.22386 10.2239 2 10.5001 2H13.5001C13.7762 2 14.0001 2.22386 14.0001 2.5V5.5C14.0001 5.77614 13.7762 6 13.5001 6C13.2239 6 13.0001 5.77614 13.0001 5.5V3.70713L9.85362 6.85365C9.65836 7.04891 9.34178 7.04892 9.14652 6.85366C8.95125 6.6584 8.95125 6.34181 9.14651 6.14655L12.293 3H10.5001C10.2239 3 10.0001 2.77614 10.0001 2.5Z" fill="#212121"/>
<path d="M4.37408 2.11972C5.22511 1.79977 6.17939 2.18481 6.57008 3.00577L7.15449 4.23376C7.4034 4.7568 7.32892 5.37641 6.96314 5.82556L6.01817 6.9859C6.03192 7.05631 6.05094 7.14296 6.07676 7.24154C6.15128 7.52609 6.27958 7.89902 6.49343 8.26515C6.70736 8.63143 6.96875 8.92618 7.17947 9.13058C7.25108 9.20005 7.31592 9.25819 7.36973 9.30425L8.87595 9.0276C9.37214 8.93646 9.88091 9.10086 10.2299 9.46511L11.0386 10.309C11.7109 11.0106 11.6829 12.1254 10.9764 12.7924L10.6803 13.0718C9.55438 14.1347 7.80066 14.3617 6.54573 13.3186C5.60593 12.5374 4.47746 11.439 3.62802 10.1058C2.68718 8.6291 2.24792 6.87523 2.03983 5.55515C1.8025 4.04962 2.76057 2.72631 4.11092 2.21865L4.37408 2.11972ZM7.23625 9.83713C6.94738 10.2452 6.94718 10.2451 6.94718 10.2451L6.94536 10.2438L6.94234 10.2416L6.93335 10.2351C6.92608 10.2298 6.91628 10.2226 6.90418 10.2134C6.87998 10.1951 6.84651 10.1692 6.80555 10.1358C6.72375 10.0693 6.61144 9.97276 6.4832 9.84837C6.22822 9.60103 5.90233 9.23588 5.62993 8.76949C5.35744 8.30296 5.19951 7.83904 5.10938 7.49489C5.06405 7.32181 5.03517 7.17628 5.0174 7.07213C5.0085 7.01999 5.00235 6.97801 4.99831 6.94789C4.99629 6.93282 4.99479 6.92071 4.99373 6.91175L4.99247 6.90071L4.99207 6.89701L4.99193 6.89562C4.99193 6.89562 4.99182 6.89455 5.48921 6.84361L4.99182 6.89455C4.9783 6.76261 5.01777 6.63071 5.10152 6.52787L6.18774 5.19408C6.30967 5.04437 6.3345 4.83783 6.25153 4.66348L5.66712 3.43549C5.49968 3.08365 5.0907 2.91864 4.72598 3.05575L4.46282 3.15469C3.47811 3.52488 2.87651 4.44075 3.02763 5.39943C3.22638 6.66022 3.63699 8.25882 4.47139 9.56846C5.24469 10.7822 6.2889 11.8047 7.18496 12.5495C7.98846 13.2174 9.17335 13.1192 9.99389 12.3447L10.2899 12.0652C10.5927 11.7794 10.6047 11.3016 10.3166 11.0009L9.50793 10.157C9.39158 10.0356 9.22199 9.98077 9.0566 10.0111L7.32657 10.3289C7.19406 10.3532 7.05715 10.3229 6.94718 10.2451L7.23625 9.83713Z" fill="#212121"/>
</svg>
