<svg width="28" height="28" viewBox="0 0 28 28" fill="none" xmlns="http://www.w3.org/2000/svg">
<path d="M9.5 4C10.3284 4 11 4.67158 11 5.5V12.5957L18.3916 4.48926C18.9498 3.87717 19.8986 3.83348 20.5107 4.3916C21.1228 4.94977 21.1665 5.8986 20.6084 6.51075L13.7793 14L20.6084 21.4893C21.1665 22.1014 21.1228 23.0502 20.5107 23.6084C19.8986 24.1665 18.9498 24.1228 18.3916 23.5107L11 15.4033V22.5C11 23.3284 10.3284 24 9.5 24C8.67157 24 8 23.3284 8 22.5V5.5C8 4.67158 8.67157 4 9.5 4Z" fill="#212121"/>
</svg>
