<svg width="24" height="24" viewBox="0 0 24 24" fill="none" xmlns="http://www.w3.org/2000/svg">
<path d="M8.83743 4.41694C9.80547 3.83605 11.0175 3.5 12.4995 3.5C14.1887 3.5 15.4055 4.18714 16.1837 4.87878C16.5665 5.21901 16.8437 5.55939 17.0285 5.82029C17.1215 5.95155 17.193 6.06522 17.2443 6.1523C17.27 6.19593 17.2909 6.23315 17.307 6.26288C17.315 6.27775 17.3219 6.29078 17.3277 6.30182L17.3354 6.3169L17.3387 6.3233L17.3402 6.32621L17.3409 6.3276C17.3409 6.3276 17.1897 6.06219 17.3354 6.3169L17.3415 6.32893C17.7121 7.06983 17.412 7.9709 16.6711 8.34152C15.9365 8.70899 15.0444 8.41702 14.668 7.68984C14.6666 7.68722 14.6639 7.68249 14.66 7.67582C14.6468 7.65353 14.6206 7.61095 14.5807 7.55471C14.4999 7.44061 14.3706 7.28099 14.1908 7.12122C13.8439 6.81286 13.3104 6.5 12.4995 6.5C11.4819 6.5 10.8191 6.72646 10.3811 6.98934C9.94074 7.25356 9.64376 7.60493 9.43626 7.97846C9.22395 8.36066 9.11087 8.75797 9.05307 9.07009C9.02475 9.22302 9.01133 9.34665 9.00507 9.42543C9.00197 9.46456 9.00069 9.4918 9.0002 9.50511C9.00011 9.50746 9.00001 9.51081 9.00001 9.51081V14.5001C9.00001 16.157 10.3432 17.5001 12 17.5001C13.6569 17.5001 15 16.157 15 14.5001V14.0001H13.5C12.6716 14.0001 12 13.3285 12 12.5001C12 11.6717 12.6716 11.0001 13.5 11.0001H16.5C17.3284 11.0001 18 11.6717 18 12.5001V14.5001C18 17.8138 15.3137 20.5001 12 20.5001C8.6863 20.5001 6.00001 17.8138 6.00001 14.5001V9.50009C5.99951 11 6.00001 9.49836 6.00001 9.49836L6.00001 9.49657L6.00002 9.49266L6.00009 9.48356L6.0004 9.46026C6.00072 9.44251 6.00128 9.42032 6.00226 9.394C6.00421 9.34139 6.00782 9.27194 6.01448 9.18802C6.02776 9.02071 6.05341 8.79277 6.10322 8.52381C6.20168 7.99217 6.40109 7.26445 6.81374 6.52163C7.2312 5.77013 7.87164 4.99649 8.83743 4.41694Z" fill="#212121"/>
</svg>
