<svg width="20" height="20" viewBox="0 0 20 20" fill="none" xmlns="http://www.w3.org/2000/svg">
<path d="M8.06667 3.3L9.38572 4.28908L7.43319 6.34437C7.33879 6.44374 7.20774 6.5 7.07069 6.5H2V5.5C2 4.11929 3.11929 3 4.5 3H7.16667C7.49122 3 7.80702 3.10527 8.06667 3.3Z" fill="#212121"/>
<path d="M8.15819 7.03312L10.5647 4.5H15.5C16.8255 4.5 17.91 5.53154 17.9947 6.83562L18 7V10.2572C17.0491 9.47182 15.8296 9 14.5 9C11.4624 9 9 11.4624 9 14.5C9 15.4002 9.21628 16.2499 9.59971 17H4.5C3.11929 17 2 15.8807 2 14.5V7.5H7.07069C7.48186 7.5 7.875 7.33122 8.15819 7.03312Z" fill="#212121"/>
<path d="M19 14.5C19 16.9853 16.9853 19 14.5 19C12.0147 19 10 16.9853 10 14.5C10 12.0147 12.0147 10 14.5 10C16.9853 10 19 12.0147 19 14.5ZM14.8539 12.1469L14.8514 12.1444C14.804 12.0975 14.7495 12.062 14.6914 12.038C14.6333 12.0139 14.5697 12.0005 14.503 12.0001L14.5 12.0001L14.497 12.0001C14.4303 12.0005 14.3667 12.0139 14.3086 12.038C14.2496 12.0624 14.1944 12.0986 14.1464 12.1465L12.1464 14.1465C11.9512 14.3418 11.9512 14.6583 12.1464 14.8536C12.3417 15.0489 12.6583 15.0489 12.8535 14.8536L14 13.7072V16.5001C14 16.7762 14.2238 17.0001 14.5 17.0001C14.7761 17.0001 15 16.7762 15 16.5001L15 13.7072L16.1464 14.8536C16.3417 15.0489 16.6583 15.0489 16.8535 14.8536C17.0488 14.6583 17.0488 14.3418 16.8535 14.1465L14.8539 12.1469Z" fill="#212121"/>
</svg>
