<svg width="48" height="48" viewBox="0 0 48 48" fill="none" xmlns="http://www.w3.org/2000/svg">
<path d="M6.5 12.25V16H16.7145C17.046 16 17.3639 15.8683 17.5983 15.6339L20.9822 12.25L17.5983 8.86612C17.3639 8.6317 17.046 8.5 16.7145 8.5H10.25C8.17893 8.5 6.5 10.1789 6.5 12.25ZM4 12.25C4 8.79822 6.79822 6 10.25 6H16.7145C17.709 6 18.6629 6.39509 19.3661 7.09835L23.2678 11H37.75C41.2018 11 44 13.7982 44 17.25V24.6191C43.2476 23.8971 42.4086 23.2647 41.5 22.7392V17.25C41.5 15.1789 39.8211 13.5 37.75 13.5H23.2678L19.3661 17.4017C18.6629 18.1049 17.709 18.5 16.7145 18.5H6.5V34.75C6.5 36.8211 8.17893 38.5 10.25 38.5H22.7999C23.1255 39.3823 23.544 40.2196 24.0436 41H10.25C6.79822 41 4 38.2018 4 34.75V12.25ZM46 34C46 40.0751 41.0751 45 35 45C28.9249 45 24 40.0751 24 34C24 27.9249 28.9249 23 35 23C41.0751 23 46 27.9249 46 34ZM35.7071 26.2929C35.3166 25.9024 34.6834 25.9024 34.2929 26.2929L29.2929 31.2929C28.9024 31.6834 28.9024 32.3166 29.2929 32.7071C29.6834 33.0976 30.3166 33.0976 30.7071 32.7071L34 29.4142V41C34 41.5523 34.4477 42 35 42C35.5523 42 36 41.5523 36 41V29.4142L39.2929 32.7071C39.6834 33.0976 40.3166 33.0976 40.7071 32.7071C41.0976 32.3166 41.0976 31.6834 40.7071 31.2929L35.7071 26.2929Z" fill="#242424"/>
</svg>
