<svg width="28" height="28" viewBox="0 0 28 28" fill="none" xmlns="http://www.w3.org/2000/svg">
<path d="M2 6.75C2 4.67893 3.67893 3 5.75 3H9.42157C10.1509 3 10.8504 3.28973 11.3661 3.80546L13.25 5.68934L10.3055 8.63388C10.071 8.8683 9.75309 9 9.42157 9H2V6.75ZM2.00391 10.5V20.2501C2.00391 22.3211 3.68284 24.0001 5.75391 24.0001H14.4995C13.5579 22.7466 13 21.1884 13 19.5C13 15.3579 16.3579 12 20.5 12C22.6733 12 24.6307 12.9244 26.0005 14.4015V9.75C26.0005 7.67893 24.3216 6 22.2505 6H15.0607L11.3661 9.69454C10.8504 10.2103 10.1509 10.5 9.42157 10.5H2.00391ZM27 19.5C27 23.0899 24.0899 26 20.5 26C16.9101 26 14 23.0899 14 19.5C14 15.9101 16.9101 13 20.5 13C24.0899 13 27 15.9101 27 19.5ZM20 23.5C20 23.7761 20.2239 24 20.5 24C20.7761 24 21 23.7761 21 23.5V16.7071L23.1464 18.8536C23.3417 19.0488 23.6583 19.0488 23.8536 18.8536C24.0488 18.6583 24.0488 18.3417 23.8536 18.1464L20.8536 15.1464C20.7567 15.0496 20.63 15.0008 20.503 15L20.5 15L20.497 15C20.4303 15.0004 20.3667 15.0139 20.3086 15.0379C20.2496 15.0623 20.1944 15.0985 20.1464 15.1464L17.1464 18.1464C16.9512 18.3417 16.9512 18.6583 17.1464 18.8536C17.3417 19.0488 17.6583 19.0488 17.8536 18.8536L20 16.7071V23.5Z" fill="#242424"/>
</svg>
