<svg width="20" height="20" viewBox="0 0 20 20" fill="none" xmlns="http://www.w3.org/2000/svg">
<path d="M2 5.5C2 4.11929 3.11929 3 4.5 3H6.98223C7.44636 3 7.89148 3.18437 8.21967 3.51256L9.5 4.79289L7.43934 6.85355C7.34557 6.94732 7.21839 7 7.08579 7H2V5.5ZM2 8V14.5C2 15.8807 3.11929 17 4.5 17H9.59971C9.21628 16.2499 9 15.4002 9 14.5C9 11.4624 11.4624 9 14.5 9C15.8296 9 17.0491 9.47182 18 10.2572V7.5C18 6.11929 16.8807 5 15.5 5H10.7071L8.14645 7.56066C7.86514 7.84196 7.48361 8 7.08579 8H2ZM19 14.5C19 16.9853 16.9853 19 14.5 19C12.0147 19 10 16.9853 10 14.5C10 12.0147 12.0147 10 14.5 10C16.9853 10 19 12.0147 19 14.5ZM14.146 12.1468L12.1464 14.1464C11.9512 14.3417 11.9512 14.6583 12.1464 14.8536C12.3417 15.0488 12.6583 15.0488 12.8536 14.8536L14 13.7071V16.5C14 16.7761 14.2239 17 14.5 17C14.7761 17 15 16.7761 15 16.5V13.7071L16.1464 14.8536C16.3417 15.0488 16.6583 15.0488 16.8536 14.8536C17.0488 14.6583 17.0488 14.3417 16.8536 14.1464L14.8536 12.1464C14.8056 12.0985 14.7504 12.0623 14.6914 12.0379C14.6333 12.0139 14.5697 12.0004 14.503 12L14.5 12L14.497 12C14.4303 12.0004 14.3667 12.0139 14.3086 12.0379C14.2505 12.062 14.196 12.0974 14.1486 12.1443L14.146 12.1468Z" fill="#242424"/>
</svg>
