<svg width="48" height="48" viewBox="0 0 48 48" fill="none" xmlns="http://www.w3.org/2000/svg">
<path d="M24 6.5C14.335 6.5 6.5 14.335 6.5 24C6.5 33.665 14.335 41.5 24 41.5C33.665 41.5 41.5 33.665 41.5 24C41.5 14.335 33.665 6.5 24 6.5ZM4 24C4 12.9543 12.9543 4 24 4C35.0457 4 44 12.9543 44 24C44 35.0457 35.0457 44 24 44C12.9543 44 4 35.0457 4 24ZM20.75 16C21.4404 16 22 16.5596 22 17.25V30.75C22 31.4404 21.4404 32 20.75 32C20.0596 32 19.5 31.4404 19.5 30.75V17.25C19.5 16.5596 20.0596 16 20.75 16ZM34 17.25C34 16.5596 33.4404 16 32.75 16C32.0596 16 31.5 16.5596 31.5 17.25V30.75C31.5 31.4404 32.0596 32 32.75 32C33.4404 32 34 31.4404 34 30.75V17.25ZM14.75 20C15.4404 20 16 20.5596 16 21.25V26.75C16 27.4404 15.4404 28 14.75 28C14.0596 28 13.5 27.4404 13.5 26.75V21.25C13.5 20.5596 14.0596 20 14.75 20ZM28 20.25C28 19.5596 27.4404 19 26.75 19C26.0596 19 25.5 19.5596 25.5 20.25V27.75C25.5 28.4404 26.0596 29 26.75 29C27.4404 29 28 28.4404 28 27.75V20.25Z" fill="#212121"/>
</svg>
