<svg width="20" height="20" viewBox="0 0 20 20" fill="none" xmlns="http://www.w3.org/2000/svg">
<path d="M8.9975 2.38811C9.56767 1.87584 10.4323 1.87584 11.0025 2.38811L16.5025 7.32965C16.8191 7.61414 17 8.01977 17 8.44544V9.40086C16.6963 9.22518 16.359 9.10121 16 9.04099V8.44544C16 8.30355 15.9397 8.16834 15.8342 8.07351L10.3342 3.13197C10.1441 2.96122 9.85589 2.96122 9.66583 3.13197L4.16583 8.07351C4.06029 8.16834 4 8.30355 4 8.44544V15.4996C4 15.7757 4.22386 15.9996 4.5 15.9996H7C7.27614 15.9996 7.5 15.7757 7.5 15.4996V11.9996C7.5 11.1711 8.17157 10.4996 9 10.4996H11C11.8284 10.4996 12.5 11.1711 12.5 11.9996V14.2075C12.1019 14.3815 11.7578 14.6561 11.5 14.9993V11.9996C11.5 11.7234 11.2761 11.4996 11 11.4996H9C8.72386 11.4996 8.5 11.7234 8.5 11.9996V15.4996C8.5 16.328 7.82843 16.9996 7 16.9996H4.5C3.67157 16.9996 3 16.328 3 15.4996V8.44544C3 8.01977 3.18086 7.61414 3.4975 7.32965L8.9975 2.38811ZM17.5 11.9995C17.5 13.1041 16.6046 13.9995 15.5 13.9995C14.3954 13.9995 13.5 13.1041 13.5 11.9995C13.5 10.8949 14.3954 9.99951 15.5 9.99951C16.6046 9.99951 17.5 10.8949 17.5 11.9995ZM19 16.4995C19 17.7447 18 18.9995 15.5 18.9995C13 18.9995 12 17.7494 12 16.4995C12 15.6711 12.6716 14.9995 13.5 14.9995H17.5C18.3284 14.9995 19 15.6711 19 16.4995Z" fill="#212121"/>
</svg>
