<svg width="20" height="20" viewBox="0 0 20 20" fill="none" xmlns="http://www.w3.org/2000/svg">
<path d="M9.5 17C9.77614 17 10 17.2239 10 17.5C10 17.7761 9.77614 18 9.5 18C9.22386 18 9 17.7761 9 17.5C9 17.2239 9.22386 17 9.5 17ZM12.5 17C12.7761 17 13 17.2239 13 17.5C13 17.7761 12.7761 18 12.5 18C12.2239 18 12 17.7761 12 17.5C12 17.2239 12.2239 17 12.5 17ZM8 16C8.27614 16 8.5 16.2239 8.5 16.5C8.5 16.7761 8.27614 17 8 17C7.72386 17 7.5 16.7761 7.5 16.5C7.5 16.2239 7.72386 16 8 16ZM11 16C11.2761 16 11.5 16.2239 11.5 16.5C11.5 16.7761 11.2761 17 11 17C10.7239 17 10.5 16.7761 10.5 16.5C10.5 16.2239 10.7239 16 11 16ZM14 16C14.2761 16 14.5 16.2239 14.5 16.5C14.5 16.7761 14.2761 17 14 17C13.7239 17 13.5 16.7761 13.5 16.5C13.5 16.2239 13.7239 16 14 16ZM11 6C13.4646 6 14.8627 7.5736 15.066 9.47399L15.1282 9.47399C16.7143 9.47399 18 10.711 18 12.237C18 13.763 16.7143 15 15.1282 15H6.87179C5.28575 15 4 13.763 4 12.237C4 10.711 5.28575 9.47399 6.87181 9.47399L6.93399 9.47399C7.13851 7.56111 8.53544 6 11 6ZM11 7C9.35056 7 7.9129 8.2703 7.9129 10.0249C7.9129 10.303 7.65891 10.5211 7.36808 10.5211L6.81818 10.5211C5.81403 10.5211 5 11.2999 5 12.2606C5 13.2212 5.81403 14 6.81818 14H15.1818C16.186 14 17 13.2212 17 12.2606C17 11.2999 16.186 10.5211 15.1818 10.5211L14.6319 10.5211C14.3411 10.5211 14.0871 10.303 14.0871 10.0249C14.0871 8.24779 12.6494 7 11 7ZM5.84302 2.00094C6.50882 2.03665 7.1553 2.22853 7.73824 2.56509C8.75213 3.15046 9.43372 4.09034 9.71685 5.13776C9.3336 5.22086 8.97546 5.3438 8.64384 5.50129C8.46211 4.62729 7.91551 3.83849 7 3.37508C6.81253 3.28019 6.66002 3.20354 6.46479 3.12634C6.55085 4.3537 6.42855 5.6088 5.83949 6.57089C5.25993 7.4239 4.51097 7.99381 3.28098 8.46918C3.42019 8.59325 3.57175 8.70472 3.73187 8.80761C4.04072 9.00605 4.34873 9.15929 4.65194 9.26845C4.3158 9.49001 4.01925 9.76434 3.77324 10.079C3.6766 10.0346 3.58086 9.98412 3.48635 9.92955C2.93571 9.6116 2.46827 9.17992 2.11115 8.66136C1.87709 8.32142 2.02852 7.85194 2.41712 7.71287C3.79256 7.22059 4.53364 6.66658 4.95748 5.85745C5.42037 4.97387 5.50588 4.03678 5.19856 2.77778C5.09864 2.36827 5.42211 1.97835 5.84302 2.00094Z" fill="#212121"/>
</svg>
