<svg width="24" height="24" viewBox="0 0 24 24" fill="none" xmlns="http://www.w3.org/2000/svg">
<path d="M12.2983 21C11.8232 20.9776 11.3589 20.7628 11.0318 20.3675C10.9597 20.2803 10.8908 20.1903 10.8253 20.0977L10.8192 20.0891C10.3355 19.4023 10.0387 18.5723 10.0035 17.6794C10.0012 17.6199 10 17.5601 10 17.5C10 16.974 10.0902 16.4692 10.2561 16H9.5L9.5 21H12.2983ZM19.9558 14.3576C20.2855 14.1894 20.6506 14.135 21 14.1856V9.5H16V11.6683C16.6497 11.3603 17.4499 11.475 17.9874 12.0126L19.486 13.5112L19.5004 13.5257C19.6616 13.6902 19.7837 13.8786 19.8669 14.0793C19.904 14.1686 19.9338 14.2616 19.9558 14.3576ZM21 8V6.25C21 4.45507 19.5449 3 17.75 3H16V8H21ZM14.5 3H9.5L9.5 8H14.5V3ZM8 3H6.25C4.45507 3 3 4.45507 3 6.25V8H8L8 3ZM3 9.5V14.5H8V9.5H3ZM3 16V17.75C3 19.5449 4.45507 21 6.25 21H8L8 16H3ZM17.2803 12.7197C16.9874 12.4268 16.5126 12.4268 16.2197 12.7197C15.9268 13.0126 15.9268 13.4874 16.2197 13.7803L16.4393 14H14.5C12.567 14 11 15.567 11 17.5C11 18.2483 11.2357 18.9438 11.6368 19.5134C11.8753 19.852 12.3432 19.9332 12.6818 19.6947C13.0205 19.4563 13.1017 18.9884 12.8632 18.6497C12.6343 18.3247 12.5 17.9291 12.5 17.5C12.5 16.3954 13.3954 15.5 14.5 15.5H16.4393L16.2197 15.7197C15.9268 16.0126 15.9268 16.4874 16.2197 16.7803C16.5126 17.0732 16.9874 17.0732 17.2803 16.7803L18.7803 15.2803C19.0732 14.9874 19.0732 14.5126 18.7803 14.2197L17.2803 12.7197ZM21.3624 15.4856C21.1238 15.147 20.6559 15.0659 20.3173 15.3046C19.9788 15.5432 19.8977 16.0111 20.1364 16.3497C20.3655 16.6748 20.5 17.0706 20.5 17.5C20.5 18.6046 19.6046 19.5 18.5 19.5H16.5607L16.7803 19.2803C17.0732 18.9874 17.0732 18.5126 16.7803 18.2197C16.4874 17.9268 16.0126 17.9268 15.7197 18.2197L14.2197 19.7197C13.9268 20.0126 13.9268 20.4874 14.2197 20.7803L15.7197 22.2803C16.0126 22.5732 16.4874 22.5732 16.7803 22.2803C17.0732 21.9874 17.0732 21.5126 16.7803 21.2197L16.5607 21H18.5C20.433 21 22 19.433 22 17.5C22 16.7512 21.764 16.0554 21.3624 15.4856Z" fill="#212121"/>
</svg>
