<svg width="28" height="28" viewBox="0 0 28 28" fill="none" xmlns="http://www.w3.org/2000/svg">
<rect x="5" y="4.25" width="18" height="1.75" fill="#745125"/>
<rect x="5" y="6" width="18" height="2" fill="#E62C46"/>
<rect x="5" y="8" width="18" height="2" fill="#F36D38"/>
<rect x="5" y="10" width="18" height="1" fill="#FFD23E"/>
<rect x="5" y="11" width="18" height="2" fill="#61BC51"/>
<rect x="5" y="13" width="18" height="2" fill="#1793E8"/>
<rect x="5" y="15" width="18" height="2" fill="#B73FBB"/>
<path d="M4.75 3C4.33579 3 4 3.33579 4 3.75V24.25C4 24.6642 4.33579 25 4.75 25C5.16421 25 5.5 24.6642 5.5 24.25L5.5 18H23.25C23.6642 18 24 17.6642 24 17.25V3.75C24 3.33579 23.6642 3 23.25 3H4.75ZM5.5 4.5H22.5V16.5H5.5V4.5Z" fill="#212121"/>
</svg>
