<svg width="24" height="24" viewBox="0 0 24 24" fill="none" xmlns="http://www.w3.org/2000/svg">
<path d="M7.97877 2.67289C7.83935 2.27013 7.45997 2 7.03375 2C6.60753 2 6.22815 2.27013 6.08873 2.67289L3.29552 10.7419C3.11486 11.2638 3.3915 11.8333 3.91342 12.0139C4.43534 12.1946 5.0049 11.918 5.18556 11.3961L5.59721 10.2069H8.47028L8.88193 11.3961C9.0626 11.918 9.63216 12.1946 10.1541 12.0139C10.676 11.8333 10.9526 11.2638 10.772 10.7419L7.97877 2.67289ZM6.28955 8.20691L7.03375 6.05707L7.77795 8.20691H6.28955ZM17.5 2C18.0523 2 18.5 2.44772 18.5 3V18.5858L20.2929 16.7929C20.6834 16.4024 21.3166 16.4024 21.7071 16.7929C22.0976 17.1834 22.0976 17.8166 21.7071 18.2071L18.2071 21.7071C17.8166 22.0976 17.1834 22.0976 16.7929 21.7071L13.2929 18.2071C12.9024 17.8166 12.9024 17.1834 13.2929 16.7929C13.6834 16.4024 14.3166 16.4024 14.7071 16.7929L16.5 18.5858V3C16.5 2.44772 16.9477 2 17.5 2ZM3 16C3 14.3431 4.34315 13 6 13H10C10.5523 13 11 13.4477 11 14V21C11 21.5523 10.5523 22 10 22C9.44772 22 9 21.5523 9 21V19H6.33888C6.30734 19.0067 6.26045 19.018 6.20296 19.0361C6.06674 19.0789 5.88754 19.154 5.71242 19.2802C5.40594 19.5009 5 19.9507 5 21C5 21.5523 4.55228 22 4 22C3.44772 22 3 21.5523 3 21C3 19.7265 3.4048 18.8178 3.95304 18.1932C3.36661 17.6456 3 16.8656 3 16ZM6.27039 17H9V15H6C5.44772 15 5 15.4477 5 16C5 16.5523 5.44772 17 6 17H6.24379C6.25268 16.9999 6.26154 16.9999 6.27039 17Z" fill="#212121"/>
</svg>
