<?xml version="1.0" encoding="UTF-8"?>
<svg width="24px" height="24px" viewBox="0 0 24 24" version="1.1" xmlns="http://www.w3.org/2000/svg" xmlns:xlink="http://www.w3.org/1999/xlink">
    <!-- Generator: Sketch 59.1 (86144) - https://sketch.com -->
    <title>ic_dismiss_circle_24_regular</title>
    <desc>Created with Sketch.</desc>
    <g id="ðŸ”-Product-Icons" stroke="none" stroke-width="1" fill="none" fill-rule="evenodd">
        <g id="ic_dismiss_circle_24_regular" fill="#212121">
            <path d="M12,2 C17.5228475,2 22,6.4771525 22,12 C22,17.5228475 17.5228475,22 12,22 C6.4771525,22 2,17.5228475 2,12 C2,6.4771525 6.4771525,2 12,2 Z M12,3.5 C7.30557963,3.5 3.5,7.30557963 3.5,12 C3.5,16.6944204 7.30557963,20.5 12,20.5 C16.6944204,20.5 20.5,16.6944204 20.5,12 C20.5,7.30557963 16.6944204,3.5 12,3.5 Z M15.4462117,8.39705176 L15.5303301,8.46966991 C15.7965966,8.73593648 15.8208027,9.15260016 15.6029482,9.44621165 L15.5303301,9.53033009 L13.061,12 L15.5303301,14.4696699 C15.7965966,14.7359365 15.8208027,15.1526002 15.6029482,15.4462117 L15.5303301,15.5303301 C15.2640635,15.7965966 14.8473998,15.8208027 14.5537883,15.6029482 L14.4696699,15.5303301 L12,13.061 L9.53033009,15.5303301 C9.26406352,15.7965966 8.84739984,15.8208027 8.55378835,15.6029482 L8.46966991,15.5303301 C8.20340335,15.2640635 8.1791973,14.8473998 8.39705176,14.5537883 L8.46966991,14.4696699 L10.939,12 L8.46966991,9.53033009 C8.20340335,9.26406352 8.1791973,8.84739984 8.39705176,8.55378835 L8.46966991,8.46966991 C8.73593648,8.20340335 9.15260016,8.1791973 9.44621165,8.39705176 L9.53033009,8.46966991 L12,10.939 L14.4696699,8.46966991 C14.7359365,8.20340335 15.1526002,8.1791973 15.4462117,8.39705176 Z" id="ðŸŽ¨-Color"></path>
        </g>
    </g>
</svg>