<svg width="48" height="48" viewBox="0 0 48 48" fill="none" xmlns="http://www.w3.org/2000/svg">
<path d="M46 13C46 19.0751 41.0751 24 35 24C28.9249 24 24 19.0751 24 13C24 6.92487 28.9249 2 35 2C41.0751 2 46 6.92487 46 13ZM36 6C36 5.44772 35.5523 5 35 5C34.4477 5 34 5.44772 34 6V12H28C27.4477 12 27 12.4477 27 13C27 13.5523 27.4477 14 28 14H34V20C34 20.5523 34.4477 21 35 21C35.5523 21 36 20.5523 36 20V14H42C42.5523 14 43 13.5523 43 13C43 12.4477 42.5523 12 42 12H36V6ZM41.5 28.75V24.2608C42.4086 23.7353 43.2476 23.1029 44 22.3809V28.75C44 32.7541 40.7541 36 36.75 36H26.3967L15.5475 43.6583C14.0571 44.7103 12 43.6444 12 41.8201V36H11.25C7.24594 36 4 32.7541 4 28.75V13.25C4 9.24594 7.24594 6 11.25 6H24.0436C23.544 6.78039 23.1255 7.61768 22.7999 8.5H11.25C8.62665 8.5 6.5 10.6266 6.5 13.25V28.75C6.5 31.3734 8.62665 33.5 11.25 33.5H14.5V41.3376L25.6033 33.5H36.75C39.3734 33.5 41.5 31.3734 41.5 28.75Z" fill="#212121"/>
</svg>
