<svg width="16" height="16" viewBox="0 0 16 16" fill="none" xmlns="http://www.w3.org/2000/svg">
<path d="M15 5.5C15 7.98528 12.9853 10 10.5 10C8.01472 10 6 7.98528 6 5.5C6 3.01472 8.01472 1 10.5 1C12.9853 1 15 3.01472 15 5.5ZM11 3.5C11 3.22386 10.7761 3 10.5 3C10.2239 3 10 3.22386 10 3.5V5H8.5C8.22386 5 8 5.22386 8 5.5C8 5.77614 8.22386 6 8.5 6H10V7.5C10 7.77614 10.2239 8 10.5 8C10.7761 8 11 7.77614 11 7.5V6H12.5C12.7761 6 13 5.77614 13 5.5C13 5.22386 12.7761 5 12.5 5H11V3.5Z" fill="#212121"/>
<path d="M10.5 11C12.3602 11 14.0046 10.0766 15 8.66308V9.5C15 10.8807 13.8807 12 12.5 12H8.68787L5.62533 14.6797C4.99168 15.2342 4 14.7842 4 13.9422V12H3.5C2.11929 12 1 10.8807 1 9.5V4.5C1 3.11929 2.11929 2 3.5 2H6.25716C5.47182 2.95094 5 4.17037 5 5.5C5 8.53757 7.46243 11 10.5 11Z" fill="#212121"/>
</svg>
