<svg width="20" height="20" viewBox="0 0 20 20" fill="none" xmlns="http://www.w3.org/2000/svg">
<path d="M17.1809 2.81706C16.0941 1.73025 14.332 1.73025 13.2452 2.81706L3.63939 12.4229L3.52212 12.5508C3.33646 12.7718 3.20039 13.031 3.12407 13.3109L2.01817 17.3658L2.00301 17.4452C1.96546 17.7857 2.28552 18.0743 2.63211 17.9798L6.68708 16.8739L6.85236 16.821C7.12323 16.7212 7.36997 16.5636 7.57506 16.3586L9.01564 14.918C9.00528 14.78 9 14.6406 9 14.5C9 14.1274 9.03705 13.7634 9.10768 13.4116L6.86796 15.6515L6.77028 15.7372L6.66278 15.8093C6.58815 15.8526 6.50791 15.8862 6.42397 15.9091L3.2122 16.7847L4.08884 13.574L4.13111 13.4511C4.18117 13.3314 4.2542 13.2223 4.34649 13.13L12.385 5.09195L14.906 7.61295L13.4113 9.10774C13.7632 9.03708 14.1273 9 14.5 9C14.6406 9 14.78 9.00528 14.918 9.01564L17.1809 6.75273L17.3111 6.61346C18.2658 5.52026 18.2224 3.85858 17.1809 2.81706ZM14.0722 3.41457C14.7727 2.83003 15.8162 2.86656 16.4738 3.52417L16.5834 3.64407C17.1679 4.34455 17.1314 5.38803 16.4738 6.04563L15.613 6.90595L13.092 4.38495L13.9523 3.52417L14.0722 3.41457ZM19 14.5C19 16.9853 16.9853 19 14.5 19C12.0147 19 10 16.9853 10 14.5C10 12.0147 12.0147 10 14.5 10C16.9853 10 19 12.0147 19 14.5ZM13.6036 11.8964C13.4083 11.7012 13.0917 11.7012 12.8964 11.8964L11.1464 13.6464C11.0985 13.6944 11.0623 13.7496 11.0379 13.8086C11.0135 13.8676 11 13.9322 11 14C11 14.0678 11.0135 14.1324 11.0379 14.1914C11.062 14.2495 11.0974 14.304 11.1443 14.3514L12.8964 16.1036C13.0917 16.2988 13.4083 16.2988 13.6036 16.1036C13.7988 15.9083 13.7988 15.5917 13.6036 15.3964L12.7071 14.5H14.25C15.2165 14.5 16 15.2835 16 16.25V16.5C16 16.7761 16.2239 17 16.5 17C16.7761 17 17 16.7761 17 16.5V16.25C17 14.7312 15.7688 13.5 14.25 13.5H12.7071L13.6036 12.6036C13.7988 12.4083 13.7988 12.0917 13.6036 11.8964Z" fill="#212121"/>
</svg>
