<svg width="20" height="20" viewBox="0 0 20 20" fill="none" xmlns="http://www.w3.org/2000/svg">
<path d="M2 2.75C2 2.33579 2.33579 2 2.75 2H8.75C9.16421 2 9.5 2.33579 9.5 2.75V8.25C9.5 8.66421 9.16421 9 8.75 9C8.33579 9 8 8.66421 8 8.25V3.5H2.75C2.33579 3.5 2 3.16421 2 2.75ZM6.5 9.75C6.5 9.33579 6.16421 9 5.75 9C5.33579 9 5 9.33579 5 9.75V10.5H2.75C2.33579 10.5 2 10.8358 2 11.25C2 11.6642 2.33579 12 2.75 12H8.75C9.16421 12 9.5 11.6642 9.5 11.25C9.5 10.8358 9.16421 10.5 8.75 10.5H6.5V9.75ZM5.75 19C7.82107 19 9.5 17.6569 9.5 16C9.5 14.3431 7.82107 13 5.75 13C3.67893 13 2 14.3431 2 16C2 17.6569 3.67893 19 5.75 19ZM5.75 17.5C4.17771 17.5 3.5 16.5334 3.5 16C3.5 15.4666 4.17771 14.5 5.75 14.5C7.32229 14.5 8 15.4666 8 16C8 16.5334 7.32229 17.5 5.75 17.5ZM14.25 2C14.6642 2 15 2.33579 15 2.75V15.3219L16.4471 13.7432C16.727 13.4379 17.2015 13.4172 17.5068 13.6971C17.8121 13.977 17.8328 14.4515 17.5529 14.7568L14.8029 17.7568C14.6608 17.9118 14.4602 18 14.25 18C14.0398 18 13.8392 17.9118 13.6971 17.7568L10.9471 14.7568C10.6672 14.4515 10.6879 13.977 10.9932 13.6971C11.2985 13.4172 11.773 13.4379 12.0529 13.7432L13.5 15.3219V2.75C13.5 2.33579 13.8358 2 14.25 2Z" fill="#212121"/>
</svg>
