<svg width="20" height="20" viewBox="0 0 20 20" fill="none" xmlns="http://www.w3.org/2000/svg">
<path d="M4.03488 3C3.70527 2.99981 3.28854 3.14209 2.87147 3.605C2.68664 3.81016 2.37048 3.82663 2.16533 3.64179C1.96017 3.45695 1.9437 3.1408 2.12853 2.93564C2.71147 2.28863 3.38849 1.99963 4.03544 2C4.66951 2.00036 5.23738 2.28023 5.59776 2.69904C5.9591 3.11897 6.13978 3.72447 5.87331 4.31188C5.75182 4.57971 5.5523 4.81014 5.2834 5.00023C5.55238 5.19054 5.75191 5.42121 5.87339 5.68925C6.13966 6.2768 5.9592 6.88251 5.59785 7.30269C5.23746 7.72176 4.66946 8.00177 4.03517 8.00178C3.388 8.0018 2.71101 7.71198 2.12823 7.06397C1.94358 6.85865 1.96034 6.54251 2.16566 6.35786C2.37098 6.1732 2.68712 6.18996 2.87177 6.39528C3.289 6.85921 3.70575 7.00179 4.03515 7.00178C4.37742 7.00178 4.6688 6.84935 4.83966 6.65066C5.00956 6.4531 5.03222 6.25575 4.96256 6.10203C4.88603 5.93316 4.62641 5.65567 3.88884 5.48748C3.66134 5.4356 3.49997 5.23327 3.5 4.99992C3.50004 4.76658 3.66146 4.56429 3.88898 4.51248C4.6267 4.34447 4.88621 4.06723 4.96263 3.89877C5.03211 3.74561 5.00966 3.54874 4.83975 3.35129C4.66888 3.15271 4.37738 3.0002 4.03488 3ZM16.5034 5.00098C16.7488 5.00098 16.953 5.17785 16.9953 5.4111L17.0034 5.50098V16.5012C17.0034 16.7774 16.7795 17.0012 16.5034 17.0012C16.2579 17.0012 16.0537 16.8243 16.0114 16.5911L16.0034 16.5012V5.50098C16.0034 5.22483 16.2272 5.00098 16.5034 5.00098ZM7.50335 10.9999C7.74881 10.9999 7.95296 11.1768 7.9953 11.41L8.00335 11.4999V16.5002C8.00335 16.7763 7.77949 17.0002 7.50335 17.0002C7.25789 17.0002 7.05374 16.8233 7.01141 16.59L7.00335 16.5002V11.4999C7.00335 11.2238 7.22721 10.9999 7.50335 10.9999ZM4.5 13.0002C4.74546 13.0002 4.94961 13.177 4.99195 13.4103L5 13.5002V16.5002C5 16.7763 4.77615 17.0002 4.5 17.0002C4.25454 17.0002 4.0504 16.8233 4.00806 16.59L4 16.5002V13.5002C4 13.224 4.22386 13.0002 4.5 13.0002ZM10.5 8.99769C10.7455 8.99769 10.9496 9.17457 10.9919 9.40781L11 9.49769V16.5002C11 16.7763 10.7761 17.0002 10.5 17.0002C10.2545 17.0002 10.0504 16.8233 10.0081 16.59L10 16.5002V9.49769C10 9.22155 10.2239 8.99769 10.5 8.99769ZM13.5 7.00226C13.7455 7.00226 13.9496 7.17913 13.9919 7.41238L14 7.50226V16.5002C14 16.7763 13.7761 17.0002 13.5 17.0002C13.2545 17.0002 13.0504 16.8233 13.0081 16.59L13 16.5002V7.50226C13 7.22612 13.2239 7.00226 13.5 7.00226ZM9.24996 3.00001L9.49552 3C9.50616 3.00049 9.63038 3.0062 9.782 3.06272C9.95057 3.12557 10.1368 3.24364 10.2603 3.48097C10.3879 3.72591 10.6898 3.82109 10.9347 3.69357C11.1797 3.56605 11.2749 3.26412 11.1473 3.01918C10.6166 1.99983 9.52912 2 9.50071 2L9.24992 2.00001C8.00731 2.00006 7 3.0074 7 4.25001V5.75008C7 6.99272 8.00736 8.00008 9.25 8.00008C10.4926 8.00008 11.5 6.99272 11.5 5.75008V5.25008C11.5 4.97393 11.2761 4.75008 11 4.75008H9.5C9.22386 4.75008 9 4.97393 9 5.25008C9 5.52622 9.22386 5.75008 9.5 5.75008H10.5C10.5 6.44043 9.94036 7.00008 9.25 7.00008C8.55965 7.00008 8 6.44043 8 5.75008V4.25001C8 3.55967 8.55962 3.00004 9.24996 3.00001Z" fill="#212121"/>
</svg>
