<svg width="16" height="16" viewBox="0 0 16 16" fill="none" xmlns="http://www.w3.org/2000/svg">
<path d="M13.016 13.7231L14.1464 14.8536C14.3417 15.0488 14.6583 15.0488 14.8536 14.8536C15.0488 14.6583 15.0488 14.3417 14.8536 14.1464L1.85355 1.14645C1.65829 0.951184 1.34171 0.951184 1.14645 1.14645C0.951184 1.34171 0.951184 1.65829 1.14645 1.85355L2.27691 2.98402C2.10096 3.28177 2 3.6291 2 4V5.5C2 5.77614 2.22386 6 2.5 6C2.77614 6 3 5.77614 3 5.5V4C3 3.91042 3.01178 3.82359 3.03387 3.74098L4.7044 5.4115C4.47759 5.5612 4.27715 5.71994 4.10105 5.88002C3.71846 6.22783 3.45633 6.57671 3.28842 6.84184C3.20434 6.97458 3.14344 7.08705 3.10248 7.16896C3.08199 7.20994 3.06644 7.24338 3.05545 7.26799C3.04995 7.2803 3.04558 7.29042 3.0423 7.29819L3.03818 7.30806L3.03596 7.31308L3.03565 7.31429C2.93309 7.57068 3.0578 7.86167 3.31419 7.96422C3.57041 8.06671 3.86118 7.94224 3.96392 7.6862L3.96343 7.68744L3.9685 7.67583C3.97386 7.66382 3.98322 7.64355 3.99691 7.61617C4.02431 7.56136 4.06887 7.47852 4.13324 7.37689C4.2622 7.17327 4.46881 6.89715 4.77372 6.61996C4.95416 6.45593 5.17104 6.28957 5.42991 6.13702L6.38472 7.09183C5.84353 7.55041 5.5 8.23509 5.5 9C5.5 10.3807 6.61929 11.5 8 11.5C8.76491 11.5 9.44959 11.1565 9.90817 10.6153L12.259 12.9661C12.1764 12.9882 12.0896 13 12 13H10.5C10.2239 13 10 13.2239 10 13.5C10 13.7761 10.2239 14 10.5 14H12C12.3709 14 12.7182 13.899 13.016 13.7231Z" fill="#212121"/>
<path d="M6.73293 4.61159L7.63156 5.51022C7.75067 5.5035 7.87341 5.5 7.99989 5.5C9.61734 5.5 10.6244 6.07298 11.2261 6.61996C11.531 6.89715 11.7376 7.17327 11.8665 7.37689C11.9309 7.47852 11.9755 7.56136 12.0029 7.61617C12.0166 7.64355 12.0259 7.66382 12.0313 7.67583C12.0313 7.67583 12.2755 8.12825 12.6856 7.96422C12.942 7.86167 13.0667 7.57068 12.9641 7.31429C12.857 7.0911 12.9636 7.31308 12.9636 7.31308L12.9631 7.31164L12.9616 7.30806L12.9575 7.29819C12.9542 7.29042 12.9498 7.2803 12.9443 7.26799C12.9333 7.24338 12.9178 7.20994 12.8973 7.16896C12.8563 7.08705 12.7954 6.97458 12.7114 6.84184C12.5434 6.57671 12.2813 6.22783 11.8987 5.88002C11.1254 5.17702 9.88244 4.5 7.99989 4.5C7.54027 4.5 7.11877 4.54036 6.73293 4.61159Z" fill="#212121"/>
<path d="M13 10.8787L14 11.8787V10.5C14 10.2239 13.7761 10 13.5 10C13.2239 10 13 10.2239 13 10.5V10.8787Z" fill="#212121"/>
<path d="M4.12134 2L5.12134 3H5.5C5.77614 3 6 2.77614 6 2.5C6 2.22386 5.77614 2 5.5 2H4.12134Z" fill="#212121"/>
<path d="M2 12C2 13.1046 2.89543 14 4 14H5.5C5.77614 14 6 13.7761 6 13.5C6 13.2239 5.77614 13 5.5 13H4C3.44772 13 3 12.5523 3 12V10.5C3 10.2239 2.77614 10 2.5 10C2.22386 10 2 10.2239 2 10.5V12Z" fill="#212121"/>
<path d="M12 2C13.1046 2 14 2.89543 14 4V5.5C14 5.77614 13.7761 6 13.5 6C13.2239 6 13 5.77614 13 5.5V4C13 3.44772 12.5523 3 12 3H10.5C10.2239 3 10 2.77614 10 2.5C10 2.22386 10.2239 2 10.5 2H12Z" fill="#212121"/>
</svg>
