<svg width="24" height="24" viewBox="0 0 24 24" fill="none" xmlns="http://www.w3.org/2000/svg">
<path d="M18.25 3C19.7688 3 21 4.23122 21 5.75V18.25C21 19.7688 19.7688 21 18.25 21H5.75C4.23122 21 3 19.7688 3 18.25V5.75C3 4.23122 4.23122 3 5.75 3H18.25ZM18.25 4.5H5.75C5.05964 4.5 4.5 5.05964 4.5 5.75V18.25C4.5 18.9404 5.05964 19.5 5.75 19.5H18.25C18.9404 19.5 19.5 18.9404 19.5 18.25V5.75C19.5 5.05964 18.9404 4.5 18.25 4.5ZM10 14.4393L16.4697 7.96967C16.7626 7.67678 17.2374 7.67678 17.5303 7.96967C17.7966 8.23594 17.8208 8.6526 17.6029 8.94621L17.5303 9.03033L10.5303 16.0303C10.2641 16.2966 9.8474 16.3208 9.55379 16.1029L9.46967 16.0303L6.46967 13.0303C6.17678 12.7374 6.17678 12.2626 6.46967 11.9697C6.73594 11.7034 7.1526 11.6792 7.44621 11.8971L7.53033 11.9697L10 14.4393L16.4697 7.96967L10 14.4393Z" fill="#212121"/>
</svg>
