<svg width="24" height="24" viewBox="0 0 24 24" fill="none" xmlns="http://www.w3.org/2000/svg">
<path d="M19.7454 4C20.988 4 21.9954 5.00736 21.9954 6.25V12.8051C21.551 12.3795 21.0463 12.0164 20.4954 11.7298V6.25C20.4954 5.83579 20.1596 5.5 19.7454 5.5H4.25C3.83579 5.5 3.5 5.83579 3.5 6.25V17.7546C3.5 18.1688 3.83579 18.5046 4.25 18.5046L6.999 18.504L7 15.75C7 14.8318 7.70711 14.0788 8.60647 14.0058L8.75 14H12.0218C11.375 15.0103 11 16.2114 11 17.5C11 18.3877 11.1779 19.2338 11.5001 20.0046H4.25C3.00736 20.0046 2 18.9972 2 17.7546V6.25C2 5.00736 3.00736 4 4.25 4H19.7454ZM12 7.00046C13.6569 7.00046 15 8.34361 15 10.0005C15 11.6573 13.6569 13.0005 12 13.0005C10.3431 13.0005 9 11.6573 9 10.0005C9 8.34361 10.3431 7.00046 12 7.00046ZM23 17.5C23 20.5376 20.5376 23 17.5 23C14.4624 23 12 20.5376 12 17.5C12 14.4624 14.4624 12 17.5 12C20.5376 12 23 14.4624 23 17.5ZM18.0554 14.4206C17.8806 13.8598 17.1194 13.8598 16.9446 14.4206L16.3876 16.2077H14.5851C14.0194 16.2077 13.7842 16.9623 14.2418 17.3089L15.7001 18.4134L15.1431 20.2004C14.9683 20.7612 15.584 21.2276 16.0417 20.881L17.5 19.7766L18.9583 20.881C19.416 21.2276 20.0317 20.7612 19.8569 20.2004L19.2999 18.4134L20.7582 17.3089C21.2158 16.9623 20.9806 16.2077 20.4149 16.2077H18.6124L18.0554 14.4206Z" fill="#212121"/>
</svg>
