<svg width="20" height="20" viewBox="0 0 20 20" fill="none" xmlns="http://www.w3.org/2000/svg">
<path d="M17.9999 6.99994C17.9999 4.23852 15.7614 1.99994 12.9999 1.99994C10.901 1.99994 9.10524 3.29313 8.36376 5.12438C8.34541 5.16598 8.32889 5.2086 8.31407 5.25212C8.20854 5.53496 8.12786 5.82988 8.07471 6.13417C7.64809 7.62723 7.24172 8.41626 7.02975 8.76307L5.14639 10.6464C5.00339 10.7894 4.96061 11.0045 5.038 11.1913C5.11539 11.3782 5.29771 11.5 5.49994 11.5H5.88903L3.88585 13.5032C2.83439 13.5623 2 14.4337 2 15.5C2 16.1271 2.2892 16.687 2.73959 17.0529C2.81553 17.1146 2.88539 17.1844 2.94708 17.2604C3.31298 17.7108 3.87291 18 4.5 18C5.56974 18 6.44332 17.1601 6.49735 16.1038L8.49994 14.1012V14.5C8.49994 14.7022 8.62176 14.8845 8.8086 14.9619C8.99544 15.0393 9.21049 14.9965 9.35349 14.8535L11.2251 12.982C11.5701 12.77 12.3787 12.3508 13.9335 11.9128C14.1702 11.8681 14.401 11.8067 14.6247 11.7299C14.7554 11.6963 14.8796 11.6494 14.9941 11.5863C16.7622 10.8165 17.9999 9.05335 17.9999 6.99994ZM7.30325 11.5H8.49994V12.687L5.71551 15.4714C5.56347 15.6235 5.5 15.8205 5.5 16C5.5 16.5523 5.05228 17 4.5 17C4.18676 17 3.9074 16.8565 3.72324 16.6298C3.61814 16.5005 3.49949 16.3818 3.37013 16.2767C3.14344 16.0926 3 15.8132 3 15.5C3 14.9477 3.44772 14.5 4 14.5C4.17534 14.5 4.36599 14.4373 4.51287 14.2904L7.30325 11.5Z" fill="#212121"/>
</svg>
