<svg width="24" height="24" viewBox="0 0 24 24" fill="none" xmlns="http://www.w3.org/2000/svg">
<path d="M22 7.99988C22 4.68617 19.3137 1.99988 16 1.99988C13.0636 1.99988 10.6213 4.10842 10.1018 6.89386C9.53347 8.73449 9.01892 9.73647 8.73674 10.2025L6.21963 12.7196C6.00513 12.9341 5.94096 13.2567 6.05705 13.537C6.14042 13.7382 6.30497 13.8892 6.50346 13.9583L4.46151 16.0002C3.09855 16.0208 2 17.1321 2 18.5C2 19.3379 2.41304 20.0795 3.04332 20.5319C3.20541 20.6482 3.35169 20.7945 3.46803 20.9566C3.92043 21.5869 4.66198 22 5.5 22C6.86968 22 7.98209 20.8985 7.99979 19.533L10.0403 17.4926C10.1087 17.6928 10.2604 17.8589 10.4629 17.9428C10.7432 18.0589 11.0658 17.9948 11.2803 17.7803L13.8043 15.2563C14.2765 14.9727 15.2823 14.4606 17.1187 13.8956C19.8978 13.3711 22 10.9318 22 7.99988ZM8.58314 13.9999H9.99996V15.4115L6.88433 18.5272C6.58981 18.8217 6.5 19.1994 6.5 19.5C6.5 20.0523 6.05228 20.5 5.5 20.5C5.1656 20.5 4.86939 20.3366 4.68663 20.082C4.47513 19.7873 4.21268 19.5248 3.918 19.3133C3.66339 19.1306 3.5 18.8343 3.5 18.5C3.5 17.9477 3.94772 17.5 4.5 17.5C4.79889 17.5 5.17299 17.4101 5.4648 17.1183L8.58314 13.9999Z" fill="#212121"/>
</svg>
