<?xml version="1.0" encoding="UTF-8"?>
<svg width="20px" height="20px" viewBox="0 0 20 20" version="1.1" xmlns="http://www.w3.org/2000/svg" xmlns:xlink="http://www.w3.org/1999/xlink">
    <!-- Generator: Sketch 59.1 (86144) - https://sketch.com -->
    <title>ic_reward_20_filled</title>
    <desc>Created with Sketch.</desc>
    <g id="ðŸ”-Product-Icons" stroke="none" stroke-width="1" fill="none" fill-rule="evenodd">
        <g id="ic_reward_20_filled" fill="#212121">
            <path d="M15.5261723,3.00045704 C16.3545994,3.00045704 17.0261723,3.67202992 17.0261723,4.50045704 L17.0261723,5.89481113 C17.0261723,6.83398765 16.4998034,7.69393112 15.6634278,8.12116461 L11.474809,10.2608297 C12.6999361,10.8171431 13.5519341,12.0513204 13.5519341,13.4844925 C13.5519341,15.438818 11.9676402,17.023112 10.0133146,17.023112 C8.05898907,17.023112 6.47469517,15.438818 6.47469517,13.4844925 C6.47469517,12.0513204 7.32669322,10.8171431 8.55182029,10.2608297 L4.36320149,8.12116461 C3.58258429,7.72241336 3.07201737,6.94672363 3.00741119,6.08148526 L3.00045704,5.89481113 L3.00045704,4.50045704 C3.00045704,3.67202992 3.67202992,3.00045704 4.50045704,3.00045704 L15.5261723,3.00045704 Z M10.0133146,10.945873 C8.61127382,10.945873 7.47469517,12.0824516 7.47469517,13.4844925 C7.47469517,14.8865333 8.61127382,16.023112 10.0133146,16.023112 C11.4153555,16.023112 12.5519341,14.8865333 12.5519341,13.4844925 C12.5519341,12.0824516 11.4153555,10.945873 10.0133146,10.945873 Z M12.615457,3.99945704 L7.40645704,3.99945704 L7.40645704,8.55245704 L9.78586354,9.76823126 C9.9287183,9.84120366 10.097911,9.84120366 10.2407658,9.76823126 L12.615457,8.55445704 L12.615457,3.99945704 Z" id="ðŸŽ¨Color"></path>
        </g>
    </g>
</svg>