<svg width="24" height="24" viewBox="0 0 24 24" fill="none" xmlns="http://www.w3.org/2000/svg">
<path d="M21.6947 15.1469L21.7788 15.2195C22.045 15.4858 22.0693 15.9024 21.8514 16.196L21.7788 16.2801L19.5588 18.4988L21.7788 20.7181C22.045 20.9844 22.0693 21.4011 21.8514 21.6947L21.7788 21.7788C21.5125 22.045 21.0959 22.0693 20.8022 21.8514L20.7181 21.7788L18.4988 19.5588L16.2801 21.7788C16.0139 22.045 15.5972 22.0693 15.3036 21.8514L15.2195 21.7788C14.9532 21.5125 14.929 21.0959 15.1469 20.8022L15.2195 20.7181L17.4378 18.4988L15.2195 16.2801C14.9532 16.0139 14.929 15.5972 15.1469 15.3036L15.2195 15.2195C15.4858 14.9532 15.9024 14.929 16.196 15.1469L16.2801 15.2195L18.4988 17.4378L20.7181 15.2195C20.9844 14.9532 21.4011 14.929 21.6947 15.1469ZM18.75 3C19.9926 3 21 4.00736 21 5.25V10.5C21 11.7426 19.9926 12.75 18.75 12.75H12.75V18.75C12.75 19.9926 11.7426 21 10.5 21H5.25C4.00736 21 3 19.9926 3 18.75V5.25C3 4.00736 4.00736 3 5.25 3H18.75ZM11.25 12.749H4.5V18.75C4.5 19.1642 4.83579 19.5 5.25 19.5H10.5C10.9142 19.5 11.25 19.1642 11.25 18.75V12.749ZM18.75 4.5H12.75V11.25H18.75C19.1642 11.25 19.5 10.9142 19.5 10.5V5.25C19.5 4.83579 19.1642 4.5 18.75 4.5ZM11.25 4.5H5.25C4.83579 4.5 4.5 4.83579 4.5 5.25V11.249L11.25 11.25V4.5Z" fill="#212121"/>
</svg>
