<svg width="28" height="28" viewBox="0 0 28 28" fill="none" xmlns="http://www.w3.org/2000/svg">
<path d="M25.2501 5C25.6642 5.00004 26.0001 5.33581 26.0001 5.75V21.75C26.0001 22.1642 25.6642 22.5 25.2501 22.5C24.8358 22.5 24.5001 22.1642 24.5001 21.75V5.75C24.5001 5.33579 24.8358 5 25.2501 5ZM8.71978 6.71973C9.01268 6.42687 9.48745 6.42685 9.78033 6.71973C10.0732 7.01261 10.0732 7.48739 9.78033 7.78027L4.5606 13H21.2462C21.6603 13 21.9961 13.3358 21.9962 13.75C21.9962 14.1642 21.6603 14.5 21.2462 14.5H4.5606L9.78033 19.7197C10.0732 20.0126 10.0732 20.4874 9.78033 20.7803C9.48745 21.0732 9.01268 21.0731 8.71978 20.7803L2.21978 14.2803C1.92691 13.9874 1.9269 13.5126 2.21978 13.2197L8.71978 6.71973Z" fill="black" fill-opacity="0.858824"/>
</svg>
