<svg width="20" height="20" viewBox="0 0 20 20" fill="none" xmlns="http://www.w3.org/2000/svg">
<path d="M3 13C3 11.8869 3.90315 11 5.00873 11L15 11C16.1045 11 17 11.8956 17 13C17 14.6912 16.1672 15.9663 14.865 16.7966C13.583 17.614 11.8547 18 10 18C8.14526 18 6.41697 17.614 5.13499 16.7966C3.83281 15.9663 3 14.6912 3 13Z" fill="url(#paint0_linear_378174_9371)"/>
<path d="M3 13C3 11.8869 3.90315 11 5.00873 11L15 11C16.1045 11 17 11.8956 17 13C17 14.6912 16.1672 15.9663 14.865 16.7966C13.583 17.614 11.8547 18 10 18C8.14526 18 6.41697 17.614 5.13499 16.7966C3.83281 15.9663 3 14.6912 3 13Z" fill="url(#paint1_linear_378174_9371)"/>
<path d="M3 13C3 11.8869 3.90315 11 5.00873 11L15 11C16.1045 11 17 11.8956 17 13C17 14.6912 16.1672 15.9663 14.865 16.7966C13.583 17.614 11.8547 18 10 18C8.14526 18 6.41697 17.614 5.13499 16.7966C3.83281 15.9663 3 14.6912 3 13Z" fill="url(#paint2_radial_378174_9371)" fill-opacity="0.5"/>
<path d="M10 2C7.79086 2 6 3.79086 6 6C6 8.20914 7.79086 10 10 10C12.2091 10 14 8.20914 14 6C14 3.79086 12.2091 2 10 2Z" fill="url(#paint3_linear_378174_9371)"/>
<path d="M19 14.5C19 12.0147 16.9853 10 14.5 10C12.0147 10 10 12.0147 10 14.5C10 16.9853 12.0147 19 14.5 19C16.9853 19 19 16.9853 19 14.5Z" fill="url(#paint4_linear_378174_9371)"/>
<path fill-rule="evenodd" clip-rule="evenodd" d="M16.8536 12.6464C17.0488 12.8417 17.0488 13.1583 16.8536 13.3536L13.8536 16.3536C13.6583 16.5488 13.3417 16.5488 13.1464 16.3536L12.1464 15.3536C11.9512 15.1583 11.9512 14.8417 12.1464 14.6464C12.3417 14.4512 12.6583 14.4512 12.8536 14.6464L13.5 15.2929L16.1464 12.6464C16.3417 12.4512 16.6583 12.4512 16.8536 12.6464Z" fill="url(#paint5_linear_378174_9371)"/>
<defs>
<linearGradient id="paint0_linear_378174_9371" x1="6.32925" y1="11.9306" x2="8.59082" y2="19.153" gradientUnits="userSpaceOnUse">
<stop offset="0.125321" stop-color="#9C6CFE"/>
<stop offset="1" stop-color="#7A41DC"/>
</linearGradient>
<linearGradient id="paint1_linear_378174_9371" x1="10" y1="10.1667" x2="13.1667" y2="22" gradientUnits="userSpaceOnUse">
<stop stop-color="#885EDB" stop-opacity="0"/>
<stop offset="1" stop-color="#E362F8"/>
</linearGradient>
<radialGradient id="paint2_radial_378174_9371" cx="0" cy="0" r="1" gradientUnits="userSpaceOnUse" gradientTransform="translate(14.5 15.5) rotate(90) scale(6.5)">
<stop offset="0.423077" stop-color="#30116E"/>
<stop offset="1" stop-color="#30116E" stop-opacity="0"/>
</radialGradient>
<linearGradient id="paint3_linear_378174_9371" x1="7.90243" y1="3.06349" x2="11.9795" y2="9.57369" gradientUnits="userSpaceOnUse">
<stop offset="0.125321" stop-color="#9C6CFE"/>
<stop offset="1" stop-color="#7A41DC"/>
</linearGradient>
<linearGradient id="paint4_linear_378174_9371" x1="10.3214" y1="11.6875" x2="16.5325" y2="18.1406" gradientUnits="userSpaceOnUse">
<stop stop-color="#52D17C"/>
<stop offset="1" stop-color="#22918B"/>
</linearGradient>
<linearGradient id="paint5_linear_378174_9371" x1="12.9375" y1="12.908" x2="13.9463" y2="17.3597" gradientUnits="userSpaceOnUse">
<stop stop-color="white"/>
<stop offset="1" stop-color="#E3FFD9"/>
</linearGradient>
</defs>
</svg>
