<svg width="24" height="24" viewBox="0 0 24 24" fill="none" xmlns="http://www.w3.org/2000/svg">
<path d="M17.5001 11.9998C20.5377 11.9998 23.0001 14.4622 23.0001 17.4998C23.0001 20.5373 20.5377 22.9998 17.5001 22.9998C14.4626 22.9998 12.0001 20.5373 12.0001 17.4998C12.0001 14.4622 14.4626 11.9998 17.5001 11.9998ZM12.0224 13.9991C11.3753 15.0095 11.0001 16.2108 11.0001 17.4998C11.0001 19.1301 11.6003 20.6202 12.5919 21.7613C11.7963 21.9214 10.9314 22.0008 10.0001 22.0008C6.57915 22.0008 4.05619 20.9287 2.51403 18.7643C2.18207 18.2984 2.00366 17.7406 2.00366 17.1685V16.2486C2.00366 15.0065 3.01052 13.9997 4.25254 13.9997L12.0224 13.9991ZM14.8537 17.1462C14.6584 16.951 14.3418 16.951 14.1466 17.1462C13.9513 17.3415 13.9513 17.6581 14.1466 17.8533L16.1466 19.8533C16.3418 20.0486 16.6584 20.0486 16.8537 19.8533L20.8537 15.8533C21.0489 15.6581 21.0489 15.3415 20.8537 15.1462C20.6584 14.951 20.3418 14.951 20.1466 15.1462L16.5001 18.7927L14.8537 17.1462ZM10.0001 2.00439C12.7615 2.00439 15.0001 4.24297 15.0001 7.00439C15.0001 9.76582 12.7615 12.0044 10.0001 12.0044C7.2387 12.0044 5.00012 9.76582 5.00012 7.00439C5.00012 4.24297 7.2387 2.00439 10.0001 2.00439Z" fill="#212121"/>
</svg>
