<svg width="16" height="16" viewBox="0 0 16 16" fill="none" xmlns="http://www.w3.org/2000/svg">
<path d="M9.5 9.00001C10.3284 9.00001 11 9.67158 11 10.5V11C11 12.9715 9.14049 15 6 15C2.85951 15 1 12.9715 1 11V10.5C1 9.67158 1.67157 9.00001 2.5 9.00001H9.5ZM9.5 10H2.5C2.22386 10 2 10.2239 2 10.5V11C2 12.4377 3.43216 14 6 14C8.56784 14 10 12.4377 10 11V10.5C10 10.2239 9.77614 10 9.5 10ZM6 2.50001C7.51878 2.50001 8.75 3.73123 8.75 5.25001C8.75 6.76879 7.51878 8.00001 6 8.00001C4.48122 8.00001 3.25 6.76879 3.25 5.25001C3.25 3.73123 4.48122 2.50001 6 2.50001ZM6 3.50001C5.0335 3.50001 4.25 4.28351 4.25 5.25001C4.25 6.21651 5.0335 7.00001 6 7.00001C6.9665 7.00001 7.75 6.21651 7.75 5.25001C7.75 4.28351 6.9665 3.50001 6 3.50001ZM14.8254 1.12038C15.0118 1.28012 15.0517 1.54728 14.932 1.75192L14.8796 1.8254L11.8796 5.3254C11.7111 5.52197 11.4256 5.55406 11.2196 5.41412L11.1464 5.35356L9.64645 3.85356C9.45118 3.6583 9.45118 3.34172 9.64645 3.14646C9.82001 2.97289 10.0894 2.9536 10.2843 3.0886L10.3536 3.14646L11.4718 4.26466L14.1204 1.17461C14.3001 0.96495 14.6157 0.94067 14.8254 1.12038Z" fill="#212121"/>
</svg>
