<svg xmlns="http://www.w3.org/2000/svg" width="24" height="24" viewBox="0 0 586 487"><path d="M122.5 47.4c-2.2.9-4.1 1.6-4.1 1.6-.1 0-1.4 1.7-3 3.7-2.6 3.4-2.9 4.7-3.4 14.3l-.5 10.5-12 .5c-18.2.8-21 3.1-22.9 18.4l-1.1 9.1-11 .6c-17 1-21.9 4.5-23.6 16.7-.5 3.8-.8 70.8-.6 154.9l.2 148.1 3.1 4.3c1.8 2.4 5.1 5.4 7.5 6.6l4.2 2.3h206l3.4 2.6c5.8 4.4 11.3 6.2 21.3 6.9 16.3 1 28.7-1.4 34.8-6.9 2.4-2.1 2.7-2.1 107.5-2.6l105.2-.5 3.5-2.2c2-1.2 4.6-4 5.8-6.2l2.2-3.9V272.5c0-172.1.6-158.1-7.3-163.3-3.7-2.5-5-2.7-15.1-2.9-6.1-.1-11.4-.2-11.7-.2-.4-.1-.8-4.2-1.1-9.1-.5-9.9-1.7-12.6-7.8-16.8-3-2-4.5-2.2-15.1-2.2-7.1 0-12-.4-12.4-1s-.8-5.2-.9-10.3c-.2-10.6-1.9-14.8-7.6-18.2-3.3-1.9-5-2-26-1.9-47.6.3-75.4 6-106.9 21.8-14 7.1-29.2 19.5-36.5 29.9-1 1.5-2.4 2.7-3.1 2.7s-3.2-2.5-5.6-5.5c-9.8-12.3-27.4-24.7-46.9-32.9-26.1-11.1-49.2-15.1-91.5-16.1-19.1-.5-23.7-.3-27 .9m43.1 4.6c57.6 3.5 99.8 21.9 122.7 53.2 2.3 3.2 4.4 5.8 4.8 5.8.3 0 2.2-2.4 4.2-5.3 5-7.6 14.9-17.3 24.2-23.8C346.9 64 378.9 54.5 421.6 52c44.8-2.6 46.4-1.9 46.4 19.2V83h28.9l3.4 3.4c3.9 3.9 4.7 6.9 4.7 17.2v7.4h11.8c10.2 0 12.4.3 16.2 2.2 3.4 1.7 4.8 3.2 5.7 5.8s1.2 40.1 1.2 153.7c.1 169.2.7 156.8-7.3 159.8-3.7 1.4-14.7 1.6-107 1.3l-102.9-.4-4.6 3.7c-6.1 4.9-10.3 5.9-24.7 5.9-14 0-20.2-1.5-24.8-5.9l-3.1-2.9-105-.4c-85.3-.3-105.5-.7-107.7-1.8-1.5-.7-3.7-3.2-4.8-5.5-2-4.1-2-5.8-2-154.6 0-141.2.1-150.6 1.8-153.9 2.8-5.7 6.7-7 21-7H81v-7.8c0-9.9 1.3-14.5 5.1-17.6 3-2.5 3.5-2.6 17.5-2.6H118V70.6c0-11.9.1-12.6 2.5-15.5 1.4-1.6 3.6-3.2 4.8-3.4 4.1-.8 25.1-.7 40.3.3"/><path d="M133 202.7v137l17.3.6c59.2 2.1 101.8 18 128.6 48.1 3 3.4 5.7 6.2 6 6.4.3.1.5-58.9.3-131-.3-146 .3-135-7.2-147.8-11.4-19.5-38.7-36.2-71.5-43.8-14.1-3.3-30.8-5.1-53-5.9l-20.5-.6zM262 129c3.1 3.1 2.7 9.3-.6 11.9-2.6 2.1-3.6 2.1-51.6 2.1-43.1 0-49.4-.2-52.4-1.6-5.1-2.5-6.3-9.2-2.2-12.7 1.9-1.6 5.9-1.7 53.4-1.7 50.1 0 51.5.1 53.4 2m-.6 35.1c3.3 2.6 3.7 8.8.6 11.9-2 2-3 2-53.4 1.8-48.9-.3-51.5-.4-53.5-2.2-3.2-2.9-2.9-8.8.5-11.5 2.6-2.1 3.6-2.1 52.9-2.1s50.3 0 52.9 2.1m.7 35.8c3 2.4 3 8.4 0 11.5-2.1 2.1-2.8 2.1-50.4 2.4-26.5.2-49.6 0-51.4-.3-5.1-.9-7.5-3.5-7.5-8 0-2.8.6-4.4 2.2-5.7 2.1-1.7 5.7-1.8 53.5-1.8 48.6 0 51.4.1 53.6 1.9m-1.3 34.7c5 3.5 4.6 11.1-.7 13.3-1.9.8-17.2 1.1-52.8.9-47.6-.3-50.2-.4-52.2-2.2-3.2-2.9-2.9-8.8.5-11.5 2.6-2.1 3.6-2.1 52.8-2.1 44.4 0 50.4.2 52.4 1.6M262 271c2.5 2.5 2.7 8.6.3 11.2-1.5 1.7-4.5 1.8-53.2 1.8-58.7 0-56.1.3-56.1-7.5s-2.5-7.5 55.7-7.5c50 0 51.4.1 53.3 2m-.1 35.4c1.5 1.4 2.1 3.1 2.1 6.1 0 7.6 2.8 7.2-54.7 7.6l-51.1.4-2.6-2.4c-4.5-4.2-3.2-11.3 2.4-13.4.8-.3 24.1-.5 51.6-.4 47.8.2 50.3.3 52.3 2.1M411.5 67.6c-18.8 1.4-30.7 3.7-46.1 8.9-29.1 9.7-49.8 25-59.4 43.9l-4.5 8.9-.3 133.1-.2 133.1 3.1-4c5.6-7 16.1-16.5 24.4-22 27.8-18.5 61.2-27.6 107.3-29.2l17.2-.6V66l-12.2.1c-6.8.1-20 .7-29.3 1.5m18.4 60.4c2.4 1.3 4.5 6.4 3.7 9.4-.3 1.4-2 3-4.1 4-3.1 1.5-8.6 1.6-53.6 1.4l-50.1-.3-2.4-2.8c-3.1-3.6-3.1-7.1.1-10.2l2.4-2.5H377c30.8 0 51.8.4 52.9 1m-.9 35.3c5.8 2.9 6.4 9.8 1.1 13-2.7 1.6-7.2 1.7-52.8 1.7-38 0-50.4-.3-52.3-1.3-5.1-2.6-5.1-10.8 0-13.4 3.6-1.8 100.4-1.8 104 0m1.6 37c3.5 3 3.7 7.9.5 11l-2.2 2.2H325.8l-2.4-2.8c-3.1-3.6-3.1-7.1.1-10.2l2.4-2.5h102zm-.9 34.6c3.5 2.2 5.1 6.8 3.4 10-2.2 3.9-6.4 4.2-57.8 3.9l-49.1-.3-2.6-2.4c-4.1-3.9-3.2-9.1 1.9-11.9 1.4-.8 17.6-1.1 51.5-1.2 47.1 0 49.7.1 52.7 1.9m-.4 35.2c2.5 1.1 4.7 4.7 4.7 7.5 0 .8-1.1 2.6-2.5 3.9l-2.4 2.5h-104l-2-2.6c-1.2-1.5-2.1-3.7-2.1-4.9s.9-3.4 2.1-4.9l2-2.6H376c35.2 0 51.7.3 53.3 1.1m-.8 35.4c5.9 2.4 7.1 9.8 2.1 13-2.1 1.4-9.1 1.6-52.8 1.8-46.6.2-50.6.1-53.1-1.6-5.4-3.5-4.7-11.3 1.3-13.4 2.5-.8 17-1.2 51.3-1.2 39.6-.1 48.4.1 51.2 1.4"/><path d="M97.3 97.6c-1 .5-1.3 30-1.3 143.1v142.6l3.8-.7c15.7-2.6 24.4-3.1 55.2-3.1 42.1 0 51.7 1.2 80.3 10.1 15.8 4.9 29 11.8 40.6 21.2 3.8 3.1 4.2 3.2 3.1 1.1-7.1-13.3-25.1-28.9-44.9-38.8-21.8-11-46-15.9-83.1-17-26.5-.7-27.7-1-31-6.4-1.9-3.1-2-6.2-2-127.5V98h-7.7c-4.3 0-8.7-.2-9.8-.5-1.1-.2-2.6-.2-3.2.1M468.7 97.6c-.4.4-.7 56.1-.7 123.8 0 82.4-.4 124.3-1.1 126.9-1.8 6.7-3.3 7.1-29.9 7.9-12.9.3-27.3 1.1-32 1.7-27.2 3.7-49.4 11.6-68.5 24.4-9.9 6.6-30.5 27.7-30.5 31.1 0 .4 2.4-1.3 5.3-3.6 19.4-15.9 50.3-26.6 85.9-29.9 17-1.5 64.4-.6 79.7 1.5 6.3.9 11.8 1.3 12.3.8.4-.4.7-64.7.6-142.8l-.3-141.9-10.1-.3c-5.5-.1-10.3 0-10.7.4"/><path d="m63.2 126.8-2.2.3.2 145.7.3 145.7 100.5.2c112.9.3 104.2 1 87.5-7.4-18.7-9.5-36-13.7-66.5-16.4-16.4-1.4-52.6-.6-68.5 1.6-6 .9-14.4 1.8-18.5 2.1-6.7.6-7.8.4-10.2-1.5-1.5-1.2-3.2-3.9-3.8-5.9-.6-2.4-1-47.7-1-133.9V127.2l-7.7-.4c-4.3-.2-8.8-.2-10.1 0M504.9 126.7c0 .4-.1 60.2-.2 132.8-.2 130.1-.2 132-2.2 135.3-3.1 5.1-5.3 5.2-29.5 1.6-14.8-2.2-64.6-2.6-79-.6-32 4.5-45.3 8.4-62.5 18.5l-8 4.7H525l-.2-146.3-.3-146.2-9.7-.3c-5.4-.1-9.8.1-9.9.5"/></svg>
