<svg width="16" height="16" viewBox="0 0 16 16" fill="none" xmlns="http://www.w3.org/2000/svg">
<path d="M5 5V3.5C5 2.67157 5.67157 2 6.5 2H9.5C10.3284 2 11 2.67157 11 3.5V5H12C13.1046 5 14 5.89543 14 7V12C14 13.1046 13.1046 14 12 14H4C2.89543 14 2 13.1046 2 12V7C2 5.89543 2.89543 5 4 5H5ZM6 3.5V5H10V3.5C10 3.22386 9.77614 3 9.5 3H6.5C6.22386 3 6 3.22386 6 3.5ZM3 9.50018V12C3 12.5523 3.44772 13 4 13H12C12.5523 13 13 12.5523 13 12V9.50018C12.5822 9.81403 12.0628 10 11.5 10H9V10.5C9 10.7761 8.77614 11 8.5 11H7.5C7.22386 11 7 10.7761 7 10.5V10H4.5C3.9372 10 3.41783 9.81403 3 9.50018ZM7 9V8.5C7 8.22386 7.22386 8 7.5 8H8.5C8.77614 8 9 8.22386 9 8.5V9H11.5C12.3284 9 13 8.32843 13 7.5V7C13 6.44772 12.5523 6 12 6H4C3.44772 6 3 6.44772 3 7V7.5C3 8.32843 3.67157 9 4.5 9H7Z" fill="#212121"/>
</svg>
