<svg width="28" height="28" viewBox="0 0 28 28" fill="none" xmlns="http://www.w3.org/2000/svg">
<path d="M26 21.25C26 23.3211 24.3211 25 22.25 25H5.75C3.67893 25 2 23.3211 2 21.25V14.4219C2.95297 15.395 4.28038 16 5.75 16H11.5V16.5C11.5 17.3284 12.1716 18 13 18H15C15.8284 18 16.5 17.3284 16.5 16.5V16H22.25C23.7196 16 25.047 15.395 26 14.4219V21.25ZM16.25 2.5C17.4926 2.5 18.5 3.50736 18.5 4.75V7H22.25C24.2562 7 25.8945 8.57543 25.9951 10.5566C25.9984 10.6207 26 10.6851 26 10.75C26 12.8211 24.3211 14.5 22.25 14.5H16.5C16.5 13.6716 15.8284 13 15 13H13C12.1716 13 11.5 13.6716 11.5 14.5H5.75C3.67893 14.5 2 12.8211 2 10.75C2 10.6851 2.00163 10.6207 2.00488 10.5566C2.10551 8.57543 3.74378 7 5.75 7H9.5V4.75C9.5 3.50736 10.5074 2.5 11.75 2.5H16.25ZM11.75 4C11.3358 4 11 4.33579 11 4.75V7H17V4.75C17 4.33579 16.6642 4 16.25 4H11.75Z" fill="#212121"/>
</svg>
