<svg width="12" height="12" viewBox="0 0 12 12" fill="none" xmlns="http://www.w3.org/2000/svg">
<path d="M11 9C11 10.1046 10.1046 11 9 11H3C1.89543 11 1 10.1046 1 9V7.23145C1.53103 7.70772 2.23053 8 3 8H5V8.5C5 8.77614 5.22386 9 5.5 9H6.5C6.77614 9 7 8.77614 7 8.5V8H9C9.76947 8 10.469 7.70772 11 7.23145V9ZM6.87793 1.00684C7.50817 1.07092 8 1.60285 8 2.25V3H9C10.1046 3 11 3.89543 11 5C11 6.10457 10.1046 7 9 7H7V6.5C7 6.22386 6.77614 6 6.5 6H5.5C5.22386 6 5 6.22386 5 6.5V7H3C1.89543 7 1 6.10457 1 5C1 3.89543 1.89543 3 3 3H4V2.25C4 1.55964 4.55964 1 5.25 1H6.75L6.87793 1.00684ZM5.25 2C5.11193 2 5 2.11193 5 2.25V3H7V2.25C7 2.12931 6.91453 2.02833 6.80078 2.00488L6.75 2H5.25Z" fill="#212121"/>
</svg>
