<svg width="24" height="24" viewBox="0 0 24 24" fill="none" xmlns="http://www.w3.org/2000/svg">
<path d="M17.25 18.5C17.6642 18.5 18 18.8358 18 19.25C18 19.6642 17.6642 20 17.25 20H6.75C6.33579 20 6 19.6642 6 19.25C6 18.8358 6.33579 18.5 6.75 18.5H17.25ZM16.25 4C16.6642 4 17 4.33579 17 4.75V15.75C17 16.1642 16.6642 16.5 16.25 16.5C15.8358 16.5 15.5 16.1642 15.5 15.75V5.5H8.5V15.75C8.5 16.1642 8.16421 16.5 7.75 16.5C7.33579 16.5 7 16.1642 7 15.75V4.75C7 4.33579 7.33579 4 7.75 4H16.25Z" fill="#212121"/>
</svg>
