<?xml version="1.0" encoding="UTF-8"?>
<svg width="20px" height="20px" viewBox="0 0 20 20" version="1.1" xmlns="http://www.w3.org/2000/svg" xmlns:xlink="http://www.w3.org/1999/xlink">
    <!-- Generator: Sketch 59.1 (86144) - https://sketch.com -->
    <title>ic_weather_rain_snow_20_regular</title>
    <desc>Created with Sketch.</desc>
    <g id="ðŸ”-Product-Icons" stroke="none" stroke-width="1" fill="none" fill-rule="evenodd">
        <g id="ic_weather_rain_snow_20_regular" fill="#212121">
            <path d="M10,4 C12.4645648,4 13.8626705,5.57359992 14.0660053,7.47399034 L14.1282051,7.4739884 C15.7142536,7.4739884 17,8.71102823 17,10.2369942 C17,11.7629602 15.7142536,13 14.1282051,13 L12.6260057,12.9992581 C12.6427495,13.0492102 12.6518212,13.1026809 12.6518212,13.1582703 C12.6518212,13.4344127 12.4279636,13.6582703 12.1518212,13.6582703 C11.8756789,13.6582703 11.6518212,13.4344127 11.6518212,13.1582703 C11.6518212,13.1026809 11.660893,13.0492102 11.6776368,12.9992581 L7.441,12.999 L5.94503011,15.7454133 C5.81287188,15.9878773 5.50918053,16.0772979 5.26671648,15.9451396 C5.05119288,15.8276656 4.95659255,15.5746593 5.03104999,15.3495957 L5.06699012,15.266826 L6.302,12.999 L5.87179487,13 C4.28574636,13 3,11.7629602 3,10.2369942 C3,8.71102823 4.28574636,7.4739884 5.87181238,7.4739884 L5.93399466,7.47399034 C6.13851239,5.56110917 7.53543521,4 10,4 Z M11.5,15 C11.7761424,15 12,15.2238576 12,15.5 C12,15.7761424 11.7761424,16 11.5,16 C11.2238576,16 11,15.7761424 11,15.5 C11,15.2238576 11.2238576,15 11.5,15 Z M9.30171862,14.0601905 C9.51724222,14.1759636 9.61184254,14.4253068 9.53738511,14.6471119 L9.50144497,14.7286833 L8.9391147,15.7429749 C8.80695647,15.9819285 8.50326511,16.0700543 8.26080107,15.9398095 C8.04527747,15.8240364 7.95067714,15.5746932 8.02513458,15.3528881 L8.06107471,15.2713167 L8.62340499,14.2570251 C8.75556321,14.0180715 9.05925457,13.9299457 9.30171862,14.0601905 Z M13.5,14 C13.7761424,14 14,14.2238576 14,14.5 C14,14.7761424 13.7761424,15 13.5,15 C13.2238576,15 13,14.7761424 13,14.5 C13,14.2238576 13.2238576,14 13.5,14 Z M10,5 C8.35056297,5 6.91289643,6.27029833 6.91289643,8.02494727 C6.91289643,8.3029682 6.65891017,8.52112859 6.36808412,8.52111954 L5.81818182,8.52110244 C4.81402773,8.52110244 4,9.29988019 4,10.2605512 C4,11.2212223 4.81402773,12 5.81818182,12 L14.1818182,12 C15.1859723,12 16,11.2212223 16,10.2605512 C16,9.29988019 15.1859723,8.52110244 14.1818359,8.52110244 L13.6319159,8.52111954 C13.3410898,8.52112859 13.0871036,8.3029682 13.0871036,8.02494727 C13.0871036,6.24778983 11.649437,5 10,5 Z" id="ðŸŽ¨Color"></path>
        </g>
    </g>
</svg>