<?xml version="1.0" encoding="UTF-8"?>
<svg width="24px" height="24px" viewBox="0 0 24 24" version="1.1" xmlns="http://www.w3.org/2000/svg" xmlns:xlink="http://www.w3.org/1999/xlink">
    <!-- Generator: Sketch 59.1 (86144) - https://sketch.com -->
    <title>ic_weather_rain_snow_24_regular</title>
    <desc>Created with Sketch.</desc>
    <g id="ðŸ”-Product-Icons" stroke="none" stroke-width="1" fill="none" fill-rule="evenodd">
        <g id="ic_weather_rain_snow_24_regular" fill="#212121" fill-rule="nonzero">
            <path d="M14.4980029,17.5 C14.9122165,17.5 15.2480029,17.8357864 15.2480029,18.25 C15.2480029,18.6642136 14.9122165,19 14.4980029,19 C14.0837893,19 13.7480029,18.6642136 13.7480029,18.25 C13.7480029,17.8357864 14.0837893,17.5 14.4980029,17.5 Z M12,4.00069473 C15.1685311,4.00069473 16.9659849,6.09798511 17.2273993,8.63082111 L17.3073655,8.63081851 C19.3464452,8.63081851 20.9994459,10.2795424 20.9994459,12.3133463 C20.9994459,14.3471503 19.3464452,15.9958741 17.3073655,15.9958741 L16.0002227,15.9968947 C15.9053427,16.3023264 15.6205041,16.5241202 15.2838628,16.5241202 C14.9472214,16.5241202 14.6623828,16.3023264 14.5675028,15.9968947 L8.98755408,15.9956947 L7.40872454,18.6227566 C7.20161776,18.981476 6.74292496,19.1043824 6.38420549,18.8972756 C6.05537931,18.7074277 5.92470164,18.3061777 6.0647305,17.9643158 L6.10968644,17.8727566 L7.25555408,15.9956947 L6.69263446,15.9958741 C4.65355477,15.9958741 3.00055408,14.3471503 3.00055408,12.3133463 C3.00055408,10.2795424 4.65355477,8.63081851 6.69265696,8.63081851 L6.77260069,8.63082111 C7.03553587,6.08133746 8.83146892,4.00069473 12,4.00069473 Z M11.577765,16.7045673 C11.9065912,16.8944152 12.0372688,17.2956652 11.89724,17.6375271 L11.852284,17.7290863 L11.2855512,18.62784 C11.0784444,18.9865594 10.6197516,19.1094658 10.2610321,18.902359 C9.93220593,18.7125111 9.80152826,18.3112611 9.94155712,17.9693992 L9.98651305,17.87784 L10.5532459,16.9790863 C10.7603527,16.6203669 11.2190455,16.4974605 11.577765,16.7045673 Z M17.25,17 C17.6642136,17 18,17.3357864 18,17.75 C18,18.1642136 17.6642136,18.5 17.25,18.5 C16.8357864,18.5 16.5,18.1642136 16.5,17.75 C16.5,17.3357864 16.8357864,17 17.25,17 Z M12,5.49828443 C9.92867673,5.49828443 8.12328974,7.13152514 8.12328974,9.38750235 C8.12328974,9.74495783 7.80433992,10.0254498 7.43912757,10.0254381 L6.74857351,10.0254161 C5.48758101,10.0254161 4.46534461,11.0267018 4.46534461,12.2618503 C4.46534461,13.4969988 5.48758101,14.4982844 6.74857351,14.4982844 L17.2514265,14.4982844 C18.512419,14.4982844 19.5346554,13.4969988 19.5346554,12.2618503 C19.5346554,11.0267018 18.512419,10.0254161 17.2514488,10.0254161 L16.5608724,10.0254381 C16.1956601,10.0254498 15.8767103,9.74495783 15.8767103,9.38750235 C15.8767103,7.10258564 14.0713233,5.49828443 12,5.49828443 Z" id="ðŸŽ¨Color"></path>
        </g>
    </g>
</svg>