<svg width="24" height="24" viewBox="0 0 24 24" fill="none" xmlns="http://www.w3.org/2000/svg">
<path d="M20.4962 5.62668C21.3721 5.93448 22 6.76891 22 7.75V17.75C22 20.0972 20.0972 22 17.75 22H7.75C6.76891 22 5.93448 21.3721 5.62668 20.4962L7.72396 20.4996L17.75 20.5C19.2688 20.5 20.5 19.2688 20.5 17.75V7.75L20.496 7.69902L20.4962 5.62668ZM17.2468 2C18.4895 2 19.4968 3.00736 19.4968 4.25V17.2468C19.4968 18.4895 18.4895 19.4968 17.2468 19.4968H4.25C3.00736 19.4968 2 18.4895 2 17.2468V4.25C2 3.00736 3.00736 2 4.25 2H17.2468ZM17.2468 3.5H4.25C3.83579 3.5 3.5 3.83579 3.5 4.25V17.2468C3.5 17.661 3.83579 17.9968 4.25 17.9968H17.2468C17.661 17.9968 17.9968 17.661 17.9968 17.2468V4.25C17.9968 3.83579 17.661 3.5 17.2468 3.5Z" fill="#212121"/>
</svg>
