<?xml version="1.0" encoding="UTF-8"?>
<svg width="24px" height="24px" viewBox="0 0 24 24" version="1.1" xmlns="http://www.w3.org/2000/svg" xmlns:xlink="http://www.w3.org/1999/xlink">
    <!-- Generator: Sketch 58 (84663) - https://sketch.com -->
    <title>ic_camera_add_24_filled</title>
    <desc>Created with Sketch.</desc>
    <g id="ðŸ”-Product-Icons" stroke="none" stroke-width="1" fill="none" fill-rule="evenodd">
        <g id="ic_camera_add_24_filled" fill="#212121">
            <path d="M6.5,12 C9.53756612,12 12,14.4624339 12,17.5 C12,20.5375661 9.53756612,23 6.5,23 C3.46243388,23 1,20.5375661 1,17.5 C1,14.4624339 3.46243388,12 6.5,12 Z M6.5,13.5 L6.41012437,13.5080557 C6.20603131,13.5450996 6.04509963,13.7060313 6.00805567,13.9101244 L6,14 L5.999,17 L3,17 L2.91012437,17.0080557 C2.70603131,17.0450996 2.54509963,17.2060313 2.50805567,17.4101244 L2.5,17.5 L2.50805567,17.5898756 C2.54509963,17.7939687 2.70603131,17.9549004 2.91012437,17.9919443 L3,18 L5.999,18 L6,21 L6.00805567,21.0898756 C6.04509963,21.2939687 6.20603131,21.4549004 6.41012437,21.4919443 L6.5,21.5 L6.58987563,21.4919443 C6.79396869,21.4549004 6.95490037,21.2939687 6.99194433,21.0898756 L7,21 L6.999,18 L10,18 L10.0898756,17.9919443 C10.2939687,17.9549004 10.4549004,17.7939687 10.4919443,17.5898756 L10.5,17.5 L10.4919443,17.4101244 C10.4549004,17.2060313 10.2939687,17.0450996 10.0898756,17.0080557 L10,17 L6.999,17 L7,14 L6.99194433,13.9101244 C6.95490037,13.7060313 6.79396869,13.5450996 6.58987563,13.5080557 L6.5,13.5 Z M19.75,2 C21.5449254,2 23,3.45507456 23,5.25 L23,14.75 C23,16.5449254 21.5449254,18 19.75,18 L12.9810299,18.000332 C12.9936,17.8352028 13,17.6683488 13,17.5 C13,13.9101491 10.0898509,11 6.5,11 C5.21084353,11 4.00934208,11.3752958 2.99879075,12.0225923 L3,5.25 C3,3.45507456 4.45507456,2 6.25,2 L19.75,2 Z M15,5.99976486 C12.790861,5.99976486 11,7.79062586 11,9.99976486 C11,12.2089039 12.790861,13.9997649 15,13.9997649 C17.209139,13.9997649 19,12.2089039 19,9.99976486 C19,7.79062586 17.209139,5.99976486 15,5.99976486 Z M15,7.49976486 C16.3807119,7.49976486 17.5,8.61905299 17.5,9.99976486 C17.5,11.3804767 16.3807119,12.4997649 15,12.4997649 C13.6192881,12.4997649 12.5,11.3804767 12.5,9.99976486 C12.5,8.61905299 13.6192881,7.49976486 15,7.49976486 Z M7.75273282,5.50047581 C7.06276953,5.50047581 6.50344377,6.05980157 6.50344377,6.74976486 C6.50344377,7.43972815 7.06276953,7.99905392 7.75273282,7.99905392 C8.44269612,7.99905392 9.00202188,7.43972815 9.00202188,6.74976486 C9.00202188,6.05980157 8.44269612,5.50047581 7.75273282,5.50047581 Z" id="ðŸŽ¨-Color"></path>
        </g>
    </g>
</svg>