<?xml version="1.0" encoding="UTF-8"?>
<svg width="24px" height="24px" viewBox="0 0 24 24" version="1.1" xmlns="http://www.w3.org/2000/svg" xmlns:xlink="http://www.w3.org/1999/xlink">
    <!-- Generator: Sketch 59.1 (86144) - https://sketch.com -->
    <title>ic_camera_add_24_filled</title>
    <desc>Created with Sketch.</desc>
    <g id="ðŸ”-Product-Icons" stroke="none" stroke-width="1" fill="none" fill-rule="evenodd">
        <g id="ic_camera_add_24_filled" fill="#212121">
            <path d="M17.5,12 C20.5375661,12 23,14.4624339 23,17.5 C23,20.5375661 20.5375661,23 17.5,23 C14.4624339,23 12,20.5375661 12,17.5 C12,14.4624339 14.4624339,12 17.5,12 Z M17.5,13.9992349 L17.4101244,14.0072906 C17.2060313,14.0443345 17.0450996,14.2052662 17.0080557,14.4093593 L17,14.4992349 L16.9996498,16.9992349 L14.4976498,17 L14.4077742,17.0080557 C14.2036811,17.0450996 14.0427494,17.2060313 14.0057055,17.4101244 L13.9976498,17.5 L14.0057055,17.5898756 C14.0427494,17.7939687 14.2036811,17.9549004 14.4077742,17.9919443 L14.4976498,18 L17.0006498,17.9992349 L17.0011076,20.5034847 L17.0091633,20.5933603 C17.0462073,20.7974534 17.207139,20.9583851 17.411232,20.995429 L17.5011076,21.0034847 L17.5909833,20.995429 C17.7950763,20.9583851 17.956008,20.7974534 17.993052,20.5933603 L18.0011076,20.5034847 L18.0006498,17.9992349 L20.5045655,18 L20.5944411,17.9919443 C20.7985342,17.9549004 20.9594659,17.7939687 20.9965098,17.5898756 L21.0045655,17.5 L20.9965098,17.4101244 C20.9594659,17.2060313 20.7985342,17.0450996 20.5944411,17.0080557 L20.5045655,17 L17.9996498,16.9992349 L18,14.4992349 L17.9919443,14.4093593 C17.9549004,14.2052662 17.7939687,14.0443345 17.5898756,14.0072906 L17.5,13.9992349 Z M13.9247069,2.50304787 C14.7225093,2.50304787 15.460656,2.92552249 15.8647444,3.61341873 L16.6792588,5 L18.75,5 C20.5449254,5 22,6.45507456 22,8.25 L22.0008195,12.8103588 C20.8328473,11.6891263 19.2469007,11 17.5,11 C17.0837854,11 16.6767077,11.0391198 16.2822433,11.1138832 C15.6982589,9.30704548 14.0017679,8 12,8 C9.51471863,8 7.5,10.0147186 7.5,12.5 C7.5,14.6515436 9.00995349,16.4504186 11.0279823,16.8947471 C11.0094098,17.0939349 11,17.2958686 11,17.5 C11,18.78873 11.3750475,19.989863 12.02195,21.0002063 L5.25,21 C3.45507456,21 2,19.5449254 2,17.75 L2,8.25 C2,6.45507456 3.45507456,5 5.25,5 L7.33042269,5 L8.20499673,3.57570142 C8.61425236,2.909203 9.34026003,2.50304787 10.1223791,2.50304787 L13.9247069,2.50304787 Z M12,9.5 C13.3295516,9.5 14.4570954,10.364898 14.8506916,11.5627542 C13.2030434,12.2992812 11.9187065,13.7004633 11.338182,15.4251604 C9.99964529,15.1252671 9,13.9293734 9,12.5 C9,10.8431458 10.3431458,9.5 12,9.5 Z" id="ðŸŽ¨-Color"></path>
        </g>
    </g>
</svg>