<svg width="24" height="24" viewBox="0 0 24 24" fill="none" xmlns="http://www.w3.org/2000/svg">
<path d="M13.25 16.5C15.0449 16.5 16.5 15.0449 16.5 13.25L16.5 5.25C16.5 3.45508 15.0449 2 13.25 2H5.25C3.45508 2 2 3.45507 2 5.25V13.25C2 15.0449 3.45508 16.5 5.25 16.5L13.25 16.5ZM7.5 17.5H9L9 18.75C9 19.7165 9.7835 20.5 10.75 20.5H18.75C19.7165 20.5 20.5 19.7165 20.5 18.75V10.75C20.5 9.7835 19.7165 9 18.75 9L17.5 9V7.5H18.75C20.5449 7.5 22 8.95508 22 10.75V18.75C22 20.5449 20.5449 22 18.75 22H10.75C8.95508 22 7.5 20.5449 7.5 18.75V17.5Z" fill="#212121"/>
</svg>
