<svg width="16" height="16" viewBox="0 0 16 16" fill="none" xmlns="http://www.w3.org/2000/svg">
<path d="M10.5 6C12.9853 6 15 8.01472 15 10.5C15 12.9853 12.9853 15 10.5 15C8.01472 15 6 12.9853 6 10.5C6 8.01472 8.01472 6 10.5 6ZM5.59961 8C5.21619 8.75006 5 9.59979 5 10.5C5 11.8095 5.45758 13.0125 6.22168 13.957C3.55462 13.6533 2 11.8026 2 10V9.5C2 8.67157 2.67157 8 3.5 8H5.59961ZM10.5 11.875C10.1548 11.875 9.875 12.1548 9.875 12.5C9.875 12.8452 10.1548 13.125 10.5 13.125C10.8452 13.125 11.125 12.8452 11.125 12.5C11.125 12.1548 10.8452 11.875 10.5 11.875ZM10.5 8C10.2239 8 10 8.22386 10 8.5V10.5C10 10.7761 10.2239 11 10.5 11C10.7761 11 11 10.7761 11 10.5V8.5C11 8.22386 10.7761 8 10.5 8ZM7 1.5C8.51878 1.5 9.75 2.73122 9.75 4.25C9.75 4.53525 9.70659 4.81063 9.62598 5.06934C8.31356 5.27891 7.15604 5.95254 6.32715 6.91699C5.13368 6.6168 4.25 5.53662 4.25 4.25C4.25 2.73122 5.48122 1.5 7 1.5Z" fill="#212121"/>
</svg>
