<svg width="20" height="20" viewBox="0 0 20 20" fill="none" xmlns="http://www.w3.org/2000/svg">
<path d="M5.99567 2.56608C6.03217 2.29236 5.83986 2.04088 5.56614 2.00438C5.29242 1.96789 5.04094 2.16019 5.00444 2.43391L3.00444 17.4339C2.96795 17.7076 3.16026 17.9591 3.43398 17.9956C3.7077 18.0321 3.95918 17.8398 3.99567 17.5661L5.99567 2.56608ZM14.9957 2.43391C14.9592 2.16019 14.7077 1.96789 14.434 2.00438C14.1603 2.04088 13.9679 2.29236 14.0044 2.56608L16.0044 17.5661C16.0409 17.8398 16.2924 18.0321 16.5661 17.9956C16.8399 17.9591 17.0322 17.7076 16.9957 17.4339L14.9957 2.43391ZM10.5001 2.5C10.5001 2.22385 10.2762 2 10.0001 2C9.72391 2 9.50006 2.22385 9.50006 2.5V5.5C9.50006 5.77614 9.72391 6 10.0001 6C10.2762 6 10.5001 5.77614 10.5001 5.5V2.5ZM9.50006 11.5C9.50006 11.7761 9.72391 12 10.0001 12C10.2762 12 10.5001 11.7761 10.5001 11.5V8.5C10.5001 8.22385 10.2762 8 10.0001 8C9.72391 8 9.50006 8.22385 9.50006 8.5V11.5ZM9.50006 14.5C9.50006 14.2239 9.72391 14 10.0001 14C10.2762 14 10.5001 14.2239 10.5001 14.5V17.5C10.5001 17.7761 10.2762 18 10.0001 18C9.72391 18 9.50006 17.7761 9.50006 17.5V14.5Z" fill="#212121"/>
</svg>
