<svg width="16" height="16" viewBox="0 0 16 16" fill="none" xmlns="http://www.w3.org/2000/svg">
<path d="M6.95117 2.1543C6.67092 2.25446 6.42992 2.43441 6.25977 2.6748C6.08973 2.91514 6 3.19571 6 3.49609C6 3.79647 6.08973 4.07705 6.25977 4.31738C6.42991 4.55776 6.67046 4.74846 6.9707 4.84863L7.42871 5H6.5C6.22386 5 6 5.22386 6 5.5C6 5.77614 6.22386 6 6.5 6H8.80664L9.13672 7H5.5C5.22386 7 5 7.22386 5 7.5C5 7.77614 5.22386 8 5.5 8H10.1055C10.039 8.15816 10.004 8.33059 10.0039 8.50391C10.0039 8.77435 10.084 9.0355 10.2441 9.25586C10.4043 9.47604 10.6244 9.63622 10.8945 9.73633L11.6553 9.98633C11.7353 10.0163 11.815 10.0669 11.875 10.127C11.9451 10.1871 11.9856 10.2675 12.0156 10.3477L12.2754 11.1484C12.3629 11.3672 12.4986 11.5532 12.6777 11.7041C12.3266 11.8921 11.9261 12 11.5 12H8.5V13H10.5C10.7761 13 11 13.2239 11 13.5C11 13.7761 10.7761 14 10.5 14H5.5C5.22386 14 5 13.7761 5 13.5C5 13.2239 5.22386 13 5.5 13H7.5V12H4.5C3.11929 12 2 10.8807 2 9.5V4C1.44772 4 1 3.55228 1 3C1 2.44772 1.44772 2 2 2H7.43164L6.95117 2.1543ZM13.4844 6C13.5469 6 13.6081 6.01957 13.6592 6.05566C13.7101 6.09167 13.7487 6.14242 13.7695 6.20117L14.0186 6.9668C14.0959 7.19922 14.2271 7.41078 14.4004 7.58398C14.5737 7.75703 14.7851 7.88761 15.0176 7.96484L15.7832 8.21289L15.7979 8.2168C15.8568 8.23756 15.9082 8.27623 15.9443 8.32715C15.9805 8.37818 16 8.43944 16 8.50195C16 8.56445 15.9805 8.62574 15.9443 8.67676C15.9082 8.72765 15.8567 8.76635 15.7979 8.78711L15.0332 9.03516C14.8005 9.11244 14.5884 9.24281 14.415 9.41602C14.2417 9.58919 14.1116 9.80083 14.0342 10.0332L13.7852 10.7988C13.7643 10.8576 13.7257 10.9083 13.6748 10.9443C13.6237 10.9804 13.5626 11 13.5 11C13.4374 11 13.3763 10.9804 13.3252 10.9443C13.2743 10.9083 13.2357 10.8576 13.2148 10.7988L12.9658 10.0332C12.889 9.80017 12.7592 9.58791 12.5859 9.41406C12.4125 9.2401 12.1999 9.10893 11.9668 9.03125L11.2021 8.7832C11.1432 8.76244 11.0918 8.72377 11.0557 8.67285C11.0195 8.62182 11 8.56056 11 8.49805C11 8.43555 11.0195 8.37426 11.0557 8.32324C11.0918 8.27236 11.1433 8.23365 11.2021 8.21289L11.9668 7.96484C12.1966 7.88555 12.4056 7.75415 12.5762 7.58105C12.7468 7.40795 12.8753 7.19762 12.9512 6.9668L13.1992 6.20117C13.22 6.14249 13.2588 6.0917 13.3096 6.05566C13.3606 6.01962 13.4219 6.00007 13.4844 6ZM6.5 9C6.22386 9 6 9.22386 6 9.5C6 9.77614 6.22386 10 6.5 10H9.5C9.77614 10 10 9.77614 10 9.5C10 9.22386 9.77614 9 9.5 9H6.5ZM10.4785 0C10.5661 0 10.6512 0.0276075 10.7227 0.078125C10.7942 0.128677 10.8488 0.199695 10.8779 0.282227L11.2256 1.35352C11.3339 1.67888 11.5171 1.97432 11.7598 2.2168C12.0024 2.45924 12.2984 2.64176 12.624 2.75L13.6963 3.09863L13.7178 3.10352C13.8003 3.13264 13.8713 3.18738 13.9219 3.25879C13.9724 3.3302 14 3.41546 14 3.50293C13.9999 3.59036 13.9724 3.6757 13.9219 3.74707C13.8713 3.81832 13.8002 3.87226 13.7178 3.90137L12.6455 4.25C12.3199 4.35824 12.0239 4.54075 11.7812 4.7832C11.5386 5.02568 11.3554 5.32112 11.2471 5.64648L10.8994 6.71777C10.8703 6.80031 10.8156 6.87132 10.7441 6.92188C10.6727 6.97241 10.5876 7 10.5 7C10.4124 7 10.3273 6.97241 10.2559 6.92188C10.249 6.91702 10.2419 6.91246 10.2354 6.90723C10.1741 6.85803 10.1269 6.79217 10.1006 6.71777L9.75293 5.64648C9.73424 5.5898 9.71258 5.53427 9.68945 5.47949C9.57945 5.21896 9.4202 4.98141 9.21973 4.78027C9.18165 4.74208 9.14218 4.7051 9.10156 4.66992C8.88328 4.48092 8.62947 4.33582 8.35449 4.24414L7.28223 3.89648C7.19968 3.86736 7.12869 3.81261 7.07812 3.74121C7.02759 3.66979 7 3.58454 7 3.49707C7.00005 3.40964 7.02758 3.3243 7.07812 3.25293C7.12865 3.18168 7.19983 3.12774 7.28223 3.09863L8.35449 2.75C8.67612 2.63894 8.96827 2.45518 9.20703 2.21289C9.44567 1.97062 9.62534 1.6765 9.73145 1.35352L10.0791 0.282227C10.1082 0.199695 10.1629 0.128677 10.2344 0.078125C10.3059 0.027586 10.391 1.0639e-05 10.4785 0Z" fill="#212121"/>
</svg>
