<svg width="24" height="24" viewBox="0 0 24 24" fill="none" xmlns="http://www.w3.org/2000/svg">
<path d="M5.5 8C5.5 6.61929 6.61929 5.5 8 5.5C9.38071 5.5 10.5 6.61929 10.5 8C10.5 9.38071 9.38071 10.5 8 10.5C6.61929 10.5 5.5 9.38071 5.5 8ZM8 4C5.79086 4 4 5.79086 4 8C4 10.2091 5.79086 12 8 12C10.2091 12 12 10.2091 12 8C12 5.79086 10.2091 4 8 4ZM15.5 9C15.5 8.17157 16.1716 7.5 17 7.5C17.8284 7.5 18.5 8.17157 18.5 9C18.5 9.82843 17.8284 10.5 17 10.5C16.1716 10.5 15.5 9.82843 15.5 9ZM17 6C15.3431 6 14 7.34315 14 9C14 10.6569 15.3431 12 17 12C18.6569 12 20 10.6569 20 9C20 7.34315 18.6569 6 17 6ZM4.25 14C3.00736 14 2 15.0074 2 16.25V16.5011L2 16.5022L2.00001 16.5048L2.00007 16.5111L2.00035 16.5277C2.00064 16.5406 2.00117 16.5571 2.0021 16.5771C2.00396 16.6169 2.00745 16.6705 2.01398 16.7358C2.02701 16.8661 2.05233 17.045 2.10165 17.2564C2.19995 17.6776 2.39654 18.2404 2.79183 18.8051C3.61066 19.9749 5.17178 21 8 21C9.37639 21 10.4527 20.7572 11.2894 20.3731C11.0145 19.959 10.8029 19.4993 10.6683 19.0078C10.0416 19.2973 9.18272 19.5 8 19.5C5.57822 19.5 4.51434 18.6501 4.02067 17.9449C3.75971 17.5721 3.62818 17.1974 3.56241 16.9155C3.52971 16.7753 3.514 16.6612 3.50653 16.5865C3.50281 16.5493 3.50117 16.5222 3.50047 16.5072L3.5 16.4947V16.25C3.5 15.8358 3.83579 15.5 4.25 15.5H11.0657C11.3656 14.9434 11.7733 14.4535 12.2609 14.0582C12.0967 14.0201 11.9257 14 11.75 14H4.25ZM22.5 17.75C22.5 15.6789 20.8211 14 18.75 14L18.6482 14.0068C18.2822 14.0565 18 14.3703 18 14.75C18 15.1642 18.3358 15.5 18.75 15.5L18.904 15.5052C20.0748 15.5844 21 16.5591 21 17.75C21 18.9926 19.9926 20 18.75 20L18.7466 20.0046L18.6448 20.0119C18.279 20.0633 17.9983 20.3783 18 20.758C18.0019 21.1722 18.3392 21.5065 18.7534 21.5046V21.5L18.9523 21.4948C20.9276 21.3913 22.5 19.7543 22.5 17.75ZM16 14.75C16 14.3358 15.6642 14 15.25 14L15.0508 14.0052C13.0724 14.1087 11.5 15.7457 11.5 17.75C11.5 19.8211 13.1789 21.5 15.25 21.5L15.3518 21.4932C15.7178 21.4435 16 21.1297 16 20.75C16 20.3358 15.6642 20 15.25 20L15.096 19.9948C13.9252 19.9156 13 18.9409 13 17.75C13 16.5074 14.0074 15.5 15.25 15.5L15.3518 15.4932C15.7178 15.4435 16 15.1297 16 14.75ZM19.5 17.75C19.5 17.3358 19.1642 17 18.75 17H15.25L15.1482 17.0068C14.7822 17.0565 14.5 17.3703 14.5 17.75C14.5 18.1642 14.8358 18.5 15.25 18.5H18.75L18.8518 18.4932C19.2178 18.4435 19.5 18.1297 19.5 17.75Z" fill="#212121"/>
</svg>
