<svg width="20" height="20" viewBox="0 0 20 20" fill="none" xmlns="http://www.w3.org/2000/svg">
<path d="M6.07576 6.07576C5.84145 6.31007 5.84145 6.68997 6.07576 6.92429C6.31007 7.1586 6.68997 7.1586 6.92429 6.92429L9.90002 3.94856V8.56005C9.90002 9.93776 9.8997 10.9416 9.8465 11.7372C9.79364 12.5276 9.69051 13.0694 9.50504 13.5273C8.95634 14.882 7.88194 15.9564 6.52726 16.5051C6.22013 16.6295 6.07199 16.9793 6.1964 17.2864C6.3208 17.5936 6.67063 17.7417 6.97776 17.6173C8.63348 16.9467 9.94663 15.6335 10.6173 13.9778C10.8707 13.3522 10.987 12.6674 11.0438 11.8173C11.1 10.977 11.1 9.93317 11.1 8.58238V3.94854L14.0758 6.92429C14.3101 7.1586 14.69 7.1586 14.9243 6.92429C15.1586 6.68997 15.1586 6.31007 14.9243 6.07576L10.9243 2.07576C10.8118 1.96324 10.6592 1.90002 10.5 1.90002C10.3409 1.90002 10.1883 1.96324 10.0758 2.07576L6.07576 6.07576Z" fill="#212121"/>
</svg>
