<svg width="24" height="24" viewBox="0 0 24 24" fill="none" xmlns="http://www.w3.org/2000/svg">
<path d="M2 8V6.25C2 4.45507 3.45507 3 5.25 3H8.12868C8.72542 3 9.29771 3.23705 9.71967 3.65901L11.25 5.18934L8.65901 7.78033C8.51836 7.92098 8.32759 8 8.12868 8H2ZM2 9.5V17.75C2 19.5449 3.45507 21 5.25 21H11.116C11.0362 20.6658 11 20.3281 11 20C11 18.5725 11.9971 17.3778 13.3328 17.0745C12.8169 16.5357 12.5 15.8048 12.5 15C12.5 13.3431 13.8431 12 15.5 12C16.8685 12 18.023 12.9164 18.3834 14.169C18.826 13.4666 19.6085 13 20.5 13C21.0628 13 21.5822 13.186 22 13.4998V8.75C22 6.95507 20.5449 5.5 18.75 5.5H13.0607L9.71967 8.84099C9.29771 9.26295 8.72542 9.5 8.12868 9.5H2ZM15.5 17C16.6046 17 17.5 16.1046 17.5 15C17.5 13.8954 16.6046 13 15.5 13C14.3954 13 13.5 13.8954 13.5 15C13.5 16.1046 14.3954 17 15.5 17ZM15.5 23C18.0667 23 19 21.4793 19 20C19 18.8954 18.1046 18 17 18H14C12.8954 18 12 18.8954 12 20C12 21.4793 12.9333 23 15.5 23ZM19.5068 21.978C19.6628 21.9925 19.8272 22 20.0002 22C22.2002 22 23.0002 20.7835 23.0002 19.6C23.0002 18.7163 22.2839 18 21.4002 18H19.2363C19.7114 18.5308 20.0002 19.2316 20.0002 20C20.0002 20.6561 19.8556 21.3503 19.5068 21.978ZM22 15.5C22 16.3284 21.3284 17 20.5 17C19.6716 17 19 16.3284 19 15.5C19 14.6716 19.6716 14 20.5 14C21.3284 14 22 14.6716 22 15.5Z" fill="#212121"/>
</svg>
