<svg width="20" height="20" viewBox="0 0 20 20" fill="none" xmlns="http://www.w3.org/2000/svg">
<path d="M7 2.5C7 2.22386 7.22386 2 7.5 2H11.5C11.7761 2 12 2.22386 12 2.5C12 2.77614 11.7761 3 11.5 3H7.5C7.22386 3 7 2.77614 7 2.5ZM14.4492 3.92899C14.6444 3.73373 14.961 3.73373 15.1563 3.92899L16.5705 5.34321C16.7658 5.53847 16.7658 5.85505 16.5705 6.05031C16.3752 6.24558 16.0587 6.24558 15.8634 6.05031L14.4492 4.6361C14.2539 4.44084 14.2539 4.12426 14.4492 3.92899ZM16.5 11C16.5 11.1326 16.4963 11.2643 16.489 11.395C16.0503 11.1437 15.5419 11 15 11C13.3431 11 12 12.3431 12 14C12 14.4907 12.2356 14.9263 12.5998 15.2C12.2232 15.7014 12 16.3246 12 17V17.5C12 17.5134 12.0002 17.5268 12.0005 17.5402C11.224 17.8372 10.381 18 9.5 18C5.63401 18 2.5 14.866 2.5 11C2.5 7.13401 5.63401 4 9.5 4C13.366 4 16.5 7.13401 16.5 11ZM9 6.5V11.5C9 11.7761 9.22386 12 9.5 12C9.77614 12 10 11.7761 10 11.5V6.5C10 6.22386 9.77614 6 9.5 6C9.22386 6 9 6.22386 9 6.5ZM15 12C13.8954 12 13 12.8954 13 14C13 14.2761 13.2239 14.5 13.5 14.5C13.7761 14.5 14 14.2761 14 14C14 13.4477 14.4477 13 15 13C15.5523 13 16 13.4477 16 14C16 14.5523 15.5523 15 15 15C13.8954 15 13 15.8954 13 17V17.5C13 17.7761 13.2239 18 13.5 18H16.5C16.7761 18 17 17.7761 17 17.5C17 17.2239 16.7761 17 16.5 17H14C14 16.4477 14.4477 16 15 16C16.1046 16 17 15.1046 17 14C17 12.8954 16.1046 12 15 12Z" fill="#212121"/>
</svg>
