<svg width="16" height="16" viewBox="0 0 16 16" fill="none" xmlns="http://www.w3.org/2000/svg">
<path d="M3.704 11.736C3.42 12.038 3.434 12.512 3.736 12.796C3.881 12.933 4.065 13 4.25 13C4.449 13 4.648 12.921 4.796 12.764L8.796 8.51402C9.068 8.22602 9.068 7.77502 8.796 7.48702L4.796 3.23602C4.513 2.93302 4.037 2.92002 3.736 3.20402C3.434 3.48702 3.42 3.96202 3.704 4.26402L7.22 8.00002L3.704 11.736V11.736ZM11.25 3.00002C11.664 3.00002 12 3.33602 12 3.75002V12.25C12 12.664 11.664 13 11.25 13C10.836 13 10.5 12.664 10.5 12.25V3.75002C10.5 3.33602 10.836 3.00002 11.25 3.00002Z" fill="#212121"/>
</svg>
