<svg width="16" height="16" viewBox="0 0 16 16" fill="none" xmlns="http://www.w3.org/2000/svg">
<path d="M5.5 13C5.776 13 6 12.776 6 12.5V6.5C6 6.224 5.776 6 5.5 6C5.224 6 5 6.224 5 6.5V12.5C5 12.776 5.224 13 5.5 13ZM11 12.5C11 12.776 10.776 13 10.5 13C10.224 13 10 12.776 10 12.5V8.5C10 8.224 10.224 8 10.5 8C10.776 8 11 8.224 11 8.5V12.5ZM7.94 13C8.216 13 8.44 12.776 8.44 12.5V10.5C8.44 10.224 8.216 10 7.94 10C7.664 10 7.44 10.224 7.44 10.5V12.5C7.44 12.776 7.664 13 7.94 13ZM3 3C3 1.895 3.895 1 5 1H8.586C8.984 1 9.366 1.158 9.647 1.439L12.561 4.353C12.842 4.635 13 5.016 13 5.414V13C13 14.105 12.105 15 11 15H5C3.895 15 3 14.105 3 13V3ZM5 2C4.448 2 4 2.448 4 3V13C4 13.552 4.448 14 5 14H11C11.552 14 12 13.552 12 13V6H9.5C8.672 6 8 5.328 8 4.5V2H5ZM9.5 5H11.793L9 2.207V4.5C9 4.776 9.224 5 9.5 5Z" fill="#212121"/>
</svg>
