<svg width="20" height="20" viewBox="0 0 20 20" fill="none" xmlns="http://www.w3.org/2000/svg">
<path d="M11 16.6667C11.3682 16.6667 11.6667 16.9651 11.6667 17.3333C11.6667 17.7015 11.3682 18 11 18C10.6318 18 10.3333 17.7015 10.3333 17.3333C10.3333 16.9651 10.6318 16.6667 11 16.6667ZM8.66667 16C9.03486 16 9.33333 16.2985 9.33333 16.6667C9.33333 17.0349 9.03486 17.3333 8.66667 17.3333C8.29848 17.3333 8 17.0349 8 16.6667C8 16.2985 8.29848 16 8.66667 16ZM13.3333 16C13.7015 16 14 16.2985 14 16.6667C14 17.0349 13.7015 17.3333 13.3333 17.3333C12.9651 17.3333 12.6667 17.0349 12.6667 16.6667C12.6667 16.2985 12.9651 16 13.3333 16ZM11 6C13.4646 6 14.8627 7.5736 15.066 9.47399L15.1282 9.47399C16.7143 9.47399 18 10.711 18 12.237C18 13.763 16.7143 15 15.1282 15H6.87179C5.28575 15 4 13.763 4 12.237C4 10.7675 5.19227 9.56602 6.69687 9.47903L6.93399 9.47399C7.13851 7.56111 8.53544 6 11 6ZM11 7C9.35056 7 7.9129 8.2703 7.9129 10.0249C7.9129 10.303 7.65891 10.5211 7.36808 10.5211L6.81818 10.5211C5.81403 10.5211 5 11.2999 5 12.2606C5 13.2212 5.81403 14 6.81818 14H15.1818C16.186 14 17 13.2212 17 12.2606C17 11.2999 16.186 10.5211 15.1818 10.5211L14.6319 10.5211C14.3411 10.5211 14.0871 10.303 14.0871 10.0249C14.0871 8.24779 12.6494 7 11 7ZM5.84302 2.00094C6.50882 2.03665 7.1553 2.22853 7.73824 2.56509C8.75213 3.15046 9.43372 4.09034 9.71685 5.13776C9.3336 5.22086 8.97546 5.3438 8.64384 5.50129C8.46211 4.62729 7.91551 3.83849 7 3.37508C6.81253 3.28019 6.66002 3.20354 6.46479 3.12634C6.55085 4.3537 6.42855 5.6088 5.83949 6.57089C5.25993 7.4239 4.51097 7.99381 3.28098 8.46918C3.42019 8.59325 3.57175 8.70472 3.73187 8.80761C4.04072 9.00605 4.34873 9.15929 4.65194 9.26845C4.3158 9.49001 4.01925 9.76434 3.77324 10.079C3.6766 10.0346 3.58086 9.98412 3.48635 9.92955C2.93571 9.6116 2.46827 9.17992 2.11115 8.66136C1.87709 8.32142 2.02852 7.85194 2.41712 7.71287C3.79256 7.22059 4.53364 6.66658 4.95748 5.85745C5.42037 4.97387 5.50588 4.03678 5.19856 2.77778C5.09864 2.36827 5.42211 1.97835 5.84302 2.00094Z" fill="#212121"/>
</svg>
