<svg width="24" height="24" viewBox="0 0 24 24" fill="none" xmlns="http://www.w3.org/2000/svg">
<path d="M13.2723 2.00399C13.0696 1.99796 12.8731 2.07426 12.7276 2.2155C12.5821 2.35674 12.5 2.55088 12.5 2.75366V10.7499C12.5 11.1642 12.8358 11.4999 13.25 11.4999H21.2463C21.4491 11.4999 21.6432 11.4178 21.7844 11.2723C21.9257 11.1268 22.002 10.9303 21.996 10.7276C21.8545 5.97326 18.0267 2.1455 13.2723 2.00399ZM14 9.99995V3.566C17.3421 4.01119 19.9888 6.65788 20.434 9.99995H14ZM11 4.78369C11 4.57307 10.9114 4.37216 10.756 4.23007C10.6005 4.08799 10.3925 4.01782 10.1827 4.03672C5.59476 4.45016 2 8.30489 2 13.0001C2 17.9706 6.02944 22.0001 11 22.0001C15.6952 22.0001 19.5499 18.4053 19.9633 13.8174C19.9822 13.6076 19.9121 13.3996 19.77 13.2441C19.6279 13.0886 19.427 13.0001 19.2164 13.0001H11V4.78369ZM3.5 13.0001C3.5 9.37175 6.07693 6.3446 9.5 5.64997V13.7501C9.5 14.1643 9.83579 14.5001 10.25 14.5001H18.3501C17.6555 17.9231 14.6283 20.5001 11 20.5001C6.85786 20.5001 3.5 17.1422 3.5 13.0001Z" fill="#212121"/>
</svg>
