<svg width="20" height="20" viewBox="0 0 20 20" fill="none" xmlns="http://www.w3.org/2000/svg">
<path d="M17.9987 9.13621C17.9892 9.6337 17.5596 10 17.062 10H11C10.4477 10 10 9.55228 10 9V2.93803C10 2.44045 10.3663 2.01079 10.8638 2.0013C10.9091 2.00043 10.9545 2 11 2C14.866 2 18 5.13401 18 9C18 9.04551 17.9996 9.09091 17.9987 9.13621ZM11 3V9H17C17 5.68629 14.3137 3 11 3ZM9 4.51892C9 4.37972 8.94197 4.24683 8.83988 4.1522C8.73779 4.05758 8.60087 4.0098 8.46207 4.02036C4.84717 4.29535 2 7.31493 2 11C2 14.866 5.13401 18 9 18C12.685 18 15.7046 15.1528 15.9796 11.5379C15.9902 11.3991 15.9424 11.2622 15.8478 11.1601C15.7532 11.058 15.6203 11 15.4811 11H10.5C9.67157 11 9 10.3284 9 9.49998V4.51892ZM3 11C3 8.02704 5.16249 5.55876 8 5.08287V9.49998C8 10.8807 9.11929 12 10.5 12H14.9171C14.4412 14.8375 11.9729 17 9 17C5.68629 17 3 14.3137 3 11Z" fill="#212121"/>
</svg>
