<svg width="32" height="32" viewBox="0 0 32 32" fill="none" xmlns="http://www.w3.org/2000/svg">
<path d="M15 7.01172C15 6.73838 14.8881 6.47695 14.6904 6.28825C14.4926 6.09954 14.2262 6.00002 13.9532 6.01282C7.85539 6.29869 3 11.332 3 17.5C3 23.8513 8.14873 29 14.5 29C20.668 29 25.7013 24.1446 25.9872 18.0469C26 17.7738 25.9005 17.5074 25.7118 17.3097C25.5231 17.1119 25.2616 17 24.9883 17H17.5C16.1193 17 15 15.8807 15 14.5V7.01172Z" fill="url(#paint0_linear_72095_9652)"/>
<path d="M18.0468 3.01282C17.7738 3.00002 17.5074 3.09954 17.3096 3.28825C17.1119 3.47695 17 3.73838 17 4.01172V14C17 14.5523 17.4477 15 18 15H27.9883C28.2616 15 28.5231 14.8881 28.7118 14.6904C28.9005 14.4926 29 14.2262 28.9872 13.9532C28.7098 8.0366 23.9634 3.29019 18.0468 3.01282Z" fill="url(#paint1_linear_72095_9652)"/>
<defs>
<linearGradient id="paint0_linear_72095_9652" x1="25.9883" y1="29" x2="-10.793" y2="-7.78126" gradientUnits="userSpaceOnUse">
<stop stop-color="#6D37CD"/>
<stop offset="0.640625" stop-color="#EA71EF"/>
</linearGradient>
<linearGradient id="paint1_linear_72095_9652" x1="27.9893" y1="12.8022" x2="19.3977" y2="3.01172" gradientUnits="userSpaceOnUse">
<stop stop-color="#E23CB4"/>
<stop offset="1" stop-color="#EA71EF"/>
</linearGradient>
</defs>
</svg>
