<svg width="24" height="24" viewBox="0 0 24 24" fill="none" xmlns="http://www.w3.org/2000/svg">
<path d="M12 2C12.5523 2 13 2.44772 13 3V5.5513L14.7067 3.84462C15.0972 3.45409 15.7304 3.45409 16.1209 3.84462C16.5114 4.23514 16.5114 4.86831 16.1209 5.25883L13 8.37973V11H15.6203L18.7412 7.8791C19.1317 7.48858 19.7649 7.48858 20.1554 7.8791C20.5459 8.26962 20.5459 8.90279 20.1554 9.29331L18.4487 11H21C21.5523 11 22 11.4477 22 12C22 12.5523 21.5523 13 21 13H18.4487L20.1554 14.7067C20.5459 15.0972 20.5459 15.7304 20.1554 16.1209C19.7649 16.5114 19.1317 16.5114 18.7412 16.1209L15.6203 13H13V15.6203L16.1209 18.7412C16.5114 19.1317 16.5114 19.7649 16.1209 20.1554C15.7304 20.5459 15.0972 20.5459 14.7067 20.1554L13 18.4487V21C13 21.5523 12.5523 22 12 22C11.4477 22 11 21.5523 11 21V18.4487L9.29331 20.1554C8.90279 20.5459 8.26962 20.5459 7.8791 20.1554C7.48858 19.7649 7.48858 19.1317 7.8791 18.7412L11 15.6203V13H8.37973L5.25883 16.1209C4.86831 16.5114 4.23514 16.5114 3.84462 16.1209C3.45409 15.7304 3.45409 15.0972 3.84462 14.7067L5.5513 13H3C2.44772 13 2 12.5523 2 12C2 11.4477 2.44772 11 3 11H5.5513L3.84462 9.29331C3.45409 8.90279 3.45409 8.26962 3.84462 7.8791C4.23514 7.48858 4.86831 7.48858 5.25883 7.8791L8.37973 11H11V8.37973L7.8791 5.25883C7.48858 4.86831 7.48858 4.23514 7.8791 3.84462C8.26962 3.45409 8.90279 3.45409 9.29331 3.84462L11 5.5513V3C11 2.44772 11.4477 2 12 2Z" fill="url(#paint0_linear_70965_88206)"/>
<path d="M12 2C12.5523 2 13 2.44772 13 3V5.5513L14.7067 3.84462C15.0972 3.45409 15.7304 3.45409 16.1209 3.84462C16.5114 4.23514 16.5114 4.86831 16.1209 5.25883L13 8.37973V11H15.6203L18.7412 7.8791C19.1317 7.48858 19.7649 7.48858 20.1554 7.8791C20.5459 8.26962 20.5459 8.90279 20.1554 9.29331L18.4487 11H21C21.5523 11 22 11.4477 22 12C22 12.5523 21.5523 13 21 13H18.4487L20.1554 14.7067C20.5459 15.0972 20.5459 15.7304 20.1554 16.1209C19.7649 16.5114 19.1317 16.5114 18.7412 16.1209L15.6203 13H13V15.6203L16.1209 18.7412C16.5114 19.1317 16.5114 19.7649 16.1209 20.1554C15.7304 20.5459 15.0972 20.5459 14.7067 20.1554L13 18.4487V21C13 21.5523 12.5523 22 12 22C11.4477 22 11 21.5523 11 21V18.4487L9.29331 20.1554C8.90279 20.5459 8.26962 20.5459 7.8791 20.1554C7.48858 19.7649 7.48858 19.1317 7.8791 18.7412L11 15.6203V13H8.37973L5.25883 16.1209C4.86831 16.5114 4.23514 16.5114 3.84462 16.1209C3.45409 15.7304 3.45409 15.0972 3.84462 14.7067L5.5513 13H3C2.44772 13 2 12.5523 2 12C2 11.4477 2.44772 11 3 11H5.5513L3.84462 9.29331C3.45409 8.90279 3.45409 8.26962 3.84462 7.8791C4.23514 7.48858 4.86831 7.48858 5.25883 7.8791L8.37973 11H11V8.37973L7.8791 5.25883C7.48858 4.86831 7.48858 4.23514 7.8791 3.84462C8.26962 3.45409 8.90279 3.45409 9.29331 3.84462L11 5.5513V3C11 2.44772 11.4477 2 12 2Z" fill="url(#paint1_linear_70965_88206)"/>
<defs>
<linearGradient id="paint0_linear_70965_88206" x1="17" y1="18.25" x2="7.625" y2="3.875" gradientUnits="userSpaceOnUse">
<stop stop-color="#4894FE"/>
<stop offset="0.495" stop-color="#0FAFFF"/>
<stop offset="1" stop-color="#29C3FF"/>
</linearGradient>
<linearGradient id="paint1_linear_70965_88206" x1="6.83871" y1="2.80645" x2="22.1144" y2="22.6827" gradientUnits="userSpaceOnUse">
<stop offset="0.379481" stop-color="#FF6CE8" stop-opacity="0"/>
<stop offset="1" stop-color="#FF6CE8" stop-opacity="0.7"/>
</linearGradient>
</defs>
</svg>
