<?xml version="1.0" encoding="UTF-8"?>
<svg width="24px" height="24px" viewBox="0 0 24 24" version="1.1" xmlns="http://www.w3.org/2000/svg" xmlns:xlink="http://www.w3.org/1999/xlink">
    <!-- Generator: Sketch 59.1 (86144) - https://sketch.com -->
    <title>ic_my_location_24_regular</title>
    <desc>Created with Sketch.</desc>
    <g id="ðŸ”-Product-Icons" stroke="none" stroke-width="1" fill="none" fill-rule="evenodd">
        <g id="ic_my_location_24_regular" fill="#212121" fill-rule="nonzero">
            <path d="M11.75,2.0046246 C17.1347763,2.0046246 21.5,6.36984829 21.5,11.7546246 C21.5,17.1394009 17.1347763,21.5046246 11.75,21.5046246 C6.36522369,21.5046246 2,17.1394009 2,11.7546246 C2,6.36984829 6.36522369,2.0046246 11.75,2.0046246 Z M11,4.24586698 L11.0000791,3.53824973 C7.04216215,3.89487852 3.89025392,7.04678675 3.53362513,11.0047037 L4.25288576,11.0046246 C4.66709932,11.0046246 5.00288576,11.340411 5.00288576,11.7546246 C5.00288576,12.1343204 4.72073188,12.4481156 4.35465632,12.497778 L4.25288576,12.5046246 L3.53362513,12.5055428 C3.89078339,16.4629919 7.04249458,19.6144006 11.0000791,19.9709995 L11,19.2513422 C11,18.8371287 11.3357864,18.5013422 11.75,18.5013422 C12.1296958,18.5013422 12.443491,18.7834961 12.4931534,19.1495717 L12.5,19.2513422 L12.5009182,19.9709995 C16.4580349,19.6138712 19.6092466,16.4626595 19.9663749,12.5055428 L19.245995,12.5046246 C18.8317815,12.5046246 18.495995,12.1688382 18.495995,11.7546246 C18.495995,11.3749288 18.7781489,11.0611336 19.1442245,11.0114712 L19.245995,11.0046246 L19.9663749,11.0047037 C19.609776,7.04711918 16.4583673,3.89540799 12.5009182,3.53824973 L12.5,4.24586698 C12.5,4.66008054 12.1642136,4.99586698 11.75,4.99586698 C11.3703042,4.99586698 11.056509,4.7137131 11.0068466,4.34763753 L11,4.24586698 L11.0000791,3.53824973 L11,4.24586698 Z M11.75,8.5060586 C13.5441335,8.5060586 14.998566,9.96049114 14.998566,11.7546246 C14.998566,13.5487581 13.5441335,15.0031906 11.75,15.0031906 C9.95586654,15.0031906 8.501434,13.5487581 8.501434,11.7546246 C8.501434,9.96049114 9.95586654,8.5060586 11.75,8.5060586 Z M11.75,10.0060586 C10.7842937,10.0060586 10.001434,10.7889183 10.001434,11.7546246 C10.001434,12.7203309 10.7842937,13.5031906 11.75,13.5031906 C12.7157063,13.5031906 13.498566,12.7203309 13.498566,11.7546246 C13.498566,10.7889183 12.7157063,10.0060586 11.75,10.0060586 Z" id="ðŸŽ¨-Color"></path>
        </g>
    </g>
</svg>