<svg width="20" height="20" viewBox="0 0 20 20" fill="none" xmlns="http://www.w3.org/2000/svg">
<path d="M2 7C2 5.34315 3.34315 4 5 4H10C11.6569 4 13 5.34315 13 7V13C13 14.5158 11.8758 15.7691 10.4156 15.9714C10.79 15.2284 11.0008 14.3888 11.0008 13.5C11.0008 10.4624 8.53838 8 5.50081 8C4.17081 8 2.95106 8.47209 2 9.25784V7ZM16.0373 14.7759L14 13.3692V6.63025L16.0373 5.22353C16.8665 4.65101 17.9976 5.24453 17.9976 6.25215V13.7473C17.9976 14.7549 16.8665 15.3484 16.0373 14.7759ZM5.5 18C7.98528 18 10 15.9853 10 13.5C10 11.0147 7.98528 9 5.5 9C3.01472 9 1 11.0147 1 13.5C1 14.2918 1.20449 15.0358 1.56353 15.6821L1.01892 17.4707C0.923578 17.7838 1.21625 18.0765 1.52936 17.9812L3.31846 17.4368C3.96465 17.7956 4.70846 18 5.5 18ZM3 12.5C3 12.2239 3.22386 12 3.5 12H7.5C7.77614 12 8 12.2239 8 12.5C8 12.7761 7.77614 13 7.5 13H3.5C3.22386 13 3 12.7761 3 12.5ZM3.5 15C3.22386 15 3 14.7761 3 14.5C3 14.2239 3.22386 14 3.5 14H5.5C5.77614 14 6 14.2239 6 14.5C6 14.7761 5.77614 15 5.5 15H3.5Z" fill="#212121"/>
</svg>
