<svg width="20" height="20" viewBox="0 0 20 20" fill="none" xmlns="http://www.w3.org/2000/svg">
<path d="M14 5.5C14 4.11929 12.8807 3 11.5 3H5.5C4.11929 3 3 4.11929 3 5.5V8.60013C3.75027 8.21644 4.60027 8 5.50081 8C8.53838 8 11.0008 10.4624 11.0008 13.5C11.0008 14.02 10.9286 14.5232 10.7938 15H11.5C12.8807 15 14 13.8807 14 12.5V5.5ZM15 6.93082V11.0815L17.7642 13.4319C18.2512 13.8461 19 13.4999 19 12.8606V5.19315C19 4.55685 18.2575 4.20962 17.7692 4.61756L15 6.93082ZM5.5 18C7.98528 18 10 15.9853 10 13.5C10 11.0147 7.98528 9 5.5 9C3.01472 9 1 11.0147 1 13.5C1 14.2918 1.20449 15.0358 1.56353 15.6821L1.01892 17.4707C0.923578 17.7838 1.21625 18.0765 1.52936 17.9812L3.31846 17.4368C3.96465 17.7956 4.70846 18 5.5 18ZM3 12.5C3 12.2239 3.22386 12 3.5 12H7.5C7.77614 12 8 12.2239 8 12.5C8 12.7761 7.77614 13 7.5 13H3.5C3.22386 13 3 12.7761 3 12.5ZM3.5 15C3.22386 15 3 14.7761 3 14.5C3 14.2239 3.22386 14 3.5 14H5.5C5.77614 14 6 14.2239 6 14.5C6 14.7761 5.77614 15 5.5 15H3.5Z" fill="#212121"/>
</svg>
