<svg width="24" height="24" viewBox="0 0 24 24" fill="none" xmlns="http://www.w3.org/2000/svg">
<path d="M17.75 3C19.5449 3 21 4.45507 21 6.25V12.0218C20.5368 11.7253 20.0335 11.4858 19.5 11.3135V8.5H4.5V17.75C4.5 18.7165 5.2835 19.5 6.25 19.5H11.3135C11.4858 20.0335 11.7253 20.5368 12.0218 21H6.25C4.45507 21 3 19.5449 3 17.75V6.25C3 4.45507 4.45507 3 6.25 3H17.75ZM17.75 4.5H6.25C5.2835 4.5 4.5 5.2835 4.5 6.25V7H19.5V6.25C19.5 5.2835 18.7165 4.5 17.75 4.5Z" fill="#212121"/>
<path d="M23 17.5C23 20.5376 20.5376 23 17.5 23C14.4624 23 12 20.5376 12 17.5C12 14.4624 14.4624 12 17.5 12C20.5376 12 23 14.4624 23 17.5ZM17.5 14C17.2239 14 17 14.2239 17 14.5V18.5C17 18.7761 17.2239 19 17.5 19C17.7761 19 18 18.7761 18 18.5V14.5C18 14.2239 17.7761 14 17.5 14ZM17.5 21.125C17.8452 21.125 18.125 20.8452 18.125 20.5C18.125 20.1548 17.8452 19.875 17.5 19.875C17.1548 19.875 16.875 20.1548 16.875 20.5C16.875 20.8452 17.1548 21.125 17.5 21.125Z" fill="#212121"/>
</svg>
