<svg width="20" height="20" viewBox="0 0 20 20" fill="none" xmlns="http://www.w3.org/2000/svg">
<path d="M7.21207 2C6.73772 2 6.32085 2.31445 6.19054 2.77054L3.94094 10.6442C3.74703 11.3228 4.25663 11.9984 4.96246 11.9984H6.22974L5.06002 16.6773C4.79611 17.7329 6.10089 18.4551 6.85526 17.6726L10.1985 14.2596C10.1478 14.2341 10.0951 14.2121 10.041 14.1939L8.94995 13.8395C8.6723 13.7416 8.43184 13.5599 8.26167 13.3196C8.09146 13.0792 8 12.7919 8 12.4973C8 12.2027 8.09146 11.9154 8.26167 11.6751C8.43187 11.4347 8.6724 11.2532 8.95001 11.1553L8.95618 11.1532L8.97359 11.1473L10.0352 10.8026C10.2085 10.7416 10.3655 10.6419 10.4943 10.5112C10.6246 10.3789 10.7227 10.218 10.7808 10.0418L11.1362 8.94927C11.2344 8.67119 11.4166 8.43099 11.6567 8.2612C11.8971 8.09123 12.1843 8.00001 12.4786 8.00001L12.5 8C12.7943 8 13.0815 8.09123 13.3218 8.26119C13.3458 8.27814 13.3689 8.29561 13.3912 8.3135C13.5972 8.47892 13.7537 8.69893 13.8421 8.94935L13.8443 8.95552L13.8502 8.97295L14.1976 10.0412C14.2077 10.0717 14.2192 10.1023 14.2316 10.1317L14.2348 10.1391L15.5318 8.81506L15.5354 8.81137C16.1762 8.1436 15.7152 7 14.7688 7H12.2051L13.4665 3.40582L13.469 3.39836C13.6983 2.71043 13.1863 2 12.4611 2H7.21207ZM12.8777 9.28225L13.226 10.3531C13.3343 10.6786 13.5171 10.9744 13.7599 11.217C14.0026 11.4596 14.2987 11.6422 14.6245 11.7504L15.6961 12.0985L15.7175 12.1038C15.8001 12.1329 15.8716 12.1869 15.9222 12.2584C15.9728 12.3298 16 12.4152 16 12.5027C16 12.5902 15.9728 12.6756 15.9222 12.747C15.8716 12.8184 15.8001 12.8724 15.7175 12.9016L14.6459 13.2496C14.3201 13.3578 14.0241 13.5404 13.7813 13.783C13.5385 14.0256 13.3558 14.3214 13.2475 14.647L12.8992 15.7178C12.87 15.8003 12.816 15.8718 12.7445 15.9223C12.673 15.9729 12.5876 16 12.5 16C12.4124 16 12.327 15.9729 12.2555 15.9223C12.2484 15.9173 12.2416 15.9121 12.2349 15.9067C12.1736 15.8575 12.1271 15.7921 12.1008 15.7178L11.7525 14.647C11.7338 14.5901 11.7128 14.5342 11.6897 14.4793C11.5796 14.2187 11.4202 13.9812 11.2197 13.78C11.1815 13.7417 11.1421 13.705 11.1014 13.6697C10.883 13.4806 10.6292 13.3359 10.3541 13.2442L9.28247 12.8962C9.19987 12.8671 9.12835 12.8131 9.07776 12.7416C9.02717 12.6702 9 12.5848 9 12.4973C9 12.4098 9.02717 12.3244 9.07776 12.253C9.12835 12.1816 9.19987 12.1276 9.28247 12.0985L10.3541 11.7504C10.6759 11.6394 10.9677 11.4555 11.2066 11.2131C11.4454 10.9707 11.625 10.6763 11.7311 10.3531L12.0794 9.28225C12.1085 9.19972 12.1626 9.12825 12.2341 9.0777C12.3056 9.02715 12.391 9 12.4786 9C12.5662 9 12.6516 9.02715 12.7231 9.0777C12.7946 9.12825 12.8486 9.19972 12.8777 9.28225ZM17.7829 17.2132L17.0175 16.9646C16.7848 16.8873 16.5733 16.7568 16.3999 16.5836C16.2265 16.4103 16.0959 16.199 16.0186 15.9665L15.7698 15.2016C15.749 15.1427 15.7104 15.0916 15.6593 15.0555C15.6083 15.0194 15.5473 15 15.4847 15C15.4221 15 15.3611 15.0194 15.31 15.0555C15.259 15.0916 15.2204 15.1427 15.1996 15.2016L14.9508 15.9665C14.875 16.1974 14.7467 16.4076 14.5761 16.5808C14.4055 16.7539 14.1971 16.8853 13.9672 16.9646L13.2018 17.2132C13.1428 17.234 13.0917 17.2725 13.0555 17.3236C13.0194 17.3746 13 17.4356 13 17.4981C13 17.5606 13.0194 17.6216 13.0555 17.6726C13.0917 17.7236 13.1428 17.7622 13.2018 17.783L13.9672 18.0316C14.2003 18.1093 14.412 18.2403 14.5855 18.4143C14.7589 18.5882 14.8893 18.8003 14.9661 19.0335L15.2149 19.7984C15.2357 19.8573 15.2743 19.9084 15.3254 19.9445C15.3764 19.9806 15.4374 20 15.5 20C15.5626 20 15.6236 19.9806 15.6746 19.9445C15.7257 19.9084 15.7643 19.8573 15.7851 19.7984L16.0339 19.0335C16.1113 18.801 16.2418 18.5897 16.4152 18.4164C16.5886 18.2432 16.8001 18.1127 17.0328 18.0354L17.7982 17.7868C17.8572 17.766 17.9083 17.7275 17.9445 17.6764C17.9806 17.6254 18 17.5644 18 17.5019C18 17.4394 17.9806 17.3784 17.9445 17.3274C17.9083 17.2764 17.8572 17.2378 17.7982 17.217L17.7829 17.2132Z" fill="#212121"/>
</svg>
