<svg width="48" height="48" viewBox="0 0 48 48" fill="none" xmlns="http://www.w3.org/2000/svg">
<path d="M23.9995 4V15.25C23.9995 17.3211 25.6784 19 27.7495 19H39.9995V40C39.9995 41.6569 38.6564 43 36.9995 43H14.8241L21.1309 35.8076C23.0231 33.6497 21.6488 30.3246 18.9069 30.0222L20.9046 26.4708C22.0295 24.471 20.5843 22 18.2898 22H8.63503C8.41858 22 8.20575 22.0233 7.99951 22.068V7C7.99951 5.34315 9.34266 4 10.9995 4H23.9995ZM26.4995 4.46429V15.25C26.4995 15.9404 27.0592 16.5 27.7495 16.5H39.4611L26.4995 4.46429ZM8.63458 24H18.2894C19.0542 24 19.5359 24.8237 19.161 25.4903L15.4992 32H18.4989C19.7884 32 20.4769 33.5194 19.6267 34.489L9.97139 45.5001C8.96182 46.6514 7.08651 45.67 7.45703 44.1842L8.99923 38H3.00315C2.2706 38 1.78667 37.2383 2.09788 36.5752L7.72931 24.5752C7.89404 24.2242 8.24684 24 8.63458 24Z" fill="#212121"/>
</svg>
