<svg width="32" height="32" viewBox="0 0 32 32" fill="none" xmlns="http://www.w3.org/2000/svg">
<path d="M17 2V9C17 10.6569 18.3431 12 20 12H27V27C27 28.6569 25.6569 30 24 30H8.906L15.793 23.3654C17.209 22.0013 16.3112 19.6364 14.4031 19.5029L16.2031 16.5358C17.0112 15.2036 16.0522 13.5 14.494 13.5H6.11666C5.72149 13.5 5.34053 13.5932 5 13.7634V5C5 3.34315 6.34315 2 8 2H17ZM19 2.11664V9C19 9.55229 19.4477 10 20 10H26.8834C26.7442 9.51572 26.484 9.06977 26.1213 8.70711L20.2929 2.87868C19.9302 2.51602 19.4843 2.2558 19 2.11664ZM6.11909 15H14.5007C14.8904 15 15.1303 15.4261 14.9282 15.7593L11.7488 21H14.2393C14.9142 21 15.2457 21.8219 14.7596 22.2901L6.01252 30.7168C5.25471 31.4468 4.02842 30.6617 4.37429 29.6679L5.99884 25H1.74803C1.19154 25 0.828866 24.4153 1.07614 23.9167L5.22324 15.5557C5.39206 15.2153 5.73917 15 6.11909 15Z" fill="#212121"/>
</svg>
