<svg width="24" height="24" viewBox="0 0 24 24" fill="none" xmlns="http://www.w3.org/2000/svg">
<path d="M12 2V8C12 9.10457 12.8954 10 14 10H20V20C20 21.1046 19.1046 22 18 22H6.97427L10.5625 17.903C11.5069 16.8248 10.8215 15.1651 9.45333 15.0115L10.4524 13.2354C11.0148 12.2355 10.2923 11 9.14502 11H4.31741C4.20931 11 4.10301 11.0116 4 11.0339V4C4 2.89543 4.89543 2 6 2H12ZM13.5 2.5V8C13.5 8.27614 13.7239 8.5 14 8.5H19.5L13.5 2.5ZM4.31767 12H9.14528C9.52769 12 9.76855 12.4118 9.58107 12.7451L7.7502 16H9.24634C9.89088 16 10.2352 16.7593 9.81054 17.2441L4.98666 22.7519C4.48211 23.328 3.54401 22.8375 3.72916 22.0945L4.5002 19H1.49767C1.13127 19 0.889307 18.6189 1.04516 18.2873L3.86516 12.2873C3.94758 12.112 4.1239 12 4.31767 12Z" fill="#212121"/>
</svg>
