<svg width="16" height="16" viewBox="0 0 16 16" fill="none" xmlns="http://www.w3.org/2000/svg">
<path d="M1 3.75C1 2.7835 1.7835 2 2.75 2H13.25C14.2165 2 15 2.7835 15 3.75V8H14.9301L14 7.06966V3.75C14 3.33579 13.6642 3 13.25 3H2.75C2.33579 3 2 3.33579 2 3.75V10.25C2 10.6642 2.33579 11 2.75 11H6.23397C6.07805 11.3141 6.00007 11.657 6 12H2.75C1.7835 12 1 11.2165 1 10.25V3.75ZM11.1155 7.3663C11.6037 6.87811 12.3953 6.87815 12.8834 7.3664L14.6328 9.11622C15.1209 9.60441 15.1209 10.3958 14.6327 10.8839L12.0572 13.4592L8.53908 9.94278L11.1155 7.3663ZM7.94076 10.5411L7.36611 11.1158C6.87795 11.6039 6.87796 12.3954 7.36614 12.8835L9.11563 14.6329C9.60378 15.1211 10.3952 15.1211 10.8833 14.633L11.4588 14.0575L7.94076 10.5411Z" fill="#212121"/>
</svg>
