<svg width="32" height="32" viewBox="0 0 32 32" fill="none" xmlns="http://www.w3.org/2000/svg">
<path d="M16 5C21.707 5 26.399 9.34614 26.9466 14.9092C27.694 15.2745 28.3833 15.7402 28.9969 16.2889C28.9989 16.1928 29 16.0965 29 16C29 8.8203 23.1797 3 16 3C12.5065 3 9.33501 4.37864 7 6.61926V4C7 3.44772 6.55228 3 6 3C5.44772 3 5 3.44772 5 4V9C5 9.55228 5.44772 10 6 10H11C11.5523 10 12 9.55228 12 9C12 8.44772 11.5523 8 11 8H8.45C10.4208 6.1392 13.0773 5 16 5ZM17.3427 16C18.5166 15.05 19.9343 14.3894 21.4873 14.1266C21.3431 14.046 21.1769 14 21 14H17V9C17 8.44772 16.5523 8 16 8C15.4477 8 15 8.44772 15 9V15C15 15.5523 15.4477 16 16 16H17.3427ZM16.2889 28.9969C15.7402 28.3833 15.2745 27.694 14.9092 26.9466C9.34614 26.399 5 21.707 5 16C5 15.6907 5.01274 15.3846 5.03769 15.0822C5.0831 14.5318 4.67371 14.0488 4.12329 14.0034C3.57288 13.958 3.08987 14.3674 3.04446 14.9178C3.015 15.2748 3 15.6358 3 16C3 23.1797 8.8203 29 16 29C16.0965 29 16.1928 28.9989 16.2889 28.9969ZM23 15.5C27.1421 15.5 30.5 18.8579 30.5 23C30.5 27.1421 27.1421 30.5 23 30.5C18.8579 30.5 15.5 27.1421 15.5 23C15.5 18.8579 18.8579 15.5 23 15.5ZM25.7197 19.2197L23 21.9393L20.2803 19.2197C19.9874 18.9268 19.5126 18.9268 19.2197 19.2197C18.9268 19.5126 18.9268 19.9874 19.2197 20.2803L21.9393 23L19.2197 25.7197C18.9268 26.0126 18.9268 26.4874 19.2197 26.7803C19.5126 27.0732 19.9874 27.0732 20.2803 26.7803L23 24.0607L25.7197 26.7803C26.0126 27.0732 26.4874 27.0732 26.7803 26.7803C27.0732 26.4874 27.0732 26.0126 26.7803 25.7197L24.0607 23L26.7803 20.2803C27.0732 19.9874 27.0732 19.5126 26.7803 19.2197C26.4874 18.9268 26.0126 18.9268 25.7197 19.2197Z" fill="#212121"/>
</svg>
