<svg width="24" height="24" viewBox="0 0 24 24" fill="none" xmlns="http://www.w3.org/2000/svg">
<path d="M7.2501 4.5H10.7495C11.1637 4.5 11.4995 4.83579 11.4995 5.25C11.4995 5.6297 11.2173 5.94349 10.8513 5.99315L10.7495 6H7.24974C6.07079 5.99944 5.10349 6.90639 5.00786 8.06095L5.00028 8.21986L5.00312 16.7505C5.00343 17.9414 5.92885 18.9159 7.09966 18.9948L7.25371 18.9999L15.7518 18.9882C16.9415 18.9866 17.9145 18.0618 17.9935 16.8921L17.9987 16.7382V13.2319C17.9987 12.8177 18.3345 12.4819 18.7487 12.4819C19.1284 12.4819 19.4422 12.7641 19.4918 13.1302L19.4987 13.2319V16.7382C19.4987 18.7405 17.9293 20.3767 15.9528 20.4828L15.7538 20.4882L7.25827 20.4999L7.05495 20.4948C5.14239 20.3952 3.60895 18.8626 3.50837 16.95L3.50312 16.7509L3.50089 8.25253L3.50529 8.05003C3.60539 6.13732 5.13867 4.60432 7.05096 4.50511L7.2501 4.5H10.7495H7.2501ZM14.0036 3L20.0543 3.00146L20.1538 3.01152L20.2355 3.02756L20.3431 3.05991L20.4616 3.11196L20.5145 3.14222C20.7741 3.29719 20.957 3.56642 20.9945 3.88033L21.0015 4V10.007C21.0015 10.5593 20.5538 11.007 20.0015 11.007C19.4887 11.007 19.066 10.621 19.0083 10.1236L19.0015 10.007L19.0009 6.413L12.7071 12.7071C12.3466 13.0676 11.7794 13.0953 11.3871 12.7903L11.2929 12.7071C10.9324 12.3466 10.9047 11.7794 11.2097 11.3871L11.2929 11.2929L17.5849 5H14.0036C13.4908 5 13.0681 4.61396 13.0104 4.11662L13.0036 4C13.0036 3.44772 13.4514 3 14.0036 3Z" fill="#212121"/>
</svg>
