<svg width="12" height="12" viewBox="0 0 12 12" fill="none" xmlns="http://www.w3.org/2000/svg">
<path d="M4 3.5C3.72386 3.5 3.5 3.72386 3.5 4V8C3.5 8.27614 3.72386 8.5 4 8.5H8C8.27614 8.5 8.5 8.27614 8.5 8V7.75C8.5 7.33579 8.83579 7 9.25 7C9.66421 7 10 7.33579 10 7.75V8C10 9.10457 9.10457 10 8 10H4C2.89543 10 2 9.10457 2 8V4C2 2.89543 2.89543 2 4 2H4.25C4.66421 2 5 2.33579 5 2.75C5 3.16421 4.66421 3.5 4.25 3.5H4ZM6.75 3.5C6.33579 3.5 6 3.16421 6 2.75C6 2.33579 6.33579 2 6.75 2H9.25C9.66421 2 10 2.33579 10 2.75V5.25C10 5.66421 9.66421 6 9.25 6C8.83579 6 8.5 5.66421 8.5 5.25V4.56066L7.28033 5.78033C6.98744 6.07322 6.51256 6.07322 6.21967 5.78033C5.92678 5.48744 5.92678 5.01256 6.21967 4.71967L7.43934 3.5H6.75Z" fill="#212121"/>
</svg>
