<svg width="24" height="24" viewBox="0 0 24 24" fill="none" xmlns="http://www.w3.org/2000/svg">
<path d="M3 6C3 4.34315 4.34315 3 6 3C6.55228 3 7 3.44772 7 4C7 4.55228 6.55228 5 6 5C5.44772 5 5 5.44772 5 6V9.93845C5 10.7267 4.69282 11.457 4.1795 12C4.69282 12.543 5 13.2733 5 14.0616V18C5 18.5523 5.44772 19 6 19C6.55228 19 7 19.4477 7 20C7 20.5523 6.55228 21 6 21C4.34315 21 3 19.6569 3 18V14.0616C3 13.6027 2.6877 13.2027 2.24254 13.0914L1.75746 12.9701C1.3123 12.8589 1 12.4589 1 12C1 11.5411 1.3123 11.1411 1.75746 11.0299L2.24254 10.9086C2.6877 10.7973 3 10.3973 3 9.93845V6ZM21 6C21 4.34315 19.6569 3 18 3C17.4477 3 17 3.44772 17 4C17 4.55228 17.4477 5 18 5C18.5523 5 19 5.44772 19 6V9.93845C19 10.7267 19.3072 11.457 19.8205 12C19.3072 12.543 19 13.2733 19 14.0616V18C19 18.5523 18.5523 19 18 19C17.4477 19 17 19.4477 17 20C17 20.5523 17.4477 21 18 21C19.6569 21 21 19.6569 21 18V14.0616C21 13.6027 21.3123 13.2027 21.7575 13.0914L22.2425 12.9701C22.6877 12.8589 23 12.4589 23 12C23 11.5411 22.6877 11.1411 22.2425 11.0299L21.7575 10.9086C21.3123 10.7973 21 10.3973 21 9.93845V6ZM9.28935 6.88606C8.95028 6.45011 8.32201 6.37158 7.88606 6.71065C7.45011 7.04972 7.37158 7.67799 7.71065 8.11394L10.7331 12L7.71065 15.8861C7.37158 16.322 7.45011 16.9503 7.88606 17.2894C8.32201 17.6284 8.95028 17.5499 9.28935 17.1139L12 13.6288L14.7106 17.1139C15.0497 17.5499 15.678 17.6284 16.1139 17.2894C16.5499 16.9503 16.6284 16.322 16.2894 15.8861L13.2669 12L16.2894 8.11394C16.6284 7.67799 16.5499 7.04972 16.1139 6.71065C15.678 6.37158 15.0497 6.45011 14.7106 6.88606L12 10.3712L9.28935 6.88606Z" fill="#212121"/>
</svg>
