<svg width="20" height="20" viewBox="0 0 20 20" fill="none" xmlns="http://www.w3.org/2000/svg">
<path d="M12.4745 8.01431C12.9873 8.01431 13.41 8.40035 13.4678 8.89769L13.4745 9.01431V13.3817C13.4745 15.306 11.9145 16.866 9.9902 16.866C8.13003 16.866 6.61032 15.4083 6.51107 13.5728L6.50591 13.3817V9.01431C6.50591 8.50148 6.89195 8.0788 7.38929 8.02104L7.50591 8.01431H12.4745ZM5.77382 8.01372C5.63184 8.25897 5.54045 8.53718 5.51393 8.83406L5.50591 9.01431V13.3817L5.5108 13.5928C5.54058 14.2355 5.70568 14.8429 5.97826 15.3871C5.63862 15.5307 5.26497 15.6097 4.87287 15.6097C3.35174 15.6097 2.10833 14.4206 2.02145 12.9212L2.0166 12.7534V9.01431C2.0166 8.50148 2.40264 8.0788 2.89998 8.02104L3.0166 8.01431L5.77382 8.01372ZM14.2066 8.01372L16.9909 8.01431C17.5038 8.01431 17.9264 8.40035 17.9842 8.89769L17.9909 9.01431V12.7542C17.9909 14.3312 16.7125 15.6097 15.1354 15.6097C14.7345 15.6097 14.3529 15.5271 14.0067 15.3779C14.2688 14.8513 14.4304 14.2667 14.4667 13.6486L14.4745 13.3817V9.01431L14.469 8.86505C14.4462 8.55654 14.3535 8.26749 14.2066 8.01372ZM9.98833 2.98926C11.2185 2.98926 12.2157 3.98648 12.2157 5.21662C12.2157 6.44676 11.2185 7.44398 9.98833 7.44398C8.75819 7.44398 7.76097 6.44676 7.76097 5.21662C7.76097 3.98648 8.75819 2.98926 9.98833 2.98926ZM14.9755 3.61739C16.0322 3.61739 16.8888 4.474 16.8888 5.53069C16.8888 6.58737 16.0322 7.44398 14.9755 7.44398C13.9188 7.44398 13.0622 6.58737 13.0622 5.53069C13.0622 4.474 13.9188 3.61739 14.9755 3.61739ZM5.01693 3.61739C6.07361 3.61739 6.93022 4.474 6.93022 5.53069C6.93022 6.58737 6.07361 7.44398 5.01693 7.44398C3.96024 7.44398 3.10363 6.58737 3.10363 5.53069C3.10363 4.474 3.96024 3.61739 5.01693 3.61739Z" fill="#212121"/>
</svg>
