<svg width="48" height="48" viewBox="0 0 48 48" fill="none" xmlns="http://www.w3.org/2000/svg">
<path d="M41.9741 6.02535C39.2767 3.32794 34.9033 3.32807 32.2061 6.02565L8.03755 30.1971C7.27584 30.9589 6.73303 31.9115 6.46599 32.9552L4.03904 42.4402C3.9296 42.8679 4.05389 43.3216 4.36603 43.6338C4.67816 43.946 5.13183 44.0704 5.55956 43.9611L15.0458 41.5366C16.0904 41.2696 17.0439 40.7264 17.8062 39.964L37.971 19.7967L38.8514 20.7358C39.4974 21.4249 39.48 22.5022 38.8121 23.1701L35.3661 26.6161C34.878 27.1043 34.878 27.8957 35.3661 28.3839C35.8543 28.872 36.6457 28.872 37.1339 28.3839L40.5799 24.9379C42.2019 23.3159 42.2441 20.6994 40.6752 19.0259L39.7396 18.0279L41.9744 15.7928C44.6714 13.0955 44.6713 8.72253 41.9741 6.02535ZM33.9739 7.79331C35.6949 6.07215 38.4853 6.07206 40.2064 7.79312C41.9273 9.51403 41.9274 12.3041 40.2066 14.0252L16.0383 38.1963C15.5933 38.6414 15.0366 38.9585 14.4268 39.1144L6.9838 41.0167L8.88796 33.5749C9.04386 32.9656 9.36075 32.4095 9.80542 31.9647L33.9739 7.79331Z" fill="#212121"/>
</svg>
