<svg width="16" height="16" viewBox="0 0 16 16" fill="none" xmlns="http://www.w3.org/2000/svg">
<path d="M12.9403 2.64641C12.1927 1.89889 10.9808 1.89886 10.2332 2.64635L2.83829 10.0406C2.65725 10.2216 2.52085 10.4423 2.43989 10.6852L1.52567 13.4278C1.46578 13.6075 1.51254 13.8056 1.64646 13.9395C1.78038 14.0734 1.97846 14.1202 2.15813 14.0603L4.90087 13.1461C5.14368 13.0651 5.36432 12.9288 5.54531 12.7478L11.7933 6.50039L12.2626 6.96967C12.5555 7.26256 12.5555 7.73744 12.2626 8.03033L11.1464 9.14645C10.9512 9.34171 10.9512 9.65829 11.1464 9.85355C11.3417 10.0488 11.6583 10.0488 11.8536 9.85355L12.9697 8.73744C13.6531 8.05402 13.6531 6.94598 12.9697 6.26256L12.5004 5.79332L12.9402 5.35358C13.6878 4.60605 13.6878 3.39399 12.9403 2.64641ZM10.9403 3.35349C11.2973 2.9965 11.8761 2.99651 12.2331 3.35352C12.5902 3.71056 12.5902 4.28943 12.2331 4.64644L4.83823 12.0407C4.76701 12.1119 4.68019 12.1655 4.58464 12.1974L2.79058 12.7954L3.38858 11.0014C3.42044 10.9058 3.47412 10.819 3.54536 10.7477L10.9403 3.35349Z" fill="#212121"/>
</svg>
