<svg width="48" height="48" viewBox="0 0 48 48" fill="none" xmlns="http://www.w3.org/2000/svg">
<path d="M32.2061 6.02565C34.9033 3.32807 39.2767 3.32794 41.9741 6.02535C44.6713 8.72253 44.6715 13.0955 41.9744 15.7928L39.7396 18.0279L40.6752 19.0259C42.2441 20.6994 42.2019 23.3159 40.5799 24.9379L37.1339 28.3839C36.6457 28.872 35.8543 28.872 35.3661 28.3839C34.878 27.8957 34.878 27.1043 35.3661 26.6161L38.8121 23.1701C39.48 22.5022 39.4974 21.4249 38.8514 20.7358L37.971 19.7967L17.8062 39.964C17.0439 40.7264 16.0904 41.2696 15.0458 41.5366L5.55956 43.9611C5.13183 44.0704 4.67816 43.946 4.36603 43.6338C4.05389 43.3216 3.9296 42.8679 4.03904 42.4402L6.46599 32.9552C6.73303 31.9115 7.27584 30.9589 8.03755 30.1971L32.2061 6.02565Z" fill="#212121"/>
</svg>
