<?xml version="1.0" encoding="UTF-8"?>
<svg width="48px" height="48px" viewBox="0 0 48 48" version="1.1" xmlns="http://www.w3.org/2000/svg" xmlns:xlink="http://www.w3.org/1999/xlink">
    <!-- Generator: Sketch 59.1 (86144) - https://sketch.com -->
    <title>ic_link_48_filled</title>
    <desc>Created with Sketch.</desc>
    <g id="ðŸ”-Product-Icons" stroke="none" stroke-width="1" fill="none" fill-rule="evenodd">
        <g id="ic_link_48_filled" fill="#212121" fill-rule="nonzero">
            <path d="M33.25,13 C39.091302,13 43.8444515,17.6589349 43.9962593,23.4636156 L44,23.75 L44,24.25 C44,30.091302 39.3410651,34.8444515 33.5363844,34.9962593 L33.25,35 L28.75,35 C27.7835017,35 27,34.2164983 27,33.25 C27,32.3318266 27.7071103,31.5788077 28.6064728,31.5058012 L28.75,31.5 L33.25,31.5 C37.1739831,31.5 40.3698593,28.3826035 40.4961248,24.4893142 L40.5,24.25 L40.5,23.75 C40.5,19.8260169 37.3826035,16.6301407 33.4893142,16.5038752 L33.25,16.5 L28.75,16.5 C27.7835017,16.5 27,15.7164983 27,14.75 C27,13.8318266 27.7071103,13.0788077 28.6064728,13.0058012 L28.75,13 L33.25,13 Z M19.25,13 C20.2164983,13 21,13.7835017 21,14.75 C21,15.6681734 20.2928897,16.4211923 19.3935272,16.4941988 L19.25,16.5 L14.75,16.5 C10.8260169,16.5 7.63014067,19.6173965 7.50387522,23.5106858 L7.5,23.75 L7.5,24.25 C7.5,28.1739831 10.6173965,31.3698593 14.5106858,31.4961248 L14.75,31.5 L19.25,31.5 C20.2164983,31.5 21,32.2835017 21,33.25 C21,34.1681734 20.2928897,34.9211923 19.3935272,34.9941988 L19.25,35 L14.75,35 C8.90869799,35 4.15554853,30.3410651 4.00374072,24.5363844 L4,24.25 L4,23.75 C4,17.908698 8.65893491,13.1555485 14.4636156,13.0037407 L14.75,13 L19.25,13 Z M14,22.25 L34,22.25 C34.9664983,22.25 35.75,23.0335017 35.75,24 C35.75,24.9181734 35.0428897,25.6711923 34.1435272,25.7441988 L34,25.75 L14,25.75 C13.0335017,25.75 12.25,24.9664983 12.25,24 C12.25,23.0818266 12.9571103,22.3288077 13.8564728,22.2558012 L14,22.25 L34,22.25 L14,22.25 Z" id="ðŸŽ¨-Color"></path>
        </g>
    </g>
</svg>