<svg width="33" height="32" viewBox="0 0 33 32" fill="none" xmlns="http://www.w3.org/2000/svg">
<path d="M23.416 9C23.416 12.866 20.282 16 16.416 16C12.55 16 9.41602 12.866 9.41602 9C9.41602 5.13401 12.55 2 16.416 2C20.282 2 23.416 5.13401 23.416 9ZM4.41602 21.5001C4.41596 19.5671 5.98298 18 7.91602 18H19.7455C19.2168 18.9621 18.916 20.0673 18.916 21.2426V26C18.916 27.3472 19.3259 28.5987 20.0277 29.6366C18.8837 29.8736 17.6695 30.0001 16.4159 30.0001C13.2176 30.0001 10.2751 29.177 8.10093 27.7935C5.93866 26.4175 4.41604 24.3936 4.41603 22.0001L4.41602 21.5001ZM25.6587 18C23.8678 18 22.416 19.4518 22.416 21.2426V21.9996C23.2517 21.3719 24.2904 21 25.416 21C28.1774 21 30.416 23.2386 30.416 26C30.416 28.7614 28.1774 31 25.416 31C22.6546 31 20.416 28.7614 20.416 26V21.2426C20.416 18.3472 22.7632 16 25.6587 16C27.0491 16 28.3826 16.5523 29.3658 17.5355L29.6231 17.7929C30.0136 18.1834 30.0136 18.8166 29.6231 19.2071C29.2326 19.5976 28.5994 19.5976 28.2089 19.2071L27.9515 18.9497C27.3434 18.3416 26.5187 18 25.6587 18ZM25.416 29C27.0729 29 28.416 27.6569 28.416 26C28.416 24.3431 27.0729 23 25.416 23C23.7592 23 22.416 24.3431 22.416 26C22.416 27.6569 23.7592 29 25.416 29Z" fill="#212121"/>
</svg>
