<?xml version="1.0" encoding="UTF-8"?>
<svg width="24px" height="24px" viewBox="0 0 24 24" version="1.1" xmlns="http://www.w3.org/2000/svg" xmlns:xlink="http://www.w3.org/1999/xlink">
    <!-- Generator: Sketch 59.1 (86144) - https://sketch.com -->
    <title>ic_fluent_predictions_24_light</title>
    <desc>Created with Sketch.</desc>
    <g id="ðŸ”-Product-Icons" stroke="none" stroke-width="1" fill="none" fill-rule="evenodd">
        <g id="ic_fluent_predictions_24_light" fill="#212121" fill-rule="nonzero">
            <path d="M12,2.25 C13.2283035,2.25 14.377032,2.59070132 15.3568384,3.18275698 C15.261135,3.50962689 15.1198573,3.75882238 14.9393398,3.93933983 C14.9062113,3.97246837 14.8707697,4.00427534 14.8329658,4.03472083 C14.0050666,3.53642986 13.0359829,3.25 12,3.25 C8.96243388,3.25 6.5,5.71243388 6.5,8.75 C6.5,10.9976909 7.84829917,12.9304696 9.78022786,13.7836666 C10.5839492,14.0952288 11.3223389,14.2493956 11.9960351,14.25 L11.9949946,14.25 L12,14.25 C12.6747638,14.25 13.4144763,14.0958388 14.2184902,13.7843415 C15.2957782,13.3085186 16.191433,12.4976613 16.7733543,11.4839749 C17.2336872,11.5477513 17.7249333,11.4175303 18.0651518,11.093822 C17.6459998,12.1762428 16.9458688,13.1186507 16.0540193,13.8311507 L17.7301196,18.8592199 C17.9583539,19.5438833 17.6666638,20.2940178 17.03586,20.6446496 C15.7046347,21.3846101 14.0245362,21.75 12,21.75 C9.97546625,21.75 8.29536932,21.384611 6.96414723,20.6446536 C6.33334566,20.2940284 6.04165362,19.5439003 6.2698748,18.8592368 L7.94598074,13.8311507 C6.45511962,12.6400994 5.5,10.8065898 5.5,8.75 C5.5,5.16014913 8.41014913,2.25 12,2.25 Z M15.2064641,14.4505312 L14.8635694,14.6019443 L14.6421947,14.690528 C13.8349104,15.0501271 12.9407966,15.25 12,15.25 L11.997,15.25 C11.0592034,15.25 10.1650896,15.0501271 9.35780531,14.690528 C9.17207221,14.6189832 8.9839371,14.538347 8.79353588,14.4505312 L7.2185581,19.1754645 C7.1424843,19.4036859 7.23971465,19.6537278 7.44998314,19.7706036 C8.61913458,20.4204743 10.1343283,20.75 12,20.75 C13.8656739,20.75 15.380869,20.4204735 16.550021,19.7706013 C16.7602896,19.6537237 16.8575186,19.4036814 16.781439,19.175456 L15.2064641,14.4505312 Z M17.9910837,1.89506173 L18,2 C18,3.21085049 18.2910214,4.08391458 18.8535534,4.64644661 C19.4160854,5.20897863 20.2891495,5.5 21.5,5.5 C22.1296296,5.5 22.1646091,6.39197531 21.6049383,6.49108368 L21.5,6.5 C20.2891495,6.5 19.4160854,6.79102137 18.8535534,7.35355339 C18.3312022,7.87590456 18.0429597,8.66601042 18.0044473,9.74569231 L18,10 C18,10.6666667 17,10.6666667 17,10 C17,8.78914951 16.7089786,7.91608542 16.1464466,7.35355339 C15.5839146,6.79102137 14.7108505,6.5 13.5,6.5 C12.8333333,6.5 12.8333333,5.5 13.5,5.5 C14.7108505,5.5 15.5839146,5.20897863 16.1464466,4.64644661 C16.7089786,4.08391458 17,3.21085049 17,2 C17,1.37037037 17.8919753,1.33539095 17.9910837,1.89506173 Z M17.5,4.45188453 L17.3921241,4.65140992 C17.2411838,4.91109135 17.0617885,5.14531829 16.8535534,5.35355339 C16.5932595,5.61384726 16.2923534,5.82907902 15.9518845,6 C16.2923534,6.17092098 16.5932595,6.38615274 16.8535534,6.64644661 C17.1138473,6.90674048 17.329079,7.20764662 17.5,7.54811547 C17.670921,7.20764662 17.8861527,6.90674048 18.1464466,6.64644661 C18.4067405,6.38615274 18.7076466,6.17092098 19.0481155,6 C18.7076466,5.82907902 18.4067405,5.61384726 18.1464466,5.35355339 C17.9382115,5.14531829 17.7588162,4.91109135 17.6078759,4.65140992 L17.5,4.45188453 Z" id="ðŸŽ¨-Color"></path>
        </g>
    </g>
</svg>