<svg width="24" height="24" viewBox="0 0 24 24" fill="none" xmlns="http://www.w3.org/2000/svg">
<path d="M17.75 3C19.5449 3 21 4.45507 21 6.25V17.75C21 19.5449 19.5449 21 17.75 21H6.25C4.45507 21 3 19.5449 3 17.75V6.25C3 4.45507 4.45507 3 6.25 3H17.75ZM16.25 11H7.75C7.3703 11 7.05651 11.2822 7.00685 11.6482L7 11.75V16.25C7 16.6297 7.28215 16.9435 7.64823 16.9932L7.75 17H16.25C16.6297 17 16.9435 16.7178 16.9932 16.3518L17 16.25V11.75C17 11.3703 16.7178 11.0565 16.3518 11.0068L16.25 11ZM15.5 12.5V15.5H8.5V12.5H15.5ZM16.25 7.25H7.75C7.33579 7.25 7 7.58579 7 8C7 8.41421 7.33579 8.75 7.75 8.75H16.25C16.6642 8.75 17 8.41421 17 8C17 7.58579 16.6642 7.25 16.25 7.25Z" fill="#212121"/>
</svg>
