<svg width="16" height="16" viewBox="0 0 16 16" fill="none" xmlns="http://www.w3.org/2000/svg">
<path d="M3.14648 12.1465C3.34174 11.9512 3.65825 11.9512 3.85351 12.1465C4.0486 12.3418 4.04871 12.6583 3.85351 12.8535L2.35351 14.3535C2.15829 14.5486 1.84171 14.5486 1.64648 14.3535C1.45126 14.1583 1.45135 13.8418 1.64648 13.6465L3.14648 12.1465ZM8.14648 11.1465C8.34182 10.9514 8.65838 10.9513 8.85351 11.1465C9.04846 11.3418 9.04858 11.6584 8.85351 11.8535L6.3496 14.3535C6.15429 14.5484 5.83767 14.5486 5.64257 14.3535C5.44759 14.1582 5.44756 13.8416 5.64257 13.6465L8.14648 11.1465ZM12.4844 7C12.5469 7 12.6081 7.01956 12.6592 7.05566C12.7101 7.09168 12.7487 7.14242 12.7695 7.20117L13.0185 7.9668C13.0959 8.1992 13.2261 8.41079 13.3994 8.58398C13.5728 8.75726 13.7849 8.88755 14.0176 8.96484L14.7832 9.21289L14.7978 9.2168C14.8568 9.23757 14.9082 9.27622 14.9443 9.32715C14.9805 9.37818 15 9.43944 15 9.50195C15 9.56445 14.9805 9.62574 14.9443 9.67676C14.9082 9.72766 14.8567 9.76635 14.7978 9.78711L14.0332 10.0352C13.8005 10.1124 13.5884 10.2428 13.415 10.416C13.2417 10.5892 13.1115 10.8008 13.0342 11.0332L12.7851 11.7988C12.7643 11.8575 12.7257 11.9083 12.6748 11.9443C12.6237 11.9804 12.5625 12 12.5 12C12.4374 12 12.3763 11.9804 12.3252 11.9443C12.2743 11.9083 12.2357 11.8576 12.2148 11.7988L11.9658 11.0332C11.8889 10.8001 11.7583 10.5879 11.585 10.4141C11.4116 10.2403 11.1998 10.1089 10.9668 10.0312L10.2021 9.7832C10.1432 9.76244 10.0918 9.72376 10.0557 9.67285C10.0195 9.62182 9.99999 9.56056 9.99999 9.49805C10 9.43555 10.0195 9.37426 10.0557 9.32324C10.0918 9.27236 10.1433 9.23365 10.2021 9.21289L10.9668 8.96484C11.1966 8.88555 11.4056 8.75416 11.5762 8.58105C11.7468 8.40794 11.8753 8.19763 11.9512 7.9668L12.1992 7.20117C12.22 7.14248 12.2588 7.0917 12.3096 7.05566C12.3606 7.01961 12.4219 7.00006 12.4844 7ZM6.64648 8.64648C6.84174 8.45124 7.15825 8.45123 7.35351 8.64648C7.54875 8.84174 7.54875 9.15826 7.35351 9.35352L5.35351 11.3535C5.15825 11.5488 4.84174 11.5488 4.64648 11.3535C4.45122 11.1583 4.45122 10.8417 4.64648 10.6465L6.64648 8.64648ZM4.14648 7.14648C4.34174 6.95124 4.65825 6.95123 4.85351 7.14648C5.04875 7.34174 5.04875 7.65826 4.85351 7.85352L2.35351 10.3535C2.15825 10.5488 1.84174 10.5488 1.64648 10.3535C1.45121 10.1583 1.45121 9.84175 1.64648 9.64648L4.14648 7.14648ZM8.47851 1C8.56607 1 8.65117 1.0276 8.72265 1.07812C8.79414 1.12868 8.84878 1.1997 8.87792 1.28223L9.22558 2.35352C9.33387 2.67888 9.51713 2.97432 9.75976 3.2168C10.0024 3.45925 10.2984 3.64176 10.624 3.75L11.6963 4.09863L11.7178 4.10352C11.8003 4.13264 11.8713 4.18739 11.9219 4.25879C11.9724 4.3302 12 4.41547 12 4.50293C11.9999 4.59036 11.9724 4.6757 11.9219 4.74707C11.8713 4.81832 11.8002 4.87225 11.7178 4.90137L10.6455 5.25C10.3199 5.35824 10.0239 5.54074 9.78124 5.7832C9.53861 6.02568 9.35536 6.32112 9.24706 6.64648L8.89941 7.71777C8.87027 7.80031 8.81563 7.87132 8.74413 7.92188C8.67265 7.97241 8.58756 7.99999 8.49999 8C8.41244 8 8.32733 7.9724 8.25585 7.92188C8.2488 7.91689 8.24107 7.91261 8.23437 7.90723C8.17311 7.85803 8.12684 7.79215 8.10058 7.71777L7.75292 6.64648C7.73424 6.5898 7.71257 6.53427 7.68945 6.47949C7.57945 6.21897 7.42019 5.98141 7.21972 5.78027C7.18165 5.74209 7.14217 5.7051 7.10156 5.66992C6.88328 5.48093 6.62945 5.33582 6.35449 5.24414L5.28222 4.89648C5.19966 4.86736 5.12869 4.81262 5.07812 4.74121C5.02757 4.66979 4.99999 4.58455 4.99999 4.49707C5.00005 4.40964 5.02758 4.3243 5.07812 4.25293C5.12865 4.18168 5.19982 4.12774 5.28222 4.09863L6.35449 3.75C6.67604 3.63896 6.96732 3.4551 7.20605 3.21289C7.44486 2.97055 7.62529 2.67665 7.73144 2.35352L8.07909 1.28223C8.10823 1.1997 8.16287 1.12868 8.23437 1.07812C8.30585 1.02759 8.39094 1 8.47851 1Z" fill="#212121"/>
</svg>
