<svg width="49" height="48" viewBox="0 0 49 48" fill="none" xmlns="http://www.w3.org/2000/svg">
<path d="M42.8662 16.1828L32.2336 5.55023C29.941 3.25768 26.0762 3.88486 24.6263 6.78474L19.354 17.3294C19.2079 17.6217 18.953 17.8451 18.6441 17.9518L10.8743 20.636C8.95437 21.2992 8.39137 23.7435 9.82769 25.1798L15.6483 31.0004L6.41602 40.2326V42.0004H8.18378L17.4161 32.7682L23.2367 38.5888C24.673 40.0251 27.1172 39.4621 27.7805 37.5422L30.4646 29.7723C30.5713 29.4634 30.7948 29.2086 31.0871 29.0624L41.6317 23.7901C44.5316 22.3402 45.1587 18.4754 42.8662 16.1828ZM30.4658 7.318L41.0984 17.9506C42.1844 19.0365 41.8873 20.8672 40.5137 21.554L29.969 26.8264C29.0921 27.2648 28.4218 28.0293 28.1016 28.956L25.4175 36.7259C25.3572 36.9004 25.135 36.9516 25.0044 36.821L11.5955 23.412C11.4649 23.2815 11.5161 23.0592 11.6906 22.999L19.4604 20.3148C20.3872 19.9947 21.1516 19.3243 21.5901 18.4474L26.8624 7.90276C27.5492 6.52914 29.3799 6.23205 30.4658 7.318Z" fill="#212121"/>
</svg>
