<svg width="16" height="16" viewBox="0 0 16 16" fill="none" xmlns="http://www.w3.org/2000/svg">
<path d="M2.05001 4C2.28164 2.85888 3.2905 2 4.49996 2H9.49989C10.7094 2 11.7182 2.85888 11.9498 4H2.05001ZM2 5.00001V9.50002C2 10.8807 3.11927 12 4.49996 12H9.49989C10.8806 12 11.9999 10.8807 11.9999 9.50002V5.00001H2ZM6.50011 14C5.68222 14 4.95606 13.6072 4.49996 13H8.99995L9.00833 13H9.75006C11.545 13 13 11.5449 13 9.74999V6.49998L12.9999 6.48064V4.4997C13.6072 4.9558 14 5.68202 14 6.49998V9.74999C14 12.0972 12.0972 14 9.75006 14H6.50011Z" fill="#212121"/>
</svg>
