<svg width="28" height="28" viewBox="0 0 28 28" fill="none" xmlns="http://www.w3.org/2000/svg">
<path d="M21.0682 9.00001C23.2395 9.00019 24.9997 10.7603 24.9999 12.9317C24.9999 13.9743 24.5857 14.9746 23.8485 15.7119L16.0858 23.4746C15.6304 23.93 15.0653 24.261 14.4452 24.4346L8.95201 25.9727C8.69117 26.0456 8.41111 25.9718 8.21959 25.7803C8.02809 25.5888 7.95425 25.3087 8.0272 25.0479L9.56529 19.5547C9.73893 18.9346 10.0699 18.3695 10.5253 17.9141L18.288 10.1514C19.0253 9.41423 20.0256 9.00004 21.0682 9.00001ZM8.49986 2C8.80341 2 9.07727 2.18335 9.19322 2.46387L13.6854 13.3389L12.536 14.4883L11.3026 11.5H5.69712L4.44321 14.5361C4.28505 14.9188 3.84645 15.1013 3.46372 14.9434C3.08132 14.7851 2.89872 14.3465 3.05649 13.9639L7.8065 2.46387C7.92234 2.18341 8.19645 2.00021 8.49986 2ZM6.31724 10H10.6825L8.49986 4.71387L6.31724 10Z" fill="#212121"/>
</svg>
