<svg width="28" height="28" viewBox="0 0 28 28" fill="none" xmlns="http://www.w3.org/2000/svg">
<path d="M8.59799 4.22617C8.42623 3.8115 7.93171 3.63546 7.55335 3.87692C6.07718 4.81894 4.82083 6.07499 3.87846 7.55093C3.63688 7.92929 3.8129 8.42392 4.22764 8.59572C4.58082 8.74201 4.98517 8.59979 5.19372 8.27941C5.99571 7.04735 7.04925 5.99405 8.28152 5.19234C8.602 4.98384 8.74431 4.57941 8.59799 4.22617ZM11.8146 3.72774C11.4404 3.80697 11.0536 3.62163 10.9072 3.26822C10.7355 2.85365 10.9604 2.37959 11.3986 2.28275C12.2362 2.09761 13.1067 2 14 2C14.8939 2 15.765 2.09775 16.6032 2.28313C17.0413 2.38003 17.2662 2.85405 17.0945 3.26857C16.9481 3.62202 16.5612 3.80736 16.1869 3.72807C15.4815 3.57862 14.7499 3.5 14 3.5C13.2506 3.5 12.5196 3.57851 11.8146 3.72774ZM23.7731 8.59689C23.4199 8.7432 23.0155 8.60094 22.807 8.2805C22.0052 7.04841 20.9519 5.99503 19.7198 5.19319C19.3994 4.98466 19.2571 4.58028 19.4034 4.22708C19.5752 3.81236 20.0698 3.63634 20.4481 3.87787C21.9241 4.82006 23.1802 6.07621 24.1223 7.55218C24.3639 7.93055 24.1878 8.42512 23.7731 8.59689ZM24.7326 17.0891C24.3793 16.9428 24.1939 16.5561 24.273 16.182C24.4217 15.4781 24.5 14.7482 24.5 14C24.5 13.2502 24.4214 12.5187 24.272 11.8134C24.1927 11.4392 24.3781 11.0523 24.7315 10.9059C25.146 10.7342 25.6201 10.9591 25.717 11.3972C25.9023 12.2352 26 13.1062 26 14C26 14.8919 25.9027 15.7611 25.7181 16.5975C25.6214 17.0358 25.1472 17.2609 24.7326 17.0891ZM19.4011 23.7744C19.2548 23.4211 19.3971 23.0167 19.7176 22.8082C20.952 22.0053 22.007 20.9501 22.8096 19.7155C23.018 19.3949 23.4225 19.2525 23.7759 19.3988C24.1904 19.5706 24.3665 20.0649 24.1252 20.4433C23.1823 21.922 21.9242 23.1804 20.4457 24.1237C20.0673 24.3651 19.5729 24.1891 19.4011 23.7744ZM10.9099 24.7324C11.0562 24.379 11.4429 24.1937 11.8171 24.2728C12.5213 24.4217 13.2515 24.5 14 24.5C14.749 24.5 15.4798 24.4216 16.1844 24.2725C16.5586 24.1933 16.9454 24.3786 17.0918 24.732C17.2635 25.1466 17.0385 25.6207 16.6003 25.7175C15.763 25.9025 14.8929 26 14 26C13.1077 26 12.2382 25.9026 11.4014 25.7179C10.9632 25.6211 10.7381 25.147 10.9099 24.7324ZM4.22489 19.4C4.57818 19.2537 4.98267 19.3961 5.19114 19.7166C5.99392 20.9511 7.04915 22.0063 8.28366 22.809C8.60425 23.0175 8.74664 23.422 8.60029 23.7753C8.42856 24.1899 7.93417 24.366 7.55581 24.1247C6.07705 23.1815 4.81877 21.9232 3.87556 20.4445C3.63422 20.0662 3.81028 19.5718 4.22489 19.4ZM3.26879 10.9045C3.62226 11.0509 3.80759 11.4379 3.72826 11.8122C3.57869 12.5179 3.5 13.2497 3.5 14C3.5 14.7486 3.57835 15.479 3.72729 16.1832C3.80642 16.5574 3.62107 16.9441 3.26771 17.0905C2.85309 17.2623 2.37897 17.0372 2.2822 16.599C2.09742 15.7621 2 14.8924 2 14C2 13.1057 2.09783 12.2342 2.28337 11.3957C2.3803 10.9577 2.8543 10.7328 3.26879 10.9045Z" fill="#212121"/>
</svg>
