<svg width="48" height="48" viewBox="0 0 48 48" fill="none" xmlns="http://www.w3.org/2000/svg">
<path d="M4 12.75C4 10.1266 6.12665 8 8.75 8H39.25C41.8734 8 44 10.1266 44 12.75V18.6732L43.5309 18.455C40.89 17.2268 37.8189 18.5765 36.8787 21.3065L36.1828 23.3273C35.6657 24.8288 36.0313 26.5019 37.1325 27.6492L38.6232 29.2025C38.4042 30.5805 37.792 31.6719 36.7591 32.5497L34.7475 32.0184C33.1904 31.6072 31.5478 32.1366 30.5177 33.3664L29.155 34.9933C27.9452 36.4377 27.707 38.3668 28.341 40H8.75C6.12665 40 4 37.8734 4 35.25V12.75ZM13.25 22.5C12.5596 22.5 12 23.0596 12 23.75C12 24.4404 12.5596 25 13.25 25H30.75C31.4404 25 32 24.4404 32 23.75C32 23.0596 31.4404 22.5 30.75 22.5H13.25ZM12 30.25C12 30.9404 12.5596 31.5 13.25 31.5H26.75C27.4404 31.5 28 30.9404 28 30.25C28 29.5596 27.4404 29 26.75 29H13.25C12.5596 29 12 29.5596 12 30.25ZM13.25 16C12.5596 16 12 16.5596 12 17.25C12 17.9404 12.5596 18.5 13.25 18.5H22.75C23.4404 18.5 24 17.9404 24 17.25C24 16.5596 23.4404 16 22.75 16H13.25ZM38.0737 23.9784L38.7696 21.9577C39.3301 20.3299 41.1408 19.5492 42.6874 20.2685L43.437 20.6171C44.6585 21.1852 45.6816 22.2032 45.8809 23.5545C46.8573 30.1764 41.6894 39.3336 35.5954 41.7794C34.3518 42.2786 32.9785 41.8811 31.8868 41.083L31.2169 40.5932C29.8348 39.5826 29.5903 37.5881 30.688 36.2775L32.0507 34.6506C32.5864 34.0111 33.4342 33.7402 34.2366 33.9521L37.1775 34.7288C39.3996 33.2647 40.5748 31.1822 40.7032 28.4815L38.5752 26.2643C37.9947 25.6594 37.8001 24.7728 38.0737 23.9784Z" fill="#212121"/>
</svg>
