<svg width="28" height="28" viewBox="0 0 28 28" fill="none" xmlns="http://www.w3.org/2000/svg">
<path d="M12.7013 3.90789C13.2332 2.83018 14.7699 2.83018 15.3018 3.90789L17.9928 9.36041L24.01 10.2348C25.1993 10.4076 25.6742 11.8691 24.8136 12.708L20.4595 16.9522L21.4874 22.9451C21.6905 24.1296 20.4473 25.0329 19.3835 24.4737L14.0015 21.6442L8.61958 24.4737C7.55582 25.0329 6.31254 24.1296 6.5157 22.9451L7.54357 16.9522L3.18947 12.708C2.32887 11.8691 2.80376 10.4076 3.99308 10.2348L10.0103 9.36041L12.7013 3.90789ZM14.0015 4.66259L11.3438 10.0478C11.1326 10.4758 10.7243 10.7724 10.252 10.841L4.30903 11.7046L8.60941 15.8964C8.95115 16.2296 9.1071 16.7095 9.02642 17.1799L8.01124 23.0988L13.3268 20.3043C13.7492 20.0822 14.2539 20.0822 14.6763 20.3043L19.9918 23.0988L18.9767 17.1799C18.896 16.7095 19.0519 16.2296 19.3937 15.8964L23.6941 11.7046L17.7511 10.841C17.2788 10.7724 16.8705 10.4758 16.6593 10.0478L14.0015 4.66259Z" fill="#212121"/>
</svg>
