<svg width="32" height="32" viewBox="0 0 32 32" fill="none" xmlns="http://www.w3.org/2000/svg">
<path d="M20.2572 12.3399L26.431 13.2426L21.9552 17.6327C21.4873 18.0916 21.274 18.7506 21.3841 19.3966L22.438 25.5798L16.9364 22.6694C16.3514 22.3598 15.6511 22.3598 15.066 22.6694L9.56444 25.5798L10.6184 19.3966C10.7285 18.7506 10.5151 18.0916 10.0473 17.6327L5.57139 13.2426L11.7453 12.3399C12.3977 12.2445 12.9612 11.8336 13.2516 11.2416L16.0012 5.63545L18.7509 11.2416C19.0412 11.8336 19.6047 12.2445 20.2572 12.3399ZM17.348 3.83947C16.799 2.72018 15.2035 2.72018 14.6545 3.83947L11.4559 10.3609L4.28462 11.4095C3.05719 11.5889 2.56569 13.0959 3.45128 13.9646L8.64679 19.0606L7.42232 26.2443C7.21324 27.471 8.50252 28.4041 9.60241 27.8223L16.0012 24.4372L22.4 27.8223C23.4999 28.4041 24.7892 27.471 24.5801 26.2443L23.3557 19.0606L28.5512 13.9646C29.4368 13.0959 28.9452 11.5889 27.7178 11.4095L20.5465 10.3609L17.348 3.83947Z" fill="#212121"/>
</svg>
