<svg width="48" height="48" viewBox="0 0 48 48" fill="none" xmlns="http://www.w3.org/2000/svg">
<path d="M44 24C44 35.0457 35.0457 44 24 44C12.9543 44 4 35.0457 4 24C4 12.9543 12.9543 4 24 4C35.0457 4 44 12.9543 44 24ZM24 23.5C21.5147 23.5 19.5 25.5147 19.5 28C19.5 30.4853 21.5147 32.5 24 32.5C26.4853 32.5 28.5 30.4853 28.5 28C28.5 26.6946 28.0591 25.5771 27.3163 24.795C26.5829 24.0228 25.4826 23.5 24 23.5ZM24 35C27.866 35 31 31.866 31 28C31 26.1298 30.3628 24.3723 29.129 23.0733C27.8858 21.7644 26.1111 21 24 21C21.7711 21 19.7854 22.0418 18.5035 23.665C18.5532 21.2881 19.1317 19.233 20.0768 17.7909C21.045 16.3134 22.3692 15.5 24 15.5C25.5258 15.5 26.7728 16.2098 27.7172 17.494C28.1262 18.0501 28.9086 18.1694 29.4648 17.7604C30.0209 17.3514 30.1402 16.569 29.7312 16.0128C28.3867 14.1846 26.4336 13 24 13C21.3808 13 19.33 14.3692 17.9857 16.4206C16.6624 18.4399 16 21.1339 16 24C16 27.657 16.7864 30.4076 18.2422 32.2699C19.7305 34.1736 21.8026 35 24 35Z" fill="#212121"/>
</svg>
