<svg width="16" height="16" viewBox="0 0 16 16" fill="none" xmlns="http://www.w3.org/2000/svg">
<path d="M8 1C4.13401 1 1 4.13401 1 8C1 11.866 4.13401 15 8 15C11.866 15 15 11.866 15 8C15 4.13401 11.866 1 8 1ZM9.03847 8.1379C9.24886 8.36634 9.375 8.705 9.375 9.125C9.375 9.88439 8.75939 10.5 8 10.5C7.24061 10.5 6.625 9.88439 6.625 9.125C6.625 8.36561 7.24061 7.75 8 7.75C8.50675 7.75 8.83428 7.91619 9.03847 8.1379ZM9.77403 7.46045C10.1886 7.91063 10.375 8.50947 10.375 9.125C10.375 10.4367 9.31097 11.5 7.9993 11.5C7.99953 11.5 7.99906 11.5 7.9993 11.5C7.08937 11.5 6.37346 11.1106 5.90331 10.4446C5.44859 9.8004 5.2493 8.93666 5.2493 8C5.2493 7.10513 5.45054 6.24577 5.9004 5.59451C6.36365 4.92385 7.07626 4.5 7.9993 4.5C8.97876 4.5 9.71656 4.97659 10.1742 5.71035C10.3204 5.94465 10.2489 6.25306 10.0146 6.3992C9.78031 6.54534 9.4719 6.47388 9.32576 6.23958C9.03595 5.77494 8.60662 5.5 7.9993 5.5C7.42233 5.5 7.00994 5.74772 6.72319 6.16285C6.49263 6.49664 6.33664 6.95207 6.27672 7.4907C6.70951 7.03449 7.32153 6.75 8 6.75C8.74325 6.75 9.35322 7.00354 9.77403 7.46045Z" fill="#212121"/>
</svg>
