<svg width="24" height="24" viewBox="0 0 24 24" fill="none" xmlns="http://www.w3.org/2000/svg">
<path d="M5.21967 6.28033C4.92678 5.98744 4.92678 5.51256 5.21967 5.21967L7.21967 3.21967C7.51256 2.92678 7.98744 2.92678 8.28033 3.21967L10.2803 5.21967C10.5732 5.51256 10.5732 5.98744 10.2803 6.28033C9.98744 6.57322 9.51256 6.57322 9.21967 6.28033L8.5 5.56066V8.74609C8.5 9.16031 8.16421 9.49609 7.75 9.49609C7.33579 9.49609 7 9.16031 7 8.74609V5.56066L6.28033 6.28033C5.98744 6.57322 5.51256 6.57322 5.21967 6.28033ZM14.7197 5.21967C14.4268 5.51256 14.4268 5.98744 14.7197 6.28033C15.0126 6.57322 15.4874 6.57322 15.7803 6.28033L16.5 5.56066V20.25C16.5 20.6642 16.8358 21 17.25 21C17.6642 21 18 20.6642 18 20.25V5.56066L18.7197 6.28033C19.0126 6.57322 19.4874 6.57322 19.7803 6.28033C20.0732 5.98744 20.0732 5.51256 19.7803 5.21967L17.7803 3.21967C17.4874 2.92678 17.0126 2.92678 16.7197 3.21967L14.7197 5.21967ZM4 13.25C4 12.8358 4.33579 12.5 4.75 12.5H7.75V11.25C7.75 10.8358 8.08579 10.5 8.5 10.5C8.91421 10.5 9.25 10.8358 9.25 11.25V12.5H13.75C14.1642 12.5 14.5 12.8358 14.5 13.25C14.5 13.6642 14.1642 14 13.75 14H4.75C4.33579 14 4 13.6642 4 13.25ZM5.5 21C5.08579 21 4.75 20.6642 4.75 20.25V16.25C4.75 15.8358 5.08579 15.5 5.5 15.5H6.75C7.82841 15.5 9.17611 15.7123 10.2793 16.4183C11.4297 17.1546 12.25 18.3914 12.25 20.25C12.25 20.6642 11.9142 21 11.5 21C11.0858 21 10.75 20.6642 10.75 20.25C10.75 18.9086 10.1953 18.1454 9.47071 17.6817C8.69889 17.1877 7.67159 17 6.75 17H6.25V20.25C6.25 20.6642 5.91421 21 5.5 21Z" fill="#212121"/>
</svg>
