<svg width="48" height="48" viewBox="0 0 48 48" fill="none" xmlns="http://www.w3.org/2000/svg">
<path d="M26.002 12C32.3391 12 35.934 16.1946 36.4568 21.2603L36.6167 21.2602C40.6949 21.2602 44.0009 24.5577 44.0009 28.6253C44.0009 32.6116 40.8258 35.8582 36.8605 35.9864L36.5479 35.9903L32.2488 43.1489C31.7511 43.9775 30.676 44.2457 29.8475 43.7481C29.065 43.2781 28.7823 42.293 29.1725 41.4871L29.2484 41.3468L32.4649 35.9903H28.5479L24.2488 43.1489C23.7511 43.9775 22.676 44.2457 21.8475 43.7481C21.065 43.2781 20.7823 42.293 21.1725 41.4871L21.2484 41.3468L24.4649 35.9903H20.5479L16.2488 43.1489C15.7511 43.9775 14.676 44.2457 13.8475 43.7481C13.065 43.2781 12.7823 42.293 13.1725 41.4871L13.2484 41.3468L16.4649 35.9903L15.3873 35.9904C11.3091 35.9904 8.0031 32.6929 8.0031 28.6253C8.0031 24.5577 11.3091 21.2602 15.3873 21.2602L15.5472 21.2603C16.0731 16.1613 19.6649 12 26.002 12ZM7.56878 20.1905C8.0236 20.9783 7.79632 21.9727 7.07019 22.4899L6.92824 22.5811L5.6292 23.3311C4.79219 23.8143 3.7219 23.5275 3.23865 22.6905C2.78383 21.9027 3.01111 20.9083 3.73725 20.3912L3.8792 20.3L5.17824 19.55C6.01525 19.0667 7.08553 19.3535 7.56878 20.1905ZM21.7092 10.6621C17.9078 11.8818 15.2004 14.7533 14.0887 18.584L13.9948 18.9244L13.8794 19.4001L13.4672 19.477C12.25 19.7328 11.119 20.2266 10.1255 20.9081C9.94885 20.6053 9.79084 20.287 9.65299 19.9542C7.9869 15.9319 9.89699 11.3205 13.9193 9.65439C16.6038 8.54244 19.5506 9.02339 21.7092 10.6621ZM5.50487 9.97895L5.6374 10.0343L6.99686 10.6683C7.87281 11.0767 8.25178 12.1179 7.84332 12.9939C7.45528 13.826 6.49618 14.2097 5.65023 13.8958L5.5177 13.8404L4.15824 13.2064C3.28229 12.798 2.90332 11.7567 3.31178 10.8808C3.69982 10.0487 4.65891 9.66503 5.50487 9.97895ZM24.6155 4.21692C25.3677 4.74356 25.5789 5.75471 25.1229 6.5333L25.0453 6.65419L24.1849 7.88292C23.6306 8.67463 22.5394 8.86704 21.7477 8.31268C20.9955 7.78604 20.7843 6.77489 21.2403 5.9963L21.3179 5.8754L22.1783 4.64668C22.7326 3.85497 23.8238 3.66256 24.6155 4.21692ZM14.3237 3.79758L14.3888 3.95321L14.9019 5.36275C15.2324 6.27096 14.7641 7.27518 13.8559 7.60575C13.0011 7.91686 12.0613 7.52036 11.6781 6.71545L11.6129 6.55982L11.0999 5.15028C10.7693 4.24207 11.2376 3.23785 12.1458 2.90728C13.0006 2.59617 13.9405 2.99267 14.3237 3.79758Z" fill="#212121"/>
</svg>
