<svg width="24" height="24" viewBox="0 0 24 24" fill="none" xmlns="http://www.w3.org/2000/svg">
<path d="M13.0023 6.00988C16.1708 6.00988 17.9683 8.10717 18.2297 10.64L18.3096 10.64C20.3487 10.64 22.0017 12.2887 22.0017 14.3225C22.0017 16.3563 20.3487 18.0051 18.3096 18.0051L17.7945 18.005L16.1494 20.6319C15.9423 20.9906 15.4836 21.1135 15.1249 20.9064C14.7961 20.7166 14.6654 20.3153 14.8054 19.9735L14.8504 19.8819L16.0625 18.005H13.9265L12.2812 20.6319C12.0741 20.9906 11.6154 21.1135 11.2567 20.9064C10.9279 20.7166 10.7972 20.3153 10.9372 19.9735L10.9822 19.8819L12.1945 18.005H10.0585L8.41301 20.6319C8.2059 20.9906 7.74721 21.1135 7.38849 20.9064C7.05967 20.7166 6.92899 20.3153 7.06902 19.9735L7.11397 19.8819L8.32654 18.005L7.69492 18.0051C5.65584 18.0051 4.00284 16.3563 4.00284 14.3225C4.00284 12.2887 5.65584 10.64 7.69494 10.64L7.77488 10.64C8.03782 8.09052 9.83375 6.00988 13.0023 6.00988ZM4.36791 10.1653C4.51321 10.5161 4.37262 10.914 4.05341 11.1L3.96201 11.1452L3.03574 11.5289C2.65306 11.6874 2.21433 11.5057 2.05582 11.123C1.91052 10.7722 2.05111 10.3743 2.37032 10.1884L2.46172 10.1431L3.38798 9.75942C3.77067 9.60091 4.20939 9.78264 4.36791 10.1653ZM10.8549 5.33211L10.6833 5.38969C8.89893 6.02006 7.62092 7.39514 7.06838 9.21265L6.99755 9.4632L6.93986 9.70103L6.73377 9.73949C6.12548 9.86731 5.56026 10.114 5.06373 10.4545C4.97491 10.3043 4.89572 10.1448 4.82665 9.97806C3.9936 7.9669 4.94864 5.66122 6.9598 4.82817C8.3021 4.27217 9.77559 4.51269 10.8549 5.33211ZM2.94116 5.36319L3.04666 5.39809L3.97293 5.78176C4.35561 5.94028 4.53734 6.379 4.37883 6.76169C4.23472 7.10958 3.85904 7.29139 3.50441 7.20248L3.3989 7.16758L2.47264 6.78391C2.08996 6.6254 1.90823 6.18667 2.06674 5.80399C2.21084 5.4561 2.58653 5.27428 2.94116 5.36319ZM6.75638 2.37677L6.80165 2.46817L7.18533 3.39444C7.34384 3.77712 7.16211 4.21585 6.77943 4.37436C6.42864 4.51966 6.03075 4.37907 5.84478 4.05987L5.79951 3.96846L5.41584 3.0422C5.25732 2.65951 5.43905 2.22079 5.82173 2.06228C6.17253 1.91697 6.57041 2.05756 6.75638 2.37677ZM11.1097 2.05826C11.4576 2.20237 11.6394 2.57805 11.5505 2.93268L11.5156 3.03819L11.1319 3.96445C10.9734 4.34713 10.5347 4.52886 10.152 4.37035C9.80413 4.22625 9.62232 3.85056 9.71123 3.49593L9.74613 3.39043L10.1298 2.46416C10.2883 2.08148 10.727 1.89975 11.1097 2.05826Z" fill="#212121"/>
</svg>
