<svg width="48" height="48" viewBox="0 0 48 48" fill="none" xmlns="http://www.w3.org/2000/svg">
<path d="M17.25 4C15.4551 4 14 5.45507 14 7.25V13.25C13.9998 13.664 13.6641 14 13.25 14H7.25C5.45507 14 4 15.4551 4 17.25V23.25C4 25.0449 5.45508 26.5 7.25 26.5H23.25C25.0449 26.5 26.5 25.0449 26.5 23.25V17.25C26.5 16.8358 26.8358 16.5 27.25 16.5H33.25C35.0449 16.5 36.5 15.0449 36.5 13.25V7.25C36.5 5.45507 35.0449 4 33.25 4H17.25ZM33.25 14H26.5L26.5 6.5H33.25C33.6642 6.5 34 6.83579 34 7.25V13.25C34 13.6642 33.6642 14 33.25 14ZM24 14H16.5V7.25C16.5 6.83579 16.8358 6.5 17.25 6.5H24L24 14ZM14 16.5L14 24H7.25C6.83579 24 6.5 23.6642 6.5 23.25V17.25C6.5 16.8358 6.83579 16.5 7.25 16.5H14ZM16.5 16.5H24V23.25C24 23.6642 23.6642 24 23.25 24H16.5L16.5 16.5ZM34.75 21.5H40.75C42.5449 21.5 44 22.9551 44 24.75V40.75C44 42.5449 42.5449 44 40.75 44H13.25C11.4551 44 10 42.5449 10 40.75V34.75C10 32.9551 11.4551 31.5 13.25 31.5H30.75C31.1642 31.5 31.5 31.1642 31.5 30.75V24.75C31.5 22.9551 32.9551 21.5 34.75 21.5ZM31.5 41.5V34H23.5V41.5H31.5ZM41.5 34H34V41.5H40.75C41.1642 41.5 41.5 41.1642 41.5 40.75V34ZM34 31.5H41.5V24.75C41.5 24.3358 41.1642 24 40.75 24H34.75C34.3358 24 34 24.3358 34 24.75V31.5ZM21 34H13.25C12.8358 34 12.5 34.3358 12.5 34.75V40.75C12.5 41.1642 12.8358 41.5 13.25 41.5H21V34Z" fill="#212121"/>
</svg>
