<svg width="16" height="16" viewBox="0 0 16 16" fill="none" xmlns="http://www.w3.org/2000/svg">
<path d="M10.0589 1.44511C9.34701 0.73063 8.14697 0.908291 7.67261 1.79839L5.6526 5.58878L2.8419 6.52568C2.6775 6.58048 2.5532 6.71649 2.51339 6.88514C2.47357 7.0538 2.52392 7.23104 2.64646 7.35357L4.79291 9.50003L2.14645 12.1465L2 13L2.85356 12.8536L5.50002 10.2071L6.04977 10.7569C6.10286 10.3639 6.19745 9.98402 6.329 9.6219L3.92562 7.21853L6.15812 6.47436C6.27966 6.43385 6.38101 6.34823 6.44126 6.23518L8.55511 2.2687C8.71323 1.972 9.11324 1.91278 9.35055 2.15094L12.836 5.64889C12.9858 5.79923 13.0169 6.01412 12.9445 6.19165C13.2699 6.28 13.5834 6.39748 13.8819 6.54112C14.0835 6.01451 13.9853 5.38557 13.5443 4.94305L10.0589 1.44511ZM10.5499 8.15016C10.2592 8.87686 10.0568 9.87174 10.0102 11H12.9896C12.9429 9.87174 12.7405 8.87686 12.4499 8.15016C12.2828 7.73261 12.0965 7.42826 11.9151 7.23648C11.7347 7.04575 11.5942 7 11.4999 7C11.4055 7 11.265 7.04575 11.0847 7.23648C10.9033 7.42826 10.7169 7.73261 10.5499 8.15016ZM9.82942 7.32024C9.75467 7.46542 9.68538 7.6189 9.62143 7.77877C9.27658 8.64088 9.05648 9.76642 9.00938 11H7.02734C7.21268 9.32339 8.31913 7.92438 9.82942 7.32024ZM13.1703 7.32024C13.2451 7.46542 13.3144 7.6189 13.3783 7.77877C13.7232 8.64088 13.9433 9.76642 13.9904 11H15.9724C15.7871 9.32339 14.6806 7.92438 13.1703 7.32024ZM15.9724 12H13.9904C13.9433 13.2336 13.7232 14.3591 13.3783 15.2212C13.3144 15.3811 13.2451 15.5346 13.1703 15.6798C14.6806 15.0756 15.7871 13.6766 15.9724 12ZM11.4999 16C11.5942 16 11.7347 15.9543 11.9151 15.7635C12.0965 15.5717 12.2828 15.2674 12.4499 14.8498C12.7405 14.1231 12.9429 13.1283 12.9896 12H10.0102C10.0568 13.1283 10.2592 14.1231 10.5499 14.8498C10.7169 15.2674 10.9033 15.5717 11.0847 15.7635C11.265 15.9543 11.4055 16 11.4999 16ZM9.82942 15.6798C8.31913 15.0756 7.21268 13.6766 7.02734 12H9.00938C9.05648 13.2336 9.27658 14.3591 9.62143 15.2212C9.68538 15.3811 9.75467 15.5346 9.82942 15.6798Z" fill="#212121"/>
</svg>
