<svg width="16" height="16" viewBox="0 0 16 16" fill="none" xmlns="http://www.w3.org/2000/svg">
<path d="M4.5 2C3.11929 2 2 3.11929 2 4.5V11.5C2 12.8807 3.11929 14 4.5 14H11.5C12.8807 14 14 12.8807 14 11.5V4.5C14 3.11929 12.8807 2 11.5 2H4.5ZM3 4.5C3 3.67157 3.67157 3 4.5 3H11.5C12.3284 3 13 3.67157 13 4.5V11.5C13 12.3284 12.3284 13 11.5 13H4.5C3.67157 13 3 12.3284 3 11.5V4.5ZM9.85355 5.64645C9.65829 5.45118 9.34171 5.45118 9.14645 5.64645C8.95118 5.84171 8.95118 6.15829 9.14645 6.35355L10.7929 8L9.14645 9.64645C8.95118 9.84171 8.95118 10.1583 9.14645 10.3536C9.34171 10.5488 9.65829 10.5488 9.85355 10.3536L11.8536 8.35355C12.0488 8.15829 12.0488 7.84171 11.8536 7.64645L9.85355 5.64645ZM6.85355 6.35364C7.04881 6.15838 7.04882 5.8418 6.85356 5.64654C6.6583 5.45127 6.34172 5.45126 6.14645 5.64652L4.14645 7.64644C4.05268 7.74021 4 7.86738 4 7.99999C4 8.1326 4.05268 8.25978 4.14645 8.35355L6.14645 10.3536C6.34171 10.5488 6.65829 10.5488 6.85355 10.3536C7.04882 10.1583 7.04882 9.84171 6.85355 9.64645L5.20711 8.00001L6.85355 6.35364Z" fill="#212121"/>
</svg>
