<svg width="16" height="16" viewBox="0 0 16 16" fill="none" xmlns="http://www.w3.org/2000/svg">
<path d="M1.00001 7C1.00001 3.68629 3.68631 1 7.00001 1C9.79889 1 12.1502 2.91642 12.8132 5.50865C12.4406 5.33569 12.0454 5.20321 11.6333 5.11688C10.8895 3.28879 9.09527 2 7.00001 2C4.23859 2 2.00001 4.23858 2.00001 7C2.00001 7.93308 2.25513 8.80506 2.69913 9.55165C2.76952 9.67002 2.78797 9.81217 2.75014 9.94458L2.24119 11.7259L3.89938 11.1732C4.04199 11.1256 4.19843 11.1448 4.32536 11.2253C4.57508 11.3838 4.83978 11.5207 5.11691 11.6334C5.20323 12.0455 5.33567 12.4406 5.50858 12.813C4.97191 12.6757 4.46403 12.466 3.99618 12.195L1.65813 12.9743C1.48217 13.033 1.2882 12.9894 1.15422 12.8612C1.02025 12.7329 0.968297 12.541 1.01925 12.3626L1.73086 9.87202C1.2648 9.01862 1.00001 8.03957 1.00001 7ZM8.06671 7.44295C8.37 8.5241 7.724 9.643 6.63605 9.92092L6.175 10.0387C6.16002 10.1906 6.15234 10.3448 6.15234 10.5008C6.15234 10.6885 6.16345 10.8735 6.18501 11.0551L6.53457 11.1378C7.65401 11.4024 8.31999 12.5546 7.99065 13.6567L7.86432 14.0795C8.1215 14.2827 8.40124 14.4569 8.69897 14.5974L9.02396 14.2533C9.81378 13.417 11.1445 13.4177 11.9335 14.2548L12.2708 14.6128C12.5632 14.4778 12.8386 14.3105 13.0927 14.1151L12.9365 13.5585C12.6333 12.4774 13.2793 11.3585 14.3672 11.0805L14.8277 10.9629C14.8427 10.811 14.8504 10.6568 14.8504 10.5008C14.8504 10.3131 14.8393 10.128 14.8177 9.94622L14.4687 9.86371C13.3492 9.59903 12.6833 8.4469 13.0126 7.34476L13.1388 6.92246C12.8816 6.71917 12.6018 6.54491 12.304 6.40438L11.9793 6.74818C11.1895 7.58447 9.85872 7.58377 9.06978 6.74665L8.73241 6.38867C8.43998 6.52355 8.1646 6.69085 7.91051 6.88615L8.06671 7.44295ZM10.5014 11.5008C9.94908 11.5008 9.50136 11.0531 9.50136 10.5008C9.50136 9.94855 9.94908 9.50083 10.5014 9.50083C11.0536 9.50083 11.5014 9.94855 11.5014 10.5008C11.5014 11.0531 11.0536 11.5008 10.5014 11.5008Z" fill="#212121"/>
</svg>
