<svg width="48" height="48" viewBox="0 0 48 48" fill="none" xmlns="http://www.w3.org/2000/svg">
<path d="M21.803 6.08572C22.7017 4.26477 25.2983 4.26476 26.197 6.08571L31.0493 15.9177L41.8996 17.4943C43.9091 17.7863 44.7115 20.2559 43.2574 21.6733L35.4061 29.3264L37.2595 40.1328C37.6028 42.1342 35.5021 43.6604 33.7047 42.7155L24 37.6134L14.2952 42.7155C12.4978 43.6604 10.3971 42.1342 10.7404 40.1328L12.5938 29.3264L4.74255 21.6733C3.28843 20.2559 4.09083 17.7863 6.10037 17.4943L16.9506 15.9177L21.803 6.08572ZM24 7.28298L19.1808 17.0477C18.8239 17.7708 18.1341 18.272 17.3361 18.3879L6.56012 19.9538L14.3577 27.5545C14.9351 28.1174 15.1986 28.9283 15.0623 29.7231L13.2216 40.4555L22.8599 35.3884C23.5736 35.0131 24.4263 35.0131 25.1401 35.3884L34.7784 40.4555L32.9376 29.7231C32.8013 28.9283 33.0648 28.1174 33.6422 27.5545L41.4398 19.9538L30.6638 18.3879C29.8658 18.272 29.176 17.7708 28.8191 17.0477L24 7.28298Z" fill="#212121"/>
</svg>
