<svg width="20" height="20" viewBox="0 0 20 20" fill="none" xmlns="http://www.w3.org/2000/svg">
<path d="M4.5 4C3.11929 4 2 5.11929 2 6.5V9.33681C2.31085 9.18915 2.64693 9.08595 3 9.03544V6.5C3 5.67157 3.67157 5 4.5 5H11.5C12.3284 5 13 5.67157 13 6.5V13.5C13 14.3284 12.3284 15 11.5 15H11V16H11.5C12.8807 16 14 14.8807 14 13.5V12.5L16.4 14.3C17.0592 14.7944 18 14.324 18 13.5V6.49998C18 5.67594 17.0592 5.20556 16.4 5.69998L14 7.49998V6.5C14 5.11929 12.8807 4 11.5 4H4.5ZM14 8.74998L17 6.49998V13.5L14 11.25V8.74998Z" fill="#212121"/>
<path d="M1 12.5C1 11.1193 2.11929 10 3.5 10H7.5C8.88071 10 10 11.1193 10 12.5V16.5C10 17.8807 8.88071 19 7.5 19H3.5C2.11929 19 1 17.8807 1 16.5V12.5ZM5.02008 12.534C4.94209 12.4811 4.85564 12.4546 4.7607 12.4546C4.69458 12.4546 4.63186 12.4687 4.57252 12.4969C4.51319 12.5234 4.46148 12.5596 4.41741 12.6054C4.37333 12.6513 4.33773 12.7051 4.31061 12.7668C4.28518 12.8286 4.27246 12.8938 4.27246 12.9626V16.0374C4.27246 16.1045 4.28518 16.1689 4.31061 16.2306C4.33773 16.2924 4.37333 16.347 4.41741 16.3947C4.46318 16.4405 4.51573 16.4776 4.57507 16.5058C4.6344 16.5323 4.69628 16.5455 4.7607 16.5455C4.80986 16.5455 4.85564 16.5384 4.89802 16.5243C4.94209 16.5102 4.98532 16.489 5.02771 16.4608L7.32395 14.8943C7.39346 14.8485 7.44771 14.7867 7.4867 14.7091C7.52569 14.6315 7.54519 14.5503 7.54519 14.4656C7.54519 14.3774 7.52485 14.2963 7.48416 14.2222C7.44347 14.1463 7.38753 14.0855 7.31633 14.0396L5.02008 12.534Z" fill="#212121"/>
</svg>
