<?xml version="1.0" encoding="UTF-8"?>
<svg width="24px" height="24px" viewBox="0 0 24 24" version="1.1" xmlns="http://www.w3.org/2000/svg" xmlns:xlink="http://www.w3.org/1999/xlink">
    <!-- Generator: Sketch 59.1 (86144) - https://sketch.com -->
    <title>ic_photo_rotate_24_regular</title>
    <desc>Created with Sketch.</desc>
    <g id="ðŸ”-Product-Icons" stroke="none" stroke-width="1" fill="none" fill-rule="evenodd">
        <g id="ic_photo_rotate_24_regular" fill="#212121">
            <path d="M10.448751,2.22475169 C10.7211773,1.9523254 11.14748,1.92755937 11.4478838,2.15045361 L11.5339482,2.22475169 L13.5802156,4.27101908 C13.8526419,4.54344537 13.8774079,4.96974803 13.6545137,5.27015184 L13.5802156,5.35621624 L11.5339482,7.40248363 C11.2342793,7.70215256 10.7484199,7.70215256 10.448751,7.40248363 C10.1763247,7.13005734 10.1515587,6.70375469 10.3744529,6.40335088 L10.448751,6.31728647 L11.1404971,5.62489386 C7.42577342,6.02929733 4.53470054,9.17636915 4.53470054,12.9986872 C4.53470054,17.0953805 7.85572659,20.4164065 11.9524198,20.4164065 C16.0491131,20.4164065 19.3701391,17.0953805 19.3701391,12.9986872 C19.3701391,10.505482 18.1316774,8.22316713 16.1048456,6.85115962 C15.7538961,6.6135941 15.6619803,6.13650842 15.8995458,5.78555892 C16.1371113,5.43460943 16.614197,5.34269355 16.9651465,5.58025907 C19.4093765,7.23481274 20.9048397,9.99074603 20.9048397,12.9986872 C20.9048397,17.9429722 16.8967048,21.9511071 11.9524198,21.9511071 C7.00813489,21.9511071 3,17.9429722 3,12.9986872 C3,8.30263527 6.61577279,4.45109229 11.2151887,4.0761879 L10.448751,3.30994885 C10.1490821,3.01027993 10.1490821,2.52442061 10.448751,2.22475169 Z" id="ðŸŽ¨-Color"></path>
        </g>
    </g>
</svg>