<svg width="16" height="16" viewBox="0 0 16 16" fill="none" xmlns="http://www.w3.org/2000/svg">
<path d="M1 3C1 1.89539 1.89542 1 3 1H7C8.10458 1 9 1.89539 9 3V6C9 7.10461 8.10458 8 7 8H3C1.89542 8 1 7.10461 1 6V3ZM6.5 5H3.5C3.22385 5 3 5.22388 3 5.5C3 5.77612 3.22385 6 3.5 6H6.5C6.77615 6 7 5.77612 7 5.5C7 5.22388 6.77615 5 6.5 5ZM3.5 3C3.22385 3 3 3.22388 3 3.5C3 3.77612 3.22385 4 3.5 4H6.5C6.77615 4 7 3.77612 7 3.5C7 3.22388 6.77615 3 6.5 3H3.5ZM3 12.5V9H7C8.65685 9 10 7.65685 10 6V3H12.5C13.8807 3 15 4.11929 15 5.5V12.5C15 13.0095 14.8476 13.4835 14.5858 13.8787L10.2021 9.49499C9.53823 8.8311 8.46185 8.8311 7.79796 9.49499L3.41422 13.8787C3.15245 13.4835 3 13.0096 3 12.5ZM12.5 6.50207C12.5 5.94864 12.0514 5.5 11.4979 5.5C10.9445 5.5 10.4958 5.94864 10.4958 6.50207C10.4958 7.0555 10.9445 7.50414 11.4979 7.50414C12.0514 7.50414 12.5 7.0555 12.5 6.50207ZM13.8787 14.5858L9.49501 10.2021C9.22165 9.92873 8.77843 9.92873 8.50506 10.2021L4.12134 14.5858C4.51655 14.8476 4.99047 15 5.5 15H12.5C13.0095 15 13.4835 14.8476 13.8787 14.5858Z" fill="#212121"/>
</svg>
