<svg width="16" height="16" viewBox="0 0 16 16" fill="none" xmlns="http://www.w3.org/2000/svg">
<path d="M2 4.46458C2 3.6539 2.91399 3.18013 3.57643 3.64743L8 6.76789V4.46458C8 3.6539 8.91399 3.18013 9.57643 3.64743L14.5882 7.18284C15.153 7.58123 15.153 8.41874 14.5882 8.81713L9.57643 12.3525C8.91399 12.8198 8 12.3461 8 11.5354V9.23209L3.57643 12.3525C2.91399 12.8198 2 12.3461 2 11.5354V4.46458ZM8 7.99166L3 4.46458L3 11.5354L8 8.00832V7.99166ZM9 11.5354L14.0118 7.99999L9 4.46458C9 6.82584 9 9.17662 9 11.5354Z" fill="#212121"/>
</svg>
