<svg width="16" height="16" viewBox="0 0 16 16" fill="none" xmlns="http://www.w3.org/2000/svg">
<path d="M2 4.46464C2 3.65396 2.91399 3.1802 3.57643 3.64749L8 6.76795V4.46464C8 3.65396 8.91399 3.1802 9.57643 3.64749L14.5882 7.1829C15.153 7.58129 15.153 8.4188 14.5882 8.81719L9.57643 12.3526C8.91399 12.8199 8 12.3461 8 11.5355V9.23215L3.57643 12.3526C2.91399 12.8199 2 12.3461 2 11.5355V4.46464ZM8 7.99172L3 4.46464L3 11.5355L8 8.00838V7.99172ZM9 11.5355L14.0118 8.00005L9 4.46464C9 6.8259 9 9.17668 9 11.5355Z" fill="#212121"/>
</svg>
