<?xml version="1.0" encoding="UTF-8"?>
<svg width="24px" height="24px" viewBox="0 0 24 24" version="1.1" xmlns="http://www.w3.org/2000/svg" xmlns:xlink="http://www.w3.org/1999/xlink">
    <!-- Generator: Sketch 61.2 (89653) - https://sketch.com -->
    <title>ic_fluent_duo_desktop_24_regular</title>
    <desc>Created with Sketch.</desc>
    <g id="ðŸ”-Product-Icons" stroke="none" stroke-width="1" fill="none" fill-rule="evenodd">
        <g id="ic_fluent_duo_desktop_24_regular" fill="#212121" fill-rule="nonzero">
            <path d="M12.25,9.9998456 C13.1681734,9.9998456 13.9211923,10.7069559 13.9941988,11.6063184 L14,11.7498456 L14,20.25 C14,21.1681734 13.2928897,21.9211923 12.3935272,21.9941988 L12.25,22 L3.75,22 C2.8318266,22 2.07880766,21.2928897 2.0058012,20.3935272 L2,20.25 L2,11.7498456 C2,10.8316722 2.70711027,10.0786533 3.60647279,10.0056468 L3.75,9.9998456 L12.25,9.9998456 Z M7.5,11.499 L3.75,11.4998456 C3.63165327,11.4998456 3.53251318,11.582079 3.50660268,11.6925229 L3.5,11.7498456 L3.5,20.25 C3.5,20.3683467 3.58223341,20.4674868 3.69267729,20.4933973 L3.75,20.5 L7.5,20.499 L7.5,11.499 Z M12.25,11.4998456 L8.5,11.499 L8.5,20.499 L12.25,20.5 C12.3683467,20.5 12.4674868,20.4177666 12.4933973,20.3073227 L12.5,20.25 L12.5,11.7498456 C12.5,11.6314989 12.4177666,11.5323588 12.3073227,11.5064483 L12.25,11.4998456 Z M10.625,18 C11.0392136,18 11.375,18.3357864 11.375,18.75 C11.375,19.1296958 11.0928461,19.443491 10.7267706,19.4931534 L10.625,19.5 L10.125,19.5 C9.71078644,19.5 9.375,19.1642136 9.375,18.75 C9.375,18.3703042 9.65715388,18.056509 10.0232294,18.0068466 L10.125,18 L10.625,18 Z M5.875,18 C6.28921356,18 6.625,18.3357864 6.625,18.75 C6.625,19.1296958 6.34284612,19.443491 5.97677056,19.4931534 L5.875,19.5 L5.375,19.5 C4.96078644,19.5 4.625,19.1642136 4.625,18.75 C4.625,18.3703042 4.90715388,18.056509 5.27322944,18.0068466 L5.375,18 L5.875,18 Z M19.75,2 C20.940864,2 21.9156449,2.92516159 21.9948092,4.09595119 L22,4.25 L22,13.25 C22,14.440864 21.0748384,15.4156449 19.9040488,15.4948092 L19.75,15.5 L17.004,15.5 L17.004,17.5 L18.25,17.5 C18.6642136,17.5 19,17.8357864 19,18.25 C19,18.6296958 18.7178461,18.943491 18.3517706,18.9931534 L18.25,19 L15,19 L15,17.5 L15.504,17.5 L15.504,15.5 L15,15.5 L15,14 L19.75,14 C20.1296958,14 20.443491,13.7178461 20.4931534,13.3517706 L20.5,13.25 L20.5,4.25 C20.5,3.83578644 20.1642136,3.5 19.75,3.5 L6.25,3.5 C5.87030423,3.5 5.55650904,3.78215388 5.50684662,4.14822944 L5.5,4.25 L5.5,9 L4,9 L4,4.25 C4,3.05913601 4.92516159,2.08435508 6.09595119,2.00519081 L6.25,2 L19.75,2 Z" id="ðŸŽ¨-Color"></path>
        </g>
    </g>
</svg>