<svg width="24" height="24" viewBox="0 0 24 24" fill="none" xmlns="http://www.w3.org/2000/svg">
<path d="M11.75 3C8.92458 3 6.56096 5.04276 6.08664 7.75L6.00002 7.75C3.79086 7.75 2 9.54086 2 11.75C2 13.9591 3.79086 15.75 6 15.75H10.0428C10.4147 12.5134 13.1638 10 16.5 10C18.4894 10 20.27 10.8937 21.4623 12.3015C21.4872 12.1212 21.5 11.9371 21.5 11.75C21.5 9.54086 19.7091 7.75 17.5 7.75L17.4134 7.75C16.939 5.04276 14.5754 3 11.75 3ZM22 16.5C22 19.5376 19.5376 22 16.5 22C13.4624 22 11 19.5376 11 16.5C11 13.4624 13.4624 11 16.5 11C19.5376 11 22 13.4624 22 16.5ZM16.5 13C16.2239 13 16 13.2239 16 13.5V17.5C16 17.7761 16.2239 18 16.5 18C16.7761 18 17 17.7761 17 17.5V13.5C17 13.2239 16.7761 13 16.5 13ZM16.5 20.125C16.8452 20.125 17.125 19.8452 17.125 19.5C17.125 19.1548 16.8452 18.875 16.5 18.875C16.1548 18.875 15.875 19.1548 15.875 19.5C15.875 19.8452 16.1548 20.125 16.5 20.125Z" fill="#212121"/>
</svg>
