<svg width="28" height="28" viewBox="0 0 28 28" fill="none" xmlns="http://www.w3.org/2000/svg">
<path d="M14 3C10.4677 3 7.5468 5.61603 7.06858 9.01667C4.23266 9.23671 2 11.6076 2 14.5C2 17.5376 4.46243 20 7.5 20H12.0164C12.0055 19.8347 12 19.668 12 19.5C12 15.3579 15.3579 12 19.5 12C22.2046 12 24.5749 13.4316 25.8943 15.5784C25.9636 15.2297 26 14.8691 26 14.5C26 11.6076 23.7673 9.23671 20.9314 9.01667C20.4532 5.61603 17.5323 3 14 3ZM26 19.5C26 23.0899 23.0899 26 19.5 26C15.9101 26 13 23.0899 13 19.5C13 15.9101 15.9101 13 19.5 13C23.0899 13 26 15.9101 26 19.5ZM19.5 16C19.2239 16 19 16.2239 19 16.5V20.5C19 20.7761 19.2239 21 19.5 21C19.7761 21 20 20.7761 20 20.5V16.5C20 16.2239 19.7761 16 19.5 16ZM19.5 23.125C19.8452 23.125 20.125 22.8452 20.125 22.5C20.125 22.1548 19.8452 21.875 19.5 21.875C19.1548 21.875 18.875 22.1548 18.875 22.5C18.875 22.8452 19.1548 23.125 19.5 23.125Z" fill="#212121"/>
</svg>
