<svg width="16" height="16" viewBox="0 0 16 16" fill="none" xmlns="http://www.w3.org/2000/svg">
<path d="M12.0001 1.5C12.0001 1.22386 12.224 1 12.5001 1C12.7763 1 13.0001 1.22386 13.0001 1.5V4H15.5001C15.7763 4 16.0001 4.22386 16.0001 4.5C16.0001 4.77614 15.7763 5 15.5001 5H13.0001V7.5C13.0001 7.77614 12.7763 8 12.5001 8C12.224 8 12.0001 7.77614 12.0001 7.5V5H9.50014C9.224 5 9.00014 4.77614 9.00014 4.5C9.00014 4.22386 9.224 4 9.50014 4H12.0001V1.5ZM5.75619 7.02272L6.82888 6.03879C7.42977 5.48761 7.6359 4.62683 7.34984 3.86327L6.89146 2.63973C6.53635 1.69183 5.5051 1.18376 4.53712 1.4798C2.82092 2.00467 1.50193 3.59944 1.908 5.49404C2.17505 6.73998 2.68561 8.30388 3.65403 9.96863C4.62409 11.6362 5.73194 12.869 6.6816 13.7336C8.11604 15.0395 10.1662 14.7129 11.4852 13.4832C12.219 12.799 12.294 11.6621 11.6564 10.8875L10.8158 9.86644C10.2975 9.23692 9.44901 8.98504 8.67123 9.22984L7.28278 9.66685C7.22939 9.61197 7.16753 9.54635 7.10006 9.47112C6.87193 9.21677 6.58657 8.86028 6.34658 8.44461C6.10659 8.02893 5.94055 7.60356 5.83433 7.27882C5.80292 7.18278 5.77702 7.0964 5.75619 7.02272Z" fill="#212121"/>
</svg>
