<svg width="16" height="16" viewBox="0 0 16 16" fill="none" xmlns="http://www.w3.org/2000/svg">
<path d="M8 2C11.866 2 15 5.13401 15 9C15 10.8638 13.7252 12.43 12 12.874V13C12 14.1046 12.8954 15 14 15H14.5C14.7761 15 15 15.2239 15 15.5C15 15.7761 14.7761 16 14.5 16H14C12.3431 16 11 14.6569 11 13H9.5C8.11929 13 7 11.8807 7 10.5C7 9.11929 8.11929 8 9.5 8C10.8807 8 12 9.11929 12 10.5V11.8252C13.1645 11.413 14 10.3057 14 9C14 5.68629 11.3137 3 8 3C4.68629 3 2 5.68629 2 9C2 10.1046 2.89543 11 4 11H5C5.27614 11 5.5 11.2239 5.5 11.5C5.5 11.7761 5.27614 12 5 12H4C2.34315 12 1 10.6569 1 9C1 5.13401 4.13401 2 8 2ZM9.5 9C8.67157 9 8 9.67157 8 10.5C8 11.3284 8.67157 12 9.5 12H11V10.5C11 9.67157 10.3284 9 9.5 9Z" fill="#212121"/>
</svg>
