<svg width="20" height="20" viewBox="0 0 20 20" fill="none" xmlns="http://www.w3.org/2000/svg">
<path d="M10 3C14.4183 3 18 6.58172 18 11C18 13.0502 16.7657 14.8114 15 15.583V16C15 17.1046 15.8954 18 17 18H17.5C17.7761 18 18 18.2239 18 18.5C18 18.7761 17.7761 19 17.5 19H17C15.3431 19 14 17.6569 14 16V15.8994C13.6769 15.965 13.3425 16 13 16H12C10.3431 16 9 14.6569 9 13C9 11.3431 10.3431 10 12 10C13.6569 10 15 11.3431 15 13V14.4629C16.1951 13.7711 17 12.4802 17 11C17 7.13401 13.866 4 10 4C6.13401 4 3 7.13401 3 11V11.5C3 12.8807 4.11929 14 5.5 14H7C7.27614 14 7.5 14.2239 7.5 14.5C7.5 14.7761 7.27614 15 7 15H5.5C3.567 15 2 13.433 2 11.5V11C2 6.58172 5.58172 3 10 3ZM12 11C10.8954 11 10 11.8954 10 13C10 14.1046 10.8954 15 12 15H13C13.3453 15 13.6804 14.9563 14 14.874V13C14 11.8954 13.1046 11 12 11Z" fill="#212121"/>
</svg>
