<svg width="28" height="28" viewBox="0 0 28 28" fill="none" xmlns="http://www.w3.org/2000/svg">
<path d="M14 2C20.6274 2 26 7.37258 26 14C26 20.6274 20.6274 26 14 26C7.37258 26 2 20.6274 2 14C2 7.37258 7.37258 2 14 2Z" fill="url(#paint0_linear_378174_8374)"/>
<path d="M14 8C14.4142 8 14.75 8.33579 14.75 8.75V13.25H19.25C19.6642 13.25 20 13.5858 20 14C20 14.4142 19.6642 14.75 19.25 14.75H14.75V19.25C14.75 19.6642 14.4142 20 14 20C13.5858 20 13.25 19.6642 13.25 19.25V14.75H8.75C8.33579 14.75 8 14.4142 8 14C8 13.5858 8.33579 13.25 8.75 13.25H13.25V8.75C13.25 8.33579 13.5858 8 14 8Z" fill="url(#paint1_linear_378174_8374)"/>
<defs>
<linearGradient id="paint0_linear_378174_8374" x1="2.85714" y1="6.5" x2="19.42" y2="23.7082" gradientUnits="userSpaceOnUse">
<stop stop-color="#52D17C"/>
<stop offset="1" stop-color="#22918B"/>
</linearGradient>
<linearGradient id="paint1_linear_378174_8374" x1="10.25" y1="9.22408" x2="13.932" y2="22.2219" gradientUnits="userSpaceOnUse">
<stop stop-color="white"/>
<stop offset="1" stop-color="#E3FFD9"/>
</linearGradient>
</defs>
</svg>
