<svg width="24" height="24" viewBox="0 0 24 24" fill="none" xmlns="http://www.w3.org/2000/svg">
<path d="M16.25 4.00001C17.2165 4.00001 18 4.78351 18 5.75001V18.25C18 19.0182 17.499 19.6966 16.7648 19.9226C16.0306 20.1486 15.2348 19.8693 14.8029 19.2341L9.5 11.4357L9.5 18.25C9.5 19.2165 8.7165 20 7.75 20C6.7835 20 6 19.2165 6 18.25L6 5.75001C6 4.98181 6.50099 4.30343 7.2352 4.07744C7.96941 3.85146 8.76515 4.13072 9.19712 4.76597L14.5 12.5643V5.75001C14.5 4.78351 15.2835 4.00001 16.25 4.00001Z" fill="#212121"/>
</svg>
