<svg width="48" height="48" viewBox="0 0 48 48" fill="none" xmlns="http://www.w3.org/2000/svg">
<path d="M17.25 12C17.25 8.27208 20.2721 5.25 24 5.25V5.25C27.7279 5.25 30.75 8.27208 30.75 12V32.25C30.75 35.9779 27.7279 39 24 39V39C20.2721 39 17.25 35.9779 17.25 32.25V12Z" stroke="black" stroke-width="2.5"/>
<path d="M9.25 25C9.25 16.8538 15.8538 10.25 24 10.25V10.25C32.1462 10.25 38.75 16.8538 38.75 25V38.75C38.75 40.9591 36.9591 42.75 34.75 42.75H13.25C11.0409 42.75 9.25 40.9591 9.25 38.75V25Z" fill="black" stroke="black" stroke-width="2.5"/>
<path fill-rule="evenodd" clip-rule="evenodd" d="M40 30.5H8V28H40V30.5Z" fill="#EFEFEF"/>
<path d="M17.25 21.1786C17.25 19.0089 19.0089 17.25 21.1786 17.25H26.8214C28.9911 17.25 30.75 19.0089 30.75 21.1786V21.1786C30.75 22.0464 30.0464 22.75 29.1786 22.75H18.8214C17.9536 22.75 17.25 22.0464 17.25 21.1786V21.1786Z" fill="black" stroke="#EFEFEF" stroke-width="2.5"/>
<line x1="17.25" y1="29.25" x2="17.25" y2="33.75" stroke="#EFEFEF" stroke-width="2.5" stroke-linecap="round"/>
</svg>
