<svg width="48" height="48" viewBox="0 0 48 48" fill="none" xmlns="http://www.w3.org/2000/svg">
<path d="M21.1786 18.5C19.6992 18.5 18.5 19.6992 18.5 21.1786C18.5 21.3561 18.6439 21.5 18.8214 21.5H29.1786C29.3561 21.5 29.5 21.3561 29.5 21.1786C29.5 19.6992 28.3008 18.5 26.8214 18.5H21.1786Z" fill="black"/>
<path d="M24 4C19.8817 4 16.4902 7.11186 16.0487 11.1125C11.2394 13.872 8 19.0577 8 25V28H40V25C40 19.0577 36.7606 13.872 31.9513 11.1125C31.5098 7.11186 28.1183 4 24 4ZM24 9C22.2362 9 20.539 9.28541 18.9522 9.81256C19.798 7.86336 21.7398 6.5 24 6.5C26.2602 6.5 28.202 7.86336 29.0478 9.81256C27.461 9.28541 25.7638 9 24 9ZM16 21.1786C16 18.3185 18.3185 16 21.1786 16H26.8214C29.6815 16 32 18.3185 32 21.1786C32 22.7368 30.7368 24 29.1786 24H18.8214C17.2632 24 16 22.7368 16 21.1786Z" fill="black"/>
<path d="M16 30.5V33.75C16 34.4404 16.5596 35 17.25 35C17.9404 35 18.5 34.4404 18.5 33.75V30.5H40V38.75C40 41.6495 37.6495 44 34.75 44H13.25C10.3505 44 8 41.6495 8 38.75V30.5H16Z" fill="black"/>
</svg>
