<svg width="24" height="24" viewBox="0 0 24 24" fill="none" xmlns="http://www.w3.org/2000/svg">
<path d="M5.25586 3C4.01322 3 3.00586 4.00736 3.00586 5.25V18.75C3.00586 19.9926 4.01322 21 5.25586 21H18.7559C19.9985 21 21.0059 19.9926 21.0059 18.75V5.25C21.0059 4.00736 19.9985 3 18.7559 3H5.25586ZM16.2803 9.78034L11.2803 14.7801C10.9874 15.073 10.5126 15.073 10.2197 14.7801L8.21589 12.7763C7.92299 12.4834 7.92299 12.0085 8.21588 11.7157C8.50878 11.4228 8.98365 11.4228 9.27654 11.7157L10.75 13.1891L15.2197 8.71966C15.5126 8.42677 15.9875 8.42678 16.2804 8.71968C16.5732 9.01258 16.5732 9.48746 16.2803 9.78034Z" fill="#212121"/>
</svg>
