<svg width="20" height="20" viewBox="0 0 20 20" fill="none" xmlns="http://www.w3.org/2000/svg">
<path d="M2.14648 2.14648C2.34175 1.95122 2.65825 1.95122 2.85352 2.14648L17.8535 17.1465C18.0486 17.3418 18.0487 17.6583 17.8535 17.8535C17.6583 18.0487 17.3418 18.0486 17.1465 17.8535L16.4512 17.1582C15.7739 17.6847 14.9243 18 14 18H7.5C6.29052 18 5.28144 17.1411 5.0498 16H6.08496C6.29088 16.5826 6.84689 17 7.5 17H14C14.6477 17 15.2451 16.7915 15.7354 16.4424L13.8779 14.585C13.4828 14.8467 13.0095 15 12.5 15H4.5C3.11929 15 2 13.8807 2 12.5V4.5C2 3.99041 2.1522 3.51628 2.41406 3.12109L2.14648 2.85352C1.95122 2.65825 1.95122 2.34175 2.14648 2.14648ZM16 5.0498C17.141 5.2815 18 6.29058 18 7.5V14C18 14.5542 17.8863 15.0817 17.6826 15.5615L16.8945 14.7734C16.9604 14.5263 17 14.2678 17 14V7.5C17 6.84692 16.5826 6.29089 16 6.08496V5.0498ZM3 6V12.5C3 13.3284 3.67157 14 4.5 14H12.5C12.7312 14 12.949 13.945 13.1445 13.8516L5.29297 6H3ZM12.5 2C13.8807 2 15 3.11929 15 4.5V12.5C15 12.6192 14.9878 12.7359 14.9717 12.8506L14 11.8789V6H8.12109L4.14844 2.02734C4.26343 2.01114 4.38054 2 4.5 2H12.5Z" fill="#212121"/>
</svg>
