<svg width="32" height="32" viewBox="0 0 32 32" fill="none" xmlns="http://www.w3.org/2000/svg">
<path d="M6.5 2C4.01472 2 2 4.01472 2 6.5V19C2 21.4853 4.01472 23.5 6.5 23.5H13C13.5523 23.5 14 23.0523 14 22.5L14 14H22.5C23.0523 14 23.5 13.5523 23.5 13V6.5C23.5 4.01472 21.4853 2 19 2H6.5ZM12 14L12 21.5H6.5C5.11929 21.5 4 20.3807 4 19V14H12ZM12 12H4V6.5C4 5.11929 5.11929 4 6.5 4H12L12 12ZM14 12L14 4H19C20.3807 4 21.5 5.11929 21.5 6.5V12H14ZM16 19C16 17.3431 17.3431 16 19 16H27C28.6569 16 30 17.3431 30 19V27C30 28.6569 28.6569 30 27 30H19C17.3431 30 16 28.6569 16 27V19Z" fill="#212121"/>
</svg>
