<svg width="20" height="20" viewBox="0 0 20 20" fill="none" xmlns="http://www.w3.org/2000/svg">
<path d="M12 2V6.5C12 7.32843 12.6716 8 13.5 8H18V16.5C18 17.3284 17.3284 18 16.5 18H9.45051L11.8773 15.5732C13.381 14.0695 13.381 11.6315 11.8773 10.1278C10.5517 8.80223 8.50013 8.64518 7.00253 9.65664C6.68875 9.44472 6.35065 9.28409 6 9.17476V3.5C6 2.67157 6.67157 2 7.5 2H12ZM13 2.25V6.5C13 6.77614 13.2239 7 13.5 7H17.75L13 2.25ZM7.13649 10.8349C8.24969 9.7217 10.0545 9.7217 11.1677 10.8349C11.7624 11.4295 12.0394 12.2215 11.9987 13H10.1213L9.56067 12.4393C9.25319 12.1319 8.82741 11.9729 8.39367 12.0038C7.95993 12.0346 7.5609 12.2521 7.3 12.6L7.13849 12.8153L6.78624 12.2283C6.52169 11.7873 6.04973 11.5127 5.53568 11.5004C5.02163 11.4882 4.53714 11.7401 4.25192 12.168L3.69723 13H2.00146C1.96083 12.2215 2.23782 11.4295 2.83245 10.8349C3.94565 9.7217 5.7505 9.7217 6.86369 10.8349L7.00009 10.9713L7.13649 10.8349ZM3.96633 16L6.64652 18.6802C6.84178 18.8755 7.15836 18.8755 7.35362 18.6802L10.0338 16H9.5L9.49506 16H8.5L8.2 16.4C7.90034 16.7995 7.42149 17.0237 6.92272 16.998C6.42396 16.9723 5.97071 16.7 5.71376 16.2717L5.55071 16H4.50494L4.5 16H3.96633ZM5.92875 12.7428C5.84056 12.5958 5.68324 12.5042 5.51189 12.5001C5.34054 12.4961 5.17905 12.58 5.08397 12.7227L4.23241 14L3 14C2.72386 14 2.5 14.2239 2.5 14.5C2.5 14.7761 2.72385 15 3 15L4.5 15C4.66718 15 4.82329 14.9165 4.91603 14.7774L5.47776 13.9348L6.57125 15.7572C6.6569 15.9 6.80799 15.9908 6.97424 15.9993C7.1405 16.0079 7.30011 15.9332 7.4 15.8L8.5541 14.2612L9.14645 14.8536C9.24021 14.9473 9.36739 15 9.5 15L11 15C11.2761 15 11.5 14.7761 11.5 14.5C11.5 14.2239 11.2761 14 11 14L9.70711 14L8.85355 13.1464C8.75106 13.044 8.60914 12.991 8.46456 13.0013C8.31997 13.0115 8.18697 13.084 8.1 13.2L7.04616 14.6051L5.92875 12.7428Z" fill="#212121"/>
</svg>
