<?xml version="1.0" encoding="UTF-8"?>
<svg width="48px" height="48px" viewBox="0 0 48 48" version="1.1" xmlns="http://www.w3.org/2000/svg" xmlns:xlink="http://www.w3.org/1999/xlink">
    <!-- Generator: Sketch 59.1 (86144) - https://sketch.com -->
    <title>ic_weather_rain_showers_night_48_filled</title>
    <desc>Created with Sketch.</desc>
    <g id="ðŸ”-Product-Icons" stroke="none" stroke-width="1" fill="none" fill-rule="evenodd">
        <g id="ic_weather_rain_showers_night_48_filled" fill="#212121" fill-rule="nonzero">
            <path d="M26.0011082,12 C32.3381703,12 35.9330779,16.1945808 36.4559068,21.2602528 L36.6158392,21.2602476 C40.6939986,21.2602476 44,24.5576953 44,28.6253032 C44,32.6929111 40.6939986,35.9903588 36.6158392,35.9903588 L34.8929253,35.9912055 C34.8810631,36.022647 34.868076,36.0538619 34.8539502,36.0847985 L34.7876669,36.2133378 L31.2876669,42.2755156 C30.8734533,42.9929546 29.9560677,43.2387673 29.2386288,42.8245537 C28.5633921,42.4347057 28.3059282,41.5991412 28.6233073,40.904055 L28.6895907,40.7755156 L31.452,35.99 L27.1565128,35.9912055 L27.1175378,36.0847985 L27.1175378,36.0847985 L27.0512544,36.2133378 L23.5512544,42.2755156 C23.1370409,42.9929546 22.2196553,43.2387673 21.5022163,42.8245537 C20.8269797,42.4347057 20.5695157,41.5991412 20.8868948,40.904055 L20.9531782,40.7755156 L23.716,35.99 L19.4201004,35.9912055 L19.3811254,36.0847985 L19.3811254,36.0847985 L19.314842,36.2133378 L15.814842,42.2755156 C15.4006284,42.9929546 14.4832428,43.2387673 13.7658039,42.8245537 C13.0905672,42.4347057 12.8331033,41.5991412 13.1504824,40.904055 L13.2167658,40.7755156 L15.979,35.99 L15.3863771,35.9903588 C11.3082177,35.9903588 8.00221632,32.6929111 8.00221632,28.6253032 C8.00221632,24.5576953 11.3082177,21.2602476 15.3864221,21.2602476 L15.5463095,21.2602528 C16.0721799,16.1612855 19.664046,12 26.0011082,12 Z M13.1779282,4.0022343 C14.7679791,4.08753742 16.3119166,4.5457712 17.7041002,5.34955183 C19.8142756,6.56786335 21.321747,8.4292038 22.1219035,10.5431601 C18.1057461,11.6869784 15.2446572,14.6258984 14.0950428,18.5916137 L14.0032153,18.9244503 L13.8876819,19.4001055 L13.4750314,19.4770233 C11.1839655,19.9579001 9.19806583,21.279971 7.85856596,23.1089615 L7.54970577,22.9373947 L7.54970577,22.9373947 C6.23466925,22.1780714 5.1183289,21.1471177 4.2654475,19.9086885 C3.70646864,19.0968478 4.06810311,17.9756219 4.99616015,17.6435152 C8.2809958,16.4678311 10.0508447,15.1447438 11.063059,13.2123898 C12.1685479,11.1022216 12.3727655,8.86425728 11.6388216,5.8575041 C11.400197,4.87950344 12.1726994,3.9482991 13.1779282,4.0022343 Z" id="ðŸŽ¨-Color"></path>
        </g>
    </g>
</svg>