<svg width="20" height="20" viewBox="0 0 20 20" fill="none" xmlns="http://www.w3.org/2000/svg">
<path d="M18 10C18 5.58172 14.4183 2 10 2C5.58172 2 2 5.58172 2 10L2.00738 10.3463L2.03275 10.7283C2.12433 11.7422 2.4066 12.7186 2.86169 13.6153L2.925 13.735L2.01493 17.3787L2.00114 17.4624L2.00131 17.5438C2.02622 17.8369 2.31127 18.0625 2.62109 17.9851L6.266 17.075L6.38669 17.1393C7.49591 17.7018 8.72679 18 10 18C10.3387 18 10.6724 17.979 11 17.9381V14C11 13.0681 11.6374 12.285 12.5 12.063V12C12.5 10.3431 13.8431 9 15.5 9C16.5391 9 17.4549 9.52834 17.9933 10.331C17.9977 10.2212 18 10.1109 18 10ZM13.5 12V13H13C12.4477 13 12 13.4477 12 14V18C12 18.5523 12.4477 19 13 19H18C18.5523 19 19 18.5523 19 18V14C19 13.4477 18.5523 13 18 13H17.5V12C17.5 10.8954 16.6046 10 15.5 10C14.3954 10 13.5 10.8954 13.5 12ZM14.5 13V12C14.5 11.4477 14.9477 11 15.5 11C16.0523 11 16.5 11.4477 16.5 12V13H14.5ZM15.5 15.25C15.9142 15.25 16.25 15.5858 16.25 16C16.25 16.4142 15.9142 16.75 15.5 16.75C15.0858 16.75 14.75 16.4142 14.75 16C14.75 15.5858 15.0858 15.25 15.5 15.25Z" fill="#242424"/>
</svg>
