<svg width="24" height="24" viewBox="0 0 24 24" fill="none" xmlns="http://www.w3.org/2000/svg">
<path d="M11.5 12.25C11.5 11.8358 11.8358 11.5 12.25 11.5C12.6642 11.5 13 11.1642 13 10.75C13 10.3358 12.6642 9.99999 12.25 9.99999C11.0074 9.99999 10 11.0073 10 12.25C10 12.6642 10.3358 13 10.75 13C11.1642 13 11.5 12.6642 11.5 12.25ZM13.5 2C10.3825 2 7.68778 3.82515 6.21453 6.49357C5.97424 6.92882 5.60623 7.30732 5.15906 7.60949C3.24846 8.90055 2 11.179 2 13.75C2 17.6964 4.96668 21 8.75 21C9.07376 21 9.39261 20.9755 9.70494 20.9279C10.5741 20.7957 11.4969 20.9274 12.2716 21.3089C13.1708 21.7516 14.1825 22 15.25 22C18.9779 22 22 18.9779 22 15.25C22 14.8298 21.9615 14.4179 21.8877 14.0178C21.8188 13.645 21.8072 13.2793 21.8641 12.9356C21.9535 12.3963 22 11.8413 22 11.275C22 6.22143 18.2601 2 13.5 2ZM17.25 12.5C17.25 15.1233 15.1234 17.25 12.5 17.25C9.87665 17.25 7.75 15.1233 7.75 12.5C7.75 9.87664 9.87665 7.74999 12.5 7.74999C15.1234 7.74999 17.25 9.87664 17.25 12.5Z" fill="#212121"/>
</svg>
