<svg width="24" height="24" viewBox="0 0 24 24" fill="none" xmlns="http://www.w3.org/2000/svg">
<path d="M19 4.49146C19 5.87217 17.8807 6.99146 16.5 6.99146C16.3246 6.99146 16.1535 6.9734 15.9883 6.93904L14.7085 9.05651C15.5025 9.7875 16 10.8357 16 12L15.9997 12.0474L15.9996 12.0583L17.2959 12.3191C17.7175 11.5339 18.5464 11 19.5 11C20.8807 11 22 12.1193 22 13.5C22 14.8807 20.8807 16 19.5 16C18.2184 16 17.1621 15.0357 17.017 13.793L15.6979 13.5276C15.3532 14.3613 14.7347 15.0529 13.9547 15.4907L14.4498 17.0027L14.4717 17.0024L14.5 17.0022C15.8807 17.0022 17 18.1215 17 19.5022C17 20.8829 15.8807 22.0022 14.5 22.0022C13.1193 22.0022 12 20.8829 12 19.5022C12 18.6717 12.4049 17.9358 13.0281 17.4812L12.5316 15.965C12.3577 15.9881 12.1802 16 12 16C10.679 16 9.50759 15.3597 8.77919 14.3724L6.98453 15.2203C6.99475 15.3121 7 15.4055 7 15.5C7 16.8807 5.88071 18 4.5 18C3.11929 18 2 16.8807 2 15.5C2 14.1193 3.11929 13 4.5 13C5.24768 13 5.9187 13.3282 6.37684 13.8484L8.13113 13.0196C8.04557 12.6941 8 12.3524 8 12C8 11.0323 8.34362 10.1449 8.9155 9.45309L7.92382 8.32377C7.63803 8.43748 7.32632 8.5 7 8.5C5.61929 8.5 4.5 7.38071 4.5 6C4.5 4.61929 5.61929 3.5 7 3.5C8.38071 3.5 9.5 4.61929 9.5 6C9.5 6.50832 9.34829 6.98121 9.08768 7.37586L10.0706 8.49523C10.6427 8.17961 11.3004 8 12 8C12.5055 8 12.9891 8.09376 13.4343 8.26484L14.6794 6.20477C14.2581 5.7573 14 5.15452 14 4.49146C14 3.11074 15.1193 1.99146 16.5 1.99146C17.8807 1.99146 19 3.11074 19 4.49146Z" fill="#212121"/>
</svg>
