<svg width="20" height="20" viewBox="0 0 20 20" fill="none" xmlns="http://www.w3.org/2000/svg">
<path d="M17.1794 2.92592C16.0271 1.71407 14.1027 1.6898 12.9203 2.87219L3.54545 12.2466C3.21763 12.5744 2.99008 12.9889 2.88953 13.4415L2.01191 17.3914C1.97483 17.5583 2.02559 17.7325 2.14649 17.8534C2.26739 17.9743 2.44166 18.025 2.60855 17.9879L6.53494 17.1147C7.00237 17.0108 7.43048 16.7757 7.76907 16.4371L8.20693 15.9993C8.09693 15.6102 8.02866 15.2037 8.00727 14.7847L7.06196 15.73C6.85781 15.9342 6.59969 16.0759 6.31786 16.1386L3.15855 16.8412L3.86572 13.6584C3.92502 13.3915 4.05921 13.147 4.25254 12.9537L13.6274 3.57931C14.4123 2.79441 15.6898 2.81052 16.4547 3.61498C17.1928 4.39127 17.1774 5.6145 16.42 6.37195L13.785 9.00693C14.204 9.02831 14.6105 9.09657 14.9996 9.20658L17.1271 7.07905C18.2681 5.93802 18.2913 4.09534 17.1794 2.92592ZM9 14.5C9 16.9853 11.0147 19 13.5 19C15.9853 19 18 16.9853 18 14.5C18 12.0147 15.9853 10 13.5 10C11.0147 10 9 12.0147 9 14.5ZM15.5 11.5C15.7761 11.5 16 11.7239 16 12V13.5C16 13.7761 15.7761 14 15.5 14H14C13.7239 14 13.5 13.7761 13.5 13.5C13.5 13.2239 13.7239 13 14 13H14.4682C14.4179 12.9722 14.3663 12.9464 14.3135 12.923C14.0682 12.8137 13.8034 12.755 13.535 12.7503C13.2665 12.7456 12.9998 12.795 12.7508 12.8956C12.5018 12.9962 12.2756 13.1459 12.0857 13.3358C11.8905 13.531 11.5739 13.531 11.3786 13.3358C11.1834 13.1405 11.1834 12.8239 11.3786 12.6287C11.6635 12.3439 12.0027 12.1193 12.3762 11.9684C12.7497 11.8175 13.1497 11.7434 13.5524 11.7505C13.9552 11.7575 14.3524 11.8456 14.7203 12.0094C14.8162 12.0521 14.9095 12.0997 15 12.1519V12C15 11.7239 15.2239 11.5 15.5 11.5ZM14.6238 17.0316C14.2503 17.1825 13.8503 17.2566 13.4476 17.2495C13.0448 17.2425 12.6476 17.1544 12.2797 16.9906C12.1838 16.9479 12.0905 16.9003 12 16.8481V17C12 17.2761 11.7761 17.5 11.5 17.5C11.2239 17.5 11 17.2761 11 17V15.5C11 15.2239 11.2239 15 11.5 15H13C13.2761 15 13.5 15.2239 13.5 15.5C13.5 15.7761 13.2761 16 13 16H12.5318C12.5821 16.0278 12.6337 16.0536 12.6865 16.077C12.9318 16.1863 13.1966 16.245 13.465 16.2497C13.7335 16.2544 14.0002 16.205 14.2492 16.1044C14.4982 16.0038 14.7244 15.8541 14.9143 15.6642C15.1095 15.469 15.4261 15.469 15.6214 15.6642C15.8166 15.8595 15.8166 16.1761 15.6214 16.3713C15.3365 16.6561 14.9973 16.8807 14.6238 17.0316Z" fill="#212121"/>
</svg>
