<svg width="48" height="48" viewBox="0 0 48 48" fill="none" xmlns="http://www.w3.org/2000/svg">
<path d="M4 13.25C4 9.79822 6.79822 7 10.25 7H37.75C41.2018 7 44 9.79822 44 13.25V25.6191C43.2476 24.8971 42.4086 24.2647 41.5 23.7392V13.25C41.5 11.1789 39.8211 9.5 37.75 9.5H18.25L18.25 38.5H22.4766C22.7203 39.3739 23.053 40.2107 23.4644 41H10.25C6.79822 41 4 38.2018 4 34.75V13.25ZM46 35C46 41.0751 41.0751 46 35 46C28.9249 46 24 41.0751 24 35C24 28.9249 28.9249 24 35 24C41.0751 24 46 28.9249 46 35ZM36 28C36 27.4477 35.5523 27 35 27C34.4477 27 34 27.4477 34 28V34H28C27.4477 34 27 34.4477 27 35C27 35.5523 27.4477 36 28 36H34V42C34 42.5523 34.4477 43 35 43C35.5523 43 36 42.5523 36 42V36H42C42.5523 36 43 35.5523 43 35C43 34.4477 42.5523 34 42 34H36V28Z" fill="#212121"/>
</svg>
