<svg width="28" height="28" viewBox="0 0 28 28" fill="none" xmlns="http://www.w3.org/2000/svg">
<path d="M2.00391 7.75C2.00391 5.67893 3.68284 4 5.75391 4H22.2505C24.3216 4 26.0005 5.67893 26.0005 7.75V15.4015C25.5577 14.924 25.0536 14.5043 24.5005 14.1549V7.75C24.5005 6.50736 23.4932 5.5 22.2505 5.5H10.5L10.5 21.5001H13.0661C13.1352 22.0187 13.2573 22.5206 13.4268 23.0001H5.75391C3.68284 23.0001 2.00391 21.3211 2.00391 19.2501V7.75ZM27 20.5C27 24.0899 24.0899 27 20.5 27C16.9101 27 14 24.0899 14 20.5C14 16.9101 16.9101 14 20.5 14C24.0899 14 27 16.9101 27 20.5ZM21 16.5C21 16.2239 20.7761 16 20.5 16C20.2239 16 20 16.2239 20 16.5V20H16.5C16.2239 20 16 20.2239 16 20.5C16 20.7761 16.2239 21 16.5 21H20V24.5C20 24.7761 20.2239 25 20.5 25C20.7761 25 21 24.7761 21 24.5V21H24.5C24.7761 21 25 20.7761 25 20.5C25 20.2239 24.7761 20 24.5 20H21V16.5Z" fill="#212121"/>
</svg>
