<svg width="28" height="28" viewBox="0 0 28 28" fill="none" xmlns="http://www.w3.org/2000/svg">
<path d="M2 14C2 7.37258 7.37258 2 14 2C20.6274 2 26 7.37258 26 14C26 20.6274 20.6274 26 14 26C7.37258 26 2 20.6274 2 14ZM14 3.5C8.20101 3.5 3.5 8.20101 3.5 14C3.5 19.799 8.20101 24.5 14 24.5C19.799 24.5 24.5 19.799 24.5 14C24.5 8.20101 19.799 3.5 14 3.5ZM14 11.5C14.4142 11.5 14.75 11.8358 14.75 12.25V19.25C14.75 19.6642 14.4142 20 14 20C13.5858 20 13.25 19.6642 13.25 19.25V12.25C13.25 11.8358 13.5858 11.5 14 11.5ZM14 10C14.5523 10 15 9.55229 15 9C15 8.44771 14.5523 8 14 8C13.4477 8 13 8.44771 13 9C13 9.55229 13.4477 10 14 10Z" fill="#212121"/>
</svg>
