<?xml version="1.0" encoding="UTF-8"?>
<svg width="28px" height="28px" viewBox="0 0 28 28" version="1.1" xmlns="http://www.w3.org/2000/svg" xmlns:xlink="http://www.w3.org/1999/xlink">
    <!-- Generator: Sketch 64 (93537) - https://sketch.com -->
    <title>ic_fluent_info_28_regular</title>
    <desc>Created with Sketch.</desc>
    <g id="ðŸ”-System-Icons" stroke="none" stroke-width="1" fill="none" fill-rule="evenodd">
        <g id="ic_fluent_info_28_regular" fill="#212121" fill-rule="nonzero">
            <path d="M14,2 C20.6274,2 26,7.37258 26,14 C26,20.6274 20.6274,26 14,26 C7.37258,26 2,20.6274 2,14 C2,7.37258 7.37258,2 14,2 Z M14,3.5 C8.20101,3.5 3.5,8.20101 3.5,14 C3.5,19.799 8.20101,24.5 14,24.5 C19.799,24.5 24.5,19.799 24.5,14 C24.5,8.20101 19.799,3.5 14,3.5 Z M14,11 C14.3796833,11 14.6934889,11.2821653 14.7431531,11.6482323 L14.75,11.75 L14.75,19.25 C14.75,19.6642 14.4142,20 14,20 C13.6203167,20 13.3065111,19.7178347 13.2568469,19.3517677 L13.25,19.25 L13.25,11.75 C13.25,11.3358 13.5858,11 14,11 Z M14,7 C14.5523,7 15,7.44772 15,8 C15,8.55228 14.5523,9 14,9 C13.4477,9 13,8.55228 13,8 C13,7.44772 13.4477,7 14,7 Z" id="ðŸŽ¨-Color"></path>
        </g>
    </g>
</svg>