<svg width="24" height="24" viewBox="0 0 24 24" fill="none" xmlns="http://www.w3.org/2000/svg">
<path d="M3.28034 2.21968C2.98745 1.92678 2.51257 1.92677 2.21968 2.21966C1.92678 2.51255 1.92677 2.98743 2.21966 3.28032L3.93931 5H3C2.44772 5 2 5.44772 2 6C2 6.55228 2.44772 7 3 7H5.93926L9.93918 11H3C2.44772 11 2 11.4477 2 12C2 12.5523 2.44772 13 3 13H11.9391L14.2624 15.3233L12.2929 17.2929C11.9024 17.6834 11.9024 18.3166 12.2929 18.7071L14.2929 20.7071C14.6834 21.0976 15.3166 21.0976 15.7071 20.7071C16.0976 20.3166 16.0976 19.6834 15.7071 19.2929L15.4142 19H17.939L20.7194 21.7805C21.0123 22.0734 21.4872 22.0734 21.7801 21.7805C22.073 21.4876 22.073 21.0127 21.7801 20.7198L3.28034 2.21968ZM14.1814 11H19C21.2091 11 23 12.7909 23 15C23 16.3134 22.367 17.4789 21.3895 18.2082L19.9446 16.7633C20.5728 16.4261 21 15.7629 21 15C21 13.8954 20.1046 13 19 13H16.1814L14.1814 11ZM10.1815 7L8.18156 5H21C21.5523 5 22 5.44772 22 6C22 6.55228 21.5523 7 21 7H10.1815ZM2 18C2 17.4477 2.44772 17 3 17H9C9.55228 17 10 17.4477 10 18C10 18.5523 9.55228 19 9 19H3C2.44772 19 2 18.5523 2 18Z" fill="#212121"/>
</svg>
