<svg width="16" height="16" viewBox="0 0 16 16" fill="none" xmlns="http://www.w3.org/2000/svg">
<path d="M3 4C3 3.17157 3.67157 2.5 4.5 2.5H12.5C13.3284 2.5 14 3.17157 14 4V9C14 9.82843 13.3284 10.5 12.5 10.5H8.5V6.5C8.5 5.11929 7.38071 4 6 4H3.5C3.32735 4 3.15981 4.02188 3 4.06301V4Z" fill="#212121"/>
<path d="M14.5 12.5H8.5V11.5H14.5C14.7761 11.5 15 11.7239 15 12C15 12.2761 14.7761 12.5 14.5 12.5Z" fill="#212121"/>
<path d="M3 5C2.17157 5 1.5 5.67157 1.5 6.5V12.5C1.5 13.3284 2.17157 14 3 14H6C6.82843 14 7.5 13.3284 7.5 12.5V6.5C7.5 5.67157 6.82843 5 6 5H3ZM4.5 12.5C4.22386 12.5 4 12.2761 4 12C4 11.7239 4.22386 11.5 4.5 11.5C4.77614 11.5 5 11.7239 5 12C5 12.2761 4.77614 12.5 4.5 12.5Z" fill="#212121"/>
</svg>
