<svg width="24" height="24" viewBox="0 0 24 24" fill="none" xmlns="http://www.w3.org/2000/svg">
<path d="M8.25444 8.00315C9.22093 8.00315 10.0044 8.78665 10.0044 9.75315V19.2533C10.0044 20.2198 9.22093 21.0033 8.25444 21.0033H3.75C2.7835 21.0033 2 20.2198 2 19.2533V9.75315C2 8.78665 2.7835 8.00315 3.75 8.00315H8.25444ZM8.25444 9.50315H3.75C3.61193 9.50315 3.5 9.61508 3.5 9.75315V19.2533C3.5 19.3914 3.61193 19.5033 3.75 19.5033H8.25444C8.39251 19.5033 8.50444 19.3914 8.50444 19.2533V9.75315C8.50444 9.61508 8.39251 9.50315 8.25444 9.50315ZM6.25222 17.0001C6.66643 17.0001 7.00222 17.3359 7.00222 17.7501C7.00222 18.1298 6.72006 18.4436 6.35399 18.4933L6.25222 18.5001H5.75222C5.338 18.5001 5.00222 18.1644 5.00222 17.7501C5.00222 17.3704 5.28437 17.0567 5.65045 17.007L5.75222 17.0001H6.25222ZM21.2494 16.5C21.6636 16.5 21.9994 16.8358 21.9994 17.25C21.9994 17.6297 21.7172 17.9435 21.3511 17.9931L21.2494 18L11 17.9995V16.4995L21.2494 16.5ZM18.25 5.00049C19.2165 5.00049 20 5.78399 20 6.75049V14.2508C20 15.2173 19.2165 16.0008 18.25 16.0008L11 16.0005V14.5005L18.25 14.5008C18.3881 14.5008 18.5 14.3888 18.5 14.2508V6.75049C18.5 6.61242 18.3881 6.50049 18.25 6.50049H5.75C5.61193 6.50049 5.5 6.61242 5.5 6.75049L5.499 6.99949H4V6.75049C4 5.78399 4.7835 5.00049 5.75 5.00049H18.25Z" fill="#212121"/>
</svg>
