<svg width="28" height="28" viewBox="0 0 28 28" fill="none" xmlns="http://www.w3.org/2000/svg">
<path d="M16.9511 2.50293C17.7275 2.50293 18.449 2.90322 18.86 3.56194L20.3811 5.99988H22.75C24.5449 5.99988 26 7.45496 26 9.24988V21.7499C26 23.5448 24.5449 24.9999 22.75 24.9999H5.25C3.45507 24.9999 2 23.5448 2 21.7499V9.24988C2 7.45496 3.45507 5.99988 5.25 5.99988H7.81851L9.20109 3.62199C9.6039 2.92919 10.3448 2.50293 11.1462 2.50293H16.9511ZM14 9.50257C10.9624 9.50257 8.5 11.965 8.5 15.0026C8.5 18.0401 10.9624 20.5026 14 20.5026C17.0376 20.5026 19.5 18.0401 19.5 15.0026C19.5 11.965 17.0376 9.50257 14 9.50257ZM14 11.0026C16.2091 11.0026 18 12.7934 18 15.0026C18 17.2117 16.2091 19.0026 14 19.0026C11.7909 19.0026 10 17.2117 10 15.0026C10 12.7934 11.7909 11.0026 14 11.0026Z" fill="#212121"/>
</svg>
