<svg width="48" height="48" viewBox="0 0 48 48" fill="none" xmlns="http://www.w3.org/2000/svg">
<path d="M8 11C7.44772 11 7 10.5523 7 10C7 9.44772 7.44772 9 8 9C8.55228 9 9 9.44772 9 10C9 10.5523 8.55228 11 8 11ZM8 13.5C9.933 13.5 11.5 11.933 11.5 10C11.5 8.067 9.933 6.5 8 6.5C6.067 6.5 4.5 8.067 4.5 10C4.5 11.933 6.067 13.5 8 13.5ZM22.9988 7C18.6975 7 15.1661 10.4066 15.0009 14.702C14.9744 15.3918 15.5121 15.9725 16.202 15.9991C16.8918 16.0256 17.4725 15.4879 17.4991 14.798C17.6128 11.8422 20.0436 9.5 22.9988 9.5C26.0367 9.5 28.5 11.9627 28.5 15C28.5 18.0376 26.0376 20.5 23 20.5H5.25C4.55964 20.5 4 21.0596 4 21.75C4 22.4404 4.55964 23 5.25 23H23C27.4183 23 31 19.4183 31 15C31 10.5814 27.4168 7 22.9988 7ZM37.987 18.5C35.2263 18.5 32.8045 20.3779 32.1334 23.0624L32.0373 23.4468C31.8699 24.1166 32.2771 24.7952 32.9468 24.9627C33.6166 25.1301 34.2952 24.7229 34.4627 24.0532L34.5588 23.6687C34.9501 22.1034 36.3671 21 37.987 21C39.9244 21 41.5 22.5714 41.5 24.5C41.5 26.433 39.933 28 38 28H5.25C4.55964 28 4 28.5596 4 29.25C4 29.9404 4.55964 30.5 5.25 30.5H30C31.6419 30.5 33 31.8676 33 33.5395C33 35.1682 31.6769 36.5 30.0783 36.5C28.9716 36.5 27.9599 35.8747 27.465 34.8849L27.368 34.691C27.0593 34.0735 26.3085 33.8232 25.691 34.132C25.0735 34.4407 24.8232 35.1915 25.132 35.809L25.2289 36.0029C26.1473 37.8397 28.0247 39 30.0783 39C33.0876 39 35.5 36.5188 35.5 33.5395C35.5 32.4237 35.1665 31.3768 34.5921 30.5H38C41.3137 30.5 44 27.8137 44 24.5C44 21.1818 41.2963 18.5 37.987 18.5ZM19 39C19 38.4477 18.5523 38 18 38C17.4477 38 17 38.4477 17 39C17 39.5523 17.4477 40 18 40C18.5523 40 19 39.5523 19 39ZM21.5 39C21.5 40.933 19.933 42.5 18 42.5C16.067 42.5 14.5 40.933 14.5 39C14.5 37.067 16.067 35.5 18 35.5C19.933 35.5 21.5 37.067 21.5 39ZM40 12C40 11.4477 39.5523 11 39 11C38.4477 11 38 11.4477 38 12C38 12.5523 38.4477 13 39 13C39.5523 13 40 12.5523 40 12ZM42.5 12C42.5 13.933 40.933 15.5 39 15.5C37.067 15.5 35.5 13.933 35.5 12C35.5 10.067 37.067 8.5 39 8.5C40.933 8.5 42.5 10.067 42.5 12Z" fill="#212121"/>
</svg>
