<svg width="48" height="48" viewBox="0 0 48 48" fill="none" xmlns="http://www.w3.org/2000/svg">
<path d="M24 4C24.8284 4 25.5 4.67157 25.5 5.5V42.5C25.5 43.3284 24.8284 44 24 44C23.1716 44 22.5 43.3284 22.5 42.5V5.5C22.5 4.67157 23.1716 4 24 4ZM15.5 11C16.3284 11 17 11.6716 17 12.5V35.5C17 36.3284 16.3284 37 15.5 37C14.6716 37 14 36.3284 14 35.5V12.5C14 11.6716 14.6716 11 15.5 11ZM32.5 11C33.3284 11 34 11.6716 34 12.5V35.5C34 36.3284 33.3284 37 32.5 37C31.6716 37 31 36.3284 31 35.5V12.5C31 11.6716 31.6716 11 32.5 11ZM7.5 18C8.32843 18 9 18.6716 9 19.5V28.5C9 29.3284 8.32843 30 7.5 30C6.67157 30 6 29.3284 6 28.5V19.5C6 18.6716 6.67157 18 7.5 18ZM40.5 18C41.3284 18 42 18.6716 42 19.5V28.5C42 29.3284 41.3284 30 40.5 30C39.6716 30 39 29.3284 39 28.5V19.5C39 18.6716 39.6716 18 40.5 18Z" fill="#212121"/>
</svg>
