<svg width="16" height="16" viewBox="0 0 16 16" fill="none" xmlns="http://www.w3.org/2000/svg">
<path d="M8.82032 8.03323C9.07801 7.93412 9.36763 8.06269 9.4668 8.32034C9.56589 8.57802 9.43733 8.86765 9.17969 8.96682L7 9.80472V12.1944L9.17969 13.0332C9.43733 13.1324 9.56591 13.422 9.4668 13.6797C9.36762 13.9373 9.078 14.0659 8.82032 13.9668L2.32031 11.4668L2.25098 11.4336C2.09743 11.3455 2.00001 11.1809 2 11C2 10.7932 2.1273 10.6075 2.32031 10.5332L8.82032 8.03323ZM11.1465 2.14651C11.3418 1.95125 11.6583 1.95125 11.8535 2.14651L13.8535 4.14651C14.0488 4.34177 14.0488 4.65828 13.8535 4.85354C13.6583 5.04878 13.3418 5.04878 13.1465 4.85354L12 3.70706V13.5C12 13.7762 11.7761 14 11.5 14C11.2239 14 11 13.7762 11 13.5V3.70706L9.85352 4.85354C9.65827 5.04878 9.34175 5.04878 9.14649 4.85354C8.95123 4.65828 8.95125 4.34177 9.14649 4.14651L11.1465 2.14651ZM3.89258 11L6 11.8096V10.1895L3.89258 11ZM5.14649 2.14651C5.34175 1.95125 5.65826 1.95125 5.85352 2.14651L7.85352 4.14651C8.04876 4.34177 8.04878 4.65828 7.85352 4.85354C7.65826 5.04878 7.34175 5.04878 7.14649 4.85354L6 3.70706V7.50003C5.99998 7.77615 5.77613 8.00003 5.5 8.00003C5.22387 8.00003 5.00002 7.77615 5 7.50003V3.70706L3.85352 4.85354C3.65826 5.04878 3.34174 5.04878 3.14649 4.85354C2.95123 4.65828 2.95124 4.34177 3.14649 4.14651L5.14649 2.14651Z" fill="#212121"/>
</svg>
