<svg width="48" height="48" viewBox="0 0 48 48" fill="none" xmlns="http://www.w3.org/2000/svg">
<path d="M41 21C41 23.8841 40.2818 26.6004 39.0145 28.9799C38.9212 29.1551 38.8249 29.3285 38.7257 29.5C38.2738 30.2813 37.7614 31.0232 37.1951 31.7195C37.1241 31.8068 37.0522 31.8934 36.9795 31.9792L36.9788 31.9801L36.9619 32H37L26.9115 42.7093C25.3324 44.3856 22.6675 44.3856 21.0884 42.7093L11 32H11.0381L11.0209 31.9798L11 31.955C10.3855 31.2266 9.83118 30.4458 9.34458 29.6204C9.32099 29.5803 9.29757 29.5402 9.2743 29.5C7.82785 26.9995 7 24.0964 7 21C7 11.6112 14.6112 4 24 4C33.3888 4 41 11.6112 41 21ZM32.6339 15.3839C33.122 14.8957 33.122 14.1043 32.6339 13.6161C32.1457 13.128 31.3543 13.128 30.8661 13.6161L20.75 23.7322L17.1339 20.1161C16.6457 19.628 15.8543 19.628 15.3661 20.1161C14.878 20.6043 14.878 21.3957 15.3661 21.8839L19.8661 26.3839C20.3543 26.872 21.1457 26.872 21.6339 26.3839L32.6339 15.3839Z" fill="#212121"/>
<path d="M41 21C41 23.8841 40.2818 26.6004 39.0145 28.9799C38.9212 29.1551 38.8249 29.3285 38.7257 29.5C38.2738 30.2813 37.7614 31.0232 37.1951 31.7195C37.1241 31.8068 37.0522 31.8934 36.9795 31.9792L36.9788 31.9801L36.9619 32H37L26.9115 42.7093C25.3324 44.3856 22.6675 44.3856 21.0884 42.7093L11 32H11.0381L11.0209 31.9798L11 31.955C10.3855 31.2266 9.83118 30.4458 9.34458 29.6204C9.32099 29.5803 9.29757 29.5402 9.2743 29.5C7.82785 26.9995 7 24.0964 7 21C7 11.6112 14.6112 4 24 4C33.3888 4 41 11.6112 41 21ZM32.6339 15.3839C33.122 14.8957 33.122 14.1043 32.6339 13.6161C32.1457 13.128 31.3543 13.128 30.8661 13.6161L20.75 23.7322L17.1339 20.1161C16.6457 19.628 15.8543 19.628 15.3661 20.1161C14.878 20.6043 14.878 21.3957 15.3661 21.8839L19.8661 26.3839C20.3543 26.872 21.1457 26.872 21.6339 26.3839L32.6339 15.3839Z" fill="#242424"/>
</svg>
