<?xml version="1.0" encoding="UTF-8"?>
<svg width="24px" height="24px" viewBox="0 0 24 24" version="1.1" xmlns="http://www.w3.org/2000/svg" xmlns:xlink="http://www.w3.org/1999/xlink">
    <!-- Generator: Sketch 59.1 (86144) - https://sketch.com -->
    <title>ic_arrow_down_left_24_filled</title>
    <desc>Created with Sketch.</desc>
    <g id="ðŸ”-Product-Icons" stroke="none" stroke-width="1" fill="none" fill-rule="evenodd">
        <g id="ic_arrow_down_left_24_filled" fill="#212121">
            <path d="M19.2911669,3.29434939 C19.6817002,2.90383404 20.3148651,2.90384852 20.7053805,3.29438174 C21.0958959,3.68491497 21.0958814,4.31807995 20.7053482,4.70859531 L20.7053482,4.70859531 L6.41299798,18.9994723 L11.5005248,19 C12.0133606,19 12.4360319,19.3860402 12.493797,19.8833789 L12.5005248,20 C12.5005248,20.5522847 12.0528095,21 11.5005248,21 L11.5005248,21 L3.99899798,21 C3.98787136,21 3.97678719,20.9998183 3.96574826,20.9994576 C3.94870876,20.9989041 3.93070966,20.997842 3.91274439,20.996296 C3.8890631,20.9942899 3.86641332,20.9915477 3.84400965,20.9880617 C3.8317505,20.9860801 3.81902461,20.9838487 3.80633749,20.98137 C3.78007971,20.9763267 3.75440322,20.9702283 3.72913084,20.9631621 C3.71589118,20.9593827 3.70284686,20.9554497 3.68987149,20.9512446 C3.66670541,20.9437919 3.64356648,20.9353159 3.62084558,20.926028 C3.6055882,20.9197979 3.59060434,20.9132498 3.5757557,20.906317 C3.56063582,20.8992089 3.54558281,20.8916975 3.53075159,20.8838236 C3.51087891,20.8733613 3.49132712,20.8621318 3.47209268,20.8501882 C3.45141829,20.8372583 3.43083008,20.8233955 3.41080436,20.808807 C3.36905997,20.7784482 3.32935022,20.7445675 3.29187502,20.7070906 L3.38224789,20.787214 C3.32043438,20.7387178 3.26447546,20.6830986 3.21560716,20.6215925 C3.2049341,20.6082463 3.1950073,20.5950948 3.18544807,20.581761 C3.17126504,20.5618533 3.15742496,20.5409505 3.14436844,20.5195178 C3.13789753,20.5090589 3.13170389,20.4984485 3.12572202,20.4877515 C3.11403172,20.4667113 3.1029931,20.4452036 3.09272786,20.4232619 C3.0839613,20.4045741 3.07579445,20.385551 3.06824491,20.3663413 C3.06187864,20.3502364 3.05580813,20.3335527 3.05017568,20.3166686 C3.04413214,20.2983171 3.03871705,20.2803329 3.03381876,20.262238 C3.0283215,20.2423102 3.02338702,20.2215439 3.01911102,20.2005383 C3.01580611,20.1838748 3.01284687,20.167186 3.01031315,20.1504451 C3.00282663,20.1012503 2.99899798,20.0510723 2.99899798,20 L3.00296234,20.0892273 C3.00091111,20.0661929 2.99965588,20.0431009 2.99919667,20.0199961 L2.99899798,20 L2.99899798,12.4961095 C2.99899798,11.9438248 3.44671323,11.4961095 3.99899798,11.4961095 C4.55128273,11.4961095 4.99899798,11.9438248 4.99899798,12.4961095 L4.99899798,12.4961095 L4.99899798,17.5844723 Z" id="ðŸŽ¨-Color"></path>
        </g>
    </g>
</svg>