<svg width="20" height="20" viewBox="0 0 20 20" fill="none" xmlns="http://www.w3.org/2000/svg">
<path d="M6.11133 17.1113C8.25921 14.9635 11.7418 14.9635 13.8896 17.1113C14.0848 17.3065 14.0847 17.6231 13.8896 17.8184C13.6944 18.0136 13.3779 18.0135 13.1826 17.8184C11.4253 16.061 8.57572 16.061 6.81836 17.8184C6.6231 18.0136 6.30659 18.0136 6.11133 17.8184C5.9161 17.6231 5.91608 17.3066 6.11133 17.1113ZM4.3418 15.3428C7.46596 12.2187 12.5311 12.2187 15.6553 15.3428C15.8505 15.538 15.8505 15.8545 15.6553 16.0498C15.46 16.245 15.1435 16.245 14.9482 16.0498C12.2146 13.3163 7.78246 13.3162 5.04883 16.0498C4.85357 16.2451 4.53706 16.2451 4.3418 16.0498C4.14657 15.8545 4.14655 15.538 4.3418 15.3428ZM10 2C11.8401 2 13.5286 2.28614 14.7754 2.76562C15.3971 3.00473 15.9345 3.302 16.3252 3.65723C16.6672 3.96826 16.9277 4.35398 16.9873 4.80371L17 5V8C17 8.5345 16.716 8.98737 16.3252 9.34277C15.9345 9.69801 15.3971 9.99526 14.7754 10.2344C13.5286 10.7139 11.8401 11 10 11C8.15986 11 6.47141 10.7139 5.22461 10.2344C4.60292 9.99526 4.06549 9.69801 3.6748 9.34277C3.28398 8.98737 3 8.5345 3 8V5L3.0127 4.80371C3.07233 4.35398 3.33276 3.96826 3.6748 3.65723C4.06549 3.302 4.60293 3.00473 5.22461 2.76562C6.47141 2.28614 8.15988 2 10 2ZM10 6C8.25041 6 6.68872 6.27395 5.58301 6.69922C5.02898 6.91234 4.61475 7.15376 4.34766 7.39648C4.0807 7.63923 4.00003 7.84417 4 8C4 8.15583 4.08069 8.36074 4.34766 8.60352C4.61475 8.84625 5.02896 9.08765 5.58301 9.30078C6.68872 9.72606 8.2504 10 10 10C11.7496 10 13.3113 9.72606 14.417 9.30078C14.971 9.08765 15.3853 8.84625 15.6523 8.60352C15.9193 8.36074 16 8.15583 16 8C16 7.84417 15.9193 7.63923 15.6523 7.39648C15.3852 7.15376 14.971 6.91234 14.417 6.69922C13.3113 6.27395 11.7496 6 10 6ZM10 3C8.25041 3 6.68872 3.27395 5.58301 3.69922C5.02898 3.91234 4.61475 4.15376 4.34766 4.39648C4.11398 4.60897 4.02297 4.7925 4.00391 4.93945L4 6.39746C4.344 6.15461 4.76096 5.94395 5.22461 5.76562C6.47141 5.28614 8.15988 5 10 5C11.8401 5 13.5286 5.28614 14.7754 5.76562C15.239 5.94395 15.656 6.15461 16 6.39746L15.9961 4.93945C15.977 4.7925 15.886 4.60897 15.6523 4.39648C15.3852 4.15376 14.971 3.91234 14.417 3.69922C13.3113 3.27395 11.7496 3 10 3Z" fill="#212121"/>
</svg>
