<svg width="24" height="24" viewBox="0 0 24 24" fill="none" xmlns="http://www.w3.org/2000/svg">
<path d="M17.5 1C20.5376 1 23 3.46243 23 6.5C23 9.53757 20.5376 12 17.5 12C14.4624 12 12 9.53757 12 6.5C12 3.46243 14.4624 1 17.5 1ZM19.5 6.50006H17.5L17.5 3.99993C17.5 3.72379 17.2761 3.49993 17 3.49993C16.7239 3.49993 16.5 3.72379 16.5 3.99993L16.5 6.99853L16.5 7.00006C16.5 7.2762 16.7239 7.50006 17 7.50006H19.5C19.7761 7.50006 20 7.2762 20 7.00006C20 6.72391 19.7761 6.50006 19.5 6.50006ZM17.5 13C19.2465 13 20.8321 12.3112 22 11.1904V16.75C22 18.483 20.6435 19.8992 18.9344 19.9949L18.75 20H5.25C3.51697 20 2.10075 18.6435 2.00514 16.9344L2 16.75V8.608L11.652 13.6644C11.87 13.7785 12.13 13.7785 12.348 13.6644L14.7649 12.3983C15.5963 12.7844 16.523 13 17.5 13ZM5.25 4H11.4982C11.1772 4.76959 11 5.6141 11 6.5C11 8.49255 11.8966 10.2757 13.3083 11.468L12 12.1533L2.01619 6.92355C2.17386 5.34271 3.46432 4.09545 5.06409 4.00523L5.25 4Z" fill="#212121"/>
</svg>
