<svg width="20" height="20" viewBox="0 0 20 20" fill="none" xmlns="http://www.w3.org/2000/svg">
<path d="M11.4649 2.64303C11.7836 2.70616 12 2.99477 12 3.31974C12 3.81834 11.504 4.16852 11.0124 4.08502C10.6833 4.02911 10.345 4 10 4C9.65499 4 9.31678 4.02912 8.98769 4.08504C8.4961 4.16856 8 3.81837 8 3.31973C8 2.99473 8.21639 2.70609 8.5352 2.64297C9.00894 2.54918 9.49873 2.5 10 2.5C10.5013 2.5 10.9911 2.5492 11.4649 2.64303ZM11.0123 15.915C11.5039 15.8314 12 16.1816 12 16.6803C12 17.0053 11.7836 17.2939 11.4648 17.357C10.9911 17.4508 10.5013 17.5 10 17.5C9.49873 17.5 9.00894 17.4508 8.5352 17.357C8.21639 17.2939 8 17.0053 8 16.6803C8 16.1816 8.4961 15.8314 8.98769 15.915C9.31678 15.9709 9.65499 16 10 16C10.345 16 10.6832 15.9709 11.0123 15.915ZM13 15.6573C13 16.2322 13.5896 16.6119 14.0721 16.2993C14.9624 15.7226 15.7226 14.9624 16.2993 14.0721C16.6119 13.5896 16.2322 13 15.6573 13C15.3726 13 15.1129 13.1542 14.952 13.3889C14.532 14.0014 14.0014 14.532 13.3889 14.952C13.1542 15.1129 13 15.3726 13 15.6573ZM13 4.34266C13 4.62727 13.1541 4.88689 13.3889 5.04783C13.5915 5.18677 13.7852 5.33784 13.9689 5.5H12.75C12.3358 5.5 12 5.83579 12 6.25C12 6.66421 12.3358 7 12.75 7H15.75C16.1642 7 16.5 6.66421 16.5 6.25V3.25C16.5 2.83579 16.1642 2.5 15.75 2.5C15.3358 2.5 15 2.83579 15 3.25V4.40987C14.7101 4.15041 14.3998 3.91313 14.0719 3.70074C13.5895 3.38824 13 3.76785 13 4.34266ZM5.92788 3.7007C6.4104 3.38813 7 3.76782 7 4.34273C7 4.62739 6.84583 4.88706 6.61106 5.04804C5.9986 5.46799 5.46799 5.9986 5.04804 6.61106C4.88706 6.84583 4.62739 7 4.34273 7C3.76782 7 3.38813 6.4104 3.7007 5.92788C4.27737 5.03763 5.03763 4.27737 5.92788 3.7007ZM2.64297 8.5352C2.54918 9.00894 2.5 9.49873 2.5 10C2.5 10.5013 2.54918 10.9911 2.64297 11.4648C2.70609 11.7836 2.99473 12 3.31973 12C3.81836 12 4.16856 11.5039 4.08504 11.0123C4.02912 10.6832 4 10.345 4 10C4 9.65499 4.02912 9.31678 4.08504 8.98769C4.16856 8.4961 3.81836 8 3.31973 8C2.99473 8 2.70609 8.21639 2.64297 8.5352ZM5.92788 16.2993C6.4104 16.6119 7 16.2322 7 15.6573C7 15.3726 6.84583 15.1129 6.61106 14.952C5.9986 14.532 5.46799 14.0014 5.04804 13.3889C4.88706 13.1542 4.62739 13 4.34273 13C3.76782 13 3.38813 13.5896 3.7007 14.0721C4.27737 14.9624 5.03763 15.7226 5.92788 16.2993ZM17.4631 10.7488C17.5039 10.3366 17.1642 10 16.75 10C16.3358 10 16.0049 10.3371 15.9538 10.7481C15.9428 10.8368 15.9298 10.9249 15.915 11.0123C15.8314 11.5039 16.1816 12 16.6803 12C17.0053 12 17.2939 11.7836 17.357 11.4648C17.4035 11.2299 17.4391 10.991 17.4631 10.7488Z" fill="#212121"/>
</svg>
