<svg width="12" height="12" viewBox="0 0 12 12" fill="none" xmlns="http://www.w3.org/2000/svg">
<path d="M5.36973 8.93164C5.5725 8.97616 5.78345 8.99997 5.99961 9C6.21511 8.99996 6.42521 8.97593 6.62754 8.93164C6.87158 8.87831 7.1335 8.96822 7.2584 9.18457C7.41246 9.45163 7.29716 9.7959 6.99863 9.87305C6.6793 9.95555 6.34461 9.99996 5.99961 10C5.65355 9.99996 5.31689 9.95573 4.99668 9.87305C4.6984 9.7957 4.5839 9.45161 4.73789 9.18457C4.86296 8.96768 5.12518 8.87798 5.36973 8.93164ZM9.19687 7C9.53994 7.00017 9.79095 7.32584 9.65 7.63867C9.45355 8.07462 9.18064 8.46857 8.84922 8.80469C8.63368 9.02325 8.27913 8.95135 8.12558 8.68555C8.0013 8.4701 8.05451 8.19922 8.22129 8.01465C8.40318 7.81335 8.55787 7.58714 8.68027 7.3418C8.77961 7.14265 8.97433 7 9.19687 7ZM2.60996 6.5C2.85913 6.5 3.06787 6.68175 3.14414 6.91895C3.27592 7.32939 3.49342 7.70157 3.77598 8.01367C3.94296 8.1981 3.99595 8.46906 3.87168 8.68457C3.71805 8.95082 3.36352 9.02292 3.14805 8.80371C2.67853 8.32596 2.32827 7.73103 2.14512 7.06641C2.06361 6.77062 2.3032 6.50017 2.60996 6.5ZM3.14707 3.19727C3.36251 2.9781 3.71707 3.05018 3.8707 3.31641C3.99503 3.53188 3.9419 3.80283 3.775 3.9873C3.49288 4.29919 3.27581 4.67107 3.14414 5.08105C3.06787 5.31825 2.85912 5.5 2.60996 5.5C2.3032 5.4998 2.06358 5.22937 2.14512 4.93359C2.32817 4.26952 2.6781 3.67479 3.14707 3.19727ZM9.49961 2C9.77575 2 9.99961 2.22386 9.99961 2.5V4.5C9.99961 4.77614 9.77575 5 9.49961 5H7.49961C7.22365 4.99978 6.99961 4.77601 6.99961 4.5C6.99961 4.22399 7.22365 4.00022 7.49961 4H8.23105C7.68267 3.38692 6.88713 3.00014 5.99961 3C5.78315 3.00003 5.57186 3.02379 5.36875 3.06836C5.12417 3.12201 4.8612 3.03224 4.73594 2.81543C4.58192 2.54825 4.69703 2.20401 4.9957 2.12695C5.31638 2.04426 5.65314 2.00004 5.99961 2C7.19465 2.00014 8.26644 2.52546 8.99961 3.35645V2.5C8.99961 2.22399 9.22365 2.00022 9.49961 2Z" fill="#212121"/>
</svg>
