<svg width="32" height="32" viewBox="0 0 32 32" fill="none" xmlns="http://www.w3.org/2000/svg">
<path d="M19.162 3.3874C19.6662 3.51342 20 3.97934 20 4.499C20 5.35183 19.1277 5.93703 18.2953 5.75149C17.5565 5.58682 16.7884 5.5 16 5.5C15.2117 5.5 14.4437 5.58687 13.705 5.75156C12.8725 5.93718 12 5.35192 12 4.49895C12 3.97919 12.3339 3.5132 12.8382 3.3872C13.8503 3.13428 14.9095 3 16 3C17.0906 3 18.1498 3.13438 19.162 3.3874ZM18.295 26.2484C19.1275 26.0628 20 26.6481 20 27.5011C20 28.0208 19.6661 28.4868 19.1618 28.6128C18.1497 28.8657 17.0905 29 16 29C14.9095 29 13.8503 28.8657 12.8382 28.6128C12.3339 28.4868 12 28.0208 12 27.5011C12 26.6481 12.8725 26.0628 13.705 26.2484C14.4437 26.4131 15.2117 26.5 16 26.5C16.7883 26.5 17.5563 26.4131 18.295 26.2484ZM22 25.3192C22 26.3284 23.0659 26.9603 23.8688 26.3489C24.8028 25.6377 25.6377 24.8028 26.3489 23.8688C26.9603 23.0659 26.3284 22 25.3192 22C24.8798 22 24.4727 22.2185 24.1979 22.5614C23.7141 23.1651 23.1651 23.7141 22.5614 24.1979C22.2185 24.4727 22 24.8798 22 25.3192ZM22 6.68067C22 7.11998 22.2185 7.52699 22.5612 7.80174C22.6422 7.86665 22.7223 7.93275 22.8013 8H20.75C20.0596 8 19.5 8.55964 19.5 9.25C19.5 9.94036 20.0596 10.5 20.75 10.5H25.75C26.4404 10.5 27 9.94036 27 9.25V4.25C27 3.55964 26.4404 3 25.75 3C25.0596 3 24.5 3.55964 24.5 4.25V6.16374C24.295 5.98646 24.0844 5.81547 23.8685 5.65107C23.0657 5.03987 22 5.67173 22 6.68067ZM8.13122 5.65107C8.93406 5.03969 10 5.67164 10 6.68077C10 7.12017 9.78148 7.52728 9.4386 7.80207C8.83493 8.28585 8.28585 8.83493 7.80207 9.4386C7.52728 9.78148 7.12017 10 6.68077 10C5.67164 10 5.03969 8.93406 5.65107 8.13122C6.36235 7.19719 7.19719 6.36235 8.13122 5.65107ZM3.3872 12.8382C3.13428 13.8503 3 14.9095 3 16C3 17.0905 3.13428 18.1497 3.3872 19.1618C3.5132 19.6661 3.97919 20 4.49895 20C5.35192 20 5.93718 19.1275 5.75156 18.295C5.58687 17.5563 5.5 16.7883 5.5 16C5.5 15.2117 5.58687 14.4437 5.75156 13.705C5.93718 12.8725 5.35192 12 4.49895 12C3.97919 12 3.5132 12.3339 3.3872 12.8382ZM8.13122 26.3489C8.93405 26.9603 10 26.3284 10 25.3192C10 24.8798 9.78148 24.4727 9.4386 24.1979C8.83493 23.7141 8.28585 23.1651 7.80207 22.5614C7.52728 22.2185 7.12017 22 6.68076 22C5.67164 22 5.03969 23.0659 5.65107 23.8688C6.36235 24.8028 7.19719 25.6377 8.13122 26.3489ZM28.9409 17.2482C29.0063 16.5609 28.4404 16 27.75 16C27.0596 16 26.5078 16.5616 26.4267 17.2472C26.3847 17.6022 26.325 17.9518 26.2484 18.295C26.0628 19.1275 26.6481 20 27.5011 20C28.0208 20 28.4868 19.6661 28.6128 19.1618C28.7681 18.5405 28.8786 17.9014 28.9409 17.2482Z" fill="url(#paint0_linear_72095_11934)"/>
<path d="M19.162 3.3874C19.6662 3.51342 20 3.97934 20 4.499C20 5.35183 19.1277 5.93703 18.2953 5.75149C17.5565 5.58682 16.7884 5.5 16 5.5C15.2117 5.5 14.4437 5.58687 13.705 5.75156C12.8725 5.93718 12 5.35192 12 4.49895C12 3.97919 12.3339 3.5132 12.8382 3.3872C13.8503 3.13428 14.9095 3 16 3C17.0906 3 18.1498 3.13438 19.162 3.3874ZM18.295 26.2484C19.1275 26.0628 20 26.6481 20 27.5011C20 28.0208 19.6661 28.4868 19.1618 28.6128C18.1497 28.8657 17.0905 29 16 29C14.9095 29 13.8503 28.8657 12.8382 28.6128C12.3339 28.4868 12 28.0208 12 27.5011C12 26.6481 12.8725 26.0628 13.705 26.2484C14.4437 26.4131 15.2117 26.5 16 26.5C16.7883 26.5 17.5563 26.4131 18.295 26.2484ZM22 25.3192C22 26.3284 23.0659 26.9603 23.8688 26.3489C24.8028 25.6377 25.6377 24.8028 26.3489 23.8688C26.9603 23.0659 26.3284 22 25.3192 22C24.8798 22 24.4727 22.2185 24.1979 22.5614C23.7141 23.1651 23.1651 23.7141 22.5614 24.1979C22.2185 24.4727 22 24.8798 22 25.3192ZM22 6.68067C22 7.11998 22.2185 7.52699 22.5612 7.80174C22.6422 7.86665 22.7223 7.93275 22.8013 8H20.75C20.0596 8 19.5 8.55964 19.5 9.25C19.5 9.94036 20.0596 10.5 20.75 10.5H25.75C26.4404 10.5 27 9.94036 27 9.25V4.25C27 3.55964 26.4404 3 25.75 3C25.0596 3 24.5 3.55964 24.5 4.25V6.16374C24.295 5.98646 24.0844 5.81547 23.8685 5.65107C23.0657 5.03987 22 5.67173 22 6.68067ZM8.13122 5.65107C8.93406 5.03969 10 5.67164 10 6.68077C10 7.12017 9.78148 7.52728 9.4386 7.80207C8.83493 8.28585 8.28585 8.83493 7.80207 9.4386C7.52728 9.78148 7.12017 10 6.68077 10C5.67164 10 5.03969 8.93406 5.65107 8.13122C6.36235 7.19719 7.19719 6.36235 8.13122 5.65107ZM3.3872 12.8382C3.13428 13.8503 3 14.9095 3 16C3 17.0905 3.13428 18.1497 3.3872 19.1618C3.5132 19.6661 3.97919 20 4.49895 20C5.35192 20 5.93718 19.1275 5.75156 18.295C5.58687 17.5563 5.5 16.7883 5.5 16C5.5 15.2117 5.58687 14.4437 5.75156 13.705C5.93718 12.8725 5.35192 12 4.49895 12C3.97919 12 3.5132 12.3339 3.3872 12.8382ZM8.13122 26.3489C8.93405 26.9603 10 26.3284 10 25.3192C10 24.8798 9.78148 24.4727 9.4386 24.1979C8.83493 23.7141 8.28585 23.1651 7.80207 22.5614C7.52728 22.2185 7.12017 22 6.68076 22C5.67164 22 5.03969 23.0659 5.65107 23.8688C6.36235 24.8028 7.19719 25.6377 8.13122 26.3489ZM28.9409 17.2482C29.0063 16.5609 28.4404 16 27.75 16C27.0596 16 26.5078 16.5616 26.4267 17.2472C26.3847 17.6022 26.325 17.9518 26.2484 18.295C26.0628 19.1275 26.6481 20 27.5011 20C28.0208 20 28.4868 19.6661 28.6128 19.1618C28.7681 18.5405 28.8786 17.9014 28.9409 17.2482Z" fill="url(#paint1_linear_72095_11934)"/>
<defs>
<linearGradient id="paint0_linear_72095_11934" x1="6.66486" y1="3" x2="29.0613" y2="37.125" gradientUnits="userSpaceOnUse">
<stop stop-color="#0FAFFF"/>
<stop offset="0.923415" stop-color="#0067BF"/>
</linearGradient>
<linearGradient id="paint1_linear_72095_11934" x1="15.973" y1="-0.0952356" x2="21.8418" y2="43.8571" gradientUnits="userSpaceOnUse">
<stop stop-color="#885EDB" stop-opacity="0"/>
<stop offset="1" stop-color="#E362F8"/>
</linearGradient>
</defs>
</svg>
