<svg width="28" height="28" viewBox="0 0 28 28" fill="none" xmlns="http://www.w3.org/2000/svg">
<path d="M12.1809 3.14977C12.6188 3.07686 13.0006 3.4274 13.0006 3.8714C13.0006 4.2582 12.7077 4.57923 12.3268 4.64693C10.9503 4.89162 9.67625 5.43277 8.57311 6.20201C8.25606 6.4231 7.8223 6.40301 7.54899 6.1297C7.23485 5.81556 7.2572 5.29742 7.61884 5.03939C8.94962 4.08989 10.5009 3.42946 12.1809 3.14977ZM15.0006 3.8714C15.0006 4.2582 15.2936 4.57924 15.6745 4.64694C17.7307 5.01244 19.5581 6.03941 20.9289 7.5H18.25C17.8358 7.5 17.5 7.83579 17.5 8.25C17.5 8.66421 17.8358 9 18.25 9H22.25C22.6642 9 23 8.66421 23 8.25V4.25C23 3.83579 22.6642 3.5 22.25 3.5C21.8358 3.5 21.5 3.83579 21.5 4.25V5.95256C19.9555 4.51261 17.996 3.512 15.8206 3.1498C15.3826 3.07688 15.0006 3.4274 15.0006 3.8714ZM24.1294 14.9988C23.7426 14.9988 23.4215 15.2918 23.3538 15.6727C23.1093 17.0496 22.568 18.324 21.7986 19.4275C21.5775 19.7445 21.5976 20.1783 21.8709 20.4516C22.185 20.7657 22.7032 20.7434 22.9612 20.3817C23.9109 19.0506 24.5715 17.499 24.851 15.8185C24.9239 15.3805 24.5734 14.9988 24.1294 14.9988ZM15.6744 23.353C15.2936 23.4207 15.0006 23.7417 15.0006 24.1285C15.0006 24.5725 15.3824 24.923 15.8204 24.8501C17.5027 24.5701 19.0559 23.9082 20.3879 22.9566C20.7493 22.6985 20.7714 22.1806 20.4574 21.8666C20.184 21.5931 19.75 21.5732 19.4329 21.7946C18.3287 22.5656 17.053 23.1079 15.6744 23.353ZM8.57232 21.7973C8.25527 21.5762 7.82146 21.5963 7.54813 21.8696C7.23401 22.1837 7.25633 22.7018 7.61793 22.9599C8.94891 23.9097 10.5005 24.5704 12.1809 24.8501C12.6188 24.923 13.0006 24.5725 13.0006 24.1285C13.0006 23.7417 12.7077 23.4207 12.3268 23.353C10.95 23.1082 9.67564 22.5669 8.57232 21.7973ZM4.64742 15.6727C4.57976 15.2918 4.25872 14.9988 3.87188 14.9988C3.42792 14.9988 3.07739 15.3805 3.15025 15.8185C3.43014 17.5009 4.09185 19.0542 5.04334 20.3863C5.30146 20.7477 5.81939 20.7699 6.13341 20.4559C6.40683 20.1825 6.4268 19.7485 6.20548 19.4315C5.43455 18.3271 4.89231 17.0513 4.64742 15.6727ZM6.20603 8.56765C6.42741 8.25059 6.40745 7.81659 6.13402 7.54316C5.82001 7.22915 5.30213 7.25134 5.04399 7.61267C4.09263 8.94434 3.43086 10.4971 3.15067 12.1789C3.0777 12.6169 3.42825 12.9988 3.87228 12.9988C4.25905 12.9988 4.58007 12.7059 4.6478 12.3251C4.89294 10.9469 5.43522 9.6716 6.20603 8.56765Z" fill="#212121"/>
</svg>
