<svg width="24" height="24" viewBox="0 0 24 24" fill="none" xmlns="http://www.w3.org/2000/svg">
<path d="M16.161 1.83006L12.1641 9.82835C11.6654 10.8262 12.3913 12 13.507 12H21.5008C22.6165 12 23.3424 10.8263 22.8437 9.82836L18.8468 1.83007C18.2938 0.723314 16.7141 0.723308 16.161 1.83006ZM18.0043 4.49564V7.49735C18.0043 7.77365 17.7803 7.99764 17.5039 7.99764C17.2276 7.99764 17.0035 7.77365 17.0035 7.49735V4.49564C17.0035 4.21934 17.2276 3.99536 17.5039 3.99536C17.7803 3.99536 18.0043 4.21934 18.0043 4.49564ZM17.5039 9.99878C17.2276 9.99878 17.0035 9.77479 17.0035 9.4985C17.0035 9.2222 17.2276 8.99821 17.5039 8.99821C17.7803 8.99821 18.0043 9.2222 18.0043 9.4985C18.0043 9.77479 17.7803 9.99878 17.5039 9.99878ZM21.4995 13H13.6162L12.348 13.6644C12.13 13.7785 11.87 13.7785 11.652 13.6644L2 8.608V16.75L2.00514 16.9344C2.10075 18.6435 3.51697 20 5.25 20H18.75L18.9344 19.9949C20.6435 19.8992 22 18.483 22 16.75V12.9511C21.8395 12.9831 21.6723 13 21.4995 13ZM5.25 4H13.9592L11.2708 9.3809C10.851 10.2213 10.9521 11.1365 11.3948 11.8363L2.01619 6.92355C2.17386 5.34271 3.46432 4.09545 5.06409 4.00523L5.25 4Z" fill="#212121"/>
</svg>
