<?xml version="1.0" encoding="UTF-8"?>
<svg width="24px" height="24px" viewBox="0 0 24 24" version="1.1" xmlns="http://www.w3.org/2000/svg" xmlns:xlink="http://www.w3.org/1999/xlink">
    <!-- Generator: Sketch 59.1 (86144) - https://sketch.com -->
    <title>ic_fluent_repeat_24_regular</title>
    <desc>Created with Sketch.</desc>
    <g id="ðŸ”-Product-Icons" stroke="none" stroke-width="1" fill="none" fill-rule="evenodd">
        <g id="ic_fluent_repeat_24_regular" fill="#212121" fill-rule="nonzero">
            <path d="M11,3.25 C15.8324916,3.25 19.75,7.16750844 19.75,12 L19.7479242,12.1923467 L19.7479242,12.1923467 L20.4696699,11.4696699 C20.7625631,11.1767767 21.2374369,11.1767767 21.5303301,11.4696699 C21.7965966,11.7359365 21.8208027,12.1526002 21.6029482,12.4462117 L21.5303301,12.5303301 L19.5303301,14.5303301 C19.2640635,14.7965966 18.8473998,14.8208027 18.5537883,14.6029482 L18.4696699,14.5303301 L16.4696699,12.5303301 C16.1767767,12.2374369 16.1767767,11.7625631 16.4696699,11.4696699 C16.7359365,11.2034034 17.1526002,11.1791973 17.4462117,11.3970518 L17.5303301,11.4696699 L18.245,12.184 L18.25,12 C18.25,8.07601685 15.1326035,4.88014067 11.2393142,4.75387522 L11,4.75 C6.99593556,4.75 3.75,7.99593556 3.75,12 C3.75,16.0040644 6.99593556,19.25 11,19.25 C11.4142136,19.25 11.75,19.5857864 11.75,20 C11.75,20.4142136 11.4142136,20.75 11,20.75 C6.16750844,20.75 2.25,16.8324916 2.25,12 C2.25,7.16750844 6.16750844,3.25 11,3.25 Z" id="ðŸŽ¨-Color"></path>
        </g>
    </g>
</svg>