<svg width="32" height="32" viewBox="0 0 32 32" fill="none" xmlns="http://www.w3.org/2000/svg">
<path d="M11.2136 15.3831C11.4768 15.0477 11.9239 14.9158 12.3269 15.0549C12.7299 15.1942 13.0007 15.5739 13.0007 16.0002V28.0002C13.0006 28.5522 12.5527 29 12.0007 29.0002C11.4485 29.0002 10.9999 28.5524 10.9997 28.0002V18.4221C10.4499 18.8917 9.78212 19.397 9.0144 19.8577C8.5409 20.1415 7.92645 19.9883 7.64233 19.5149C7.35817 19.0413 7.51249 18.427 7.98608 18.1428C8.98552 17.5431 9.79995 16.8456 10.366 16.2952C10.6476 16.0213 10.8642 15.7866 11.0085 15.6233C11.0807 15.5417 11.1352 15.4783 11.1697 15.4368C11.1866 15.4164 11.1984 15.401 11.2058 15.3918L11.2136 15.3831ZM15.9851 2.89185C20.2982 2.82755 24.9337 4.57705 27.9997 7.80103V4.00025C27.9997 3.44803 28.4476 3.00036 28.9997 3.00025C29.552 3.00025 29.9997 3.44796 29.9997 4.00025V11.0002C29.9996 11.5524 29.5519 12.0002 28.9997 12.0002H21.9997C21.4478 12 20.9999 11.5523 20.9997 11.0002C20.9997 10.4481 21.4477 10.0005 21.9997 10.0002H27.2605C24.6882 6.72684 20.2215 4.82823 16.0154 4.89087C10.9604 4.96623 6.59697 7.86329 3.84155 12.1555C3.54319 12.6203 2.92448 12.7556 2.45971 12.4573C1.99496 12.1589 1.86058 11.5402 2.15893 11.0754C5.202 6.3351 10.1329 2.9792 15.9851 2.89185Z" fill="#212121"/>
<path d="M23.1023 15.0042C23.6063 15.0555 23.9996 15.4817 23.9997 15.9993C23.9997 16.5169 23.6064 16.9431 23.1023 16.9944L22.9997 16.9993H19.3943L19.1199 19.4592C19.6666 19.4534 20.3472 19.467 20.9109 19.5461L21.1521 19.5862C23.6198 20.0613 25.3073 22.3938 24.9538 24.9104C24.6001 27.4271 22.3349 29.2051 19.8318 28.9817L19.5896 28.9534C18.0813 28.7413 16.8379 27.8414 16.1335 26.6194C15.858 26.1409 16.0224 25.5289 16.5007 25.2532C16.979 24.9778 17.5901 25.1424 17.866 25.6204C18.2758 26.3316 18.9955 26.8502 19.8679 26.9729L20.1482 26.9983C21.5409 27.0517 22.7752 26.042 22.9734 24.6321C23.1713 23.2221 22.2627 21.9116 20.9089 21.5793L20.6326 21.5266C20.1781 21.4628 19.5503 21.4516 19.0007 21.4612C18.7333 21.4658 18.4965 21.4747 18.3279 21.4827C18.244 21.4867 18.1769 21.4908 18.1316 21.4934L18.0808 21.4963L18.0681 21.4973H18.0652C17.7698 21.517 17.4808 21.4046 17.2761 21.1907C17.0715 20.9767 16.9719 20.6831 17.0046 20.3889L17.5056 15.8889L17.5212 15.7952C17.6168 15.3362 18.0224 14.9994 18.4997 14.9993H22.9997L23.1023 15.0042Z" fill="#242424"/>
</svg>
