<svg width="16" height="16" viewBox="0 0 16 16" fill="none" xmlns="http://www.w3.org/2000/svg">
<path d="M13.0004 2.5C13.0004 2.22386 12.7766 2 12.5004 2C12.2243 2 12.0004 2.22386 12.0004 2.5V6.34262L8.8294 3.17157C7.26731 1.60948 4.73465 1.60948 3.17255 3.17157C1.61045 4.73367 1.61045 7.26633 3.17255 8.82843L8.19768 13.8536C8.39294 14.0488 8.70952 14.0488 8.90478 13.8536C9.10004 13.6583 9.10004 13.3417 8.90478 13.1464L3.87966 8.12132C2.70808 6.94975 2.70808 5.05025 3.87966 3.87868C5.05123 2.70711 6.95072 2.70711 8.1223 3.87868L11.2436 7H7.50045C7.22431 7 7.00045 7.22386 7.00045 7.5C7.00045 7.77614 7.22431 8 7.50045 8H12.4004C12.7318 8 13.0004 7.73137 13.0004 7.4V2.5Z" fill="#212121"/>
</svg>
