<svg width="48" height="48" viewBox="0 0 48 48" fill="none" xmlns="http://www.w3.org/2000/svg">
<path d="M12.1497 9.83982C16.3233 5.23784 23.4524 5.33466 28.0048 10.5101L28.0217 10.5294L36.5802 19.4882H24.2007C23.5103 19.4882 22.9507 20.0478 22.9507 20.7382C22.9507 21.4285 23.5103 21.9882 24.2007 21.9882H39.7455C40.4359 21.9882 40.9955 21.4285 40.9955 20.7382V5.26886C40.9955 4.5785 40.4359 4.01886 39.7455 4.01886C39.0551 4.01886 38.4955 4.5785 38.4955 5.26886V17.8739L29.8646 8.83922C24.4154 2.66488 15.5577 2.36064 10.2979 8.16035C5.05798 13.9381 6.67587 21.4757 10.3118 25.3549L10.3211 25.3648L19.3001 34.5376L19.3051 34.5428L28.0551 43.3796L28.0594 43.384L28.3104 43.6349C28.7985 44.1231 29.59 44.1231 30.0782 43.6349C30.5663 43.1468 30.5663 42.3553 30.0782 41.8672L29.8316 41.6206L29.8272 41.6162L21.0866 32.7889L21.0816 32.7837L12.1269 23.6357C9.20821 20.5121 7.95489 14.4652 12.1497 9.83982Z" fill="#212121"/>
</svg>
