<svg width="48" height="48" viewBox="0 0 48 48" fill="none" xmlns="http://www.w3.org/2000/svg">
<path d="M6.99829 5.5C6.99829 4.67157 7.66986 4 8.49829 4C9.32672 4 9.99829 4.67157 9.99829 5.5V16.9849L17.8995 8.9227C23.4715 2.62347 32.8496 2.76198 37.829 8.2524C42.8299 13.7666 41.2056 21.5619 37.8577 25.4751L37.8487 25.4855L35.5905 28.0291L33.0535 30.5661L28.8064 34.7265L20.5646 43.0551L20.559 43.0606L20.0628 43.5569C19.477 44.1427 18.5273 44.1427 17.9415 43.5569C17.3557 42.9711 17.3557 42.0213 17.9415 41.4355L18.4322 40.9449L18.4377 40.9393L26.6904 32.5997L30.9433 28.4337L33.4062 25.9708L35.5866 23.5148C38.2214 20.425 39.3283 14.3713 35.6068 10.2678C31.8678 6.14511 24.5561 5.89718 20.1246 10.9352L20.0979 10.9655L12.2239 19H23.4983C24.3267 19 24.9983 19.6716 24.9983 20.5C24.9983 21.3284 24.3267 22 23.4983 22H8.49829C7.66986 22 6.99829 21.3284 6.99829 20.5V5.5Z" fill="#212121"/>
</svg>
