<svg width="24" height="24" viewBox="0 0 24 24" fill="none" xmlns="http://www.w3.org/2000/svg">
<path d="M10.7523 19.9997C11.1665 19.9997 11.5023 20.3355 11.5023 20.7497C11.5023 21.164 11.1665 21.4997 10.7523 21.4997C10.3381 21.4997 10.0023 21.164 10.0023 20.7497C10.0023 20.3355 10.3381 19.9997 10.7523 19.9997ZM15.2523 19.9997C15.6665 19.9997 16.0023 20.3355 16.0023 20.7497C16.0023 21.164 15.6665 21.4997 15.2523 21.4997C14.8381 21.4997 14.5023 21.164 14.5023 20.7497C14.5023 20.3355 14.8381 19.9997 15.2523 19.9997ZM8.50228 18.9997C8.9165 18.9997 9.25228 19.3355 9.25228 19.7497C9.25228 20.164 8.9165 20.4997 8.50228 20.4997C8.08807 20.4997 7.75228 20.164 7.75228 19.7497C7.75228 19.3355 8.08807 18.9997 8.50228 18.9997ZM13.0023 18.9997C13.4165 18.9997 13.7523 19.3355 13.7523 19.7497C13.7523 20.164 13.4165 20.4997 13.0023 20.4997C12.5881 20.4997 12.2523 20.164 12.2523 19.7497C12.2523 19.3355 12.5881 18.9997 13.0023 18.9997ZM17.5023 18.9997C17.9165 18.9997 18.2523 19.3355 18.2523 19.7497C18.2523 20.164 17.9165 20.4997 17.5023 20.4997C17.0881 20.4997 16.7523 20.164 16.7523 19.7497C16.7523 19.3355 17.0881 18.9997 17.5023 18.9997ZM13.0023 6.00988C16.1708 6.00988 17.9683 8.10717 18.2297 10.64L18.3096 10.64C20.3487 10.64 22.0017 12.2887 22.0017 14.3225C22.0017 16.3563 20.3487 18.0051 18.3096 18.0051H7.69492C5.65584 18.0051 4.00284 16.3563 4.00284 14.3225C4.00284 12.2887 5.65584 10.64 7.69494 10.64L7.77488 10.64C8.03782 8.09052 9.83375 6.00988 13.0023 6.00988ZM4.36791 10.1653C4.51321 10.5161 4.37262 10.914 4.05341 11.1L3.96201 11.1452L3.03574 11.5289C2.65306 11.6874 2.21433 11.5057 2.05582 11.123C1.91052 10.7722 2.05111 10.3743 2.37032 10.1884L2.46172 10.1431L3.38798 9.75942C3.77067 9.60091 4.20939 9.78264 4.36791 10.1653ZM10.8549 5.33211L10.6833 5.38969C8.89893 6.02006 7.62092 7.39514 7.06838 9.21265L6.99755 9.4632L6.93986 9.70103L6.73377 9.73949C6.12548 9.86731 5.56026 10.114 5.06373 10.4545C4.97491 10.3043 4.89572 10.1448 4.82665 9.97806C3.9936 7.9669 4.94864 5.66122 6.9598 4.82817C8.3021 4.27217 9.77559 4.51269 10.8549 5.33211ZM2.94116 5.36319L3.04666 5.39809L3.97293 5.78176C4.35561 5.94028 4.53734 6.379 4.37883 6.76169C4.23472 7.10958 3.85904 7.29139 3.50441 7.20248L3.3989 7.16758L2.47264 6.78391C2.08996 6.6254 1.90823 6.18667 2.06674 5.80399C2.21084 5.4561 2.58653 5.27428 2.94116 5.36319ZM6.75638 2.37677L6.80165 2.46817L7.18533 3.39444C7.34384 3.77712 7.16211 4.21585 6.77943 4.37436C6.42864 4.51966 6.03075 4.37907 5.84478 4.05987L5.79951 3.96846L5.41584 3.0422C5.25732 2.65951 5.43905 2.22079 5.82173 2.06228C6.17253 1.91697 6.57041 2.05756 6.75638 2.37677ZM11.1097 2.05826C11.4576 2.20237 11.6394 2.57805 11.5505 2.93268L11.5156 3.03819L11.1319 3.96445C10.9734 4.34713 10.5347 4.52886 10.152 4.37035C9.80413 4.22625 9.62232 3.85056 9.71123 3.49593L9.74613 3.39043L10.1298 2.46416C10.2883 2.08148 10.727 1.89975 11.1097 2.05826Z" fill="#212121"/>
</svg>
