<svg width="20" height="20" viewBox="0 0 20 20" fill="none" xmlns="http://www.w3.org/2000/svg">
<path d="M5.5 1.99805C5.08579 1.99805 4.75 2.33383 4.75 2.74805V3.07969C3.17741 3.42302 2 4.82358 2 6.49914V6.78033C2 8.24554 2.84648 9.57885 4.17246 10.2022L4.75 10.4737V15.3376C4.01735 15.041 3.5 14.3227 3.5 13.483V12.4025C3.5 11.9883 3.16421 11.6525 2.75 11.6525C2.33579 11.6525 2 11.9883 2 12.4025V13.483C2 15.1594 3.17826 16.5593 4.75 16.9024V17.2502C4.75 17.6644 5.08579 18.0002 5.5 18.0002C5.91421 18.0002 6.25 17.6644 6.25 17.2502V16.9024C7.82345 16.5589 9 15.1576 8.99999 13.4829L8.99999 13.2104C8.99999 11.7479 8.15508 10.4171 6.83156 9.79485L6.25 9.52144V4.64453C6.98295 4.94122 7.49999 5.6598 7.5 6.49914L7.5 7.59491C7.5 8.00912 7.83579 8.3449 8.25 8.3449C8.66422 8.3449 9 8.00911 9 7.5949L9 6.49913C8.99999 4.82358 7.82258 3.42303 6.25 3.07969V2.74805C6.25 2.33383 5.91421 1.99805 5.5 1.99805ZM3.5 6.49914C3.5 5.6598 4.01704 4.94122 4.75 4.64452V8.81515C3.98496 8.42759 3.5 7.64174 3.5 6.78033V6.49914ZM6.25 15.3376V11.1799C7.0149 11.5656 7.49999 12.3502 7.49999 13.2104L7.49999 13.4829C7.49999 14.3219 6.98326 15.0408 6.25 15.3376ZM12.5046 9.99915C12.5046 9.66427 12.5239 9.33752 12.5605 9.02107L14.2542 9.02065C14.6684 9.02054 15.0041 8.68467 15.004 8.27046C15.0039 7.85624 14.668 7.52054 14.2538 7.52065L12.8836 7.52099C13.0704 6.94639 13.3186 6.4325 13.6109 5.99904C14.2824 5.00321 15.1301 4.49915 15.9691 4.49915C16.273 4.49915 16.6009 4.59209 16.8296 4.74782C17.172 4.98099 17.6385 4.89247 17.8717 4.55011C18.1048 4.20775 18.0163 3.7412 17.674 3.50804C17.1639 3.1607 16.5324 2.99915 15.9691 2.99915C14.4805 2.99915 13.221 3.89419 12.3672 5.16042C11.9109 5.8371 11.5542 6.6392 11.3204 7.52138L10.7515 7.52152C10.3373 7.52162 10.0016 7.85749 10.0017 8.27171C10.0018 8.68592 10.3376 9.02162 10.7518 9.02152L11.0521 9.02144C11.0207 9.34169 11.0046 9.66815 11.0046 9.99915C11.0046 10.0074 11.0046 10.0157 11.0047 10.0239L10.7506 10.0242C10.3364 10.0246 10.001 10.3607 10.0014 10.7749C10.0018 11.1892 10.3379 11.5246 10.7522 11.5242L11.1212 11.5238C11.3168 12.7827 11.7513 13.9245 12.3672 14.8379C13.221 16.1041 14.4805 16.9991 15.9691 16.9991C16.5112 16.9991 17.1611 16.8644 17.6925 16.4822C18.0288 16.2404 18.1054 15.7718 17.8636 15.4355C17.6218 15.0992 17.1531 15.0226 16.8168 15.2644C16.6095 15.4134 16.2942 15.4991 15.9691 15.4991C15.1301 15.4991 14.2824 14.9951 13.6109 13.9993C13.1647 13.3376 12.8213 12.4886 12.6423 11.5223L14.2547 11.5206C14.6689 11.5202 15.0044 11.1841 15.0039 10.7699C15.0035 10.3557 14.6674 10.0202 14.2532 10.0206L12.5047 10.0224C12.5046 10.0147 12.5046 10.0069 12.5046 9.99915Z" fill="#212121"/>
</svg>
