<svg width="20" height="20" viewBox="0 0 20 20" fill="none" xmlns="http://www.w3.org/2000/svg">
<path d="M9 2C6.79086 2 5 3.79086 5 6C5 8.20914 6.79086 10 9 10C11.2091 10 13 8.20914 13 6C13 3.79086 11.2091 2 9 2ZM4.00873 11C2.90315 11 2 11.8869 2 13C2 14.6912 2.83281 15.9663 4.13499 16.7966C5.41697 17.614 7.14526 18 9 18H9.00488C9.00457 17.703 9.07175 17.398 9.21836 17.1044L12.2671 11L4.00873 11ZM13.6029 10.5536L10.1068 17.552C9.77438 18.2174 10.2583 19 11.0022 19H17.9978C18.7419 19 19.2258 18.2171 18.893 17.5517L15.3935 10.5532C15.0246 9.81544 13.9716 9.81564 13.6029 10.5536ZM14.9983 12.4951V15.4974C14.9983 15.7738 14.7743 15.9978 14.4979 15.9978C14.2215 15.9978 13.9975 15.7738 13.9975 15.4974V12.4951C13.9975 12.2187 14.2215 11.9947 14.4979 11.9947C14.7743 11.9947 14.9983 12.2187 14.9983 12.4951ZM14.4979 17.9993C14.2215 17.9993 13.9975 17.7753 13.9975 17.499C13.9975 17.2226 14.2215 16.9986 14.4979 16.9986C14.7743 16.9986 14.9983 17.2226 14.9983 17.499C14.9983 17.7753 14.7743 17.9993 14.4979 17.9993Z" fill="#212121"/>
</svg>
