<svg width="20" height="20" viewBox="0 0 20 20" fill="none" xmlns="http://www.w3.org/2000/svg">
<path d="M6 4.5V6H5C4.44772 6 4 6.44772 4 7V15C4 15.417 4.078 15.807 4.23499 16.172C4.39099 16.531 4.60699 16.849 4.883 17.125C5.15399 17.396 5.47101 17.61 5.836 17.766C6.19501 17.922 6.58301 18 7 18H10.2572C9.47182 17.0491 9 15.8296 9 14.5C9 12.7921 9.7785 11.266 11 10.2572V4.5C11 4.271 10.971 4.053 10.914 3.844C10.857 3.635 10.776 3.44 10.672 3.258C10.917 3.086 11.193 3 11.5 3C11.708 3 11.903 3.039 12.086 3.117C12.269 3.195 12.428 3.301 12.563 3.437C12.698 3.573 12.805 3.732 12.883 3.914C12.961 4.096 13 4.292 13 4.5V6H12V9.59971C12.7501 9.21628 13.5998 9 14.5 9C15.02 9 15.5232 9.07217 16 9.20703V7C16 6.44772 15.5523 6 15 6H14V4.5C14 4.156 13.935 3.833 13.805 3.531C13.675 3.224 13.498 2.958 13.274 2.734C13.045 2.505 12.779 2.325 12.477 2.195C12.169 2.065 11.844 2 11.5 2C11.219 2 10.953 2.044 10.703 2.133C10.448 2.222 10.216 2.347 10.008 2.508C9.795 2.347 9.561 2.222 9.305 2.133C9.049 2.044 8.781 2 8.5 2C8.156 2 7.833 2.065 7.531 2.195C7.224 2.325 6.958 2.505 6.734 2.734C6.505 2.958 6.325 3.224 6.195 3.531C6.065 3.833 6 4.156 6 4.5ZM7 4.5C7 4.292 7.039 4.097 7.117 3.914C7.195 3.731 7.301 3.572 7.437 3.437C7.573 3.302 7.732 3.195 7.914 3.117C8.096 3.039 8.292 3 8.5 3C8.708 3 8.903 3.039 9.086 3.117C9.269 3.195 9.428 3.301 9.563 3.437C9.698 3.573 9.805 3.732 9.883 3.914C9.961 4.096 10 4.292 10 4.5V6H7V4.5ZM19 14.5C19 16.9853 16.9853 19 14.5 19C12.0147 19 10 16.9853 10 14.5C10 12.0147 12.0147 10 14.5 10C16.9853 10 19 12.0147 19 14.5ZM16.8536 12.6464C16.6583 12.4512 16.3417 12.4512 16.1464 12.6464L13.5 15.2929L12.8536 14.6464C12.6583 14.4512 12.3417 14.4512 12.1464 14.6464C11.9512 14.8417 11.9512 15.1583 12.1464 15.3536L13.1464 16.3536C13.3417 16.5488 13.6583 16.5488 13.8536 16.3536L16.8536 13.3536C17.0488 13.1583 17.0488 12.8417 16.8536 12.6464Z" fill="#212121"/>
</svg>
