<svg width="24" height="24" viewBox="0 0 24 24" fill="none" xmlns="http://www.w3.org/2000/svg">
<path d="M5.5 4.25C5.5 3.83579 5.83579 3.5 6.25 3.5H12V8C12 9.10457 12.8954 10 14 10H18.5V19.75C18.5 20.1642 18.1642 20.5 17.75 20.5H14V22H17.75C18.9926 22 20 20.9926 20 19.75V9.66421C20 9.20009 19.8156 8.75497 19.4874 8.42678L13.5732 2.51256C13.245 2.18437 12.7999 2 12.3358 2H6.25C5.00736 2 4 3.00736 4 4.25V11.5854C4.15639 11.5301 4.32468 11.5 4.5 11.5H5.5V4.25ZM17.4393 8.5H14C13.7239 8.5 13.5 8.27614 13.5 8V4.56066L17.4393 8.5Z" fill="#212121"/>
<path d="M3.75 13.25C3.75 12.8358 4.08579 12.5 4.5 12.5H9.5C9.91421 12.5 10.25 12.8358 10.25 13.25V15H10.75C11.9926 15 13 16.0074 13 17.25V20.75C13 21.9926 11.9926 23 10.75 23H3.25C2.00736 23 1 21.9926 1 20.75V17.25C1 16.0074 2.00736 15 3.25 15H3.75V13.25ZM8.75 14H5.25V15H8.75V14ZM3.25 16.5C2.83579 16.5 2.5 16.8358 2.5 17.25V20.75C2.5 21.1642 2.83579 21.5 3.25 21.5H10.75C11.1642 21.5 11.5 21.1642 11.5 20.75V17.25C11.5 16.8358 11.1642 16.5 10.75 16.5H3.25Z" fill="#212121"/>
</svg>
