<svg width="20" height="20" viewBox="0 0 20 20" fill="none" xmlns="http://www.w3.org/2000/svg">
<path d="M9.99996 2C14.4182 2 18 5.58173 18 10C18 13.2082 16.1114 15.9741 13.3877 17.249C12.3007 17.7578 11.0605 17.6889 10.0966 17.1904C9.12346 16.687 8.40063 15.7227 8.44917 14.459C8.4663 14.0135 8.53067 13.592 8.59175 13.2158C8.65461 12.8288 8.71038 12.5037 8.72847 12.2012C8.74623 11.9042 8.72409 11.6683 8.65035 11.4688C8.57958 11.2775 8.4499 11.0878 8.20015 10.9004C7.88697 10.6655 7.62033 10.6251 7.35542 10.6631C7.05528 10.7063 6.74111 10.851 6.34077 11.0498C5.60615 11.4146 4.56546 11.9918 3.36714 11.3818C2.2647 10.8204 1.94335 9.51441 2.14741 8.46485C2.86366 4.78107 6.10643 2.00004 9.99996 2ZM9.99996 3C6.59431 3.00004 3.75564 5.43264 3.12886 8.65528C2.97577 9.44267 3.25524 10.2023 3.82026 10.4902C4.50381 10.8384 5.07128 10.564 5.89644 10.1543C6.27582 9.96593 6.72982 9.74237 7.21382 9.67286C7.73308 9.59834 8.26777 9.70076 8.79976 10.0996C9.18977 10.3921 9.44461 10.7342 9.58785 11.1211C9.72795 11.4998 9.74968 11.8895 9.72749 12.2608C9.70561 12.6266 9.63805 13.0137 9.57906 13.377C9.51833 13.7509 9.46276 14.1187 9.4482 14.4971C9.417 15.3092 9.86669 15.9449 10.5566 16.3018C11.2559 16.6634 12.1694 16.7156 12.9638 16.3438C15.3492 15.2272 17 12.8057 17 10C17 6.13401 13.866 3 9.99996 3ZM12.5 13C13.0522 13 13.5 13.4477 13.5 14C13.5 14.5523 13.0522 15 12.5 15C11.9477 15 11.5 14.5523 11.5 14C11.5 13.4478 11.9477 13.0001 12.5 13ZM14.5 10.5C15.0522 10.5 15.5 10.9477 15.5 11.5C15.5 12.0523 15.0522 12.5 14.5 12.5C13.9477 12.5 13.5 12.0523 13.5 11.5C13.5 10.9478 13.9477 10.5001 14.5 10.5ZM14.5 7.50001C15.0522 7.50001 15.5 7.94772 15.5 8.50001C15.5 9.05229 15.0522 9.50001 14.5 9.50001C13.9477 9.49996 13.5 9.05227 13.5 8.50001C13.5 7.94775 13.9477 7.50005 14.5 7.50001ZM12.5 5C13.0522 5 13.5 5.44772 13.5 6C13.5 6.55229 13.0522 7.00001 12.5 7.00001C11.9477 6.99996 11.5 6.55226 11.5 6C11.5 5.44775 11.9477 5.00005 12.5 5ZM9.49996 4.5C10.0522 4.5 10.5 4.94772 10.5 5.5C10.5 6.05229 10.0522 6.50001 9.49996 6.50001C8.94771 6.49996 8.49995 6.05226 8.49995 5.5C8.49995 4.94775 8.94771 4.50005 9.49996 4.5Z" fill="#212121"/>
</svg>
