<svg width="20" height="20" viewBox="0 0 20 20" fill="none" xmlns="http://www.w3.org/2000/svg">
<path d="M3.5 2C3.77614 2 4 2.22386 4 2.5V6.5C4 6.77614 4.22386 7 4.5 7H15.5C15.7761 7 16 6.77614 16 6.5V2.5C16 2.22386 16.2239 2 16.5 2C16.7761 2 17 2.22386 17 2.5V6.5C17 7.15311 16.5826 7.70873 16 7.91465V9C16 10.1046 15.1046 11 14 11V13.0729C14 13.8305 13.572 14.523 12.8944 14.8618L6.72361 17.9472C6.56861 18.0247 6.38454 18.0164 6.23713 17.9253C6.08973 17.8342 6 17.6733 6 17.5V11C4.89543 11 4 10.1046 4 9V7.91465C3.4174 7.70873 3 7.15311 3 6.5V2.5C3 2.22386 3.22386 2 3.5 2ZM5 8V9C5 9.55228 5.44772 10 6 10H14C14.5523 10 15 9.55228 15 9V8H5ZM7 11V16.691L12.4472 13.9674C12.786 13.798 13 13.4517 13 13.0729V11H7Z" fill="#212121"/>
</svg>
