<?xml version="1.0" encoding="UTF-8"?>
<svg width="20px" height="20px" viewBox="0 0 20 20" version="1.1" xmlns="http://www.w3.org/2000/svg" xmlns:xlink="http://www.w3.org/1999/xlink">
    <!-- Generator: Sketch 64 (93537) - https://sketch.com -->
    <title>ic_fluent_highlight_20_regular</title>
    <desc>Created with Sketch.</desc>
    <g id="ðŸ”-System-Icons" stroke="none" stroke-width="1" fill="none" fill-rule="evenodd">
        <g id="ic_fluent_highlight_20_regular" fill="#212121" fill-rule="nonzero">
            <path d="M3,2 C3.27614,2 3.5,2.22386 3.5,2.5 L3.5,5.5 C3.5,5.77614 3.72386,6 4,6 L16,6 C16.2761,6 16.5,5.77614 16.5,5.5 L16.5,2.5 C16.5,2.22386 16.7239,2 17,2 C17.2761,2 17.5,2.22386 17.5,2.5 L17.5,5.5 C17.5,6.32843 16.8284,7 16,7 L15.5,7 L15.5,9.5 C15.5,10.3284 14.8284,11 14,11 L13.5,11 L13.5,13.882 C13.5,14.4501 13.179,14.9695 12.6708,15.2236 L7.22361,17.9472 C7.06861,18.0247 6.88454,18.0164 6.73713,17.9253 C6.58973,17.8342 6.5,17.6733 6.5,17.5 L6.5,11 L6,11 C5.17157,11 4.5,10.3284 4.5,9.5 L4.5,7 L4,7 C3.17157,7 2.5,6.32843 2.5,5.5 L2.5,2.5 C2.5,2.22386 2.72386,2 3,2 Z M5.5,7 L5.5,9.5 C5.5,9.77614 5.72386,10 6,10 L14,10 C14.2761,10 14.5,9.77614 14.5,9.5 L14.5,7 L5.5,7 Z M7.5,11 L7.5,16.691 L12.2236,14.3292 C12.393,14.2445 12.5,14.0714 12.5,13.882 L12.5,11 L7.5,11 Z" id="ðŸŽ¨-Color"></path>
        </g>
    </g>
</svg>