<svg width="32" height="32" viewBox="0 0 32 32" fill="none" xmlns="http://www.w3.org/2000/svg">
<path d="M10.1907 5.58941C8.74084 6.55601 8 7.78153 8 9C8 10.2185 8.74084 11.444 10.1907 12.4106C11.6336 13.3725 13.6846 14 16 14C18.3154 14 20.3664 13.3725 21.8093 12.4106C23.2592 11.444 24 10.2185 24 9C24 7.78153 23.2592 6.55601 21.8093 5.58941C20.3664 4.62747 18.3154 4 16 4C13.6846 4 11.6336 4.62747 10.1907 5.58941ZM9.08134 3.92531C10.8958 2.71567 13.3448 2 16 2C18.6552 2 21.1042 2.71567 22.9187 3.92531C24.7261 5.13028 26 6.90476 26 9C26 11.0952 24.7261 12.8697 22.9187 14.0747C21.1042 15.2843 18.6552 16 16 16C13.3448 16 10.8958 15.2843 9.08134 14.0747C7.27388 12.8697 6 11.0952 6 9C6 6.90476 7.27388 5.13028 9.08134 3.92531ZM8 22.9999C8 22.74 8.03371 22.4798 8.10081 22.2219C7.51715 21.8181 6.96835 21.3501 6.48352 20.8232C6.17359 21.4968 6 22.2265 6 22.9999C6 25.0952 7.27388 26.8696 9.08134 28.0746C10.8958 29.2843 13.3448 29.9999 16 29.9999C18.6552 29.9999 21.1042 29.2843 22.9187 28.0746C24.7261 26.8696 26 25.0952 26 22.9999C26 22.2265 25.8264 21.4968 25.5165 20.8232C25.0317 21.3501 24.4829 21.8181 23.8992 22.2219C23.9663 22.4798 24 22.74 24 22.9999C24 24.2184 23.2592 25.4439 21.8093 26.4105C20.3664 27.3725 18.3154 27.9999 16 27.9999C13.6846 27.9999 11.6336 27.3725 10.1907 26.4105C8.74084 25.4439 8 24.2184 8 22.9999ZM8.10081 15.2219C8.03371 15.4798 8 15.74 8 15.9999C8 17.2184 8.74084 18.4439 10.1907 19.4105C11.6336 20.3725 13.6846 20.9999 16 20.9999C18.3154 20.9999 20.3664 20.3725 21.8093 19.4105C23.2592 18.4439 24 17.2184 24 15.9999C24 15.74 23.9663 15.4798 23.8992 15.2219C24.4829 14.8181 25.0317 14.3501 25.5165 13.8232C25.8264 14.4968 26 15.2265 26 15.9999C26 18.0952 24.7261 19.8696 22.9187 21.0746C21.1042 22.2843 18.6552 22.9999 16 22.9999C13.3448 22.9999 10.8958 22.2843 9.08134 21.0746C7.27388 19.8696 6 18.0952 6 15.9999C6 15.2265 6.17359 14.4968 6.48352 13.8232C6.96835 14.3501 7.51715 14.8181 8.10081 15.2219Z" fill="#212121"/>
</svg>
