<svg width="20" height="20" viewBox="0 0 20 20" fill="none" xmlns="http://www.w3.org/2000/svg">
<path d="M10 5.5C10 7.98528 7.98528 10 5.5 10C3.01472 10 1 7.98528 1 5.5C1 3.01472 3.01472 1 5.5 1C7.98528 1 10 3.01472 10 5.5ZM5.14605 7.85316L5.14857 7.85567C5.19602 7.90256 5.25051 7.93802 5.30861 7.96206C5.36669 7.98615 5.4303 7.9996 5.497 7.99999L5.5 8L5.503 7.99999C5.5697 7.9996 5.63331 7.98615 5.69139 7.96206C5.75036 7.93766 5.80561 7.90149 5.85355 7.85355L7.85355 5.85355C8.04882 5.65829 8.04882 5.34171 7.85355 5.14645C7.65829 4.95118 7.34171 4.95118 7.14645 5.14645L6 6.29289V3.5C6 3.22386 5.77614 3 5.5 3C5.22386 3 5 3.22386 5 3.5L5 6.29289L3.85355 5.14645C3.65829 4.95118 3.34171 4.95118 3.14645 5.14645C2.95118 5.34171 2.95118 5.65829 3.14645 5.85355L5.14605 7.85316ZM12.753 7.47429C12.2366 7.07434 11.5978 6.82411 10.854 6.76407C10.7287 7.29696 10.5259 7.79996 10.2581 8.26053C10.3367 8.25354 10.4173 8.25 10.5 8.25C11.9232 8.25 12.75 9.29737 12.75 11C12.75 12.6694 11.8827 13.75 10.5 13.75C9.11734 13.75 8.25 12.6694 8.25 11C8.25 10.7245 8.27165 10.4661 8.31397 10.2266C7.8354 10.5121 7.30982 10.7271 6.7516 10.857C6.75053 10.9044 6.75 10.9521 6.75 11C6.75 13.4342 8.20741 15.25 10.5 15.25C11.7016 15.25 12.6738 14.7512 13.3262 13.9264C13.8751 15.0708 14.7958 15.75 16 15.75C18.0262 15.75 19.25 13.8269 19.25 11C19.25 6.44365 15.5563 2.75 11 2.75C10.7581 2.75 10.5185 2.76041 10.2819 2.78082C10.5405 3.23459 10.7363 3.72874 10.8577 4.25147C10.905 4.25049 10.9524 4.25 11 4.25C14.7279 4.25 17.75 7.27208 17.75 11C17.75 13.1017 17.0192 14.25 16 14.25C14.9808 14.25 14.25 13.1017 14.25 11V7.5L14.2432 7.39823C14.1935 7.03215 13.8797 6.75 13.5 6.75C13.0946 6.75 12.7643 7.07167 12.753 7.47429ZM2.78082 10.2819C3.23459 10.5405 3.72874 10.7363 4.25147 10.8577C4.25049 10.905 4.25 10.9524 4.25 11C4.25 14.7279 7.27208 17.75 11 17.75C11.794 17.75 12.5682 17.6132 13.2981 17.3489C13.6876 17.2079 14.1176 17.4093 14.2587 17.7988C14.3997 18.1883 14.1982 18.6183 13.8088 18.7593C12.9157 19.0827 11.9688 19.25 11 19.25C6.44365 19.25 2.75 15.5563 2.75 11C2.75 10.7581 2.76041 10.5185 2.78082 10.2819Z" fill="#212121"/>
</svg>
