<svg width="32" height="32" viewBox="0 0 32 32" fill="none" xmlns="http://www.w3.org/2000/svg">
<path d="M16 2C13.2311 2 10.5243 2.82109 8.22202 4.35943C5.91973 5.89777 4.12532 8.08427 3.06569 10.6424C2.00607 13.2006 1.72882 16.0155 2.26901 18.7313C2.80921 21.447 4.14258 23.9416 6.10051 25.8995C8.05845 27.8574 10.553 29.1908 13.2687 29.731C15.9845 30.2712 18.7994 29.9939 21.3576 28.9343C23.9157 27.8747 26.1022 26.0803 27.6406 23.778C29.1789 21.4757 30 18.7689 30 16C30 12.287 28.525 8.72601 25.8995 6.1005C23.274 3.475 19.713 2 16 2V2ZM13.49 4.27C13.65 4.58 13.81 4.87 13.98 5.17C14.74 6.53 15.41 7.7 14.98 9.27C14.81 9.95 13.98 10.27 12.84 10.67C12.0222 10.8632 11.2785 11.2906 10.7 11.9C10.3084 12.4815 10.0646 13.1497 9.98967 13.8468C9.91474 14.5438 10.011 15.2486 10.27 15.9C10.46 16.64 10.57 17.1 10.37 17.4C10.17 17.7 10.22 17.58 9.69001 17.65C9.0938 17.6874 8.51389 17.8599 7.99416 18.1544C7.47442 18.4489 7.02846 18.8577 6.69001 19.35C6.11299 20.1874 5.79005 21.1735 5.76001 22.19C4.61358 20.3285 4.00445 18.1862 4.00001 16C4.00105 13.2541 4.94377 10.5917 6.67084 8.45693C8.39792 6.3222 10.8049 4.84435 13.49 4.27V4.27ZM7.91001 24.84C7.75001 23.71 7.50001 21.67 8.30001 20.6C8.48253 20.3155 8.73419 20.0819 9.03148 19.921C9.32877 19.7601 9.66199 19.6772 10 19.68C10.3973 19.6559 10.7839 19.5417 11.1305 19.3459C11.477 19.1501 11.7744 18.8779 12 18.55C12.2551 18.0757 12.4017 17.5508 12.4294 17.013C12.457 16.4752 12.365 15.9379 12.16 15.44C11.9 14.44 11.76 13.77 12.26 13.1C12.6409 12.8623 13.0556 12.6836 13.49 12.57C14.76 12.14 16.49 11.57 16.93 9.73C17.49 7.4 16.53 5.73 15.68 4.18L15.63 4H16C18.2634 4.00075 20.4798 4.6459 22.39 5.86C21.3384 7.48769 20.0738 8.96747 18.63 10.26C17.25 11.51 18.26 12.95 18.93 13.9C19.2955 14.2918 19.5786 14.7531 19.7624 15.2564C19.9462 15.7597 20.027 16.2948 20 16.83C19.9279 17.1088 19.9286 17.4015 20.0022 17.6799C20.0757 17.9583 20.2196 18.2132 20.42 18.42C20.723 18.6244 21.0735 18.7474 21.4378 18.7772C21.802 18.807 22.1678 18.7425 22.5 18.59C22.7393 18.5219 22.9833 18.4718 23.23 18.44C23.34 18.82 23.13 19.13 22.23 19.96C21.33 20.79 20.14 21.91 20.5 23.7C20.6276 24.2148 20.8629 24.6967 21.1904 25.1138C21.5179 25.531 21.9302 25.8739 22.4 26.12C20.1822 27.5358 17.5582 28.1781 14.9371 27.9465C12.3161 27.715 9.84531 26.6227 7.91001 24.84V24.84ZM24.11 24.84L23.72 24.59C23.02 24.17 22.59 23.87 22.48 23.32C22.37 22.77 22.73 22.27 23.62 21.44C24.51 20.61 25.75 19.44 25.09 17.67C24.48 16.06 22.8 16.47 22.04 16.67C22.0164 15.239 21.4968 13.8606 20.57 12.77C20.3196 12.4696 20.1172 12.1323 19.97 11.77C21.5037 10.3968 22.8487 8.82647 23.97 7.1C25.2203 8.21207 26.2231 9.57432 26.9135 11.0986C27.6039 12.6228 27.9665 14.275 27.9778 15.9483C27.9891 17.6216 27.6489 19.2786 26.9792 20.812C26.3095 22.3454 25.3252 23.7211 24.09 24.85L24.11 24.84Z" fill="#212121"/>
</svg>
