<svg width="16" height="16" viewBox="0 0 16 16" fill="none" xmlns="http://www.w3.org/2000/svg">
<path d="M3 6C3 5.44772 3.44772 5 4 5H5C5.27614 5 5.5 5.22386 5.5 5.5C5.5 5.77614 5.27614 6 5 6H4V7C4 7.27614 3.77614 7.5 3.5 7.5C3.22386 7.5 3 7.27614 3 7V6Z" fill="#212121"/>
<path d="M13 6C13 5.44772 12.5523 5 12 5L11 5C10.7239 5 10.5 5.22386 10.5 5.5C10.5 5.77614 10.7239 6 11 6H12V7C12 7.27614 12.2239 7.5 12.5 7.5C12.7761 7.5 13 7.27614 13 7V6Z" fill="#212121"/>
<path d="M13 10C13 10.5523 12.5523 11 12 11H11C10.7239 11 10.5 10.7761 10.5 10.5C10.5 10.2239 10.7239 10 11 10H12V9C12 8.72386 12.2239 8.5 12.5 8.5C12.7761 8.5 13 8.72386 13 9V10Z" fill="#212121"/>
<path d="M3 10C3 10.5523 3.44772 11 4 11H5C5.27614 11 5.5 10.7761 5.5 10.5C5.5 10.2239 5.27614 10 5 10H4V9C4 8.72386 3.77614 8.5 3.5 8.5C3.22386 8.5 3 8.72386 3 9V10Z" fill="#212121"/>
<path d="M3 3C1.89543 3 1 3.89543 1 5V11C1 12.1046 1.89543 13 3 13H13C14.1046 13 15 12.1046 15 11V5C15 3.89543 14.1046 3 13 3H3ZM13 4C13.5523 4 14 4.44772 14 5V11C14 11.5523 13.5523 12 13 12H3C2.44772 12 2 11.5523 2 11V5C2 4.44772 2.44772 4 3 4H13Z" fill="#212121"/>
</svg>
