<svg width="24" height="24" viewBox="0 0 24 24" fill="none" xmlns="http://www.w3.org/2000/svg">
<path d="M12 10C16.4183 10 20 8.20914 20 6C20 3.79086 16.4183 2 12 2C7.58172 2 4 3.79086 4 6C4 8.20914 7.58172 10 12 10ZM18.3277 10.1701C18.9156 9.87611 19.4979 9.50399 20 9.05337V11.4982C19.2304 11.1772 18.3859 11 17.5 11C13.9101 11 11 13.9101 11 17.5C11 19.2369 11.6812 20.8147 12.7911 21.9807C12.5309 21.9935 12.267 22 12 22C7.58172 22 4 20.2091 4 18V9.05337C4.50211 9.50399 5.08441 9.87611 5.67233 10.1701C7.36922 11.0185 9.60849 11.5 12 11.5C14.3915 11.5 16.6308 11.0185 18.3277 10.1701ZM23 17.5C23 20.5376 20.5376 23 17.5 23C14.4624 23 12 20.5376 12 17.5C12 14.4624 14.4624 12 17.5 12C20.5376 12 23 14.4624 23 17.5ZM20.8536 15.1464C20.6583 14.9512 20.3417 14.9512 20.1464 15.1464L16.5 18.7929L14.8536 17.1464C14.6583 16.9512 14.3417 16.9512 14.1464 17.1464C13.9512 17.3417 13.9512 17.6583 14.1464 17.8536L16.1464 19.8536C16.3417 20.0488 16.6583 20.0488 16.8536 19.8536L20.8536 15.8536C21.0488 15.6583 21.0488 15.3417 20.8536 15.1464Z" fill="#212121"/>
</svg>
