<svg width="20" height="20" viewBox="0 0 20 20" fill="none" xmlns="http://www.w3.org/2000/svg">
<path d="M2.85355 2.14645C2.65829 1.95118 2.34171 1.95118 2.14645 2.14645C1.95118 2.34171 1.95118 2.65829 2.14645 2.85355L3.3054 4.01251C2.56891 4.10791 2 4.73752 2 5.5V12.5C2 13.3284 2.67157 14 3.5 14H13.2929L14.2929 15H4.08545C4.29137 15.5826 4.84699 16 5.5001 16H14.5001C14.7465 16 14.9869 15.9745 15.219 15.9261L17.1464 17.8536C17.3417 18.0488 17.6583 18.0488 17.8536 17.8536C18.0488 17.6583 18.0488 17.3417 17.8536 17.1464L2.85355 2.14645ZM12 12.7071V13H6V12C6 10.8954 5.10457 10 4 10H3V8H4C4.89118 8 5.64622 7.41712 5.90469 6.6118L7.27691 7.98402C7.10096 8.28177 7 8.6291 7 9C7 10.1046 7.89543 11 9 11C9.3709 11 9.71823 10.899 10.016 10.7231L12 12.7071ZM4.29289 5L5 5.70711V6C5 6.55228 4.55228 7 4 7H3V5.5C3 5.22386 3.22386 5 3.5 5H4.29289ZM8.03387 8.74098L9.25902 9.96613C9.17641 9.98822 9.08958 10 9 10C8.44772 10 8 9.55228 8 9C8 8.91042 8.01178 8.82359 8.03387 8.74098ZM3.5 13C3.22386 13 3 12.7761 3 12.5V11H4C4.55228 11 5 11.4477 5 12V13H3.5ZM14 10C13.4775 10 13.0019 10.2003 12.6456 10.5284L13.3539 11.2367C13.5282 11.089 13.7537 11 14 11H15V12.5C15 12.6081 14.9657 12.7083 14.9073 12.7901L15.6177 13.5004C15.8554 13.235 16 12.8844 16 12.5V5.5C16 4.67157 15.3284 4 14.5 4H6.11726L7.11726 5H12V6C12 7.10457 12.8954 8 14 8H15V10H14ZM14.5 5C14.7761 5 15 5.22386 15 5.5V7H14C13.4477 7 13 6.55228 13 6V5H14.5ZM16.3255 14.2082L17.0329 14.9156C17.6321 14.2874 18.0001 13.4367 18.0001 12.5V7.49997C18.0001 6.84686 17.5827 6.29125 17.0001 6.08533V12.5C17.0001 13.1605 16.7439 13.7613 16.3255 14.2082Z" fill="#212121"/>
</svg>
