<svg width="20" height="20" viewBox="0 0 20 20" fill="none" xmlns="http://www.w3.org/2000/svg">
<path d="M10.2212 2.43138C10.3198 2.48005 10.3996 2.55986 10.4483 2.65847L12.645 7.1094L17.5568 7.82314C17.8301 7.86285 18.0195 8.11657 17.9798 8.38984C17.9639 8.49866 17.9127 8.59923 17.834 8.67598L16.9249 9.56206C16.1934 9.20215 15.3703 9 14.5 9C11.4624 9 9 11.4624 9 14.5C9 14.9143 9.0458 15.3179 9.13262 15.7059L5.60659 17.5597C5.36217 17.6882 5.05985 17.5942 4.93135 17.3498C4.88018 17.2525 4.86253 17.141 4.88111 17.0326L5.72017 12.1406L2.16589 8.67598C1.96815 8.48323 1.9641 8.16668 2.15685 7.96894C2.2336 7.89019 2.33418 7.83895 2.44299 7.82314L7.35489 7.1094L9.55155 2.65847C9.67376 2.41084 9.97358 2.30917 10.2212 2.43138Z" fill="#212121"/>
<path d="M10 14.5C10 16.9853 12.0147 19 14.5 19C16.9853 19 19 16.9853 19 14.5C19 12.0147 16.9853 10 14.5 10C12.0147 10 10 12.0147 10 14.5ZM11 14.5C11 12.567 12.567 11 14.5 11C15.2862 11 16.0118 11.2592 16.5961 11.6968L11.6968 16.5961C11.2592 16.0118 11 15.2862 11 14.5ZM14.5 18C13.7138 18 12.9882 17.7408 12.4039 17.3032L17.3032 12.4039C17.7408 12.9882 18 13.7138 18 14.5C18 16.433 16.433 18 14.5 18Z" fill="#212121"/>
</svg>
