<svg width="16" height="16" viewBox="0 0 16 16" fill="none" xmlns="http://www.w3.org/2000/svg">
<path d="M5.75771 5.41369L7.55167 1.77872C7.73508 1.40709 8.265 1.40709 8.44841 1.77872L10.0473 5.01837C7.22149 5.2486 5 7.61487 5 10.5C5 11.5828 5.31288 12.5924 5.85316 13.4436L4.41211 14.2012C4.04529 14.394 3.61658 14.0825 3.68663 13.6741L4.37187 9.67887L1.46917 6.84943C1.17241 6.56016 1.33616 6.05618 1.74627 5.99659L5.75771 5.41369Z" fill="#212121"/>
<path d="M6 10.5C6 12.9853 8.01472 15 10.5 15C12.9853 15 15 12.9853 15 10.5C15 8.01472 12.9853 6 10.5 6C8.01472 6 6 8.01472 6 10.5ZM7 10.5C7 8.567 8.567 7 10.5 7C11.2862 7 12.0118 7.2592 12.5961 7.69681L7.69681 12.5961C7.2592 12.0118 7 11.2862 7 10.5ZM10.5 14C9.71383 14 8.9882 13.7408 8.40391 13.3032L13.3032 8.40391C13.7408 8.9882 14 9.71383 14 10.5C14 12.433 12.433 14 10.5 14Z" fill="#212121"/>
</svg>
