<svg width="16" height="16" viewBox="0 0 16 16" fill="none" xmlns="http://www.w3.org/2000/svg">
<path d="M1 1.75098C1 1.33676 1.33579 1.00098 1.75 1.00098L9.66126 1.19929C12.7253 1.94506 15 4.70738 15 8.00098L15 8.00301C14.9993 9.71582 14.3834 11.2848 13.3613 12.501H11.1617C12.5758 11.5058 13.4998 9.86106 13.5 8.00049C13.4997 4.96315 11.0374 2.50098 8 2.50098H1.75C1.33579 2.50098 1 2.16519 1 1.75098ZM1 8.00074C1 11.8667 4.13401 15.001 8 15.001H14.25C14.6642 15.001 15 14.6652 15 14.251C15 13.8368 14.6642 13.501 14.25 13.501H8C7.49063 13.501 6.99744 13.4317 6.52931 13.3021C4.20556 12.6591 2.5 10.5284 2.5 8.00001C2.5 6.14046 3.42284 4.49646 4.83553 3.50099H2.63707C1.61535 4.71762 1 6.28768 1 8.00074ZM8 5C8.41421 5 8.75 5.33579 8.75 5.75V7.25H10.25C10.6642 7.25 11 7.58579 11 8C11 8.41421 10.6642 8.75 10.25 8.75H8.75V10.25C8.75 10.6642 8.41421 11 8 11C7.58579 11 7.25 10.6642 7.25 10.25V8.75H5.75C5.33579 8.75 5 8.41421 5 8C5 7.58579 5.33579 7.25 5.75 7.25H7.25V5.75C7.25 5.33579 7.58579 5 8 5Z" fill="#212121"/>
</svg>
