<svg width="20" height="20" viewBox="0 0 20 20" fill="none" xmlns="http://www.w3.org/2000/svg">
<path d="M5.5 6C5.22386 6 5 6.22386 5 6.5C5 6.77614 5.22386 7 5.5 7H12.5C12.7761 7 13 6.77614 13 6.5C13 6.22386 12.7761 6 12.5 6H5.5Z" fill="#212121"/>
<path d="M6.5 12C7.32843 12 8 11.3284 8 10.5C8 9.67157 7.32843 9 6.5 9C5.67157 9 5 9.67157 5 10.5C5 11.3284 5.67157 12 6.5 12ZM6.5 11C6.22386 11 6 10.7761 6 10.5C6 10.2239 6.22386 10 6.5 10C6.77614 10 7 10.2239 7 10.5C7 10.7761 6.77614 11 6.5 11Z" fill="#212121"/>
<path d="M9.5 10C9.22386 10 9 10.2239 9 10.5C9 10.7761 9.22386 11 9.5 11H12.5C12.7761 11 13 10.7761 13 10.5C13 10.2239 12.7761 10 12.5 10H9.5Z" fill="#212121"/>
<path d="M3 6C3 4.34315 4.34315 3 6 3H12C13.6569 3 15 4.34315 15 6V12C15 13.6569 13.6569 15 12 15H6C4.34315 15 3 13.6569 3 12V6ZM6 4C4.89543 4 4 4.89543 4 6V12C4 12.3709 4.10096 12.7182 4.27691 13.016C4.44899 13.3072 4.69279 13.551 4.98401 13.7231C5.28177 13.899 5.62909 14 6 14H12C12.3709 14 12.7182 13.899 13.016 13.7231C13.3072 13.551 13.551 13.3072 13.7231 13.016C13.899 12.7182 14 12.3709 14 12V6C14 4.89543 13.1046 4 12 4H6Z" fill="#212121"/>
<path d="M8.00002 17C7.11152 17 6.31324 16.6138 5.76392 16H12.5C14.3122 16 15.8027 14.6228 15.982 12.8579C15.9939 12.7402 16 12.6208 16 12.5V5.76392C16.6138 6.31324 17 7.11152 17 8.00002V12.5C17 14.9853 14.9853 17 12.5 17H8.00002Z" fill="#212121"/>
</svg>
