<svg width="16" height="16" viewBox="0 0 16 16" fill="none" xmlns="http://www.w3.org/2000/svg">
<path d="M7.23028 2.5C7.23028 2.22386 7.00642 2 6.73028 2H2.49951C2.22337 2 1.99951 2.22386 1.99951 2.5V6.73077C1.99951 7.00691 2.22337 7.23077 2.49951 7.23077C2.77565 7.23077 2.99951 7.00691 2.99951 6.73077V3.70688L6.37673 7.0841C6.57199 7.27936 6.88857 7.27936 7.08383 7.0841C7.2791 6.88883 7.2791 6.57225 7.08383 6.37699L3.70684 3H6.73028C7.00642 3 7.23028 2.77614 7.23028 2.5ZM12.9998 4.5C12.9998 3.67157 12.3282 3 11.4998 3H9.26904C8.9929 3 8.76904 2.77614 8.76904 2.5C8.76904 2.22386 8.9929 2 9.26904 2H11.4998C12.8805 2 13.9998 3.11929 13.9998 4.5V11.5C13.9998 12.8807 12.8805 14 11.4998 14H4.49981C3.1191 14 1.99981 12.8807 1.99981 11.5V9.26923C1.99981 8.99309 2.22367 8.76923 2.49981 8.76923C2.77595 8.76923 2.99981 8.99309 2.99981 9.26923V11.5C2.99981 12.3284 3.67138 13 4.49981 13H7.99981V9.76923C7.99981 8.79211 8.79192 8 9.76904 8H12.9998V4.5ZM12.9998 9H9.76904C9.34421 9 8.99981 9.3444 8.99981 9.76923V13H11.4998C12.3282 13 12.9998 12.3284 12.9998 11.5V9Z" fill="#212121"/>
</svg>
