<svg width="24" height="24" viewBox="0 0 24 24" fill="none" xmlns="http://www.w3.org/2000/svg">
<path d="M13.4819 17.7319L12.7067 16.9567L15.189 14.4745C16.5558 13.1077 16.5558 10.8916 15.189 9.52475L12.7067 7.04251L13.4819 6.26739C14.4582 5.29108 16.0411 5.29108 17.0174 6.26739L20.9819 10.2319C21.9582 11.2082 21.9582 12.7911 20.9819 13.7674L17.0174 17.7319C16.0411 18.7082 14.4582 18.7082 13.4819 17.7319ZM14.4819 13.7674C15.4582 12.7911 15.4582 11.2082 14.4819 10.2319L10.5174 6.26739C9.54108 5.29108 7.95816 5.29108 6.98185 6.26739L3.01739 10.2319C2.04108 11.2082 2.04108 12.7911 3.01739 13.7674L6.98185 17.7319C7.95817 18.7082 9.54108 18.7082 10.5174 17.7319L14.4819 13.7674Z" fill="#212121"/>
</svg>
