<svg width="28" height="28" viewBox="0 0 28 28" fill="none" xmlns="http://www.w3.org/2000/svg">
<path d="M22.9697 6.22852C23.897 6.91122 24.499 8.01015 24.499 9.25V18.25C24.499 21.7018 21.7008 24.5 18.249 24.5H9.24902C8.00869 24.5 6.9092 23.8977 6.22656 22.9697C6.3982 22.9885 6.57239 23 6.74902 23H18.249C20.8724 23 22.999 20.8734 22.999 18.25V6.75C22.999 6.57373 22.9884 6.39981 22.9697 6.22852ZM18.25 3C20.3211 3 22 4.67893 22 6.75V18.25C22 20.3211 20.3211 22 18.25 22H6.75C4.67893 22 3 20.3211 3 18.25V6.75C3 4.67893 4.67893 3 6.75 3H18.25ZM16 20.5H18.25C19.4926 20.5 20.5 19.4926 20.5 18.25V16H16V20.5ZM10.5 20.5H14.5V16H10.5V20.5ZM4.5 18.25C4.5 19.4926 5.50736 20.5 6.75 20.5H9V16H4.5V18.25ZM16 14.5H20.5V10.5H16V14.5ZM10.5 14.5H14.5V10.5H10.5V14.5ZM4.5 14.5H9V10.5H4.5V14.5ZM16 9H20.5V6.75C20.5 5.50736 19.4926 4.5 18.25 4.5H16V9ZM10.5 9H14.5V4.5H10.5V9ZM6.75 4.5C5.50736 4.5 4.5 5.50736 4.5 6.75V9H9V4.5H6.75Z" fill="#212121"/>
</svg>
