<svg width="20" height="20" viewBox="0 0 20 20" fill="none" xmlns="http://www.w3.org/2000/svg">
<path d="M12.0529 3.2765C12.1764 3.02951 12.4767 2.9294 12.7237 3.0529L14.5001 3.94109L16.2765 3.0529C16.5235 2.9294 16.8238 3.02951 16.9473 3.2765C17.0708 3.52349 16.9707 3.82383 16.7237 3.94732L14.7237 4.94732C14.583 5.0177 14.4173 5.0177 14.2765 4.94732L12.2765 3.94732C12.0295 3.82383 11.9294 3.52349 12.0529 3.2765Z" fill="#212121"/>
<path d="M10.0001 5.00012C10.2063 5.00012 10.3914 5.12671 10.4661 5.3189L13.9661 14.3189C14.0662 14.5763 13.9387 14.866 13.6814 14.9661C13.424 15.0662 13.1342 14.9387 13.0341 14.6813L11.9914 12.0001H8.00883L6.96614 14.6813C6.86605 14.9387 6.57628 15.0662 6.31891 14.9661C6.06155 14.866 5.93405 14.5763 6.03413 14.3189L9.53413 5.3189C9.60887 5.12671 9.79393 5.00012 10.0001 5.00012ZM8.39772 11.0001H11.6025L10.0001 6.87964L8.39772 11.0001Z" fill="#212121"/>
</svg>
