<svg width="16" height="16" viewBox="0 0 16 16" fill="none" xmlns="http://www.w3.org/2000/svg">
<path d="M8.2945 3.64494C8.70006 3.2168 9.07513 3.20021 9.38205 3.30066C9.5543 3.35703 9.6698 3.47729 9.72012 3.60114C9.76635 3.71491 9.76395 3.84101 9.67807 3.97168C9.60222 4.0871 9.48829 4.15872 9.3267 4.20272C9.18974 4.24 9.05428 4.2479 8.93556 4.24957C8.91404 4.24955 8.89518 4.24971 8.87928 4.24984L8.85 4.25001C8.43579 4.25001 8.1 4.5858 8.1 5.00001C8.1 5.41423 8.43579 5.75001 8.85 5.75001L8.87921 5.75019C8.89514 5.75032 8.91401 5.75047 8.93557 5.75046C9.05428 5.75213 9.18974 5.76003 9.32669 5.79731C9.48829 5.84131 9.60221 5.91294 9.67807 6.02836C9.76396 6.15903 9.76635 6.28513 9.72012 6.3989C9.66979 6.52275 9.55429 6.64301 9.38205 6.69938C9.07513 6.79983 8.70006 6.78325 8.2945 6.3551C8.00964 6.05438 7.53494 6.04152 7.23423 6.32638C6.93351 6.61123 6.92065 7.08593 7.20551 7.38665C8.021 8.24755 9.00618 8.40068 9.84861 8.12497C10.997 7.74914 11.7024 6.37727 10.9316 5.20452C10.8831 5.13082 10.8318 5.0628 10.778 5.00002C10.8318 4.93724 10.8831 4.86922 10.9316 4.79553C11.7024 3.62277 10.997 2.2509 9.84861 1.87507C9.00618 1.59936 8.021 1.75249 7.20551 2.61339C6.92065 2.91411 6.93351 3.38881 7.23423 3.67366C7.53494 3.95852 8.00964 3.94566 8.2945 3.64494ZM1.75 2C2.16421 2 2.5 2.33579 2.5 2.75L2.5 4.25H4.5L4.5 2.75099C4.5 2.33677 4.83579 2.00099 5.25 2.00099C5.66421 2.00099 6 2.33677 6 2.75099V7.24665C6 7.66087 5.66421 7.99665 5.25 7.99665C4.83579 7.99665 4.5 7.66087 4.5 7.24665V5.75H2.5V7.25C2.5 7.66421 2.16421 8 1.75 8C1.33579 8 1 7.66421 1 7.25V2.75C1 2.33579 1.33579 2 1.75 2ZM1 13.248C1 12.8338 1.33579 12.498 1.75 12.498H14.25C14.6642 12.498 15 12.8338 15 13.248C15 13.6622 14.6642 13.998 14.25 13.998H1.75C1.33579 13.998 1 13.6622 1 13.248ZM1.75 9.5C1.33579 9.5 1 9.83579 1 10.25C1 10.6642 1.33579 11 1.75 11H14.25C14.6642 11 15 10.6642 15 10.25C15 9.83579 14.6642 9.5 14.25 9.5H1.75Z" fill="#212121"/>
</svg>
