<svg width="16" height="16" viewBox="0 0 16 16" fill="none" xmlns="http://www.w3.org/2000/svg">
<path d="M8 9.19433C7.99995 8.74982 8.18952 8.37819 8.47111 8.1177C8.33073 8.04259 8.17034 8 8 8C7.44772 8 7 8.44772 7 9C7 9.55229 7.44772 10 8 10V9.19433ZM11.5 5C12.1761 5 12.7477 5.44731 12.9351 6.06213C13.1827 6.13453 13.4149 6.27021 13.6046 6.46916C13.7191 6.58934 13.8521 6.71813 14 6.84597V6.5C14 5.11929 12.8807 4 11.5 4H11V3.5C11 1.84315 9.65685 0.5 8 0.5C6.34315 0.5 5 1.84315 5 3.5V4H4.5C3.11929 4 2 5.11929 2 6.5V11.5C2 12.8807 3.11929 14 4.5 14H8.57579C8.42051 13.6947 8.28921 13.3618 8.19141 13H4.5C3.67157 13 3 12.3284 3 11.5V6.5C3 5.67157 3.67157 5 4.5 5H11.5ZM6 3.5C6 2.39543 6.89543 1.5 8 1.5C9.10457 1.5 10 2.39543 10 3.5V4H6V3.5ZM12.8808 7.15916C13.3885 7.69172 14.364 8.53857 15.5637 8.71231C15.8029 8.74696 16 8.94558 16 9.19415V11.5166C16 14.6388 13.216 15.7719 12.6141 15.9804C12.5387 16.0065 12.4618 16.0065 12.3864 15.9804C11.7845 15.7719 9.00027 14.6388 9.00027 11.5166L9 9.19421C8.99997 8.94561 9.19706 8.74696 9.43634 8.71229C10.6358 8.5385 11.6114 7.69165 12.1191 7.15912C12.3214 6.94694 12.6785 6.94697 12.8808 7.15916Z" fill="#212121"/>
</svg>
