<svg width="28" height="28" viewBox="0 0 28 28" fill="none" xmlns="http://www.w3.org/2000/svg">
<path d="M20.9014 14.2295C21.2193 13.9231 21.7808 13.9231 22.0986 14.2295C22.8964 14.9987 24.4292 16.2227 26.3145 16.4736C26.6902 16.5237 26.9998 16.8101 27 17.1689V20.5244C26.9997 25.0333 22.6262 26.6702 21.6797 26.9717C21.5613 27.0094 21.4397 27.0094 21.3213 26.9717C20.375 26.6704 16.0003 25.0336 16 20.5244V17.1689C16.0002 16.8101 16.3098 16.5238 16.6855 16.4736C18.5704 16.2226 20.1035 14.9987 20.9014 14.2295ZM14 2C17.0376 2 19.5 4.46243 19.5 7.5V10.0088C21.4378 10.1364 22.972 11.7353 22.998 13.6992L22.792 13.5098L22.6553 13.3906C22.2876 13.1027 21.8238 12.9745 21.3701 13.0049C21.0623 12.129 20.2311 11.5 19.25 11.5H8.75C7.50736 11.5 6.5 12.5074 6.5 13.75V22.25C6.50018 23.4925 7.50747 24.5 8.75 24.5H16.207C16.6079 25.0865 17.0751 25.5839 17.5576 26H8.75C6.67904 26 5.00018 24.3209 5 22.25V13.75C5 11.763 6.54551 10.1375 8.5 10.0088V7.5C8.5 4.46243 10.9624 2 14 2ZM14 16.5C14.3956 16.5 14.7545 16.6541 15.0225 16.9043C15.009 16.9896 15 17.0779 15 17.1699V19.1152C14.7345 19.3535 14.3849 19.5 14 19.5C13.1716 19.5 12.5 18.8284 12.5 18C12.5 17.1716 13.1716 16.5 14 16.5ZM14 3.5C11.7909 3.5 10 5.29086 10 7.5V10H18V7.5C18 5.29086 16.2091 3.5 14 3.5Z" fill="#212121"/>
</svg>
