<svg width="24" height="24" viewBox="0 0 24 24" fill="none" xmlns="http://www.w3.org/2000/svg">
<path d="M10.5 14C10.5 14.8284 11.1716 15.5 12 15.5V14.6854C12 13.8671 12.6041 13.3136 13.2326 13.145C12.9617 12.7552 12.5107 12.5 12 12.5C11.1716 12.5 10.5 13.1716 10.5 14ZM7.25 19.5H12.3053C12.4771 20.0294 12.7203 20.5312 13.0326 21H7.25C5.45507 21 4 19.5449 4 17.75V10.25C4 8.45507 5.45507 7 7.25 7H8V6C8 3.79086 9.79086 2 12 2C14.2091 2 16 3.79086 16 6V7H16.75C18.5449 7 20 8.45507 20 10.25V12.5191C19.4374 12.183 18.9809 11.7779 18.69 11.4872C18.6302 11.4274 18.5666 11.3731 18.5 11.3243V10.25C18.5 9.2835 17.7165 8.5 16.75 8.5H7.25C6.2835 8.5 5.5 9.2835 5.5 10.25V17.75C5.5 18.7165 6.2835 19.5 7.25 19.5ZM12 3.5C10.6193 3.5 9.5 4.61929 9.5 6V7H14.5V6C14.5 4.61929 13.3807 3.5 12 3.5ZM17.9896 12.1945C18.6423 12.8454 19.8965 13.8805 21.439 14.0928C21.7466 14.1352 22 14.3779 22 14.6817V17.5203C22 21.3363 18.4206 22.7212 17.6467 22.9761C17.5498 23.008 17.4509 23.008 17.354 22.9761C16.5801 22.7213 13.0003 21.3363 13.0003 17.5203L13 14.6818C13 14.378 13.2534 14.1352 13.561 14.0928C15.1032 13.8804 16.3575 12.8454 17.0103 12.1945C17.2704 11.9351 17.7295 11.9352 17.9896 12.1945Z" fill="#212121"/>
</svg>
