<svg width="16" height="16" viewBox="0 0 16 16" fill="none" xmlns="http://www.w3.org/2000/svg">
<g clip-path="url(#clip0_69829_23990)">
<path d="M2 4.5C2 3.11929 3.11929 2 4.5 2H11.5C12.8807 2 14 3.11929 14 4.5V7.37868L13.0607 6.43934C13.0408 6.41953 13.0206 6.40038 13 6.38191V4.5C13 3.67157 12.3284 3 11.5 3H4.5C3.67157 3 3 3.67157 3 4.5V11.5C3 12.3284 3.67157 13 4.5 13H6.2912C6.42221 13.3237 6.59424 13.6264 6.80076 13.9013C6.82656 13.9356 6.85355 13.9685 6.88163 14H4.5C3.11929 14 2 12.8807 2 11.5V4.5ZM7.35418 8.5H5.5C5.22386 8.5 5 8.27614 5 8C5 7.72386 5.22386 7.5 5.5 7.5L10 7.5C8.98555 7.5 8.05931 7.87764 7.35418 8.5ZM10.5 6C10.7761 6 11 5.77614 11 5.5C11 5.22386 10.7761 5 10.5 5L5.5 5C5.22386 5 5 5.22386 5 5.5C5 5.77614 5.22386 6 5.5 6L10.5 6ZM12.3536 7.14645C12.1583 6.95118 11.8417 6.95118 11.6464 7.14645C11.4512 7.34171 11.4512 7.65829 11.6464 7.85355L12.2929 8.5H10C8.34315 8.5 7 9.84315 7 11.5C7 12.1749 7.22347 12.7991 7.60025 13.3006C7.76613 13.5214 8.07956 13.5659 8.30034 13.4C8.52111 13.2341 8.56562 12.9207 8.39975 12.6999C8.14862 12.3657 8 11.9509 8 11.5C8 10.3954 8.89543 9.5 10 9.5H12.2929L11.6464 10.1464C11.4512 10.3417 11.4512 10.6583 11.6464 10.8536C11.8417 11.0488 12.1583 11.0488 12.3536 10.8536L13.8536 9.35355C14.0488 9.15829 14.0488 8.84171 13.8536 8.64645L12.3536 7.14645ZM15.4 9.69971C15.2341 9.47892 14.9207 9.43437 14.6999 9.60022C14.4791 9.76606 14.4346 10.0795 14.6004 10.3003C14.8514 10.6345 15 11.0492 15 11.5C15 12.6046 14.1046 13.5 13 13.5H10.7071L11.3536 12.8536C11.5488 12.6583 11.5488 12.3417 11.3536 12.1464C11.1583 11.9512 10.8417 11.9512 10.6464 12.1464L9.14645 13.6464C8.95118 13.8417 8.95118 14.1583 9.14645 14.3536L10.6464 15.8536C10.8417 16.0488 11.1583 16.0488 11.3536 15.8536C11.5488 15.6583 11.5488 15.3417 11.3536 15.1464L10.7071 14.5H13C14.6569 14.5 16 13.1569 16 11.5C16 10.8252 15.7766 10.2012 15.4 9.69971Z" fill="#212121"/>
</g>
<defs>
<clipPath id="clip0_69829_23990">
<rect width="16" height="16" fill="white"/>
</clipPath>
</defs>
</svg>
