<svg width="20" height="20" viewBox="0 0 20 20" fill="none" xmlns="http://www.w3.org/2000/svg">
<path d="M9.20907 12.9928C9.62981 11.513 10.6546 10.2875 12 9.59971V5C12 3.34315 10.6569 2 9 2C7.34315 2 6 3.34315 6 5V9.99998C6 11.6568 7.34315 13 9 13C9.07028 13 9.14 12.9976 9.20907 12.9928ZM9.5 17.5V16.7945C9.179 16.0961 9 15.319 9 14.5C6.51472 14.5 4.5 12.4853 4.5 9.99998C4.5 9.72384 4.27614 9.49998 4 9.49998C3.72386 9.49998 3.5 9.72384 3.5 9.99998C3.5 12.869 5.69675 15.2249 8.5 15.4776V17.5C8.5 17.7761 8.72386 18 9 18C9.27614 18 9.5 17.7761 9.5 17.5ZM14.5 19C12.0147 19 10 16.9853 10 14.5C10 12.0147 12.0147 10 14.5 10C16.9853 10 19 12.0147 19 14.5C19 16.9853 16.9853 19 14.5 19ZM14.5 11C12.567 11 11 12.567 11 14.5C11 15.2862 11.2592 16.0118 11.6968 16.5961L16.5961 11.6968C16.0118 11.2592 15.2862 11 14.5 11ZM12.4039 17.3032C12.9882 17.7408 13.7138 18 14.5 18C16.433 18 18 16.433 18 14.5C18 13.7138 17.7408 12.9882 17.3032 12.4039L12.4039 17.3032Z" fill="#212121"/>
</svg>
