<svg width="28" height="28" viewBox="0 0 28 28" fill="none" xmlns="http://www.w3.org/2000/svg">
<path d="M8.77637 18.168C9.07095 17.9277 9.50568 17.9451 9.78027 18.2197C10.0548 18.4943 10.0723 18.9291 9.83203 19.2236L9.78027 19.2803L5.56055 23.5H8.25C8.66421 23.5 9 23.8358 9 24.25C9 24.6642 8.66421 25 8.25 25H3.75C3.33579 25 3 24.6642 3 24.25V19.75C3 19.3358 3.33579 19 3.75 19C4.16421 19 4.5 19.3358 4.5 19.75V22.4395L8.71973 18.2197L8.77637 18.168ZM18.2197 18.2197C18.4943 17.9451 18.9291 17.9277 19.2236 18.168L19.2803 18.2197L23.5 22.4395V19.75C23.5 19.3358 23.8358 19 24.25 19C24.6642 19 25 19.3358 25 19.75V24.25C25 24.6642 24.6642 25 24.25 25H19.75C19.3358 25 19 24.6642 19 24.25C19 23.8358 19.3358 23.5 19.75 23.5H22.4395L18.2197 19.2803L18.168 19.2236C17.9277 18.9291 17.9452 18.4943 18.2197 18.2197ZM8.25 3C8.66421 3 9 3.33579 9 3.75C9 4.16421 8.66421 4.5 8.25 4.5H5.56055L9.78027 8.71973L9.83203 8.77637C10.0723 9.07094 10.0548 9.50568 9.78027 9.78027C9.50568 10.0549 9.07095 10.0723 8.77637 9.83203L8.71973 9.78027L4.5 5.56055V8.25C4.5 8.66421 4.16421 9 3.75 9C3.33579 9 3 8.66421 3 8.25V3.75C3 3.33579 3.33579 3 3.75 3H8.25ZM24.25 3C24.6642 3 25 3.33579 25 3.75V8.25C25 8.66421 24.6642 9 24.25 9C23.8358 9 23.5 8.66421 23.5 8.25V5.56055L19.2803 9.78027L19.2236 9.83203C18.9291 10.0723 18.4943 10.0549 18.2197 9.78027C17.9452 9.50568 17.9277 9.07094 18.168 8.77637L18.2197 8.71973L22.4395 4.5H19.75C19.3358 4.5 19 4.16421 19 3.75C19 3.33579 19.3358 3 19.75 3H24.25Z" fill="#212121"/>
</svg>
