<svg width="16" height="16" viewBox="0 0 16 16" fill="none" xmlns="http://www.w3.org/2000/svg">
<path d="M4 5.021V12.5C4 12.979 4.956 13.628 6.545 13.887C6.734 14.277 6.968 14.642 7.239 14.974C4.775 14.801 3 13.795 3 12.5V3.5C3 2.075 5.149 1 8 1C10.851 1 13 2.075 13 3.5V6.208C12.678 6.117 12.343 6.054 12 6.023V5.021C10.786 5.719 9.399 6.058 8 6C6.601 6.058 5.214 5.719 4 5.021ZM12 3.5C12 2.888 10.441 2 8 2C5.558 2 4 2.888 4 3.5C4 4.112 5.559 5 8 5C10.441 5 12 4.112 12 3.5ZM11.5 7C13.9853 7 16 9.01472 16 11.5C16 13.9853 13.9853 16 11.5 16C9.01472 16 7 13.9853 7 11.5C7 9.01472 9.01472 7 11.5 7ZM13.8532 11.854L13.8557 11.8514C13.9026 11.804 13.938 11.7495 13.9621 11.6914C13.9861 11.6333 13.9996 11.5697 14 11.503L14 11.5L14 11.497C13.9996 11.4303 13.9861 11.3667 13.9621 11.3086C13.9377 11.2496 13.9015 11.1944 13.8536 11.1464L11.8536 9.14645C11.6583 8.95118 11.3417 8.95118 11.1464 9.14645C10.9512 9.34171 10.9512 9.65829 11.1464 9.85355L12.2929 11H9.5C9.22386 11 9 11.2239 9 11.5C9 11.7761 9.22386 12 9.5 12H12.2929L11.1464 13.1464C10.9512 13.3417 10.9512 13.6583 11.1464 13.8536C11.3417 14.0488 11.6583 14.0488 11.8536 13.8536L13.8532 11.854Z" fill="#212121"/>
</svg>
