<svg width="28" height="28" viewBox="0 0 28 28" fill="none" xmlns="http://www.w3.org/2000/svg">
<path d="M5 4.5C5 3.67157 5.67157 3 6.5 3H14V9.5C14 10.8807 15.1193 12 16.5 12H23V23.5C23 24.3284 22.3284 25 21.5 25H6.5C5.67157 25 5 24.3284 5 23.5V4.5ZM22.9636 11H16.5C15.6716 11 15 10.3284 15 9.5V3.03639C15.2752 3.09814 15.5297 3.23678 15.7322 3.43934L22.5607 10.2678C22.7632 10.4703 22.9019 10.7248 22.9636 11ZM6.5 2C5.11929 2 4 3.11929 4 4.5V23.5C4 24.8807 5.11929 26 6.5 26H21.5C22.8807 26 24 24.8807 24 23.5V11.3284C24 10.6654 23.7366 10.0295 23.2678 9.56066L16.4393 2.73223C15.9705 2.26339 15.3346 2 14.6716 2H6.5Z" fill="#212121"/>
</svg>
