<?xml version="1.0" encoding="UTF-8"?>
<svg width="24px" height="24px" viewBox="0 0 24 24" version="1.1" xmlns="http://www.w3.org/2000/svg" xmlns:xlink="http://www.w3.org/1999/xlink">
    <!-- Generator: Sketch 59.1 (86144) - https://sketch.com -->
    <title>ic_fluent_document_24_light</title>
    <desc>Created with Sketch.</desc>
    <g id="ðŸ”-Product-Icons" stroke="none" stroke-width="1" fill="none" fill-rule="evenodd">
        <g id="ic_fluent_document_24_light" fill="#212121" fill-rule="nonzero">
            <path d="M12.12868,2 C12.6591129,2 13.1678203,2.21071324 13.542893,2.585786 C17.2070585,6.24995149 19.1641655,8.20705849 19.414214,8.457107 C19.7892867,8.83217976 20,9.34088702 20,9.87132 C20,10.224942 20,13.684502 20,20.25 C20,21.2164983 19.2164983,22 18.25,22 L5.75,22 C4.78350169,22 4,21.2164983 4,20.25 L4,3.75 C4,2.78350169 4.78350169,2 5.75,2 L12.12868,2 Z M11.87868,3 L5.75,3 C5.33578644,3 5,3.33578644 5,3.75 L5,20.25 C5,20.6642136 5.33578644,21 5.75,21 L18.25,21 C18.6642136,21 19,20.6642136 19,20.25 L19,10.12132 C19,10.0808008 18.9975407,10.0405356 18.992705,10.000723 L14,10 C13.0818266,10 12.0788075,9.04288973 12.005801,8.14352721 L12,8 L12,3.007 L11.87868,3 Z M18.5,9 L13,3.5 L13,8 C13,8.37969577 13.62,9 14,9 L18.5,9 Z" id="ðŸŽ¨-Color"></path>
        </g>
    </g>
</svg>