<svg width="16" height="16" viewBox="0 0 16 16" fill="none" xmlns="http://www.w3.org/2000/svg">
<path d="M4.75044 2C4.95886 2.00001 5.14541 2.1293 5.21859 2.32446L6.94545 6.92998L6.40195 8.32877L6.09079 7.4989H3.40959L2.96829 8.67555C2.87132 8.9341 2.58311 9.06509 2.32455 8.96812C2.066 8.87115 1.93501 8.58294 2.03198 8.32438L4.28226 2.32442C4.35545 2.12927 4.54201 1.99999 4.75044 2ZM3.78464 6.4989H5.71583L4.75036 3.92399L3.78464 6.4989ZM6.70303 10.315C6.70008 10.3221 6.69729 10.3293 6.69466 10.3366L5.65979 13H5.50012C5.22398 13 5.00012 13.2239 5.00012 13.5C5.00012 13.7761 5.22398 14 5.50012 14H5.93136C5.97755 14.0065 6.02375 14.0063 6.06875 14H7.50012C7.77626 14 8.00012 13.7761 8.00012 13.5C8.00012 13.2239 7.77626 13 7.50012 13H6.73263L7.50709 11.0068H11.4909L12.2672 13.0047H11.5028C11.2267 13.0047 11.0028 13.2285 11.0028 13.5047C11.0028 13.7808 11.2267 14.0047 11.5028 14.0047H12.9878C12.9946 14.0048 13.0013 14.0048 13.0081 14.0047H13.5058C13.7819 14.0047 14.0058 13.7808 14.0058 13.5047C14.0058 13.2285 13.7819 13.0047 13.5058 13.0047H13.34L9.96503 4.31861C9.89033 4.12635 9.70524 3.99969 9.49898 3.99969C9.29272 3.99969 9.10762 4.12635 9.03292 4.31861L6.70303 10.315ZM11.1023 10.0068H7.89563L9.49898 5.88026L11.1023 10.0068Z" fill="#212121"/>
</svg>
