<svg width="16" height="16" viewBox="0 0 16 16" fill="none" xmlns="http://www.w3.org/2000/svg">
<path d="M6.5 3C4.567 3 3 4.567 3 6.5C3 7.8962 3.81753 9.10145 5 9.66318V10.7439C3.25221 10.1262 2 8.45933 2 6.5C2 4.01472 4.01472 2 6.5 2C8.45933 2 10.1262 3.25221 10.7439 5H9.66318C9.10145 3.81753 7.8962 3 6.5 3ZM8 6C6.89543 6 6 6.89543 6 8V12C6 13.1046 6.89543 14 8 14H12C13.1046 14 14 13.1046 14 12V8C14 6.89543 13.1046 6 12 6H8ZM7 8C7 7.44772 7.44772 7 8 7H12C12.5523 7 13 7.44772 13 8V12C13 12.0896 12.9882 12.1764 12.9661 12.259L11.2374 10.5303C10.554 9.84691 9.44598 9.84691 8.76256 10.5303L7.03387 12.259C7.01178 12.1764 7 12.0896 7 12V8ZM7.74098 12.9661L9.46967 11.2374C9.76256 10.9445 10.2374 10.9445 10.5303 11.2374L12.259 12.9661C12.1764 12.9882 12.0896 13 12 13H8C7.91042 13 7.82359 12.9882 7.74098 12.9661ZM12.25 8.5C12.25 8.91421 11.9142 9.25 11.5 9.25C11.0858 9.25 10.75 8.91421 10.75 8.5C10.75 8.08579 11.0858 7.75 11.5 7.75C11.9142 7.75 12.25 8.08579 12.25 8.5Z" fill="#212121"/>
</svg>
