<?xml version="1.0" encoding="UTF-8"?>
<svg width="24px" height="24px" viewBox="0 0 24 24" version="1.1" xmlns="http://www.w3.org/2000/svg" xmlns:xlink="http://www.w3.org/1999/xlink">
    <!-- Generator: Sketch 61.2 (89653) - https://sketch.com -->
    <title>ic_fluent_duo_error_24_filled</title>
    <desc>Created with Sketch.</desc>
    <g id="ðŸ”-Product-Icons" stroke="none" stroke-width="1" fill="none" fill-rule="evenodd">
        <g id="ic_fluent_duo_error_24_filled" fill="#212121" fill-rule="nonzero">
            <path d="M21.9959613,9.9720736 L21.9951452,20.2487808 C21.9951452,21.2152792 21.2116435,21.9987808 20.2451452,21.9987808 L12.9975726,21.9987808 C12.9108011,21.9987808 12.8255047,21.9924656 12.7421178,21.9802696 L12.7425274,11.8045468 C13.8034596,12.5574211 15.1000449,13 16.5,13 C18.8130614,13 20.843934,11.7918058 21.9959613,9.9720736 Z M10.018829,6.00152419 C10.0063522,6.16604752 10,6.33228195 10,6.5 C10,7.92880524 10.461008,9.24993629 11.2423929,10.3227619 L11.2428483,21.979294 C11.1627125,21.9905296 11.0808214,21.9963425 10.9975726,21.9963425 L3.75,21.9963425 C2.78350169,21.9963425 2,21.2128408 2,20.2463425 L2,7.75121916 C2,6.78472085 2.78350169,6.00121916 3.75,6.00121916 L10.018829,6.00152419 Z M9.24289154,17.5 L7.74119612,17.5 L7.63942557,17.5068466 C7.27335001,17.556509 6.99119612,17.8703042 6.99119612,18.25 C6.99119612,18.6296958 7.27335001,18.943491 7.63942557,18.9931534 L7.74119612,19 L9.24289154,19 L9.34466209,18.9931534 C9.71073766,18.943491 9.99289154,18.6296958 9.99289154,18.25 C9.99289154,17.8703042 9.71073766,17.556509 9.34466209,17.5068466 L9.24289154,17.5 Z M16.2387278,17.5 L14.7387278,17.5 L14.6369572,17.5068466 C14.2708816,17.556509 13.9887278,17.8703042 13.9887278,18.25 C13.9887278,18.6296958 14.2708816,18.943491 14.6369572,18.9931534 L14.7387278,19 L16.2387278,19 L16.3404983,18.9931534 C16.7065739,18.943491 16.9887278,18.6296958 16.9887278,18.25 C16.9887278,17.8703042 16.7065739,17.556509 16.3404983,17.5068466 L16.2387278,17.5 Z M16.5,1 C19.5375661,1 22,3.46243388 22,6.5 C22,9.53756612 19.5375661,12 16.5,12 C13.4624339,12 11,9.53756612 11,6.5 C11,3.46243388 13.4624339,1 16.5,1 Z M14.0930472,3.96628242 L14.0237993,4.02413787 L13.9659438,4.09338576 C13.8478223,4.26389538 13.8478223,4.49148714 13.9659438,4.66199676 L14.0237993,4.73124465 L15.7933527,6.50069126 L14.0263884,8.26749105 L13.968533,8.33673894 C13.8504114,8.50724857 13.8504114,8.73484033 13.968533,8.90534995 L14.0263884,8.97459784 L14.0956363,9.03245329 C14.2661459,9.15057483 14.4937377,9.15057483 14.6642473,9.03245329 L14.7334952,8.97459784 L16.5003527,7.20769126 L18.2693951,8.97684049 L18.338643,9.03469594 C18.5091526,9.15281748 18.7367444,9.15281748 18.907254,9.03469594 L18.9765019,8.97684049 L19.0343574,8.9075926 C19.1524789,8.73708298 19.1524789,8.50949122 19.0343574,8.33898159 L18.9765019,8.26973371 L17.2073527,6.50069126 L18.9792686,4.73129182 L19.0371241,4.66204393 C19.1552456,4.4915343 19.1552456,4.26394254 19.0371241,4.09343292 L18.9792686,4.02418503 L18.9100208,3.96632958 C18.7395111,3.84820804 18.5119194,3.84820804 18.3414098,3.96632958 L18.2721619,4.02418503 L16.5003527,5.79369126 L14.7309061,4.02413787 L14.6616582,3.96628242 C14.5155071,3.86503538 14.3274181,3.85057152 14.1692847,3.92289083 L14.0930472,3.96628242 Z" id="ðŸŽ¨-Color"></path>
        </g>
    </g>
</svg>