<?xml version="1.0" encoding="UTF-8"?>
<svg width="20px" height="20px" viewBox="0 0 20 20" version="1.1" xmlns="http://www.w3.org/2000/svg" xmlns:xlink="http://www.w3.org/1999/xlink">
    <!-- Generator: Sketch 64 (93537) - https://sketch.com -->
    <title>ic_fluent_thumb_dislike_20_filled</title>
    <desc>Created with Sketch.</desc>
    <g id="ðŸ”-System-Icons" stroke="none" stroke-width="1" fill="none" fill-rule="evenodd">
        <g id="ic_fluent_thumb_dislike_20_filled" fill="#212121" fill-rule="nonzero">
            <path d="M12.4814,18.2961 C11.6825,19.1333 10.3898,18.683 10.0505,17.7057 C9.77053,16.8994 9.40687,15.9339 9.05253,15.223 C7.99289,13.0971 7.37431,11.8875 5.66821,10.374 C5.44184,10.1732 5.15011,10.0114 4.82752,9.88387 C3.69839,9.43755 2.63656,8.26778 2.91429,6.87917 L3.26732,5.11399 C3.45303,4.18545 4.14741,3.44153 5.06098,3.19237 L10.6607,1.66517 C13.2063,0.970937 15.8002,2.60567 16.2722,5.20163 L16.9561,8.96333 C17.2909,10.8048 15.8762,12.5 14.0045,12.5 L13.121,12.5 L13.1313,12.5522 C13.2113,12.9604 13.3078,13.5225 13.3723,14.1351 C13.4365,14.7454 13.4706,15.4195 13.4203,16.0477 C13.371,16.664 13.2364,17.2968 12.916,17.7773 C12.8066,17.9416 12.644,18.1257 12.4814,18.2961 Z" id="ðŸŽ¨-Color"></path>
        </g>
    </g>
</svg>