<svg width="20" height="20" viewBox="0 0 20 20" fill="none" xmlns="http://www.w3.org/2000/svg">
<path d="M3 6C3 4.34315 4.34315 3 6 3H14C15.6569 3 17 4.34315 17 6V9.59971C16.6832 9.43777 16.3486 9.30564 16 9.20703V6C16 4.89543 15.1046 4 14 4H6C4.89543 4 4 4.89543 4 6V14C4 15.1046 4.89543 16 6 16H9.20703C9.30564 16.3486 9.43777 16.6832 9.59971 17H6C4.34315 17 3 15.6569 3 14V6ZM7.97376 12.5527C8.27737 12.7045 8.69352 12.8602 9.22382 12.9419C9.13055 13.2582 9.06496 13.5864 9.02984 13.9237C8.40823 13.8232 7.90673 13.6372 7.52671 13.4473C7.24683 13.3074 7.03385 13.166 6.88757 13.0563C6.8144 13.0014 6.75777 12.9544 6.71765 12.9193C6.69758 12.9017 6.68162 12.8871 6.66976 12.876L6.65504 12.862L6.64998 12.8571L6.64802 12.8551L6.64719 12.8543L6.64645 12.8536C6.4512 12.6583 6.45118 12.3417 6.64645 12.1464C6.84087 11.952 7.15557 11.9512 7.35102 12.1439L7.35368 12.1465C7.35745 12.15 7.36492 12.1569 7.37611 12.1667C7.39849 12.1862 7.43563 12.2173 7.48748 12.2562C7.59127 12.334 7.7534 12.4426 7.97376 12.5527ZM7.5 9C8.05228 9 8.5 8.55228 8.5 8C8.5 7.44772 8.05228 7 7.5 7C6.94772 7 6.5 7.44772 6.5 8C6.5 8.55228 6.94772 9 7.5 9ZM13.5 8C13.5 8.55228 13.0523 9 12.5 9C11.9477 9 11.5 8.55228 11.5 8C11.5 7.44772 11.9477 7 12.5 7C13.0523 7 13.5 7.44772 13.5 8ZM19 14.5C19 16.9853 16.9853 19 14.5 19C12.0147 19 10 16.9853 10 14.5C10 12.0147 12.0147 10 14.5 10C16.9853 10 19 12.0147 19 14.5ZM15 12.5C15 12.2239 14.7761 12 14.5 12C14.2239 12 14 12.2239 14 12.5V14H12.5C12.2239 14 12 14.2239 12 14.5C12 14.7761 12.2239 15 12.5 15H14V16.5C14 16.7761 14.2239 17 14.5 17C14.7761 17 15 16.7761 15 16.5V15H16.5C16.7761 15 17 14.7761 17 14.5C17 14.2239 16.7761 14 16.5 14H15V12.5Z" fill="#212121"/>
</svg>
