<?xml version="1.0" encoding="UTF-8"?>
<svg width="24px" height="24px" viewBox="0 0 24 24" version="1.1" xmlns="http://www.w3.org/2000/svg" xmlns:xlink="http://www.w3.org/1999/xlink">
    <!-- Generator: Sketch 59.1 (86144) - https://sketch.com -->
    <title>ic_fluent_screenshot_24_filled</title>
    <desc>Created with Sketch.</desc>
    <g id="ðŸ”-Product-Icons" stroke="none" stroke-width="1" fill="none" fill-rule="evenodd">
        <g id="ic_fluent_screenshot_24_filled" fill="#212121" fill-rule="nonzero">
            <path d="M17.25,3 C19.3210678,3 21,4.67893219 21,6.75 L21,17.25 C21,19.3210678 19.3210678,21 17.25,21 L6.75,21 C4.67893219,21 3,19.3210678 3,17.25 L3,6.75 C3,4.67893219 4.67893219,3 6.75,3 L17.25,3 Z M17.25,13 C16.8703042,13 16.556509,13.2821539 16.5068466,13.6482294 L16.5,13.75 L16.5,16 C16.5,16.2454222 16.3230914,16.4496 16.0898645,16.4919429 L16,16.5 L13.75,16.5 C13.3357864,16.5 13,16.8357864 13,17.25 C13,17.6296958 13.2821539,17.943491 13.6482294,17.9931534 L13.75,18 L16,18 C17.0543909,18 17.9181678,17.18415 17.9945144,16.1492661 L18,16 L18,13.75 C18,13.3357864 17.6642136,13 17.25,13 Z M6.75,13 C6.37030423,13 6.05650904,13.2821539 6.00684662,13.6482294 L6,13.75 L6,16 C6,17.0543909 6.81587733,17.9181678 7.85073759,17.9945144 L8,18 L10.25,18 C10.6642136,18 11,17.6642136 11,17.25 C11,16.8703042 10.7178461,16.556509 10.3517706,16.5068466 L10.25,16.5 L8,16.5 C7.75454222,16.5 7.5503921,16.3230914 7.50805575,16.0898645 L7.5,16 L7.5,13.75 C7.5,13.3357864 7.16421356,13 6.75,13 Z M10.25,6 L8,6 L7.85073759,6.00548573 C6.86762035,6.07801738 6.08213519,6.86122607 6.00604447,7.84334947 L6,8 L6,10.25 L6.00684662,10.3517706 C6.05650904,10.7178461 6.37030423,11 6.75,11 C7.12969577,11 7.44349096,10.7178461 7.49315338,10.3517706 L7.5,10.25 L7.5,8 L7.50805575,7.91012499 C7.54510005,7.70603303 7.70603303,7.54510005 7.91012499,7.50805575 L8,7.5 L10.25,7.5 L10.3517706,7.49315338 C10.7178461,7.44349096 11,7.12969577 11,6.75 C11,6.37030423 10.7178461,6.05650904 10.3517706,6.00684662 L10.25,6 Z M16,6 L13.75,6 C13.3357864,6 13,6.33578644 13,6.75 C13,7.12969577 13.2821539,7.44349096 13.6482294,7.49315338 L13.75,7.5 L16,7.5 C16.2454222,7.5 16.4496,7.67687704 16.4919429,7.91012499 L16.5,8 L16.5,10.25 C16.5,10.6642136 16.8357864,11 17.25,11 C17.6296958,11 17.943491,10.7178461 17.9931534,10.3517706 L18,10.25 L18,8 C18,6.94563773 17.18415,6.08183483 16.1492661,6.00548573 L16,6 Z" id="ðŸŽ¨-Color"></path>
        </g>
    </g>
</svg>