<svg width="16" height="16" viewBox="0 0 16 16" fill="none" xmlns="http://www.w3.org/2000/svg">
<path d="M3.50488 7.5C3.50488 7.22386 3.72874 7 4.00488 7H5.00488V6C5.00488 5.72386 5.22874 5.5 5.50488 5.5C5.78102 5.5 6.00488 5.72386 6.00488 6V7H7.00488C7.28102 7 7.50488 7.22386 7.50488 7.5C7.50488 7.77614 7.28102 8 7.00488 8H6.00488V9C6.00488 9.27614 5.78102 9.5 5.50488 9.5C5.22874 9.5 5.00488 9.27614 5.00488 9V8H4.00488C3.72874 8 3.50488 7.77614 3.50488 7.5ZM11 9C11 9.55228 10.5523 10 10 10C9.44772 10 9 9.55228 9 9C9 8.44772 9.44772 8 10 8C10.5523 8 11 8.44772 11 9ZM11 7C11.5523 7 12 6.55228 12 6C12 5.44772 11.5523 5 11 5C10.4477 5 10 5.44772 10 6C10 6.55228 10.4477 7 11 7ZM1.00098 7.49982C1.00098 5.01454 3.0157 2.99982 5.50098 2.99982H10.5094C12.9947 2.99982 15.0094 5.01454 15.0094 7.49982C15.0094 9.9851 12.9947 11.9998 10.5094 11.9998H5.50098C3.0157 11.9998 1.00098 9.9851 1.00098 7.49982ZM5.50098 3.99982C3.56798 3.99982 2.00098 5.56682 2.00098 7.49982C2.00098 9.43281 3.56798 10.9998 5.50098 10.9998H10.5094C12.4424 10.9998 14.0094 9.43281 14.0094 7.49982C14.0094 5.56682 12.4424 3.99982 10.5094 3.99982H5.50098Z" fill="#212121"/>
</svg>
