<svg width="16" height="16" viewBox="0 0 16 16" fill="none" xmlns="http://www.w3.org/2000/svg">
<path d="M2 8C2 4.68629 4.68629 2 8 2C11.3137 2 14 4.68629 14 8C14 8.08516 13.9982 8.1699 13.9947 8.25419C13.527 8.08956 13.024 8 12.5 8C12.1516 8 11.8125 8.03959 11.4868 8.11452C11.4954 8.07774 11.5 8.0394 11.5 8C11.5 7.72386 11.2761 7.5 11 7.5H5C4.72386 7.5 4.5 7.72386 4.5 8C4.5 8.27614 4.72386 8.5 5 8.5H10.4364C8.98922 9.24811 8 10.7585 8 12.5C8 13.024 8.08956 13.527 8.25419 13.9947C8.1699 13.9982 8.08516 14 8 14C4.68629 14 2 11.3137 2 8ZM9 12.5C9 14.433 10.567 16 12.5 16C14.433 16 16 14.433 16 12.5C16 10.567 14.433 9 12.5 9C10.567 9 9 10.567 9 12.5ZM13.1464 11.8536C12.9512 11.6583 12.9512 11.3417 13.1464 11.1464C13.3417 10.9512 13.6583 10.9512 13.8536 11.1464L14.8536 12.1464C15.0488 12.3417 15.0488 12.6583 14.8536 12.8536L13.8536 13.8536C13.6583 14.0488 13.3417 14.0488 13.1464 13.8536C12.9512 13.6583 12.9512 13.3417 13.1464 13.1464L13.2929 13H11.25C11.1119 13 11 13.1119 11 13.25V13.5C11 13.7761 10.7761 14 10.5 14C10.2239 14 10 13.7761 10 13.5V13.25C10 12.5596 10.5596 12 11.25 12H13.2929L13.1464 11.8536Z" fill="#212121"/>
</svg>
