<?xml version="1.0" encoding="UTF-8"?>
<svg width="24px" height="24px" viewBox="0 0 24 24" version="1.1" xmlns="http://www.w3.org/2000/svg" xmlns:xlink="http://www.w3.org/1999/xlink">
    <!-- Generator: Sketch 59.1 (86144) - https://sketch.com -->
    <title>ic_fluent_brand_meetup_24_mono</title>
    <desc>Created with Sketch.</desc>
    <g id="ðŸ”-Product-Icons" stroke="none" stroke-width="1" fill="none" fill-rule="evenodd">
        <g id="ic_fluent_brand_meetup_24_mono" fill="#212121" fill-rule="nonzero">
            <path d="M11.512,19.8532614 C11.8144381,19.8543267 12.0604952,20.099018 12.0574095,20.3961295 C12.054781,20.6965717 11.811619,20.9338825 11.5068952,20.933618 C11.2019048,20.933618 10.9593524,20.6958148 10.9585485,20.3956375 C10.9577524,20.0913347 11.2015619,19.8523207 11.512,19.8532614 Z M16.7955048,18.2802669 C17.2755429,18.2815658 17.6746286,18.6770837 17.673831,19.1501156 C17.6730667,19.6349941 17.2729524,20.0324801 16.7862095,20.031989 C16.3062476,20.0313825 15.900381,19.6289761 15.9024226,19.1547331 C15.9045714,18.6695897 16.303619,18.2785 16.7955048,18.2802669 Z M12.8943238,4.96824305 C12.9697524,5.01245023 13.0329143,5.01600799 13.1145524,4.99239046 C14.5398095,4.58154385 15.8027048,4.88043429 16.8748571,5.89330082 C17.5089143,6.49214146 17.8563048,7.25002194 17.9591619,8.11463548 C17.9816762,8.30365142 17.9919238,8.49444624 17.9774476,8.68448409 C17.972,8.75635859 17.9942476,8.78641039 18.0627429,8.81157971 C18.7052571,9.04786855 19.1483048,9.48850202 19.3421333,10.140255 C19.5835429,10.9509721 19.3807619,11.6618825 18.7710095,12.253002 C18.731381,12.2914941 18.7277524,12.3187876 18.741047,12.3516645 L18.7592762,12.3870239 C19.0815238,12.9385917 19.2484571,13.5322849 19.2477333,14.1712072 C19.2492952,15.8936215 18.0008381,17.3774004 16.3031619,17.6691375 C16.0894095,17.7055857 15.8735619,17.7271594 15.6566476,17.7251156 C15.5835048,17.7243207 15.554781,17.7533885 15.531581,17.8199642 C15.1926476,18.786769 14.5162667,19.3630897 13.4945143,19.5084283 C12.8185905,19.6044881 12.205219,19.4244044 11.6675429,19.0045498 C11.5926476,18.9460359 11.5468571,18.9450518 11.4687619,19.0005 C10.8398857,19.4473785 10.134781,19.6452889 9.3648,19.5990757 C7.86228571,19.5089582 6.59805714,18.368012 6.3615619,16.896761 L6.33848571,16.7437343 L6.33848571,16.7437343 L6.3264381,16.5901116 C6.32518857,16.5219235 6.30409295,16.487236 6.25374994,16.4679302 L6.2103619,16.4560518 C5.75546667,16.3679403 5.34266667,16.1818008 4.97847619,15.8985797 C4.30822857,15.3772152 3.90609524,14.6964701 3.81249524,13.8544144 C3.70575238,12.8906375 4.00537143,12.0573247 4.68773333,11.3629164 C4.74274286,11.3072032 4.74617143,11.2684084 4.70864762,11.2028925 C4.44632381,10.7478765 4.32198095,10.2550498 4.34217143,9.73243628 C4.39253333,8.42813548 5.30605714,7.35054784 6.57672381,7.08375301 C6.72373333,7.05271716 6.8008,6.99545222 6.86540952,6.85703987 C7.49215238,5.51549604 8.54449524,4.69959365 10.0048,4.43049007 C11.0299048,4.24147413 11.9969524,4.44385062 12.8943238,4.96824305 Z M5.39489524,16.9963785 C5.61017143,16.9983845 5.79291429,17.1796793 5.79192782,17.390269 C5.7912,17.6069901 5.61462857,17.7839323 5.39824762,17.785257 C5.17771429,17.7867709 5.00064762,17.6155439 4.99885714,17.3987849 C4.99729524,17.1769164 5.17668571,16.9945239 5.39489524,16.9963785 Z M11.8599238,8.10736855 C11.6895238,8.24036855 11.5461333,8.40527493 11.3610286,8.52082672 C11.195619,8.62403987 11.0288381,8.65329684 10.8456762,8.55625301 L10.5801619,8.42451621 L10.5801619,8.42451621 L10.3103619,8.30126696 C10.1278476,8.21936258 9.95104762,8.11819325 9.7456,8.10097214 C9.09577143,8.04601596 8.41573333,8.42968728 8.12906667,9.01289644 C8.00186667,9.27098608 7.89801905,9.5391056 7.79954286,9.80896616 C7.3448381,11.0565319 6.97447619,12.3307809 6.5911619,13.6006395 C6.41950476,14.1689741 6.62209524,14.7282251 7.10647619,15.0351773 C7.48438095,15.2744562 7.89817143,15.3336136 8.32655238,15.2057231 C8.6736,15.1019423 8.86365714,14.8243984 8.99649524,14.5126016 C9.43794286,13.4782371 9.83550476,12.4263108 10.2563048,11.3837331 C10.3721143,11.0968407 10.4842286,10.8087371 10.6070857,10.5249482 C10.7311238,10.2383964 11.0875429,10.1407849 11.2989714,10.3308227 C11.4280381,10.4468287 11.4620571,10.601251 11.4494095,10.7663466 C11.438981,10.8986843 11.3976738,11.023315 11.3504149,11.1457316 L10.4744381,13.3282052 C10.4188571,13.4671853 10.3586286,13.6050299 10.3340571,13.7541913 C10.2919619,14.0103128 10.394019,14.2373287 10.6048762,14.3276733 C10.82,14.4199104 11.0433143,14.4353148 11.2663238,14.3548865 C11.5258286,14.2614383 11.6809143,14.0595917 11.800381,13.8263686 L13.028381,11.4217331 L13.028381,11.4217331 C13.2178667,11.0517251 13.4106667,10.6834582 13.6042286,10.3156454 C13.6761524,10.1793148 13.760419,10.0501375 13.894781,9.96539445 C14.0160762,9.88912951 14.146781,9.88345222 14.2711238,9.95282871 C14.3924571,10.0203506 14.4005714,10.1436614 14.3954667,10.2653825 C14.3926857,10.3308227 14.3742476,10.3947869 14.3489143,10.4556474 C14.2957333,10.5822132 14.2460571,10.7106713 14.1870857,10.8347391 L13.1614095,12.9728446 C13.0188952,13.2744602 12.8705524,13.577514 12.8881524,13.8946474 C12.8886857,14.62751 13.3622095,15.275251 14.0337143,15.4953407 C14.3702476,15.605745 14.7173714,15.6581275 15.0697143,15.6735319 C15.3212571,15.6843188 15.572381,15.6668705 15.8048,15.5517729 C15.9875429,15.4611255 16.0736381,15.3113964 16.0653714,15.1118964 C16.0571048,14.9110717 15.9665905,14.7608885 15.7732571,14.6809522 C15.7060571,14.6532092 15.6378286,14.6306136 15.5664762,14.6183128 C15.353219,14.580502 15.1389333,14.5486713 14.9267429,14.5068865 C14.5765333,14.4375857 14.4296762,14.2534144 14.4250286,13.9015737 C14.4209524,13.5903446 14.5059429,13.2967909 14.6023238,13.0063785 C14.7345524,12.6076908 14.9013238,12.223033 15.0725524,11.8401264 L15.2441524,11.4573486 C15.4640762,10.9640678 15.6946286,10.4748367 15.849981,9.95528887 C15.9355429,9.66998608 15.976381,9.38392632 15.8985905,9.08885859 C15.7801905,8.64099604 15.5100571,8.34081875 15.0442667,8.25448608 C14.6178286,8.17564744 14.1933714,8.16667732 13.8077333,8.41935461 C13.6795048,8.50307572 13.5561905,8.48305381 13.4448762,8.38544226 L13.1956952,8.1563825 L13.1956952,8.1563825 C12.8023238,7.79557174 12.2822476,7.77785859 11.8599238,8.10736855 Z M20.5897524,11.954263 C20.8815619,11.9563068 21.1150095,12.1948666 21.1141759,12.4902371 C21.1134476,12.7887112 20.8854476,13.0111096 20.5814476,13.010544 C20.2914667,13.0099741 20.052,12.7759941 20.0494857,12.4909941 C20.0471619,12.2025877 20.2992,11.9521813 20.5897524,11.954263 Z M2.84373333,10.225673 C3.30278095,10.2269662 3.684,10.6055279 3.68610802,11.0620956 C3.68792381,11.5179064 3.2984,11.9023347 2.83546667,11.9013168 C2.3728,11.9002909 2.00038095,11.5266494 1.99999971,11.0634203 C1.99973333,10.5952709 2.37325714,10.2244303 2.84373333,10.225673 Z M21.6034667,9.55568329 C21.8262476,9.55848409 22.0020571,9.73675102 21.9999619,9.95835461 C21.9984,10.1786713 21.8252571,10.3492172 21.6044952,10.3484251 C21.3822095,10.3478925 21.2,10.1668626 21.202819,9.94934664 C21.2054476,9.73902194 21.3946667,9.55333668 21.6034667,9.55568329 Z M19.3397333,7.00639046 C19.723581,7.00896417 20.0495238,7.33200202 20.0516052,7.71185062 C20.0538667,8.10683867 19.7344,8.42064146 19.3301714,8.41984965 C18.9377905,8.41931676 18.6213714,8.10861756 18.6185905,7.72108568 C18.6159619,7.33256975 18.9478857,7.00358967 19.3397333,7.00639046 Z M6.01500952,5.05343417 C6.3704381,5.0523805 6.6503619,5.32693429 6.65166605,5.67794226 C6.65295238,6.03981278 6.37268571,6.32121716 6.01139048,6.32072641 C5.65470476,6.32019525 5.37527619,6.04030481 5.37527619,5.6835817 C5.37546667,5.3240578 5.64948571,5.05415939 6.01500952,5.05343417 Z M13.2014476,2.52565671 C13.6594667,2.52799206 14.0257524,2.89909764 14.0246526,3.35975301 C14.0238095,3.81817533 13.6534476,4.1851554 13.1923429,4.18489075 C12.7294095,4.18439843 12.3515429,3.80841039 12.3543307,3.35078289 C12.3569905,2.89266337 12.7361905,2.52310959 13.2014476,2.52565671 Z M7.82845714,2 C8.08175238,2.00129086 8.27333333,2.19257772 8.27329524,2.44476297 C8.27329524,2.69463947 8.07866667,2.89137652 7.83028571,2.89266968 C7.5743619,2.89395023 7.37459048,2.69827293 7.37459048,2.44661756 C7.37459048,2.19337254 7.57230476,1.9989821 7.82845714,2 Z" id="ðŸŽ¨-Color"></path>
        </g>
    </g>
</svg>