<?xml version="1.0" encoding="UTF-8"?>
<svg width="48px" height="48px" viewBox="0 0 48 48" version="1.1" xmlns="http://www.w3.org/2000/svg" xmlns:xlink="http://www.w3.org/1999/xlink">
    <!-- Generator: Sketch 59.1 (86144) - https://sketch.com -->
    <title>ic_fluent_brand_meetup_48_mono</title>
    <desc>Created with Sketch.</desc>
    <g id="ðŸ”-Product-Icons" stroke="none" stroke-width="1" fill="none" fill-rule="evenodd">
        <g id="ic_fluent_brand_meetup_48_mono" fill="#212121" fill-rule="nonzero">
            <path d="M23.0240191,40.8317112 C23.6288958,40.8338494 24.1210106,41.3249476 24.1148391,41.9212539 C24.109582,42.524245 23.6232577,43.0005304 23.0138095,42.9999996 C22.403828,42.9999996 21.9187228,42.5227257 21.9171149,41.9202664 C21.9155228,41.3095272 22.4031423,40.8298234 23.0240191,40.8317112 Z M33.5910387,37.674693 C34.5511158,37.6772999 35.349288,38.471109 35.3476928,39.4204894 C35.3461642,40.3936462 34.5459348,41.1914053 33.5724482,41.1904196 C32.6125235,41.1892024 31.8007894,40.3815681 31.8048726,39.4297569 C31.8091703,38.4560684 32.6072663,37.6711469 33.5910387,37.674693 Z M25.7886693,10.9573063 C25.9395266,11.0460306 26.0658505,11.0531711 26.2291269,11.0057705 C29.0796439,10.1811965 31.6054368,10.7810731 33.7497436,12.813908 C35.0178591,14.0157882 35.7126407,15.5368631 35.9183552,17.2721525 C35.9633838,17.6515097 35.9838791,18.0344371 35.9549267,18.4158453 C35.9440314,18.5600983 35.9885267,18.6204126 36.1255173,18.6709277 C37.4105471,19.1451622 38.2966432,20.0295186 38.6843007,21.3375945 C39.1671202,22.9647132 38.7615579,24.3915185 37.542052,25.5779023 C37.4627948,25.6551563 37.4555376,25.7099348 37.4821269,25.775919 L37.5185853,25.8468858 C38.1630812,26.9538887 38.4969481,28.1454379 38.4955005,29.4277624 C38.4986243,32.884668 36.0017077,35.8626295 32.606352,36.4481492 C32.1788469,36.5213011 31.7471512,36.5645998 31.3133222,36.5604978 C31.1670364,36.5589026 31.1095887,36.6172419 31.0631887,36.7508601 C30.3853213,38.6912485 29.0325581,39.8479309 26.9890514,40.1396273 C25.6372025,40.3324203 24.4104585,39.9709903 23.3351051,39.1283373 C23.1853144,39.0108991 23.0937334,39.0089241 22.9375428,39.1202093 C21.6797892,40.0170996 20.2695783,40.414308 18.7296149,40.3215577 C15.7245835,40.1406908 13.1961239,37.8507984 12.723133,34.8979806 L12.6769806,34.5908543 L12.6769806,34.5908543 L12.6528853,34.2825316 C12.6503863,34.1456774 12.608195,34.0760592 12.5075089,34.0373122 L12.4207327,34.0134721 C11.5109414,33.8366312 10.6853406,33.4630472 9.95695894,32.8946191 C8.61646241,31.8482344 7.81219498,30.4819713 7.6249948,28.7919555 C7.41150888,26.8576441 8.01074755,25.1851757 9.37547266,23.79149 C9.48549182,23.6796731 9.49234897,23.6018114 9.41730128,23.4703202 C8.89265316,22.5570979 8.6439672,21.567989 8.68434819,20.5190976 C8.7850721,17.9013507 10.6121215,15.7386197 13.1534572,15.2031594 C13.4474766,15.1408701 13.60161,15.0259387 13.7308292,14.7481435 C14.9843161,12.0556494 17.0890039,10.4181238 20.0096162,9.87802982 C22.0598277,9.49867264 23.9939247,9.90484462 25.7886693,10.9573063 Z M10.7897978,35.0979141 C11.2203506,35.1019401 11.5858367,35.4658009 11.5838637,35.8884568 C11.5824081,36.3234186 11.2292649,36.6785437 10.7965026,36.6812024 C10.3554355,36.6842409 10.0013018,36.3405861 9.99772088,35.9055484 C9.99459707,35.4602557 10.3533784,35.0941919 10.7897978,35.0979141 Z M23.7198673,17.2575677 C23.379067,17.5245003 23.0922858,17.8554693 22.7220759,18.0873831 C22.3912565,18.2945331 22.0576943,18.3532521 21.6913702,18.1584841 L21.1603411,17.8940868 L21.1603411,17.8940868 L20.6207406,17.6467241 C20.2557116,17.482341 19.9021113,17.279293 19.4912157,17.24473 C18.1915573,17.1344324 16.8314798,17.9044651 16.2581459,19.0749727 C16.0037457,19.5929616 15.7960502,20.1310806 15.5990977,20.6726939 C14.6896873,23.1765729 13.9489628,25.7340054 13.1823334,28.2826263 C12.8390188,29.4232806 13.2442002,30.5457039 14.212963,31.1617605 C14.9687733,31.641996 15.796355,31.7607255 16.6531177,31.5040479 C17.3472136,31.2957585 17.7273283,30.7387248 17.9930047,30.112945 C18.8759008,28.0369633 19.6710254,25.925735 20.5126262,23.8332695 C20.7442454,23.257473 20.9684742,22.6792458 21.2141888,22.1096783 C21.4622652,21.5345655 22.175104,21.338658 22.5979615,21.7200661 C22.8560951,21.9528915 22.9241332,22.2628188 22.898838,22.5941677 C22.8779808,22.8597709 22.7953665,23.1099062 22.7008485,23.3555977 L20.9488933,27.7358476 C20.8377312,28.0147822 20.717274,28.291438 20.6681311,28.5908066 C20.5839405,29.1048454 20.788055,29.5604691 21.2097697,29.7417918 C21.6400177,29.9269126 22.0866467,29.9578294 22.5326662,29.7964089 C23.0516762,29.6088572 23.3618479,29.2037487 23.6007815,28.7356672 L26.0567839,23.9095359 L26.0567839,23.9095359 C26.4357557,23.1669256 26.821356,22.4278096 27.2084802,21.6896051 C27.352328,21.4159879 27.5208615,21.1567275 27.7895855,20.9866473 C28.0321762,20.8335827 28.293586,20.8221883 28.542272,20.9614277 C28.7849389,21.096945 28.8011674,21.3444311 28.7909579,21.5887268 C28.785396,21.7200661 28.7485198,21.8484429 28.6978531,21.9705908 C28.591491,22.2246097 28.4921386,22.4824267 28.3741956,22.7314321 L26.3228413,27.0226348 C26.0378124,27.6279807 25.7411264,28.2362132 25.7763265,28.8727038 C25.7773931,30.3435674 26.7244416,31.6435912 28.0674525,32.0853137 C28.7405198,32.3068966 29.434768,32.4120288 30.1394544,32.4429456 C30.6425406,32.4645949 31.1447887,32.4295761 31.6096273,32.1985739 C31.9751133,32.0166435 32.147304,31.7161355 32.1307706,31.3157367 C32.1142373,30.9126792 31.9332085,30.6112596 31.5465415,30.4508266 C31.4121414,30.395146 31.2756841,30.3497964 31.1329792,30.3251085 C30.7064645,30.2492219 30.2778927,30.1853373 29.8535113,30.1014746 C29.1530916,29.9623871 28.859377,29.5927532 28.8500818,28.8866049 C28.8419294,28.2619645 29.0119105,27.6727987 29.2046726,27.0899377 C29.46913,26.2897667 29.8026732,25.5177542 30.1451306,24.7492561 L30.488331,23.9810167 C30.928179,22.9909962 31.3892842,22.0091038 31.6999893,20.9663653 C31.8711132,20.3937593 31.9527895,19.819634 31.7972084,19.2274296 C31.5604082,18.3285643 31.020141,17.726105 30.0885591,17.5528343 C29.2356821,17.3946042 28.386767,17.3766011 27.6154901,17.8837274 C27.3590327,18.0517566 27.1124039,18.0115724 26.8897751,17.8156649 L26.3914128,17.3559393 L26.3914128,17.3559393 C25.6046691,16.6317879 24.5645158,16.5962374 23.7198673,17.2575677 Z M41.1795412,24.9783296 C41.7631608,24.9824315 42.2300565,25.4612238 42.2283893,26.0540358 C42.2269327,26.6530768 41.7709322,27.099433 41.1629316,27.0982979 C40.5829692,27.0971541 40.1040354,26.6275534 40.0990068,26.0555551 C40.0943592,25.4767201 40.5984359,24.9741516 41.1795412,24.9783296 Z M5.68746914,21.5090295 C6.60556525,21.5116248 7.36800408,22.2714026 7.37222012,23.1877394 C7.3758517,24.1025569 6.59680334,24.8741089 5.67093579,24.872066 C4.74560157,24.8700069 4.00076276,24.1201042 4.00000028,23.190398 C3.99946752,22.2508168 4.74651586,21.5065353 5.68746914,21.5090295 Z M43.2069717,20.1643522 C43.652534,20.1699735 44.0041534,20.5277573 43.9999629,20.9725183 C43.9968391,21.4146965 43.6505531,21.7569839 43.2090288,21.7553943 C42.764457,21.7543253 42.4000376,21.3909962 42.4056757,20.9544392 C42.4109328,20.532315 42.7893713,20.1596426 43.2069717,20.1643522 Z M38.6795007,15.0478919 C39.4471967,15.0530573 40.099083,15.7013981 40.1032458,16.4637586 C40.1077687,17.2565042 39.4688348,17.8863101 38.6603769,17.8847209 C37.8756142,17.8836514 37.2427755,17.2600745 37.2372136,16.4822935 C37.2319565,15.7025375 37.8958047,15.0422707 38.6795007,15.0478919 Z M12.0300276,11.1282859 C12.7408854,11.1261712 13.3007336,11.6772038 13.3033419,12.3816809 C13.3059145,13.1079592 12.7453807,13.6727411 12.0227895,13.6717562 C11.3094174,13.6706901 10.7505597,13.1089467 10.7505597,12.3929993 C10.7509406,11.6714306 11.2989793,11.1297414 12.0300276,11.1282859 Z M26.4029175,6.05500711 C27.3189565,6.05969419 28.0515286,6.8045074 28.049329,7.7290481 C28.0476429,8.64910701 27.3069184,9.3856403 26.384708,9.38510914 C25.4588404,9.38412105 24.7031064,8.62950867 24.7086821,7.71104497 C24.7140016,6.79159376 25.4724023,6.04989501 26.4029175,6.05500711 Z M15.6569263,5.00000799 C16.1635173,5.00259876 16.5466795,5.3865137 16.5466033,5.89265245 C16.5466033,6.39415748 16.1573458,6.78901103 15.6605834,6.79160643 C15.1487353,6.79417649 14.7491921,6.40144989 14.7491921,5.89637462 C14.7491921,5.38810892 15.144621,4.99796505 15.6569263,5.00000799 Z" id="ðŸŽ¨-Color"></path>
        </g>
    </g>
</svg>