<svg width="16" height="16" viewBox="0 0 16 16" fill="none" xmlns="http://www.w3.org/2000/svg">
<path d="M10.5 13C10.5 14.1046 9.60457 15 8.5 15C7.39543 15 6.5 14.1046 6.5 13C6.5 11.8954 7.39543 11 8.5 11C9.60457 11 10.5 11.8954 10.5 13Z" fill="url(#paint0_linear_72095_11853)"/>
<path d="M2.5375 10.7062C1.43302 8.79316 2.08847 6.347 4.00148 5.24252C5.9145 4.13804 8.36066 4.79348 9.46514 6.7065L10.2859 8.12679L12.1911 9.51292C12.3279 9.61249 12.4051 9.77455 12.3962 9.94357C12.3873 10.1126 12.2935 10.2656 12.1469 10.3502L9.61653 11.8112L9.61972 11.8134L6.88163 13.3942L6.88132 13.3903L4.3527 14.8502C4.20612 14.9349 4.02668 14.9396 3.87585 14.8628C3.72502 14.786 3.62327 14.6381 3.60547 14.4698L3.35766 12.1268L2.5375 10.7062Z" fill="url(#paint1_linear_72095_11853)"/>
<path d="M10.7032 1.0431C10.4509 0.930945 10.1554 1.04459 10.0432 1.29693C9.93107 1.54928 10.0447 1.84476 10.2971 1.95691C10.3049 1.96058 10.4098 2.00994 10.5804 2.11007C10.7577 2.21407 11.0027 2.37094 11.2812 2.5854C11.8393 3.01517 12.5238 3.66993 13.0708 4.58628C14.0907 6.29484 14.0159 8.10806 14.0018 8.45034C14.0008 8.47425 14.0001 8.49099 14.0001 8.5C14.0001 8.77615 14.224 9 14.5001 9C14.7759 9 14.9996 8.77666 15.0001 8.50096L15.0001 8.50512L15.0013 8.47935C15.0023 8.45706 15.0037 8.42583 15.005 8.38728C15.0077 8.31001 15.01 8.20429 15.0089 8.07465C15.0068 7.8157 14.9908 7.46143 14.9361 7.0461C14.8269 6.21798 14.5613 5.13217 13.9295 4.07372C12.6805 1.98148 10.8188 1.09447 10.7032 1.0431ZM10.7929 3.59777C10.5691 3.43603 10.2565 3.48635 10.0948 3.71017C9.93304 3.93398 9.98336 4.24654 10.2072 4.40828C10.2108 4.41088 10.2172 4.4152 10.2262 4.42124C10.349 4.50342 10.9494 4.90525 11.3546 5.65868C11.7816 6.45272 11.7748 7.18572 11.7742 7.24651L11.7742 7.24975C11.7742 7.52589 11.9981 7.74975 12.2742 7.74975C12.5503 7.74975 12.7742 7.52589 12.7742 7.24975C12.7742 7.24975 12.7745 7.2219 12.774 7.18684C12.7734 7.15034 12.7719 7.10195 12.7684 7.0432C12.7614 6.92588 12.7463 6.76718 12.714 6.57915C12.6495 6.20413 12.5154 5.70575 12.2353 5.18503C11.9534 4.66083 11.5998 4.27024 11.3136 4.0076C11.0285 3.74604 10.7896 3.59541 10.7929 3.59777Z" fill="url(#paint2_linear_72095_11853)"/>
<defs>
<linearGradient id="paint0_linear_72095_11853" x1="8.5" y1="12.437" x2="9.67187" y2="14.937" gradientUnits="userSpaceOnUse">
<stop stop-color="#EB4824"/>
<stop offset="1" stop-color="#FFCD0F" stop-opacity="0.988235"/>
</linearGradient>
<linearGradient id="paint1_linear_72095_11853" x1="11.9923" y1="12.1475" x2="3.12306" y2="6.27634" gradientUnits="userSpaceOnUse">
<stop stop-color="#FF6F47"/>
<stop offset="1" stop-color="#FFCD0F"/>
</linearGradient>
<linearGradient id="paint2_linear_72095_11853" x1="11.1912" y1="2.06338" x2="14.3239" y2="9.62501" gradientUnits="userSpaceOnUse">
<stop offset="0.125321" stop-color="#9C6CFE"/>
<stop offset="1" stop-color="#5B2AB5"/>
</linearGradient>
</defs>
</svg>
