<svg width="16" height="16" viewBox="0 0 16 16" fill="none" xmlns="http://www.w3.org/2000/svg">
<path d="M9 5.5C9 7.98528 6.98528 10 4.5 10C2.01472 10 0 7.98528 0 5.5C0 3.01472 2.01472 1 4.5 1C6.98528 1 9 3.01472 9 5.5ZM4.5 3C4.22386 3 4 3.22386 4 3.5V5.5C4 5.77614 4.22386 6 4.5 6H6C6.27614 6 6.5 5.77614 6.5 5.5C6.5 5.22386 6.27614 5 6 5H5V3.5C5 3.22386 4.77614 3 4.5 3ZM4.5 10.9997C6.43078 10.9997 8.12918 10.0048 9.11053 8.49969H11.5333L10.6235 6.79381C10.4728 6.51114 10.239 6.28983 9.96155 6.15344C9.98694 5.93906 10 5.7209 10 5.49969C10 5.36372 9.99507 5.2289 9.98537 5.0954C10.6285 5.27879 11.1821 5.71609 11.5059 6.32322L12.6412 8.45191L14.338 9.05557C15.3344 9.41009 16 10.3533 16 11.411V11.7497C16 12.4594 15.5775 13.0705 14.9703 13.3451C14.8067 14.285 13.9868 14.9997 13 14.9997C12.0681 14.9997 11.285 14.3623 11.063 13.4997H6.93699C6.71497 14.3623 5.93192 14.9997 5 14.9997C4.01321 14.9997 3.19333 14.285 3.02971 13.3451C2.4225 13.0705 2 12.4594 2 11.7497V10.6362C2 10.5585 2.00358 10.4815 2.01059 10.4054C2.75806 10.7854 3.60401 10.9997 4.5 10.9997ZM4 12.9997C4 13.552 4.44772 13.9997 5 13.9997C5.55228 13.9997 6 13.552 6 12.9997C6 12.4474 5.55228 11.9997 5 11.9997C4.44772 11.9997 4 12.4474 4 12.9997ZM13 11.9997C12.4477 11.9997 12 12.4474 12 12.9997C12 13.552 12.4477 13.9997 13 13.9997C13.5523 13.9997 14 13.552 14 12.9997C14 12.4474 13.5523 11.9997 13 11.9997Z" fill="#212121"/>
</svg>
