<svg width="20" height="20" viewBox="0 0 20 20" fill="none" xmlns="http://www.w3.org/2000/svg">
<path d="M14.3894 4.11401C15.8916 4.50753 17 5.87433 17 7.5V9.3414C17.3493 9.46486 17.6837 9.61974 17.9999 9.80266V7.5C17.9999 5.01472 15.9852 3 13.4999 3H6.49994C5.68203 3 4.95586 3.39278 4.49976 4H13.4999C13.6207 4 13.7401 4.00612 13.8578 4.01807C14.0395 4.03652 14.217 4.06886 14.3894 4.11401ZM16 7.5V9.08296C15.6748 9.0284 15.3407 9 15 9V7.5C15 6.67157 14.3284 6 13.5 6H4.5C3.67157 6 3 6.67157 3 7.5V13.5C3 14.3284 3.67157 15 4.5 15H6L6 16.9953L8.73046 15L9 15C9 15.3407 9.0284 15.6748 9.08296 16H9.05691L6.59002 17.8027C5.9293 18.2856 5 17.8137 5 16.9953V16H4.5C3.11929 16 2 14.8807 2 13.5V7.5C2 6.11929 3.11929 5 4.5 5H13.5C14.8807 5 16 6.11929 16 7.5ZM15 11C12.7909 11 11 12.7909 11 15C11 17.2091 12.7909 19 15 19C15.4684 19 15.917 18.9197 16.3334 18.7725C16.5937 18.6805 16.8794 18.817 16.9714 19.0773C17.0634 19.3377 16.927 19.6233 16.6666 19.7154C16.1447 19.8998 15.5835 20 15 20C12.2386 20 10 17.7614 10 15C10 12.2386 12.2386 10 15 10C17.7614 10 20 12.2386 20 15C20 16.455 19.0988 17.4371 18.0266 17.4943C17.4972 17.5225 16.9721 17.3126 16.5894 16.867C16.5337 16.8021 16.4815 16.7329 16.4332 16.6597C16.0307 17.1678 15.4403 17.5 14.75 17.5C13.4467 17.5 12.5 16.3159 12.5 15C12.5 13.6841 13.4467 12.5 14.75 12.5C15.2258 12.5 15.654 12.6578 16.006 12.9222C16.0434 12.683 16.2503 12.5 16.5 12.5C16.7761 12.5 17 12.7239 17 13V15C17 15.6194 17.1642 16.0014 17.3481 16.2155C17.5279 16.4249 17.7528 16.5075 17.9734 16.4957C18.4012 16.4729 19 16.045 19 15C19 12.7909 17.2091 11 15 11ZM14.75 16.5C15.3797 16.5 16 15.8932 16 15C16 14.1068 15.3797 13.5 14.75 13.5C14.1203 13.5 13.5 14.1068 13.5 15C13.5 15.8932 14.1203 16.5 14.75 16.5Z" fill="#212121"/>
</svg>
