<svg width="16" height="16" viewBox="0 0 16 16" fill="none" xmlns="http://www.w3.org/2000/svg">
<path d="M4.58817 14.8068L6.37718 13.5057C6.13369 12.8843 6 12.2078 6 11.5C6 8.46243 8.46243 6 11.5 6C12.02 6 12.5232 6.07217 13 6.20703V6C13 4.89543 12.1046 4 11 4H3C1.89543 4 1 4.89543 1 6V11C1 12.1046 1.89543 13 3 13L3 13.9981C3 14.8154 3.9272 15.2875 4.58817 14.8068ZM14 6V6.59971C14.3578 6.78261 14.6929 7.00353 15 7.25716V6C15 3.79086 13.2091 2 11 2H5C4.25972 2 3.61337 2.4022 3.26756 3H11C11.5963 3 12.1521 3.174 12.6191 3.474C13.4497 4.00751 14 4.93949 14 6ZM11.5 8C9.567 8 8 9.567 8 11.5C8 13.433 9.567 15 11.5 15H12.5C12.7761 15 13 15.2239 13 15.5C13 15.7761 12.7761 16 12.5 16H11.5C9.01472 16 7 13.9853 7 11.5C7 9.01472 9.01472 7 11.5 7C13.9853 7 16 9.01472 16 11.5V12.25C16 13.2165 15.2165 14 14.25 14C13.6671 14 13.1508 13.715 12.8328 13.2768C12.4263 13.7239 11.8672 14 11.25 14C10.0074 14 9 12.8807 9 11.5C9 10.1193 10.0074 9 11.25 9C11.7149 9 12.1469 9.15669 12.5056 9.42514C12.5417 9.18451 12.7493 9 13 9C13.2761 9 13.5 9.22386 13.5 9.5V12.25C13.5 12.6642 13.8358 13 14.25 13C14.6642 13 15 12.6642 15 12.25V11.5C15 9.567 13.433 8 11.5 8ZM11.25 13C11.8439 13 12.5 12.4301 12.5 11.5C12.5 10.5699 11.8439 10 11.25 10C10.6561 10 10 10.5699 10 11.5C10 12.4301 10.6561 13 11.25 13Z" fill="#212121"/>
</svg>
