<svg width="16" height="16" viewBox="0 0 16 16" fill="none" xmlns="http://www.w3.org/2000/svg">
<path d="M3.5 2C2.67157 2 2 2.67157 2 3.5V4.69253C2 5.21234 2.26912 5.6951 2.71127 5.96843L6.57713 8.35823C5.63807 8.86508 5 9.85803 5 11C5 12.6569 6.34315 14 8 14C9.65685 14 11 12.6569 11 11C11 9.85803 10.3619 8.86508 9.42287 8.35823L13.2887 5.96843C13.7309 5.6951 14 5.21234 14 4.69253V3.5C14 2.67157 13.3284 2 12.5 2H3.5ZM6 6.82581V3H10V6.82581L8.26291 7.89965C8.10179 7.99925 7.89821 7.99925 7.73709 7.89965L6 6.82581ZM8 9C9.10457 9 10 9.89543 10 11C10 12.1046 9.10457 13 8 13C6.89543 13 6 12.1046 6 11C6 9.89543 6.89543 9 8 9Z" fill="#212121"/>
</svg>
