<svg width="16" height="16" viewBox="0 0 16 16" fill="none" xmlns="http://www.w3.org/2000/svg">
<path d="M1.22061 6.21876C1.51352 5.92596 1.98831 5.92591 2.28116 6.21876L8.50088 12.4404V11.751C8.50088 11.3368 8.83667 11.001 9.25088 11.001C9.66504 11.001 10.0009 11.3368 10.0009 11.751V14.251C10.0008 14.6651 9.66498 15.0009 9.25088 15.001H6.75088C6.33673 15.001 6.00099 14.6651 6.00088 14.251C6.00088 13.8368 6.33667 13.501 6.75088 13.501H7.44131L1.22061 7.27931C0.927778 6.9864 0.92775 6.51163 1.22061 6.21876ZM10.7206 5.71876C11.0135 5.42602 11.4883 5.42594 11.7811 5.71876L13.5009 7.43947V6.75099C13.5009 6.33678 13.8367 6.00099 14.2509 6.00099C14.665 6.00105 15.0009 6.33681 15.0009 6.75099V9.25099C15.0006 9.66495 14.6649 10.0009 14.2509 10.001H11.7509C11.3368 10.001 11.0011 9.66499 11.0009 9.25099C11.0009 8.83678 11.3367 8.50099 11.7509 8.50099H12.4423L10.7206 6.77931C10.4278 6.48639 10.4278 6.01159 10.7206 5.71876ZM9.96182 1.05666C10.2423 0.939803 10.5663 1.004 10.7812 1.21876C10.9958 1.43362 11.059 1.75675 10.9423 2.03712L8.44326 8.03712C8.28395 8.41948 7.84417 8.60073 7.46182 8.44142C7.07973 8.28198 6.89924 7.8422 7.0585 7.45998L7.56436 6.24416L5.75381 4.43361L4.53897 4.94142C4.15684 5.10023 3.71878 4.9191 3.55948 4.53712C3.40019 4.15481 3.58053 3.716 3.9628 3.55666L9.96182 1.05666ZM7.25088 3.80958L8.18838 4.74708L8.8583 3.14064L7.25088 3.80958Z" fill="#212121"/>
</svg>
