<svg width="24" height="24" viewBox="0 0 24 24" fill="none" xmlns="http://www.w3.org/2000/svg">
<path d="M22 11.5C22 10.9477 21.5523 10.5 21 10.5C20.4477 10.5 20 10.9477 20 11.5V11.5858L16.9571 8.54292C16.5666 8.1524 15.9334 8.1524 15.5429 8.54292C15.1524 8.93345 15.1524 9.56661 15.5429 9.95714L18.5858 13H18.5C17.9477 13 17.5 13.4477 17.5 14C17.5 14.5523 17.9477 15 18.5 15H21C21.5523 15 22 14.5523 22 14V11.5ZM16.4037 3.42811C16.5847 3.04618 16.5059 2.59175 16.2071 2.29292C15.9083 1.99409 15.4538 1.91538 15.0719 2.09629L5.57192 6.59629C5.07279 6.83272 4.85984 7.42899 5.09626 7.92811C5.33269 8.42724 5.92897 8.64019 6.42809 8.40377L8.84478 7.25902L11.241 9.65525L10.0963 12.0719C9.85984 12.5711 10.0728 13.1673 10.5719 13.4038C11.071 13.6402 11.6673 13.4272 11.9037 12.9281L16.4037 3.42811ZM12.1501 7.73596L10.7641 6.34988L13.3976 5.10241L12.1501 7.73596ZM15 18.5C15 17.9477 14.5523 17.5 14 17.5C13.4477 17.5 13 17.9477 13 18.5V18.5858L3.70711 9.29292C3.31658 8.9024 2.68342 8.9024 2.29289 9.29292C1.90237 9.68345 1.90237 10.3166 2.29289 10.7071L11.5858 20H11.5C10.9477 20 10.5 20.4477 10.5 21C10.5 21.5523 10.9477 22 11.5 22H14C14.5523 22 15 21.5523 15 21V18.5Z" fill="#212121"/>
</svg>
