<svg width="28" height="28" viewBox="0 0 28 28" fill="none" xmlns="http://www.w3.org/2000/svg">
<path d="M12.294 2C11.5226 2 10.9252 2.67504 11.019 3.44068L12.0153 11.5771L9.31064 11.7195L7.6677 8.84429C7.36936 8.3222 6.81414 8 6.21282 8C5.543 8 5 8.543 5 9.21282V11.9463L3.97803 12.0001C2.88358 12.0119 2 12.9028 2 14C2 15.0972 2.88358 15.9881 3.97803 15.9999L5 16.0537V18.7872C5 19.457 5.543 20 6.21282 20C6.81414 20 7.36936 19.6778 7.6677 19.1557L9.31064 16.2805L12.0153 16.4229L11.019 24.5593C10.9252 25.325 11.5226 26 12.294 26C13.0104 26 13.6601 25.5795 13.9535 24.926L17.6384 16.7188L22.7025 16.9854C22.8006 16.9951 22.8998 17 23 17C24.6569 17 26 15.6569 26 14C26 12.3431 24.6569 11 23 11C22.8998 11 22.8006 11.0049 22.7025 11.0146L17.6384 11.2812L13.9535 3.07402C13.6601 2.42047 13.0104 2 12.294 2Z" fill="#212121"/>
</svg>
