<svg width="16" height="16" viewBox="0 0 16 16" fill="none" xmlns="http://www.w3.org/2000/svg">
<path d="M7.64728 2.14638C7.84268 1.95105 8.15946 1.95123 8.35464 2.14678C9.5947 3.38913 10.9689 4 12.5 4C12.7761 4 13 4.22386 13 4.5V5.59971C12.6832 5.43777 12.3486 5.30564 12 5.20703V4.98121C10.5195 4.86895 9.18521 4.25528 8.00042 3.18917C6.81393 4.25491 5.47941 4.86879 4 4.98118V7.50126C4 8.93206 4.36125 10.061 5.01735 10.9401C5.06968 11.601 5.23884 12.229 5.50418 12.8035C3.84481 11.5888 3 9.81023 3 7.50126V4.5C3 4.22386 3.22386 4 3.5 4C5.02923 4 6.40416 3.38902 7.64728 2.14638ZM15 10.5C15 8.01472 12.9853 6 10.5 6C8.01472 6 6 8.01472 6 10.5C6 12.9853 8.01472 15 10.5 15C12.9853 15 15 12.9853 15 10.5ZM10.8536 12.8536C10.6583 13.0488 10.3417 13.0488 10.1464 12.8536C9.95118 12.6583 9.95118 12.3417 10.1464 12.1464L11.2929 11H8.5C8.22386 11 8 10.7761 8 10.5C8 10.2239 8.22386 10 8.5 10H11.2929L10.1464 8.85355C9.95118 8.65829 9.95118 8.34171 10.1464 8.14645C10.3417 7.95118 10.6583 7.95118 10.8536 8.14645L12.8536 10.1464C12.9015 10.1944 12.9377 10.2496 12.9621 10.3086C12.9861 10.3667 12.9996 10.4303 13 10.497L13 10.5L13 10.503C12.9996 10.5697 12.9861 10.6333 12.9621 10.6914C12.938 10.7495 12.9026 10.804 12.8557 10.8514L12.8532 10.854L10.8536 12.8536Z" fill="#212121"/>
</svg>
