<svg width="20" height="20" viewBox="0 0 20 20" fill="none" xmlns="http://www.w3.org/2000/svg">
<path d="M6.16309 5H13.8421C13.7998 5.13602 13.749 5.26961 13.69 5.4C13.476 5.84909 13.1652 6.24524 12.78 6.56L11 8.09C10.7233 8.32198 10.5014 8.61223 10.35 8.94C10.1733 9.26642 10.0741 9.6291 10.06 10C10.0741 10.3709 10.1733 10.7336 10.35 11.06C10.5014 11.3878 10.7234 11.678 11 11.91L12.78 13.44C13.1652 13.7548 13.476 14.1509 13.69 14.6C13.8891 15.0402 13.9947 15.5169 14 16H6C6.00608 15.5159 6.11516 15.0387 6.32 14.6C6.52759 14.1497 6.83544 13.753 7.22 13.44L9.04 11.92C9.32073 11.6855 9.54611 11.3918 9.7 11.06C9.85933 10.7294 9.9414 10.367 9.93999 10C9.9414 9.63304 9.85933 9.27057 9.7 8.94C9.54611 8.60817 9.32072 8.31449 9.04 8.08L7.22 6.56C6.83544 6.24705 6.52759 5.85025 6.32 5.4C6.25919 5.26979 6.20683 5.13618 6.16309 5Z" fill="#212121"/>
</svg>
