<svg width="24" height="24" viewBox="0 0 24 24" fill="none" xmlns="http://www.w3.org/2000/svg">
<path d="M2 7C2 5.34315 3.34315 4 5 4H20.25C20.8023 4 21.25 4.44772 21.25 5C21.25 5.55228 20.8023 6 20.25 6H17V16.7025C17 17.7398 18.0276 18.464 19.0045 18.1151L19.1637 18.0583C19.6838 17.8725 20.256 18.1436 20.4417 18.6637C20.6275 19.1838 20.3564 19.756 19.8363 19.9417L19.6772 19.9986C17.3978 20.8126 15 19.1228 15 16.7025V6H9.9789C9.96771 6.22057 9.95119 6.51373 9.92748 6.86763C9.87191 7.69721 9.77676 8.86267 9.61818 10.2106C9.30254 12.8935 8.72978 16.3522 7.69453 19.3285C7.51309 19.8502 6.94314 20.1259 6.42151 19.9445C5.89988 19.7631 5.62409 19.1931 5.80553 18.6715C6.77028 15.8979 7.32252 12.6065 7.63188 9.97692C7.7858 8.6686 7.87815 7.53719 7.93195 6.73395C7.95139 6.44382 7.96577 6.19678 7.97621 6H5C4.44772 6 4 6.44772 4 7V7.5C4 8.05228 3.55228 8.5 3 8.5C2.44772 8.5 2 8.05228 2 7.5V7Z" fill="#212121"/>
</svg>
