<svg width="20" height="20" viewBox="0 0 20 20" fill="none" xmlns="http://www.w3.org/2000/svg">
<path d="M3.1794 4.66754C2.97835 5.05553 2.96986 5.55551 3.03897 5.90227C3.09295 6.17309 2.91716 6.43638 2.64635 6.49036C2.37553 6.54433 2.11223 6.36855 2.05826 6.09773C1.96128 5.61116 1.95279 4.86114 2.29153 4.20746C2.6554 3.50525 3.37651 3 4.54166 3H16.4999C16.7761 3 16.9999 3.22386 16.9999 3.5C16.9999 3.77614 16.7761 4 16.4999 4H13.9999V13.6652C13.9999 15.2081 14.4686 15.7234 14.8369 15.8957C15.26 16.0938 15.8345 15.9862 16.2732 15.7631C16.5194 15.6379 16.8204 15.7359 16.9456 15.982C17.0708 16.2281 16.9728 16.5292 16.7266 16.6544C16.1654 16.9399 15.2399 17.1884 14.413 16.8015C13.5312 16.3888 12.9999 15.378 12.9999 13.6652V4H7.99994C7.99993 4.0092 7.99967 4.01844 7.99916 4.02773C7.91528 5.53756 7.71425 8.07588 7.38298 10.5416C7.21735 11.7743 7.01833 12.9953 6.78359 14.0636C6.55087 15.1226 6.27586 16.0662 5.94714 16.7236C5.82365 16.9706 5.52331 17.0707 5.27632 16.9472C5.02933 16.8237 4.92922 16.5234 5.05271 16.2764C5.32399 15.7338 5.57816 14.8899 5.80689 13.8489C6.03361 12.8172 6.22834 11.6257 6.39188 10.4084C6.71692 7.98916 6.91545 5.49347 6.99915 4H4.54166C3.71377 4 3.35531 4.32808 3.1794 4.66754Z" fill="#212121"/>
</svg>
