<svg width="16" height="16" viewBox="0 0 16 16" fill="none" xmlns="http://www.w3.org/2000/svg">
<path d="M7.70041 4.26034C7.41856 3.95681 7.43613 3.48226 7.73966 3.20041C8.0432 2.91856 8.51775 2.93613 8.7996 3.23966L12.7996 7.48966C13.0668 7.77742 13.0668 8.22258 12.7996 8.51034L8.7996 12.7603C8.51774 13.0639 8.0432 13.0814 7.73966 12.7996C7.43613 12.5177 7.41855 12.0432 7.70041 11.7397L11.2265 8L7.70041 4.26034ZM3.70041 4.26034C3.41856 3.95681 3.43613 3.48226 3.73967 3.20041C4.0432 2.91856 4.51775 2.93613 4.7996 3.23966L8.7996 7.48966C9.0668 7.77742 9.0668 8.22258 8.7996 8.51034L4.7996 12.7603C4.51775 13.0639 4.0432 13.0814 3.73967 12.7996C3.43613 12.5177 3.41856 12.0432 3.70041 11.7397L7.22652 8L3.70041 4.26034Z" fill="#212121"/>
</svg>
