<svg width="24" height="24" viewBox="0 0 24 24" fill="none" xmlns="http://www.w3.org/2000/svg">
<path d="M11.6174 2.07612C11.991 1.92134 12.4211 2.00689 12.7071 2.29289L17.7071 7.29289C17.9083 7.49402 18.0142 7.77129 17.9985 8.0553C17.9828 8.33931 17.8468 8.60318 17.6247 8.78087L13.6008 12L17.6247 15.2191C17.8468 15.3968 17.9828 15.6607 17.9985 15.9447C18.0142 16.2287 17.9083 16.506 17.7071 16.7071L12.7071 21.7071C12.4211 21.9931 11.991 22.0787 11.6174 21.9239C11.2437 21.7691 11 21.4045 11 21V14.0806L7.62473 16.7809C7.19347 17.1259 6.56418 17.056 6.21917 16.6247C5.87416 16.1934 5.94408 15.5641 6.37534 15.2191L10.3993 12L6.37534 8.78087C5.94408 8.43586 5.87416 7.80657 6.21917 7.3753C6.56418 6.94404 7.19347 6.87412 7.62473 7.21913L11 9.91937V3C11 2.59554 11.2437 2.2309 11.6174 2.07612ZM13 14.0806V18.5858L15.5029 16.0829L13 14.0806ZM13 9.91937L15.5029 7.91708L13 5.41421V9.91937Z" fill="#212121"/>
</svg>
