<svg width="24" height="24" viewBox="0 0 24 24" fill="none" xmlns="http://www.w3.org/2000/svg">
<path d="M12.6247 2.21913C12.2595 1.92696 11.7405 1.92696 11.3753 2.21913L7.62531 5.21913C7.19404 5.56414 7.12412 6.19343 7.46913 6.6247C7.81414 7.05596 8.44343 7.12588 8.87469 6.78087L12 4.28062L15.1253 6.78087C15.5566 7.12588 16.1859 7.05596 16.5309 6.6247C16.8759 6.19343 16.806 5.56414 16.3747 5.21913L12.6247 2.21913ZM2.75 9C1.50736 9 0.5 10.0074 0.5 11.25V12.75C0.5 13.9926 1.50736 15 2.75 15C3.99264 15 5 13.9926 5 12.75V11.25C5 10.0074 3.99264 9 2.75 9ZM2 11.25C2 10.8358 2.33579 10.5 2.75 10.5C3.16421 10.5 3.5 10.8358 3.5 11.25V12.75C3.5 13.1642 3.16421 13.5 2.75 13.5C2.33579 13.5 2 13.1642 2 12.75V11.25ZM8.25 9C7.00736 9 6 10.0074 6 11.25V12.75C6 13.9926 7.00736 15 8.25 15C9.49264 15 10.5 13.9926 10.5 12.75V11.25C10.5 10.0074 9.49264 9 8.25 9ZM7.5 11.25C7.5 10.8358 7.83579 10.5 8.25 10.5C8.66421 10.5 9 10.8358 9 11.25V12.75C9 13.1642 8.66421 13.5 8.25 13.5C7.83579 13.5 7.5 13.1642 7.5 12.75V11.25ZM14 11.25C14 10.0074 15.0074 9 16.25 9C17.4926 9 18.5 10.0074 18.5 11.25V12.75C18.5 13.9926 17.4926 15 16.25 15C15.0074 15 14 13.9926 14 12.75V11.25ZM16.25 10.5C15.8358 10.5 15.5 10.8358 15.5 11.25V12.75C15.5 13.1642 15.8358 13.5 16.25 13.5C16.6642 13.5 17 13.1642 17 12.75V11.25C17 10.8358 16.6642 10.5 16.25 10.5ZM21.75 9C20.5074 9 19.5 10.0074 19.5 11.25V12.75C19.5 13.9926 20.5074 15 21.75 15C22.9926 15 24 13.9926 24 12.75V11.25C24 10.0074 22.9926 9 21.75 9ZM21 11.25C21 10.8358 21.3358 10.5 21.75 10.5C22.1642 10.5 22.5 10.8358 22.5 11.25V12.75C22.5 13.1642 22.1642 13.5 21.75 13.5C21.3358 13.5 21 13.1642 21 12.75V11.25ZM13 10.75C13 11.1642 12.6642 11.5 12.25 11.5C11.8358 11.5 11.5 11.1642 11.5 10.75C11.5 10.3358 11.8358 10 12.25 10C12.6642 10 13 10.3358 13 10.75ZM12.25 14.5C12.6642 14.5 13 14.1642 13 13.75C13 13.3358 12.6642 13 12.25 13C11.8358 13 11.5 13.3358 11.5 13.75C11.5 14.1642 11.8358 14.5 12.25 14.5ZM12.6306 22.0261L16.6306 18.7761C17.0592 18.4278 17.1244 17.798 16.7761 17.3694C16.4278 16.9408 15.798 16.8756 15.3694 17.2239L12 19.9615L8.63059 17.2239C8.20196 16.8756 7.57215 16.9408 7.22389 17.3694C6.87562 17.798 6.94077 18.4278 7.36941 18.7761L11.3694 22.0261C11.7368 22.3246 12.2632 22.3246 12.6306 22.0261Z" fill="#212121"/>
</svg>
