<svg width="16" height="16" viewBox="0 0 16 16" fill="none" xmlns="http://www.w3.org/2000/svg">
<path d="M2 4.25C2 3.00736 3.00736 2 4.25 2H7.75C8.99264 2 10 3.00736 10 4.25V7.75C10 8.72966 9.37389 9.56309 8.5 9.87197V4.25C8.5 3.83579 8.16421 3.5 7.75 3.5H4.25C3.83579 3.5 3.5 3.83579 3.5 4.25V7.75C3.5 8.16421 3.83579 8.5 4.25 8.5H5V10H4.25C3.00736 10 2 8.99264 2 7.75V4.25Z" fill="#212121"/>
<path d="M6 11.75C6 12.9926 7.00736 14 8.25 14H11.75C12.9926 14 14 12.9926 14 11.75V8.25C14 7.00736 12.9926 6 11.75 6H11V7.5H11.75C12.1642 7.5 12.5 7.83579 12.5 8.25V11.75C12.5 12.1642 12.1642 12.5 11.75 12.5H8.25C7.83579 12.5 7.5 12.1642 7.5 11.75V6.12803C6.62611 6.43691 6 7.27034 6 8.25V11.75Z" fill="#212121"/>
</svg>
