<svg width="20" height="20" viewBox="0 0 20 20" fill="none" xmlns="http://www.w3.org/2000/svg">
<path d="M10.9798 6C10.9488 6.34341 10.8863 6.67772 10.7951 7H14.9984V13H4.99328V10.977C4.64966 10.9457 4.31518 10.8828 3.99276 10.7913V14.5C3.99276 14.7761 3.76878 15 3.4925 15C3.21621 15 2.99224 14.7761 2.99224 14.5V10.3973C2.6342 10.2138 2.29891 9.99227 1.99172 9.73799V14.5C1.99172 15.3284 2.66364 16 3.4925 16C4.32136 16 4.99328 15.3284 4.99328 14.5V14H14.9984V14.5C14.9984 15.3284 15.6704 16 16.4992 16C17.3281 16 18 15.3284 18 14.5V5.5C18 4.67157 17.3281 4 16.4992 4C15.6704 4 14.9984 4.67157 14.9984 5.5V6H10.9798ZM16.4992 5C16.7755 5 16.9995 5.22386 16.9995 5.5V14.5C16.9995 14.7761 16.7755 15 16.4992 15C16.2229 15 15.999 14.7761 15.999 14.5V5.5C15.999 5.22386 16.2229 5 16.4992 5ZM5.50233 1C3.01576 1 1 3.01472 1 5.5C1 7.98528 3.01576 10 5.50233 10C7.98889 10 10.0046 7.98528 10.0046 5.5C10.0046 3.01472 7.98889 1 5.50233 1ZM8.10722 6.39645C8.30259 6.59171 8.30259 6.90829 8.10722 7.10355L6.35632 8.85355C6.30835 8.90149 6.25308 8.93766 6.19408 8.96206C6.1351 8.98651 6.07041 9 6.00259 9C5.93475 9 5.87008 8.98651 5.8111 8.96206C5.75297 8.93802 5.69845 8.90256 5.65097 8.85567L3.89795 7.10355C3.70258 6.90829 3.70258 6.59171 3.89795 6.39645C4.09331 6.20118 4.41005 6.20118 4.60541 6.39645L5.50233 7.29289V5.75C5.50233 4.7835 4.71842 4 3.75142 4H3.50129C3.22501 4 3.00103 3.77614 3.00103 3.5C3.00103 3.22386 3.22501 3 3.50129 3H3.75142C5.27099 3 6.50284 4.23122 6.50284 5.75V7.29289L7.39976 6.39645C7.59512 6.20118 7.91186 6.20118 8.10722 6.39645Z" fill="#212121"/>
</svg>
