<?xml version="1.0" encoding="UTF-8"?>
<svg width="24px" height="24px" viewBox="0 0 24 24" version="1.1" xmlns="http://www.w3.org/2000/svg" xmlns:xlink="http://www.w3.org/1999/xlink">
    <!-- Generator: Sketch 59.1 (86144) - https://sketch.com -->
    <title>ic_fluent_double_tap_swipe_down_24_regular</title>
    <desc>Created with Sketch.</desc>
    <g id="ðŸ”-Product-Icons" stroke="none" stroke-width="1" fill="none" fill-rule="evenodd">
        <g id="ic_fluent_double_tap_swipe_down_24_regular" fill="#212121" fill-rule="nonzero">
            <path d="M15.7635523,17.2004049 C16.0394914,17.456634 16.0791023,17.8721163 15.8722641,18.1735898 L15.8028091,18.2603383 L12.5528091,21.7603383 C12.2808121,22.0532582 11.8331817,22.0776681 11.5319125,21.8335683 L11.4536188,21.7603383 L8.20361883,18.2603383 C7.92176676,17.9568053 7.93934263,17.482257 8.24287563,17.2004049 C8.51881472,16.9441757 8.93608883,16.9354077 9.22143599,17.1639799 L9.30280907,17.2396617 L12.0032107,20.14779 L14.7036188,17.2396617 C14.9854709,16.9361287 15.4600193,16.9185528 15.7635523,17.2004049 Z M12,14 C12.6540214,14 13.1842105,14.5301891 13.1842105,15.1842105 C13.1842105,15.8382319 12.6540214,16.3684211 12,16.3684211 C11.3459786,16.3684211 10.8157895,15.8382319 10.8157895,15.1842105 C10.8157895,14.5301891 11.3459786,14 12,14 Z M12,3 C14.7614237,3 17,5.23857625 17,8 C17,10.7614237 14.7614237,13 12,13 C9.23857625,13 7,10.7614237 7,8 C7,5.23857625 9.23857625,3 12,3 Z M12,4.5 C10.0670034,4.5 8.5,6.06700338 8.5,8 C8.5,9.93299662 10.0670034,11.5 12,11.5 C13.9329966,11.5 15.5,9.93299662 15.5,8 C15.5,6.06700338 13.9329966,4.5 12,4.5 Z M12,5.75 C13.2426407,5.75 14.25,6.75735931 14.25,8 C14.25,9.24264069 13.2426407,10.25 12,10.25 C10.7573593,10.25 9.75,9.24264069 9.75,8 C9.75,6.75735931 10.7573593,5.75 12,5.75 Z M12,7.25 C11.5857864,7.25 11.25,7.58578644 11.25,8 C11.25,8.41421356 11.5857864,8.75 12,8.75 C12.4142136,8.75 12.75,8.41421356 12.75,8 C12.75,7.58578644 12.4142136,7.25 12,7.25 Z" id="ðŸŽ¨Color"></path>
        </g>
    </g>
</svg>