<svg width="32" height="32" viewBox="0 0 32 32" fill="none" xmlns="http://www.w3.org/2000/svg">
<path d="M25.5 4C27.9853 4 30 6.01472 30 8.5V23.5C30 25.9853 27.9853 28 25.5 28H6.5C4.01472 28 2 25.9853 2 23.5V8.5C2 6.01472 4.01472 4 6.5 4H25.5ZM6.5 5C4.567 5 3 6.567 3 8.5V23.5C3 25.433 4.567 27 6.5 27H25.5C27.433 27 29 25.433 29 23.5V8.5C29 6.567 27.433 5 25.5 5H6.5ZM14.5 23C14.7761 23 15 23.2239 15 23.5C15 23.7761 14.7761 24 14.5 24H6.5C6.22386 24 6 23.7761 6 23.5C6 23.2239 6.22386 23 6.5 23H14.5ZM25 19C25.5523 19 26 19.4477 26 20V23C26 23.5523 25.5523 24 25 24H18C17.4477 24 17 23.5523 17 23V20C17 19.4477 17.4477 19 18 19H25ZM18 23H25V20H18V23ZM14.5 19C14.7761 19 15 19.2239 15 19.5C15 19.7761 14.7761 20 14.5 20H6.5C6.22386 20 6 19.7761 6 19.5C6 19.2239 6.22386 19 6.5 19H14.5ZM25 8C25.5523 8 26 8.44771 26 9V15C26 15.5523 25.5523 16 25 16H7C6.44772 16 6 15.5523 6 15V9C6 8.44772 6.44772 8 7 8H25ZM7 15H25V9H7V15Z" fill="black" fill-opacity="0.858824"/>
</svg>
