<svg width="20" height="20" viewBox="0 0 20 20" fill="none" xmlns="http://www.w3.org/2000/svg">
<path d="M5 5.99982V7.99769H15V5.99982H5Z" fill="#212121"/>
<path d="M11.9978 11.0004V14.0004H14.9978V11.0004H11.9978Z" fill="#212121"/>
<path d="M2 5.75244C2 4.23366 3.23122 3.00244 4.75 3.00244H15.25C16.7688 3.00244 18 4.23366 18 5.75244V14.2524C18 15.7712 16.7688 17.0024 15.25 17.0024H4.75C3.23122 17.0024 2 15.7712 2 14.2524V5.75244ZM4 5.49982V8.49769C4 8.77384 4.22386 8.99769 4.5 8.99769H15.5C15.7761 8.99769 16 8.77384 16 8.49769V5.49982C16 5.22367 15.7761 4.99982 15.5 4.99982H4.5C4.22386 4.99982 4 5.22367 4 5.49982ZM10.9978 10.5004V14.5004C10.9978 14.7765 11.2217 15.0004 11.4978 15.0004H15.4978C15.7739 15.0004 15.9978 14.7765 15.9978 14.5004V10.5004C15.9978 10.2242 15.7739 10.0004 15.4978 10.0004H11.4978C11.2217 10.0004 10.9978 10.2242 10.9978 10.5004ZM4.5 10.4998C4.22386 10.4998 4 10.7237 4 10.9998C4 11.276 4.22386 11.4998 4.5 11.4998H9.50422C9.78036 11.4998 10.0042 11.276 10.0042 10.9998C10.0042 10.7237 9.78036 10.4998 9.50422 10.4998H4.5ZM4 13.9998C4 14.276 4.22386 14.4998 4.5 14.4998H9.50361C9.77975 14.4998 10.0036 14.276 10.0036 13.9998C10.0036 13.7237 9.77975 13.4998 9.50361 13.4998H4.5C4.22386 13.4998 4 13.7237 4 13.9998Z" fill="#212121"/>
</svg>
