<svg width="28" height="28" viewBox="0 0 28 28" fill="none" xmlns="http://www.w3.org/2000/svg">
<path d="M13.1135 19.6001L10.841 16.9397C10.6035 16.6617 10.2562 16.5016 9.8905 16.5016H8.72056L3.90614 20.8526C3.89677 20.861 3.88761 20.8697 3.87868 20.8787C2.70711 22.0503 2.70711 23.9497 3.87868 25.1213C5.05025 26.2929 6.94975 26.2929 8.12132 25.1213C8.13023 25.1124 8.13892 25.1033 8.14737 25.0939L13.1135 19.6001ZM18.3013 13.8611L15.9389 11.8427C15.6609 11.6052 15.5009 11.258 15.5009 10.8924V10.1543C15.5786 9.95894 15.6317 9.73441 15.659 9.48676C15.7814 8.3753 16.1846 7.17561 16.6899 6.12097C17.1934 5.07002 17.8295 4.09815 18.4632 3.46447C20.4158 1.51184 23.5816 1.51184 25.5342 3.46447C27.4868 5.41709 27.4868 8.58291 25.5342 10.5355C24.9008 11.1689 23.9296 11.8047 22.8792 12.3081C21.8252 12.8132 20.6262 13.2165 19.5151 13.3393C18.9839 13.3981 18.5592 13.5759 18.3013 13.8611ZM18.75 7.5C18.3358 7.5 18 7.83579 18 8.25C18 9.76878 19.2312 11 20.75 11C21.1642 11 21.5 10.6642 21.5 10.25C21.5 9.83579 21.1642 9.5 20.75 9.5C20.0596 9.5 19.5 8.94036 19.5 8.25C19.5 7.83579 19.1642 7.5 18.75 7.5ZM6.0856 2.80546C7.15955 1.73151 8.90075 1.73151 9.97469 2.80546L13.6954 6.52619C14.2112 7.04192 14.5009 7.74139 14.5009 8.47074V10.8924C14.5009 11.5504 14.789 12.1755 15.2893 12.603L23.9516 20.004L23.9723 20.0248C25.3392 21.3917 25.3392 23.6077 23.9723 24.9746C22.6055 26.3414 20.3894 26.3414 19.0226 24.9746L19.0018 24.9538L11.6013 16.2902C11.1738 15.7898 10.5487 15.5016 9.8905 15.5016H7.47506C6.74618 15.5016 6.04711 15.2122 5.53146 14.6971L1.8064 10.9756C0.731569 9.90185 0.731145 8.15991 1.80546 7.0856L6.0856 2.80546ZM8.53033 5.46967C8.23744 5.17678 7.76256 5.17678 7.46967 5.46967C7.17678 5.76256 7.17678 6.23744 7.46967 6.53033L10.4697 9.53033C10.7626 9.82322 11.2374 9.82322 11.5303 9.53033C11.8232 9.23744 11.8232 8.76256 11.5303 8.46967L8.53033 5.46967ZM4.46967 8.46967C4.17678 8.76256 4.17678 9.23744 4.46967 9.53033L7.46967 12.5303C7.76256 12.8232 8.23744 12.8232 8.53033 12.5303C8.82322 12.2374 8.82322 11.7626 8.53033 11.4697L5.53033 8.46967C5.23744 8.17678 4.76256 8.17678 4.46967 8.46967Z" fill="#212121"/>
</svg>
