<svg width="16" height="16" viewBox="0 0 16 16" fill="none" xmlns="http://www.w3.org/2000/svg">
<path d="M8.5 2.5C8.5 2.22386 8.27615 2 8 2C7.72386 2 7.5 2.22386 7.5 2.5V12.197L3.87165 8.16552C3.68692 7.96026 3.37078 7.94362 3.16552 8.12835C2.96027 8.31308 2.94363 8.62923 3.12836 8.83448L7.62836 13.8345C7.72318 13.9398 7.85826 14 8 14C8.14175 14 8.27683 13.9398 8.37165 13.8345L12.8717 8.83448C13.0564 8.62923 13.0397 8.31308 12.8345 8.12835C12.6292 7.94362 12.3131 7.96026 12.1284 8.16552L8.5 12.197V2.5Z" fill="#212121"/>
</svg>
