<svg width="32" height="32" viewBox="0 0 32 32" fill="none" xmlns="http://www.w3.org/2000/svg">
<path d="M15 3C15.6904 3 16.25 3.55964 16.25 4.25V24.7868L23.8777 17.3547C24.3721 16.8729 25.1635 16.8832 25.6453 17.3777C26.1271 17.8721 26.1168 18.6635 25.6223 19.1453L15.8751 28.6426C15.7901 28.726 15.696 28.7949 15.596 28.8491C15.5612 28.868 15.5256 28.8852 15.4895 28.9005C15.4838 28.9029 15.4781 28.9053 15.4724 28.9077C15.3361 28.9633 15.1878 28.9956 15.0325 28.9996C15.0217 28.9999 15.0109 29 15 29C14.985 29 14.9701 28.9997 14.9553 28.9992C14.8049 28.9939 14.6613 28.9621 14.529 28.9082C14.5204 28.9047 14.5117 28.9011 14.5031 28.8974C14.4675 28.8819 14.4324 28.8648 14.3981 28.8459C14.3003 28.7921 14.2081 28.7243 14.1248 28.6424L4.37767 19.1453C3.88322 18.6635 3.87294 17.8721 4.35471 17.3777C4.83649 16.8832 5.62788 16.8729 6.12233 17.3547L13.75 24.7868V4.25C13.75 3.55964 14.3096 3 15 3Z" fill="#212121"/>
</svg>
