<?xml version="1.0" encoding="UTF-8"?>
<svg width="20px" height="20px" viewBox="0 0 20 20" version="1.1" xmlns="http://www.w3.org/2000/svg" xmlns:xlink="http://www.w3.org/1999/xlink">
    <!-- Generator: Sketch 59.1 (86144) - https://sketch.com -->
    <title>ic_fluent_arrow_down_20_regular</title>
    <desc>Created with Sketch.</desc>
    <g id="ðŸ”-Product-Icons" stroke="none" stroke-width="1" fill="none" fill-rule="evenodd">
        <g id="ic_fluent_arrow_down_20_regular" fill="#212121" fill-rule="nonzero">
            <path d="M9.91012437,4.00805567 L10,4 C10.2454599,4 10.4496084,4.17687516 10.4919443,4.41012437 L10.5,4.5 L10.5,14.292 L14.1464466,10.6464466 C14.320013,10.4728803 14.5894374,10.4535951 14.7843055,10.5885912 L14.8535534,10.6464466 C15.0271197,10.820013 15.0464049,11.0894374 14.9114088,11.2843055 L14.8535534,11.3535534 L10.3535534,15.8535534 C10.179987,16.0271197 9.91056264,16.0464049 9.7156945,15.9114088 L9.64644661,15.8535534 L5.14644661,11.3535534 C4.95118446,11.1582912 4.95118446,10.8417088 5.14644661,10.6464466 C5.32001296,10.4728803 5.58943736,10.4535951 5.7843055,10.5885912 L5.85355339,10.6464466 L9.5,14.292 L9.5,4.5 C9.5,4.25454011 9.67687516,4.05039163 9.91012437,4.00805567 L10,4 L9.91012437,4.00805567 Z" id="ðŸŽ¨-Color"></path>
        </g>
    </g>
</svg>