<?xml version="1.0" encoding="UTF-8"?>
<svg width="20px" height="20px" viewBox="0 0 20 20" version="1.1" xmlns="http://www.w3.org/2000/svg" xmlns:xlink="http://www.w3.org/1999/xlink">
    <!-- Generator: Sketch 64 (93537) - https://sketch.com -->
    <title>ic_fluent_arrow_down_20_regular</title>
    <desc>Created with Sketch.</desc>
    <g id="ðŸ”-System-Icons" stroke="none" stroke-width="1" fill="none" fill-rule="evenodd">
        <g id="ic_fluent_arrow_down_20_regular" fill="#212121" fill-rule="nonzero">
            <path d="M10.4999975,4.5 C10.4999975,4.22386 10.2761,4 9.9999975,4 C9.72386,4 9.4999975,4.22386 9.4999975,4.5 L9.4999975,14.2929 L4.85355,9.64645 C4.65829,9.45118 4.34171,9.45118 4.14645,9.64645 C3.95118,9.84171 3.95118,10.1583 4.14645,10.3536 L9.64582,15.8529 C9.73635,15.9438 9.86161,16 9.9999975,16 C10.1381,16 10.2631,15.944 10.3536,15.8536 L15.8536,10.3536 C16.0488,10.1583 16.0488,9.84171 15.8536,9.64645 C15.6583,9.45118 15.3417,9.45118 15.1464,9.64645 L10.4999975,14.2929 L10.4999975,4.5 Z" id="ðŸŽ¨-Color"></path>
        </g>
    </g>
</svg>