<svg width="13" height="12" viewBox="0 0 13 12" fill="none" xmlns="http://www.w3.org/2000/svg">
<path d="M6.41602 0C3.10231 0 0.416016 2.68629 0.416016 6C0.416016 9.31371 3.10231 12 6.41602 12C9.72972 12 12.416 9.31371 12.416 6C12.416 2.68629 9.72972 0 6.41602 0ZM1.91602 6C1.91602 3.51472 3.93073 1.5 6.41602 1.5C8.9013 1.5 10.916 3.51472 10.916 6C10.916 8.48528 8.9013 10.5 6.41602 10.5C3.93073 10.5 1.91602 8.48528 1.91602 6ZM3.41602 6C3.41602 5.58579 3.7518 5.25 4.16602 5.25H8.66602C9.08023 5.25 9.41602 5.58579 9.41602 6C9.41602 6.41421 9.08023 6.75 8.66602 6.75H4.16602C3.7518 6.75 3.41602 6.41421 3.41602 6Z" fill="#212121"/>
</svg>
