<svg width="24" height="24" viewBox="0 0 24 24" fill="none" xmlns="http://www.w3.org/2000/svg">
<path d="M3.25033 11.0004H2.04979C2.51886 6.276 6.276 2.51886 11.0004 2.04979V3.25041C11.0004 3.66463 11.3362 4.00041 11.7504 4.00041C12.1646 4.00041 12.5004 3.66463 12.5004 3.25041V2.0127C17.4575 2.25679 21.4655 6.11048 21.951 11.0004H20.7504C20.3362 11.0004 20.0004 11.3362 20.0004 11.7504C20.0004 12.1646 20.3362 12.5004 20.7504 12.5004H21.9881C21.7358 17.6253 17.6253 21.7358 12.5004 21.9881V20.7504C12.5004 20.3362 12.1646 20.0004 11.7504 20.0004C11.3362 20.0004 11.0004 20.3362 11.0004 20.7504V21.951C6.11048 21.4655 2.25679 17.4575 2.0127 12.5004H3.25033C3.66455 12.5004 4.00033 12.1646 4.00033 11.7504C4.00033 11.3362 3.66455 11.0004 3.25033 11.0004ZM14.6542 11.5262C14.2356 10.5494 13.4455 9.77938 12.4584 9.38601L8.4302 7.78084C8.02241 7.61834 7.61813 8.02263 7.78063 8.43042L9.38587 12.4585C9.77926 13.4457 10.5493 14.2357 11.526 14.6543L15.8514 16.5081C16.2663 16.6859 16.6857 16.2664 16.5079 15.8515L14.6542 11.5262Z" fill="#212121"/>
</svg>
