<svg width="24" height="24" viewBox="0 0 24 24" fill="none" xmlns="http://www.w3.org/2000/svg">
<path d="M16.25 2C16.6297 2 16.9435 2.28215 16.9932 2.64823L17 2.75L16.9994 3.499L17.7486 3.49986C18.991 3.50029 19.9982 4.50734 19.9986 5.7499L19.9994 16H16.2453L16.0913 16.0052C14.9737 16.0808 14.0799 16.9724 14.001 18.089L13.9953 18.25V22.0046H5.75376C4.5113 22.0044 3.50407 20.9972 3.50375 19.7547L3.50244 5.7502C3.50212 4.50751 4.5094 3.49986 5.75209 3.49986L6.49944 3.499L6.50001 2.75C6.50001 2.33579 6.83579 2 7.25001 2C7.6297 2 7.9435 2.28215 7.99316 2.64823L8.00001 2.75L7.99944 3.499H11.0014L11.0019 2.75C11.0019 2.33579 11.3377 2 11.7519 2C12.1316 2 12.4454 2.28215 12.4951 2.64823L12.5019 2.75L12.5014 3.499H15.4994L15.5 2.75C15.5 2.33579 15.8358 2 16.25 2ZM19.5594 17.5L15.4944 21.565L15.4953 18.25L15.5022 18.1482C15.5473 17.8154 15.8108 17.552 16.1435 17.5068L16.2453 17.5H19.5594ZM11.2484 16H7.25019L7.14842 16.0068C6.78234 16.0565 6.50019 16.3703 6.50019 16.75C6.50019 17.1297 6.78234 17.4435 7.14842 17.4932L7.25019 17.5H11.2484L11.3502 17.4932C11.7163 17.4435 11.9984 17.1297 11.9984 16.75C11.9984 16.3703 11.7163 16.0565 11.3502 16.0068L11.2484 16ZM16.2484 12H7.25019L7.14842 12.0068C6.78234 12.0565 6.50019 12.3703 6.50019 12.75C6.50019 13.1297 6.78234 13.4435 7.14842 13.4932L7.25019 13.5H16.2484L16.3502 13.4932C16.7163 13.4435 16.9984 13.1297 16.9984 12.75C16.9984 12.3703 16.7163 12.0565 16.3502 12.0068L16.2484 12ZM16.2484 8H7.25019L7.14842 8.00685C6.78234 8.05651 6.50019 8.3703 6.50019 8.75C6.50019 9.1297 6.78234 9.44349 7.14842 9.49315L7.25019 9.5H16.2484L16.3502 9.49315C16.7163 9.44349 16.9984 9.1297 16.9984 8.75C16.9984 8.3703 16.7163 8.05651 16.3502 8.00685L16.2484 8Z" fill="#212121"/>
</svg>
