<svg width="24" height="24" viewBox="0 0 24 24" fill="none" xmlns="http://www.w3.org/2000/svg">
<path d="M16.25 2C16.6642 2 17 2.33579 17 2.75V4H17.75C18.9926 4 20 5.00736 20 6.25V16H16.25C15.0074 16 14 17.0074 14 18.25V22H6.25C5.00736 22 4 20.9926 4 19.75V6.25C4 5.00736 5.00736 4 6.25 4H7V2.75C7 2.33579 7.33579 2 7.75 2C8.16421 2 8.5 2.33579 8.5 2.75V4H11.25V2.75C11.25 2.33579 11.5858 2 12 2C12.4142 2 12.75 2.33579 12.75 2.75V4H15.5V2.75C15.5 2.33579 15.8358 2 16.25 2ZM19.7607 17.5C19.7032 17.5894 19.6369 17.6737 19.5605 17.75L15.75 21.5605C15.6737 21.6369 15.5894 21.7032 15.5 21.7607V18.25C15.5 17.8358 15.8358 17.5 16.25 17.5H19.7607ZM8.25 16C7.83579 16 7.5 16.3358 7.5 16.75C7.5 17.1642 7.83579 17.5 8.25 17.5H11.25L11.3271 17.4961C11.7051 17.4575 12 17.1382 12 16.75C12 16.3618 11.7051 16.0425 11.3271 16.0039L11.25 16H8.25ZM8.25 12C7.83579 12 7.5 12.3358 7.5 12.75C7.5 13.1642 7.83579 13.5 8.25 13.5H15.75C16.1642 13.5 16.5 13.1642 16.5 12.75C16.5 12.3358 16.1642 12 15.75 12H8.25ZM8.25 8C7.83579 8 7.5 8.33579 7.5 8.75C7.5 9.16421 7.83579 9.5 8.25 9.5H15.75C16.1642 9.5 16.5 9.16421 16.5 8.75C16.5 8.33579 16.1642 8 15.75 8H8.25Z" fill="#212121"/>
</svg>
