<svg width="24" height="24" viewBox="0 0 24 24" fill="none" xmlns="http://www.w3.org/2000/svg">
<path d="M10.75 20C11.1642 20 11.5 20.3358 11.5 20.75C11.5 21.1642 11.1642 21.5 10.75 21.5C10.3358 21.5 10 21.1642 10 20.75C10 20.3358 10.3358 20 10.75 20ZM15.25 20C15.6642 20 16 20.3358 16 20.75C16 21.1642 15.6642 21.5 15.25 21.5C14.8358 21.5 14.5 21.1642 14.5 20.75C14.5 20.3358 14.8358 20 15.25 20ZM8.50001 19C8.91422 19 9.25001 19.3358 9.25001 19.75C9.25001 20.1642 8.91422 20.5 8.50001 20.5C8.0858 20.5 7.75001 20.1642 7.75001 19.75C7.75001 19.3358 8.0858 19 8.50001 19ZM13 19C13.4142 19 13.75 19.3358 13.75 19.75C13.75 20.1642 13.4142 20.5 13 20.5C12.5858 20.5 12.25 20.1642 12.25 19.75C12.25 19.3358 12.5858 19 13 19ZM17.5 19C17.9142 19 18.25 19.3358 18.25 19.75C18.25 20.1642 17.9142 20.5 17.5 20.5C17.0858 20.5 16.75 20.1642 16.75 19.75C16.75 19.3358 17.0858 19 17.5 19ZM13.0022 6.01013C16.1707 6.01013 17.9681 8.10742 18.2296 10.6403L18.3095 10.6402C20.3486 10.6402 22.0016 12.289 22.0016 14.3228C22.0016 16.3566 20.3486 18.0053 18.3095 18.0053H7.69479C5.65571 18.0053 4.00271 16.3566 4.00271 14.3228C4.00271 12.289 5.65571 10.6402 7.69482 10.6402L7.77476 10.6403C8.0377 8.09077 9.83363 6.01013 13.0022 6.01013ZM13.0022 7.50772C10.9308 7.50772 9.12545 9.14096 9.12545 11.3969C9.12545 11.7544 8.8065 12.0349 8.44129 12.0349L7.75073 12.0348C6.48974 12.0348 5.4675 13.0361 5.4675 14.2713C5.4675 15.5064 6.48974 16.5077 7.75073 16.5077H18.2536C19.5146 16.5077 20.5368 15.5064 20.5368 14.2713C20.5368 13.0361 19.5146 12.0348 18.2536 12.0348L17.563 12.0349C17.1978 12.0349 16.8789 11.7544 16.8789 11.3969C16.8789 9.11202 15.0735 7.50772 13.0022 7.50772ZM4.36778 10.1656C4.51309 10.5164 4.3725 10.9142 4.05329 11.1002L3.96189 11.1455L3.03562 11.5292C2.65294 11.6877 2.21421 11.5059 2.0557 11.1233C1.9104 10.7725 2.05099 10.3746 2.37019 10.1886L2.4616 10.1433L3.38786 9.75967C3.77055 9.60115 4.20927 9.78288 4.36778 10.1656ZM10.8548 5.33235L10.6832 5.38994C10.1491 5.57861 9.66039 5.83401 9.22291 6.14801C8.68948 5.97414 8.09319 5.98249 7.5337 6.21423C6.28791 6.73026 5.69632 8.15849 6.21234 9.40428C6.27295 9.5506 6.34614 9.6879 6.43014 9.81543C5.93793 9.95284 5.47697 10.1713 5.06361 10.4547C4.97479 10.3045 4.89559 10.1451 4.82652 9.9783C3.99348 7.96715 4.94852 5.66146 6.95968 4.82841C8.30198 4.27242 9.77547 4.51294 10.8548 5.33235ZM2.94104 5.36344L3.04654 5.39834L3.97281 5.78201C4.35549 5.94052 4.53722 6.37925 4.3787 6.76193C4.2346 7.10982 3.85892 7.29164 3.50429 7.20273L3.39878 7.16783L2.47252 6.78416C2.08983 6.62564 1.90811 6.18692 2.06662 5.80423C2.21072 5.45634 2.58641 5.27453 2.94104 5.36344ZM6.75626 2.37701L6.80153 2.46842L7.1852 3.39468C7.34372 3.77737 7.16199 4.21609 6.77931 4.3746C6.42851 4.51991 6.03063 4.37932 5.84466 4.06011L5.79939 3.96871L5.41571 3.04244C5.2572 2.65976 5.43893 2.22103 5.82161 2.06252C6.1724 1.91722 6.57029 2.05781 6.75626 2.37701ZM11.1096 2.05851C11.4575 2.20261 11.6393 2.57829 11.5504 2.93292L11.5155 3.03843L11.1318 3.9647C10.9733 4.34738 10.5346 4.52911 10.1519 4.37059C9.80401 4.22649 9.6222 3.85081 9.71111 3.49618L9.74601 3.39067L10.1297 2.4644C10.2882 2.08172 10.7269 1.89999 11.1096 2.05851Z" fill="#212121"/>
</svg>
