<svg width="16" height="16" viewBox="0 0 16 16" fill="none" xmlns="http://www.w3.org/2000/svg">
<path d="M12.8088 13.5159C12.3657 13.8212 11.8287 14 11.25 14H4.75C3.23122 14 2 12.7688 2 11.25V4.75C2 4.17125 2.17878 3.63426 2.48413 3.19124L1.14645 1.85355C0.951184 1.65829 0.951184 1.34171 1.14645 1.14645C1.34171 0.951184 1.65829 0.951184 1.85355 1.14645L14.8536 14.1464C15.0488 14.3417 15.0488 14.6583 14.8536 14.8536C14.6583 15.0488 14.3417 15.0488 14.1464 14.8536L12.8088 13.5159ZM11.7068 12.4139L3.5861 4.2932C3.53052 4.4347 3.5 4.58879 3.5 4.75V11.25C3.5 11.9404 4.05964 12.5 4.75 12.5H11.25C11.4112 12.5 11.5653 12.4695 11.7068 12.4139ZM8.53033 6.409L9.59099 7.46966L12.4998 4.56095V7.25C12.4998 7.66421 12.8355 8 13.2498 8C13.664 8 13.9998 7.66421 13.9998 7.25V2.75C13.9998 2.33579 13.664 2 13.2498 2H8.74976C8.33554 2 7.99976 2.33579 7.99976 2.75C7.99976 3.16421 8.33554 3.5 8.74976 3.5H11.4394L8.53033 6.409ZM13.9409 11.8196L12.5 10.3787V9.75C12.5 9.33579 12.8358 9 13.25 9C13.6642 9 14 9.33579 14 9.75V11.25C14 11.4453 13.9796 11.6358 13.9409 11.8196ZM4.1804 2.05906L5.62134 3.5H6.25C6.66421 3.5 7 3.16421 7 2.75C7 2.33579 6.66421 2 6.25 2H4.75C4.55471 2 4.36418 2.02036 4.1804 2.05906Z" fill="#212121"/>
</svg>
