<svg width="24" height="24" viewBox="0 0 24 24" fill="none" xmlns="http://www.w3.org/2000/svg">
<path d="M17.6022 6.51743C18.1641 5.9087 18.1262 4.95971 17.5174 4.3978C16.9087 3.8359 15.9597 3.87386 15.3978 4.48259L10 10.3302L10 5.5C10 4.67157 9.32843 4 8.5 4C7.67157 4 7 4.67157 7 5.5V18.5C7 19.3284 7.67157 20 8.5 20C9.32843 20 10 19.3284 10 18.5L10 13.6698L15.3978 19.5174C15.8171 19.9716 16.4519 20.1081 17 19.9146V21.5C17 22.3284 17.6716 23 18.5 23C19.3284 23 20 22.3284 20 21.5V18.5C20 17.6716 19.3284 17 18.5 17C18.1183 17 17.7699 17.1426 17.5051 17.3774L12.5414 12L17.6022 6.51743Z" fill="#212121"/>
</svg>
