<svg width="20" height="20" viewBox="0 0 20 20" fill="none" xmlns="http://www.w3.org/2000/svg">
<path d="M4 4C4 2.89543 4.89543 2 6 2H10.5858C10.9836 2 11.3651 2.15804 11.6464 2.43934L15.5607 6.35355C15.842 6.63486 16 7.01639 16 7.41421V16C16 17.1046 15.1046 18 14 18H9.24908C9.45991 17.6948 9.63023 17.3601 9.75503 17H14C14.5523 17 15 16.5523 15 16V8H11.5C10.6716 8 10 7.32843 10 6.5V3H6C5.44772 3 5 3.44772 5 4V8C4.64936 8 4.31278 8.06015 4 8.17071V4ZM11.5 7H14.7929L11 3.20711V6.5C11 6.77614 11.2239 7 11.5 7ZM7 11C7 10.2597 6.5978 9.61337 6 9.26756C5.70583 9.09739 5.36429 9 5 9C3.89543 9 3 9.89543 3 11C3 12.1046 3.89543 13 5 13C5.36429 13 5.70583 12.9026 6 12.7324C6.5978 12.3866 7 11.7403 7 11ZM1 15.5C1 15.672 1.0109 15.8388 1.03211 16C1.07973 16.3621 1.1793 16.6964 1.324 17C1.53288 17.4383 1.83578 17.8127 2.21215 18.1148C2.95342 18.7098 3.94692 19 5 19C6.05308 19 7.04658 18.7098 7.78785 18.1148C8.54103 17.5103 9 16.6161 9 15.5C9 14.6716 8.32843 14 7.5 14L2.49998 14C1.67156 14 1 14.6716 1 15.5Z" fill="#212121"/>
</svg>
