<svg width="28" height="28" viewBox="0 0 28 28" fill="none" xmlns="http://www.w3.org/2000/svg">
<path d="M2.21973 2.21973C2.51262 1.92684 2.98738 1.92684 3.28027 2.21973L25.7803 24.7197C26.0728 25.0126 26.0729 25.4875 25.7803 25.7803C25.4875 26.0731 25.0126 26.0728 24.7197 25.7803L21.9326 22.9932C19.8176 24.8612 17.0438 26 14 26C7.37258 26 2 20.6274 2 14C2 10.9562 3.13444 8.17809 5.00195 6.0625L2.21973 3.28027C1.92684 2.98738 1.92684 2.51262 2.21973 2.21973ZM6.06543 7.12598C4.4683 8.96816 3.5 11.3705 3.5 14C3.5 19.799 8.20101 24.5 14 24.5C16.6295 24.5 19.0292 23.529 20.8711 21.9316L13 14.0605V18.25C13 18.6642 12.6642 19 12.25 19C11.8358 19 11.5 18.6642 11.5 18.25V12.5605L6.06543 7.12598ZM25.9863 14.5801C25.8779 16.8589 25.1302 18.9688 23.9238 20.7412L22.8418 19.6592C23.7387 18.2608 24.3161 16.6373 24.4629 14.8906C24.6316 14.9624 24.8138 15 24.999 15C25.2819 15 25.5579 14.9122 25.7891 14.749C25.8606 14.699 25.9269 14.6426 25.9863 14.5801ZM18.5 9.98535C18.6162 10.2813 18.8134 10.5395 19.0693 10.7295C19.3429 10.9177 19.667 11.0185 19.999 11.0186V16.8164L18.5 15.3174V9.98535ZM8.75 11.5C9.16421 11.5 9.5 11.8358 9.5 12.25V15.75C9.5 16.1642 9.16421 16.5 8.75 16.5C8.33579 16.5 8 16.1642 8 15.75V12.25C8 11.8358 8.33579 11.5 8.75 11.5ZM24.9814 8C25.0565 8 25.1301 8.02308 25.1914 8.06641C25.2527 8.10973 25.2992 8.17146 25.3242 8.24219L25.6221 9.16016C25.7149 9.43908 25.8721 9.69254 26.0801 9.90039C26.2881 10.1082 26.5421 10.2647 26.8213 10.3574L27.7393 10.6562L27.7578 10.6602C27.8286 10.6851 27.8902 10.7317 27.9336 10.793C27.9768 10.8541 27.9999 10.9271 28 11.002C28 11.077 27.977 11.1507 27.9336 11.2119C27.8902 11.2731 27.8286 11.3188 27.7578 11.3438L26.8389 11.6426C26.5599 11.7353 26.3066 11.8919 26.0986 12.0996C25.8906 12.3074 25.7335 12.5609 25.6406 12.8398L25.3418 13.7578C25.3168 13.8285 25.2712 13.8903 25.21 13.9336C25.1487 13.9769 25.0751 14 25 14C24.9249 14 24.8513 13.9769 24.79 13.9336C24.7288 13.8903 24.6832 13.8285 24.6582 13.7578L24.3594 12.8398C24.2671 12.5601 24.1104 12.3054 23.9023 12.0967C23.6944 11.8882 23.4406 11.7309 23.1611 11.6377L22.2422 11.3398C22.1714 11.3149 22.1098 11.2683 22.0664 11.207C22.0232 11.1459 22.0001 11.0729 22 10.998C22 10.923 22.023 10.8493 22.0664 10.7881C22.1098 10.7269 22.1714 10.6812 22.2422 10.6562L23.1611 10.3574C23.4368 10.2622 23.687 10.1042 23.8916 9.89648C24.0961 9.68887 24.2499 9.43692 24.3408 9.16016L24.6396 8.24219C24.6646 8.17145 24.7112 8.10974 24.7725 8.06641C24.8336 8.02328 24.9066 8.00004 24.9814 8ZM19.9697 0C20.0947 7.08638e-05 20.2163 0.0392015 20.3184 0.111328C20.4205 0.183546 20.4984 0.285418 20.54 0.40332L21.0371 1.93262C21.1918 2.39764 21.453 2.82047 21.7998 3.16699C22.1466 3.51353 22.5697 3.77509 23.0352 3.92969L24.5654 4.42676L24.5967 4.43359C24.7146 4.47519 24.8164 4.55323 24.8887 4.65527C24.9609 4.75729 25 4.87897 25 5.00391C25 5.12886 24.9609 5.25052 24.8887 5.35254C24.8165 5.45451 24.7145 5.53162 24.5967 5.57324L23.0654 6.07031C22.6 6.22491 22.1769 6.48647 21.8301 6.83301C21.4834 7.1795 21.2221 7.60243 21.0674 8.06738L20.5703 9.59668C20.5658 9.6094 20.561 9.62243 20.5557 9.63477C20.5118 9.7365 20.4405 9.82433 20.3496 9.88867C20.2475 9.96089 20.1251 10 20 10C19.8749 10 19.7525 9.96089 19.6504 9.88867C19.5484 9.81647 19.4713 9.71444 19.4297 9.59668L18.9326 8.06738C18.8202 7.72631 18.6503 7.40756 18.4316 7.125C18.3513 7.0212 18.2641 6.92158 18.1709 6.82812C17.8241 6.48038 17.4006 6.21881 16.9346 6.06348L15.4033 5.56641C15.2853 5.52481 15.1836 5.44677 15.1113 5.34473C15.0391 5.24271 15 5.12104 15 4.99609C15 4.87114 15.0391 4.74948 15.1113 4.64746C15.1835 4.54549 15.2855 4.46838 15.4033 4.42676L16.9346 3.92969C17.3943 3.77106 17.8111 3.50744 18.1523 3.16113C18.4841 2.82437 18.7357 2.4175 18.8887 1.9707L18.9014 1.93262L19.3994 0.40332C19.441 0.285471 19.518 0.18354 19.6201 0.111328C19.7223 0.0391106 19.8446 0 19.9697 0ZM14 2C15.1983 2 16.3554 2.17601 17.4473 2.50293C17.2102 2.73077 16.9234 2.90043 16.6094 2.99902L15.0889 3.49902C15.0488 3.5124 15.0094 3.52749 14.9707 3.54395C14.6511 3.51465 14.3273 3.5 14 3.5C11.9152 3.5 9.97342 4.10942 8.33984 5.15723L7.25586 4.07324C9.1779 2.76489 11.4996 2 14 2Z" fill="#212121"/>
</svg>
