<svg width="16" height="16" viewBox="0 0 16 16" fill="none" xmlns="http://www.w3.org/2000/svg">
<path d="M11.5 2C12.8807 2 14 3.11929 14 4.5V6.59971C13.6832 6.43777 13.3486 6.30564 13 6.20703V6H3V11.5C3 12.3284 3.67157 13 4.5 13H6.20703C6.30564 13.3486 6.43777 13.6832 6.59971 14H4.5C3.11929 14 2 12.8807 2 11.5V4.5C2 3.11929 3.11929 2 4.5 2H11.5ZM11.5 3H4.5C3.67157 3 3 3.67157 3 4.5V5H13V4.5C13 3.67157 12.3284 3 11.5 3ZM11.5 16C13.9853 16 16 13.9853 16 11.5C16 9.01472 13.9853 7 11.5 7C9.01472 7 7 9.01472 7 11.5C7 13.9853 9.01472 16 11.5 16ZM10.6036 9.60355L9.70711 10.5H11.25C12.7688 10.5 14 11.7312 14 13.25V13.5C14 13.7761 13.7761 14 13.5 14C13.2239 14 13 13.7761 13 13.5V13.25C13 12.2835 12.2165 11.5 11.25 11.5H9.70711L10.6036 12.3964C10.7988 12.5917 10.7988 12.9083 10.6036 13.1036C10.4083 13.2988 10.0917 13.2988 9.89645 13.1036L8.14433 11.3514C8.09744 11.304 8.06198 11.2495 8.03794 11.1914C8.01349 11.1324 8 11.0678 8 11C8 10.9322 8.01349 10.8676 8.03794 10.8086C8.06234 10.7496 8.09851 10.6944 8.14645 10.6464L9.89645 8.89645C10.0917 8.70118 10.4083 8.70118 10.6036 8.89645C10.7988 9.09171 10.7988 9.40829 10.6036 9.60355Z" fill="#212121"/>
</svg>
