<svg width="24" height="24" viewBox="0 0 24 24" fill="none" xmlns="http://www.w3.org/2000/svg">
<path d="M18.5004 3.75C18.5004 3.33579 18.8362 3 19.2504 3C19.6646 3 20.0004 3.33579 20.0004 3.75V20.25C20.0004 20.6642 19.6646 21 19.2504 21C18.8362 21 18.5004 20.6642 18.5004 20.25V3.75ZM12.2613 3.30937C13.4226 2.51363 15.0004 3.34519 15.0004 4.753V19.248C15.0004 20.6613 13.4116 21.4917 12.2512 20.6847L1.75275 13.3831C0.747431 12.6839 0.752624 11.1949 1.7628 10.5028L12.2613 3.30937ZM13.5004 4.753C13.5004 4.55189 13.275 4.43309 13.1091 4.54677L2.61065 11.7402C2.46634 11.8391 2.46559 12.0518 2.60921 12.1517L13.1077 19.4532C13.2734 19.5685 13.5004 19.4499 13.5004 19.248V4.753Z" fill="#212121"/>
</svg>
