<svg width="16" height="16" viewBox="0 0 16 16" fill="none" xmlns="http://www.w3.org/2000/svg">
<path d="M2.78433 2.08856L2.85359 2.14641L13.8536 13.1445C14.0272 13.318 14.0465 13.5875 13.9115 13.7823L13.8536 13.8516C13.6801 14.0252 13.4107 14.0445 13.2158 13.9095L13.1465 13.8517L9.18351 9.88893L6.39298 12.6815C6.14687 12.9276 5.84079 13.1052 5.505 13.1968L2.63162 13.9805C2.25837 14.0822 1.91589 13.7398 2.01768 13.3665L2.80133 10.4931C2.89291 10.1573 3.07053 9.85126 3.31665 9.60515L6.10751 6.81293L2.14654 2.85358C1.97296 2.68003 1.95365 2.41061 2.08863 2.21573L2.14648 2.14647C2.32003 1.97289 2.58945 1.95358 2.78433 2.08856ZM9.10751 3.81493L12.1835 6.89093L10.5975 8.47393L7.52151 5.39793L9.10751 3.81493ZM13.2358 2.51L13.3671 2.63106L13.4881 2.76231C14.2145 3.61698 14.1741 4.90036 13.3671 5.70739L12.8905 6.18293L9.81451 3.10693L10.2907 2.63106C11.0978 1.82403 12.3812 1.78367 13.2358 2.51Z" fill="#212121"/>
</svg>
