<svg width="48" height="48" viewBox="0 0 48 48" fill="none" xmlns="http://www.w3.org/2000/svg">
<path d="M28.0006 29.7683L41.8661 43.6339C42.3543 44.122 43.1457 44.122 43.6339 43.6339C44.122 43.1457 44.122 42.3543 43.6339 41.8661L6.13388 4.36612C5.64573 3.87796 4.85427 3.87796 4.36612 4.36612C3.87796 4.85427 3.87796 5.64573 4.36612 6.13388L18.2328 20.0006L8.03755 30.1971C7.27584 30.9589 6.73303 31.9115 6.46599 32.9551L4.03904 42.4402C3.9296 42.8679 4.05389 43.3216 4.36603 43.6338C4.67816 43.946 5.13183 44.0704 5.55956 43.9611L15.0458 41.5365C16.0904 41.2695 17.0439 40.7263 17.8062 39.9639L28.0006 29.7683ZM26.2328 28.0006L16.0383 38.1963C15.5933 38.6414 15.0366 38.9585 14.4268 39.1144L6.9838 41.0167L8.88796 33.5749C9.04386 32.9656 9.36075 32.4094 9.80542 31.9647L20.0006 21.7683L26.2328 28.0006ZM36.2322 17.9999L29.7678 24.4651L31.5356 26.2329L41.9744 15.7928C44.6714 13.0954 44.6713 8.7225 41.9741 6.02532C39.2767 3.32791 34.9033 3.32804 32.2061 6.02562L21.7678 16.4651L23.5356 18.2329L30 11.7677L36.2322 17.9999ZM33.9739 7.79328C35.6949 6.07211 38.4853 6.07203 40.2064 7.79309C41.9273 9.514 41.9274 12.3041 40.2066 14.0251L37.9999 16.2321L31.7676 9.99984L33.9739 7.79328Z" fill="#212121"/>
</svg>
