<svg width="28" height="28" viewBox="0 0 28 28" fill="none" xmlns="http://www.w3.org/2000/svg">
<path d="M9.79049 4.10508C9.05359 2.63042 6.94926 2.63043 6.21236 4.10508L3.21342 10.1065C2.54892 11.4362 3.51593 13.0005 5.00249 13.0005H11.0004C12.4869 13.0005 13.4539 11.4362 12.7894 10.1065L9.79049 4.10508ZM15 5.75C15 4.23122 16.2312 3 17.75 3H22.25C23.7688 3 25 4.23122 25 5.75V10.25C25 11.7688 23.7688 13 22.25 13H17.75C16.2312 13 15 11.7688 15 10.25V5.75ZM3.00001 20C3.00001 17.2386 5.23858 15 8.00001 15C10.7614 15 13 17.2386 13 20C13 22.7614 10.7614 25 8.00001 25C5.23858 25 3.00001 22.7614 3.00001 20ZM19.1255 14.7344C19.667 14.4218 20.334 14.4218 20.8755 14.7344L24.1249 16.6105C24.6663 16.9231 24.9999 17.5008 24.9999 18.126V21.878C24.9999 22.5033 24.6663 23.081 24.1249 23.3936L20.8755 25.2696C20.334 25.5822 19.667 25.5822 19.1255 25.2696L15.8761 23.3936C15.3347 23.081 15.0011 22.5033 15.0011 21.878V18.126C15.0011 17.5008 15.3347 16.9231 15.8761 16.6105L19.1255 14.7344Z" fill="#212121"/>
</svg>
