<svg width="24" height="24" viewBox="0 0 24 24" fill="none" xmlns="http://www.w3.org/2000/svg">
<path d="M12.1873 4.1404C11.2229 3.41705 9.84236 4.0694 9.78883 5.2738L9.71211 6.99991H12C12.5523 6.99991 13 7.44762 13 7.99991C13 8.55219 12.5523 8.99991 12 8.99991H9.62322L9.22988 17.85C9.0996 20.7814 5.63681 22.2609 3.42857 20.3287L3.34151 20.2525C2.92587 19.8888 2.88375 19.257 3.24743 18.8414C3.61112 18.4258 4.24288 18.3836 4.65852 18.7473L4.74558 18.8235C5.69197 19.6516 7.17602 19.0175 7.23186 17.7612L7.62125 8.99991H6C5.44772 8.99991 5 8.55219 5 7.99991C5 7.44762 5.44772 6.99991 6 6.99991H7.71014L7.7908 5.185C7.9157 2.37474 11.1369 0.852583 13.3873 2.5404L13.6 2.6999C14.0418 3.03127 14.1314 3.65807 13.8 4.0999C13.4686 4.54173 12.8418 4.63127 12.4 4.2999L12.1873 4.1404Z" fill="#212121"/>
<path d="M13.082 13.0461C13.3348 12.907 13.6525 13.0102 13.7754 13.2713L14.5879 14.9978L11.2928 18.2928C10.9023 18.6834 10.9023 19.3165 11.2928 19.707C11.6834 20.0976 12.3165 20.0976 12.707 19.707L15.493 16.9211L16.2729 18.5785C16.9676 20.0548 18.8673 20.4807 20.1259 19.4424L20.6363 19.0213C21.0623 18.6698 21.1228 18.0396 20.7713 17.6136C20.4198 17.1875 19.7896 17.1271 19.3636 17.4786L18.8531 17.8997C18.6014 18.1073 18.2215 18.0221 18.0825 17.7269L16.996 15.4181L19.707 12.707C20.0976 12.3165 20.0976 11.6834 19.707 11.2928C19.3165 10.9023 18.6834 10.9023 18.2928 11.2928L16.0909 13.4947L15.585 12.4197C14.9708 11.1143 13.3822 10.5984 12.1182 11.2936L11.518 11.6237C11.0341 11.8899 10.8576 12.4979 11.1237 12.9819C11.3899 13.4658 11.998 13.6423 12.4819 13.3761L13.082 13.0461Z" fill="#212121"/>
</svg>
