<svg width="32" height="32" viewBox="0 0 32 32" fill="none" xmlns="http://www.w3.org/2000/svg">
<path d="M16.6588 4.83855C15.222 3.96379 13.3653 4.89305 13.2038 6.56767L12.9602 9.09476H16.9999C17.6903 9.09476 18.2499 9.65455 18.2499 10.3451C18.2499 11.0356 17.6903 11.5954 16.9999 11.5954H12.7191L11.2892 26.425C10.9442 30.0033 6.7516 31.7531 3.96625 29.4813L3.4601 29.0685C2.92507 28.6321 2.84501 27.8445 3.28128 27.3094C3.71755 26.7742 4.50494 26.6941 5.03997 27.1305L5.54613 27.5433C6.78406 28.553 8.64744 27.7753 8.80078 26.185L10.2075 11.5954H8.12889C7.43853 11.5954 6.87889 11.0356 6.87889 10.3451C6.87889 9.65455 7.43853 9.09476 8.12889 9.09476H10.4486L10.7154 6.32762C11.0539 2.81678 14.9465 0.868609 17.9586 2.70253L18.8999 3.27563C19.4896 3.63467 19.6767 4.40389 19.3177 4.99374C18.9588 5.58358 18.1897 5.77069 17.6 5.41165L16.6588 4.83855ZM27.6338 16.2304C28.1219 15.7422 28.1219 14.9505 27.6338 14.4622C27.1456 13.974 26.3542 13.974 25.866 14.4622L21.4756 18.8538L20.102 15.9572C19.2374 14.1338 16.9236 13.5537 15.3014 14.7536L14.5068 15.3413C13.9517 15.7518 13.8345 16.5347 14.245 17.09C14.6554 17.6452 15.4382 17.7624 15.9932 17.3519L16.7878 16.7642C17.1445 16.5004 17.6532 16.6279 17.8433 17.0288L19.5988 20.731L14.3661 25.9651C13.8779 26.4533 13.8779 27.245 14.3661 27.7333C14.8542 28.2215 15.6457 28.2215 16.1338 27.7333L20.7362 23.1297L22.2394 26.2998C23.162 28.2453 25.7017 28.7457 27.293 27.2955L27.5919 27.0232C28.1022 26.5581 28.1389 25.7673 27.674 25.2569C27.209 24.7465 26.4184 24.7097 25.9081 25.1747L25.6093 25.4471C25.2594 25.7659 24.7011 25.6559 24.4982 25.2282L22.613 21.2525L27.6338 16.2304Z" fill="#212121"/>
</svg>
