<svg width="32" height="32" viewBox="0 0 32 32" fill="none" xmlns="http://www.w3.org/2000/svg">
<path d="M7.5 3C5.01472 3 3 5.01472 3 7.5V13.5313C4.09942 12.2856 5.70796 11.5 7.5 11.5H14.5C17.8137 11.5 20.5 14.1863 20.5 17.5V24.5C20.5 26.292 19.7144 27.9006 18.4687 29H24.5C26.9853 29 29 26.9853 29 24.5V7.5C29 5.01472 26.9853 3 24.5 3H7.5ZM3 17.5C3 15.0147 5.01472 13 7.5 13H14.5C16.9853 13 19 15.0147 19 17.5V24.5C19 26.9853 16.9853 29 14.5 29H7.5C5.01472 29 3 26.9853 3 24.5V17.5Z" fill="#212121"/>
</svg>
