<svg width="24" height="24" viewBox="0 0 24 24" fill="none" xmlns="http://www.w3.org/2000/svg">
<path d="M3 6.25C3 4.45507 4.45507 3 6.25 3H17.75C19.5449 3 21 4.45507 21 6.25V17.75C21 19.5449 19.5449 21 17.75 21H12.7141C13.5116 20.1503 14 19.0072 14 17.75V14.75C14 12.1266 11.8734 10 9.25 10H6.25C4.99279 10 3.84965 10.4884 3 11.2859V6.25ZM3 14.75V17.75C3 19.5449 4.45507 21 6.25 21H9.25C11.0449 21 12.5 19.5449 12.5 17.75V14.75C12.5 12.9551 11.0449 11.5 9.25 11.5H6.25C4.45507 11.5 3 12.9551 3 14.75Z" fill="#212121"/>
</svg>
