<svg width="28" height="28" viewBox="0 0 28 28" fill="none" xmlns="http://www.w3.org/2000/svg">
<path d="M8.5 9.56076V14.5C8.5 16.9853 10.5147 19 13 19C13.0504 19 13.1006 18.9992 13.1505 18.9975C13.2618 18.4504 13.4326 17.9249 13.6559 17.4281C13.4448 17.4752 13.2253 17.5 13 17.5C11.3431 17.5 10 16.1569 10 14.5V11.0608L15.4039 16.4648C14.5249 17.5733 14 18.9754 14 20.5C14 24.0899 16.9101 27 20.5 27C22.0246 27 23.4266 26.4751 24.5351 25.5962L24.7194 25.7805C25.0123 26.0734 25.4872 26.0734 25.7801 25.7805C26.073 25.4876 26.073 25.0127 25.7801 24.7198L3.28033 2.21967C2.98744 1.92678 2.51257 1.92677 2.21967 2.21967C1.92678 2.51256 1.92677 2.98743 2.21967 3.28033L8.5 9.56076ZM21.2808 22.3418L20.9682 23.1756C20.8928 23.3765 20.6976 23.5069 20.4832 23.4997C20.2687 23.4925 20.0828 23.3492 20.0211 23.1437L19.1375 20.1985L21.2808 22.3418ZM18.8741 19.935L18.4545 21.1769C18.3859 21.3801 18.1953 21.5169 17.9808 21.5169H16.5C16.2239 21.5169 16 21.293 16 21.0169C16 20.7407 16.2239 20.5169 16.5 20.5169H17.622L18.0851 19.146L18.8741 19.935ZM8.62507 5.44203L10 6.81698V6.5C10 4.84315 11.3431 3.5 13 3.5C14.6569 3.5 16 4.84315 16 6.5V12.8171L17.0314 13.8485C17.1846 13.7685 17.3409 13.6936 17.5 13.6241V6.5C17.5 4.01472 15.4853 2 13 2C10.8791 2 9.10092 3.46723 8.62507 5.44203ZM17.7784 14.5955L21.7499 18.5671C21.8171 18.5282 21.8938 18.5047 21.9746 18.5006C22.1735 18.4905 22.3595 18.5995 22.448 18.7779L22.9271 19.7443L23.6996 20.5169H24.5C24.7761 20.5169 25 20.7407 25 21.0169C25 21.2333 24.8625 21.4176 24.67 21.4872L26.4045 23.2217C26.7867 22.3938 27 21.4718 27 20.5C27 16.9101 24.0899 14 20.5 14C19.5282 14 18.6063 14.2132 17.7784 14.5955ZM13 20.9999L13.0164 20.9999C13.0815 21.9889 13.3383 22.9256 13.75 23.7731V25.2499C13.75 25.6641 13.4142 25.9999 13 25.9999C12.5858 25.9999 12.25 25.6641 12.25 25.2499V22.4652C8.18341 22.0871 5 18.6653 5 14.4999V13.7509C5 13.3367 5.33579 13.0005 5.75 13.0005C6.16421 13.0005 6.5 13.3363 6.5 13.7505V14.4995C6.5 18.0893 9.41015 20.9999 13 20.9999Z" fill="#212121"/>
</svg>
