<svg width="48" height="48" viewBox="0 0 48 48" fill="none" xmlns="http://www.w3.org/2000/svg">
<path d="M19.5002 36C20.3287 36 21.0002 36.6716 21.0002 37.5C21.0002 38.3284 20.3287 39 19.5002 39C18.6718 39 18.0002 38.3284 18.0002 37.5C18.0002 36.6716 18.6718 36 19.5002 36ZM28.5002 36C29.3287 36 30.0002 36.6716 30.0002 37.5C30.0002 38.3284 29.3287 39 28.5002 39C27.6718 39 27.0002 38.3284 27.0002 37.5C27.0002 36.6716 27.6718 36 28.5002 36ZM15.0002 34C15.8287 34 16.5002 34.6716 16.5002 35.5C16.5002 36.3284 15.8287 37 15.0002 37C14.1718 37 13.5002 36.3284 13.5002 35.5C13.5002 34.6716 14.1718 34 15.0002 34ZM24.0002 34C24.8287 34 25.5002 34.6716 25.5002 35.5C25.5002 36.3284 24.8287 37 24.0002 37C23.1718 37 22.5002 36.3284 22.5002 35.5C22.5002 34.6716 23.1718 34 24.0002 34ZM33.0002 34C33.8287 34 34.5002 34.6716 34.5002 35.5C34.5002 36.3284 33.8287 37 33.0002 37C32.1718 37 31.5002 36.3284 31.5002 35.5C31.5002 34.6716 32.1718 34 33.0002 34ZM24.0013 8C30.3384 8 33.9333 12.1946 34.4561 17.2603L34.6161 17.2602C38.6942 17.2602 42.0002 20.5577 42.0002 24.6253C42.0002 28.6929 38.6942 31.9904 34.6161 31.9904H13.3866C9.30844 31.9904 6.00244 28.6929 6.00244 24.6253C6.00244 20.5577 9.30844 17.2602 13.3866 17.2602L13.5465 17.2603C14.0724 12.1613 17.6643 8 24.0013 8ZM24.0013 10.4952C19.7403 10.4952 16.0263 13.9431 16.0263 18.7058C16.0263 19.4604 15.3702 20.0525 14.6189 20.0525L13.1983 20.0525C10.6042 20.0525 8.5013 22.1663 8.5013 24.7738C8.5013 27.3814 10.6042 29.4952 13.1983 29.4952H34.8044C37.3985 29.4952 39.5014 27.3814 39.5014 24.7738C39.5014 22.1663 37.3985 20.0525 34.8044 20.0525L33.3838 20.0525C32.6325 20.0525 31.9764 19.4604 31.9764 18.7058C31.9764 13.882 28.2624 10.4952 24.0013 10.4952Z" fill="#212121"/>
</svg>
