<svg width="20" height="20" viewBox="0 0 20 20" fill="none" xmlns="http://www.w3.org/2000/svg">
<path d="M6.75 6.5C7.16421 6.5 7.5 6.16421 7.5 5.75C7.5 5.33579 7.16421 5 6.75 5C6.33579 5 6 5.33579 6 5.75C6 6.16421 6.33579 6.5 6.75 6.5ZM7.5 8.75C7.5 9.16421 7.16421 9.5 6.75 9.5C6.33579 9.5 6 9.16421 6 8.75C6 8.33579 6.33579 8 6.75 8C7.16421 8 7.5 8.33579 7.5 8.75ZM6.75 12.5C7.16421 12.5 7.5 12.1642 7.5 11.75C7.5 11.3358 7.16421 11 6.75 11C6.33579 11 6 11.3358 6 11.75C6 12.1642 6.33579 12.5 6.75 12.5ZM10.5 5.75C10.5 6.16421 10.1642 6.5 9.75 6.5C9.33579 6.5 9 6.16421 9 5.75C9 5.33579 9.33579 5 9.75 5C10.1642 5 10.5 5.33579 10.5 5.75ZM9.75 9.5C10.1642 9.5 10.5 9.16421 10.5 8.75C10.5 8.33579 10.1642 8 9.75 8C9.33579 8 9 8.33579 9 8.75C9 9.16421 9.33579 9.5 9.75 9.5ZM9.00574 17H5V3.5C5 3.22386 5.22386 3 5.5 3H11.5C11.7761 3 12 3.22386 12 3.5V8.5C12 8.77614 12.2239 9 12.5 9H14.5C14.7761 9 15 9.22386 15 9.5V11.1685C15.0915 11.2984 15.172 11.4366 15.2402 11.5817C15.4587 11.3838 15.7163 11.2283 16 11.128V9.5C16 8.67157 15.3284 8 14.5 8H13V3.5C13 2.67157 12.3284 2 11.5 2H5.5C4.67157 2 4 2.67157 4 3.5V17.5C4 17.7761 4.22386 18 4.5 18H9.24402C9.10436 17.6782 9.02657 17.3393 9.00574 17ZM14.5 12.75C14.5 13.7165 13.7165 14.5 12.75 14.5C11.7835 14.5 11 13.7165 11 12.75C11 11.7835 11.7835 11 12.75 11C13.7165 11 14.5 11.7835 14.5 12.75ZM16 16.8125C16 17.9021 15.1429 19 13 19C10.8571 19 10 17.9062 10 16.8125C10 16.0876 10.5756 15.5 11.2857 15.5H14.7143C15.4244 15.5 16 16.0876 16 16.8125ZM16.4766 18.4999L16.5004 18.5C18.2861 18.5 19.0004 17.5589 19.0004 16.625C19.0004 16.0037 18.5207 15.5 17.9289 15.5H16.5962C16.8519 15.8752 17.0004 16.3289 17.0004 16.8125C17.0004 17.3949 16.8339 17.986 16.4766 18.4999ZM18 13.25C18 13.9404 17.4404 14.5 16.75 14.5C16.0596 14.5 15.5 13.9404 15.5 13.25C15.5 12.5596 16.0596 12 16.75 12C17.4404 12 18 12.5596 18 13.25Z" fill="#212121"/>
</svg>
