<svg width="20" height="20" viewBox="0 0 20 20" fill="none" xmlns="http://www.w3.org/2000/svg">
<path d="M16 10.4003V11H12.5C12.2245 11 12.0011 11.2228 12 11.498L12 11.4991L11.9997 11.5114C11.9993 11.5238 11.9983 11.5443 11.9964 11.5718C11.9925 11.6269 11.9843 11.7088 11.9677 11.8084C11.9341 12.0101 11.8679 12.2713 11.7403 12.5264C11.6137 12.7796 11.4317 13.0176 11.168 13.1933C10.9074 13.3671 10.5375 13.5 10 13.5C9.46249 13.5 9.0926 13.3671 8.83204 13.1933C8.56834 13.0176 8.38631 12.7796 8.25971 12.5264C8.13214 12.2713 8.06586 12.0101 8.03226 11.8084C8.01565 11.7088 8.00755 11.6269 8.00361 11.5718C8.00165 11.5443 8.00075 11.5238 8.00033 11.5114L8.00001 11.4991C7.99968 11.2233 7.77594 11 7.5 11H4V7C4 5.89543 4.89543 5 6 5H8.02242C8.05337 4.65659 8.11588 4.32228 8.20703 4H6C4.34315 4 3 5.34315 3 7V15C3 16.6569 4.34315 18 6 18H14C15.6569 18 17 16.6569 17 15V9.74284C16.6929 9.99647 16.3578 10.2174 16 10.4003ZM13.5 10C15.9853 10 18 7.98528 18 5.5C18 3.01472 15.9853 1 13.5 1C11.0147 1 9 3.01472 9 5.5C9 7.98528 11.0147 10 13.5 10ZM11.1464 5.85355C10.9512 5.65829 10.9512 5.34171 11.1464 5.14645C11.3417 4.95118 11.6583 4.95118 11.8536 5.14645L13 6.29289V3.5C13 3.22386 13.2239 3 13.5 3C13.7761 3 14 3.22386 14 3.5V6.29289L15.1464 5.14645C15.3417 4.95118 15.6583 4.95118 15.8536 5.14645C16.0488 5.34171 16.0488 5.65829 15.8536 5.85355L13.8536 7.85355C13.8056 7.90149 13.7504 7.93766 13.6914 7.96206C13.6333 7.98615 13.5697 7.9996 13.503 7.99999L13.5 8L13.497 7.99999C13.4303 7.9996 13.3667 7.98615 13.3086 7.96206C13.2505 7.93802 13.196 7.90256 13.1486 7.85567L13.146 7.85316L11.1464 5.85355Z" fill="#212121"/>
</svg>
