<svg width="20" height="20" viewBox="0 0 20 20" fill="none" xmlns="http://www.w3.org/2000/svg">
<path d="M4.46973 4.21973C4.76263 3.92684 5.23739 3.92684 5.53028 4.21973L10.7803 9.46974C11.0731 9.76265 11.0731 10.2374 10.7803 10.5303L5.53028 15.7803C5.23742 16.0732 4.76263 16.0731 4.46973 15.7803C4.17684 15.4874 4.17684 15.0127 4.46973 14.7198L9.18947 10L4.46973 5.28028C4.17684 4.98739 4.17684 4.51263 4.46973 4.21973ZM9.96974 4.21973C10.2626 3.92684 10.7374 3.92684 11.0303 4.21973L16.2803 9.46974C16.5731 9.76265 16.5732 10.2374 16.2803 10.5303L11.0303 15.7803C10.7374 16.0732 10.2626 16.0731 9.96974 15.7803C9.67685 15.4874 9.67685 15.0127 9.96974 14.7198L14.6895 10L9.96974 5.28028C9.67685 4.98739 9.67685 4.51263 9.96974 4.21973Z" fill="#212121"/>
</svg>
