<svg width="28" height="28" viewBox="0 0 28 28" fill="none" xmlns="http://www.w3.org/2000/svg">
<path d="M24.25 4.5C24.6642 4.5 25 4.16421 25 3.75C25 3.33579 24.6642 3 24.25 3L3.75 3C3.33579 3 3 3.33579 3 3.75C3 4.16421 3.33579 4.5 3.75 4.5L24.25 4.5ZM3 17L3 12C3 11.4477 3.44772 11 4 11H9.5L9.5 17H3ZM3 21.25L3 18.5H9.5V25H6.75C4.67893 25 3 23.3211 3 21.25ZM17 25H11V18.5L17 18.5V25ZM21.25 25H18.5V18.5H25V21.25C25 23.3211 23.3211 25 21.25 25ZM24 11C24.5523 11 25 11.4477 25 12V17H18.5V11H24ZM11 17L17 17V11L11 11L11 17Z" fill="#212121"/>
</svg>
