<svg width="24" height="24" viewBox="0 0 24 24" fill="none" xmlns="http://www.w3.org/2000/svg">
<path d="M2 6.25V8H8.12868C8.32759 8 8.51836 7.92098 8.65901 7.78033L11.25 5.18934L9.71967 3.65901C9.29771 3.23705 8.72542 3 8.12868 3H5.25C3.45507 3 2 4.45507 2 6.25ZM2 17.75V9.5H8.12868C8.72542 9.5 9.29771 9.26295 9.71967 8.84099L13.0607 5.5H18.75C20.5449 5.5 22 6.95507 22 8.75V16.0251L20.9874 15.0126C20.304 14.3291 19.196 14.3291 18.5126 15.0126C17.975 15.5501 17.8603 16.3503 18.1683 17H16.8317C17.1397 16.3503 17.025 15.5501 16.4874 15.0126C15.804 14.3291 14.696 14.3291 14.0126 15.0126L11.5126 17.5126C10.8291 18.196 10.8291 19.304 11.5126 19.9874L12.5251 21H5.25C3.45507 21 2 19.5449 2 17.75ZM15.7803 16.7803C16.0732 16.4874 16.0732 16.0126 15.7803 15.7197C15.4874 15.4268 15.0126 15.4268 14.7197 15.7197L12.2197 18.2197C11.9268 18.5126 11.9268 18.9874 12.2197 19.2803L14.7197 21.7803C15.0126 22.0732 15.4874 22.0732 15.7803 21.7803C16.0732 21.4874 16.0732 21.0126 15.7803 20.7197L14.5607 19.5H20.4393L19.2197 20.7197C18.9268 21.0126 18.9268 21.4874 19.2197 21.7803C19.5126 22.0732 19.9874 22.0732 20.2803 21.7803L22.7803 19.2803C23.0732 18.9874 23.0732 18.5126 22.7803 18.2197L20.2803 15.7197C19.9874 15.4268 19.5126 15.4268 19.2197 15.7197C18.9268 16.0126 18.9268 16.4874 19.2197 16.7803L20.4393 18H14.5607L15.7803 16.7803Z" fill="#242424"/>
</svg>
