<svg width="32" height="32" viewBox="0 0 32 32" fill="none" xmlns="http://www.w3.org/2000/svg">
<path d="M3 8.5C3 8.22386 3.22386 8 3.5 8H28.5C28.7761 8 29 8.22386 29 8.5C29 8.77614 28.7761 9 28.5 9H3.5C3.22386 9 3 8.77614 3 8.5ZM7 15.5C7 15.2239 7.22386 15 7.5 15H24.5C24.7761 15 25 15.2239 25 15.5C25 15.7761 24.7761 16 24.5 16H7.5C7.22386 16 7 15.7761 7 15.5ZM11.5 22C11.2239 22 11 22.2239 11 22.5C11 22.7761 11.2239 23 11.5 23H20.5C20.7761 23 21 22.7761 21 22.5C21 22.2239 20.7761 22 20.5 22H11.5Z" fill="#212121"/>
</svg>
