<svg width="24" height="24" viewBox="0 0 24 24" fill="none" xmlns="http://www.w3.org/2000/svg">
<path d="M12.7071 2.29289C12.3166 1.90237 11.6834 1.90237 11.2929 2.29289L6.04289 7.54289C5.65237 7.93342 5.65237 8.56658 6.04289 8.95711C6.43342 9.34763 7.06658 9.34763 7.45711 8.95711L11 5.41421V15C11 15.5523 11.4477 16 12 16C12.5523 16 13 15.5523 13 15V5.41421L16.5429 8.95711C16.9334 9.34763 17.5666 9.34763 17.9571 8.95711C18.3476 8.56658 18.3476 7.93342 17.9571 7.54289L12.7071 2.29289ZM4 11C4.55228 11 5 11.4477 5 12V17.5C5 18.3284 5.67157 19 6.5 19H17.5C18.3284 19 19 18.3284 19 17.5V12C19 11.4477 19.4477 11 20 11C20.5523 11 21 11.4477 21 12V17.5C21 19.433 19.433 21 17.5 21H6.5C4.567 21 3 19.433 3 17.5V12C3 11.4477 3.44772 11 4 11Z" fill="url(#paint0_radial_73677_34175)"/>
<defs>
<radialGradient id="paint0_radial_73677_34175" cx="0" cy="0" r="1" gradientUnits="userSpaceOnUse" gradientTransform="translate(0.905941 -3.24613) rotate(51.6892) scale(32.4136 27.2837)">
<stop offset="0.282523" stop-color="#0FAFFF"/>
<stop offset="1" stop-color="#0078D4"/>
</radialGradient>
</defs>
</svg>
