<svg width="24" height="24" viewBox="0 0 24 24" fill="none" xmlns="http://www.w3.org/2000/svg">
<path d="M19.7542 11C20.1338 11 20.4476 11.2822 20.4973 11.6482L20.5042 11.75V18.7509C20.5042 20.4839 19.1477 21.9001 17.4386 21.9957L17.2542 22.0009H6.25415C4.52112 22.0009 3.1049 20.6444 3.0093 18.9353L3.00415 18.7509V11.75C3.00415 11.3358 3.33994 11 3.75415 11C4.13385 11 4.44764 11.2822 4.4973 11.6482L4.50415 11.75V18.7509C4.50415 19.669 5.21126 20.4221 6.11062 20.4951L6.25415 20.5009H17.2542C18.1723 20.5009 18.9253 19.7938 18.9983 18.8944L19.0042 18.7509V11.75C19.0042 11.3358 19.3399 11 19.7542 11ZM6.21955 7.2163L11.2158 2.21969C11.4819 1.95356 11.8983 1.9292 12.1919 2.14672L12.276 2.21923L17.2809 7.21585C17.574 7.5085 17.5744 7.98337 17.2818 8.27651C17.0157 8.54299 16.5991 8.56754 16.3053 8.34993L16.2211 8.27738L12.4981 4.561L12.499 16.2549C12.499 16.6346 12.2169 16.9484 11.8508 16.9981L11.749 17.0049C11.3693 17.0049 11.0555 16.7228 11.0059 16.3567L10.999 16.2549L10.9981 4.558L7.28025 8.27692C7.01399 8.5432 6.59733 8.56742 6.30371 8.34958L6.21959 8.27696C5.95331 8.01071 5.92909 7.59404 6.14693 7.30042L6.21955 7.2163L11.2158 2.21969L6.21955 7.2163Z" fill="#212121"/>
</svg>
