<svg width="32" height="32" viewBox="0 0 32 32" fill="none" xmlns="http://www.w3.org/2000/svg">
<path d="M16.7071 2.29289C16.3166 1.90237 15.6834 1.90237 15.2929 2.29289L7.29289 10.2929C6.90237 10.6834 6.90237 11.3166 7.29289 11.7071C7.68342 12.0976 8.31658 12.0976 8.70711 11.7071L15 5.41421V21C15 21.5523 15.4477 22 16 22C16.5523 22 17 21.5523 17 21V5.41421L23.2929 11.7071C23.6834 12.0976 24.3166 12.0976 24.7071 11.7071C25.0976 11.3166 25.0976 10.6834 24.7071 10.2929L16.7071 2.29289ZM5 16C5 15.4477 4.55228 15 4 15C3.44772 15 3 15.4477 3 16V24.5C3 26.9853 5.01472 29 7.5 29H24.5C26.9853 29 29 26.9853 29 24.5V16C29 15.4477 28.5523 15 28 15C27.4477 15 27 15.4477 27 16V24.5C27 25.8807 25.8807 27 24.5 27H7.5C6.11929 27 5 25.8807 5 24.5V16Z" fill="#212121"/>
</svg>
