<svg width="24" height="24" viewBox="0 0 24 24" fill="none" xmlns="http://www.w3.org/2000/svg">
<path d="M7.00031 15.75C7.00031 14.7835 7.78381 14 8.75031 14H15.2503C16.2168 14 17.0003 14.7835 17.0003 15.75V17.25C17.0003 18.2165 16.2168 19 15.2503 19H8.75031C7.78381 19 7.00031 18.2165 7.00031 17.25V15.75ZM8.75031 15.5C8.61224 15.5 8.50031 15.6119 8.50031 15.75V17.25C8.50031 17.3881 8.61224 17.5 8.75031 17.5H15.2503C15.3884 17.5 15.5003 17.3881 15.5003 17.25V15.75C15.5003 15.6119 15.3884 15.5 15.2503 15.5H8.75031Z" fill="#212121"/>
<path d="M17.5003 1C20.5379 1 23.0003 3.46243 23.0003 6.5C23.0003 9.53757 20.5379 12 17.5003 12C14.4627 12 12.0003 9.53757 12.0003 6.5C12.0003 3.46243 14.4627 1 17.5003 1ZM15.0241 4.02414C14.8288 4.2194 14.8288 4.53598 15.0241 4.73125L16.7933 6.501L15.0267 8.26749C14.8314 8.46275 14.8314 8.77934 15.0267 8.9746C15.222 9.16986 15.5385 9.16986 15.7338 8.9746L17.5003 7.208L19.2697 8.97684C19.465 9.1721 19.7815 9.1721 19.9768 8.97684C20.1721 8.78158 20.1721 8.465 19.9768 8.26973L18.2083 6.501L19.9796 4.73129C20.1748 4.53603 20.1748 4.21945 19.9796 4.02419C19.7843 3.82892 19.4677 3.82892 19.2725 4.02419L17.5013 5.794L15.7312 4.02414C15.536 3.82888 15.2194 3.82888 15.0241 4.02414Z" fill="#212121"/>
<path d="M18.495 12.9244C19.0182 12.844 19.5208 12.7013 19.995 12.5041V19.7439C19.995 20.9347 19.0698 21.9095 17.899 21.9887L17.745 21.9939H6.24512C5.05425 21.9939 4.07947 21.0687 4.00031 19.8979L3.99512 19.7439V4.24578C3.99512 3.05492 4.92028 2.08014 6.09107 2.00098L6.24512 1.99578H12.8139C12.3869 2.43994 12.0225 2.94466 11.7347 3.49578H6.24512C5.86542 3.49578 5.55163 3.77794 5.50196 4.14401L5.49512 4.24578V19.7439C5.49512 20.1235 5.77727 20.4373 6.14335 20.487L6.24512 20.4939H17.745C18.1247 20.4939 18.4385 20.2117 18.4881 19.8456L18.495 19.7439V12.9244Z" fill="#212121"/>
</svg>
