<svg width="24" height="24" viewBox="0 0 24 24" fill="none" xmlns="http://www.w3.org/2000/svg">
<path d="M12 8V2H6C4.89543 2 4 2.89543 4 4V14.0589C4.2443 14.0201 4.4948 14 4.75 14H8.25C8.78334 14 9.29614 14.0879 9.77472 14.25H15.75C16.1642 14.25 16.5 14.5858 16.5 15C16.5 15.4142 16.1642 15.75 15.75 15.75H11.9329C12.2376 16.1236 12.4866 16.5445 12.6672 17H15.75C16.1642 17 16.5 17.3358 16.5 17.75C16.5 18.1642 16.1642 18.5 15.75 18.5H12.9935C12.9978 18.5828 13 18.6661 13 18.75C13 20.0072 12.5116 21.1503 11.7141 22H18C19.1046 22 20 21.1046 20 20V10H14C12.8954 10 12 9.10457 12 8ZM8.25 11.5H15.75C16.1642 11.5 16.5 11.8358 16.5 12.25C16.5 12.6642 16.1642 13 15.75 13H8.25C7.83579 13 7.5 12.6642 7.5 12.25C7.5 11.8358 7.83579 11.5 8.25 11.5ZM13.5 8V2.5L19.5 8.5H14C13.7239 8.5 13.5 8.27614 13.5 8ZM12 18.75C12 16.6789 10.3211 15 8.25 15L8.14823 15.0068C7.78215 15.0565 7.49997 15.3703 7.49997 15.75C7.49997 16.1642 7.83579 16.5 8.25 16.5L8.40405 16.5052C9.57484 16.5844 10.5 17.5591 10.5 18.75C10.5 19.9926 9.49264 21 8.25 21L8.24656 21.0046L8.14482 21.0119C7.77898 21.0633 7.49826 21.3783 7.49997 21.758C7.50191 22.1722 7.83923 22.5065 8.25344 22.5046V22.5L8.45228 22.4948C10.4276 22.3913 12 20.7543 12 18.75ZM5.5 15.75C5.5 15.3358 5.16421 15 4.75 15L4.55084 15.0052C2.57236 15.1087 1 16.7457 1 18.75C1 20.8211 2.67893 22.5 4.75 22.5L4.85177 22.4932C5.21785 22.4435 5.5 22.1297 5.5 21.75C5.5 21.3358 5.16421 21 4.75 21L4.59595 20.9948C3.42516 20.9156 2.5 19.9409 2.5 18.75C2.5 17.5074 3.50736 16.5 4.75 16.5L4.85177 16.4932C5.21785 16.4435 5.5 16.1297 5.5 15.75ZM9 18.75C9 18.3358 8.66421 18 8.25 18H4.75L4.64823 18.0068C4.28215 18.0565 4 18.3703 4 18.75C4 19.1642 4.33579 19.5 4.75 19.5H8.25L8.35177 19.4932C8.71785 19.4435 9 19.1297 9 18.75Z" fill="#212121"/>
</svg>
