<svg width="16" height="16" viewBox="0 0 16 16" fill="none" xmlns="http://www.w3.org/2000/svg">
<path d="M13 9.5C13 8.67157 12.3284 8 11.5 8H4.5C3.67157 8 3 8.67157 3 9.5V10C3 11.9714 4.85951 14 8 14C9.73125 14 11.0732 13.3835 11.929 12.5H8V13C5.43216 13 4 11.4376 4 10V9.5C4 9.22386 4.22386 9 4.5 9H8V9.5H13Z" fill="#212121"/>
<path d="M12.6393 11.5H8V10.5H12.9605C12.9067 10.8405 12.7987 11.1775 12.6393 11.5Z" fill="#212121"/>
<path d="M10.75 4.25C10.75 4.07925 10.7344 3.91214 10.7047 3.75H9.67753C9.67753 3.75001 9.67753 3.74999 9.67753 3.75L8 3.75003V4.75003L10.7047 4.75C10.7344 4.58786 10.75 4.42075 10.75 4.25Z" fill="#212121"/>
<path d="M8 1.5C8.96539 1.5 9.81459 1.99745 10.3053 2.75H8V2.5C7.0335 2.5 6.25 3.2835 6.25 4.25C6.25 5.2165 7.0335 6 8 6V5.75H10.3053C9.81459 6.50255 8.96539 7 8 7C6.48122 7 5.25 5.76878 5.25 4.25C5.25 2.73122 6.48122 1.5 8 1.5Z" fill="#212121"/>
</svg>
