<svg width="16" height="16" viewBox="0 0 16 16" fill="none" xmlns="http://www.w3.org/2000/svg">
<path d="M12.4004 3C12.7315 3.00021 12.9998 3.26855 13 3.59961V8.5C13 8.77614 12.7761 9 12.5 9C12.2239 9 12 8.77614 12 8.5V4.70703L4.70703 12H8.5C8.77614 12 9 12.2239 9 12.5C9 12.7761 8.77614 13 8.5 13H3.59961C3.26855 12.9998 3.00021 12.7315 3 12.4004V7.5C3 7.22386 3.22386 7 3.5 7C3.77614 7 4 7.22386 4 7.5V11.293L11.293 4H7.5C7.22386 4 7 3.77614 7 3.5C7 3.22386 7.22386 3 7.5 3H12.4004Z" fill="#212121"/>
</svg>
