<svg width="24" height="24" viewBox="0 0 24 24" fill="none" xmlns="http://www.w3.org/2000/svg">
<path d="M12.8197 5.57961L11.999 6.40211L11.1757 5.57886C9.07663 3.4798 5.67337 3.4798 3.5743 5.57886C2.10291 7.05025 1.66293 9.16247 2.25434 11.0171C2.33461 11.0058 2.41662 11 2.5 11H5.74386L7.16926 7.99915C7.4564 7.39466 8.06314 7.00685 8.73233 7.00009C9.40151 6.99333 10.016 7.36881 10.3152 7.96738L12.2731 11.883L13.8313 9.72539C14.1435 9.29313 14.6357 9.02678 15.1684 9.00191C15.701 8.97703 16.2159 9.19634 16.567 9.59762L17.7941 11H21.5C21.5842 11 21.667 11.006 21.7481 11.0174C22.341 9.16215 21.9031 7.05241 20.4303 5.57961C18.3274 3.47672 14.9226 3.47672 12.8197 5.57961ZM11.4697 21.0756L4.89404 14.5H6.85C7.5256 14.5 8.14086 14.1111 8.43074 13.5008L8.79034 12.7438L10.4348 16.0326C10.7085 16.5801 11.2484 16.9448 11.8585 16.9943C12.4687 17.0438 13.0603 16.7708 13.4187 16.2746L15.3811 13.5574L15.683 13.9024C16.0153 14.2822 16.4954 14.5 17 14.5H19.1098L12.5303 21.0756C12.2374 21.3685 11.7626 21.3685 11.4697 21.0756ZM8.74188 8.00004C9.02887 7.99694 9.29247 8.15788 9.42082 8.41459L12.117 13.807L14.642 10.3109C14.7758 10.1256 14.9867 10.0115 15.215 10.0008C15.4433 9.99016 15.664 10.0841 15.8144 10.2561L17.3403 12H21.25C21.6642 12 22 12.3358 22 12.75C22 13.1642 21.6642 13.5 21.25 13.5H17C16.7837 13.5 16.578 13.4066 16.4356 13.2439L15.3062 11.9532L12.608 15.6891C12.4544 15.9018 12.2009 16.0188 11.9394 15.9975C11.6779 15.9763 11.4465 15.8201 11.3292 15.5854L8.76856 10.4642L7.53507 13.0708C7.41105 13.3329 7.14708 13.5 6.85714 13.5H2.75C2.33579 13.5 2 13.1642 2 12.75C2 12.3358 2.33579 12 2.75 12H6.38232L8.07207 8.4292C8.19484 8.16977 8.45489 8.00315 8.74188 8.00004Z" fill="#212121"/>
</svg>
