<svg width="16" height="16" viewBox="0 0 16 16" fill="none" xmlns="http://www.w3.org/2000/svg">
<path d="M9.15573 14.5444C10.8991 13.0097 14 9.87562 14 7C14 3.68629 11.3137 1 8 1C4.68629 1 2 3.68629 2 7C2 9.87562 5.10094 13.0097 6.84427 14.5444C7.51146 15.1317 8.48854 15.1317 9.15573 14.5444ZM8 4C8.27614 4 8.5 4.22386 8.5 4.5V6H10C10.2761 6 10.5 6.22386 10.5 6.5C10.5 6.77614 10.2761 7 10 7H8.5V8.5C8.5 8.77614 8.27614 9 8 9C7.72386 9 7.5 8.77614 7.5 8.5V7H6C5.72386 7 5.5 6.77614 5.5 6.5C5.5 6.22386 5.72386 6 6 6H7.5V4.5C7.5 4.22386 7.72386 4 8 4Z" fill="#212121"/>
</svg>
