<svg width="25" height="24" viewBox="0 0 25 24" fill="none" xmlns="http://www.w3.org/2000/svg">
<path d="M12.1679 2C13.6877 2 14.9198 3.23205 14.9198 4.75187V19.2504C14.9198 20.7702 13.6877 22.0023 12.1679 22.0023C10.6481 22.0023 9.41602 20.7702 9.41602 19.2504V4.75187C9.41602 3.23205 10.6481 2 12.1679 2ZM19.1679 7C20.6877 7 21.9198 8.23205 21.9198 9.75187V19.2504C21.9198 20.7702 20.6877 22.0023 19.1679 22.0023C17.6481 22.0023 16.416 20.7702 16.416 19.2504V9.75187C16.416 8.23205 17.6481 7 19.1679 7ZM5.16789 12C6.6877 12 7.91976 13.2321 7.91976 14.7519V19.2504C7.91976 20.7702 6.6877 22.0023 5.16789 22.0023C3.64807 22.0023 2.41602 20.7702 2.41602 19.2504V14.7519C2.41602 13.2321 3.64807 12 5.16789 12Z" fill="#212121"/>
</svg>
