<svg width="20" height="20" viewBox="0 0 20 20" fill="none" xmlns="http://www.w3.org/2000/svg">
<path d="M3 6C3 4.34315 4.34315 3 6 3H8.25C8.66421 3 9 3.33579 9 3.75C9 4.16421 8.66421 4.5 8.25 4.5H6C5.17157 4.5 4.5 5.17157 4.5 6V8.25C4.5 8.66421 4.16421 9 3.75 9C3.33579 9 3 8.66421 3 8.25V6ZM11 3.75C11 3.33579 11.3358 3 11.75 3H14C15.6569 3 17 4.34315 17 6V8.25C17 8.66421 16.6642 9 16.25 9C15.8358 9 15.5 8.66421 15.5 8.25V6C15.5 5.17157 14.8284 4.5 14 4.5H11.75C11.3358 4.5 11 4.16421 11 3.75ZM3.75 11C4.16421 11 4.5 11.3358 4.5 11.75V14C4.5 14.1344 4.51767 14.2646 4.55081 14.3885L8.23223 10.7071C9.20854 9.7308 10.7915 9.7308 11.7678 10.7071L15.4492 14.3885C15.4823 14.2646 15.5 14.1344 15.5 14V11.75C15.5 11.3358 15.8358 11 16.25 11C16.6642 11 17 11.3358 17 11.75V14C17 15.6569 15.6569 17 14 17H11.75C11.3358 17 11 16.6642 11 16.25C11 15.8358 11.3358 15.5 11.75 15.5H14C14.1344 15.5 14.2646 15.4823 14.3885 15.4492L10.7071 11.7678C10.3166 11.3772 9.68342 11.3772 9.29289 11.7678L5.61147 15.4492C5.73539 15.4823 5.86563 15.5 6 15.5H8.25C8.66421 15.5 9 15.8358 9 16.25C9 16.6642 8.66421 17 8.25 17H6C4.34315 17 3 15.6569 3 14V11.75C3 11.3358 3.33579 11 3.75 11ZM14 7.5C14 8.32843 13.3284 9 12.5 9C11.6716 9 11 8.32843 11 7.5C11 6.67157 11.6716 6 12.5 6C13.3284 6 14 6.67157 14 7.5Z" fill="#212121"/>
</svg>
