<svg width="12" height="12" viewBox="0 0 12 12" fill="none" xmlns="http://www.w3.org/2000/svg">
<path d="M5.08498 9.89453C5.37823 9.9634 5.68396 9.99998 5.99806 10C6.30986 9.99997 6.61328 9.96282 6.90432 9.89453C7.14243 9.83872 7.39738 9.93071 7.51956 10.1426C7.67531 10.4128 7.55379 10.7601 7.25198 10.8389C6.85143 10.9432 6.43125 11 5.99806 11C5.56188 11 5.13861 10.9434 4.73536 10.8379C4.4341 10.7589 4.31312 10.4114 4.46876 10.1416C4.59109 9.92971 4.84679 9.83857 5.08498 9.89453ZM10.3487 6.75195C10.6608 6.75208 10.9015 7.03113 10.8184 7.33203C10.5885 8.16448 10.1479 8.90911 9.55863 9.50684C9.33946 9.72907 8.97823 9.66006 8.8223 9.38965C8.70043 9.17809 8.74814 8.91255 8.91507 8.73438C9.32948 8.29264 9.64485 7.75664 9.82523 7.16211C9.89638 6.92758 10.1036 6.75195 10.3487 6.75195ZM1.64746 6.75195C1.89213 6.75195 2.09871 6.92708 2.16992 7.16113C2.34997 7.75472 2.66473 8.29008 3.07813 8.73145C3.24531 8.9099 3.29324 9.17694 3.1709 9.38867C3.01451 9.65866 2.6525 9.72734 2.4336 9.50488C1.84575 8.90741 1.407 8.16252 1.17773 7.33105C1.09509 7.0305 1.33569 6.75201 1.64746 6.75195ZM2.43262 2.49316C2.65145 2.27064 3.01354 2.33938 3.16993 2.60938C3.29226 2.82111 3.24426 3.08807 3.07715 3.2666C2.66295 3.70921 2.34864 4.24635 2.16895 4.8418C2.09816 5.07625 1.89135 5.25175 1.64648 5.25195C1.33473 5.25195 1.09427 4.97349 1.17675 4.67285C1.40553 3.83919 1.84374 3.09204 2.43262 2.49316ZM8.82034 2.60547C8.97646 2.33577 9.33771 2.26749 9.55667 2.48926C10.1485 3.08874 10.5906 3.83702 10.8204 4.67285C10.9027 4.97356 10.6615 5.25195 10.3496 5.25195C10.1046 5.2518 9.89723 5.07636 9.82621 4.8418C9.64574 4.24446 9.32956 3.70599 8.91312 3.2627C8.74551 3.08429 8.69778 2.81736 8.82034 2.60547ZM5.99806 1C6.43141 1.00003 6.8521 1.05535 7.25295 1.15918C7.55491 1.23747 7.67632 1.5852 7.52053 1.85547C7.39836 2.06733 7.14352 2.15881 6.9053 2.10352C6.61398 2.03579 6.31001 2.00003 5.99806 2C5.68502 2.00002 5.38028 2.03634 5.0879 2.10449C4.84952 2.16003 4.59399 2.06847 4.47169 1.85645C4.3159 1.58629 4.43748 1.23861 4.73927 1.16016C5.1414 1.05577 5.56336 1.00002 5.99806 1Z" fill="#212121"/>
</svg>
