<svg width="20" height="20" viewBox="0 0 20 20" fill="none" xmlns="http://www.w3.org/2000/svg">
<path d="M6 2C4.89543 2 4 2.89543 4 4V9H5V4C5 3.44772 5.44772 3 6 3H10V6.5C10 7.32843 10.6716 8 11.5 8H15V16C15 16.5523 14.5523 17 14 17H11V18H14C15.1046 18 16 17.1046 16 16V7.41421C16 7.01639 15.842 6.63486 15.5607 6.35355L11.6464 2.43934C11.3651 2.15804 10.9836 2 10.5858 2H6ZM14.7929 7H11.5C11.2239 7 11 6.77614 11 6.5V3.20711L14.7929 7ZM4 10H7V12H4V10ZM2 10H3V12.5C3 12.7761 3.22386 13 3.5 13H7.5C7.77614 13 8 12.7761 8 12.5V10.0898C8.10799 10.139 8.20739 10.2074 8.29289 10.2929L9.70711 11.7071C9.89464 11.8946 10 12.149 10 12.4142V18C10 18.5523 9.55228 19 9 19V14.5C9 14.2239 8.77614 14 8.5 14H2.5C2.22386 14 2 14.2239 2 14.5V19C1.44772 19 1 18.5523 1 18V11C1 10.4477 1.44772 10 2 10ZM8 15V19H3V15H8Z" fill="#212121"/>
</svg>
