<?xml version="1.0" encoding="UTF-8"?>
<svg width="24px" height="24px" viewBox="0 0 24 24" version="1.1" xmlns="http://www.w3.org/2000/svg" xmlns:xlink="http://www.w3.org/1999/xlink">
    <!-- Generator: Sketch 58 (84663) - https://sketch.com -->
    <title>ic_mail_all_24_outlined</title>
    <desc>Created with Sketch.</desc>
    <g id="ðŸ”-Product-Icons" stroke="none" stroke-width="1" fill="none" fill-rule="evenodd">
        <g id="ic_mail_all_24_outlined" fill="#212121">
            <path d="M21.0005408,7.51125528 C21.9023172,8.08884765 22.5,9.09962567 22.5,10.25 L22.5,16.25 C22.5,19.1494949 20.1494949,21.5 17.25,21.5 L8.25,21.5 C7.09962567,21.5 6.08884765,20.9023172 5.51125528,20.0005408 L8.25,20 L17.25,20 C19.3210678,20 21,18.3210678 21,16.25 L21,10.25 L21.0005408,7.51125528 Z M5.25,4 L16.75,4 C18.4830315,4 19.8992459,5.35645477 19.9948552,7.06557609 L20,7.25 L20,15.75 C20,17.4830315 18.6435452,18.8992459 16.9344239,18.9948552 L16.75,19 L5.25,19 C3.51696854,19 2.10075407,17.6435452 2.00514479,15.9344239 L2,15.75 L2,7.25 C2,5.51696854 3.35645477,4.10075407 5.06557609,4.00514479 L5.25,4 L16.75,4 Z M18.5,8.899 L11.3493098,12.6636887 C11.1618909,12.7623302 10.9431348,12.7764218 10.7467624,12.7059636 L10.6506902,12.6636887 L3.5,8.9 L3.5,15.75 C3.5,16.6681734 4.20711027,17.4211923 5.10647279,17.4941988 L5.25,17.5 L16.75,17.5 C17.6681734,17.5 18.4211923,16.7928897 18.4941988,15.8935272 L18.5,15.75 L18.5,8.899 Z M16.75,5.5 L5.25,5.5 C4.28350169,5.5 3.5,6.28350169 3.5,7.25 L3.502,7.206 L11,11.1524641 L18.4994284,7.20483171 C18.4754709,6.25920854 17.7013968,5.5 16.75,5.5 Z" id="ðŸŽ¨-Color"></path>
        </g>
    </g>
</svg>