<svg width="16" height="16" viewBox="0 0 16 16" fill="none" xmlns="http://www.w3.org/2000/svg">
<path d="M4.28494 1.7254C5.84573 0.971964 9.17888 0.264903 12.9308 2.70952C13.1659 2.86268 13.4806 2.79628 13.6338 2.56121C13.7869 2.32614 13.7205 2.01142 13.4855 1.85826C9.38401 -0.814084 5.66492 -0.068941 3.84326 0.810423C3.59059 0.93239 3.48464 1.23609 3.60661 1.48875C3.72858 1.74142 4.03228 1.84737 4.28494 1.7254ZM2.44765 2.3769C2.60177 2.61134 2.53666 2.92633 2.30222 3.08045C1.77049 3.42999 1.17543 4.1825 0.946187 4.57305C0.804162 4.81501 0.492882 4.89602 0.250924 4.75399C0.00896578 4.61197 -0.0720458 4.30069 0.0699795 4.05873C0.343788 3.59226 1.03522 2.69747 1.7441 2.23146C1.97854 2.07734 2.29353 2.14246 2.44765 2.3769ZM8.12811 2.3253C7.84755 2.3253 7.62011 2.55274 7.62011 2.83331C7.62011 3.11387 7.84755 3.34131 8.12811 3.34131C9.81068 3.34131 13.7299 4.73921 14.7413 9.99982C14.7942 10.2753 15.0605 10.4557 15.336 10.4028C15.6116 10.3498 15.792 10.0835 15.739 9.80801C14.6234 4.00492 10.2295 2.3253 8.12811 2.3253ZM6.95412 8.68696C6.07048 9.40457 5.40348 11.4152 7.5211 15.2461C7.65683 15.4917 7.56781 15.8008 7.32227 15.9365C7.07672 16.0722 6.76764 15.9832 6.63191 15.7377C4.44944 11.7895 4.82516 9.10706 6.31363 7.89827C7.76041 6.72333 10.0427 7.23327 10.6647 9.24315C10.7476 9.51071 10.8134 9.83083 10.8792 10.1508L10.9123 10.311C10.9925 10.6962 11.0822 11.0992 11.2146 11.5046C11.4776 12.3099 11.9016 13.1016 12.7196 13.7053C12.9453 13.872 12.9932 14.19 12.8266 14.4158C12.66 14.6415 12.342 14.6894 12.1162 14.5228C11.0726 13.7525 10.5522 12.7489 10.2488 11.82C10.098 11.3582 9.99908 10.9093 9.91764 10.5181L9.88241 10.3478C9.81538 10.023 9.76108 9.75978 9.69416 9.54355C9.2987 8.26583 7.87945 7.9355 6.95412 8.68696ZM13.2074 9.8763C13.1921 9.59616 12.9527 9.38141 12.6725 9.39666C12.3924 9.41191 12.1776 9.65137 12.1929 9.93152C12.2929 11.7686 13.4285 12.7213 14.0684 12.9275C14.3354 13.0135 14.6216 12.8667 14.7077 12.5997C14.7937 12.3326 14.647 12.0464 14.3799 11.9604C14.1486 11.8859 13.285 11.3016 13.2074 9.8763ZM8.63612 10.4119C8.63612 10.1314 8.40868 9.90391 8.12811 9.90391C7.84755 9.90391 7.62011 10.1314 7.62011 10.4119C7.62011 11.4737 7.75068 12.2927 8.06392 13.092C8.37244 13.8792 8.84839 14.6204 9.4911 15.5309C9.65289 15.7601 9.96987 15.8147 10.1991 15.653C10.4283 15.4912 10.4829 15.1742 10.3211 14.945C9.68327 14.0413 9.27021 13.3855 9.00987 12.7212C8.75425 12.069 8.63612 11.3821 8.63612 10.4119ZM5.55625 6.64239C3.81302 7.99219 2.81126 10.8509 4.51817 14.2479C4.64413 14.4986 4.54303 14.8039 4.29233 14.9299C4.04164 15.0558 3.73629 14.9547 3.61033 14.704C1.7103 10.9227 2.76434 7.51921 4.93422 5.83905C6.01191 5.00458 7.36213 4.60349 8.72001 4.82365C10.0841 5.04482 11.3991 5.88332 12.4212 7.42106C12.5765 7.65472 12.513 7.97003 12.2793 8.12534C12.0457 8.28064 11.7304 8.21712 11.5751 7.98346C10.686 6.64583 9.60282 5.99606 8.5574 5.82656C7.50577 5.65605 6.43511 5.96187 5.55625 6.64239ZM6.05091 3.59865C6.31462 3.50287 6.45075 3.21145 6.35497 2.94774C6.25919 2.68404 5.96777 2.5479 5.70407 2.64368C0.948202 4.37102 -0.179743 8.92871 0.260056 12.0078C0.299727 12.2856 0.557041 12.4786 0.834784 12.4389C1.11253 12.3992 1.30552 12.1419 1.26585 11.8642C0.868417 9.08164 1.89791 5.10703 6.05091 3.59865Z" fill="#212121"/>
</svg>
