<svg width="28" height="28" viewBox="0 0 28 28" fill="none" xmlns="http://www.w3.org/2000/svg">
<path d="M19.7716 10.289C20.0692 10.0009 20.077 9.52609 19.789 9.22843C19.5009 8.93078 19.0261 8.923 18.7284 9.21105L11.484 16.2218L9.25451 14.195C8.94802 13.9164 8.47368 13.939 8.19505 14.2455C7.91642 14.552 7.93901 15.0263 8.2455 15.305L10.9955 17.805C11.2882 18.0711 11.7373 18.0641 12.0216 17.789L19.7716 10.289ZM14.4415 2.14374C14.1752 1.9498 13.8136 1.95234 13.55 2.15C12.2082 3.15635 10.5728 3.87813 8.99909 4.38861C7.59178 4.8451 6.25932 5.1245 5.27713 5.28956C4.7869 5.37195 4.38613 5.4255 4.10966 5.45829C3.97148 5.47469 3.8645 5.48588 3.7931 5.49289C3.7574 5.4964 3.73061 5.49886 3.71328 5.5004L3.69443 5.50203L3.68998 5.50241C3.3003 5.53369 2.99999 5.85961 3 6.25058V12.75C3 17.8425 6.4765 23.6195 13.7705 25.964C13.9197 26.012 14.0803 26.012 14.2295 25.964C21.537 23.6152 24.75 17.8286 24.75 13V6.25C24.75 5.8605 24.4516 5.53582 24.0635 5.5027L24.0619 5.50255L24.0519 5.50164L24.0074 5.49735C23.967 5.49333 23.9058 5.48692 23.8254 5.47762C23.6647 5.45903 23.4279 5.42895 23.1297 5.38355C22.5327 5.29266 21.6929 5.14079 20.7279 4.89772C18.7862 4.40864 16.3908 3.56337 14.4415 2.14374ZM4.5 12.75L4.50002 6.92144C4.77457 6.88619 5.12211 6.83665 5.52573 6.76882C6.55791 6.59535 7.9657 6.30075 9.46192 5.81542C10.9654 5.32774 12.5843 4.63915 14.0052 3.6683C16.0787 5.05743 18.4705 5.87598 20.3615 6.35228C21.3816 6.60921 22.2694 6.76984 22.9039 6.86645C23.0293 6.88556 23.145 6.90218 23.25 6.91656V13C23.25 17.1234 20.5267 22.265 13.9999 24.4605C7.45447 22.2606 4.50001 17.1069 4.5 12.75Z" fill="#212121"/>
</svg>
