<?xml version="1.0" encoding="UTF-8"?>
<svg width="24px" height="24px" viewBox="0 0 24 24" version="1.1" xmlns="http://www.w3.org/2000/svg" xmlns:xlink="http://www.w3.org/1999/xlink">
    <!-- Generator: Sketch 59.1 (86144) - https://sketch.com -->
    <title>ic_mail_read_24_regular</title>
    <desc>Created with Sketch.</desc>
    <g id="ðŸ”-Product-Icons" stroke="none" stroke-width="1" fill="none" fill-rule="evenodd">
        <g id="ic_mail_read_24_regular" fill="#212121" fill-rule="nonzero">
            <path d="M3.10008037,8.16928019 L11.6166935,3.10534808 C11.8191807,2.98495027 12.0642124,2.96775059 12.2788552,3.05374902 L12.3833065,3.10534808 L20.8999196,8.16928019 C21.5332742,8.54586937 21.9389375,9.20639831 21.993658,9.9341889 L22,10.1032359 L22,17.75 C22,19.4830315 20.6435452,20.8992459 18.9344239,20.9948552 L18.75,21 L5.25,21 C3.51696854,21 2.10075407,19.6435452 2.00514479,17.9344239 L2,17.75 L2,10.1032359 C2,9.36637953 2.36042376,8.68011721 2.95801958,8.26112711 L3.10008037,8.16928019 L11.6166935,3.10534808 L3.10008037,8.16928019 Z M20.5,10.91 L12.3469245,15.1649386 C12.1657753,15.2594513 11.9556595,15.2752034 11.7648548,15.2121949 L11.6530755,15.1649386 L3.5,10.91 L3.5,17.75 C3.5,18.6681734 4.20711027,19.4211923 5.10647279,19.4941988 L5.25,19.5 L18.75,19.5 C19.6681734,19.5 20.4211923,18.7928897 20.4941988,17.8935272 L20.5,17.75 L20.5,10.91 Z M12,4.62256392 L3.908,9.433 L12,13.6540573 L20.09,9.432 L12,4.62256392 Z" id="ðŸŽ¨-Color"></path>
        </g>
    </g>
</svg>