<?xml version="1.0" encoding="UTF-8"?>
<svg width="24px" height="24px" viewBox="0 0 24 24" version="1.1" xmlns="http://www.w3.org/2000/svg" xmlns:xlink="http://www.w3.org/1999/xlink">
    <!-- Generator: Sketch 59.1 (86144) - https://sketch.com -->
    <title>ic_mail_read_24_filled</title>
    <desc>Created with Sketch.</desc>
    <g id="ðŸ”-Product-Icons" stroke="none" stroke-width="1" fill="none" fill-rule="evenodd">
        <g id="ic_mail_read_24_filled" fill="#212121" fill-rule="nonzero">
            <path d="M1.99984616,10.127 L11.6530755,15.1649386 C11.8704545,15.2783538 12.1295455,15.2783538 12.3469245,15.1649386 L22,10.128 L22,17.75 C22,19.4830315 20.6435452,20.8992459 18.9344239,20.9948552 L18.75,21 L5.25,21 C3.51696854,21 2.10075407,19.6435452 2.00514479,17.9344239 L1.99984616,17.75 L1.99984616,10.127 Z M3.10008037,8.16928019 L11.6166935,3.10534808 C11.8191807,2.98495027 12.0642124,2.96775059 12.2788552,3.05374902 L12.3833065,3.10534808 L20.8999196,8.16928019 C21.1350109,8.30906421 21.3387314,8.48796883 21.5047779,8.69491293 L12,13.6540573 L2.49522206,8.69491293 C2.61975693,8.53970486 2.76548344,8.40026899 2.9297424,8.28128018 L3.10008037,8.16928019 L11.6166935,3.10534808 L3.10008037,8.16928019 Z" id="ðŸŽ¨-Color"></path>
        </g>
    </g>
</svg>