<svg width="16" height="16" viewBox="0 0 16 16" fill="none" xmlns="http://www.w3.org/2000/svg">
<path d="M11.5 7C13.9853 7 16 9.01472 16 11.5C16 13.9853 13.9853 16 11.5 16C9.01472 16 7 13.9853 7 11.5C7 9.01472 9.01472 7 11.5 7ZM1.25 10.5C1.66421 10.5 2 10.8358 2 11.25C2 11.9404 2.55964 12.5 3.25 12.5H3.75C4.16421 12.5 4.5 12.8358 4.5 13.25C4.5 13.6642 4.16421 14 3.75 14H3.25C1.73122 14 0.5 12.7688 0.5 11.25C0.5 10.8358 0.835786 10.5 1.25 10.5ZM11.5 9C11.2239 9 11 9.22386 11 9.5V11H9.5C9.22386 11 9 11.2239 9 11.5C9 11.7761 9.22386 12 9.5 12H11V13.5C11 13.7761 11.2239 14 11.5 14C11.7761 14 12 13.7761 12 13.5V12H13.5C13.7761 12 14 11.7761 14 11.5C14 11.2239 13.7761 11 13.5 11H12V9.5C12 9.22386 11.7761 9 11.5 9ZM3.75 4.5C4.16421 4.5 4.5 4.83579 4.5 5.25V10.75C4.5 11.1642 4.16421 11.5 3.75 11.5C3.33579 11.5 3 11.1642 3 10.75V5.25C3 4.83579 3.33579 4.5 3.75 4.5ZM6.5 4.5C6.91421 4.5 7.25 4.83579 7.25 5.25V8.00879C6.50673 8.91255 6.0467 10.0575 6.00391 11.3086C5.84933 11.1712 5.75 10.9731 5.75 10.75V5.25C5.75 4.83579 6.08579 4.5 6.5 4.5ZM9.5 4.5C9.91421 4.5 10.25 4.83579 10.25 5.25V6.14355C9.71578 6.26773 9.21188 6.47004 8.75 6.7373V5.25C8.75 4.83579 9.08579 4.5 9.5 4.5ZM12.25 4.5C12.6642 4.5 13 4.83579 13 5.25V6.20801C12.6102 6.09773 12.203 6.02813 11.7832 6.00684L11.5 6V5.25C11.5 4.83579 11.8358 4.5 12.25 4.5ZM3.75 2C4.16421 2 4.5 2.33579 4.5 2.75C4.5 3.16421 4.16421 3.5 3.75 3.5H3.25C2.55964 3.5 2 4.05964 2 4.75C2 5.16421 1.66421 5.5 1.25 5.5C0.835786 5.5 0.5 5.16421 0.5 4.75C0.5 3.23122 1.73122 2 3.25 2H3.75ZM12.75 2C14.2688 2 15.5 3.23122 15.5 4.75C15.5 5.16421 15.1642 5.5 14.75 5.5C14.3358 5.5 14 5.16421 14 4.75C14 4.05964 13.4404 3.5 12.75 3.5H12.25C11.8358 3.5 11.5 3.16421 11.5 2.75C11.5 2.33579 11.8358 2 12.25 2H12.75Z" fill="#212121"/>
</svg>
