<svg width="20" height="20" viewBox="0 0 20 20" fill="none" xmlns="http://www.w3.org/2000/svg">
<path d="M3 7C3 5.89543 3.89543 5 5 5H15C16.1046 5 17 5.89543 17 7V8.40135C16.6963 8.22567 16.359 8.1017 16 8.04148V7C16 6.44772 15.5523 6 15 6H5C4.44772 6 4 6.44772 4 7V12C4 12.5523 4.44772 13 5 13H13.2639L13.273 13.0102C12.5486 13.0754 11.9133 13.4496 11.4998 14H5C3.89543 14 3 13.1046 3 12V7ZM11 15.5C11 15.3288 11.0172 15.1616 11.05 15H2.5C2.22386 15 2 15.2239 2 15.5C2 15.7761 2.22386 16 2.5 16H11.0381C11.0126 15.8341 11 15.6669 11 15.5ZM17.5 11C17.5 12.1046 16.6046 13 15.5 13C14.3954 13 13.5 12.1046 13.5 11C13.5 9.89543 14.3954 9 15.5 9C16.6046 9 17.5 9.89543 17.5 11ZM19 15.5C19 16.7452 18 18 15.5 18C13 18 12 16.7499 12 15.5C12 14.6716 12.6716 14 13.5 14H17.5C18.3284 14 19 14.6716 19 15.5Z" fill="#212121"/>
</svg>
