<svg width="20" height="20" viewBox="0 0 20 20" fill="none" xmlns="http://www.w3.org/2000/svg">
<path d="M3.75 3.75H16.25V5.25H3.75V3.75Z" fill="#E62C46"/>
<path d="M3.75 5H16.25V6.5H3.75V5Z" fill="#F36D38"/>
<path d="M3.75 6H16.25V7.75H3.75V6Z" fill="#FFD23E"/>
<path d="M3.75 7.5H16.25V9.25H3.75V7.5Z" fill="#61BC51"/>
<path d="M3.75 9H16.25V10.25H3.75V9Z" fill="#1793E8"/>
<path d="M3.75 10H16.25V11.25H3.75V10Z" fill="#B73FBB"/>
<path d="M13.5 7.5L9.5 3.5H7V11.5H9.5L13.5 7.5Z" fill="#5B3B1C"/>
<path d="M11.5 7.5L7.5 3.5H5V11.5H7.5L11.5 7.5Z" fill="#8ED4EA"/>
<path d="M10.5 7.5L6.5 3.5H4V11.5H6.5L10.5 7.5Z" fill="#F3B2C7"/>
<path d="M9.5 7.5L5.5 3.5H4V11.5H5.5L9.5 7.5Z" fill="white"/>
<path d="M8.5 7.5L4.5 3.5H3.5V11.5H4.5L8.5 7.5Z" fill="#FFD23E"/>
<path d="M5.75 7C5.47386 7 5.25 7.22386 5.25 7.5C5.25 7.77614 5.47386 8 5.75 8C6.02614 8 6.25 7.77614 6.25 7.5C6.25 7.22386 6.02614 7 5.75 7ZM4.25 7.5C4.25 6.67157 4.92157 6 5.75 6C6.57843 6 7.25 6.67157 7.25 7.5C7.25 8.32843 6.57843 9 5.75 9C4.92157 9 4.25 8.32843 4.25 7.5Z" fill="#5F3383"/>
<path d="M9.50049 12C9.50082 12 9.50016 12 9.50049 12H4L4 17.5C4 17.7761 3.77614 18 3.5 18C3.22386 18 3 17.7761 3 17.5V3.5C3 3.22386 3.22386 3 3.5 3H9.49991C9.49986 3 9.49997 3 9.49991 3H16.5C16.7761 3 17 3.22386 17 3.5V11.5C17 11.7761 16.7761 12 16.5 12H9.50049ZM9.29289 4H4V11H9.29289L12.7929 7.5L9.29289 4ZM10.7071 4L13.8536 7.14645C14.0488 7.34171 14.0488 7.65829 13.8536 7.85355L10.7071 11H16V4H10.7071Z" fill="#242424"/>
</svg>
