<svg width="20" height="20" viewBox="0 0 20 20" fill="none" xmlns="http://www.w3.org/2000/svg">
<path d="M2 10C2 5.58172 5.58172 2 10 2C14.4183 2 18 5.58172 18 10C18 14.4183 14.4183 18 10 18C5.58172 18 2 14.4183 2 10ZM8.5 8.50009C8.67042 8.50059 8.83678 8.4139 8.93078 8.25712C9.07277 8.02028 8.99589 7.71318 8.75905 7.57118L6.25718 6.07118C6.02035 5.92919 5.71324 6.00607 5.57124 6.24291C5.42925 6.47974 5.50613 6.78685 5.74297 6.92885L6.95974 7.65836C6.68318 7.83625 6.5 8.14674 6.5 8.5C6.5 9.05228 6.94772 9.5 7.5 9.5C8.05226 9.5 8.49995 9.05233 8.5 8.50009ZM13.5 8.5C13.5 8.14707 13.3172 7.83683 13.041 7.65886L14.2573 6.92855C14.494 6.7864 14.5707 6.47925 14.4286 6.2425C14.2864 6.00576 13.9793 5.92908 13.7425 6.07123L11.2444 7.57123C11.0077 7.71338 10.931 8.02054 11.0731 8.25728C11.1665 8.41276 11.331 8.49924 11.5 8.5C11.5 9.05228 11.9477 9.5 12.5 9.5C13.0523 9.5 13.5 9.05228 13.5 8.5ZM13.5624 13.3904C13.9012 13.0816 13.6288 12.6738 13.6173 12.6599C13.6054 12.6461 13.5893 12.628 13.569 12.6061C13.5284 12.5623 13.4705 12.5035 13.3949 12.4348C13.2439 12.2974 13.0212 12.1199 12.7225 11.9441C12.1222 11.5909 11.2235 11.25 10.0019 11.25C8.78034 11.25 7.88076 11.5908 7.27973 11.9439C6.98064 12.1196 6.75752 12.297 6.60614 12.4343C6.5304 12.5029 6.47243 12.5617 6.43168 12.6055C6.4113 12.6273 6.39519 12.6455 6.3833 12.6593C6.20026 12.8778 6.20543 13.2039 6.43687 13.3898C6.65118 13.562 6.96401 13.5287 7.13743 13.3161L7.14031 13.3127C7.14422 13.3081 7.15188 13.2994 7.16335 13.2871C7.18628 13.2625 7.22431 13.2236 7.27783 13.1751C7.38494 13.078 7.55332 12.9429 7.78622 12.8061C8.24918 12.5342 8.97555 12.25 10.0019 12.25C11.0282 12.25 11.7535 12.5342 12.2153 12.8059C12.4477 12.9427 12.6155 13.0776 12.7222 13.1746C12.7755 13.2231 12.8134 13.262 12.8362 13.2865C12.8476 13.2988 12.8552 13.3075 12.8591 13.312L12.862 13.3153C13.035 13.5283 13.3592 13.5756 13.5624 13.3904Z" fill="#212121"/>
</svg>
