<svg width="20" height="20" viewBox="0 0 20 20" fill="none" xmlns="http://www.w3.org/2000/svg">
<path d="M17 15.5C17 16.3284 16.3284 17 15.5 17H10.5C9.67157 17 9 16.3284 9 15.5V12.5C9 11.6716 9.67157 11 10.5 11H15.5C16.3284 11 17 11.6716 17 12.5L17 15.5ZM15.5 16C15.7761 16 16 15.7761 16 15.5L16 12.5C16 12.2239 15.7761 12 15.5 12H10.5C10.2239 12 10 12.2239 10 12.5V15.5C10 15.7761 10.2239 16 10.5 16H15.5ZM11 7.5C11 8.32843 10.3284 9 9.5 9H4.5C3.67157 9 3 8.32843 3 7.5L3 4.5C3 3.67157 3.67157 3 4.5 3L9.5 3C10.3284 3 11 3.67157 11 4.5V7.5ZM9.5 8C9.77614 8 10 7.77614 10 7.5V4.5C10 4.22386 9.77614 4 9.5 4L4.5 4C4.22386 4 4 4.22386 4 4.5L4 7.5C4 7.77614 4.22386 8 4.5 8H9.5ZM15.5 9C16.3284 9 17 8.32843 17 7.5V4.5C17 3.67157 16.3284 3 15.5 3L14.5 3C13.6716 3 13 3.67157 13 4.5V7.5C13 8.32843 13.6716 9 14.5 9H15.5ZM16 7.5C16 7.77614 15.7761 8 15.5 8H14.5C14.2239 8 14 7.77614 14 7.5V4.5C14 4.22386 14.2239 4 14.5 4H15.5C15.7761 4 16 4.22386 16 4.5V7.5ZM7 15.5C7 16.3284 6.32843 17 5.5 17L4.5 17C3.67157 17 3 16.3284 3 15.5L3 12.5C3 11.6716 3.67157 11 4.5 11L5.5 11C6.32843 11 7 11.6716 7 12.5V15.5ZM5.5 16C5.77614 16 6 15.7761 6 15.5L6 12.5C6 12.2239 5.77614 12 5.5 12L4.5 12C4.22386 12 4 12.2239 4 12.5L4 15.5C4 15.7761 4.22386 16 4.5 16L5.5 16Z" fill="#212121"/>
</svg>
