<svg width="28" height="28" viewBox="0 0 28 28" fill="none" xmlns="http://www.w3.org/2000/svg">
<path d="M3 5.75C3 4.23122 4.23122 3 5.75 3H12.25C13.7688 3 15 4.23122 15 5.75V10.25C15 11.7688 13.7688 13 12.25 13H5.75C4.23122 13 3 11.7688 3 10.25V5.75ZM5.75 4.5C5.05964 4.5 4.5 5.05964 4.5 5.75V10.25C4.5 10.9404 5.05964 11.5 5.75 11.5H12.25C12.9404 11.5 13.5 10.9404 13.5 10.25V5.75C13.5 5.05964 12.9404 4.5 12.25 4.5H5.75ZM18 5.75C18 4.23122 19.2312 3 20.75 3H22.25C23.7688 3 25 4.23122 25 5.75V10.25C25 11.7688 23.7688 13 22.25 13H20.75C19.2312 13 18 11.7688 18 10.25V5.75ZM20.75 4.5C20.0596 4.5 19.5 5.05964 19.5 5.75V10.25C19.5 10.9404 20.0596 11.5 20.75 11.5H22.25C22.9404 11.5 23.5 10.9404 23.5 10.25V5.75C23.5 5.05964 22.9404 4.5 22.25 4.5H20.75ZM5.75 15C4.23122 15 3 16.2312 3 17.75V22.25C3 23.7688 4.23122 25 5.75 25H7.25C8.76878 25 10 23.7688 10 22.25V17.75C10 16.2312 8.76878 15 7.25 15H5.75ZM4.5 17.75C4.5 17.0596 5.05964 16.5 5.75 16.5H7.25C7.94036 16.5 8.5 17.0596 8.5 17.75V22.25C8.5 22.9404 7.94036 23.5 7.25 23.5H5.75C5.05964 23.5 4.5 22.9404 4.5 22.25V17.75ZM13 17.75C13 16.2312 14.2312 15 15.75 15H22.25C23.7688 15 25 16.2312 25 17.75V22.25C25 23.7688 23.7688 25 22.25 25H15.75C14.2312 25 13 23.7688 13 22.25V17.75ZM15.75 16.5C15.0596 16.5 14.5 17.0596 14.5 17.75V22.25C14.5 22.9404 15.0596 23.5 15.75 23.5H22.25C22.9404 23.5 23.5 22.9404 23.5 22.25V17.75C23.5 17.0596 22.9404 16.5 22.25 16.5H15.75Z" fill="#212121"/>
</svg>
