<svg width="24" height="24" viewBox="0 0 24 24" fill="none" xmlns="http://www.w3.org/2000/svg">
<path d="M13.0012 4.75195C13.0012 3.78545 12.2177 3.00195 11.2512 3.00195H4.75122C3.78472 3.00195 3.00122 3.78545 3.00122 4.75195V9.25195C3.00122 10.2185 3.78472 11.002 4.75122 11.002H11.2512C12.2177 11.002 13.0012 10.2185 13.0012 9.25195V4.75195ZM8.98881 14.7338C8.98881 13.7673 8.2053 12.9838 7.23881 12.9838H4.75122C3.78472 12.9838 3.00122 13.7673 3.00122 14.7338V19.2482C3.00122 20.2147 3.78472 20.9982 4.75122 20.9982H7.23881C8.2053 20.9982 8.98881 20.2147 8.98881 19.2482V14.7338ZM21.0029 14.7482C21.0029 13.7817 20.2194 12.9982 19.2529 12.9982H12.7529C11.8347 12.9982 11.0817 13.7053 11.0087 14.6046L11.0029 14.7482V19.2482C11.0029 20.2147 11.7864 20.9982 12.7529 20.9982H19.2529C20.2194 20.9982 21.0029 20.2147 21.0029 19.2482V14.7482ZM21.0029 4.75195C21.0029 3.78545 20.2194 3.00195 19.2529 3.00195H16.7529C15.7864 3.00195 15.0029 3.78545 15.0029 4.75195V9.25195C15.0029 10.2185 15.7864 11.002 16.7529 11.002H19.2529C20.2194 11.002 21.0029 10.2185 21.0029 9.25195V4.75195Z" fill="#212121"/>
</svg>
