<svg width="24" height="24" viewBox="0 0 24 24" fill="none" xmlns="http://www.w3.org/2000/svg">
<path d="M4.29289 17.2929C3.90237 17.6834 3.90237 18.3166 4.29289 18.7071L6.29289 20.7071C6.68342 21.0976 7.31658 21.0976 7.70711 20.7071L9.70711 18.7071C10.0976 18.3166 10.0976 17.6834 9.70711 17.2929C9.31658 16.9024 8.68342 16.9024 8.29289 17.2929L8 17.5858V4C8 3.44772 7.55228 3 7 3C6.44771 3 6 3.44772 6 4V17.5858L5.70711 17.2929C5.31658 16.9024 4.68342 16.9024 4.29289 17.2929ZM13.2929 18.7071C12.9024 18.3166 12.9024 17.6834 13.2929 17.2929C13.6834 16.9024 14.3166 16.9024 14.7071 17.2929L15 17.5858V16C15 15.4477 15.4477 15 16 15C16.5523 15 17 15.4477 17 16V17.5858L17.2929 17.2929C17.6834 16.9024 18.3166 16.9024 18.7071 17.2929C19.0976 17.6834 19.0976 18.3166 18.7071 18.7071L16.7071 20.7071C16.3166 21.0976 15.6834 21.0976 15.2929 20.7071L13.2929 18.7071ZM20 12C20.5523 12 21 11.5523 21 11C21 10.4477 20.5523 10 20 10H10.75C10.1977 10 9.75 10.4477 9.75 11C9.75 11.5523 10.1977 12 10.75 12H15V13C15 13.5523 15.4477 14 16 14C16.5523 14 17 13.5523 17 13V12H20ZM20 4C20 3.44772 19.5523 3 19 3C18.4477 3 18 3.44772 18 4V7H17.75C16.8545 7 15.8806 6.81635 15.1641 6.35773C14.5105 5.93944 14 5.25514 14 4C14 3.44772 13.5523 3 13 3C12.4477 3 12 3.44772 12 4C12 5.94486 12.8645 7.26056 14.0859 8.04227C15.2444 8.78365 16.6455 9 17.75 9H19C19.5523 9 20 8.55228 20 8V4Z" fill="#212121"/>
</svg>
