<svg width="16" height="16" viewBox="0 0 16 16" fill="none" xmlns="http://www.w3.org/2000/svg">
<path d="M14 8C14 4.68629 11.3137 2 8 2C4.68629 2 2 4.68629 2 8C2 11.3137 4.68629 14 8 14C11.3137 14 14 11.3137 14 8ZM3 8C3 5.23858 5.23858 3 8 3C10.7614 3 13 5.23858 13 8C13 10.7614 10.7614 13 8 13C5.23858 13 3 10.7614 3 8ZM7 6.75C7 7.16421 6.66421 7.5 6.25 7.5C5.83579 7.5 5.5 7.16421 5.5 6.75C5.5 6.33579 5.83579 6 6.25 6C6.66421 6 7 6.33579 7 6.75ZM10.5 6.75C10.5 7.16421 10.1642 7.5 9.75 7.5C9.33579 7.5 9 7.16421 9 6.75C9 6.33579 9.33579 6 9.75 6C10.1642 6 10.5 6.33579 10.5 6.75ZM6.13214 10.8224C7.05739 9.72586 8.94262 9.72585 9.86785 10.8224C10.0459 11.0335 10.3614 11.0602 10.5724 10.8821C10.7835 10.7041 10.8102 10.3886 10.6321 10.1776C9.30738 8.60745 6.69261 8.6075 5.36786 10.1776C5.18978 10.3886 5.21651 10.7041 5.42756 10.8821C5.63861 11.0602 5.95407 11.0335 6.13214 10.8224Z" fill="#212121"/>
</svg>
