<svg width="48" height="48" viewBox="0 0 48 48" fill="none" xmlns="http://www.w3.org/2000/svg">
<path d="M25.081 6.41845C26.2076 5.40707 28 6.20667 28 7.72071V40.2792C28 41.7933 26.2077 42.5929 25.081 41.5815L16.875 34.2152C16.0034 33.4328 14.8734 33 13.702 33H9C6.10051 33 3.75 30.6495 3.75 27.75V20.25C3.75 17.3505 6.10051 15 9 15H13.702C14.8734 15 16.0034 14.5672 16.875 13.7847L25.081 6.41845ZM32.334 14.3994C32.8038 13.8935 33.5947 13.8642 34.1006 14.334L34.1646 14.3955C34.0635 14.3009 34.1014 14.3347 34.1014 14.3347L34.1022 14.3355L34.1042 14.3374L34.1092 14.342L34.1228 14.355C34.1336 14.3652 34.1476 14.3787 34.1646 14.3955C34.1987 14.4289 34.245 14.4753 34.3018 14.5343C34.4152 14.6524 34.5707 14.8215 34.754 15.0397C35.1202 15.4756 35.6008 16.1117 36.0797 16.9326C37.0373 18.5743 38 20.9776 38 24C38 27.0224 37.0373 29.4257 36.0797 31.0673C35.6008 31.8883 35.1202 32.5243 34.754 32.9602C34.5707 33.1785 34.4152 33.3476 34.3018 33.4656C34.245 33.5247 34.1987 33.571 34.1646 33.6045C34.1576 33.6114 34.1511 33.6177 34.1451 33.6235C34.1366 33.6318 34.1292 33.6389 34.1228 33.645L34.1092 33.6579L34.1042 33.6625L34.1014 33.6652C34.1014 33.6652 34.5 33.2671 34.1092 33.6579L34.1006 33.666C33.5947 34.1357 32.8038 34.1064 32.334 33.6005C31.8653 33.0957 31.8934 32.3072 32.3962 31.837L32.3978 31.8355L32.414 31.8198C32.4311 31.8029 32.46 31.7741 32.499 31.7335C32.577 31.6524 32.695 31.5246 32.8397 31.3522C33.1298 31.0069 33.5242 30.4867 33.9203 29.8076C34.7127 28.4493 35.5 26.4776 35.5 24C35.5 21.5224 34.7127 19.5507 33.9203 18.1923C33.5242 17.5133 33.1298 16.993 32.8397 16.6477C32.695 16.4754 32.577 16.3476 32.499 16.2664C32.46 16.2258 32.4311 16.197 32.414 16.1802L32.3972 16.1639L32.3981 16.1647C31.8929 15.6949 31.8645 14.9051 32.334 14.3994Z" fill="#212121"/>
</svg>
