<svg width="48" height="48" viewBox="0 0 48 48" fill="none" xmlns="http://www.w3.org/2000/svg">
<path d="M29.9927 38C29.9927 41.3137 27.3064 44 23.9927 44C20.679 44 17.9927 41.3137 17.9927 38C17.9927 34.6863 20.679 32 23.9927 32C27.3064 32 29.9927 34.6863 29.9927 38Z" fill="url(#paint0_linear_378174_8401)"/>
<path d="M23.9999 4C15.7157 4 8.99992 10.7157 8.99992 19V27.4865L6.19571 33.8417C5.53945 35.329 6.62858 37 8.25422 37H39.7457C41.3713 37 42.4605 35.329 41.8042 33.8417L38.9999 27.4865V19C38.9999 10.7157 32.2842 4 23.9999 4Z" fill="url(#paint1_linear_378174_8401)"/>
<defs>
<linearGradient id="paint0_linear_378174_8401" x1="23.9927" y1="36.2857" x2="24.0315" y2="43.9988" gradientUnits="userSpaceOnUse">
<stop stop-color="#EB4824"/>
<stop offset="1" stop-color="#FFCD0F" stop-opacity="0.988235"/>
</linearGradient>
<linearGradient id="paint1_linear_378174_8401" x1="37.4873" y1="33.3329" x2="10.2261" y2="8.69963" gradientUnits="userSpaceOnUse">
<stop stop-color="#FF6F47"/>
<stop offset="1" stop-color="#FFCD0F"/>
</linearGradient>
</defs>
</svg>
