<?xml version="1.0" encoding="UTF-8"?>
<svg width="28px" height="28px" viewBox="0 0 28 28" version="1.1" xmlns="http://www.w3.org/2000/svg" xmlns:xlink="http://www.w3.org/1999/xlink">
    <!-- Generator: Sketch 59.1 (86144) - https://sketch.com -->
    <title>ic_fluent_alert_28_filled</title>
    <desc>Created with Sketch.</desc>
    <g id="ðŸ”-Product-Icons" stroke="none" stroke-width="1" fill="none" fill-rule="evenodd">
        <g id="ic_fluent_alert_28_filled" fill="#212121" fill-rule="nonzero">
            <path d="M10.534297,22.00201 L17.465703,22.00201 C17.2227489,23.6984733 15.763659,25.0024884 14,25.0024884 C12.236341,25.0024884 10.7772511,23.6984733 10.534297,22.00201 Z M13.9999998,3 C18.6097416,3 22.362545,6.66898984 22.4974867,11.2460464 L22.5012438,11.501244 L22.5012438,16.0143869 L24.740823,19.1867641 C24.8778038,19.3807981 24.9513454,19.6124859 24.9513454,19.85 C24.9513454,20.4427856 24.5028343,20.9308159 23.9266506,20.993252 L23.8013454,21 L4.20212449,21 C3.96488057,21 3.73344275,20.9266253 3.53953529,20.7899338 C3.05503159,20.4483918 2.91456425,19.8006227 3.1955097,19.2937149 L3.26219069,19.1874108 L5.49875581,16.014671 L5.49875581,11.501244 C5.49875581,6.80613658 9.3048924,3 13.9999998,3 Z" id="ðŸŽ¨-Color"></path>
        </g>
    </g>
</svg>