<svg width="20" height="20" viewBox="0 0 20 20" fill="none" xmlns="http://www.w3.org/2000/svg">
<path d="M12.4496 16.0016C12.2174 17.1419 11.2089 18 9.99995 18C8.79102 18 7.78251 17.1419 7.55027 16.0016H12.4496ZM9.99759 2C13.1465 2 15.7415 4.33488 15.9821 7.3554L15.9954 7.57762L15.9999 7.80214L15.9989 11.408L16.9527 13.9951L16.9783 14.0796L16.9938 14.1664L16.999 14.2546C16.999 14.5697 16.8033 14.845 16.477 14.9618L16.3635 14.9947L16.249 15.0046H3.7513C3.6628 15.0046 3.575 14.9889 3.49197 14.9583C3.20507 14.8526 3.0163 14.5865 3.00952 14.2422L3.01412 14.1247L3.04756 13.9952L3.99895 11.411L4.00003 7.79281L4.00433 7.56824C4.12695 4.45115 6.77097 2 9.99759 2Z" fill="#212121"/>
</svg>
