<svg width="28" height="28" viewBox="0 0 28 28" fill="none" xmlns="http://www.w3.org/2000/svg">
<path d="M13.9999 3C18.6097 3 22.3625 6.66899 22.4974 11.246L22.5012 11.5012L22.5009 16.113L23.915 19.757C23.9531 19.8554 23.9789 19.958 23.9919 20.0624L24.0016 20.22C24.0016 20.8827 23.4979 21.4278 22.8525 21.4934L22.7216 21.5L17.5014 21.5011C17.5014 23.4348 15.9337 25.0025 13.9999 25.0025C12.1306 25.0025 10.6034 23.5376 10.5037 21.6932L10.4984 21.499L5.27473 21.5C5.11602 21.5 4.9587 21.4705 4.81078 21.413C4.19311 21.1727 3.86764 20.5057 4.04049 19.8804L4.08177 19.7561L5.49794 16.112L5.4987 11.5012C5.4987 6.80614 9.30483 3 13.9999 3ZM15.9959 21.6504L16.0004 21.499L11.9985 21.5011C11.9985 22.6064 12.8946 23.5025 13.9999 23.5025C15.0551 23.5025 15.9195 22.686 15.9959 21.6504ZM13.9999 4.5C10.2138 4.5 7.12962 7.50532 7.00276 11.2606L6.9987 11.5012V16.2534C6.9987 16.3154 6.99101 16.377 6.9759 16.4369L6.9477 16.5252L5.59594 19.999H22.3999L21.052 16.5246C21.0296 16.467 21.0145 16.4069 21.0069 16.3457L21.0012 16.2534V11.5012C21.0012 7.63456 17.8666 4.5 13.9999 4.5Z" fill="#212121"/>
</svg>
