<svg width="48" height="48" viewBox="0 0 48 48" fill="none" xmlns="http://www.w3.org/2000/svg">
<path d="M12.25 7C8.79822 7 6 9.79822 6 13.25V14.0589C6.2443 14.0201 6.4948 14 6.75 14H12.25C14.8734 14 17 16.1266 17 18.75V21.8771C18.2098 22.7374 19 24.15 19 25.75V32.3345C19 33.1954 18.766 34.0402 18.3231 34.7784L18.1901 35H26.75C30.2018 35 33 32.2018 33 28.75V13.25C33 9.79822 30.2018 7 26.75 7H12.25ZM35 28.339L40.9069 32.4176C43.0628 33.9062 46.0035 32.363 46.0035 29.7432V12.2556C46.0035 9.63579 43.0627 8.09263 40.9069 9.58119L35 13.6598V28.339ZM6.75 16C5.23122 16 4 17.2312 4 18.75V23.1035C2.84575 23.43 2 24.4912 2 25.75V32.3345C2 32.8329 2.13546 33.322 2.39189 33.7494L4.96437 38.0369C4.98769 38.0757 5 38.1202 5 38.1655V41.25C5 42.7688 6.23122 44 7.75 44H11.25C12.7688 44 14 42.7688 14 41.25V38.1655C14 38.1202 14.0123 38.0757 14.0356 38.0369L16.6081 33.7494C16.8645 33.322 17 32.8329 17 32.3345V25.75C17 24.4912 16.1543 23.43 15 23.1035V18.75C15 17.2312 13.7688 16 12.25 16H6.75ZM12.5 23H6.5V18.75C6.5 18.6119 6.61193 18.5 6.75 18.5H12.25C12.3881 18.5 12.5 18.6119 12.5 18.75V23Z" fill="#212121"/>
</svg>
