<svg width="24" height="24" viewBox="0 0 24 24" fill="none" xmlns="http://www.w3.org/2000/svg">
<path d="M11.3574 1.36527C11.6487 0.879872 12.3522 0.879872 12.6436 1.36527L14.1426 3.86233C14.4419 4.36192 14.0823 4.9975 13.5 4.99808H13V13.2256L16.5137 10.0059C16.7989 9.74442 16.9695 9.38353 16.9951 9.00002H16.75C16.3359 9.00002 16.0001 8.66413 16 8.25003V5.75003C16 5.33581 16.3358 5.00003 16.75 5.00003H19.25C19.6642 5.00003 20 5.33581 20 5.75003V8.25003C19.9999 8.66413 19.6641 9.00002 19.25 9.00002H18.9971C18.9701 9.94449 18.5638 10.8401 17.8652 11.4805L13.4863 15.4942C13.1766 15.7782 13 16.1793 13 16.5996V18.2695C13.5973 18.6155 14 19.2601 14 20C13.9999 21.1045 13.1045 22 12 22C10.8955 22 10.0001 21.1045 10 20C10 19.2736 10.3884 18.6394 10.9678 18.2891C10.9036 17.9857 10.746 17.7072 10.5137 17.4942L6.13477 13.4805C5.41167 12.8176 5.00011 11.8813 5 10.9004V10.7295C4.40291 10.3836 4.00008 9.73972 4 9.00002C4 7.89546 4.89543 7.00003 6 7.00003C7.10457 7.00003 8 7.89546 8 9.00002C7.99992 9.73972 7.59709 10.3836 7 10.7295V10.9004C7.00011 11.3207 7.17654 11.7219 7.48633 12.0059L11 15.2256V4.99808H10.502C9.91904 4.99808 9.55865 4.36219 9.8584 3.86233L11.3574 1.36527Z" fill="#212121"/>
</svg>
