<svg width="24" height="24" viewBox="0 0 24 24" fill="none" xmlns="http://www.w3.org/2000/svg">
<path d="M12 2C17.5228 2 22 6.47715 22 12C22 17.5228 17.5228 22 12 22C10.3817 22 8.81782 21.6146 7.41286 20.888L3.58704 21.9553C2.92212 22.141 2.23258 21.7525 2.04691 21.0876C1.98546 20.8676 1.98549 20.6349 2.04695 20.4151L3.11461 16.5922C2.38637 15.186 2 13.6203 2 12C2 6.47715 6.47715 2 12 2ZM12 3.5C7.30558 3.5 3.5 7.30558 3.5 12C3.5 13.4696 3.87277 14.8834 4.57303 16.1375L4.72368 16.4072L3.61096 20.3914L7.59755 19.2792L7.86709 19.4295C9.12006 20.1281 10.5322 20.5 12 20.5C16.6944 20.5 20.5 16.6944 20.5 12C20.5 7.30558 16.6944 3.5 12 3.5Z" fill="#212121"/>
</svg>
