<svg width="48" height="48" viewBox="0 0 48 48" fill="none" xmlns="http://www.w3.org/2000/svg">
<path d="M16.6942 8.60723C21.1899 6.75705 26.2051 6.60512 30.8046 8.17979C34.953 9.60002 38.5076 12.3374 40.9394 15.9549H31.3954C30.7051 15.9549 30.1454 16.5145 30.1454 17.2049C30.1454 17.8952 30.7051 18.4549 31.3954 18.4549H42.75C43.4404 18.4549 44 17.8952 44 17.2049V5.85001C44 5.15965 43.4404 4.60001 42.75 4.60001C42.0597 4.60001 41.5001 5.15965 41.5001 5.85001V12.5584C38.8892 9.47955 35.4811 7.13838 31.6143 5.81456C26.4408 4.04335 20.7997 4.21425 15.7428 6.29535C10.6774 8.37998 6.55441 12.3075 4.13028 17.1987C3.82372 17.8173 4.07664 18.5672 4.69518 18.8738C5.31372 19.1804 6.06366 18.9275 6.37022 18.3089C8.53326 13.9445 12.2071 10.4539 16.6942 8.60723ZM30.3144 22.0038C27.687 22.0038 25.8449 23.2439 24.7351 25.1998C23.6801 27.0592 23.3145 29.502 23.3145 32.0038C23.3145 34.5056 23.6801 36.9484 24.7351 38.8079C25.8449 40.7638 27.687 42.0038 30.3144 42.0038C32.9418 42.0038 34.7839 40.7638 35.8936 38.8079C36.9487 36.9484 37.3142 34.5056 37.3142 32.0038C37.3142 29.502 36.9487 27.0592 35.8936 25.1998C34.7839 23.2439 32.9418 22.0038 30.3144 22.0038ZM25.8145 32.0038C25.8145 29.6731 26.1676 27.7409 26.9094 26.4335C27.5965 25.2225 28.6294 24.5038 30.3144 24.5038C31.9994 24.5038 33.0322 25.2225 33.7193 26.4335C34.4611 27.7409 34.8143 29.6731 34.8143 32.0038C34.8143 34.3345 34.4611 36.2667 33.7193 37.5741C33.0322 38.7851 31.9994 39.5038 30.3144 39.5038C28.6294 39.5038 27.5965 38.7851 26.9094 37.5741C26.1676 36.2667 25.8145 34.3345 25.8145 32.0038ZM17.9676 22.23C18.1724 22.3736 18.3211 22.5674 18.4085 22.7831C18.4435 22.869 18.4691 22.9596 18.4843 23.0538C18.4965 23.1291 18.5018 23.2055 18.5002 23.2821V40.7538C18.5002 41.4442 17.9405 42.0038 17.2502 42.0038C16.5599 42.0038 16.0002 41.4442 16.0002 40.7538V26.9232C15.2431 27.6926 14.2522 28.5105 12.8936 29.3257C12.3016 29.6809 11.5338 29.4889 11.1787 28.8969C10.8235 28.3049 11.0154 27.5371 11.6074 27.1819C14.1027 25.6847 15.0459 24.2837 15.8682 23.0621C15.9835 22.8909 16.0965 22.723 16.2109 22.5591C16.2462 22.5064 16.2854 22.4565 16.3281 22.4099C16.4173 22.3122 16.5194 22.2314 16.63 22.1683C16.9792 21.969 17.4127 21.9461 17.7873 22.1248C17.8454 22.1525 17.901 22.1845 17.9537 22.2204L17.9676 22.23Z" fill="#212121"/>
</svg>
