<svg width="28" height="28" viewBox="0 0 28 28" fill="none" xmlns="http://www.w3.org/2000/svg">
<path d="M10.6904 5.26691C10.8522 5.64823 10.6742 6.08849 10.2929 6.25027C6.88678 7.69533 4.5 11.0698 4.5 15C4.5 20.2467 8.75329 24.5 14 24.5C19.2467 24.5 23.5 20.2467 23.5 15C23.5 11.0698 21.1132 7.69533 17.7071 6.25027C17.3258 6.08849 17.1478 5.64823 17.3096 5.26691C17.4713 4.8856 17.9116 4.70762 18.2929 4.8694C22.2336 6.54125 25 10.4467 25 15C25 21.0751 20.0751 26 14 26C7.92487 26 3 21.0751 3 15C3 10.4467 5.76636 6.54125 9.70708 4.8694C10.0884 4.70762 10.5287 4.8856 10.6904 5.26691ZM14 2C14.4142 2 14.75 2.33579 14.75 2.75V12.25C14.75 12.6642 14.4142 13 14 13C13.5858 13 13.25 12.6642 13.25 12.25V2.75C13.25 2.33579 13.5858 2 14 2Z" fill="#212121"/>
</svg>
