<svg width="21" height="20" viewBox="0 0 21 20" fill="none" xmlns="http://www.w3.org/2000/svg">
<path d="M11.166 2.5C11.166 2.08579 10.8302 1.75 10.416 1.75C10.0018 1.75 9.66602 2.08579 9.66602 2.5V8.5C9.66602 8.91421 10.0018 9.25 10.416 9.25C10.8302 9.25 11.166 8.91421 11.166 8.5V2.5ZM14.1592 4.00091C13.8003 3.79418 13.3417 3.91757 13.135 4.2765C12.9283 4.63544 13.0516 5.094 13.4106 5.30073C14.5554 5.96007 15.4505 6.9788 15.9572 8.19885C16.4639 9.4189 16.5537 10.7721 16.2128 12.0484C15.8719 13.3247 15.1193 14.4528 14.0717 15.2578C13.0241 16.0627 11.7402 16.4993 10.4192 16.5C9.09808 16.5007 7.81371 16.0654 6.76532 15.2616C5.71692 14.4578 4.96312 13.3304 4.62087 12.0545C4.27862 10.7785 4.36705 9.42523 4.87244 8.20465C5.37783 6.98407 6.27194 5.96441 7.41602 5.30387C7.77474 5.09676 7.89764 4.63807 7.69054 4.27935C7.48343 3.92063 7.02474 3.79773 6.66602 4.00483C5.23591 4.8305 4.11829 6.10508 3.48655 7.6308C2.8548 9.15653 2.74427 10.8481 3.17208 12.4431C3.5999 14.038 4.54215 15.4472 5.85264 16.452C7.16314 17.4567 8.7686 18.0009 10.4199 18C12.0713 17.9992 13.6762 17.4533 14.9856 16.4472C16.2951 15.4411 17.2358 14.0309 17.662 12.4355C18.0881 10.8401 17.9758 9.14861 17.3425 7.62355C16.7091 6.09849 15.5902 4.82508 14.1592 4.00091Z" fill="#212121"/>
</svg>
