<?xml version="1.0" encoding="UTF-8"?>
<svg width="20px" height="20px" viewBox="0 0 20 20" version="1.1" xmlns="http://www.w3.org/2000/svg" xmlns:xlink="http://www.w3.org/1999/xlink">
    <!-- Generator: Sketch 64 (93537) - https://sketch.com -->
    <title>ic_fluent_power_20_regular</title>
    <desc>Created with Sketch.</desc>
    <g id="ðŸ”-System-Icons" stroke="none" stroke-width="1" fill="none" fill-rule="evenodd">
        <g id="ic_fluent_power_20_regular" fill="#212121" fill-rule="nonzero">
            <path d="M13.0604,4.18462 C13.1982,3.94533 13.5039,3.86307 13.7432,4.00089 C15.1742,4.82507 16.2931,6.09847 16.9265,7.62353 C17.5598,9.1486 17.6721,10.84 17.246,12.4355 C16.8198,14.0309 15.879,15.441 14.5696,16.4472 C13.2602,17.4533 11.6553,17.9991 10.0039,18.0000022 C8.35259,18.0009 6.74712,17.4567 5.43663,16.4519 C4.12613,15.4472 3.18388,14.038 2.75607,12.443 C2.32825,10.8481 2.43879,9.15651 3.07053,7.63078 C3.70227,6.10506 4.8199,4.83048 6.25,4.00481 C6.48915,3.86674 6.79495,3.94868 6.93302,4.18783 C7.07109,4.42697 6.98915,4.73277 6.75,4.87084 C5.51058,5.58642 4.54197,6.69105 3.99446,8.01335 C3.44695,9.33564 3.35115,10.8017 3.72193,12.184 C4.0927,13.5663 4.90932,14.7876 6.04508,15.6584 C7.18084,16.5291 8.57224,17.0008 10.0034,17 C11.4346,16.9993 12.8255,16.5262 13.9603,15.6542 C15.0952,14.7822 15.9105,13.5601 16.2798,12.1774 C16.6492,10.7947 16.5518,9.32878 16.0029,8.00706 C15.454,6.68534 14.4843,5.58172 13.2441,4.86744 C13.0048,4.72962 12.9226,4.42391 13.0604,4.18462 Z M10,2 C10.2454222,2 10.4496,2.17687704 10.4919429,2.41012499 L10.5,2.5 L10.5,8.5 C10.5,8.77614 10.2761,9 10,9 C9.75454222,9 9.5503921,8.82312296 9.50805575,8.58987501 L9.5,8.5 L9.5,2.5 C9.5,2.22386 9.72386,2 10,2 Z" id="ðŸŽ¨-Color"></path>
        </g>
    </g>
</svg>