<svg width="20" height="20" viewBox="0 0 20 20" fill="none" xmlns="http://www.w3.org/2000/svg">
<path d="M2 6C2 4.89543 2.89543 4 4 4H16C17.1046 4 18 4.89543 18 6V13.5C18 11.0147 15.9853 9 13.5 9C11.0147 9 9 11.0147 9 13.5C9 14.4251 9.27914 15.285 9.75777 16H4C2.89543 16 2 15.1046 2 14V6ZM16.3032 15.5961C16.7408 15.0118 17 14.2862 17 13.5C17 11.567 15.433 10 13.5 10C11.567 10 10 11.567 10 13.5C10 15.433 11.567 17 13.5 17C14.2862 17 15.0118 16.7408 15.5961 16.3032L18.1464 18.8536C18.3417 19.0489 18.6583 19.0489 18.8535 18.8536C19.0488 18.6584 19.0488 18.3418 18.8536 18.1465L16.3032 15.5961ZM16 13.5C16 14.8807 14.8807 16 13.5 16C12.1193 16 11 14.8807 11 13.5C11 12.1193 12.1193 11 13.5 11C14.8807 11 16 12.1193 16 13.5Z" fill="#212121"/>
</svg>
