<svg width="16" height="16" viewBox="0 0 16 16" fill="none" xmlns="http://www.w3.org/2000/svg">
<path d="M5.49997 3H5.99998V6.68895C5.99998 7.13159 5.88246 7.56629 5.65943 7.94863L3.44536 11.7441C2.86203 12.7441 3.58334 13.9999 4.74103 13.9999H11.2589C12.4166 13.9999 13.1379 12.7441 12.5546 11.7441L10.3405 7.94863C10.1175 7.56629 9.99998 7.13159 9.99998 6.68895V3H10.5C10.7761 3 11 2.77614 11 2.5C11 2.22386 10.7761 2 10.5 2H5.49997C5.22383 2 4.99997 2.22386 4.99997 2.5C4.99997 2.77614 5.22383 3 5.49997 3ZM6.99998 6.68895V3H8.99998V6.68895C8.99998 7.30864 9.16452 7.91723 9.47676 8.45251L9.79614 9H6.20383L6.5232 8.45251C6.83545 7.91723 6.99998 7.30864 6.99998 6.68895ZM5.62049 10H10.3795L11.6908 12.248C11.8853 12.5813 11.6448 12.9999 11.2589 12.9999H4.74103C4.35513 12.9999 4.1147 12.5813 4.30914 12.248L5.62049 10Z" fill="#212121"/>
</svg>
