<svg width="20" height="20" viewBox="0 0 20 20" fill="none" xmlns="http://www.w3.org/2000/svg">
<path d="M6.5 2C6.22386 2 6 2.22386 6 2.5C6 2.77614 6.22386 3 6.5 3H7V4H6.5C5.11929 4 4 5.11929 4 6.5V14.5C4 15.7095 4.85888 16.7184 6 16.95V17.5C6 17.7761 6.22386 18 6.5 18C6.77614 18 7 17.7761 7 17.5V17H13V17.5C13 17.7761 13.2239 18 13.5 18C13.7761 18 14 17.7761 14 17.5V16.95C15.1411 16.7184 16 15.7095 16 14.5V6.5C16 5.11929 14.8807 4 13.5 4H13V3H13.5C13.7761 3 14 2.77614 14 2.5C14 2.22386 13.7761 2 13.5 2H6.5ZM12 3V4H8V3H12ZM6.5 5H13.5C14.3284 5 15 5.67157 15 6.5V14.5C15 15.3284 14.3284 16 13.5 16H6.5C5.67157 16 5 15.3284 5 14.5V6.5C5 5.67157 5.67157 5 6.5 5ZM6.5 8.5C6.5 8.22386 6.72386 8 7 8H13C13.2761 8 13.5 8.22386 13.5 8.5C13.5 8.77614 13.2761 9 13 9H7C6.72386 9 6.5 8.77614 6.5 8.5Z" fill="#212121"/>
</svg>
