<svg width="24" height="24" viewBox="0 0 24 24" fill="none" xmlns="http://www.w3.org/2000/svg">
<path d="M11.1091 4.04883C11.6581 3.9881 12.0538 3.49387 11.9931 2.94493C11.9324 2.396 11.4381 2.00023 10.8892 2.06096C5.88865 2.61421 2 6.85224 2 11.9999C2 17.5227 6.47715 21.9999 12 21.9999C17.1463 21.9999 21.3834 18.1133 21.9385 13.1147C21.9994 12.5658 21.6039 12.0714 21.0549 12.0104C20.506 11.9495 20.0116 12.345 19.9507 12.8939C19.5068 16.8909 16.1158 19.9999 12 19.9999C7.58172 19.9999 4 16.4182 4 11.9999C4 7.88297 7.1106 4.49122 11.1091 4.04883Z" fill="#212121"/>
<path d="M14.7673 2.39103C14.2356 2.24167 13.6835 2.55163 13.5341 3.08333C13.3847 3.61504 13.6947 4.16715 14.2264 4.31651C14.5143 4.39739 14.7956 4.49423 15.0692 4.60601C15.5805 4.81489 16.1643 4.56975 16.3732 4.05849C16.582 3.54723 16.3369 2.96344 15.8256 2.75457C15.4821 2.61422 15.1289 2.49261 14.7673 2.39103Z" fill="#212121"/>
<path d="M17.3494 4.69181C17.7227 4.28476 18.3553 4.25739 18.7623 4.63066C18.9739 4.82467 19.1769 5.02778 19.3709 5.23938C19.7441 5.64652 19.7165 6.27908 19.3094 6.65226C18.9023 7.02544 18.2697 6.99791 17.8965 6.59078C17.7416 6.42181 17.5795 6.25962 17.4106 6.1047C17.0035 5.73142 16.9761 5.09885 17.3494 4.69181Z" fill="#212121"/>
<path d="M11 6C11.5523 6 12 6.44772 12 7V12H15C15.5523 12 16 12.4477 16 13C16 13.5523 15.5523 14 15 14H11C10.4477 14 10 13.5523 10 13V7C10 6.44772 10.4477 6 11 6Z" fill="#212121"/>
<path d="M19.9395 7.62294C20.4506 7.41382 21.0346 7.65867 21.2437 8.16983C21.3511 8.43251 21.4476 8.70087 21.5326 8.97432C21.5593 9.06004 21.5848 9.14625 21.6091 9.23295C21.7585 9.76466 21.4485 10.3168 20.9168 10.4661C20.3851 10.6154 19.833 10.3055 19.6836 9.77376C19.6642 9.70472 19.6439 9.63607 19.6227 9.56782C19.555 9.35007 19.4782 9.13636 19.3926 8.92713C19.1835 8.41597 19.4283 7.83206 19.9395 7.62294Z" fill="#212121"/>
</svg>
