<svg width="28" height="28" viewBox="0 0 28 28" fill="none" xmlns="http://www.w3.org/2000/svg">
<path d="M2 5.75C2 5.33579 2.33579 5 2.75 5H25.25C25.6642 5 26 5.33579 26 5.75C26 6.16421 25.6642 6.5 25.25 6.5H2.75C2.33579 6.5 2 6.16421 2 5.75ZM2 21.75C2 21.3358 2.33579 21 2.75 21H25.25C25.6642 21 26 21.3358 26 21.75C26 22.1642 25.6642 22.5 25.25 22.5H2.75C2.33579 22.5 2 22.1642 2 21.75ZM2.75 13C2.33579 13 2 13.3358 2 13.75C2 14.1642 2.33579 14.5 2.75 14.5H25.25C25.6642 14.5 26 14.1642 26 13.75C26 13.3358 25.6642 13 25.25 13H2.75Z" fill="#212121"/>
</svg>
