<svg width="16" height="16" viewBox="0 0 16 16" fill="none" xmlns="http://www.w3.org/2000/svg">
<path d="M1.14645 1.14648C1.34171 0.951241 1.65822 0.951229 1.85348 1.14648L14.8535 14.1465C15.0487 14.3417 15.0487 14.6583 14.8535 14.8535C14.6582 15.0488 14.3417 15.0488 14.1465 14.8535L12.9853 13.6924C12.8908 14.4298 12.2631 15 11.5 15H4.49997C3.67154 15 2.99996 14.3284 2.99996 13.5V3.70703L1.14645 1.85352C0.951184 1.65825 0.951184 1.34175 1.14645 1.14648ZM9.49997 1C10.1531 1.00002 10.7091 1.41742 10.915 2H11.5C12.3284 2.00002 13 2.67159 13 3.5V10.8789L4.16012 2.03906C4.26933 2.01376 4.38306 2 4.49997 2H5.08493C5.29085 1.41741 5.84686 1 6.49997 1H9.49997ZM6.49997 2C6.22383 2 5.99997 2.22386 5.99997 2.5C5.99997 2.77614 6.22383 3 6.49997 3H9.49997C9.7761 2.99998 9.99997 2.77613 9.99997 2.5C9.99997 2.22387 9.7761 2.00002 9.49997 2H6.49997Z" fill="#212121"/>
</svg>
