<svg width="20" height="20" viewBox="0 0 20 20" fill="none" xmlns="http://www.w3.org/2000/svg">
<path d="M2.71985 8.19005C3.52959 4.9223 6.48191 2.5 10 2.5C12.8098 2.5 15.2588 4.04519 16.5435 6.33219C15.8765 6.36672 15.186 6.49861 14.4967 6.68085C13.2751 7.00381 11.869 7.53859 10.2898 8.2292L10.2861 8.22114L9.37577 8.63495C7.46718 9.50249 5.93918 10.1009 4.73646 10.4189C3.49167 10.748 2.83558 10.7088 2.52319 10.5941C2.50783 10.3981 2.5 10.2 2.5 10C2.5 9.73451 2.51379 9.47224 2.54071 9.21388C1.71462 9.33773 1.2151 9.78566 1.05889 10.1935C0.969725 10.4263 0.980789 10.6596 1.0988 10.8738C1.22025 11.0943 1.48371 11.344 1.98766 11.5312C2.59787 11.757 3.55549 11.7295 4.90925 11.3845C6.2441 11.0443 7.88261 10.4176 9.80178 9.54524C11.743 8.66286 13.4409 8.00859 14.8569 7.647C16.2538 7.29025 17.4613 7.19507 18.3691 7.53112C19.0298 7.77569 19.5123 8.15721 19.7772 8.64C20.0451 9.12833 20.0614 9.66997 19.8769 10.1586C19.5359 11.0614 18.5525 11.7291 17.2795 11.8124C16.4689 15.0789 13.5172 17.5 10 17.5C7.19017 17.5 4.74123 15.9548 3.45654 13.6679C4.1235 13.6333 4.814 13.5014 5.50327 13.3192C6.72483 12.9962 8.13099 12.4615 9.71014 11.7709L9.71381 11.7789L10.6242 11.3651C12.5328 10.4976 14.0608 9.89917 15.2635 9.58119C16.5084 9.25207 17.1644 9.29123 17.4768 9.40595C17.4922 9.60195 17.5 9.80006 17.5 10C17.5 10.2666 17.4861 10.5299 17.459 10.7892C18.2881 10.6671 18.7862 10.2161 18.9414 9.80533C19.0299 9.57081 19.0182 9.33571 18.9004 9.12098C18.7796 8.90071 18.5188 8.65284 18.022 8.46892C17.4118 8.24306 16.4562 8.27067 15.1043 8.6159C13.7715 8.95628 12.1349 9.58317 10.2156 10.4556C8.27418 11.3381 6.5742 11.9921 5.15621 12.3535C3.75736 12.71 2.5479 12.8049 1.6402 12.4689C0.975148 12.222 0.489137 11.8396 0.222903 11.3563C-0.0467871 10.8667 -0.0620734 10.3244 0.125042 9.83585C0.469065 8.93765 1.45344 8.27596 2.71985 8.19005Z" fill="#212121"/>
</svg>
