<svg width="20" height="20" viewBox="0 0 20 20" fill="none" xmlns="http://www.w3.org/2000/svg">
<path d="M2.75 1.99902C2.33579 1.99902 2 2.33481 2 2.74902C2 3.16324 2.33579 3.49902 2.75 3.49902H10C10.5121 3.49902 11.0104 3.55824 11.4883 3.67021C14.3609 4.34309 16.5 6.9214 16.5 9.99919C16.5 12.315 15.289 14.3479 13.4657 15.4992H15.8095C17.1672 14.0655 18 12.1296 18 9.99919C18 5.58091 14.4183 1.99902 10 1.99902H2.75ZM8.34815 17.8285C4.72243 17.0673 2 13.8512 2 9.99919C2 7.86877 2.83275 5.93285 4.1905 4.49919H6.53431C4.71102 5.6505 3.5 7.68342 3.5 9.99919C3.5 11.468 3.98719 12.823 4.80879 13.9115C4.83593 13.9474 4.86343 13.9831 4.89129 14.0185C6.08163 15.5291 7.92779 16.499 10 16.499H17.25C17.6642 16.499 18 16.8348 18 17.249C18 17.6632 17.6642 17.999 17.25 17.999H10C9.43367 17.999 8.88117 17.9403 8.34815 17.8285ZM10 7C10.4142 7 10.75 7.33579 10.75 7.75V9.25H12.25C12.6642 9.25 13 9.58579 13 10C13 10.4142 12.6642 10.75 12.25 10.75H10.75V12.25C10.75 12.6642 10.4142 13 10 13C9.58579 13 9.25 12.6642 9.25 12.25V10.75H7.75C7.33579 10.75 7 10.4142 7 10C7 9.58579 7.33579 9.25 7.75 9.25H9.25V7.75C9.25 7.33579 9.58579 7 10 7Z" fill="#212121"/>
</svg>
