<svg width="16" height="16" viewBox="0 0 16 16" fill="none" xmlns="http://www.w3.org/2000/svg">
<path d="M8 1.00002C11.866 1.00002 15 4.13426 15 8.00025C15 9.71331 14.3847 11.2834 13.3629 12.5H11.1645C12.5772 11.5045 13.5 9.86053 13.5 8.00098C13.5 5.47259 11.7944 3.34186 9.47069 2.69885C9.00257 2.56926 8.50937 2.50002 8 2.50002L1.75 2.50002C1.33579 2.50002 1 2.16423 1 1.75001C1 1.3358 1.33579 1.00002 1.75 1.00002H8ZM8 15C4.13401 15 1 11.8658 1 7.99977C1 6.28671 1.61535 4.71665 2.63707 3.50002H4.83553C3.42284 4.49549 2.5 6.13949 2.5 7.99904C2.5 10.5274 4.20556 12.6582 6.52931 13.3012C6.99744 13.4308 7.49063 13.5 8 13.5H14.25C14.6642 13.5 15 13.8358 15 14.25C15 14.6642 14.6642 15 14.25 15H8ZM8.75 5.74903C8.75 5.33482 8.41421 4.99903 8 4.99903C7.58579 4.99903 7.25 5.33482 7.25 5.74903V7.24903H5.75C5.33579 7.24903 5 7.58482 5 7.99903C5 8.41324 5.33579 8.74903 5.75 8.74903H7.25V10.249C7.25 10.6632 7.58579 10.999 8 10.999C8.41421 10.999 8.75 10.6632 8.75 10.249V8.74903H10.25C10.6642 8.74903 11 8.41324 11 7.99903C11 7.58482 10.6642 7.24903 10.25 7.24903H8.75V5.74903Z" fill="#212121"/>
</svg>
