<svg width="24" height="24" viewBox="0 0 24 24" fill="none" xmlns="http://www.w3.org/2000/svg">
<path d="M12.5 8.74268L13.6202 11.5H11.3799L12.5 8.74268Z" fill="#212121"/>
<path d="M4 4.5V19.5C4 20.8807 5.11929 22 6.5 22H19.75C20.1642 22 20.5 21.6642 20.5 21.25C20.5 20.8358 20.1642 20.5 19.75 20.5H6.5C5.94772 20.5 5.5 20.0523 5.5 19.5H19.75C20.1642 19.5 20.5 19.1642 20.5 18.75V4.5C20.5 3.11929 19.3807 2 18 2H6.5C5.11929 2 4 3.11929 4 4.5ZM12.5 6C12.8052 6 13.08 6.18495 13.1949 6.46772L16.4449 14.4677C16.6008 14.8515 16.4161 15.2889 16.0323 15.4448C15.6485 15.6007 15.2111 15.416 15.0552 15.0323L14.2296 13H10.7705L9.94486 15.0323C9.78896 15.416 9.35149 15.6007 8.96773 15.4448C8.58398 15.2889 8.39926 14.8515 8.55517 14.4677L11.8052 6.46772C11.92 6.18495 12.1948 6 12.5 6Z" fill="#212121"/>
</svg>
