<svg width="24" height="24" viewBox="0 0 24 24" fill="none" xmlns="http://www.w3.org/2000/svg">
<path d="M20.9337 5.65998C18.974 3.9295 15.9126 3.06695 11.7493 3.07229C7.59203 3.07772 4.62301 3.94555 2.84222 5.67584C2.08792 6.40875 1.8132 7.49463 2.12104 8.52645L2.43031 9.56308C2.71891 10.5304 3.69224 11.1763 4.70741 11.0743L6.74193 10.8697C7.61525 10.7819 8.30481 10.1585 8.45304 9.32285L8.84412 7.11812C9.81232 6.67929 10.8591 6.44342 11.9845 6.41052C13.1099 6.37762 14.1398 6.55277 15.0743 6.93598L15.7056 9.29122C15.9325 10.1376 16.6923 10.771 17.5841 10.8572L19.6305 11.0549C20.6588 11.1543 21.5664 10.502 21.7513 9.53067L21.9487 8.4941C22.1443 7.46628 21.7582 6.38814 20.9337 5.65998ZM11.7498 14.0004C12.164 14.0004 12.4998 14.3362 12.4998 14.7504V16.5004H13.4998C13.914 16.5004 14.2498 16.8362 14.2498 17.2504C14.2498 17.6646 13.914 18.0004 13.4998 18.0004H11.7498C11.3356 18.0004 10.9998 17.6646 10.9998 17.2504V14.7504C10.9998 14.3362 11.3355 14.0004 11.7498 14.0004ZM11.9998 11.0004C8.96219 11.0004 6.49976 13.4628 6.49976 16.5004C6.49976 19.5379 8.96219 22.0004 11.9998 22.0004C15.0373 22.0004 17.4998 19.5379 17.4998 16.5004C17.4998 13.4628 15.0373 11.0004 11.9998 11.0004ZM7.99976 16.5004C7.99976 14.2912 9.79062 12.5004 11.9998 12.5004C14.2089 12.5004 15.9998 14.2912 15.9998 16.5004C15.9998 18.7095 14.2089 20.5004 11.9998 20.5004C9.79062 20.5004 7.99976 18.7095 7.99976 16.5004Z" fill="#212121"/>
</svg>
