<svg width="12" height="12" viewBox="0 0 12 12" fill="none" xmlns="http://www.w3.org/2000/svg">
<path d="M6.95265 3.02344L7.15191 4.07315C7.23131 4.49142 7.54504 4.81621 7.94336 4.89252L8.38651 4.97741C9.07813 5.1099 9.7465 4.64645 9.90457 3.92478L9.95098 3.71291C10.1211 2.9364 9.85148 2.062 9.0966 1.69734C8.39325 1.35757 7.32995 0.995454 5.99807 1.00004C4.6739 1.00461 3.61548 1.3623 2.91268 1.69779C2.15253 2.06066 1.87783 2.93916 2.04901 3.72071L2.09371 3.92479C2.25178 4.64645 2.92015 5.10991 3.61177 4.97742L4.055 4.89252C4.45333 4.81621 4.76706 4.49141 4.84646 4.07315L5.04572 3.02344C5.09739 3.01247 5.15708 3.00047 5.22258 2.98846C5.45102 2.94661 5.73843 2.90691 5.99914 2.90691C6.25986 2.90691 6.54729 2.94661 6.77575 2.98847C6.84127 3.00047 6.90097 3.01247 6.95265 3.02344ZM6 7.5C6 7.22386 5.77614 7 5.5 7C5.22386 7 5 7.22386 5 7.5V8.5C5 8.77614 5.22386 9 5.5 9H6.5C6.77614 9 7 8.77614 7 8.5C7 8.22386 6.77614 8 6.5 8H6V7.5ZM6 5C4.34315 5 3 6.34315 3 8C3 9.65685 4.34315 11 6 11C7.65685 11 9 9.65685 9 8C9 6.34315 7.65685 5 6 5ZM4 8C4 6.89543 4.89543 6 6 6C7.10457 6 8 6.89543 8 8C8 9.10457 7.10457 10 6 10C4.89543 10 4 9.10457 4 8Z" fill="#212121"/>
</svg>
