<svg width="28" height="28" viewBox="0 0 28 28" fill="none" xmlns="http://www.w3.org/2000/svg">
<path d="M13 3V6.25C13 7.76878 14.2312 9 15.75 9H25V18.8328C24.4584 18.618 23.868 18.5 23.25 18.5H17.75C15.1266 18.5 13 20.6266 13 23.25C13 23.868 13.118 24.4584 13.3328 25H6.75C4.67893 25 3 23.3211 3 21.25V6.75C3 4.67893 4.67893 3 6.75 3H13ZM14.5 3V6.25C14.5 6.94036 15.0596 7.5 15.75 7.5H25V6.75C25 4.67893 23.3211 3 21.25 3H14.5ZM17.75 21C16.5074 21 15.5 22.0074 15.5 23.25C15.5 24.4926 16.5074 25.5 17.75 25.5H18.25C18.6642 25.5 19 25.8358 19 26.25C19 26.6642 18.6642 27 18.25 27H17.75C15.6789 27 14 25.3211 14 23.25C14 21.1789 15.6789 19.5 17.75 19.5H18.25C18.6642 19.5 19 19.8358 19 20.25C19 20.6642 18.6642 21 18.25 21H17.75ZM17 23.25C17 22.8358 17.3358 22.5 17.75 22.5H23.25C23.6642 22.5 24 22.8358 24 23.25C24 23.6642 23.6642 24 23.25 24H17.75C17.3358 24 17 23.6642 17 23.25ZM23.25 25.5C24.4926 25.5 25.5 24.4926 25.5 23.25C25.5 22.0074 24.4926 21 23.25 21H22.75C22.3358 21 22 20.6642 22 20.25C22 19.8358 22.3358 19.5 22.75 19.5H23.25C25.3211 19.5 27 21.1789 27 23.25C27 25.3211 25.3211 27 23.25 27H22.75C22.3358 27 22 26.6642 22 26.25C22 25.8358 22.3358 25.5 22.75 25.5H23.25Z" fill="#242424"/>
</svg>
