<svg width="20" height="20" viewBox="0 0 20 20" fill="none" xmlns="http://www.w3.org/2000/svg">
<path d="M15.69 7.00053L13.4341 4.7448C13.1412 4.4519 13.1412 3.97703 13.4341 3.68414C13.7004 3.41787 14.1171 3.39366 14.4107 3.61152L14.4948 3.68414L18.0303 7.21967L18.0989 7.29847L18.1394 7.35784L18.1885 7.4521L18.2213 7.5439L18.2372 7.61172L18.2461 7.6736L18.2498 7.76721L18.2461 7.8264L18.2305 7.92035L18.2001 8.01963L18.1536 8.11817L18.1188 8.17387C18.0932 8.21126 18.0637 8.24697 18.0303 8.28033L14.4948 11.8159C14.2019 12.1088 13.727 12.1088 13.4341 11.8159C13.1679 11.5496 13.1437 11.1329 13.3615 10.8393L13.4341 10.7552L15.69 8.50053L12 8.5C8.34852 8.5 5.86748 6.42336 5.75406 3.46294L5.75 3.25C5.75 2.83579 6.08579 2.5 6.5 2.5C6.91421 2.5 7.25 2.83579 7.25 3.25C7.25 5.37886 8.94201 6.90788 11.7424 6.99598L12 7L15.69 7.00053ZM4 9.99951C4 8.89494 4.89543 7.99951 6 7.99951C7.10457 7.99951 8 8.89494 8 9.99951C8 11.1041 7.10457 11.9995 6 11.9995C4.89543 11.9995 4 11.1041 4 9.99951ZM3.49998 12.9995L8.5 12.9995C9.32843 12.9995 10 13.6711 10 14.4995C10 15.6156 9.54103 16.5098 8.78785 17.1143C8.04658 17.7093 7.05308 17.9995 6 17.9995C4.94692 17.9995 3.95342 17.7093 3.21215 17.1143C2.45897 16.5098 2 15.6156 2 14.4995C2 13.6711 2.67156 12.9995 3.49998 12.9995Z" fill="#212121"/>
</svg>
