<svg width="32" height="32" viewBox="0 0 32 32" fill="none" xmlns="http://www.w3.org/2000/svg">
<path d="M8.25 2C6.45507 2 5 3.45508 5 5.25V11.2491C3.82552 11.7389 3 12.898 3 14.25V25.5C3 27.9853 5.01472 30 7.5 30H24.5C26.9853 30 29 27.9853 29 25.5V22.25C29 20.898 28.1745 19.7389 27 19.2491V8.75C27 7.39803 26.1745 6.23886 25 5.74908V19H23.5V5.25C23.5 3.45507 22.0449 2 20.25 2H8.25ZM21.5 19H20.932C20.6005 19 20.2825 18.8683 20.0481 18.6339L13.3661 11.9519C12.7566 11.3424 11.93 11 11.068 11H7V5.25C7 4.55964 7.55964 4 8.25 4H20.25C20.9404 4 21.5 4.55964 21.5 5.25V19ZM5 14.25C5 13.5596 5.55964 13 6.25 13H11.068C11.3995 13 11.7175 13.1317 11.9519 13.3661L18.6339 20.0481C19.2434 20.6576 20.07 21 20.932 21H25.75C26.4404 21 27 21.5596 27 22.25V25.5C27 26.8807 25.8807 28 24.5 28H7.5C6.11929 28 5 26.8807 5 25.5V14.25Z" fill="#212121"/>
</svg>
