<svg width="21" height="20" viewBox="0 0 21 20" fill="none" xmlns="http://www.w3.org/2000/svg">
<path d="M5.91602 2C5.08759 2 4.41602 2.67157 4.41602 3.5V16.5C4.41602 17.3284 5.08759 18 5.91602 18H10.6732C10.4195 17.6929 10.1986 17.3578 10.0157 17H5.91602C5.63987 17 5.41602 16.7761 5.41602 16.5V3.5C5.41602 3.22386 5.63987 3 5.91602 3H12.916C13.1922 3 13.416 3.22386 13.416 3.5V9.20703C13.7383 9.11588 14.0726 9.05337 14.416 9.02242V3.5C14.416 2.67157 13.7444 2 12.916 2H5.91602ZM9.41602 14.5C9.41602 14.3315 9.4236 14.1647 9.43844 14H7.91602C7.63987 14 7.41602 14.2239 7.41602 14.5C7.41602 14.7761 7.63987 15 7.91602 15H9.43844C9.4236 14.8353 9.41602 14.6685 9.41602 14.5ZM14.916 19C17.4013 19 19.416 16.9853 19.416 14.5C19.416 12.0147 17.4013 10 14.916 10C12.4307 10 10.416 12.0147 10.416 14.5C10.416 16.9853 12.4307 19 14.916 19ZM17.2696 13.3536L14.2696 16.3536C14.0743 16.5488 13.7577 16.5488 13.5625 16.3536L12.5625 15.3536C12.3672 15.1583 12.3672 14.8417 12.5625 14.6464C12.7577 14.4512 13.0743 14.4512 13.2696 14.6464L13.916 15.2929L16.5625 12.6464C16.7577 12.4512 17.0743 12.4512 17.2696 12.6464C17.4648 12.8417 17.4648 13.1583 17.2696 13.3536Z" fill="#212121"/>
</svg>
