<svg width="20" height="20" viewBox="0 0 20 20" fill="none" xmlns="http://www.w3.org/2000/svg">
<path d="M5.5 3H12V7H3V5.5C3 4.11929 4.11929 3 5.5 3ZM8 8H17V9.59971C16.2499 9.21628 15.4002 9 14.5 9C12.3627 9 10.5101 10.2192 9.59971 12H8V8ZM9 14.5C9 13.98 9.07217 13.4768 9.20703 13H3V14.5C3 15.8807 4.11929 17 5.5 17H9.59971C9.21628 16.2499 9 15.4002 9 14.5ZM7 12V8H3V12H7ZM13 7H17V5.5C17 4.11929 15.8807 3 14.5 3H13V7ZM12.0667 11.442C12.37 12.5231 11.724 13.642 10.636 13.9199L10.175 14.0377C10.16 14.1896 10.1523 14.3438 10.1523 14.4999C10.1523 14.6875 10.1634 14.8725 10.185 15.0541L10.5346 15.1368C11.654 15.4014 12.32 16.5536 11.9906 17.6557L11.8643 18.0785C12.1215 18.2817 12.4012 18.4559 12.699 18.5964L13.0239 18.2523C13.8138 17.416 15.1445 17.4167 15.9335 18.2538L16.2708 18.6118C16.5632 18.4769 16.8386 18.3095 17.0927 18.1142L16.9365 17.5575C16.6332 16.4764 17.2792 15.3575 18.3672 15.0795L18.8277 14.9619C18.8427 14.81 18.8504 14.6559 18.8504 14.4999C18.8504 14.3121 18.8393 14.127 18.8177 13.9452L18.4687 13.8627C17.3492 13.598 16.6832 12.4459 17.0126 11.3438L17.1388 10.9215C16.8815 10.7182 16.6018 10.5439 16.304 10.4034L15.9793 10.7472C15.1895 11.5835 13.8587 11.5828 13.0698 10.7457L12.7324 10.3877C12.44 10.5226 12.1646 10.6899 11.9105 10.8852L12.0667 11.442ZM14.5014 15.4999C13.9491 15.4999 13.5014 15.0521 13.5014 14.4999C13.5014 13.9476 13.9491 13.4999 14.5014 13.4999C15.0536 13.4999 15.5014 13.9476 15.5014 14.4999C15.5014 15.0521 15.0536 15.4999 14.5014 15.4999Z" fill="#212121"/>
</svg>
