<svg width="20" height="20" viewBox="0 0 20 20" fill="none" xmlns="http://www.w3.org/2000/svg">
<path d="M10.9874 5.23842C10.9049 5.36417 10.8225 5.48605 10.7425 5.60187C10.3777 6.1298 9.62228 6.1298 9.25749 5.60187C9.2486 5.589 9.23968 5.57605 9.23073 5.56304C9.15393 5.45131 9.07521 5.33429 8.99651 5.21388C8.49768 4.45059 8 3.551 8 3C8 1.89543 8.89543 1 10 1C11.1046 1 12 1.89543 12 3C12 3.551 11.5023 4.45059 11.0035 5.21388C10.9981 5.22207 10.9928 5.23026 10.9874 5.23842ZM11 3C11 2.44772 10.5523 2 10 2C9.44772 2 9 2.44772 9 3C9 3.55228 9.44772 4 10 4C10.5523 4 11 3.55228 11 3ZM8.43478 6.17033C8.35228 6.05093 8.26629 5.92381 8.17929 5.79129L2.82425 11.4323C2.29504 11.9898 2 12.7291 2 13.4978V15.0001C2 16.1047 2.89543 17.0001 4 17.0001H16C17.1046 17.0001 18 16.1047 18 15.0001V13.4978C18 12.7291 17.705 11.9898 17.1758 11.4323L11.8207 5.79129C11.7337 5.92381 11.6477 6.05093 11.5652 6.17033C11.4555 6.32909 11.3284 6.465 11.1888 6.57807L13.457 8.96745C12.1917 9.04338 11.1591 9.51087 10.2613 9.91735C10.0185 10.0272 9.78565 10.1327 9.56068 10.2247C8.90023 10.4949 8.29736 10.665 7.645 10.6184C7.08846 10.5787 6.45259 10.3775 5.68485 9.8714L8.81123 6.57807C8.67164 6.465 8.54448 6.32908 8.43478 6.17033ZM4.98687 10.6067C5.92651 11.2556 6.77036 11.5585 7.57375 11.6159C8.45264 11.6787 9.22477 11.4426 9.93932 11.1503C10.2162 11.037 10.4838 10.9171 10.7481 10.7986C11.879 10.2917 12.9502 9.81155 14.4329 9.99548L16.4505 12.1208C16.8033 12.4924 17 12.9853 17 13.4978V15.0001C17 15.5524 16.5523 16.0001 16 16.0001H4C3.44772 16.0001 3 15.5524 3 15.0001V13.4978C3 12.9853 3.19669 12.4924 3.5495 12.1208L4.98687 10.6067Z" fill="#212121"/>
</svg>
