<svg width="48" height="48" viewBox="0 0 48 48" fill="none" xmlns="http://www.w3.org/2000/svg">
<path d="M11.5002 19V27.75C11.5002 27.9238 11.4639 28.0956 11.3938 28.2546L8.63803 34.5H39.3624L36.6066 28.2546C36.5364 28.0956 36.5002 27.9238 36.5002 27.75V19C36.5002 12.0964 30.9037 6.5 24.0002 6.5C17.0966 6.5 11.5002 12.0964 11.5002 19ZM18.0002 37H8.25446C6.62882 37 5.5397 35.329 6.19595 33.8417L9.00017 27.4865V19C9.00017 10.7157 15.7159 4 24.0002 4C32.2844 4 39.0002 10.7157 39.0002 19V27.4865L41.8044 33.8417C42.4607 35.329 41.3716 37 39.7459 37H30.0002V38C30.0002 41.3137 27.3139 44 24.0002 44C20.6865 44 18.0002 41.3137 18.0002 38V37ZM27.5002 37H20.5002V38C20.5002 39.933 22.0672 41.5 24.0002 41.5C25.9332 41.5 27.5002 39.933 27.5002 38V37Z" fill="#212121"/>
</svg>
