<svg width="20" height="20" viewBox="0 0 20 20" fill="none" xmlns="http://www.w3.org/2000/svg">
<path d="M5.49609 3C4.11538 3 2.99609 4.11929 2.99609 5.5V14.5C2.99609 15.8807 4.11538 17 5.49609 17H9.03544C9.01209 16.8367 9 16.6698 9 16.5C9 14.567 10.567 13 12.5 13H16.5C16.6684 13 16.834 13.0119 16.9961 13.0349V7H9.49609C8.66767 7 7.99609 6.32843 7.99609 5.5V3H5.49609ZM8.99609 3V5.5C8.99609 5.77614 9.21995 6 9.49609 6H16.9961V5.5C16.9961 4.11929 15.8768 3 14.4961 3H8.99609ZM12.5 14C11.1193 14 10 15.1193 10 16.5C10 17.8807 11.1193 19 12.5 19H13C13.2761 19 13.5 18.7761 13.5 18.5C13.5 18.2239 13.2761 18 13 18H12.5C11.6716 18 11 17.3284 11 16.5C11 15.6716 11.6716 15 12.5 15H13C13.2761 15 13.5 14.7761 13.5 14.5C13.5 14.2239 13.2761 14 13 14H12.5ZM16 14C15.7239 14 15.5 14.2239 15.5 14.5C15.5 14.7761 15.7239 15 16 15H16.5C17.3284 15 18 15.6716 18 16.5C18 17.3284 17.3284 18 16.5 18H16C15.7239 18 15.5 18.2239 15.5 18.5C15.5 18.7761 15.7239 19 16 19H16.5C17.8807 19 19 17.8807 19 16.5C19 15.1193 17.8807 14 16.5 14H16ZM12 16.5C12 16.2239 12.2239 16 12.5 16H16.5C16.7761 16 17 16.2239 17 16.5C17 16.7761 16.7761 17 16.5 17H12.5C12.2239 17 12 16.7761 12 16.5Z" fill="#212121"/>
</svg>
