<svg width="16" height="16" viewBox="0 0 16 16" fill="none" xmlns="http://www.w3.org/2000/svg">
<path d="M12.5 3C13.8807 3 15 4.11929 15 5.5V10.5C15 11.8807 13.8807 13 12.5 13H3.5C2.11929 13 1 11.8807 1 10.5V5.5C1 4.11929 2.11929 3 3.5 3H12.5ZM6.97363 5.80273C6.72664 5.67924 6.42623 5.77938 6.30273 6.02637L5 8.63184L3.69727 6.02637C3.57377 5.77938 3.27336 5.67924 3.02637 5.80273C2.77938 5.92623 2.67924 6.22664 2.80273 6.47363L4.55273 9.97363C4.63743 10.143 4.81061 10.25 5 10.25C5.18939 10.25 5.36257 10.143 5.44727 9.97363L7.19727 6.47363C7.32076 6.22664 7.22062 5.92623 6.97363 5.80273ZM8.5 5.75C8.22386 5.75 8 5.97386 8 6.25V9.75C8 10.0261 8.22386 10.25 8.5 10.25C8.77614 10.25 9 10.0261 9 9.75V6.25C9 5.97386 8.77614 5.75 8.5 5.75ZM10.5 5.75C10.2239 5.75 10 5.97386 10 6.25V9.75C10 10.0261 10.2239 10.25 10.5 10.25C10.7761 10.25 11 10.0261 11 9.75V9H11.625C12.5225 9 13.25 8.27246 13.25 7.375C13.25 6.47754 12.5225 5.75 11.625 5.75H10.5ZM11.625 6.75C11.9702 6.75 12.25 7.02982 12.25 7.375C12.25 7.72018 11.9702 8 11.625 8H11V6.75H11.625Z" fill="#212121"/>
</svg>
