<svg width="16" height="16" viewBox="0 0 16 16" fill="none" xmlns="http://www.w3.org/2000/svg">
<path d="M1.17683 1.1185C1.32953 0.989145 1.54464 0.963297 1.72363 1.05279L11.788 6.08499C11.3683 6.18716 10.9831 6.37764 10.6532 6.63563L2.32155 2.46979L3.8693 7.5H9.50001C9.62755 7.5 9.74393 7.54775 9.83226 7.62635C9.69324 7.89579 9.59384 8.189 9.54177 8.49828C9.528 8.49942 9.51407 8.5 9.50001 8.5H3.8693L2.32155 13.5302L9.62992 9.87603C9.72896 10.2009 9.88165 10.5024 10.0777 10.7702L1.72363 14.9472C1.54464 15.0367 1.32953 15.0109 1.17683 14.8815C1.02414 14.7522 0.96328 14.5442 1.02213 14.353L2.97688 8L1.02213 1.64705C0.96328 1.45578 1.02414 1.24785 1.17683 1.1185ZM14.5 9C14.5 10.1046 13.6046 11 12.5 11C11.3954 11 10.5 10.1046 10.5 9C10.5 7.89543 11.3954 7 12.5 7C13.6046 7 14.5 7.89543 14.5 9ZM16 13.5C16 14.7452 15 16 12.5 16C10 16 9 14.7499 9 13.5C9 12.6716 9.67157 12 10.5 12H14.5C15.3284 12 16 12.6716 16 13.5Z" fill="#212121"/>
</svg>
