<svg width="28" height="28" viewBox="0 0 28 28" fill="none" xmlns="http://www.w3.org/2000/svg">
<path d="M5 9.5C5 7.01472 7.01472 5 9.5 5C11.9853 5 14 7.01472 14 9.5C14 11.9853 11.9853 14 9.5 14C7.01472 14 5 11.9853 5 9.5ZM9.5 6.5C7.84315 6.5 6.5 7.84315 6.5 9.5C6.5 11.1569 7.84315 12.5 9.5 12.5C11.1569 12.5 12.5 11.1569 12.5 9.5C12.5 7.84315 11.1569 6.5 9.5 6.5ZM16.5 10.5C16.5 8.567 18.067 7 20 7C21.933 7 23.5 8.567 23.5 10.5C23.5 12.433 21.933 14 20 14C18.067 14 16.5 12.433 16.5 10.5ZM20 8.5C18.8954 8.5 18 9.39543 18 10.5C18 11.6046 18.8954 12.5 20 12.5C21.1046 12.5 22 11.6046 22 10.5C22 9.39543 21.1046 8.5 20 8.5ZM2 18.25C2 17.0074 3.00736 16 4.25 16H14.75C14.9861 16 15.2137 16.0364 15.4276 16.1038C15.1612 16.4109 15 16.8116 15 17.25C15 17.3531 15.0089 17.4542 15.026 17.5524C14.9406 17.5186 14.8475 17.5 14.75 17.5H4.25C3.83579 17.5 3.5 17.8358 3.5 18.25V18.7453L3.50071 18.7631C3.5017 18.7828 3.50393 18.8169 3.50892 18.8635C3.51891 18.9567 3.53978 19.098 3.58308 19.2712C3.66987 19.6184 3.84425 20.084 4.19375 20.55C4.86678 21.4474 6.30799 22.5 9.5 22.5C12.692 22.5 14.1332 21.4474 14.8063 20.55C14.878 20.4544 14.9423 20.3587 15.0001 20.2642C15.0049 20.8717 15.3192 21.4054 15.7932 21.7155C15.7271 21.7925 15.6579 21.8687 15.5852 21.9439C15.5363 21.9876 15.4898 22.034 15.446 22.0829C14.3316 23.155 12.4889 24 9.5 24C5.94201 24 4.00822 22.8026 2.99375 21.45C2.4995 20.791 2.252 20.1316 2.12786 19.635C2.06569 19.3863 2.03382 19.1761 2.01745 19.0233C2.00925 18.9467 2.00489 18.8842 2.00258 18.838C2.00143 18.8149 2.00078 18.7958 2.00043 18.781L2.00008 18.7622L2.00002 18.7552L2 18.7524L2 18.7512V18.25ZM16.75 16.5C16.3358 16.5 16 16.8358 16 17.25C16 17.6642 16.3358 18 16.75 18H25.25C25.6642 18 26 17.6642 26 17.25C26 16.8358 25.6642 16.5 25.25 16.5H16.75ZM16.75 19.5C16.3358 19.5 16 19.8358 16 20.25C16 20.6642 16.3358 21 16.75 21H25.25C25.6642 21 26 20.6642 26 20.25C26 19.8358 25.6642 19.5 25.25 19.5H16.75ZM16.75 22.5C16.3358 22.5 16 22.8358 16 23.25C16 23.6642 16.3358 24 16.75 24H25.25C25.6642 24 26 23.6642 26 23.25C26 22.8358 25.6642 22.5 25.25 22.5H16.75Z" fill="#212121"/>
</svg>
