<svg width="20" height="20" viewBox="0 0 20 20" fill="none" xmlns="http://www.w3.org/2000/svg">
<path d="M17.8536 2.85355C18.0488 2.65829 18.0488 2.34171 17.8536 2.14645C17.6583 1.95118 17.3417 1.95118 17.1464 2.14645L14.4781 4.81475C12.8949 3.57957 10.6024 3.69014 9.14607 5.14646L8.84607 5.44646C8.26421 6.02832 8.26421 6.97171 8.84607 7.55357L11.3109 10.0184C11.591 9.81875 11.8906 9.64468 12.2063 9.49962L9.55318 6.84646C9.36184 6.65513 9.36184 6.34491 9.55318 6.15357L9.85318 5.85357C11.0386 4.66812 12.9606 4.66812 14.1461 5.85357C15.0001 6.70762 15.2389 7.94395 14.8623 9.01175C15.2053 9.03405 15.5397 9.08779 15.8626 9.17011C16.2329 7.94368 16.0071 6.57575 15.1852 5.52191L17.8536 2.85355ZM7.55393 8.84643L10.0184 11.3109C9.81875 11.591 9.64468 11.8906 9.49962 12.2063L6.84682 9.55354C6.65549 9.3622 6.34527 9.3622 6.15393 9.55354L5.85393 9.85354C4.66848 11.039 4.66848 12.961 5.85393 14.1464C6.70789 15.0004 7.94406 15.2392 9.01178 14.8628C9.03411 15.2058 9.08788 15.5401 9.17022 15.8631C7.9437 16.2333 6.57569 16.0074 5.52186 15.1852L2.85355 17.8536C2.65829 18.0488 2.34171 18.0488 2.14645 17.8536C1.95118 17.6583 1.95118 17.3417 2.14645 17.1464L4.8148 14.4781C3.57995 12.8948 3.69063 10.6026 5.14683 9.14643L5.44682 8.84643C6.02869 8.26457 6.97207 8.26457 7.55393 8.84643ZM19 14.5C19 16.9853 16.9853 19 14.5 19C12.0147 19 10 16.9853 10 14.5C10 12.0147 12.0147 10 14.5 10C16.9853 10 19 12.0147 19 14.5ZM16.8536 12.6464C16.6583 12.4512 16.3417 12.4512 16.1464 12.6464L13.5 15.2929L12.8536 14.6464C12.6583 14.4512 12.3417 14.4512 12.1464 14.6464C11.9512 14.8417 11.9512 15.1583 12.1464 15.3536L13.1464 16.3536C13.3417 16.5488 13.6583 16.5488 13.8536 16.3536L16.8536 13.3536C17.0488 13.1583 17.0488 12.8417 16.8536 12.6464Z" fill="#212121"/>
</svg>
