<svg width="32" height="32" viewBox="0 0 32 32" fill="none" xmlns="http://www.w3.org/2000/svg">
<path d="M25.5001 4H6.50009C4.01481 4 2.00009 6.01472 2.00009 8.5V9.49001C1.99997 9.49638 1.99997 9.50273 2.00009 9.50908V21.5C2.00009 23.9853 4.01481 26 6.50009 26H15.469C15.5921 25.6448 15.7625 25.3084 15.9753 25H6.50009C4.56709 25 3.00009 23.433 3.00009 21.5V10.3498L15.7573 17.4371C15.9083 17.521 16.0919 17.521 16.2429 17.4371L29.0001 10.3498V14.5863C29.343 14.6562 29.679 14.7675 30.0001 14.9199V9.50909C30.0002 9.50274 30.0002 9.49637 30.0001 9.49V8.5C30.0001 6.01472 27.9854 4 25.5001 4ZM29.0001 8.5V9.2058L16.0001 16.428L3.00009 9.2058V8.5C3.00009 6.567 4.56709 5 6.50009 5H25.5001C27.4331 5 29.0001 6.567 29.0001 8.5ZM30.1443 20.9239L21.5347 29.467C21.1831 29.8159 20.745 30.0649 20.2654 30.1884L17.2459 30.966C16.5084 31.1559 15.8381 30.4842 16.029 29.7467L16.8193 26.6953C16.9372 26.2398 17.1739 25.8238 17.5051 25.4897L26.0718 16.8497C27.2203 15.6914 29.1001 15.7173 30.2161 16.9069C31.2834 18.0445 31.2515 19.8253 30.1443 20.9239Z" fill="#212121"/>
</svg>
