<svg width="20" height="20" viewBox="0 0 20 20" fill="none" xmlns="http://www.w3.org/2000/svg">
<path d="M6 13.5C6 13.2239 6.22386 13 6.5 13H7.5C7.77614 13 8 13.2239 8 13.5C8 13.7761 7.77614 14 7.5 14H6.5C6.22386 14 6 13.7761 6 13.5ZM12.5 13C12.2239 13 12 13.2239 12 13.5C12 13.7761 12.2239 14 12.5 14H13.5C13.7761 14 14 13.7761 14 13.5C14 13.2239 13.7761 13 13.5 13H12.5ZM4 4H16C17.1046 4 18 4.89543 18 6V14C18 15.1046 17.1046 16 16 16H4C2.89543 16 2 15.1046 2 14V6C2 4.89543 2.89543 4 4 4ZM9.5 5H4C3.44772 5 3 5.44772 3 6V14C3 14.5523 3.44772 15 4 15H9.5V5ZM10.5 15H16C16.5523 15 17 14.5523 17 14V6C17 5.44772 16.5523 5 16 5H10.5V15Z" fill="#212121"/>
</svg>
