<svg width="48" height="48" viewBox="0 0 48 48" fill="none" xmlns="http://www.w3.org/2000/svg">
<path d="M16.5358 5.45102C31.1164 -0.384105 45.5335 11.7578 44.1189 25.7347C43.3892 25.0165 42.5751 24.3838 41.6928 23.8529C41.6886 12.3722 29.7098 2.8716 17.4647 7.77205C6.98817 11.9647 3.9394 24.4652 8.87032 32.6314L9.16123 33.1132L8.99336 33.6503C8.46122 35.3532 7.45649 38.8841 6.80827 41.1834L14.922 38.8652L15.3554 39.0801C18.2534 40.5167 21.0341 41.1987 23.6265 41.3013C24.1268 42.2023 24.7311 43.0377 25.4231 43.7912C22.1005 43.9782 18.4757 43.3296 14.6846 41.5331L6.20039 43.9572C4.88396 44.3333 3.66741 43.1217 4.03682 41.8041C4.54321 39.9981 5.74306 35.7403 6.44459 33.4328C1.18328 24.0445 4.73099 10.1753 16.5358 5.45102ZM46 35C46 41.0751 41.0751 46 35 46C28.9249 46 24 41.0751 24 35C24 28.9249 28.9249 24 35 24C41.0751 24 46 28.9249 46 35ZM36 28C36 27.4477 35.5523 27 35 27C34.4477 27 34 27.4477 34 28V34H28C27.4477 34 27 34.4477 27 35C27 35.5523 27.4477 36 28 36H34V42C34 42.5523 34.4477 43 35 43C35.5523 43 36 42.5523 36 42V36H42C42.5523 36 43 35.5523 43 35C43 34.4477 42.5523 34 42 34H36V28Z" fill="#212121"/>
</svg>
