<svg width="20" height="20" viewBox="0 0 20 20" fill="none" xmlns="http://www.w3.org/2000/svg">
<path d="M9.07152 16.5895C9.1991 16.6405 9.32983 16.6806 9.46236 16.7098C9.62783 17.0863 9.83428 17.4407 10.0761 17.7674C9.60946 17.7776 9.14132 17.6944 8.70013 17.5179L2.94291 15.2151C2.37343 14.9873 2 14.4357 2 13.8223V6.1764C2 5.56305 2.37343 5.01148 2.94291 4.78369L8.70013 2.4808C9.53457 2.14702 10.4654 2.14702 11.2999 2.4808L17.0571 4.78369C17.6266 5.01148 18 5.56305 18 6.1764V10.2562C17.6929 10.0026 17.3578 9.78163 17 9.59873V6.1764C17 5.97195 16.8755 5.7881 16.6857 5.71216L10.9285 3.40928C10.3324 3.17087 9.66755 3.17087 9.07152 3.40928L3.31431 5.71216C3.12448 5.7881 3 5.97195 3 6.1764V13.8223C3 14.0268 3.12448 14.2106 3.3143 14.2866L9.07152 16.5895ZM5.70295 6.04249C5.45061 5.93033 5.15513 6.04398 5.04298 6.29632C4.93082 6.54866 5.04447 6.84414 5.29681 6.9563L9.49975 8.82433V12.2051C9.75159 11.657 10.0909 11.1575 10.4998 10.7243V8.82433L14.7029 6.9563C14.9553 6.84415 15.0689 6.54867 14.9568 6.29633C14.8446 6.04398 14.5492 5.93034 14.2968 6.04248L9.99976 7.95223L5.70295 6.04249ZM17.0001 18.2406C16.26 18.7351 15.39 18.999 14.5 18.999C13.3065 18.999 12.1619 18.5249 11.318 17.681C10.4741 16.8371 10 15.6925 10 14.499C10 13.609 10.2639 12.739 10.7584 11.999C11.2529 11.2589 11.9557 10.6822 12.7779 10.3416C13.6002 10.001 14.505 9.91186 15.3779 10.0855C16.2508 10.2591 17.0526 10.6877 17.682 11.317C18.3113 11.9464 18.7399 12.7482 18.9135 13.6211C19.0872 14.494 18.9981 15.3988 18.6575 16.2211C18.3169 17.0434 17.7401 17.7462 17.0001 18.2406ZM14.8536 12.1455C14.7598 12.0517 14.6326 11.999 14.5 11.999C14.3674 11.999 14.2402 12.0517 14.1464 12.1455C14.0527 12.2392 14 12.3664 14 12.499V13.999H12.5C12.3674 13.999 12.2402 14.0517 12.1464 14.1455C12.0527 14.2392 12 14.3664 12 14.499C12 14.6316 12.0527 14.7588 12.1464 14.8526C12.2402 14.9463 12.3674 14.999 12.5 14.999H14V16.499C14 16.6316 14.0527 16.7588 14.1464 16.8526C14.2402 16.9463 14.3674 16.999 14.5 16.999C14.6326 16.999 14.7598 16.9463 14.8536 16.8526C14.9473 16.7588 15 16.6316 15 16.499V14.999H16.5C16.6326 14.999 16.7598 14.9463 16.8536 14.8526C16.9473 14.7588 17 14.6316 17 14.499C17 14.3664 16.9473 14.2392 16.8536 14.1455C16.7598 14.0517 16.6326 13.999 16.5 13.999H15V12.499C15 12.3664 14.9473 12.2392 14.8536 12.1455Z" fill="#212121"/>
</svg>
