<svg width="20" height="20" viewBox="0 0 20 20" fill="none" xmlns="http://www.w3.org/2000/svg">
<path d="M6 2C4.89543 2 4 2.89543 4 4V16C4 17.1046 4.89543 18 6 18H7.08535C7.03008 17.8436 7 17.6753 7 17.5V15.5003C6.47366 15.4998 5.96319 15.2218 5.68916 14.7292C5.28645 14.0052 5.54687 13.0919 6.27082 12.6892C6.54106 12.5388 6.77029 12.2335 6.93096 11.9013C7.39773 10.9363 8.38673 10.9785 8.68736 11.0359C8.91421 11.0792 9.1951 11.1827 9.45055 11.4027C9.59444 11.5267 9.73909 11.6987 9.84384 11.9141C10.3893 11.3504 11.1537 11 12 11C13.0435 11 13.9625 11.5328 14.5 12.3411C14.8569 11.8044 15.382 11.3892 16 11.1707V4C16 2.89543 15.1046 2 14 2H6ZM9 12.597C9 12.3982 8.90054 12.2488 8.79788 12.1604C8.70118 12.0771 8.59186 12.0357 8.49971 12.0181C8.36644 11.9927 8.00032 11.9871 7.83118 12.3368C7.63132 12.75 7.287 13.2682 6.75694 13.5631C6.51562 13.6973 6.42882 14.0017 6.56305 14.2431C6.69729 14.4844 7.00174 14.5712 7.24306 14.4369C7.54018 14.2717 7.79054 14.0651 8 13.8454V17.5C8 17.7761 8.22386 18 8.5 18C8.77614 18 9 17.7761 9 17.5V12.597ZM10 14C10 12.8954 10.8954 12 12 12C13.1046 12 14 12.8954 14 14V16C14 17.1046 13.1046 18 12 18C10.8954 18 10 17.1046 10 16V14ZM12 13C11.4477 13 11 13.4477 11 14V16C11 16.5523 11.4477 17 12 17C12.5523 17 13 16.5523 13 16V14C13 13.4477 12.5523 13 12 13ZM17 12C15.8954 12 15 12.8954 15 14V16C15 17.1046 15.8954 18 17 18C18.1046 18 19 17.1046 19 16V14C19 12.8954 18.1046 12 17 12ZM16 14C16 13.4477 16.4477 13 17 13C17.5523 13 18 13.4477 18 14V16C18 16.5523 17.5523 17 17 17C16.4477 17 16 16.5523 16 16V14Z" fill="#212121"/>
</svg>
