<svg width="32" height="32" viewBox="0 0 32 32" fill="none" xmlns="http://www.w3.org/2000/svg">
<path d="M7.5 3C5.01472 3 3 5.01472 3 7.5V8.5V23.5V24.5C3 26.9853 5.01472 29 7.5 29H16H24.5C26.9853 29 29 26.9853 29 24.5V23.5V8.5V7.5C29 5.01472 26.9853 3 24.5 3H16H7.5ZM16.5 28V24H28V24.5C28 26.433 26.433 28 24.5 28H16.5ZM15.5 24V28H7.5C5.567 28 4 26.433 4 24.5V24H15.5ZM16 23H4V9L15.9993 9L16 9L16.0007 9L28 9V23L16 23ZM15.5 4V8L4 8V7.5C4 5.567 5.567 4 7.5 4H15.5ZM16.5 8V4H24.5C26.433 4 28 5.567 28 7.5V8L16.5 8ZM16 10C16.2761 10 16.5 10.2239 16.5 10.5V21.5C16.5 21.7761 16.2761 22 16 22C15.7239 22 15.5 21.7761 15.5 21.5V10.5C15.5 10.2239 15.7239 10 16 10Z" fill="#212121"/>
</svg>
