<svg width="16" height="16" viewBox="0 0 16 16" fill="none" xmlns="http://www.w3.org/2000/svg">
<path d="M8 0.999976C11.8659 0.999976 14.9999 4.13408 15 7.99998C15 11.866 11.866 15 8 15C4.13401 15 1 11.866 1 7.99998C1.00007 5.73853 2.07311 3.72861 3.7373 2.44919C4.06059 2.20068 4.49985 2.44871 4.5 2.85642C4.5 3.02675 4.41683 3.18538 4.2832 3.29099C2.89282 4.38971 2.00007 6.09031 2 7.99998C2 11.3137 4.68629 14 8 14C11.3137 14 14 11.3137 14 7.99998C13.9999 4.8548 11.5796 2.2766 8.5 2.02244V3.49998C8.5 3.77612 8.27614 3.99998 8 3.99998C7.72386 3.99998 7.5 3.77612 7.5 3.49998V1.4824C7.50017 1.22162 7.70208 1.00175 7.96289 0.999976C7.97525 0.999892 7.98762 0.999976 8 0.999976ZM4.33691 5.20017C4.06825 4.66124 4.66223 4.06634 5.20117 4.33494L5.31543 4.40623L7.55664 6.10349C7.92731 6.38684 8.2667 6.64914 8.52734 6.85349C8.7722 7.04547 8.98306 7.21448 9.0625 7.29392C9.55014 7.78212 9.55048 8.57352 9.0625 9.0615C8.57451 9.54941 7.78309 9.54911 7.29492 9.0615C7.21548 8.98206 7.04647 8.7712 6.85449 8.52634C6.65014 8.2657 6.38785 7.92632 6.10449 7.55564C5.53717 6.81347 4.87868 5.94036 4.40723 5.31443L4.33691 5.20017Z" fill="#212121"/>
</svg>
