<svg width="48" height="48" viewBox="0 0 48 48" fill="none" xmlns="http://www.w3.org/2000/svg">
<path d="M25.3281 4.04395C35.7551 4.72826 43.9999 13.4007 44 24C43.9999 35.0456 35.0456 44 24 44C12.9544 44 4.00011 35.0456 4 24C4.00007 18.2091 6.4629 12.9914 10.3945 9.34082C10.9004 8.87112 11.6914 8.90043 12.1611 9.40625C12.6308 9.91216 12.6016 10.7032 12.0957 11.1729C8.65215 14.3702 6.50007 18.9329 6.5 24C6.50011 33.6649 14.3351 41.5 24 41.5C33.6649 41.5 41.4999 33.6649 41.5 24C41.4999 14.7265 34.2854 7.13672 25.1641 6.53809C24.4755 6.49263 23.9539 5.89761 23.999 5.20898C24.0443 4.52023 24.6394 3.99881 25.3281 4.04395ZM13.7764 16.1172C13.0043 14.6283 14.6302 13.0031 16.1191 13.7754L16.2676 13.8613C19.6399 16.0098 23.0356 18.1324 26.3203 20.4141C27.1624 20.999 27.9061 21.5411 28.2432 21.8779C30.0005 23.6353 30.0005 26.4838 28.2432 28.2412C26.4858 29.9986 23.6372 29.9986 21.8799 28.2412C21.543 27.9041 21.001 27.1605 20.416 26.3184C18.5643 23.6526 15.5223 18.8846 13.8633 16.2656L13.7764 16.1172Z" fill="#212121"/>
</svg>
