<svg width="16" height="16" viewBox="0 0 16 16" fill="none" xmlns="http://www.w3.org/2000/svg">
<path d="M8 1C11.866 1 15 4.13401 15 8C15 11.866 11.866 15 8 15C4.13401 15 1 11.866 1 8C1 5.92229 1.90597 4.05701 3.34375 2.77539C3.81782 2.35293 4.49986 2.73318 4.5 3.36816C4.5 3.61418 4.38722 3.84507 4.20898 4.01465C3.15606 5.01659 2.5 6.4318 2.5 8C2.5 11.0376 4.96243 13.5 8 13.5C11.0376 13.5 13.5 11.0376 13.5 8C13.5 5.21689 11.4327 2.91761 8.75 2.55176V3.75C8.75 4.16421 8.41421 4.5 8 4.5C7.58579 4.5 7.25 4.16421 7.25 3.75V1.70508C7.25 1.32716 7.53524 1.0058 7.91309 1.00098C7.94194 1.00062 7.97107 1 8 1ZM4.74023 5.64453C4.33298 5.08341 4.96017 4.39603 5.5332 4.6709L5.64648 4.73926L7.6709 6.22168C8.00746 6.47071 8.31826 6.70199 8.55762 6.88477C8.78047 7.05494 8.98036 7.21086 9.0625 7.29297C9.55027 7.78101 9.55018 8.57244 9.0625 9.06055C8.5744 9.54865 7.78211 9.54854 7.29395 9.06055C7.21179 8.97822 7.05647 8.77893 6.88672 8.55664C6.70395 8.31729 6.47169 8.00649 6.22266 7.66992C5.72427 6.99635 5.14975 6.20845 4.74023 5.64453Z" fill="#212121"/>
</svg>
