<svg width="48" height="48" viewBox="0 0 48 48" fill="none" xmlns="http://www.w3.org/2000/svg">
<path d="M24 4.00001C35.0457 4.00001 43.9999 12.9544 44 24C44 35.0457 35.0457 44 24 44C12.9543 44 4 35.0457 4 24C4.00003 17.5881 7.01778 11.8807 11.71 8.22071C12.6783 7.46592 13.9997 8.21259 14 9.44044C14 9.95017 13.7527 10.4257 13.3555 10.7451C9.48036 13.8609 7.00003 18.6406 7 24C7 33.3889 14.6112 41 24 41C33.3888 41 41 33.3889 41 24C40.9999 15.1167 34.1862 7.82585 25.5 7.06642V12C25.5 12.8284 24.8284 13.5 24 13.5C23.1716 13.5 22.5 12.8284 22.5 12V5.43946C22.5002 4.6592 23.1025 4.00455 23.8828 4.00001C23.9218 3.99978 23.9609 4.00001 24 4.00001ZM13.7764 16.1172C13.0046 14.6284 14.6303 13.0031 16.1191 13.7754L16.2676 13.8613L19.4482 15.8877C20.6421 16.6535 21.9172 17.4776 23.1133 18.2627C24.3084 19.0472 25.4322 19.7981 26.3203 20.415C27.1622 20.9999 27.906 21.5411 28.2432 21.8779C30.0005 23.6353 30.0005 26.4848 28.2432 28.2422C26.4859 29.9992 23.6372 29.9991 21.8799 28.2422C21.543 27.9051 21.001 27.1605 20.416 26.3184C19.7992 25.4304 19.049 24.3072 18.2646 23.1123C16.6944 20.7201 14.9696 18.0122 13.8633 16.2656L13.7764 16.1172Z" fill="#212121"/>
</svg>
