<svg width="32" height="32" viewBox="0 0 32 32" fill="none" xmlns="http://www.w3.org/2000/svg">
<path d="M2 8.5C2 6.01472 4.01472 4 6.5 4H10.4645C11.3927 4 12.283 4.36875 12.9393 5.02513L15 7.08579L11.5251 10.5607C11.2438 10.842 10.8623 11 10.4645 11H2V8.5ZM2 13V23.5C2 25.9853 4.01472 28 6.5 28H16.5155C15.5583 26.5699 15 24.8501 15 23C15 18.0294 19.0294 14 24 14C26.3051 14 28.4077 14.8666 30 16.2917V12C30 9.51472 27.9853 7.5 25.5 7.5H17.4142L12.9393 11.9749C12.283 12.6313 11.3927 13 10.4645 13H2ZM31.5 23C31.5 27.1421 28.1421 30.5 24 30.5C19.8579 30.5 16.5 27.1421 16.5 23C16.5 18.8579 19.8579 15.5 24 15.5C28.1421 15.5 31.5 18.8579 31.5 23ZM25 20.0607L27.7197 22.7803C28.0126 23.0732 28.4874 23.0732 28.7803 22.7803C29.0732 22.4874 29.0732 22.0126 28.7803 21.7197L24.7803 17.7197C24.4874 17.4268 24.0126 17.4268 23.7197 17.7197L19.7197 21.7197C19.4268 22.0126 19.4268 22.4874 19.7197 22.7803C20.0126 23.0732 20.4874 23.0732 20.7803 22.7803L23.5 20.0607V27.75C23.5 28.1642 23.8358 28.5 24.25 28.5C24.6642 28.5 25 28.1642 25 27.75V20.0607Z" fill="#212121"/>
</svg>
