<svg width="24" height="24" viewBox="0 0 24 24" fill="none" xmlns="http://www.w3.org/2000/svg">
<path d="M13.7595 13.2039C14.0675 13.4807 14.0928 13.9549 13.8159 14.263L12.7047 15.4994H14.9812C15.6094 15.4994 15.9592 16.2253 15.5678 16.7167L12.3563 20.7482C12.0982 21.0721 11.6263 21.1256 11.3024 20.8675C10.9784 20.6094 10.925 20.1375 11.1831 19.8135L13.4249 16.9994H11.0222C10.3731 16.9994 10.0305 16.2308 10.4644 15.748L12.7003 13.2603C12.9772 12.9522 13.4514 12.927 13.7595 13.2039ZM13.0017 5.0089C16.1702 5.0089 17.9677 7.1062 18.2291 9.63903L18.3091 9.63903C20.3481 9.63903 22.0011 11.2878 22.0011 13.3216C22.0011 15.3554 20.3481 17.0041 18.3091 17.0041L16.5621 17.0049C17.1045 15.8907 16.3096 14.4994 14.9812 14.4994H14.8456C15.1615 13.82 15.0142 12.987 14.428 12.4601C13.7091 11.814 12.6027 11.873 11.9566 12.5918L9.72063 15.0795C9.20209 15.6564 9.15883 16.4083 9.44351 17.0046L7.69432 17.0041C5.65524 17.0041 4.00224 15.3554 4.00224 13.3216C4.00224 11.2878 5.65524 9.63903 7.69435 9.63903L7.77429 9.63903C8.03723 7.08955 9.83316 5.0089 13.0017 5.0089ZM10 2C11.6167 2 13.0491 2.81514 13.9001 4.06187C13.6099 4.02684 13.3101 4.0089 13.0017 4.0089C10.0079 4.0089 7.83103 5.68617 7.06466 8.222L6.99696 8.46222L6.93926 8.70005L6.73318 8.73851C5.12397 9.07667 3.81621 10.2468 3.284 11.7838C2.50363 11.1842 2 10.2407 2 9.17949C2 7.42936 3.36983 5.99918 5.09583 5.90263L5.35314 5.89744C5.74233 3.67611 7.6817 2 10 2Z" fill="#212121"/>
</svg>
