<svg width="48" height="48" viewBox="0 0 48 48" fill="none" xmlns="http://www.w3.org/2000/svg">
<path d="M24 4C24.3315 4 24.6495 4.1317 24.8839 4.36612C24.9486 4.4308 25.0272 4.50876 25.1188 4.59948C26.2541 5.72446 29.3677 8.80988 32.2918 12.8268C35.4201 17.1242 38.5 22.7105 38.5 28.25C38.5 33.6262 36.9015 37.6073 34.1879 40.2408C31.4847 42.8643 27.8292 44 24 44C20.1708 44 16.5153 42.8643 13.8121 40.2408C11.0985 37.6073 9.5 33.6262 9.5 28.25C9.5 22.7148 12.5128 17.1932 15.6134 12.9219C18.5034 8.94083 21.6094 5.86087 22.8479 4.63272C22.9505 4.53096 23.0403 4.44191 23.1161 4.36612C23.3505 4.1317 23.6685 4 24 4Z" fill="#212121"/>
</svg>
