<svg width="32" height="32" viewBox="0 0 32 32" fill="none" xmlns="http://www.w3.org/2000/svg">
<path d="M8.25 2C6.45507 2 5 3.45507 5 5.25V10.5065C5.08279 10.5022 5.16614 10.5 5.25 10.5H7V5.25C7 4.55964 7.55964 4 8.25 4H26.75C27.4404 4 28 4.55964 28 5.25V17.75C28 18.4404 27.4404 19 26.75 19H14.5V21H20V24H14.5V26H24C24.5523 26 25 25.5523 25 25C25 24.4477 24.5523 24 24 24H22V21H26.75C28.5449 21 30 19.5449 30 17.75V5.25C30 3.45508 28.5449 2 26.75 2H8.25ZM2 15.25C2 13.4551 3.45507 12 5.25 12H9.75C11.5449 12 13 13.4551 13 15.25V26.75C13 28.5449 11.5449 30 9.75 30H5.25C3.45507 30 2 28.5449 2 26.75V15.25ZM5.25 14C4.55964 14 4 14.5596 4 15.25V26.75C4 27.4404 4.55964 28 5.25 28H9.75C10.4404 28 11 27.4404 11 26.75V15.25C11 14.5596 10.4404 14 9.75 14H5.25ZM7 25C6.44772 25 6 25.4477 6 26C6 26.5523 6.44772 27 7 27H8C8.55228 27 9 26.5523 9 26C9 25.4477 8.55228 25 8 25H7Z" fill="#212121"/>
</svg>
