<svg width="32" height="32" viewBox="0 0 32 32" fill="none" xmlns="http://www.w3.org/2000/svg">
<path d="M9 2C6.79086 2 5 3.79086 5 6V26C5 28.2091 6.79086 30 9 30H23C25.2091 30 27 28.2091 27 26V6C27 3.79086 25.2091 2 23 2H9ZM7 6C7 4.89543 7.89543 4 9 4H23C24.1046 4 25 4.89543 25 6V26C25 27.1046 24.1046 28 23 28H9C7.89543 28 7 27.1046 7 26V6ZM10.25 6C9.55964 6 9 6.55964 9 7.25V24.75C9 25.4404 9.55964 26 10.25 26H21.75C22.4404 26 23 25.4404 23 24.75V7.25C23 6.55964 22.4404 6 21.75 6H10.25Z" fill="#212121"/>
</svg>
