<?xml version="1.0" encoding="UTF-8"?>
<svg width="24px" height="24px" viewBox="0 0 24 24" version="1.1" xmlns="http://www.w3.org/2000/svg" xmlns:xlink="http://www.w3.org/1999/xlink">
    <!-- Generator: Sketch 59.1 (86144) - https://sketch.com -->
    <title>ic_code_24_filled</title>
    <desc>Created with Sketch.</desc>
    <g id="ðŸ”-Product-Icons" stroke="none" stroke-width="1" fill="none" fill-rule="evenodd">
        <g id="ic_code_24_filled" fill="#212121">
            <path d="M14.0816718,4.606402 C14.29905,4.09869621 14.8868467,3.86333916 15.3945525,4.08071734 C15.9022583,4.29809551 16.1376153,4.8858922 15.9202372,5.393598 L15.9202372,5.393598 L9.92409249,19.3981201 C9.70671432,19.9058259 9.11891763,20.1411829 8.61121183,19.9238048 C8.10350604,19.7064266 7.86814899,19.1186299 8.08552717,18.6109241 L8.08552717,18.6109241 Z M6.29289322,7.29289322 C6.68341751,6.90236893 7.31658249,6.90236893 7.70710678,7.29289322 C8.09763107,7.68341751 8.09763107,8.31658249 7.70710678,8.70710678 L7.70710678,8.70710678 L4.41421356,12 L7.70710678,15.2928932 C8.09763107,15.6834175 8.09763107,16.3165825 7.70710678,16.7071068 C7.31658249,17.0976311 6.68341751,17.0976311 6.29289322,16.7071068 L6.29289322,16.7071068 L2.29289322,12.7071068 C1.90236893,12.3165825 1.90236893,11.6834175 2.29289322,11.2928932 L2.29289322,11.2928932 Z M16.2920863,7.29165541 C16.6826285,6.901149 17.3157935,6.90117797 17.7062999,7.29172014 L17.7062999,7.29172014 L21.7071391,11.2929256 C22.0978163,11.6836385 22.0975915,12.3171407 21.7066371,12.7075762 L21.7066371,12.7075762 L17.7057978,16.7031054 C17.3150143,17.0933702 16.6818495,17.0929498 16.2915846,16.7021662 C15.9013197,16.3113827 15.9017402,15.6782179 16.2925237,15.287953 L16.2925237,15.287953 L19.5853491,11.9994979 L16.2920216,8.70586898 C15.9015152,8.31532681 15.9015442,7.68216183 16.2920863,7.29165541 Z" id="ðŸŽ¨-Color"></path>
        </g>
    </g>
</svg>