<svg width="20" height="20" viewBox="0 0 20 20" fill="none" xmlns="http://www.w3.org/2000/svg">
<path d="M4.5 4C5.05228 4 5.5 3.55228 5.5 3C5.5 2.44772 5.05228 2 4.5 2C3.94772 2 3.5 2.44772 3.5 3C3.5 3.55228 3.94772 4 4.5 4ZM10 4C10.5523 4 11 3.55228 11 3C11 2.44772 10.5523 2 10 2C9.44772 2 9 2.44772 9 3C9 3.55228 9.44772 4 10 4ZM16.5 3C16.5 3.55228 16.0523 4 15.5 4C14.9477 4 14.5 3.55228 14.5 3C14.5 2.44772 14.9477 2 15.5 2C16.0523 2 16.5 2.44772 16.5 3ZM5.25 5.75C5.25 5.33579 4.91421 5 4.5 5C4.08579 5 3.75 5.33579 3.75 5.75V17.25C3.75 17.6642 4.08579 18 4.5 18C4.91421 18 5.25 17.6642 5.25 17.25V5.75ZM10 5C10.4142 5 10.75 5.33579 10.75 5.75V17.25C10.75 17.6642 10.4142 18 10 18C9.58579 18 9.25 17.6642 9.25 17.25V5.75C9.25 5.33579 9.58579 5 10 5ZM16.25 5.75C16.25 5.33579 15.9142 5 15.5 5C15.0858 5 14.75 5.33579 14.75 5.75V17.25C14.75 17.6642 15.0858 18 15.5 18C15.9142 18 16.25 17.6642 16.25 17.25V5.75Z" fill="#212121"/>
</svg>
