<svg width="28" height="28" viewBox="0 0 28 28" fill="none" xmlns="http://www.w3.org/2000/svg">
<path d="M3 6.75C3 4.67893 4.67893 3 6.75 3H21.25C23.3211 3 25 4.67893 25 6.75V21.25C25 23.3211 23.3211 25 21.25 25H14.4242C15.3967 24.0471 16 22.719 16 21.25V17.25C16 14.3505 13.6495 12 10.75 12H6.75C5.28098 12 3.95289 12.6034 3 13.5758V6.75ZM3 17.25V21.25C3 23.3211 4.67893 25 6.75 25H10.75C12.8211 25 14.5 23.3211 14.5 21.25V17.25C14.5 15.1789 12.8211 13.5 10.75 13.5H6.75C4.67893 13.5 3 15.1789 3 17.25Z" fill="#212121"/>
</svg>
