<svg width="28" height="28" viewBox="0 0 28 28" fill="none" xmlns="http://www.w3.org/2000/svg">
<path d="M14.9992 17.3034L22.3648 23.143C23.43 23.9875 24.9994 23.2289 24.9994 21.8696V6.13085C24.9994 4.77153 23.4298 4.01299 22.3647 4.85757L14.9992 10.6981V6.13085C14.9992 4.77153 13.4296 4.01299 12.3645 4.85757L2.72775 12.4991C1.75997 13.2665 1.76003 14.7355 2.72788 15.5029L12.3646 23.143C13.4298 23.9875 14.9992 23.2289 14.9992 21.8696V17.3034ZM14.9992 12.6125L23.2967 6.0329C23.3236 6.01156 23.3446 6.00607 23.3608 6.00463C23.3802 6.0029 23.4043 6.00647 23.4288 6.0183C23.4533 6.03013 23.471 6.04678 23.4817 6.06306C23.4907 6.07665 23.4994 6.09651 23.4994 6.13085V21.8696C23.4994 21.904 23.4907 21.9238 23.4817 21.9374C23.471 21.9537 23.4533 21.9704 23.4288 21.9822C23.4043 21.994 23.3802 21.9976 23.3608 21.9959C23.3446 21.9944 23.3236 21.9889 23.2967 21.9676L14.9992 15.3892V12.6125ZM13.2965 6.0329C13.3234 6.01156 13.3444 6.00607 13.3606 6.00463C13.38 6.0029 13.4041 6.00647 13.4286 6.0183C13.453 6.03013 13.4708 6.04678 13.4815 6.06306C13.4904 6.07665 13.4992 6.09651 13.4992 6.13085V21.8696C13.4992 21.904 13.4904 21.9238 13.4815 21.9374C13.4708 21.9537 13.453 21.9704 13.4286 21.9822C13.4041 21.994 13.38 21.9976 13.3606 21.9959C13.3444 21.9944 13.3234 21.9889 13.2965 21.9676L3.65976 14.3274C3.44936 14.1606 3.44935 13.8413 3.65973 13.6745L13.2965 6.0329Z" fill="#212121"/>
</svg>
