<svg width="25" height="24" viewBox="0 0 25 24" fill="none" xmlns="http://www.w3.org/2000/svg">
<path d="M12.416 2C17.9389 2 22.416 6.47715 22.416 12C22.416 17.5228 17.9389 22 12.416 22C6.89317 22 2.41602 17.5228 2.41602 12C2.41602 6.47715 6.89317 2 12.416 2ZM18.9333 6.54309L6.9591 18.5173C8.43557 19.7549 10.3388 20.5 12.416 20.5C17.1104 20.5 20.916 16.6944 20.916 12C20.916 9.92276 20.1709 8.01955 18.9333 6.54309ZM12.416 3.5C7.7216 3.5 3.91602 7.30558 3.91602 12C3.91602 14.0772 4.66114 15.9804 5.89869 17.4569L17.8729 5.48268C16.3965 4.24513 14.4933 3.5 12.416 3.5Z" fill="#212121"/>
</svg>
