<svg width="29" height="28" viewBox="0 0 29 28" fill="none" xmlns="http://www.w3.org/2000/svg">
<path d="M14.416 2C21.0434 2 26.416 7.37258 26.416 14C26.416 20.6274 21.0434 26 14.416 26C7.7886 26 2.41602 20.6274 2.41602 14C2.41602 7.37258 7.7886 2 14.416 2ZM21.9591 8.22407L8.64008 21.5431C10.2406 22.7705 12.2431 23.5 14.416 23.5C19.6627 23.5 23.916 19.2467 23.916 14C23.916 11.8271 23.1865 9.82463 21.9591 8.22407ZM14.416 4.5C9.16931 4.5 4.91602 8.75329 4.91602 14C4.91602 16.1729 5.64551 18.1754 6.87295 19.7759L20.1919 6.45694C18.5914 5.2295 16.5889 4.5 14.416 4.5Z" fill="#212121"/>
</svg>
