<svg width="12" height="12" viewBox="0 0 12 12" fill="none" xmlns="http://www.w3.org/2000/svg">
<path d="M6.00098 1C3.23955 1 1.00098 3.23858 1.00098 6C1.00098 8.76142 3.23955 11 6.00098 11C8.7624 11 11.001 8.76142 11.001 6C11.001 3.23858 8.7624 1 6.00098 1ZM2.00098 6C2.00098 3.79086 3.79184 2 6.00098 2C6.92525 2 7.77631 2.31349 8.45362 2.83993L2.84091 8.45264C2.31446 7.77533 2.00098 6.92427 2.00098 6ZM3.54798 9.15979L9.16077 3.547C9.68738 4.22437 10.001 5.07556 10.001 6C10.001 8.20914 8.21011 10 6.00098 10C5.07654 10 4.22535 9.6864 3.54798 9.15979Z" fill="#212121"/>
</svg>
