<svg width="24" height="24" viewBox="0 0 24 24" fill="none" xmlns="http://www.w3.org/2000/svg">
<path d="M5.09791 3.99363V7.43758C5.09791 7.97556 5.53402 8.41168 6.072 8.41168H9.51595C10.0539 8.41168 10.4901 7.97556 10.4901 7.43758C10.4901 6.8996 10.0539 6.46348 9.51595 6.46348L8.71532 6.46248C11.3342 4.89599 14.7776 5.24072 17.0336 7.49667C19.6964 10.1595 19.6964 14.4769 17.0336 17.1397C14.3707 19.8026 10.0534 19.8026 7.39049 17.1397C5.76978 15.519 5.09135 13.2308 5.51706 11.0211C5.61883 10.4929 5.2731 9.98213 4.74483 9.88035C4.21657 9.77857 3.70582 10.1243 3.60404 10.6526C3.05729 13.4905 3.93016 16.4346 6.01291 18.5173C9.43659 21.941 14.9875 21.941 18.4111 18.5173C21.8348 15.0936 21.8348 9.54276 18.4111 6.11909C15.3138 3.02172 10.4754 2.72651 7.04613 5.23346L7.0461 3.99363C7.0461 3.45565 6.60998 3.01953 6.072 3.01953C5.53402 3.01953 5.09791 3.45565 5.09791 3.99363Z" fill="#212121"/>
</svg>
