<svg width="20" height="20" viewBox="0 0 20 20" fill="none" xmlns="http://www.w3.org/2000/svg">
<path d="M16 10C16 6.68629 13.3137 4 10 4C8.2234 4 6.62683 4.77191 5.52772 6H7.5C7.77614 6 8 6.22386 8 6.5C8 6.77614 7.77614 7 7.5 7H4.5C4.22386 7 4 6.77614 4 6.5V3.5C4 3.22386 4.22386 3 4.5 3C4.77614 3 5 3.22386 5 3.5V5.10109C6.27012 3.80499 8.04094 3 10 3C13.866 3 17 6.13401 17 10C17 13.866 13.866 17 10 17C6.13401 17 3 13.866 3 10C3 9.8191 3.00687 9.6397 3.02038 9.46207C3.04133 9.18673 3.28152 8.98049 3.55687 9.00144C3.83222 9.02239 4.03845 9.26258 4.0175 9.53793C4.00591 9.69034 4 9.84443 4 10C4 13.3137 6.68629 16 10 16C13.3137 16 16 13.3137 16 10Z" fill="#212121"/>
</svg>
