<svg width="12" height="12" viewBox="0 0 12 12" fill="none" xmlns="http://www.w3.org/2000/svg">
<path d="M2 2.5C2 2.22386 2.22386 2 2.5 2C2.77614 2 3 2.22386 3 2.5V3.35418C3.73294 2.52375 4.80531 2 6 2C8.20914 2 10 3.79086 10 6C10 8.20914 8.20914 10 6 10C3.9754 10 2.30211 8.49584 2.03669 6.54406C1.9961 6.24556 2.24421 6 2.54545 6C2.79649 6 2.99638 6.2047 3.03396 6.45291C3.25232 7.89487 4.4971 9 6 9C7.65685 9 9 7.65685 9 6C9 4.34315 7.65685 3 6 3C5.1115 3 4.31321 3.38625 3.76389 4H4.5C4.77614 4 5 4.22386 5 4.5C5 4.77614 4.77614 5 4.5 5H2.5C2.22386 5 2 4.77614 2 4.5V2.5Z" fill="#212121"/>
</svg>
