<svg width="20" height="20" viewBox="0 0 20 20" fill="none" xmlns="http://www.w3.org/2000/svg">
<path d="M9.37242 2.0247C13.7771 1.67804 17.6288 4.96771 17.9754 9.37236C18.3221 13.777 15.0324 17.6287 10.6278 17.9754C6.22311 18.322 2.37141 15.0324 2.02475 10.6277C2.00244 10.3442 1.99617 10.0397 2.0052 9.73856C2.01761 9.32453 2.3633 8.99896 2.77733 9.01137C3.19136 9.02378 3.51693 9.36947 3.50452 9.7835C3.49707 10.0321 3.50223 10.2826 3.52013 10.51C3.80178 14.0888 6.93129 16.7617 10.5101 16.48C14.0889 16.1983 16.7617 13.0688 16.4801 9.49005C16.1984 5.91127 13.0689 3.23842 9.49011 3.52008C7.75383 3.65672 6.18438 4.47053 5.07776 5.75475L4.87422 6.00263L7.25302 6.0035L7.35479 6.01035C7.72086 6.06001 8.00302 6.37381 8.00302 6.7535C8.00302 7.1332 7.72086 7.44699 7.35479 7.49666L7.25302 7.5035H3.25308L3.15131 7.49666C2.81851 7.45151 2.55507 7.18807 2.50993 6.85527L2.50308 6.7535V2.7535L2.50993 2.65173C2.55507 2.31894 2.81851 2.0555 3.15131 2.01035L3.25308 2.0035L3.35485 2.01035C3.68765 2.0555 3.95109 2.31894 3.99623 2.65173L4.00308 2.7535L4.00188 4.70625C5.35978 3.16635 7.26778 2.19034 9.37242 2.0247Z" fill="#212121"/>
</svg>
