<svg width="20" height="20" viewBox="0 0 20 20" fill="none" xmlns="http://www.w3.org/2000/svg">
<path d="M4.92583 2.23802C4.7811 2.00284 4.47313 1.92952 4.23795 2.07424C4.00277 2.21897 3.92945 2.52694 4.07417 2.76212L7.91291 9.00007H2.5C2.22386 9.00007 2 9.22393 2 9.50007V10.0001C2 14.4183 5.58172 18.0001 10 18.0001C14.4183 18.0001 18 14.4183 18 10.0001V9.50007C18 9.22393 17.7761 9.00007 17.5 9.00007H12.0871L7.92583 2.23802C7.7811 2.00284 7.47313 1.92952 7.23795 2.07424C7.00277 2.21897 6.92945 2.52694 7.07417 2.76212L10.9129 9.00007H9.08709L4.92583 2.23802ZM3.28988 12.0001C3.10128 11.3664 3 10.695 3 10.0001H17C17 10.695 16.8987 11.3664 16.7101 12.0001H3.28988ZM3.67363 13.0001H16.3264C15.2029 15.365 12.7924 17.0001 10 17.0001C7.2076 17.0001 4.7971 15.365 3.67363 13.0001Z" fill="#212121"/>
</svg>
