<svg width="20" height="20" viewBox="0 0 20 20" fill="none" xmlns="http://www.w3.org/2000/svg">
<path d="M12.9411 3.74273C13.2205 3.33876 13.502 2.96287 13.7324 2.73248C14.7087 1.75617 16.2916 1.75617 17.2679 2.73248C18.2442 3.70879 18.2442 5.2917 17.2679 6.26801C17.0375 6.49842 16.6616 6.77994 16.2576 7.05925C15.8449 7.34461 15.3726 7.64809 14.9288 7.92457C14.4843 8.20145 14.065 8.45341 13.757 8.63603C13.6766 8.68368 13.6038 8.72665 13.5399 8.76414L15.1188 10.343C16.2904 11.5146 16.2904 13.4141 15.1188 14.5857L13.2072 16.4973C12.8167 16.8878 12.1835 16.8878 11.793 16.4973L11.4614 16.1657L10.0669 17.5603C9.48107 18.1461 8.53132 18.1461 7.94554 17.5603L2.43934 12.0541C1.85355 11.4683 1.85355 10.5185 2.43934 9.93275L3.83388 8.53821L3.50009 8.20442C3.10957 7.8139 3.10957 7.18073 3.50009 6.79021L5.41173 4.87857C6.5833 3.707 8.4828 3.707 9.65437 4.87857L11.2361 6.46029C11.2736 6.39648 11.3166 6.32362 11.3642 6.24325C11.5469 5.93525 11.7988 5.51593 12.0758 5.0715C12.3523 4.62773 12.6558 4.15545 12.9411 3.74273ZM4.54099 9.24531L3.14645 10.6399C2.95118 10.8351 2.95118 11.1517 3.14645 11.347L8.65264 16.8532C8.84791 17.0484 9.16449 17.0484 9.35975 16.8532L10.7543 15.4586L4.54099 9.24531ZM12.8844 7.98918C12.9707 7.93882 13.0951 7.86588 13.247 7.77586C13.5508 7.59571 13.9636 7.3477 14.4 7.0758C14.8371 6.80349 15.2945 6.50937 15.6889 6.2367C16.0921 5.95797 16.4007 5.72102 16.5608 5.5609C17.1466 4.97512 17.1466 4.02537 16.5608 3.43958C15.975 2.8538 15.0253 2.8538 14.4395 3.43958C14.2794 3.59971 14.0424 3.90833 13.7637 4.31146C13.491 4.70583 13.1968 5.16323 12.9245 5.60032C12.6526 6.03675 12.4045 6.44947 12.2244 6.7533C12.1343 6.90513 12.0614 7.02953 12.011 7.11584L11.9671 7.19132L12.8089 8.03309L12.8844 7.98918ZM8.94727 5.58568C8.16622 4.80463 6.89989 4.80463 6.11884 5.58568L4.2072 7.49731L12.5001 15.7902L14.4117 13.8786C15.1928 13.0975 15.1928 11.8312 14.4117 11.0501L8.94727 5.58568Z" fill="#212121"/>
</svg>
