<svg width="16" height="16" viewBox="0 0 16 16" fill="none" xmlns="http://www.w3.org/2000/svg">
<path d="M10.8538 4.09988C11.0617 4.11829 11.3033 4.2322 11.5355 4.46433C11.7676 4.69645 11.8815 4.9381 11.8999 5.14595C11.9169 5.3383 11.8582 5.55584 11.6319 5.78212C11.1014 6.31257 10.1965 6.90113 9.11988 7.60136L9.05672 7.64244L8.35735 6.94307L8.39843 6.87991C9.09866 5.80329 9.68722 4.89835 10.2177 4.3679C10.444 4.14163 10.6615 4.08285 10.8538 4.09988ZM9.77973 8.36544C10.7905 7.70877 11.7488 7.07943 12.339 6.48922C12.7555 6.07268 12.9414 5.57066 12.896 5.05772C12.8519 4.56027 12.5962 4.11088 12.2426 3.75722C11.8889 3.40356 11.4395 3.14784 10.9421 3.10378C10.4291 3.05835 9.92711 3.24425 9.51057 3.6608C8.92036 4.25101 8.29103 5.20931 7.63435 6.22006L6.58571 5.17143C5.80466 4.39038 4.53833 4.39038 3.75728 5.17143L3.05018 5.87853C2.65965 6.26906 2.65965 6.90222 3.05018 7.29275L2.51984 7.82308C2.03169 8.31124 2.03169 9.10269 2.51984 9.59085L6.40893 13.4799C6.89709 13.9681 7.68854 13.9681 8.1767 13.4799L8.70703 12.9496C9.09756 13.3401 9.73072 13.3401 10.1212 12.9496L10.8284 12.2425C11.6094 11.4614 11.6094 10.1951 10.8284 9.41407L9.77973 8.36544ZM8.92335 8.92328L10.1212 10.1212C10.5118 10.5117 10.5118 11.1449 10.1212 11.5354L9.41414 12.2425L3.75728 6.58564L4.46439 5.87853C4.85491 5.48801 5.48808 5.48801 5.8786 5.87853L7.07652 7.07645L8.63633 8.63626L8.92335 8.92328ZM3.75728 7.99986L7.99992 12.2425L7.46959 12.7728C7.37196 12.8705 7.21367 12.8705 7.11604 12.7728L3.22695 8.88374C3.12932 8.78611 3.12932 8.62782 3.22695 8.53019L3.75728 7.99986Z" fill="#212121"/>
</svg>
