<svg width="16" height="16" viewBox="0 0 16 16" fill="none" xmlns="http://www.w3.org/2000/svg">
<path d="M5.07893 10.5334C5.30849 11.3509 6.05069 12 7.00841 12H13V13C13 14.1046 12.1046 15 11 15H3C1.89543 15 1 14.1046 1 13V8.33706L5.07893 10.5334ZM7.26826 5L5.21836 9.10444C5.16855 9.20417 5.12791 9.30521 5.09597 9.40682L1 7.2013V7C1 5.89543 1.89543 5 3 5H7.26826ZM6.10678 9.55202L9.60294 2.55356C9.97158 1.81564 11.0246 1.81544 11.3935 2.55322L14.893 9.55167C15.2258 10.2171 14.7419 11 13.9978 11H7.00216C6.2583 11 5.77438 10.2174 6.10678 9.55202ZM10.4979 3.9947C10.2215 3.9947 9.99748 4.21873 9.99748 4.49509V7.49741C9.99748 7.77376 10.2215 7.99779 10.4979 7.99779C10.7743 7.99779 10.9983 7.77376 10.9983 7.49741V4.49509C10.9983 4.21873 10.7743 3.9947 10.4979 3.9947ZM10.9983 9.49895C10.9983 9.2226 10.7743 8.99857 10.4979 8.99857C10.2215 8.99857 9.99748 9.2226 9.99748 9.49895C9.99748 9.77531 10.2215 9.99934 10.4979 9.99934C10.7743 9.99934 10.9983 9.77531 10.9983 9.49895Z" fill="#212121"/>
</svg>
