<svg width="24" height="24" viewBox="0 0 24 24" fill="none" xmlns="http://www.w3.org/2000/svg">
<path d="M5 6.25C5 5.00736 6.00736 4 7.25 4H15.75C16.9926 4 18 5.00736 18 6.25V14H21.5V17.25C21.5 19.0449 20.0449 20.5 18.25 20.5H12.2678C12.7356 19.6025 13 18.5821 13 17.5C13 15.7535 12.3112 14.1679 11.1904 13H14.25C14.6642 13 15 12.6642 15 12.25C15 11.8358 14.6642 11.5 14.25 11.5H9.0044C8.23363 11.1779 7.38759 11 6.5 11C5.98373 11 5.48152 11.0602 5 11.1739V6.25ZM18 19H18.25C19.2165 19 20 18.2165 20 17.25V15.5H18V19ZM8.75 8C8.33579 8 8 8.33579 8 8.75C8 9.16421 8.33579 9.5 8.75 9.5H14.25C14.6642 9.5 15 9.16421 15 8.75C15 8.33579 14.6642 8 14.25 8H8.75ZM12 17.5C12 14.4624 9.53757 12 6.5 12C3.46243 12 1 14.4624 1 17.5C1 20.5376 3.46243 23 6.5 23C9.53757 23 12 20.5376 12 17.5ZM7.00065 18L7.00111 20.5035C7.00111 20.7797 6.77725 21.0035 6.50111 21.0035C6.22497 21.0035 6.00111 20.7797 6.00111 20.5035L6.00065 18H3.4956C3.21973 18 2.99609 17.7762 2.99609 17.5C2.99609 17.2239 3.21973 17 3.4956 17H6.00046L6 14.4993C6 14.2231 6.22386 13.9993 6.5 13.9993C6.77614 13.9993 7 14.2231 7 14.4993L7.00046 17H9.49659C9.77246 17 9.99609 17.2239 9.99609 17.5C9.99609 17.7762 9.77246 18 9.49659 18H7.00065Z" fill="#212121"/>
</svg>
