<svg width="24" height="24" viewBox="0 0 24 24" fill="none" xmlns="http://www.w3.org/2000/svg">
<path d="M17.75 3C19.5449 3 21 4.45507 21 6.25V17.75C21 19.5449 19.5449 21 17.75 21H6.25C4.45507 21 3 19.5449 3 17.75V6.25C3 4.45507 4.45507 3 6.25 3H17.75ZM17.75 4.5H6.25C5.2835 4.5 4.5 5.2835 4.5 6.25V13H9C9.3797 13 9.69349 13.2822 9.74315 13.6482L9.75 13.75C9.75 14.9926 10.7574 16 12 16C13.2426 16 14.25 14.9926 14.25 13.75C14.25 13.3358 14.5858 13 15 13H19.5V6.25C19.5 5.33183 18.7929 4.57881 17.8935 4.5058L17.75 4.5Z" fill="#212121"/>
</svg>
