<svg width="16" height="16" viewBox="0 0 16 16" fill="none" xmlns="http://www.w3.org/2000/svg">
<path d="M5.25 8C5.25 8.69036 4.69036 9.25 4 9.25C3.30964 9.25 2.75 8.69036 2.75 8C2.75 7.30964 3.30964 6.75 4 6.75C4.69036 6.75 5.25 7.30964 5.25 8Z" fill="#212121"/>
<path d="M9.25 8C9.25 8.69036 8.69036 9.25 8 9.25C7.30964 9.25 6.75 8.69036 6.75 8C6.75 7.30964 7.30964 6.75 8 6.75C8.69036 6.75 9.25 7.30964 9.25 8Z" fill="#212121"/>
<path d="M12 9.25C12.6904 9.25 13.25 8.69036 13.25 8C13.25 7.30964 12.6904 6.75 12 6.75C11.3096 6.75 10.75 7.30964 10.75 8C10.75 8.69036 11.3096 9.25 12 9.25Z" fill="#212121"/>
</svg>
