<svg width="28" height="28" viewBox="0 0 28 28" fill="none" xmlns="http://www.w3.org/2000/svg">
<path d="M26.001 7.35334C26.001 5.54646 24.2882 4.23059 22.5423 4.69622L4.04572 9.62939C2.84195 9.95045 2.00439 11.0407 2.00439 12.2865V15.7136C2.00439 16.9594 2.84195 18.0496 4.04572 18.3707L7 19.1586V19.5C7 21.9853 9.01472 24 11.5 24C13.2899 24 14.8357 22.955 15.5606 21.4418L22.5423 23.3039C24.2882 23.7695 26.001 22.4536 26.001 20.6468V7.35334ZM22.9289 6.14556C23.7225 5.93391 24.501 6.53203 24.501 7.35334V20.6468C24.501 21.4681 23.7225 22.0662 22.9289 21.8545L4.43227 16.9214C3.8851 16.7754 3.50439 16.2799 3.50439 15.7136V12.2865C3.50439 11.7202 3.8851 11.2247 4.43227 11.0787L22.9289 6.14556ZM14.0722 21.0448C13.5474 21.9167 12.5918 22.5 11.5 22.5C9.8628 22.5 8.53192 21.1885 8.50057 19.5588L14.0722 21.0448Z" fill="#212121"/>
</svg>
