<svg width="12" height="12" viewBox="0 0 12 12" fill="none" xmlns="http://www.w3.org/2000/svg">
<path d="M8.9631 1.10371C9.94536 0.727177 11 1.45237 11 2.50433V8.50152C11 9.51713 10.0119 10.2392 9.04428 9.93062L6.98155 9.27284C6.8485 10.2483 6.01203 11 5 11C3.89543 11 3 10.1046 3 9.00003V8.00317L2.04428 7.69841C1.42228 7.50006 1 6.92217 1 6.26931V5.18764C1 4.56637 1.38299 4.0094 1.9631 3.78702L8.9631 1.10371ZM4 8.32206V9.00003C4 9.55231 4.44772 10 5 10C5.55228 10 6 9.55231 6 9.00003V8.95983L4 8.32206Z" fill="#212121"/>
</svg>
