<svg width="32" height="32" viewBox="0 0 32 32" fill="none" xmlns="http://www.w3.org/2000/svg">
<path d="M16 2C13.7909 2 12 3.79086 12 6C12 8.20914 13.7909 10 16 10C18.2091 10 20 8.20914 20 6C20 3.79086 18.2091 2 16 2Z" fill="#212121"/>
<path d="M28.0169 8.28906C27.4036 6.92952 25.8421 6.27726 24.444 6.79662L22.6556 7.46094C22.3744 7.56541 22.1549 7.79062 22.0577 8.07445C21.1956 10.5927 18.8077 12.4009 16.0001 12.4009C13.1926 12.4009 10.8047 10.5928 9.94257 8.07452C9.8454 7.7907 9.62593 7.56549 9.3447 7.46102L7.60361 6.81427C6.17442 6.28337 4.58235 6.98688 4.01265 8.40105C3.44506 9.80997 4.09774 11.4151 5.48749 12.0281L10.0001 14.0186L10.0001 19.825L7.58022 26.2498C7.09389 27.541 7.70245 28.9871 8.96571 29.5421C10.2787 30.1189 11.8107 29.5219 12.3873 28.2088L15.4232 21.2949C15.6259 20.8331 16.283 20.8389 16.4777 21.3041L19.3519 28.1721C19.9688 29.6464 21.724 30.2654 23.1293 29.5042C24.3135 28.8628 24.8441 27.447 24.3732 26.1853L22.0001 19.8266L22.0001 14.0167L26.5513 12.061C28.0087 11.4347 28.6691 9.73497 28.0169 8.28906Z" fill="#212121"/>
</svg>
