<svg width="16" height="16" viewBox="0 0 16 16" fill="none" xmlns="http://www.w3.org/2000/svg">
<path d="M8.00024 1C6.89567 1 6.00024 1.89543 6.00024 3C6.00024 4.10457 6.89567 5 8.00024 5C9.10481 5 10.0002 4.10457 10.0002 3C10.0002 1.89543 9.10481 1 8.00024 1ZM14.0087 4.14452C13.702 3.46475 12.9213 3.13862 12.2222 3.3983L11.328 3.73048C11.1874 3.78271 11.0777 3.89532 11.0291 4.03724C10.598 5.29638 9.40407 6.20048 8.00027 6.20048C6.59648 6.20048 5.40255 5.29638 4.97147 4.03724C4.92289 3.89532 4.81315 3.78272 4.67254 3.73048L3.80205 3.40713C3.08745 3.14168 2.29142 3.49343 2.00657 4.20052C1.72278 4.90498 2.04911 5.70754 2.74399 6.01406L5.00027 7.00932L5.00027 9.91251L3.79036 13.1249C3.54719 13.7705 3.85147 14.4936 4.4831 14.771C5.13961 15.0594 5.90561 14.761 6.1939 14.1044L7.71183 10.6475C7.81321 10.4166 8.14177 10.4194 8.23911 10.652L9.67617 14.086C9.98465 14.8232 10.8623 15.1327 11.5649 14.7521C12.157 14.4314 12.4223 13.7235 12.1869 13.0926L11.0003 9.91329L11.0003 7.00834L13.2759 6.03048C14.0046 5.71735 14.3348 4.86748 14.0087 4.14452Z" fill="#212121"/>
</svg>
