<svg width="16" height="16" viewBox="0 0 16 16" fill="none" xmlns="http://www.w3.org/2000/svg">
<path d="M7.99976 1C6.75712 1 5.74976 2.00736 5.74976 3.25C5.74976 3.43775 5.77275 3.62013 5.81608 3.79447L3.97712 3.09862C3.17757 2.79607 2.28121 3.17334 1.93864 3.95657C1.57937 4.778 1.96272 5.73448 2.78986 6.08041L4.99971 7.0046V9.39628L3.84141 12.8756C3.5756 13.6741 3.97123 14.5423 4.74819 14.8656C5.59009 15.2159 6.55439 14.7958 6.87114 13.9407L7.99229 10.9141L9.11715 13.938C9.44501 14.8194 10.457 15.2314 11.3072 14.8296C12.0396 14.4834 12.3992 13.6458 12.1458 12.8764L10.9997 9.39709V7.00128L13.184 6.09541C13.9622 5.77267 14.3606 4.90511 14.0982 4.10453C13.812 3.23102 12.8544 2.77335 11.9949 3.09926L10.1857 3.78532C10.2276 3.61375 10.2498 3.43447 10.2498 3.25C10.2498 2.00736 9.2424 1 7.99976 1ZM6.74976 3.25C6.74976 2.55964 7.3094 2 7.99976 2C8.69011 2 9.24976 2.55964 9.24976 3.25C9.24976 3.94036 8.69011 4.5 7.99976 4.5C7.3094 4.5 6.74976 3.94036 6.74976 3.25ZM12.3495 4.03429C12.6758 3.91057 13.0393 4.08431 13.148 4.41591C13.2475 4.71983 13.0963 5.04918 12.8009 5.1717L10.3082 6.20549C10.1214 6.28293 9.99971 6.46519 9.99971 6.66734V9.47732C9.99971 9.53046 10.0082 9.58327 10.0248 9.63375L11.196 13.1892C11.2915 13.4792 11.156 13.795 10.8799 13.9254C10.5594 14.0769 10.178 13.9216 10.0544 13.5894L8.8631 10.3868C8.56267 9.57919 7.42008 9.57998 7.12076 10.388L5.93341 13.5934C5.81389 13.916 5.45004 14.0745 5.13237 13.9424C4.8392 13.8204 4.68992 13.4928 4.79022 13.1915L5.97411 9.63525C5.99106 9.58432 5.99971 9.53099 5.99971 9.47732V6.67174C5.99971 6.47013 5.87862 6.28824 5.69262 6.21046L3.1757 5.15784C2.86392 5.02745 2.71942 4.66692 2.85484 4.35729C2.98397 4.06206 3.32184 3.91986 3.62321 4.0339L7.19511 5.38548C7.70824 5.57965 8.27467 5.57945 8.78767 5.38492L12.3495 4.03429Z" fill="#212121"/>
</svg>
