<svg width="24" height="24" viewBox="0 0 24 24" fill="none" xmlns="http://www.w3.org/2000/svg">
<path d="M12 1.9978C10.6193 1.9978 9.5 3.11709 9.5 4.4978C9.5 5.87851 10.6193 6.9978 12 6.9978C13.3807 6.9978 14.5 5.87851 14.5 4.4978C14.5 3.11709 13.3807 1.9978 12 1.9978Z" fill="#212121"/>
<path d="M20.3439 6.51646C19.9875 5.4324 18.8011 4.86219 17.7319 5.26104L16.1253 5.86037C15.9423 5.92866 15.7931 6.0657 15.7095 6.24233C15.0542 7.62738 13.6451 8.58293 12.0143 8.58293C10.3873 8.58293 8.98099 7.63183 8.32374 6.25196C8.24 6.07616 8.09117 5.93982 7.90872 5.87177L6.27975 5.2642C5.20511 4.86339 4.01374 5.4433 3.66624 6.53634C3.34991 7.53136 3.84948 8.6027 4.81504 8.99997L7.99995 10.3103V13.4582L6.02854 19.1714C5.67724 20.1895 6.21492 21.3001 7.23143 21.6559C8.23704 22.008 9.33945 21.4905 9.71115 20.492L11.557 15.5336C11.7121 15.1169 12.3012 15.116 12.4576 15.5322L14.3397 20.541C14.7379 21.6008 15.955 22.0962 16.9801 21.6156C17.8783 21.1946 18.3145 20.1641 17.9914 19.2262L15.9999 13.4458V10.3115L19.1953 9.00481C20.1719 8.60541 20.6735 7.51882 20.3439 6.51646Z" fill="#212121"/>
</svg>
