<svg width="28" height="28" viewBox="0 0 28 28" fill="none" xmlns="http://www.w3.org/2000/svg">
<path d="M14 9C15.933 9 17.5 7.433 17.5 5.5C17.5 3.567 15.933 2 14 2C12.067 2 10.5 3.567 10.5 5.5C10.5 7.433 12.067 9 14 9Z" fill="#212121"/>
<path d="M4.75 10.5C4.33579 10.5 4 10.8358 4 11.25C4 11.6642 4.33579 12 4.75 12H10.5V25.25C10.5 25.6642 10.8358 26 11.25 26C11.6642 26 12 25.6642 12 25.25V20H16V25.25C16 25.6642 16.3358 26 16.75 26C17.1642 26 17.5 25.6642 17.5 25.25V12H23.25C23.6642 12 24 11.6642 24 11.25C24 10.8358 23.6642 10.5 23.25 10.5H4.75Z" fill="#212121"/>
</svg>
