<svg width="24" height="24" viewBox="0 0 24 24" fill="none" xmlns="http://www.w3.org/2000/svg">
<path d="M6.5 12C9.53757 12 12 14.4624 12 17.5C12 20.5376 9.53757 23 6.5 23C3.46243 23 1 20.5376 1 17.5C1 14.4624 3.46243 12 6.5 12ZM17.75 3C19.5449 3 21 4.45507 21 6.25V17.75C21 19.5449 19.5449 21 17.75 21L11.9774 21.0012C12.6247 19.9907 13 18.7892 13 17.5C13 15.9846 12.4814 14.5904 11.6108 13.4871L11.6795 13.4967L11.75 13.5H16.2483L16.35 13.4932C16.7161 13.4435 16.9983 13.1297 16.9983 12.75C16.9983 12.3703 16.7161 12.0565 16.35 12.0068L16.2483 12H12.5V6.75L12.4932 6.64823C12.4435 6.28215 12.1297 6 11.75 6C11.3703 6 11.0565 6.28215 11.0068 6.64823L11 6.75V12.75L11.0048 12.8142C9.83648 11.6907 8.2489 11 6.5 11C5.21084 11 4.00934 11.3753 2.99879 12.0226L3 6.25C3 4.45507 4.45507 3 6.25 3H17.75ZM6.5 17.5H3.5C3.25454 17.5 3.05039 17.6769 3.00806 17.9101L3 18V18.4959C3 19.4904 3.75658 19.9936 5 19.9936C6.18121 19.9936 6.92312 19.5399 6.99436 18.6423L7 18.4969V18C7 17.7239 6.77614 17.5 6.5 17.5ZM9.52012 17.4862L7.90914 17.4847C7.95323 17.6052 7.98229 17.733 7.99407 17.8657L8 18V18.4969L7.99279 18.7089C7.97362 18.9853 7.91658 19.237 7.82524 19.4639C7.9588 19.4777 8.10073 19.4845 8.25029 19.4845C9.27626 19.4845 9.94293 19.1646 10.0138 18.4488L10.0201 18.3183V17.9862C10.0201 17.7407 9.84325 17.5366 9.61 17.4942L9.52012 17.4862ZM5 14.5C4.44677 14.5 3.99829 14.9485 3.99829 15.5017C3.99829 16.0549 4.44677 16.5034 5 16.5034C5.55323 16.5034 6.00171 16.0549 6.00171 15.5017C6.00171 14.9485 5.55323 14.5 5 14.5ZM8.13031 14.7574C7.64811 14.7574 7.25721 15.1483 7.25721 15.6305C7.25721 16.1127 7.64811 16.5036 8.13031 16.5036C8.61251 16.5036 9.00341 16.1127 9.00341 15.6305C9.00341 15.1483 8.61251 14.7574 8.13031 14.7574Z" fill="#212121"/>
</svg>
