<svg width="48" height="48" viewBox="0 0 48 48" fill="none" xmlns="http://www.w3.org/2000/svg">
<path d="M6.5 5.25C6.5 4.55964 7.05964 4 7.75 4C8.44036 4 9 4.55964 9 5.25V42.75C9 43.4404 8.44036 44 7.75 44C7.05964 44 6.5 43.4404 6.5 42.75V5.25ZM11.5 30.25C11.5 27.9028 13.4028 26 15.75 26L30.75 26C33.0972 26 35 27.9028 35 30.25V35.75C35 38.0972 33.0972 40 30.75 40H15.75C13.4028 40 11.5 38.0972 11.5 35.75L11.5 30.25ZM15.75 28.5C14.7835 28.5 14 29.2835 14 30.25L14 35.75C14 36.7165 14.7835 37.5 15.75 37.5H30.75C31.7165 37.5 32.5 36.7165 32.5 35.75V30.25C32.5 29.2835 31.7165 28.5 30.75 28.5L15.75 28.5ZM16 8C13.6528 8 11.75 9.90279 11.75 12.25L11.75 17.75C11.75 20.0972 13.6528 22 16 22H38C40.3472 22 42.25 20.0972 42.25 17.75V12.25C42.25 9.90279 40.3472 8 38 8L16 8ZM14.25 12.25C14.25 11.2835 15.0335 10.5 16 10.5L38 10.5C38.9665 10.5 39.75 11.2835 39.75 12.25V17.75C39.75 18.7165 38.9665 19.5 38 19.5H16C15.0335 19.5 14.25 18.7165 14.25 17.75L14.25 12.25Z" fill="#212121"/>
</svg>
