<svg width="32" height="32" viewBox="0 0 32 32" fill="none" xmlns="http://www.w3.org/2000/svg">
<path d="M3 4C3 3.44772 3.44772 3 4 3C4.55228 3 5 3.44772 5 4V28C5 28.5523 4.55228 29 4 29C3.44772 29 3 28.5523 3 28V4ZM10.5 5C8.567 5 7 6.567 7 8.5L7 11.5C7 13.433 8.567 15 10.5 15L25.5 15C27.433 15 29 13.433 29 11.5V8.5C29 6.567 27.433 5 25.5 5L10.5 5ZM9 8.5C9 7.67157 9.67157 7 10.5 7L25.5 7C26.3284 7 27 7.67157 27 8.5V11.5C27 12.3284 26.3284 13 25.5 13L10.5 13C9.67157 13 9 12.3284 9 11.5L9 8.5ZM10.5 17C8.567 17 7 18.567 7 20.5L7 23.5C7 25.433 8.567 27 10.5 27H19.5C21.433 27 23 25.433 23 23.5V20.5C23 18.567 21.433 17 19.5 17L10.5 17ZM9 20.5C9 19.6716 9.67157 19 10.5 19L19.5 19C20.3284 19 21 19.6716 21 20.5V23.5C21 24.3284 20.3284 25 19.5 25H10.5C9.67157 25 9 24.3284 9 23.5L9 20.5Z" fill="#212121"/>
</svg>
