<svg width="48" height="48" viewBox="0 0 48 48" fill="none" xmlns="http://www.w3.org/2000/svg">
<path d="M6.5 5.25C6.5 4.55964 7.05964 4 7.75 4C8.44036 4 9 4.55964 9 5.25V42.75C9 43.4404 8.44036 44 7.75 44C7.05964 44 6.5 43.4404 6.5 42.75V5.25ZM15.75 26C13.4028 26 11.5 27.9028 11.5 30.25V35.75C11.5 38.0972 13.4028 40 15.75 40H30.75C33.0972 40 35 38.0972 35 35.75V30.25C35 27.9028 33.0972 26 30.75 26L15.75 26ZM14 30.25C14 29.2835 14.7835 28.5 15.75 28.5L30.75 28.5C31.7165 28.5 32.5 29.2835 32.5 30.25V35.75C32.5 36.7165 31.7165 37.5 30.75 37.5H15.75C14.7835 37.5 14 36.7165 14 35.75V30.25ZM11.5 12.25V17.75C11.5 20.0972 13.4028 22 15.75 22H38C40.3472 22 42.25 20.0972 42.25 17.75V12.25C42.25 9.90279 40.3472 8 38 8L15.75 8C13.4028 8 11.5 9.90279 11.5 12.25ZM14 17.75V12.25C14 11.2835 14.7835 10.5 15.75 10.5L38 10.5C38.9665 10.5 39.75 11.2835 39.75 12.25V17.75C39.75 18.7165 38.9665 19.5 38 19.5H15.75C14.7835 19.5 14 18.7165 14 17.75Z" fill="#212121"/>
</svg>
