<svg width="48" height="48" viewBox="0 0 48 48" fill="none" xmlns="http://www.w3.org/2000/svg">
<path d="M6.5 5.25C6.5 4.55964 7.05964 4 7.75 4C8.44036 4 9 4.55964 9 5.25V42.75C9 43.4404 8.44036 44 7.75 44C7.05964 44 6.5 43.4404 6.5 42.75V5.25ZM15.75 26C13.4028 26 11.5 27.9028 11.5 30.25L11.5 35.75C11.5 38.0972 13.4028 40 15.75 40H30.75C33.0972 40 35 38.0972 35 35.75V30.25C35 27.9028 33.0972 26 30.75 26L15.75 26ZM16 8C13.6528 8 11.75 9.90279 11.75 12.25L11.75 17.75C11.75 20.0972 13.6528 22 16 22H38C40.3472 22 42.25 20.0972 42.25 17.75V12.25C42.25 9.90279 40.3472 8 38 8L16 8Z" fill="#212121"/>
</svg>
