<svg width="20" height="20" viewBox="0 0 20 20" fill="none" xmlns="http://www.w3.org/2000/svg">
<path d="M15.5 10C17.9853 10 20 12.0147 20 14.5C20 16.9853 17.9853 19 15.5 19C13.0147 19 11 16.9853 11 14.5C11 12.0147 13.0147 10 15.5 10ZM15.5 12C15.2239 12 15 12.2239 15 12.5V14.5C15 14.7761 15.2239 15 15.5 15H17C17.2761 15 17.5 14.7761 17.5 14.5C17.5 14.2239 17.2761 14 17 14H16V12.5C16 12.2239 15.7761 12 15.5 12ZM15.25 4C16.7688 4 18 5.23122 18 6.75V9.60059C17.6832 9.4386 17.3487 9.30664 17 9.20801V6.75C17 5.7835 16.2165 5 15.25 5H4.75C3.7835 5 3 5.7835 3 6.75V12.25C3 13.2165 3.7835 14 4.75 14H10.0234C10.0086 14.1647 10 14.3314 10 14.5C10 14.6686 10.0086 14.8353 10.0234 15H4.75C3.23122 15 2 13.7688 2 12.25V6.75C2 5.23122 3.23122 4 4.75 4H15.25ZM7.14648 8.14648C7.34175 7.95122 7.65825 7.95122 7.85352 8.14648C8.04878 8.34175 8.04878 8.65825 7.85352 8.85352L7.20703 9.5L7.85352 10.1465C8.04878 10.3417 8.04878 10.6583 7.85352 10.8535C7.65825 11.0488 7.34175 11.0488 7.14648 10.8535L6.5 10.207L5.85352 10.8535C5.65825 11.0488 5.34175 11.0488 5.14648 10.8535C4.95122 10.6583 4.95122 10.3417 5.14648 10.1465L5.79297 9.5L5.14648 8.85352C4.95122 8.65825 4.95122 8.34175 5.14648 8.14648C5.34175 7.95122 5.65825 7.95122 5.85352 8.14648L6.5 8.79297L7.14648 8.14648ZM11.1465 8.14648C11.3417 7.95122 11.6583 7.95122 11.8535 8.14648C12.0488 8.34175 12.0488 8.65825 11.8535 8.85352L11.207 9.5L11.8535 10.1465C11.8976 10.1906 11.9309 10.2412 11.9551 10.2949C11.7168 10.496 11.496 10.7168 11.2949 10.9551C11.2412 10.9309 11.1906 10.8976 11.1465 10.8535L10.5 10.207L9.85352 10.8535C9.65825 11.0488 9.34175 11.0488 9.14648 10.8535C8.95122 10.6583 8.95122 10.3417 9.14648 10.1465L9.79297 9.5L9.14648 8.85352C8.95122 8.65825 8.95122 8.34175 9.14648 8.14648C9.34175 7.95122 9.65825 7.95122 9.85352 8.14648L10.5 8.79297L11.1465 8.14648Z" fill="#212121"/>
</svg>
