<svg width="16" height="16" viewBox="0 0 16 16" fill="none" xmlns="http://www.w3.org/2000/svg">
<path d="M5.00015 3.5C5.00015 2.11943 6.11887 1 7.49972 1C8.88042 1 9.9997 2.11927 9.99972 3.49997V3.49997L10.0001 8.95055C10.6181 9.58133 11 10.4463 11 11.4C11 13.333 9.433 14.9 7.5 14.9C5.567 14.9 4 13.333 4 11.4C4 10.4462 4.38202 9.58114 5.00015 8.95034V3.5ZM7.49972 2C6.67143 2 6.00015 2.67143 6.00015 3.5V9.38726L5.83358 9.53632C5.32125 9.99481 5 10.6595 5 11.4C5 12.7807 6.11929 13.9 7.5 13.9C8.88071 13.9 10 12.7807 10 11.4C10 10.6596 9.67882 9.99497 9.1666 9.53649L9.00008 9.38744L8.99972 3.50003C8.99972 2.6716 8.32815 2 7.49972 2ZM8.0002 5.9999C8.0002 5.72376 7.77634 5.4999 7.5002 5.4999C7.22405 5.4999 7.0002 5.72376 7.0002 5.9999V10.0851C6.4174 10.2909 5.9998 10.8466 5.9998 11.4999C5.9998 12.3283 6.67138 12.9999 7.4998 12.9999C8.32823 12.9999 8.9998 12.3283 8.9998 11.4999C8.9998 10.8469 8.58259 10.2914 8.0002 10.0854V5.9999Z" fill="#212121"/>
</svg>
