<svg width="28" height="28" viewBox="0 0 28 28" fill="none" xmlns="http://www.w3.org/2000/svg">
<path d="M6.75 3C4.67893 3 3 4.67893 3 6.75V14.0218C3.46321 13.7253 3.96653 13.4858 4.5 13.3135V11H9.5V13.7322C10.051 14.0194 10.5557 14.3832 11 14.8096V11L17 11V17L12.5018 17C12.8228 17.7696 13 18.6141 13 19.5C13 20.6592 12.6966 21.7475 12.1648 22.6899L14.4749 25H21.25C23.3211 25 25 23.3211 25 21.25V6.75C25 4.67893 23.3211 3 21.25 3H6.75ZM18.5 23.5V18.5H23.5V21.25C23.5 22.4926 22.4926 23.5 21.25 23.5H18.5ZM23.5 11V17H18.5V11H23.5ZM21.25 4.5C22.4926 4.5 23.5 5.50736 23.5 6.75V9.5H18.5V4.5H21.25ZM6.75 4.5H9.5V9.5H4.5V6.75C4.5 5.50736 5.50736 4.5 6.75 4.5ZM6.5 25C7.74835 25 8.89957 24.5841 9.82264 23.8833L12.7197 26.7803C13.0126 27.0732 13.4874 27.0732 13.7803 26.7803C14.0732 26.4874 14.0732 26.0126 13.7803 25.7197L10.8833 22.8226C11.5841 21.8996 12 20.7484 12 19.5C12 16.4624 9.53757 14 6.5 14C3.46243 14 1 16.4624 1 19.5C1 22.5376 3.46243 25 6.5 25ZM6.5 23.5C4.29086 23.5 2.5 21.7091 2.5 19.5C2.5 17.2909 4.29086 15.5 6.5 15.5C8.70914 15.5 10.5 17.2909 10.5 19.5C10.5 21.7091 8.70914 23.5 6.5 23.5Z" fill="#212121"/>
</svg>
