<svg width="20" height="20" viewBox="0 0 20 20" fill="none" xmlns="http://www.w3.org/2000/svg">
<path d="M16 16C17.1046 16 18 15.1046 18 14V9.41421C18 9.01639 17.842 8.63486 17.5607 8.35355L13.6464 4.43934C13.3651 4.15804 12.9836 4 12.5858 4H4C2.89543 4 2 4.89543 2 6V14C2 15.1046 2.89543 16 4 16L16 16ZM17 14C17 14.5523 16.5523 15 16 15H10L10 5L12 5V8.5C12 9.32843 12.6716 10 13.5 10H17V14ZM9 5L9 15H4C3.44771 15 3 14.5523 3 14L3 6C3 5.44771 3.44772 5 4 5L9 5ZM13 8.5V5.20711L16.7929 9H13.5C13.2239 9 13 8.77614 13 8.5Z" fill="#212121"/>
</svg>
