<svg width="24" height="24" viewBox="0 0 24 24" fill="none" xmlns="http://www.w3.org/2000/svg">
<path d="M10.7878 3.10263C11.283 2.09926 12.7138 2.09925 13.209 3.10263L15.567 7.88036L20.8395 8.6465C21.9468 8.8074 22.3889 10.1682 21.5877 10.9492L20.6828 11.8312C19.7421 11.3019 18.6563 11 17.5 11C13.9101 11 11 13.9101 11 17.5C11 18.1104 11.0841 18.7011 11.2414 19.2612L7.28252 21.3425C6.29213 21.8632 5.13459 21.0222 5.32374 19.9193L6.2244 14.6681L2.40916 10.9492C1.60791 10.1682 2.05005 8.8074 3.15735 8.6465L8.42988 7.88036L10.7878 3.10263ZM14.2782 13.9754C14.593 15.0656 13.9386 16.1991 12.837 16.4716L12.2528 16.6161C12.2079 16.9038 12.1846 17.199 12.1846 17.4998C12.1846 17.8145 12.2101 18.123 12.2592 18.4232L12.7986 18.5532C13.9111 18.8211 14.5725 19.9661 14.2486 21.0636L14.0623 21.6949C14.5014 22.0805 15.0019 22.3937 15.5464 22.6165L16.0397 22.0977C16.8283 21.2685 18.1506 21.2687 18.9388 22.0982L19.4375 22.623C19.9811 22.4027 20.4811 22.0925 20.9204 21.7101L20.7223 21.0242C20.4076 19.9339 21.062 18.8005 22.1635 18.528L22.7472 18.3835C22.7922 18.0958 22.8155 17.8006 22.8155 17.4998C22.8155 17.1851 22.7899 16.8765 22.7409 16.5762L22.2019 16.4464C21.0894 16.1785 20.4281 15.0335 20.7519 13.9359L20.9381 13.3051C20.499 12.9193 19.9985 12.6061 19.4539 12.3833L18.9608 12.9018C18.1722 13.7311 16.85 13.7309 16.0617 12.9013L15.5629 12.3765C15.0193 12.5967 14.5194 12.9068 14.0801 13.2892L14.2782 13.9754ZM17.5 18.9998C16.6994 18.9998 16.0504 18.3282 16.0504 17.4998C16.0504 16.6714 16.6994 15.9998 17.5 15.9998C18.3007 15.9998 18.9497 16.6714 18.9497 17.4998C18.9497 18.3282 18.3007 18.9998 17.5 18.9998Z" fill="#212121"/>
</svg>
