<svg width="16" height="16" viewBox="0 0 16 16" fill="none" xmlns="http://www.w3.org/2000/svg">
<path d="M8 2C11.3137 2 14 4.68629 14 8C14 11.3137 11.3137 14 8 14C4.68629 14 2 11.3137 2 8C2 4.68629 4.68629 2 8 2ZM6 6C6.27614 6 6.5 6.22386 6.5 6.5C6.5 6.77614 6.72386 7 7 7C7.27614 7 7.5 6.77614 7.5 6.5C7.5 5.67157 6.82843 5 6 5C5.17157 5 4.5 5.67157 4.5 6.5C4.5 6.77614 4.72386 7 5 7C5.27614 7 5.5 6.77614 5.5 6.5C5.5 6.22386 5.72386 6 6 6ZM10 6C10.2761 6 10.5 6.22386 10.5 6.5C10.5 6.77614 10.7239 7 11 7C11.2761 7 11.5 6.77614 11.5 6.5C11.5 5.67157 10.8284 5 10 5C9.17157 5 8.5 5.67157 8.5 6.5C8.5 6.77614 8.72386 7 9 7C9.27614 7 9.5 6.77614 9.5 6.5C9.5 6.22386 9.72386 6 10 6ZM4.53516 8.5C4.77777 10.1961 6.23648 11.5 7.99971 11.5C9.76295 11.5 11.2217 10.1961 11.4643 8.5H4.53516Z" fill="#212121"/>
</svg>
