<?xml version="1.0" encoding="UTF-8"?>
<svg width="28px" height="28px" viewBox="0 0 28 28" version="1.1" xmlns="http://www.w3.org/2000/svg" xmlns:xlink="http://www.w3.org/1999/xlink">
    <!-- Generator: Sketch 59.1 (86144) - https://sketch.com -->
    <title>ic_library_28_regular</title>
    <desc>Created with Sketch.</desc>
    <g id="ðŸ”-Product-Icons" stroke="none" stroke-width="1" fill="none" fill-rule="evenodd">
        <g id="ic_library_28_regular" fill="#212121" fill-rule="nonzero">
            <path d="M3.9997,3 L5.9897,3 C7.04351818,3 7.9078157,3.81639669 7.98421089,4.85080841 L7.9897,5 L7.9897,23 C7.9897,24.0538182 7.17330331,24.9181157 6.13889159,24.9945109 L5.9897,25 L3.9997,25 C2.94588182,25 2.0815843,24.1836033 2.00518911,23.1491916 L1.9997,23 L1.9997,5 C1.9997,3.94618182 2.81609669,3.0818843 3.85050841,3.00548911 L3.9997,3 L5.9897,3 L3.9997,3 Z M10.9947,3 L12.9897,3 C14.0435182,3 14.9078157,3.81639669 14.9842109,4.85080841 L14.9897,5 L14.9897,23 C14.9897,24.0538182 14.1733033,24.9181157 13.1388916,24.9945109 L12.9897,25 L10.9947,25 C9.93992727,25 9.07649752,24.1836033 9.00018319,23.1491916 L8.9947,23 L8.9947,5 C8.9947,3.94618182 9.81018554,3.0818843 10.8453842,3.00548911 L10.9947,3 L12.9897,3 L10.9947,3 Z M20.1303,5.0264 C20.9735941,5.0264 21.7460232,5.56408858 22.0232306,6.38601897 L22.0693,6.5434 L25.9293,22.0264 C26.1851182,23.0487182 25.6026719,24.0847037 24.6168316,24.4098625 L24.4733,24.4514 L22.5103,24.9404 C22.3483,24.9804 22.1853,25.0004 22.0253,25.0004 C21.1810647,25.0004 20.4094661,24.4618256 20.1323596,23.6406247 L20.0863,23.4834 L16.2253,8.0004 C15.9704364,6.97617273 16.552926,5.94101157 17.5387684,5.61680139 L17.6823,5.5754 L19.6453,5.0864 C19.8073,5.0464 19.9703,5.0264 20.1303,5.0264 Z M5.9897,4.5 L3.9997,4.5 C3.75525556,4.5 3.55031728,4.67777778 3.50779328,4.91042524 L3.4997,5 L3.4997,23 C3.4997,23.2444444 3.67747778,23.4493827 3.91012524,23.4919067 L3.9997,23.5 L5.9897,23.5 C6.23503333,23.5 6.43928025,23.3222222 6.48163964,23.0895748 L6.4897,23 L6.4897,5 C6.4897,4.75555556 6.31271235,4.55061728 6.07953813,4.50809328 L5.9897,4.5 Z M12.9897,4.5 L10.9947,4.5 C10.7493667,4.5 10.5451198,4.67777778 10.5027604,4.91042524 L10.4947,5 L10.4947,23 C10.4947,23.2444444 10.6716877,23.4493827 10.9048619,23.4919067 L10.9947,23.5 L12.9897,23.5 C13.2350333,23.5 13.4392802,23.3222222 13.4816396,23.0895748 L13.4897,23 L13.4897,5 C13.4897,4.75555556 13.3127123,4.55061728 13.0795381,4.50809328 L12.9897,4.5 Z M20.1303,6.5264 L20.0688,6.53015 L20.0688,6.53015 L20.0073,6.5414 L18.0453,7.0304 C17.8070778,7.08995556 17.6518185,7.31148642 17.6673137,7.54750288 L17.6813,7.6364 L21.5413,23.1204 C21.6063,23.3804 21.8383,23.5004 22.0253,23.5004 L22.086675,23.496525 L22.086675,23.496525 L22.1473,23.4844 L24.1103,22.9954 C24.3485222,22.9358444 24.5037815,22.7151037 24.4882863,22.4785605 L24.4743,22.3894 L20.6133,6.9054 C20.5483,6.6444 20.3173,6.5264 20.1303,6.5264 Z" id="ðŸŽ¨-Color"></path>
        </g>
    </g>
</svg>