<svg width="48" height="48" viewBox="0 0 48 48" fill="none" xmlns="http://www.w3.org/2000/svg">
<path d="M24 6.5C14.335 6.5 6.5 14.335 6.5 24C6.5 27.1879 7.35127 30.1732 8.83805 32.745C9.00741 33.0379 9.05076 33.387 8.95821 33.7125L6.84182 41.1548L14.2824 39.0389C14.6081 38.9463 14.9573 38.9897 15.2503 39.1592C17.8232 40.6477 20.8102 41.5 24 41.5C33.665 41.5 41.5 33.665 41.5 24C41.5 14.335 33.665 6.5 24 6.5ZM4 24C4 12.9543 12.9543 4 24 4C35.0457 4 44 12.9543 44 24C44 35.0457 35.0457 44 24 44C20.5503 44 17.3015 43.1256 14.4665 41.5857L6.23091 43.9276C4.9122 44.3027 3.69397 43.0844 4.06897 41.7657L6.41149 33.5283C4.87331 30.6945 4 27.4475 4 24ZM16 20.25C16 19.5596 16.5596 19 17.25 19H30.75C31.4404 19 32 19.5596 32 20.25C32 20.9404 31.4404 21.5 30.75 21.5H17.25C16.5596 21.5 16 20.9404 16 20.25ZM17.25 26.5C16.5596 26.5 16 27.0596 16 27.75C16 28.4404 16.5596 29 17.25 29H26.75C27.4404 29 28 28.4404 28 27.75C28 27.0596 27.4404 26.5 26.75 26.5H17.25Z" fill="#212121"/>
</svg>
