<svg width="32" height="32" viewBox="0 0 32 32" fill="none" xmlns="http://www.w3.org/2000/svg">
<path d="M15.9991 3C8.8194 3 2.9991 8.81954 2.9991 15.9983C2.9991 18.0725 3.48573 20.0357 4.35171 21.7775L2.65562 26.8651C2.14479 28.3973 3.56759 29.8717 5.11732 29.4159L10.5705 27.8122C12.2236 28.5728 14.0631 28.9966 15.9991 28.9966C23.1788 28.9966 28.9991 23.1771 28.9991 15.9983C28.9991 8.81954 23.1788 3 15.9991 3ZM10.999 13.9986C10.999 13.4464 11.4467 12.9987 11.999 12.9987H19.999C20.5513 12.9987 20.999 13.4464 20.999 13.9986C20.999 14.5508 20.5513 14.9984 19.999 14.9984H11.999C11.4467 14.9984 10.999 14.5508 10.999 13.9986ZM11.999 16.9982H17.999C18.5513 16.9982 18.999 17.4458 18.999 17.998C18.999 18.5503 18.5513 18.9979 17.999 18.9979H11.999C11.4467 18.9979 10.999 18.5503 10.999 17.998C10.999 17.4458 11.4467 16.9982 11.999 16.9982Z" fill="#212121"/>
</svg>
