<svg width="16" height="16" viewBox="0 0 16 16" fill="none" xmlns="http://www.w3.org/2000/svg">
<path d="M8.00001 1C11.866 1 15 4.13401 15 8.00001C15 11.866 11.866 15 8.00001 15C6.70931 14.9999 5.49995 14.6487 4.46192 14.0391L1.6582 14.9746C1.47867 15.0343 1.28031 14.9873 1.14648 14.8535C1.01278 14.7197 0.965639 14.5213 1.02539 14.3418L1.95898 11.5361C1.35016 10.4985 0.999998 9.28975 0.999998 8.00001C0.999998 4.13415 4.1342 1.00023 8.00001 1ZM5.5 9.00001C5.22397 9.00014 5 9.22395 5 9.50001C5 9.77607 5.22397 9.99988 5.5 10H8.50001C8.77615 10 9.00001 9.77615 9.00001 9.50001C9.00001 9.22387 8.77615 9.00001 8.50001 9.00001H5.5ZM5.5 6.00001C5.22397 6.00014 5 6.22395 5 6.50001C5 6.77607 5.22397 6.99987 5.5 7.00001H10.5C10.7762 7.00001 11 6.77615 11 6.50001C11 6.22386 10.7762 6.00001 10.5 6.00001H5.5Z" fill="#212121"/>
</svg>
