<svg width="32" height="32" viewBox="0 0 32 32" fill="none" xmlns="http://www.w3.org/2000/svg">
<path d="M9.5 9C8.67157 9 8 9.67157 8 10.5V15.5C8 16.3284 8.67157 17 9.5 17H22.5C23.3284 17 24 16.3284 24 15.5V10.5C24 9.67157 23.3284 9 22.5 9H9.5ZM9 10.5C9 10.2239 9.22386 10 9.5 10H22.5C22.7761 10 23 10.2239 23 10.5V15.5C23 15.7761 22.7761 16 22.5 16H9.5C9.22386 16 9 15.7761 9 15.5V10.5ZM3 7.5C3 5.01472 5.01472 3 7.5 3H24.5C26.9853 3 29 5.01472 29 7.5V24.5C29 26.9853 26.9853 29 24.5 29H7.5C5.01472 29 3 26.9853 3 24.5V7.5ZM7.5 4C5.567 4 4 5.567 4 7.5V24.5C4 26.433 5.567 28 7.5 28H24.5C26.433 28 28 26.433 28 24.5V7.5C28 5.567 26.433 4 24.5 4H7.5Z" fill="#212121"/>
</svg>
