<svg width="32" height="32" viewBox="0 0 32 32" fill="none" xmlns="http://www.w3.org/2000/svg">
<path d="M9.92272 19.733C9.77524 19.4995 9.46643 19.4298 9.23297 19.5773C8.9995 19.7248 8.9298 20.0336 9.07728 20.267C10.4996 22.5187 13.161 24 16 24C18.839 24 21.5004 22.5187 22.9227 20.267C23.0702 20.0336 23.0005 19.7248 22.767 19.5773C22.5336 19.4298 22.2248 19.4995 22.0773 19.733C20.8425 21.6877 18.5041 23 16 23C13.4958 23 11.1575 21.6877 9.92272 19.733ZM13.5 13C13.5 13.8284 12.8284 14.5 12 14.5C11.1716 14.5 10.5 13.8284 10.5 13C10.5 12.1716 11.1716 11.5 12 11.5C12.8284 11.5 13.5 12.1716 13.5 13ZM20 14.5C20.8284 14.5 21.5 13.8284 21.5 13C21.5 12.1716 20.8284 11.5 20 11.5C19.1716 11.5 18.5 12.1716 18.5 13C18.5 13.8284 19.1716 14.5 20 14.5ZM16 2C8.26801 2 2 8.26801 2 16C2 23.732 8.26801 30 16 30C23.732 30 30 23.732 30 16C30 8.26801 23.732 2 16 2ZM3 16C3 8.8203 8.8203 3 16 3C23.1797 3 29 8.8203 29 16C29 23.1797 23.1797 29 16 29C8.8203 29 3 23.1797 3 16Z" fill="#212121"/>
</svg>
