<svg width="32" height="32" viewBox="0 0 32 32" fill="none" xmlns="http://www.w3.org/2000/svg">
<path d="M19.1464 5.14645C18.9512 5.34171 18.9512 5.65829 19.1464 5.85355L24.2929 11H13C9.13401 11 6 14.134 6 18C6 21.866 9.13401 25 13 25H22.5C22.7761 25 23 24.7761 23 24.5C23 24.2239 22.7761 24 22.5 24H13C9.68629 24 7 21.3137 7 18C7 14.6863 9.68629 12 13 12H24.2929L19.1464 17.1464C18.9512 17.3417 18.9512 17.6583 19.1464 17.8536C19.3417 18.0488 19.6583 18.0488 19.8536 17.8536L25.8536 11.8536C25.9473 11.7598 26 11.6326 26 11.5C26 11.3674 25.9473 11.2402 25.8536 11.1464L19.8536 5.14645C19.6583 4.95118 19.3417 4.95118 19.1464 5.14645Z" fill="#212121"/>
</svg>
