<?xml version="1.0" encoding="UTF-8"?>
<svg width="24px" height="24px" viewBox="0 0 24 24" version="1.1" xmlns="http://www.w3.org/2000/svg" xmlns:xlink="http://www.w3.org/1999/xlink">
    <!-- Generator: Sketch 59.1 (86144) - https://sketch.com -->
    <title>ic_cast_24_regular</title>
    <desc>Created with Sketch.</desc>
    <g id="ðŸ”-Product-Icons" stroke="none" stroke-width="1" fill="none" fill-rule="evenodd">
        <g id="ic_cast_24_regular" fill="#212121" fill-rule="nonzero">
            <path d="M4.25,4 L19.7535891,4 C20.9444531,4 21.919234,4.92516159 21.9983983,6.09595119 L22.0035891,6.25 L22.0035891,17.754591 C22.0035891,18.945455 21.0784275,19.9202359 19.9076379,19.9994002 L19.7535891,20.004591 L15.75,20.004591 C15.3357864,20.004591 15,19.6688046 15,19.254591 C15,18.8748952 15.2821539,18.5611 15.6482294,18.5114376 L15.75,18.504591 L19.7535891,18.504591 C20.1332848,18.504591 20.44708,18.2224371 20.4967425,17.8563616 L20.5035891,17.754591 L20.5035891,6.25 C20.5035891,5.87030423 20.2214352,5.55650904 19.8553596,5.50684662 L19.7535891,5.5 L4.25,5.5 C3.87030423,5.5 3.55650904,5.78215388 3.50684662,6.14822944 L3.5,6.25 L3.5,17.754591 C3.5,18.1342868 3.78215388,18.448082 4.14822944,18.4977444 L4.25,18.504591 L8.24761333,18.504591 C8.66182689,18.504591 8.99761333,18.8403774 8.99761333,19.254591 C8.99761333,19.6342868 8.71545945,19.948082 8.34938389,19.9977444 L8.24761333,20.004591 L4.25,20.004591 C3.05913601,20.004591 2.08435508,19.0794294 2.00519081,17.9086398 L2,17.754591 L2,6.25 C2,5.05913601 2.92516159,4.08435508 4.09595119,4.00519081 L4.25,4 L19.7535891,4 L4.25,4 Z M12,16.7430379 C12.6905314,16.7430379 13.2503176,17.3028242 13.2503176,17.9933556 C13.2503176,18.6838869 12.6905314,19.2436732 12,19.2436732 C11.3094686,19.2436732 10.7496824,18.6838869 10.7496824,17.9933556 C10.7496824,17.3028242 11.3094686,16.7430379 12,16.7430379 Z M9.17336742,15.1715729 C10.7354646,13.6094757 13.2681245,13.6094757 14.8302217,15.1715729 C15.1231149,15.4644661 15.1231149,15.9393398 14.8302217,16.232233 C14.5639551,16.4984996 14.1472914,16.5227057 13.8536799,16.3048512 L13.7695615,16.232233 L13.6495702,16.1197621 C12.6675883,15.2574844 11.1712859,15.2949747 10.2340276,16.232233 C9.94113437,16.5251263 9.46626064,16.5251263 9.17336742,16.232233 C8.8804742,15.9393398 8.8804742,15.4644661 9.17336742,15.1715729 Z M7.05204707,13.0515797 C9.78571712,10.3179097 14.217872,10.3179097 16.951542,13.0515797 C17.2444352,13.3444729 17.2444352,13.8193467 16.951542,14.1122399 C16.6586488,14.4051331 16.1837751,14.4051331 15.8908818,14.1122399 C13.7429982,11.9643563 10.2605908,11.9643563 8.11270724,14.1122399 C7.81981403,14.4051331 7.34494029,14.4051331 7.05204707,14.1122399 C6.75915385,13.8193467 6.75915385,13.3444729 7.05204707,13.0515797 Z M12,8.0046246 C14.5349075,8.0046246 16.9237534,8.95253997 18.7549352,10.6308908 C19.0602938,10.9107641 19.0809537,11.3851882 18.8010805,11.6905467 C18.5212072,11.9959053 18.0467831,12.0165652 17.7414246,11.736692 C16.1842385,10.3094692 14.1559461,9.5046246 12,9.5046246 C9.84149132,9.5046246 7.81097028,10.3113956 6.25314867,11.7416701 C5.94803113,12.0218061 5.47358941,12.0015545 5.19345345,11.696437 C4.91331749,11.3913194 4.93356907,10.9168777 5.23868662,10.6367417 C7.07061058,8.95480707 9.46207668,8.0046246 12,8.0046246 Z" id="ðŸŽ¨-Color"></path>
        </g>
    </g>
</svg>