<svg width="24" height="24" viewBox="0 0 24 24" fill="none" xmlns="http://www.w3.org/2000/svg">
<path d="M15.2071 6.20711C14.8166 6.59763 14.1834 6.59763 13.7929 6.20711L13 5.41421V9C13 9.55228 12.5523 10 12 10C11.4477 10 11 9.55228 11 9L11 5.41421L10.2071 6.20711C9.81658 6.59763 9.18342 6.59763 8.79289 6.20711C8.40237 5.81658 8.40237 5.18342 8.79289 4.79289L11.2929 2.29289C11.3888 2.19702 11.4993 2.12468 11.6172 2.07588C11.7343 2.02735 11.8625 2.0004 11.997 2L12 2L12.003 2C12.2579 2.00076 12.5126 2.09839 12.7071 2.29289L15.2071 4.79289C15.5976 5.18342 15.5976 5.81658 15.2071 6.20711ZM5 11C4.44772 11 4 11.4477 4 12C4 12.5523 4.44772 13 5 13H19C19.5523 13 20 12.5523 20 12C20 11.4477 19.5523 11 19 11H5ZM12.0092 22C12.1415 21.9988 12.2676 21.9719 12.3828 21.9241C12.5007 21.8753 12.6112 21.803 12.7071 21.7071L15.2071 19.2071C15.5976 18.8166 15.5976 18.1834 15.2071 17.7929C14.8166 17.4024 14.1834 17.4024 13.7929 17.7929L13 18.5858V15C13 14.4477 12.5523 14 12 14C11.4477 14 11 14.4477 11 15L11 18.5858L10.2071 17.7929C9.81658 17.4024 9.18342 17.4024 8.79289 17.7929C8.40237 18.1834 8.40237 18.8166 8.79289 19.2071L11.2929 21.7071C11.4858 21.9 11.7379 21.9976 11.9908 22" fill="#212121"/>
</svg>
