<svg width="12" height="12" viewBox="0 0 12 12" fill="none" xmlns="http://www.w3.org/2000/svg">
<path d="M1 6C1 5.72386 1.22386 5.5 1.5 5.5H5.29289L4.14645 4.35355C3.95118 4.15829 3.95118 3.84171 4.14645 3.64645C4.34171 3.45118 4.65829 3.45118 4.85355 3.64645L6.85355 5.64645C7.04882 5.84171 7.04882 6.15829 6.85355 6.35355L4.85355 8.35355C4.65829 8.54882 4.34171 8.54882 4.14645 8.35355C3.95118 8.15829 3.95118 7.84171 4.14645 7.64645L5.29289 6.5H1.5C1.22386 6.5 1 6.27614 1 6ZM11 6C11 5.17157 10.3284 4.5 9.5 4.5C8.67157 4.5 8 5.17157 8 6C8 6.82843 8.67157 7.5 9.5 7.5C10.3284 7.5 11 6.82843 11 6Z" fill="#212121"/>
</svg>
