<svg width="16" height="16" viewBox="0 0 16 16" fill="none" xmlns="http://www.w3.org/2000/svg">
<path d="M4 2C2.89543 2 2 2.89543 2 4V5.33682C2.31085 5.18915 2.64693 5.08595 3 5.03544V4C3 3.44772 3.44772 3 4 3H7V3.5C7 4.32843 7.67157 5 8.5 5H13V12C13 12.5523 12.5523 13 12 13H10.9646C10.9141 13.3531 10.8109 13.6891 10.6632 14H12C13.1046 14 14 13.1046 14 12V4C14 2.89543 13.1046 2 12 2H4ZM13 4H8.5C8.22386 4 8 3.77614 8 3.5V3H12C12.5523 3 13 3.44772 13 4ZM1 8.5C1 7.11929 2.11929 6 3.5 6H7.5C8.88071 6 10 7.11929 10 8.5V12.5C10 13.0095 9.84756 13.4835 9.5858 13.8787L6.56066 10.8536C5.97487 10.2678 5.02513 10.2678 4.43934 10.8536L1.4142 13.8787C1.15244 13.4835 1 13.0095 1 12.5V8.5ZM8 8.75C8 8.33579 7.66421 8 7.25 8C6.83579 8 6.5 8.33579 6.5 8.75C6.5 9.16421 6.83579 9.5 7.25 9.5C7.66421 9.5 8 9.16421 8 8.75ZM2.12131 14.5858C2.51652 14.8476 2.99046 15 3.5 15H7.5C8.00954 15 8.48348 14.8476 8.87869 14.5858L5.85355 11.5607C5.65829 11.3654 5.34171 11.3654 5.14645 11.5607L2.12131 14.5858Z" fill="#212121"/>
</svg>
