<?xml version="1.0" encoding="UTF-8"?>
<svg width="24px" height="24px" viewBox="0 0 24 24" version="1.1" xmlns="http://www.w3.org/2000/svg" xmlns:xlink="http://www.w3.org/1999/xlink">
    <!-- Generator: Sketch 59.1 (86144) - https://sketch.com -->
    <title>ic_fluent_office_skype_for_business_24_mono</title>
    <desc>Created with Sketch.</desc>
    <g id="ðŸ”-Brand-Icons" stroke="none" stroke-width="1" fill="none" fill-rule="evenodd">
        <g id="ic_fluent_office_skype_for_business_24_mono" fill="#212121" fill-rule="nonzero">
            <path d="M8.25482699,3 C9.05171687,3 9.84204401,3.18422314 10.5624363,3.53473485 C11.0371798,3.45389783 11.5215068,3.41293237 12.0042472,3.41293237 C13.1549172,3.41293237 14.2727378,3.63938639 15.3236017,4.08550053 C16.3391886,4.51568008 17.2524554,5.13262847 18.0332658,5.91615286 C18.8163937,6.70019144 19.4317919,7.61471476 19.8616387,8.6329889 C20.3065026,9.6857713 20.5319596,10.8060915 20.5319596,11.9604096 C20.5319596,12.4172941 20.4944367,12.8773253 20.4207559,13.3327089 C20.800426,14.0749828 21,14.898666 21,15.7338452 C21,17.1403757 20.4525082,18.4654139 19.4606973,19.4576418 C18.4694167,20.4521608 17.1492114,21 15.7460224,21 C14.9004432,21 14.0689577,20.7952975 13.320966,20.4052735 C12.8835481,20.4737043 12.4413619,20.5087382 12.0042472,20.5087382 C10.8534917,20.5087382 9.73477492,20.2819206 8.68539267,19.8355301 C7.67195652,19.407546 6.75969384,18.7908943 5.97417297,18.0044598 C5.19128307,17.2197554 4.57618288,16.3049989 4.14770511,15.2878302 C3.7024652,14.234158 3.47653483,13.1137465 3.47653483,11.9604096 C3.47653483,11.636806 3.49547122,11.310975 3.53278884,10.9861104 L3.57621297,10.6616861 L3.45700344,10.4123215 C3.15693196,9.73965358 3,9.00754697 3,8.2670062 C3,6.86119803 3.54721081,5.53683976 4.53862242,4.54218851 C5.53033346,3.54817896 6.8515017,3 8.25482699,3 Z M8.25482699,4.01357982 C7.11961962,4.01357982 6.05568618,4.45502695 5.25384362,5.25872788 C4.45199143,6.06320035 4.01123606,7.12991542 4.01123606,8.2670062 C4.01123606,8.98778423 4.1956584,9.69927045 4.5446111,10.3279267 C4.6008594,10.4292609 4.62073486,10.546865 4.60092074,10.6611136 C4.52602238,11.0929792 4.48777088,11.5295751 4.48777088,11.9604096 C4.48777088,12.9782384 4.68658971,13.964201 5.07908582,14.8930544 C5.45695232,15.7900756 5.99845377,16.5953786 6.68901872,17.2875442 C7.38234749,17.9816793 8.18538483,18.5244992 9.07924303,18.9019861 C10.0045295,19.2955866 10.9888635,19.4951584 12.0042472,19.4951584 C12.4405255,19.4951584 12.8840497,19.4553477 13.3210346,19.3777688 C13.4366385,19.3572454 13.5557648,19.3776844 13.6579763,19.4355794 C14.2950109,19.7964106 15.0140168,19.9864202 15.7460224,19.9864202 C16.8809996,19.9864202 17.9438041,19.5453934 18.745815,18.7407631 C19.5479392,17.9383011 19.9887639,16.8714181 19.9887639,15.7338452 C19.9887639,15.0106811 19.8031485,14.297506 19.4513171,13.6647264 C19.3941633,13.5619334 19.3744804,13.4424086 19.3956453,13.3266585 C19.4784801,12.8736383 19.5207235,12.4147072 19.5207235,11.9604096 C19.5207235,10.9414663 19.3223251,9.95560283 18.9304065,9.02811675 C18.5513432,8.13014511 18.0095469,7.3249992 17.3182139,6.63286166 C16.629227,5.94148053 15.8252365,5.39835265 14.9295903,5.01897706 C14.0034051,4.62579182 13.0197224,4.42651219 12.0042472,4.42651219 C11.5267466,4.42651219 11.047159,4.47196742 10.5803705,4.56138975 C10.4677196,4.5829702 10.3510957,4.56552193 10.2496426,4.51190907 C9.63209303,4.18556521 8.94554766,4.01357982 8.25482699,4.01357982 Z M11.8714324,6.70688809 C13.6258633,6.70688809 15.6939987,7.67876966 15.6939987,8.97398252 C15.6939987,9.52895817 15.2145636,9.85175014 14.6667916,9.85175014 C13.6258633,9.85175014 13.8174221,8.40768083 11.7207682,8.40768083 C10.6803779,8.40768083 10.1040873,8.87986857 10.1040873,9.55565526 C10.1040873,10.2300936 10.9257454,10.4455579 11.639248,10.6084371 L13.5155556,11.0258823 C15.5707769,11.4848563 16.0919137,12.6875732 16.0919137,13.8204463 C16.0919137,15.5749029 14.7483117,16.8849474 12.0366249,16.8849474 C9.18664987,16.8849474 7.91165396,15.4805192 7.91165396,14.4280071 C7.91165396,13.8881328 8.30929987,13.5097893 8.85734095,13.5097893 C10.0769139,13.5097893 9.76105719,15.2650549 12.0366249,15.2650549 C13.2015821,15.2650549 13.8448645,14.6310667 13.8448645,13.9822468 C13.8448645,13.592038 13.6527676,13.1594913 12.8857254,12.9699151 L10.3508,12.3356572 C8.30929987,11.82248 7.93882733,10.716304 7.93882733,9.67646628 C7.93882733,7.51750851 9.96687527,6.70688809 11.8714324,6.70688809 Z" id="ðŸŽ¨-Color"></path>
        </g>
    </g>
</svg>