<svg width="16" height="16" viewBox="0 0 16 16" fill="none" xmlns="http://www.w3.org/2000/svg">
<path d="M4.99969 2.50195C4.99969 2.22581 4.77584 2.00195 4.49969 2.00195C4.22355 2.00195 3.99969 2.22581 3.99969 2.50195V2.82536C2.84797 3.13426 2 4.18541 2 5.43461V5.52906C2 6.63065 2.64689 7.62954 3.65209 8.08015L3.99969 8.23598V12.1108C3.41034 11.8436 3 11.2502 3 10.5604V9.83812C3 9.56198 2.77614 9.33812 2.5 9.33812C2.22386 9.33812 2 9.56198 2 9.83812V10.5604C2 11.8102 2.84852 12.8609 3.99969 13.1697V13.5055C3.99969 13.7816 4.22355 14.0055 4.49969 14.0055C4.77584 14.0055 4.99969 13.7816 4.99969 13.5055V13.2454C6.35193 13.0967 7.40249 11.9507 7.40248 10.5604L7.40248 10.4722C7.40248 9.37293 6.75693 8.3761 5.7538 7.92642L4.99969 7.58837V3.75946C5.79695 3.90054 6.40248 4.59686 6.40249 5.4346L6.40249 6.16866C6.40249 6.4448 6.62635 6.66866 6.90249 6.66866C7.17863 6.66866 7.40249 6.4448 7.40249 6.16866L7.40249 5.4346C7.40248 4.04362 6.35111 2.8982 4.99969 2.74967V2.50195ZM3.99969 3.88429V7.13869C3.38925 6.83696 3 6.21391 3 5.52906V5.43461C3 4.74517 3.41011 4.15151 3.99969 3.88429ZM4.99969 8.68426L5.34474 8.83893C5.98831 9.12743 6.40248 9.76697 6.40248 10.4722L6.40248 10.5604C6.40248 11.3978 5.79739 12.0944 4.99969 12.2356V8.68426Z" fill="#212121"/>
<path d="M7.99976 3.49963C7.99976 3.22349 8.22362 2.99963 8.49976 2.99963H13.4998C13.7759 2.99963 13.9998 3.22349 13.9998 3.49963C13.9998 3.77578 13.7759 3.99963 13.4998 3.99963H12.4999C12.7183 4.29034 12.8748 4.63019 12.9498 4.99963H13.4998C13.7759 4.99963 13.9998 5.22349 13.9998 5.49963C13.9998 5.77578 13.7759 5.99963 13.4998 5.99963H12.9498C12.7181 7.14075 11.7092 7.99963 10.4998 7.99963H9.56728L13.8839 13.1795C14.0607 13.3917 14.032 13.707 13.8199 13.8837C13.6077 14.0605 13.2924 14.0319 13.1157 13.8197L8.11565 7.81973C7.99145 7.67068 7.96468 7.46325 8.04697 7.28756C8.12926 7.11186 8.30575 6.99963 8.49976 6.99963H10.4998C11.1529 6.99963 11.7085 6.58223 11.9144 5.99963H8.49976C8.22362 5.99963 7.99976 5.77578 7.99976 5.49963C7.99976 5.22349 8.22362 4.99963 8.49976 4.99963H11.9144C11.7085 4.41704 11.1529 3.99963 10.4998 3.99963H8.49976C8.22362 3.99963 7.99976 3.77578 7.99976 3.49963Z" fill="#212121"/>
</svg>
