<?xml version="1.0" encoding="UTF-8"?>
<svg width="20px" height="20px" viewBox="0 0 20 20" version="1.1" xmlns="http://www.w3.org/2000/svg" xmlns:xlink="http://www.w3.org/1999/xlink">
    <!-- Generator: Sketch 64 (93537) - https://sketch.com -->
    <title>ic_fluent_zoom_in_20_regular</title>
    <desc>Created with Sketch.</desc>
    <g id="ðŸ”-System-Icons" stroke="none" stroke-width="1" fill="none" fill-rule="evenodd">
        <g id="ic_fluent_zoom_in_20_regular" fill="#212121" fill-rule="nonzero">
            <path d="M8.5,3 C11.5376,3 14,5.46243 14,8.5 C14,9.83879 13.5217,11.0659 12.7266,12.0196 L16.8536,16.1464 C17.0488,16.3417 17.0488,16.6583 16.8536,16.8536 C16.68,17.0271 16.4106,17.0464 16.2157,16.9114 L16.1464,16.8536 L12.0196,12.7266 C11.0659,13.5217 9.83879,14 8.5,14 C5.46243,14 3,11.5376 3,8.5 C3,5.46243 5.46243,3 8.5,3 Z M8.5,4 C6.01472,4 4,6.01472 4,8.5 C4,10.9853 6.01472,13 8.5,13 C10.9853,13 13,10.9853 13,8.5 C13,6.01472 10.9853,4 8.5,4 Z M8.5,5.5 C8.74545778,5.5 8.9496079,5.67687704 8.99194425,5.91012499 L9,6 L9,8 L11,8 C11.2761,8 11.5,8.22386 11.5,8.5 C11.5,8.74545778 11.3230914,8.9496079 11.0898645,8.99194425 L11,9 L9,9 L9,11 C9,11.2761 8.77614,11.5 8.5,11.5 C8.25454222,11.5 8.0503921,11.3230914 8.00805575,11.0898645 L8,11 L8,9 L6,9 C5.72386,9 5.5,8.77614 5.5,8.5 C5.5,8.25454222 5.67687704,8.0503921 5.91012499,8.00805575 L6,8 L8,8 L8,6 C8,5.72386 8.22386,5.5 8.5,5.5 Z" id="ðŸŽ¨-Color"></path>
        </g>
    </g>
</svg>