<svg width="20" height="20" viewBox="0 0 20 20" fill="none" xmlns="http://www.w3.org/2000/svg">
<path d="M8.5 5.5C8.77614 5.5 9 5.72386 9 6V8H11C11.2761 8 11.5 8.22386 11.5 8.5C11.5 8.77614 11.2761 9 11 9H9V11C9 11.2761 8.77614 11.5 8.5 11.5C8.22386 11.5 8 11.2761 8 11V9H6C5.72386 9 5.5 8.77614 5.5 8.5C5.5 8.22386 5.72386 8 6 8H8V6C8 5.72386 8.22386 5.5 8.5 5.5ZM8.5 2C12.0899 2 15 4.91015 15 8.5C15 10.115 14.4114 11.5927 13.4365 12.7295L16.8535 16.1465C17.0487 16.3417 17.0487 16.6583 16.8535 16.8535C16.68 17.0271 16.4107 17.0461 16.2158 16.9111L16.1465 16.8535L12.7295 13.4365C11.5927 14.4114 10.115 15 8.5 15C4.91015 15 2 12.0899 2 8.5C2 4.91015 4.91015 2 8.5 2ZM8.5 3C5.46243 3 3 5.46243 3 8.5C3 11.5376 5.46243 14 8.5 14C9.83877 14 11.0658 13.5216 12.0195 12.7266C12.276 12.5128 12.5128 12.276 12.7266 12.0195C13.5216 11.0658 14 9.83877 14 8.5C14 5.46243 11.5376 3 8.5 3Z" fill="#212121"/>
</svg>
