<?xml version="1.0" encoding="UTF-8"?>
<svg width="24px" height="24px" viewBox="0 0 24 24" version="1.1" xmlns="http://www.w3.org/2000/svg" xmlns:xlink="http://www.w3.org/1999/xlink">
    <!-- Generator: Sketch 64 (93537) - https://sketch.com -->
    <title>ic_fluent_zoom_in_24_filled</title>
    <desc>Created with Sketch.</desc>
    <g id="ðŸ”-System-Icons" stroke="none" stroke-width="1" fill="none" fill-rule="evenodd">
        <g id="ic_fluent_zoom_in_24_filled" fill="#212121" fill-rule="nonzero">
            <path d="M10,2.5 C14.1421,2.5 17.5,5.85786 17.5,10 C17.5,11.7101 16.9276,13.2866 15.964,14.5483 L15.964,14.5483 L20.7071,19.2929 C21.0976,19.6834 21.0976,20.3166 20.7071,20.7071 C20.3466,21.0676 19.7794,21.0953 19.3871,20.7903 L19.3871,20.7903 L19.2929,20.7071 L14.5483,15.964 C13.2866,16.9276 11.7101,17.5 10,17.5 C5.85786,17.5 2.5,14.1421 2.5,10 C2.5,5.85786 5.85786,2.5 10,2.5 Z M10,5.5 C9.44771,5.5 9,5.94772 9,6.5 L9,9 L6.5,9 C5.94771,9 5.5,9.44772 5.5,10 C5.5,10.5523 5.94771,11 6.5,11 L9,11 L9,13.5 C9,14.0523 9.44771,14.5 10,14.5 C10.5523,14.5 11,14.0523 11,13.5 L11,11 L13.5,11 C14.0523,11 14.5,10.5523 14.5,10 C14.5,9.44772 14.0523,9 13.5,9 L11,9 L11,6.5 C11,5.94772 10.5523,5.5 10,5.5 Z" id="ðŸŽ¨-Color"></path>
        </g>
    </g>
</svg>