<svg width="24" height="24" viewBox="0 0 24 24" fill="none" xmlns="http://www.w3.org/2000/svg">
<path d="M10 2C14.4183 2 18 5.58172 18 10C18 11.9391 17.3098 13.7168 16.1621 15.1016L20.7803 19.7197C21.0731 20.0126 21.0731 20.4874 20.7803 20.7803C20.4874 21.0732 20.0126 21.0732 19.7197 20.7803L15.1016 16.1621C13.7168 17.3098 11.9391 18 10 18C5.58172 18 2 14.4183 2 10C2 5.58172 5.58172 2 10 2ZM10 5.5C9.44771 5.5 9 5.94772 9 6.5V9H6.5C5.94772 9 5.5 9.44772 5.5 10C5.5 10.5523 5.94772 11 6.5 11H9V13.5C9 14.0523 9.44771 14.5 10 14.5C10.5523 14.5 11 14.0523 11 13.5V11H13.5C14.0523 11 14.5 10.5523 14.5 10C14.5 9.44772 14.0523 9 13.5 9H11V6.5C11 5.94772 10.5523 5.5 10 5.5Z" fill="#212121"/>
</svg>
