<svg width="12" height="12" viewBox="0 0 12 12" fill="none" xmlns="http://www.w3.org/2000/svg">
<path d="M6.5 1C6.22386 1 6 1.22386 6 1.5V3H4V5H2.5C2.22386 5 2 5.22386 2 5.5C2 5.77614 2.22386 6 2.5 6H4V8H6V9.5C6 9.77614 6.22386 10 6.5 10C6.77614 10 7 9.77614 7 9.5V8H9V7H8.5C7.67157 7 7 6.32843 7 5.5C7 4.67157 7.67157 4 8.5 4H9V3H7V1.5C7 1.22386 6.77614 1 6.5 1ZM5 1.5C5 0.671573 5.67157 0 6.5 0C7.32843 0 8 0.671573 8 1.5V2H9C9.55229 2 10 2.44772 10 3V5H8.5C8.22386 5 8 5.22386 8 5.5C8 5.77614 8.22386 6 8.5 6H10V8C10 8.55229 9.55229 9 9 9H8V9.5C8 10.3284 7.32843 11 6.5 11C5.67157 11 5 10.3284 5 9.5V9H4C3.44772 9 3 8.55229 3 8V7H2.5C1.67157 7 1 6.32843 1 5.5C1 4.67157 1.67157 4 2.5 4H3V3C3 2.44772 3.44772 2 4 2H5V1.5Z" fill="#212121"/>
</svg>
