<svg width="12" height="12" viewBox="0 0 12 12" fill="none" xmlns="http://www.w3.org/2000/svg">
<path d="M6.71825 1.54556C6.42479 0.950961 5.57692 0.95096 5.28347 1.54556L4.17174 3.79811L1.68584 4.15934C1.25906 4.22135 0.999018 4.58415 1 4.95758C1.00052 5.15832 1.07646 5.36213 1.24246 5.52394L3.04128 7.27736L2.61664 9.75316C2.60963 9.79403 2.60574 9.83428 2.60475 9.87377C2.60362 9.91915 2.60631 9.96352 2.6125 10.0066C2.68708 10.5261 3.26935 10.8637 3.7774 10.5966L6.00086 9.42761L8.22431 10.5966C8.81122 10.9051 9.49716 10.4067 9.38507 9.75321L8.96043 7.27736L10.7592 5.52394C11.2341 5.06112 10.9721 4.25474 10.3159 4.15939L7.82997 3.79817L6.71825 1.54556ZM5 8.82402V4.37639C5.00769 4.36286 5.01501 4.34907 5.02194 4.33502L6.00086 2.35152L6.97977 4.33502C7.0963 4.57114 7.32156 4.73479 7.58212 4.77265L9.77105 5.09072L8.18713 6.63466C7.99858 6.81845 7.91254 7.08325 7.95705 7.34277L8.33096 9.52285L6.37313 8.49355C6.14007 8.37103 5.86164 8.37103 5.62858 8.49355L5 8.82402Z" fill="#212121"/>
</svg>
