<svg width="16" height="16" viewBox="0 0 16 16" fill="none" xmlns="http://www.w3.org/2000/svg">
<path d="M12 10.793V13C12 13.5523 11.5523 14 11 14H3C2.44772 14 2 13.5523 2 13V8.87552L6.76305 11.4402C6.91104 11.5199 7.08916 11.5199 7.23715 11.4402L8.64816 10.6805C8.25794 10.541 7.88809 10.3586 7.54428 10.1391L7.0001 10.4321L2 7.73976V7C2 6.44772 2.44772 6 3 6H5.02242C5.00758 5.83532 5 5.66854 5 5.5C5 5.33146 5.00758 5.16468 5.02242 5H3C1.89543 5 1 5.89543 1 7V13C1 14.1046 1.89543 15 3 15H11C12.1046 15 13 14.1046 13 13V10.4003C12.6832 10.5622 12.3486 10.6944 12 10.793ZM6 5.5C6 7.98528 8.01472 10 10.5 10C12.9853 10 15 7.98528 15 5.5C15 3.01472 12.9853 1 10.5 1C8.01472 1 6 3.01472 6 5.5ZM11.3964 2.89645C11.5917 2.70118 11.9083 2.70118 12.1036 2.89645L13.8536 4.64645C13.9015 4.69439 13.9377 4.74964 13.9621 4.80861C13.9865 4.86756 14 4.93221 14 5C14 5.06779 13.9865 5.13244 13.9621 5.19139C13.938 5.24949 13.9026 5.30398 13.8557 5.35143L12.1036 7.10355C11.9083 7.29882 11.5917 7.29882 11.3964 7.10355C11.2012 6.90829 11.2012 6.59171 11.3964 6.39645L12.2929 5.5H10.75C9.7835 5.5 9 6.2835 9 7.25V7.5C9 7.77614 8.77614 8 8.5 8C8.22386 8 8 7.77614 8 7.5V7.25C8 5.73122 9.23122 4.5 10.75 4.5H12.2929L11.3964 3.60355C11.2012 3.40829 11.2012 3.09171 11.3964 2.89645Z" fill="#212121"/>
</svg>
