<svg width="16" height="16" viewBox="0 0 16 16" fill="none" xmlns="http://www.w3.org/2000/svg">
<path d="M8 1C11.866 1 15 4.13401 15 8V12.5C15 13.8807 13.8807 15 12.5 15C12.2239 15 12 14.7761 12 14.5V9.5C12 9.22386 12.2239 9 12.5 9H14V8C14 4.68629 11.3137 2 8 2C4.68629 2 2 4.68629 2 8V9H3.5C3.77614 9 4 9.22386 4 9.5V14.5C4 14.7761 3.77614 15 3.5 15C2.20566 15 1.14082 14.0164 1.0127 12.7559L1 12.5V8C1 4.13401 4.13401 1 8 1ZM8 7.5C8.27614 7.5 8.5 7.72386 8.5 8V14C8.5 14.2761 8.27614 14.5 8 14.5C7.72386 14.5 7.5 14.2761 7.5 14V8C7.5 7.72386 7.72386 7.5 8 7.5ZM5.5 9C5.77614 9 6 9.22386 6 9.5V12.5C6 12.7761 5.77614 13 5.5 13C5.22386 13 5 12.7761 5 12.5V9.5C5 9.22386 5.22386 9 5.5 9ZM10.5 9C10.7761 9 11 9.22386 11 9.5V12.5C11 12.7761 10.7761 13 10.5 13C10.2239 13 10 12.7761 10 12.5V9.5C10 9.22386 10.2239 9 10.5 9Z" fill="#212121"/>
</svg>
