<svg width="20" height="20" viewBox="0 0 20 20" fill="none" xmlns="http://www.w3.org/2000/svg">
<path d="M6 2C4.89543 2 4 2.89543 4 4V16C4 17.1046 4.89543 18 6 18H10.2572C9.55448 17.1491 9.10279 16.0834 9.0155 14.916C8.38135 14.8006 7.84893 14.5684 7.4347 14.2318C6.81218 13.726 6.5 13.0181 6.5 12.25C6.5 11.5596 7.05964 11 7.75 11H10.2572C11.266 9.7785 12.7921 9 14.5 9C15.02 9 15.5232 9.07217 16 9.20703V4C16 2.89543 15.1046 2 14 2H6ZM8.5 4H11.5C11.7761 4 12 4.22386 12 4.5C12 4.77614 11.7761 5 11.5 5H8.5C8.22386 5 8 4.77614 8 4.5C8 4.22386 8.22386 4 8.5 4ZM8 8C8 6.89543 8.89543 6 10 6C11.1046 6 12 6.89543 12 8C12 9.10457 11.1046 10 10 10C8.89543 10 8 9.10457 8 8ZM19 14.5C19 16.9853 16.9853 19 14.5 19C12.0147 19 10 16.9853 10 14.5C10 12.0147 12.0147 10 14.5 10C16.9853 10 19 12.0147 19 14.5ZM15 12.5C15 12.2239 14.7761 12 14.5 12C14.2239 12 14 12.2239 14 12.5V14H12.5C12.2239 14 12 14.2239 12 14.5C12 14.7761 12.2239 15 12.5 15H14V16.5C14 16.7761 14.2239 17 14.5 17C14.7761 17 15 16.7761 15 16.5V15H16.5C16.7761 15 17 14.7761 17 14.5C17 14.2239 16.7761 14 16.5 14H15V12.5Z" fill="#212121"/>
</svg>
