<svg width="24" height="25" viewBox="0 0 24 25" fill="none" xmlns="http://www.w3.org/2000/svg">
<path d="M7 7.5V5.5C7 3.84315 8.34315 2.5 10 2.5C10.7684 2.5 11.4692 2.78886 12 3.2639C12.5308 2.78885 13.2317 2.5 14 2.5C15.6569 2.5 17 3.84315 17 5.5V7.5H18.5C19.3284 7.5 20 8.17157 20 9V11.9982C19.5258 11.8004 19.0232 11.6572 18.5 11.5764V9H14.51V12.227C13.9592 12.5129 13.4545 12.8752 13.01 13.3V9H5.5V18.5C5.5 19.8807 6.61929 21 8 21H11.7322C12.0194 21.551 12.3832 22.0557 12.8096 22.5H8C5.79086 22.5 4 20.7091 4 18.5V9C4 8.17157 4.67157 7.5 5.5 7.5H7ZM11.5 7.5V5.5C11.5 4.67157 10.8284 4 10 4C9.17157 4 8.5 4.67157 8.5 5.5V7.5H11.5ZM13 7.5H15.5V5.5C15.5 4.67157 14.8284 4 14 4C13.535 4 13.1195 4.21156 12.8444 4.54368C12.9453 4.84403 13 5.16563 13 5.5V7.5ZM23 18C23 21.0376 20.5376 23.5 17.5 23.5C14.4624 23.5 12 21.0376 12 18C12 14.9624 14.4624 12.5 17.5 12.5C20.5376 12.5 23 14.9624 23 18ZM15.5 15C15.2239 15 15 15.2239 15 15.5V20.5C15 20.7761 15.2239 21 15.5 21C15.7761 21 16 20.7761 16 20.5V15.5C16 15.2239 15.7761 15 15.5 15ZM19.5 15C19.2239 15 19 15.2239 19 15.5V20.5C19 20.7761 19.2239 21 19.5 21C19.7761 21 20 20.7761 20 20.5V15.5C20 15.2239 19.7761 15 19.5 15Z" fill="#212121"/>
</svg>
