<svg width="48" height="48" viewBox="0 0 48 48" fill="none" xmlns="http://www.w3.org/2000/svg">
<path d="M10.25 8C6.79822 8 4 10.7982 4 14.25V33.75C4 37.2018 6.79822 40 10.25 40H37.75C41.2018 40 44 37.2018 44 33.75V14.25C44 10.7982 41.2018 8 37.75 8H10.25ZM22.75 10.5V37.5H10.25C8.17893 37.5 6.5 35.8211 6.5 33.75V14.25C6.5 12.1789 8.17893 10.5 10.25 10.5H22.75ZM25.25 37.5V10.5H37.75C39.8211 10.5 41.5 12.1789 41.5 14.25V33.75C41.5 35.8211 39.8211 37.5 37.75 37.5H25.25ZM38.3839 26.3839L34.1339 30.6339C33.6457 31.122 32.8543 31.122 32.3661 30.6339L28.1161 26.3839C27.628 25.8957 27.628 25.1043 28.1161 24.6161C28.6043 24.128 29.3957 24.128 29.8839 24.6161L32 26.7322V18.25C32 17.5596 32.5596 17 33.25 17C33.9404 17 34.5 17.5596 34.5 18.25V26.7322L36.6161 24.6161C37.1043 24.128 37.8957 24.128 38.3839 24.6161C38.872 25.1043 38.872 25.8957 38.3839 26.3839ZM13.8661 17.3661C14.3543 16.878 15.1457 16.878 15.6339 17.3661L19.8839 21.6161C20.372 22.1043 20.372 22.8957 19.8839 23.3839C19.3957 23.872 18.6043 23.872 18.1161 23.3839L16 21.2678V29.75C16 30.4404 15.4404 31 14.75 31C14.0596 31 13.5 30.4404 13.5 29.75V21.2678L11.3839 23.3839C10.8957 23.872 10.1043 23.872 9.61612 23.3839C9.12796 22.8957 9.12796 22.1043 9.61612 21.6161L13.8661 17.3661Z" fill="#212121"/>
</svg>
