<?xml version="1.0" encoding="UTF-8"?>
<svg width="24px" height="24px" viewBox="0 0 24 24" version="1.1" xmlns="http://www.w3.org/2000/svg" xmlns:xlink="http://www.w3.org/1999/xlink">
    <!-- Generator: Sketch 64 (93537) - https://sketch.com -->
    <title>ic_fluent_currency_24_filled</title>
    <desc>Created with Sketch.</desc>
    <g id="ðŸ”-System-Icons" stroke="none" stroke-width="1" fill="none" fill-rule="evenodd">
        <g id="ic_fluent_currency_24_filled" fill="#212121" fill-rule="nonzero">
            <path d="M6.5,2 C7.05228,2 7.5,2.44772 7.5,3 L7.5,3.11151 C9.50398,3.56624 11,5.35841 11,7.49999 L11,8.36491 C11,8.91719 10.5523,9.36491 9.99998,9.36491 C9.44769,9.36491 8.99998,8.91719 8.99998,8.36491 L8.99998,7.49999 C8.99998,6.47484 8.38294,5.59381 7.5,5.20803 L7.5,11.3647 L8.20896,11.6999 C9.91313,12.5056 11,14.2217 11,16.1068 L11,16.4793 C11,18.6197 9.50507,20.4128 7.5,20.8677 L7.5,20.9916 C7.5,21.5438 7.05228,21.9916 6.5,21.9916 C5.94772,21.9916 5.5,21.5438 5.5,20.9916 L5.5,20.8678 C3.49709,20.4133 2,18.622 2,16.4793 L2,15.6342 C2,15.0819 2.44772,14.6342 3,14.6342 C3.55228,14.6342 4,15.0819 4,15.6342 L4,16.4793 C4,17.5049 4.61741,18.3856 5.5,18.7713 L5.5,12.6313 L4.79613,12.2985 C3.08884,11.4913 2,9.77209 2,7.88358 L2,7.49999 C2,5.35841 3.49601,3.56623 5.5,3.11151 L5.5,3 C5.5,2.44772 5.94772,2 6.5,2 Z M19.3639,3 C20.0898,3 20.9036,3.20923 21.5614,3.65982 C22.0171,3.97192 22.1335,4.5943 21.8214,5.04994 C21.5333077,5.47054 20.9808178,5.60205787 20.5391822,5.37432753 L20.4313,5.30987 C20.149,5.11652 19.7416,5 19.3639,5 C18.3184,5 17.2519,5.63186 16.4016,6.90004 C16.0579714,7.41254286 15.7622449,8.01389959 15.532179,8.6839586 L15.4227,9.02462 L15.9996,9.02456 C16.5518,9.02449 16.9996,9.47216 16.9997,10.0244 C16.9997,10.53725 16.6137592,10.9599954 16.1164225,11.0178511 L15.9998,11.0246 L15.043,11.0247 C15.0241333,11.2366333 15.0113111,11.4519444 15.0048592,11.6702778 L14.9999997,12.0254 L15.9992,12.0246 C16.5515,12.0241 16.9995,12.4714 16.9999997,13.0237 C17.0003714,13.53655 16.6147158,13.9595541 16.117418,14.017767 L16.0008,14.0246 L15.19,14.0252 C15.4211,15.2238 15.8495,16.2765 16.4016,17.1 C17.2519,18.3681 18.3184,19 19.3639,19 C19.7119857,19 20.0484633,18.9207265 20.2972603,18.7825201 L20.414,18.7086 C20.8616,18.385 21.4867,18.4854 21.8103,18.933 C22.134,19.3805 22.0335,20.0056 21.586,20.3293 C20.8995,20.8256 20.0614,21 19.3639,21 C17.447,21 15.8315,19.841 14.7405,18.2137 C14.0291667,17.1529333 13.5078201,15.8534437 13.229608,14.4208332 L13.1598,14.0269 L12.0009,14.0279 C11.4486,14.0283 11.0005,13.581 10.9999997,13.0287 C10.9996286,12.51585 11.3853704,12.0928459 11.8826806,12.0347131 L11.9993,12.0279 L12.9999997,12.027 L12.9999997,12 C12.9999997,11.7808 13.0054667,11.5631111 13.0162518,11.3472593 L13.0364,11.0249 L12.0001,11.025 C11.4478,11.0251 10.9999997,10.5774 10.9999997,10.0251 C10.9999997,9.51229643 11.3859408,9.0895802 11.8832775,9.03176048 L11.9999,9.02502 L13.3509,9.02486 C13.6472,7.81118 14.1221,6.70852 14.7405,5.78625 C15.8315,4.159 17.447,3 19.3639,3 Z M7.5,13.5821 L7.5,18.7712 C8.33135059,18.408 8.92652567,17.6059682 8.99366963,16.6585692 L9,16.4793 L9,16.1068 C9,15.1159562 8.49083203,14.204302 7.66856909,13.6814044 L7.5,13.5821 Z M5.5,5.20802 C4.66898824,5.57109765 4.07351419,6.37289197 4.00633389,7.32064694 L4,7.49999 L4,7.88358 C4,8.87578312 4.50902734,9.78885832 5.33140454,10.3138645 L5.5,10.4136 L5.5,5.20802 Z" id="ðŸŽ¨-Color"></path>
        </g>
    </g>
</svg>