<svg width="25" height="24" viewBox="0 0 25 24" fill="none" xmlns="http://www.w3.org/2000/svg">
<path d="M13.8979 17.7319L13.1227 16.9567L15.605 14.4745C16.9718 13.1077 16.9718 10.8916 15.605 9.52475L13.1227 7.04251L13.8979 6.26739C14.8742 5.29108 16.4571 5.29108 17.4334 6.26739L21.3979 10.2319C22.3742 11.2082 22.3742 12.7911 21.3979 13.7674L17.4334 17.7319C16.4571 18.7082 14.8742 18.7082 13.8979 17.7319ZM14.8979 13.7674C15.8742 12.7911 15.8742 11.2082 14.8979 10.2319L10.9334 6.26739C9.95709 5.29108 8.37418 5.29108 7.39787 6.26739L3.4334 10.2319C2.45709 11.2082 2.45709 12.7911 3.43341 13.7674L7.39787 17.7319C8.37418 18.7082 9.95709 18.7082 10.9334 17.7319L14.8979 13.7674Z" fill="#212121"/>
</svg>
