<svg width="48" height="48" viewBox="0 0 48 48" fill="none" xmlns="http://www.w3.org/2000/svg">
<path d="M37.75 6C40.0972 6 42 7.90279 42 10.25V13.75C42 15.2706 41.2006 16.6034 40 17.3545V35.75C40 39.2018 37.2018 42 33.75 42H14.25C10.7982 42 8 39.2018 8 35.75V17.3545C6.79936 16.6034 6 15.2706 6 13.75V10.25C6 7.90279 7.90279 6 10.25 6H37.75ZM10.5 35.75C10.5 37.8211 12.1789 39.5 14.25 39.5H33.75C35.8211 39.5 37.5 37.8211 37.5 35.75V18H10.5V35.75ZM27.75 22C28.4404 22 29 22.5596 29 23.25C29 23.9404 28.4404 24.5 27.75 24.5H20.25C19.5596 24.5 19 23.9404 19 23.25C19 22.5596 19.5596 22 20.25 22H27.75ZM10.25 8.5C9.2835 8.5 8.5 9.2835 8.5 10.25V13.75C8.5 14.7165 9.2835 15.5 10.25 15.5H37.75C38.7165 15.5 39.5 14.7165 39.5 13.75V10.25C39.5 9.2835 38.7165 8.5 37.75 8.5H10.25Z" fill="#212121"/>
</svg>
