<svg width="20" height="20" viewBox="0 0 20 20" fill="none" xmlns="http://www.w3.org/2000/svg">
<path d="M8 10.5C8 10.2239 8.22386 10 8.5 10H11.5C11.7761 10 12 10.2239 12 10.5C12 10.7761 11.7761 11 11.5 11H8.5C8.22386 11 8 10.7761 8 10.5Z" fill="#ACACAC"/>
<path d="M3 14V7.5H4V14C4 15.1046 4.89543 16 6 16H14C15.1046 16 16 15.1046 16 14V7.5H17V14C17 15.6569 15.6569 17 14 17H6C4.34315 17 3 15.6569 3 14Z" fill="#6E6E6E"/>
<path d="M3.75 4C3.33579 4 3 4.33579 3 4.75V6.25C3 6.66421 3.33579 7 3.75 7H16.25C16.6642 7 17 6.66421 17 6.25V4.75C17 4.33579 16.6642 4 16.25 4H3.75ZM2 4.75C2 3.7835 2.7835 3 3.75 3H16.25C17.2165 3 18 3.7835 18 4.75V6.25C18 7.2165 17.2165 8 16.25 8H3.75C2.7835 8 2 7.2165 2 6.25V4.75Z" fill="#212121"/>
</svg>
