<svg width="28" height="28" viewBox="0 0 28 28" fill="none" xmlns="http://www.w3.org/2000/svg">
<path d="M23 10V21.25C23 23.3211 21.3211 25 19.25 25H8.75C6.67893 25 5 23.3211 5 21.25V10H23ZM16.25 13.5H11.75C11.3358 13.5 11 13.8358 11 14.25C11 14.6642 11.3358 15 11.75 15H16.25C16.6642 15 17 14.6642 17 14.25C17 13.8358 16.6642 13.5 16.25 13.5ZM22.25 3C23.2165 3 24 3.7835 24 4.75V7.25C24 8.2165 23.2165 9 22.25 9H5.75C4.7835 9 4 8.2165 4 7.25V4.75C4 3.7835 4.7835 3 5.75 3H22.25Z" fill="#212121"/>
</svg>
