<svg width="24" height="24" viewBox="0 0 24 24" fill="none" xmlns="http://www.w3.org/2000/svg">
<path d="M9.5 11.75C9.5 11.3358 9.83579 11 10.25 11H13.75C14.1642 11 14.5 11.3358 14.5 11.75C14.5 12.1642 14.1642 12.5 13.75 12.5H10.25C9.83579 12.5 9.5 12.1642 9.5 11.75Z" fill="#ACACAC"/>
<path d="M4 17.25V8.25H5.5V17.25C5.5 18.4926 6.50736 19.5 7.75 19.5H16.25C17.4926 19.5 18.5 18.4926 18.5 17.25V8.25H20V17.25C20 19.3211 18.3211 21 16.25 21H7.75C5.67893 21 4 19.3211 4 17.25Z" fill="#6E6E6E"/>
<path d="M3 5.25C3 4.00736 4.00736 3 5.25 3H18.75C19.9926 3 21 4.00736 21 5.25V6.75C21 7.99264 19.9926 9 18.75 9H5.25C4.00736 9 3 7.99264 3 6.75V5.25ZM5.25 4.5C4.83579 4.5 4.5 4.83579 4.5 5.25V6.75C4.5 7.16421 4.83579 7.5 5.25 7.5H18.75C19.1642 7.5 19.5 7.16421 19.5 6.75V5.25C19.5 4.83579 19.1642 4.5 18.75 4.5H5.25Z" fill="#212121"/>
</svg>
