<svg width="20" height="20" viewBox="0 0 20 20" fill="none" xmlns="http://www.w3.org/2000/svg">
<path d="M7.69469 2.64171C8.28027 2.24203 9.03769 2 10 2C10.9623 2 11.7197 2.24203 12.3053 2.64171C12.8878 3.03932 13.2682 3.57085 13.5156 4.10106C13.8455 4.80806 13.9508 5.53892 13.9843 6.01727C14.6315 6.06508 15.2945 6.22041 15.8399 6.58397C16.5585 7.06304 17 7.85435 17 9C17 10.1699 16.5617 10.9659 15.8361 11.4402C15.1507 11.8884 14.2813 12 13.5 12H6.5C5.71024 12 4.84297 11.8712 4.16015 11.416C3.44155 10.937 3 10.1457 3 9C3 7.85435 3.44155 7.06304 4.16015 6.58397C4.7055 6.22041 5.3685 6.06508 6.0157 6.01727C6.04925 5.53892 6.15447 4.80806 6.48441 4.10106C6.73184 3.57085 7.11215 3.03932 7.69469 2.64171ZM10 15C10 16.1046 9.10457 17 8 17C6.89543 17 6 16.1046 6 15C6 13.8954 6.89543 13 8 13C9.10457 13 10 13.8954 10 15ZM5 16.5C5 17.3284 4.32843 18 3.5 18C2.67157 18 2 17.3284 2 16.5C2 15.6716 2.67157 15 3.5 15C4.32843 15 5 15.6716 5 16.5Z" fill="#212121"/>
</svg>
