<svg width="16" height="16" viewBox="0 0 16 16" fill="none" xmlns="http://www.w3.org/2000/svg">
<path d="M8 2C4.68629 2 2 4.68629 2 8C2 11.3137 4.68629 14 8 14C11.3137 14 14 11.3137 14 8C14 4.68629 11.3137 2 8 2ZM1 8C1 4.13401 4.13401 1 8 1C11.866 1 15 4.13401 15 8C15 11.866 11.866 15 8 15C4.13401 15 1 11.866 1 8ZM8 5.5C8.59413 5.5 9 5.93181 9 6.375C9 6.81819 8.59413 7.25 8 7.25C7.40587 7.25 7 6.81819 7 6.375C7 5.93181 7.40587 5.5 8 5.5ZM9.40165 7.713C9.76701 7.37888 10 6.91127 10 6.375C10 5.2994 9.06273 4.5 8 4.5C6.93727 4.5 6 5.2994 6 6.375C6 6.91127 6.23299 7.37888 6.59835 7.713C6.08646 8.09668 5.75 8.68895 5.75 9.375C5.75 10.5829 6.7929 11.5 8 11.5C9.2071 11.5 10.25 10.5829 10.25 9.375C10.25 8.68895 9.91354 8.09668 9.40165 7.713ZM8 8.25C8.7259 8.25 9.25 8.78793 9.25 9.375C9.25 9.96207 8.7259 10.5 8 10.5C7.2741 10.5 6.75 9.96207 6.75 9.375C6.75 8.78793 7.2741 8.25 8 8.25Z" fill="#212121"/>
</svg>
