<svg width="28" height="28" viewBox="0 0 28 28" fill="none" xmlns="http://www.w3.org/2000/svg">
<path d="M8.75 2C7.23122 2 6 3.23122 6 4.75V9.87865C6.87444 9.29319 8.06863 9.38665 8.84099 10.159L11.841 13.159C12.7197 14.0377 12.7197 15.4623 11.841 16.341L8.84099 19.341C8.06863 20.1134 6.87444 20.2068 6 19.6213V23.2497C6 24.7684 7.23122 25.9997 8.75 25.9997H19.25C20.7688 25.9997 22 24.7684 22 23.2497V19.6213C21.1256 20.2068 19.9314 20.1134 19.159 19.341L16.159 16.341C15.2803 15.4623 15.2803 14.0377 16.159 13.159L19.159 10.159C19.9314 9.38665 21.1256 9.29319 22 9.87865V4.75C22 3.23122 20.7688 2 19.25 2H8.75Z" fill="#212121"/>
<path d="M6.71967 12.2803L8.43934 14L3.75 14C3.33579 14 3 14.3358 3 14.75C3 15.1642 3.33579 15.5 3.75 15.5L8.43934 15.5L6.71967 17.2197C6.42678 17.5126 6.42678 17.9874 6.71967 18.2803C7.01256 18.5732 7.48784 18.5728 7.78073 18.2799L10.7803 15.2803C10.8169 15.2437 10.849 15.2043 10.8764 15.1627C11.0686 14.8716 11.0366 14.476 10.7803 14.2197L7.78033 11.2197C7.74372 11.1831 7.70426 11.151 7.66268 11.1236C7.37156 10.9314 6.97595 10.9634 6.71967 11.2197C6.42678 11.5126 6.42678 11.9874 6.71967 12.2803Z" fill="#212121"/>
<path d="M21.2803 12.2803L19.5607 14L24.25 14C24.6642 14 25 14.3358 25 14.75C25 15.1642 24.6642 15.5 24.25 15.5L19.5607 15.5L21.2803 17.2197C21.5732 17.5126 21.5732 17.9874 21.2803 18.2803C20.9874 18.5732 20.5126 18.5732 20.2197 18.2803L17.2197 15.2803C17.1831 15.2437 17.151 15.2043 17.1236 15.1627C16.9314 14.8716 16.9634 14.476 17.2197 14.2197L20.2197 11.2197C20.5126 10.9268 20.9874 10.9268 21.2803 11.2197C21.5732 11.5126 21.5732 11.9874 21.2803 12.2803Z" fill="#212121"/>
</svg>
