<svg width="28" height="28" viewBox="0 0 28 28" fill="none" xmlns="http://www.w3.org/2000/svg">
<path d="M7.44531 2.16793C7.90482 1.86162 8.52567 1.98581 8.83203 2.44527L18.1152 16.3691C18.6976 16.1319 19.3339 16 20 16C22.7614 16 25 18.2386 25 21C25 23.7614 22.7614 26 20 26C17.2386 26 15 23.7614 15 21C15 19.6257 15.5563 18.3824 16.4521 17.4795L13.999 13.8008L11.5479 17.4795C12.4436 18.3824 12.9999 19.6257 13 21C13 23.7614 10.7614 26 8 26C5.23858 26 3 23.7614 3 21C3.00012 18.2387 5.23865 16 8 16C8.66606 16 9.30246 16.1319 9.88477 16.3691L12.7979 11.998L7.16797 3.55465C6.86167 3.09513 6.9858 2.47427 7.44531 2.16793ZM8 18C6.34322 18 5.00012 19.3432 5 21C5 22.6568 6.34315 24 8 24C9.65685 24 11 22.6568 11 21C10.9999 20.0248 10.5353 19.1576 9.81152 18.6084L9.66309 18.5029C9.18752 18.1854 8.6169 18 8 18ZM20 18C19.3831 18 18.8125 18.1853 18.3369 18.5029L18.1885 18.6084C17.4647 19.1576 17 20.0247 17 21C17 22.6568 18.3431 24 20 24C21.6569 24 23 22.6568 23 21C23 19.3432 21.6568 18 20 18ZM19.168 2.44527C19.4743 1.98591 20.0952 1.8617 20.5547 2.16793C21.0142 2.47425 21.1382 3.09514 20.832 3.55465L15.8018 11.0976L14.6006 9.29489L19.168 2.44527Z" fill="#212121"/>
</svg>
