<svg width="20" height="20" viewBox="0 0 20 20" fill="none" xmlns="http://www.w3.org/2000/svg">
<path d="M7.5 7C6.67157 7 6 7.67157 6 8.5V11.5C6 12.3284 6.67157 13 7.5 13H11.5577C11.9583 13 12.3469 12.8625 12.6584 12.6105L14.4436 11.1661C15.1856 10.5658 15.1856 9.43422 14.4436 8.83387L12.6584 7.38951C12.3469 7.13749 11.9583 7 11.5577 7H7.5ZM7 8.5C7 8.22386 7.22386 8 7.5 8H11.5577C11.7294 8 11.8959 8.05893 12.0294 8.16693L13.8146 9.61129C14.062 9.81141 14.062 10.1886 13.8146 10.3887L12.0294 11.8331C11.8959 11.9411 11.7294 12 11.5577 12H7.5C7.22386 12 7 11.7761 7 11.5V8.5ZM10 2C5.58172 2 2 5.58172 2 10C2 14.4183 5.58172 18 10 18C14.4183 18 18 14.4183 18 10C18 5.58172 14.4183 2 10 2ZM3 10C3 6.13401 6.13401 3 10 3C13.866 3 17 6.13401 17 10C17 13.866 13.866 17 10 17C6.13401 17 3 13.866 3 10Z" fill="#212121"/>
</svg>
