<svg width="20" height="20" viewBox="0 0 20 20" fill="none" xmlns="http://www.w3.org/2000/svg">
<path d="M7.99948 2.75C7.99948 2.33579 8.33526 2 8.74948 2H11.2504C11.6646 2 12.0004 2.33579 12.0004 2.75V5.25C12.0004 5.66421 11.6646 6 11.2504 6C10.8362 6 10.5004 5.66421 10.5004 5.25V4.56051L8.28032 6.78036C7.98741 7.07324 7.51254 7.07321 7.21966 6.7803C6.92678 6.48739 6.92681 6.01252 7.21972 5.71964L9.43961 3.5H8.74948C8.33526 3.5 7.99948 3.16421 7.99948 2.75ZM3.08545 6.57919C2.7967 6.4348 2.44795 6.4914 2.21968 6.71968C1.9914 6.94797 1.93483 7.29672 2.07923 7.58546L6.07953 15.5845C6.2648 15.9549 6.71532 16.1051 7.08579 15.9198C7.45626 15.7345 7.60639 15.284 7.42112 14.9135L6.32965 12.731L8.2313 10.8294L10.4146 11.9211C10.7851 12.1064 11.2356 11.9562 11.4208 11.5857C11.6061 11.2153 11.4559 10.7647 11.0855 10.5795L3.08545 6.57919ZM6.81712 10.1222L5.62245 11.3169L4.42739 8.92729L6.81712 10.1222ZM14.7495 8C14.3353 8 13.9995 8.33579 13.9995 8.75C13.9995 9.16421 14.3353 9.5 14.7495 9.5H15.4397L8.2197 16.7197C7.9268 17.0125 7.92679 17.4874 8.21968 17.7803C8.51256 18.0732 8.98744 18.0732 9.28034 17.7803L16.5004 10.5606V11.25C16.5004 11.6642 16.8362 12 17.2504 12C17.6646 12 18.0004 11.6642 18.0004 11.25V8.75C18.0004 8.33579 17.6646 8 17.2504 8H14.7495Z" fill="#212121"/>
</svg>
