<?xml version="1.0" encoding="UTF-8"?>
<svg width="24px" height="24px" viewBox="0 0 24 24" version="1.1" xmlns="http://www.w3.org/2000/svg" xmlns:xlink="http://www.w3.org/1999/xlink">
    <!-- Generator: Sketch 59.1 (86144) - https://sketch.com -->
    <title>ic_emoji_angry_24_filled</title>
    <desc>Created with Sketch.</desc>
    <g id="ðŸ”-Product-Icons" stroke="none" stroke-width="1" fill="none" fill-rule="evenodd">
        <g id="ic_emoji_angry_24_filled" fill="#212121">
            <path d="M12,2.0046246 C17.5228475,2.0046246 22,6.4817771 22,12.0046246 C22,17.5274721 17.5228475,22.0046246 12,22.0046246 C6.4771525,22.0046246 2,17.5274721 2,12.0046246 C2,6.4817771 6.4771525,2.0046246 12,2.0046246 Z M12.0000001,13.4979816 C10.3651558,13.4979816 8.83296242,14.155799 7.71175097,15.3007764 C7.4219453,15.5967249 7.4269251,16.0715726 7.72287367,16.3613782 C8.01882223,16.6511839 8.49366985,16.6462041 8.78347552,16.3502555 C9.62535029,15.4905359 10.7726114,14.9979816 12.0000001,14.9979816 C13.2246935,14.9979816 14.3696444,15.4883577 15.211114,16.3447396 C15.5014236,16.6401939 15.976279,16.6443646 16.2717333,16.354055 C16.5671876,16.0637455 16.5713583,15.5888901 16.2810488,15.2934358 C15.1603686,14.1528953 13.6312483,13.4979816 12.0000001,13.4979816 Z M8.12689801,6.60146372 C7.81102432,6.41736568 7.39958218,6.48743649 7.16434839,6.78147871 C6.90559123,7.10492517 6.95803226,7.57689445 7.28147871,7.83565161 L7.28147871,7.83565161 L8.53789005,8.83958818 C8.07691563,9.02343052 7.75115873,9.47389685 7.75115873,10.0004478 C7.75115873,10.6904111 8.3104845,11.2497368 9.00044779,11.2497368 C9.69041108,11.2497368 10.2497368,10.6904111 10.2497046,10.0000276 C10.4696497,9.99997453 10.6875663,9.90362787 10.8356516,9.71852129 C11.0944088,9.39507483 11.0419677,8.92310555 10.7185213,8.66434839 L10.7185213,8.66434839 L8.21852129,6.66434839 Z M16.8355456,6.78134628 C16.5767153,6.45795835 16.1047342,6.40562406 15.7813463,6.66445437 L15.7813463,6.66445437 L13.282505,8.66445437 L13.2010588,8.7400574 C12.9521734,9.00787138 12.9303128,9.4246647 13.1656131,9.71865372 C13.3137402,9.90372681 13.5316787,10.0000242 13.7511603,9.99842679 L13.7511603,9.99842679 C13.7511587,10.6904111 14.3104845,11.2497368 15.0004478,11.2497368 C15.6904111,11.2497368 16.2497368,10.6904111 16.2497368,10.0004478 C16.2497368,9.4739758 15.9240776,9.0235656 15.4632129,8.83967088 L15.4632129,8.83967088 L16.7186537,7.83554563 L16.8001,7.7599426 C17.0489854,7.49212862 17.0708459,7.0753353 16.8355456,6.78134628 Z" id="ðŸŽ¨-Color"></path>
        </g>
    </g>
</svg>