<svg width="28" height="28" viewBox="0 0 28 28" fill="none" xmlns="http://www.w3.org/2000/svg">
<path d="M25.151 3.00667C25.5615 2.95192 25.9388 3.24038 25.9935 3.65096C26.0483 4.06154 25.7598 4.43876 25.3492 4.49351L17.5001 5.54006V9.25009C17.5001 9.89441 17.3126 10.4949 16.9892 11.0001H19.2501C21.3212 11.0001 23.0001 12.679 23.0001 14.7501V18.5001H5.00009V14.7501C5.00009 12.679 6.67902 11.0001 8.75009 11.0001H14.2501C15.2166 11.0001 16.0001 10.2166 16.0001 9.25009V5.74006L2.84921 7.49351C2.43863 7.54825 2.06141 7.25979 2.00667 6.84921C1.95192 6.43863 2.24038 6.06141 2.65096 6.00667L16.0001 4.22678V3.75009C16.0001 3.33587 16.3359 3.00009 16.7501 3.00009C17.1643 3.00009 17.5001 3.33587 17.5001 3.75009V4.02678L25.151 3.00667ZM23.0001 20.0001V22.2501C23.0001 23.7689 21.7689 25.0001 20.2501 25.0001H7.75009C6.2313 25.0001 5.00009 23.7689 5.00009 22.2501V20.0001H23.0001Z" fill="#212121"/>
</svg>
