<svg width="20" height="20" viewBox="0 0 20 20" fill="none" xmlns="http://www.w3.org/2000/svg">
<path d="M19 6.5C19 9.53757 16.5376 12 13.5 12C10.4624 12 8 9.53757 8 6.5C8 3.46243 10.4624 1 13.5 1C16.5376 1 19 3.46243 19 6.5ZM16.8536 4.14645C16.6583 3.95118 16.3417 3.95118 16.1464 4.14645L12.5 7.79289L10.8536 6.14645C10.6583 5.95118 10.3417 5.95118 10.1464 6.14645C9.95118 6.34171 9.95118 6.65829 10.1464 6.85355L12.1464 8.85355C12.3417 9.04882 12.6583 9.04882 12.8536 8.85355L16.8536 4.85355C17.0488 4.65829 17.0488 4.34171 16.8536 4.14645Z" fill="#212121"/>
<path d="M13.5 13C15.2465 13 16.8321 12.3112 18 11.1904V12.2764C18 13.6935 16.8359 14.8423 15.4 14.8423H10.81L6.79895 17.8034C6.35668 18.1298 5.73 18.0406 5.39921 17.6042C5.26989 17.4335 5.2 17.2262 5.2 17.0133L5.19937 14.8423H4.6C3.16406 14.8423 2 13.6935 2 12.2764V5.56582C2 4.14876 3.16406 3 4.6 3H8.02182C7.375 4.0103 7 5.21136 7 6.5C7 10.0899 9.91015 13 13.5 13Z" fill="#212121"/>
</svg>
