<svg width="20" height="20" viewBox="0 0 20 20" fill="none" xmlns="http://www.w3.org/2000/svg">
<path d="M6.78361 2.82643C7.03824 2.31977 7.55682 2 8.12387 2H11.8881C12.4563 2 12.9757 2.32106 13.2298 2.8293L13.8147 3.9994H15.5046C16.8854 3.9994 18.0046 5.11869 18.0046 6.4994V10.261C17.053 9.47337 15.8318 9 14.4999 9C14.2912 9 14.0852 9.01163 13.8826 9.03426C13.4506 7.29168 11.8761 6 9.99994 6C7.7908 6 5.99994 7.79086 5.99994 10C5.99994 11.8762 7.29162 13.4506 9.0342 13.8826C9.01157 14.0853 8.99994 14.2913 8.99994 14.5C8.99994 15.4002 9.21622 16.2499 9.59965 17H4.50464C3.12393 17 2.00464 15.8807 2.00464 14.5V6.4994C2.00464 5.11868 3.12393 3.9994 4.50464 3.9994H6.19412L6.78361 2.82643Z" fill="#212121"/>
<path d="M9.99994 7C11.3927 7 12.5638 7.94909 12.9017 9.23581C11.1494 9.76712 9.76706 11.1495 9.23575 12.9018C7.94903 12.5639 6.99994 11.3928 6.99994 10C6.99994 8.34315 8.34308 7 9.99994 7Z" fill="#212121"/>
<path d="M18.9999 14.5C18.9999 16.9853 16.9852 19 14.4999 19C12.0147 19 9.99994 16.9853 9.99994 14.5C9.99994 12.0147 12.0147 10 14.4999 10C16.9852 10 18.9999 12.0147 18.9999 14.5ZM14.9999 12.5C14.9999 12.2239 14.7761 12 14.4999 12C14.2238 12 13.9999 12.2239 13.9999 12.5V14H12.4999C12.2238 14 11.9999 14.2239 11.9999 14.5C11.9999 14.7761 12.2238 15 12.4999 15H13.9999V16.5C13.9999 16.7761 14.2238 17 14.4999 17C14.7761 17 14.9999 16.7761 14.9999 16.5V15H16.4999C16.7761 15 16.9999 14.7761 16.9999 14.5C16.9999 14.2239 16.7761 14 16.4999 14H14.9999V12.5Z" fill="#212121"/>
</svg>
