<svg width="20" height="20" viewBox="0 0 20 20" fill="none" xmlns="http://www.w3.org/2000/svg">
<path d="M13.2498 3C13.664 3 13.9998 3.33579 13.9998 3.75V13.25C13.9998 13.6642 13.664 14 13.2498 14C12.8356 14 12.4998 13.6642 12.4998 13.25V9.32853L10.7081 9.85939C8.35817 10.5557 5.99982 8.79476 5.99982 6.3438V3.75C5.99982 3.33579 6.3356 3 6.74982 3C7.16403 3 7.49982 3.33579 7.49982 3.75V6.3438C7.49982 7.79209 8.89339 8.83264 10.282 8.4212L12.4998 7.76407V3.75C12.4998 3.33579 12.8356 3 13.2498 3ZM5.0498 16.3C5.0498 15.8858 5.38559 15.55 5.7998 15.55H14.2998C14.714 15.55 15.0498 15.8858 15.0498 16.3C15.0498 16.7142 14.714 17.05 14.2998 17.05H5.7998C5.38559 17.05 5.0498 16.7142 5.0498 16.3Z" fill="#212121"/>
</svg>
