<svg width="16" height="16" viewBox="0 0 16 16" fill="none" xmlns="http://www.w3.org/2000/svg">
<g clip-path="url(#clip0_50122_42314)">
<path d="M8.5 7.51937V4.5C8.5 3.94772 8.05229 3.5 7.5 3.5C6.94772 3.5 6.5 3.94772 6.5 4.5V8C6.5 8.30378 6.63809 8.5911 6.87531 8.78087L9.37531 10.7809C9.80657 11.1259 10.4359 11.056 10.7809 10.6247C11.1259 10.1934 11.056 9.56414 10.6247 9.21913L8.5 7.51937ZM8 0C3.58172 0 0 3.58172 0 8C0 12.4183 3.58172 16 8 16C12.4183 16 16 12.4183 16 8C16 3.58172 12.4183 0 8 0ZM2 8C2 4.68629 4.68629 2 8 2C11.3137 2 14 4.68629 14 8C14 11.3137 11.3137 14 8 14C4.68629 14 2 11.3137 2 8Z" fill="#212121"/>
</g>
<defs>
<clipPath id="clip0_50122_42314">
<rect width="16" height="16" fill="white"/>
</clipPath>
</defs>
</svg>
