<svg width="16" height="16" viewBox="0 0 16 16" fill="none" xmlns="http://www.w3.org/2000/svg">
<path d="M6.01323 6.77501C5.52723 6.28801 4.73223 6.28801 4.24523 6.77501L4.02523 6.99501C3.34923 7.67001 2.98523 8.56901 3.00023 9.52401C3.01223 10.28 3.26023 10.994 3.71023 11.583L1.64723 13.646C1.45223 13.841 1.45223 14.158 1.64723 14.353C1.74523 14.451 1.87323 14.499 2.00123 14.499C2.12923 14.499 2.25723 14.45 2.35523 14.353L4.42523 12.283C5.02223 12.718 5.73723 12.935 6.46123 12.935C7.39923 12.935 8.34923 12.572 9.06523 11.855L9.19623 11.724C9.68323 11.237 9.68323 10.444 9.19623 9.95601L6.01423 6.77401L6.01323 6.77501ZM14.3542 1.64601C14.1592 1.45101 13.8422 1.45101 13.6472 1.64601L11.5772 3.71601C10.2072 2.71701 8.20723 2.87301 6.93723 4.14401L6.80623 4.27501C6.31923 4.76201 6.31923 5.55501 6.80623 6.04301L9.98823 9.22501C10.2312 9.46901 10.5512 9.59101 10.8722 9.59101C11.1932 9.59101 11.5132 9.46901 11.7562 9.22501L11.9762 9.00501C12.6522 8.33001 13.0162 7.43101 13.0012 6.47601C12.9892 5.72001 12.7412 5.00601 12.2912 4.41701L14.3542 2.35401C14.5492 2.15901 14.5492 1.84101 14.3542 1.64601Z" fill="#212121"/>
</svg>
