<svg width="48" height="48" viewBox="0 0 48 48" fill="none" xmlns="http://www.w3.org/2000/svg">
<path d="M21.5145 9.51422L20.2443 10.7846C18.5847 12.4444 18.5848 15.1353 20.2445 16.7949L31.2049 27.7548C32.8647 29.4146 35.5557 29.4145 37.2154 27.7546L38.4851 26.4847C42.8729 22.0969 43.1524 15.1566 39.3236 10.4436L43.6338 6.13394C44.122 5.64582 44.1221 4.85436 43.6339 4.36618C43.1458 3.87799 42.3544 3.87793 41.8662 4.36606L37.5558 8.67582C32.8429 4.84689 25.9024 5.12639 21.5145 9.51422ZM22.0121 12.5523L23.2823 11.2819C26.9923 7.57201 33.0074 7.57198 36.7174 11.2819C40.4273 14.9919 40.4273 21.007 36.7174 24.717L35.4475 25.9869C34.7641 26.6704 33.6561 26.6705 32.9726 25.987L22.0122 15.0271C21.3288 14.3437 21.3288 13.2357 22.0121 12.5523ZM26.4855 38.4854L27.7557 37.215C29.4153 35.5552 29.4152 32.8643 27.7555 31.2046L16.7951 20.2447C15.1353 18.585 12.4443 18.5851 10.7846 20.245L9.51487 21.5148C5.12712 25.9026 4.84761 32.843 8.67642 37.556L4.36618 41.8656C3.87799 42.3538 3.87793 43.1452 4.36606 43.6334C4.85418 44.1216 5.64564 44.1216 6.13382 43.6335L10.4442 39.3237C15.1571 43.1527 22.0976 42.8732 26.4855 38.4854ZM25.9879 35.4473L24.7177 36.7176C21.0077 40.4276 14.9926 40.4276 11.2826 36.7176C7.57266 33.0077 7.57265 26.9926 11.2826 23.2826L12.5525 22.0126C13.2359 21.3292 14.3439 21.3291 15.0274 22.0125L25.9878 32.9725C26.6712 33.6558 26.6712 34.7638 25.9879 35.4473Z" fill="#212121"/>
</svg>
