<svg width="24" height="24" viewBox="0 0 24 24" fill="none" xmlns="http://www.w3.org/2000/svg">
<path d="M20.0907 4.97048C20.5227 5.48809 20.8814 6.04618 21.1669 6.63102C21.0611 6.7967 20.9359 6.95353 20.7912 7.09824C19.9012 7.98831 18.5528 8.1407 17.5057 7.55541L20.0907 4.97048ZM19.03 3.90982L16.445 6.49478C15.8597 5.44775 16.012 4.09926 16.9021 3.20915C17.0468 3.06446 17.2036 2.93925 17.3693 2.83355C17.9542 3.11899 18.5124 3.47775 19.03 3.90982ZM20.5239 14.9624C21.9088 12.9768 22.3195 10.518 21.7561 8.25177C20.2754 9.64393 18.0404 9.77422 16.4185 8.64263L15.3113 9.74983L20.5239 14.9624ZM15.3578 7.58199C14.2262 5.9601 14.3564 3.72511 15.7485 2.24433C13.4823 1.68101 11.0237 2.09177 9.03809 3.4766L14.2507 8.68917L15.3578 7.58199ZM13.19 9.74983L7.88678 4.4466C6.95389 5.38898 6.29453 6.50024 5.90869 7.68136C7.82109 7.97587 10.3538 8.70379 12.4381 10.5017L13.19 9.74983ZM11.7288 11.211C11.9173 11.371 12.1017 11.5403 12.2809 11.7195C12.4601 11.8988 12.6294 12.0831 12.7895 12.2717C14.419 14.1918 15.081 16.5472 15.346 18.3451C15.4067 18.7571 15.4465 19.1398 15.4724 19.4813C15.4772 19.5447 15.4796 19.6075 15.4796 19.6697C15.4795 21.0224 14.3604 22.0764 12.982 21.9718C11.0039 21.8218 7.64266 21.2027 5.22021 18.7802C2.79777 16.3578 2.17868 12.9965 2.02864 11.0184C2.02384 10.9551 2.02148 10.8923 2.02148 10.8301C2.02161 9.47737 3.14072 8.42342 4.51908 8.52797C4.8606 8.55387 5.24334 8.59376 5.65537 8.6545C7.45328 8.91951 9.80871 9.58151 11.7288 11.211ZM8.03082 13.4695C7.73793 13.1767 7.26305 13.1767 6.97016 13.4695C6.67727 13.7624 6.67727 14.2373 6.97016 14.5302L9.47016 17.0302C9.76305 17.3231 10.2379 17.3231 10.5308 17.0302C10.8237 16.7373 10.8237 16.2624 10.5308 15.9695L8.03082 13.4695ZM16.3191 18.0918C16.0246 16.1794 15.2967 13.6467 13.4988 11.5624L14.2507 10.8105L19.5539 16.1137C18.6115 17.0466 17.5002 17.706 16.3191 18.0918Z" fill="#212121"/>
</svg>
