<svg width="25" height="24" viewBox="0 0 25 24" fill="none" xmlns="http://www.w3.org/2000/svg">
<path d="M18.416 8H6.41602C5.88606 8.00155 5.37825 8.21276 5.00351 8.5875C4.62878 8.96223 4.41756 9.47004 4.41602 10V14C4.41757 14.53 4.62879 15.0378 5.00352 15.4125C5.37826 15.7872 5.88606 15.9984 6.41602 16H18.416C18.946 15.9984 19.4538 15.7872 19.8285 15.4125C20.2032 15.0378 20.4145 14.53 20.416 14V10C20.4145 9.47004 20.2033 8.96223 19.8285 8.5875C19.4538 8.21276 18.946 8.00155 18.416 8V8ZM6.41602 10H18.416V12H6.41602V10Z" fill="#212121"/>
</svg>
