<svg width="20" height="20" viewBox="0 0 20 20" fill="none" xmlns="http://www.w3.org/2000/svg">
<path d="M15.1192 10.9629C15.3215 10.7701 15.6786 10.77 15.8809 10.9629C16.3886 11.447 17.364 12.217 18.5635 12.375C18.8026 12.4066 18.9998 12.5868 19 12.8125V14.9238C19 17.7618 16.2167 18.7927 15.6143 18.9824C15.5391 19.0061 15.4619 19.006 15.3868 18.9824C14.7848 18.7929 12 17.7622 12 14.9238V12.8125C12.0002 12.5867 12.1974 12.4065 12.4366 12.375C13.6358 12.2169 14.6115 11.447 15.1192 10.9629ZM7.37015 3.55567C8.5095 1.48158 11.4895 1.48168 12.6289 3.55567L16.1436 9.95509C15.6272 9.72519 15.0004 9.78659 14.544 10.1406L14.4287 10.2393C13.9974 10.6505 13.2822 11.1944 12.4698 11.3565L12.2002 11.4014C11.6687 11.5125 11.0836 11.9408 11.0078 12.6553L11 12.8115V14.9238C11.0002 16.2425 11.4844 17.255 12.1114 18.0049H4.50393C2.22296 18.0049 0.777082 15.5598 1.87503 13.5606L7.37015 3.55567ZM9.99905 12.75C9.58484 12.75 9.24905 13.0858 9.24905 13.5C9.24958 13.9138 9.58516 14.25 9.99905 14.25C10.4125 14.2494 10.7485 13.9134 10.7491 13.5C10.7491 13.0862 10.4128 12.7506 9.99905 12.75ZM9.99905 6.50001C9.72291 6.50001 9.49905 6.72386 9.49905 7.00001V11C9.49958 11.2757 9.72323 11.5 9.99905 11.5C10.2744 11.4994 10.4985 11.2754 10.4991 11V7.00001C10.4991 6.72422 10.2747 6.50059 9.99905 6.50001Z" fill="#212121"/>
</svg>
