<svg width="28" height="28" viewBox="0 0 28 28" fill="none" xmlns="http://www.w3.org/2000/svg">
<path d="M15.1136 25.7189C14.7181 25.3107 14.3685 24.8578 14.0733 24.3684C13.4185 24.4543 12.7255 24.5 12 24.5C6.88879 24.5 3.5 22.389 3.5 19.7146V19L3.50687 18.8555C3.57955 18.0949 4.2203 17.5 5 17.5H13.6241C13.858 16.9645 14.1527 16.4616 14.4995 16H5C3.34315 16 2 17.3431 2 19V19.7146C2 23.4333 6.21053 26 12 26C13.101 26 14.1449 25.9021 15.1136 25.7189ZM18 8C18 4.68629 15.3137 2 12 2C8.68629 2 6 4.68629 6 8C6 11.3137 8.68629 14 12 14C15.3137 14 18 11.3137 18 8ZM7.5 8C7.5 5.51472 9.51472 3.5 12 3.5C14.4853 3.5 16.5 5.51472 16.5 8C16.5 10.4853 14.4853 12.5 12 12.5C9.51472 12.5 7.5 10.4853 7.5 8ZM27 20.5C27 24.0899 24.0899 27 20.5 27C16.9101 27 14 24.0899 14 20.5C14 16.9101 16.9101 14 20.5 14C24.0899 14 27 16.9101 27 20.5ZM25.5 20.5C25.5 19.3899 25.1382 18.3642 24.5261 17.5346L17.5346 24.5261C18.3642 25.1382 19.3899 25.5 20.5 25.5C23.2614 25.5 25.5 23.2614 25.5 20.5ZM16.4739 23.4654L23.4654 16.4739C22.6358 15.8618 21.6101 15.5 20.5 15.5C17.7386 15.5 15.5 17.7386 15.5 20.5C15.5 21.6101 15.8618 22.6358 16.4739 23.4654Z" fill="#212121"/>
</svg>
