<svg width="20" height="20" viewBox="0 0 20 20" fill="none" xmlns="http://www.w3.org/2000/svg">
<path d="M6.00048 12.9171C6.04457 9.11691 9.11691 6.04457 12.9171 6.00048C12.4412 3.16253 9.97316 1 7 1C3.68629 1 1 3.68629 1 7C1 9.97316 3.16253 12.4412 6.00048 12.9171ZM9.35355 4.64645C9.54882 4.84171 9.54882 5.15829 9.35355 5.35355L6.35355 8.35355C6.15829 8.54882 5.84171 8.54882 5.64645 8.35355L4.14645 6.85355C3.95118 6.65829 3.95118 6.34171 4.14645 6.14645C4.34171 5.95118 4.65829 5.95118 4.85355 6.14645L6 7.29289L8.64645 4.64645C8.84171 4.45118 9.15829 4.45118 9.35355 4.64645ZM13 19C16.3137 19 19 16.3137 19 13C19 9.68629 16.3137 7 13 7C9.68629 7 7 9.68629 7 13C7 16.3137 9.68629 19 13 19ZM11.3536 10.6464L13 12.2929L14.6464 10.6464C14.8417 10.4512 15.1583 10.4512 15.3536 10.6464C15.5488 10.8417 15.5488 11.1583 15.3536 11.3536L13.7071 13L15.3536 14.6464C15.5488 14.8417 15.5488 15.1583 15.3536 15.3536C15.1583 15.5488 14.8417 15.5488 14.6464 15.3536L13 13.7071L11.3536 15.3536C11.1583 15.5488 10.8417 15.5488 10.6464 15.3536C10.4512 15.1583 10.4512 14.8417 10.6464 14.6464L12.2929 13L10.6464 11.3536C10.4512 11.1583 10.4512 10.8417 10.6464 10.6464C10.8417 10.4512 11.1583 10.4512 11.3536 10.6464Z" fill="#212121"/>
</svg>
