<?xml version="1.0" encoding="UTF-8"?>
<svg width="24px" height="24px" viewBox="0 0 24 24" version="1.1" xmlns="http://www.w3.org/2000/svg" xmlns:xlink="http://www.w3.org/1999/xlink">
    <!-- Generator: Sketch 64 (93537) - https://sketch.com -->
    <title>ic_fluent_keyboard_shift_uppercase_24_regular</title>
    <desc>Created with Sketch.</desc>
    <g id="ðŸ”-System-Icons" stroke="none" stroke-width="1" fill="none" fill-rule="evenodd">
        <g id="ic_fluent_keyboard_shift_uppercase_24_regular" fill="#212121" fill-rule="nonzero">
            <path d="M16.25,20.5 C16.6642136,20.5 17,20.8357864 17,21.25 C17,21.6296958 16.7178461,21.943491 16.3517706,21.9931534 L16.25,22 L7.75,22 C7.33578644,22 7,21.6642136 7,21.25 C7,20.8703042 7.28215388,20.556509 7.64822944,20.5068466 L7.75,20.5 L16.25,20.5 Z M11.0066223,2.37118457 C11.699943,1.89200276 12.6413761,1.97758759 13.236921,2.57393899 L13.3443872,2.69172724 L21.2093456,12.1296773 C21.47143,12.4441786 21.6149584,12.8406111 21.6149584,13.25 C21.6149584,14.1681734 20.9078481,14.9211923 20.0084856,14.9941988 L19.8649584,15 L16.999,15 L17,17.25 C17,18.1171638 16.3692751,18.8370138 15.5415526,18.9758229 L15.3935272,18.9941988 L15.25,19 L8.75,19 C7.8318266,19 7.07880766,18.2928897 7.0058012,17.3935272 L7,17.25 L6.999,15 L4.13504161,15 C3.84262098,15 3.55681072,14.9267712 3.30274748,14.7894144 L3.15432027,14.6993778 L3.01471891,14.5943872 C2.31348349,14.0100244 2.18504558,12.9932755 2.69417624,12.2566223 L2.79065437,12.1296773 L10.6556128,2.69172724 L10.7625631,2.57461307 L10.7625631,2.57461307 L10.8796773,2.4676627 L11.0066223,2.37118457 Z M12.1920553,3.65200384 C12.1183961,3.56361282 11.9966466,3.53892888 11.8967268,3.58430842 L11.8399539,3.61999462 L11.8079447,3.65200384 L3.94298629,13.0899539 C3.85459527,13.1960231 3.86892629,13.3536643 3.97499551,13.4420553 C4.00494801,13.4670157 4.0401025,13.4844488 4.0775394,13.4932974 L4.13504161,13.5 L7.75,13.5 C8.12969577,13.5 8.44349096,13.7821539 8.49315338,14.1482294 L8.5,14.25 L8.5,17.25 C8.5,17.3683467 8.58223341,17.4674868 8.69267729,17.4933973 L8.75,17.5 L15.25,17.5 C15.3683467,17.5 15.4674868,17.4177666 15.4933973,17.3073227 L15.5,17.25 L15.5,14.25 C15.5,13.8703042 15.7821539,13.556509 16.1482294,13.5068466 L16.25,13.5 L19.8649584,13.5 C20.0030296,13.5 20.1149584,13.3880712 20.1149584,13.25 C20.1149584,13.2110106 20.1058455,13.1728438 20.0886767,13.1384192 L20.0570137,13.0899539 L12.1920553,3.65200384 Z" id="ðŸŽ¨-Color"></path>
        </g>
    </g>
</svg>