<svg width="21" height="20" viewBox="0 0 21 20" fill="none" xmlns="http://www.w3.org/2000/svg">
<path d="M6.41602 6C6.41602 3.79086 8.20688 2 10.416 2C12.6252 2 14.416 3.79086 14.416 6C14.416 8.20914 12.6252 10 10.416 10C8.20688 10 6.41602 8.20914 6.41602 6ZM10.416 3C8.75916 3 7.41602 4.34315 7.41602 6C7.41602 7.65685 8.75916 9 10.416 9C12.0729 9 13.416 7.65685 13.416 6C13.416 4.34315 12.0729 3 10.416 3ZM3.41602 13C3.41602 11.8869 4.31917 11 5.42474 11L11.9511 11C11.7721 11.3095 11.6333 11.6452 11.542 12L5.42474 12C4.86388 12 4.41602 12.4467 4.41602 13C4.41602 14.3088 5.03828 15.2837 6.08863 15.9534C7.1592 16.636 8.68091 17 10.416 17C11.3267 17 12.1786 16.8997 12.9374 16.7057L13.1337 17.6876C12.2903 17.8979 11.3699 18 10.416 18C8.56127 18 6.83298 17.614 5.55101 16.7966C4.24883 15.9663 3.41602 14.6912 3.41602 13ZM18.416 13C18.416 14.0229 17.9041 14.9262 17.1225 15.4677L17.016 16H13.816L13.7096 15.4677C12.9279 14.9262 12.416 14.0229 12.416 13C12.416 11.3431 13.7592 10 15.416 10C17.0729 10 18.416 11.3431 18.416 13ZM14.016 17L14.2552 18.1961C14.3487 18.6635 14.7591 19 15.2358 19H15.5962C16.0729 19 16.4833 18.6635 16.5768 18.1961L16.816 17H14.016Z" fill="#212121"/>
</svg>
