<svg width="20" height="20" viewBox="0 0 20 20" fill="none" xmlns="http://www.w3.org/2000/svg">
<path d="M12.7131 9.10697C12.8328 8.86737 12.9885 8.66667 13.1686 8.50486L12.8763 8.17075C12.7721 8.05167 12.6177 7.98894 12.46 8.0016C12.3023 8.01427 12.1599 8.10083 12.076 8.235L10.0892 11.414L7.96154 6.30769C7.88415 6.12196 7.70298 6.00072 7.50177 6C7.30056 5.99929 7.11853 6.11925 7.03983 6.30443L5.46922 10H2.5C2.22386 10 2 10.2239 2 10.5C2 10.7761 2.22386 11 2.5 11H5.8C6.00056 11 6.18172 10.8802 6.26017 10.6956L7.49544 7.78905L9.53846 12.6923C9.6104 12.865 9.77268 12.983 9.95909 12.9983C10.1455 13.0136 10.3249 12.9236 10.424 12.765L12.5671 9.33601L12.5873 9.35902L12.7131 9.10697ZM4.79874 12L9.11235 16.357C9.14145 16.2722 9.1767 16.1879 9.21836 16.1044L9.57082 15.3987L6.16208 11.9557C6.04531 11.9848 5.92389 12 5.8 12H4.79874ZM17.7023 9.01353C18.3116 7.44242 17.9856 5.58687 16.7239 4.31249C15.0611 2.63292 12.3961 2.5895 10.6978 4.19086C10.6612 4.22539 10.6251 4.26068 10.5894 4.29673L9.99299 4.90026L9.38843 4.28963C9.35529 4.25616 9.32175 4.22334 9.28783 4.19116C7.58595 2.57726 4.91654 2.60193 3.26122 4.2739C1.99562 5.55224 1.68337 7.42933 2.32062 9.01062C2.37944 9.00361 2.4393 9 2.5 9H3.4203C2.71314 7.71093 2.89923 6.06088 3.97186 4.97746C5.26525 3.67106 7.36984 3.67208 8.6778 4.99319L9.63801 5.96306C9.8338 6.16082 10.1534 6.16067 10.349 5.96272L11.3 5.00029C12.5964 3.69135 14.7025 3.69204 16.0133 5.01605C17.0851 6.09863 17.2826 7.72238 16.6113 9H17.5C17.5686 9 17.6361 9.00461 17.7023 9.01353ZM13.6029 9.55356L10.1068 16.552C9.77438 17.2174 10.2583 18 11.0022 18H17.9978C18.7419 18 19.2258 17.2171 18.893 16.5517L15.3935 9.55322C15.0246 8.81544 13.9716 8.81564 13.6029 9.55356ZM14.9983 11.4951V14.4974C14.9983 14.7738 14.7743 14.9978 14.4979 14.9978C14.2215 14.9978 13.9975 14.7738 13.9975 14.4974V11.4951C13.9975 11.2187 14.2215 10.9947 14.4979 10.9947C14.7743 10.9947 14.9983 11.2187 14.9983 11.4951ZM14.4979 16.9993C14.2215 16.9993 13.9975 16.7753 13.9975 16.499C13.9975 16.2226 14.2215 15.9986 14.4979 15.9986C14.7743 15.9986 14.9983 16.2226 14.9983 16.499C14.9983 16.7753 14.7743 16.9993 14.4979 16.9993Z" fill="#212121"/>
</svg>
