<svg width="20" height="20" viewBox="0 0 20 20" fill="none" xmlns="http://www.w3.org/2000/svg">
<path d="M8.52969 3.01162C8.68504 3.00133 8.84184 2.99609 8.99993 2.99609C12.8659 2.99609 15.9999 6.1301 15.9999 9.99609C15.9999 10.1553 15.9946 10.3132 15.9842 10.4696C15.9658 10.7452 16.1743 10.9834 16.4498 11.0018C16.7253 11.0202 16.9636 10.8118 16.982 10.5362C16.9939 10.3577 16.9999 10.1775 16.9999 9.99609C16.9999 5.57782 13.4182 1.99609 8.99993 1.99609C8.81976 1.99609 8.64091 2.00206 8.46358 2.01381C8.18804 2.03206 7.97947 2.27023 7.99773 2.54577C8.01598 2.82131 8.25415 3.02988 8.52969 3.01162ZM8.00074 4.98362C8.01256 4.70773 8.24579 4.49366 8.52168 4.50547C11.7577 4.64406 14.3558 7.24231 14.4942 10.4784C14.506 10.7543 14.2919 10.9875 14.016 10.9993C13.7402 11.0111 13.5069 10.797 13.4951 10.5211C13.3789 7.80374 11.1962 5.62093 8.47889 5.50456C8.203 5.49274 7.98893 5.25951 8.00074 4.98362ZM7.50001 12.6213C8.12145 12.6213 8.62523 12.1175 8.62523 11.4961C8.62523 10.8746 8.12145 10.3708 7.50001 10.3708C6.87856 10.3708 6.37479 10.8746 6.37479 11.4961C6.37479 12.1175 6.87856 12.6213 7.50001 12.6213ZM4.31802 14.6781L7.1464 17.5065C7.24017 17.6002 7.36737 17.6529 7.49998 17.6529C7.63259 17.6529 7.76034 17.5997 7.85411 17.5059L10.682 14.6781C12.4393 12.9207 12.4393 10.0715 10.682 8.31409C8.92462 6.55673 6.07538 6.55673 4.31802 8.31409C2.56066 10.0715 2.56066 12.9207 4.31802 14.6781ZM5.02513 13.9709C3.65829 12.6041 3.65829 10.388 5.02513 9.0212C6.39196 7.65436 8.60804 7.65436 9.97487 9.0212C11.3417 10.388 11.3417 12.6041 9.97487 13.9709L7.49998 16.4458L5.02513 13.9709Z" fill="#212121"/>
</svg>
