<svg width="20" height="20" viewBox="0 0 20 20" fill="none" xmlns="http://www.w3.org/2000/svg">
<path d="M15.9912 5.75879C16.609 6.30829 16.999 7.10818 16.999 8V12C16.999 14.7614 14.7604 17 11.999 17H7.99902C7.1072 17 6.30731 16.6099 5.75781 15.9922C5.83762 15.9969 5.91802 16 5.99902 16H11.999C14.2082 16 15.999 14.2091 15.999 12V6C15.999 5.919 15.996 5.8386 15.9912 5.75879ZM6 15C4.34315 15 3 13.6569 3 12H6V15ZM11 15H7V12H11V15ZM15 12C15 13.6569 13.6569 15 12 15V12H15ZM6 11H3V7H6V11ZM11 11H7V7H11V11ZM15 11H12V7H15V11ZM6 6H3C3 4.34315 4.34315 3 6 3V6ZM11 6H7V3H11V6ZM12 3C13.6569 3 15 4.34315 15 6H12V3Z" fill="#212121"/>
</svg>
