<svg width="24" height="24" viewBox="0 0 24 24" fill="none" xmlns="http://www.w3.org/2000/svg">
<path d="M19.4932 6.00684C20.3994 6.58357 21.001 7.59625 21.001 8.75V15.25C21.001 18.4256 18.4266 21 15.251 21H8.75098C7.59723 21 6.58455 20.3984 6.00781 19.4922C6.08831 19.4967 6.16935 19.5 6.25098 19.5H15.251C17.5982 19.5 19.501 17.5972 19.501 15.25V6.25C19.501 6.16837 19.4977 6.08733 19.4932 6.00684ZM7 18.5H6.25C4.45507 18.5 3 17.0449 3 15.25V14.5H7V18.5ZM13 18.5H8.5V14.5H13V18.5ZM18.5 15.25C18.5 17.0449 17.0449 18.5 15.25 18.5H14.5V14.5H18.5V15.25ZM7 13H3V8.5H7V13ZM13 13H8.5V8.5H13V13ZM18.5 13H14.5V8.5H18.5V13ZM7 7H3V6.25C3 4.45507 4.45507 3 6.25 3H7V7ZM13 7H8.5V3H13V7ZM15.25 3C17.0449 3 18.5 4.45507 18.5 6.25V7H14.5V3H15.25Z" fill="#212121"/>
</svg>
