<svg width="48" height="48" viewBox="0 0 48 48" fill="none" xmlns="http://www.w3.org/2000/svg">
<path d="M24 8.5C22.067 8.5 20.5 10.067 20.5 12V27.7874L20.0422 28.1625C18.6408 29.3107 17.75 31.0508 17.75 33C17.75 36.4518 20.5482 39.25 24 39.25C27.4518 39.25 30.25 36.4518 30.25 33C30.25 31.0508 29.3592 29.3107 27.9578 28.1625L27.5 27.7874V12C27.5 10.067 25.933 8.5 24 8.5ZM18 12C18 8.68629 20.6863 6 24 6C27.3137 6 30 8.68629 30 12V26.6311C31.6915 28.2253 32.75 30.4895 32.75 33C32.75 37.8325 28.8325 41.75 24 41.75C19.1675 41.75 15.25 37.8325 15.25 33C15.25 30.4895 16.3086 28.2253 18 26.6311V12ZM28 33C28 35.2091 26.2091 37 24 37C21.7909 37 20 35.2091 20 33C20 31.2274 21.153 29.7241 22.75 29.1992V18.25C22.75 17.5596 23.3096 17 24 17C24.6904 17 25.25 17.5596 25.25 18.25V29.1992C26.847 29.7241 28 31.2274 28 33Z" fill="#212121"/>
</svg>
