<?xml version="1.0" encoding="UTF-8"?>
<svg width="20px" height="20px" viewBox="0 0 20 20" version="1.1" xmlns="http://www.w3.org/2000/svg" xmlns:xlink="http://www.w3.org/1999/xlink">
    <!-- Generator: Sketch 64 (93537) - https://sketch.com -->
    <title>ic_fluent_image_edit_20_filled</title>
    <desc>Created with Sketch.</desc>
    <g id="ðŸ”-System-Icons" stroke="none" stroke-width="1" fill="none" fill-rule="evenodd">
        <g id="ic_fluent_image_edit_20_filled" fill="#212121" fill-rule="nonzero">
            <path d="M17.4523,9.54776 C18.1420278,10.2375256 18.180346,11.3320338 17.5672546,12.0668213 L17.4523,12.1926 L12.6229,17.022 C12.3882333,17.2566667 12.1041222,17.4344583 11.7923838,17.5431065 L11.6022,17.5999 L10.1043,17.9744 C9.48904167,18.1281556 8.92855954,17.6104321 9.00537097,17.0036796 L9.02566,16.8958 L9.40013,15.3979 C9.48061333,15.0759833 9.63274944,14.7773306 9.84417144,14.5237588 L9.97804,14.3772 L14.8075,9.54776 C15.5378,8.81741 16.7219,8.81741 17.4523,9.54776 Z M10.3508,11.1471 L11.078,11.8631 L9.27099,13.6701 C8.86126,14.0798 8.57058,14.5932 8.43005,15.1554 L8.05557,16.6533 C8.02637,16.7701 8.00856,16.8859 8.00127,17 L6,17 C5.35372,17 4.75517,16.7956 4.26544,16.448 L9.6492,11.1471 C9.84381,10.9555 10.1562,10.9555 10.3508,11.1471 Z M15.6037056,10.1770154 L15.5146,10.2549 L10.6852,15.0843 C10.5624,15.20702 10.468208,15.354572 10.408512,15.51646 L10.3703,15.6404 L10.0405,16.9596 L11.3596,16.6298 C11.528,16.58772 11.684688,16.509608 11.8192192,16.4015056 L11.9158,16.3149 L16.7452,11.4855 C17.085,11.1457 17.085,10.5947 16.7452,10.2549 C16.4337167,9.94336167 15.9447667,9.91740014 15.6037056,10.1770154 Z M14,3 C15.597725,3 16.903664,4.24892392 16.9949075,5.82372764 L17,6 L17,8.13443 C16.0725313,7.84030812 15.0251797,8.02882883 14.2513932,8.69998387 L14.1004,8.84065 L11.7851,11.156 L11.0524,10.4345 C10.5050875,9.89556875 9.64720469,9.86188555 9.0610297,10.3334504 L8.94759,10.4345 L3.55724,15.7419 C3.2454,15.3054556 3.04765383,14.7817815 3.00756011,14.2146331 L3,14 L3,6 C3,4.40232321 4.24892392,3.09633941 5.82372764,3.00509271 L6,3 L14,3 Z M12.5,6 C11.6716,6 11,6.67157 11,7.5 C11,8.32843 11.6716,9 12.5,9 C13.3284,9 14,8.32843 14,7.5 C14,6.67157 13.3284,6 12.5,6 Z M12.5,7 C12.7761,7 13,7.22386 13,7.5 C13,7.77614 12.7761,8 12.5,8 C12.2239,8 12,7.77614 12,7.5 C12,7.22386 12.2239,7 12.5,7 Z" id="ðŸŽ¨-Color"></path>
        </g>
    </g>
</svg>