<svg width="20" height="20" viewBox="0 0 20 20" fill="none" xmlns="http://www.w3.org/2000/svg">
<path d="M3 6C3 4.34315 4.34315 3 6 3H14C15.6569 3 17 4.34315 17 6V8.13443C16.6757 8.03159 16.3368 7.98776 16 8.00292V6C16 4.89543 15.1046 4 14 4H6C4.89543 4 4 4.89543 4 6V14C4 14.3726 4.10191 14.7215 4.27937 15.0201L8.94868 10.432C9.53227 9.85859 10.4677 9.85859 11.0513 10.432L11.7866 11.1545L11.0794 11.8616L10.3504 11.1453C10.1559 10.9542 9.84409 10.9542 9.64956 11.1453L4.98824 15.7256C5.28505 15.9 5.63085 16 6 16H8.21888L8.05557 16.6533C8.02637 16.7701 8.00856 16.8859 8.00127 17H6C4.34315 17 3 15.6569 3 14V6Z" fill="#212121"/>
<path d="M14 7.5C14 8.32843 13.3284 9 12.5 9C11.6716 9 11 8.32843 11 7.5C11 6.67157 11.6716 6 12.5 6C13.3284 6 14 6.67157 14 7.5ZM13 7.5C13 7.22386 12.7761 7 12.5 7C12.2239 7 12 7.22386 12 7.5C12 7.77614 12.2239 8 12.5 8C12.7761 8 13 7.77614 13 7.5Z" fill="#212121"/>
<path d="M14.8075 9.54776L9.97804 14.3772C9.69647 14.6588 9.49671 15.0116 9.40013 15.3979L9.02566 16.8958C8.86281 17.5472 9.45285 18.1372 10.1043 17.9744L11.6022 17.5999C11.9885 17.5033 12.3413 17.3036 12.6229 17.022L17.4523 12.1926C18.1826 11.4622 18.1826 10.2781 17.4523 9.54776C16.7219 8.81741 15.5378 8.81741 14.8075 9.54776ZM15.5146 10.2549C15.8544 9.91504 16.4054 9.91504 16.7452 10.2549C17.085 10.5947 17.085 11.1457 16.7452 11.4855L11.9158 16.3149C11.7623 16.4683 11.5701 16.5772 11.3596 16.6298L10.0405 16.9596L10.3703 15.6404C10.4229 15.4299 10.5317 15.2377 10.6852 15.0843L15.5146 10.2549Z" fill="#212121"/>
</svg>
