<svg width="32" height="32" viewBox="0 0 32 32" fill="none" xmlns="http://www.w3.org/2000/svg">
<path d="M7.50025 5C7.89755 5 8.25717 5.23519 8.41641 5.59918L11.9164 13.5992C12.1378 14.1052 11.9071 14.6948 11.4011 14.9162C10.8951 15.1375 10.3055 14.9068 10.0841 14.4008L9.47124 13H5.52927L4.91641 14.4008C4.69504 14.9068 4.10541 15.1375 3.59943 14.9162C3.09345 14.6948 2.86273 14.1052 3.0841 13.5992L6.5841 5.59918C6.74334 5.23519 7.10295 5 7.50025 5ZM8.59624 11L7.50025 8.49489L6.40427 11H8.59624ZM4.00025 19C3.44797 19 3.00025 19.4477 3.00025 20C3.00025 20.5523 3.44797 21 4.00025 21H28.0003C28.5525 21 29.0003 20.5523 29.0003 20C29.0003 19.4477 28.5525 19 28.0003 19H4.00025ZM4.00025 25C3.44797 25 3.00025 25.4477 3.00025 26C3.00025 26.5523 3.44797 27 4.00025 27H28.0003C28.5525 27 29.0003 26.5523 29.0003 26C29.0003 25.4477 28.5525 25 28.0003 25H4.00025ZM13.0003 6C13.0003 5.44772 13.448 5 14.0003 5H16.5003C18.1571 5 19.5003 6.34315 19.5003 8C19.5003 8.64187 19.2987 9.23666 18.9554 9.72451C19.5951 10.2747 20.0003 11.09 20.0003 12C20.0003 13.6569 18.6571 15 17.0003 15H14.0003C13.448 15 13.0003 14.5523 13.0003 14V6ZM15.0003 11V13H17.0003C17.5525 13 18.0003 12.5523 18.0003 12C18.0003 11.4477 17.5525 11 17.0003 11H15.0003ZM15.0003 9H16.5003C17.0525 9 17.5003 8.55228 17.5003 8C17.5003 7.44772 17.0525 7 16.5003 7H15.0003V9ZM23.0003 10C23.0003 8.82442 23.2943 8.06911 23.6504 7.6288C23.9923 7.20601 24.4468 7 24.9794 7C25.6391 7 26.2092 7.31927 26.5837 8.17766C26.8045 8.68387 27.3939 8.91519 27.9001 8.69434C28.4063 8.47349 28.6377 7.8841 28.4168 7.37789C27.7572 5.86592 26.5136 5 24.9794 5C23.8667 5 22.8316 5.46065 22.0953 6.3712C21.3731 7.26423 21.0003 8.50892 21.0003 10C21.0003 11.4911 21.3731 12.7358 22.0953 13.6288C22.8316 14.5393 23.8667 15 24.9794 15C26.5136 15 27.7572 14.1341 28.4168 12.6221C28.6377 12.1159 28.4063 11.5265 27.9001 11.3057C27.3939 11.0848 26.8045 11.3161 26.5837 11.8223C26.2092 12.6807 25.6391 13 24.9794 13C24.4468 13 23.9923 12.794 23.6504 12.3712C23.2943 11.9309 23.0003 11.1756 23.0003 10Z" fill="#212121"/>
</svg>
