<svg width="20" height="20" viewBox="0 0 20 20" fill="none" xmlns="http://www.w3.org/2000/svg">
<path d="M13.8672 2C14.7453 2 15.5599 2.46085 16.0117 3.21387L16.6436 4.26758C16.8766 4.65604 17 5.10069 17 5.55371V5.64453C17 6.13806 16.8538 6.6206 16.5801 7.03125L13.3691 11.8457C13.7677 12.4677 14 13.2065 14 14C14 16.2091 12.2091 18 10 18C7.79086 18 6 16.2091 6 14C6 13.2069 6.23179 12.4684 6.62988 11.8467L3.41992 7.03125C3.14616 6.6206 3.00002 6.13806 3 5.64453V5.55371C3.00005 5.10069 3.12337 4.65604 3.35645 4.26758L3.98828 3.21387C4.44009 2.46085 5.25465 2 6.13281 2H13.8672ZM10 11C8.34315 11 7 12.3431 7 14C7 15.6569 8.34315 17 10 17C11.6569 17 13 15.6569 13 14C13 12.3431 11.6569 11 10 11ZM5.00195 3.5166C4.94471 3.58234 4.89141 3.65233 4.8457 3.72852L4.21387 4.78223C4.07404 5.01528 4.00005 5.28193 4 5.55371V5.64453C4.00002 5.94064 4.0877 6.23019 4.25195 6.47656L7.2998 11.0488C7.80678 10.5847 8.43388 10.2501 9.12891 10.0957L5.24512 4.26953C5.09587 4.04566 5.01245 3.78477 5.00195 3.5166ZM14.9971 3.5166C14.9866 3.78476 14.9041 4.04567 14.7549 4.26953L10.8691 10.0957C11.5644 10.2498 12.192 10.5838 12.6992 11.0479L15.748 6.47656C15.9123 6.23018 16 5.94064 16 5.64453V5.55371C16 5.28193 15.926 5.01528 15.7861 4.78223L15.1543 3.72852C15.1085 3.65215 15.0545 3.58247 14.9971 3.5166ZM10 9.59863L12.3994 6H7.60059L10 9.59863ZM6.45996 3C6.20619 3 6 3.20619 6 3.45996C6.00009 3.55051 6.02692 3.6395 6.07715 3.71484L6.9375 5.00586C6.95805 5.00329 6.97875 5 7 5H13C13.0209 5 13.0413 5.00336 13.0615 5.00586L13.9229 3.71484C13.9731 3.6395 13.9999 3.55051 14 3.45996C14 3.20619 13.7938 3 13.54 3H6.45996Z" fill="#212121"/>
</svg>
