<svg width="24" height="24" viewBox="0 0 24 24" fill="none" xmlns="http://www.w3.org/2000/svg">
<path d="M18.75 5.25C18.75 4.00736 17.7426 3 16.5 3H4.25C3.00736 3 2 4.00736 2 5.25V14.75C2 15.9926 3.00736 17 4.25 17H4.5V8.75L4.50514 8.56558C4.60075 6.85646 6.01697 5.5 7.75 5.5H18.75V5.25Z" fill="#212121"/>
<path d="M7.5 6.5C6.39543 6.5 5.5 7.39543 5.5 8.5V18.5C5.5 19.6046 6.39543 20.5 7.5 20.5H11.7322C11.2644 19.6025 11 18.5821 11 17.5C11 13.9101 13.9101 11 17.5 11C19.2465 11 20.8321 11.6888 22 12.8096V8.5C22 7.39543 21.1046 6.5 20 6.5H7.5Z" fill="#212121"/>
<path d="M17.5 23C20.5376 23 23 20.5376 23 17.5C23 14.4624 20.5376 12 17.5 12C14.4624 12 12 14.4624 12 17.5C12 20.5376 14.4624 23 17.5 23ZM14 17.5C14 17.2239 14.2239 17 14.5 17L19.2929 17L17.6464 15.3536C17.4512 15.1583 17.4512 14.8417 17.6464 14.6464C17.8417 14.4512 18.1583 14.4512 18.3536 14.6464L20.8536 17.1464C21.0488 17.3417 21.0488 17.6583 20.8536 17.8536L18.3536 20.3536C18.1583 20.5488 17.8417 20.5488 17.6464 20.3536C17.4512 20.1583 17.4512 19.8417 17.6464 19.6464L19.2929 18L14.5 18C14.2239 18 14 17.7761 14 17.5Z" fill="#212121"/>
</svg>
