<svg width="20" height="20" viewBox="0 0 20 20" fill="none" xmlns="http://www.w3.org/2000/svg">
<path d="M18.5 13.5C18.7761 13.5 19 13.7239 19 14C19 16.0398 17.4731 17.7217 15.5 17.9678V18.5C15.5 18.7761 15.2761 19 15 19C14.7239 19 14.5 18.7761 14.5 18.5V17.9678C12.5269 17.7217 11 16.0398 11 14C11 13.7239 11.2239 13.5 11.5 13.5C11.7761 13.5 12 13.7239 12 14C12 15.6569 13.3431 17 15 17C16.6569 17 18 15.6569 18 14C18 13.7239 18.2239 13.5 18.5 13.5ZM15.5 4C16.8807 4 18 5.11929 18 6.5V12C18 10.3431 16.6569 9 15 9C13.3431 9 12 10.3431 12 12V12.5869C11.8435 12.5315 11.6755 12.5 11.5 12.5C10.6716 12.5 10 13.1716 10 14C10 14.7111 10.1484 15.3875 10.416 16H4.5C3.11929 16 2 14.8807 2 13.5V6.5C2 5.11929 3.11929 4 4.5 4H15.5ZM15 10C16.1046 10 17 10.8954 17 12V14C17 15.1046 16.1046 16 15 16C13.8954 16 13 15.1046 13 14V12C13 10.8954 13.8954 10 15 10ZM5.5 12C5.22386 12 5 12.2239 5 12.5C5 12.7761 5.22386 13 5.5 13H9.5C9.77614 13 10 12.7761 10 12.5C10 12.2239 9.77614 12 9.5 12H5.5ZM5.5 9.5C5.22386 9.5 5 9.72386 5 10C5 10.2761 5.22386 10.5 5.5 10.5H11C11.2761 10.5 11.5 10.2761 11.5 10C11.5 9.72386 11.2761 9.5 11 9.5H5.5ZM5.5 7C5.22386 7 5 7.22386 5 7.5C5 7.77614 5.22386 8 5.5 8H9.5C9.77614 8 10 7.77614 10 7.5C10 7.22386 9.77614 7 9.5 7H5.5Z" fill="#212121"/>
</svg>
