<svg width="24" height="24" viewBox="0 0 24 24" fill="none" xmlns="http://www.w3.org/2000/svg">
<path d="m6.29,20.71c.39.39,1.02.39,1.41,0,.39-.39.39-1.02,0-1.41l-2.29-2.29h7.09c2.49,0,4.5-2.01,4.5-4.5v-7.09l2.29,2.29c.39.39,1.02.39,1.41,0,.39-.39.39-1.02,0-1.41l-4-4c-.39-.39-1.02-.39-1.41,0l-4,4c-.39.39-.39,1.02,0,1.41.39.39,1.02.39,1.41,0l2.29-2.29v7.09c0,1.38-1.12,2.5-2.5,2.5h-7.09l2.29-2.29c.39-.39.39-1.02,0-1.41-.39-.39-1.02-.39-1.41,0l-4,4c-.19.19-.29.44-.29.71s.11.52.29.71l4,4Z" fill="#212121"/>
</svg>