<svg width="16" height="16" viewBox="0 0 16 16" fill="none" xmlns="http://www.w3.org/2000/svg">
<path d="M12.25 5C12.6642 5 13 5.33579 13 5.75V14.25C13 14.6642 12.6642 15 12.25 15C11.8358 15 11.5 14.6642 11.5 14.25V5.75C11.5 5.33579 11.8358 5 12.25 5ZM8.25 1C8.66421 1 9 1.33579 9 1.75V14.25C9 14.6642 8.66421 15 8.25 15C7.83579 15 7.5 14.6642 7.5 14.25V1.75C7.5 1.33579 7.83579 1 8.25 1ZM4.25 9C4.66421 9 5 9.33579 5 9.75V14.25C5 14.6642 4.66421 15 4.25 15C3.83579 15 3.5 14.6642 3.5 14.25V9.75C3.5 9.33579 3.83579 9 4.25 9Z" fill="#212121"/>
</svg>
