<?xml version="1.0" encoding="UTF-8"?>
<svg width="24px" height="24px" viewBox="0 0 24 24" version="1.1" xmlns="http://www.w3.org/2000/svg" xmlns:xlink="http://www.w3.org/1999/xlink">
    <!-- Generator: Sketch 61.2 (89653) - https://sketch.com -->
    <title>ic_fluent_home_add__24_regular</title>
    <desc>Created with Sketch.</desc>
    <g id="ðŸ”-Product-Icons" stroke="none" stroke-width="1" fill="none" fill-rule="evenodd">
        <g id="ic_fluent_home_add__24_regular" fill="#212121" fill-rule="nonzero">
            <path d="M12.1771231,2.7711622 L12.0798099,2.91102682 C11.6393965,3.5748215 11.317663,4.32418999 11.1448809,5.12886088 L5.35753749,9.68827129 C4.81603412,10.1149103 4.5,10.7662461 4.5,11.4556276 L4.5,20.5 L9,20.5 L9,15.75 C9,14.7835017 9.78350169,14 10.75,14 L13.25,14 C14.2164983,14 15,14.7835017 15,15.75 L15,20.5 L19.5,20.5 L19.5004209,12.6863646 C20.0341997,12.5138894 20.5377831,12.2742498 21.0012092,11.9774077 L21,20.75 C21,21.4403559 20.4403559,22 19.75,22 L14.75,22 C14.0596441,22 13.5,21.4403559 13.5,20.75 L13.5,15.75 C13.5,15.6119288 13.3880712,15.5 13.25,15.5 L10.75,15.5 C10.6119288,15.5 10.5,15.6119288 10.5,15.75 L10.5,20.75 C10.5,21.4403559 9.94035594,22 9.25,22 L4.25,22 C3.55964406,22 3,21.4403559 3,20.75 L3,11.4556276 C3,10.3066585 3.52672353,9.22109881 4.42922915,8.51003378 L11.5358458,2.91088125 C11.7213483,2.76472777 11.9586244,2.71815476 12.1771231,2.7711622 Z M17.5,1 C20.5375661,1 23,3.46243388 23,6.5 C23,9.53756612 20.5375661,12 17.5,12 C14.4624339,12 12,9.53756612 12,6.5 C12,3.46243388 14.4624339,1 17.5,1 Z M17.5,2.9992349 L17.4101244,3.00729057 C17.2060313,3.04433453 17.0450996,3.20526621 17.0080557,3.40935926 L17,3.4992349 L16.9996498,5.9992349 L14.4976498,6 L14.4077742,6.00805567 C14.2036811,6.04509963 14.0427494,6.20603131 14.0057055,6.41012437 L13.9976498,6.5 L14.0057055,6.58987563 C14.0427494,6.79396869 14.2036811,6.95490037 14.4077742,6.99194433 L14.4976498,7 L17.0006498,6.9992349 L17.0011076,9.5034847 L17.0091633,9.59336034 C17.0462073,9.79745339 17.207139,9.95838507 17.411232,9.99542903 L17.5011076,10.0034847 L17.5909833,9.99542903 C17.7950763,9.95838507 17.956008,9.79745339 17.993052,9.59336034 L18.0011076,9.5034847 L18.0006498,6.9992349 L20.5045655,7 L20.5944411,6.99194433 C20.7985342,6.95490037 20.9594659,6.79396869 20.9965098,6.58987563 L21.0045655,6.5 L20.9965098,6.41012437 C20.9594659,6.20603131 20.7985342,6.04509963 20.5944411,6.00805567 L20.5045655,6 L17.9996498,5.9992349 L18,3.4992349 L17.9919443,3.40935926 C17.9496084,3.17611006 17.7454599,2.9992349 17.5,2.9992349 Z" id="ðŸŽ¨-Color"></path>
        </g>
    </g>
</svg>