<svg width="24" height="24" viewBox="0 0 24 24" fill="none" xmlns="http://www.w3.org/2000/svg">
<path d="M16.75 1.25C17.1642 1.25 17.5 1.58579 17.5 2V3C17.5 3.41421 17.1642 3.75 16.75 3.75C16.3358 3.75 16 3.41421 16 3V2C16 1.58579 16.3358 1.25 16.75 1.25ZM20.4697 2.46967C20.7626 2.17678 21.2375 2.17678 21.5303 2.46967C21.8232 2.76256 21.8232 3.23744 21.5303 3.53033L19.5303 5.53033C19.2375 5.82322 18.7626 5.82322 18.4697 5.53033C18.1768 5.23744 18.1768 4.76256 18.4697 4.46967L20.4697 2.46967ZM8.25002 6.31074V9.18942L14.8106 15.75H17.6893L8.25002 6.31074ZM19.0606 15L20.4697 13.591C21.3484 12.7123 21.3484 11.2877 20.4697 10.409L13.591 3.53033C12.7123 2.65165 11.2877 2.65165 10.409 3.53033L8.99998 4.93938L19.0606 15ZM13 16.0607L7.93932 11L3.03035 15.909C2.15167 16.7877 2.15167 18.2123 3.03035 19.091L4.90903 20.9697C5.78771 21.8484 7.21233 21.8483 8.09101 20.9697L13 16.0607ZM9.53031 14.4697C9.8232 14.7626 9.8232 15.2375 9.53031 15.5304L8.03031 17.0304C7.73741 17.3233 7.26254 17.3233 6.96965 17.0304C6.67675 16.7375 6.67675 16.2626 6.96965 15.9697L8.46965 14.4697C8.76254 14.1768 9.23741 14.1768 9.53031 14.4697ZM22 8H21C20.5858 8 20.25 7.66421 20.25 7.25C20.25 6.83579 20.5858 6.5 21 6.5H22C22.4142 6.5 22.75 6.83579 22.75 7.25C22.75 7.66421 22.4142 8 22 8Z" fill="#212121"/>
</svg>
