<svg width="48" height="48" viewBox="0 0 48 48" fill="none" xmlns="http://www.w3.org/2000/svg">
<path d="M3.75 24C3.75 23.1716 4.42157 22.5 5.25 22.5H37.0852L24.6983 10.3195C24.1076 9.73869 24.0996 8.78898 24.6805 8.19829C25.2613 7.6076 26.211 7.59962 26.8017 8.18047L41.7991 22.9279C41.8021 22.9308 41.805 22.9337 41.808 22.9367C41.8119 22.9405 41.8157 22.9444 41.8195 22.9483C42.3251 23.4625 42.3846 24.2487 42.0019 24.8268C41.9656 24.8817 41.9252 24.9348 41.8809 24.9855C41.8613 25.008 41.8408 25.0301 41.8195 25.0517C41.8178 25.0535 41.816 25.0553 41.8143 25.057C41.802 25.0695 41.7897 25.0816 41.7774 25.0935L26.8017 39.8195C26.211 40.4004 25.2613 40.3924 24.6805 39.8017C24.0996 39.211 24.1076 38.2613 24.6983 37.6805L37.0852 25.5H5.25C4.42157 25.5 3.75 24.8284 3.75 24Z" fill="#212121"/>
</svg>
