<svg width="20" height="20" viewBox="0 0 20 20" fill="none" xmlns="http://www.w3.org/2000/svg">
<path d="M13.3536 8.85114C13.5488 8.65582 13.5488 8.33915 13.3536 8.14383C13.1583 7.94851 12.8417 7.94851 12.6464 8.14383L9 11.7913L7.35355 10.1444C7.15829 9.94909 6.84171 9.94909 6.64645 10.1444C6.45118 10.3397 6.45118 10.6564 6.64645 10.8517L8.64645 12.8523C8.84171 13.0476 9.15829 13.0476 9.35355 12.8523L13.3536 8.85114ZM11.0025 2.38432C10.4323 1.87189 9.56767 1.87189 8.9975 2.38432L3.4975 7.32728C3.18086 7.61186 3 8.0176 3 8.4434V15.4996C3 16.3282 3.67157 17 4.5 17H15.5C16.3284 17 17 16.3282 17 15.4996V8.4434C17 8.0176 16.8191 7.61186 16.5025 7.32728L11.0025 2.38432ZM9.66583 3.12839C9.85589 2.95759 10.1441 2.95759 10.3342 3.12839L15.8342 8.07136C15.9397 8.16622 16 8.30147 16 8.4434V15.4996C16 15.7758 15.7761 15.9997 15.5 15.9997H4.5C4.22386 15.9997 4 15.7758 4 15.4996V8.4434C4 8.30147 4.06029 8.16622 4.16583 8.07136L9.66583 3.12839Z" fill="#212121"/>
</svg>
