<svg width="20" height="20" viewBox="0 0 20 20" fill="none" xmlns="http://www.w3.org/2000/svg">
<path d="M4.5 14L9.5 13.5L15.5 14H15.7639C15.9192 14 16.0723 14.0361 16.2111 14.1056L17.5528 14.7764C17.8269 14.9134 18 15.1936 18 15.5H2C2 15.1936 2.17313 14.9134 2.44721 14.7764L3.78885 14.1056C3.92771 14.0361 4.08082 14 4.23607 14H4.5Z" fill="url(#paint0_linear_72095_9144)"/>
<path d="M2.5 15C2.22386 15 2 15.2239 2 15.5C2 15.7761 2.22386 16 2.5 16H17.5C17.7761 16 18 15.7761 18 15.5C18 15.2239 17.7761 15 17.5 15H2.5Z" fill="url(#paint1_linear_72095_9144)"/>
<path d="M4.5 5C3.67157 5 3 5.67157 3 6.5V12.5C3 13.3284 3.67157 14 4.5 14H15.5C16.3284 14 17 13.3284 17 12.5V6.5C17 5.67157 16.3284 5 15.5 5H4.5Z" fill="url(#paint2_linear_72095_9144)"/>
<defs>
<linearGradient id="paint0_linear_72095_9144" x1="18" y1="15.9762" x2="17.1969" y2="11.1577" gradientUnits="userSpaceOnUse">
<stop stop-color="#63686E"/>
<stop offset="1" stop-color="#889096"/>
</linearGradient>
<linearGradient id="paint1_linear_72095_9144" x1="18" y1="15.9286" x2="17.8844" y2="14.0787" gradientUnits="userSpaceOnUse">
<stop stop-color="#889096"/>
<stop offset="1" stop-color="#AAB3BD"/>
</linearGradient>
<linearGradient id="paint2_linear_72095_9144" x1="12.8" y1="5" x2="13.2824" y2="15.2994" gradientUnits="userSpaceOnUse">
<stop stop-color="#6CE0FF"/>
<stop offset="1" stop-color="#4894FE"/>
</linearGradient>
</defs>
</svg>
