<svg width="16" height="16" viewBox="0 0 16 16" fill="none" xmlns="http://www.w3.org/2000/svg">
<path d="M5.5 2.5C5.5 2.22386 5.27614 2 5 2C4.72386 2 4.5 2.22386 4.5 2.5V7.5C4.5 9.433 6.067 11 8 11C9.933 11 11.5 9.433 11.5 7.5V2.5C11.5 2.22386 11.2761 2 11 2C10.7239 2 10.5 2.22386 10.5 2.5V7.5C10.5 8.88071 9.38071 10 8 10C6.61929 10 5.5 8.88071 5.5 7.5V2.5ZM4.5 13C4.22386 13 4 13.2239 4 13.5C4 13.7761 4.22386 14 4.5 14H11.5C11.7761 14 12 13.7761 12 13.5C12 13.2239 11.7761 13 11.5 13H4.5Z" fill="#212121"/>
</svg>
