<svg width="16" height="16" viewBox="0 0 16 16" fill="none" xmlns="http://www.w3.org/2000/svg">
<path d="M8.00001 1C11.866 1 15 4.13401 15 8.00002C15 8.08865 14.9964 8.17683 14.9932 8.26467C14.8403 8.17699 14.6749 8.1085 14.5 8.06349V8.00002C14.5 6.34316 13.1569 5.00001 11.5 5.00001C9.84331 5.00019 8.50001 6.34327 8.50001 8.00002V8.06349C7.63761 8.28566 7.00001 9.06825 7.00001 10V14C7.00001 14.3474 7.08838 14.6744 7.24415 14.959C6.23756 14.8504 5.29455 14.5281 4.46191 14.0391L1.6582 14.9746C1.47867 15.0343 1.2803 14.9873 1.14648 14.8535C1.01279 14.7197 0.96564 14.5213 1.02539 14.3418L1.95898 11.5362C1.35016 10.4985 0.999995 9.28976 0.999995 8.00002C0.999995 4.13416 4.13421 1.00024 8.00001 1ZM11.5 6.00001C12.6046 6.00001 13.5 6.89545 13.5 8.00002V9.00002H14C14.5523 9.00002 15 9.44774 15 10V14C15 14.5523 14.5523 15 14 15H9.00001C8.44779 15 8.00001 14.5523 8.00001 14V10C8.00001 9.44778 8.44779 9.0001 9.00001 9.00002H9.50001V8.00002C9.50001 6.89549 10.3955 6.00009 11.5 6.00001ZM11.5 11.25C11.0859 11.2501 10.75 11.5859 10.75 12C10.75 12.4142 11.0859 12.75 11.5 12.75C11.9142 12.75 12.25 12.4142 12.25 12C12.25 11.5858 11.9142 11.25 11.5 11.25ZM11.5 7.00002C10.9478 7.00009 10.5 7.44778 10.5 8.00002V9.00002H12.5V8.00002C12.5 7.44773 12.0523 7.00002 11.5 7.00002Z" fill="#212121"/>
</svg>
