<svg width="20" height="20" viewBox="0 0 20 20" fill="none" xmlns="http://www.w3.org/2000/svg">
<path d="M13.5 8C16.5376 8 19 10.4624 19 13.5C19 16.5376 16.5376 19 13.5 19C10.4624 19 8 16.5376 8 13.5C8 10.4624 10.4624 8 13.5 8ZM13.5 13C13.2239 13 13 13.2239 13 13.5V15.5C13 15.7761 13.2239 16 13.5 16C13.7761 16 14 15.7761 14 15.5V13.5C14 13.2239 13.7761 13 13.5 13ZM11 2C12.6569 2 14 3.34315 14 5V7.02051C13.8349 7.00795 13.6683 7 13.5 7C9.91015 7 7 9.91015 7 13.5C7 13.6683 7.00892 13.8349 7.02148 14H5C3.34315 14 2 12.6569 2 11V5C2 3.34315 3.34315 2 5 2H11ZM13.5 10.75C13.0858 10.75 12.75 11.0858 12.75 11.5C12.75 11.9142 13.0858 12.25 13.5 12.25C13.9142 12.25 14.25 11.9142 14.25 11.5C14.25 11.0858 13.9142 10.75 13.5 10.75ZM4.5 8C4.22386 8 4 8.22386 4 8.5C4 8.77614 4.22386 9 4.5 9H7.5C7.77614 9 8 8.77614 8 8.5C8 8.22386 7.77614 8 7.5 8H4.5ZM4.5 5C4.22386 5 4 5.22386 4 5.5C4 5.77614 4.22386 6 4.5 6H11.5C11.7761 6 12 5.77614 12 5.5C12 5.22386 11.7761 5 11.5 5H4.5Z" fill="#212121"/>
</svg>
