<svg width="20" height="20" viewBox="0 0 20 20" fill="none" xmlns="http://www.w3.org/2000/svg">
<path d="M18 10C18 12.0279 17.2454 13.8796 16.0017 15.2897L11.0525 10.4185C10.4687 9.84393 9.53192 9.84393 8.94812 10.4185L3.99855 15.29C2.75469 13.8799 2 12.0281 2 10C2 5.58172 5.58172 2 10 2C14.4183 2 18 5.58172 18 10ZM10.351 11.1312L15.2949 15.9971C13.8843 17.2436 12.0305 18 10 18C7.96969 18 6.11604 17.2437 4.70541 15.9974L9.64959 11.1312C9.84419 10.9397 10.1564 10.9397 10.351 11.1312ZM12.75 8.5C13.4404 8.5 14 7.94036 14 7.25C14 6.55964 13.4404 6 12.75 6C12.0596 6 11.5 6.55964 11.5 7.25C11.5 7.94036 12.0596 8.5 12.75 8.5Z" fill="#212121"/>
</svg>
