<svg width="28" height="28" viewBox="0 0 28 28" fill="none" xmlns="http://www.w3.org/2000/svg">
<path d="M24.9541 21C26.0838 21 27 21.9152 27 23.0449V23.25C27 25.1178 25.4286 27 21.5 27C17.5714 27 16 25.1249 16 23.25V23.0449C16 21.9152 16.9162 21 18.0459 21H24.9541ZM19.25 2C19.6642 2 20 2.33579 20 2.75V4H20.25C21.7688 4 23 5.23122 23 6.75V13.292C22.5367 13.1044 22.0306 13 21.5 13C19.2909 13 17.5 14.7909 17.5 17C17.5 18.1947 18.0241 19.2671 18.8545 20H18.0459C16.3644 20 15 21.3625 15 23.0449V23.25C15 23.8468 15.124 24.4421 15.3789 25H7.75C6.23122 25 5 23.7688 5 22.25V6.75C5 5.23122 6.23122 4 7.75 4H8V2.75C8 2.33579 8.33579 2 8.75 2C9.16421 2 9.5 2.33579 9.5 2.75V4H13.25V2.75C13.25 2.33579 13.5858 2 14 2C14.4142 2 14.75 2.33579 14.75 2.75V4H18.5V2.75C18.5 2.33579 18.8358 2 19.25 2ZM21.5 14C23.1569 14 24.5 15.3431 24.5 17C24.5 18.6569 23.1569 20 21.5 20C19.8431 20 18.5 18.6569 18.5 17C18.5 15.3431 19.8431 14 21.5 14ZM9.75 18C9.33579 18 9 18.3358 9 18.75C9 19.1642 9.33579 19.5 9.75 19.5H13.25L13.3271 19.4961C13.7051 19.4575 14 19.1382 14 18.75C14 18.3618 13.7051 18.0425 13.3271 18.0039L13.25 18H9.75ZM9.75 13.5C9.33579 13.5 9 13.8358 9 14.25C9 14.6642 9.33579 15 9.75 15H15.75L15.8271 14.9961C16.2051 14.9575 16.5 14.6382 16.5 14.25C16.5 13.8618 16.2051 13.5425 15.8271 13.5039L15.75 13.5H9.75ZM9.75 9C9.33579 9 9 9.33579 9 9.75C9 10.1642 9.33579 10.5 9.75 10.5H18.25L18.3271 10.4961C18.7051 10.4575 19 10.1382 19 9.75C19 9.36183 18.7051 9.04253 18.3271 9.00391L18.25 9H9.75Z" fill="#212121"/>
</svg>
