<svg width="48" height="48" viewBox="0 0 48 48" fill="none" xmlns="http://www.w3.org/2000/svg">
<path d="M24 44C35.0457 44 44 35.0457 44 24C44 12.9543 35.0457 4 24 4C12.9543 4 4 12.9543 4 24C4 35.0457 12.9543 44 24 44ZM29.1421 12.3647C35.6171 18.7901 35.6171 29.2078 29.1421 35.6332C28.652 36.1195 27.8576 36.1195 27.3675 35.6332C26.8775 35.1469 26.8775 34.3585 27.3675 33.8722C32.8625 28.4194 32.8625 19.5785 27.3675 14.1257C26.8775 13.6394 26.8775 12.851 27.3675 12.3647C27.8576 11.8784 28.652 11.8784 29.1421 12.3647ZM21.3762 15.355C21.8786 14.8816 22.6933 14.8816 23.1958 15.355C28.2638 20.1294 28.2638 27.8701 23.1958 32.6445C22.6933 33.1179 21.8786 33.1179 21.3762 32.6445C20.8737 32.1711 20.8737 31.4036 21.3762 30.9302C25.4391 27.1026 25.4391 20.8969 21.3762 17.0693C20.8737 16.5959 20.8737 15.8284 21.3762 15.355ZM15.8679 18.3646C16.3581 17.8785 17.1528 17.8785 17.643 18.3646C20.7812 21.4767 20.7812 26.5223 17.643 29.6344C17.1528 30.1205 16.3581 30.1205 15.8679 29.6344C15.3777 29.1483 15.3777 28.3601 15.8679 27.874C18.0257 25.7342 18.0257 22.2648 15.8679 20.125C15.3777 19.6389 15.3777 18.8507 15.8679 18.3646Z" fill="#212121"/>
</svg>
