<svg width="16" height="16" viewBox="0 0 16 16" fill="none" xmlns="http://www.w3.org/2000/svg">
<g clip-path="url(#clip0_43963_125765)">
<path d="M1 7.99846C1 4.13332 4.13332 1 7.99846 1C11.639 1 14.6303 3.77971 14.9656 7.33247C14.7875 7.28408 14.5818 7.231 14.357 7.18092C14.2218 7.1508 14.0791 7.1216 13.9293 7.09452C13.7188 5.70223 13.0298 4.46689 12.0352 3.56145C11.9339 3.74158 11.8023 3.96782 11.6514 4.20878C11.3128 4.74981 10.8276 5.44807 10.343 5.81153C10.316 5.83177 10.3033 5.84577 10.2982 5.85223C10.2977 5.879 10.3087 5.95303 10.3827 6.12174C10.4151 6.19541 10.4605 6.2867 10.513 6.39228C10.6033 6.57386 10.7146 6.79769 10.8165 7.0467C10.4702 7.10055 10.1393 7.17491 9.82548 7.2696C9.77358 7.15559 9.71894 7.04603 9.66386 6.9356C9.59755 6.80265 9.5306 6.66841 9.46706 6.52364C9.3795 6.32415 9.28321 6.06433 9.30015 5.78776C9.31972 5.46814 9.48176 5.20747 9.74297 5.01154C10.06 4.77374 10.4588 4.22945 10.8038 3.67825C10.9688 3.4146 11.1101 3.1683 11.2102 2.98774L11.2332 2.94606C10.2999 2.34725 9.18972 2 7.99846 2L7.94908 2.0002C8.04038 2.17906 8.14036 2.39504 8.23045 2.6344C8.47353 3.28021 8.69407 4.22596 8.30147 5.06198C7.93976 5.83221 7.31652 6.03169 6.85104 6.15196L6.78376 6.1693C6.33113 6.28588 6.14352 6.3342 6.00842 6.5393C5.88204 6.73117 5.90484 6.97198 6.0483 7.43947C6.05851 7.47274 6.06951 7.50782 6.08097 7.54431C6.13794 7.72585 6.20593 7.94249 6.24138 8.14629C6.28546 8.39961 6.29723 8.71813 6.13723 9.02515C5.97698 9.33265 5.76518 9.54133 5.51544 9.67739C5.28037 9.80546 5.03638 9.85431 4.85133 9.88713L4.78274 9.89922C4.42453 9.96218 4.24283 9.99411 4.06811 10.1813C3.93128 10.3279 3.84609 10.5826 3.79668 10.9532C3.77651 11.1044 3.76439 11.2544 3.75192 11.4086L3.74523 11.4907C3.73117 11.6611 3.71389 11.8551 3.67611 12.0211L3.65101 12.1314C4.2642 12.7762 5.01936 13.2848 5.86637 13.6069C5.67825 13.8871 5.50438 14.1767 5.34249 14.4753C2.79443 13.4294 1 10.9235 1 7.99846ZM2 7.99846C2 9.08022 2.28635 10.0951 2.78739 10.9714C2.79277 10.9217 2.79874 10.8714 2.80545 10.821C2.8594 10.4164 2.97393 9.88797 3.3371 9.49892C3.75181 9.05465 4.26017 8.97122 4.58526 8.91788C4.61762 8.91257 4.64827 8.90753 4.67673 8.90249C4.85097 8.87159 4.95531 8.84378 5.03703 8.79926C5.10407 8.76273 5.17752 8.7029 5.25042 8.56301C5.26476 8.5355 5.28323 8.47315 5.25618 8.31769C5.23309 8.18494 5.18976 8.04604 5.13382 7.8667C5.12064 7.82447 5.10677 7.78 5.0923 7.73284C4.96191 7.30795 4.75889 6.61838 5.17331 5.98922C5.53347 5.44243 6.11197 5.30255 6.48675 5.21193C6.52736 5.20211 6.56559 5.19287 6.60088 5.18375C6.99806 5.08113 7.23344 4.98371 7.39631 4.63691C7.60858 4.18488 7.5159 3.57474 7.29455 2.98667C7.18929 2.70702 7.06586 2.46143 6.96814 2.28524C6.92762 2.21217 6.892 2.15189 6.86462 2.10701C4.09389 2.63707 2 5.07324 2 7.99846ZM15.9253 8.73757C15.8342 8.59016 15.6733 8.50043 15.5 8.50043C15.5 8.50043 15.4975 8.50041 15.4919 8.49994C15.4859 8.49944 15.4775 8.49852 15.4663 8.4969C15.4435 8.49359 15.4136 8.48804 15.375 8.47942C15.2962 8.46184 15.1994 8.43576 15.0761 8.40126L14.9812 8.3746C14.7538 8.31055 14.4681 8.2301 14.14 8.15699C13.3828 7.98831 12.3855 7.85473 11.188 8.00438C9.98636 8.15456 9.06662 8.56171 8.44016 9.14617C7.8093 9.73474 7.5 10.4827 7.5 11.2468C7.5 11.4294 7.51384 11.6029 7.53801 11.7668C8.58889 10.8498 9.88293 10.1089 11.3144 9.53629C11.5708 9.43373 11.8618 9.55844 11.9643 9.81483C12.0669 10.0712 11.9422 10.3622 11.6858 10.4648C10.8888 10.7836 10.1516 11.1516 9.48797 11.5674C7.83581 12.5311 6.80681 13.7691 6.0529 15.2769C5.9294 15.5239 6.02951 15.8243 6.2765 15.9477C6.52349 16.0712 6.82383 15.9711 6.94732 15.7241C7.33058 14.9576 7.78966 14.2687 8.39459 13.6565C8.41494 13.6937 8.43834 13.735 8.46488 13.7796C8.57585 13.966 8.74466 14.2151 8.97735 14.4657C9.44245 14.9665 10.1909 15.5004 11.25 15.5004C11.9021 15.5004 12.4435 15.3338 12.8878 15.0445C13.3276 14.7582 13.6461 14.3691 13.8844 13.961C14.2525 13.3306 14.4628 12.5813 14.619 12.0247C14.6581 11.8852 14.6939 11.7579 14.7279 11.6476C14.9014 11.0839 15.1536 10.5772 15.3884 10.164C15.5056 9.95763 15.617 9.77719 15.7125 9.62284L15.7287 9.59668C15.8124 9.46154 15.896 9.3264 15.9472 9.22404C16.0247 9.06904 16.0164 8.88497 15.9253 8.73757Z" fill="#212121"/>
</g>
<defs>
<clipPath id="clip0_43963_125765">
<rect width="16" height="16" fill="white"/>
</clipPath>
</defs>
</svg>
