<svg width="48" height="48" viewBox="0 0 48 48" fill="none" xmlns="http://www.w3.org/2000/svg">
<path d="M31.8176 5.55023L42.4502 16.1828C44.7427 18.4754 44.1155 22.3402 41.2157 23.7901L30.6711 29.0624C30.3788 29.2086 30.1553 29.4634 30.0486 29.7723L27.3645 37.5422C26.7012 39.4621 24.257 40.0251 22.8207 38.5888L17 32.7682L7.76777 42.0004H6V40.2326L15.2323 31.0004L9.41167 25.1798C7.97536 23.7435 8.53836 21.2992 10.4583 20.636L18.2281 17.9518C18.537 17.8451 18.7919 17.6217 18.938 17.3294L24.2103 6.78474C25.6602 3.88486 29.525 3.25768 31.8176 5.55023Z" fill="#212121"/>
</svg>
