<svg width="28" height="28" viewBox="0 0 28 28" fill="none" xmlns="http://www.w3.org/2000/svg">
<path d="M19.0389 3.47814C17.4497 1.88893 14.7658 2.35382 13.8037 4.38496L11.2505 9.77489C11.0581 10.1811 10.7167 10.4977 10.2972 10.6591L6.16706 12.2476C4.98507 12.7022 4.66235 14.2229 5.55784 15.1184L8.68944 18.25L3.00024 23.9394L3.00026 25L4.0609 25L9.7501 19.3107L12.8817 22.4423C13.7772 23.3377 15.2979 23.015 15.7525 21.833L17.341 17.7029C17.5024 17.2834 17.819 16.942 18.2252 16.7496L23.6151 14.1964C25.6463 13.2343 26.1112 10.5504 24.522 8.9612L19.0389 3.47814Z" fill="#212121"/>
</svg>
