<svg width="33" height="32" viewBox="0 0 33 32" fill="none" xmlns="http://www.w3.org/2000/svg">
<path d="M22.5663 3.23668C20.6357 1.30612 17.3811 1.83427 16.1602 4.27626L12.9847 10.6272C12.8068 10.983 12.4948 11.2536 12.1174 11.3794L7.13478 13.0403C5.72431 13.5104 5.30172 15.3005 6.35302 16.3518L10.5018 20.5006L4.41602 26.5864V28.0006H5.83023L11.916 21.9148L16.0648 26.0636C17.1161 27.1149 18.9062 26.6923 19.3764 25.2818L21.0372 20.2992C21.163 19.9218 21.4336 19.6099 21.7894 19.4319L28.1404 16.2565C30.5824 15.0355 31.1105 11.7809 29.1799 9.85034L22.5663 3.23668ZM17.949 5.17069C18.5595 3.94969 20.1868 3.68562 21.1521 4.6509L27.7657 11.2645C28.731 12.2298 28.4669 13.8571 27.2459 14.4676L20.895 17.6431C20.0647 18.0582 19.4334 18.7862 19.1399 19.6668L17.479 24.6494L7.76724 14.9376L12.7498 13.2768C13.6305 12.9832 14.3584 12.3519 14.7735 11.5216L17.949 5.17069Z" fill="#212121"/>
</svg>
