<svg width="16" height="16" viewBox="0 0 16 16" fill="none" xmlns="http://www.w3.org/2000/svg">
<path d="M10.0589 2.44535C9.34701 1.73087 8.14697 1.90854 7.67261 2.79864L5.6526 6.58902L2.8419 7.52592C2.6775 7.58072 2.5532 7.71673 2.51339 7.88539C2.47357 8.05404 2.52392 8.23128 2.64646 8.35382L4.79291 10.5003L2.14645 13.1467L2 14.0003L2.85356 13.8538L5.50002 11.2074L7.64646 13.3538C7.76899 13.4764 7.94623 13.5267 8.11489 13.4869C8.28354 13.4471 8.41955 13.3228 8.47435 13.1584L9.41143 10.3472L13.1897 8.32448C14.0759 7.85006 14.2538 6.65535 13.5443 5.9433L10.0589 2.44535ZM8.55511 3.26895C8.71323 2.97225 9.11324 2.91303 9.35055 3.15119L12.836 6.64914C13.0725 6.88648 13.0131 7.28472 12.7178 7.44286L8.76403 9.55946C8.65137 9.61977 8.56608 9.72092 8.52567 9.84215L7.7815 12.0746L3.92562 8.21877L6.15812 7.47461C6.27966 7.43409 6.38101 7.34848 6.44126 7.23542L8.55511 3.26895Z" fill="#212121"/>
</svg>
