<svg width="17" height="16" viewBox="0 0 17 16" fill="none" xmlns="http://www.w3.org/2000/svg">
<path d="M10.4749 2.44535C9.76302 1.73087 8.56299 1.90854 8.08862 2.79864L6.06862 6.58902L3.25791 7.52592C3.09352 7.58072 2.96921 7.71673 2.9294 7.88539C2.88959 8.05404 2.93994 8.23128 3.06247 8.35382L5.20893 10.5003L2.56247 13.1467L2.41602 14.0003L3.26958 13.8538L5.91603 11.2074L8.06247 13.3538C8.18501 13.4764 8.36225 13.5267 8.5309 13.4869C8.69956 13.4471 8.83557 13.3228 8.89037 13.1584L9.82744 10.3472L13.6057 8.32448C14.4919 7.85006 14.6698 6.65535 13.9603 5.9433L10.4749 2.44535ZM8.97112 3.26895C9.12924 2.97225 9.52926 2.91303 9.76656 3.15119L13.252 6.64914C13.4885 6.88648 13.4292 7.28472 13.1338 7.44286L9.18004 9.55946C9.06738 9.61977 8.98209 9.72092 8.94168 9.84215L8.19752 12.0746L4.34164 8.21877L6.57414 7.47461C6.69567 7.43409 6.79702 7.34848 6.85727 7.23542L8.97112 3.26895Z" fill="#212121"/>
</svg>
