<svg width="24" height="24" viewBox="0 0 24 24" fill="none" xmlns="http://www.w3.org/2000/svg">
<path d="M13.5545 2.66232C14.4181 1.85314 15.7508 1.85663 16.6097 2.64211L16.7348 2.7658L21.4999 7.85135C21.6199 7.97942 21.7245 8.12108 21.8115 8.27345C22.4012 9.30545 22.0839 10.6078 21.111 11.2587L20.9743 11.3433L16.0778 14.1413C15.96 14.2086 15.8633 14.3062 15.7971 14.4232L15.7534 14.5144L13.9512 19.028C13.7648 19.4949 13.1896 19.6418 12.804 19.3497L12.7245 19.2804L9.4867 16.0442L4.53563 21.0033L3.4707 21L3.47274 19.9449L8.4257 14.9832L5.22081 11.7804C4.86526 11.425 4.95712 10.8384 5.37758 10.5992L5.47267 10.5535L9.96795 8.7569C10.0994 8.70436 10.2126 8.61598 10.2953 8.50278L10.3514 8.4134L13.1076 3.24538C13.2237 3.02786 13.3746 2.83088 13.5545 2.66232ZM20.4053 8.87696L15.6402 3.7914C15.357 3.48914 14.8824 3.4737 14.5801 3.75691C14.5402 3.79437 14.5045 3.83604 14.4737 3.88114L14.4312 3.95127L11.6749 9.11929C11.4528 9.53569 11.1062 9.87036 10.6857 10.078L10.5246 10.1498L7.08614 11.524L12.9801 17.4151L14.3603 13.9582C14.5253 13.5449 14.8086 13.1911 15.1727 12.9401L15.3336 12.8389L20.2301 10.0409C20.5897 9.83544 20.7147 9.3773 20.5092 9.01766L20.4613 8.94427L20.4053 8.87696Z" fill="#212121"/>
</svg>
