<svg width="13" height="12" viewBox="0 0 13 12" fill="none" xmlns="http://www.w3.org/2000/svg">
<path d="M8.46826 1.43562C7.75852 0.725881 6.56548 0.899942 6.08811 1.78288L4.5609 4.60757L2.23094 5.53601C2.0747 5.59827 1.96023 5.73491 1.9263 5.89964C1.89238 6.06437 1.94354 6.23512 2.06247 6.35405L3.70898 8.00056L1.56257 10.147L1.41602 11.0005L2.26967 10.8541L4.41609 8.70766L6.06247 10.354C6.18131 10.4729 6.35192 10.5241 6.51656 10.4903C6.6812 10.4565 6.81784 10.3422 6.88026 10.1862L7.81306 7.8542L10.634 6.32845C11.5168 5.85099 11.6907 4.65808 10.981 3.94841L8.46826 1.43562Z" fill="#212121"/>
</svg>
