<svg width="20" height="20" viewBox="0 0 20 20" fill="none" xmlns="http://www.w3.org/2000/svg">
<path d="M10 2V6.5C10 7.32843 10.6716 8 11.5 8H16V16.5C16 17.3284 15.3284 18 14.5 18H9.74284C10.5282 17.0491 11 15.8296 11 14.5C11 11.4624 8.53757 9 5.5 9C4.97999 9 4.47683 9.07217 4 9.20703V3.5C4 2.67157 4.67157 2 5.5 2H10ZM11 2.25V6.5C11 6.77614 11.2239 7 11.5 7H15.75L11 2.25ZM5.5 19C7.98528 19 10 16.9853 10 14.5C10 12.0147 7.98528 10 5.5 10C3.01472 10 1 12.0147 1 14.5C1 16.9853 3.01472 19 5.5 19ZM7.85353 14.1465C8.04879 14.3418 8.04879 14.6583 7.85353 14.8536C7.65826 15.0489 7.34168 15.0489 7.14642 14.8536L5.99997 13.7072L5.99997 16.5001C5.99997 16.7762 5.77612 17.0001 5.49997 17.0001C5.22383 17.0001 4.99997 16.7762 4.99997 16.5001L4.99997 13.7072L3.85353 14.8536C3.65826 15.0489 3.34168 15.0489 3.14642 14.8536C2.95116 14.6583 2.95116 14.3418 3.14642 14.1465L5.14642 12.1465C5.19436 12.0986 5.24961 12.0624 5.30858 12.038C5.36666 12.0139 5.43027 12.0005 5.49697 12.0001L5.49997 12.0001L5.50297 12.0001C5.56967 12.0005 5.63328 12.0139 5.69136 12.038C5.74947 12.062 5.80396 12.0975 5.8514 12.1444L5.85392 12.1469L7.85353 14.1465Z" fill="#212121"/>
</svg>
