<svg width="20" height="20" viewBox="0 0 20 20" fill="none" xmlns="http://www.w3.org/2000/svg">
<path d="M12 4.00012V8.5C12 9.32843 12.6716 10 13.5 10H18V14.0001C18 15.1047 17.1046 16.0001 16 16.0001L4 16.0001C2.89543 16.0001 2 15.1047 2 14.0001V6.00012C2 4.89555 2.89543 4.00012 4 4.00012H9L9 16H10L10 4.00012H12Z" fill="#212121"/>
<path d="M13 4.05844V8.5C13 8.77614 13.2239 9 13.5 9H17.9416C17.8721 8.75791 17.742 8.53498 17.5607 8.35368L13.6464 4.43946C13.4651 4.25813 13.2421 4.12802 13 4.05844Z" fill="#212121"/>
</svg>
