<svg width="20" height="20" viewBox="0 0 20 20" fill="none" xmlns="http://www.w3.org/2000/svg">
<path d="M12 8.49988V4H10L10 15.9999L16 16C17.1046 16 18 15.1046 18 14V9.99988H13.5C12.6716 9.99988 12 9.3283 12 8.49988Z" fill="#212121"/>
<path d="M9 15.9999L4 16C2.89543 16 2 15.1046 2 14V6C2 4.89543 2.89543 4 4 4H9V15.9999Z" fill="#212121"/>
<path d="M13 8.49988V4.05832C13.2421 4.1279 13.4651 4.25801 13.6464 4.43934L17.5607 8.35355C17.742 8.53485 17.8721 8.75778 17.9416 8.99988H13.5C13.2239 8.99988 13 8.77602 13 8.49988Z" fill="#212121"/>
</svg>
