<svg width="28" height="28" viewBox="0 0 28 28" fill="none" xmlns="http://www.w3.org/2000/svg">
<path d="M20.1431 20.2766V24.7613C18.4817 25.5449 16.3736 26 14 26C8.21053 26 4 23.4333 4 19.7146V19C4 17.3431 5.34315 16 7 16L17.8574 16C17.8574 17.7845 18.7663 19.355 20.1431 20.2766ZM14 2C17.3137 2 20 4.68629 20 8C20 11.3137 17.3137 14 14 14C10.6863 14 8 11.3137 8 8C8 4.68629 10.6863 2 14 2ZM24.1429 19.8343C25.7951 19.3425 27 17.812 27 16C27 13.7908 25.2091 12 23 12C20.7909 12 19 13.7908 19 16C19 17.5956 19.9343 18.973 21.2857 19.615V26.3019C21.2857 26.4535 21.3459 26.5988 21.4531 26.706L22.5785 27.8313C22.8083 28.0612 23.1834 28.0532 23.4033 27.8139L25.4866 25.5462C25.6937 25.3208 25.6863 24.9721 25.4698 24.7556L24.1429 23.4286L25.4531 22.1184C25.6762 21.8953 25.6762 21.5334 25.4531 21.3103L24.1429 20.0001V19.8343ZM24 15C24 15.5522 23.5523 16 23 16C22.4477 16 22 15.5522 22 15C22 14.4477 22.4477 14 23 14C23.5523 14 24 14.4477 24 15Z" fill="#212121"/>
</svg>
