<svg width="20" height="20" viewBox="0 0 20 20" fill="none" xmlns="http://www.w3.org/2000/svg">
<path d="M15 3C16.1046 3 17 3.89543 17 5V9.59971C16.6832 9.43777 16.3486 9.30564 16 9.20703V5C16 4.44772 15.5523 4 15 4C14.4477 4 14 4.44772 14 5V9.02242C13.6566 9.05337 13.3223 9.11588 13 9.20703V5C13 3.89543 13.8954 3 15 3ZM12 8V9.59971C11.6422 9.78261 11.3071 10.0035 11 10.2572V8C11 7.44772 10.5523 7 10 7C9.44772 7 9 7.44772 9 8V15C9 15.127 9.02369 15.2486 9.0669 15.3604C9.15562 15.9251 9.33028 16.4613 9.57707 16.9552C8.67562 16.7611 8 15.9595 8 15V8C8 6.89543 8.89543 6 10 6C11.1046 6 12 6.89543 12 8ZM7 11C7 9.89543 6.10457 9 5 9C3.89543 9 3 9.89543 3 11V15C3 16.1046 3.89543 17 5 17C6.10457 17 7 16.1046 7 15V11ZM5 10C5.55228 10 6 10.4477 6 11V15C6 15.5523 5.55228 16 5 16C4.44772 16 4 15.5523 4 15V11C4 10.4477 4.44772 10 5 10ZM19 14.5C19 16.9853 16.9853 19 14.5 19C12.0147 19 10 16.9853 10 14.5C10 12.0147 12.0147 10 14.5 10C16.9853 10 19 12.0147 19 14.5ZM14.146 16.8532L14.1486 16.8557C14.196 16.9026 14.2505 16.938 14.3086 16.9621C14.3667 16.9861 14.4303 16.9996 14.497 17L14.5 17L14.503 17C14.5697 16.9996 14.6333 16.9861 14.6914 16.9621C14.7504 16.9377 14.8056 16.9015 14.8536 16.8536L16.8536 14.8536C17.0488 14.6583 17.0488 14.3417 16.8536 14.1464C16.6583 13.9512 16.3417 13.9512 16.1464 14.1464L15 15.2929V12.5C15 12.2239 14.7761 12 14.5 12C14.2239 12 14 12.2239 14 12.5V15.2929L12.8536 14.1464C12.6583 13.9512 12.3417 13.9512 12.1464 14.1464C11.9512 14.3417 11.9512 14.6583 12.1464 14.8536L14.146 16.8532Z" fill="#212121"/>
</svg>
