<svg width="16" height="16" viewBox="0 0 16 16" fill="none" xmlns="http://www.w3.org/2000/svg">
<path d="M11.5 8C14.261 8 16 10.3 16 11.5C16 12.682 14.261 15 11.5 15C8.739 15 7 12.7 7 11.5C7 10.318 8.736 8 11.5 8ZM12.457 9.19043C12.0004 9.00127 11.4975 8.95151 11.0127 9.04785C10.5277 9.14431 10.0821 9.38279 9.73242 9.73242C9.38279 10.0821 9.14431 10.5277 9.04785 11.0127C8.95151 11.4975 9.00127 12.0004 9.19043 12.457C9.37967 12.9137 9.7003 13.3045 10.1113 13.5791C10.5224 13.8536 11.0057 14 11.5 14C12.163 14 12.7987 13.7364 13.2676 13.2676C13.7364 12.7987 14 12.163 14 11.5C14 11.0057 13.8536 10.5224 13.5791 10.1113C13.3045 9.7003 12.9137 9.37967 12.457 9.19043ZM7.5 8C7.71403 8 7.91995 8.03443 8.11328 8.09668C7.90407 8.24743 7.70996 8.40847 7.53125 8.5752C7.38478 8.71185 7.24845 8.85472 7.12109 9H2.5C1.94772 9 1.5 9.44772 1.5 10C1.5 10.5075 1.80358 10.9924 2.43164 11.375C3.06077 11.7582 3.96592 12 5 12C5.3636 12 5.71081 11.9675 6.03613 11.9121C6.08904 12.2286 6.19888 12.5527 6.35449 12.8711C5.92386 12.9547 5.46848 13 5 13C3.82495 13 2.72972 12.7281 1.91113 12.2295C1.09166 11.7303 0.5 10.9652 0.5 10C0.5 8.89543 1.39543 8 2.5 8H7.5ZM11.5 10C11.8978 10 12.2792 10.1581 12.5605 10.4395C12.8419 10.7208 13 11.1022 13 11.5C13 11.7966 12.9118 12.0864 12.7471 12.333C12.5823 12.5796 12.3482 12.7722 12.0742 12.8857C11.8001 12.9993 11.498 13.0286 11.207 12.9707C10.9162 12.9128 10.6491 12.7702 10.4395 12.5605C10.2298 12.3509 10.0872 12.0838 10.0293 11.793C9.97142 11.502 10.0007 11.1999 10.1143 10.9258C10.2278 10.6518 10.4204 10.4177 10.667 10.2529C10.9136 10.0882 11.2034 10 11.5 10ZM5 1.5C6.51878 1.5 7.75 2.73122 7.75 4.25C7.75 5.76878 6.51878 7 5 7C3.48122 7 2.25 5.76878 2.25 4.25C2.25 2.73122 3.48122 1.5 5 1.5ZM11.7314 2.50879C12.8671 2.6239 13.7539 3.58302 13.7539 4.74902L13.7422 4.97852C13.6273 6.11008 12.6741 6.99395 11.5137 7H11.4883L11.2715 6.98926C10.2117 6.88165 9.36935 6.03827 9.26172 4.97852L9.25 4.74902C9.25 3.50544 10.2584 2.49707 11.502 2.49707L11.7314 2.50879ZM11.502 3.49707C10.8107 3.49707 10.25 4.05772 10.25 4.74902C10.2504 5.43999 10.8109 6.00098 11.502 6.00098C12.1929 6.00084 12.7535 5.43991 12.7539 4.74902C12.7539 4.05781 12.1931 3.4972 11.502 3.49707ZM5 2.5C4.0335 2.5 3.25 3.2835 3.25 4.25C3.25 5.2165 4.0335 6 5 6C5.9665 6 6.75 5.2165 6.75 4.25C6.75 3.2835 5.9665 2.5 5 2.5Z" fill="#212121"/>
</svg>
