<svg width="28" height="28" viewBox="0 0 28 28" fill="none" xmlns="http://www.w3.org/2000/svg">
<path d="M11.0513 9.74249C11.6727 9.83454 12.2765 10.0608 12.7185 10.4144C13.042 10.6731 13.0944 11.1451 12.8356 11.4685C12.5769 11.792 12.1049 11.8444 11.7815 11.5857C11.5985 11.4393 11.2648 11.2905 10.8315 11.2263C10.4068 11.1634 9.94357 11.1908 9.52449 11.3345C9.11248 11.4757 8.74535 11.7274 8.47608 12.1243C8.2056 12.5229 8 13.1183 8 14C8 14.8818 8.2056 15.4772 8.47607 15.8758C8.74535 16.2726 9.11248 16.5243 9.52449 16.6655C9.94356 16.8092 10.4068 16.8366 10.8315 16.7737C11.2648 16.7095 11.5985 16.5607 11.7815 16.4143C12.1049 16.1556 12.5769 16.208 12.8357 16.5315C13.0944 16.8549 13.042 17.3269 12.7185 17.5856C12.2765 17.9393 11.6727 18.1655 11.0513 18.2575C10.4214 18.3509 9.71269 18.3158 9.03801 18.0845C8.35627 17.8507 7.70778 17.4149 7.23486 16.718C6.76315 16.0229 6.5 15.1183 6.5 14C6.5 12.8818 6.76315 11.9772 7.23486 11.282C7.70777 10.5851 8.35627 10.1493 9.03801 9.91556C9.71268 9.68424 10.4214 9.64916 11.0513 9.74249ZM21.2185 10.4144C20.7765 10.0607 20.1727 9.83453 19.5513 9.74248C18.9214 9.64915 18.2127 9.68423 17.538 9.91555C16.8563 10.1493 16.2078 10.5851 15.7349 11.282C15.2631 11.9772 15 12.8818 15 14C15 15.1183 15.2631 16.0229 15.7349 16.718C16.2078 17.4149 16.8563 17.8507 17.538 18.0845C18.2127 18.3158 18.9214 18.3508 19.5513 18.2575C20.1727 18.1655 20.7765 17.9392 21.2185 17.5856C21.542 17.3269 21.5944 16.8549 21.3357 16.5315C21.0769 16.208 20.6049 16.1556 20.2815 16.4143C20.0985 16.5607 19.7648 16.7095 19.3315 16.7737C18.9068 16.8366 18.4436 16.8092 18.0245 16.6655C17.6125 16.5243 17.2453 16.2726 16.9761 15.8758C16.7056 15.4772 16.5 14.8818 16.5 14C16.5 13.1183 16.7056 12.5229 16.9761 12.1243C17.2454 11.7274 17.6125 11.4757 18.0245 11.3345C18.4436 11.1908 18.9068 11.1634 19.3315 11.2263C19.7648 11.2905 20.0985 11.4393 20.2815 11.5857C20.6049 11.8444 21.0769 11.792 21.3356 11.4685C21.5944 11.1451 21.542 10.6731 21.2185 10.4144ZM2 8.25C2 5.90279 3.90279 4 6.25 4H21.75C24.0972 4 26 5.90279 26 8.25V19.75C26 22.0972 24.0972 24 21.75 24H6.25C3.90279 24 2 22.0972 2 19.75V8.25ZM6.25 5.5C4.73122 5.5 3.5 6.73122 3.5 8.25V19.75C3.5 21.2688 4.73122 22.5 6.25 22.5H21.75C23.2688 22.5 24.5 21.2688 24.5 19.75V8.25C24.5 6.73122 23.2688 5.5 21.75 5.5H6.25Z" fill="#212121"/>
</svg>
