<svg width="20" height="20" viewBox="0 0 20 20" fill="none" xmlns="http://www.w3.org/2000/svg">
<path d="M9.98735 2.98926C11.2175 2.98926 12.2147 3.98648 12.2147 5.21662C12.2147 6.44676 11.2175 7.44398 9.98735 7.44398C8.75721 7.44398 7.75999 6.44676 7.75999 5.21662C7.75999 3.98648 8.75721 2.98926 9.98735 2.98926ZM9.98735 3.98926C9.3095 3.98926 8.75999 4.53877 8.75999 5.21662C8.75999 5.89447 9.3095 6.44398 9.98735 6.44398C10.6652 6.44398 11.2147 5.89447 11.2147 5.21662C11.2147 4.53877 10.6652 3.98926 9.98735 3.98926ZM3.01562 11.5001C3.01562 11.7763 2.79177 12.0001 2.51562 12.0001C2.23948 12.0001 2.01562 11.7763 2.01562 11.5001V9.01431C2.01562 8.50148 2.40167 8.0788 2.899 8.02104L3.01562 8.01431L5.77285 8.01372C5.63086 8.25897 5.53947 8.53718 5.51295 8.83406L5.50494 9.01431H3.01562V11.5001ZM17.49 12.0001C17.7661 12.0001 17.99 11.7763 17.99 11.5001V9.01431L17.9832 8.89769C17.9255 8.40035 17.5028 8.01431 16.99 8.01431L14.2056 8.01372C14.3525 8.26749 14.4453 8.55654 14.468 8.86505L14.4735 9.01431H16.99V11.5001C16.99 11.7763 17.2138 12.0001 17.49 12.0001ZM12.4735 8.01431C12.9863 8.01431 13.409 8.40035 13.4668 8.89769L13.4735 9.01431V11.5001C13.4735 11.7763 13.2496 12.0001 12.9735 12.0001C12.6974 12.0001 12.4735 11.7763 12.4735 11.5001V9.01431H7.50494V11.5001C7.50494 11.7763 7.28108 12.0001 7.00494 12.0001C6.7288 12.0001 6.50494 11.7763 6.50494 11.5001V9.01431C6.50494 8.50148 6.89098 8.0788 7.38832 8.02104L7.50494 8.01431H12.4735ZM16.8878 5.53069C16.8878 4.474 16.0312 3.61739 14.9745 3.61739C13.9178 3.61739 13.0612 4.474 13.0612 5.53069C13.0612 6.58737 13.9178 7.44398 14.9745 7.44398C16.0312 7.44398 16.8878 6.58737 16.8878 5.53069ZM14.0612 5.53069C14.0612 5.02629 14.4701 4.61739 14.9745 4.61739C15.4789 4.61739 15.8878 5.02629 15.8878 5.53069C15.8878 6.03509 15.4789 6.44398 14.9745 6.44398C14.4701 6.44398 14.0612 6.03509 14.0612 5.53069ZM5.01595 3.61739C6.07264 3.61739 6.92925 4.474 6.92925 5.53069C6.92925 6.58737 6.07264 7.44398 5.01595 7.44398C3.95927 7.44398 3.10266 6.58737 3.10266 5.53069C3.10266 4.474 3.95927 3.61739 5.01595 3.61739ZM5.01595 4.61739C4.51155 4.61739 4.10266 5.02629 4.10266 5.53069C4.10266 6.03509 4.51155 6.44398 5.01595 6.44398C5.52035 6.44398 5.92925 6.03509 5.92925 5.53069C5.92925 5.02629 5.52035 4.61739 5.01595 4.61739ZM2.5 13.0001C2.22386 13.0001 2 13.224 2 13.5001V14.5001C2 15.8808 3.11929 17.0001 4.5 17.0001H15.5C16.8807 17.0001 18 15.8808 18 14.5001V13.5001C18 13.224 17.7761 13.0001 17.5 13.0001H2.5ZM3 14.5001V14.0001H17V14.5001C17 15.3285 16.3284 16.0001 15.5 16.0001H4.5C3.67157 16.0001 3 15.3285 3 14.5001Z" fill="#212121"/>
</svg>
