<svg width="16" height="16" viewBox="0 0 16 16" fill="none" xmlns="http://www.w3.org/2000/svg">
<path d="M7.35355 10.3537C7.54882 10.1585 7.54882 9.84189 7.35355 9.64663C7.15829 9.45137 6.84171 9.45137 6.64645 9.64663L5.14645 11.1466C4.95118 11.3419 4.95118 11.6585 5.14645 11.8537C5.34171 12.049 5.65829 12.049 5.85355 11.8537L7.35355 10.3537ZM12.95 3.05052C11.5832 1.68368 9.3671 1.68368 8.00026 3.05052L3.05052 8.00026C1.68368 9.3671 1.68368 11.5832 3.05052 12.95C4.41735 14.3168 6.63343 14.3168 8.00026 12.95L12.95 8.00026C14.3168 6.63343 14.3168 4.41735 12.95 3.05052ZM5.87895 6.58605L9.41448 10.1216L7.29316 12.2429C6.31685 13.2192 4.73393 13.2192 3.75762 12.2429C2.78131 11.2666 2.78131 9.68368 3.75762 8.70737L5.87895 6.58605ZM12.2429 7.29316L10.1216 9.41447L6.58605 5.87894L8.70737 3.75762C9.68368 2.78131 11.2666 2.78131 12.2429 3.75762C13.2192 4.73393 13.2192 6.31685 12.2429 7.29316Z" fill="#212121"/>
</svg>
