<svg width="25" height="24" viewBox="0 0 25 24" fill="none" xmlns="http://www.w3.org/2000/svg">
<path d="M13.7192 3.52536C15.6996 1.54493 18.9105 1.54493 20.8909 3.52536C22.8714 5.50579 22.8714 8.7167 20.8909 10.6971L11.1131 20.4749C9.13272 22.4553 5.92181 22.4553 3.94138 20.4749C1.96095 18.4945 1.96095 15.2836 3.94138 13.3031L13.7192 3.52536ZM19.8303 4.58602C18.4356 3.19138 16.1745 3.19138 14.7798 4.58602L10.4213 8.94458L15.4717 13.995L19.8303 9.63647C21.2249 8.24183 21.2249 5.98066 19.8303 4.58602ZM11.2243 18.2774C11.5172 17.9845 11.5172 17.5096 11.2243 17.2167C10.9314 16.9238 10.4566 16.9238 10.1637 17.2167L8.72275 18.6577C8.14534 19.2351 7.21213 19.2445 6.62314 18.679L6.60639 18.6629C6.30762 18.376 5.83284 18.3856 5.54595 18.6844C5.25905 18.9831 5.26867 19.4579 5.56744 19.7448L5.58419 19.7609C6.76218 20.8921 8.62859 20.8731 9.78341 19.7183L11.2243 18.2774Z" fill="#212121"/>
</svg>
