<svg width="25" height="24" viewBox="0 0 25 24" fill="none" xmlns="http://www.w3.org/2000/svg">
<path d="M10.9466 15.4697C11.2395 15.7626 11.2395 16.2374 10.9466 16.5303L8.94665 18.5303C8.1037 19.3733 6.7384 19.3755 5.8927 18.537C5.75301 18.4008 5.66626 18.2105 5.66626 18C5.66626 17.5858 6.00205 17.25 6.41626 17.25C6.62338 17.25 6.81089 17.334 6.94662 17.4697C7.20601 17.7291 7.62659 17.7291 7.88599 17.4697L9.88599 15.4697C10.1789 15.1768 10.6538 15.1768 10.9466 15.4697ZM13.7192 3.52536C15.6996 1.54493 18.9105 1.54493 20.8909 3.52536C22.8714 5.50579 22.8714 8.7167 20.8909 10.6971L11.1131 20.4749C9.13272 22.4553 5.92181 22.4553 3.94138 20.4749C1.96095 18.4945 1.96095 15.2836 3.94138 13.3031L13.7192 3.52536ZM19.8303 4.58602C18.4356 3.19138 16.1745 3.19138 14.7798 4.58602L10.4213 8.94458L15.4717 13.995L19.8303 9.63647C21.2249 8.24183 21.2249 5.98066 19.8303 4.58602ZM14.411 15.0557L9.3606 10.0052L5.00204 14.3638C3.60739 15.7584 3.60739 18.0196 5.00204 19.4142C6.39668 20.8089 8.65785 20.8089 10.0525 19.4142L14.411 15.0557Z" fill="#212121"/>
</svg>
