<svg width="28" height="28" viewBox="0 0 28 28" fill="none" xmlns="http://www.w3.org/2000/svg">
<path d="M4.5 5.75C4.5 3.95507 5.95507 2.5 7.75 2.5H20.25C22.0449 2.5 23.5 3.95507 23.5 5.75V13.6241C22.5813 13.2227 21.5667 13 20.5 13C16.3579 13 13 16.3579 13 20.5C13 21.1926 13.0939 21.8633 13.2696 22.5H6.01772C6.13903 23.3481 6.86838 24 7.75 24H13.865C14.152 24.5429 14.5037 25.0463 14.9097 25.5H7.75C5.95507 25.5 4.5 24.0449 4.5 22.25V5.75ZM8 7.25V8.25C8 8.94036 8.55964 9.5 9.25 9.5H18.75C19.4404 9.5 20 8.94036 20 8.25V7.25C20 6.55964 19.4404 6 18.75 6H9.25C8.55964 6 8 6.55964 8 7.25ZM27 20.5C27 24.0899 24.0899 27 20.5 27C16.9101 27 14 24.0899 14 20.5C14 16.9101 16.9101 14 20.5 14C24.0899 14 27 16.9101 27 20.5ZM21 16.5C21 16.2239 20.7761 16 20.5 16C20.2239 16 20 16.2239 20 16.5V20H16.5C16.2239 20 16 20.2239 16 20.5C16 20.7761 16.2239 21 16.5 21H20V24.5C20 24.7761 20.2239 25 20.5 25C20.7761 25 21 24.7761 21 24.5V21H24.5C24.7761 21 25 20.7761 25 20.5C25 20.2239 24.7761 20 24.5 20H21V16.5Z" fill="#212121"/>
</svg>
