<svg width="24" height="24" viewBox="0 0 24 24" fill="none" xmlns="http://www.w3.org/2000/svg">
<path d="M6.5 11.9999C9.53757 11.9999 12 14.4624 12 17.4999C12 20.5375 9.53757 22.9999 6.5 22.9999C3.46243 22.9999 1 20.5375 1 17.4999C1 14.4624 3.46243 11.9999 6.5 11.9999ZM6.5 13.9981C5.58183 13.9981 4.82881 14.7052 4.7558 15.6046L4.75 15.7481L4.75034 16.5295C4.35482 16.6312 4.05393 16.9687 4.00652 17.3833L4 17.4981V19.9981C4 20.511 4.38604 20.9336 4.88338 20.9914L5 20.9981H8C8.51284 20.9981 8.93551 20.6121 8.99327 20.1147L9 19.9981V17.4981C9 17.0712 8.73249 16.7068 8.35595 16.5633L8.25068 16.5298L8.25 15.7481C8.25 14.7816 7.4665 13.9981 6.5 13.9981ZM6.5 14.9981C6.8797 14.9981 7.19349 15.2803 7.24315 15.6464L7.25 15.7481V16.4981H5.75V15.7481C5.75 15.3339 6.08579 14.9981 6.5 14.9981ZM15.6432 13.8195C16.0908 14.2671 16.4591 14.8168 16.7153 15.4017C16.8816 15.7811 16.7088 16.2234 16.3294 16.3896C15.95 16.5559 15.5077 16.3831 15.3415 16.0037C15.1584 15.5859 14.8948 15.1924 14.5826 14.8802C13.8365 14.1341 12.8437 13.7848 11.8668 13.8324C11.5304 13.3405 11.1278 12.8972 10.6721 12.5154C12.3838 12.0383 14.2967 12.473 15.6432 13.8195ZM17.7451 10.7507C18.3359 11.3415 18.8473 12.0581 19.237 12.82C19.4257 13.1888 19.2796 13.6406 18.9108 13.8292C18.5421 14.0179 18.0902 13.8718 17.9016 13.503C17.5812 12.8767 17.161 12.2879 16.6844 11.8113C14.3451 9.47201 10.6789 9.26815 8.10836 11.1998C7.59436 11.0696 7.05531 10.9999 6.5 10.9999C6.36318 10.9999 6.22734 11.0042 6.09261 11.0125C6.17398 10.9241 6.25766 10.8366 6.34358 10.7507C9.49202 7.60225 14.5967 7.60225 17.7451 10.7507ZM20.4483 8.2788C20.9573 8.78785 21.4379 9.36943 21.8564 9.97568C22.0917 10.3166 22.006 10.7837 21.6651 11.019C21.3242 11.2542 20.8571 11.1686 20.6218 10.8277C20.2538 10.2945 19.831 9.78285 19.3876 9.33946C15.3075 5.25941 8.69246 5.25941 4.61241 9.33946C4.19053 9.76134 3.77212 10.273 3.39038 10.8232C3.15428 11.1636 2.68698 11.2481 2.34665 11.012C2.00631 10.7758 1.92181 10.3086 2.15792 9.96822C2.58808 9.34815 3.06249 8.76806 3.55175 8.2788C8.21759 3.61296 15.7824 3.61296 20.4483 8.2788Z" fill="#212121"/>
</svg>
