<?xml version="1.0" encoding="UTF-8"?>
<svg width="24px" height="24px" viewBox="0 0 24 24" version="1.1" xmlns="http://www.w3.org/2000/svg" xmlns:xlink="http://www.w3.org/1999/xlink">
    <!-- Generator: Sketch 59.1 (86144) - https://sketch.com -->
    <title>ic_dialpad_off_24_filled</title>
    <desc>Created with Sketch.</desc>
    <g id="ðŸ”-Product-Icons" stroke="none" stroke-width="1" fill="none" fill-rule="evenodd">
        <g id="ic_dialpad_off_24_filled" fill="#212121" fill-rule="nonzero">
            <path d="M21.7803301,2.21966991 C22.0465966,2.48593648 22.0708027,2.90260016 21.8529482,3.19621165 L21.7803301,3.28033009 L17.2830354,7.77744021 C17.9741391,7.91138207 18.4959653,8.51975152 18.4959653,9.25 C18.4959653,10.0784271 17.8243924,10.75 16.9959653,10.75 C16.2657168,10.75 15.6573474,10.2281738 15.5234055,9.53707007 L12.283071,12.7766708 C12.9761598,12.9090368 13.5,13.5183437 13.5,14.25 C13.5,15.0784271 12.8284271,15.75 12,15.75 C11.2683437,15.75 10.6590368,15.2261598 10.5266708,14.533071 L3.28033009,21.7803301 C2.98743687,22.0732233 2.51256313,22.0732233 2.21966991,21.7803301 C1.95340335,21.5140635 1.9291973,21.0973998 2.14705176,20.8037883 L2.21966991,20.7196699 L7.20382572,15.7368107 L7.2,15.736 L12.2047905,10.7361367 L12.2,10.736 L17.2057501,5.73544638 L17.201,5.735 L18.48196,4.4558282 L18.4814117,4.45978477 L20.7196699,2.21966991 C21.0125631,1.9267767 21.4874369,1.9267767 21.7803301,2.21966991 Z M12,17.75 C12.8284271,17.75 13.5,18.4215729 13.5,19.25 C13.5,20.0784271 12.8284271,20.75 12,20.75 C11.1715729,20.75 10.5,20.0784271 10.5,19.25 C10.5,18.4215729 11.1715729,17.75 12,17.75 Z M16.9959653,12.75 C17.8243924,12.75 18.4959653,13.4215729 18.4959653,14.25 C18.4959653,15.0784271 17.8243924,15.75 16.9959653,15.75 C16.1675382,15.75 15.4959653,15.0784271 15.4959653,14.25 C15.4959653,13.4215729 16.1675382,12.75 16.9959653,12.75 Z M7.00403471,12.75 C7.30599292,12.75 7.58711191,12.8392233 7.82246598,12.9927441 L5.74677886,15.0684313 C5.593258,14.8330772 5.50403471,14.5519582 5.50403471,14.25 C5.50403471,13.4215729 6.17560759,12.75 7.00403471,12.75 Z M7.00403471,7.75 C7.83246184,7.75 8.50403471,8.42157288 8.50403471,9.25 C8.50403471,10.0784271 7.83246184,10.75 7.00403471,10.75 C6.17560759,10.75 5.50403471,10.0784271 5.50403471,9.25 C5.50403471,8.42157288 6.17560759,7.75 7.00403471,7.75 Z M12,7.75 C12.3028284,7.75 12.5846973,7.83973828 12.8204649,7.99407301 L10.744073,10.0704649 C10.5897383,9.83469731 10.5,9.5528284 10.5,9.25 C10.5,8.42157288 11.1715729,7.75 12,7.75 Z M12,2.75 C12.8284271,2.75 13.5,3.42157288 13.5,4.25 C13.5,5.07842712 12.8284271,5.75 12,5.75 C11.1715729,5.75 10.5,5.07842712 10.5,4.25 C10.5,3.42157288 11.1715729,2.75 12,2.75 Z M7.00403471,2.75 C7.83246184,2.75 8.50403471,3.42157288 8.50403471,4.25 C8.50403471,5.07842712 7.83246184,5.75 7.00403471,5.75 C6.17560759,5.75 5.50403471,5.07842712 5.50403471,4.25 C5.50403471,3.42157288 6.17560759,2.75 7.00403471,2.75 Z M16.9959653,2.75 C17.300099,2.75 17.5830921,2.84051355 17.8194763,2.99607232 L15.7420376,5.07351104 C15.5864788,4.83712682 15.4959653,4.5541337 15.4959653,4.25 C15.4959653,3.42157288 16.1675382,2.75 16.9959653,2.75 Z" id="ðŸŽ¨-Color"></path>
        </g>
    </g>
</svg>