<svg width="28" height="28" viewBox="0 0 28 28" fill="none" xmlns="http://www.w3.org/2000/svg">
<path d="M21.251 22.5C21.665 22.5002 22.001 22.8359 22.001 23.25C22.001 23.6641 21.665 23.9998 21.251 24H6.75391C6.33969 24 6.00391 23.6642 6.00391 23.25C6.00391 22.8358 6.33969 22.5 6.75391 22.5H21.251ZM14.002 4C14.3094 4.00004 14.5859 4.18786 14.6992 4.47363L20.4473 18.9736C20.5999 19.3587 20.4114 19.7946 20.0264 19.9473C19.6414 20.0997 19.2053 19.9114 19.0527 19.5264L17.2578 15H10.7422L8.94727 19.5264C8.79452 19.9113 8.35858 20.0999 7.97363 19.9473C7.58883 19.7945 7.40019 19.3585 7.55273 18.9736L13.3047 4.47363C13.418 4.188 13.6947 4.0002 14.002 4ZM11.3369 13.5H16.6631L14.001 6.78418L11.3369 13.5Z" fill="#212121"/>
</svg>
