<svg width="20" height="20" viewBox="0 0 20 20" fill="none" xmlns="http://www.w3.org/2000/svg">
<path d="M3.5 3C2.67157 3 2 3.67157 2 4.5V8.5C2 9.32843 2.67157 10 3.5 10H12.5C13.3284 10 14 9.32843 14 8.5V4.5C14 3.67157 13.3284 3 12.5 3H3.5ZM3.5 11C2.67157 11 2 11.6716 2 12.5V16.5C2 17.3284 2.67157 18 3.5 18H12.5C13.3284 18 14 17.3284 14 16.5V12.5C14 11.6716 13.3284 11 12.5 11H3.5ZM16.9998 12.437C16.8401 12.4781 16.6726 12.5 16.5 12.5C16.3274 12.5 16.1598 12.4781 16 12.437C15.1374 12.215 14.5 11.4319 14.5 10.5C14.5 9.56808 15.1374 8.78503 16 8.56301C16.0001 8.56299 15.9999 8.56302 16 8.56301C16.1598 8.5219 16.3274 8.5 16.5 8.5C16.6726 8.5 16.8402 8.52188 17 8.56301C17.8626 8.78503 18.5 9.56808 18.5 10.5C18.5 11.4319 17.8624 12.215 16.9998 12.437C16.9998 12.437 16.9999 12.437 16.9998 12.437ZM16.5 3C16.7761 3 17 3.22386 17 3.5V7.54148C16.8374 7.5142 16.6704 7.5 16.5 7.5C16.3296 7.5 16.1626 7.5142 16 7.54148V3.5C16 3.22386 16.2239 3 16.5 3ZM16.5 13.5C16.3296 13.5 16.1626 13.4858 16 13.4585V17.5C16 17.7761 16.2239 18 16.5 18C16.7761 18 17 17.7761 17 17.5V13.4585C16.8374 13.4858 16.6704 13.5 16.5 13.5Z" fill="#212121"/>
</svg>
