<svg width="28" height="28" viewBox="0 0 28 28" fill="none" xmlns="http://www.w3.org/2000/svg">
<path d="M25 21.75C25 23.5449 23.5449 25 21.75 25H6.25C4.45507 25 3 23.5449 3 21.75V9.5H25V21.75ZM19.0303 13.2197C18.7374 12.9268 18.2626 12.9268 17.9697 13.2197L12.5 18.6895L10.0303 16.2197L9.97363 16.168C9.67905 15.9277 9.24433 15.9451 8.96973 16.2197C8.67683 16.5126 8.67683 16.9874 8.96973 17.2803L11.9697 20.2803C12.2626 20.5732 12.7374 20.5732 13.0303 20.2803L19.0303 14.2803C19.3232 13.9874 19.3232 13.5126 19.0303 13.2197ZM21.75 3C23.5449 3 25 4.45507 25 6.25V8H3V6.25C3 4.45507 4.45507 3 6.25 3H21.75Z" fill="#212121"/>
</svg>
