<svg width="20" height="20" viewBox="0 0 20 20" fill="none" xmlns="http://www.w3.org/2000/svg">
<path d="M4 16V4C4 2.89543 4.89543 2 6 2H14C15.1046 2 16 2.89543 16 4V15C16 15.5523 15.5523 16 15 16H5C5 16.5523 5.44772 17 6 17H15.5C15.7761 17 16 17.2239 16 17.5C16 17.7761 15.7761 18 15.5 18H6C4.89543 18 4 17.1046 4 16ZM15 4C15 3.44772 14.5523 3 14 3H6C5.44772 3 5 3.44772 5 4V15H15V4ZM10.4537 5.2894C10.3717 5.11291 10.1948 5 10.0002 5C9.80562 5 9.6287 5.11291 9.54673 5.2894L8.72478 7.0593L6.78751 7.29409C6.59433 7.3175 6.43228 7.45088 6.37214 7.63595C6.31201 7.82102 6.36472 8.02417 6.50725 8.15667L7.93652 9.48532L7.56117 11.4003C7.52374 11.5913 7.60051 11.7866 7.75795 11.901C7.91538 12.0154 8.12487 12.028 8.29493 11.9334L10.0002 10.9847L11.7055 11.9334C11.8756 12.028 12.0851 12.0154 12.2425 11.901C12.3999 11.7866 12.4767 11.5913 12.4393 11.4003L12.0639 9.48532L13.4932 8.15667C13.6357 8.02417 13.6884 7.82102 13.6283 7.63595C13.5682 7.45088 13.4061 7.3175 13.2129 7.29409L11.2757 7.0593L10.4537 5.2894ZM9.51458 7.7328L10.0002 6.68708L10.4859 7.7328C10.5587 7.88967 10.7075 7.99775 10.8792 8.01856L12.0238 8.15729L11.1793 8.9423C11.0526 9.06006 10.9958 9.23494 11.0291 9.40468L11.2508 10.5361L10.2433 9.97558C10.0922 9.89148 9.90828 9.89148 9.75713 9.97558L8.74959 10.5361L8.97136 9.40468C9.00462 9.23494 8.9478 9.06006 8.82112 8.9423L7.97666 8.15729L9.12126 8.01856C9.29297 7.99775 9.44173 7.88967 9.51458 7.7328Z" fill="#212121"/>
</svg>
