<svg width="20" height="20" viewBox="0 0 20 20" fill="none" xmlns="http://www.w3.org/2000/svg">
<path d="M4 5C4 3.89543 4.89543 3 6 3H13C14.1046 3 15 3.89543 15 5V12H18V14C18 15.6569 16.6569 17 15 17H10.95C10.9828 16.8384 11 16.6712 11 16.5V13.5C11 12.1193 9.88071 11 8.5 11H4V5ZM15 16C16.1046 16 17 15.1046 17 14V13H15V16ZM7.5 6C7.22386 6 7 6.22386 7 6.5C7 6.77614 7.22386 7 7.5 7H11.5C11.7761 7 12 6.77614 12 6.5C12 6.22386 11.7761 6 11.5 6H7.5ZM7.5 9C7.22386 9 7 9.22386 7 9.5C7 9.77614 7.22386 10 7.5 10H11.5C11.7761 10 12 9.77614 12 9.5C12 9.22386 11.7761 9 11.5 9H7.5ZM10 13.5C10 12.6716 9.32843 12 8.5 12H2.5C1.67157 12 1 12.6716 1 13.5V16.5C1 17.3284 1.67157 18 2.5 18H8.5C9.32843 18 10 17.3284 10 16.5V13.5ZM9 15.5V16.5C8.72388 16.5 8.50004 16.7239 8.50004 17H7.50004C7.50004 16.1716 8.17159 15.5 9 15.5ZM8.50004 13C8.50004 13.2761 8.72388 13.5 9 13.5V14.5C8.17159 14.5 7.50004 13.8284 7.50004 13H8.50004ZM2.00004 13.5C2.27619 13.5 2.50004 13.2761 2.50004 13H3.50004C3.50004 13.8284 2.82843 14.5 2 14.5L2.00004 13.5ZM2.50004 17C2.50004 16.7239 2.27614 16.5 2 16.5V15.5C2.82843 15.5 3.50004 16.1716 3.50004 17H2.50004ZM4.00004 15C4.00004 14.1716 4.67162 13.5 5.50004 13.5C6.32847 13.5 7.00004 14.1716 7.00004 15C7.00004 15.8284 6.32847 16.5 5.50004 16.5C4.67162 16.5 4.00004 15.8284 4.00004 15Z" fill="#212121"/>
</svg>
