<svg width="24" height="24" viewBox="0 0 24 24" fill="none" xmlns="http://www.w3.org/2000/svg">
<path d="M21.4901 4.98191L19.4795 6.99254C19.1583 6.51381 18.7861 6.0591 18.3631 5.63603C17.9409 5.21389 17.4873 4.84246 17.0097 4.52172L19.0198 2.51162C19.702 1.82946 20.808 1.82946 21.4901 2.51162C22.1723 3.19377 22.1723 4.29976 21.4901 4.98191ZM5.28033 13.7197C5.57322 14.0126 5.57322 14.4874 5.28033 14.7803L3.28033 16.7803C2.98744 17.0732 2.51256 17.0732 2.21967 16.7803C1.92678 16.4874 1.92678 16.0126 2.21967 15.7197L4.21967 13.7197C4.51256 13.4268 4.98744 13.4268 5.28033 13.7197ZM7.78033 17.2803C8.07322 16.9874 8.07322 16.5126 7.78033 16.2197C7.48744 15.9268 7.01256 15.9268 6.71967 16.2197L4.71967 18.2197C4.42678 18.5126 4.42678 18.9874 4.71967 19.2803C5.01256 19.5732 5.48744 19.5732 5.78033 19.2803L7.78033 17.2803ZM10.2803 19.7803C10.5732 19.4874 10.5732 19.0126 10.2803 18.7197C9.98744 18.4268 9.51256 18.4268 9.21967 18.7197L7.21967 20.7197C6.92678 21.0126 6.92678 21.4874 7.21967 21.7803C7.51256 22.0732 7.98744 22.0732 8.28033 21.7803L10.2803 19.7803ZM3.73608 7.26294C4.41902 6.58 5.52629 6.58 6.20923 7.26294L16.7683 17.822C17.4513 18.505 17.4513 19.6122 16.7683 20.2952C16.0854 20.9781 14.9781 20.9781 14.2952 20.2952L3.73608 9.73608C3.05314 9.05314 3.05314 7.94588 3.73608 7.26294ZM6.91622 6.55575C6.78223 6.42176 6.63785 6.30449 6.48567 6.20395C9.61954 3.21966 14.5797 3.26606 17.6567 6.34315C20.7318 9.41818 20.7802 14.3737 17.8019 17.5079C17.7071 17.3695 17.5983 17.2378 17.4753 17.1148L6.91622 6.55575Z" fill="#212121"/>
</svg>
