<svg width="24" height="24" viewBox="0 0 24 24" fill="none" xmlns="http://www.w3.org/2000/svg">
<path d="M14 3H6.25C4.45507 3 3 4.45508 3 6.25V8.5H14V3ZM15.5 8.5H21V6.25C21 4.45507 19.5449 3 17.75 3H15.5V8.5ZM10 10V14H12.0218C13.1769 12.1958 15.1988 11 17.5 11C18.7886 11 19.9897 11.375 21 12.0218V10H10ZM3 15.5H11.3135C11.11 16.1301 11 16.8022 11 17.5C11 18.7886 11.375 19.9897 12.0218 21H6.25C4.45508 21 3 19.5449 3 17.75V15.5ZM8.5 10H3V14H8.5V10ZM23 17.5C23 14.4624 20.5376 12 17.5 12C14.4624 12 12 14.4624 12 17.5C12 20.5376 14.4624 23 17.5 23C20.5376 23 23 20.5376 23 17.5ZM18.0006 18L18.0011 20.5035C18.0011 20.7797 17.7773 21.0035 17.5011 21.0035C17.225 21.0035 17.0011 20.7797 17.0011 20.5035L17.0006 18H14.4956C14.2197 18 13.9961 17.7762 13.9961 17.5C13.9961 17.2239 14.2197 17 14.4956 17H17.0005L17 14.4993C17 14.2231 17.2239 13.9993 17.5 13.9993C17.7761 13.9993 18 14.2231 18 14.4993L18.0005 17H20.4966C20.7725 17 20.9961 17.2239 20.9961 17.5C20.9961 17.7762 20.7725 18 20.4966 18H18.0006Z" fill="#212121"/>
</svg>
