<svg width="24" height="24" viewBox="0 0 24 24" fill="none" xmlns="http://www.w3.org/2000/svg">
<path d="M10.001 21.25C9.932 21.25 9.862 21.243 9.796 21.229C9.254 21.116 4.5 20.032 4.5 16.871C4.5 15.056 6.103 14.187 7.273 13.553C8.347 12.97 9 12.574 9 11.992C9 11.41 8.348 11.016 7.273 10.435C6.101 9.8 4.5 8.932 4.5 7.12C4.5 3.961 9.255 2.883 9.797 2.771C9.863 2.757 9.931 2.75 9.999 2.75C10.471 2.75 10.883 3.084 10.978 3.546C11.033 3.807 10.982 4.074 10.836 4.297C10.69 4.521 10.465 4.674 10.204 4.729C9.043 4.973 6.499 5.913 6.499 7.12C6.499 7.7 7.151 8.095 8.225 8.676C9.397 9.31 10.999 10.178 10.999 11.991C10.999 13.804 9.396 14.675 8.226 15.309C7.152 15.892 6.499 16.288 6.499 16.87C6.499 18.099 8.995 19.018 10.203 19.27C10.742 19.383 11.09 19.914 10.978 20.453C10.88 20.914 10.469 21.249 9.999 21.249L10.001 21.25ZM18.979 20.454C19.09 19.914 18.743 19.384 18.204 19.271C16.996 19.019 14.5 18.1 14.5 16.871C14.5 16.289 15.152 15.893 16.227 15.31C17.398 14.676 19 13.807 19 11.992C19 10.177 17.397 9.311 16.226 8.677C15.153 8.095 14.5 7.701 14.5 7.121C14.5 5.913 17.044 4.974 18.205 4.73C18.466 4.675 18.69 4.522 18.837 4.298C18.983 4.074 19.033 3.807 18.979 3.547C18.883 3.086 18.471 2.751 18 2.751C17.932 2.751 17.863 2.758 17.798 2.772C17.256 2.884 12.501 3.962 12.501 7.121C12.501 8.933 14.103 9.801 15.274 10.436C16.348 11.017 17.001 11.412 17.001 11.993C17.001 12.574 16.349 12.971 15.274 13.554C14.103 14.188 12.501 15.057 12.501 16.872C12.501 20.034 17.255 21.117 17.797 21.23C17.863 21.244 17.933 21.251 18.002 21.251C18.472 21.251 18.883 20.917 18.981 20.455L18.979 20.454Z" fill="#212121"/>
</svg>
