<svg width="20" height="20" viewBox="0 0 20 20" fill="none" xmlns="http://www.w3.org/2000/svg">
<path d="M16.4866 5.99994C16.491 5.99998 16.4955 6 16.5 6C17.3284 6 18 5.32843 18 4.5C18 3.67157 17.3284 3 16.5 3C15.8469 3 15.2913 3.4174 15.0854 4C15.0831 4.00628 15.081 4.01259 15.0788 4.01891C15.0277 4.16992 15 4.33173 15 4.5C15 4.67532 15.0301 4.84361 15.0854 5C15.1771 5.25967 15.3384 5.48652 15.5468 5.65823C15.5488 5.65989 15.5508 5.66154 15.5528 5.66318C15.8079 5.87112 16.1326 5.99684 16.4866 5.99994ZM11.0854 16C11.2913 16.5826 11.8469 17 12.5 17C13.3284 17 14 16.3284 14 15.5C14 14.9822 13.7377 14.5257 13.3387 14.2562C13.1027 14.0968 12.8189 14.0027 12.5134 14.0001C12.5089 14 12.5045 14 12.5 14C11.8469 14 11.2913 14.4174 11.0854 15C11.0831 15.0063 11.081 15.0126 11.0788 15.0189C11.0277 15.1699 11 15.3317 11 15.5C11 15.6753 11.0301 15.8436 11.0854 16ZM3.5 17C2.67157 17 2 16.3284 2 15.5C2 14.6716 2.67157 14 3.5 14C3.50447 14 3.50893 14 3.51338 14.0001C3.53476 14.0002 3.55603 14.0009 3.57719 14.002C3.90912 14.0188 4.21258 14.1435 4.4532 14.3418C4.6616 14.5135 4.82286 14.7403 4.91465 15C4.91687 15.0063 4.91905 15.0126 4.92119 15.0189C4.97229 15.1699 5 15.3317 5 15.5C5 15.6753 4.96992 15.8436 4.91465 16C4.70873 16.5826 4.15311 17 3.5 17ZM7.48658 5.99994C7.49105 5.99998 7.49552 6 7.5 6C8.15311 6 8.70873 5.5826 8.91465 5C8.91687 4.99372 8.91905 4.98741 8.92119 4.98109C8.97229 4.83008 9 4.66827 9 4.5C9 4.32468 8.96992 4.15639 8.91465 4C8.70873 3.4174 8.15311 3 7.5 3C6.67157 3 6 3.67157 6 4.5C6 4.96642 6.21288 5.38311 6.54678 5.65823C6.54879 5.65989 6.5508 5.66154 6.55282 5.66318C6.80787 5.87112 7.13259 5.99684 7.48658 5.99994ZM3.8673 13.0268L6.19287 6.63147C6.47414 6.80433 6.79224 6.92308 7.13267 6.9732L4.8071 13.3685C4.52583 13.1957 4.20773 13.0769 3.8673 13.0268ZM14.05 5H9.94999C9.98278 4.83844 10 4.67123 10 4.5C10 4.32877 9.98278 4.16155 9.94999 4H14.05C14.0172 4.16155 14 4.32877 14 4.5C14 4.67123 14.0172 4.83844 14.05 5ZM5.94999 16H10.05C10.0172 15.8384 10 15.6712 10 15.5C10 15.3288 10.0172 15.1616 10.05 15H5.94999C5.98278 15.1616 6 15.3288 6 15.5C6 15.6712 5.98278 15.8384 5.94999 16ZM12.8673 13.0268L15.1929 6.63147C15.4741 6.80433 15.7922 6.92308 16.1327 6.9732L13.8071 13.3685C13.5258 13.1957 13.2077 13.0769 12.8673 13.0268Z" fill="#212121"/>
</svg>
