<svg width="32" height="32" viewBox="0 0 32 32" fill="none" xmlns="http://www.w3.org/2000/svg">
<path d="M8.5 2C6.567 2 5 3.567 5 5.5V21H27V5.5C27 3.567 25.433 2 23.5 2H8.5Z" fill="url(#paint0_linear_72095_8395)"/>
<path d="M10 21V17C10 15.8954 10.8954 15 12 15H20C21.1046 15 22 15.8954 22 17V21H10Z" fill="url(#paint1_linear_72095_8395)"/>
<path d="M20 10C20 12.2091 18.2091 14 16 14C13.7909 14 12 12.2091 12 10C12 7.79086 13.7909 6 16 6C18.2091 6 20 7.79086 20 10Z" fill="url(#paint2_linear_72095_8395)"/>
<path d="M23.5 30C25.433 30 27 28.433 27 26.5V20H5V26.5C5 28.433 6.567 30 8.5 30H23.5Z" fill="url(#paint3_linear_72095_8395)"/>
<path d="M23.5 30C25.433 30 27 28.433 27 26.5V20H5V26.5C5 28.433 6.567 30 8.5 30H23.5Z" fill="url(#paint4_linear_72095_8395)" fill-opacity="0.7"/>
<path d="M10 24C9.44772 24 9 24.4477 9 25C9 25.5523 9.44772 26 10 26H22C22.5523 26 23 25.5523 23 25C23 24.4477 22.5523 24 22 24H10Z" fill="url(#paint5_linear_72095_8395)"/>
<defs>
<linearGradient id="paint0_linear_72095_8395" x1="12.8571" y1="2" x2="19.3774" y2="20.6432" gradientUnits="userSpaceOnUse">
<stop stop-color="#B3E0FF"/>
<stop offset="1" stop-color="#8CD0FF"/>
</linearGradient>
<linearGradient id="paint1_linear_72095_8395" x1="12.8536" y1="15.7976" x2="14.7921" y2="21.9883" gradientUnits="userSpaceOnUse">
<stop offset="0.125321" stop-color="#9C6CFE"/>
<stop offset="1" stop-color="#7A41DC"/>
</linearGradient>
<linearGradient id="paint2_linear_72095_8395" x1="13.9024" y1="7.06349" x2="17.9795" y2="13.5737" gradientUnits="userSpaceOnUse">
<stop offset="0.125321" stop-color="#9C6CFE"/>
<stop offset="1" stop-color="#7A41DC"/>
</linearGradient>
<linearGradient id="paint3_linear_72095_8395" x1="-0.499999" y1="0.0195114" x2="27.7733" y2="29.1844" gradientUnits="userSpaceOnUse">
<stop stop-color="#36DFF1"/>
<stop offset="1" stop-color="#2764E7"/>
</linearGradient>
<linearGradient id="paint4_linear_72095_8395" x1="16" y1="10.8333" x2="18.2674" y2="34.7342" gradientUnits="userSpaceOnUse">
<stop offset="0.618682" stop-color="#FF6CE8" stop-opacity="0"/>
<stop offset="1" stop-color="#FF6CE8"/>
</linearGradient>
<linearGradient id="paint5_linear_72095_8395" x1="11.6923" y1="24.1538" x2="11.9371" y2="28.3061" gradientUnits="userSpaceOnUse">
<stop stop-color="white"/>
<stop offset="1" stop-color="#B3E0FF"/>
</linearGradient>
</defs>
</svg>
