<svg width="28" height="28" viewBox="0 0 28 28" fill="none" xmlns="http://www.w3.org/2000/svg">
<path d="M8.34247 7C9.88875 5.74851 11.8569 5 14 5C18.9706 5 23 9.02944 23 14C23 18.9706 18.9706 23 14 23C9.02944 23 5 18.9706 5 14C5 13.6955 5.01508 13.3949 5.04448 13.0988C5.09905 12.5492 4.69776 12.0595 4.14818 12.0049C3.59859 11.9503 3.10883 12.3516 3.05427 12.9012C3.01836 13.2629 3 13.6295 3 14C3 20.0751 7.92487 25 14 25C20.0751 25 25 20.0751 25 14C25 7.92487 20.0751 3 14 3C11.3405 3 8.90133 3.94442 7 5.51448V4C7 3.44772 6.55228 3 6 3C5.44772 3 5 3.44772 5 4V7.98746C4.99985 8.00129 4.99999 8.01511 5.00041 8.02892C5.01571 8.56783 5.45739 9 6 9H10C10.5523 9 11 8.55228 11 8C11 7.44772 10.5523 7 10 7H8.34247Z" fill="#212121"/>
</svg>
