<svg width="24" height="24" viewBox="0 0 24 24" fill="none" xmlns="http://www.w3.org/2000/svg">
<path d="M12.0004 6.5C13.243 6.5 14.2504 5.49264 14.2504 4.25C14.2504 3.00736 13.243 2 12.0004 2C10.7577 2 9.75037 3.00736 9.75037 4.25C9.75037 5.49264 10.7577 6.5 12.0004 6.5ZM6.15015 4.17803C5.00701 3.69279 3.68228 4.22239 3.1887 5.36195C2.69342 6.50545 3.22266 7.82927 4.36975 8.31618L7.39345 9.59966C7.76283 9.75645 8.00271 10.1189 8.00271 10.5202V13.5597L6.12373 19.0167C5.71917 20.1916 6.34368 21.4721 7.51862 21.8766C8.69356 22.2812 9.974 21.6567 10.3786 20.4817L11.072 18.468C11.0248 18.1522 11.0004 17.8289 11.0004 17.5C11.0004 14.4256 13.1348 11.8497 16.0027 11.1734V10.5181C16.0027 10.1168 16.2426 9.75438 16.612 9.59759L19.6308 8.31618C20.7779 7.82927 21.3071 6.50545 20.8118 5.36195C20.3183 4.22239 18.9935 3.69279 17.8504 4.17803L16.2444 4.85973C15.9037 5.00435 15.666 5.28256 15.5496 5.59067C15.0076 7.02499 13.6219 8.04295 12.0003 8.04295C10.3788 8.04295 8.99308 7.025 8.45103 5.5907C8.3346 5.2826 8.09695 5.00439 7.75625 4.85978L6.15015 4.17803ZM23.0004 17.5C23.0004 20.5376 20.5379 23 17.5004 23C14.4628 23 12.0004 20.5376 12.0004 17.5C12.0004 14.4624 14.4628 12 17.5004 12C20.5379 12 23.0004 14.4624 23.0004 17.5ZM20.8539 15.1464C20.6587 14.9512 20.3421 14.9512 20.1468 15.1464L16.5004 18.7929L14.8539 17.1464C14.6587 16.9512 14.3421 16.9512 14.1468 17.1464C13.9516 17.3417 13.9516 17.6583 14.1468 17.8536L16.1468 19.8536C16.3421 20.0488 16.6587 20.0488 16.8539 19.8536L20.8539 15.8536C21.0492 15.6583 21.0492 15.3417 20.8539 15.1464Z" fill="#212121"/>
</svg>
