<svg width="24" height="24" viewBox="0 0 24 24" fill="none" xmlns="http://www.w3.org/2000/svg">
<path d="M11.8834 4.0099L12 4.00317C12.5128 4.00317 12.9355 4.38921 12.9933 4.88655L13 5.00317L13 16.587L15.2926 14.2932C15.6529 13.9325 16.2201 13.9045 16.6125 14.2094L16.7068 14.2925C17.0674 14.6528 17.0954 15.22 16.7906 15.6125L16.7074 15.7067L12.7112 19.7067C12.3509 20.0674 11.7837 20.0954 11.3912 19.7905L11.297 19.7074L7.29323 15.7074C6.90252 15.3171 6.90222 14.6839 7.29256 14.2932C7.65288 13.9325 8.22009 13.9045 8.61253 14.2094L8.70678 14.2925L11 16.583L11 5.00317C11 4.49034 11.386 4.06767 11.8834 4.0099L12 4.00317L11.8834 4.0099Z" fill="#212121"/>
</svg>
