<svg width="48" height="48" viewBox="0 0 48 48" fill="none" xmlns="http://www.w3.org/2000/svg">
<path d="M9 14C9 8.47715 13.4772 4 19 4C24.5228 4 29 8.47715 29 14C29 19.5228 24.5228 24 19 24C13.4772 24 9 19.5228 9 14ZM3 32.2489C3.00002 29.9013 4.90326 28 7.24988 28H21C21 28.0028 21 28.0055 21 28.0083V34.6742C21 36.2677 21.633 37.796 22.7598 38.9227L26.7267 42.8896C24.4077 43.6402 21.7634 44 19 44C14.7861 44 10.8491 43.1633 7.92017 41.3802C4.94167 39.5669 3 36.7555 3 33L3 32.2489ZM23 28.0066V34.6741C23 35.7367 23.4221 36.7558 24.1735 37.5072L31.4928 44.8265C33.0575 46.3912 35.5943 46.3912 37.1589 44.8265L43.8265 38.1589C45.3912 36.5943 45.3912 34.0575 43.8265 32.4928L36.5072 25.1735C35.7558 24.4221 34.7367 24 33.6741 24H27.0066C24.7938 24 23 25.7938 23 28.0066ZM28.5 31C27.6716 31 27 30.3284 27 29.5C27 28.6716 27.6716 28 28.5 28C29.3284 28 30 28.6716 30 29.5C30 30.3284 29.3284 31 28.5 31Z" fill="#212121"/>
</svg>
