<svg width="28" height="28" viewBox="0 0 28 28" fill="none" xmlns="http://www.w3.org/2000/svg">
<path d="M16.5 4.81425C16.5 3.71986 15.1932 3.15384 14.395 3.90244L9.45826 8.53182C9.13388 8.836 8.70587 9.00529 8.26119 9.00529H5.25C3.45508 9.00529 2 10.4604 2 12.2553V15.7473C2 17.5422 3.45507 18.9973 5.25 18.9973H8.26174C8.70619 18.9973 9.134 19.1664 9.45832 19.4703L14.3953 24.0964C15.1937 24.8446 16.5 24.2785 16.5 23.1843V4.81425ZM10.4843 9.62599L15 5.39141V22.6074L10.484 18.3757C9.88165 17.8114 9.08715 17.4973 8.26174 17.4973H5.25C4.2835 17.4973 3.5 16.7138 3.5 15.7473V12.2553C3.5 11.2888 4.2835 10.5053 5.25 10.5053H8.26119C9.08703 10.5053 9.8819 10.1909 10.4843 9.62599Z" fill="#212121"/>
<path d="M21.2803 6.21963C21.0659 6.00513 20.7433 5.94097 20.463 6.05705C20.1828 6.17314 20 6.44661 20 6.74996V12.3154L19.2302 11.6738C18.9119 11.4087 18.439 11.4517 18.1739 11.7699C17.9087 12.0881 17.9517 12.561 18.2699 12.8262L19.6791 14.0005L18.2698 15.1752C17.9516 15.4405 17.9087 15.9134 18.1739 16.2316C18.4391 16.5497 18.9121 16.5927 19.2302 16.3274L20 15.6858V21.25C20 21.5534 20.1828 21.8268 20.463 21.9429C20.7433 22.059 21.0659 21.9948 21.2804 21.7803L25.2804 17.7803C25.4294 17.6313 25.5088 17.4265 25.4992 17.216C25.4897 17.0055 25.392 16.8087 25.2302 16.6738L22.022 14.0003L25.2302 11.3261C25.3921 11.1912 25.4897 10.9944 25.4993 10.7839C25.5088 10.5734 25.4293 10.3686 25.2803 10.2196L21.2803 6.21963ZM23.639 17.3004L21.5 19.4393V15.5179L23.639 17.3004ZM21.5 8.56062L23.639 10.6996L21.5 12.4826V8.56062Z" fill="#212121"/>
</svg>
