<svg width="24" height="24" viewBox="0 0 24 24" fill="none" xmlns="http://www.w3.org/2000/svg">
<path d="M12 2V8C12 9.10457 12.8954 10 14 10H20V20C20 21.1046 19.1046 22 18 22H11.1904C12.3112 20.8321 13 19.2465 13 17.5C13 13.9101 10.0899 11 6.5 11C5.6141 11 4.76959 11.1772 4 11.4982V4C4 2.89543 4.89543 2 6 2H12ZM13.5 2.5V8C13.5 8.27614 13.7239 8.5 14 8.5H19.5L13.5 2.5ZM12 17.5C12 20.5376 9.53757 23 6.5 23C3.46243 23 1 20.5376 1 17.5C1 14.4624 3.46243 12 6.5 12C9.53757 12 12 14.4624 12 17.5ZM3.5 17C3.22386 17 3 17.2239 3 17.5C3 17.7761 3.22386 18 3.5 18H8.29289L6.64645 19.6464C6.45118 19.8417 6.45118 20.1583 6.64645 20.3536C6.84171 20.5488 7.15829 20.5488 7.35355 20.3536L9.85355 17.8536C10.0488 17.6583 10.0488 17.3417 9.85355 17.1464L7.35355 14.6464C7.15829 14.4512 6.84171 14.4512 6.64645 14.6464C6.45118 14.8417 6.45119 15.1583 6.64645 15.3536L8.29289 17H3.5Z" fill="#212121"/>
</svg>
